<svg xmlns="http://www.w3.org/2000/svg" xmlns:xlink="http://www.w3.org/1999/xlink" width="502pt" height="1340pt" viewBox="0 0 501.5 1340"><g class="graph" transform="translate(4 1336)"><title>CustomStressDegradation</title><g class="node"><title>Node1</title><a xlink:title="The CustomStressDegradation class.">
<path fill="#999" stroke="transparent" d="M364.5-84h-188V0h188z"/>
<text x="192.5" y="-71.2" font-family="Consolas" font-size="11">CustomStressDegradation</text>
<text x="267" y="-55.2" font-family="Consolas" font-size="11"> </text>
<text x="180.5" y="-39.2" font-family="Consolas" font-size="11">+</text>
<text x="191.5" y="-39.2" font-family="Consolas" font-size="11">CustomStressDegradation()</text>
<text x="180.5" y="-23.2" font-family="Consolas" font-size="11">+</text>
<text x="191.5" y="-23.2" font-family="Consolas" font-size="11">initialize()</text>
<text x="180.5" y="-7.2" font-family="Consolas" font-size="11">+</text>
<text x="191.5" y="-7.2" font-family="Consolas" font-size="11">unique_copy()</text>
<path fill="#666" stroke="#666" d="M176.5-66h188z"/>
<path fill="#666" stroke="#666" d="M176.5-50h188z"/>
<path fill="none" stroke="#666" d="M176.5 0v-84h188V0z"/>
</a></g><g class="node"><title>Node2</title><a xlink:href="../../d3/ddf/class_stress_degradation.html" target="_top">
<path fill="#fff" stroke="transparent" d="M351-220H190v100h161z"/>
<text x="213.5" y="-207.2" font-family="Consolas" font-size="11">StressDegradation</text>
<text x="267.5" y="-191.2" font-family="Consolas" font-size="11"> </text>
<text x="194.5" y="-175.2" font-family="Consolas" font-size="11">+</text>
<text x="205.5" y="-175.2" font-family="Consolas" font-size="11">initialize()</text>
<text x="194.5" y="-159.2" font-family="Consolas" font-size="11">+</text>
<text x="205.5" y="-159.2" font-family="Consolas" font-size="11">update_trial_status()</text>
<text x="194.5" y="-143.2" font-family="Consolas" font-size="11">+</text>
<text x="205.5" y="-143.2" font-family="Consolas" font-size="11">record()</text>
<text x="194.5" y="-127.2" font-family="Consolas" font-size="11">+</text>
<text x="205.5" y="-127.2" font-family="Consolas" font-size="11">Degradation()</text>
<path fill="#666" stroke="#666" d="M190.5-202h161z"/>
<path fill="#666" stroke="#666" d="M190.5-186h161z"/>
<path fill="none" stroke="#666" d="M190-120v-100h161v100z"/>
</a></g><g class="edge"><title>Node2-&gt;Node1</title><a>
<path fill="none" stroke="#63b8ff" d="M270.5-109.89v25.5"/>
<path fill="none" stroke="#63b8ff" d="m267-109.92 3.5-10 3.5 10z"/>
</a></g><g class="node"><title>Node3</title><a xlink:href="../../db/d75/class_degradation.html" xlink:title="The Degradation class." target="_top">
<path fill="#fff" stroke="transparent" d="M381.5-404h-222v148h222z"/>
<text x="233" y="-391.2" font-family="Consolas" font-size="11">Degradation</text>
<text x="163.5" y="-375.2" font-family="Consolas" font-size="11">#</text>
<text x="174.5" y="-375.2" font-family="Consolas" font-size="11">base</text>
<text x="163.5" y="-359.2" font-family="Consolas" font-size="11">+</text>
<text x="174.5" y="-359.2" font-family="Consolas" font-size="11">Degradation()</text>
<text x="163.5" y="-343.2" font-family="Consolas" font-size="11">+</text>
<text x="174.5" y="-343.2" font-family="Consolas" font-size="11">initialize()</text>
<text x="163.5" y="-327.2" font-family="Consolas" font-size="11">+</text>
<text x="174.5" y="-327.2" font-family="Consolas" font-size="11">clear_status()</text>
<text x="163.5" y="-311.2" font-family="Consolas" font-size="11">+</text>
<text x="174.5" y="-311.2" font-family="Consolas" font-size="11">commit_status()</text>
<text x="163.5" y="-295.2" font-family="Consolas" font-size="11">+</text>
<text x="174.5" y="-295.2" font-family="Consolas" font-size="11">reset_status()</text>
<text x="163.5" y="-279.2" font-family="Consolas" font-size="11">#</text>
<text x="174.5" y="-279.2" font-family="Consolas" font-size="11">compute_positive_degradation()</text>
<text x="163.5" y="-263.2" font-family="Consolas" font-size="11">#</text>
<text x="174.5" y="-263.2" font-family="Consolas" font-size="11">compute_negative_degradation()</text>
<path fill="#666" stroke="#666" d="M159.5-386h222z"/>
<path fill="#666" stroke="#666" d="M159.5-370h13z"/>
<path fill="#666" stroke="#666" d="M172.5-370h209z"/>
<path fill="none" stroke="#666" d="M159.5-256v-148h222v148z"/>
</a></g><g class="edge"><title>Node3-&gt;Node2</title><a>
<path fill="none" stroke="#63b8ff" d="M270.5-245.47v25.11"/>
<path fill="none" stroke="#63b8ff" d="m267-245.55 3.5-10 3.5 10z"/>
</a></g><g class="node"><title>Node4</title><a xlink:href="../../d9/d97/class_material1_d.html" xlink:title="A Material1D class." target="_top">
<path fill="#fff" stroke="transparent" d="M321-524H220v84h101z"/>
<text x="237" y="-511.2" font-family="Consolas" font-size="11">Material1D</text>
<text x="267.5" y="-495.2" font-family="Consolas" font-size="11"> </text>
<text x="224.5" y="-479.2" font-family="Consolas" font-size="11">+</text>
<text x="235.5" y="-479.2" font-family="Consolas" font-size="11">Material1D()</text>
<text x="224.5" y="-463.2" font-family="Consolas" font-size="11">+</text>
<text x="235.5" y="-463.2" font-family="Consolas" font-size="11">record()</text>
<text x="224.5" y="-447.2" font-family="Consolas" font-size="11">+</text>
<text x="235.5" y="-447.2" font-family="Consolas" font-size="11">print()</text>
<path fill="#666" stroke="#666" d="M220.5-506h101z"/>
<path fill="#666" stroke="#666" d="M220.5-490h101z"/>
<path fill="none" stroke="#666" d="M220-440v-84h101v84z"/>
</a></g><g class="edge"><title>Node4-&gt;Node3</title><a>
<path fill="none" stroke="#63b8ff" d="M270.5-429.52v25.32"/>
<path fill="none" stroke="#63b8ff" d="m267-429.61 3.5-10 3.5 10z"/>
</a></g><g class="node"><title>Node5</title><a xlink:href="../../dc/dee/class_material.html" xlink:title="A Material abstract base class." target="_top">
<path fill="#fff" stroke="transparent" d="M351-772H190v212h161z"/>
<text x="243.5" y="-759.2" font-family="Consolas" font-size="11">Material</text>
<text x="267.5" y="-743.2" font-family="Consolas" font-size="11"> </text>
<text x="194.5" y="-727.2" font-family="Consolas" font-size="11">+</text>
<text x="205.5" y="-727.2" font-family="Consolas" font-size="11">Material()</text>
<text x="194.5" y="-711.2" font-family="Consolas" font-size="11">+</text>
<text x="205.5" y="-711.2" font-family="Consolas" font-size="11">get_density()</text>
<text x="194.5" y="-695.2" font-family="Consolas" font-size="11">+</text>
<text x="205.5" y="-695.2" font-family="Consolas" font-size="11">get_material_type()</text>
<text x="194.5" y="-679.2" font-family="Consolas" font-size="11">+</text>
<text x="205.5" y="-679.2" font-family="Consolas" font-size="11">get_plane_type()</text>
<text x="194.5" y="-663.2" font-family="Consolas" font-size="11">+</text>
<text x="205.5" y="-663.2" font-family="Consolas" font-size="11">initialize_base()</text>
<text x="194.5" y="-647.2" font-family="Consolas" font-size="11">+</text>
<text x="205.5" y="-647.2" font-family="Consolas" font-size="11">initialize()</text>
<text x="194.5" y="-631.2" font-family="Consolas" font-size="11">+</text>
<text x="205.5" y="-631.2" font-family="Consolas" font-size="11">initialize_couple()</text>
<text x="194.5" y="-615.2" font-family="Consolas" font-size="11">+</text>
<text x="205.5" y="-615.2" font-family="Consolas" font-size="11">initialize_history()</text>
<text x="194.5" y="-599.2" font-family="Consolas" font-size="11">+</text>
<text x="205.5" y="-599.2" font-family="Consolas" font-size="11">set_initial_history()</text>
<text x="194.5" y="-583.2" font-family="Consolas" font-size="11">+</text>
<text x="205.5" y="-583.2" font-family="Consolas" font-size="11">set_initialized()</text>
<text x="205.5" y="-567.2" font-family="Consolas" font-size="11">and 67 more...</text>
<path fill="#666" stroke="#666" d="M190.5-754h161z"/>
<path fill="#666" stroke="#666" d="M190.5-738h161z"/>
<path fill="none" stroke="#666" d="M190-560v-212h161v212z"/>
</a></g><g class="edge"><title>Node5-&gt;Node4</title><a>
<path fill="none" stroke="#63b8ff" d="M270.5-549.68v25.48"/>
<path fill="none" stroke="#63b8ff" d="m267-549.92 3.5-10 3.5 10z"/>
</a></g><g class="node"><title>Node6</title><a xlink:href="../../de/de9/struct_data_material.html" target="_top">
<path fill="#fff" stroke="transparent" d="M161-1020H0v212h161z"/>
<text x="40" y="-1007.2" font-family="Consolas" font-size="11">DataMaterial</text>
<text x="4.5" y="-991.2" font-family="Consolas" font-size="11">+</text>
<text x="15.5" y="-991.2" font-family="Consolas" font-size="11">density</text>
<text x="4.5" y="-975.2" font-family="Consolas" font-size="11">+</text>
<text x="15.5" y="-975.2" font-family="Consolas" font-size="11">material_type</text>
<text x="4.5" y="-959.2" font-family="Consolas" font-size="11">+</text>
<text x="15.5" y="-959.2" font-family="Consolas" font-size="11">plane_type</text>
<text x="4.5" y="-943.2" font-family="Consolas" font-size="11">+</text>
<text x="15.5" y="-943.2" font-family="Consolas" font-size="11">tolerance</text>
<text x="4.5" y="-927.2" font-family="Consolas" font-size="11">+</text>
<text x="15.5" y="-927.2" font-family="Consolas" font-size="11">characteristic_length</text>
<text x="4.5" y="-911.2" font-family="Consolas" font-size="11">+</text>
<text x="15.5" y="-911.2" font-family="Consolas" font-size="11">current_strain</text>
<text x="4.5" y="-895.2" font-family="Consolas" font-size="11">+</text>
<text x="15.5" y="-895.2" font-family="Consolas" font-size="11">trial_strain</text>
<text x="4.5" y="-879.2" font-family="Consolas" font-size="11">+</text>
<text x="15.5" y="-879.2" font-family="Consolas" font-size="11">incre_strain</text>
<text x="4.5" y="-863.2" font-family="Consolas" font-size="11">+</text>
<text x="15.5" y="-863.2" font-family="Consolas" font-size="11">current_strain_rate</text>
<text x="4.5" y="-847.2" font-family="Consolas" font-size="11">+</text>
<text x="15.5" y="-847.2" font-family="Consolas" font-size="11">trial_strain_rate</text>
<text x="15.5" y="-831.2" font-family="Consolas" font-size="11">and 19 more...</text>
<text x="77.5" y="-815.2" font-family="Consolas" font-size="11"> </text>
<path fill="#666" stroke="#666" d="M.5-1002h161z"/>
<path fill="#666" stroke="#666" d="M.5-826h13z"/>
<path fill="#666" stroke="#666" d="M13.5-826h148z"/>
<path fill="none" stroke="#666" d="M0-808v-212h161v212z"/>
</a></g><g class="edge"><title>Node6-&gt;Node5</title><a>
<path fill="none" stroke="#006400" d="M167.34-800.56c7.48 9.68 15.03 19.45 22.46 29.07"/>
<path fill="none" stroke="#006400" d="m164.42-798.62-3.34-10.05 8.88 5.77z"/>
</a></g><g class="node"><title>Node7</title><a xlink:href="../../da/de4/struct_data_couple_material.html" target="_top">
<path fill="#fff" stroke="transparent" d="M361.5-1004h-182v180h182z"/>
<text x="209.5" y="-991.2" font-family="Consolas" font-size="11">DataCoupleMaterial</text>
<text x="183.5" y="-975.2" font-family="Consolas" font-size="11">+</text>
<text x="194.5" y="-975.2" font-family="Consolas" font-size="11">current_curvature</text>
<text x="183.5" y="-959.2" font-family="Consolas" font-size="11">+</text>
<text x="194.5" y="-959.2" font-family="Consolas" font-size="11">current_couple_stress</text>
<text x="183.5" y="-943.2" font-family="Consolas" font-size="11">+</text>
<text x="194.5" y="-943.2" font-family="Consolas" font-size="11">trial_curvature</text>
<text x="183.5" y="-927.2" font-family="Consolas" font-size="11">+</text>
<text x="194.5" y="-927.2" font-family="Consolas" font-size="11">trial_couple_stress</text>
<text x="183.5" y="-911.2" font-family="Consolas" font-size="11">+</text>
<text x="194.5" y="-911.2" font-family="Consolas" font-size="11">incre_curvature</text>
<text x="183.5" y="-895.2" font-family="Consolas" font-size="11">+</text>
<text x="194.5" y="-895.2" font-family="Consolas" font-size="11">incre_couple_stress</text>
<text x="183.5" y="-879.2" font-family="Consolas" font-size="11">+</text>
<text x="194.5" y="-879.2" font-family="Consolas" font-size="11">initial_couple_stiffness</text>
<text x="183.5" y="-863.2" font-family="Consolas" font-size="11">+</text>
<text x="194.5" y="-863.2" font-family="Consolas" font-size="11">current_couple_stiffness</text>
<text x="183.5" y="-847.2" font-family="Consolas" font-size="11">+</text>
<text x="194.5" y="-847.2" font-family="Consolas" font-size="11">trial_couple_stiffness</text>
<text x="267" y="-831.2" font-family="Consolas" font-size="11"> </text>
<path fill="#666" stroke="#666" d="M179.5-986h182z"/>
<path fill="#666" stroke="#666" d="M179.5-842h13z"/>
<path fill="#666" stroke="#666" d="M192.5-842h169z"/>
<path fill="none" stroke="#666" d="M179.5-824v-180h182v180z"/>
</a></g><g class="edge"><title>Node7-&gt;Node5</title><a>
<path fill="none" stroke="#006400" d="M270.5-813.52v41.35"/>
<path fill="none" stroke="#006400" d="m267-813.84 3.5-10 3.5 10z"/>
</a></g><g class="node"><title>Node8</title><a xlink:href="../../d7/d1d/class_copyable_tag.html" xlink:title="Label objects that can be copied." target="_top">
<path fill="#fff" stroke="transparent" d="M493.5-996h-114v164h114z"/>
<text x="399" y="-983.2" font-family="Consolas" font-size="11">CopyableTag</text>
<text x="433" y="-967.2" font-family="Consolas" font-size="11"> </text>
<text x="383.5" y="-951.2" font-family="Consolas" font-size="11">+</text>
<text x="394.5" y="-951.2" font-family="Consolas" font-size="11">CopyableTag()</text>
<text x="383.5" y="-935.2" font-family="Consolas" font-size="11">+</text>
<text x="394.5" y="-935.2" font-family="Consolas" font-size="11">CopyableTag()</text>
<text x="383.5" y="-919.2" font-family="Consolas" font-size="11">+</text>
<text x="394.5" y="-919.2" font-family="Consolas" font-size="11">operator=()</text>
<text x="383.5" y="-903.2" font-family="Consolas" font-size="11">+</text>
<text x="394.5" y="-903.2" font-family="Consolas" font-size="11">operator=()</text>
<text x="383.5" y="-887.2" font-family="Consolas" font-size="11">+</text>
<text x="394.5" y="-887.2" font-family="Consolas" font-size="11">~CopyableTag()</text>
<text x="383.5" y="-871.2" font-family="Consolas" font-size="11">+</text>
<text x="394.5" y="-871.2" font-family="Consolas" font-size="11">Tag()</text>
<text x="383.5" y="-855.2" font-family="Consolas" font-size="11">+</text>
<text x="394.5" y="-855.2" font-family="Consolas" font-size="11">Tag()</text>
<text x="383.5" y="-839.2" font-family="Consolas" font-size="11">+</text>
<text x="394.5" y="-839.2" font-family="Consolas" font-size="11">Tag()</text>
<path fill="#666" stroke="#666" d="M379.5-978h114z"/>
<path fill="#666" stroke="#666" d="M379.5-962h114z"/>
<path fill="none" stroke="#666" d="M379.5-832v-164h114v164z"/>
</a></g><g class="edge"><title>Node8-&gt;Node5</title><a>
<path fill="none" stroke="#63b8ff" d="M380.5-823.17c-3.35 5.15-6.7 10.24-10 15.17-7.84 11.73-16.17 23.9-24.54 35.96"/>
<path fill="none" stroke="#63b8ff" d="m377.77-825.39 8.37-6.49-2.5 10.3z"/>
</a></g><g class="node"><title>Node9</title><a xlink:href="../../d0/d57/class_tag.html" xlink:title="A base Tag class." target="_top">
<path fill="#fff" stroke="transparent" d="M487-1332H386v276h101z"/>
<text x="426.5" y="-1319.2" font-family="Consolas" font-size="11">Tag</text>
<text x="433.5" y="-1303.2" font-family="Consolas" font-size="11"> </text>
<text x="390.5" y="-1287.2" font-family="Consolas" font-size="11">+</text>
<text x="401.5" y="-1287.2" font-family="Consolas" font-size="11">Tag()</text>
<text x="390.5" y="-1271.2" font-family="Consolas" font-size="11">+</text>
<text x="401.5" y="-1271.2" font-family="Consolas" font-size="11">Tag()</text>
<text x="390.5" y="-1255.2" font-family="Consolas" font-size="11">+</text>
<text x="401.5" y="-1255.2" font-family="Consolas" font-size="11">Tag()</text>
<text x="390.5" y="-1239.2" font-family="Consolas" font-size="11">+</text>
<text x="401.5" y="-1239.2" font-family="Consolas" font-size="11">operator=()</text>
<text x="390.5" y="-1223.2" font-family="Consolas" font-size="11">+</text>
<text x="401.5" y="-1223.2" font-family="Consolas" font-size="11">operator=()</text>
<text x="390.5" y="-1207.2" font-family="Consolas" font-size="11">+</text>
<text x="401.5" y="-1207.2" font-family="Consolas" font-size="11">~Tag()</text>
<text x="390.5" y="-1191.2" font-family="Consolas" font-size="11">+</text>
<text x="401.5" y="-1191.2" font-family="Consolas" font-size="11">set_tag()</text>
<text x="390.5" y="-1175.2" font-family="Consolas" font-size="11">+</text>
<text x="401.5" y="-1175.2" font-family="Consolas" font-size="11">get_tag()</text>
<text x="390.5" y="-1159.2" font-family="Consolas" font-size="11">+</text>
<text x="401.5" y="-1159.2" font-family="Consolas" font-size="11">enable()</text>
<text x="390.5" y="-1143.2" font-family="Consolas" font-size="11">+</text>
<text x="401.5" y="-1143.2" font-family="Consolas" font-size="11">disable()</text>
<text x="390.5" y="-1127.2" font-family="Consolas" font-size="11">+</text>
<text x="401.5" y="-1127.2" font-family="Consolas" font-size="11">guard()</text>
<text x="390.5" y="-1111.2" font-family="Consolas" font-size="11">+</text>
<text x="401.5" y="-1111.2" font-family="Consolas" font-size="11">unguard()</text>
<text x="390.5" y="-1095.2" font-family="Consolas" font-size="11">+</text>
<text x="401.5" y="-1095.2" font-family="Consolas" font-size="11">is_active()</text>
<text x="390.5" y="-1079.2" font-family="Consolas" font-size="11">+</text>
<text x="401.5" y="-1079.2" font-family="Consolas" font-size="11">is_guarded()</text>
<text x="390.5" y="-1063.2" font-family="Consolas" font-size="11">+</text>
<text x="401.5" y="-1063.2" font-family="Consolas" font-size="11">print()</text>
<path fill="#666" stroke="#666" d="M386.5-1314h101z"/>
<path fill="#666" stroke="#666" d="M386.5-1298h101z"/>
<path fill="none" stroke="#666" d="M386-1056v-276h101v276z"/>
</a></g><g class="edge"><title>Node9-&gt;Node8</title><a>
<path fill="none" stroke="#63b8ff" d="M436.5-1045.6v49.5"/>
<path fill="none" stroke="#63b8ff" d="m433-1045.63 3.5-10 3.5 10z"/>
</a></g></g></svg>