<?xml version="1.0" encoding="UTF-8" standalone="no"?>
<!DOCTYPE svg PUBLIC "-//W3C//DTD SVG 1.1//EN"
 "http://www.w3.org/Graphics/SVG/1.1/DTD/svg11.dtd">
<!-- Generated by graphviz version 2.43.0 (0)
 -->
<!-- Title: Converger/ConvergerParser.h Pages: 1 -->
<svg width="384pt" height="86pt"
 viewBox="0.00 0.00 383.50 86.00" xmlns="http://www.w3.org/2000/svg" xmlns:xlink="http://www.w3.org/1999/xlink">
<g id="graph0" class="graph" transform="scale(1 1) rotate(0) translate(4 82)">
<title>Converger/ConvergerParser.h</title>
<polygon fill="white" stroke="transparent" points="-4,4 -4,-82 379.5,-82 379.5,4 -4,4"/>
<!-- Node1 -->
<g id="node1" class="node">
<title>Node1</title>
<g id="a_node1"><a xlink:title=" ">
<polygon fill="#bfbfbf" stroke="black" points="104.5,-57.5 104.5,-77.5 303.5,-77.5 303.5,-57.5 104.5,-57.5"/>
<text text-anchor="middle" x="204" y="-64.7" font-family="Consolas" font-size="11.00">Converger/ConvergerParser.h</text>
</a>
</g>
</g>
<!-- Node2 -->
<g id="node2" class="node">
<title>Node2</title>
<g id="a_node2"><a xlink:href="../../d8/d37/_converger_parser_8cpp.html" target="_top" xlink:title=" ">
<polygon fill="white" stroke="black" points="0,-0.5 0,-20.5 212,-20.5 212,-0.5 0,-0.5"/>
<text text-anchor="middle" x="106" y="-7.7" font-family="Consolas" font-size="11.00">Converger/ConvergerParser.cpp</text>
</a>
</g>
</g>
<!-- Node1&#45;&gt;Node2 -->
<g id="edge1" class="edge">
<title>Node1&#45;&gt;Node2</title>
<path fill="none" stroke="midnightblue" d="M179.07,-52.51C161.21,-42.49 137.68,-29.28 122.21,-20.6"/>
<polygon fill="midnightblue" stroke="midnightblue" points="177.38,-55.58 187.82,-57.42 180.81,-49.47 177.38,-55.58"/>
</g>
<!-- Node3 -->
<g id="node3" class="node">
<title>Node3</title>
<g id="a_node3"><a xlink:href="../../d1/d81/command_8cpp.html" target="_top" xlink:title=" ">
<polygon fill="white" stroke="black" points="230.5,-0.5 230.5,-20.5 375.5,-20.5 375.5,-0.5 230.5,-0.5"/>
<text text-anchor="middle" x="303" y="-7.7" font-family="Consolas" font-size="11.00">Toolbox/command.cpp</text>
</a>
</g>
</g>
<!-- Node1&#45;&gt;Node3 -->
<g id="edge2" class="edge">
<title>Node1&#45;&gt;Node3</title>
<path fill="none" stroke="midnightblue" d="M229.19,-52.51C247.23,-42.49 271,-29.28 286.63,-20.6"/>
<polygon fill="midnightblue" stroke="midnightblue" points="227.39,-49.5 220.35,-57.42 230.79,-55.62 227.39,-49.5"/>
</g>
</g>
</svg>
