<?xml version="1.0" encoding="UTF-8" standalone="no"?>
<!DOCTYPE svg PUBLIC "-//W3C//DTD SVG 1.1//EN"
 "http://www.w3.org/Graphics/SVG/1.1/DTD/svg11.dtd">
<!-- Generated by graphviz version 5.0.0 (0)
 -->
<!-- Title: Material/Material1D/Hysteresis/Gap01.cpp Pages: 1 -->
<svg width="700pt" height="388pt"
 viewBox="0.00 0.00 700.00 388.00" xmlns="http://www.w3.org/2000/svg" xmlns:xlink="http://www.w3.org/1999/xlink">
<g id="graph0" class="graph" transform="scale(1 1) rotate(0) translate(4 384)">
<title>Material/Material1D/Hysteresis/Gap01.cpp</title>
<!-- Node1 -->
<g id="node1" class="node">
<title>Node1</title>
<g id="a_node1"><a xlink:title=" ">
<polygon fill="#999999" stroke="#666666" points="556.5,-380 398.5,-380 398.5,-348 556.5,-348 556.5,-380"/>
<text text-anchor="start" x="406.5" y="-367.2" font-family="Consolas" font-size="11.00">Material/Material1D</text>
<text text-anchor="middle" x="477.5" y="-355.2" font-family="Consolas" font-size="11.00">/Hysteresis/Gap01.cpp</text>
</a>
</g>
</g>
<!-- Node2 -->
<g id="node2" class="node">
<title>Node2</title>
<g id="a_node2"><a xlink:href="../../d5/d3c/_gap01_8h.html" target="_top" xlink:title=" ">
<polygon fill="white" stroke="#666666" points="451.5,-312 387.5,-312 387.5,-292 451.5,-292 451.5,-312"/>
<text text-anchor="middle" x="419.5" y="-299.2" font-family="Consolas" font-size="11.00">Gap01.h</text>
</a>
</g>
</g>
<!-- Node1&#45;&gt;Node2 -->
<g id="edge1" class="edge">
<title>Node1&#45;&gt;Node2</title>
<path fill="none" stroke="#63b8ff" d="M462.86,-347.86C454.54,-339.25 444.1,-328.45 435.55,-319.61"/>
<polygon fill="#63b8ff" stroke="#63b8ff" points="437.82,-316.91 428.35,-312.15 432.78,-321.78 437.82,-316.91"/>
</g>
<!-- Node15 -->
<g id="node15" class="node">
<title>Node15</title>
<g id="a_node15"><a xlink:href="../../d5/d47/utility_8h.html" target="_top" xlink:title=" ">
<polygon fill="white" stroke="#666666" points="601,-312 470,-312 470,-292 601,-292 601,-312"/>
<text text-anchor="middle" x="535.5" y="-299.2" font-family="Consolas" font-size="11.00">Toolbox/utility.h</text>
</a>
</g>
</g>
<!-- Node1&#45;&gt;Node15 -->
<g id="edge14" class="edge">
<title>Node1&#45;&gt;Node15</title>
<path fill="none" stroke="#63b8ff" d="M492.14,-347.86C500.46,-339.25 510.9,-328.45 519.45,-319.61"/>
<polygon fill="#63b8ff" stroke="#63b8ff" points="522.22,-321.78 526.65,-312.15 517.18,-316.91 522.22,-321.78"/>
</g>
<!-- Node3 -->
<g id="node3" class="node">
<title>Node3</title>
<g id="a_node3"><a xlink:href="../../d4/d7c/_material1_d_8h.html" target="_top" xlink:title=" ">
<polygon fill="white" stroke="#666666" points="492,-256 347,-256 347,-224 492,-224 492,-256"/>
<text text-anchor="start" x="355" y="-243.2" font-family="Consolas" font-size="11.00">Material/Material1D</text>
<text text-anchor="middle" x="419.5" y="-231.2" font-family="Consolas" font-size="11.00">/Material1D.h</text>
</a>
</g>
</g>
<!-- Node2&#45;&gt;Node3 -->
<g id="edge2" class="edge">
<title>Node2&#45;&gt;Node3</title>
<path fill="none" stroke="#63b8ff" d="M419.5,-291.89C419.5,-285.1 419.5,-275.48 419.5,-266.44"/>
<polygon fill="#63b8ff" stroke="#63b8ff" points="423,-266.28 419.5,-256.28 416,-266.28 423,-266.28"/>
</g>
<!-- Node4 -->
<g id="node4" class="node">
<title>Node4</title>
<g id="a_node4"><a xlink:href="../../d3/d09/_material_8h.html" target="_top" xlink:title=" ">
<polygon fill="white" stroke="#666666" points="492,-188 347,-188 347,-168 492,-168 492,-188"/>
<text text-anchor="middle" x="419.5" y="-175.2" font-family="Consolas" font-size="11.00">Material/Material.h</text>
</a>
</g>
</g>
<!-- Node3&#45;&gt;Node4 -->
<g id="edge3" class="edge">
<title>Node3&#45;&gt;Node4</title>
<path fill="none" stroke="#63b8ff" d="M419.5,-223.86C419.5,-216.13 419.5,-206.63 419.5,-198.37"/>
<polygon fill="#63b8ff" stroke="#63b8ff" points="423,-198.15 419.5,-188.15 416,-198.15 423,-198.15"/>
</g>
<!-- Node5 -->
<g id="node5" class="node">
<title>Node5</title>
<g id="a_node5"><a xlink:href="../../d2/d4a/_tag_8h.html" target="_top" xlink:title=" ">
<polygon fill="white" stroke="#666666" points="316.5,-132 218.5,-132 218.5,-112 316.5,-112 316.5,-132"/>
<text text-anchor="middle" x="267.5" y="-119.2" font-family="Consolas" font-size="11.00">Domain/Tag.h</text>
</a>
</g>
</g>
<!-- Node4&#45;&gt;Node5 -->
<g id="edge4" class="edge">
<title>Node4&#45;&gt;Node5</title>
<path fill="none" stroke="#63b8ff" d="M394.06,-167.96C369.07,-159.08 330.73,-145.46 302.8,-135.54"/>
<polygon fill="#63b8ff" stroke="#63b8ff" points="303.62,-132.12 293.02,-132.07 301.28,-138.71 303.62,-132.12"/>
</g>
<!-- Node14 -->
<g id="node14" class="node">
<title>Node14</title>
<g id="a_node14"><a xlink:href="../../df/dec/_parameter_type_8h.html" target="_top" xlink:title=" ">
<polygon fill="white" stroke="#666666" points="506.5,-132 334.5,-132 334.5,-112 506.5,-112 506.5,-132"/>
<text text-anchor="middle" x="420.5" y="-119.2" font-family="Consolas" font-size="11.00">Section/ParameterType.h</text>
</a>
</g>
</g>
<!-- Node4&#45;&gt;Node14 -->
<g id="edge13" class="edge">
<title>Node4&#45;&gt;Node14</title>
<path fill="none" stroke="#63b8ff" d="M419.67,-167.59C419.8,-160.7 419.98,-151.1 420.14,-142.57"/>
<polygon fill="#63b8ff" stroke="#63b8ff" points="423.64,-142.36 420.33,-132.3 416.64,-142.23 423.64,-142.36"/>
</g>
<!-- Node6 -->
<g id="node6" class="node">
<title>Node6</title>
<g id="a_node6"><a xlink:href="../../d8/d8f/suan_pan_8h.html" target="_top" xlink:title=" ">
<polygon fill="white" stroke="#666666" points="439,-76 362,-76 362,-56 439,-56 439,-76"/>
<text text-anchor="middle" x="400.5" y="-63.2" font-family="Consolas" font-size="11.00">suanPan.h</text>
</a>
</g>
</g>
<!-- Node5&#45;&gt;Node6 -->
<g id="edge5" class="edge">
<title>Node5&#45;&gt;Node6</title>
<path fill="none" stroke="#63b8ff" d="M289.76,-111.96C311.34,-103.2 344.29,-89.82 368.64,-79.93"/>
<polygon fill="#63b8ff" stroke="#63b8ff" points="370.22,-83.07 378.17,-76.07 367.58,-76.59 370.22,-83.07"/>
</g>
<!-- Node7 -->
<g id="node7" class="node">
<title>Node7</title>
<g id="a_node7"><a xlink:title=" ">
<polygon fill="#e0e0e0" stroke="#999999" points="71,-20 0,-20 0,0 71,0 71,-20"/>
<text text-anchor="middle" x="35.5" y="-7.2" font-family="Consolas" font-size="11.00">iostream</text>
</a>
</g>
</g>
<!-- Node6&#45;&gt;Node7 -->
<g id="edge6" class="edge">
<title>Node6&#45;&gt;Node7</title>
<path fill="none" stroke="#63b8ff" d="M361.84,-60.37C303.24,-53.19 188.22,-38.41 81.02,-20.18"/>
<polygon fill="#63b8ff" stroke="#63b8ff" points="81.45,-16.7 71.01,-18.46 80.27,-23.6 81.45,-16.7"/>
</g>
<!-- Node8 -->
<g id="node8" class="node">
<title>Node8</title>
<g id="a_node8"><a xlink:title=" ">
<polygon fill="#e0e0e0" stroke="#999999" points="234,-20 89,-20 89,0 234,0 234,-20"/>
<text text-anchor="middle" x="161.5" y="-7.2" font-family="Consolas" font-size="11.00">armadillo/armadillo</text>
</a>
</g>
</g>
<!-- Node6&#45;&gt;Node8 -->
<g id="edge7" class="edge">
<title>Node6&#45;&gt;Node8</title>
<path fill="none" stroke="#63b8ff" d="M361.83,-56.26C320.93,-47.02 256.25,-32.41 211.5,-22.3"/>
<polygon fill="#63b8ff" stroke="#63b8ff" points="212.23,-18.87 201.71,-20.08 210.69,-25.7 212.23,-18.87"/>
</g>
<!-- Node9 -->
<g id="node9" class="node">
<title>Node9</title>
<g id="a_node9"><a xlink:title=" ">
<polygon fill="#e0e0e0" stroke="#999999" points="336.5,-20 252.5,-20 252.5,0 336.5,0 336.5,-20"/>
<text text-anchor="middle" x="294.5" y="-7.2" font-family="Consolas" font-size="11.00">filesystem</text>
</a>
</g>
</g>
<!-- Node6&#45;&gt;Node9 -->
<g id="edge8" class="edge">
<title>Node6&#45;&gt;Node9</title>
<path fill="none" stroke="#63b8ff" d="M382.52,-55.84C365.74,-47.29 340.49,-34.43 321.34,-24.67"/>
<polygon fill="#63b8ff" stroke="#63b8ff" points="322.72,-21.45 312.22,-20.03 319.54,-27.68 322.72,-21.45"/>
</g>
<!-- Node10 -->
<g id="node10" class="node">
<title>Node10</title>
<g id="a_node10"><a xlink:title=" ">
<polygon fill="#e0e0e0" stroke="#999999" points="446,-20 355,-20 355,0 446,0 446,-20"/>
<text text-anchor="middle" x="400.5" y="-7.2" font-family="Consolas" font-size="11.00">fmt/color.h</text>
</a>
</g>
</g>
<!-- Node6&#45;&gt;Node10 -->
<g id="edge9" class="edge">
<title>Node6&#45;&gt;Node10</title>
<path fill="none" stroke="#63b8ff" d="M400.5,-55.59C400.5,-48.7 400.5,-39.1 400.5,-30.57"/>
<polygon fill="#63b8ff" stroke="#63b8ff" points="404,-30.3 400.5,-20.3 397,-30.3 404,-30.3"/>
</g>
<!-- Node11 -->
<g id="node11" class="node">
<title>Node11</title>
<g id="a_node11"><a xlink:title=" ">
<polygon fill="#e0e0e0" stroke="#999999" points="514.5,-20 464.5,-20 464.5,0 514.5,0 514.5,-20"/>
<text text-anchor="middle" x="489.5" y="-7.2" font-family="Consolas" font-size="11.00">mutex</text>
</a>
</g>
</g>
<!-- Node6&#45;&gt;Node11 -->
<g id="edge10" class="edge">
<title>Node6&#45;&gt;Node11</title>
<path fill="none" stroke="#63b8ff" d="M415.6,-55.84C429.36,-47.49 449.92,-35.02 465.86,-25.34"/>
<polygon fill="#63b8ff" stroke="#63b8ff" points="467.89,-28.2 474.63,-20.03 464.26,-22.22 467.89,-28.2"/>
</g>
<!-- Node12 -->
<g id="node12" class="node">
<title>Node12</title>
<g id="a_node12"><a xlink:title=" ">
<polygon fill="#e0e0e0" stroke="#999999" points="616.5,-20 532.5,-20 532.5,0 616.5,0 616.5,-20"/>
<text text-anchor="middle" x="574.5" y="-7.2" font-family="Consolas" font-size="11.00">functional</text>
</a>
</g>
</g>
<!-- Node6&#45;&gt;Node12 -->
<g id="edge11" class="edge">
<title>Node6&#45;&gt;Node12</title>
<path fill="none" stroke="#63b8ff" d="M429.62,-55.96C458.61,-46.97 503.27,-33.11 535.35,-23.15"/>
<polygon fill="#63b8ff" stroke="#63b8ff" points="536.77,-26.37 545.28,-20.07 534.69,-19.69 536.77,-26.37"/>
</g>
<!-- Node13 -->
<g id="node13" class="node">
<title>Node13</title>
<g id="a_node13"><a xlink:title=" ">
<polygon fill="#e0e0e0" stroke="#999999" points="692,-20 635,-20 635,0 692,0 692,-20"/>
<text text-anchor="middle" x="663.5" y="-7.2" font-family="Consolas" font-size="11.00">memory</text>
</a>
</g>
</g>
<!-- Node6&#45;&gt;Node13 -->
<g id="edge12" class="edge">
<title>Node6&#45;&gt;Node13</title>
<path fill="none" stroke="#63b8ff" d="M439.21,-57.69C482.09,-49.49 553.53,-35.56 624.83,-20.08"/>
<polygon fill="#63b8ff" stroke="#63b8ff" points="625.87,-23.44 634.89,-17.89 624.37,-16.6 625.87,-23.44"/>
</g>
<!-- Node15&#45;&gt;Node6 -->
<g id="edge16" class="edge">
<title>Node15&#45;&gt;Node6</title>
<path fill="none" stroke="#63b8ff" d="M537.52,-291.94C543.53,-262.49 558.32,-168.14 515.5,-112 499.63,-91.19 472.75,-80 448.96,-73.98"/>
<polygon fill="#63b8ff" stroke="#63b8ff" points="449.53,-70.52 439,-71.7 447.97,-77.34 449.53,-70.52"/>
</g>
<!-- Node16 -->
<g id="node16" class="node">
<title>Node16</title>
<g id="a_node16"><a xlink:title=" ">
<polygon fill="#e0e0e0" stroke="#999999" points="634,-250 563,-250 563,-230 634,-230 634,-250"/>
<text text-anchor="middle" x="598.5" y="-237.2" font-family="Consolas" font-size="11.00">concepts</text>
</a>
</g>
</g>
<!-- Node15&#45;&gt;Node16 -->
<g id="edge15" class="edge">
<title>Node15&#45;&gt;Node16</title>
<path fill="none" stroke="#63b8ff" d="M545.07,-291.89C554.69,-282.72 569.73,-268.4 581.4,-257.28"/>
<polygon fill="#63b8ff" stroke="#63b8ff" points="584.01,-259.63 588.84,-250.2 579.19,-254.56 584.01,-259.63"/>
</g>
</g>
</svg>
