<?xml version="1.0" encoding="UTF-8" standalone="no"?>
<!DOCTYPE svg PUBLIC "-//W3C//DTD SVG 1.1//EN"
 "http://www.w3.org/Graphics/SVG/1.1/DTD/svg11.dtd">
<!-- Generated by graphviz version 2.43.0 (0)
 -->
<!-- Title: DataSimpleHysteresis Pages: 1 -->
<!--zoomable 480 -->
<svg id="main" version="1.1" xmlns="http://www.w3.org/2000/svg" xmlns:xlink="http://www.w3.org/1999/xlink" xml:space="preserve" onload="init(evt)">
<style type="text/css"><![CDATA[
.edge:hover path { stroke: red; }
.edge:hover polygon { stroke: red; fill: red; }
]]></style>
<script type="text/javascript"><![CDATA[
var edges = document.getElementsByTagName('g');
if (edges && edges.length) {
  for (var i=0;i<edges.length;i++) {
    if (edges[i].id.substr(0,4)=='edge') {
      edges[i].setAttribute('class','edge');
    }
  }
}
]]></script>
        <defs>
                <circle id="rim" cx="0" cy="0" r="7"/>
                <circle id="rim2" cx="0" cy="0" r="3.5"/>
                <g id="zoomPlus">
                        <use xlink:href="#rim" fill="#404040">
                                <set attributeName="fill" to="#808080" begin="zoomplus.mouseover" end="zoomplus.mouseout"/>
                        </use>
                        <path d="M-4,0h8M0,-4v8" fill="none" stroke="white" stroke-width="1.5" pointer-events="none"/>
                </g>
                <g id="zoomMin">
                        <use xlink:href="#rim" fill="#404040">
                                <set attributeName="fill" to="#808080" begin="zoomminus.mouseover" end="zoomminus.mouseout"/>
                        </use>
                        <path d="M-4,0h8" fill="none" stroke="white" stroke-width="1.5" pointer-events="none"/>
                </g>
                <g id="dirArrow">
                        <path fill="none" stroke="white" stroke-width="1.5" d="M0,-3.0v7 M-2.5,-0.5L0,-3.0L2.5,-0.5"/>
                </g>
               <g id="resetDef">
                       <use xlink:href="#rim2" fill="#404040">
                               <set attributeName="fill" to="#808080" begin="reset.mouseover" end="reset.mouseout"/>
                       </use>
               </g>
        </defs>

<script type="text/javascript">
var viewWidth = 876;
var viewHeight = 480;
var sectionId = 'dynsection-0';
</script>
<script xlink:href="../../svgpan.js"/>
<svg id="graph" class="graph">
<g id="viewport">
<title>DataSimpleHysteresis</title>
<polygon fill="white" stroke="transparent" points="-4,4 -4,-476 872,-476 872,4 -4,4"/>
<!-- Node1 -->
<g id="node1" class="node">
<title>Node1</title>
<g id="a_node1"><a xlink:title=" ">
<polygon fill="#bfbfbf" stroke="black" points="287.5,-411.5 287.5,-471.5 439.5,-471.5 439.5,-411.5 287.5,-411.5"/>
<text text-anchor="middle" x="363.5" y="-458.7" font-family="Consolas" font-size="11.00">DataSimpleHysteresis</text>
<polyline fill="none" stroke="black" points="287.5,-451.5 439.5,-451.5 "/>
<text text-anchor="start" x="295.5" y="-438.7" font-family="Consolas" font-size="11.00">+ middle_point</text>
<polyline fill="none" stroke="black" points="287.5,-431.5 439.5,-431.5 "/>
<text text-anchor="middle" x="363.5" y="-418.7" font-family="Consolas" font-size="11.00"> </text>
</a>
</g>
</g>
<!-- Node2 -->
<g id="node2" class="node">
<title>Node2</title>
<g id="a_node2"><a xlink:href="../../d8/d70/class_simple_hysteresis.html" target="_top" xlink:title="A SimpleHysteresis material class.">
<polygon fill="white" stroke="black" points="277.5,-266.5 277.5,-374.5 449.5,-374.5 449.5,-266.5 277.5,-266.5"/>
<text text-anchor="middle" x="363.5" y="-361.7" font-family="Consolas" font-size="11.00">SimpleHysteresis</text>
<polyline fill="none" stroke="black" points="277.5,-354.5 449.5,-354.5 "/>
<text text-anchor="middle" x="363.5" y="-341.7" font-family="Consolas" font-size="11.00"> </text>
<polyline fill="none" stroke="black" points="277.5,-334.5 449.5,-334.5 "/>
<text text-anchor="start" x="285.5" y="-321.7" font-family="Consolas" font-size="11.00">+ SimpleHysteresis()</text>
<text text-anchor="start" x="285.5" y="-309.7" font-family="Consolas" font-size="11.00">+ update_trial_status()</text>
<text text-anchor="start" x="285.5" y="-297.7" font-family="Consolas" font-size="11.00">+ clear_status()</text>
<text text-anchor="start" x="285.5" y="-285.7" font-family="Consolas" font-size="11.00">+ commit_status()</text>
<text text-anchor="start" x="285.5" y="-273.7" font-family="Consolas" font-size="11.00">+ reset_status()</text>
</a>
</g>
</g>
<!-- Node1&#45;&gt;Node2 -->
<g id="edge1" class="edge">
<title>Node1&#45;&gt;Node2</title>
<path fill="none" stroke="darkgreen" d="M363.5,-401.14C363.5,-392.75 363.5,-383.75 363.5,-374.93"/>
<polygon fill="none" stroke="darkgreen" points="360,-401.39 363.5,-411.39 367,-401.39 360,-401.39"/>
</g>
<!-- Node3 -->
<g id="node3" class="node">
<title>Node3</title>
<g id="a_node3"><a xlink:href="../../d2/d23/class_concrete_exp.html" target="_top" xlink:title="A ConcreteExp material class.">
<polygon fill="white" stroke="black" points="0,-133.5 0,-229.5 131,-229.5 131,-133.5 0,-133.5"/>
<text text-anchor="middle" x="65.5" y="-216.7" font-family="Consolas" font-size="11.00">ConcreteExp</text>
<polyline fill="none" stroke="black" points="0,-209.5 131,-209.5 "/>
<text text-anchor="middle" x="65.5" y="-196.7" font-family="Consolas" font-size="11.00"> </text>
<polyline fill="none" stroke="black" points="0,-189.5 131,-189.5 "/>
<text text-anchor="start" x="8" y="-176.7" font-family="Consolas" font-size="11.00">+ ConcreteExp()</text>
<text text-anchor="start" x="8" y="-164.7" font-family="Consolas" font-size="11.00">+ initialize()</text>
<text text-anchor="start" x="8" y="-152.7" font-family="Consolas" font-size="11.00">+ get_parameter()</text>
<text text-anchor="start" x="8" y="-140.7" font-family="Consolas" font-size="11.00">+ get_copy()</text>
</a>
</g>
</g>
<!-- Node2&#45;&gt;Node3 -->
<g id="edge2" class="edge">
<title>Node2&#45;&gt;Node3</title>
<path fill="none" stroke="midnightblue" d="M267.67,-285.82C227.32,-270.47 180.35,-251.03 139.5,-230 136.79,-228.6 134.04,-227.13 131.29,-225.61"/>
<polygon fill="none" stroke="midnightblue" points="266.65,-289.18 277.24,-289.43 269.12,-282.63 266.65,-289.18"/>
</g>
<!-- Node4 -->
<g id="node4" class="node">
<title>Node4</title>
<g id="a_node4"><a xlink:href="../../d8/de3/class_concrete_table.html" target="_top" xlink:title="A ConcreteTable material class.">
<polygon fill="white" stroke="black" points="149,-133.5 149,-229.5 280,-229.5 280,-133.5 149,-133.5"/>
<text text-anchor="middle" x="214.5" y="-216.7" font-family="Consolas" font-size="11.00">ConcreteTable</text>
<polyline fill="none" stroke="black" points="149,-209.5 280,-209.5 "/>
<text text-anchor="middle" x="214.5" y="-196.7" font-family="Consolas" font-size="11.00"> </text>
<polyline fill="none" stroke="black" points="149,-189.5 280,-189.5 "/>
<text text-anchor="start" x="157" y="-176.7" font-family="Consolas" font-size="11.00">+ ConcreteTable()</text>
<text text-anchor="start" x="157" y="-164.7" font-family="Consolas" font-size="11.00">+ initialize()</text>
<text text-anchor="start" x="157" y="-152.7" font-family="Consolas" font-size="11.00">+ get_parameter()</text>
<text text-anchor="start" x="157" y="-140.7" font-family="Consolas" font-size="11.00">+ get_copy()</text>
</a>
</g>
</g>
<!-- Node2&#45;&gt;Node4 -->
<g id="edge3" class="edge">
<title>Node2&#45;&gt;Node4</title>
<path fill="none" stroke="midnightblue" d="M298.05,-259.32C287.26,-249.4 276.21,-239.24 265.83,-229.7"/>
<polygon fill="none" stroke="midnightblue" points="295.74,-261.95 305.47,-266.14 300.47,-256.8 295.74,-261.95"/>
</g>
<!-- Node5 -->
<g id="node5" class="node">
<title>Node5</title>
<g id="a_node5"><a xlink:href="../../d6/dbf/class_concrete_tsai.html" target="_top" xlink:title="A ConcreteTsai material class.">
<polygon fill="white" stroke="black" points="298,-133.5 298,-229.5 429,-229.5 429,-133.5 298,-133.5"/>
<text text-anchor="middle" x="363.5" y="-216.7" font-family="Consolas" font-size="11.00">ConcreteTsai</text>
<polyline fill="none" stroke="black" points="298,-209.5 429,-209.5 "/>
<text text-anchor="middle" x="363.5" y="-196.7" font-family="Consolas" font-size="11.00"> </text>
<polyline fill="none" stroke="black" points="298,-189.5 429,-189.5 "/>
<text text-anchor="start" x="306" y="-176.7" font-family="Consolas" font-size="11.00">+ ConcreteTsai()</text>
<text text-anchor="start" x="306" y="-164.7" font-family="Consolas" font-size="11.00">+ initialize()</text>
<text text-anchor="start" x="306" y="-152.7" font-family="Consolas" font-size="11.00">+ get_parameter()</text>
<text text-anchor="start" x="306" y="-140.7" font-family="Consolas" font-size="11.00">+ get_copy()</text>
</a>
</g>
</g>
<!-- Node2&#45;&gt;Node5 -->
<g id="edge4" class="edge">
<title>Node2&#45;&gt;Node5</title>
<path fill="none" stroke="midnightblue" d="M363.5,-255.88C363.5,-247.06 363.5,-238.14 363.5,-229.7"/>
<polygon fill="none" stroke="midnightblue" points="360,-256.14 363.5,-266.14 367,-256.14 360,-256.14"/>
</g>
<!-- Node6 -->
<g id="node6" class="node">
<title>Node6</title>
<g id="a_node6"><a xlink:href="../../df/d4f/class_origin_oriented.html" target="_top" xlink:title="A OriginOriented material class.">
<polygon fill="white" stroke="black" points="447.5,-151.5 447.5,-211.5 585.5,-211.5 585.5,-151.5 447.5,-151.5"/>
<text text-anchor="middle" x="516.5" y="-198.7" font-family="Consolas" font-size="11.00">OriginOriented</text>
<polyline fill="none" stroke="black" points="447.5,-191.5 585.5,-191.5 "/>
<text text-anchor="middle" x="516.5" y="-178.7" font-family="Consolas" font-size="11.00"> </text>
<polyline fill="none" stroke="black" points="447.5,-171.5 585.5,-171.5 "/>
<text text-anchor="start" x="455.5" y="-158.7" font-family="Consolas" font-size="11.00">+ OriginOriented()</text>
</a>
</g>
</g>
<!-- Node2&#45;&gt;Node6 -->
<g id="edge5" class="edge">
<title>Node2&#45;&gt;Node6</title>
<path fill="none" stroke="midnightblue" d="M430.9,-259.15C449.25,-242.72 468.31,-225.65 483.77,-211.8"/>
<polygon fill="none" stroke="midnightblue" points="428.21,-256.86 423.09,-266.14 432.88,-262.08 428.21,-256.86"/>
</g>
<!-- Node9 -->
<g id="node9" class="node">
<title>Node9</title>
<g id="a_node9"><a xlink:href="../../dc/d8b/class_peak_oriented.html" target="_top" xlink:title="A PeakOriented material class.">
<polygon fill="white" stroke="black" points="604,-145.5 604,-217.5 729,-217.5 729,-145.5 604,-145.5"/>
<text text-anchor="middle" x="666.5" y="-204.7" font-family="Consolas" font-size="11.00">PeakOriented</text>
<polyline fill="none" stroke="black" points="604,-197.5 729,-197.5 "/>
<text text-anchor="middle" x="666.5" y="-184.7" font-family="Consolas" font-size="11.00"> </text>
<polyline fill="none" stroke="black" points="604,-177.5 729,-177.5 "/>
<text text-anchor="start" x="612" y="-164.7" font-family="Consolas" font-size="11.00">+ PeakOriented()</text>
<text text-anchor="start" x="612" y="-152.7" font-family="Consolas" font-size="11.00">+ print()</text>
</a>
</g>
</g>
<!-- Node2&#45;&gt;Node9 -->
<g id="edge8" class="edge">
<title>Node2&#45;&gt;Node9</title>
<path fill="none" stroke="midnightblue" d="M459.09,-287.67C501.49,-272.24 551.42,-252.23 594.5,-230 601.69,-226.29 609.04,-222.03 616.18,-217.62"/>
<polygon fill="none" stroke="midnightblue" points="457.83,-284.41 449.61,-291.09 460.2,-290.99 457.83,-284.41"/>
</g>
<!-- Node7 -->
<g id="node7" class="node">
<title>Node7</title>
<g id="a_node7"><a xlink:href="../../d9/d4e/class_bilinear_o_o.html" target="_top" xlink:title="A BilinearOO material class.">
<polygon fill="white" stroke="black" points="325,-0.5 325,-96.5 436,-96.5 436,-0.5 325,-0.5"/>
<text text-anchor="middle" x="380.5" y="-83.7" font-family="Consolas" font-size="11.00">BilinearOO</text>
<polyline fill="none" stroke="black" points="325,-76.5 436,-76.5 "/>
<text text-anchor="middle" x="380.5" y="-63.7" font-family="Consolas" font-size="11.00"> </text>
<polyline fill="none" stroke="black" points="325,-56.5 436,-56.5 "/>
<text text-anchor="start" x="333" y="-43.7" font-family="Consolas" font-size="11.00">+ BilinearOO()</text>
<text text-anchor="start" x="333" y="-31.7" font-family="Consolas" font-size="11.00">+ initialize()</text>
<text text-anchor="start" x="333" y="-19.7" font-family="Consolas" font-size="11.00">+ get_copy()</text>
<text text-anchor="start" x="333" y="-7.7" font-family="Consolas" font-size="11.00">+ print()</text>
</a>
</g>
</g>
<!-- Node6&#45;&gt;Node7 -->
<g id="edge6" class="edge">
<title>Node6&#45;&gt;Node7</title>
<path fill="none" stroke="midnightblue" d="M479.04,-144.42C463.75,-129.69 445.87,-112.46 429.56,-96.76"/>
<polygon fill="none" stroke="midnightblue" points="476.69,-147.01 486.32,-151.43 481.54,-141.97 476.69,-147.01"/>
</g>
<!-- Node8 -->
<g id="node8" class="node">
<title>Node8</title>
<g id="a_node8"><a xlink:href="../../dd/df6/class_multilinear_o_o.html" target="_top" xlink:title="A MultilinearOO material class.">
<polygon fill="white" stroke="black" points="454,-0.5 454,-96.5 585,-96.5 585,-0.5 454,-0.5"/>
<text text-anchor="middle" x="519.5" y="-83.7" font-family="Consolas" font-size="11.00">MultilinearOO</text>
<polyline fill="none" stroke="black" points="454,-76.5 585,-76.5 "/>
<text text-anchor="middle" x="519.5" y="-63.7" font-family="Consolas" font-size="11.00"> </text>
<polyline fill="none" stroke="black" points="454,-56.5 585,-56.5 "/>
<text text-anchor="start" x="462" y="-43.7" font-family="Consolas" font-size="11.00">+ MultilinearOO()</text>
<text text-anchor="start" x="462" y="-31.7" font-family="Consolas" font-size="11.00">+ initialize()</text>
<text text-anchor="start" x="462" y="-19.7" font-family="Consolas" font-size="11.00">+ get_copy()</text>
<text text-anchor="start" x="462" y="-7.7" font-family="Consolas" font-size="11.00">+ print()</text>
</a>
</g>
</g>
<!-- Node6&#45;&gt;Node8 -->
<g id="edge7" class="edge">
<title>Node6&#45;&gt;Node8</title>
<path fill="none" stroke="midnightblue" d="M517.4,-141.17C517.72,-127.19 518.08,-111.32 518.42,-96.76"/>
<polygon fill="none" stroke="midnightblue" points="513.9,-141.35 517.17,-151.43 520.89,-141.51 513.9,-141.35"/>
</g>
<!-- Node10 -->
<g id="node10" class="node">
<title>Node10</title>
<g id="a_node10"><a xlink:href="../../da/da6/class_bilinear_p_o.html" target="_top" xlink:title="A BilinearPO material class.">
<polygon fill="white" stroke="black" points="608,-0.5 608,-96.5 719,-96.5 719,-0.5 608,-0.5"/>
<text text-anchor="middle" x="663.5" y="-83.7" font-family="Consolas" font-size="11.00">BilinearPO</text>
<polyline fill="none" stroke="black" points="608,-76.5 719,-76.5 "/>
<text text-anchor="middle" x="663.5" y="-63.7" font-family="Consolas" font-size="11.00"> </text>
<polyline fill="none" stroke="black" points="608,-56.5 719,-56.5 "/>
<text text-anchor="start" x="616" y="-43.7" font-family="Consolas" font-size="11.00">+ BilinearPO()</text>
<text text-anchor="start" x="616" y="-31.7" font-family="Consolas" font-size="11.00">+ initialize()</text>
<text text-anchor="start" x="616" y="-19.7" font-family="Consolas" font-size="11.00">+ get_copy()</text>
<text text-anchor="start" x="616" y="-7.7" font-family="Consolas" font-size="11.00">+ print()</text>
</a>
</g>
</g>
<!-- Node9&#45;&gt;Node10 -->
<g id="edge9" class="edge">
<title>Node9&#45;&gt;Node10</title>
<path fill="none" stroke="midnightblue" d="M665.46,-135.2C665.18,-122.7 664.87,-109.12 664.58,-96.53"/>
<polygon fill="none" stroke="midnightblue" points="661.97,-135.48 665.7,-145.39 668.97,-135.32 661.97,-135.48"/>
</g>
<!-- Node11 -->
<g id="node11" class="node">
<title>Node11</title>
<g id="a_node11"><a xlink:href="../../df/d2d/class_multilinear_p_o.html" target="_top" xlink:title="A MultilinearPO material class.">
<polygon fill="white" stroke="black" points="737,-0.5 737,-96.5 868,-96.5 868,-0.5 737,-0.5"/>
<text text-anchor="middle" x="802.5" y="-83.7" font-family="Consolas" font-size="11.00">MultilinearPO</text>
<polyline fill="none" stroke="black" points="737,-76.5 868,-76.5 "/>
<text text-anchor="middle" x="802.5" y="-63.7" font-family="Consolas" font-size="11.00"> </text>
<polyline fill="none" stroke="black" points="737,-56.5 868,-56.5 "/>
<text text-anchor="start" x="745" y="-43.7" font-family="Consolas" font-size="11.00">+ MultilinearPO()</text>
<text text-anchor="start" x="745" y="-31.7" font-family="Consolas" font-size="11.00">+ initialize()</text>
<text text-anchor="start" x="745" y="-19.7" font-family="Consolas" font-size="11.00">+ get_copy()</text>
<text text-anchor="start" x="745" y="-7.7" font-family="Consolas" font-size="11.00">+ print()</text>
</a>
</g>
</g>
<!-- Node9&#45;&gt;Node11 -->
<g id="edge10" class="edge">
<title>Node9&#45;&gt;Node11</title>
<path fill="none" stroke="midnightblue" d="M710.44,-138.18C724.24,-124.88 739.56,-110.13 753.67,-96.53"/>
<polygon fill="none" stroke="midnightblue" points="707.72,-135.94 702.95,-145.39 712.58,-140.98 707.72,-135.94"/>
</g>
</g>
</svg>
        <g id="navigator" transform="translate(0 0)" fill="#404254">
                <rect fill="#f2f5e9" fill-opacity="0.5" stroke="#606060" stroke-width=".5" x="0" y="0" width="60" height="60"/>
                <use id="zoomplus" xlink:href="#zoomPlus" x="17" y="9" onmousedown="handleZoom(evt,'in')"/>
                <use id="zoomminus" xlink:href="#zoomMin" x="42" y="9" onmousedown="handleZoom(evt,'out')"/>
                <use id="reset" xlink:href="#resetDef" x="30" y="36" onmousedown="handleReset()"/>
                <g id="arrowUp" xlink:href="#dirArrow" transform="translate(30 24)" onmousedown="handlePan(0,-1)">
                  <use xlink:href="#rim" fill="#404040">
                        <set attributeName="fill" to="#808080" begin="arrowUp.mouseover" end="arrowUp.mouseout"/>
                  </use>
                  <path fill="none" stroke="white" stroke-width="1.5" d="M0,-3.0v7 M-2.5,-0.5L0,-3.0L2.5,-0.5"/>
                </g>
                <g id="arrowRight" xlink:href="#dirArrow" transform="rotate(90) translate(36 -43)" onmousedown="handlePan(1,0)">
                  <use xlink:href="#rim" fill="#404040">
                        <set attributeName="fill" to="#808080" begin="arrowRight.mouseover" end="arrowRight.mouseout"/>
                  </use>
                  <path fill="none" stroke="white" stroke-width="1.5" d="M0,-3.0v7 M-2.5,-0.5L0,-3.0L2.5,-0.5"/>
                </g>
                <g id="arrowDown" xlink:href="#dirArrow" transform="rotate(180) translate(-30 -48)" onmousedown="handlePan(0,1)">
                  <use xlink:href="#rim" fill="#404040">
                        <set attributeName="fill" to="#808080" begin="arrowDown.mouseover" end="arrowDown.mouseout"/>
                  </use>
                  <path fill="none" stroke="white" stroke-width="1.5" d="M0,-3.0v7 M-2.5,-0.5L0,-3.0L2.5,-0.5"/>
                </g>
                <g id="arrowLeft" xlink:href="#dirArrow" transform="rotate(270) translate(-36 17)" onmousedown="handlePan(-1,0)">
                  <use xlink:href="#rim" fill="#404040">
                        <set attributeName="fill" to="#808080" begin="arrowLeft.mouseover" end="arrowLeft.mouseout"/>
                  </use>
                  <path fill="none" stroke="white" stroke-width="1.5" d="M0,-3.0v7 M-2.5,-0.5L0,-3.0L2.5,-0.5"/>
                </g>
        </g>
        <svg viewBox="0 0 15 15" width="100%" height="30px" preserveAspectRatio="xMaxYMin meet">
         <g id="arrow_out" transform="scale(0.3 0.3)">
          <a xlink:href="struct_data_simple_hysteresis__inherit__graph_org.svg" target="_base">
           <rect id="button" ry="5" rx="5" y="6" x="6" height="38" width="38"
                fill="#f2f5e9" fill-opacity="0.5" stroke="#606060" stroke-width="1.0"/>
           <path id="arrow"
             d="M 11.500037,31.436501 C 11.940474,20.09759 22.043105,11.32322 32.158766,21.979434 L 37.068811,17.246167 C 37.068811,17.246167 37.088388,32 37.088388,32 L 22.160133,31.978069 C 22.160133,31.978069 26.997745,27.140456 26.997745,27.140456 C 18.528582,18.264221 13.291696,25.230495 11.500037,31.436501 z"
             style="fill:#404040;"/>
          </a>
         </g>
        </svg>
</svg>
