<svg xmlns="http://www.w3.org/2000/svg" xmlns:xlink="http://www.w3.org/1999/xlink" width="737pt" height="576" viewBox="0 0 737 432"><g class="graph" transform="translate(4 428)"><title>Constraint/RestitutionWallPenalty.h</title><g class="node"><title>Node1</title><a>
<path fill="#999" stroke="#666" d="M662.5-424h-192v32h192z"/>
<text x="478.5" y="-411.2" font-family="Consolas" font-size="11">Constraint/RestitutionWall</text>
<text x="566.5" y="-399.2" font-family="Consolas" font-size="11" text-anchor="middle">Penalty.h</text>
</a></g><g class="node"><title>Node2</title><a xlink:href="../../d8/dbb/_rigid_wall_penalty_8h.html" target="_top">
<path fill="#fff" stroke="#666" d="M587.5-356h-138v20h138z"/>
<text x="518.5" y="-343.2" font-family="Consolas" font-size="11" text-anchor="middle">RigidWallPenalty.h</text>
</a></g><g class="edge"><title>Node1-&gt;Node2</title><a>
<path fill="none" stroke="#63b8ff" d="M554.39-391.86c-6.75 8.44-15.18 18.97-22.17 27.71"/>
<path fill="#63b8ff" stroke="#63b8ff" d="m534.8-361.78-8.98 5.63 3.52-10z"/>
</a></g><g class="node"><title>Node14</title><a xlink:href="../../d4/ddd/container_8h.html" target="_top">
<path fill="#fff" stroke="#666" d="M638-132H493v20h145z"/>
<text x="565.5" y="-119.2" font-family="Consolas" font-size="11" text-anchor="middle">Toolbox/container.h</text>
</a></g><g class="edge"><title>Node1-&gt;Node14</title><a>
<path fill="none" stroke="#63b8ff" d="M579.72-391.67c16.84 21.16 43.78 61.18 43.78 100.67v58c0 30.1-4.59 38.58-19 65-5.72 10.48-14.21 20.67-21.82 28.69"/>
<path fill="#63b8ff" stroke="#63b8ff" d="m585.04-136.72-9.53 4.64 4.56-9.57z"/>
</a></g><g class="node"><title>Node3</title><a xlink:href="../../d4/d54/_constraint_8h.html" target="_top">
<path fill="#fff" stroke="#666" d="M550.5-300h-98v20h98z"/>
<text x="501.5" y="-287.2" font-family="Consolas" font-size="11" text-anchor="middle">Constraint.h</text>
</a></g><g class="edge"><title>Node2-&gt;Node3</title><a>
<path fill="none" stroke="#63b8ff" d="M515.54-335.59c-2.22 7.04-5.33 16.92-8.06 25.59"/>
<path fill="#63b8ff" stroke="#63b8ff" d="m510.77-308.79-6.34 8.49-.34-10.59z"/>
</a></g><g class="node"><title>Node4</title><a xlink:href="../../d1/d78/_conditional_modifier_8h.html" target="_top">
<path fill="#fff" stroke="#666" d="M517.5-244h-206v20h206z"/>
<text x="414.5" y="-231.2" font-family="Consolas" font-size="11" text-anchor="middle">Domain/ConditionalModifier.h</text>
</a></g><g class="edge"><title>Node3-&gt;Node4</title><a>
<path fill="none" stroke="#63b8ff" d="M486.74-279.84c-13.45 8.35-33.55 20.82-49.13 30.5"/>
<path fill="#63b8ff" stroke="#63b8ff" d="m439.38-246.33-10.34 2.3 6.65-8.24z"/>
</a></g><g class="node"><title>Node5</title><a xlink:href="../../dc/df2/_domain_base_8h.html" target="_top">
<path fill="#fff" stroke="#666" d="M595-188H450v20h145z"/>
<text x="522.5" y="-175.2" font-family="Consolas" font-size="11" text-anchor="middle">Domain/DomainBase.h</text>
</a></g><g class="edge"><title>Node4-&gt;Node5</title><a>
<path fill="none" stroke="#63b8ff" d="M432.82-223.84c17.17 8.59 43.05 21.53 62.61 31.3"/>
<path fill="#63b8ff" stroke="#63b8ff" d="m497.07-195.63 7.38 7.6-10.51-1.34z"/>
</a></g><g class="node"><title>Node16</title><a>
<path fill="#e0e0e0" stroke="#999" d="M729-76h-37v20h37z"/>
<text x="710.5" y="-63.2" font-family="Consolas" font-size="11" text-anchor="middle">set</text>
</a></g><g class="edge"><title>Node4-&gt;Node16</title><a>
<path fill="none" stroke="#63b8ff" d="M501.57-223.94c33.92 6.4 72 17.32 102.93 35.94 43.47 26.17 78.63 76.14 95.38 102.95"/>
<path fill="#63b8ff" stroke="#63b8ff" d="m702.99-86.67 2.21 10.36-8.19-6.72z"/>
</a></g><g class="node"><title>Node20</title><a xlink:href="../../d1/d02/_node_8h.html" target="_top">
<path fill="#fff" stroke="#666" d="M221.5-188h-104v20h104z"/>
<text x="169.5" y="-175.2" font-family="Consolas" font-size="11" text-anchor="middle">Domain/Node.h</text>
</a></g><g class="edge"><title>Node4-&gt;Node20</title><a>
<path fill="none" stroke="#63b8ff" d="M373.49-223.96c-42.04 9.27-107.53 23.7-152.92 33.7"/>
<path fill="#63b8ff" stroke="#63b8ff" d="m221.16-186.8-10.52-1.27 9.01-5.57z"/>
</a></g><g class="node"><title>Node21</title><a xlink:href="../../d1/ded/_amplitude_8h.html" target="_top">
<path fill="#fff" stroke="#666" d="M431.5-188h-192v20h192z"/>
<text x="335.5" y="-175.2" font-family="Consolas" font-size="11" text-anchor="middle">Load/Amplitude/Amplitude.h</text>
</a></g><g class="edge"><title>Node4-&gt;Node21</title><a>
<path fill="none" stroke="#63b8ff" d="M401.1-223.84c-11.99 8.2-29.79 20.36-43.82 29.95"/>
<path fill="#63b8ff" stroke="#63b8ff" d="m358.93-190.78-10.23 2.75 6.28-8.53z"/>
</a></g><g class="node"><title>Node22</title><a xlink:href="../../d4/da0/_resource_holder_8h.html" target="_top">
<path fill="#fff" stroke="#666" d="M179-132H0v20h179z"/>
<text x="89.5" y="-119.2" font-family="Consolas" font-size="11" text-anchor="middle">Toolbox/ResourceHolder.h</text>
</a></g><g class="edge"><title>Node4-&gt;Node22</title><a>
<path fill="none" stroke="#63b8ff" d="M311.12-229.54c-76.7 4.67-172.9 15.67-202.62 41.54-13 11.32-17.34 30.99-18.68 45.74"/>
<path fill="#63b8ff" stroke="#63b8ff" d="m93.31-141.97-4.02 9.81-2.97-10.17z"/>
</a></g><g class="node"><title>Node6</title><a xlink:href="../../d2/d4a/_tag_8h.html" target="_top">
<path fill="#fff" stroke="#666" d="M384.5-132h-98v20h98z"/>
<text x="335.5" y="-119.2" font-family="Consolas" font-size="11" text-anchor="middle">Domain/Tag.h</text>
</a></g><g class="edge"><title>Node5-&gt;Node6</title><a>
<path fill="none" stroke="#63b8ff" d="M491.2-167.96c-31.42 9.07-79.98 23.1-114.51 33.07"/>
<path fill="#63b8ff" stroke="#63b8ff" d="m377.48-131.48-10.58-.59 8.64-6.13z"/>
</a></g><g class="edge"><title>Node5-&gt;Node14</title><a>
<path fill="none" stroke="#63b8ff" d="M529.99-167.59c5.98 7.51 14.52 18.24 21.73 27.29"/>
<path fill="#63b8ff" stroke="#63b8ff" d="m554.6-142.3 3.5 10-8.97-5.64z"/>
</a></g><g class="node"><title>Node19</title><a>
<path fill="#e0e0e0" stroke="#999" d="M475-132h-57v20h57z"/>
<text x="446.5" y="-119.2" font-family="Consolas" font-size="11" text-anchor="middle">future</text>
</a></g><g class="edge"><title>Node5-&gt;Node19</title><a>
<path fill="none" stroke="#63b8ff" d="M509.61-167.84c-11.54 8.2-28.66 20.36-42.15 29.95"/>
<path fill="#63b8ff" stroke="#63b8ff" d="m469.38-134.96-10.18 2.93 6.13-8.64z"/>
</a></g><g class="node"><title>Node7</title><a xlink:href="../../d8/d8f/suan_pan_8h.html" target="_top">
<path fill="#fff" stroke="#666" d="M374-76h-77v20h77z"/>
<text x="335.5" y="-63.2" font-family="Consolas" font-size="11" text-anchor="middle">suanPan.h</text>
</a></g><g class="edge"><title>Node6-&gt;Node7</title><a>
<path fill="none" stroke="#63b8ff" d="M335.5-111.59v25.02"/>
<path fill="#63b8ff" stroke="#63b8ff" d="m339-86.3-3.5 10-3.5-10z"/>
</a></g><g class="node"><title>Node8</title><a>
<path fill="#e0e0e0" stroke="#999" d="M488-20h-71V0h71z"/>
<text x="452.5" y="-7.2" font-family="Consolas" font-size="11" text-anchor="middle">iostream</text>
</a></g><g class="edge"><title>Node7-&gt;Node8</title><a>
<path fill="none" stroke="#63b8ff" d="M355.08-55.96c18.73 8.64 47.2 21.78 68.53 31.63"/>
<path fill="#63b8ff" stroke="#63b8ff" d="m425.24-27.44 7.61 7.37-10.54-1.01z"/>
</a></g><g class="node"><title>Node9</title><a>
<path fill="#e0e0e0" stroke="#999" d="M617-20H506V0h111z"/>
<text x="561.5" y="-7.2" font-family="Consolas" font-size="11" text-anchor="middle">armadillo/arma</text>
</a></g><g class="edge"><title>Node7-&gt;Node9</title><a>
<path fill="none" stroke="#63b8ff" d="M373.33-55.96c38.54 9.21 98.43 23.52 140.26 33.51"/>
<path fill="#63b8ff" stroke="#63b8ff" d="m514.64-25.8 8.91 5.73-10.54 1.08z"/>
</a></g><g class="node"><title>Node10</title><a>
<path fill="#e0e0e0" stroke="#999" d="M220.5-20h-84V0h84z"/>
<text x="178.5" y="-7.2" font-family="Consolas" font-size="11" text-anchor="middle">filesystem</text>
</a></g><g class="edge"><title>Node7-&gt;Node10</title><a>
<path fill="none" stroke="#63b8ff" d="M309.22-55.96c-25.92 8.92-65.75 22.62-94.64 32.55"/>
<path fill="#63b8ff" stroke="#63b8ff" d="m215.46-20.01-10.6-.06 8.32-6.56z"/>
</a></g><g class="node"><title>Node11</title><a>
<path fill="#e0e0e0" stroke="#999" d="M330-20h-91V0h91z"/>
<text x="284.5" y="-7.2" font-family="Consolas" font-size="11" text-anchor="middle">fmt/color.h</text>
</a></g><g class="edge"><title>Node7-&gt;Node11</title><a>
<path fill="none" stroke="#63b8ff" d="M326.62-55.59c-7.24 7.66-17.65 18.68-26.3 27.84"/>
<path fill="#63b8ff" stroke="#63b8ff" d="m302.69-25.17-9.41 4.87 4.32-9.67z"/>
</a></g><g class="node"><title>Node12</title><a>
<path fill="#e0e0e0" stroke="#999" d="M398.5-20h-50V0h50z"/>
<text x="373.5" y="-7.2" font-family="Consolas" font-size="11" text-anchor="middle">mutex</text>
</a></g><g class="edge"><title>Node7-&gt;Node12</title><a>
<path fill="none" stroke="#63b8ff" d="M342.12-55.59c5.23 7.43 12.68 18.01 19.01 27.01"/>
<path fill="#63b8ff" stroke="#63b8ff" d="m364.06-30.49 2.9 10.19-8.62-6.16z"/>
</a></g><g class="node"><title>Node13</title><a>
<path fill="#e0e0e0" stroke="#999" d="M118-20H61V0h57z"/>
<text x="89.5" y="-7.2" font-family="Consolas" font-size="11" text-anchor="middle">memory</text>
</a></g><g class="edge"><title>Node7-&gt;Node13</title><a>
<path fill="none" stroke="#63b8ff" d="M296.73-56.85c-39.77 8.42-103.69 22.08-168.61 36.74"/>
<path fill="#63b8ff" stroke="#63b8ff" d="m128.65-16.64-10.53-1.2 8.98-5.62z"/>
</a></g><g class="edge"><title>Node14-&gt;Node7</title><a>
<path fill="none" stroke="#63b8ff" d="M527-111.96c-39.3 9.23-100.43 23.58-143.01 33.58"/>
<path fill="#63b8ff" stroke="#63b8ff" d="m384.66-74.95-10.54-1.12 8.94-5.69z"/>
</a></g><g class="node"><title>Node15</title><a>
<path fill="#e0e0e0" stroke="#999" d="M429-76h-37v20h37z"/>
<text x="410.5" y="-63.2" font-family="Consolas" font-size="11" text-anchor="middle">map</text>
</a></g><g class="edge"><title>Node14-&gt;Node15</title><a>
<path fill="none" stroke="#63b8ff" d="M539.56-111.96c-27.91 9.72-72.14 25.13-100.88 35.14"/>
<path fill="#63b8ff" stroke="#63b8ff" d="m439.8-73.5-10.59-.02 8.29-6.59z"/>
</a></g><g class="edge"><title>Node14-&gt;Node16</title><a>
<path fill="none" stroke="#63b8ff" d="M589.77-111.96c25.45 9.48 65.41 24.36 92.31 34.38"/>
<path fill="#63b8ff" stroke="#63b8ff" d="M683.55-80.77 691.7-74l-10.59-.21z"/>
</a></g><g class="node"><title>Node17</title><a>
<path fill="#e0e0e0" stroke="#999" d="M551.5-76h-104v20h104z"/>
<text x="499.5" y="-63.2" font-family="Consolas" font-size="11" text-anchor="middle">unordered_map</text>
</a></g><g class="edge"><title>Node14-&gt;Node17</title><a>
<path fill="none" stroke="#63b8ff" d="M554.3-111.84c-9.82 8.04-24.31 19.9-35.93 29.4"/>
<path fill="#63b8ff" stroke="#63b8ff" d="m520.49-79.65-9.96 3.62 5.52-9.04z"/>
</a></g><g class="node"><title>Node18</title><a>
<path fill="#e0e0e0" stroke="#999" d="M673.5-76h-104v20h104z"/>
<text x="621.5" y="-63.2" font-family="Consolas" font-size="11" text-anchor="middle">unordered_set</text>
</a></g><g class="edge"><title>Node14-&gt;Node18</title><a>
<path fill="none" stroke="#63b8ff" d="M575-111.84c8.17 7.88 20.16 19.44 29.91 28.84"/>
<path fill="#63b8ff" stroke="#63b8ff" d="m607.37-85.49 4.77 9.46-9.63-4.42z"/>
</a></g><g class="edge"><title>Node20-&gt;Node6</title><a>
<path fill="none" stroke="#63b8ff" d="M197.28-167.96c27.54 8.95 69.9 22.73 100.47 32.68"/>
<path fill="#63b8ff" stroke="#63b8ff" d="m299.2-138.49 8.42 6.42-10.59.24z"/>
</a></g><g class="edge"><title>Node21-&gt;Node6</title><a>
<path fill="none" stroke="#63b8ff" d="M335.5-167.59v25.02"/>
<path fill="#63b8ff" stroke="#63b8ff" d="m339-142.3-3.5 10-3.5-10z"/>
</a></g><g class="edge"><title>Node22-&gt;Node13</title><a>
<path fill="none" stroke="#63b8ff" d="M89.5-112v81.85"/>
<path fill="#63b8ff" stroke="#63b8ff" d="m93-30.13-3.5 10-3.5-10z"/>
</a></g></g></svg>