<?xml version="1.0" encoding="UTF-8" standalone="no"?>
<!DOCTYPE svg PUBLIC "-//W3C//DTD SVG 1.1//EN"
 "http://www.w3.org/Graphics/SVG/1.1/DTD/svg11.dtd">
<!-- Generated by graphviz version 8.1.0 (20230707.0739)
 -->
<!-- Title: Embed3D Pages: 1 -->
<!--zoomable 1393 -->

<svg id="main" version="1.1" xmlns="http://www.w3.org/2000/svg" xmlns:xlink="http://www.w3.org/1999/xlink" xml:space="preserve" onload="init(evt)">
<style type="text/css"><![CDATA[
.node, .edge {opacity: 0.7;}
.node.selected, .edge.selected {opacity: 1;}
.edge:hover path { stroke: red; }
.edge:hover polygon { stroke: red; fill: red; }
]]></style>

<defs>
  <circle id="rim" cx="0" cy="0" r="7"/>
  <circle id="rim2" cx="0" cy="0" r="3.5"/>
  <g id="zoomPlus">
    <use xlink:href="#rim" fill="#404040"><set attributeName="fill" to="#808080" begin="zoomplus.mouseover" end="zoomplus.mouseout"/></use>
    <path d="M-4,0h8M0,-4v8" fill="none" stroke="white" stroke-width="1.5" pointer-events="none"/>
  </g>
  <g id="zoomMin">
    <use xlink:href="#rim" fill="#404040"><set attributeName="fill" to="#808080" begin="zoomminus.mouseover" end="zoomminus.mouseout"/></use>
    <path d="M-4,0h8" fill="none" stroke="white" stroke-width="1.5" pointer-events="none"/>
  </g>
  <g id="arrowUp" transform="translate(30 24)">
    <use xlink:href="#rim"/>
    <path pointer-events="none" fill="none" stroke="white" stroke-width="1.5" d="M0,-3.0v7 M-2.5,-0.5L0,-3.0L2.5,-0.5"/>
  </g>
  <g id="arrowRight" transform="rotate(90) translate(36 -43)">
    <use xlink:href="#rim"/>
    <path pointer-events="none" fill="none" stroke="white" stroke-width="1.5" d="M0,-3.0v7 M-2.5,-0.5L0,-3.0L2.5,-0.5"/>
  </g>
  <g id="arrowDown" transform="rotate(180) translate(-30 -48)">
    <use xlink:href="#rim"/>
    <path pointer-events="none" fill="none" stroke="white" stroke-width="1.5" d="M0,-3.0v7 M-2.5,-0.5L0,-3.0L2.5,-0.5"/>
  </g>
  <g id="arrowLeft" transform="rotate(270) translate(-36 17)">
    <use xlink:href="#rim"/>
    <path pointer-events="none" fill="none" stroke="white" stroke-width="1.5" d="M0,-3.0v7 M-2.5,-0.5L0,-3.0L2.5,-0.5"/>
  </g>
  <g id="resetDef">
    <use xlink:href="#rim2" fill="#404040"><set attributeName="fill" to="#808080" begin="reset.mouseover" end="reset.mouseout"/></use>
  </g>
</defs>
<script type="application/ecmascript">
var viewWidth = 182;
var viewHeight = 1393;
var sectionId = 'dynsection-0';
</script>
<script type="application/ecmascript" xlink:href="../../svg.min.js"/>
<svg id="graph" class="graph">
<g id="viewport">
<title>Embed3D</title>
<!-- Node1 -->
<g id="Node000001" class="node">
<title>Node1</title>
<g id="a_Node000001"><a xlink:title=" ">
<polygon fill="#999999" stroke="none" points="123,-55 51,-55 51,0 123,0 123,-55"/>
<text text-anchor="start" x="66" y="-40.55" font-family="Consolas" font-size="11.00">Embed3D</text>
<text text-anchor="start" x="84" y="-23.55" font-family="Consolas" font-size="11.00"> </text>
<text text-anchor="start" x="55" y="-6.55" font-family="Consolas" font-size="11.00">+</text>
<text text-anchor="start" x="65" y="-6.55" font-family="Consolas" font-size="11.00">Embed3D()</text>
<polygon fill="#666666" stroke="#666666" points="51,-36 51,-36 123,-36 123,-36 51,-36"/>
<polygon fill="#666666" stroke="#666666" points="51,-19 51,-19 123,-19 123,-19 51,-19"/>
<polygon fill="none" stroke="#666666" points="51,0 51,-55 123,-55 123,0 51,0"/>
</a>
</g>
</g>
<!-- Node2 -->
<g id="Node000002" class="node">
<title>Node2</title>
<g id="a_Node000002"><a xlink:href="../../d7/d79/class_embed.html" target="_top" xlink:title="A Embed class.">
<polygon fill="white" stroke="none" points="132,-180 42,-180 42,-91 132,-91 132,-180"/>
<text text-anchor="start" x="72" y="-165.55" font-family="Consolas" font-size="11.00">Embed</text>
<text text-anchor="start" x="84" y="-148.55" font-family="Consolas" font-size="11.00"> </text>
<text text-anchor="start" x="46" y="-131.55" font-family="Consolas" font-size="11.00">+</text>
<text text-anchor="start" x="56" y="-131.55" font-family="Consolas" font-size="11.00">Embed()</text>
<text text-anchor="start" x="46" y="-114.55" font-family="Consolas" font-size="11.00">+</text>
<text text-anchor="start" x="56" y="-114.55" font-family="Consolas" font-size="11.00">initialize()</text>
<text text-anchor="start" x="46" y="-97.55" font-family="Consolas" font-size="11.00">+</text>
<text text-anchor="start" x="56" y="-97.55" font-family="Consolas" font-size="11.00">process()</text>
<polygon fill="#666666" stroke="#666666" points="42,-161 42,-161 132,-161 132,-161 42,-161"/>
<polygon fill="#666666" stroke="#666666" points="42,-144 42,-144 132,-144 132,-144 42,-144"/>
<polygon fill="none" stroke="#666666" points="42,-91 42,-180 132,-180 132,-91 42,-91"/>
</a>
</g>
</g>
<!-- Node2&#45;&gt;Node1 -->
<g id="edge1_Node000001_Node000002" class="edge">
<title>Node2&#45;&gt;Node1</title>
<g id="a_edge1_Node000001_Node000002"><a xlink:title=" ">
<path fill="none" stroke="#63b8ff" d="M87,-80.36C87,-71.53 87,-62.75 87,-54.99"/>
<polygon fill="none" stroke="#63b8ff" points="83.5,-80.08 87,-90.08 90.5,-80.08 83.5,-80.08"/>
</a>
</g>
</g>
<!-- Node3 -->
<g id="Node000003" class="node">
<title>Node3</title>
<g id="a_Node000003"><a xlink:href="../../d8/d71/class_constraint.html" target="_top" xlink:title="A Constraint class.">
<polygon fill="white" stroke="none" points="174,-611 0,-611 0,-216 174,-216 174,-611"/>
<text text-anchor="start" x="57" y="-596.55" font-family="Consolas" font-size="11.00">Constraint</text>
<text text-anchor="start" x="4" y="-579.55" font-family="Consolas" font-size="11.00">#</text>
<text text-anchor="start" x="14" y="-579.55" font-family="Consolas" font-size="11.00">num_size</text>
<text text-anchor="start" x="4" y="-562.55" font-family="Consolas" font-size="11.00">#</text>
<text text-anchor="start" x="14" y="-562.55" font-family="Consolas" font-size="11.00">trial_lambda</text>
<text text-anchor="start" x="4" y="-545.55" font-family="Consolas" font-size="11.00">#</text>
<text text-anchor="start" x="14" y="-545.55" font-family="Consolas" font-size="11.00">current_lambda</text>
<text text-anchor="start" x="4" y="-528.55" font-family="Consolas" font-size="11.00">#</text>
<text text-anchor="start" x="14" y="-528.55" font-family="Consolas" font-size="11.00">resistance</text>
<text text-anchor="start" x="4" y="-511.55" font-family="Consolas" font-size="11.00">#</text>
<text text-anchor="start" x="14" y="-511.55" font-family="Consolas" font-size="11.00">stiffness</text>
<text text-anchor="start" x="4" y="-494.55" font-family="Consolas" font-size="11.00">#</text>
<text text-anchor="start" x="14" y="-494.55" font-family="Consolas" font-size="11.00">auxiliary_resistance</text>
<text text-anchor="start" x="4" y="-477.55" font-family="Consolas" font-size="11.00">#</text>
<text text-anchor="start" x="14" y="-477.55" font-family="Consolas" font-size="11.00">auxiliary_load</text>
<text text-anchor="start" x="4" y="-460.55" font-family="Consolas" font-size="11.00">#</text>
<text text-anchor="start" x="14" y="-460.55" font-family="Consolas" font-size="11.00">auxiliary_stiffness</text>
<text text-anchor="start" x="4" y="-443.55" font-family="Consolas" font-size="11.00">#</text>
<text text-anchor="start" x="14" y="-443.55" font-family="Consolas" font-size="11.00">multiplier</text>
<text text-anchor="start" x="4" y="-426.55" font-family="Consolas" font-size="11.00">+</text>
<text text-anchor="start" x="14" y="-426.55" font-family="Consolas" font-size="11.00">Constraint()</text>
<text text-anchor="start" x="4" y="-409.55" font-family="Consolas" font-size="11.00">+</text>
<text text-anchor="start" x="14" y="-409.55" font-family="Consolas" font-size="11.00">Constraint()</text>
<text text-anchor="start" x="4" y="-392.55" font-family="Consolas" font-size="11.00">+</text>
<text text-anchor="start" x="14" y="-392.55" font-family="Consolas" font-size="11.00">Constraint()</text>
<text text-anchor="start" x="4" y="-375.55" font-family="Consolas" font-size="11.00">+</text>
<text text-anchor="start" x="14" y="-375.55" font-family="Consolas" font-size="11.00">operator=()</text>
<text text-anchor="start" x="4" y="-358.55" font-family="Consolas" font-size="11.00">+</text>
<text text-anchor="start" x="14" y="-358.55" font-family="Consolas" font-size="11.00">operator=()</text>
<text text-anchor="start" x="4" y="-341.55" font-family="Consolas" font-size="11.00">+</text>
<text text-anchor="start" x="14" y="-341.55" font-family="Consolas" font-size="11.00">~Constraint()</text>
<text text-anchor="start" x="4" y="-324.55" font-family="Consolas" font-size="11.00">+</text>
<text text-anchor="start" x="14" y="-324.55" font-family="Consolas" font-size="11.00">get_resistance()</text>
<text text-anchor="start" x="4" y="-307.55" font-family="Consolas" font-size="11.00">+</text>
<text text-anchor="start" x="14" y="-307.55" font-family="Consolas" font-size="11.00">get_stiffness()</text>
<text text-anchor="start" x="4" y="-290.55" font-family="Consolas" font-size="11.00">+</text>
<text text-anchor="start" x="14" y="-290.55" font-family="Consolas" font-size="11.00">get_auxiliary_resistance()</text>
<text text-anchor="start" x="4" y="-273.55" font-family="Consolas" font-size="11.00">+</text>
<text text-anchor="start" x="14" y="-273.55" font-family="Consolas" font-size="11.00">get_auxiliary_load()</text>
<text text-anchor="start" x="4" y="-256.55" font-family="Consolas" font-size="11.00">+</text>
<text text-anchor="start" x="14" y="-256.55" font-family="Consolas" font-size="11.00">get_auxiliary_stiffness()</text>
<text text-anchor="start" x="4" y="-239.55" font-family="Consolas" font-size="11.00">+</text>
<text text-anchor="start" x="14" y="-239.55" font-family="Consolas" font-size="11.00">set_multiplier_size()</text>
<text text-anchor="start" x="4" y="-222.55" font-family="Consolas" font-size="11.00">+</text>
<text text-anchor="start" x="14" y="-222.55" font-family="Consolas" font-size="11.00">get_multiplier_size()</text>
<polygon fill="#666666" stroke="#666666" points="0,-592 0,-592 174,-592 174,-592 0,-592"/>
<polygon fill="#666666" stroke="#666666" points="0,-439 0,-439 12,-439 12,-439 0,-439"/>
<polygon fill="#666666" stroke="#666666" points="12,-439 12,-439 174,-439 174,-439 12,-439"/>
<polygon fill="none" stroke="#666666" points="0,-216 0,-611 174,-611 174,-216 0,-216"/>
</a>
</g>
</g>
<!-- Node3&#45;&gt;Node2 -->
<g id="edge2_Node000002_Node000003" class="edge">
<title>Node3&#45;&gt;Node2</title>
<g id="a_edge2_Node000002_Node000003"><a xlink:title=" ">
<path fill="none" stroke="#63b8ff" d="M87,-205.6C87,-196.29 87,-187.54 87,-179.61"/>
<polygon fill="none" stroke="#63b8ff" points="83.5,-205.33 87,-215.33 90.5,-205.33 83.5,-205.33"/>
</a>
</g>
</g>
<!-- Node4 -->
<g id="Node000004" class="node">
<title>Node4</title>
<g id="a_Node000004"><a xlink:href="../../da/d44/class_conditional_modifier.html" target="_top" xlink:title="A ConditionalModifier class.">
<polygon fill="white" stroke="none" points="162,-1056 12,-1056 12,-647 162,-647 162,-1056"/>
<text text-anchor="start" x="30" y="-1041.55" font-family="Consolas" font-size="11.00">ConditionalModifier</text>
<text text-anchor="start" x="16" y="-1024.55" font-family="Consolas" font-size="11.00">#</text>
<text text-anchor="start" x="26" y="-1024.55" font-family="Consolas" font-size="11.00">initialized</text>
<text text-anchor="start" x="16" y="-1007.55" font-family="Consolas" font-size="11.00">#</text>
<text text-anchor="start" x="26" y="-1007.55" font-family="Consolas" font-size="11.00">connected</text>
<text text-anchor="start" x="16" y="-990.55" font-family="Consolas" font-size="11.00">#</text>
<text text-anchor="start" x="26" y="-990.55" font-family="Consolas" font-size="11.00">start_step</text>
<text text-anchor="start" x="16" y="-973.55" font-family="Consolas" font-size="11.00">#</text>
<text text-anchor="start" x="26" y="-973.55" font-family="Consolas" font-size="11.00">end_step</text>
<text text-anchor="start" x="16" y="-956.55" font-family="Consolas" font-size="11.00">#</text>
<text text-anchor="start" x="26" y="-956.55" font-family="Consolas" font-size="11.00">amplitude_tag</text>
<text text-anchor="start" x="16" y="-939.55" font-family="Consolas" font-size="11.00">#</text>
<text text-anchor="start" x="26" y="-939.55" font-family="Consolas" font-size="11.00">node_encoding</text>
<text text-anchor="start" x="16" y="-922.55" font-family="Consolas" font-size="11.00">#</text>
<text text-anchor="start" x="26" y="-922.55" font-family="Consolas" font-size="11.00">dof_reference</text>
<text text-anchor="start" x="16" y="-905.55" font-family="Consolas" font-size="11.00">#</text>
<text text-anchor="start" x="26" y="-905.55" font-family="Consolas" font-size="11.00">dof_encoding</text>
<text text-anchor="start" x="16" y="-888.55" font-family="Consolas" font-size="11.00">#</text>
<text text-anchor="start" x="26" y="-888.55" font-family="Consolas" font-size="11.00">magnitude</text>
<text text-anchor="start" x="16" y="-871.55" font-family="Consolas" font-size="11.00">+</text>
<text text-anchor="start" x="26" y="-871.55" font-family="Consolas" font-size="11.00">ConditionalModifier()</text>
<text text-anchor="start" x="16" y="-854.55" font-family="Consolas" font-size="11.00">+</text>
<text text-anchor="start" x="26" y="-854.55" font-family="Consolas" font-size="11.00">initialize()</text>
<text text-anchor="start" x="16" y="-837.55" font-family="Consolas" font-size="11.00">+</text>
<text text-anchor="start" x="26" y="-837.55" font-family="Consolas" font-size="11.00">process()</text>
<text text-anchor="start" x="16" y="-820.55" font-family="Consolas" font-size="11.00">+</text>
<text text-anchor="start" x="26" y="-820.55" font-family="Consolas" font-size="11.00">process_resistance()</text>
<text text-anchor="start" x="16" y="-803.55" font-family="Consolas" font-size="11.00">+</text>
<text text-anchor="start" x="26" y="-803.55" font-family="Consolas" font-size="11.00">stage()</text>
<text text-anchor="start" x="16" y="-786.55" font-family="Consolas" font-size="11.00">+</text>
<text text-anchor="start" x="26" y="-786.55" font-family="Consolas" font-size="11.00">get_node_encoding()</text>
<text text-anchor="start" x="16" y="-769.55" font-family="Consolas" font-size="11.00">+</text>
<text text-anchor="start" x="26" y="-769.55" font-family="Consolas" font-size="11.00">get_dof_encoding()</text>
<text text-anchor="start" x="16" y="-752.55" font-family="Consolas" font-size="11.00">+</text>
<text text-anchor="start" x="26" y="-752.55" font-family="Consolas" font-size="11.00">set_initialized()</text>
<text text-anchor="start" x="16" y="-735.55" font-family="Consolas" font-size="11.00">+</text>
<text text-anchor="start" x="26" y="-735.55" font-family="Consolas" font-size="11.00">is_initialized()</text>
<text text-anchor="start" x="16" y="-718.55" font-family="Consolas" font-size="11.00">+</text>
<text text-anchor="start" x="26" y="-718.55" font-family="Consolas" font-size="11.00">set_start_step()</text>
<text text-anchor="start" x="26" y="-701.55" font-family="Consolas" font-size="11.00">and 10 more...</text>
<text text-anchor="start" x="16" y="-684.55" font-family="Consolas" font-size="11.00">#</text>
<text text-anchor="start" x="26" y="-684.55" font-family="Consolas" font-size="11.00">get_nodal_active_dof()</text>
<text text-anchor="start" x="16" y="-667.55" font-family="Consolas" font-size="11.00">#</text>
<text text-anchor="start" x="26" y="-667.55" font-family="Consolas" font-size="11.00">get_all_nodal_active</text>
<text text-anchor="start" x="26" y="-654.05" font-family="Consolas" font-size="11.00">_dof()</text>
<polygon fill="#666666" stroke="#666666" points="12,-1037 12,-1037 162,-1037 162,-1037 12,-1037"/>
<polygon fill="#666666" stroke="#666666" points="12,-884 12,-884 24,-884 24,-884 12,-884"/>
<polygon fill="#666666" stroke="#666666" points="24,-884 24,-884 162,-884 162,-884 24,-884"/>
<polygon fill="none" stroke="#666666" points="12,-647 12,-1056 162,-1056 162,-647 12,-647"/>
</a>
</g>
</g>
<!-- Node4&#45;&gt;Node3 -->
<g id="edge3_Node000003_Node000004" class="edge">
<title>Node4&#45;&gt;Node3</title>
<g id="a_edge3_Node000003_Node000004"><a xlink:title=" ">
<path fill="none" stroke="#63b8ff" d="M87,-636.39C87,-627.87 87,-619.34 87,-610.85"/>
<polygon fill="none" stroke="#63b8ff" points="83.5,-636.18 87,-646.18 90.5,-636.18 83.5,-636.18"/>
</a>
</g>
</g>
<!-- Node5 -->
<g id="Node000005" class="node">
<title>Node5</title>
<g id="a_Node000005"><a xlink:href="../../d0/d57/class_tag.html" target="_top" xlink:title="A base Tag class.">
<polygon fill="white" stroke="none" points="132,-1385 42,-1385 42,-1092 132,-1092 132,-1385"/>
<text text-anchor="start" x="78" y="-1370.55" font-family="Consolas" font-size="11.00">Tag</text>
<text text-anchor="start" x="84" y="-1353.55" font-family="Consolas" font-size="11.00"> </text>
<text text-anchor="start" x="46" y="-1336.55" font-family="Consolas" font-size="11.00">+</text>
<text text-anchor="start" x="56" y="-1336.55" font-family="Consolas" font-size="11.00">Tag()</text>
<text text-anchor="start" x="46" y="-1319.55" font-family="Consolas" font-size="11.00">+</text>
<text text-anchor="start" x="56" y="-1319.55" font-family="Consolas" font-size="11.00">Tag()</text>
<text text-anchor="start" x="46" y="-1302.55" font-family="Consolas" font-size="11.00">+</text>
<text text-anchor="start" x="56" y="-1302.55" font-family="Consolas" font-size="11.00">Tag()</text>
<text text-anchor="start" x="46" y="-1285.55" font-family="Consolas" font-size="11.00">+</text>
<text text-anchor="start" x="56" y="-1285.55" font-family="Consolas" font-size="11.00">operator=()</text>
<text text-anchor="start" x="46" y="-1268.55" font-family="Consolas" font-size="11.00">+</text>
<text text-anchor="start" x="56" y="-1268.55" font-family="Consolas" font-size="11.00">operator=()</text>
<text text-anchor="start" x="46" y="-1251.55" font-family="Consolas" font-size="11.00">+</text>
<text text-anchor="start" x="56" y="-1251.55" font-family="Consolas" font-size="11.00">~Tag()</text>
<text text-anchor="start" x="46" y="-1234.55" font-family="Consolas" font-size="11.00">+</text>
<text text-anchor="start" x="56" y="-1234.55" font-family="Consolas" font-size="11.00">set_tag()</text>
<text text-anchor="start" x="46" y="-1217.55" font-family="Consolas" font-size="11.00">+</text>
<text text-anchor="start" x="56" y="-1217.55" font-family="Consolas" font-size="11.00">get_tag()</text>
<text text-anchor="start" x="46" y="-1200.55" font-family="Consolas" font-size="11.00">+</text>
<text text-anchor="start" x="56" y="-1200.55" font-family="Consolas" font-size="11.00">enable()</text>
<text text-anchor="start" x="46" y="-1183.55" font-family="Consolas" font-size="11.00">+</text>
<text text-anchor="start" x="56" y="-1183.55" font-family="Consolas" font-size="11.00">disable()</text>
<text text-anchor="start" x="46" y="-1166.55" font-family="Consolas" font-size="11.00">+</text>
<text text-anchor="start" x="56" y="-1166.55" font-family="Consolas" font-size="11.00">guard()</text>
<text text-anchor="start" x="46" y="-1149.55" font-family="Consolas" font-size="11.00">+</text>
<text text-anchor="start" x="56" y="-1149.55" font-family="Consolas" font-size="11.00">unguard()</text>
<text text-anchor="start" x="46" y="-1132.55" font-family="Consolas" font-size="11.00">+</text>
<text text-anchor="start" x="56" y="-1132.55" font-family="Consolas" font-size="11.00">is_active()</text>
<text text-anchor="start" x="46" y="-1115.55" font-family="Consolas" font-size="11.00">+</text>
<text text-anchor="start" x="56" y="-1115.55" font-family="Consolas" font-size="11.00">is_guarded()</text>
<text text-anchor="start" x="46" y="-1098.55" font-family="Consolas" font-size="11.00">+</text>
<text text-anchor="start" x="56" y="-1098.55" font-family="Consolas" font-size="11.00">print()</text>
<polygon fill="#666666" stroke="#666666" points="42,-1366 42,-1366 132,-1366 132,-1366 42,-1366"/>
<polygon fill="#666666" stroke="#666666" points="42,-1349 42,-1349 132,-1349 132,-1349 42,-1349"/>
<polygon fill="none" stroke="#666666" points="42,-1092 42,-1385 132,-1385 132,-1092 42,-1092"/>
</a>
</g>
</g>
<!-- Node5&#45;&gt;Node4 -->
<g id="edge4_Node000004_Node000005" class="edge">
<title>Node5&#45;&gt;Node4</title>
<g id="a_edge4_Node000004_Node000005"><a xlink:title=" ">
<path fill="none" stroke="#63b8ff" d="M87,-1081.25C87,-1072.86 87,-1064.37 87,-1055.86"/>
<polygon fill="none" stroke="#63b8ff" points="83.5,-1081.22 87,-1091.22 90.5,-1081.22 83.5,-1081.22"/>
</a>
</g>
</g>
</g>
</svg>

<g id="navigator" transform="translate(0 0)" fill="#404254">
  <rect fill="#f2f5e9" fill-opacity="0.5" stroke="#606060" stroke-width=".5" x="0" y="0" width="60" height="60"/>
  <use id="zoomplus" xlink:href="#zoomPlus" x="17" y="9" onmousedown="handleZoom(evt,'in')"/>
  <use id="zoomminus" xlink:href="#zoomMin" x="42" y="9" onmousedown="handleZoom(evt,'out')"/>
  <use id="reset" xlink:href="#resetDef" x="30" y="36" onmousedown="handleReset()"/>
   <use id="arrowup" xlink:href="#arrowUp" x="0" y="0" onmousedown="handlePan(0,-1)"/>
  <use id="arrowright" xlink:href="#arrowRight" x="0" y="0" onmousedown="handlePan(1,0)"/>
  <use id="arrowdown" xlink:href="#arrowDown" x="0" y="0" onmousedown="handlePan(0,1)"/>
  <use id="arrowleft" xlink:href="#arrowLeft" x="0" y="0" onmousedown="handlePan(-1,0)"/>
</g>
<svg viewBox="0 0 15 15" width="100%" height="30px" preserveAspectRatio="xMaxYMin meet">
 <g id="arrow_out" transform="scale(0.3 0.3)">
  <a xlink:href="class_embed3_d__inherit__graph_org.svg" target="_base">
   <rect id="button" ry="5" rx="5" y="6" x="6" height="38" width="38"
        fill="#f2f5e9" fill-opacity="0.5" stroke="#606060" stroke-width="1.0"/>
   <path id="arrow"
     d="M 11.500037,31.436501 C 11.940474,20.09759 22.043105,11.32322 32.158766,21.979434 L 37.068811,17.246167 C 37.068811,17.246167 37.088388,32 37.088388,32 L 22.160133,31.978069 C 22.160133,31.978069 26.997745,27.140456 26.997745,27.140456 C 18.528582,18.264221 13.291696,25.230495 11.500037,31.436501 z"
     style="fill:#404040;"/>
  </a>
 </g>
</svg>

<style type='text/css'>
<![CDATA[
[data-mouse-over-selected='false'] { opacity: 0.7; }
[data-mouse-over-selected='true']  { opacity: 1.0; }
]]>
</style>
<script type="application/ecmascript"><![CDATA[
document.addEventListener('DOMContentLoaded', (event) => {
  highlightEdges();
  highlightAdjacentNodes();
});
]]></script>
</svg>
