<?xml version="1.0" encoding="UTF-8" standalone="no"?>
<!DOCTYPE svg PUBLIC "-//W3C//DTD SVG 1.1//EN"
 "http://www.w3.org/Graphics/SVG/1.1/DTD/svg11.dtd">
<!-- Generated by graphviz version 9.0.0 (20230911.1827)
 -->
<!-- Title: AbsIncreDisp::is_converged Pages: 1 -->
<svg width="376pt" height="310pt"
 viewBox="0.00 0.00 376.00 309.50" xmlns="http://www.w3.org/2000/svg" xmlns:xlink="http://www.w3.org/1999/xlink">

<svg id="main" version="1.1" xmlns="http://www.w3.org/2000/svg" xmlns:xlink="http://www.w3.org/1999/xlink" xml:space="preserve" onload="init(evt)">
<style type="text/css"><![CDATA[
.node, .edge {opacity: 0.7;}
.node.selected, .edge.selected {opacity: 1;}
.edge:hover path { stroke: red; }
.edge:hover polygon { stroke: red; fill: red; }
]]></style>
<script type="application/ecmascript" xlink:href="../../svg.min.js"/>
<svg id="graph" class="graph">
<g id="graph0" class="graph" transform="scale(1 1) rotate(0) translate(4 305.5)">
<title>AbsIncreDisp::is_converged</title>
<!-- Node1 -->
<g id="Node000001" class="node">
<title>Node1</title>
<g id="a_Node000001"><a xlink:title="Method to return conv_flag.">
<polygon fill="#999999" stroke="#666666" points="172,-161.5 0,-161.5 0,-140 172,-140 172,-161.5"/>
<text text-anchor="middle" x="86" y="-147.05" font-family="Consolas" font-size="11.00">AbsIncreDisp::is_converged</text>
</a>
</g>
</g>
<!-- Node2 -->
<g id="Node000002" class="node">
<title>Node2</title>
<g id="a_Node000002"><a xlink:href="../../d7/dae/class_converger.html#a35bf6429e4f33c8966c34dea7071b165" target="_top" xlink:title="method to return conv_flag.">
<polygon fill="white" stroke="#666666" points="368,-301.5 208,-301.5 208,-280 368,-280 368,-301.5"/>
<text text-anchor="middle" x="288" y="-287.05" font-family="Consolas" font-size="11.00">Converger::get_conv_flag</text>
</a>
</g>
</g>
<!-- Node1&#45;&gt;Node2 -->
<g id="edge1_Node000001_Node000002" class="edge">
<title>Node1&#45;&gt;Node2</title>
<g id="a_edge1_Node000001_Node000002"><a xlink:title=" ">
<path fill="none" stroke="#63b8ff" d="M94.97,-162C112.51,-185.9 157.01,-241.92 208,-270.75 210.98,-272.44 214.11,-273.98 217.32,-275.4"/>
<polygon fill="#63b8ff" stroke="#63b8ff" points="215.83,-278.57 226.42,-278.95 218.38,-272.05 215.83,-278.57"/>
</a>
</g>
</g>
<!-- Node3 -->
<g id="Node000003" class="node">
<title>Node3</title>
<g id="a_Node000003"><a xlink:href="../../d7/dae/class_converger.html#a24586cab2381fb79ea5d75deadf50825" target="_top" xlink:title="method to return DomainBase.">
<polygon fill="white" stroke="#666666" points="359,-261.5 217,-261.5 217,-240 359,-240 359,-261.5"/>
<text text-anchor="middle" x="288" y="-247.05" font-family="Consolas" font-size="11.00">Converger::get_domain</text>
</a>
</g>
</g>
<!-- Node1&#45;&gt;Node3 -->
<g id="edge2_Node000001_Node000003" class="edge">
<title>Node1&#45;&gt;Node3</title>
<g id="a_edge2_Node000001_Node000003"><a xlink:title=" ">
<path fill="none" stroke="#63b8ff" d="M100.27,-161.73C121.65,-178.89 165.62,-212.02 208,-230.75 212.49,-232.73 217.21,-234.55 222.02,-236.2"/>
<polygon fill="#63b8ff" stroke="#63b8ff" points="220.61,-239.42 231.2,-239.11 222.72,-232.75 220.61,-239.42"/>
</a>
</g>
</g>
<!-- Node4 -->
<g id="Node000004" class="node">
<title>Node4</title>
<g id="a_Node000004"><a xlink:href="../../d7/dae/class_converger.html#ac53b3d32fa56c076ec2565390eb7dc92" target="_top" xlink:title="method to return error.">
<polygon fill="white" stroke="#666666" points="356,-221.5 220,-221.5 220,-200 356,-200 356,-221.5"/>
<text text-anchor="middle" x="288" y="-207.05" font-family="Consolas" font-size="11.00">Converger::get_error</text>
</a>
</g>
</g>
<!-- Node1&#45;&gt;Node4 -->
<g id="edge3_Node000001_Node000004" class="edge">
<title>Node1&#45;&gt;Node4</title>
<g id="a_edge3_Node000001_Node000004"><a xlink:title=" ">
<path fill="none" stroke="#63b8ff" d="M118.91,-161.99C143.19,-170.37 177.52,-181.87 208,-190.75 214.95,-192.77 222.27,-194.79 229.54,-196.71"/>
<polygon fill="#63b8ff" stroke="#63b8ff" points="228.46,-200.05 239.02,-199.18 230.22,-193.27 228.46,-200.05"/>
</a>
</g>
</g>
<!-- Node5 -->
<g id="Node000005" class="node">
<title>Node5</title>
<g id="a_Node000005"><a xlink:href="../../d7/dae/class_converger.html#a20784028239e8bec069dfd89d74627e6" target="_top" xlink:title="method to return tolerance.">
<polygon fill="white" stroke="#666666" points="368,-181.5 208,-181.5 208,-160 368,-160 368,-181.5"/>
<text text-anchor="middle" x="288" y="-167.05" font-family="Consolas" font-size="11.00">Converger::get_tolerance</text>
</a>
</g>
</g>
<!-- Node1&#45;&gt;Node5 -->
<g id="edge4_Node000001_Node000005" class="edge">
<title>Node1&#45;&gt;Node5</title>
<g id="a_edge4_Node000001_Node000005"><a xlink:title=" ">
<path fill="none" stroke="#63b8ff" d="M172.4,-159.29C180.34,-160.08 188.4,-160.89 196.38,-161.69"/>
<polygon fill="#63b8ff" stroke="#63b8ff" points="195.79,-165.15 206.09,-162.66 196.49,-158.18 195.79,-165.15"/>
</a>
</g>
</g>
<!-- Node6 -->
<g id="Node000006" class="node">
<title>Node6</title>
<g id="a_Node000006"><a xlink:href="../../d8/d8f/suan_pan_8h.html#ab2f3bbc668dc6fbf9332feb42dba79a3" target="_top" xlink:title=" ">
<polygon fill="white" stroke="#666666" points="320,-141.5 256,-141.5 256,-120 320,-120 320,-141.5"/>
<text text-anchor="middle" x="288" y="-127.05" font-family="Consolas" font-size="11.00">inf_norm</text>
</a>
</g>
</g>
<!-- Node1&#45;&gt;Node6 -->
<g id="edge5_Node000001_Node000006" class="edge">
<title>Node1&#45;&gt;Node6</title>
<g id="a_edge5_Node000001_Node000006"><a xlink:title=" ">
<path fill="none" stroke="#63b8ff" d="M172.4,-142.21C197.19,-139.73 223.2,-137.13 244.16,-135.03"/>
<polygon fill="#63b8ff" stroke="#63b8ff" points="244.45,-138.52 254.06,-134.04 243.76,-131.56 244.45,-138.52"/>
</a>
</g>
</g>
<!-- Node7 -->
<g id="Node000007" class="node">
<title>Node7</title>
<g id="a_Node000007"><a xlink:href="../../d7/dae/class_converger.html#a1095095d509dcf2df46f0997d8adee0d" target="_top" xlink:title="method to return print_flag.">
<polygon fill="white" stroke="#666666" points="353,-101.5 223,-101.5 223,-80 353,-80 353,-101.5"/>
<text text-anchor="middle" x="288" y="-87.05" font-family="Consolas" font-size="11.00">Converger::is_print</text>
</a>
</g>
</g>
<!-- Node1&#45;&gt;Node7 -->
<g id="edge6_Node000001_Node000007" class="edge">
<title>Node1&#45;&gt;Node7</title>
<g id="a_edge6_Node000001_Node000007"><a xlink:title=" ">
<path fill="none" stroke="#63b8ff" d="M118.91,-139.51C143.19,-131.13 177.52,-119.63 208,-110.75 214.95,-108.73 222.27,-106.71 229.54,-104.79"/>
<polygon fill="#63b8ff" stroke="#63b8ff" points="230.22,-108.23 239.02,-102.32 228.46,-101.45 230.22,-108.23"/>
</a>
</g>
</g>
<!-- Node8 -->
<g id="Node000008" class="node">
<title>Node8</title>
<g id="a_Node000008"><a xlink:href="../../d7/dae/class_converger.html#acb33ddcbc28124732a8355925a9607b2" target="_top" xlink:title="method to set conv_flag.">
<polygon fill="white" stroke="#666666" points="368,-61.5 208,-61.5 208,-40 368,-40 368,-61.5"/>
<text text-anchor="middle" x="288" y="-47.05" font-family="Consolas" font-size="11.00">Converger::set_conv_flag</text>
</a>
</g>
</g>
<!-- Node1&#45;&gt;Node8 -->
<g id="edge7_Node000001_Node000008" class="edge">
<title>Node1&#45;&gt;Node8</title>
<g id="a_edge7_Node000001_Node000008"><a xlink:title=" ">
<path fill="none" stroke="#63b8ff" d="M100.27,-139.77C121.65,-122.61 165.62,-89.48 208,-70.75 212.49,-68.77 217.21,-66.95 222.02,-65.3"/>
<polygon fill="#63b8ff" stroke="#63b8ff" points="222.72,-68.75 231.2,-62.39 220.61,-62.08 222.72,-68.75"/>
</a>
</g>
</g>
<!-- Node9 -->
<g id="Node000009" class="node">
<title>Node9</title>
<g id="a_Node000009"><a xlink:href="../../d7/dae/class_converger.html#ab9f72024e7559c1fe82451fefa5a9f08" target="_top" xlink:title="method to set error.">
<polygon fill="white" stroke="#666666" points="356,-21.5 220,-21.5 220,0 356,0 356,-21.5"/>
<text text-anchor="middle" x="288" y="-7.05" font-family="Consolas" font-size="11.00">Converger::set_error</text>
</a>
</g>
</g>
<!-- Node1&#45;&gt;Node9 -->
<g id="edge8_Node000001_Node000009" class="edge">
<title>Node1&#45;&gt;Node9</title>
<g id="a_edge8_Node000001_Node000009"><a xlink:title=" ">
<path fill="none" stroke="#63b8ff" d="M94.97,-139.5C112.51,-115.6 157.01,-59.58 208,-30.75 210.98,-29.06 214.11,-27.52 217.32,-26.1"/>
<polygon fill="#63b8ff" stroke="#63b8ff" points="218.38,-29.45 226.42,-22.55 215.83,-22.93 218.38,-29.45"/>
</a>
</g>
</g>
</g>
</svg>
</svg>

<style type='text/css'>
<![CDATA[
[data-mouse-over-selected='false'] { opacity: 0.7; }
[data-mouse-over-selected='true']  { opacity: 1.0; }
]]>
</style>
<script type="application/ecmascript"><![CDATA[
document.addEventListener('DOMContentLoaded', (event) => {
  highlightEdges();
  highlightAdjacentNodes();
});
]]></script>
</svg>
