<?xml version="1.0" encoding="UTF-8" standalone="no"?>
<!DOCTYPE svg PUBLIC "-//W3C//DTD SVG 1.1//EN"
 "http://www.w3.org/Graphics/SVG/1.1/DTD/svg11.dtd">
<!-- Generated by graphviz version 2.43.0 (0)
 -->
<!-- Title: Concrete22::update_trial_status Pages: 1 -->
<!--zoomable 331 -->
<svg id="main" version="1.1" xmlns="http://www.w3.org/2000/svg" xmlns:xlink="http://www.w3.org/1999/xlink" xml:space="preserve" onload="init(evt)">
<style type="text/css"><![CDATA[
.edge:hover path { stroke: red; }
.edge:hover polygon { stroke: red; fill: red; }
]]></style>
<script type="text/javascript"><![CDATA[
var edges = document.getElementsByTagName('g');
if (edges && edges.length) {
  for (var i=0;i<edges.length;i++) {
    if (edges[i].id.substr(0,4)=='edge') {
      edges[i].setAttribute('class','edge');
    }
  }
}
]]></script>
        <defs>
                <circle id="rim" cx="0" cy="0" r="7"/>
                <circle id="rim2" cx="0" cy="0" r="3.5"/>
                <g id="zoomPlus">
                        <use xlink:href="#rim" fill="#404040">
                                <set attributeName="fill" to="#808080" begin="zoomplus.mouseover" end="zoomplus.mouseout"/>
                        </use>
                        <path d="M-4,0h8M0,-4v8" fill="none" stroke="white" stroke-width="1.5" pointer-events="none"/>
                </g>
                <g id="zoomMin">
                        <use xlink:href="#rim" fill="#404040">
                                <set attributeName="fill" to="#808080" begin="zoomminus.mouseover" end="zoomminus.mouseout"/>
                        </use>
                        <path d="M-4,0h8" fill="none" stroke="white" stroke-width="1.5" pointer-events="none"/>
                </g>
                <g id="dirArrow">
                        <path fill="none" stroke="white" stroke-width="1.5" d="M0,-3.0v7 M-2.5,-0.5L0,-3.0L2.5,-0.5"/>
                </g>
               <g id="resetDef">
                       <use xlink:href="#rim2" fill="#404040">
                               <set attributeName="fill" to="#808080" begin="reset.mouseover" end="reset.mouseout"/>
                       </use>
               </g>
        </defs>

<script type="text/javascript">
var viewWidth = 763;
var viewHeight = 331;
var sectionId = 'dynsection-8';
</script>
<script xlink:href="../../svgpan.js"/>
<svg id="graph" class="graph">
<g id="viewport">
<title>Concrete22::update_trial_status</title>
<polygon fill="white" stroke="transparent" points="-4,4 -4,-327.12 759,-327.12 759,4 -4,4"/>
<!-- Node1 -->
<g id="node1" class="node">
<title>Node1</title>
<g id="a_node1"><a xlink:title=" ">
<polygon fill="#bfbfbf" stroke="black" points="0,-159.5 0,-191.5 138,-191.5 138,-159.5 0,-159.5"/>
<text text-anchor="start" x="8" y="-178.7" font-family="Consolas" font-size="11.00">Concrete22::update</text>
<text text-anchor="middle" x="69" y="-166.7" font-family="Consolas" font-size="11.00">_trial_status</text>
</a>
</g>
</g>
<!-- Node2 -->
<g id="node2" class="node">
<title>Node2</title>
<g id="a_node2"><a xlink:href="../../d5/d4b/namespacetransform_1_1strain.html#aa364f90f707a9daeb68ba567b83351a5" target="_top" xlink:title=" ">
<polygon fill="white" stroke="black" points="422,-198.5 422,-230.5 567,-230.5 567,-198.5 422,-198.5"/>
<text text-anchor="start" x="430" y="-217.7" font-family="Consolas" font-size="11.00">transform::strain::</text>
<text text-anchor="middle" x="494.5" y="-205.7" font-family="Consolas" font-size="11.00">angle</text>
</a>
</g>
</g>
<!-- Node1&#45;&gt;Node2 -->
<g id="edge1" class="edge">
<title>Node1&#45;&gt;Node2</title>
<path fill="none" stroke="midnightblue" d="M127.93,-191.51C142.83,-195.05 158.92,-198.38 174,-200.5 254.24,-211.8 346.83,-214.76 411.61,-215.23"/>
<polygon fill="midnightblue" stroke="midnightblue" points="411.74,-218.73 421.76,-215.28 411.78,-211.73 411.74,-218.73"/>
</g>
<!-- Node5 -->
<g id="node5" class="node">
<title>Node5</title>
<g id="a_node5"><a xlink:href="../../d8/d8f/suan_pan_8h.html#aa87073491bf65bc79b4d8b6c2a613d06" target="_top" xlink:title=" ">
<polygon fill="white" stroke="black" points="637,-281.5 637,-301.5 748,-301.5 748,-281.5 637,-281.5"/>
<text text-anchor="middle" x="692.5" y="-288.7" font-family="Consolas" font-size="11.00">suanpan_assert</text>
</a>
</g>
</g>
<!-- Node1&#45;&gt;Node5 -->
<g id="edge11" class="edge">
<title>Node1&#45;&gt;Node5</title>
<path fill="none" stroke="midnightblue" d="M80.07,-191.56C96.35,-215.87 131.04,-261.12 174,-279.5 329.61,-346.08 536.35,-321.19 634.76,-303.38"/>
<polygon fill="midnightblue" stroke="midnightblue" points="635.6,-306.79 644.8,-301.52 634.33,-299.9 635.6,-306.79"/>
</g>
<!-- Node6 -->
<g id="node6" class="node">
<title>Node6</title>
<g id="a_node6"><a xlink:href="../../d6/d6e/class_concrete22.html#a63c005253c735a8ec94543299dc57165" target="_top" xlink:title=" ">
<polygon fill="white" stroke="black" points="174,-249.5 174,-269.5 359,-269.5 359,-249.5 174,-249.5"/>
<text text-anchor="middle" x="266.5" y="-256.7" font-family="Consolas" font-size="11.00">Concrete22::get_parameter</text>
</a>
</g>
</g>
<!-- Node1&#45;&gt;Node6 -->
<g id="edge6" class="edge">
<title>Node1&#45;&gt;Node6</title>
<path fill="none" stroke="midnightblue" d="M94.33,-191.62C114.87,-204.65 145.41,-222.7 174,-234.5 185.42,-239.21 198,-243.31 210.08,-246.75"/>
<polygon fill="midnightblue" stroke="midnightblue" points="209.51,-250.22 220.08,-249.48 211.35,-243.46 209.51,-250.22"/>
</g>
<!-- Node8 -->
<g id="node8" class="node">
<title>Node8</title>
<g id="a_node8"><a xlink:href="../../dc/dee/class_material.html#ad28136c4cd29daa3b12b0f416ca99910" target="_top" xlink:title=" ">
<polygon fill="white" stroke="black" points="194,-159.5 194,-191.5 339,-191.5 339,-159.5 194,-159.5"/>
<text text-anchor="start" x="202" y="-178.7" font-family="Consolas" font-size="11.00">Material::get_trial</text>
<text text-anchor="middle" x="266.5" y="-166.7" font-family="Consolas" font-size="11.00">_stiffness</text>
</a>
</g>
</g>
<!-- Node1&#45;&gt;Node8 -->
<g id="edge8" class="edge">
<title>Node1&#45;&gt;Node8</title>
<path fill="none" stroke="midnightblue" d="M138.1,-175.5C152.79,-175.5 168.46,-175.5 183.6,-175.5"/>
<polygon fill="midnightblue" stroke="midnightblue" points="183.99,-179 193.99,-175.5 183.99,-172 183.99,-179"/>
</g>
<!-- Node9 -->
<g id="node9" class="node">
<title>Node9</title>
<g id="a_node9"><a xlink:href="../../dc/dee/class_material.html#a73297a8cd5bcef2c652acf1df6418d5b" target="_top" xlink:title=" ">
<polygon fill="white" stroke="black" points="194,-108.5 194,-140.5 339,-140.5 339,-108.5 194,-108.5"/>
<text text-anchor="start" x="202" y="-127.7" font-family="Consolas" font-size="11.00">Material::get_trial</text>
<text text-anchor="middle" x="266.5" y="-115.7" font-family="Consolas" font-size="11.00">_stress</text>
</a>
</g>
</g>
<!-- Node1&#45;&gt;Node9 -->
<g id="edge9" class="edge">
<title>Node1&#45;&gt;Node9</title>
<path fill="none" stroke="midnightblue" d="M131.59,-159.43C151.4,-154.26 173.52,-148.49 193.99,-143.16"/>
<polygon fill="midnightblue" stroke="midnightblue" points="195.09,-146.48 203.88,-140.57 193.33,-139.71 195.09,-146.48"/>
</g>
<!-- Node10 -->
<g id="node10" class="node">
<title>Node10</title>
<g id="a_node10"><a xlink:href="../../d2/dfc/namespacetensor_1_1strain.html#a86200e5f690b2fe54ca08f6a2a721ab0" target="_top" xlink:title=" ">
<polygon fill="white" stroke="black" points="190.5,-69.5 190.5,-89.5 342.5,-89.5 342.5,-69.5 190.5,-69.5"/>
<text text-anchor="middle" x="266.5" y="-76.7" font-family="Consolas" font-size="11.00">tensor::strain::norm</text>
</a>
</g>
</g>
<!-- Node1&#45;&gt;Node10 -->
<g id="edge10" class="edge">
<title>Node1&#45;&gt;Node10</title>
<path fill="none" stroke="midnightblue" d="M86.9,-159.29C106.34,-141.59 139.96,-113.74 174,-98.5 179.09,-96.22 184.46,-94.21 189.95,-92.44"/>
<polygon fill="midnightblue" stroke="midnightblue" points="191.32,-95.69 199.92,-89.5 189.34,-88.97 191.32,-95.69"/>
</g>
<!-- Node11 -->
<g id="node11" class="node">
<title>Node11</title>
<g id="a_node11"><a xlink:href="../../d5/d4b/namespacetransform_1_1strain.html#a7e4f56aa5fa32a814e597c9addba843e" target="_top" xlink:title=" ">
<polygon fill="white" stroke="black" points="194,-0.5 194,-32.5 339,-32.5 339,-0.5 194,-0.5"/>
<text text-anchor="start" x="202" y="-19.7" font-family="Consolas" font-size="11.00">transform::strain::</text>
<text text-anchor="middle" x="266.5" y="-7.7" font-family="Consolas" font-size="11.00">trans</text>
</a>
</g>
</g>
<!-- Node1&#45;&gt;Node11 -->
<g id="edge12" class="edge">
<title>Node1&#45;&gt;Node11</title>
<path fill="none" stroke="midnightblue" d="M81.15,-159.39C98.6,-135.12 134.5,-88.88 174,-59.5 185.79,-50.73 199.64,-43.1 212.96,-36.8"/>
<polygon fill="midnightblue" stroke="midnightblue" points="214.41,-39.99 222.06,-32.66 211.51,-33.62 214.41,-39.99"/>
</g>
<!-- Node3 -->
<g id="node3" class="node">
<title>Node3</title>
<g id="a_node3"><a xlink:href="../../dc/dfe/namespacetransform.html#a6897723d826b435b1dd03f1436a3d0ab" target="_top" xlink:title=" ">
<polygon fill="white" stroke="black" points="630,-211.5 630,-231.5 755,-231.5 755,-211.5 630,-211.5"/>
<text text-anchor="middle" x="692.5" y="-218.7" font-family="Consolas" font-size="11.00">transform::atan2</text>
</a>
</g>
</g>
<!-- Node2&#45;&gt;Node3 -->
<g id="edge2" class="edge">
<title>Node2&#45;&gt;Node3</title>
<path fill="none" stroke="midnightblue" d="M567.09,-217.06C584.12,-217.66 602.29,-218.31 619.34,-218.92"/>
<polygon fill="midnightblue" stroke="midnightblue" points="619.67,-222.44 629.79,-219.3 619.92,-215.44 619.67,-222.44"/>
</g>
<!-- Node4 -->
<g id="node4" class="node">
<title>Node4</title>
<g id="a_node4"><a xlink:href="../../da/d46/group___utility.html#ga47ce50ab0d12c6f26d9051a88ce6ec01" target="_top" xlink:title=" ">
<polygon fill="white" stroke="black" points="640.5,-172.5 640.5,-192.5 744.5,-192.5 744.5,-172.5 640.5,-172.5"/>
<text text-anchor="middle" x="692.5" y="-179.7" font-family="Consolas" font-size="11.00">shape::strain</text>
</a>
</g>
</g>
<!-- Node2&#45;&gt;Node4 -->
<g id="edge4" class="edge">
<title>Node2&#45;&gt;Node4</title>
<path fill="none" stroke="midnightblue" d="M567.09,-202.81C587.86,-199.42 610.34,-195.75 630.4,-192.48"/>
<polygon fill="midnightblue" stroke="midnightblue" points="631.04,-195.92 640.34,-190.85 629.91,-189.01 631.04,-195.92"/>
</g>
<!-- Node2&#45;&gt;Node5 -->
<g id="edge5" class="edge">
<title>Node2&#45;&gt;Node5</title>
<path fill="none" stroke="midnightblue" d="M564.5,-230.57C574.51,-233.52 584.61,-236.84 594,-240.5 610.86,-247.07 613.98,-251.1 630,-259.5 640.77,-265.15 652.63,-271.32 663.03,-276.73"/>
<polygon fill="midnightblue" stroke="midnightblue" points="661.61,-279.94 672.1,-281.44 664.84,-273.72 661.61,-279.94"/>
</g>
<!-- Node3&#45;&gt;Node3 -->
<g id="edge3" class="edge">
<title>Node3&#45;&gt;Node3</title>
<path fill="none" stroke="midnightblue" d="M661.5,-231.73C647.36,-240.61 657.7,-250 692.5,-250 716.43,-250 728.79,-245.56 729.58,-239.9"/>
<polygon fill="midnightblue" stroke="midnightblue" points="732.28,-237.66 723.5,-231.73 726.66,-241.84 732.28,-237.66"/>
</g>
<!-- Node7 -->
<g id="node7" class="node">
<title>Node7</title>
<g id="a_node7"><a xlink:href="../../d6/dbf/class_concrete_tsai.html#ac9328fc1a601a90ce114175522e236cd" target="_top" xlink:title=" ">
<polygon fill="white" stroke="black" points="395,-249.5 395,-269.5 594,-269.5 594,-249.5 395,-249.5"/>
<text text-anchor="middle" x="494.5" y="-256.7" font-family="Consolas" font-size="11.00">ConcreteTsai::get_parameter</text>
</a>
</g>
</g>
<!-- Node6&#45;&gt;Node7 -->
<g id="edge7" class="edge">
<title>Node6&#45;&gt;Node7</title>
<path fill="none" stroke="midnightblue" d="M359.1,-259.5C367.54,-259.5 376.15,-259.5 384.72,-259.5"/>
<polygon fill="midnightblue" stroke="midnightblue" points="384.76,-263 394.76,-259.5 384.76,-256 384.76,-263"/>
</g>
<!-- Node11&#45;&gt;Node2 -->
<g id="edge13" class="edge">
<title>Node11&#45;&gt;Node2</title>
<path fill="none" stroke="midnightblue" d="M311.03,-32.53C326.95,-39.5 344.58,-48.59 359,-59.5 409.12,-97.42 454.04,-156.69 477.12,-189.87"/>
<polygon fill="midnightblue" stroke="midnightblue" points="474.49,-192.23 483.04,-198.5 480.27,-188.27 474.49,-192.23"/>
</g>
<!-- Node11&#45;&gt;Node11 -->
<g id="edge14" class="edge">
<title>Node11&#45;&gt;Node11</title>
<path fill="none" stroke="midnightblue" d="M231.77,-32.83C224.68,-42.24 236.26,-51 266.5,-51 284.93,-51 296.43,-47.75 300.99,-43.08"/>
<polygon fill="midnightblue" stroke="midnightblue" points="304.5,-42.91 301.23,-32.83 297.5,-42.74 304.5,-42.91"/>
</g>
</g>
</svg>
        <g id="navigator" transform="translate(0 0)" fill="#404254">
                <rect fill="#f2f5e9" fill-opacity="0.5" stroke="#606060" stroke-width=".5" x="0" y="0" width="60" height="60"/>
                <use id="zoomplus" xlink:href="#zoomPlus" x="17" y="9" onmousedown="handleZoom(evt,'in')"/>
                <use id="zoomminus" xlink:href="#zoomMin" x="42" y="9" onmousedown="handleZoom(evt,'out')"/>
                <use id="reset" xlink:href="#resetDef" x="30" y="36" onmousedown="handleReset()"/>
                <g id="arrowUp" xlink:href="#dirArrow" transform="translate(30 24)" onmousedown="handlePan(0,-1)">
                  <use xlink:href="#rim" fill="#404040">
                        <set attributeName="fill" to="#808080" begin="arrowUp.mouseover" end="arrowUp.mouseout"/>
                  </use>
                  <path fill="none" stroke="white" stroke-width="1.5" d="M0,-3.0v7 M-2.5,-0.5L0,-3.0L2.5,-0.5"/>
                </g>
                <g id="arrowRight" xlink:href="#dirArrow" transform="rotate(90) translate(36 -43)" onmousedown="handlePan(1,0)">
                  <use xlink:href="#rim" fill="#404040">
                        <set attributeName="fill" to="#808080" begin="arrowRight.mouseover" end="arrowRight.mouseout"/>
                  </use>
                  <path fill="none" stroke="white" stroke-width="1.5" d="M0,-3.0v7 M-2.5,-0.5L0,-3.0L2.5,-0.5"/>
                </g>
                <g id="arrowDown" xlink:href="#dirArrow" transform="rotate(180) translate(-30 -48)" onmousedown="handlePan(0,1)">
                  <use xlink:href="#rim" fill="#404040">
                        <set attributeName="fill" to="#808080" begin="arrowDown.mouseover" end="arrowDown.mouseout"/>
                  </use>
                  <path fill="none" stroke="white" stroke-width="1.5" d="M0,-3.0v7 M-2.5,-0.5L0,-3.0L2.5,-0.5"/>
                </g>
                <g id="arrowLeft" xlink:href="#dirArrow" transform="rotate(270) translate(-36 17)" onmousedown="handlePan(-1,0)">
                  <use xlink:href="#rim" fill="#404040">
                        <set attributeName="fill" to="#808080" begin="arrowLeft.mouseover" end="arrowLeft.mouseout"/>
                  </use>
                  <path fill="none" stroke="white" stroke-width="1.5" d="M0,-3.0v7 M-2.5,-0.5L0,-3.0L2.5,-0.5"/>
                </g>
        </g>
        <svg viewBox="0 0 15 15" width="100%" height="30px" preserveAspectRatio="xMaxYMin meet">
         <g id="arrow_out" transform="scale(0.3 0.3)">
          <a xlink:href="class_concrete22_af99d86fc16a5dc06c2ad2c702e6160de_cgraph_org.svg" target="_base">
           <rect id="button" ry="5" rx="5" y="6" x="6" height="38" width="38"
                fill="#f2f5e9" fill-opacity="0.5" stroke="#606060" stroke-width="1.0"/>
           <path id="arrow"
             d="M 11.500037,31.436501 C 11.940474,20.09759 22.043105,11.32322 32.158766,21.979434 L 37.068811,17.246167 C 37.068811,17.246167 37.088388,32 37.088388,32 L 22.160133,31.978069 C 22.160133,31.978069 26.997745,27.140456 26.997745,27.140456 C 18.528582,18.264221 13.291696,25.230495 11.500037,31.436501 z"
             style="fill:#404040;"/>
          </a>
         </g>
        </svg>
</svg>
