<?xml version="1.0" encoding="UTF-8" standalone="no"?>
<!DOCTYPE svg PUBLIC "-//W3C//DTD SVG 1.1//EN"
 "http://www.w3.org/Graphics/SVG/1.1/DTD/svg11.dtd">
<!-- Generated by graphviz version 2.43.0 (0)
 -->
<!-- Title: Concrete22::initialize Pages: 1 -->
<svg width="394pt" height="119pt"
 viewBox="0.00 0.00 394.00 119.00" xmlns="http://www.w3.org/2000/svg" xmlns:xlink="http://www.w3.org/1999/xlink">
<g id="graph0" class="graph" transform="scale(1 1) rotate(0) translate(4 115)">
<title>Concrete22::initialize</title>
<polygon fill="white" stroke="transparent" points="-4,4 -4,-115 390,-115 390,4 -4,4"/>
<!-- Node1 -->
<g id="node1" class="node">
<title>Node1</title>
<g id="a_node1"><a xlink:title=" ">
<polygon fill="#bfbfbf" stroke="black" points="0,-51.5 0,-71.5 165,-71.5 165,-51.5 0,-51.5"/>
<text text-anchor="middle" x="82.5" y="-58.7" font-family="Consolas" font-size="11.00">Concrete22::initialize</text>
</a>
</g>
</g>
<!-- Node2 -->
<g id="node2" class="node">
<title>Node2</title>
<g id="a_node2"><a xlink:href="../../d6/dbf/class_concrete_tsai.html#ae2c57610837a077f33784793681dabd9" target="_top" xlink:title=" ">
<polygon fill="white" stroke="black" points="204,-90.5 204,-110.5 383,-110.5 383,-90.5 204,-90.5"/>
<text text-anchor="middle" x="293.5" y="-97.7" font-family="Consolas" font-size="11.00">ConcreteTsai::initialize</text>
</a>
</g>
</g>
<!-- Node1&#45;&gt;Node2 -->
<g id="edge1" class="edge">
<title>Node1&#45;&gt;Node2</title>
<path fill="none" stroke="midnightblue" d="M137.32,-71.54C165.24,-76.75 199.51,-83.15 228.75,-88.6"/>
<polygon fill="midnightblue" stroke="midnightblue" points="228.39,-92.1 238.86,-90.49 229.67,-85.22 228.39,-92.1"/>
</g>
<!-- Node3 -->
<g id="node3" class="node">
<title>Node3</title>
<g id="a_node3"><a xlink:href="../../dc/dee/class_material.html#ae83e4ad2e3f43ddf80838c507e484126" target="_top" xlink:title=" ">
<polygon fill="white" stroke="black" points="201,-51.5 201,-71.5 386,-71.5 386,-51.5 201,-51.5"/>
<text text-anchor="middle" x="293.5" y="-58.7" font-family="Consolas" font-size="11.00">Material::initialize_base</text>
</a>
</g>
</g>
<!-- Node1&#45;&gt;Node3 -->
<g id="edge2" class="edge">
<title>Node1&#45;&gt;Node3</title>
<path fill="none" stroke="midnightblue" d="M165.2,-61.5C173.6,-61.5 182.2,-61.5 190.77,-61.5"/>
<polygon fill="midnightblue" stroke="midnightblue" points="190.81,-65 200.81,-61.5 190.81,-58 190.81,-65"/>
</g>
<!-- Node4 -->
<g id="node4" class="node">
<title>Node4</title>
<g id="a_node4"><a xlink:href="../../dc/dee/class_material.html#ac62c67f984ab44bbf36375e1a0ddfb35" target="_top" xlink:title=" ">
<polygon fill="white" stroke="black" points="217.5,-0.5 217.5,-32.5 369.5,-32.5 369.5,-0.5 217.5,-0.5"/>
<text text-anchor="start" x="225.5" y="-19.7" font-family="Consolas" font-size="11.00">Material::initialize</text>
<text text-anchor="middle" x="293.5" y="-7.7" font-family="Consolas" font-size="11.00">_history</text>
</a>
</g>
</g>
<!-- Node1&#45;&gt;Node4 -->
<g id="edge3" class="edge">
<title>Node1&#45;&gt;Node4</title>
<path fill="none" stroke="midnightblue" d="M130.14,-51.46C153.08,-46.52 181.44,-40.41 208.02,-34.69"/>
<polygon fill="midnightblue" stroke="midnightblue" points="209.06,-38.05 218.1,-32.52 207.58,-31.2 209.06,-38.05"/>
</g>
</g>
</svg>
