<?xml version="1.0" encoding="UTF-8" standalone="no"?>
<!DOCTYPE svg PUBLIC "-//W3C//DTD SVG 1.1//EN"
 "http://www.w3.org/Graphics/SVG/1.1/DTD/svg11.dtd">
<!-- Generated by graphviz version 5.0.0 (0)
 -->
<!-- Title: DKT3::initialize Pages: 1 -->
<svg width="327pt" height="78pt"
 viewBox="0.00 0.00 327.00 78.00" xmlns="http://www.w3.org/2000/svg" xmlns:xlink="http://www.w3.org/1999/xlink">
<g id="graph0" class="graph" transform="scale(1 1) rotate(0) translate(4 74)">
<title>DKT3::initialize</title>
<!-- Node1 -->
<g id="node1" class="node">
<title>Node1</title>
<g id="a_node1"><a xlink:title=" ">
<polygon fill="#999999" stroke="#666666" points="125,-42 0,-42 0,-22 125,-22 125,-42"/>
<text text-anchor="middle" x="62.5" y="-29.2" font-family="Consolas" font-size="11.00">DKT3::initialize</text>
</a>
</g>
</g>
<!-- Node2 -->
<g id="node2" class="node">
<title>Node2</title>
<g id="a_node2"><a xlink:href="../../dc/dee/class_material.html#a7ee1a5e060b0dd313f95d1afa6a71db8" target="_top" xlink:title=" ">
<polygon fill="white" stroke="#666666" points="319,-70 161,-70 161,-38 319,-38 319,-70"/>
<text text-anchor="start" x="169" y="-57.2" font-family="Consolas" font-size="11.00">Material::get_initial</text>
<text text-anchor="middle" x="240" y="-45.2" font-family="Consolas" font-size="11.00">_stiffness</text>
</a>
</g>
</g>
<!-- Node1&#45;&gt;Node2 -->
<g id="edge1" class="edge">
<title>Node1&#45;&gt;Node2</title>
<path fill="none" stroke="#63b8ff" d="M125.37,-39.76C133.6,-40.79 142.16,-41.86 150.73,-42.94"/>
<polygon fill="#63b8ff" stroke="#63b8ff" points="150.42,-46.42 160.77,-44.19 151.29,-39.48 150.42,-46.42"/>
</g>
<!-- Node3 -->
<g id="node3" class="node">
<title>Node3</title>
<g id="a_node3"><a xlink:href="../../da/d46/group___utility.html#ga83283f94b58a9b16dbe87e505d730d4c" target="_top" xlink:title="compute the shape function or its derivative of six node triangle in global coordinate system">
<polygon fill="white" stroke="#666666" points="299,-20 181,-20 181,0 299,0 299,-20"/>
<text text-anchor="middle" x="240" y="-7.2" font-family="Consolas" font-size="11.00">shape::triangle</text>
</a>
</g>
</g>
<!-- Node1&#45;&gt;Node3 -->
<g id="edge2" class="edge">
<title>Node1&#45;&gt;Node3</title>
<path fill="none" stroke="#63b8ff" d="M125.37,-24.24C140.05,-22.4 155.78,-20.43 170.72,-18.56"/>
<polygon fill="#63b8ff" stroke="#63b8ff" points="171.43,-22 180.92,-17.28 170.56,-15.05 171.43,-22"/>
</g>
</g>
</svg>
