<?xml version="1.0" encoding="UTF-8" standalone="no"?>
<!DOCTYPE svg PUBLIC "-//W3C//DTD SVG 1.1//EN"
 "http://www.w3.org/Graphics/SVG/1.1/DTD/svg11.dtd">
<!-- Generated by graphviz version 2.43.0 (0)
 -->
<!-- Title: Section1D Pages: 1 -->
<!--zoomable 889 -->
<svg id="main" version="1.1" xmlns="http://www.w3.org/2000/svg" xmlns:xlink="http://www.w3.org/1999/xlink" xml:space="preserve" onload="init(evt)">
<style type="text/css"><![CDATA[
.edge:hover path { stroke: red; }
.edge:hover polygon { stroke: red; fill: red; }
]]></style>
<script type="text/javascript"><![CDATA[
var edges = document.getElementsByTagName('g');
if (edges && edges.length) {
  for (var i=0;i<edges.length;i++) {
    if (edges[i].id.substr(0,4)=='edge') {
      edges[i].setAttribute('class','edge');
    }
  }
}
]]></script>
        <defs>
                <circle id="rim" cx="0" cy="0" r="7"/>
                <circle id="rim2" cx="0" cy="0" r="3.5"/>
                <g id="zoomPlus">
                        <use xlink:href="#rim" fill="#404040">
                                <set attributeName="fill" to="#808080" begin="zoomplus.mouseover" end="zoomplus.mouseout"/>
                        </use>
                        <path d="M-4,0h8M0,-4v8" fill="none" stroke="white" stroke-width="1.5" pointer-events="none"/>
                </g>
                <g id="zoomMin">
                        <use xlink:href="#rim" fill="#404040">
                                <set attributeName="fill" to="#808080" begin="zoomminus.mouseover" end="zoomminus.mouseout"/>
                        </use>
                        <path d="M-4,0h8" fill="none" stroke="white" stroke-width="1.5" pointer-events="none"/>
                </g>
                <g id="dirArrow">
                        <path fill="none" stroke="white" stroke-width="1.5" d="M0,-3.0v7 M-2.5,-0.5L0,-3.0L2.5,-0.5"/>
                </g>
               <g id="resetDef">
                       <use xlink:href="#rim2" fill="#404040">
                               <set attributeName="fill" to="#808080" begin="reset.mouseover" end="reset.mouseout"/>
                       </use>
               </g>
        </defs>

<script type="text/javascript">
var viewWidth = 701;
var viewHeight = 889;
var sectionId = 'dynsection-1';
</script>
<script xlink:href="../../svgpan.js"/>
<svg id="graph" class="graph">
<g id="viewport">
<title>Section1D</title>
<polygon fill="white" stroke="transparent" points="-4,4 -4,-885 696.5,-885 696.5,4 -4,4"/>
<!-- Node1 -->
<g id="node1" class="node">
<title>Node1</title>
<g id="a_node1"><a xlink:title="A Section1D class.">
<polygon fill="#bfbfbf" stroke="black" points="343.5,-0.5 343.5,-144.5 515.5,-144.5 515.5,-0.5 343.5,-0.5"/>
<text text-anchor="middle" x="429.5" y="-131.7" font-family="Consolas" font-size="11.00">Section1D</text>
<polyline fill="none" stroke="black" points="343.5,-124.5 515.5,-124.5 "/>
<text text-anchor="middle" x="429.5" y="-111.7" font-family="Consolas" font-size="11.00"> </text>
<polyline fill="none" stroke="black" points="343.5,-104.5 515.5,-104.5 "/>
<text text-anchor="start" x="351.5" y="-91.7" font-family="Consolas" font-size="11.00">+ Section1D()</text>
<text text-anchor="start" x="351.5" y="-79.7" font-family="Consolas" font-size="11.00">+ initialize()</text>
<text text-anchor="start" x="351.5" y="-67.7" font-family="Consolas" font-size="11.00">+ set_characteristic</text>
<text text-anchor="start" x="351.5" y="-55.7" font-family="Consolas" font-size="11.00">_length()</text>
<text text-anchor="start" x="351.5" y="-43.7" font-family="Consolas" font-size="11.00">+ update_trial_status()</text>
<text text-anchor="start" x="351.5" y="-31.7" font-family="Consolas" font-size="11.00">+ clear_status()</text>
<text text-anchor="start" x="351.5" y="-19.7" font-family="Consolas" font-size="11.00">+ commit_status()</text>
<text text-anchor="start" x="351.5" y="-7.7" font-family="Consolas" font-size="11.00">+ reset_status()</text>
</a>
</g>
</g>
<!-- Node2 -->
<g id="node2" class="node">
<title>Node2</title>
<g id="a_node2"><a xlink:href="../../df/d29/class_section.html" target="_top" xlink:title="A Section class.">
<polygon fill="white" stroke="black" points="249,-211.5 249,-391.5 414,-391.5 414,-211.5 249,-211.5"/>
<text text-anchor="middle" x="331.5" y="-378.7" font-family="Consolas" font-size="11.00">Section</text>
<polyline fill="none" stroke="black" points="249,-371.5 414,-371.5 "/>
<text text-anchor="middle" x="331.5" y="-358.7" font-family="Consolas" font-size="11.00"> </text>
<polyline fill="none" stroke="black" points="249,-351.5 414,-351.5 "/>
<text text-anchor="start" x="257" y="-338.7" font-family="Consolas" font-size="11.00">+ Section()</text>
<text text-anchor="start" x="257" y="-326.7" font-family="Consolas" font-size="11.00">+ Section()</text>
<text text-anchor="start" x="257" y="-314.7" font-family="Consolas" font-size="11.00">+ Section()</text>
<text text-anchor="start" x="257" y="-302.7" font-family="Consolas" font-size="11.00">+ operator=()</text>
<text text-anchor="start" x="257" y="-290.7" font-family="Consolas" font-size="11.00">+ operator=()</text>
<text text-anchor="start" x="257" y="-278.7" font-family="Consolas" font-size="11.00">+ ~Section()</text>
<text text-anchor="start" x="257" y="-266.7" font-family="Consolas" font-size="11.00">+ get_section_type()</text>
<text text-anchor="start" x="257" y="-254.7" font-family="Consolas" font-size="11.00">+ get_area()</text>
<text text-anchor="start" x="257" y="-242.7" font-family="Consolas" font-size="11.00">+ get_linear_density()</text>
<text text-anchor="start" x="257" y="-230.7" font-family="Consolas" font-size="11.00">+ initialize_base()</text>
<text text-anchor="start" x="257" y="-218.7" font-family="Consolas" font-size="11.00">and 34 more...</text>
</a>
</g>
</g>
<!-- Node2&#45;&gt;Node1 -->
<g id="edge1" class="edge">
<title>Node2&#45;&gt;Node1</title>
<path fill="none" stroke="midnightblue" d="M374.01,-202.04C382.32,-182.79 390.88,-162.95 398.72,-144.79"/>
<polygon fill="none" stroke="midnightblue" points="370.7,-200.87 369.95,-211.44 377.13,-203.64 370.7,-200.87"/>
</g>
<!-- Node3 -->
<g id="node3" class="node">
<title>Node3</title>
<g id="a_node3"><a xlink:href="../../d0/d02/struct_data_section.html" target="_top" xlink:title=" ">
<polygon fill="white" stroke="black" points="227,-531.5 227,-591.5 318,-591.5 318,-531.5 227,-531.5"/>
<text text-anchor="middle" x="272.5" y="-578.7" font-family="Consolas" font-size="11.00">DataSection</text>
<polyline fill="none" stroke="black" points="227,-571.5 318,-571.5 "/>
<text text-anchor="middle" x="272.5" y="-558.7" font-family="Consolas" font-size="11.00"> </text>
<polyline fill="none" stroke="black" points="227,-551.5 318,-551.5 "/>
<text text-anchor="middle" x="272.5" y="-538.7" font-family="Consolas" font-size="11.00"> </text>
</a>
</g>
</g>
<!-- Node3&#45;&gt;Node2 -->
<g id="edge2" class="edge">
<title>Node3&#45;&gt;Node2</title>
<path fill="none" stroke="darkgreen" d="M281.46,-521.32C289.31,-487.01 301,-435.87 311.11,-391.65"/>
<polygon fill="none" stroke="darkgreen" points="277.97,-520.88 279.15,-531.41 284.79,-522.44 277.97,-520.88"/>
</g>
<!-- Node4 -->
<g id="node4" class="node">
<title>Node4</title>
<g id="a_node4"><a xlink:title=" ">
<polygon fill="white" stroke="black" points="0,-820.5 0,-880.5 71,-880.5 71,-820.5 0,-820.5"/>
<text text-anchor="middle" x="35.5" y="-867.7" font-family="Consolas" font-size="11.00">unsigned</text>
<polyline fill="none" stroke="black" points="0,-860.5 71,-860.5 "/>
<text text-anchor="middle" x="35.5" y="-847.7" font-family="Consolas" font-size="11.00"> </text>
<polyline fill="none" stroke="black" points="0,-840.5 71,-840.5 "/>
<text text-anchor="middle" x="35.5" y="-827.7" font-family="Consolas" font-size="11.00"> </text>
</a>
</g>
</g>
<!-- Node4&#45;&gt;Node3 -->
<g id="edge3" class="edge">
<title>Node4&#45;&gt;Node3</title>
<path fill="none" stroke="#404040" d="M32.1,-820.3C29.74,-786.99 30.63,-732.21 55.5,-694 92.73,-636.8 164.38,-600.67 215.15,-581.06"/>
<polygon fill="none" stroke="#404040" points="215.36,-580.98 219.58,-575.13 226.6,-576.77 222.38,-582.62 215.36,-580.98"/>
<text text-anchor="middle" x="103" y="-745.2" font-family="Consolas" font-size="11.00"> +material_tag</text>
</g>
<!-- Node5 -->
<g id="node5" class="node">
<title>Node5</title>
<g id="a_node5"><a xlink:title=" ">
<polygon fill="white" stroke="black" points="89,-820.5 89,-880.5 220,-880.5 220,-820.5 89,-820.5"/>
<text text-anchor="middle" x="154.5" y="-867.7" font-family="Consolas" font-size="11.00">const SectionType</text>
<polyline fill="none" stroke="black" points="89,-860.5 220,-860.5 "/>
<text text-anchor="middle" x="154.5" y="-847.7" font-family="Consolas" font-size="11.00"> </text>
<polyline fill="none" stroke="black" points="89,-840.5 220,-840.5 "/>
<text text-anchor="middle" x="154.5" y="-827.7" font-family="Consolas" font-size="11.00"> </text>
</a>
</g>
</g>
<!-- Node5&#45;&gt;Node3 -->
<g id="edge4" class="edge">
<title>Node5&#45;&gt;Node3</title>
<path fill="none" stroke="#404040" d="M153.63,-820.3C153.67,-788.18 156.71,-735.62 173.5,-694 187.63,-658.99 213.54,-625.09 235.31,-600.48"/>
<polygon fill="none" stroke="#404040" points="235.37,-600.42 236.43,-593.28 243.42,-591.52 242.36,-598.65 235.37,-600.42"/>
<text text-anchor="middle" x="221" y="-745.2" font-family="Consolas" font-size="11.00"> +section_type</text>
</g>
<!-- Node6 -->
<g id="node6" class="node">
<title>Node6</title>
<g id="a_node6"><a xlink:title=" ">
<polygon fill="white" stroke="black" points="254,-820.5 254,-880.5 291,-880.5 291,-820.5 254,-820.5"/>
<text text-anchor="middle" x="272.5" y="-867.7" font-family="Consolas" font-size="11.00">vec</text>
<polyline fill="none" stroke="black" points="254,-860.5 291,-860.5 "/>
<text text-anchor="middle" x="272.5" y="-847.7" font-family="Consolas" font-size="11.00"> </text>
<polyline fill="none" stroke="black" points="254,-840.5 291,-840.5 "/>
<text text-anchor="middle" x="272.5" y="-827.7" font-family="Consolas" font-size="11.00"> </text>
</a>
</g>
</g>
<!-- Node6&#45;&gt;Node3 -->
<g id="edge5" class="edge">
<title>Node6&#45;&gt;Node3</title>
<path fill="none" stroke="#404040" d="M272.5,-820.4C272.5,-769.15 272.5,-662.67 272.5,-603.82"/>
<polygon fill="none" stroke="#404040" points="272.5,-603.68 268.5,-597.68 272.5,-591.68 276.5,-597.68 272.5,-603.68"/>
<text text-anchor="middle" x="343.5" y="-793.2" font-family="Consolas" font-size="11.00"> +current_deformation</text>
<text text-anchor="start" x="272.5" y="-781.2" font-family="Consolas" font-size="11.00">+current_deformation</text>
<text text-anchor="middle" x="343.5" y="-769.2" font-family="Consolas" font-size="11.00">_rate</text>
<text text-anchor="middle" x="343.5" y="-757.2" font-family="Consolas" font-size="11.00">+current_resistance</text>
<text text-anchor="middle" x="343.5" y="-745.2" font-family="Consolas" font-size="11.00">+eccentricity</text>
<text text-anchor="middle" x="343.5" y="-733.2" font-family="Consolas" font-size="11.00">+trial_deformation</text>
<text text-anchor="start" x="272.5" y="-721.2" font-family="Consolas" font-size="11.00">+trial_deformation</text>
<text text-anchor="middle" x="343.5" y="-709.2" font-family="Consolas" font-size="11.00">_rate</text>
<text text-anchor="middle" x="343.5" y="-697.2" font-family="Consolas" font-size="11.00">+trial_resistance</text>
</g>
<!-- Node7 -->
<g id="node7" class="node">
<title>Node7</title>
<g id="a_node7"><a xlink:title=" ">
<polygon fill="white" stroke="black" points="409,-820.5 409,-880.5 466,-880.5 466,-820.5 409,-820.5"/>
<text text-anchor="middle" x="437.5" y="-867.7" font-family="Consolas" font-size="11.00">double</text>
<polyline fill="none" stroke="black" points="409,-860.5 466,-860.5 "/>
<text text-anchor="middle" x="437.5" y="-847.7" font-family="Consolas" font-size="11.00"> </text>
<polyline fill="none" stroke="black" points="409,-840.5 466,-840.5 "/>
<text text-anchor="middle" x="437.5" y="-827.7" font-family="Consolas" font-size="11.00"> </text>
</a>
</g>
</g>
<!-- Node7&#45;&gt;Node3 -->
<g id="edge6" class="edge">
<title>Node7&#45;&gt;Node3</title>
<path fill="none" stroke="#404040" d="M437.26,-820.24C436.3,-780.32 432.19,-711.71 415.5,-694 387.82,-664.63 358.3,-700.84 326.5,-676 303.52,-658.05 289.82,-627.91 281.97,-603.2"/>
<polygon fill="none" stroke="#404040" points="281.94,-603.1 276.41,-598.47 278.57,-591.58 284.09,-596.22 281.94,-603.1"/>
<text text-anchor="middle" x="487.5" y="-763.2" font-family="Consolas" font-size="11.00"> +area</text>
<text text-anchor="start" x="436.5" y="-751.2" font-family="Consolas" font-size="11.00">+characteristic</text>
<text text-anchor="middle" x="487.5" y="-739.2" font-family="Consolas" font-size="11.00">_length</text>
<text text-anchor="middle" x="487.5" y="-727.2" font-family="Consolas" font-size="11.00">+linear_density</text>
</g>
<!-- Node8 -->
<g id="node8" class="node">
<title>Node8</title>
<g id="a_node8"><a xlink:title=" ">
<polygon fill="white" stroke="black" points="544,-820.5 544,-880.5 581,-880.5 581,-820.5 544,-820.5"/>
<text text-anchor="middle" x="562.5" y="-867.7" font-family="Consolas" font-size="11.00">mat</text>
<polyline fill="none" stroke="black" points="544,-860.5 581,-860.5 "/>
<text text-anchor="middle" x="562.5" y="-847.7" font-family="Consolas" font-size="11.00"> </text>
<polyline fill="none" stroke="black" points="544,-840.5 581,-840.5 "/>
<text text-anchor="middle" x="562.5" y="-827.7" font-family="Consolas" font-size="11.00"> </text>
</a>
</g>
</g>
<!-- Node8&#45;&gt;Node3 -->
<g id="edge7" class="edge">
<title>Node8&#45;&gt;Node3</title>
<path fill="none" stroke="#404040" d="M568,-820.36C572.81,-784.99 574.49,-726.12 540.5,-694 505.81,-661.22 365.74,-703.16 326.5,-676 302.29,-659.25 288.6,-628.63 281.06,-603.41"/>
<polygon fill="none" stroke="#404040" points="280.99,-603.13 275.56,-598.39 277.84,-591.55 283.28,-596.29 280.99,-603.13"/>
<text text-anchor="middle" x="631.5" y="-775.2" font-family="Consolas" font-size="11.00"> +current_geometry</text>
<text text-anchor="middle" x="631.5" y="-763.2" font-family="Consolas" font-size="11.00">+current_stiffness</text>
<text text-anchor="middle" x="631.5" y="-751.2" font-family="Consolas" font-size="11.00">+initial_geometry</text>
<text text-anchor="middle" x="631.5" y="-739.2" font-family="Consolas" font-size="11.00">+initial_stiffness</text>
<text text-anchor="middle" x="631.5" y="-727.2" font-family="Consolas" font-size="11.00">+trial_geometry</text>
<text text-anchor="middle" x="631.5" y="-715.2" font-family="Consolas" font-size="11.00">+trial_stiffness</text>
</g>
<!-- Node9 -->
<g id="node9" class="node">
<title>Node9</title>
<g id="a_node9"><a xlink:href="../../d0/d57/class_tag.html" target="_top" xlink:title="A base Tag class.">
<polygon fill="white" stroke="black" points="336,-447.5 336,-675.5 447,-675.5 447,-447.5 336,-447.5"/>
<text text-anchor="middle" x="391.5" y="-662.7" font-family="Consolas" font-size="11.00">Tag</text>
<polyline fill="none" stroke="black" points="336,-655.5 447,-655.5 "/>
<text text-anchor="middle" x="391.5" y="-642.7" font-family="Consolas" font-size="11.00"> </text>
<polyline fill="none" stroke="black" points="336,-635.5 447,-635.5 "/>
<text text-anchor="start" x="344" y="-622.7" font-family="Consolas" font-size="11.00">+ Tag()</text>
<text text-anchor="start" x="344" y="-610.7" font-family="Consolas" font-size="11.00">+ Tag()</text>
<text text-anchor="start" x="344" y="-598.7" font-family="Consolas" font-size="11.00">+ Tag()</text>
<text text-anchor="start" x="344" y="-586.7" font-family="Consolas" font-size="11.00">+ operator=()</text>
<text text-anchor="start" x="344" y="-574.7" font-family="Consolas" font-size="11.00">+ operator=()</text>
<text text-anchor="start" x="344" y="-562.7" font-family="Consolas" font-size="11.00">+ ~Tag()</text>
<text text-anchor="start" x="344" y="-550.7" font-family="Consolas" font-size="11.00">+ set_tag()</text>
<text text-anchor="start" x="344" y="-538.7" font-family="Consolas" font-size="11.00">+ get_tag()</text>
<text text-anchor="start" x="344" y="-526.7" font-family="Consolas" font-size="11.00">+ enable()</text>
<text text-anchor="start" x="344" y="-514.7" font-family="Consolas" font-size="11.00">+ disable()</text>
<text text-anchor="start" x="344" y="-502.7" font-family="Consolas" font-size="11.00">+ guard()</text>
<text text-anchor="start" x="344" y="-490.7" font-family="Consolas" font-size="11.00">+ unguard()</text>
<text text-anchor="start" x="344" y="-478.7" font-family="Consolas" font-size="11.00">+ is_active()</text>
<text text-anchor="start" x="344" y="-466.7" font-family="Consolas" font-size="11.00">+ is_guarded()</text>
<text text-anchor="start" x="344" y="-454.7" font-family="Consolas" font-size="11.00">+ print()</text>
</a>
</g>
</g>
<!-- Node9&#45;&gt;Node2 -->
<g id="edge8" class="edge">
<title>Node9&#45;&gt;Node2</title>
<path fill="none" stroke="midnightblue" d="M362.83,-437.23C359.25,-421.81 355.64,-406.29 352.21,-391.53"/>
<polygon fill="none" stroke="midnightblue" points="359.51,-438.39 365.18,-447.34 366.33,-436.8 359.51,-438.39"/>
</g>
<!-- Node10 -->
<g id="node10" class="node">
<title>Node10</title>
<g id="a_node10"><a xlink:href="../../de/d24/class_resource_holder.html" target="_top" xlink:title=" ">
<polygon fill="white" stroke="black" points="432.5,-193.5 432.5,-409.5 624.5,-409.5 624.5,-193.5 432.5,-193.5"/>
<text text-anchor="middle" x="528.5" y="-396.7" font-family="Consolas" font-size="11.00">ResourceHolder&lt; Material &gt;</text>
<polyline fill="none" stroke="black" points="432.5,-389.5 624.5,-389.5 "/>
<text text-anchor="middle" x="528.5" y="-376.7" font-family="Consolas" font-size="11.00"> </text>
<polyline fill="none" stroke="black" points="432.5,-369.5 624.5,-369.5 "/>
<text text-anchor="start" x="440.5" y="-356.7" font-family="Consolas" font-size="11.00">+ ResourceHolder()</text>
<text text-anchor="start" x="440.5" y="-344.7" font-family="Consolas" font-size="11.00">+ ResourceHolder()</text>
<text text-anchor="start" x="440.5" y="-332.7" font-family="Consolas" font-size="11.00">+ ResourceHolder()</text>
<text text-anchor="start" x="440.5" y="-320.7" font-family="Consolas" font-size="11.00">+ ResourceHolder()</text>
<text text-anchor="start" x="440.5" y="-308.7" font-family="Consolas" font-size="11.00">+ operator=()</text>
<text text-anchor="start" x="440.5" y="-296.7" font-family="Consolas" font-size="11.00">+ operator=()</text>
<text text-anchor="start" x="440.5" y="-284.7" font-family="Consolas" font-size="11.00">+ operator=()</text>
<text text-anchor="start" x="440.5" y="-272.7" font-family="Consolas" font-size="11.00">+ operator=()</text>
<text text-anchor="start" x="440.5" y="-260.7" font-family="Consolas" font-size="11.00">+ ~ResourceHolder()</text>
<text text-anchor="start" x="440.5" y="-248.7" font-family="Consolas" font-size="11.00">+ operator&#45;&gt;()</text>
<text text-anchor="start" x="440.5" y="-236.7" font-family="Consolas" font-size="11.00">+ operator bool()</text>
<text text-anchor="start" x="440.5" y="-224.7" font-family="Consolas" font-size="11.00">+ operator==()</text>
<text text-anchor="start" x="440.5" y="-212.7" font-family="Consolas" font-size="11.00">+ operator==()</text>
<text text-anchor="start" x="440.5" y="-200.7" font-family="Consolas" font-size="11.00">+ operator==()</text>
</a>
</g>
</g>
<!-- Node10&#45;&gt;Node1 -->
<g id="edge9" class="edge">
<title>Node10&#45;&gt;Node1</title>
<path fill="none" stroke="#404040" d="M481.75,-193.31C476.23,-180.66 470.67,-167.9 465.33,-155.66"/>
<polygon fill="none" stroke="#404040" points="465.3,-155.59 459.24,-151.69 460.51,-144.59 466.57,-148.5 465.3,-155.59"/>
<text text-anchor="middle" x="514.5" y="-166.2" font-family="Consolas" font-size="11.00"> #s_material</text>
</g>
</g>
</svg>
        <g id="navigator" transform="translate(0 0)" fill="#404254">
                <rect fill="#f2f5e9" fill-opacity="0.5" stroke="#606060" stroke-width=".5" x="0" y="0" width="60" height="60"/>
                <use id="zoomplus" xlink:href="#zoomPlus" x="17" y="9" onmousedown="handleZoom(evt,'in')"/>
                <use id="zoomminus" xlink:href="#zoomMin" x="42" y="9" onmousedown="handleZoom(evt,'out')"/>
                <use id="reset" xlink:href="#resetDef" x="30" y="36" onmousedown="handleReset()"/>
                <g id="arrowUp" xlink:href="#dirArrow" transform="translate(30 24)" onmousedown="handlePan(0,-1)">
                  <use xlink:href="#rim" fill="#404040">
                        <set attributeName="fill" to="#808080" begin="arrowUp.mouseover" end="arrowUp.mouseout"/>
                  </use>
                  <path fill="none" stroke="white" stroke-width="1.5" d="M0,-3.0v7 M-2.5,-0.5L0,-3.0L2.5,-0.5"/>
                </g>
                <g id="arrowRight" xlink:href="#dirArrow" transform="rotate(90) translate(36 -43)" onmousedown="handlePan(1,0)">
                  <use xlink:href="#rim" fill="#404040">
                        <set attributeName="fill" to="#808080" begin="arrowRight.mouseover" end="arrowRight.mouseout"/>
                  </use>
                  <path fill="none" stroke="white" stroke-width="1.5" d="M0,-3.0v7 M-2.5,-0.5L0,-3.0L2.5,-0.5"/>
                </g>
                <g id="arrowDown" xlink:href="#dirArrow" transform="rotate(180) translate(-30 -48)" onmousedown="handlePan(0,1)">
                  <use xlink:href="#rim" fill="#404040">
                        <set attributeName="fill" to="#808080" begin="arrowDown.mouseover" end="arrowDown.mouseout"/>
                  </use>
                  <path fill="none" stroke="white" stroke-width="1.5" d="M0,-3.0v7 M-2.5,-0.5L0,-3.0L2.5,-0.5"/>
                </g>
                <g id="arrowLeft" xlink:href="#dirArrow" transform="rotate(270) translate(-36 17)" onmousedown="handlePan(-1,0)">
                  <use xlink:href="#rim" fill="#404040">
                        <set attributeName="fill" to="#808080" begin="arrowLeft.mouseover" end="arrowLeft.mouseout"/>
                  </use>
                  <path fill="none" stroke="white" stroke-width="1.5" d="M0,-3.0v7 M-2.5,-0.5L0,-3.0L2.5,-0.5"/>
                </g>
        </g>
        <svg viewBox="0 0 15 15" width="100%" height="30px" preserveAspectRatio="xMaxYMin meet">
         <g id="arrow_out" transform="scale(0.3 0.3)">
          <a xlink:href="class_section1_d__coll__graph_org.svg" target="_base">
           <rect id="button" ry="5" rx="5" y="6" x="6" height="38" width="38"
                fill="#f2f5e9" fill-opacity="0.5" stroke="#606060" stroke-width="1.0"/>
           <path id="arrow"
             d="M 11.500037,31.436501 C 11.940474,20.09759 22.043105,11.32322 32.158766,21.979434 L 37.068811,17.246167 C 37.068811,17.246167 37.088388,32 37.088388,32 L 22.160133,31.978069 C 22.160133,31.978069 26.997745,27.140456 26.997745,27.140456 C 18.528582,18.264221 13.291696,25.230495 11.500037,31.436501 z"
             style="fill:#404040;"/>
          </a>
         </g>
        </svg>
</svg>
