<?xml version="1.0" encoding="UTF-8" standalone="no"?>
<!DOCTYPE svg PUBLIC "-//W3C//DTD SVG 1.1//EN"
 "http://www.w3.org/Graphics/SVG/1.1/DTD/svg11.dtd">
<!-- Generated by graphviz version 2.43.0 (0)
 -->
<!-- Title: Load/BodyForce.cpp Pages: 1 -->
<!--zoomable 376 -->

<svg id="main" version="1.1" xmlns="http://www.w3.org/2000/svg" xmlns:xlink="http://www.w3.org/1999/xlink" xml:space="preserve" onload="init(evt)">
<style type="text/css"><![CDATA[
.node, .edge {opacity: 0.7;}
.node.selected, .edge.selected {opacity: 1;}
.edge:hover path { stroke: red; }
.edge:hover polygon { stroke: red; fill: red; }
]]></style>

<defs>
  <circle id="rim" cx="0" cy="0" r="7"/>
  <circle id="rim2" cx="0" cy="0" r="3.5"/>
  <g id="zoomPlus">
    <use xlink:href="#rim" fill="#404040"><set attributeName="fill" to="#808080" begin="zoomplus.mouseover" end="zoomplus.mouseout"/></use>
    <path d="M-4,0h8M0,-4v8" fill="none" stroke="white" stroke-width="1.5" pointer-events="none"/>
  </g>
  <g id="zoomMin">
    <use xlink:href="#rim" fill="#404040"><set attributeName="fill" to="#808080" begin="zoomminus.mouseover" end="zoomminus.mouseout"/></use>
    <path d="M-4,0h8" fill="none" stroke="white" stroke-width="1.5" pointer-events="none"/>
  </g>
  <g id="arrowUp" transform="translate(30 24)">
    <use xlink:href="#rim"/>
    <path pointer-events="none" fill="none" stroke="white" stroke-width="1.5" d="M0,-3.0v7 M-2.5,-0.5L0,-3.0L2.5,-0.5"/>
  </g>
  <g id="arrowRight" transform="rotate(90) translate(36 -43)">
    <use xlink:href="#rim"/>
    <path pointer-events="none" fill="none" stroke="white" stroke-width="1.5" d="M0,-3.0v7 M-2.5,-0.5L0,-3.0L2.5,-0.5"/>
  </g>
  <g id="arrowDown" transform="rotate(180) translate(-30 -48)">
    <use xlink:href="#rim"/>
    <path pointer-events="none" fill="none" stroke="white" stroke-width="1.5" d="M0,-3.0v7 M-2.5,-0.5L0,-3.0L2.5,-0.5"/>
  </g>
  <g id="arrowLeft" transform="rotate(270) translate(-36 17)">
    <use xlink:href="#rim"/>
    <path pointer-events="none" fill="none" stroke="white" stroke-width="1.5" d="M0,-3.0v7 M-2.5,-0.5L0,-3.0L2.5,-0.5"/>
  </g>
  <g id="resetDef">
    <use xlink:href="#rim2" fill="#404040"><set attributeName="fill" to="#808080" begin="reset.mouseover" end="reset.mouseout"/></use>
  </g>
</defs>
<script type="application/ecmascript">
var viewWidth = 1211;
var viewHeight = 376;
var sectionId = 'dynsection-0';
</script>
<script type="application/ecmascript" xlink:href="../../svg.min.js"/>
<svg id="graph" class="graph">
<g id="viewport">
<title>Load/BodyForce.cpp</title>
<!-- Node1 -->
<g id="Node000001" class="node">
<title>Node1</title>
<g id="a_Node000001"><a xlink:title=" ">
<polygon fill="#999999" stroke="#666666" points="548.5,-368 410.5,-368 410.5,-348 548.5,-348 548.5,-368"/>
<text text-anchor="middle" x="479.5" y="-355.2" font-family="Consolas" font-size="11.00">Load/BodyForce.cpp</text>
</a>
</g>
</g>
<!-- Node2 -->
<g id="Node000002" class="node">
<title>Node2</title>
<g id="a_Node000002"><a xlink:href="../../db/d5d/_body_force_8h.html" target="_top" xlink:title=" ">
<polygon fill="white" stroke="#666666" points="620,-312 529,-312 529,-292 620,-292 620,-312"/>
<text text-anchor="middle" x="574.5" y="-299.2" font-family="Consolas" font-size="11.00">BodyForce.h</text>
</a>
</g>
</g>
<!-- Node1&#45;&gt;Node2 -->
<g id="edge1_Node000001_Node000002" class="edge">
<title>Node1&#45;&gt;Node2</title>
<g id="a_edge1_Node000001_Node000002"><a xlink:title=" ">
<path fill="none" stroke="#63b8ff" d="M495.62,-347.84C510.44,-339.41 532.66,-326.78 549.74,-317.07"/>
<polygon fill="#63b8ff" stroke="#63b8ff" points="551.66,-320.01 558.62,-312.03 548.2,-313.92 551.66,-320.01"/>
</a>
</g>
</g>
<!-- Node14 -->
<g id="Node000014" class="node">
<title>Node14</title>
<g id="a_Node000014"><a xlink:href="../../dc/df2/_domain_base_8h.html" target="_top" xlink:title=" ">
<polygon fill="white" stroke="#666666" points="392,-256 247,-256 247,-236 392,-236 392,-256"/>
<text text-anchor="middle" x="319.5" y="-243.2" font-family="Consolas" font-size="11.00">Domain/DomainBase.h</text>
</a>
</g>
</g>
<!-- Node1&#45;&gt;Node14 -->
<g id="edge13_Node000001_Node000014" class="edge">
<title>Node1&#45;&gt;Node14</title>
<g id="a_edge13_Node000001_Node000014"><a xlink:title=" ">
<path fill="none" stroke="#63b8ff" d="M466.41,-348C438.86,-329.06 374.71,-284.96 341.03,-261.8"/>
<polygon fill="#63b8ff" stroke="#63b8ff" points="343,-258.91 332.77,-256.13 339.03,-264.68 343,-258.91"/>
</a>
</g>
</g>
<!-- Node21 -->
<g id="Node000021" class="node">
<title>Node21</title>
<g id="a_Node000021"><a xlink:href="../../db/d65/_factory_8hpp.html" target="_top" xlink:title=" ">
<polygon fill="white" stroke="#666666" points="548.5,-256 410.5,-256 410.5,-236 548.5,-236 548.5,-256"/>
<text text-anchor="middle" x="479.5" y="-243.2" font-family="Consolas" font-size="11.00">Domain/Factory.hpp</text>
</a>
</g>
</g>
<!-- Node1&#45;&gt;Node21 -->
<g id="edge22_Node000001_Node000021" class="edge">
<title>Node1&#45;&gt;Node21</title>
<g id="a_edge22_Node000001_Node000021"><a xlink:title=" ">
<path fill="none" stroke="#63b8ff" d="M479.5,-348C479.5,-330.19 479.5,-290.12 479.5,-266.15"/>
<polygon fill="#63b8ff" stroke="#63b8ff" points="483,-266.13 479.5,-256.13 476,-266.13 483,-266.13"/>
</a>
</g>
</g>
<!-- Node24 -->
<g id="Node000024" class="node">
<title>Node24</title>
<g id="a_Node000024"><a xlink:href="../../d0/db8/_element_8h.html" target="_top" xlink:title=" ">
<polygon fill="white" stroke="#666666" points="789,-312 658,-312 658,-292 789,-292 789,-312"/>
<text text-anchor="middle" x="723.5" y="-299.2" font-family="Consolas" font-size="11.00">Element/Element.h</text>
</a>
</g>
</g>
<!-- Node1&#45;&gt;Node24 -->
<g id="edge28_Node000001_Node000024" class="edge">
<title>Node1&#45;&gt;Node24</title>
<g id="a_edge28_Node000001_Node000024"><a xlink:title=" ">
<path fill="none" stroke="#63b8ff" d="M520.34,-347.96C562.21,-338.69 627.43,-324.26 672.63,-314.26"/>
<polygon fill="#63b8ff" stroke="#63b8ff" points="673.52,-317.65 682.53,-312.07 672.01,-310.81 673.52,-317.65"/>
</a>
</g>
</g>
<!-- Node28 -->
<g id="Node000028" class="node">
<title>Node28</title>
<g id="a_Node000028"><a xlink:href="../../d1/ded/_amplitude_8h.html" target="_top" xlink:title=" ">
<polygon fill="white" stroke="#666666" points="339.5,-312 147.5,-312 147.5,-292 339.5,-292 339.5,-312"/>
<text text-anchor="middle" x="243.5" y="-299.2" font-family="Consolas" font-size="11.00">Load/Amplitude/Amplitude.h</text>
</a>
</g>
</g>
<!-- Node1&#45;&gt;Node28 -->
<g id="edge35_Node000001_Node000028" class="edge">
<title>Node1&#45;&gt;Node28</title>
<g id="a_edge35_Node000001_Node000028"><a xlink:title=" ">
<path fill="none" stroke="#63b8ff" d="M440,-347.96C399.58,-338.71 336.68,-324.32 292.97,-314.32"/>
<polygon fill="#63b8ff" stroke="#63b8ff" points="293.66,-310.89 283.13,-312.07 292.1,-317.71 293.66,-310.89"/>
</a>
</g>
</g>
<!-- Node3 -->
<g id="Node000003" class="node">
<title>Node3</title>
<g id="a_Node000003"><a xlink:href="../../de/d2b/_load_8h.html" target="_top" xlink:title=" ">
<polygon fill="white" stroke="#666666" points="988,-256 897,-256 897,-236 988,-236 988,-256"/>
<text text-anchor="middle" x="942.5" y="-243.2" font-family="Consolas" font-size="11.00">Load/Load.h</text>
</a>
</g>
</g>
<!-- Node2&#45;&gt;Node3 -->
<g id="edge2_Node000002_Node000003" class="edge">
<title>Node2&#45;&gt;Node3</title>
<g id="a_edge2_Node000002_Node000003"><a xlink:title=" ">
<path fill="none" stroke="#63b8ff" d="M620.36,-294.27C687.99,-284.35 814.29,-265.81 887.03,-255.14"/>
<polygon fill="#63b8ff" stroke="#63b8ff" points="887.54,-258.6 896.93,-253.69 886.52,-251.68 887.54,-258.6"/>
</a>
</g>
</g>
<!-- Node4 -->
<g id="Node000004" class="node">
<title>Node4</title>
<g id="a_Node000004"><a xlink:href="../../d1/d78/_conditional_modifier_8h.html" target="_top" xlink:title=" ">
<polygon fill="white" stroke="#666666" points="1133.5,-194 927.5,-194 927.5,-174 1133.5,-174 1133.5,-194"/>
<text text-anchor="middle" x="1030.5" y="-181.2" font-family="Consolas" font-size="11.00">Domain/ConditionalModifier.h</text>
</a>
</g>
</g>
<!-- Node3&#45;&gt;Node4 -->
<g id="edge3_Node000003_Node000004" class="edge">
<title>Node3&#45;&gt;Node4</title>
<g id="a_edge3_Node000003_Node000004"><a xlink:title=" ">
<path fill="none" stroke="#63b8ff" d="M955.87,-235.89C969.9,-226.32 992.2,-211.12 1008.77,-199.82"/>
<polygon fill="#63b8ff" stroke="#63b8ff" points="1011.01,-202.53 1017.3,-194 1007.06,-196.74 1011.01,-202.53"/>
</a>
</g>
</g>
<!-- Node5 -->
<g id="Node000005" class="node">
<title>Node5</title>
<g id="a_Node000005"><a xlink:href="../../d2/d4a/_tag_8h.html" target="_top" xlink:title=" ">
<polygon fill="white" stroke="#666666" points="668.5,-132 570.5,-132 570.5,-112 668.5,-112 668.5,-132"/>
<text text-anchor="middle" x="619.5" y="-119.2" font-family="Consolas" font-size="11.00">Domain/Tag.h</text>
</a>
</g>
</g>
<!-- Node4&#45;&gt;Node5 -->
<g id="edge4_Node000004_Node000005" class="edge">
<title>Node4&#45;&gt;Node5</title>
<g id="a_edge4_Node000004_Node000005"><a xlink:title=" ">
<path fill="none" stroke="#63b8ff" d="M968.52,-173.95C890.08,-162.5 755.91,-142.91 678.78,-131.65"/>
<polygon fill="#63b8ff" stroke="#63b8ff" points="679.14,-128.17 668.74,-130.19 678.13,-135.1 679.14,-128.17"/>
</a>
</g>
</g>
<!-- Node6 -->
<g id="Node000006" class="node">
<title>Node6</title>
<g id="a_Node000006"><a xlink:href="../../d8/d8f/suan_pan_8h.html" target="_top" xlink:title=" ">
<polygon fill="white" stroke="#666666" points="658,-76 581,-76 581,-56 658,-56 658,-76"/>
<text text-anchor="middle" x="619.5" y="-63.2" font-family="Consolas" font-size="11.00">suanPan.h</text>
</a>
</g>
</g>
<!-- Node5&#45;&gt;Node6 -->
<g id="edge5_Node000005_Node000006" class="edge">
<title>Node5&#45;&gt;Node6</title>
<g id="a_edge5_Node000005_Node000006"><a xlink:title=" ">
<path fill="none" stroke="#63b8ff" d="M619.5,-111.59C619.5,-104.7 619.5,-95.1 619.5,-86.57"/>
<polygon fill="#63b8ff" stroke="#63b8ff" points="623,-86.3 619.5,-76.3 616,-86.3 623,-86.3"/>
</a>
</g>
</g>
<!-- Node7 -->
<g id="Node000007" class="node">
<title>Node7</title>
<g id="a_Node000007"><a xlink:title=" ">
<polygon fill="#e0e0e0" stroke="#999999" points="290,-20 219,-20 219,0 290,0 290,-20"/>
<text text-anchor="middle" x="254.5" y="-7.2" font-family="Consolas" font-size="11.00">iostream</text>
</a>
</g>
</g>
<!-- Node6&#45;&gt;Node7 -->
<g id="edge6_Node000006_Node000007" class="edge">
<title>Node6&#45;&gt;Node7</title>
<g id="a_edge6_Node000006_Node000007"><a xlink:title=" ">
<path fill="none" stroke="#63b8ff" d="M580.84,-60.37C522.24,-53.19 407.22,-38.41 300.02,-20.18"/>
<polygon fill="#63b8ff" stroke="#63b8ff" points="300.45,-16.7 290.01,-18.46 299.27,-23.6 300.45,-16.7"/>
</a>
</g>
</g>
<!-- Node8 -->
<g id="Node000008" class="node">
<title>Node8</title>
<g id="a_Node000008"><a xlink:title=" ">
<polygon fill="#e0e0e0" stroke="#999999" points="453,-20 308,-20 308,0 453,0 453,-20"/>
<text text-anchor="middle" x="380.5" y="-7.2" font-family="Consolas" font-size="11.00">armadillo/armadillo</text>
</a>
</g>
</g>
<!-- Node6&#45;&gt;Node8 -->
<g id="edge7_Node000006_Node000008" class="edge">
<title>Node6&#45;&gt;Node8</title>
<g id="a_edge7_Node000006_Node000008"><a xlink:title=" ">
<path fill="none" stroke="#63b8ff" d="M580.83,-56.26C539.93,-47.02 475.25,-32.41 430.5,-22.3"/>
<polygon fill="#63b8ff" stroke="#63b8ff" points="431.23,-18.87 420.71,-20.08 429.69,-25.7 431.23,-18.87"/>
</a>
</g>
</g>
<!-- Node9 -->
<g id="Node000009" class="node">
<title>Node9</title>
<g id="a_Node000009"><a xlink:title=" ">
<polygon fill="#e0e0e0" stroke="#999999" points="555.5,-20 471.5,-20 471.5,0 555.5,0 555.5,-20"/>
<text text-anchor="middle" x="513.5" y="-7.2" font-family="Consolas" font-size="11.00">filesystem</text>
</a>
</g>
</g>
<!-- Node6&#45;&gt;Node9 -->
<g id="edge8_Node000006_Node000009" class="edge">
<title>Node6&#45;&gt;Node9</title>
<g id="a_edge8_Node000006_Node000009"><a xlink:title=" ">
<path fill="none" stroke="#63b8ff" d="M601.52,-55.84C584.74,-47.29 559.49,-34.43 540.34,-24.67"/>
<polygon fill="#63b8ff" stroke="#63b8ff" points="541.72,-21.45 531.22,-20.03 538.54,-27.68 541.72,-21.45"/>
</a>
</g>
</g>
<!-- Node10 -->
<g id="Node000010" class="node">
<title>Node10</title>
<g id="a_Node000010"><a xlink:title=" ">
<polygon fill="#e0e0e0" stroke="#999999" points="665,-20 574,-20 574,0 665,0 665,-20"/>
<text text-anchor="middle" x="619.5" y="-7.2" font-family="Consolas" font-size="11.00">fmt/color.h</text>
</a>
</g>
</g>
<!-- Node6&#45;&gt;Node10 -->
<g id="edge9_Node000006_Node000010" class="edge">
<title>Node6&#45;&gt;Node10</title>
<g id="a_edge9_Node000006_Node000010"><a xlink:title=" ">
<path fill="none" stroke="#63b8ff" d="M619.5,-55.59C619.5,-48.7 619.5,-39.1 619.5,-30.57"/>
<polygon fill="#63b8ff" stroke="#63b8ff" points="623,-30.3 619.5,-20.3 616,-30.3 623,-30.3"/>
</a>
</g>
</g>
<!-- Node11 -->
<g id="Node000011" class="node">
<title>Node11</title>
<g id="a_Node000011"><a xlink:title=" ">
<polygon fill="#e0e0e0" stroke="#999999" points="733.5,-20 683.5,-20 683.5,0 733.5,0 733.5,-20"/>
<text text-anchor="middle" x="708.5" y="-7.2" font-family="Consolas" font-size="11.00">mutex</text>
</a>
</g>
</g>
<!-- Node6&#45;&gt;Node11 -->
<g id="edge10_Node000006_Node000011" class="edge">
<title>Node6&#45;&gt;Node11</title>
<g id="a_edge10_Node000006_Node000011"><a xlink:title=" ">
<path fill="none" stroke="#63b8ff" d="M634.6,-55.84C648.36,-47.49 668.92,-35.02 684.86,-25.34"/>
<polygon fill="#63b8ff" stroke="#63b8ff" points="686.89,-28.2 693.63,-20.03 683.26,-22.22 686.89,-28.2"/>
</a>
</g>
</g>
<!-- Node12 -->
<g id="Node000012" class="node">
<title>Node12</title>
<g id="a_Node000012"><a xlink:title=" ">
<polygon fill="#e0e0e0" stroke="#999999" points="835.5,-20 751.5,-20 751.5,0 835.5,0 835.5,-20"/>
<text text-anchor="middle" x="793.5" y="-7.2" font-family="Consolas" font-size="11.00">functional</text>
</a>
</g>
</g>
<!-- Node6&#45;&gt;Node12 -->
<g id="edge11_Node000006_Node000012" class="edge">
<title>Node6&#45;&gt;Node12</title>
<g id="a_edge11_Node000006_Node000012"><a xlink:title=" ">
<path fill="none" stroke="#63b8ff" d="M648.62,-55.96C677.61,-46.97 722.27,-33.11 754.35,-23.15"/>
<polygon fill="#63b8ff" stroke="#63b8ff" points="755.77,-26.37 764.28,-20.07 753.69,-19.69 755.77,-26.37"/>
</a>
</g>
</g>
<!-- Node13 -->
<g id="Node000013" class="node">
<title>Node13</title>
<g id="a_Node000013"><a xlink:title=" ">
<polygon fill="#e0e0e0" stroke="#999999" points="911,-20 854,-20 854,0 911,0 911,-20"/>
<text text-anchor="middle" x="882.5" y="-7.2" font-family="Consolas" font-size="11.00">memory</text>
</a>
</g>
</g>
<!-- Node6&#45;&gt;Node13 -->
<g id="edge12_Node000006_Node000013" class="edge">
<title>Node6&#45;&gt;Node13</title>
<g id="a_edge12_Node000006_Node000013"><a xlink:title=" ">
<path fill="none" stroke="#63b8ff" d="M658.21,-57.69C701.09,-49.49 772.53,-35.56 843.83,-20.08"/>
<polygon fill="#63b8ff" stroke="#63b8ff" points="844.87,-23.44 853.89,-17.89 843.37,-16.6 844.87,-23.44"/>
</a>
</g>
</g>
<!-- Node14&#45;&gt;Node5 -->
<g id="edge15_Node000014_Node000005" class="edge">
<title>Node14&#45;&gt;Node5</title>
<g id="a_edge15_Node000014_Node000005"><a xlink:title=" ">
<path fill="none" stroke="#63b8ff" d="M307.49,-235.95C288.74,-220.75 256.51,-189.64 275.5,-168 284.8,-157.41 464.4,-138.25 560.3,-128.71"/>
<polygon fill="#63b8ff" stroke="#63b8ff" points="560.83,-132.18 570.44,-127.71 560.14,-125.21 560.83,-132.18"/>
</a>
</g>
</g>
<!-- Node15 -->
<g id="Node000015" class="node">
<title>Node15</title>
<g id="a_Node000015"><a xlink:title=" ">
<polygon fill="#e0e0e0" stroke="#999999" points="342,-194 285,-194 285,-174 342,-174 342,-194"/>
<text text-anchor="middle" x="313.5" y="-181.2" font-family="Consolas" font-size="11.00">future</text>
</a>
</g>
</g>
<!-- Node14&#45;&gt;Node15 -->
<g id="edge14_Node000014_Node000015" class="edge">
<title>Node14&#45;&gt;Node15</title>
<g id="a_edge14_Node000014_Node000015"><a xlink:title=" ">
<path fill="none" stroke="#63b8ff" d="M318.59,-235.89C317.75,-227.52 316.48,-214.84 315.42,-204.23"/>
<polygon fill="#63b8ff" stroke="#63b8ff" points="318.9,-203.8 314.42,-194.2 311.93,-204.5 318.9,-203.8"/>
</a>
</g>
</g>
<!-- Node16 -->
<g id="Node000016" class="node">
<title>Node16</title>
<g id="a_Node000016"><a xlink:href="../../d4/ddd/container_8h.html" target="_top" xlink:title=" ">
<polygon fill="white" stroke="#666666" points="190,-194 45,-194 45,-174 190,-174 190,-194"/>
<text text-anchor="middle" x="117.5" y="-181.2" font-family="Consolas" font-size="11.00">Toolbox/container.h</text>
</a>
</g>
</g>
<!-- Node14&#45;&gt;Node16 -->
<g id="edge16_Node000014_Node000016" class="edge">
<title>Node14&#45;&gt;Node16</title>
<g id="a_edge16_Node000014_Node000016"><a xlink:title=" ">
<path fill="none" stroke="#63b8ff" d="M288.82,-235.89C253.77,-225.47 196.27,-208.4 157.67,-196.93"/>
<polygon fill="#63b8ff" stroke="#63b8ff" points="158.39,-193.49 147.81,-194 156.4,-200.2 158.39,-193.49"/>
</a>
</g>
</g>
<!-- Node16&#45;&gt;Node6 -->
<g id="edge17_Node000016_Node000006" class="edge">
<title>Node16&#45;&gt;Node6</title>
<g id="a_edge17_Node000016_Node000006"><a xlink:title=" ">
<path fill="none" stroke="#63b8ff" d="M158.72,-173.95C204.42,-163.87 280.28,-147.03 345.5,-132 425.11,-113.65 517.53,-91.56 572.12,-78.43"/>
<polygon fill="#63b8ff" stroke="#63b8ff" points="572.96,-81.83 581.86,-76.09 571.32,-75.03 572.96,-81.83"/>
</a>
</g>
</g>
<!-- Node17 -->
<g id="Node000017" class="node">
<title>Node17</title>
<g id="a_Node000017"><a xlink:title=" ">
<polygon fill="#e0e0e0" stroke="#999999" points="37,-132 0,-132 0,-112 37,-112 37,-132"/>
<text text-anchor="middle" x="18.5" y="-119.2" font-family="Consolas" font-size="11.00">set</text>
</a>
</g>
</g>
<!-- Node16&#45;&gt;Node17 -->
<g id="edge18_Node000016_Node000017" class="edge">
<title>Node16&#45;&gt;Node17</title>
<g id="a_edge18_Node000016_Node000017"><a xlink:title=" ">
<path fill="none" stroke="#63b8ff" d="M102.46,-173.89C86.38,-164.14 60.66,-148.55 41.92,-137.19"/>
<polygon fill="#63b8ff" stroke="#63b8ff" points="43.72,-134.19 33.35,-132 40.09,-140.18 43.72,-134.19"/>
</a>
</g>
</g>
<!-- Node18 -->
<g id="Node000018" class="node">
<title>Node18</title>
<g id="a_Node000018"><a xlink:title=" ">
<polygon fill="#e0e0e0" stroke="#999999" points="92,-132 55,-132 55,-112 92,-112 92,-132"/>
<text text-anchor="middle" x="73.5" y="-119.2" font-family="Consolas" font-size="11.00">map</text>
</a>
</g>
</g>
<!-- Node16&#45;&gt;Node18 -->
<g id="edge19_Node000016_Node000018" class="edge">
<title>Node16&#45;&gt;Node18</title>
<g id="a_edge19_Node000016_Node000018"><a xlink:title=" ">
<path fill="none" stroke="#63b8ff" d="M110.82,-173.89C104.36,-165.08 94.4,-151.5 86.39,-140.58"/>
<polygon fill="#63b8ff" stroke="#63b8ff" points="88.98,-138.19 80.25,-132.2 83.34,-142.33 88.98,-138.19"/>
</a>
</g>
</g>
<!-- Node19 -->
<g id="Node000019" class="node">
<title>Node19</title>
<g id="a_Node000019"><a xlink:title=" ">
<polygon fill="#e0e0e0" stroke="#999999" points="214.5,-132 110.5,-132 110.5,-112 214.5,-112 214.5,-132"/>
<text text-anchor="middle" x="162.5" y="-119.2" font-family="Consolas" font-size="11.00">unordered_set</text>
</a>
</g>
</g>
<!-- Node16&#45;&gt;Node19 -->
<g id="edge20_Node000016_Node000019" class="edge">
<title>Node16&#45;&gt;Node19</title>
<g id="a_edge20_Node000016_Node000019"><a xlink:title=" ">
<path fill="none" stroke="#63b8ff" d="M124.33,-173.89C131.01,-164.99 141.33,-151.22 149.56,-140.25"/>
<polygon fill="#63b8ff" stroke="#63b8ff" points="152.4,-142.3 155.6,-132.2 146.8,-138.1 152.4,-142.3"/>
</a>
</g>
</g>
<!-- Node20 -->
<g id="Node000020" class="node">
<title>Node20</title>
<g id="a_Node000020"><a xlink:title=" ">
<polygon fill="#e0e0e0" stroke="#999999" points="336.5,-132 232.5,-132 232.5,-112 336.5,-112 336.5,-132"/>
<text text-anchor="middle" x="284.5" y="-119.2" font-family="Consolas" font-size="11.00">unordered_map</text>
</a>
</g>
</g>
<!-- Node16&#45;&gt;Node20 -->
<g id="edge21_Node000016_Node000020" class="edge">
<title>Node16&#45;&gt;Node20</title>
<g id="a_edge21_Node000016_Node000020"><a xlink:title=" ">
<path fill="none" stroke="#63b8ff" d="M142.86,-173.89C171.35,-163.65 217.76,-146.98 249.64,-135.52"/>
<polygon fill="#63b8ff" stroke="#63b8ff" points="251.22,-138.68 259.44,-132 248.85,-132.09 251.22,-138.68"/>
</a>
</g>
</g>
<!-- Node21&#45;&gt;Node15 -->
<g id="edge23_Node000021_Node000015" class="edge">
<title>Node21&#45;&gt;Node15</title>
<g id="a_edge23_Node000021_Node000015"><a xlink:title=" ">
<path fill="none" stroke="#63b8ff" d="M452.18,-235.91C425.97,-227.08 385.35,-213.13 350.5,-200 348.65,-199.3 346.76,-198.58 344.85,-197.83"/>
<polygon fill="#63b8ff" stroke="#63b8ff" points="345.93,-194.5 335.34,-194.06 343.35,-201 345.93,-194.5"/>
</a>
</g>
</g>
<!-- Node21&#45;&gt;Node16 -->
<g id="edge24_Node000021_Node000016" class="edge">
<title>Node21&#45;&gt;Node16</title>
<g id="a_edge24_Node000021_Node000016"><a xlink:title=" ">
<path fill="none" stroke="#63b8ff" d="M424.91,-235.95C359.78,-225.16 251.01,-207.13 181.85,-195.67"/>
<polygon fill="#63b8ff" stroke="#63b8ff" points="182.38,-192.21 171.94,-194.02 181.23,-199.11 182.38,-192.21"/>
</a>
</g>
</g>
<!-- Node22 -->
<g id="Node000022" class="node">
<title>Node22</title>
<g id="a_Node000022"><a xlink:href="../../d6/d94/_mapping_d_o_f_8h.html" target="_top" xlink:title=" ">
<polygon fill="white" stroke="#666666" points="695.5,-194 543.5,-194 543.5,-174 695.5,-174 695.5,-194"/>
<text text-anchor="middle" x="619.5" y="-181.2" font-family="Consolas" font-size="11.00">Element/MappingDOF.h</text>
</a>
</g>
</g>
<!-- Node21&#45;&gt;Node22 -->
<g id="edge25_Node000021_Node000022" class="edge">
<title>Node21&#45;&gt;Node22</title>
<g id="a_edge25_Node000021_Node000022"><a xlink:title=" ">
<path fill="none" stroke="#63b8ff" d="M500.76,-235.89C524.33,-225.79 562.54,-209.41 589.23,-197.97"/>
<polygon fill="#63b8ff" stroke="#63b8ff" points="590.68,-201.16 598.5,-194 587.93,-194.72 590.68,-201.16"/>
</a>
</g>
</g>
<!-- Node23 -->
<g id="Node000023" class="node">
<title>Node23</title>
<g id="a_Node000023"><a xlink:title=" ">
<polygon fill="#e0e0e0" stroke="#999999" points="525,-194 360,-194 360,-174 525,-174 525,-194"/>
<text text-anchor="middle" x="442.5" y="-181.2" font-family="Consolas" font-size="11.00">Domain/MetaMat/MetaMat</text>
</a>
</g>
</g>
<!-- Node21&#45;&gt;Node23 -->
<g id="edge27_Node000021_Node000023" class="edge">
<title>Node21&#45;&gt;Node23</title>
<g id="a_edge27_Node000021_Node000023"><a xlink:title=" ">
<path fill="none" stroke="#63b8ff" d="M473.88,-235.89C468.5,-227.17 460.24,-213.77 453.54,-202.91"/>
<polygon fill="#63b8ff" stroke="#63b8ff" points="456.4,-200.87 448.17,-194.2 450.44,-204.55 456.4,-200.87"/>
</a>
</g>
</g>
<!-- Node22&#45;&gt;Node5 -->
<g id="edge26_Node000022_Node000005" class="edge">
<title>Node22&#45;&gt;Node5</title>
<g id="a_edge26_Node000022_Node000005"><a xlink:title=" ">
<path fill="none" stroke="#63b8ff" d="M619.5,-173.89C619.5,-165.52 619.5,-152.84 619.5,-142.23"/>
<polygon fill="#63b8ff" stroke="#63b8ff" points="623,-142.2 619.5,-132.2 616,-142.2 623,-142.2"/>
</a>
</g>
</g>
<!-- Node25 -->
<g id="Node000025" class="node">
<title>Node25</title>
<g id="a_Node000025"><a xlink:href="../../d1/d48/_distributed_8h.html" target="_top" xlink:title=" ">
<polygon fill="white" stroke="#666666" points="1202.5,-256 1044.5,-256 1044.5,-236 1202.5,-236 1202.5,-256"/>
<text text-anchor="middle" x="1123.5" y="-243.2" font-family="Consolas" font-size="11.00">Element/Distributed.h</text>
</a>
</g>
</g>
<!-- Node24&#45;&gt;Node25 -->
<g id="edge29_Node000024_Node000025" class="edge">
<title>Node24&#45;&gt;Node25</title>
<g id="a_edge29_Node000024_Node000025"><a xlink:title=" ">
<path fill="none" stroke="#63b8ff" d="M789.1,-292.14C859.59,-282.63 971.54,-267.51 1046.24,-257.43"/>
<polygon fill="#63b8ff" stroke="#63b8ff" points="1047.08,-260.85 1056.53,-256.04 1046.15,-253.91 1047.08,-260.85"/>
</a>
</g>
</g>
<!-- Node26 -->
<g id="Node000026" class="node">
<title>Node26</title>
<g id="a_Node000026"><a xlink:href="../../d9/d82/_element_base_8h.html" target="_top" xlink:title=" ">
<polygon fill="white" stroke="#666666" points="802.5,-256 644.5,-256 644.5,-236 802.5,-236 802.5,-256"/>
<text text-anchor="middle" x="723.5" y="-243.2" font-family="Consolas" font-size="11.00">Element/ElementBase.h</text>
</a>
</g>
</g>
<!-- Node24&#45;&gt;Node26 -->
<g id="edge31_Node000024_Node000026" class="edge">
<title>Node24&#45;&gt;Node26</title>
<g id="a_edge31_Node000024_Node000026"><a xlink:title=" ">
<path fill="none" stroke="#63b8ff" d="M723.5,-291.59C723.5,-284.7 723.5,-275.1 723.5,-266.57"/>
<polygon fill="#63b8ff" stroke="#63b8ff" points="727,-266.3 723.5,-256.3 720,-266.3 727,-266.3"/>
</a>
</g>
</g>
<!-- Node25&#45;&gt;Node6 -->
<g id="edge30_Node000025_Node000006" class="edge">
<title>Node25&#45;&gt;Node6</title>
<g id="a_edge30_Node000025_Node000006"><a xlink:title=" ">
<path fill="none" stroke="#63b8ff" d="M1130.3,-235.81C1141.01,-220.13 1158.98,-187.96 1142.5,-168 1082.5,-95.31 786.44,-74.34 668.3,-68.82"/>
<polygon fill="#63b8ff" stroke="#63b8ff" points="668.25,-65.31 658.1,-68.36 667.94,-72.3 668.25,-65.31"/>
</a>
</g>
</g>
<!-- Node26&#45;&gt;Node5 -->
<g id="edge32_Node000026_Node000005" class="edge">
<title>Node26&#45;&gt;Node5</title>
<g id="a_edge32_Node000026_Node000005"><a xlink:title=" ">
<path fill="none" stroke="#63b8ff" d="M723.56,-235.91C723.21,-220.37 720.43,-188.4 704.5,-168 693.08,-153.37 675.54,-142.96 659.36,-135.86"/>
<polygon fill="#63b8ff" stroke="#63b8ff" points="660.63,-132.6 650.05,-132.06 657.98,-139.08 660.63,-132.6"/>
</a>
</g>
</g>
<!-- Node26&#45;&gt;Node22 -->
<g id="edge34_Node000026_Node000022" class="edge">
<title>Node26&#45;&gt;Node22</title>
<g id="a_edge34_Node000026_Node000022"><a xlink:title=" ">
<path fill="none" stroke="#63b8ff" d="M707.7,-235.89C690.73,-226.1 663.54,-210.41 643.83,-199.04"/>
<polygon fill="#63b8ff" stroke="#63b8ff" points="645.51,-195.97 635.1,-194 642.02,-202.03 645.51,-195.97"/>
</a>
</g>
</g>
<!-- Node27 -->
<g id="Node000027" class="node">
<title>Node27</title>
<g id="a_Node000027"><a xlink:href="../../d9/dc0/vtk_base_8h.html" target="_top" xlink:title=" ">
<polygon fill="white" stroke="#666666" points="909.5,-200 751.5,-200 751.5,-168 909.5,-168 909.5,-200"/>
<text text-anchor="start" x="759.5" y="-187.2" font-family="Consolas" font-size="11.00">Element/Visualisation</text>
<text text-anchor="middle" x="830.5" y="-175.2" font-family="Consolas" font-size="11.00">/vtkBase.h</text>
</a>
</g>
</g>
<!-- Node26&#45;&gt;Node27 -->
<g id="edge33_Node000026_Node000027" class="edge">
<title>Node26&#45;&gt;Node27</title>
<g id="a_edge33_Node000026_Node000027"><a xlink:title=" ">
<path fill="none" stroke="#63b8ff" d="M739.75,-235.89C754.32,-227.72 776.21,-215.44 794.84,-205"/>
<polygon fill="#63b8ff" stroke="#63b8ff" points="796.66,-207.99 803.67,-200.04 793.24,-201.88 796.66,-207.99"/>
</a>
</g>
</g>
<!-- Node28&#45;&gt;Node5 -->
<g id="edge36_Node000028_Node000005" class="edge">
<title>Node28&#45;&gt;Node5</title>
<g id="a_edge36_Node000028_Node000005"><a xlink:title=" ">
<path fill="none" stroke="#63b8ff" d="M241.52,-291.83C236.74,-266.82 227.62,-197.39 266.5,-168 311.48,-134 471.76,-125.61 560.07,-123.59"/>
<polygon fill="#63b8ff" stroke="#63b8ff" points="560.28,-127.09 570.21,-123.38 560.14,-120.09 560.28,-127.09"/>
</a>
</g>
</g>
</g>
</svg>

<g id="navigator" transform="translate(0 0)" fill="#404254">
  <rect fill="#f2f5e9" fill-opacity="0.5" stroke="#606060" stroke-width=".5" x="0" y="0" width="60" height="60"/>
  <use id="zoomplus" xlink:href="#zoomPlus" x="17" y="9" onmousedown="handleZoom(evt,'in')"/>
  <use id="zoomminus" xlink:href="#zoomMin" x="42" y="9" onmousedown="handleZoom(evt,'out')"/>
  <use id="reset" xlink:href="#resetDef" x="30" y="36" onmousedown="handleReset()"/>
   <use id="arrowup" xlink:href="#arrowUp" x="0" y="0" onmousedown="handlePan(0,-1)"/>
  <use id="arrowright" xlink:href="#arrowRight" x="0" y="0" onmousedown="handlePan(1,0)"/>
  <use id="arrowdown" xlink:href="#arrowDown" x="0" y="0" onmousedown="handlePan(0,1)"/>
  <use id="arrowleft" xlink:href="#arrowLeft" x="0" y="0" onmousedown="handlePan(-1,0)"/>
</g>
<svg viewBox="0 0 15 15" width="100%" height="30px" preserveAspectRatio="xMaxYMin meet">
 <g id="arrow_out" transform="scale(0.3 0.3)">
  <a xlink:href="_body_force_8cpp__incl_org.svg" target="_base">
   <rect id="button" ry="5" rx="5" y="6" x="6" height="38" width="38"
        fill="#f2f5e9" fill-opacity="0.5" stroke="#606060" stroke-width="1.0"/>
   <path id="arrow"
     d="M 11.500037,31.436501 C 11.940474,20.09759 22.043105,11.32322 32.158766,21.979434 L 37.068811,17.246167 C 37.068811,17.246167 37.088388,32 37.088388,32 L 22.160133,31.978069 C 22.160133,31.978069 26.997745,27.140456 26.997745,27.140456 C 18.528582,18.264221 13.291696,25.230495 11.500037,31.436501 z"
     style="fill:#404040;"/>
  </a>
 </g>
</svg>

<style type='text/css'>
<![CDATA[
[data-mouse-over-selected='false'] { opacity: 0.7; }
[data-mouse-over-selected='true']  { opacity: 1.0; }
]]>
</style>
<script type="application/ecmascript"><![CDATA[
document.addEventListener('DOMContentLoaded', (event) => {
  highlightEdges();
  highlightAdjacentNodes();
});
]]></script>
</svg>
