<?xml version="1.0" encoding="UTF-8" standalone="no"?>
<!DOCTYPE svg PUBLIC "-//W3C//DTD SVG 1.1//EN"
 "http://www.w3.org/Graphics/SVG/1.1/DTD/svg11.dtd">
<!-- Generated by graphviz version 2.43.0 (0)
 -->
<!-- Title: RigidWallMultiplier Pages: 1 -->
<svg width="1300pt" height="1490pt"
 viewBox="0.00 0.00 1300.00 1490.00" xmlns="http://www.w3.org/2000/svg" xmlns:xlink="http://www.w3.org/1999/xlink">
<g id="graph0" class="graph" transform="scale(1 1) rotate(0) translate(4 1486)">
<title>RigidWallMultiplier</title>
<!-- Node1 -->
<g id="Node000001" class="node">
<title>Node1</title>
<g id="a_Node000001"><a xlink:title="A RigidWallMultiplier class.">
<polygon fill="#999999" stroke="transparent" points="947.5,-100 806.5,-100 806.5,0 947.5,0 947.5,-100"/>
<text text-anchor="start" x="813" y="-87.2" font-family="Consolas" font-size="11.00">RigidWallMultiplier</text>
<text text-anchor="start" x="874" y="-71.2" font-family="Consolas" font-size="11.00"> </text>
<text text-anchor="start" x="811" y="-55.2" font-family="Consolas" font-size="11.00">+</text>
<text text-anchor="start" x="822" y="-55.2" font-family="Consolas" font-size="11.00">initialize()</text>
<text text-anchor="start" x="811" y="-39.2" font-family="Consolas" font-size="11.00">+</text>
<text text-anchor="start" x="822" y="-39.2" font-family="Consolas" font-size="11.00">process()</text>
<text text-anchor="start" x="811" y="-23.2" font-family="Consolas" font-size="11.00">+</text>
<text text-anchor="start" x="822" y="-23.2" font-family="Consolas" font-size="11.00">RigidWallPenalty()</text>
<text text-anchor="start" x="811" y="-7.2" font-family="Consolas" font-size="11.00">+</text>
<text text-anchor="start" x="822" y="-7.2" font-family="Consolas" font-size="11.00">RigidWallPenalty()</text>
<polygon fill="#666666" stroke="#666666" points="807,-82 807,-82 948,-82 948,-82 807,-82"/>
<polygon fill="#666666" stroke="#666666" points="807,-66 807,-66 948,-66 948,-66 807,-66"/>
<polygon fill="none" stroke="#666666" points="806.5,0 806.5,-100 947.5,-100 947.5,0 806.5,0"/>
</a>
</g>
</g>
<!-- Node2 -->
<g id="Node000002" class="node">
<title>Node2</title>
<g id="a_Node000002"><a xlink:href="../../de/d24/class_rigid_wall_penalty.html" target="_top" xlink:title="A RigidWall class.">
<polygon fill="white" stroke="transparent" points="947.5,-285 806.5,-285 806.5,-137 947.5,-137 947.5,-285"/>
<text text-anchor="start" x="823" y="-272.2" font-family="Consolas" font-size="11.00">RigidWallPenalty</text>
<text text-anchor="start" x="874" y="-256.2" font-family="Consolas" font-size="11.00"> </text>
<text text-anchor="start" x="811" y="-240.2" font-family="Consolas" font-size="11.00">+</text>
<text text-anchor="start" x="822" y="-240.2" font-family="Consolas" font-size="11.00">RigidWallPenalty()</text>
<text text-anchor="start" x="811" y="-224.2" font-family="Consolas" font-size="11.00">+</text>
<text text-anchor="start" x="822" y="-224.2" font-family="Consolas" font-size="11.00">RigidWallPenalty()</text>
<text text-anchor="start" x="811" y="-208.2" font-family="Consolas" font-size="11.00">+</text>
<text text-anchor="start" x="822" y="-208.2" font-family="Consolas" font-size="11.00">process()</text>
<text text-anchor="start" x="811" y="-192.2" font-family="Consolas" font-size="11.00">+</text>
<text text-anchor="start" x="822" y="-192.2" font-family="Consolas" font-size="11.00">commit_status()</text>
<text text-anchor="start" x="811" y="-176.2" font-family="Consolas" font-size="11.00">+</text>
<text text-anchor="start" x="822" y="-176.2" font-family="Consolas" font-size="11.00">clear_status()</text>
<text text-anchor="start" x="811" y="-160.2" font-family="Consolas" font-size="11.00">+</text>
<text text-anchor="start" x="822" y="-160.2" font-family="Consolas" font-size="11.00">reset_status()</text>
<text text-anchor="start" x="811" y="-144.2" font-family="Consolas" font-size="11.00">#</text>
<text text-anchor="start" x="822" y="-144.2" font-family="Consolas" font-size="11.00">set_handler()</text>
<polygon fill="#666666" stroke="#666666" points="807,-267 807,-267 948,-267 948,-267 807,-267"/>
<polygon fill="#666666" stroke="#666666" points="807,-251 807,-251 948,-251 948,-251 807,-251"/>
<polygon fill="none" stroke="#666666" points="806.5,-137 806.5,-285 947.5,-285 947.5,-137 806.5,-137"/>
</a>
</g>
</g>
<!-- Node2&#45;&gt;Node1 -->
<g id="edge1_Node000001_Node000002" class="edge">
<title>Node2&#45;&gt;Node1</title>
<g id="a_edge1_Node000001_Node000002"><a xlink:title=" ">
<path fill="none" stroke="#63b8ff" d="M877,-126.39C877,-117.39 877,-108.46 877,-100.06"/>
<polygon fill="none" stroke="#63b8ff" points="873.5,-126.55 877,-136.55 880.5,-126.55 873.5,-126.55"/>
</a>
</g>
</g>
<!-- Node3 -->
<g id="Node000003" class="node">
<title>Node3</title>
<g id="a_Node000003"><a xlink:href="../../d8/d71/class_constraint.html" target="_top" xlink:title="A Constraint class.">
<polygon fill="white" stroke="transparent" points="576.5,-593 381.5,-593 381.5,-429 576.5,-429 576.5,-593"/>
<text text-anchor="start" x="445.5" y="-580.2" font-family="Consolas" font-size="11.00">Constraint</text>
<text text-anchor="start" x="476" y="-564.2" font-family="Consolas" font-size="11.00"> </text>
<text text-anchor="start" x="386" y="-548.2" font-family="Consolas" font-size="11.00">+</text>
<text text-anchor="start" x="397" y="-548.2" font-family="Consolas" font-size="11.00">Constraint()</text>
<text text-anchor="start" x="386" y="-532.2" font-family="Consolas" font-size="11.00">+</text>
<text text-anchor="start" x="397" y="-532.2" font-family="Consolas" font-size="11.00">get_resistance()</text>
<text text-anchor="start" x="386" y="-516.2" font-family="Consolas" font-size="11.00">+</text>
<text text-anchor="start" x="397" y="-516.2" font-family="Consolas" font-size="11.00">get_stiffness()</text>
<text text-anchor="start" x="386" y="-500.2" font-family="Consolas" font-size="11.00">+</text>
<text text-anchor="start" x="397" y="-500.2" font-family="Consolas" font-size="11.00">get_auxiliary_resistance()</text>
<text text-anchor="start" x="386" y="-484.2" font-family="Consolas" font-size="11.00">+</text>
<text text-anchor="start" x="397" y="-484.2" font-family="Consolas" font-size="11.00">get_auxiliary_load()</text>
<text text-anchor="start" x="386" y="-468.2" font-family="Consolas" font-size="11.00">+</text>
<text text-anchor="start" x="397" y="-468.2" font-family="Consolas" font-size="11.00">get_auxiliary_stiffness()</text>
<text text-anchor="start" x="386" y="-452.2" font-family="Consolas" font-size="11.00">+</text>
<text text-anchor="start" x="397" y="-452.2" font-family="Consolas" font-size="11.00">set_multiplier_size()</text>
<text text-anchor="start" x="386" y="-436.2" font-family="Consolas" font-size="11.00">+</text>
<text text-anchor="start" x="397" y="-436.2" font-family="Consolas" font-size="11.00">get_multiplier_size()</text>
<polygon fill="#666666" stroke="#666666" points="382,-575 382,-575 577,-575 577,-575 382,-575"/>
<polygon fill="#666666" stroke="#666666" points="382,-559 382,-559 577,-559 577,-559 382,-559"/>
<polygon fill="none" stroke="#666666" points="381.5,-429 381.5,-593 576.5,-593 576.5,-429 381.5,-429"/>
</a>
</g>
</g>
<!-- Node3&#45;&gt;Node2 -->
<g id="edge2_Node000002_Node000003" class="edge">
<title>Node3&#45;&gt;Node2</title>
<g id="a_edge2_Node000002_Node000003"><a xlink:title=" ">
<path fill="none" stroke="#63b8ff" d="M584.63,-430.91C654.72,-378.43 744.79,-310.99 806.32,-264.92"/>
<polygon fill="none" stroke="#63b8ff" points="582.52,-428.11 576.62,-436.91 586.72,-433.72 582.52,-428.11"/>
</a>
</g>
</g>
<!-- Node4 -->
<g id="Node000004" class="node">
<title>Node4</title>
<g id="a_Node000004"><a xlink:href="../../da/d44/class_conditional_modifier.html" target="_top" xlink:title="A ConditionalModifier class.">
<polygon fill="white" stroke="transparent" points="370,-933 202,-933 202,-677 370,-677 370,-933"/>
<text text-anchor="start" x="221.5" y="-920.2" font-family="Consolas" font-size="11.00">ConditionalModifier</text>
<text text-anchor="start" x="282.5" y="-904.2" font-family="Consolas" font-size="11.00"> </text>
<text text-anchor="start" x="206" y="-888.2" font-family="Consolas" font-size="11.00">+</text>
<text text-anchor="start" x="217" y="-888.2" font-family="Consolas" font-size="11.00">ConditionalModifier()</text>
<text text-anchor="start" x="206" y="-872.2" font-family="Consolas" font-size="11.00">+</text>
<text text-anchor="start" x="217" y="-872.2" font-family="Consolas" font-size="11.00">initialize()</text>
<text text-anchor="start" x="206" y="-856.2" font-family="Consolas" font-size="11.00">+</text>
<text text-anchor="start" x="217" y="-856.2" font-family="Consolas" font-size="11.00">process()</text>
<text text-anchor="start" x="206" y="-840.2" font-family="Consolas" font-size="11.00">+</text>
<text text-anchor="start" x="217" y="-840.2" font-family="Consolas" font-size="11.00">process_resistance()</text>
<text text-anchor="start" x="206" y="-824.2" font-family="Consolas" font-size="11.00">+</text>
<text text-anchor="start" x="217" y="-824.2" font-family="Consolas" font-size="11.00">stage()</text>
<text text-anchor="start" x="206" y="-808.2" font-family="Consolas" font-size="11.00">+</text>
<text text-anchor="start" x="217" y="-808.2" font-family="Consolas" font-size="11.00">get_node_encoding()</text>
<text text-anchor="start" x="206" y="-792.2" font-family="Consolas" font-size="11.00">+</text>
<text text-anchor="start" x="217" y="-792.2" font-family="Consolas" font-size="11.00">get_dof_encoding()</text>
<text text-anchor="start" x="206" y="-776.2" font-family="Consolas" font-size="11.00">+</text>
<text text-anchor="start" x="217" y="-776.2" font-family="Consolas" font-size="11.00">set_initialized()</text>
<text text-anchor="start" x="206" y="-760.2" font-family="Consolas" font-size="11.00">+</text>
<text text-anchor="start" x="217" y="-760.2" font-family="Consolas" font-size="11.00">is_initialized()</text>
<text text-anchor="start" x="206" y="-744.2" font-family="Consolas" font-size="11.00">+</text>
<text text-anchor="start" x="217" y="-744.2" font-family="Consolas" font-size="11.00">set_start_step()</text>
<text text-anchor="start" x="217" y="-728.2" font-family="Consolas" font-size="11.00">and 10 more...</text>
<text text-anchor="start" x="206" y="-712.2" font-family="Consolas" font-size="11.00">#</text>
<text text-anchor="start" x="217" y="-712.2" font-family="Consolas" font-size="11.00">get_nodal_active_dof()</text>
<text text-anchor="start" x="206" y="-696.2" font-family="Consolas" font-size="11.00">#</text>
<text text-anchor="start" x="217" y="-696.2" font-family="Consolas" font-size="11.00">get_all_nodal_active</text>
<text text-anchor="start" x="217" y="-684.2" font-family="Consolas" font-size="11.00">_dof()</text>
<polygon fill="#666666" stroke="#666666" points="202,-915 202,-915 370,-915 370,-915 202,-915"/>
<polygon fill="#666666" stroke="#666666" points="202,-899 202,-899 370,-899 370,-899 202,-899"/>
<polygon fill="none" stroke="#666666" points="202,-677 202,-933 370,-933 370,-677 202,-677"/>
</a>
</g>
</g>
<!-- Node4&#45;&gt;Node3 -->
<g id="edge3_Node000003_Node000004" class="edge">
<title>Node4&#45;&gt;Node3</title>
<g id="a_edge3_Node000003_Node000004"><a xlink:title=" ">
<path fill="none" stroke="#63b8ff" d="M346.09,-667.78C356.73,-648.12 368.46,-628.61 381,-611 385.28,-604.99 389.93,-599.01 394.8,-593.13"/>
<polygon fill="none" stroke="#63b8ff" points="342.89,-666.34 341.28,-676.81 349.07,-669.63 342.89,-666.34"/>
</a>
</g>
</g>
<!-- Node5 -->
<g id="Node000005" class="node">
<title>Node5</title>
<g id="a_Node000005"><a xlink:href="../../db/db8/class_unique_tag.html" target="_top" xlink:title=" ">
<polygon fill="white" stroke="transparent" points="341.5,-1169 240.5,-1169 240.5,-1005 341.5,-1005 341.5,-1169"/>
<text text-anchor="start" x="261" y="-1156.2" font-family="Consolas" font-size="11.00">UniqueTag</text>
<text text-anchor="start" x="288" y="-1140.2" font-family="Consolas" font-size="11.00"> </text>
<text text-anchor="start" x="245" y="-1124.2" font-family="Consolas" font-size="11.00">+</text>
<text text-anchor="start" x="256" y="-1124.2" font-family="Consolas" font-size="11.00">UniqueTag()</text>
<text text-anchor="start" x="245" y="-1108.2" font-family="Consolas" font-size="11.00">+</text>
<text text-anchor="start" x="256" y="-1108.2" font-family="Consolas" font-size="11.00">UniqueTag()</text>
<text text-anchor="start" x="245" y="-1092.2" font-family="Consolas" font-size="11.00">+</text>
<text text-anchor="start" x="256" y="-1092.2" font-family="Consolas" font-size="11.00">operator=()</text>
<text text-anchor="start" x="245" y="-1076.2" font-family="Consolas" font-size="11.00">+</text>
<text text-anchor="start" x="256" y="-1076.2" font-family="Consolas" font-size="11.00">operator=()</text>
<text text-anchor="start" x="245" y="-1060.2" font-family="Consolas" font-size="11.00">+</text>
<text text-anchor="start" x="256" y="-1060.2" font-family="Consolas" font-size="11.00">~UniqueTag()</text>
<text text-anchor="start" x="245" y="-1044.2" font-family="Consolas" font-size="11.00">+</text>
<text text-anchor="start" x="256" y="-1044.2" font-family="Consolas" font-size="11.00">Tag()</text>
<text text-anchor="start" x="245" y="-1028.2" font-family="Consolas" font-size="11.00">+</text>
<text text-anchor="start" x="256" y="-1028.2" font-family="Consolas" font-size="11.00">Tag()</text>
<text text-anchor="start" x="245" y="-1012.2" font-family="Consolas" font-size="11.00">+</text>
<text text-anchor="start" x="256" y="-1012.2" font-family="Consolas" font-size="11.00">Tag()</text>
<polygon fill="#666666" stroke="#666666" points="241,-1151 241,-1151 342,-1151 342,-1151 241,-1151"/>
<polygon fill="#666666" stroke="#666666" points="241,-1135 241,-1135 342,-1135 342,-1135 241,-1135"/>
<polygon fill="none" stroke="#666666" points="240.5,-1005 240.5,-1169 341.5,-1169 341.5,-1005 240.5,-1005"/>
</a>
</g>
</g>
<!-- Node5&#45;&gt;Node4 -->
<g id="edge4_Node000004_Node000005" class="edge">
<title>Node5&#45;&gt;Node4</title>
<g id="a_edge4_Node000004_Node000005"><a xlink:title=" ">
<path fill="none" stroke="#63b8ff" d="M289.37,-994.53C289.02,-974.92 288.64,-953.87 288.27,-933.19"/>
<polygon fill="none" stroke="#63b8ff" points="285.87,-994.7 289.55,-1004.64 292.87,-994.58 285.87,-994.7"/>
</a>
</g>
</g>
<!-- Node6 -->
<g id="Node000006" class="node">
<title>Node6</title>
<g id="a_Node000006"><a xlink:href="../../d0/d57/class_tag.html" target="_top" xlink:title="A base Tag class.">
<polygon fill="white" stroke="transparent" points="341.5,-1482 240.5,-1482 240.5,-1206 341.5,-1206 341.5,-1482"/>
<text text-anchor="start" x="281" y="-1469.2" font-family="Consolas" font-size="11.00">Tag</text>
<text text-anchor="start" x="288" y="-1453.2" font-family="Consolas" font-size="11.00"> </text>
<text text-anchor="start" x="245" y="-1437.2" font-family="Consolas" font-size="11.00">+</text>
<text text-anchor="start" x="256" y="-1437.2" font-family="Consolas" font-size="11.00">Tag()</text>
<text text-anchor="start" x="245" y="-1421.2" font-family="Consolas" font-size="11.00">+</text>
<text text-anchor="start" x="256" y="-1421.2" font-family="Consolas" font-size="11.00">Tag()</text>
<text text-anchor="start" x="245" y="-1405.2" font-family="Consolas" font-size="11.00">+</text>
<text text-anchor="start" x="256" y="-1405.2" font-family="Consolas" font-size="11.00">Tag()</text>
<text text-anchor="start" x="245" y="-1389.2" font-family="Consolas" font-size="11.00">+</text>
<text text-anchor="start" x="256" y="-1389.2" font-family="Consolas" font-size="11.00">operator=()</text>
<text text-anchor="start" x="245" y="-1373.2" font-family="Consolas" font-size="11.00">+</text>
<text text-anchor="start" x="256" y="-1373.2" font-family="Consolas" font-size="11.00">operator=()</text>
<text text-anchor="start" x="245" y="-1357.2" font-family="Consolas" font-size="11.00">+</text>
<text text-anchor="start" x="256" y="-1357.2" font-family="Consolas" font-size="11.00">~Tag()</text>
<text text-anchor="start" x="245" y="-1341.2" font-family="Consolas" font-size="11.00">+</text>
<text text-anchor="start" x="256" y="-1341.2" font-family="Consolas" font-size="11.00">set_tag()</text>
<text text-anchor="start" x="245" y="-1325.2" font-family="Consolas" font-size="11.00">+</text>
<text text-anchor="start" x="256" y="-1325.2" font-family="Consolas" font-size="11.00">get_tag()</text>
<text text-anchor="start" x="245" y="-1309.2" font-family="Consolas" font-size="11.00">+</text>
<text text-anchor="start" x="256" y="-1309.2" font-family="Consolas" font-size="11.00">enable()</text>
<text text-anchor="start" x="245" y="-1293.2" font-family="Consolas" font-size="11.00">+</text>
<text text-anchor="start" x="256" y="-1293.2" font-family="Consolas" font-size="11.00">disable()</text>
<text text-anchor="start" x="245" y="-1277.2" font-family="Consolas" font-size="11.00">+</text>
<text text-anchor="start" x="256" y="-1277.2" font-family="Consolas" font-size="11.00">guard()</text>
<text text-anchor="start" x="245" y="-1261.2" font-family="Consolas" font-size="11.00">+</text>
<text text-anchor="start" x="256" y="-1261.2" font-family="Consolas" font-size="11.00">unguard()</text>
<text text-anchor="start" x="245" y="-1245.2" font-family="Consolas" font-size="11.00">+</text>
<text text-anchor="start" x="256" y="-1245.2" font-family="Consolas" font-size="11.00">is_active()</text>
<text text-anchor="start" x="245" y="-1229.2" font-family="Consolas" font-size="11.00">+</text>
<text text-anchor="start" x="256" y="-1229.2" font-family="Consolas" font-size="11.00">is_guarded()</text>
<text text-anchor="start" x="245" y="-1213.2" font-family="Consolas" font-size="11.00">+</text>
<text text-anchor="start" x="256" y="-1213.2" font-family="Consolas" font-size="11.00">print()</text>
<polygon fill="#666666" stroke="#666666" points="241,-1464 241,-1464 342,-1464 342,-1464 241,-1464"/>
<polygon fill="#666666" stroke="#666666" points="241,-1448 241,-1448 342,-1448 342,-1448 241,-1448"/>
<polygon fill="none" stroke="#666666" points="240.5,-1206 240.5,-1482 341.5,-1482 341.5,-1206 240.5,-1206"/>
</a>
</g>
</g>
<!-- Node6&#45;&gt;Node5 -->
<g id="edge5_Node000005_Node000006" class="edge">
<title>Node6&#45;&gt;Node5</title>
<g id="a_edge5_Node000005_Node000006"><a xlink:title=" ">
<path fill="none" stroke="#63b8ff" d="M291,-1195.58C291,-1186.58 291,-1177.71 291,-1169.17"/>
<polygon fill="none" stroke="#63b8ff" points="287.5,-1195.8 291,-1205.8 294.5,-1195.8 287.5,-1195.8"/>
</a>
</g>
</g>
<!-- Node7 -->
<g id="Node000007" class="node">
<title>Node7</title>
<g id="a_Node000007"><a xlink:title=" ">
<polygon fill="white" stroke="transparent" points="438,-1113 360,-1113 360,-1061 438,-1061 438,-1113"/>
<text text-anchor="start" x="365" y="-1100.2" font-family="Consolas" font-size="11.00">const bool</text>
<text text-anchor="start" x="395.5" y="-1084.2" font-family="Consolas" font-size="11.00"> </text>
<text text-anchor="start" x="395.5" y="-1068.2" font-family="Consolas" font-size="11.00"> </text>
<polygon fill="#666666" stroke="#666666" points="360,-1095 360,-1095 438,-1095 438,-1095 360,-1095"/>
<polygon fill="#666666" stroke="#666666" points="360,-1079 360,-1079 438,-1079 438,-1079 360,-1079"/>
<polygon fill="none" stroke="#666666" points="360,-1061 360,-1113 438,-1113 438,-1061 360,-1061"/>
</a>
</g>
</g>
<!-- Node7&#45;&gt;Node4 -->
<g id="edge6_Node000004_Node000007" class="edge">
<title>Node7&#45;&gt;Node4</title>
<g id="a_edge6_Node000004_Node000007"><a xlink:title=" ">
<path fill="none" stroke="#63b8ff" d="M388.77,-1060.66C377.9,-1033.73 359.84,-988.97 341.86,-944.42"/>
<polygon fill="none" stroke="#63b8ff" points="341.79,-944.24 335.83,-940.17 337.3,-933.11 343.25,-937.17 341.79,-944.24"/>
</a>
</g>
<text text-anchor="middle" x="397" y="-972.2" font-family="Consolas" font-size="11.00" fill="grey"> #connected</text>
<text text-anchor="middle" x="397" y="-960.2" font-family="Consolas" font-size="11.00" fill="grey">#initialized</text>
</g>
<!-- Node8 -->
<g id="Node000008" class="node">
<title>Node8</title>
<g id="a_Node000008"><a xlink:title=" ">
<polygon fill="white" stroke="transparent" points="668.5,-1113 603.5,-1113 603.5,-1061 668.5,-1061 668.5,-1113"/>
<text text-anchor="start" x="609" y="-1100.2" font-family="Consolas" font-size="11.00">unsigned</text>
<text text-anchor="start" x="633" y="-1084.2" font-family="Consolas" font-size="11.00"> </text>
<text text-anchor="start" x="633" y="-1068.2" font-family="Consolas" font-size="11.00"> </text>
<polygon fill="#666666" stroke="#666666" points="604,-1095 604,-1095 669,-1095 669,-1095 604,-1095"/>
<polygon fill="#666666" stroke="#666666" points="604,-1079 604,-1079 669,-1079 669,-1079 604,-1079"/>
<polygon fill="none" stroke="#666666" points="603.5,-1061 603.5,-1113 668.5,-1113 668.5,-1061 603.5,-1061"/>
</a>
</g>
</g>
<!-- Node8&#45;&gt;Node2 -->
<g id="edge15_Node000002_Node000008" class="edge">
<title>Node8&#45;&gt;Node2</title>
<g id="a_edge15_Node000002_Node000008"><a xlink:title=" ">
<path fill="none" stroke="#63b8ff" d="M668.59,-1064.76C706.77,-1038.26 769.45,-989.51 806,-933 892.18,-799.75 890.48,-749.78 915,-593 930.79,-492.01 913.9,-374.87 897.89,-297.43"/>
<polygon fill="none" stroke="#63b8ff" points="897.82,-297.09 892.67,-292.05 895.34,-285.35 900.49,-290.39 897.82,-297.09"/>
</a>
</g>
<text text-anchor="middle" x="935" y="-632.2" font-family="Consolas" font-size="11.00" fill="grey"> #n_dim</text>
</g>
<!-- Node8&#45;&gt;Node3 -->
<g id="edge11_Node000003_Node000008" class="edge">
<title>Node8&#45;&gt;Node3</title>
<g id="a_edge11_Node000003_Node000008"><a xlink:title=" ">
<path fill="none" stroke="#63b8ff" d="M642.68,-1060.78C660.92,-986.41 704.86,-763.62 622,-611 613.2,-594.78 600.45,-580.67 586.14,-568.57"/>
<polygon fill="none" stroke="#63b8ff" points="585.91,-568.4 578.73,-567.78 576.53,-560.91 583.72,-561.53 585.91,-568.4"/>
</a>
</g>
<text text-anchor="middle" x="705" y="-802.2" font-family="Consolas" font-size="11.00" fill="grey"> #num_size</text>
</g>
<!-- Node8&#45;&gt;Node4 -->
<g id="edge7_Node000004_Node000008" class="edge">
<title>Node8&#45;&gt;Node4</title>
<g id="a_edge7_Node000004_Node000008"><a xlink:title=" ">
<path fill="none" stroke="#63b8ff" d="M606.71,-1060.88C570.31,-1030.83 505.27,-980.87 442,-951 418.31,-939.81 405.37,-947.6 380.34,-933.61"/>
<polygon fill="none" stroke="#63b8ff" points="380.23,-933.54 373.02,-933.69 370.11,-927.1 377.32,-926.94 380.23,-933.54"/>
</a>
</g>
<text text-anchor="middle" x="556" y="-978.2" font-family="Consolas" font-size="11.00" fill="grey"> #amplitude_tag</text>
<text text-anchor="middle" x="556" y="-966.2" font-family="Consolas" font-size="11.00" fill="grey">#end_step</text>
<text text-anchor="middle" x="556" y="-954.2" font-family="Consolas" font-size="11.00" fill="grey">#start_step</text>
</g>
<!-- Node9 -->
<g id="Node000009" class="node">
<title>Node9</title>
<g id="a_Node000009"><a xlink:title=" ">
<polygon fill="white" stroke="transparent" points="38,-1113 0,-1113 0,-1061 38,-1061 38,-1113"/>
<text text-anchor="start" x="5" y="-1100.2" font-family="Consolas" font-size="11.00">uvec</text>
<text text-anchor="start" x="15.5" y="-1084.2" font-family="Consolas" font-size="11.00"> </text>
<text text-anchor="start" x="15.5" y="-1068.2" font-family="Consolas" font-size="11.00"> </text>
<polygon fill="#666666" stroke="#666666" points="0,-1095 0,-1095 38,-1095 38,-1095 0,-1095"/>
<polygon fill="#666666" stroke="#666666" points="0,-1079 0,-1079 38,-1079 38,-1079 0,-1079"/>
<polygon fill="none" stroke="#666666" points="0,-1061 0,-1113 38,-1113 38,-1061 0,-1061"/>
</a>
</g>
</g>
<!-- Node9&#45;&gt;Node4 -->
<g id="edge8_Node000004_Node000009" class="edge">
<title>Node9&#45;&gt;Node4</title>
<g id="a_edge8_Node000004_Node000009"><a xlink:title=" ">
<path fill="none" stroke="#63b8ff" d="M24.83,-1060.73C29.35,-1044.13 36.6,-1022.36 47,-1005 63.81,-976.94 68.37,-966.81 97,-951 131.88,-931.73 152.67,-952.17 191.08,-933.06"/>
<polygon fill="none" stroke="#63b8ff" points="191.4,-932.88 194.63,-926.43 201.82,-926.93 198.59,-933.38 191.4,-932.88"/>
</a>
</g>
<text text-anchor="middle" x="144.5" y="-978.2" font-family="Consolas" font-size="11.00" fill="grey"> #dof_encoding</text>
<text text-anchor="middle" x="144.5" y="-966.2" font-family="Consolas" font-size="11.00" fill="grey">#dof_reference</text>
<text text-anchor="middle" x="144.5" y="-954.2" font-family="Consolas" font-size="11.00" fill="grey">#node_encoding</text>
</g>
<!-- Node10 -->
<g id="Node000010" class="node">
<title>Node10</title>
<g id="a_Node000010"><a xlink:title=" ">
<polygon fill="white" stroke="transparent" points="222,-1113 56,-1113 56,-1061 222,-1061 222,-1113"/>
<text text-anchor="start" x="61" y="-1100.2" font-family="Consolas" font-size="11.00">shared_ptr&lt; Amplitude &gt;</text>
<text text-anchor="start" x="135.5" y="-1084.2" font-family="Consolas" font-size="11.00"> </text>
<text text-anchor="start" x="135.5" y="-1068.2" font-family="Consolas" font-size="11.00"> </text>
<polygon fill="#666666" stroke="#666666" points="56,-1095 56,-1095 222,-1095 222,-1095 56,-1095"/>
<polygon fill="#666666" stroke="#666666" points="56,-1079 56,-1079 222,-1079 222,-1079 56,-1079"/>
<polygon fill="none" stroke="#666666" points="56,-1061 56,-1113 222,-1113 222,-1061 56,-1061"/>
</a>
</g>
</g>
<!-- Node10&#45;&gt;Node4 -->
<g id="edge9_Node000004_Node000010" class="edge">
<title>Node10&#45;&gt;Node4</title>
<g id="a_edge9_Node000004_Node000010"><a xlink:title=" ">
<path fill="none" stroke="#63b8ff" d="M152.3,-1060.66C166.5,-1033.61 190.14,-988.59 213.63,-943.85"/>
<polygon fill="none" stroke="#63b8ff" points="213.69,-943.73 212.94,-936.56 219.27,-933.11 220.02,-940.28 213.69,-943.73"/>
</a>
</g>
<text text-anchor="middle" x="246.5" y="-966.2" font-family="Consolas" font-size="11.00" fill="grey"> #magnitude</text>
</g>
<!-- Node11 -->
<g id="Node000011" class="node">
<title>Node11</title>
<g id="a_Node000011"><a xlink:title=" ">
<polygon fill="white" stroke="transparent" points="184.5,-831 133.5,-831 133.5,-779 184.5,-779 184.5,-831"/>
<text text-anchor="start" x="139" y="-818.2" font-family="Consolas" font-size="11.00">double</text>
<text text-anchor="start" x="156" y="-802.2" font-family="Consolas" font-size="11.00"> </text>
<text text-anchor="start" x="156" y="-786.2" font-family="Consolas" font-size="11.00"> </text>
<polygon fill="#666666" stroke="#666666" points="134,-813 134,-813 185,-813 185,-813 134,-813"/>
<polygon fill="#666666" stroke="#666666" points="134,-797 134,-797 185,-797 185,-797 134,-797"/>
<polygon fill="none" stroke="#666666" points="133.5,-779 133.5,-831 184.5,-831 184.5,-779 133.5,-779"/>
</a>
</g>
</g>
<!-- Node11&#45;&gt;Node2 -->
<g id="edge16_Node000002_Node000011" class="edge">
<title>Node11&#45;&gt;Node2</title>
<g id="a_edge16_Node000002_Node000011"><a xlink:title=" ">
<path fill="none" stroke="#63b8ff" d="M161.53,-778.55C169.68,-710.79 201.44,-524.62 311,-429 453.58,-304.56 675.13,-247.87 794.35,-225.15"/>
<polygon fill="none" stroke="#63b8ff" points="794.47,-225.13 799.63,-220.1 806.27,-222.93 801.1,-227.96 794.47,-225.13"/>
</a>
</g>
<text text-anchor="middle" x="341.5" y="-520.2" font-family="Consolas" font-size="11.00" fill="grey"> #alpha</text>
<text text-anchor="middle" x="341.5" y="-508.2" font-family="Consolas" font-size="11.00" fill="grey">#length_a</text>
<text text-anchor="middle" x="341.5" y="-496.2" font-family="Consolas" font-size="11.00" fill="grey">#length_b</text>
</g>
<!-- Node11&#45;&gt;Node3 -->
<g id="edge10_Node000003_Node000011" class="edge">
<title>Node11&#45;&gt;Node3</title>
<g id="a_edge10_Node000003_Node000011"><a xlink:title=" ">
<path fill="none" stroke="#63b8ff" d="M161.41,-778.93C164.94,-752.03 173.37,-708.87 193,-677 232.56,-612.77 307.03,-570.97 370.05,-545.52"/>
<polygon fill="none" stroke="#63b8ff" points="370.11,-545.5 374.23,-539.58 381.27,-541.11 377.15,-547.03 370.11,-545.5"/>
</a>
</g>
<text text-anchor="middle" x="294" y="-632.2" font-family="Consolas" font-size="11.00" fill="grey"> #multiplier</text>
</g>
<!-- Node12 -->
<g id="Node000012" class="node">
<title>Node12</title>
<g id="a_Node000012"><a xlink:title=" ">
<polygon fill="white" stroke="transparent" points="797.5,-831 766.5,-831 766.5,-779 797.5,-779 797.5,-831"/>
<text text-anchor="start" x="772" y="-818.2" font-family="Consolas" font-size="11.00">vec</text>
<text text-anchor="start" x="779" y="-802.2" font-family="Consolas" font-size="11.00"> </text>
<text text-anchor="start" x="779" y="-786.2" font-family="Consolas" font-size="11.00"> </text>
<polygon fill="#666666" stroke="#666666" points="767,-813 767,-813 798,-813 798,-813 767,-813"/>
<polygon fill="#666666" stroke="#666666" points="767,-797 767,-797 798,-797 798,-797 767,-797"/>
<polygon fill="none" stroke="#666666" points="766.5,-779 766.5,-831 797.5,-831 797.5,-779 766.5,-779"/>
</a>
</g>
</g>
<!-- Node12&#45;&gt;Node2 -->
<g id="edge17_Node000002_Node000012" class="edge">
<title>Node12&#45;&gt;Node2</title>
<g id="a_edge17_Node000002_Node000012"><a xlink:title=" ">
<path fill="none" stroke="#63b8ff" d="M787.84,-778.97C794.4,-750.16 805.05,-701.36 812,-659 828.67,-557.38 825.12,-530.9 840,-429 846.37,-385.38 854.51,-337.02 861.53,-297.04"/>
<polygon fill="none" stroke="#63b8ff" points="861.54,-297 858.64,-290.4 863.63,-285.19 866.52,-291.79 861.54,-297"/>
</a>
</g>
<text text-anchor="middle" x="877.5" y="-526.2" font-family="Consolas" font-size="11.00" fill="grey"> #edge_a</text>
<text text-anchor="middle" x="877.5" y="-514.2" font-family="Consolas" font-size="11.00" fill="grey">#edge_b</text>
<text text-anchor="middle" x="877.5" y="-502.2" font-family="Consolas" font-size="11.00" fill="grey">#origin</text>
<text text-anchor="middle" x="877.5" y="-490.2" font-family="Consolas" font-size="11.00" fill="grey">#outer_norm</text>
</g>
<!-- Node12&#45;&gt;Node3 -->
<g id="edge12_Node000003_Node000012" class="edge">
<title>Node12&#45;&gt;Node3</title>
<g id="a_edge12_Node000003_Node000012"><a xlink:title=" ">
<path fill="none" stroke="#63b8ff" d="M772.67,-778.82C761.19,-750.82 739.3,-705.74 708,-677 694.23,-664.36 683.24,-672.18 670,-659 653.24,-642.31 663,-628.43 647,-611 630,-592.48 608.74,-576.38 587.11,-562.85"/>
<polygon fill="none" stroke="#63b8ff" points="587.08,-562.83 579.87,-563.14 576.82,-556.61 584.02,-556.3 587.08,-562.83"/>
</a>
</g>
<text text-anchor="middle" x="741" y="-650.2" font-family="Consolas" font-size="11.00" fill="grey"> #auxiliary_load</text>
<text text-anchor="middle" x="741" y="-638.2" font-family="Consolas" font-size="11.00" fill="grey">#auxiliary_resistance</text>
<text text-anchor="middle" x="741" y="-626.2" font-family="Consolas" font-size="11.00" fill="grey">#current_lambda</text>
<text text-anchor="middle" x="741" y="-614.2" font-family="Consolas" font-size="11.00" fill="grey">#trial_lambda</text>
</g>
<!-- Node13 -->
<g id="Node000013" class="node">
<title>Node13</title>
<g id="a_Node000013"><a xlink:title=" ">
<polygon fill="white" stroke="transparent" points="438.5,-831 387.5,-831 387.5,-779 438.5,-779 438.5,-831"/>
<text text-anchor="start" x="393" y="-818.2" font-family="Consolas" font-size="11.00">sp_vec</text>
<text text-anchor="start" x="410" y="-802.2" font-family="Consolas" font-size="11.00"> </text>
<text text-anchor="start" x="410" y="-786.2" font-family="Consolas" font-size="11.00"> </text>
<polygon fill="#666666" stroke="#666666" points="388,-813 388,-813 439,-813 439,-813 388,-813"/>
<polygon fill="#666666" stroke="#666666" points="388,-797 388,-797 439,-797 439,-797 388,-797"/>
<polygon fill="none" stroke="#666666" points="387.5,-779 387.5,-831 438.5,-831 438.5,-779 387.5,-779"/>
</a>
</g>
</g>
<!-- Node13&#45;&gt;Node3 -->
<g id="edge13_Node000003_Node000013" class="edge">
<title>Node13&#45;&gt;Node3</title>
<g id="a_edge13_Node000003_Node000013"><a xlink:title=" ">
<path fill="none" stroke="#63b8ff" d="M403.61,-778.73C391.1,-740.96 372.83,-668.15 394,-611 394.84,-608.73 395.76,-606.48 396.75,-604.24"/>
<polygon fill="none" stroke="#63b8ff" points="396.88,-603.98 395.98,-596.83 402.24,-593.25 403.14,-600.4 396.88,-603.98"/>
</a>
</g>
<text text-anchor="middle" x="435" y="-632.2" font-family="Consolas" font-size="11.00" fill="grey"> #resistance</text>
</g>
<!-- Node14 -->
<g id="Node000014" class="node">
<title>Node14</title>
<g id="a_Node000014"><a xlink:title=" ">
<polygon fill="white" stroke="transparent" points="507.5,-831 456.5,-831 456.5,-779 507.5,-779 507.5,-831"/>
<text text-anchor="start" x="462" y="-818.2" font-family="Consolas" font-size="11.00">sp_mat</text>
<text text-anchor="start" x="479" y="-802.2" font-family="Consolas" font-size="11.00"> </text>
<text text-anchor="start" x="479" y="-786.2" font-family="Consolas" font-size="11.00"> </text>
<polygon fill="#666666" stroke="#666666" points="457,-813 457,-813 508,-813 508,-813 457,-813"/>
<polygon fill="#666666" stroke="#666666" points="457,-797 457,-797 508,-797 508,-797 457,-797"/>
<polygon fill="none" stroke="#666666" points="456.5,-779 456.5,-831 507.5,-831 507.5,-779 456.5,-779"/>
</a>
</g>
</g>
<!-- Node14&#45;&gt;Node3 -->
<g id="edge14_Node000003_Node000014" class="edge">
<title>Node14&#45;&gt;Node3</title>
<g id="a_edge14_Node000003_Node000014"><a xlink:title=" ">
<path fill="none" stroke="#63b8ff" d="M481.6,-778.85C481.15,-749.94 480.43,-701.04 480,-659 479.82,-641.69 479.67,-623.23 479.54,-605.44"/>
<polygon fill="none" stroke="#63b8ff" points="479.54,-605.26 475.49,-599.29 479.45,-593.26 483.49,-599.23 479.54,-605.26"/>
</a>
</g>
<text text-anchor="middle" x="551" y="-638.2" font-family="Consolas" font-size="11.00" fill="grey"> #auxiliary_stiffness</text>
<text text-anchor="middle" x="551" y="-626.2" font-family="Consolas" font-size="11.00" fill="grey">#stiffness</text>
</g>
<!-- Node15 -->
<g id="Node000015" class="node">
<title>Node15</title>
<g id="a_Node000015"><a xlink:title=" ">
<polygon fill="white" stroke="transparent" points="995,-537 957,-537 957,-485 995,-485 995,-537"/>
<text text-anchor="start" x="962" y="-524.2" font-family="Consolas" font-size="11.00">bool</text>
<text text-anchor="start" x="972.5" y="-508.2" font-family="Consolas" font-size="11.00"> </text>
<text text-anchor="start" x="972.5" y="-492.2" font-family="Consolas" font-size="11.00"> </text>
<polygon fill="#666666" stroke="#666666" points="957,-519 957,-519 995,-519 995,-519 957,-519"/>
<polygon fill="#666666" stroke="#666666" points="957,-503 957,-503 995,-503 995,-503 957,-503"/>
<polygon fill="none" stroke="#666666" points="957,-485 957,-537 995,-537 995,-485 957,-485"/>
</a>
</g>
</g>
<!-- Node15&#45;&gt;Node2 -->
<g id="edge18_Node000002_Node000015" class="edge">
<title>Node15&#45;&gt;Node2</title>
<g id="a_edge18_Node000002_Node000015"><a xlink:title=" ">
<path fill="none" stroke="#63b8ff" d="M975.72,-484.77C974.46,-444.73 968.63,-364.86 943,-303 942.02,-300.64 940.97,-298.28 939.86,-295.94"/>
<polygon fill="none" stroke="#63b8ff" points="939.74,-295.71 933.43,-292.21 934.23,-285.04 940.54,-288.54 939.74,-295.71"/>
</a>
</g>
<text text-anchor="middle" x="1026.5" y="-354.2" font-family="Consolas" font-size="11.00" fill="grey"> #checker_handler</text>
</g>
<!-- Node16 -->
<g id="Node000016" class="node">
<title>Node16</title>
<g id="a_Node000016"><a xlink:title=" ">
<polygon fill="white" stroke="transparent" points="1156,-537 1058,-537 1058,-485 1156,-485 1156,-537"/>
<text text-anchor="start" x="1063" y="-524.2" font-family="Consolas" font-size="11.00">Col&lt; double &gt;</text>
<text text-anchor="start" x="1103.5" y="-508.2" font-family="Consolas" font-size="11.00"> </text>
<text text-anchor="start" x="1103.5" y="-492.2" font-family="Consolas" font-size="11.00"> </text>
<polygon fill="#666666" stroke="#666666" points="1058,-519 1058,-519 1156,-519 1156,-519 1058,-519"/>
<polygon fill="#666666" stroke="#666666" points="1058,-503 1058,-503 1156,-503 1156,-503 1058,-503"/>
<polygon fill="none" stroke="#666666" points="1058,-485 1058,-537 1156,-537 1156,-485 1058,-485"/>
</a>
</g>
</g>
<!-- Node16&#45;&gt;Node2 -->
<g id="edge19_Node000002_Node000016" class="edge">
<title>Node16&#45;&gt;Node2</title>
<g id="a_edge19_Node000002_Node000016"><a xlink:title=" ">
<path fill="none" stroke="#63b8ff" d="M1111.77,-484.88C1118.26,-442.84 1124.93,-357.52 1085,-303 1055.34,-262.5 1003.7,-239.77 959.3,-227.16"/>
<polygon fill="none" stroke="#63b8ff" points="959.18,-227.13 952.35,-229.43 947.59,-224.02 954.43,-221.71 959.18,-227.13"/>
</a>
</g>
<text text-anchor="middle" x="1204" y="-402.2" font-family="Consolas" font-size="11.00" fill="grey"> #current_velocity_handler</text>
<text text-anchor="start" x="1116" y="-390.2" font-family="Consolas" font-size="11.00" fill="grey">#incre_acceleration</text>
<text text-anchor="middle" x="1204" y="-378.2" font-family="Consolas" font-size="11.00" fill="grey">_handler</text>
<text text-anchor="start" x="1116" y="-366.2" font-family="Consolas" font-size="11.00" fill="grey">#trial_acceleration</text>
<text text-anchor="middle" x="1204" y="-354.2" font-family="Consolas" font-size="11.00" fill="grey">_handler</text>
<text text-anchor="start" x="1116" y="-342.2" font-family="Consolas" font-size="11.00" fill="grey">#trial_displacement</text>
<text text-anchor="middle" x="1204" y="-330.2" font-family="Consolas" font-size="11.00" fill="grey">_handler</text>
<text text-anchor="middle" x="1204" y="-318.2" font-family="Consolas" font-size="11.00" fill="grey">#trial_position_handler</text>
<text text-anchor="middle" x="1204" y="-306.2" font-family="Consolas" font-size="11.00" fill="grey">#trial_velocity_handler</text>
</g>
</g>
</svg>
