<?xml version="1.0" encoding="UTF-8" standalone="no"?>
<!DOCTYPE svg PUBLIC "-//W3C//DTD SVG 1.1//EN"
 "http://www.w3.org/Graphics/SVG/1.1/DTD/svg11.dtd">
<!-- Generated by graphviz version 9.0.0 (20230911.1827)
 -->
<!-- Title: new_s4 Pages: 1 -->
<svg width="320pt" height="110pt"
 viewBox="0.00 0.00 320.00 109.50" xmlns="http://www.w3.org/2000/svg" xmlns:xlink="http://www.w3.org/1999/xlink">

<svg id="main" version="1.1" xmlns="http://www.w3.org/2000/svg" xmlns:xlink="http://www.w3.org/1999/xlink" xml:space="preserve" onload="init(evt)">
<style type="text/css"><![CDATA[
.node, .edge {opacity: 0.7;}
.node.selected, .edge.selected {opacity: 1;}
.edge:hover path { stroke: red; }
.edge:hover polygon { stroke: red; fill: red; }
]]></style>
<script type="application/ecmascript" xlink:href="../../svg.min.js"/>
<svg id="graph" class="graph">
<g id="graph0" class="graph" transform="scale(1 1) rotate(0) translate(4 105.5)">
<title>new_s4</title>
<!-- Node1 -->
<g id="Node000001" class="node">
<title>Node1</title>
<g id="a_Node000001"><a xlink:title=" ">
<polygon fill="#999999" stroke="#666666" points="52,-61.5 0,-61.5 0,-40 52,-40 52,-61.5"/>
<text text-anchor="middle" x="26" y="-47.05" font-family="Consolas" font-size="11.00">new_s4</text>
</a>
</g>
</g>
<!-- Node2 -->
<g id="Node000002" class="node">
<title>Node2</title>
<g id="a_Node000002"><a xlink:href="../../d5/d47/utility_8h.html#a28b47ba8588036035501b1cf8cf51812" target="_top" xlink:title=" ">
<polygon fill="white" stroke="#666666" points="185,-101.5 115,-101.5 115,-80 185,-80 185,-101.5"/>
<text text-anchor="middle" x="150" y="-87.05" font-family="Consolas" font-size="11.00">get_input</text>
</a>
</g>
</g>
<!-- Node1&#45;&gt;Node2 -->
<g id="edge1_Node000001_Node000002" class="edge">
<title>Node1&#45;&gt;Node2</title>
<g id="a_edge1_Node000001_Node000002"><a xlink:title=" ">
<path fill="none" stroke="#63b8ff" d="M52.28,-59.04C67.31,-63.97 86.8,-70.36 104.34,-76.11"/>
<polygon fill="#63b8ff" stroke="#63b8ff" points="102.93,-79.33 113.52,-79.12 105.11,-72.68 102.93,-79.33"/>
</a>
</g>
</g>
<!-- Node3 -->
<g id="Node000003" class="node">
<title>Node3</title>
<g id="a_Node000003"><a xlink:href="../../d5/d47/utility_8h.html#af262eaf6ae98eec8921102f0f195be56" target="_top" xlink:title=" ">
<polygon fill="white" stroke="#666666" points="212,-61.5 88,-61.5 88,-40 212,-40 212,-61.5"/>
<text text-anchor="middle" x="150" y="-47.05" font-family="Consolas" font-size="11.00">get_optional_input</text>
</a>
</g>
</g>
<!-- Node1&#45;&gt;Node3 -->
<g id="edge2_Node000001_Node000003" class="edge">
<title>Node1&#45;&gt;Node3</title>
<g id="a_edge2_Node000001_Node000003"><a xlink:title=" ">
<path fill="none" stroke="#63b8ff" d="M52.28,-50.75C59.46,-50.75 67.66,-50.75 76.19,-50.75"/>
<polygon fill="#63b8ff" stroke="#63b8ff" points="76,-54.25 86,-50.75 76,-47.25 76,-54.25"/>
</a>
</g>
</g>
<!-- Node4 -->
<g id="Node000004" class="node">
<title>Node4</title>
<g id="a_Node000004"><a xlink:href="../../dc/dfa/utility_8cpp.html#aadeba583a4314ba6bcdd2c05a7c877ca" target="_top" xlink:title=" ">
<polygon fill="white" stroke="#666666" points="179,-21.5 121,-21.5 121,0 179,0 179,-21.5"/>
<text text-anchor="middle" x="150" y="-7.05" font-family="Consolas" font-size="11.00">is_true</text>
</a>
</g>
</g>
<!-- Node1&#45;&gt;Node4 -->
<g id="edge3_Node000001_Node000004" class="edge">
<title>Node1&#45;&gt;Node4</title>
<g id="a_edge3_Node000001_Node000004"><a xlink:title=" ">
<path fill="none" stroke="#63b8ff" d="M52.28,-42.46C68.96,-36.99 91.16,-29.71 110.07,-23.51"/>
<polygon fill="#63b8ff" stroke="#63b8ff" points="110.92,-26.92 119.33,-20.48 108.74,-20.27 110.92,-26.92"/>
</a>
</g>
</g>
<!-- Node5 -->
<g id="Node000005" class="node">
<title>Node5</title>
<g id="a_Node000005"><a xlink:href="../../dc/dfa/utility_8cpp.html#aec5c03b9af3b75833d6e8a674d88f5fd" target="_top" xlink:title=" ">
<polygon fill="white" stroke="#666666" points="312,-21.5 248,-21.5 248,0 312,0 312,-21.5"/>
<text text-anchor="middle" x="280" y="-7.05" font-family="Consolas" font-size="11.00">is_equal</text>
</a>
</g>
</g>
<!-- Node4&#45;&gt;Node5 -->
<g id="edge4_Node000004_Node000005" class="edge">
<title>Node4&#45;&gt;Node5</title>
<g id="a_edge4_Node000004_Node000005"><a xlink:title=" ">
<path fill="none" stroke="#63b8ff" d="M179.41,-10.75C196.04,-10.75 217.38,-10.75 236.03,-10.75"/>
<polygon fill="#63b8ff" stroke="#63b8ff" points="236.02,-14.25 246.02,-10.75 236.02,-7.25 236.02,-14.25"/>
</a>
</g>
</g>
</g>
</svg>
</svg>

<style type='text/css'>
<![CDATA[
[data-mouse-over-selected='false'] { opacity: 0.7; }
[data-mouse-over-selected='true']  { opacity: 1.0; }
]]>
</style>
<script type="application/ecmascript"><![CDATA[
document.addEventListener('DOMContentLoaded', (event) => {
  highlightEdges();
  highlightAdjacentNodes();
});
]]></script>
</svg>
