<?xml version="1.0" encoding="UTF-8" standalone="no"?>
<!DOCTYPE svg PUBLIC "-//W3C//DTD SVG 1.1//EN"
 "http://www.w3.org/Graphics/SVG/1.1/DTD/svg11.dtd">
<!-- Generated by graphviz version 9.0.0 (20230911.1827)
 -->
<!-- Title: create_new_orientation Pages: 1 -->
<svg width="262pt" height="70pt"
 viewBox="0.00 0.00 262.00 69.50" xmlns="http://www.w3.org/2000/svg" xmlns:xlink="http://www.w3.org/1999/xlink">
<g id="graph0" class="graph" transform="scale(1 1) rotate(0) translate(4 65.5)">
<title>create_new_orientation</title>
<!-- Node1 -->
<g id="Node000001" class="node">
<title>Node1</title>
<g id="a_Node000001"><a xlink:title=" ">
<polygon fill="#999999" stroke="#666666" points="148,-41.5 0,-41.5 0,-20 148,-20 148,-41.5"/>
<text text-anchor="middle" x="74" y="-27.05" font-family="Consolas" font-size="11.00">create_new_orientation</text>
</a>
</g>
</g>
<!-- Node2 -->
<g id="Node000002" class="node">
<title>Node2</title>
<g id="a_Node000002"><a xlink:href="../../d5/d47/utility_8h.html#a28b47ba8588036035501b1cf8cf51812" target="_top" xlink:title=" ">
<polygon fill="white" stroke="#666666" points="254,-61.5 184,-61.5 184,-40 254,-40 254,-61.5"/>
<text text-anchor="middle" x="219" y="-47.05" font-family="Consolas" font-size="11.00">get_input</text>
</a>
</g>
</g>
<!-- Node1&#45;&gt;Node2 -->
<g id="edge1_Node000001_Node000002" class="edge">
<title>Node1&#45;&gt;Node2</title>
<g id="a_edge1_Node000001_Node000002"><a xlink:title=" ">
<path fill="none" stroke="#63b8ff" d="M148.18,-40.98C156.39,-42.13 164.57,-43.28 172.29,-44.36"/>
<polygon fill="#63b8ff" stroke="#63b8ff" points="171.71,-47.81 182.1,-45.73 172.68,-40.88 171.71,-47.81"/>
</a>
</g>
</g>
<!-- Node3 -->
<g id="Node000003" class="node">
<title>Node3</title>
<g id="a_Node000003"><a xlink:href="../../dc/dfa/utility_8cpp.html#aec5c03b9af3b75833d6e8a674d88f5fd" target="_top" xlink:title=" ">
<polygon fill="white" stroke="#666666" points="251,-21.5 187,-21.5 187,0 251,0 251,-21.5"/>
<text text-anchor="middle" x="219" y="-7.05" font-family="Consolas" font-size="11.00">is_equal</text>
</a>
</g>
</g>
<!-- Node1&#45;&gt;Node3 -->
<g id="edge2_Node000001_Node000003" class="edge">
<title>Node1&#45;&gt;Node3</title>
<g id="a_edge2_Node000001_Node000003"><a xlink:title=" ">
<path fill="none" stroke="#63b8ff" d="M148.18,-20.52C157.53,-19.21 166.85,-17.9 175.48,-16.7"/>
<polygon fill="#63b8ff" stroke="#63b8ff" points="175.86,-20.18 185.28,-15.33 174.89,-13.25 175.86,-20.18"/>
</a>
</g>
</g>
</g>
</svg>
