<?xml version="1.0" encoding="UTF-8" standalone="no"?>
<!DOCTYPE svg PUBLIC "-//W3C//DTD SVG 1.1//EN"
 "http://www.w3.org/Graphics/SVG/1.1/DTD/svg11.dtd">
<!-- Generated by graphviz version 5.0.0 (0)
 -->
<!-- Title: FixedLength::initialize Pages: 1 -->
<svg width="623pt" height="166pt"
 viewBox="0.00 0.00 623.00 166.00" xmlns="http://www.w3.org/2000/svg" xmlns:xlink="http://www.w3.org/1999/xlink">
<g id="graph0" class="graph" transform="scale(1 1) rotate(0) translate(4 162)">
<title>FixedLength::initialize</title>
<!-- Node1 -->
<g id="node1" class="node">
<title>Node1</title>
<g id="a_node1"><a xlink:title=" ">
<polygon fill="#999999" stroke="#666666" points="172,-89 0,-89 0,-69 172,-69 172,-89"/>
<text text-anchor="middle" x="86" y="-76.2" font-family="Consolas" font-size="11.00">FixedLength::initialize</text>
</a>
</g>
</g>
<!-- Node2 -->
<g id="node2" class="node">
<title>Node2</title>
<g id="a_node2"><a xlink:href="../../db/d08/_element_8cpp.html#a51e37e987de26408545bf635edcc8e7b" target="_top" xlink:title=" ">
<polygon fill="white" stroke="#666666" points="376.5,-158 265.5,-158 265.5,-138 376.5,-138 376.5,-158"/>
<text text-anchor="middle" x="321" y="-145.2" font-family="Consolas" font-size="11.00">get_coordinate</text>
</a>
</g>
</g>
<!-- Node1&#45;&gt;Node2 -->
<g id="edge1" class="edge">
<title>Node1&#45;&gt;Node2</title>
<path fill="none" stroke="#63b8ff" d="M107.48,-89.12C131.14,-100.43 171.52,-118.51 208,-129 223.08,-133.34 239.61,-136.81 255.23,-139.54"/>
<polygon fill="#63b8ff" stroke="#63b8ff" points="254.89,-143.04 265.33,-141.23 256.05,-136.13 254.89,-143.04"/>
</g>
<!-- Node3 -->
<g id="node3" class="node">
<title>Node3</title>
<g id="a_node3"><a xlink:href="../../da/d44/class_conditional_modifier.html#ab56377bd1f1c50851b2d832199f898da" target="_top" xlink:title="Generate active DoF vector from assigned nodes.">
<polygon fill="white" stroke="#666666" points="403.5,-120 238.5,-120 238.5,-88 403.5,-88 403.5,-120"/>
<text text-anchor="start" x="246.5" y="-107.2" font-family="Consolas" font-size="11.00">ConditionalModifier</text>
<text text-anchor="middle" x="321" y="-95.2" font-family="Consolas" font-size="11.00">::get_nodal_active_dof</text>
</a>
</g>
</g>
<!-- Node1&#45;&gt;Node3 -->
<g id="edge2" class="edge">
<title>Node1&#45;&gt;Node3</title>
<path fill="none" stroke="#63b8ff" d="M172.11,-88.13C190.32,-90.09 209.63,-92.16 228.08,-94.14"/>
<polygon fill="#63b8ff" stroke="#63b8ff" points="227.91,-97.64 238.23,-95.23 228.66,-90.68 227.91,-97.64"/>
</g>
<!-- Node5 -->
<g id="node5" class="node">
<title>Node5</title>
<g id="a_node5"><a xlink:href="../../da/d44/class_conditional_modifier.html#a2e571329c1c399e8e472d34257e4af4e" target="_top" xlink:title=" ">
<polygon fill="white" stroke="#666666" points="393.5,-70 248.5,-70 248.5,-38 393.5,-38 393.5,-70"/>
<text text-anchor="start" x="256.5" y="-57.2" font-family="Consolas" font-size="11.00">ConditionalModifier</text>
<text text-anchor="middle" x="321" y="-45.2" font-family="Consolas" font-size="11.00">::initialize</text>
</a>
</g>
</g>
<!-- Node1&#45;&gt;Node5 -->
<g id="edge4" class="edge">
<title>Node1&#45;&gt;Node5</title>
<path fill="none" stroke="#63b8ff" d="M172.11,-69.87C193.65,-67.56 216.75,-65.08 238.13,-62.78"/>
<polygon fill="#63b8ff" stroke="#63b8ff" points="238.58,-66.26 248.15,-61.71 237.84,-59.3 238.58,-66.26"/>
</g>
<!-- Node7 -->
<g id="node7" class="node">
<title>Node7</title>
<g id="a_node7"><a xlink:href="../../d8/d71/class_constraint.html#af29b7851364069dae4bd4dfa9b62b714" target="_top" xlink:title="At the beginning of each sub&#45;step, it is assumed that constraints are not active (constraining condit...">
<polygon fill="white" stroke="#666666" points="434,-20 208,-20 208,0 434,0 434,-20"/>
<text text-anchor="middle" x="321" y="-7.2" font-family="Consolas" font-size="11.00">Constraint::set_multiplier_size</text>
</a>
</g>
</g>
<!-- Node1&#45;&gt;Node7 -->
<g id="edge6" class="edge">
<title>Node1&#45;&gt;Node7</title>
<path fill="none" stroke="#63b8ff" d="M107.48,-68.88C131.14,-57.57 171.52,-39.49 208,-29 217.14,-26.37 226.82,-24.06 236.5,-22.04"/>
<polygon fill="#63b8ff" stroke="#63b8ff" points="237.44,-25.42 246.57,-20.03 236.08,-18.55 237.44,-25.42"/>
</g>
<!-- Node4 -->
<g id="node4" class="node">
<title>Node4</title>
<g id="a_node4"><a xlink:href="../../d0/d57/class_tag.html#aeef9db4fab02b36358265f378e703986" target="_top" xlink:title=" ">
<polygon fill="white" stroke="#666666" points="598,-114 487,-114 487,-94 598,-94 598,-114"/>
<text text-anchor="middle" x="542.5" y="-101.2" font-family="Consolas" font-size="11.00">Tag::is_active</text>
</a>
</g>
</g>
<!-- Node3&#45;&gt;Node4 -->
<g id="edge3" class="edge">
<title>Node3&#45;&gt;Node4</title>
<path fill="none" stroke="#63b8ff" d="M403.73,-104C427.73,-104 453.64,-104 476.44,-104"/>
<polygon fill="#63b8ff" stroke="#63b8ff" points="476.68,-107.5 486.68,-104 476.68,-100.5 476.68,-107.5"/>
</g>
<!-- Node6 -->
<g id="node6" class="node">
<title>Node6</title>
<g id="a_node6"><a xlink:href="../../da/d44/class_conditional_modifier.html#a0488922ba5528bfa82bb1ce971c55cf2" target="_top" xlink:title=" ">
<polygon fill="white" stroke="#666666" points="615,-70 470,-70 470,-38 615,-38 615,-70"/>
<text text-anchor="start" x="478" y="-57.2" font-family="Consolas" font-size="11.00">ConditionalModifier</text>
<text text-anchor="middle" x="542.5" y="-45.2" font-family="Consolas" font-size="11.00">::set_initialized</text>
</a>
</g>
</g>
<!-- Node5&#45;&gt;Node6 -->
<g id="edge5" class="edge">
<title>Node5&#45;&gt;Node6</title>
<path fill="none" stroke="#63b8ff" d="M393.57,-54C414.63,-54 437.83,-54 459.49,-54"/>
<polygon fill="#63b8ff" stroke="#63b8ff" points="459.65,-57.5 469.65,-54 459.65,-50.5 459.65,-57.5"/>
</g>
</g>
</svg>
