<?xml version="1.0" encoding="UTF-8" standalone="no"?>
<!DOCTYPE svg PUBLIC "-//W3C//DTD SVG 1.1//EN"
 "http://www.w3.org/Graphics/SVG/1.1/DTD/svg11.dtd">
<!-- Generated by graphviz version 8.1.0 (20230707.0739)
 -->
<!-- Title: RestitutionWallPenalty Pages: 1 -->
<svg width="566pt" height="1968pt"
 viewBox="0.00 0.00 566.00 1968.00" xmlns="http://www.w3.org/2000/svg" xmlns:xlink="http://www.w3.org/1999/xlink">
<g id="graph0" class="graph" transform="scale(1 1) rotate(0) translate(4 1964)">
<title>RestitutionWallPenalty</title>
<!-- Node1 -->
<g id="Node000001" class="node">
<title>Node1</title>
<g id="a_Node000001"><a xlink:title="A RestitutionWallPenalty class.">
<polygon fill="#999999" stroke="none" points="360,-282 198,-282 198,-108 360,-108 360,-282"/>
<text text-anchor="start" x="213" y="-267.55" font-family="Consolas" font-size="11.00">RestitutionWallPenalty</text>
<text text-anchor="start" x="276" y="-250.55" font-family="Consolas" font-size="11.00"> </text>
<text text-anchor="start" x="202" y="-233.55" font-family="Consolas" font-size="11.00">+</text>
<text text-anchor="start" x="212" y="-233.55" font-family="Consolas" font-size="11.00">RestitutionWallPenalty()</text>
<text text-anchor="start" x="202" y="-216.55" font-family="Consolas" font-size="11.00">+</text>
<text text-anchor="start" x="212" y="-216.55" font-family="Consolas" font-size="11.00">RestitutionWallPenalty()</text>
<text text-anchor="start" x="202" y="-199.55" font-family="Consolas" font-size="11.00">+</text>
<text text-anchor="start" x="212" y="-199.55" font-family="Consolas" font-size="11.00">initialize()</text>
<text text-anchor="start" x="202" y="-182.55" font-family="Consolas" font-size="11.00">+</text>
<text text-anchor="start" x="212" y="-182.55" font-family="Consolas" font-size="11.00">process()</text>
<text text-anchor="start" x="202" y="-165.55" font-family="Consolas" font-size="11.00">+</text>
<text text-anchor="start" x="212" y="-165.55" font-family="Consolas" font-size="11.00">stage()</text>
<text text-anchor="start" x="202" y="-148.55" font-family="Consolas" font-size="11.00">+</text>
<text text-anchor="start" x="212" y="-148.55" font-family="Consolas" font-size="11.00">commit_status()</text>
<text text-anchor="start" x="202" y="-131.55" font-family="Consolas" font-size="11.00">+</text>
<text text-anchor="start" x="212" y="-131.55" font-family="Consolas" font-size="11.00">clear_status()</text>
<text text-anchor="start" x="202" y="-114.55" font-family="Consolas" font-size="11.00">+</text>
<text text-anchor="start" x="212" y="-114.55" font-family="Consolas" font-size="11.00">reset_status()</text>
<polygon fill="#666666" stroke="#666666" points="198,-263 198,-263 360,-263 360,-263 198,-263"/>
<polygon fill="#666666" stroke="#666666" points="198,-246 198,-246 360,-246 360,-246 198,-246"/>
<polygon fill="none" stroke="#666666" points="198,-108 198,-282 360,-282 360,-108 198,-108"/>
</a>
</g>
</g>
<!-- Node6 -->
<g id="Node000006" class="node">
<title>Node6</title>
<g id="a_Node000006"><a xlink:href="../../d7/de5/class_restitution_wall_penalty1_d.html" target="_top" xlink:title=" ">
<polygon fill="white" stroke="none" points="174,-63.5 0,-63.5 0,-8.5 174,-8.5 174,-63.5"/>
<text text-anchor="start" x="15" y="-49.05" font-family="Consolas" font-size="11.00">RestitutionWallPenalty1D</text>
<text text-anchor="start" x="84" y="-32.05" font-family="Consolas" font-size="11.00"> </text>
<text text-anchor="start" x="4" y="-15.05" font-family="Consolas" font-size="11.00">+</text>
<text text-anchor="start" x="14" y="-15.05" font-family="Consolas" font-size="11.00">RestitutionWallPenalty1D()</text>
<polygon fill="#666666" stroke="#666666" points="0,-44.5 0,-44.5 174,-44.5 174,-44.5 0,-44.5"/>
<polygon fill="#666666" stroke="#666666" points="0,-27.5 0,-27.5 174,-27.5 174,-27.5 0,-27.5"/>
<polygon fill="none" stroke="#666666" points="0,-8.5 0,-63.5 174,-63.5 174,-8.5 0,-8.5"/>
</a>
</g>
</g>
<!-- Node1&#45;&gt;Node6 -->
<g id="edge5_Node000001_Node000006" class="edge">
<title>Node1&#45;&gt;Node6</title>
<g id="a_edge5_Node000001_Node000006"><a xlink:title=" ">
<path fill="none" stroke="#63b8ff" d="M189.92,-121.16C164.55,-100.41 138.52,-79.13 118.99,-63.16"/>
<polygon fill="none" stroke="#63b8ff" points="187.17,-124.25 197.13,-127.87 191.61,-118.83 187.17,-124.25"/>
</a>
</g>
</g>
<!-- Node7 -->
<g id="Node000007" class="node">
<title>Node7</title>
<g id="a_Node000007"><a xlink:href="../../d2/df9/class_restitution_wall_penalty2_d.html" target="_top" xlink:title=" ">
<polygon fill="white" stroke="none" points="366,-72 192,-72 192,0 366,0 366,-72"/>
<text text-anchor="start" x="207" y="-57.55" font-family="Consolas" font-size="11.00">RestitutionWallPenalty2D</text>
<text text-anchor="start" x="276" y="-40.55" font-family="Consolas" font-size="11.00"> </text>
<text text-anchor="start" x="196" y="-23.55" font-family="Consolas" font-size="11.00">+</text>
<text text-anchor="start" x="206" y="-23.55" font-family="Consolas" font-size="11.00">RestitutionWallPenalty2D()</text>
<text text-anchor="start" x="196" y="-6.55" font-family="Consolas" font-size="11.00">+</text>
<text text-anchor="start" x="206" y="-6.55" font-family="Consolas" font-size="11.00">RestitutionWallPenalty2D()</text>
<polygon fill="#666666" stroke="#666666" points="192,-53 192,-53 366,-53 366,-53 192,-53"/>
<polygon fill="#666666" stroke="#666666" points="192,-36 192,-36 366,-36 366,-36 192,-36"/>
<polygon fill="none" stroke="#666666" points="192,0 192,-72 366,-72 366,0 192,0"/>
</a>
</g>
</g>
<!-- Node1&#45;&gt;Node7 -->
<g id="edge6_Node000001_Node000007" class="edge">
<title>Node1&#45;&gt;Node7</title>
<g id="a_edge6_Node000001_Node000007"><a xlink:title=" ">
<path fill="none" stroke="#63b8ff" d="M279,-97.37C279,-88.3 279,-79.57 279,-71.7"/>
<polygon fill="none" stroke="#63b8ff" points="275.5,-97.15 279,-107.15 282.5,-97.15 275.5,-97.15"/>
</a>
</g>
</g>
<!-- Node8 -->
<g id="Node000008" class="node">
<title>Node8</title>
<g id="a_Node000008"><a xlink:href="../../d0/d27/class_restitution_wall_penalty3_d.html" target="_top" xlink:title=" ">
<polygon fill="white" stroke="none" points="558,-72 384,-72 384,0 558,0 558,-72"/>
<text text-anchor="start" x="399" y="-57.55" font-family="Consolas" font-size="11.00">RestitutionWallPenalty3D</text>
<text text-anchor="start" x="468" y="-40.55" font-family="Consolas" font-size="11.00"> </text>
<text text-anchor="start" x="388" y="-23.55" font-family="Consolas" font-size="11.00">+</text>
<text text-anchor="start" x="398" y="-23.55" font-family="Consolas" font-size="11.00">RestitutionWallPenalty3D()</text>
<text text-anchor="start" x="388" y="-6.55" font-family="Consolas" font-size="11.00">+</text>
<text text-anchor="start" x="398" y="-6.55" font-family="Consolas" font-size="11.00">RestitutionWallPenalty3D()</text>
<polygon fill="#666666" stroke="#666666" points="384,-53 384,-53 558,-53 558,-53 384,-53"/>
<polygon fill="#666666" stroke="#666666" points="384,-36 384,-36 558,-36 558,-36 384,-36"/>
<polygon fill="none" stroke="#666666" points="384,0 384,-72 558,-72 558,0 384,0"/>
</a>
</g>
</g>
<!-- Node1&#45;&gt;Node8 -->
<g id="edge7_Node000001_Node000008" class="edge">
<title>Node1&#45;&gt;Node8</title>
<g id="a_edge7_Node000001_Node000008"><a xlink:title=" ">
<path fill="none" stroke="#63b8ff" d="M368.2,-121.06C389.19,-103.89 410.63,-86.37 428.45,-71.79"/>
<polygon fill="none" stroke="#63b8ff" points="366.39,-118.83 360.87,-127.87 370.83,-124.25 366.39,-118.83"/>
</a>
</g>
</g>
<!-- Node2 -->
<g id="Node000002" class="node">
<title>Node2</title>
<g id="a_Node000002"><a xlink:href="../../de/d24/class_rigid_wall_penalty.html" target="_top" xlink:title="A RigidWall class.">
<polygon fill="white" stroke="none" points="360,-755 198,-755 198,-318 360,-318 360,-755"/>
<text text-anchor="start" x="231" y="-740.55" font-family="Consolas" font-size="11.00">RigidWallPenalty</text>
<text text-anchor="start" x="202" y="-723.55" font-family="Consolas" font-size="11.00">#</text>
<text text-anchor="start" x="212" y="-723.55" font-family="Consolas" font-size="11.00">n_dim</text>
<text text-anchor="start" x="202" y="-706.55" font-family="Consolas" font-size="11.00">#</text>
<text text-anchor="start" x="212" y="-706.55" font-family="Consolas" font-size="11.00">alpha</text>
<text text-anchor="start" x="202" y="-689.55" font-family="Consolas" font-size="11.00">#</text>
<text text-anchor="start" x="212" y="-689.55" font-family="Consolas" font-size="11.00">edge_a</text>
<text text-anchor="start" x="202" y="-672.55" font-family="Consolas" font-size="11.00">#</text>
<text text-anchor="start" x="212" y="-672.55" font-family="Consolas" font-size="11.00">edge_b</text>
<text text-anchor="start" x="202" y="-655.55" font-family="Consolas" font-size="11.00">#</text>
<text text-anchor="start" x="212" y="-655.55" font-family="Consolas" font-size="11.00">origin</text>
<text text-anchor="start" x="202" y="-638.55" font-family="Consolas" font-size="11.00">#</text>
<text text-anchor="start" x="212" y="-638.55" font-family="Consolas" font-size="11.00">outer_norm</text>
<text text-anchor="start" x="202" y="-621.55" font-family="Consolas" font-size="11.00">#</text>
<text text-anchor="start" x="212" y="-621.55" font-family="Consolas" font-size="11.00">length_a</text>
<text text-anchor="start" x="202" y="-604.55" font-family="Consolas" font-size="11.00">#</text>
<text text-anchor="start" x="212" y="-604.55" font-family="Consolas" font-size="11.00">length_b</text>
<text text-anchor="start" x="202" y="-587.55" font-family="Consolas" font-size="11.00">#</text>
<text text-anchor="start" x="212" y="-587.55" font-family="Consolas" font-size="11.00">checker_handler</text>
<text text-anchor="start" x="202" y="-570.55" font-family="Consolas" font-size="11.00">#</text>
<text text-anchor="start" x="212" y="-570.55" font-family="Consolas" font-size="11.00">current_velocity_handler</text>
<text text-anchor="start" x="202" y="-553.55" font-family="Consolas" font-size="11.00">#</text>
<text text-anchor="start" x="212" y="-553.55" font-family="Consolas" font-size="11.00">incre_acceleration</text>
<text text-anchor="start" x="212" y="-540.05" font-family="Consolas" font-size="11.00">_handler</text>
<text text-anchor="start" x="202" y="-522.55" font-family="Consolas" font-size="11.00">#</text>
<text text-anchor="start" x="212" y="-522.55" font-family="Consolas" font-size="11.00">trial_position_handler</text>
<text text-anchor="start" x="202" y="-505.55" font-family="Consolas" font-size="11.00">#</text>
<text text-anchor="start" x="212" y="-505.55" font-family="Consolas" font-size="11.00">trial_displacement</text>
<text text-anchor="start" x="212" y="-492.05" font-family="Consolas" font-size="11.00">_handler</text>
<text text-anchor="start" x="202" y="-474.55" font-family="Consolas" font-size="11.00">#</text>
<text text-anchor="start" x="212" y="-474.55" font-family="Consolas" font-size="11.00">trial_velocity_handler</text>
<text text-anchor="start" x="202" y="-457.55" font-family="Consolas" font-size="11.00">#</text>
<text text-anchor="start" x="212" y="-457.55" font-family="Consolas" font-size="11.00">trial_acceleration</text>
<text text-anchor="start" x="212" y="-444.05" font-family="Consolas" font-size="11.00">_handler</text>
<text text-anchor="start" x="202" y="-426.55" font-family="Consolas" font-size="11.00">+</text>
<text text-anchor="start" x="212" y="-426.55" font-family="Consolas" font-size="11.00">RigidWallPenalty()</text>
<text text-anchor="start" x="202" y="-409.55" font-family="Consolas" font-size="11.00">+</text>
<text text-anchor="start" x="212" y="-409.55" font-family="Consolas" font-size="11.00">RigidWallPenalty()</text>
<text text-anchor="start" x="202" y="-392.55" font-family="Consolas" font-size="11.00">+</text>
<text text-anchor="start" x="212" y="-392.55" font-family="Consolas" font-size="11.00">process()</text>
<text text-anchor="start" x="202" y="-375.55" font-family="Consolas" font-size="11.00">+</text>
<text text-anchor="start" x="212" y="-375.55" font-family="Consolas" font-size="11.00">commit_status()</text>
<text text-anchor="start" x="202" y="-358.55" font-family="Consolas" font-size="11.00">+</text>
<text text-anchor="start" x="212" y="-358.55" font-family="Consolas" font-size="11.00">clear_status()</text>
<text text-anchor="start" x="202" y="-341.55" font-family="Consolas" font-size="11.00">+</text>
<text text-anchor="start" x="212" y="-341.55" font-family="Consolas" font-size="11.00">reset_status()</text>
<text text-anchor="start" x="202" y="-324.55" font-family="Consolas" font-size="11.00">#</text>
<text text-anchor="start" x="212" y="-324.55" font-family="Consolas" font-size="11.00">set_handler()</text>
<polygon fill="#666666" stroke="#666666" points="198,-736 198,-736 360,-736 360,-736 198,-736"/>
<polygon fill="#666666" stroke="#666666" points="198,-439 198,-439 210,-439 210,-439 198,-439"/>
<polygon fill="#666666" stroke="#666666" points="210,-439 210,-439 360,-439 360,-439 210,-439"/>
<polygon fill="none" stroke="#666666" points="198,-318 198,-755 360,-755 360,-318 198,-318"/>
</a>
</g>
</g>
<!-- Node2&#45;&gt;Node1 -->
<g id="edge1_Node000001_Node000002" class="edge">
<title>Node2&#45;&gt;Node1</title>
<g id="a_edge1_Node000001_Node000002"><a xlink:title=" ">
<path fill="none" stroke="#63b8ff" d="M279,-307.29C279,-298.53 279,-290.01 279,-281.84"/>
<polygon fill="none" stroke="#63b8ff" points="275.5,-307.09 279,-317.09 282.5,-307.09 275.5,-307.09"/>
</a>
</g>
</g>
<!-- Node3 -->
<g id="Node000003" class="node">
<title>Node3</title>
<g id="a_Node000003"><a xlink:href="../../d8/d71/class_constraint.html" target="_top" xlink:title="A Constraint class.">
<polygon fill="white" stroke="none" points="366,-1186 192,-1186 192,-791 366,-791 366,-1186"/>
<text text-anchor="start" x="249" y="-1171.55" font-family="Consolas" font-size="11.00">Constraint</text>
<text text-anchor="start" x="196" y="-1154.55" font-family="Consolas" font-size="11.00">#</text>
<text text-anchor="start" x="206" y="-1154.55" font-family="Consolas" font-size="11.00">num_size</text>
<text text-anchor="start" x="196" y="-1137.55" font-family="Consolas" font-size="11.00">#</text>
<text text-anchor="start" x="206" y="-1137.55" font-family="Consolas" font-size="11.00">trial_lambda</text>
<text text-anchor="start" x="196" y="-1120.55" font-family="Consolas" font-size="11.00">#</text>
<text text-anchor="start" x="206" y="-1120.55" font-family="Consolas" font-size="11.00">current_lambda</text>
<text text-anchor="start" x="196" y="-1103.55" font-family="Consolas" font-size="11.00">#</text>
<text text-anchor="start" x="206" y="-1103.55" font-family="Consolas" font-size="11.00">resistance</text>
<text text-anchor="start" x="196" y="-1086.55" font-family="Consolas" font-size="11.00">#</text>
<text text-anchor="start" x="206" y="-1086.55" font-family="Consolas" font-size="11.00">stiffness</text>
<text text-anchor="start" x="196" y="-1069.55" font-family="Consolas" font-size="11.00">#</text>
<text text-anchor="start" x="206" y="-1069.55" font-family="Consolas" font-size="11.00">auxiliary_resistance</text>
<text text-anchor="start" x="196" y="-1052.55" font-family="Consolas" font-size="11.00">#</text>
<text text-anchor="start" x="206" y="-1052.55" font-family="Consolas" font-size="11.00">auxiliary_load</text>
<text text-anchor="start" x="196" y="-1035.55" font-family="Consolas" font-size="11.00">#</text>
<text text-anchor="start" x="206" y="-1035.55" font-family="Consolas" font-size="11.00">auxiliary_stiffness</text>
<text text-anchor="start" x="196" y="-1018.55" font-family="Consolas" font-size="11.00">#</text>
<text text-anchor="start" x="206" y="-1018.55" font-family="Consolas" font-size="11.00">multiplier</text>
<text text-anchor="start" x="196" y="-1001.55" font-family="Consolas" font-size="11.00">+</text>
<text text-anchor="start" x="206" y="-1001.55" font-family="Consolas" font-size="11.00">Constraint()</text>
<text text-anchor="start" x="196" y="-984.55" font-family="Consolas" font-size="11.00">+</text>
<text text-anchor="start" x="206" y="-984.55" font-family="Consolas" font-size="11.00">Constraint()</text>
<text text-anchor="start" x="196" y="-967.55" font-family="Consolas" font-size="11.00">+</text>
<text text-anchor="start" x="206" y="-967.55" font-family="Consolas" font-size="11.00">Constraint()</text>
<text text-anchor="start" x="196" y="-950.55" font-family="Consolas" font-size="11.00">+</text>
<text text-anchor="start" x="206" y="-950.55" font-family="Consolas" font-size="11.00">operator=()</text>
<text text-anchor="start" x="196" y="-933.55" font-family="Consolas" font-size="11.00">+</text>
<text text-anchor="start" x="206" y="-933.55" font-family="Consolas" font-size="11.00">operator=()</text>
<text text-anchor="start" x="196" y="-916.55" font-family="Consolas" font-size="11.00">+</text>
<text text-anchor="start" x="206" y="-916.55" font-family="Consolas" font-size="11.00">~Constraint()</text>
<text text-anchor="start" x="196" y="-899.55" font-family="Consolas" font-size="11.00">+</text>
<text text-anchor="start" x="206" y="-899.55" font-family="Consolas" font-size="11.00">get_resistance()</text>
<text text-anchor="start" x="196" y="-882.55" font-family="Consolas" font-size="11.00">+</text>
<text text-anchor="start" x="206" y="-882.55" font-family="Consolas" font-size="11.00">get_stiffness()</text>
<text text-anchor="start" x="196" y="-865.55" font-family="Consolas" font-size="11.00">+</text>
<text text-anchor="start" x="206" y="-865.55" font-family="Consolas" font-size="11.00">get_auxiliary_resistance()</text>
<text text-anchor="start" x="196" y="-848.55" font-family="Consolas" font-size="11.00">+</text>
<text text-anchor="start" x="206" y="-848.55" font-family="Consolas" font-size="11.00">get_auxiliary_load()</text>
<text text-anchor="start" x="196" y="-831.55" font-family="Consolas" font-size="11.00">+</text>
<text text-anchor="start" x="206" y="-831.55" font-family="Consolas" font-size="11.00">get_auxiliary_stiffness()</text>
<text text-anchor="start" x="196" y="-814.55" font-family="Consolas" font-size="11.00">+</text>
<text text-anchor="start" x="206" y="-814.55" font-family="Consolas" font-size="11.00">set_multiplier_size()</text>
<text text-anchor="start" x="196" y="-797.55" font-family="Consolas" font-size="11.00">+</text>
<text text-anchor="start" x="206" y="-797.55" font-family="Consolas" font-size="11.00">get_multiplier_size()</text>
<polygon fill="#666666" stroke="#666666" points="192,-1167 192,-1167 366,-1167 366,-1167 192,-1167"/>
<polygon fill="#666666" stroke="#666666" points="192,-1014 192,-1014 204,-1014 204,-1014 192,-1014"/>
<polygon fill="#666666" stroke="#666666" points="204,-1014 204,-1014 366,-1014 366,-1014 204,-1014"/>
<polygon fill="none" stroke="#666666" points="192,-791 192,-1186 366,-1186 366,-791 192,-791"/>
</a>
</g>
</g>
<!-- Node3&#45;&gt;Node2 -->
<g id="edge2_Node000002_Node000003" class="edge">
<title>Node3&#45;&gt;Node2</title>
<g id="a_edge2_Node000002_Node000003"><a xlink:title=" ">
<path fill="none" stroke="#63b8ff" d="M279,-780.33C279,-771.8 279,-763.25 279,-754.7"/>
<polygon fill="none" stroke="#63b8ff" points="275.5,-780.11 279,-790.11 282.5,-780.11 275.5,-780.11"/>
</a>
</g>
</g>
<!-- Node4 -->
<g id="Node000004" class="node">
<title>Node4</title>
<g id="a_Node000004"><a xlink:href="../../da/d44/class_conditional_modifier.html" target="_top" xlink:title="A ConditionalModifier class.">
<polygon fill="white" stroke="none" points="354,-1631 204,-1631 204,-1222 354,-1222 354,-1631"/>
<text text-anchor="start" x="222" y="-1616.55" font-family="Consolas" font-size="11.00">ConditionalModifier</text>
<text text-anchor="start" x="208" y="-1599.55" font-family="Consolas" font-size="11.00">#</text>
<text text-anchor="start" x="218" y="-1599.55" font-family="Consolas" font-size="11.00">initialized</text>
<text text-anchor="start" x="208" y="-1582.55" font-family="Consolas" font-size="11.00">#</text>
<text text-anchor="start" x="218" y="-1582.55" font-family="Consolas" font-size="11.00">connected</text>
<text text-anchor="start" x="208" y="-1565.55" font-family="Consolas" font-size="11.00">#</text>
<text text-anchor="start" x="218" y="-1565.55" font-family="Consolas" font-size="11.00">start_step</text>
<text text-anchor="start" x="208" y="-1548.55" font-family="Consolas" font-size="11.00">#</text>
<text text-anchor="start" x="218" y="-1548.55" font-family="Consolas" font-size="11.00">end_step</text>
<text text-anchor="start" x="208" y="-1531.55" font-family="Consolas" font-size="11.00">#</text>
<text text-anchor="start" x="218" y="-1531.55" font-family="Consolas" font-size="11.00">amplitude_tag</text>
<text text-anchor="start" x="208" y="-1514.55" font-family="Consolas" font-size="11.00">#</text>
<text text-anchor="start" x="218" y="-1514.55" font-family="Consolas" font-size="11.00">node_encoding</text>
<text text-anchor="start" x="208" y="-1497.55" font-family="Consolas" font-size="11.00">#</text>
<text text-anchor="start" x="218" y="-1497.55" font-family="Consolas" font-size="11.00">dof_reference</text>
<text text-anchor="start" x="208" y="-1480.55" font-family="Consolas" font-size="11.00">#</text>
<text text-anchor="start" x="218" y="-1480.55" font-family="Consolas" font-size="11.00">dof_encoding</text>
<text text-anchor="start" x="208" y="-1463.55" font-family="Consolas" font-size="11.00">#</text>
<text text-anchor="start" x="218" y="-1463.55" font-family="Consolas" font-size="11.00">magnitude</text>
<text text-anchor="start" x="208" y="-1446.55" font-family="Consolas" font-size="11.00">+</text>
<text text-anchor="start" x="218" y="-1446.55" font-family="Consolas" font-size="11.00">ConditionalModifier()</text>
<text text-anchor="start" x="208" y="-1429.55" font-family="Consolas" font-size="11.00">+</text>
<text text-anchor="start" x="218" y="-1429.55" font-family="Consolas" font-size="11.00">initialize()</text>
<text text-anchor="start" x="208" y="-1412.55" font-family="Consolas" font-size="11.00">+</text>
<text text-anchor="start" x="218" y="-1412.55" font-family="Consolas" font-size="11.00">process()</text>
<text text-anchor="start" x="208" y="-1395.55" font-family="Consolas" font-size="11.00">+</text>
<text text-anchor="start" x="218" y="-1395.55" font-family="Consolas" font-size="11.00">process_resistance()</text>
<text text-anchor="start" x="208" y="-1378.55" font-family="Consolas" font-size="11.00">+</text>
<text text-anchor="start" x="218" y="-1378.55" font-family="Consolas" font-size="11.00">stage()</text>
<text text-anchor="start" x="208" y="-1361.55" font-family="Consolas" font-size="11.00">+</text>
<text text-anchor="start" x="218" y="-1361.55" font-family="Consolas" font-size="11.00">get_node_encoding()</text>
<text text-anchor="start" x="208" y="-1344.55" font-family="Consolas" font-size="11.00">+</text>
<text text-anchor="start" x="218" y="-1344.55" font-family="Consolas" font-size="11.00">get_dof_encoding()</text>
<text text-anchor="start" x="208" y="-1327.55" font-family="Consolas" font-size="11.00">+</text>
<text text-anchor="start" x="218" y="-1327.55" font-family="Consolas" font-size="11.00">set_initialized()</text>
<text text-anchor="start" x="208" y="-1310.55" font-family="Consolas" font-size="11.00">+</text>
<text text-anchor="start" x="218" y="-1310.55" font-family="Consolas" font-size="11.00">is_initialized()</text>
<text text-anchor="start" x="208" y="-1293.55" font-family="Consolas" font-size="11.00">+</text>
<text text-anchor="start" x="218" y="-1293.55" font-family="Consolas" font-size="11.00">set_start_step()</text>
<text text-anchor="start" x="218" y="-1276.55" font-family="Consolas" font-size="11.00">and 10 more...</text>
<text text-anchor="start" x="208" y="-1259.55" font-family="Consolas" font-size="11.00">#</text>
<text text-anchor="start" x="218" y="-1259.55" font-family="Consolas" font-size="11.00">get_nodal_active_dof()</text>
<text text-anchor="start" x="208" y="-1242.55" font-family="Consolas" font-size="11.00">#</text>
<text text-anchor="start" x="218" y="-1242.55" font-family="Consolas" font-size="11.00">get_all_nodal_active</text>
<text text-anchor="start" x="218" y="-1229.05" font-family="Consolas" font-size="11.00">_dof()</text>
<polygon fill="#666666" stroke="#666666" points="204,-1612 204,-1612 354,-1612 354,-1612 204,-1612"/>
<polygon fill="#666666" stroke="#666666" points="204,-1459 204,-1459 216,-1459 216,-1459 204,-1459"/>
<polygon fill="#666666" stroke="#666666" points="216,-1459 216,-1459 354,-1459 354,-1459 216,-1459"/>
<polygon fill="none" stroke="#666666" points="204,-1222 204,-1631 354,-1631 354,-1222 204,-1222"/>
</a>
</g>
</g>
<!-- Node4&#45;&gt;Node3 -->
<g id="edge3_Node000003_Node000004" class="edge">
<title>Node4&#45;&gt;Node3</title>
<g id="a_edge3_Node000003_Node000004"><a xlink:title=" ">
<path fill="none" stroke="#63b8ff" d="M279,-1211.39C279,-1202.87 279,-1194.34 279,-1185.85"/>
<polygon fill="none" stroke="#63b8ff" points="275.5,-1211.18 279,-1221.18 282.5,-1211.18 275.5,-1211.18"/>
</a>
</g>
</g>
<!-- Node5 -->
<g id="Node000005" class="node">
<title>Node5</title>
<g id="a_Node000005"><a xlink:href="../../d0/d57/class_tag.html" target="_top" xlink:title="A base Tag class.">
<polygon fill="white" stroke="none" points="324,-1960 234,-1960 234,-1667 324,-1667 324,-1960"/>
<text text-anchor="start" x="270" y="-1945.55" font-family="Consolas" font-size="11.00">Tag</text>
<text text-anchor="start" x="276" y="-1928.55" font-family="Consolas" font-size="11.00"> </text>
<text text-anchor="start" x="238" y="-1911.55" font-family="Consolas" font-size="11.00">+</text>
<text text-anchor="start" x="248" y="-1911.55" font-family="Consolas" font-size="11.00">Tag()</text>
<text text-anchor="start" x="238" y="-1894.55" font-family="Consolas" font-size="11.00">+</text>
<text text-anchor="start" x="248" y="-1894.55" font-family="Consolas" font-size="11.00">Tag()</text>
<text text-anchor="start" x="238" y="-1877.55" font-family="Consolas" font-size="11.00">+</text>
<text text-anchor="start" x="248" y="-1877.55" font-family="Consolas" font-size="11.00">Tag()</text>
<text text-anchor="start" x="238" y="-1860.55" font-family="Consolas" font-size="11.00">+</text>
<text text-anchor="start" x="248" y="-1860.55" font-family="Consolas" font-size="11.00">operator=()</text>
<text text-anchor="start" x="238" y="-1843.55" font-family="Consolas" font-size="11.00">+</text>
<text text-anchor="start" x="248" y="-1843.55" font-family="Consolas" font-size="11.00">operator=()</text>
<text text-anchor="start" x="238" y="-1826.55" font-family="Consolas" font-size="11.00">+</text>
<text text-anchor="start" x="248" y="-1826.55" font-family="Consolas" font-size="11.00">~Tag()</text>
<text text-anchor="start" x="238" y="-1809.55" font-family="Consolas" font-size="11.00">+</text>
<text text-anchor="start" x="248" y="-1809.55" font-family="Consolas" font-size="11.00">set_tag()</text>
<text text-anchor="start" x="238" y="-1792.55" font-family="Consolas" font-size="11.00">+</text>
<text text-anchor="start" x="248" y="-1792.55" font-family="Consolas" font-size="11.00">get_tag()</text>
<text text-anchor="start" x="238" y="-1775.55" font-family="Consolas" font-size="11.00">+</text>
<text text-anchor="start" x="248" y="-1775.55" font-family="Consolas" font-size="11.00">enable()</text>
<text text-anchor="start" x="238" y="-1758.55" font-family="Consolas" font-size="11.00">+</text>
<text text-anchor="start" x="248" y="-1758.55" font-family="Consolas" font-size="11.00">disable()</text>
<text text-anchor="start" x="238" y="-1741.55" font-family="Consolas" font-size="11.00">+</text>
<text text-anchor="start" x="248" y="-1741.55" font-family="Consolas" font-size="11.00">guard()</text>
<text text-anchor="start" x="238" y="-1724.55" font-family="Consolas" font-size="11.00">+</text>
<text text-anchor="start" x="248" y="-1724.55" font-family="Consolas" font-size="11.00">unguard()</text>
<text text-anchor="start" x="238" y="-1707.55" font-family="Consolas" font-size="11.00">+</text>
<text text-anchor="start" x="248" y="-1707.55" font-family="Consolas" font-size="11.00">is_active()</text>
<text text-anchor="start" x="238" y="-1690.55" font-family="Consolas" font-size="11.00">+</text>
<text text-anchor="start" x="248" y="-1690.55" font-family="Consolas" font-size="11.00">is_guarded()</text>
<text text-anchor="start" x="238" y="-1673.55" font-family="Consolas" font-size="11.00">+</text>
<text text-anchor="start" x="248" y="-1673.55" font-family="Consolas" font-size="11.00">print()</text>
<polygon fill="#666666" stroke="#666666" points="234,-1941 234,-1941 324,-1941 324,-1941 234,-1941"/>
<polygon fill="#666666" stroke="#666666" points="234,-1924 234,-1924 324,-1924 324,-1924 234,-1924"/>
<polygon fill="none" stroke="#666666" points="234,-1667 234,-1960 324,-1960 324,-1667 234,-1667"/>
</a>
</g>
</g>
<!-- Node5&#45;&gt;Node4 -->
<g id="edge4_Node000004_Node000005" class="edge">
<title>Node5&#45;&gt;Node4</title>
<g id="a_edge4_Node000004_Node000005"><a xlink:title=" ">
<path fill="none" stroke="#63b8ff" d="M279,-1656.25C279,-1647.86 279,-1639.37 279,-1630.86"/>
<polygon fill="none" stroke="#63b8ff" points="275.5,-1656.22 279,-1666.22 282.5,-1656.22 275.5,-1656.22"/>
</a>
</g>
</g>
</g>
</svg>
