<?xml version="1.0" encoding="UTF-8" standalone="no"?>
<!DOCTYPE svg PUBLIC "-//W3C//DTD SVG 1.1//EN"
 "http://www.w3.org/Graphics/SVG/1.1/DTD/svg11.dtd">
<!-- Generated by graphviz version 5.0.0 (0)
 -->
<!-- Title: Element/Beam/NMB31.cpp Pages: 1 -->
<svg width="802pt" height="488pt"
 viewBox="0.00 0.00 802.00 488.00" xmlns="http://www.w3.org/2000/svg" xmlns:xlink="http://www.w3.org/1999/xlink">
<g id="graph0" class="graph" transform="scale(1 1) rotate(0) translate(4 484)">
<title>Element/Beam/NMB31.cpp</title>
<!-- Node1 -->
<g id="node1" class="node">
<title>Node1</title>
<g id="a_node1"><a xlink:title=" ">
<polygon fill="#999999" stroke="#666666" points="545,-480 380,-480 380,-460 545,-460 545,-480"/>
<text text-anchor="middle" x="462.5" y="-467.2" font-family="Consolas" font-size="11.00">Element/Beam/NMB31.cpp</text>
</a>
</g>
</g>
<!-- Node2 -->
<g id="node2" class="node">
<title>Node2</title>
<g id="a_node2"><a xlink:href="../../d0/d7a/_n_m_b31_8h.html" target="_top" xlink:title=" ">
<polygon fill="white" stroke="#666666" points="353.5,-424 289.5,-424 289.5,-404 353.5,-404 353.5,-424"/>
<text text-anchor="middle" x="321.5" y="-411.2" font-family="Consolas" font-size="11.00">NMB31.h</text>
</a>
</g>
</g>
<!-- Node1&#45;&gt;Node2 -->
<g id="edge1" class="edge">
<title>Node1&#45;&gt;Node2</title>
<path fill="none" stroke="#63b8ff" d="M438.9,-459.96C415.82,-451.12 380.47,-437.58 354.59,-427.67"/>
<polygon fill="#63b8ff" stroke="#63b8ff" points="355.77,-424.38 345.18,-424.07 353.26,-430.91 355.77,-424.38"/>
</g>
<!-- Node19 -->
<g id="node19" class="node">
<title>Node19</title>
<g id="a_node19"><a xlink:href="../../dc/df2/_domain_base_8h.html" target="_top" xlink:title=" ">
<polygon fill="white" stroke="#666666" points="717,-194 572,-194 572,-174 717,-174 717,-194"/>
<text text-anchor="middle" x="644.5" y="-181.2" font-family="Consolas" font-size="11.00">Domain/DomainBase.h</text>
</a>
</g>
</g>
<!-- Node1&#45;&gt;Node19 -->
<g id="edge20" class="edge">
<title>Node1&#45;&gt;Node19</title>
<path fill="none" stroke="#63b8ff" d="M545.17,-463.48C608.5,-457.59 689.05,-445.97 713.5,-424 735.89,-403.89 732.5,-389.1 732.5,-359 732.5,-359 732.5,-359 732.5,-301 732.5,-257.4 692.54,-219.89 666.48,-200.06"/>
<polygon fill="#63b8ff" stroke="#63b8ff" points="668.38,-197.11 658.25,-194.02 664.25,-202.76 668.38,-197.11"/>
</g>
<!-- Node26 -->
<g id="node26" class="node">
<title>Node26</title>
<g id="a_node26"><a xlink:href="../../d1/db9/_b3_d_l_8h.html" target="_top" xlink:title=" ">
<polygon fill="white" stroke="#666666" points="231,-424 66,-424 66,-404 231,-404 231,-424"/>
<text text-anchor="middle" x="148.5" y="-411.2" font-family="Consolas" font-size="11.00">Element/Utility/B3DL.h</text>
</a>
</g>
</g>
<!-- Node1&#45;&gt;Node26 -->
<g id="edge29" class="edge">
<title>Node1&#45;&gt;Node26</title>
<path fill="none" stroke="#63b8ff" d="M409.94,-459.96C355.18,-450.54 269.39,-435.79 211.15,-425.77"/>
<polygon fill="#63b8ff" stroke="#63b8ff" points="211.41,-422.27 200.97,-424.02 210.23,-429.17 211.41,-422.27"/>
</g>
<!-- Node27 -->
<g id="node27" class="node">
<title>Node27</title>
<g id="a_node27"><a xlink:href="../../d4/d0f/_output_type_8h.html" target="_top" xlink:title=" ">
<polygon fill="white" stroke="#666666" points="704.5,-424 546.5,-424 546.5,-404 704.5,-404 704.5,-424"/>
<text text-anchor="middle" x="625.5" y="-411.2" font-family="Consolas" font-size="11.00">Recorder/OutputType.h</text>
</a>
</g>
</g>
<!-- Node1&#45;&gt;Node27 -->
<g id="edge31" class="edge">
<title>Node1&#45;&gt;Node27</title>
<path fill="none" stroke="#63b8ff" d="M489.78,-459.96C516.82,-451.01 558.41,-437.23 588.43,-427.28"/>
<polygon fill="#63b8ff" stroke="#63b8ff" points="589.74,-430.54 598.13,-424.07 587.54,-423.89 589.74,-430.54"/>
</g>
<!-- Node28 -->
<g id="node28" class="node">
<title>Node28</title>
<g id="a_node28"><a xlink:href="../../de/d09/_section_8h.html" target="_top" xlink:title=" ">
<polygon fill="white" stroke="#666666" points="528,-424 397,-424 397,-404 528,-404 528,-424"/>
<text text-anchor="middle" x="462.5" y="-411.2" font-family="Consolas" font-size="11.00">Section/Section.h</text>
</a>
</g>
</g>
<!-- Node1&#45;&gt;Node28 -->
<g id="edge32" class="edge">
<title>Node1&#45;&gt;Node28</title>
<path fill="none" stroke="#63b8ff" d="M462.5,-459.59C462.5,-452.7 462.5,-443.1 462.5,-434.57"/>
<polygon fill="#63b8ff" stroke="#63b8ff" points="466,-434.3 462.5,-424.3 459,-434.3 466,-434.3"/>
</g>
<!-- Node3 -->
<g id="node3" class="node">
<title>Node3</title>
<g id="a_node3"><a xlink:href="../../d9/d41/_section_element_8h.html" target="_top" xlink:title=" ">
<polygon fill="white" stroke="#666666" points="411,-368 232,-368 232,-348 411,-348 411,-368"/>
<text text-anchor="middle" x="321.5" y="-355.2" font-family="Consolas" font-size="11.00">Element/SectionElement.h</text>
</a>
</g>
</g>
<!-- Node2&#45;&gt;Node3 -->
<g id="edge2" class="edge">
<title>Node2&#45;&gt;Node3</title>
<path fill="none" stroke="#63b8ff" d="M321.5,-403.59C321.5,-396.7 321.5,-387.1 321.5,-378.57"/>
<polygon fill="#63b8ff" stroke="#63b8ff" points="325,-378.3 321.5,-368.3 318,-378.3 325,-378.3"/>
</g>
<!-- Node18 -->
<g id="node18" class="node">
<title>Node18</title>
<g id="a_node18"><a xlink:href="../../dc/db8/_orientation_8h.html" target="_top" xlink:title=" ">
<polygon fill="white" stroke="#666666" points="213.5,-368 1.5,-368 1.5,-348 213.5,-348 213.5,-368"/>
<text text-anchor="middle" x="107.5" y="-355.2" font-family="Consolas" font-size="11.00">Element/Utility/Orientation.h</text>
</a>
</g>
</g>
<!-- Node2&#45;&gt;Node18 -->
<g id="edge18" class="edge">
<title>Node2&#45;&gt;Node18</title>
<path fill="none" stroke="#63b8ff" d="M289.46,-404.92C253.27,-395.78 194.08,-380.85 153.08,-370.5"/>
<polygon fill="#63b8ff" stroke="#63b8ff" points="153.89,-367.1 143.33,-368.04 152.17,-373.88 153.89,-367.1"/>
</g>
<!-- Node4 -->
<g id="node4" class="node">
<title>Node4</title>
<g id="a_node4"><a xlink:href="../../d0/db8/_element_8h.html" target="_top" xlink:title=" ">
<polygon fill="white" stroke="#666666" points="387,-312 256,-312 256,-292 387,-292 387,-312"/>
<text text-anchor="middle" x="321.5" y="-299.2" font-family="Consolas" font-size="11.00">Element/Element.h</text>
</a>
</g>
</g>
<!-- Node3&#45;&gt;Node4 -->
<g id="edge3" class="edge">
<title>Node3&#45;&gt;Node4</title>
<path fill="none" stroke="#63b8ff" d="M321.5,-347.59C321.5,-340.7 321.5,-331.1 321.5,-322.57"/>
<polygon fill="#63b8ff" stroke="#63b8ff" points="325,-322.3 321.5,-312.3 318,-322.3 325,-322.3"/>
</g>
<!-- Node17 -->
<g id="node17" class="node">
<title>Node17</title>
<g id="a_node17"><a xlink:href="../../da/da5/_d_o_f_8h.html" target="_top" xlink:title=" ">
<polygon fill="white" stroke="#666666" points="237.5,-312 139.5,-312 139.5,-292 237.5,-292 237.5,-312"/>
<text text-anchor="middle" x="188.5" y="-299.2" font-family="Consolas" font-size="11.00">Domain/DOF.h</text>
</a>
</g>
</g>
<!-- Node3&#45;&gt;Node17 -->
<g id="edge17" class="edge">
<title>Node3&#45;&gt;Node17</title>
<path fill="none" stroke="#63b8ff" d="M299.24,-347.96C277.66,-339.2 244.71,-325.82 220.36,-315.93"/>
<polygon fill="#63b8ff" stroke="#63b8ff" points="221.42,-312.59 210.83,-312.07 218.78,-319.07 221.42,-312.59"/>
</g>
<!-- Node5 -->
<g id="node5" class="node">
<title>Node5</title>
<g id="a_node5"><a xlink:href="../../d9/d82/_element_base_8h.html" target="_top" xlink:title=" ">
<polygon fill="white" stroke="#666666" points="387.5,-256 229.5,-256 229.5,-236 387.5,-236 387.5,-256"/>
<text text-anchor="middle" x="308.5" y="-243.2" font-family="Consolas" font-size="11.00">Element/ElementBase.h</text>
</a>
</g>
</g>
<!-- Node4&#45;&gt;Node5 -->
<g id="edge4" class="edge">
<title>Node4&#45;&gt;Node5</title>
<path fill="none" stroke="#63b8ff" d="M319.24,-291.59C317.56,-284.63 315.21,-274.89 313.14,-266.29"/>
<polygon fill="#63b8ff" stroke="#63b8ff" points="316.48,-265.2 310.74,-256.3 309.68,-266.84 316.48,-265.2"/>
</g>
<!-- Node6 -->
<g id="node6" class="node">
<title>Node6</title>
<g id="a_node6"><a xlink:href="../../d2/d4a/_tag_8h.html" target="_top" xlink:title=" ">
<polygon fill="white" stroke="#666666" points="449.5,-132 351.5,-132 351.5,-112 449.5,-112 449.5,-132"/>
<text text-anchor="middle" x="400.5" y="-119.2" font-family="Consolas" font-size="11.00">Domain/Tag.h</text>
</a>
</g>
</g>
<!-- Node5&#45;&gt;Node6 -->
<g id="edge5" class="edge">
<title>Node5&#45;&gt;Node6</title>
<path fill="none" stroke="#63b8ff" d="M306.68,-235.54C304.24,-220.01 301.67,-188.78 315.5,-168 325.31,-153.27 341.57,-143.02 357.25,-136.07"/>
<polygon fill="#63b8ff" stroke="#63b8ff" points="358.93,-139.16 366.88,-132.16 356.3,-132.68 358.93,-139.16"/>
</g>
<!-- Node15 -->
<g id="node15" class="node">
<title>Node15</title>
<g id="a_node15"><a xlink:href="../../d9/dc0/vtk_base_8h.html" target="_top" xlink:title=" ">
<polygon fill="white" stroke="#666666" points="268.5,-200 110.5,-200 110.5,-168 268.5,-168 268.5,-200"/>
<text text-anchor="start" x="118.5" y="-187.2" font-family="Consolas" font-size="11.00">Element/Visualisation</text>
<text text-anchor="middle" x="189.5" y="-175.2" font-family="Consolas" font-size="11.00">/vtkBase.h</text>
</a>
</g>
</g>
<!-- Node5&#45;&gt;Node15 -->
<g id="edge14" class="edge">
<title>Node5&#45;&gt;Node15</title>
<path fill="none" stroke="#63b8ff" d="M290.43,-235.89C274,-227.61 249.22,-215.11 228.32,-204.57"/>
<polygon fill="#63b8ff" stroke="#63b8ff" points="229.84,-201.42 219.33,-200.04 226.69,-207.67 229.84,-201.42"/>
</g>
<!-- Node16 -->
<g id="node16" class="node">
<title>Node16</title>
<g id="a_node16"><a xlink:href="../../d6/d94/_mapping_d_o_f_8h.html" target="_top" xlink:title=" ">
<polygon fill="white" stroke="#666666" points="476.5,-194 324.5,-194 324.5,-174 476.5,-174 476.5,-194"/>
<text text-anchor="middle" x="400.5" y="-181.2" font-family="Consolas" font-size="11.00">Element/MappingDOF.h</text>
</a>
</g>
</g>
<!-- Node5&#45;&gt;Node16 -->
<g id="edge15" class="edge">
<title>Node5&#45;&gt;Node16</title>
<path fill="none" stroke="#63b8ff" d="M322.47,-235.89C337.28,-226.23 360.89,-210.83 378.26,-199.5"/>
<polygon fill="#63b8ff" stroke="#63b8ff" points="380.23,-202.4 386.7,-194 376.41,-196.53 380.23,-202.4"/>
</g>
<!-- Node7 -->
<g id="node7" class="node">
<title>Node7</title>
<g id="a_node7"><a xlink:href="../../d8/d8f/suan_pan_8h.html" target="_top" xlink:title=" ">
<polygon fill="white" stroke="#666666" points="439,-76 362,-76 362,-56 439,-56 439,-76"/>
<text text-anchor="middle" x="400.5" y="-63.2" font-family="Consolas" font-size="11.00">suanPan.h</text>
</a>
</g>
</g>
<!-- Node6&#45;&gt;Node7 -->
<g id="edge6" class="edge">
<title>Node6&#45;&gt;Node7</title>
<path fill="none" stroke="#63b8ff" d="M400.5,-111.59C400.5,-104.7 400.5,-95.1 400.5,-86.57"/>
<polygon fill="#63b8ff" stroke="#63b8ff" points="404,-86.3 400.5,-76.3 397,-86.3 404,-86.3"/>
</g>
<!-- Node8 -->
<g id="node8" class="node">
<title>Node8</title>
<g id="a_node8"><a xlink:title=" ">
<polygon fill="#e0e0e0" stroke="#999999" points="71,-20 0,-20 0,0 71,0 71,-20"/>
<text text-anchor="middle" x="35.5" y="-7.2" font-family="Consolas" font-size="11.00">iostream</text>
</a>
</g>
</g>
<!-- Node7&#45;&gt;Node8 -->
<g id="edge7" class="edge">
<title>Node7&#45;&gt;Node8</title>
<path fill="none" stroke="#63b8ff" d="M361.84,-60.37C303.24,-53.19 188.22,-38.41 81.02,-20.18"/>
<polygon fill="#63b8ff" stroke="#63b8ff" points="81.45,-16.7 71.01,-18.46 80.27,-23.6 81.45,-16.7"/>
</g>
<!-- Node9 -->
<g id="node9" class="node">
<title>Node9</title>
<g id="a_node9"><a xlink:title=" ">
<polygon fill="#e0e0e0" stroke="#999999" points="234,-20 89,-20 89,0 234,0 234,-20"/>
<text text-anchor="middle" x="161.5" y="-7.2" font-family="Consolas" font-size="11.00">armadillo/armadillo</text>
</a>
</g>
</g>
<!-- Node7&#45;&gt;Node9 -->
<g id="edge8" class="edge">
<title>Node7&#45;&gt;Node9</title>
<path fill="none" stroke="#63b8ff" d="M361.83,-56.26C320.93,-47.02 256.25,-32.41 211.5,-22.3"/>
<polygon fill="#63b8ff" stroke="#63b8ff" points="212.23,-18.87 201.71,-20.08 210.69,-25.7 212.23,-18.87"/>
</g>
<!-- Node10 -->
<g id="node10" class="node">
<title>Node10</title>
<g id="a_node10"><a xlink:title=" ">
<polygon fill="#e0e0e0" stroke="#999999" points="336.5,-20 252.5,-20 252.5,0 336.5,0 336.5,-20"/>
<text text-anchor="middle" x="294.5" y="-7.2" font-family="Consolas" font-size="11.00">filesystem</text>
</a>
</g>
</g>
<!-- Node7&#45;&gt;Node10 -->
<g id="edge9" class="edge">
<title>Node7&#45;&gt;Node10</title>
<path fill="none" stroke="#63b8ff" d="M382.52,-55.84C365.74,-47.29 340.49,-34.43 321.34,-24.67"/>
<polygon fill="#63b8ff" stroke="#63b8ff" points="322.72,-21.45 312.22,-20.03 319.54,-27.68 322.72,-21.45"/>
</g>
<!-- Node11 -->
<g id="node11" class="node">
<title>Node11</title>
<g id="a_node11"><a xlink:title=" ">
<polygon fill="#e0e0e0" stroke="#999999" points="446,-20 355,-20 355,0 446,0 446,-20"/>
<text text-anchor="middle" x="400.5" y="-7.2" font-family="Consolas" font-size="11.00">fmt/color.h</text>
</a>
</g>
</g>
<!-- Node7&#45;&gt;Node11 -->
<g id="edge10" class="edge">
<title>Node7&#45;&gt;Node11</title>
<path fill="none" stroke="#63b8ff" d="M400.5,-55.59C400.5,-48.7 400.5,-39.1 400.5,-30.57"/>
<polygon fill="#63b8ff" stroke="#63b8ff" points="404,-30.3 400.5,-20.3 397,-30.3 404,-30.3"/>
</g>
<!-- Node12 -->
<g id="node12" class="node">
<title>Node12</title>
<g id="a_node12"><a xlink:title=" ">
<polygon fill="#e0e0e0" stroke="#999999" points="514.5,-20 464.5,-20 464.5,0 514.5,0 514.5,-20"/>
<text text-anchor="middle" x="489.5" y="-7.2" font-family="Consolas" font-size="11.00">mutex</text>
</a>
</g>
</g>
<!-- Node7&#45;&gt;Node12 -->
<g id="edge11" class="edge">
<title>Node7&#45;&gt;Node12</title>
<path fill="none" stroke="#63b8ff" d="M415.6,-55.84C429.36,-47.49 449.92,-35.02 465.86,-25.34"/>
<polygon fill="#63b8ff" stroke="#63b8ff" points="467.89,-28.2 474.63,-20.03 464.26,-22.22 467.89,-28.2"/>
</g>
<!-- Node13 -->
<g id="node13" class="node">
<title>Node13</title>
<g id="a_node13"><a xlink:title=" ">
<polygon fill="#e0e0e0" stroke="#999999" points="616.5,-20 532.5,-20 532.5,0 616.5,0 616.5,-20"/>
<text text-anchor="middle" x="574.5" y="-7.2" font-family="Consolas" font-size="11.00">functional</text>
</a>
</g>
</g>
<!-- Node7&#45;&gt;Node13 -->
<g id="edge12" class="edge">
<title>Node7&#45;&gt;Node13</title>
<path fill="none" stroke="#63b8ff" d="M429.62,-55.96C458.61,-46.97 503.27,-33.11 535.35,-23.15"/>
<polygon fill="#63b8ff" stroke="#63b8ff" points="536.77,-26.37 545.28,-20.07 534.69,-19.69 536.77,-26.37"/>
</g>
<!-- Node14 -->
<g id="node14" class="node">
<title>Node14</title>
<g id="a_node14"><a xlink:title=" ">
<polygon fill="#e0e0e0" stroke="#999999" points="692,-20 635,-20 635,0 692,0 692,-20"/>
<text text-anchor="middle" x="663.5" y="-7.2" font-family="Consolas" font-size="11.00">memory</text>
</a>
</g>
</g>
<!-- Node7&#45;&gt;Node14 -->
<g id="edge13" class="edge">
<title>Node7&#45;&gt;Node14</title>
<path fill="none" stroke="#63b8ff" d="M439.41,-57.39C490.27,-47.41 577.56,-30.19 625.1,-20.01"/>
<polygon fill="#63b8ff" stroke="#63b8ff" points="625.86,-23.43 634.89,-17.89 624.38,-16.59 625.86,-23.43"/>
</g>
<!-- Node16&#45;&gt;Node6 -->
<g id="edge16" class="edge">
<title>Node16&#45;&gt;Node6</title>
<path fill="none" stroke="#63b8ff" d="M400.5,-173.89C400.5,-165.52 400.5,-152.84 400.5,-142.23"/>
<polygon fill="#63b8ff" stroke="#63b8ff" points="404,-142.2 400.5,-132.2 397,-142.2 404,-142.2"/>
</g>
<!-- Node18&#45;&gt;Node6 -->
<g id="edge19" class="edge">
<title>Node18&#45;&gt;Node6</title>
<path fill="none" stroke="#63b8ff" d="M103.37,-347.71C90.65,-317.54 55.67,-221.25 101.5,-168 131.78,-132.83 262.86,-124.77 341.06,-123.16"/>
<polygon fill="#63b8ff" stroke="#63b8ff" points="341.32,-126.65 351.26,-122.98 341.2,-119.65 341.32,-126.65"/>
</g>
<!-- Node19&#45;&gt;Node6 -->
<g id="edge22" class="edge">
<title>Node19&#45;&gt;Node6</title>
<path fill="none" stroke="#63b8ff" d="M607.71,-173.95C564.79,-163.4 493.78,-145.94 447.06,-134.45"/>
<polygon fill="#63b8ff" stroke="#63b8ff" points="447.74,-131.01 437.19,-132.02 446.07,-137.81 447.74,-131.01"/>
</g>
<!-- Node20 -->
<g id="node20" class="node">
<title>Node20</title>
<g id="a_node20"><a xlink:title=" ">
<polygon fill="#e0e0e0" stroke="#999999" points="712,-132 655,-132 655,-112 712,-112 712,-132"/>
<text text-anchor="middle" x="683.5" y="-119.2" font-family="Consolas" font-size="11.00">future</text>
</a>
</g>
</g>
<!-- Node19&#45;&gt;Node20 -->
<g id="edge21" class="edge">
<title>Node19&#45;&gt;Node20</title>
<path fill="none" stroke="#63b8ff" d="M650.42,-173.89C656.09,-165.17 664.8,-151.77 671.86,-140.91"/>
<polygon fill="#63b8ff" stroke="#63b8ff" points="675.01,-142.49 677.52,-132.2 669.14,-138.68 675.01,-142.49"/>
</g>
<!-- Node21 -->
<g id="node21" class="node">
<title>Node21</title>
<g id="a_node21"><a xlink:href="../../d4/ddd/container_8h.html" target="_top" xlink:title=" ">
<polygon fill="white" stroke="#666666" points="637,-132 492,-132 492,-112 637,-112 637,-132"/>
<text text-anchor="middle" x="564.5" y="-119.2" font-family="Consolas" font-size="11.00">Toolbox/container.h</text>
</a>
</g>
</g>
<!-- Node19&#45;&gt;Node21 -->
<g id="edge23" class="edge">
<title>Node19&#45;&gt;Node21</title>
<path fill="none" stroke="#63b8ff" d="M632.35,-173.89C619.71,-164.41 599.7,-149.4 584.68,-138.13"/>
<polygon fill="#63b8ff" stroke="#63b8ff" points="586.6,-135.2 576.5,-132 582.4,-140.8 586.6,-135.2"/>
</g>
<!-- Node21&#45;&gt;Node7 -->
<g id="edge24" class="edge">
<title>Node21&#45;&gt;Node7</title>
<path fill="none" stroke="#63b8ff" d="M537.05,-111.96C509.85,-103.01 468,-89.23 437.8,-79.28"/>
<polygon fill="#63b8ff" stroke="#63b8ff" points="438.63,-75.87 428.04,-76.07 436.44,-82.52 438.63,-75.87"/>
</g>
<!-- Node22 -->
<g id="node22" class="node">
<title>Node22</title>
<g id="a_node22"><a xlink:title=" ">
<polygon fill="#e0e0e0" stroke="#999999" points="794,-76 757,-76 757,-56 794,-56 794,-76"/>
<text text-anchor="middle" x="775.5" y="-63.2" font-family="Consolas" font-size="11.00">set</text>
</a>
</g>
</g>
<!-- Node21&#45;&gt;Node22 -->
<g id="edge25" class="edge">
<title>Node21&#45;&gt;Node22</title>
<path fill="none" stroke="#63b8ff" d="M604.69,-111.97C639.81,-103.89 692.34,-91.34 747.01,-75.98"/>
<polygon fill="#63b8ff" stroke="#63b8ff" points="748.21,-79.28 756.88,-73.19 746.3,-72.55 748.21,-79.28"/>
</g>
<!-- Node23 -->
<g id="node23" class="node">
<title>Node23</title>
<g id="a_node23"><a xlink:title=" ">
<polygon fill="#e0e0e0" stroke="#999999" points="494,-76 457,-76 457,-56 494,-56 494,-76"/>
<text text-anchor="middle" x="475.5" y="-63.2" font-family="Consolas" font-size="11.00">map</text>
</a>
</g>
</g>
<!-- Node21&#45;&gt;Node23 -->
<g id="edge26" class="edge">
<title>Node21&#45;&gt;Node23</title>
<path fill="none" stroke="#63b8ff" d="M549.4,-111.84C535.64,-103.49 515.08,-91.02 499.14,-81.34"/>
<polygon fill="#63b8ff" stroke="#63b8ff" points="500.74,-78.22 490.37,-76.03 497.11,-84.2 500.74,-78.22"/>
</g>
<!-- Node24 -->
<g id="node24" class="node">
<title>Node24</title>
<g id="a_node24"><a xlink:title=" ">
<polygon fill="#e0e0e0" stroke="#999999" points="616.5,-76 512.5,-76 512.5,-56 616.5,-56 616.5,-76"/>
<text text-anchor="middle" x="564.5" y="-63.2" font-family="Consolas" font-size="11.00">unordered_set</text>
</a>
</g>
</g>
<!-- Node21&#45;&gt;Node24 -->
<g id="edge27" class="edge">
<title>Node21&#45;&gt;Node24</title>
<path fill="none" stroke="#63b8ff" d="M564.5,-111.59C564.5,-104.7 564.5,-95.1 564.5,-86.57"/>
<polygon fill="#63b8ff" stroke="#63b8ff" points="568,-86.3 564.5,-76.3 561,-86.3 568,-86.3"/>
</g>
<!-- Node25 -->
<g id="node25" class="node">
<title>Node25</title>
<g id="a_node25"><a xlink:title=" ">
<polygon fill="#e0e0e0" stroke="#999999" points="738.5,-76 634.5,-76 634.5,-56 738.5,-56 738.5,-76"/>
<text text-anchor="middle" x="686.5" y="-63.2" font-family="Consolas" font-size="11.00">unordered_map</text>
</a>
</g>
</g>
<!-- Node21&#45;&gt;Node25 -->
<g id="edge28" class="edge">
<title>Node21&#45;&gt;Node25</title>
<path fill="none" stroke="#63b8ff" d="M584.92,-111.96C604.54,-103.28 634.4,-90.06 656.68,-80.2"/>
<polygon fill="#63b8ff" stroke="#63b8ff" points="658.29,-83.32 666.01,-76.07 655.45,-76.91 658.29,-83.32"/>
</g>
<!-- Node26&#45;&gt;Node18 -->
<g id="edge30" class="edge">
<title>Node26&#45;&gt;Node18</title>
<path fill="none" stroke="#63b8ff" d="M141.36,-403.59C135.66,-396.08 127.51,-385.35 120.64,-376.3"/>
<polygon fill="#63b8ff" stroke="#63b8ff" points="123.39,-374.15 114.56,-368.3 117.82,-378.38 123.39,-374.15"/>
</g>
<!-- Node28&#45;&gt;Node6 -->
<g id="edge33" class="edge">
<title>Node28&#45;&gt;Node6</title>
<path fill="none" stroke="#63b8ff" d="M468.7,-403.75C480.38,-385.38 504.5,-342.66 504.5,-303 504.5,-303 504.5,-303 504.5,-245 504.5,-209.75 507.19,-195.78 485.5,-168 474.08,-153.37 456.54,-142.96 440.36,-135.86"/>
<polygon fill="#63b8ff" stroke="#63b8ff" points="441.63,-132.6 431.05,-132.06 438.98,-139.08 441.63,-132.6"/>
</g>
<!-- Node29 -->
<g id="node29" class="node">
<title>Node29</title>
<g id="a_node29"><a xlink:href="../../df/dec/_parameter_type_8h.html" target="_top" xlink:title=" ">
<polygon fill="white" stroke="#666666" points="704.5,-368 532.5,-368 532.5,-348 704.5,-348 704.5,-368"/>
<text text-anchor="middle" x="618.5" y="-355.2" font-family="Consolas" font-size="11.00">Section/ParameterType.h</text>
</a>
</g>
</g>
<!-- Node28&#45;&gt;Node29 -->
<g id="edge34" class="edge">
<title>Node28&#45;&gt;Node29</title>
<path fill="none" stroke="#63b8ff" d="M488.61,-403.96C514.37,-395.04 553.95,-381.34 582.65,-371.41"/>
<polygon fill="#63b8ff" stroke="#63b8ff" points="584,-374.65 592.3,-368.07 581.71,-368.03 584,-374.65"/>
</g>
</g>
</svg>
