<?xml version="1.0" encoding="UTF-8" standalone="no"?>
<!DOCTYPE svg PUBLIC "-//W3C//DTD SVG 1.1//EN"
 "http://www.w3.org/Graphics/SVG/1.1/DTD/svg11.dtd">
<!-- Generated by graphviz version 2.43.0 (0)
 -->
<!-- Title: SparseMatFGMRES&lt; T &gt; Pages: 1 -->
<svg width="533pt" height="1090pt"
 viewBox="0.00 0.00 532.50 1090.00" xmlns="http://www.w3.org/2000/svg" xmlns:xlink="http://www.w3.org/1999/xlink">
<g id="graph0" class="graph" transform="scale(1 1) rotate(0) translate(4 1086)">
<title>SparseMatFGMRES&lt; T &gt;</title>
<!-- Node1 -->
<g id="Node000001" class="node">
<title>Node1</title>
<g id="a_Node000001"><a xlink:title="A SparseMatFGMRES class that holds matrices.">
<polygon fill="#999999" stroke="transparent" points="360.5,-68 214.5,-68 214.5,0 360.5,0 360.5,-68"/>
<text text-anchor="start" x="219.5" y="-55.2" font-family="Consolas" font-size="11.00">SparseMatFGMRES&lt; T &gt;</text>
<text text-anchor="start" x="284" y="-39.2" font-family="Consolas" font-size="11.00"> </text>
<text text-anchor="start" x="226.5" y="-23.2" font-family="Consolas" font-size="11.00">+</text>
<text text-anchor="start" x="245.5" y="-23.2" font-family="Consolas" font-size="11.00">make_copy()</text>
<text text-anchor="start" x="226.5" y="-7.2" font-family="Consolas" font-size="11.00">#</text>
<text text-anchor="start" x="245.5" y="-7.2" font-family="Consolas" font-size="11.00">direct_solve()</text>
<polygon fill="#666666" stroke="#666666" points="214.5,-50 214.5,-50 360.5,-50 360.5,-50 214.5,-50"/>
<polygon fill="#666666" stroke="#666666" points="214.5,-34 214.5,-34 360.5,-34 360.5,-34 214.5,-34"/>
<polygon fill="none" stroke="#666666" points="214.5,0 214.5,-68 360.5,-68 360.5,0 214.5,0"/>
</a>
</g>
</g>
<!-- Node2 -->
<g id="Node000002" class="node">
<title>Node2</title>
<g id="a_Node000002"><a xlink:href="../../d5/d13/class_sparse_mat.html" target="_top" xlink:title="A SparseMat class that holds matrices.">
<polygon fill="white" stroke="transparent" points="344.5,-333 230.5,-333 230.5,-105 344.5,-105 344.5,-333"/>
<text text-anchor="start" x="240" y="-320.2" font-family="Consolas" font-size="11.00">SparseMat&lt; T &gt;</text>
<text text-anchor="start" x="284" y="-304.2" font-family="Consolas" font-size="11.00"> </text>
<text text-anchor="start" x="234.5" y="-288.2" font-family="Consolas" font-size="11.00">+</text>
<text text-anchor="start" x="245.5" y="-288.2" font-family="Consolas" font-size="11.00">SparseMat()</text>
<text text-anchor="start" x="234.5" y="-272.2" font-family="Consolas" font-size="11.00">+</text>
<text text-anchor="start" x="245.5" y="-272.2" font-family="Consolas" font-size="11.00">is_empty()</text>
<text text-anchor="start" x="234.5" y="-256.2" font-family="Consolas" font-size="11.00">+</text>
<text text-anchor="start" x="245.5" y="-256.2" font-family="Consolas" font-size="11.00">zeros()</text>
<text text-anchor="start" x="234.5" y="-240.2" font-family="Consolas" font-size="11.00">+</text>
<text text-anchor="start" x="245.5" y="-240.2" font-family="Consolas" font-size="11.00">nullify()</text>
<text text-anchor="start" x="234.5" y="-224.2" font-family="Consolas" font-size="11.00">+</text>
<text text-anchor="start" x="245.5" y="-224.2" font-family="Consolas" font-size="11.00">max()</text>
<text text-anchor="start" x="234.5" y="-208.2" font-family="Consolas" font-size="11.00">+</text>
<text text-anchor="start" x="245.5" y="-208.2" font-family="Consolas" font-size="11.00">operator()()</text>
<text text-anchor="start" x="234.5" y="-192.2" font-family="Consolas" font-size="11.00">+</text>
<text text-anchor="start" x="245.5" y="-192.2" font-family="Consolas" font-size="11.00">at()</text>
<text text-anchor="start" x="234.5" y="-176.2" font-family="Consolas" font-size="11.00">+</text>
<text text-anchor="start" x="245.5" y="-176.2" font-family="Consolas" font-size="11.00">memptr()</text>
<text text-anchor="start" x="234.5" y="-160.2" font-family="Consolas" font-size="11.00">+</text>
<text text-anchor="start" x="245.5" y="-160.2" font-family="Consolas" font-size="11.00">memptr()</text>
<text text-anchor="start" x="234.5" y="-144.2" font-family="Consolas" font-size="11.00">+</text>
<text text-anchor="start" x="245.5" y="-144.2" font-family="Consolas" font-size="11.00">scale_accu()</text>
<text text-anchor="start" x="245.5" y="-128.2" font-family="Consolas" font-size="11.00">and 6 more...</text>
<text text-anchor="start" x="234.5" y="-112.2" font-family="Consolas" font-size="11.00">#</text>
<text text-anchor="start" x="245.5" y="-112.2" font-family="Consolas" font-size="11.00">direct_solve()</text>
<polygon fill="#666666" stroke="#666666" points="230.5,-315 230.5,-315 344.5,-315 344.5,-315 230.5,-315"/>
<polygon fill="#666666" stroke="#666666" points="230.5,-299 230.5,-299 344.5,-299 344.5,-299 230.5,-299"/>
<polygon fill="none" stroke="#666666" points="230.5,-105 230.5,-333 344.5,-333 344.5,-105 230.5,-105"/>
</a>
</g>
</g>
<!-- Node2&#45;&gt;Node1 -->
<g id="edge1_Node000001_Node000002" class="edge">
<title>Node2&#45;&gt;Node1</title>
<g id="a_edge1_Node000001_Node000002"><a xlink:title=" ">
<path fill="none" stroke="#63b8ff" d="M287.5,-94.79C287.5,-85.2 287.5,-76.13 287.5,-68.1"/>
<polygon fill="none" stroke="#63b8ff" points="284,-94.97 287.5,-104.97 291,-94.97 284,-94.97"/>
</a>
</g>
</g>
<!-- Node3 -->
<g id="Node000003" class="node">
<title>Node3</title>
<g id="a_Node000003"><a xlink:href="../../d8/d79/class_meta_mat.html" target="_top" xlink:title="A MetaMat class that holds matrices.">
<polygon fill="white" stroke="transparent" points="365,-662 210,-662 210,-370 365,-370 365,-662"/>
<text text-anchor="start" x="247" y="-649.2" font-family="Consolas" font-size="11.00">MetaMat&lt; T &gt;</text>
<text text-anchor="start" x="284.5" y="-633.2" font-family="Consolas" font-size="11.00"> </text>
<text text-anchor="start" x="214.5" y="-617.2" font-family="Consolas" font-size="11.00">+</text>
<text text-anchor="start" x="225.5" y="-617.2" font-family="Consolas" font-size="11.00">MetaMat()</text>
<text text-anchor="start" x="214.5" y="-601.2" font-family="Consolas" font-size="11.00">+</text>
<text text-anchor="start" x="225.5" y="-601.2" font-family="Consolas" font-size="11.00">MetaMat()</text>
<text text-anchor="start" x="214.5" y="-585.2" font-family="Consolas" font-size="11.00">+</text>
<text text-anchor="start" x="225.5" y="-585.2" font-family="Consolas" font-size="11.00">MetaMat()</text>
<text text-anchor="start" x="214.5" y="-569.2" font-family="Consolas" font-size="11.00">+</text>
<text text-anchor="start" x="225.5" y="-569.2" font-family="Consolas" font-size="11.00">operator=()</text>
<text text-anchor="start" x="214.5" y="-553.2" font-family="Consolas" font-size="11.00">+</text>
<text text-anchor="start" x="225.5" y="-553.2" font-family="Consolas" font-size="11.00">operator=()</text>
<text text-anchor="start" x="214.5" y="-537.2" font-family="Consolas" font-size="11.00">+</text>
<text text-anchor="start" x="225.5" y="-537.2" font-family="Consolas" font-size="11.00">~MetaMat()</text>
<text text-anchor="start" x="214.5" y="-521.2" font-family="Consolas" font-size="11.00">+</text>
<text text-anchor="start" x="225.5" y="-521.2" font-family="Consolas" font-size="11.00">set_solver_setting()</text>
<text text-anchor="start" x="214.5" y="-505.2" font-family="Consolas" font-size="11.00">+</text>
<text text-anchor="start" x="225.5" y="-505.2" font-family="Consolas" font-size="11.00">get_solver_setting()</text>
<text text-anchor="start" x="214.5" y="-489.2" font-family="Consolas" font-size="11.00">+</text>
<text text-anchor="start" x="225.5" y="-489.2" font-family="Consolas" font-size="11.00">set_factored()</text>
<text text-anchor="start" x="214.5" y="-473.2" font-family="Consolas" font-size="11.00">+</text>
<text text-anchor="start" x="225.5" y="-473.2" font-family="Consolas" font-size="11.00">is_empty()</text>
<text text-anchor="start" x="225.5" y="-457.2" font-family="Consolas" font-size="11.00">and 27 more...</text>
<text text-anchor="start" x="214.5" y="-441.2" font-family="Consolas" font-size="11.00">#</text>
<text text-anchor="start" x="225.5" y="-441.2" font-family="Consolas" font-size="11.00">direct_solve()</text>
<text text-anchor="start" x="214.5" y="-425.2" font-family="Consolas" font-size="11.00">#</text>
<text text-anchor="start" x="225.5" y="-425.2" font-family="Consolas" font-size="11.00">direct_solve()</text>
<text text-anchor="start" x="214.5" y="-409.2" font-family="Consolas" font-size="11.00">#</text>
<text text-anchor="start" x="225.5" y="-409.2" font-family="Consolas" font-size="11.00">direct_solve()</text>
<text text-anchor="start" x="214.5" y="-393.2" font-family="Consolas" font-size="11.00">#</text>
<text text-anchor="start" x="225.5" y="-393.2" font-family="Consolas" font-size="11.00">direct_solve()</text>
<text text-anchor="start" x="214.5" y="-377.2" font-family="Consolas" font-size="11.00">#</text>
<text text-anchor="start" x="225.5" y="-377.2" font-family="Consolas" font-size="11.00">mixed_trs()</text>
<polygon fill="#666666" stroke="#666666" points="210.5,-644 210.5,-644 365.5,-644 365.5,-644 210.5,-644"/>
<polygon fill="#666666" stroke="#666666" points="210.5,-628 210.5,-628 365.5,-628 365.5,-628 210.5,-628"/>
<polygon fill="none" stroke="#666666" points="210,-370 210,-662 365,-662 365,-370 210,-370"/>
</a>
</g>
</g>
<!-- Node3&#45;&gt;Node2 -->
<g id="edge2_Node000002_Node000003" class="edge">
<title>Node3&#45;&gt;Node2</title>
<g id="a_edge2_Node000002_Node000003"><a xlink:title=" ">
<path fill="none" stroke="#63b8ff" d="M287.5,-359.64C287.5,-350.78 287.5,-341.95 287.5,-333.29"/>
<polygon fill="none" stroke="#63b8ff" points="284,-359.66 287.5,-369.66 291,-359.66 284,-359.66"/>
</a>
</g>
</g>
<!-- Node4 -->
<g id="Node000004" class="node">
<title>Node4</title>
<g id="a_Node000004"><a xlink:title=" ">
<polygon fill="white" stroke="transparent" points="117.5,-866 79.5,-866 79.5,-814 117.5,-814 117.5,-866"/>
<text text-anchor="start" x="84.5" y="-853.2" font-family="Consolas" font-size="11.00">bool</text>
<text text-anchor="start" x="95" y="-837.2" font-family="Consolas" font-size="11.00"> </text>
<text text-anchor="start" x="95" y="-821.2" font-family="Consolas" font-size="11.00"> </text>
<polygon fill="#666666" stroke="#666666" points="79.5,-848 79.5,-848 117.5,-848 117.5,-848 79.5,-848"/>
<polygon fill="#666666" stroke="#666666" points="79.5,-832 79.5,-832 117.5,-832 117.5,-832 79.5,-832"/>
<polygon fill="none" stroke="#666666" points="79.5,-814 79.5,-866 117.5,-866 117.5,-814 79.5,-814"/>
</a>
</g>
</g>
<!-- Node4&#45;&gt;Node3 -->
<g id="edge3_Node000003_Node000004" class="edge">
<title>Node4&#45;&gt;Node3</title>
<g id="a_edge3_Node000003_Node000004"><a xlink:title=" ">
<path fill="none" stroke="#63b8ff" d="M102.6,-813.96C106.77,-792.13 114.37,-759.98 126.5,-734 146.14,-691.94 174.65,-649.98 202.24,-614.32"/>
<polygon fill="none" stroke="#63b8ff" points="202.59,-613.88 203.14,-606.69 209.99,-604.43 209.44,-611.62 202.59,-613.88"/>
</a>
</g>
<text text-anchor="middle" x="189.5" y="-695.2" font-family="Consolas" font-size="11.00" fill="grey"> #factored</text>
</g>
<!-- Node5 -->
<g id="Node000005" class="node">
<title>Node5</title>
<g id="a_Node000005"><a xlink:href="../../d5/d59/struct_solver_setting.html" target="_top" xlink:title=" ">
<polygon fill="white" stroke="transparent" points="267.5,-874 135.5,-874 135.5,-806 267.5,-806 267.5,-874"/>
<text text-anchor="start" x="140.5" y="-861.2" font-family="Consolas" font-size="11.00">SolverSetting&lt; T &gt;</text>
<text text-anchor="start" x="198" y="-845.2" font-family="Consolas" font-size="11.00"> </text>
<text text-anchor="start" x="140.5" y="-829.2" font-family="Consolas" font-size="11.00">+</text>
<text text-anchor="start" x="152.5" y="-829.2" font-family="Consolas" font-size="11.00">set_option()</text>
<text text-anchor="start" x="140.5" y="-813.2" font-family="Consolas" font-size="11.00">+</text>
<text text-anchor="start" x="152.5" y="-813.2" font-family="Consolas" font-size="11.00">set_lis_option()</text>
<polygon fill="#666666" stroke="#666666" points="135.5,-856 135.5,-856 267.5,-856 267.5,-856 135.5,-856"/>
<polygon fill="#666666" stroke="#666666" points="135.5,-840 135.5,-840 267.5,-840 267.5,-840 135.5,-840"/>
<polygon fill="none" stroke="#666666" points="135.5,-806 135.5,-874 267.5,-874 267.5,-806 135.5,-806"/>
</a>
</g>
</g>
<!-- Node5&#45;&gt;Node3 -->
<g id="edge4_Node000003_Node000005" class="edge">
<title>Node5&#45;&gt;Node3</title>
<g id="a_edge4_Node000003_Node000005"><a xlink:title=" ">
<path fill="none" stroke="#63b8ff" d="M210.38,-805.75C218.88,-773.93 232.35,-723.51 245.66,-673.65"/>
<polygon fill="none" stroke="#63b8ff" points="245.67,-673.61 243.36,-666.78 248.77,-662.02 251.08,-668.85 245.67,-673.61"/>
</a>
</g>
<text text-anchor="middle" x="272" y="-695.2" font-family="Consolas" font-size="11.00" fill="grey"> #setting</text>
</g>
<!-- Node6 -->
<g id="Node000006" class="node">
<title>Node6</title>
<g id="a_Node000006"><a xlink:title=" ">
<polygon fill="white" stroke="transparent" points="51,-1082 0,-1082 0,-1030 51,-1030 51,-1082"/>
<text text-anchor="start" x="5.5" y="-1069.2" font-family="Consolas" font-size="11.00">string</text>
<text text-anchor="start" x="22.5" y="-1053.2" font-family="Consolas" font-size="11.00"> </text>
<text text-anchor="start" x="22.5" y="-1037.2" font-family="Consolas" font-size="11.00"> </text>
<polygon fill="#666666" stroke="#666666" points="0.5,-1064 0.5,-1064 51.5,-1064 51.5,-1064 0.5,-1064"/>
<polygon fill="#666666" stroke="#666666" points="0.5,-1048 0.5,-1048 51.5,-1048 51.5,-1048 0.5,-1048"/>
<polygon fill="none" stroke="#666666" points="0,-1030 0,-1082 51,-1082 51,-1030 0,-1030"/>
</a>
</g>
</g>
<!-- Node6&#45;&gt;Node5 -->
<g id="edge5_Node000005_Node000006" class="edge">
<title>Node6&#45;&gt;Node5</title>
<g id="a_edge5_Node000005_Node000006"><a xlink:title=" ">
<path fill="none" stroke="#63b8ff" d="M25.71,-1029.89C27.27,-1009.38 32.82,-981.07 50.5,-964 75.48,-939.89 97.69,-965.36 126.5,-946 149.09,-930.82 167.13,-906.41 179.85,-884.94"/>
<polygon fill="none" stroke="#63b8ff" points="179.92,-884.81 179.4,-877.62 185.84,-874.37 186.36,-881.56 179.92,-884.81"/>
</a>
</g>
<text text-anchor="middle" x="78" y="-985.2" font-family="Consolas" font-size="11.00" fill="grey"> +option</text>
</g>
<!-- Node7 -->
<g id="Node000007" class="node">
<title>Node7</title>
<g id="a_Node000007"><a xlink:title=" ">
<polygon fill="white" stroke="transparent" points="129,-1082 78,-1082 78,-1030 129,-1030 129,-1082"/>
<text text-anchor="start" x="83.5" y="-1069.2" font-family="Consolas" font-size="11.00">data_t</text>
<text text-anchor="start" x="100.5" y="-1053.2" font-family="Consolas" font-size="11.00"> </text>
<text text-anchor="start" x="100.5" y="-1037.2" font-family="Consolas" font-size="11.00"> </text>
<polygon fill="#666666" stroke="#666666" points="78.5,-1064 78.5,-1064 129.5,-1064 129.5,-1064 78.5,-1064"/>
<polygon fill="#666666" stroke="#666666" points="78.5,-1048 78.5,-1048 129.5,-1048 129.5,-1048 78.5,-1048"/>
<polygon fill="none" stroke="#666666" points="78,-1030 78,-1082 129,-1082 129,-1030 78,-1030"/>
</a>
</g>
</g>
<!-- Node7&#45;&gt;Node5 -->
<g id="edge6_Node000005_Node000007" class="edge">
<title>Node7&#45;&gt;Node5</title>
<g id="a_edge6_Node000005_Node000007"><a xlink:title=" ">
<path fill="none" stroke="#63b8ff" d="M106.23,-1029.95C108.86,-1011.25 113.76,-985.36 122.5,-964 134.08,-935.69 152.27,-906.77 168.28,-884.09"/>
<polygon fill="none" stroke="#63b8ff" points="168.44,-883.87 168.7,-876.66 175.45,-874.13 175.19,-881.34 168.44,-883.87"/>
</a>
</g>
<text text-anchor="middle" x="160" y="-985.2" font-family="Consolas" font-size="11.00" fill="grey"> +tolerance</text>
</g>
<!-- Node8 -->
<g id="Node000008" class="node">
<title>Node8</title>
<g id="a_Node000008"><a xlink:title=" ">
<polygon fill="white" stroke="transparent" points="230.5,-1082 172.5,-1082 172.5,-1030 230.5,-1030 230.5,-1082"/>
<text text-anchor="start" x="177.5" y="-1069.2" font-family="Consolas" font-size="11.00">uint8_t</text>
<text text-anchor="start" x="198" y="-1053.2" font-family="Consolas" font-size="11.00"> </text>
<text text-anchor="start" x="198" y="-1037.2" font-family="Consolas" font-size="11.00"> </text>
<polygon fill="#666666" stroke="#666666" points="172.5,-1064 172.5,-1064 230.5,-1064 230.5,-1064 172.5,-1064"/>
<polygon fill="#666666" stroke="#666666" points="172.5,-1048 172.5,-1048 230.5,-1048 230.5,-1048 172.5,-1048"/>
<polygon fill="none" stroke="#666666" points="172.5,-1030 172.5,-1082 230.5,-1082 230.5,-1030 172.5,-1030"/>
</a>
</g>
</g>
<!-- Node8&#45;&gt;Node5 -->
<g id="edge7_Node000005_Node000008" class="edge">
<title>Node8&#45;&gt;Node5</title>
<g id="a_edge7_Node000005_Node000008"><a xlink:title=" ">
<path fill="none" stroke="#63b8ff" d="M201.5,-1029.61C201.5,-994.34 201.5,-929.95 201.5,-886.32"/>
<polygon fill="none" stroke="#63b8ff" points="201.5,-886.06 197.5,-880.06 201.5,-874.06 205.5,-880.06 201.5,-886.06"/>
</a>
</g>
<text text-anchor="middle" x="276" y="-985.2" font-family="Consolas" font-size="11.00" fill="grey"> +iterative_refinement</text>
</g>
<!-- Node9 -->
<g id="Node000009" class="node">
<title>Node9</title>
<g id="a_Node000009"><a xlink:title=" ">
<polygon fill="white" stroke="transparent" points="409,-1082 338,-1082 338,-1030 409,-1030 409,-1082"/>
<text text-anchor="start" x="343.5" y="-1069.2" font-family="Consolas" font-size="11.00">Precision</text>
<text text-anchor="start" x="370.5" y="-1053.2" font-family="Consolas" font-size="11.00"> </text>
<text text-anchor="start" x="370.5" y="-1037.2" font-family="Consolas" font-size="11.00"> </text>
<polygon fill="#666666" stroke="#666666" points="338.5,-1064 338.5,-1064 409.5,-1064 409.5,-1064 338.5,-1064"/>
<polygon fill="#666666" stroke="#666666" points="338.5,-1048 338.5,-1048 409.5,-1048 409.5,-1048 338.5,-1048"/>
<polygon fill="none" stroke="#666666" points="338,-1030 338,-1082 409,-1082 409,-1030 338,-1030"/>
</a>
</g>
</g>
<!-- Node9&#45;&gt;Node5 -->
<g id="edge8_Node000005_Node000009" class="edge">
<title>Node9&#45;&gt;Node5</title>
<g id="a_edge8_Node000005_Node000009"><a xlink:title=" ">
<path fill="none" stroke="#63b8ff" d="M370.35,-1029.64C366.91,-1006.03 360.63,-973.14 351.5,-964 327.58,-940.05 305.6,-964.87 277.5,-946 254.81,-930.76 236.54,-906.34 223.6,-884.88"/>
<polygon fill="none" stroke="#63b8ff" points="223.51,-884.72 217.04,-881.52 217.51,-874.32 223.97,-877.52 223.51,-884.72"/>
</a>
</g>
<text text-anchor="middle" x="404" y="-985.2" font-family="Consolas" font-size="11.00" fill="grey"> +precision</text>
</g>
<!-- Node10 -->
<g id="Node000010" class="node">
<title>Node10</title>
<g id="a_Node000010"><a xlink:href="../../db/d78/classtriplet__form.html" target="_top" xlink:title=" ">
<polygon fill="white" stroke="transparent" points="459,-946 286,-946 286,-734 459,-734 459,-946"/>
<text text-anchor="start" x="291.5" y="-933.2" font-family="Consolas" font-size="11.00">triplet_form&lt; T, uword &gt;</text>
<text text-anchor="start" x="369.5" y="-917.2" font-family="Consolas" font-size="11.00"> </text>
<text text-anchor="start" x="303.5" y="-901.2" font-family="Consolas" font-size="11.00">+</text>
<text text-anchor="start" x="327.5" y="-901.2" font-family="Consolas" font-size="11.00">triplet_form()</text>
<text text-anchor="start" x="303.5" y="-885.2" font-family="Consolas" font-size="11.00">+</text>
<text text-anchor="start" x="327.5" y="-885.2" font-family="Consolas" font-size="11.00">triplet_form()</text>
<text text-anchor="start" x="303.5" y="-869.2" font-family="Consolas" font-size="11.00">+</text>
<text text-anchor="start" x="327.5" y="-869.2" font-family="Consolas" font-size="11.00">triplet_form()</text>
<text text-anchor="start" x="303.5" y="-853.2" font-family="Consolas" font-size="11.00">+</text>
<text text-anchor="start" x="327.5" y="-853.2" font-family="Consolas" font-size="11.00">triplet_form()</text>
<text text-anchor="start" x="303.5" y="-837.2" font-family="Consolas" font-size="11.00">+</text>
<text text-anchor="start" x="327.5" y="-837.2" font-family="Consolas" font-size="11.00">triplet_form()</text>
<text text-anchor="start" x="303.5" y="-821.2" font-family="Consolas" font-size="11.00">+</text>
<text text-anchor="start" x="327.5" y="-821.2" font-family="Consolas" font-size="11.00">triplet_form()</text>
<text text-anchor="start" x="303.5" y="-805.2" font-family="Consolas" font-size="11.00">+</text>
<text text-anchor="start" x="327.5" y="-805.2" font-family="Consolas" font-size="11.00">triplet_form()</text>
<text text-anchor="start" x="303.5" y="-789.2" font-family="Consolas" font-size="11.00">+</text>
<text text-anchor="start" x="327.5" y="-789.2" font-family="Consolas" font-size="11.00">operator=()</text>
<text text-anchor="start" x="303.5" y="-773.2" font-family="Consolas" font-size="11.00">+</text>
<text text-anchor="start" x="327.5" y="-773.2" font-family="Consolas" font-size="11.00">operator=()</text>
<text text-anchor="start" x="303.5" y="-757.2" font-family="Consolas" font-size="11.00">+</text>
<text text-anchor="start" x="327.5" y="-757.2" font-family="Consolas" font-size="11.00">~triplet_form()</text>
<text text-anchor="start" x="327.5" y="-741.2" font-family="Consolas" font-size="11.00">and 51 more...</text>
<polygon fill="#666666" stroke="#666666" points="286.5,-928 286.5,-928 459.5,-928 459.5,-928 286.5,-928"/>
<polygon fill="#666666" stroke="#666666" points="286.5,-912 286.5,-912 459.5,-912 459.5,-912 286.5,-912"/>
<polygon fill="none" stroke="#666666" points="286,-734 286,-946 459,-946 459,-734 286,-734"/>
</a>
</g>
</g>
<!-- Node10&#45;&gt;Node3 -->
<g id="edge9_Node000003_Node000010" class="edge">
<title>Node10&#45;&gt;Node3</title>
<g id="a_edge9_Node000003_Node000010"><a xlink:title=" ">
<path fill="none" stroke="#63b8ff" d="M344.67,-733.57C339.63,-714.48 334.28,-694.2 328.95,-674.01"/>
<polygon fill="none" stroke="#63b8ff" points="328.88,-673.74 323.48,-668.96 325.81,-662.14 331.21,-666.92 328.88,-673.74"/>
</a>
</g>
<text text-anchor="middle" x="381.5" y="-695.2" font-family="Consolas" font-size="11.00" fill="grey"> +triplet_mat</text>
</g>
<!-- Node11 -->
<g id="Node000011" class="node">
<title>Node11</title>
<g id="a_Node000011"><a xlink:title=" ">
<polygon fill="white" stroke="transparent" points="500.5,-1082 442.5,-1082 442.5,-1030 500.5,-1030 500.5,-1082"/>
<text text-anchor="start" x="447.5" y="-1069.2" font-family="Consolas" font-size="11.00">index_t</text>
<text text-anchor="start" x="468" y="-1053.2" font-family="Consolas" font-size="11.00"> </text>
<text text-anchor="start" x="468" y="-1037.2" font-family="Consolas" font-size="11.00"> </text>
<polygon fill="#666666" stroke="#666666" points="442.5,-1064 442.5,-1064 500.5,-1064 500.5,-1064 442.5,-1064"/>
<polygon fill="#666666" stroke="#666666" points="442.5,-1048 442.5,-1048 500.5,-1048 500.5,-1048 442.5,-1048"/>
<polygon fill="none" stroke="#666666" points="442.5,-1030 442.5,-1082 500.5,-1082 500.5,-1030 442.5,-1030"/>
</a>
</g>
</g>
<!-- Node11&#45;&gt;Node10 -->
<g id="edge10_Node000010_Node000011" class="edge">
<title>Node11&#45;&gt;Node10</title>
<g id="a_edge10_Node000010_Node000011"><a xlink:title=" ">
<path fill="none" stroke="#63b8ff" d="M467.69,-1029.98C464.32,-1011.31 458.51,-985.42 449.5,-964 448.53,-961.69 447.51,-959.37 446.46,-957.05"/>
<polygon fill="none" stroke="#63b8ff" points="446.45,-957.02 440.26,-953.32 441.3,-946.18 447.49,-949.88 446.45,-957.02"/>
</a>
</g>
<text text-anchor="middle" x="494" y="-1003.2" font-family="Consolas" font-size="11.00" fill="grey"> +n_alloc</text>
<text text-anchor="middle" x="494" y="-991.2" font-family="Consolas" font-size="11.00" fill="grey">+n_cols</text>
<text text-anchor="middle" x="494" y="-979.2" font-family="Consolas" font-size="11.00" fill="grey">+n_elem</text>
<text text-anchor="middle" x="494" y="-967.2" font-family="Consolas" font-size="11.00" fill="grey">+n_rows</text>
</g>
<!-- Node12 -->
<g id="Node000012" class="node">
<title>Node12</title>
<g id="a_Node000012"><a xlink:title=" ">
<polygon fill="white" stroke="transparent" points="521.5,-866 477.5,-866 477.5,-814 521.5,-814 521.5,-866"/>
<text text-anchor="start" x="482.5" y="-853.2" font-family="Consolas" font-size="11.00">uword</text>
<text text-anchor="start" x="496" y="-837.2" font-family="Consolas" font-size="11.00"> </text>
<text text-anchor="start" x="496" y="-821.2" font-family="Consolas" font-size="11.00"> </text>
<polygon fill="#666666" stroke="#666666" points="477.5,-848 477.5,-848 521.5,-848 521.5,-848 477.5,-848"/>
<polygon fill="#666666" stroke="#666666" points="477.5,-832 477.5,-832 521.5,-832 521.5,-832 477.5,-832"/>
<polygon fill="none" stroke="#666666" points="477.5,-814 477.5,-866 521.5,-866 521.5,-814 477.5,-814"/>
</a>
</g>
</g>
<!-- Node12&#45;&gt;Node3 -->
<g id="edge11_Node000003_Node000012" class="edge">
<title>Node12&#45;&gt;Node3</title>
<g id="a_edge11_Node000003_Node000012"><a xlink:title=" ">
<path fill="none" stroke="#63b8ff" d="M494.61,-813.93C489.77,-792.09 481.23,-759.94 468.5,-734 444.69,-685.48 407.85,-638.54 373.61,-600.79"/>
<polygon fill="none" stroke="#63b8ff" points="373.55,-600.73 366.54,-599.02 365.43,-591.9 372.43,-593.61 373.55,-600.73"/>
</a>
</g>
<text text-anchor="middle" x="485" y="-707.2" font-family="Consolas" font-size="11.00" fill="grey"> +n_cols</text>
<text text-anchor="middle" x="485" y="-695.2" font-family="Consolas" font-size="11.00" fill="grey">+n_elem</text>
<text text-anchor="middle" x="485" y="-683.2" font-family="Consolas" font-size="11.00" fill="grey">+n_rows</text>
</g>
</g>
</svg>
