<?xml version="1.0" encoding="UTF-8" standalone="no"?>
<!DOCTYPE svg PUBLIC "-//W3C//DTD SVG 1.1//EN"
 "http://www.w3.org/Graphics/SVG/1.1/DTD/svg11.dtd">
<!-- Generated by graphviz version 2.43.0 (0)
 -->
<!-- Title: FixedLength::initialize Pages: 1 -->
<svg width="663pt" height="214pt"
 viewBox="0.00 0.00 663.00 214.00" xmlns="http://www.w3.org/2000/svg" xmlns:xlink="http://www.w3.org/1999/xlink">
<g id="graph0" class="graph" transform="scale(1 1) rotate(0) translate(4 210)">
<title>FixedLength::initialize</title>
<!-- Node1 -->
<g id="Node000001" class="node">
<title>Node1</title>
<g id="a_Node000001"><a xlink:title=" ">
<polygon fill="#999999" stroke="#666666" points="172,-92 0,-92 0,-72 172,-72 172,-92"/>
<text text-anchor="middle" x="86" y="-79.2" font-family="Consolas" font-size="11.00">FixedLength::initialize</text>
</a>
</g>
</g>
<!-- Node2 -->
<g id="Node000002" class="node">
<title>Node2</title>
<g id="a_Node000002"><a xlink:href="../../da/d44/class_conditional_modifier.html#a86b9f5e5229cc8cb889cdf55314ad276" target="_top" xlink:title=" ">
<polygon fill="white" stroke="#666666" points="393.5,-170 248.5,-170 248.5,-138 393.5,-138 393.5,-170"/>
<text text-anchor="start" x="256.5" y="-157.2" font-family="Consolas" font-size="11.00">ConditionalModifier</text>
<text text-anchor="middle" x="321" y="-145.2" font-family="Consolas" font-size="11.00">::collect_node_dof</text>
</a>
</g>
</g>
<!-- Node1&#45;&gt;Node2 -->
<g id="edge1_Node000001_Node000002" class="edge">
<title>Node1&#45;&gt;Node2</title>
<g id="a_edge1_Node000001_Node000002"><a xlink:title=" ">
<path fill="none" stroke="#63b8ff" d="M109.83,-92.06C133.89,-102.38 173.07,-118.38 208,-129 217.82,-131.99 228.23,-134.78 238.59,-137.34"/>
<polygon fill="#63b8ff" stroke="#63b8ff" points="237.94,-140.79 248.48,-139.73 239.58,-133.98 237.94,-140.79"/>
</a>
</g>
</g>
<!-- Node5 -->
<g id="Node000005" class="node">
<title>Node5</title>
<g id="a_Node000005"><a xlink:href="../../da/d44/class_conditional_modifier.html#a2e571329c1c399e8e472d34257e4af4e" target="_top" xlink:title=" ">
<polygon fill="white" stroke="#666666" points="393.5,-120 248.5,-120 248.5,-88 393.5,-88 393.5,-120"/>
<text text-anchor="start" x="256.5" y="-107.2" font-family="Consolas" font-size="11.00">ConditionalModifier</text>
<text text-anchor="middle" x="321" y="-95.2" font-family="Consolas" font-size="11.00">::initialize</text>
</a>
</g>
</g>
<!-- Node1&#45;&gt;Node5 -->
<g id="edge4_Node000001_Node000005" class="edge">
<title>Node1&#45;&gt;Node5</title>
<g id="a_edge4_Node000001_Node000005"><a xlink:title=" ">
<path fill="none" stroke="#63b8ff" d="M172.11,-90.04C193.65,-92.07 216.75,-94.25 238.13,-96.27"/>
<polygon fill="#63b8ff" stroke="#63b8ff" points="237.87,-99.76 248.15,-97.22 238.52,-92.79 237.87,-99.76"/>
</a>
</g>
</g>
<!-- Node8 -->
<g id="Node000008" class="node">
<title>Node8</title>
<g id="a_Node000008"><a xlink:href="../../d8/d71/class_constraint.html#af29b7851364069dae4bd4dfa9b62b714" target="_top" xlink:title=" ">
<polygon fill="white" stroke="#666666" points="434,-70 208,-70 208,-50 434,-50 434,-70"/>
<text text-anchor="middle" x="321" y="-57.2" font-family="Consolas" font-size="11.00">Constraint::set_multiplier_size</text>
</a>
</g>
</g>
<!-- Node1&#45;&gt;Node8 -->
<g id="edge7_Node000001_Node000008" class="edge">
<title>Node1&#45;&gt;Node8</title>
<g id="a_edge7_Node000001_Node000008"><a xlink:title=" ">
<path fill="none" stroke="#63b8ff" d="M172.11,-73.96C182.35,-73 192.95,-72 203.54,-71"/>
<polygon fill="#63b8ff" stroke="#63b8ff" points="204.06,-74.46 213.69,-70.04 203.41,-67.49 204.06,-74.46"/>
</a>
</g>
</g>
<!-- Node9 -->
<g id="Node000009" class="node">
<title>Node9</title>
<g id="a_Node000009"><a xlink:href="../../da/d44/class_conditional_modifier.html#ae210c15ff093ee256eda5b82e124e70c" target="_top" xlink:title=" ">
<polygon fill="white" stroke="#666666" points="393.5,-32 248.5,-32 248.5,0 393.5,0 393.5,-32"/>
<text text-anchor="start" x="256.5" y="-19.2" font-family="Consolas" font-size="11.00">ConditionalModifier</text>
<text text-anchor="middle" x="321" y="-7.2" font-family="Consolas" font-size="11.00">::validate_node</text>
</a>
</g>
</g>
<!-- Node1&#45;&gt;Node9 -->
<g id="edge8_Node000001_Node000009" class="edge">
<title>Node1&#45;&gt;Node9</title>
<g id="a_edge8_Node000001_Node000009"><a xlink:title=" ">
<path fill="none" stroke="#63b8ff" d="M114.13,-71.88C138.48,-63.01 175.32,-50.15 208,-41 217.81,-38.25 228.18,-35.6 238.48,-33.12"/>
<polygon fill="#63b8ff" stroke="#63b8ff" points="239.39,-36.5 248.32,-30.8 237.78,-29.69 239.39,-36.5"/>
</a>
</g>
</g>
<!-- Node3 -->
<g id="Node000003" class="node">
<title>Node3</title>
<g id="a_Node000003"><a xlink:href="../../d6/d9c/namespacesuanpan.html#aaed60e8e7dca40f9fc361980c0a7e06d" target="_top" xlink:title=" ">
<polygon fill="white" stroke="#666666" points="631.5,-206 493.5,-206 493.5,-186 631.5,-186 631.5,-206"/>
<text text-anchor="middle" x="562.5" y="-193.2" font-family="Consolas" font-size="11.00">suanpan::append_to</text>
</a>
</g>
</g>
<!-- Node2&#45;&gt;Node3 -->
<g id="edge2_Node000002_Node000003" class="edge">
<title>Node2&#45;&gt;Node3</title>
<g id="a_edge2_Node000002_Node000003"><a xlink:title=" ">
<path fill="none" stroke="#63b8ff" d="M393.53,-166.54C425.5,-172.15 462.97,-178.72 494.39,-184.23"/>
<polygon fill="#63b8ff" stroke="#63b8ff" points="493.92,-187.7 504.37,-185.98 495.12,-180.81 493.92,-187.7"/>
</a>
</g>
</g>
<!-- Node4 -->
<g id="Node000004" class="node">
<title>Node4</title>
<g id="a_Node000004"><a xlink:href="../../da/d44/class_conditional_modifier.html#ac797997ab1199bb2c8bc7764aef53ce6" target="_top" xlink:title="Return the DoF components, falls back to the DoF order.">
<polygon fill="white" stroke="#666666" points="635,-168 490,-168 490,-136 635,-136 635,-168"/>
<text text-anchor="start" x="498" y="-155.2" font-family="Consolas" font-size="11.00">ConditionalModifier</text>
<text text-anchor="middle" x="562.5" y="-143.2" font-family="Consolas" font-size="11.00">::get_dof_component</text>
</a>
</g>
</g>
<!-- Node2&#45;&gt;Node4 -->
<g id="edge3_Node000002_Node000004" class="edge">
<title>Node2&#45;&gt;Node4</title>
<g id="a_edge3_Node000002_Node000004"><a xlink:title=" ">
<path fill="none" stroke="#63b8ff" d="M393.53,-153.4C420.66,-153.18 451.76,-152.92 479.76,-152.68"/>
<polygon fill="#63b8ff" stroke="#63b8ff" points="479.95,-156.18 489.92,-152.6 479.89,-149.18 479.95,-156.18"/>
</a>
</g>
</g>
<!-- Node6 -->
<g id="Node000006" class="node">
<title>Node6</title>
<g id="a_Node000006"><a xlink:href="../../d0/d57/class_tag.html#aeef9db4fab02b36358265f378e703986" target="_top" xlink:title=" ">
<polygon fill="white" stroke="#666666" points="618,-117 507,-117 507,-97 618,-97 618,-117"/>
<text text-anchor="middle" x="562.5" y="-104.2" font-family="Consolas" font-size="11.00">Tag::is_active</text>
</a>
</g>
</g>
<!-- Node5&#45;&gt;Node6 -->
<g id="edge5_Node000005_Node000006" class="edge">
<title>Node5&#45;&gt;Node6</title>
<g id="a_edge5_Node000005_Node000006"><a xlink:title=" ">
<path fill="none" stroke="#63b8ff" d="M393.53,-104.9C426.24,-105.31 464.72,-105.79 496.58,-106.19"/>
<polygon fill="#63b8ff" stroke="#63b8ff" points="496.64,-109.69 506.68,-106.31 496.73,-102.69 496.64,-109.69"/>
</a>
</g>
</g>
<!-- Node7 -->
<g id="Node000007" class="node">
<title>Node7</title>
<g id="a_Node000007"><a xlink:href="../../de/d90/class_amplitude.html#a84c13ffcb23dbc17b2020406ea372d77" target="_top" xlink:title=" ">
<polygon fill="white" stroke="#666666" points="655,-79 470,-79 470,-59 655,-59 655,-79"/>
<text text-anchor="middle" x="562.5" y="-66.2" font-family="Consolas" font-size="11.00">Amplitude::set_start_time</text>
</a>
</g>
</g>
<!-- Node5&#45;&gt;Node7 -->
<g id="edge6_Node000005_Node000007" class="edge">
<title>Node5&#45;&gt;Node7</title>
<g id="a_edge6_Node000005_Node000007"><a xlink:title=" ">
<path fill="none" stroke="#63b8ff" d="M393.53,-93.55C421.65,-89.44 454.01,-84.71 482.79,-80.5"/>
<polygon fill="#63b8ff" stroke="#63b8ff" points="483.41,-83.95 492.8,-79.04 482.4,-77.02 483.41,-83.95"/>
</a>
</g>
</g>
</g>
</svg>
