<?xml version="1.0" encoding="UTF-8" standalone="no"?>
<!DOCTYPE svg PUBLIC "-//W3C//DTD SVG 1.1//EN"
 "http://www.w3.org/Graphics/SVG/1.1/DTD/svg11.dtd">
<!-- Generated by graphviz version 2.43.0 (0)
 -->
<!-- Title: NodalDisplacement::initialize Pages: 1 -->
<svg width="555pt" height="176pt"
 viewBox="0.00 0.00 555.00 176.00" xmlns="http://www.w3.org/2000/svg" xmlns:xlink="http://www.w3.org/1999/xlink">
<g id="graph0" class="graph" transform="scale(1 1) rotate(0) translate(4 172)">
<title>NodalDisplacement::initialize</title>
<!-- Node1 -->
<g id="Node000001" class="node">
<title>Node1</title>
<g id="a_Node000001"><a xlink:title=" ">
<polygon fill="#999999" stroke="#666666" points="145,-82 0,-82 0,-50 145,-50 145,-82"/>
<text text-anchor="start" x="8" y="-69.2" font-family="Consolas" font-size="11.00">NodalDisplacement::</text>
<text text-anchor="middle" x="72.5" y="-57.2" font-family="Consolas" font-size="11.00">initialize</text>
</a>
</g>
</g>
<!-- Node2 -->
<g id="Node000002" class="node">
<title>Node2</title>
<g id="a_Node000002"><a xlink:href="../../da/d44/class_conditional_modifier.html#a86b9f5e5229cc8cb889cdf55314ad276" target="_top" xlink:title=" ">
<polygon fill="white" stroke="#666666" points="326,-132 181,-132 181,-100 326,-100 326,-132"/>
<text text-anchor="start" x="189" y="-119.2" font-family="Consolas" font-size="11.00">ConditionalModifier</text>
<text text-anchor="middle" x="253.5" y="-107.2" font-family="Consolas" font-size="11.00">::collect_node_dof</text>
</a>
</g>
</g>
<!-- Node1&#45;&gt;Node2 -->
<g id="edge1_Node000001_Node000002" class="edge">
<title>Node1&#45;&gt;Node2</title>
<g id="a_edge1_Node000001_Node000002"><a xlink:title=" ">
<path fill="none" stroke="#63b8ff" d="M131.12,-82.1C148.37,-86.91 167.43,-92.24 185.24,-97.21"/>
<polygon fill="#63b8ff" stroke="#63b8ff" points="184.41,-100.62 194.99,-99.93 186.3,-93.87 184.41,-100.62"/>
</a>
</g>
</g>
<!-- Node5 -->
<g id="Node000005" class="node">
<title>Node5</title>
<g id="a_Node000005"><a xlink:href="../../da/d44/class_conditional_modifier.html#a2e571329c1c399e8e472d34257e4af4e" target="_top" xlink:title=" ">
<polygon fill="white" stroke="#666666" points="326,-82 181,-82 181,-50 326,-50 326,-82"/>
<text text-anchor="start" x="189" y="-69.2" font-family="Consolas" font-size="11.00">ConditionalModifier</text>
<text text-anchor="middle" x="253.5" y="-57.2" font-family="Consolas" font-size="11.00">::initialize</text>
</a>
</g>
</g>
<!-- Node1&#45;&gt;Node5 -->
<g id="edge4_Node000001_Node000005" class="edge">
<title>Node1&#45;&gt;Node5</title>
<g id="a_edge4_Node000001_Node000005"><a xlink:title=" ">
<path fill="none" stroke="#63b8ff" d="M145.02,-66C153.49,-66 162.18,-66 170.78,-66"/>
<polygon fill="#63b8ff" stroke="#63b8ff" points="170.8,-69.5 180.8,-66 170.8,-62.5 170.8,-69.5"/>
</a>
</g>
</g>
<!-- Node8 -->
<g id="Node000008" class="node">
<title>Node8</title>
<g id="a_Node000008"><a xlink:href="../../da/d44/class_conditional_modifier.html#a460260d484f2d2392703a47a4ab6a489" target="_top" xlink:title=" ">
<polygon fill="white" stroke="#666666" points="326,-32 181,-32 181,0 326,0 326,-32"/>
<text text-anchor="start" x="189" y="-19.2" font-family="Consolas" font-size="11.00">ConditionalModifier</text>
<text text-anchor="middle" x="253.5" y="-7.2" font-family="Consolas" font-size="11.00">::set_end_step</text>
</a>
</g>
</g>
<!-- Node1&#45;&gt;Node8 -->
<g id="edge7_Node000001_Node000008" class="edge">
<title>Node1&#45;&gt;Node8</title>
<g id="a_edge7_Node000001_Node000008"><a xlink:title=" ">
<path fill="none" stroke="#63b8ff" d="M131.12,-49.9C148.37,-45.09 167.43,-39.76 185.24,-34.79"/>
<polygon fill="#63b8ff" stroke="#63b8ff" points="186.3,-38.13 194.99,-32.07 184.41,-31.38 186.3,-38.13"/>
</a>
</g>
</g>
<!-- Node3 -->
<g id="Node000003" class="node">
<title>Node3</title>
<g id="a_Node000003"><a xlink:href="../../d6/d9c/namespacesuanpan.html#aaed60e8e7dca40f9fc361980c0a7e06d" target="_top" xlink:title=" ">
<polygon fill="white" stroke="#666666" points="523.5,-168 385.5,-168 385.5,-148 523.5,-148 523.5,-168"/>
<text text-anchor="middle" x="454.5" y="-155.2" font-family="Consolas" font-size="11.00">suanpan::append_to</text>
</a>
</g>
</g>
<!-- Node2&#45;&gt;Node3 -->
<g id="edge2_Node000002_Node000003" class="edge">
<title>Node2&#45;&gt;Node3</title>
<g id="a_edge2_Node000002_Node000003"><a xlink:title=" ">
<path fill="none" stroke="#63b8ff" d="M326.19,-131.4C338.15,-133.95 350.42,-136.56 362,-139 372.7,-141.25 384.1,-143.64 395.1,-145.93"/>
<polygon fill="#63b8ff" stroke="#63b8ff" points="394.55,-149.39 405.05,-148 395.97,-142.53 394.55,-149.39"/>
</a>
</g>
</g>
<!-- Node4 -->
<g id="Node000004" class="node">
<title>Node4</title>
<g id="a_Node000004"><a xlink:href="../../da/d44/class_conditional_modifier.html#ac797997ab1199bb2c8bc7764aef53ce6" target="_top" xlink:title="Return the DoF components, falls back to the DoF order.">
<polygon fill="white" stroke="#666666" points="527,-130 382,-130 382,-98 527,-98 527,-130"/>
<text text-anchor="start" x="390" y="-117.2" font-family="Consolas" font-size="11.00">ConditionalModifier</text>
<text text-anchor="middle" x="454.5" y="-105.2" font-family="Consolas" font-size="11.00">::get_dof_component</text>
</a>
</g>
</g>
<!-- Node2&#45;&gt;Node4 -->
<g id="edge3_Node000002_Node000004" class="edge">
<title>Node2&#45;&gt;Node4</title>
<g id="a_edge3_Node000002_Node000004"><a xlink:title=" ">
<path fill="none" stroke="#63b8ff" d="M326.06,-115.28C340.82,-115.13 356.47,-114.98 371.56,-114.82"/>
<polygon fill="#63b8ff" stroke="#63b8ff" points="371.94,-118.32 381.9,-114.72 371.87,-111.32 371.94,-118.32"/>
</a>
</g>
</g>
<!-- Node6 -->
<g id="Node000006" class="node">
<title>Node6</title>
<g id="a_Node000006"><a xlink:href="../../d0/d57/class_tag.html#aeef9db4fab02b36358265f378e703986" target="_top" xlink:title=" ">
<polygon fill="white" stroke="#666666" points="510,-79 399,-79 399,-59 510,-59 510,-79"/>
<text text-anchor="middle" x="454.5" y="-66.2" font-family="Consolas" font-size="11.00">Tag::is_active</text>
</a>
</g>
</g>
<!-- Node5&#45;&gt;Node6 -->
<g id="edge5_Node000005_Node000006" class="edge">
<title>Node5&#45;&gt;Node6</title>
<g id="a_edge5_Node000005_Node000006"><a xlink:title=" ">
<path fill="none" stroke="#63b8ff" d="M326.06,-67.08C346.46,-67.39 368.57,-67.72 388.55,-68.02"/>
<polygon fill="#63b8ff" stroke="#63b8ff" points="388.74,-71.52 398.79,-68.18 388.84,-64.52 388.74,-71.52"/>
</a>
</g>
</g>
<!-- Node7 -->
<g id="Node000007" class="node">
<title>Node7</title>
<g id="a_Node000007"><a xlink:href="../../de/d90/class_amplitude.html#a84c13ffcb23dbc17b2020406ea372d77" target="_top" xlink:title=" ">
<polygon fill="white" stroke="#666666" points="547,-41 362,-41 362,-21 547,-21 547,-41"/>
<text text-anchor="middle" x="454.5" y="-28.2" font-family="Consolas" font-size="11.00">Amplitude::set_start_time</text>
</a>
</g>
</g>
<!-- Node5&#45;&gt;Node7 -->
<g id="edge6_Node000005_Node000007" class="edge">
<title>Node5&#45;&gt;Node7</title>
<g id="a_edge6_Node000005_Node000007"><a xlink:title=" ">
<path fill="none" stroke="#63b8ff" d="M326.06,-53.41C345.8,-49.94 367.13,-46.19 386.59,-42.77"/>
<polygon fill="#63b8ff" stroke="#63b8ff" points="387.34,-46.19 396.58,-41.01 386.13,-39.3 387.34,-46.19"/>
</a>
</g>
</g>
</g>
</svg>
