<?xml version="1.0" encoding="UTF-8" standalone="no"?>
<!DOCTYPE svg PUBLIC "-//W3C//DTD SVG 1.1//EN"
 "http://www.w3.org/Graphics/SVG/1.1/DTD/svg11.dtd">
<!-- Generated by graphviz version 2.43.0 (0)
 -->
<!-- Title: Integrator::process_load_resistance Pages: 1 -->
<svg width="549pt" height="40pt"
 viewBox="0.00 0.00 549.00 40.00" xmlns="http://www.w3.org/2000/svg" xmlns:xlink="http://www.w3.org/1999/xlink">
<g id="graph0" class="graph" transform="scale(1 1) rotate(0) translate(4 36)">
<title>Integrator::process_load_resistance</title>
<!-- Node1 -->
<g id="Node000001" class="node">
<title>Node1</title>
<g id="a_Node000001"><a xlink:title=" ">
<polygon fill="#999999" stroke="#666666" points="145,-32 0,-32 0,0 145,0 145,-32"/>
<text text-anchor="start" x="8" y="-19.2" font-family="Consolas" font-size="11.00">Integrator::process</text>
<text text-anchor="middle" x="72.5" y="-7.2" font-family="Consolas" font-size="11.00">_load_resistance</text>
</a>
</g>
</g>
<!-- Node2 -->
<g id="Node000002" class="node">
<title>Node2</title>
<g id="a_Node000002"><a xlink:href="../../d6/d55/class_integrator.html#adbdded9885b8b8fcc7318f1b3a3db8ba" target="_top" xlink:title=" ">
<polygon fill="white" stroke="#666666" points="326,-32 181,-32 181,0 326,0 326,-32"/>
<text text-anchor="start" x="189" y="-19.2" font-family="Consolas" font-size="11.00">Integrator::process</text>
<text text-anchor="middle" x="253.5" y="-7.2" font-family="Consolas" font-size="11.00">_load_impl</text>
</a>
</g>
</g>
<!-- Node1&#45;&gt;Node2 -->
<g id="edge1_Node000001_Node000002" class="edge">
<title>Node1&#45;&gt;Node2</title>
<g id="a_edge1_Node000001_Node000002"><a xlink:title=" ">
<path fill="none" stroke="#63b8ff" d="M145.02,-16C153.49,-16 162.18,-16 170.78,-16"/>
<polygon fill="#63b8ff" stroke="#63b8ff" points="170.8,-19.5 180.8,-16 170.8,-12.5 170.8,-19.5"/>
</a>
</g>
</g>
<!-- Node3 -->
<g id="Node000003" class="node">
<title>Node3</title>
<g id="a_Node000003"><a xlink:href="../../d6/d55/class_integrator.html#a04a2acee3c7c1473377356bb97a133fe" target="_top" xlink:title=" ">
<polygon fill="white" stroke="#666666" points="541,-32 362,-32 362,0 541,0 541,-32"/>
<text text-anchor="start" x="370" y="-19.2" font-family="Consolas" font-size="11.00">Integrator::load_scaling</text>
<text text-anchor="middle" x="451.5" y="-7.2" font-family="Consolas" font-size="11.00">_factor</text>
</a>
</g>
</g>
<!-- Node2&#45;&gt;Node3 -->
<g id="edge2_Node000002_Node000003" class="edge">
<title>Node2&#45;&gt;Node3</title>
<g id="a_edge2_Node000002_Node000003"><a xlink:title=" ">
<path fill="none" stroke="#63b8ff" d="M326.09,-16C334.42,-16 343.03,-16 351.65,-16"/>
<polygon fill="#63b8ff" stroke="#63b8ff" points="351.75,-19.5 361.75,-16 351.75,-12.5 351.75,-19.5"/>
</a>
</g>
</g>
</g>
</svg>
