<?xml version="1.0" encoding="UTF-8" standalone="no"?>
<!DOCTYPE svg PUBLIC "-//W3C//DTD SVG 1.1//EN"
 "http://www.w3.org/Graphics/SVG/1.1/DTD/svg11.dtd">
<!-- Generated by graphviz version 2.43.0 (0)
 -->
<!-- Title: SimpleSand::update_trial_status Pages: 1 -->
<svg width="823pt" height="262pt"
 viewBox="0.00 0.00 823.00 262.00" xmlns="http://www.w3.org/2000/svg" xmlns:xlink="http://www.w3.org/1999/xlink">
<g id="graph0" class="graph" transform="scale(1 1) rotate(0) translate(4 258)">
<title>SimpleSand::update_trial_status</title>
<polygon fill="white" stroke="transparent" points="-4,4 -4,-258 819,-258 819,4 -4,4"/>
<!-- Node1 -->
<g id="node1" class="node">
<title>Node1</title>
<g id="a_node1"><a xlink:title=" ">
<polygon fill="#bfbfbf" stroke="black" points="0,-111.5 0,-143.5 138,-143.5 138,-111.5 0,-111.5"/>
<text text-anchor="start" x="8" y="-130.7" font-family="Consolas" font-size="11.00">SimpleSand::update</text>
<text text-anchor="middle" x="69" y="-118.7" font-family="Consolas" font-size="11.00">_trial_status</text>
</a>
</g>
</g>
<!-- Node2 -->
<g id="node2" class="node">
<title>Node2</title>
<g id="a_node2"><a xlink:href="../../dd/d8c/namespacetensor.html#a82bcab854febeba7c0d66c204ff09052" target="_top" xlink:title=" ">
<polygon fill="white" stroke="black" points="204.5,-233.5 204.5,-253.5 295.5,-253.5 295.5,-233.5 204.5,-233.5"/>
<text text-anchor="middle" x="250" y="-240.7" font-family="Consolas" font-size="11.00">tensor::dev</text>
</a>
</g>
</g>
<!-- Node1&#45;&gt;Node2 -->
<g id="edge1" class="edge">
<title>Node1&#45;&gt;Node2</title>
<path fill="none" stroke="midnightblue" d="M84.68,-143.84C103.56,-163.96 138.19,-197.99 174,-218.5 181.96,-223.06 190.87,-226.94 199.7,-230.19"/>
<polygon fill="midnightblue" stroke="midnightblue" points="198.6,-233.51 209.2,-233.47 200.89,-226.9 198.6,-233.51"/>
</g>
<!-- Node3 -->
<g id="node3" class="node">
<title>Node3</title>
<g id="a_node3"><a xlink:href="../../dd/d8c/namespacetensor.html#a735fc96d0b8bcb54fd29f2660d97a2ca" target="_top" xlink:title=" ">
<polygon fill="white" stroke="black" points="386,-195.5 386,-215.5 490,-215.5 490,-195.5 386,-195.5"/>
<text text-anchor="middle" x="438" y="-202.7" font-family="Consolas" font-size="11.00">tensor::mean3</text>
</a>
</g>
</g>
<!-- Node1&#45;&gt;Node3 -->
<g id="edge10" class="edge">
<title>Node1&#45;&gt;Node3</title>
<path fill="none" stroke="midnightblue" d="M94.95,-143.62C115.35,-155.94 145.4,-172.18 174,-180.5 241.03,-199.99 321.31,-205.15 375.4,-206.12"/>
<polygon fill="midnightblue" stroke="midnightblue" points="375.47,-209.62 385.52,-206.26 375.57,-202.62 375.47,-209.62"/>
</g>
<!-- Node4 -->
<g id="node4" class="node">
<title>Node4</title>
<g id="a_node4"><a xlink:href="../../dd/d8c/namespacetensor.html#a36216f68489b10fcf90423c293da6e1f" target="_top" xlink:title="Only accepts 3D tensor!">
<polygon fill="white" stroke="black" points="553.5,-175.5 553.5,-195.5 664.5,-195.5 664.5,-175.5 553.5,-175.5"/>
<text text-anchor="middle" x="609" y="-182.7" font-family="Consolas" font-size="11.00">tensor::trace3</text>
</a>
</g>
</g>
<!-- Node1&#45;&gt;Node4 -->
<g id="edge13" class="edge">
<title>Node1&#45;&gt;Node4</title>
<path fill="none" stroke="midnightblue" d="M138.08,-141.63C150.02,-143.81 162.35,-145.87 174,-147.5 304.47,-165.71 458.3,-176.73 543.31,-181.92"/>
<polygon fill="midnightblue" stroke="midnightblue" points="543.14,-185.41 553.33,-182.52 543.56,-178.42 543.14,-185.41"/>
</g>
<!-- Node6 -->
<g id="node6" class="node">
<title>Node6</title>
<g id="a_node6"><a xlink:href="../../d6/d9c/namespacesuanpan.html#a6364aee09d05c5aea905aa0df10bf22a" target="_top" xlink:title=" ">
<polygon fill="white" stroke="black" points="194.5,-117.5 194.5,-137.5 305.5,-137.5 305.5,-117.5 194.5,-117.5"/>
<text text-anchor="middle" x="250" y="-124.7" font-family="Consolas" font-size="11.00">suanpan::error</text>
</a>
</g>
</g>
<!-- Node1&#45;&gt;Node6 -->
<g id="edge5" class="edge">
<title>Node1&#45;&gt;Node6</title>
<path fill="none" stroke="midnightblue" d="M138.18,-127.5C153.27,-127.5 169.22,-127.5 184.18,-127.5"/>
<polygon fill="midnightblue" stroke="midnightblue" points="184.35,-131 194.35,-127.5 184.35,-124 184.35,-131"/>
</g>
<!-- Node9 -->
<g id="node9" class="node">
<title>Node9</title>
<g id="a_node9"><a xlink:href="../../d8/d8f/suan_pan_8h.html#aabc8e74c925174d0bab6339761ce05a9" target="_top" xlink:title=" ">
<polygon fill="white" stroke="black" points="214.5,-78.5 214.5,-98.5 285.5,-98.5 285.5,-78.5 214.5,-78.5"/>
<text text-anchor="middle" x="250" y="-85.7" font-family="Consolas" font-size="11.00">inf_norm</text>
</a>
</g>
</g>
<!-- Node1&#45;&gt;Node9 -->
<g id="edge8" class="edge">
<title>Node1&#45;&gt;Node9</title>
<path fill="none" stroke="midnightblue" d="M138.18,-112.64C160.23,-107.84 184.1,-102.64 204.03,-98.3"/>
<polygon fill="midnightblue" stroke="midnightblue" points="205.03,-101.66 214.05,-96.11 203.54,-94.82 205.03,-101.66"/>
</g>
<!-- Node10 -->
<g id="node10" class="node">
<title>Node10</title>
<g id="a_node10"><a xlink:href="../../d2/dfc/namespacetensor_1_1strain.html#a86200e5f690b2fe54ca08f6a2a721ab0" target="_top" xlink:title=" ">
<polygon fill="white" stroke="black" points="362,-59.5 362,-79.5 514,-79.5 514,-59.5 362,-59.5"/>
<text text-anchor="middle" x="438" y="-66.7" font-family="Consolas" font-size="11.00">tensor::strain::norm</text>
</a>
</g>
</g>
<!-- Node1&#45;&gt;Node10 -->
<g id="edge11" class="edge">
<title>Node1&#45;&gt;Node10</title>
<path fill="none" stroke="midnightblue" d="M90.88,-111.31C110.92,-96.86 142.69,-76.76 174,-68.5 233.83,-52.71 304.01,-53.92 356.83,-58.55"/>
<polygon fill="midnightblue" stroke="midnightblue" points="356.53,-62.04 366.81,-59.49 357.18,-55.07 356.53,-62.04"/>
</g>
<!-- Node11 -->
<g id="node11" class="node">
<title>Node11</title>
<g id="a_node11"><a xlink:href="../../d7/dfe/namespacetensor_1_1stress.html#abbd4c67ff74e768ef7c8bdaf1ca28011" target="_top" xlink:title=" ">
<polygon fill="white" stroke="black" points="174,-0.5 174,-20.5 326,-20.5 326,-0.5 174,-0.5"/>
<text text-anchor="middle" x="250" y="-7.7" font-family="Consolas" font-size="11.00">tensor::stress::norm</text>
</a>
</g>
</g>
<!-- Node1&#45;&gt;Node11 -->
<g id="edge12" class="edge">
<title>Node1&#45;&gt;Node11</title>
<path fill="none" stroke="midnightblue" d="M84.31,-111.33C103.08,-91.02 137.87,-56.33 174,-35.5 181.78,-31.02 190.47,-27.19 199.11,-23.98"/>
<polygon fill="midnightblue" stroke="midnightblue" points="200.49,-27.21 208.79,-20.62 198.2,-20.6 200.49,-27.21"/>
</g>
<!-- Node2&#45;&gt;Node3 -->
<g id="edge2" class="edge">
<title>Node2&#45;&gt;Node3</title>
<path fill="none" stroke="midnightblue" d="M295.55,-234.4C320.23,-229.36 351.23,-223.02 377.92,-217.57"/>
<polygon fill="midnightblue" stroke="midnightblue" points="378.81,-220.96 387.91,-215.53 377.41,-214.1 378.81,-220.96"/>
</g>
<!-- Node3&#45;&gt;Node4 -->
<g id="edge3" class="edge">
<title>Node3&#45;&gt;Node4</title>
<path fill="none" stroke="midnightblue" d="M490.16,-199.45C506.89,-197.47 525.7,-195.24 543.29,-193.16"/>
<polygon fill="midnightblue" stroke="midnightblue" points="543.97,-196.6 553.49,-191.95 543.14,-189.65 543.97,-196.6"/>
</g>
<!-- Node5 -->
<g id="node5" class="node">
<title>Node5</title>
<g id="a_node5"><a xlink:href="../../d8/d8f/suan_pan_8h.html#aa87073491bf65bc79b4d8b6c2a613d06" target="_top" xlink:title=" ">
<polygon fill="white" stroke="black" points="704,-175.5 704,-195.5 815,-195.5 815,-175.5 704,-175.5"/>
<text text-anchor="middle" x="759.5" y="-182.7" font-family="Consolas" font-size="11.00">suanpan_assert</text>
</a>
</g>
</g>
<!-- Node4&#45;&gt;Node5 -->
<g id="edge4" class="edge">
<title>Node4&#45;&gt;Node5</title>
<path fill="none" stroke="midnightblue" d="M664.87,-185.5C674.22,-185.5 684,-185.5 693.58,-185.5"/>
<polygon fill="midnightblue" stroke="midnightblue" points="693.85,-189 703.85,-185.5 693.85,-182 693.85,-189"/>
</g>
<!-- Node7 -->
<g id="node7" class="node">
<title>Node7</title>
<g id="a_node7"><a xlink:href="../../d6/d9c/namespacesuanpan.html#af26b1f056af3bc51fd1e9730a6f8f5d5" target="_top" xlink:title=" ">
<polygon fill="white" stroke="black" points="375.5,-117.5 375.5,-137.5 500.5,-137.5 500.5,-117.5 375.5,-117.5"/>
<text text-anchor="middle" x="438" y="-124.7" font-family="Consolas" font-size="11.00">suanpan::pattern</text>
</a>
</g>
</g>
<!-- Node6&#45;&gt;Node7 -->
<g id="edge6" class="edge">
<title>Node6&#45;&gt;Node7</title>
<path fill="none" stroke="midnightblue" d="M305.55,-127.5C324.17,-127.5 345.29,-127.5 365.07,-127.5"/>
<polygon fill="midnightblue" stroke="midnightblue" points="365.26,-131 375.26,-127.5 365.26,-124 365.26,-131"/>
</g>
<!-- Node8 -->
<g id="node8" class="node">
<title>Node8</title>
<g id="a_node8"><a xlink:href="../../d6/d9c/namespacesuanpan.html#af5e8068c6fb641e56f233b07246e95e2" target="_top" xlink:title=" ">
<polygon fill="white" stroke="black" points="550,-117.5 550,-137.5 668,-137.5 668,-117.5 550,-117.5"/>
<text text-anchor="middle" x="609" y="-124.7" font-family="Consolas" font-size="11.00">suanpan::format</text>
</a>
</g>
</g>
<!-- Node7&#45;&gt;Node8 -->
<g id="edge7" class="edge">
<title>Node7&#45;&gt;Node8</title>
<path fill="none" stroke="midnightblue" d="M500.97,-127.5C513.61,-127.5 526.97,-127.5 539.81,-127.5"/>
<polygon fill="midnightblue" stroke="midnightblue" points="539.97,-131 549.97,-127.5 539.97,-124 539.97,-131"/>
</g>
<!-- Node9&#45;&gt;Node10 -->
<g id="edge9" class="edge">
<title>Node9&#45;&gt;Node10</title>
<path fill="none" stroke="midnightblue" d="M285.55,-84.97C304.3,-83.06 328.39,-80.59 351.81,-78.2"/>
<polygon fill="midnightblue" stroke="midnightblue" points="352.19,-81.68 361.79,-77.18 351.48,-74.72 352.19,-81.68"/>
</g>
</g>
</svg>
