<?xml version="1.0" encoding="UTF-8" standalone="no"?>
<!DOCTYPE svg PUBLIC "-//W3C//DTD SVG 1.1//EN"
 "http://www.w3.org/Graphics/SVG/1.1/DTD/svg11.dtd">
<!-- Generated by graphviz version 2.43.0 (0)
 -->
<!-- Title: new_cpe8 Pages: 1 -->
<svg width="299pt" height="68pt"
 viewBox="0.00 0.00 299.00 68.00" xmlns="http://www.w3.org/2000/svg" xmlns:xlink="http://www.w3.org/1999/xlink">
<g id="graph0" class="graph" transform="scale(1 1) rotate(0) translate(4 64)">
<title>new_cpe8</title>
<polygon fill="white" stroke="transparent" points="-4,4 -4,-64 295,-64 295,4 -4,4"/>
<!-- Node1 -->
<g id="node1" class="node">
<title>Node1</title>
<g id="a_node1"><a xlink:title=" ">
<polygon fill="#bfbfbf" stroke="black" points="0,-19.5 0,-39.5 71,-39.5 71,-19.5 0,-19.5"/>
<text text-anchor="middle" x="35.5" y="-26.7" font-family="Consolas" font-size="11.00">new_cpe8</text>
</a>
</g>
</g>
<!-- Node2 -->
<g id="node2" class="node">
<title>Node2</title>
<g id="a_node2"><a xlink:href="../../d5/d47/utility_8h.html#a28b47ba8588036035501b1cf8cf51812" target="_top" xlink:title=" ">
<polygon fill="white" stroke="black" points="107,-39.5 107,-59.5 184,-59.5 184,-39.5 107,-39.5"/>
<text text-anchor="middle" x="145.5" y="-46.7" font-family="Consolas" font-size="11.00">get_input</text>
</a>
</g>
</g>
<!-- Node1&#45;&gt;Node2 -->
<g id="edge1" class="edge">
<title>Node1&#45;&gt;Node2</title>
<path fill="none" stroke="midnightblue" d="M71.27,-35.94C79.42,-37.45 88.25,-39.08 96.86,-40.68"/>
<polygon fill="midnightblue" stroke="midnightblue" points="96.34,-44.14 106.81,-42.52 97.62,-37.26 96.34,-44.14"/>
</g>
<!-- Node3 -->
<g id="node3" class="node">
<title>Node3</title>
<g id="a_node3"><a xlink:href="../../dc/dfa/utility_8cpp.html#aadeba583a4314ba6bcdd2c05a7c877ca" target="_top" xlink:title=" ">
<polygon fill="white" stroke="black" points="113.5,-0.5 113.5,-20.5 177.5,-20.5 177.5,-0.5 113.5,-0.5"/>
<text text-anchor="middle" x="145.5" y="-7.7" font-family="Consolas" font-size="11.00">is_true</text>
</a>
</g>
</g>
<!-- Node1&#45;&gt;Node3 -->
<g id="edge2" class="edge">
<title>Node1&#45;&gt;Node3</title>
<path fill="none" stroke="midnightblue" d="M71.27,-23.38C81.55,-21.58 92.9,-19.58 103.53,-17.71"/>
<polygon fill="midnightblue" stroke="midnightblue" points="104.21,-21.14 113.45,-15.96 102.99,-14.25 104.21,-21.14"/>
</g>
<!-- Node4 -->
<g id="node4" class="node">
<title>Node4</title>
<g id="a_node4"><a xlink:href="../../dc/dfa/utility_8cpp.html#aec5c03b9af3b75833d6e8a674d88f5fd" target="_top" xlink:title=" ">
<polygon fill="white" stroke="black" points="220,-0.5 220,-20.5 291,-20.5 291,-0.5 220,-0.5"/>
<text text-anchor="middle" x="255.5" y="-7.7" font-family="Consolas" font-size="11.00">is_equal</text>
</a>
</g>
</g>
<!-- Node3&#45;&gt;Node4 -->
<g id="edge3" class="edge">
<title>Node3&#45;&gt;Node4</title>
<path fill="none" stroke="midnightblue" d="M177.74,-10.5C187.75,-10.5 199.03,-10.5 209.81,-10.5"/>
<polygon fill="midnightblue" stroke="midnightblue" points="209.92,-14 219.92,-10.5 209.92,-7 209.92,-14"/>
</g>
</g>
</svg>
