<?xml version="1.0" encoding="UTF-8" standalone="no"?>
<!DOCTYPE svg PUBLIC "-//W3C//DTD SVG 1.1//EN"
 "http://www.w3.org/Graphics/SVG/1.1/DTD/svg11.dtd">
<!-- Generated by graphviz version 5.0.0 (0)
 -->
<!-- Title: Constraint/ParticleCollision3D.cpp Pages: 1 -->
<!--zoomable 668 -->
<svg id="main" version="1.1" xmlns="http://www.w3.org/2000/svg" xmlns:xlink="http://www.w3.org/1999/xlink" xml:space="preserve" onload="init(evt)">
<style type="text/css"><![CDATA[
.edge:hover path { stroke: red; }
.edge:hover polygon { stroke: red; fill: red; }
]]></style>
<script type="text/javascript"><![CDATA[
var edges = document.getElementsByTagName('g');
if (edges && edges.length) {
  for (var i=0;i<edges.length;i++) {
    if (edges[i].id.substr(0,4)=='edge') {
      edges[i].setAttribute('class','edge');
    }
  }
}
]]></script>
        <defs>
                <circle id="rim" cx="0" cy="0" r="7"/>
                <circle id="rim2" cx="0" cy="0" r="3.5"/>
                <g id="zoomPlus">
                        <use xlink:href="#rim" fill="#404040">
                                <set attributeName="fill" to="#808080" begin="zoomplus.mouseover" end="zoomplus.mouseout"/>
                        </use>
                        <path d="M-4,0h8M0,-4v8" fill="none" stroke="white" stroke-width="1.5" pointer-events="none"/>
                </g>
                <g id="zoomMin">
                        <use xlink:href="#rim" fill="#404040">
                                <set attributeName="fill" to="#808080" begin="zoomminus.mouseover" end="zoomminus.mouseout"/>
                        </use>
                        <path d="M-4,0h8" fill="none" stroke="white" stroke-width="1.5" pointer-events="none"/>
                </g>
                <g id="dirArrow">
                        <path fill="none" stroke="white" stroke-width="1.5" d="M0,-3.0v7 M-2.5,-0.5L0,-3.0L2.5,-0.5"/>
                </g>
               <g id="resetDef">
                       <use xlink:href="#rim2" fill="#404040">
                               <set attributeName="fill" to="#808080" begin="reset.mouseover" end="reset.mouseout"/>
                       </use>
               </g>
        </defs>

<script type="text/javascript">
var viewWidth = 1392;
var viewHeight = 668;
var sectionId = 'dynsection-0';
</script>
<script xlink:href="../../svgpan.js"/>
<svg id="graph" class="graph">
<g id="viewport">
<title>Constraint/ParticleCollision3D.cpp</title>
<!-- Node1 -->
<g id="node1" class="node">
<title>Node1</title>
<g id="a_node1"><a xlink:title=" ">
<polygon fill="#999999" stroke="#666666" points="435,-660 223,-660 223,-628 435,-628 435,-660"/>
<text text-anchor="start" x="231" y="-647.2" font-family="Consolas" font-size="11.00">Constraint/ParticleCollision3</text>
<text text-anchor="middle" x="329" y="-635.2" font-family="Consolas" font-size="11.00">D.cpp</text>
</a>
</g>
</g>
<!-- Node2 -->
<g id="node2" class="node">
<title>Node2</title>
<g id="a_node2"><a xlink:href="../../da/d4a/_particle_collision3_d_8h.html" target="_top" xlink:title=" ">
<polygon fill="white" stroke="#666666" points="243,-592 85,-592 85,-572 243,-572 243,-592"/>
<text text-anchor="middle" x="164" y="-579.2" font-family="Consolas" font-size="11.00">ParticleCollision3D.h</text>
</a>
</g>
</g>
<!-- Node1&#45;&gt;Node2 -->
<g id="edge1" class="edge">
<title>Node1&#45;&gt;Node2</title>
<path fill="none" stroke="#63b8ff" d="M287.36,-627.86C259.94,-617.89 224.45,-604.98 198.58,-595.57"/>
<polygon fill="#63b8ff" stroke="#63b8ff" points="199.77,-592.28 189.17,-592.15 197.37,-598.86 199.77,-592.28"/>
</g>
<!-- Node15 -->
<g id="node15" class="node">
<title>Node15</title>
<g id="a_node15"><a xlink:href="../../dc/df2/_domain_base_8h.html" target="_top" xlink:title=" ">
<polygon fill="white" stroke="#666666" points="462.5,-592 317.5,-592 317.5,-572 462.5,-572 462.5,-592"/>
<text text-anchor="middle" x="390" y="-579.2" font-family="Consolas" font-size="11.00">Domain/DomainBase.h</text>
</a>
</g>
</g>
<!-- Node1&#45;&gt;Node15 -->
<g id="edge14" class="edge">
<title>Node1&#45;&gt;Node15</title>
<path fill="none" stroke="#63b8ff" d="M344.39,-627.86C353.24,-619.16 364.35,-608.23 373.39,-599.34"/>
<polygon fill="#63b8ff" stroke="#63b8ff" points="376.02,-601.66 380.69,-592.15 371.11,-596.67 376.02,-601.66"/>
</g>
<!-- Node22 -->
<g id="node22" class="node">
<title>Node22</title>
<g id="a_node22"><a xlink:href="../../db/d65/_factory_8hpp.html" target="_top" xlink:title=" ">
<polygon fill="white" stroke="#666666" points="624,-592 486,-592 486,-572 624,-572 624,-592"/>
<text text-anchor="middle" x="555" y="-579.2" font-family="Consolas" font-size="11.00">Domain/Factory.hpp</text>
</a>
</g>
</g>
<!-- Node1&#45;&gt;Node22 -->
<g id="edge23" class="edge">
<title>Node1&#45;&gt;Node22</title>
<path fill="none" stroke="#63b8ff" d="M385.74,-627.94C424.7,-617.59 475.64,-604.07 511.42,-594.57"/>
<polygon fill="#63b8ff" stroke="#63b8ff" points="512.32,-597.95 521.09,-592 510.53,-591.19 512.32,-597.95"/>
</g>
<!-- Node39 -->
<g id="node39" class="node">
<title>Node39</title>
<g id="a_node39"><a xlink:href="../../d1/d02/_node_8h.html" target="_top" xlink:title=" ">
<polygon fill="white" stroke="#666666" points="328,-412 224,-412 224,-392 328,-392 328,-412"/>
<text text-anchor="middle" x="276" y="-399.2" font-family="Consolas" font-size="11.00">Domain/Node.h</text>
</a>
</g>
</g>
<!-- Node1&#45;&gt;Node39 -->
<g id="edge50" class="edge">
<title>Node1&#45;&gt;Node39</title>
<path fill="none" stroke="#63b8ff" d="M322.05,-627.65C317.76,-617.67 312.44,-604.27 309,-592 291.96,-531.2 282.06,-456.81 278.07,-422.29"/>
<polygon fill="#63b8ff" stroke="#63b8ff" points="281.53,-421.74 276.94,-412.19 274.57,-422.52 281.53,-421.74"/>
</g>
<!-- Node3 -->
<g id="node3" class="node">
<title>Node3</title>
<g id="a_node3"><a xlink:href="../../dc/da5/_particle_collision_8h.html" target="_top" xlink:title=" ">
<polygon fill="white" stroke="#666666" points="220.5,-530 75.5,-530 75.5,-510 220.5,-510 220.5,-530"/>
<text text-anchor="middle" x="148" y="-517.2" font-family="Consolas" font-size="11.00">ParticleCollision.h</text>
</a>
</g>
</g>
<!-- Node2&#45;&gt;Node3 -->
<g id="edge2" class="edge">
<title>Node2&#45;&gt;Node3</title>
<path fill="none" stroke="#63b8ff" d="M161.57,-571.89C159.31,-563.43 155.89,-550.57 153.04,-539.9"/>
<polygon fill="#63b8ff" stroke="#63b8ff" points="156.41,-538.96 150.45,-530.2 149.65,-540.76 156.41,-538.96"/>
</g>
<!-- Node4 -->
<g id="node4" class="node">
<title>Node4</title>
<g id="a_node4"><a xlink:href="../../d4/d54/_constraint_8h.html" target="_top" xlink:title=" ">
<polygon fill="white" stroke="#666666" points="164,-468 66,-468 66,-448 164,-448 164,-468"/>
<text text-anchor="middle" x="115" y="-455.2" font-family="Consolas" font-size="11.00">Constraint.h</text>
</a>
</g>
</g>
<!-- Node3&#45;&gt;Node4 -->
<g id="edge3" class="edge">
<title>Node3&#45;&gt;Node4</title>
<path fill="none" stroke="#63b8ff" d="M142.99,-509.89C138.24,-501.25 130.97,-488.04 125.03,-477.24"/>
<polygon fill="#63b8ff" stroke="#63b8ff" points="127.95,-475.27 120.06,-468.2 121.81,-478.65 127.95,-475.27"/>
</g>
<!-- Node5 -->
<g id="node5" class="node">
<title>Node5</title>
<g id="a_node5"><a xlink:href="../../d1/d78/_conditional_modifier_8h.html" target="_top" xlink:title=" ">
<polygon fill="white" stroke="#666666" points="206,-412 0,-412 0,-392 206,-392 206,-412"/>
<text text-anchor="middle" x="103" y="-399.2" font-family="Consolas" font-size="11.00">Domain/ConditionalModifier.h</text>
</a>
</g>
</g>
<!-- Node4&#45;&gt;Node5 -->
<g id="edge4" class="edge">
<title>Node4&#45;&gt;Node5</title>
<path fill="none" stroke="#63b8ff" d="M112.91,-447.59C111.36,-440.63 109.2,-430.89 107.29,-422.29"/>
<polygon fill="#63b8ff" stroke="#63b8ff" points="110.65,-421.3 105.07,-412.3 103.82,-422.82 110.65,-421.3"/>
</g>
<!-- Node6 -->
<g id="node6" class="node">
<title>Node6</title>
<g id="a_node6"><a xlink:href="../../d2/d4a/_tag_8h.html" target="_top" xlink:title=" ">
<polygon fill="white" stroke="#666666" points="365,-356 267,-356 267,-336 365,-336 365,-356"/>
<text text-anchor="middle" x="316" y="-343.2" font-family="Consolas" font-size="11.00">Domain/Tag.h</text>
</a>
</g>
</g>
<!-- Node5&#45;&gt;Node6 -->
<g id="edge5" class="edge">
<title>Node5&#45;&gt;Node6</title>
<path fill="none" stroke="#63b8ff" d="M138.65,-391.96C174.82,-382.79 230.95,-368.56 270.35,-358.57"/>
<polygon fill="#63b8ff" stroke="#63b8ff" points="271.4,-361.92 280.23,-356.07 269.68,-355.13 271.4,-361.92"/>
</g>
<!-- Node7 -->
<g id="node7" class="node">
<title>Node7</title>
<g id="a_node7"><a xlink:href="../../d8/d8f/suan_pan_8h.html" target="_top" xlink:title=" ">
<polygon fill="white" stroke="#666666" points="812.5,-76 735.5,-76 735.5,-56 812.5,-56 812.5,-76"/>
<text text-anchor="middle" x="774" y="-63.2" font-family="Consolas" font-size="11.00">suanPan.h</text>
</a>
</g>
</g>
<!-- Node6&#45;&gt;Node7 -->
<g id="edge6" class="edge">
<title>Node6&#45;&gt;Node7</title>
<path fill="none" stroke="#63b8ff" d="M365.2,-339.22C423.84,-329.27 514,-302.93 514,-235 514,-235 514,-235 514,-177 514,-86.3 649.85,-69.25 725.15,-66.76"/>
<polygon fill="#63b8ff" stroke="#63b8ff" points="725.45,-70.26 735.36,-66.5 725.27,-63.26 725.45,-70.26"/>
</g>
<!-- Node8 -->
<g id="node8" class="node">
<title>Node8</title>
<g id="a_node8"><a xlink:title=" ">
<polygon fill="#e0e0e0" stroke="#999999" points="444.5,-20 373.5,-20 373.5,0 444.5,0 444.5,-20"/>
<text text-anchor="middle" x="409" y="-7.2" font-family="Consolas" font-size="11.00">iostream</text>
</a>
</g>
</g>
<!-- Node7&#45;&gt;Node8 -->
<g id="edge7" class="edge">
<title>Node7&#45;&gt;Node8</title>
<path fill="none" stroke="#63b8ff" d="M735.47,-60.31C677.07,-53.04 562.42,-38.16 454.88,-20.06"/>
<polygon fill="#63b8ff" stroke="#63b8ff" points="455.27,-16.58 444.83,-18.36 454.1,-23.48 455.27,-16.58"/>
</g>
<!-- Node9 -->
<g id="node9" class="node">
<title>Node9</title>
<g id="a_node9"><a xlink:title=" ">
<polygon fill="#e0e0e0" stroke="#999999" points="607.5,-20 462.5,-20 462.5,0 607.5,0 607.5,-20"/>
<text text-anchor="middle" x="535" y="-7.2" font-family="Consolas" font-size="11.00">armadillo/armadillo</text>
</a>
</g>
</g>
<!-- Node7&#45;&gt;Node9 -->
<g id="edge8" class="edge">
<title>Node7&#45;&gt;Node9</title>
<path fill="none" stroke="#63b8ff" d="M735.33,-56.26C694.43,-47.02 629.75,-32.41 585,-22.3"/>
<polygon fill="#63b8ff" stroke="#63b8ff" points="585.73,-18.87 575.21,-20.08 584.19,-25.7 585.73,-18.87"/>
</g>
<!-- Node10 -->
<g id="node10" class="node">
<title>Node10</title>
<g id="a_node10"><a xlink:title=" ">
<polygon fill="#e0e0e0" stroke="#999999" points="710,-20 626,-20 626,0 710,0 710,-20"/>
<text text-anchor="middle" x="668" y="-7.2" font-family="Consolas" font-size="11.00">filesystem</text>
</a>
</g>
</g>
<!-- Node7&#45;&gt;Node10 -->
<g id="edge9" class="edge">
<title>Node7&#45;&gt;Node10</title>
<path fill="none" stroke="#63b8ff" d="M756.02,-55.84C739.24,-47.29 713.99,-34.43 694.84,-24.67"/>
<polygon fill="#63b8ff" stroke="#63b8ff" points="696.22,-21.45 685.72,-20.03 693.04,-27.68 696.22,-21.45"/>
</g>
<!-- Node11 -->
<g id="node11" class="node">
<title>Node11</title>
<g id="a_node11"><a xlink:title=" ">
<polygon fill="#e0e0e0" stroke="#999999" points="819.5,-20 728.5,-20 728.5,0 819.5,0 819.5,-20"/>
<text text-anchor="middle" x="774" y="-7.2" font-family="Consolas" font-size="11.00">fmt/color.h</text>
</a>
</g>
</g>
<!-- Node7&#45;&gt;Node11 -->
<g id="edge10" class="edge">
<title>Node7&#45;&gt;Node11</title>
<path fill="none" stroke="#63b8ff" d="M774,-55.59C774,-48.7 774,-39.1 774,-30.57"/>
<polygon fill="#63b8ff" stroke="#63b8ff" points="777.5,-30.3 774,-20.3 770.5,-30.3 777.5,-30.3"/>
</g>
<!-- Node12 -->
<g id="node12" class="node">
<title>Node12</title>
<g id="a_node12"><a xlink:title=" ">
<polygon fill="#e0e0e0" stroke="#999999" points="888,-20 838,-20 838,0 888,0 888,-20"/>
<text text-anchor="middle" x="863" y="-7.2" font-family="Consolas" font-size="11.00">mutex</text>
</a>
</g>
</g>
<!-- Node7&#45;&gt;Node12 -->
<g id="edge11" class="edge">
<title>Node7&#45;&gt;Node12</title>
<path fill="none" stroke="#63b8ff" d="M789.1,-55.84C802.86,-47.49 823.42,-35.02 839.36,-25.34"/>
<polygon fill="#63b8ff" stroke="#63b8ff" points="841.39,-28.2 848.13,-20.03 837.76,-22.22 841.39,-28.2"/>
</g>
<!-- Node13 -->
<g id="node13" class="node">
<title>Node13</title>
<g id="a_node13"><a xlink:title=" ">
<polygon fill="#e0e0e0" stroke="#999999" points="990,-20 906,-20 906,0 990,0 990,-20"/>
<text text-anchor="middle" x="948" y="-7.2" font-family="Consolas" font-size="11.00">functional</text>
</a>
</g>
</g>
<!-- Node7&#45;&gt;Node13 -->
<g id="edge12" class="edge">
<title>Node7&#45;&gt;Node13</title>
<path fill="none" stroke="#63b8ff" d="M803.12,-55.96C832.11,-46.97 876.77,-33.11 908.85,-23.15"/>
<polygon fill="#63b8ff" stroke="#63b8ff" points="910.27,-26.37 918.78,-20.07 908.19,-19.69 910.27,-26.37"/>
</g>
<!-- Node14 -->
<g id="node14" class="node">
<title>Node14</title>
<g id="a_node14"><a xlink:title=" ">
<polygon fill="#e0e0e0" stroke="#999999" points="1065.5,-20 1008.5,-20 1008.5,0 1065.5,0 1065.5,-20"/>
<text text-anchor="middle" x="1037" y="-7.2" font-family="Consolas" font-size="11.00">memory</text>
</a>
</g>
</g>
<!-- Node7&#45;&gt;Node14 -->
<g id="edge13" class="edge">
<title>Node7&#45;&gt;Node14</title>
<path fill="none" stroke="#63b8ff" d="M812.71,-57.69C855.59,-49.49 927.03,-35.56 998.33,-20.08"/>
<polygon fill="#63b8ff" stroke="#63b8ff" points="999.37,-23.44 1008.39,-17.89 997.87,-16.6 999.37,-23.44"/>
</g>
<!-- Node15&#45;&gt;Node6 -->
<g id="edge16" class="edge">
<title>Node15&#45;&gt;Node6</title>
<path fill="none" stroke="#63b8ff" d="M387.98,-571.78C381.79,-544.1 361.99,-459.42 337,-392 333.67,-383.02 329.28,-373.36 325.37,-365.3"/>
<polygon fill="#63b8ff" stroke="#63b8ff" points="328.39,-363.51 320.79,-356.12 322.12,-366.63 328.39,-363.51"/>
</g>
<!-- Node16 -->
<g id="node16" class="node">
<title>Node16</title>
<g id="a_node16"><a xlink:title=" ">
<polygon fill="#e0e0e0" stroke="#999999" points="454.5,-530 397.5,-530 397.5,-510 454.5,-510 454.5,-530"/>
<text text-anchor="middle" x="426" y="-517.2" font-family="Consolas" font-size="11.00">future</text>
</a>
</g>
</g>
<!-- Node15&#45;&gt;Node16 -->
<g id="edge15" class="edge">
<title>Node15&#45;&gt;Node16</title>
<path fill="none" stroke="#63b8ff" d="M395.47,-571.89C400.7,-563.17 408.74,-549.77 415.26,-538.91"/>
<polygon fill="#63b8ff" stroke="#63b8ff" points="418.34,-540.57 420.48,-530.2 412.33,-536.97 418.34,-540.57"/>
</g>
<!-- Node17 -->
<g id="node17" class="node">
<title>Node17</title>
<g id="a_node17"><a xlink:href="../../d4/ddd/container_8h.html" target="_top" xlink:title=" ">
<polygon fill="white" stroke="#666666" points="630.5,-530 485.5,-530 485.5,-510 630.5,-510 630.5,-530"/>
<text text-anchor="middle" x="558" y="-517.2" font-family="Consolas" font-size="11.00">Toolbox/container.h</text>
</a>
</g>
</g>
<!-- Node15&#45;&gt;Node17 -->
<g id="edge17" class="edge">
<title>Node15&#45;&gt;Node17</title>
<path fill="none" stroke="#63b8ff" d="M415.52,-571.89C444.3,-561.61 491.27,-544.83 523.35,-533.37"/>
<polygon fill="#63b8ff" stroke="#63b8ff" points="524.55,-536.66 532.79,-530 522.2,-530.07 524.55,-536.66"/>
</g>
<!-- Node17&#45;&gt;Node7 -->
<g id="edge18" class="edge">
<title>Node17&#45;&gt;Node7</title>
<path fill="none" stroke="#63b8ff" d="M630.58,-513.38C664.84,-507.13 703.84,-494.26 730,-468 751.24,-446.68 749,-433.1 749,-403 749,-403 749,-403 749,-177 749,-144.33 759.62,-107.53 767.01,-85.85"/>
<polygon fill="#63b8ff" stroke="#63b8ff" points="770.37,-86.85 770.42,-76.26 763.78,-84.51 770.37,-86.85"/>
</g>
<!-- Node18 -->
<g id="node18" class="node">
<title>Node18</title>
<g id="a_node18"><a xlink:title=" ">
<polygon fill="#e0e0e0" stroke="#999999" points="665.5,-468 628.5,-468 628.5,-448 665.5,-448 665.5,-468"/>
<text text-anchor="middle" x="647" y="-455.2" font-family="Consolas" font-size="11.00">set</text>
</a>
</g>
</g>
<!-- Node17&#45;&gt;Node18 -->
<g id="edge19" class="edge">
<title>Node17&#45;&gt;Node18</title>
<path fill="none" stroke="#63b8ff" d="M571.52,-509.89C585.71,-500.32 608.26,-485.12 625.02,-473.82"/>
<polygon fill="#63b8ff" stroke="#63b8ff" points="627.31,-476.49 633.65,-468 623.4,-470.69 627.31,-476.49"/>
</g>
<!-- Node19 -->
<g id="node19" class="node">
<title>Node19</title>
<g id="a_node19"><a xlink:title=" ">
<polygon fill="#e0e0e0" stroke="#999999" points="720.5,-468 683.5,-468 683.5,-448 720.5,-448 720.5,-468"/>
<text text-anchor="middle" x="702" y="-455.2" font-family="Consolas" font-size="11.00">map</text>
</a>
</g>
</g>
<!-- Node17&#45;&gt;Node19 -->
<g id="edge20" class="edge">
<title>Node17&#45;&gt;Node19</title>
<path fill="none" stroke="#63b8ff" d="M579.87,-509.89C604.96,-499.43 646.16,-482.27 673.68,-470.8"/>
<polygon fill="#63b8ff" stroke="#63b8ff" points="675.26,-473.93 683.14,-466.86 672.57,-467.47 675.26,-473.93"/>
</g>
<!-- Node20 -->
<g id="node20" class="node">
<title>Node20</title>
<g id="a_node20"><a xlink:title=" ">
<polygon fill="#e0e0e0" stroke="#999999" points="488,-468 384,-468 384,-448 488,-448 488,-468"/>
<text text-anchor="middle" x="436" y="-455.2" font-family="Consolas" font-size="11.00">unordered_set</text>
</a>
</g>
</g>
<!-- Node17&#45;&gt;Node20 -->
<g id="edge21" class="edge">
<title>Node17&#45;&gt;Node20</title>
<path fill="none" stroke="#63b8ff" d="M539.47,-509.89C519.2,-499.92 486.51,-483.84 463.3,-472.43"/>
<polygon fill="#63b8ff" stroke="#63b8ff" points="464.82,-469.27 454.3,-468 461.73,-475.56 464.82,-469.27"/>
</g>
<!-- Node21 -->
<g id="node21" class="node">
<title>Node21</title>
<g id="a_node21"><a xlink:title=" ">
<polygon fill="#e0e0e0" stroke="#999999" points="610,-468 506,-468 506,-448 610,-448 610,-468"/>
<text text-anchor="middle" x="558" y="-455.2" font-family="Consolas" font-size="11.00">unordered_map</text>
</a>
</g>
</g>
<!-- Node17&#45;&gt;Node21 -->
<g id="edge22" class="edge">
<title>Node17&#45;&gt;Node21</title>
<path fill="none" stroke="#63b8ff" d="M558,-509.89C558,-501.52 558,-488.84 558,-478.23"/>
<polygon fill="#63b8ff" stroke="#63b8ff" points="561.5,-478.2 558,-468.2 554.5,-478.2 561.5,-478.2"/>
</g>
<!-- Node22&#45;&gt;Node16 -->
<g id="edge24" class="edge">
<title>Node22&#45;&gt;Node16</title>
<path fill="none" stroke="#63b8ff" d="M535.41,-571.89C513.88,-561.87 479.1,-545.7 454.54,-534.27"/>
<polygon fill="#63b8ff" stroke="#63b8ff" points="455.9,-531.05 445.35,-530 452.95,-537.39 455.9,-531.05"/>
</g>
<!-- Node22&#45;&gt;Node17 -->
<g id="edge49" class="edge">
<title>Node22&#45;&gt;Node17</title>
<path fill="none" stroke="#63b8ff" d="M555.46,-571.89C555.87,-563.52 556.51,-550.84 557.04,-540.23"/>
<polygon fill="#63b8ff" stroke="#63b8ff" points="560.54,-540.36 557.54,-530.2 553.54,-540.01 560.54,-540.36"/>
</g>
<!-- Node23 -->
<g id="node23" class="node">
<title>Node23</title>
<g id="a_node23"><a xlink:href="../../da/dcc/operator__times_8hpp.html" target="_top" xlink:title=" ">
<polygon fill="white" stroke="#666666" points="922,-536 750,-536 750,-504 922,-504 922,-536"/>
<text text-anchor="start" x="758" y="-523.2" font-family="Consolas" font-size="11.00">Domain/MetaMat/operator</text>
<text text-anchor="middle" x="836" y="-511.2" font-family="Consolas" font-size="11.00">_times.hpp</text>
</a>
</g>
</g>
<!-- Node22&#45;&gt;Node23 -->
<g id="edge25" class="edge">
<title>Node22&#45;&gt;Node23</title>
<path fill="none" stroke="#63b8ff" d="M597.37,-571.95C639.22,-563.02 704.25,-549.13 755.86,-538.11"/>
<polygon fill="#63b8ff" stroke="#63b8ff" points="756.62,-541.53 765.67,-536.02 755.16,-534.68 756.62,-541.53"/>
</g>
<!-- Node24 -->
<g id="node24" class="node">
<title>Node24</title>
<g id="a_node24"><a xlink:href="../../d3/de0/_full_mat_8hpp.html" target="_top" xlink:title=" ">
<polygon fill="white" stroke="#666666" points="1004.5,-468 913.5,-468 913.5,-448 1004.5,-448 1004.5,-468"/>
<text text-anchor="middle" x="959" y="-455.2" font-family="Consolas" font-size="11.00">FullMat.hpp</text>
</a>
</g>
</g>
<!-- Node23&#45;&gt;Node24 -->
<g id="edge26" class="edge">
<title>Node23&#45;&gt;Node24</title>
<path fill="none" stroke="#63b8ff" d="M867.04,-503.86C886.76,-494.24 912.08,-481.89 931.16,-472.58"/>
<polygon fill="#63b8ff" stroke="#63b8ff" points="932.78,-475.68 940.24,-468.15 929.71,-469.39 932.78,-475.68"/>
</g>
<!-- Node38 -->
<g id="node38" class="node">
<title>Node38</title>
<g id="a_node38"><a xlink:href="../../d0/d1a/_symm_pack_mat_8hpp.html" target="_top" xlink:title=" ">
<polygon fill="white" stroke="#666666" points="895,-468 777,-468 777,-448 895,-448 895,-468"/>
<text text-anchor="middle" x="836" y="-455.2" font-family="Consolas" font-size="11.00">SymmPackMat.hpp</text>
</a>
</g>
</g>
<!-- Node23&#45;&gt;Node38 -->
<g id="edge47" class="edge">
<title>Node23&#45;&gt;Node38</title>
<path fill="none" stroke="#63b8ff" d="M836,-503.86C836,-496.13 836,-486.63 836,-478.37"/>
<polygon fill="#63b8ff" stroke="#63b8ff" points="839.5,-478.15 836,-468.15 832.5,-478.15 839.5,-478.15"/>
</g>
<!-- Node25 -->
<g id="node25" class="node">
<title>Node25</title>
<g id="a_node25"><a xlink:href="../../de/d2a/_dense_mat_8hpp.html" target="_top" xlink:title=" ">
<polygon fill="white" stroke="#666666" points="1007,-412 909,-412 909,-392 1007,-392 1007,-412"/>
<text text-anchor="middle" x="958" y="-399.2" font-family="Consolas" font-size="11.00">DenseMat.hpp</text>
</a>
</g>
</g>
<!-- Node24&#45;&gt;Node25 -->
<g id="edge27" class="edge">
<title>Node24&#45;&gt;Node25</title>
<path fill="none" stroke="#63b8ff" d="M958.83,-447.59C958.7,-440.7 958.52,-431.1 958.36,-422.57"/>
<polygon fill="#63b8ff" stroke="#63b8ff" points="961.86,-422.23 958.17,-412.3 954.86,-422.36 961.86,-422.23"/>
</g>
<!-- Node26 -->
<g id="node26" class="node">
<title>Node26</title>
<g id="a_node26"><a xlink:href="../../d3/d46/_meta_mat_8hpp.html" target="_top" xlink:title=" ">
<polygon fill="white" stroke="#666666" points="1003.5,-356 912.5,-356 912.5,-336 1003.5,-336 1003.5,-356"/>
<text text-anchor="middle" x="958" y="-343.2" font-family="Consolas" font-size="11.00">MetaMat.hpp</text>
</a>
</g>
</g>
<!-- Node25&#45;&gt;Node26 -->
<g id="edge28" class="edge">
<title>Node25&#45;&gt;Node26</title>
<path fill="none" stroke="#63b8ff" d="M958,-391.59C958,-384.7 958,-375.1 958,-366.57"/>
<polygon fill="#63b8ff" stroke="#63b8ff" points="961.5,-366.3 958,-356.3 954.5,-366.3 961.5,-366.3"/>
</g>
<!-- Node27 -->
<g id="node27" class="node">
<title>Node27</title>
<g id="a_node27"><a xlink:href="../../df/df1/triplet__form_8hpp.html" target="_top" xlink:title=" ">
<polygon fill="white" stroke="#666666" points="1266.5,-188 1141.5,-188 1141.5,-168 1266.5,-168 1266.5,-188"/>
<text text-anchor="middle" x="1204" y="-175.2" font-family="Consolas" font-size="11.00">triplet_form.hpp</text>
</a>
</g>
</g>
<!-- Node26&#45;&gt;Node27 -->
<g id="edge29" class="edge">
<title>Node26&#45;&gt;Node27</title>
<path fill="none" stroke="#63b8ff" d="M1003.73,-340.93C1102.39,-331.1 1330,-302.44 1376,-244 1406.7,-204.99 1336.64,-189.39 1276.9,-183.15"/>
<polygon fill="#63b8ff" stroke="#63b8ff" points="1276.95,-179.64 1266.66,-182.16 1276.28,-186.61 1276.95,-179.64"/>
</g>
<!-- Node31 -->
<g id="node31" class="node">
<title>Node31</title>
<g id="a_node31"><a xlink:href="../../df/d0c/_iterative_solver_8hpp.html" target="_top" xlink:title=" ">
<polygon fill="white" stroke="#666666" points="1029.5,-300 884.5,-300 884.5,-280 1029.5,-280 1029.5,-300"/>
<text text-anchor="middle" x="957" y="-287.2" font-family="Consolas" font-size="11.00">IterativeSolver.hpp</text>
</a>
</g>
</g>
<!-- Node26&#45;&gt;Node31 -->
<g id="edge34" class="edge">
<title>Node26&#45;&gt;Node31</title>
<path fill="none" stroke="#63b8ff" d="M957.83,-335.59C957.7,-328.7 957.52,-319.1 957.36,-310.57"/>
<polygon fill="#63b8ff" stroke="#63b8ff" points="960.86,-310.23 957.17,-300.3 953.86,-310.36 960.86,-310.23"/>
</g>
<!-- Node34 -->
<g id="node34" class="node">
<title>Node34</title>
<g id="a_node34"><a xlink:href="../../db/d46/_i_l_u_8hpp.html" target="_top" xlink:title=" ">
<polygon fill="white" stroke="#666666" points="1112,-300 1048,-300 1048,-280 1112,-280 1112,-300"/>
<text text-anchor="middle" x="1080" y="-287.2" font-family="Consolas" font-size="11.00">ILU.hpp</text>
</a>
</g>
</g>
<!-- Node26&#45;&gt;Node34 -->
<g id="edge39" class="edge">
<title>Node26&#45;&gt;Node34</title>
<path fill="none" stroke="#63b8ff" d="M978.42,-335.96C998.04,-327.28 1027.9,-314.06 1050.18,-304.2"/>
<polygon fill="#63b8ff" stroke="#63b8ff" points="1051.79,-307.32 1059.51,-300.07 1048.95,-300.91 1051.79,-307.32"/>
</g>
<!-- Node37 -->
<g id="node37" class="node">
<title>Node37</title>
<g id="a_node37"><a xlink:href="../../dc/d70/_jacobi_8hpp.html" target="_top" xlink:title=" ">
<polygon fill="white" stroke="#666666" points="864,-300 780,-300 780,-280 864,-280 864,-300"/>
<text text-anchor="middle" x="822" y="-287.2" font-family="Consolas" font-size="11.00">Jacobi.hpp</text>
</a>
</g>
</g>
<!-- Node26&#45;&gt;Node37 -->
<g id="edge45" class="edge">
<title>Node26&#45;&gt;Node37</title>
<path fill="none" stroke="#63b8ff" d="M935.24,-335.96C913.07,-327.16 879.18,-313.7 854.24,-303.8"/>
<polygon fill="#63b8ff" stroke="#63b8ff" points="855.42,-300.51 844.84,-300.07 852.84,-307.01 855.42,-300.51"/>
</g>
<!-- Node28 -->
<g id="node28" class="node">
<title>Node28</title>
<g id="a_node28"><a xlink:href="../../d5/d47/utility_8h.html" target="_top" xlink:title=" ">
<polygon fill="white" stroke="#666666" points="1040.5,-132 909.5,-132 909.5,-112 1040.5,-112 1040.5,-132"/>
<text text-anchor="middle" x="975" y="-119.2" font-family="Consolas" font-size="11.00">Toolbox/utility.h</text>
</a>
</g>
</g>
<!-- Node27&#45;&gt;Node28 -->
<g id="edge30" class="edge">
<title>Node27&#45;&gt;Node28</title>
<path fill="none" stroke="#63b8ff" d="M1165.67,-167.96C1126.54,-158.73 1065.67,-144.38 1023.28,-134.38"/>
<polygon fill="#63b8ff" stroke="#63b8ff" points="1023.99,-130.96 1013.45,-132.07 1022.38,-137.77 1023.99,-130.96"/>
</g>
<!-- Node30 -->
<g id="node30" class="node">
<title>Node30</title>
<g id="a_node30"><a xlink:title=" ">
<polygon fill="#e0e0e0" stroke="#999999" points="1236,-132 1172,-132 1172,-112 1236,-112 1236,-132"/>
<text text-anchor="middle" x="1204" y="-119.2" font-family="Consolas" font-size="11.00">numeric</text>
</a>
</g>
</g>
<!-- Node27&#45;&gt;Node30 -->
<g id="edge33" class="edge">
<title>Node27&#45;&gt;Node30</title>
<path fill="none" stroke="#63b8ff" d="M1204,-167.59C1204,-160.7 1204,-151.1 1204,-142.57"/>
<polygon fill="#63b8ff" stroke="#63b8ff" points="1207.5,-142.3 1204,-132.3 1200.5,-142.3 1207.5,-142.3"/>
</g>
<!-- Node28&#45;&gt;Node7 -->
<g id="edge32" class="edge">
<title>Node28&#45;&gt;Node7</title>
<path fill="none" stroke="#63b8ff" d="M941.36,-111.96C907.44,-102.85 854.94,-88.74 817.79,-78.77"/>
<polygon fill="#63b8ff" stroke="#63b8ff" points="818.32,-75.28 807.75,-76.07 816.5,-82.04 818.32,-75.28"/>
</g>
<!-- Node29 -->
<g id="node29" class="node">
<title>Node29</title>
<g id="a_node29"><a xlink:title=" ">
<polygon fill="#e0e0e0" stroke="#999999" points="1010.5,-76 939.5,-76 939.5,-56 1010.5,-56 1010.5,-76"/>
<text text-anchor="middle" x="975" y="-63.2" font-family="Consolas" font-size="11.00">concepts</text>
</a>
</g>
</g>
<!-- Node28&#45;&gt;Node29 -->
<g id="edge31" class="edge">
<title>Node28&#45;&gt;Node29</title>
<path fill="none" stroke="#63b8ff" d="M975,-111.59C975,-104.7 975,-95.1 975,-86.57"/>
<polygon fill="#63b8ff" stroke="#63b8ff" points="978.5,-86.3 975,-76.3 971.5,-86.3 978.5,-86.3"/>
</g>
<!-- Node31&#45;&gt;Node28 -->
<g id="edge35" class="edge">
<title>Node31&#45;&gt;Node28</title>
<path fill="none" stroke="#63b8ff" d="M958.02,-279.6C960.88,-253.23 969.02,-178.19 972.89,-142.42"/>
<polygon fill="#63b8ff" stroke="#63b8ff" points="976.39,-142.62 973.99,-132.3 969.43,-141.86 976.39,-142.62"/>
</g>
<!-- Node32 -->
<g id="node32" class="node">
<title>Node32</title>
<g id="a_node32"><a xlink:href="../../d7/de3/_solver_setting_8hpp.html" target="_top" xlink:title=" ">
<polygon fill="white" stroke="#666666" points="946.5,-244 815.5,-244 815.5,-224 946.5,-224 946.5,-244"/>
<text text-anchor="middle" x="881" y="-231.2" font-family="Consolas" font-size="11.00">SolverSetting.hpp</text>
</a>
</g>
</g>
<!-- Node31&#45;&gt;Node32 -->
<g id="edge36" class="edge">
<title>Node31&#45;&gt;Node32</title>
<path fill="none" stroke="#63b8ff" d="M944.11,-279.84C932.57,-271.64 915.45,-259.48 901.96,-249.89"/>
<polygon fill="#63b8ff" stroke="#63b8ff" points="903.88,-246.96 893.7,-244.03 899.83,-252.67 903.88,-246.96"/>
</g>
<!-- Node33 -->
<g id="node33" class="node">
<title>Node33</title>
<g id="a_node33"><a xlink:href="../../d7/de4/_preconditioner_8hpp.html" target="_top" xlink:title=" ">
<polygon fill="white" stroke="#666666" points="931,-188 793,-188 793,-168 931,-168 931,-188"/>
<text text-anchor="middle" x="862" y="-175.2" font-family="Consolas" font-size="11.00">Preconditioner.hpp</text>
</a>
</g>
</g>
<!-- Node32&#45;&gt;Node33 -->
<g id="edge37" class="edge">
<title>Node32&#45;&gt;Node33</title>
<path fill="none" stroke="#63b8ff" d="M877.69,-223.59C875.21,-216.55 871.74,-206.67 868.69,-198"/>
<polygon fill="#63b8ff" stroke="#63b8ff" points="871.89,-196.57 865.27,-188.3 865.29,-198.89 871.89,-196.57"/>
</g>
<!-- Node33&#45;&gt;Node7 -->
<g id="edge38" class="edge">
<title>Node33&#45;&gt;Node7</title>
<path fill="none" stroke="#63b8ff" d="M854.8,-168C840.17,-149.71 806.74,-107.93 787.79,-84.24"/>
<polygon fill="#63b8ff" stroke="#63b8ff" points="790.28,-81.75 781.3,-76.13 784.81,-86.12 790.28,-81.75"/>
</g>
<!-- Node34&#45;&gt;Node27 -->
<g id="edge44" class="edge">
<title>Node34&#45;&gt;Node27</title>
<path fill="none" stroke="#63b8ff" d="M1074.71,-279.63C1067.82,-266.04 1058,-240.69 1070,-224 1084.35,-204.04 1108,-192.81 1131.46,-186.53"/>
<polygon fill="#63b8ff" stroke="#63b8ff" points="1132.56,-189.87 1141.47,-184.14 1130.93,-183.06 1132.56,-189.87"/>
</g>
<!-- Node34&#45;&gt;Node33 -->
<g id="edge41" class="edge">
<title>Node34&#45;&gt;Node33</title>
<path fill="none" stroke="#63b8ff" d="M1063.25,-279.97C1039.52,-267.24 994.68,-243.39 956,-224 934.24,-213.09 909.38,-201.22 890.7,-192.41"/>
<polygon fill="#63b8ff" stroke="#63b8ff" points="892.08,-189.19 881.54,-188.1 889.1,-195.53 892.08,-189.19"/>
</g>
<!-- Node35 -->
<g id="node35" class="node">
<title>Node35</title>
<g id="a_node35"><a xlink:title=" ">
<polygon fill="#e0e0e0" stroke="#999999" points="1251,-244 1079,-244 1079,-224 1251,-224 1251,-244"/>
<text text-anchor="middle" x="1165" y="-231.2" font-family="Consolas" font-size="11.00">superlu&#45;mt/superlu&#45;mt.h</text>
</a>
</g>
</g>
<!-- Node34&#45;&gt;Node35 -->
<g id="edge40" class="edge">
<title>Node34&#45;&gt;Node35</title>
<path fill="none" stroke="#63b8ff" d="M1094.42,-279.84C1107.44,-271.57 1126.83,-259.25 1141.99,-249.62"/>
<polygon fill="#63b8ff" stroke="#63b8ff" points="1144.23,-252.34 1150.79,-244.03 1140.48,-246.43 1144.23,-252.34"/>
</g>
<!-- Node36 -->
<g id="node36" class="node">
<title>Node36</title>
<g id="a_node36"><a xlink:href="../../d6/dc3/csc__form_8hpp.html" target="_top" xlink:title=" ">
<polygon fill="white" stroke="#666666" points="1367,-244 1269,-244 1269,-224 1367,-224 1367,-244"/>
<text text-anchor="middle" x="1318" y="-231.2" font-family="Consolas" font-size="11.00">csc_form.hpp</text>
</a>
</g>
</g>
<!-- Node34&#45;&gt;Node36 -->
<g id="edge42" class="edge">
<title>Node34&#45;&gt;Node36</title>
<path fill="none" stroke="#63b8ff" d="M1112.1,-281.72C1152.17,-272.63 1221.15,-256.97 1268.13,-246.32"/>
<polygon fill="#63b8ff" stroke="#63b8ff" points="1269.12,-249.68 1278.09,-244.05 1267.57,-242.85 1269.12,-249.68"/>
</g>
<!-- Node36&#45;&gt;Node27 -->
<g id="edge43" class="edge">
<title>Node36&#45;&gt;Node27</title>
<path fill="none" stroke="#63b8ff" d="M1298.92,-223.96C1280.75,-215.36 1253.18,-202.3 1232.43,-192.47"/>
<polygon fill="#63b8ff" stroke="#63b8ff" points="1233.68,-189.19 1223.14,-188.07 1230.68,-195.51 1233.68,-189.19"/>
</g>
<!-- Node37&#45;&gt;Node33 -->
<g id="edge46" class="edge">
<title>Node37&#45;&gt;Node33</title>
<path fill="none" stroke="#63b8ff" d="M816.21,-279.76C808.87,-266.78 798.17,-242.63 807,-224 813,-211.33 824.51,-201.04 835.46,-193.52"/>
<polygon fill="#63b8ff" stroke="#63b8ff" points="837.44,-196.41 844,-188.08 833.68,-190.5 837.44,-196.41"/>
</g>
<!-- Node38&#45;&gt;Node25 -->
<g id="edge48" class="edge">
<title>Node38&#45;&gt;Node25</title>
<path fill="none" stroke="#63b8ff" d="M856.42,-447.96C876.04,-439.28 905.9,-426.06 928.18,-416.2"/>
<polygon fill="#63b8ff" stroke="#63b8ff" points="929.79,-419.32 937.51,-412.07 926.95,-412.91 929.79,-419.32"/>
</g>
<!-- Node39&#45;&gt;Node6 -->
<g id="edge51" class="edge">
<title>Node39&#45;&gt;Node6</title>
<path fill="none" stroke="#63b8ff" d="M282.97,-391.59C288.47,-384.16 296.31,-373.58 302.98,-364.58"/>
<polygon fill="#63b8ff" stroke="#63b8ff" points="305.97,-366.42 309.11,-356.3 300.35,-362.25 305.97,-366.42"/>
</g>
</g>
</svg>
        <g id="navigator" transform="translate(0 0)" fill="#404254">
                <rect fill="#f2f5e9" fill-opacity="0.5" stroke="#606060" stroke-width=".5" x="0" y="0" width="60" height="60"/>
                <use id="zoomplus" xlink:href="#zoomPlus" x="17" y="9" onmousedown="handleZoom(evt,'in')"/>
                <use id="zoomminus" xlink:href="#zoomMin" x="42" y="9" onmousedown="handleZoom(evt,'out')"/>
                <use id="reset" xlink:href="#resetDef" x="30" y="36" onmousedown="handleReset()"/>
                <g id="arrowUp" xlink:href="#dirArrow" transform="translate(30 24)" onmousedown="handlePan(0,-1)">
                  <use xlink:href="#rim" fill="#404040">
                        <set attributeName="fill" to="#808080" begin="arrowUp.mouseover" end="arrowUp.mouseout"/>
                  </use>
                  <path fill="none" stroke="white" stroke-width="1.5" d="M0,-3.0v7 M-2.5,-0.5L0,-3.0L2.5,-0.5"/>
                </g>
                <g id="arrowRight" xlink:href="#dirArrow" transform="rotate(90) translate(36 -43)" onmousedown="handlePan(1,0)">
                  <use xlink:href="#rim" fill="#404040">
                        <set attributeName="fill" to="#808080" begin="arrowRight.mouseover" end="arrowRight.mouseout"/>
                  </use>
                  <path fill="none" stroke="white" stroke-width="1.5" d="M0,-3.0v7 M-2.5,-0.5L0,-3.0L2.5,-0.5"/>
                </g>
                <g id="arrowDown" xlink:href="#dirArrow" transform="rotate(180) translate(-30 -48)" onmousedown="handlePan(0,1)">
                  <use xlink:href="#rim" fill="#404040">
                        <set attributeName="fill" to="#808080" begin="arrowDown.mouseover" end="arrowDown.mouseout"/>
                  </use>
                  <path fill="none" stroke="white" stroke-width="1.5" d="M0,-3.0v7 M-2.5,-0.5L0,-3.0L2.5,-0.5"/>
                </g>
                <g id="arrowLeft" xlink:href="#dirArrow" transform="rotate(270) translate(-36 17)" onmousedown="handlePan(-1,0)">
                  <use xlink:href="#rim" fill="#404040">
                        <set attributeName="fill" to="#808080" begin="arrowLeft.mouseover" end="arrowLeft.mouseout"/>
                  </use>
                  <path fill="none" stroke="white" stroke-width="1.5" d="M0,-3.0v7 M-2.5,-0.5L0,-3.0L2.5,-0.5"/>
                </g>
        </g>
        <svg viewBox="0 0 15 15" width="100%" height="30px" preserveAspectRatio="xMaxYMin meet">
         <g id="arrow_out" transform="scale(0.3 0.3)">
          <a xlink:href="_particle_collision3_d_8cpp__incl_org.svg" target="_base">
           <rect id="button" ry="5" rx="5" y="6" x="6" height="38" width="38"
                fill="#f2f5e9" fill-opacity="0.5" stroke="#606060" stroke-width="1.0"/>
           <path id="arrow"
             d="M 11.500037,31.436501 C 11.940474,20.09759 22.043105,11.32322 32.158766,21.979434 L 37.068811,17.246167 C 37.068811,17.246167 37.088388,32 37.088388,32 L 22.160133,31.978069 C 22.160133,31.978069 26.997745,27.140456 26.997745,27.140456 C 18.528582,18.264221 13.291696,25.230495 11.500037,31.436501 z"
             style="fill:#404040;"/>
          </a>
         </g>
        </svg>
</svg>
