<?xml version="1.0" encoding="UTF-8" standalone="no"?>
<!DOCTYPE svg PUBLIC "-//W3C//DTD SVG 1.1//EN"
 "http://www.w3.org/Graphics/SVG/1.1/DTD/svg11.dtd">
<!-- Generated by graphviz version 8.1.0 (20230707.0739)
 -->
<!-- Title: tensor::stress::invariant3 Pages: 1 -->
<svg width="376pt" height="110pt"
 viewBox="0.00 0.00 376.00 109.50" xmlns="http://www.w3.org/2000/svg" xmlns:xlink="http://www.w3.org/1999/xlink">
<g id="graph0" class="graph" transform="scale(1 1) rotate(0) translate(4 105.5)">
<title>tensor::stress::invariant3</title>
<!-- Node1 -->
<g id="Node000001" class="node">
<title>Node1</title>
<g id="a_Node000001"><a xlink:title="compute the third invariant of the given 3D stress tensor, could be either normal or deviatoric stres...">
<polygon fill="#999999" stroke="#666666" points="368,-61.5 196,-61.5 196,-40 368,-40 368,-61.5"/>
<text text-anchor="middle" x="282" y="-47.05" font-family="Consolas" font-size="11.00">tensor::stress::invariant3</text>
</a>
</g>
</g>
<!-- Node2 -->
<g id="Node000002" class="node">
<title>Node2</title>
<g id="a_Node000002"><a xlink:href="../../d7/dfe/namespacetensor_1_1stress.html#a71e8ece47bcda6c85e7593b0e86c975d" target="_top" xlink:title=" ">
<polygon fill="white" stroke="#666666" points="160,-101.5 0,-101.5 0,-80 160,-80 160,-101.5"/>
<text text-anchor="middle" x="80" y="-87.05" font-family="Consolas" font-size="11.00">tensor::stress::lode_der</text>
</a>
</g>
</g>
<!-- Node1&#45;&gt;Node2 -->
<g id="edge1_Node000001_Node000002" class="edge">
<title>Node1&#45;&gt;Node2</title>
<g id="a_edge1_Node000001_Node000002"><a xlink:title=" ">
<path fill="none" stroke="#63b8ff" d="M214.25,-64.1C189.25,-69.1 161.12,-74.73 137.17,-79.52"/>
<polygon fill="#63b8ff" stroke="#63b8ff" points="214.64,-67.39 223.76,-62 213.26,-60.53 214.64,-67.39"/>
</a>
</g>
</g>
<!-- Node3 -->
<g id="Node000003" class="node">
<title>Node3</title>
<g id="a_Node000003"><a xlink:href="../../dc/d83/_test_tensor_8cpp.html#a667a97bb0ddbe4495fa4e9243973871b" target="_top" xlink:title=" ">
<polygon fill="white" stroke="#666666" points="115,-61.5 45,-61.5 45,-40 115,-40 115,-61.5"/>
<text text-anchor="middle" x="80" y="-47.05" font-family="Consolas" font-size="11.00">TEST_CASE</text>
</a>
</g>
</g>
<!-- Node1&#45;&gt;Node3 -->
<g id="edge2_Node000001_Node000003" class="edge">
<title>Node1&#45;&gt;Node3</title>
<g id="a_edge2_Node000001_Node000003"><a xlink:title=" ">
<path fill="none" stroke="#63b8ff" d="M184.62,-50.75C159.8,-50.75 134.68,-50.75 115.39,-50.75"/>
<polygon fill="#63b8ff" stroke="#63b8ff" points="184.6,-54.25 194.6,-50.75 184.6,-47.25 184.6,-54.25"/>
</a>
</g>
</g>
<!-- Node4 -->
<g id="Node000004" class="node">
<title>Node4</title>
<g id="a_Node000004"><a xlink:href="../../dc/d83/_test_tensor_8cpp.html#af641b9805e90d5b7610971d8ee8870c3" target="_top" xlink:title=" ">
<polygon fill="white" stroke="#666666" points="115,-21.5 45,-21.5 45,0 115,0 115,-21.5"/>
<text text-anchor="middle" x="80" y="-7.05" font-family="Consolas" font-size="11.00">TEST_CASE</text>
</a>
</g>
</g>
<!-- Node1&#45;&gt;Node4 -->
<g id="edge3_Node000001_Node000004" class="edge">
<title>Node1&#45;&gt;Node4</title>
<g id="a_edge3_Node000001_Node000004"><a xlink:title=" ">
<path fill="none" stroke="#63b8ff" d="M214.2,-37.39C181.01,-30.75 142.32,-23.01 115.21,-17.59"/>
<polygon fill="#63b8ff" stroke="#63b8ff" points="213.26,-40.97 223.76,-39.5 214.64,-34.11 213.26,-40.97"/>
</a>
</g>
</g>
</g>
</svg>
