<?xml version="1.0" encoding="UTF-8" standalone="no"?>
<!DOCTYPE svg PUBLIC "-//W3C//DTD SVG 1.1//EN"
 "http://www.w3.org/Graphics/SVG/1.1/DTD/svg11.dtd">
<!-- Generated by graphviz version 2.43.0 (0)
 -->
<!-- Title: DataExpOrthotropic Pages: 1 -->
<svg width="240pt" height="268pt"
 viewBox="0.00 0.00 240.00 268.00" xmlns="http://www.w3.org/2000/svg" xmlns:xlink="http://www.w3.org/1999/xlink">
<g id="graph0" class="graph" transform="scale(1 1) rotate(0) translate(4 264)">
<title>DataExpOrthotropic</title>
<!-- Node1 -->
<g id="Node000001" class="node">
<title>Node1</title>
<g id="a_Node000001"><a xlink:title=" ">
<polygon fill="#999999" stroke="transparent" points="181.5,-260 49.5,-260 49.5,-192 181.5,-192 181.5,-260"/>
<text text-anchor="start" x="54.5" y="-247.2" font-family="Consolas" font-size="11.00">DataExpOrthotropic</text>
<text text-anchor="start" x="80" y="-231.2" font-family="Consolas" font-size="11.00">+</text>
<text text-anchor="start" x="117.5" y="-231.2" font-family="Consolas" font-size="11.00">a</text>
<text text-anchor="start" x="80" y="-215.2" font-family="Consolas" font-size="11.00">+</text>
<text text-anchor="start" x="117.5" y="-215.2" font-family="Consolas" font-size="11.00">b</text>
<text text-anchor="start" x="112" y="-199.2" font-family="Consolas" font-size="11.00"> </text>
<polygon fill="#666666" stroke="#666666" points="49.5,-242 49.5,-242 181.5,-242 181.5,-242 49.5,-242"/>
<polygon fill="#666666" stroke="#666666" points="49.5,-210 49.5,-210 115.5,-210 115.5,-210 49.5,-210"/>
<polygon fill="#666666" stroke="#666666" points="115.5,-210 115.5,-210 181.5,-210 181.5,-210 115.5,-210"/>
<polygon fill="none" stroke="#666666" points="49.5,-192 49.5,-260 181.5,-260 181.5,-192 49.5,-192"/>
</a>
</g>
</g>
<!-- Node2 -->
<g id="Node000002" class="node">
<title>Node2</title>
<g id="a_Node000002"><a xlink:href="../../da/d82/class_exp_orthotropic.html" target="_top" xlink:title="The ExpOrthotropic class.">
<polygon fill="white" stroke="transparent" points="179.5,-156 51.5,-156 51.5,-104 179.5,-104 179.5,-156"/>
<text text-anchor="start" x="68" y="-143.2" font-family="Consolas" font-size="11.00">ExpOrthotropic</text>
<text text-anchor="start" x="112" y="-127.2" font-family="Consolas" font-size="11.00"> </text>
<text text-anchor="start" x="55.5" y="-111.2" font-family="Consolas" font-size="11.00">+</text>
<text text-anchor="start" x="66.5" y="-111.2" font-family="Consolas" font-size="11.00">ExpOrthotropic()</text>
<polygon fill="#666666" stroke="#666666" points="51.5,-138 51.5,-138 179.5,-138 179.5,-138 51.5,-138"/>
<polygon fill="#666666" stroke="#666666" points="51.5,-122 51.5,-122 179.5,-122 179.5,-122 51.5,-122"/>
<polygon fill="none" stroke="#666666" points="51.5,-104 51.5,-156 179.5,-156 179.5,-104 51.5,-104"/>
</a>
</g>
</g>
<!-- Node1&#45;&gt;Node2 -->
<g id="edge1_Node000001_Node000002" class="edge">
<title>Node1&#45;&gt;Node2</title>
<g id="a_edge1_Node000001_Node000002"><a xlink:title=" ">
<path fill="none" stroke="darkgreen" d="M115.5,-181.73C115.5,-172.97 115.5,-164.04 115.5,-156.16"/>
<polygon fill="none" stroke="darkgreen" points="112,-181.86 115.5,-191.86 119,-181.86 112,-181.86"/>
</a>
</g>
</g>
<!-- Node3 -->
<g id="Node000003" class="node">
<title>Node3</title>
<g id="a_Node000003"><a xlink:href="../../db/d1b/class_exp_hoffman.html" target="_top" xlink:title=" ">
<polygon fill="white" stroke="transparent" points="107,-68 0,-68 0,0 107,0 107,-68"/>
<text text-anchor="start" x="20" y="-55.2" font-family="Consolas" font-size="11.00">ExpHoffman</text>
<text text-anchor="start" x="50.5" y="-39.2" font-family="Consolas" font-size="11.00"> </text>
<text text-anchor="start" x="4.5" y="-23.2" font-family="Consolas" font-size="11.00">+</text>
<text text-anchor="start" x="15.5" y="-23.2" font-family="Consolas" font-size="11.00">ExpHoffman()</text>
<text text-anchor="start" x="4.5" y="-7.2" font-family="Consolas" font-size="11.00">+</text>
<text text-anchor="start" x="15.5" y="-7.2" font-family="Consolas" font-size="11.00">unique_copy()</text>
<polygon fill="#666666" stroke="#666666" points="0.5,-50 0.5,-50 107.5,-50 107.5,-50 0.5,-50"/>
<polygon fill="#666666" stroke="#666666" points="0.5,-34 0.5,-34 107.5,-34 107.5,-34 0.5,-34"/>
<polygon fill="none" stroke="#666666" points="0,0 0,-68 107,-68 107,0 0,0"/>
</a>
</g>
</g>
<!-- Node2&#45;&gt;Node3 -->
<g id="edge2_Node000002_Node000003" class="edge">
<title>Node2&#45;&gt;Node3</title>
<g id="a_edge2_Node000002_Node000003"><a xlink:title=" ">
<path fill="none" stroke="#63b8ff" d="M93.23,-95.24C87.4,-86.39 81.11,-76.86 75.3,-68.05"/>
<polygon fill="none" stroke="#63b8ff" points="90.46,-97.39 98.89,-103.81 96.3,-93.53 90.46,-97.39"/>
</a>
</g>
</g>
<!-- Node4 -->
<g id="Node000004" class="node">
<title>Node4</title>
<g id="a_Node000004"><a xlink:href="../../dd/d02/class_exp_tsai_wu.html" target="_top" xlink:title=" ">
<polygon fill="white" stroke="transparent" points="232,-68 125,-68 125,0 232,0 232,-68"/>
<text text-anchor="start" x="148.5" y="-55.2" font-family="Consolas" font-size="11.00">ExpTsaiWu</text>
<text text-anchor="start" x="175.5" y="-39.2" font-family="Consolas" font-size="11.00"> </text>
<text text-anchor="start" x="129.5" y="-23.2" font-family="Consolas" font-size="11.00">+</text>
<text text-anchor="start" x="140.5" y="-23.2" font-family="Consolas" font-size="11.00">ExpTsaiWu()</text>
<text text-anchor="start" x="129.5" y="-7.2" font-family="Consolas" font-size="11.00">+</text>
<text text-anchor="start" x="140.5" y="-7.2" font-family="Consolas" font-size="11.00">unique_copy()</text>
<polygon fill="#666666" stroke="#666666" points="125.5,-50 125.5,-50 232.5,-50 232.5,-50 125.5,-50"/>
<polygon fill="#666666" stroke="#666666" points="125.5,-34 125.5,-34 232.5,-34 232.5,-34 125.5,-34"/>
<polygon fill="none" stroke="#666666" points="125,0 125,-68 232,-68 232,0 125,0"/>
</a>
</g>
</g>
<!-- Node2&#45;&gt;Node4 -->
<g id="edge3_Node000002_Node000004" class="edge">
<title>Node2&#45;&gt;Node4</title>
<g id="a_edge3_Node000002_Node000004"><a xlink:title=" ">
<path fill="none" stroke="#63b8ff" d="M138.13,-95.24C144.06,-86.39 150.45,-76.86 156.35,-68.05"/>
<polygon fill="none" stroke="#63b8ff" points="135.04,-93.55 132.38,-103.81 140.86,-97.45 135.04,-93.55"/>
</a>
</g>
</g>
</g>
</svg>
