<?xml version="1.0" encoding="UTF-8" standalone="no"?>
<!DOCTYPE svg PUBLIC "-//W3C//DTD SVG 1.1//EN"
 "http://www.w3.org/Graphics/SVG/1.1/DTD/svg11.dtd">
<!-- Generated by graphviz version 5.0.0 (0)
 -->
<!-- Title: shape::linear_stress Pages: 1 -->
<svg width="327pt" height="66pt"
 viewBox="0.00 0.00 327.00 66.00" xmlns="http://www.w3.org/2000/svg" xmlns:xlink="http://www.w3.org/1999/xlink">
<g id="graph0" class="graph" transform="scale(1 1) rotate(0) translate(4 62)">
<title>shape::linear_stress</title>
<!-- Node1 -->
<g id="node1" class="node">
<title>Node1</title>
<g id="a_node1"><a xlink:title=" ">
<polygon fill="#999999" stroke="#666666" points="319,-39 167,-39 167,-19 319,-19 319,-39"/>
<text text-anchor="middle" x="243" y="-26.2" font-family="Consolas" font-size="11.00">shape::linear_stress</text>
</a>
</g>
</g>
<!-- Node2 -->
<g id="node2" class="node">
<title>Node2</title>
<g id="a_node2"><a xlink:href="../../d6/d4f/class_c_s_m_q4.html#aa7ee029cf17bb93ad26d9019f8962e92" target="_top" xlink:title=" ">
<polygon fill="white" stroke="#666666" points="131,-58 0,-58 0,-38 131,-38 131,-58"/>
<text text-anchor="middle" x="65.5" y="-45.2" font-family="Consolas" font-size="11.00">CSMQ4::initialize</text>
</a>
</g>
</g>
<!-- Node1&#45;&gt;Node2 -->
<g id="edge1" class="edge">
<title>Node1&#45;&gt;Node2</title>
<path fill="none" stroke="#63b8ff" d="M156.71,-38.23C148.07,-39.17 139.4,-40.11 131.04,-41.01"/>
<polygon fill="#63b8ff" stroke="#63b8ff" points="157.24,-41.7 166.81,-37.14 156.49,-34.74 157.24,-41.7"/>
</g>
<!-- Node3 -->
<g id="node3" class="node">
<title>Node3</title>
<g id="a_node3"><a xlink:href="../../d0/d2a/class_c_s_m_t6.html#accdc1b8c62cf4917027de7016fb981bf" target="_top" xlink:title=" ">
<polygon fill="white" stroke="#666666" points="131,-20 0,-20 0,0 131,0 131,-20"/>
<text text-anchor="middle" x="65.5" y="-7.2" font-family="Consolas" font-size="11.00">CSMT6::initialize</text>
</a>
</g>
</g>
<!-- Node1&#45;&gt;Node3 -->
<g id="edge2" class="edge">
<title>Node1&#45;&gt;Node3</title>
<path fill="none" stroke="#63b8ff" d="M156.71,-19.77C148.07,-18.83 139.4,-17.89 131.04,-16.99"/>
<polygon fill="#63b8ff" stroke="#63b8ff" points="156.49,-23.26 166.81,-20.86 157.24,-16.3 156.49,-23.26"/>
</g>
</g>
</svg>
