<?xml version="1.0" encoding="UTF-8" standalone="no"?>
<!DOCTYPE svg PUBLIC "-//W3C//DTD SVG 1.1//EN"
 "http://www.w3.org/Graphics/SVG/1.1/DTD/svg11.dtd">
<!-- Generated by graphviz version 8.1.0 (20230707.0739)
 -->
<!-- Title: Toolbox Pages: 1 -->
<svg width="826pt" height="87pt"
 viewBox="0.00 0.00 826.00 87.00" xmlns="http://www.w3.org/2000/svg" xmlns:xlink="http://www.w3.org/1999/xlink">
<g id="graph0" class="graph" transform="scale(1 1) rotate(0) translate(4 83)">
<title>Toolbox</title>
<!-- dir_90a01da27c815ec0f52ae9e4dc4ab23c -->
<g id="node1" class="node">
<title>dir_90a01da27c815ec0f52ae9e4dc4ab23c</title>
<g id="a_node1"><a xlink:href="dir_90a01da27c815ec0f52ae9e4dc4ab23c.html" target="_top" xlink:title="Toolbox">
<polygon fill="#edf0f7" stroke="#404040" stroke-width="2" points="453,-79 395,-79 395,-57.5 453,-57.5 453,-79"/>
<text text-anchor="middle" x="424" y="-64.55" font-family="Consolas" font-size="11.00">Toolbox</text>
</a>
</g>
</g>
<!-- dir_0df630575e50c230f9373dd51d2e804d -->
<g id="node2" class="node">
<title>dir_0df630575e50c230f9373dd51d2e804d</title>
<g id="a_node2"><a xlink:href="dir_0df630575e50c230f9373dd51d2e804d.html" target="_top" xlink:title="Load">
<polygon fill="#edf0f7" stroke="red" points="40,-21.5 0,-21.5 0,0 40,0 40,-21.5"/>
<text text-anchor="middle" x="20" y="-7.05" font-family="Consolas" font-size="11.00">Load</text>
</a>
</g>
</g>
<!-- dir_90a01da27c815ec0f52ae9e4dc4ab23c&#45;&gt;dir_0df630575e50c230f9373dd51d2e804d -->
<g id="edge1" class="edge">
<title>dir_90a01da27c815ec0f52ae9e4dc4ab23c&#45;&gt;dir_0df630575e50c230f9373dd51d2e804d</title>
<path fill="none" stroke="#63b8ff" d="M394.96,-65.72C333.11,-62.03 183.81,-50.86 50.81,-21.53"/>
<polygon fill="#63b8ff" stroke="#63b8ff" points="51.97,-17.98 41.45,-19.2 50.44,-24.81 51.97,-17.98"/>
<g id="a_edge1&#45;headlabel"><a xlink:href="dir_000067_000033.html" target="_top" xlink:title="3">
<text text-anchor="middle" x="55.1" y="-12.3" font-family="Consolas" font-size="11.00" fill="#63b8ff">3</text>
</a>
</g>
</g>
<!-- dir_5dc3d2744d9e16e6dc5313fdb2ea1510 -->
<g id="node3" class="node">
<title>dir_5dc3d2744d9e16e6dc5313fdb2ea1510</title>
<g id="a_node3"><a xlink:href="dir_5dc3d2744d9e16e6dc5313fdb2ea1510.html" target="_top" xlink:title="Material">
<polygon fill="#edf0f7" stroke="red" points="122,-21.5 58,-21.5 58,0 122,0 122,-21.5"/>
<text text-anchor="middle" x="90" y="-7.05" font-family="Consolas" font-size="11.00">Material</text>
</a>
</g>
</g>
<!-- dir_90a01da27c815ec0f52ae9e4dc4ab23c&#45;&gt;dir_5dc3d2744d9e16e6dc5313fdb2ea1510 -->
<g id="edge2" class="edge">
<title>dir_90a01da27c815ec0f52ae9e4dc4ab23c&#45;&gt;dir_5dc3d2744d9e16e6dc5313fdb2ea1510</title>
<path fill="none" stroke="#63b8ff" d="M394.76,-63.46C343.69,-56.67 234.76,-41.46 132.96,-21.76"/>
<polygon fill="#63b8ff" stroke="#63b8ff" points="133.66,-18.14 123.18,-19.65 132.32,-25.01 133.66,-18.14"/>
<g id="a_edge2&#45;headlabel"><a xlink:href="dir_000067_000035.html" target="_top" xlink:title="3">
<text text-anchor="middle" x="136.74" y="-12.34" font-family="Consolas" font-size="11.00" fill="#63b8ff">3</text>
</a>
</g>
</g>
<!-- dir_8c888e3f1190d8e08b273c29d1443e32 -->
<g id="node4" class="node">
<title>dir_8c888e3f1190d8e08b273c29d1443e32</title>
<g id="a_node4"><a xlink:href="dir_8c888e3f1190d8e08b273c29d1443e32.html" target="_top" xlink:title="Domain">
<polygon fill="#edf0f7" stroke="red" points="192,-21.5 140,-21.5 140,0 192,0 192,-21.5"/>
<text text-anchor="middle" x="166" y="-7.05" font-family="Consolas" font-size="11.00">Domain</text>
</a>
</g>
</g>
<!-- dir_90a01da27c815ec0f52ae9e4dc4ab23c&#45;&gt;dir_8c888e3f1190d8e08b273c29d1443e32 -->
<g id="edge3" class="edge">
<title>dir_90a01da27c815ec0f52ae9e4dc4ab23c&#45;&gt;dir_8c888e3f1190d8e08b273c29d1443e32</title>
<path fill="none" stroke="#63b8ff" d="M394.63,-61.9C353.77,-54.31 277.24,-39.56 202.81,-21.82"/>
<polygon fill="#63b8ff" stroke="#63b8ff" points="203.86,-18.23 193.32,-19.29 202.23,-25.04 203.86,-18.23"/>
<g id="a_edge3&#45;headlabel"><a xlink:href="dir_000067_000018.html" target="_top" xlink:title="11">
<text text-anchor="middle" x="207.02" y="-12.61" font-family="Consolas" font-size="11.00" fill="#63b8ff">11</text>
</a>
</g>
</g>
<!-- dir_a3a11107c060fd286089c61b248388a9 -->
<g id="node5" class="node">
<title>dir_a3a11107c060fd286089c61b248388a9</title>
<g id="a_node5"><a xlink:href="dir_a3a11107c060fd286089c61b248388a9.html" target="_top" xlink:title="Constraint">
<polygon fill="#edf0f7" stroke="red" points="286,-21.5 210,-21.5 210,0 286,0 286,-21.5"/>
<text text-anchor="middle" x="248" y="-7.05" font-family="Consolas" font-size="11.00">Constraint</text>
</a>
</g>
</g>
<!-- dir_90a01da27c815ec0f52ae9e4dc4ab23c&#45;&gt;dir_a3a11107c060fd286089c61b248388a9 -->
<g id="edge4" class="edge">
<title>dir_90a01da27c815ec0f52ae9e4dc4ab23c&#45;&gt;dir_a3a11107c060fd286089c61b248388a9</title>
<path fill="none" stroke="#63b8ff" d="M394.54,-57.96C366.14,-49.01 322.86,-35.36 290.69,-25.21"/>
<polygon fill="#63b8ff" stroke="#63b8ff" points="291.83,-21.59 281.24,-21.92 289.73,-28.26 291.83,-21.59"/>
<g id="a_edge4&#45;headlabel"><a xlink:href="dir_000067_000009.html" target="_top" xlink:title="3">
<text text-anchor="middle" x="295.11" y="-16.26" font-family="Consolas" font-size="11.00" fill="#63b8ff">3</text>
</a>
</g>
</g>
<!-- dir_a92f6aab40319c4984145a51015b8ccc -->
<g id="node6" class="node">
<title>dir_a92f6aab40319c4984145a51015b8ccc</title>
<g id="a_node6"><a xlink:href="dir_a92f6aab40319c4984145a51015b8ccc.html" target="_top" xlink:title="Converger">
<polygon fill="#edf0f7" stroke="#404040" points="374,-21.5 304,-21.5 304,0 374,0 374,-21.5"/>
<text text-anchor="middle" x="339" y="-7.05" font-family="Consolas" font-size="11.00">Converger</text>
</a>
</g>
</g>
<!-- dir_90a01da27c815ec0f52ae9e4dc4ab23c&#45;&gt;dir_a92f6aab40319c4984145a51015b8ccc -->
<g id="edge5" class="edge">
<title>dir_90a01da27c815ec0f52ae9e4dc4ab23c&#45;&gt;dir_a92f6aab40319c4984145a51015b8ccc</title>
<path fill="none" stroke="#63b8ff" d="M408.41,-57.07C395.83,-48.86 377.9,-37.15 363.42,-27.7"/>
<polygon fill="#63b8ff" stroke="#63b8ff" points="365.78,-24.4 355.49,-21.87 361.95,-30.26 365.78,-24.4"/>
<g id="a_edge5&#45;headlabel"><a xlink:href="dir_000067_000010.html" target="_top" xlink:title="2">
<text text-anchor="middle" x="369.34" y="-20.29" font-family="Consolas" font-size="11.00" fill="#63b8ff">2</text>
</a>
</g>
</g>
<!-- dir_a9729cc3cf336159544460298e1486e7 -->
<g id="node7" class="node">
<title>dir_a9729cc3cf336159544460298e1486e7</title>
<g id="a_node7"><a xlink:href="dir_a9729cc3cf336159544460298e1486e7.html" target="_top" xlink:title="UnitTest">
<polygon fill="#edf0f7" stroke="#404040" points="456,-21.5 392,-21.5 392,0 456,0 456,-21.5"/>
<text text-anchor="middle" x="424" y="-7.05" font-family="Consolas" font-size="11.00">UnitTest</text>
</a>
</g>
</g>
<!-- dir_90a01da27c815ec0f52ae9e4dc4ab23c&#45;&gt;dir_a9729cc3cf336159544460298e1486e7 -->
<g id="edge6" class="edge">
<title>dir_90a01da27c815ec0f52ae9e4dc4ab23c&#45;&gt;dir_a9729cc3cf336159544460298e1486e7</title>
<path fill="none" stroke="#63b8ff" d="M424,-57.07C424,-50.26 424,-41.06 424,-32.73"/>
<polygon fill="#63b8ff" stroke="#63b8ff" points="427.5,-32.86 424,-22.87 420.5,-32.87 427.5,-32.86"/>
<g id="a_edge6&#45;headlabel"><a xlink:href="dir_000067_000069.html" target="_top" xlink:title="1">
<text text-anchor="middle" x="430.34" y="-31.76" font-family="Consolas" font-size="11.00" fill="#63b8ff">1</text>
</a>
</g>
</g>
<!-- dir_b2df46b3e07438c2f7bb907cd4fd47eb -->
<g id="node8" class="node">
<title>dir_b2df46b3e07438c2f7bb907cd4fd47eb</title>
<g id="a_node8"><a xlink:href="dir_b2df46b3e07438c2f7bb907cd4fd47eb.html" target="_top" xlink:title="Recorder">
<polygon fill="#edf0f7" stroke="#404040" points="538,-21.5 474,-21.5 474,0 538,0 538,-21.5"/>
<text text-anchor="middle" x="506" y="-7.05" font-family="Consolas" font-size="11.00">Recorder</text>
</a>
</g>
</g>
<!-- dir_90a01da27c815ec0f52ae9e4dc4ab23c&#45;&gt;dir_b2df46b3e07438c2f7bb907cd4fd47eb -->
<g id="edge7" class="edge">
<title>dir_90a01da27c815ec0f52ae9e4dc4ab23c&#45;&gt;dir_b2df46b3e07438c2f7bb907cd4fd47eb</title>
<path fill="none" stroke="#63b8ff" d="M439.04,-57.07C451.06,-48.93 468.14,-37.37 482.04,-27.97"/>
<polygon fill="#63b8ff" stroke="#63b8ff" points="483.74,-30.37 490.06,-21.87 479.81,-24.57 483.74,-30.37"/>
<g id="a_edge7&#45;headlabel"><a xlink:href="dir_000067_000051.html" target="_top" xlink:title="2">
<text text-anchor="middle" x="483.35" y="-31.03" font-family="Consolas" font-size="11.00" fill="#63b8ff">2</text>
</a>
</g>
</g>
<!-- dir_bbfb5cf133b5ee2ba5207ad49be3b96c -->
<g id="node9" class="node">
<title>dir_bbfb5cf133b5ee2ba5207ad49be3b96c</title>
<g id="a_node9"><a xlink:href="dir_bbfb5cf133b5ee2ba5207ad49be3b96c.html" target="_top" xlink:title="Solver">
<polygon fill="#edf0f7" stroke="red" points="608,-21.5 556,-21.5 556,0 608,0 608,-21.5"/>
<text text-anchor="middle" x="582" y="-7.05" font-family="Consolas" font-size="11.00">Solver</text>
</a>
</g>
</g>
<!-- dir_90a01da27c815ec0f52ae9e4dc4ab23c&#45;&gt;dir_bbfb5cf133b5ee2ba5207ad49be3b96c -->
<g id="edge8" class="edge">
<title>dir_90a01da27c815ec0f52ae9e4dc4ab23c&#45;&gt;dir_bbfb5cf133b5ee2ba5207ad49be3b96c</title>
<path fill="none" stroke="#63b8ff" d="M452.98,-57.07C478.97,-47.94 517.23,-34.5 545.34,-24.63"/>
<polygon fill="#63b8ff" stroke="#63b8ff" points="546.29,-27.65 554.57,-21.03 543.97,-21.05 546.29,-27.65"/>
<g id="a_edge8&#45;headlabel"><a xlink:href="dir_000067_000063.html" target="_top" xlink:title="3">
<text text-anchor="middle" x="544.84" y="-27.82" font-family="Consolas" font-size="11.00" fill="#63b8ff">3</text>
</a>
</g>
</g>
<!-- dir_c50cd265c3c89d21f049852119ed1532 -->
<g id="node10" class="node">
<title>dir_c50cd265c3c89d21f049852119ed1532</title>
<g id="a_node10"><a xlink:href="dir_c50cd265c3c89d21f049852119ed1532.html" target="_top" xlink:title="Step">
<polygon fill="#edf0f7" stroke="#404040" points="666,-21.5 626,-21.5 626,0 666,0 666,-21.5"/>
<text text-anchor="middle" x="646" y="-7.05" font-family="Consolas" font-size="11.00">Step</text>
</a>
</g>
</g>
<!-- dir_90a01da27c815ec0f52ae9e4dc4ab23c&#45;&gt;dir_c50cd265c3c89d21f049852119ed1532 -->
<g id="edge9" class="edge">
<title>dir_90a01da27c815ec0f52ae9e4dc4ab23c&#45;&gt;dir_c50cd265c3c89d21f049852119ed1532</title>
<path fill="none" stroke="#63b8ff" d="M453.32,-61.18C489.32,-53.53 552.45,-39.51 615.3,-21.8"/>
<polygon fill="#63b8ff" stroke="#63b8ff" points="616.14,-24.92 624.79,-18.81 614.22,-18.18 616.14,-24.92"/>
<g id="a_edge9&#45;headlabel"><a xlink:href="dir_000067_000066.html" target="_top" xlink:title="6">
<text text-anchor="middle" x="614.46" y="-24.93" font-family="Consolas" font-size="11.00" fill="#63b8ff">6</text>
</a>
</g>
</g>
<!-- dir_d4cf6f20ffb08aa0d4b9ebd27f6cf468 -->
<g id="node11" class="node">
<title>dir_d4cf6f20ffb08aa0d4b9ebd27f6cf468</title>
<g id="a_node11"><a xlink:href="dir_d4cf6f20ffb08aa0d4b9ebd27f6cf468.html" target="_top" xlink:title="Section">
<polygon fill="#edf0f7" stroke="red" points="742,-21.5 684,-21.5 684,0 742,0 742,-21.5"/>
<text text-anchor="middle" x="713" y="-7.05" font-family="Consolas" font-size="11.00">Section</text>
</a>
</g>
</g>
<!-- dir_90a01da27c815ec0f52ae9e4dc4ab23c&#45;&gt;dir_d4cf6f20ffb08aa0d4b9ebd27f6cf468 -->
<g id="edge10" class="edge">
<title>dir_90a01da27c815ec0f52ae9e4dc4ab23c&#45;&gt;dir_d4cf6f20ffb08aa0d4b9ebd27f6cf468</title>
<path fill="none" stroke="#63b8ff" d="M453.12,-62.63C498.16,-55.34 587.63,-40.26 672.94,-21.84"/>
<polygon fill="#63b8ff" stroke="#63b8ff" points="673.57,-25.07 682.59,-19.52 672.07,-18.23 673.57,-25.07"/>
<g id="a_edge10&#45;headlabel"><a xlink:href="dir_000067_000055.html" target="_top" xlink:title="3">
<text text-anchor="middle" x="671.66" y="-24.91" font-family="Consolas" font-size="11.00" fill="#63b8ff">3</text>
</a>
</g>
</g>
<!-- dir_dbf4cecd986d5434acc0a98260fbec76 -->
<g id="node12" class="node">
<title>dir_dbf4cecd986d5434acc0a98260fbec76</title>
<g id="a_node12"><a xlink:href="dir_dbf4cecd986d5434acc0a98260fbec76.html" target="_top" xlink:title="Element">
<polygon fill="#edf0f7" stroke="red" points="818,-21.5 760,-21.5 760,0 818,0 818,-21.5"/>
<text text-anchor="middle" x="789" y="-7.05" font-family="Consolas" font-size="11.00">Element</text>
</a>
</g>
</g>
<!-- dir_90a01da27c815ec0f52ae9e4dc4ab23c&#45;&gt;dir_dbf4cecd986d5434acc0a98260fbec76 -->
<g id="edge11" class="edge">
<title>dir_90a01da27c815ec0f52ae9e4dc4ab23c&#45;&gt;dir_dbf4cecd986d5434acc0a98260fbec76</title>
<path fill="none" stroke="#63b8ff" d="M453.5,-64.25C509.3,-58.32 634.31,-43.91 748.92,-21.74"/>
<polygon fill="#63b8ff" stroke="#63b8ff" points="749.48,-25 758.62,-19.64 748.13,-18.13 749.48,-25"/>
<g id="a_edge11&#45;headlabel"><a xlink:href="dir_000067_000025.html" target="_top" xlink:title="5">
<text text-anchor="middle" x="747.5" y="-24.77" font-family="Consolas" font-size="11.00" fill="#63b8ff">5</text>
</a>
</g>
</g>
</g>
</svg>
