<?xml version="1.0" encoding="UTF-8" standalone="no"?>
<!DOCTYPE svg PUBLIC "-//W3C//DTD SVG 1.1//EN"
 "http://www.w3.org/Graphics/SVG/1.1/DTD/svg11.dtd">
<!-- Generated by graphviz version 8.1.0 (20230707.0739)
 -->
<!-- Title: Maxwell::update_trial_status Pages: 1 -->
<!--zoomable 352 -->

<svg id="main" version="1.1" xmlns="http://www.w3.org/2000/svg" xmlns:xlink="http://www.w3.org/1999/xlink" xml:space="preserve" onload="init(evt)">
<style type="text/css"><![CDATA[
.node, .edge {opacity: 0.7;}
.node.selected, .edge.selected {opacity: 1;}
.edge:hover path { stroke: red; }
.edge:hover polygon { stroke: red; fill: red; }
]]></style>

<defs>
  <circle id="rim" cx="0" cy="0" r="7"/>
  <circle id="rim2" cx="0" cy="0" r="3.5"/>
  <g id="zoomPlus">
    <use xlink:href="#rim" fill="#404040"><set attributeName="fill" to="#808080" begin="zoomplus.mouseover" end="zoomplus.mouseout"/></use>
    <path d="M-4,0h8M0,-4v8" fill="none" stroke="white" stroke-width="1.5" pointer-events="none"/>
  </g>
  <g id="zoomMin">
    <use xlink:href="#rim" fill="#404040"><set attributeName="fill" to="#808080" begin="zoomminus.mouseover" end="zoomminus.mouseout"/></use>
    <path d="M-4,0h8" fill="none" stroke="white" stroke-width="1.5" pointer-events="none"/>
  </g>
  <g id="arrowUp" transform="translate(30 24)">
    <use xlink:href="#rim"/>
    <path pointer-events="none" fill="none" stroke="white" stroke-width="1.5" d="M0,-3.0v7 M-2.5,-0.5L0,-3.0L2.5,-0.5"/>
  </g>
  <g id="arrowRight" transform="rotate(90) translate(36 -43)">
    <use xlink:href="#rim"/>
    <path pointer-events="none" fill="none" stroke="white" stroke-width="1.5" d="M0,-3.0v7 M-2.5,-0.5L0,-3.0L2.5,-0.5"/>
  </g>
  <g id="arrowDown" transform="rotate(180) translate(-30 -48)">
    <use xlink:href="#rim"/>
    <path pointer-events="none" fill="none" stroke="white" stroke-width="1.5" d="M0,-3.0v7 M-2.5,-0.5L0,-3.0L2.5,-0.5"/>
  </g>
  <g id="arrowLeft" transform="rotate(270) translate(-36 17)">
    <use xlink:href="#rim"/>
    <path pointer-events="none" fill="none" stroke="white" stroke-width="1.5" d="M0,-3.0v7 M-2.5,-0.5L0,-3.0L2.5,-0.5"/>
  </g>
  <g id="resetDef">
    <use xlink:href="#rim2" fill="#404040"><set attributeName="fill" to="#808080" begin="reset.mouseover" end="reset.mouseout"/></use>
  </g>
</defs>
<script type="application/ecmascript">
var viewWidth = 518;
var viewHeight = 352;
var sectionId = 'dynsection-7';
</script>
<script type="application/ecmascript" xlink:href="../../svg.min.js"/>
<svg id="graph" class="graph">
<g id="viewport">
<title>Maxwell::update_trial_status</title>
<!-- Node1 -->
<g id="Node000001" class="node">
<title>Node1</title>
<g id="a_Node000001"><a xlink:title=" ">
<polygon fill="#999999" stroke="#666666" points="142,-185 0,-185 0,-150 142,-150 142,-185"/>
<text text-anchor="start" x="8" y="-170.55" font-family="Consolas" font-size="11.00">Maxwell::update_trial</text>
<text text-anchor="middle" x="71" y="-157.05" font-family="Consolas" font-size="11.00">_status</text>
</a>
</g>
</g>
<!-- Node2 -->
<g id="Node000002" class="node">
<title>Node2</title>
<g id="a_Node000002"><a xlink:href="../../dc/dee/class_material.html#ade3c7e01d4ba1a2e432e6a678bf796c1" target="_top" xlink:title=" ">
<polygon fill="white" stroke="#666666" points="323,-344 181,-344 181,-309 323,-309 323,-344"/>
<text text-anchor="start" x="189" y="-329.55" font-family="Consolas" font-size="11.00">Material::get_current</text>
<text text-anchor="middle" x="252" y="-316.05" font-family="Consolas" font-size="11.00">_strain_rate</text>
</a>
</g>
</g>
<!-- Node1&#45;&gt;Node2 -->
<g id="edge1_Node000001_Node000002" class="edge">
<title>Node1&#45;&gt;Node2</title>
<g id="a_edge1_Node000001_Node000002"><a xlink:title=" ">
<path fill="none" stroke="#63b8ff" d="M81.68,-185.19C97.98,-213.44 133.54,-268.76 178,-300.5 179.3,-301.43 180.64,-302.33 182,-303.2"/>
<polygon fill="#63b8ff" stroke="#63b8ff" points="179.97,-306.63 190.4,-308.51 183.42,-300.54 179.97,-306.63"/>
</a>
</g>
</g>
<!-- Node3 -->
<g id="Node000003" class="node">
<title>Node3</title>
<g id="a_Node000003"><a xlink:href="../../dc/dee/class_material.html#ac0219cdb7612d1b88c64eeddd0b927fb" target="_top" xlink:title=" ">
<polygon fill="white" stroke="#666666" points="317,-291 187,-291 187,-256 317,-256 317,-291"/>
<text text-anchor="start" x="195" y="-276.55" font-family="Consolas" font-size="11.00">Material::get_trial</text>
<text text-anchor="middle" x="252" y="-263.05" font-family="Consolas" font-size="11.00">_damping</text>
</a>
</g>
</g>
<!-- Node1&#45;&gt;Node3 -->
<g id="edge2_Node000001_Node000003" class="edge">
<title>Node1&#45;&gt;Node3</title>
<g id="a_edge2_Node000001_Node000003"><a xlink:title=" ">
<path fill="none" stroke="#63b8ff" d="M91.84,-185.43C112.24,-203.12 145.53,-230 178,-247.5 180.38,-248.78 182.84,-250.03 185.35,-251.23"/>
<polygon fill="#63b8ff" stroke="#63b8ff" points="183.66,-254.75 194.22,-255.64 186.52,-248.37 183.66,-254.75"/>
</a>
</g>
</g>
<!-- Node4 -->
<g id="Node000004" class="node">
<title>Node4</title>
<g id="a_Node000004"><a xlink:href="../../dc/dee/class_material.html#ad28136c4cd29daa3b12b0f416ca99910" target="_top" xlink:title=" ">
<polygon fill="white" stroke="#666666" points="317,-238 187,-238 187,-203 317,-203 317,-238"/>
<text text-anchor="start" x="195" y="-223.55" font-family="Consolas" font-size="11.00">Material::get_trial</text>
<text text-anchor="middle" x="252" y="-210.05" font-family="Consolas" font-size="11.00">_stiffness</text>
</a>
</g>
</g>
<!-- Node1&#45;&gt;Node4 -->
<g id="edge3_Node000001_Node000004" class="edge">
<title>Node1&#45;&gt;Node4</title>
<g id="a_edge3_Node000001_Node000004"><a xlink:title=" ">
<path fill="none" stroke="#63b8ff" d="M132.6,-185.44C147.91,-189.98 164.48,-194.88 180.24,-199.55"/>
<polygon fill="#63b8ff" stroke="#63b8ff" points="178.88,-203.09 189.46,-202.58 180.87,-196.38 178.88,-203.09"/>
</a>
</g>
</g>
<!-- Node5 -->
<g id="Node000005" class="node">
<title>Node5</title>
<g id="a_Node000005"><a xlink:href="../../dc/dee/class_material.html#a73297a8cd5bcef2c652acf1df6418d5b" target="_top" xlink:title=" ">
<polygon fill="white" stroke="#666666" points="317,-185 187,-185 187,-150 317,-150 317,-185"/>
<text text-anchor="start" x="195" y="-170.55" font-family="Consolas" font-size="11.00">Material::get_trial</text>
<text text-anchor="middle" x="252" y="-157.05" font-family="Consolas" font-size="11.00">_stress</text>
</a>
</g>
</g>
<!-- Node1&#45;&gt;Node5 -->
<g id="edge4_Node000001_Node000005" class="edge">
<title>Node1&#45;&gt;Node5</title>
<g id="a_edge4_Node000001_Node000005"><a xlink:title=" ">
<path fill="none" stroke="#63b8ff" d="M142.49,-167.5C153.42,-167.5 164.75,-167.5 175.78,-167.5"/>
<polygon fill="#63b8ff" stroke="#63b8ff" points="175.69,-171 185.69,-167.5 175.69,-164 175.69,-171"/>
</a>
</g>
</g>
<!-- Node6 -->
<g id="Node000006" class="node">
<title>Node6</title>
<g id="a_Node000006"><a xlink:href="../../d8/d8f/suan_pan_8h.html#ab2f3bbc668dc6fbf9332feb42dba79a3" target="_top" xlink:title=" ">
<polygon fill="white" stroke="#666666" points="284,-132.25 220,-132.25 220,-110.75 284,-110.75 284,-132.25"/>
<text text-anchor="middle" x="252" y="-117.8" font-family="Consolas" font-size="11.00">inf_norm</text>
</a>
</g>
</g>
<!-- Node1&#45;&gt;Node6 -->
<g id="edge5_Node000001_Node000006" class="edge">
<title>Node1&#45;&gt;Node6</title>
<g id="a_edge5_Node000001_Node000006"><a xlink:title=" ">
<path fill="none" stroke="#63b8ff" d="M141.98,-149.52C164.64,-143.69 189.07,-137.41 209.04,-132.28"/>
<polygon fill="#63b8ff" stroke="#63b8ff" points="209.83,-135.44 218.64,-129.56 208.09,-128.66 209.83,-135.44"/>
</a>
</g>
</g>
<!-- Node7 -->
<g id="Node000007" class="node">
<title>Node7</title>
<g id="a_Node000007"><a xlink:href="../../db/d83/class_maxwell.html#ae564f6d4290e72a2953ffba170ec5469" target="_top" xlink:title=" ">
<polygon fill="white" stroke="#666666" points="323,-92.25 181,-92.25 181,-70.75 323,-70.75 323,-92.25"/>
<text text-anchor="middle" x="252" y="-77.8" font-family="Consolas" font-size="11.00">Maxwell::reset_status</text>
</a>
</g>
</g>
<!-- Node1&#45;&gt;Node7 -->
<g id="edge6_Node000001_Node000007" class="edge">
<title>Node1&#45;&gt;Node7</title>
<g id="a_edge6_Node000001_Node000007"><a xlink:title=" ">
<path fill="none" stroke="#63b8ff" d="M96.15,-149.62C116.93,-134.95 148.21,-114.53 178,-101.5 182.58,-99.5 187.4,-97.65 192.3,-95.96"/>
<polygon fill="#63b8ff" stroke="#63b8ff" points="192.97,-99.1 201.41,-92.69 190.82,-92.44 192.97,-99.1"/>
</a>
</g>
</g>
<!-- Node9 -->
<g id="Node000009" class="node">
<title>Node9</title>
<g id="a_Node000009"><a xlink:href="../../dc/dee/class_material.html#ad37f4f5f0b778937ec38f9ea4429eb36" target="_top" xlink:title=" ">
<polygon fill="white" stroke="#666666" points="326,-35 178,-35 178,0 326,0 326,-35"/>
<text text-anchor="start" x="186" y="-20.55" font-family="Consolas" font-size="11.00">Material::update_incre</text>
<text text-anchor="middle" x="252" y="-7.05" font-family="Consolas" font-size="11.00">_status</text>
</a>
</g>
</g>
<!-- Node1&#45;&gt;Node9 -->
<g id="edge8_Node000001_Node000009" class="edge">
<title>Node1&#45;&gt;Node9</title>
<g id="a_edge8_Node000001_Node000009"><a xlink:title=" ">
<path fill="none" stroke="#63b8ff" d="M87.36,-149.66C107.01,-127.45 142.74,-89.08 178,-61.5 187.37,-54.17 198.05,-47.1 208.3,-40.86"/>
<polygon fill="#63b8ff" stroke="#63b8ff" points="209.73,-43.49 216.54,-35.37 206.16,-37.47 209.73,-43.49"/>
</a>
</g>
</g>
<!-- Node8 -->
<g id="Node000008" class="node">
<title>Node8</title>
<g id="a_Node000008"><a xlink:href="../../dc/dee/class_material.html#a7b974ec9d0b5df5bbc37a9ceaf7173f9" target="_top" xlink:title=" ">
<polygon fill="white" stroke="#666666" points="510,-92.25 362,-92.25 362,-70.75 510,-70.75 510,-92.25"/>
<text text-anchor="middle" x="436" y="-77.8" font-family="Consolas" font-size="11.00">Material::reset_status</text>
</a>
</g>
</g>
<!-- Node7&#45;&gt;Node8 -->
<g id="edge7_Node000007_Node000008" class="edge">
<title>Node7&#45;&gt;Node8</title>
<g id="a_edge7_Node000007_Node000008"><a xlink:title=" ">
<path fill="none" stroke="#63b8ff" d="M323.37,-81.5C332.35,-81.5 341.62,-81.5 350.8,-81.5"/>
<polygon fill="#63b8ff" stroke="#63b8ff" points="350.51,-85 360.51,-81.5 350.51,-78 350.51,-85"/>
</a>
</g>
</g>
<!-- Node9&#45;&gt;Node9 -->
<g id="edge9_Node000009_Node000009" class="edge">
<title>Node9&#45;&gt;Node9</title>
<g id="a_edge9_Node000009_Node000009"><a xlink:title=" ">
<path fill="none" stroke="#63b8ff" d="M219.26,-35.4C214.22,-44.66 225.13,-53 252,-53 267.53,-53 277.73,-50.21 282.6,-46.07"/>
<polygon fill="#63b8ff" stroke="#63b8ff" points="286.21,-46.89 284.74,-36.4 279.34,-45.52 286.21,-46.89"/>
</a>
</g>
</g>
</g>
</svg>

<g id="navigator" transform="translate(0 0)" fill="#404254">
  <rect fill="#f2f5e9" fill-opacity="0.5" stroke="#606060" stroke-width=".5" x="0" y="0" width="60" height="60"/>
  <use id="zoomplus" xlink:href="#zoomPlus" x="17" y="9" onmousedown="handleZoom(evt,'in')"/>
  <use id="zoomminus" xlink:href="#zoomMin" x="42" y="9" onmousedown="handleZoom(evt,'out')"/>
  <use id="reset" xlink:href="#resetDef" x="30" y="36" onmousedown="handleReset()"/>
   <use id="arrowup" xlink:href="#arrowUp" x="0" y="0" onmousedown="handlePan(0,-1)"/>
  <use id="arrowright" xlink:href="#arrowRight" x="0" y="0" onmousedown="handlePan(1,0)"/>
  <use id="arrowdown" xlink:href="#arrowDown" x="0" y="0" onmousedown="handlePan(0,1)"/>
  <use id="arrowleft" xlink:href="#arrowLeft" x="0" y="0" onmousedown="handlePan(-1,0)"/>
</g>
<svg viewBox="0 0 15 15" width="100%" height="30px" preserveAspectRatio="xMaxYMin meet">
 <g id="arrow_out" transform="scale(0.3 0.3)">
  <a xlink:href="class_maxwell_ab7056f092e9a8da26e27cf7f7a389d1d_cgraph_org.svg" target="_base">
   <rect id="button" ry="5" rx="5" y="6" x="6" height="38" width="38"
        fill="#f2f5e9" fill-opacity="0.5" stroke="#606060" stroke-width="1.0"/>
   <path id="arrow"
     d="M 11.500037,31.436501 C 11.940474,20.09759 22.043105,11.32322 32.158766,21.979434 L 37.068811,17.246167 C 37.068811,17.246167 37.088388,32 37.088388,32 L 22.160133,31.978069 C 22.160133,31.978069 26.997745,27.140456 26.997745,27.140456 C 18.528582,18.264221 13.291696,25.230495 11.500037,31.436501 z"
     style="fill:#404040;"/>
  </a>
 </g>
</svg>

<style type='text/css'>
<![CDATA[
[data-mouse-over-selected='false'] { opacity: 0.7; }
[data-mouse-over-selected='true']  { opacity: 1.0; }
]]>
</style>
<script type="application/ecmascript"><![CDATA[
document.addEventListener('DOMContentLoaded', (event) => {
  highlightEdges();
  highlightAdjacentNodes();
});
]]></script>
</svg>
