<svg xmlns="http://www.w3.org/2000/svg" xmlns:xlink="http://www.w3.org/1999/xlink" width="1088" height="592" viewBox="0 0 816 444"><g class="graph" transform="translate(4 440)"><title>Element/Membrane/Infinite/CINP4.h</title><g class="node"><title>Node1</title><a>
<path fill="#999" stroke="#666" d="M426-436H241v32h185z"/>
<text x="249" y="-423.2" font-family="Consolas" font-size="11">Element/Membrane/Infinite</text>
<text x="333.5" y="-411.2" font-family="Consolas" font-size="11" text-anchor="middle">/CINP4.h</text>
</a></g><g class="node"><title>Node2</title><a xlink:href="../../dc/d5f/_material_element_8h.html" target="_top">
<path fill="#fff" stroke="#666" d="M426-368H241v20h185z"/>
<text x="333.5" y="-355.2" font-family="Consolas" font-size="11" text-anchor="middle">Element/MaterialElement.h</text>
</a></g><g class="edge"><title>Node1-&gt;Node2</title><a>
<path fill="none" stroke="#63b8ff" d="M333.5-403.86v25.49"/>
<path fill="#63b8ff" stroke="#63b8ff" d="m337-378.15-3.5 10-3.5-10z"/>
</a></g><g class="node"><title>Node3</title><a xlink:href="../../d0/db8/_element_8h.html" target="_top">
<path fill="#fff" stroke="#666" d="M399-312H268v20h131z"/>
<text x="333.5" y="-299.2" font-family="Consolas" font-size="11" text-anchor="middle">Element/Element.h</text>
</a></g><g class="edge"><title>Node2-&gt;Node3</title><a>
<path fill="none" stroke="#63b8ff" d="M333.5-347.59v25.02"/>
<path fill="#63b8ff" stroke="#63b8ff" d="m337-322.3-3.5 10-3.5-10z"/>
</a></g><g class="node"><title>Node4</title><a xlink:href="../../d1/d48/_distributed_8h.html" target="_top">
<path fill="#fff" stroke="#666" d="M324.5-256h-158v20h158z"/>
<text x="245.5" y="-243.2" font-family="Consolas" font-size="11" text-anchor="middle">Element/Distributed.h</text>
</a></g><g class="edge"><title>Node3-&gt;Node4</title><a>
<path fill="none" stroke="#63b8ff" d="M318.57-291.84c-13.61 8.35-33.93 20.82-49.69 30.5"/>
<path fill="#63b8ff" stroke="#63b8ff" d="m270.56-258.27-10.35 2.24 6.69-8.21z"/>
</a></g><g class="node"><title>Node12</title><a xlink:href="../../d9/d82/_element_base_8h.html" target="_top">
<path fill="#fff" stroke="#666" d="M505.5-256h-158v20h158z"/>
<text x="426.5" y="-243.2" font-family="Consolas" font-size="11" text-anchor="middle">Element/ElementBase.h</text>
</a></g><g class="edge"><title>Node3-&gt;Node12</title><a>
<path fill="none" stroke="#63b8ff" d="M349.28-291.84c14.51 8.43 36.26 21.06 52.98 30.77"/>
<path fill="#63b8ff" stroke="#63b8ff" d="m404.07-264.07 6.89 8.04-10.41-1.99z"/>
</a></g><g class="node"><title>Node5</title><a xlink:href="../../d8/d8f/suan_pan_8h.html" target="_top">
<path fill="#fff" stroke="#666" d="M352-76h-77v20h77z"/>
<text x="313.5" y="-63.2" font-family="Consolas" font-size="11" text-anchor="middle">suanPan.h</text>
</a></g><g class="edge"><title>Node4-&gt;Node5</title><a>
<path fill="none" stroke="#63b8ff" d="M243.8-235.92c-3.73 22.56-10.66 82.31 11.7 123.92 6.92 12.88 19.29 23.26 30.83 30.79"/>
<path fill="#63b8ff" stroke="#63b8ff" d="m288.16-84.2 6.74 8.18-10.37-2.19z"/>
</a></g><g class="node"><title>Node6</title><a>
<path fill="#e0e0e0" stroke="#999" d="M71-20H0V0h71z"/>
<text x="35.5" y="-7.2" font-family="Consolas" font-size="11" text-anchor="middle">iostream</text>
</a></g><g class="edge"><title>Node5-&gt;Node6</title><a>
<path fill="none" stroke="#63b8ff" d="M274.96-57.73c-44.4 8.4-119.84 22.78-193.95 37.45"/>
<path fill="#63b8ff" stroke="#63b8ff" d="m81.52-16.82-10.49-1.49 9.13-5.37z"/>
</a></g><g class="node"><title>Node7</title><a>
<path fill="#e0e0e0" stroke="#999" d="M200-20H89V0h111z"/>
<text x="144.5" y="-7.2" font-family="Consolas" font-size="11" text-anchor="middle">armadillo/arma</text>
</a></g><g class="edge"><title>Node5-&gt;Node7</title><a>
<path fill="none" stroke="#63b8ff" d="M285.21-55.96c-28.15 8.99-71.53 22.85-102.68 32.81"/>
<path fill="#63b8ff" stroke="#63b8ff" d="m183.47-19.78-10.59-.29 8.46-6.38z"/>
</a></g><g class="node"><title>Node8</title><a>
<path fill="#e0e0e0" stroke="#999" d="M302.5-20h-84V0h84z"/>
<text x="260.5" y="-7.2" font-family="Consolas" font-size="11" text-anchor="middle">filesystem</text>
</a></g><g class="edge"><title>Node5-&gt;Node8</title><a>
<path fill="none" stroke="#63b8ff" d="M304.27-55.59c-7.6 7.74-18.56 18.9-27.61 28.12"/>
<path fill="#63b8ff" stroke="#63b8ff" d="m279.13-24.98-9.5 4.68 4.5-9.59z"/>
</a></g><g class="node"><title>Node9</title><a>
<path fill="#e0e0e0" stroke="#999" d="M412-20h-91V0h91z"/>
<text x="366.5" y="-7.2" font-family="Consolas" font-size="11" text-anchor="middle">fmt/color.h</text>
</a></g><g class="edge"><title>Node5-&gt;Node9</title><a>
<path fill="none" stroke="#63b8ff" d="M322.73-55.59c7.6 7.74 18.56 18.9 27.61 28.12"/>
<path fill="#63b8ff" stroke="#63b8ff" d="m352.87-29.89 4.5 9.59-9.5-4.68z"/>
</a></g><g class="node"><title>Node10</title><a>
<path fill="#e0e0e0" stroke="#999" d="M480.5-20h-50V0h50z"/>
<text x="455.5" y="-7.2" font-family="Consolas" font-size="11" text-anchor="middle">mutex</text>
</a></g><g class="edge"><title>Node5-&gt;Node10</title><a>
<path fill="none" stroke="#63b8ff" d="M337.27-55.96c23.24 8.84 58.84 22.38 84.91 32.29"/>
<path fill="#63b8ff" stroke="#63b8ff" d="m423.55-26.89 8.1 6.82-10.59-.28z"/>
</a></g><g class="node"><title>Node11</title><a>
<path fill="#e0e0e0" stroke="#999" d="M556-20h-57V0h57z"/>
<text x="527.5" y="-7.2" font-family="Consolas" font-size="11" text-anchor="middle">memory</text>
</a></g><g class="edge"><title>Node5-&gt;Node11</title><a>
<path fill="none" stroke="#63b8ff" d="m349.32-55.96 139.61 35.23"/>
<path fill="#63b8ff" stroke="#63b8ff" d="m489.93-24.09 8.84 5.84-10.55.95z"/>
</a></g><g class="node"><title>Node13</title><a xlink:href="../../d1/d02/_node_8h.html" target="_top">
<path fill="#fff" stroke="#666" d="M366.5-194h-104v20h104z"/>
<text x="314.5" y="-181.2" font-family="Consolas" font-size="11" text-anchor="middle">Domain/Node.h</text>
</a></g><g class="edge"><title>Node12-&gt;Node13</title><a>
<path fill="none" stroke="#63b8ff" d="M409.49-235.89c-18.44 9.88-48.09 25.77-69.36 37.16"/>
<path fill="#63b8ff" stroke="#63b8ff" d="M341.77-195.64 331.3-194l7.17-7.81z"/>
</a></g><g class="node"><title>Node14</title><a xlink:href="../../d2/d4a/_tag_8h.html" target="_top">
<path fill="#fff" stroke="#666" d="M362.5-132h-98v20h98z"/>
<text x="313.5" y="-119.2" font-family="Consolas" font-size="11" text-anchor="middle">Domain/Tag.h</text>
</a></g><g class="edge"><title>Node12-&gt;Node14</title><a>
<path fill="none" stroke="#63b8ff" d="M421.77-235.71c-8.06 15.28-25.64 46.17-46.27 67.71-11.14 11.63-25.62 22.33-37.79 30.38"/>
<path fill="#63b8ff" stroke="#63b8ff" d="m339.27-134.46-10.31 2.44 6.53-8.34z"/>
</a></g><g class="node"><title>Node15</title><a xlink:href="../../d6/d94/_mapping_d_o_f_8h.html" target="_top">
<path fill="#fff" stroke="#666" d="M532.5-132h-152v20h152z"/>
<text x="456.5" y="-119.2" font-family="Consolas" font-size="11" text-anchor="middle">Element/MappingDOF.h</text>
</a></g><g class="edge"><title>Node12-&gt;Node15</title><a>
<path fill="none" stroke="#63b8ff" d="M428.75-235.83c4.87 19.78 16.44 66.83 23 93.51"/>
<path fill="#63b8ff" stroke="#63b8ff" d="m455.23-142.82-1.01 10.54-5.79-8.87z"/>
</a></g><g class="node"><title>Node16</title><a xlink:href="../../d9/dc0/vtk_base_8h.html" target="_top">
<path fill="#fff" stroke="#666" d="M618.5-200h-158v32h158z"/>
<text x="468.5" y="-187.2" font-family="Consolas" font-size="11">Element/Visualisation</text>
<text x="539.5" y="-175.2" font-family="Consolas" font-size="11" text-anchor="middle">/vtkBase.h</text>
</a></g><g class="edge"><title>Node12-&gt;Node16</title><a>
<path fill="none" stroke="#63b8ff" d="M443.66-235.89c15.46 8.21 38.71 20.56 58.45 31.03"/>
<path fill="#63b8ff" stroke="#63b8ff" d="m503.98-207.82 7.19 7.78-10.47-1.6z"/>
</a></g><g class="node"><title>Node17</title><a xlink:href="../../d4/d0f/_output_type_8h.html" target="_top">
<path fill="#fff" stroke="#666" d="M794.5-194h-158v20h158z"/>
<text x="715.5" y="-181.2" font-family="Consolas" font-size="11" text-anchor="middle">Recorder/OutputType.h</text>
</a></g><g class="edge"><title>Node12-&gt;Node17</title><a>
<path fill="none" stroke="#63b8ff" d="M470.08-235.95c51.36 10.66 136.7 28.38 192 39.86"/>
<path fill="#63b8ff" stroke="#63b8ff" d="m662.96-199.48 9.08 5.46-10.5 1.39z"/>
</a></g><g class="edge"><title>Node13-&gt;Node14</title><a>
<path fill="none" stroke="#63b8ff" d="M314.35-173.89c-.14 8.37-.35 21.05-.53 31.66"/>
<path fill="#63b8ff" stroke="#63b8ff" d="m317.32-142.14-3.67 9.94-3.33-10.06z"/>
</a></g><g class="edge"><title>Node14-&gt;Node5</title><a>
<path fill="none" stroke="#63b8ff" d="M313.5-111.59v25.02"/>
<path fill="#63b8ff" stroke="#63b8ff" d="m317-86.3-3.5 10-3.5-10z"/>
</a></g><g class="edge"><title>Node15-&gt;Node5</title><a>
<path fill="none" stroke="#63b8ff" d="M432.57-111.96c-23.41 8.84-59.26 22.38-85.51 32.29"/>
<path fill="#63b8ff" stroke="#63b8ff" d="m348.1-76.33-10.59.26 8.12-6.8z"/>
</a></g><g class="node"><title>Node18</title><a>
<path fill="#e0e0e0" stroke="#999" d="M808-132H623v20h185z"/>
<text x="715.5" y="-119.2" font-family="Consolas" font-size="11" text-anchor="middle">magic_enum/magic_enum.hpp</text>
</a></g><g class="edge"><title>Node17-&gt;Node18</title><a>
<path fill="none" stroke="#63b8ff" d="M715.5-173.89v31.66"/>
<path fill="#63b8ff" stroke="#63b8ff" d="m719-142.2-3.5 10-3.5-10z"/>
</a></g></g></svg>