<?xml version="1.0" encoding="UTF-8" standalone="no"?>
<!DOCTYPE svg PUBLIC "-//W3C//DTD SVG 1.1//EN"
 "http://www.w3.org/Graphics/SVG/1.1/DTD/svg11.dtd">
<!-- Generated by graphviz version 9.0.0 (20230911.1827)
 -->
<!-- Title: Node Pages: 1 -->
<!--zoomable 803 -->

<svg id="main" version="1.1" xmlns="http://www.w3.org/2000/svg" xmlns:xlink="http://www.w3.org/1999/xlink" xml:space="preserve" onload="init(evt)">
<style type="text/css"><![CDATA[
.node, .edge {opacity: 0.7;}
.node.selected, .edge.selected {opacity: 1;}
.edge:hover path { stroke: red; }
.edge:hover polygon { stroke: red; fill: red; }
]]></style>

<defs>
  <circle id="rim" cx="0" cy="0" r="7"/>
  <circle id="rim2" cx="0" cy="0" r="3.5"/>
  <g id="zoomPlus">
    <use xlink:href="#rim" fill="#404040"><set attributeName="fill" to="#808080" begin="zoomplus.mouseover" end="zoomplus.mouseout"/></use>
    <path d="M-4,0h8M0,-4v8" fill="none" stroke="white" stroke-width="1.5" pointer-events="none"/>
  </g>
  <g id="zoomMin">
    <use xlink:href="#rim" fill="#404040"><set attributeName="fill" to="#808080" begin="zoomminus.mouseover" end="zoomminus.mouseout"/></use>
    <path d="M-4,0h8" fill="none" stroke="white" stroke-width="1.5" pointer-events="none"/>
  </g>
  <g id="arrowUp" transform="translate(30 24)">
    <use xlink:href="#rim"/>
    <path pointer-events="none" fill="none" stroke="white" stroke-width="1.5" d="M0,-3.0v7 M-2.5,-0.5L0,-3.0L2.5,-0.5"/>
  </g>
  <g id="arrowRight" transform="rotate(90) translate(36 -43)">
    <use xlink:href="#rim"/>
    <path pointer-events="none" fill="none" stroke="white" stroke-width="1.5" d="M0,-3.0v7 M-2.5,-0.5L0,-3.0L2.5,-0.5"/>
  </g>
  <g id="arrowDown" transform="rotate(180) translate(-30 -48)">
    <use xlink:href="#rim"/>
    <path pointer-events="none" fill="none" stroke="white" stroke-width="1.5" d="M0,-3.0v7 M-2.5,-0.5L0,-3.0L2.5,-0.5"/>
  </g>
  <g id="arrowLeft" transform="rotate(270) translate(-36 17)">
    <use xlink:href="#rim"/>
    <path pointer-events="none" fill="none" stroke="white" stroke-width="1.5" d="M0,-3.0v7 M-2.5,-0.5L0,-3.0L2.5,-0.5"/>
  </g>
  <g id="resetDef">
    <use xlink:href="#rim2" fill="#404040"><set attributeName="fill" to="#808080" begin="reset.mouseover" end="reset.mouseout"/></use>
  </g>
</defs>
<script type="application/ecmascript">
var viewWidth = 381;
var viewHeight = 803;
var sectionId = 'dynsection-1';
</script>
<script type="application/ecmascript" xlink:href="../../svg.min.js"/>
<svg id="graph" class="graph">
<g id="viewport">
<title>Node</title>
<!-- Node1 -->
<g id="Node000001" class="node">
<title>Node1</title>
<g id="a_Node000001"><a xlink:title="The Node class holds the number of DoFs, coordinate, displacement, velocity and acceleration.">
<polygon fill="#999999" stroke="none" points="260,-225 158,-225 158,0 260,0 260,-225"/>
<text text-anchor="start" x="197" y="-210.55" font-family="Consolas" font-size="11.00">Node</text>
<text text-anchor="start" x="206" y="-193.55" font-family="Consolas" font-size="11.00"> </text>
<text text-anchor="start" x="162" y="-176.55" font-family="Consolas" font-size="11.00">+</text>
<text text-anchor="start" x="172" y="-176.55" font-family="Consolas" font-size="11.00">Node()</text>
<text text-anchor="start" x="162" y="-159.55" font-family="Consolas" font-size="11.00">+</text>
<text text-anchor="start" x="172" y="-159.55" font-family="Consolas" font-size="11.00">Node()</text>
<text text-anchor="start" x="162" y="-142.55" font-family="Consolas" font-size="11.00">+</text>
<text text-anchor="start" x="172" y="-142.55" font-family="Consolas" font-size="11.00">Node()</text>
<text text-anchor="start" x="162" y="-125.55" font-family="Consolas" font-size="11.00">+</text>
<text text-anchor="start" x="172" y="-125.55" font-family="Consolas" font-size="11.00">Node()</text>
<text text-anchor="start" x="162" y="-108.55" font-family="Consolas" font-size="11.00">+</text>
<text text-anchor="start" x="172" y="-108.55" font-family="Consolas" font-size="11.00">Node()</text>
<text text-anchor="start" x="162" y="-91.55" font-family="Consolas" font-size="11.00">+</text>
<text text-anchor="start" x="172" y="-91.55" font-family="Consolas" font-size="11.00">Node()</text>
<text text-anchor="start" x="162" y="-74.55" font-family="Consolas" font-size="11.00">+</text>
<text text-anchor="start" x="172" y="-74.55" font-family="Consolas" font-size="11.00">operator=()</text>
<text text-anchor="start" x="162" y="-57.55" font-family="Consolas" font-size="11.00">+</text>
<text text-anchor="start" x="172" y="-57.55" font-family="Consolas" font-size="11.00">operator=()</text>
<text text-anchor="start" x="162" y="-40.55" font-family="Consolas" font-size="11.00">+</text>
<text text-anchor="start" x="172" y="-40.55" font-family="Consolas" font-size="11.00">~Node()</text>
<text text-anchor="start" x="162" y="-23.55" font-family="Consolas" font-size="11.00">+</text>
<text text-anchor="start" x="172" y="-23.55" font-family="Consolas" font-size="11.00">initialize()</text>
<text text-anchor="start" x="172" y="-6.55" font-family="Consolas" font-size="11.00">and 90 more...</text>
<polygon fill="#666666" stroke="#666666" points="158,-206 158,-206 260,-206 260,-206 158,-206"/>
<polygon fill="#666666" stroke="#666666" points="158,-189 158,-189 260,-189 260,-189 158,-189"/>
<polygon fill="none" stroke="#666666" points="158,0 158,-225 260,-225 260,0 158,0"/>
</a>
</g>
</g>
<!-- Node2 -->
<g id="Node000002" class="node">
<title>Node2</title>
<g id="a_Node000002"><a xlink:href="../../df/dbd/struct_node_data.html" target="_top" xlink:title=" ">
<polygon fill="white" stroke="none" points="181,-529.5 31,-529.5 31,-287.5 181,-287.5 181,-529.5"/>
<text text-anchor="start" x="82" y="-515.05" font-family="Consolas" font-size="11.00">NodeData</text>
<text text-anchor="start" x="35" y="-498.05" font-family="Consolas" font-size="11.00">+</text>
<text text-anchor="start" x="45" y="-498.05" font-family="Consolas" font-size="11.00">incre_resistance</text>
<text text-anchor="start" x="35" y="-481.05" font-family="Consolas" font-size="11.00">+</text>
<text text-anchor="start" x="45" y="-481.05" font-family="Consolas" font-size="11.00">incre_nonviscous_force</text>
<text text-anchor="start" x="35" y="-464.05" font-family="Consolas" font-size="11.00">+</text>
<text text-anchor="start" x="45" y="-464.05" font-family="Consolas" font-size="11.00">incre_inertial_force</text>
<text text-anchor="start" x="35" y="-447.05" font-family="Consolas" font-size="11.00">+</text>
<text text-anchor="start" x="45" y="-447.05" font-family="Consolas" font-size="11.00">incre_displacement</text>
<text text-anchor="start" x="35" y="-430.05" font-family="Consolas" font-size="11.00">+</text>
<text text-anchor="start" x="45" y="-430.05" font-family="Consolas" font-size="11.00">incre_velocity</text>
<text text-anchor="start" x="35" y="-413.05" font-family="Consolas" font-size="11.00">+</text>
<text text-anchor="start" x="45" y="-413.05" font-family="Consolas" font-size="11.00">trial_resistance</text>
<text text-anchor="start" x="35" y="-396.05" font-family="Consolas" font-size="11.00">+</text>
<text text-anchor="start" x="45" y="-396.05" font-family="Consolas" font-size="11.00">trial_damping_force</text>
<text text-anchor="start" x="35" y="-379.05" font-family="Consolas" font-size="11.00">+</text>
<text text-anchor="start" x="45" y="-379.05" font-family="Consolas" font-size="11.00">trial_nonviscous_force</text>
<text text-anchor="start" x="35" y="-362.05" font-family="Consolas" font-size="11.00">+</text>
<text text-anchor="start" x="45" y="-362.05" font-family="Consolas" font-size="11.00">trial_inertial_force</text>
<text text-anchor="start" x="35" y="-345.05" font-family="Consolas" font-size="11.00">+</text>
<text text-anchor="start" x="45" y="-345.05" font-family="Consolas" font-size="11.00">trial_displacement</text>
<text text-anchor="start" x="35" y="-328.05" font-family="Consolas" font-size="11.00">+</text>
<text text-anchor="start" x="45" y="-328.05" font-family="Consolas" font-size="11.00">trial_velocity</text>
<text text-anchor="start" x="35" y="-311.05" font-family="Consolas" font-size="11.00">+</text>
<text text-anchor="start" x="45" y="-311.05" font-family="Consolas" font-size="11.00">trial_acceleration</text>
<text text-anchor="start" x="103" y="-294.05" font-family="Consolas" font-size="11.00"> </text>
<polygon fill="#666666" stroke="#666666" points="31,-510.5 31,-510.5 181,-510.5 181,-510.5 31,-510.5"/>
<polygon fill="#666666" stroke="#666666" points="31,-306.5 31,-306.5 43,-306.5 43,-306.5 31,-306.5"/>
<polygon fill="#666666" stroke="#666666" points="43,-306.5 43,-306.5 181,-306.5 181,-306.5 43,-306.5"/>
<polygon fill="none" stroke="#666666" points="31,-287.5 31,-529.5 181,-529.5 181,-287.5 31,-287.5"/>
</a>
</g>
</g>
<!-- Node2&#45;&gt;Node1 -->
<g id="edge1_Node000001_Node000002" class="edge">
<title>Node2&#45;&gt;Node1</title>
<g id="a_edge1_Node000001_Node000002"><a xlink:title=" ">
<path fill="none" stroke="darkgreen" d="M151.68,-277.12C157.78,-259.7 163.99,-241.97 169.97,-224.91"/>
<polygon fill="none" stroke="darkgreen" points="148.4,-275.9 148.39,-286.49 155,-278.21 148.4,-275.9"/>
</a>
</g>
</g>
<!-- Node3 -->
<g id="Node000003" class="node">
<title>Node3</title>
<g id="a_Node000003"><a xlink:title=" ">
<polygon fill="white" stroke="none" points="58,-794.5 0,-794.5 0,-739.5 58,-739.5 58,-794.5"/>
<text text-anchor="start" x="5" y="-780.05" font-family="Consolas" font-size="11.00">unsigned</text>
<text text-anchor="start" x="26" y="-763.05" font-family="Consolas" font-size="11.00"> </text>
<text text-anchor="start" x="26" y="-746.05" font-family="Consolas" font-size="11.00"> </text>
<polygon fill="#666666" stroke="#666666" points="0,-775.5 0,-775.5 58,-775.5 58,-775.5 0,-775.5"/>
<polygon fill="#666666" stroke="#666666" points="0,-758.5 0,-758.5 58,-758.5 58,-758.5 0,-758.5"/>
<polygon fill="none" stroke="#666666" points="0,-739.5 0,-794.5 58,-794.5 58,-739.5 0,-739.5"/>
</a>
</g>
</g>
<!-- Node3&#45;&gt;Node2 -->
<g id="edge2_Node000002_Node000003" class="edge">
<title>Node3&#45;&gt;Node2</title>
<g id="a_edge2_Node000002_Node000003"><a xlink:title=" ">
<path fill="none" stroke="#63b8ff" d="M29.57,-739.77C30.84,-702.35 34.91,-631.66 48,-573 50.31,-562.65 53.08,-552.05 56.15,-541.47"/>
<polygon fill="none" stroke="#63b8ff" points="56.16,-541.43 54.05,-534.53 59.61,-529.93 61.71,-536.83 56.16,-541.43"/>
</a>
</g>
<text text-anchor="middle" x="75" y="-643.55" font-family="Consolas" font-size="11.00" fill="grey"> +num_dof</text>
</g>
<!-- Node4 -->
<g id="Node000004" class="node">
<title>Node4</title>
<g id="a_Node000004"><a xlink:title=" ">
<polygon fill="white" stroke="none" points="120,-794.5 92,-794.5 92,-739.5 120,-739.5 120,-794.5"/>
<text text-anchor="start" x="97" y="-780.05" font-family="Consolas" font-size="11.00">vec</text>
<text text-anchor="start" x="103" y="-763.05" font-family="Consolas" font-size="11.00"> </text>
<text text-anchor="start" x="103" y="-746.05" font-family="Consolas" font-size="11.00"> </text>
<polygon fill="#666666" stroke="#666666" points="92,-775.5 92,-775.5 120,-775.5 120,-775.5 92,-775.5"/>
<polygon fill="#666666" stroke="#666666" points="92,-758.5 92,-758.5 120,-758.5 120,-758.5 92,-758.5"/>
<polygon fill="none" stroke="#666666" points="92,-739.5 92,-794.5 120,-794.5 120,-739.5 92,-739.5"/>
</a>
</g>
</g>
<!-- Node4&#45;&gt;Node2 -->
<g id="edge3_Node000002_Node000004" class="edge">
<title>Node4&#45;&gt;Node2</title>
<g id="a_edge3_Node000002_Node000004"><a xlink:title=" ">
<path fill="none" stroke="#63b8ff" d="M106,-739.79C106,-698.3 106,-614.75 106,-542.07"/>
<polygon fill="none" stroke="#63b8ff" points="106,-542.01 102,-536.01 106,-530.01 110,-536.01 106,-542.01"/>
</a>
</g>
<text text-anchor="middle" x="181" y="-711.05" font-family="Consolas" font-size="11.00" fill="grey"> +coordinate</text>
<text text-anchor="middle" x="181" y="-697.55" font-family="Consolas" font-size="11.00" fill="grey">+current_acceleration</text>
<text text-anchor="middle" x="181" y="-684.05" font-family="Consolas" font-size="11.00" fill="grey">+current_damping_force</text>
<text text-anchor="middle" x="181" y="-670.55" font-family="Consolas" font-size="11.00" fill="grey">+current_displacement</text>
<text text-anchor="middle" x="181" y="-657.05" font-family="Consolas" font-size="11.00" fill="grey">+current_inertial_force</text>
<text text-anchor="middle" x="181" y="-643.55" font-family="Consolas" font-size="11.00" fill="grey">+current_nonviscous_force</text>
<text text-anchor="middle" x="181" y="-630.05" font-family="Consolas" font-size="11.00" fill="grey">+current_resistance</text>
<text text-anchor="middle" x="181" y="-616.55" font-family="Consolas" font-size="11.00" fill="grey">+current_velocity</text>
<text text-anchor="middle" x="181" y="-603.05" font-family="Consolas" font-size="11.00" fill="grey">+incre_acceleration</text>
<text text-anchor="middle" x="181" y="-589.55" font-family="Consolas" font-size="11.00" fill="grey">+incre_damping_force</text>
<text text-anchor="middle" x="181" y="-576.05" font-family="Consolas" font-size="11.00" fill="grey">...</text>
</g>
<!-- Node5 -->
<g id="Node000005" class="node">
<title>Node5</title>
<g id="a_Node000005"><a xlink:title=" ">
<polygon fill="white" stroke="none" points="296,-794.5 262,-794.5 262,-739.5 296,-739.5 296,-794.5"/>
<text text-anchor="start" x="267" y="-780.05" font-family="Consolas" font-size="11.00">uvec</text>
<text text-anchor="start" x="276" y="-763.05" font-family="Consolas" font-size="11.00"> </text>
<text text-anchor="start" x="276" y="-746.05" font-family="Consolas" font-size="11.00"> </text>
<polygon fill="#666666" stroke="#666666" points="262,-775.5 262,-775.5 296,-775.5 296,-775.5 262,-775.5"/>
<polygon fill="#666666" stroke="#666666" points="262,-758.5 262,-758.5 296,-758.5 296,-758.5 262,-758.5"/>
<polygon fill="none" stroke="#666666" points="262,-739.5 262,-794.5 296,-794.5 296,-739.5 262,-739.5"/>
</a>
</g>
</g>
<!-- Node5&#45;&gt;Node2 -->
<g id="edge4_Node000002_Node000005" class="edge">
<title>Node5&#45;&gt;Node2</title>
<g id="a_edge4_Node000002_Node000005"><a xlink:title=" ">
<path fill="none" stroke="#63b8ff" d="M284.42,-739.61C291.18,-698.72 297.38,-619.89 257,-573 236.88,-549.64 214.46,-573.78 190,-555 183.7,-550.16 177.79,-544.71 172.26,-538.82"/>
<polygon fill="none" stroke="#63b8ff" points="172.37,-538.95 165.41,-537.07 164.47,-529.92 171.43,-531.8 172.37,-538.95"/>
</a>
</g>
<text text-anchor="middle" x="331" y="-650.3" font-family="Consolas" font-size="11.00" fill="grey"> +original_dof</text>
<text text-anchor="middle" x="331" y="-636.8" font-family="Consolas" font-size="11.00" fill="grey">+reordered_dof</text>
</g>
<!-- Node6 -->
<g id="Node000006" class="node">
<title>Node6</title>
<g id="a_Node000006"><a xlink:href="../../d0/d57/class_tag.html" target="_top" xlink:title="A base Tag class.">
<polygon fill="white" stroke="none" points="289,-555 199,-555 199,-262 289,-262 289,-555"/>
<text text-anchor="start" x="235" y="-540.55" font-family="Consolas" font-size="11.00">Tag</text>
<text text-anchor="start" x="241" y="-523.55" font-family="Consolas" font-size="11.00"> </text>
<text text-anchor="start" x="203" y="-506.55" font-family="Consolas" font-size="11.00">+</text>
<text text-anchor="start" x="213" y="-506.55" font-family="Consolas" font-size="11.00">Tag()</text>
<text text-anchor="start" x="203" y="-489.55" font-family="Consolas" font-size="11.00">+</text>
<text text-anchor="start" x="213" y="-489.55" font-family="Consolas" font-size="11.00">Tag()</text>
<text text-anchor="start" x="203" y="-472.55" font-family="Consolas" font-size="11.00">+</text>
<text text-anchor="start" x="213" y="-472.55" font-family="Consolas" font-size="11.00">Tag()</text>
<text text-anchor="start" x="203" y="-455.55" font-family="Consolas" font-size="11.00">+</text>
<text text-anchor="start" x="213" y="-455.55" font-family="Consolas" font-size="11.00">operator=()</text>
<text text-anchor="start" x="203" y="-438.55" font-family="Consolas" font-size="11.00">+</text>
<text text-anchor="start" x="213" y="-438.55" font-family="Consolas" font-size="11.00">operator=()</text>
<text text-anchor="start" x="203" y="-421.55" font-family="Consolas" font-size="11.00">+</text>
<text text-anchor="start" x="213" y="-421.55" font-family="Consolas" font-size="11.00">~Tag()</text>
<text text-anchor="start" x="203" y="-404.55" font-family="Consolas" font-size="11.00">+</text>
<text text-anchor="start" x="213" y="-404.55" font-family="Consolas" font-size="11.00">set_tag()</text>
<text text-anchor="start" x="203" y="-387.55" font-family="Consolas" font-size="11.00">+</text>
<text text-anchor="start" x="213" y="-387.55" font-family="Consolas" font-size="11.00">get_tag()</text>
<text text-anchor="start" x="203" y="-370.55" font-family="Consolas" font-size="11.00">+</text>
<text text-anchor="start" x="213" y="-370.55" font-family="Consolas" font-size="11.00">enable()</text>
<text text-anchor="start" x="203" y="-353.55" font-family="Consolas" font-size="11.00">+</text>
<text text-anchor="start" x="213" y="-353.55" font-family="Consolas" font-size="11.00">disable()</text>
<text text-anchor="start" x="203" y="-336.55" font-family="Consolas" font-size="11.00">+</text>
<text text-anchor="start" x="213" y="-336.55" font-family="Consolas" font-size="11.00">guard()</text>
<text text-anchor="start" x="203" y="-319.55" font-family="Consolas" font-size="11.00">+</text>
<text text-anchor="start" x="213" y="-319.55" font-family="Consolas" font-size="11.00">unguard()</text>
<text text-anchor="start" x="203" y="-302.55" font-family="Consolas" font-size="11.00">+</text>
<text text-anchor="start" x="213" y="-302.55" font-family="Consolas" font-size="11.00">is_active()</text>
<text text-anchor="start" x="203" y="-285.55" font-family="Consolas" font-size="11.00">+</text>
<text text-anchor="start" x="213" y="-285.55" font-family="Consolas" font-size="11.00">is_guarded()</text>
<text text-anchor="start" x="203" y="-268.55" font-family="Consolas" font-size="11.00">+</text>
<text text-anchor="start" x="213" y="-268.55" font-family="Consolas" font-size="11.00">print()</text>
<polygon fill="#666666" stroke="#666666" points="199,-536 199,-536 289,-536 289,-536 199,-536"/>
<polygon fill="#666666" stroke="#666666" points="199,-519 199,-519 289,-519 289,-519 199,-519"/>
<polygon fill="none" stroke="#666666" points="199,-262 199,-555 289,-555 289,-262 199,-262"/>
</a>
</g>
</g>
<!-- Node6&#45;&gt;Node1 -->
<g id="edge5_Node000001_Node000006" class="edge">
<title>Node6&#45;&gt;Node1</title>
<g id="a_edge5_Node000001_Node000006"><a xlink:title=" ">
<path fill="none" stroke="#63b8ff" d="M225.37,-251.02C224.32,-242.18 223.27,-233.4 222.25,-224.78"/>
<polygon fill="none" stroke="#63b8ff" points="221.87,-251.2 226.53,-260.72 228.82,-250.38 221.87,-251.2"/>
</a>
</g>
</g>
</g>
</svg>

<g id="navigator" transform="translate(0 0)" fill="#404254">
  <rect fill="#f2f5e9" fill-opacity="0.5" stroke="#606060" stroke-width=".5" x="0" y="0" width="60" height="60"/>
  <use id="zoomplus" xlink:href="#zoomPlus" x="17" y="9" onmousedown="handleZoom(evt,'in')"/>
  <use id="zoomminus" xlink:href="#zoomMin" x="42" y="9" onmousedown="handleZoom(evt,'out')"/>
  <use id="reset" xlink:href="#resetDef" x="30" y="36" onmousedown="handleReset()"/>
   <use id="arrowup" xlink:href="#arrowUp" x="0" y="0" onmousedown="handlePan(0,-1)"/>
  <use id="arrowright" xlink:href="#arrowRight" x="0" y="0" onmousedown="handlePan(1,0)"/>
  <use id="arrowdown" xlink:href="#arrowDown" x="0" y="0" onmousedown="handlePan(0,1)"/>
  <use id="arrowleft" xlink:href="#arrowLeft" x="0" y="0" onmousedown="handlePan(-1,0)"/>
</g>
<svg viewBox="0 0 15 15" width="100%" height="30px" preserveAspectRatio="xMaxYMin meet">
 <g id="arrow_out" transform="scale(0.3 0.3)">
  <a xlink:href="class_node__coll__graph_org.svg" target="_base">
   <rect id="button" ry="5" rx="5" y="6" x="6" height="38" width="38"
        fill="#f2f5e9" fill-opacity="0.5" stroke="#606060" stroke-width="1.0"/>
   <path id="arrow"
     d="M 11.500037,31.436501 C 11.940474,20.09759 22.043105,11.32322 32.158766,21.979434 L 37.068811,17.246167 C 37.068811,17.246167 37.088388,32 37.088388,32 L 22.160133,31.978069 C 22.160133,31.978069 26.997745,27.140456 26.997745,27.140456 C 18.528582,18.264221 13.291696,25.230495 11.500037,31.436501 z"
     style="fill:#404040;"/>
  </a>
 </g>
</svg>

<style type='text/css'>
<![CDATA[
[data-mouse-over-selected='false'] { opacity: 0.7; }
[data-mouse-over-selected='true']  { opacity: 1.0; }
]]>
</style>
<script type="application/ecmascript"><![CDATA[
document.addEventListener('DOMContentLoaded', (event) => {
  highlightEdges();
  highlightAdjacentNodes();
});
]]></script>
</svg>
