<?xml version="1.0" encoding="UTF-8" standalone="no"?>
<!DOCTYPE svg PUBLIC "-//W3C//DTD SVG 1.1//EN"
 "http://www.w3.org/Graphics/SVG/1.1/DTD/svg11.dtd">
<!-- Generated by graphviz version 2.43.0 (0)
 -->
<!-- Title: Node Pages: 1 -->
<!--zoomable 532 -->

<svg id="main" version="1.1" xmlns="http://www.w3.org/2000/svg" xmlns:xlink="http://www.w3.org/1999/xlink" xml:space="preserve" onload="init(evt)">
<style type="text/css"><![CDATA[
.node, .edge {opacity: 0.7;}
.node.selected, .edge.selected {opacity: 1;}
.edge:hover path { stroke: red; }
.edge:hover polygon { stroke: red; fill: red; }
]]></style>

<defs>
  <circle id="rim" cx="0" cy="0" r="7"/>
  <circle id="rim2" cx="0" cy="0" r="3.5"/>
  <g id="zoomPlus">
    <use xlink:href="#rim" fill="#404040"><set attributeName="fill" to="#808080" begin="zoomplus.mouseover" end="zoomplus.mouseout"/></use>
    <path d="M-4,0h8M0,-4v8" fill="none" stroke="white" stroke-width="1.5" pointer-events="none"/>
  </g>
  <g id="zoomMin">
    <use xlink:href="#rim" fill="#404040"><set attributeName="fill" to="#808080" begin="zoomminus.mouseover" end="zoomminus.mouseout"/></use>
    <path d="M-4,0h8" fill="none" stroke="white" stroke-width="1.5" pointer-events="none"/>
  </g>
  <g id="arrowUp" transform="translate(30 24)">
    <use xlink:href="#rim"/>
    <path pointer-events="none" fill="none" stroke="white" stroke-width="1.5" d="M0,-3.0v7 M-2.5,-0.5L0,-3.0L2.5,-0.5"/>
  </g>
  <g id="arrowRight" transform="rotate(90) translate(36 -43)">
    <use xlink:href="#rim"/>
    <path pointer-events="none" fill="none" stroke="white" stroke-width="1.5" d="M0,-3.0v7 M-2.5,-0.5L0,-3.0L2.5,-0.5"/>
  </g>
  <g id="arrowDown" transform="rotate(180) translate(-30 -48)">
    <use xlink:href="#rim"/>
    <path pointer-events="none" fill="none" stroke="white" stroke-width="1.5" d="M0,-3.0v7 M-2.5,-0.5L0,-3.0L2.5,-0.5"/>
  </g>
  <g id="arrowLeft" transform="rotate(270) translate(-36 17)">
    <use xlink:href="#rim"/>
    <path pointer-events="none" fill="none" stroke="white" stroke-width="1.5" d="M0,-3.0v7 M-2.5,-0.5L0,-3.0L2.5,-0.5"/>
  </g>
  <g id="resetDef">
    <use xlink:href="#rim2" fill="#404040"><set attributeName="fill" to="#808080" begin="reset.mouseover" end="reset.mouseout"/></use>
  </g>
</defs>
<script type="application/ecmascript">
var viewWidth = 296;
var viewHeight = 532;
var sectionId = 'dynsection-0';
</script>
<script type="application/ecmascript" xlink:href="../../svg.min.js"/>
<svg id="graph" class="graph">
<g id="viewport">
<title>Node</title>
<!-- Node1 -->
<g id="Node000001" class="node">
<title>Node1</title>
<g id="a_Node000001"><a xlink:title="The Node class holds the number of DoFs, coordinate, displacement, velocity and acceleration.">
<polygon fill="#999999" stroke="transparent" points="217,-212 103,-212 103,0 217,0 217,-212"/>
<text text-anchor="start" x="146" y="-199.2" font-family="Consolas" font-size="11.00">Node</text>
<text text-anchor="start" x="156.5" y="-183.2" font-family="Consolas" font-size="11.00"> </text>
<text text-anchor="start" x="107" y="-167.2" font-family="Consolas" font-size="11.00">+</text>
<text text-anchor="start" x="118" y="-167.2" font-family="Consolas" font-size="11.00">Node()</text>
<text text-anchor="start" x="107" y="-151.2" font-family="Consolas" font-size="11.00">+</text>
<text text-anchor="start" x="118" y="-151.2" font-family="Consolas" font-size="11.00">Node()</text>
<text text-anchor="start" x="107" y="-135.2" font-family="Consolas" font-size="11.00">+</text>
<text text-anchor="start" x="118" y="-135.2" font-family="Consolas" font-size="11.00">Node()</text>
<text text-anchor="start" x="107" y="-119.2" font-family="Consolas" font-size="11.00">+</text>
<text text-anchor="start" x="118" y="-119.2" font-family="Consolas" font-size="11.00">Node()</text>
<text text-anchor="start" x="107" y="-103.2" font-family="Consolas" font-size="11.00">+</text>
<text text-anchor="start" x="118" y="-103.2" font-family="Consolas" font-size="11.00">Node()</text>
<text text-anchor="start" x="107" y="-87.2" font-family="Consolas" font-size="11.00">+</text>
<text text-anchor="start" x="118" y="-87.2" font-family="Consolas" font-size="11.00">Node()</text>
<text text-anchor="start" x="107" y="-71.2" font-family="Consolas" font-size="11.00">+</text>
<text text-anchor="start" x="118" y="-71.2" font-family="Consolas" font-size="11.00">operator=()</text>
<text text-anchor="start" x="107" y="-55.2" font-family="Consolas" font-size="11.00">+</text>
<text text-anchor="start" x="118" y="-55.2" font-family="Consolas" font-size="11.00">operator=()</text>
<text text-anchor="start" x="107" y="-39.2" font-family="Consolas" font-size="11.00">+</text>
<text text-anchor="start" x="118" y="-39.2" font-family="Consolas" font-size="11.00">~Node()</text>
<text text-anchor="start" x="107" y="-23.2" font-family="Consolas" font-size="11.00">+</text>
<text text-anchor="start" x="118" y="-23.2" font-family="Consolas" font-size="11.00">initialize()</text>
<text text-anchor="start" x="118" y="-7.2" font-family="Consolas" font-size="11.00">and 90 more...</text>
<polygon fill="#666666" stroke="#666666" points="103,-194 103,-194 217,-194 217,-194 103,-194"/>
<polygon fill="#666666" stroke="#666666" points="103,-178 103,-178 217,-178 217,-178 103,-178"/>
<polygon fill="none" stroke="#666666" points="103,0 103,-212 217,-212 217,0 103,0"/>
</a>
</g>
</g>
<!-- Node2 -->
<g id="Node000002" class="node">
<title>Node2</title>
<g id="a_Node000002"><a xlink:href="../../df/dbd/struct_node_data.html" target="_top" xlink:title=" ">
<polygon fill="white" stroke="transparent" points="168,-498 0,-498 0,-274 168,-274 168,-498"/>
<text text-anchor="start" x="56.5" y="-485.2" font-family="Consolas" font-size="11.00">NodeData</text>
<text text-anchor="start" x="4" y="-469.2" font-family="Consolas" font-size="11.00">+</text>
<text text-anchor="start" x="15" y="-469.2" font-family="Consolas" font-size="11.00">num_dof</text>
<text text-anchor="start" x="4" y="-453.2" font-family="Consolas" font-size="11.00">+</text>
<text text-anchor="start" x="15" y="-453.2" font-family="Consolas" font-size="11.00">coordinate</text>
<text text-anchor="start" x="4" y="-437.2" font-family="Consolas" font-size="11.00">+</text>
<text text-anchor="start" x="15" y="-437.2" font-family="Consolas" font-size="11.00">original_dof</text>
<text text-anchor="start" x="4" y="-421.2" font-family="Consolas" font-size="11.00">+</text>
<text text-anchor="start" x="15" y="-421.2" font-family="Consolas" font-size="11.00">reordered_dof</text>
<text text-anchor="start" x="4" y="-405.2" font-family="Consolas" font-size="11.00">+</text>
<text text-anchor="start" x="15" y="-405.2" font-family="Consolas" font-size="11.00">current_resistance</text>
<text text-anchor="start" x="4" y="-389.2" font-family="Consolas" font-size="11.00">+</text>
<text text-anchor="start" x="15" y="-389.2" font-family="Consolas" font-size="11.00">current_damping_force</text>
<text text-anchor="start" x="4" y="-373.2" font-family="Consolas" font-size="11.00">+</text>
<text text-anchor="start" x="15" y="-373.2" font-family="Consolas" font-size="11.00">current_nonviscous</text>
<text text-anchor="start" x="15" y="-361.2" font-family="Consolas" font-size="11.00">_force</text>
<text text-anchor="start" x="4" y="-345.2" font-family="Consolas" font-size="11.00">+</text>
<text text-anchor="start" x="15" y="-345.2" font-family="Consolas" font-size="11.00">current_inertial_force</text>
<text text-anchor="start" x="4" y="-329.2" font-family="Consolas" font-size="11.00">+</text>
<text text-anchor="start" x="15" y="-329.2" font-family="Consolas" font-size="11.00">current_displacement</text>
<text text-anchor="start" x="4" y="-313.2" font-family="Consolas" font-size="11.00">+</text>
<text text-anchor="start" x="15" y="-313.2" font-family="Consolas" font-size="11.00">current_velocity</text>
<text text-anchor="start" x="15" y="-297.2" font-family="Consolas" font-size="11.00">and 15 more...</text>
<text text-anchor="start" x="80.5" y="-281.2" font-family="Consolas" font-size="11.00"> </text>
<polygon fill="#666666" stroke="#666666" points="0,-480 0,-480 168,-480 168,-480 0,-480"/>
<polygon fill="#666666" stroke="#666666" points="0,-292 0,-292 13,-292 13,-292 0,-292"/>
<polygon fill="#666666" stroke="#666666" points="13,-292 13,-292 168,-292 168,-292 13,-292"/>
<polygon fill="none" stroke="#666666" points="0,-274 0,-498 168,-498 168,-274 0,-274"/>
</a>
</g>
</g>
<!-- Node2&#45;&gt;Node1 -->
<g id="edge1_Node000001_Node000002" class="edge">
<title>Node2&#45;&gt;Node1</title>
<g id="a_edge1_Node000001_Node000002"><a xlink:title=" ">
<path fill="none" stroke="darkgreen" d="M117.13,-263.82C121.85,-246.56 126.66,-228.94 131.29,-212.02"/>
<polygon fill="none" stroke="darkgreen" points="113.63,-263.36 114.36,-273.93 120.38,-265.21 113.63,-263.36"/>
</a>
</g>
</g>
<!-- Node3 -->
<g id="Node000003" class="node">
<title>Node3</title>
<g id="a_Node000003"><a xlink:href="../../d0/d57/class_tag.html" target="_top" xlink:title="A base Tag class.">
<polygon fill="white" stroke="transparent" points="287.5,-524 186.5,-524 186.5,-248 287.5,-248 287.5,-524"/>
<text text-anchor="start" x="227" y="-511.2" font-family="Consolas" font-size="11.00">Tag</text>
<text text-anchor="start" x="234" y="-495.2" font-family="Consolas" font-size="11.00"> </text>
<text text-anchor="start" x="191" y="-479.2" font-family="Consolas" font-size="11.00">+</text>
<text text-anchor="start" x="202" y="-479.2" font-family="Consolas" font-size="11.00">Tag()</text>
<text text-anchor="start" x="191" y="-463.2" font-family="Consolas" font-size="11.00">+</text>
<text text-anchor="start" x="202" y="-463.2" font-family="Consolas" font-size="11.00">Tag()</text>
<text text-anchor="start" x="191" y="-447.2" font-family="Consolas" font-size="11.00">+</text>
<text text-anchor="start" x="202" y="-447.2" font-family="Consolas" font-size="11.00">Tag()</text>
<text text-anchor="start" x="191" y="-431.2" font-family="Consolas" font-size="11.00">+</text>
<text text-anchor="start" x="202" y="-431.2" font-family="Consolas" font-size="11.00">operator=()</text>
<text text-anchor="start" x="191" y="-415.2" font-family="Consolas" font-size="11.00">+</text>
<text text-anchor="start" x="202" y="-415.2" font-family="Consolas" font-size="11.00">operator=()</text>
<text text-anchor="start" x="191" y="-399.2" font-family="Consolas" font-size="11.00">+</text>
<text text-anchor="start" x="202" y="-399.2" font-family="Consolas" font-size="11.00">~Tag()</text>
<text text-anchor="start" x="191" y="-383.2" font-family="Consolas" font-size="11.00">+</text>
<text text-anchor="start" x="202" y="-383.2" font-family="Consolas" font-size="11.00">set_tag()</text>
<text text-anchor="start" x="191" y="-367.2" font-family="Consolas" font-size="11.00">+</text>
<text text-anchor="start" x="202" y="-367.2" font-family="Consolas" font-size="11.00">get_tag()</text>
<text text-anchor="start" x="191" y="-351.2" font-family="Consolas" font-size="11.00">+</text>
<text text-anchor="start" x="202" y="-351.2" font-family="Consolas" font-size="11.00">enable()</text>
<text text-anchor="start" x="191" y="-335.2" font-family="Consolas" font-size="11.00">+</text>
<text text-anchor="start" x="202" y="-335.2" font-family="Consolas" font-size="11.00">disable()</text>
<text text-anchor="start" x="191" y="-319.2" font-family="Consolas" font-size="11.00">+</text>
<text text-anchor="start" x="202" y="-319.2" font-family="Consolas" font-size="11.00">guard()</text>
<text text-anchor="start" x="191" y="-303.2" font-family="Consolas" font-size="11.00">+</text>
<text text-anchor="start" x="202" y="-303.2" font-family="Consolas" font-size="11.00">unguard()</text>
<text text-anchor="start" x="191" y="-287.2" font-family="Consolas" font-size="11.00">+</text>
<text text-anchor="start" x="202" y="-287.2" font-family="Consolas" font-size="11.00">is_active()</text>
<text text-anchor="start" x="191" y="-271.2" font-family="Consolas" font-size="11.00">+</text>
<text text-anchor="start" x="202" y="-271.2" font-family="Consolas" font-size="11.00">is_guarded()</text>
<text text-anchor="start" x="191" y="-255.2" font-family="Consolas" font-size="11.00">+</text>
<text text-anchor="start" x="202" y="-255.2" font-family="Consolas" font-size="11.00">print()</text>
<polygon fill="#666666" stroke="#666666" points="187,-506 187,-506 288,-506 288,-506 187,-506"/>
<polygon fill="#666666" stroke="#666666" points="187,-490 187,-490 288,-490 288,-490 187,-490"/>
<polygon fill="none" stroke="#666666" points="186.5,-248 186.5,-524 287.5,-524 287.5,-248 186.5,-248"/>
</a>
</g>
</g>
<!-- Node3&#45;&gt;Node1 -->
<g id="edge2_Node000001_Node000003" class="edge">
<title>Node3&#45;&gt;Node1</title>
<g id="a_edge2_Node000001_Node000003"><a xlink:title=" ">
<path fill="none" stroke="#63b8ff" d="M196.25,-237.87C193.86,-229.24 191.48,-220.64 189.15,-212.23"/>
<polygon fill="none" stroke="#63b8ff" points="192.91,-238.93 198.95,-247.63 199.65,-237.06 192.91,-238.93"/>
</a>
</g>
</g>
</g>
</svg>

<g id="navigator" transform="translate(0 0)" fill="#404254">
  <rect fill="#f2f5e9" fill-opacity="0.5" stroke="#606060" stroke-width=".5" x="0" y="0" width="60" height="60"/>
  <use id="zoomplus" xlink:href="#zoomPlus" x="17" y="9" onmousedown="handleZoom(evt,'in')"/>
  <use id="zoomminus" xlink:href="#zoomMin" x="42" y="9" onmousedown="handleZoom(evt,'out')"/>
  <use id="reset" xlink:href="#resetDef" x="30" y="36" onmousedown="handleReset()"/>
   <use id="arrowup" xlink:href="#arrowUp" x="0" y="0" onmousedown="handlePan(0,-1)"/>
  <use id="arrowright" xlink:href="#arrowRight" x="0" y="0" onmousedown="handlePan(1,0)"/>
  <use id="arrowdown" xlink:href="#arrowDown" x="0" y="0" onmousedown="handlePan(0,1)"/>
  <use id="arrowleft" xlink:href="#arrowLeft" x="0" y="0" onmousedown="handlePan(-1,0)"/>
</g>
<svg viewBox="0 0 15 15" width="100%" height="30px" preserveAspectRatio="xMaxYMin meet">
 <g id="arrow_out" transform="scale(0.3 0.3)">
  <a xlink:href="class_node__inherit__graph_org.svg" target="_base">
   <rect id="button" ry="5" rx="5" y="6" x="6" height="38" width="38"
        fill="#f2f5e9" fill-opacity="0.5" stroke="#606060" stroke-width="1.0"/>
   <path id="arrow"
     d="M 11.500037,31.436501 C 11.940474,20.09759 22.043105,11.32322 32.158766,21.979434 L 37.068811,17.246167 C 37.068811,17.246167 37.088388,32 37.088388,32 L 22.160133,31.978069 C 22.160133,31.978069 26.997745,27.140456 26.997745,27.140456 C 18.528582,18.264221 13.291696,25.230495 11.500037,31.436501 z"
     style="fill:#404040;"/>
  </a>
 </g>
</svg>

<style type='text/css'>
<![CDATA[
[data-mouse-over-selected='false'] { opacity: 0.7; }
[data-mouse-over-selected='true']  { opacity: 1.0; }
]]>
</style>
<script type="application/ecmascript"><![CDATA[
document.addEventListener('DOMContentLoaded', (event) => {
  highlightEdges();
  highlightAdjacentNodes();
});
]]></script>
</svg>
