<svg xmlns="http://www.w3.org/2000/svg" xmlns:xlink="http://www.w3.org/1999/xlink" width="160" height="212pt" viewBox="0 0 120 212"><svg xmlns="http://www.w3.org/2000/svg" xmlns:xlink="http://www.w3.org/1999/xlink" xml:space="preserve" id="main" onload="init(evt)"><style>.node,[data-mouse-over-selected=false]{opacity:.7}.edge.selected,.node.selected,[data-mouse-over-selected=true]{opacity:1}.edge:hover path{stroke:red}.edge:hover polygon{stroke:red;fill:red}</style><script xlink:href="../../svg.min.js" type="application/ecmascript"/><svg id="graph" class="graph"><g id="graph0" class="graph" transform="translate(4 208)"><title>DataParabolicCC</title><g id="Node000001" class="node"><title>Node1</title><a id="a_Node000001">
<path fill="#999" stroke="transparent" d="M112-204H0v84h112z"/>
<text x="5" y="-191.2" font-family="Consolas" font-size="11">DataParabolicCC</text>
<text x="15" y="-175.2" font-family="Consolas" font-size="11">+</text>
<text x="37" y="-175.2" font-family="Consolas" font-size="11">a</text>
<text x="15" y="-159.2" font-family="Consolas" font-size="11">+</text>
<text x="37" y="-159.2" font-family="Consolas" font-size="11">a_slope</text>
<text x="15" y="-143.2" font-family="Consolas" font-size="11">+</text>
<text x="37" y="-143.2" font-family="Consolas" font-size="11">limit</text>
<text x="52.5" y="-127.2" font-family="Consolas" font-size="11"> </text>
<path fill="#666" stroke="#666" d="M0-186h112z"/>
<path fill="#666" stroke="#666" d="M0-138h35z"/>
<path fill="#666" stroke="#666" d="M35-138h77z"/>
<path fill="none" stroke="#666" d="M0-120v-84h112v84z"/>
</a></g><g id="Node000002" class="node"><title>Node2</title><a xlink:href="../../dd/d42/class_parabolic_c_c.html" xlink:title="The ParabolicCC class." id="a_Node000002" target="_top">
<path fill="#fff" stroke="transparent" d="M109.5-84H2.5V0h107z"/>
<text x="19" y="-71.2" font-family="Consolas" font-size="11">ParabolicCC</text>
<text x="53" y="-55.2" font-family="Consolas" font-size="11"> </text>
<text x="7" y="-39.2" font-family="Consolas" font-size="11">+</text>
<text x="18" y="-39.2" font-family="Consolas" font-size="11">ParabolicCC()</text>
<text x="7" y="-23.2" font-family="Consolas" font-size="11">+</text>
<text x="18" y="-23.2" font-family="Consolas" font-size="11">unique_copy()</text>
<text x="7" y="-7.2" font-family="Consolas" font-size="11">+</text>
<text x="18" y="-7.2" font-family="Consolas" font-size="11">print()</text>
<path fill="#666" stroke="#666" d="M3-66h107z"/>
<path fill="#666" stroke="#666" d="M3-50h107z"/>
<path fill="none" stroke="#666" d="M2.5 0v-84h107V0z"/>
</a></g><g id="edge1_Node000001_Node000002" style="opacity:.7"><title>Node1-&gt;Node2</title><a id="a_edge1_Node000001_Node000002">
<path fill="none" stroke="#006400" d="M56-109.5v25.45"/>
<path fill="none" stroke="#006400" d="m52.5-109.73 3.5-10 3.5 10z"/>
</a></g></g></svg></svg><script type="application/ecmascript"><![CDATA[
document.addEventListener('DOMContentLoaded', (event) => {
  highlightEdges();
  highlightAdjacentNodes();
});
]]></script></svg>