<?xml version="1.0" encoding="UTF-8" standalone="no"?>
<!DOCTYPE svg PUBLIC "-//W3C//DTD SVG 1.1//EN"
 "http://www.w3.org/Graphics/SVG/1.1/DTD/svg11.dtd">
<!-- Generated by graphviz version 2.43.0 (0)
 -->
<!-- Title: ExplicitIntegrator Pages: 1 -->
<svg width="207pt" height="695pt"
 viewBox="0.00 0.00 207.00 695.00" xmlns="http://www.w3.org/2000/svg" xmlns:xlink="http://www.w3.org/1999/xlink">
<g id="graph0" class="graph" transform="scale(1 1) rotate(0) translate(4 691)">
<title>ExplicitIntegrator</title>
<polygon fill="white" stroke="transparent" points="-4,4 -4,-691 203,-691 203,4 -4,4"/>
<!-- Node1 -->
<g id="node1" class="node">
<title>Node1</title>
<g id="a_node1"><a xlink:title=" ">
<polygon fill="#bfbfbf" stroke="black" points="0,-0.5 0,-204.5 199,-204.5 199,-0.5 0,-0.5"/>
<text text-anchor="middle" x="99.5" y="-191.7" font-family="Consolas" font-size="11.00">ExplicitIntegrator</text>
<polyline fill="none" stroke="black" points="0,-184.5 199,-184.5 "/>
<text text-anchor="middle" x="99.5" y="-171.7" font-family="Consolas" font-size="11.00"> </text>
<polyline fill="none" stroke="black" points="0,-164.5 199,-164.5 "/>
<text text-anchor="start" x="8" y="-151.7" font-family="Consolas" font-size="11.00">+ type()</text>
<text text-anchor="start" x="8" y="-139.7" font-family="Consolas" font-size="11.00">+ get_trial_displacement()</text>
<text text-anchor="start" x="8" y="-127.7" font-family="Consolas" font-size="11.00">+ update_from_ninja()</text>
<text text-anchor="start" x="8" y="-115.7" font-family="Consolas" font-size="11.00">+ solve()</text>
<text text-anchor="start" x="8" y="-103.7" font-family="Consolas" font-size="11.00">+ solve()</text>
<text text-anchor="start" x="8" y="-91.7" font-family="Consolas" font-size="11.00">+ solve()</text>
<text text-anchor="start" x="8" y="-79.7" font-family="Consolas" font-size="11.00">+ solve()</text>
<text text-anchor="start" x="8" y="-67.7" font-family="Consolas" font-size="11.00">+ from_incre_velocity()</text>
<text text-anchor="start" x="8" y="-55.7" font-family="Consolas" font-size="11.00">+ from_incre_acceleration()</text>
<text text-anchor="start" x="8" y="-43.7" font-family="Consolas" font-size="11.00">+ from_total_acceleration()</text>
<text text-anchor="start" x="8" y="-31.7" font-family="Consolas" font-size="11.00">+ Integrator()</text>
<text text-anchor="start" x="8" y="-19.7" font-family="Consolas" font-size="11.00">+ Integrator()</text>
<text text-anchor="start" x="8" y="-7.7" font-family="Consolas" font-size="11.00">+ Integrator()</text>
</a>
</g>
</g>
<!-- Node2 -->
<g id="node2" class="node">
<title>Node2</title>
<g id="a_node2"><a xlink:href="../../d6/d55/class_integrator.html" target="_top" xlink:title="The Integrator class is basically a wrapper of the DomainBase class with regard to some status changi...">
<polygon fill="white" stroke="black" points="40.5,-241.5 40.5,-421.5 158.5,-421.5 158.5,-241.5 40.5,-241.5"/>
<text text-anchor="middle" x="99.5" y="-408.7" font-family="Consolas" font-size="11.00">Integrator</text>
<polyline fill="none" stroke="black" points="40.5,-401.5 158.5,-401.5 "/>
<text text-anchor="middle" x="99.5" y="-388.7" font-family="Consolas" font-size="11.00"> </text>
<polyline fill="none" stroke="black" points="40.5,-381.5 158.5,-381.5 "/>
<text text-anchor="start" x="48.5" y="-368.7" font-family="Consolas" font-size="11.00">+ Integrator()</text>
<text text-anchor="start" x="48.5" y="-356.7" font-family="Consolas" font-size="11.00">+ Integrator()</text>
<text text-anchor="start" x="48.5" y="-344.7" font-family="Consolas" font-size="11.00">+ Integrator()</text>
<text text-anchor="start" x="48.5" y="-332.7" font-family="Consolas" font-size="11.00">+ operator=()</text>
<text text-anchor="start" x="48.5" y="-320.7" font-family="Consolas" font-size="11.00">+ operator=()</text>
<text text-anchor="start" x="48.5" y="-308.7" font-family="Consolas" font-size="11.00">+ ~Integrator()</text>
<text text-anchor="start" x="48.5" y="-296.7" font-family="Consolas" font-size="11.00">+ set_domain()</text>
<text text-anchor="start" x="48.5" y="-284.7" font-family="Consolas" font-size="11.00">+ get_domain()</text>
<text text-anchor="start" x="48.5" y="-272.7" font-family="Consolas" font-size="11.00">+ initialize()</text>
<text text-anchor="start" x="48.5" y="-260.7" font-family="Consolas" font-size="11.00">+ type()</text>
<text text-anchor="start" x="48.5" y="-248.7" font-family="Consolas" font-size="11.00">and 54 more...</text>
</a>
</g>
</g>
<!-- Node2&#45;&gt;Node1 -->
<g id="edge1" class="edge">
<title>Node2&#45;&gt;Node1</title>
<path fill="none" stroke="midnightblue" d="M99.5,-231.19C99.5,-222.41 99.5,-213.51 99.5,-204.71"/>
<polygon fill="none" stroke="midnightblue" points="96,-231.44 99.5,-241.44 103,-231.44 96,-231.44"/>
</g>
<!-- Node3 -->
<g id="node3" class="node">
<title>Node3</title>
<g id="a_node3"><a xlink:href="../../d0/d57/class_tag.html" target="_top" xlink:title="A base Tag class.">
<polygon fill="white" stroke="black" points="44,-458.5 44,-686.5 155,-686.5 155,-458.5 44,-458.5"/>
<text text-anchor="middle" x="99.5" y="-673.7" font-family="Consolas" font-size="11.00">Tag</text>
<polyline fill="none" stroke="black" points="44,-666.5 155,-666.5 "/>
<text text-anchor="middle" x="99.5" y="-653.7" font-family="Consolas" font-size="11.00"> </text>
<polyline fill="none" stroke="black" points="44,-646.5 155,-646.5 "/>
<text text-anchor="start" x="52" y="-633.7" font-family="Consolas" font-size="11.00">+ Tag()</text>
<text text-anchor="start" x="52" y="-621.7" font-family="Consolas" font-size="11.00">+ Tag()</text>
<text text-anchor="start" x="52" y="-609.7" font-family="Consolas" font-size="11.00">+ Tag()</text>
<text text-anchor="start" x="52" y="-597.7" font-family="Consolas" font-size="11.00">+ operator=()</text>
<text text-anchor="start" x="52" y="-585.7" font-family="Consolas" font-size="11.00">+ operator=()</text>
<text text-anchor="start" x="52" y="-573.7" font-family="Consolas" font-size="11.00">+ ~Tag()</text>
<text text-anchor="start" x="52" y="-561.7" font-family="Consolas" font-size="11.00">+ set_tag()</text>
<text text-anchor="start" x="52" y="-549.7" font-family="Consolas" font-size="11.00">+ get_tag()</text>
<text text-anchor="start" x="52" y="-537.7" font-family="Consolas" font-size="11.00">+ enable()</text>
<text text-anchor="start" x="52" y="-525.7" font-family="Consolas" font-size="11.00">+ disable()</text>
<text text-anchor="start" x="52" y="-513.7" font-family="Consolas" font-size="11.00">+ guard()</text>
<text text-anchor="start" x="52" y="-501.7" font-family="Consolas" font-size="11.00">+ unguard()</text>
<text text-anchor="start" x="52" y="-489.7" font-family="Consolas" font-size="11.00">+ is_active()</text>
<text text-anchor="start" x="52" y="-477.7" font-family="Consolas" font-size="11.00">+ is_guarded()</text>
<text text-anchor="start" x="52" y="-465.7" font-family="Consolas" font-size="11.00">+ print()</text>
</a>
</g>
</g>
<!-- Node3&#45;&gt;Node2 -->
<g id="edge2" class="edge">
<title>Node3&#45;&gt;Node2</title>
<path fill="none" stroke="midnightblue" d="M99.5,-448.19C99.5,-439.25 99.5,-430.33 99.5,-421.64"/>
<polygon fill="none" stroke="midnightblue" points="96,-448.3 99.5,-458.3 103,-448.3 96,-448.3"/>
</g>
</g>
</svg>
