<?xml version="1.0" encoding="UTF-8" standalone="no"?>
<!DOCTYPE svg PUBLIC "-//W3C//DTD SVG 1.1//EN"
 "http://www.w3.org/Graphics/SVG/1.1/DTD/svg11.dtd">
<!-- Generated by graphviz version 2.43.0 (0)
 -->
<!-- Title: create_new_recorder Pages: 1 -->
<svg width="481pt" height="113pt"
 viewBox="0.00 0.00 481.00 113.00" xmlns="http://www.w3.org/2000/svg" xmlns:xlink="http://www.w3.org/1999/xlink">
<g id="graph0" class="graph" transform="scale(1 1) rotate(0) translate(4 109)">
<title>create_new_recorder</title>
<!-- Node1 -->
<g id="Node000001" class="node">
<title>Node1</title>
<g id="a_Node000001"><a xlink:title=" ">
<polygon fill="#999999" stroke="#666666" points="145,-77 0,-77 0,-57 145,-57 145,-77"/>
<text text-anchor="middle" x="72.5" y="-64.2" font-family="Consolas" font-size="11.00">create_new_recorder</text>
</a>
</g>
</g>
<!-- Node2 -->
<g id="Node000002" class="node">
<title>Node2</title>
<g id="a_Node000002"><a xlink:href="../../d5/d47/utility_8h.html#a4e6fb73e28427d48899dc074aae732ae" target="_top" xlink:title=" ">
<polygon fill="white" stroke="#666666" points="473,-105 396,-105 396,-85 473,-85 473,-105"/>
<text text-anchor="middle" x="434.5" y="-92.2" font-family="Consolas" font-size="11.00">get_input</text>
</a>
</g>
</g>
<!-- Node1&#45;&gt;Node2 -->
<g id="edge1_Node000001_Node000002" class="edge">
<title>Node1&#45;&gt;Node2</title>
<g id="a_edge1_Node000001_Node000002"><a xlink:title=" ">
<path fill="none" stroke="#63b8ff" d="M121.99,-77.05C140.39,-80.47 161.59,-83.95 181,-86 252.01,-93.5 334.81,-95.1 385.69,-95.27"/>
<polygon fill="#63b8ff" stroke="#63b8ff" points="385.73,-98.77 395.74,-95.29 385.75,-91.77 385.73,-98.77"/>
</a>
</g>
</g>
<!-- Node3 -->
<g id="Node000003" class="node">
<title>Node3</title>
<g id="a_Node000003"><a xlink:href="../../dc/dfa/utility_8cpp.html#af8656c3a15cdd9c812a841e9f85cb02f" target="_top" xlink:title=" ">
<polygon fill="white" stroke="#666666" points="322.5,-77 218.5,-77 218.5,-57 322.5,-57 322.5,-77"/>
<text text-anchor="middle" x="270.5" y="-64.2" font-family="Consolas" font-size="11.00">if_startswith</text>
</a>
</g>
</g>
<!-- Node1&#45;&gt;Node3 -->
<g id="edge2_Node000001_Node000003" class="edge">
<title>Node1&#45;&gt;Node3</title>
<g id="a_edge2_Node000001_Node000003"><a xlink:title=" ">
<path fill="none" stroke="#63b8ff" d="M145.09,-67C165.77,-67 188.13,-67 208.13,-67"/>
<polygon fill="#63b8ff" stroke="#63b8ff" points="208.34,-70.5 218.34,-67 208.34,-63.5 208.34,-70.5"/>
</a>
</g>
</g>
<!-- Node4 -->
<g id="Node000004" class="node">
<title>Node4</title>
<g id="a_Node000004"><a xlink:href="../../d5/dd2/_recorder_parser_8cpp.html#a8bc47a0375f163b69049455ca197046d" target="_top" xlink:title=" ">
<polygon fill="white" stroke="#666666" points="360,-39 181,-39 181,-19 360,-19 360,-39"/>
<text text-anchor="middle" x="270.5" y="-26.2" font-family="Consolas" font-size="11.00">process_recorder_command</text>
</a>
</g>
</g>
<!-- Node1&#45;&gt;Node4 -->
<g id="edge3_Node000001_Node000004" class="edge">
<title>Node1&#45;&gt;Node4</title>
<g id="a_edge3_Node000001_Node000004"><a xlink:title=" ">
<path fill="none" stroke="#63b8ff" d="M125.25,-56.97C150.6,-52.05 181.29,-46.1 207.84,-40.95"/>
<polygon fill="#63b8ff" stroke="#63b8ff" points="208.65,-44.36 217.8,-39.02 207.31,-37.49 208.65,-44.36"/>
</a>
</g>
</g>
<!-- Node4&#45;&gt;Node2 -->
<g id="edge4_Node000004_Node000002" class="edge">
<title>Node4&#45;&gt;Node2</title>
<g id="a_edge4_Node000004_Node000002"><a xlink:title=" ">
<path fill="none" stroke="#63b8ff" d="M332.36,-39.05C341.79,-41.46 351.28,-44.41 360,-48 379.02,-55.82 398.55,-68.58 412.69,-78.82"/>
<polygon fill="#63b8ff" stroke="#63b8ff" points="410.63,-81.65 420.75,-84.81 414.81,-76.04 410.63,-81.65"/>
</a>
</g>
</g>
<!-- Node5 -->
<g id="Node000005" class="node">
<title>Node5</title>
<g id="a_Node000005"><a xlink:href="../../dc/dfa/utility_8cpp.html#a8aeeb0beb1f5638088ba8aa0b879c864" target="_top" xlink:title=" ">
<polygon fill="white" stroke="#666666" points="470,-58 399,-58 399,-38 470,-38 470,-58"/>
<text text-anchor="middle" x="434.5" y="-45.2" font-family="Consolas" font-size="11.00">is_equal</text>
</a>
</g>
</g>
<!-- Node4&#45;&gt;Node5 -->
<g id="edge5_Node000004_Node000005" class="edge">
<title>Node4&#45;&gt;Node5</title>
<g id="a_edge5_Node000004_Node000005"><a xlink:title=" ">
<path fill="none" stroke="#63b8ff" d="M356.77,-39C367.86,-40.3 378.84,-41.59 388.88,-42.77"/>
<polygon fill="#63b8ff" stroke="#63b8ff" points="388.63,-46.26 398.97,-43.95 389.44,-39.31 388.63,-46.26"/>
</a>
</g>
</g>
<!-- Node6 -->
<g id="Node000006" class="node">
<title>Node6</title>
<g id="a_Node000006"><a xlink:href="../../d4/d0f/_output_type_8h.html#ade3ec902619abfe564d12ac663ccb6ec" target="_top" xlink:title=" ">
<polygon fill="white" stroke="#666666" points="470,-20 399,-20 399,0 470,0 470,-20"/>
<text text-anchor="middle" x="434.5" y="-7.2" font-family="Consolas" font-size="11.00">to_token</text>
</a>
</g>
</g>
<!-- Node4&#45;&gt;Node6 -->
<g id="edge6_Node000004_Node000006" class="edge">
<title>Node4&#45;&gt;Node6</title>
<g id="a_edge6_Node000004_Node000006"><a xlink:title=" ">
<path fill="none" stroke="#63b8ff" d="M356.77,-19C367.86,-17.7 378.84,-16.41 388.88,-15.23"/>
<polygon fill="#63b8ff" stroke="#63b8ff" points="389.44,-18.69 398.97,-14.05 388.63,-11.74 389.44,-18.69"/>
</a>
</g>
</g>
</g>
</svg>
