<?xml version="1.0" encoding="UTF-8" standalone="no"?>
<!DOCTYPE svg PUBLIC "-//W3C//DTD SVG 1.1//EN"
 "http://www.w3.org/Graphics/SVG/1.1/DTD/svg11.dtd">
<!-- Generated by graphviz version 8.1.0 (20230707.0739)
 -->
<!-- Title: NMB21E Pages: 1 -->
<svg width="1224pt" height="2092pt"
 viewBox="0.00 0.00 1224.00 2092.00" xmlns="http://www.w3.org/2000/svg" xmlns:xlink="http://www.w3.org/1999/xlink">
<g id="graph0" class="graph" transform="scale(1 1) rotate(0) translate(4 2088)">
<title>NMB21E</title>
<!-- Node1 -->
<g id="Node000001" class="node">
<title>Node1</title>
<g id="a_Node000001"><a xlink:title="The NMB21E class.">
<polygon fill="#999999" stroke="none" points="982,-140 874,-140 874,0 982,0 982,-140"/>
<text text-anchor="start" x="910" y="-125.55" font-family="Consolas" font-size="11.00">NMB21E</text>
<text text-anchor="start" x="925" y="-108.55" font-family="Consolas" font-size="11.00"> </text>
<text text-anchor="start" x="878" y="-91.55" font-family="Consolas" font-size="11.00">+</text>
<text text-anchor="start" x="888" y="-91.55" font-family="Consolas" font-size="11.00">NMB21E()</text>
<text text-anchor="start" x="878" y="-74.55" font-family="Consolas" font-size="11.00">+</text>
<text text-anchor="start" x="888" y="-74.55" font-family="Consolas" font-size="11.00">initialize()</text>
<text text-anchor="start" x="878" y="-57.55" font-family="Consolas" font-size="11.00">+</text>
<text text-anchor="start" x="888" y="-57.55" font-family="Consolas" font-size="11.00">update_status()</text>
<text text-anchor="start" x="878" y="-40.55" font-family="Consolas" font-size="11.00">+</text>
<text text-anchor="start" x="888" y="-40.55" font-family="Consolas" font-size="11.00">commit_status()</text>
<text text-anchor="start" x="878" y="-23.55" font-family="Consolas" font-size="11.00">+</text>
<text text-anchor="start" x="888" y="-23.55" font-family="Consolas" font-size="11.00">clear_status()</text>
<text text-anchor="start" x="878" y="-6.55" font-family="Consolas" font-size="11.00">+</text>
<text text-anchor="start" x="888" y="-6.55" font-family="Consolas" font-size="11.00">reset_status()</text>
<polygon fill="#666666" stroke="#666666" points="874,-121 874,-121 982,-121 982,-121 874,-121"/>
<polygon fill="#666666" stroke="#666666" points="874,-104 874,-104 982,-104 982,-104 874,-104"/>
<polygon fill="none" stroke="#666666" points="874,0 874,-140 982,-140 982,0 874,0"/>
</a>
</g>
</g>
<!-- Node2 -->
<g id="Node000002" class="node">
<title>Node2</title>
<g id="a_Node000002"><a xlink:href="../../d5/d6d/class_n_m_b21.html" target="_top" xlink:title="The NMB21 class.">
<polygon fill="white" stroke="none" points="982,-351 874,-351 874,-177 982,-177 982,-351"/>
<text text-anchor="start" x="913" y="-336.55" font-family="Consolas" font-size="11.00">NMB21</text>
<text text-anchor="start" x="925" y="-319.55" font-family="Consolas" font-size="11.00"> </text>
<text text-anchor="start" x="878" y="-302.55" font-family="Consolas" font-size="11.00">+</text>
<text text-anchor="start" x="888" y="-302.55" font-family="Consolas" font-size="11.00">NMB21()</text>
<text text-anchor="start" x="878" y="-285.55" font-family="Consolas" font-size="11.00">+</text>
<text text-anchor="start" x="888" y="-285.55" font-family="Consolas" font-size="11.00">initialize()</text>
<text text-anchor="start" x="878" y="-268.55" font-family="Consolas" font-size="11.00">+</text>
<text text-anchor="start" x="888" y="-268.55" font-family="Consolas" font-size="11.00">update_status()</text>
<text text-anchor="start" x="878" y="-251.55" font-family="Consolas" font-size="11.00">+</text>
<text text-anchor="start" x="888" y="-251.55" font-family="Consolas" font-size="11.00">commit_status()</text>
<text text-anchor="start" x="878" y="-234.55" font-family="Consolas" font-size="11.00">+</text>
<text text-anchor="start" x="888" y="-234.55" font-family="Consolas" font-size="11.00">clear_status()</text>
<text text-anchor="start" x="878" y="-217.55" font-family="Consolas" font-size="11.00">+</text>
<text text-anchor="start" x="888" y="-217.55" font-family="Consolas" font-size="11.00">reset_status()</text>
<text text-anchor="start" x="878" y="-200.55" font-family="Consolas" font-size="11.00">+</text>
<text text-anchor="start" x="888" y="-200.55" font-family="Consolas" font-size="11.00">record()</text>
<text text-anchor="start" x="878" y="-183.55" font-family="Consolas" font-size="11.00">+</text>
<text text-anchor="start" x="888" y="-183.55" font-family="Consolas" font-size="11.00">print()</text>
<polygon fill="#666666" stroke="#666666" points="874,-332 874,-332 982,-332 982,-332 874,-332"/>
<polygon fill="#666666" stroke="#666666" points="874,-315 874,-315 982,-315 982,-315 874,-315"/>
<polygon fill="none" stroke="#666666" points="874,-177 874,-351 982,-351 982,-177 874,-177"/>
</a>
</g>
</g>
<!-- Node2&#45;&gt;Node1 -->
<g id="edge1_Node000001_Node000002" class="edge">
<title>Node2&#45;&gt;Node1</title>
<g id="a_edge1_Node000001_Node000002"><a xlink:title=" ">
<path fill="none" stroke="#63b8ff" d="M928,-166.25C928,-157.33 928,-148.42 928,-139.83"/>
<polygon fill="none" stroke="#63b8ff" points="924.5,-166.11 928,-176.11 931.5,-166.11 924.5,-166.11"/>
</a>
</g>
</g>
<!-- Node3 -->
<g id="Node000003" class="node">
<title>Node3</title>
<g id="a_Node000003"><a xlink:href="../../d5/d31/class_section_n_m_element2_d.html" target="_top" xlink:title=" ">
<polygon fill="white" stroke="none" points="758,-455.5 620,-455.5 620,-400.5 758,-400.5 758,-455.5"/>
<text text-anchor="start" x="635" y="-441.05" font-family="Consolas" font-size="11.00">SectionNMElement2D</text>
<text text-anchor="start" x="686" y="-424.05" font-family="Consolas" font-size="11.00"> </text>
<text text-anchor="start" x="624" y="-407.05" font-family="Consolas" font-size="11.00">+</text>
<text text-anchor="start" x="634" y="-407.05" font-family="Consolas" font-size="11.00">SectionNMElement2D()</text>
<polygon fill="#666666" stroke="#666666" points="620,-436.5 620,-436.5 758,-436.5 758,-436.5 620,-436.5"/>
<polygon fill="#666666" stroke="#666666" points="620,-419.5 620,-419.5 758,-419.5 758,-419.5 620,-419.5"/>
<polygon fill="none" stroke="#666666" points="620,-400.5 620,-455.5 758,-455.5 758,-400.5 620,-400.5"/>
</a>
</g>
</g>
<!-- Node3&#45;&gt;Node2 -->
<g id="edge2_Node000002_Node000003" class="edge">
<title>Node3&#45;&gt;Node2</title>
<g id="a_edge2_Node000002_Node000003"><a xlink:title=" ">
<path fill="none" stroke="#63b8ff" d="M736.9,-394.53C776.64,-367.6 833.11,-329.32 874.36,-301.36"/>
<polygon fill="none" stroke="#63b8ff" points="735.25,-392.1 728.93,-400.61 739.17,-397.9 735.25,-392.1"/>
</a>
</g>
</g>
<!-- Node4 -->
<g id="Node000004" class="node">
<title>Node4</title>
<g id="a_Node000004"><a xlink:href="../../d4/d10/class_section_element.html" target="_top" xlink:title="The SectionElement class.">
<polygon fill="white" stroke="none" points="512,-547.5 398,-547.5 398,-492.5 512,-492.5 512,-547.5"/>
<text text-anchor="start" x="413" y="-533.05" font-family="Consolas" font-size="11.00">SectionElement</text>
<text text-anchor="start" x="452" y="-516.05" font-family="Consolas" font-size="11.00"> </text>
<text text-anchor="start" x="402" y="-499.05" font-family="Consolas" font-size="11.00">+</text>
<text text-anchor="start" x="412" y="-499.05" font-family="Consolas" font-size="11.00">SectionElement()</text>
<polygon fill="#666666" stroke="#666666" points="398,-528.5 398,-528.5 512,-528.5 512,-528.5 398,-528.5"/>
<polygon fill="#666666" stroke="#666666" points="398,-511.5 398,-511.5 512,-511.5 512,-511.5 398,-511.5"/>
<polygon fill="none" stroke="#666666" points="398,-492.5 398,-547.5 512,-547.5 512,-492.5 398,-492.5"/>
</a>
</g>
</g>
<!-- Node4&#45;&gt;Node3 -->
<g id="edge3_Node000003_Node000004" class="edge">
<title>Node4&#45;&gt;Node3</title>
<g id="a_edge3_Node000003_Node000004"><a xlink:title=" ">
<path fill="none" stroke="#63b8ff" d="M522.13,-493.18C552.83,-481.37 589.18,-467.39 620.1,-455.5"/>
<polygon fill="none" stroke="#63b8ff" points="521.02,-490.24 512.94,-497.1 523.53,-496.78 521.02,-490.24"/>
</a>
</g>
</g>
<!-- Node5 -->
<g id="Node000005" class="node">
<title>Node5</title>
<g id="a_Node000005"><a xlink:href="../../d5/d50/class_element.html" target="_top" xlink:title="A Element class.">
<polygon fill="white" stroke="none" points="441,-1077 249,-1077 249,-597 441,-597 441,-1077"/>
<text text-anchor="start" x="324" y="-1062.55" font-family="Consolas" font-size="11.00">Element</text>
<text text-anchor="start" x="342" y="-1045.55" font-family="Consolas" font-size="11.00"> </text>
<text text-anchor="start" x="253" y="-1028.55" font-family="Consolas" font-size="11.00">+</text>
<text text-anchor="start" x="263" y="-1028.55" font-family="Consolas" font-size="11.00">Element()</text>
<text text-anchor="start" x="253" y="-1011.55" font-family="Consolas" font-size="11.00">+</text>
<text text-anchor="start" x="263" y="-1011.55" font-family="Consolas" font-size="11.00">Element()</text>
<text text-anchor="start" x="253" y="-994.55" font-family="Consolas" font-size="11.00">+</text>
<text text-anchor="start" x="263" y="-994.55" font-family="Consolas" font-size="11.00">Element()</text>
<text text-anchor="start" x="253" y="-977.55" font-family="Consolas" font-size="11.00">+</text>
<text text-anchor="start" x="263" y="-977.55" font-family="Consolas" font-size="11.00">Element()</text>
<text text-anchor="start" x="253" y="-960.55" font-family="Consolas" font-size="11.00">+</text>
<text text-anchor="start" x="263" y="-960.55" font-family="Consolas" font-size="11.00">Element()</text>
<text text-anchor="start" x="253" y="-943.55" font-family="Consolas" font-size="11.00">+</text>
<text text-anchor="start" x="263" y="-943.55" font-family="Consolas" font-size="11.00">Element()</text>
<text text-anchor="start" x="253" y="-926.55" font-family="Consolas" font-size="11.00">+</text>
<text text-anchor="start" x="263" y="-926.55" font-family="Consolas" font-size="11.00">Element()</text>
<text text-anchor="start" x="253" y="-909.55" font-family="Consolas" font-size="11.00">+</text>
<text text-anchor="start" x="263" y="-909.55" font-family="Consolas" font-size="11.00">operator=()</text>
<text text-anchor="start" x="253" y="-892.55" font-family="Consolas" font-size="11.00">+</text>
<text text-anchor="start" x="263" y="-892.55" font-family="Consolas" font-size="11.00">operator=()</text>
<text text-anchor="start" x="253" y="-875.55" font-family="Consolas" font-size="11.00">+</text>
<text text-anchor="start" x="263" y="-875.55" font-family="Consolas" font-size="11.00">~Element()</text>
<text text-anchor="start" x="263" y="-858.55" font-family="Consolas" font-size="11.00">and 62 more...</text>
<text text-anchor="start" x="253" y="-841.55" font-family="Consolas" font-size="11.00">#</text>
<text text-anchor="start" x="263" y="-841.55" font-family="Consolas" font-size="11.00">get_coordinate()</text>
<text text-anchor="start" x="253" y="-824.55" font-family="Consolas" font-size="11.00">#</text>
<text text-anchor="start" x="263" y="-824.55" font-family="Consolas" font-size="11.00">get_incre_displacement()</text>
<text text-anchor="start" x="253" y="-807.55" font-family="Consolas" font-size="11.00">#</text>
<text text-anchor="start" x="263" y="-807.55" font-family="Consolas" font-size="11.00">get_incre_velocity()</text>
<text text-anchor="start" x="253" y="-790.55" font-family="Consolas" font-size="11.00">#</text>
<text text-anchor="start" x="263" y="-790.55" font-family="Consolas" font-size="11.00">get_incre_acceleration()</text>
<text text-anchor="start" x="253" y="-773.55" font-family="Consolas" font-size="11.00">#</text>
<text text-anchor="start" x="263" y="-773.55" font-family="Consolas" font-size="11.00">get_trial_displacement()</text>
<text text-anchor="start" x="253" y="-756.55" font-family="Consolas" font-size="11.00">#</text>
<text text-anchor="start" x="263" y="-756.55" font-family="Consolas" font-size="11.00">get_trial_velocity()</text>
<text text-anchor="start" x="253" y="-739.55" font-family="Consolas" font-size="11.00">#</text>
<text text-anchor="start" x="263" y="-739.55" font-family="Consolas" font-size="11.00">get_trial_acceleration()</text>
<text text-anchor="start" x="253" y="-722.55" font-family="Consolas" font-size="11.00">#</text>
<text text-anchor="start" x="263" y="-722.55" font-family="Consolas" font-size="11.00">get_current_displacement()</text>
<text text-anchor="start" x="253" y="-705.55" font-family="Consolas" font-size="11.00">#</text>
<text text-anchor="start" x="263" y="-705.55" font-family="Consolas" font-size="11.00">get_current_velocity()</text>
<text text-anchor="start" x="253" y="-688.55" font-family="Consolas" font-size="11.00">#</text>
<text text-anchor="start" x="263" y="-688.55" font-family="Consolas" font-size="11.00">get_current_acceleration()</text>
<text text-anchor="start" x="253" y="-671.55" font-family="Consolas" font-size="11.00">#</text>
<text text-anchor="start" x="263" y="-671.55" font-family="Consolas" font-size="11.00">get_node_incre_resistance()</text>
<text text-anchor="start" x="253" y="-654.55" font-family="Consolas" font-size="11.00">#</text>
<text text-anchor="start" x="263" y="-654.55" font-family="Consolas" font-size="11.00">get_node_trial_resistance()</text>
<text text-anchor="start" x="253" y="-637.55" font-family="Consolas" font-size="11.00">#</text>
<text text-anchor="start" x="263" y="-637.55" font-family="Consolas" font-size="11.00">get_node_current_resistance()</text>
<text text-anchor="start" x="253" y="-620.55" font-family="Consolas" font-size="11.00">#</text>
<text text-anchor="start" x="263" y="-620.55" font-family="Consolas" font-size="11.00">get_material()</text>
<text text-anchor="start" x="253" y="-603.55" font-family="Consolas" font-size="11.00">#</text>
<text text-anchor="start" x="263" y="-603.55" font-family="Consolas" font-size="11.00">get_section()</text>
<polygon fill="#666666" stroke="#666666" points="249,-1058 249,-1058 441,-1058 441,-1058 249,-1058"/>
<polygon fill="#666666" stroke="#666666" points="249,-1041 249,-1041 441,-1041 441,-1041 249,-1041"/>
<polygon fill="none" stroke="#666666" points="249,-597 249,-1077 441,-1077 441,-597 249,-597"/>
</a>
</g>
</g>
<!-- Node5&#45;&gt;Node4 -->
<g id="edge4_Node000004_Node000005" class="edge">
<title>Node5&#45;&gt;Node4</title>
<g id="a_edge4_Node000004_Node000005"><a xlink:title=" ">
<path fill="none" stroke="#63b8ff" d="M431.97,-586.94C437.32,-571.62 442.06,-558.07 445.82,-547.3"/>
<polygon fill="none" stroke="#63b8ff" points="428.36,-585.66 428.37,-596.25 434.97,-587.97 428.36,-585.66"/>
</a>
</g>
</g>
<!-- Node6 -->
<g id="Node000006" class="node">
<title>Node6</title>
<g id="a_Node000006"><a xlink:href="../../d2/db9/struct_data_element.html" target="_top" xlink:title=" ">
<polygon fill="white" stroke="none" points="536,-1445 404,-1445 404,-1288 536,-1288 536,-1445"/>
<text text-anchor="start" x="437" y="-1430.55" font-family="Consolas" font-size="11.00">DataElement</text>
<text text-anchor="start" x="408" y="-1413.55" font-family="Consolas" font-size="11.00">+</text>
<text text-anchor="start" x="418" y="-1413.55" font-family="Consolas" font-size="11.00">trial_mass</text>
<text text-anchor="start" x="408" y="-1396.55" font-family="Consolas" font-size="11.00">+</text>
<text text-anchor="start" x="418" y="-1396.55" font-family="Consolas" font-size="11.00">trial_damping</text>
<text text-anchor="start" x="408" y="-1379.55" font-family="Consolas" font-size="11.00">+</text>
<text text-anchor="start" x="418" y="-1379.55" font-family="Consolas" font-size="11.00">trial_stiffness</text>
<text text-anchor="start" x="408" y="-1362.55" font-family="Consolas" font-size="11.00">+</text>
<text text-anchor="start" x="418" y="-1362.55" font-family="Consolas" font-size="11.00">trial_geometry</text>
<text text-anchor="start" x="408" y="-1345.55" font-family="Consolas" font-size="11.00">+</text>
<text text-anchor="start" x="418" y="-1345.55" font-family="Consolas" font-size="11.00">trial_traction</text>
<text text-anchor="start" x="408" y="-1328.55" font-family="Consolas" font-size="11.00">+</text>
<text text-anchor="start" x="418" y="-1328.55" font-family="Consolas" font-size="11.00">traction</text>
<text text-anchor="start" x="408" y="-1311.55" font-family="Consolas" font-size="11.00">+</text>
<text text-anchor="start" x="418" y="-1311.55" font-family="Consolas" font-size="11.00">stiffness_container</text>
<text text-anchor="start" x="467" y="-1294.55" font-family="Consolas" font-size="11.00"> </text>
<polygon fill="#666666" stroke="#666666" points="404,-1426 404,-1426 536,-1426 536,-1426 404,-1426"/>
<polygon fill="#666666" stroke="#666666" points="404,-1307 404,-1307 416,-1307 416,-1307 404,-1307"/>
<polygon fill="#666666" stroke="#666666" points="416,-1307 416,-1307 536,-1307 536,-1307 416,-1307"/>
<polygon fill="none" stroke="#666666" points="404,-1288 404,-1445 536,-1445 536,-1288 404,-1288"/>
</a>
</g>
</g>
<!-- Node6&#45;&gt;Node5 -->
<g id="edge5_Node000005_Node000006" class="edge">
<title>Node6&#45;&gt;Node5</title>
<g id="a_edge5_Node000005_Node000006"><a xlink:title=" ">
<path fill="none" stroke="darkgreen" d="M449.22,-1277.8C436.13,-1222.57 418.55,-1148.4 401.57,-1076.71"/>
<polygon fill="none" stroke="darkgreen" points="445.98,-1278.31 451.69,-1287.23 452.79,-1276.69 445.98,-1278.31"/>
</a>
</g>
</g>
<!-- Node7 -->
<g id="Node000007" class="node">
<title>Node7</title>
<g id="a_Node000007"><a xlink:title=" ">
<polygon fill="white" stroke="none" points="375,-1965 341,-1965 341,-1910 375,-1910 375,-1965"/>
<text text-anchor="start" x="346" y="-1950.55" font-family="Consolas" font-size="11.00">uvec</text>
<text text-anchor="start" x="355" y="-1933.55" font-family="Consolas" font-size="11.00"> </text>
<text text-anchor="start" x="355" y="-1916.55" font-family="Consolas" font-size="11.00"> </text>
<polygon fill="#666666" stroke="#666666" points="341,-1946 341,-1946 375,-1946 375,-1946 341,-1946"/>
<polygon fill="#666666" stroke="#666666" points="341,-1929 341,-1929 375,-1929 375,-1929 341,-1929"/>
<polygon fill="none" stroke="#666666" points="341,-1910 341,-1965 375,-1965 375,-1910 341,-1910"/>
</a>
</g>
</g>
<!-- Node7&#45;&gt;Node6 -->
<g id="edge6_Node000006_Node000007" class="edge">
<title>Node7&#45;&gt;Node6</title>
<g id="a_edge6_Node000006_Node000007"><a xlink:title=" ">
<path fill="none" stroke="#63b8ff" d="M353.9,-1910.05C346.49,-1854.45 335.34,-1722.55 378,-1624.5 382.39,-1614.41 389.43,-1615.99 395,-1606.5 421.91,-1560.63 440.22,-1504.04 452.01,-1457.45"/>
<polygon fill="none" stroke="#63b8ff" points="452.02,-1457.43 449.56,-1450.65 454.88,-1445.78 457.33,-1452.56 452.02,-1457.43"/>
</a>
</g>
<text text-anchor="middle" x="420" y="-1715.3" font-family="Consolas" font-size="11.00" fill="grey"> +dof_encoding</text>
<text text-anchor="middle" x="420" y="-1701.8" font-family="Consolas" font-size="11.00" fill="grey">+material_tag</text>
<text text-anchor="middle" x="420" y="-1688.3" font-family="Consolas" font-size="11.00" fill="grey">+node_encoding</text>
<text text-anchor="middle" x="420" y="-1674.8" font-family="Consolas" font-size="11.00" fill="grey">+section_tag</text>
</g>
<!-- Node8 -->
<g id="Node000008" class="node">
<title>Node8</title>
<g id="a_Node000008"><a xlink:title=" ">
<polygon fill="white" stroke="none" points="482,-1965 448,-1965 448,-1910 482,-1910 482,-1965"/>
<text text-anchor="start" x="453" y="-1950.55" font-family="Consolas" font-size="11.00">bool</text>
<text text-anchor="start" x="462" y="-1933.55" font-family="Consolas" font-size="11.00"> </text>
<text text-anchor="start" x="462" y="-1916.55" font-family="Consolas" font-size="11.00"> </text>
<polygon fill="#666666" stroke="#666666" points="448,-1946 448,-1946 482,-1946 482,-1946 448,-1946"/>
<polygon fill="#666666" stroke="#666666" points="448,-1929 448,-1929 482,-1929 482,-1929 448,-1929"/>
<polygon fill="none" stroke="#666666" points="448,-1910 448,-1965 482,-1965 482,-1910 448,-1910"/>
</a>
</g>
</g>
<!-- Node8&#45;&gt;Node6 -->
<g id="edge7_Node000006_Node000008" class="edge">
<title>Node8&#45;&gt;Node6</title>
<g id="a_edge7_Node000006_Node000008"><a xlink:title=" ">
<path fill="none" stroke="#63b8ff" d="M464.97,-1910.2C464.95,-1856.51 465.01,-1730.39 466,-1624.5 466.52,-1569.1 467.48,-1506.99 468.32,-1457.7"/>
<polygon fill="none" stroke="#63b8ff" points="468.32,-1457.71 464.43,-1451.64 468.53,-1445.71 472.43,-1451.78 468.32,-1457.71"/>
</a>
</g>
<text text-anchor="middle" x="517" y="-1722.05" font-family="Consolas" font-size="11.00" fill="grey"> +nlgeom</text>
<text text-anchor="middle" x="517" y="-1708.55" font-family="Consolas" font-size="11.00" fill="grey">+update_damping</text>
<text text-anchor="middle" x="517" y="-1695.05" font-family="Consolas" font-size="11.00" fill="grey">+update_geometry</text>
<text text-anchor="middle" x="517" y="-1681.55" font-family="Consolas" font-size="11.00" fill="grey">+update_mass</text>
<text text-anchor="middle" x="517" y="-1668.05" font-family="Consolas" font-size="11.00" fill="grey">+update_stiffness</text>
</g>
<!-- Node9 -->
<g id="Node000009" class="node">
<title>Node9</title>
<g id="a_Node000009"><a xlink:title=" ">
<polygon fill="white" stroke="none" points="604,-1965 576,-1965 576,-1910 604,-1910 604,-1965"/>
<text text-anchor="start" x="581" y="-1950.55" font-family="Consolas" font-size="11.00">mat</text>
<text text-anchor="start" x="587" y="-1933.55" font-family="Consolas" font-size="11.00"> </text>
<text text-anchor="start" x="587" y="-1916.55" font-family="Consolas" font-size="11.00"> </text>
<polygon fill="#666666" stroke="#666666" points="576,-1946 576,-1946 604,-1946 604,-1946 576,-1946"/>
<polygon fill="#666666" stroke="#666666" points="576,-1929 576,-1929 604,-1929 604,-1929 576,-1929"/>
<polygon fill="none" stroke="#666666" points="576,-1910 576,-1965 604,-1965 604,-1910 576,-1910"/>
</a>
</g>
</g>
<!-- Node9&#45;&gt;Node6 -->
<g id="edge8_Node000006_Node000009" class="edge">
<title>Node9&#45;&gt;Node6</title>
<g id="a_edge8_Node000006_Node000009"><a xlink:title=" ">
<path fill="none" stroke="#63b8ff" d="M590.72,-1910.24C591.65,-1856.1 590.95,-1728.43 568,-1624.5 555.3,-1566.99 532.09,-1505.25 511.45,-1456.69"/>
<polygon fill="none" stroke="#63b8ff" points="511.5,-1456.81 505.45,-1452.88 506.76,-1445.79 512.8,-1449.72 511.5,-1456.81"/>
</a>
</g>
<text text-anchor="middle" x="642" y="-1762.55" font-family="Consolas" font-size="11.00" fill="grey"> +body_force</text>
<text text-anchor="middle" x="642" y="-1749.05" font-family="Consolas" font-size="11.00" fill="grey">+current_damping</text>
<text text-anchor="middle" x="642" y="-1735.55" font-family="Consolas" font-size="11.00" fill="grey">+current_geometry</text>
<text text-anchor="middle" x="642" y="-1722.05" font-family="Consolas" font-size="11.00" fill="grey">+current_mass</text>
<text text-anchor="middle" x="642" y="-1708.55" font-family="Consolas" font-size="11.00" fill="grey">+current_stiffness</text>
<text text-anchor="middle" x="642" y="-1695.05" font-family="Consolas" font-size="11.00" fill="grey">+initial_damping</text>
<text text-anchor="middle" x="642" y="-1681.55" font-family="Consolas" font-size="11.00" fill="grey">+initial_geometry</text>
<text text-anchor="middle" x="642" y="-1668.05" font-family="Consolas" font-size="11.00" fill="grey">+initial_mass</text>
<text text-anchor="middle" x="642" y="-1654.55" font-family="Consolas" font-size="11.00" fill="grey">+initial_stiffness</text>
<text text-anchor="middle" x="642" y="-1641.05" font-family="Consolas" font-size="11.00" fill="grey">+mass_container</text>
<text text-anchor="middle" x="642" y="-1627.55" font-family="Consolas" font-size="11.00" fill="grey">...</text>
</g>
<!-- Node10 -->
<g id="Node000010" class="node">
<title>Node10</title>
<g id="a_Node000010"><a xlink:title=" ">
<polygon fill="white" stroke="none" points="211,-1965 183,-1965 183,-1910 211,-1910 211,-1965"/>
<text text-anchor="start" x="188" y="-1950.55" font-family="Consolas" font-size="11.00">vec</text>
<text text-anchor="start" x="194" y="-1933.55" font-family="Consolas" font-size="11.00"> </text>
<text text-anchor="start" x="194" y="-1916.55" font-family="Consolas" font-size="11.00"> </text>
<polygon fill="#666666" stroke="#666666" points="183,-1946 183,-1946 211,-1946 211,-1946 183,-1946"/>
<polygon fill="#666666" stroke="#666666" points="183,-1929 183,-1929 211,-1929 211,-1929 183,-1929"/>
<polygon fill="none" stroke="#666666" points="183,-1910 183,-1965 211,-1965 211,-1910 183,-1910"/>
</a>
</g>
</g>
<!-- Node10&#45;&gt;Node6 -->
<g id="edge9_Node000006_Node000010" class="edge">
<title>Node10&#45;&gt;Node6</title>
<g id="a_edge9_Node000006_Node000010"><a xlink:title=" ">
<path fill="none" stroke="#63b8ff" d="M193.62,-1910.1C185.6,-1842.43 168.8,-1665.2 207,-1624.5 235.72,-1593.9 362.39,-1632.93 395,-1606.5 439.07,-1570.78 457.7,-1509.41 465.38,-1457.8"/>
<polygon fill="none" stroke="#63b8ff" points="465.39,-1457.7 462.22,-1451.22 466.98,-1445.81 470.15,-1452.28 465.39,-1457.7"/>
</a>
</g>
<text text-anchor="middle" x="276" y="-1762.55" font-family="Consolas" font-size="11.00" fill="grey"> +current_body_force</text>
<text text-anchor="middle" x="276" y="-1749.05" font-family="Consolas" font-size="11.00" fill="grey">+current_damping_force</text>
<text text-anchor="middle" x="276" y="-1735.55" font-family="Consolas" font-size="11.00" fill="grey">+current_inertial_force</text>
<text text-anchor="middle" x="276" y="-1722.05" font-family="Consolas" font-size="11.00" fill="grey">+current_resistance</text>
<text text-anchor="middle" x="276" y="-1708.55" font-family="Consolas" font-size="11.00" fill="grey">+current_traction</text>
<text text-anchor="middle" x="276" y="-1695.05" font-family="Consolas" font-size="11.00" fill="grey">+momentum</text>
<text text-anchor="middle" x="276" y="-1681.55" font-family="Consolas" font-size="11.00" fill="grey">+trial_body_force</text>
<text text-anchor="middle" x="276" y="-1668.05" font-family="Consolas" font-size="11.00" fill="grey">+trial_damping_force</text>
<text text-anchor="middle" x="276" y="-1654.55" font-family="Consolas" font-size="11.00" fill="grey">+trial_inertial_force</text>
<text text-anchor="middle" x="276" y="-1641.05" font-family="Consolas" font-size="11.00" fill="grey">+trial_resistance</text>
<text text-anchor="middle" x="276" y="-1627.55" font-family="Consolas" font-size="11.00" fill="grey">...</text>
</g>
<!-- Node11 -->
<g id="Node000011" class="node">
<title>Node11</title>
<g id="a_Node000011"><a xlink:title=" ">
<polygon fill="white" stroke="none" points="820,-1965 774,-1965 774,-1910 820,-1910 820,-1965"/>
<text text-anchor="start" x="779" y="-1950.55" font-family="Consolas" font-size="11.00">double</text>
<text text-anchor="start" x="794" y="-1933.55" font-family="Consolas" font-size="11.00"> </text>
<text text-anchor="start" x="794" y="-1916.55" font-family="Consolas" font-size="11.00"> </text>
<polygon fill="#666666" stroke="#666666" points="774,-1946 774,-1946 820,-1946 820,-1946 774,-1946"/>
<polygon fill="#666666" stroke="#666666" points="774,-1929 774,-1929 820,-1929 820,-1929 774,-1929"/>
<polygon fill="none" stroke="#666666" points="774,-1910 774,-1965 820,-1965 820,-1910 774,-1910"/>
</a>
</g>
</g>
<!-- Node11&#45;&gt;Node2 -->
<g id="edge15_Node000002_Node000011" class="edge">
<title>Node11&#45;&gt;Node2</title>
<g id="a_edge15_Node000002_Node000011"><a xlink:title=" ">
<path fill="none" stroke="#63b8ff" d="M810.32,-1910.14C825.56,-1878.49 849.73,-1823.37 860,-1773 896.03,-1596.31 874,-1547.83 874,-1367.5 874,-1367.5 874,-1367.5 874,-427 874,-405.79 878.22,-383.78 884.3,-363.07"/>
<polygon fill="none" stroke="#63b8ff" points="884.32,-363.01 882.3,-356.09 887.92,-351.57 889.93,-358.49 884.32,-363.01"/>
</a>
</g>
<text text-anchor="middle" x="898" y="-568.55" font-family="Consolas" font-size="11.00" fill="grey"> #length</text>
</g>
<!-- Node11&#45;&gt;Node6 -->
<g id="edge10_Node000006_Node000011" class="edge">
<title>Node11&#45;&gt;Node6</title>
<g id="a_edge10_Node000006_Node000011"><a xlink:title=" ">
<path fill="none" stroke="#63b8ff" d="M782.16,-1910.2C765.01,-1878.61 737.19,-1823.55 722,-1773 702.78,-1709.04 727.49,-1684.9 699,-1624.5 663.06,-1548.3 597.26,-1478.09 545.38,-1430.38"/>
<polygon fill="none" stroke="#63b8ff" points="545.42,-1430.41 538.29,-1429.34 536.53,-1422.34 543.66,-1423.42 545.42,-1430.41"/>
</a>
</g>
<text text-anchor="middle" x="791" y="-1722.05" font-family="Consolas" font-size="11.00" fill="grey"> +characteristic_length</text>
<text text-anchor="middle" x="791" y="-1708.55" font-family="Consolas" font-size="11.00" fill="grey">+complementary_energy</text>
<text text-anchor="middle" x="791" y="-1695.05" font-family="Consolas" font-size="11.00" fill="grey">+kinetic_energy</text>
<text text-anchor="middle" x="791" y="-1681.55" font-family="Consolas" font-size="11.00" fill="grey">+strain_energy</text>
<text text-anchor="middle" x="791" y="-1668.05" font-family="Consolas" font-size="11.00" fill="grey">+viscous_energy</text>
</g>
<!-- Node12 -->
<g id="Node000012" class="node">
<title>Node12</title>
<g id="a_Node000012"><a xlink:href="../../d4/d6b/class_element_base.html" target="_top" xlink:title="A ElementBase class.">
<polygon fill="white" stroke="none" points="202,-1606.5 10,-1606.5 10,-1126.5 202,-1126.5 202,-1606.5"/>
<text text-anchor="start" x="73" y="-1592.05" font-family="Consolas" font-size="11.00">ElementBase</text>
<text text-anchor="start" x="103" y="-1575.05" font-family="Consolas" font-size="11.00"> </text>
<text text-anchor="start" x="14" y="-1558.05" font-family="Consolas" font-size="11.00">+</text>
<text text-anchor="start" x="24" y="-1558.05" font-family="Consolas" font-size="11.00">ElementBase()</text>
<text text-anchor="start" x="14" y="-1541.05" font-family="Consolas" font-size="11.00">+</text>
<text text-anchor="start" x="24" y="-1541.05" font-family="Consolas" font-size="11.00">ElementBase()</text>
<text text-anchor="start" x="14" y="-1524.05" font-family="Consolas" font-size="11.00">+</text>
<text text-anchor="start" x="24" y="-1524.05" font-family="Consolas" font-size="11.00">ElementBase()</text>
<text text-anchor="start" x="14" y="-1507.05" font-family="Consolas" font-size="11.00">+</text>
<text text-anchor="start" x="24" y="-1507.05" font-family="Consolas" font-size="11.00">operator=()</text>
<text text-anchor="start" x="14" y="-1490.05" font-family="Consolas" font-size="11.00">+</text>
<text text-anchor="start" x="24" y="-1490.05" font-family="Consolas" font-size="11.00">operator=()</text>
<text text-anchor="start" x="14" y="-1473.05" font-family="Consolas" font-size="11.00">+</text>
<text text-anchor="start" x="24" y="-1473.05" font-family="Consolas" font-size="11.00">~ElementBase()</text>
<text text-anchor="start" x="14" y="-1456.05" font-family="Consolas" font-size="11.00">+</text>
<text text-anchor="start" x="24" y="-1456.05" font-family="Consolas" font-size="11.00">initialize_base()</text>
<text text-anchor="start" x="14" y="-1439.05" font-family="Consolas" font-size="11.00">+</text>
<text text-anchor="start" x="24" y="-1439.05" font-family="Consolas" font-size="11.00">initialize()</text>
<text text-anchor="start" x="14" y="-1422.05" font-family="Consolas" font-size="11.00">+</text>
<text text-anchor="start" x="24" y="-1422.05" font-family="Consolas" font-size="11.00">set_initialized()</text>
<text text-anchor="start" x="14" y="-1405.05" font-family="Consolas" font-size="11.00">+</text>
<text text-anchor="start" x="24" y="-1405.05" font-family="Consolas" font-size="11.00">set_symmetric()</text>
<text text-anchor="start" x="24" y="-1388.05" font-family="Consolas" font-size="11.00">and 60 more...</text>
<text text-anchor="start" x="14" y="-1371.05" font-family="Consolas" font-size="11.00">#</text>
<text text-anchor="start" x="24" y="-1371.05" font-family="Consolas" font-size="11.00">get_coordinate()</text>
<text text-anchor="start" x="14" y="-1354.05" font-family="Consolas" font-size="11.00">#</text>
<text text-anchor="start" x="24" y="-1354.05" font-family="Consolas" font-size="11.00">get_incre_displacement()</text>
<text text-anchor="start" x="14" y="-1337.05" font-family="Consolas" font-size="11.00">#</text>
<text text-anchor="start" x="24" y="-1337.05" font-family="Consolas" font-size="11.00">get_incre_velocity()</text>
<text text-anchor="start" x="14" y="-1320.05" font-family="Consolas" font-size="11.00">#</text>
<text text-anchor="start" x="24" y="-1320.05" font-family="Consolas" font-size="11.00">get_incre_acceleration()</text>
<text text-anchor="start" x="14" y="-1303.05" font-family="Consolas" font-size="11.00">#</text>
<text text-anchor="start" x="24" y="-1303.05" font-family="Consolas" font-size="11.00">get_trial_displacement()</text>
<text text-anchor="start" x="14" y="-1286.05" font-family="Consolas" font-size="11.00">#</text>
<text text-anchor="start" x="24" y="-1286.05" font-family="Consolas" font-size="11.00">get_trial_velocity()</text>
<text text-anchor="start" x="14" y="-1269.05" font-family="Consolas" font-size="11.00">#</text>
<text text-anchor="start" x="24" y="-1269.05" font-family="Consolas" font-size="11.00">get_trial_acceleration()</text>
<text text-anchor="start" x="14" y="-1252.05" font-family="Consolas" font-size="11.00">#</text>
<text text-anchor="start" x="24" y="-1252.05" font-family="Consolas" font-size="11.00">get_current_displacement()</text>
<text text-anchor="start" x="14" y="-1235.05" font-family="Consolas" font-size="11.00">#</text>
<text text-anchor="start" x="24" y="-1235.05" font-family="Consolas" font-size="11.00">get_current_velocity()</text>
<text text-anchor="start" x="14" y="-1218.05" font-family="Consolas" font-size="11.00">#</text>
<text text-anchor="start" x="24" y="-1218.05" font-family="Consolas" font-size="11.00">get_current_acceleration()</text>
<text text-anchor="start" x="14" y="-1201.05" font-family="Consolas" font-size="11.00">#</text>
<text text-anchor="start" x="24" y="-1201.05" font-family="Consolas" font-size="11.00">get_node_incre_resistance()</text>
<text text-anchor="start" x="14" y="-1184.05" font-family="Consolas" font-size="11.00">#</text>
<text text-anchor="start" x="24" y="-1184.05" font-family="Consolas" font-size="11.00">get_node_trial_resistance()</text>
<text text-anchor="start" x="14" y="-1167.05" font-family="Consolas" font-size="11.00">#</text>
<text text-anchor="start" x="24" y="-1167.05" font-family="Consolas" font-size="11.00">get_node_current_resistance()</text>
<text text-anchor="start" x="14" y="-1150.05" font-family="Consolas" font-size="11.00">#</text>
<text text-anchor="start" x="24" y="-1150.05" font-family="Consolas" font-size="11.00">get_material()</text>
<text text-anchor="start" x="14" y="-1133.05" font-family="Consolas" font-size="11.00">#</text>
<text text-anchor="start" x="24" y="-1133.05" font-family="Consolas" font-size="11.00">get_section()</text>
<polygon fill="#666666" stroke="#666666" points="10,-1587.5 10,-1587.5 202,-1587.5 202,-1587.5 10,-1587.5"/>
<polygon fill="#666666" stroke="#666666" points="10,-1570.5 10,-1570.5 202,-1570.5 202,-1570.5 10,-1570.5"/>
<polygon fill="none" stroke="#666666" points="10,-1126.5 10,-1606.5 202,-1606.5 202,-1126.5 10,-1126.5"/>
</a>
</g>
</g>
<!-- Node12&#45;&gt;Node5 -->
<g id="edge11_Node000005_Node000012" class="edge">
<title>Node12&#45;&gt;Node5</title>
<g id="a_edge11_Node000005_Node000012"><a xlink:title=" ">
<path fill="none" stroke="#63b8ff" d="M206.35,-1136.8C207.91,-1133.34 209.46,-1129.91 211,-1126.5 223.22,-1099.45 236.22,-1071.04 249.13,-1043.03"/>
<polygon fill="none" stroke="#63b8ff" points="202.85,-1135.05 201.95,-1145.61 209.24,-1137.92 202.85,-1135.05"/>
</a>
</g>
</g>
<!-- Node13 -->
<g id="Node000013" class="node">
<title>Node13</title>
<g id="a_Node000013"><a xlink:href="../../d0/d57/class_tag.html" target="_top" xlink:title="A base Tag class.">
<polygon fill="white" stroke="none" points="160,-2084 70,-2084 70,-1791 160,-1791 160,-2084"/>
<text text-anchor="start" x="106" y="-2069.55" font-family="Consolas" font-size="11.00">Tag</text>
<text text-anchor="start" x="112" y="-2052.55" font-family="Consolas" font-size="11.00"> </text>
<text text-anchor="start" x="74" y="-2035.55" font-family="Consolas" font-size="11.00">+</text>
<text text-anchor="start" x="84" y="-2035.55" font-family="Consolas" font-size="11.00">Tag()</text>
<text text-anchor="start" x="74" y="-2018.55" font-family="Consolas" font-size="11.00">+</text>
<text text-anchor="start" x="84" y="-2018.55" font-family="Consolas" font-size="11.00">Tag()</text>
<text text-anchor="start" x="74" y="-2001.55" font-family="Consolas" font-size="11.00">+</text>
<text text-anchor="start" x="84" y="-2001.55" font-family="Consolas" font-size="11.00">Tag()</text>
<text text-anchor="start" x="74" y="-1984.55" font-family="Consolas" font-size="11.00">+</text>
<text text-anchor="start" x="84" y="-1984.55" font-family="Consolas" font-size="11.00">operator=()</text>
<text text-anchor="start" x="74" y="-1967.55" font-family="Consolas" font-size="11.00">+</text>
<text text-anchor="start" x="84" y="-1967.55" font-family="Consolas" font-size="11.00">operator=()</text>
<text text-anchor="start" x="74" y="-1950.55" font-family="Consolas" font-size="11.00">+</text>
<text text-anchor="start" x="84" y="-1950.55" font-family="Consolas" font-size="11.00">~Tag()</text>
<text text-anchor="start" x="74" y="-1933.55" font-family="Consolas" font-size="11.00">+</text>
<text text-anchor="start" x="84" y="-1933.55" font-family="Consolas" font-size="11.00">set_tag()</text>
<text text-anchor="start" x="74" y="-1916.55" font-family="Consolas" font-size="11.00">+</text>
<text text-anchor="start" x="84" y="-1916.55" font-family="Consolas" font-size="11.00">get_tag()</text>
<text text-anchor="start" x="74" y="-1899.55" font-family="Consolas" font-size="11.00">+</text>
<text text-anchor="start" x="84" y="-1899.55" font-family="Consolas" font-size="11.00">enable()</text>
<text text-anchor="start" x="74" y="-1882.55" font-family="Consolas" font-size="11.00">+</text>
<text text-anchor="start" x="84" y="-1882.55" font-family="Consolas" font-size="11.00">disable()</text>
<text text-anchor="start" x="74" y="-1865.55" font-family="Consolas" font-size="11.00">+</text>
<text text-anchor="start" x="84" y="-1865.55" font-family="Consolas" font-size="11.00">guard()</text>
<text text-anchor="start" x="74" y="-1848.55" font-family="Consolas" font-size="11.00">+</text>
<text text-anchor="start" x="84" y="-1848.55" font-family="Consolas" font-size="11.00">unguard()</text>
<text text-anchor="start" x="74" y="-1831.55" font-family="Consolas" font-size="11.00">+</text>
<text text-anchor="start" x="84" y="-1831.55" font-family="Consolas" font-size="11.00">is_active()</text>
<text text-anchor="start" x="74" y="-1814.55" font-family="Consolas" font-size="11.00">+</text>
<text text-anchor="start" x="84" y="-1814.55" font-family="Consolas" font-size="11.00">is_guarded()</text>
<text text-anchor="start" x="74" y="-1797.55" font-family="Consolas" font-size="11.00">+</text>
<text text-anchor="start" x="84" y="-1797.55" font-family="Consolas" font-size="11.00">print()</text>
<polygon fill="#666666" stroke="#666666" points="70,-2065 70,-2065 160,-2065 160,-2065 70,-2065"/>
<polygon fill="#666666" stroke="#666666" points="70,-2048 70,-2048 160,-2048 160,-2048 70,-2048"/>
<polygon fill="none" stroke="#666666" points="70,-1791 70,-2084 160,-2084 160,-1791 70,-1791"/>
</a>
</g>
</g>
<!-- Node13&#45;&gt;Node12 -->
<g id="edge12_Node000012_Node000013" class="edge">
<title>Node13&#45;&gt;Node12</title>
<g id="a_edge12_Node000012_Node000013"><a xlink:title=" ">
<path fill="none" stroke="#63b8ff" d="M112.53,-1780.09C111.68,-1726.38 110.71,-1664.98 109.78,-1606.24"/>
<polygon fill="none" stroke="#63b8ff" points="109.04,-1780.13 112.7,-1790.08 116.04,-1780.02 109.04,-1780.13"/>
</a>
</g>
</g>
<!-- Node14 -->
<g id="Node000014" class="node">
<title>Node14</title>
<g id="a_Node000014"><a xlink:href="../../db/ddc/classvtk_base.html" target="_top" xlink:title="The vtkBase class.">
<polygon fill="white" stroke="none" points="52,-1965 0,-1965 0,-1910 52,-1910 52,-1965"/>
<text text-anchor="start" x="5" y="-1950.55" font-family="Consolas" font-size="11.00">vtkBase</text>
<text text-anchor="start" x="23" y="-1933.55" font-family="Consolas" font-size="11.00"> </text>
<text text-anchor="start" x="23" y="-1916.55" font-family="Consolas" font-size="11.00"> </text>
<polygon fill="#666666" stroke="#666666" points="0,-1946 0,-1946 52,-1946 52,-1946 0,-1946"/>
<polygon fill="#666666" stroke="#666666" points="0,-1929 0,-1929 52,-1929 52,-1929 0,-1929"/>
<polygon fill="none" stroke="#666666" points="0,-1910 0,-1965 52,-1965 52,-1910 0,-1910"/>
</a>
</g>
</g>
<!-- Node14&#45;&gt;Node12 -->
<g id="edge13_Node000012_Node000014" class="edge">
<title>Node14&#45;&gt;Node12</title>
<g id="a_edge13_Node000012_Node000014"><a xlink:title=" ">
<path fill="none" stroke="#63b8ff" d="M31.21,-1899.48C39.58,-1839.93 56.69,-1718.19 72.44,-1606.18"/>
<polygon fill="none" stroke="#63b8ff" points="27.62,-1898.81 29.7,-1909.2 34.56,-1899.78 27.62,-1898.81"/>
</a>
</g>
</g>
<!-- Node15 -->
<g id="Node000015" class="node">
<title>Node15</title>
<g id="a_Node000015"><a xlink:title=" ">
<polygon fill="white" stroke="none" points="386,-1394 220,-1394 220,-1339 386,-1339 386,-1394"/>
<text text-anchor="start" x="225" y="-1379.55" font-family="Consolas" font-size="11.00">vector&lt; weak_ptr&lt; Node &gt; &gt;</text>
<text text-anchor="start" x="300" y="-1362.55" font-family="Consolas" font-size="11.00"> </text>
<text text-anchor="start" x="300" y="-1345.55" font-family="Consolas" font-size="11.00"> </text>
<polygon fill="#666666" stroke="#666666" points="220,-1375 220,-1375 386,-1375 386,-1375 220,-1375"/>
<polygon fill="#666666" stroke="#666666" points="220,-1358 220,-1358 386,-1358 386,-1358 220,-1358"/>
<polygon fill="none" stroke="#666666" points="220,-1339 220,-1394 386,-1394 386,-1339 220,-1339"/>
</a>
</g>
</g>
<!-- Node15&#45;&gt;Node5 -->
<g id="edge14_Node000005_Node000015" class="edge">
<title>Node15&#45;&gt;Node5</title>
<g id="a_edge14_Node000005_Node000015"><a xlink:title=" ">
<path fill="none" stroke="#63b8ff" d="M305.08,-1339.34C308.81,-1292.54 316.98,-1189.97 324.96,-1089.73"/>
<polygon fill="none" stroke="#63b8ff" points="324.96,-1089.74 321.44,-1083.44 325.91,-1077.78 329.42,-1084.08 324.96,-1089.74"/>
</a>
</g>
<text text-anchor="middle" x="354" y="-1098.05" font-family="Consolas" font-size="11.00" fill="grey"> #node_ptr</text>
</g>
<!-- Node16 -->
<g id="Node000016" class="node">
<title>Node16</title>
<g id="a_Node000016"><a xlink:title=" ">
<polygon fill="white" stroke="none" points="1062,-455.5 902,-455.5 902,-400.5 1062,-400.5 1062,-455.5"/>
<text text-anchor="start" x="907" y="-441.05" font-family="Consolas" font-size="11.00">unique_ptr&lt; Orientation &gt;</text>
<text text-anchor="start" x="979" y="-424.05" font-family="Consolas" font-size="11.00"> </text>
<text text-anchor="start" x="979" y="-407.05" font-family="Consolas" font-size="11.00"> </text>
<polygon fill="#666666" stroke="#666666" points="902,-436.5 902,-436.5 1062,-436.5 1062,-436.5 902,-436.5"/>
<polygon fill="#666666" stroke="#666666" points="902,-419.5 902,-419.5 1062,-419.5 1062,-419.5 902,-419.5"/>
<polygon fill="none" stroke="#666666" points="902,-400.5 902,-455.5 1062,-455.5 1062,-400.5 902,-400.5"/>
</a>
</g>
</g>
<!-- Node16&#45;&gt;Node2 -->
<g id="edge16_Node000002_Node000016" class="edge">
<title>Node16&#45;&gt;Node2</title>
<g id="a_edge16_Node000002_Node000016"><a xlink:title=" ">
<path fill="none" stroke="#63b8ff" d="M973.2,-400.61C969.64,-389.93 965.29,-376.88 960.71,-363.14"/>
<polygon fill="none" stroke="#63b8ff" points="960.72,-363.17 955.03,-358.75 956.93,-351.79 962.62,-356.22 960.72,-363.17"/>
</a>
</g>
<text text-anchor="middle" x="994" y="-372.05" font-family="Consolas" font-size="11.00" fill="grey"> #b_trans</text>
</g>
<!-- Node17 -->
<g id="Node000017" class="node">
<title>Node17</title>
<g id="a_Node000017"><a xlink:title=" ">
<polygon fill="white" stroke="none" points="1216,-455.5 1080,-455.5 1080,-400.5 1216,-400.5 1216,-455.5"/>
<text text-anchor="start" x="1085" y="-441.05" font-family="Consolas" font-size="11.00">unique_ptr&lt; Section &gt;</text>
<text text-anchor="start" x="1145" y="-424.05" font-family="Consolas" font-size="11.00"> </text>
<text text-anchor="start" x="1145" y="-407.05" font-family="Consolas" font-size="11.00"> </text>
<polygon fill="#666666" stroke="#666666" points="1080,-436.5 1080,-436.5 1216,-436.5 1216,-436.5 1080,-436.5"/>
<polygon fill="#666666" stroke="#666666" points="1080,-419.5 1080,-419.5 1216,-419.5 1216,-419.5 1080,-419.5"/>
<polygon fill="none" stroke="#666666" points="1080,-400.5 1080,-455.5 1216,-455.5 1216,-400.5 1080,-400.5"/>
</a>
</g>
</g>
<!-- Node17&#45;&gt;Node2 -->
<g id="edge17_Node000002_Node000017" class="edge">
<title>Node17&#45;&gt;Node2</title>
<g id="a_edge17_Node000002_Node000017"><a xlink:title=" ">
<path fill="none" stroke="#63b8ff" d="M1112.16,-400.61C1079.75,-376.74 1031.26,-341.03 992.17,-312.25"/>
<polygon fill="none" stroke="#63b8ff" points="992.32,-312.36 985.12,-312.03 982.66,-305.25 989.86,-305.58 992.32,-312.36"/>
</a>
</g>
<text text-anchor="middle" x="1115" y="-372.05" font-family="Consolas" font-size="11.00" fill="grey"> #b_section</text>
</g>
</g>
</svg>
