<?xml version="1.0" encoding="UTF-8" standalone="no"?>
<!DOCTYPE svg PUBLIC "-//W3C//DTD SVG 1.1//EN"
 "http://www.w3.org/Graphics/SVG/1.1/DTD/svg11.dtd">
<!-- Generated by graphviz version 2.43.0 (0)
 -->
<!-- Title: MetaMat&lt; T &gt; Pages: 1 -->
<!--zoomable 562 -->
<svg id="main" version="1.1" xmlns="http://www.w3.org/2000/svg" xmlns:xlink="http://www.w3.org/1999/xlink" xml:space="preserve" onload="init(evt)">
<style type="text/css"><![CDATA[
.edge:hover path { stroke: red; }
.edge:hover polygon { stroke: red; fill: red; }
]]></style>
<script type="text/javascript"><![CDATA[
var edges = document.getElementsByTagName('g');
if (edges && edges.length) {
  for (var i=0;i<edges.length;i++) {
    if (edges[i].id.substr(0,4)=='edge') {
      edges[i].setAttribute('class','edge');
    }
  }
}
]]></script>
        <defs>
                <circle id="rim" cx="0" cy="0" r="7"/>
                <circle id="rim2" cx="0" cy="0" r="3.5"/>
                <g id="zoomPlus">
                        <use xlink:href="#rim" fill="#404040">
                                <set attributeName="fill" to="#808080" begin="zoomplus.mouseover" end="zoomplus.mouseout"/>
                        </use>
                        <path d="M-4,0h8M0,-4v8" fill="none" stroke="white" stroke-width="1.5" pointer-events="none"/>
                </g>
                <g id="zoomMin">
                        <use xlink:href="#rim" fill="#404040">
                                <set attributeName="fill" to="#808080" begin="zoomminus.mouseover" end="zoomminus.mouseout"/>
                        </use>
                        <path d="M-4,0h8" fill="none" stroke="white" stroke-width="1.5" pointer-events="none"/>
                </g>
                <g id="dirArrow">
                        <path fill="none" stroke="white" stroke-width="1.5" d="M0,-3.0v7 M-2.5,-0.5L0,-3.0L2.5,-0.5"/>
                </g>
               <g id="resetDef">
                       <use xlink:href="#rim2" fill="#404040">
                               <set attributeName="fill" to="#808080" begin="reset.mouseover" end="reset.mouseout"/>
                       </use>
               </g>
        </defs>

<script type="text/javascript">
var viewWidth = 514;
var viewHeight = 562;
var sectionId = 'dynsection-1';
</script>
<script xlink:href="../../svgpan.js"/>
<svg id="graph" class="graph">
<g id="viewport">
<title>MetaMat&lt; T &gt;</title>
<polygon fill="white" stroke="transparent" points="-4,4 -4,-558 510,-558 510,4 -4,4"/>
<!-- Node1 -->
<g id="node1" class="node">
<title>Node1</title>
<g id="a_node1"><a xlink:title="A MetaMat class that holds matrices.">
<polygon fill="#bfbfbf" stroke="black" points="179,-0.5 179,-264.5 344,-264.5 344,-0.5 179,-0.5"/>
<text text-anchor="middle" x="261.5" y="-251.7" font-family="Consolas" font-size="11.00">MetaMat&lt; T &gt;</text>
<polyline fill="none" stroke="black" points="179,-244.5 344,-244.5 "/>
<text text-anchor="middle" x="261.5" y="-231.7" font-family="Consolas" font-size="11.00"> </text>
<polyline fill="none" stroke="black" points="179,-224.5 344,-224.5 "/>
<text text-anchor="start" x="187" y="-211.7" font-family="Consolas" font-size="11.00">+ MetaMat()</text>
<text text-anchor="start" x="187" y="-199.7" font-family="Consolas" font-size="11.00">+ MetaMat()</text>
<text text-anchor="start" x="187" y="-187.7" font-family="Consolas" font-size="11.00">+ MetaMat()</text>
<text text-anchor="start" x="187" y="-175.7" font-family="Consolas" font-size="11.00">+ operator=()</text>
<text text-anchor="start" x="187" y="-163.7" font-family="Consolas" font-size="11.00">+ operator=()</text>
<text text-anchor="start" x="187" y="-151.7" font-family="Consolas" font-size="11.00">+ ~MetaMat()</text>
<text text-anchor="start" x="187" y="-139.7" font-family="Consolas" font-size="11.00">+ set_solver_setting()</text>
<text text-anchor="start" x="187" y="-127.7" font-family="Consolas" font-size="11.00">+ get_solver_setting()</text>
<text text-anchor="start" x="187" y="-115.7" font-family="Consolas" font-size="11.00">+ set_factored()</text>
<text text-anchor="start" x="187" y="-103.7" font-family="Consolas" font-size="11.00">+ is_empty()</text>
<text text-anchor="start" x="187" y="-91.7" font-family="Consolas" font-size="11.00">and 28 more...</text>
<text text-anchor="start" x="187" y="-79.7" font-family="Consolas" font-size="11.00"># direct_solve()</text>
<text text-anchor="start" x="187" y="-67.7" font-family="Consolas" font-size="11.00"># direct_solve()</text>
<text text-anchor="start" x="187" y="-55.7" font-family="Consolas" font-size="11.00"># direct_solve()</text>
<text text-anchor="start" x="187" y="-43.7" font-family="Consolas" font-size="11.00"># direct_solve()</text>
<text text-anchor="start" x="187" y="-31.7" font-family="Consolas" font-size="11.00"># iterative_solve()</text>
<text text-anchor="start" x="187" y="-19.7" font-family="Consolas" font-size="11.00"># iterative_solve()</text>
<text text-anchor="start" x="187" y="-7.7" font-family="Consolas" font-size="11.00"># mixed_trs()</text>
</a>
</g>
</g>
<!-- Node2 -->
<g id="node2" class="node">
<title>Node2</title>
<g id="a_node2"><a xlink:href="../../db/d78/classtriplet__form.html" target="_top" xlink:title=" ">
<polygon fill="white" stroke="black" points="0,-337.5 0,-553.5 179,-553.5 179,-337.5 0,-337.5"/>
<text text-anchor="middle" x="89.5" y="-540.7" font-family="Consolas" font-size="11.00">triplet_form&lt; T, uword &gt;</text>
<polyline fill="none" stroke="black" points="0,-533.5 179,-533.5 "/>
<text text-anchor="start" x="8" y="-520.7" font-family="Consolas" font-size="11.00">+ n_rows</text>
<text text-anchor="start" x="8" y="-508.7" font-family="Consolas" font-size="11.00">+ n_cols</text>
<text text-anchor="start" x="8" y="-496.7" font-family="Consolas" font-size="11.00">+ n_elem</text>
<text text-anchor="start" x="8" y="-484.7" font-family="Consolas" font-size="11.00">+ n_alloc</text>
<polyline fill="none" stroke="black" points="0,-477.5 179,-477.5 "/>
<text text-anchor="start" x="8" y="-464.7" font-family="Consolas" font-size="11.00">+ triplet_form()</text>
<text text-anchor="start" x="8" y="-452.7" font-family="Consolas" font-size="11.00">+ triplet_form()</text>
<text text-anchor="start" x="8" y="-440.7" font-family="Consolas" font-size="11.00">+ triplet_form()</text>
<text text-anchor="start" x="8" y="-428.7" font-family="Consolas" font-size="11.00">+ triplet_form()</text>
<text text-anchor="start" x="8" y="-416.7" font-family="Consolas" font-size="11.00">+ triplet_form()</text>
<text text-anchor="start" x="8" y="-404.7" font-family="Consolas" font-size="11.00">+ triplet_form()</text>
<text text-anchor="start" x="8" y="-392.7" font-family="Consolas" font-size="11.00">+ operator=()</text>
<text text-anchor="start" x="8" y="-380.7" font-family="Consolas" font-size="11.00">+ operator=()</text>
<text text-anchor="start" x="8" y="-368.7" font-family="Consolas" font-size="11.00">+ ~triplet_form()</text>
<text text-anchor="start" x="8" y="-356.7" font-family="Consolas" font-size="11.00">+ row_mem()</text>
<text text-anchor="start" x="8" y="-344.7" font-family="Consolas" font-size="11.00">and 47 more...</text>
</a>
</g>
</g>
<!-- Node2&#45;&gt;Node1 -->
<g id="edge1" class="edge">
<title>Node2&#45;&gt;Node1</title>
<path fill="none" stroke="#404040" d="M106.81,-337.09C112.02,-318.47 118.77,-299.73 127.5,-283 139.05,-260.86 154.64,-239.4 171.09,-219.98"/>
<polygon fill="none" stroke="#404040" points="171.09,-219.97 172.01,-212.82 178.96,-210.91 178.05,-218.06 171.09,-219.97"/>
<text text-anchor="middle" x="171.5" y="-298.2" font-family="Consolas" font-size="11.00"> +triplet_mat</text>
</g>
<!-- Node3 -->
<g id="node3" class="node">
<title>Node3</title>
<g id="a_node3"><a xlink:title=" ">
<polygon fill="white" stroke="#bfbfbf" points="197.5,-415.5 197.5,-475.5 247.5,-475.5 247.5,-415.5 197.5,-415.5"/>
<text text-anchor="middle" x="222.5" y="-462.7" font-family="Consolas" font-size="11.00">uword</text>
<polyline fill="none" stroke="#bfbfbf" points="197.5,-455.5 247.5,-455.5 "/>
<text text-anchor="middle" x="222.5" y="-442.7" font-family="Consolas" font-size="11.00"> </text>
<polyline fill="none" stroke="#bfbfbf" points="197.5,-435.5 247.5,-435.5 "/>
<text text-anchor="middle" x="222.5" y="-422.7" font-family="Consolas" font-size="11.00"> </text>
</a>
</g>
</g>
<!-- Node3&#45;&gt;Node1 -->
<g id="edge2" class="edge">
<title>Node3&#45;&gt;Node1</title>
<path fill="none" stroke="#404040" d="M220.57,-415.48C218.91,-383.04 217.6,-329.03 223.5,-283 223.76,-280.95 224.05,-278.88 224.35,-276.8"/>
<polygon fill="none" stroke="#404040" points="224.37,-276.67 221.35,-270.12 226.24,-264.82 229.25,-271.37 224.37,-276.67"/>
<text text-anchor="middle" x="251" y="-310.2" font-family="Consolas" font-size="11.00"> +n_cols</text>
<text text-anchor="middle" x="251" y="-298.2" font-family="Consolas" font-size="11.00">+n_elem</text>
<text text-anchor="middle" x="251" y="-286.2" font-family="Consolas" font-size="11.00">+n_rows</text>
</g>
<!-- Node4 -->
<g id="node4" class="node">
<title>Node4</title>
<g id="a_node4"><a xlink:title=" ">
<polygon fill="white" stroke="#bfbfbf" points="278.5,-415.5 278.5,-475.5 322.5,-475.5 322.5,-415.5 278.5,-415.5"/>
<text text-anchor="middle" x="300.5" y="-462.7" font-family="Consolas" font-size="11.00">bool</text>
<polyline fill="none" stroke="#bfbfbf" points="278.5,-455.5 322.5,-455.5 "/>
<text text-anchor="middle" x="300.5" y="-442.7" font-family="Consolas" font-size="11.00"> </text>
<polyline fill="none" stroke="#bfbfbf" points="278.5,-435.5 322.5,-435.5 "/>
<text text-anchor="middle" x="300.5" y="-422.7" font-family="Consolas" font-size="11.00"> </text>
</a>
</g>
</g>
<!-- Node4&#45;&gt;Node1 -->
<g id="edge3" class="edge">
<title>Node4&#45;&gt;Node1</title>
<path fill="none" stroke="#404040" d="M296.83,-415.24C292.8,-383.12 286.03,-329.14 279.49,-276.98"/>
<polygon fill="none" stroke="#404040" points="279.46,-276.74 274.75,-271.29 277.97,-264.84 282.69,-270.29 279.46,-276.74"/>
<text text-anchor="middle" x="317.5" y="-298.2" font-family="Consolas" font-size="11.00"> #factored</text>
</g>
<!-- Node5 -->
<g id="node5" class="node">
<title>Node5</title>
<g id="a_node5"><a xlink:href="../../d5/d59/struct_solver_setting.html" target="_top" xlink:title=" ">
<polygon fill="white" stroke="black" points="341,-367.5 341,-523.5 506,-523.5 506,-367.5 341,-367.5"/>
<text text-anchor="middle" x="423.5" y="-510.7" font-family="Consolas" font-size="11.00">SolverSetting&lt; T &gt;</text>
<polyline fill="none" stroke="black" points="341,-503.5 506,-503.5 "/>
<text text-anchor="start" x="349" y="-490.7" font-family="Consolas" font-size="11.00">+ restart</text>
<text text-anchor="start" x="349" y="-478.7" font-family="Consolas" font-size="11.00">+ max_iteration</text>
<text text-anchor="start" x="349" y="-466.7" font-family="Consolas" font-size="11.00">+ tolerance</text>
<text text-anchor="start" x="349" y="-454.7" font-family="Consolas" font-size="11.00">+ iterative_refinement</text>
<text text-anchor="start" x="349" y="-442.7" font-family="Consolas" font-size="11.00">+ precision</text>
<text text-anchor="start" x="349" y="-430.7" font-family="Consolas" font-size="11.00">+ iterative_solver</text>
<text text-anchor="start" x="349" y="-418.7" font-family="Consolas" font-size="11.00">+ preconditioner_type</text>
<text text-anchor="start" x="349" y="-406.7" font-family="Consolas" font-size="11.00">+ preconditioner</text>
<text text-anchor="start" x="349" y="-394.7" font-family="Consolas" font-size="11.00">+ lis_options</text>
<polyline fill="none" stroke="black" points="341,-387.5 506,-387.5 "/>
<text text-anchor="middle" x="423.5" y="-374.7" font-family="Consolas" font-size="11.00"> </text>
</a>
</g>
</g>
<!-- Node5&#45;&gt;Node1 -->
<g id="edge4" class="edge">
<title>Node5&#45;&gt;Node1</title>
<path fill="none" stroke="#404040" d="M394,-367.33C382.86,-340.23 369.48,-309.85 355.5,-283 353.7,-279.53 351.84,-276.04 349.94,-272.53"/>
<polygon fill="none" stroke="#404040" points="349.91,-272.48 343.51,-269.16 344.11,-261.98 350.51,-265.3 349.91,-272.48"/>
<text text-anchor="middle" x="402" y="-298.2" font-family="Consolas" font-size="11.00"> #setting</text>
</g>
</g>
</svg>
        <g id="navigator" transform="translate(0 0)" fill="#404254">
                <rect fill="#f2f5e9" fill-opacity="0.5" stroke="#606060" stroke-width=".5" x="0" y="0" width="60" height="60"/>
                <use id="zoomplus" xlink:href="#zoomPlus" x="17" y="9" onmousedown="handleZoom(evt,'in')"/>
                <use id="zoomminus" xlink:href="#zoomMin" x="42" y="9" onmousedown="handleZoom(evt,'out')"/>
                <use id="reset" xlink:href="#resetDef" x="30" y="36" onmousedown="handleReset()"/>
                <g id="arrowUp" xlink:href="#dirArrow" transform="translate(30 24)" onmousedown="handlePan(0,-1)">
                  <use xlink:href="#rim" fill="#404040">
                        <set attributeName="fill" to="#808080" begin="arrowUp.mouseover" end="arrowUp.mouseout"/>
                  </use>
                  <path fill="none" stroke="white" stroke-width="1.5" d="M0,-3.0v7 M-2.5,-0.5L0,-3.0L2.5,-0.5"/>
                </g>
                <g id="arrowRight" xlink:href="#dirArrow" transform="rotate(90) translate(36 -43)" onmousedown="handlePan(1,0)">
                  <use xlink:href="#rim" fill="#404040">
                        <set attributeName="fill" to="#808080" begin="arrowRight.mouseover" end="arrowRight.mouseout"/>
                  </use>
                  <path fill="none" stroke="white" stroke-width="1.5" d="M0,-3.0v7 M-2.5,-0.5L0,-3.0L2.5,-0.5"/>
                </g>
                <g id="arrowDown" xlink:href="#dirArrow" transform="rotate(180) translate(-30 -48)" onmousedown="handlePan(0,1)">
                  <use xlink:href="#rim" fill="#404040">
                        <set attributeName="fill" to="#808080" begin="arrowDown.mouseover" end="arrowDown.mouseout"/>
                  </use>
                  <path fill="none" stroke="white" stroke-width="1.5" d="M0,-3.0v7 M-2.5,-0.5L0,-3.0L2.5,-0.5"/>
                </g>
                <g id="arrowLeft" xlink:href="#dirArrow" transform="rotate(270) translate(-36 17)" onmousedown="handlePan(-1,0)">
                  <use xlink:href="#rim" fill="#404040">
                        <set attributeName="fill" to="#808080" begin="arrowLeft.mouseover" end="arrowLeft.mouseout"/>
                  </use>
                  <path fill="none" stroke="white" stroke-width="1.5" d="M0,-3.0v7 M-2.5,-0.5L0,-3.0L2.5,-0.5"/>
                </g>
        </g>
        <svg viewBox="0 0 15 15" width="100%" height="30px" preserveAspectRatio="xMaxYMin meet">
         <g id="arrow_out" transform="scale(0.3 0.3)">
          <a xlink:href="class_meta_mat__coll__graph_org.svg" target="_base">
           <rect id="button" ry="5" rx="5" y="6" x="6" height="38" width="38"
                fill="#f2f5e9" fill-opacity="0.5" stroke="#606060" stroke-width="1.0"/>
           <path id="arrow"
             d="M 11.500037,31.436501 C 11.940474,20.09759 22.043105,11.32322 32.158766,21.979434 L 37.068811,17.246167 C 37.068811,17.246167 37.088388,32 37.088388,32 L 22.160133,31.978069 C 22.160133,31.978069 26.997745,27.140456 26.997745,27.140456 C 18.528582,18.264221 13.291696,25.230495 11.500037,31.436501 z"
             style="fill:#404040;"/>
          </a>
         </g>
        </svg>
</svg>
