<?xml version="1.0" encoding="UTF-8" standalone="no"?>
<!DOCTYPE svg PUBLIC "-//W3C//DTD SVG 1.1//EN"
 "http://www.w3.org/Graphics/SVG/1.1/DTD/svg11.dtd">
<!-- Generated by graphviz version 2.43.0 (0)
 -->
<!-- Title: NodalDisplacement Pages: 1 -->
<!--zoomable 1033 -->

<svg id="main" version="1.1" xmlns="http://www.w3.org/2000/svg" xmlns:xlink="http://www.w3.org/1999/xlink" xml:space="preserve" onload="init(evt)">
<style type="text/css"><![CDATA[
.node, .edge {opacity: 0.7;}
.node.selected, .edge.selected {opacity: 1;}
.edge:hover path { stroke: red; }
.edge:hover polygon { stroke: red; fill: red; }
]]></style>

<defs>
  <circle id="rim" cx="0" cy="0" r="7"/>
  <circle id="rim2" cx="0" cy="0" r="3.5"/>
  <g id="zoomPlus">
    <use xlink:href="#rim" fill="#404040"><set attributeName="fill" to="#808080" begin="zoomplus.mouseover" end="zoomplus.mouseout"/></use>
    <path d="M-4,0h8M0,-4v8" fill="none" stroke="white" stroke-width="1.5" pointer-events="none"/>
  </g>
  <g id="zoomMin">
    <use xlink:href="#rim" fill="#404040"><set attributeName="fill" to="#808080" begin="zoomminus.mouseover" end="zoomminus.mouseout"/></use>
    <path d="M-4,0h8" fill="none" stroke="white" stroke-width="1.5" pointer-events="none"/>
  </g>
  <g id="arrowUp" transform="translate(30 24)">
    <use xlink:href="#rim"/>
    <path pointer-events="none" fill="none" stroke="white" stroke-width="1.5" d="M0,-3.0v7 M-2.5,-0.5L0,-3.0L2.5,-0.5"/>
  </g>
  <g id="arrowRight" transform="rotate(90) translate(36 -43)">
    <use xlink:href="#rim"/>
    <path pointer-events="none" fill="none" stroke="white" stroke-width="1.5" d="M0,-3.0v7 M-2.5,-0.5L0,-3.0L2.5,-0.5"/>
  </g>
  <g id="arrowDown" transform="rotate(180) translate(-30 -48)">
    <use xlink:href="#rim"/>
    <path pointer-events="none" fill="none" stroke="white" stroke-width="1.5" d="M0,-3.0v7 M-2.5,-0.5L0,-3.0L2.5,-0.5"/>
  </g>
  <g id="arrowLeft" transform="rotate(270) translate(-36 17)">
    <use xlink:href="#rim"/>
    <path pointer-events="none" fill="none" stroke="white" stroke-width="1.5" d="M0,-3.0v7 M-2.5,-0.5L0,-3.0L2.5,-0.5"/>
  </g>
  <g id="resetDef">
    <use xlink:href="#rim2" fill="#404040"><set attributeName="fill" to="#808080" begin="reset.mouseover" end="reset.mouseout"/></use>
  </g>
</defs>
<script type="application/ecmascript">
var viewWidth = 853;
var viewHeight = 1033;
var sectionId = 'dynsection-1';
</script>
<script type="application/ecmascript" xlink:href="../../svg.min.js"/>
<svg id="graph" class="graph">
<g id="viewport">
<title>NodalDisplacement</title>
<!-- Node1 -->
<g id="Node000001" class="node">
<title>Node1</title>
<g id="a_Node000001"><a xlink:title="A NodalDisplacement class.">
<polygon fill="#999999" stroke="transparent" points="148,-100 0,-100 0,0 148,0 148,-100"/>
<text text-anchor="start" x="16.5" y="-87.2" font-family="Consolas" font-size="11.00">NodalDisplacement</text>
<text text-anchor="start" x="70.5" y="-71.2" font-family="Consolas" font-size="11.00"> </text>
<text text-anchor="start" x="4" y="-55.2" font-family="Consolas" font-size="11.00">+</text>
<text text-anchor="start" x="15" y="-55.2" font-family="Consolas" font-size="11.00">NodalDisplacement()</text>
<text text-anchor="start" x="4" y="-39.2" font-family="Consolas" font-size="11.00">+</text>
<text text-anchor="start" x="15" y="-39.2" font-family="Consolas" font-size="11.00">NodalDisplacement()</text>
<text text-anchor="start" x="4" y="-23.2" font-family="Consolas" font-size="11.00">+</text>
<text text-anchor="start" x="15" y="-23.2" font-family="Consolas" font-size="11.00">initialize()</text>
<text text-anchor="start" x="4" y="-7.2" font-family="Consolas" font-size="11.00">+</text>
<text text-anchor="start" x="15" y="-7.2" font-family="Consolas" font-size="11.00">process()</text>
<polygon fill="#666666" stroke="#666666" points="0,-82 0,-82 148,-82 148,-82 0,-82"/>
<polygon fill="#666666" stroke="#666666" points="0,-66 0,-66 148,-66 148,-66 0,-66"/>
<polygon fill="none" stroke="#666666" points="0,0 0,-100 148,-100 148,0 0,0"/>
</a>
</g>
</g>
<!-- Node2 -->
<g id="Node000002" class="node">
<title>Node2</title>
<g id="a_Node000002"><a xlink:href="../../df/d07/class_load.html" target="_top" xlink:title="A Load class.">
<polygon fill="white" stroke="transparent" points="358,-361 170,-361 170,-137 358,-137 358,-361"/>
<text text-anchor="start" x="250" y="-348.2" font-family="Consolas" font-size="11.00">Load</text>
<text text-anchor="start" x="260.5" y="-332.2" font-family="Consolas" font-size="11.00"> </text>
<text text-anchor="start" x="174" y="-316.2" font-family="Consolas" font-size="11.00">+</text>
<text text-anchor="start" x="185" y="-316.2" font-family="Consolas" font-size="11.00">Load()</text>
<text text-anchor="start" x="174" y="-300.2" font-family="Consolas" font-size="11.00">+</text>
<text text-anchor="start" x="185" y="-300.2" font-family="Consolas" font-size="11.00">Load()</text>
<text text-anchor="start" x="174" y="-284.2" font-family="Consolas" font-size="11.00">+</text>
<text text-anchor="start" x="185" y="-284.2" font-family="Consolas" font-size="11.00">Load()</text>
<text text-anchor="start" x="174" y="-268.2" font-family="Consolas" font-size="11.00">+</text>
<text text-anchor="start" x="185" y="-268.2" font-family="Consolas" font-size="11.00">operator=()</text>
<text text-anchor="start" x="174" y="-252.2" font-family="Consolas" font-size="11.00">+</text>
<text text-anchor="start" x="185" y="-252.2" font-family="Consolas" font-size="11.00">operator=()</text>
<text text-anchor="start" x="174" y="-236.2" font-family="Consolas" font-size="11.00">+</text>
<text text-anchor="start" x="185" y="-236.2" font-family="Consolas" font-size="11.00">~Load()</text>
<text text-anchor="start" x="174" y="-220.2" font-family="Consolas" font-size="11.00">+</text>
<text text-anchor="start" x="185" y="-220.2" font-family="Consolas" font-size="11.00">enable_displacement</text>
<text text-anchor="start" x="185" y="-208.2" font-family="Consolas" font-size="11.00">_control()</text>
<text text-anchor="start" x="174" y="-192.2" font-family="Consolas" font-size="11.00">+</text>
<text text-anchor="start" x="185" y="-192.2" font-family="Consolas" font-size="11.00">if_displacement_control()</text>
<text text-anchor="start" x="174" y="-176.2" font-family="Consolas" font-size="11.00">+</text>
<text text-anchor="start" x="185" y="-176.2" font-family="Consolas" font-size="11.00">get_trial_load()</text>
<text text-anchor="start" x="174" y="-160.2" font-family="Consolas" font-size="11.00">+</text>
<text text-anchor="start" x="185" y="-160.2" font-family="Consolas" font-size="11.00">get_trial_settlement()</text>
<text text-anchor="start" x="174" y="-144.2" font-family="Consolas" font-size="11.00">+</text>
<text text-anchor="start" x="185" y="-144.2" font-family="Consolas" font-size="11.00">get_reference_load()</text>
<polygon fill="#666666" stroke="#666666" points="170,-343 170,-343 358,-343 358,-343 170,-343"/>
<polygon fill="#666666" stroke="#666666" points="170,-327 170,-327 358,-327 358,-327 170,-327"/>
<polygon fill="none" stroke="#666666" points="170,-137 170,-361 358,-361 358,-137 170,-137"/>
</a>
</g>
</g>
<!-- Node2&#45;&gt;Node1 -->
<g id="edge1_Node000001_Node000002" class="edge">
<title>Node2&#45;&gt;Node1</title>
<g id="a_edge1_Node000001_Node000002"><a xlink:title=" ">
<path fill="none" stroke="#63b8ff" d="M162.75,-143.02C148.35,-128.08 134.13,-113.35 121.44,-100.19"/>
<polygon fill="none" stroke="#63b8ff" points="160.37,-145.6 169.83,-150.37 165.41,-140.74 160.37,-145.6"/>
</a>
</g>
</g>
<!-- Node3 -->
<g id="Node000003" class="node">
<title>Node3</title>
<g id="a_Node000003"><a xlink:href="../../da/d44/class_conditional_modifier.html" target="_top" xlink:title="A ConditionalModifier class.">
<polygon fill="white" stroke="transparent" points="661,-677 493,-677 493,-421 661,-421 661,-677"/>
<text text-anchor="start" x="512.5" y="-664.2" font-family="Consolas" font-size="11.00">ConditionalModifier</text>
<text text-anchor="start" x="573.5" y="-648.2" font-family="Consolas" font-size="11.00"> </text>
<text text-anchor="start" x="497" y="-632.2" font-family="Consolas" font-size="11.00">+</text>
<text text-anchor="start" x="508" y="-632.2" font-family="Consolas" font-size="11.00">ConditionalModifier()</text>
<text text-anchor="start" x="497" y="-616.2" font-family="Consolas" font-size="11.00">+</text>
<text text-anchor="start" x="508" y="-616.2" font-family="Consolas" font-size="11.00">initialize()</text>
<text text-anchor="start" x="497" y="-600.2" font-family="Consolas" font-size="11.00">+</text>
<text text-anchor="start" x="508" y="-600.2" font-family="Consolas" font-size="11.00">process()</text>
<text text-anchor="start" x="497" y="-584.2" font-family="Consolas" font-size="11.00">+</text>
<text text-anchor="start" x="508" y="-584.2" font-family="Consolas" font-size="11.00">process_resistance()</text>
<text text-anchor="start" x="497" y="-568.2" font-family="Consolas" font-size="11.00">+</text>
<text text-anchor="start" x="508" y="-568.2" font-family="Consolas" font-size="11.00">stage()</text>
<text text-anchor="start" x="497" y="-552.2" font-family="Consolas" font-size="11.00">+</text>
<text text-anchor="start" x="508" y="-552.2" font-family="Consolas" font-size="11.00">get_node_encoding()</text>
<text text-anchor="start" x="497" y="-536.2" font-family="Consolas" font-size="11.00">+</text>
<text text-anchor="start" x="508" y="-536.2" font-family="Consolas" font-size="11.00">get_dof_encoding()</text>
<text text-anchor="start" x="497" y="-520.2" font-family="Consolas" font-size="11.00">+</text>
<text text-anchor="start" x="508" y="-520.2" font-family="Consolas" font-size="11.00">set_initialized()</text>
<text text-anchor="start" x="497" y="-504.2" font-family="Consolas" font-size="11.00">+</text>
<text text-anchor="start" x="508" y="-504.2" font-family="Consolas" font-size="11.00">is_initialized()</text>
<text text-anchor="start" x="497" y="-488.2" font-family="Consolas" font-size="11.00">+</text>
<text text-anchor="start" x="508" y="-488.2" font-family="Consolas" font-size="11.00">set_start_step()</text>
<text text-anchor="start" x="508" y="-472.2" font-family="Consolas" font-size="11.00">and 10 more...</text>
<text text-anchor="start" x="497" y="-456.2" font-family="Consolas" font-size="11.00">#</text>
<text text-anchor="start" x="508" y="-456.2" font-family="Consolas" font-size="11.00">get_nodal_active_dof()</text>
<text text-anchor="start" x="497" y="-440.2" font-family="Consolas" font-size="11.00">#</text>
<text text-anchor="start" x="508" y="-440.2" font-family="Consolas" font-size="11.00">get_all_nodal_active</text>
<text text-anchor="start" x="508" y="-428.2" font-family="Consolas" font-size="11.00">_dof()</text>
<polygon fill="#666666" stroke="#666666" points="493,-659 493,-659 661,-659 661,-659 493,-659"/>
<polygon fill="#666666" stroke="#666666" points="493,-643 493,-643 661,-643 661,-643 493,-643"/>
<polygon fill="none" stroke="#666666" points="493,-421 493,-677 661,-677 661,-421 493,-421"/>
</a>
</g>
</g>
<!-- Node3&#45;&gt;Node2 -->
<g id="edge2_Node000002_Node000003" class="edge">
<title>Node3&#45;&gt;Node2</title>
<g id="a_edge2_Node000002_Node000003"><a xlink:title=" ">
<path fill="none" stroke="#63b8ff" d="M556.37,-411.3C551.23,-399.69 544.86,-388.71 537,-379 492.12,-323.6 417.88,-290.66 358.14,-271.95"/>
<polygon fill="none" stroke="#63b8ff" points="553.21,-412.8 560.25,-420.72 559.68,-410.14 553.21,-412.8"/>
</a>
</g>
</g>
<!-- Node4 -->
<g id="Node000004" class="node">
<title>Node4</title>
<g id="a_Node000004"><a xlink:href="../../d0/d57/class_tag.html" target="_top" xlink:title="A base Tag class.">
<polygon fill="white" stroke="transparent" points="844.5,-1025 743.5,-1025 743.5,-749 844.5,-749 844.5,-1025"/>
<text text-anchor="start" x="784" y="-1012.2" font-family="Consolas" font-size="11.00">Tag</text>
<text text-anchor="start" x="791" y="-996.2" font-family="Consolas" font-size="11.00"> </text>
<text text-anchor="start" x="748" y="-980.2" font-family="Consolas" font-size="11.00">+</text>
<text text-anchor="start" x="759" y="-980.2" font-family="Consolas" font-size="11.00">Tag()</text>
<text text-anchor="start" x="748" y="-964.2" font-family="Consolas" font-size="11.00">+</text>
<text text-anchor="start" x="759" y="-964.2" font-family="Consolas" font-size="11.00">Tag()</text>
<text text-anchor="start" x="748" y="-948.2" font-family="Consolas" font-size="11.00">+</text>
<text text-anchor="start" x="759" y="-948.2" font-family="Consolas" font-size="11.00">Tag()</text>
<text text-anchor="start" x="748" y="-932.2" font-family="Consolas" font-size="11.00">+</text>
<text text-anchor="start" x="759" y="-932.2" font-family="Consolas" font-size="11.00">operator=()</text>
<text text-anchor="start" x="748" y="-916.2" font-family="Consolas" font-size="11.00">+</text>
<text text-anchor="start" x="759" y="-916.2" font-family="Consolas" font-size="11.00">operator=()</text>
<text text-anchor="start" x="748" y="-900.2" font-family="Consolas" font-size="11.00">+</text>
<text text-anchor="start" x="759" y="-900.2" font-family="Consolas" font-size="11.00">~Tag()</text>
<text text-anchor="start" x="748" y="-884.2" font-family="Consolas" font-size="11.00">+</text>
<text text-anchor="start" x="759" y="-884.2" font-family="Consolas" font-size="11.00">set_tag()</text>
<text text-anchor="start" x="748" y="-868.2" font-family="Consolas" font-size="11.00">+</text>
<text text-anchor="start" x="759" y="-868.2" font-family="Consolas" font-size="11.00">get_tag()</text>
<text text-anchor="start" x="748" y="-852.2" font-family="Consolas" font-size="11.00">+</text>
<text text-anchor="start" x="759" y="-852.2" font-family="Consolas" font-size="11.00">enable()</text>
<text text-anchor="start" x="748" y="-836.2" font-family="Consolas" font-size="11.00">+</text>
<text text-anchor="start" x="759" y="-836.2" font-family="Consolas" font-size="11.00">disable()</text>
<text text-anchor="start" x="748" y="-820.2" font-family="Consolas" font-size="11.00">+</text>
<text text-anchor="start" x="759" y="-820.2" font-family="Consolas" font-size="11.00">guard()</text>
<text text-anchor="start" x="748" y="-804.2" font-family="Consolas" font-size="11.00">+</text>
<text text-anchor="start" x="759" y="-804.2" font-family="Consolas" font-size="11.00">unguard()</text>
<text text-anchor="start" x="748" y="-788.2" font-family="Consolas" font-size="11.00">+</text>
<text text-anchor="start" x="759" y="-788.2" font-family="Consolas" font-size="11.00">is_active()</text>
<text text-anchor="start" x="748" y="-772.2" font-family="Consolas" font-size="11.00">+</text>
<text text-anchor="start" x="759" y="-772.2" font-family="Consolas" font-size="11.00">is_guarded()</text>
<text text-anchor="start" x="748" y="-756.2" font-family="Consolas" font-size="11.00">+</text>
<text text-anchor="start" x="759" y="-756.2" font-family="Consolas" font-size="11.00">print()</text>
<polygon fill="#666666" stroke="#666666" points="744,-1007 744,-1007 845,-1007 845,-1007 744,-1007"/>
<polygon fill="#666666" stroke="#666666" points="744,-991 744,-991 845,-991 845,-991 744,-991"/>
<polygon fill="none" stroke="#666666" points="743.5,-749 743.5,-1025 844.5,-1025 844.5,-749 743.5,-749"/>
</a>
</g>
</g>
<!-- Node4&#45;&gt;Node3 -->
<g id="edge3_Node000003_Node000004" class="edge">
<title>Node4&#45;&gt;Node3</title>
<g id="a_edge3_Node000003_Node000004"><a xlink:title=" ">
<path fill="none" stroke="#63b8ff" d="M738.85,-758.62C737.24,-755.37 735.62,-752.16 734,-749 721.27,-724.18 718.28,-717.65 702,-695 689.49,-677.59 675.35,-659.75 661.19,-642.8"/>
<polygon fill="none" stroke="#63b8ff" points="735.83,-760.42 743.37,-767.86 742.12,-757.34 735.83,-760.42"/>
</a>
</g>
</g>
<!-- Node5 -->
<g id="Node000005" class="node">
<title>Node5</title>
<g id="a_Node000005"><a xlink:title=" ">
<polygon fill="white" stroke="transparent" points="446,-913 368,-913 368,-861 446,-861 446,-913"/>
<text text-anchor="start" x="373" y="-900.2" font-family="Consolas" font-size="11.00">const bool</text>
<text text-anchor="start" x="403.5" y="-884.2" font-family="Consolas" font-size="11.00"> </text>
<text text-anchor="start" x="403.5" y="-868.2" font-family="Consolas" font-size="11.00"> </text>
<polygon fill="#666666" stroke="#666666" points="368,-895 368,-895 446,-895 446,-895 368,-895"/>
<polygon fill="#666666" stroke="#666666" points="368,-879 368,-879 446,-879 446,-879 368,-879"/>
<polygon fill="none" stroke="#666666" points="368,-861 368,-913 446,-913 446,-861 368,-861"/>
</a>
</g>
</g>
<!-- Node5&#45;&gt;Node3 -->
<g id="edge4_Node000003_Node000005" class="edge">
<title>Node5&#45;&gt;Node3</title>
<g id="a_edge4_Node000003_Node000005"><a xlink:title=" ">
<path fill="none" stroke="#63b8ff" d="M400.4,-860.74C391.59,-820.75 381.24,-742.52 420,-695 436.8,-674.4 455.56,-689.63 482.26,-677.31"/>
<polygon fill="none" stroke="#63b8ff" points="482.53,-677.15 485.7,-670.68 492.9,-671.11 489.73,-677.59 482.53,-677.15"/>
</a>
</g>
<text text-anchor="middle" x="461" y="-716.2" font-family="Consolas" font-size="11.00" fill="grey"> #connected</text>
<text text-anchor="middle" x="461" y="-704.2" font-family="Consolas" font-size="11.00" fill="grey">#initialized</text>
</g>
<!-- Node6 -->
<g id="Node000006" class="node">
<title>Node6</title>
<g id="a_Node000006"><a xlink:title=" ">
<polygon fill="white" stroke="transparent" points="540.5,-913 475.5,-913 475.5,-861 540.5,-861 540.5,-913"/>
<text text-anchor="start" x="481" y="-900.2" font-family="Consolas" font-size="11.00">unsigned</text>
<text text-anchor="start" x="505" y="-884.2" font-family="Consolas" font-size="11.00"> </text>
<text text-anchor="start" x="505" y="-868.2" font-family="Consolas" font-size="11.00"> </text>
<polygon fill="#666666" stroke="#666666" points="476,-895 476,-895 541,-895 541,-895 476,-895"/>
<polygon fill="#666666" stroke="#666666" points="476,-879 476,-879 541,-879 541,-879 476,-879"/>
<polygon fill="none" stroke="#666666" points="475.5,-861 475.5,-913 540.5,-913 540.5,-861 475.5,-861"/>
</a>
</g>
</g>
<!-- Node6&#45;&gt;Node3 -->
<g id="edge5_Node000003_Node000006" class="edge">
<title>Node6&#45;&gt;Node3</title>
<g id="a_edge5_Node000003_Node000006"><a xlink:title=" ">
<path fill="none" stroke="#63b8ff" d="M505.39,-860.89C502.25,-824.01 498.9,-753.25 512,-695 512.46,-692.96 512.95,-690.92 513.46,-688.88"/>
<polygon fill="none" stroke="#63b8ff" points="513.51,-688.7 511.25,-681.85 516.69,-677.13 518.96,-683.98 513.51,-688.7"/>
</a>
</g>
<text text-anchor="middle" x="563" y="-722.2" font-family="Consolas" font-size="11.00" fill="grey"> #amplitude_tag</text>
<text text-anchor="middle" x="563" y="-710.2" font-family="Consolas" font-size="11.00" fill="grey">#end_step</text>
<text text-anchor="middle" x="563" y="-698.2" font-family="Consolas" font-size="11.00" fill="grey">#start_step</text>
</g>
<!-- Node7 -->
<g id="Node000007" class="node">
<title>Node7</title>
<g id="a_Node000007"><a xlink:title=" ">
<polygon fill="white" stroke="transparent" points="132,-913 94,-913 94,-861 132,-861 132,-913"/>
<text text-anchor="start" x="99" y="-900.2" font-family="Consolas" font-size="11.00">uvec</text>
<text text-anchor="start" x="109.5" y="-884.2" font-family="Consolas" font-size="11.00"> </text>
<text text-anchor="start" x="109.5" y="-868.2" font-family="Consolas" font-size="11.00"> </text>
<polygon fill="#666666" stroke="#666666" points="94,-895 94,-895 132,-895 132,-895 94,-895"/>
<polygon fill="#666666" stroke="#666666" points="94,-879 94,-879 132,-879 132,-879 94,-879"/>
<polygon fill="none" stroke="#666666" points="94,-861 94,-913 132,-913 132,-861 94,-861"/>
</a>
</g>
</g>
<!-- Node7&#45;&gt;Node1 -->
<g id="edge12_Node000001_Node000007" class="edge">
<title>Node7&#45;&gt;Node1</title>
<g id="a_edge12_Node000001_Node000007"><a xlink:title=" ">
<path fill="none" stroke="#63b8ff" d="M107.74,-860.69C99.74,-821.48 84.45,-743.64 75,-677 56.33,-545.29 41.54,-511.92 47,-379 50.83,-285.81 60.75,-178.11 67.44,-112.29"/>
<polygon fill="none" stroke="#63b8ff" points="67.47,-112.04 64.1,-105.66 68.69,-100.1 72.06,-106.48 67.47,-112.04"/>
</a>
</g>
<text text-anchor="middle" x="81" y="-388.2" font-family="Consolas" font-size="11.00" fill="grey"> #encoding</text>
</g>
<!-- Node7&#45;&gt;Node3 -->
<g id="edge6_Node000003_Node000007" class="edge">
<title>Node7&#45;&gt;Node3</title>
<g id="a_edge6_Node000003_Node000007"><a xlink:title=" ">
<path fill="none" stroke="#63b8ff" d="M129.04,-860.71C157.67,-818.03 222.06,-732.69 301,-695 371.68,-661.26 410.03,-712.62 482.09,-677.78"/>
<polygon fill="none" stroke="#63b8ff" points="482.38,-677.62 485.8,-671.28 492.97,-671.99 489.55,-678.34 482.38,-677.62"/>
</a>
</g>
<text text-anchor="middle" x="348.5" y="-722.2" font-family="Consolas" font-size="11.00" fill="grey"> #dof_encoding</text>
<text text-anchor="middle" x="348.5" y="-710.2" font-family="Consolas" font-size="11.00" fill="grey">#dof_reference</text>
<text text-anchor="middle" x="348.5" y="-698.2" font-family="Consolas" font-size="11.00" fill="grey">#node_encoding</text>
</g>
<!-- Node8 -->
<g id="Node000008" class="node">
<title>Node8</title>
<g id="a_Node000008"><a xlink:title=" ">
<polygon fill="white" stroke="transparent" points="725,-913 559,-913 559,-861 725,-861 725,-913"/>
<text text-anchor="start" x="564" y="-900.2" font-family="Consolas" font-size="11.00">shared_ptr&lt; Amplitude &gt;</text>
<text text-anchor="start" x="638.5" y="-884.2" font-family="Consolas" font-size="11.00"> </text>
<text text-anchor="start" x="638.5" y="-868.2" font-family="Consolas" font-size="11.00"> </text>
<polygon fill="#666666" stroke="#666666" points="559,-895 559,-895 725,-895 725,-895 559,-895"/>
<polygon fill="#666666" stroke="#666666" points="559,-879 559,-879 725,-879 725,-879 559,-879"/>
<polygon fill="none" stroke="#666666" points="559,-861 559,-913 725,-913 725,-861 559,-861"/>
</a>
</g>
</g>
<!-- Node8&#45;&gt;Node3 -->
<g id="edge7_Node000003_Node000008" class="edge">
<title>Node8&#45;&gt;Node3</title>
<g id="a_edge7_Node000003_Node000008"><a xlink:title=" ">
<path fill="none" stroke="#63b8ff" d="M640.05,-860.78C636.93,-824.04 629.93,-753.79 618,-695 617.59,-692.97 617.16,-690.93 616.73,-688.88"/>
<polygon fill="none" stroke="#63b8ff" points="616.7,-688.76 611.49,-683.77 614.09,-677.04 619.3,-682.03 616.7,-688.76"/>
</a>
</g>
<text text-anchor="middle" x="660.5" y="-710.2" font-family="Consolas" font-size="11.00" fill="grey"> #magnitude</text>
</g>
<!-- Node9 -->
<g id="Node000009" class="node">
<title>Node9</title>
<g id="a_Node000009"><a xlink:title=" ">
<polygon fill="white" stroke="transparent" points="135.5,-575 84.5,-575 84.5,-523 135.5,-523 135.5,-575"/>
<text text-anchor="start" x="90" y="-562.2" font-family="Consolas" font-size="11.00">double</text>
<text text-anchor="start" x="107" y="-546.2" font-family="Consolas" font-size="11.00"> </text>
<text text-anchor="start" x="107" y="-530.2" font-family="Consolas" font-size="11.00"> </text>
<polygon fill="#666666" stroke="#666666" points="85,-557 85,-557 136,-557 136,-557 85,-557"/>
<polygon fill="#666666" stroke="#666666" points="85,-541 85,-541 136,-541 136,-541 85,-541"/>
<polygon fill="none" stroke="#666666" points="84.5,-523 84.5,-575 135.5,-575 135.5,-523 84.5,-523"/>
</a>
</g>
</g>
<!-- Node9&#45;&gt;Node2 -->
<g id="edge8_Node000002_Node000009" class="edge">
<title>Node9&#45;&gt;Node2</title>
<g id="a_edge8_Node000002_Node000009"><a xlink:title=" ">
<path fill="none" stroke="#63b8ff" d="M107.24,-522.74C104.63,-488.33 103.99,-425.69 127,-379 135.67,-361.41 147.81,-344.97 161.31,-330.11"/>
<polygon fill="none" stroke="#63b8ff" points="161.62,-329.78 162.85,-322.68 169.88,-321.07 168.66,-328.18 161.62,-329.78"/>
</a>
</g>
<text text-anchor="middle" x="168" y="-394.2" font-family="Consolas" font-size="11.00" fill="grey"> #multiplier</text>
<text text-anchor="middle" x="168" y="-382.2" font-family="Consolas" font-size="11.00" fill="grey">#pattern</text>
</g>
<!-- Node10 -->
<g id="Node000010" class="node">
<title>Node10</title>
<g id="a_Node000010"><a xlink:title=" ">
<polygon fill="white" stroke="transparent" points="234,-575 196,-575 196,-523 234,-523 234,-575"/>
<text text-anchor="start" x="201" y="-562.2" font-family="Consolas" font-size="11.00">bool</text>
<text text-anchor="start" x="211.5" y="-546.2" font-family="Consolas" font-size="11.00"> </text>
<text text-anchor="start" x="211.5" y="-530.2" font-family="Consolas" font-size="11.00"> </text>
<polygon fill="#666666" stroke="#666666" points="196,-557 196,-557 234,-557 234,-557 196,-557"/>
<polygon fill="#666666" stroke="#666666" points="196,-541 196,-541 234,-541 234,-541 196,-541"/>
<polygon fill="none" stroke="#666666" points="196,-523 196,-575 234,-575 234,-523 196,-523"/>
</a>
</g>
</g>
<!-- Node10&#45;&gt;Node2 -->
<g id="edge9_Node000002_Node000010" class="edge">
<title>Node10&#45;&gt;Node2</title>
<g id="a_edge9_Node000002_Node000010"><a xlink:title=" ">
<path fill="none" stroke="#63b8ff" d="M212.44,-522.83C209.66,-489.59 206.78,-429.36 216,-379 216.37,-376.98 216.77,-374.95 217.19,-372.91"/>
<polygon fill="none" stroke="#63b8ff" points="217.2,-372.89 214.66,-366.14 219.91,-361.2 222.45,-367.94 217.2,-372.89"/>
</a>
</g>
<text text-anchor="middle" x="253.5" y="-388.2" font-family="Consolas" font-size="11.00" fill="grey"> #mpdc_flag</text>
</g>
<!-- Node11 -->
<g id="Node000011" class="node">
<title>Node11</title>
<g id="a_Node000011"><a xlink:title=" ">
<polygon fill="white" stroke="transparent" points="328.5,-575 297.5,-575 297.5,-523 328.5,-523 328.5,-575"/>
<text text-anchor="start" x="303" y="-562.2" font-family="Consolas" font-size="11.00">vec</text>
<text text-anchor="start" x="310" y="-546.2" font-family="Consolas" font-size="11.00"> </text>
<text text-anchor="start" x="310" y="-530.2" font-family="Consolas" font-size="11.00"> </text>
<polygon fill="#666666" stroke="#666666" points="298,-557 298,-557 329,-557 329,-557 298,-557"/>
<polygon fill="#666666" stroke="#666666" points="298,-541 298,-541 329,-541 329,-541 298,-541"/>
<polygon fill="none" stroke="#666666" points="297.5,-523 297.5,-575 328.5,-575 328.5,-523 297.5,-523"/>
</a>
</g>
</g>
<!-- Node11&#45;&gt;Node2 -->
<g id="edge10_Node000002_Node000011" class="edge">
<title>Node11&#45;&gt;Node2</title>
<g id="a_edge10_Node000002_Node000011"><a xlink:title=" ">
<path fill="none" stroke="#63b8ff" d="M310.35,-523C306.72,-489.94 299.63,-429.9 291,-379 290.66,-376.98 290.31,-374.95 289.95,-372.91"/>
<polygon fill="none" stroke="#63b8ff" points="289.94,-372.88 284.94,-367.69 287.81,-361.07 292.82,-366.27 289.94,-372.88"/>
</a>
</g>
<text text-anchor="middle" x="352.5" y="-394.2" font-family="Consolas" font-size="11.00" fill="grey"> #trial_load</text>
<text text-anchor="middle" x="352.5" y="-382.2" font-family="Consolas" font-size="11.00" fill="grey">#trial_settlement</text>
</g>
<!-- Node12 -->
<g id="Node000012" class="node">
<title>Node12</title>
<g id="a_Node000012"><a xlink:title=" ">
<polygon fill="white" stroke="transparent" points="475.5,-575 424.5,-575 424.5,-523 475.5,-523 475.5,-575"/>
<text text-anchor="start" x="430" y="-562.2" font-family="Consolas" font-size="11.00">sp_vec</text>
<text text-anchor="start" x="447" y="-546.2" font-family="Consolas" font-size="11.00"> </text>
<text text-anchor="start" x="447" y="-530.2" font-family="Consolas" font-size="11.00"> </text>
<polygon fill="#666666" stroke="#666666" points="425,-557 425,-557 476,-557 476,-557 425,-557"/>
<polygon fill="#666666" stroke="#666666" points="425,-541 425,-541 476,-541 476,-541 425,-541"/>
<polygon fill="none" stroke="#666666" points="424.5,-523 424.5,-575 475.5,-575 475.5,-523 424.5,-523"/>
</a>
</g>
</g>
<!-- Node12&#45;&gt;Node2 -->
<g id="edge11_Node000002_Node000012" class="edge">
<title>Node12&#45;&gt;Node2</title>
<g id="a_edge11_Node000002_Node000012"><a xlink:title=" ">
<path fill="none" stroke="#63b8ff" d="M449.58,-522.99C447.96,-488.34 441.16,-424.8 414,-379 401.84,-358.5 385.25,-339.63 367.53,-323.02"/>
<polygon fill="none" stroke="#63b8ff" points="367.06,-322.6 359.93,-321.53 358.17,-314.54 365.3,-315.6 367.06,-322.6"/>
</a>
</g>
<text text-anchor="middle" x="478.5" y="-388.2" font-family="Consolas" font-size="11.00" fill="grey"> #reference_load</text>
</g>
</g>
</svg>

<g id="navigator" transform="translate(0 0)" fill="#404254">
  <rect fill="#f2f5e9" fill-opacity="0.5" stroke="#606060" stroke-width=".5" x="0" y="0" width="60" height="60"/>
  <use id="zoomplus" xlink:href="#zoomPlus" x="17" y="9" onmousedown="handleZoom(evt,'in')"/>
  <use id="zoomminus" xlink:href="#zoomMin" x="42" y="9" onmousedown="handleZoom(evt,'out')"/>
  <use id="reset" xlink:href="#resetDef" x="30" y="36" onmousedown="handleReset()"/>
   <use id="arrowup" xlink:href="#arrowUp" x="0" y="0" onmousedown="handlePan(0,-1)"/>
  <use id="arrowright" xlink:href="#arrowRight" x="0" y="0" onmousedown="handlePan(1,0)"/>
  <use id="arrowdown" xlink:href="#arrowDown" x="0" y="0" onmousedown="handlePan(0,1)"/>
  <use id="arrowleft" xlink:href="#arrowLeft" x="0" y="0" onmousedown="handlePan(-1,0)"/>
</g>
<svg viewBox="0 0 15 15" width="100%" height="30px" preserveAspectRatio="xMaxYMin meet">
 <g id="arrow_out" transform="scale(0.3 0.3)">
  <a xlink:href="class_nodal_displacement__coll__graph_org.svg" target="_base">
   <rect id="button" ry="5" rx="5" y="6" x="6" height="38" width="38"
        fill="#f2f5e9" fill-opacity="0.5" stroke="#606060" stroke-width="1.0"/>
   <path id="arrow"
     d="M 11.500037,31.436501 C 11.940474,20.09759 22.043105,11.32322 32.158766,21.979434 L 37.068811,17.246167 C 37.068811,17.246167 37.088388,32 37.088388,32 L 22.160133,31.978069 C 22.160133,31.978069 26.997745,27.140456 26.997745,27.140456 C 18.528582,18.264221 13.291696,25.230495 11.500037,31.436501 z"
     style="fill:#404040;"/>
  </a>
 </g>
</svg>

<style type='text/css'>
<![CDATA[
[data-mouse-over-selected='false'] { opacity: 0.7; }
[data-mouse-over-selected='true']  { opacity: 1.0; }
]]>
</style>
<script type="application/ecmascript"><![CDATA[
document.addEventListener('DOMContentLoaded', (event) => {
  highlightEdges();
  highlightAdjacentNodes();
});
]]></script>
</svg>
