<?xml version="1.0" encoding="UTF-8" standalone="no"?>
<!DOCTYPE svg PUBLIC "-//W3C//DTD SVG 1.1//EN"
 "http://www.w3.org/Graphics/SVG/1.1/DTD/svg11.dtd">
<!-- Generated by graphviz version 2.43.0 (0)
 -->
<!-- Title: DafaliasManzari Pages: 1 -->
<svg width="502pt" height="1244pt"
 viewBox="0.00 0.00 501.50 1244.00" xmlns="http://www.w3.org/2000/svg" xmlns:xlink="http://www.w3.org/1999/xlink">
<g id="graph0" class="graph" transform="scale(1 1) rotate(0) translate(4 1240)">
<title>DafaliasManzari</title>
<!-- Node1 -->
<g id="Node000001" class="node">
<title>Node1</title>
<g id="a_Node000001"><a xlink:title="The DafaliasManzari class.">
<polygon fill="#999999" stroke="transparent" points="282,-180 121,-180 121,0 282,0 282,-180"/>
<text text-anchor="start" x="151" y="-167.2" font-family="Consolas" font-size="11.00">DafaliasManzari</text>
<text text-anchor="start" x="198.5" y="-151.2" font-family="Consolas" font-size="11.00"> </text>
<text text-anchor="start" x="125.5" y="-135.2" font-family="Consolas" font-size="11.00">+</text>
<text text-anchor="start" x="136.5" y="-135.2" font-family="Consolas" font-size="11.00">DafaliasManzari()</text>
<text text-anchor="start" x="125.5" y="-119.2" font-family="Consolas" font-size="11.00">+</text>
<text text-anchor="start" x="136.5" y="-119.2" font-family="Consolas" font-size="11.00">initialize()</text>
<text text-anchor="start" x="125.5" y="-103.2" font-family="Consolas" font-size="11.00">+</text>
<text text-anchor="start" x="136.5" y="-103.2" font-family="Consolas" font-size="11.00">get_copy()</text>
<text text-anchor="start" x="125.5" y="-87.2" font-family="Consolas" font-size="11.00">+</text>
<text text-anchor="start" x="136.5" y="-87.2" font-family="Consolas" font-size="11.00">get_parameter()</text>
<text text-anchor="start" x="125.5" y="-71.2" font-family="Consolas" font-size="11.00">+</text>
<text text-anchor="start" x="136.5" y="-71.2" font-family="Consolas" font-size="11.00">update_trial_status()</text>
<text text-anchor="start" x="125.5" y="-55.2" font-family="Consolas" font-size="11.00">+</text>
<text text-anchor="start" x="136.5" y="-55.2" font-family="Consolas" font-size="11.00">clear_status()</text>
<text text-anchor="start" x="125.5" y="-39.2" font-family="Consolas" font-size="11.00">+</text>
<text text-anchor="start" x="136.5" y="-39.2" font-family="Consolas" font-size="11.00">commit_status()</text>
<text text-anchor="start" x="125.5" y="-23.2" font-family="Consolas" font-size="11.00">+</text>
<text text-anchor="start" x="136.5" y="-23.2" font-family="Consolas" font-size="11.00">reset_status()</text>
<text text-anchor="start" x="125.5" y="-7.2" font-family="Consolas" font-size="11.00">+</text>
<text text-anchor="start" x="136.5" y="-7.2" font-family="Consolas" font-size="11.00">print()</text>
<polygon fill="#666666" stroke="#666666" points="121.5,-162 121.5,-162 282.5,-162 282.5,-162 121.5,-162"/>
<polygon fill="#666666" stroke="#666666" points="121.5,-146 121.5,-146 282.5,-146 282.5,-146 121.5,-146"/>
<polygon fill="none" stroke="#666666" points="121,0 121,-180 282,-180 282,0 121,0"/>
</a>
</g>
</g>
<!-- Node2 -->
<g id="Node000002" class="node">
<title>Node2</title>
<g id="a_Node000002"><a xlink:href="../../de/d38/struct_data_dafalias_manzari.html" target="_top" xlink:title=" ">
<polygon fill="white" stroke="transparent" points="202,-428 63,-428 63,-216 202,-216 202,-428"/>
<text text-anchor="start" x="68.5" y="-415.2" font-family="Consolas" font-size="11.00">DataDafaliasManzari</text>
<text text-anchor="start" x="73.5" y="-399.2" font-family="Consolas" font-size="11.00">+</text>
<text text-anchor="start" x="90.5" y="-399.2" font-family="Consolas" font-size="11.00">shear_modulus</text>
<text text-anchor="start" x="73.5" y="-383.2" font-family="Consolas" font-size="11.00">+</text>
<text text-anchor="start" x="90.5" y="-383.2" font-family="Consolas" font-size="11.00">poissons_ratio</text>
<text text-anchor="start" x="73.5" y="-367.2" font-family="Consolas" font-size="11.00">+</text>
<text text-anchor="start" x="90.5" y="-367.2" font-family="Consolas" font-size="11.00">ac</text>
<text text-anchor="start" x="73.5" y="-351.2" font-family="Consolas" font-size="11.00">+</text>
<text text-anchor="start" x="90.5" y="-351.2" font-family="Consolas" font-size="11.00">lc</text>
<text text-anchor="start" x="73.5" y="-335.2" font-family="Consolas" font-size="11.00">+</text>
<text text-anchor="start" x="90.5" y="-335.2" font-family="Consolas" font-size="11.00">e0</text>
<text text-anchor="start" x="73.5" y="-319.2" font-family="Consolas" font-size="11.00">+</text>
<text text-anchor="start" x="90.5" y="-319.2" font-family="Consolas" font-size="11.00">xi</text>
<text text-anchor="start" x="73.5" y="-303.2" font-family="Consolas" font-size="11.00">+</text>
<text text-anchor="start" x="90.5" y="-303.2" font-family="Consolas" font-size="11.00">m</text>
<text text-anchor="start" x="73.5" y="-287.2" font-family="Consolas" font-size="11.00">+</text>
<text text-anchor="start" x="90.5" y="-287.2" font-family="Consolas" font-size="11.00">h0</text>
<text text-anchor="start" x="73.5" y="-271.2" font-family="Consolas" font-size="11.00">+</text>
<text text-anchor="start" x="90.5" y="-271.2" font-family="Consolas" font-size="11.00">h1</text>
<text text-anchor="start" x="73.5" y="-255.2" font-family="Consolas" font-size="11.00">+</text>
<text text-anchor="start" x="90.5" y="-255.2" font-family="Consolas" font-size="11.00">ch</text>
<text text-anchor="start" x="90.5" y="-239.2" font-family="Consolas" font-size="11.00">and 7 more...</text>
<text text-anchor="start" x="129.5" y="-223.2" font-family="Consolas" font-size="11.00"> </text>
<polygon fill="#666666" stroke="#666666" points="63.5,-410 63.5,-410 202.5,-410 202.5,-410 63.5,-410"/>
<polygon fill="#666666" stroke="#666666" points="63.5,-234 63.5,-234 88.5,-234 88.5,-234 63.5,-234"/>
<polygon fill="#666666" stroke="#666666" points="88.5,-234 88.5,-234 202.5,-234 202.5,-234 88.5,-234"/>
<polygon fill="none" stroke="#666666" points="63,-216 63,-428 202,-428 202,-216 63,-216"/>
</a>
</g>
</g>
<!-- Node2&#45;&gt;Node1 -->
<g id="edge1_Node000001_Node000002" class="edge">
<title>Node2&#45;&gt;Node1</title>
<g id="a_edge1_Node000001_Node000002"><a xlink:title=" ">
<path fill="none" stroke="darkgreen" d="M167.02,-205.94C169.63,-197.23 172.24,-188.52 174.8,-180.02"/>
<polygon fill="none" stroke="darkgreen" points="163.59,-205.18 164.07,-215.76 170.3,-207.19 163.59,-205.18"/>
</a>
</g>
</g>
<!-- Node3 -->
<g id="Node000003" class="node">
<title>Node3</title>
<g id="a_Node000003"><a xlink:href="../../d7/d42/class_material3_d.html" target="_top" xlink:title="The Material3D class.">
<polygon fill="white" stroke="transparent" points="321,-356 220,-356 220,-288 321,-288 321,-356"/>
<text text-anchor="start" x="237" y="-343.2" font-family="Consolas" font-size="11.00">Material3D</text>
<text text-anchor="start" x="267.5" y="-327.2" font-family="Consolas" font-size="11.00"> </text>
<text text-anchor="start" x="224.5" y="-311.2" font-family="Consolas" font-size="11.00">+</text>
<text text-anchor="start" x="235.5" y="-311.2" font-family="Consolas" font-size="11.00">Material3D()</text>
<text text-anchor="start" x="224.5" y="-295.2" font-family="Consolas" font-size="11.00">+</text>
<text text-anchor="start" x="235.5" y="-295.2" font-family="Consolas" font-size="11.00">record()</text>
<polygon fill="#666666" stroke="#666666" points="220.5,-338 220.5,-338 321.5,-338 321.5,-338 220.5,-338"/>
<polygon fill="#666666" stroke="#666666" points="220.5,-322 220.5,-322 321.5,-322 321.5,-322 220.5,-322"/>
<polygon fill="none" stroke="#666666" points="220,-288 220,-356 321,-356 321,-288 220,-288"/>
</a>
</g>
</g>
<!-- Node3&#45;&gt;Node1 -->
<g id="edge2_Node000001_Node000003" class="edge">
<title>Node3&#45;&gt;Node1</title>
<g id="a_edge2_Node000001_Node000003"><a xlink:title=" ">
<path fill="none" stroke="#63b8ff" d="M257.56,-277.86C249.3,-250.35 238.3,-213.68 228.24,-180.12"/>
<polygon fill="none" stroke="#63b8ff" points="254.24,-278.98 260.47,-287.56 260.95,-276.97 254.24,-278.98"/>
</a>
</g>
</g>
<!-- Node4 -->
<g id="Node000004" class="node">
<title>Node4</title>
<g id="a_Node000004"><a xlink:href="../../dc/dee/class_material.html" target="_top" xlink:title="A Material abstract base class.">
<polygon fill="white" stroke="transparent" points="351,-676 190,-676 190,-464 351,-464 351,-676"/>
<text text-anchor="start" x="243.5" y="-663.2" font-family="Consolas" font-size="11.00">Material</text>
<text text-anchor="start" x="267.5" y="-647.2" font-family="Consolas" font-size="11.00"> </text>
<text text-anchor="start" x="194.5" y="-631.2" font-family="Consolas" font-size="11.00">+</text>
<text text-anchor="start" x="205.5" y="-631.2" font-family="Consolas" font-size="11.00">Material()</text>
<text text-anchor="start" x="194.5" y="-615.2" font-family="Consolas" font-size="11.00">+</text>
<text text-anchor="start" x="205.5" y="-615.2" font-family="Consolas" font-size="11.00">get_density()</text>
<text text-anchor="start" x="194.5" y="-599.2" font-family="Consolas" font-size="11.00">+</text>
<text text-anchor="start" x="205.5" y="-599.2" font-family="Consolas" font-size="11.00">get_material_type()</text>
<text text-anchor="start" x="194.5" y="-583.2" font-family="Consolas" font-size="11.00">+</text>
<text text-anchor="start" x="205.5" y="-583.2" font-family="Consolas" font-size="11.00">get_plane_type()</text>
<text text-anchor="start" x="194.5" y="-567.2" font-family="Consolas" font-size="11.00">+</text>
<text text-anchor="start" x="205.5" y="-567.2" font-family="Consolas" font-size="11.00">initialize_base()</text>
<text text-anchor="start" x="194.5" y="-551.2" font-family="Consolas" font-size="11.00">+</text>
<text text-anchor="start" x="205.5" y="-551.2" font-family="Consolas" font-size="11.00">initialize()</text>
<text text-anchor="start" x="194.5" y="-535.2" font-family="Consolas" font-size="11.00">+</text>
<text text-anchor="start" x="205.5" y="-535.2" font-family="Consolas" font-size="11.00">initialize_couple()</text>
<text text-anchor="start" x="194.5" y="-519.2" font-family="Consolas" font-size="11.00">+</text>
<text text-anchor="start" x="205.5" y="-519.2" font-family="Consolas" font-size="11.00">initialize_history()</text>
<text text-anchor="start" x="194.5" y="-503.2" font-family="Consolas" font-size="11.00">+</text>
<text text-anchor="start" x="205.5" y="-503.2" font-family="Consolas" font-size="11.00">set_initial_history()</text>
<text text-anchor="start" x="194.5" y="-487.2" font-family="Consolas" font-size="11.00">+</text>
<text text-anchor="start" x="205.5" y="-487.2" font-family="Consolas" font-size="11.00">set_initialized()</text>
<text text-anchor="start" x="205.5" y="-471.2" font-family="Consolas" font-size="11.00">and 67 more...</text>
<polygon fill="#666666" stroke="#666666" points="190.5,-658 190.5,-658 351.5,-658 351.5,-658 190.5,-658"/>
<polygon fill="#666666" stroke="#666666" points="190.5,-642 190.5,-642 351.5,-642 351.5,-642 190.5,-642"/>
<polygon fill="none" stroke="#666666" points="190,-464 190,-676 351,-676 351,-464 190,-464"/>
</a>
</g>
</g>
<!-- Node4&#45;&gt;Node3 -->
<g id="edge3_Node000003_Node000004" class="edge">
<title>Node4&#45;&gt;Node3</title>
<g id="a_edge3_Node000003_Node000004"><a xlink:title=" ">
<path fill="none" stroke="#63b8ff" d="M270.5,-453.92C270.5,-418.19 270.5,-381.57 270.5,-356.18"/>
<polygon fill="none" stroke="#63b8ff" points="267,-453.96 270.5,-463.96 274,-453.96 267,-453.96"/>
</a>
</g>
</g>
<!-- Node5 -->
<g id="Node000005" class="node">
<title>Node5</title>
<g id="a_Node000005"><a xlink:href="../../de/de9/struct_data_material.html" target="_top" xlink:title=" ">
<polygon fill="white" stroke="transparent" points="161,-924 0,-924 0,-712 161,-712 161,-924"/>
<text text-anchor="start" x="40" y="-911.2" font-family="Consolas" font-size="11.00">DataMaterial</text>
<text text-anchor="start" x="4.5" y="-895.2" font-family="Consolas" font-size="11.00">+</text>
<text text-anchor="start" x="15.5" y="-895.2" font-family="Consolas" font-size="11.00">density</text>
<text text-anchor="start" x="4.5" y="-879.2" font-family="Consolas" font-size="11.00">+</text>
<text text-anchor="start" x="15.5" y="-879.2" font-family="Consolas" font-size="11.00">material_type</text>
<text text-anchor="start" x="4.5" y="-863.2" font-family="Consolas" font-size="11.00">+</text>
<text text-anchor="start" x="15.5" y="-863.2" font-family="Consolas" font-size="11.00">plane_type</text>
<text text-anchor="start" x="4.5" y="-847.2" font-family="Consolas" font-size="11.00">+</text>
<text text-anchor="start" x="15.5" y="-847.2" font-family="Consolas" font-size="11.00">tolerance</text>
<text text-anchor="start" x="4.5" y="-831.2" font-family="Consolas" font-size="11.00">+</text>
<text text-anchor="start" x="15.5" y="-831.2" font-family="Consolas" font-size="11.00">characteristic_length</text>
<text text-anchor="start" x="4.5" y="-815.2" font-family="Consolas" font-size="11.00">+</text>
<text text-anchor="start" x="15.5" y="-815.2" font-family="Consolas" font-size="11.00">current_strain</text>
<text text-anchor="start" x="4.5" y="-799.2" font-family="Consolas" font-size="11.00">+</text>
<text text-anchor="start" x="15.5" y="-799.2" font-family="Consolas" font-size="11.00">current_strain_rate</text>
<text text-anchor="start" x="4.5" y="-783.2" font-family="Consolas" font-size="11.00">+</text>
<text text-anchor="start" x="15.5" y="-783.2" font-family="Consolas" font-size="11.00">current_strain_acc</text>
<text text-anchor="start" x="4.5" y="-767.2" font-family="Consolas" font-size="11.00">+</text>
<text text-anchor="start" x="15.5" y="-767.2" font-family="Consolas" font-size="11.00">current_stress</text>
<text text-anchor="start" x="4.5" y="-751.2" font-family="Consolas" font-size="11.00">+</text>
<text text-anchor="start" x="15.5" y="-751.2" font-family="Consolas" font-size="11.00">trial_strain</text>
<text text-anchor="start" x="15.5" y="-735.2" font-family="Consolas" font-size="11.00">and 19 more...</text>
<text text-anchor="start" x="77.5" y="-719.2" font-family="Consolas" font-size="11.00"> </text>
<polygon fill="#666666" stroke="#666666" points="0.5,-906 0.5,-906 161.5,-906 161.5,-906 0.5,-906"/>
<polygon fill="#666666" stroke="#666666" points="0.5,-730 0.5,-730 13.5,-730 13.5,-730 0.5,-730"/>
<polygon fill="#666666" stroke="#666666" points="13.5,-730 13.5,-730 161.5,-730 161.5,-730 13.5,-730"/>
<polygon fill="none" stroke="#666666" points="0,-712 0,-924 161,-924 161,-712 0,-712"/>
</a>
</g>
</g>
<!-- Node5&#45;&gt;Node4 -->
<g id="edge4_Node000004_Node000005" class="edge">
<title>Node5&#45;&gt;Node4</title>
<g id="a_edge4_Node000004_Node000005"><a xlink:title=" ">
<path fill="none" stroke="darkgreen" d="M167.34,-704.56C174.82,-694.88 182.37,-685.11 189.8,-675.49"/>
<polygon fill="none" stroke="darkgreen" points="164.42,-702.62 161.08,-712.67 169.96,-706.9 164.42,-702.62"/>
</a>
</g>
</g>
<!-- Node6 -->
<g id="Node000006" class="node">
<title>Node6</title>
<g id="a_Node000006"><a xlink:href="../../da/de4/struct_data_couple_material.html" target="_top" xlink:title=" ">
<polygon fill="white" stroke="transparent" points="361.5,-908 179.5,-908 179.5,-728 361.5,-728 361.5,-908"/>
<text text-anchor="start" x="209.5" y="-895.2" font-family="Consolas" font-size="11.00">DataCoupleMaterial</text>
<text text-anchor="start" x="183.5" y="-879.2" font-family="Consolas" font-size="11.00">+</text>
<text text-anchor="start" x="194.5" y="-879.2" font-family="Consolas" font-size="11.00">current_curvature</text>
<text text-anchor="start" x="183.5" y="-863.2" font-family="Consolas" font-size="11.00">+</text>
<text text-anchor="start" x="194.5" y="-863.2" font-family="Consolas" font-size="11.00">current_couple_stress</text>
<text text-anchor="start" x="183.5" y="-847.2" font-family="Consolas" font-size="11.00">+</text>
<text text-anchor="start" x="194.5" y="-847.2" font-family="Consolas" font-size="11.00">trial_curvature</text>
<text text-anchor="start" x="183.5" y="-831.2" font-family="Consolas" font-size="11.00">+</text>
<text text-anchor="start" x="194.5" y="-831.2" font-family="Consolas" font-size="11.00">trial_couple_stress</text>
<text text-anchor="start" x="183.5" y="-815.2" font-family="Consolas" font-size="11.00">+</text>
<text text-anchor="start" x="194.5" y="-815.2" font-family="Consolas" font-size="11.00">incre_curvature</text>
<text text-anchor="start" x="183.5" y="-799.2" font-family="Consolas" font-size="11.00">+</text>
<text text-anchor="start" x="194.5" y="-799.2" font-family="Consolas" font-size="11.00">incre_couple_stress</text>
<text text-anchor="start" x="183.5" y="-783.2" font-family="Consolas" font-size="11.00">+</text>
<text text-anchor="start" x="194.5" y="-783.2" font-family="Consolas" font-size="11.00">initial_couple_stiffness</text>
<text text-anchor="start" x="183.5" y="-767.2" font-family="Consolas" font-size="11.00">+</text>
<text text-anchor="start" x="194.5" y="-767.2" font-family="Consolas" font-size="11.00">current_couple_stiffness</text>
<text text-anchor="start" x="183.5" y="-751.2" font-family="Consolas" font-size="11.00">+</text>
<text text-anchor="start" x="194.5" y="-751.2" font-family="Consolas" font-size="11.00">trial_couple_stiffness</text>
<text text-anchor="start" x="267" y="-735.2" font-family="Consolas" font-size="11.00"> </text>
<polygon fill="#666666" stroke="#666666" points="179.5,-890 179.5,-890 361.5,-890 361.5,-890 179.5,-890"/>
<polygon fill="#666666" stroke="#666666" points="179.5,-746 179.5,-746 192.5,-746 192.5,-746 179.5,-746"/>
<polygon fill="#666666" stroke="#666666" points="192.5,-746 192.5,-746 361.5,-746 361.5,-746 192.5,-746"/>
<polygon fill="none" stroke="#666666" points="179.5,-728 179.5,-908 361.5,-908 361.5,-728 179.5,-728"/>
</a>
</g>
</g>
<!-- Node6&#45;&gt;Node4 -->
<g id="edge5_Node000004_Node000006" class="edge">
<title>Node6&#45;&gt;Node4</title>
<g id="a_edge5_Node000004_Node000006"><a xlink:title=" ">
<path fill="none" stroke="darkgreen" d="M270.5,-717.52C270.5,-703.9 270.5,-689.88 270.5,-676.17"/>
<polygon fill="none" stroke="darkgreen" points="267,-717.84 270.5,-727.84 274,-717.84 267,-717.84"/>
</a>
</g>
</g>
<!-- Node7 -->
<g id="Node000007" class="node">
<title>Node7</title>
<g id="a_Node000007"><a xlink:href="../../dd/d78/class_copiable_tag.html" target="_top" xlink:title=" ">
<polygon fill="white" stroke="transparent" points="493.5,-900 379.5,-900 379.5,-736 493.5,-736 493.5,-900"/>
<text text-anchor="start" x="399" y="-887.2" font-family="Consolas" font-size="11.00">CopiableTag</text>
<text text-anchor="start" x="433" y="-871.2" font-family="Consolas" font-size="11.00"> </text>
<text text-anchor="start" x="383.5" y="-855.2" font-family="Consolas" font-size="11.00">+</text>
<text text-anchor="start" x="394.5" y="-855.2" font-family="Consolas" font-size="11.00">CopiableTag()</text>
<text text-anchor="start" x="383.5" y="-839.2" font-family="Consolas" font-size="11.00">+</text>
<text text-anchor="start" x="394.5" y="-839.2" font-family="Consolas" font-size="11.00">CopiableTag()</text>
<text text-anchor="start" x="383.5" y="-823.2" font-family="Consolas" font-size="11.00">+</text>
<text text-anchor="start" x="394.5" y="-823.2" font-family="Consolas" font-size="11.00">operator=()</text>
<text text-anchor="start" x="383.5" y="-807.2" font-family="Consolas" font-size="11.00">+</text>
<text text-anchor="start" x="394.5" y="-807.2" font-family="Consolas" font-size="11.00">operator=()</text>
<text text-anchor="start" x="383.5" y="-791.2" font-family="Consolas" font-size="11.00">+</text>
<text text-anchor="start" x="394.5" y="-791.2" font-family="Consolas" font-size="11.00">~CopiableTag()</text>
<text text-anchor="start" x="383.5" y="-775.2" font-family="Consolas" font-size="11.00">+</text>
<text text-anchor="start" x="394.5" y="-775.2" font-family="Consolas" font-size="11.00">Tag()</text>
<text text-anchor="start" x="383.5" y="-759.2" font-family="Consolas" font-size="11.00">+</text>
<text text-anchor="start" x="394.5" y="-759.2" font-family="Consolas" font-size="11.00">Tag()</text>
<text text-anchor="start" x="383.5" y="-743.2" font-family="Consolas" font-size="11.00">+</text>
<text text-anchor="start" x="394.5" y="-743.2" font-family="Consolas" font-size="11.00">Tag()</text>
<polygon fill="#666666" stroke="#666666" points="379.5,-882 379.5,-882 493.5,-882 493.5,-882 379.5,-882"/>
<polygon fill="#666666" stroke="#666666" points="379.5,-866 379.5,-866 493.5,-866 493.5,-866 379.5,-866"/>
<polygon fill="none" stroke="#666666" points="379.5,-736 379.5,-900 493.5,-900 493.5,-736 379.5,-736"/>
</a>
</g>
</g>
<!-- Node7&#45;&gt;Node4 -->
<g id="edge6_Node000004_Node000007" class="edge">
<title>Node7&#45;&gt;Node4</title>
<g id="a_edge6_Node000004_Node000007"><a xlink:title=" ">
<path fill="none" stroke="#63b8ff" d="M380.5,-727.17C377.15,-722.02 373.8,-716.93 370.5,-712 362.66,-700.27 354.33,-688.1 345.96,-676.04"/>
<polygon fill="none" stroke="#63b8ff" points="377.77,-729.39 386.14,-735.88 383.64,-725.58 377.77,-729.39"/>
</a>
</g>
</g>
<!-- Node8 -->
<g id="Node000008" class="node">
<title>Node8</title>
<g id="a_Node000008"><a xlink:href="../../d0/d57/class_tag.html" target="_top" xlink:title="A base Tag class.">
<polygon fill="white" stroke="transparent" points="487,-1236 386,-1236 386,-960 487,-960 487,-1236"/>
<text text-anchor="start" x="426.5" y="-1223.2" font-family="Consolas" font-size="11.00">Tag</text>
<text text-anchor="start" x="433.5" y="-1207.2" font-family="Consolas" font-size="11.00"> </text>
<text text-anchor="start" x="390.5" y="-1191.2" font-family="Consolas" font-size="11.00">+</text>
<text text-anchor="start" x="401.5" y="-1191.2" font-family="Consolas" font-size="11.00">Tag()</text>
<text text-anchor="start" x="390.5" y="-1175.2" font-family="Consolas" font-size="11.00">+</text>
<text text-anchor="start" x="401.5" y="-1175.2" font-family="Consolas" font-size="11.00">Tag()</text>
<text text-anchor="start" x="390.5" y="-1159.2" font-family="Consolas" font-size="11.00">+</text>
<text text-anchor="start" x="401.5" y="-1159.2" font-family="Consolas" font-size="11.00">Tag()</text>
<text text-anchor="start" x="390.5" y="-1143.2" font-family="Consolas" font-size="11.00">+</text>
<text text-anchor="start" x="401.5" y="-1143.2" font-family="Consolas" font-size="11.00">operator=()</text>
<text text-anchor="start" x="390.5" y="-1127.2" font-family="Consolas" font-size="11.00">+</text>
<text text-anchor="start" x="401.5" y="-1127.2" font-family="Consolas" font-size="11.00">operator=()</text>
<text text-anchor="start" x="390.5" y="-1111.2" font-family="Consolas" font-size="11.00">+</text>
<text text-anchor="start" x="401.5" y="-1111.2" font-family="Consolas" font-size="11.00">~Tag()</text>
<text text-anchor="start" x="390.5" y="-1095.2" font-family="Consolas" font-size="11.00">+</text>
<text text-anchor="start" x="401.5" y="-1095.2" font-family="Consolas" font-size="11.00">set_tag()</text>
<text text-anchor="start" x="390.5" y="-1079.2" font-family="Consolas" font-size="11.00">+</text>
<text text-anchor="start" x="401.5" y="-1079.2" font-family="Consolas" font-size="11.00">get_tag()</text>
<text text-anchor="start" x="390.5" y="-1063.2" font-family="Consolas" font-size="11.00">+</text>
<text text-anchor="start" x="401.5" y="-1063.2" font-family="Consolas" font-size="11.00">enable()</text>
<text text-anchor="start" x="390.5" y="-1047.2" font-family="Consolas" font-size="11.00">+</text>
<text text-anchor="start" x="401.5" y="-1047.2" font-family="Consolas" font-size="11.00">disable()</text>
<text text-anchor="start" x="390.5" y="-1031.2" font-family="Consolas" font-size="11.00">+</text>
<text text-anchor="start" x="401.5" y="-1031.2" font-family="Consolas" font-size="11.00">guard()</text>
<text text-anchor="start" x="390.5" y="-1015.2" font-family="Consolas" font-size="11.00">+</text>
<text text-anchor="start" x="401.5" y="-1015.2" font-family="Consolas" font-size="11.00">unguard()</text>
<text text-anchor="start" x="390.5" y="-999.2" font-family="Consolas" font-size="11.00">+</text>
<text text-anchor="start" x="401.5" y="-999.2" font-family="Consolas" font-size="11.00">is_active()</text>
<text text-anchor="start" x="390.5" y="-983.2" font-family="Consolas" font-size="11.00">+</text>
<text text-anchor="start" x="401.5" y="-983.2" font-family="Consolas" font-size="11.00">is_guarded()</text>
<text text-anchor="start" x="390.5" y="-967.2" font-family="Consolas" font-size="11.00">+</text>
<text text-anchor="start" x="401.5" y="-967.2" font-family="Consolas" font-size="11.00">print()</text>
<polygon fill="#666666" stroke="#666666" points="386.5,-1218 386.5,-1218 487.5,-1218 487.5,-1218 386.5,-1218"/>
<polygon fill="#666666" stroke="#666666" points="386.5,-1202 386.5,-1202 487.5,-1202 487.5,-1202 386.5,-1202"/>
<polygon fill="none" stroke="#666666" points="386,-960 386,-1236 487,-1236 487,-960 386,-960"/>
</a>
</g>
</g>
<!-- Node8&#45;&gt;Node7 -->
<g id="edge7_Node000007_Node000008" class="edge">
<title>Node8&#45;&gt;Node7</title>
<g id="a_edge7_Node000007_Node000008"><a xlink:title=" ">
<path fill="none" stroke="#63b8ff" d="M436.5,-949.6C436.5,-932.59 436.5,-915.75 436.5,-900.1"/>
<polygon fill="none" stroke="#63b8ff" points="433,-949.63 436.5,-959.63 440,-949.63 433,-949.63"/>
</a>
</g>
</g>
</g>
</svg>
