<?xml version="1.0" encoding="UTF-8" standalone="no"?>
<!DOCTYPE svg PUBLIC "-//W3C//DTD SVG 1.1//EN"
 "http://www.w3.org/Graphics/SVG/1.1/DTD/svg11.dtd">
<!-- Generated by graphviz version 5.0.0 (0)
 -->
<!-- Title: Solver/Integrator/Integrator.cpp Pages: 1 -->
<svg width="1034pt" height="712pt"
 viewBox="0.00 0.00 1034.26 712.00" xmlns="http://www.w3.org/2000/svg" xmlns:xlink="http://www.w3.org/1999/xlink">
<g id="graph0" class="graph" transform="scale(1 1) rotate(0) translate(4 708)">
<title>Solver/Integrator/Integrator.cpp</title>
<!-- Node1 -->
<g id="node1" class="node">
<title>Node1</title>
<g id="a_node1"><a xlink:title=" ">
<polygon fill="#999999" stroke="#666666" points="322,-704 89,-704 89,-684 322,-684 322,-704"/>
<text text-anchor="middle" x="205.5" y="-691.2" font-family="Consolas" font-size="11.00">Solver/Integrator/Integrator.cpp</text>
</a>
</g>
</g>
<!-- Node2 -->
<g id="node2" class="node">
<title>Node2</title>
<g id="a_node2"><a xlink:href="../../dc/d50/_integrator_8h.html" target="_top" xlink:title=" ">
<polygon fill="white" stroke="#666666" points="165.5,-648 67.5,-648 67.5,-628 165.5,-628 165.5,-648"/>
<text text-anchor="middle" x="116.5" y="-635.2" font-family="Consolas" font-size="11.00">Integrator.h</text>
</a>
</g>
</g>
<!-- Node1&#45;&gt;Node2 -->
<g id="edge1" class="edge">
<title>Node1&#45;&gt;Node2</title>
<path fill="none" stroke="#63b8ff" d="M190.4,-683.84C176.64,-675.49 156.08,-663.02 140.14,-653.34"/>
<polygon fill="#63b8ff" stroke="#63b8ff" points="141.74,-650.22 131.37,-648.03 138.11,-656.2 141.74,-650.22"/>
</g>
<!-- Node12 -->
<g id="node12" class="node">
<title>Node12</title>
<g id="a_node12"><a xlink:href="../../dc/df2/_domain_base_8h.html" target="_top" xlink:title=" ">
<polygon fill="white" stroke="#666666" points="278,-592 133,-592 133,-572 278,-572 278,-592"/>
<text text-anchor="middle" x="205.5" y="-579.2" font-family="Consolas" font-size="11.00">Domain/DomainBase.h</text>
</a>
</g>
</g>
<!-- Node1&#45;&gt;Node12 -->
<g id="edge11" class="edge">
<title>Node1&#45;&gt;Node12</title>
<path fill="none" stroke="#63b8ff" d="M205.5,-684C205.5,-666.19 205.5,-626.12 205.5,-602.15"/>
<polygon fill="#63b8ff" stroke="#63b8ff" points="209,-602.13 205.5,-592.13 202,-602.13 209,-602.13"/>
</g>
<!-- Node19 -->
<g id="node19" class="node">
<title>Node19</title>
<g id="a_node19"><a xlink:href="../../da/d8e/_factory_helper_8hpp.html" target="_top" xlink:title=" ">
<polygon fill="white" stroke="#666666" points="441,-648 262,-648 262,-628 441,-628 441,-648"/>
<text text-anchor="middle" x="351.5" y="-635.2" font-family="Consolas" font-size="11.00">Domain/FactoryHelper.hpp</text>
</a>
</g>
</g>
<!-- Node1&#45;&gt;Node19 -->
<g id="edge20" class="edge">
<title>Node1&#45;&gt;Node19</title>
<path fill="none" stroke="#63b8ff" d="M229.94,-683.96C253.94,-675.08 290.76,-661.46 317.59,-651.54"/>
<polygon fill="#63b8ff" stroke="#63b8ff" points="318.82,-654.82 326.98,-648.07 316.39,-648.25 318.82,-654.82"/>
</g>
<!-- Node3 -->
<g id="node3" class="node">
<title>Node3</title>
<g id="a_node3"><a xlink:href="../../d2/d4a/_tag_8h.html" target="_top" xlink:title=" ">
<polygon fill="white" stroke="#666666" points="202.5,-530 104.5,-530 104.5,-510 202.5,-510 202.5,-530"/>
<text text-anchor="middle" x="153.5" y="-517.2" font-family="Consolas" font-size="11.00">Domain/Tag.h</text>
</a>
</g>
</g>
<!-- Node2&#45;&gt;Node3 -->
<g id="edge2" class="edge">
<title>Node2&#45;&gt;Node3</title>
<path fill="none" stroke="#63b8ff" d="M116.29,-627.92C116.25,-615.11 117.15,-591.18 123.5,-572 127.42,-560.15 134.38,-548.06 140.6,-538.63"/>
<polygon fill="#63b8ff" stroke="#63b8ff" points="143.63,-540.4 146.45,-530.19 137.88,-536.42 143.63,-540.4"/>
</g>
<!-- Node4 -->
<g id="node4" class="node">
<title>Node4</title>
<g id="a_node4"><a xlink:href="../../d8/d8f/suan_pan_8h.html" target="_top" xlink:title=" ">
<polygon fill="white" stroke="#666666" points="439,-76 362,-76 362,-56 439,-56 439,-76"/>
<text text-anchor="middle" x="400.5" y="-63.2" font-family="Consolas" font-size="11.00">suanPan.h</text>
</a>
</g>
</g>
<!-- Node3&#45;&gt;Node4 -->
<g id="edge3" class="edge">
<title>Node3&#45;&gt;Node4</title>
<path fill="none" stroke="#63b8ff" d="M161.67,-509.83C177.43,-491.16 210.5,-446.76 210.5,-403 210.5,-403 210.5,-403 210.5,-177 210.5,-111.87 295.14,-84.68 351.44,-73.8"/>
<polygon fill="#63b8ff" stroke="#63b8ff" points="352.38,-77.18 361.59,-71.95 351.13,-70.3 352.38,-77.18"/>
</g>
<!-- Node5 -->
<g id="node5" class="node">
<title>Node5</title>
<g id="a_node5"><a xlink:title=" ">
<polygon fill="#e0e0e0" stroke="#999999" points="71,-20 0,-20 0,0 71,0 71,-20"/>
<text text-anchor="middle" x="35.5" y="-7.2" font-family="Consolas" font-size="11.00">iostream</text>
</a>
</g>
</g>
<!-- Node4&#45;&gt;Node5 -->
<g id="edge4" class="edge">
<title>Node4&#45;&gt;Node5</title>
<path fill="none" stroke="#63b8ff" d="M361.84,-60.37C303.24,-53.19 188.22,-38.41 81.02,-20.18"/>
<polygon fill="#63b8ff" stroke="#63b8ff" points="81.45,-16.7 71.01,-18.46 80.27,-23.6 81.45,-16.7"/>
</g>
<!-- Node6 -->
<g id="node6" class="node">
<title>Node6</title>
<g id="a_node6"><a xlink:title=" ">
<polygon fill="#e0e0e0" stroke="#999999" points="234,-20 89,-20 89,0 234,0 234,-20"/>
<text text-anchor="middle" x="161.5" y="-7.2" font-family="Consolas" font-size="11.00">armadillo/armadillo</text>
</a>
</g>
</g>
<!-- Node4&#45;&gt;Node6 -->
<g id="edge5" class="edge">
<title>Node4&#45;&gt;Node6</title>
<path fill="none" stroke="#63b8ff" d="M361.83,-56.26C320.93,-47.02 256.25,-32.41 211.5,-22.3"/>
<polygon fill="#63b8ff" stroke="#63b8ff" points="212.23,-18.87 201.71,-20.08 210.69,-25.7 212.23,-18.87"/>
</g>
<!-- Node7 -->
<g id="node7" class="node">
<title>Node7</title>
<g id="a_node7"><a xlink:title=" ">
<polygon fill="#e0e0e0" stroke="#999999" points="336.5,-20 252.5,-20 252.5,0 336.5,0 336.5,-20"/>
<text text-anchor="middle" x="294.5" y="-7.2" font-family="Consolas" font-size="11.00">filesystem</text>
</a>
</g>
</g>
<!-- Node4&#45;&gt;Node7 -->
<g id="edge6" class="edge">
<title>Node4&#45;&gt;Node7</title>
<path fill="none" stroke="#63b8ff" d="M382.52,-55.84C365.74,-47.29 340.49,-34.43 321.34,-24.67"/>
<polygon fill="#63b8ff" stroke="#63b8ff" points="322.72,-21.45 312.22,-20.03 319.54,-27.68 322.72,-21.45"/>
</g>
<!-- Node8 -->
<g id="node8" class="node">
<title>Node8</title>
<g id="a_node8"><a xlink:title=" ">
<polygon fill="#e0e0e0" stroke="#999999" points="446,-20 355,-20 355,0 446,0 446,-20"/>
<text text-anchor="middle" x="400.5" y="-7.2" font-family="Consolas" font-size="11.00">fmt/color.h</text>
</a>
</g>
</g>
<!-- Node4&#45;&gt;Node8 -->
<g id="edge7" class="edge">
<title>Node4&#45;&gt;Node8</title>
<path fill="none" stroke="#63b8ff" d="M400.5,-55.59C400.5,-48.7 400.5,-39.1 400.5,-30.57"/>
<polygon fill="#63b8ff" stroke="#63b8ff" points="404,-30.3 400.5,-20.3 397,-30.3 404,-30.3"/>
</g>
<!-- Node9 -->
<g id="node9" class="node">
<title>Node9</title>
<g id="a_node9"><a xlink:title=" ">
<polygon fill="#e0e0e0" stroke="#999999" points="514.5,-20 464.5,-20 464.5,0 514.5,0 514.5,-20"/>
<text text-anchor="middle" x="489.5" y="-7.2" font-family="Consolas" font-size="11.00">mutex</text>
</a>
</g>
</g>
<!-- Node4&#45;&gt;Node9 -->
<g id="edge8" class="edge">
<title>Node4&#45;&gt;Node9</title>
<path fill="none" stroke="#63b8ff" d="M415.6,-55.84C429.36,-47.49 449.92,-35.02 465.86,-25.34"/>
<polygon fill="#63b8ff" stroke="#63b8ff" points="467.89,-28.2 474.63,-20.03 464.26,-22.22 467.89,-28.2"/>
</g>
<!-- Node10 -->
<g id="node10" class="node">
<title>Node10</title>
<g id="a_node10"><a xlink:title=" ">
<polygon fill="#e0e0e0" stroke="#999999" points="616.5,-20 532.5,-20 532.5,0 616.5,0 616.5,-20"/>
<text text-anchor="middle" x="574.5" y="-7.2" font-family="Consolas" font-size="11.00">functional</text>
</a>
</g>
</g>
<!-- Node4&#45;&gt;Node10 -->
<g id="edge9" class="edge">
<title>Node4&#45;&gt;Node10</title>
<path fill="none" stroke="#63b8ff" d="M429.62,-55.96C458.61,-46.97 503.27,-33.11 535.35,-23.15"/>
<polygon fill="#63b8ff" stroke="#63b8ff" points="536.77,-26.37 545.28,-20.07 534.69,-19.69 536.77,-26.37"/>
</g>
<!-- Node11 -->
<g id="node11" class="node">
<title>Node11</title>
<g id="a_node11"><a xlink:title=" ">
<polygon fill="#e0e0e0" stroke="#999999" points="692,-20 635,-20 635,0 692,0 692,-20"/>
<text text-anchor="middle" x="663.5" y="-7.2" font-family="Consolas" font-size="11.00">memory</text>
</a>
</g>
</g>
<!-- Node4&#45;&gt;Node11 -->
<g id="edge10" class="edge">
<title>Node4&#45;&gt;Node11</title>
<path fill="none" stroke="#63b8ff" d="M439.21,-57.69C482.09,-49.49 553.53,-35.56 624.83,-20.08"/>
<polygon fill="#63b8ff" stroke="#63b8ff" points="625.87,-23.44 634.89,-17.89 624.37,-16.6 625.87,-23.44"/>
</g>
<!-- Node12&#45;&gt;Node3 -->
<g id="edge13" class="edge">
<title>Node12&#45;&gt;Node3</title>
<path fill="none" stroke="#63b8ff" d="M197.6,-571.89C189.81,-562.9 177.72,-548.95 168.17,-537.93"/>
<polygon fill="#63b8ff" stroke="#63b8ff" points="170.67,-535.46 161.47,-530.2 165.38,-540.05 170.67,-535.46"/>
</g>
<!-- Node13 -->
<g id="node13" class="node">
<title>Node13</title>
<g id="a_node13"><a xlink:title=" ">
<polygon fill="#e0e0e0" stroke="#999999" points="278,-530 221,-530 221,-510 278,-510 278,-530"/>
<text text-anchor="middle" x="249.5" y="-517.2" font-family="Consolas" font-size="11.00">future</text>
</a>
</g>
</g>
<!-- Node12&#45;&gt;Node13 -->
<g id="edge12" class="edge">
<title>Node12&#45;&gt;Node13</title>
<path fill="none" stroke="#63b8ff" d="M212.18,-571.89C218.64,-563.08 228.6,-549.5 236.61,-538.58"/>
<polygon fill="#63b8ff" stroke="#63b8ff" points="239.66,-540.33 242.75,-530.2 234.02,-536.19 239.66,-540.33"/>
</g>
<!-- Node14 -->
<g id="node14" class="node">
<title>Node14</title>
<g id="a_node14"><a xlink:href="../../d4/ddd/container_8h.html" target="_top" xlink:title=" ">
<polygon fill="white" stroke="#666666" points="480,-530 335,-530 335,-510 480,-510 480,-530"/>
<text text-anchor="middle" x="407.5" y="-517.2" font-family="Consolas" font-size="11.00">Toolbox/container.h</text>
</a>
</g>
</g>
<!-- Node12&#45;&gt;Node14 -->
<g id="edge14" class="edge">
<title>Node12&#45;&gt;Node14</title>
<path fill="none" stroke="#63b8ff" d="M236.18,-571.89C271.23,-561.47 328.73,-544.4 367.33,-532.93"/>
<polygon fill="#63b8ff" stroke="#63b8ff" points="368.6,-536.2 377.19,-530 366.61,-529.49 368.6,-536.2"/>
</g>
<!-- Node14&#45;&gt;Node4 -->
<g id="edge15" class="edge">
<title>Node14&#45;&gt;Node4</title>
<path fill="none" stroke="#63b8ff" d="M406.58,-509.99C404.69,-490.49 400.5,-442.95 400.5,-403 400.5,-403 400.5,-403 400.5,-177 400.5,-145.27 400.5,-108.4 400.5,-86.42"/>
<polygon fill="#63b8ff" stroke="#63b8ff" points="404,-86.13 400.5,-76.13 397,-86.13 404,-86.13"/>
</g>
<!-- Node15 -->
<g id="node15" class="node">
<title>Node15</title>
<g id="a_node15"><a xlink:title=" ">
<polygon fill="#e0e0e0" stroke="#999999" points="710,-468 673,-468 673,-448 710,-448 710,-468"/>
<text text-anchor="middle" x="691.5" y="-455.2" font-family="Consolas" font-size="11.00">set</text>
</a>
</g>
</g>
<!-- Node14&#45;&gt;Node15 -->
<g id="edge16" class="edge">
<title>Node14&#45;&gt;Node15</title>
<path fill="none" stroke="#63b8ff" d="M462.34,-509.95C512.22,-501.29 587.99,-487.09 662.84,-467.92"/>
<polygon fill="#63b8ff" stroke="#63b8ff" points="664.11,-471.2 672.91,-465.3 662.35,-464.43 664.11,-471.2"/>
</g>
<!-- Node16 -->
<g id="node16" class="node">
<title>Node16</title>
<g id="a_node16"><a xlink:title=" ">
<polygon fill="#e0e0e0" stroke="#999999" points="372,-468 335,-468 335,-448 372,-448 372,-468"/>
<text text-anchor="middle" x="353.5" y="-455.2" font-family="Consolas" font-size="11.00">map</text>
</a>
</g>
</g>
<!-- Node14&#45;&gt;Node16 -->
<g id="edge17" class="edge">
<title>Node14&#45;&gt;Node16</title>
<path fill="none" stroke="#63b8ff" d="M399.3,-509.89C391.21,-500.9 378.65,-486.95 368.73,-475.93"/>
<polygon fill="#63b8ff" stroke="#63b8ff" points="371.07,-473.29 361.78,-468.2 365.87,-477.97 371.07,-473.29"/>
</g>
<!-- Node17 -->
<g id="node17" class="node">
<title>Node17</title>
<g id="a_node17"><a xlink:title=" ">
<polygon fill="#e0e0e0" stroke="#999999" points="532.5,-468 428.5,-468 428.5,-448 532.5,-448 532.5,-468"/>
<text text-anchor="middle" x="480.5" y="-455.2" font-family="Consolas" font-size="11.00">unordered_set</text>
</a>
</g>
</g>
<!-- Node14&#45;&gt;Node17 -->
<g id="edge18" class="edge">
<title>Node14&#45;&gt;Node17</title>
<path fill="none" stroke="#63b8ff" d="M418.59,-509.89C429.95,-500.55 447.83,-485.85 461.47,-474.64"/>
<polygon fill="#63b8ff" stroke="#63b8ff" points="463.81,-477.25 469.31,-468.2 459.36,-471.84 463.81,-477.25"/>
</g>
<!-- Node18 -->
<g id="node18" class="node">
<title>Node18</title>
<g id="a_node18"><a xlink:title=" ">
<polygon fill="#e0e0e0" stroke="#999999" points="654.5,-468 550.5,-468 550.5,-448 654.5,-448 654.5,-468"/>
<text text-anchor="middle" x="602.5" y="-455.2" font-family="Consolas" font-size="11.00">unordered_map</text>
</a>
</g>
</g>
<!-- Node14&#45;&gt;Node18 -->
<g id="edge19" class="edge">
<title>Node14&#45;&gt;Node18</title>
<path fill="none" stroke="#63b8ff" d="M437.12,-509.89C470.81,-499.52 525.98,-482.54 563.24,-471.08"/>
<polygon fill="#63b8ff" stroke="#63b8ff" points="564.72,-474.29 573.24,-468 562.66,-467.6 564.72,-474.29"/>
</g>
<!-- Node19&#45;&gt;Node4 -->
<g id="edge21" class="edge">
<title>Node19&#45;&gt;Node4</title>
<path fill="none" stroke="#63b8ff" d="M345.24,-627.85C332.88,-608.84 306.5,-563.34 306.5,-521 306.5,-521 306.5,-521 306.5,-177 306.5,-134.39 347.78,-99.95 375.63,-81.56"/>
<polygon fill="#63b8ff" stroke="#63b8ff" points="377.56,-84.48 384.13,-76.16 373.81,-78.57 377.56,-84.48"/>
</g>
<!-- Node20 -->
<g id="node20" class="node">
<title>Node20</title>
<g id="a_node20"><a xlink:href="../../db/d65/_factory_8hpp.html" target="_top" xlink:title=" ">
<polygon fill="white" stroke="#666666" points="426,-592 335,-592 335,-572 426,-572 426,-592"/>
<text text-anchor="middle" x="380.5" y="-579.2" font-family="Consolas" font-size="11.00">Factory.hpp</text>
</a>
</g>
</g>
<!-- Node19&#45;&gt;Node20 -->
<g id="edge22" class="edge">
<title>Node19&#45;&gt;Node20</title>
<path fill="none" stroke="#63b8ff" d="M356.55,-627.59C360.46,-620.32 365.99,-610.02 370.75,-601.15"/>
<polygon fill="#63b8ff" stroke="#63b8ff" points="373.86,-602.76 375.51,-592.3 367.69,-599.45 373.86,-602.76"/>
</g>
<!-- Node37 -->
<g id="node37" class="node">
<title>Node37</title>
<g id="a_node37"><a xlink:title=" ">
<polygon fill="#e0e0e0" stroke="#999999" points="562.5,-592 444.5,-592 444.5,-572 562.5,-572 562.5,-592"/>
<text text-anchor="middle" x="503.5" y="-579.2" font-family="Consolas" font-size="11.00">MetaMat/MetaMat</text>
</a>
</g>
</g>
<!-- Node19&#45;&gt;Node37 -->
<g id="edge49" class="edge">
<title>Node19&#45;&gt;Node37</title>
<path fill="none" stroke="#63b8ff" d="M376.94,-627.96C401.93,-619.08 440.27,-605.46 468.2,-595.54"/>
<polygon fill="#63b8ff" stroke="#63b8ff" points="469.72,-598.71 477.98,-592.07 467.38,-592.12 469.72,-598.71"/>
</g>
<!-- Node20&#45;&gt;Node13 -->
<g id="edge23" class="edge">
<title>Node20&#45;&gt;Node13</title>
<path fill="none" stroke="#63b8ff" d="M360.6,-571.89C338.74,-561.87 303.42,-545.7 278.48,-534.27"/>
<polygon fill="#63b8ff" stroke="#63b8ff" points="279.7,-530.98 269.15,-530 276.79,-537.35 279.7,-530.98"/>
</g>
<!-- Node20&#45;&gt;Node14 -->
<g id="edge48" class="edge">
<title>Node20&#45;&gt;Node14</title>
<path fill="none" stroke="#63b8ff" d="M384.6,-571.89C388.45,-563.34 394.31,-550.31 399.14,-539.57"/>
<polygon fill="#63b8ff" stroke="#63b8ff" points="402.45,-540.75 403.36,-530.2 396.07,-537.88 402.45,-540.75"/>
</g>
<!-- Node21 -->
<g id="node21" class="node">
<title>Node21</title>
<g id="a_node21"><a xlink:href="../../da/dcc/operator__times_8hpp.html" target="_top" xlink:title=" ">
<polygon fill="white" stroke="#666666" points="873.5,-536 701.5,-536 701.5,-504 873.5,-504 873.5,-536"/>
<text text-anchor="start" x="709.5" y="-523.2" font-family="Consolas" font-size="11.00">Domain/MetaMat/operator</text>
<text text-anchor="middle" x="787.5" y="-511.2" font-family="Consolas" font-size="11.00">_times.hpp</text>
</a>
</g>
</g>
<!-- Node20&#45;&gt;Node21 -->
<g id="edge24" class="edge">
<title>Node20&#45;&gt;Node21</title>
<path fill="none" stroke="#63b8ff" d="M426.11,-573.47C429.29,-572.97 432.44,-572.47 435.5,-572 521.88,-558.68 620.34,-544.5 691.12,-534.48"/>
<polygon fill="#63b8ff" stroke="#63b8ff" points="691.95,-537.9 701.36,-533.03 690.97,-530.97 691.95,-537.9"/>
</g>
<!-- Node22 -->
<g id="node22" class="node">
<title>Node22</title>
<g id="a_node22"><a xlink:href="../../d3/de0/_full_mat_8hpp.html" target="_top" xlink:title=" ">
<polygon fill="white" stroke="#666666" points="956,-468 865,-468 865,-448 956,-448 956,-468"/>
<text text-anchor="middle" x="910.5" y="-455.2" font-family="Consolas" font-size="11.00">FullMat.hpp</text>
</a>
</g>
</g>
<!-- Node21&#45;&gt;Node22 -->
<g id="edge25" class="edge">
<title>Node21&#45;&gt;Node22</title>
<path fill="none" stroke="#63b8ff" d="M818.54,-503.86C838.26,-494.24 863.58,-481.89 882.66,-472.58"/>
<polygon fill="#63b8ff" stroke="#63b8ff" points="884.28,-475.68 891.74,-468.15 881.21,-469.39 884.28,-475.68"/>
</g>
<!-- Node36 -->
<g id="node36" class="node">
<title>Node36</title>
<g id="a_node36"><a xlink:href="../../d0/d1a/_symm_pack_mat_8hpp.html" target="_top" xlink:title=" ">
<polygon fill="white" stroke="#666666" points="846.5,-468 728.5,-468 728.5,-448 846.5,-448 846.5,-468"/>
<text text-anchor="middle" x="787.5" y="-455.2" font-family="Consolas" font-size="11.00">SymmPackMat.hpp</text>
</a>
</g>
</g>
<!-- Node21&#45;&gt;Node36 -->
<g id="edge46" class="edge">
<title>Node21&#45;&gt;Node36</title>
<path fill="none" stroke="#63b8ff" d="M787.5,-503.86C787.5,-496.13 787.5,-486.63 787.5,-478.37"/>
<polygon fill="#63b8ff" stroke="#63b8ff" points="791,-478.15 787.5,-468.15 784,-478.15 791,-478.15"/>
</g>
<!-- Node23 -->
<g id="node23" class="node">
<title>Node23</title>
<g id="a_node23"><a xlink:href="../../de/d2a/_dense_mat_8hpp.html" target="_top" xlink:title=" ">
<polygon fill="white" stroke="#666666" points="836.5,-412 738.5,-412 738.5,-392 836.5,-392 836.5,-412"/>
<text text-anchor="middle" x="787.5" y="-399.2" font-family="Consolas" font-size="11.00">DenseMat.hpp</text>
</a>
</g>
</g>
<!-- Node22&#45;&gt;Node23 -->
<g id="edge26" class="edge">
<title>Node22&#45;&gt;Node23</title>
<path fill="none" stroke="#63b8ff" d="M889.91,-447.96C870.13,-439.28 840.02,-426.06 817.56,-416.2"/>
<polygon fill="#63b8ff" stroke="#63b8ff" points="818.72,-412.88 808.15,-412.07 815.9,-419.29 818.72,-412.88"/>
</g>
<!-- Node24 -->
<g id="node24" class="node">
<title>Node24</title>
<g id="a_node24"><a xlink:href="../../d3/d46/_meta_mat_8hpp.html" target="_top" xlink:title=" ">
<polygon fill="white" stroke="#666666" points="829,-356 738,-356 738,-336 829,-336 829,-356"/>
<text text-anchor="middle" x="783.5" y="-343.2" font-family="Consolas" font-size="11.00">MetaMat.hpp</text>
</a>
</g>
</g>
<!-- Node23&#45;&gt;Node24 -->
<g id="edge27" class="edge">
<title>Node23&#45;&gt;Node24</title>
<path fill="none" stroke="#63b8ff" d="M786.8,-391.59C786.29,-384.63 785.57,-374.89 784.93,-366.29"/>
<polygon fill="#63b8ff" stroke="#63b8ff" points="788.42,-366.01 784.19,-356.3 781.44,-366.53 788.42,-366.01"/>
</g>
<!-- Node25 -->
<g id="node25" class="node">
<title>Node25</title>
<g id="a_node25"><a xlink:href="../../df/df1/triplet__form_8hpp.html" target="_top" xlink:title=" ">
<polygon fill="white" stroke="#666666" points="842,-188 717,-188 717,-168 842,-168 842,-188"/>
<text text-anchor="middle" x="779.5" y="-175.2" font-family="Consolas" font-size="11.00">triplet_form.hpp</text>
</a>
</g>
</g>
<!-- Node24&#45;&gt;Node25 -->
<g id="edge28" class="edge">
<title>Node24&#45;&gt;Node25</title>
<path fill="none" stroke="#63b8ff" d="M829.02,-338.81C911.02,-325.83 1070.1,-291.26 1014.5,-224 994.13,-199.36 913.29,-188.08 852.07,-183"/>
<polygon fill="#63b8ff" stroke="#63b8ff" points="852.28,-179.51 842.04,-182.21 851.73,-186.49 852.28,-179.51"/>
</g>
<!-- Node29 -->
<g id="node29" class="node">
<title>Node29</title>
<g id="a_node29"><a xlink:href="../../df/d0c/_iterative_solver_8hpp.html" target="_top" xlink:title=" ">
<polygon fill="white" stroke="#666666" points="612,-300 467,-300 467,-280 612,-280 612,-300"/>
<text text-anchor="middle" x="539.5" y="-287.2" font-family="Consolas" font-size="11.00">IterativeSolver.hpp</text>
</a>
</g>
</g>
<!-- Node24&#45;&gt;Node29 -->
<g id="edge33" class="edge">
<title>Node24&#45;&gt;Node29</title>
<path fill="none" stroke="#63b8ff" d="M742.66,-335.96C700.79,-326.69 635.57,-312.26 590.37,-302.26"/>
<polygon fill="#63b8ff" stroke="#63b8ff" points="590.99,-298.81 580.47,-300.07 589.48,-305.65 590.99,-298.81"/>
</g>
<!-- Node32 -->
<g id="node32" class="node">
<title>Node32</title>
<g id="a_node32"><a xlink:href="../../db/d46/_i_l_u_8hpp.html" target="_top" xlink:title=" ">
<polygon fill="white" stroke="#666666" points="815.5,-300 751.5,-300 751.5,-280 815.5,-280 815.5,-300"/>
<text text-anchor="middle" x="783.5" y="-287.2" font-family="Consolas" font-size="11.00">ILU.hpp</text>
</a>
</g>
</g>
<!-- Node24&#45;&gt;Node32 -->
<g id="edge38" class="edge">
<title>Node24&#45;&gt;Node32</title>
<path fill="none" stroke="#63b8ff" d="M783.5,-335.59C783.5,-328.7 783.5,-319.1 783.5,-310.57"/>
<polygon fill="#63b8ff" stroke="#63b8ff" points="787,-310.3 783.5,-300.3 780,-310.3 787,-310.3"/>
</g>
<!-- Node35 -->
<g id="node35" class="node">
<title>Node35</title>
<g id="a_node35"><a xlink:href="../../dc/d70/_jacobi_8hpp.html" target="_top" xlink:title=" ">
<polygon fill="white" stroke="#666666" points="718.5,-300 634.5,-300 634.5,-280 718.5,-280 718.5,-300"/>
<text text-anchor="middle" x="676.5" y="-287.2" font-family="Consolas" font-size="11.00">Jacobi.hpp</text>
</a>
</g>
</g>
<!-- Node24&#45;&gt;Node35 -->
<g id="edge44" class="edge">
<title>Node24&#45;&gt;Node35</title>
<path fill="none" stroke="#63b8ff" d="M765.35,-335.84C748.34,-327.25 722.7,-314.31 703.32,-304.54"/>
<polygon fill="#63b8ff" stroke="#63b8ff" points="704.89,-301.41 694.38,-300.03 701.73,-307.66 704.89,-301.41"/>
</g>
<!-- Node26 -->
<g id="node26" class="node">
<title>Node26</title>
<g id="a_node26"><a xlink:href="../../d5/d47/utility_8h.html" target="_top" xlink:title=" ">
<polygon fill="white" stroke="#666666" points="598,-132 467,-132 467,-112 598,-112 598,-132"/>
<text text-anchor="middle" x="532.5" y="-119.2" font-family="Consolas" font-size="11.00">Toolbox/utility.h</text>
</a>
</g>
</g>
<!-- Node25&#45;&gt;Node26 -->
<g id="edge29" class="edge">
<title>Node25&#45;&gt;Node26</title>
<path fill="none" stroke="#63b8ff" d="M738.16,-167.96C695.77,-158.69 629.75,-144.26 583.99,-134.26"/>
<polygon fill="#63b8ff" stroke="#63b8ff" points="584.49,-130.78 573.98,-132.07 583,-137.62 584.49,-130.78"/>
</g>
<!-- Node28 -->
<g id="node28" class="node">
<title>Node28</title>
<g id="a_node28"><a xlink:title=" ">
<polygon fill="#e0e0e0" stroke="#999999" points="811.5,-132 747.5,-132 747.5,-112 811.5,-112 811.5,-132"/>
<text text-anchor="middle" x="779.5" y="-119.2" font-family="Consolas" font-size="11.00">numeric</text>
</a>
</g>
</g>
<!-- Node25&#45;&gt;Node28 -->
<g id="edge32" class="edge">
<title>Node25&#45;&gt;Node28</title>
<path fill="none" stroke="#63b8ff" d="M779.5,-167.59C779.5,-160.7 779.5,-151.1 779.5,-142.57"/>
<polygon fill="#63b8ff" stroke="#63b8ff" points="783,-142.3 779.5,-132.3 776,-142.3 783,-142.3"/>
</g>
<!-- Node26&#45;&gt;Node4 -->
<g id="edge31" class="edge">
<title>Node26&#45;&gt;Node4</title>
<path fill="none" stroke="#63b8ff" d="M510.41,-111.96C488.99,-103.2 456.29,-89.82 432.12,-79.93"/>
<polygon fill="#63b8ff" stroke="#63b8ff" points="433.25,-76.61 422.67,-76.07 430.6,-83.09 433.25,-76.61"/>
</g>
<!-- Node27 -->
<g id="node27" class="node">
<title>Node27</title>
<g id="a_node27"><a xlink:title=" ">
<polygon fill="#e0e0e0" stroke="#999999" points="568,-76 497,-76 497,-56 568,-56 568,-76"/>
<text text-anchor="middle" x="532.5" y="-63.2" font-family="Consolas" font-size="11.00">concepts</text>
</a>
</g>
</g>
<!-- Node26&#45;&gt;Node27 -->
<g id="edge30" class="edge">
<title>Node26&#45;&gt;Node27</title>
<path fill="none" stroke="#63b8ff" d="M532.5,-111.59C532.5,-104.7 532.5,-95.1 532.5,-86.57"/>
<polygon fill="#63b8ff" stroke="#63b8ff" points="536,-86.3 532.5,-76.3 529,-86.3 536,-86.3"/>
</g>
<!-- Node29&#45;&gt;Node26 -->
<g id="edge34" class="edge">
<title>Node29&#45;&gt;Node26</title>
<path fill="none" stroke="#63b8ff" d="M511.45,-279.89C494.89,-272.9 475.3,-261.43 465.5,-244 444.28,-206.25 486.21,-161.64 512.84,-138.57"/>
<polygon fill="#63b8ff" stroke="#63b8ff" points="515.11,-141.23 520.53,-132.13 510.62,-135.87 515.11,-141.23"/>
</g>
<!-- Node30 -->
<g id="node30" class="node">
<title>Node30</title>
<g id="a_node30"><a xlink:href="../../d7/de3/_solver_setting_8hpp.html" target="_top" xlink:title=" ">
<polygon fill="white" stroke="#666666" points="605,-244 474,-244 474,-224 605,-224 605,-244"/>
<text text-anchor="middle" x="539.5" y="-231.2" font-family="Consolas" font-size="11.00">SolverSetting.hpp</text>
</a>
</g>
</g>
<!-- Node29&#45;&gt;Node30 -->
<g id="edge35" class="edge">
<title>Node29&#45;&gt;Node30</title>
<path fill="none" stroke="#63b8ff" d="M539.5,-279.59C539.5,-272.7 539.5,-263.1 539.5,-254.57"/>
<polygon fill="#63b8ff" stroke="#63b8ff" points="543,-254.3 539.5,-244.3 536,-254.3 543,-254.3"/>
</g>
<!-- Node31 -->
<g id="node31" class="node">
<title>Node31</title>
<g id="a_node31"><a xlink:href="../../d7/de4/_preconditioner_8hpp.html" target="_top" xlink:title=" ">
<polygon fill="white" stroke="#666666" points="670.5,-188 532.5,-188 532.5,-168 670.5,-168 670.5,-188"/>
<text text-anchor="middle" x="601.5" y="-175.2" font-family="Consolas" font-size="11.00">Preconditioner.hpp</text>
</a>
</g>
</g>
<!-- Node30&#45;&gt;Node31 -->
<g id="edge36" class="edge">
<title>Node30&#45;&gt;Node31</title>
<path fill="none" stroke="#63b8ff" d="M550.02,-223.84C559.16,-215.88 572.6,-204.17 583.45,-194.72"/>
<polygon fill="#63b8ff" stroke="#63b8ff" points="585.9,-197.23 591.14,-188.03 581.3,-191.95 585.9,-197.23"/>
</g>
<!-- Node31&#45;&gt;Node4 -->
<g id="edge37" class="edge">
<title>Node31&#45;&gt;Node4</title>
<path fill="none" stroke="#63b8ff" d="M550.65,-167.98C521.95,-161.24 486.37,-150.01 458.5,-132 439.35,-119.63 422.65,-99.3 412.15,-84.66"/>
<polygon fill="#63b8ff" stroke="#63b8ff" points="415.01,-82.65 406.44,-76.41 409.25,-86.63 415.01,-82.65"/>
</g>
<!-- Node32&#45;&gt;Node25 -->
<g id="edge43" class="edge">
<title>Node32&#45;&gt;Node25</title>
<path fill="none" stroke="#63b8ff" d="M815.56,-289.63C886.27,-289.97 1045.56,-284.27 996.5,-224 978.44,-201.81 908.11,-190.21 852.35,-184.39"/>
<polygon fill="#63b8ff" stroke="#63b8ff" points="852.42,-180.88 842.12,-183.37 851.72,-187.85 852.42,-180.88"/>
</g>
<!-- Node32&#45;&gt;Node31 -->
<g id="edge40" class="edge">
<title>Node32&#45;&gt;Node31</title>
<path fill="none" stroke="#63b8ff" d="M761.88,-279.87C742.65,-271.44 714.03,-258.13 690.5,-244 665.36,-228.9 638.42,-208.58 620.84,-194.7"/>
<polygon fill="#63b8ff" stroke="#63b8ff" points="622.57,-191.6 612.57,-188.1 618.2,-197.07 622.57,-191.6"/>
</g>
<!-- Node33 -->
<g id="node33" class="node">
<title>Node33</title>
<g id="a_node33"><a xlink:title=" ">
<polygon fill="#e0e0e0" stroke="#999999" points="987.5,-244 815.5,-244 815.5,-224 987.5,-224 987.5,-244"/>
<text text-anchor="middle" x="901.5" y="-231.2" font-family="Consolas" font-size="11.00">superlu&#45;mt/superlu&#45;mt.h</text>
</a>
</g>
</g>
<!-- Node32&#45;&gt;Node33 -->
<g id="edge39" class="edge">
<title>Node32&#45;&gt;Node33</title>
<path fill="none" stroke="#63b8ff" d="M803.25,-279.96C822.14,-271.32 850.85,-258.18 872.37,-248.33"/>
<polygon fill="#63b8ff" stroke="#63b8ff" points="874.05,-251.41 881.69,-244.07 871.14,-245.05 874.05,-251.41"/>
</g>
<!-- Node34 -->
<g id="node34" class="node">
<title>Node34</title>
<g id="a_node34"><a xlink:href="../../d6/dc3/csc__form_8hpp.html" target="_top" xlink:title=" ">
<polygon fill="white" stroke="#666666" points="797.5,-244 699.5,-244 699.5,-224 797.5,-224 797.5,-244"/>
<text text-anchor="middle" x="748.5" y="-231.2" font-family="Consolas" font-size="11.00">csc_form.hpp</text>
</a>
</g>
</g>
<!-- Node32&#45;&gt;Node34 -->
<g id="edge41" class="edge">
<title>Node32&#45;&gt;Node34</title>
<path fill="none" stroke="#63b8ff" d="M777.4,-279.59C772.64,-272.24 765.87,-261.8 760.08,-252.87"/>
<polygon fill="#63b8ff" stroke="#63b8ff" points="762.9,-250.79 754.53,-244.3 757.03,-254.59 762.9,-250.79"/>
</g>
<!-- Node34&#45;&gt;Node25 -->
<g id="edge42" class="edge">
<title>Node34&#45;&gt;Node25</title>
<path fill="none" stroke="#63b8ff" d="M753.9,-223.59C758.08,-216.32 763.99,-206.02 769.08,-197.15"/>
<polygon fill="#63b8ff" stroke="#63b8ff" points="772.22,-198.71 774.16,-188.3 766.15,-195.23 772.22,-198.71"/>
</g>
<!-- Node35&#45;&gt;Node31 -->
<g id="edge45" class="edge">
<title>Node35&#45;&gt;Node31</title>
<path fill="none" stroke="#63b8ff" d="M670.36,-280C657.95,-261.79 629.66,-220.3 613.47,-196.55"/>
<polygon fill="#63b8ff" stroke="#63b8ff" points="616.25,-194.42 607.72,-188.13 610.46,-198.36 616.25,-194.42"/>
</g>
<!-- Node36&#45;&gt;Node23 -->
<g id="edge47" class="edge">
<title>Node36&#45;&gt;Node23</title>
<path fill="none" stroke="#63b8ff" d="M787.5,-447.59C787.5,-440.7 787.5,-431.1 787.5,-422.57"/>
<polygon fill="#63b8ff" stroke="#63b8ff" points="791,-422.3 787.5,-412.3 784,-422.3 791,-422.3"/>
</g>
</g>
</svg>
