<?xml version="1.0" encoding="UTF-8" standalone="no"?>
<!DOCTYPE svg PUBLIC "-//W3C//DTD SVG 1.1//EN"
 "http://www.w3.org/Graphics/SVG/1.1/DTD/svg11.dtd">
<!-- Generated by graphviz version 2.43.0 (0)
 -->
<!-- Title: Degradation::initialize Pages: 1 -->
<svg width="374pt" height="128pt"
 viewBox="0.00 0.00 374.00 128.00" xmlns="http://www.w3.org/2000/svg" xmlns:xlink="http://www.w3.org/1999/xlink">
<g id="graph0" class="graph" transform="scale(1 1) rotate(0) translate(4 124)">
<title>Degradation::initialize</title>
<!-- Node1 -->
<g id="Node000001" class="node">
<title>Node1</title>
<g id="a_Node000001"><a xlink:title=" ">
<polygon fill="#999999" stroke="#666666" points="172,-70 0,-70 0,-50 172,-50 172,-70"/>
<text text-anchor="middle" x="86" y="-57.2" font-family="Consolas" font-size="11.00">Degradation::initialize</text>
</a>
</g>
</g>
<!-- Node2 -->
<g id="Node000002" class="node">
<title>Node2</title>
<g id="a_Node000002"><a xlink:href="../../db/d75/class_degradation.html#a5b8dbc19598a84b9276ce8b018a15e58" target="_top" xlink:title=" ">
<polygon fill="white" stroke="#666666" points="366,-120 208,-120 208,-88 366,-88 366,-120"/>
<text text-anchor="start" x="216" y="-107.2" font-family="Consolas" font-size="11.00">Degradation::compute</text>
<text text-anchor="middle" x="287" y="-95.2" font-family="Consolas" font-size="11.00">_positive_degradation</text>
</a>
</g>
</g>
<!-- Node1&#45;&gt;Node2 -->
<g id="edge1_Node000001_Node000002" class="edge">
<title>Node1&#45;&gt;Node2</title>
<g id="a_edge1_Node000001_Node000002"><a xlink:title=" ">
<path fill="none" stroke="#63b8ff" d="M132.65,-70.09C153.63,-74.73 179.18,-80.38 203.36,-85.73"/>
<polygon fill="#63b8ff" stroke="#63b8ff" points="202.74,-89.18 213.26,-87.92 204.25,-82.34 202.74,-89.18"/>
</a>
</g>
</g>
<!-- Node3 -->
<g id="Node000003" class="node">
<title>Node3</title>
<g id="a_Node000003"><a xlink:href="../../dc/dee/class_material.html#aede2f9427250c8560ac6547b16d6110a" target="_top" xlink:title=" ">
<polygon fill="white" stroke="#666666" points="366,-70 208,-70 208,-50 366,-50 366,-70"/>
<text text-anchor="middle" x="287" y="-57.2" font-family="Consolas" font-size="11.00">Material::get_density</text>
</a>
</g>
</g>
<!-- Node1&#45;&gt;Node3 -->
<g id="edge2_Node000001_Node000003" class="edge">
<title>Node1&#45;&gt;Node3</title>
<g id="a_edge2_Node000001_Node000003"><a xlink:title=" ">
<path fill="none" stroke="#63b8ff" d="M172.26,-60C180.66,-60 189.2,-60 197.63,-60"/>
<polygon fill="#63b8ff" stroke="#63b8ff" points="197.84,-63.5 207.84,-60 197.84,-56.5 197.84,-63.5"/>
</a>
</g>
</g>
<!-- Node4 -->
<g id="Node000004" class="node">
<title>Node4</title>
<g id="a_Node000004"><a xlink:href="../../dc/dee/class_material.html#a7ee1a5e060b0dd313f95d1afa6a71db8" target="_top" xlink:title=" ">
<polygon fill="white" stroke="#666666" points="366,-32 208,-32 208,0 366,0 366,-32"/>
<text text-anchor="start" x="216" y="-19.2" font-family="Consolas" font-size="11.00">Material::get_initial</text>
<text text-anchor="middle" x="287" y="-7.2" font-family="Consolas" font-size="11.00">_stiffness</text>
</a>
</g>
</g>
<!-- Node1&#45;&gt;Node4 -->
<g id="edge3_Node000001_Node000004" class="edge">
<title>Node1&#45;&gt;Node4</title>
<g id="a_edge3_Node000001_Node000004"><a xlink:title=" ">
<path fill="none" stroke="#63b8ff" d="M132.65,-49.91C153.63,-45.27 179.18,-39.62 203.36,-34.27"/>
<polygon fill="#63b8ff" stroke="#63b8ff" points="204.25,-37.66 213.26,-32.08 202.74,-30.82 204.25,-37.66"/>
</a>
</g>
</g>
</g>
</svg>
