<?xml version="1.0" encoding="UTF-8" standalone="no"?>
<!DOCTYPE svg PUBLIC "-//W3C//DTD SVG 1.1//EN"
 "http://www.w3.org/Graphics/SVG/1.1/DTD/svg11.dtd">
<!-- Generated by graphviz version 2.43.0 (0)
 -->
<!-- Title: SurfaceNM2D Pages: 1 -->
<svg width="240pt" height="260pt"
 viewBox="0.00 0.00 240.00 260.00" xmlns="http://www.w3.org/2000/svg" xmlns:xlink="http://www.w3.org/1999/xlink">
<g id="graph0" class="graph" transform="scale(1 1) rotate(0) translate(4 256)">
<title>SurfaceNM2D</title>
<!-- Node1 -->
<g id="Node000001" class="node">
<title>Node1</title>
<g id="a_Node000001"><a xlink:title="A SurfaceNM2D class.">
<polygon fill="#999999" stroke="transparent" points="172.5,-252 58.5,-252 58.5,-152 172.5,-152 172.5,-252"/>
<text text-anchor="start" x="78" y="-239.2" font-family="Consolas" font-size="11.00">SurfaceNM2D</text>
<text text-anchor="start" x="112" y="-223.2" font-family="Consolas" font-size="11.00"> </text>
<text text-anchor="start" x="62.5" y="-207.2" font-family="Consolas" font-size="11.00">+</text>
<text text-anchor="start" x="73.5" y="-207.2" font-family="Consolas" font-size="11.00">SurfaceNM2D()</text>
<text text-anchor="start" x="62.5" y="-191.2" font-family="Consolas" font-size="11.00">+</text>
<text text-anchor="start" x="73.5" y="-191.2" font-family="Consolas" font-size="11.00">compute_sf()</text>
<text text-anchor="start" x="62.5" y="-175.2" font-family="Consolas" font-size="11.00">+</text>
<text text-anchor="start" x="73.5" y="-175.2" font-family="Consolas" font-size="11.00">compute_dsf()</text>
<text text-anchor="start" x="62.5" y="-159.2" font-family="Consolas" font-size="11.00">+</text>
<text text-anchor="start" x="73.5" y="-159.2" font-family="Consolas" font-size="11.00">compute_ddsf()</text>
<polygon fill="#666666" stroke="#666666" points="58.5,-234 58.5,-234 172.5,-234 172.5,-234 58.5,-234"/>
<polygon fill="#666666" stroke="#666666" points="58.5,-218 58.5,-218 172.5,-218 172.5,-218 58.5,-218"/>
<polygon fill="none" stroke="#666666" points="58.5,-152 58.5,-252 172.5,-252 172.5,-152 58.5,-152"/>
</a>
</g>
</g>
<!-- Node2 -->
<g id="Node000002" class="node">
<title>Node2</title>
<g id="a_Node000002"><a xlink:href="../../dd/d7a/class_n_m2_d2.html" target="_top" xlink:title="A NM2D2 class.">
<polygon fill="white" stroke="transparent" points="107,-116 0,-116 0,0 107,0 107,-116"/>
<text text-anchor="start" x="37" y="-103.2" font-family="Consolas" font-size="11.00">NM2D2</text>
<text text-anchor="start" x="50.5" y="-87.2" font-family="Consolas" font-size="11.00"> </text>
<text text-anchor="start" x="4.5" y="-71.2" font-family="Consolas" font-size="11.00">+</text>
<text text-anchor="start" x="15.5" y="-71.2" font-family="Consolas" font-size="11.00">NM2D2()</text>
<text text-anchor="start" x="4.5" y="-55.2" font-family="Consolas" font-size="11.00">+</text>
<text text-anchor="start" x="15.5" y="-55.2" font-family="Consolas" font-size="11.00">get_copy()</text>
<text text-anchor="start" x="4.5" y="-39.2" font-family="Consolas" font-size="11.00">#</text>
<text text-anchor="start" x="15.5" y="-39.2" font-family="Consolas" font-size="11.00">compute_f()</text>
<text text-anchor="start" x="4.5" y="-23.2" font-family="Consolas" font-size="11.00">#</text>
<text text-anchor="start" x="15.5" y="-23.2" font-family="Consolas" font-size="11.00">compute_df()</text>
<text text-anchor="start" x="4.5" y="-7.2" font-family="Consolas" font-size="11.00">#</text>
<text text-anchor="start" x="15.5" y="-7.2" font-family="Consolas" font-size="11.00">compute_ddf()</text>
<polygon fill="#666666" stroke="#666666" points="0.5,-98 0.5,-98 107.5,-98 107.5,-98 0.5,-98"/>
<polygon fill="#666666" stroke="#666666" points="0.5,-82 0.5,-82 107.5,-82 107.5,-82 0.5,-82"/>
<polygon fill="none" stroke="#666666" points="0,0 0,-116 107,-116 107,0 0,0"/>
</a>
</g>
</g>
<!-- Node1&#45;&gt;Node2 -->
<g id="edge1_Node000001_Node000002" class="edge">
<title>Node1&#45;&gt;Node2</title>
<g id="a_edge1_Node000001_Node000002"><a xlink:title=" ">
<path fill="none" stroke="darkgreen" d="M89.97,-142.52C86.21,-133.91 82.34,-125.06 78.59,-116.47"/>
<polygon fill="none" stroke="darkgreen" points="86.78,-143.97 93.99,-151.73 93.2,-141.17 86.78,-143.97"/>
</a>
</g>
</g>
<!-- Node3 -->
<g id="Node000003" class="node">
<title>Node3</title>
<g id="a_Node000003"><a xlink:href="../../d6/d88/class_n_m2_d3.html" target="_top" xlink:title="A NM2D3 class.">
<polygon fill="white" stroke="transparent" points="232,-116 125,-116 125,0 232,0 232,-116"/>
<text text-anchor="start" x="162" y="-103.2" font-family="Consolas" font-size="11.00">NM2D3</text>
<text text-anchor="start" x="175.5" y="-87.2" font-family="Consolas" font-size="11.00"> </text>
<text text-anchor="start" x="129.5" y="-71.2" font-family="Consolas" font-size="11.00">+</text>
<text text-anchor="start" x="140.5" y="-71.2" font-family="Consolas" font-size="11.00">NM2D3()</text>
<text text-anchor="start" x="129.5" y="-55.2" font-family="Consolas" font-size="11.00">+</text>
<text text-anchor="start" x="140.5" y="-55.2" font-family="Consolas" font-size="11.00">get_copy()</text>
<text text-anchor="start" x="129.5" y="-39.2" font-family="Consolas" font-size="11.00">#</text>
<text text-anchor="start" x="140.5" y="-39.2" font-family="Consolas" font-size="11.00">compute_f()</text>
<text text-anchor="start" x="129.5" y="-23.2" font-family="Consolas" font-size="11.00">#</text>
<text text-anchor="start" x="140.5" y="-23.2" font-family="Consolas" font-size="11.00">compute_df()</text>
<text text-anchor="start" x="129.5" y="-7.2" font-family="Consolas" font-size="11.00">#</text>
<text text-anchor="start" x="140.5" y="-7.2" font-family="Consolas" font-size="11.00">compute_ddf()</text>
<polygon fill="#666666" stroke="#666666" points="125.5,-98 125.5,-98 232.5,-98 232.5,-98 125.5,-98"/>
<polygon fill="#666666" stroke="#666666" points="125.5,-82 125.5,-82 232.5,-82 232.5,-82 125.5,-82"/>
<polygon fill="none" stroke="#666666" points="125,0 125,-116 232,-116 232,0 125,0"/>
</a>
</g>
</g>
<!-- Node1&#45;&gt;Node3 -->
<g id="edge2_Node000001_Node000003" class="edge">
<title>Node1&#45;&gt;Node3</title>
<g id="a_edge2_Node000001_Node000003"><a xlink:title=" ">
<path fill="none" stroke="darkgreen" d="M141.45,-142.52C145.26,-133.91 149.19,-125.06 153,-116.47"/>
<polygon fill="none" stroke="darkgreen" points="138.21,-141.17 137.36,-151.73 144.61,-144.01 138.21,-141.17"/>
</a>
</g>
</g>
</g>
</svg>
