<?xml version="1.0" encoding="UTF-8" standalone="no"?>
<!DOCTYPE svg PUBLIC "-//W3C//DTD SVG 1.1//EN"
 "http://www.w3.org/Graphics/SVG/1.1/DTD/svg11.dtd">
<!-- Generated by graphviz version 8.1.0 (20230707.0739)
 -->
<!-- Title: SectionNM2D Pages: 1 -->
<svg width="960pt" height="1204pt"
 viewBox="0.00 0.00 960.39 1203.50" xmlns="http://www.w3.org/2000/svg" xmlns:xlink="http://www.w3.org/1999/xlink">
<g id="graph0" class="graph" transform="scale(1 1) rotate(0) translate(4 1199.5)">
<title>SectionNM2D</title>
<!-- Node1 -->
<g id="Node000001" class="node">
<title>Node1</title>
<g id="a_Node000001"><a xlink:title="A SectionNM2D class.">
<polygon fill="#999999" stroke="none" points="863.39,-72 767.39,-72 767.39,0 863.39,0 863.39,-72"/>
<text text-anchor="start" x="782.39" y="-57.55" font-family="Consolas" font-size="11.00">SectionNM2D</text>
<text text-anchor="start" x="812.39" y="-40.55" font-family="Consolas" font-size="11.00"> </text>
<text text-anchor="start" x="771.39" y="-23.55" font-family="Consolas" font-size="11.00">+</text>
<text text-anchor="start" x="781.39" y="-23.55" font-family="Consolas" font-size="11.00">SectionNM2D()</text>
<text text-anchor="start" x="771.39" y="-6.55" font-family="Consolas" font-size="11.00">+</text>
<text text-anchor="start" x="781.39" y="-6.55" font-family="Consolas" font-size="11.00">initialize()</text>
<polygon fill="#666666" stroke="#666666" points="767.39,-53 767.39,-53 863.39,-53 863.39,-53 767.39,-53"/>
<polygon fill="#666666" stroke="#666666" points="767.39,-36 767.39,-36 863.39,-36 863.39,-36 767.39,-36"/>
<polygon fill="none" stroke="#666666" points="767.39,0 767.39,-72 863.39,-72 863.39,0 767.39,0"/>
</a>
</g>
</g>
<!-- Node2 -->
<g id="Node000002" class="node">
<title>Node2</title>
<g id="a_Node000002"><a xlink:href="../../d5/d13/struct_data_section_n_m2_d.html" target="_top" xlink:title=" ">
<polygon fill="white" stroke="none" points="946.39,-356 846.39,-356 846.39,-301 946.39,-301 946.39,-356"/>
<text text-anchor="start" x="851.39" y="-341.55" font-family="Consolas" font-size="11.00">DataSectionNM2D</text>
<text text-anchor="start" x="893.39" y="-324.55" font-family="Consolas" font-size="11.00"> </text>
<text text-anchor="start" x="893.39" y="-307.55" font-family="Consolas" font-size="11.00"> </text>
<polygon fill="#666666" stroke="#666666" points="846.39,-337 846.39,-337 946.39,-337 946.39,-337 846.39,-337"/>
<polygon fill="#666666" stroke="#666666" points="846.39,-320 846.39,-320 946.39,-320 946.39,-320 846.39,-320"/>
<polygon fill="none" stroke="#666666" points="846.39,-301 846.39,-356 946.39,-356 946.39,-301 846.39,-301"/>
</a>
</g>
</g>
<!-- Node2&#45;&gt;Node1 -->
<g id="edge1_Node000001_Node000002" class="edge">
<title>Node2&#45;&gt;Node1</title>
<g id="a_edge1_Node000001_Node000002"><a xlink:title=" ">
<path fill="none" stroke="darkgreen" d="M886.81,-290.55C875.43,-247.02 855.68,-172.57 837.39,-109 833.88,-96.82 829.88,-83.53 826.25,-71.72"/>
<polygon fill="none" stroke="darkgreen" points="883.67,-291.4 889.58,-300.19 890.45,-289.63 883.67,-291.4"/>
</a>
</g>
</g>
<!-- Node3 -->
<g id="Node000003" class="node">
<title>Node3</title>
<g id="a_Node000003"><a xlink:title=" ">
<polygon fill="white" stroke="none" points="766.39,-1195.5 720.39,-1195.5 720.39,-1140.5 766.39,-1140.5 766.39,-1195.5"/>
<text text-anchor="start" x="725.39" y="-1181.05" font-family="Consolas" font-size="11.00">double</text>
<text text-anchor="start" x="740.39" y="-1164.05" font-family="Consolas" font-size="11.00"> </text>
<text text-anchor="start" x="740.39" y="-1147.05" font-family="Consolas" font-size="11.00"> </text>
<polygon fill="#666666" stroke="#666666" points="720.39,-1176.5 720.39,-1176.5 766.39,-1176.5 766.39,-1176.5 720.39,-1176.5"/>
<polygon fill="#666666" stroke="#666666" points="720.39,-1159.5 720.39,-1159.5 766.39,-1159.5 766.39,-1159.5 720.39,-1159.5"/>
<polygon fill="none" stroke="#666666" points="720.39,-1140.5 720.39,-1195.5 766.39,-1195.5 766.39,-1140.5 720.39,-1140.5"/>
</a>
</g>
</g>
<!-- Node3&#45;&gt;Node2 -->
<g id="edge2_Node000002_Node000003" class="edge">
<title>Node3&#45;&gt;Node2</title>
<g id="a_edge2_Node000002_Node000003"><a xlink:title=" ">
<path fill="none" stroke="#63b8ff" d="M766.18,-1148.07C801.08,-1117.51 866.63,-1053.57 894.39,-983 956.99,-823.87 913.05,-769.92 918.39,-599 921.51,-499.05 941.15,-471.38 918.39,-374 917.89,-371.87 917.27,-369.72 916.57,-367.57"/>
<polygon fill="none" stroke="#63b8ff" points="916.56,-367.55 910.6,-363.47 912.07,-356.41 918.03,-360.49 916.56,-367.55"/>
</a>
</g>
<text text-anchor="middle" x="940.39" y="-839.55" font-family="Consolas" font-size="11.00" fill="grey"> +EA</text>
<text text-anchor="middle" x="940.39" y="-826.05" font-family="Consolas" font-size="11.00" fill="grey">+EIS</text>
</g>
<!-- Node4 -->
<g id="Node000004" class="node">
<title>Node4</title>
<g id="a_Node000004"><a xlink:href="../../df/db4/class_section_n_m.html" target="_top" xlink:title="A SectionNM class.">
<polygon fill="white" stroke="none" points="828.39,-283 690.39,-283 690.39,-109 828.39,-109 828.39,-283"/>
<text text-anchor="start" x="732.39" y="-268.55" font-family="Consolas" font-size="11.00">SectionNM</text>
<text text-anchor="start" x="756.39" y="-251.55" font-family="Consolas" font-size="11.00"> </text>
<text text-anchor="start" x="694.39" y="-234.55" font-family="Consolas" font-size="11.00">+</text>
<text text-anchor="start" x="704.39" y="-234.55" font-family="Consolas" font-size="11.00">initialize_history()</text>
<text text-anchor="start" x="694.39" y="-217.55" font-family="Consolas" font-size="11.00">+</text>
<text text-anchor="start" x="704.39" y="-217.55" font-family="Consolas" font-size="11.00">clear_status()</text>
<text text-anchor="start" x="694.39" y="-200.55" font-family="Consolas" font-size="11.00">+</text>
<text text-anchor="start" x="704.39" y="-200.55" font-family="Consolas" font-size="11.00">commit_status()</text>
<text text-anchor="start" x="694.39" y="-183.55" font-family="Consolas" font-size="11.00">+</text>
<text text-anchor="start" x="704.39" y="-183.55" font-family="Consolas" font-size="11.00">reset_status()</text>
<text text-anchor="start" x="694.39" y="-166.55" font-family="Consolas" font-size="11.00">+</text>
<text text-anchor="start" x="704.39" y="-166.55" font-family="Consolas" font-size="11.00">print()</text>
<text text-anchor="start" x="694.39" y="-149.55" font-family="Consolas" font-size="11.00">+</text>
<text text-anchor="start" x="704.39" y="-149.55" font-family="Consolas" font-size="11.00">Section()</text>
<text text-anchor="start" x="694.39" y="-132.55" font-family="Consolas" font-size="11.00">+</text>
<text text-anchor="start" x="704.39" y="-132.55" font-family="Consolas" font-size="11.00">Section()</text>
<text text-anchor="start" x="694.39" y="-115.55" font-family="Consolas" font-size="11.00">+</text>
<text text-anchor="start" x="704.39" y="-115.55" font-family="Consolas" font-size="11.00">Section()</text>
<polygon fill="#666666" stroke="#666666" points="690.39,-264 690.39,-264 828.39,-264 828.39,-264 690.39,-264"/>
<polygon fill="#666666" stroke="#666666" points="690.39,-247 690.39,-247 828.39,-247 828.39,-247 690.39,-247"/>
<polygon fill="none" stroke="#666666" points="690.39,-109 690.39,-283 828.39,-283 828.39,-109 690.39,-109"/>
</a>
</g>
</g>
<!-- Node3&#45;&gt;Node4 -->
<g id="edge14_Node000004_Node000003" class="edge">
<title>Node3&#45;&gt;Node4</title>
<g id="a_edge14_Node000004_Node000003"><a xlink:title=" ">
<path fill="none" stroke="#63b8ff" d="M743.83,-1140.55C745.83,-1019.15 754.19,-511.94 757.76,-295.54"/>
<polygon fill="none" stroke="#63b8ff" points="757.76,-295.54 753.86,-289.48 757.96,-283.54 761.86,-289.61 757.76,-295.54"/>
</a>
</g>
<text text-anchor="middle" x="784.39" y="-640.8" font-family="Consolas" font-size="11.00" fill="grey"> #tolerance</text>
</g>
<!-- Node8 -->
<g id="Node000008" class="node">
<title>Node8</title>
<g id="a_Node000008"><a xlink:href="../../d0/d02/struct_data_section.html" target="_top" xlink:title=" ">
<polygon fill="white" stroke="none" points="492.39,-864 416.39,-864 416.39,-809 492.39,-809 492.39,-864"/>
<text text-anchor="start" x="421.39" y="-849.55" font-family="Consolas" font-size="11.00">DataSection</text>
<text text-anchor="start" x="451.39" y="-832.55" font-family="Consolas" font-size="11.00"> </text>
<text text-anchor="start" x="451.39" y="-815.55" font-family="Consolas" font-size="11.00"> </text>
<polygon fill="#666666" stroke="#666666" points="416.39,-845 416.39,-845 492.39,-845 492.39,-845 416.39,-845"/>
<polygon fill="#666666" stroke="#666666" points="416.39,-828 416.39,-828 492.39,-828 492.39,-828 416.39,-828"/>
<polygon fill="none" stroke="#666666" points="416.39,-809 416.39,-864 492.39,-864 492.39,-809 416.39,-809"/>
</a>
</g>
</g>
<!-- Node3&#45;&gt;Node8 -->
<g id="edge11_Node000008_Node000003" class="edge">
<title>Node3&#45;&gt;Node8</title>
<g id="a_edge11_Node000008_Node000003"><a xlink:title=" ">
<path fill="none" stroke="#63b8ff" d="M720.68,-1163.52C696.78,-1158.64 659.86,-1147.37 639.39,-1122.5 604.3,-1079.86 639.43,-1049.7 613.39,-1001 585.48,-948.82 535.97,-901.84 499.59,-871.78"/>
<polygon fill="none" stroke="#63b8ff" points="499.72,-871.88 492.54,-871.21 490.41,-864.32 497.59,-865 499.72,-871.88"/>
</a>
</g>
<text text-anchor="middle" x="684.39" y="-1078.3" font-family="Consolas" font-size="11.00" fill="grey"> +area</text>
<text text-anchor="start" x="639.39" y="-1064.8" font-family="Consolas" font-size="11.00" fill="grey">+characteristic</text>
<text text-anchor="middle" x="684.39" y="-1051.3" font-family="Consolas" font-size="11.00" fill="grey">_length</text>
<text text-anchor="middle" x="684.39" y="-1037.8" font-family="Consolas" font-size="11.00" fill="grey">+linear_density</text>
</g>
<!-- Node4&#45;&gt;Node1 -->
<g id="edge3_Node000001_Node000004" class="edge">
<title>Node4&#45;&gt;Node1</title>
<g id="a_edge3_Node000001_Node000004"><a xlink:title=" ">
<path fill="none" stroke="#63b8ff" d="M793.43,-98.95C796.84,-89.35 800.11,-80.1 803.05,-71.8"/>
<polygon fill="none" stroke="#63b8ff" points="789.89,-97.47 789.85,-108.06 796.49,-99.81 789.89,-97.47"/>
</a>
</g>
</g>
<!-- Node5 -->
<g id="Node000005" class="node">
<title>Node5</title>
<g id="a_Node000005"><a xlink:href="../../d2/df3/struct_data_section_n_m.html" target="_top" xlink:title=" ">
<polygon fill="white" stroke="none" points="329.39,-672 241.39,-672 241.39,-617 329.39,-617 329.39,-672"/>
<text text-anchor="start" x="246.39" y="-657.55" font-family="Consolas" font-size="11.00">DataSectionNM</text>
<text text-anchor="start" x="282.39" y="-640.55" font-family="Consolas" font-size="11.00"> </text>
<text text-anchor="start" x="282.39" y="-623.55" font-family="Consolas" font-size="11.00"> </text>
<polygon fill="#666666" stroke="#666666" points="241.39,-653 241.39,-653 329.39,-653 329.39,-653 241.39,-653"/>
<polygon fill="#666666" stroke="#666666" points="241.39,-636 241.39,-636 329.39,-636 329.39,-636 241.39,-636"/>
<polygon fill="none" stroke="#666666" points="241.39,-617 241.39,-672 329.39,-672 329.39,-617 241.39,-617"/>
</a>
</g>
</g>
<!-- Node5&#45;&gt;Node4 -->
<g id="edge4_Node000004_Node000005" class="edge">
<title>Node5&#45;&gt;Node4</title>
<g id="a_edge4_Node000004_Node000005"><a xlink:title=" ">
<path fill="none" stroke="darkgreen" d="M320.95,-610C399.38,-536.12 588.33,-358.13 690.7,-261.7"/>
<polygon fill="none" stroke="darkgreen" points="319.15,-606.83 314.27,-616.24 323.95,-611.93 319.15,-606.83"/>
</a>
</g>
</g>
<!-- Node6 -->
<g id="Node000006" class="node">
<title>Node6</title>
<g id="a_Node000006"><a xlink:title=" ">
<polygon fill="white" stroke="none" points="95.39,-1195.5 67.39,-1195.5 67.39,-1140.5 95.39,-1140.5 95.39,-1195.5"/>
<text text-anchor="start" x="72.39" y="-1181.05" font-family="Consolas" font-size="11.00">vec</text>
<text text-anchor="start" x="78.39" y="-1164.05" font-family="Consolas" font-size="11.00"> </text>
<text text-anchor="start" x="78.39" y="-1147.05" font-family="Consolas" font-size="11.00"> </text>
<polygon fill="#666666" stroke="#666666" points="67.39,-1176.5 67.39,-1176.5 95.39,-1176.5 95.39,-1176.5 67.39,-1176.5"/>
<polygon fill="#666666" stroke="#666666" points="67.39,-1159.5 67.39,-1159.5 95.39,-1159.5 95.39,-1159.5 67.39,-1159.5"/>
<polygon fill="none" stroke="#666666" points="67.39,-1140.5 67.39,-1195.5 95.39,-1195.5 95.39,-1140.5 67.39,-1140.5"/>
</a>
</g>
</g>
<!-- Node6&#45;&gt;Node5 -->
<g id="edge5_Node000005_Node000006" class="edge">
<title>Node6&#45;&gt;Node5</title>
<g id="a_edge5_Node000005_Node000006"><a xlink:title=" ">
<path fill="none" stroke="#63b8ff" d="M67.43,-1162.04C51.75,-1155.64 27.11,-1142.82 16.39,-1122.5 -8.8,-1074.73 -0.8,-1052.19 16.39,-1001 62.19,-864.56 183.39,-738.76 246.28,-680.14"/>
<polygon fill="none" stroke="#63b8ff" points="246,-680.39 247.7,-673.38 254.82,-672.26 253.13,-679.27 246,-680.39"/>
</a>
</g>
<text text-anchor="middle" x="67.39" y="-1071.55" font-family="Consolas" font-size="11.00" fill="grey"> +current_history</text>
<text text-anchor="middle" x="67.39" y="-1058.05" font-family="Consolas" font-size="11.00" fill="grey">+initial_history</text>
<text text-anchor="middle" x="67.39" y="-1044.55" font-family="Consolas" font-size="11.00" fill="grey">+trial_history</text>
</g>
<!-- Node6&#45;&gt;Node8 -->
<g id="edge10_Node000008_Node000006" class="edge">
<title>Node6&#45;&gt;Node8</title>
<g id="a_edge10_Node000008_Node000006"><a xlink:title=" ">
<path fill="none" stroke="#63b8ff" d="M95.35,-1155.04C104.25,-1146.73 115.38,-1134.95 122.39,-1122.5 149.94,-1073.52 122.32,-1044.91 157.39,-1001 222.01,-920.1 338.06,-873.18 404.35,-851.74"/>
<polygon fill="none" stroke="#63b8ff" points="404.21,-851.78 408.73,-846.17 415.66,-848.18 411.14,-853.8 404.21,-851.78"/>
</a>
</g>
<text text-anchor="middle" x="220.39" y="-1112.05" font-family="Consolas" font-size="11.00" fill="grey"> +current_deformation</text>
<text text-anchor="start" x="157.39" y="-1098.55" font-family="Consolas" font-size="11.00" fill="grey">+current_deformation</text>
<text text-anchor="middle" x="220.39" y="-1085.05" font-family="Consolas" font-size="11.00" fill="grey">_rate</text>
<text text-anchor="middle" x="220.39" y="-1071.55" font-family="Consolas" font-size="11.00" fill="grey">+current_resistance</text>
<text text-anchor="middle" x="220.39" y="-1058.05" font-family="Consolas" font-size="11.00" fill="grey">+eccentricity</text>
<text text-anchor="middle" x="220.39" y="-1044.55" font-family="Consolas" font-size="11.00" fill="grey">+trial_deformation</text>
<text text-anchor="start" x="157.39" y="-1031.05" font-family="Consolas" font-size="11.00" fill="grey">+trial_deformation</text>
<text text-anchor="middle" x="220.39" y="-1017.55" font-family="Consolas" font-size="11.00" fill="grey">_rate</text>
<text text-anchor="middle" x="220.39" y="-1004.05" font-family="Consolas" font-size="11.00" fill="grey">+trial_resistance</text>
</g>
<!-- Node7 -->
<g id="Node000007" class="node">
<title>Node7</title>
<g id="a_Node000007"><a xlink:href="../../df/d29/class_section.html" target="_top" xlink:title="A Section class.">
<polygon fill="white" stroke="none" points="909.39,-599 771.39,-599 771.39,-374 909.39,-374 909.39,-599"/>
<text text-anchor="start" x="819.39" y="-584.55" font-family="Consolas" font-size="11.00">Section</text>
<text text-anchor="start" x="837.39" y="-567.55" font-family="Consolas" font-size="11.00"> </text>
<text text-anchor="start" x="775.39" y="-550.55" font-family="Consolas" font-size="11.00">+</text>
<text text-anchor="start" x="785.39" y="-550.55" font-family="Consolas" font-size="11.00">Section()</text>
<text text-anchor="start" x="775.39" y="-533.55" font-family="Consolas" font-size="11.00">+</text>
<text text-anchor="start" x="785.39" y="-533.55" font-family="Consolas" font-size="11.00">Section()</text>
<text text-anchor="start" x="775.39" y="-516.55" font-family="Consolas" font-size="11.00">+</text>
<text text-anchor="start" x="785.39" y="-516.55" font-family="Consolas" font-size="11.00">Section()</text>
<text text-anchor="start" x="775.39" y="-499.55" font-family="Consolas" font-size="11.00">+</text>
<text text-anchor="start" x="785.39" y="-499.55" font-family="Consolas" font-size="11.00">operator=()</text>
<text text-anchor="start" x="775.39" y="-482.55" font-family="Consolas" font-size="11.00">+</text>
<text text-anchor="start" x="785.39" y="-482.55" font-family="Consolas" font-size="11.00">operator=()</text>
<text text-anchor="start" x="775.39" y="-465.55" font-family="Consolas" font-size="11.00">+</text>
<text text-anchor="start" x="785.39" y="-465.55" font-family="Consolas" font-size="11.00">~Section()</text>
<text text-anchor="start" x="775.39" y="-448.55" font-family="Consolas" font-size="11.00">+</text>
<text text-anchor="start" x="785.39" y="-448.55" font-family="Consolas" font-size="11.00">get_section_type()</text>
<text text-anchor="start" x="775.39" y="-431.55" font-family="Consolas" font-size="11.00">+</text>
<text text-anchor="start" x="785.39" y="-431.55" font-family="Consolas" font-size="11.00">get_area()</text>
<text text-anchor="start" x="775.39" y="-414.55" font-family="Consolas" font-size="11.00">+</text>
<text text-anchor="start" x="785.39" y="-414.55" font-family="Consolas" font-size="11.00">get_linear_density()</text>
<text text-anchor="start" x="775.39" y="-397.55" font-family="Consolas" font-size="11.00">+</text>
<text text-anchor="start" x="785.39" y="-397.55" font-family="Consolas" font-size="11.00">initialize_base()</text>
<text text-anchor="start" x="785.39" y="-380.55" font-family="Consolas" font-size="11.00">and 34 more...</text>
<polygon fill="#666666" stroke="#666666" points="771.39,-580 771.39,-580 909.39,-580 909.39,-580 771.39,-580"/>
<polygon fill="#666666" stroke="#666666" points="771.39,-563 771.39,-563 909.39,-563 909.39,-563 771.39,-563"/>
<polygon fill="none" stroke="#666666" points="771.39,-374 771.39,-599 909.39,-599 909.39,-374 771.39,-374"/>
</a>
</g>
</g>
<!-- Node7&#45;&gt;Node4 -->
<g id="edge6_Node000004_Node000007" class="edge">
<title>Node7&#45;&gt;Node4</title>
<g id="a_edge6_Node000004_Node000007"><a xlink:title=" ">
<path fill="none" stroke="#63b8ff" d="M806.28,-364C798.63,-336.76 790.67,-308.42 783.53,-282.98"/>
<polygon fill="none" stroke="#63b8ff" points="803.12,-364.69 809.19,-373.37 809.86,-362.8 803.12,-364.69"/>
</a>
</g>
</g>
<!-- Node8&#45;&gt;Node7 -->
<g id="edge7_Node000007_Node000008" class="edge">
<title>Node8&#45;&gt;Node7</title>
<g id="a_edge7_Node000007_Node000008"><a xlink:title=" ">
<path fill="none" stroke="darkgreen" d="M491.61,-801.95C556.1,-743.8 689.58,-623.47 771.42,-549.68"/>
<polygon fill="none" stroke="darkgreen" points="489.8,-798.76 484.72,-808.06 494.49,-803.96 489.8,-798.76"/>
</a>
</g>
</g>
<!-- Node9 -->
<g id="Node000009" class="node">
<title>Node9</title>
<g id="a_Node000009"><a xlink:title=" ">
<polygon fill="white" stroke="none" points="322.39,-1195.5 264.39,-1195.5 264.39,-1140.5 322.39,-1140.5 322.39,-1195.5"/>
<text text-anchor="start" x="269.39" y="-1181.05" font-family="Consolas" font-size="11.00">unsigned</text>
<text text-anchor="start" x="290.39" y="-1164.05" font-family="Consolas" font-size="11.00"> </text>
<text text-anchor="start" x="290.39" y="-1147.05" font-family="Consolas" font-size="11.00"> </text>
<polygon fill="#666666" stroke="#666666" points="264.39,-1176.5 264.39,-1176.5 322.39,-1176.5 322.39,-1176.5 264.39,-1176.5"/>
<polygon fill="#666666" stroke="#666666" points="264.39,-1159.5 264.39,-1159.5 322.39,-1159.5 322.39,-1159.5 264.39,-1159.5"/>
<polygon fill="none" stroke="#666666" points="264.39,-1140.5 264.39,-1195.5 322.39,-1195.5 322.39,-1140.5 264.39,-1140.5"/>
</a>
</g>
</g>
<!-- Node9&#45;&gt;Node8 -->
<g id="edge8_Node000008_Node000009" class="edge">
<title>Node9&#45;&gt;Node8</title>
<g id="a_edge8_Node000008_Node000009"><a xlink:title=" ">
<path fill="none" stroke="#63b8ff" d="M289.94,-1140.75C286.63,-1106.94 284.68,-1047.07 304.39,-1001 326.9,-948.39 373.78,-901.79 409.18,-871.94"/>
<polygon fill="none" stroke="#63b8ff" points="408.88,-872.18 410.96,-865.28 418.14,-864.54 416.06,-871.45 408.88,-872.18"/>
</a>
</g>
<text text-anchor="middle" x="346.39" y="-1058.05" font-family="Consolas" font-size="11.00" fill="grey"> +material_tag</text>
</g>
<!-- Node10 -->
<g id="Node000010" class="node">
<title>Node10</title>
<g id="a_Node000010"><a xlink:title=" ">
<polygon fill="white" stroke="none" points="456.39,-1195.5 344.39,-1195.5 344.39,-1140.5 456.39,-1140.5 456.39,-1195.5"/>
<text text-anchor="start" x="349.39" y="-1181.05" font-family="Consolas" font-size="11.00">const SectionType</text>
<text text-anchor="start" x="397.39" y="-1164.05" font-family="Consolas" font-size="11.00"> </text>
<text text-anchor="start" x="397.39" y="-1147.05" font-family="Consolas" font-size="11.00"> </text>
<polygon fill="#666666" stroke="#666666" points="344.39,-1176.5 344.39,-1176.5 456.39,-1176.5 456.39,-1176.5 344.39,-1176.5"/>
<polygon fill="#666666" stroke="#666666" points="344.39,-1159.5 344.39,-1159.5 456.39,-1159.5 456.39,-1159.5 344.39,-1159.5"/>
<polygon fill="none" stroke="#666666" points="344.39,-1140.5 344.39,-1195.5 456.39,-1195.5 456.39,-1140.5 344.39,-1140.5"/>
</a>
</g>
</g>
<!-- Node10&#45;&gt;Node8 -->
<g id="edge9_Node000008_Node000010" class="edge">
<title>Node10&#45;&gt;Node8</title>
<g id="a_edge9_Node000008_Node000010"><a xlink:title=" ">
<path fill="none" stroke="#63b8ff" d="M396.93,-1140.61C393.29,-1107.68 389.14,-1049.74 397.39,-1001 404.91,-956.58 423.16,-908.14 437,-875.61"/>
<polygon fill="none" stroke="#63b8ff" points="436.92,-875.79 435.64,-868.7 441.69,-864.79 442.97,-871.88 436.92,-875.79"/>
</a>
</g>
<text text-anchor="middle" x="439.39" y="-1058.05" font-family="Consolas" font-size="11.00" fill="grey"> +section_type</text>
</g>
<!-- Node11 -->
<g id="Node000011" class="node">
<title>Node11</title>
<g id="a_Node000011"><a xlink:title=" ">
<polygon fill="white" stroke="none" points="521.39,-1195.5 493.39,-1195.5 493.39,-1140.5 521.39,-1140.5 521.39,-1195.5"/>
<text text-anchor="start" x="498.39" y="-1181.05" font-family="Consolas" font-size="11.00">mat</text>
<text text-anchor="start" x="504.39" y="-1164.05" font-family="Consolas" font-size="11.00"> </text>
<text text-anchor="start" x="504.39" y="-1147.05" font-family="Consolas" font-size="11.00"> </text>
<polygon fill="#666666" stroke="#666666" points="493.39,-1176.5 493.39,-1176.5 521.39,-1176.5 521.39,-1176.5 493.39,-1176.5"/>
<polygon fill="#666666" stroke="#666666" points="493.39,-1159.5 493.39,-1159.5 521.39,-1159.5 521.39,-1159.5 493.39,-1159.5"/>
<polygon fill="none" stroke="#666666" points="493.39,-1140.5 493.39,-1195.5 521.39,-1195.5 521.39,-1140.5 493.39,-1140.5"/>
</a>
</g>
</g>
<!-- Node11&#45;&gt;Node8 -->
<g id="edge12_Node000008_Node000011" class="edge">
<title>Node11&#45;&gt;Node8</title>
<g id="a_edge12_Node000008_Node000011"><a xlink:title=" ">
<path fill="none" stroke="#63b8ff" d="M504.37,-1140.77C500.49,-1108 493.31,-1050.22 485.39,-1001 478.51,-958.26 469.06,-909.53 462.41,-876.47"/>
<polygon fill="none" stroke="#63b8ff" points="462.4,-876.4 457.28,-871.31 460.01,-864.64 465.13,-869.73 462.4,-876.4"/>
</a>
</g>
<text text-anchor="middle" x="555.39" y="-1091.8" font-family="Consolas" font-size="11.00" fill="grey"> +current_geometry</text>
<text text-anchor="middle" x="555.39" y="-1078.3" font-family="Consolas" font-size="11.00" fill="grey">+current_stiffness</text>
<text text-anchor="middle" x="555.39" y="-1064.8" font-family="Consolas" font-size="11.00" fill="grey">+initial_geometry</text>
<text text-anchor="middle" x="555.39" y="-1051.3" font-family="Consolas" font-size="11.00" fill="grey">+initial_stiffness</text>
<text text-anchor="middle" x="555.39" y="-1037.8" font-family="Consolas" font-size="11.00" fill="grey">+trial_geometry</text>
<text text-anchor="middle" x="555.39" y="-1024.3" font-family="Consolas" font-size="11.00" fill="grey">+trial_stiffness</text>
</g>
<!-- Node12 -->
<g id="Node000012" class="node">
<title>Node12</title>
<g id="a_Node000012"><a xlink:href="../../d0/d57/class_tag.html" target="_top" xlink:title="A base Tag class.">
<polygon fill="white" stroke="none" points="885.39,-983 795.39,-983 795.39,-690 885.39,-690 885.39,-983"/>
<text text-anchor="start" x="831.39" y="-968.55" font-family="Consolas" font-size="11.00">Tag</text>
<text text-anchor="start" x="837.39" y="-951.55" font-family="Consolas" font-size="11.00"> </text>
<text text-anchor="start" x="799.39" y="-934.55" font-family="Consolas" font-size="11.00">+</text>
<text text-anchor="start" x="809.39" y="-934.55" font-family="Consolas" font-size="11.00">Tag()</text>
<text text-anchor="start" x="799.39" y="-917.55" font-family="Consolas" font-size="11.00">+</text>
<text text-anchor="start" x="809.39" y="-917.55" font-family="Consolas" font-size="11.00">Tag()</text>
<text text-anchor="start" x="799.39" y="-900.55" font-family="Consolas" font-size="11.00">+</text>
<text text-anchor="start" x="809.39" y="-900.55" font-family="Consolas" font-size="11.00">Tag()</text>
<text text-anchor="start" x="799.39" y="-883.55" font-family="Consolas" font-size="11.00">+</text>
<text text-anchor="start" x="809.39" y="-883.55" font-family="Consolas" font-size="11.00">operator=()</text>
<text text-anchor="start" x="799.39" y="-866.55" font-family="Consolas" font-size="11.00">+</text>
<text text-anchor="start" x="809.39" y="-866.55" font-family="Consolas" font-size="11.00">operator=()</text>
<text text-anchor="start" x="799.39" y="-849.55" font-family="Consolas" font-size="11.00">+</text>
<text text-anchor="start" x="809.39" y="-849.55" font-family="Consolas" font-size="11.00">~Tag()</text>
<text text-anchor="start" x="799.39" y="-832.55" font-family="Consolas" font-size="11.00">+</text>
<text text-anchor="start" x="809.39" y="-832.55" font-family="Consolas" font-size="11.00">set_tag()</text>
<text text-anchor="start" x="799.39" y="-815.55" font-family="Consolas" font-size="11.00">+</text>
<text text-anchor="start" x="809.39" y="-815.55" font-family="Consolas" font-size="11.00">get_tag()</text>
<text text-anchor="start" x="799.39" y="-798.55" font-family="Consolas" font-size="11.00">+</text>
<text text-anchor="start" x="809.39" y="-798.55" font-family="Consolas" font-size="11.00">enable()</text>
<text text-anchor="start" x="799.39" y="-781.55" font-family="Consolas" font-size="11.00">+</text>
<text text-anchor="start" x="809.39" y="-781.55" font-family="Consolas" font-size="11.00">disable()</text>
<text text-anchor="start" x="799.39" y="-764.55" font-family="Consolas" font-size="11.00">+</text>
<text text-anchor="start" x="809.39" y="-764.55" font-family="Consolas" font-size="11.00">guard()</text>
<text text-anchor="start" x="799.39" y="-747.55" font-family="Consolas" font-size="11.00">+</text>
<text text-anchor="start" x="809.39" y="-747.55" font-family="Consolas" font-size="11.00">unguard()</text>
<text text-anchor="start" x="799.39" y="-730.55" font-family="Consolas" font-size="11.00">+</text>
<text text-anchor="start" x="809.39" y="-730.55" font-family="Consolas" font-size="11.00">is_active()</text>
<text text-anchor="start" x="799.39" y="-713.55" font-family="Consolas" font-size="11.00">+</text>
<text text-anchor="start" x="809.39" y="-713.55" font-family="Consolas" font-size="11.00">is_guarded()</text>
<text text-anchor="start" x="799.39" y="-696.55" font-family="Consolas" font-size="11.00">+</text>
<text text-anchor="start" x="809.39" y="-696.55" font-family="Consolas" font-size="11.00">print()</text>
<polygon fill="#666666" stroke="#666666" points="795.39,-964 795.39,-964 885.39,-964 885.39,-964 795.39,-964"/>
<polygon fill="#666666" stroke="#666666" points="795.39,-947 795.39,-947 885.39,-947 885.39,-947 795.39,-947"/>
<polygon fill="none" stroke="#666666" points="795.39,-690 795.39,-983 885.39,-983 885.39,-690 795.39,-690"/>
</a>
</g>
</g>
<!-- Node12&#45;&gt;Node7 -->
<g id="edge13_Node000007_Node000012" class="edge">
<title>Node12&#45;&gt;Node7</title>
<g id="a_edge13_Node000007_Node000012"><a xlink:title=" ">
<path fill="none" stroke="#63b8ff" d="M840.39,-679.4C840.39,-652.21 840.39,-624.43 840.39,-598.76"/>
<polygon fill="none" stroke="#63b8ff" points="836.89,-679.18 840.39,-689.18 843.89,-679.18 836.89,-679.18"/>
</a>
</g>
</g>
</g>
</svg>
