<?xml version="1.0" encoding="UTF-8" standalone="no"?>
<!DOCTYPE svg PUBLIC "-//W3C//DTD SVG 1.1//EN"
 "http://www.w3.org/Graphics/SVG/1.1/DTD/svg11.dtd">
<!-- Generated by graphviz version 2.43.0 (0)
 -->
<!-- Title: ExpJ2 Pages: 1 -->
<svg width="502pt" height="1204pt"
 viewBox="0.00 0.00 501.50 1204.00" xmlns="http://www.w3.org/2000/svg" xmlns:xlink="http://www.w3.org/1999/xlink">
<g id="graph0" class="graph" transform="scale(1 1) rotate(0) translate(4 1200)">
<title>ExpJ2</title>
<!-- Node1 -->
<g id="Node000001" class="node">
<title>Node1</title>
<g id="a_Node000001"><a xlink:title="The ExpJ2 class.">
<polygon fill="#999999" stroke="transparent" points="175,-84 88,-84 88,0 175,0 175,-84"/>
<text text-anchor="start" x="115" y="-71.2" font-family="Consolas" font-size="11.00">ExpJ2</text>
<text text-anchor="start" x="128.5" y="-55.2" font-family="Consolas" font-size="11.00"> </text>
<text text-anchor="start" x="92.5" y="-39.2" font-family="Consolas" font-size="11.00">+</text>
<text text-anchor="start" x="103.5" y="-39.2" font-family="Consolas" font-size="11.00">ExpJ2()</text>
<text text-anchor="start" x="92.5" y="-23.2" font-family="Consolas" font-size="11.00">+</text>
<text text-anchor="start" x="103.5" y="-23.2" font-family="Consolas" font-size="11.00">get_copy()</text>
<text text-anchor="start" x="92.5" y="-7.2" font-family="Consolas" font-size="11.00">+</text>
<text text-anchor="start" x="103.5" y="-7.2" font-family="Consolas" font-size="11.00">print()</text>
<polygon fill="#666666" stroke="#666666" points="88.5,-66 88.5,-66 175.5,-66 175.5,-66 88.5,-66"/>
<polygon fill="#666666" stroke="#666666" points="88.5,-50 88.5,-50 175.5,-50 175.5,-50 88.5,-50"/>
<polygon fill="none" stroke="#666666" points="88,0 88,-84 175,-84 175,0 88,0"/>
</a>
</g>
</g>
<!-- Node2 -->
<g id="Node000002" class="node">
<title>Node2</title>
<g id="a_Node000002"><a xlink:href="../../dd/dba/struct_data_exp_j2.html" target="_top" xlink:title=" ">
<polygon fill="white" stroke="transparent" points="108,-244 7,-244 7,-160 108,-160 108,-244"/>
<text text-anchor="start" x="27.5" y="-231.2" font-family="Consolas" font-size="11.00">DataExpJ2</text>
<text text-anchor="start" x="11.5" y="-215.2" font-family="Consolas" font-size="11.00">+</text>
<text text-anchor="start" x="22.5" y="-215.2" font-family="Consolas" font-size="11.00">yield_stress</text>
<text text-anchor="start" x="11.5" y="-199.2" font-family="Consolas" font-size="11.00">+</text>
<text text-anchor="start" x="22.5" y="-199.2" font-family="Consolas" font-size="11.00">a</text>
<text text-anchor="start" x="11.5" y="-183.2" font-family="Consolas" font-size="11.00">+</text>
<text text-anchor="start" x="22.5" y="-183.2" font-family="Consolas" font-size="11.00">b</text>
<text text-anchor="start" x="54.5" y="-167.2" font-family="Consolas" font-size="11.00"> </text>
<polygon fill="#666666" stroke="#666666" points="7.5,-226 7.5,-226 108.5,-226 108.5,-226 7.5,-226"/>
<polygon fill="#666666" stroke="#666666" points="7.5,-178 7.5,-178 20.5,-178 20.5,-178 7.5,-178"/>
<polygon fill="#666666" stroke="#666666" points="20.5,-178 20.5,-178 108.5,-178 108.5,-178 20.5,-178"/>
<polygon fill="none" stroke="#666666" points="7,-160 7,-244 108,-244 108,-160 7,-160"/>
</a>
</g>
</g>
<!-- Node2&#45;&gt;Node1 -->
<g id="edge1_Node000001_Node000002" class="edge">
<title>Node2&#45;&gt;Node1</title>
<g id="a_edge1_Node000001_Node000002"><a xlink:title=" ">
<path fill="none" stroke="darkgreen" d="M81.1,-150.62C91.14,-129.18 102.7,-104.49 112.22,-84.17"/>
<polygon fill="none" stroke="darkgreen" points="77.82,-149.36 76.75,-159.9 84.16,-152.33 77.82,-149.36"/>
</a>
</g>
</g>
<!-- Node3 -->
<g id="Node000003" class="node">
<title>Node3</title>
<g id="a_Node000003"><a xlink:href="../../de/d54/class_nonlinear_j2.html" target="_top" xlink:title="The NonlinearJ2 class.">
<polygon fill="white" stroke="transparent" points="287,-284 126,-284 126,-120 287,-120 287,-284"/>
<text text-anchor="start" x="169.5" y="-271.2" font-family="Consolas" font-size="11.00">NonlinearJ2</text>
<text text-anchor="start" x="203.5" y="-255.2" font-family="Consolas" font-size="11.00"> </text>
<text text-anchor="start" x="130.5" y="-239.2" font-family="Consolas" font-size="11.00">+</text>
<text text-anchor="start" x="141.5" y="-239.2" font-family="Consolas" font-size="11.00">NonlinearJ2()</text>
<text text-anchor="start" x="130.5" y="-223.2" font-family="Consolas" font-size="11.00">+</text>
<text text-anchor="start" x="141.5" y="-223.2" font-family="Consolas" font-size="11.00">initialize()</text>
<text text-anchor="start" x="130.5" y="-207.2" font-family="Consolas" font-size="11.00">+</text>
<text text-anchor="start" x="141.5" y="-207.2" font-family="Consolas" font-size="11.00">get_parameter()</text>
<text text-anchor="start" x="130.5" y="-191.2" font-family="Consolas" font-size="11.00">+</text>
<text text-anchor="start" x="141.5" y="-191.2" font-family="Consolas" font-size="11.00">update_trial_status()</text>
<text text-anchor="start" x="130.5" y="-175.2" font-family="Consolas" font-size="11.00">+</text>
<text text-anchor="start" x="141.5" y="-175.2" font-family="Consolas" font-size="11.00">clear_status()</text>
<text text-anchor="start" x="130.5" y="-159.2" font-family="Consolas" font-size="11.00">+</text>
<text text-anchor="start" x="141.5" y="-159.2" font-family="Consolas" font-size="11.00">commit_status()</text>
<text text-anchor="start" x="130.5" y="-143.2" font-family="Consolas" font-size="11.00">+</text>
<text text-anchor="start" x="141.5" y="-143.2" font-family="Consolas" font-size="11.00">reset_status()</text>
<text text-anchor="start" x="130.5" y="-127.2" font-family="Consolas" font-size="11.00">+</text>
<text text-anchor="start" x="141.5" y="-127.2" font-family="Consolas" font-size="11.00">print()</text>
<polygon fill="#666666" stroke="#666666" points="126.5,-266 126.5,-266 287.5,-266 287.5,-266 126.5,-266"/>
<polygon fill="#666666" stroke="#666666" points="126.5,-250 126.5,-250 287.5,-250 287.5,-250 126.5,-250"/>
<polygon fill="none" stroke="#666666" points="126,-120 126,-284 287,-284 287,-120 126,-120"/>
</a>
</g>
</g>
<!-- Node3&#45;&gt;Node1 -->
<g id="edge2_Node000001_Node000003" class="edge">
<title>Node3&#45;&gt;Node1</title>
<g id="a_edge2_Node000001_Node000003"><a xlink:title=" ">
<path fill="none" stroke="#63b8ff" d="M163.56,-110.53C159.23,-101.43 155.01,-92.53 151.12,-84.34"/>
<polygon fill="none" stroke="#63b8ff" points="160.45,-112.15 167.9,-119.69 166.78,-109.15 160.45,-112.15"/>
</a>
</g>
</g>
<!-- Node4 -->
<g id="Node000004" class="node">
<title>Node4</title>
<g id="a_Node000004"><a xlink:href="../../d3/ddc/struct_data_nonlinear_j2.html" target="_top" xlink:title=" ">
<polygon fill="white" stroke="transparent" points="202,-388 81,-388 81,-320 202,-320 202,-388"/>
<text text-anchor="start" x="91" y="-375.2" font-family="Consolas" font-size="11.00">DataNonlinearJ2</text>
<text text-anchor="start" x="85.5" y="-359.2" font-family="Consolas" font-size="11.00">+</text>
<text text-anchor="start" x="96.5" y="-359.2" font-family="Consolas" font-size="11.00">elastic_modulus</text>
<text text-anchor="start" x="85.5" y="-343.2" font-family="Consolas" font-size="11.00">+</text>
<text text-anchor="start" x="96.5" y="-343.2" font-family="Consolas" font-size="11.00">poissons_ratio</text>
<text text-anchor="start" x="138.5" y="-327.2" font-family="Consolas" font-size="11.00"> </text>
<polygon fill="#666666" stroke="#666666" points="81.5,-370 81.5,-370 202.5,-370 202.5,-370 81.5,-370"/>
<polygon fill="#666666" stroke="#666666" points="81.5,-338 81.5,-338 94.5,-338 94.5,-338 81.5,-338"/>
<polygon fill="#666666" stroke="#666666" points="94.5,-338 94.5,-338 202.5,-338 202.5,-338 94.5,-338"/>
<polygon fill="none" stroke="#666666" points="81,-320 81,-388 202,-388 202,-320 81,-320"/>
</a>
</g>
</g>
<!-- Node4&#45;&gt;Node3 -->
<g id="edge3_Node000003_Node000004" class="edge">
<title>Node4&#45;&gt;Node3</title>
<g id="a_edge3_Node000003_Node000004"><a xlink:title=" ">
<path fill="none" stroke="darkgreen" d="M160,-310.32C163.58,-302.03 167.46,-293.1 171.38,-284.05"/>
<polygon fill="none" stroke="darkgreen" points="156.69,-309.14 155.93,-319.71 163.11,-311.93 156.69,-309.14"/>
</a>
</g>
</g>
<!-- Node5 -->
<g id="Node000005" class="node">
<title>Node5</title>
<g id="a_Node000005"><a xlink:href="../../d7/d42/class_material3_d.html" target="_top" xlink:title="The Material3D class.">
<polygon fill="white" stroke="transparent" points="321,-388 220,-388 220,-320 321,-320 321,-388"/>
<text text-anchor="start" x="237" y="-375.2" font-family="Consolas" font-size="11.00">Material3D</text>
<text text-anchor="start" x="267.5" y="-359.2" font-family="Consolas" font-size="11.00"> </text>
<text text-anchor="start" x="224.5" y="-343.2" font-family="Consolas" font-size="11.00">+</text>
<text text-anchor="start" x="235.5" y="-343.2" font-family="Consolas" font-size="11.00">Material3D()</text>
<text text-anchor="start" x="224.5" y="-327.2" font-family="Consolas" font-size="11.00">+</text>
<text text-anchor="start" x="235.5" y="-327.2" font-family="Consolas" font-size="11.00">record()</text>
<polygon fill="#666666" stroke="#666666" points="220.5,-370 220.5,-370 321.5,-370 321.5,-370 220.5,-370"/>
<polygon fill="#666666" stroke="#666666" points="220.5,-354 220.5,-354 321.5,-354 321.5,-354 220.5,-354"/>
<polygon fill="none" stroke="#666666" points="220,-320 220,-388 321,-388 321,-320 220,-320"/>
</a>
</g>
</g>
<!-- Node5&#45;&gt;Node3 -->
<g id="edge4_Node000003_Node000005" class="edge">
<title>Node5&#45;&gt;Node3</title>
<g id="a_edge4_Node000003_Node000005"><a xlink:title=" ">
<path fill="none" stroke="#63b8ff" d="M252.29,-310.32C248.75,-302.03 244.94,-293.1 241.08,-284.05"/>
<polygon fill="none" stroke="#63b8ff" points="249.15,-311.89 256.3,-319.71 255.59,-309.14 249.15,-311.89"/>
</a>
</g>
</g>
<!-- Node6 -->
<g id="Node000006" class="node">
<title>Node6</title>
<g id="a_Node000006"><a xlink:href="../../dc/dee/class_material.html" target="_top" xlink:title="A Material abstract base class.">
<polygon fill="white" stroke="transparent" points="351,-636 190,-636 190,-424 351,-424 351,-636"/>
<text text-anchor="start" x="243.5" y="-623.2" font-family="Consolas" font-size="11.00">Material</text>
<text text-anchor="start" x="267.5" y="-607.2" font-family="Consolas" font-size="11.00"> </text>
<text text-anchor="start" x="194.5" y="-591.2" font-family="Consolas" font-size="11.00">+</text>
<text text-anchor="start" x="205.5" y="-591.2" font-family="Consolas" font-size="11.00">Material()</text>
<text text-anchor="start" x="194.5" y="-575.2" font-family="Consolas" font-size="11.00">+</text>
<text text-anchor="start" x="205.5" y="-575.2" font-family="Consolas" font-size="11.00">get_density()</text>
<text text-anchor="start" x="194.5" y="-559.2" font-family="Consolas" font-size="11.00">+</text>
<text text-anchor="start" x="205.5" y="-559.2" font-family="Consolas" font-size="11.00">get_material_type()</text>
<text text-anchor="start" x="194.5" y="-543.2" font-family="Consolas" font-size="11.00">+</text>
<text text-anchor="start" x="205.5" y="-543.2" font-family="Consolas" font-size="11.00">get_plane_type()</text>
<text text-anchor="start" x="194.5" y="-527.2" font-family="Consolas" font-size="11.00">+</text>
<text text-anchor="start" x="205.5" y="-527.2" font-family="Consolas" font-size="11.00">initialize_base()</text>
<text text-anchor="start" x="194.5" y="-511.2" font-family="Consolas" font-size="11.00">+</text>
<text text-anchor="start" x="205.5" y="-511.2" font-family="Consolas" font-size="11.00">initialize()</text>
<text text-anchor="start" x="194.5" y="-495.2" font-family="Consolas" font-size="11.00">+</text>
<text text-anchor="start" x="205.5" y="-495.2" font-family="Consolas" font-size="11.00">initialize_couple()</text>
<text text-anchor="start" x="194.5" y="-479.2" font-family="Consolas" font-size="11.00">+</text>
<text text-anchor="start" x="205.5" y="-479.2" font-family="Consolas" font-size="11.00">initialize_history()</text>
<text text-anchor="start" x="194.5" y="-463.2" font-family="Consolas" font-size="11.00">+</text>
<text text-anchor="start" x="205.5" y="-463.2" font-family="Consolas" font-size="11.00">set_initial_history()</text>
<text text-anchor="start" x="194.5" y="-447.2" font-family="Consolas" font-size="11.00">+</text>
<text text-anchor="start" x="205.5" y="-447.2" font-family="Consolas" font-size="11.00">set_initialized()</text>
<text text-anchor="start" x="205.5" y="-431.2" font-family="Consolas" font-size="11.00">and 67 more...</text>
<polygon fill="#666666" stroke="#666666" points="190.5,-618 190.5,-618 351.5,-618 351.5,-618 190.5,-618"/>
<polygon fill="#666666" stroke="#666666" points="190.5,-602 190.5,-602 351.5,-602 351.5,-602 190.5,-602"/>
<polygon fill="none" stroke="#666666" points="190,-424 190,-636 351,-636 351,-424 190,-424"/>
</a>
</g>
</g>
<!-- Node6&#45;&gt;Node5 -->
<g id="edge5_Node000005_Node000006" class="edge">
<title>Node6&#45;&gt;Node5</title>
<g id="a_edge5_Node000005_Node000006"><a xlink:title=" ">
<path fill="none" stroke="#63b8ff" d="M270.5,-413.76C270.5,-404.67 270.5,-396.05 270.5,-388.35"/>
<polygon fill="none" stroke="#63b8ff" points="267,-413.77 270.5,-423.77 274,-413.77 267,-413.77"/>
</a>
</g>
</g>
<!-- Node7 -->
<g id="Node000007" class="node">
<title>Node7</title>
<g id="a_Node000007"><a xlink:href="../../de/de9/struct_data_material.html" target="_top" xlink:title=" ">
<polygon fill="white" stroke="transparent" points="161,-884 0,-884 0,-672 161,-672 161,-884"/>
<text text-anchor="start" x="40" y="-871.2" font-family="Consolas" font-size="11.00">DataMaterial</text>
<text text-anchor="start" x="4.5" y="-855.2" font-family="Consolas" font-size="11.00">+</text>
<text text-anchor="start" x="15.5" y="-855.2" font-family="Consolas" font-size="11.00">density</text>
<text text-anchor="start" x="4.5" y="-839.2" font-family="Consolas" font-size="11.00">+</text>
<text text-anchor="start" x="15.5" y="-839.2" font-family="Consolas" font-size="11.00">material_type</text>
<text text-anchor="start" x="4.5" y="-823.2" font-family="Consolas" font-size="11.00">+</text>
<text text-anchor="start" x="15.5" y="-823.2" font-family="Consolas" font-size="11.00">plane_type</text>
<text text-anchor="start" x="4.5" y="-807.2" font-family="Consolas" font-size="11.00">+</text>
<text text-anchor="start" x="15.5" y="-807.2" font-family="Consolas" font-size="11.00">tolerance</text>
<text text-anchor="start" x="4.5" y="-791.2" font-family="Consolas" font-size="11.00">+</text>
<text text-anchor="start" x="15.5" y="-791.2" font-family="Consolas" font-size="11.00">characteristic_length</text>
<text text-anchor="start" x="4.5" y="-775.2" font-family="Consolas" font-size="11.00">+</text>
<text text-anchor="start" x="15.5" y="-775.2" font-family="Consolas" font-size="11.00">current_strain</text>
<text text-anchor="start" x="4.5" y="-759.2" font-family="Consolas" font-size="11.00">+</text>
<text text-anchor="start" x="15.5" y="-759.2" font-family="Consolas" font-size="11.00">current_strain_rate</text>
<text text-anchor="start" x="4.5" y="-743.2" font-family="Consolas" font-size="11.00">+</text>
<text text-anchor="start" x="15.5" y="-743.2" font-family="Consolas" font-size="11.00">current_strain_acc</text>
<text text-anchor="start" x="4.5" y="-727.2" font-family="Consolas" font-size="11.00">+</text>
<text text-anchor="start" x="15.5" y="-727.2" font-family="Consolas" font-size="11.00">current_stress</text>
<text text-anchor="start" x="4.5" y="-711.2" font-family="Consolas" font-size="11.00">+</text>
<text text-anchor="start" x="15.5" y="-711.2" font-family="Consolas" font-size="11.00">trial_strain</text>
<text text-anchor="start" x="15.5" y="-695.2" font-family="Consolas" font-size="11.00">and 19 more...</text>
<text text-anchor="start" x="77.5" y="-679.2" font-family="Consolas" font-size="11.00"> </text>
<polygon fill="#666666" stroke="#666666" points="0.5,-866 0.5,-866 161.5,-866 161.5,-866 0.5,-866"/>
<polygon fill="#666666" stroke="#666666" points="0.5,-690 0.5,-690 13.5,-690 13.5,-690 0.5,-690"/>
<polygon fill="#666666" stroke="#666666" points="13.5,-690 13.5,-690 161.5,-690 161.5,-690 13.5,-690"/>
<polygon fill="none" stroke="#666666" points="0,-672 0,-884 161,-884 161,-672 0,-672"/>
</a>
</g>
</g>
<!-- Node7&#45;&gt;Node6 -->
<g id="edge6_Node000006_Node000007" class="edge">
<title>Node7&#45;&gt;Node6</title>
<g id="a_edge6_Node000006_Node000007"><a xlink:title=" ">
<path fill="none" stroke="darkgreen" d="M167.34,-664.56C174.82,-654.88 182.37,-645.11 189.8,-635.49"/>
<polygon fill="none" stroke="darkgreen" points="164.42,-662.62 161.08,-672.67 169.96,-666.9 164.42,-662.62"/>
</a>
</g>
</g>
<!-- Node8 -->
<g id="Node000008" class="node">
<title>Node8</title>
<g id="a_Node000008"><a xlink:href="../../da/de4/struct_data_couple_material.html" target="_top" xlink:title=" ">
<polygon fill="white" stroke="transparent" points="361.5,-868 179.5,-868 179.5,-688 361.5,-688 361.5,-868"/>
<text text-anchor="start" x="209.5" y="-855.2" font-family="Consolas" font-size="11.00">DataCoupleMaterial</text>
<text text-anchor="start" x="183.5" y="-839.2" font-family="Consolas" font-size="11.00">+</text>
<text text-anchor="start" x="194.5" y="-839.2" font-family="Consolas" font-size="11.00">current_curvature</text>
<text text-anchor="start" x="183.5" y="-823.2" font-family="Consolas" font-size="11.00">+</text>
<text text-anchor="start" x="194.5" y="-823.2" font-family="Consolas" font-size="11.00">current_couple_stress</text>
<text text-anchor="start" x="183.5" y="-807.2" font-family="Consolas" font-size="11.00">+</text>
<text text-anchor="start" x="194.5" y="-807.2" font-family="Consolas" font-size="11.00">trial_curvature</text>
<text text-anchor="start" x="183.5" y="-791.2" font-family="Consolas" font-size="11.00">+</text>
<text text-anchor="start" x="194.5" y="-791.2" font-family="Consolas" font-size="11.00">trial_couple_stress</text>
<text text-anchor="start" x="183.5" y="-775.2" font-family="Consolas" font-size="11.00">+</text>
<text text-anchor="start" x="194.5" y="-775.2" font-family="Consolas" font-size="11.00">incre_curvature</text>
<text text-anchor="start" x="183.5" y="-759.2" font-family="Consolas" font-size="11.00">+</text>
<text text-anchor="start" x="194.5" y="-759.2" font-family="Consolas" font-size="11.00">incre_couple_stress</text>
<text text-anchor="start" x="183.5" y="-743.2" font-family="Consolas" font-size="11.00">+</text>
<text text-anchor="start" x="194.5" y="-743.2" font-family="Consolas" font-size="11.00">initial_couple_stiffness</text>
<text text-anchor="start" x="183.5" y="-727.2" font-family="Consolas" font-size="11.00">+</text>
<text text-anchor="start" x="194.5" y="-727.2" font-family="Consolas" font-size="11.00">current_couple_stiffness</text>
<text text-anchor="start" x="183.5" y="-711.2" font-family="Consolas" font-size="11.00">+</text>
<text text-anchor="start" x="194.5" y="-711.2" font-family="Consolas" font-size="11.00">trial_couple_stiffness</text>
<text text-anchor="start" x="267" y="-695.2" font-family="Consolas" font-size="11.00"> </text>
<polygon fill="#666666" stroke="#666666" points="179.5,-850 179.5,-850 361.5,-850 361.5,-850 179.5,-850"/>
<polygon fill="#666666" stroke="#666666" points="179.5,-706 179.5,-706 192.5,-706 192.5,-706 179.5,-706"/>
<polygon fill="#666666" stroke="#666666" points="192.5,-706 192.5,-706 361.5,-706 361.5,-706 192.5,-706"/>
<polygon fill="none" stroke="#666666" points="179.5,-688 179.5,-868 361.5,-868 361.5,-688 179.5,-688"/>
</a>
</g>
</g>
<!-- Node8&#45;&gt;Node6 -->
<g id="edge7_Node000006_Node000008" class="edge">
<title>Node8&#45;&gt;Node6</title>
<g id="a_edge7_Node000006_Node000008"><a xlink:title=" ">
<path fill="none" stroke="darkgreen" d="M270.5,-677.52C270.5,-663.9 270.5,-649.88 270.5,-636.17"/>
<polygon fill="none" stroke="darkgreen" points="267,-677.84 270.5,-687.84 274,-677.84 267,-677.84"/>
</a>
</g>
</g>
<!-- Node9 -->
<g id="Node000009" class="node">
<title>Node9</title>
<g id="a_Node000009"><a xlink:href="../../dd/d78/class_copiable_tag.html" target="_top" xlink:title=" ">
<polygon fill="white" stroke="transparent" points="493.5,-860 379.5,-860 379.5,-696 493.5,-696 493.5,-860"/>
<text text-anchor="start" x="399" y="-847.2" font-family="Consolas" font-size="11.00">CopiableTag</text>
<text text-anchor="start" x="433" y="-831.2" font-family="Consolas" font-size="11.00"> </text>
<text text-anchor="start" x="383.5" y="-815.2" font-family="Consolas" font-size="11.00">+</text>
<text text-anchor="start" x="394.5" y="-815.2" font-family="Consolas" font-size="11.00">CopiableTag()</text>
<text text-anchor="start" x="383.5" y="-799.2" font-family="Consolas" font-size="11.00">+</text>
<text text-anchor="start" x="394.5" y="-799.2" font-family="Consolas" font-size="11.00">CopiableTag()</text>
<text text-anchor="start" x="383.5" y="-783.2" font-family="Consolas" font-size="11.00">+</text>
<text text-anchor="start" x="394.5" y="-783.2" font-family="Consolas" font-size="11.00">operator=()</text>
<text text-anchor="start" x="383.5" y="-767.2" font-family="Consolas" font-size="11.00">+</text>
<text text-anchor="start" x="394.5" y="-767.2" font-family="Consolas" font-size="11.00">operator=()</text>
<text text-anchor="start" x="383.5" y="-751.2" font-family="Consolas" font-size="11.00">+</text>
<text text-anchor="start" x="394.5" y="-751.2" font-family="Consolas" font-size="11.00">~CopiableTag()</text>
<text text-anchor="start" x="383.5" y="-735.2" font-family="Consolas" font-size="11.00">+</text>
<text text-anchor="start" x="394.5" y="-735.2" font-family="Consolas" font-size="11.00">Tag()</text>
<text text-anchor="start" x="383.5" y="-719.2" font-family="Consolas" font-size="11.00">+</text>
<text text-anchor="start" x="394.5" y="-719.2" font-family="Consolas" font-size="11.00">Tag()</text>
<text text-anchor="start" x="383.5" y="-703.2" font-family="Consolas" font-size="11.00">+</text>
<text text-anchor="start" x="394.5" y="-703.2" font-family="Consolas" font-size="11.00">Tag()</text>
<polygon fill="#666666" stroke="#666666" points="379.5,-842 379.5,-842 493.5,-842 493.5,-842 379.5,-842"/>
<polygon fill="#666666" stroke="#666666" points="379.5,-826 379.5,-826 493.5,-826 493.5,-826 379.5,-826"/>
<polygon fill="none" stroke="#666666" points="379.5,-696 379.5,-860 493.5,-860 493.5,-696 379.5,-696"/>
</a>
</g>
</g>
<!-- Node9&#45;&gt;Node6 -->
<g id="edge8_Node000006_Node000009" class="edge">
<title>Node9&#45;&gt;Node6</title>
<g id="a_edge8_Node000006_Node000009"><a xlink:title=" ">
<path fill="none" stroke="#63b8ff" d="M380.5,-687.17C377.15,-682.02 373.8,-676.93 370.5,-672 362.66,-660.27 354.33,-648.1 345.96,-636.04"/>
<polygon fill="none" stroke="#63b8ff" points="377.77,-689.39 386.14,-695.88 383.64,-685.58 377.77,-689.39"/>
</a>
</g>
</g>
<!-- Node10 -->
<g id="Node000010" class="node">
<title>Node10</title>
<g id="a_Node000010"><a xlink:href="../../d0/d57/class_tag.html" target="_top" xlink:title="A base Tag class.">
<polygon fill="white" stroke="transparent" points="487,-1196 386,-1196 386,-920 487,-920 487,-1196"/>
<text text-anchor="start" x="426.5" y="-1183.2" font-family="Consolas" font-size="11.00">Tag</text>
<text text-anchor="start" x="433.5" y="-1167.2" font-family="Consolas" font-size="11.00"> </text>
<text text-anchor="start" x="390.5" y="-1151.2" font-family="Consolas" font-size="11.00">+</text>
<text text-anchor="start" x="401.5" y="-1151.2" font-family="Consolas" font-size="11.00">Tag()</text>
<text text-anchor="start" x="390.5" y="-1135.2" font-family="Consolas" font-size="11.00">+</text>
<text text-anchor="start" x="401.5" y="-1135.2" font-family="Consolas" font-size="11.00">Tag()</text>
<text text-anchor="start" x="390.5" y="-1119.2" font-family="Consolas" font-size="11.00">+</text>
<text text-anchor="start" x="401.5" y="-1119.2" font-family="Consolas" font-size="11.00">Tag()</text>
<text text-anchor="start" x="390.5" y="-1103.2" font-family="Consolas" font-size="11.00">+</text>
<text text-anchor="start" x="401.5" y="-1103.2" font-family="Consolas" font-size="11.00">operator=()</text>
<text text-anchor="start" x="390.5" y="-1087.2" font-family="Consolas" font-size="11.00">+</text>
<text text-anchor="start" x="401.5" y="-1087.2" font-family="Consolas" font-size="11.00">operator=()</text>
<text text-anchor="start" x="390.5" y="-1071.2" font-family="Consolas" font-size="11.00">+</text>
<text text-anchor="start" x="401.5" y="-1071.2" font-family="Consolas" font-size="11.00">~Tag()</text>
<text text-anchor="start" x="390.5" y="-1055.2" font-family="Consolas" font-size="11.00">+</text>
<text text-anchor="start" x="401.5" y="-1055.2" font-family="Consolas" font-size="11.00">set_tag()</text>
<text text-anchor="start" x="390.5" y="-1039.2" font-family="Consolas" font-size="11.00">+</text>
<text text-anchor="start" x="401.5" y="-1039.2" font-family="Consolas" font-size="11.00">get_tag()</text>
<text text-anchor="start" x="390.5" y="-1023.2" font-family="Consolas" font-size="11.00">+</text>
<text text-anchor="start" x="401.5" y="-1023.2" font-family="Consolas" font-size="11.00">enable()</text>
<text text-anchor="start" x="390.5" y="-1007.2" font-family="Consolas" font-size="11.00">+</text>
<text text-anchor="start" x="401.5" y="-1007.2" font-family="Consolas" font-size="11.00">disable()</text>
<text text-anchor="start" x="390.5" y="-991.2" font-family="Consolas" font-size="11.00">+</text>
<text text-anchor="start" x="401.5" y="-991.2" font-family="Consolas" font-size="11.00">guard()</text>
<text text-anchor="start" x="390.5" y="-975.2" font-family="Consolas" font-size="11.00">+</text>
<text text-anchor="start" x="401.5" y="-975.2" font-family="Consolas" font-size="11.00">unguard()</text>
<text text-anchor="start" x="390.5" y="-959.2" font-family="Consolas" font-size="11.00">+</text>
<text text-anchor="start" x="401.5" y="-959.2" font-family="Consolas" font-size="11.00">is_active()</text>
<text text-anchor="start" x="390.5" y="-943.2" font-family="Consolas" font-size="11.00">+</text>
<text text-anchor="start" x="401.5" y="-943.2" font-family="Consolas" font-size="11.00">is_guarded()</text>
<text text-anchor="start" x="390.5" y="-927.2" font-family="Consolas" font-size="11.00">+</text>
<text text-anchor="start" x="401.5" y="-927.2" font-family="Consolas" font-size="11.00">print()</text>
<polygon fill="#666666" stroke="#666666" points="386.5,-1178 386.5,-1178 487.5,-1178 487.5,-1178 386.5,-1178"/>
<polygon fill="#666666" stroke="#666666" points="386.5,-1162 386.5,-1162 487.5,-1162 487.5,-1162 386.5,-1162"/>
<polygon fill="none" stroke="#666666" points="386,-920 386,-1196 487,-1196 487,-920 386,-920"/>
</a>
</g>
</g>
<!-- Node10&#45;&gt;Node9 -->
<g id="edge9_Node000009_Node000010" class="edge">
<title>Node10&#45;&gt;Node9</title>
<g id="a_edge9_Node000009_Node000010"><a xlink:title=" ">
<path fill="none" stroke="#63b8ff" d="M436.5,-909.6C436.5,-892.59 436.5,-875.75 436.5,-860.1"/>
<polygon fill="none" stroke="#63b8ff" points="433,-909.63 436.5,-919.63 440,-909.63 433,-909.63"/>
</a>
</g>
</g>
</g>
</svg>
