<?xml version="1.0" encoding="UTF-8" standalone="no"?>
<!DOCTYPE svg PUBLIC "-//W3C//DTD SVG 1.1//EN"
 "http://www.w3.org/Graphics/SVG/1.1/DTD/svg11.dtd">
<!-- Generated by graphviz version 9.0.0 (20230911.1827)
 -->
<!-- Title: Storage::enable Pages: 1 -->
<!--zoomable 750 -->

<svg id="main" version="1.1" xmlns="http://www.w3.org/2000/svg" xmlns:xlink="http://www.w3.org/1999/xlink" xml:space="preserve" onload="init(evt)">
<style type="text/css"><![CDATA[
.node, .edge {opacity: 0.7;}
.node.selected, .edge.selected {opacity: 1;}
.edge:hover path { stroke: red; }
.edge:hover polygon { stroke: red; fill: red; }
]]></style>

<defs>
  <circle id="rim" cx="0" cy="0" r="7"/>
  <circle id="rim2" cx="0" cy="0" r="3.5"/>
  <g id="zoomPlus">
    <use xlink:href="#rim" fill="#404040"><set attributeName="fill" to="#808080" begin="zoomplus.mouseover" end="zoomplus.mouseout"/></use>
    <path d="M-4,0h8M0,-4v8" fill="none" stroke="white" stroke-width="1.5" pointer-events="none"/>
  </g>
  <g id="zoomMin">
    <use xlink:href="#rim" fill="#404040"><set attributeName="fill" to="#808080" begin="zoomminus.mouseover" end="zoomminus.mouseout"/></use>
    <path d="M-4,0h8" fill="none" stroke="white" stroke-width="1.5" pointer-events="none"/>
  </g>
  <g id="arrowUp" transform="translate(30 24)">
    <use xlink:href="#rim"/>
    <path pointer-events="none" fill="none" stroke="white" stroke-width="1.5" d="M0,-3.0v7 M-2.5,-0.5L0,-3.0L2.5,-0.5"/>
  </g>
  <g id="arrowRight" transform="rotate(90) translate(36 -43)">
    <use xlink:href="#rim"/>
    <path pointer-events="none" fill="none" stroke="white" stroke-width="1.5" d="M0,-3.0v7 M-2.5,-0.5L0,-3.0L2.5,-0.5"/>
  </g>
  <g id="arrowDown" transform="rotate(180) translate(-30 -48)">
    <use xlink:href="#rim"/>
    <path pointer-events="none" fill="none" stroke="white" stroke-width="1.5" d="M0,-3.0v7 M-2.5,-0.5L0,-3.0L2.5,-0.5"/>
  </g>
  <g id="arrowLeft" transform="rotate(270) translate(-36 17)">
    <use xlink:href="#rim"/>
    <path pointer-events="none" fill="none" stroke="white" stroke-width="1.5" d="M0,-3.0v7 M-2.5,-0.5L0,-3.0L2.5,-0.5"/>
  </g>
  <g id="resetDef">
    <use xlink:href="#rim2" fill="#404040"><set attributeName="fill" to="#808080" begin="reset.mouseover" end="reset.mouseout"/></use>
  </g>
</defs>
<script type="application/ecmascript">
var viewWidth = 322;
var viewHeight = 750;
var sectionId = 'dynsection-9';
</script>
<script type="application/ecmascript" xlink:href="../../svg.min.js"/>
<svg id="graph" class="graph">
<g id="viewport">
<title>Storage::enable</title>
<!-- Node1 -->
<g id="Node000001" class="node">
<title>Node1</title>
<g id="a_Node000001"><a xlink:title=" ">
<polygon fill="#999999" stroke="#666666" points="314,-381.5 208,-381.5 208,-360 314,-360 314,-381.5"/>
<text text-anchor="middle" x="261" y="-367.05" font-family="Consolas" font-size="11.00">Storage::enable</text>
</a>
</g>
</g>
<!-- Node2 -->
<g id="Node000002" class="node">
<title>Node2</title>
<g id="a_Node000002"><a xlink:href="../../d4/df4/class_domain.html#a6fa445530125f0df5ba4a917edcfd6a9" target="_top" xlink:title=" ">
<polygon fill="white" stroke="#666666" points="148,-741.5 24,-741.5 24,-720 148,-720 148,-741.5"/>
<text text-anchor="middle" x="86" y="-727.05" font-family="Consolas" font-size="11.00">Domain::enable_all</text>
</a>
</g>
</g>
<!-- Node1&#45;&gt;Node2 -->
<g id="edge1_Node000001_Node000002" class="edge">
<title>Node1&#45;&gt;Node2</title>
<g id="a_edge1_Node000001_Node000002"><a xlink:title=" ">
<path fill="none" stroke="#63b8ff" d="M257.28,-392.69C248.45,-460.59 218.37,-665.4 172,-710.75 165.39,-717.22 157.1,-721.74 148.31,-724.87"/>
<polygon fill="#63b8ff" stroke="#63b8ff" points="260.71,-393.54 258.5,-383.18 253.76,-392.66 260.71,-393.54"/>
</a>
</g>
</g>
<!-- Node3 -->
<g id="Node000003" class="node">
<title>Node3</title>
<g id="a_Node000003"><a xlink:href="../../d4/df4/class_domain.html#ab4fb2a61f0103d5ffe9e7c9800fd1aed" target="_top" xlink:title=" ">
<polygon fill="white" stroke="#666666" points="166,-701.5 6,-701.5 6,-680 166,-680 166,-701.5"/>
<text text-anchor="middle" x="86" y="-687.05" font-family="Consolas" font-size="11.00">Domain::enable_amplitude</text>
</a>
</g>
</g>
<!-- Node1&#45;&gt;Node3 -->
<g id="edge2_Node000001_Node000003" class="edge">
<title>Node1&#45;&gt;Node3</title>
<g id="a_edge2_Node000001_Node000003"><a xlink:title=" ">
<path fill="none" stroke="#63b8ff" d="M260.53,-392.97C260.58,-448.51 252.61,-594.4 172,-670.75 168.26,-674.29 164.01,-677.25 159.46,-679.71"/>
<polygon fill="#63b8ff" stroke="#63b8ff" points="264.04,-393.18 260.42,-383.22 257.04,-393.26 264.04,-393.18"/>
</a>
</g>
</g>
<!-- Node4 -->
<g id="Node000004" class="node">
<title>Node4</title>
<g id="a_Node000004"><a xlink:href="../../d4/df4/class_domain.html#a06fe1dbfbac5b2c9cfb39ef41bf704cd" target="_top" xlink:title=" ">
<polygon fill="white" stroke="#666666" points="169,-661.5 3,-661.5 3,-640 169,-640 169,-661.5"/>
<text text-anchor="middle" x="86" y="-647.05" font-family="Consolas" font-size="11.00">Domain::enable_constraint</text>
</a>
</g>
</g>
<!-- Node1&#45;&gt;Node4 -->
<g id="edge3_Node000001_Node000004" class="edge">
<title>Node1&#45;&gt;Node4</title>
<g id="a_edge3_Node000001_Node000004"><a xlink:title=" ">
<path fill="none" stroke="#63b8ff" d="M259.34,-393.37C256.58,-443.91 242.56,-566.62 172,-630.75 168.19,-634.22 163.89,-637.12 159.3,-639.54"/>
<polygon fill="#63b8ff" stroke="#63b8ff" points="262.83,-393.55 259.77,-383.4 255.84,-393.24 262.83,-393.55"/>
</a>
</g>
</g>
<!-- Node5 -->
<g id="Node000005" class="node">
<title>Node5</title>
<g id="a_Node000005"><a xlink:href="../../d4/df4/class_domain.html#a4a2495e75edd21c3be57d1ffbfe2541a" target="_top" xlink:title=" ">
<polygon fill="white" stroke="#666666" points="166,-621.5 6,-621.5 6,-600 166,-600 166,-621.5"/>
<text text-anchor="middle" x="86" y="-607.05" font-family="Consolas" font-size="11.00">Domain::enable_converger</text>
</a>
</g>
</g>
<!-- Node1&#45;&gt;Node5 -->
<g id="edge4_Node000001_Node000005" class="edge">
<title>Node1&#45;&gt;Node5</title>
<g id="a_edge4_Node000001_Node000005"><a xlink:title=" ">
<path fill="none" stroke="#63b8ff" d="M257.76,-393.23C252.07,-437.97 232.86,-538.37 172,-590.75 167.98,-594.21 163.47,-597.1 158.68,-599.51"/>
<polygon fill="#63b8ff" stroke="#63b8ff" points="261.22,-393.77 258.89,-383.44 254.27,-392.97 261.22,-393.77"/>
</a>
</g>
</g>
<!-- Node6 -->
<g id="Node000006" class="node">
<title>Node6</title>
<g id="a_Node000006"><a xlink:href="../../d4/df4/class_domain.html#ab1ead020468d35f2a69cdfd45c30c1ea" target="_top" xlink:title=" ">
<polygon fill="white" stroke="#666666" points="166,-581.5 6,-581.5 6,-560 166,-560 166,-581.5"/>
<text text-anchor="middle" x="86" y="-567.05" font-family="Consolas" font-size="11.00">Domain::enable_criterion</text>
</a>
</g>
</g>
<!-- Node1&#45;&gt;Node6 -->
<g id="edge5_Node000001_Node000006" class="edge">
<title>Node1&#45;&gt;Node6</title>
<g id="a_edge5_Node000001_Node000006"><a xlink:title=" ">
<path fill="none" stroke="#63b8ff" d="M255.7,-392.56C246.98,-430.76 223.52,-509.63 172,-550.75 167.62,-554.25 162.72,-557.15 157.56,-559.56"/>
<polygon fill="#63b8ff" stroke="#63b8ff" points="259.04,-393.67 257.71,-383.16 252.19,-392.21 259.04,-393.67"/>
</a>
</g>
</g>
<!-- Node7 -->
<g id="Node000007" class="node">
<title>Node7</title>
<g id="a_Node000007"><a xlink:href="../../d4/df4/class_domain.html#a6202a91fdccab7c8e99b2ca475d5335f" target="_top" xlink:title=" ">
<polygon fill="white" stroke="#666666" points="163,-541.5 9,-541.5 9,-520 163,-520 163,-541.5"/>
<text text-anchor="middle" x="86" y="-527.05" font-family="Consolas" font-size="11.00">Domain::enable_database</text>
</a>
</g>
</g>
<!-- Node1&#45;&gt;Node7 -->
<g id="edge6_Node000001_Node000007" class="edge">
<title>Node1&#45;&gt;Node7</title>
<g id="a_edge6_Node000001_Node000007"><a xlink:title=" ">
<path fill="none" stroke="#63b8ff" d="M252.46,-392.5C240.47,-423.7 214.05,-480.71 172,-510.75 167.07,-514.28 161.6,-517.19 155.89,-519.59"/>
<polygon fill="#63b8ff" stroke="#63b8ff" points="255.66,-393.93 255.82,-383.33 249.09,-391.51 255.66,-393.93"/>
</a>
</g>
</g>
<!-- Node8 -->
<g id="Node000008" class="node">
<title>Node8</title>
<g id="a_Node000008"><a xlink:href="../../d5/d68/class_bead.html#a1ec591f783a5f4eae891ac5e76833f7f" target="_top" xlink:title=" ">
<polygon fill="white" stroke="#666666" points="151,-501.5 21,-501.5 21,-480 151,-480 151,-501.5"/>
<text text-anchor="middle" x="86" y="-487.05" font-family="Consolas" font-size="11.00">Bead::enable_domain</text>
</a>
</g>
</g>
<!-- Node1&#45;&gt;Node8 -->
<g id="edge7_Node000001_Node000008" class="edge">
<title>Node1&#45;&gt;Node8</title>
<g id="a_edge7_Node000001_Node000008"><a xlink:title=" ">
<path fill="none" stroke="#63b8ff" d="M247.6,-391.25C232.6,-414.23 205.2,-450.85 172,-470.75 165.63,-474.57 158.58,-477.66 151.35,-480.16"/>
<polygon fill="#63b8ff" stroke="#63b8ff" points="250.4,-393.37 252.78,-383.05 244.48,-389.63 250.4,-393.37"/>
</a>
</g>
</g>
<!-- Node9 -->
<g id="Node000009" class="node">
<title>Node9</title>
<g id="a_Node000009"><a xlink:href="../../d4/df4/class_domain.html#a309200ab14382b494fb6d95f94420f9f" target="_top" xlink:title=" ">
<polygon fill="white" stroke="#666666" points="160,-461.5 12,-461.5 12,-440 160,-440 160,-461.5"/>
<text text-anchor="middle" x="86" y="-447.05" font-family="Consolas" font-size="11.00">Domain::enable_element</text>
</a>
</g>
</g>
<!-- Node1&#45;&gt;Node9 -->
<g id="edge8_Node000001_Node000009" class="edge">
<title>Node1&#45;&gt;Node9</title>
<g id="a_edge8_Node000001_Node000009"><a xlink:title=" ">
<path fill="none" stroke="#63b8ff" d="M238.3,-388.91C221.26,-402.31 196.42,-420 172,-430.75 164.09,-434.23 155.49,-437.16 146.9,-439.6"/>
<polygon fill="#63b8ff" stroke="#63b8ff" points="240.13,-391.93 245.73,-382.94 235.74,-386.48 240.13,-391.93"/>
</a>
</g>
</g>
<!-- Node10 -->
<g id="Node000010" class="node">
<title>Node10</title>
<g id="a_Node000010"><a xlink:href="../../d4/df4/class_domain.html#a4b9cd41338d53ae421617519728980c3" target="_top" xlink:title=" ">
<polygon fill="white" stroke="#666666" points="169,-421.5 3,-421.5 3,-400 169,-400 169,-421.5"/>
<text text-anchor="middle" x="86" y="-407.05" font-family="Consolas" font-size="11.00">Domain::enable_expression</text>
</a>
</g>
</g>
<!-- Node1&#45;&gt;Node10 -->
<g id="edge9_Node000001_Node000010" class="edge">
<title>Node1&#45;&gt;Node10</title>
<g id="a_edge9_Node000001_Node000010"><a xlink:title=" ">
<path fill="none" stroke="#63b8ff" d="M200.23,-384.57C179.12,-389.45 155.65,-394.88 135.58,-399.52"/>
<polygon fill="#63b8ff" stroke="#63b8ff" points="200.92,-388 209.87,-382.34 199.34,-381.18 200.92,-388"/>
</a>
</g>
</g>
<!-- Node11 -->
<g id="Node000011" class="node">
<title>Node11</title>
<g id="a_Node000011"><a xlink:href="../../d4/df4/class_domain.html#a4c74bfc4c36ce33d9727fac09587c60c" target="_top" xlink:title=" ">
<polygon fill="white" stroke="#666666" points="154,-381.5 18,-381.5 18,-360 154,-360 154,-381.5"/>
<text text-anchor="middle" x="86" y="-367.05" font-family="Consolas" font-size="11.00">Domain::enable_group</text>
</a>
</g>
</g>
<!-- Node1&#45;&gt;Node11 -->
<g id="edge10_Node000001_Node000011" class="edge">
<title>Node1&#45;&gt;Node11</title>
<g id="a_edge10_Node000001_Node000011"><a xlink:title=" ">
<path fill="none" stroke="#63b8ff" d="M196.33,-370.75C182.62,-370.75 168.09,-370.75 154.25,-370.75"/>
<polygon fill="#63b8ff" stroke="#63b8ff" points="196.11,-374.25 206.11,-370.75 196.11,-367.25 196.11,-374.25"/>
</a>
</g>
</g>
<!-- Node12 -->
<g id="Node000012" class="node">
<title>Node12</title>
<g id="a_Node000012"><a xlink:href="../../d4/df4/class_domain.html#add665af2dc339c37e7874fd83f02e790" target="_top" xlink:title=" ">
<polygon fill="white" stroke="#666666" points="169,-341.5 3,-341.5 3,-320 169,-320 169,-341.5"/>
<text text-anchor="middle" x="86" y="-327.05" font-family="Consolas" font-size="11.00">Domain::enable_integrator</text>
</a>
</g>
</g>
<!-- Node1&#45;&gt;Node12 -->
<g id="edge11_Node000001_Node000012" class="edge">
<title>Node1&#45;&gt;Node12</title>
<g id="a_edge11_Node000001_Node000012"><a xlink:title=" ">
<path fill="none" stroke="#63b8ff" d="M200.23,-356.93C179.12,-352.05 155.65,-346.62 135.58,-341.98"/>
<polygon fill="#63b8ff" stroke="#63b8ff" points="199.34,-360.32 209.87,-359.16 200.92,-353.5 199.34,-360.32"/>
</a>
</g>
</g>
<!-- Node13 -->
<g id="Node000013" class="node">
<title>Node13</title>
<g id="a_Node000013"><a xlink:href="../../d4/df4/class_domain.html#a4956aaf31b7d63f384b1cb734915257d" target="_top" xlink:title=" ">
<polygon fill="white" stroke="#666666" points="151,-301.5 21,-301.5 21,-280 151,-280 151,-301.5"/>
<text text-anchor="middle" x="86" y="-287.05" font-family="Consolas" font-size="11.00">Domain::enable_load</text>
</a>
</g>
</g>
<!-- Node1&#45;&gt;Node13 -->
<g id="edge12_Node000001_Node000013" class="edge">
<title>Node1&#45;&gt;Node13</title>
<g id="a_edge12_Node000001_Node000013"><a xlink:title=" ">
<path fill="none" stroke="#63b8ff" d="M238.3,-352.59C221.26,-339.19 196.42,-321.5 172,-310.75 164.09,-307.27 155.49,-304.34 146.9,-301.9"/>
<polygon fill="#63b8ff" stroke="#63b8ff" points="235.74,-355.02 245.73,-358.56 240.13,-349.57 235.74,-355.02"/>
</a>
</g>
</g>
<!-- Node14 -->
<g id="Node000014" class="node">
<title>Node14</title>
<g id="a_Node000014"><a xlink:href="../../d4/df4/class_domain.html#af5f06a9e0ea28aff08a5f17847fabc76" target="_top" xlink:title=" ">
<polygon fill="white" stroke="#666666" points="163,-261.5 9,-261.5 9,-240 163,-240 163,-261.5"/>
<text text-anchor="middle" x="86" y="-247.05" font-family="Consolas" font-size="11.00">Domain::enable_material</text>
</a>
</g>
</g>
<!-- Node1&#45;&gt;Node14 -->
<g id="edge13_Node000001_Node000014" class="edge">
<title>Node1&#45;&gt;Node14</title>
<g id="a_edge13_Node000001_Node000014"><a xlink:title=" ">
<path fill="none" stroke="#63b8ff" d="M247.6,-350.25C232.6,-327.27 205.2,-290.65 172,-270.75 166.15,-267.24 159.73,-264.35 153.12,-261.96"/>
<polygon fill="#63b8ff" stroke="#63b8ff" points="244.48,-351.87 252.78,-358.45 250.4,-348.13 244.48,-351.87"/>
</a>
</g>
</g>
<!-- Node15 -->
<g id="Node000015" class="node">
<title>Node15</title>
<g id="a_Node000015"><a xlink:href="../../d4/df4/class_domain.html#a1e7bca521b437428dd404ed836890ce7" target="_top" xlink:title=" ">
<polygon fill="white" stroke="#666666" points="163,-221.5 9,-221.5 9,-200 163,-200 163,-221.5"/>
<text text-anchor="middle" x="86" y="-207.05" font-family="Consolas" font-size="11.00">Domain::enable_modifier</text>
</a>
</g>
</g>
<!-- Node1&#45;&gt;Node15 -->
<g id="edge14_Node000001_Node000015" class="edge">
<title>Node1&#45;&gt;Node15</title>
<g id="a_edge14_Node000001_Node000015"><a xlink:title=" ">
<path fill="none" stroke="#63b8ff" d="M252.46,-349C240.47,-317.8 214.05,-260.79 172,-230.75 167.07,-227.22 161.6,-224.31 155.89,-221.91"/>
<polygon fill="#63b8ff" stroke="#63b8ff" points="249.09,-349.99 255.82,-358.17 255.66,-347.57 249.09,-349.99"/>
</a>
</g>
</g>
<!-- Node16 -->
<g id="Node000016" class="node">
<title>Node16</title>
<g id="a_Node000016"><a xlink:href="../../d4/df4/class_domain.html#a8a802eba2800d13383b3caa9076cb2a4" target="_top" xlink:title=" ">
<polygon fill="white" stroke="#666666" points="151,-181.5 21,-181.5 21,-160 151,-160 151,-181.5"/>
<text text-anchor="middle" x="86" y="-167.05" font-family="Consolas" font-size="11.00">Domain::enable_node</text>
</a>
</g>
</g>
<!-- Node1&#45;&gt;Node16 -->
<g id="edge15_Node000001_Node000016" class="edge">
<title>Node1&#45;&gt;Node16</title>
<g id="a_edge15_Node000001_Node000016"><a xlink:title=" ">
<path fill="none" stroke="#63b8ff" d="M255.7,-348.94C246.98,-310.74 223.52,-231.87 172,-190.75 165.84,-185.83 158.67,-182.09 151.17,-179.24"/>
<polygon fill="#63b8ff" stroke="#63b8ff" points="252.19,-349.29 257.71,-358.34 259.04,-347.83 252.19,-349.29"/>
</a>
</g>
</g>
<!-- Node17 -->
<g id="Node000017" class="node">
<title>Node17</title>
<g id="a_Node000017"><a xlink:href="../../d4/df4/class_domain.html#a5bd2544d7c89fea6c4e4b62b957a6dbd" target="_top" xlink:title=" ">
<polygon fill="white" stroke="#666666" points="172,-141.5 0,-141.5 0,-120 172,-120 172,-141.5"/>
<text text-anchor="middle" x="86" y="-127.05" font-family="Consolas" font-size="11.00">Domain::enable_orientation</text>
</a>
</g>
</g>
<!-- Node1&#45;&gt;Node17 -->
<g id="edge16_Node000001_Node000017" class="edge">
<title>Node1&#45;&gt;Node17</title>
<g id="a_edge16_Node000001_Node000017"><a xlink:title=" ">
<path fill="none" stroke="#63b8ff" d="M257.76,-348.27C252.07,-303.53 232.86,-203.13 172,-150.75 167.98,-147.29 163.47,-144.4 158.68,-141.99"/>
<polygon fill="#63b8ff" stroke="#63b8ff" points="254.27,-348.53 258.89,-358.06 261.22,-347.73 254.27,-348.53"/>
</a>
</g>
</g>
<!-- Node18 -->
<g id="Node000018" class="node">
<title>Node18</title>
<g id="a_Node000018"><a xlink:href="../../d4/df4/class_domain.html#aa575f92ee5494d549d8f6afdea765206" target="_top" xlink:title=" ">
<polygon fill="white" stroke="#666666" points="163,-101.5 9,-101.5 9,-80 163,-80 163,-101.5"/>
<text text-anchor="middle" x="86" y="-87.05" font-family="Consolas" font-size="11.00">Domain::enable_recorder</text>
</a>
</g>
</g>
<!-- Node1&#45;&gt;Node18 -->
<g id="edge17_Node000001_Node000018" class="edge">
<title>Node1&#45;&gt;Node18</title>
<g id="a_edge17_Node000001_Node000018"><a xlink:title=" ">
<path fill="none" stroke="#63b8ff" d="M259.34,-348.13C256.58,-297.59 242.56,-174.88 172,-110.75 168.19,-107.28 163.89,-104.38 159.3,-101.96"/>
<polygon fill="#63b8ff" stroke="#63b8ff" points="255.84,-348.26 259.77,-358.1 262.83,-347.95 255.84,-348.26"/>
</a>
</g>
</g>
<!-- Node19 -->
<g id="Node000019" class="node">
<title>Node19</title>
<g id="a_Node000019"><a xlink:href="../../d4/df4/class_domain.html#a2046d23fca8cb5cdc455dc8d67869d8e" target="_top" xlink:title=" ">
<polygon fill="white" stroke="#666666" points="160,-61.5 12,-61.5 12,-40 160,-40 160,-61.5"/>
<text text-anchor="middle" x="86" y="-47.05" font-family="Consolas" font-size="11.00">Domain::enable_section</text>
</a>
</g>
</g>
<!-- Node1&#45;&gt;Node19 -->
<g id="edge18_Node000001_Node000019" class="edge">
<title>Node1&#45;&gt;Node19</title>
<g id="a_edge18_Node000001_Node000019"><a xlink:title=" ">
<path fill="none" stroke="#63b8ff" d="M260.53,-348.53C260.58,-292.99 252.61,-147.1 172,-70.75 168.26,-67.21 164.01,-64.25 159.46,-61.79"/>
<polygon fill="#63b8ff" stroke="#63b8ff" points="257.04,-348.24 260.42,-358.28 264.04,-348.32 257.04,-348.24"/>
</a>
</g>
</g>
<!-- Node20 -->
<g id="Node000020" class="node">
<title>Node20</title>
<g id="a_Node000020"><a xlink:href="../../d4/df4/class_domain.html#a157a01d123b3cebe644b15a0649e31c2" target="_top" xlink:title=" ">
<polygon fill="white" stroke="#666666" points="157,-21.5 15,-21.5 15,0 157,0 157,-21.5"/>
<text text-anchor="middle" x="86" y="-7.05" font-family="Consolas" font-size="11.00">Domain::enable_solver</text>
</a>
</g>
</g>
<!-- Node1&#45;&gt;Node20 -->
<g id="edge19_Node000001_Node000020" class="edge">
<title>Node1&#45;&gt;Node20</title>
<g id="a_edge19_Node000001_Node000020"><a xlink:title=" ">
<path fill="none" stroke="#63b8ff" d="M257.28,-348.81C248.45,-280.91 218.37,-76.1 172,-30.75 167.66,-26.51 162.61,-23.11 157.16,-20.38"/>
<polygon fill="#63b8ff" stroke="#63b8ff" points="253.76,-348.84 258.5,-358.32 260.71,-347.96 253.76,-348.84"/>
</a>
</g>
</g>
</g>
</svg>

<g id="navigator" transform="translate(0 0)" fill="#404254">
  <rect fill="#f2f5e9" fill-opacity="0.5" stroke="#606060" stroke-width=".5" x="0" y="0" width="60" height="60"/>
  <use id="zoomplus" xlink:href="#zoomPlus" x="17" y="9" onmousedown="handleZoom(evt,'in')"/>
  <use id="zoomminus" xlink:href="#zoomMin" x="42" y="9" onmousedown="handleZoom(evt,'out')"/>
  <use id="reset" xlink:href="#resetDef" x="30" y="36" onmousedown="handleReset()"/>
   <use id="arrowup" xlink:href="#arrowUp" x="0" y="0" onmousedown="handlePan(0,-1)"/>
  <use id="arrowright" xlink:href="#arrowRight" x="0" y="0" onmousedown="handlePan(1,0)"/>
  <use id="arrowdown" xlink:href="#arrowDown" x="0" y="0" onmousedown="handlePan(0,1)"/>
  <use id="arrowleft" xlink:href="#arrowLeft" x="0" y="0" onmousedown="handlePan(-1,0)"/>
</g>
<svg viewBox="0 0 15 15" width="100%" height="30px" preserveAspectRatio="xMaxYMin meet">
 <g id="arrow_out" transform="scale(0.3 0.3)">
  <a xlink:href="class_storage_a0c3366c165ce282edb40ff7ec3d54838_icgraph_org.svg" target="_base">
   <rect id="button" ry="5" rx="5" y="6" x="6" height="38" width="38"
        fill="#f2f5e9" fill-opacity="0.5" stroke="#606060" stroke-width="1.0"/>
   <path id="arrow"
     d="M 11.500037,31.436501 C 11.940474,20.09759 22.043105,11.32322 32.158766,21.979434 L 37.068811,17.246167 C 37.068811,17.246167 37.088388,32 37.088388,32 L 22.160133,31.978069 C 22.160133,31.978069 26.997745,27.140456 26.997745,27.140456 C 18.528582,18.264221 13.291696,25.230495 11.500037,31.436501 z"
     style="fill:#404040;"/>
  </a>
 </g>
</svg>

<style type='text/css'>
<![CDATA[
[data-mouse-over-selected='false'] { opacity: 0.7; }
[data-mouse-over-selected='true']  { opacity: 1.0; }
]]>
</style>
<script type="application/ecmascript"><![CDATA[
document.addEventListener('DOMContentLoaded', (event) => {
  highlightEdges();
  highlightAdjacentNodes();
});
]]></script>
</svg>
