<?xml version="1.0" encoding="UTF-8" standalone="no"?>
<!DOCTYPE svg PUBLIC "-//W3C//DTD SVG 1.1//EN"
 "http://www.w3.org/Graphics/SVG/1.1/DTD/svg11.dtd">
<!-- Generated by graphviz version 2.43.0 (0)
 -->
<!-- Title: Element/Utility/PhaseField.h Pages: 1 -->
<!--zoomable 164 -->

<svg id="main" version="1.1" xmlns="http://www.w3.org/2000/svg" xmlns:xlink="http://www.w3.org/1999/xlink" xml:space="preserve" onload="init(evt)">
<style type="text/css"><![CDATA[
.node, .edge {opacity: 0.7;}
.node.selected, .edge.selected {opacity: 1;}
.edge:hover path { stroke: red; }
.edge:hover polygon { stroke: red; fill: red; }
]]></style>

<defs>
  <circle id="rim" cx="0" cy="0" r="7"/>
  <circle id="rim2" cx="0" cy="0" r="3.5"/>
  <g id="zoomPlus">
    <use xlink:href="#rim" fill="#404040"><set attributeName="fill" to="#808080" begin="zoomplus.mouseover" end="zoomplus.mouseout"/></use>
    <path d="M-4,0h8M0,-4v8" fill="none" stroke="white" stroke-width="1.5" pointer-events="none"/>
  </g>
  <g id="zoomMin">
    <use xlink:href="#rim" fill="#404040"><set attributeName="fill" to="#808080" begin="zoomminus.mouseover" end="zoomminus.mouseout"/></use>
    <path d="M-4,0h8" fill="none" stroke="white" stroke-width="1.5" pointer-events="none"/>
  </g>
  <g id="arrowUp" transform="translate(30 24)">
    <use xlink:href="#rim"/>
    <path pointer-events="none" fill="none" stroke="white" stroke-width="1.5" d="M0,-3.0v7 M-2.5,-0.5L0,-3.0L2.5,-0.5"/>
  </g>
  <g id="arrowRight" transform="rotate(90) translate(36 -43)">
    <use xlink:href="#rim"/>
    <path pointer-events="none" fill="none" stroke="white" stroke-width="1.5" d="M0,-3.0v7 M-2.5,-0.5L0,-3.0L2.5,-0.5"/>
  </g>
  <g id="arrowDown" transform="rotate(180) translate(-30 -48)">
    <use xlink:href="#rim"/>
    <path pointer-events="none" fill="none" stroke="white" stroke-width="1.5" d="M0,-3.0v7 M-2.5,-0.5L0,-3.0L2.5,-0.5"/>
  </g>
  <g id="arrowLeft" transform="rotate(270) translate(-36 17)">
    <use xlink:href="#rim"/>
    <path pointer-events="none" fill="none" stroke="white" stroke-width="1.5" d="M0,-3.0v7 M-2.5,-0.5L0,-3.0L2.5,-0.5"/>
  </g>
  <g id="resetDef">
    <use xlink:href="#rim2" fill="#404040"><set attributeName="fill" to="#808080" begin="reset.mouseover" end="reset.mouseout"/></use>
  </g>
</defs>
<script type="application/ecmascript">
var viewWidth = 932;
var viewHeight = 164;
var sectionId = 'dynsection-1';
</script>
<script type="application/ecmascript" xlink:href="../../svg.min.js"/>
<svg id="graph" class="graph">
<g id="viewport">
<title>Element/Utility/PhaseField.h</title>
<!-- Node1 -->
<g id="Node000001" class="node">
<title>Node1</title>
<g id="a_Node000001"><a xlink:title=" ">
<polygon fill="#999999" stroke="#666666" points="543.5,-156 337.5,-156 337.5,-136 543.5,-136 543.5,-156"/>
<text text-anchor="middle" x="440.5" y="-143.2" font-family="Consolas" font-size="11.00">Element/Utility/PhaseField.h</text>
</a>
</g>
</g>
<!-- Node2 -->
<g id="Node000002" class="node">
<title>Node2</title>
<g id="a_Node000002"><a xlink:href="../../df/ddd/_d_c3_d4_8h.html" target="_top" xlink:title=" ">
<polygon fill="white" stroke="#666666" points="167.5,-94 15.5,-94 15.5,-74 167.5,-74 167.5,-94"/>
<text text-anchor="middle" x="91.5" y="-81.2" font-family="Consolas" font-size="11.00">Element/Cube/DC3D4.h</text>
</a>
</g>
</g>
<!-- Node1&#45;&gt;Node2 -->
<g id="edge1_Node000001_Node000002" class="edge">
<title>Node1&#45;&gt;Node2</title>
<g id="a_edge1_Node000001_Node000002"><a xlink:title=" ">
<path fill="none" stroke="#63b8ff" d="M377.9,-134.24C311.14,-122.76 206.59,-104.79 143.98,-94.02"/>
<polygon fill="#63b8ff" stroke="#63b8ff" points="377.42,-137.71 387.87,-135.95 378.61,-130.81 377.42,-137.71"/>
</a>
</g>
</g>
<!-- Node4 -->
<g id="Node000004" class="node">
<title>Node4</title>
<g id="a_Node000004"><a xlink:href="../../dc/d84/_d_c3_d8_8h.html" target="_top" xlink:title=" ">
<polygon fill="white" stroke="#666666" points="343.5,-94 191.5,-94 191.5,-74 343.5,-74 343.5,-94"/>
<text text-anchor="middle" x="267.5" y="-81.2" font-family="Consolas" font-size="11.00">Element/Cube/DC3D8.h</text>
</a>
</g>
</g>
<!-- Node1&#45;&gt;Node4 -->
<g id="edge3_Node000001_Node000004" class="edge">
<title>Node1&#45;&gt;Node4</title>
<g id="a_edge3_Node000001_Node000004"><a xlink:title=" ">
<path fill="none" stroke="#63b8ff" d="M404.46,-132.5C371.31,-121 322.96,-104.23 293.46,-94"/>
<polygon fill="#63b8ff" stroke="#63b8ff" points="403.63,-135.92 414.23,-135.89 405.92,-129.3 403.63,-135.92"/>
</a>
</g>
</g>
<!-- Node6 -->
<g id="Node000006" class="node">
<title>Node6</title>
<g id="a_Node000006"><a xlink:href="../../d4/d5b/_d_c_p3_8h.html" target="_top" xlink:title=" ">
<polygon fill="white" stroke="#666666" points="516.5,-100 364.5,-100 364.5,-68 516.5,-68 516.5,-100"/>
<text text-anchor="start" x="372.5" y="-87.2" font-family="Consolas" font-size="11.00">Element/Membrane/PFM</text>
<text text-anchor="middle" x="440.5" y="-75.2" font-family="Consolas" font-size="11.00">/DCP3.h</text>
</a>
</g>
</g>
<!-- Node1&#45;&gt;Node6 -->
<g id="edge5_Node000001_Node000006" class="edge">
<title>Node1&#45;&gt;Node6</title>
<g id="a_edge5_Node000001_Node000006"><a xlink:title=" ">
<path fill="none" stroke="#63b8ff" d="M440.5,-125.71C440.5,-117.48 440.5,-108.01 440.5,-100.28"/>
<polygon fill="#63b8ff" stroke="#63b8ff" points="437,-125.89 440.5,-135.89 444,-125.89 437,-125.89"/>
</a>
</g>
</g>
<!-- Node8 -->
<g id="Node000008" class="node">
<title>Node8</title>
<g id="a_Node000008"><a xlink:href="../../d0/d9c/_d_c_p4_8h.html" target="_top" xlink:title=" ">
<polygon fill="white" stroke="#666666" points="686.5,-100 534.5,-100 534.5,-68 686.5,-68 686.5,-100"/>
<text text-anchor="start" x="542.5" y="-87.2" font-family="Consolas" font-size="11.00">Element/Membrane/PFM</text>
<text text-anchor="middle" x="610.5" y="-75.2" font-family="Consolas" font-size="11.00">/DCP4.h</text>
</a>
</g>
</g>
<!-- Node1&#45;&gt;Node8 -->
<g id="edge7_Node000001_Node000008" class="edge">
<title>Node1&#45;&gt;Node8</title>
<g id="a_edge7_Node000001_Node000008"><a xlink:title=" ">
<path fill="none" stroke="#63b8ff" d="M476.04,-132.46C502.79,-123.02 539.55,-110.04 567.88,-100.04"/>
<polygon fill="#63b8ff" stroke="#63b8ff" points="474.58,-129.26 466.32,-135.89 476.91,-135.86 474.58,-129.26"/>
</a>
</g>
</g>
<!-- Node10 -->
<g id="Node000010" class="node">
<title>Node10</title>
<g id="a_Node000010"><a xlink:href="../../d1/d80/_phase_field_8cpp.html" target="_top" xlink:title=" ">
<polygon fill="white" stroke="#666666" points="924,-94 705,-94 705,-74 924,-74 924,-94"/>
<text text-anchor="middle" x="814.5" y="-81.2" font-family="Consolas" font-size="11.00">Element/Utility/PhaseField.cpp</text>
</a>
</g>
</g>
<!-- Node1&#45;&gt;Node10 -->
<g id="edge9_Node000001_Node000010" class="edge">
<title>Node1&#45;&gt;Node10</title>
<g id="a_edge9_Node000001_Node000010"><a xlink:title=" ">
<path fill="none" stroke="#63b8ff" d="M507.14,-134.31C578.66,-122.83 691.03,-104.81 758.26,-94.02"/>
<polygon fill="#63b8ff" stroke="#63b8ff" points="506.22,-130.91 496.9,-135.95 507.32,-137.82 506.22,-130.91"/>
</a>
</g>
</g>
<!-- Node3 -->
<g id="Node000003" class="node">
<title>Node3</title>
<g id="a_Node000003"><a xlink:href="../../d8/dde/_d_c3_d4_8cpp.html" target="_top" xlink:title=" ">
<polygon fill="white" stroke="#666666" points="165,-26 0,-26 0,-6 165,-6 165,-26"/>
<text text-anchor="middle" x="82.5" y="-13.2" font-family="Consolas" font-size="11.00">Element/Cube/DC3D4.cpp</text>
</a>
</g>
</g>
<!-- Node2&#45;&gt;Node3 -->
<g id="edge2_Node000002_Node000003" class="edge">
<title>Node2&#45;&gt;Node3</title>
<g id="a_edge2_Node000002_Node000003"><a xlink:title=" ">
<path fill="none" stroke="#63b8ff" d="M88.85,-63.58C87.16,-51.19 85.05,-35.72 83.74,-26.1"/>
<polygon fill="#63b8ff" stroke="#63b8ff" points="85.43,-64.39 90.25,-73.82 92.37,-63.44 85.43,-64.39"/>
</a>
</g>
</g>
<!-- Node5 -->
<g id="Node000005" class="node">
<title>Node5</title>
<g id="a_Node000005"><a xlink:href="../../d1/dd8/_d_c3_d8_8cpp.html" target="_top" xlink:title=" ">
<polygon fill="white" stroke="#666666" points="348,-26 183,-26 183,-6 348,-6 348,-26"/>
<text text-anchor="middle" x="265.5" y="-13.2" font-family="Consolas" font-size="11.00">Element/Cube/DC3D8.cpp</text>
</a>
</g>
</g>
<!-- Node4&#45;&gt;Node5 -->
<g id="edge4_Node000004_Node000005" class="edge">
<title>Node4&#45;&gt;Node5</title>
<g id="a_edge4_Node000004_Node000005"><a xlink:title=" ">
<path fill="none" stroke="#63b8ff" d="M266.91,-63.58C266.54,-51.19 266.07,-35.72 265.78,-26.1"/>
<polygon fill="#63b8ff" stroke="#63b8ff" points="263.42,-63.93 267.22,-73.82 270.42,-63.72 263.42,-63.93"/>
</a>
</g>
</g>
<!-- Node7 -->
<g id="Node000007" class="node">
<title>Node7</title>
<g id="a_Node000007"><a xlink:href="../../d4/d75/_d_c_p3_8cpp.html" target="_top" xlink:title=" ">
<polygon fill="white" stroke="#666666" points="518.5,-32 366.5,-32 366.5,0 518.5,0 518.5,-32"/>
<text text-anchor="start" x="374.5" y="-19.2" font-family="Consolas" font-size="11.00">Element/Membrane/PFM</text>
<text text-anchor="middle" x="442.5" y="-7.2" font-family="Consolas" font-size="11.00">/DCP3.cpp</text>
</a>
</g>
</g>
<!-- Node6&#45;&gt;Node7 -->
<g id="edge6_Node000006_Node000007" class="edge">
<title>Node6&#45;&gt;Node7</title>
<g id="a_edge6_Node000006_Node000007"><a xlink:title=" ">
<path fill="none" stroke="#63b8ff" d="M441.27,-57.45C441.53,-48.93 441.81,-39.71 442.04,-32.22"/>
<polygon fill="#63b8ff" stroke="#63b8ff" points="437.77,-57.59 440.96,-67.69 444.77,-57.8 437.77,-57.59"/>
</a>
</g>
</g>
<!-- Node9 -->
<g id="Node000009" class="node">
<title>Node9</title>
<g id="a_Node000009"><a xlink:href="../../d0/d54/_d_c_p4_8cpp.html" target="_top" xlink:title=" ">
<polygon fill="white" stroke="#666666" points="688.5,-32 536.5,-32 536.5,0 688.5,0 688.5,-32"/>
<text text-anchor="start" x="544.5" y="-19.2" font-family="Consolas" font-size="11.00">Element/Membrane/PFM</text>
<text text-anchor="middle" x="612.5" y="-7.2" font-family="Consolas" font-size="11.00">/DCP4.cpp</text>
</a>
</g>
</g>
<!-- Node8&#45;&gt;Node9 -->
<g id="edge8_Node000008_Node000009" class="edge">
<title>Node8&#45;&gt;Node9</title>
<g id="a_edge8_Node000008_Node000009"><a xlink:title=" ">
<path fill="none" stroke="#63b8ff" d="M611.27,-57.45C611.53,-48.93 611.81,-39.71 612.04,-32.22"/>
<polygon fill="#63b8ff" stroke="#63b8ff" points="607.77,-57.59 610.96,-67.69 614.77,-57.8 607.77,-57.59"/>
</a>
</g>
</g>
</g>
</svg>

<g id="navigator" transform="translate(0 0)" fill="#404254">
  <rect fill="#f2f5e9" fill-opacity="0.5" stroke="#606060" stroke-width=".5" x="0" y="0" width="60" height="60"/>
  <use id="zoomplus" xlink:href="#zoomPlus" x="17" y="9" onmousedown="handleZoom(evt,'in')"/>
  <use id="zoomminus" xlink:href="#zoomMin" x="42" y="9" onmousedown="handleZoom(evt,'out')"/>
  <use id="reset" xlink:href="#resetDef" x="30" y="36" onmousedown="handleReset()"/>
   <use id="arrowup" xlink:href="#arrowUp" x="0" y="0" onmousedown="handlePan(0,-1)"/>
  <use id="arrowright" xlink:href="#arrowRight" x="0" y="0" onmousedown="handlePan(1,0)"/>
  <use id="arrowdown" xlink:href="#arrowDown" x="0" y="0" onmousedown="handlePan(0,1)"/>
  <use id="arrowleft" xlink:href="#arrowLeft" x="0" y="0" onmousedown="handlePan(-1,0)"/>
</g>
<svg viewBox="0 0 15 15" width="100%" height="30px" preserveAspectRatio="xMaxYMin meet">
 <g id="arrow_out" transform="scale(0.3 0.3)">
  <a xlink:href="_phase_field_8h__dep__incl_org.svg" target="_base">
   <rect id="button" ry="5" rx="5" y="6" x="6" height="38" width="38"
        fill="#f2f5e9" fill-opacity="0.5" stroke="#606060" stroke-width="1.0"/>
   <path id="arrow"
     d="M 11.500037,31.436501 C 11.940474,20.09759 22.043105,11.32322 32.158766,21.979434 L 37.068811,17.246167 C 37.068811,17.246167 37.088388,32 37.088388,32 L 22.160133,31.978069 C 22.160133,31.978069 26.997745,27.140456 26.997745,27.140456 C 18.528582,18.264221 13.291696,25.230495 11.500037,31.436501 z"
     style="fill:#404040;"/>
  </a>
 </g>
</svg>

<style type='text/css'>
<![CDATA[
[data-mouse-over-selected='false'] { opacity: 0.7; }
[data-mouse-over-selected='true']  { opacity: 1.0; }
]]>
</style>
<script type="application/ecmascript"><![CDATA[
document.addEventListener('DOMContentLoaded', (event) => {
  highlightEdges();
  highlightAdjacentNodes();
});
]]></script>
</svg>
