<?xml version="1.0" encoding="UTF-8" standalone="no"?>
<!DOCTYPE svg PUBLIC "-//W3C//DTD SVG 1.1//EN"
 "http://www.w3.org/Graphics/SVG/1.1/DTD/svg11.dtd">
<!-- Generated by graphviz version 8.1.0 (20230707.0739)
 -->
<!-- Title: DCP4::record Pages: 1 -->
<svg width="268pt" height="82pt"
 viewBox="0.00 0.00 268.00 82.25" xmlns="http://www.w3.org/2000/svg" xmlns:xlink="http://www.w3.org/1999/xlink">
<g id="graph0" class="graph" transform="scale(1 1) rotate(0) translate(4 78.25)">
<title>DCP4::record</title>
<!-- Node1 -->
<g id="Node000001" class="node">
<title>Node1</title>
<g id="a_Node000001"><a xlink:title=" ">
<polygon fill="#999999" stroke="#666666" points="88,-51.25 0,-51.25 0,-29.75 88,-29.75 88,-51.25"/>
<text text-anchor="middle" x="44" y="-36.8" font-family="Consolas" font-size="11.00">DCP4::record</text>
</a>
</g>
</g>
<!-- Node2 -->
<g id="Node000002" class="node">
<title>Node2</title>
<g id="a_Node000002"><a xlink:href="../../db/dd2/group___element.html#gafef35b7af4b3476d308cd9e51d3cf53d" target="_top" xlink:title=" ">
<polygon fill="white" stroke="#666666" points="227,-74.25 157,-74.25 157,-52.75 227,-52.75 227,-74.25"/>
<text text-anchor="middle" x="192" y="-59.8" font-family="Consolas" font-size="11.00">append_to</text>
</a>
</g>
</g>
<!-- Node1&#45;&gt;Node2 -->
<g id="edge1_Node000001_Node000002" class="edge">
<title>Node1&#45;&gt;Node2</title>
<g id="a_edge1_Node000001_Node000002"><a xlink:title=" ">
<path fill="none" stroke="#63b8ff" d="M88.41,-47.34C106.59,-50.2 127.73,-53.53 146.07,-56.42"/>
<polygon fill="#63b8ff" stroke="#63b8ff" points="145.37,-60.01 155.79,-58.11 146.46,-53.1 145.37,-60.01"/>
</a>
</g>
</g>
<!-- Node3 -->
<g id="Node000003" class="node">
<title>Node3</title>
<g id="a_Node000003"><a xlink:href="../../d5/d50/class_element.html#a7d03ff5714962b04b449bb2558a9d893" target="_top" xlink:title=" ">
<polygon fill="white" stroke="#666666" points="260,-35 124,-35 124,0 260,0 260,-35"/>
<text text-anchor="start" x="132" y="-20.55" font-family="Consolas" font-size="11.00">Element::get_current</text>
<text text-anchor="middle" x="192" y="-7.05" font-family="Consolas" font-size="11.00">_displacement</text>
</a>
</g>
</g>
<!-- Node1&#45;&gt;Node3 -->
<g id="edge2_Node000001_Node000003" class="edge">
<title>Node1&#45;&gt;Node3</title>
<g id="a_edge2_Node000001_Node000003"><a xlink:title=" ">
<path fill="none" stroke="#63b8ff" d="M88.41,-33.66C96.21,-32.43 104.56,-31.12 112.99,-29.79"/>
<polygon fill="#63b8ff" stroke="#63b8ff" points="113.35,-33.12 122.69,-28.1 112.26,-26.2 113.35,-33.12"/>
</a>
</g>
</g>
</g>
</svg>
