<svg xmlns="http://www.w3.org/2000/svg" xmlns:xlink="http://www.w3.org/1999/xlink" xml:space="preserve" id="main" onload="init(evt)"><style>.edge,.node,[data-mouse-over-selected=false]{opacity:.7}.edge.selected,.node.selected,[data-mouse-over-selected=true]{opacity:1}.edge:hover path{stroke:red}.edge:hover polygon{stroke:red;fill:red}</style><defs><g id="zoomPlus"><use xlink:href="#rim" fill="#404040"><set attributeName="fill" begin="zoomplus.mouseover" end="zoomplus.mouseout" to="#808080"/></use><path fill="none" stroke="#fff" stroke-width="1.5" d="M-4 0h8M0-4v8" pointer-events="none"/></g><g id="zoomMin"><use xlink:href="#rim" fill="#404040"><set attributeName="fill" begin="zoomminus.mouseover" end="zoomminus.mouseout" to="#808080"/></use><path fill="none" stroke="#fff" stroke-width="1.5" d="M-4 0h8" pointer-events="none"/></g><g id="arrowUp" transform="translate(30 24)"><use xlink:href="#rim"/><path fill="none" stroke="#fff" stroke-width="1.5" d="M0-3v7M-2.5-.5 0-3 2.5-.5" pointer-events="none"/></g><g id="arrowRight" transform="rotate(90 3.5 39.5)"><use xlink:href="#rim"/><path fill="none" stroke="#fff" stroke-width="1.5" d="M0-3v7M-2.5-.5 0-3 2.5-.5" pointer-events="none"/></g><g id="arrowDown" transform="matrix(-1 0 0 -1 30 48)"><use xlink:href="#rim"/><path fill="none" stroke="#fff" stroke-width="1.5" d="M0-3v7M-2.5-.5 0-3 2.5-.5" pointer-events="none"/></g><g id="arrowLeft" transform="rotate(-90 26.5 9.5)"><use xlink:href="#rim"/><path fill="none" stroke="#fff" stroke-width="1.5" d="M0-3v7M-2.5-.5 0-3 2.5-.5" pointer-events="none"/></g><circle id="rim" cx="0" cy="0" r="7"/><circle id="rim2" cx="0" cy="0" r="3.5"/><use xlink:href="#rim2" id="resetDef" fill="#404040"><set attributeName="fill" begin="reset.mouseover" end="reset.mouseout" to="#808080"/></use></defs><script type="application/ecmascript">var viewWidth = 1126;
var viewHeight = 712;
var sectionId = &apos;dynsection-5&apos;;</script><script xlink:href="../../svg.min.js" type="application/ecmascript"/><svg id="graph" class="graph"><g id="viewport"><title>Storage::disable</title><g id="Node000001" class="node"><title>Node1</title><a id="a_Node000001">
<path fill="#999" stroke="#666" d="M1118-362H993v20h125z"/>
<text x="1055.5" y="-349.2" font-family="Consolas" font-size="11" text-anchor="middle">Storage::disable</text>
</a></g><g id="Node000002" class="node"><title>Node2</title><a xlink:href="../../d4/df4/class_domain.html#a04b9447e44ccbdc73dd27516c2017b34" id="a_Node000002" target="_top">
<path fill="#fff" stroke="#666" d="M950-704H765v20h185z"/>
<text x="857.5" y="-691.2" font-family="Consolas" font-size="11" text-anchor="middle">Domain::disable_amplitude</text>
</a></g><g id="edge1_Node000001_Node000002" class="edge"><title>Node1-&gt;Node2</title><a id="a_edge1_Node000001_Node000002">
<path fill="none" stroke="#63b8ff" d="M1055.04-372.29c.33-57.16-7.11-220.66-98.04-302.71-3.88-3.5-8.2-6.44-12.81-8.91"/>
<path fill="#63b8ff" stroke="#63b8ff" d="m1058.53-372-3.65 9.94-3.35-10.05z"/>
</a></g><g id="Node000003" class="node"><title>Node3</title><a xlink:href="../../d4/df4/class_domain.html#af689af21ef18a4f1b7bdef178e13678d" id="a_Node000003" target="_top">
<path fill="#fff" stroke="#666" d="M953.5-666h-192v20h192z"/>
<text x="857.5" y="-653.2" font-family="Consolas" font-size="11" text-anchor="middle">Domain::disable_constraint</text>
</a></g><g id="edge2_Node000001_Node000003" class="edge"><title>Node1-&gt;Node3</title><a id="a_edge2_Node000001_Node000003">
<path fill="none" stroke="#63b8ff" d="M1054.09-372.36c-2.22-52.63-15.85-193.98-97.09-264.64-4.07-3.54-8.61-6.51-13.42-8.98"/>
<path fill="#63b8ff" stroke="#63b8ff" d="m1057.59-372.38-3.17 10.11-3.82-9.88z"/>
</a></g><g id="Node000007" class="node"><title>Node7</title><a xlink:href="../../d4/df4/class_domain.html#a31bf69482974bde15b98347d48c0825e" id="a_Node000007" target="_top">
<path fill="#fff" stroke="#666" d="M950-628H765v20h185z"/>
<text x="857.5" y="-615.2" font-family="Consolas" font-size="11" text-anchor="middle">Domain::disable_converger</text>
</a></g><g id="edge6_Node000001_Node000007" class="edge"><title>Node1-&gt;Node7</title><a id="a_edge6_Node000001_Node000007">
<path fill="none" stroke="#63b8ff" d="M1052.9-372.2c-4.91-47.59-24.14-167.25-95.9-226.8-4.29-3.56-9.04-6.53-14.08-8.99"/>
<path fill="#63b8ff" stroke="#63b8ff" d="m1056.39-372.49-2.56 10.28-4.41-9.63z"/>
</a></g><g id="Node000008" class="node"><title>Node8</title><a xlink:href="../../d4/df4/class_domain.html#a5d94257e9874144745339b4e3d4d9fbc" id="a_Node000008" target="_top">
<path fill="#fff" stroke="#666" d="M950-590H765v20h185z"/>
<text x="857.5" y="-577.2" font-family="Consolas" font-size="11" text-anchor="middle">Domain::disable_criterion</text>
</a></g><g id="edge7_Node000001_Node000008" class="edge"><title>Node1-&gt;Node8</title><a id="a_edge7_Node000001_Node000008">
<path fill="none" stroke="#63b8ff" d="M1051.3-372.22c-7.81-42.29-31.99-140.18-94.3-188.78-4.53-3.53-9.53-6.47-14.8-8.91"/>
<path fill="#63b8ff" stroke="#63b8ff" d="m1054.77-372.74-1.75 10.45-5.15-9.26z"/>
</a></g><g id="Node000009" class="node"><title>Node9</title><a xlink:href="../../d4/df4/class_domain.html#ab1cca1078fc0848d136d126802ea8450" id="a_Node000009" target="_top">
<path fill="#fff" stroke="#666" d="M947-552H768v20h179z"/>
<text x="857.5" y="-539.2" font-family="Consolas" font-size="11" text-anchor="middle">Domain::disable_database</text>
</a></g><g id="edge8_Node000001_Node000009" class="edge"><title>Node1-&gt;Node9</title><a id="a_edge8_Node000001_Node000009">
<path fill="none" stroke="#63b8ff" d="M1049.14-372c-10.85-36.34-39.01-112.95-92.14-151-4.96-3.55-10.4-6.48-16.1-8.9"/>
<path fill="#63b8ff" stroke="#63b8ff" d="m1052.58-372.68-.62 10.58-6.11-8.66z"/>
</a></g><g id="Node000010" class="node"><title>Node10</title><a xlink:href="../../d5/d68/class_bead.html#a9743df2cb7dda51866830657fe9b034f" id="a_Node000010" target="_top">
<path fill="#fff" stroke="#666" d="M933.5-514h-152v20h152z"/>
<text x="857.5" y="-501.2" font-family="Consolas" font-size="11" text-anchor="middle">Bead::disable_domain</text>
</a></g><g id="edge9_Node000001_Node000010" class="edge"><title>Node1-&gt;Node10</title><a id="a_edge9_Node000001_Node000010">
<path fill="none" stroke="#63b8ff" d="M1045.92-371.69C1031.9-401.37 1001.14-457.05 957-485c-7.14-4.52-15.1-8.01-23.33-10.69"/>
<path fill="#63b8ff" stroke="#63b8ff" d="m1049.21-372.92.96 10.55-7.33-7.64z"/>
</a></g><g id="Node000011" class="node"><title>Node11</title><a xlink:href="../../d4/df4/class_domain.html#a78067d3fde7634221cb9a2a4dd428882" id="a_Node000011" target="_top">
<path fill="#fff" stroke="#666" d="M722-245H550v20h172z"/>
<text x="636" y="-232.2" font-family="Consolas" font-size="11" text-anchor="middle">Domain::disable_element</text>
</a></g><g id="edge10_Node000001_Node000011" class="edge"><title>Node1-&gt;Node11</title><a id="a_edge10_Node000001_Node000011">
<path fill="none" stroke="#63b8ff" d="M1041.96-333.49c-16.5 22.6-47.79 59.87-84.96 76.49-74.35 33.25-168.18 35.69-234.98 31.67"/>
<path fill="#63b8ff" stroke="#63b8ff" d="m1039.28-335.76 8.63-6.15-2.92 10.19z"/>
</a></g><g id="Node000013" class="node"><title>Node13</title><a xlink:href="../../d4/df4/class_domain.html#a9df6461a8726a320afe503362785b05f" id="a_Node000013" target="_top">
<path fill="#fff" stroke="#666" d="M953.5-438h-192v20h192z"/>
<text x="857.5" y="-425.2" font-family="Consolas" font-size="11" text-anchor="middle">Domain::disable_expression</text>
</a></g><g id="edge13_Node000001_Node000013" class="edge"><title>Node1-&gt;Node13</title><a id="a_edge13_Node000001_Node000013">
<path fill="none" stroke="#63b8ff" d="M1032.43-367.84c-19.08-12.97-47.86-30.79-75.43-41.16-9.62-3.62-20.03-6.58-30.37-8.99"/>
<path fill="#63b8ff" stroke="#63b8ff" d="m1034.5-370.67 6.23 8.57-10.22-2.82z"/>
</a></g><g id="Node000014" class="node"><title>Node14</title><a xlink:href="../../d4/df4/class_domain.html#af86e3ab2ad2cd3670d7cbdd9efe569d7" id="a_Node000014" target="_top">
<path fill="#fff" stroke="#666" d="M936.5-400h-158v20h158z"/>
<text x="857.5" y="-387.2" font-family="Consolas" font-size="11" text-anchor="middle">Domain::disable_group</text>
</a></g><g id="edge14_Node000001_Node000014" class="edge"><title>Node1-&gt;Node14</title><a id="a_edge14_Node000001_Node000014">
<path fill="none" stroke="#63b8ff" d="M993.2-363.96c-12-2.34-24.49-4.77-36.2-7.04-15.05-2.92-31.39-6.07-46.35-8.96"/>
<path fill="#63b8ff" stroke="#63b8ff" d="m994-367.37 9.14 5.34-10.48 1.53z"/>
</a></g><g id="Node000015" class="node"><title>Node15</title><a xlink:href="../../d4/df4/class_domain.html#af807bb90d6dcd010ab060951503186b7" id="a_Node000015" target="_top">
<path fill="#fff" stroke="#666" d="M953.5-362h-192v20h192z"/>
<text x="857.5" y="-349.2" font-family="Consolas" font-size="11" text-anchor="middle">Domain::disable_integrator</text>
</a></g><g id="edge15_Node000001_Node000015" class="edge"><title>Node1-&gt;Node15</title><a id="a_edge15_Node000001_Node000015">
<path fill="none" stroke="#63b8ff" d="M982.65-352h-29.01"/>
<path fill="#63b8ff" stroke="#63b8ff" d="m982.75-355.5 10 3.5-10 3.5z"/>
</a></g><g id="Node000016" class="node"><title>Node16</title><a xlink:href="../../d4/df4/class_domain.html#a82c0ab3acb8f74e7026f4b31bd888475" id="a_Node000016" target="_top">
<path fill="#fff" stroke="#666" d="M957-324H758v20h199z"/>
<text x="857.5" y="-311.2" font-family="Consolas" font-size="11" text-anchor="middle">Domain::disable_interaction</text>
</a></g><g id="edge16_Node000001_Node000016" class="edge"><title>Node1-&gt;Node16</title><a id="a_edge16_Node000001_Node000016">
<path fill="none" stroke="#63b8ff" d="M993.2-340.04c-12 2.34-24.49 4.77-36.2 7.04-15.05 2.92-31.39 6.07-46.35 8.96"/>
<path fill="#63b8ff" stroke="#63b8ff" d="m992.66-343.5 10.48 1.53-9.14 5.34z"/>
</a></g><g id="Node000017" class="node"><title>Node17</title><a xlink:href="../../d4/df4/class_domain.html#adef6ec5aca397767fbdff9945a1fa0eb" id="a_Node000017" target="_top">
<path fill="#fff" stroke="#666" d="M933.5-476h-152v20h152z"/>
<text x="857.5" y="-463.2" font-family="Consolas" font-size="11" text-anchor="middle">Domain::disable_load</text>
</a></g><g id="edge17_Node000001_Node000017" class="edge"><title>Node1-&gt;Node17</title><a id="a_edge17_Node000001_Node000017">
<path fill="none" stroke="#63b8ff" d="M1041.09-370.46c-16.98-21.93-48.37-57.88-84.09-76.54-7.25-3.79-15.17-6.83-23.25-9.27"/>
<path fill="#63b8ff" stroke="#63b8ff" d="m1044.04-372.37 3.22 10.09-8.81-5.88z"/>
</a></g><g id="Node000019" class="node"><title>Node19</title><a xlink:href="../../d4/df4/class_domain.html#ad57c1a17cf7c45054df1303519fbee81" id="a_Node000019" target="_top">
<path fill="#fff" stroke="#666" d="M947-286H768v20h179z"/>
<text x="857.5" y="-273.2" font-family="Consolas" font-size="11" text-anchor="middle">Domain::disable_material</text>
</a></g><g id="edge20_Node000001_Node000019" class="edge"><title>Node1-&gt;Node19</title><a id="a_edge20_Node000001_Node000019">
<path fill="none" stroke="#63b8ff" d="M1032.43-336.16c-19.08 12.97-47.86 30.79-75.43 41.16-9.62 3.62-20.03 6.58-30.37 8.99"/>
<path fill="#63b8ff" stroke="#63b8ff" d="m1030.51-339.08 10.22-2.82-6.23 8.57z"/>
</a></g><g id="Node000021" class="node"><title>Node21</title><a xlink:href="../../d4/df4/class_domain.html#addf3d7c13613d4e22c2c05ddee26b62a" id="a_Node000021" target="_top">
<path fill="#fff" stroke="#666" d="M947-210H768v20h179z"/>
<text x="857.5" y="-197.2" font-family="Consolas" font-size="11" text-anchor="middle">Domain::disable_modifier</text>
</a></g><g id="edge23_Node000001_Node000021" class="edge"><title>Node1-&gt;Node21</title><a id="a_edge23_Node000001_Node000021">
<path fill="none" stroke="#63b8ff" d="M1045.14-332.51C1030.46-304.09 999.26-251.65 957-224c-9.28 6.07-19.96 10.61-30.78 14"/>
<path fill="#63b8ff" stroke="#63b8ff" d="m1042.19-334.43 7.6-7.38-1.34 10.51z"/>
</a></g><g id="Node000022" class="node"><title>Node22</title><a xlink:href="../../d4/df4/class_domain.html#a5f4e942dd29273bd4bdac9105ddc8fd3" id="a_Node000022" target="_top">
<path fill="#fff" stroke="#666" d="M933.5-172h-152v20h152z"/>
<text x="857.5" y="-159.2" font-family="Consolas" font-size="11" text-anchor="middle">Domain::disable_node</text>
</a></g><g id="edge24_Node000001_Node000022" class="edge"><title>Node1-&gt;Node22</title><a id="a_edge24_Node000001_Node000022">
<path fill="none" stroke="#63b8ff" d="M1049.14-332c-10.85 36.34-39.01 112.95-92.14 151-7.01 5.02-14.99 8.81-23.3 11.66"/>
<path fill="#63b8ff" stroke="#63b8ff" d="m1045.85-333.24 6.11-8.66.62 10.58z"/>
</a></g><g id="Node000023" class="node"><title>Node23</title><a xlink:href="../../d4/df4/class_domain.html#a3c61c65a554597ba55fa2ffd346a80d2" id="a_Node000023" target="_top">
<path fill="#fff" stroke="#666" d="M957-134H758v20h199z"/>
<text x="857.5" y="-121.2" font-family="Consolas" font-size="11" text-anchor="middle">Domain::disable_orientation</text>
</a></g><g id="edge25_Node000001_Node000023" class="edge"><title>Node1-&gt;Node23</title><a id="a_edge25_Node000001_Node000023">
<path fill="none" stroke="#63b8ff" d="M1051.3-331.78c-7.81 42.29-31.99 140.18-94.3 188.78-4.53 3.53-9.53 6.47-14.8 8.91"/>
<path fill="#63b8ff" stroke="#63b8ff" d="m1047.87-332.45 5.15-9.26 1.75 10.45z"/>
</a></g><g id="Node000024" class="node"><title>Node24</title><a xlink:href="../../d4/df4/class_domain.html#a8c3f526aceb3136d8f5400897581048c" id="a_Node000024" target="_top">
<path fill="#fff" stroke="#666" d="M947-96H768v20h179z"/>
<text x="857.5" y="-83.2" font-family="Consolas" font-size="11" text-anchor="middle">Domain::disable_recorder</text>
</a></g><g id="edge26_Node000001_Node000024" class="edge"><title>Node1-&gt;Node24</title><a id="a_edge26_Node000001_Node000024">
<path fill="none" stroke="#63b8ff" d="M1052.9-331.8c-4.91 47.59-24.14 167.25-95.9 226.8-4.29 3.56-9.04 6.53-14.08 8.99"/>
<path fill="#63b8ff" stroke="#63b8ff" d="m1049.42-332.16 4.41-9.63 2.56 10.28z"/>
</a></g><g id="Node000025" class="node"><title>Node25</title><a xlink:href="../../d4/df4/class_domain.html#ad1779512ef8b2b50fd4e5c11e1d17283" id="a_Node000025" target="_top">
<path fill="#fff" stroke="#666" d="M943.5-58h-172v20h172z"/>
<text x="857.5" y="-45.2" font-family="Consolas" font-size="11" text-anchor="middle">Domain::disable_section</text>
</a></g><g id="edge27_Node000001_Node000025" class="edge"><title>Node1-&gt;Node25</title><a id="a_edge27_Node000001_Node000025">
<path fill="none" stroke="#63b8ff" d="M1054.09-331.64C1051.87-279.01 1038.24-137.66 957-67c-4.07 3.54-8.61 6.51-13.42 8.98"/>
<path fill="#63b8ff" stroke="#63b8ff" d="m1050.6-331.85 3.82-9.88 3.17 10.11z"/>
</a></g><g id="Node000027" class="node"><title>Node27</title><a xlink:href="../../d4/df4/class_domain.html#a64fc670f30babda14df358e6f1eaac6c" id="a_Node000027" target="_top">
<path fill="#fff" stroke="#666" d="M940-20H775V0h165z"/>
<text x="857.5" y="-7.2" font-family="Consolas" font-size="11" text-anchor="middle">Domain::disable_solver</text>
</a></g><g id="edge30_Node000001_Node000027" class="edge"><title>Node1-&gt;Node27</title><a id="a_edge30_Node000001_Node000027">
<path fill="none" stroke="#63b8ff" d="M1055.04-331.71c.33 57.16-7.11 220.66-98.04 302.71-4.91 4.43-10.54 7.97-16.56 10.78"/>
<path fill="#63b8ff" stroke="#63b8ff" d="m1051.53-331.89 3.35-10.05 3.65 9.94z"/>
</a></g><g id="Node000004" class="node"><title>Node4</title><a xlink:href="../../d4/df4/class_domain.html#a3cab5b95950a7711bcd44d3f8f6e5c84" id="a_Node000004" target="_top">
<path fill="#fff" stroke="#666" d="M497-562H359v32h138z"/>
<text x="367" y="-549.2" font-family="Consolas" font-size="11">Domain::initialize</text>
<text x="428" y="-537.2" font-family="Consolas" font-size="11" text-anchor="middle">_constraint</text>
</a></g><g id="edge3_Node000003_Node000004" class="edge"><title>Node3-&gt;Node4</title><a id="a_edge3_Node000003_Node000004">
<path fill="none" stroke="#63b8ff" d="M790.45-644.01c-10.87 2.19-22 4.56-32.45 7.01-98.23 23.02-211.32 55.67-276.05 74.96"/>
<path fill="#63b8ff" stroke="#63b8ff" d="m789.85-647.46 10.49 1.5-9.13 5.37z"/>
</a></g><g id="Node000005" class="node"><title>Node5</title><a xlink:href="../../d4/df4/class_domain.html#a73716b13bce42072091e17df6d436ee7" id="a_Node000005" target="_top">
<path fill="#fff" stroke="#666" d="M306-476H188v20h118z"/>
<text x="247" y="-463.2" font-family="Consolas" font-size="11" text-anchor="middle">Domain::restart</text>
</a></g><g id="edge4_Node000004_Node000005" class="edge"><title>Node4-&gt;Node5</title><a id="a_edge4_Node000004_Node000005">
<path fill="none" stroke="#63b8ff" d="M381.59-525.7c-35.47 15.85-83.25 37.2-111.01 49.61"/>
<path fill="#63b8ff" stroke="#63b8ff" d="m380.22-528.93 10.56-.88-7.7 7.27z"/>
</a></g><g id="Node000006" class="node"><title>Node6</title><a xlink:href="../../d4/df4/class_domain.html#ad8e4cd651937e1fccbea4a00793b360d" id="a_Node000006" target="_top">
<path fill="#fff" stroke="#666" d="M152-476H0v20h152z"/>
<text x="76" y="-463.2" font-family="Consolas" font-size="11" text-anchor="middle">Domain::soft_restart</text>
</a></g><g id="edge5_Node000005_Node000006" class="edge"><title>Node5-&gt;Node6</title><a id="a_edge5_Node000005_Node000006">
<path fill="none" stroke="#63b8ff" d="M177.75-466h-25.47"/>
<path fill="#63b8ff" stroke="#63b8ff" d="m177.84-469.5 10 3.5-10 3.5z"/>
</a></g><g id="Node000012" class="node"><title>Node12</title><a xlink:href="../../d4/df4/class_domain.html#a54027c12bcd1ad5877ff9bcc4d393ea1" id="a_Node000012" target="_top">
<path fill="#fff" stroke="#666" d="M497-267H359v20h138z"/>
<text x="428" y="-254.2" font-family="Consolas" font-size="11" text-anchor="middle">Domain::initialize</text>
</a></g><g id="edge11_Node000011_Node000012" class="edge"><title>Node11-&gt;Node12</title><a id="a_edge11_Node000011_Node000012">
<path fill="none" stroke="#63b8ff" d="M539.41-245.21c-14.23-1.52-28.65-3.06-42.16-4.5"/>
<path fill="#63b8ff" stroke="#63b8ff" d="m540.15-248.65 9.57 4.54-10.31 2.42z"/>
</a></g><g id="edge12_Node000012_Node000005" class="edge"><title>Node12-&gt;Node5</title><a id="a_edge12_Node000012_Node000005">
<path fill="none" stroke="#63b8ff" d="M411.69-274.87c-36.16-42.23-126.02-147.14-154.72-180.66"/>
<path fill="#63b8ff" stroke="#63b8ff" d="m414.52-276.95 3.85 9.87-9.17-5.32z"/>
</a></g><g id="Node000018" class="node"><title>Node18</title><a xlink:href="../../d4/df4/class_domain.html#aa8af00280207e0a3ea3ab5ddff7f45ac" id="a_Node000018" target="_top">
<path fill="#fff" stroke="#666" d="M514-476H342v20h172z"/>
<text x="428" y="-463.2" font-family="Consolas" font-size="11" text-anchor="middle">Domain::initialize_load</text>
</a></g><g id="edge18_Node000017_Node000018" class="edge"><title>Node17-&gt;Node18</title><a id="a_edge18_Node000017_Node000018">
<path fill="none" stroke="#63b8ff" d="M770.76-466H514.33"/>
<path fill="#63b8ff" stroke="#63b8ff" d="m771.06-469.5 10 3.5-10 3.5z"/>
</a></g><g id="edge19_Node000018_Node000005" class="edge"><title>Node18-&gt;Node5</title><a id="a_edge19_Node000018_Node000005">
<path fill="none" stroke="#63b8ff" d="M331.75-466h-25.5"/>
<path fill="#63b8ff" stroke="#63b8ff" d="m331.96-469.5 10 3.5-10 3.5z"/>
</a></g><g id="Node000020" class="node"><title>Node20</title><a xlink:href="../../d4/df4/class_domain.html#aabe8c50293f0da3130de2c526a661658" id="a_Node000020" target="_top">
<path fill="#fff" stroke="#666" d="M705-295H567v32h138z"/>
<text x="575" y="-282.2" font-family="Consolas" font-size="11">Domain::initialize</text>
<text x="636" y="-270.2" font-family="Consolas" font-size="11" text-anchor="middle">_material</text>
</a></g><g id="edge21_Node000019_Node000020" class="edge"><title>Node19-&gt;Node20</title><a id="a_edge21_Node000019_Node000020">
<path fill="none" stroke="#63b8ff" d="M757.47-277.35c-17.72-.25-35.82-.49-52.43-.72"/>
<path fill="#63b8ff" stroke="#63b8ff" d="m757.9-280.85 9.95 3.64-10.04 3.36z"/>
</a></g><g id="edge22_Node000020_Node000012" class="edge"><title>Node20-&gt;Node12</title><a id="a_edge22_Node000020_Node000012">
<path fill="none" stroke="#63b8ff" d="M556.86-270.65c-19.6 2.09-40.48 4.32-59.56 6.36"/>
<path fill="#63b8ff" stroke="#63b8ff" d="m556.66-274.15 10.32 2.41-9.57 4.55z"/>
</a></g><g id="Node000026" class="node"><title>Node26</title><a xlink:href="../../d4/df4/class_domain.html#a2135509676eb1b21d5f66fb871664dd9" id="a_Node000026" target="_top">
<path fill="#fff" stroke="#666" d="M705-134H567v32h138z"/>
<text x="575" y="-121.2" font-family="Consolas" font-size="11">Domain::initialize</text>
<text x="636" y="-109.2" font-family="Consolas" font-size="11" text-anchor="middle">_section</text>
</a></g><g id="edge28_Node000025_Node000026" class="edge"><title>Node25-&gt;Node26</title><a id="a_edge28_Node000025_Node000026">
<path fill="none" stroke="#63b8ff" d="M784.06-60.18c-8.85-2.01-17.71-4.28-26.06-6.82-30.65-9.3-64.1-23.76-88.05-34.9"/>
<path fill="#63b8ff" stroke="#63b8ff" d="m784.99-63.56 9.03 5.54-10.52 1.3z"/>
</a></g><g id="edge29_Node000026_Node000012" class="edge"><title>Node26-&gt;Node12</title><a id="a_edge29_Node000026_Node000012">
<path fill="none" stroke="#63b8ff" d="M602.68-139.81c-45.26-30.54-125.67-84.8-158.79-107.14"/>
<path fill="#63b8ff" stroke="#63b8ff" d="m604.63-142.71 6.34 8.49-10.25-2.69z"/>
</a></g></g></svg><g id="navigator" fill="#404254"><path fill="#f2f5e9" fill-opacity=".5" stroke="#606060" stroke-width=".5" d="M0 0h60v60H0z"/><use xlink:href="#zoomPlus" id="zoomplus" x="17" y="9" onmousedown="handleZoom(evt,'in')"/><use xlink:href="#zoomMin" id="zoomminus" x="42" y="9" onmousedown="handleZoom(evt,'out')"/><use xlink:href="#resetDef" id="reset" x="30" y="36" onmousedown="handleReset()"/><use xlink:href="#arrowUp" id="arrowup" x="0" y="0" onmousedown="handlePan(0,-1)"/><use xlink:href="#arrowRight" id="arrowright" x="0" y="0" onmousedown="handlePan(1,0)"/><use xlink:href="#arrowDown" id="arrowdown" x="0" y="0" onmousedown="handlePan(0,1)"/><use xlink:href="#arrowLeft" id="arrowleft" x="0" y="0" onmousedown="handlePan(-1,0)"/></g><svg height="30" preserveAspectRatio="xMaxYMin meet" viewBox="0 0 15 15"><a xlink:href="class_storage_a943b002d5726416b145f33701c7db86d_icgraph_org.svg" id="arrow_out" target="_base" transform="scale(.3)">
   <rect id="button" width="38" height="38" x="6" y="6" fill="#f2f5e9" fill-opacity=".5" stroke="#606060" stroke-width="1" rx="5" ry="5"/>
   <path id="arrow" d="M11.5 31.437c.44-11.34 10.543-20.114 20.659-9.458l4.91-4.733.02 14.754-14.929-.022 4.838-4.838c-8.47-8.876-13.706-1.91-15.498 4.297" style="fill:#404040"/>
  </a></svg><script type="application/ecmascript"><![CDATA[
document.addEventListener('DOMContentLoaded', (event) => {
  highlightEdges();
  highlightAdjacentNodes();
});
]]></script></svg>