<?xml version="1.0" encoding="UTF-8" standalone="no"?>
<!DOCTYPE svg PUBLIC "-//W3C//DTD SVG 1.1//EN"
 "http://www.w3.org/Graphics/SVG/1.1/DTD/svg11.dtd">
<!-- Generated by graphviz version 8.1.0 (20230707.0739)
 -->
<!-- Title: Constraint/Constraint.h Pages: 1 -->
<svg width="2815pt" height="371pt"
 viewBox="0.00 0.00 2815.00 371.00" xmlns="http://www.w3.org/2000/svg" xmlns:xlink="http://www.w3.org/1999/xlink">
<g id="graph0" class="graph" transform="scale(1 1) rotate(0) translate(4 367)">
<title>Constraint/Constraint.h</title>
<!-- Node1 -->
<g id="Node000001" class="node">
<title>Node1</title>
<g id="a_Node000001"><a xlink:title=" ">
<polygon fill="#999999" stroke="#666666" points="1417,-363 1263,-363 1263,-341.5 1417,-341.5 1417,-363"/>
<text text-anchor="middle" x="1340" y="-348.55" font-family="Consolas" font-size="11.00">Constraint/Constraint.h</text>
</a>
</g>
</g>
<!-- Node2 -->
<g id="Node000002" class="node">
<title>Node2</title>
<g id="a_Node000002"><a xlink:href="../../d6/db8/_penalty_b_c_8h.html" target="_top" xlink:title=" ">
<polygon fill="white" stroke="#666666" points="533,-305.5 367,-305.5 367,-284 533,-284 533,-305.5"/>
<text text-anchor="middle" x="450" y="-291.05" font-family="Consolas" font-size="11.00">Constraint/BC/PenaltyBC.h</text>
</a>
</g>
</g>
<!-- Node1&#45;&gt;Node2 -->
<g id="edge1_Node000001_Node000002" class="edge">
<title>Node1&#45;&gt;Node2</title>
<g id="a_edge1_Node000001_Node000002"><a xlink:title=" ">
<path fill="none" stroke="#63b8ff" d="M1251.85,-347.59C1104.65,-341.17 799.55,-326.52 542,-305.5 539.12,-305.26 536.19,-305.01 533.23,-304.75"/>
<polygon fill="#63b8ff" stroke="#63b8ff" points="1251.46,-351.12 1261.6,-348.06 1251.76,-344.13 1251.46,-351.12"/>
</a>
</g>
</g>
<!-- Node10 -->
<g id="Node000010" class="node">
<title>Node10</title>
<g id="a_Node000010"><a xlink:href="../../d1/dfe/_constraint_8cpp.html" target="_top" xlink:title=" ">
<polygon fill="white" stroke="#666666" points="717,-305.5 551,-305.5 551,-284 717,-284 717,-305.5"/>
<text text-anchor="middle" x="634" y="-291.05" font-family="Consolas" font-size="11.00">Constraint/Constraint.cpp</text>
</a>
</g>
</g>
<!-- Node1&#45;&gt;Node10 -->
<g id="edge9_Node000001_Node000010" class="edge">
<title>Node1&#45;&gt;Node10</title>
<g id="a_edge9_Node000001_Node000010"><a xlink:title=" ">
<path fill="none" stroke="#63b8ff" d="M1252,-345.56C1132.72,-337.65 913.12,-322.38 726,-305.5 723.12,-305.24 720.19,-304.97 717.23,-304.69"/>
<polygon fill="#63b8ff" stroke="#63b8ff" points="1251.67,-349.11 1261.88,-346.28 1252.13,-342.13 1251.67,-349.11"/>
</a>
</g>
</g>
<!-- Node11 -->
<g id="Node000011" class="node">
<title>Node11</title>
<g id="a_Node000011"><a xlink:href="../../d3/d6d/_embed_8h.html" target="_top" xlink:title=" ">
<polygon fill="white" stroke="#666666" points="859,-305.5 735,-305.5 735,-284 859,-284 859,-305.5"/>
<text text-anchor="middle" x="797" y="-291.05" font-family="Consolas" font-size="11.00">Constraint/Embed.h</text>
</a>
</g>
</g>
<!-- Node1&#45;&gt;Node11 -->
<g id="edge10_Node000001_Node000011" class="edge">
<title>Node1&#45;&gt;Node11</title>
<g id="a_edge10_Node000001_Node000011"><a xlink:title=" ">
<path fill="none" stroke="#63b8ff" d="M1251.94,-343.77C1157.05,-335.46 1001.65,-321.15 868,-305.5 865.16,-305.17 862.25,-304.82 859.32,-304.45"/>
<polygon fill="#63b8ff" stroke="#63b8ff" points="1251.37,-347.32 1261.64,-344.7 1251.98,-340.35 1251.37,-347.32"/>
</a>
</g>
</g>
<!-- Node13 -->
<g id="Node000013" class="node">
<title>Node13</title>
<g id="a_Node000013"><a xlink:href="../../d4/dcc/_fixed_length_8h.html" target="_top" xlink:title=" ">
<polygon fill="white" stroke="#666666" points="1037,-305.5 877,-305.5 877,-284 1037,-284 1037,-305.5"/>
<text text-anchor="middle" x="957" y="-291.05" font-family="Consolas" font-size="11.00">Constraint/FixedLength.h</text>
</a>
</g>
</g>
<!-- Node1&#45;&gt;Node13 -->
<g id="edge12_Node000001_Node000013" class="edge">
<title>Node1&#45;&gt;Node13</title>
<g id="a_edge12_Node000001_Node000013"><a xlink:title=" ">
<path fill="none" stroke="#63b8ff" d="M1258.55,-339.45C1189.99,-329.51 1092.92,-315.45 1027.61,-305.98"/>
<polygon fill="#63b8ff" stroke="#63b8ff" points="1257.91,-343.04 1268.31,-341.01 1258.91,-336.11 1257.91,-343.04"/>
</a>
</g>
</g>
<!-- Node15 -->
<g id="Node000015" class="node">
<title>Node15</title>
<g id="a_Node000015"><a xlink:href="../../dc/d6d/_m_p_c_8h.html" target="_top" xlink:title=" ">
<polygon fill="white" stroke="#666666" points="1167,-305.5 1055,-305.5 1055,-284 1167,-284 1167,-305.5"/>
<text text-anchor="middle" x="1111" y="-291.05" font-family="Consolas" font-size="11.00">Constraint/MPC.h</text>
</a>
</g>
</g>
<!-- Node1&#45;&gt;Node15 -->
<g id="edge14_Node000001_Node000015" class="edge">
<title>Node1&#45;&gt;Node15</title>
<g id="a_edge14_Node000001_Node000015"><a xlink:title=" ">
<path fill="none" stroke="#63b8ff" d="M1287.18,-338.45C1246.42,-328.57 1190.79,-315.09 1153.02,-305.93"/>
<polygon fill="#63b8ff" stroke="#63b8ff" points="1286.19,-342.05 1296.73,-341.01 1287.84,-335.25 1286.19,-342.05"/>
</a>
</g>
</g>
<!-- Node17 -->
<g id="Node000017" class="node">
<title>Node17</title>
<g id="a_Node000017"><a xlink:href="../../de/d39/_node_facet_8h.html" target="_top" xlink:title=" ">
<polygon fill="white" stroke="#666666" points="1333,-305.5 1185,-305.5 1185,-284 1333,-284 1333,-305.5"/>
<text text-anchor="middle" x="1259" y="-291.05" font-family="Consolas" font-size="11.00">Constraint/NodeFacet.h</text>
</a>
</g>
</g>
<!-- Node1&#45;&gt;Node17 -->
<g id="edge16_Node000001_Node000017" class="edge">
<title>Node1&#45;&gt;Node17</title>
<g id="a_edge16_Node000001_Node000017"><a xlink:title=" ">
<path fill="none" stroke="#63b8ff" d="M1316.22,-334.96C1302.48,-325.54 1285.61,-313.98 1273.76,-305.87"/>
<polygon fill="#63b8ff" stroke="#63b8ff" points="1313.92,-338.31 1324.14,-341.07 1317.87,-332.53 1313.92,-338.31"/>
</a>
</g>
</g>
<!-- Node19 -->
<g id="Node000019" class="node">
<title>Node19</title>
<g id="a_Node000019"><a xlink:href="../../da/d31/_node_line_8h.html" target="_top" xlink:title=" ">
<polygon fill="white" stroke="#666666" points="1493,-305.5 1351,-305.5 1351,-284 1493,-284 1493,-305.5"/>
<text text-anchor="middle" x="1422" y="-291.05" font-family="Consolas" font-size="11.00">Constraint/NodeLine.h</text>
</a>
</g>
</g>
<!-- Node1&#45;&gt;Node19 -->
<g id="edge18_Node000001_Node000019" class="edge">
<title>Node1&#45;&gt;Node19</title>
<g id="a_edge18_Node000001_Node000019"><a xlink:title=" ">
<path fill="none" stroke="#63b8ff" d="M1364.07,-334.96C1377.99,-325.54 1395.06,-313.98 1407.06,-305.87"/>
<polygon fill="#63b8ff" stroke="#63b8ff" points="1362.36,-332.57 1356.04,-341.07 1366.28,-338.36 1362.36,-332.57"/>
</a>
</g>
</g>
<!-- Node21 -->
<g id="Node000021" class="node">
<title>Node21</title>
<g id="a_Node000021"><a xlink:href="../../dc/da5/_particle_collision_8h.html" target="_top" xlink:title=" ">
<polygon fill="white" stroke="#666666" points="1713,-305.5 1517,-305.5 1517,-284 1713,-284 1713,-305.5"/>
<text text-anchor="middle" x="1615" y="-291.05" font-family="Consolas" font-size="11.00">Constraint/ParticleCollision.h</text>
</a>
</g>
</g>
<!-- Node1&#45;&gt;Node21 -->
<g id="edge20_Node000001_Node000021" class="edge">
<title>Node1&#45;&gt;Node21</title>
<g id="a_edge20_Node000001_Node000021"><a xlink:title=" ">
<path fill="none" stroke="#63b8ff" d="M1401.25,-338.89C1450.38,-328.97 1518.51,-315.22 1564.54,-305.93"/>
<polygon fill="#63b8ff" stroke="#63b8ff" points="1400.87,-335.6 1391.76,-341.01 1402.25,-342.46 1400.87,-335.6"/>
</a>
</g>
</g>
<!-- Node31 -->
<g id="Node000031" class="node">
<title>Node31</title>
<g id="a_Node000031"><a xlink:href="../../d8/dbb/_rigid_wall_penalty_8h.html" target="_top" xlink:title=" ">
<polygon fill="white" stroke="#666666" points="1921,-305.5 1731,-305.5 1731,-284 1921,-284 1921,-305.5"/>
<text text-anchor="middle" x="1826" y="-291.05" font-family="Consolas" font-size="11.00">Constraint/RigidWallPenalty.h</text>
</a>
</g>
</g>
<!-- Node1&#45;&gt;Node31 -->
<g id="edge30_Node000001_Node000031" class="edge">
<title>Node1&#45;&gt;Node31</title>
<g id="a_edge30_Node000001_Node000031"><a xlink:title=" ">
<path fill="none" stroke="#63b8ff" d="M1427.95,-341.21C1515.23,-331.24 1648.34,-316.04 1736.25,-306"/>
<polygon fill="#63b8ff" stroke="#63b8ff" points="1427.81,-337.81 1418.28,-342.43 1428.61,-344.77 1427.81,-337.81"/>
</a>
</g>
</g>
<!-- Node37 -->
<g id="Node000037" class="node">
<title>Node37</title>
<g id="a_Node000037"><a xlink:href="../../d9/df3/_domain_8cpp.html" target="_top" xlink:title=" ">
<polygon fill="white" stroke="#666666" points="2057,-305.5 1939,-305.5 1939,-284 2057,-284 2057,-305.5"/>
<text text-anchor="middle" x="1998" y="-291.05" font-family="Consolas" font-size="11.00">Domain/Domain.cpp</text>
</a>
</g>
</g>
<!-- Node1&#45;&gt;Node37 -->
<g id="edge36_Node000001_Node000037" class="edge">
<title>Node1&#45;&gt;Node37</title>
<g id="a_edge36_Node000001_Node000037"><a xlink:title=" ">
<path fill="none" stroke="#63b8ff" d="M1428.35,-346.2C1543.87,-339.18 1752.43,-325.09 1930,-305.5 1932.85,-305.19 1935.75,-304.85 1938.69,-304.49"/>
<polygon fill="#63b8ff" stroke="#63b8ff" points="1428.23,-342.76 1418.46,-346.85 1428.66,-349.74 1428.23,-342.76"/>
</a>
</g>
</g>
<!-- Node38 -->
<g id="Node000038" class="node">
<title>Node38</title>
<g id="a_Node000038"><a xlink:href="../../dc/d64/_domain_state_8cpp.html" target="_top" xlink:title=" ">
<polygon fill="white" stroke="#666666" points="2223,-305.5 2075,-305.5 2075,-284 2223,-284 2223,-305.5"/>
<text text-anchor="middle" x="2149" y="-291.05" font-family="Consolas" font-size="11.00">Domain/DomainState.cpp</text>
</a>
</g>
</g>
<!-- Node1&#45;&gt;Node38 -->
<g id="edge37_Node000001_Node000038" class="edge">
<title>Node1&#45;&gt;Node38</title>
<g id="a_edge37_Node000001_Node000038"><a xlink:title=" ">
<path fill="none" stroke="#63b8ff" d="M1428.28,-347.23C1565.06,-340.65 1836.38,-326.21 2066,-305.5 2068.89,-305.24 2071.84,-304.96 2074.81,-304.67"/>
<polygon fill="#63b8ff" stroke="#63b8ff" points="1428.29,-343.77 1418.47,-347.74 1428.62,-350.76 1428.29,-343.77"/>
</a>
</g>
</g>
<!-- Node39 -->
<g id="Node000039" class="node">
<title>Node39</title>
<g id="a_Node000039"><a xlink:href="../../d1/d81/command_8cpp.html" target="_top" xlink:title=" ">
<polygon fill="white" stroke="#666666" points="2371,-305.5 2241,-305.5 2241,-284 2371,-284 2371,-305.5"/>
<text text-anchor="middle" x="2306" y="-291.05" font-family="Consolas" font-size="11.00">Toolbox/command.cpp</text>
</a>
</g>
</g>
<!-- Node1&#45;&gt;Node39 -->
<g id="edge38_Node000001_Node000039" class="edge">
<title>Node1&#45;&gt;Node39</title>
<g id="a_edge38_Node000001_Node000039"><a xlink:title=" ">
<path fill="none" stroke="#63b8ff" d="M1428.15,-349.06C1588.43,-344.56 1938.21,-332.35 2232,-305.5 2234.84,-305.24 2237.74,-304.95 2240.66,-304.65"/>
<polygon fill="#63b8ff" stroke="#63b8ff" points="1428.3,-345.58 1418.4,-349.36 1428.5,-352.58 1428.3,-345.58"/>
</a>
</g>
</g>
<!-- Node3 -->
<g id="Node000003" class="node">
<title>Node3</title>
<g id="a_Node000003"><a xlink:href="../../d9/d2b/_multiplier_b_c_8h.html" target="_top" xlink:title=" ">
<polygon fill="white" stroke="#666666" points="402,-241.25 218,-241.25 218,-219.75 402,-219.75 402,-241.25"/>
<text text-anchor="middle" x="310" y="-226.8" font-family="Consolas" font-size="11.00">Constraint/BC/MultiplierBC.h</text>
</a>
</g>
</g>
<!-- Node2&#45;&gt;Node3 -->
<g id="edge2_Node000002_Node000003" class="edge">
<title>Node2&#45;&gt;Node3</title>
<g id="a_edge2_Node000002_Node000003"><a xlink:title=" ">
<path fill="none" stroke="#63b8ff" d="M417.42,-279.27C391.46,-267.72 355.77,-251.85 332.8,-241.64"/>
<polygon fill="#63b8ff" stroke="#63b8ff" points="415.64,-282.75 426.19,-283.61 418.48,-276.35 415.64,-282.75"/>
</a>
</g>
</g>
<!-- Node9 -->
<g id="Node000009" class="node">
<title>Node9</title>
<g id="a_Node000009"><a xlink:href="../../d1/d90/_penalty_b_c_8cpp.html" target="_top" xlink:title=" ">
<polygon fill="white" stroke="#666666" points="598,-241.25 420,-241.25 420,-219.75 598,-219.75 598,-241.25"/>
<text text-anchor="middle" x="509" y="-226.8" font-family="Consolas" font-size="11.00">Constraint/BC/PenaltyBC.cpp</text>
</a>
</g>
</g>
<!-- Node2&#45;&gt;Node9 -->
<g id="edge8_Node000002_Node000009" class="edge">
<title>Node2&#45;&gt;Node9</title>
<g id="a_edge8_Node000002_Node000009"><a xlink:title=" ">
<path fill="none" stroke="#63b8ff" d="M466.89,-275.92C477.41,-264.83 490.57,-250.95 499.35,-241.68"/>
<polygon fill="#63b8ff" stroke="#63b8ff" points="464.82,-273.08 460.48,-282.75 469.9,-277.9 464.82,-273.08"/>
</a>
</g>
</g>
<!-- Node4 -->
<g id="Node000004" class="node">
<title>Node4</title>
<g id="a_Node000004"><a xlink:href="../../dc/d90/_group_penalty_b_c_8h.html" target="_top" xlink:title=" ">
<polygon fill="white" stroke="#666666" points="310,-170.25 114,-170.25 114,-148.75 310,-148.75 310,-170.25"/>
<text text-anchor="middle" x="212" y="-155.8" font-family="Consolas" font-size="11.00">Constraint/BC/GroupPenaltyBC.h</text>
</a>
</g>
</g>
<!-- Node3&#45;&gt;Node4 -->
<g id="edge3_Node000003_Node000004" class="edge">
<title>Node3&#45;&gt;Node4</title>
<g id="a_edge3_Node000003_Node000004"><a xlink:title=" ">
<path fill="none" stroke="#63b8ff" d="M286.75,-213.13C268.06,-199.97 242.39,-181.9 226.52,-170.72"/>
<polygon fill="#63b8ff" stroke="#63b8ff" points="284.35,-216.42 294.54,-219.32 288.38,-210.7 284.35,-216.42"/>
</a>
</g>
</g>
<!-- Node8 -->
<g id="Node000008" class="node">
<title>Node8</title>
<g id="a_Node000008"><a xlink:href="../../d5/dde/_multiplier_b_c_8cpp.html" target="_top" xlink:title=" ">
<polygon fill="white" stroke="#666666" points="488,-177 328,-177 328,-142 488,-142 488,-177"/>
<text text-anchor="start" x="336" y="-162.55" font-family="Consolas" font-size="11.00">Constraint/BC/Multiplier</text>
<text text-anchor="middle" x="408" y="-149.05" font-family="Consolas" font-size="11.00">BC.cpp</text>
</a>
</g>
</g>
<!-- Node3&#45;&gt;Node8 -->
<g id="edge7_Node000003_Node000008" class="edge">
<title>Node3&#45;&gt;Node8</title>
<g id="a_edge7_Node000003_Node000008"><a xlink:title=" ">
<path fill="none" stroke="#63b8ff" d="M333.3,-213.1C348.59,-202.33 368.54,-188.28 383.98,-177.42"/>
<polygon fill="#63b8ff" stroke="#63b8ff" points="331.62,-210.7 325.46,-219.32 335.65,-216.42 331.62,-210.7"/>
</a>
</g>
</g>
<!-- Node5 -->
<g id="Node000005" class="node">
<title>Node5</title>
<g id="a_Node000005"><a xlink:href="../../d8/d15/_group_multiplier_b_c_8h.html" target="_top" xlink:title=" ">
<polygon fill="white" stroke="#666666" points="214,-99.25 0,-99.25 0,-77.75 214,-77.75 214,-99.25"/>
<text text-anchor="middle" x="107" y="-84.8" font-family="Consolas" font-size="11.00">Constraint/BC/GroupMultiplierBC.h</text>
</a>
</g>
</g>
<!-- Node4&#45;&gt;Node5 -->
<g id="edge4_Node000004_Node000005" class="edge">
<title>Node4&#45;&gt;Node5</title>
<g id="a_edge4_Node000004_Node000005"><a xlink:title=" ">
<path fill="none" stroke="#63b8ff" d="M187.36,-142.31C167.32,-129.14 139.64,-110.95 122.56,-99.72"/>
<polygon fill="#63b8ff" stroke="#63b8ff" points="185.23,-145.75 195.51,-148.32 189.07,-139.9 185.23,-145.75"/>
</a>
</g>
</g>
<!-- Node7 -->
<g id="Node000007" class="node">
<title>Node7</title>
<g id="a_Node000007"><a xlink:href="../../dc/da8/_group_penalty_b_c_8cpp.html" target="_top" xlink:title=" ">
<polygon fill="white" stroke="#666666" points="404,-106 232,-106 232,-71 404,-71 404,-106"/>
<text text-anchor="start" x="240" y="-91.55" font-family="Consolas" font-size="11.00">Constraint/BC/GroupPenalty</text>
<text text-anchor="middle" x="318" y="-78.05" font-family="Consolas" font-size="11.00">BC.cpp</text>
</a>
</g>
</g>
<!-- Node4&#45;&gt;Node7 -->
<g id="edge6_Node000004_Node000007" class="edge">
<title>Node4&#45;&gt;Node7</title>
<g id="a_edge6_Node000004_Node000007"><a xlink:title=" ">
<path fill="none" stroke="#63b8ff" d="M236.73,-142.4C253.33,-131.6 275.16,-117.39 292.01,-106.42"/>
<polygon fill="#63b8ff" stroke="#63b8ff" points="235.11,-139.93 228.64,-148.32 238.93,-145.8 235.11,-139.93"/>
</a>
</g>
</g>
<!-- Node6 -->
<g id="Node000006" class="node">
<title>Node6</title>
<g id="a_Node000006"><a xlink:href="../../d0/d41/_group_multiplier_b_c_8cpp.html" target="_top" xlink:title=" ">
<polygon fill="white" stroke="#666666" points="202,-35 12,-35 12,0 202,0 202,-35"/>
<text text-anchor="start" x="20" y="-20.55" font-family="Consolas" font-size="11.00">Constraint/BC/GroupMultiplier</text>
<text text-anchor="middle" x="107" y="-7.05" font-family="Consolas" font-size="11.00">BC.cpp</text>
</a>
</g>
</g>
<!-- Node5&#45;&gt;Node6 -->
<g id="edge5_Node000005_Node000006" class="edge">
<title>Node5&#45;&gt;Node6</title>
<g id="a_edge5_Node000005_Node000006"><a xlink:title=" ">
<path fill="none" stroke="#63b8ff" d="M107,-66.35C107,-56.42 107,-44.75 107,-35.42"/>
<polygon fill="#63b8ff" stroke="#63b8ff" points="103.5,-66.32 107,-76.32 110.5,-66.32 103.5,-66.32"/>
</a>
</g>
</g>
<!-- Node12 -->
<g id="Node000012" class="node">
<title>Node12</title>
<g id="a_Node000012"><a xlink:href="../../dc/d5e/_embed_8cpp.html" target="_top" xlink:title=" ">
<polygon fill="white" stroke="#666666" points="811,-241.25 675,-241.25 675,-219.75 811,-219.75 811,-241.25"/>
<text text-anchor="middle" x="743" y="-226.8" font-family="Consolas" font-size="11.00">Constraint/Embed.cpp</text>
</a>
</g>
</g>
<!-- Node11&#45;&gt;Node12 -->
<g id="edge11_Node000011_Node000012" class="edge">
<title>Node11&#45;&gt;Node12</title>
<g id="a_edge11_Node000011_Node000012"><a xlink:title=" ">
<path fill="none" stroke="#63b8ff" d="M781.25,-275.6C771.67,-264.55 759.79,-250.86 751.83,-241.68"/>
<polygon fill="#63b8ff" stroke="#63b8ff" points="779.13,-277.49 788.32,-282.75 784.42,-272.9 779.13,-277.49"/>
</a>
</g>
</g>
<!-- Node14 -->
<g id="Node000014" class="node">
<title>Node14</title>
<g id="a_Node000014"><a xlink:href="../../d4/df3/_fixed_length_8cpp.html" target="_top" xlink:title=" ">
<polygon fill="white" stroke="#666666" points="1001,-241.25 829,-241.25 829,-219.75 1001,-219.75 1001,-241.25"/>
<text text-anchor="middle" x="915" y="-226.8" font-family="Consolas" font-size="11.00">Constraint/FixedLength.cpp</text>
</a>
</g>
</g>
<!-- Node13&#45;&gt;Node14 -->
<g id="edge13_Node000013_Node000014" class="edge">
<title>Node13&#45;&gt;Node14</title>
<g id="a_edge13_Node000013_Node000014"><a xlink:title=" ">
<path fill="none" stroke="#63b8ff" d="M944.31,-274.94C936.94,-264.01 927.94,-250.67 921.87,-241.68"/>
<polygon fill="#63b8ff" stroke="#63b8ff" points="941.76,-276.42 950.25,-282.75 947.56,-272.5 941.76,-276.42"/>
</a>
</g>
</g>
<!-- Node16 -->
<g id="Node000016" class="node">
<title>Node16</title>
<g id="a_Node000016"><a xlink:href="../../d5/dcd/_m_p_c_8cpp.html" target="_top" xlink:title=" ">
<polygon fill="white" stroke="#666666" points="1143,-241.25 1019,-241.25 1019,-219.75 1143,-219.75 1143,-241.25"/>
<text text-anchor="middle" x="1081" y="-226.8" font-family="Consolas" font-size="11.00">Constraint/MPC.cpp</text>
</a>
</g>
</g>
<!-- Node15&#45;&gt;Node16 -->
<g id="edge15_Node000015_Node000016" class="edge">
<title>Node15&#45;&gt;Node16</title>
<g id="a_edge15_Node000015_Node000016"><a xlink:title=" ">
<path fill="none" stroke="#63b8ff" d="M1101.45,-273.94C1096.28,-263.21 1090.11,-250.4 1085.91,-241.68"/>
<polygon fill="#63b8ff" stroke="#63b8ff" points="1098.69,-275.26 1106.18,-282.75 1104.99,-272.22 1098.69,-275.26"/>
</a>
</g>
</g>
<!-- Node18 -->
<g id="Node000018" class="node">
<title>Node18</title>
<g id="a_Node000018"><a xlink:href="../../d3/ddd/_node_facet_8cpp.html" target="_top" xlink:title=" ">
<polygon fill="white" stroke="#666666" points="1321,-241.25 1161,-241.25 1161,-219.75 1321,-219.75 1321,-241.25"/>
<text text-anchor="middle" x="1241" y="-226.8" font-family="Consolas" font-size="11.00">Constraint/NodeFacet.cpp</text>
</a>
</g>
</g>
<!-- Node17&#45;&gt;Node18 -->
<g id="edge17_Node000017_Node000018" class="edge">
<title>Node17&#45;&gt;Node18</title>
<g id="a_edge17_Node000017_Node000018"><a xlink:title=" ">
<path fill="none" stroke="#63b8ff" d="M1253.08,-273.27C1250.01,-262.68 1246.41,-250.22 1243.94,-241.68"/>
<polygon fill="#63b8ff" stroke="#63b8ff" points="1249.97,-274.11 1256.11,-282.75 1256.69,-272.17 1249.97,-274.11"/>
</a>
</g>
</g>
<!-- Node20 -->
<g id="Node000020" class="node">
<title>Node20</title>
<g id="a_Node000020"><a xlink:href="../../d1/d8c/_node_line_8cpp.html" target="_top" xlink:title=" ">
<polygon fill="white" stroke="#666666" points="1493,-241.25 1339,-241.25 1339,-219.75 1493,-219.75 1493,-241.25"/>
<text text-anchor="middle" x="1416" y="-226.8" font-family="Consolas" font-size="11.00">Constraint/NodeLine.cpp</text>
</a>
</g>
</g>
<!-- Node19&#45;&gt;Node20 -->
<g id="edge19_Node000019_Node000020" class="edge">
<title>Node19&#45;&gt;Node20</title>
<g id="a_edge19_Node000019_Node000020"><a xlink:title=" ">
<path fill="none" stroke="#63b8ff" d="M1419.99,-272.93C1418.98,-262.41 1417.8,-250.13 1416.98,-241.68"/>
<polygon fill="#63b8ff" stroke="#63b8ff" points="1416.59,-273.13 1421.04,-282.75 1423.56,-272.46 1416.59,-273.13"/>
</a>
</g>
</g>
<!-- Node22 -->
<g id="Node000022" class="node">
<title>Node22</title>
<g id="a_Node000022"><a xlink:href="../../d9/d7b/_particle_collision_8cpp.html" target="_top" xlink:title=" ">
<polygon fill="white" stroke="#666666" points="1719,-241.25 1511,-241.25 1511,-219.75 1719,-219.75 1719,-241.25"/>
<text text-anchor="middle" x="1615" y="-226.8" font-family="Consolas" font-size="11.00">Constraint/ParticleCollision.cpp</text>
</a>
</g>
</g>
<!-- Node21&#45;&gt;Node22 -->
<g id="edge21_Node000021_Node000022" class="edge">
<title>Node21&#45;&gt;Node22</title>
<g id="a_edge21_Node000021_Node000022"><a xlink:title=" ">
<path fill="none" stroke="#63b8ff" d="M1615,-272.93C1615,-262.41 1615,-250.13 1615,-241.68"/>
<polygon fill="#63b8ff" stroke="#63b8ff" points="1611.5,-272.75 1615,-282.75 1618.5,-272.75 1611.5,-272.75"/>
</a>
</g>
</g>
<!-- Node23 -->
<g id="Node000023" class="node">
<title>Node23</title>
<g id="a_Node000023"><a xlink:href="../../d5/d15/_particle_collision2_d_8h.html" target="_top" xlink:title=" ">
<polygon fill="white" stroke="#666666" points="1945,-241.25 1737,-241.25 1737,-219.75 1945,-219.75 1945,-241.25"/>
<text text-anchor="middle" x="1841" y="-226.8" font-family="Consolas" font-size="11.00">Constraint/ParticleCollision2D.h</text>
</a>
</g>
</g>
<!-- Node21&#45;&gt;Node23 -->
<g id="edge22_Node000021_Node000023" class="edge">
<title>Node21&#45;&gt;Node23</title>
<g id="a_edge22_Node000021_Node000023"><a xlink:title=" ">
<path fill="none" stroke="#63b8ff" d="M1662.62,-280.63C1704.73,-269.03 1765.31,-252.35 1803.91,-241.72"/>
<polygon fill="#63b8ff" stroke="#63b8ff" points="1661.78,-277.51 1653.07,-283.54 1663.64,-284.26 1661.78,-277.51"/>
</a>
</g>
</g>
<!-- Node29 -->
<g id="Node000029" class="node">
<title>Node29</title>
<g id="a_Node000029"><a xlink:href="../../da/d4a/_particle_collision3_d_8h.html" target="_top" xlink:title=" ">
<polygon fill="white" stroke="#666666" points="2171,-241.25 1963,-241.25 1963,-219.75 2171,-219.75 2171,-241.25"/>
<text text-anchor="middle" x="2067" y="-226.8" font-family="Consolas" font-size="11.00">Constraint/ParticleCollision3D.h</text>
</a>
</g>
</g>
<!-- Node21&#45;&gt;Node29 -->
<g id="edge28_Node000021_Node000029" class="edge">
<title>Node21&#45;&gt;Node29</title>
<g id="a_edge28_Node000021_Node000029"><a xlink:title=" ">
<path fill="none" stroke="#63b8ff" d="M1703.18,-282.12C1771.62,-273.02 1868.87,-259.96 1954,-248 1968.14,-246.01 1983.26,-243.84 1997.7,-241.74"/>
<polygon fill="#63b8ff" stroke="#63b8ff" points="1702.9,-278.75 1693.45,-283.54 1703.82,-285.69 1702.9,-278.75"/>
</a>
</g>
</g>
<!-- Node24 -->
<g id="Node000024" class="node">
<title>Node24</title>
<g id="a_Node000024"><a xlink:href="../../d6/d6d/_l_j_potential2_d_8h.html" target="_top" xlink:title=" ">
<polygon fill="white" stroke="#666666" points="1553,-170.25 1381,-170.25 1381,-148.75 1553,-148.75 1553,-170.25"/>
<text text-anchor="middle" x="1467" y="-155.8" font-family="Consolas" font-size="11.00">Constraint/LJPotential2D.h</text>
</a>
</g>
</g>
<!-- Node23&#45;&gt;Node24 -->
<g id="edge23_Node000023_Node000024" class="edge">
<title>Node23&#45;&gt;Node24</title>
<g id="a_edge23_Node000023_Node000024"><a xlink:title=" ">
<path fill="none" stroke="#63b8ff" d="M1775.1,-217.34C1703.32,-204.1 1589.77,-183.15 1522.41,-170.72"/>
<polygon fill="#63b8ff" stroke="#63b8ff" points="1774.35,-220.95 1784.82,-219.32 1775.62,-214.06 1774.35,-220.95"/>
</a>
</g>
</g>
<!-- Node26 -->
<g id="Node000026" class="node">
<title>Node26</title>
<g id="a_Node000026"><a xlink:href="../../d2/da4/_linear_spring2_d_8h.html" target="_top" xlink:title=" ">
<polygon fill="white" stroke="#666666" points="1749,-170.25 1571,-170.25 1571,-148.75 1749,-148.75 1749,-170.25"/>
<text text-anchor="middle" x="1660" y="-155.8" font-family="Consolas" font-size="11.00">Constraint/LinearSpring2D.h</text>
</a>
</g>
</g>
<!-- Node23&#45;&gt;Node26 -->
<g id="edge25_Node000023_Node000026" class="edge">
<title>Node23&#45;&gt;Node26</title>
<g id="a_edge25_Node000023_Node000026"><a xlink:title=" ">
<path fill="none" stroke="#63b8ff" d="M1804.06,-215.42C1769.23,-202.14 1717.88,-182.56 1686.82,-170.72"/>
<polygon fill="#63b8ff" stroke="#63b8ff" points="1802.7,-219.03 1813.29,-219.32 1805.2,-212.49 1802.7,-219.03"/>
</a>
</g>
</g>
<!-- Node28 -->
<g id="Node000028" class="node">
<title>Node28</title>
<g id="a_Node000028"><a xlink:href="../../de/de4/_particle_collision2_d_8cpp.html" target="_top" xlink:title=" ">
<polygon fill="white" stroke="#666666" points="1957,-177 1767,-177 1767,-142 1957,-142 1957,-177"/>
<text text-anchor="start" x="1775" y="-162.55" font-family="Consolas" font-size="11.00">Constraint/ParticleCollision2</text>
<text text-anchor="middle" x="1862" y="-149.05" font-family="Consolas" font-size="11.00">D.cpp</text>
</a>
</g>
</g>
<!-- Node23&#45;&gt;Node28 -->
<g id="edge27_Node000023_Node000028" class="edge">
<title>Node23&#45;&gt;Node28</title>
<g id="a_edge27_Node000023_Node000028"><a xlink:title=" ">
<path fill="none" stroke="#63b8ff" d="M1847.24,-209C1850.3,-198.93 1853.95,-186.95 1856.85,-177.42"/>
<polygon fill="#63b8ff" stroke="#63b8ff" points="1843.66,-207.73 1844.1,-218.32 1850.36,-209.77 1843.66,-207.73"/>
</a>
</g>
</g>
<!-- Node25 -->
<g id="Node000025" class="node">
<title>Node25</title>
<g id="a_Node000025"><a xlink:href="../../d1/df0/_l_j_potential2_d_8cpp.html" target="_top" xlink:title=" ">
<polygon fill="white" stroke="#666666" points="1559,-99.25 1375,-99.25 1375,-77.75 1559,-77.75 1559,-99.25"/>
<text text-anchor="middle" x="1467" y="-84.8" font-family="Consolas" font-size="11.00">Constraint/LJPotential2D.cpp</text>
</a>
</g>
</g>
<!-- Node24&#45;&gt;Node25 -->
<g id="edge24_Node000024_Node000025" class="edge">
<title>Node24&#45;&gt;Node25</title>
<g id="a_edge24_Node000024_Node000025"><a xlink:title=" ">
<path fill="none" stroke="#63b8ff" d="M1467,-137.45C1467,-124.93 1467,-109.62 1467,-99.72"/>
<polygon fill="#63b8ff" stroke="#63b8ff" points="1463.5,-137.32 1467,-147.32 1470.5,-137.32 1463.5,-137.32"/>
</a>
</g>
</g>
<!-- Node27 -->
<g id="Node000027" class="node">
<title>Node27</title>
<g id="a_Node000027"><a xlink:href="../../d0/d74/_linear_spring2_d_8cpp.html" target="_top" xlink:title=" ">
<polygon fill="white" stroke="#666666" points="1740,-106 1580,-106 1580,-71 1740,-71 1740,-106"/>
<text text-anchor="start" x="1588" y="-91.55" font-family="Consolas" font-size="11.00">Constraint/LinearSpring2</text>
<text text-anchor="middle" x="1660" y="-78.05" font-family="Consolas" font-size="11.00">D.cpp</text>
</a>
</g>
</g>
<!-- Node26&#45;&gt;Node27 -->
<g id="edge26_Node000026_Node000027" class="edge">
<title>Node26&#45;&gt;Node27</title>
<g id="a_edge26_Node000026_Node000027"><a xlink:title=" ">
<path fill="none" stroke="#63b8ff" d="M1660,-137.35C1660,-127.42 1660,-115.75 1660,-106.42"/>
<polygon fill="#63b8ff" stroke="#63b8ff" points="1656.5,-137.32 1660,-147.32 1663.5,-137.32 1656.5,-137.32"/>
</a>
</g>
</g>
<!-- Node30 -->
<g id="Node000030" class="node">
<title>Node30</title>
<g id="a_Node000030"><a xlink:href="../../dc/d9a/_particle_collision3_d_8cpp.html" target="_top" xlink:title=" ">
<polygon fill="white" stroke="#666666" points="2165,-177 1975,-177 1975,-142 2165,-142 2165,-177"/>
<text text-anchor="start" x="1983" y="-162.55" font-family="Consolas" font-size="11.00">Constraint/ParticleCollision3</text>
<text text-anchor="middle" x="2070" y="-149.05" font-family="Consolas" font-size="11.00">D.cpp</text>
</a>
</g>
</g>
<!-- Node29&#45;&gt;Node30 -->
<g id="edge29_Node000029_Node000030" class="edge">
<title>Node29&#45;&gt;Node30</title>
<g id="a_edge29_Node000029_Node000030"><a xlink:title=" ">
<path fill="none" stroke="#63b8ff" d="M2067.92,-208.35C2068.35,-198.42 2068.86,-186.75 2069.26,-177.42"/>
<polygon fill="#63b8ff" stroke="#63b8ff" points="2064.38,-208.18 2067.44,-218.32 2071.37,-208.48 2064.38,-208.18"/>
</a>
</g>
</g>
<!-- Node32 -->
<g id="Node000032" class="node">
<title>Node32</title>
<g id="a_Node000032"><a xlink:href="../../d4/d55/_restitution_wall_penalty_8h.html" target="_top" xlink:title=" ">
<polygon fill="white" stroke="#666666" points="2361,-248 2189,-248 2189,-213 2361,-213 2361,-248"/>
<text text-anchor="start" x="2197" y="-233.55" font-family="Consolas" font-size="11.00">Constraint/RestitutionWall</text>
<text text-anchor="middle" x="2275" y="-220.05" font-family="Consolas" font-size="11.00">Penalty.h</text>
</a>
</g>
</g>
<!-- Node31&#45;&gt;Node32 -->
<g id="edge31_Node000031_Node000032" class="edge">
<title>Node31&#45;&gt;Node32</title>
<g id="a_edge31_Node000031_Node000032"><a xlink:title=" ">
<path fill="none" stroke="#63b8ff" d="M1924.17,-282.22C1995.31,-273.59 2093.75,-261.06 2180,-248 2182.81,-247.57 2185.67,-247.13 2188.56,-246.68"/>
<polygon fill="#63b8ff" stroke="#63b8ff" points="1923.94,-278.85 1914.44,-283.52 1924.78,-285.8 1923.94,-278.85"/>
</a>
</g>
</g>
<!-- Node34 -->
<g id="Node000034" class="node">
<title>Node34</title>
<g id="a_Node000034"><a xlink:href="../../dd/d09/_rigid_wall_multiplier_8h.html" target="_top" xlink:title=" ">
<polygon fill="white" stroke="#666666" points="2587,-241.25 2379,-241.25 2379,-219.75 2587,-219.75 2587,-241.25"/>
<text text-anchor="middle" x="2483" y="-226.8" font-family="Consolas" font-size="11.00">Constraint/RigidWallMultiplier.h</text>
</a>
</g>
</g>
<!-- Node31&#45;&gt;Node34 -->
<g id="edge33_Node000031_Node000034" class="edge">
<title>Node31&#45;&gt;Node34</title>
<g id="a_edge33_Node000031_Node000034"><a xlink:title=" ">
<path fill="none" stroke="#63b8ff" d="M1932.39,-283.8C2127.3,-266.96 2178.57,-269.78 2370,-248 2385.56,-246.23 2402.28,-243.98 2417.96,-241.72"/>
<polygon fill="#63b8ff" stroke="#63b8ff" points="1932.15,-280.4 1922.49,-284.75 1932.75,-287.37 1932.15,-280.4"/>
</a>
</g>
</g>
<!-- Node36 -->
<g id="Node000036" class="node">
<title>Node36</title>
<g id="a_Node000036"><a xlink:href="../../dd/d6f/_rigid_wall_penalty_8cpp.html" target="_top" xlink:title=" ">
<polygon fill="white" stroke="#666666" points="2807,-241.25 2605,-241.25 2605,-219.75 2807,-219.75 2807,-241.25"/>
<text text-anchor="middle" x="2706" y="-226.8" font-family="Consolas" font-size="11.00">Constraint/RigidWallPenalty.cpp</text>
</a>
</g>
</g>
<!-- Node31&#45;&gt;Node36 -->
<g id="edge35_Node000031_Node000036" class="edge">
<title>Node31&#45;&gt;Node36</title>
<g id="a_edge35_Node000031_Node000036"><a xlink:title=" ">
<path fill="none" stroke="#63b8ff" d="M1932.08,-283.88C2227.43,-262.53 2304.55,-277.67 2596,-248 2611.85,-246.39 2628.91,-244.1 2644.75,-241.74"/>
<polygon fill="#63b8ff" stroke="#63b8ff" points="1932.2,-280.43 1922.48,-284.65 1932.71,-287.41 1932.2,-280.43"/>
</a>
</g>
</g>
<!-- Node33 -->
<g id="Node000033" class="node">
<title>Node33</title>
<g id="a_Node000033"><a xlink:href="../../d6/d5e/_restitution_wall_penalty_8cpp.html" target="_top" xlink:title=" ">
<polygon fill="white" stroke="#666666" points="2358,-177 2186,-177 2186,-142 2358,-142 2358,-177"/>
<text text-anchor="start" x="2194" y="-162.55" font-family="Consolas" font-size="11.00">Constraint/RestitutionWall</text>
<text text-anchor="middle" x="2272" y="-149.05" font-family="Consolas" font-size="11.00">Penalty.cpp</text>
</a>
</g>
</g>
<!-- Node32&#45;&gt;Node33 -->
<g id="edge32_Node000032_Node000033" class="edge">
<title>Node32&#45;&gt;Node33</title>
<g id="a_edge32_Node000032_Node000033"><a xlink:title=" ">
<path fill="none" stroke="#63b8ff" d="M2273.8,-201.88C2273.43,-193.47 2273.04,-184.49 2272.72,-177.05"/>
<polygon fill="#63b8ff" stroke="#63b8ff" points="2270.34,-201.96 2274.27,-211.8 2277.34,-201.65 2270.34,-201.96"/>
</a>
</g>
</g>
<!-- Node35 -->
<g id="Node000035" class="node">
<title>Node35</title>
<g id="a_Node000035"><a xlink:href="../../d6/d43/_rigid_wall_multiplier_8cpp.html" target="_top" xlink:title=" ">
<polygon fill="white" stroke="#666666" points="2596,-170.25 2376,-170.25 2376,-148.75 2596,-148.75 2596,-170.25"/>
<text text-anchor="middle" x="2486" y="-155.8" font-family="Consolas" font-size="11.00">Constraint/RigidWallMultiplier.cpp</text>
</a>
</g>
</g>
<!-- Node34&#45;&gt;Node35 -->
<g id="edge34_Node000034_Node000035" class="edge">
<title>Node34&#45;&gt;Node35</title>
<g id="a_edge34_Node000034_Node000035"><a xlink:title=" ">
<path fill="none" stroke="#63b8ff" d="M2483.92,-208.45C2484.46,-195.93 2485.13,-180.62 2485.56,-170.72"/>
<polygon fill="#63b8ff" stroke="#63b8ff" points="2480.38,-208.18 2483.44,-218.32 2487.37,-208.48 2480.38,-208.18"/>
</a>
</g>
</g>
</g>
</svg>
