<?xml version="1.0" encoding="UTF-8" standalone="no"?>
<!DOCTYPE svg PUBLIC "-//W3C//DTD SVG 1.1//EN"
 "http://www.w3.org/Graphics/SVG/1.1/DTD/svg11.dtd">
<!-- Generated by graphviz version 8.1.0 (20230707.0739)
 -->
<!-- Title: create_new_solver Pages: 1 -->
<svg width="386pt" height="148pt"
 viewBox="0.00 0.00 386.00 147.50" xmlns="http://www.w3.org/2000/svg" xmlns:xlink="http://www.w3.org/1999/xlink">

<svg id="main" version="1.1" xmlns="http://www.w3.org/2000/svg" xmlns:xlink="http://www.w3.org/1999/xlink" xml:space="preserve" onload="init(evt)">
<style type="text/css"><![CDATA[
.node, .edge {opacity: 0.7;}
.node.selected, .edge.selected {opacity: 1;}
.edge:hover path { stroke: red; }
.edge:hover polygon { stroke: red; fill: red; }
]]></style>
<script type="application/ecmascript" xlink:href="../../svg.min.js"/>
<svg id="graph" class="graph">
<g id="graph0" class="graph" transform="scale(1 1) rotate(0) translate(4 143.5)">
<title>create_new_solver</title>
<!-- Node1 -->
<g id="Node000001" class="node">
<title>Node1</title>
<g id="a_Node000001"><a xlink:title=" ">
<polygon fill="#999999" stroke="#666666" points="118,-79.5 0,-79.5 0,-58 118,-58 118,-79.5"/>
<text text-anchor="middle" x="59" y="-65.05" font-family="Consolas" font-size="11.00">create_new_solver</text>
</a>
</g>
</g>
<!-- Node2 -->
<g id="Node000002" class="node">
<title>Node2</title>
<g id="a_Node000002"><a xlink:href="../../d5/d47/utility_8h.html#a28b47ba8588036035501b1cf8cf51812" target="_top" xlink:title=" ">
<polygon fill="white" stroke="#666666" points="251,-139.5 181,-139.5 181,-118 251,-118 251,-139.5"/>
<text text-anchor="middle" x="216" y="-125.05" font-family="Consolas" font-size="11.00">get_input</text>
</a>
</g>
</g>
<!-- Node1&#45;&gt;Node2 -->
<g id="edge1_Node000001_Node000002" class="edge">
<title>Node1&#45;&gt;Node2</title>
<g id="a_edge1_Node000001_Node000002"><a xlink:title=" ">
<path fill="none" stroke="#63b8ff" d="M84.51,-79.86C103.34,-88.23 130.09,-99.76 154,-108.75 159.35,-110.76 165,-112.77 170.62,-114.69"/>
<polygon fill="#63b8ff" stroke="#63b8ff" points="169.03,-118.19 179.62,-118.05 171.25,-111.55 169.03,-118.19"/>
</a>
</g>
</g>
<!-- Node3 -->
<g id="Node000003" class="node">
<title>Node3</title>
<g id="a_Node000003"><a xlink:href="../../d5/d47/utility_8h.html#af262eaf6ae98eec8921102f0f195be56" target="_top" xlink:title=" ">
<polygon fill="white" stroke="#666666" points="278,-99.5 154,-99.5 154,-78 278,-78 278,-99.5"/>
<text text-anchor="middle" x="216" y="-85.05" font-family="Consolas" font-size="11.00">get_optional_input</text>
</a>
</g>
</g>
<!-- Node1&#45;&gt;Node3 -->
<g id="edge2_Node000001_Node000003" class="edge">
<title>Node1&#45;&gt;Node3</title>
<g id="a_edge2_Node000001_Node000003"><a xlink:title=" ">
<path fill="none" stroke="#63b8ff" d="M118.16,-76.25C126.22,-77.29 134.58,-78.37 142.86,-79.44"/>
<polygon fill="#63b8ff" stroke="#63b8ff" points="142.3,-83.03 152.67,-80.84 143.2,-76.09 142.3,-83.03"/>
</a>
</g>
</g>
<!-- Node4 -->
<g id="Node000004" class="node">
<title>Node4</title>
<g id="a_Node000004"><a xlink:href="../../dc/dfa/utility_8cpp.html#aec5c03b9af3b75833d6e8a674d88f5fd" target="_top" xlink:title=" ">
<polygon fill="white" stroke="#666666" points="378,-40.5 314,-40.5 314,-19 378,-19 378,-40.5"/>
<text text-anchor="middle" x="346" y="-26.05" font-family="Consolas" font-size="11.00">is_equal</text>
</a>
</g>
</g>
<!-- Node1&#45;&gt;Node4 -->
<g id="edge3_Node000001_Node000004" class="edge">
<title>Node1&#45;&gt;Node4</title>
<g id="a_edge3_Node000001_Node000004"><a xlink:title=" ">
<path fill="none" stroke="#63b8ff" d="M118.36,-60.76C173.21,-53.26 253.95,-42.21 302.8,-35.52"/>
<polygon fill="#63b8ff" stroke="#63b8ff" points="303.18,-38.87 312.61,-34.05 302.23,-31.93 303.18,-38.87"/>
</a>
</g>
</g>
<!-- Node5 -->
<g id="Node000005" class="node">
<title>Node5</title>
<g id="a_Node000005"><a xlink:href="../../dc/dfa/utility_8cpp.html#aadeba583a4314ba6bcdd2c05a7c877ca" target="_top" xlink:title=" ">
<polygon fill="white" stroke="#666666" points="245,-21.5 187,-21.5 187,0 245,0 245,-21.5"/>
<text text-anchor="middle" x="216" y="-7.05" font-family="Consolas" font-size="11.00">is_true</text>
</a>
</g>
</g>
<!-- Node1&#45;&gt;Node5 -->
<g id="edge4_Node000001_Node000005" class="edge">
<title>Node1&#45;&gt;Node5</title>
<g id="a_edge4_Node000001_Node000005"><a xlink:title=" ">
<path fill="none" stroke="#63b8ff" d="M89.89,-57.57C114.5,-48.35 149.59,-35.23 176.34,-25.21"/>
<polygon fill="#63b8ff" stroke="#63b8ff" points="177.38,-28.19 185.51,-21.41 174.92,-21.64 177.38,-28.19"/>
</a>
</g>
</g>
<!-- Node5&#45;&gt;Node4 -->
<g id="edge5_Node000005_Node000004" class="edge">
<title>Node5&#45;&gt;Node4</title>
<g id="a_edge5_Node000005_Node000004"><a xlink:title=" ">
<path fill="none" stroke="#63b8ff" d="M245.41,-14.97C262.28,-17.47 283.98,-20.69 302.83,-23.49"/>
<polygon fill="#63b8ff" stroke="#63b8ff" points="302.12,-27.07 312.53,-25.08 303.15,-20.15 302.12,-27.07"/>
</a>
</g>
</g>
</g>
</svg>
</svg>

<style type='text/css'>
<![CDATA[
[data-mouse-over-selected='false'] { opacity: 0.7; }
[data-mouse-over-selected='true']  { opacity: 1.0; }
]]>
</style>
<script type="application/ecmascript"><![CDATA[
document.addEventListener('DOMContentLoaded', (event) => {
  highlightEdges();
  highlightAdjacentNodes();
});
]]></script>
</svg>
