<?xml version="1.0" encoding="UTF-8" standalone="no"?>
<!DOCTYPE svg PUBLIC "-//W3C//DTD SVG 1.1//EN"
 "http://www.w3.org/Graphics/SVG/1.1/DTD/svg11.dtd">
<!-- Generated by graphviz version 8.1.0 (20230707.0739)
 -->
<!-- Title: IsotropicNonlinearElastic3D::update_trial_status Pages: 1 -->
<svg width="700pt" height="56pt"
 viewBox="0.00 0.00 700.00 56.25" xmlns="http://www.w3.org/2000/svg" xmlns:xlink="http://www.w3.org/1999/xlink">
<g id="graph0" class="graph" transform="scale(1 1) rotate(0) translate(4 52.25)">
<title>IsotropicNonlinearElastic3D::update_trial_status</title>
<!-- Node1 -->
<g id="Node000001" class="node">
<title>Node1</title>
<g id="a_Node000001"><a xlink:title=" ">
<polygon fill="#999999" stroke="#666666" points="172,-35 0,-35 0,0 172,0 172,-35"/>
<text text-anchor="start" x="8" y="-20.55" font-family="Consolas" font-size="11.00">IsotropicNonlinearElastic3</text>
<text text-anchor="middle" x="86" y="-7.05" font-family="Consolas" font-size="11.00">D::update_trial_status</text>
</a>
</g>
</g>
<!-- Node2 -->
<g id="Node000002" class="node">
<title>Node2</title>
<g id="a_Node000002"><a xlink:href="../../dd/d8c/namespacetensor.html#a82bcab854febeba7c0d66c204ff09052" target="_top" xlink:title=" ">
<polygon fill="white" stroke="#666666" points="290,-48.25 208,-48.25 208,-26.75 290,-26.75 290,-48.25"/>
<text text-anchor="middle" x="249" y="-33.8" font-family="Consolas" font-size="11.00">tensor::dev</text>
</a>
</g>
</g>
<!-- Node1&#45;&gt;Node2 -->
<g id="edge1_Node000001_Node000002" class="edge">
<title>Node1&#45;&gt;Node2</title>
<g id="a_edge1_Node000001_Node000002"><a xlink:title=" ">
<path fill="none" stroke="#63b8ff" d="M172.21,-28.09C180.62,-29.13 188.96,-30.17 196.86,-31.15"/>
<polygon fill="#63b8ff" stroke="#63b8ff" points="196.35,-34.73 206.7,-32.49 197.21,-27.79 196.35,-34.73"/>
</a>
</g>
</g>
<!-- Node4 -->
<g id="Node000004" class="node">
<title>Node4</title>
<g id="a_Node000004"><a xlink:href="../../dd/d8c/namespacetensor.html#a36216f68489b10fcf90423c293da6e1f" target="_top" xlink:title="Only accepts 3D tensor!">
<polygon fill="white" stroke="#666666" points="556,-28.25 456,-28.25 456,-6.75 556,-6.75 556,-28.25"/>
<text text-anchor="middle" x="506" y="-13.8" font-family="Consolas" font-size="11.00">tensor::trace3</text>
</a>
</g>
</g>
<!-- Node1&#45;&gt;Node4 -->
<g id="edge5_Node000001_Node000004" class="edge">
<title>Node1&#45;&gt;Node4</title>
<g id="a_edge5_Node000001_Node000004"><a xlink:title=" ">
<path fill="none" stroke="#63b8ff" d="M172.34,-17.5C253.54,-17.5 373.62,-17.5 445.11,-17.5"/>
<polygon fill="#63b8ff" stroke="#63b8ff" points="444.73,-21 454.73,-17.5 444.73,-14 444.73,-21"/>
</a>
</g>
</g>
<!-- Node3 -->
<g id="Node000003" class="node">
<title>Node3</title>
<g id="a_Node000003"><a xlink:href="../../dd/d8c/namespacetensor.html#a735fc96d0b8bcb54fd29f2660d97a2ca" target="_top" xlink:title=" ">
<polygon fill="white" stroke="#666666" points="420,-48.25 326,-48.25 326,-26.75 420,-26.75 420,-48.25"/>
<text text-anchor="middle" x="373" y="-33.8" font-family="Consolas" font-size="11.00">tensor::mean3</text>
</a>
</g>
</g>
<!-- Node2&#45;&gt;Node3 -->
<g id="edge2_Node000002_Node000003" class="edge">
<title>Node2&#45;&gt;Node3</title>
<g id="a_edge2_Node000002_Node000003"><a xlink:title=" ">
<path fill="none" stroke="#63b8ff" d="M290.29,-37.5C298.2,-37.5 306.64,-37.5 314.98,-37.5"/>
<polygon fill="#63b8ff" stroke="#63b8ff" points="314.84,-41 324.84,-37.5 314.84,-34 314.84,-41"/>
</a>
</g>
</g>
<!-- Node3&#45;&gt;Node4 -->
<g id="edge3_Node000003_Node000004" class="edge">
<title>Node3&#45;&gt;Node4</title>
<g id="a_edge3_Node000003_Node000004"><a xlink:title=" ">
<path fill="none" stroke="#63b8ff" d="M420.19,-30.45C428.18,-29.23 436.59,-27.94 444.88,-26.68"/>
<polygon fill="#63b8ff" stroke="#63b8ff" points="445.32,-30 454.68,-25.03 444.26,-23.08 445.32,-30"/>
</a>
</g>
</g>
<!-- Node5 -->
<g id="Node000005" class="node">
<title>Node5</title>
<g id="a_Node000005"><a xlink:href="../../d8/d8f/suan_pan_8h.html#aa87073491bf65bc79b4d8b6c2a613d06" target="_top" xlink:title=" ">
<polygon fill="white" stroke="#666666" points="692,-28.25 592,-28.25 592,-6.75 692,-6.75 692,-28.25"/>
<text text-anchor="middle" x="642" y="-13.8" font-family="Consolas" font-size="11.00">suanpan_assert</text>
</a>
</g>
</g>
<!-- Node4&#45;&gt;Node5 -->
<g id="edge4_Node000004_Node000005" class="edge">
<title>Node4&#45;&gt;Node5</title>
<g id="a_edge4_Node000004_Node000005"><a xlink:title=" ">
<path fill="none" stroke="#63b8ff" d="M556.14,-17.5C564.24,-17.5 572.72,-17.5 581.05,-17.5"/>
<polygon fill="#63b8ff" stroke="#63b8ff" points="580.87,-21 590.87,-17.5 580.87,-14 580.87,-21"/>
</a>
</g>
</g>
</g>
</svg>
