<?xml version="1.0" encoding="UTF-8" standalone="no"?>
<!DOCTYPE svg PUBLIC "-//W3C//DTD SVG 1.1//EN"
 "http://www.w3.org/Graphics/SVG/1.1/DTD/svg11.dtd">
<!-- Generated by graphviz version 5.0.0 (0)
 -->
<!-- Title: AbsIncreDisp::is_converged Pages: 1 -->
<svg width="415pt" height="256pt"
 viewBox="0.00 0.00 415.00 256.00" xmlns="http://www.w3.org/2000/svg" xmlns:xlink="http://www.w3.org/1999/xlink">
<g id="graph0" class="graph" transform="scale(1 1) rotate(0) translate(4 252)">
<title>AbsIncreDisp::is_converged</title>
<!-- Node1 -->
<g id="node1" class="node">
<title>Node1</title>
<g id="a_node1"><a xlink:title="Method to return conv_flag.">
<polygon fill="#999999" stroke="#666666" points="192,-134 0,-134 0,-114 192,-114 192,-134"/>
<text text-anchor="middle" x="96" y="-121.2" font-family="Consolas" font-size="11.00">AbsIncreDisp::is_converged</text>
</a>
</g>
</g>
<!-- Node2 -->
<g id="node2" class="node">
<title>Node2</title>
<g id="a_node2"><a xlink:href="../../d7/dae/class_converger.html#a35bf6429e4f33c8966c34dea7071b165" target="_top" xlink:title="method to return conv_flag.">
<polygon fill="white" stroke="#666666" points="407,-248 228,-248 228,-228 407,-228 407,-248"/>
<text text-anchor="middle" x="317.5" y="-235.2" font-family="Consolas" font-size="11.00">Converger::get_conv_flag</text>
</a>
</g>
</g>
<!-- Node1&#45;&gt;Node2 -->
<g id="edge1" class="edge">
<title>Node1&#45;&gt;Node2</title>
<path fill="none" stroke="#63b8ff" d="M107.57,-134.11C128.66,-153.69 178.22,-196.8 228,-219 233.02,-221.24 238.33,-223.22 243.74,-224.98"/>
<polygon fill="#63b8ff" stroke="#63b8ff" points="242.99,-228.4 253.57,-227.89 244.98,-221.69 242.99,-228.4"/>
</g>
<!-- Node3 -->
<g id="node3" class="node">
<title>Node3</title>
<g id="a_node3"><a xlink:href="../../d7/dae/class_converger.html#a24586cab2381fb79ea5d75deadf50825" target="_top" xlink:title="method to return DomainBase.">
<polygon fill="white" stroke="#666666" points="396.5,-210 238.5,-210 238.5,-190 396.5,-190 396.5,-210"/>
<text text-anchor="middle" x="317.5" y="-197.2" font-family="Consolas" font-size="11.00">Converger::get_domain</text>
</a>
</g>
</g>
<!-- Node1&#45;&gt;Node3 -->
<g id="edge2" class="edge">
<title>Node1&#45;&gt;Node3</title>
<path fill="none" stroke="#63b8ff" d="M116.94,-134.17C142.21,-146.7 187.39,-167.95 228,-181 235.47,-183.4 243.39,-185.59 251.3,-187.55"/>
<polygon fill="#63b8ff" stroke="#63b8ff" points="250.75,-191.02 261.29,-189.92 252.37,-184.21 250.75,-191.02"/>
</g>
<!-- Node4 -->
<g id="node4" class="node">
<title>Node4</title>
<g id="a_node4"><a xlink:href="../../d7/dae/class_converger.html#ac53b3d32fa56c076ec2565390eb7dc92" target="_top" xlink:title="method to return error.">
<polygon fill="white" stroke="#666666" points="393.5,-172 241.5,-172 241.5,-152 393.5,-152 393.5,-172"/>
<text text-anchor="middle" x="317.5" y="-159.2" font-family="Consolas" font-size="11.00">Converger::get_error</text>
</a>
</g>
</g>
<!-- Node1&#45;&gt;Node4 -->
<g id="edge3" class="edge">
<title>Node1&#45;&gt;Node4</title>
<path fill="none" stroke="#63b8ff" d="M154.96,-134.03C183.72,-139.01 218.63,-145.06 248.63,-150.25"/>
<polygon fill="#63b8ff" stroke="#63b8ff" points="248.15,-153.72 258.6,-151.98 249.34,-146.82 248.15,-153.72"/>
</g>
<!-- Node5 -->
<g id="node5" class="node">
<title>Node5</title>
<g id="a_node5"><a xlink:href="../../d7/dae/class_converger.html#a20784028239e8bec069dfd89d74627e6" target="_top" xlink:title="method to return tolerance.">
<polygon fill="white" stroke="#666666" points="407,-134 228,-134 228,-114 407,-114 407,-134"/>
<text text-anchor="middle" x="317.5" y="-121.2" font-family="Consolas" font-size="11.00">Converger::get_tolerance</text>
</a>
</g>
</g>
<!-- Node1&#45;&gt;Node5 -->
<g id="edge4" class="edge">
<title>Node1&#45;&gt;Node5</title>
<path fill="none" stroke="#63b8ff" d="M192.32,-124C200.71,-124 209.21,-124 217.63,-124"/>
<polygon fill="#63b8ff" stroke="#63b8ff" points="217.84,-127.5 227.84,-124 217.84,-120.5 217.84,-127.5"/>
</g>
<!-- Node6 -->
<g id="node6" class="node">
<title>Node6</title>
<g id="a_node6"><a xlink:href="../../d7/dae/class_converger.html#a1095095d509dcf2df46f0997d8adee0d" target="_top" xlink:title="method to return print_flag.">
<polygon fill="white" stroke="#666666" points="390,-96 245,-96 245,-76 390,-76 390,-96"/>
<text text-anchor="middle" x="317.5" y="-83.2" font-family="Consolas" font-size="11.00">Converger::is_print</text>
</a>
</g>
</g>
<!-- Node1&#45;&gt;Node6 -->
<g id="edge5" class="edge">
<title>Node1&#45;&gt;Node6</title>
<path fill="none" stroke="#63b8ff" d="M154.96,-113.97C183.72,-108.99 218.63,-102.94 248.63,-97.75"/>
<polygon fill="#63b8ff" stroke="#63b8ff" points="249.34,-101.18 258.6,-96.02 248.15,-94.28 249.34,-101.18"/>
</g>
<!-- Node7 -->
<g id="node7" class="node">
<title>Node7</title>
<g id="a_node7"><a xlink:href="../../d7/dae/class_converger.html#acb33ddcbc28124732a8355925a9607b2" target="_top" xlink:title="method to set conv_flag.">
<polygon fill="white" stroke="#666666" points="407,-58 228,-58 228,-38 407,-38 407,-58"/>
<text text-anchor="middle" x="317.5" y="-45.2" font-family="Consolas" font-size="11.00">Converger::set_conv_flag</text>
</a>
</g>
</g>
<!-- Node1&#45;&gt;Node7 -->
<g id="edge6" class="edge">
<title>Node1&#45;&gt;Node7</title>
<path fill="none" stroke="#63b8ff" d="M116.94,-113.83C142.21,-101.3 187.39,-80.05 228,-67 235.47,-64.6 243.39,-62.41 251.3,-60.45"/>
<polygon fill="#63b8ff" stroke="#63b8ff" points="252.37,-63.79 261.29,-58.08 250.75,-56.98 252.37,-63.79"/>
</g>
<!-- Node8 -->
<g id="node8" class="node">
<title>Node8</title>
<g id="a_node8"><a xlink:href="../../d7/dae/class_converger.html#ab9f72024e7559c1fe82451fefa5a9f08" target="_top" xlink:title="method to set error.">
<polygon fill="white" stroke="#666666" points="393.5,-20 241.5,-20 241.5,0 393.5,0 393.5,-20"/>
<text text-anchor="middle" x="317.5" y="-7.2" font-family="Consolas" font-size="11.00">Converger::set_error</text>
</a>
</g>
</g>
<!-- Node1&#45;&gt;Node8 -->
<g id="edge7" class="edge">
<title>Node1&#45;&gt;Node8</title>
<path fill="none" stroke="#63b8ff" d="M107.57,-113.89C128.66,-94.31 178.22,-51.2 228,-29 233.02,-26.76 238.33,-24.78 243.74,-23.02"/>
<polygon fill="#63b8ff" stroke="#63b8ff" points="244.98,-26.31 253.57,-20.11 242.99,-19.6 244.98,-26.31"/>
</g>
</g>
</svg>
