<svg xmlns="http://www.w3.org/2000/svg" xmlns:xlink="http://www.w3.org/1999/xlink" width="1346pt" height="1604" viewBox="0 0 1345.65 1203"><g class="graph" transform="translate(4 1199)"><title>VAFCRP1D</title><g class="node"><title>Node1</title><a xlink:title="The VAFCRP1D class defines a nonlinear hardening material with mixed hardening (isotropic and kinemat...">
<path fill="#999" stroke="transparent" d="M541.65-180h-161V0h161z"/>
<text x="434.15" y="-167.2" font-family="Consolas" font-size="11">VAFCRP1D</text>
<text x="458.15" y="-151.2" font-family="Consolas" font-size="11"> </text>
<text x="385.15" y="-135.2" font-family="Consolas" font-size="11">+</text>
<text x="396.15" y="-135.2" font-family="Consolas" font-size="11">VAFCRP1D()</text>
<text x="385.15" y="-119.2" font-family="Consolas" font-size="11">+</text>
<text x="396.15" y="-119.2" font-family="Consolas" font-size="11">initialize()</text>
<text x="385.15" y="-103.2" font-family="Consolas" font-size="11">+</text>
<text x="396.15" y="-103.2" font-family="Consolas" font-size="11">unique_copy()</text>
<text x="385.15" y="-87.2" font-family="Consolas" font-size="11">+</text>
<text x="396.15" y="-87.2" font-family="Consolas" font-size="11">get()</text>
<text x="385.15" y="-71.2" font-family="Consolas" font-size="11">+</text>
<text x="396.15" y="-71.2" font-family="Consolas" font-size="11">update_trial_status()</text>
<text x="385.15" y="-55.2" font-family="Consolas" font-size="11">+</text>
<text x="396.15" y="-55.2" font-family="Consolas" font-size="11">clear_status()</text>
<text x="385.15" y="-39.2" font-family="Consolas" font-size="11">+</text>
<text x="396.15" y="-39.2" font-family="Consolas" font-size="11">commit_status()</text>
<text x="385.15" y="-23.2" font-family="Consolas" font-size="11">+</text>
<text x="396.15" y="-23.2" font-family="Consolas" font-size="11">reset_status()</text>
<text x="385.15" y="-7.2" font-family="Consolas" font-size="11">+</text>
<text x="396.15" y="-7.2" font-family="Consolas" font-size="11">print()</text>
<path fill="#666" stroke="#666" d="M381.15-162h161z"/>
<path fill="#666" stroke="#666" d="M381.15-146h161z"/>
<path fill="none" stroke="#666" d="M380.65 0v-180h161V0z"/>
</a></g><g class="node"><title>Node2</title><a xlink:href="../../d0/d9a/struct_data_v_a_f_c_r_p1_d.html" target="_top">
<path fill="#fff" stroke="transparent" d="M385.15-695h-92v52h92z"/>
<text x="298.15" y="-682.2" font-family="Consolas" font-size="11">DataVAFCRP1D</text>
<text x="335.65" y="-666.2" font-family="Consolas" font-size="11"> </text>
<text x="335.65" y="-650.2" font-family="Consolas" font-size="11"> </text>
<path fill="#666" stroke="#666" d="M293.15-677h92z"/>
<path fill="#666" stroke="#666" d="M293.15-661h92z"/>
<path fill="none" stroke="#666" d="M293.15-643v-52h92v52z"/>
</a></g><g class="edge"><title>Node2-&gt;Node1</title><a>
<path fill="none" stroke="#006400" d="M346.54-633.03c18.7 88.45 68.35 323.27 95.76 452.92"/>
<path fill="none" stroke="#006400" d="m343.11-632.33 1.36-10.51 5.49 9.06z"/>
</a></g><g class="node"><title>Node3</title><a xlink:href="../../df/de6/classdouble.html" target="_top">
<path fill="#fff" stroke="transparent" d="M116.65-1083h-51v52h51z"/>
<text x="71.15" y="-1070.2" font-family="Consolas" font-size="11">double</text>
<text x="88.15" y="-1054.2" font-family="Consolas" font-size="11"> </text>
<text x="88.15" y="-1038.2" font-family="Consolas" font-size="11"> </text>
<path fill="#666" stroke="#666" d="M66.15-1065h51z"/>
<path fill="#666" stroke="#666" d="M66.15-1049h51z"/>
<path fill="none" stroke="#666" d="M65.65-1031v-52h51v52z"/>
</a></g><g class="edge"><title>Node3-&gt;Node2</title><a>
<path fill="none" stroke="#63b8ff" d="M72.74-1030.66C36.25-977.07-36.73-850.5 23.15-769c30.74 41.85 175.48 73.94 258 89.2"/>
<path fill="none" stroke="#63b8ff" d="m281.29-679.77 5.19 5 6.62-2.86-5.19-5.01z"/>
</a><text x="80.65" y="-868.2" fill="gray" font-family="Consolas" font-size="11" text-anchor="middle"> +elastic_modulus</text><text x="80.65" y="-856.2" fill="gray" font-family="Consolas" font-size="11" text-anchor="middle">+epsilon</text><text x="80.65" y="-844.2" fill="gray" font-family="Consolas" font-size="11" text-anchor="middle">+hardening</text><text x="80.65" y="-832.2" fill="gray" font-family="Consolas" font-size="11" text-anchor="middle">+m</text><text x="80.65" y="-820.2" fill="gray" font-family="Consolas" font-size="11" text-anchor="middle">+mu</text><text x="80.65" y="-808.2" fill="gray" font-family="Consolas" font-size="11" text-anchor="middle">+saturated</text><text x="80.65" y="-796.2" fill="gray" font-family="Consolas" font-size="11" text-anchor="middle">+yield</text></g><g class="node"><title>Node7</title><a xlink:href="../../de/de9/struct_data_material.html" target="_top">
<path fill="#fff" stroke="transparent" d="M609.15-727h-134v116h134z"/>
<text x="501.15" y="-714.2" font-family="Consolas" font-size="11">DataMaterial</text>
<text x="479.15" y="-698.2" font-family="Consolas" font-size="11">+</text>
<text x="490.15" y="-698.2" font-family="Consolas" font-size="11">trial_strain</text>
<text x="479.15" y="-682.2" font-family="Consolas" font-size="11">+</text>
<text x="490.15" y="-682.2" font-family="Consolas" font-size="11">trial_strain_rate</text>
<text x="479.15" y="-666.2" font-family="Consolas" font-size="11">+</text>
<text x="490.15" y="-666.2" font-family="Consolas" font-size="11">trial_strain_acc</text>
<text x="479.15" y="-650.2" font-family="Consolas" font-size="11">+</text>
<text x="490.15" y="-650.2" font-family="Consolas" font-size="11">trial_stress</text>
<text x="479.15" y="-634.2" font-family="Consolas" font-size="11">+</text>
<text x="490.15" y="-634.2" font-family="Consolas" font-size="11">trial_history</text>
<text x="538.65" y="-618.2" font-family="Consolas" font-size="11"> </text>
<path fill="#666" stroke="#666" d="M475.15-709h134z"/>
<path fill="#666" stroke="#666" d="M475.15-629h13z"/>
<path fill="#666" stroke="#666" d="M488.15-629h121z"/>
<path fill="none" stroke="#666" d="M475.15-611v-116h134v116z"/>
</a></g><g class="edge"><title>Node3-&gt;Node7</title><a>
<path fill="none" stroke="#63b8ff" d="M99.02-1030.83c9.51 30.61 25.9 83.89 39.13 129.83 16.82 58.44-10.78 93.15 36 132 37.73 31.34 173.01 3.92 220 18 23.99 7.19 48.46 18.61 70.42 30.64"/>
<path fill="none" stroke="#63b8ff" d="m464.68-720.3 3.27 6.43 7.19-.55-3.27-6.43z"/>
</a><text x="252.15" y="-844.2" fill="gray" font-family="Consolas" font-size="11" text-anchor="middle"> +characteristic_length</text><text x="252.15" y="-832.2" fill="gray" font-family="Consolas" font-size="11" text-anchor="middle">+density</text><text x="252.15" y="-820.2" fill="gray" font-family="Consolas" font-size="11" text-anchor="middle">+tolerance</text></g><g class="node"><title>Node4</title><a>
<path fill="#fff" stroke="transparent" d="M398.65-1083h-31v52h31z"/>
<text x="373.15" y="-1070.2" font-family="Consolas" font-size="11">vec</text>
<text x="380.15" y="-1054.2" font-family="Consolas" font-size="11"> </text>
<text x="380.15" y="-1038.2" font-family="Consolas" font-size="11"> </text>
<path fill="#666" stroke="#666" d="M368.15-1065h31z"/>
<path fill="#666" stroke="#666" d="M368.15-1049h31z"/>
<path fill="none" stroke="#666" d="M367.65-1031v-52h31v52z"/>
</a></g><g class="edge"><title>Node4-&gt;Node2</title><a>
<path fill="none" stroke="#63b8ff" d="M373.96-1030.93c-10.58 30.29-27.33 83.04-33.81 129.93-9.38 67.76-6.71 147.77-3.88 193.63"/>
<path fill="none" stroke="#63b8ff" d="m336.29-707.08-3.59 6.25 4.38 5.72 3.6-6.25z"/>
</a><text x="350.65" y="-838.2" fill="gray" font-family="Consolas" font-size="11" text-anchor="middle"> +a</text><text x="350.65" y="-826.2" fill="gray" font-family="Consolas" font-size="11" text-anchor="middle">+b</text></g><g class="edge"><title>Node4-&gt;Node7</title><a>
<path fill="none" stroke="#63b8ff" d="M378.05-1030.97c-9.32 52.46-23.99 176.15 24.1 261.97 14.32 25.56 38.33 46.11 62.45 61.71"/>
<path fill="none" stroke="#63b8ff" d="m464.72-707.22 3 6.56 7.2-.25-3-6.56z"/>
</a><text x="470.15" y="-892.2" fill="gray" font-family="Consolas" font-size="11" text-anchor="middle"> +current_history</text><text x="470.15" y="-880.2" fill="gray" font-family="Consolas" font-size="11" text-anchor="middle">+current_strain</text><text x="470.15" y="-868.2" fill="gray" font-family="Consolas" font-size="11" text-anchor="middle">+current_strain_acc</text><text x="470.15" y="-856.2" fill="gray" font-family="Consolas" font-size="11" text-anchor="middle">+current_strain_rate</text><text x="470.15" y="-844.2" fill="gray" font-family="Consolas" font-size="11" text-anchor="middle">+current_stress</text><text x="470.15" y="-832.2" fill="gray" font-family="Consolas" font-size="11" text-anchor="middle">+incre_strain</text><text x="470.15" y="-820.2" fill="gray" font-family="Consolas" font-size="11" text-anchor="middle">+incre_strain_acc</text><text x="470.15" y="-808.2" fill="gray" font-family="Consolas" font-size="11" text-anchor="middle">+incre_strain_rate</text><text x="470.15" y="-796.2" fill="gray" font-family="Consolas" font-size="11" text-anchor="middle">+incre_stress</text><text x="470.15" y="-784.2" fill="gray" font-family="Consolas" font-size="11" text-anchor="middle">+initial_history</text><text x="470.15" y="-772.2" fill="gray" font-family="Consolas" font-size="11" text-anchor="middle">...</text></g><g class="node"><title>Node11</title><a xlink:href="../../da/de4/struct_data_couple_material.html" target="_top">
<path fill="#fff" stroke="transparent" d="M759.15-695h-132v52h132z"/>
<text x="632.15" y="-682.2" font-family="Consolas" font-size="11">DataCoupleMaterial</text>
<text x="689.65" y="-666.2" font-family="Consolas" font-size="11"> </text>
<text x="689.65" y="-650.2" font-family="Consolas" font-size="11"> </text>
<path fill="#666" stroke="#666" d="M627.15-677h132z"/>
<path fill="#666" stroke="#666" d="M627.15-661h132z"/>
<path fill="none" stroke="#666" d="M627.15-643v-52h132v52z"/>
</a></g><g class="edge"><title>Node4-&gt;Node11</title><a>
<path fill="none" stroke="#63b8ff" d="M390.83-1030.78C402-998.83 426.04-944.82 467.15-919c33.66 21.14 149.3-9.51 178 18 21.39 20.51 12.7 103.04 19 132 4.52 20.82 11.1 43.66 16.85 62.16"/>
<path fill="none" stroke="#63b8ff" d="m681-706.82-2 6.92 5.63 4.52 2-6.93z"/>
</a><text x="742.15" y="-862.2" fill="gray" font-family="Consolas" font-size="11" text-anchor="middle"> +current_couple_stress</text><text x="742.15" y="-850.2" fill="gray" font-family="Consolas" font-size="11" text-anchor="middle">+current_curvature</text><text x="742.15" y="-838.2" fill="gray" font-family="Consolas" font-size="11" text-anchor="middle">+incre_couple_stress</text><text x="742.15" y="-826.2" fill="gray" font-family="Consolas" font-size="11" text-anchor="middle">+incre_curvature</text><text x="742.15" y="-814.2" fill="gray" font-family="Consolas" font-size="11" text-anchor="middle">+trial_couple_stress</text><text x="742.15" y="-802.2" fill="gray" font-family="Consolas" font-size="11" text-anchor="middle">+trial_curvature</text></g><g class="node"><title>Node5</title><a xlink:href="../../d9/d97/class_material1_d.html" xlink:title="A Material1D class." target="_top">
<path fill="#fff" stroke="transparent" d="M593.65-301h-101v84h101z"/>
<text x="509.65" y="-288.2" font-family="Consolas" font-size="11">Material1D</text>
<text x="540.15" y="-272.2" font-family="Consolas" font-size="11"> </text>
<text x="497.15" y="-256.2" font-family="Consolas" font-size="11">+</text>
<text x="508.15" y="-256.2" font-family="Consolas" font-size="11">Material1D()</text>
<text x="497.15" y="-240.2" font-family="Consolas" font-size="11">+</text>
<text x="508.15" y="-240.2" font-family="Consolas" font-size="11">record()</text>
<text x="497.15" y="-224.2" font-family="Consolas" font-size="11">+</text>
<text x="508.15" y="-224.2" font-family="Consolas" font-size="11">print()</text>
<path fill="#666" stroke="#666" d="M493.15-283h101z"/>
<path fill="#666" stroke="#666" d="M493.15-267h101z"/>
<path fill="none" stroke="#666" d="M492.65-217v-84h101v84z"/>
</a></g><g class="edge"><title>Node5-&gt;Node1</title><a>
<path fill="none" stroke="#63b8ff" d="M518.36-207.52c-4.27 8.7-8.83 17.97-13.43 27.34"/>
<path fill="none" stroke="#63b8ff" d="m515.33-209.29 7.55-7.43-1.27 10.52z"/>
</a></g><g class="node"><title>Node6</title><a xlink:href="../../dc/dee/class_material.html" xlink:title="A Material abstract base class." target="_top">
<path fill="#fff" stroke="transparent" d="M697.65-550h-161v212h161z"/>
<text x="590.15" y="-537.2" font-family="Consolas" font-size="11">Material</text>
<text x="614.15" y="-521.2" font-family="Consolas" font-size="11"> </text>
<text x="541.15" y="-505.2" font-family="Consolas" font-size="11">+</text>
<text x="552.15" y="-505.2" font-family="Consolas" font-size="11">Material()</text>
<text x="541.15" y="-489.2" font-family="Consolas" font-size="11">+</text>
<text x="552.15" y="-489.2" font-family="Consolas" font-size="11">get_density()</text>
<text x="541.15" y="-473.2" font-family="Consolas" font-size="11">+</text>
<text x="552.15" y="-473.2" font-family="Consolas" font-size="11">get_material_type()</text>
<text x="541.15" y="-457.2" font-family="Consolas" font-size="11">+</text>
<text x="552.15" y="-457.2" font-family="Consolas" font-size="11">get_plane_type()</text>
<text x="541.15" y="-441.2" font-family="Consolas" font-size="11">+</text>
<text x="552.15" y="-441.2" font-family="Consolas" font-size="11">initialize_base()</text>
<text x="541.15" y="-425.2" font-family="Consolas" font-size="11">+</text>
<text x="552.15" y="-425.2" font-family="Consolas" font-size="11">initialize()</text>
<text x="541.15" y="-409.2" font-family="Consolas" font-size="11">+</text>
<text x="552.15" y="-409.2" font-family="Consolas" font-size="11">initialize_couple()</text>
<text x="541.15" y="-393.2" font-family="Consolas" font-size="11">+</text>
<text x="552.15" y="-393.2" font-family="Consolas" font-size="11">initialize_history()</text>
<text x="541.15" y="-377.2" font-family="Consolas" font-size="11">+</text>
<text x="552.15" y="-377.2" font-family="Consolas" font-size="11">set_initial_history()</text>
<text x="541.15" y="-361.2" font-family="Consolas" font-size="11">+</text>
<text x="552.15" y="-361.2" font-family="Consolas" font-size="11">set_initialized()</text>
<text x="552.15" y="-345.2" font-family="Consolas" font-size="11">and 67 more...</text>
<path fill="#666" stroke="#666" d="M537.15-532h161z"/>
<path fill="#666" stroke="#666" d="M537.15-516h161z"/>
<path fill="none" stroke="#666" d="M536.65-338v-212h161v212z"/>
</a></g><g class="edge"><title>Node6-&gt;Node5</title><a>
<path fill="none" stroke="#63b8ff" d="M570.88-328.58c-3.88 9.6-7.62 18.83-11.02 27.25"/>
<path fill="none" stroke="#63b8ff" d="m567.64-329.92 7-7.95-.51 10.58z"/>
</a></g><g class="edge"><title>Node7-&gt;Node6</title><a>
<path fill="none" stroke="#006400" d="M564.66-601.06c5.41 16.08 11.31 33.63 17.14 50.98"/>
<path fill="none" stroke="#006400" d="m561.23-600.27.13-10.59 6.51 8.36z"/>
</a></g><g class="node"><title>Node8</title><a>
<path fill="#fff" stroke="transparent" d="M608.15-1083h-132v52h132z"/>
<text x="481.15" y="-1070.2" font-family="Consolas" font-size="11">const MaterialType</text>
<text x="538.65" y="-1054.2" font-family="Consolas" font-size="11"> </text>
<text x="538.65" y="-1038.2" font-family="Consolas" font-size="11"> </text>
<path fill="#666" stroke="#666" d="M476.15-1065h132z"/>
<path fill="#666" stroke="#666" d="M476.15-1049h132z"/>
<path fill="none" stroke="#666" d="M476.15-1031v-52h132v52z"/>
</a></g><g class="edge"><title>Node8-&gt;Node7</title><a>
<path fill="none" stroke="#63b8ff" d="M542.15-1030.97v291.67"/>
<path fill="none" stroke="#63b8ff" d="m542.15-739.1-4 6 4 6 4-6z"/>
</a><text x="593.15" y="-832.2" fill="gray" font-family="Consolas" font-size="11" text-anchor="middle"> +material_type</text></g><g class="node"><title>Node9</title><a>
<path fill="#fff" stroke="transparent" d="M902.15-1083h-112v52h112z"/>
<text x="795.15" y="-1070.2" font-family="Consolas" font-size="11">const PlaneType</text>
<text x="842.65" y="-1054.2" font-family="Consolas" font-size="11"> </text>
<text x="842.65" y="-1038.2" font-family="Consolas" font-size="11"> </text>
<path fill="#666" stroke="#666" d="M790.15-1065h112z"/>
<path fill="#666" stroke="#666" d="M790.15-1049h112z"/>
<path fill="none" stroke="#666" d="M790.15-1031v-52h112v52z"/>
</a></g><g class="edge"><title>Node9-&gt;Node7</title><a>
<path fill="none" stroke="#63b8ff" d="M846.04-1030.98c-.53 66.44-3.66 243.55-21.89 261.98-32.32 32.67-164.67-2.08-206 18-8.42 4.09-16.38 9.54-23.74 15.68"/>
<path fill="none" stroke="#63b8ff" d="m594.32-735.24-7.14 1.04-1.78 6.99 7.14-1.04z"/>
</a><text x="883.15" y="-832.2" fill="gray" font-family="Consolas" font-size="11" text-anchor="middle"> +plane_type</text></g><g class="node"><title>Node10</title><a>
<path fill="#fff" stroke="transparent" d="M1038.65-1083h-31v52h31z"/>
<text x="1013.15" y="-1070.2" font-family="Consolas" font-size="11">mat</text>
<text x="1020.15" y="-1054.2" font-family="Consolas" font-size="11"> </text>
<text x="1020.15" y="-1038.2" font-family="Consolas" font-size="11"> </text>
<path fill="#666" stroke="#666" d="M1008.15-1065h31z"/>
<path fill="#666" stroke="#666" d="M1008.15-1049h31z"/>
<path fill="none" stroke="#666" d="M1007.65-1031v-52h31v52z"/>
</a></g><g class="edge"><title>Node10-&gt;Node7</title><a>
<path fill="none" stroke="#63b8ff" d="M1008.08-1030.92c-17.25 29.88-45.02 81.81-59.93 129.92-8.79 28.34 1.92 112.01-20 132-25.5 23.24-278.75 3.38-310 18-8.6 4.02-16.7 9.49-24.18 15.7"/>
<path fill="none" stroke="#63b8ff" d="m593.76-735.11-7.13 1.04-1.79 6.99 7.14-1.04z"/>
</a><text x="1009.15" y="-880.2" fill="gray" font-family="Consolas" font-size="11" text-anchor="middle"> +current_damping</text><text x="1009.15" y="-868.2" fill="gray" font-family="Consolas" font-size="11" text-anchor="middle">+current_inertial</text><text x="1009.15" y="-856.2" fill="gray" font-family="Consolas" font-size="11" text-anchor="middle">+current_stiffness</text><text x="1009.15" y="-844.2" fill="gray" font-family="Consolas" font-size="11" text-anchor="middle">+initial_damping</text><text x="1009.15" y="-832.2" fill="gray" font-family="Consolas" font-size="11" text-anchor="middle">+initial_inertial</text><text x="1009.15" y="-820.2" fill="gray" font-family="Consolas" font-size="11" text-anchor="middle">+initial_stiffness</text><text x="1009.15" y="-808.2" fill="gray" font-family="Consolas" font-size="11" text-anchor="middle">+trial_damping</text><text x="1009.15" y="-796.2" fill="gray" font-family="Consolas" font-size="11" text-anchor="middle">+trial_inertial</text><text x="1009.15" y="-784.2" fill="gray" font-family="Consolas" font-size="11" text-anchor="middle">+trial_stiffness</text></g><g class="edge"><title>Node10-&gt;Node11</title><a>
<path fill="none" stroke="#63b8ff" d="M1034.19-1030.84c12.58 30.16 32.38 82.57 39.96 129.84 9.28 57.93 36.64 86.19 0 132-22.77 28.46-44.62 9.26-80 18-76.1 18.79-162.45 42.25-223.08 59.08"/>
<path fill="none" stroke="#63b8ff" d="m770.86-691.86-6.86-2.25-4.7 5.46 6.85 2.25z"/>
</a><text x="1180.15" y="-844.2" fill="gray" font-family="Consolas" font-size="11" text-anchor="middle"> +current_couple_stiffness</text><text x="1180.15" y="-832.2" fill="gray" font-family="Consolas" font-size="11" text-anchor="middle">+initial_couple_stiffness</text><text x="1180.15" y="-820.2" fill="gray" font-family="Consolas" font-size="11" text-anchor="middle">+trial_couple_stiffness</text></g><g class="edge"><title>Node11-&gt;Node6</title><a>
<path fill="none" stroke="#006400" d="M681.26-633.12c-7.66 22.47-18.06 52.98-28.25 82.89"/>
<path fill="none" stroke="#006400" d="m678.04-634.52 6.53-8.33.09 10.59z"/>
</a></g><g class="node"><title>Node12</title><a xlink:href="../../d7/d1d/class_copyable_tag.html" xlink:title="Label objects that can be copied." target="_top">
<path fill="#fff" stroke="transparent" d="M1117.15-751h-114v164h114z"/>
<text x="1022.65" y="-738.2" font-family="Consolas" font-size="11">CopyableTag</text>
<text x="1056.65" y="-722.2" font-family="Consolas" font-size="11"> </text>
<text x="1007.15" y="-706.2" font-family="Consolas" font-size="11">+</text>
<text x="1018.15" y="-706.2" font-family="Consolas" font-size="11">CopyableTag()</text>
<text x="1007.15" y="-690.2" font-family="Consolas" font-size="11">+</text>
<text x="1018.15" y="-690.2" font-family="Consolas" font-size="11">CopyableTag()</text>
<text x="1007.15" y="-674.2" font-family="Consolas" font-size="11">+</text>
<text x="1018.15" y="-674.2" font-family="Consolas" font-size="11">operator=()</text>
<text x="1007.15" y="-658.2" font-family="Consolas" font-size="11">+</text>
<text x="1018.15" y="-658.2" font-family="Consolas" font-size="11">operator=()</text>
<text x="1007.15" y="-642.2" font-family="Consolas" font-size="11">+</text>
<text x="1018.15" y="-642.2" font-family="Consolas" font-size="11">~CopyableTag()</text>
<text x="1007.15" y="-626.2" font-family="Consolas" font-size="11">+</text>
<text x="1018.15" y="-626.2" font-family="Consolas" font-size="11">Tag()</text>
<text x="1007.15" y="-610.2" font-family="Consolas" font-size="11">+</text>
<text x="1018.15" y="-610.2" font-family="Consolas" font-size="11">Tag()</text>
<text x="1007.15" y="-594.2" font-family="Consolas" font-size="11">+</text>
<text x="1018.15" y="-594.2" font-family="Consolas" font-size="11">Tag()</text>
<path fill="#666" stroke="#666" d="M1003.15-733h114z"/>
<path fill="#666" stroke="#666" d="M1003.15-717h114z"/>
<path fill="none" stroke="#666" d="M1003.15-587v-164h114v164z"/>
</a></g><g class="edge"><title>Node12-&gt;Node6</title><a>
<path fill="none" stroke="#63b8ff" d="M993.77-634.59c-79.02 39.78-210.93 106.18-295.81 148.91"/>
<path fill="none" stroke="#63b8ff" d="m992.63-637.93 10.51-1.37-7.36 7.62z"/>
</a></g><g class="node"><title>Node13</title><a xlink:href="../../d0/d57/class_tag.html" xlink:title="A base Tag class." target="_top">
<path fill="#fff" stroke="transparent" d="M1337.65-1195h-101v276h101z"/>
<text x="1277.15" y="-1182.2" font-family="Consolas" font-size="11">Tag</text>
<text x="1284.15" y="-1166.2" font-family="Consolas" font-size="11"> </text>
<text x="1241.15" y="-1150.2" font-family="Consolas" font-size="11">+</text>
<text x="1252.15" y="-1150.2" font-family="Consolas" font-size="11">Tag()</text>
<text x="1241.15" y="-1134.2" font-family="Consolas" font-size="11">+</text>
<text x="1252.15" y="-1134.2" font-family="Consolas" font-size="11">Tag()</text>
<text x="1241.15" y="-1118.2" font-family="Consolas" font-size="11">+</text>
<text x="1252.15" y="-1118.2" font-family="Consolas" font-size="11">Tag()</text>
<text x="1241.15" y="-1102.2" font-family="Consolas" font-size="11">+</text>
<text x="1252.15" y="-1102.2" font-family="Consolas" font-size="11">operator=()</text>
<text x="1241.15" y="-1086.2" font-family="Consolas" font-size="11">+</text>
<text x="1252.15" y="-1086.2" font-family="Consolas" font-size="11">operator=()</text>
<text x="1241.15" y="-1070.2" font-family="Consolas" font-size="11">+</text>
<text x="1252.15" y="-1070.2" font-family="Consolas" font-size="11">~Tag()</text>
<text x="1241.15" y="-1054.2" font-family="Consolas" font-size="11">+</text>
<text x="1252.15" y="-1054.2" font-family="Consolas" font-size="11">set_tag()</text>
<text x="1241.15" y="-1038.2" font-family="Consolas" font-size="11">+</text>
<text x="1252.15" y="-1038.2" font-family="Consolas" font-size="11">get_tag()</text>
<text x="1241.15" y="-1022.2" font-family="Consolas" font-size="11">+</text>
<text x="1252.15" y="-1022.2" font-family="Consolas" font-size="11">enable()</text>
<text x="1241.15" y="-1006.2" font-family="Consolas" font-size="11">+</text>
<text x="1252.15" y="-1006.2" font-family="Consolas" font-size="11">disable()</text>
<text x="1241.15" y="-990.2" font-family="Consolas" font-size="11">+</text>
<text x="1252.15" y="-990.2" font-family="Consolas" font-size="11">guard()</text>
<text x="1241.15" y="-974.2" font-family="Consolas" font-size="11">+</text>
<text x="1252.15" y="-974.2" font-family="Consolas" font-size="11">unguard()</text>
<text x="1241.15" y="-958.2" font-family="Consolas" font-size="11">+</text>
<text x="1252.15" y="-958.2" font-family="Consolas" font-size="11">is_active()</text>
<text x="1241.15" y="-942.2" font-family="Consolas" font-size="11">+</text>
<text x="1252.15" y="-942.2" font-family="Consolas" font-size="11">is_guarded()</text>
<text x="1241.15" y="-926.2" font-family="Consolas" font-size="11">+</text>
<text x="1252.15" y="-926.2" font-family="Consolas" font-size="11">print()</text>
<path fill="#666" stroke="#666" d="M1237.15-1177h101z"/>
<path fill="#666" stroke="#666" d="M1237.15-1161h101z"/>
<path fill="none" stroke="#666" d="M1236.65-919v-276h101v276z"/>
</a></g><g class="edge"><title>Node13-&gt;Node12</title><a>
<path fill="none" stroke="#63b8ff" d="M1308.91-908.68c-.1 48.01-8.6 99.3-35.76 139.68-35.17 52.27-105.47 77.51-155.69 89.3"/>
<path fill="none" stroke="#63b8ff" d="m1305.41-908.84 3.4-10.03 3.6 9.97z"/>
</a></g></g></svg>