<?xml version="1.0" encoding="UTF-8" standalone="no"?>
<!DOCTYPE svg PUBLIC "-//W3C//DTD SVG 1.1//EN"
 "http://www.w3.org/Graphics/SVG/1.1/DTD/svg11.dtd">
<!-- Generated by graphviz version 8.1.0 (20230707.0739)
 -->
<!-- Title: NodeRecorder Pages: 1 -->
<!--zoomable 783 -->

<svg id="main" version="1.1" xmlns="http://www.w3.org/2000/svg" xmlns:xlink="http://www.w3.org/1999/xlink" xml:space="preserve" onload="init(evt)">
<style type="text/css"><![CDATA[
.node, .edge {opacity: 0.7;}
.node.selected, .edge.selected {opacity: 1;}
.edge:hover path { stroke: red; }
.edge:hover polygon { stroke: red; fill: red; }
]]></style>

<defs>
  <circle id="rim" cx="0" cy="0" r="7"/>
  <circle id="rim2" cx="0" cy="0" r="3.5"/>
  <g id="zoomPlus">
    <use xlink:href="#rim" fill="#404040"><set attributeName="fill" to="#808080" begin="zoomplus.mouseover" end="zoomplus.mouseout"/></use>
    <path d="M-4,0h8M0,-4v8" fill="none" stroke="white" stroke-width="1.5" pointer-events="none"/>
  </g>
  <g id="zoomMin">
    <use xlink:href="#rim" fill="#404040"><set attributeName="fill" to="#808080" begin="zoomminus.mouseover" end="zoomminus.mouseout"/></use>
    <path d="M-4,0h8" fill="none" stroke="white" stroke-width="1.5" pointer-events="none"/>
  </g>
  <g id="arrowUp" transform="translate(30 24)">
    <use xlink:href="#rim"/>
    <path pointer-events="none" fill="none" stroke="white" stroke-width="1.5" d="M0,-3.0v7 M-2.5,-0.5L0,-3.0L2.5,-0.5"/>
  </g>
  <g id="arrowRight" transform="rotate(90) translate(36 -43)">
    <use xlink:href="#rim"/>
    <path pointer-events="none" fill="none" stroke="white" stroke-width="1.5" d="M0,-3.0v7 M-2.5,-0.5L0,-3.0L2.5,-0.5"/>
  </g>
  <g id="arrowDown" transform="rotate(180) translate(-30 -48)">
    <use xlink:href="#rim"/>
    <path pointer-events="none" fill="none" stroke="white" stroke-width="1.5" d="M0,-3.0v7 M-2.5,-0.5L0,-3.0L2.5,-0.5"/>
  </g>
  <g id="arrowLeft" transform="rotate(270) translate(-36 17)">
    <use xlink:href="#rim"/>
    <path pointer-events="none" fill="none" stroke="white" stroke-width="1.5" d="M0,-3.0v7 M-2.5,-0.5L0,-3.0L2.5,-0.5"/>
  </g>
  <g id="resetDef">
    <use xlink:href="#rim2" fill="#404040"><set attributeName="fill" to="#808080" begin="reset.mouseover" end="reset.mouseout"/></use>
  </g>
</defs>
<script type="application/ecmascript">
var viewWidth = 176;
var viewHeight = 783;
var sectionId = 'dynsection-1';
</script>
<script type="application/ecmascript" xlink:href="../../svg.min.js"/>
<svg id="graph" class="graph">
<g id="viewport">
<title>NodeRecorder</title>
<!-- Node1 -->
<g id="Node000001" class="node">
<title>Node1</title>
<g id="a_Node000001"><a xlink:title="A NodeRecorder class.">
<polygon fill="#999999" stroke="none" points="136,-140 46,-140 46,0 136,0 136,-140"/>
<text text-anchor="start" x="55" y="-125.55" font-family="Consolas" font-size="11.00">NodeRecorder</text>
<text text-anchor="start" x="88" y="-108.55" font-family="Consolas" font-size="11.00"> </text>
<text text-anchor="start" x="50" y="-91.55" font-family="Consolas" font-size="11.00">+</text>
<text text-anchor="start" x="60" y="-91.55" font-family="Consolas" font-size="11.00">initialize()</text>
<text text-anchor="start" x="50" y="-74.55" font-family="Consolas" font-size="11.00">+</text>
<text text-anchor="start" x="60" y="-74.55" font-family="Consolas" font-size="11.00">record()</text>
<text text-anchor="start" x="50" y="-57.55" font-family="Consolas" font-size="11.00">+</text>
<text text-anchor="start" x="60" y="-57.55" font-family="Consolas" font-size="11.00">print()</text>
<text text-anchor="start" x="50" y="-40.55" font-family="Consolas" font-size="11.00">+</text>
<text text-anchor="start" x="60" y="-40.55" font-family="Consolas" font-size="11.00">Recorder()</text>
<text text-anchor="start" x="50" y="-23.55" font-family="Consolas" font-size="11.00">+</text>
<text text-anchor="start" x="60" y="-23.55" font-family="Consolas" font-size="11.00">Recorder()</text>
<text text-anchor="start" x="50" y="-6.55" font-family="Consolas" font-size="11.00">+</text>
<text text-anchor="start" x="60" y="-6.55" font-family="Consolas" font-size="11.00">Recorder()</text>
<polygon fill="#666666" stroke="#666666" points="46,-121 46,-121 136,-121 136,-121 46,-121"/>
<polygon fill="#666666" stroke="#666666" points="46,-104 46,-104 136,-104 136,-104 46,-104"/>
<polygon fill="none" stroke="#666666" points="46,0 46,-140 136,-140 136,0 46,0"/>
</a>
</g>
</g>
<!-- Node2 -->
<g id="Node000002" class="node">
<title>Node2</title>
<g id="a_Node000002"><a xlink:href="../../d3/d1a/class_recorder.html" target="_top" xlink:title="A Recorder class.">
<polygon fill="white" stroke="none" points="157,-419 25,-419 25,-177 157,-177 157,-419"/>
<text text-anchor="start" x="67" y="-404.55" font-family="Consolas" font-size="11.00">Recorder</text>
<text text-anchor="start" x="88" y="-387.55" font-family="Consolas" font-size="11.00"> </text>
<text text-anchor="start" x="29" y="-370.55" font-family="Consolas" font-size="11.00">+</text>
<text text-anchor="start" x="39" y="-370.55" font-family="Consolas" font-size="11.00">Recorder()</text>
<text text-anchor="start" x="29" y="-353.55" font-family="Consolas" font-size="11.00">+</text>
<text text-anchor="start" x="39" y="-353.55" font-family="Consolas" font-size="11.00">Recorder()</text>
<text text-anchor="start" x="29" y="-336.55" font-family="Consolas" font-size="11.00">+</text>
<text text-anchor="start" x="39" y="-336.55" font-family="Consolas" font-size="11.00">Recorder()</text>
<text text-anchor="start" x="29" y="-319.55" font-family="Consolas" font-size="11.00">+</text>
<text text-anchor="start" x="39" y="-319.55" font-family="Consolas" font-size="11.00">operator=()</text>
<text text-anchor="start" x="29" y="-302.55" font-family="Consolas" font-size="11.00">+</text>
<text text-anchor="start" x="39" y="-302.55" font-family="Consolas" font-size="11.00">operator=()</text>
<text text-anchor="start" x="29" y="-285.55" font-family="Consolas" font-size="11.00">+</text>
<text text-anchor="start" x="39" y="-285.55" font-family="Consolas" font-size="11.00">~Recorder()</text>
<text text-anchor="start" x="29" y="-268.55" font-family="Consolas" font-size="11.00">+</text>
<text text-anchor="start" x="39" y="-268.55" font-family="Consolas" font-size="11.00">initialize()</text>
<text text-anchor="start" x="29" y="-251.55" font-family="Consolas" font-size="11.00">+</text>
<text text-anchor="start" x="39" y="-251.55" font-family="Consolas" font-size="11.00">set_object_tag()</text>
<text text-anchor="start" x="29" y="-234.55" font-family="Consolas" font-size="11.00">+</text>
<text text-anchor="start" x="39" y="-234.55" font-family="Consolas" font-size="11.00">get_object_tag()</text>
<text text-anchor="start" x="29" y="-217.55" font-family="Consolas" font-size="11.00">+</text>
<text text-anchor="start" x="39" y="-217.55" font-family="Consolas" font-size="11.00">set_variable_type()</text>
<text text-anchor="start" x="39" y="-200.55" font-family="Consolas" font-size="11.00">and 10 more...</text>
<text text-anchor="start" x="29" y="-183.55" font-family="Consolas" font-size="11.00">#</text>
<text text-anchor="start" x="39" y="-183.55" font-family="Consolas" font-size="11.00">if_perform_record()</text>
<polygon fill="#666666" stroke="#666666" points="25,-400 25,-400 157,-400 157,-400 25,-400"/>
<polygon fill="#666666" stroke="#666666" points="25,-383 25,-383 157,-383 157,-383 25,-383"/>
<polygon fill="none" stroke="#666666" points="25,-177 25,-419 157,-419 157,-177 25,-177"/>
</a>
</g>
</g>
<!-- Node2&#45;&gt;Node1 -->
<g id="edge1_Node000001_Node000002" class="edge">
<title>Node2&#45;&gt;Node1</title>
<g id="a_edge1_Node000001_Node000002"><a xlink:title=" ">
<path fill="none" stroke="#63b8ff" d="M91,-166.31C91,-157.21 91,-148.26 91,-139.72"/>
<polygon fill="none" stroke="#63b8ff" points="87.5,-166.05 91,-176.05 94.5,-166.05 87.5,-166.05"/>
</a>
</g>
</g>
<!-- Node3 -->
<g id="Node000003" class="node">
<title>Node3</title>
<g id="a_Node000003"><a xlink:href="../../d0/d57/class_tag.html" target="_top" xlink:title="A base Tag class.">
<polygon fill="white" stroke="none" points="90,-775 0,-775 0,-482 90,-482 90,-775"/>
<text text-anchor="start" x="36" y="-760.55" font-family="Consolas" font-size="11.00">Tag</text>
<text text-anchor="start" x="42" y="-743.55" font-family="Consolas" font-size="11.00"> </text>
<text text-anchor="start" x="4" y="-726.55" font-family="Consolas" font-size="11.00">+</text>
<text text-anchor="start" x="14" y="-726.55" font-family="Consolas" font-size="11.00">Tag()</text>
<text text-anchor="start" x="4" y="-709.55" font-family="Consolas" font-size="11.00">+</text>
<text text-anchor="start" x="14" y="-709.55" font-family="Consolas" font-size="11.00">Tag()</text>
<text text-anchor="start" x="4" y="-692.55" font-family="Consolas" font-size="11.00">+</text>
<text text-anchor="start" x="14" y="-692.55" font-family="Consolas" font-size="11.00">Tag()</text>
<text text-anchor="start" x="4" y="-675.55" font-family="Consolas" font-size="11.00">+</text>
<text text-anchor="start" x="14" y="-675.55" font-family="Consolas" font-size="11.00">operator=()</text>
<text text-anchor="start" x="4" y="-658.55" font-family="Consolas" font-size="11.00">+</text>
<text text-anchor="start" x="14" y="-658.55" font-family="Consolas" font-size="11.00">operator=()</text>
<text text-anchor="start" x="4" y="-641.55" font-family="Consolas" font-size="11.00">+</text>
<text text-anchor="start" x="14" y="-641.55" font-family="Consolas" font-size="11.00">~Tag()</text>
<text text-anchor="start" x="4" y="-624.55" font-family="Consolas" font-size="11.00">+</text>
<text text-anchor="start" x="14" y="-624.55" font-family="Consolas" font-size="11.00">set_tag()</text>
<text text-anchor="start" x="4" y="-607.55" font-family="Consolas" font-size="11.00">+</text>
<text text-anchor="start" x="14" y="-607.55" font-family="Consolas" font-size="11.00">get_tag()</text>
<text text-anchor="start" x="4" y="-590.55" font-family="Consolas" font-size="11.00">+</text>
<text text-anchor="start" x="14" y="-590.55" font-family="Consolas" font-size="11.00">enable()</text>
<text text-anchor="start" x="4" y="-573.55" font-family="Consolas" font-size="11.00">+</text>
<text text-anchor="start" x="14" y="-573.55" font-family="Consolas" font-size="11.00">disable()</text>
<text text-anchor="start" x="4" y="-556.55" font-family="Consolas" font-size="11.00">+</text>
<text text-anchor="start" x="14" y="-556.55" font-family="Consolas" font-size="11.00">guard()</text>
<text text-anchor="start" x="4" y="-539.55" font-family="Consolas" font-size="11.00">+</text>
<text text-anchor="start" x="14" y="-539.55" font-family="Consolas" font-size="11.00">unguard()</text>
<text text-anchor="start" x="4" y="-522.55" font-family="Consolas" font-size="11.00">+</text>
<text text-anchor="start" x="14" y="-522.55" font-family="Consolas" font-size="11.00">is_active()</text>
<text text-anchor="start" x="4" y="-505.55" font-family="Consolas" font-size="11.00">+</text>
<text text-anchor="start" x="14" y="-505.55" font-family="Consolas" font-size="11.00">is_guarded()</text>
<text text-anchor="start" x="4" y="-488.55" font-family="Consolas" font-size="11.00">+</text>
<text text-anchor="start" x="14" y="-488.55" font-family="Consolas" font-size="11.00">print()</text>
<polygon fill="#666666" stroke="#666666" points="0,-756 0,-756 90,-756 90,-756 0,-756"/>
<polygon fill="#666666" stroke="#666666" points="0,-739 0,-739 90,-739 90,-739 0,-739"/>
<polygon fill="none" stroke="#666666" points="0,-482 0,-775 90,-775 90,-482 0,-482"/>
</a>
</g>
</g>
<!-- Node3&#45;&gt;Node2 -->
<g id="edge2_Node000002_Node000003" class="edge">
<title>Node3&#45;&gt;Node2</title>
<g id="a_edge2_Node000002_Node000003"><a xlink:title=" ">
<path fill="none" stroke="#63b8ff" d="M66.78,-471.98C69.27,-454.15 71.79,-436.18 74.21,-418.92"/>
<polygon fill="none" stroke="#63b8ff" points="63.23,-471.07 65.31,-481.46 70.16,-472.04 63.23,-471.07"/>
</a>
</g>
</g>
<!-- Node4 -->
<g id="Node000004" class="node">
<title>Node4</title>
<g id="a_Node000004"><a xlink:title=" ">
<polygon fill="white" stroke="none" points="166,-656 108,-656 108,-601 166,-601 166,-656"/>
<text text-anchor="start" x="113" y="-641.55" font-family="Consolas" font-size="11.00">unsigned</text>
<text text-anchor="start" x="134" y="-624.55" font-family="Consolas" font-size="11.00"> </text>
<text text-anchor="start" x="134" y="-607.55" font-family="Consolas" font-size="11.00"> </text>
<polygon fill="#666666" stroke="#666666" points="108,-637 108,-637 166,-637 166,-637 108,-637"/>
<polygon fill="#666666" stroke="#666666" points="108,-620 108,-620 166,-620 166,-620 108,-620"/>
<polygon fill="none" stroke="#666666" points="108,-601 108,-656 166,-656 166,-601 108,-601"/>
</a>
</g>
</g>
<!-- Node4&#45;&gt;Node2 -->
<g id="edge3_Node000002_Node000004" class="edge">
<title>Node4&#45;&gt;Node2</title>
<g id="a_edge3_Node000002_Node000004"><a xlink:title=" ">
<path fill="none" stroke="#63b8ff" d="M133.31,-601.17C128.16,-564.35 118.43,-494.9 109.6,-431.86"/>
<polygon fill="none" stroke="#63b8ff" points="109.58,-431.71 104.79,-426.32 107.92,-419.82 112.71,-425.21 109.58,-431.71"/>
</a>
</g>
<text text-anchor="middle" x="141" y="-453.55" font-family="Consolas" font-size="11.00" fill="grey"> #counter</text>
<text text-anchor="middle" x="141" y="-440.05" font-family="Consolas" font-size="11.00" fill="grey">#interval</text>
</g>
</g>
</svg>

<g id="navigator" transform="translate(0 0)" fill="#404254">
  <rect fill="#f2f5e9" fill-opacity="0.5" stroke="#606060" stroke-width=".5" x="0" y="0" width="60" height="60"/>
  <use id="zoomplus" xlink:href="#zoomPlus" x="17" y="9" onmousedown="handleZoom(evt,'in')"/>
  <use id="zoomminus" xlink:href="#zoomMin" x="42" y="9" onmousedown="handleZoom(evt,'out')"/>
  <use id="reset" xlink:href="#resetDef" x="30" y="36" onmousedown="handleReset()"/>
   <use id="arrowup" xlink:href="#arrowUp" x="0" y="0" onmousedown="handlePan(0,-1)"/>
  <use id="arrowright" xlink:href="#arrowRight" x="0" y="0" onmousedown="handlePan(1,0)"/>
  <use id="arrowdown" xlink:href="#arrowDown" x="0" y="0" onmousedown="handlePan(0,1)"/>
  <use id="arrowleft" xlink:href="#arrowLeft" x="0" y="0" onmousedown="handlePan(-1,0)"/>
</g>
<svg viewBox="0 0 15 15" width="100%" height="30px" preserveAspectRatio="xMaxYMin meet">
 <g id="arrow_out" transform="scale(0.3 0.3)">
  <a xlink:href="class_node_recorder__coll__graph_org.svg" target="_base">
   <rect id="button" ry="5" rx="5" y="6" x="6" height="38" width="38"
        fill="#f2f5e9" fill-opacity="0.5" stroke="#606060" stroke-width="1.0"/>
   <path id="arrow"
     d="M 11.500037,31.436501 C 11.940474,20.09759 22.043105,11.32322 32.158766,21.979434 L 37.068811,17.246167 C 37.068811,17.246167 37.088388,32 37.088388,32 L 22.160133,31.978069 C 22.160133,31.978069 26.997745,27.140456 26.997745,27.140456 C 18.528582,18.264221 13.291696,25.230495 11.500037,31.436501 z"
     style="fill:#404040;"/>
  </a>
 </g>
</svg>

<style type='text/css'>
<![CDATA[
[data-mouse-over-selected='false'] { opacity: 0.7; }
[data-mouse-over-selected='true']  { opacity: 1.0; }
]]>
</style>
<script type="application/ecmascript"><![CDATA[
document.addEventListener('DOMContentLoaded', (event) => {
  highlightEdges();
  highlightAdjacentNodes();
});
]]></script>
</svg>
