<svg xmlns="http://www.w3.org/2000/svg" xmlns:xlink="http://www.w3.org/1999/xlink" width="408" height="782pt" viewBox="0 0 306 782"><g class="graph" transform="translate(4 778)"><title>LogicCriterion</title><g class="node"><title>Node1</title><a xlink:title="A LogicCriterion class.">
<path fill="#999" stroke="transparent" d="M239-68H111V0h128z"/>
<text x="127.5" y="-55.2" font-family="Consolas" font-size="11">LogicCriterion</text>
<text x="171.5" y="-39.2" font-family="Consolas" font-size="11"> </text>
<text x="115" y="-23.2" font-family="Consolas" font-size="11">+</text>
<text x="126" y="-23.2" font-family="Consolas" font-size="11">LogicCriterion()</text>
<text x="115" y="-7.2" font-family="Consolas" font-size="11">+</text>
<text x="126" y="-7.2" font-family="Consolas" font-size="11">initialize()</text>
<path fill="#666" stroke="#666" d="M111-50h128z"/>
<path fill="#666" stroke="#666" d="M111-34h128z"/>
<path fill="none" stroke="#666" d="M111 0v-68h128V0z"/>
</a></g><g class="node"><title>Node2</title><a xlink:href="../../d3/d46/class_criterion.html" xlink:title="A Criterion class." target="_top">
<path fill="#fff" stroke="transparent" d="M114-260H0v132h114z"/>
<text x="26.5" y="-247.2" font-family="Consolas" font-size="11">Criterion</text>
<text x="53.5" y="-231.2" font-family="Consolas" font-size="11"> </text>
<text x="4" y="-215.2" font-family="Consolas" font-size="11">+</text>
<text x="15" y="-215.2" font-family="Consolas" font-size="11">Criterion()</text>
<text x="4" y="-199.2" font-family="Consolas" font-size="11">+</text>
<text x="15" y="-199.2" font-family="Consolas" font-size="11">set_step_tag()</text>
<text x="4" y="-183.2" font-family="Consolas" font-size="11">+</text>
<text x="15" y="-183.2" font-family="Consolas" font-size="11">get_step_tag()</text>
<text x="4" y="-167.2" font-family="Consolas" font-size="11">+</text>
<text x="15" y="-167.2" font-family="Consolas" font-size="11">unique_copy()</text>
<text x="4" y="-151.2" font-family="Consolas" font-size="11">+</text>
<text x="15" y="-151.2" font-family="Consolas" font-size="11">initialize()</text>
<text x="4" y="-135.2" font-family="Consolas" font-size="11">+</text>
<text x="15" y="-135.2" font-family="Consolas" font-size="11">process()</text>
<path fill="#666" stroke="#666" d="M0-242h114z"/>
<path fill="#666" stroke="#666" d="M0-226h114z"/>
<path fill="none" stroke="#666" d="M0-128v-132h114v132z"/>
</a></g><g class="edge"><title>Node2-&gt;Node1</title><a>
<path fill="none" stroke="#63b8ff" d="M111.84-119.57c13.48 18.05 27.25 36.48 38.47 51.52"/>
<path fill="none" stroke="#63b8ff" d="m108.86-117.72-3.18-10.1 8.78 5.91z"/>
</a></g><g class="node"><title>Node3</title><a xlink:href="../../d7/d1d/class_copyable_tag.html" xlink:title="Label objects that can be copied." target="_top">
<path fill="#fff" stroke="transparent" d="M114-461H0v164h114z"/>
<text x="19.5" y="-448.2" font-family="Consolas" font-size="11">CopyableTag</text>
<text x="53.5" y="-432.2" font-family="Consolas" font-size="11"> </text>
<text x="4" y="-416.2" font-family="Consolas" font-size="11">+</text>
<text x="15" y="-416.2" font-family="Consolas" font-size="11">CopyableTag()</text>
<text x="4" y="-400.2" font-family="Consolas" font-size="11">+</text>
<text x="15" y="-400.2" font-family="Consolas" font-size="11">CopyableTag()</text>
<text x="4" y="-384.2" font-family="Consolas" font-size="11">+</text>
<text x="15" y="-384.2" font-family="Consolas" font-size="11">operator=()</text>
<text x="4" y="-368.2" font-family="Consolas" font-size="11">+</text>
<text x="15" y="-368.2" font-family="Consolas" font-size="11">operator=()</text>
<text x="4" y="-352.2" font-family="Consolas" font-size="11">+</text>
<text x="15" y="-352.2" font-family="Consolas" font-size="11">~CopyableTag()</text>
<text x="4" y="-336.2" font-family="Consolas" font-size="11">+</text>
<text x="15" y="-336.2" font-family="Consolas" font-size="11">Tag()</text>
<text x="4" y="-320.2" font-family="Consolas" font-size="11">+</text>
<text x="15" y="-320.2" font-family="Consolas" font-size="11">Tag()</text>
<text x="4" y="-304.2" font-family="Consolas" font-size="11">+</text>
<text x="15" y="-304.2" font-family="Consolas" font-size="11">Tag()</text>
<path fill="#666" stroke="#666" d="M0-443h114z"/>
<path fill="#666" stroke="#666" d="M0-427h114z"/>
<path fill="none" stroke="#666" d="M0-297v-164h114v164z"/>
</a></g><g class="edge"><title>Node3-&gt;Node2</title><a>
<path fill="none" stroke="#63b8ff" d="M57-286.78v26.7"/>
<path fill="none" stroke="#63b8ff" d="m53.5-286.93 3.5-10 3.5 10z"/>
</a></g><g class="node"><title>Node4</title><a xlink:href="../../d0/d57/class_tag.html" xlink:title="A base Tag class." target="_top">
<path fill="#fff" stroke="transparent" d="M107.5-774H6.5v276h101z"/>
<text x="47" y="-761.2" font-family="Consolas" font-size="11">Tag</text>
<text x="54" y="-745.2" font-family="Consolas" font-size="11"> </text>
<text x="11" y="-729.2" font-family="Consolas" font-size="11">+</text>
<text x="22" y="-729.2" font-family="Consolas" font-size="11">Tag()</text>
<text x="11" y="-713.2" font-family="Consolas" font-size="11">+</text>
<text x="22" y="-713.2" font-family="Consolas" font-size="11">Tag()</text>
<text x="11" y="-697.2" font-family="Consolas" font-size="11">+</text>
<text x="22" y="-697.2" font-family="Consolas" font-size="11">Tag()</text>
<text x="11" y="-681.2" font-family="Consolas" font-size="11">+</text>
<text x="22" y="-681.2" font-family="Consolas" font-size="11">operator=()</text>
<text x="11" y="-665.2" font-family="Consolas" font-size="11">+</text>
<text x="22" y="-665.2" font-family="Consolas" font-size="11">operator=()</text>
<text x="11" y="-649.2" font-family="Consolas" font-size="11">+</text>
<text x="22" y="-649.2" font-family="Consolas" font-size="11">~Tag()</text>
<text x="11" y="-633.2" font-family="Consolas" font-size="11">+</text>
<text x="22" y="-633.2" font-family="Consolas" font-size="11">set_tag()</text>
<text x="11" y="-617.2" font-family="Consolas" font-size="11">+</text>
<text x="22" y="-617.2" font-family="Consolas" font-size="11">get_tag()</text>
<text x="11" y="-601.2" font-family="Consolas" font-size="11">+</text>
<text x="22" y="-601.2" font-family="Consolas" font-size="11">enable()</text>
<text x="11" y="-585.2" font-family="Consolas" font-size="11">+</text>
<text x="22" y="-585.2" font-family="Consolas" font-size="11">disable()</text>
<text x="11" y="-569.2" font-family="Consolas" font-size="11">+</text>
<text x="22" y="-569.2" font-family="Consolas" font-size="11">guard()</text>
<text x="11" y="-553.2" font-family="Consolas" font-size="11">+</text>
<text x="22" y="-553.2" font-family="Consolas" font-size="11">unguard()</text>
<text x="11" y="-537.2" font-family="Consolas" font-size="11">+</text>
<text x="22" y="-537.2" font-family="Consolas" font-size="11">is_active()</text>
<text x="11" y="-521.2" font-family="Consolas" font-size="11">+</text>
<text x="22" y="-521.2" font-family="Consolas" font-size="11">is_guarded()</text>
<text x="11" y="-505.2" font-family="Consolas" font-size="11">+</text>
<text x="22" y="-505.2" font-family="Consolas" font-size="11">print()</text>
<path fill="#666" stroke="#666" d="M7-756h101z"/>
<path fill="#666" stroke="#666" d="M7-740h101z"/>
<path fill="none" stroke="#666" d="M6.5-498v-276h101v276z"/>
</a></g><g class="edge"><title>Node4-&gt;Node3</title><a>
<path fill="none" stroke="#63b8ff" d="M57-487.58v26.41"/>
<path fill="none" stroke="#63b8ff" d="m53.5-487.8 3.5-10 3.5 10z"/>
</a></g><g class="node"><title>Node5</title><a>
<path fill="#fff" stroke="transparent" d="M298-220H132v52h166z"/>
<text x="137" y="-207.2" font-family="Consolas" font-size="11">shared_ptr&lt; Criterion &gt;</text>
<text x="211.5" y="-191.2" font-family="Consolas" font-size="11"> </text>
<text x="211.5" y="-175.2" font-family="Consolas" font-size="11"> </text>
<path fill="#666" stroke="#666" d="M132-202h166z"/>
<path fill="#666" stroke="#666" d="M132-186h166z"/>
<path fill="none" stroke="#666" d="M132-168v-52h166v52z"/>
</a></g><g class="edge"><title>Node5-&gt;Node1</title><a>
<path fill="none" stroke="#63b8ff" d="M208.66-167.96c-5.97 23.6-15.07 59.51-22.29 88.07"/>
<path fill="none" stroke="#63b8ff" d="m186.34-79.8-5.35 4.84 2.41 6.8 5.35-4.84z"/>
</a><text x="237" y="-101.2" fill="gray" font-family="Consolas" font-size="11" text-anchor="middle"> #criterion_a</text><text x="237" y="-89.2" fill="gray" font-family="Consolas" font-size="11" text-anchor="middle">#criterion_b</text></g></g></svg>