<?xml version="1.0" encoding="UTF-8" standalone="no"?>
<!DOCTYPE svg PUBLIC "-//W3C//DTD SVG 1.1//EN"
 "http://www.w3.org/Graphics/SVG/1.1/DTD/svg11.dtd">
<!-- Generated by graphviz version 2.43.0 (0)
 -->
<!-- Title: triplet_form::assemble Pages: 1 -->
<svg width="374pt" height="218pt"
 viewBox="0.00 0.00 374.00 218.00" xmlns="http://www.w3.org/2000/svg" xmlns:xlink="http://www.w3.org/1999/xlink">
<g id="graph0" class="graph" transform="scale(1 1) rotate(0) translate(4 214)">
<title>triplet_form::assemble</title>
<!-- Node1 -->
<g id="Node000001" class="node">
<title>Node1</title>
<g id="a_Node000001"><a xlink:title=" ">
<polygon fill="#999999" stroke="#666666" points="366,-115 201,-115 201,-95 366,-95 366,-115"/>
<text text-anchor="middle" x="283.5" y="-102.2" font-family="Consolas" font-size="11.00">triplet_form::assemble</text>
</a>
</g>
</g>
<!-- Node2 -->
<g id="Node000002" class="node">
<title>Node2</title>
<g id="a_Node000002"><a xlink:href="../../db/d78/classtriplet__form.html#ad2032be5942e6880a054251fea509548" target="_top" xlink:title=" ">
<polygon fill="white" stroke="#666666" points="165,-210 0,-210 0,-190 165,-190 165,-210"/>
<text text-anchor="middle" x="82.5" y="-197.2" font-family="Consolas" font-size="11.00">triplet_form::assemble</text>
</a>
</g>
</g>
<!-- Node1&#45;&gt;Node2 -->
<g id="edge1_Node000001_Node000002" class="edge">
<title>Node1&#45;&gt;Node2</title>
<g id="a_edge1_Node000001_Node000002"><a xlink:title=" ">
<path fill="none" stroke="#63b8ff" d="M261.81,-121.57C239.27,-138.84 201.52,-165.49 165,-181 156.58,-184.58 147.36,-187.55 138.26,-189.99"/>
<polygon fill="#63b8ff" stroke="#63b8ff" points="264.2,-124.14 269.95,-115.24 259.9,-118.62 264.2,-124.14"/>
</a>
</g>
</g>
<!-- Node3 -->
<g id="Node000003" class="node">
<title>Node3</title>
<g id="a_Node000003"><a xlink:href="../../d5/d13/class_sparse_mat.html#a7a729d8ab3eb0aec8641316324f85ee3" target="_top" xlink:title=" ">
<polygon fill="white" stroke="#666666" points="161.5,-172 3.5,-172 3.5,-152 161.5,-152 161.5,-172"/>
<text text-anchor="middle" x="82.5" y="-159.2" font-family="Consolas" font-size="11.00">SparseMat::scale_accu</text>
</a>
</g>
</g>
<!-- Node1&#45;&gt;Node3 -->
<g id="edge2_Node000001_Node000003" class="edge">
<title>Node1&#45;&gt;Node3</title>
<g id="a_edge2_Node000001_Node000003"><a xlink:title=" ">
<path fill="none" stroke="#63b8ff" d="M244.07,-118.33C221.24,-126.02 191.63,-135.6 165,-143 153.66,-146.15 141.34,-149.21 129.79,-151.92"/>
<polygon fill="#63b8ff" stroke="#63b8ff" points="245.39,-121.58 253.73,-115.05 243.14,-114.95 245.39,-121.58"/>
</a>
</g>
</g>
<!-- Node4 -->
<g id="Node000004" class="node">
<title>Node4</title>
<g id="a_Node000004"><a xlink:href="../../de/da5/_test_matrix_8cpp.html#a9d186fda5c8131978f3b427034559344" target="_top" xlink:title=" ">
<polygon fill="white" stroke="#666666" points="121,-134 44,-134 44,-114 121,-114 121,-134"/>
<text text-anchor="middle" x="82.5" y="-121.2" font-family="Consolas" font-size="11.00">TEST_CASE</text>
</a>
</g>
</g>
<!-- Node1&#45;&gt;Node4 -->
<g id="edge3_Node000001_Node000004" class="edge">
<title>Node1&#45;&gt;Node4</title>
<g id="a_edge3_Node000001_Node000004"><a xlink:title=" ">
<path fill="none" stroke="#63b8ff" d="M190.86,-113.75C166.22,-116.1 140.94,-118.52 121.11,-120.41"/>
<polygon fill="#63b8ff" stroke="#63b8ff" points="191.36,-117.22 200.98,-112.78 190.7,-110.25 191.36,-117.22"/>
</a>
</g>
</g>
<!-- Node5 -->
<g id="Node000005" class="node">
<title>Node5</title>
<g id="a_Node000005"><a xlink:href="../../de/da5/_test_matrix_8cpp.html#a8cb60efbfa2917c54d63467ede173c58" target="_top" xlink:title=" ">
<polygon fill="white" stroke="#666666" points="121,-96 44,-96 44,-76 121,-76 121,-96"/>
<text text-anchor="middle" x="82.5" y="-83.2" font-family="Consolas" font-size="11.00">TEST_CASE</text>
</a>
</g>
</g>
<!-- Node1&#45;&gt;Node5 -->
<g id="edge4_Node000001_Node000005" class="edge">
<title>Node1&#45;&gt;Node5</title>
<g id="a_edge4_Node000001_Node000005"><a xlink:title=" ">
<path fill="none" stroke="#63b8ff" d="M190.86,-96.25C166.22,-93.9 140.94,-91.48 121.11,-89.59"/>
<polygon fill="#63b8ff" stroke="#63b8ff" points="190.7,-99.75 200.98,-97.22 191.36,-92.78 190.7,-99.75"/>
</a>
</g>
</g>
<!-- Node6 -->
<g id="Node000006" class="node">
<title>Node6</title>
<g id="a_Node000006"><a xlink:href="../../de/da5/_test_matrix_8cpp.html#abe1486690d42c35718c38b1588fccdc3" target="_top" xlink:title=" ">
<polygon fill="white" stroke="#666666" points="121,-58 44,-58 44,-38 121,-38 121,-58"/>
<text text-anchor="middle" x="82.5" y="-45.2" font-family="Consolas" font-size="11.00">TEST_CASE</text>
</a>
</g>
</g>
<!-- Node1&#45;&gt;Node6 -->
<g id="edge5_Node000001_Node000006" class="edge">
<title>Node1&#45;&gt;Node6</title>
<g id="a_edge5_Node000001_Node000006"><a xlink:title=" ">
<path fill="none" stroke="#63b8ff" d="M244.07,-91.67C221.24,-83.98 191.63,-74.4 165,-67 150.86,-63.07 135.19,-59.29 121.4,-56.14"/>
<polygon fill="#63b8ff" stroke="#63b8ff" points="243.14,-95.05 253.73,-94.95 245.39,-88.42 243.14,-95.05"/>
</a>
</g>
</g>
<!-- Node7 -->
<g id="Node000007" class="node">
<title>Node7</title>
<g id="a_Node000007"><a xlink:href="../../de/da5/_test_matrix_8cpp.html#a619d91479dd4fc7043266389f1e45b7f" target="_top" xlink:title=" ">
<polygon fill="white" stroke="#666666" points="121,-20 44,-20 44,0 121,0 121,-20"/>
<text text-anchor="middle" x="82.5" y="-7.2" font-family="Consolas" font-size="11.00">TEST_CASE</text>
</a>
</g>
</g>
<!-- Node1&#45;&gt;Node7 -->
<g id="edge6_Node000001_Node000007" class="edge">
<title>Node1&#45;&gt;Node7</title>
<g id="a_edge6_Node000001_Node000007"><a xlink:title=" ">
<path fill="none" stroke="#63b8ff" d="M261.81,-88.43C239.27,-71.16 201.52,-44.51 165,-29 151.23,-23.15 135.34,-18.93 121.28,-15.98"/>
<polygon fill="#63b8ff" stroke="#63b8ff" points="259.9,-91.38 269.95,-94.76 264.2,-85.86 259.9,-91.38"/>
</a>
</g>
</g>
</g>
</svg>
