<svg xmlns="http://www.w3.org/2000/svg" xmlns:xlink="http://www.w3.org/1999/xlink" xml:space="preserve" id="main" onload="init(evt)"><style>.edge,.node,[data-mouse-over-selected=false]{opacity:.7}.edge.selected,.node.selected,[data-mouse-over-selected=true]{opacity:1}.edge:hover path{stroke:red}.edge:hover polygon{stroke:red;fill:red}</style><defs><g id="zoomPlus"><use xlink:href="#rim" fill="#404040"><set attributeName="fill" begin="zoomplus.mouseover" end="zoomplus.mouseout" to="#808080"/></use><path fill="none" stroke="#fff" stroke-width="1.5" d="M-4 0h8M0-4v8" pointer-events="none"/></g><g id="zoomMin"><use xlink:href="#rim" fill="#404040"><set attributeName="fill" begin="zoomminus.mouseover" end="zoomminus.mouseout" to="#808080"/></use><path fill="none" stroke="#fff" stroke-width="1.5" d="M-4 0h8" pointer-events="none"/></g><g id="arrowUp" transform="translate(30 24)"><use xlink:href="#rim"/><path fill="none" stroke="#fff" stroke-width="1.5" d="M0-3v7M-2.5-.5 0-3 2.5-.5" pointer-events="none"/></g><g id="arrowRight" transform="rotate(90 3.5 39.5)"><use xlink:href="#rim"/><path fill="none" stroke="#fff" stroke-width="1.5" d="M0-3v7M-2.5-.5 0-3 2.5-.5" pointer-events="none"/></g><g id="arrowDown" transform="matrix(-1 0 0 -1 30 48)"><use xlink:href="#rim"/><path fill="none" stroke="#fff" stroke-width="1.5" d="M0-3v7M-2.5-.5 0-3 2.5-.5" pointer-events="none"/></g><g id="arrowLeft" transform="rotate(-90 26.5 9.5)"><use xlink:href="#rim"/><path fill="none" stroke="#fff" stroke-width="1.5" d="M0-3v7M-2.5-.5 0-3 2.5-.5" pointer-events="none"/></g><circle id="rim" cx="0" cy="0" r="7"/><circle id="rim2" cx="0" cy="0" r="3.5"/><use xlink:href="#rim2" id="resetDef" fill="#404040"><set attributeName="fill" begin="reset.mouseover" end="reset.mouseout" to="#808080"/></use></defs><script type="application/ecmascript">var viewWidth = 541;
var viewHeight = 326;
var sectionId = &apos;dynsection-2&apos;;</script><script xlink:href="../../svg.min.js" type="application/ecmascript"/><svg id="graph" class="graph"><g id="viewport"><title>DKTS3::initialize</title><g id="Node000001" class="node"><title>Node1</title><a id="a_Node000001">
<path fill="#999" stroke="#666" d="M131-152H0v20h131z"/>
<text x="65.5" y="-139.2" font-family="Consolas" font-size="11" text-anchor="middle">DKTS3::initialize</text>
</a></g><g id="Node000002" class="node"><title>Node2</title><a xlink:href="../../d7/d11/class_shell_base.html#a40b3034fd8c6713dc066bb2f5671d256" id="a_Node000002" target="_top">
<path fill="#fff" stroke="#666" d="M322-296H170v32h152z"/>
<text x="178" y="-283.2" font-family="Consolas" font-size="11">ShellBase::direction</text>
<text x="246" y="-271.2" font-family="Consolas" font-size="11" text-anchor="middle">_cosine</text>
</a></g><g id="edge1_Node000001_Node000002" class="edge"><title>Node1-&gt;Node2</title><a id="a_edge1_Node000001_Node000002">
<path fill="none" stroke="#63b8ff" d="M72.72-152.07C86.77-174.03 123.21-226.5 167-255c2.46-1.6 5.03-3.1 7.67-4.52"/>
<path fill="#63b8ff" stroke="#63b8ff" d="m173.38-262.78 10.53-1.2-7.48 7.5z"/>
</a></g><g id="Node000006" class="node"><title>Node6</title><a xlink:href="../../d5/d50/class_element.html#a4d1dcdafc45a94952099d19d476e6486" id="a_Node000006" target="_top">
<path fill="#fff" stroke="#666" d="M295-246h-98v20h98z"/>
<text x="246" y="-233.2" font-family="Consolas" font-size="11" text-anchor="middle">Element::get</text>
</a></g><g id="edge6_Node000001_Node000006" class="edge"><title>Node1-&gt;Node6</title><a id="a_edge6_Node000001_Node000006">
<path fill="none" stroke="#63b8ff" d="M76.99-152.15C94.3-168.32 130.56-199.84 167-217c6.27-2.95 13.05-5.47 19.9-7.62"/>
<path fill="#63b8ff" stroke="#63b8ff" d="m186.36-228.11 10.57.6-8.64 6.13z"/>
</a></g><g id="Node000007" class="node"><title>Node7</title><a xlink:href="../../dc/dee/class_material.html#a7ee1a5e060b0dd313f95d1afa6a71db8" id="a_Node000007" target="_top">
<path fill="#fff" stroke="#666" d="M325-208H167v32h158z"/>
<text x="175" y="-195.2" font-family="Consolas" font-size="11">Material::get_initial</text>
<text x="246" y="-183.2" font-family="Consolas" font-size="11" text-anchor="middle">_stiffness</text>
</a></g><g id="edge7_Node000001_Node000007" class="edge"><title>Node1-&gt;Node7</title><a id="a_edge7_Node000001_Node000007">
<path fill="none" stroke="#63b8ff" d="M102.62-152.12c21.68-6.07 49.94-13.99 75.56-21.16"/>
<path fill="#63b8ff" stroke="#63b8ff" d="m177.27-176.66 10.58.67-8.69 6.07z"/>
</a></g><g id="Node000008" class="node"><title>Node8</title><a xlink:href="../../d7/d11/class_shell_base.html#a9ab75105a1e00aa67515fcc9f899cbf5" id="a_Node000008" target="_top">
<path fill="#fff" stroke="#666" d="M322-158H170v32h152z"/>
<text x="178" y="-145.2" font-family="Consolas" font-size="11">ShellBase::get_local</text>
<text x="246" y="-133.2" font-family="Consolas" font-size="11" text-anchor="middle">_coordinate</text>
</a></g><g id="edge8_Node000001_Node000008" class="edge"><title>Node1-&gt;Node8</title><a id="a_edge8_Node000001_Node000008">
<path fill="none" stroke="#63b8ff" d="M131.19-142h28.71"/>
<path fill="#63b8ff" stroke="#63b8ff" d="m159.92-145.5 10 3.5-10 3.5z"/>
</a></g><g id="Node000009" class="node"><title>Node9</title><a xlink:href="../../d7/d11/class_shell_base.html#abee56f00639fd9b582dff0e940d0b6c6" id="a_Node000009" target="_top">
<path fill="#fff" stroke="#666" d="M322-108H170v20h152z"/>
<text x="246" y="-95.2" font-family="Consolas" font-size="11" text-anchor="middle">ShellBase::reshuffle</text>
</a></g><g id="edge10_Node000001_Node000009" class="edge"><title>Node1-&gt;Node9</title><a id="a_edge10_Node000001_Node000009">
<path fill="none" stroke="#63b8ff" d="M106.59-131.98c18.4 4.59 40.51 10.08 60.41 14.98 8.65 2.13 17.85 4.38 26.78 6.56"/>
<path fill="#63b8ff" stroke="#63b8ff" d="m194.81-113.79 8.89 5.77-10.54 1.03z"/>
</a></g><g id="Node000011" class="node"><title>Node11</title><a xlink:href="../../d7/d11/class_shell_base.html#a39ba7bfba807e070e613d3cd7276ebc2" id="a_Node000011" target="_top">
<path fill="#fff" stroke="#666" d="M325-70H167v32h158z"/>
<text x="175" y="-57.2" font-family="Consolas" font-size="11">ShellBase::transform</text>
<text x="246" y="-45.2" font-family="Consolas" font-size="11" text-anchor="middle">_from_local_to_global</text>
</a></g><g id="edge12_Node000001_Node000011" class="edge"><title>Node1-&gt;Node11</title><a id="a_edge12_Node000001_Node000011">
<path fill="none" stroke="#63b8ff" d="M80.18-131.86C98.96-118.32 134.13-94.28 167-79c4.03 1.87 8.23 3.66 12.51 5.35"/>
<path fill="#63b8ff" stroke="#63b8ff" d="m180.83-76.89 8.12 6.8-10.59-.25z"/>
</a></g><g id="Node000012" class="node"><title>Node12</title><a xlink:href="../../d3/d55/namespaceshape.html#a83283f94b58a9b16dbe87e505d730d4c" id="a_Node000012" target="_top">
<path fill="#fff" stroke="#666" d="M305-20H187V0h118z"/>
<text x="246" y="-7.2" font-family="Consolas" font-size="11" text-anchor="middle">shape::triangle</text>
</a></g><g id="edge13_Node000001_Node000012" class="edge"><title>Node1-&gt;Node12</title><a id="a_edge13_Node000001_Node000012">
<path fill="none" stroke="#63b8ff" d="M72.57-131.69C86.33-109.27 122.23-55.92 167-29c3.24 1.95 6.66 3.69 10.2 5.26"/>
<path fill="#63b8ff" stroke="#63b8ff" d="m178.74-26.9 8.03 6.91-10.59-.39z"/>
</a></g><g id="Node000003" class="node"><title>Node3</title><a xlink:href="../../d5/d50/class_element.html#acd9484983e85bf9bfa1ad3d34246c19c" id="a_Node000003" target="_top">
<path fill="#fff" stroke="#666" d="M533-193H361v20h172z"/>
<text x="447" y="-180.2" font-family="Consolas" font-size="11" text-anchor="middle">Element::get_coordinate</text>
</a></g><g id="edge2_Node000002_Node000003" class="edge"><title>Node2-&gt;Node3</title><a id="a_edge2_Node000002_Node000003">
<path fill="none" stroke="#63b8ff" d="M302.56-263.91c7.64 2.71 15.31 5.7 22.44 8.91 35.77 16.12 74.25 40.33 97.98 56.15"/>
<path fill="#63b8ff" stroke="#63b8ff" d="m424.98-201.73 6.34 8.49-10.25-2.68z"/>
</a></g><g id="Node000004" class="node"><title>Node4</title><a xlink:href="../../d5/d50/class_element.html#aa391524fad4d0d9791637db2679ef7d0" id="a_Node000004" target="_top">
<path fill="#fff" stroke="#666" d="M516-318H378v32h138z"/>
<text x="386" y="-305.2" font-family="Consolas" font-size="11">Element::get_trial</text>
<text x="447" y="-293.2" font-family="Consolas" font-size="11" text-anchor="middle">_displacement</text>
</a></g><g id="edge4_Node000002_Node000004" class="edge"><title>Node2-&gt;Node4</title><a id="a_edge4_Node000002_Node000004">
<path fill="none" stroke="#63b8ff" d="M322.23-288.32c14.85-1.64 30.46-3.36 45.41-5.02"/>
<path fill="#63b8ff" stroke="#63b8ff" d="m367.54-296.85 10.32 2.38-9.56 4.58z"/>
</a></g><g id="Node000005" class="node"><title>Node5</title><a xlink:href="../../d5/d50/class_element.html#a901da916385f38921914dbe62c559028" id="a_Node000005" target="_top">
<path fill="#fff" stroke="#666" d="M516-268H378v20h138z"/>
<text x="447" y="-255.2" font-family="Consolas" font-size="11" text-anchor="middle">Element::is_nlgeom</text>
</a></g><g id="edge5_Node000002_Node000005" class="edge"><title>Node2-&gt;Node5</title><a id="a_edge5_Node000002_Node000005">
<path fill="none" stroke="#63b8ff" d="M322.23-271.68c14.85 1.64 30.46 3.36 45.41 5.02"/>
<path fill="#63b8ff" stroke="#63b8ff" d="m368.3-270.11 9.56 4.58-10.32 2.38z"/>
</a></g><g id="edge3_Node000003_Node000003" class="edge"><title>Node3-&gt;Node3</title><a id="a_edge3_Node000003_Node000003">
<path fill="none" stroke="#63b8ff" d="M415.69-193.05C401.41-201.77 411.84-211 447-211c24.17 0 36.66 4.36 37.46 9.92"/>
<path fill="#63b8ff" stroke="#63b8ff" d="m487.17-198.86-8.86 5.81 3.3-10.07z"/>
</a></g><g id="edge9_Node000008_Node000003" class="edge"><title>Node8-&gt;Node3</title><a id="a_edge9_Node000008_Node000003">
<path fill="none" stroke="#63b8ff" d="M322.23-157.5c21.47-4.42 44.54-9.18 64.88-13.37"/>
<path fill="#63b8ff" stroke="#63b8ff" d="m386.67-174.35 10.5 1.41-9.09 5.45z"/>
</a></g><g id="Node000010" class="node"><title>Node10</title><a xlink:href="../../d8/d8f/suan_pan_8h.html#a1dedfe8914d601833d703818541d3b29" id="a_Node000010" target="_top">
<path fill="#fff" stroke="#666" d="M502.5-108h-111v20h111z"/>
<text x="447" y="-95.2" font-family="Consolas" font-size="11" text-anchor="middle">suanpan_assert</text>
</a></g><g id="edge11_Node000009_Node000010" class="edge"><title>Node9-&gt;Node10</title><a id="a_edge11_Node000009_Node000010">
<path fill="none" stroke="#63b8ff" d="M322.23-98h58.96"/>
<path fill="#63b8ff" stroke="#63b8ff" d="m381.44-101.5 10 3.5-10 3.5z"/>
</a></g></g></svg><g id="navigator" fill="#404254"><path fill="#f2f5e9" fill-opacity=".5" stroke="#606060" stroke-width=".5" d="M0 0h60v60H0z"/><use xlink:href="#zoomPlus" id="zoomplus" x="17" y="9" onmousedown="handleZoom(evt,'in')"/><use xlink:href="#zoomMin" id="zoomminus" x="42" y="9" onmousedown="handleZoom(evt,'out')"/><use xlink:href="#resetDef" id="reset" x="30" y="36" onmousedown="handleReset()"/><use xlink:href="#arrowUp" id="arrowup" x="0" y="0" onmousedown="handlePan(0,-1)"/><use xlink:href="#arrowRight" id="arrowright" x="0" y="0" onmousedown="handlePan(1,0)"/><use xlink:href="#arrowDown" id="arrowdown" x="0" y="0" onmousedown="handlePan(0,1)"/><use xlink:href="#arrowLeft" id="arrowleft" x="0" y="0" onmousedown="handlePan(-1,0)"/></g><svg height="30" preserveAspectRatio="xMaxYMin meet" viewBox="0 0 15 15"><a xlink:href="class_d_k_t_s3_ac0931c9fb004053badf63fc1844b0eac_cgraph_org.svg" id="arrow_out" target="_base" transform="scale(.3)">
   <rect id="button" width="38" height="38" x="6" y="6" fill="#f2f5e9" fill-opacity=".5" stroke="#606060" stroke-width="1" rx="5" ry="5"/>
   <path id="arrow" d="M11.5 31.437c.44-11.34 10.543-20.114 20.659-9.458l4.91-4.733.02 14.754-14.929-.022 4.838-4.838c-8.47-8.876-13.706-1.91-15.498 4.297" style="fill:#404040"/>
  </a></svg><script type="application/ecmascript"><![CDATA[
document.addEventListener('DOMContentLoaded', (event) => {
  highlightEdges();
  highlightAdjacentNodes();
});
]]></script></svg>