<?xml version="1.0" encoding="UTF-8" standalone="no"?>
<!DOCTYPE svg PUBLIC "-//W3C//DTD SVG 1.1//EN"
 "http://www.w3.org/Graphics/SVG/1.1/DTD/svg11.dtd">
<!-- Generated by graphviz version 2.43.0 (0)
 -->
<!-- Title: Toolbox/Converter.cpp Pages: 1 -->
<svg width="700pt" height="196pt"
 viewBox="0.00 0.00 700.00 196.00" xmlns="http://www.w3.org/2000/svg" xmlns:xlink="http://www.w3.org/1999/xlink">
<g id="graph0" class="graph" transform="scale(1 1) rotate(0) translate(4 192)">
<title>Toolbox/Converter.cpp</title>
<!-- Node1 -->
<g id="Node000001" class="node">
<title>Node1</title>
<g id="a_Node000001"><a xlink:title=" ">
<polygon fill="#999999" stroke="#666666" points="451.5,-188 293.5,-188 293.5,-168 451.5,-168 451.5,-188"/>
<text text-anchor="middle" x="372.5" y="-175.2" font-family="Consolas" font-size="11.00">Toolbox/Converter.cpp</text>
</a>
</g>
</g>
<!-- Node2 -->
<g id="Node000002" class="node">
<title>Node2</title>
<g id="a_Node000002"><a xlink:href="../../df/d49/_converter_8h.html" target="_top" xlink:title=" ">
<polygon fill="white" stroke="#666666" points="231,-132 140,-132 140,-112 231,-112 231,-132"/>
<text text-anchor="middle" x="185.5" y="-119.2" font-family="Consolas" font-size="11.00">Converter.h</text>
</a>
</g>
</g>
<!-- Node1&#45;&gt;Node2 -->
<g id="edge1_Node000001_Node000002" class="edge">
<title>Node1&#45;&gt;Node2</title>
<g id="a_edge1_Node000001_Node000002"><a xlink:title=" ">
<path fill="none" stroke="#63b8ff" d="M341.2,-167.96C309.78,-158.89 261.22,-144.86 226.69,-134.89"/>
<polygon fill="#63b8ff" stroke="#63b8ff" points="227.48,-131.48 216.9,-132.07 225.54,-138.2 227.48,-131.48"/>
</a>
</g>
</g>
<!-- Node5 -->
<g id="Node000005" class="node">
<title>Node5</title>
<g id="a_Node000005"><a xlink:href="../../d5/d47/utility_8h.html" target="_top" xlink:title=" ">
<polygon fill="white" stroke="#666666" points="380,-132 249,-132 249,-112 380,-112 380,-132"/>
<text text-anchor="middle" x="314.5" y="-119.2" font-family="Consolas" font-size="11.00">Toolbox/utility.h</text>
</a>
</g>
</g>
<!-- Node1&#45;&gt;Node5 -->
<g id="edge4_Node000001_Node000005" class="edge">
<title>Node1&#45;&gt;Node5</title>
<g id="a_edge4_Node000001_Node000005"><a xlink:title=" ">
<path fill="none" stroke="#63b8ff" d="M362.66,-167.84C354.19,-159.96 341.78,-148.4 331.68,-139"/>
<polygon fill="#63b8ff" stroke="#63b8ff" points="333.9,-136.28 324.19,-132.03 329.13,-141.4 333.9,-136.28"/>
</a>
</g>
</g>
<!-- Node15 -->
<g id="Node000015" class="node">
<title>Node15</title>
<g id="a_Node000015"><a xlink:title=" ">
<polygon fill="#e0e0e0" stroke="#999999" points="462.5,-132 398.5,-132 398.5,-112 462.5,-112 462.5,-132"/>
<text text-anchor="middle" x="430.5" y="-119.2" font-family="Consolas" font-size="11.00">iomanip</text>
</a>
</g>
</g>
<!-- Node1&#45;&gt;Node15 -->
<g id="edge14_Node000001_Node000015" class="edge">
<title>Node1&#45;&gt;Node15</title>
<g id="a_edge14_Node000001_Node000015"><a xlink:title=" ">
<path fill="none" stroke="#63b8ff" d="M382.34,-167.84C390.81,-159.96 403.22,-148.4 413.32,-139"/>
<polygon fill="#63b8ff" stroke="#63b8ff" points="415.87,-141.4 420.81,-132.03 411.1,-136.28 415.87,-141.4"/>
</a>
</g>
</g>
<!-- Node16 -->
<g id="Node000016" class="node">
<title>Node16</title>
<g id="a_Node000016"><a xlink:title=" ">
<polygon fill="#e0e0e0" stroke="#999999" points="544.5,-132 480.5,-132 480.5,-112 544.5,-112 544.5,-132"/>
<text text-anchor="middle" x="512.5" y="-119.2" font-family="Consolas" font-size="11.00">sstream</text>
</a>
</g>
</g>
<!-- Node1&#45;&gt;Node16 -->
<g id="edge15_Node000001_Node000016" class="edge">
<title>Node1&#45;&gt;Node16</title>
<g id="a_edge15_Node000001_Node000016"><a xlink:title=" ">
<path fill="none" stroke="#63b8ff" d="M395.93,-167.96C418.85,-159.12 453.95,-145.58 479.65,-135.67"/>
<polygon fill="#63b8ff" stroke="#63b8ff" points="480.92,-138.93 488.99,-132.07 478.4,-132.4 480.92,-138.93"/>
</a>
</g>
</g>
<!-- Node3 -->
<g id="Node000003" class="node">
<title>Node3</title>
<g id="a_Node000003"><a xlink:title=" ">
<polygon fill="#e0e0e0" stroke="#999999" points="121.5,-76 57.5,-76 57.5,-56 121.5,-56 121.5,-76"/>
<text text-anchor="middle" x="89.5" y="-63.2" font-family="Consolas" font-size="11.00">fstream</text>
</a>
</g>
</g>
<!-- Node2&#45;&gt;Node3 -->
<g id="edge2_Node000002_Node000003" class="edge">
<title>Node2&#45;&gt;Node3</title>
<g id="a_edge2_Node000002_Node000003"><a xlink:title=" ">
<path fill="none" stroke="#63b8ff" d="M169.21,-111.84C154.23,-103.41 131.78,-90.78 114.52,-81.07"/>
<polygon fill="#63b8ff" stroke="#63b8ff" points="115.98,-77.88 105.54,-76.03 112.54,-83.98 115.98,-77.88"/>
</a>
</g>
</g>
<!-- Node4 -->
<g id="Node000004" class="node">
<title>Node4</title>
<g id="a_Node000004"><a xlink:title=" ">
<polygon fill="#e0e0e0" stroke="#999999" points="243.5,-76 139.5,-76 139.5,-56 243.5,-56 243.5,-76"/>
<text text-anchor="middle" x="191.5" y="-63.2" font-family="Consolas" font-size="11.00">unordered_map</text>
</a>
</g>
</g>
<!-- Node2&#45;&gt;Node4 -->
<g id="edge3_Node000002_Node000004" class="edge">
<title>Node2&#45;&gt;Node4</title>
<g id="a_edge3_Node000002_Node000004"><a xlink:title=" ">
<path fill="none" stroke="#63b8ff" d="M186.55,-111.59C187.32,-104.63 188.4,-94.89 189.36,-86.29"/>
<polygon fill="#63b8ff" stroke="#63b8ff" points="192.84,-86.62 190.47,-76.3 185.88,-85.85 192.84,-86.62"/>
</a>
</g>
</g>
<!-- Node6 -->
<g id="Node000006" class="node">
<title>Node6</title>
<g id="a_Node000006"><a xlink:title=" ">
<polygon fill="#e0e0e0" stroke="#999999" points="344,-76 273,-76 273,-56 344,-56 344,-76"/>
<text text-anchor="middle" x="308.5" y="-63.2" font-family="Consolas" font-size="11.00">concepts</text>
</a>
</g>
</g>
<!-- Node5&#45;&gt;Node6 -->
<g id="edge5_Node000005_Node000006" class="edge">
<title>Node5&#45;&gt;Node6</title>
<g id="a_edge5_Node000005_Node000006"><a xlink:title=" ">
<path fill="none" stroke="#63b8ff" d="M313.45,-111.59C312.68,-104.63 311.6,-94.89 310.64,-86.29"/>
<polygon fill="#63b8ff" stroke="#63b8ff" points="314.12,-85.85 309.53,-76.3 307.16,-86.62 314.12,-85.85"/>
</a>
</g>
</g>
<!-- Node7 -->
<g id="Node000007" class="node">
<title>Node7</title>
<g id="a_Node000007"><a xlink:href="../../d8/d8f/suan_pan_8h.html" target="_top" xlink:title=" ">
<polygon fill="white" stroke="#666666" points="439,-76 362,-76 362,-56 439,-56 439,-76"/>
<text text-anchor="middle" x="400.5" y="-63.2" font-family="Consolas" font-size="11.00">suanPan.h</text>
</a>
</g>
</g>
<!-- Node5&#45;&gt;Node7 -->
<g id="edge6_Node000005_Node000007" class="edge">
<title>Node5&#45;&gt;Node7</title>
<g id="a_edge6_Node000005_Node000007"><a xlink:title=" ">
<path fill="none" stroke="#63b8ff" d="M329.09,-111.84C342.39,-103.49 362.25,-91.02 377.66,-81.34"/>
<polygon fill="#63b8ff" stroke="#63b8ff" points="379.52,-84.31 386.13,-76.03 375.8,-78.38 379.52,-84.31"/>
</a>
</g>
</g>
<!-- Node8 -->
<g id="Node000008" class="node">
<title>Node8</title>
<g id="a_Node000008"><a xlink:title=" ">
<polygon fill="#e0e0e0" stroke="#999999" points="71,-20 0,-20 0,0 71,0 71,-20"/>
<text text-anchor="middle" x="35.5" y="-7.2" font-family="Consolas" font-size="11.00">iostream</text>
</a>
</g>
</g>
<!-- Node7&#45;&gt;Node8 -->
<g id="edge7_Node000007_Node000008" class="edge">
<title>Node7&#45;&gt;Node8</title>
<g id="a_edge7_Node000007_Node000008"><a xlink:title=" ">
<path fill="none" stroke="#63b8ff" d="M361.76,-57.55C358.63,-57 355.51,-56.48 352.5,-56 234.83,-37.22 201.91,-40.1 81.02,-20.16"/>
<polygon fill="#63b8ff" stroke="#63b8ff" points="81.44,-16.68 71,-18.49 80.29,-23.58 81.44,-16.68"/>
</a>
</g>
</g>
<!-- Node9 -->
<g id="Node000009" class="node">
<title>Node9</title>
<g id="a_Node000009"><a xlink:title=" ">
<polygon fill="#e0e0e0" stroke="#999999" points="234,-20 89,-20 89,0 234,0 234,-20"/>
<text text-anchor="middle" x="161.5" y="-7.2" font-family="Consolas" font-size="11.00">armadillo/armadillo</text>
</a>
</g>
</g>
<!-- Node7&#45;&gt;Node9 -->
<g id="edge8_Node000007_Node000009" class="edge">
<title>Node7&#45;&gt;Node9</title>
<g id="a_edge8_Node000007_Node000009"><a xlink:title=" ">
<path fill="none" stroke="#63b8ff" d="M361.83,-56.26C320.93,-47.02 256.25,-32.41 211.5,-22.3"/>
<polygon fill="#63b8ff" stroke="#63b8ff" points="212.23,-18.87 201.71,-20.08 210.69,-25.7 212.23,-18.87"/>
</a>
</g>
</g>
<!-- Node10 -->
<g id="Node000010" class="node">
<title>Node10</title>
<g id="a_Node000010"><a xlink:title=" ">
<polygon fill="#e0e0e0" stroke="#999999" points="336.5,-20 252.5,-20 252.5,0 336.5,0 336.5,-20"/>
<text text-anchor="middle" x="294.5" y="-7.2" font-family="Consolas" font-size="11.00">filesystem</text>
</a>
</g>
</g>
<!-- Node7&#45;&gt;Node10 -->
<g id="edge9_Node000007_Node000010" class="edge">
<title>Node7&#45;&gt;Node10</title>
<g id="a_edge9_Node000007_Node000010"><a xlink:title=" ">
<path fill="none" stroke="#63b8ff" d="M382.52,-55.84C365.74,-47.29 340.49,-34.43 321.34,-24.67"/>
<polygon fill="#63b8ff" stroke="#63b8ff" points="322.72,-21.45 312.22,-20.03 319.54,-27.68 322.72,-21.45"/>
</a>
</g>
</g>
<!-- Node11 -->
<g id="Node000011" class="node">
<title>Node11</title>
<g id="a_Node000011"><a xlink:title=" ">
<polygon fill="#e0e0e0" stroke="#999999" points="446,-20 355,-20 355,0 446,0 446,-20"/>
<text text-anchor="middle" x="400.5" y="-7.2" font-family="Consolas" font-size="11.00">fmt/color.h</text>
</a>
</g>
</g>
<!-- Node7&#45;&gt;Node11 -->
<g id="edge10_Node000007_Node000011" class="edge">
<title>Node7&#45;&gt;Node11</title>
<g id="a_edge10_Node000007_Node000011"><a xlink:title=" ">
<path fill="none" stroke="#63b8ff" d="M400.5,-55.59C400.5,-48.7 400.5,-39.1 400.5,-30.57"/>
<polygon fill="#63b8ff" stroke="#63b8ff" points="404,-30.3 400.5,-20.3 397,-30.3 404,-30.3"/>
</a>
</g>
</g>
<!-- Node12 -->
<g id="Node000012" class="node">
<title>Node12</title>
<g id="a_Node000012"><a xlink:title=" ">
<polygon fill="#e0e0e0" stroke="#999999" points="514.5,-20 464.5,-20 464.5,0 514.5,0 514.5,-20"/>
<text text-anchor="middle" x="489.5" y="-7.2" font-family="Consolas" font-size="11.00">mutex</text>
</a>
</g>
</g>
<!-- Node7&#45;&gt;Node12 -->
<g id="edge11_Node000007_Node000012" class="edge">
<title>Node7&#45;&gt;Node12</title>
<g id="a_edge11_Node000007_Node000012"><a xlink:title=" ">
<path fill="none" stroke="#63b8ff" d="M415.6,-55.84C429.36,-47.49 449.92,-35.02 465.86,-25.34"/>
<polygon fill="#63b8ff" stroke="#63b8ff" points="467.89,-28.2 474.63,-20.03 464.26,-22.22 467.89,-28.2"/>
</a>
</g>
</g>
<!-- Node13 -->
<g id="Node000013" class="node">
<title>Node13</title>
<g id="a_Node000013"><a xlink:title=" ">
<polygon fill="#e0e0e0" stroke="#999999" points="616.5,-20 532.5,-20 532.5,0 616.5,0 616.5,-20"/>
<text text-anchor="middle" x="574.5" y="-7.2" font-family="Consolas" font-size="11.00">functional</text>
</a>
</g>
</g>
<!-- Node7&#45;&gt;Node13 -->
<g id="edge12_Node000007_Node000013" class="edge">
<title>Node7&#45;&gt;Node13</title>
<g id="a_edge12_Node000007_Node000013"><a xlink:title=" ">
<path fill="none" stroke="#63b8ff" d="M429.62,-55.96C458.61,-46.97 503.27,-33.11 535.35,-23.15"/>
<polygon fill="#63b8ff" stroke="#63b8ff" points="536.77,-26.37 545.28,-20.07 534.69,-19.69 536.77,-26.37"/>
</a>
</g>
</g>
<!-- Node14 -->
<g id="Node000014" class="node">
<title>Node14</title>
<g id="a_Node000014"><a xlink:title=" ">
<polygon fill="#e0e0e0" stroke="#999999" points="692,-20 635,-20 635,0 692,0 692,-20"/>
<text text-anchor="middle" x="663.5" y="-7.2" font-family="Consolas" font-size="11.00">memory</text>
</a>
</g>
</g>
<!-- Node7&#45;&gt;Node14 -->
<g id="edge13_Node000007_Node000014" class="edge">
<title>Node7&#45;&gt;Node14</title>
<g id="a_edge13_Node000007_Node000014"><a xlink:title=" ">
<path fill="none" stroke="#63b8ff" d="M439.21,-57.69C482.09,-49.49 553.53,-35.56 624.83,-20.08"/>
<polygon fill="#63b8ff" stroke="#63b8ff" points="625.87,-23.44 634.89,-17.89 624.37,-16.6 625.87,-23.44"/>
</a>
</g>
</g>
</g>
</svg>
