<?xml version="1.0" encoding="UTF-8" standalone="no"?>
<!DOCTYPE svg PUBLIC "-//W3C//DTD SVG 1.1//EN"
 "http://www.w3.org/Graphics/SVG/1.1/DTD/svg11.dtd">
<!-- Generated by graphviz version 9.0.0 (20230911.1827)
 -->
<!-- Title: response_spectrum Pages: 1 -->
<svg width="350pt" height="30pt"
 viewBox="0.00 0.00 350.00 29.50" xmlns="http://www.w3.org/2000/svg" xmlns:xlink="http://www.w3.org/1999/xlink">
<g id="graph0" class="graph" transform="scale(1 1) rotate(0) translate(4 25.5)">
<title>response_spectrum</title>
<!-- Node1 -->
<g id="Node000001" class="node">
<title>Node1</title>
<g id="a_Node000001"><a xlink:title="compute response spectrum of the given ground motion">
<polygon fill="#999999" stroke="#666666" points="118,-21.5 0,-21.5 0,0 118,0 118,-21.5"/>
<text text-anchor="middle" x="59" y="-7.05" font-family="Consolas" font-size="11.00">response_spectrum</text>
</a>
</g>
</g>
<!-- Node2 -->
<g id="Node000002" class="node">
<title>Node2</title>
<g id="a_Node000002"><a xlink:href="../../d6/d9c/namespacesuanpan.html#adef8082401dbf9d86ce230ad2b9b618d" target="_top" xlink:title=" ">
<polygon fill="white" stroke="#666666" points="272,-21.5 154,-21.5 154,0 272,0 272,-21.5"/>
<text text-anchor="middle" x="213" y="-7.05" font-family="Consolas" font-size="11.00">suanpan::for_each</text>
</a>
</g>
</g>
<!-- Node1&#45;&gt;Node2 -->
<g id="edge1_Node000001_Node000002" class="edge">
<title>Node1&#45;&gt;Node2</title>
<g id="a_edge1_Node000001_Node000002"><a xlink:title=" ">
<path fill="none" stroke="#63b8ff" d="M118.33,-10.75C126.19,-10.75 134.3,-10.75 142.33,-10.75"/>
<polygon fill="#63b8ff" stroke="#63b8ff" points="142.06,-14.25 152.06,-10.75 142.06,-7.25 142.06,-14.25"/>
</a>
</g>
</g>
<!-- Node3 -->
<g id="Node000003" class="node">
<title>Node3</title>
<g id="a_Node000003"><a xlink:href="../../d4/d48/_storage_8hpp.html#a45bf90d3e5b89fc6c46f15cc58c1c60c" target="_top" xlink:title=" ">
<polygon fill="white" stroke="#666666" points="342,-21.5 308,-21.5 308,0 342,0 342,-21.5"/>
<text text-anchor="middle" x="325" y="-7.05" font-family="Consolas" font-size="11.00">end</text>
</a>
</g>
</g>
<!-- Node2&#45;&gt;Node3 -->
<g id="edge2_Node000002_Node000003" class="edge">
<title>Node2&#45;&gt;Node3</title>
<g id="a_edge2_Node000002_Node000003"><a xlink:title=" ">
<path fill="none" stroke="#63b8ff" d="M272.22,-10.75C280.54,-10.75 288.76,-10.75 296.12,-10.75"/>
<polygon fill="#63b8ff" stroke="#63b8ff" points="296.04,-14.25 306.04,-10.75 296.04,-7.25 296.04,-14.25"/>
</a>
</g>
</g>
</g>
</svg>
