<?xml version="1.0" encoding="UTF-8" standalone="no"?>
<!DOCTYPE svg PUBLIC "-//W3C//DTD SVG 1.1//EN"
 "http://www.w3.org/Graphics/SVG/1.1/DTD/svg11.dtd">
<!-- Generated by graphviz version 2.43.0 (0)
 -->
<!-- Title: CustomMises1D Pages: 1 -->
<svg width="1232pt" height="1215pt"
 viewBox="0.00 0.00 1231.72 1215.00" xmlns="http://www.w3.org/2000/svg" xmlns:xlink="http://www.w3.org/1999/xlink">
<g id="graph0" class="graph" transform="scale(1 1) rotate(0) translate(4 1211)">
<title>CustomMises1D</title>
<!-- Node1 -->
<g id="Node000001" class="node">
<title>Node1</title>
<g id="a_Node000001"><a xlink:title="A CustomMises1D material class.">
<polygon fill="#999999" stroke="transparent" points="250.22,-84 129.22,-84 129.22,0 250.22,0 250.22,-84"/>
<text text-anchor="start" x="146.22" y="-71.2" font-family="Consolas" font-size="11.00">CustomMises1D</text>
<text text-anchor="start" x="186.72" y="-55.2" font-family="Consolas" font-size="11.00"> </text>
<text text-anchor="start" x="133.72" y="-39.2" font-family="Consolas" font-size="11.00">+</text>
<text text-anchor="start" x="144.72" y="-39.2" font-family="Consolas" font-size="11.00">CustomMises1D()</text>
<text text-anchor="start" x="133.72" y="-23.2" font-family="Consolas" font-size="11.00">+</text>
<text text-anchor="start" x="144.72" y="-23.2" font-family="Consolas" font-size="11.00">initialize()</text>
<text text-anchor="start" x="133.72" y="-7.2" font-family="Consolas" font-size="11.00">+</text>
<text text-anchor="start" x="144.72" y="-7.2" font-family="Consolas" font-size="11.00">get_copy()</text>
<polygon fill="#666666" stroke="#666666" points="129.72,-66 129.72,-66 250.72,-66 250.72,-66 129.72,-66"/>
<polygon fill="#666666" stroke="#666666" points="129.72,-50 129.72,-50 250.72,-50 250.72,-50 129.72,-50"/>
<polygon fill="none" stroke="#666666" points="129.22,0 129.22,-84 250.22,-84 250.22,0 129.22,0"/>
</a>
</g>
</g>
<!-- Node2 -->
<g id="Node000002" class="node">
<title>Node2</title>
<g id="a_Node000002"><a xlink:href="../../db/d14/class_nonlinear_mises1_d.html" target="_top" xlink:title="A NonlinearMises1D material class.">
<polygon fill="white" stroke="transparent" points="270.22,-253 109.22,-253 109.22,-121 270.22,-121 270.22,-253"/>
<text text-anchor="start" x="135.72" y="-240.2" font-family="Consolas" font-size="11.00">NonlinearMises1D</text>
<text text-anchor="start" x="186.72" y="-224.2" font-family="Consolas" font-size="11.00"> </text>
<text text-anchor="start" x="113.72" y="-208.2" font-family="Consolas" font-size="11.00">+</text>
<text text-anchor="start" x="124.72" y="-208.2" font-family="Consolas" font-size="11.00">NonlinearMises1D()</text>
<text text-anchor="start" x="113.72" y="-192.2" font-family="Consolas" font-size="11.00">+</text>
<text text-anchor="start" x="124.72" y="-192.2" font-family="Consolas" font-size="11.00">initialize()</text>
<text text-anchor="start" x="113.72" y="-176.2" font-family="Consolas" font-size="11.00">+</text>
<text text-anchor="start" x="124.72" y="-176.2" font-family="Consolas" font-size="11.00">update_trial_status()</text>
<text text-anchor="start" x="113.72" y="-160.2" font-family="Consolas" font-size="11.00">+</text>
<text text-anchor="start" x="124.72" y="-160.2" font-family="Consolas" font-size="11.00">clear_status()</text>
<text text-anchor="start" x="113.72" y="-144.2" font-family="Consolas" font-size="11.00">+</text>
<text text-anchor="start" x="124.72" y="-144.2" font-family="Consolas" font-size="11.00">commit_status()</text>
<text text-anchor="start" x="113.72" y="-128.2" font-family="Consolas" font-size="11.00">+</text>
<text text-anchor="start" x="124.72" y="-128.2" font-family="Consolas" font-size="11.00">reset_status()</text>
<polygon fill="#666666" stroke="#666666" points="109.72,-235 109.72,-235 270.72,-235 270.72,-235 109.72,-235"/>
<polygon fill="#666666" stroke="#666666" points="109.72,-219 109.72,-219 270.72,-219 270.72,-219 109.72,-219"/>
<polygon fill="none" stroke="#666666" points="109.22,-121 109.22,-253 270.22,-253 270.22,-121 109.22,-121"/>
</a>
</g>
</g>
<!-- Node2&#45;&gt;Node1 -->
<g id="edge1_Node000001_Node000002" class="edge">
<title>Node2&#45;&gt;Node1</title>
<g id="a_edge1_Node000001_Node000002"><a xlink:title=" ">
<path fill="none" stroke="#63b8ff" d="M189.72,-110.6C189.72,-101.59 189.72,-92.66 189.72,-84.39"/>
<polygon fill="none" stroke="#63b8ff" points="186.22,-110.78 189.72,-120.78 193.22,-110.78 186.22,-110.78"/>
</a>
</g>
</g>
<!-- Node3 -->
<g id="Node000003" class="node">
<title>Node3</title>
<g id="a_Node000003"><a xlink:href="../../d0/de1/struct_data_mises1_d.html" target="_top" xlink:title=" ">
<polygon fill="white" stroke="transparent" points="175.22,-693 90.22,-693 90.22,-641 175.22,-641 175.22,-693"/>
<text text-anchor="start" x="95.72" y="-680.2" font-family="Consolas" font-size="11.00">DataMises1D</text>
<text text-anchor="start" x="129.72" y="-664.2" font-family="Consolas" font-size="11.00"> </text>
<text text-anchor="start" x="129.72" y="-648.2" font-family="Consolas" font-size="11.00"> </text>
<polygon fill="#666666" stroke="#666666" points="90.72,-675 90.72,-675 175.72,-675 175.72,-675 90.72,-675"/>
<polygon fill="#666666" stroke="#666666" points="90.72,-659 90.72,-659 175.72,-659 175.72,-659 90.72,-659"/>
<polygon fill="none" stroke="#666666" points="90.22,-641 90.22,-693 175.22,-693 175.22,-641 90.22,-641"/>
</a>
</g>
</g>
<!-- Node3&#45;&gt;Node2 -->
<g id="edge2_Node000002_Node000003" class="edge">
<title>Node3&#45;&gt;Node2</title>
<g id="a_edge2_Node000002_Node000003"><a xlink:title=" ">
<path fill="none" stroke="darkgreen" d="M136.89,-630.97C146.38,-551.39 169.69,-355.94 181.93,-253.33"/>
<polygon fill="none" stroke="darkgreen" points="133.41,-630.63 135.7,-640.97 140.36,-631.46 133.41,-630.63"/>
</a>
</g>
</g>
<!-- Node4 -->
<g id="Node000004" class="node">
<title>Node4</title>
<g id="a_Node000004"><a xlink:title=" ">
<polygon fill="white" stroke="transparent" points="113.22,-1207 62.22,-1207 62.22,-1155 113.22,-1155 113.22,-1207"/>
<text text-anchor="start" x="67.72" y="-1194.2" font-family="Consolas" font-size="11.00">double</text>
<text text-anchor="start" x="84.72" y="-1178.2" font-family="Consolas" font-size="11.00"> </text>
<text text-anchor="start" x="84.72" y="-1162.2" font-family="Consolas" font-size="11.00"> </text>
<polygon fill="#666666" stroke="#666666" points="62.72,-1189 62.72,-1189 113.72,-1189 113.72,-1189 62.72,-1189"/>
<polygon fill="#666666" stroke="#666666" points="62.72,-1173 62.72,-1173 113.72,-1173 113.72,-1173 62.72,-1173"/>
<polygon fill="none" stroke="#666666" points="62.22,-1155 62.22,-1207 113.22,-1207 113.22,-1155 62.22,-1155"/>
</a>
</g>
</g>
<!-- Node4&#45;&gt;Node3 -->
<g id="edge3_Node000003_Node000004" class="edge">
<title>Node4&#45;&gt;Node3</title>
<g id="a_edge3_Node000003_Node000004"><a xlink:title=" ">
<path fill="none" stroke="#63b8ff" d="M61.89,-1172.01C45.49,-1165.44 25.56,-1154.35 15.72,-1137 -13.24,-1085.98 5.96,-1062.85 15.72,-1005 34.88,-891.35 88.01,-764.85 115.6,-704.24"/>
<polygon fill="none" stroke="#63b8ff" points="115.74,-703.92 114.62,-696.8 120.76,-693.02 121.88,-700.14 115.74,-703.92"/>
</a>
</g>
<text text-anchor="middle" x="73.22" y="-1068.2" font-family="Consolas" font-size="11.00" fill="grey"> +elastic_modulus</text>
</g>
<!-- Node7 -->
<g id="Node000007" class="node">
<title>Node7</title>
<g id="a_Node000007"><a xlink:href="../../de/de9/struct_data_material.html" target="_top" xlink:title=" ">
<polygon fill="white" stroke="transparent" points="527.72,-907 393.72,-907 393.72,-791 527.72,-791 527.72,-907"/>
<text text-anchor="start" x="419.72" y="-894.2" font-family="Consolas" font-size="11.00">DataMaterial</text>
<text text-anchor="start" x="397.72" y="-878.2" font-family="Consolas" font-size="11.00">+</text>
<text text-anchor="start" x="408.72" y="-878.2" font-family="Consolas" font-size="11.00">trial_strain</text>
<text text-anchor="start" x="397.72" y="-862.2" font-family="Consolas" font-size="11.00">+</text>
<text text-anchor="start" x="408.72" y="-862.2" font-family="Consolas" font-size="11.00">trial_strain_rate</text>
<text text-anchor="start" x="397.72" y="-846.2" font-family="Consolas" font-size="11.00">+</text>
<text text-anchor="start" x="408.72" y="-846.2" font-family="Consolas" font-size="11.00">trial_strain_acc</text>
<text text-anchor="start" x="397.72" y="-830.2" font-family="Consolas" font-size="11.00">+</text>
<text text-anchor="start" x="408.72" y="-830.2" font-family="Consolas" font-size="11.00">trial_stress</text>
<text text-anchor="start" x="397.72" y="-814.2" font-family="Consolas" font-size="11.00">+</text>
<text text-anchor="start" x="408.72" y="-814.2" font-family="Consolas" font-size="11.00">trial_history</text>
<text text-anchor="start" x="457.22" y="-798.2" font-family="Consolas" font-size="11.00"> </text>
<polygon fill="#666666" stroke="#666666" points="393.72,-889 393.72,-889 527.72,-889 527.72,-889 393.72,-889"/>
<polygon fill="#666666" stroke="#666666" points="393.72,-809 393.72,-809 406.72,-809 406.72,-809 393.72,-809"/>
<polygon fill="#666666" stroke="#666666" points="406.72,-809 406.72,-809 527.72,-809 527.72,-809 406.72,-809"/>
<polygon fill="none" stroke="#666666" points="393.72,-791 393.72,-907 527.72,-907 527.72,-791 393.72,-791"/>
</a>
</g>
</g>
<!-- Node4&#45;&gt;Node7 -->
<g id="edge7_Node000007_Node000004" class="edge">
<title>Node4&#45;&gt;Node7</title>
<g id="a_edge7_Node000007_Node000004"><a xlink:title=" ">
<path fill="none" stroke="#63b8ff" d="M113.67,-1161.41C121.52,-1154.57 129.45,-1146.22 134.72,-1137 164.49,-1084.94 117.69,-1044.61 162.72,-1005 199.71,-972.45 342.23,-1013.59 383.72,-987 408.53,-971.1 426.11,-944.22 438.15,-918.47"/>
<polygon fill="none" stroke="#63b8ff" points="438.3,-918.13 437.05,-911.03 443.13,-907.15 444.38,-914.25 438.3,-918.13"/>
</a>
</g>
<text text-anchor="middle" x="240.72" y="-1080.2" font-family="Consolas" font-size="11.00" fill="grey"> +characteristic_length</text>
<text text-anchor="middle" x="240.72" y="-1068.2" font-family="Consolas" font-size="11.00" fill="grey">+density</text>
<text text-anchor="middle" x="240.72" y="-1056.2" font-family="Consolas" font-size="11.00" fill="grey">+tolerance</text>
</g>
<!-- Node5 -->
<g id="Node000005" class="node">
<title>Node5</title>
<g id="a_Node000005"><a xlink:href="../../d9/d97/class_material1_d.html" target="_top" xlink:title="A Material1D class.">
<polygon fill="white" stroke="transparent" points="361.22,-374 260.22,-374 260.22,-290 361.22,-290 361.22,-374"/>
<text text-anchor="start" x="277.22" y="-361.2" font-family="Consolas" font-size="11.00">Material1D</text>
<text text-anchor="start" x="307.72" y="-345.2" font-family="Consolas" font-size="11.00"> </text>
<text text-anchor="start" x="264.72" y="-329.2" font-family="Consolas" font-size="11.00">+</text>
<text text-anchor="start" x="275.72" y="-329.2" font-family="Consolas" font-size="11.00">Material1D()</text>
<text text-anchor="start" x="264.72" y="-313.2" font-family="Consolas" font-size="11.00">+</text>
<text text-anchor="start" x="275.72" y="-313.2" font-family="Consolas" font-size="11.00">record()</text>
<text text-anchor="start" x="264.72" y="-297.2" font-family="Consolas" font-size="11.00">+</text>
<text text-anchor="start" x="275.72" y="-297.2" font-family="Consolas" font-size="11.00">print()</text>
<polygon fill="#666666" stroke="#666666" points="260.72,-356 260.72,-356 361.72,-356 361.72,-356 260.72,-356"/>
<polygon fill="#666666" stroke="#666666" points="260.72,-340 260.72,-340 361.72,-340 361.72,-340 260.72,-340"/>
<polygon fill="none" stroke="#666666" points="260.22,-290 260.22,-374 361.22,-374 361.22,-290 260.22,-290"/>
</a>
</g>
</g>
<!-- Node5&#45;&gt;Node2 -->
<g id="edge4_Node000002_Node000005" class="edge">
<title>Node5&#45;&gt;Node2</title>
<g id="a_edge4_Node000002_Node000005"><a xlink:title=" ">
<path fill="none" stroke="#63b8ff" d="M269.02,-281.73C261.26,-272.54 253.03,-262.82 244.93,-253.25"/>
<polygon fill="none" stroke="#63b8ff" points="266.59,-284.27 275.72,-289.64 271.93,-279.74 266.59,-284.27"/>
</a>
</g>
</g>
<!-- Node6 -->
<g id="Node000006" class="node">
<title>Node6</title>
<g id="a_Node000006"><a xlink:href="../../dc/dee/class_material.html" target="_top" xlink:title="A Material abstract base class.">
<polygon fill="white" stroke="transparent" points="438.72,-623 290.72,-623 290.72,-411 438.72,-411 438.72,-623"/>
<text text-anchor="start" x="337.22" y="-610.2" font-family="Consolas" font-size="11.00">Material</text>
<text text-anchor="start" x="361.22" y="-594.2" font-family="Consolas" font-size="11.00"> </text>
<text text-anchor="start" x="294.72" y="-578.2" font-family="Consolas" font-size="11.00">+</text>
<text text-anchor="start" x="305.72" y="-578.2" font-family="Consolas" font-size="11.00">Material()</text>
<text text-anchor="start" x="294.72" y="-562.2" font-family="Consolas" font-size="11.00">+</text>
<text text-anchor="start" x="305.72" y="-562.2" font-family="Consolas" font-size="11.00">Material()</text>
<text text-anchor="start" x="294.72" y="-546.2" font-family="Consolas" font-size="11.00">+</text>
<text text-anchor="start" x="305.72" y="-546.2" font-family="Consolas" font-size="11.00">Material()</text>
<text text-anchor="start" x="294.72" y="-530.2" font-family="Consolas" font-size="11.00">+</text>
<text text-anchor="start" x="305.72" y="-530.2" font-family="Consolas" font-size="11.00">operator=()</text>
<text text-anchor="start" x="294.72" y="-514.2" font-family="Consolas" font-size="11.00">+</text>
<text text-anchor="start" x="305.72" y="-514.2" font-family="Consolas" font-size="11.00">operator=()</text>
<text text-anchor="start" x="294.72" y="-498.2" font-family="Consolas" font-size="11.00">+</text>
<text text-anchor="start" x="305.72" y="-498.2" font-family="Consolas" font-size="11.00">~Material()</text>
<text text-anchor="start" x="294.72" y="-482.2" font-family="Consolas" font-size="11.00">+</text>
<text text-anchor="start" x="305.72" y="-482.2" font-family="Consolas" font-size="11.00">get_density()</text>
<text text-anchor="start" x="294.72" y="-466.2" font-family="Consolas" font-size="11.00">+</text>
<text text-anchor="start" x="305.72" y="-466.2" font-family="Consolas" font-size="11.00">get_material_type()</text>
<text text-anchor="start" x="294.72" y="-450.2" font-family="Consolas" font-size="11.00">+</text>
<text text-anchor="start" x="305.72" y="-450.2" font-family="Consolas" font-size="11.00">get_plane_type()</text>
<text text-anchor="start" x="294.72" y="-434.2" font-family="Consolas" font-size="11.00">+</text>
<text text-anchor="start" x="305.72" y="-434.2" font-family="Consolas" font-size="11.00">initialize_base()</text>
<text text-anchor="start" x="305.72" y="-418.2" font-family="Consolas" font-size="11.00">and 72 more...</text>
<polygon fill="#666666" stroke="#666666" points="290.72,-605 290.72,-605 438.72,-605 438.72,-605 290.72,-605"/>
<polygon fill="#666666" stroke="#666666" points="290.72,-589 290.72,-589 438.72,-589 438.72,-589 290.72,-589"/>
<polygon fill="none" stroke="#666666" points="290.72,-411 290.72,-623 438.72,-623 438.72,-411 290.72,-411"/>
</a>
</g>
</g>
<!-- Node6&#45;&gt;Node5 -->
<g id="edge5_Node000005_Node000006" class="edge">
<title>Node6&#45;&gt;Node5</title>
<g id="a_edge5_Node000005_Node000006"><a xlink:title=" ">
<path fill="none" stroke="#63b8ff" d="M330.87,-401.28C328.07,-391.79 325.37,-382.66 322.91,-374.33"/>
<polygon fill="none" stroke="#63b8ff" points="327.51,-402.27 333.7,-410.87 334.22,-400.29 327.51,-402.27"/>
</a>
</g>
</g>
<!-- Node7&#45;&gt;Node6 -->
<g id="edge6_Node000006_Node000007" class="edge">
<title>Node7&#45;&gt;Node6</title>
<g id="a_edge6_Node000006_Node000007"><a xlink:title=" ">
<path fill="none" stroke="darkgreen" d="M441.28,-781.17C428.07,-735.78 410.34,-674.83 395.27,-623.01"/>
<polygon fill="none" stroke="darkgreen" points="437.95,-782.27 444.11,-790.9 444.67,-780.32 437.95,-782.27"/>
</a>
</g>
</g>
<!-- Node8 -->
<g id="Node000008" class="node">
<title>Node8</title>
<g id="a_Node000008"><a xlink:title=" ">
<polygon fill="white" stroke="transparent" points="393.72,-1207 261.72,-1207 261.72,-1155 393.72,-1155 393.72,-1207"/>
<text text-anchor="start" x="266.72" y="-1194.2" font-family="Consolas" font-size="11.00">const MaterialType</text>
<text text-anchor="start" x="324.22" y="-1178.2" font-family="Consolas" font-size="11.00"> </text>
<text text-anchor="start" x="324.22" y="-1162.2" font-family="Consolas" font-size="11.00"> </text>
<polygon fill="#666666" stroke="#666666" points="261.72,-1189 261.72,-1189 393.72,-1189 393.72,-1189 261.72,-1189"/>
<polygon fill="#666666" stroke="#666666" points="261.72,-1173 261.72,-1173 393.72,-1173 393.72,-1173 261.72,-1173"/>
<polygon fill="none" stroke="#666666" points="261.72,-1155 261.72,-1207 393.72,-1207 393.72,-1155 261.72,-1155"/>
</a>
</g>
</g>
<!-- Node8&#45;&gt;Node7 -->
<g id="edge8_Node000007_Node000008" class="edge">
<title>Node8&#45;&gt;Node7</title>
<g id="a_edge8_Node000007_Node000008"><a xlink:title=" ">
<path fill="none" stroke="#63b8ff" d="M324.35,-1154.91C320.83,-1118.53 319.52,-1050.49 350.72,-1005 360.17,-991.22 371.83,-998.74 383.72,-987 403.5,-967.47 419.73,-941.78 432.11,-917.93"/>
<polygon fill="none" stroke="#63b8ff" points="432.14,-917.86 431.26,-910.7 437.52,-907.13 438.41,-914.29 432.14,-917.86"/>
</a>
</g>
<text text-anchor="middle" x="401.72" y="-1068.2" font-family="Consolas" font-size="11.00" fill="grey"> +material_type</text>
</g>
<!-- Node9 -->
<g id="Node000009" class="node">
<title>Node9</title>
<g id="a_Node000009"><a xlink:title=" ">
<polygon fill="white" stroke="transparent" points="523.72,-1207 411.72,-1207 411.72,-1155 523.72,-1155 523.72,-1207"/>
<text text-anchor="start" x="416.72" y="-1194.2" font-family="Consolas" font-size="11.00">const PlaneType</text>
<text text-anchor="start" x="464.22" y="-1178.2" font-family="Consolas" font-size="11.00"> </text>
<text text-anchor="start" x="464.22" y="-1162.2" font-family="Consolas" font-size="11.00"> </text>
<polygon fill="#666666" stroke="#666666" points="411.72,-1189 411.72,-1189 523.72,-1189 523.72,-1189 411.72,-1189"/>
<polygon fill="#666666" stroke="#666666" points="411.72,-1173 411.72,-1173 523.72,-1173 523.72,-1173 411.72,-1173"/>
<polygon fill="none" stroke="#666666" points="411.72,-1155 411.72,-1207 523.72,-1207 523.72,-1155 411.72,-1155"/>
</a>
</g>
</g>
<!-- Node9&#45;&gt;Node7 -->
<g id="edge9_Node000007_Node000009" class="edge">
<title>Node9&#45;&gt;Node7</title>
<g id="a_edge9_Node000007_Node000009"><a xlink:title=" ">
<path fill="none" stroke="#63b8ff" d="M463.59,-1154.59C462.82,-1148.83 462.12,-1142.71 461.72,-1137 456.44,-1062.91 456.97,-977.8 458.33,-919.62"/>
<polygon fill="none" stroke="#63b8ff" points="458.34,-919.26 454.5,-913.16 458.65,-907.26 462.49,-913.36 458.34,-919.26"/>
</a>
</g>
<text text-anchor="middle" x="502.72" y="-1068.2" font-family="Consolas" font-size="11.00" fill="grey"> +plane_type</text>
</g>
<!-- Node10 -->
<g id="Node000010" class="node">
<title>Node10</title>
<g id="a_Node000010"><a xlink:title=" ">
<polygon fill="white" stroke="transparent" points="1004.22,-1207 973.22,-1207 973.22,-1155 1004.22,-1155 1004.22,-1207"/>
<text text-anchor="start" x="978.72" y="-1194.2" font-family="Consolas" font-size="11.00">vec</text>
<text text-anchor="start" x="985.72" y="-1178.2" font-family="Consolas" font-size="11.00"> </text>
<text text-anchor="start" x="985.72" y="-1162.2" font-family="Consolas" font-size="11.00"> </text>
<polygon fill="#666666" stroke="#666666" points="973.72,-1189 973.72,-1189 1004.72,-1189 1004.72,-1189 973.72,-1189"/>
<polygon fill="#666666" stroke="#666666" points="973.72,-1173 973.72,-1173 1004.72,-1173 1004.72,-1173 973.72,-1173"/>
<polygon fill="none" stroke="#666666" points="973.22,-1155 973.22,-1207 1004.22,-1207 1004.22,-1155 973.22,-1155"/>
</a>
</g>
</g>
<!-- Node10&#45;&gt;Node7 -->
<g id="edge10_Node000007_Node000010" class="edge">
<title>Node10&#45;&gt;Node7</title>
<g id="a_edge10_Node000007_Node000010"><a xlink:title=" ">
<path fill="none" stroke="#63b8ff" d="M973.18,-1176.44C954.21,-1171.23 922.68,-1159.58 906.72,-1137 872.5,-1088.6 931.1,-1045.38 887.72,-1005 846.62,-966.75 688.11,-1007.18 635.72,-987 594.93,-971.29 555.97,-942.65 525.21,-915.61"/>
<polygon fill="none" stroke="#63b8ff" points="524.87,-915.3 517.73,-914.27 515.94,-907.29 523.08,-908.32 524.87,-915.3"/>
</a>
</g>
<text text-anchor="middle" x="974.72" y="-1128.2" font-family="Consolas" font-size="11.00" fill="grey"> +current_history</text>
<text text-anchor="middle" x="974.72" y="-1116.2" font-family="Consolas" font-size="11.00" fill="grey">+current_strain</text>
<text text-anchor="middle" x="974.72" y="-1104.2" font-family="Consolas" font-size="11.00" fill="grey">+current_strain_acc</text>
<text text-anchor="middle" x="974.72" y="-1092.2" font-family="Consolas" font-size="11.00" fill="grey">+current_strain_rate</text>
<text text-anchor="middle" x="974.72" y="-1080.2" font-family="Consolas" font-size="11.00" fill="grey">+current_stress</text>
<text text-anchor="middle" x="974.72" y="-1068.2" font-family="Consolas" font-size="11.00" fill="grey">+incre_strain</text>
<text text-anchor="middle" x="974.72" y="-1056.2" font-family="Consolas" font-size="11.00" fill="grey">+incre_strain_acc</text>
<text text-anchor="middle" x="974.72" y="-1044.2" font-family="Consolas" font-size="11.00" fill="grey">+incre_strain_rate</text>
<text text-anchor="middle" x="974.72" y="-1032.2" font-family="Consolas" font-size="11.00" fill="grey">+incre_stress</text>
<text text-anchor="middle" x="974.72" y="-1020.2" font-family="Consolas" font-size="11.00" fill="grey">+initial_history</text>
<text text-anchor="middle" x="974.72" y="-1008.2" font-family="Consolas" font-size="11.00" fill="grey">...</text>
</g>
<!-- Node12 -->
<g id="Node000012" class="node">
<title>Node12</title>
<g id="a_Node000012"><a xlink:href="../../da/de4/struct_data_couple_material.html" target="_top" xlink:title=" ">
<polygon fill="white" stroke="transparent" points="776.72,-875 644.72,-875 644.72,-823 776.72,-823 776.72,-875"/>
<text text-anchor="start" x="649.72" y="-862.2" font-family="Consolas" font-size="11.00">DataCoupleMaterial</text>
<text text-anchor="start" x="707.22" y="-846.2" font-family="Consolas" font-size="11.00"> </text>
<text text-anchor="start" x="707.22" y="-830.2" font-family="Consolas" font-size="11.00"> </text>
<polygon fill="#666666" stroke="#666666" points="644.72,-857 644.72,-857 776.72,-857 776.72,-857 644.72,-857"/>
<polygon fill="#666666" stroke="#666666" points="644.72,-841 644.72,-841 776.72,-841 776.72,-841 644.72,-841"/>
<polygon fill="none" stroke="#666666" points="644.72,-823 644.72,-875 776.72,-875 776.72,-823 644.72,-823"/>
</a>
</g>
</g>
<!-- Node10&#45;&gt;Node12 -->
<g id="edge13_Node000012_Node000010" class="edge">
<title>Node10&#45;&gt;Node12</title>
<g id="a_edge13_Node000012_Node000010"><a xlink:title=" ">
<path fill="none" stroke="#63b8ff" d="M1004.33,-1173.44C1018.31,-1166.61 1037.92,-1154.47 1046.72,-1137 1073.1,-1084.6 1078.34,-1054.41 1046.72,-1005 990.23,-916.73 869.3,-878.02 789,-861.55"/>
<polygon fill="none" stroke="#63b8ff" points="788.74,-861.5 782.08,-864.26 776.96,-859.18 783.62,-856.42 788.74,-861.5"/>
</a>
</g>
<text text-anchor="middle" x="1145.72" y="-1098.2" font-family="Consolas" font-size="11.00" fill="grey"> +current_couple_stress</text>
<text text-anchor="middle" x="1145.72" y="-1086.2" font-family="Consolas" font-size="11.00" fill="grey">+current_curvature</text>
<text text-anchor="middle" x="1145.72" y="-1074.2" font-family="Consolas" font-size="11.00" fill="grey">+incre_couple_stress</text>
<text text-anchor="middle" x="1145.72" y="-1062.2" font-family="Consolas" font-size="11.00" fill="grey">+incre_curvature</text>
<text text-anchor="middle" x="1145.72" y="-1050.2" font-family="Consolas" font-size="11.00" fill="grey">+trial_couple_stress</text>
<text text-anchor="middle" x="1145.72" y="-1038.2" font-family="Consolas" font-size="11.00" fill="grey">+trial_curvature</text>
</g>
<!-- Node11 -->
<g id="Node000011" class="node">
<title>Node11</title>
<g id="a_Node000011"><a xlink:title=" ">
<polygon fill="white" stroke="transparent" points="653.22,-1207 622.22,-1207 622.22,-1155 653.22,-1155 653.22,-1207"/>
<text text-anchor="start" x="627.72" y="-1194.2" font-family="Consolas" font-size="11.00">mat</text>
<text text-anchor="start" x="634.72" y="-1178.2" font-family="Consolas" font-size="11.00"> </text>
<text text-anchor="start" x="634.72" y="-1162.2" font-family="Consolas" font-size="11.00"> </text>
<polygon fill="#666666" stroke="#666666" points="622.72,-1189 622.72,-1189 653.72,-1189 653.72,-1189 622.72,-1189"/>
<polygon fill="#666666" stroke="#666666" points="622.72,-1173 622.72,-1173 653.72,-1173 653.72,-1173 622.72,-1173"/>
<polygon fill="none" stroke="#666666" points="622.22,-1155 622.22,-1207 653.22,-1207 653.22,-1155 622.22,-1155"/>
</a>
</g>
</g>
<!-- Node11&#45;&gt;Node7 -->
<g id="edge11_Node000007_Node000011" class="edge">
<title>Node11&#45;&gt;Node7</title>
<g id="a_edge11_Node000007_Node000011"><a xlink:title=" ">
<path fill="none" stroke="#63b8ff" d="M621.93,-1175.54C604.43,-1169.72 576.8,-1157.74 562.72,-1137 529.42,-1087.97 562.21,-1061.31 543.72,-1005 533.88,-975.05 518.48,-944.04 503.59,-917.7"/>
<polygon fill="none" stroke="#63b8ff" points="503.47,-917.49 497.01,-914.29 497.49,-907.09 503.95,-910.3 503.47,-917.49"/>
</a>
</g>
<text text-anchor="middle" x="623.72" y="-1116.2" font-family="Consolas" font-size="11.00" fill="grey"> +current_damping</text>
<text text-anchor="middle" x="623.72" y="-1104.2" font-family="Consolas" font-size="11.00" fill="grey">+current_inertial</text>
<text text-anchor="middle" x="623.72" y="-1092.2" font-family="Consolas" font-size="11.00" fill="grey">+current_stiffness</text>
<text text-anchor="middle" x="623.72" y="-1080.2" font-family="Consolas" font-size="11.00" fill="grey">+initial_damping</text>
<text text-anchor="middle" x="623.72" y="-1068.2" font-family="Consolas" font-size="11.00" fill="grey">+initial_inertial</text>
<text text-anchor="middle" x="623.72" y="-1056.2" font-family="Consolas" font-size="11.00" fill="grey">+initial_stiffness</text>
<text text-anchor="middle" x="623.72" y="-1044.2" font-family="Consolas" font-size="11.00" fill="grey">+trial_damping</text>
<text text-anchor="middle" x="623.72" y="-1032.2" font-family="Consolas" font-size="11.00" fill="grey">+trial_inertial</text>
<text text-anchor="middle" x="623.72" y="-1020.2" font-family="Consolas" font-size="11.00" fill="grey">+trial_stiffness</text>
</g>
<!-- Node11&#45;&gt;Node12 -->
<g id="edge14_Node000012_Node000011" class="edge">
<title>Node11&#45;&gt;Node12</title>
<g id="a_edge14_Node000012_Node000011"><a xlink:title=" ">
<path fill="none" stroke="#63b8ff" d="M653.6,-1171.34C665.5,-1163.92 681.01,-1152.05 688.72,-1137 710.55,-1094.38 712.02,-954.73 711.38,-887.21"/>
<polygon fill="none" stroke="#63b8ff" points="711.38,-887.1 707.31,-881.15 711.24,-875.1 715.31,-881.05 711.38,-887.1"/>
</a>
</g>
<text text-anchor="middle" x="796.72" y="-1080.2" font-family="Consolas" font-size="11.00" fill="grey"> +current_couple_stiffness</text>
<text text-anchor="middle" x="796.72" y="-1068.2" font-family="Consolas" font-size="11.00" fill="grey">+initial_couple_stiffness</text>
<text text-anchor="middle" x="796.72" y="-1056.2" font-family="Consolas" font-size="11.00" fill="grey">+trial_couple_stiffness</text>
</g>
<!-- Node12&#45;&gt;Node6 -->
<g id="edge12_Node000006_Node000012" class="edge">
<title>Node12&#45;&gt;Node6</title>
<g id="a_edge12_Node000006_Node000012"><a xlink:title=" ">
<path fill="none" stroke="darkgreen" d="M677.07,-815.91C622.3,-763.67 512.57,-659.02 438.87,-588.72"/>
<polygon fill="none" stroke="darkgreen" points="674.78,-818.56 684.43,-822.93 679.61,-813.49 674.78,-818.56"/>
</a>
</g>
</g>
<!-- Node13 -->
<g id="Node000013" class="node">
<title>Node13</title>
<g id="a_Node000013"><a xlink:href="../../d0/d57/class_tag.html" target="_top" xlink:title="A base Tag class.">
<polygon fill="white" stroke="transparent" points="375.22,-987 274.22,-987 274.22,-711 375.22,-711 375.22,-987"/>
<text text-anchor="start" x="314.72" y="-974.2" font-family="Consolas" font-size="11.00">Tag</text>
<text text-anchor="start" x="321.72" y="-958.2" font-family="Consolas" font-size="11.00"> </text>
<text text-anchor="start" x="278.72" y="-942.2" font-family="Consolas" font-size="11.00">+</text>
<text text-anchor="start" x="289.72" y="-942.2" font-family="Consolas" font-size="11.00">Tag()</text>
<text text-anchor="start" x="278.72" y="-926.2" font-family="Consolas" font-size="11.00">+</text>
<text text-anchor="start" x="289.72" y="-926.2" font-family="Consolas" font-size="11.00">Tag()</text>
<text text-anchor="start" x="278.72" y="-910.2" font-family="Consolas" font-size="11.00">+</text>
<text text-anchor="start" x="289.72" y="-910.2" font-family="Consolas" font-size="11.00">Tag()</text>
<text text-anchor="start" x="278.72" y="-894.2" font-family="Consolas" font-size="11.00">+</text>
<text text-anchor="start" x="289.72" y="-894.2" font-family="Consolas" font-size="11.00">operator=()</text>
<text text-anchor="start" x="278.72" y="-878.2" font-family="Consolas" font-size="11.00">+</text>
<text text-anchor="start" x="289.72" y="-878.2" font-family="Consolas" font-size="11.00">operator=()</text>
<text text-anchor="start" x="278.72" y="-862.2" font-family="Consolas" font-size="11.00">+</text>
<text text-anchor="start" x="289.72" y="-862.2" font-family="Consolas" font-size="11.00">~Tag()</text>
<text text-anchor="start" x="278.72" y="-846.2" font-family="Consolas" font-size="11.00">+</text>
<text text-anchor="start" x="289.72" y="-846.2" font-family="Consolas" font-size="11.00">set_tag()</text>
<text text-anchor="start" x="278.72" y="-830.2" font-family="Consolas" font-size="11.00">+</text>
<text text-anchor="start" x="289.72" y="-830.2" font-family="Consolas" font-size="11.00">get_tag()</text>
<text text-anchor="start" x="278.72" y="-814.2" font-family="Consolas" font-size="11.00">+</text>
<text text-anchor="start" x="289.72" y="-814.2" font-family="Consolas" font-size="11.00">enable()</text>
<text text-anchor="start" x="278.72" y="-798.2" font-family="Consolas" font-size="11.00">+</text>
<text text-anchor="start" x="289.72" y="-798.2" font-family="Consolas" font-size="11.00">disable()</text>
<text text-anchor="start" x="278.72" y="-782.2" font-family="Consolas" font-size="11.00">+</text>
<text text-anchor="start" x="289.72" y="-782.2" font-family="Consolas" font-size="11.00">guard()</text>
<text text-anchor="start" x="278.72" y="-766.2" font-family="Consolas" font-size="11.00">+</text>
<text text-anchor="start" x="289.72" y="-766.2" font-family="Consolas" font-size="11.00">unguard()</text>
<text text-anchor="start" x="278.72" y="-750.2" font-family="Consolas" font-size="11.00">+</text>
<text text-anchor="start" x="289.72" y="-750.2" font-family="Consolas" font-size="11.00">is_active()</text>
<text text-anchor="start" x="278.72" y="-734.2" font-family="Consolas" font-size="11.00">+</text>
<text text-anchor="start" x="289.72" y="-734.2" font-family="Consolas" font-size="11.00">is_guarded()</text>
<text text-anchor="start" x="278.72" y="-718.2" font-family="Consolas" font-size="11.00">+</text>
<text text-anchor="start" x="289.72" y="-718.2" font-family="Consolas" font-size="11.00">print()</text>
<polygon fill="#666666" stroke="#666666" points="274.72,-969 274.72,-969 375.72,-969 375.72,-969 274.72,-969"/>
<polygon fill="#666666" stroke="#666666" points="274.72,-953 274.72,-953 375.72,-953 375.72,-953 274.72,-953"/>
<polygon fill="none" stroke="#666666" points="274.22,-711 274.22,-987 375.22,-987 375.22,-711 274.22,-711"/>
</a>
</g>
</g>
<!-- Node13&#45;&gt;Node6 -->
<g id="edge15_Node000006_Node000013" class="edge">
<title>Node13&#45;&gt;Node6</title>
<g id="a_edge15_Node000006_Node000013"><a xlink:title=" ">
<path fill="none" stroke="#63b8ff" d="M342.55,-700.92C345.72,-674.73 348.97,-647.93 351.97,-623.21"/>
<polygon fill="none" stroke="#63b8ff" points="339.06,-700.57 341.33,-710.92 346.01,-701.41 339.06,-700.57"/>
</a>
</g>
</g>
</g>
</svg>
