<?xml version="1.0" encoding="UTF-8" standalone="no"?>
<!DOCTYPE svg PUBLIC "-//W3C//DTD SVG 1.1//EN"
 "http://www.w3.org/Graphics/SVG/1.1/DTD/svg11.dtd">
<!-- Generated by graphviz version 2.43.0 (0)
 -->
<!-- Title: Material/MaterialOS Pages: 1 -->
<svg width="222pt" height="232pt"
 viewBox="0.00 0.00 222.00 232.00" xmlns="http://www.w3.org/2000/svg" xmlns:xlink="http://www.w3.org/1999/xlink">
<g id="graph0" class="graph" transform="scale(1 1) rotate(0) translate(4 228)">
<title>Material/MaterialOS</title>
<polygon fill="white" stroke="transparent" points="-4,4 -4,-228 218,-228 218,4 -4,4"/>
<g id="clust1" class="cluster">
<title>clusterdir_5dc3d2744d9e16e6dc5313fdb2ea1510</title>
<g id="a_clust1"><a xlink:href="dir_5dc3d2744d9e16e6dc5313fdb2ea1510.html" target="_top" xlink:title="Material">
<polygon fill="#ddddee" stroke="black" points="8,-64 8,-216 206,-216 206,-64 8,-64"/>
<text text-anchor="middle" x="107" y="-203.2" font-family="Consolas" font-size="11.00">Material</text>
</a>
</g>
</g>
<g id="clust2" class="cluster">
<title>clusterdir_183f451a0ef72f3ffe29612ec85f5580</title>
<g id="a_clust2"><a xlink:href="dir_183f451a0ef72f3ffe29612ec85f5580.html" target="_top">
<polygon fill="#eeeeff" stroke="black" points="16,-136 16,-188 198,-188 198,-136 16,-136"/>
</a>
</g>
</g>
<!-- dir_32ae260e71ac145f4ad9ccf9f4b6f83d -->
<g id="node1" class="node">
<title>dir_32ae260e71ac145f4ad9ccf9f4b6f83d</title>
<g id="a_node1"><a xlink:href="dir_32ae260e71ac145f4ad9ccf9f4b6f83d.html" target="_top" xlink:title="Material3D">
<polygon fill="white" stroke="red" points="100,-108 16,-108 16,-72 100,-72 100,-108"/>
<text text-anchor="middle" x="58" y="-87.2" font-family="Consolas" font-size="11.00">Material3D</text>
</a>
</g>
</g>
<!-- dir_8c888e3f1190d8e08b273c29d1443e32 -->
<g id="node4" class="node">
<title>dir_8c888e3f1190d8e08b273c29d1443e32</title>
<g id="a_node4"><a xlink:href="dir_8c888e3f1190d8e08b273c29d1443e32.html" target="_top" xlink:title="Domain">
<polygon fill="white" stroke="red" points="121.5,-36 64.5,-36 64.5,0 121.5,0 121.5,-36"/>
<text text-anchor="middle" x="93" y="-15.2" font-family="Consolas" font-size="11.00">Domain</text>
</a>
</g>
</g>
<!-- dir_32ae260e71ac145f4ad9ccf9f4b6f83d&#45;&gt;dir_8c888e3f1190d8e08b273c29d1443e32 -->
<g id="edge1" class="edge">
<title>dir_32ae260e71ac145f4ad9ccf9f4b6f83d&#45;&gt;dir_8c888e3f1190d8e08b273c29d1443e32</title>
<path fill="none" stroke="black" d="M66.65,-71.7C70.64,-63.73 75.45,-54.1 79.87,-45.26"/>
<polygon fill="black" stroke="black" points="83.11,-46.61 84.45,-36.1 76.85,-43.48 83.11,-46.61"/>
<g id="a_edge1&#45;headlabel"><a xlink:href="dir_000050_000011.html" target="_top" xlink:title="16">
<text text-anchor="middle" x="84.04" y="-48.3" font-family="Consolas" font-size="11.00">16</text>
</a>
</g>
</g>
<!-- dir_183f451a0ef72f3ffe29612ec85f5580 -->
<g id="node2" class="node">
<title>dir_183f451a0ef72f3ffe29612ec85f5580</title>
<text text-anchor="middle" x="148" y="-159.2" font-family="Consolas" font-size="11.00">MaterialOS</text>
</g>
<!-- dir_388dca3e850ea4f6c20a0a5d581a00eb -->
<g id="node3" class="node">
<title>dir_388dca3e850ea4f6c20a0a5d581a00eb</title>
<g id="a_node3"><a xlink:href="dir_388dca3e850ea4f6c20a0a5d581a00eb.html" target="_top" xlink:title="Wrapper">
<polygon fill="white" stroke="black" points="88,-180 24,-180 24,-144 88,-144 88,-180"/>
<text text-anchor="middle" x="56" y="-159.2" font-family="Consolas" font-size="11.00">Wrapper</text>
</a>
</g>
</g>
<!-- dir_388dca3e850ea4f6c20a0a5d581a00eb&#45;&gt;dir_32ae260e71ac145f4ad9ccf9f4b6f83d -->
<g id="edge2" class="edge">
<title>dir_388dca3e850ea4f6c20a0a5d581a00eb&#45;&gt;dir_32ae260e71ac145f4ad9ccf9f4b6f83d</title>
<path fill="none" stroke="black" d="M56.49,-143.7C56.71,-135.98 56.98,-126.71 57.23,-118.11"/>
<polygon fill="black" stroke="black" points="60.72,-118.2 57.51,-108.1 53.73,-118 60.72,-118.2"/>
<g id="a_edge2&#45;headlabel"><a xlink:href="dir_000062_000050.html" target="_top" xlink:title="1">
<text text-anchor="middle" x="63.46" y="-119.07" font-family="Consolas" font-size="11.00">1</text>
</a>
</g>
</g>
<!-- dir_388dca3e850ea4f6c20a0a5d581a00eb&#45;&gt;dir_8c888e3f1190d8e08b273c29d1443e32 -->
<g id="edge3" class="edge">
<title>dir_388dca3e850ea4f6c20a0a5d581a00eb&#45;&gt;dir_8c888e3f1190d8e08b273c29d1443e32</title>
<path fill="none" stroke="black" d="M83.34,-143.77C95.11,-134.72 107.62,-122.48 114,-108 122.81,-88.02 116.09,-63.82 107.99,-45.7"/>
<polygon fill="black" stroke="black" points="110.95,-43.79 103.43,-36.33 104.65,-46.85 110.95,-43.79"/>
<g id="a_edge3&#45;headlabel"><a xlink:href="dir_000062_000011.html" target="_top" xlink:title="1">
<text text-anchor="middle" x="115.08" y="-42.99" font-family="Consolas" font-size="11.00">1</text>
</a>
</g>
</g>
</g>
</svg>
