<?xml version="1.0" encoding="UTF-8" standalone="no"?>
<!DOCTYPE svg PUBLIC "-//W3C//DTD SVG 1.1//EN"
 "http://www.w3.org/Graphics/SVG/1.1/DTD/svg11.dtd">
<!-- Generated by graphviz version 5.0.0 (0)
 -->
<!-- Title: Constraint/NodeLine.cpp Pages: 1 -->
<svg width="1321pt" height="656pt"
 viewBox="0.00 0.00 1321.41 656.00" xmlns="http://www.w3.org/2000/svg" xmlns:xlink="http://www.w3.org/1999/xlink">
<g id="graph0" class="graph" transform="scale(1 1) rotate(0) translate(4 652)">
<title>Constraint/NodeLine.cpp</title>
<!-- Node1 -->
<g id="node1" class="node">
<title>Node1</title>
<g id="a_node1"><a xlink:title=" ">
<polygon fill="#999999" stroke="#666666" points="432.5,-648 260.5,-648 260.5,-628 432.5,-628 432.5,-648"/>
<text text-anchor="middle" x="346.5" y="-635.2" font-family="Consolas" font-size="11.00">Constraint/NodeLine.cpp</text>
</a>
</g>
</g>
<!-- Node2 -->
<g id="node2" class="node">
<title>Node2</title>
<g id="a_node2"><a xlink:href="../../da/d31/_node_line_8h.html" target="_top" xlink:title=" ">
<polygon fill="white" stroke="#666666" points="322.5,-592 238.5,-592 238.5,-572 322.5,-572 322.5,-592"/>
<text text-anchor="middle" x="280.5" y="-579.2" font-family="Consolas" font-size="11.00">NodeLine.h</text>
</a>
</g>
</g>
<!-- Node1&#45;&gt;Node2 -->
<g id="edge1" class="edge">
<title>Node1&#45;&gt;Node2</title>
<path fill="none" stroke="#63b8ff" d="M335.3,-627.84C325.48,-619.8 310.99,-607.94 299.37,-598.44"/>
<polygon fill="#63b8ff" stroke="#63b8ff" points="301.49,-595.65 291.53,-592.03 297.05,-601.07 301.49,-595.65"/>
</g>
<!-- Node14 -->
<g id="node14" class="node">
<title>Node14</title>
<g id="a_node14"><a xlink:href="../../dc/df2/_domain_base_8h.html" target="_top" xlink:title=" ">
<polygon fill="white" stroke="#666666" points="506,-592 361,-592 361,-572 506,-572 506,-592"/>
<text text-anchor="middle" x="433.5" y="-579.2" font-family="Consolas" font-size="11.00">Domain/DomainBase.h</text>
</a>
</g>
</g>
<!-- Node1&#45;&gt;Node14 -->
<g id="edge13" class="edge">
<title>Node1&#45;&gt;Node14</title>
<path fill="none" stroke="#63b8ff" d="M361.26,-627.84C374.71,-619.49 394.81,-607.02 410.39,-597.34"/>
<polygon fill="#63b8ff" stroke="#63b8ff" points="412.31,-600.27 418.96,-592.03 408.62,-594.33 412.31,-600.27"/>
</g>
<!-- Node21 -->
<g id="node21" class="node">
<title>Node21</title>
<g id="a_node21"><a xlink:href="../../db/d65/_factory_8hpp.html" target="_top" xlink:title=" ">
<polygon fill="white" stroke="#666666" points="672.5,-592 534.5,-592 534.5,-572 672.5,-572 672.5,-592"/>
<text text-anchor="middle" x="603.5" y="-579.2" font-family="Consolas" font-size="11.00">Domain/Factory.hpp</text>
</a>
</g>
</g>
<!-- Node1&#45;&gt;Node21 -->
<g id="edge22" class="edge">
<title>Node1&#45;&gt;Node21</title>
<path fill="none" stroke="#63b8ff" d="M389.52,-627.96C433.81,-618.66 502.89,-604.14 550.52,-594.13"/>
<polygon fill="#63b8ff" stroke="#63b8ff" points="551.28,-597.55 560.34,-592.07 549.84,-590.7 551.28,-597.55"/>
</g>
<!-- Node38 -->
<g id="node38" class="node">
<title>Node38</title>
<g id="a_node38"><a xlink:href="../../d0/d20/_node_helper_8hpp.html" target="_top" xlink:title=" ">
<polygon fill="white" stroke="#666666" points="181.5,-592 23.5,-592 23.5,-572 181.5,-572 181.5,-592"/>
<text text-anchor="middle" x="102.5" y="-579.2" font-family="Consolas" font-size="11.00">Domain/NodeHelper.hpp</text>
</a>
</g>
</g>
<!-- Node1&#45;&gt;Node38 -->
<g id="edge49" class="edge">
<title>Node1&#45;&gt;Node38</title>
<path fill="none" stroke="#63b8ff" d="M305.66,-627.96C263.79,-618.69 198.57,-604.26 153.37,-594.26"/>
<polygon fill="#63b8ff" stroke="#63b8ff" points="153.99,-590.81 143.47,-592.07 152.48,-597.65 153.99,-590.81"/>
</g>
<!-- Node3 -->
<g id="node3" class="node">
<title>Node3</title>
<g id="a_node3"><a xlink:href="../../d4/d54/_constraint_8h.html" target="_top" xlink:title=" ">
<polygon fill="white" stroke="#666666" points="250.5,-530 152.5,-530 152.5,-510 250.5,-510 250.5,-530"/>
<text text-anchor="middle" x="201.5" y="-517.2" font-family="Consolas" font-size="11.00">Constraint.h</text>
</a>
</g>
</g>
<!-- Node2&#45;&gt;Node3 -->
<g id="edge2" class="edge">
<title>Node2&#45;&gt;Node3</title>
<path fill="none" stroke="#63b8ff" d="M268.5,-571.89C256.02,-562.41 236.26,-547.4 221.42,-536.13"/>
<polygon fill="#63b8ff" stroke="#63b8ff" points="223.43,-533.26 213.35,-530 219.2,-538.84 223.43,-533.26"/>
</g>
<!-- Node4 -->
<g id="node4" class="node">
<title>Node4</title>
<g id="a_node4"><a xlink:href="../../d1/d78/_conditional_modifier_8h.html" target="_top" xlink:title=" ">
<polygon fill="white" stroke="#666666" points="257.5,-468 51.5,-468 51.5,-448 257.5,-448 257.5,-468"/>
<text text-anchor="middle" x="154.5" y="-455.2" font-family="Consolas" font-size="11.00">Domain/ConditionalModifier.h</text>
</a>
</g>
</g>
<!-- Node3&#45;&gt;Node4 -->
<g id="edge3" class="edge">
<title>Node3&#45;&gt;Node4</title>
<path fill="none" stroke="#63b8ff" d="M194.36,-509.89C187.39,-500.99 176.61,-487.22 168.01,-476.25"/>
<polygon fill="#63b8ff" stroke="#63b8ff" points="170.63,-473.91 161.71,-468.2 165.12,-478.23 170.63,-473.91"/>
</g>
<!-- Node5 -->
<g id="node5" class="node">
<title>Node5</title>
<g id="a_node5"><a xlink:href="../../d2/d4a/_tag_8h.html" target="_top" xlink:title=" ">
<polygon fill="white" stroke="#666666" points="269.5,-412 171.5,-412 171.5,-392 269.5,-392 269.5,-412"/>
<text text-anchor="middle" x="220.5" y="-399.2" font-family="Consolas" font-size="11.00">Domain/Tag.h</text>
</a>
</g>
</g>
<!-- Node4&#45;&gt;Node5 -->
<g id="edge4" class="edge">
<title>Node4&#45;&gt;Node5</title>
<path fill="none" stroke="#63b8ff" d="M165.7,-447.84C175.52,-439.8 190.01,-427.94 201.63,-418.44"/>
<polygon fill="#63b8ff" stroke="#63b8ff" points="203.95,-421.07 209.47,-412.03 199.51,-415.65 203.95,-421.07"/>
</g>
<!-- Node6 -->
<g id="node6" class="node">
<title>Node6</title>
<g id="a_node6"><a xlink:href="../../d8/d8f/suan_pan_8h.html" target="_top" xlink:title=" ">
<polygon fill="white" stroke="#666666" points="742,-76 665,-76 665,-56 742,-56 742,-76"/>
<text text-anchor="middle" x="703.5" y="-63.2" font-family="Consolas" font-size="11.00">suanPan.h</text>
</a>
</g>
</g>
<!-- Node5&#45;&gt;Node6 -->
<g id="edge5" class="edge">
<title>Node5&#45;&gt;Node6</title>
<path fill="none" stroke="#63b8ff" d="M269.74,-396.64C331.81,-388.12 430.5,-363.23 430.5,-291 430.5,-291 430.5,-291 430.5,-177 430.5,-129.2 576.32,-92.51 654.82,-76.23"/>
<polygon fill="#63b8ff" stroke="#63b8ff" points="655.87,-79.59 664.96,-74.16 654.47,-72.73 655.87,-79.59"/>
</g>
<!-- Node7 -->
<g id="node7" class="node">
<title>Node7</title>
<g id="a_node7"><a xlink:title=" ">
<polygon fill="#e0e0e0" stroke="#999999" points="374,-20 303,-20 303,0 374,0 374,-20"/>
<text text-anchor="middle" x="338.5" y="-7.2" font-family="Consolas" font-size="11.00">iostream</text>
</a>
</g>
</g>
<!-- Node6&#45;&gt;Node7 -->
<g id="edge6" class="edge">
<title>Node6&#45;&gt;Node7</title>
<path fill="none" stroke="#63b8ff" d="M664.97,-60.31C606.57,-53.04 491.92,-38.16 384.38,-20.06"/>
<polygon fill="#63b8ff" stroke="#63b8ff" points="384.77,-16.58 374.33,-18.36 383.6,-23.48 384.77,-16.58"/>
</g>
<!-- Node8 -->
<g id="node8" class="node">
<title>Node8</title>
<g id="a_node8"><a xlink:title=" ">
<polygon fill="#e0e0e0" stroke="#999999" points="537,-20 392,-20 392,0 537,0 537,-20"/>
<text text-anchor="middle" x="464.5" y="-7.2" font-family="Consolas" font-size="11.00">armadillo/armadillo</text>
</a>
</g>
</g>
<!-- Node6&#45;&gt;Node8 -->
<g id="edge7" class="edge">
<title>Node6&#45;&gt;Node8</title>
<path fill="none" stroke="#63b8ff" d="M664.83,-56.26C623.93,-47.02 559.25,-32.41 514.5,-22.3"/>
<polygon fill="#63b8ff" stroke="#63b8ff" points="515.23,-18.87 504.71,-20.08 513.69,-25.7 515.23,-18.87"/>
</g>
<!-- Node9 -->
<g id="node9" class="node">
<title>Node9</title>
<g id="a_node9"><a xlink:title=" ">
<polygon fill="#e0e0e0" stroke="#999999" points="639.5,-20 555.5,-20 555.5,0 639.5,0 639.5,-20"/>
<text text-anchor="middle" x="597.5" y="-7.2" font-family="Consolas" font-size="11.00">filesystem</text>
</a>
</g>
</g>
<!-- Node6&#45;&gt;Node9 -->
<g id="edge8" class="edge">
<title>Node6&#45;&gt;Node9</title>
<path fill="none" stroke="#63b8ff" d="M685.52,-55.84C668.74,-47.29 643.49,-34.43 624.34,-24.67"/>
<polygon fill="#63b8ff" stroke="#63b8ff" points="625.72,-21.45 615.22,-20.03 622.54,-27.68 625.72,-21.45"/>
</g>
<!-- Node10 -->
<g id="node10" class="node">
<title>Node10</title>
<g id="a_node10"><a xlink:title=" ">
<polygon fill="#e0e0e0" stroke="#999999" points="749,-20 658,-20 658,0 749,0 749,-20"/>
<text text-anchor="middle" x="703.5" y="-7.2" font-family="Consolas" font-size="11.00">fmt/color.h</text>
</a>
</g>
</g>
<!-- Node6&#45;&gt;Node10 -->
<g id="edge9" class="edge">
<title>Node6&#45;&gt;Node10</title>
<path fill="none" stroke="#63b8ff" d="M703.5,-55.59C703.5,-48.7 703.5,-39.1 703.5,-30.57"/>
<polygon fill="#63b8ff" stroke="#63b8ff" points="707,-30.3 703.5,-20.3 700,-30.3 707,-30.3"/>
</g>
<!-- Node11 -->
<g id="node11" class="node">
<title>Node11</title>
<g id="a_node11"><a xlink:title=" ">
<polygon fill="#e0e0e0" stroke="#999999" points="817.5,-20 767.5,-20 767.5,0 817.5,0 817.5,-20"/>
<text text-anchor="middle" x="792.5" y="-7.2" font-family="Consolas" font-size="11.00">mutex</text>
</a>
</g>
</g>
<!-- Node6&#45;&gt;Node11 -->
<g id="edge10" class="edge">
<title>Node6&#45;&gt;Node11</title>
<path fill="none" stroke="#63b8ff" d="M718.6,-55.84C732.36,-47.49 752.92,-35.02 768.86,-25.34"/>
<polygon fill="#63b8ff" stroke="#63b8ff" points="770.89,-28.2 777.63,-20.03 767.26,-22.22 770.89,-28.2"/>
</g>
<!-- Node12 -->
<g id="node12" class="node">
<title>Node12</title>
<g id="a_node12"><a xlink:title=" ">
<polygon fill="#e0e0e0" stroke="#999999" points="919.5,-20 835.5,-20 835.5,0 919.5,0 919.5,-20"/>
<text text-anchor="middle" x="877.5" y="-7.2" font-family="Consolas" font-size="11.00">functional</text>
</a>
</g>
</g>
<!-- Node6&#45;&gt;Node12 -->
<g id="edge11" class="edge">
<title>Node6&#45;&gt;Node12</title>
<path fill="none" stroke="#63b8ff" d="M732.62,-55.96C761.61,-46.97 806.27,-33.11 838.35,-23.15"/>
<polygon fill="#63b8ff" stroke="#63b8ff" points="839.77,-26.37 848.28,-20.07 837.69,-19.69 839.77,-26.37"/>
</g>
<!-- Node13 -->
<g id="node13" class="node">
<title>Node13</title>
<g id="a_node13"><a xlink:title=" ">
<polygon fill="#e0e0e0" stroke="#999999" points="995,-20 938,-20 938,0 995,0 995,-20"/>
<text text-anchor="middle" x="966.5" y="-7.2" font-family="Consolas" font-size="11.00">memory</text>
</a>
</g>
</g>
<!-- Node6&#45;&gt;Node13 -->
<g id="edge12" class="edge">
<title>Node6&#45;&gt;Node13</title>
<path fill="none" stroke="#63b8ff" d="M742.21,-57.69C785.09,-49.49 856.53,-35.56 927.83,-20.08"/>
<polygon fill="#63b8ff" stroke="#63b8ff" points="928.87,-23.44 937.89,-17.89 927.37,-16.6 928.87,-23.44"/>
</g>
<!-- Node14&#45;&gt;Node5 -->
<g id="edge15" class="edge">
<title>Node14&#45;&gt;Node5</title>
<path fill="none" stroke="#63b8ff" d="M422.64,-571.93C388.39,-543.3 282.3,-454.65 239.1,-418.54"/>
<polygon fill="#63b8ff" stroke="#63b8ff" points="241.25,-415.78 231.33,-412.05 236.76,-421.15 241.25,-415.78"/>
</g>
<!-- Node15 -->
<g id="node15" class="node">
<title>Node15</title>
<g id="a_node15"><a xlink:title=" ">
<polygon fill="#e0e0e0" stroke="#999999" points="635,-530 578,-530 578,-510 635,-510 635,-530"/>
<text text-anchor="middle" x="606.5" y="-517.2" font-family="Consolas" font-size="11.00">future</text>
</a>
</g>
</g>
<!-- Node14&#45;&gt;Node15 -->
<g id="edge14" class="edge">
<title>Node14&#45;&gt;Node15</title>
<path fill="none" stroke="#63b8ff" d="M462.61,-571.98C490.28,-563.26 532.97,-549.43 569.5,-536 571.35,-535.32 573.25,-534.6 575.17,-533.87"/>
<polygon fill="#63b8ff" stroke="#63b8ff" points="576.66,-537.04 584.68,-530.12 574.09,-530.53 576.66,-537.04"/>
</g>
<!-- Node16 -->
<g id="node16" class="node">
<title>Node16</title>
<g id="a_node16"><a xlink:href="../../d4/ddd/container_8h.html" target="_top" xlink:title=" ">
<polygon fill="white" stroke="#666666" points="560,-530 415,-530 415,-510 560,-510 560,-530"/>
<text text-anchor="middle" x="487.5" y="-517.2" font-family="Consolas" font-size="11.00">Toolbox/container.h</text>
</a>
</g>
</g>
<!-- Node14&#45;&gt;Node16 -->
<g id="edge16" class="edge">
<title>Node14&#45;&gt;Node16</title>
<path fill="none" stroke="#63b8ff" d="M441.7,-571.89C449.79,-562.9 462.35,-548.95 472.27,-537.93"/>
<polygon fill="#63b8ff" stroke="#63b8ff" points="475.13,-539.97 479.22,-530.2 469.93,-535.29 475.13,-539.97"/>
</g>
<!-- Node16&#45;&gt;Node6 -->
<g id="edge17" class="edge">
<title>Node16&#45;&gt;Node6</title>
<path fill="none" stroke="#63b8ff" d="M536.18,-509.96C580.69,-500.77 642.14,-485.43 659.5,-468 680.74,-446.68 678.5,-433.1 678.5,-403 678.5,-403 678.5,-403 678.5,-177 678.5,-144.33 689.12,-107.53 696.51,-85.85"/>
<polygon fill="#63b8ff" stroke="#63b8ff" points="699.87,-86.85 699.92,-76.26 693.28,-84.51 699.87,-86.85"/>
</g>
<!-- Node17 -->
<g id="node17" class="node">
<title>Node17</title>
<g id="a_node17"><a xlink:title=" ">
<polygon fill="#e0e0e0" stroke="#999999" points="595,-468 558,-468 558,-448 595,-448 595,-468"/>
<text text-anchor="middle" x="576.5" y="-455.2" font-family="Consolas" font-size="11.00">set</text>
</a>
</g>
</g>
<!-- Node16&#45;&gt;Node17 -->
<g id="edge18" class="edge">
<title>Node16&#45;&gt;Node17</title>
<path fill="none" stroke="#63b8ff" d="M501.02,-509.89C515.21,-500.32 537.76,-485.12 554.52,-473.82"/>
<polygon fill="#63b8ff" stroke="#63b8ff" points="556.81,-476.49 563.15,-468 552.9,-470.69 556.81,-476.49"/>
</g>
<!-- Node18 -->
<g id="node18" class="node">
<title>Node18</title>
<g id="a_node18"><a xlink:title=" ">
<polygon fill="#e0e0e0" stroke="#999999" points="650,-468 613,-468 613,-448 650,-448 650,-468"/>
<text text-anchor="middle" x="631.5" y="-455.2" font-family="Consolas" font-size="11.00">map</text>
</a>
</g>
</g>
<!-- Node16&#45;&gt;Node18 -->
<g id="edge19" class="edge">
<title>Node16&#45;&gt;Node18</title>
<path fill="none" stroke="#63b8ff" d="M509.37,-509.89C534.46,-499.43 575.66,-482.27 603.18,-470.8"/>
<polygon fill="#63b8ff" stroke="#63b8ff" points="604.76,-473.93 612.64,-466.86 602.07,-467.47 604.76,-473.93"/>
</g>
<!-- Node19 -->
<g id="node19" class="node">
<title>Node19</title>
<g id="a_node19"><a xlink:title=" ">
<polygon fill="#e0e0e0" stroke="#999999" points="417.5,-468 313.5,-468 313.5,-448 417.5,-448 417.5,-468"/>
<text text-anchor="middle" x="365.5" y="-455.2" font-family="Consolas" font-size="11.00">unordered_set</text>
</a>
</g>
</g>
<!-- Node16&#45;&gt;Node19 -->
<g id="edge20" class="edge">
<title>Node16&#45;&gt;Node19</title>
<path fill="none" stroke="#63b8ff" d="M468.97,-509.89C448.7,-499.92 416.01,-483.84 392.8,-472.43"/>
<polygon fill="#63b8ff" stroke="#63b8ff" points="394.32,-469.27 383.8,-468 391.23,-475.56 394.32,-469.27"/>
</g>
<!-- Node20 -->
<g id="node20" class="node">
<title>Node20</title>
<g id="a_node20"><a xlink:title=" ">
<polygon fill="#e0e0e0" stroke="#999999" points="539.5,-468 435.5,-468 435.5,-448 539.5,-448 539.5,-468"/>
<text text-anchor="middle" x="487.5" y="-455.2" font-family="Consolas" font-size="11.00">unordered_map</text>
</a>
</g>
</g>
<!-- Node16&#45;&gt;Node20 -->
<g id="edge21" class="edge">
<title>Node16&#45;&gt;Node20</title>
<path fill="none" stroke="#63b8ff" d="M487.5,-509.89C487.5,-501.52 487.5,-488.84 487.5,-478.23"/>
<polygon fill="#63b8ff" stroke="#63b8ff" points="491,-478.2 487.5,-468.2 484,-478.2 491,-478.2"/>
</g>
<!-- Node21&#45;&gt;Node15 -->
<g id="edge23" class="edge">
<title>Node21&#45;&gt;Node15</title>
<path fill="none" stroke="#63b8ff" d="M603.96,-571.89C604.37,-563.52 605.01,-550.84 605.54,-540.23"/>
<polygon fill="#63b8ff" stroke="#63b8ff" points="609.04,-540.36 606.04,-530.2 602.04,-540.01 609.04,-540.36"/>
</g>
<!-- Node21&#45;&gt;Node16 -->
<g id="edge48" class="edge">
<title>Node21&#45;&gt;Node16</title>
<path fill="none" stroke="#63b8ff" d="M585.88,-571.89C566.78,-562.01 536.07,-546.12 514.05,-534.73"/>
<polygon fill="#63b8ff" stroke="#63b8ff" points="515.39,-531.49 504.9,-530 512.18,-537.7 515.39,-531.49"/>
</g>
<!-- Node22 -->
<g id="node22" class="node">
<title>Node22</title>
<g id="a_node22"><a xlink:href="../../da/dcc/operator__times_8hpp.html" target="_top" xlink:title=" ">
<polygon fill="white" stroke="#666666" points="851.5,-536 679.5,-536 679.5,-504 851.5,-504 851.5,-536"/>
<text text-anchor="start" x="687.5" y="-523.2" font-family="Consolas" font-size="11.00">Domain/MetaMat/operator</text>
<text text-anchor="middle" x="765.5" y="-511.2" font-family="Consolas" font-size="11.00">_times.hpp</text>
</a>
</g>
</g>
<!-- Node21&#45;&gt;Node22 -->
<g id="edge24" class="edge">
<title>Node21&#45;&gt;Node22</title>
<path fill="none" stroke="#63b8ff" d="M628.1,-571.89C651.17,-563.35 686.34,-550.32 715.32,-539.59"/>
<polygon fill="#63b8ff" stroke="#63b8ff" points="716.72,-542.8 724.89,-536.04 714.29,-536.23 716.72,-542.8"/>
</g>
<!-- Node23 -->
<g id="node23" class="node">
<title>Node23</title>
<g id="a_node23"><a xlink:href="../../d3/de0/_full_mat_8hpp.html" target="_top" xlink:title=" ">
<polygon fill="white" stroke="#666666" points="934,-468 843,-468 843,-448 934,-448 934,-468"/>
<text text-anchor="middle" x="888.5" y="-455.2" font-family="Consolas" font-size="11.00">FullMat.hpp</text>
</a>
</g>
</g>
<!-- Node22&#45;&gt;Node23 -->
<g id="edge25" class="edge">
<title>Node22&#45;&gt;Node23</title>
<path fill="none" stroke="#63b8ff" d="M796.54,-503.86C816.26,-494.24 841.58,-481.89 860.66,-472.58"/>
<polygon fill="#63b8ff" stroke="#63b8ff" points="862.28,-475.68 869.74,-468.15 859.21,-469.39 862.28,-475.68"/>
</g>
<!-- Node37 -->
<g id="node37" class="node">
<title>Node37</title>
<g id="a_node37"><a xlink:href="../../d0/d1a/_symm_pack_mat_8hpp.html" target="_top" xlink:title=" ">
<polygon fill="white" stroke="#666666" points="824.5,-468 706.5,-468 706.5,-448 824.5,-448 824.5,-468"/>
<text text-anchor="middle" x="765.5" y="-455.2" font-family="Consolas" font-size="11.00">SymmPackMat.hpp</text>
</a>
</g>
</g>
<!-- Node22&#45;&gt;Node37 -->
<g id="edge46" class="edge">
<title>Node22&#45;&gt;Node37</title>
<path fill="none" stroke="#63b8ff" d="M765.5,-503.86C765.5,-496.13 765.5,-486.63 765.5,-478.37"/>
<polygon fill="#63b8ff" stroke="#63b8ff" points="769,-478.15 765.5,-468.15 762,-478.15 769,-478.15"/>
</g>
<!-- Node24 -->
<g id="node24" class="node">
<title>Node24</title>
<g id="a_node24"><a xlink:href="../../de/d2a/_dense_mat_8hpp.html" target="_top" xlink:title=" ">
<polygon fill="white" stroke="#666666" points="936.5,-412 838.5,-412 838.5,-392 936.5,-392 936.5,-412"/>
<text text-anchor="middle" x="887.5" y="-399.2" font-family="Consolas" font-size="11.00">DenseMat.hpp</text>
</a>
</g>
</g>
<!-- Node23&#45;&gt;Node24 -->
<g id="edge26" class="edge">
<title>Node23&#45;&gt;Node24</title>
<path fill="none" stroke="#63b8ff" d="M888.33,-447.59C888.2,-440.7 888.02,-431.1 887.86,-422.57"/>
<polygon fill="#63b8ff" stroke="#63b8ff" points="891.36,-422.23 887.67,-412.3 884.36,-422.36 891.36,-422.23"/>
</g>
<!-- Node25 -->
<g id="node25" class="node">
<title>Node25</title>
<g id="a_node25"><a xlink:href="../../d3/d46/_meta_mat_8hpp.html" target="_top" xlink:title=" ">
<polygon fill="white" stroke="#666666" points="933,-356 842,-356 842,-336 933,-336 933,-356"/>
<text text-anchor="middle" x="887.5" y="-343.2" font-family="Consolas" font-size="11.00">MetaMat.hpp</text>
</a>
</g>
</g>
<!-- Node24&#45;&gt;Node25 -->
<g id="edge27" class="edge">
<title>Node24&#45;&gt;Node25</title>
<path fill="none" stroke="#63b8ff" d="M887.5,-391.59C887.5,-384.7 887.5,-375.1 887.5,-366.57"/>
<polygon fill="#63b8ff" stroke="#63b8ff" points="891,-366.3 887.5,-356.3 884,-366.3 891,-366.3"/>
</g>
<!-- Node26 -->
<g id="node26" class="node">
<title>Node26</title>
<g id="a_node26"><a xlink:href="../../df/df1/triplet__form_8hpp.html" target="_top" xlink:title=" ">
<polygon fill="white" stroke="#666666" points="1196,-188 1071,-188 1071,-168 1196,-168 1196,-188"/>
<text text-anchor="middle" x="1133.5" y="-175.2" font-family="Consolas" font-size="11.00">triplet_form.hpp</text>
</a>
</g>
</g>
<!-- Node25&#45;&gt;Node26 -->
<g id="edge28" class="edge">
<title>Node25&#45;&gt;Node26</title>
<path fill="none" stroke="#63b8ff" d="M933.23,-340.93C1031.89,-331.1 1259.5,-302.44 1305.5,-244 1336.2,-204.99 1266.14,-189.39 1206.4,-183.15"/>
<polygon fill="#63b8ff" stroke="#63b8ff" points="1206.45,-179.64 1196.16,-182.16 1205.78,-186.61 1206.45,-179.64"/>
</g>
<!-- Node30 -->
<g id="node30" class="node">
<title>Node30</title>
<g id="a_node30"><a xlink:href="../../df/d0c/_iterative_solver_8hpp.html" target="_top" xlink:title=" ">
<polygon fill="white" stroke="#666666" points="959,-300 814,-300 814,-280 959,-280 959,-300"/>
<text text-anchor="middle" x="886.5" y="-287.2" font-family="Consolas" font-size="11.00">IterativeSolver.hpp</text>
</a>
</g>
</g>
<!-- Node25&#45;&gt;Node30 -->
<g id="edge33" class="edge">
<title>Node25&#45;&gt;Node30</title>
<path fill="none" stroke="#63b8ff" d="M887.33,-335.59C887.2,-328.7 887.02,-319.1 886.86,-310.57"/>
<polygon fill="#63b8ff" stroke="#63b8ff" points="890.36,-310.23 886.67,-300.3 883.36,-310.36 890.36,-310.23"/>
</g>
<!-- Node33 -->
<g id="node33" class="node">
<title>Node33</title>
<g id="a_node33"><a xlink:href="../../db/d46/_i_l_u_8hpp.html" target="_top" xlink:title=" ">
<polygon fill="white" stroke="#666666" points="1041.5,-300 977.5,-300 977.5,-280 1041.5,-280 1041.5,-300"/>
<text text-anchor="middle" x="1009.5" y="-287.2" font-family="Consolas" font-size="11.00">ILU.hpp</text>
</a>
</g>
</g>
<!-- Node25&#45;&gt;Node33 -->
<g id="edge38" class="edge">
<title>Node25&#45;&gt;Node33</title>
<path fill="none" stroke="#63b8ff" d="M907.92,-335.96C927.54,-327.28 957.4,-314.06 979.68,-304.2"/>
<polygon fill="#63b8ff" stroke="#63b8ff" points="981.29,-307.32 989.01,-300.07 978.45,-300.91 981.29,-307.32"/>
</g>
<!-- Node36 -->
<g id="node36" class="node">
<title>Node36</title>
<g id="a_node36"><a xlink:href="../../dc/d70/_jacobi_8hpp.html" target="_top" xlink:title=" ">
<polygon fill="white" stroke="#666666" points="793.5,-300 709.5,-300 709.5,-280 793.5,-280 793.5,-300"/>
<text text-anchor="middle" x="751.5" y="-287.2" font-family="Consolas" font-size="11.00">Jacobi.hpp</text>
</a>
</g>
</g>
<!-- Node25&#45;&gt;Node36 -->
<g id="edge44" class="edge">
<title>Node25&#45;&gt;Node36</title>
<path fill="none" stroke="#63b8ff" d="M864.74,-335.96C842.57,-327.16 808.68,-313.7 783.74,-303.8"/>
<polygon fill="#63b8ff" stroke="#63b8ff" points="784.92,-300.51 774.34,-300.07 782.34,-307.01 784.92,-300.51"/>
</g>
<!-- Node27 -->
<g id="node27" class="node">
<title>Node27</title>
<g id="a_node27"><a xlink:href="../../d5/d47/utility_8h.html" target="_top" xlink:title=" ">
<polygon fill="white" stroke="#666666" points="970,-132 839,-132 839,-112 970,-112 970,-132"/>
<text text-anchor="middle" x="904.5" y="-119.2" font-family="Consolas" font-size="11.00">Toolbox/utility.h</text>
</a>
</g>
</g>
<!-- Node26&#45;&gt;Node27 -->
<g id="edge29" class="edge">
<title>Node26&#45;&gt;Node27</title>
<path fill="none" stroke="#63b8ff" d="M1095.17,-167.96C1056.04,-158.73 995.17,-144.38 952.78,-134.38"/>
<polygon fill="#63b8ff" stroke="#63b8ff" points="953.49,-130.96 942.95,-132.07 951.88,-137.77 953.49,-130.96"/>
</g>
<!-- Node29 -->
<g id="node29" class="node">
<title>Node29</title>
<g id="a_node29"><a xlink:title=" ">
<polygon fill="#e0e0e0" stroke="#999999" points="1165.5,-132 1101.5,-132 1101.5,-112 1165.5,-112 1165.5,-132"/>
<text text-anchor="middle" x="1133.5" y="-119.2" font-family="Consolas" font-size="11.00">numeric</text>
</a>
</g>
</g>
<!-- Node26&#45;&gt;Node29 -->
<g id="edge32" class="edge">
<title>Node26&#45;&gt;Node29</title>
<path fill="none" stroke="#63b8ff" d="M1133.5,-167.59C1133.5,-160.7 1133.5,-151.1 1133.5,-142.57"/>
<polygon fill="#63b8ff" stroke="#63b8ff" points="1137,-142.3 1133.5,-132.3 1130,-142.3 1137,-142.3"/>
</g>
<!-- Node27&#45;&gt;Node6 -->
<g id="edge31" class="edge">
<title>Node27&#45;&gt;Node6</title>
<path fill="none" stroke="#63b8ff" d="M870.86,-111.96C836.94,-102.85 784.44,-88.74 747.29,-78.77"/>
<polygon fill="#63b8ff" stroke="#63b8ff" points="747.82,-75.28 737.25,-76.07 746,-82.04 747.82,-75.28"/>
</g>
<!-- Node28 -->
<g id="node28" class="node">
<title>Node28</title>
<g id="a_node28"><a xlink:title=" ">
<polygon fill="#e0e0e0" stroke="#999999" points="940,-76 869,-76 869,-56 940,-56 940,-76"/>
<text text-anchor="middle" x="904.5" y="-63.2" font-family="Consolas" font-size="11.00">concepts</text>
</a>
</g>
</g>
<!-- Node27&#45;&gt;Node28 -->
<g id="edge30" class="edge">
<title>Node27&#45;&gt;Node28</title>
<path fill="none" stroke="#63b8ff" d="M904.5,-111.59C904.5,-104.7 904.5,-95.1 904.5,-86.57"/>
<polygon fill="#63b8ff" stroke="#63b8ff" points="908,-86.3 904.5,-76.3 901,-86.3 908,-86.3"/>
</g>
<!-- Node30&#45;&gt;Node27 -->
<g id="edge34" class="edge">
<title>Node30&#45;&gt;Node27</title>
<path fill="none" stroke="#63b8ff" d="M887.52,-279.6C890.38,-253.23 898.52,-178.19 902.39,-142.42"/>
<polygon fill="#63b8ff" stroke="#63b8ff" points="905.89,-142.62 903.49,-132.3 898.93,-141.86 905.89,-142.62"/>
</g>
<!-- Node31 -->
<g id="node31" class="node">
<title>Node31</title>
<g id="a_node31"><a xlink:href="../../d7/de3/_solver_setting_8hpp.html" target="_top" xlink:title=" ">
<polygon fill="white" stroke="#666666" points="876,-244 745,-244 745,-224 876,-224 876,-244"/>
<text text-anchor="middle" x="810.5" y="-231.2" font-family="Consolas" font-size="11.00">SolverSetting.hpp</text>
</a>
</g>
</g>
<!-- Node30&#45;&gt;Node31 -->
<g id="edge35" class="edge">
<title>Node30&#45;&gt;Node31</title>
<path fill="none" stroke="#63b8ff" d="M873.61,-279.84C862.07,-271.64 844.95,-259.48 831.46,-249.89"/>
<polygon fill="#63b8ff" stroke="#63b8ff" points="833.38,-246.96 823.2,-244.03 829.33,-252.67 833.38,-246.96"/>
</g>
<!-- Node32 -->
<g id="node32" class="node">
<title>Node32</title>
<g id="a_node32"><a xlink:href="../../d7/de4/_preconditioner_8hpp.html" target="_top" xlink:title=" ">
<polygon fill="white" stroke="#666666" points="860.5,-188 722.5,-188 722.5,-168 860.5,-168 860.5,-188"/>
<text text-anchor="middle" x="791.5" y="-175.2" font-family="Consolas" font-size="11.00">Preconditioner.hpp</text>
</a>
</g>
</g>
<!-- Node31&#45;&gt;Node32 -->
<g id="edge36" class="edge">
<title>Node31&#45;&gt;Node32</title>
<path fill="none" stroke="#63b8ff" d="M807.19,-223.59C804.71,-216.55 801.24,-206.67 798.19,-198"/>
<polygon fill="#63b8ff" stroke="#63b8ff" points="801.39,-196.57 794.77,-188.3 794.79,-198.89 801.39,-196.57"/>
</g>
<!-- Node32&#45;&gt;Node6 -->
<g id="edge37" class="edge">
<title>Node32&#45;&gt;Node6</title>
<path fill="none" stroke="#63b8ff" d="M784.3,-168C769.67,-149.71 736.24,-107.93 717.29,-84.24"/>
<polygon fill="#63b8ff" stroke="#63b8ff" points="719.78,-81.75 710.8,-76.13 714.31,-86.12 719.78,-81.75"/>
</g>
<!-- Node33&#45;&gt;Node26 -->
<g id="edge43" class="edge">
<title>Node33&#45;&gt;Node26</title>
<path fill="none" stroke="#63b8ff" d="M1004.21,-279.63C997.32,-266.04 987.5,-240.69 999.5,-224 1013.85,-204.04 1037.5,-192.81 1060.96,-186.53"/>
<polygon fill="#63b8ff" stroke="#63b8ff" points="1062.06,-189.87 1070.97,-184.14 1060.43,-183.06 1062.06,-189.87"/>
</g>
<!-- Node33&#45;&gt;Node32 -->
<g id="edge40" class="edge">
<title>Node33&#45;&gt;Node32</title>
<path fill="none" stroke="#63b8ff" d="M992.75,-279.97C969.02,-267.24 924.18,-243.39 885.5,-224 863.74,-213.09 838.88,-201.22 820.2,-192.41"/>
<polygon fill="#63b8ff" stroke="#63b8ff" points="821.58,-189.19 811.04,-188.1 818.6,-195.53 821.58,-189.19"/>
</g>
<!-- Node34 -->
<g id="node34" class="node">
<title>Node34</title>
<g id="a_node34"><a xlink:title=" ">
<polygon fill="#e0e0e0" stroke="#999999" points="1180.5,-244 1008.5,-244 1008.5,-224 1180.5,-224 1180.5,-244"/>
<text text-anchor="middle" x="1094.5" y="-231.2" font-family="Consolas" font-size="11.00">superlu&#45;mt/superlu&#45;mt.h</text>
</a>
</g>
</g>
<!-- Node33&#45;&gt;Node34 -->
<g id="edge39" class="edge">
<title>Node33&#45;&gt;Node34</title>
<path fill="none" stroke="#63b8ff" d="M1023.92,-279.84C1036.94,-271.57 1056.33,-259.25 1071.49,-249.62"/>
<polygon fill="#63b8ff" stroke="#63b8ff" points="1073.73,-252.34 1080.29,-244.03 1069.98,-246.43 1073.73,-252.34"/>
</g>
<!-- Node35 -->
<g id="node35" class="node">
<title>Node35</title>
<g id="a_node35"><a xlink:href="../../d6/dc3/csc__form_8hpp.html" target="_top" xlink:title=" ">
<polygon fill="white" stroke="#666666" points="1296.5,-244 1198.5,-244 1198.5,-224 1296.5,-224 1296.5,-244"/>
<text text-anchor="middle" x="1247.5" y="-231.2" font-family="Consolas" font-size="11.00">csc_form.hpp</text>
</a>
</g>
</g>
<!-- Node33&#45;&gt;Node35 -->
<g id="edge41" class="edge">
<title>Node33&#45;&gt;Node35</title>
<path fill="none" stroke="#63b8ff" d="M1041.6,-281.72C1081.67,-272.63 1150.65,-256.97 1197.63,-246.32"/>
<polygon fill="#63b8ff" stroke="#63b8ff" points="1198.62,-249.68 1207.59,-244.05 1197.07,-242.85 1198.62,-249.68"/>
</g>
<!-- Node35&#45;&gt;Node26 -->
<g id="edge42" class="edge">
<title>Node35&#45;&gt;Node26</title>
<path fill="none" stroke="#63b8ff" d="M1228.42,-223.96C1210.25,-215.36 1182.68,-202.3 1161.93,-192.47"/>
<polygon fill="#63b8ff" stroke="#63b8ff" points="1163.18,-189.19 1152.64,-188.07 1160.18,-195.51 1163.18,-189.19"/>
</g>
<!-- Node36&#45;&gt;Node32 -->
<g id="edge45" class="edge">
<title>Node36&#45;&gt;Node32</title>
<path fill="none" stroke="#63b8ff" d="M745.71,-279.76C738.37,-266.78 727.67,-242.63 736.5,-224 742.5,-211.33 754.01,-201.04 764.96,-193.52"/>
<polygon fill="#63b8ff" stroke="#63b8ff" points="766.94,-196.41 773.5,-188.08 763.18,-190.5 766.94,-196.41"/>
</g>
<!-- Node37&#45;&gt;Node24 -->
<g id="edge47" class="edge">
<title>Node37&#45;&gt;Node24</title>
<path fill="none" stroke="#63b8ff" d="M785.92,-447.96C805.54,-439.28 835.4,-426.06 857.68,-416.2"/>
<polygon fill="#63b8ff" stroke="#63b8ff" points="859.29,-419.32 867.01,-412.07 856.45,-412.91 859.29,-419.32"/>
</g>
<!-- Node39 -->
<g id="node39" class="node">
<title>Node39</title>
<g id="a_node39"><a xlink:href="../../da/da5/_d_o_f_8h.html" target="_top" xlink:title=" ">
<polygon fill="white" stroke="#666666" points="127.5,-530 77.5,-530 77.5,-510 127.5,-510 127.5,-530"/>
<text text-anchor="middle" x="102.5" y="-517.2" font-family="Consolas" font-size="11.00">DOF.h</text>
</a>
</g>
</g>
<!-- Node38&#45;&gt;Node39 -->
<g id="edge50" class="edge">
<title>Node38&#45;&gt;Node39</title>
<path fill="none" stroke="#63b8ff" d="M102.5,-571.89C102.5,-563.52 102.5,-550.84 102.5,-540.23"/>
<polygon fill="#63b8ff" stroke="#63b8ff" points="106,-540.2 102.5,-530.2 99,-540.2 106,-540.2"/>
</g>
<!-- Node40 -->
<g id="node40" class="node">
<title>Node40</title>
<g id="a_node40"><a xlink:href="../../d1/d02/_node_8h.html" target="_top" xlink:title=" ">
<polygon fill="white" stroke="#666666" points="57,-530 0,-530 0,-510 57,-510 57,-530"/>
<text text-anchor="middle" x="28.5" y="-517.2" font-family="Consolas" font-size="11.00">Node.h</text>
</a>
</g>
</g>
<!-- Node38&#45;&gt;Node40 -->
<g id="edge51" class="edge">
<title>Node38&#45;&gt;Node40</title>
<path fill="none" stroke="#63b8ff" d="M91.26,-571.89C79.74,-562.55 61.61,-547.85 47.79,-536.64"/>
<polygon fill="#63b8ff" stroke="#63b8ff" points="49.82,-533.78 39.84,-530.2 45.41,-539.22 49.82,-533.78"/>
</g>
<!-- Node40&#45;&gt;Node5 -->
<g id="edge52" class="edge">
<title>Node40&#45;&gt;Node5</title>
<path fill="none" stroke="#63b8ff" d="M27.46,-509.78C26.32,-494.75 26.42,-464.96 42.5,-448 58.76,-430.85 115.91,-418.47 161.12,-411.09"/>
<polygon fill="#63b8ff" stroke="#63b8ff" points="161.82,-414.52 171.15,-409.5 160.72,-407.61 161.82,-414.52"/>
</g>
</g>
</svg>
