<?xml version="1.0" encoding="UTF-8" standalone="no"?>
<!DOCTYPE svg PUBLIC "-//W3C//DTD SVG 1.1//EN"
 "http://www.w3.org/Graphics/SVG/1.1/DTD/svg11.dtd">
<!-- Generated by graphviz version 2.43.0 (0)
 -->
<!-- Title: MaterialElement1D Pages: 1 -->
<!--zoomable 1347 -->
<svg id="main" version="1.1" xmlns="http://www.w3.org/2000/svg" xmlns:xlink="http://www.w3.org/1999/xlink" xml:space="preserve" onload="init(evt)">
<style type="text/css"><![CDATA[
.edge:hover path { stroke: red; }
.edge:hover polygon { stroke: red; fill: red; }
]]></style>
<script type="text/javascript"><![CDATA[
var edges = document.getElementsByTagName('g');
if (edges && edges.length) {
  for (var i=0;i<edges.length;i++) {
    if (edges[i].id.substr(0,4)=='edge') {
      edges[i].setAttribute('class','edge');
    }
  }
}
]]></script>
        <defs>
                <circle id="rim" cx="0" cy="0" r="7"/>
                <circle id="rim2" cx="0" cy="0" r="3.5"/>
                <g id="zoomPlus">
                        <use xlink:href="#rim" fill="#404040">
                                <set attributeName="fill" to="#808080" begin="zoomplus.mouseover" end="zoomplus.mouseout"/>
                        </use>
                        <path d="M-4,0h8M0,-4v8" fill="none" stroke="white" stroke-width="1.5" pointer-events="none"/>
                </g>
                <g id="zoomMin">
                        <use xlink:href="#rim" fill="#404040">
                                <set attributeName="fill" to="#808080" begin="zoomminus.mouseover" end="zoomminus.mouseout"/>
                        </use>
                        <path d="M-4,0h8" fill="none" stroke="white" stroke-width="1.5" pointer-events="none"/>
                </g>
                <g id="dirArrow">
                        <path fill="none" stroke="white" stroke-width="1.5" d="M0,-3.0v7 M-2.5,-0.5L0,-3.0L2.5,-0.5"/>
                </g>
               <g id="resetDef">
                       <use xlink:href="#rim2" fill="#404040">
                               <set attributeName="fill" to="#808080" begin="reset.mouseover" end="reset.mouseout"/>
                       </use>
               </g>
        </defs>

<script type="text/javascript">
var viewWidth = 1339;
var viewHeight = 1347;
var sectionId = 'dynsection-0';
</script>
<script xlink:href="../../svgpan.js"/>
<svg id="graph" class="graph">
<g id="viewport">
<title>MaterialElement1D</title>
<polygon fill="white" stroke="transparent" points="-4,4 -4,-1343 1334.5,-1343 1334.5,4 -4,4"/>
<!-- Node1 -->
<g id="node1" class="node">
<title>Node1</title>
<g id="a_node1"><a xlink:title=" ">
<polygon fill="#bfbfbf" stroke="black" points="590,-338.5 590,-398.5 748,-398.5 748,-338.5 590,-338.5"/>
<text text-anchor="middle" x="669" y="-385.7" font-family="Consolas" font-size="11.00">MaterialElement1D</text>
<polyline fill="none" stroke="black" points="590,-378.5 748,-378.5 "/>
<text text-anchor="middle" x="669" y="-365.7" font-family="Consolas" font-size="11.00"> </text>
<polyline fill="none" stroke="black" points="590,-358.5 748,-358.5 "/>
<text text-anchor="start" x="598" y="-345.7" font-family="Consolas" font-size="11.00">+ MaterialElement1D()</text>
</a>
</g>
</g>
<!-- Node8 -->
<g id="node8" class="node">
<title>Node8</title>
<g id="a_node8"><a xlink:href="../../d6/dd5/class_damper01.html" target="_top" xlink:title="A Damper01 class.">
<polygon fill="white" stroke="black" points="0,-109.5 0,-301.5 138,-301.5 138,-109.5 0,-109.5"/>
<text text-anchor="middle" x="69" y="-288.7" font-family="Consolas" font-size="11.00">Damper01</text>
<polyline fill="none" stroke="black" points="0,-281.5 138,-281.5 "/>
<text text-anchor="start" x="8" y="-268.7" font-family="Consolas" font-size="11.00"># d_size</text>
<text text-anchor="start" x="8" y="-256.7" font-family="Consolas" font-size="11.00"># IS</text>
<text text-anchor="start" x="8" y="-244.7" font-family="Consolas" font-size="11.00"># JS</text>
<text text-anchor="start" x="8" y="-232.7" font-family="Consolas" font-size="11.00"># direction_cosine</text>
<text text-anchor="start" x="8" y="-220.7" font-family="Consolas" font-size="11.00"># damper</text>
<polyline fill="none" stroke="black" points="0,-213.5 138,-213.5 "/>
<text text-anchor="start" x="8" y="-200.7" font-family="Consolas" font-size="11.00">+ Damper01()</text>
<text text-anchor="start" x="8" y="-188.7" font-family="Consolas" font-size="11.00">+ initialize()</text>
<text text-anchor="start" x="8" y="-176.7" font-family="Consolas" font-size="11.00">+ update_status()</text>
<text text-anchor="start" x="8" y="-164.7" font-family="Consolas" font-size="11.00">+ commit_status()</text>
<text text-anchor="start" x="8" y="-152.7" font-family="Consolas" font-size="11.00">+ clear_status()</text>
<text text-anchor="start" x="8" y="-140.7" font-family="Consolas" font-size="11.00">+ reset_status()</text>
<text text-anchor="start" x="8" y="-128.7" font-family="Consolas" font-size="11.00">+ record()</text>
<text text-anchor="start" x="8" y="-116.7" font-family="Consolas" font-size="11.00">+ print()</text>
</a>
</g>
</g>
<!-- Node1&#45;&gt;Node8 -->
<g id="edge7" class="edge">
<title>Node1&#45;&gt;Node8</title>
<path fill="none" stroke="midnightblue" d="M579.67,-364.24C450.57,-358.21 219.36,-342.04 147,-302 144,-300.34 141.08,-298.52 138.22,-296.56"/>
<polygon fill="none" stroke="midnightblue" points="579.78,-367.75 589.93,-364.71 580.1,-360.76 579.78,-367.75"/>
</g>
<!-- Node10 -->
<g id="node10" class="node">
<title>Node10</title>
<g id="a_node10"><a xlink:href="../../dd/d8d/class_damper02.html" target="_top" xlink:title="A Damper02 class.">
<polygon fill="white" stroke="black" points="156.5,-133.5 156.5,-277.5 287.5,-277.5 287.5,-133.5 156.5,-133.5"/>
<text text-anchor="middle" x="222" y="-264.7" font-family="Consolas" font-size="11.00">Damper02</text>
<polyline fill="none" stroke="black" points="156.5,-257.5 287.5,-257.5 "/>
<text text-anchor="middle" x="222" y="-244.7" font-family="Consolas" font-size="11.00"> </text>
<polyline fill="none" stroke="black" points="156.5,-237.5 287.5,-237.5 "/>
<text text-anchor="start" x="164.5" y="-224.7" font-family="Consolas" font-size="11.00">+ Damper02()</text>
<text text-anchor="start" x="164.5" y="-212.7" font-family="Consolas" font-size="11.00">+ initialize()</text>
<text text-anchor="start" x="164.5" y="-200.7" font-family="Consolas" font-size="11.00">+ update_status()</text>
<text text-anchor="start" x="164.5" y="-188.7" font-family="Consolas" font-size="11.00">+ commit_status()</text>
<text text-anchor="start" x="164.5" y="-176.7" font-family="Consolas" font-size="11.00">+ clear_status()</text>
<text text-anchor="start" x="164.5" y="-164.7" font-family="Consolas" font-size="11.00">+ reset_status()</text>
<text text-anchor="start" x="164.5" y="-152.7" font-family="Consolas" font-size="11.00">+ record()</text>
<text text-anchor="start" x="164.5" y="-140.7" font-family="Consolas" font-size="11.00">+ print()</text>
</a>
</g>
</g>
<!-- Node1&#45;&gt;Node10 -->
<g id="edge9" class="edge">
<title>Node1&#45;&gt;Node10</title>
<path fill="none" stroke="midnightblue" d="M579.53,-359.26C484.78,-349.23 342.58,-330.09 296,-302 285.4,-295.61 275.76,-287.09 267.19,-277.77"/>
<polygon fill="none" stroke="midnightblue" points="579.38,-362.76 589.69,-360.32 580.11,-355.8 579.38,-362.76"/>
</g>
<!-- Node11 -->
<g id="node11" class="node">
<title>Node11</title>
<g id="a_node11"><a xlink:href="../../d7/d36/class_e_b21.html" target="_top" xlink:title="The ElasticB21 class.">
<polygon fill="white" stroke="black" points="305.5,-133.5 305.5,-277.5 436.5,-277.5 436.5,-133.5 305.5,-133.5"/>
<text text-anchor="middle" x="371" y="-264.7" font-family="Consolas" font-size="11.00">EB21</text>
<polyline fill="none" stroke="black" points="305.5,-257.5 436.5,-257.5 "/>
<text text-anchor="middle" x="371" y="-244.7" font-family="Consolas" font-size="11.00"> </text>
<polyline fill="none" stroke="black" points="305.5,-237.5 436.5,-237.5 "/>
<text text-anchor="start" x="313.5" y="-224.7" font-family="Consolas" font-size="11.00">+ EB21()</text>
<text text-anchor="start" x="313.5" y="-212.7" font-family="Consolas" font-size="11.00">+ initialize()</text>
<text text-anchor="start" x="313.5" y="-200.7" font-family="Consolas" font-size="11.00">+ update_status()</text>
<text text-anchor="start" x="313.5" y="-188.7" font-family="Consolas" font-size="11.00">+ commit_status()</text>
<text text-anchor="start" x="313.5" y="-176.7" font-family="Consolas" font-size="11.00">+ clear_status()</text>
<text text-anchor="start" x="313.5" y="-164.7" font-family="Consolas" font-size="11.00">+ reset_status()</text>
<text text-anchor="start" x="313.5" y="-152.7" font-family="Consolas" font-size="11.00">+ record()</text>
<text text-anchor="start" x="313.5" y="-140.7" font-family="Consolas" font-size="11.00">+ print()</text>
</a>
</g>
</g>
<!-- Node1&#45;&gt;Node11 -->
<g id="edge10" class="edge">
<title>Node1&#45;&gt;Node11</title>
<path fill="none" stroke="midnightblue" d="M579.93,-354.73C536.44,-345.33 485,-329.25 445,-302 435.12,-295.27 425.97,-286.8 417.72,-277.7"/>
<polygon fill="none" stroke="midnightblue" points="579.44,-358.2 589.94,-356.81 580.86,-351.35 579.44,-358.2"/>
</g>
<!-- Node12 -->
<g id="node12" class="node">
<title>Node12</title>
<g id="a_node12"><a xlink:href="../../d6/dd7/class_joint.html" target="_top" xlink:title="The Joint class.">
<polygon fill="white" stroke="black" points="454.5,-133.5 454.5,-277.5 585.5,-277.5 585.5,-133.5 454.5,-133.5"/>
<text text-anchor="middle" x="520" y="-264.7" font-family="Consolas" font-size="11.00">Joint</text>
<polyline fill="none" stroke="black" points="454.5,-257.5 585.5,-257.5 "/>
<text text-anchor="middle" x="520" y="-244.7" font-family="Consolas" font-size="11.00"> </text>
<polyline fill="none" stroke="black" points="454.5,-237.5 585.5,-237.5 "/>
<text text-anchor="start" x="462.5" y="-224.7" font-family="Consolas" font-size="11.00">+ Joint()</text>
<text text-anchor="start" x="462.5" y="-212.7" font-family="Consolas" font-size="11.00">+ initialize()</text>
<text text-anchor="start" x="462.5" y="-200.7" font-family="Consolas" font-size="11.00">+ update_status()</text>
<text text-anchor="start" x="462.5" y="-188.7" font-family="Consolas" font-size="11.00">+ commit_status()</text>
<text text-anchor="start" x="462.5" y="-176.7" font-family="Consolas" font-size="11.00">+ clear_status()</text>
<text text-anchor="start" x="462.5" y="-164.7" font-family="Consolas" font-size="11.00">+ reset_status()</text>
<text text-anchor="start" x="462.5" y="-152.7" font-family="Consolas" font-size="11.00">+ record()</text>
<text text-anchor="start" x="462.5" y="-140.7" font-family="Consolas" font-size="11.00">+ print()</text>
</a>
</g>
</g>
<!-- Node1&#45;&gt;Node12 -->
<g id="edge11" class="edge">
<title>Node1&#45;&gt;Node12</title>
<path fill="none" stroke="midnightblue" d="M625.03,-331.62C614.5,-322.35 603.54,-312.12 594,-302 586.8,-294.37 579.6,-286.08 572.66,-277.67"/>
<polygon fill="none" stroke="midnightblue" points="622.76,-334.28 632.6,-338.19 627.34,-328.99 622.76,-334.28"/>
</g>
<!-- Node13 -->
<g id="node13" class="node">
<title>Node13</title>
<g id="a_node13"><a xlink:href="../../dd/dfa/class_m_v_l_e_m.html" target="_top" xlink:title="The MVLEM class.">
<polygon fill="white" stroke="black" points="603.5,-133.5 603.5,-277.5 734.5,-277.5 734.5,-133.5 603.5,-133.5"/>
<text text-anchor="middle" x="669" y="-264.7" font-family="Consolas" font-size="11.00">MVLEM</text>
<polyline fill="none" stroke="black" points="603.5,-257.5 734.5,-257.5 "/>
<text text-anchor="middle" x="669" y="-244.7" font-family="Consolas" font-size="11.00"> </text>
<polyline fill="none" stroke="black" points="603.5,-237.5 734.5,-237.5 "/>
<text text-anchor="start" x="611.5" y="-224.7" font-family="Consolas" font-size="11.00">+ MVLEM()</text>
<text text-anchor="start" x="611.5" y="-212.7" font-family="Consolas" font-size="11.00">+ initialize()</text>
<text text-anchor="start" x="611.5" y="-200.7" font-family="Consolas" font-size="11.00">+ update_status()</text>
<text text-anchor="start" x="611.5" y="-188.7" font-family="Consolas" font-size="11.00">+ commit_status()</text>
<text text-anchor="start" x="611.5" y="-176.7" font-family="Consolas" font-size="11.00">+ clear_status()</text>
<text text-anchor="start" x="611.5" y="-164.7" font-family="Consolas" font-size="11.00">+ reset_status()</text>
<text text-anchor="start" x="611.5" y="-152.7" font-family="Consolas" font-size="11.00">+ record()</text>
<text text-anchor="start" x="611.5" y="-140.7" font-family="Consolas" font-size="11.00">+ print()</text>
</a>
</g>
</g>
<!-- Node1&#45;&gt;Node13 -->
<g id="edge12" class="edge">
<title>Node1&#45;&gt;Node13</title>
<path fill="none" stroke="midnightblue" d="M669,-328.25C669,-312.98 669,-294.99 669,-277.6"/>
<polygon fill="none" stroke="midnightblue" points="665.5,-328.34 669,-338.34 672.5,-328.34 665.5,-328.34"/>
</g>
<!-- Node14 -->
<g id="node14" class="node">
<title>Node14</title>
<g id="a_node14"><a xlink:href="../../d2/d40/class_spring01.html" target="_top" xlink:title="The Spring01 class.">
<polygon fill="white" stroke="black" points="752.5,-133.5 752.5,-277.5 883.5,-277.5 883.5,-133.5 752.5,-133.5"/>
<text text-anchor="middle" x="818" y="-264.7" font-family="Consolas" font-size="11.00">Spring01</text>
<polyline fill="none" stroke="black" points="752.5,-257.5 883.5,-257.5 "/>
<text text-anchor="middle" x="818" y="-244.7" font-family="Consolas" font-size="11.00"> </text>
<polyline fill="none" stroke="black" points="752.5,-237.5 883.5,-237.5 "/>
<text text-anchor="start" x="760.5" y="-224.7" font-family="Consolas" font-size="11.00">+ Spring01()</text>
<text text-anchor="start" x="760.5" y="-212.7" font-family="Consolas" font-size="11.00">+ initialize()</text>
<text text-anchor="start" x="760.5" y="-200.7" font-family="Consolas" font-size="11.00">+ update_status()</text>
<text text-anchor="start" x="760.5" y="-188.7" font-family="Consolas" font-size="11.00">+ commit_status()</text>
<text text-anchor="start" x="760.5" y="-176.7" font-family="Consolas" font-size="11.00">+ clear_status()</text>
<text text-anchor="start" x="760.5" y="-164.7" font-family="Consolas" font-size="11.00">+ reset_status()</text>
<text text-anchor="start" x="760.5" y="-152.7" font-family="Consolas" font-size="11.00">+ record()</text>
<text text-anchor="start" x="760.5" y="-140.7" font-family="Consolas" font-size="11.00">+ print()</text>
</a>
</g>
</g>
<!-- Node1&#45;&gt;Node14 -->
<g id="edge13" class="edge">
<title>Node1&#45;&gt;Node14</title>
<path fill="none" stroke="midnightblue" d="M712.97,-331.62C723.5,-322.35 734.46,-312.12 744,-302 751.2,-294.37 758.4,-286.08 765.34,-277.67"/>
<polygon fill="none" stroke="midnightblue" points="710.66,-328.99 705.4,-338.19 715.24,-334.28 710.66,-328.99"/>
</g>
<!-- Node15 -->
<g id="node15" class="node">
<title>Node15</title>
<g id="a_node15"><a xlink:href="../../d6/d1f/class_spring02.html" target="_top" xlink:title="The Spring02 class.">
<polygon fill="white" stroke="black" points="901.5,-133.5 901.5,-277.5 1032.5,-277.5 1032.5,-133.5 901.5,-133.5"/>
<text text-anchor="middle" x="967" y="-264.7" font-family="Consolas" font-size="11.00">Spring02</text>
<polyline fill="none" stroke="black" points="901.5,-257.5 1032.5,-257.5 "/>
<text text-anchor="middle" x="967" y="-244.7" font-family="Consolas" font-size="11.00"> </text>
<polyline fill="none" stroke="black" points="901.5,-237.5 1032.5,-237.5 "/>
<text text-anchor="start" x="909.5" y="-224.7" font-family="Consolas" font-size="11.00">+ Spring02()</text>
<text text-anchor="start" x="909.5" y="-212.7" font-family="Consolas" font-size="11.00">+ initialize()</text>
<text text-anchor="start" x="909.5" y="-200.7" font-family="Consolas" font-size="11.00">+ update_status()</text>
<text text-anchor="start" x="909.5" y="-188.7" font-family="Consolas" font-size="11.00">+ commit_status()</text>
<text text-anchor="start" x="909.5" y="-176.7" font-family="Consolas" font-size="11.00">+ clear_status()</text>
<text text-anchor="start" x="909.5" y="-164.7" font-family="Consolas" font-size="11.00">+ reset_status()</text>
<text text-anchor="start" x="909.5" y="-152.7" font-family="Consolas" font-size="11.00">+ record()</text>
<text text-anchor="start" x="909.5" y="-140.7" font-family="Consolas" font-size="11.00">+ print()</text>
</a>
</g>
</g>
<!-- Node1&#45;&gt;Node15 -->
<g id="edge14" class="edge">
<title>Node1&#45;&gt;Node15</title>
<path fill="none" stroke="midnightblue" d="M758.07,-354.73C801.56,-345.33 853,-329.25 893,-302 902.88,-295.27 912.03,-286.8 920.28,-277.7"/>
<polygon fill="none" stroke="midnightblue" points="757.14,-351.35 748.06,-356.81 758.56,-358.2 757.14,-351.35"/>
</g>
<!-- Node16 -->
<g id="node16" class="node">
<title>Node16</title>
<g id="a_node16"><a xlink:href="../../d6/d59/class_t2_d2.html" target="_top" xlink:title="A T2D2 class.">
<polygon fill="white" stroke="black" points="1050.5,-133.5 1050.5,-277.5 1181.5,-277.5 1181.5,-133.5 1050.5,-133.5"/>
<text text-anchor="middle" x="1116" y="-264.7" font-family="Consolas" font-size="11.00">T2D2</text>
<polyline fill="none" stroke="black" points="1050.5,-257.5 1181.5,-257.5 "/>
<text text-anchor="middle" x="1116" y="-244.7" font-family="Consolas" font-size="11.00"> </text>
<polyline fill="none" stroke="black" points="1050.5,-237.5 1181.5,-237.5 "/>
<text text-anchor="start" x="1058.5" y="-224.7" font-family="Consolas" font-size="11.00">+ T2D2()</text>
<text text-anchor="start" x="1058.5" y="-212.7" font-family="Consolas" font-size="11.00">+ initialize()</text>
<text text-anchor="start" x="1058.5" y="-200.7" font-family="Consolas" font-size="11.00">+ update_status()</text>
<text text-anchor="start" x="1058.5" y="-188.7" font-family="Consolas" font-size="11.00">+ commit_status()</text>
<text text-anchor="start" x="1058.5" y="-176.7" font-family="Consolas" font-size="11.00">+ clear_status()</text>
<text text-anchor="start" x="1058.5" y="-164.7" font-family="Consolas" font-size="11.00">+ reset_status()</text>
<text text-anchor="start" x="1058.5" y="-152.7" font-family="Consolas" font-size="11.00">+ record()</text>
<text text-anchor="start" x="1058.5" y="-140.7" font-family="Consolas" font-size="11.00">+ print()</text>
</a>
</g>
</g>
<!-- Node1&#45;&gt;Node16 -->
<g id="edge15" class="edge">
<title>Node1&#45;&gt;Node16</title>
<path fill="none" stroke="midnightblue" d="M758.47,-359.26C853.22,-349.23 995.42,-330.09 1042,-302 1052.6,-295.61 1062.24,-287.09 1070.81,-277.77"/>
<polygon fill="none" stroke="midnightblue" points="757.89,-355.8 748.31,-360.32 758.62,-362.76 757.89,-355.8"/>
</g>
<!-- Node17 -->
<g id="node17" class="node">
<title>Node17</title>
<g id="a_node17"><a xlink:href="../../d7/da1/class_t3_d2.html" target="_top" xlink:title="The T3D2 class handles both linear and nonlinear problems by using a corotational transformation.">
<polygon fill="white" stroke="black" points="1199.5,-133.5 1199.5,-277.5 1330.5,-277.5 1330.5,-133.5 1199.5,-133.5"/>
<text text-anchor="middle" x="1265" y="-264.7" font-family="Consolas" font-size="11.00">T3D2</text>
<polyline fill="none" stroke="black" points="1199.5,-257.5 1330.5,-257.5 "/>
<text text-anchor="middle" x="1265" y="-244.7" font-family="Consolas" font-size="11.00"> </text>
<polyline fill="none" stroke="black" points="1199.5,-237.5 1330.5,-237.5 "/>
<text text-anchor="start" x="1207.5" y="-224.7" font-family="Consolas" font-size="11.00">+ T3D2()</text>
<text text-anchor="start" x="1207.5" y="-212.7" font-family="Consolas" font-size="11.00">+ initialize()</text>
<text text-anchor="start" x="1207.5" y="-200.7" font-family="Consolas" font-size="11.00">+ update_status()</text>
<text text-anchor="start" x="1207.5" y="-188.7" font-family="Consolas" font-size="11.00">+ commit_status()</text>
<text text-anchor="start" x="1207.5" y="-176.7" font-family="Consolas" font-size="11.00">+ clear_status()</text>
<text text-anchor="start" x="1207.5" y="-164.7" font-family="Consolas" font-size="11.00">+ reset_status()</text>
<text text-anchor="start" x="1207.5" y="-152.7" font-family="Consolas" font-size="11.00">+ record()</text>
<text text-anchor="start" x="1207.5" y="-140.7" font-family="Consolas" font-size="11.00">+ print()</text>
</a>
</g>
</g>
<!-- Node1&#45;&gt;Node17 -->
<g id="edge16" class="edge">
<title>Node1&#45;&gt;Node17</title>
<path fill="none" stroke="midnightblue" d="M758.46,-364.48C887.74,-358.75 1119.16,-342.96 1191,-302 1201.93,-295.77 1211.81,-287.21 1220.51,-277.76"/>
<polygon fill="none" stroke="midnightblue" points="758.03,-361 748.19,-364.92 758.33,-367.99 758.03,-361"/>
</g>
<!-- Node2 -->
<g id="node2" class="node">
<title>Node2</title>
<g id="a_node2"><a xlink:href="../../d0/d07/class_material_element.html" target="_top" xlink:title="The MaterialElement class.">
<polygon fill="white" stroke="black" points="596.5,-435.5 596.5,-495.5 741.5,-495.5 741.5,-435.5 596.5,-435.5"/>
<text text-anchor="middle" x="669" y="-482.7" font-family="Consolas" font-size="11.00">MaterialElement</text>
<polyline fill="none" stroke="black" points="596.5,-475.5 741.5,-475.5 "/>
<text text-anchor="middle" x="669" y="-462.7" font-family="Consolas" font-size="11.00"> </text>
<polyline fill="none" stroke="black" points="596.5,-455.5 741.5,-455.5 "/>
<text text-anchor="start" x="604.5" y="-442.7" font-family="Consolas" font-size="11.00">+ MaterialElement()</text>
</a>
</g>
</g>
<!-- Node2&#45;&gt;Node1 -->
<g id="edge1" class="edge">
<title>Node2&#45;&gt;Node1</title>
<path fill="none" stroke="midnightblue" d="M669,-425.29C669,-416.38 669,-407.07 669,-398.67"/>
<polygon fill="none" stroke="midnightblue" points="665.5,-425.48 669,-435.48 672.5,-425.48 665.5,-425.48"/>
</g>
<!-- Node3 -->
<g id="node3" class="node">
<title>Node3</title>
<g id="a_node3"><a xlink:href="../../d5/d50/class_element.html" target="_top" xlink:title="A Element class.">
<polygon fill="white" stroke="black" points="556,-532.5 556,-784.5 782,-784.5 782,-532.5 556,-532.5"/>
<text text-anchor="middle" x="669" y="-771.7" font-family="Consolas" font-size="11.00">Element</text>
<polyline fill="none" stroke="black" points="556,-764.5 782,-764.5 "/>
<text text-anchor="start" x="564" y="-751.7" font-family="Consolas" font-size="11.00"># node_ptr</text>
<polyline fill="none" stroke="black" points="556,-744.5 782,-744.5 "/>
<text text-anchor="start" x="564" y="-731.7" font-family="Consolas" font-size="11.00">+ Element()</text>
<text text-anchor="start" x="564" y="-719.7" font-family="Consolas" font-size="11.00">+ Element()</text>
<text text-anchor="start" x="564" y="-707.7" font-family="Consolas" font-size="11.00">+ Element()</text>
<text text-anchor="start" x="564" y="-695.7" font-family="Consolas" font-size="11.00">+ Element()</text>
<text text-anchor="start" x="564" y="-683.7" font-family="Consolas" font-size="11.00">+ Element()</text>
<text text-anchor="start" x="564" y="-671.7" font-family="Consolas" font-size="11.00">+ Element()</text>
<text text-anchor="start" x="564" y="-659.7" font-family="Consolas" font-size="11.00">+ Element()</text>
<text text-anchor="start" x="564" y="-647.7" font-family="Consolas" font-size="11.00">+ operator=()</text>
<text text-anchor="start" x="564" y="-635.7" font-family="Consolas" font-size="11.00">+ operator=()</text>
<text text-anchor="start" x="564" y="-623.7" font-family="Consolas" font-size="11.00">+ ~Element()</text>
<text text-anchor="start" x="564" y="-611.7" font-family="Consolas" font-size="11.00">and 81 more...</text>
<text text-anchor="start" x="564" y="-599.7" font-family="Consolas" font-size="11.00"># get_coordinate()</text>
<text text-anchor="start" x="564" y="-587.7" font-family="Consolas" font-size="11.00"># get_node_incre_resistance()</text>
<text text-anchor="start" x="564" y="-575.7" font-family="Consolas" font-size="11.00"># get_node_trial_resistance()</text>
<text text-anchor="start" x="564" y="-563.7" font-family="Consolas" font-size="11.00"># get_node_current_resistance()</text>
<text text-anchor="start" x="564" y="-551.7" font-family="Consolas" font-size="11.00"># get_material()</text>
<text text-anchor="start" x="564" y="-539.7" font-family="Consolas" font-size="11.00"># get_section()</text>
</a>
</g>
</g>
<!-- Node3&#45;&gt;Node2 -->
<g id="edge2" class="edge">
<title>Node3&#45;&gt;Node2</title>
<path fill="none" stroke="midnightblue" d="M669,-522.22C669,-512.56 669,-503.57 669,-495.74"/>
<polygon fill="none" stroke="midnightblue" points="665.5,-522.5 669,-532.5 672.5,-522.5 665.5,-522.5"/>
</g>
<!-- Node4 -->
<g id="node4" class="node">
<title>Node4</title>
<g id="a_node4"><a xlink:href="../../d2/db9/struct_data_element.html" target="_top" xlink:title=" ">
<polygon fill="white" stroke="black" points="494.5,-857.5 494.5,-1037.5 639.5,-1037.5 639.5,-857.5 494.5,-857.5"/>
<text text-anchor="middle" x="567" y="-1024.7" font-family="Consolas" font-size="11.00">DataElement</text>
<polyline fill="none" stroke="black" points="494.5,-1017.5 639.5,-1017.5 "/>
<text text-anchor="start" x="502.5" y="-1004.7" font-family="Consolas" font-size="11.00">+ node_encoding</text>
<text text-anchor="start" x="502.5" y="-992.7" font-family="Consolas" font-size="11.00">+ material_tag</text>
<text text-anchor="start" x="502.5" y="-980.7" font-family="Consolas" font-size="11.00">+ section_tag</text>
<text text-anchor="start" x="502.5" y="-968.7" font-family="Consolas" font-size="11.00">+ nlgeom</text>
<text text-anchor="start" x="502.5" y="-956.7" font-family="Consolas" font-size="11.00">+ update_mass</text>
<text text-anchor="start" x="502.5" y="-944.7" font-family="Consolas" font-size="11.00">+ update_viscous</text>
<text text-anchor="start" x="502.5" y="-932.7" font-family="Consolas" font-size="11.00">+ update_nonviscous</text>
<text text-anchor="start" x="502.5" y="-920.7" font-family="Consolas" font-size="11.00">+ update_stiffness</text>
<text text-anchor="start" x="502.5" y="-908.7" font-family="Consolas" font-size="11.00">+ update_geometry</text>
<text text-anchor="start" x="502.5" y="-896.7" font-family="Consolas" font-size="11.00">+ modify_mass</text>
<text text-anchor="start" x="502.5" y="-884.7" font-family="Consolas" font-size="11.00">and 41 more...</text>
<polyline fill="none" stroke="black" points="494.5,-877.5 639.5,-877.5 "/>
<text text-anchor="middle" x="567" y="-864.7" font-family="Consolas" font-size="11.00"> </text>
</a>
</g>
</g>
<!-- Node4&#45;&gt;Node3 -->
<g id="edge3" class="edge">
<title>Node4&#45;&gt;Node3</title>
<path fill="none" stroke="darkgreen" d="M602.11,-847.7C609.35,-827.34 617.06,-805.65 624.57,-784.51"/>
<polygon fill="none" stroke="darkgreen" points="598.77,-846.67 598.71,-857.26 605.36,-849.01 598.77,-846.67"/>
</g>
<!-- Node5 -->
<g id="node5" class="node">
<title>Node5</title>
<g id="a_node5"><a xlink:href="../../d4/d6b/class_element_base.html" target="_top" xlink:title="A ElementBase class.">
<polygon fill="white" stroke="black" points="658,-821.5 658,-1073.5 884,-1073.5 884,-821.5 658,-821.5"/>
<text text-anchor="middle" x="771" y="-1060.7" font-family="Consolas" font-size="11.00">ElementBase</text>
<polyline fill="none" stroke="black" points="658,-1053.5 884,-1053.5 "/>
<text text-anchor="middle" x="771" y="-1040.7" font-family="Consolas" font-size="11.00"> </text>
<polyline fill="none" stroke="black" points="658,-1033.5 884,-1033.5 "/>
<text text-anchor="start" x="666" y="-1020.7" font-family="Consolas" font-size="11.00">+ ElementBase()</text>
<text text-anchor="start" x="666" y="-1008.7" font-family="Consolas" font-size="11.00">+ ElementBase()</text>
<text text-anchor="start" x="666" y="-996.7" font-family="Consolas" font-size="11.00">+ ElementBase()</text>
<text text-anchor="start" x="666" y="-984.7" font-family="Consolas" font-size="11.00">+ operator=()</text>
<text text-anchor="start" x="666" y="-972.7" font-family="Consolas" font-size="11.00">+ operator=()</text>
<text text-anchor="start" x="666" y="-960.7" font-family="Consolas" font-size="11.00">+ ~ElementBase()</text>
<text text-anchor="start" x="666" y="-948.7" font-family="Consolas" font-size="11.00">+ initialize_base()</text>
<text text-anchor="start" x="666" y="-936.7" font-family="Consolas" font-size="11.00">+ initialize()</text>
<text text-anchor="start" x="666" y="-924.7" font-family="Consolas" font-size="11.00">+ set_initialized()</text>
<text text-anchor="start" x="666" y="-912.7" font-family="Consolas" font-size="11.00">+ set_symmetric()</text>
<text text-anchor="start" x="666" y="-900.7" font-family="Consolas" font-size="11.00">and 79 more...</text>
<text text-anchor="start" x="666" y="-888.7" font-family="Consolas" font-size="11.00"># get_coordinate()</text>
<text text-anchor="start" x="666" y="-876.7" font-family="Consolas" font-size="11.00"># get_node_incre_resistance()</text>
<text text-anchor="start" x="666" y="-864.7" font-family="Consolas" font-size="11.00"># get_node_trial_resistance()</text>
<text text-anchor="start" x="666" y="-852.7" font-family="Consolas" font-size="11.00"># get_node_current_resistance()</text>
<text text-anchor="start" x="666" y="-840.7" font-family="Consolas" font-size="11.00"># get_material()</text>
<text text-anchor="start" x="666" y="-828.7" font-family="Consolas" font-size="11.00"># get_section()</text>
</a>
</g>
</g>
<!-- Node5&#45;&gt;Node3 -->
<g id="edge4" class="edge">
<title>Node5&#45;&gt;Node3</title>
<path fill="none" stroke="midnightblue" d="M723.18,-811.96C719.94,-802.83 716.68,-793.64 713.45,-784.56"/>
<polygon fill="none" stroke="midnightblue" points="719.91,-813.2 726.56,-821.45 726.51,-810.86 719.91,-813.2"/>
</g>
<!-- Node6 -->
<g id="node6" class="node">
<title>Node6</title>
<g id="a_node6"><a xlink:href="../../d0/d57/class_tag.html" target="_top" xlink:title="A base Tag class.">
<polygon fill="white" stroke="black" points="662.5,-1110.5 662.5,-1338.5 773.5,-1338.5 773.5,-1110.5 662.5,-1110.5"/>
<text text-anchor="middle" x="718" y="-1325.7" font-family="Consolas" font-size="11.00">Tag</text>
<polyline fill="none" stroke="black" points="662.5,-1318.5 773.5,-1318.5 "/>
<text text-anchor="middle" x="718" y="-1305.7" font-family="Consolas" font-size="11.00"> </text>
<polyline fill="none" stroke="black" points="662.5,-1298.5 773.5,-1298.5 "/>
<text text-anchor="start" x="670.5" y="-1285.7" font-family="Consolas" font-size="11.00">+ Tag()</text>
<text text-anchor="start" x="670.5" y="-1273.7" font-family="Consolas" font-size="11.00">+ Tag()</text>
<text text-anchor="start" x="670.5" y="-1261.7" font-family="Consolas" font-size="11.00">+ Tag()</text>
<text text-anchor="start" x="670.5" y="-1249.7" font-family="Consolas" font-size="11.00">+ operator=()</text>
<text text-anchor="start" x="670.5" y="-1237.7" font-family="Consolas" font-size="11.00">+ operator=()</text>
<text text-anchor="start" x="670.5" y="-1225.7" font-family="Consolas" font-size="11.00">+ ~Tag()</text>
<text text-anchor="start" x="670.5" y="-1213.7" font-family="Consolas" font-size="11.00">+ set_tag()</text>
<text text-anchor="start" x="670.5" y="-1201.7" font-family="Consolas" font-size="11.00">+ get_tag()</text>
<text text-anchor="start" x="670.5" y="-1189.7" font-family="Consolas" font-size="11.00">+ enable()</text>
<text text-anchor="start" x="670.5" y="-1177.7" font-family="Consolas" font-size="11.00">+ disable()</text>
<text text-anchor="start" x="670.5" y="-1165.7" font-family="Consolas" font-size="11.00">+ guard()</text>
<text text-anchor="start" x="670.5" y="-1153.7" font-family="Consolas" font-size="11.00">+ unguard()</text>
<text text-anchor="start" x="670.5" y="-1141.7" font-family="Consolas" font-size="11.00">+ is_active()</text>
<text text-anchor="start" x="670.5" y="-1129.7" font-family="Consolas" font-size="11.00">+ is_guarded()</text>
<text text-anchor="start" x="670.5" y="-1117.7" font-family="Consolas" font-size="11.00">+ print()</text>
</a>
</g>
</g>
<!-- Node6&#45;&gt;Node5 -->
<g id="edge5" class="edge">
<title>Node6&#45;&gt;Node5</title>
<path fill="none" stroke="midnightblue" d="M741.72,-1100.44C743.43,-1091.53 745.17,-1082.54 746.89,-1073.62"/>
<polygon fill="none" stroke="midnightblue" points="738.24,-1099.97 739.79,-1110.46 745.12,-1101.3 738.24,-1099.97"/>
</g>
<!-- Node7 -->
<g id="node7" class="node">
<title>Node7</title>
<g id="a_node7"><a xlink:href="../../db/ddc/classvtk_base.html" target="_top" xlink:title="The vtkBase class.">
<polygon fill="white" stroke="black" points="792,-1194.5 792,-1254.5 856,-1254.5 856,-1194.5 792,-1194.5"/>
<text text-anchor="middle" x="824" y="-1241.7" font-family="Consolas" font-size="11.00">vtkBase</text>
<polyline fill="none" stroke="black" points="792,-1234.5 856,-1234.5 "/>
<text text-anchor="middle" x="824" y="-1221.7" font-family="Consolas" font-size="11.00"> </text>
<polyline fill="none" stroke="black" points="792,-1214.5 856,-1214.5 "/>
<text text-anchor="middle" x="824" y="-1201.7" font-family="Consolas" font-size="11.00"> </text>
</a>
</g>
</g>
<!-- Node7&#45;&gt;Node5 -->
<g id="edge6" class="edge">
<title>Node7&#45;&gt;Node5</title>
<path fill="none" stroke="midnightblue" d="M816.42,-1184.18C810.8,-1155.03 802.82,-1113.59 795.1,-1073.57"/>
<polygon fill="none" stroke="midnightblue" points="813.05,-1185.17 818.38,-1194.33 819.92,-1183.85 813.05,-1185.17"/>
</g>
<!-- Node9 -->
<g id="node9" class="node">
<title>Node9</title>
<g id="a_node9"><a xlink:href="../../db/d0a/class_damper05.html" target="_top" xlink:title=" ">
<polygon fill="white" stroke="black" points="3.5,-0.5 3.5,-72.5 134.5,-72.5 134.5,-0.5 3.5,-0.5"/>
<text text-anchor="middle" x="69" y="-59.7" font-family="Consolas" font-size="11.00">Damper05</text>
<polyline fill="none" stroke="black" points="3.5,-52.5 134.5,-52.5 "/>
<text text-anchor="middle" x="69" y="-39.7" font-family="Consolas" font-size="11.00"> </text>
<polyline fill="none" stroke="black" points="3.5,-32.5 134.5,-32.5 "/>
<text text-anchor="start" x="11.5" y="-19.7" font-family="Consolas" font-size="11.00">+ update_status()</text>
<text text-anchor="start" x="11.5" y="-7.7" font-family="Consolas" font-size="11.00">+ Damper01()</text>
</a>
</g>
</g>
<!-- Node8&#45;&gt;Node9 -->
<g id="edge8" class="edge">
<title>Node8&#45;&gt;Node9</title>
<path fill="none" stroke="midnightblue" d="M69,-99.01C69,-89.65 69,-80.69 69,-72.65"/>
<polygon fill="none" stroke="midnightblue" points="65.5,-99.29 69,-109.29 72.5,-99.29 65.5,-99.29"/>
</g>
</g>
</svg>
        <g id="navigator" transform="translate(0 0)" fill="#404254">
                <rect fill="#f2f5e9" fill-opacity="0.5" stroke="#606060" stroke-width=".5" x="0" y="0" width="60" height="60"/>
                <use id="zoomplus" xlink:href="#zoomPlus" x="17" y="9" onmousedown="handleZoom(evt,'in')"/>
                <use id="zoomminus" xlink:href="#zoomMin" x="42" y="9" onmousedown="handleZoom(evt,'out')"/>
                <use id="reset" xlink:href="#resetDef" x="30" y="36" onmousedown="handleReset()"/>
                <g id="arrowUp" xlink:href="#dirArrow" transform="translate(30 24)" onmousedown="handlePan(0,-1)">
                  <use xlink:href="#rim" fill="#404040">
                        <set attributeName="fill" to="#808080" begin="arrowUp.mouseover" end="arrowUp.mouseout"/>
                  </use>
                  <path fill="none" stroke="white" stroke-width="1.5" d="M0,-3.0v7 M-2.5,-0.5L0,-3.0L2.5,-0.5"/>
                </g>
                <g id="arrowRight" xlink:href="#dirArrow" transform="rotate(90) translate(36 -43)" onmousedown="handlePan(1,0)">
                  <use xlink:href="#rim" fill="#404040">
                        <set attributeName="fill" to="#808080" begin="arrowRight.mouseover" end="arrowRight.mouseout"/>
                  </use>
                  <path fill="none" stroke="white" stroke-width="1.5" d="M0,-3.0v7 M-2.5,-0.5L0,-3.0L2.5,-0.5"/>
                </g>
                <g id="arrowDown" xlink:href="#dirArrow" transform="rotate(180) translate(-30 -48)" onmousedown="handlePan(0,1)">
                  <use xlink:href="#rim" fill="#404040">
                        <set attributeName="fill" to="#808080" begin="arrowDown.mouseover" end="arrowDown.mouseout"/>
                  </use>
                  <path fill="none" stroke="white" stroke-width="1.5" d="M0,-3.0v7 M-2.5,-0.5L0,-3.0L2.5,-0.5"/>
                </g>
                <g id="arrowLeft" xlink:href="#dirArrow" transform="rotate(270) translate(-36 17)" onmousedown="handlePan(-1,0)">
                  <use xlink:href="#rim" fill="#404040">
                        <set attributeName="fill" to="#808080" begin="arrowLeft.mouseover" end="arrowLeft.mouseout"/>
                  </use>
                  <path fill="none" stroke="white" stroke-width="1.5" d="M0,-3.0v7 M-2.5,-0.5L0,-3.0L2.5,-0.5"/>
                </g>
        </g>
        <svg viewBox="0 0 15 15" width="100%" height="30px" preserveAspectRatio="xMaxYMin meet">
         <g id="arrow_out" transform="scale(0.3 0.3)">
          <a xlink:href="class_material_element1_d__inherit__graph_org.svg" target="_base">
           <rect id="button" ry="5" rx="5" y="6" x="6" height="38" width="38"
                fill="#f2f5e9" fill-opacity="0.5" stroke="#606060" stroke-width="1.0"/>
           <path id="arrow"
             d="M 11.500037,31.436501 C 11.940474,20.09759 22.043105,11.32322 32.158766,21.979434 L 37.068811,17.246167 C 37.068811,17.246167 37.088388,32 37.088388,32 L 22.160133,31.978069 C 22.160133,31.978069 26.997745,27.140456 26.997745,27.140456 C 18.528582,18.264221 13.291696,25.230495 11.500037,31.436501 z"
             style="fill:#404040;"/>
          </a>
         </g>
        </svg>
</svg>
