<svg xmlns="http://www.w3.org/2000/svg" xmlns:xlink="http://www.w3.org/1999/xlink" width="898pt" height="308pt" viewBox="0 0 898 308"><g class="graph" transform="translate(4 304)"><title>Recorder/AmplitudeRecorder.cpp</title><g class="node"><title>Node1</title><a>
<path fill="#999" stroke="#666" d="M431-300H212v20h219z"/>
<text x="321.5" y="-287.2" font-family="Consolas" font-size="11" text-anchor="middle">Recorder/AmplitudeRecorder.cpp</text>
</a></g><g class="node"><title>Node2</title><a xlink:href="../../d3/df3/_amplitude_recorder_8h.html" target="_top">
<path fill="#fff" stroke="#666" d="M145-244H0v20h145z"/>
<text x="72.5" y="-231.2" font-family="Consolas" font-size="11" text-anchor="middle">AmplitudeRecorder.h</text>
</a></g><g class="edge"><title>Node1-&gt;Node2</title><a>
<path fill="none" stroke="#63b8ff" d="M279.82-279.96c-42.82 9.29-109.56 23.76-155.7 33.77"/>
<path fill="#63b8ff" stroke="#63b8ff" d="m124.83-242.77-10.52-1.3 9.03-5.54z"/>
</a></g><g class="node"><title>Node14</title><a xlink:href="../../dc/df2/_domain_base_8h.html" target="_top">
<path fill="#fff" stroke="#666" d="M422-188H277v20h145z"/>
<text x="349.5" y="-175.2" font-family="Consolas" font-size="11" text-anchor="middle">Domain/DomainBase.h</text>
</a></g><g class="edge"><title>Node1-&gt;Node14</title><a>
<path fill="none" stroke="#63b8ff" d="M334.41-279.98c10.33 8.07 24.06 20.94 30.09 35.98 6.11 15.25.85 33.55-5.06 46.85"/>
<path fill="#63b8ff" stroke="#63b8ff" d="m362.53-195.52-7.56 7.42 1.28-10.51z"/>
</a></g><g class="node"><title>Node21</title><a xlink:href="../../db/d65/_factory_8hpp.html" target="_top">
<path fill="#fff" stroke="#666" d="M578.5-188h-138v20h138z"/>
<text x="509.5" y="-175.2" font-family="Consolas" font-size="11" text-anchor="middle">Domain/Factory.hpp</text>
</a></g><g class="edge"><title>Node1-&gt;Node21</title><a>
<path fill="none" stroke="#63b8ff" d="M336.88-280c32.64 19.1 109.04 63.8 148.33 86.79"/>
<path fill="#63b8ff" stroke="#63b8ff" d="m487.04-196.2 6.86 8.07-10.4-2.03z"/>
</a></g><g class="node"><title>Node24</title><a xlink:href="../../d1/ded/_amplitude_8h.html" target="_top">
<path fill="#fff" stroke="#666" d="M355.5-244h-192v20h192z"/>
<text x="259.5" y="-231.2" font-family="Consolas" font-size="11" text-anchor="middle">Load/Amplitude/Amplitude.h</text>
</a></g><g class="edge"><title>Node1-&gt;Node24</title><a>
<path fill="none" stroke="#63b8ff" d="M310.98-279.84c-9.14 7.96-22.58 19.67-33.43 29.12"/>
<path fill="#63b8ff" stroke="#63b8ff" d="m279.7-247.95-9.84 3.92 5.24-9.2z"/>
</a></g><g class="node"><title>Node3</title><a xlink:href="../../d2/d42/_recorder_8h.html" target="_top">
<path fill="#fff" stroke="#666" d="M165-188H20v20h145z"/>
<text x="92.5" y="-175.2" font-family="Consolas" font-size="11" text-anchor="middle">Recorder/Recorder.h</text>
</a></g><g class="edge"><title>Node2-&gt;Node3</title><a>
<path fill="none" stroke="#63b8ff" d="M75.98-223.59c2.64 7.12 6.35 17.14 9.59 25.87"/>
<path fill="#63b8ff" stroke="#63b8ff" d="m88.87-198.89.19 10.59-6.76-8.16z"/>
</a></g><g class="node"><title>Node4</title><a xlink:href="../../d2/d4a/_tag_8h.html" target="_top">
<path fill="#fff" stroke="#666" d="M297.5-132h-98v20h98z"/>
<text x="248.5" y="-119.2" font-family="Consolas" font-size="11" text-anchor="middle">Domain/Tag.h</text>
</a></g><g class="edge"><title>Node3-&gt;Node4</title><a>
<path fill="none" stroke="#63b8ff" d="M118.61-167.96c25.76 8.92 65.34 22.62 94.04 32.55"/>
<path fill="#63b8ff" stroke="#63b8ff" d="m214-138.65 8.3 6.58-10.59.04z"/>
</a></g><g class="node"><title>Node12</title><a xlink:href="../../d4/d0f/_output_type_8h.html" target="_top">
<path fill="#fff" stroke="#666" d="M171.5-132h-158v20h158z"/>
<text x="92.5" y="-119.2" font-family="Consolas" font-size="11" text-anchor="middle">Recorder/OutputType.h</text>
</a></g><g class="edge"><title>Node3-&gt;Node12</title><a>
<path fill="none" stroke="#63b8ff" d="M92.5-167.59v25.02"/>
<path fill="#63b8ff" stroke="#63b8ff" d="m96-142.3-3.5 10-3.5-10z"/>
</a></g><g class="node"><title>Node5</title><a xlink:href="../../d8/d8f/suan_pan_8h.html" target="_top">
<path fill="#fff" stroke="#666" d="M506-76h-77v20h77z"/>
<text x="467.5" y="-63.2" font-family="Consolas" font-size="11" text-anchor="middle">suanPan.h</text>
</a></g><g class="edge"><title>Node4-&gt;Node5</title><a>
<path fill="none" stroke="#63b8ff" d="M285.16-111.96c37.26 9.19 95.13 23.46 135.66 33.45"/>
<path fill="#63b8ff" stroke="#63b8ff" d="m421.85-81.86 8.87 5.79-10.54 1.01z"/>
</a></g><g class="node"><title>Node6</title><a>
<path fill="#e0e0e0" stroke="#999" d="M225-20h-71V0h71z"/>
<text x="189.5" y="-7.2" font-family="Consolas" font-size="11" text-anchor="middle">iostream</text>
</a></g><g class="edge"><title>Node5-&gt;Node6</title><a>
<path fill="none" stroke="#63b8ff" d="M428.73-57.59c-44.26 8.47-119.13 22.86-193.38 37.43"/>
<path fill="#63b8ff" stroke="#63b8ff" d="m235.84-16.69-10.48-1.5 9.13-5.37z"/>
</a></g><g class="node"><title>Node7</title><a>
<path fill="#e0e0e0" stroke="#999" d="M354-20H243V0h111z"/>
<text x="298.5" y="-7.2" font-family="Consolas" font-size="11" text-anchor="middle">armadillo/arma</text>
</a></g><g class="edge"><title>Node5-&gt;Node7</title><a>
<path fill="none" stroke="#63b8ff" d="M439.21-55.96c-28.15 8.99-71.53 22.85-102.68 32.81"/>
<path fill="#63b8ff" stroke="#63b8ff" d="m337.47-19.78-10.59-.29 8.46-6.38z"/>
</a></g><g class="node"><title>Node8</title><a>
<path fill="#e0e0e0" stroke="#999" d="M456.5-20h-84V0h84z"/>
<text x="414.5" y="-7.2" font-family="Consolas" font-size="11" text-anchor="middle">filesystem</text>
</a></g><g class="edge"><title>Node5-&gt;Node8</title><a>
<path fill="none" stroke="#63b8ff" d="M458.27-55.59c-7.6 7.74-18.56 18.9-27.61 28.12"/>
<path fill="#63b8ff" stroke="#63b8ff" d="m433.13-24.98-9.5 4.68 4.5-9.59z"/>
</a></g><g class="node"><title>Node9</title><a>
<path fill="#e0e0e0" stroke="#999" d="M566-20h-91V0h91z"/>
<text x="520.5" y="-7.2" font-family="Consolas" font-size="11" text-anchor="middle">fmt/color.h</text>
</a></g><g class="edge"><title>Node5-&gt;Node9</title><a>
<path fill="none" stroke="#63b8ff" d="M476.73-55.59c7.6 7.74 18.56 18.9 27.61 28.12"/>
<path fill="#63b8ff" stroke="#63b8ff" d="m506.87-29.89 4.5 9.59-9.5-4.68z"/>
</a></g><g class="node"><title>Node10</title><a>
<path fill="#e0e0e0" stroke="#999" d="M634.5-20h-50V0h50z"/>
<text x="609.5" y="-7.2" font-family="Consolas" font-size="11" text-anchor="middle">mutex</text>
</a></g><g class="edge"><title>Node5-&gt;Node10</title><a>
<path fill="none" stroke="#63b8ff" d="M491.27-55.96c23.24 8.84 58.84 22.38 84.91 32.29"/>
<path fill="#63b8ff" stroke="#63b8ff" d="m577.55-26.89 8.1 6.82-10.59-.28z"/>
</a></g><g class="node"><title>Node11</title><a>
<path fill="#e0e0e0" stroke="#999" d="M710-20h-57V0h57z"/>
<text x="681.5" y="-7.2" font-family="Consolas" font-size="11" text-anchor="middle">memory</text>
</a></g><g class="edge"><title>Node5-&gt;Node11</title><a>
<path fill="none" stroke="#63b8ff" d="m503.32-55.96 139.61 35.23"/>
<path fill="#63b8ff" stroke="#63b8ff" d="m643.93-24.09 8.84 5.84-10.55.95z"/>
</a></g><g class="node"><title>Node13</title><a>
<path fill="#e0e0e0" stroke="#999" d="M185-76H0v20h185z"/>
<text x="92.5" y="-63.2" font-family="Consolas" font-size="11" text-anchor="middle">magic_enum/magic_enum.hpp</text>
</a></g><g class="edge"><title>Node12-&gt;Node13</title><a>
<path fill="none" stroke="#63b8ff" d="M92.5-111.59v25.02"/>
<path fill="#63b8ff" stroke="#63b8ff" d="m96-86.3-3.5 10-3.5-10z"/>
</a></g><g class="edge"><title>Node14-&gt;Node4</title><a>
<path fill="none" stroke="#63b8ff" d="M332.37-167.84c-15.91 8.51-39.83 21.29-58.05 31.04"/>
<path fill="#63b8ff" stroke="#63b8ff" d="m275.85-133.65-10.47 1.62 7.17-7.8z"/>
</a></g><g class="node"><title>Node15</title><a xlink:href="../../d4/ddd/container_8h.html" target="_top">
<path fill="#fff" stroke="#666" d="M707-132H562v20h145z"/>
<text x="634.5" y="-119.2" font-family="Consolas" font-size="11" text-anchor="middle">Toolbox/container.h</text>
</a></g><g class="edge"><title>Node14-&gt;Node15</title><a>
<path fill="none" stroke="#63b8ff" d="M397.2-167.96c49.43 9.36 126.69 24 179.54 34.02"/>
<path fill="#63b8ff" stroke="#63b8ff" d="m577.47-137.37 9.17 5.3-10.48 1.58z"/>
</a></g><g class="node"><title>Node20</title><a>
<path fill="#e0e0e0" stroke="#999" d="M373-132h-57v20h57z"/>
<text x="344.5" y="-119.2" font-family="Consolas" font-size="11" text-anchor="middle">future</text>
</a></g><g class="edge"><title>Node14-&gt;Node20</title><a>
<path fill="none" stroke="#63b8ff" d="M348.63-167.59c-.65 6.96-1.55 16.7-2.34 25.3"/>
<path fill="#63b8ff" stroke="#63b8ff" d="m349.77-141.93-4.41 9.63-2.56-10.28z"/>
</a></g><g class="edge"><title>Node15-&gt;Node5</title><a>
<path fill="none" stroke="#63b8ff" d="M606.55-111.96c-27.82 8.99-70.69 22.85-101.47 32.81"/>
<path fill="#63b8ff" stroke="#63b8ff" d="m506.14-75.81-10.6-.26 8.44-6.4z"/>
</a></g><g class="node"><title>Node16</title><a>
<path fill="#e0e0e0" stroke="#999" d="M579-76h-37v20h37z"/>
<text x="560.5" y="-63.2" font-family="Consolas" font-size="11" text-anchor="middle">map</text>
</a></g><g class="edge"><title>Node15-&gt;Node16</title><a>
<path fill="none" stroke="#63b8ff" d="M621.95-111.84c-11.13 8.12-27.59 20.13-40.67 29.68"/>
<path fill="#63b8ff" stroke="#63b8ff" d="m583.01-79.09-10.14 3.06 6.01-8.72z"/>
</a></g><g class="node"><title>Node17</title><a>
<path fill="#e0e0e0" stroke="#999" d="M634-76h-37v20h37z"/>
<text x="615.5" y="-63.2" font-family="Consolas" font-size="11" text-anchor="middle">set</text>
</a></g><g class="edge"><title>Node15-&gt;Node17</title><a>
<path fill="none" stroke="#63b8ff" d="M631.19-111.59c-2.48 7.04-5.95 16.92-9 25.59"/>
<path fill="#63b8ff" stroke="#63b8ff" d="m625.39-84.57-6.62 8.27.02-10.59z"/>
</a></g><g class="node"><title>Node18</title><a>
<path fill="#e0e0e0" stroke="#999" d="M756.5-76h-104v20h104z"/>
<text x="704.5" y="-63.2" font-family="Consolas" font-size="11" text-anchor="middle">unordered_map</text>
</a></g><g class="edge"><title>Node15-&gt;Node18</title><a>
<path fill="none" stroke="#63b8ff" d="M646.37-111.84c10.53 8.12 26.1 20.13 38.47 29.68"/>
<path fill="#63b8ff" stroke="#63b8ff" d="m687.02-84.9 5.78 8.87-10.05-3.33z"/>
</a></g><g class="node"><title>Node19</title><a>
<path fill="#e0e0e0" stroke="#999" d="M878.5-76h-104v20h104z"/>
<text x="826.5" y="-63.2" font-family="Consolas" font-size="11" text-anchor="middle">unordered_set</text>
</a></g><g class="edge"><title>Node15-&gt;Node19</title><a>
<path fill="none" stroke="#63b8ff" d="M666.64-111.96c32.25 9.07 82.12 23.1 117.57 33.07"/>
<path fill="#63b8ff" stroke="#63b8ff" d="m785.58-82.14 8.68 6.07-10.58.66z"/>
</a></g><g class="edge"><title>Node21-&gt;Node15</title><a>
<path fill="none" stroke="#63b8ff" d="m530.42-167.96 73.83 31.89"/>
<path fill="#63b8ff" stroke="#63b8ff" d="m605.72-139.25 7.79 7.18-10.57-.75z"/>
</a></g><g class="edge"><title>Node21-&gt;Node20</title><a>
<path fill="none" stroke="#63b8ff" d="M481.88-167.96c-27.36 8.95-69.47 22.73-99.86 32.68"/>
<path fill="#63b8ff" stroke="#63b8ff" d="m382.8-131.85-10.59-.22 8.41-6.43z"/>
</a></g><g class="node"><title>Node22</title><a>
<path fill="#e0e0e0" stroke="#999" d="M890-132H725v20h165z"/>
<text x="807.5" y="-119.2" font-family="Consolas" font-size="11" text-anchor="middle">Domain/MetaMat/MetaMat</text>
</a></g><g class="edge"><title>Node21-&gt;Node22</title><a>
<path fill="none" stroke="#63b8ff" d="M559.38-167.96c51.78 9.38 132.81 24.06 188.07 34.08"/>
<path fill="#63b8ff" stroke="#63b8ff" d="m748.24-137.29 9.22 5.22-10.47 1.66z"/>
</a></g><g class="node"><title>Node23</title><a xlink:href="../../d6/d94/_mapping_d_o_f_8h.html" target="_top">
<path fill="#fff" stroke="#666" d="M543.5-132h-152v20h152z"/>
<text x="467.5" y="-119.2" font-family="Consolas" font-size="11" text-anchor="middle">Element/MappingDOF.h</text>
</a></g><g class="edge"><title>Node21-&gt;Node23</title><a>
<path fill="none" stroke="#63b8ff" d="M502.18-167.59c-5.84 7.51-14.18 18.24-21.22 27.29"/>
<path fill="#63b8ff" stroke="#63b8ff" d="m483.63-138.04-8.9 5.74 3.38-10.04z"/>
</a></g><g class="edge"><title>Node23-&gt;Node5</title><a>
<path fill="none" stroke="#63b8ff" d="M467.5-111.59v25.02"/>
<path fill="#63b8ff" stroke="#63b8ff" d="m471-86.3-3.5 10-3.5-10z"/>
</a></g><g class="edge"><title>Node24-&gt;Node4</title><a>
<path fill="none" stroke="#63b8ff" d="M258.6-224c-1.78 17.81-5.79 57.88-8.18 81.85"/>
<path fill="#63b8ff" stroke="#63b8ff" d="m253.89-141.73-4.48 9.6-2.48-10.29z"/>
</a></g></g></svg>