<?xml version="1.0" encoding="UTF-8" standalone="no"?>
<!DOCTYPE svg PUBLIC "-//W3C//DTD SVG 1.1//EN"
 "http://www.w3.org/Graphics/SVG/1.1/DTD/svg11.dtd">
<!-- Generated by graphviz version 2.43.0 (0)
 -->
<!-- Title: NodalAcceleration Pages: 1 -->
<!--zoomable 1212 -->

<svg id="main" version="1.1" xmlns="http://www.w3.org/2000/svg" xmlns:xlink="http://www.w3.org/1999/xlink" xml:space="preserve" onload="init(evt)">
<style type="text/css"><![CDATA[
.node, .edge {opacity: 0.7;}
.node.selected, .edge.selected {opacity: 1;}
.edge:hover path { stroke: red; }
.edge:hover polygon { stroke: red; fill: red; }
]]></style>

<defs>
  <circle id="rim" cx="0" cy="0" r="7"/>
  <circle id="rim2" cx="0" cy="0" r="3.5"/>
  <g id="zoomPlus">
    <use xlink:href="#rim" fill="#404040"><set attributeName="fill" to="#808080" begin="zoomplus.mouseover" end="zoomplus.mouseout"/></use>
    <path d="M-4,0h8M0,-4v8" fill="none" stroke="white" stroke-width="1.5" pointer-events="none"/>
  </g>
  <g id="zoomMin">
    <use xlink:href="#rim" fill="#404040"><set attributeName="fill" to="#808080" begin="zoomminus.mouseover" end="zoomminus.mouseout"/></use>
    <path d="M-4,0h8" fill="none" stroke="white" stroke-width="1.5" pointer-events="none"/>
  </g>
  <g id="arrowUp" transform="translate(30 24)">
    <use xlink:href="#rim"/>
    <path pointer-events="none" fill="none" stroke="white" stroke-width="1.5" d="M0,-3.0v7 M-2.5,-0.5L0,-3.0L2.5,-0.5"/>
  </g>
  <g id="arrowRight" transform="rotate(90) translate(36 -43)">
    <use xlink:href="#rim"/>
    <path pointer-events="none" fill="none" stroke="white" stroke-width="1.5" d="M0,-3.0v7 M-2.5,-0.5L0,-3.0L2.5,-0.5"/>
  </g>
  <g id="arrowDown" transform="rotate(180) translate(-30 -48)">
    <use xlink:href="#rim"/>
    <path pointer-events="none" fill="none" stroke="white" stroke-width="1.5" d="M0,-3.0v7 M-2.5,-0.5L0,-3.0L2.5,-0.5"/>
  </g>
  <g id="arrowLeft" transform="rotate(270) translate(-36 17)">
    <use xlink:href="#rim"/>
    <path pointer-events="none" fill="none" stroke="white" stroke-width="1.5" d="M0,-3.0v7 M-2.5,-0.5L0,-3.0L2.5,-0.5"/>
  </g>
  <g id="resetDef">
    <use xlink:href="#rim2" fill="#404040"><set attributeName="fill" to="#808080" begin="reset.mouseover" end="reset.mouseout"/></use>
  </g>
</defs>
<script type="application/ecmascript">
var viewWidth = 196;
var viewHeight = 1212;
var sectionId = 'dynsection-0';
</script>
<script type="application/ecmascript" xlink:href="../../svg.min.js"/>
<svg id="graph" class="graph">
<g id="viewport">
<title>NodalAcceleration</title>
<!-- Node1 -->
<g id="Node000001" class="node">
<title>Node1</title>
<g id="a_Node000001"><a xlink:title="A NodalAcceleration class.">
<polygon fill="#999999" stroke="transparent" points="168,-84 20,-84 20,0 168,0 168,-84"/>
<text text-anchor="start" x="36.5" y="-71.2" font-family="Consolas" font-size="11.00">NodalAcceleration</text>
<text text-anchor="start" x="90.5" y="-55.2" font-family="Consolas" font-size="11.00"> </text>
<text text-anchor="start" x="24" y="-39.2" font-family="Consolas" font-size="11.00">+</text>
<text text-anchor="start" x="35" y="-39.2" font-family="Consolas" font-size="11.00">NodalAcceleration()</text>
<text text-anchor="start" x="24" y="-23.2" font-family="Consolas" font-size="11.00">+</text>
<text text-anchor="start" x="35" y="-23.2" font-family="Consolas" font-size="11.00">initialize()</text>
<text text-anchor="start" x="24" y="-7.2" font-family="Consolas" font-size="11.00">+</text>
<text text-anchor="start" x="35" y="-7.2" font-family="Consolas" font-size="11.00">process()</text>
<polygon fill="#666666" stroke="#666666" points="20,-66 20,-66 168,-66 168,-66 20,-66"/>
<polygon fill="#666666" stroke="#666666" points="20,-50 20,-50 168,-50 168,-50 20,-50"/>
<polygon fill="none" stroke="#666666" points="20,0 20,-84 168,-84 168,0 20,0"/>
</a>
</g>
</g>
<!-- Node2 -->
<g id="Node000002" class="node">
<title>Node2</title>
<g id="a_Node000002"><a xlink:href="../../df/d07/class_load.html" target="_top" xlink:title="A Load class.">
<polygon fill="white" stroke="transparent" points="188,-284 0,-284 0,-120 188,-120 188,-284"/>
<text text-anchor="start" x="80" y="-271.2" font-family="Consolas" font-size="11.00">Load</text>
<text text-anchor="start" x="4" y="-255.2" font-family="Consolas" font-size="11.00">#</text>
<text text-anchor="start" x="15" y="-255.2" font-family="Consolas" font-size="11.00">magnitude</text>
<text text-anchor="start" x="4" y="-239.2" font-family="Consolas" font-size="11.00">#</text>
<text text-anchor="start" x="15" y="-239.2" font-family="Consolas" font-size="11.00">trial_load</text>
<text text-anchor="start" x="4" y="-223.2" font-family="Consolas" font-size="11.00">#</text>
<text text-anchor="start" x="15" y="-223.2" font-family="Consolas" font-size="11.00">trial_settlement</text>
<text text-anchor="start" x="4" y="-207.2" font-family="Consolas" font-size="11.00">#</text>
<text text-anchor="start" x="15" y="-207.2" font-family="Consolas" font-size="11.00">reference_load</text>
<text text-anchor="start" x="4" y="-191.2" font-family="Consolas" font-size="11.00">+</text>
<text text-anchor="start" x="15" y="-191.2" font-family="Consolas" font-size="11.00">Load()</text>
<text text-anchor="start" x="4" y="-175.2" font-family="Consolas" font-size="11.00">+</text>
<text text-anchor="start" x="15" y="-175.2" font-family="Consolas" font-size="11.00">if_displacement_control()</text>
<text text-anchor="start" x="4" y="-159.2" font-family="Consolas" font-size="11.00">+</text>
<text text-anchor="start" x="15" y="-159.2" font-family="Consolas" font-size="11.00">get_trial_load()</text>
<text text-anchor="start" x="4" y="-143.2" font-family="Consolas" font-size="11.00">+</text>
<text text-anchor="start" x="15" y="-143.2" font-family="Consolas" font-size="11.00">get_trial_settlement()</text>
<text text-anchor="start" x="4" y="-127.2" font-family="Consolas" font-size="11.00">+</text>
<text text-anchor="start" x="15" y="-127.2" font-family="Consolas" font-size="11.00">get_reference_load()</text>
<polygon fill="#666666" stroke="#666666" points="0,-266 0,-266 188,-266 188,-266 0,-266"/>
<polygon fill="#666666" stroke="#666666" points="0,-202 0,-202 13,-202 13,-202 0,-202"/>
<polygon fill="#666666" stroke="#666666" points="13,-202 13,-202 188,-202 188,-202 13,-202"/>
<polygon fill="none" stroke="#666666" points="0,-120 0,-284 188,-284 188,-120 0,-120"/>
</a>
</g>
</g>
<!-- Node2&#45;&gt;Node1 -->
<g id="edge1_Node000001_Node000002" class="edge">
<title>Node2&#45;&gt;Node1</title>
<g id="a_edge1_Node000001_Node000002"><a xlink:title=" ">
<path fill="none" stroke="#63b8ff" d="M94,-109.68C94,-100.87 94,-92.28 94,-84.34"/>
<polygon fill="none" stroke="#63b8ff" points="90.5,-109.69 94,-119.69 97.5,-109.69 90.5,-109.69"/>
</a>
</g>
</g>
<!-- Node3 -->
<g id="Node000003" class="node">
<title>Node3</title>
<g id="a_Node000003"><a xlink:href="../../da/d44/class_conditional_modifier.html" target="_top" xlink:title="Abstract base for node/element&#45;scoped, step&#45;conditional modifiers (constraints and loads).">
<polygon fill="white" stroke="transparent" points="174.5,-692 13.5,-692 13.5,-320 174.5,-320 174.5,-692"/>
<text text-anchor="start" x="30" y="-679.2" font-family="Consolas" font-size="11.00">ConditionalModifier</text>
<text text-anchor="start" x="18" y="-663.2" font-family="Consolas" font-size="11.00">#</text>
<text text-anchor="start" x="29" y="-663.2" font-family="Consolas" font-size="11.00">start_step</text>
<text text-anchor="start" x="18" y="-647.2" font-family="Consolas" font-size="11.00">#</text>
<text text-anchor="start" x="29" y="-647.2" font-family="Consolas" font-size="11.00">end_step</text>
<text text-anchor="start" x="18" y="-631.2" font-family="Consolas" font-size="11.00">#</text>
<text text-anchor="start" x="29" y="-631.2" font-family="Consolas" font-size="11.00">dof_order</text>
<text text-anchor="start" x="18" y="-615.2" font-family="Consolas" font-size="11.00">#</text>
<text text-anchor="start" x="29" y="-615.2" font-family="Consolas" font-size="11.00">target_node</text>
<text text-anchor="start" x="18" y="-599.2" font-family="Consolas" font-size="11.00">#</text>
<text text-anchor="start" x="29" y="-599.2" font-family="Consolas" font-size="11.00">target_element</text>
<text text-anchor="start" x="18" y="-583.2" font-family="Consolas" font-size="11.00">#</text>
<text text-anchor="start" x="29" y="-583.2" font-family="Consolas" font-size="11.00">target_dof</text>
<text text-anchor="start" x="18" y="-567.2" font-family="Consolas" font-size="11.00">+</text>
<text text-anchor="start" x="29" y="-567.2" font-family="Consolas" font-size="11.00">ConditionalModifier()</text>
<text text-anchor="start" x="18" y="-551.2" font-family="Consolas" font-size="11.00">+</text>
<text text-anchor="start" x="29" y="-551.2" font-family="Consolas" font-size="11.00">initialize()</text>
<text text-anchor="start" x="18" y="-535.2" font-family="Consolas" font-size="11.00">+</text>
<text text-anchor="start" x="29" y="-535.2" font-family="Consolas" font-size="11.00">process()</text>
<text text-anchor="start" x="18" y="-519.2" font-family="Consolas" font-size="11.00">+</text>
<text text-anchor="start" x="29" y="-519.2" font-family="Consolas" font-size="11.00">process_resistance()</text>
<text text-anchor="start" x="18" y="-503.2" font-family="Consolas" font-size="11.00">+</text>
<text text-anchor="start" x="29" y="-503.2" font-family="Consolas" font-size="11.00">stage()</text>
<text text-anchor="start" x="18" y="-487.2" font-family="Consolas" font-size="11.00">+</text>
<text text-anchor="start" x="29" y="-487.2" font-family="Consolas" font-size="11.00">get_involving_nodes()</text>
<text text-anchor="start" x="18" y="-471.2" font-family="Consolas" font-size="11.00">+</text>
<text text-anchor="start" x="29" y="-471.2" font-family="Consolas" font-size="11.00">get_node_dof()</text>
<text text-anchor="start" x="18" y="-455.2" font-family="Consolas" font-size="11.00">+</text>
<text text-anchor="start" x="29" y="-455.2" font-family="Consolas" font-size="11.00">deinitialize()</text>
<text text-anchor="start" x="18" y="-439.2" font-family="Consolas" font-size="11.00">+</text>
<text text-anchor="start" x="29" y="-439.2" font-family="Consolas" font-size="11.00">is_initialized()</text>
<text text-anchor="start" x="18" y="-423.2" font-family="Consolas" font-size="11.00">+</text>
<text text-anchor="start" x="29" y="-423.2" font-family="Consolas" font-size="11.00">set_start_step()</text>
<text text-anchor="start" x="29" y="-407.2" font-family="Consolas" font-size="11.00">and 9 more...</text>
<text text-anchor="start" x="18" y="-391.2" font-family="Consolas" font-size="11.00">#</text>
<text text-anchor="start" x="29" y="-391.2" font-family="Consolas" font-size="11.00">get_amplitude()</text>
<text text-anchor="start" x="18" y="-375.2" font-family="Consolas" font-size="11.00">#</text>
<text text-anchor="start" x="29" y="-375.2" font-family="Consolas" font-size="11.00">get_dof_component()</text>
<text text-anchor="start" x="18" y="-359.2" font-family="Consolas" font-size="11.00">#</text>
<text text-anchor="start" x="29" y="-359.2" font-family="Consolas" font-size="11.00">validate_node()</text>
<text text-anchor="start" x="18" y="-343.2" font-family="Consolas" font-size="11.00">#</text>
<text text-anchor="start" x="29" y="-343.2" font-family="Consolas" font-size="11.00">validate_element()</text>
<text text-anchor="start" x="18" y="-327.2" font-family="Consolas" font-size="11.00">#</text>
<text text-anchor="start" x="29" y="-327.2" font-family="Consolas" font-size="11.00">collect_node_dof()</text>
<polygon fill="#666666" stroke="#666666" points="14,-674 14,-674 175,-674 175,-674 14,-674"/>
<polygon fill="#666666" stroke="#666666" points="14,-578 14,-578 27,-578 27,-578 14,-578"/>
<polygon fill="#666666" stroke="#666666" points="27,-578 27,-578 175,-578 175,-578 27,-578"/>
<polygon fill="none" stroke="#666666" points="13.5,-320 13.5,-692 174.5,-692 174.5,-320 13.5,-320"/>
</a>
</g>
</g>
<!-- Node3&#45;&gt;Node2 -->
<g id="edge2_Node000002_Node000003" class="edge">
<title>Node3&#45;&gt;Node2</title>
<g id="a_edge2_Node000002_Node000003"><a xlink:title=" ">
<path fill="none" stroke="#63b8ff" d="M94,-309.72C94,-300.91 94,-292.32 94,-284.08"/>
<polygon fill="none" stroke="#63b8ff" points="90.5,-309.76 94,-319.76 97.5,-309.76 90.5,-309.76"/>
</a>
</g>
</g>
<!-- Node4 -->
<g id="Node000004" class="node">
<title>Node4</title>
<g id="a_Node000004"><a xlink:href="../../db/db8/class_unique_tag.html" target="_top" xlink:title="Label objects that cannot be copied.">
<polygon fill="white" stroke="transparent" points="144.5,-892 43.5,-892 43.5,-728 144.5,-728 144.5,-892"/>
<text text-anchor="start" x="64" y="-879.2" font-family="Consolas" font-size="11.00">UniqueTag</text>
<text text-anchor="start" x="91" y="-863.2" font-family="Consolas" font-size="11.00"> </text>
<text text-anchor="start" x="48" y="-847.2" font-family="Consolas" font-size="11.00">+</text>
<text text-anchor="start" x="59" y="-847.2" font-family="Consolas" font-size="11.00">UniqueTag()</text>
<text text-anchor="start" x="48" y="-831.2" font-family="Consolas" font-size="11.00">+</text>
<text text-anchor="start" x="59" y="-831.2" font-family="Consolas" font-size="11.00">UniqueTag()</text>
<text text-anchor="start" x="48" y="-815.2" font-family="Consolas" font-size="11.00">+</text>
<text text-anchor="start" x="59" y="-815.2" font-family="Consolas" font-size="11.00">operator=()</text>
<text text-anchor="start" x="48" y="-799.2" font-family="Consolas" font-size="11.00">+</text>
<text text-anchor="start" x="59" y="-799.2" font-family="Consolas" font-size="11.00">operator=()</text>
<text text-anchor="start" x="48" y="-783.2" font-family="Consolas" font-size="11.00">+</text>
<text text-anchor="start" x="59" y="-783.2" font-family="Consolas" font-size="11.00">~UniqueTag()</text>
<text text-anchor="start" x="48" y="-767.2" font-family="Consolas" font-size="11.00">+</text>
<text text-anchor="start" x="59" y="-767.2" font-family="Consolas" font-size="11.00">Tag()</text>
<text text-anchor="start" x="48" y="-751.2" font-family="Consolas" font-size="11.00">+</text>
<text text-anchor="start" x="59" y="-751.2" font-family="Consolas" font-size="11.00">Tag()</text>
<text text-anchor="start" x="48" y="-735.2" font-family="Consolas" font-size="11.00">+</text>
<text text-anchor="start" x="59" y="-735.2" font-family="Consolas" font-size="11.00">Tag()</text>
<polygon fill="#666666" stroke="#666666" points="44,-874 44,-874 145,-874 145,-874 44,-874"/>
<polygon fill="#666666" stroke="#666666" points="44,-858 44,-858 145,-858 145,-858 44,-858"/>
<polygon fill="none" stroke="#666666" points="43.5,-728 43.5,-892 144.5,-892 144.5,-728 43.5,-728"/>
</a>
</g>
</g>
<!-- Node4&#45;&gt;Node3 -->
<g id="edge3_Node000003_Node000004" class="edge">
<title>Node4&#45;&gt;Node3</title>
<g id="a_edge3_Node000003_Node000004"><a xlink:title=" ">
<path fill="none" stroke="#63b8ff" d="M94,-717.47C94,-709.29 94,-700.84 94,-692.22"/>
<polygon fill="none" stroke="#63b8ff" points="90.5,-717.67 94,-727.67 97.5,-717.67 90.5,-717.67"/>
</a>
</g>
</g>
<!-- Node5 -->
<g id="Node000005" class="node">
<title>Node5</title>
<g id="a_Node000005"><a xlink:href="../../d0/d57/class_tag.html" target="_top" xlink:title="A base Tag class.">
<polygon fill="white" stroke="transparent" points="144.5,-1204 43.5,-1204 43.5,-928 144.5,-928 144.5,-1204"/>
<text text-anchor="start" x="84" y="-1191.2" font-family="Consolas" font-size="11.00">Tag</text>
<text text-anchor="start" x="91" y="-1175.2" font-family="Consolas" font-size="11.00"> </text>
<text text-anchor="start" x="48" y="-1159.2" font-family="Consolas" font-size="11.00">+</text>
<text text-anchor="start" x="59" y="-1159.2" font-family="Consolas" font-size="11.00">Tag()</text>
<text text-anchor="start" x="48" y="-1143.2" font-family="Consolas" font-size="11.00">+</text>
<text text-anchor="start" x="59" y="-1143.2" font-family="Consolas" font-size="11.00">Tag()</text>
<text text-anchor="start" x="48" y="-1127.2" font-family="Consolas" font-size="11.00">+</text>
<text text-anchor="start" x="59" y="-1127.2" font-family="Consolas" font-size="11.00">Tag()</text>
<text text-anchor="start" x="48" y="-1111.2" font-family="Consolas" font-size="11.00">+</text>
<text text-anchor="start" x="59" y="-1111.2" font-family="Consolas" font-size="11.00">operator=()</text>
<text text-anchor="start" x="48" y="-1095.2" font-family="Consolas" font-size="11.00">+</text>
<text text-anchor="start" x="59" y="-1095.2" font-family="Consolas" font-size="11.00">operator=()</text>
<text text-anchor="start" x="48" y="-1079.2" font-family="Consolas" font-size="11.00">+</text>
<text text-anchor="start" x="59" y="-1079.2" font-family="Consolas" font-size="11.00">~Tag()</text>
<text text-anchor="start" x="48" y="-1063.2" font-family="Consolas" font-size="11.00">+</text>
<text text-anchor="start" x="59" y="-1063.2" font-family="Consolas" font-size="11.00">set_tag()</text>
<text text-anchor="start" x="48" y="-1047.2" font-family="Consolas" font-size="11.00">+</text>
<text text-anchor="start" x="59" y="-1047.2" font-family="Consolas" font-size="11.00">get_tag()</text>
<text text-anchor="start" x="48" y="-1031.2" font-family="Consolas" font-size="11.00">+</text>
<text text-anchor="start" x="59" y="-1031.2" font-family="Consolas" font-size="11.00">enable()</text>
<text text-anchor="start" x="48" y="-1015.2" font-family="Consolas" font-size="11.00">+</text>
<text text-anchor="start" x="59" y="-1015.2" font-family="Consolas" font-size="11.00">disable()</text>
<text text-anchor="start" x="48" y="-999.2" font-family="Consolas" font-size="11.00">+</text>
<text text-anchor="start" x="59" y="-999.2" font-family="Consolas" font-size="11.00">guard()</text>
<text text-anchor="start" x="48" y="-983.2" font-family="Consolas" font-size="11.00">+</text>
<text text-anchor="start" x="59" y="-983.2" font-family="Consolas" font-size="11.00">unguard()</text>
<text text-anchor="start" x="48" y="-967.2" font-family="Consolas" font-size="11.00">+</text>
<text text-anchor="start" x="59" y="-967.2" font-family="Consolas" font-size="11.00">is_active()</text>
<text text-anchor="start" x="48" y="-951.2" font-family="Consolas" font-size="11.00">+</text>
<text text-anchor="start" x="59" y="-951.2" font-family="Consolas" font-size="11.00">is_guarded()</text>
<text text-anchor="start" x="48" y="-935.2" font-family="Consolas" font-size="11.00">+</text>
<text text-anchor="start" x="59" y="-935.2" font-family="Consolas" font-size="11.00">print()</text>
<polygon fill="#666666" stroke="#666666" points="44,-1186 44,-1186 145,-1186 145,-1186 44,-1186"/>
<polygon fill="#666666" stroke="#666666" points="44,-1170 44,-1170 145,-1170 145,-1170 44,-1170"/>
<polygon fill="none" stroke="#666666" points="43.5,-928 43.5,-1204 144.5,-1204 144.5,-928 43.5,-928"/>
</a>
</g>
</g>
<!-- Node5&#45;&gt;Node4 -->
<g id="edge4_Node000004_Node000005" class="edge">
<title>Node5&#45;&gt;Node4</title>
<g id="a_edge4_Node000004_Node000005"><a xlink:title=" ">
<path fill="none" stroke="#63b8ff" d="M94,-917.72C94,-909.04 94,-900.49 94,-892.23"/>
<polygon fill="none" stroke="#63b8ff" points="90.5,-917.96 94,-927.96 97.5,-917.96 90.5,-917.96"/>
</a>
</g>
</g>
</g>
</svg>

<g id="navigator" transform="translate(0 0)" fill="#404254">
  <rect fill="#f2f5e9" fill-opacity="0.5" stroke="#606060" stroke-width=".5" x="0" y="0" width="60" height="60"/>
  <use id="zoomplus" xlink:href="#zoomPlus" x="17" y="9" onmousedown="handleZoom(evt,'in')"/>
  <use id="zoomminus" xlink:href="#zoomMin" x="42" y="9" onmousedown="handleZoom(evt,'out')"/>
  <use id="reset" xlink:href="#resetDef" x="30" y="36" onmousedown="handleReset()"/>
   <use id="arrowup" xlink:href="#arrowUp" x="0" y="0" onmousedown="handlePan(0,-1)"/>
  <use id="arrowright" xlink:href="#arrowRight" x="0" y="0" onmousedown="handlePan(1,0)"/>
  <use id="arrowdown" xlink:href="#arrowDown" x="0" y="0" onmousedown="handlePan(0,1)"/>
  <use id="arrowleft" xlink:href="#arrowLeft" x="0" y="0" onmousedown="handlePan(-1,0)"/>
</g>
<svg viewBox="0 0 15 15" width="100%" height="30px" preserveAspectRatio="xMaxYMin meet">
 <g id="arrow_out" transform="scale(0.3 0.3)">
  <a xlink:href="class_nodal_acceleration__inherit__graph_org.svg" target="_base">
   <rect id="button" ry="5" rx="5" y="6" x="6" height="38" width="38"
        fill="#f2f5e9" fill-opacity="0.5" stroke="#606060" stroke-width="1.0"/>
   <path id="arrow"
     d="M 11.500037,31.436501 C 11.940474,20.09759 22.043105,11.32322 32.158766,21.979434 L 37.068811,17.246167 C 37.068811,17.246167 37.088388,32 37.088388,32 L 22.160133,31.978069 C 22.160133,31.978069 26.997745,27.140456 26.997745,27.140456 C 18.528582,18.264221 13.291696,25.230495 11.500037,31.436501 z"
     style="fill:#404040;"/>
  </a>
 </g>
</svg>

<style type='text/css'>
<![CDATA[
[data-mouse-over-selected='false'] { opacity: 0.7; }
[data-mouse-over-selected='true']  { opacity: 1.0; }
]]>
</style>
<script type="application/ecmascript"><![CDATA[
document.addEventListener('DOMContentLoaded', (event) => {
  highlightEdges();
  highlightAdjacentNodes();
});
]]></script>
</svg>
