<?xml version="1.0" encoding="UTF-8" standalone="no"?>
<!DOCTYPE svg PUBLIC "-//W3C//DTD SVG 1.1//EN"
 "http://www.w3.org/Graphics/SVG/1.1/DTD/svg11.dtd">
<!-- Generated by graphviz version 5.0.0 (0)
 -->
<!-- Title: ExternalMaterialData Pages: 1 -->
<svg width="361pt" height="300pt"
 viewBox="0.00 0.00 360.50 300.00" xmlns="http://www.w3.org/2000/svg" xmlns:xlink="http://www.w3.org/1999/xlink">
<g id="graph0" class="graph" transform="scale(1 1) rotate(0) translate(4 296)">
<title>ExternalMaterialData</title>
<!-- Node1 -->
<g id="node1" class="node">
<title>Node1</title>
<g id="a_node1"><a xlink:title="A ExternalMaterialData class.">
<polygon fill="#999999" stroke="#666666" points="242.5,-92 84.5,-92 84.5,0 242.5,0 242.5,-92"/>
<text text-anchor="middle" x="163.5" y="-79.2" font-family="Consolas" font-size="11.00">{ExternalMaterialData</text>
<text text-anchor="start" x="92.5" y="-67.2" font-family="Consolas" font-size="11.00">|+ t_strain</text>
<text text-anchor="start" x="92.5" y="-55.2" font-family="Consolas" font-size="11.00">+ t_strain_rate</text>
<text text-anchor="start" x="92.5" y="-43.2" font-family="Consolas" font-size="11.00">+ t_stress</text>
<text text-anchor="start" x="92.5" y="-31.2" font-family="Consolas" font-size="11.00">+ t_history</text>
<text text-anchor="start" x="92.5" y="-19.2" font-family="Consolas" font-size="11.00">+ t_stiffness</text>
<text text-anchor="middle" x="163.5" y="-7.2" font-family="Consolas" font-size="11.00">|}</text>
</a>
</g>
</g>
<!-- Node2 -->
<g id="node2" class="node">
<title>Node2</title>
<g id="a_node2"><a xlink:title=" ">
<polygon fill="white" stroke="#666666" points="77,-292 0,-292 0,-260 77,-260 77,-292"/>
<text text-anchor="middle" x="38.5" y="-279.2" font-family="Consolas" font-size="11.00">{unsigned</text>
<text text-anchor="middle" x="38.5" y="-267.2" font-family="Consolas" font-size="11.00">||}</text>
</a>
</g>
</g>
<!-- Node2&#45;&gt;Node1 -->
<g id="edge1" class="edge">
<title>Node2&#45;&gt;Node1</title>
<path fill="none" stroke="#404040" d="M36.08,-259.88C31.96,-228.96 26.78,-157.44 57.5,-110 62.26,-102.65 68.2,-96.04 74.83,-90.12"/>
<polygon fill="none" stroke="#404040" points="74.94,-90.04 77.07,-83.15 84.25,-82.47 82.12,-89.36 74.94,-90.04"/>
<text text-anchor="middle" x="108.5" y="-179.2" font-family="Consolas" font-size="11.00"> +constant_size</text>
<text text-anchor="middle" x="108.5" y="-167.2" font-family="Consolas" font-size="11.00">+size</text>
</g>
<!-- Node3 -->
<g id="node3" class="node">
<title>Node3</title>
<g id="a_node3"><a xlink:title=" ">
<polygon fill="white" stroke="#666666" points="185.5,-292 141.5,-292 141.5,-260 185.5,-260 185.5,-292"/>
<text text-anchor="middle" x="163.5" y="-279.2" font-family="Consolas" font-size="11.00">{int</text>
<text text-anchor="middle" x="163.5" y="-267.2" font-family="Consolas" font-size="11.00">||}</text>
</a>
</g>
</g>
<!-- Node3&#45;&gt;Node1 -->
<g id="edge2" class="edge">
<title>Node3&#45;&gt;Node1</title>
<path fill="none" stroke="#404040" d="M163.5,-259.69C163.5,-228.51 163.5,-156.25 163.5,-104.62"/>
<polygon fill="none" stroke="#404040" points="163.5,-104.3 159.5,-98.3 163.5,-92.3 167.5,-98.3 163.5,-104.3"/>
<text text-anchor="middle" x="211" y="-233.2" font-family="Consolas" font-size="11.00"> +c_damping</text>
<text text-anchor="middle" x="211" y="-221.2" font-family="Consolas" font-size="11.00">+c_history</text>
<text text-anchor="middle" x="211" y="-209.2" font-family="Consolas" font-size="11.00">+c_stiffness</text>
<text text-anchor="middle" x="211" y="-197.2" font-family="Consolas" font-size="11.00">+c_strain</text>
<text text-anchor="middle" x="211" y="-185.2" font-family="Consolas" font-size="11.00">+c_strain_rate</text>
<text text-anchor="middle" x="211" y="-173.2" font-family="Consolas" font-size="11.00">+c_stress</text>
<text text-anchor="middle" x="211" y="-161.2" font-family="Consolas" font-size="11.00">+i_damping</text>
<text text-anchor="middle" x="211" y="-149.2" font-family="Consolas" font-size="11.00">+i_history</text>
<text text-anchor="middle" x="211" y="-137.2" font-family="Consolas" font-size="11.00">+i_stiffness</text>
<text text-anchor="middle" x="211" y="-125.2" font-family="Consolas" font-size="11.00">+t_damping</text>
<text text-anchor="middle" x="211" y="-113.2" font-family="Consolas" font-size="11.00">...</text>
</g>
<!-- Node4 -->
<g id="node4" class="node">
<title>Node4</title>
<g id="a_node4"><a xlink:title=" ">
<polygon fill="white" stroke="#666666" points="313.5,-292 249.5,-292 249.5,-260 313.5,-260 313.5,-292"/>
<text text-anchor="middle" x="281.5" y="-279.2" font-family="Consolas" font-size="11.00">{double</text>
<text text-anchor="middle" x="281.5" y="-267.2" font-family="Consolas" font-size="11.00">||}</text>
</a>
</g>
</g>
<!-- Node4&#45;&gt;Node1 -->
<g id="edge3" class="edge">
<title>Node4&#45;&gt;Node1</title>
<path fill="none" stroke="#404040" d="M283.41,-259.96C286.53,-229.2 289.65,-157.95 259.5,-110 257.08,-106.14 254.32,-102.48 251.31,-98.99"/>
<polygon fill="none" stroke="#404040" points="251.15,-98.82 244.1,-97.29 242.81,-90.19 249.85,-91.73 251.15,-98.82"/>
<text text-anchor="middle" x="318.5" y="-185.2" font-family="Consolas" font-size="11.00"> +constant</text>
<text text-anchor="middle" x="318.5" y="-173.2" font-family="Consolas" font-size="11.00">+density</text>
<text text-anchor="middle" x="318.5" y="-161.2" font-family="Consolas" font-size="11.00">+pool</text>
</g>
</g>
</svg>
