<?xml version="1.0" encoding="UTF-8" standalone="no"?>
<!DOCTYPE svg PUBLIC "-//W3C//DTD SVG 1.1//EN"
 "http://www.w3.org/Graphics/SVG/1.1/DTD/svg11.dtd">
<!-- Generated by graphviz version 2.43.0 (0)
 -->
<!-- Title: GroupMultiplierBC Pages: 1 -->
<!--zoomable 1515 -->

<svg id="main" version="1.1" xmlns="http://www.w3.org/2000/svg" xmlns:xlink="http://www.w3.org/1999/xlink" xml:space="preserve" onload="init(evt)">
<style type="text/css"><![CDATA[
.node, .edge {opacity: 0.7;}
.node.selected, .edge.selected {opacity: 1;}
.edge:hover path { stroke: red; }
.edge:hover polygon { stroke: red; fill: red; }
]]></style>

<defs>
  <circle id="rim" cx="0" cy="0" r="7"/>
  <circle id="rim2" cx="0" cy="0" r="3.5"/>
  <g id="zoomPlus">
    <use xlink:href="#rim" fill="#404040"><set attributeName="fill" to="#808080" begin="zoomplus.mouseover" end="zoomplus.mouseout"/></use>
    <path d="M-4,0h8M0,-4v8" fill="none" stroke="white" stroke-width="1.5" pointer-events="none"/>
  </g>
  <g id="zoomMin">
    <use xlink:href="#rim" fill="#404040"><set attributeName="fill" to="#808080" begin="zoomminus.mouseover" end="zoomminus.mouseout"/></use>
    <path d="M-4,0h8" fill="none" stroke="white" stroke-width="1.5" pointer-events="none"/>
  </g>
  <g id="arrowUp" transform="translate(30 24)">
    <use xlink:href="#rim"/>
    <path pointer-events="none" fill="none" stroke="white" stroke-width="1.5" d="M0,-3.0v7 M-2.5,-0.5L0,-3.0L2.5,-0.5"/>
  </g>
  <g id="arrowRight" transform="rotate(90) translate(36 -43)">
    <use xlink:href="#rim"/>
    <path pointer-events="none" fill="none" stroke="white" stroke-width="1.5" d="M0,-3.0v7 M-2.5,-0.5L0,-3.0L2.5,-0.5"/>
  </g>
  <g id="arrowDown" transform="rotate(180) translate(-30 -48)">
    <use xlink:href="#rim"/>
    <path pointer-events="none" fill="none" stroke="white" stroke-width="1.5" d="M0,-3.0v7 M-2.5,-0.5L0,-3.0L2.5,-0.5"/>
  </g>
  <g id="arrowLeft" transform="rotate(270) translate(-36 17)">
    <use xlink:href="#rim"/>
    <path pointer-events="none" fill="none" stroke="white" stroke-width="1.5" d="M0,-3.0v7 M-2.5,-0.5L0,-3.0L2.5,-0.5"/>
  </g>
  <g id="resetDef">
    <use xlink:href="#rim2" fill="#404040"><set attributeName="fill" to="#808080" begin="reset.mouseover" end="reset.mouseout"/></use>
  </g>
</defs>
<script type="application/ecmascript">
var viewWidth = 892;
var viewHeight = 1515;
var sectionId = 'dynsection-1';
</script>
<script type="application/ecmascript" xlink:href="../../svg.min.js"/>
<svg id="graph" class="graph">
<g id="viewport">
<title>GroupMultiplierBC</title>
<!-- Node1 -->
<g id="Node000001" class="node">
<title>Node1</title>
<g id="a_Node000001"><a xlink:title="A GroupMultiplierBC class handles boundary conditions.">
<polygon fill="#999999" stroke="transparent" points="155,-100 0,-100 0,0 155,0 155,-100"/>
<text text-anchor="start" x="20.5" y="-87.2" font-family="Consolas" font-size="11.00">GroupMultiplierBC</text>
<text text-anchor="start" x="74.5" y="-71.2" font-family="Consolas" font-size="11.00"> </text>
<text text-anchor="start" x="4.5" y="-55.2" font-family="Consolas" font-size="11.00">+</text>
<text text-anchor="start" x="15.5" y="-55.2" font-family="Consolas" font-size="11.00">process()</text>
<text text-anchor="start" x="4.5" y="-39.2" font-family="Consolas" font-size="11.00">+</text>
<text text-anchor="start" x="15.5" y="-39.2" font-family="Consolas" font-size="11.00">process_resistance()</text>
<text text-anchor="start" x="4.5" y="-23.2" font-family="Consolas" font-size="11.00">+</text>
<text text-anchor="start" x="15.5" y="-23.2" font-family="Consolas" font-size="11.00">GroupPenaltyBC()</text>
<text text-anchor="start" x="4.5" y="-7.2" font-family="Consolas" font-size="11.00">+</text>
<text text-anchor="start" x="15.5" y="-7.2" font-family="Consolas" font-size="11.00">GroupPenaltyBC()</text>
<polygon fill="#666666" stroke="#666666" points="0.5,-82 0.5,-82 155.5,-82 155.5,-82 0.5,-82"/>
<polygon fill="#666666" stroke="#666666" points="0.5,-66 0.5,-66 155.5,-66 155.5,-66 0.5,-66"/>
<polygon fill="none" stroke="#666666" points="0,0 0,-100 155,-100 155,0 0,0"/>
</a>
</g>
</g>
<!-- Node2 -->
<g id="Node000002" class="node">
<title>Node2</title>
<g id="a_Node000002"><a xlink:href="../../d1/d4a/class_group_penalty_b_c.html" target="_top" xlink:title="A GroupPenaltyBC class handles boundary conditions.">
<polygon fill="white" stroke="transparent" points="155,-253 0,-253 0,-137 155,-137 155,-253"/>
<text text-anchor="start" x="30.5" y="-240.2" font-family="Consolas" font-size="11.00">GroupPenaltyBC</text>
<text text-anchor="start" x="74.5" y="-224.2" font-family="Consolas" font-size="11.00"> </text>
<text text-anchor="start" x="4.5" y="-208.2" font-family="Consolas" font-size="11.00">+</text>
<text text-anchor="start" x="15.5" y="-208.2" font-family="Consolas" font-size="11.00">GroupPenaltyBC()</text>
<text text-anchor="start" x="4.5" y="-192.2" font-family="Consolas" font-size="11.00">+</text>
<text text-anchor="start" x="15.5" y="-192.2" font-family="Consolas" font-size="11.00">GroupPenaltyBC()</text>
<text text-anchor="start" x="4.5" y="-176.2" font-family="Consolas" font-size="11.00">+</text>
<text text-anchor="start" x="15.5" y="-176.2" font-family="Consolas" font-size="11.00">initialize()</text>
<text text-anchor="start" x="4.5" y="-160.2" font-family="Consolas" font-size="11.00">+</text>
<text text-anchor="start" x="15.5" y="-160.2" font-family="Consolas" font-size="11.00">process()</text>
<text text-anchor="start" x="4.5" y="-144.2" font-family="Consolas" font-size="11.00">+</text>
<text text-anchor="start" x="15.5" y="-144.2" font-family="Consolas" font-size="11.00">process_resistance()</text>
<polygon fill="#666666" stroke="#666666" points="0.5,-235 0.5,-235 155.5,-235 155.5,-235 0.5,-235"/>
<polygon fill="#666666" stroke="#666666" points="0.5,-219 0.5,-219 155.5,-219 155.5,-219 0.5,-219"/>
<polygon fill="none" stroke="#666666" points="0,-137 0,-253 155,-253 155,-137 0,-137"/>
</a>
</g>
</g>
<!-- Node2&#45;&gt;Node1 -->
<g id="edge1_Node000001_Node000002" class="edge">
<title>Node2&#45;&gt;Node1</title>
<g id="a_edge1_Node000001_Node000002"><a xlink:title=" ">
<path fill="none" stroke="#63b8ff" d="M77.5,-126.62C77.5,-117.67 77.5,-108.63 77.5,-100.07"/>
<polygon fill="none" stroke="#63b8ff" points="74,-126.66 77.5,-136.66 81,-126.66 74,-126.66"/>
</a>
</g>
</g>
<!-- Node3 -->
<g id="Node000003" class="node">
<title>Node3</title>
<g id="a_Node000003"><a xlink:href="../../db/d0b/class_multiplier_b_c.html" target="_top" xlink:title="A MultiplierBC class handles boundary conditions.">
<polygon fill="white" stroke="transparent" points="270,-390 115,-390 115,-290 270,-290 270,-390"/>
<text text-anchor="start" x="152" y="-377.2" font-family="Consolas" font-size="11.00">MultiplierBC</text>
<text text-anchor="start" x="189.5" y="-361.2" font-family="Consolas" font-size="11.00"> </text>
<text text-anchor="start" x="119.5" y="-345.2" font-family="Consolas" font-size="11.00">+</text>
<text text-anchor="start" x="130.5" y="-345.2" font-family="Consolas" font-size="11.00">process()</text>
<text text-anchor="start" x="119.5" y="-329.2" font-family="Consolas" font-size="11.00">+</text>
<text text-anchor="start" x="130.5" y="-329.2" font-family="Consolas" font-size="11.00">process_resistance()</text>
<text text-anchor="start" x="119.5" y="-313.2" font-family="Consolas" font-size="11.00">+</text>
<text text-anchor="start" x="130.5" y="-313.2" font-family="Consolas" font-size="11.00">PenaltyBC()</text>
<text text-anchor="start" x="119.5" y="-297.2" font-family="Consolas" font-size="11.00">+</text>
<text text-anchor="start" x="130.5" y="-297.2" font-family="Consolas" font-size="11.00">PenaltyBC()</text>
<polygon fill="#666666" stroke="#666666" points="115.5,-372 115.5,-372 270.5,-372 270.5,-372 115.5,-372"/>
<polygon fill="#666666" stroke="#666666" points="115.5,-356 115.5,-356 270.5,-356 270.5,-356 115.5,-356"/>
<polygon fill="none" stroke="#666666" points="115,-290 115,-390 270,-390 270,-290 115,-290"/>
</a>
</g>
</g>
<!-- Node3&#45;&gt;Node2 -->
<g id="edge2_Node000002_Node000003" class="edge">
<title>Node3&#45;&gt;Node2</title>
<g id="a_edge2_Node000002_Node000003"><a xlink:title=" ">
<path fill="none" stroke="#63b8ff" d="M146.61,-281.93C138.99,-272.47 131.1,-262.65 123.48,-253.18"/>
<polygon fill="none" stroke="#63b8ff" points="143.93,-284.19 152.92,-289.79 149.38,-279.8 143.93,-284.19"/>
</a>
</g>
</g>
<!-- Node4 -->
<g id="Node000004" class="node">
<title>Node4</title>
<g id="a_Node000004"><a xlink:href="../../dd/d1e/class_penalty_b_c.html" target="_top" xlink:title="A PenaltyBC class handles boundary conditions.">
<polygon fill="white" stroke="transparent" points="326,-527 171,-527 171,-427 326,-427 326,-527"/>
<text text-anchor="start" x="218.5" y="-514.2" font-family="Consolas" font-size="11.00">PenaltyBC</text>
<text text-anchor="start" x="245.5" y="-498.2" font-family="Consolas" font-size="11.00"> </text>
<text text-anchor="start" x="175.5" y="-482.2" font-family="Consolas" font-size="11.00">+</text>
<text text-anchor="start" x="186.5" y="-482.2" font-family="Consolas" font-size="11.00">PenaltyBC()</text>
<text text-anchor="start" x="175.5" y="-466.2" font-family="Consolas" font-size="11.00">+</text>
<text text-anchor="start" x="186.5" y="-466.2" font-family="Consolas" font-size="11.00">PenaltyBC()</text>
<text text-anchor="start" x="175.5" y="-450.2" font-family="Consolas" font-size="11.00">+</text>
<text text-anchor="start" x="186.5" y="-450.2" font-family="Consolas" font-size="11.00">process()</text>
<text text-anchor="start" x="175.5" y="-434.2" font-family="Consolas" font-size="11.00">+</text>
<text text-anchor="start" x="186.5" y="-434.2" font-family="Consolas" font-size="11.00">process_resistance()</text>
<polygon fill="#666666" stroke="#666666" points="171.5,-509 171.5,-509 326.5,-509 326.5,-509 171.5,-509"/>
<polygon fill="#666666" stroke="#666666" points="171.5,-493 171.5,-493 326.5,-493 326.5,-493 171.5,-493"/>
<polygon fill="none" stroke="#666666" points="171,-427 171,-527 326,-527 326,-427 171,-427"/>
</a>
</g>
</g>
<!-- Node4&#45;&gt;Node3 -->
<g id="edge3_Node000003_Node000004" class="edge">
<title>Node4&#45;&gt;Node3</title>
<g id="a_edge3_Node000003_Node000004"><a xlink:title=" ">
<path fill="none" stroke="#63b8ff" d="M224.25,-417.53C220.48,-408.45 216.62,-399.16 212.95,-390.31"/>
<polygon fill="none" stroke="#63b8ff" points="221.06,-418.98 228.12,-426.88 227.53,-416.3 221.06,-418.98"/>
</a>
</g>
</g>
<!-- Node5 -->
<g id="Node000005" class="node">
<title>Node5</title>
<g id="a_Node000005"><a xlink:href="../../d8/d71/class_constraint.html" target="_top" xlink:title="A Constraint class.">
<polygon fill="white" stroke="transparent" points="458,-819 263,-819 263,-575 458,-575 458,-819"/>
<text text-anchor="start" x="327" y="-806.2" font-family="Consolas" font-size="11.00">Constraint</text>
<text text-anchor="start" x="357.5" y="-790.2" font-family="Consolas" font-size="11.00"> </text>
<text text-anchor="start" x="267.5" y="-774.2" font-family="Consolas" font-size="11.00">+</text>
<text text-anchor="start" x="278.5" y="-774.2" font-family="Consolas" font-size="11.00">Constraint()</text>
<text text-anchor="start" x="267.5" y="-758.2" font-family="Consolas" font-size="11.00">+</text>
<text text-anchor="start" x="278.5" y="-758.2" font-family="Consolas" font-size="11.00">Constraint()</text>
<text text-anchor="start" x="267.5" y="-742.2" font-family="Consolas" font-size="11.00">+</text>
<text text-anchor="start" x="278.5" y="-742.2" font-family="Consolas" font-size="11.00">Constraint()</text>
<text text-anchor="start" x="267.5" y="-726.2" font-family="Consolas" font-size="11.00">+</text>
<text text-anchor="start" x="278.5" y="-726.2" font-family="Consolas" font-size="11.00">operator=()</text>
<text text-anchor="start" x="267.5" y="-710.2" font-family="Consolas" font-size="11.00">+</text>
<text text-anchor="start" x="278.5" y="-710.2" font-family="Consolas" font-size="11.00">operator=()</text>
<text text-anchor="start" x="267.5" y="-694.2" font-family="Consolas" font-size="11.00">+</text>
<text text-anchor="start" x="278.5" y="-694.2" font-family="Consolas" font-size="11.00">~Constraint()</text>
<text text-anchor="start" x="267.5" y="-678.2" font-family="Consolas" font-size="11.00">+</text>
<text text-anchor="start" x="278.5" y="-678.2" font-family="Consolas" font-size="11.00">get_resistance()</text>
<text text-anchor="start" x="267.5" y="-662.2" font-family="Consolas" font-size="11.00">+</text>
<text text-anchor="start" x="278.5" y="-662.2" font-family="Consolas" font-size="11.00">get_stiffness()</text>
<text text-anchor="start" x="267.5" y="-646.2" font-family="Consolas" font-size="11.00">+</text>
<text text-anchor="start" x="278.5" y="-646.2" font-family="Consolas" font-size="11.00">get_auxiliary_resistance()</text>
<text text-anchor="start" x="267.5" y="-630.2" font-family="Consolas" font-size="11.00">+</text>
<text text-anchor="start" x="278.5" y="-630.2" font-family="Consolas" font-size="11.00">get_auxiliary_load()</text>
<text text-anchor="start" x="267.5" y="-614.2" font-family="Consolas" font-size="11.00">+</text>
<text text-anchor="start" x="278.5" y="-614.2" font-family="Consolas" font-size="11.00">get_auxiliary_stiffness()</text>
<text text-anchor="start" x="267.5" y="-598.2" font-family="Consolas" font-size="11.00">+</text>
<text text-anchor="start" x="278.5" y="-598.2" font-family="Consolas" font-size="11.00">set_multiplier_size()</text>
<text text-anchor="start" x="267.5" y="-582.2" font-family="Consolas" font-size="11.00">+</text>
<text text-anchor="start" x="278.5" y="-582.2" font-family="Consolas" font-size="11.00">get_multiplier_size()</text>
<polygon fill="#666666" stroke="#666666" points="263.5,-801 263.5,-801 458.5,-801 458.5,-801 263.5,-801"/>
<polygon fill="#666666" stroke="#666666" points="263.5,-785 263.5,-785 458.5,-785 458.5,-785 263.5,-785"/>
<polygon fill="none" stroke="#666666" points="263,-575 263,-819 458,-819 458,-575 263,-575"/>
</a>
</g>
</g>
<!-- Node5&#45;&gt;Node4 -->
<g id="edge4_Node000004_Node000005" class="edge">
<title>Node5&#45;&gt;Node4</title>
<g id="a_edge4_Node000004_Node000005"><a xlink:title=" ">
<path fill="none" stroke="#63b8ff" d="M293.63,-565.85C286.61,-552.18 279.83,-538.97 273.74,-527.13"/>
<polygon fill="none" stroke="#63b8ff" points="290.59,-567.59 298.28,-574.89 296.82,-564.39 290.59,-567.59"/>
</a>
</g>
</g>
<!-- Node6 -->
<g id="Node000006" class="node">
<title>Node6</title>
<g id="a_Node000006"><a xlink:href="../../da/d44/class_conditional_modifier.html" target="_top" xlink:title="A ConditionalModifier class.">
<polygon fill="white" stroke="transparent" points="258.5,-1159 90.5,-1159 90.5,-903 258.5,-903 258.5,-1159"/>
<text text-anchor="start" x="110" y="-1146.2" font-family="Consolas" font-size="11.00">ConditionalModifier</text>
<text text-anchor="start" x="171" y="-1130.2" font-family="Consolas" font-size="11.00"> </text>
<text text-anchor="start" x="94.5" y="-1114.2" font-family="Consolas" font-size="11.00">+</text>
<text text-anchor="start" x="105.5" y="-1114.2" font-family="Consolas" font-size="11.00">ConditionalModifier()</text>
<text text-anchor="start" x="94.5" y="-1098.2" font-family="Consolas" font-size="11.00">+</text>
<text text-anchor="start" x="105.5" y="-1098.2" font-family="Consolas" font-size="11.00">initialize()</text>
<text text-anchor="start" x="94.5" y="-1082.2" font-family="Consolas" font-size="11.00">+</text>
<text text-anchor="start" x="105.5" y="-1082.2" font-family="Consolas" font-size="11.00">process()</text>
<text text-anchor="start" x="94.5" y="-1066.2" font-family="Consolas" font-size="11.00">+</text>
<text text-anchor="start" x="105.5" y="-1066.2" font-family="Consolas" font-size="11.00">process_resistance()</text>
<text text-anchor="start" x="94.5" y="-1050.2" font-family="Consolas" font-size="11.00">+</text>
<text text-anchor="start" x="105.5" y="-1050.2" font-family="Consolas" font-size="11.00">stage()</text>
<text text-anchor="start" x="94.5" y="-1034.2" font-family="Consolas" font-size="11.00">+</text>
<text text-anchor="start" x="105.5" y="-1034.2" font-family="Consolas" font-size="11.00">get_node_encoding()</text>
<text text-anchor="start" x="94.5" y="-1018.2" font-family="Consolas" font-size="11.00">+</text>
<text text-anchor="start" x="105.5" y="-1018.2" font-family="Consolas" font-size="11.00">get_dof_encoding()</text>
<text text-anchor="start" x="94.5" y="-1002.2" font-family="Consolas" font-size="11.00">+</text>
<text text-anchor="start" x="105.5" y="-1002.2" font-family="Consolas" font-size="11.00">set_initialized()</text>
<text text-anchor="start" x="94.5" y="-986.2" font-family="Consolas" font-size="11.00">+</text>
<text text-anchor="start" x="105.5" y="-986.2" font-family="Consolas" font-size="11.00">is_initialized()</text>
<text text-anchor="start" x="94.5" y="-970.2" font-family="Consolas" font-size="11.00">+</text>
<text text-anchor="start" x="105.5" y="-970.2" font-family="Consolas" font-size="11.00">set_start_step()</text>
<text text-anchor="start" x="105.5" y="-954.2" font-family="Consolas" font-size="11.00">and 10 more...</text>
<text text-anchor="start" x="94.5" y="-938.2" font-family="Consolas" font-size="11.00">#</text>
<text text-anchor="start" x="105.5" y="-938.2" font-family="Consolas" font-size="11.00">get_nodal_active_dof()</text>
<text text-anchor="start" x="94.5" y="-922.2" font-family="Consolas" font-size="11.00">#</text>
<text text-anchor="start" x="105.5" y="-922.2" font-family="Consolas" font-size="11.00">get_all_nodal_active</text>
<text text-anchor="start" x="105.5" y="-910.2" font-family="Consolas" font-size="11.00">_dof()</text>
<polygon fill="#666666" stroke="#666666" points="90.5,-1141 90.5,-1141 258.5,-1141 258.5,-1141 90.5,-1141"/>
<polygon fill="#666666" stroke="#666666" points="90.5,-1125 90.5,-1125 258.5,-1125 258.5,-1125 90.5,-1125"/>
<polygon fill="none" stroke="#666666" points="90.5,-903 90.5,-1159 258.5,-1159 258.5,-903 90.5,-903"/>
</a>
</g>
</g>
<!-- Node6&#45;&gt;Node5 -->
<g id="edge5_Node000005_Node000006" class="edge">
<title>Node6&#45;&gt;Node5</title>
<g id="a_edge5_Node000005_Node000006"><a xlink:title=" ">
<path fill="none" stroke="#63b8ff" d="M234.56,-893.67C244.07,-874.38 254.19,-855 264.5,-837 267.85,-831.15 271.38,-825.22 275.02,-819.29"/>
<polygon fill="none" stroke="#63b8ff" points="231.33,-892.31 230.09,-902.83 237.62,-895.38 231.33,-892.31"/>
</a>
</g>
</g>
<!-- Node7 -->
<g id="Node000007" class="node">
<title>Node7</title>
<g id="a_Node000007"><a xlink:href="../../d0/d57/class_tag.html" target="_top" xlink:title="A base Tag class.">
<polygon fill="white" stroke="transparent" points="206,-1507 105,-1507 105,-1231 206,-1231 206,-1507"/>
<text text-anchor="start" x="145.5" y="-1494.2" font-family="Consolas" font-size="11.00">Tag</text>
<text text-anchor="start" x="152.5" y="-1478.2" font-family="Consolas" font-size="11.00"> </text>
<text text-anchor="start" x="109.5" y="-1462.2" font-family="Consolas" font-size="11.00">+</text>
<text text-anchor="start" x="120.5" y="-1462.2" font-family="Consolas" font-size="11.00">Tag()</text>
<text text-anchor="start" x="109.5" y="-1446.2" font-family="Consolas" font-size="11.00">+</text>
<text text-anchor="start" x="120.5" y="-1446.2" font-family="Consolas" font-size="11.00">Tag()</text>
<text text-anchor="start" x="109.5" y="-1430.2" font-family="Consolas" font-size="11.00">+</text>
<text text-anchor="start" x="120.5" y="-1430.2" font-family="Consolas" font-size="11.00">Tag()</text>
<text text-anchor="start" x="109.5" y="-1414.2" font-family="Consolas" font-size="11.00">+</text>
<text text-anchor="start" x="120.5" y="-1414.2" font-family="Consolas" font-size="11.00">operator=()</text>
<text text-anchor="start" x="109.5" y="-1398.2" font-family="Consolas" font-size="11.00">+</text>
<text text-anchor="start" x="120.5" y="-1398.2" font-family="Consolas" font-size="11.00">operator=()</text>
<text text-anchor="start" x="109.5" y="-1382.2" font-family="Consolas" font-size="11.00">+</text>
<text text-anchor="start" x="120.5" y="-1382.2" font-family="Consolas" font-size="11.00">~Tag()</text>
<text text-anchor="start" x="109.5" y="-1366.2" font-family="Consolas" font-size="11.00">+</text>
<text text-anchor="start" x="120.5" y="-1366.2" font-family="Consolas" font-size="11.00">set_tag()</text>
<text text-anchor="start" x="109.5" y="-1350.2" font-family="Consolas" font-size="11.00">+</text>
<text text-anchor="start" x="120.5" y="-1350.2" font-family="Consolas" font-size="11.00">get_tag()</text>
<text text-anchor="start" x="109.5" y="-1334.2" font-family="Consolas" font-size="11.00">+</text>
<text text-anchor="start" x="120.5" y="-1334.2" font-family="Consolas" font-size="11.00">enable()</text>
<text text-anchor="start" x="109.5" y="-1318.2" font-family="Consolas" font-size="11.00">+</text>
<text text-anchor="start" x="120.5" y="-1318.2" font-family="Consolas" font-size="11.00">disable()</text>
<text text-anchor="start" x="109.5" y="-1302.2" font-family="Consolas" font-size="11.00">+</text>
<text text-anchor="start" x="120.5" y="-1302.2" font-family="Consolas" font-size="11.00">guard()</text>
<text text-anchor="start" x="109.5" y="-1286.2" font-family="Consolas" font-size="11.00">+</text>
<text text-anchor="start" x="120.5" y="-1286.2" font-family="Consolas" font-size="11.00">unguard()</text>
<text text-anchor="start" x="109.5" y="-1270.2" font-family="Consolas" font-size="11.00">+</text>
<text text-anchor="start" x="120.5" y="-1270.2" font-family="Consolas" font-size="11.00">is_active()</text>
<text text-anchor="start" x="109.5" y="-1254.2" font-family="Consolas" font-size="11.00">+</text>
<text text-anchor="start" x="120.5" y="-1254.2" font-family="Consolas" font-size="11.00">is_guarded()</text>
<text text-anchor="start" x="109.5" y="-1238.2" font-family="Consolas" font-size="11.00">+</text>
<text text-anchor="start" x="120.5" y="-1238.2" font-family="Consolas" font-size="11.00">print()</text>
<polygon fill="#666666" stroke="#666666" points="105.5,-1489 105.5,-1489 206.5,-1489 206.5,-1489 105.5,-1489"/>
<polygon fill="#666666" stroke="#666666" points="105.5,-1473 105.5,-1473 206.5,-1473 206.5,-1473 105.5,-1473"/>
<polygon fill="none" stroke="#666666" points="105,-1231 105,-1507 206,-1507 206,-1231 105,-1231"/>
</a>
</g>
</g>
<!-- Node7&#45;&gt;Node6 -->
<g id="edge6_Node000006_Node000007" class="edge">
<title>Node7&#45;&gt;Node6</title>
<g id="a_edge6_Node000006_Node000007"><a xlink:title=" ">
<path fill="none" stroke="#63b8ff" d="M163.82,-1220.82C164.98,-1200.29 166.17,-1179.35 167.3,-1159.24"/>
<polygon fill="none" stroke="#63b8ff" points="160.33,-1220.67 163.26,-1230.85 167.31,-1221.06 160.33,-1220.67"/>
</a>
</g>
</g>
<!-- Node8 -->
<g id="Node000008" class="node">
<title>Node8</title>
<g id="a_Node000008"><a xlink:title=" ">
<polygon fill="white" stroke="transparent" points="486.5,-1395 408.5,-1395 408.5,-1343 486.5,-1343 486.5,-1395"/>
<text text-anchor="start" x="413.5" y="-1382.2" font-family="Consolas" font-size="11.00">const bool</text>
<text text-anchor="start" x="444" y="-1366.2" font-family="Consolas" font-size="11.00"> </text>
<text text-anchor="start" x="444" y="-1350.2" font-family="Consolas" font-size="11.00"> </text>
<polygon fill="#666666" stroke="#666666" points="408.5,-1377 408.5,-1377 486.5,-1377 486.5,-1377 408.5,-1377"/>
<polygon fill="#666666" stroke="#666666" points="408.5,-1361 408.5,-1361 486.5,-1361 486.5,-1361 408.5,-1361"/>
<polygon fill="none" stroke="#666666" points="408.5,-1343 408.5,-1395 486.5,-1395 486.5,-1343 408.5,-1343"/>
</a>
</g>
</g>
<!-- Node8&#45;&gt;Node6 -->
<g id="edge7_Node000006_Node000008" class="edge">
<title>Node8&#45;&gt;Node6</title>
<g id="a_edge7_Node000006_Node000008"><a xlink:title=" ">
<path fill="none" stroke="#63b8ff" d="M443.42,-1342.85C437.68,-1313.6 424.92,-1265.01 399.5,-1231 374.91,-1198.1 361.26,-1195.33 324.5,-1177 303.27,-1166.42 291.49,-1172.69 268.76,-1159.6"/>
<polygon fill="none" stroke="#63b8ff" points="268.71,-1159.58 261.5,-1159.63 258.68,-1153 265.89,-1152.94 268.71,-1159.58"/>
</a>
</g>
<text text-anchor="middle" x="423.5" y="-1198.2" font-family="Consolas" font-size="11.00" fill="grey"> #connected</text>
<text text-anchor="middle" x="423.5" y="-1186.2" font-family="Consolas" font-size="11.00" fill="grey">#initialized</text>
</g>
<!-- Node9 -->
<g id="Node000009" class="node">
<title>Node9</title>
<g id="a_Node000009"><a xlink:title=" ">
<polygon fill="white" stroke="transparent" points="712,-1395 647,-1395 647,-1343 712,-1343 712,-1395"/>
<text text-anchor="start" x="652.5" y="-1382.2" font-family="Consolas" font-size="11.00">unsigned</text>
<text text-anchor="start" x="676.5" y="-1366.2" font-family="Consolas" font-size="11.00"> </text>
<text text-anchor="start" x="676.5" y="-1350.2" font-family="Consolas" font-size="11.00"> </text>
<polygon fill="#666666" stroke="#666666" points="647.5,-1377 647.5,-1377 712.5,-1377 712.5,-1377 647.5,-1377"/>
<polygon fill="#666666" stroke="#666666" points="647.5,-1361 647.5,-1361 712.5,-1361 712.5,-1361 647.5,-1361"/>
<polygon fill="none" stroke="#666666" points="647,-1343 647,-1395 712,-1395 712,-1343 647,-1343"/>
</a>
</g>
</g>
<!-- Node9&#45;&gt;Node5 -->
<g id="edge12_Node000005_Node000009" class="edge">
<title>Node9&#45;&gt;Node5</title>
<g id="a_edge12_Node000005_Node000009"><a xlink:title=" ">
<path fill="none" stroke="#63b8ff" d="M695.54,-1342.95C745.51,-1261.44 888.22,-999.68 771.5,-837 703.5,-742.21 567.35,-711.24 470.39,-701.56"/>
<polygon fill="none" stroke="#63b8ff" points="470.13,-701.54 463.78,-704.97 458.18,-700.43 464.52,-697 470.13,-701.54"/>
</a>
</g>
<text text-anchor="middle" x="849.5" y="-1028.2" font-family="Consolas" font-size="11.00" fill="grey"> #num_size</text>
</g>
<!-- Node9&#45;&gt;Node6 -->
<g id="edge8_Node000006_Node000009" class="edge">
<title>Node9&#45;&gt;Node6</title>
<g id="a_edge8_Node000006_Node000009"><a xlink:title=" ">
<path fill="none" stroke="#63b8ff" d="M661.03,-1342.95C627.9,-1300.24 553.84,-1214.32 468.5,-1177 389.47,-1142.44 348.48,-1198.3 269.4,-1159.8"/>
<polygon fill="none" stroke="#63b8ff" points="269.11,-1159.65 261.94,-1160.37 258.51,-1154.02 265.68,-1153.3 269.11,-1159.65"/>
</a>
</g>
<text text-anchor="middle" x="579.5" y="-1204.2" font-family="Consolas" font-size="11.00" fill="grey"> #amplitude_tag</text>
<text text-anchor="middle" x="579.5" y="-1192.2" font-family="Consolas" font-size="11.00" fill="grey">#end_step</text>
<text text-anchor="middle" x="579.5" y="-1180.2" font-family="Consolas" font-size="11.00" fill="grey">#start_step</text>
</g>
<!-- Node10 -->
<g id="Node000010" class="node">
<title>Node10</title>
<g id="a_Node000010"><a xlink:title=" ">
<polygon fill="white" stroke="transparent" points="67.5,-1395 29.5,-1395 29.5,-1343 67.5,-1343 67.5,-1395"/>
<text text-anchor="start" x="34.5" y="-1382.2" font-family="Consolas" font-size="11.00">uvec</text>
<text text-anchor="start" x="45" y="-1366.2" font-family="Consolas" font-size="11.00"> </text>
<text text-anchor="start" x="45" y="-1350.2" font-family="Consolas" font-size="11.00"> </text>
<polygon fill="#666666" stroke="#666666" points="29.5,-1377 29.5,-1377 67.5,-1377 67.5,-1377 29.5,-1377"/>
<polygon fill="#666666" stroke="#666666" points="29.5,-1361 29.5,-1361 67.5,-1361 67.5,-1361 29.5,-1361"/>
<polygon fill="none" stroke="#666666" points="29.5,-1343 29.5,-1395 67.5,-1395 67.5,-1343 29.5,-1343"/>
</a>
</g>
</g>
<!-- Node10&#45;&gt;Node2 -->
<g id="edge16_Node000002_Node000010" class="edge">
<title>Node10&#45;&gt;Node2</title>
<g id="a_edge16_Node000002_Node000010"><a xlink:title=" ">
<path fill="none" stroke="#63b8ff" d="M46.35,-1342.73C41.77,-1286.79 31.5,-1148.23 31.5,-1032 31.5,-1032 31.5,-1032 31.5,-339 31.5,-314.01 37.94,-287.7 46.01,-264.55"/>
<polygon fill="none" stroke="#63b8ff" points="46.07,-264.37 44.39,-257.36 50.21,-253.11 51.9,-260.12 46.07,-264.37"/>
</a>
</g>
<text text-anchor="middle" x="59" y="-548.2" font-family="Consolas" font-size="11.00" fill="grey"> #groups</text>
</g>
<!-- Node10&#45;&gt;Node6 -->
<g id="edge9_Node000006_Node000010" class="edge">
<title>Node10&#45;&gt;Node6</title>
<g id="a_edge9_Node000006_Node000010"><a xlink:title=" ">
<path fill="none" stroke="#63b8ff" d="M46.46,-1342.91C44.34,-1305.44 43.9,-1233.25 65.5,-1177 70.39,-1164.27 76.75,-1151.69 83.93,-1139.58"/>
<polygon fill="none" stroke="#63b8ff" points="84.12,-1139.28 83.88,-1132.07 90.44,-1129.07 90.68,-1136.28 84.12,-1139.28"/>
</a>
</g>
<text text-anchor="middle" x="113" y="-1204.2" font-family="Consolas" font-size="11.00" fill="grey"> #dof_encoding</text>
<text text-anchor="middle" x="113" y="-1192.2" font-family="Consolas" font-size="11.00" fill="grey">#dof_reference</text>
<text text-anchor="middle" x="113" y="-1180.2" font-family="Consolas" font-size="11.00" fill="grey">#node_encoding</text>
</g>
<!-- Node11 -->
<g id="Node000011" class="node">
<title>Node11</title>
<g id="a_Node000011"><a xlink:title=" ">
<polygon fill="white" stroke="transparent" points="390.5,-1395 224.5,-1395 224.5,-1343 390.5,-1343 390.5,-1395"/>
<text text-anchor="start" x="229.5" y="-1382.2" font-family="Consolas" font-size="11.00">shared_ptr&lt; Amplitude &gt;</text>
<text text-anchor="start" x="304" y="-1366.2" font-family="Consolas" font-size="11.00"> </text>
<text text-anchor="start" x="304" y="-1350.2" font-family="Consolas" font-size="11.00"> </text>
<polygon fill="#666666" stroke="#666666" points="224.5,-1377 224.5,-1377 390.5,-1377 390.5,-1377 224.5,-1377"/>
<polygon fill="#666666" stroke="#666666" points="224.5,-1361 224.5,-1361 390.5,-1361 390.5,-1361 224.5,-1361"/>
<polygon fill="none" stroke="#666666" points="224.5,-1343 224.5,-1395 390.5,-1395 390.5,-1343 224.5,-1343"/>
</a>
</g>
</g>
<!-- Node11&#45;&gt;Node6 -->
<g id="edge10_Node000006_Node000011" class="edge">
<title>Node11&#45;&gt;Node6</title>
<g id="a_edge10_Node000006_Node000011"><a xlink:title=" ">
<path fill="none" stroke="#63b8ff" d="M297.5,-1342.75C282.97,-1306.03 254.94,-1235.21 229.3,-1170.44"/>
<polygon fill="none" stroke="#63b8ff" points="229.29,-1170.42 223.36,-1166.32 224.88,-1159.26 230.8,-1163.37 229.29,-1170.42"/>
</a>
</g>
<text text-anchor="middle" x="283" y="-1192.2" font-family="Consolas" font-size="11.00" fill="grey"> #magnitude</text>
</g>
<!-- Node12 -->
<g id="Node000012" class="node">
<title>Node12</title>
<g id="a_Node000012"><a xlink:title=" ">
<polygon fill="white" stroke="transparent" points="327,-1057 276,-1057 276,-1005 327,-1005 327,-1057"/>
<text text-anchor="start" x="281.5" y="-1044.2" font-family="Consolas" font-size="11.00">double</text>
<text text-anchor="start" x="298.5" y="-1028.2" font-family="Consolas" font-size="11.00"> </text>
<text text-anchor="start" x="298.5" y="-1012.2" font-family="Consolas" font-size="11.00"> </text>
<polygon fill="#666666" stroke="#666666" points="276.5,-1039 276.5,-1039 327.5,-1039 327.5,-1039 276.5,-1039"/>
<polygon fill="#666666" stroke="#666666" points="276.5,-1023 276.5,-1023 327.5,-1023 327.5,-1023 276.5,-1023"/>
<polygon fill="none" stroke="#666666" points="276,-1005 276,-1057 327,-1057 327,-1005 276,-1005"/>
</a>
</g>
</g>
<!-- Node12&#45;&gt;Node5 -->
<g id="edge11_Node000005_Node000012" class="edge">
<title>Node12&#45;&gt;Node5</title>
<g id="a_edge11_Node000005_Node000012"><a xlink:title=" ">
<path fill="none" stroke="#63b8ff" d="M291.48,-1004.87C278.07,-967.59 257.8,-895.74 274.5,-837 275.11,-834.84 275.77,-832.68 276.47,-830.53"/>
<polygon fill="none" stroke="#63b8ff" points="276.54,-830.34 274.79,-823.35 280.58,-819.05 282.32,-826.04 276.54,-830.34"/>
</a>
</g>
<text text-anchor="middle" x="315.5" y="-858.2" font-family="Consolas" font-size="11.00" fill="grey"> #multiplier</text>
</g>
<!-- Node13 -->
<g id="Node000013" class="node">
<title>Node13</title>
<g id="a_Node000013"><a xlink:title=" ">
<polygon fill="white" stroke="transparent" points="376,-1057 345,-1057 345,-1005 376,-1005 376,-1057"/>
<text text-anchor="start" x="350.5" y="-1044.2" font-family="Consolas" font-size="11.00">vec</text>
<text text-anchor="start" x="357.5" y="-1028.2" font-family="Consolas" font-size="11.00"> </text>
<text text-anchor="start" x="357.5" y="-1012.2" font-family="Consolas" font-size="11.00"> </text>
<polygon fill="#666666" stroke="#666666" points="345.5,-1039 345.5,-1039 376.5,-1039 376.5,-1039 345.5,-1039"/>
<polygon fill="#666666" stroke="#666666" points="345.5,-1023 345.5,-1023 376.5,-1023 376.5,-1023 345.5,-1023"/>
<polygon fill="none" stroke="#666666" points="345,-1005 345,-1057 376,-1057 376,-1005 345,-1005"/>
</a>
</g>
</g>
<!-- Node13&#45;&gt;Node5 -->
<g id="edge13_Node000005_Node000013" class="edge">
<title>Node13&#45;&gt;Node5</title>
<g id="a_edge13_Node000005_Node000013"><a xlink:title=" ">
<path fill="none" stroke="#63b8ff" d="M360.5,-1004.77C360.5,-967.73 360.5,-896 360.5,-831.21"/>
<polygon fill="none" stroke="#63b8ff" points="360.5,-831.2 356.5,-825.2 360.5,-819.2 364.5,-825.2 360.5,-831.2"/>
</a>
</g>
<text text-anchor="middle" x="431.5" y="-876.2" font-family="Consolas" font-size="11.00" fill="grey"> #auxiliary_load</text>
<text text-anchor="middle" x="431.5" y="-864.2" font-family="Consolas" font-size="11.00" fill="grey">#auxiliary_resistance</text>
<text text-anchor="middle" x="431.5" y="-852.2" font-family="Consolas" font-size="11.00" fill="grey">#current_lambda</text>
<text text-anchor="middle" x="431.5" y="-840.2" font-family="Consolas" font-size="11.00" fill="grey">#trial_lambda</text>
</g>
<!-- Node14 -->
<g id="Node000014" class="node">
<title>Node14</title>
<g id="a_Node000014"><a xlink:title=" ">
<polygon fill="white" stroke="transparent" points="551,-1057 500,-1057 500,-1005 551,-1005 551,-1057"/>
<text text-anchor="start" x="505.5" y="-1044.2" font-family="Consolas" font-size="11.00">sp_vec</text>
<text text-anchor="start" x="522.5" y="-1028.2" font-family="Consolas" font-size="11.00"> </text>
<text text-anchor="start" x="522.5" y="-1012.2" font-family="Consolas" font-size="11.00"> </text>
<polygon fill="#666666" stroke="#666666" points="500.5,-1039 500.5,-1039 551.5,-1039 551.5,-1039 500.5,-1039"/>
<polygon fill="#666666" stroke="#666666" points="500.5,-1023 500.5,-1023 551.5,-1023 551.5,-1023 500.5,-1023"/>
<polygon fill="none" stroke="#666666" points="500,-1005 500,-1057 551,-1057 551,-1005 500,-1005"/>
</a>
</g>
</g>
<!-- Node14&#45;&gt;Node5 -->
<g id="edge14_Node000005_Node000014" class="edge">
<title>Node14&#45;&gt;Node5</title>
<g id="a_edge14_Node000005_Node000014"><a xlink:title=" ">
<path fill="none" stroke="#63b8ff" d="M527.83,-1004.75C530.26,-966.4 530.56,-892.09 503.5,-837 494.1,-817.86 480.94,-799.88 466.38,-783.62"/>
<polygon fill="none" stroke="#63b8ff" points="466.33,-783.56 459.32,-781.88 458.17,-774.76 465.18,-776.44 466.33,-783.56"/>
</a>
</g>
<text text-anchor="middle" x="559.5" y="-858.2" font-family="Consolas" font-size="11.00" fill="grey"> #resistance</text>
</g>
<!-- Node15 -->
<g id="Node000015" class="node">
<title>Node15</title>
<g id="a_Node000015"><a xlink:title=" ">
<polygon fill="white" stroke="transparent" points="656,-1057 605,-1057 605,-1005 656,-1005 656,-1057"/>
<text text-anchor="start" x="610.5" y="-1044.2" font-family="Consolas" font-size="11.00">sp_mat</text>
<text text-anchor="start" x="627.5" y="-1028.2" font-family="Consolas" font-size="11.00"> </text>
<text text-anchor="start" x="627.5" y="-1012.2" font-family="Consolas" font-size="11.00"> </text>
<polygon fill="#666666" stroke="#666666" points="605.5,-1039 605.5,-1039 656.5,-1039 656.5,-1039 605.5,-1039"/>
<polygon fill="#666666" stroke="#666666" points="605.5,-1023 605.5,-1023 656.5,-1023 656.5,-1023 605.5,-1023"/>
<polygon fill="none" stroke="#666666" points="605,-1005 605,-1057 656,-1057 656,-1005 605,-1005"/>
</a>
</g>
</g>
<!-- Node15&#45;&gt;Node5 -->
<g id="edge15_Node000005_Node000015" class="edge">
<title>Node15&#45;&gt;Node5</title>
<g id="a_edge15_Node000005_Node000015"><a xlink:title=" ">
<path fill="none" stroke="#63b8ff" d="M633.77,-1004.7C637.51,-965.29 639.19,-888.43 604.5,-837 572.44,-789.47 518.34,-756.27 469.22,-734.27"/>
<polygon fill="none" stroke="#63b8ff" points="469.17,-734.25 462.08,-735.53 458.17,-729.47 465.27,-728.19 469.17,-734.25"/>
</a>
</g>
<text text-anchor="middle" x="696.5" y="-864.2" font-family="Consolas" font-size="11.00" fill="grey"> #auxiliary_stiffness</text>
<text text-anchor="middle" x="696.5" y="-852.2" font-family="Consolas" font-size="11.00" fill="grey">#stiffness</text>
</g>
</g>
</svg>

<g id="navigator" transform="translate(0 0)" fill="#404254">
  <rect fill="#f2f5e9" fill-opacity="0.5" stroke="#606060" stroke-width=".5" x="0" y="0" width="60" height="60"/>
  <use id="zoomplus" xlink:href="#zoomPlus" x="17" y="9" onmousedown="handleZoom(evt,'in')"/>
  <use id="zoomminus" xlink:href="#zoomMin" x="42" y="9" onmousedown="handleZoom(evt,'out')"/>
  <use id="reset" xlink:href="#resetDef" x="30" y="36" onmousedown="handleReset()"/>
   <use id="arrowup" xlink:href="#arrowUp" x="0" y="0" onmousedown="handlePan(0,-1)"/>
  <use id="arrowright" xlink:href="#arrowRight" x="0" y="0" onmousedown="handlePan(1,0)"/>
  <use id="arrowdown" xlink:href="#arrowDown" x="0" y="0" onmousedown="handlePan(0,1)"/>
  <use id="arrowleft" xlink:href="#arrowLeft" x="0" y="0" onmousedown="handlePan(-1,0)"/>
</g>
<svg viewBox="0 0 15 15" width="100%" height="30px" preserveAspectRatio="xMaxYMin meet">
 <g id="arrow_out" transform="scale(0.3 0.3)">
  <a xlink:href="class_group_multiplier_b_c__coll__graph_org.svg" target="_base">
   <rect id="button" ry="5" rx="5" y="6" x="6" height="38" width="38"
        fill="#f2f5e9" fill-opacity="0.5" stroke="#606060" stroke-width="1.0"/>
   <path id="arrow"
     d="M 11.500037,31.436501 C 11.940474,20.09759 22.043105,11.32322 32.158766,21.979434 L 37.068811,17.246167 C 37.068811,17.246167 37.088388,32 37.088388,32 L 22.160133,31.978069 C 22.160133,31.978069 26.997745,27.140456 26.997745,27.140456 C 18.528582,18.264221 13.291696,25.230495 11.500037,31.436501 z"
     style="fill:#404040;"/>
  </a>
 </g>
</svg>

<style type='text/css'>
<![CDATA[
[data-mouse-over-selected='false'] { opacity: 0.7; }
[data-mouse-over-selected='true']  { opacity: 1.0; }
]]>
</style>
<script type="application/ecmascript"><![CDATA[
document.addEventListener('DOMContentLoaded', (event) => {
  highlightEdges();
  highlightAdjacentNodes();
});
]]></script>
</svg>
