<svg xmlns="http://www.w3.org/2000/svg" xmlns:xlink="http://www.w3.org/1999/xlink" xml:space="preserve" id="main" onload="init(evt)"><style>.edge,.node,[data-mouse-over-selected=false]{opacity:.7}.edge.selected,.node.selected,[data-mouse-over-selected=true]{opacity:1}.edge:hover path{stroke:red}.edge:hover polygon{stroke:red;fill:red}</style><defs><g id="zoomPlus"><use xlink:href="#rim" fill="#404040"><set attributeName="fill" begin="zoomplus.mouseover" end="zoomplus.mouseout" to="#808080"/></use><path fill="none" stroke="#fff" stroke-width="1.5" d="M-4 0h8M0-4v8" pointer-events="none"/></g><g id="zoomMin"><use xlink:href="#rim" fill="#404040"><set attributeName="fill" begin="zoomminus.mouseover" end="zoomminus.mouseout" to="#808080"/></use><path fill="none" stroke="#fff" stroke-width="1.5" d="M-4 0h8" pointer-events="none"/></g><g id="arrowUp" transform="translate(30 24)"><use xlink:href="#rim"/><path fill="none" stroke="#fff" stroke-width="1.5" d="M0-3v7M-2.5-.5 0-3 2.5-.5" pointer-events="none"/></g><g id="arrowRight" transform="rotate(90 3.5 39.5)"><use xlink:href="#rim"/><path fill="none" stroke="#fff" stroke-width="1.5" d="M0-3v7M-2.5-.5 0-3 2.5-.5" pointer-events="none"/></g><g id="arrowDown" transform="matrix(-1 0 0 -1 30 48)"><use xlink:href="#rim"/><path fill="none" stroke="#fff" stroke-width="1.5" d="M0-3v7M-2.5-.5 0-3 2.5-.5" pointer-events="none"/></g><g id="arrowLeft" transform="rotate(-90 26.5 9.5)"><use xlink:href="#rim"/><path fill="none" stroke="#fff" stroke-width="1.5" d="M0-3v7M-2.5-.5 0-3 2.5-.5" pointer-events="none"/></g><circle id="rim" cx="0" cy="0" r="7"/><circle id="rim2" cx="0" cy="0" r="3.5"/><use xlink:href="#rim2" id="resetDef" fill="#404040"><set attributeName="fill" begin="reset.mouseover" end="reset.mouseout" to="#808080"/></use></defs><script type="application/ecmascript">var viewWidth = 1065;
var viewHeight = 500;
var sectionId = &apos;dynsection-0&apos;;</script><script xlink:href="../../svg.min.js" type="application/ecmascript"/><svg id="graph" class="graph"><g id="viewport"><title>Element/Cube/DC3D8.cpp</title><g id="Node000001" class="node"><title>Node1</title><a id="a_Node000001">
<path fill="#999" stroke="#666" d="M696.5-492h-165v20h165z"/>
<text x="614" y="-479.2" font-family="Consolas" font-size="11" text-anchor="middle">Element/Cube/DC3D8.cpp</text>
</a></g><g id="Node000002" class="node"><title>Node2</title><a xlink:href="../../dc/d84/_d_c3_d8_8h.html" id="a_Node000002" target="_top">
<path fill="#fff" stroke="#666" d="M586-430h-64v20h64z"/>
<text x="554" y="-417.2" font-family="Consolas" font-size="11" text-anchor="middle">DC3D8.h</text>
</a></g><g id="edge1_Node000001_Node000002" class="edge"><title>Node1-&gt;Node2</title><a id="a_edge1_Node000001_Node000002">
<path fill="none" stroke="#63b8ff" d="m604.89-471.89-34.61 34.61"/>
<path fill="#63b8ff" stroke="#63b8ff" d="m572.74-434.79-9.54 4.59 4.59-9.54z"/>
</a></g><g id="Node000018" class="node"><title>Node18</title><a xlink:href="../../d4/d0f/_output_type_8h.html" id="a_Node000018" target="_top">
<path fill="#fff" stroke="#666" d="M763-194H605v20h158z"/>
<text x="684" y="-181.2" font-family="Consolas" font-size="11" text-anchor="middle">Recorder/OutputType.h</text>
</a></g><g id="edge37_Node000001_Node000018" class="edge"><title>Node1-&gt;Node18</title><a id="a_edge37_Node000001_Node000018">
<path fill="none" stroke="#63b8ff" d="M623.04-471.79C640.9-452.56 679-406.04 679-359v58c0 34.14 2.19 73.89 3.67 96.87"/>
<path fill="#63b8ff" stroke="#63b8ff" d="m686.17-204.23-2.82 10.21-4.16-9.74z"/>
</a></g><g id="Node000023" class="node"><title>Node23</title><a xlink:href="../../dc/df2/_domain_base_8h.html" id="a_Node000023" target="_top">
<path fill="#fff" stroke="#666" d="M926.5-194h-145v20h145z"/>
<text x="854" y="-181.2" font-family="Consolas" font-size="11" text-anchor="middle">Domain/DomainBase.h</text>
</a></g><g id="edge26_Node000001_Node000023" class="edge"><title>Node1-&gt;Node23</title><a id="a_edge26_Node000001_Node000023">
<path fill="none" stroke="#63b8ff" d="M651.09-471.99C700.84-457.42 783-423.59 783-359v58c0 40.62 32.06 79.03 53.09 99.85"/>
<path fill="#63b8ff" stroke="#63b8ff" d="m838.7-203.49 4.82 9.43-9.65-4.37z"/>
</a></g><g id="Node000030" class="node"><title>Node30</title><a xlink:href="../../dc/d12/_material3_d_8h.html" id="a_Node000030" target="_top">
<path fill="#fff" stroke="#666" d="M424.5-436h-145v32h145z"/>
<text x="287.5" y="-423.2" font-family="Consolas" font-size="11">Material/Material3D</text>
<text x="352" y="-411.2" font-family="Consolas" font-size="11" text-anchor="middle">/Material3D.h</text>
</a></g><g id="edge35_Node000001_Node000030" class="edge"><title>Node1-&gt;Node30</title><a id="a_edge35_Node000001_Node000030">
<path fill="none" stroke="#63b8ff" d="M574.49-471.95c-38.77 8.88-98.89 22.65-146.87 33.63"/>
<path fill="#63b8ff" stroke="#63b8ff" d="m428.11-434.84-10.53-1.18 8.96-5.64z"/>
</a></g><g id="Node000031" class="node"><title>Node31</title><a xlink:href="../../d7/dab/_integration_plan_8h.html" id="a_Node000031" target="_top">
<path fill="#fff" stroke="#666" d="M1056.5-368h-185v20h185z"/>
<text x="964" y="-355.2" font-family="Consolas" font-size="11" text-anchor="middle">Toolbox/IntegrationPlan.h</text>
</a></g><g id="edge38_Node000001_Node000031" class="edge"><title>Node1-&gt;Node31</title><a id="a_edge38_Node000001_Node000031">
<path fill="none" stroke="#63b8ff" d="M661.35-471.95c37.38 7.76 90.56 20.17 135.65 35.95 51.34 17.96 108.31 46.12 140.68 62.95"/>
<path fill="#63b8ff" stroke="#63b8ff" d="m939.67-375.96 7.23 7.74-10.48-1.54z"/>
</a></g><g id="Node000032" class="node"><title>Node32</title><a xlink:href="../../da/d18/shape_8h.html" id="a_Node000032" target="_top">
<path fill="#fff" stroke="#666" d="M118-312H0v20h118z"/>
<text x="59" y="-299.2" font-family="Consolas" font-size="11" text-anchor="middle">Toolbox/shape.h</text>
</a></g><g id="edge40_Node000001_Node000032" class="edge"><title>Node1-&gt;Node32</title><a id="a_edge40_Node000001_Node000032">
<path fill="none" stroke="#63b8ff" d="M531.39-480.09C460.21-477.01 355.69-466.92 270-436c-78.1 28.18-157.58 88.76-192.56 117.4"/>
<path fill="#63b8ff" stroke="#63b8ff" d="m79.47-315.74-9.93 3.69 5.46-9.08z"/>
</a></g><g id="Node000003" class="node"><title>Node3</title><a xlink:href="../../dc/d5f/_material_element_8h.html" id="a_Node000003" target="_top">
<path fill="#fff" stroke="#666" d="M646.5-368h-185v20h185z"/>
<text x="554" y="-355.2" font-family="Consolas" font-size="11" text-anchor="middle">Element/MaterialElement.h</text>
</a></g><g id="edge2_Node000002_Node000003" class="edge"><title>Node2-&gt;Node3</title><a id="a_edge2_Node000002_Node000003">
<path fill="none" stroke="#63b8ff" d="M554-409.89v31.66"/>
<path fill="#63b8ff" stroke="#63b8ff" d="m557.5-378.2-3.5 10-3.5-10z"/>
</a></g><g id="Node000020" class="node"><title>Node20</title><a xlink:href="../../d1/dd1/_phase_field_8h.html" id="a_Node000020" target="_top">
<path fill="#fff" stroke="#666" d="M443-368H237v20h206z"/>
<text x="340" y="-355.2" font-family="Consolas" font-size="11" text-anchor="middle">Element/Utility/PhaseField.h</text>
</a></g><g id="edge22_Node000002_Node000020" class="edge"><title>Node2-&gt;Node20</title><a id="a_edge22_Node000002_Node000020">
<path fill="none" stroke="#63b8ff" d="M521.96-410.02c-37.27 10.45-98.92 27.74-139.99 39.25"/>
<path fill="#63b8ff" stroke="#63b8ff" d="m382.83-367.37-10.57-.67 8.68-6.07z"/>
</a></g><g id="Node000004" class="node"><title>Node4</title><a xlink:href="../../d0/db8/_element_8h.html" id="a_Node000004" target="_top">
<path fill="#fff" stroke="#666" d="M520.5-312h-131v20h131z"/>
<text x="455" y="-299.2" font-family="Consolas" font-size="11" text-anchor="middle">Element/Element.h</text>
</a></g><g id="edge3_Node000003_Node000004" class="edge"><title>Node3-&gt;Node4</title><a id="a_edge3_Node000003_Node000004">
<path fill="none" stroke="#63b8ff" d="M537.21-347.84c-15.46 8.43-38.61 21.06-56.41 30.77"/>
<path fill="#63b8ff" stroke="#63b8ff" d="m482-313.74-10.45 1.71 7.1-7.86z"/>
</a></g><g id="Node000005" class="node"><title>Node5</title><a xlink:href="../../d1/d48/_distributed_8h.html" id="a_Node000005" target="_top">
<path fill="#fff" stroke="#666" d="M355-256H197v20h158z"/>
<text x="276" y="-243.2" font-family="Consolas" font-size="11" text-anchor="middle">Element/Distributed.h</text>
</a></g><g id="edge4_Node000004_Node000005" class="edge"><title>Node4-&gt;Node5</title><a id="a_edge4_Node000004_Node000005">
<path fill="none" stroke="#63b8ff" d="M425.04-291.96c-29.95 9.03-76.16 22.97-109.19 32.94"/>
<path fill="#63b8ff" stroke="#63b8ff" d="m316.64-255.61-10.58-.46 8.56-6.24z"/>
</a></g><g id="Node000013" class="node"><title>Node13</title><a xlink:href="../../d9/d82/_element_base_8h.html" id="a_Node000013" target="_top">
<path fill="#fff" stroke="#666" d="M534-256H376v20h158z"/>
<text x="455" y="-243.2" font-family="Consolas" font-size="11" text-anchor="middle">Element/ElementBase.h</text>
</a></g><g id="edge12_Node000004_Node000013" class="edge"><title>Node4-&gt;Node13</title><a id="a_edge12_Node000004_Node000013">
<path fill="none" stroke="#63b8ff" d="M455-291.59v25.02"/>
<path fill="#63b8ff" stroke="#63b8ff" d="m458.5-266.3-3.5 10-3.5-10z"/>
</a></g><g id="Node000006" class="node"><title>Node6</title><a xlink:href="../../d8/d8f/suan_pan_8h.html" id="a_Node000006" target="_top">
<path fill="#fff" stroke="#666" d="M421.5-76h-77v20h77z"/>
<text x="383" y="-63.2" font-family="Consolas" font-size="11" text-anchor="middle">suanPan.h</text>
</a></g><g id="edge5_Node000005_Node000006" class="edge"><title>Node5-&gt;Node6</title><a id="a_edge5_Node000005_Node000006">
<path fill="none" stroke="#63b8ff" d="M258.58-235.99c-12.75 7.66-29.07 19.97-36.58 35.99-6.74 14.39 1.09 83.25 5 88 25.79 31.28 71.83 41.61 107.23 44.67"/>
<path fill="#63b8ff" stroke="#63b8ff" d="m334.64-70.81 9.74 4.18-10.22 2.8z"/>
</a></g><g id="Node000007" class="node"><title>Node7</title><a id="a_Node000007">
<path fill="#e0e0e0" stroke="#999" d="M322.5-20h-71V0h71z"/>
<text x="287" y="-7.2" font-family="Consolas" font-size="11" text-anchor="middle">iostream</text>
</a></g><g id="edge6_Node000006_Node000007" class="edge"><title>Node6-&gt;Node7</title><a id="a_edge6_Node000006_Node000007">
<path fill="none" stroke="#63b8ff" d="M366.71-55.84c-14.98 8.43-37.43 21.06-54.69 30.77"/>
<path fill="#63b8ff" stroke="#63b8ff" d="m313.48-21.88-10.44 1.85 7-7.95z"/>
</a></g><g id="Node000008" class="node"><title>Node8</title><a id="a_Node000008">
<path fill="#e0e0e0" stroke="#999" d="M906.5-20h-111V0h111z"/>
<text x="851" y="-7.2" font-family="Consolas" font-size="11" text-anchor="middle">armadillo/arma</text>
</a></g><g id="edge7_Node000006_Node000008" class="edge"><title>Node6-&gt;Node8</title><a id="a_edge7_Node000006_Node000008">
<path fill="none" stroke="#63b8ff" d="M421.7-60.54c79.95 9.23 264.15 30.48 363.29 41.92"/>
<path fill="#63b8ff" stroke="#63b8ff" d="m785.65-22.06 9.54 4.62-10.34 2.33z"/>
</a></g><g id="Node000009" class="node"><title>Node9</title><a id="a_Node000009">
<path fill="#e0e0e0" stroke="#999" d="M425-20h-84V0h84z"/>
<text x="383" y="-7.2" font-family="Consolas" font-size="11" text-anchor="middle">filesystem</text>
</a></g><g id="edge8_Node000006_Node000009" class="edge"><title>Node6-&gt;Node9</title><a id="a_edge8_Node000006_Node000009">
<path fill="none" stroke="#63b8ff" d="M383-55.59v25.02"/>
<path fill="#63b8ff" stroke="#63b8ff" d="m386.5-30.3-3.5 10-3.5-10z"/>
</a></g><g id="Node000010" class="node"><title>Node10</title><a id="a_Node000010">
<path fill="#e0e0e0" stroke="#999" d="M534.5-20h-91V0h91z"/>
<text x="489" y="-7.2" font-family="Consolas" font-size="11" text-anchor="middle">fmt/color.h</text>
</a></g><g id="edge9_Node000006_Node000010" class="edge"><title>Node6-&gt;Node10</title><a id="a_edge9_Node000006_Node000010">
<path fill="none" stroke="#63b8ff" d="M400.98-55.84c16.78 8.55 42.03 21.41 61.18 31.17"/>
<path fill="#63b8ff" stroke="#63b8ff" d="m463.96-27.68 7.32 7.65-10.5-1.42z"/>
</a></g><g id="Node000011" class="node"><title>Node11</title><a id="a_Node000011">
<path fill="#e0e0e0" stroke="#999" d="M603-20h-50V0h50z"/>
<text x="578" y="-7.2" font-family="Consolas" font-size="11" text-anchor="middle">mutex</text>
</a></g><g id="edge10_Node000006_Node000011" class="edge"><title>Node6-&gt;Node11</title><a id="a_edge10_Node000006_Node000011">
<path fill="none" stroke="#63b8ff" d="M415.64-55.96c35.13 9.73 90.82 25.15 126.98 35.16"/>
<path fill="#63b8ff" stroke="#63b8ff" d="m544.01-24.04 8.71 6.04-10.57.7z"/>
</a></g><g id="Node000012" class="node"><title>Node12</title><a id="a_Node000012">
<path fill="#e0e0e0" stroke="#999" d="M233.5-20h-57V0h57z"/>
<text x="205" y="-7.2" font-family="Consolas" font-size="11" text-anchor="middle">memory</text>
</a></g><g id="edge11_Node000006_Node000012" class="edge"><title>Node6-&gt;Node12</title><a id="a_edge11_Node000006_Node000012">
<path fill="none" stroke="#63b8ff" d="M353.21-55.96c-30.14 9.14-76.85 23.31-109.76 33.3"/>
<path fill="#63b8ff" stroke="#63b8ff" d="m244.3-19.26-10.59-.45 8.55-6.25z"/>
</a></g><g id="Node000014" class="node"><title>Node14</title><a xlink:href="../../d1/d02/_node_8h.html" id="a_Node000014" target="_top">
<path fill="#fff" stroke="#666" d="M587-194H483v20h104z"/>
<text x="535" y="-181.2" font-family="Consolas" font-size="11" text-anchor="middle">Domain/Node.h</text>
</a></g><g id="edge13_Node000013_Node000014" class="edge"><title>Node13-&gt;Node14</title><a id="a_edge13_Node000013_Node000014">
<path fill="none" stroke="#63b8ff" d="M467.15-235.89c12.64 9.48 32.65 24.49 47.67 35.76"/>
<path fill="#63b8ff" stroke="#63b8ff" d="m517.1-202.8 5.9 8.8-10.1-3.2z"/>
</a></g><g id="Node000015" class="node"><title>Node15</title><a xlink:href="../../d2/d4a/_tag_8h.html" id="a_Node000015" target="_top">
<path fill="#fff" stroke="#666" d="M504-132h-98v20h98z"/>
<text x="455" y="-119.2" font-family="Consolas" font-size="11" text-anchor="middle">Domain/Tag.h</text>
</a></g><g id="edge16_Node000013_Node000015" class="edge"><title>Node13-&gt;Node15</title><a id="a_edge16_Node000013_Node000015">
<path fill="none" stroke="#63b8ff" d="M455-235.83v93.51"/>
<path fill="#63b8ff" stroke="#63b8ff" d="m458.5-142.28-3.5 10-3.5-10z"/>
</a></g><g id="Node000016" class="node"><title>Node16</title><a xlink:href="../../d6/d94/_mapping_d_o_f_8h.html" id="a_Node000016" target="_top">
<path fill="#fff" stroke="#666" d="M388-132H236v20h152z"/>
<text x="312" y="-119.2" font-family="Consolas" font-size="11" text-anchor="middle">Element/MappingDOF.h</text>
</a></g><g id="edge17_Node000013_Node000016" class="edge"><title>Node13-&gt;Node16</title><a id="a_edge17_Node000013_Node000016">
<path fill="none" stroke="#63b8ff" d="M450.1-235.89c-8.74 15.56-28.34 47.56-52.1 67.89-15.52 13.28-35.62 24.07-52.49 31.76"/>
<path fill="#63b8ff" stroke="#63b8ff" d="m346.58-132.89-10.57.81 7.76-7.22z"/>
</a></g><g id="Node000017" class="node"><title>Node17</title><a xlink:href="../../d9/dc0/vtk_base_8h.html" id="a_Node000017" target="_top">
<path fill="#fff" stroke="#666" d="M389-200H231v32h158z"/>
<text x="239" y="-187.2" font-family="Consolas" font-size="11">Element/Visualisation</text>
<text x="310" y="-175.2" font-family="Consolas" font-size="11" text-anchor="middle">/vtkBase.h</text>
</a></g><g id="edge19_Node000013_Node000017" class="edge"><title>Node13-&gt;Node17</title><a id="a_edge19_Node000013_Node000017">
<path fill="none" stroke="#63b8ff" d="M432.98-235.89c-20.38 8.43-51.3 21.23-77.05 31.88"/>
<path fill="#63b8ff" stroke="#63b8ff" d="m356.93-200.63-10.58.59 7.9-7.06z"/>
</a></g><g id="edge20_Node000013_Node000018" class="edge"><title>Node13-&gt;Node18</title><a id="a_edge20_Node000013_Node000018">
<path fill="none" stroke="#63b8ff" d="M489.78-235.89c40.16 10.53 106.31 27.86 150.07 39.32"/>
<path fill="#63b8ff" stroke="#63b8ff" d="m640.86-199.92 8.78 5.92-10.56.85z"/>
</a></g><g id="edge14_Node000014_Node000015" class="edge"><title>Node14-&gt;Node15</title><a id="a_edge14_Node000014_Node000015">
<path fill="none" stroke="#63b8ff" d="M522.85-173.89c-12.64 9.48-32.65 24.49-47.67 35.76"/>
<path fill="#63b8ff" stroke="#63b8ff" d="M477.1-135.2 467-132l5.9-8.8z"/>
</a></g><g id="edge15_Node000015_Node000006" class="edge"><title>Node15-&gt;Node6</title><a id="a_edge15_Node000015_Node000006">
<path fill="none" stroke="#63b8ff" d="M442.79-111.84c-10.83 8.12-26.84 20.13-39.57 29.68"/>
<path fill="#63b8ff" stroke="#63b8ff" d="m405.13-79.23-10.1 3.2 5.9-8.8z"/>
</a></g><g id="edge18_Node000016_Node000006" class="edge"><title>Node16-&gt;Node6</title><a id="a_edge18_Node000016_Node000006">
<path fill="none" stroke="#63b8ff" d="M324.04-111.84c10.68 8.12 26.47 20.13 39.02 29.68"/>
<path fill="#63b8ff" stroke="#63b8ff" d="m365.29-84.86 5.84 8.83-10.07-3.26z"/>
</a></g><g id="Node000019" class="node"><title>Node19</title><a id="a_Node000019">
<path fill="#e0e0e0" stroke="#999" d="M707.5-132h-185v20h185z"/>
<text x="615" y="-119.2" font-family="Consolas" font-size="11" text-anchor="middle">magic_enum/magic_enum.hpp</text>
</a></g><g id="edge21_Node000018_Node000019" class="edge"><title>Node18-&gt;Node19</title><a id="a_edge21_Node000018_Node000019">
<path fill="none" stroke="#63b8ff" d="M673.52-173.89c-10.64 9.25-27.33 23.76-40.16 34.93"/>
<path fill="#63b8ff" stroke="#63b8ff" d="m635.42-136.12-9.84 3.92 5.25-9.2z"/>
</a></g><g id="Node000021" class="node"><title>Node21</title><a xlink:href="../../d3/d09/_material_8h.html" id="a_Node000021" target="_top">
<path fill="#fff" stroke="#666" d="M281.5-312h-145v20h145z"/>
<text x="209" y="-299.2" font-family="Consolas" font-size="11" text-anchor="middle">Material/Material.h</text>
</a></g><g id="edge23_Node000020_Node000021" class="edge"><title>Node20-&gt;Node21</title><a id="a_edge23_Node000020_Node000021">
<path fill="none" stroke="#63b8ff" d="M318.07-347.96c-21.25 8.76-53.71 22.14-77.69 32.03"/>
<path fill="#63b8ff" stroke="#63b8ff" d="m241.58-312.64-10.58.57 7.91-7.04z"/>
</a></g><g id="edge24_Node000021_Node000015" class="edge"><title>Node21-&gt;Node15</title><a id="a_edge24_Node000021_Node000015">
<path fill="none" stroke="#63b8ff" d="M203.22-291.78c-5.15 8.81-12.31 22.65-15.22 35.78-9.08 40.93.59 62.66 34 88 6.97 5.28 107.18 23.35 173.89 34.92"/>
<path fill="#63b8ff" stroke="#63b8ff" d="m396.62-136.5 9.26 5.15-10.45 1.75z"/>
</a></g><g id="Node000022" class="node"><title>Node22</title><a id="a_Node000022">
<path fill="#e0e0e0" stroke="#999" d="M137-256H87v20h50z"/>
<text x="112" y="-243.2" font-family="Consolas" font-size="11" text-anchor="middle">array</text>
</a></g><g id="edge25_Node000021_Node000022" class="edge"><title>Node21-&gt;Node22</title><a id="a_edge25_Node000021_Node000022">
<path fill="none" stroke="#63b8ff" d="M192.55-291.84c-15.15 8.43-37.83 21.06-55.27 30.77"/>
<path fill="#63b8ff" stroke="#63b8ff" d="m138.65-257.83-10.44 1.8 7.04-7.92z"/>
</a></g><g id="edge27_Node000023_Node000015" class="edge"><title>Node23-&gt;Node15</title><a id="a_edge27_Node000023_Node000015">
<path fill="none" stroke="#63b8ff" d="M806.36-173.93c-11.25 2.04-23.22 4.13-34.36 5.93-111.18 17.92-141.78 19.21-257.76 35.99"/>
<path fill="#63b8ff" stroke="#63b8ff" d="m514.65-128.54-10.4-2.02 9.39-4.9z"/>
</a></g><g id="Node000024" class="node"><title>Node24</title><a xlink:href="../../d4/ddd/container_8h.html" id="a_Node000024" target="_top">
<path fill="#fff" stroke="#666" d="M945.5-132h-145v20h145z"/>
<text x="873" y="-119.2" font-family="Consolas" font-size="11" text-anchor="middle">Toolbox/container.h</text>
</a></g><g id="edge28_Node000023_Node000024" class="edge"><title>Node23-&gt;Node24</title><a id="a_edge28_Node000023_Node000024">
<path fill="none" stroke="#63b8ff" d="M856.89-173.89c2.67 8.46 6.74 21.32 10.12 31.99"/>
<path fill="#63b8ff" stroke="#63b8ff" d="m870.4-142.79-.31 10.59-6.36-8.48z"/>
</a></g><g id="Node000029" class="node"><title>Node29</title><a id="a_Node000029">
<path fill="#e0e0e0" stroke="#999" d="M782.5-132h-57v20h57z"/>
<text x="754" y="-119.2" font-family="Consolas" font-size="11" text-anchor="middle">future</text>
</a></g><g id="edge34_Node000023_Node000029" class="edge"><title>Node23-&gt;Node29</title><a id="a_edge34_Node000023_Node000029">
<path fill="none" stroke="#63b8ff" d="M838.81-173.89c-16.24 9.75-42.22 25.34-61.15 36.7"/>
<path fill="#63b8ff" stroke="#63b8ff" d="M779.38-134.15 769-132l6.78-8.15z"/>
</a></g><g id="edge29_Node000024_Node000006" class="edge"><title>Node24-&gt;Node6</title><a id="a_edge29_Node000024_Node000006">
<path fill="none" stroke="#63b8ff" d="M800.14-112.9c-2.75.3-5.47.6-8.14.9-130.03 14.38-283.33 31.21-360.06 39.63"/>
<path fill="#63b8ff" stroke="#63b8ff" d="m431.95-68.85-10.32-2.39 9.56-4.57z"/>
</a></g><g id="Node000025" class="node"><title>Node25</title><a id="a_Node000025">
<path fill="#e0e0e0" stroke="#999" d="M696.5-76h-37v20h37z"/>
<text x="678" y="-63.2" font-family="Consolas" font-size="11" text-anchor="middle">map</text>
</a></g><g id="edge30_Node000024_Node000025" class="edge"><title>Node24-&gt;Node25</title><a id="a_edge30_Node000024_Node000025">
<path fill="none" stroke="#63b8ff" d="M837.35-111.92c-31.85 8.23-80.01 20.95-130.85 35.88"/>
<path fill="#63b8ff" stroke="#63b8ff" d="m707.22-72.6-10.58-.53 8.6-6.19z"/>
</a></g><g id="Node000026" class="node"><title>Node26</title><a id="a_Node000026">
<path fill="#e0e0e0" stroke="#999" d="M751.5-76h-37v20h37z"/>
<text x="733" y="-63.2" font-family="Consolas" font-size="11" text-anchor="middle">set</text>
</a></g><g id="edge31_Node000024_Node000026" class="edge"><title>Node24-&gt;Node26</title><a id="a_edge31_Node000024_Node000026">
<path fill="none" stroke="#63b8ff" d="M849.57-111.96c-24.33 9.38-62.39 24.06-88.35 34.08"/>
<path fill="#63b8ff" stroke="#63b8ff" d="m762.17-74.5-10.59.33 8.07-6.86z"/>
</a></g><g id="Node000027" class="node"><title>Node27</title><a id="a_Node000027">
<path fill="#e0e0e0" stroke="#999" d="M874-76H770v20h104z"/>
<text x="822" y="-63.2" font-family="Consolas" font-size="11" text-anchor="middle">unordered_map</text>
</a></g><g id="edge32_Node000024_Node000027" class="edge"><title>Node24-&gt;Node27</title><a id="a_edge32_Node000024_Node000027">
<path fill="none" stroke="#63b8ff" d="M864.12-111.59c-7.24 7.66-17.65 18.68-26.3 27.84"/>
<path fill="#63b8ff" stroke="#63b8ff" d="m840.19-81.17-9.41 4.87 4.32-9.67z"/>
</a></g><g id="Node000028" class="node"><title>Node28</title><a id="a_Node000028">
<path fill="#e0e0e0" stroke="#999" d="M996-76H892v20h104z"/>
<text x="944" y="-63.2" font-family="Consolas" font-size="11" text-anchor="middle">unordered_set</text>
</a></g><g id="edge33_Node000024_Node000028" class="edge"><title>Node24-&gt;Node28</title><a id="a_edge33_Node000024_Node000028">
<path fill="none" stroke="#63b8ff" d="M885.04-111.84c10.68 8.12 26.47 20.13 39.02 29.68"/>
<path fill="#63b8ff" stroke="#63b8ff" d="m926.29-84.86 5.84 8.83-10.07-3.26z"/>
</a></g><g id="edge36_Node000030_Node000021" class="edge"><title>Node30-&gt;Node21</title><a id="a_edge36_Node000030_Node000021">
<path fill="none" stroke="#63b8ff" d="M285.71-403.96c-20.93 7.67-42.53 19.09-57.71 35.96-11.29 12.55-15.89 31.48-17.76 45.67"/>
<path fill="#63b8ff" stroke="#63b8ff" d="m213.71-321.78-4.45 9.61-2.52-10.29z"/>
</a></g><g id="edge39_Node000031_Node000008" class="edge"><title>Node31-&gt;Node8</title><a id="a_edge39_Node000031_Node000008">
<path fill="none" stroke="#63b8ff" d="M973.11-347.92C989.9-330.19 1024-288.98 1024-247v126c0 30.1 2.28 43.72-19 65-23.18 23.18-57.6 34.56-88.02 40.09"/>
<path fill="#63b8ff" stroke="#63b8ff" d="m917.27-12.42-10.43-1.84 9.3-5.06z"/>
</a></g><g id="edge41_Node000032_Node000006" class="edge"><title>Node32-&gt;Node6</title><a id="a_edge41_Node000032_Node000006">
<path fill="none" stroke="#63b8ff" d="M60.02-291.94C61.86-278.73 66.63-253.85 78-236c44.82 70.4 67.55 84.39 141 124 36.15 19.49 81.44 31.09 115.26 37.62"/>
<path fill="#63b8ff" stroke="#63b8ff" d="m335.17-77.78 9.19 5.26-10.46 1.63z"/>
</a></g></g></svg><g id="navigator" fill="#404254"><path fill="#f2f5e9" fill-opacity=".5" stroke="#606060" stroke-width=".5" d="M0 0h60v60H0z"/><use xlink:href="#zoomPlus" id="zoomplus" x="17" y="9" onmousedown="handleZoom(evt,'in')"/><use xlink:href="#zoomMin" id="zoomminus" x="42" y="9" onmousedown="handleZoom(evt,'out')"/><use xlink:href="#resetDef" id="reset" x="30" y="36" onmousedown="handleReset()"/><use xlink:href="#arrowUp" id="arrowup" x="0" y="0" onmousedown="handlePan(0,-1)"/><use xlink:href="#arrowRight" id="arrowright" x="0" y="0" onmousedown="handlePan(1,0)"/><use xlink:href="#arrowDown" id="arrowdown" x="0" y="0" onmousedown="handlePan(0,1)"/><use xlink:href="#arrowLeft" id="arrowleft" x="0" y="0" onmousedown="handlePan(-1,0)"/></g><svg height="30" preserveAspectRatio="xMaxYMin meet" viewBox="0 0 15 15"><a xlink:href="_d_c3_d8_8cpp__incl_org.svg" id="arrow_out" target="_base" transform="scale(.3)">
   <rect id="button" width="38" height="38" x="6" y="6" fill="#f2f5e9" fill-opacity=".5" stroke="#606060" stroke-width="1" rx="5" ry="5"/>
   <path id="arrow" d="M11.5 31.437c.44-11.34 10.543-20.114 20.659-9.458l4.91-4.733.02 14.754-14.929-.022 4.838-4.838c-8.47-8.876-13.706-1.91-15.498 4.297" style="fill:#404040"/>
  </a></svg><script type="application/ecmascript"><![CDATA[
document.addEventListener('DOMContentLoaded', (event) => {
  highlightEdges();
  highlightAdjacentNodes();
});
]]></script></svg>