<?xml version="1.0" encoding="UTF-8" standalone="no"?>
<!DOCTYPE svg PUBLIC "-//W3C//DTD SVG 1.1//EN"
 "http://www.w3.org/Graphics/SVG/1.1/DTD/svg11.dtd">
<!-- Generated by graphviz version 2.43.0 (0)
 -->
<!-- Title: DKTS3::initialize Pages: 1 -->
<!--zoomable 326 -->

<svg id="main" version="1.1" xmlns="http://www.w3.org/2000/svg" xmlns:xlink="http://www.w3.org/1999/xlink" xml:space="preserve" onload="init(evt)">
<style type="text/css"><![CDATA[
.node, .edge {opacity: 0.7;}
.node.selected, .edge.selected {opacity: 1;}
.edge:hover path { stroke: red; }
.edge:hover polygon { stroke: red; fill: red; }
]]></style>

<defs>
  <circle id="rim" cx="0" cy="0" r="7"/>
  <circle id="rim2" cx="0" cy="0" r="3.5"/>
  <g id="zoomPlus">
    <use xlink:href="#rim" fill="#404040"><set attributeName="fill" to="#808080" begin="zoomplus.mouseover" end="zoomplus.mouseout"/></use>
    <path d="M-4,0h8M0,-4v8" fill="none" stroke="white" stroke-width="1.5" pointer-events="none"/>
  </g>
  <g id="zoomMin">
    <use xlink:href="#rim" fill="#404040"><set attributeName="fill" to="#808080" begin="zoomminus.mouseover" end="zoomminus.mouseout"/></use>
    <path d="M-4,0h8" fill="none" stroke="white" stroke-width="1.5" pointer-events="none"/>
  </g>
  <g id="arrowUp" transform="translate(30 24)">
    <use xlink:href="#rim"/>
    <path pointer-events="none" fill="none" stroke="white" stroke-width="1.5" d="M0,-3.0v7 M-2.5,-0.5L0,-3.0L2.5,-0.5"/>
  </g>
  <g id="arrowRight" transform="rotate(90) translate(36 -43)">
    <use xlink:href="#rim"/>
    <path pointer-events="none" fill="none" stroke="white" stroke-width="1.5" d="M0,-3.0v7 M-2.5,-0.5L0,-3.0L2.5,-0.5"/>
  </g>
  <g id="arrowDown" transform="rotate(180) translate(-30 -48)">
    <use xlink:href="#rim"/>
    <path pointer-events="none" fill="none" stroke="white" stroke-width="1.5" d="M0,-3.0v7 M-2.5,-0.5L0,-3.0L2.5,-0.5"/>
  </g>
  <g id="arrowLeft" transform="rotate(270) translate(-36 17)">
    <use xlink:href="#rim"/>
    <path pointer-events="none" fill="none" stroke="white" stroke-width="1.5" d="M0,-3.0v7 M-2.5,-0.5L0,-3.0L2.5,-0.5"/>
  </g>
  <g id="resetDef">
    <use xlink:href="#rim2" fill="#404040"><set attributeName="fill" to="#808080" begin="reset.mouseover" end="reset.mouseout"/></use>
  </g>
</defs>
<script type="application/ecmascript">
var viewWidth = 541;
var viewHeight = 326;
var sectionId = 'dynsection-2';
</script>
<script type="application/ecmascript" xlink:href="../../svg.min.js"/>
<svg id="graph" class="graph">
<g id="viewport">
<title>DKTS3::initialize</title>
<!-- Node1 -->
<g id="Node000001" class="node">
<title>Node1</title>
<g id="a_Node000001"><a xlink:title=" ">
<polygon fill="#999999" stroke="#666666" points="131,-152 0,-152 0,-132 131,-132 131,-152"/>
<text text-anchor="middle" x="65.5" y="-139.2" font-family="Consolas" font-size="11.00">DKTS3::initialize</text>
</a>
</g>
</g>
<!-- Node2 -->
<g id="Node000002" class="node">
<title>Node2</title>
<g id="a_Node000002"><a xlink:href="../../d7/d11/class_shell_base.html#a40b3034fd8c6713dc066bb2f5671d256" target="_top" xlink:title=" ">
<polygon fill="white" stroke="#666666" points="322,-296 170,-296 170,-264 322,-264 322,-296"/>
<text text-anchor="start" x="178" y="-283.2" font-family="Consolas" font-size="11.00">ShellBase::direction</text>
<text text-anchor="middle" x="246" y="-271.2" font-family="Consolas" font-size="11.00">_cosine</text>
</a>
</g>
</g>
<!-- Node1&#45;&gt;Node2 -->
<g id="edge1_Node000001_Node000002" class="edge">
<title>Node1&#45;&gt;Node2</title>
<g id="a_edge1_Node000001_Node000002"><a xlink:title=" ">
<path fill="none" stroke="#63b8ff" d="M72.72,-152.07C86.77,-174.03 123.21,-226.5 167,-255 169.46,-256.6 172.03,-258.1 174.67,-259.52"/>
<polygon fill="#63b8ff" stroke="#63b8ff" points="173.38,-262.78 183.91,-263.98 176.43,-256.48 173.38,-262.78"/>
</a>
</g>
</g>
<!-- Node6 -->
<g id="Node000006" class="node">
<title>Node6</title>
<g id="a_Node000006"><a xlink:href="../../d5/d50/class_element.html#a4d1dcdafc45a94952099d19d476e6486" target="_top" xlink:title=" ">
<polygon fill="white" stroke="#666666" points="295,-246 197,-246 197,-226 295,-226 295,-246"/>
<text text-anchor="middle" x="246" y="-233.2" font-family="Consolas" font-size="11.00">Element::get</text>
</a>
</g>
</g>
<!-- Node1&#45;&gt;Node6 -->
<g id="edge6_Node000001_Node000006" class="edge">
<title>Node1&#45;&gt;Node6</title>
<g id="a_edge6_Node000001_Node000006"><a xlink:title=" ">
<path fill="none" stroke="#63b8ff" d="M76.99,-152.15C94.3,-168.32 130.56,-199.84 167,-217 173.27,-219.95 180.05,-222.47 186.9,-224.62"/>
<polygon fill="#63b8ff" stroke="#63b8ff" points="186.36,-228.11 196.93,-227.51 188.29,-221.38 186.36,-228.11"/>
</a>
</g>
</g>
<!-- Node7 -->
<g id="Node000007" class="node">
<title>Node7</title>
<g id="a_Node000007"><a xlink:href="../../dc/dee/class_material.html#a7ee1a5e060b0dd313f95d1afa6a71db8" target="_top" xlink:title=" ">
<polygon fill="white" stroke="#666666" points="325,-208 167,-208 167,-176 325,-176 325,-208"/>
<text text-anchor="start" x="175" y="-195.2" font-family="Consolas" font-size="11.00">Material::get_initial</text>
<text text-anchor="middle" x="246" y="-183.2" font-family="Consolas" font-size="11.00">_stiffness</text>
</a>
</g>
</g>
<!-- Node1&#45;&gt;Node7 -->
<g id="edge7_Node000001_Node000007" class="edge">
<title>Node1&#45;&gt;Node7</title>
<g id="a_edge7_Node000001_Node000007"><a xlink:title=" ">
<path fill="none" stroke="#63b8ff" d="M102.62,-152.12C124.3,-158.19 152.56,-166.11 178.18,-173.28"/>
<polygon fill="#63b8ff" stroke="#63b8ff" points="177.27,-176.66 187.85,-175.99 179.16,-169.92 177.27,-176.66"/>
</a>
</g>
</g>
<!-- Node8 -->
<g id="Node000008" class="node">
<title>Node8</title>
<g id="a_Node000008"><a xlink:href="../../d7/d11/class_shell_base.html#a9ab75105a1e00aa67515fcc9f899cbf5" target="_top" xlink:title=" ">
<polygon fill="white" stroke="#666666" points="322,-158 170,-158 170,-126 322,-126 322,-158"/>
<text text-anchor="start" x="178" y="-145.2" font-family="Consolas" font-size="11.00">ShellBase::get_local</text>
<text text-anchor="middle" x="246" y="-133.2" font-family="Consolas" font-size="11.00">_coordinate</text>
</a>
</g>
</g>
<!-- Node1&#45;&gt;Node8 -->
<g id="edge8_Node000001_Node000008" class="edge">
<title>Node1&#45;&gt;Node8</title>
<g id="a_edge8_Node000001_Node000008"><a xlink:title=" ">
<path fill="none" stroke="#63b8ff" d="M131.19,-142C140.53,-142 150.24,-142 159.9,-142"/>
<polygon fill="#63b8ff" stroke="#63b8ff" points="159.92,-145.5 169.92,-142 159.92,-138.5 159.92,-145.5"/>
</a>
</g>
</g>
<!-- Node9 -->
<g id="Node000009" class="node">
<title>Node9</title>
<g id="a_Node000009"><a xlink:href="../../d7/d11/class_shell_base.html#abee56f00639fd9b582dff0e940d0b6c6" target="_top" xlink:title=" ">
<polygon fill="white" stroke="#666666" points="322,-108 170,-108 170,-88 322,-88 322,-108"/>
<text text-anchor="middle" x="246" y="-95.2" font-family="Consolas" font-size="11.00">ShellBase::reshuffle</text>
</a>
</g>
</g>
<!-- Node1&#45;&gt;Node9 -->
<g id="edge10_Node000001_Node000009" class="edge">
<title>Node1&#45;&gt;Node9</title>
<g id="a_edge10_Node000001_Node000009"><a xlink:title=" ">
<path fill="none" stroke="#63b8ff" d="M106.59,-131.98C124.99,-127.39 147.1,-121.9 167,-117 175.65,-114.87 184.85,-112.62 193.78,-110.44"/>
<polygon fill="#63b8ff" stroke="#63b8ff" points="194.81,-113.79 203.7,-108.02 193.16,-106.99 194.81,-113.79"/>
</a>
</g>
</g>
<!-- Node11 -->
<g id="Node000011" class="node">
<title>Node11</title>
<g id="a_Node000011"><a xlink:href="../../d7/d11/class_shell_base.html#a39ba7bfba807e070e613d3cd7276ebc2" target="_top" xlink:title=" ">
<polygon fill="white" stroke="#666666" points="325,-70 167,-70 167,-38 325,-38 325,-70"/>
<text text-anchor="start" x="175" y="-57.2" font-family="Consolas" font-size="11.00">ShellBase::transform</text>
<text text-anchor="middle" x="246" y="-45.2" font-family="Consolas" font-size="11.00">_from_local_to_global</text>
</a>
</g>
</g>
<!-- Node1&#45;&gt;Node11 -->
<g id="edge12_Node000001_Node000011" class="edge">
<title>Node1&#45;&gt;Node11</title>
<g id="a_edge12_Node000001_Node000011"><a xlink:title=" ">
<path fill="none" stroke="#63b8ff" d="M80.18,-131.86C98.96,-118.32 134.13,-94.28 167,-79 171.03,-77.13 175.23,-75.34 179.51,-73.65"/>
<polygon fill="#63b8ff" stroke="#63b8ff" points="180.83,-76.89 188.95,-70.09 178.36,-70.34 180.83,-76.89"/>
</a>
</g>
</g>
<!-- Node12 -->
<g id="Node000012" class="node">
<title>Node12</title>
<g id="a_Node000012"><a xlink:href="../../d3/d55/namespaceshape.html#a83283f94b58a9b16dbe87e505d730d4c" target="_top" xlink:title=" ">
<polygon fill="white" stroke="#666666" points="305,-20 187,-20 187,0 305,0 305,-20"/>
<text text-anchor="middle" x="246" y="-7.2" font-family="Consolas" font-size="11.00">shape::triangle</text>
</a>
</g>
</g>
<!-- Node1&#45;&gt;Node12 -->
<g id="edge13_Node000001_Node000012" class="edge">
<title>Node1&#45;&gt;Node12</title>
<g id="a_edge13_Node000001_Node000012"><a xlink:title=" ">
<path fill="none" stroke="#63b8ff" d="M72.57,-131.69C86.33,-109.27 122.23,-55.92 167,-29 170.24,-27.05 173.66,-25.31 177.2,-23.74"/>
<polygon fill="#63b8ff" stroke="#63b8ff" points="178.74,-26.9 186.77,-19.99 176.18,-20.38 178.74,-26.9"/>
</a>
</g>
</g>
<!-- Node3 -->
<g id="Node000003" class="node">
<title>Node3</title>
<g id="a_Node000003"><a xlink:href="../../d5/d50/class_element.html#acd9484983e85bf9bfa1ad3d34246c19c" target="_top" xlink:title=" ">
<polygon fill="white" stroke="#666666" points="533,-193 361,-193 361,-173 533,-173 533,-193"/>
<text text-anchor="middle" x="447" y="-180.2" font-family="Consolas" font-size="11.00">Element::get_coordinate</text>
</a>
</g>
</g>
<!-- Node2&#45;&gt;Node3 -->
<g id="edge2_Node000002_Node000003" class="edge">
<title>Node2&#45;&gt;Node3</title>
<g id="a_edge2_Node000002_Node000003"><a xlink:title=" ">
<path fill="none" stroke="#63b8ff" d="M302.56,-263.91C310.2,-261.2 317.87,-258.21 325,-255 360.77,-238.88 399.25,-214.67 422.98,-198.85"/>
<polygon fill="#63b8ff" stroke="#63b8ff" points="424.98,-201.73 431.32,-193.24 421.07,-195.92 424.98,-201.73"/>
</a>
</g>
</g>
<!-- Node4 -->
<g id="Node000004" class="node">
<title>Node4</title>
<g id="a_Node000004"><a xlink:href="../../d5/d50/class_element.html#aa391524fad4d0d9791637db2679ef7d0" target="_top" xlink:title=" ">
<polygon fill="white" stroke="#666666" points="516,-318 378,-318 378,-286 516,-286 516,-318"/>
<text text-anchor="start" x="386" y="-305.2" font-family="Consolas" font-size="11.00">Element::get_trial</text>
<text text-anchor="middle" x="447" y="-293.2" font-family="Consolas" font-size="11.00">_displacement</text>
</a>
</g>
</g>
<!-- Node2&#45;&gt;Node4 -->
<g id="edge4_Node000002_Node000004" class="edge">
<title>Node2&#45;&gt;Node4</title>
<g id="a_edge4_Node000002_Node000004"><a xlink:title=" ">
<path fill="none" stroke="#63b8ff" d="M322.23,-288.32C337.08,-289.96 352.69,-291.68 367.64,-293.34"/>
<polygon fill="#63b8ff" stroke="#63b8ff" points="367.54,-296.85 377.86,-294.47 368.3,-289.89 367.54,-296.85"/>
</a>
</g>
</g>
<!-- Node5 -->
<g id="Node000005" class="node">
<title>Node5</title>
<g id="a_Node000005"><a xlink:href="../../d5/d50/class_element.html#a901da916385f38921914dbe62c559028" target="_top" xlink:title=" ">
<polygon fill="white" stroke="#666666" points="516,-268 378,-268 378,-248 516,-248 516,-268"/>
<text text-anchor="middle" x="447" y="-255.2" font-family="Consolas" font-size="11.00">Element::is_nlgeom</text>
</a>
</g>
</g>
<!-- Node2&#45;&gt;Node5 -->
<g id="edge5_Node000002_Node000005" class="edge">
<title>Node2&#45;&gt;Node5</title>
<g id="a_edge5_Node000002_Node000005"><a xlink:title=" ">
<path fill="none" stroke="#63b8ff" d="M322.23,-271.68C337.08,-270.04 352.69,-268.32 367.64,-266.66"/>
<polygon fill="#63b8ff" stroke="#63b8ff" points="368.3,-270.11 377.86,-265.53 367.54,-263.15 368.3,-270.11"/>
</a>
</g>
</g>
<!-- Node3&#45;&gt;Node3 -->
<g id="edge3_Node000003_Node000003" class="edge">
<title>Node3&#45;&gt;Node3</title>
<g id="a_edge3_Node000003_Node000003"><a xlink:title=" ">
<path fill="none" stroke="#63b8ff" d="M415.69,-193.05C401.41,-201.77 411.84,-211 447,-211 471.17,-211 483.66,-206.64 484.46,-201.08"/>
<polygon fill="#63b8ff" stroke="#63b8ff" points="487.17,-198.86 478.31,-193.05 481.61,-203.12 487.17,-198.86"/>
</a>
</g>
</g>
<!-- Node8&#45;&gt;Node3 -->
<g id="edge9_Node000008_Node000003" class="edge">
<title>Node8&#45;&gt;Node3</title>
<g id="a_edge9_Node000008_Node000003"><a xlink:title=" ">
<path fill="none" stroke="#63b8ff" d="M322.23,-157.5C343.7,-161.92 366.77,-166.68 387.11,-170.87"/>
<polygon fill="#63b8ff" stroke="#63b8ff" points="386.67,-174.35 397.17,-172.94 388.08,-167.49 386.67,-174.35"/>
</a>
</g>
</g>
<!-- Node10 -->
<g id="Node000010" class="node">
<title>Node10</title>
<g id="a_Node000010"><a xlink:href="../../d8/d8f/suan_pan_8h.html#a1dedfe8914d601833d703818541d3b29" target="_top" xlink:title=" ">
<polygon fill="white" stroke="#666666" points="502.5,-108 391.5,-108 391.5,-88 502.5,-88 502.5,-108"/>
<text text-anchor="middle" x="447" y="-95.2" font-family="Consolas" font-size="11.00">suanpan_assert</text>
</a>
</g>
</g>
<!-- Node9&#45;&gt;Node10 -->
<g id="edge11_Node000009_Node000010" class="edge">
<title>Node9&#45;&gt;Node10</title>
<g id="a_edge11_Node000009_Node000010"><a xlink:title=" ">
<path fill="none" stroke="#63b8ff" d="M322.23,-98C341.64,-98 362.36,-98 381.19,-98"/>
<polygon fill="#63b8ff" stroke="#63b8ff" points="381.44,-101.5 391.44,-98 381.44,-94.5 381.44,-101.5"/>
</a>
</g>
</g>
</g>
</svg>

<g id="navigator" transform="translate(0 0)" fill="#404254">
  <rect fill="#f2f5e9" fill-opacity="0.5" stroke="#606060" stroke-width=".5" x="0" y="0" width="60" height="60"/>
  <use id="zoomplus" xlink:href="#zoomPlus" x="17" y="9" onmousedown="handleZoom(evt,'in')"/>
  <use id="zoomminus" xlink:href="#zoomMin" x="42" y="9" onmousedown="handleZoom(evt,'out')"/>
  <use id="reset" xlink:href="#resetDef" x="30" y="36" onmousedown="handleReset()"/>
   <use id="arrowup" xlink:href="#arrowUp" x="0" y="0" onmousedown="handlePan(0,-1)"/>
  <use id="arrowright" xlink:href="#arrowRight" x="0" y="0" onmousedown="handlePan(1,0)"/>
  <use id="arrowdown" xlink:href="#arrowDown" x="0" y="0" onmousedown="handlePan(0,1)"/>
  <use id="arrowleft" xlink:href="#arrowLeft" x="0" y="0" onmousedown="handlePan(-1,0)"/>
</g>
<svg viewBox="0 0 15 15" width="100%" height="30px" preserveAspectRatio="xMaxYMin meet">
 <g id="arrow_out" transform="scale(0.3 0.3)">
  <a xlink:href="class_d_k_t_s3_ac0931c9fb004053badf63fc1844b0eac_cgraph_org.svg" target="_base">
   <rect id="button" ry="5" rx="5" y="6" x="6" height="38" width="38"
        fill="#f2f5e9" fill-opacity="0.5" stroke="#606060" stroke-width="1.0"/>
   <path id="arrow"
     d="M 11.500037,31.436501 C 11.940474,20.09759 22.043105,11.32322 32.158766,21.979434 L 37.068811,17.246167 C 37.068811,17.246167 37.088388,32 37.088388,32 L 22.160133,31.978069 C 22.160133,31.978069 26.997745,27.140456 26.997745,27.140456 C 18.528582,18.264221 13.291696,25.230495 11.500037,31.436501 z"
     style="fill:#404040;"/>
  </a>
 </g>
</svg>

<style type='text/css'>
<![CDATA[
[data-mouse-over-selected='false'] { opacity: 0.7; }
[data-mouse-over-selected='true']  { opacity: 1.0; }
]]>
</style>
<script type="application/ecmascript"><![CDATA[
document.addEventListener('DOMContentLoaded', (event) => {
  highlightEdges();
  highlightAdjacentNodes();
});
]]></script>
</svg>
