<?xml version="1.0" encoding="UTF-8" standalone="no"?>
<!DOCTYPE svg PUBLIC "-//W3C//DTD SVG 1.1//EN"
 "http://www.w3.org/Graphics/SVG/1.1/DTD/svg11.dtd">
<!-- Generated by graphviz version 5.0.0 (0)
 -->
<!-- Title: BSpline::evaluate_point_derivative Pages: 1 -->
<svg width="374pt" height="58pt"
 viewBox="0.00 0.00 374.00 58.00" xmlns="http://www.w3.org/2000/svg" xmlns:xlink="http://www.w3.org/1999/xlink">
<g id="graph0" class="graph" transform="scale(1 1) rotate(0) translate(4 54)">
<title>BSpline::evaluate_point_derivative</title>
<!-- Node1 -->
<g id="node1" class="node">
<title>Node1</title>
<g id="a_node1"><a xlink:title=" ">
<polygon fill="#999999" stroke="#666666" points="366,-32 194,-32 194,0 366,0 366,-32"/>
<text text-anchor="start" x="202" y="-19.2" font-family="Consolas" font-size="11.00">BSpline::evaluate_point</text>
<text text-anchor="middle" x="280" y="-7.2" font-family="Consolas" font-size="11.00">_derivative</text>
</a>
</g>
</g>
<!-- Node1&#45;&gt;Node1 -->
<g id="edge2" class="edge">
<title>Node1&#45;&gt;Node1</title>
<path fill="none" stroke="#63b8ff" d="M315.2,-42.19C310.54,-46.79 298.8,-50 280,-50 249.14,-50 237.33,-41.37 244.56,-32.09"/>
<polygon fill="#63b8ff" stroke="#63b8ff" points="318.7,-42.17 315.44,-32.09 311.7,-42 318.7,-42.17"/>
</g>
<!-- Node2 -->
<g id="node2" class="node">
<title>Node2</title>
<g id="a_node2"><a xlink:href="../../d2/d7d/class_n_u_r_b_s.html#accfec166ec8c80927adb8394ab484891" target="_top" xlink:title="Algorithm A3.2.">
<polygon fill="white" stroke="#666666" points="158,-32 0,-32 0,0 158,0 158,-32"/>
<text text-anchor="start" x="8" y="-19.2" font-family="Consolas" font-size="11.00">NURBS::evaluate_point</text>
<text text-anchor="middle" x="79" y="-7.2" font-family="Consolas" font-size="11.00">_derivative</text>
</a>
</g>
</g>
<!-- Node1&#45;&gt;Node2 -->
<g id="edge1" class="edge">
<title>Node1&#45;&gt;Node2</title>
<path fill="none" stroke="#63b8ff" d="M183.72,-16C175.16,-16 166.55,-16 158.16,-16"/>
<polygon fill="#63b8ff" stroke="#63b8ff" points="183.74,-19.5 193.74,-16 183.74,-12.5 183.74,-19.5"/>
</g>
</g>
</svg>
