<?xml version="1.0" encoding="UTF-8" standalone="no"?>
<!DOCTYPE svg PUBLIC "-//W3C//DTD SVG 1.1//EN"
 "http://www.w3.org/Graphics/SVG/1.1/DTD/svg11.dtd">
<!-- Generated by graphviz version 2.43.0 (0)
 -->
<!-- Title: SupportVelocity Pages: 1 -->
<svg width="839pt" height="1138pt"
 viewBox="0.00 0.00 839.00 1138.00" xmlns="http://www.w3.org/2000/svg" xmlns:xlink="http://www.w3.org/1999/xlink">
<g id="graph0" class="graph" transform="scale(1 1) rotate(0) translate(4 1134)">
<title>SupportVelocity</title>
<!-- Node1 -->
<g id="Node000001" class="node">
<title>Node1</title>
<g id="a_Node000001"><a xlink:title=" ">
<polygon fill="#999999" stroke="transparent" points="121,-84 0,-84 0,0 121,0 121,-84"/>
<text text-anchor="start" x="10" y="-71.2" font-family="Consolas" font-size="11.00">SupportVelocity</text>
<text text-anchor="start" x="57.5" y="-55.2" font-family="Consolas" font-size="11.00"> </text>
<text text-anchor="start" x="4.5" y="-39.2" font-family="Consolas" font-size="11.00">+</text>
<text text-anchor="start" x="15.5" y="-39.2" font-family="Consolas" font-size="11.00">process()</text>
<text text-anchor="start" x="4.5" y="-23.2" font-family="Consolas" font-size="11.00">+</text>
<text text-anchor="start" x="15.5" y="-23.2" font-family="Consolas" font-size="11.00">SupportMotion()</text>
<text text-anchor="start" x="4.5" y="-7.2" font-family="Consolas" font-size="11.00">+</text>
<text text-anchor="start" x="15.5" y="-7.2" font-family="Consolas" font-size="11.00">SupportMotion()</text>
<polygon fill="#666666" stroke="#666666" points="0.5,-66 0.5,-66 121.5,-66 121.5,-66 0.5,-66"/>
<polygon fill="#666666" stroke="#666666" points="0.5,-50 0.5,-50 121.5,-50 121.5,-50 0.5,-50"/>
<polygon fill="none" stroke="#666666" points="0,0 0,-84 121,-84 121,0 0,0"/>
</a>
</g>
</g>
<!-- Node2 -->
<g id="Node000002" class="node">
<title>Node2</title>
<g id="a_Node000002"><a xlink:href="../../da/dbb/class_support_motion.html" target="_top" xlink:title="A SupportAcceleration class.">
<polygon fill="white" stroke="transparent" points="121,-205 0,-205 0,-121 121,-121 121,-205"/>
<text text-anchor="start" x="17" y="-192.2" font-family="Consolas" font-size="11.00">SupportMotion</text>
<text text-anchor="start" x="57.5" y="-176.2" font-family="Consolas" font-size="11.00"> </text>
<text text-anchor="start" x="4.5" y="-160.2" font-family="Consolas" font-size="11.00">+</text>
<text text-anchor="start" x="15.5" y="-160.2" font-family="Consolas" font-size="11.00">SupportMotion()</text>
<text text-anchor="start" x="4.5" y="-144.2" font-family="Consolas" font-size="11.00">+</text>
<text text-anchor="start" x="15.5" y="-144.2" font-family="Consolas" font-size="11.00">SupportMotion()</text>
<text text-anchor="start" x="4.5" y="-128.2" font-family="Consolas" font-size="11.00">+</text>
<text text-anchor="start" x="15.5" y="-128.2" font-family="Consolas" font-size="11.00">initialize()</text>
<polygon fill="#666666" stroke="#666666" points="0.5,-187 0.5,-187 121.5,-187 121.5,-187 0.5,-187"/>
<polygon fill="#666666" stroke="#666666" points="0.5,-171 0.5,-171 121.5,-171 121.5,-171 0.5,-171"/>
<polygon fill="none" stroke="#666666" points="0,-121 0,-205 121,-205 121,-121 0,-121"/>
</a>
</g>
</g>
<!-- Node2&#45;&gt;Node1 -->
<g id="edge1_Node000001_Node000002" class="edge">
<title>Node2&#45;&gt;Node1</title>
<g id="a_edge1_Node000001_Node000002"><a xlink:title=" ">
<path fill="none" stroke="#63b8ff" d="M60.5,-110.54C60.5,-101.74 60.5,-92.7 60.5,-84.21"/>
<polygon fill="none" stroke="#63b8ff" points="57,-110.71 60.5,-120.71 64,-110.71 57,-110.71"/>
</a>
</g>
</g>
<!-- Node3 -->
<g id="Node000003" class="node">
<title>Node3</title>
<g id="a_Node000003"><a xlink:href="../../df/d07/class_load.html" target="_top" xlink:title="A Load class.">
<polygon fill="white" stroke="transparent" points="344.5,-466 156.5,-466 156.5,-242 344.5,-242 344.5,-466"/>
<text text-anchor="start" x="236.5" y="-453.2" font-family="Consolas" font-size="11.00">Load</text>
<text text-anchor="start" x="247" y="-437.2" font-family="Consolas" font-size="11.00"> </text>
<text text-anchor="start" x="160.5" y="-421.2" font-family="Consolas" font-size="11.00">+</text>
<text text-anchor="start" x="171.5" y="-421.2" font-family="Consolas" font-size="11.00">Load()</text>
<text text-anchor="start" x="160.5" y="-405.2" font-family="Consolas" font-size="11.00">+</text>
<text text-anchor="start" x="171.5" y="-405.2" font-family="Consolas" font-size="11.00">Load()</text>
<text text-anchor="start" x="160.5" y="-389.2" font-family="Consolas" font-size="11.00">+</text>
<text text-anchor="start" x="171.5" y="-389.2" font-family="Consolas" font-size="11.00">Load()</text>
<text text-anchor="start" x="160.5" y="-373.2" font-family="Consolas" font-size="11.00">+</text>
<text text-anchor="start" x="171.5" y="-373.2" font-family="Consolas" font-size="11.00">operator=()</text>
<text text-anchor="start" x="160.5" y="-357.2" font-family="Consolas" font-size="11.00">+</text>
<text text-anchor="start" x="171.5" y="-357.2" font-family="Consolas" font-size="11.00">operator=()</text>
<text text-anchor="start" x="160.5" y="-341.2" font-family="Consolas" font-size="11.00">+</text>
<text text-anchor="start" x="171.5" y="-341.2" font-family="Consolas" font-size="11.00">~Load()</text>
<text text-anchor="start" x="160.5" y="-325.2" font-family="Consolas" font-size="11.00">+</text>
<text text-anchor="start" x="171.5" y="-325.2" font-family="Consolas" font-size="11.00">enable_displacement</text>
<text text-anchor="start" x="171.5" y="-313.2" font-family="Consolas" font-size="11.00">_control()</text>
<text text-anchor="start" x="160.5" y="-297.2" font-family="Consolas" font-size="11.00">+</text>
<text text-anchor="start" x="171.5" y="-297.2" font-family="Consolas" font-size="11.00">if_displacement_control()</text>
<text text-anchor="start" x="160.5" y="-281.2" font-family="Consolas" font-size="11.00">+</text>
<text text-anchor="start" x="171.5" y="-281.2" font-family="Consolas" font-size="11.00">get_trial_load()</text>
<text text-anchor="start" x="160.5" y="-265.2" font-family="Consolas" font-size="11.00">+</text>
<text text-anchor="start" x="171.5" y="-265.2" font-family="Consolas" font-size="11.00">get_trial_settlement()</text>
<text text-anchor="start" x="160.5" y="-249.2" font-family="Consolas" font-size="11.00">+</text>
<text text-anchor="start" x="171.5" y="-249.2" font-family="Consolas" font-size="11.00">get_reference_load()</text>
<polygon fill="#666666" stroke="#666666" points="156.5,-448 156.5,-448 344.5,-448 344.5,-448 156.5,-448"/>
<polygon fill="#666666" stroke="#666666" points="156.5,-432 156.5,-432 344.5,-432 344.5,-432 156.5,-432"/>
<polygon fill="none" stroke="#666666" points="156.5,-242 156.5,-466 344.5,-466 344.5,-242 156.5,-242"/>
</a>
</g>
</g>
<!-- Node3&#45;&gt;Node2 -->
<g id="edge2_Node000002_Node000003" class="edge">
<title>Node3&#45;&gt;Node2</title>
<g id="a_edge2_Node000002_Node000003"><a xlink:title=" ">
<path fill="none" stroke="#63b8ff" d="M149.2,-252.23C132.58,-235.7 116.21,-219.42 102.15,-205.43"/>
<polygon fill="none" stroke="#63b8ff" points="146.78,-254.76 156.33,-259.33 151.71,-249.8 146.78,-254.76"/>
</a>
</g>
</g>
<!-- Node4 -->
<g id="Node000004" class="node">
<title>Node4</title>
<g id="a_Node000004"><a xlink:href="../../da/d44/class_conditional_modifier.html" target="_top" xlink:title="A ConditionalModifier class.">
<polygon fill="white" stroke="transparent" points="647.5,-782 479.5,-782 479.5,-526 647.5,-526 647.5,-782"/>
<text text-anchor="start" x="499" y="-769.2" font-family="Consolas" font-size="11.00">ConditionalModifier</text>
<text text-anchor="start" x="560" y="-753.2" font-family="Consolas" font-size="11.00"> </text>
<text text-anchor="start" x="483.5" y="-737.2" font-family="Consolas" font-size="11.00">+</text>
<text text-anchor="start" x="494.5" y="-737.2" font-family="Consolas" font-size="11.00">ConditionalModifier()</text>
<text text-anchor="start" x="483.5" y="-721.2" font-family="Consolas" font-size="11.00">+</text>
<text text-anchor="start" x="494.5" y="-721.2" font-family="Consolas" font-size="11.00">initialize()</text>
<text text-anchor="start" x="483.5" y="-705.2" font-family="Consolas" font-size="11.00">+</text>
<text text-anchor="start" x="494.5" y="-705.2" font-family="Consolas" font-size="11.00">process()</text>
<text text-anchor="start" x="483.5" y="-689.2" font-family="Consolas" font-size="11.00">+</text>
<text text-anchor="start" x="494.5" y="-689.2" font-family="Consolas" font-size="11.00">process_resistance()</text>
<text text-anchor="start" x="483.5" y="-673.2" font-family="Consolas" font-size="11.00">+</text>
<text text-anchor="start" x="494.5" y="-673.2" font-family="Consolas" font-size="11.00">stage()</text>
<text text-anchor="start" x="483.5" y="-657.2" font-family="Consolas" font-size="11.00">+</text>
<text text-anchor="start" x="494.5" y="-657.2" font-family="Consolas" font-size="11.00">get_node_encoding()</text>
<text text-anchor="start" x="483.5" y="-641.2" font-family="Consolas" font-size="11.00">+</text>
<text text-anchor="start" x="494.5" y="-641.2" font-family="Consolas" font-size="11.00">get_dof_encoding()</text>
<text text-anchor="start" x="483.5" y="-625.2" font-family="Consolas" font-size="11.00">+</text>
<text text-anchor="start" x="494.5" y="-625.2" font-family="Consolas" font-size="11.00">set_initialized()</text>
<text text-anchor="start" x="483.5" y="-609.2" font-family="Consolas" font-size="11.00">+</text>
<text text-anchor="start" x="494.5" y="-609.2" font-family="Consolas" font-size="11.00">is_initialized()</text>
<text text-anchor="start" x="483.5" y="-593.2" font-family="Consolas" font-size="11.00">+</text>
<text text-anchor="start" x="494.5" y="-593.2" font-family="Consolas" font-size="11.00">set_start_step()</text>
<text text-anchor="start" x="494.5" y="-577.2" font-family="Consolas" font-size="11.00">and 10 more...</text>
<text text-anchor="start" x="483.5" y="-561.2" font-family="Consolas" font-size="11.00">#</text>
<text text-anchor="start" x="494.5" y="-561.2" font-family="Consolas" font-size="11.00">get_nodal_active_dof()</text>
<text text-anchor="start" x="483.5" y="-545.2" font-family="Consolas" font-size="11.00">#</text>
<text text-anchor="start" x="494.5" y="-545.2" font-family="Consolas" font-size="11.00">get_all_nodal_active</text>
<text text-anchor="start" x="494.5" y="-533.2" font-family="Consolas" font-size="11.00">_dof()</text>
<polygon fill="#666666" stroke="#666666" points="479.5,-764 479.5,-764 647.5,-764 647.5,-764 479.5,-764"/>
<polygon fill="#666666" stroke="#666666" points="479.5,-748 479.5,-748 647.5,-748 647.5,-748 479.5,-748"/>
<polygon fill="none" stroke="#666666" points="479.5,-526 479.5,-782 647.5,-782 647.5,-526 479.5,-526"/>
</a>
</g>
</g>
<!-- Node4&#45;&gt;Node3 -->
<g id="edge3_Node000003_Node000004" class="edge">
<title>Node4&#45;&gt;Node3</title>
<g id="a_edge3_Node000003_Node000004"><a xlink:title=" ">
<path fill="none" stroke="#63b8ff" d="M542.87,-516.3C537.73,-504.69 531.36,-493.71 523.5,-484 478.62,-428.6 404.38,-395.66 344.64,-376.95"/>
<polygon fill="none" stroke="#63b8ff" points="539.71,-517.8 546.75,-525.72 546.18,-515.14 539.71,-517.8"/>
</a>
</g>
</g>
<!-- Node5 -->
<g id="Node000005" class="node">
<title>Node5</title>
<g id="a_Node000005"><a xlink:href="../../d0/d57/class_tag.html" target="_top" xlink:title="A base Tag class.">
<polygon fill="white" stroke="transparent" points="831,-1130 730,-1130 730,-854 831,-854 831,-1130"/>
<text text-anchor="start" x="770.5" y="-1117.2" font-family="Consolas" font-size="11.00">Tag</text>
<text text-anchor="start" x="777.5" y="-1101.2" font-family="Consolas" font-size="11.00"> </text>
<text text-anchor="start" x="734.5" y="-1085.2" font-family="Consolas" font-size="11.00">+</text>
<text text-anchor="start" x="745.5" y="-1085.2" font-family="Consolas" font-size="11.00">Tag()</text>
<text text-anchor="start" x="734.5" y="-1069.2" font-family="Consolas" font-size="11.00">+</text>
<text text-anchor="start" x="745.5" y="-1069.2" font-family="Consolas" font-size="11.00">Tag()</text>
<text text-anchor="start" x="734.5" y="-1053.2" font-family="Consolas" font-size="11.00">+</text>
<text text-anchor="start" x="745.5" y="-1053.2" font-family="Consolas" font-size="11.00">Tag()</text>
<text text-anchor="start" x="734.5" y="-1037.2" font-family="Consolas" font-size="11.00">+</text>
<text text-anchor="start" x="745.5" y="-1037.2" font-family="Consolas" font-size="11.00">operator=()</text>
<text text-anchor="start" x="734.5" y="-1021.2" font-family="Consolas" font-size="11.00">+</text>
<text text-anchor="start" x="745.5" y="-1021.2" font-family="Consolas" font-size="11.00">operator=()</text>
<text text-anchor="start" x="734.5" y="-1005.2" font-family="Consolas" font-size="11.00">+</text>
<text text-anchor="start" x="745.5" y="-1005.2" font-family="Consolas" font-size="11.00">~Tag()</text>
<text text-anchor="start" x="734.5" y="-989.2" font-family="Consolas" font-size="11.00">+</text>
<text text-anchor="start" x="745.5" y="-989.2" font-family="Consolas" font-size="11.00">set_tag()</text>
<text text-anchor="start" x="734.5" y="-973.2" font-family="Consolas" font-size="11.00">+</text>
<text text-anchor="start" x="745.5" y="-973.2" font-family="Consolas" font-size="11.00">get_tag()</text>
<text text-anchor="start" x="734.5" y="-957.2" font-family="Consolas" font-size="11.00">+</text>
<text text-anchor="start" x="745.5" y="-957.2" font-family="Consolas" font-size="11.00">enable()</text>
<text text-anchor="start" x="734.5" y="-941.2" font-family="Consolas" font-size="11.00">+</text>
<text text-anchor="start" x="745.5" y="-941.2" font-family="Consolas" font-size="11.00">disable()</text>
<text text-anchor="start" x="734.5" y="-925.2" font-family="Consolas" font-size="11.00">+</text>
<text text-anchor="start" x="745.5" y="-925.2" font-family="Consolas" font-size="11.00">guard()</text>
<text text-anchor="start" x="734.5" y="-909.2" font-family="Consolas" font-size="11.00">+</text>
<text text-anchor="start" x="745.5" y="-909.2" font-family="Consolas" font-size="11.00">unguard()</text>
<text text-anchor="start" x="734.5" y="-893.2" font-family="Consolas" font-size="11.00">+</text>
<text text-anchor="start" x="745.5" y="-893.2" font-family="Consolas" font-size="11.00">is_active()</text>
<text text-anchor="start" x="734.5" y="-877.2" font-family="Consolas" font-size="11.00">+</text>
<text text-anchor="start" x="745.5" y="-877.2" font-family="Consolas" font-size="11.00">is_guarded()</text>
<text text-anchor="start" x="734.5" y="-861.2" font-family="Consolas" font-size="11.00">+</text>
<text text-anchor="start" x="745.5" y="-861.2" font-family="Consolas" font-size="11.00">print()</text>
<polygon fill="#666666" stroke="#666666" points="730.5,-1112 730.5,-1112 831.5,-1112 831.5,-1112 730.5,-1112"/>
<polygon fill="#666666" stroke="#666666" points="730.5,-1096 730.5,-1096 831.5,-1096 831.5,-1096 730.5,-1096"/>
<polygon fill="none" stroke="#666666" points="730,-854 730,-1130 831,-1130 831,-854 730,-854"/>
</a>
</g>
</g>
<!-- Node5&#45;&gt;Node4 -->
<g id="edge4_Node000004_Node000005" class="edge">
<title>Node5&#45;&gt;Node4</title>
<g id="a_edge4_Node000004_Node000005"><a xlink:title=" ">
<path fill="none" stroke="#63b8ff" d="M725.35,-863.62C723.74,-860.37 722.12,-857.16 720.5,-854 707.77,-829.18 704.78,-822.65 688.5,-800 675.99,-782.59 661.85,-764.75 647.69,-747.8"/>
<polygon fill="none" stroke="#63b8ff" points="722.33,-865.42 729.87,-872.86 728.62,-862.34 722.33,-865.42"/>
</a>
</g>
</g>
<!-- Node6 -->
<g id="Node000006" class="node">
<title>Node6</title>
<g id="a_Node000006"><a xlink:title=" ">
<polygon fill="white" stroke="transparent" points="432.5,-1018 354.5,-1018 354.5,-966 432.5,-966 432.5,-1018"/>
<text text-anchor="start" x="359.5" y="-1005.2" font-family="Consolas" font-size="11.00">const bool</text>
<text text-anchor="start" x="390" y="-989.2" font-family="Consolas" font-size="11.00"> </text>
<text text-anchor="start" x="390" y="-973.2" font-family="Consolas" font-size="11.00"> </text>
<polygon fill="#666666" stroke="#666666" points="354.5,-1000 354.5,-1000 432.5,-1000 432.5,-1000 354.5,-1000"/>
<polygon fill="#666666" stroke="#666666" points="354.5,-984 354.5,-984 432.5,-984 432.5,-984 354.5,-984"/>
<polygon fill="none" stroke="#666666" points="354.5,-966 354.5,-1018 432.5,-1018 432.5,-966 354.5,-966"/>
</a>
</g>
</g>
<!-- Node6&#45;&gt;Node4 -->
<g id="edge5_Node000004_Node000006" class="edge">
<title>Node6&#45;&gt;Node4</title>
<g id="a_edge5_Node000004_Node000006"><a xlink:title=" ">
<path fill="none" stroke="#63b8ff" d="M386.9,-965.74C378.09,-925.75 367.74,-847.52 406.5,-800 423.3,-779.4 442.06,-794.63 468.76,-782.31"/>
<polygon fill="none" stroke="#63b8ff" points="469.03,-782.15 472.2,-775.68 479.4,-776.11 476.23,-782.59 469.03,-782.15"/>
</a>
</g>
<text text-anchor="middle" x="447.5" y="-821.2" font-family="Consolas" font-size="11.00" fill="grey"> #connected</text>
<text text-anchor="middle" x="447.5" y="-809.2" font-family="Consolas" font-size="11.00" fill="grey">#initialized</text>
</g>
<!-- Node7 -->
<g id="Node000007" class="node">
<title>Node7</title>
<g id="a_Node000007"><a xlink:title=" ">
<polygon fill="white" stroke="transparent" points="527,-1018 462,-1018 462,-966 527,-966 527,-1018"/>
<text text-anchor="start" x="467.5" y="-1005.2" font-family="Consolas" font-size="11.00">unsigned</text>
<text text-anchor="start" x="491.5" y="-989.2" font-family="Consolas" font-size="11.00"> </text>
<text text-anchor="start" x="491.5" y="-973.2" font-family="Consolas" font-size="11.00"> </text>
<polygon fill="#666666" stroke="#666666" points="462.5,-1000 462.5,-1000 527.5,-1000 527.5,-1000 462.5,-1000"/>
<polygon fill="#666666" stroke="#666666" points="462.5,-984 462.5,-984 527.5,-984 527.5,-984 462.5,-984"/>
<polygon fill="none" stroke="#666666" points="462,-966 462,-1018 527,-1018 527,-966 462,-966"/>
</a>
</g>
</g>
<!-- Node7&#45;&gt;Node4 -->
<g id="edge6_Node000004_Node000007" class="edge">
<title>Node7&#45;&gt;Node4</title>
<g id="a_edge6_Node000004_Node000007"><a xlink:title=" ">
<path fill="none" stroke="#63b8ff" d="M491.89,-965.89C488.75,-929.01 485.4,-858.25 498.5,-800 498.96,-797.96 499.45,-795.92 499.96,-793.88"/>
<polygon fill="none" stroke="#63b8ff" points="500.01,-793.7 497.75,-786.85 503.19,-782.13 505.46,-788.98 500.01,-793.7"/>
</a>
</g>
<text text-anchor="middle" x="549.5" y="-827.2" font-family="Consolas" font-size="11.00" fill="grey"> #amplitude_tag</text>
<text text-anchor="middle" x="549.5" y="-815.2" font-family="Consolas" font-size="11.00" fill="grey">#end_step</text>
<text text-anchor="middle" x="549.5" y="-803.2" font-family="Consolas" font-size="11.00" fill="grey">#start_step</text>
</g>
<!-- Node8 -->
<g id="Node000008" class="node">
<title>Node8</title>
<g id="a_Node000008"><a xlink:title=" ">
<polygon fill="white" stroke="transparent" points="118.5,-1018 80.5,-1018 80.5,-966 118.5,-966 118.5,-1018"/>
<text text-anchor="start" x="85.5" y="-1005.2" font-family="Consolas" font-size="11.00">uvec</text>
<text text-anchor="start" x="96" y="-989.2" font-family="Consolas" font-size="11.00"> </text>
<text text-anchor="start" x="96" y="-973.2" font-family="Consolas" font-size="11.00"> </text>
<polygon fill="#666666" stroke="#666666" points="80.5,-1000 80.5,-1000 118.5,-1000 118.5,-1000 80.5,-1000"/>
<polygon fill="#666666" stroke="#666666" points="80.5,-984 80.5,-984 118.5,-984 118.5,-984 80.5,-984"/>
<polygon fill="none" stroke="#666666" points="80.5,-966 80.5,-1018 118.5,-1018 118.5,-966 80.5,-966"/>
</a>
</g>
</g>
<!-- Node8&#45;&gt;Node2 -->
<g id="edge13_Node000002_Node000008" class="edge">
<title>Node8&#45;&gt;Node2</title>
<g id="a_edge13_Node000002_Node000008"><a xlink:title=" ">
<path fill="none" stroke="#63b8ff" d="M94.24,-965.69C86.24,-926.48 70.95,-848.64 61.5,-782 42.83,-650.29 27.9,-616.91 33.5,-484 37.46,-389.87 47.96,-280.58 54.64,-217.15"/>
<polygon fill="none" stroke="#63b8ff" points="54.65,-217.03 51.31,-210.64 55.92,-205.1 59.26,-211.49 54.65,-217.03"/>
</a>
</g>
<text text-anchor="middle" x="67.5" y="-493.2" font-family="Consolas" font-size="11.00" fill="grey"> #encoding</text>
</g>
<!-- Node8&#45;&gt;Node4 -->
<g id="edge7_Node000004_Node000008" class="edge">
<title>Node8&#45;&gt;Node4</title>
<g id="a_edge7_Node000004_Node000008"><a xlink:title=" ">
<path fill="none" stroke="#63b8ff" d="M115.54,-965.71C144.17,-923.03 208.56,-837.69 287.5,-800 358.18,-766.26 396.53,-817.62 468.59,-782.78"/>
<polygon fill="none" stroke="#63b8ff" points="468.88,-782.62 472.3,-776.28 479.47,-776.99 476.05,-783.34 468.88,-782.62"/>
</a>
</g>
<text text-anchor="middle" x="335" y="-827.2" font-family="Consolas" font-size="11.00" fill="grey"> #dof_encoding</text>
<text text-anchor="middle" x="335" y="-815.2" font-family="Consolas" font-size="11.00" fill="grey">#dof_reference</text>
<text text-anchor="middle" x="335" y="-803.2" font-family="Consolas" font-size="11.00" fill="grey">#node_encoding</text>
</g>
<!-- Node9 -->
<g id="Node000009" class="node">
<title>Node9</title>
<g id="a_Node000009"><a xlink:title=" ">
<polygon fill="white" stroke="transparent" points="711.5,-1018 545.5,-1018 545.5,-966 711.5,-966 711.5,-1018"/>
<text text-anchor="start" x="550.5" y="-1005.2" font-family="Consolas" font-size="11.00">shared_ptr&lt; Amplitude &gt;</text>
<text text-anchor="start" x="625" y="-989.2" font-family="Consolas" font-size="11.00"> </text>
<text text-anchor="start" x="625" y="-973.2" font-family="Consolas" font-size="11.00"> </text>
<polygon fill="#666666" stroke="#666666" points="545.5,-1000 545.5,-1000 711.5,-1000 711.5,-1000 545.5,-1000"/>
<polygon fill="#666666" stroke="#666666" points="545.5,-984 545.5,-984 711.5,-984 711.5,-984 545.5,-984"/>
<polygon fill="none" stroke="#666666" points="545.5,-966 545.5,-1018 711.5,-1018 711.5,-966 545.5,-966"/>
</a>
</g>
</g>
<!-- Node9&#45;&gt;Node4 -->
<g id="edge8_Node000004_Node000009" class="edge">
<title>Node9&#45;&gt;Node4</title>
<g id="a_edge8_Node000004_Node000009"><a xlink:title=" ">
<path fill="none" stroke="#63b8ff" d="M626.55,-965.78C623.43,-929.04 616.43,-858.79 604.5,-800 604.09,-797.97 603.66,-795.93 603.23,-793.88"/>
<polygon fill="none" stroke="#63b8ff" points="603.2,-793.76 597.99,-788.77 600.59,-782.04 605.8,-787.03 603.2,-793.76"/>
</a>
</g>
<text text-anchor="middle" x="647" y="-815.2" font-family="Consolas" font-size="11.00" fill="grey"> #magnitude</text>
</g>
<!-- Node10 -->
<g id="Node000010" class="node">
<title>Node10</title>
<g id="a_Node000010"><a xlink:title=" ">
<polygon fill="white" stroke="transparent" points="122,-680 71,-680 71,-628 122,-628 122,-680"/>
<text text-anchor="start" x="76.5" y="-667.2" font-family="Consolas" font-size="11.00">double</text>
<text text-anchor="start" x="93.5" y="-651.2" font-family="Consolas" font-size="11.00"> </text>
<text text-anchor="start" x="93.5" y="-635.2" font-family="Consolas" font-size="11.00"> </text>
<polygon fill="#666666" stroke="#666666" points="71.5,-662 71.5,-662 122.5,-662 122.5,-662 71.5,-662"/>
<polygon fill="#666666" stroke="#666666" points="71.5,-646 71.5,-646 122.5,-646 122.5,-646 71.5,-646"/>
<polygon fill="none" stroke="#666666" points="71,-628 71,-680 122,-680 122,-628 71,-628"/>
</a>
</g>
</g>
<!-- Node10&#45;&gt;Node3 -->
<g id="edge9_Node000003_Node000010" class="edge">
<title>Node10&#45;&gt;Node3</title>
<g id="a_edge9_Node000003_Node000010"><a xlink:title=" ">
<path fill="none" stroke="#63b8ff" d="M93.74,-627.74C91.13,-593.33 90.49,-530.69 113.5,-484 122.17,-466.41 134.31,-449.97 147.81,-435.11"/>
<polygon fill="none" stroke="#63b8ff" points="148.12,-434.78 149.35,-427.68 156.38,-426.07 155.16,-433.18 148.12,-434.78"/>
</a>
</g>
<text text-anchor="middle" x="154.5" y="-499.2" font-family="Consolas" font-size="11.00" fill="grey"> #multiplier</text>
<text text-anchor="middle" x="154.5" y="-487.2" font-family="Consolas" font-size="11.00" fill="grey">#pattern</text>
</g>
<!-- Node11 -->
<g id="Node000011" class="node">
<title>Node11</title>
<g id="a_Node000011"><a xlink:title=" ">
<polygon fill="white" stroke="transparent" points="220.5,-680 182.5,-680 182.5,-628 220.5,-628 220.5,-680"/>
<text text-anchor="start" x="187.5" y="-667.2" font-family="Consolas" font-size="11.00">bool</text>
<text text-anchor="start" x="198" y="-651.2" font-family="Consolas" font-size="11.00"> </text>
<text text-anchor="start" x="198" y="-635.2" font-family="Consolas" font-size="11.00"> </text>
<polygon fill="#666666" stroke="#666666" points="182.5,-662 182.5,-662 220.5,-662 220.5,-662 182.5,-662"/>
<polygon fill="#666666" stroke="#666666" points="182.5,-646 182.5,-646 220.5,-646 220.5,-646 182.5,-646"/>
<polygon fill="none" stroke="#666666" points="182.5,-628 182.5,-680 220.5,-680 220.5,-628 182.5,-628"/>
</a>
</g>
</g>
<!-- Node11&#45;&gt;Node3 -->
<g id="edge10_Node000003_Node000011" class="edge">
<title>Node11&#45;&gt;Node3</title>
<g id="a_edge10_Node000003_Node000011"><a xlink:title=" ">
<path fill="none" stroke="#63b8ff" d="M198.94,-627.83C196.16,-594.59 193.28,-534.36 202.5,-484 202.87,-481.98 203.27,-479.95 203.69,-477.91"/>
<polygon fill="none" stroke="#63b8ff" points="203.7,-477.89 201.16,-471.14 206.41,-466.2 208.95,-472.94 203.7,-477.89"/>
</a>
</g>
<text text-anchor="middle" x="240" y="-493.2" font-family="Consolas" font-size="11.00" fill="grey"> #mpdc_flag</text>
</g>
<!-- Node12 -->
<g id="Node000012" class="node">
<title>Node12</title>
<g id="a_Node000012"><a xlink:title=" ">
<polygon fill="white" stroke="transparent" points="315,-680 284,-680 284,-628 315,-628 315,-680"/>
<text text-anchor="start" x="289.5" y="-667.2" font-family="Consolas" font-size="11.00">vec</text>
<text text-anchor="start" x="296.5" y="-651.2" font-family="Consolas" font-size="11.00"> </text>
<text text-anchor="start" x="296.5" y="-635.2" font-family="Consolas" font-size="11.00"> </text>
<polygon fill="#666666" stroke="#666666" points="284.5,-662 284.5,-662 315.5,-662 315.5,-662 284.5,-662"/>
<polygon fill="#666666" stroke="#666666" points="284.5,-646 284.5,-646 315.5,-646 315.5,-646 284.5,-646"/>
<polygon fill="none" stroke="#666666" points="284,-628 284,-680 315,-680 315,-628 284,-628"/>
</a>
</g>
</g>
<!-- Node12&#45;&gt;Node3 -->
<g id="edge11_Node000003_Node000012" class="edge">
<title>Node12&#45;&gt;Node3</title>
<g id="a_edge11_Node000003_Node000012"><a xlink:title=" ">
<path fill="none" stroke="#63b8ff" d="M296.85,-628C293.22,-594.94 286.13,-534.9 277.5,-484 277.16,-481.98 276.81,-479.95 276.45,-477.91"/>
<polygon fill="none" stroke="#63b8ff" points="276.44,-477.88 271.44,-472.69 274.31,-466.07 279.32,-471.27 276.44,-477.88"/>
</a>
</g>
<text text-anchor="middle" x="339" y="-499.2" font-family="Consolas" font-size="11.00" fill="grey"> #trial_load</text>
<text text-anchor="middle" x="339" y="-487.2" font-family="Consolas" font-size="11.00" fill="grey">#trial_settlement</text>
</g>
<!-- Node13 -->
<g id="Node000013" class="node">
<title>Node13</title>
<g id="a_Node000013"><a xlink:title=" ">
<polygon fill="white" stroke="transparent" points="462,-680 411,-680 411,-628 462,-628 462,-680"/>
<text text-anchor="start" x="416.5" y="-667.2" font-family="Consolas" font-size="11.00">sp_vec</text>
<text text-anchor="start" x="433.5" y="-651.2" font-family="Consolas" font-size="11.00"> </text>
<text text-anchor="start" x="433.5" y="-635.2" font-family="Consolas" font-size="11.00"> </text>
<polygon fill="#666666" stroke="#666666" points="411.5,-662 411.5,-662 462.5,-662 462.5,-662 411.5,-662"/>
<polygon fill="#666666" stroke="#666666" points="411.5,-646 411.5,-646 462.5,-646 462.5,-646 411.5,-646"/>
<polygon fill="none" stroke="#666666" points="411,-628 411,-680 462,-680 462,-628 411,-628"/>
</a>
</g>
</g>
<!-- Node13&#45;&gt;Node3 -->
<g id="edge12_Node000003_Node000013" class="edge">
<title>Node13&#45;&gt;Node3</title>
<g id="a_edge12_Node000003_Node000013"><a xlink:title=" ">
<path fill="none" stroke="#63b8ff" d="M436.08,-627.99C434.46,-593.34 427.66,-529.8 400.5,-484 388.34,-463.5 371.75,-444.63 354.03,-428.02"/>
<polygon fill="none" stroke="#63b8ff" points="353.56,-427.6 346.43,-426.53 344.67,-419.54 351.8,-420.6 353.56,-427.6"/>
</a>
</g>
<text text-anchor="middle" x="465" y="-493.2" font-family="Consolas" font-size="11.00" fill="grey"> #reference_load</text>
</g>
</g>
</svg>
