<svg xmlns="http://www.w3.org/2000/svg" xmlns:xlink="http://www.w3.org/1999/xlink" xml:space="preserve" id="main" onload="init(evt)"><style>.edge,.node,[data-mouse-over-selected=false]{opacity:.7}.edge.selected,.node.selected,[data-mouse-over-selected=true]{opacity:1}.edge:hover path{stroke:red}.edge:hover polygon{stroke:red;fill:red}</style><defs><g id="zoomPlus"><use xlink:href="#rim" fill="#404040"><set attributeName="fill" begin="zoomplus.mouseover" end="zoomplus.mouseout" to="#808080"/></use><path fill="none" stroke="#fff" stroke-width="1.5" d="M-4 0h8M0-4v8" pointer-events="none"/></g><g id="zoomMin"><use xlink:href="#rim" fill="#404040"><set attributeName="fill" begin="zoomminus.mouseover" end="zoomminus.mouseout" to="#808080"/></use><path fill="none" stroke="#fff" stroke-width="1.5" d="M-4 0h8" pointer-events="none"/></g><g id="arrowUp" transform="translate(30 24)"><use xlink:href="#rim"/><path fill="none" stroke="#fff" stroke-width="1.5" d="M0-3v7M-2.5-.5 0-3 2.5-.5" pointer-events="none"/></g><g id="arrowRight" transform="rotate(90 3.5 39.5)"><use xlink:href="#rim"/><path fill="none" stroke="#fff" stroke-width="1.5" d="M0-3v7M-2.5-.5 0-3 2.5-.5" pointer-events="none"/></g><g id="arrowDown" transform="matrix(-1 0 0 -1 30 48)"><use xlink:href="#rim"/><path fill="none" stroke="#fff" stroke-width="1.5" d="M0-3v7M-2.5-.5 0-3 2.5-.5" pointer-events="none"/></g><g id="arrowLeft" transform="rotate(-90 26.5 9.5)"><use xlink:href="#rim"/><path fill="none" stroke="#fff" stroke-width="1.5" d="M0-3v7M-2.5-.5 0-3 2.5-.5" pointer-events="none"/></g><circle id="rim" cx="0" cy="0" r="7"/><circle id="rim2" cx="0" cy="0" r="3.5"/><use xlink:href="#rim2" id="resetDef" fill="#404040"><set attributeName="fill" begin="reset.mouseover" end="reset.mouseout" to="#808080"/></use></defs><script type="application/ecmascript">var viewWidth = 564;
var viewHeight = 420;
var sectionId = &apos;dynsection-0&apos;;</script><script xlink:href="../../svg.min.js" type="application/ecmascript"/><svg id="graph" class="graph"><g id="viewport"><title>Section/SectionNM/VAFNM.cpp</title><g id="Node000001" class="node"><title>Node1</title><a id="a_Node000001">
<path fill="#999" stroke="#666" d="M449-412H250v20h199z"/>
<text x="349.5" y="-399.2" font-family="Consolas" font-size="11" text-anchor="middle">Section/SectionNM/VAFNM.cpp</text>
</a></g><g id="Node000002" class="node"><title>Node2</title><a xlink:href="../../d4/d59/_v_a_f_n_m_8h.html" id="a_Node000002" target="_top">
<path fill="#fff" stroke="#666" d="M323.5-356h-64v20h64z"/>
<text x="291.5" y="-343.2" font-family="Consolas" font-size="11" text-anchor="middle">VAFNM.h</text>
</a></g><g id="edge1_Node000001_Node000002" class="edge"><title>Node1-&gt;Node2</title><a id="a_edge1_Node000001_Node000002">
<path fill="none" stroke="#63b8ff" d="M339.66-391.84c-8.47 7.88-20.88 19.44-30.98 28.84"/>
<path fill="#63b8ff" stroke="#63b8ff" d="m310.9-360.28-9.71 4.25 4.94-9.37z"/>
</a></g><g id="Node000014" class="node"><title>Node14</title><a xlink:href="../../d5/d47/utility_8h.html" id="a_Node000014" target="_top">
<path fill="#fff" stroke="#666" d="M480-356H349v20h131z"/>
<text x="414.5" y="-343.2" font-family="Consolas" font-size="11" text-anchor="middle">Toolbox/utility.h</text>
</a></g><g id="edge13_Node000001_Node000014" class="edge"><title>Node1-&gt;Node14</title><a id="a_edge13_Node000001_Node000014">
<path fill="none" stroke="#63b8ff" d="M360.53-391.84c9.67 8.04 23.95 19.9 35.38 29.4"/>
<path fill="#63b8ff" stroke="#63b8ff" d="m398.18-365.11 5.46 9.08-9.93-3.69z"/>
</a></g><g id="Node000003" class="node"><title>Node3</title><a xlink:href="../../d8/dc2/_nonlinear_n_m_8h.html" id="a_Node000003" target="_top">
<path fill="#fff" stroke="#666" d="M329.5-300h-104v20h104z"/>
<text x="277.5" y="-287.2" font-family="Consolas" font-size="11" text-anchor="middle">NonlinearNM.h</text>
</a></g><g id="edge2_Node000002_Node000003" class="edge"><title>Node2-&gt;Node3</title><a id="a_edge2_Node000002_Node000003">
<path fill="none" stroke="#63b8ff" d="M289.06-335.59c-1.83 7.04-4.39 16.92-6.63 25.59"/>
<path fill="#63b8ff" stroke="#63b8ff" d="m285.81-309.1-5.9 8.8-.88-10.56z"/>
</a></g><g id="Node000004" class="node"><title>Node4</title><a xlink:href="../../d6/d66/_section_n_m_8h.html" id="a_Node000004" target="_top">
<path fill="#fff" stroke="#666" d="M316-244h-91v20h91z"/>
<text x="270.5" y="-231.2" font-family="Consolas" font-size="11" text-anchor="middle">SectionNM.h</text>
</a></g><g id="edge3_Node000003_Node000004" class="edge"><title>Node3-&gt;Node4</title><a id="a_edge3_Node000003_Node000004">
<path fill="none" stroke="#63b8ff" d="M276.28-279.59c-.9 6.96-2.17 16.7-3.28 25.3"/>
<path fill="#63b8ff" stroke="#63b8ff" d="m276.46-253.77-4.75 9.47-2.19-10.37z"/>
</a></g><g id="Node000005" class="node"><title>Node5</title><a xlink:href="../../de/d09/_section_8h.html" id="a_Node000005" target="_top">
<path fill="#fff" stroke="#666" d="M332-188H201v20h131z"/>
<text x="266.5" y="-175.2" font-family="Consolas" font-size="11" text-anchor="middle">Section/Section.h</text>
</a></g><g id="edge4_Node000004_Node000005" class="edge"><title>Node4-&gt;Node5</title><a id="a_edge4_Node000004_Node000005">
<path fill="none" stroke="#63b8ff" d="M269.8-223.59c-.51 6.96-1.23 16.7-1.87 25.3"/>
<path fill="#63b8ff" stroke="#63b8ff" d="m271.42-198.01-4.23 9.71-2.75-10.23z"/>
</a></g><g id="Node000006" class="node"><title>Node6</title><a xlink:href="../../d2/d4a/_tag_8h.html" id="a_Node000006" target="_top">
<path fill="#fff" stroke="#666" d="M324.5-132h-98v20h98z"/>
<text x="275.5" y="-119.2" font-family="Consolas" font-size="11" text-anchor="middle">Domain/Tag.h</text>
</a></g><g id="edge5_Node000005_Node000006" class="edge"><title>Node5-&gt;Node6</title><a id="a_edge5_Node000005_Node000006">
<path fill="none" stroke="#63b8ff" d="M268.07-167.59c1.16 6.96 2.78 16.7 4.22 25.3"/>
<path fill="#63b8ff" stroke="#63b8ff" d="m275.76-142.74-1.81 10.44-5.1-9.29z"/>
</a></g><g id="Node000007" class="node"><title>Node7</title><a xlink:href="../../d8/d8f/suan_pan_8h.html" id="a_Node000007" target="_top">
<path fill="#fff" stroke="#666" d="M352-76h-77v20h77z"/>
<text x="313.5" y="-63.2" font-family="Consolas" font-size="11" text-anchor="middle">suanPan.h</text>
</a></g><g id="edge6_Node000006_Node000007" class="edge"><title>Node6-&gt;Node7</title><a id="a_edge6_Node000006_Node000007">
<path fill="none" stroke="#63b8ff" d="M282.12-111.59c5.23 7.43 12.68 18.01 19.01 27.01"/>
<path fill="#63b8ff" stroke="#63b8ff" d="m304.06-86.49 2.9 10.19-8.62-6.16z"/>
</a></g><g id="Node000008" class="node"><title>Node8</title><a id="a_Node000008">
<path fill="#e0e0e0" stroke="#999" d="M71-20H0V0h71z"/>
<text x="35.5" y="-7.2" font-family="Consolas" font-size="11" text-anchor="middle">iostream</text>
</a></g><g id="edge7_Node000007_Node000008" class="edge"><title>Node7-&gt;Node8</title><a id="a_edge7_Node000007_Node000008">
<path fill="none" stroke="#63b8ff" d="M274.96-57.73c-44.4 8.4-119.84 22.78-193.95 37.45"/>
<path fill="#63b8ff" stroke="#63b8ff" d="m81.52-16.82-10.49-1.49 9.13-5.37z"/>
</a></g><g id="Node000009" class="node"><title>Node9</title><a id="a_Node000009">
<path fill="#e0e0e0" stroke="#999" d="M200-20H89V0h111z"/>
<text x="144.5" y="-7.2" font-family="Consolas" font-size="11" text-anchor="middle">armadillo/arma</text>
</a></g><g id="edge8_Node000007_Node000009" class="edge"><title>Node7-&gt;Node9</title><a id="a_edge8_Node000007_Node000009">
<path fill="none" stroke="#63b8ff" d="M285.21-55.96c-28.15 8.99-71.53 22.85-102.68 32.81"/>
<path fill="#63b8ff" stroke="#63b8ff" d="m183.47-19.78-10.59-.29 8.46-6.38z"/>
</a></g><g id="Node000010" class="node"><title>Node10</title><a id="a_Node000010">
<path fill="#e0e0e0" stroke="#999" d="M302.5-20h-84V0h84z"/>
<text x="260.5" y="-7.2" font-family="Consolas" font-size="11" text-anchor="middle">filesystem</text>
</a></g><g id="edge9_Node000007_Node000010" class="edge"><title>Node7-&gt;Node10</title><a id="a_edge9_Node000007_Node000010">
<path fill="none" stroke="#63b8ff" d="M304.27-55.59c-7.6 7.74-18.56 18.9-27.61 28.12"/>
<path fill="#63b8ff" stroke="#63b8ff" d="m279.13-24.98-9.5 4.68 4.5-9.59z"/>
</a></g><g id="Node000011" class="node"><title>Node11</title><a id="a_Node000011">
<path fill="#e0e0e0" stroke="#999" d="M412-20h-91V0h91z"/>
<text x="366.5" y="-7.2" font-family="Consolas" font-size="11" text-anchor="middle">fmt/color.h</text>
</a></g><g id="edge10_Node000007_Node000011" class="edge"><title>Node7-&gt;Node11</title><a id="a_edge10_Node000007_Node000011">
<path fill="none" stroke="#63b8ff" d="M322.73-55.59c7.6 7.74 18.56 18.9 27.61 28.12"/>
<path fill="#63b8ff" stroke="#63b8ff" d="m352.87-29.89 4.5 9.59-9.5-4.68z"/>
</a></g><g id="Node000012" class="node"><title>Node12</title><a id="a_Node000012">
<path fill="#e0e0e0" stroke="#999" d="M480.5-20h-50V0h50z"/>
<text x="455.5" y="-7.2" font-family="Consolas" font-size="11" text-anchor="middle">mutex</text>
</a></g><g id="edge11_Node000007_Node000012" class="edge"><title>Node7-&gt;Node12</title><a id="a_edge11_Node000007_Node000012">
<path fill="none" stroke="#63b8ff" d="M337.27-55.96c23.24 8.84 58.84 22.38 84.91 32.29"/>
<path fill="#63b8ff" stroke="#63b8ff" d="m423.55-26.89 8.1 6.82-10.59-.28z"/>
</a></g><g id="Node000013" class="node"><title>Node13</title><a id="a_Node000013">
<path fill="#e0e0e0" stroke="#999" d="M556-20h-57V0h57z"/>
<text x="527.5" y="-7.2" font-family="Consolas" font-size="11" text-anchor="middle">memory</text>
</a></g><g id="edge12_Node000007_Node000013" class="edge"><title>Node7-&gt;Node13</title><a id="a_edge12_Node000007_Node000013">
<path fill="none" stroke="#63b8ff" d="m349.32-55.96 139.61 35.23"/>
<path fill="#63b8ff" stroke="#63b8ff" d="m489.93-24.09 8.84 5.84-10.55.95z"/>
</a></g><g id="edge16_Node000014_Node000007" class="edge"><title>Node14-&gt;Node7</title><a id="a_edge16_Node000014_Node000007">
<path fill="none" stroke="#63b8ff" d="M405.56-335.72c-7.86 8.62-19.12 22.15-26.06 35.72-13.7 26.8-19 34.9-19 65v58c0 34.94-20.3 71.46-34.22 92.4"/>
<path fill="#63b8ff" stroke="#63b8ff" d="m329-82.38-8.56 6.24 2.8-10.22z"/>
</a></g><g id="Node000015" class="node"><title>Node15</title><a id="a_Node000015">
<path fill="#e0e0e0" stroke="#999" d="M460-300h-71v20h71z"/>
<text x="424.5" y="-287.2" font-family="Consolas" font-size="11" text-anchor="middle">concepts</text>
</a></g><g id="edge14_Node000014_Node000015" class="edge"><title>Node14-&gt;Node15</title><a id="a_edge14_Node000014_Node000015">
<path fill="none" stroke="#63b8ff" d="M416.24-335.59c1.29 6.96 3.1 16.7 4.69 25.3"/>
<path fill="#63b8ff" stroke="#63b8ff" d="m424.4-310.77-1.62 10.47-5.26-9.19z"/>
</a></g><g id="Node000016" class="node"><title>Node16</title><a id="a_Node000016">
<path fill="#e0e0e0" stroke="#999" d="M515-300h-37v20h37z"/>
<text x="496.5" y="-287.2" font-family="Consolas" font-size="11" text-anchor="middle">set</text>
</a></g><g id="edge15_Node000014_Node000016" class="edge"><title>Node14-&gt;Node16</title><a id="a_edge15_Node000014_Node000016">
<path fill="none" stroke="#63b8ff" d="M428.41-335.84c12.56 8.27 31.27 20.59 45.9 30.22"/>
<path fill="#63b8ff" stroke="#63b8ff" d="m476.37-308.45 6.43 8.42-10.28-2.57z"/>
</a></g></g></svg><g id="navigator" fill="#404254"><path fill="#f2f5e9" fill-opacity=".5" stroke="#606060" stroke-width=".5" d="M0 0h60v60H0z"/><use xlink:href="#zoomPlus" id="zoomplus" x="17" y="9" onmousedown="handleZoom(evt,'in')"/><use xlink:href="#zoomMin" id="zoomminus" x="42" y="9" onmousedown="handleZoom(evt,'out')"/><use xlink:href="#resetDef" id="reset" x="30" y="36" onmousedown="handleReset()"/><use xlink:href="#arrowUp" id="arrowup" x="0" y="0" onmousedown="handlePan(0,-1)"/><use xlink:href="#arrowRight" id="arrowright" x="0" y="0" onmousedown="handlePan(1,0)"/><use xlink:href="#arrowDown" id="arrowdown" x="0" y="0" onmousedown="handlePan(0,1)"/><use xlink:href="#arrowLeft" id="arrowleft" x="0" y="0" onmousedown="handlePan(-1,0)"/></g><svg height="30" preserveAspectRatio="xMaxYMin meet" viewBox="0 0 15 15"><a xlink:href="_v_a_f_n_m_8cpp__incl_org.svg" id="arrow_out" target="_base" transform="scale(.3)">
   <rect id="button" width="38" height="38" x="6" y="6" fill="#f2f5e9" fill-opacity=".5" stroke="#606060" stroke-width="1" rx="5" ry="5"/>
   <path id="arrow" d="M11.5 31.437c.44-11.34 10.543-20.114 20.659-9.458l4.91-4.733.02 14.754-14.929-.022 4.838-4.838c-8.47-8.876-13.706-1.91-15.498 4.297" style="fill:#404040"/>
  </a></svg><script type="application/ecmascript"><![CDATA[
document.addEventListener('DOMContentLoaded', (event) => {
  highlightEdges();
  highlightAdjacentNodes();
});
]]></script></svg>