<?xml version="1.0" encoding="UTF-8" standalone="no"?>
<!DOCTYPE svg PUBLIC "-//W3C//DTD SVG 1.1//EN"
 "http://www.w3.org/Graphics/SVG/1.1/DTD/svg11.dtd">
<!-- Generated by graphviz version 5.0.0 (0)
 -->
<!-- Title: Element/Beam/B21H.cpp Pages: 1 -->
<svg width="963pt" height="488pt"
 viewBox="0.00 0.00 962.50 488.00" xmlns="http://www.w3.org/2000/svg" xmlns:xlink="http://www.w3.org/1999/xlink">
<g id="graph0" class="graph" transform="scale(1 1) rotate(0) translate(4 484)">
<title>Element/Beam/B21H.cpp</title>
<!-- Node1 -->
<g id="node1" class="node">
<title>Node1</title>
<g id="a_node1"><a xlink:title=" ">
<polygon fill="#999999" stroke="#666666" points="763,-480 605,-480 605,-460 763,-460 763,-480"/>
<text text-anchor="middle" x="684" y="-467.2" font-family="Consolas" font-size="11.00">Element/Beam/B21H.cpp</text>
</a>
</g>
</g>
<!-- Node2 -->
<g id="node2" class="node">
<title>Node2</title>
<g id="a_node2"><a xlink:href="../../dc/de8/_b21_h_8h.html" target="_top" xlink:title=" ">
<polygon fill="white" stroke="#666666" points="407.5,-424 350.5,-424 350.5,-404 407.5,-404 407.5,-424"/>
<text text-anchor="middle" x="379" y="-411.2" font-family="Consolas" font-size="11.00">B21H.h</text>
</a>
</g>
</g>
<!-- Node1&#45;&gt;Node2 -->
<g id="edge1" class="edge">
<title>Node1&#45;&gt;Node2</title>
<path fill="none" stroke="#63b8ff" d="M632.95,-459.96C572.25,-449.21 472.31,-431.52 417.66,-421.84"/>
<polygon fill="#63b8ff" stroke="#63b8ff" points="418.13,-418.37 407.68,-420.08 416.91,-425.27 418.13,-418.37"/>
</g>
<!-- Node21 -->
<g id="node21" class="node">
<title>Node21</title>
<g id="a_node21"><a xlink:href="../../dc/df2/_domain_base_8h.html" target="_top" xlink:title=" ">
<polygon fill="white" stroke="#666666" points="715.5,-194 570.5,-194 570.5,-174 715.5,-174 715.5,-194"/>
<text text-anchor="middle" x="643" y="-181.2" font-family="Consolas" font-size="11.00">Domain/DomainBase.h</text>
</a>
</g>
</g>
<!-- Node1&#45;&gt;Node21 -->
<g id="edge22" class="edge">
<title>Node1&#45;&gt;Node21</title>
<path fill="none" stroke="#63b8ff" d="M692.66,-459.84C708.6,-441.95 741,-400.51 741,-359 741,-359 741,-359 741,-301 741,-255.6 696.66,-218.8 667.63,-199.56"/>
<polygon fill="#63b8ff" stroke="#63b8ff" points="669.49,-196.6 659.18,-194.17 665.73,-202.5 669.49,-196.6"/>
</g>
<!-- Node28 -->
<g id="node28" class="node">
<title>Node28</title>
<g id="a_node28"><a xlink:href="../../de/d09/_section_8h.html" target="_top" xlink:title=" ">
<polygon fill="white" stroke="#666666" points="692.5,-424 561.5,-424 561.5,-404 692.5,-404 692.5,-424"/>
<text text-anchor="middle" x="627" y="-411.2" font-family="Consolas" font-size="11.00">Section/Section.h</text>
</a>
</g>
</g>
<!-- Node1&#45;&gt;Node28 -->
<g id="edge31" class="edge">
<title>Node1&#45;&gt;Node28</title>
<path fill="none" stroke="#63b8ff" d="M674.33,-459.84C666.01,-451.96 653.81,-440.4 643.88,-431"/>
<polygon fill="#63b8ff" stroke="#63b8ff" points="646.19,-428.36 636.53,-424.03 641.38,-433.44 646.19,-428.36"/>
</g>
<!-- Node30 -->
<g id="node30" class="node">
<title>Node30</title>
<g id="a_node30"><a xlink:href="../../d7/dab/_integration_plan_8h.html" target="_top" xlink:title=" ">
<polygon fill="white" stroke="#666666" points="954.5,-256 769.5,-256 769.5,-236 954.5,-236 954.5,-256"/>
<text text-anchor="middle" x="862" y="-243.2" font-family="Consolas" font-size="11.00">Toolbox/IntegrationPlan.h</text>
</a>
</g>
</g>
<!-- Node1&#45;&gt;Node30 -->
<g id="edge34" class="edge">
<title>Node1&#45;&gt;Node30</title>
<path fill="none" stroke="#63b8ff" d="M703.18,-459.97C718.52,-452.06 739.89,-439.43 755,-424 803.26,-374.7 839.35,-299.71 854.35,-265.35"/>
<polygon fill="#63b8ff" stroke="#63b8ff" points="857.61,-266.64 858.32,-256.07 851.17,-263.89 857.61,-266.64"/>
</g>
<!-- Node3 -->
<g id="node3" class="node">
<title>Node3</title>
<g id="a_node3"><a xlink:href="../../d9/d41/_section_element_8h.html" target="_top" xlink:title=" ">
<polygon fill="white" stroke="#666666" points="271.5,-368 92.5,-368 92.5,-348 271.5,-348 271.5,-368"/>
<text text-anchor="middle" x="182" y="-355.2" font-family="Consolas" font-size="11.00">Element/SectionElement.h</text>
</a>
</g>
</g>
<!-- Node2&#45;&gt;Node3 -->
<g id="edge2" class="edge">
<title>Node2&#45;&gt;Node3</title>
<path fill="none" stroke="#63b8ff" d="M350.35,-405.15C317.34,-396.1 262.76,-381.14 224.73,-370.71"/>
<polygon fill="#63b8ff" stroke="#63b8ff" points="225.52,-367.3 214.96,-368.03 223.67,-374.05 225.52,-367.3"/>
</g>
<!-- Node18 -->
<g id="node18" class="node">
<title>Node18</title>
<g id="a_node18"><a xlink:href="../../d2/d0e/_b2_d_c_8h.html" target="_top" xlink:title=" ">
<polygon fill="white" stroke="#666666" points="461.5,-368 296.5,-368 296.5,-348 461.5,-348 461.5,-368"/>
<text text-anchor="middle" x="379" y="-355.2" font-family="Consolas" font-size="11.00">Element/Utility/B2DC.h</text>
</a>
</g>
</g>
<!-- Node2&#45;&gt;Node18 -->
<g id="edge18" class="edge">
<title>Node2&#45;&gt;Node18</title>
<path fill="none" stroke="#63b8ff" d="M379,-403.59C379,-396.7 379,-387.1 379,-378.57"/>
<polygon fill="#63b8ff" stroke="#63b8ff" points="382.5,-378.3 379,-368.3 375.5,-378.3 382.5,-378.3"/>
</g>
<!-- Node4 -->
<g id="node4" class="node">
<title>Node4</title>
<g id="a_node4"><a xlink:href="../../d0/db8/_element_8h.html" target="_top" xlink:title=" ">
<polygon fill="white" stroke="#666666" points="247.5,-312 116.5,-312 116.5,-292 247.5,-292 247.5,-312"/>
<text text-anchor="middle" x="182" y="-299.2" font-family="Consolas" font-size="11.00">Element/Element.h</text>
</a>
</g>
</g>
<!-- Node3&#45;&gt;Node4 -->
<g id="edge3" class="edge">
<title>Node3&#45;&gt;Node4</title>
<path fill="none" stroke="#63b8ff" d="M182,-347.59C182,-340.7 182,-331.1 182,-322.57"/>
<polygon fill="#63b8ff" stroke="#63b8ff" points="185.5,-322.3 182,-312.3 178.5,-322.3 185.5,-322.3"/>
</g>
<!-- Node17 -->
<g id="node17" class="node">
<title>Node17</title>
<g id="a_node17"><a xlink:href="../../da/da5/_d_o_f_8h.html" target="_top" xlink:title=" ">
<polygon fill="white" stroke="#666666" points="98,-312 0,-312 0,-292 98,-292 98,-312"/>
<text text-anchor="middle" x="49" y="-299.2" font-family="Consolas" font-size="11.00">Domain/DOF.h</text>
</a>
</g>
</g>
<!-- Node3&#45;&gt;Node17 -->
<g id="edge17" class="edge">
<title>Node3&#45;&gt;Node17</title>
<path fill="none" stroke="#63b8ff" d="M159.74,-347.96C138.16,-339.2 105.21,-325.82 80.86,-315.93"/>
<polygon fill="#63b8ff" stroke="#63b8ff" points="81.92,-312.59 71.33,-312.07 79.28,-319.07 81.92,-312.59"/>
</g>
<!-- Node5 -->
<g id="node5" class="node">
<title>Node5</title>
<g id="a_node5"><a xlink:href="../../d9/d82/_element_base_8h.html" target="_top" xlink:title=" ">
<polygon fill="white" stroke="#666666" points="255,-256 97,-256 97,-236 255,-236 255,-256"/>
<text text-anchor="middle" x="176" y="-243.2" font-family="Consolas" font-size="11.00">Element/ElementBase.h</text>
</a>
</g>
</g>
<!-- Node4&#45;&gt;Node5 -->
<g id="edge4" class="edge">
<title>Node4&#45;&gt;Node5</title>
<path fill="none" stroke="#63b8ff" d="M180.95,-291.59C180.18,-284.63 179.1,-274.89 178.14,-266.29"/>
<polygon fill="#63b8ff" stroke="#63b8ff" points="181.62,-265.85 177.03,-256.3 174.66,-266.62 181.62,-265.85"/>
</g>
<!-- Node6 -->
<g id="node6" class="node">
<title>Node6</title>
<g id="a_node6"><a xlink:href="../../d2/d4a/_tag_8h.html" target="_top" xlink:title=" ">
<polygon fill="white" stroke="#666666" points="489,-132 391,-132 391,-112 489,-112 489,-132"/>
<text text-anchor="middle" x="440" y="-119.2" font-family="Consolas" font-size="11.00">Domain/Tag.h</text>
</a>
</g>
</g>
<!-- Node5&#45;&gt;Node6 -->
<g id="edge5" class="edge">
<title>Node5&#45;&gt;Node6</title>
<path fill="none" stroke="#63b8ff" d="M240.91,-235.99C292.52,-227.89 359.8,-215 383,-200 405.41,-185.52 422.11,-158.95 431.47,-141.13"/>
<polygon fill="#63b8ff" stroke="#63b8ff" points="434.67,-142.55 436,-132.04 428.41,-139.42 434.67,-142.55"/>
</g>
<!-- Node15 -->
<g id="node15" class="node">
<title>Node15</title>
<g id="a_node15"><a xlink:href="../../d9/dc0/vtk_base_8h.html" target="_top" xlink:title=" ">
<polygon fill="white" stroke="#666666" points="204,-200 46,-200 46,-168 204,-168 204,-200"/>
<text text-anchor="start" x="54" y="-187.2" font-family="Consolas" font-size="11.00">Element/Visualisation</text>
<text text-anchor="middle" x="125" y="-175.2" font-family="Consolas" font-size="11.00">/vtkBase.h</text>
</a>
</g>
</g>
<!-- Node5&#45;&gt;Node15 -->
<g id="edge14" class="edge">
<title>Node5&#45;&gt;Node15</title>
<path fill="none" stroke="#63b8ff" d="M168.25,-235.89C161.98,-228.51 152.87,-217.79 144.63,-208.09"/>
<polygon fill="#63b8ff" stroke="#63b8ff" points="147.13,-205.63 137.98,-200.28 141.79,-210.16 147.13,-205.63"/>
</g>
<!-- Node16 -->
<g id="node16" class="node">
<title>Node16</title>
<g id="a_node16"><a xlink:href="../../d6/d94/_mapping_d_o_f_8h.html" target="_top" xlink:title=" ">
<polygon fill="white" stroke="#666666" points="374,-194 222,-194 222,-174 374,-174 374,-194"/>
<text text-anchor="middle" x="298" y="-181.2" font-family="Consolas" font-size="11.00">Element/MappingDOF.h</text>
</a>
</g>
</g>
<!-- Node5&#45;&gt;Node16 -->
<g id="edge15" class="edge">
<title>Node5&#45;&gt;Node16</title>
<path fill="none" stroke="#63b8ff" d="M194.53,-235.89C214.8,-225.92 247.49,-209.84 270.7,-198.43"/>
<polygon fill="#63b8ff" stroke="#63b8ff" points="272.27,-201.56 279.7,-194 269.18,-195.27 272.27,-201.56"/>
</g>
<!-- Node7 -->
<g id="node7" class="node">
<title>Node7</title>
<g id="a_node7"><a xlink:href="../../d8/d8f/suan_pan_8h.html" target="_top" xlink:title=" ">
<polygon fill="white" stroke="#666666" points="478.5,-76 401.5,-76 401.5,-56 478.5,-56 478.5,-76"/>
<text text-anchor="middle" x="440" y="-63.2" font-family="Consolas" font-size="11.00">suanPan.h</text>
</a>
</g>
</g>
<!-- Node6&#45;&gt;Node7 -->
<g id="edge6" class="edge">
<title>Node6&#45;&gt;Node7</title>
<path fill="none" stroke="#63b8ff" d="M440,-111.59C440,-104.7 440,-95.1 440,-86.57"/>
<polygon fill="#63b8ff" stroke="#63b8ff" points="443.5,-86.3 440,-76.3 436.5,-86.3 443.5,-86.3"/>
</g>
<!-- Node8 -->
<g id="node8" class="node">
<title>Node8</title>
<g id="a_node8"><a xlink:title=" ">
<polygon fill="#e0e0e0" stroke="#999999" points="689.5,-20 618.5,-20 618.5,0 689.5,0 689.5,-20"/>
<text text-anchor="middle" x="654" y="-7.2" font-family="Consolas" font-size="11.00">iostream</text>
</a>
</g>
</g>
<!-- Node7&#45;&gt;Node8 -->
<g id="edge7" class="edge">
<title>Node7&#45;&gt;Node8</title>
<path fill="none" stroke="#63b8ff" d="M475.82,-55.96C512.27,-46.76 568.89,-32.48 608.49,-22.48"/>
<polygon fill="#63b8ff" stroke="#63b8ff" points="609.58,-25.82 618.42,-19.98 607.87,-19.03 609.58,-25.82"/>
</g>
<!-- Node9 -->
<g id="node9" class="node">
<title>Node9</title>
<g id="a_node9"><a xlink:title=" ">
<polygon fill="#e0e0e0" stroke="#999999" points="893.5,-20 748.5,-20 748.5,0 893.5,0 893.5,-20"/>
<text text-anchor="middle" x="821" y="-7.2" font-family="Consolas" font-size="11.00">armadillo/armadillo</text>
</a>
</g>
</g>
<!-- Node7&#45;&gt;Node9 -->
<g id="edge8" class="edge">
<title>Node7&#45;&gt;Node9</title>
<path fill="none" stroke="#63b8ff" d="M478.74,-57.56C481.87,-57.01 484.99,-56.49 488,-56 573.05,-42.29 670.78,-29.42 738.27,-20.99"/>
<polygon fill="#63b8ff" stroke="#63b8ff" points="738.92,-24.43 748.41,-19.73 738.06,-17.49 738.92,-24.43"/>
</g>
<!-- Node10 -->
<g id="node10" class="node">
<title>Node10</title>
<g id="a_node10"><a xlink:title=" ">
<polygon fill="#e0e0e0" stroke="#999999" points="245,-20 161,-20 161,0 245,0 245,-20"/>
<text text-anchor="middle" x="203" y="-7.2" font-family="Consolas" font-size="11.00">filesystem</text>
</a>
</g>
</g>
<!-- Node7&#45;&gt;Node10 -->
<g id="edge9" class="edge">
<title>Node7&#45;&gt;Node10</title>
<path fill="none" stroke="#63b8ff" d="M401.39,-56.2C360.87,-46.97 297.02,-32.42 252.75,-22.33"/>
<polygon fill="#63b8ff" stroke="#63b8ff" points="253.3,-18.87 242.78,-20.06 251.75,-25.7 253.3,-18.87"/>
</g>
<!-- Node11 -->
<g id="node11" class="node">
<title>Node11</title>
<g id="a_node11"><a xlink:title=" ">
<polygon fill="#e0e0e0" stroke="#999999" points="354.5,-20 263.5,-20 263.5,0 354.5,0 354.5,-20"/>
<text text-anchor="middle" x="309" y="-7.2" font-family="Consolas" font-size="11.00">fmt/color.h</text>
</a>
</g>
</g>
<!-- Node7&#45;&gt;Node11 -->
<g id="edge10" class="edge">
<title>Node7&#45;&gt;Node11</title>
<path fill="none" stroke="#63b8ff" d="M418.07,-55.96C396.82,-47.2 364.36,-33.82 340.38,-23.93"/>
<polygon fill="#63b8ff" stroke="#63b8ff" points="341.58,-20.64 331,-20.07 338.91,-27.11 341.58,-20.64"/>
</g>
<!-- Node12 -->
<g id="node12" class="node">
<title>Node12</title>
<g id="a_node12"><a xlink:title=" ">
<polygon fill="#e0e0e0" stroke="#999999" points="423,-20 373,-20 373,0 423,0 423,-20"/>
<text text-anchor="middle" x="398" y="-7.2" font-family="Consolas" font-size="11.00">mutex</text>
</a>
</g>
</g>
<!-- Node7&#45;&gt;Node12 -->
<g id="edge11" class="edge">
<title>Node7&#45;&gt;Node12</title>
<path fill="none" stroke="#63b8ff" d="M432.68,-55.59C426.84,-48.08 418.5,-37.35 411.46,-28.3"/>
<polygon fill="#63b8ff" stroke="#63b8ff" points="414.13,-26.04 405.23,-20.3 408.61,-30.34 414.13,-26.04"/>
</g>
<!-- Node13 -->
<g id="node13" class="node">
<title>Node13</title>
<g id="a_node13"><a xlink:title=" ">
<polygon fill="#e0e0e0" stroke="#999999" points="525,-20 441,-20 441,0 525,0 525,-20"/>
<text text-anchor="middle" x="483" y="-7.2" font-family="Consolas" font-size="11.00">functional</text>
</a>
</g>
</g>
<!-- Node7&#45;&gt;Node13 -->
<g id="edge12" class="edge">
<title>Node7&#45;&gt;Node13</title>
<path fill="none" stroke="#63b8ff" d="M447.49,-55.59C453.47,-48.08 462.01,-37.35 469.22,-28.3"/>
<polygon fill="#63b8ff" stroke="#63b8ff" points="472.1,-30.3 475.6,-20.3 466.63,-25.94 472.1,-30.3"/>
</g>
<!-- Node14 -->
<g id="node14" class="node">
<title>Node14</title>
<g id="a_node14"><a xlink:title=" ">
<polygon fill="#e0e0e0" stroke="#999999" points="600.5,-20 543.5,-20 543.5,0 600.5,0 600.5,-20"/>
<text text-anchor="middle" x="572" y="-7.2" font-family="Consolas" font-size="11.00">memory</text>
</a>
</g>
</g>
<!-- Node7&#45;&gt;Node14 -->
<g id="edge13" class="edge">
<title>Node7&#45;&gt;Node14</title>
<path fill="none" stroke="#63b8ff" d="M462.09,-55.96C483.51,-47.2 516.21,-33.82 540.38,-23.93"/>
<polygon fill="#63b8ff" stroke="#63b8ff" points="541.9,-27.09 549.83,-20.07 539.25,-20.61 541.9,-27.09"/>
</g>
<!-- Node16&#45;&gt;Node6 -->
<g id="edge16" class="edge">
<title>Node16&#45;&gt;Node6</title>
<path fill="none" stroke="#63b8ff" d="M319.57,-173.89C343.48,-163.79 382.23,-147.41 409.3,-135.97"/>
<polygon fill="#63b8ff" stroke="#63b8ff" points="410.85,-139.12 418.7,-132 408.12,-132.67 410.85,-139.12"/>
</g>
<!-- Node19 -->
<g id="node19" class="node">
<title>Node19</title>
<g id="a_node19"><a xlink:href="../../d0/d1c/_b2_d_l_8h.html" target="_top" xlink:title=" ">
<polygon fill="white" stroke="#666666" points="407.5,-312 350.5,-312 350.5,-292 407.5,-292 407.5,-312"/>
<text text-anchor="middle" x="379" y="-299.2" font-family="Consolas" font-size="11.00">B2DL.h</text>
</a>
</g>
</g>
<!-- Node18&#45;&gt;Node19 -->
<g id="edge19" class="edge">
<title>Node18&#45;&gt;Node19</title>
<path fill="none" stroke="#63b8ff" d="M379,-347.59C379,-340.7 379,-331.1 379,-322.57"/>
<polygon fill="#63b8ff" stroke="#63b8ff" points="382.5,-322.3 379,-312.3 375.5,-322.3 382.5,-322.3"/>
</g>
<!-- Node20 -->
<g id="node20" class="node">
<title>Node20</title>
<g id="a_node20"><a xlink:href="../../dc/db8/_orientation_8h.html" target="_top" xlink:title=" ">
<polygon fill="white" stroke="#666666" points="485,-256 273,-256 273,-236 485,-236 485,-256"/>
<text text-anchor="middle" x="379" y="-243.2" font-family="Consolas" font-size="11.00">Element/Utility/Orientation.h</text>
</a>
</g>
</g>
<!-- Node19&#45;&gt;Node20 -->
<g id="edge20" class="edge">
<title>Node19&#45;&gt;Node20</title>
<path fill="none" stroke="#63b8ff" d="M379,-291.59C379,-284.7 379,-275.1 379,-266.57"/>
<polygon fill="#63b8ff" stroke="#63b8ff" points="382.5,-266.3 379,-256.3 375.5,-266.3 382.5,-266.3"/>
</g>
<!-- Node20&#45;&gt;Node6 -->
<g id="edge21" class="edge">
<title>Node20&#45;&gt;Node6</title>
<path fill="none" stroke="#63b8ff" d="M388.42,-235.79C396.71,-227.21 408.6,-213.71 416,-200 425.95,-181.58 432.46,-158.41 436.16,-142.33"/>
<polygon fill="#63b8ff" stroke="#63b8ff" points="439.6,-142.98 438.28,-132.47 432.76,-141.51 439.6,-142.98"/>
</g>
<!-- Node21&#45;&gt;Node6 -->
<g id="edge24" class="edge">
<title>Node21&#45;&gt;Node6</title>
<path fill="none" stroke="#63b8ff" d="M612.17,-173.89C576.94,-163.47 519.16,-146.4 480.37,-134.93"/>
<polygon fill="#63b8ff" stroke="#63b8ff" points="481.04,-131.48 470.46,-132 479.05,-138.19 481.04,-131.48"/>
</g>
<!-- Node22 -->
<g id="node22" class="node">
<title>Node22</title>
<g id="a_node22"><a xlink:title=" ">
<polygon fill="#e0e0e0" stroke="#999999" points="580.5,-132 523.5,-132 523.5,-112 580.5,-112 580.5,-132"/>
<text text-anchor="middle" x="552" y="-119.2" font-family="Consolas" font-size="11.00">future</text>
</a>
</g>
</g>
<!-- Node21&#45;&gt;Node22 -->
<g id="edge23" class="edge">
<title>Node21&#45;&gt;Node22</title>
<path fill="none" stroke="#63b8ff" d="M629.18,-173.89C614.66,-164.32 591.61,-149.12 574.47,-137.82"/>
<polygon fill="#63b8ff" stroke="#63b8ff" points="575.93,-134.58 565.65,-132 572.07,-140.43 575.93,-134.58"/>
</g>
<!-- Node23 -->
<g id="node23" class="node">
<title>Node23</title>
<g id="a_node23"><a xlink:href="../../d4/ddd/container_8h.html" target="_top" xlink:title=" ">
<polygon fill="white" stroke="#666666" points="743.5,-132 598.5,-132 598.5,-112 743.5,-112 743.5,-132"/>
<text text-anchor="middle" x="671" y="-119.2" font-family="Consolas" font-size="11.00">Toolbox/container.h</text>
</a>
</g>
</g>
<!-- Node21&#45;&gt;Node23 -->
<g id="edge25" class="edge">
<title>Node21&#45;&gt;Node23</title>
<path fill="none" stroke="#63b8ff" d="M647.25,-173.89C651.24,-165.34 657.32,-152.31 662.33,-141.57"/>
<polygon fill="#63b8ff" stroke="#63b8ff" points="665.65,-142.74 666.71,-132.2 659.31,-139.78 665.65,-142.74"/>
</g>
<!-- Node23&#45;&gt;Node7 -->
<g id="edge26" class="edge">
<title>Node23&#45;&gt;Node7</title>
<path fill="none" stroke="#63b8ff" d="M632.34,-111.96C592.86,-102.73 531.47,-88.38 488.7,-78.38"/>
<polygon fill="#63b8ff" stroke="#63b8ff" points="489.32,-74.94 478.79,-76.07 487.73,-81.75 489.32,-74.94"/>
</g>
<!-- Node24 -->
<g id="node24" class="node">
<title>Node24</title>
<g id="a_node24"><a xlink:title=" ">
<polygon fill="#e0e0e0" stroke="#999999" points="778.5,-76 741.5,-76 741.5,-56 778.5,-56 778.5,-76"/>
<text text-anchor="middle" x="760" y="-63.2" font-family="Consolas" font-size="11.00">set</text>
</a>
</g>
</g>
<!-- Node23&#45;&gt;Node24 -->
<g id="edge27" class="edge">
<title>Node23&#45;&gt;Node24</title>
<path fill="none" stroke="#63b8ff" d="M686.1,-111.84C699.86,-103.49 720.42,-91.02 736.36,-81.34"/>
<polygon fill="#63b8ff" stroke="#63b8ff" points="738.39,-84.2 745.13,-76.03 734.76,-78.22 738.39,-84.2"/>
</g>
<!-- Node25 -->
<g id="node25" class="node">
<title>Node25</title>
<g id="a_node25"><a xlink:title=" ">
<polygon fill="#e0e0e0" stroke="#999999" points="833.5,-76 796.5,-76 796.5,-56 833.5,-56 833.5,-76"/>
<text text-anchor="middle" x="815" y="-63.2" font-family="Consolas" font-size="11.00">map</text>
</a>
</g>
</g>
<!-- Node23&#45;&gt;Node25 -->
<g id="edge28" class="edge">
<title>Node23&#45;&gt;Node25</title>
<path fill="none" stroke="#63b8ff" d="M695.1,-111.96C720.38,-102.48 760.06,-87.6 786.78,-77.58"/>
<polygon fill="#63b8ff" stroke="#63b8ff" points="788.19,-80.79 796.33,-74 785.74,-74.24 788.19,-80.79"/>
</g>
<!-- Node26 -->
<g id="node26" class="node">
<title>Node26</title>
<g id="a_node26"><a xlink:title=" ">
<polygon fill="#e0e0e0" stroke="#999999" points="601,-76 497,-76 497,-56 601,-56 601,-76"/>
<text text-anchor="middle" x="549" y="-63.2" font-family="Consolas" font-size="11.00">unordered_set</text>
</a>
</g>
</g>
<!-- Node23&#45;&gt;Node26 -->
<g id="edge29" class="edge">
<title>Node23&#45;&gt;Node26</title>
<path fill="none" stroke="#63b8ff" d="M650.58,-111.96C630.96,-103.28 601.1,-90.06 578.82,-80.2"/>
<polygon fill="#63b8ff" stroke="#63b8ff" points="580.05,-76.91 569.49,-76.07 577.21,-83.32 580.05,-76.91"/>
</g>
<!-- Node27 -->
<g id="node27" class="node">
<title>Node27</title>
<g id="a_node27"><a xlink:title=" ">
<polygon fill="#e0e0e0" stroke="#999999" points="723,-76 619,-76 619,-56 723,-56 723,-76"/>
<text text-anchor="middle" x="671" y="-63.2" font-family="Consolas" font-size="11.00">unordered_map</text>
</a>
</g>
</g>
<!-- Node23&#45;&gt;Node27 -->
<g id="edge30" class="edge">
<title>Node23&#45;&gt;Node27</title>
<path fill="none" stroke="#63b8ff" d="M671,-111.59C671,-104.7 671,-95.1 671,-86.57"/>
<polygon fill="#63b8ff" stroke="#63b8ff" points="674.5,-86.3 671,-76.3 667.5,-86.3 674.5,-86.3"/>
</g>
<!-- Node28&#45;&gt;Node6 -->
<g id="edge32" class="edge">
<title>Node28&#45;&gt;Node6</title>
<path fill="none" stroke="#63b8ff" d="M591.34,-403.99C571.28,-397.2 547.28,-385.91 532,-368 512.46,-345.1 513,-333.1 513,-303 513,-303 513,-303 513,-245 513,-202.13 479.4,-161.28 457.79,-139.44"/>
<polygon fill="#63b8ff" stroke="#63b8ff" points="460.06,-136.76 450.46,-132.28 455.17,-141.77 460.06,-136.76"/>
</g>
<!-- Node29 -->
<g id="node29" class="node">
<title>Node29</title>
<g id="a_node29"><a xlink:href="../../df/dec/_parameter_type_8h.html" target="_top" xlink:title=" ">
<polygon fill="white" stroke="#666666" points="713,-368 541,-368 541,-348 713,-348 713,-368"/>
<text text-anchor="middle" x="627" y="-355.2" font-family="Consolas" font-size="11.00">Section/ParameterType.h</text>
</a>
</g>
</g>
<!-- Node28&#45;&gt;Node29 -->
<g id="edge33" class="edge">
<title>Node28&#45;&gt;Node29</title>
<path fill="none" stroke="#63b8ff" d="M627,-403.59C627,-396.7 627,-387.1 627,-378.57"/>
<polygon fill="#63b8ff" stroke="#63b8ff" points="630.5,-378.3 627,-368.3 623.5,-378.3 630.5,-378.3"/>
</g>
<!-- Node30&#45;&gt;Node9 -->
<g id="edge35" class="edge">
<title>Node30&#45;&gt;Node9</title>
<path fill="none" stroke="#63b8ff" d="M862.21,-235.74C862.61,-207.92 862.06,-122.92 843,-56 840.36,-46.72 835.88,-37.04 831.64,-29.04"/>
<polygon fill="#63b8ff" stroke="#63b8ff" points="834.68,-27.29 826.75,-20.26 828.56,-30.7 834.68,-27.29"/>
</g>
</g>
</svg>
