<?xml version="1.0" encoding="UTF-8" standalone="no"?>
<!DOCTYPE svg PUBLIC "-//W3C//DTD SVG 1.1//EN"
 "http://www.w3.org/Graphics/SVG/1.1/DTD/svg11.dtd">
<!-- Generated by graphviz version 2.43.0 (0)
 -->
<!-- Title: Load/ReferenceForce.cpp Pages: 1 -->
<!--zoomable 420 -->

<svg id="main" version="1.1" xmlns="http://www.w3.org/2000/svg" xmlns:xlink="http://www.w3.org/1999/xlink" xml:space="preserve" onload="init(evt)">
<style type="text/css"><![CDATA[
.node, .edge {opacity: 0.7;}
.node.selected, .edge.selected {opacity: 1;}
.edge:hover path { stroke: red; }
.edge:hover polygon { stroke: red; fill: red; }
]]></style>

<defs>
  <circle id="rim" cx="0" cy="0" r="7"/>
  <circle id="rim2" cx="0" cy="0" r="3.5"/>
  <g id="zoomPlus">
    <use xlink:href="#rim" fill="#404040"><set attributeName="fill" to="#808080" begin="zoomplus.mouseover" end="zoomplus.mouseout"/></use>
    <path d="M-4,0h8M0,-4v8" fill="none" stroke="white" stroke-width="1.5" pointer-events="none"/>
  </g>
  <g id="zoomMin">
    <use xlink:href="#rim" fill="#404040"><set attributeName="fill" to="#808080" begin="zoomminus.mouseover" end="zoomminus.mouseout"/></use>
    <path d="M-4,0h8" fill="none" stroke="white" stroke-width="1.5" pointer-events="none"/>
  </g>
  <g id="arrowUp" transform="translate(30 24)">
    <use xlink:href="#rim"/>
    <path pointer-events="none" fill="none" stroke="white" stroke-width="1.5" d="M0,-3.0v7 M-2.5,-0.5L0,-3.0L2.5,-0.5"/>
  </g>
  <g id="arrowRight" transform="rotate(90) translate(36 -43)">
    <use xlink:href="#rim"/>
    <path pointer-events="none" fill="none" stroke="white" stroke-width="1.5" d="M0,-3.0v7 M-2.5,-0.5L0,-3.0L2.5,-0.5"/>
  </g>
  <g id="arrowDown" transform="rotate(180) translate(-30 -48)">
    <use xlink:href="#rim"/>
    <path pointer-events="none" fill="none" stroke="white" stroke-width="1.5" d="M0,-3.0v7 M-2.5,-0.5L0,-3.0L2.5,-0.5"/>
  </g>
  <g id="arrowLeft" transform="rotate(270) translate(-36 17)">
    <use xlink:href="#rim"/>
    <path pointer-events="none" fill="none" stroke="white" stroke-width="1.5" d="M0,-3.0v7 M-2.5,-0.5L0,-3.0L2.5,-0.5"/>
  </g>
  <g id="resetDef">
    <use xlink:href="#rim2" fill="#404040"><set attributeName="fill" to="#808080" begin="reset.mouseover" end="reset.mouseout"/></use>
  </g>
</defs>
<script type="application/ecmascript">
var viewWidth = 979;
var viewHeight = 420;
var sectionId = 'dynsection-0';
</script>
<script type="application/ecmascript" xlink:href="../../svg.min.js"/>
<svg id="graph" class="graph">
<g id="viewport">
<title>Load/ReferenceForce.cpp</title>
<!-- Node1 -->
<g id="Node000001" class="node">
<title>Node1</title>
<g id="a_Node000001"><a xlink:title=" ">
<polygon fill="#999999" stroke="#666666" points="577,-412 405,-412 405,-392 577,-392 577,-412"/>
<text text-anchor="middle" x="491" y="-399.2" font-family="Consolas" font-size="11.00">Load/ReferenceForce.cpp</text>
</a>
</g>
</g>
<!-- Node2 -->
<g id="Node000002" class="node">
<title>Node2</title>
<g id="a_Node000002"><a xlink:href="../../dd/d64/_reference_force_8h.html" target="_top" xlink:title=" ">
<polygon fill="white" stroke="#666666" points="452.5,-356 327.5,-356 327.5,-336 452.5,-336 452.5,-356"/>
<text text-anchor="middle" x="390" y="-343.2" font-family="Consolas" font-size="11.00">ReferenceForce.h</text>
</a>
</g>
</g>
<!-- Node1&#45;&gt;Node2 -->
<g id="edge1_Node000001_Node000002" class="edge">
<title>Node1&#45;&gt;Node2</title>
<g id="a_edge1_Node000001_Node000002"><a xlink:title=" ">
<path fill="none" stroke="#63b8ff" d="M473.87,-391.84C457.96,-383.33 434.04,-370.55 415.82,-360.8"/>
<polygon fill="#63b8ff" stroke="#63b8ff" points="417.35,-357.65 406.88,-356.03 414.05,-363.83 417.35,-357.65"/>
</a>
</g>
</g>
<!-- Node17 -->
<g id="Node000017" class="node">
<title>Node17</title>
<g id="a_Node000017"><a xlink:href="../../dc/df2/_domain_base_8h.html" target="_top" xlink:title=" ">
<polygon fill="white" stroke="#666666" points="563.5,-188 418.5,-188 418.5,-168 563.5,-168 563.5,-188"/>
<text text-anchor="middle" x="491" y="-175.2" font-family="Consolas" font-size="11.00">Domain/DomainBase.h</text>
</a>
</g>
</g>
<!-- Node1&#45;&gt;Node17 -->
<g id="edge18_Node000001_Node000017" class="edge">
<title>Node1&#45;&gt;Node17</title>
<g id="a_edge18_Node000001_Node000017"><a xlink:title=" ">
<path fill="none" stroke="#63b8ff" d="M491,-391.74C491,-358.46 491,-244.39 491,-198.42"/>
<polygon fill="#63b8ff" stroke="#63b8ff" points="494.5,-198.3 491,-188.3 487.5,-198.3 494.5,-198.3"/>
</a>
</g>
</g>
<!-- Node24 -->
<g id="Node000024" class="node">
<title>Node24</title>
<g id="a_Node000024"><a xlink:href="../../db/d65/_factory_8hpp.html" target="_top" xlink:title=" ">
<polygon fill="white" stroke="#666666" points="720,-188 582,-188 582,-168 720,-168 720,-188"/>
<text text-anchor="middle" x="651" y="-175.2" font-family="Consolas" font-size="11.00">Domain/Factory.hpp</text>
</a>
</g>
</g>
<!-- Node1&#45;&gt;Node24 -->
<g id="edge27_Node000001_Node000024" class="edge">
<title>Node1&#45;&gt;Node24</title>
<g id="a_edge27_Node000001_Node000024"><a xlink:title=" ">
<path fill="none" stroke="#63b8ff" d="M497.67,-391.74C522.02,-357.96 606.33,-240.99 638.44,-196.42"/>
<polygon fill="#63b8ff" stroke="#63b8ff" points="641.29,-198.45 644.3,-188.3 635.61,-194.36 641.29,-198.45"/>
</a>
</g>
</g>
<!-- Node3 -->
<g id="Node000003" class="node">
<title>Node3</title>
<g id="a_Node000003"><a xlink:href="../../de/d2b/_load_8h.html" target="_top" xlink:title=" ">
<polygon fill="white" stroke="#666666" points="415.5,-300 324.5,-300 324.5,-280 415.5,-280 415.5,-300"/>
<text text-anchor="middle" x="370" y="-287.2" font-family="Consolas" font-size="11.00">Load/Load.h</text>
</a>
</g>
</g>
<!-- Node2&#45;&gt;Node3 -->
<g id="edge2_Node000002_Node000003" class="edge">
<title>Node2&#45;&gt;Node3</title>
<g id="a_edge2_Node000002_Node000003"><a xlink:title=" ">
<path fill="none" stroke="#63b8ff" d="M386.52,-335.59C383.88,-328.47 380.17,-318.45 376.93,-309.72"/>
<polygon fill="#63b8ff" stroke="#63b8ff" points="380.2,-308.46 373.44,-300.3 373.63,-310.89 380.2,-308.46"/>
</a>
</g>
</g>
<!-- Node4 -->
<g id="Node000004" class="node">
<title>Node4</title>
<g id="a_Node000004"><a xlink:href="../../d1/d78/_conditional_modifier_8h.html" target="_top" xlink:title=" ">
<polygon fill="white" stroke="#666666" points="435,-244 229,-244 229,-224 435,-224 435,-244"/>
<text text-anchor="middle" x="332" y="-231.2" font-family="Consolas" font-size="11.00">Domain/ConditionalModifier.h</text>
</a>
</g>
</g>
<!-- Node3&#45;&gt;Node4 -->
<g id="edge3_Node000003_Node000004" class="edge">
<title>Node3&#45;&gt;Node4</title>
<g id="a_edge3_Node000003_Node000004"><a xlink:title=" ">
<path fill="none" stroke="#63b8ff" d="M363.38,-279.59C358.15,-272.16 350.7,-261.58 344.37,-252.58"/>
<polygon fill="#63b8ff" stroke="#63b8ff" points="347.16,-250.46 338.54,-244.3 341.44,-254.49 347.16,-250.46"/>
</a>
</g>
</g>
<!-- Node5 -->
<g id="Node000005" class="node">
<title>Node5</title>
<g id="a_Node000005"><a xlink:href="../../d2/d4a/_tag_8h.html" target="_top" xlink:title=" ">
<polygon fill="white" stroke="#666666" points="333,-132 235,-132 235,-112 333,-112 333,-132"/>
<text text-anchor="middle" x="284" y="-119.2" font-family="Consolas" font-size="11.00">Domain/Tag.h</text>
</a>
</g>
</g>
<!-- Node4&#45;&gt;Node5 -->
<g id="edge4_Node000004_Node000005" class="edge">
<title>Node4&#45;&gt;Node5</title>
<g id="a_edge4_Node000004_Node000005"><a xlink:title=" ">
<path fill="none" stroke="#63b8ff" d="M254.98,-223.91C233.38,-217.4 212.21,-206.42 199,-188 182.8,-165.42 214.56,-147.03 243.75,-135.65"/>
<polygon fill="#63b8ff" stroke="#63b8ff" points="245.31,-138.81 253.49,-132.06 242.89,-132.24 245.31,-138.81"/>
</a>
</g>
</g>
<!-- Node15 -->
<g id="Node000015" class="node">
<title>Node15</title>
<g id="a_Node000015"><a xlink:href="../../d1/ded/_amplitude_8h.html" target="_top" xlink:title=" ">
<polygon fill="white" stroke="#666666" points="400,-188 208,-188 208,-168 400,-168 400,-188"/>
<text text-anchor="middle" x="304" y="-175.2" font-family="Consolas" font-size="11.00">Load/Amplitude/Amplitude.h</text>
</a>
</g>
</g>
<!-- Node4&#45;&gt;Node15 -->
<g id="edge14_Node000004_Node000015" class="edge">
<title>Node4&#45;&gt;Node15</title>
<g id="a_edge14_Node000004_Node000015"><a xlink:title=" ">
<path fill="none" stroke="#63b8ff" d="M327.12,-223.59C323.39,-216.39 318.12,-206.23 313.56,-197.43"/>
<polygon fill="#63b8ff" stroke="#63b8ff" points="316.53,-195.56 308.82,-188.3 310.32,-198.79 316.53,-195.56"/>
</a>
</g>
</g>
<!-- Node16 -->
<g id="Node000016" class="node">
<title>Node16</title>
<g id="a_Node000016"><a xlink:href="../../d4/da0/_resource_holder_8h.html" target="_top" xlink:title=" ">
<polygon fill="white" stroke="#666666" points="970.5,-188 791.5,-188 791.5,-168 970.5,-168 970.5,-188"/>
<text text-anchor="middle" x="881" y="-175.2" font-family="Consolas" font-size="11.00">Toolbox/ResourceHolder.h</text>
</a>
</g>
</g>
<!-- Node4&#45;&gt;Node16 -->
<g id="edge16_Node000004_Node000016" class="edge">
<title>Node4&#45;&gt;Node16</title>
<g id="a_edge16_Node000004_Node000016"><a xlink:title=" ">
<path fill="none" stroke="#63b8ff" d="M423.58,-223.99C522.49,-214.26 679.54,-198.82 781.45,-188.79"/>
<polygon fill="#63b8ff" stroke="#63b8ff" points="781.83,-192.27 791.44,-187.81 781.14,-185.31 781.83,-192.27"/>
</a>
</g>
</g>
<!-- Node6 -->
<g id="Node000006" class="node">
<title>Node6</title>
<g id="a_Node000006"><a xlink:href="../../d8/d8f/suan_pan_8h.html" target="_top" xlink:title=" ">
<polygon fill="white" stroke="#666666" points="499.5,-76 422.5,-76 422.5,-56 499.5,-56 499.5,-76"/>
<text text-anchor="middle" x="461" y="-63.2" font-family="Consolas" font-size="11.00">suanPan.h</text>
</a>
</g>
</g>
<!-- Node5&#45;&gt;Node6 -->
<g id="edge5_Node000005_Node000006" class="edge">
<title>Node5&#45;&gt;Node6</title>
<g id="a_edge5_Node000005_Node000006"><a xlink:title=" ">
<path fill="none" stroke="#63b8ff" d="M313.63,-111.96C343.24,-102.93 388.94,-88.99 421.59,-79.02"/>
<polygon fill="#63b8ff" stroke="#63b8ff" points="422.73,-82.33 431.28,-76.07 420.69,-75.64 422.73,-82.33"/>
</a>
</g>
</g>
<!-- Node7 -->
<g id="Node000007" class="node">
<title>Node7</title>
<g id="a_Node000007"><a xlink:title=" ">
<polygon fill="#e0e0e0" stroke="#999999" points="677.5,-20 606.5,-20 606.5,0 677.5,0 677.5,-20"/>
<text text-anchor="middle" x="642" y="-7.2" font-family="Consolas" font-size="11.00">iostream</text>
</a>
</g>
</g>
<!-- Node6&#45;&gt;Node7 -->
<g id="edge6_Node000006_Node000007" class="edge">
<title>Node6&#45;&gt;Node7</title>
<g id="a_edge6_Node000006_Node000007"><a xlink:title=" ">
<path fill="none" stroke="#63b8ff" d="M491.3,-55.96C521.57,-46.93 568.31,-32.99 601.7,-23.02"/>
<polygon fill="#63b8ff" stroke="#63b8ff" points="603.02,-26.28 611.61,-20.07 601.02,-19.57 603.02,-26.28"/>
</a>
</g>
</g>
<!-- Node8 -->
<g id="Node000008" class="node">
<title>Node8</title>
<g id="a_Node000008"><a xlink:title=" ">
<polygon fill="#e0e0e0" stroke="#999999" points="840.5,-20 695.5,-20 695.5,0 840.5,0 840.5,-20"/>
<text text-anchor="middle" x="768" y="-7.2" font-family="Consolas" font-size="11.00">armadillo/armadillo</text>
</a>
</g>
</g>
<!-- Node6&#45;&gt;Node8 -->
<g id="edge7_Node000006_Node000008" class="edge">
<title>Node6&#45;&gt;Node8</title>
<g id="a_edge7_Node000006_Node000008"><a xlink:title=" ">
<path fill="none" stroke="#63b8ff" d="M499.5,-57.73C502.72,-57.14 505.91,-56.56 509,-56 575.74,-43.95 652.26,-30.72 704.73,-21.75"/>
<polygon fill="#63b8ff" stroke="#63b8ff" points="705.62,-25.15 714.89,-20.02 704.44,-18.25 705.62,-25.15"/>
</a>
</g>
</g>
<!-- Node9 -->
<g id="Node000009" class="node">
<title>Node9</title>
<g id="a_Node000009"><a xlink:title=" ">
<polygon fill="#e0e0e0" stroke="#999999" points="206,-20 0,-20 0,0 206,0 206,-20"/>
<text text-anchor="middle" x="103" y="-7.2" font-family="Consolas" font-size="11.00">armadillo/ext_def_lapack.hpp</text>
</a>
</g>
</g>
<!-- Node6&#45;&gt;Node9 -->
<g id="edge8_Node000006_Node000009" class="edge">
<title>Node6&#45;&gt;Node9</title>
<g id="a_edge8_Node000006_Node000009"><a xlink:title=" ">
<path fill="none" stroke="#63b8ff" d="M422.35,-59.17C362.77,-50.18 247.61,-32.81 173.09,-21.57"/>
<polygon fill="#63b8ff" stroke="#63b8ff" points="173.26,-18.06 162.85,-20.03 172.22,-24.98 173.26,-18.06"/>
</a>
</g>
</g>
<!-- Node10 -->
<g id="Node000010" class="node">
<title>Node10</title>
<g id="a_Node000010"><a xlink:title=" ">
<polygon fill="#e0e0e0" stroke="#999999" points="308,-20 224,-20 224,0 308,0 308,-20"/>
<text text-anchor="middle" x="266" y="-7.2" font-family="Consolas" font-size="11.00">filesystem</text>
</a>
</g>
</g>
<!-- Node6&#45;&gt;Node10 -->
<g id="edge9_Node000006_Node000010" class="edge">
<title>Node6&#45;&gt;Node10</title>
<g id="a_edge9_Node000006_Node000010"><a xlink:title=" ">
<path fill="none" stroke="#63b8ff" d="M428.36,-55.96C395.46,-46.85 344.52,-32.74 308.49,-22.77"/>
<polygon fill="#63b8ff" stroke="#63b8ff" points="309.32,-19.36 298.75,-20.07 307.45,-26.11 309.32,-19.36"/>
</a>
</g>
</g>
<!-- Node11 -->
<g id="Node000011" class="node">
<title>Node11</title>
<g id="a_Node000011"><a xlink:title=" ">
<polygon fill="#e0e0e0" stroke="#999999" points="417.5,-20 326.5,-20 326.5,0 417.5,0 417.5,-20"/>
<text text-anchor="middle" x="372" y="-7.2" font-family="Consolas" font-size="11.00">fmt/color.h</text>
</a>
</g>
</g>
<!-- Node6&#45;&gt;Node11 -->
<g id="edge10_Node000006_Node000011" class="edge">
<title>Node6&#45;&gt;Node11</title>
<g id="a_edge10_Node000006_Node000011"><a xlink:title=" ">
<path fill="none" stroke="#63b8ff" d="M445.9,-55.84C432.14,-47.49 411.58,-35.02 395.64,-25.34"/>
<polygon fill="#63b8ff" stroke="#63b8ff" points="397.24,-22.22 386.87,-20.03 393.61,-28.2 397.24,-22.22"/>
</a>
</g>
</g>
<!-- Node12 -->
<g id="Node000012" class="node">
<title>Node12</title>
<g id="a_Node000012"><a xlink:title=" ">
<polygon fill="#e0e0e0" stroke="#999999" points="486,-20 436,-20 436,0 486,0 486,-20"/>
<text text-anchor="middle" x="461" y="-7.2" font-family="Consolas" font-size="11.00">mutex</text>
</a>
</g>
</g>
<!-- Node6&#45;&gt;Node12 -->
<g id="edge11_Node000006_Node000012" class="edge">
<title>Node6&#45;&gt;Node12</title>
<g id="a_edge11_Node000006_Node000012"><a xlink:title=" ">
<path fill="none" stroke="#63b8ff" d="M461,-55.59C461,-48.7 461,-39.1 461,-30.57"/>
<polygon fill="#63b8ff" stroke="#63b8ff" points="464.5,-30.3 461,-20.3 457.5,-30.3 464.5,-30.3"/>
</a>
</g>
</g>
<!-- Node13 -->
<g id="Node000013" class="node">
<title>Node13</title>
<g id="a_Node000013"><a xlink:title=" ">
<polygon fill="#e0e0e0" stroke="#999999" points="588,-20 504,-20 504,0 588,0 588,-20"/>
<text text-anchor="middle" x="546" y="-7.2" font-family="Consolas" font-size="11.00">functional</text>
</a>
</g>
</g>
<!-- Node6&#45;&gt;Node13 -->
<g id="edge12_Node000006_Node000013" class="edge">
<title>Node6&#45;&gt;Node13</title>
<g id="a_edge12_Node000006_Node000013"><a xlink:title=" ">
<path fill="none" stroke="#63b8ff" d="M475.42,-55.84C488.44,-47.57 507.83,-35.25 522.99,-25.62"/>
<polygon fill="#63b8ff" stroke="#63b8ff" points="525.23,-28.34 531.79,-20.03 521.48,-22.43 525.23,-28.34"/>
</a>
</g>
</g>
<!-- Node14 -->
<g id="Node000014" class="node">
<title>Node14</title>
<g id="a_Node000014"><a xlink:title=" ">
<polygon fill="#e0e0e0" stroke="#999999" points="938.5,-20 881.5,-20 881.5,0 938.5,0 938.5,-20"/>
<text text-anchor="middle" x="910" y="-7.2" font-family="Consolas" font-size="11.00">memory</text>
</a>
</g>
</g>
<!-- Node6&#45;&gt;Node14 -->
<g id="edge13_Node000006_Node000014" class="edge">
<title>Node6&#45;&gt;Node14</title>
<g id="a_edge13_Node000006_Node000014"><a xlink:title=" ">
<path fill="none" stroke="#63b8ff" d="M499.73,-57.46C502.86,-56.94 505.98,-56.44 509,-56 659.79,-33.94 698.83,-39.31 850,-20 856.88,-19.12 864.19,-18.1 871.25,-17.07"/>
<polygon fill="#63b8ff" stroke="#63b8ff" points="871.97,-20.5 881.35,-15.56 870.94,-13.57 871.97,-20.5"/>
</a>
</g>
</g>
<!-- Node15&#45;&gt;Node5 -->
<g id="edge15_Node000015_Node000005" class="edge">
<title>Node15&#45;&gt;Node5</title>
<g id="a_edge15_Node000015_Node000005"><a xlink:title=" ">
<path fill="none" stroke="#63b8ff" d="M300.52,-167.59C297.88,-160.47 294.17,-150.45 290.93,-141.72"/>
<polygon fill="#63b8ff" stroke="#63b8ff" points="294.2,-140.46 287.44,-132.3 287.63,-142.89 294.2,-140.46"/>
</a>
</g>
</g>
<!-- Node16&#45;&gt;Node14 -->
<g id="edge17_Node000016_Node000014" class="edge">
<title>Node16&#45;&gt;Node14</title>
<g id="a_edge17_Node000016_Node000014"><a xlink:title=" ">
<path fill="none" stroke="#63b8ff" d="M898.42,-167.99C911.17,-160.33 927.49,-148.02 935,-132 950.99,-97.85 933.24,-53.55 920.54,-29.14"/>
<polygon fill="#63b8ff" stroke="#63b8ff" points="923.55,-27.35 915.68,-20.26 917.41,-30.71 923.55,-27.35"/>
</a>
</g>
</g>
<!-- Node17&#45;&gt;Node5 -->
<g id="edge19_Node000017_Node000005" class="edge">
<title>Node17&#45;&gt;Node5</title>
<g id="a_edge19_Node000017_Node000005"><a xlink:title=" ">
<path fill="none" stroke="#63b8ff" d="M456.35,-167.96C421.28,-158.81 366.89,-144.62 328.61,-134.64"/>
<polygon fill="#63b8ff" stroke="#63b8ff" points="329.32,-131.21 318.76,-132.07 327.55,-137.98 329.32,-131.21"/>
</a>
</g>
</g>
<!-- Node18 -->
<g id="Node000018" class="node">
<title>Node18</title>
<g id="a_Node000018"><a xlink:href="../../d4/ddd/container_8h.html" target="_top" xlink:title=" ">
<polygon fill="white" stroke="#666666" points="742.5,-132 597.5,-132 597.5,-112 742.5,-112 742.5,-132"/>
<text text-anchor="middle" x="670" y="-119.2" font-family="Consolas" font-size="11.00">Toolbox/container.h</text>
</a>
</g>
</g>
<!-- Node17&#45;&gt;Node18 -->
<g id="edge20_Node000017_Node000018" class="edge">
<title>Node17&#45;&gt;Node18</title>
<g id="a_edge20_Node000017_Node000018"><a xlink:title=" ">
<path fill="none" stroke="#63b8ff" d="M520.96,-167.96C550.91,-158.93 597.12,-144.99 630.15,-135.02"/>
<polygon fill="#63b8ff" stroke="#63b8ff" points="631.38,-138.31 639.94,-132.07 629.36,-131.61 631.38,-138.31"/>
</a>
</g>
</g>
<!-- Node23 -->
<g id="Node000023" class="node">
<title>Node23</title>
<g id="a_Node000023"><a xlink:title=" ">
<polygon fill="#e0e0e0" stroke="#999999" points="408.5,-132 351.5,-132 351.5,-112 408.5,-112 408.5,-132"/>
<text text-anchor="middle" x="380" y="-119.2" font-family="Consolas" font-size="11.00">future</text>
</a>
</g>
</g>
<!-- Node17&#45;&gt;Node23 -->
<g id="edge26_Node000017_Node000023" class="edge">
<title>Node17&#45;&gt;Node23</title>
<g id="a_edge26_Node000017_Node000023"><a xlink:title=" ">
<path fill="none" stroke="#63b8ff" d="M472.42,-167.96C454.73,-159.36 427.89,-146.3 407.68,-136.47"/>
<polygon fill="#63b8ff" stroke="#63b8ff" points="409.16,-133.3 398.64,-132.07 406.1,-139.59 409.16,-133.3"/>
</a>
</g>
</g>
<!-- Node18&#45;&gt;Node6 -->
<g id="edge21_Node000018_Node000006" class="edge">
<title>Node18&#45;&gt;Node6</title>
<g id="a_edge21_Node000018_Node000006"><a xlink:title=" ">
<path fill="none" stroke="#63b8ff" d="M635.02,-111.96C599.6,-102.81 544.69,-88.62 506.04,-78.64"/>
<polygon fill="#63b8ff" stroke="#63b8ff" points="506.65,-75.18 496.1,-76.07 504.9,-81.96 506.65,-75.18"/>
</a>
</g>
</g>
<!-- Node19 -->
<g id="Node000019" class="node">
<title>Node19</title>
<g id="a_Node000019"><a xlink:title=" ">
<polygon fill="#e0e0e0" stroke="#999999" points="799.5,-76 762.5,-76 762.5,-56 799.5,-56 799.5,-76"/>
<text text-anchor="middle" x="781" y="-63.2" font-family="Consolas" font-size="11.00">map</text>
</a>
</g>
</g>
<!-- Node18&#45;&gt;Node19 -->
<g id="edge22_Node000018_Node000019" class="edge">
<title>Node18&#45;&gt;Node19</title>
<g id="a_edge22_Node000018_Node000019"><a xlink:title=" ">
<path fill="none" stroke="#63b8ff" d="M688.58,-111.96C706.27,-103.36 733.11,-90.3 753.32,-80.47"/>
<polygon fill="#63b8ff" stroke="#63b8ff" points="754.9,-83.59 762.36,-76.07 751.84,-77.3 754.9,-83.59"/>
</a>
</g>
</g>
<!-- Node20 -->
<g id="Node000020" class="node">
<title>Node20</title>
<g id="a_Node000020"><a xlink:title=" ">
<polygon fill="#e0e0e0" stroke="#999999" points="854.5,-76 817.5,-76 817.5,-56 854.5,-56 854.5,-76"/>
<text text-anchor="middle" x="836" y="-63.2" font-family="Consolas" font-size="11.00">set</text>
</a>
</g>
</g>
<!-- Node18&#45;&gt;Node20 -->
<g id="edge23_Node000018_Node000020" class="edge">
<title>Node18&#45;&gt;Node20</title>
<g id="a_edge23_Node000018_Node000020"><a xlink:title=" ">
<path fill="none" stroke="#63b8ff" d="M698.24,-111.94C724.42,-103.52 764.7,-90.52 807.87,-76.35"/>
<polygon fill="#63b8ff" stroke="#63b8ff" points="809.01,-79.66 817.42,-73.22 806.82,-73.01 809.01,-79.66"/>
</a>
</g>
</g>
<!-- Node21 -->
<g id="Node000021" class="node">
<title>Node21</title>
<g id="a_Node000021"><a xlink:title=" ">
<polygon fill="#e0e0e0" stroke="#999999" points="622,-76 518,-76 518,-56 622,-56 622,-76"/>
<text text-anchor="middle" x="570" y="-63.2" font-family="Consolas" font-size="11.00">unordered_map</text>
</a>
</g>
</g>
<!-- Node18&#45;&gt;Node21 -->
<g id="edge24_Node000018_Node000021" class="edge">
<title>Node18&#45;&gt;Node21</title>
<g id="a_edge24_Node000018_Node000021"><a xlink:title=" ">
<path fill="none" stroke="#63b8ff" d="M653.04,-111.84C637.28,-103.33 613.61,-90.55 595.56,-80.8"/>
<polygon fill="#63b8ff" stroke="#63b8ff" points="597.18,-77.7 586.71,-76.03 593.85,-83.86 597.18,-77.7"/>
</a>
</g>
</g>
<!-- Node22 -->
<g id="Node000022" class="node">
<title>Node22</title>
<g id="a_Node000022"><a xlink:title=" ">
<polygon fill="#e0e0e0" stroke="#999999" points="744,-76 640,-76 640,-56 744,-56 744,-76"/>
<text text-anchor="middle" x="692" y="-63.2" font-family="Consolas" font-size="11.00">unordered_set</text>
</a>
</g>
</g>
<!-- Node18&#45;&gt;Node22 -->
<g id="edge25_Node000018_Node000022" class="edge">
<title>Node18&#45;&gt;Node22</title>
<g id="a_edge25_Node000018_Node000022"><a xlink:title=" ">
<path fill="none" stroke="#63b8ff" d="M673.83,-111.59C676.73,-104.47 680.82,-94.45 684.38,-85.72"/>
<polygon fill="#63b8ff" stroke="#63b8ff" points="687.68,-86.88 688.21,-76.3 681.2,-84.24 687.68,-86.88"/>
</a>
</g>
</g>
<!-- Node24&#45;&gt;Node18 -->
<g id="edge31_Node000024_Node000018" class="edge">
<title>Node24&#45;&gt;Node18</title>
<g id="a_edge31_Node000024_Node000018"><a xlink:title=" ">
<path fill="none" stroke="#63b8ff" d="M654.31,-167.59C656.79,-160.55 660.26,-150.67 663.31,-142"/>
<polygon fill="#63b8ff" stroke="#63b8ff" points="666.71,-142.89 666.73,-132.3 660.11,-140.57 666.71,-142.89"/>
</a>
</g>
</g>
<!-- Node24&#45;&gt;Node23 -->
<g id="edge32_Node000024_Node000023" class="edge">
<title>Node24&#45;&gt;Node23</title>
<g id="a_edge32_Node000024_Node000023"><a xlink:title=" ">
<path fill="none" stroke="#63b8ff" d="M600.88,-167.95C555.83,-159.67 487.6,-146.78 418.76,-132.09"/>
<polygon fill="#63b8ff" stroke="#63b8ff" points="419.12,-128.59 408.6,-129.91 417.65,-135.43 419.12,-128.59"/>
</a>
</g>
</g>
<!-- Node25 -->
<g id="Node000025" class="node">
<title>Node25</title>
<g id="a_Node000025"><a xlink:title=" ">
<polygon fill="#e0e0e0" stroke="#999999" points="925.5,-132 760.5,-132 760.5,-112 925.5,-112 925.5,-132"/>
<text text-anchor="middle" x="843" y="-119.2" font-family="Consolas" font-size="11.00">Domain/MetaMat/MetaMat</text>
</a>
</g>
</g>
<!-- Node24&#45;&gt;Node25 -->
<g id="edge28_Node000024_Node000025" class="edge">
<title>Node24&#45;&gt;Node25</title>
<g id="a_edge28_Node000024_Node000025"><a xlink:title=" ">
<path fill="none" stroke="#63b8ff" d="M683.14,-167.96C715.39,-158.89 765.26,-144.86 800.71,-134.89"/>
<polygon fill="#63b8ff" stroke="#63b8ff" points="802.08,-138.14 810.76,-132.07 800.18,-131.41 802.08,-138.14"/>
</a>
</g>
</g>
<!-- Node26 -->
<g id="Node000026" class="node">
<title>Node26</title>
<g id="a_Node000026"><a xlink:href="../../d6/d94/_mapping_d_o_f_8h.html" target="_top" xlink:title=" ">
<polygon fill="white" stroke="#666666" points="579,-132 427,-132 427,-112 579,-112 579,-132"/>
<text text-anchor="middle" x="503" y="-119.2" font-family="Consolas" font-size="11.00">Element/MappingDOF.h</text>
</a>
</g>
</g>
<!-- Node24&#45;&gt;Node26 -->
<g id="edge29_Node000024_Node000026" class="edge">
<title>Node24&#45;&gt;Node26</title>
<g id="a_edge29_Node000024_Node000026"><a xlink:title=" ">
<path fill="none" stroke="#63b8ff" d="M626.23,-167.96C601.9,-159.08 564.57,-145.46 537.37,-135.54"/>
<polygon fill="#63b8ff" stroke="#63b8ff" points="538.45,-132.21 527.85,-132.07 536.05,-138.78 538.45,-132.21"/>
</a>
</g>
</g>
<!-- Node26&#45;&gt;Node6 -->
<g id="edge30_Node000026_Node000006" class="edge">
<title>Node26&#45;&gt;Node6</title>
<g id="a_edge30_Node000026_Node000006"><a xlink:title=" ">
<path fill="none" stroke="#63b8ff" d="M495.68,-111.59C489.84,-104.08 481.5,-93.35 474.46,-84.3"/>
<polygon fill="#63b8ff" stroke="#63b8ff" points="477.13,-82.04 468.23,-76.3 471.61,-86.34 477.13,-82.04"/>
</a>
</g>
</g>
</g>
</svg>

<g id="navigator" transform="translate(0 0)" fill="#404254">
  <rect fill="#f2f5e9" fill-opacity="0.5" stroke="#606060" stroke-width=".5" x="0" y="0" width="60" height="60"/>
  <use id="zoomplus" xlink:href="#zoomPlus" x="17" y="9" onmousedown="handleZoom(evt,'in')"/>
  <use id="zoomminus" xlink:href="#zoomMin" x="42" y="9" onmousedown="handleZoom(evt,'out')"/>
  <use id="reset" xlink:href="#resetDef" x="30" y="36" onmousedown="handleReset()"/>
   <use id="arrowup" xlink:href="#arrowUp" x="0" y="0" onmousedown="handlePan(0,-1)"/>
  <use id="arrowright" xlink:href="#arrowRight" x="0" y="0" onmousedown="handlePan(1,0)"/>
  <use id="arrowdown" xlink:href="#arrowDown" x="0" y="0" onmousedown="handlePan(0,1)"/>
  <use id="arrowleft" xlink:href="#arrowLeft" x="0" y="0" onmousedown="handlePan(-1,0)"/>
</g>
<svg viewBox="0 0 15 15" width="100%" height="30px" preserveAspectRatio="xMaxYMin meet">
 <g id="arrow_out" transform="scale(0.3 0.3)">
  <a xlink:href="_reference_force_8cpp__incl_org.svg" target="_base">
   <rect id="button" ry="5" rx="5" y="6" x="6" height="38" width="38"
        fill="#f2f5e9" fill-opacity="0.5" stroke="#606060" stroke-width="1.0"/>
   <path id="arrow"
     d="M 11.500037,31.436501 C 11.940474,20.09759 22.043105,11.32322 32.158766,21.979434 L 37.068811,17.246167 C 37.068811,17.246167 37.088388,32 37.088388,32 L 22.160133,31.978069 C 22.160133,31.978069 26.997745,27.140456 26.997745,27.140456 C 18.528582,18.264221 13.291696,25.230495 11.500037,31.436501 z"
     style="fill:#404040;"/>
  </a>
 </g>
</svg>

<style type='text/css'>
<![CDATA[
[data-mouse-over-selected='false'] { opacity: 0.7; }
[data-mouse-over-selected='true']  { opacity: 1.0; }
]]>
</style>
<script type="application/ecmascript"><![CDATA[
document.addEventListener('DOMContentLoaded', (event) => {
  highlightEdges();
  highlightAdjacentNodes();
});
]]></script>
</svg>
