<?xml version="1.0" encoding="UTF-8" standalone="no"?>
<!DOCTYPE svg PUBLIC "-//W3C//DTD SVG 1.1//EN"
 "http://www.w3.org/Graphics/SVG/1.1/DTD/svg11.dtd">
<!-- Generated by graphviz version 8.1.0 (20230707.0739)
 -->
<!-- Title: LogicCriterion Pages: 1 -->
<!--zoomable 630 -->

<svg id="main" version="1.1" xmlns="http://www.w3.org/2000/svg" xmlns:xlink="http://www.w3.org/1999/xlink" xml:space="preserve" onload="init(evt)">
<style type="text/css"><![CDATA[
.node, .edge {opacity: 0.7;}
.node.selected, .edge.selected {opacity: 1;}
.edge:hover path { stroke: red; }
.edge:hover polygon { stroke: red; fill: red; }
]]></style>

<defs>
  <circle id="rim" cx="0" cy="0" r="7"/>
  <circle id="rim2" cx="0" cy="0" r="3.5"/>
  <g id="zoomPlus">
    <use xlink:href="#rim" fill="#404040"><set attributeName="fill" to="#808080" begin="zoomplus.mouseover" end="zoomplus.mouseout"/></use>
    <path d="M-4,0h8M0,-4v8" fill="none" stroke="white" stroke-width="1.5" pointer-events="none"/>
  </g>
  <g id="zoomMin">
    <use xlink:href="#rim" fill="#404040"><set attributeName="fill" to="#808080" begin="zoomminus.mouseover" end="zoomminus.mouseout"/></use>
    <path d="M-4,0h8" fill="none" stroke="white" stroke-width="1.5" pointer-events="none"/>
  </g>
  <g id="arrowUp" transform="translate(30 24)">
    <use xlink:href="#rim"/>
    <path pointer-events="none" fill="none" stroke="white" stroke-width="1.5" d="M0,-3.0v7 M-2.5,-0.5L0,-3.0L2.5,-0.5"/>
  </g>
  <g id="arrowRight" transform="rotate(90) translate(36 -43)">
    <use xlink:href="#rim"/>
    <path pointer-events="none" fill="none" stroke="white" stroke-width="1.5" d="M0,-3.0v7 M-2.5,-0.5L0,-3.0L2.5,-0.5"/>
  </g>
  <g id="arrowDown" transform="rotate(180) translate(-30 -48)">
    <use xlink:href="#rim"/>
    <path pointer-events="none" fill="none" stroke="white" stroke-width="1.5" d="M0,-3.0v7 M-2.5,-0.5L0,-3.0L2.5,-0.5"/>
  </g>
  <g id="arrowLeft" transform="rotate(270) translate(-36 17)">
    <use xlink:href="#rim"/>
    <path pointer-events="none" fill="none" stroke="white" stroke-width="1.5" d="M0,-3.0v7 M-2.5,-0.5L0,-3.0L2.5,-0.5"/>
  </g>
  <g id="resetDef">
    <use xlink:href="#rim2" fill="#404040"><set attributeName="fill" to="#808080" begin="reset.mouseover" end="reset.mouseout"/></use>
  </g>
</defs>
<script type="application/ecmascript">
var viewWidth = 276;
var viewHeight = 630;
var sectionId = 'dynsection-1';
</script>
<script type="application/ecmascript" xlink:href="../../svg.min.js"/>
<svg id="graph" class="graph">
<g id="viewport">
<title>LogicCriterion</title>
<!-- Node1 -->
<g id="Node000001" class="node">
<title>Node1</title>
<g id="a_Node000001"><a xlink:title="A LogicCriterion class.">
<polygon fill="#999999" stroke="none" points="215,-72 101,-72 101,0 215,0 215,-72"/>
<text text-anchor="start" x="116" y="-57.55" font-family="Consolas" font-size="11.00">LogicCriterion</text>
<text text-anchor="start" x="155" y="-40.55" font-family="Consolas" font-size="11.00"> </text>
<text text-anchor="start" x="105" y="-23.55" font-family="Consolas" font-size="11.00">+</text>
<text text-anchor="start" x="115" y="-23.55" font-family="Consolas" font-size="11.00">LogicCriterion()</text>
<text text-anchor="start" x="105" y="-6.55" font-family="Consolas" font-size="11.00">+</text>
<text text-anchor="start" x="115" y="-6.55" font-family="Consolas" font-size="11.00">initialize()</text>
<polygon fill="#666666" stroke="#666666" points="101,-53 101,-53 215,-53 215,-53 101,-53"/>
<polygon fill="#666666" stroke="#666666" points="101,-36 101,-36 215,-36 215,-36 101,-36"/>
<polygon fill="none" stroke="#666666" points="101,0 101,-72 215,-72 215,0 101,0"/>
</a>
</g>
</g>
<!-- Node2 -->
<g id="Node000002" class="node">
<title>Node2</title>
<g id="a_Node000002"><a xlink:href="../../d3/d46/class_criterion.html" target="_top" xlink:title="A Criterion class.">
<polygon fill="white" stroke="none" points="102,-292 0,-292 0,-135 102,-135 102,-292"/>
<text text-anchor="start" x="24" y="-277.55" font-family="Consolas" font-size="11.00">Criterion</text>
<text text-anchor="start" x="48" y="-260.55" font-family="Consolas" font-size="11.00"> </text>
<text text-anchor="start" x="4" y="-243.55" font-family="Consolas" font-size="11.00">+</text>
<text text-anchor="start" x="14" y="-243.55" font-family="Consolas" font-size="11.00">Criterion()</text>
<text text-anchor="start" x="4" y="-226.55" font-family="Consolas" font-size="11.00">+</text>
<text text-anchor="start" x="14" y="-226.55" font-family="Consolas" font-size="11.00">~Criterion()</text>
<text text-anchor="start" x="4" y="-209.55" font-family="Consolas" font-size="11.00">+</text>
<text text-anchor="start" x="14" y="-209.55" font-family="Consolas" font-size="11.00">set_step_tag()</text>
<text text-anchor="start" x="4" y="-192.55" font-family="Consolas" font-size="11.00">+</text>
<text text-anchor="start" x="14" y="-192.55" font-family="Consolas" font-size="11.00">get_step_tag()</text>
<text text-anchor="start" x="4" y="-175.55" font-family="Consolas" font-size="11.00">+</text>
<text text-anchor="start" x="14" y="-175.55" font-family="Consolas" font-size="11.00">get_copy()</text>
<text text-anchor="start" x="4" y="-158.55" font-family="Consolas" font-size="11.00">+</text>
<text text-anchor="start" x="14" y="-158.55" font-family="Consolas" font-size="11.00">initialize()</text>
<text text-anchor="start" x="4" y="-141.55" font-family="Consolas" font-size="11.00">+</text>
<text text-anchor="start" x="14" y="-141.55" font-family="Consolas" font-size="11.00">process()</text>
<polygon fill="#666666" stroke="#666666" points="0,-273 0,-273 102,-273 102,-273 0,-273"/>
<polygon fill="#666666" stroke="#666666" points="0,-256 0,-256 102,-256 102,-256 0,-256"/>
<polygon fill="none" stroke="#666666" points="0,-135 0,-292 102,-292 102,-135 0,-135"/>
</a>
</g>
</g>
<!-- Node2&#45;&gt;Node1 -->
<g id="edge1_Node000001_Node000002" class="edge">
<title>Node2&#45;&gt;Node1</title>
<g id="a_edge1_Node000001_Node000002"><a xlink:title=" ">
<path fill="none" stroke="#63b8ff" d="M103.93,-125.68C115.55,-106.62 127.2,-87.51 136.7,-71.94"/>
<polygon fill="none" stroke="#63b8ff" points="100.46,-123.65 98.24,-134.01 106.44,-127.3 100.46,-123.65"/>
</a>
</g>
</g>
<!-- Node3 -->
<g id="Node000003" class="node">
<title>Node3</title>
<g id="a_Node000003"><a xlink:href="../../d0/d57/class_tag.html" target="_top" xlink:title="A base Tag class.">
<polygon fill="white" stroke="none" points="96,-622 6,-622 6,-329 96,-329 96,-622"/>
<text text-anchor="start" x="42" y="-607.55" font-family="Consolas" font-size="11.00">Tag</text>
<text text-anchor="start" x="48" y="-590.55" font-family="Consolas" font-size="11.00"> </text>
<text text-anchor="start" x="10" y="-573.55" font-family="Consolas" font-size="11.00">+</text>
<text text-anchor="start" x="20" y="-573.55" font-family="Consolas" font-size="11.00">Tag()</text>
<text text-anchor="start" x="10" y="-556.55" font-family="Consolas" font-size="11.00">+</text>
<text text-anchor="start" x="20" y="-556.55" font-family="Consolas" font-size="11.00">Tag()</text>
<text text-anchor="start" x="10" y="-539.55" font-family="Consolas" font-size="11.00">+</text>
<text text-anchor="start" x="20" y="-539.55" font-family="Consolas" font-size="11.00">Tag()</text>
<text text-anchor="start" x="10" y="-522.55" font-family="Consolas" font-size="11.00">+</text>
<text text-anchor="start" x="20" y="-522.55" font-family="Consolas" font-size="11.00">operator=()</text>
<text text-anchor="start" x="10" y="-505.55" font-family="Consolas" font-size="11.00">+</text>
<text text-anchor="start" x="20" y="-505.55" font-family="Consolas" font-size="11.00">operator=()</text>
<text text-anchor="start" x="10" y="-488.55" font-family="Consolas" font-size="11.00">+</text>
<text text-anchor="start" x="20" y="-488.55" font-family="Consolas" font-size="11.00">~Tag()</text>
<text text-anchor="start" x="10" y="-471.55" font-family="Consolas" font-size="11.00">+</text>
<text text-anchor="start" x="20" y="-471.55" font-family="Consolas" font-size="11.00">set_tag()</text>
<text text-anchor="start" x="10" y="-454.55" font-family="Consolas" font-size="11.00">+</text>
<text text-anchor="start" x="20" y="-454.55" font-family="Consolas" font-size="11.00">get_tag()</text>
<text text-anchor="start" x="10" y="-437.55" font-family="Consolas" font-size="11.00">+</text>
<text text-anchor="start" x="20" y="-437.55" font-family="Consolas" font-size="11.00">enable()</text>
<text text-anchor="start" x="10" y="-420.55" font-family="Consolas" font-size="11.00">+</text>
<text text-anchor="start" x="20" y="-420.55" font-family="Consolas" font-size="11.00">disable()</text>
<text text-anchor="start" x="10" y="-403.55" font-family="Consolas" font-size="11.00">+</text>
<text text-anchor="start" x="20" y="-403.55" font-family="Consolas" font-size="11.00">guard()</text>
<text text-anchor="start" x="10" y="-386.55" font-family="Consolas" font-size="11.00">+</text>
<text text-anchor="start" x="20" y="-386.55" font-family="Consolas" font-size="11.00">unguard()</text>
<text text-anchor="start" x="10" y="-369.55" font-family="Consolas" font-size="11.00">+</text>
<text text-anchor="start" x="20" y="-369.55" font-family="Consolas" font-size="11.00">is_active()</text>
<text text-anchor="start" x="10" y="-352.55" font-family="Consolas" font-size="11.00">+</text>
<text text-anchor="start" x="20" y="-352.55" font-family="Consolas" font-size="11.00">is_guarded()</text>
<text text-anchor="start" x="10" y="-335.55" font-family="Consolas" font-size="11.00">+</text>
<text text-anchor="start" x="20" y="-335.55" font-family="Consolas" font-size="11.00">print()</text>
<polygon fill="#666666" stroke="#666666" points="6,-603 6,-603 96,-603 96,-603 6,-603"/>
<polygon fill="#666666" stroke="#666666" points="6,-586 6,-586 96,-586 96,-586 6,-586"/>
<polygon fill="none" stroke="#666666" points="6,-329 6,-622 96,-622 96,-329 6,-329"/>
</a>
</g>
</g>
<!-- Node3&#45;&gt;Node2 -->
<g id="edge2_Node000002_Node000003" class="edge">
<title>Node3&#45;&gt;Node2</title>
<g id="a_edge2_Node000002_Node000003"><a xlink:title=" ">
<path fill="none" stroke="#63b8ff" d="M51,-318.46C51,-309.29 51,-300.3 51,-291.69"/>
<polygon fill="none" stroke="#63b8ff" points="47.5,-318.3 51,-328.3 54.5,-318.3 47.5,-318.3"/>
</a>
</g>
</g>
<!-- Node4 -->
<g id="Node000004" class="node">
<title>Node4</title>
<g id="a_Node000004"><a xlink:title=" ">
<polygon fill="white" stroke="none" points="268,-241 120,-241 120,-186 268,-186 268,-241"/>
<text text-anchor="start" x="125" y="-226.55" font-family="Consolas" font-size="11.00">shared_ptr&lt; Criterion &gt;</text>
<text text-anchor="start" x="191" y="-209.55" font-family="Consolas" font-size="11.00"> </text>
<text text-anchor="start" x="191" y="-192.55" font-family="Consolas" font-size="11.00"> </text>
<polygon fill="#666666" stroke="#666666" points="120,-222 120,-222 268,-222 268,-222 120,-222"/>
<polygon fill="#666666" stroke="#666666" points="120,-205 120,-205 268,-205 268,-205 120,-205"/>
<polygon fill="none" stroke="#666666" points="120,-186 120,-241 268,-241 268,-186 120,-186"/>
</a>
</g>
</g>
<!-- Node4&#45;&gt;Node1 -->
<g id="edge3_Node000001_Node000004" class="edge">
<title>Node4&#45;&gt;Node1</title>
<g id="a_edge3_Node000001_Node000004"><a xlink:title=" ">
<path fill="none" stroke="#63b8ff" d="M188.61,-186.23C183.1,-159.38 174.43,-117.11 167.72,-84.4"/>
<polygon fill="none" stroke="#63b8ff" points="167.76,-84.58 162.64,-79.5 165.35,-72.82 170.47,-77.9 167.76,-84.58"/>
</a>
</g>
<text text-anchor="middle" x="212" y="-106.55" font-family="Consolas" font-size="11.00" fill="grey"> #criterion_a</text>
<text text-anchor="middle" x="212" y="-93.05" font-family="Consolas" font-size="11.00" fill="grey">#criterion_b</text>
</g>
</g>
</svg>

<g id="navigator" transform="translate(0 0)" fill="#404254">
  <rect fill="#f2f5e9" fill-opacity="0.5" stroke="#606060" stroke-width=".5" x="0" y="0" width="60" height="60"/>
  <use id="zoomplus" xlink:href="#zoomPlus" x="17" y="9" onmousedown="handleZoom(evt,'in')"/>
  <use id="zoomminus" xlink:href="#zoomMin" x="42" y="9" onmousedown="handleZoom(evt,'out')"/>
  <use id="reset" xlink:href="#resetDef" x="30" y="36" onmousedown="handleReset()"/>
   <use id="arrowup" xlink:href="#arrowUp" x="0" y="0" onmousedown="handlePan(0,-1)"/>
  <use id="arrowright" xlink:href="#arrowRight" x="0" y="0" onmousedown="handlePan(1,0)"/>
  <use id="arrowdown" xlink:href="#arrowDown" x="0" y="0" onmousedown="handlePan(0,1)"/>
  <use id="arrowleft" xlink:href="#arrowLeft" x="0" y="0" onmousedown="handlePan(-1,0)"/>
</g>
<svg viewBox="0 0 15 15" width="100%" height="30px" preserveAspectRatio="xMaxYMin meet">
 <g id="arrow_out" transform="scale(0.3 0.3)">
  <a xlink:href="class_logic_criterion__coll__graph_org.svg" target="_base">
   <rect id="button" ry="5" rx="5" y="6" x="6" height="38" width="38"
        fill="#f2f5e9" fill-opacity="0.5" stroke="#606060" stroke-width="1.0"/>
   <path id="arrow"
     d="M 11.500037,31.436501 C 11.940474,20.09759 22.043105,11.32322 32.158766,21.979434 L 37.068811,17.246167 C 37.068811,17.246167 37.088388,32 37.088388,32 L 22.160133,31.978069 C 22.160133,31.978069 26.997745,27.140456 26.997745,27.140456 C 18.528582,18.264221 13.291696,25.230495 11.500037,31.436501 z"
     style="fill:#404040;"/>
  </a>
 </g>
</svg>

<style type='text/css'>
<![CDATA[
[data-mouse-over-selected='false'] { opacity: 0.7; }
[data-mouse-over-selected='true']  { opacity: 1.0; }
]]>
</style>
<script type="application/ecmascript"><![CDATA[
document.addEventListener('DOMContentLoaded', (event) => {
  highlightEdges();
  highlightAdjacentNodes();
});
]]></script>
</svg>
