<?xml version="1.0" encoding="UTF-8" standalone="no"?>
<!DOCTYPE svg PUBLIC "-//W3C//DTD SVG 1.1//EN"
 "http://www.w3.org/Graphics/SVG/1.1/DTD/svg11.dtd">
<!-- Generated by graphviz version 2.43.0 (0)
 -->
<!-- Title: NonlinearGurson Pages: 1 -->
<!--zoomable 1048 -->
<svg id="main" version="1.1" xmlns="http://www.w3.org/2000/svg" xmlns:xlink="http://www.w3.org/1999/xlink" xml:space="preserve" onload="init(evt)">
<style type="text/css"><![CDATA[
.edge:hover path { stroke: red; }
.edge:hover polygon { stroke: red; fill: red; }
]]></style>
<script type="text/javascript"><![CDATA[
var edges = document.getElementsByTagName('g');
if (edges && edges.length) {
  for (var i=0;i<edges.length;i++) {
    if (edges[i].id.substr(0,4)=='edge') {
      edges[i].setAttribute('class','edge');
    }
  }
}
]]></script>
        <defs>
                <circle id="rim" cx="0" cy="0" r="7"/>
                <circle id="rim2" cx="0" cy="0" r="3.5"/>
                <g id="zoomPlus">
                        <use xlink:href="#rim" fill="#404040">
                                <set attributeName="fill" to="#808080" begin="zoomplus.mouseover" end="zoomplus.mouseout"/>
                        </use>
                        <path d="M-4,0h8M0,-4v8" fill="none" stroke="white" stroke-width="1.5" pointer-events="none"/>
                </g>
                <g id="zoomMin">
                        <use xlink:href="#rim" fill="#404040">
                                <set attributeName="fill" to="#808080" begin="zoomminus.mouseover" end="zoomminus.mouseout"/>
                        </use>
                        <path d="M-4,0h8" fill="none" stroke="white" stroke-width="1.5" pointer-events="none"/>
                </g>
                <g id="dirArrow">
                        <path fill="none" stroke="white" stroke-width="1.5" d="M0,-3.0v7 M-2.5,-0.5L0,-3.0L2.5,-0.5"/>
                </g>
               <g id="resetDef">
                       <use xlink:href="#rim2" fill="#404040">
                               <set attributeName="fill" to="#808080" begin="reset.mouseover" end="reset.mouseout"/>
                       </use>
               </g>
        </defs>

<script type="text/javascript">
var viewWidth = 1239;
var viewHeight = 1048;
var sectionId = 'dynsection-1';
</script>
<script xlink:href="../../svgpan.js"/>
<svg id="graph" class="graph">
<g id="viewport">
<title>NonlinearGurson</title>
<polygon fill="white" stroke="transparent" points="-4,4 -4,-1044 1234.8,-1044 1234.8,4 -4,4"/>
<!-- Node1 -->
<g id="node1" class="node">
<title>Node1</title>
<g id="a_node1"><a xlink:title="The NonlinearGurson class.">
<polygon fill="#bfbfbf" stroke="black" points="356.8,-0.5 356.8,-156.5 528.8,-156.5 528.8,-0.5 356.8,-0.5"/>
<text text-anchor="middle" x="442.8" y="-143.7" font-family="Consolas" font-size="11.00">NonlinearGurson</text>
<polyline fill="none" stroke="black" points="356.8,-136.5 528.8,-136.5 "/>
<text text-anchor="middle" x="442.8" y="-123.7" font-family="Consolas" font-size="11.00"> </text>
<polyline fill="none" stroke="black" points="356.8,-116.5 528.8,-116.5 "/>
<text text-anchor="start" x="364.8" y="-103.7" font-family="Consolas" font-size="11.00">+ NonlinearGurson()</text>
<text text-anchor="start" x="364.8" y="-91.7" font-family="Consolas" font-size="11.00">+ initialize()</text>
<text text-anchor="start" x="364.8" y="-79.7" font-family="Consolas" font-size="11.00">+ get_parameter()</text>
<text text-anchor="start" x="364.8" y="-67.7" font-family="Consolas" font-size="11.00">+ update_trial_status()</text>
<text text-anchor="start" x="364.8" y="-55.7" font-family="Consolas" font-size="11.00">+ clear_status()</text>
<text text-anchor="start" x="364.8" y="-43.7" font-family="Consolas" font-size="11.00">+ commit_status()</text>
<text text-anchor="start" x="364.8" y="-31.7" font-family="Consolas" font-size="11.00">+ reset_status()</text>
<text text-anchor="start" x="364.8" y="-19.7" font-family="Consolas" font-size="11.00">+ record()</text>
<text text-anchor="start" x="364.8" y="-7.7" font-family="Consolas" font-size="11.00">+ print()</text>
</a>
</g>
</g>
<!-- Node2 -->
<g id="node2" class="node">
<title>Node2</title>
<g id="a_node2"><a xlink:href="../../d1/df4/struct_data_nonlinear_gurson.html" target="_top" xlink:title=" ">
<polygon fill="white" stroke="black" points="288.3,-503.5 288.3,-563.5 433.3,-563.5 433.3,-503.5 288.3,-503.5"/>
<text text-anchor="middle" x="360.8" y="-550.7" font-family="Consolas" font-size="11.00">DataNonlinearGurson</text>
<polyline fill="none" stroke="black" points="288.3,-543.5 433.3,-543.5 "/>
<text text-anchor="middle" x="360.8" y="-530.7" font-family="Consolas" font-size="11.00"> </text>
<polyline fill="none" stroke="black" points="288.3,-523.5 433.3,-523.5 "/>
<text text-anchor="middle" x="360.8" y="-510.7" font-family="Consolas" font-size="11.00"> </text>
</a>
</g>
</g>
<!-- Node2&#45;&gt;Node1 -->
<g id="edge1" class="edge">
<title>Node2&#45;&gt;Node1</title>
<path fill="none" stroke="darkgreen" d="M367.84,-493.56C381.35,-418.93 411.11,-254.53 428.8,-156.82"/>
<polygon fill="none" stroke="darkgreen" points="364.39,-493.01 366.05,-503.47 371.27,-494.26 364.39,-493.01"/>
</g>
<!-- Node3 -->
<g id="node3" class="node">
<title>Node3</title>
<g id="a_node3"><a xlink:title=" ">
<polygon fill="white" stroke="#bfbfbf" points="63.3,-979.5 63.3,-1039.5 120.3,-1039.5 120.3,-979.5 63.3,-979.5"/>
<text text-anchor="middle" x="91.8" y="-1026.7" font-family="Consolas" font-size="11.00">double</text>
<polyline fill="none" stroke="#bfbfbf" points="63.3,-1019.5 120.3,-1019.5 "/>
<text text-anchor="middle" x="91.8" y="-1006.7" font-family="Consolas" font-size="11.00"> </text>
<polyline fill="none" stroke="#bfbfbf" points="63.3,-999.5 120.3,-999.5 "/>
<text text-anchor="middle" x="91.8" y="-986.7" font-family="Consolas" font-size="11.00"> </text>
</a>
</g>
</g>
<!-- Node3&#45;&gt;Node2 -->
<g id="edge2" class="edge">
<title>Node3&#45;&gt;Node2</title>
<path fill="none" stroke="#404040" d="M62.98,-997.59C47.16,-989.94 28.95,-978.01 19.8,-961 -8.01,-909.34 -4.62,-882.35 19.8,-829 75.7,-706.86 210.04,-616.07 292.43,-569.52"/>
<polygon fill="none" stroke="#404040" points="292.48,-569.5 295.77,-563.09 302.96,-563.66 299.66,-570.07 292.48,-569.5"/>
<text text-anchor="middle" x="77.3" y="-928.2" font-family="Consolas" font-size="11.00"> +elastic_modulus</text>
<text text-anchor="middle" x="77.3" y="-916.2" font-family="Consolas" font-size="11.00">+en</text>
<text text-anchor="middle" x="77.3" y="-904.2" font-family="Consolas" font-size="11.00">+fn</text>
<text text-anchor="middle" x="77.3" y="-892.2" font-family="Consolas" font-size="11.00">+poissons_ratio</text>
<text text-anchor="middle" x="77.3" y="-880.2" font-family="Consolas" font-size="11.00">+q1</text>
<text text-anchor="middle" x="77.3" y="-868.2" font-family="Consolas" font-size="11.00">+q2</text>
<text text-anchor="middle" x="77.3" y="-856.2" font-family="Consolas" font-size="11.00">+sn</text>
</g>
<!-- Node6 -->
<g id="node6" class="node">
<title>Node6</title>
<g id="a_node6"><a xlink:href="../../de/de9/struct_data_material.html" target="_top" xlink:title=" ">
<polygon fill="white" stroke="black" points="399.3,-642.5 399.3,-750.5 544.3,-750.5 544.3,-642.5 399.3,-642.5"/>
<text text-anchor="middle" x="471.8" y="-737.7" font-family="Consolas" font-size="11.00">DataMaterial</text>
<polyline fill="none" stroke="black" points="399.3,-730.5 544.3,-730.5 "/>
<text text-anchor="start" x="407.3" y="-717.7" font-family="Consolas" font-size="11.00">+ trial_strain</text>
<text text-anchor="start" x="407.3" y="-705.7" font-family="Consolas" font-size="11.00">+ trial_strain_rate</text>
<text text-anchor="start" x="407.3" y="-693.7" font-family="Consolas" font-size="11.00">+ trial_strain_acc</text>
<text text-anchor="start" x="407.3" y="-681.7" font-family="Consolas" font-size="11.00">+ trial_stress</text>
<text text-anchor="start" x="407.3" y="-669.7" font-family="Consolas" font-size="11.00">+ trial_history</text>
<polyline fill="none" stroke="black" points="399.3,-662.5 544.3,-662.5 "/>
<text text-anchor="middle" x="471.8" y="-649.7" font-family="Consolas" font-size="11.00"> </text>
</a>
</g>
</g>
<!-- Node3&#45;&gt;Node6 -->
<g id="edge6" class="edge">
<title>Node3&#45;&gt;Node6</title>
<path fill="none" stroke="#404040" d="M120.57,-985.3C127.59,-978.22 134.35,-969.93 138.8,-961 165.19,-907.93 121.52,-875.88 157.8,-829 213.21,-757.38 314.78,-724.39 387.39,-709.44"/>
<polygon fill="none" stroke="#404040" points="387.47,-709.42 392.58,-704.34 399.24,-707.1 394.13,-712.19 387.47,-709.42"/>
<text text-anchor="middle" x="235.8" y="-904.2" font-family="Consolas" font-size="11.00"> +characteristic_length</text>
<text text-anchor="middle" x="235.8" y="-892.2" font-family="Consolas" font-size="11.00">+density</text>
<text text-anchor="middle" x="235.8" y="-880.2" font-family="Consolas" font-size="11.00">+tolerance</text>
</g>
<!-- Node4 -->
<g id="node4" class="node">
<title>Node4</title>
<g id="a_node4"><a xlink:href="../../d7/d42/class_material3_d.html" target="_top" xlink:title="The Material3D class.">
<polygon fill="white" stroke="black" points="491.3,-194.5 491.3,-266.5 602.3,-266.5 602.3,-194.5 491.3,-194.5"/>
<text text-anchor="middle" x="546.8" y="-253.7" font-family="Consolas" font-size="11.00">Material3D</text>
<polyline fill="none" stroke="black" points="491.3,-246.5 602.3,-246.5 "/>
<text text-anchor="middle" x="546.8" y="-233.7" font-family="Consolas" font-size="11.00"> </text>
<polyline fill="none" stroke="black" points="491.3,-226.5 602.3,-226.5 "/>
<text text-anchor="start" x="499.3" y="-213.7" font-family="Consolas" font-size="11.00">+ Material3D()</text>
<text text-anchor="start" x="499.3" y="-201.7" font-family="Consolas" font-size="11.00">+ record()</text>
</a>
</g>
</g>
<!-- Node4&#45;&gt;Node1 -->
<g id="edge3" class="edge">
<title>Node4&#45;&gt;Node1</title>
<path fill="none" stroke="midnightblue" d="M516.7,-186.09C510.3,-176.86 503.36,-166.85 496.38,-156.78"/>
<polygon fill="none" stroke="midnightblue" points="513.84,-188.11 522.41,-194.33 519.59,-184.12 513.84,-188.11"/>
</g>
<!-- Node5 -->
<g id="node5" class="node">
<title>Node5</title>
<g id="a_node5"><a xlink:href="../../dc/dee/class_material.html" target="_top" xlink:title="A Material abstract base class.">
<polygon fill="white" stroke="black" points="500.8,-304.5 500.8,-484.5 658.8,-484.5 658.8,-304.5 500.8,-304.5"/>
<text text-anchor="middle" x="579.8" y="-471.7" font-family="Consolas" font-size="11.00">Material</text>
<polyline fill="none" stroke="black" points="500.8,-464.5 658.8,-464.5 "/>
<text text-anchor="middle" x="579.8" y="-451.7" font-family="Consolas" font-size="11.00"> </text>
<polyline fill="none" stroke="black" points="500.8,-444.5 658.8,-444.5 "/>
<text text-anchor="start" x="508.8" y="-431.7" font-family="Consolas" font-size="11.00">+ Material()</text>
<text text-anchor="start" x="508.8" y="-419.7" font-family="Consolas" font-size="11.00">+ Material()</text>
<text text-anchor="start" x="508.8" y="-407.7" font-family="Consolas" font-size="11.00">+ Material()</text>
<text text-anchor="start" x="508.8" y="-395.7" font-family="Consolas" font-size="11.00">+ operator=()</text>
<text text-anchor="start" x="508.8" y="-383.7" font-family="Consolas" font-size="11.00">+ operator=()</text>
<text text-anchor="start" x="508.8" y="-371.7" font-family="Consolas" font-size="11.00">+ ~Material()</text>
<text text-anchor="start" x="508.8" y="-359.7" font-family="Consolas" font-size="11.00">+ get_density()</text>
<text text-anchor="start" x="508.8" y="-347.7" font-family="Consolas" font-size="11.00">+ get_material_type()</text>
<text text-anchor="start" x="508.8" y="-335.7" font-family="Consolas" font-size="11.00">+ get_plane_type()</text>
<text text-anchor="start" x="508.8" y="-323.7" font-family="Consolas" font-size="11.00">+ initialize_base()</text>
<text text-anchor="start" x="508.8" y="-311.7" font-family="Consolas" font-size="11.00">and 72 more...</text>
</a>
</g>
</g>
<!-- Node5&#45;&gt;Node4 -->
<g id="edge4" class="edge">
<title>Node5&#45;&gt;Node4</title>
<path fill="none" stroke="midnightblue" d="M559.63,-294.49C557.62,-284.63 555.69,-275.15 553.96,-266.67"/>
<polygon fill="none" stroke="midnightblue" points="556.23,-295.34 561.65,-304.44 563.09,-293.95 556.23,-295.34"/>
</g>
<!-- Node6&#45;&gt;Node5 -->
<g id="edge5" class="edge">
<title>Node6&#45;&gt;Node5</title>
<path fill="none" stroke="darkgreen" d="M494.39,-632.74C509.83,-589.85 530.52,-532.38 547.67,-484.74"/>
<polygon fill="none" stroke="darkgreen" points="491.07,-631.62 490.98,-642.21 497.66,-633.99 491.07,-631.62"/>
</g>
<!-- Node7 -->
<g id="node7" class="node">
<title>Node7</title>
<g id="a_node7"><a xlink:title=" ">
<polygon fill="white" stroke="#bfbfbf" points="248.8,-979.5 248.8,-1039.5 366.8,-1039.5 366.8,-979.5 248.8,-979.5"/>
<text text-anchor="middle" x="307.8" y="-1026.7" font-family="Consolas" font-size="11.00">const PlaneType</text>
<polyline fill="none" stroke="#bfbfbf" points="248.8,-1019.5 366.8,-1019.5 "/>
<text text-anchor="middle" x="307.8" y="-1006.7" font-family="Consolas" font-size="11.00"> </text>
<polyline fill="none" stroke="#bfbfbf" points="248.8,-999.5 366.8,-999.5 "/>
<text text-anchor="middle" x="307.8" y="-986.7" font-family="Consolas" font-size="11.00"> </text>
</a>
</g>
</g>
<!-- Node7&#45;&gt;Node6 -->
<g id="edge7" class="edge">
<title>Node7&#45;&gt;Node6</title>
<path fill="none" stroke="#404040" d="M313.88,-979.38C323.31,-935.56 341.85,-855.01 355.8,-829 369.08,-804.23 387.87,-780.21 406.47,-759.64"/>
<polygon fill="none" stroke="#404040" points="406.55,-759.55 407.68,-752.43 414.69,-750.74 413.56,-757.86 406.55,-759.55"/>
<text text-anchor="middle" x="396.8" y="-892.2" font-family="Consolas" font-size="11.00"> +plane_type</text>
</g>
<!-- Node8 -->
<g id="node8" class="node">
<title>Node8</title>
<g id="a_node8"><a xlink:title=" ">
<polygon fill="white" stroke="#bfbfbf" points="623.3,-979.5 623.3,-1039.5 660.3,-1039.5 660.3,-979.5 623.3,-979.5"/>
<text text-anchor="middle" x="641.8" y="-1026.7" font-family="Consolas" font-size="11.00">mat</text>
<polyline fill="none" stroke="#bfbfbf" points="623.3,-1019.5 660.3,-1019.5 "/>
<text text-anchor="middle" x="641.8" y="-1006.7" font-family="Consolas" font-size="11.00"> </text>
<polyline fill="none" stroke="#bfbfbf" points="623.3,-999.5 660.3,-999.5 "/>
<text text-anchor="middle" x="641.8" y="-986.7" font-family="Consolas" font-size="11.00"> </text>
</a>
</g>
</g>
<!-- Node8&#45;&gt;Node6 -->
<g id="edge8" class="edge">
<title>Node8&#45;&gt;Node6</title>
<path fill="none" stroke="#404040" d="M623.06,-1001.93C605.5,-994.74 580.03,-981.44 566.8,-961 534.58,-911.25 567.2,-885.01 547.8,-829 539.71,-805.66 527.37,-781.79 514.96,-760.91"/>
<polygon fill="none" stroke="#404040" points="514.93,-760.85 508.39,-757.81 508.69,-750.6 515.23,-753.65 514.93,-760.85"/>
<text text-anchor="middle" x="627.8" y="-940.2" font-family="Consolas" font-size="11.00"> +current_damping</text>
<text text-anchor="middle" x="627.8" y="-928.2" font-family="Consolas" font-size="11.00">+current_inertial</text>
<text text-anchor="middle" x="627.8" y="-916.2" font-family="Consolas" font-size="11.00">+current_stiffness</text>
<text text-anchor="middle" x="627.8" y="-904.2" font-family="Consolas" font-size="11.00">+initial_damping</text>
<text text-anchor="middle" x="627.8" y="-892.2" font-family="Consolas" font-size="11.00">+initial_inertial</text>
<text text-anchor="middle" x="627.8" y="-880.2" font-family="Consolas" font-size="11.00">+initial_stiffness</text>
<text text-anchor="middle" x="627.8" y="-868.2" font-family="Consolas" font-size="11.00">+trial_damping</text>
<text text-anchor="middle" x="627.8" y="-856.2" font-family="Consolas" font-size="11.00">+trial_inertial</text>
<text text-anchor="middle" x="627.8" y="-844.2" font-family="Consolas" font-size="11.00">+trial_stiffness</text>
</g>
<!-- Node11 -->
<g id="node11" class="node">
<title>Node11</title>
<g id="a_node11"><a xlink:href="../../da/de4/struct_data_couple_material.html" target="_top" xlink:title=" ">
<polygon fill="white" stroke="black" points="617.8,-666.5 617.8,-726.5 755.8,-726.5 755.8,-666.5 617.8,-666.5"/>
<text text-anchor="middle" x="686.8" y="-713.7" font-family="Consolas" font-size="11.00">DataCoupleMaterial</text>
<polyline fill="none" stroke="black" points="617.8,-706.5 755.8,-706.5 "/>
<text text-anchor="middle" x="686.8" y="-693.7" font-family="Consolas" font-size="11.00"> </text>
<polyline fill="none" stroke="black" points="617.8,-686.5 755.8,-686.5 "/>
<text text-anchor="middle" x="686.8" y="-673.7" font-family="Consolas" font-size="11.00"> </text>
</a>
</g>
</g>
<!-- Node8&#45;&gt;Node11 -->
<g id="edge12" class="edge">
<title>Node8&#45;&gt;Node11</title>
<path fill="none" stroke="#404040" d="M660.32,-997.1C672.04,-988.73 686.18,-976.2 692.8,-961 724.64,-887.82 710.31,-792.05 697.94,-738.43"/>
<polygon fill="none" stroke="#404040" points="697.92,-738.37 692.63,-733.47 695.11,-726.7 700.4,-731.6 697.92,-738.37"/>
<text text-anchor="middle" x="799.8" y="-904.2" font-family="Consolas" font-size="11.00"> +current_couple_stiffness</text>
<text text-anchor="middle" x="799.8" y="-892.2" font-family="Consolas" font-size="11.00">+initial_couple_stiffness</text>
<text text-anchor="middle" x="799.8" y="-880.2" font-family="Consolas" font-size="11.00">+trial_couple_stiffness</text>
</g>
<!-- Node9 -->
<g id="node9" class="node">
<title>Node9</title>
<g id="a_node9"><a xlink:title=" ">
<polygon fill="white" stroke="#bfbfbf" points="384.8,-979.5 384.8,-1039.5 522.8,-1039.5 522.8,-979.5 384.8,-979.5"/>
<text text-anchor="middle" x="453.8" y="-1026.7" font-family="Consolas" font-size="11.00">const MaterialType</text>
<polyline fill="none" stroke="#bfbfbf" points="384.8,-1019.5 522.8,-1019.5 "/>
<text text-anchor="middle" x="453.8" y="-1006.7" font-family="Consolas" font-size="11.00"> </text>
<polyline fill="none" stroke="#bfbfbf" points="384.8,-999.5 522.8,-999.5 "/>
<text text-anchor="middle" x="453.8" y="-986.7" font-family="Consolas" font-size="11.00"> </text>
</a>
</g>
</g>
<!-- Node9&#45;&gt;Node6 -->
<g id="edge9" class="edge">
<title>Node9&#45;&gt;Node6</title>
<path fill="none" stroke="#404040" d="M448.12,-979.46C447.15,-973.38 446.3,-967 445.8,-961 440.91,-902.54 440.08,-887.39 445.8,-829 447.94,-807.12 452.04,-783.47 456.36,-762.35"/>
<polygon fill="none" stroke="#404040" points="456.37,-762.31 453.7,-755.62 458.85,-750.57 461.53,-757.27 456.37,-762.31"/>
<text text-anchor="middle" x="496.8" y="-892.2" font-family="Consolas" font-size="11.00"> +material_type</text>
</g>
<!-- Node10 -->
<g id="node10" class="node">
<title>Node10</title>
<g id="a_node10"><a xlink:title=" ">
<polygon fill="white" stroke="#bfbfbf" points="974.3,-979.5 974.3,-1039.5 1011.3,-1039.5 1011.3,-979.5 974.3,-979.5"/>
<text text-anchor="middle" x="992.8" y="-1026.7" font-family="Consolas" font-size="11.00">vec</text>
<polyline fill="none" stroke="#bfbfbf" points="974.3,-1019.5 1011.3,-1019.5 "/>
<text text-anchor="middle" x="992.8" y="-1006.7" font-family="Consolas" font-size="11.00"> </text>
<polyline fill="none" stroke="#bfbfbf" points="974.3,-999.5 1011.3,-999.5 "/>
<text text-anchor="middle" x="992.8" y="-986.7" font-family="Consolas" font-size="11.00"> </text>
</a>
</g>
</g>
<!-- Node10&#45;&gt;Node6 -->
<g id="edge10" class="edge">
<title>Node10&#45;&gt;Node6</title>
<path fill="none" stroke="#404040" d="M974.14,-1003.04C954.95,-996.4 925.81,-983.22 910.8,-961 877.6,-911.89 935.34,-869.21 891.8,-829 868.65,-807.62 638.08,-822.62 608.8,-811 579.65,-799.44 552.08,-779.2 529.41,-758.98"/>
<polygon fill="none" stroke="#404040" points="529.17,-758.76 522.05,-757.65 520.33,-750.65 527.46,-751.76 529.17,-758.76"/>
<text text-anchor="middle" x="978.8" y="-952.2" font-family="Consolas" font-size="11.00"> +current_history</text>
<text text-anchor="middle" x="978.8" y="-940.2" font-family="Consolas" font-size="11.00">+current_strain</text>
<text text-anchor="middle" x="978.8" y="-928.2" font-family="Consolas" font-size="11.00">+current_strain_acc</text>
<text text-anchor="middle" x="978.8" y="-916.2" font-family="Consolas" font-size="11.00">+current_strain_rate</text>
<text text-anchor="middle" x="978.8" y="-904.2" font-family="Consolas" font-size="11.00">+current_stress</text>
<text text-anchor="middle" x="978.8" y="-892.2" font-family="Consolas" font-size="11.00">+incre_strain</text>
<text text-anchor="middle" x="978.8" y="-880.2" font-family="Consolas" font-size="11.00">+incre_strain_acc</text>
<text text-anchor="middle" x="978.8" y="-868.2" font-family="Consolas" font-size="11.00">+incre_strain_rate</text>
<text text-anchor="middle" x="978.8" y="-856.2" font-family="Consolas" font-size="11.00">+incre_stress</text>
<text text-anchor="middle" x="978.8" y="-844.2" font-family="Consolas" font-size="11.00">+initial_history</text>
<text text-anchor="middle" x="978.8" y="-832.2" font-family="Consolas" font-size="11.00">...</text>
</g>
<!-- Node10&#45;&gt;Node11 -->
<g id="edge13" class="edge">
<title>Node10&#45;&gt;Node11</title>
<path fill="none" stroke="#404040" d="M1011.5,-999.07C1025.18,-991.03 1042.72,-978.06 1050.8,-961 1075.91,-907.98 1090.95,-871.77 1050.8,-829 1029.08,-805.87 793.44,-826.57 765.8,-811 737.1,-794.84 716.47,-763.4 703.5,-737.7"/>
<polygon fill="none" stroke="#404040" points="703.43,-737.56 697.23,-733.88 698.25,-726.74 704.45,-730.42 703.43,-737.56"/>
<text text-anchor="middle" x="1152.8" y="-922.2" font-family="Consolas" font-size="11.00"> +current_couple_stress</text>
<text text-anchor="middle" x="1152.8" y="-910.2" font-family="Consolas" font-size="11.00">+current_curvature</text>
<text text-anchor="middle" x="1152.8" y="-898.2" font-family="Consolas" font-size="11.00">+incre_couple_stress</text>
<text text-anchor="middle" x="1152.8" y="-886.2" font-family="Consolas" font-size="11.00">+incre_curvature</text>
<text text-anchor="middle" x="1152.8" y="-874.2" font-family="Consolas" font-size="11.00">+trial_couple_stress</text>
<text text-anchor="middle" x="1152.8" y="-862.2" font-family="Consolas" font-size="11.00">+trial_curvature</text>
</g>
<!-- Node11&#45;&gt;Node5 -->
<g id="edge11" class="edge">
<title>Node11&#45;&gt;Node5</title>
<path fill="none" stroke="darkgreen" d="M673.02,-656.88C657.59,-613.6 632.04,-541.99 611.59,-484.65"/>
<polygon fill="none" stroke="darkgreen" points="669.78,-658.22 676.44,-666.46 676.38,-655.87 669.78,-658.22"/>
</g>
<!-- Node12 -->
<g id="node12" class="node">
<title>Node12</title>
<g id="a_node12"><a xlink:href="../../d0/d57/class_tag.html" target="_top" xlink:title="A base Tag class.">
<polygon fill="white" stroke="black" points="774.3,-582.5 774.3,-810.5 885.3,-810.5 885.3,-582.5 774.3,-582.5"/>
<text text-anchor="middle" x="829.8" y="-797.7" font-family="Consolas" font-size="11.00">Tag</text>
<polyline fill="none" stroke="black" points="774.3,-790.5 885.3,-790.5 "/>
<text text-anchor="middle" x="829.8" y="-777.7" font-family="Consolas" font-size="11.00"> </text>
<polyline fill="none" stroke="black" points="774.3,-770.5 885.3,-770.5 "/>
<text text-anchor="start" x="782.3" y="-757.7" font-family="Consolas" font-size="11.00">+ Tag()</text>
<text text-anchor="start" x="782.3" y="-745.7" font-family="Consolas" font-size="11.00">+ Tag()</text>
<text text-anchor="start" x="782.3" y="-733.7" font-family="Consolas" font-size="11.00">+ Tag()</text>
<text text-anchor="start" x="782.3" y="-721.7" font-family="Consolas" font-size="11.00">+ operator=()</text>
<text text-anchor="start" x="782.3" y="-709.7" font-family="Consolas" font-size="11.00">+ operator=()</text>
<text text-anchor="start" x="782.3" y="-697.7" font-family="Consolas" font-size="11.00">+ ~Tag()</text>
<text text-anchor="start" x="782.3" y="-685.7" font-family="Consolas" font-size="11.00">+ set_tag()</text>
<text text-anchor="start" x="782.3" y="-673.7" font-family="Consolas" font-size="11.00">+ get_tag()</text>
<text text-anchor="start" x="782.3" y="-661.7" font-family="Consolas" font-size="11.00">+ enable()</text>
<text text-anchor="start" x="782.3" y="-649.7" font-family="Consolas" font-size="11.00">+ disable()</text>
<text text-anchor="start" x="782.3" y="-637.7" font-family="Consolas" font-size="11.00">+ guard()</text>
<text text-anchor="start" x="782.3" y="-625.7" font-family="Consolas" font-size="11.00">+ unguard()</text>
<text text-anchor="start" x="782.3" y="-613.7" font-family="Consolas" font-size="11.00">+ is_active()</text>
<text text-anchor="start" x="782.3" y="-601.7" font-family="Consolas" font-size="11.00">+ is_guarded()</text>
<text text-anchor="start" x="782.3" y="-589.7" font-family="Consolas" font-size="11.00">+ print()</text>
</a>
</g>
</g>
<!-- Node12&#45;&gt;Node5 -->
<g id="edge14" class="edge">
<title>Node12&#45;&gt;Node5</title>
<path fill="none" stroke="midnightblue" d="M768.33,-586.74C767.16,-585.14 765.98,-583.56 764.8,-582 733.44,-540.81 693.52,-499.49 658.8,-466.24"/>
<polygon fill="none" stroke="midnightblue" points="765.49,-588.79 774.14,-594.91 771.2,-584.73 765.49,-588.79"/>
</g>
</g>
</svg>
        <g id="navigator" transform="translate(0 0)" fill="#404254">
                <rect fill="#f2f5e9" fill-opacity="0.5" stroke="#606060" stroke-width=".5" x="0" y="0" width="60" height="60"/>
                <use id="zoomplus" xlink:href="#zoomPlus" x="17" y="9" onmousedown="handleZoom(evt,'in')"/>
                <use id="zoomminus" xlink:href="#zoomMin" x="42" y="9" onmousedown="handleZoom(evt,'out')"/>
                <use id="reset" xlink:href="#resetDef" x="30" y="36" onmousedown="handleReset()"/>
                <g id="arrowUp" xlink:href="#dirArrow" transform="translate(30 24)" onmousedown="handlePan(0,-1)">
                  <use xlink:href="#rim" fill="#404040">
                        <set attributeName="fill" to="#808080" begin="arrowUp.mouseover" end="arrowUp.mouseout"/>
                  </use>
                  <path fill="none" stroke="white" stroke-width="1.5" d="M0,-3.0v7 M-2.5,-0.5L0,-3.0L2.5,-0.5"/>
                </g>
                <g id="arrowRight" xlink:href="#dirArrow" transform="rotate(90) translate(36 -43)" onmousedown="handlePan(1,0)">
                  <use xlink:href="#rim" fill="#404040">
                        <set attributeName="fill" to="#808080" begin="arrowRight.mouseover" end="arrowRight.mouseout"/>
                  </use>
                  <path fill="none" stroke="white" stroke-width="1.5" d="M0,-3.0v7 M-2.5,-0.5L0,-3.0L2.5,-0.5"/>
                </g>
                <g id="arrowDown" xlink:href="#dirArrow" transform="rotate(180) translate(-30 -48)" onmousedown="handlePan(0,1)">
                  <use xlink:href="#rim" fill="#404040">
                        <set attributeName="fill" to="#808080" begin="arrowDown.mouseover" end="arrowDown.mouseout"/>
                  </use>
                  <path fill="none" stroke="white" stroke-width="1.5" d="M0,-3.0v7 M-2.5,-0.5L0,-3.0L2.5,-0.5"/>
                </g>
                <g id="arrowLeft" xlink:href="#dirArrow" transform="rotate(270) translate(-36 17)" onmousedown="handlePan(-1,0)">
                  <use xlink:href="#rim" fill="#404040">
                        <set attributeName="fill" to="#808080" begin="arrowLeft.mouseover" end="arrowLeft.mouseout"/>
                  </use>
                  <path fill="none" stroke="white" stroke-width="1.5" d="M0,-3.0v7 M-2.5,-0.5L0,-3.0L2.5,-0.5"/>
                </g>
        </g>
        <svg viewBox="0 0 15 15" width="100%" height="30px" preserveAspectRatio="xMaxYMin meet">
         <g id="arrow_out" transform="scale(0.3 0.3)">
          <a xlink:href="class_nonlinear_gurson__coll__graph_org.svg" target="_base">
           <rect id="button" ry="5" rx="5" y="6" x="6" height="38" width="38"
                fill="#f2f5e9" fill-opacity="0.5" stroke="#606060" stroke-width="1.0"/>
           <path id="arrow"
             d="M 11.500037,31.436501 C 11.940474,20.09759 22.043105,11.32322 32.158766,21.979434 L 37.068811,17.246167 C 37.068811,17.246167 37.088388,32 37.088388,32 L 22.160133,31.978069 C 22.160133,31.978069 26.997745,27.140456 26.997745,27.140456 C 18.528582,18.264221 13.291696,25.230495 11.500037,31.436501 z"
             style="fill:#404040;"/>
          </a>
         </g>
        </svg>
</svg>
