<?xml version="1.0" encoding="UTF-8" standalone="no"?>
<!DOCTYPE svg PUBLIC "-//W3C//DTD SVG 1.1//EN"
 "http://www.w3.org/Graphics/SVG/1.1/DTD/svg11.dtd">
<!-- Generated by graphviz version 2.43.0 (0)
 -->
<!-- Title: LeeElementalNewmark Pages: 1 -->
<svg width="210pt" height="1720pt"
 viewBox="0.00 0.00 210.00 1720.00" xmlns="http://www.w3.org/2000/svg" xmlns:xlink="http://www.w3.org/1999/xlink">
<g id="graph0" class="graph" transform="scale(1 1) rotate(0) translate(4 1716)">
<title>LeeElementalNewmark</title>
<!-- Node1 -->
<g id="Node000001" class="node">
<title>Node1</title>
<g id="a_Node000001"><a xlink:title=" ">
<polygon fill="#999999" stroke="transparent" points="170.5,-52 31.5,-52 31.5,0 170.5,0 170.5,-52"/>
<text text-anchor="start" x="37" y="-39.2" font-family="Consolas" font-size="11.00">LeeElementalNewmark</text>
<text text-anchor="start" x="98" y="-23.2" font-family="Consolas" font-size="11.00"> </text>
<text text-anchor="start" x="45.5" y="-7.2" font-family="Consolas" font-size="11.00">+</text>
<text text-anchor="start" x="66" y="-7.2" font-family="Consolas" font-size="11.00">LeeNewmark()</text>
<polygon fill="#666666" stroke="#666666" points="32,-34 32,-34 171,-34 171,-34 32,-34"/>
<polygon fill="#666666" stroke="#666666" points="32,-18 32,-18 171,-18 171,-18 32,-18"/>
<polygon fill="none" stroke="#666666" points="31.5,0 31.5,-52 170.5,-52 170.5,0 31.5,0"/>
</a>
</g>
</g>
<!-- Node2 -->
<g id="Node000002" class="node">
<title>Node2</title>
<g id="a_Node000002"><a xlink:href="../../d7/d28/class_lee_newmark.html" target="_top" xlink:title="A LeeNewmark class defines a solver using Newmark algorithm with Lee damping model.">
<polygon fill="white" stroke="transparent" points="181.5,-264 20.5,-264 20.5,-88 181.5,-88 181.5,-264"/>
<text text-anchor="start" x="67.5" y="-251.2" font-family="Consolas" font-size="11.00">LeeNewmark</text>
<text text-anchor="start" x="25" y="-235.2" font-family="Consolas" font-size="11.00">#</text>
<text text-anchor="start" x="36" y="-235.2" font-family="Consolas" font-size="11.00">current_mass</text>
<text text-anchor="start" x="25" y="-219.2" font-family="Consolas" font-size="11.00">#</text>
<text text-anchor="start" x="36" y="-219.2" font-family="Consolas" font-size="11.00">current_stiffness</text>
<text text-anchor="start" x="25" y="-203.2" font-family="Consolas" font-size="11.00">#</text>
<text text-anchor="start" x="36" y="-203.2" font-family="Consolas" font-size="11.00">current_geometry</text>
<text text-anchor="start" x="25" y="-187.2" font-family="Consolas" font-size="11.00">+</text>
<text text-anchor="start" x="36" y="-187.2" font-family="Consolas" font-size="11.00">LeeNewmark()</text>
<text text-anchor="start" x="25" y="-171.2" font-family="Consolas" font-size="11.00">+</text>
<text text-anchor="start" x="36" y="-171.2" font-family="Consolas" font-size="11.00">initialize()</text>
<text text-anchor="start" x="25" y="-155.2" font-family="Consolas" font-size="11.00">+</text>
<text text-anchor="start" x="36" y="-155.2" font-family="Consolas" font-size="11.00">process_constraint()</text>
<text text-anchor="start" x="25" y="-139.2" font-family="Consolas" font-size="11.00">+</text>
<text text-anchor="start" x="36" y="-139.2" font-family="Consolas" font-size="11.00">process_constraint</text>
<text text-anchor="start" x="36" y="-127.2" font-family="Consolas" font-size="11.00">_resistance()</text>
<text text-anchor="start" x="25" y="-111.2" font-family="Consolas" font-size="11.00">+</text>
<text text-anchor="start" x="36" y="-111.2" font-family="Consolas" font-size="11.00">assemble_resistance()</text>
<text text-anchor="start" x="25" y="-95.2" font-family="Consolas" font-size="11.00">+</text>
<text text-anchor="start" x="36" y="-95.2" font-family="Consolas" font-size="11.00">print()</text>
<polygon fill="#666666" stroke="#666666" points="21,-246 21,-246 182,-246 182,-246 21,-246"/>
<polygon fill="#666666" stroke="#666666" points="21,-198 21,-198 34,-198 34,-198 21,-198"/>
<polygon fill="#666666" stroke="#666666" points="34,-198 34,-198 182,-198 182,-198 34,-198"/>
<polygon fill="none" stroke="#666666" points="20.5,-88 20.5,-264 181.5,-264 181.5,-88 20.5,-88"/>
</a>
</g>
</g>
<!-- Node2&#45;&gt;Node1 -->
<g id="edge1_Node000001_Node000002" class="edge">
<title>Node2&#45;&gt;Node1</title>
<g id="a_edge1_Node000001_Node000002"><a xlink:title=" ">
<path fill="none" stroke="#63b8ff" d="M101,-77.5C101,-68.34 101,-59.71 101,-52.26"/>
<polygon fill="none" stroke="#63b8ff" points="97.5,-77.62 101,-87.62 104.5,-77.62 97.5,-77.62"/>
</a>
</g>
</g>
<!-- Node3 -->
<g id="Node000003" class="node">
<title>Node3</title>
<g id="a_Node000003"><a xlink:href="../../d2/d22/class_lee_newmark_base.html" target="_top" xlink:title="A LeeNewmarkBase class defines a solver using Newmark algorithm with Lee damping model.">
<polygon fill="white" stroke="transparent" points="202,-720 0,-720 0,-300 202,-300 202,-720"/>
<text text-anchor="start" x="53.5" y="-707.2" font-family="Consolas" font-size="11.00">LeeNewmarkBase</text>
<text text-anchor="start" x="4" y="-691.2" font-family="Consolas" font-size="11.00">#</text>
<text text-anchor="start" x="15" y="-691.2" font-family="Consolas" font-size="11.00">n_block</text>
<text text-anchor="start" x="4" y="-675.2" font-family="Consolas" font-size="11.00">#</text>
<text text-anchor="start" x="15" y="-675.2" font-family="Consolas" font-size="11.00">stiffness_type</text>
<text text-anchor="start" x="4" y="-659.2" font-family="Consolas" font-size="11.00">#</text>
<text text-anchor="start" x="15" y="-659.2" font-family="Consolas" font-size="11.00">first_iteration</text>
<text text-anchor="start" x="4" y="-643.2" font-family="Consolas" font-size="11.00">#</text>
<text text-anchor="start" x="15" y="-643.2" font-family="Consolas" font-size="11.00">if_iterative</text>
<text text-anchor="start" x="4" y="-627.2" font-family="Consolas" font-size="11.00">#</text>
<text text-anchor="start" x="15" y="-627.2" font-family="Consolas" font-size="11.00">current_internal</text>
<text text-anchor="start" x="4" y="-611.2" font-family="Consolas" font-size="11.00">#</text>
<text text-anchor="start" x="15" y="-611.2" font-family="Consolas" font-size="11.00">trial_internal</text>
<text text-anchor="start" x="4" y="-595.2" font-family="Consolas" font-size="11.00">#</text>
<text text-anchor="start" x="15" y="-595.2" font-family="Consolas" font-size="11.00">residual</text>
<text text-anchor="start" x="4" y="-579.2" font-family="Consolas" font-size="11.00">#</text>
<text text-anchor="start" x="15" y="-579.2" font-family="Consolas" font-size="11.00">stiffness</text>
<text text-anchor="start" x="4" y="-563.2" font-family="Consolas" font-size="11.00">#</text>
<text text-anchor="start" x="15" y="-563.2" font-family="Consolas" font-size="11.00">factory</text>
<text text-anchor="start" x="4" y="-547.2" font-family="Consolas" font-size="11.00">+</text>
<text text-anchor="start" x="15" y="-547.2" font-family="Consolas" font-size="11.00">LeeNewmarkBase()</text>
<text text-anchor="start" x="4" y="-531.2" font-family="Consolas" font-size="11.00">+</text>
<text text-anchor="start" x="15" y="-531.2" font-family="Consolas" font-size="11.00">initialize()</text>
<text text-anchor="start" x="4" y="-515.2" font-family="Consolas" font-size="11.00">+</text>
<text text-anchor="start" x="15" y="-515.2" font-family="Consolas" font-size="11.00">update_internal()</text>
<text text-anchor="start" x="4" y="-499.2" font-family="Consolas" font-size="11.00">+</text>
<text text-anchor="start" x="15" y="-499.2" font-family="Consolas" font-size="11.00">solve()</text>
<text text-anchor="start" x="4" y="-483.2" font-family="Consolas" font-size="11.00">+</text>
<text text-anchor="start" x="15" y="-483.2" font-family="Consolas" font-size="11.00">solve()</text>
<text text-anchor="start" x="4" y="-467.2" font-family="Consolas" font-size="11.00">+</text>
<text text-anchor="start" x="15" y="-467.2" font-family="Consolas" font-size="11.00">solve()</text>
<text text-anchor="start" x="4" y="-451.2" font-family="Consolas" font-size="11.00">+</text>
<text text-anchor="start" x="15" y="-451.2" font-family="Consolas" font-size="11.00">solve()</text>
<text text-anchor="start" x="4" y="-435.2" font-family="Consolas" font-size="11.00">+</text>
<text text-anchor="start" x="15" y="-435.2" font-family="Consolas" font-size="11.00">get_force_residual()</text>
<text text-anchor="start" x="4" y="-419.2" font-family="Consolas" font-size="11.00">+</text>
<text text-anchor="start" x="15" y="-419.2" font-family="Consolas" font-size="11.00">get_displacement_residual()</text>
<text text-anchor="start" x="4" y="-403.2" font-family="Consolas" font-size="11.00">+</text>
<text text-anchor="start" x="15" y="-403.2" font-family="Consolas" font-size="11.00">commit_status()</text>
<text text-anchor="start" x="4" y="-387.2" font-family="Consolas" font-size="11.00">+</text>
<text text-anchor="start" x="15" y="-387.2" font-family="Consolas" font-size="11.00">clear_status()</text>
<text text-anchor="start" x="4" y="-371.2" font-family="Consolas" font-size="11.00">+</text>
<text text-anchor="start" x="15" y="-371.2" font-family="Consolas" font-size="11.00">reset_status()</text>
<text text-anchor="start" x="4" y="-355.2" font-family="Consolas" font-size="11.00">#</text>
<text text-anchor="start" x="15" y="-355.2" font-family="Consolas" font-size="11.00">get_total_size()</text>
<text text-anchor="start" x="4" y="-339.2" font-family="Consolas" font-size="11.00">#</text>
<text text-anchor="start" x="15" y="-339.2" font-family="Consolas" font-size="11.00">update_stiffness()</text>
<text text-anchor="start" x="4" y="-323.2" font-family="Consolas" font-size="11.00">#</text>
<text text-anchor="start" x="15" y="-323.2" font-family="Consolas" font-size="11.00">update_residual()</text>
<text text-anchor="start" x="4" y="-307.2" font-family="Consolas" font-size="11.00">#</text>
<text text-anchor="start" x="15" y="-307.2" font-family="Consolas" font-size="11.00">erase_top_left_block()</text>
<polygon fill="#666666" stroke="#666666" points="0,-702 0,-702 202,-702 202,-702 0,-702"/>
<polygon fill="#666666" stroke="#666666" points="0,-558 0,-558 13,-558 13,-558 0,-558"/>
<polygon fill="#666666" stroke="#666666" points="13,-558 13,-558 202,-558 202,-558 13,-558"/>
<polygon fill="none" stroke="#666666" points="0,-300 0,-720 202,-720 202,-300 0,-300"/>
</a>
</g>
</g>
<!-- Node3&#45;&gt;Node2 -->
<g id="edge2_Node000002_Node000003" class="edge">
<title>Node3&#45;&gt;Node2</title>
<g id="a_edge2_Node000002_Node000003"><a xlink:title=" ">
<path fill="none" stroke="#63b8ff" d="M101,-289.67C101,-280.89 101,-272.32 101,-264.1"/>
<polygon fill="none" stroke="#63b8ff" points="97.5,-289.68 101,-299.68 104.5,-289.68 97.5,-289.68"/>
</a>
</g>
</g>
<!-- Node4 -->
<g id="Node000004" class="node">
<title>Node4</title>
<g id="a_Node000004"><a xlink:href="../../dd/d8e/class_newmark.html" target="_top" xlink:title="A Newmark class defines a solver using Newmark algorithm.">
<polygon fill="white" stroke="transparent" points="195,-1000 7,-1000 7,-756 195,-756 195,-1000"/>
<text text-anchor="start" x="77" y="-987.2" font-family="Consolas" font-size="11.00">Newmark</text>
<text text-anchor="start" x="11" y="-971.2" font-family="Consolas" font-size="11.00">#</text>
<text text-anchor="start" x="22" y="-971.2" font-family="Consolas" font-size="11.00">C0</text>
<text text-anchor="start" x="11" y="-955.2" font-family="Consolas" font-size="11.00">#</text>
<text text-anchor="start" x="22" y="-955.2" font-family="Consolas" font-size="11.00">C1</text>
<text text-anchor="start" x="11" y="-939.2" font-family="Consolas" font-size="11.00">#</text>
<text text-anchor="start" x="22" y="-939.2" font-family="Consolas" font-size="11.00">C2</text>
<text text-anchor="start" x="11" y="-923.2" font-family="Consolas" font-size="11.00">#</text>
<text text-anchor="start" x="22" y="-923.2" font-family="Consolas" font-size="11.00">C3</text>
<text text-anchor="start" x="11" y="-907.2" font-family="Consolas" font-size="11.00">#</text>
<text text-anchor="start" x="22" y="-907.2" font-family="Consolas" font-size="11.00">C4</text>
<text text-anchor="start" x="11" y="-891.2" font-family="Consolas" font-size="11.00">#</text>
<text text-anchor="start" x="22" y="-891.2" font-family="Consolas" font-size="11.00">C5</text>
<text text-anchor="start" x="11" y="-875.2" font-family="Consolas" font-size="11.00">+</text>
<text text-anchor="start" x="22" y="-875.2" font-family="Consolas" font-size="11.00">Newmark()</text>
<text text-anchor="start" x="11" y="-859.2" font-family="Consolas" font-size="11.00">+</text>
<text text-anchor="start" x="22" y="-859.2" font-family="Consolas" font-size="11.00">assemble_resistance()</text>
<text text-anchor="start" x="11" y="-843.2" font-family="Consolas" font-size="11.00">+</text>
<text text-anchor="start" x="22" y="-843.2" font-family="Consolas" font-size="11.00">assemble_matrix()</text>
<text text-anchor="start" x="11" y="-827.2" font-family="Consolas" font-size="11.00">+</text>
<text text-anchor="start" x="22" y="-827.2" font-family="Consolas" font-size="11.00">update_trial_status()</text>
<text text-anchor="start" x="11" y="-811.2" font-family="Consolas" font-size="11.00">+</text>
<text text-anchor="start" x="22" y="-811.2" font-family="Consolas" font-size="11.00">update_parameter()</text>
<text text-anchor="start" x="11" y="-795.2" font-family="Consolas" font-size="11.00">+</text>
<text text-anchor="start" x="22" y="-795.2" font-family="Consolas" font-size="11.00">from_incre_velocity()</text>
<text text-anchor="start" x="11" y="-779.2" font-family="Consolas" font-size="11.00">+</text>
<text text-anchor="start" x="22" y="-779.2" font-family="Consolas" font-size="11.00">from_incre_acceleration()</text>
<text text-anchor="start" x="11" y="-763.2" font-family="Consolas" font-size="11.00">+</text>
<text text-anchor="start" x="22" y="-763.2" font-family="Consolas" font-size="11.00">print()</text>
<polygon fill="#666666" stroke="#666666" points="7,-982 7,-982 195,-982 195,-982 7,-982"/>
<polygon fill="#666666" stroke="#666666" points="7,-886 7,-886 20,-886 20,-886 7,-886"/>
<polygon fill="#666666" stroke="#666666" points="20,-886 20,-886 195,-886 195,-886 20,-886"/>
<polygon fill="none" stroke="#666666" points="7,-756 7,-1000 195,-1000 195,-756 7,-756"/>
</a>
</g>
</g>
<!-- Node4&#45;&gt;Node3 -->
<g id="edge3_Node000003_Node000004" class="edge">
<title>Node4&#45;&gt;Node3</title>
<g id="a_edge3_Node000003_Node000004"><a xlink:title=" ">
<path fill="none" stroke="#63b8ff" d="M101,-745.69C101,-737.26 101,-728.67 101,-720"/>
<polygon fill="none" stroke="#63b8ff" points="97.5,-745.89 101,-755.89 104.5,-745.89 97.5,-745.89"/>
</a>
</g>
</g>
<!-- Node5 -->
<g id="Node000005" class="node">
<title>Node5</title>
<g id="a_Node000005"><a xlink:href="../../d2/df8/class_implicit_integrator.html" target="_top" xlink:title=" ">
<polygon fill="white" stroke="transparent" points="195,-1152 7,-1152 7,-1036 195,-1036 195,-1152"/>
<text text-anchor="start" x="40" y="-1139.2" font-family="Consolas" font-size="11.00">ImplicitIntegrator</text>
<text text-anchor="start" x="97.5" y="-1123.2" font-family="Consolas" font-size="11.00"> </text>
<text text-anchor="start" x="11" y="-1107.2" font-family="Consolas" font-size="11.00">+</text>
<text text-anchor="start" x="22" y="-1107.2" font-family="Consolas" font-size="11.00">type()</text>
<text text-anchor="start" x="11" y="-1091.2" font-family="Consolas" font-size="11.00">+</text>
<text text-anchor="start" x="22" y="-1091.2" font-family="Consolas" font-size="11.00">time_independent_matrix()</text>
<text text-anchor="start" x="11" y="-1075.2" font-family="Consolas" font-size="11.00">+</text>
<text text-anchor="start" x="22" y="-1075.2" font-family="Consolas" font-size="11.00">Integrator()</text>
<text text-anchor="start" x="11" y="-1059.2" font-family="Consolas" font-size="11.00">+</text>
<text text-anchor="start" x="22" y="-1059.2" font-family="Consolas" font-size="11.00">Integrator()</text>
<text text-anchor="start" x="11" y="-1043.2" font-family="Consolas" font-size="11.00">+</text>
<text text-anchor="start" x="22" y="-1043.2" font-family="Consolas" font-size="11.00">Integrator()</text>
<polygon fill="#666666" stroke="#666666" points="7,-1134 7,-1134 195,-1134 195,-1134 7,-1134"/>
<polygon fill="#666666" stroke="#666666" points="7,-1118 7,-1118 195,-1118 195,-1118 7,-1118"/>
<polygon fill="none" stroke="#666666" points="7,-1036 7,-1152 195,-1152 195,-1036 7,-1036"/>
</a>
</g>
</g>
<!-- Node5&#45;&gt;Node4 -->
<g id="edge4_Node000004_Node000005" class="edge">
<title>Node5&#45;&gt;Node4</title>
<g id="a_edge4_Node000004_Node000005"><a xlink:title=" ">
<path fill="none" stroke="#63b8ff" d="M101,-1025.78C101,-1017.6 101,-1009.05 101,-1000.38"/>
<polygon fill="none" stroke="#63b8ff" points="97.5,-1025.93 101,-1035.93 104.5,-1025.93 97.5,-1025.93"/>
</a>
</g>
</g>
<!-- Node6 -->
<g id="Node000006" class="node">
<title>Node6</title>
<g id="a_Node000006"><a xlink:href="../../d6/d55/class_integrator.html" target="_top" xlink:title="The Integrator class is basically a wrapper of the DomainBase class with regard to some status changi...">
<polygon fill="white" stroke="transparent" points="158,-1400 44,-1400 44,-1188 158,-1188 158,-1400"/>
<text text-anchor="start" x="67" y="-1387.2" font-family="Consolas" font-size="11.00">Integrator</text>
<text text-anchor="start" x="97.5" y="-1371.2" font-family="Consolas" font-size="11.00"> </text>
<text text-anchor="start" x="48" y="-1355.2" font-family="Consolas" font-size="11.00">+</text>
<text text-anchor="start" x="59" y="-1355.2" font-family="Consolas" font-size="11.00">Integrator()</text>
<text text-anchor="start" x="48" y="-1339.2" font-family="Consolas" font-size="11.00">+</text>
<text text-anchor="start" x="59" y="-1339.2" font-family="Consolas" font-size="11.00">Integrator()</text>
<text text-anchor="start" x="48" y="-1323.2" font-family="Consolas" font-size="11.00">+</text>
<text text-anchor="start" x="59" y="-1323.2" font-family="Consolas" font-size="11.00">Integrator()</text>
<text text-anchor="start" x="48" y="-1307.2" font-family="Consolas" font-size="11.00">+</text>
<text text-anchor="start" x="59" y="-1307.2" font-family="Consolas" font-size="11.00">operator=()</text>
<text text-anchor="start" x="48" y="-1291.2" font-family="Consolas" font-size="11.00">+</text>
<text text-anchor="start" x="59" y="-1291.2" font-family="Consolas" font-size="11.00">operator=()</text>
<text text-anchor="start" x="48" y="-1275.2" font-family="Consolas" font-size="11.00">+</text>
<text text-anchor="start" x="59" y="-1275.2" font-family="Consolas" font-size="11.00">~Integrator()</text>
<text text-anchor="start" x="48" y="-1259.2" font-family="Consolas" font-size="11.00">+</text>
<text text-anchor="start" x="59" y="-1259.2" font-family="Consolas" font-size="11.00">set_domain()</text>
<text text-anchor="start" x="48" y="-1243.2" font-family="Consolas" font-size="11.00">+</text>
<text text-anchor="start" x="59" y="-1243.2" font-family="Consolas" font-size="11.00">get_domain()</text>
<text text-anchor="start" x="48" y="-1227.2" font-family="Consolas" font-size="11.00">+</text>
<text text-anchor="start" x="59" y="-1227.2" font-family="Consolas" font-size="11.00">initialize()</text>
<text text-anchor="start" x="48" y="-1211.2" font-family="Consolas" font-size="11.00">+</text>
<text text-anchor="start" x="59" y="-1211.2" font-family="Consolas" font-size="11.00">type()</text>
<text text-anchor="start" x="59" y="-1195.2" font-family="Consolas" font-size="11.00">and 54 more...</text>
<polygon fill="#666666" stroke="#666666" points="44,-1382 44,-1382 158,-1382 158,-1382 44,-1382"/>
<polygon fill="#666666" stroke="#666666" points="44,-1366 44,-1366 158,-1366 158,-1366 44,-1366"/>
<polygon fill="none" stroke="#666666" points="44,-1188 44,-1400 158,-1400 158,-1188 44,-1188"/>
</a>
</g>
</g>
<!-- Node6&#45;&gt;Node5 -->
<g id="edge5_Node000005_Node000006" class="edge">
<title>Node6&#45;&gt;Node5</title>
<g id="a_edge5_Node000005_Node000006"><a xlink:title=" ">
<path fill="none" stroke="#63b8ff" d="M101,-1177.86C101,-1169.01 101,-1160.33 101,-1152.13"/>
<polygon fill="none" stroke="#63b8ff" points="97.5,-1177.91 101,-1187.91 104.5,-1177.91 97.5,-1177.91"/>
</a>
</g>
</g>
<!-- Node7 -->
<g id="Node000007" class="node">
<title>Node7</title>
<g id="a_Node000007"><a xlink:href="../../d0/d57/class_tag.html" target="_top" xlink:title="A base Tag class.">
<polygon fill="white" stroke="transparent" points="151.5,-1712 50.5,-1712 50.5,-1436 151.5,-1436 151.5,-1712"/>
<text text-anchor="start" x="91" y="-1699.2" font-family="Consolas" font-size="11.00">Tag</text>
<text text-anchor="start" x="98" y="-1683.2" font-family="Consolas" font-size="11.00"> </text>
<text text-anchor="start" x="55" y="-1667.2" font-family="Consolas" font-size="11.00">+</text>
<text text-anchor="start" x="66" y="-1667.2" font-family="Consolas" font-size="11.00">Tag()</text>
<text text-anchor="start" x="55" y="-1651.2" font-family="Consolas" font-size="11.00">+</text>
<text text-anchor="start" x="66" y="-1651.2" font-family="Consolas" font-size="11.00">Tag()</text>
<text text-anchor="start" x="55" y="-1635.2" font-family="Consolas" font-size="11.00">+</text>
<text text-anchor="start" x="66" y="-1635.2" font-family="Consolas" font-size="11.00">Tag()</text>
<text text-anchor="start" x="55" y="-1619.2" font-family="Consolas" font-size="11.00">+</text>
<text text-anchor="start" x="66" y="-1619.2" font-family="Consolas" font-size="11.00">operator=()</text>
<text text-anchor="start" x="55" y="-1603.2" font-family="Consolas" font-size="11.00">+</text>
<text text-anchor="start" x="66" y="-1603.2" font-family="Consolas" font-size="11.00">operator=()</text>
<text text-anchor="start" x="55" y="-1587.2" font-family="Consolas" font-size="11.00">+</text>
<text text-anchor="start" x="66" y="-1587.2" font-family="Consolas" font-size="11.00">~Tag()</text>
<text text-anchor="start" x="55" y="-1571.2" font-family="Consolas" font-size="11.00">+</text>
<text text-anchor="start" x="66" y="-1571.2" font-family="Consolas" font-size="11.00">set_tag()</text>
<text text-anchor="start" x="55" y="-1555.2" font-family="Consolas" font-size="11.00">+</text>
<text text-anchor="start" x="66" y="-1555.2" font-family="Consolas" font-size="11.00">get_tag()</text>
<text text-anchor="start" x="55" y="-1539.2" font-family="Consolas" font-size="11.00">+</text>
<text text-anchor="start" x="66" y="-1539.2" font-family="Consolas" font-size="11.00">enable()</text>
<text text-anchor="start" x="55" y="-1523.2" font-family="Consolas" font-size="11.00">+</text>
<text text-anchor="start" x="66" y="-1523.2" font-family="Consolas" font-size="11.00">disable()</text>
<text text-anchor="start" x="55" y="-1507.2" font-family="Consolas" font-size="11.00">+</text>
<text text-anchor="start" x="66" y="-1507.2" font-family="Consolas" font-size="11.00">guard()</text>
<text text-anchor="start" x="55" y="-1491.2" font-family="Consolas" font-size="11.00">+</text>
<text text-anchor="start" x="66" y="-1491.2" font-family="Consolas" font-size="11.00">unguard()</text>
<text text-anchor="start" x="55" y="-1475.2" font-family="Consolas" font-size="11.00">+</text>
<text text-anchor="start" x="66" y="-1475.2" font-family="Consolas" font-size="11.00">is_active()</text>
<text text-anchor="start" x="55" y="-1459.2" font-family="Consolas" font-size="11.00">+</text>
<text text-anchor="start" x="66" y="-1459.2" font-family="Consolas" font-size="11.00">is_guarded()</text>
<text text-anchor="start" x="55" y="-1443.2" font-family="Consolas" font-size="11.00">+</text>
<text text-anchor="start" x="66" y="-1443.2" font-family="Consolas" font-size="11.00">print()</text>
<polygon fill="#666666" stroke="#666666" points="51,-1694 51,-1694 152,-1694 152,-1694 51,-1694"/>
<polygon fill="#666666" stroke="#666666" points="51,-1678 51,-1678 152,-1678 152,-1678 51,-1678"/>
<polygon fill="none" stroke="#666666" points="50.5,-1436 50.5,-1712 151.5,-1712 151.5,-1436 50.5,-1436"/>
</a>
</g>
</g>
<!-- Node7&#45;&gt;Node6 -->
<g id="edge6_Node000006_Node000007" class="edge">
<title>Node7&#45;&gt;Node6</title>
<g id="a_edge6_Node000006_Node000007"><a xlink:title=" ">
<path fill="none" stroke="#63b8ff" d="M101,-1425.59C101,-1417.05 101,-1408.55 101,-1400.23"/>
<polygon fill="none" stroke="#63b8ff" points="97.5,-1425.63 101,-1435.63 104.5,-1425.63 97.5,-1425.63"/>
</a>
</g>
</g>
</g>
</svg>
