<svg xmlns="http://www.w3.org/2000/svg" xmlns:xlink="http://www.w3.org/1999/xlink" width="740" height="146pt" viewBox="0 0 555 146"><g class="graph" transform="translate(4 142)"><title>NURBSSurface::evaluate_point_derivative</title><g class="node"><title>Node1</title><a>
<path fill="#999" stroke="#666" d="M165-76H0v32h165z"/>
<text x="8" y="-63.2" font-family="Consolas" font-size="11">NURBSSurface::evaluate</text>
<text x="82.5" y="-51.2" font-family="Consolas" font-size="11" text-anchor="middle">_point_derivative</text>
</a></g><g class="node"><title>Node2</title><a xlink:href="../../db/d57/class_b_spline_surface.html#a7c89046f2cbf1bd85667c3bffbd55ba9" target="_top">
<path fill="#fff" stroke="#666" d="M380-120H201v32h179z"/>
<text x="209" y="-107.2" font-family="Consolas" font-size="11">BSplineSurface::evaluate</text>
<text x="290.5" y="-95.2" font-family="Consolas" font-size="11" text-anchor="middle">_point_derivative</text>
</a></g><g class="edge"><title>Node1-&gt;Node2</title><a>
<path fill="none" stroke="#63b8ff" d="M158.45-76.01c14.91-3.18 30.67-6.55 45.9-9.8"/>
<path fill="#63b8ff" stroke="#63b8ff" d="m203.75-89.26 10.51 1.33-9.05 5.51z"/>
</a></g><g class="node"><title>Node3</title><a xlink:href="../../dd/dd9/class_b_spline.html#a0a71074d51381e14c1640b80ef2b13ee" target="_top">
<path fill="#fff" stroke="#666" d="M359.5-70h-138v20h138z"/>
<text x="290.5" y="-57.2" font-family="Consolas" font-size="11" text-anchor="middle">BSpline::get_order</text>
</a></g><g class="edge"><title>Node1-&gt;Node3</title><a>
<path fill="none" stroke="#63b8ff" d="M165.21-60h45.99"/>
<path fill="#63b8ff" stroke="#63b8ff" d="m211.48-63.5 10 3.5-10 3.5z"/>
</a></g><g class="node"><title>Node4</title><a xlink:href="../../d9/d8f/class_n_u_r_b_s_base.html#a8d9ee9f957a5af292c2c597cf6b83440" target="_top">
<path fill="#fff" stroke="#666" d="M369.5-32h-158V0h158z"/>
<text x="219.5" y="-19.2" font-family="Consolas" font-size="11">NURBSBase::initialize</text>
<text x="290.5" y="-7.2" font-family="Consolas" font-size="11" text-anchor="middle">_binomial</text>
</a></g><g class="edge"><title>Node1-&gt;Node4</title><a>
<path fill="none" stroke="#63b8ff" d="M158.45-43.99c14.91 3.18 30.67 6.55 45.9 9.8"/>
<path fill="#63b8ff" stroke="#63b8ff" d="m205.21-37.58 9.05 5.51-10.51 1.33z"/>
</a></g><g class="edge"><title>Node2-&gt;Node2</title><a>
<path fill="none" stroke="#63b8ff" d="M256.83-120.09c-6.87-9.28 4.35-17.91 33.67-17.91 17.86 0 29.01 3.21 33.44 7.81"/>
<path fill="#63b8ff" stroke="#63b8ff" d="m327.44-130.17-3.27 10.08-3.73-9.92z"/>
</a></g><g class="node"><title>Node5</title><a xlink:href="../../d6/d9c/namespacesuanpan.html#a8f2820150f9540ea86c23b8c925ddc19" target="_top">
<path fill="#fff" stroke="#666" d="M547-26H416v20h131z"/>
<text x="481.5" y="-13.2" font-family="Consolas" font-size="11" text-anchor="middle">suanpan::binomial</text>
</a></g><g class="edge"><title>Node4-&gt;Node5</title><a>
<path fill="none" stroke="#63b8ff" d="M369.74-16h35.86"/>
<path fill="#63b8ff" stroke="#63b8ff" d="m405.83-19.5 10 3.5-10 3.5z"/>
</a></g></g></svg>