<?xml version="1.0" encoding="UTF-8" standalone="no"?>
<!DOCTYPE svg PUBLIC "-//W3C//DTD SVG 1.1//EN"
 "http://www.w3.org/Graphics/SVG/1.1/DTD/svg11.dtd">
<!-- Generated by graphviz version 2.43.0 (0)
 -->
<!-- Title: MultilinearOO Pages: 1 -->
<svg width="1283pt" height="1304pt"
 viewBox="0.00 0.00 1282.80 1304.00" xmlns="http://www.w3.org/2000/svg" xmlns:xlink="http://www.w3.org/1999/xlink">
<g id="graph0" class="graph" transform="scale(1 1) rotate(0) translate(4 1300)">
<title>MultilinearOO</title>
<polygon fill="white" stroke="transparent" points="-4,4 -4,-1300 1278.8,-1300 1278.8,4 -4,4"/>
<!-- Node1 -->
<g id="node1" class="node">
<title>Node1</title>
<g id="a_node1"><a xlink:title="A MultilinearOO material class.">
<polygon fill="#bfbfbf" stroke="black" points="180.3,-0.5 180.3,-96.5 311.3,-96.5 311.3,-0.5 180.3,-0.5"/>
<text text-anchor="middle" x="245.8" y="-83.7" font-family="Consolas" font-size="11.00">MultilinearOO</text>
<polyline fill="none" stroke="black" points="180.3,-76.5 311.3,-76.5 "/>
<text text-anchor="middle" x="245.8" y="-63.7" font-family="Consolas" font-size="11.00"> </text>
<polyline fill="none" stroke="black" points="180.3,-56.5 311.3,-56.5 "/>
<text text-anchor="start" x="188.3" y="-43.7" font-family="Consolas" font-size="11.00">+ MultilinearOO()</text>
<text text-anchor="start" x="188.3" y="-31.7" font-family="Consolas" font-size="11.00">+ initialize()</text>
<text text-anchor="start" x="188.3" y="-19.7" font-family="Consolas" font-size="11.00">+ get_copy()</text>
<text text-anchor="start" x="188.3" y="-7.7" font-family="Consolas" font-size="11.00">+ print()</text>
</a>
</g>
</g>
<!-- Node2 -->
<g id="node2" class="node">
<title>Node2</title>
<g id="a_node2"><a xlink:href="../../d3/d18/struct_data_multilinear_o_o.html" target="_top" xlink:title=" ">
<polygon fill="white" stroke="black" points="94.3,-759.5 94.3,-819.5 225.3,-819.5 225.3,-759.5 94.3,-759.5"/>
<text text-anchor="middle" x="159.8" y="-806.7" font-family="Consolas" font-size="11.00">DataMultilinearOO</text>
<polyline fill="none" stroke="black" points="94.3,-799.5 225.3,-799.5 "/>
<text text-anchor="middle" x="159.8" y="-786.7" font-family="Consolas" font-size="11.00"> </text>
<polyline fill="none" stroke="black" points="94.3,-779.5 225.3,-779.5 "/>
<text text-anchor="middle" x="159.8" y="-766.7" font-family="Consolas" font-size="11.00"> </text>
</a>
</g>
</g>
<!-- Node2&#45;&gt;Node1 -->
<g id="edge1" class="edge">
<title>Node2&#45;&gt;Node1</title>
<path fill="none" stroke="darkgreen" d="M176.94,-750.1C198.8,-697.57 233.8,-599.83 233.8,-512.5 233.8,-512.5 233.8,-512.5 233.8,-163.5 233.8,-141.41 236.05,-117.04 238.61,-96.53"/>
<polygon fill="none" stroke="darkgreen" points="173.7,-748.8 173.03,-759.37 180.14,-751.53 173.7,-748.8"/>
</g>
<!-- Node3 -->
<g id="node3" class="node">
<title>Node3</title>
<g id="a_node3"><a xlink:title=" ">
<polygon fill="white" stroke="#bfbfbf" points="99.3,-1235.5 99.3,-1295.5 136.3,-1295.5 136.3,-1235.5 99.3,-1235.5"/>
<text text-anchor="middle" x="117.8" y="-1282.7" font-family="Consolas" font-size="11.00">mat</text>
<polyline fill="none" stroke="#bfbfbf" points="99.3,-1275.5 136.3,-1275.5 "/>
<text text-anchor="middle" x="117.8" y="-1262.7" font-family="Consolas" font-size="11.00"> </text>
<polyline fill="none" stroke="#bfbfbf" points="99.3,-1255.5 136.3,-1255.5 "/>
<text text-anchor="middle" x="117.8" y="-1242.7" font-family="Consolas" font-size="11.00"> </text>
</a>
</g>
</g>
<!-- Node3&#45;&gt;Node2 -->
<g id="edge2" class="edge">
<title>Node3&#45;&gt;Node2</title>
<path fill="none" stroke="#404040" d="M99.09,-1261.7C75.44,-1257.05 35.67,-1245.27 17.8,-1217 -13.55,-1167.41 4.73,-1142.19 17.8,-1085 40.08,-987.47 98.99,-884.64 133.53,-830.04"/>
<polygon fill="none" stroke="#404040" points="133.63,-829.89 133.49,-822.68 140.09,-819.78 140.23,-826.99 133.63,-829.89"/>
<text text-anchor="middle" x="58.8" y="-1154.2" font-family="Consolas" font-size="11.00"> +c_backbone</text>
<text text-anchor="middle" x="58.8" y="-1142.2" font-family="Consolas" font-size="11.00">+t_backbone</text>
</g>
<!-- Node10 -->
<g id="node10" class="node">
<title>Node10</title>
<g id="a_node10"><a xlink:href="../../de/de9/struct_data_material.html" target="_top" xlink:title=" ">
<polygon fill="white" stroke="black" points="494.3,-898.5 494.3,-1006.5 639.3,-1006.5 639.3,-898.5 494.3,-898.5"/>
<text text-anchor="middle" x="566.8" y="-993.7" font-family="Consolas" font-size="11.00">DataMaterial</text>
<polyline fill="none" stroke="black" points="494.3,-986.5 639.3,-986.5 "/>
<text text-anchor="start" x="502.3" y="-973.7" font-family="Consolas" font-size="11.00">+ trial_strain</text>
<text text-anchor="start" x="502.3" y="-961.7" font-family="Consolas" font-size="11.00">+ trial_strain_rate</text>
<text text-anchor="start" x="502.3" y="-949.7" font-family="Consolas" font-size="11.00">+ trial_strain_acc</text>
<text text-anchor="start" x="502.3" y="-937.7" font-family="Consolas" font-size="11.00">+ trial_stress</text>
<text text-anchor="start" x="502.3" y="-925.7" font-family="Consolas" font-size="11.00">+ trial_history</text>
<polyline fill="none" stroke="black" points="494.3,-918.5 639.3,-918.5 "/>
<text text-anchor="middle" x="566.8" y="-905.7" font-family="Consolas" font-size="11.00"> </text>
</a>
</g>
</g>
<!-- Node3&#45;&gt;Node10 -->
<g id="edge12" class="edge">
<title>Node3&#45;&gt;Node10</title>
<path fill="none" stroke="#404040" d="M136.46,-1262.08C177.49,-1256.37 273.59,-1240.72 294.8,-1217 334.34,-1172.76 271.91,-1126.01 314.8,-1085 342.26,-1058.75 451.93,-1086.05 484.8,-1067 505.12,-1055.22 521.79,-1036.16 534.66,-1017"/>
<polygon fill="none" stroke="#404040" points="534.77,-1016.81 534.63,-1009.6 541.23,-1006.7 541.37,-1013.91 534.77,-1016.81"/>
<text text-anchor="middle" x="375.8" y="-1196.2" font-family="Consolas" font-size="11.00"> +current_damping</text>
<text text-anchor="middle" x="375.8" y="-1184.2" font-family="Consolas" font-size="11.00">+current_inertial</text>
<text text-anchor="middle" x="375.8" y="-1172.2" font-family="Consolas" font-size="11.00">+current_stiffness</text>
<text text-anchor="middle" x="375.8" y="-1160.2" font-family="Consolas" font-size="11.00">+initial_damping</text>
<text text-anchor="middle" x="375.8" y="-1148.2" font-family="Consolas" font-size="11.00">+initial_inertial</text>
<text text-anchor="middle" x="375.8" y="-1136.2" font-family="Consolas" font-size="11.00">+initial_stiffness</text>
<text text-anchor="middle" x="375.8" y="-1124.2" font-family="Consolas" font-size="11.00">+trial_damping</text>
<text text-anchor="middle" x="375.8" y="-1112.2" font-family="Consolas" font-size="11.00">+trial_inertial</text>
<text text-anchor="middle" x="375.8" y="-1100.2" font-family="Consolas" font-size="11.00">+trial_stiffness</text>
</g>
<!-- Node14 -->
<g id="node14" class="node">
<title>Node14</title>
<g id="a_node14"><a xlink:href="../../da/de4/struct_data_couple_material.html" target="_top" xlink:title=" ">
<polygon fill="white" stroke="black" points="208.8,-922.5 208.8,-982.5 346.8,-982.5 346.8,-922.5 208.8,-922.5"/>
<text text-anchor="middle" x="277.8" y="-969.7" font-family="Consolas" font-size="11.00">DataCoupleMaterial</text>
<polyline fill="none" stroke="black" points="208.8,-962.5 346.8,-962.5 "/>
<text text-anchor="middle" x="277.8" y="-949.7" font-family="Consolas" font-size="11.00"> </text>
<polyline fill="none" stroke="black" points="208.8,-942.5 346.8,-942.5 "/>
<text text-anchor="middle" x="277.8" y="-929.7" font-family="Consolas" font-size="11.00"> </text>
</a>
</g>
</g>
<!-- Node3&#45;&gt;Node14 -->
<g id="edge16" class="edge">
<title>Node3&#45;&gt;Node14</title>
<path fill="none" stroke="#404040" d="M110.76,-1235.49C103.37,-1198.56 95.7,-1133.72 118.8,-1085 138.13,-1044.23 176.93,-1011.74 211.37,-989.26"/>
<polygon fill="none" stroke="#404040" points="211.74,-989.02 214.68,-982.43 221.89,-982.6 218.95,-989.19 211.74,-989.02"/>
<text text-anchor="middle" x="206.8" y="-1160.2" font-family="Consolas" font-size="11.00"> +current_couple_stiffness</text>
<text text-anchor="middle" x="206.8" y="-1148.2" font-family="Consolas" font-size="11.00">+initial_couple_stiffness</text>
<text text-anchor="middle" x="206.8" y="-1136.2" font-family="Consolas" font-size="11.00">+trial_couple_stiffness</text>
</g>
<!-- Node4 -->
<g id="node4" class="node">
<title>Node4</title>
<g id="a_node4"><a xlink:href="../../df/d4f/class_origin_oriented.html" target="_top" xlink:title="A OriginOriented material class.">
<polygon fill="white" stroke="black" points="306.8,-134.5 306.8,-194.5 444.8,-194.5 444.8,-134.5 306.8,-134.5"/>
<text text-anchor="middle" x="375.8" y="-181.7" font-family="Consolas" font-size="11.00">OriginOriented</text>
<polyline fill="none" stroke="black" points="306.8,-174.5 444.8,-174.5 "/>
<text text-anchor="middle" x="375.8" y="-161.7" font-family="Consolas" font-size="11.00"> </text>
<polyline fill="none" stroke="black" points="306.8,-154.5 444.8,-154.5 "/>
<text text-anchor="start" x="314.8" y="-141.7" font-family="Consolas" font-size="11.00">+ OriginOriented()</text>
</a>
</g>
</g>
<!-- Node4&#45;&gt;Node1 -->
<g id="edge3" class="edge">
<title>Node4&#45;&gt;Node1</title>
<path fill="none" stroke="midnightblue" d="M335.07,-127.79C323.83,-117.93 311.45,-107.07 299.59,-96.67"/>
<polygon fill="none" stroke="midnightblue" points="332.83,-130.48 342.66,-134.44 337.45,-125.21 332.83,-130.48"/>
</g>
<!-- Node5 -->
<g id="node5" class="node">
<title>Node5</title>
<g id="a_node5"><a xlink:href="../../d8/d70/class_simple_hysteresis.html" target="_top" xlink:title="A SimpleHysteresis material class.">
<polygon fill="white" stroke="black" points="334.8,-232.5 334.8,-340.5 506.8,-340.5 506.8,-232.5 334.8,-232.5"/>
<text text-anchor="middle" x="420.8" y="-327.7" font-family="Consolas" font-size="11.00">SimpleHysteresis</text>
<polyline fill="none" stroke="black" points="334.8,-320.5 506.8,-320.5 "/>
<text text-anchor="middle" x="420.8" y="-307.7" font-family="Consolas" font-size="11.00"> </text>
<polyline fill="none" stroke="black" points="334.8,-300.5 506.8,-300.5 "/>
<text text-anchor="start" x="342.8" y="-287.7" font-family="Consolas" font-size="11.00">+ SimpleHysteresis()</text>
<text text-anchor="start" x="342.8" y="-275.7" font-family="Consolas" font-size="11.00">+ update_trial_status()</text>
<text text-anchor="start" x="342.8" y="-263.7" font-family="Consolas" font-size="11.00">+ clear_status()</text>
<text text-anchor="start" x="342.8" y="-251.7" font-family="Consolas" font-size="11.00">+ commit_status()</text>
<text text-anchor="start" x="342.8" y="-239.7" font-family="Consolas" font-size="11.00">+ reset_status()</text>
</a>
</g>
</g>
<!-- Node5&#45;&gt;Node4 -->
<g id="edge4" class="edge">
<title>Node5&#45;&gt;Node4</title>
<path fill="none" stroke="midnightblue" d="M397.27,-222.76C393.59,-212.94 389.94,-203.22 386.73,-194.66"/>
<polygon fill="none" stroke="midnightblue" points="394.01,-224.03 400.8,-232.17 400.56,-221.58 394.01,-224.03"/>
</g>
<!-- Node6 -->
<g id="node6" class="node">
<title>Node6</title>
<g id="a_node6"><a xlink:href="../../dc/da5/struct_data_simple_hysteresis.html" target="_top" xlink:title=" ">
<polygon fill="white" stroke="black" points="779.8,-481.5 779.8,-541.5 931.8,-541.5 931.8,-481.5 779.8,-481.5"/>
<text text-anchor="middle" x="855.8" y="-528.7" font-family="Consolas" font-size="11.00">DataSimpleHysteresis</text>
<polyline fill="none" stroke="black" points="779.8,-521.5 931.8,-521.5 "/>
<text text-anchor="middle" x="855.8" y="-508.7" font-family="Consolas" font-size="11.00"> </text>
<polyline fill="none" stroke="black" points="779.8,-501.5 931.8,-501.5 "/>
<text text-anchor="middle" x="855.8" y="-488.7" font-family="Consolas" font-size="11.00"> </text>
</a>
</g>
</g>
<!-- Node6&#45;&gt;Node5 -->
<g id="edge5" class="edge">
<title>Node6&#45;&gt;Node5</title>
<path fill="none" stroke="darkgreen" d="M789.96,-476.75C714.37,-438 590.14,-374.31 506.93,-331.65"/>
<polygon fill="none" stroke="darkgreen" points="788.43,-479.9 798.93,-481.35 791.63,-473.67 788.43,-479.9"/>
</g>
<!-- Node7 -->
<g id="node7" class="node">
<title>Node7</title>
<g id="a_node7"><a xlink:title=" ">
<polygon fill="white" stroke="#bfbfbf" points="1086.3,-1235.5 1086.3,-1295.5 1143.3,-1295.5 1143.3,-1235.5 1086.3,-1235.5"/>
<text text-anchor="middle" x="1114.8" y="-1282.7" font-family="Consolas" font-size="11.00">double</text>
<polyline fill="none" stroke="#bfbfbf" points="1086.3,-1275.5 1143.3,-1275.5 "/>
<text text-anchor="middle" x="1114.8" y="-1262.7" font-family="Consolas" font-size="11.00"> </text>
<polyline fill="none" stroke="#bfbfbf" points="1086.3,-1255.5 1143.3,-1255.5 "/>
<text text-anchor="middle" x="1114.8" y="-1242.7" font-family="Consolas" font-size="11.00"> </text>
</a>
</g>
</g>
<!-- Node7&#45;&gt;Node6 -->
<g id="edge6" class="edge">
<title>Node7&#45;&gt;Node6</title>
<path fill="none" stroke="#404040" d="M1143.62,-1253.59C1159.43,-1245.94 1177.64,-1234.01 1186.8,-1217 1214.6,-1165.34 1202,-1141.66 1186.8,-1085 1127.36,-863.45 959.08,-639 888.06,-551.13"/>
<polygon fill="none" stroke="#404040" points="887.86,-550.89 880.98,-548.76 880.29,-541.58 887.18,-543.71 887.86,-550.89"/>
<text text-anchor="middle" x="1227.3" y="-949.7" font-family="Consolas" font-size="11.00"> +middle_point</text>
</g>
<!-- Node7&#45;&gt;Node10 -->
<g id="edge10" class="edge">
<title>Node7&#45;&gt;Node10</title>
<path fill="none" stroke="#404040" d="M1086.2,-1255.57C1067.49,-1248.22 1044.12,-1235.89 1030.8,-1217 996.47,-1168.34 1047.37,-1129.5 1007.8,-1085 960.5,-1031.8 765.38,-988.95 651.14,-967.82"/>
<polygon fill="none" stroke="#404040" points="651.13,-967.81 644.51,-970.67 639.32,-965.65 645.95,-962.8 651.13,-967.81"/>
<text text-anchor="middle" x="1108.8" y="-1160.2" font-family="Consolas" font-size="11.00"> +characteristic_length</text>
<text text-anchor="middle" x="1108.8" y="-1148.2" font-family="Consolas" font-size="11.00">+density</text>
<text text-anchor="middle" x="1108.8" y="-1136.2" font-family="Consolas" font-size="11.00">+tolerance</text>
</g>
<!-- Node8 -->
<g id="node8" class="node">
<title>Node8</title>
<g id="a_node8"><a xlink:href="../../d9/d97/class_material1_d.html" target="_top" xlink:title="A Material1D class.">
<polygon fill="white" stroke="black" points="365.3,-378.5 365.3,-462.5 476.3,-462.5 476.3,-378.5 365.3,-378.5"/>
<text text-anchor="middle" x="420.8" y="-449.7" font-family="Consolas" font-size="11.00">Material1D</text>
<polyline fill="none" stroke="black" points="365.3,-442.5 476.3,-442.5 "/>
<text text-anchor="middle" x="420.8" y="-429.7" font-family="Consolas" font-size="11.00"> </text>
<polyline fill="none" stroke="black" points="365.3,-422.5 476.3,-422.5 "/>
<text text-anchor="start" x="373.3" y="-409.7" font-family="Consolas" font-size="11.00">+ Material1D()</text>
<text text-anchor="start" x="373.3" y="-397.7" font-family="Consolas" font-size="11.00">+ record()</text>
<text text-anchor="start" x="373.3" y="-385.7" font-family="Consolas" font-size="11.00">+ print()</text>
</a>
</g>
</g>
<!-- Node8&#45;&gt;Node5 -->
<g id="edge7" class="edge">
<title>Node8&#45;&gt;Node5</title>
<path fill="none" stroke="midnightblue" d="M420.8,-368.4C420.8,-359.31 420.8,-349.82 420.8,-340.67"/>
<polygon fill="none" stroke="midnightblue" points="417.3,-368.46 420.8,-378.46 424.3,-368.46 417.3,-368.46"/>
</g>
<!-- Node9 -->
<g id="node9" class="node">
<title>Node9</title>
<g id="a_node9"><a xlink:href="../../dc/dee/class_material.html" target="_top" xlink:title="A Material abstract base class.">
<polygon fill="white" stroke="black" points="341.8,-560.5 341.8,-740.5 499.8,-740.5 499.8,-560.5 341.8,-560.5"/>
<text text-anchor="middle" x="420.8" y="-727.7" font-family="Consolas" font-size="11.00">Material</text>
<polyline fill="none" stroke="black" points="341.8,-720.5 499.8,-720.5 "/>
<text text-anchor="middle" x="420.8" y="-707.7" font-family="Consolas" font-size="11.00"> </text>
<polyline fill="none" stroke="black" points="341.8,-700.5 499.8,-700.5 "/>
<text text-anchor="start" x="349.8" y="-687.7" font-family="Consolas" font-size="11.00">+ Material()</text>
<text text-anchor="start" x="349.8" y="-675.7" font-family="Consolas" font-size="11.00">+ Material()</text>
<text text-anchor="start" x="349.8" y="-663.7" font-family="Consolas" font-size="11.00">+ Material()</text>
<text text-anchor="start" x="349.8" y="-651.7" font-family="Consolas" font-size="11.00">+ operator=()</text>
<text text-anchor="start" x="349.8" y="-639.7" font-family="Consolas" font-size="11.00">+ operator=()</text>
<text text-anchor="start" x="349.8" y="-627.7" font-family="Consolas" font-size="11.00">+ ~Material()</text>
<text text-anchor="start" x="349.8" y="-615.7" font-family="Consolas" font-size="11.00">+ get_density()</text>
<text text-anchor="start" x="349.8" y="-603.7" font-family="Consolas" font-size="11.00">+ get_material_type()</text>
<text text-anchor="start" x="349.8" y="-591.7" font-family="Consolas" font-size="11.00">+ get_plane_type()</text>
<text text-anchor="start" x="349.8" y="-579.7" font-family="Consolas" font-size="11.00">+ initialize_base()</text>
<text text-anchor="start" x="349.8" y="-567.7" font-family="Consolas" font-size="11.00">and 72 more...</text>
</a>
</g>
</g>
<!-- Node9&#45;&gt;Node8 -->
<g id="edge8" class="edge">
<title>Node9&#45;&gt;Node8</title>
<path fill="none" stroke="midnightblue" d="M420.8,-550.01C420.8,-519.28 420.8,-487.11 420.8,-462.64"/>
<polygon fill="none" stroke="midnightblue" points="417.3,-550.37 420.8,-560.37 424.3,-550.37 417.3,-550.37"/>
</g>
<!-- Node10&#45;&gt;Node9 -->
<g id="edge9" class="edge">
<title>Node10&#45;&gt;Node9</title>
<path fill="none" stroke="darkgreen" d="M536.39,-889.01C515.5,-846.09 487.46,-788.48 464.23,-740.74"/>
<polygon fill="none" stroke="darkgreen" points="533.34,-890.75 540.86,-898.21 539.63,-887.69 533.34,-890.75"/>
</g>
<!-- Node11 -->
<g id="node11" class="node">
<title>Node11</title>
<g id="a_node11"><a xlink:title=" ">
<polygon fill="white" stroke="#bfbfbf" points="370.8,-1235.5 370.8,-1295.5 488.8,-1295.5 488.8,-1235.5 370.8,-1235.5"/>
<text text-anchor="middle" x="429.8" y="-1282.7" font-family="Consolas" font-size="11.00">const PlaneType</text>
<polyline fill="none" stroke="#bfbfbf" points="370.8,-1275.5 488.8,-1275.5 "/>
<text text-anchor="middle" x="429.8" y="-1262.7" font-family="Consolas" font-size="11.00"> </text>
<polyline fill="none" stroke="#bfbfbf" points="370.8,-1255.5 488.8,-1255.5 "/>
<text text-anchor="middle" x="429.8" y="-1242.7" font-family="Consolas" font-size="11.00"> </text>
</a>
</g>
</g>
<!-- Node11&#45;&gt;Node10 -->
<g id="edge11" class="edge">
<title>Node11&#45;&gt;Node10</title>
<path fill="none" stroke="#404040" d="M436.37,-1235.23C446.39,-1191.6 465.58,-1111.78 477.8,-1085 488.52,-1061.51 503.31,-1037.6 517.76,-1016.73"/>
<polygon fill="none" stroke="#404040" points="517.89,-1016.55 518.08,-1009.34 524.8,-1006.74 524.61,-1013.95 517.89,-1016.55"/>
<text text-anchor="middle" x="518.8" y="-1148.2" font-family="Consolas" font-size="11.00"> +plane_type</text>
</g>
<!-- Node12 -->
<g id="node12" class="node">
<title>Node12</title>
<g id="a_node12"><a xlink:title=" ">
<polygon fill="white" stroke="#bfbfbf" points="506.8,-1235.5 506.8,-1295.5 644.8,-1295.5 644.8,-1235.5 506.8,-1235.5"/>
<text text-anchor="middle" x="575.8" y="-1282.7" font-family="Consolas" font-size="11.00">const MaterialType</text>
<polyline fill="none" stroke="#bfbfbf" points="506.8,-1275.5 644.8,-1275.5 "/>
<text text-anchor="middle" x="575.8" y="-1262.7" font-family="Consolas" font-size="11.00"> </text>
<polyline fill="none" stroke="#bfbfbf" points="506.8,-1255.5 644.8,-1255.5 "/>
<text text-anchor="middle" x="575.8" y="-1242.7" font-family="Consolas" font-size="11.00"> </text>
</a>
</g>
</g>
<!-- Node12&#45;&gt;Node10 -->
<g id="edge13" class="edge">
<title>Node12&#45;&gt;Node10</title>
<path fill="none" stroke="#404040" d="M570.14,-1235.46C569.17,-1229.38 568.31,-1223 567.8,-1217 562.03,-1149.55 562.59,-1072.04 564.1,-1018.63"/>
<polygon fill="none" stroke="#404040" points="564.1,-1018.6 560.29,-1012.48 564.47,-1006.61 568.28,-1012.73 564.1,-1018.6"/>
<text text-anchor="middle" x="618.8" y="-1148.2" font-family="Consolas" font-size="11.00"> +material_type</text>
</g>
<!-- Node13 -->
<g id="node13" class="node">
<title>Node13</title>
<g id="a_node13"><a xlink:title=" ">
<polygon fill="white" stroke="#bfbfbf" points="762.3,-1235.5 762.3,-1295.5 799.3,-1295.5 799.3,-1235.5 762.3,-1235.5"/>
<text text-anchor="middle" x="780.8" y="-1282.7" font-family="Consolas" font-size="11.00">vec</text>
<polyline fill="none" stroke="#bfbfbf" points="762.3,-1275.5 799.3,-1275.5 "/>
<text text-anchor="middle" x="780.8" y="-1262.7" font-family="Consolas" font-size="11.00"> </text>
<polyline fill="none" stroke="#bfbfbf" points="762.3,-1255.5 799.3,-1255.5 "/>
<text text-anchor="middle" x="780.8" y="-1242.7" font-family="Consolas" font-size="11.00"> </text>
</a>
</g>
</g>
<!-- Node13&#45;&gt;Node10 -->
<g id="edge14" class="edge">
<title>Node13&#45;&gt;Node10</title>
<path fill="none" stroke="#404040" d="M799.38,-1257.4C815.73,-1250.03 838.48,-1236.79 848.8,-1217 875.92,-1164.98 880.32,-1134.48 848.8,-1085 805.67,-1017.31 717.61,-983.9 651.31,-967.77"/>
<polygon fill="none" stroke="#404040" points="651.3,-967.77 644.55,-970.31 639.61,-965.05 646.36,-962.52 651.3,-967.77"/>
<text text-anchor="middle" x="938.8" y="-1208.2" font-family="Consolas" font-size="11.00"> +current_history</text>
<text text-anchor="middle" x="938.8" y="-1196.2" font-family="Consolas" font-size="11.00">+current_strain</text>
<text text-anchor="middle" x="938.8" y="-1184.2" font-family="Consolas" font-size="11.00">+current_strain_acc</text>
<text text-anchor="middle" x="938.8" y="-1172.2" font-family="Consolas" font-size="11.00">+current_strain_rate</text>
<text text-anchor="middle" x="938.8" y="-1160.2" font-family="Consolas" font-size="11.00">+current_stress</text>
<text text-anchor="middle" x="938.8" y="-1148.2" font-family="Consolas" font-size="11.00">+incre_strain</text>
<text text-anchor="middle" x="938.8" y="-1136.2" font-family="Consolas" font-size="11.00">+incre_strain_acc</text>
<text text-anchor="middle" x="938.8" y="-1124.2" font-family="Consolas" font-size="11.00">+incre_strain_rate</text>
<text text-anchor="middle" x="938.8" y="-1112.2" font-family="Consolas" font-size="11.00">+incre_stress</text>
<text text-anchor="middle" x="938.8" y="-1100.2" font-family="Consolas" font-size="11.00">+initial_history</text>
<text text-anchor="middle" x="938.8" y="-1088.2" font-family="Consolas" font-size="11.00">...</text>
</g>
<!-- Node13&#45;&gt;Node14 -->
<g id="edge17" class="edge">
<title>Node13&#45;&gt;Node14</title>
<path fill="none" stroke="#404040" d="M762.25,-1260.35C740.86,-1254.52 706.41,-1241.75 688.8,-1217 654.43,-1168.71 713.47,-1125.08 669.8,-1085 644.05,-1061.37 386.25,-1084.15 355.8,-1067 327.13,-1050.85 306.74,-1019.26 294.01,-993.5"/>
<polygon fill="none" stroke="#404040" points="293.96,-993.38 287.79,-989.64 288.87,-982.51 295.04,-986.25 293.96,-993.38"/>
<text text-anchor="middle" x="766.8" y="-1178.2" font-family="Consolas" font-size="11.00"> +current_couple_stress</text>
<text text-anchor="middle" x="766.8" y="-1166.2" font-family="Consolas" font-size="11.00">+current_curvature</text>
<text text-anchor="middle" x="766.8" y="-1154.2" font-family="Consolas" font-size="11.00">+incre_couple_stress</text>
<text text-anchor="middle" x="766.8" y="-1142.2" font-family="Consolas" font-size="11.00">+incre_curvature</text>
<text text-anchor="middle" x="766.8" y="-1130.2" font-family="Consolas" font-size="11.00">+trial_couple_stress</text>
<text text-anchor="middle" x="766.8" y="-1118.2" font-family="Consolas" font-size="11.00">+trial_curvature</text>
</g>
<!-- Node14&#45;&gt;Node9 -->
<g id="edge15" class="edge">
<title>Node14&#45;&gt;Node9</title>
<path fill="none" stroke="darkgreen" d="M295.94,-913.43C316.55,-870.21 350.86,-798.23 378.3,-740.65"/>
<polygon fill="none" stroke="darkgreen" points="292.78,-911.93 291.64,-922.46 299.1,-914.94 292.78,-911.93"/>
</g>
<!-- Node15 -->
<g id="node15" class="node">
<title>Node15</title>
<g id="a_node15"><a xlink:href="../../d0/d57/class_tag.html" target="_top" xlink:title="A base Tag class.">
<polygon fill="white" stroke="black" points="365.3,-838.5 365.3,-1066.5 476.3,-1066.5 476.3,-838.5 365.3,-838.5"/>
<text text-anchor="middle" x="420.8" y="-1053.7" font-family="Consolas" font-size="11.00">Tag</text>
<polyline fill="none" stroke="black" points="365.3,-1046.5 476.3,-1046.5 "/>
<text text-anchor="middle" x="420.8" y="-1033.7" font-family="Consolas" font-size="11.00"> </text>
<polyline fill="none" stroke="black" points="365.3,-1026.5 476.3,-1026.5 "/>
<text text-anchor="start" x="373.3" y="-1013.7" font-family="Consolas" font-size="11.00">+ Tag()</text>
<text text-anchor="start" x="373.3" y="-1001.7" font-family="Consolas" font-size="11.00">+ Tag()</text>
<text text-anchor="start" x="373.3" y="-989.7" font-family="Consolas" font-size="11.00">+ Tag()</text>
<text text-anchor="start" x="373.3" y="-977.7" font-family="Consolas" font-size="11.00">+ operator=()</text>
<text text-anchor="start" x="373.3" y="-965.7" font-family="Consolas" font-size="11.00">+ operator=()</text>
<text text-anchor="start" x="373.3" y="-953.7" font-family="Consolas" font-size="11.00">+ ~Tag()</text>
<text text-anchor="start" x="373.3" y="-941.7" font-family="Consolas" font-size="11.00">+ set_tag()</text>
<text text-anchor="start" x="373.3" y="-929.7" font-family="Consolas" font-size="11.00">+ get_tag()</text>
<text text-anchor="start" x="373.3" y="-917.7" font-family="Consolas" font-size="11.00">+ enable()</text>
<text text-anchor="start" x="373.3" y="-905.7" font-family="Consolas" font-size="11.00">+ disable()</text>
<text text-anchor="start" x="373.3" y="-893.7" font-family="Consolas" font-size="11.00">+ guard()</text>
<text text-anchor="start" x="373.3" y="-881.7" font-family="Consolas" font-size="11.00">+ unguard()</text>
<text text-anchor="start" x="373.3" y="-869.7" font-family="Consolas" font-size="11.00">+ is_active()</text>
<text text-anchor="start" x="373.3" y="-857.7" font-family="Consolas" font-size="11.00">+ is_guarded()</text>
<text text-anchor="start" x="373.3" y="-845.7" font-family="Consolas" font-size="11.00">+ print()</text>
</a>
</g>
</g>
<!-- Node15&#45;&gt;Node9 -->
<g id="edge18" class="edge">
<title>Node15&#45;&gt;Node9</title>
<path fill="none" stroke="midnightblue" d="M420.8,-827.83C420.8,-798.64 420.8,-768.09 420.8,-740.77"/>
<polygon fill="none" stroke="midnightblue" points="417.3,-828.08 420.8,-838.08 424.3,-828.08 417.3,-828.08"/>
</g>
</g>
</svg>
