<svg xmlns="http://www.w3.org/2000/svg" xmlns:xlink="http://www.w3.org/1999/xlink" width="908pt" height="218pt" viewBox="0 0 908 218"><g class="graph" transform="translate(4 214)"><title>barycenter</title><g class="node"><title>Node1</title><a>
<path fill="#999" stroke="#666" d="M900-115h-84v20h84z"/>
<text x="858" y="-102.2" font-family="Consolas" font-size="11" text-anchor="middle">barycenter</text>
</a></g><g class="node"><title>Node2</title><a xlink:href="../../df/d37/_section_parser_8cpp.html#a43c9d2b0616edfa0bc84c02765e86274" target="_top">
<path fill="#fff" stroke="#666" d="M780-210H669v20h111z"/>
<text x="724.5" y="-197.2" font-family="Consolas" font-size="11" text-anchor="middle">new_isection2d</text>
</a></g><g class="edge"><title>Node1-&gt;Node2</title><a>
<path fill="none" stroke="#63b8ff" d="M842.74-123.14C828.48-140.18 805.12-165.35 780-181c-5.61-3.5-11.95-6.45-18.28-8.92"/>
<path fill="#63b8ff" stroke="#63b8ff" d="m845.72-125.02 3.6 9.96-9.03-5.54z"/>
</a></g><g class="node"><title>Node8</title><a xlink:href="../../df/d37/_section_parser_8cpp.html#a99d16338aecbea4dbadb10bdce4c91b1" target="_top">
<path fill="#fff" stroke="#666" d="M780-172H669v20h111z"/>
<text x="724.5" y="-159.2" font-family="Consolas" font-size="11" text-anchor="middle">new_isection3d</text>
</a></g><g class="edge"><title>Node1-&gt;Node8</title><a>
<path fill="none" stroke="#63b8ff" d="M829.37-119.66C814.87-127.1 796.69-136 780-143c-7.49-3.14-15.69-6.19-23.41-8.9"/>
<path fill="#63b8ff" stroke="#63b8ff" d="m831.05-122.74 7.26 7.71-10.48-1.49z"/>
</a></g><g class="node"><title>Node9</title><a xlink:href="../../df/d37/_section_parser_8cpp.html#a251abff180437497d8ff2ae78f49e21b" target="_top">
<path fill="#fff" stroke="#666" d="M780-134H669v20h111z"/>
<text x="724.5" y="-121.2" font-family="Consolas" font-size="11" text-anchor="middle">new_tsection2d</text>
</a></g><g class="edge"><title>Node1-&gt;Node9</title><a>
<path fill="none" stroke="#63b8ff" d="M805.71-112.41c-8.4-1.21-17.13-2.48-25.6-3.7"/>
<path fill="#63b8ff" stroke="#63b8ff" d="m806.36-115.85 9.39 4.89-10.39 2.03z"/>
</a></g><g class="node"><title>Node10</title><a xlink:href="../../df/d37/_section_parser_8cpp.html#ab4a7124ae2091d5efc9ee1d3aa316804" target="_top">
<path fill="#fff" stroke="#666" d="M780-96H669v20h111z"/>
<text x="724.5" y="-83.2" font-family="Consolas" font-size="11" text-anchor="middle">new_tsection3d</text>
</a></g><g class="edge"><title>Node1-&gt;Node10</title><a>
<path fill="none" stroke="#63b8ff" d="M805.71-97.59c-8.4 1.21-17.13 2.48-25.6 3.7"/>
<path fill="#63b8ff" stroke="#63b8ff" d="m805.36-101.07 10.39 2.03-9.39 4.89z"/>
</a></g><g class="node"><title>Node11</title><a xlink:href="../../df/d37/_section_parser_8cpp.html#acb48c99596756d8d7344f88576dde593" target="_top">
<path fill="#fff" stroke="#666" d="M760-58h-71v20h71z"/>
<text x="724.5" y="-45.2" font-family="Consolas" font-size="11" text-anchor="middle">new_us2d</text>
</a></g><g class="edge"><title>Node1-&gt;Node11</title><a>
<path fill="none" stroke="#63b8ff" d="M829.37-90.34C814.87-82.9 796.69-74 780-67c-7.49 3.14-15.69 6.19-23.41 8.9"/>
<path fill="#63b8ff" stroke="#63b8ff" d="m827.83-93.48 10.48-1.49-7.26 7.71z"/>
</a></g><g class="node"><title>Node12</title><a xlink:href="../../df/d37/_section_parser_8cpp.html#a43d3a97f79e0476ecafc2510a8580484" target="_top">
<path fill="#fff" stroke="#666" d="M760-20h-71V0h71z"/>
<text x="724.5" y="-7.2" font-family="Consolas" font-size="11" text-anchor="middle">new_us3d</text>
</a></g><g class="edge"><title>Node1-&gt;Node12</title><a>
<path fill="none" stroke="#63b8ff" d="M842.74-86.86C828.48-69.82 805.12-44.65 780-29c-6.12 3.81-13.11 6.99-20 9.58"/>
<path fill="#63b8ff" stroke="#63b8ff" d="m840.29-89.4 9.03-5.54-3.6 9.96z"/>
</a></g><g class="node"><title>Node3</title><a xlink:href="../../df/d37/_section_parser_8cpp.html#aa1844ab4e6a22d74b18303a458b8bb8a" target="_top">
<path fill="#fff" stroke="#666" d="M633-115H495v20h138z"/>
<text x="564" y="-102.2" font-family="Consolas" font-size="11" text-anchor="middle">create_new_section</text>
</a></g><g class="edge"><title>Node2-&gt;Node3</title><a>
<path fill="none" stroke="#63b8ff" d="M680.13-186.21c-3.83 1.61-7.59 3.35-11.13 5.21-36.44 19.12-74.22 50.02-92.59 65.88"/>
<path fill="#63b8ff" stroke="#63b8ff" d="m679.11-189.57 10.59-.39-8.04 6.9z"/>
</a></g><g class="node"><title>Node4</title><a xlink:href="../../d1/d81/command_8cpp.html#a461032f40aff035f61cb8169cfe58aa1" target="_top">
<path fill="#fff" stroke="#666" d="M459-115H341v20h118z"/>
<text x="400" y="-102.2" font-family="Consolas" font-size="11" text-anchor="middle">process_command</text>
</a></g><g class="edge"><title>Node3-&gt;Node4</title><a>
<path fill="none" stroke="#63b8ff" d="M484.71-105h-25.56"/>
<path fill="#63b8ff" stroke="#63b8ff" d="m484.77-108.5 10 3.5-10 3.5z"/>
</a></g><g class="node"><title>Node5</title><a xlink:href="../../da/d46/group___utility.html#ga8bf8736c7a14e90bd7313d121b2ac440" target="_top">
<path fill="#fff" stroke="#666" d="M305-115h-71v20h71z"/>
<text x="269.5" y="-102.2" font-family="Consolas" font-size="11" text-anchor="middle">cli_mode</text>
</a></g><g class="edge"><title>Node4-&gt;Node5</title><a>
<path fill="none" stroke="#63b8ff" d="M330.71-105h-25.69"/>
<path fill="#63b8ff" stroke="#63b8ff" d="m330.77-108.5 10 3.5-10 3.5z"/>
</a></g><g class="node"><title>Node6</title><a xlink:href="../../da/d46/group___utility.html#gaf8d2165909a5b05cf91dce632ce172a4" target="_top">
<path fill="#fff" stroke="#666" d="M198-115H80v20h118z"/>
<text x="139" y="-102.2" font-family="Consolas" font-size="11" text-anchor="middle">argument_parser</text>
</a></g><g class="edge"><title>Node5-&gt;Node6</title><a>
<path fill="none" stroke="#63b8ff" d="M223.59-105h-25.51"/>
<path fill="#63b8ff" stroke="#63b8ff" d="m223.73-108.5 10 3.5-10 3.5z"/>
</a></g><g class="node"><title>Node7</title><a xlink:href="../../d6/dfd/suan_pan_8cpp.html#a3c04138a5bfe5d72780bb7e82a18e627" target="_top">
<path fill="#fff" stroke="#666" d="M44-115H0v20h44z"/>
<text x="22" y="-102.2" font-family="Consolas" font-size="11" text-anchor="middle">main</text>
</a></g><g class="edge"><title>Node6-&gt;Node7</title><a>
<path fill="none" stroke="#63b8ff" d="M69.67-105h-25.6"/>
<path fill="#63b8ff" stroke="#63b8ff" d="m69.83-108.5 10 3.5-10 3.5z"/>
</a></g><g class="edge"><title>Node8-&gt;Node3</title><a>
<path fill="none" stroke="#63b8ff" d="M684.88-148.62c-5.34 1.88-10.75 3.79-15.88 5.62-26.07 9.31-55.72 20.17-76.67 27.89"/>
<path fill="#63b8ff" stroke="#63b8ff" d="m683.74-151.93 10.6.01-8.29 6.6z"/>
</a></g><g class="edge"><title>Node9-&gt;Node3</title><a>
<path fill="none" stroke="#63b8ff" d="M658.77-116.24c-8.47 1.01-17.16 2.06-25.68 3.08"/>
<path fill="#63b8ff" stroke="#63b8ff" d="m658.61-119.75 10.34 2.29-9.51 4.66z"/>
</a></g><g class="edge"><title>Node10-&gt;Node3</title><a>
<path fill="none" stroke="#63b8ff" d="M658.77-93.76c-8.47-1.01-17.16-2.06-25.68-3.08"/>
<path fill="#63b8ff" stroke="#63b8ff" d="m659.44-97.2 9.51 4.66-10.34 2.29z"/>
</a></g><g class="edge"><title>Node11-&gt;Node3</title><a>
<path fill="none" stroke="#63b8ff" d="M684.88-61.38c-5.34-1.88-10.75-3.79-15.88-5.62-26.07-9.31-55.72-20.17-76.67-27.89"/>
<path fill="#63b8ff" stroke="#63b8ff" d="m686.05-64.68 8.29 6.6-10.6.01z"/>
</a></g><g class="edge"><title>Node12-&gt;Node3</title><a>
<path fill="none" stroke="#63b8ff" d="M680.13-23.79C676.3-25.4 672.54-27.14 669-29c-36.44-19.12-74.22-50.02-92.59-65.88"/>
<path fill="#63b8ff" stroke="#63b8ff" d="m681.66-26.94 8.04 6.9-10.59-.39z"/>
</a></g></g></svg>