<?xml version="1.0" encoding="UTF-8" standalone="no"?>
<!DOCTYPE svg PUBLIC "-//W3C//DTD SVG 1.1//EN"
 "http://www.w3.org/Graphics/SVG/1.1/DTD/svg11.dtd">
<!-- Generated by graphviz version 2.43.0 (0)
 -->
<!-- Title: Patch Pages: 1 -->
<svg width="245pt" height="202pt"
 viewBox="0.00 0.00 244.50 202.00" xmlns="http://www.w3.org/2000/svg" xmlns:xlink="http://www.w3.org/1999/xlink">
<g id="graph0" class="graph" transform="scale(1 1) rotate(0) translate(4 198)">
<title>Patch</title>
<polygon fill="white" stroke="transparent" points="-4,4 -4,-198 240.5,-198 240.5,4 -4,4"/>
<!-- Node1 -->
<g id="node1" class="node">
<title>Node1</title>
<g id="a_node1"><a xlink:title="A Patch class.">
<polygon fill="#bfbfbf" stroke="black" points="30.5,-0.5 30.5,-84.5 202.5,-84.5 202.5,-0.5 30.5,-0.5"/>
<text text-anchor="middle" x="116.5" y="-71.7" font-family="Consolas" font-size="11.00">Patch</text>
<polyline fill="none" stroke="black" points="30.5,-64.5 202.5,-64.5 "/>
<text text-anchor="middle" x="116.5" y="-51.7" font-family="Consolas" font-size="11.00"> </text>
<polyline fill="none" stroke="black" points="30.5,-44.5 202.5,-44.5 "/>
<text text-anchor="start" x="38.5" y="-31.7" font-family="Consolas" font-size="11.00">+ Patch()</text>
<text text-anchor="start" x="38.5" y="-19.7" font-family="Consolas" font-size="11.00">+ get_number_of_control</text>
<text text-anchor="start" x="38.5" y="-7.7" font-family="Consolas" font-size="11.00">_points()</text>
</a>
</g>
</g>
<!-- Node2 -->
<g id="node2" class="node">
<title>Node2</title>
<g id="a_node2"><a xlink:title=" ">
<polygon fill="white" stroke="#bfbfbf" points="0,-133.5 0,-193.5 111,-193.5 111,-133.5 0,-133.5"/>
<text text-anchor="middle" x="55.5" y="-180.7" font-family="Consolas" font-size="11.00">vector&lt; uvec &gt;</text>
<polyline fill="none" stroke="#bfbfbf" points="0,-173.5 111,-173.5 "/>
<text text-anchor="middle" x="55.5" y="-160.7" font-family="Consolas" font-size="11.00"> </text>
<polyline fill="none" stroke="#bfbfbf" points="0,-153.5 111,-153.5 "/>
<text text-anchor="middle" x="55.5" y="-140.7" font-family="Consolas" font-size="11.00"> </text>
</a>
</g>
</g>
<!-- Node2&#45;&gt;Node1 -->
<g id="edge1" class="edge">
<title>Node2&#45;&gt;Node1</title>
<path fill="none" stroke="#404040" d="M54.74,-133.39C55.42,-123.39 57.28,-112.37 61.5,-103 62.76,-100.19 64.21,-97.43 65.81,-94.73"/>
<polygon fill="none" stroke="#404040" points="65.9,-94.59 65.92,-87.38 72.59,-84.62 72.57,-91.83 65.9,-94.59"/>
<text text-anchor="middle" x="109" y="-106.2" font-family="Consolas" font-size="11.00"> #element_span</text>
</g>
<!-- Node3 -->
<g id="node3" class="node">
<title>Node3</title>
<g id="a_node3"><a xlink:title=" ">
<polygon fill="white" stroke="#bfbfbf" points="129.5,-133.5 129.5,-193.5 227.5,-193.5 227.5,-133.5 129.5,-133.5"/>
<text text-anchor="middle" x="178.5" y="-180.7" font-family="Consolas" font-size="11.00">field&lt; vec &gt;</text>
<polyline fill="none" stroke="#bfbfbf" points="129.5,-173.5 227.5,-173.5 "/>
<text text-anchor="middle" x="178.5" y="-160.7" font-family="Consolas" font-size="11.00"> </text>
<polyline fill="none" stroke="#bfbfbf" points="129.5,-153.5 227.5,-153.5 "/>
<text text-anchor="middle" x="178.5" y="-140.7" font-family="Consolas" font-size="11.00"> </text>
</a>
</g>
</g>
<!-- Node3&#45;&gt;Node1 -->
<g id="edge2" class="edge">
<title>Node3&#45;&gt;Node1</title>
<path fill="none" stroke="#404040" d="M169.32,-133.46C165.79,-123.58 161.42,-112.61 156.5,-103 155.18,-100.43 153.78,-97.84 152.31,-95.24"/>
<polygon fill="none" stroke="#404040" points="152.15,-94.97 145.63,-91.87 145.99,-84.67 152.5,-87.77 152.15,-94.97"/>
<text text-anchor="middle" x="199" y="-106.2" font-family="Consolas" font-size="11.00"> #knot_pool</text>
</g>
</g>
</svg>
