<?xml version="1.0" encoding="UTF-8" standalone="no"?>
<!DOCTYPE svg PUBLIC "-//W3C//DTD SVG 1.1//EN"
 "http://www.w3.org/Graphics/SVG/1.1/DTD/svg11.dtd">
<!-- Generated by graphviz version 5.0.0 (0)
 -->
<!-- Title: Domain::initialize_load Pages: 1 -->
<!--zoomable 180 -->
<svg id="main" version="1.1" xmlns="http://www.w3.org/2000/svg" xmlns:xlink="http://www.w3.org/1999/xlink" xml:space="preserve" onload="init(evt)">
<style type="text/css"><![CDATA[
.edge:hover path { stroke: red; }
.edge:hover polygon { stroke: red; fill: red; }
]]></style>
<script type="text/javascript"><![CDATA[
var edges = document.getElementsByTagName('g');
if (edges && edges.length) {
  for (var i=0;i<edges.length;i++) {
    if (edges[i].id.substr(0,4)=='edge') {
      edges[i].setAttribute('class','edge');
    }
  }
}
]]></script>
        <defs>
                <circle id="rim" cx="0" cy="0" r="7"/>
                <circle id="rim2" cx="0" cy="0" r="3.5"/>
                <g id="zoomPlus">
                        <use xlink:href="#rim" fill="#404040">
                                <set attributeName="fill" to="#808080" begin="zoomplus.mouseover" end="zoomplus.mouseout"/>
                        </use>
                        <path d="M-4,0h8M0,-4v8" fill="none" stroke="white" stroke-width="1.5" pointer-events="none"/>
                </g>
                <g id="zoomMin">
                        <use xlink:href="#rim" fill="#404040">
                                <set attributeName="fill" to="#808080" begin="zoomminus.mouseover" end="zoomminus.mouseout"/>
                        </use>
                        <path d="M-4,0h8" fill="none" stroke="white" stroke-width="1.5" pointer-events="none"/>
                </g>
                <g id="dirArrow">
                        <path fill="none" stroke="white" stroke-width="1.5" d="M0,-3.0v7 M-2.5,-0.5L0,-3.0L2.5,-0.5"/>
                </g>
               <g id="resetDef">
                       <use xlink:href="#rim2" fill="#404040">
                               <set attributeName="fill" to="#808080" begin="reset.mouseover" end="reset.mouseout"/>
                       </use>
               </g>
        </defs>

<script type="text/javascript">
var viewWidth = 669;
var viewHeight = 180;
var sectionId = 'dynsection-161';
</script>
<script xlink:href="../../svgpan.js"/>
<svg id="graph" class="graph">
<g id="viewport">
<title>Domain::initialize_load</title>
<!-- Node1 -->
<g id="node1" class="node">
<title>Node1</title>
<g id="a_node1"><a xlink:title=" ">
<polygon fill="#999999" stroke="#666666" points="172,-96 0,-96 0,-76 172,-76 172,-96"/>
<text text-anchor="middle" x="86" y="-83.2" font-family="Consolas" font-size="11.00">Domain::initialize_load</text>
</a>
</g>
</g>
<!-- Node2 -->
<g id="node2" class="node">
<title>Node2</title>
<g id="a_node2"><a xlink:href="../../d4/df4/class_domain.html#adef6ec5aca397767fbdff9945a1fa0eb" target="_top" xlink:title=" ">
<polygon fill="white" stroke="#666666" points="360,-134 208,-134 208,-114 360,-114 360,-134"/>
<text text-anchor="middle" x="284" y="-121.2" font-family="Consolas" font-size="11.00">Domain::disable_load</text>
</a>
</g>
</g>
<!-- Node1&#45;&gt;Node2 -->
<g id="edge1" class="edge">
<title>Node1&#45;&gt;Node2</title>
<path fill="none" stroke="#63b8ff" d="M138.75,-96.03C164.1,-100.95 194.79,-106.9 221.34,-112.05"/>
<polygon fill="#63b8ff" stroke="#63b8ff" points="220.81,-115.51 231.3,-113.98 222.15,-108.64 220.81,-115.51"/>
</g>
<!-- Node7 -->
<g id="node7" class="node">
<title>Node7</title>
<g id="a_node7"><a xlink:href="../../d6/d9c/namespacesuanpan.html#ae5df43309345725b02a5a3f909edc41f" target="_top" xlink:title=" ">
<polygon fill="white" stroke="#666666" points="346.5,-96 221.5,-96 221.5,-76 346.5,-76 346.5,-96"/>
<text text-anchor="middle" x="284" y="-83.2" font-family="Consolas" font-size="11.00">suanpan::for_all</text>
</a>
</g>
</g>
<!-- Node1&#45;&gt;Node7 -->
<g id="edge6" class="edge">
<title>Node1&#45;&gt;Node7</title>
<path fill="none" stroke="#63b8ff" d="M172.11,-86C185.16,-86 198.51,-86 211.23,-86"/>
<polygon fill="#63b8ff" stroke="#63b8ff" points="211.27,-89.5 221.27,-86 211.27,-82.5 211.27,-89.5"/>
</g>
<!-- Node8 -->
<g id="node8" class="node">
<title>Node8</title>
<g id="a_node8"><a xlink:href="../../da/d56/class_storage.html#a6b51334e65934ab09fd23bd4fa91aa17" target="_top" xlink:title=" ">
<polygon fill="white" stroke="#666666" points="343,-58 225,-58 225,-38 343,-38 343,-58"/>
<text text-anchor="middle" x="284" y="-45.2" font-family="Consolas" font-size="11.00">Storage::update</text>
</a>
</g>
</g>
<!-- Node1&#45;&gt;Node8 -->
<g id="edge7" class="edge">
<title>Node1&#45;&gt;Node8</title>
<path fill="none" stroke="#63b8ff" d="M138.75,-75.97C164.1,-71.05 194.79,-65.1 221.34,-59.95"/>
<polygon fill="#63b8ff" stroke="#63b8ff" points="222.15,-63.36 231.3,-58.02 220.81,-56.49 222.15,-63.36"/>
</g>
<!-- Node3 -->
<g id="node3" class="node">
<title>Node3</title>
<g id="a_node3"><a xlink:href="../../da/d56/class_storage.html#a943b002d5726416b145f33701c7db86d" target="_top" xlink:title=" ">
<polygon fill="white" stroke="#666666" points="521,-172 396,-172 396,-152 521,-152 521,-172"/>
<text text-anchor="middle" x="458.5" y="-159.2" font-family="Consolas" font-size="11.00">Storage::disable</text>
</a>
</g>
</g>
<!-- Node2&#45;&gt;Node3 -->
<g id="edge2" class="edge">
<title>Node2&#45;&gt;Node3</title>
<path fill="none" stroke="#63b8ff" d="M330.77,-134.08C352.6,-138.89 378.89,-144.68 401.86,-149.74"/>
<polygon fill="#63b8ff" stroke="#63b8ff" points="401.29,-153.2 411.81,-151.94 402.8,-146.37 401.29,-153.2"/>
</g>
<!-- Node5 -->
<g id="node5" class="node">
<title>Node5</title>
<g id="a_node5"><a xlink:href="../../d0/d57/class_tag.html#aeef9db4fab02b36358265f378e703986" target="_top" xlink:title=" ">
<polygon fill="white" stroke="#666666" points="514,-134 403,-134 403,-114 514,-114 514,-134"/>
<text text-anchor="middle" x="458.5" y="-121.2" font-family="Consolas" font-size="11.00">Tag::is_active</text>
</a>
</g>
</g>
<!-- Node2&#45;&gt;Node5 -->
<g id="edge4" class="edge">
<title>Node2&#45;&gt;Node5</title>
<path fill="none" stroke="#63b8ff" d="M360.16,-124C371.03,-124 382.14,-124 392.78,-124"/>
<polygon fill="#63b8ff" stroke="#63b8ff" points="392.82,-127.5 402.82,-124 392.82,-120.5 392.82,-127.5"/>
</g>
<!-- Node6 -->
<g id="node6" class="node">
<title>Node6</title>
<g id="a_node6"><a xlink:href="../../d0/d57/class_tag.html#aecfb9f3c57796fc9474661db66f2c15b" target="_top" xlink:title=" ">
<polygon fill="white" stroke="#666666" points="517.5,-96 399.5,-96 399.5,-76 517.5,-76 517.5,-96"/>
<text text-anchor="middle" x="458.5" y="-83.2" font-family="Consolas" font-size="11.00">Tag::is_guarded</text>
</a>
</g>
</g>
<!-- Node2&#45;&gt;Node6 -->
<g id="edge5" class="edge">
<title>Node2&#45;&gt;Node6</title>
<path fill="none" stroke="#63b8ff" d="M330.77,-113.92C352.6,-109.11 378.89,-103.32 401.86,-98.26"/>
<polygon fill="#63b8ff" stroke="#63b8ff" points="402.8,-101.63 411.81,-96.06 401.29,-94.8 402.8,-101.63"/>
</g>
<!-- Node4 -->
<g id="node4" class="node">
<title>Node4</title>
<g id="a_node4"><a xlink:href="../../da/d56/class_storage.html#a0c06f55c3c192fa18e8e0d6465fa078d" target="_top" xlink:title=" ">
<polygon fill="white" stroke="#666666" points="661,-172 557,-172 557,-152 661,-152 661,-172"/>
<text text-anchor="middle" x="609" y="-159.2" font-family="Consolas" font-size="11.00">Storage::find</text>
</a>
</g>
</g>
<!-- Node3&#45;&gt;Node4 -->
<g id="edge3" class="edge">
<title>Node3&#45;&gt;Node4</title>
<path fill="none" stroke="#63b8ff" d="M521.19,-162C529.57,-162 538.18,-162 546.56,-162"/>
<polygon fill="#63b8ff" stroke="#63b8ff" points="546.64,-165.5 556.64,-162 546.64,-158.5 546.64,-165.5"/>
</g>
<!-- Node9 -->
<g id="node9" class="node">
<title>Node9</title>
<g id="a_node9"><a xlink:href="../../da/d56/class_storage.html#a0224b21796a7b8e879146a0c573729e6" target="_top" xlink:title=" ">
<polygon fill="white" stroke="#666666" points="514,-58 403,-58 403,-38 514,-38 514,-58"/>
<text text-anchor="middle" x="458.5" y="-45.2" font-family="Consolas" font-size="11.00">Storage::reset</text>
</a>
</g>
</g>
<!-- Node8&#45;&gt;Node9 -->
<g id="edge8" class="edge">
<title>Node8&#45;&gt;Node9</title>
<path fill="none" stroke="#63b8ff" d="M343.4,-48C359.2,-48 376.39,-48 392.52,-48"/>
<polygon fill="#63b8ff" stroke="#63b8ff" points="392.94,-51.5 402.94,-48 392.94,-44.5 392.94,-51.5"/>
</g>
<!-- Node10 -->
<g id="node10" class="node">
<title>Node10</title>
<g id="a_node10"><a xlink:href="../../da/d56/class_storage.html#a46dd09875ad737879c04a3268795848e" target="_top" xlink:title=" ">
<polygon fill="white" stroke="#666666" points="510.5,-20 406.5,-20 406.5,0 510.5,0 510.5,-20"/>
<text text-anchor="middle" x="458.5" y="-7.2" font-family="Consolas" font-size="11.00">Storage::size</text>
</a>
</g>
</g>
<!-- Node8&#45;&gt;Node10 -->
<g id="edge9" class="edge">
<title>Node8&#45;&gt;Node10</title>
<path fill="none" stroke="#63b8ff" d="M330.77,-37.92C352.6,-33.11 378.89,-27.32 401.86,-22.26"/>
<polygon fill="#63b8ff" stroke="#63b8ff" points="402.8,-25.63 411.81,-20.06 401.29,-18.8 402.8,-25.63"/>
</g>
</g>
</svg>
        <g id="navigator" transform="translate(0 0)" fill="#404254">
                <rect fill="#f2f5e9" fill-opacity="0.5" stroke="#606060" stroke-width=".5" x="0" y="0" width="60" height="60"/>
                <use id="zoomplus" xlink:href="#zoomPlus" x="17" y="9" onmousedown="handleZoom(evt,'in')"/>
                <use id="zoomminus" xlink:href="#zoomMin" x="42" y="9" onmousedown="handleZoom(evt,'out')"/>
                <use id="reset" xlink:href="#resetDef" x="30" y="36" onmousedown="handleReset()"/>
                <g id="arrowUp" xlink:href="#dirArrow" transform="translate(30 24)" onmousedown="handlePan(0,-1)">
                  <use xlink:href="#rim" fill="#404040">
                        <set attributeName="fill" to="#808080" begin="arrowUp.mouseover" end="arrowUp.mouseout"/>
                  </use>
                  <path fill="none" stroke="white" stroke-width="1.5" d="M0,-3.0v7 M-2.5,-0.5L0,-3.0L2.5,-0.5"/>
                </g>
                <g id="arrowRight" xlink:href="#dirArrow" transform="rotate(90) translate(36 -43)" onmousedown="handlePan(1,0)">
                  <use xlink:href="#rim" fill="#404040">
                        <set attributeName="fill" to="#808080" begin="arrowRight.mouseover" end="arrowRight.mouseout"/>
                  </use>
                  <path fill="none" stroke="white" stroke-width="1.5" d="M0,-3.0v7 M-2.5,-0.5L0,-3.0L2.5,-0.5"/>
                </g>
                <g id="arrowDown" xlink:href="#dirArrow" transform="rotate(180) translate(-30 -48)" onmousedown="handlePan(0,1)">
                  <use xlink:href="#rim" fill="#404040">
                        <set attributeName="fill" to="#808080" begin="arrowDown.mouseover" end="arrowDown.mouseout"/>
                  </use>
                  <path fill="none" stroke="white" stroke-width="1.5" d="M0,-3.0v7 M-2.5,-0.5L0,-3.0L2.5,-0.5"/>
                </g>
                <g id="arrowLeft" xlink:href="#dirArrow" transform="rotate(270) translate(-36 17)" onmousedown="handlePan(-1,0)">
                  <use xlink:href="#rim" fill="#404040">
                        <set attributeName="fill" to="#808080" begin="arrowLeft.mouseover" end="arrowLeft.mouseout"/>
                  </use>
                  <path fill="none" stroke="white" stroke-width="1.5" d="M0,-3.0v7 M-2.5,-0.5L0,-3.0L2.5,-0.5"/>
                </g>
        </g>
        <svg viewBox="0 0 15 15" width="100%" height="30px" preserveAspectRatio="xMaxYMin meet">
         <g id="arrow_out" transform="scale(0.3 0.3)">
          <a xlink:href="class_domain_aa8af00280207e0a3ea3ab5ddff7f45ac_cgraph_org.svg" target="_base">
           <rect id="button" ry="5" rx="5" y="6" x="6" height="38" width="38"
                fill="#f2f5e9" fill-opacity="0.5" stroke="#606060" stroke-width="1.0"/>
           <path id="arrow"
             d="M 11.500037,31.436501 C 11.940474,20.09759 22.043105,11.32322 32.158766,21.979434 L 37.068811,17.246167 C 37.068811,17.246167 37.088388,32 37.088388,32 L 22.160133,31.978069 C 22.160133,31.978069 26.997745,27.140456 26.997745,27.140456 C 18.528582,18.264221 13.291696,25.230495 11.500037,31.436501 z"
             style="fill:#404040;"/>
          </a>
         </g>
        </svg>
</svg>
