<?xml version="1.0" encoding="UTF-8" standalone="no"?>
<!DOCTYPE svg PUBLIC "-//W3C//DTD SVG 1.1//EN"
 "http://www.w3.org/Graphics/SVG/1.1/DTD/svg11.dtd">
<!-- Generated by graphviz version 5.0.0 (0)
 -->
<!-- Title: Domain::assemble_resistance Pages: 1 -->
<svg width="368pt" height="66pt"
 viewBox="0.00 0.00 368.00 66.00" xmlns="http://www.w3.org/2000/svg" xmlns:xlink="http://www.w3.org/1999/xlink">
<g id="graph0" class="graph" transform="scale(1 1) rotate(0) translate(4 62)">
<title>Domain::assemble_resistance</title>
<!-- Node1 -->
<g id="node1" class="node">
<title>Node1</title>
<g id="a_node1"><a xlink:title=" ">
<polygon fill="#999999" stroke="#666666" points="199,-39 0,-39 0,-19 199,-19 199,-39"/>
<text text-anchor="middle" x="99.5" y="-26.2" font-family="Consolas" font-size="11.00">Domain::assemble_resistance</text>
</a>
</g>
</g>
<!-- Node2 -->
<g id="node2" class="node">
<title>Node2</title>
<g id="a_node2"><a xlink:href="../../d6/d9c/namespacesuanpan.html#ae5df43309345725b02a5a3f909edc41f" target="_top" xlink:title=" ">
<polygon fill="white" stroke="#666666" points="360,-58 235,-58 235,-38 360,-38 360,-58"/>
<text text-anchor="middle" x="297.5" y="-45.2" font-family="Consolas" font-size="11.00">suanpan::for_all</text>
</a>
</g>
</g>
<!-- Node1&#45;&gt;Node2 -->
<g id="edge1" class="edge">
<title>Node1&#45;&gt;Node2</title>
<path fill="none" stroke="#63b8ff" d="M199.07,-38.56C207.75,-39.4 216.42,-40.24 224.81,-41.05"/>
<polygon fill="#63b8ff" stroke="#63b8ff" points="224.6,-44.55 234.89,-42.03 225.27,-37.58 224.6,-44.55"/>
</g>
<!-- Node3 -->
<g id="node3" class="node">
<title>Node3</title>
<g id="a_node3"><a xlink:href="../../da/d56/class_storage.html#aaea6dbc46854eaf228e053459c79743d" target="_top" xlink:title=" ">
<polygon fill="white" stroke="#666666" points="346.5,-20 248.5,-20 248.5,0 346.5,0 346.5,-20"/>
<text text-anchor="middle" x="297.5" y="-7.2" font-family="Consolas" font-size="11.00">Storage::get</text>
</a>
</g>
</g>
<!-- Node1&#45;&gt;Node3 -->
<g id="edge2" class="edge">
<title>Node1&#45;&gt;Node3</title>
<path fill="none" stroke="#63b8ff" d="M199.07,-19.44C212.48,-18.14 225.87,-16.85 238.24,-15.65"/>
<polygon fill="#63b8ff" stroke="#63b8ff" points="238.76,-19.11 248.38,-14.67 238.09,-12.15 238.76,-19.11"/>
</g>
</g>
</svg>
