<?xml version="1.0" encoding="UTF-8" standalone="no"?>
<!DOCTYPE svg PUBLIC "-//W3C//DTD SVG 1.1//EN"
 "http://www.w3.org/Graphics/SVG/1.1/DTD/svg11.dtd">
<!-- Generated by graphviz version 9.0.0 (20230911.1827)
 -->
<!-- Title: Constraint/BC/PenaltyBC.h Pages: 1 -->
<svg width="606pt" height="300pt"
 viewBox="0.00 0.00 606.00 300.00" xmlns="http://www.w3.org/2000/svg" xmlns:xlink="http://www.w3.org/1999/xlink">
<g id="graph0" class="graph" transform="scale(1 1) rotate(0) translate(4 296)">
<title>Constraint/BC/PenaltyBC.h</title>
<!-- Node1 -->
<g id="Node000001" class="node">
<title>Node1</title>
<g id="a_Node000001"><a xlink:title=" ">
<polygon fill="#999999" stroke="#666666" points="492,-292 326,-292 326,-270.5 492,-270.5 492,-292"/>
<text text-anchor="middle" x="409" y="-277.55" font-family="Consolas" font-size="11.00">Constraint/BC/PenaltyBC.h</text>
</a>
</g>
</g>
<!-- Node2 -->
<g id="Node000002" class="node">
<title>Node2</title>
<g id="a_Node000002"><a xlink:href="../../d9/d2b/_multiplier_b_c_8h.html" target="_top" xlink:title=" ">
<polygon fill="white" stroke="#666666" points="402,-234.5 218,-234.5 218,-213 402,-213 402,-234.5"/>
<text text-anchor="middle" x="310" y="-220.05" font-family="Consolas" font-size="11.00">Constraint/BC/MultiplierBC.h</text>
</a>
</g>
</g>
<!-- Node1&#45;&gt;Node2 -->
<g id="edge1_Node000001_Node000002" class="edge">
<title>Node1&#45;&gt;Node2</title>
<g id="a_edge1_Node000001_Node000002"><a xlink:title=" ">
<path fill="none" stroke="#63b8ff" d="M380.91,-264.5C363.93,-254.99 342.8,-243.14 328.04,-234.87"/>
<polygon fill="#63b8ff" stroke="#63b8ff" points="379.09,-267.49 389.52,-269.33 382.51,-261.39 379.09,-267.49"/>
</a>
</g>
</g>
<!-- Node8 -->
<g id="Node000008" class="node">
<title>Node8</title>
<g id="a_Node000008"><a xlink:href="../../d1/d90/_penalty_b_c_8cpp.html" target="_top" xlink:title=" ">
<polygon fill="white" stroke="#666666" points="598,-234.5 420,-234.5 420,-213 598,-213 598,-234.5"/>
<text text-anchor="middle" x="509" y="-220.05" font-family="Consolas" font-size="11.00">Constraint/BC/PenaltyBC.cpp</text>
</a>
</g>
</g>
<!-- Node1&#45;&gt;Node8 -->
<g id="edge7_Node000001_Node000008" class="edge">
<title>Node1&#45;&gt;Node8</title>
<g id="a_edge7_Node000001_Node000008"><a xlink:title=" ">
<path fill="none" stroke="#63b8ff" d="M437.38,-264.5C454.52,-254.99 475.87,-243.14 490.77,-234.87"/>
<polygon fill="#63b8ff" stroke="#63b8ff" points="435.71,-261.42 428.66,-269.34 439.11,-267.54 435.71,-261.42"/>
</a>
</g>
</g>
<!-- Node3 -->
<g id="Node000003" class="node">
<title>Node3</title>
<g id="a_Node000003"><a xlink:href="../../dc/d90/_group_penalty_b_c_8h.html" target="_top" xlink:title=" ">
<polygon fill="white" stroke="#666666" points="310,-170.25 114,-170.25 114,-148.75 310,-148.75 310,-170.25"/>
<text text-anchor="middle" x="212" y="-155.8" font-family="Consolas" font-size="11.00">Constraint/BC/GroupPenaltyBC.h</text>
</a>
</g>
</g>
<!-- Node2&#45;&gt;Node3 -->
<g id="edge2_Node000002_Node000003" class="edge">
<title>Node2&#45;&gt;Node3</title>
<g id="a_edge2_Node000002_Node000003"><a xlink:title=" ">
<path fill="none" stroke="#63b8ff" d="M284.72,-206.69C266.84,-195.34 243.4,-180.45 228.03,-170.68"/>
<polygon fill="#63b8ff" stroke="#63b8ff" points="282.66,-209.53 292.98,-211.94 286.41,-203.62 282.66,-209.53"/>
</a>
</g>
</g>
<!-- Node7 -->
<g id="Node000007" class="node">
<title>Node7</title>
<g id="a_Node000007"><a xlink:href="../../d5/dde/_multiplier_b_c_8cpp.html" target="_top" xlink:title=" ">
<polygon fill="white" stroke="#666666" points="488,-177 328,-177 328,-142 488,-142 488,-177"/>
<text text-anchor="start" x="336" y="-162.55" font-family="Consolas" font-size="11.00">Constraint/BC/Multiplier</text>
<text text-anchor="middle" x="408" y="-149.05" font-family="Consolas" font-size="11.00">BC.cpp</text>
</a>
</g>
</g>
<!-- Node2&#45;&gt;Node7 -->
<g id="edge6_Node000002_Node000007" class="edge">
<title>Node2&#45;&gt;Node7</title>
<g id="a_edge6_Node000002_Node000007"><a xlink:title=" ">
<path fill="none" stroke="#63b8ff" d="M335.37,-206.64C349.56,-197.62 367.23,-186.4 381.59,-177.28"/>
<polygon fill="#63b8ff" stroke="#63b8ff" points="333.59,-203.62 327.02,-211.94 337.34,-209.53 333.59,-203.62"/>
</a>
</g>
</g>
<!-- Node4 -->
<g id="Node000004" class="node">
<title>Node4</title>
<g id="a_Node000004"><a xlink:href="../../d8/d15/_group_multiplier_b_c_8h.html" target="_top" xlink:title=" ">
<polygon fill="white" stroke="#666666" points="214,-99.25 0,-99.25 0,-77.75 214,-77.75 214,-99.25"/>
<text text-anchor="middle" x="107" y="-84.8" font-family="Consolas" font-size="11.00">Constraint/BC/GroupMultiplierBC.h</text>
</a>
</g>
</g>
<!-- Node3&#45;&gt;Node4 -->
<g id="edge3_Node000003_Node000004" class="edge">
<title>Node3&#45;&gt;Node4</title>
<g id="a_edge3_Node000003_Node000004"><a xlink:title=" ">
<path fill="none" stroke="#63b8ff" d="M187.09,-142.13C167.06,-128.97 139.57,-110.9 122.56,-99.72"/>
<polygon fill="#63b8ff" stroke="#63b8ff" points="184.96,-144.92 195.24,-147.49 188.81,-139.07 184.96,-144.92"/>
</a>
</g>
</g>
<!-- Node6 -->
<g id="Node000006" class="node">
<title>Node6</title>
<g id="a_Node000006"><a xlink:href="../../dc/da8/_group_penalty_b_c_8cpp.html" target="_top" xlink:title=" ">
<polygon fill="white" stroke="#666666" points="404,-106 232,-106 232,-71 404,-71 404,-106"/>
<text text-anchor="start" x="240" y="-91.55" font-family="Consolas" font-size="11.00">Constraint/BC/GroupPenalty</text>
<text text-anchor="middle" x="318" y="-78.05" font-family="Consolas" font-size="11.00">BC.cpp</text>
</a>
</g>
</g>
<!-- Node3&#45;&gt;Node6 -->
<g id="edge5_Node000003_Node000006" class="edge">
<title>Node3&#45;&gt;Node6</title>
<g id="a_edge5_Node000003_Node000006"><a xlink:title=" ">
<path fill="none" stroke="#63b8ff" d="M237.2,-142.1C253.74,-131.33 275.32,-117.28 292.01,-106.42"/>
<polygon fill="#63b8ff" stroke="#63b8ff" points="235.38,-139.1 228.91,-147.49 239.2,-144.97 235.38,-139.1"/>
</a>
</g>
</g>
<!-- Node5 -->
<g id="Node000005" class="node">
<title>Node5</title>
<g id="a_Node000005"><a xlink:href="../../d0/d41/_group_multiplier_b_c_8cpp.html" target="_top" xlink:title=" ">
<polygon fill="white" stroke="#666666" points="202,-35 12,-35 12,0 202,0 202,-35"/>
<text text-anchor="start" x="20" y="-20.55" font-family="Consolas" font-size="11.00">Constraint/BC/GroupMultiplier</text>
<text text-anchor="middle" x="107" y="-7.05" font-family="Consolas" font-size="11.00">BC.cpp</text>
</a>
</g>
</g>
<!-- Node4&#45;&gt;Node5 -->
<g id="edge4_Node000004_Node000005" class="edge">
<title>Node4&#45;&gt;Node5</title>
<g id="a_edge4_Node000004_Node000005"><a xlink:title=" ">
<path fill="none" stroke="#63b8ff" d="M107,-66.02C107,-56.16 107,-44.64 107,-35.42"/>
<polygon fill="#63b8ff" stroke="#63b8ff" points="103.5,-65.81 107,-75.81 110.5,-65.81 103.5,-65.81"/>
</a>
</g>
</g>
</g>
</svg>
