<?xml version="1.0" encoding="UTF-8" standalone="no"?>
<!DOCTYPE svg PUBLIC "-//W3C//DTD SVG 1.1//EN"
 "http://www.w3.org/Graphics/SVG/1.1/DTD/svg11.dtd">
<!-- Generated by graphviz version 9.0.0 (20230911.1827)
 -->
<!-- Title: Converter::process_amplitude Pages: 1 -->
<svg width="292pt" height="150pt"
 viewBox="0.00 0.00 292.00 149.50" xmlns="http://www.w3.org/2000/svg" xmlns:xlink="http://www.w3.org/1999/xlink">

<svg id="main" version="1.1" xmlns="http://www.w3.org/2000/svg" xmlns:xlink="http://www.w3.org/1999/xlink" xml:space="preserve" onload="init(evt)">
<style type="text/css"><![CDATA[
.node, .edge {opacity: 0.7;}
.node.selected, .edge.selected {opacity: 1;}
.edge:hover path { stroke: red; }
.edge:hover polygon { stroke: red; fill: red; }
]]></style>
<script type="application/ecmascript" xlink:href="../../svg.min.js"/>
<svg id="graph" class="graph">
<g id="graph0" class="graph" transform="scale(1 1) rotate(0) translate(4 145.5)">
<title>Converter::process_amplitude</title>
<!-- Node1 -->
<g id="Node000001" class="node">
<title>Node1</title>
<g id="a_Node000001"><a xlink:title=" ">
<polygon fill="#999999" stroke="#666666" points="124,-88.25 0,-88.25 0,-53.25 124,-53.25 124,-88.25"/>
<text text-anchor="start" x="8" y="-73.8" font-family="Consolas" font-size="11.00">Converter::process</text>
<text text-anchor="middle" x="62" y="-60.3" font-family="Consolas" font-size="11.00">_amplitude</text>
</a>
</g>
</g>
<!-- Node2 -->
<g id="Node000002" class="node">
<title>Node2</title>
<g id="a_Node000002"><a xlink:href="../../db/dda/struct_converter.html#a46bf02d6c3a196314ed4abe0feddc96e" target="_top" xlink:title=" ">
<polygon fill="white" stroke="#666666" points="278,-141.5 166,-141.5 166,-120 278,-120 278,-141.5"/>
<text text-anchor="middle" x="222" y="-127.05" font-family="Consolas" font-size="11.00">Converter::clean</text>
</a>
</g>
</g>
<!-- Node1&#45;&gt;Node2 -->
<g id="edge1_Node000001_Node000002" class="edge">
<title>Node1&#45;&gt;Node2</title>
<g id="a_edge1_Node000001_Node000002"><a xlink:title=" ">
<path fill="none" stroke="#63b8ff" d="M104.27,-88.56C121.4,-95.75 141.55,-103.93 160,-110.75 164.71,-112.49 169.66,-114.24 174.61,-115.94"/>
<polygon fill="#63b8ff" stroke="#63b8ff" points="173.34,-119.2 183.93,-119.08 175.57,-112.57 173.34,-119.2"/>
</a>
</g>
</g>
<!-- Node3 -->
<g id="Node000003" class="node">
<title>Node3</title>
<g id="a_Node000003"><a xlink:href="../../d5/d47/utility_8h.html#a28b47ba8588036035501b1cf8cf51812" target="_top" xlink:title=" ">
<polygon fill="white" stroke="#666666" points="257,-101.5 187,-101.5 187,-80 257,-80 257,-101.5"/>
<text text-anchor="middle" x="222" y="-87.05" font-family="Consolas" font-size="11.00">get_input</text>
</a>
</g>
</g>
<!-- Node1&#45;&gt;Node3 -->
<g id="edge2_Node000001_Node000003" class="edge">
<title>Node1&#45;&gt;Node3</title>
<g id="a_edge2_Node000001_Node000003"><a xlink:title=" ">
<path fill="none" stroke="#63b8ff" d="M124.09,-78.48C141.14,-80.64 159.36,-82.95 175.35,-84.97"/>
<polygon fill="#63b8ff" stroke="#63b8ff" points="174.69,-88.42 185.05,-86.2 175.57,-81.47 174.69,-88.42"/>
</a>
</g>
</g>
<!-- Node4 -->
<g id="Node000004" class="node">
<title>Node4</title>
<g id="a_Node000004"><a xlink:href="../../db/dda/struct_converter.html#addea4b05ed64bcad85e2a5b0554f3d3b" target="_top" xlink:title=" ">
<polygon fill="white" stroke="#666666" points="284,-61.5 160,-61.5 160,-40 284,-40 284,-61.5"/>
<text text-anchor="middle" x="222" y="-47.05" font-family="Consolas" font-size="11.00">Converter::getline</text>
</a>
</g>
</g>
<!-- Node1&#45;&gt;Node4 -->
<g id="edge3_Node000001_Node000004" class="edge">
<title>Node1&#45;&gt;Node4</title>
<g id="a_edge3_Node000001_Node000004"><a xlink:title=" ">
<path fill="none" stroke="#63b8ff" d="M124.09,-63.02C132,-62.02 140.16,-60.98 148.23,-59.96"/>
<polygon fill="#63b8ff" stroke="#63b8ff" points="148.57,-63.45 158.05,-58.72 147.69,-56.5 148.57,-63.45"/>
</a>
</g>
</g>
<!-- Node5 -->
<g id="Node000005" class="node">
<title>Node5</title>
<g id="a_Node000005"><a xlink:href="../../dc/dfa/utility_8cpp.html#aec5c03b9af3b75833d6e8a674d88f5fd" target="_top" xlink:title=" ">
<polygon fill="white" stroke="#666666" points="254,-21.5 190,-21.5 190,0 254,0 254,-21.5"/>
<text text-anchor="middle" x="222" y="-7.05" font-family="Consolas" font-size="11.00">is_equal</text>
</a>
</g>
</g>
<!-- Node1&#45;&gt;Node5 -->
<g id="edge4_Node000001_Node000005" class="edge">
<title>Node1&#45;&gt;Node5</title>
<g id="a_edge4_Node000001_Node000005"><a xlink:title=" ">
<path fill="none" stroke="#63b8ff" d="M104.27,-52.94C121.4,-45.75 141.55,-37.57 160,-30.75 166.16,-28.47 172.72,-26.18 179.16,-24.01"/>
<polygon fill="#63b8ff" stroke="#63b8ff" points="179.99,-27.43 188.38,-20.96 177.78,-20.78 179.99,-27.43"/>
</a>
</g>
</g>
</g>
</svg>
</svg>

<style type='text/css'>
<![CDATA[
[data-mouse-over-selected='false'] { opacity: 0.7; }
[data-mouse-over-selected='true']  { opacity: 1.0; }
]]>
</style>
<script type="application/ecmascript"><![CDATA[
document.addEventListener('DOMContentLoaded', (event) => {
  highlightEdges();
  highlightAdjacentNodes();
});
]]></script>
</svg>
