<?xml version="1.0" encoding="UTF-8" standalone="no"?>
<!DOCTYPE svg PUBLIC "-//W3C//DTD SVG 1.1//EN"
 "http://www.w3.org/Graphics/SVG/1.1/DTD/svg11.dtd">
<!-- Generated by graphviz version 2.43.0 (0)
 -->
<!-- Title: ArmstrongFrederick::initialize Pages: 1 -->
<svg width="381pt" height="80pt"
 viewBox="0.00 0.00 381.00 80.00" xmlns="http://www.w3.org/2000/svg" xmlns:xlink="http://www.w3.org/1999/xlink">
<g id="graph0" class="graph" transform="scale(1 1) rotate(0) translate(4 76)">
<title>ArmstrongFrederick::initialize</title>
<polygon fill="white" stroke="transparent" points="-4,4 -4,-76 377,-76 377,4 -4,4"/>
<!-- Node1 -->
<g id="node1" class="node">
<title>Node1</title>
<g id="a_node1"><a xlink:title=" ">
<polygon fill="#bfbfbf" stroke="black" points="0,-16.5 0,-48.5 138,-48.5 138,-16.5 0,-16.5"/>
<text text-anchor="start" x="8" y="-35.7" font-family="Consolas" font-size="11.00">ArmstrongFrederick</text>
<text text-anchor="middle" x="69" y="-23.7" font-family="Consolas" font-size="11.00">::initialize</text>
</a>
</g>
</g>
<!-- Node2 -->
<g id="node2" class="node">
<title>Node2</title>
<g id="a_node2"><a xlink:href="../../dc/dee/class_material.html#ac62c67f984ab44bbf36375e1a0ddfb35" target="_top" xlink:title=" ">
<polygon fill="white" stroke="black" points="197.5,-39.5 197.5,-71.5 349.5,-71.5 349.5,-39.5 197.5,-39.5"/>
<text text-anchor="start" x="205.5" y="-58.7" font-family="Consolas" font-size="11.00">Material::initialize</text>
<text text-anchor="middle" x="273.5" y="-46.7" font-family="Consolas" font-size="11.00">_history</text>
</a>
</g>
</g>
<!-- Node1&#45;&gt;Node2 -->
<g id="edge1" class="edge">
<title>Node1&#45;&gt;Node2</title>
<path fill="none" stroke="midnightblue" d="M138.27,-40.25C153.96,-42.04 170.84,-43.95 187.15,-45.81"/>
<polygon fill="midnightblue" stroke="midnightblue" points="186.89,-49.3 197.22,-46.95 187.68,-42.34 186.89,-49.3"/>
</g>
<!-- Node3 -->
<g id="node3" class="node">
<title>Node3</title>
<g id="a_node3"><a xlink:href="../../dd/d8c/namespacetensor.html#aa32a31a9292354d44052b8f5351669ce" target="_top" xlink:title=" ">
<polygon fill="white" stroke="black" points="174,-0.5 174,-20.5 373,-20.5 373,-0.5 174,-0.5"/>
<text text-anchor="middle" x="273.5" y="-7.7" font-family="Consolas" font-size="11.00">tensor::isotropic_stiffness</text>
</a>
</g>
</g>
<!-- Node1&#45;&gt;Node3 -->
<g id="edge2" class="edge">
<title>Node1&#45;&gt;Node3</title>
<path fill="none" stroke="midnightblue" d="M138.27,-25.08C148.65,-23.96 159.54,-22.77 170.44,-21.59"/>
<polygon fill="midnightblue" stroke="midnightblue" points="170.88,-25.06 180.45,-20.5 170.13,-18.1 170.88,-25.06"/>
</g>
</g>
</svg>
