<?xml version="1.0" encoding="UTF-8" standalone="no"?>
<!DOCTYPE svg PUBLIC "-//W3C//DTD SVG 1.1//EN"
 "http://www.w3.org/Graphics/SVG/1.1/DTD/svg11.dtd">
<!-- Generated by graphviz version 2.43.0 (0)
 -->
<!-- Title: DataNonlinearDruckerPrager Pages: 1 -->
<!--zoomable 460 -->

<svg id="main" version="1.1" xmlns="http://www.w3.org/2000/svg" xmlns:xlink="http://www.w3.org/1999/xlink" xml:space="preserve" onload="init(evt)">
<style type="text/css"><![CDATA[
.node, .edge {opacity: 0.7;}
.node.selected, .edge.selected {opacity: 1;}
.edge:hover path { stroke: red; }
.edge:hover polygon { stroke: red; fill: red; }
]]></style>

<defs>
  <circle id="rim" cx="0" cy="0" r="7"/>
  <circle id="rim2" cx="0" cy="0" r="3.5"/>
  <g id="zoomPlus">
    <use xlink:href="#rim" fill="#404040"><set attributeName="fill" to="#808080" begin="zoomplus.mouseover" end="zoomplus.mouseout"/></use>
    <path d="M-4,0h8M0,-4v8" fill="none" stroke="white" stroke-width="1.5" pointer-events="none"/>
  </g>
  <g id="zoomMin">
    <use xlink:href="#rim" fill="#404040"><set attributeName="fill" to="#808080" begin="zoomminus.mouseover" end="zoomminus.mouseout"/></use>
    <path d="M-4,0h8" fill="none" stroke="white" stroke-width="1.5" pointer-events="none"/>
  </g>
  <g id="arrowUp" transform="translate(30 24)">
    <use xlink:href="#rim"/>
    <path pointer-events="none" fill="none" stroke="white" stroke-width="1.5" d="M0,-3.0v7 M-2.5,-0.5L0,-3.0L2.5,-0.5"/>
  </g>
  <g id="arrowRight" transform="rotate(90) translate(36 -43)">
    <use xlink:href="#rim"/>
    <path pointer-events="none" fill="none" stroke="white" stroke-width="1.5" d="M0,-3.0v7 M-2.5,-0.5L0,-3.0L2.5,-0.5"/>
  </g>
  <g id="arrowDown" transform="rotate(180) translate(-30 -48)">
    <use xlink:href="#rim"/>
    <path pointer-events="none" fill="none" stroke="white" stroke-width="1.5" d="M0,-3.0v7 M-2.5,-0.5L0,-3.0L2.5,-0.5"/>
  </g>
  <g id="arrowLeft" transform="rotate(270) translate(-36 17)">
    <use xlink:href="#rim"/>
    <path pointer-events="none" fill="none" stroke="white" stroke-width="1.5" d="M0,-3.0v7 M-2.5,-0.5L0,-3.0L2.5,-0.5"/>
  </g>
  <g id="resetDef">
    <use xlink:href="#rim2" fill="#404040"><set attributeName="fill" to="#808080" begin="reset.mouseover" end="reset.mouseout"/></use>
  </g>
</defs>
<script type="application/ecmascript">
var viewWidth = 333;
var viewHeight = 460;
var sectionId = 'dynsection-0';
</script>
<script type="application/ecmascript" xlink:href="../../svg.min.js"/>
<svg id="graph" class="graph">
<g id="viewport">
<title>DataNonlinearDruckerPrager</title>
<!-- Node1 -->
<g id="Node000001" class="node">
<title>Node1</title>
<g id="a_Node000001"><a xlink:title=" ">
<polygon fill="#999999" stroke="transparent" points="262.5,-452 76.5,-452 76.5,-336 262.5,-336 262.5,-452"/>
<text text-anchor="start" x="81.5" y="-439.2" font-family="Consolas" font-size="11.00">DataNonlinearDruckerPrager</text>
<text text-anchor="start" x="96.5" y="-423.2" font-family="Consolas" font-size="11.00">+</text>
<text text-anchor="start" x="123.5" y="-423.2" font-family="Consolas" font-size="11.00">elastic_modulus</text>
<text text-anchor="start" x="96.5" y="-407.2" font-family="Consolas" font-size="11.00">+</text>
<text text-anchor="start" x="123.5" y="-407.2" font-family="Consolas" font-size="11.00">poissons_ratio</text>
<text text-anchor="start" x="96.5" y="-391.2" font-family="Consolas" font-size="11.00">+</text>
<text text-anchor="start" x="123.5" y="-391.2" font-family="Consolas" font-size="11.00">eta_yield</text>
<text text-anchor="start" x="96.5" y="-375.2" font-family="Consolas" font-size="11.00">+</text>
<text text-anchor="start" x="123.5" y="-375.2" font-family="Consolas" font-size="11.00">eta_flow</text>
<text text-anchor="start" x="96.5" y="-359.2" font-family="Consolas" font-size="11.00">+</text>
<text text-anchor="start" x="123.5" y="-359.2" font-family="Consolas" font-size="11.00">xi</text>
<text text-anchor="start" x="166" y="-343.2" font-family="Consolas" font-size="11.00"> </text>
<polygon fill="#666666" stroke="#666666" points="76.5,-434 76.5,-434 262.5,-434 262.5,-434 76.5,-434"/>
<polygon fill="#666666" stroke="#666666" points="76.5,-354 76.5,-354 121.5,-354 121.5,-354 76.5,-354"/>
<polygon fill="#666666" stroke="#666666" points="121.5,-354 121.5,-354 262.5,-354 262.5,-354 121.5,-354"/>
<polygon fill="none" stroke="#666666" points="76.5,-336 76.5,-452 262.5,-452 262.5,-336 76.5,-336"/>
</a>
</g>
</g>
<!-- Node2 -->
<g id="Node000002" class="node">
<title>Node2</title>
<g id="a_Node000002"><a xlink:href="../../d2/dbe/class_nonlinear_drucker_prager.html" target="_top" xlink:title="The NonlinearDruckerPrager class.">
<polygon fill="white" stroke="transparent" points="260.5,-300 78.5,-300 78.5,-136 260.5,-136 260.5,-300"/>
<text text-anchor="start" x="95" y="-287.2" font-family="Consolas" font-size="11.00">NonlinearDruckerPrager</text>
<text text-anchor="start" x="166" y="-271.2" font-family="Consolas" font-size="11.00"> </text>
<text text-anchor="start" x="82.5" y="-255.2" font-family="Consolas" font-size="11.00">+</text>
<text text-anchor="start" x="93.5" y="-255.2" font-family="Consolas" font-size="11.00">NonlinearDruckerPrager()</text>
<text text-anchor="start" x="82.5" y="-239.2" font-family="Consolas" font-size="11.00">+</text>
<text text-anchor="start" x="93.5" y="-239.2" font-family="Consolas" font-size="11.00">initialize()</text>
<text text-anchor="start" x="82.5" y="-223.2" font-family="Consolas" font-size="11.00">+</text>
<text text-anchor="start" x="93.5" y="-223.2" font-family="Consolas" font-size="11.00">get_parameter()</text>
<text text-anchor="start" x="82.5" y="-207.2" font-family="Consolas" font-size="11.00">+</text>
<text text-anchor="start" x="93.5" y="-207.2" font-family="Consolas" font-size="11.00">update_trial_status()</text>
<text text-anchor="start" x="82.5" y="-191.2" font-family="Consolas" font-size="11.00">+</text>
<text text-anchor="start" x="93.5" y="-191.2" font-family="Consolas" font-size="11.00">clear_status()</text>
<text text-anchor="start" x="82.5" y="-175.2" font-family="Consolas" font-size="11.00">+</text>
<text text-anchor="start" x="93.5" y="-175.2" font-family="Consolas" font-size="11.00">commit_status()</text>
<text text-anchor="start" x="82.5" y="-159.2" font-family="Consolas" font-size="11.00">+</text>
<text text-anchor="start" x="93.5" y="-159.2" font-family="Consolas" font-size="11.00">reset_status()</text>
<text text-anchor="start" x="82.5" y="-143.2" font-family="Consolas" font-size="11.00">+</text>
<text text-anchor="start" x="93.5" y="-143.2" font-family="Consolas" font-size="11.00">print()</text>
<polygon fill="#666666" stroke="#666666" points="78.5,-282 78.5,-282 260.5,-282 260.5,-282 78.5,-282"/>
<polygon fill="#666666" stroke="#666666" points="78.5,-266 78.5,-266 260.5,-266 260.5,-266 78.5,-266"/>
<polygon fill="none" stroke="#666666" points="78.5,-136 78.5,-300 260.5,-300 260.5,-136 78.5,-136"/>
</a>
</g>
</g>
<!-- Node1&#45;&gt;Node2 -->
<g id="edge1_Node000001_Node000002" class="edge">
<title>Node1&#45;&gt;Node2</title>
<g id="a_edge1_Node000001_Node000002"><a xlink:title=" ">
<path fill="none" stroke="darkgreen" d="M169.5,-325.5C169.5,-317.15 169.5,-308.54 169.5,-300.01"/>
<polygon fill="none" stroke="darkgreen" points="166,-325.54 169.5,-335.54 173,-325.54 166,-325.54"/>
</a>
</g>
</g>
<!-- Node3 -->
<g id="Node000003" class="node">
<title>Node3</title>
<g id="a_Node000003"><a xlink:href="../../d4/d42/class_bilinear_d_p.html" target="_top" xlink:title="The BilinearDP class.">
<polygon fill="white" stroke="transparent" points="101,-92 0,-92 0,-8 101,-8 101,-92"/>
<text text-anchor="start" x="17" y="-79.2" font-family="Consolas" font-size="11.00">BilinearDP</text>
<text text-anchor="start" x="47.5" y="-63.2" font-family="Consolas" font-size="11.00"> </text>
<text text-anchor="start" x="4.5" y="-47.2" font-family="Consolas" font-size="11.00">+</text>
<text text-anchor="start" x="15.5" y="-47.2" font-family="Consolas" font-size="11.00">BilinearDP()</text>
<text text-anchor="start" x="4.5" y="-31.2" font-family="Consolas" font-size="11.00">+</text>
<text text-anchor="start" x="15.5" y="-31.2" font-family="Consolas" font-size="11.00">get_copy()</text>
<text text-anchor="start" x="4.5" y="-15.2" font-family="Consolas" font-size="11.00">+</text>
<text text-anchor="start" x="15.5" y="-15.2" font-family="Consolas" font-size="11.00">print()</text>
<polygon fill="#666666" stroke="#666666" points="0.5,-74 0.5,-74 101.5,-74 101.5,-74 0.5,-74"/>
<polygon fill="#666666" stroke="#666666" points="0.5,-58 0.5,-58 101.5,-58 101.5,-58 0.5,-58"/>
<polygon fill="none" stroke="#666666" points="0,-8 0,-92 101,-92 101,-8 0,-8"/>
</a>
</g>
</g>
<!-- Node2&#45;&gt;Node3 -->
<g id="edge2_Node000002_Node000003" class="edge">
<title>Node2&#45;&gt;Node3</title>
<g id="a_edge2_Node000002_Node000003"><a xlink:title=" ">
<path fill="none" stroke="#63b8ff" d="M105.54,-127.79C96.66,-115.39 87.91,-103.18 80.09,-92.27"/>
<polygon fill="none" stroke="#63b8ff" points="102.72,-129.86 111.39,-135.95 108.41,-125.78 102.72,-129.86"/>
</a>
</g>
</g>
<!-- Node4 -->
<g id="Node000004" class="node">
<title>Node4</title>
<g id="a_Node000004"><a xlink:href="../../d1/d95/class_custom_d_p.html" target="_top" xlink:title="The CustomDP class.">
<polygon fill="white" stroke="transparent" points="220,-100 119,-100 119,0 220,0 220,-100"/>
<text text-anchor="start" x="142.5" y="-87.2" font-family="Consolas" font-size="11.00">CustomDP</text>
<text text-anchor="start" x="166.5" y="-71.2" font-family="Consolas" font-size="11.00"> </text>
<text text-anchor="start" x="123.5" y="-55.2" font-family="Consolas" font-size="11.00">+</text>
<text text-anchor="start" x="134.5" y="-55.2" font-family="Consolas" font-size="11.00">CustomDP()</text>
<text text-anchor="start" x="123.5" y="-39.2" font-family="Consolas" font-size="11.00">+</text>
<text text-anchor="start" x="134.5" y="-39.2" font-family="Consolas" font-size="11.00">initialize()</text>
<text text-anchor="start" x="123.5" y="-23.2" font-family="Consolas" font-size="11.00">+</text>
<text text-anchor="start" x="134.5" y="-23.2" font-family="Consolas" font-size="11.00">get_copy()</text>
<text text-anchor="start" x="123.5" y="-7.2" font-family="Consolas" font-size="11.00">+</text>
<text text-anchor="start" x="134.5" y="-7.2" font-family="Consolas" font-size="11.00">print()</text>
<polygon fill="#666666" stroke="#666666" points="119.5,-82 119.5,-82 220.5,-82 220.5,-82 119.5,-82"/>
<polygon fill="#666666" stroke="#666666" points="119.5,-66 119.5,-66 220.5,-66 220.5,-66 119.5,-66"/>
<polygon fill="none" stroke="#666666" points="119,0 119,-100 220,-100 220,0 119,0"/>
</a>
</g>
</g>
<!-- Node2&#45;&gt;Node4 -->
<g id="edge3_Node000002_Node000004" class="edge">
<title>Node2&#45;&gt;Node4</title>
<g id="a_edge3_Node000002_Node000004"><a xlink:title=" ">
<path fill="none" stroke="#63b8ff" d="M169.5,-125.68C169.5,-116.96 169.5,-108.37 169.5,-100.29"/>
<polygon fill="none" stroke="#63b8ff" points="166,-125.95 169.5,-135.95 173,-125.95 166,-125.95"/>
</a>
</g>
</g>
<!-- Node5 -->
<g id="Node000005" class="node">
<title>Node5</title>
<g id="a_Node000005"><a xlink:href="../../d0/d64/class_exp_d_p.html" target="_top" xlink:title="The ExpDP class.">
<polygon fill="white" stroke="transparent" points="325,-92 238,-92 238,-8 325,-8 325,-92"/>
<text text-anchor="start" x="265" y="-79.2" font-family="Consolas" font-size="11.00">ExpDP</text>
<text text-anchor="start" x="278.5" y="-63.2" font-family="Consolas" font-size="11.00"> </text>
<text text-anchor="start" x="242.5" y="-47.2" font-family="Consolas" font-size="11.00">+</text>
<text text-anchor="start" x="253.5" y="-47.2" font-family="Consolas" font-size="11.00">ExpDP()</text>
<text text-anchor="start" x="242.5" y="-31.2" font-family="Consolas" font-size="11.00">+</text>
<text text-anchor="start" x="253.5" y="-31.2" font-family="Consolas" font-size="11.00">get_copy()</text>
<text text-anchor="start" x="242.5" y="-15.2" font-family="Consolas" font-size="11.00">+</text>
<text text-anchor="start" x="253.5" y="-15.2" font-family="Consolas" font-size="11.00">print()</text>
<polygon fill="#666666" stroke="#666666" points="238.5,-74 238.5,-74 325.5,-74 325.5,-74 238.5,-74"/>
<polygon fill="#666666" stroke="#666666" points="238.5,-58 238.5,-58 325.5,-58 325.5,-58 238.5,-58"/>
<polygon fill="none" stroke="#666666" points="238,-8 238,-92 325,-92 325,-8 238,-8"/>
</a>
</g>
</g>
<!-- Node2&#45;&gt;Node5 -->
<g id="edge4_Node000002_Node000005" class="edge">
<title>Node2&#45;&gt;Node5</title>
<g id="a_edge4_Node000002_Node000005"><a xlink:title=" ">
<path fill="none" stroke="#63b8ff" d="M229.93,-127.43C238.21,-115.16 246.36,-103.08 253.65,-92.27"/>
<polygon fill="none" stroke="#63b8ff" points="226.88,-125.7 224.19,-135.95 232.68,-129.61 226.88,-125.7"/>
</a>
</g>
</g>
</g>
</svg>

<g id="navigator" transform="translate(0 0)" fill="#404254">
  <rect fill="#f2f5e9" fill-opacity="0.5" stroke="#606060" stroke-width=".5" x="0" y="0" width="60" height="60"/>
  <use id="zoomplus" xlink:href="#zoomPlus" x="17" y="9" onmousedown="handleZoom(evt,'in')"/>
  <use id="zoomminus" xlink:href="#zoomMin" x="42" y="9" onmousedown="handleZoom(evt,'out')"/>
  <use id="reset" xlink:href="#resetDef" x="30" y="36" onmousedown="handleReset()"/>
   <use id="arrowup" xlink:href="#arrowUp" x="0" y="0" onmousedown="handlePan(0,-1)"/>
  <use id="arrowright" xlink:href="#arrowRight" x="0" y="0" onmousedown="handlePan(1,0)"/>
  <use id="arrowdown" xlink:href="#arrowDown" x="0" y="0" onmousedown="handlePan(0,1)"/>
  <use id="arrowleft" xlink:href="#arrowLeft" x="0" y="0" onmousedown="handlePan(-1,0)"/>
</g>
<svg viewBox="0 0 15 15" width="100%" height="30px" preserveAspectRatio="xMaxYMin meet">
 <g id="arrow_out" transform="scale(0.3 0.3)">
  <a xlink:href="struct_data_nonlinear_drucker_prager__inherit__graph_org.svg" target="_base">
   <rect id="button" ry="5" rx="5" y="6" x="6" height="38" width="38"
        fill="#f2f5e9" fill-opacity="0.5" stroke="#606060" stroke-width="1.0"/>
   <path id="arrow"
     d="M 11.500037,31.436501 C 11.940474,20.09759 22.043105,11.32322 32.158766,21.979434 L 37.068811,17.246167 C 37.068811,17.246167 37.088388,32 37.088388,32 L 22.160133,31.978069 C 22.160133,31.978069 26.997745,27.140456 26.997745,27.140456 C 18.528582,18.264221 13.291696,25.230495 11.500037,31.436501 z"
     style="fill:#404040;"/>
  </a>
 </g>
</svg>

<style type='text/css'>
<![CDATA[
[data-mouse-over-selected='false'] { opacity: 0.7; }
[data-mouse-over-selected='true']  { opacity: 1.0; }
]]>
</style>
<script type="application/ecmascript"><![CDATA[
document.addEventListener('DOMContentLoaded', (event) => {
  highlightEdges();
  highlightAdjacentNodes();
});
]]></script>
</svg>
