<?xml version="1.0" encoding="UTF-8" standalone="no"?>
<!DOCTYPE svg PUBLIC "-//W3C//DTD SVG 1.1//EN"
 "http://www.w3.org/Graphics/SVG/1.1/DTD/svg11.dtd">
<!-- Generated by graphviz version 8.1.0 (20230707.0739)
 -->
<!-- Title: Recorder::if_perform_record Pages: 1 -->
<svg width="334pt" height="346pt"
 viewBox="0.00 0.00 334.00 346.25" xmlns="http://www.w3.org/2000/svg" xmlns:xlink="http://www.w3.org/1999/xlink">

<svg id="main" version="1.1" xmlns="http://www.w3.org/2000/svg" xmlns:xlink="http://www.w3.org/1999/xlink" xml:space="preserve" onload="init(evt)">
<style type="text/css"><![CDATA[
.node, .edge {opacity: 0.7;}
.node.selected, .edge.selected {opacity: 1;}
.edge:hover path { stroke: red; }
.edge:hover polygon { stroke: red; fill: red; }
]]></style>
<script type="application/ecmascript" xlink:href="../../svg.min.js"/>
<svg id="graph" class="graph">
<g id="graph0" class="graph" transform="scale(1 1) rotate(0) translate(4 342.25)">
<title>Recorder::if_perform_record</title>
<!-- Node1 -->
<g id="Node000001" class="node">
<title>Node1</title>
<g id="a_Node000001"><a xlink:title=" ">
<polygon fill="#999999" stroke="#666666" points="326,-183.25 190,-183.25 190,-148.25 326,-148.25 326,-183.25"/>
<text text-anchor="start" x="198" y="-168.8" font-family="Consolas" font-size="11.00">Recorder::if_perform</text>
<text text-anchor="middle" x="258" y="-155.3" font-family="Consolas" font-size="11.00">_record</text>
</a>
</g>
</g>
<!-- Node2 -->
<g id="Node000002" class="node">
<title>Node2</title>
<g id="a_Node000002"><a xlink:href="../../d7/dd6/class_amplitude_recorder.html#aab0f92c0d6187aa384ae9f2753ed458b" target="_top" xlink:title=" ">
<polygon fill="white" stroke="#666666" points="142,-338.25 12,-338.25 12,-303.25 142,-303.25 142,-338.25"/>
<text text-anchor="start" x="20" y="-323.8" font-family="Consolas" font-size="11.00">AmplitudeRecorder::</text>
<text text-anchor="middle" x="77" y="-310.3" font-family="Consolas" font-size="11.00">record</text>
</a>
</g>
</g>
<!-- Node1&#45;&gt;Node2 -->
<g id="edge1_Node000001_Node000002" class="edge">
<title>Node1&#45;&gt;Node2</title>
<g id="a_edge1_Node000001_Node000002"><a xlink:title=" ">
<path fill="none" stroke="#63b8ff" d="M241.97,-192.58C224.4,-221.64 192.74,-267.48 154,-294.75 149.67,-297.8 144.95,-300.52 140.05,-302.93"/>
<polygon fill="#63b8ff" stroke="#63b8ff" points="245.3,-194.81 247.37,-184.42 239.28,-191.25 245.3,-194.81"/>
</a>
</g>
</g>
<!-- Node3 -->
<g id="Node000003" class="node">
<title>Node3</title>
<g id="a_Node000003"><a xlink:href="../../d2/da4/class_element_recorder.html#a6cf95c75254f5294a6073a4ac7bb95c2" target="_top" xlink:title=" ">
<polygon fill="white" stroke="#666666" points="154,-285.5 0,-285.5 0,-264 154,-264 154,-285.5"/>
<text text-anchor="middle" x="77" y="-271.05" font-family="Consolas" font-size="11.00">ElementRecorder::record</text>
</a>
</g>
</g>
<!-- Node1&#45;&gt;Node3 -->
<g id="edge2_Node000001_Node000003" class="edge">
<title>Node1&#45;&gt;Node3</title>
<g id="a_edge2_Node000001_Node000003"><a xlink:title=" ">
<path fill="none" stroke="#63b8ff" d="M233.86,-191.34C214.4,-211.37 184.87,-238.48 154,-254.75 147.36,-258.25 140.07,-261.17 132.71,-263.59"/>
<polygon fill="#63b8ff" stroke="#63b8ff" points="235.95,-194.17 240.31,-184.51 230.88,-189.34 235.95,-194.17"/>
</a>
</g>
</g>
<!-- Node4 -->
<g id="Node000004" class="node">
<title>Node4</title>
<g id="a_Node000004"><a xlink:href="../../da/d11/class_frame_recorder.html#ac2ddb8c6c68804544844eb6de73fa3bc" target="_top" xlink:title=" ">
<polygon fill="white" stroke="#666666" points="148,-245.5 6,-245.5 6,-224 148,-224 148,-245.5"/>
<text text-anchor="middle" x="77" y="-231.05" font-family="Consolas" font-size="11.00">FrameRecorder::record</text>
</a>
</g>
</g>
<!-- Node1&#45;&gt;Node4 -->
<g id="edge3_Node000001_Node000004" class="edge">
<title>Node1&#45;&gt;Node4</title>
<g id="a_edge3_Node000001_Node000004"><a xlink:title=" ">
<path fill="none" stroke="#63b8ff" d="M215.28,-188.44C196.87,-197.81 174.75,-208.21 154,-215.75 146.07,-218.63 137.53,-221.23 129.13,-223.51"/>
<polygon fill="#63b8ff" stroke="#63b8ff" points="216.54,-191.21 223.82,-183.51 213.33,-184.99 216.54,-191.21"/>
</a>
</g>
</g>
<!-- Node5 -->
<g id="Node000005" class="node">
<title>Node5</title>
<g id="a_Node000005"><a xlink:href="../../d6/d11/class_global_mass_recorder.html#a515c76b9720e40fbbbb59309b4c3e6e5" target="_top" xlink:title=" ">
<polygon fill="white" stroke="#666666" points="139,-206.25 15,-206.25 15,-171.25 139,-171.25 139,-206.25"/>
<text text-anchor="start" x="23" y="-191.8" font-family="Consolas" font-size="11.00">GlobalMassRecorder</text>
<text text-anchor="middle" x="77" y="-178.3" font-family="Consolas" font-size="11.00">::record</text>
</a>
</g>
</g>
<!-- Node1&#45;&gt;Node5 -->
<g id="edge4_Node000001_Node000005" class="edge">
<title>Node1&#45;&gt;Node5</title>
<g id="a_edge4_Node000001_Node000005"><a xlink:title=" ">
<path fill="none" stroke="#63b8ff" d="M179.05,-175.77C165.8,-177.47 152.21,-179.21 139.46,-180.85"/>
<polygon fill="#63b8ff" stroke="#63b8ff" points="179.11,-179.16 188.58,-174.41 178.22,-172.22 179.11,-179.16"/>
</a>
</g>
</g>
<!-- Node6 -->
<g id="Node000006" class="node">
<title>Node6</title>
<g id="a_Node000006"><a xlink:href="../../d8/d66/class_global_recorder.html#ae158ed93e81a0963b042bd5f2dde1636" target="_top" xlink:title=" ">
<polygon fill="white" stroke="#666666" points="151,-153.5 3,-153.5 3,-132 151,-132 151,-153.5"/>
<text text-anchor="middle" x="77" y="-139.05" font-family="Consolas" font-size="11.00">GlobalRecorder::record</text>
</a>
</g>
</g>
<!-- Node1&#45;&gt;Node6 -->
<g id="edge5_Node000001_Node000006" class="edge">
<title>Node1&#45;&gt;Node6</title>
<g id="a_edge5_Node000001_Node000006"><a xlink:title=" ">
<path fill="none" stroke="#63b8ff" d="M178.93,-155.72C169.76,-154.54 160.44,-153.34 151.34,-152.17"/>
<polygon fill="#63b8ff" stroke="#63b8ff" points="178.22,-159.28 188.58,-157.09 179.11,-152.34 178.22,-159.28"/>
</a>
</g>
</g>
<!-- Node7 -->
<g id="Node000007" class="node">
<title>Node7</title>
<g id="a_Node000007"><a xlink:href="../../d8/d7d/class_global_stiffness_recorder.html#ac53526f6b5520c229b7556eae51f1f9f" target="_top" xlink:title=" ">
<polygon fill="white" stroke="#666666" points="154,-114.25 0,-114.25 0,-79.25 154,-79.25 154,-114.25"/>
<text text-anchor="start" x="8" y="-99.8" font-family="Consolas" font-size="11.00">GlobalStiffnessRecorder</text>
<text text-anchor="middle" x="77" y="-86.3" font-family="Consolas" font-size="11.00">::record</text>
</a>
</g>
</g>
<!-- Node1&#45;&gt;Node7 -->
<g id="edge6_Node000001_Node000007" class="edge">
<title>Node1&#45;&gt;Node7</title>
<g id="a_edge6_Node000001_Node000007"><a xlink:title=" ">
<path fill="none" stroke="#63b8ff" d="M205.7,-143.55C189.28,-136.66 170.95,-129.18 154,-122.75 146.83,-120.03 139.23,-117.28 131.72,-114.63"/>
<polygon fill="#63b8ff" stroke="#63b8ff" points="204.08,-147.09 214.65,-147.76 206.8,-140.64 204.08,-147.09"/>
</a>
</g>
</g>
<!-- Node8 -->
<g id="Node000008" class="node">
<title>Node8</title>
<g id="a_Node000008"><a xlink:href="../../de/d66/class_node_recorder.html#a3a102a0bdd79c204e4da5a7951964130" target="_top" xlink:title=" ">
<polygon fill="white" stroke="#666666" points="145,-61.5 9,-61.5 9,-40 145,-40 145,-61.5"/>
<text text-anchor="middle" x="77" y="-47.05" font-family="Consolas" font-size="11.00">NodeRecorder::record</text>
</a>
</g>
</g>
<!-- Node1&#45;&gt;Node8 -->
<g id="edge7_Node000001_Node000008" class="edge">
<title>Node1&#45;&gt;Node8</title>
<g id="a_edge7_Node000001_Node000008"><a xlink:title=" ">
<path fill="none" stroke="#63b8ff" d="M235.48,-139.81C216.25,-118.26 186.21,-88.39 154,-70.75 147.66,-67.28 140.68,-64.38 133.61,-61.98"/>
<polygon fill="#63b8ff" stroke="#63b8ff" points="233.33,-141.67 242.54,-146.9 238.6,-137.06 233.33,-141.67"/>
</a>
</g>
</g>
<!-- Node9 -->
<g id="Node000009" class="node">
<title>Node9</title>
<g id="a_Node000009"><a xlink:href="../../d4/d62/class_sum_recorder.html#ac909db2f65c038d9eea0e2d1a78105d0" target="_top" xlink:title=" ">
<polygon fill="white" stroke="#666666" points="142,-21.5 12,-21.5 12,0 142,0 142,-21.5"/>
<text text-anchor="middle" x="77" y="-7.05" font-family="Consolas" font-size="11.00">SumRecorder::record</text>
</a>
</g>
</g>
<!-- Node1&#45;&gt;Node9 -->
<g id="edge8_Node000001_Node000009" class="edge">
<title>Node1&#45;&gt;Node9</title>
<g id="a_edge8_Node000001_Node000009"><a xlink:title=" ">
<path fill="none" stroke="#63b8ff" d="M243.19,-138.11C226.35,-107.26 194.99,-58.08 154,-30.75 148.67,-27.19 142.73,-24.27 136.59,-21.86"/>
<polygon fill="#63b8ff" stroke="#63b8ff" points="240.56,-139.62 248.34,-146.81 246.75,-136.34 240.56,-139.62"/>
</a>
</g>
</g>
</g>
</svg>
</svg>

<style type='text/css'>
<![CDATA[
[data-mouse-over-selected='false'] { opacity: 0.7; }
[data-mouse-over-selected='true']  { opacity: 1.0; }
]]>
</style>
<script type="application/ecmascript"><![CDATA[
document.addEventListener('DOMContentLoaded', (event) => {
  highlightEdges();
  highlightAdjacentNodes();
});
]]></script>
</svg>
