<?xml version="1.0" encoding="UTF-8" standalone="no"?>
<!DOCTYPE svg PUBLIC "-//W3C//DTD SVG 1.1//EN"
 "http://www.w3.org/Graphics/SVG/1.1/DTD/svg11.dtd">
<!-- Generated by graphviz version 9.0.0 (20230911.1827)
 -->
<!-- Title: Fibre3DOS Pages: 1 -->
<!--zoomable 996 -->

<svg id="main" version="1.1" xmlns="http://www.w3.org/2000/svg" xmlns:xlink="http://www.w3.org/1999/xlink" xml:space="preserve" onload="init(evt)">
<style type="text/css"><![CDATA[
.node, .edge {opacity: 0.7;}
.node.selected, .edge.selected {opacity: 1;}
.edge:hover path { stroke: red; }
.edge:hover polygon { stroke: red; fill: red; }
]]></style>

<defs>
  <circle id="rim" cx="0" cy="0" r="7"/>
  <circle id="rim2" cx="0" cy="0" r="3.5"/>
  <g id="zoomPlus">
    <use xlink:href="#rim" fill="#404040"><set attributeName="fill" to="#808080" begin="zoomplus.mouseover" end="zoomplus.mouseout"/></use>
    <path d="M-4,0h8M0,-4v8" fill="none" stroke="white" stroke-width="1.5" pointer-events="none"/>
  </g>
  <g id="zoomMin">
    <use xlink:href="#rim" fill="#404040"><set attributeName="fill" to="#808080" begin="zoomminus.mouseover" end="zoomminus.mouseout"/></use>
    <path d="M-4,0h8" fill="none" stroke="white" stroke-width="1.5" pointer-events="none"/>
  </g>
  <g id="arrowUp" transform="translate(30 24)">
    <use xlink:href="#rim"/>
    <path pointer-events="none" fill="none" stroke="white" stroke-width="1.5" d="M0,-3.0v7 M-2.5,-0.5L0,-3.0L2.5,-0.5"/>
  </g>
  <g id="arrowRight" transform="rotate(90) translate(36 -43)">
    <use xlink:href="#rim"/>
    <path pointer-events="none" fill="none" stroke="white" stroke-width="1.5" d="M0,-3.0v7 M-2.5,-0.5L0,-3.0L2.5,-0.5"/>
  </g>
  <g id="arrowDown" transform="rotate(180) translate(-30 -48)">
    <use xlink:href="#rim"/>
    <path pointer-events="none" fill="none" stroke="white" stroke-width="1.5" d="M0,-3.0v7 M-2.5,-0.5L0,-3.0L2.5,-0.5"/>
  </g>
  <g id="arrowLeft" transform="rotate(270) translate(-36 17)">
    <use xlink:href="#rim"/>
    <path pointer-events="none" fill="none" stroke="white" stroke-width="1.5" d="M0,-3.0v7 M-2.5,-0.5L0,-3.0L2.5,-0.5"/>
  </g>
  <g id="resetDef">
    <use xlink:href="#rim2" fill="#404040"><set attributeName="fill" to="#808080" begin="reset.mouseover" end="reset.mouseout"/></use>
  </g>
</defs>
<script type="application/ecmascript">
var viewWidth = 278;
var viewHeight = 996;
var sectionId = 'dynsection-0';
</script>
<script type="application/ecmascript" xlink:href="../../svg.min.js"/>
<svg id="graph" class="graph">
<g id="viewport">
<title>Fibre3DOS</title>
<!-- Node1 -->
<g id="Node000001" class="node">
<title>Node1</title>
<g id="a_Node000001"><a xlink:title="A Fibre3DOS class.">
<polygon fill="#999999" stroke="none" points="195,-89 111,-89 111,0 195,0 195,-89"/>
<text text-anchor="start" x="126" y="-74.55" font-family="Consolas" font-size="11.00">Fibre3DOS</text>
<text text-anchor="start" x="150" y="-57.55" font-family="Consolas" font-size="11.00"> </text>
<text text-anchor="start" x="115" y="-40.55" font-family="Consolas" font-size="11.00">+</text>
<text text-anchor="start" x="125" y="-40.55" font-family="Consolas" font-size="11.00">Fibre3DOS()</text>
<text text-anchor="start" x="115" y="-23.55" font-family="Consolas" font-size="11.00">+</text>
<text text-anchor="start" x="125" y="-23.55" font-family="Consolas" font-size="11.00">get_copy()</text>
<text text-anchor="start" x="115" y="-6.55" font-family="Consolas" font-size="11.00">+</text>
<text text-anchor="start" x="125" y="-6.55" font-family="Consolas" font-size="11.00">record()</text>
<polygon fill="#666666" stroke="#666666" points="111,-70 111,-70 195,-70 195,-70 111,-70"/>
<polygon fill="#666666" stroke="#666666" points="111,-53 111,-53 195,-53 195,-53 111,-53"/>
<polygon fill="none" stroke="#666666" points="111,0 111,-89 195,-89 195,0 111,0"/>
</a>
</g>
</g>
<!-- Node2 -->
<g id="Node000002" class="node">
<title>Node2</title>
<g id="a_Node000002"><a xlink:href="../../d4/d4c/class_fibre.html" target="_top" xlink:title="A Fibre class.">
<polygon fill="white" stroke="none" points="225,-398 81,-398 81,-125 225,-125 225,-398"/>
<text text-anchor="start" x="138" y="-383.55" font-family="Consolas" font-size="11.00">Fibre</text>
<text text-anchor="start" x="85" y="-366.55" font-family="Consolas" font-size="11.00">#</text>
<text text-anchor="start" x="95" y="-366.55" font-family="Consolas" font-size="11.00">fibre</text>
<text text-anchor="start" x="85" y="-349.55" font-family="Consolas" font-size="11.00">+</text>
<text text-anchor="start" x="95" y="-349.55" font-family="Consolas" font-size="11.00">Fibre()</text>
<text text-anchor="start" x="85" y="-332.55" font-family="Consolas" font-size="11.00">+</text>
<text text-anchor="start" x="95" y="-332.55" font-family="Consolas" font-size="11.00">Fibre()</text>
<text text-anchor="start" x="85" y="-315.55" font-family="Consolas" font-size="11.00">+</text>
<text text-anchor="start" x="95" y="-315.55" font-family="Consolas" font-size="11.00">Fibre()</text>
<text text-anchor="start" x="85" y="-298.55" font-family="Consolas" font-size="11.00">+</text>
<text text-anchor="start" x="95" y="-298.55" font-family="Consolas" font-size="11.00">operator=()</text>
<text text-anchor="start" x="85" y="-281.55" font-family="Consolas" font-size="11.00">+</text>
<text text-anchor="start" x="95" y="-281.55" font-family="Consolas" font-size="11.00">operator=()</text>
<text text-anchor="start" x="85" y="-264.55" font-family="Consolas" font-size="11.00">+</text>
<text text-anchor="start" x="95" y="-264.55" font-family="Consolas" font-size="11.00">~Fibre()</text>
<text text-anchor="start" x="85" y="-247.55" font-family="Consolas" font-size="11.00">+</text>
<text text-anchor="start" x="95" y="-247.55" font-family="Consolas" font-size="11.00">initialize()</text>
<text text-anchor="start" x="85" y="-230.55" font-family="Consolas" font-size="11.00">+</text>
<text text-anchor="start" x="95" y="-230.55" font-family="Consolas" font-size="11.00">set_characteristic</text>
<text text-anchor="start" x="95" y="-217.05" font-family="Consolas" font-size="11.00">_length()</text>
<text text-anchor="start" x="85" y="-199.55" font-family="Consolas" font-size="11.00">+</text>
<text text-anchor="start" x="95" y="-199.55" font-family="Consolas" font-size="11.00">update_trial_status()</text>
<text text-anchor="start" x="85" y="-182.55" font-family="Consolas" font-size="11.00">+</text>
<text text-anchor="start" x="95" y="-182.55" font-family="Consolas" font-size="11.00">clear_status()</text>
<text text-anchor="start" x="85" y="-165.55" font-family="Consolas" font-size="11.00">+</text>
<text text-anchor="start" x="95" y="-165.55" font-family="Consolas" font-size="11.00">commit_status()</text>
<text text-anchor="start" x="85" y="-148.55" font-family="Consolas" font-size="11.00">+</text>
<text text-anchor="start" x="95" y="-148.55" font-family="Consolas" font-size="11.00">reset_status()</text>
<text text-anchor="start" x="85" y="-131.55" font-family="Consolas" font-size="11.00">+</text>
<text text-anchor="start" x="95" y="-131.55" font-family="Consolas" font-size="11.00">print()</text>
<polygon fill="#666666" stroke="#666666" points="81,-379 81,-379 225,-379 225,-379 81,-379"/>
<polygon fill="#666666" stroke="#666666" points="81,-362 81,-362 93,-362 93,-362 81,-362"/>
<polygon fill="#666666" stroke="#666666" points="93,-362 93,-362 225,-362 225,-362 93,-362"/>
<polygon fill="none" stroke="#666666" points="81,-125 81,-398 225,-398 225,-125 81,-125"/>
</a>
</g>
</g>
<!-- Node2&#45;&gt;Node1 -->
<g id="edge1_Node000001_Node000002" class="edge">
<title>Node2&#45;&gt;Node1</title>
<g id="a_edge1_Node000001_Node000002"><a xlink:title=" ">
<path fill="none" stroke="#63b8ff" d="M153,-113.89C153,-105.07 153,-96.67 153,-88.95"/>
<polygon fill="none" stroke="#63b8ff" points="149.5,-113.74 153,-123.74 156.5,-113.74 149.5,-113.74"/>
</a>
</g>
</g>
<!-- Node3 -->
<g id="Node000003" class="node">
<title>Node3</title>
<g id="a_Node000003"><a xlink:href="../../df/d29/class_section.html" target="_top" xlink:title="A Section class.">
<polygon fill="white" stroke="none" points="222,-659 84,-659 84,-434 222,-434 222,-659"/>
<text text-anchor="start" x="132" y="-644.55" font-family="Consolas" font-size="11.00">Section</text>
<text text-anchor="start" x="150" y="-627.55" font-family="Consolas" font-size="11.00"> </text>
<text text-anchor="start" x="88" y="-610.55" font-family="Consolas" font-size="11.00">+</text>
<text text-anchor="start" x="98" y="-610.55" font-family="Consolas" font-size="11.00">Section()</text>
<text text-anchor="start" x="88" y="-593.55" font-family="Consolas" font-size="11.00">+</text>
<text text-anchor="start" x="98" y="-593.55" font-family="Consolas" font-size="11.00">Section()</text>
<text text-anchor="start" x="88" y="-576.55" font-family="Consolas" font-size="11.00">+</text>
<text text-anchor="start" x="98" y="-576.55" font-family="Consolas" font-size="11.00">Section()</text>
<text text-anchor="start" x="88" y="-559.55" font-family="Consolas" font-size="11.00">+</text>
<text text-anchor="start" x="98" y="-559.55" font-family="Consolas" font-size="11.00">operator=()</text>
<text text-anchor="start" x="88" y="-542.55" font-family="Consolas" font-size="11.00">+</text>
<text text-anchor="start" x="98" y="-542.55" font-family="Consolas" font-size="11.00">operator=()</text>
<text text-anchor="start" x="88" y="-525.55" font-family="Consolas" font-size="11.00">+</text>
<text text-anchor="start" x="98" y="-525.55" font-family="Consolas" font-size="11.00">~Section()</text>
<text text-anchor="start" x="88" y="-508.55" font-family="Consolas" font-size="11.00">+</text>
<text text-anchor="start" x="98" y="-508.55" font-family="Consolas" font-size="11.00">get_section_type()</text>
<text text-anchor="start" x="88" y="-491.55" font-family="Consolas" font-size="11.00">+</text>
<text text-anchor="start" x="98" y="-491.55" font-family="Consolas" font-size="11.00">get_area()</text>
<text text-anchor="start" x="88" y="-474.55" font-family="Consolas" font-size="11.00">+</text>
<text text-anchor="start" x="98" y="-474.55" font-family="Consolas" font-size="11.00">get_linear_density()</text>
<text text-anchor="start" x="88" y="-457.55" font-family="Consolas" font-size="11.00">+</text>
<text text-anchor="start" x="98" y="-457.55" font-family="Consolas" font-size="11.00">initialize_base()</text>
<text text-anchor="start" x="98" y="-440.55" font-family="Consolas" font-size="11.00">and 34 more...</text>
<polygon fill="#666666" stroke="#666666" points="84,-640 84,-640 222,-640 222,-640 84,-640"/>
<polygon fill="#666666" stroke="#666666" points="84,-623 84,-623 222,-623 222,-623 84,-623"/>
<polygon fill="none" stroke="#666666" points="84,-434 84,-659 222,-659 222,-434 84,-434"/>
</a>
</g>
</g>
<!-- Node3&#45;&gt;Node2 -->
<g id="edge2_Node000002_Node000003" class="edge">
<title>Node3&#45;&gt;Node2</title>
<g id="a_edge2_Node000002_Node000003"><a xlink:title=" ">
<path fill="none" stroke="#63b8ff" d="M153,-422.82C153,-414.52 153,-406.14 153,-397.79"/>
<polygon fill="none" stroke="#63b8ff" points="149.5,-422.54 153,-432.54 156.5,-422.54 149.5,-422.54"/>
</a>
</g>
</g>
<!-- Node4 -->
<g id="Node000004" class="node">
<title>Node4</title>
<g id="a_Node000004"><a xlink:href="../../d0/d02/struct_data_section.html" target="_top" xlink:title=" ">
<polygon fill="white" stroke="none" points="162,-954 0,-954 0,-729 162,-729 162,-954"/>
<text text-anchor="start" x="48" y="-939.55" font-family="Consolas" font-size="11.00">DataSection</text>
<text text-anchor="start" x="4" y="-922.55" font-family="Consolas" font-size="11.00">+</text>
<text text-anchor="start" x="14" y="-922.55" font-family="Consolas" font-size="11.00">material_tag</text>
<text text-anchor="start" x="4" y="-905.55" font-family="Consolas" font-size="11.00">+</text>
<text text-anchor="start" x="14" y="-905.55" font-family="Consolas" font-size="11.00">section_type</text>
<text text-anchor="start" x="4" y="-888.55" font-family="Consolas" font-size="11.00">+</text>
<text text-anchor="start" x="14" y="-888.55" font-family="Consolas" font-size="11.00">eccentricity</text>
<text text-anchor="start" x="4" y="-871.55" font-family="Consolas" font-size="11.00">+</text>
<text text-anchor="start" x="14" y="-871.55" font-family="Consolas" font-size="11.00">area</text>
<text text-anchor="start" x="4" y="-854.55" font-family="Consolas" font-size="11.00">+</text>
<text text-anchor="start" x="14" y="-854.55" font-family="Consolas" font-size="11.00">linear_density</text>
<text text-anchor="start" x="4" y="-837.55" font-family="Consolas" font-size="11.00">+</text>
<text text-anchor="start" x="14" y="-837.55" font-family="Consolas" font-size="11.00">characteristic_length</text>
<text text-anchor="start" x="4" y="-820.55" font-family="Consolas" font-size="11.00">+</text>
<text text-anchor="start" x="14" y="-820.55" font-family="Consolas" font-size="11.00">trial_deformation</text>
<text text-anchor="start" x="4" y="-803.55" font-family="Consolas" font-size="11.00">+</text>
<text text-anchor="start" x="14" y="-803.55" font-family="Consolas" font-size="11.00">current_deformation</text>
<text text-anchor="start" x="4" y="-786.55" font-family="Consolas" font-size="11.00">+</text>
<text text-anchor="start" x="14" y="-786.55" font-family="Consolas" font-size="11.00">trial_deformation_rate</text>
<text text-anchor="start" x="4" y="-769.55" font-family="Consolas" font-size="11.00">+</text>
<text text-anchor="start" x="14" y="-769.55" font-family="Consolas" font-size="11.00">current_deformation_rate</text>
<text text-anchor="start" x="14" y="-752.55" font-family="Consolas" font-size="11.00">and 8 more...</text>
<text text-anchor="start" x="78" y="-735.55" font-family="Consolas" font-size="11.00"> </text>
<polygon fill="#666666" stroke="#666666" points="0,-935 0,-935 162,-935 162,-935 0,-935"/>
<polygon fill="#666666" stroke="#666666" points="0,-748 0,-748 12,-748 12,-748 0,-748"/>
<polygon fill="#666666" stroke="#666666" points="12,-748 12,-748 162,-748 162,-748 12,-748"/>
<polygon fill="none" stroke="#666666" points="0,-729 0,-954 162,-954 162,-729 0,-729"/>
</a>
</g>
</g>
<!-- Node4&#45;&gt;Node3 -->
<g id="edge3_Node000003_Node000004" class="edge">
<title>Node4&#45;&gt;Node3</title>
<g id="a_edge3_Node000003_Node000004"><a xlink:title=" ">
<path fill="none" stroke="darkgreen" d="M111.01,-718.38C115.88,-698.57 120.9,-678.14 125.7,-658.61"/>
<polygon fill="none" stroke="darkgreen" points="107.67,-717.3 108.68,-727.84 114.47,-718.97 107.67,-717.3"/>
</a>
</g>
</g>
<!-- Node5 -->
<g id="Node000005" class="node">
<title>Node5</title>
<g id="a_Node000005"><a xlink:href="../../d0/d57/class_tag.html" target="_top" xlink:title="A base Tag class.">
<polygon fill="white" stroke="none" points="270,-988 180,-988 180,-695 270,-695 270,-988"/>
<text text-anchor="start" x="216" y="-973.55" font-family="Consolas" font-size="11.00">Tag</text>
<text text-anchor="start" x="222" y="-956.55" font-family="Consolas" font-size="11.00"> </text>
<text text-anchor="start" x="184" y="-939.55" font-family="Consolas" font-size="11.00">+</text>
<text text-anchor="start" x="194" y="-939.55" font-family="Consolas" font-size="11.00">Tag()</text>
<text text-anchor="start" x="184" y="-922.55" font-family="Consolas" font-size="11.00">+</text>
<text text-anchor="start" x="194" y="-922.55" font-family="Consolas" font-size="11.00">Tag()</text>
<text text-anchor="start" x="184" y="-905.55" font-family="Consolas" font-size="11.00">+</text>
<text text-anchor="start" x="194" y="-905.55" font-family="Consolas" font-size="11.00">Tag()</text>
<text text-anchor="start" x="184" y="-888.55" font-family="Consolas" font-size="11.00">+</text>
<text text-anchor="start" x="194" y="-888.55" font-family="Consolas" font-size="11.00">operator=()</text>
<text text-anchor="start" x="184" y="-871.55" font-family="Consolas" font-size="11.00">+</text>
<text text-anchor="start" x="194" y="-871.55" font-family="Consolas" font-size="11.00">operator=()</text>
<text text-anchor="start" x="184" y="-854.55" font-family="Consolas" font-size="11.00">+</text>
<text text-anchor="start" x="194" y="-854.55" font-family="Consolas" font-size="11.00">~Tag()</text>
<text text-anchor="start" x="184" y="-837.55" font-family="Consolas" font-size="11.00">+</text>
<text text-anchor="start" x="194" y="-837.55" font-family="Consolas" font-size="11.00">set_tag()</text>
<text text-anchor="start" x="184" y="-820.55" font-family="Consolas" font-size="11.00">+</text>
<text text-anchor="start" x="194" y="-820.55" font-family="Consolas" font-size="11.00">get_tag()</text>
<text text-anchor="start" x="184" y="-803.55" font-family="Consolas" font-size="11.00">+</text>
<text text-anchor="start" x="194" y="-803.55" font-family="Consolas" font-size="11.00">enable()</text>
<text text-anchor="start" x="184" y="-786.55" font-family="Consolas" font-size="11.00">+</text>
<text text-anchor="start" x="194" y="-786.55" font-family="Consolas" font-size="11.00">disable()</text>
<text text-anchor="start" x="184" y="-769.55" font-family="Consolas" font-size="11.00">+</text>
<text text-anchor="start" x="194" y="-769.55" font-family="Consolas" font-size="11.00">guard()</text>
<text text-anchor="start" x="184" y="-752.55" font-family="Consolas" font-size="11.00">+</text>
<text text-anchor="start" x="194" y="-752.55" font-family="Consolas" font-size="11.00">unguard()</text>
<text text-anchor="start" x="184" y="-735.55" font-family="Consolas" font-size="11.00">+</text>
<text text-anchor="start" x="194" y="-735.55" font-family="Consolas" font-size="11.00">is_active()</text>
<text text-anchor="start" x="184" y="-718.55" font-family="Consolas" font-size="11.00">+</text>
<text text-anchor="start" x="194" y="-718.55" font-family="Consolas" font-size="11.00">is_guarded()</text>
<text text-anchor="start" x="184" y="-701.55" font-family="Consolas" font-size="11.00">+</text>
<text text-anchor="start" x="194" y="-701.55" font-family="Consolas" font-size="11.00">print()</text>
<polygon fill="#666666" stroke="#666666" points="180,-969 180,-969 270,-969 270,-969 180,-969"/>
<polygon fill="#666666" stroke="#666666" points="180,-952 180,-952 270,-952 270,-952 180,-952"/>
<polygon fill="none" stroke="#666666" points="180,-695 180,-988 270,-988 270,-695 180,-695"/>
</a>
</g>
</g>
<!-- Node5&#45;&gt;Node3 -->
<g id="edge4_Node000003_Node000005" class="edge">
<title>Node5&#45;&gt;Node3</title>
<g id="a_edge4_Node000003_Node000005"><a xlink:title=" ">
<path fill="none" stroke="#63b8ff" d="M186.57,-684.11C184.48,-675.63 182.41,-667.18 180.37,-658.9"/>
<polygon fill="none" stroke="#63b8ff" points="183.17,-684.94 188.96,-693.82 189.97,-683.27 183.17,-684.94"/>
</a>
</g>
</g>
</g>
</svg>

<g id="navigator" transform="translate(0 0)" fill="#404254">
  <rect fill="#f2f5e9" fill-opacity="0.5" stroke="#606060" stroke-width=".5" x="0" y="0" width="60" height="60"/>
  <use id="zoomplus" xlink:href="#zoomPlus" x="17" y="9" onmousedown="handleZoom(evt,'in')"/>
  <use id="zoomminus" xlink:href="#zoomMin" x="42" y="9" onmousedown="handleZoom(evt,'out')"/>
  <use id="reset" xlink:href="#resetDef" x="30" y="36" onmousedown="handleReset()"/>
   <use id="arrowup" xlink:href="#arrowUp" x="0" y="0" onmousedown="handlePan(0,-1)"/>
  <use id="arrowright" xlink:href="#arrowRight" x="0" y="0" onmousedown="handlePan(1,0)"/>
  <use id="arrowdown" xlink:href="#arrowDown" x="0" y="0" onmousedown="handlePan(0,1)"/>
  <use id="arrowleft" xlink:href="#arrowLeft" x="0" y="0" onmousedown="handlePan(-1,0)"/>
</g>
<svg viewBox="0 0 15 15" width="100%" height="30px" preserveAspectRatio="xMaxYMin meet">
 <g id="arrow_out" transform="scale(0.3 0.3)">
  <a xlink:href="class_fibre3_d_o_s__inherit__graph_org.svg" target="_base">
   <rect id="button" ry="5" rx="5" y="6" x="6" height="38" width="38"
        fill="#f2f5e9" fill-opacity="0.5" stroke="#606060" stroke-width="1.0"/>
   <path id="arrow"
     d="M 11.500037,31.436501 C 11.940474,20.09759 22.043105,11.32322 32.158766,21.979434 L 37.068811,17.246167 C 37.068811,17.246167 37.088388,32 37.088388,32 L 22.160133,31.978069 C 22.160133,31.978069 26.997745,27.140456 26.997745,27.140456 C 18.528582,18.264221 13.291696,25.230495 11.500037,31.436501 z"
     style="fill:#404040;"/>
  </a>
 </g>
</svg>

<style type='text/css'>
<![CDATA[
[data-mouse-over-selected='false'] { opacity: 0.7; }
[data-mouse-over-selected='true']  { opacity: 1.0; }
]]>
</style>
<script type="application/ecmascript"><![CDATA[
document.addEventListener('DOMContentLoaded', (event) => {
  highlightEdges();
  highlightAdjacentNodes();
});
]]></script>
</svg>
