<?xml version="1.0" encoding="UTF-8" standalone="no"?>
<!DOCTYPE svg PUBLIC "-//W3C//DTD SVG 1.1//EN"
 "http://www.w3.org/Graphics/SVG/1.1/DTD/svg11.dtd">
<!-- Generated by graphviz version 8.1.0 (20230707.0739)
 -->
<!-- Title: ExpGurson Pages: 1 -->
<svg width="1234pt" height="1374pt"
 viewBox="0.00 0.00 1234.00 1373.50" xmlns="http://www.w3.org/2000/svg" xmlns:xlink="http://www.w3.org/1999/xlink">
<g id="graph0" class="graph" transform="scale(1 1) rotate(0) translate(4 1369.5)">
<title>ExpGurson</title>
<!-- Node1 -->
<g id="Node000001" class="node">
<title>Node1</title>
<g id="a_Node000001"><a xlink:title="The ExpGurson class.">
<polygon fill="#999999" stroke="none" points="101,-89 17,-89 17,0 101,0 101,-89"/>
<text text-anchor="start" x="32" y="-74.55" font-family="Consolas" font-size="11.00">ExpGurson</text>
<text text-anchor="start" x="56" y="-57.55" font-family="Consolas" font-size="11.00"> </text>
<text text-anchor="start" x="21" y="-40.55" font-family="Consolas" font-size="11.00">+</text>
<text text-anchor="start" x="31" y="-40.55" font-family="Consolas" font-size="11.00">ExpGurson()</text>
<text text-anchor="start" x="21" y="-23.55" font-family="Consolas" font-size="11.00">+</text>
<text text-anchor="start" x="31" y="-23.55" font-family="Consolas" font-size="11.00">get_copy()</text>
<text text-anchor="start" x="21" y="-6.55" font-family="Consolas" font-size="11.00">+</text>
<text text-anchor="start" x="31" y="-6.55" font-family="Consolas" font-size="11.00">print()</text>
<polygon fill="#666666" stroke="#666666" points="17,-70 17,-70 101,-70 101,-70 17,-70"/>
<polygon fill="#666666" stroke="#666666" points="17,-53 17,-53 101,-53 101,-53 17,-53"/>
<polygon fill="none" stroke="#666666" points="17,0 17,-89 101,-89 101,0 17,0"/>
</a>
</g>
</g>
<!-- Node2 -->
<g id="Node000002" class="node">
<title>Node2</title>
<g id="a_Node000002"><a xlink:href="../../d3/d8f/struct_data_exp_gurson.html" target="_top" xlink:title=" ">
<polygon fill="white" stroke="none" points="88,-499 0,-499 0,-444 88,-444 88,-499"/>
<text text-anchor="start" x="5" y="-484.55" font-family="Consolas" font-size="11.00">DataExpGurson</text>
<text text-anchor="start" x="41" y="-467.55" font-family="Consolas" font-size="11.00"> </text>
<text text-anchor="start" x="41" y="-450.55" font-family="Consolas" font-size="11.00"> </text>
<polygon fill="#666666" stroke="#666666" points="0,-480 0,-480 88,-480 88,-480 0,-480"/>
<polygon fill="#666666" stroke="#666666" points="0,-463 0,-463 88,-463 88,-463 0,-463"/>
<polygon fill="none" stroke="#666666" points="0,-444 0,-499 88,-499 88,-444 0,-444"/>
</a>
</g>
</g>
<!-- Node2&#45;&gt;Node1 -->
<g id="edge1_Node000001_Node000002" class="edge">
<title>Node2&#45;&gt;Node1</title>
<g id="a_edge1_Node000001_Node000002"><a xlink:title=" ">
<path fill="none" stroke="#8b1a1a" d="M45.31,-433.44C48.08,-355.02 54.51,-172.63 57.47,-88.92"/>
<polygon fill="none" stroke="#8b1a1a" points="41.78,-433.12 44.93,-443.24 48.78,-433.36 41.78,-433.12"/>
</a>
</g>
</g>
<!-- Node3 -->
<g id="Node000003" class="node">
<title>Node3</title>
<g id="a_Node000003"><a xlink:title=" ">
<polygon fill="white" stroke="none" points="234,-1365.5 188,-1365.5 188,-1310.5 234,-1310.5 234,-1365.5"/>
<text text-anchor="start" x="193" y="-1351.05" font-family="Consolas" font-size="11.00">double</text>
<text text-anchor="start" x="208" y="-1334.05" font-family="Consolas" font-size="11.00"> </text>
<text text-anchor="start" x="208" y="-1317.05" font-family="Consolas" font-size="11.00"> </text>
<polygon fill="#666666" stroke="#666666" points="188,-1346.5 188,-1346.5 234,-1346.5 234,-1346.5 188,-1346.5"/>
<polygon fill="#666666" stroke="#666666" points="188,-1329.5 188,-1329.5 234,-1329.5 234,-1329.5 188,-1329.5"/>
<polygon fill="none" stroke="#666666" points="188,-1310.5 188,-1365.5 234,-1365.5 234,-1310.5 188,-1310.5"/>
</a>
</g>
</g>
<!-- Node3&#45;&gt;Node2 -->
<g id="edge2_Node000002_Node000003" class="edge">
<title>Node3&#45;&gt;Node2</title>
<g id="a_edge2_Node000002_Node000003"><a xlink:title=" ">
<path fill="none" stroke="#63b8ff" d="M188.15,-1328.81C170.62,-1321.56 146.83,-1309.47 131,-1292.5 75.26,-1232.74 71.31,-1205.64 53,-1126 0.64,-898.2 26.72,-613.86 38.9,-511.48"/>
<polygon fill="none" stroke="#63b8ff" points="38.89,-511.62 35.64,-505.18 40.34,-499.71 43.59,-506.15 38.89,-511.62"/>
</a>
</g>
<text text-anchor="middle" x="92" y="-982.55" font-family="Consolas" font-size="11.00" fill="grey"> +n</text>
<text text-anchor="middle" x="92" y="-969.05" font-family="Consolas" font-size="11.00" fill="grey">+yield_stress</text>
</g>
<!-- Node5 -->
<g id="Node000005" class="node">
<title>Node5</title>
<g id="a_Node000005"><a xlink:href="../../d1/df4/struct_data_nonlinear_gurson.html" target="_top" xlink:title=" ">
<polygon fill="white" stroke="none" points="210,-815 86,-815 86,-760 210,-760 210,-815"/>
<text text-anchor="start" x="91" y="-800.55" font-family="Consolas" font-size="11.00">DataNonlinearGurson</text>
<text text-anchor="start" x="145" y="-783.55" font-family="Consolas" font-size="11.00"> </text>
<text text-anchor="start" x="145" y="-766.55" font-family="Consolas" font-size="11.00"> </text>
<polygon fill="#666666" stroke="#666666" points="86,-796 86,-796 210,-796 210,-796 86,-796"/>
<polygon fill="#666666" stroke="#666666" points="86,-779 86,-779 210,-779 210,-779 86,-779"/>
<polygon fill="none" stroke="#666666" points="86,-760 86,-815 210,-815 210,-760 86,-760"/>
</a>
</g>
</g>
<!-- Node3&#45;&gt;Node5 -->
<g id="edge5_Node000005_Node000003" class="edge">
<title>Node3&#45;&gt;Node5</title>
<g id="a_edge5_Node000005_Node000003"><a xlink:title=" ">
<path fill="none" stroke="#63b8ff" d="M188.22,-1328.39C172.97,-1321.29 154.08,-1309.58 145,-1292.5 123.43,-1251.94 139.27,-938.8 145.65,-827.56"/>
<polygon fill="none" stroke="#63b8ff" points="145.65,-827.6 142.01,-821.38 146.35,-815.62 149.99,-821.85 145.65,-827.6"/>
</a>
</g>
<text text-anchor="middle" x="196" y="-1255.05" font-family="Consolas" font-size="11.00" fill="grey"> +elastic_modulus</text>
<text text-anchor="middle" x="196" y="-1241.55" font-family="Consolas" font-size="11.00" fill="grey">+en</text>
<text text-anchor="middle" x="196" y="-1228.05" font-family="Consolas" font-size="11.00" fill="grey">+fn</text>
<text text-anchor="middle" x="196" y="-1214.55" font-family="Consolas" font-size="11.00" fill="grey">+poissons_ratio</text>
<text text-anchor="middle" x="196" y="-1201.05" font-family="Consolas" font-size="11.00" fill="grey">+q1</text>
<text text-anchor="middle" x="196" y="-1187.55" font-family="Consolas" font-size="11.00" fill="grey">+q2</text>
<text text-anchor="middle" x="196" y="-1174.05" font-family="Consolas" font-size="11.00" fill="grey">+sn</text>
</g>
<!-- Node8 -->
<g id="Node000008" class="node">
<title>Node8</title>
<g id="a_Node000008"><a xlink:href="../../de/de9/struct_data_material.html" target="_top" xlink:title=" ">
<polygon fill="white" stroke="none" points="756,-1041 636,-1041 636,-918 756,-918 756,-1041"/>
<text text-anchor="start" x="660" y="-1026.55" font-family="Consolas" font-size="11.00">DataMaterial</text>
<text text-anchor="start" x="640" y="-1009.55" font-family="Consolas" font-size="11.00">+</text>
<text text-anchor="start" x="650" y="-1009.55" font-family="Consolas" font-size="11.00">trial_strain</text>
<text text-anchor="start" x="640" y="-992.55" font-family="Consolas" font-size="11.00">+</text>
<text text-anchor="start" x="650" y="-992.55" font-family="Consolas" font-size="11.00">trial_strain_rate</text>
<text text-anchor="start" x="640" y="-975.55" font-family="Consolas" font-size="11.00">+</text>
<text text-anchor="start" x="650" y="-975.55" font-family="Consolas" font-size="11.00">trial_strain_acc</text>
<text text-anchor="start" x="640" y="-958.55" font-family="Consolas" font-size="11.00">+</text>
<text text-anchor="start" x="650" y="-958.55" font-family="Consolas" font-size="11.00">trial_stress</text>
<text text-anchor="start" x="640" y="-941.55" font-family="Consolas" font-size="11.00">+</text>
<text text-anchor="start" x="650" y="-941.55" font-family="Consolas" font-size="11.00">trial_history</text>
<text text-anchor="start" x="693" y="-924.55" font-family="Consolas" font-size="11.00"> </text>
<polygon fill="#666666" stroke="#666666" points="636,-1022 636,-1022 756,-1022 756,-1022 636,-1022"/>
<polygon fill="#666666" stroke="#666666" points="636,-937 636,-937 648,-937 648,-937 636,-937"/>
<polygon fill="#666666" stroke="#666666" points="648,-937 648,-937 756,-937 756,-937 648,-937"/>
<polygon fill="none" stroke="#666666" points="636,-918 636,-1041 756,-1041 756,-918 636,-918"/>
</a>
</g>
</g>
<!-- Node3&#45;&gt;Node8 -->
<g id="edge9_Node000008_Node000003" class="edge">
<title>Node3&#45;&gt;Node8</title>
<g id="a_edge9_Node000008_Node000003"><a xlink:title=" ">
<path fill="none" stroke="#63b8ff" d="M233.79,-1335.94C311.92,-1332.1 565.47,-1317.76 591,-1292.5 614.65,-1269.1 599.99,-1175.73 610,-1144 619.97,-1112.41 635.89,-1079.7 651.34,-1051.92"/>
<polygon fill="none" stroke="#63b8ff" points="651.32,-1051.95 650.8,-1044.76 657.24,-1041.51 657.76,-1048.71 651.32,-1051.95"/>
</a>
</g>
<text text-anchor="middle" x="640" y="-1221.3" font-family="Consolas" font-size="11.00" fill="grey"> +density</text>
<text text-anchor="middle" x="640" y="-1207.8" font-family="Consolas" font-size="11.00" fill="grey">+tolerance</text>
</g>
<!-- Node12 -->
<g id="Node000012" class="node">
<title>Node12</title>
<g id="a_Node000012"><a xlink:href="../../da/de4/struct_data_couple_material.html" target="_top" xlink:title=" ">
<polygon fill="white" stroke="none" points="493,-1007 375,-1007 375,-952 493,-952 493,-1007"/>
<text text-anchor="start" x="380" y="-992.55" font-family="Consolas" font-size="11.00">DataCoupleMaterial</text>
<text text-anchor="start" x="431" y="-975.55" font-family="Consolas" font-size="11.00"> </text>
<text text-anchor="start" x="431" y="-958.55" font-family="Consolas" font-size="11.00"> </text>
<polygon fill="#666666" stroke="#666666" points="375,-988 375,-988 493,-988 493,-988 375,-988"/>
<polygon fill="#666666" stroke="#666666" points="375,-971 375,-971 493,-971 493,-971 375,-971"/>
<polygon fill="none" stroke="#666666" points="375,-952 375,-1007 493,-1007 493,-952 375,-952"/>
</a>
</g>
</g>
<!-- Node3&#45;&gt;Node12 -->
<g id="edge14_Node000012_Node000003" class="edge">
<title>Node3&#45;&gt;Node12</title>
<g id="a_edge14_Node000012_Node000003"><a xlink:title=" ">
<path fill="none" stroke="#63b8ff" d="M233.75,-1316.69C240.31,-1309.67 246.81,-1301.32 251,-1292.5 279.62,-1232.16 227.72,-1192.15 274,-1144 302.87,-1113.96 333.17,-1151.66 366,-1126 399.65,-1099.7 417.38,-1052.79 426.19,-1019.34"/>
<polygon fill="none" stroke="#63b8ff" points="426.19,-1019.35 423.72,-1012.57 429.03,-1007.69 431.49,-1014.46 426.19,-1019.35"/>
</a>
</g>
<text text-anchor="middle" x="343" y="-1214.55" font-family="Consolas" font-size="11.00" fill="grey"> +characteristic_length</text>
</g>
<!-- Node4 -->
<g id="Node000004" class="node">
<title>Node4</title>
<g id="a_Node000004"><a xlink:href="../../d1/dd0/class_nonlinear_gurson.html" target="_top" xlink:title="The NonlinearGurson class.">
<polygon fill="white" stroke="none" points="220,-317 76,-317 76,-126 220,-126 220,-317"/>
<text text-anchor="start" x="103" y="-302.55" font-family="Consolas" font-size="11.00">NonlinearGurson</text>
<text text-anchor="start" x="145" y="-285.55" font-family="Consolas" font-size="11.00"> </text>
<text text-anchor="start" x="80" y="-268.55" font-family="Consolas" font-size="11.00">+</text>
<text text-anchor="start" x="90" y="-268.55" font-family="Consolas" font-size="11.00">NonlinearGurson()</text>
<text text-anchor="start" x="80" y="-251.55" font-family="Consolas" font-size="11.00">+</text>
<text text-anchor="start" x="90" y="-251.55" font-family="Consolas" font-size="11.00">initialize()</text>
<text text-anchor="start" x="80" y="-234.55" font-family="Consolas" font-size="11.00">+</text>
<text text-anchor="start" x="90" y="-234.55" font-family="Consolas" font-size="11.00">get_parameter()</text>
<text text-anchor="start" x="80" y="-217.55" font-family="Consolas" font-size="11.00">+</text>
<text text-anchor="start" x="90" y="-217.55" font-family="Consolas" font-size="11.00">update_trial_status()</text>
<text text-anchor="start" x="80" y="-200.55" font-family="Consolas" font-size="11.00">+</text>
<text text-anchor="start" x="90" y="-200.55" font-family="Consolas" font-size="11.00">clear_status()</text>
<text text-anchor="start" x="80" y="-183.55" font-family="Consolas" font-size="11.00">+</text>
<text text-anchor="start" x="90" y="-183.55" font-family="Consolas" font-size="11.00">commit_status()</text>
<text text-anchor="start" x="80" y="-166.55" font-family="Consolas" font-size="11.00">+</text>
<text text-anchor="start" x="90" y="-166.55" font-family="Consolas" font-size="11.00">reset_status()</text>
<text text-anchor="start" x="80" y="-149.55" font-family="Consolas" font-size="11.00">+</text>
<text text-anchor="start" x="90" y="-149.55" font-family="Consolas" font-size="11.00">record()</text>
<text text-anchor="start" x="80" y="-132.55" font-family="Consolas" font-size="11.00">+</text>
<text text-anchor="start" x="90" y="-132.55" font-family="Consolas" font-size="11.00">print()</text>
<polygon fill="#666666" stroke="#666666" points="76,-298 76,-298 220,-298 220,-298 76,-298"/>
<polygon fill="#666666" stroke="#666666" points="76,-281 76,-281 220,-281 220,-281 76,-281"/>
<polygon fill="none" stroke="#666666" points="76,-126 76,-317 220,-317 220,-126 76,-126"/>
</a>
</g>
</g>
<!-- Node4&#45;&gt;Node1 -->
<g id="edge3_Node000001_Node000004" class="edge">
<title>Node4&#45;&gt;Node1</title>
<g id="a_edge3_Node000001_Node000004"><a xlink:title=" ">
<path fill="none" stroke="#63b8ff" d="M95.02,-116.34C90.1,-106.66 85.33,-97.27 80.95,-88.66"/>
<polygon fill="none" stroke="#63b8ff" points="92.33,-117.76 99.98,-125.09 98.57,-114.58 92.33,-117.76"/>
</a>
</g>
</g>
<!-- Node5&#45;&gt;Node4 -->
<g id="edge4_Node000004_Node000005" class="edge">
<title>Node5&#45;&gt;Node4</title>
<g id="a_edge4_Node000004_Node000005"><a xlink:title=" ">
<path fill="none" stroke="darkgreen" d="M148,-749.14C148,-662.05 148,-443.36 148,-316.87"/>
<polygon fill="none" stroke="darkgreen" points="144.5,-749.05 148,-759.05 151.5,-749.05 144.5,-749.05"/>
</a>
</g>
</g>
<!-- Node6 -->
<g id="Node000006" class="node">
<title>Node6</title>
<g id="a_Node000006"><a xlink:href="../../d7/d42/class_material3_d.html" target="_top" xlink:title="The Material3D class.">
<polygon fill="white" stroke="none" points="311,-426 221,-426 221,-354 311,-354 311,-426"/>
<text text-anchor="start" x="236" y="-411.55" font-family="Consolas" font-size="11.00">Material3D</text>
<text text-anchor="start" x="263" y="-394.55" font-family="Consolas" font-size="11.00"> </text>
<text text-anchor="start" x="225" y="-377.55" font-family="Consolas" font-size="11.00">+</text>
<text text-anchor="start" x="235" y="-377.55" font-family="Consolas" font-size="11.00">Material3D()</text>
<text text-anchor="start" x="225" y="-360.55" font-family="Consolas" font-size="11.00">+</text>
<text text-anchor="start" x="235" y="-360.55" font-family="Consolas" font-size="11.00">record()</text>
<polygon fill="#666666" stroke="#666666" points="221,-407 221,-407 311,-407 311,-407 221,-407"/>
<polygon fill="#666666" stroke="#666666" points="221,-390 221,-390 311,-390 311,-390 221,-390"/>
<polygon fill="none" stroke="#666666" points="221,-354 221,-426 311,-426 311,-354 221,-354"/>
</a>
</g>
</g>
<!-- Node6&#45;&gt;Node4 -->
<g id="edge6_Node000004_Node000006" class="edge">
<title>Node6&#45;&gt;Node4</title>
<g id="a_edge6_Node000004_Node000006"><a xlink:title=" ">
<path fill="none" stroke="#63b8ff" d="M234.91,-345.14C228.61,-336.25 221.76,-326.58 214.76,-316.7"/>
<polygon fill="none" stroke="#63b8ff" points="232.63,-346.96 241.26,-353.1 238.34,-342.91 232.63,-346.96"/>
</a>
</g>
</g>
<!-- Node7 -->
<g id="Node000007" class="node">
<title>Node7</title>
<g id="a_Node000007"><a xlink:href="../../dc/dee/class_material.html" target="_top" xlink:title="A Material abstract base class.">
<polygon fill="white" stroke="none" points="393,-742 255,-742 255,-517 393,-517 393,-742"/>
<text text-anchor="start" x="300" y="-727.55" font-family="Consolas" font-size="11.00">Material</text>
<text text-anchor="start" x="321" y="-710.55" font-family="Consolas" font-size="11.00"> </text>
<text text-anchor="start" x="259" y="-693.55" font-family="Consolas" font-size="11.00">+</text>
<text text-anchor="start" x="269" y="-693.55" font-family="Consolas" font-size="11.00">Material()</text>
<text text-anchor="start" x="259" y="-676.55" font-family="Consolas" font-size="11.00">+</text>
<text text-anchor="start" x="269" y="-676.55" font-family="Consolas" font-size="11.00">Material()</text>
<text text-anchor="start" x="259" y="-659.55" font-family="Consolas" font-size="11.00">+</text>
<text text-anchor="start" x="269" y="-659.55" font-family="Consolas" font-size="11.00">Material()</text>
<text text-anchor="start" x="259" y="-642.55" font-family="Consolas" font-size="11.00">+</text>
<text text-anchor="start" x="269" y="-642.55" font-family="Consolas" font-size="11.00">operator=()</text>
<text text-anchor="start" x="259" y="-625.55" font-family="Consolas" font-size="11.00">+</text>
<text text-anchor="start" x="269" y="-625.55" font-family="Consolas" font-size="11.00">operator=()</text>
<text text-anchor="start" x="259" y="-608.55" font-family="Consolas" font-size="11.00">+</text>
<text text-anchor="start" x="269" y="-608.55" font-family="Consolas" font-size="11.00">~Material()</text>
<text text-anchor="start" x="259" y="-591.55" font-family="Consolas" font-size="11.00">+</text>
<text text-anchor="start" x="269" y="-591.55" font-family="Consolas" font-size="11.00">initialize_base()</text>
<text text-anchor="start" x="259" y="-574.55" font-family="Consolas" font-size="11.00">+</text>
<text text-anchor="start" x="269" y="-574.55" font-family="Consolas" font-size="11.00">initialize()</text>
<text text-anchor="start" x="259" y="-557.55" font-family="Consolas" font-size="11.00">+</text>
<text text-anchor="start" x="269" y="-557.55" font-family="Consolas" font-size="11.00">initialize_couple()</text>
<text text-anchor="start" x="259" y="-540.55" font-family="Consolas" font-size="11.00">+</text>
<text text-anchor="start" x="269" y="-540.55" font-family="Consolas" font-size="11.00">initialize_history()</text>
<text text-anchor="start" x="269" y="-523.55" font-family="Consolas" font-size="11.00">and 70 more...</text>
<polygon fill="#666666" stroke="#666666" points="255,-723 255,-723 393,-723 393,-723 255,-723"/>
<polygon fill="#666666" stroke="#666666" points="255,-706 255,-706 393,-706 393,-706 255,-706"/>
<polygon fill="none" stroke="#666666" points="255,-517 255,-742 393,-742 393,-517 255,-517"/>
</a>
</g>
</g>
<!-- Node7&#45;&gt;Node6 -->
<g id="edge7_Node000006_Node000007" class="edge">
<title>Node7&#45;&gt;Node6</title>
<g id="a_edge7_Node000006_Node000007"><a xlink:title=" ">
<path fill="none" stroke="#63b8ff" d="M294.23,-506.59C287,-477.01 279.84,-447.69 274.54,-425.98"/>
<polygon fill="none" stroke="#63b8ff" points="291.01,-507.17 296.78,-516.05 297.81,-505.51 291.01,-507.17"/>
</a>
</g>
</g>
<!-- Node8&#45;&gt;Node7 -->
<g id="edge8_Node000007_Node000008" class="edge">
<title>Node8&#45;&gt;Node7</title>
<g id="a_edge8_Node000007_Node000008"><a xlink:title=" ">
<path fill="none" stroke="darkgreen" d="M628.26,-915.13C561.48,-852.66 459.93,-757.66 392.78,-694.85"/>
<polygon fill="none" stroke="darkgreen" points="625.54,-917.31 635.23,-921.59 630.32,-912.2 625.54,-917.31"/>
</a>
</g>
</g>
<!-- Node9 -->
<g id="Node000009" class="node">
<title>Node9</title>
<g id="a_Node000009"><a xlink:title=" ">
<polygon fill="white" stroke="none" points="1190,-1365.5 1072,-1365.5 1072,-1310.5 1190,-1310.5 1190,-1365.5"/>
<text text-anchor="start" x="1077" y="-1351.05" font-family="Consolas" font-size="11.00">const MaterialType</text>
<text text-anchor="start" x="1128" y="-1334.05" font-family="Consolas" font-size="11.00"> </text>
<text text-anchor="start" x="1128" y="-1317.05" font-family="Consolas" font-size="11.00"> </text>
<polygon fill="#666666" stroke="#666666" points="1072,-1346.5 1072,-1346.5 1190,-1346.5 1190,-1346.5 1072,-1346.5"/>
<polygon fill="#666666" stroke="#666666" points="1072,-1329.5 1072,-1329.5 1190,-1329.5 1190,-1329.5 1072,-1329.5"/>
<polygon fill="none" stroke="#666666" points="1072,-1310.5 1072,-1365.5 1190,-1365.5 1190,-1310.5 1072,-1310.5"/>
</a>
</g>
</g>
<!-- Node9&#45;&gt;Node8 -->
<g id="edge10_Node000008_Node000009" class="edge">
<title>Node9&#45;&gt;Node8</title>
<g id="a_edge10_Node000008_Node000009"><a xlink:title=" ">
<path fill="none" stroke="#63b8ff" d="M1134.48,-1310.73C1138.32,-1270.35 1139.57,-1192.61 1101,-1144 1018.94,-1040.56 861.15,-1002.2 768.6,-988.23"/>
<polygon fill="none" stroke="#63b8ff" points="768.49,-988.22 761.98,-991.32 756.61,-986.51 763.12,-983.41 768.49,-988.22"/>
</a>
</g>
<text text-anchor="middle" x="1181" y="-1214.55" font-family="Consolas" font-size="11.00" fill="grey"> +material_type</text>
</g>
<!-- Node10 -->
<g id="Node000010" class="node">
<title>Node10</title>
<g id="a_Node000010"><a xlink:title=" ">
<polygon fill="white" stroke="none" points="922,-1365.5 894,-1365.5 894,-1310.5 922,-1310.5 922,-1365.5"/>
<text text-anchor="start" x="899" y="-1351.05" font-family="Consolas" font-size="11.00">vec</text>
<text text-anchor="start" x="905" y="-1334.05" font-family="Consolas" font-size="11.00"> </text>
<text text-anchor="start" x="905" y="-1317.05" font-family="Consolas" font-size="11.00"> </text>
<polygon fill="#666666" stroke="#666666" points="894,-1346.5 894,-1346.5 922,-1346.5 922,-1346.5 894,-1346.5"/>
<polygon fill="#666666" stroke="#666666" points="894,-1329.5 894,-1329.5 922,-1329.5 922,-1329.5 894,-1329.5"/>
<polygon fill="none" stroke="#666666" points="894,-1310.5 894,-1365.5 922,-1365.5 922,-1310.5 894,-1310.5"/>
</a>
</g>
</g>
<!-- Node10&#45;&gt;Node8 -->
<g id="edge11_Node000008_Node000010" class="edge">
<title>Node10&#45;&gt;Node8</title>
<g id="a_edge11_Node000008_Node000010"><a xlink:title=" ">
<path fill="none" stroke="#63b8ff" d="M921.78,-1330.99C935.84,-1324.02 956.85,-1311.05 966,-1292.5 980.6,-1262.9 982.2,-1172.75 966,-1144 923.98,-1069.44 832.74,-1025 767.97,-1001.68"/>
<polygon fill="none" stroke="#63b8ff" points="767.98,-1001.68 760.99,-1003.48 756.65,-997.73 763.63,-995.93 767.98,-1001.68"/>
</a>
</g>
<text text-anchor="middle" x="1037" y="-1282.05" font-family="Consolas" font-size="11.00" fill="grey"> +current_history</text>
<text text-anchor="middle" x="1037" y="-1268.55" font-family="Consolas" font-size="11.00" fill="grey">+current_strain</text>
<text text-anchor="middle" x="1037" y="-1255.05" font-family="Consolas" font-size="11.00" fill="grey">+current_strain_acc</text>
<text text-anchor="middle" x="1037" y="-1241.55" font-family="Consolas" font-size="11.00" fill="grey">+current_strain_rate</text>
<text text-anchor="middle" x="1037" y="-1228.05" font-family="Consolas" font-size="11.00" fill="grey">+current_stress</text>
<text text-anchor="middle" x="1037" y="-1214.55" font-family="Consolas" font-size="11.00" fill="grey">+incre_strain</text>
<text text-anchor="middle" x="1037" y="-1201.05" font-family="Consolas" font-size="11.00" fill="grey">+incre_strain_acc</text>
<text text-anchor="middle" x="1037" y="-1187.55" font-family="Consolas" font-size="11.00" fill="grey">+incre_strain_rate</text>
<text text-anchor="middle" x="1037" y="-1174.05" font-family="Consolas" font-size="11.00" fill="grey">+incre_stress</text>
<text text-anchor="middle" x="1037" y="-1160.55" font-family="Consolas" font-size="11.00" fill="grey">+initial_history</text>
<text text-anchor="middle" x="1037" y="-1147.05" font-family="Consolas" font-size="11.00" fill="grey">...</text>
</g>
<!-- Node10&#45;&gt;Node12 -->
<g id="edge15_Node000012_Node000010" class="edge">
<title>Node10&#45;&gt;Node12</title>
<g id="a_edge15_Node000012_Node000010"><a xlink:title=" ">
<path fill="none" stroke="#63b8ff" d="M894.06,-1333.82C874.9,-1328.67 840.88,-1316.54 824,-1292.5 785.7,-1237.94 851.03,-1190.22 803,-1144 774.67,-1116.74 663.6,-1140.36 627,-1126 564.25,-1101.38 504.25,-1050.36 468.27,-1015.77"/>
<polygon fill="none" stroke="#63b8ff" points="468.44,-1015.94 461.35,-1014.61 459.85,-1007.55 466.94,-1008.89 468.44,-1015.94"/>
</a>
</g>
<text text-anchor="middle" x="893" y="-1248.3" font-family="Consolas" font-size="11.00" fill="grey"> +current_couple_stress</text>
<text text-anchor="middle" x="893" y="-1234.8" font-family="Consolas" font-size="11.00" fill="grey">+current_curvature</text>
<text text-anchor="middle" x="893" y="-1221.3" font-family="Consolas" font-size="11.00" fill="grey">+incre_couple_stress</text>
<text text-anchor="middle" x="893" y="-1207.8" font-family="Consolas" font-size="11.00" fill="grey">+incre_curvature</text>
<text text-anchor="middle" x="893" y="-1194.3" font-family="Consolas" font-size="11.00" fill="grey">+trial_couple_stress</text>
<text text-anchor="middle" x="893" y="-1180.8" font-family="Consolas" font-size="11.00" fill="grey">+trial_curvature</text>
</g>
<!-- Node11 -->
<g id="Node000011" class="node">
<title>Node11</title>
<g id="a_Node000011"><a xlink:title=" ">
<polygon fill="white" stroke="none" points="579,-1365.5 551,-1365.5 551,-1310.5 579,-1310.5 579,-1365.5"/>
<text text-anchor="start" x="556" y="-1351.05" font-family="Consolas" font-size="11.00">mat</text>
<text text-anchor="start" x="562" y="-1334.05" font-family="Consolas" font-size="11.00"> </text>
<text text-anchor="start" x="562" y="-1317.05" font-family="Consolas" font-size="11.00"> </text>
<polygon fill="#666666" stroke="#666666" points="551,-1346.5 551,-1346.5 579,-1346.5 579,-1346.5 551,-1346.5"/>
<polygon fill="#666666" stroke="#666666" points="551,-1329.5 551,-1329.5 579,-1329.5 579,-1329.5 551,-1329.5"/>
<polygon fill="none" stroke="#666666" points="551,-1310.5 551,-1365.5 579,-1365.5 579,-1310.5 551,-1310.5"/>
</a>
</g>
</g>
<!-- Node11&#45;&gt;Node8 -->
<g id="edge12_Node000008_Node000011" class="edge">
<title>Node11&#45;&gt;Node8</title>
<g id="a_edge12_Node000008_Node000011"><a xlink:title=" ">
<path fill="none" stroke="#63b8ff" d="M578.83,-1335.88C602.73,-1333.13 651.34,-1323.79 674,-1292.5 687.67,-1273.62 692.9,-1139.74 694.86,-1053.59"/>
<polygon fill="none" stroke="#63b8ff" points="694.86,-1053.63 690.99,-1047.54 695.12,-1041.63 698.99,-1047.71 694.86,-1053.63"/>
</a>
</g>
<text text-anchor="middle" x="745" y="-1268.55" font-family="Consolas" font-size="11.00" fill="grey"> +current_damping</text>
<text text-anchor="middle" x="745" y="-1255.05" font-family="Consolas" font-size="11.00" fill="grey">+current_inertial</text>
<text text-anchor="middle" x="745" y="-1241.55" font-family="Consolas" font-size="11.00" fill="grey">+current_stiffness</text>
<text text-anchor="middle" x="745" y="-1228.05" font-family="Consolas" font-size="11.00" fill="grey">+initial_damping</text>
<text text-anchor="middle" x="745" y="-1214.55" font-family="Consolas" font-size="11.00" fill="grey">+initial_inertial</text>
<text text-anchor="middle" x="745" y="-1201.05" font-family="Consolas" font-size="11.00" fill="grey">+initial_stiffness</text>
<text text-anchor="middle" x="745" y="-1187.55" font-family="Consolas" font-size="11.00" fill="grey">+trial_damping</text>
<text text-anchor="middle" x="745" y="-1174.05" font-family="Consolas" font-size="11.00" fill="grey">+trial_inertial</text>
<text text-anchor="middle" x="745" y="-1160.55" font-family="Consolas" font-size="11.00" fill="grey">+trial_stiffness</text>
</g>
<!-- Node11&#45;&gt;Node12 -->
<g id="edge16_Node000012_Node000011" class="edge">
<title>Node11&#45;&gt;Node12</title>
<g id="a_edge16_Node000012_Node000011"><a xlink:title=" ">
<path fill="none" stroke="#63b8ff" d="M551.41,-1337.07C523.98,-1336.4 462.25,-1330.5 435,-1292.5 404.47,-1249.92 419.51,-1093.52 428.68,-1019.64"/>
<polygon fill="none" stroke="#63b8ff" points="428.68,-1019.65 425.47,-1013.19 430.2,-1007.75 433.41,-1014.21 428.68,-1019.65"/>
</a>
</g>
<text text-anchor="middle" x="513" y="-1228.05" font-family="Consolas" font-size="11.00" fill="grey"> +current_couple_stiffness</text>
<text text-anchor="middle" x="513" y="-1214.55" font-family="Consolas" font-size="11.00" fill="grey">+initial_couple_stiffness</text>
<text text-anchor="middle" x="513" y="-1201.05" font-family="Consolas" font-size="11.00" fill="grey">+trial_couple_stiffness</text>
</g>
<!-- Node12&#45;&gt;Node7 -->
<g id="edge13_Node000007_Node000012" class="edge">
<title>Node12&#45;&gt;Node7</title>
<g id="a_edge13_Node000007_Node000012"><a xlink:title=" ">
<path fill="none" stroke="darkgreen" d="M422.38,-941.73C407.47,-894.55 380.93,-810.61 359.17,-741.78"/>
<polygon fill="none" stroke="darkgreen" points="419.29,-942.58 425.64,-951.06 425.97,-940.47 419.29,-942.58"/>
</a>
</g>
</g>
<!-- Node13 -->
<g id="Node000013" class="node">
<title>Node13</title>
<g id="a_Node000013"><a xlink:href="../../d0/d57/class_tag.html" target="_top" xlink:title="A base Tag class.">
<polygon fill="white" stroke="none" points="357,-1126 267,-1126 267,-833 357,-833 357,-1126"/>
<text text-anchor="start" x="303" y="-1111.55" font-family="Consolas" font-size="11.00">Tag</text>
<text text-anchor="start" x="309" y="-1094.55" font-family="Consolas" font-size="11.00"> </text>
<text text-anchor="start" x="271" y="-1077.55" font-family="Consolas" font-size="11.00">+</text>
<text text-anchor="start" x="281" y="-1077.55" font-family="Consolas" font-size="11.00">Tag()</text>
<text text-anchor="start" x="271" y="-1060.55" font-family="Consolas" font-size="11.00">+</text>
<text text-anchor="start" x="281" y="-1060.55" font-family="Consolas" font-size="11.00">Tag()</text>
<text text-anchor="start" x="271" y="-1043.55" font-family="Consolas" font-size="11.00">+</text>
<text text-anchor="start" x="281" y="-1043.55" font-family="Consolas" font-size="11.00">Tag()</text>
<text text-anchor="start" x="271" y="-1026.55" font-family="Consolas" font-size="11.00">+</text>
<text text-anchor="start" x="281" y="-1026.55" font-family="Consolas" font-size="11.00">operator=()</text>
<text text-anchor="start" x="271" y="-1009.55" font-family="Consolas" font-size="11.00">+</text>
<text text-anchor="start" x="281" y="-1009.55" font-family="Consolas" font-size="11.00">operator=()</text>
<text text-anchor="start" x="271" y="-992.55" font-family="Consolas" font-size="11.00">+</text>
<text text-anchor="start" x="281" y="-992.55" font-family="Consolas" font-size="11.00">~Tag()</text>
<text text-anchor="start" x="271" y="-975.55" font-family="Consolas" font-size="11.00">+</text>
<text text-anchor="start" x="281" y="-975.55" font-family="Consolas" font-size="11.00">set_tag()</text>
<text text-anchor="start" x="271" y="-958.55" font-family="Consolas" font-size="11.00">+</text>
<text text-anchor="start" x="281" y="-958.55" font-family="Consolas" font-size="11.00">get_tag()</text>
<text text-anchor="start" x="271" y="-941.55" font-family="Consolas" font-size="11.00">+</text>
<text text-anchor="start" x="281" y="-941.55" font-family="Consolas" font-size="11.00">enable()</text>
<text text-anchor="start" x="271" y="-924.55" font-family="Consolas" font-size="11.00">+</text>
<text text-anchor="start" x="281" y="-924.55" font-family="Consolas" font-size="11.00">disable()</text>
<text text-anchor="start" x="271" y="-907.55" font-family="Consolas" font-size="11.00">+</text>
<text text-anchor="start" x="281" y="-907.55" font-family="Consolas" font-size="11.00">guard()</text>
<text text-anchor="start" x="271" y="-890.55" font-family="Consolas" font-size="11.00">+</text>
<text text-anchor="start" x="281" y="-890.55" font-family="Consolas" font-size="11.00">unguard()</text>
<text text-anchor="start" x="271" y="-873.55" font-family="Consolas" font-size="11.00">+</text>
<text text-anchor="start" x="281" y="-873.55" font-family="Consolas" font-size="11.00">is_active()</text>
<text text-anchor="start" x="271" y="-856.55" font-family="Consolas" font-size="11.00">+</text>
<text text-anchor="start" x="281" y="-856.55" font-family="Consolas" font-size="11.00">is_guarded()</text>
<text text-anchor="start" x="271" y="-839.55" font-family="Consolas" font-size="11.00">+</text>
<text text-anchor="start" x="281" y="-839.55" font-family="Consolas" font-size="11.00">print()</text>
<polygon fill="#666666" stroke="#666666" points="267,-1107 267,-1107 357,-1107 357,-1107 267,-1107"/>
<polygon fill="#666666" stroke="#666666" points="267,-1090 267,-1090 357,-1090 357,-1090 267,-1090"/>
<polygon fill="none" stroke="#666666" points="267,-833 267,-1126 357,-1126 357,-833 267,-833"/>
</a>
</g>
</g>
<!-- Node13&#45;&gt;Node7 -->
<g id="edge17_Node000007_Node000013" class="edge">
<title>Node13&#45;&gt;Node7</title>
<g id="a_edge17_Node000007_Node000013"><a xlink:title=" ">
<path fill="none" stroke="#63b8ff" d="M317.38,-822.4C318.32,-795.21 319.28,-767.43 320.16,-741.76"/>
<polygon fill="none" stroke="#63b8ff" points="313.86,-822.07 317.01,-832.18 320.85,-822.31 313.86,-822.07"/>
</a>
</g>
</g>
</g>
</svg>
