<?xml version="1.0" encoding="UTF-8" standalone="no"?>
<!DOCTYPE svg PUBLIC "-//W3C//DTD SVG 1.1//EN"
 "http://www.w3.org/Graphics/SVG/1.1/DTD/svg11.dtd">
<!-- Generated by graphviz version 2.43.0 (0)
 -->
<!-- Title: new_damper02 Pages: 1 -->
<svg width="326pt" height="66pt"
 viewBox="0.00 0.00 326.00 66.00" xmlns="http://www.w3.org/2000/svg" xmlns:xlink="http://www.w3.org/1999/xlink">
<g id="graph0" class="graph" transform="scale(1 1) rotate(0) translate(4 62)">
<title>new_damper02</title>
<!-- Node1 -->
<g id="Node000001" class="node">
<title>Node1</title>
<g id="a_Node000001"><a xlink:title=" ">
<polygon fill="#999999" stroke="#666666" points="98,-39 0,-39 0,-19 98,-19 98,-39"/>
<text text-anchor="middle" x="49" y="-26.2" font-family="Consolas" font-size="11.00">new_damper02</text>
</a>
</g>
</g>
<!-- Node2 -->
<g id="Node000002" class="node">
<title>Node2</title>
<g id="a_Node000002"><a xlink:href="../../d5/d47/utility_8h.html#a28b47ba8588036035501b1cf8cf51812" target="_top" xlink:title=" ">
<polygon fill="white" stroke="#666666" points="211,-58 134,-58 134,-38 211,-38 211,-58"/>
<text text-anchor="middle" x="172.5" y="-45.2" font-family="Consolas" font-size="11.00">get_input</text>
</a>
</g>
</g>
<!-- Node1&#45;&gt;Node2 -->
<g id="edge1_Node000001_Node000002" class="edge">
<title>Node1&#45;&gt;Node2</title>
<g id="a_edge1_Node000001_Node000002"><a xlink:title=" ">
<path fill="none" stroke="#63b8ff" d="M98.02,-36.51C106.51,-37.84 115.34,-39.22 123.82,-40.54"/>
<polygon fill="#63b8ff" stroke="#63b8ff" points="123.52,-44.04 133.94,-42.13 124.6,-37.12 123.52,-44.04"/>
</a>
</g>
</g>
<!-- Node3 -->
<g id="Node000003" class="node">
<title>Node3</title>
<g id="a_Node000003"><a xlink:href="../../dc/dfa/utility_8cpp.html#aadeba583a4314ba6bcdd2c05a7c877ca" target="_top" xlink:title=" ">
<polygon fill="white" stroke="#666666" points="204.5,-20 140.5,-20 140.5,0 204.5,0 204.5,-20"/>
<text text-anchor="middle" x="172.5" y="-7.2" font-family="Consolas" font-size="11.00">is_true</text>
</a>
</g>
</g>
<!-- Node1&#45;&gt;Node3 -->
<g id="edge2_Node000001_Node000003" class="edge">
<title>Node1&#45;&gt;Node3</title>
<g id="a_edge2_Node000001_Node000003"><a xlink:title=" ">
<path fill="none" stroke="#63b8ff" d="M98.02,-21.49C108.67,-19.83 119.86,-18.08 130.21,-16.46"/>
<polygon fill="#63b8ff" stroke="#63b8ff" points="130.89,-19.89 140.23,-14.89 129.8,-12.98 130.89,-19.89"/>
</a>
</g>
</g>
<!-- Node4 -->
<g id="Node000004" class="node">
<title>Node4</title>
<g id="a_Node000004"><a xlink:href="../../dc/dfa/utility_8cpp.html#aec5c03b9af3b75833d6e8a674d88f5fd" target="_top" xlink:title=" ">
<polygon fill="white" stroke="#666666" points="318,-20 247,-20 247,0 318,0 318,-20"/>
<text text-anchor="middle" x="282.5" y="-7.2" font-family="Consolas" font-size="11.00">is_equal</text>
</a>
</g>
</g>
<!-- Node3&#45;&gt;Node4 -->
<g id="edge3_Node000003_Node000004" class="edge">
<title>Node3&#45;&gt;Node4</title>
<g id="a_edge3_Node000003_Node000004"><a xlink:title=" ">
<path fill="none" stroke="#63b8ff" d="M204.74,-10C214.75,-10 226.03,-10 236.81,-10"/>
<polygon fill="#63b8ff" stroke="#63b8ff" points="236.92,-13.5 246.92,-10 236.92,-6.5 236.92,-13.5"/>
</a>
</g>
</g>
</g>
</svg>
