<?xml version="1.0" encoding="UTF-8" standalone="no"?>
<!DOCTYPE svg PUBLIC "-//W3C//DTD SVG 1.1//EN"
 "http://www.w3.org/Graphics/SVG/1.1/DTD/svg11.dtd">
<!-- Generated by graphviz version 8.1.0 (20230707.0739)
 -->
<!-- Title: DataBilinearJ2 Pages: 1 -->
<svg width="152pt" height="358pt"
 viewBox="0.00 0.00 152.00 358.00" xmlns="http://www.w3.org/2000/svg" xmlns:xlink="http://www.w3.org/1999/xlink">
<g id="graph0" class="graph" transform="scale(1 1) rotate(0) translate(4 354)">
<title>DataBilinearJ2</title>
<!-- Node1 -->
<g id="Node000001" class="node">
<title>Node1</title>
<g id="a_Node000001"><a xlink:title=" ">
<polygon fill="#999999" stroke="none" points="126,-350 18,-350 18,-227 126,-227 126,-350"/>
<text text-anchor="start" x="30" y="-335.55" font-family="Consolas" font-size="11.00">DataBilinearJ2</text>
<text text-anchor="start" x="22" y="-318.55" font-family="Consolas" font-size="11.00">+</text>
<text text-anchor="start" x="32" y="-318.55" font-family="Consolas" font-size="11.00">elastic_modulus</text>
<text text-anchor="start" x="22" y="-301.55" font-family="Consolas" font-size="11.00">+</text>
<text text-anchor="start" x="32" y="-301.55" font-family="Consolas" font-size="11.00">poissons_ratio</text>
<text text-anchor="start" x="22" y="-284.55" font-family="Consolas" font-size="11.00">+</text>
<text text-anchor="start" x="32" y="-284.55" font-family="Consolas" font-size="11.00">yield_stress</text>
<text text-anchor="start" x="22" y="-267.55" font-family="Consolas" font-size="11.00">+</text>
<text text-anchor="start" x="32" y="-267.55" font-family="Consolas" font-size="11.00">hardening_ratio</text>
<text text-anchor="start" x="22" y="-250.55" font-family="Consolas" font-size="11.00">+</text>
<text text-anchor="start" x="32" y="-250.55" font-family="Consolas" font-size="11.00">beta</text>
<text text-anchor="start" x="69" y="-233.55" font-family="Consolas" font-size="11.00"> </text>
<polygon fill="#666666" stroke="#666666" points="18,-331 18,-331 126,-331 126,-331 18,-331"/>
<polygon fill="#666666" stroke="#666666" points="18,-246 18,-246 30,-246 30,-246 18,-246"/>
<polygon fill="#666666" stroke="#666666" points="30,-246 30,-246 126,-246 126,-246 30,-246"/>
<polygon fill="none" stroke="#666666" points="18,-227 18,-350 126,-350 126,-227 18,-227"/>
</a>
</g>
</g>
<!-- Node2 -->
<g id="Node000002" class="node">
<title>Node2</title>
<g id="a_Node000002"><a xlink:href="../../d3/d0e/class_bilinear_j2.html" target="_top" xlink:title="The BilinearJ2 class defines a bilinear hardening material with mixed hardening (isotropic and kinema...">
<polygon fill="white" stroke="none" points="144,-191 0,-191 0,0 144,0 144,-191"/>
<text text-anchor="start" x="42" y="-176.55" font-family="Consolas" font-size="11.00">BilinearJ2</text>
<text text-anchor="start" x="69" y="-159.55" font-family="Consolas" font-size="11.00"> </text>
<text text-anchor="start" x="4" y="-142.55" font-family="Consolas" font-size="11.00">+</text>
<text text-anchor="start" x="14" y="-142.55" font-family="Consolas" font-size="11.00">BilinearJ2()</text>
<text text-anchor="start" x="4" y="-125.55" font-family="Consolas" font-size="11.00">+</text>
<text text-anchor="start" x="14" y="-125.55" font-family="Consolas" font-size="11.00">initialize()</text>
<text text-anchor="start" x="4" y="-108.55" font-family="Consolas" font-size="11.00">+</text>
<text text-anchor="start" x="14" y="-108.55" font-family="Consolas" font-size="11.00">get_copy()</text>
<text text-anchor="start" x="4" y="-91.55" font-family="Consolas" font-size="11.00">+</text>
<text text-anchor="start" x="14" y="-91.55" font-family="Consolas" font-size="11.00">get_parameter()</text>
<text text-anchor="start" x="4" y="-74.55" font-family="Consolas" font-size="11.00">+</text>
<text text-anchor="start" x="14" y="-74.55" font-family="Consolas" font-size="11.00">update_trial_status()</text>
<text text-anchor="start" x="4" y="-57.55" font-family="Consolas" font-size="11.00">+</text>
<text text-anchor="start" x="14" y="-57.55" font-family="Consolas" font-size="11.00">clear_status()</text>
<text text-anchor="start" x="4" y="-40.55" font-family="Consolas" font-size="11.00">+</text>
<text text-anchor="start" x="14" y="-40.55" font-family="Consolas" font-size="11.00">commit_status()</text>
<text text-anchor="start" x="4" y="-23.55" font-family="Consolas" font-size="11.00">+</text>
<text text-anchor="start" x="14" y="-23.55" font-family="Consolas" font-size="11.00">reset_status()</text>
<text text-anchor="start" x="4" y="-6.55" font-family="Consolas" font-size="11.00">+</text>
<text text-anchor="start" x="14" y="-6.55" font-family="Consolas" font-size="11.00">print()</text>
<polygon fill="#666666" stroke="#666666" points="0,-172 0,-172 144,-172 144,-172 0,-172"/>
<polygon fill="#666666" stroke="#666666" points="0,-155 0,-155 144,-155 144,-155 0,-155"/>
<polygon fill="none" stroke="#666666" points="0,0 0,-191 144,-191 144,0 0,0"/>
</a>
</g>
</g>
<!-- Node1&#45;&gt;Node2 -->
<g id="edge1_Node000001_Node000002" class="edge">
<title>Node1&#45;&gt;Node2</title>
<g id="a_edge1_Node000001_Node000002"><a xlink:title=" ">
<path fill="none" stroke="darkgreen" d="M72,-216.28C72,-207.94 72,-199.33 72,-190.74"/>
<polygon fill="none" stroke="darkgreen" points="68.5,-216.07 72,-226.07 75.5,-216.07 68.5,-216.07"/>
</a>
</g>
</g>
</g>
</svg>
