<?xml version="1.0" encoding="UTF-8" standalone="no"?>
<!DOCTYPE svg PUBLIC "-//W3C//DTD SVG 1.1//EN"
 "http://www.w3.org/Graphics/SVG/1.1/DTD/svg11.dtd">
<!-- Generated by graphviz version 5.0.0 (0)
 -->
<!-- Title: MetaMat&lt; T &gt; Pages: 1 -->
<!--zoomable 892 -->
<svg id="main" version="1.1" xmlns="http://www.w3.org/2000/svg" xmlns:xlink="http://www.w3.org/1999/xlink" xml:space="preserve" onload="init(evt)">
<style type="text/css"><![CDATA[
.edge:hover path { stroke: red; }
.edge:hover polygon { stroke: red; fill: red; }
]]></style>
<script type="text/javascript"><![CDATA[
var edges = document.getElementsByTagName('g');
if (edges && edges.length) {
  for (var i=0;i<edges.length;i++) {
    if (edges[i].id.substr(0,4)=='edge') {
      edges[i].setAttribute('class','edge');
    }
  }
}
]]></script>
        <defs>
                <circle id="rim" cx="0" cy="0" r="7"/>
                <circle id="rim2" cx="0" cy="0" r="3.5"/>
                <g id="zoomPlus">
                        <use xlink:href="#rim" fill="#404040">
                                <set attributeName="fill" to="#808080" begin="zoomplus.mouseover" end="zoomplus.mouseout"/>
                        </use>
                        <path d="M-4,0h8M0,-4v8" fill="none" stroke="white" stroke-width="1.5" pointer-events="none"/>
                </g>
                <g id="zoomMin">
                        <use xlink:href="#rim" fill="#404040">
                                <set attributeName="fill" to="#808080" begin="zoomminus.mouseover" end="zoomminus.mouseout"/>
                        </use>
                        <path d="M-4,0h8" fill="none" stroke="white" stroke-width="1.5" pointer-events="none"/>
                </g>
                <g id="dirArrow">
                        <path fill="none" stroke="white" stroke-width="1.5" d="M0,-3.0v7 M-2.5,-0.5L0,-3.0L2.5,-0.5"/>
                </g>
               <g id="resetDef">
                       <use xlink:href="#rim2" fill="#404040">
                               <set attributeName="fill" to="#808080" begin="reset.mouseover" end="reset.mouseout"/>
                       </use>
               </g>
        </defs>

<script type="text/javascript">
var viewWidth = 1111;
var viewHeight = 892;
var sectionId = 'dynsection-0';
</script>
<script xlink:href="../../svgpan.js"/>
<svg id="graph" class="graph">
<g id="viewport">
<title>MetaMat&lt; T &gt;</title>
<!-- Node1 -->
<g id="node1" class="node">
<title>Node1</title>
<g id="a_node1"><a xlink:title="A MetaMat class that holds matrices.">
<polygon fill="#999999" stroke="#666666" points="680,-884 515,-884 515,-564 680,-564 680,-884"/>
<text text-anchor="middle" x="597.5" y="-871.2" font-family="Consolas" font-size="11.00">{MetaMat&lt; T &gt;</text>
<text text-anchor="start" x="523" y="-859.2" font-family="Consolas" font-size="11.00">|+ triplet_mat</text>
<text text-anchor="start" x="523" y="-847.2" font-family="Consolas" font-size="11.00">+ n_rows</text>
<text text-anchor="start" x="523" y="-835.2" font-family="Consolas" font-size="11.00">+ n_cols</text>
<text text-anchor="start" x="523" y="-823.2" font-family="Consolas" font-size="11.00">+ n_elem</text>
<text text-anchor="start" x="523" y="-811.2" font-family="Consolas" font-size="11.00"># factored</text>
<text text-anchor="start" x="523" y="-799.2" font-family="Consolas" font-size="11.00"># setting</text>
<text text-anchor="start" x="523" y="-787.2" font-family="Consolas" font-size="11.00">|+ MetaMat()</text>
<text text-anchor="start" x="523" y="-775.2" font-family="Consolas" font-size="11.00">+ MetaMat()</text>
<text text-anchor="start" x="523" y="-763.2" font-family="Consolas" font-size="11.00">+ MetaMat()</text>
<text text-anchor="start" x="523" y="-751.2" font-family="Consolas" font-size="11.00">+ operator=()</text>
<text text-anchor="start" x="523" y="-739.2" font-family="Consolas" font-size="11.00">+ operator=()</text>
<text text-anchor="start" x="523" y="-727.2" font-family="Consolas" font-size="11.00">+ ~MetaMat()</text>
<text text-anchor="start" x="523" y="-715.2" font-family="Consolas" font-size="11.00">+ set_solver_setting()</text>
<text text-anchor="start" x="523" y="-703.2" font-family="Consolas" font-size="11.00">+ get_solver_setting()</text>
<text text-anchor="start" x="523" y="-691.2" font-family="Consolas" font-size="11.00">+ set_factored()</text>
<text text-anchor="start" x="523" y="-679.2" font-family="Consolas" font-size="11.00">+ is_empty()</text>
<text text-anchor="start" x="523" y="-667.2" font-family="Consolas" font-size="11.00">and 24 more...</text>
<text text-anchor="start" x="523" y="-655.2" font-family="Consolas" font-size="11.00"># direct_solve()</text>
<text text-anchor="start" x="523" y="-643.2" font-family="Consolas" font-size="11.00"># direct_solve()</text>
<text text-anchor="start" x="523" y="-631.2" font-family="Consolas" font-size="11.00"># direct_solve()</text>
<text text-anchor="start" x="523" y="-619.2" font-family="Consolas" font-size="11.00"># direct_solve()</text>
<text text-anchor="start" x="523" y="-607.2" font-family="Consolas" font-size="11.00"># iterative_solve()</text>
<text text-anchor="start" x="523" y="-595.2" font-family="Consolas" font-size="11.00"># iterative_solve()</text>
<text text-anchor="start" x="523" y="-583.2" font-family="Consolas" font-size="11.00"># mixed_trs()</text>
<text text-anchor="middle" x="597.5" y="-571.2" font-family="Consolas" font-size="11.00">}</text>
</a>
</g>
</g>
<!-- Node2 -->
<g id="node2" class="node">
<title>Node2</title>
<g id="a_node2"><a xlink:href="../../d0/de9/class_dense_mat.html" target="_top" xlink:title="A DenseMat class that holds matrices.">
<polygon fill="white" stroke="#666666" points="501,-528 376,-528 376,-304 501,-304 501,-528"/>
<text text-anchor="middle" x="438.5" y="-515.2" font-family="Consolas" font-size="11.00">{DenseMat&lt; T &gt;</text>
<text text-anchor="start" x="384" y="-503.2" font-family="Consolas" font-size="11.00">|# pivot</text>
<text text-anchor="start" x="384" y="-491.2" font-family="Consolas" font-size="11.00"># s_memory</text>
<text text-anchor="start" x="384" y="-479.2" font-family="Consolas" font-size="11.00"># memory</text>
<text text-anchor="start" x="384" y="-467.2" font-family="Consolas" font-size="11.00">|+ DenseMat()</text>
<text text-anchor="start" x="384" y="-455.2" font-family="Consolas" font-size="11.00">+ DenseMat()</text>
<text text-anchor="start" x="384" y="-443.2" font-family="Consolas" font-size="11.00">+ DenseMat()</text>
<text text-anchor="start" x="384" y="-431.2" font-family="Consolas" font-size="11.00">+ operator=()</text>
<text text-anchor="start" x="384" y="-419.2" font-family="Consolas" font-size="11.00">+ operator=()</text>
<text text-anchor="start" x="384" y="-407.2" font-family="Consolas" font-size="11.00">+ ~DenseMat()</text>
<text text-anchor="start" x="384" y="-395.2" font-family="Consolas" font-size="11.00">+ is_empty()</text>
<text text-anchor="start" x="384" y="-383.2" font-family="Consolas" font-size="11.00">+ zeros()</text>
<text text-anchor="start" x="384" y="-371.2" font-family="Consolas" font-size="11.00">+ max()</text>
<text text-anchor="start" x="384" y="-359.2" font-family="Consolas" font-size="11.00">+ diag()</text>
<text text-anchor="start" x="384" y="-347.2" font-family="Consolas" font-size="11.00">and 8 more...</text>
<text text-anchor="start" x="384" y="-335.2" font-family="Consolas" font-size="11.00"># direct_solve()</text>
<text text-anchor="start" x="384" y="-323.2" font-family="Consolas" font-size="11.00"># to_float()</text>
<text text-anchor="middle" x="438.5" y="-311.2" font-family="Consolas" font-size="11.00">}</text>
</a>
</g>
</g>
<!-- Node1&#45;&gt;Node2 -->
<g id="edge1" class="edge">
<title>Node1&#45;&gt;Node2</title>
<path fill="none" stroke="#63b8ff" d="M510.27,-555.13C505.58,-546.1 500.93,-537.15 496.38,-528.39"/>
<polygon fill="none" stroke="#63b8ff" points="507.26,-556.91 514.97,-564.17 513.47,-553.69 507.26,-556.91"/>
</g>
<!-- Node8 -->
<g id="node8" class="node">
<title>Node8</title>
<g id="a_node8"><a xlink:href="../../d5/d13/class_sparse_mat.html" target="_top" xlink:title="A SparseMat class that holds matrices.">
<polygon fill="white" stroke="#666666" points="893,-504 768,-504 768,-328 893,-328 893,-504"/>
<text text-anchor="middle" x="830.5" y="-491.2" font-family="Consolas" font-size="11.00">{SparseMat&lt; T &gt;</text>
<text text-anchor="start" x="776" y="-479.2" font-family="Consolas" font-size="11.00">||+ SparseMat()</text>
<text text-anchor="start" x="776" y="-467.2" font-family="Consolas" font-size="11.00">+ is_empty()</text>
<text text-anchor="start" x="776" y="-455.2" font-family="Consolas" font-size="11.00">+ zeros()</text>
<text text-anchor="start" x="776" y="-443.2" font-family="Consolas" font-size="11.00">+ nullify()</text>
<text text-anchor="start" x="776" y="-431.2" font-family="Consolas" font-size="11.00">+ max()</text>
<text text-anchor="start" x="776" y="-419.2" font-family="Consolas" font-size="11.00">+ diag()</text>
<text text-anchor="start" x="776" y="-407.2" font-family="Consolas" font-size="11.00">+ operator()()</text>
<text text-anchor="start" x="776" y="-395.2" font-family="Consolas" font-size="11.00">+ at()</text>
<text text-anchor="start" x="776" y="-383.2" font-family="Consolas" font-size="11.00">+ memptr()</text>
<text text-anchor="start" x="776" y="-371.2" font-family="Consolas" font-size="11.00">+ memptr()</text>
<text text-anchor="start" x="776" y="-359.2" font-family="Consolas" font-size="11.00">and 9 more...</text>
<text text-anchor="start" x="776" y="-347.2" font-family="Consolas" font-size="11.00"># direct_solve()</text>
<text text-anchor="middle" x="830.5" y="-335.2" font-family="Consolas" font-size="11.00">}</text>
</a>
</g>
</g>
<!-- Node1&#45;&gt;Node8 -->
<g id="edge7" class="edge">
<title>Node1&#45;&gt;Node8</title>
<path fill="none" stroke="#63b8ff" d="M686.41,-606.23C713.52,-570.62 742.75,-532.25 767.74,-499.42"/>
<polygon fill="none" stroke="#63b8ff" points="683.58,-604.18 680.3,-614.25 689.15,-608.42 683.58,-604.18"/>
</g>
<!-- Node3 -->
<g id="node3" class="node">
<title>Node3</title>
<g id="a_node3"><a xlink:href="../../d9/dac/class_band_mat.html" target="_top" xlink:title="A BandMat class that holds matrices.">
<polygon fill="white" stroke="#666666" points="125,-262 0,-262 0,-110 125,-110 125,-262"/>
<text text-anchor="middle" x="62.5" y="-249.2" font-family="Consolas" font-size="11.00">{BandMat&lt; T &gt;</text>
<text text-anchor="start" x="8" y="-237.2" font-family="Consolas" font-size="11.00">|# l_band</text>
<text text-anchor="start" x="8" y="-225.2" font-family="Consolas" font-size="11.00"># u_band</text>
<text text-anchor="start" x="8" y="-213.2" font-family="Consolas" font-size="11.00">|+ BandMat()</text>
<text text-anchor="start" x="8" y="-201.2" font-family="Consolas" font-size="11.00">+ make_copy()</text>
<text text-anchor="start" x="8" y="-189.2" font-family="Consolas" font-size="11.00">+ nullify()</text>
<text text-anchor="start" x="8" y="-177.2" font-family="Consolas" font-size="11.00">+ operator()()</text>
<text text-anchor="start" x="8" y="-165.2" font-family="Consolas" font-size="11.00">+ unsafe_at()</text>
<text text-anchor="start" x="8" y="-153.2" font-family="Consolas" font-size="11.00">+ at()</text>
<text text-anchor="start" x="8" y="-141.2" font-family="Consolas" font-size="11.00">+ operator*()</text>
<text text-anchor="start" x="8" y="-129.2" font-family="Consolas" font-size="11.00"># direct_solve()</text>
<text text-anchor="middle" x="62.5" y="-117.2" font-family="Consolas" font-size="11.00">}</text>
</a>
</g>
</g>
<!-- Node2&#45;&gt;Node3 -->
<g id="edge2" class="edge">
<title>Node2&#45;&gt;Node3</title>
<path fill="none" stroke="#63b8ff" d="M366.29,-389.44C301.72,-364.5 206.45,-322.39 134.5,-268 131.35,-265.62 128.23,-263.08 125.16,-260.43"/>
<polygon fill="none" stroke="#63b8ff" points="365.39,-392.85 375.98,-393.15 367.89,-386.31 365.39,-392.85"/>
</g>
<!-- Node4 -->
<g id="node4" class="node">
<title>Node4</title>
<g id="a_node4"><a xlink:href="../../de/d71/class_band_mat_spike.html" target="_top" xlink:title="A BandMatSpike class that holds matrices.">
<polygon fill="white" stroke="#666666" points="281.5,-256 143.5,-256 143.5,-116 281.5,-116 281.5,-256"/>
<text text-anchor="middle" x="212.5" y="-243.2" font-family="Consolas" font-size="11.00">{BandMatSpike&lt; T &gt;</text>
<text text-anchor="start" x="151.5" y="-231.2" font-family="Consolas" font-size="11.00">||+ BandMatSpike()</text>
<text text-anchor="start" x="151.5" y="-219.2" font-family="Consolas" font-size="11.00">+ make_copy()</text>
<text text-anchor="start" x="151.5" y="-207.2" font-family="Consolas" font-size="11.00">+ nullify()</text>
<text text-anchor="start" x="151.5" y="-195.2" font-family="Consolas" font-size="11.00">+ operator()()</text>
<text text-anchor="start" x="151.5" y="-183.2" font-family="Consolas" font-size="11.00">+ unsafe_at()</text>
<text text-anchor="start" x="151.5" y="-171.2" font-family="Consolas" font-size="11.00">+ at()</text>
<text text-anchor="start" x="151.5" y="-159.2" font-family="Consolas" font-size="11.00">+ operator*()</text>
<text text-anchor="start" x="151.5" y="-147.2" font-family="Consolas" font-size="11.00">+ sign_det()</text>
<text text-anchor="start" x="151.5" y="-135.2" font-family="Consolas" font-size="11.00"># direct_solve()</text>
<text text-anchor="middle" x="212.5" y="-123.2" font-family="Consolas" font-size="11.00">}</text>
</a>
</g>
</g>
<!-- Node2&#45;&gt;Node4 -->
<g id="edge3" class="edge">
<title>Node2&#45;&gt;Node4</title>
<path fill="none" stroke="#63b8ff" d="M368.66,-346.26C343.86,-321.69 315.82,-293.72 290.5,-268 286.66,-264.1 282.74,-260.09 278.78,-256.04"/>
<polygon fill="none" stroke="#63b8ff" points="366.33,-348.89 375.9,-353.44 371.26,-343.91 366.33,-348.89"/>
</g>
<!-- Node5 -->
<g id="node5" class="node">
<title>Node5</title>
<g id="a_node5"><a xlink:href="../../d6/d79/class_band_symm_mat.html" target="_top" xlink:title="A BandSymmMat class that holds matrices.">
<polygon fill="white" stroke="#666666" points="431,-250 300,-250 300,-122 431,-122 431,-250"/>
<text text-anchor="middle" x="365.5" y="-237.2" font-family="Consolas" font-size="11.00">{BandSymmMat&lt; T &gt;</text>
<text text-anchor="start" x="308" y="-225.2" font-family="Consolas" font-size="11.00">||+ BandSymmMat()</text>
<text text-anchor="start" x="308" y="-213.2" font-family="Consolas" font-size="11.00">+ make_copy()</text>
<text text-anchor="start" x="308" y="-201.2" font-family="Consolas" font-size="11.00">+ nullify()</text>
<text text-anchor="start" x="308" y="-189.2" font-family="Consolas" font-size="11.00">+ operator()()</text>
<text text-anchor="start" x="308" y="-177.2" font-family="Consolas" font-size="11.00">+ unsafe_at()</text>
<text text-anchor="start" x="308" y="-165.2" font-family="Consolas" font-size="11.00">+ at()</text>
<text text-anchor="start" x="308" y="-153.2" font-family="Consolas" font-size="11.00">+ operator*()</text>
<text text-anchor="start" x="308" y="-141.2" font-family="Consolas" font-size="11.00"># direct_solve()</text>
<text text-anchor="middle" x="365.5" y="-129.2" font-family="Consolas" font-size="11.00">}</text>
</a>
</g>
</g>
<!-- Node2&#45;&gt;Node5 -->
<g id="edge4" class="edge">
<title>Node2&#45;&gt;Node5</title>
<path fill="none" stroke="#63b8ff" d="M399.68,-293.74C394.84,-278.65 390.07,-263.73 385.68,-250.04"/>
<polygon fill="none" stroke="#63b8ff" points="396.47,-295.22 402.86,-303.67 403.14,-293.08 396.47,-295.22"/>
</g>
<!-- Node6 -->
<g id="node6" class="node">
<title>Node6</title>
<g id="a_node6"><a xlink:href="../../dd/df5/class_full_mat.html" target="_top" xlink:title="A FullMat class that holds matrices.">
<polygon fill="white" stroke="#666666" points="574,-244 449,-244 449,-128 574,-128 574,-244"/>
<text text-anchor="middle" x="511.5" y="-231.2" font-family="Consolas" font-size="11.00">{FullMat&lt; T &gt;</text>
<text text-anchor="start" x="457" y="-219.2" font-family="Consolas" font-size="11.00">||+ FullMat()</text>
<text text-anchor="start" x="457" y="-207.2" font-family="Consolas" font-size="11.00">+ make_copy()</text>
<text text-anchor="start" x="457" y="-195.2" font-family="Consolas" font-size="11.00">+ nullify()</text>
<text text-anchor="start" x="457" y="-183.2" font-family="Consolas" font-size="11.00">+ operator()()</text>
<text text-anchor="start" x="457" y="-171.2" font-family="Consolas" font-size="11.00">+ at()</text>
<text text-anchor="start" x="457" y="-159.2" font-family="Consolas" font-size="11.00">+ operator*()</text>
<text text-anchor="start" x="457" y="-147.2" font-family="Consolas" font-size="11.00"># direct_solve()</text>
<text text-anchor="middle" x="511.5" y="-135.2" font-family="Consolas" font-size="11.00">}</text>
</a>
</g>
</g>
<!-- Node2&#45;&gt;Node6 -->
<g id="edge5" class="edge">
<title>Node2&#45;&gt;Node6</title>
<path fill="none" stroke="#63b8ff" d="M477.23,-294.03C482.78,-276.7 488.26,-259.58 493.16,-244.29"/>
<polygon fill="none" stroke="#63b8ff" points="473.86,-293.08 474.14,-303.67 480.53,-295.22 473.86,-293.08"/>
</g>
<!-- Node7 -->
<g id="node7" class="node">
<title>Node7</title>
<g id="a_node7"><a xlink:href="../../da/d5b/class_symm_pack_mat.html" target="_top" xlink:title="A SymmPackMat class that holds matrices.">
<polygon fill="white" stroke="#666666" points="723,-250 592,-250 592,-122 723,-122 723,-250"/>
<text text-anchor="middle" x="657.5" y="-237.2" font-family="Consolas" font-size="11.00">{SymmPackMat&lt; T &gt;</text>
<text text-anchor="start" x="600" y="-225.2" font-family="Consolas" font-size="11.00">||+ SymmPackMat()</text>
<text text-anchor="start" x="600" y="-213.2" font-family="Consolas" font-size="11.00">+ make_copy()</text>
<text text-anchor="start" x="600" y="-201.2" font-family="Consolas" font-size="11.00">+ nullify()</text>
<text text-anchor="start" x="600" y="-189.2" font-family="Consolas" font-size="11.00">+ operator()()</text>
<text text-anchor="start" x="600" y="-177.2" font-family="Consolas" font-size="11.00">+ unsafe_at()</text>
<text text-anchor="start" x="600" y="-165.2" font-family="Consolas" font-size="11.00">+ at()</text>
<text text-anchor="start" x="600" y="-153.2" font-family="Consolas" font-size="11.00">+ operator*()</text>
<text text-anchor="start" x="600" y="-141.2" font-family="Consolas" font-size="11.00"># direct_solve()</text>
<text text-anchor="middle" x="657.5" y="-129.2" font-family="Consolas" font-size="11.00">}</text>
</a>
</g>
</g>
<!-- Node2&#45;&gt;Node7 -->
<g id="edge6" class="edge">
<title>Node2&#45;&gt;Node7</title>
<path fill="none" stroke="#63b8ff" d="M508.51,-344.34C532.16,-320.26 558.61,-293.09 582.5,-268 587.92,-262.31 593.53,-256.36 599.12,-250.39"/>
<polygon fill="none" stroke="#63b8ff" points="505.78,-342.12 501.27,-351.71 510.77,-347.03 505.78,-342.12"/>
</g>
<!-- Node9 -->
<g id="node9" class="node">
<title>Node9</title>
<g id="a_node9"><a xlink:href="../../db/d72/class_sparse_mat_base_m_u_m_p_s.html" target="_top" xlink:title=" ">
<polygon fill="white" stroke="#666666" points="920,-268 741,-268 741,-104 920,-104 920,-268"/>
<text text-anchor="middle" x="830.5" y="-255.2" font-family="Consolas" font-size="11.00">{SparseMatBaseMUMPS&lt; T &gt;</text>
<text text-anchor="start" x="749" y="-243.2" font-family="Consolas" font-size="11.00">|# h_mat</text>
<text text-anchor="start" x="749" y="-231.2" font-family="Consolas" font-size="11.00">|+ SparseMatBaseMUMPS()</text>
<text text-anchor="start" x="749" y="-219.2" font-family="Consolas" font-size="11.00">+ SparseMatBaseMUMPS()</text>
<text text-anchor="start" x="749" y="-207.2" font-family="Consolas" font-size="11.00">+ SparseMatBaseMUMPS()</text>
<text text-anchor="start" x="749" y="-195.2" font-family="Consolas" font-size="11.00">+ operator=()</text>
<text text-anchor="start" x="749" y="-183.2" font-family="Consolas" font-size="11.00">+ operator=()</text>
<text text-anchor="start" x="749" y="-171.2" font-family="Consolas" font-size="11.00">+ ~SparseMatBaseMUMPS()</text>
<text text-anchor="start" x="749" y="-159.2" font-family="Consolas" font-size="11.00">+ zeros()</text>
<text text-anchor="start" x="749" y="-147.2" font-family="Consolas" font-size="11.00">+ sign_det()</text>
<text text-anchor="start" x="749" y="-135.2" font-family="Consolas" font-size="11.00"># direct_solve()</text>
<text text-anchor="start" x="749" y="-123.2" font-family="Consolas" font-size="11.00"># direct_solve()</text>
<text text-anchor="middle" x="830.5" y="-111.2" font-family="Consolas" font-size="11.00">}</text>
</a>
</g>
</g>
<!-- Node8&#45;&gt;Node9 -->
<g id="edge8" class="edge">
<title>Node8&#45;&gt;Node9</title>
<path fill="none" stroke="#63b8ff" d="M830.5,-317.63C830.5,-301.13 830.5,-284.16 830.5,-268.13"/>
<polygon fill="none" stroke="#63b8ff" points="827,-317.83 830.5,-327.83 834,-317.83 827,-317.83"/>
</g>
<!-- Node12 -->
<g id="node12" class="node">
<title>Node12</title>
<g id="a_node12"><a xlink:href="../../d9/d76/class_sparse_mat_super_l_u.html" target="_top" xlink:title="A SparseMatSuperLU class that holds matrices.">
<polygon fill="white" stroke="#666666" points="1103,-262 938,-262 938,-110 1103,-110 1103,-262"/>
<text text-anchor="middle" x="1020.5" y="-249.2" font-family="Consolas" font-size="11.00">{SparseMatSuperLU&lt; T &gt;</text>
<text text-anchor="start" x="946" y="-237.2" font-family="Consolas" font-size="11.00">||+ SparseMatSuperLU()</text>
<text text-anchor="start" x="946" y="-225.2" font-family="Consolas" font-size="11.00">+ SparseMatSuperLU()</text>
<text text-anchor="start" x="946" y="-213.2" font-family="Consolas" font-size="11.00">+ SparseMatSuperLU()</text>
<text text-anchor="start" x="946" y="-201.2" font-family="Consolas" font-size="11.00">+ operator=()</text>
<text text-anchor="start" x="946" y="-189.2" font-family="Consolas" font-size="11.00">+ operator=()</text>
<text text-anchor="start" x="946" y="-177.2" font-family="Consolas" font-size="11.00">+ ~SparseMatSuperLU()</text>
<text text-anchor="start" x="946" y="-165.2" font-family="Consolas" font-size="11.00">+ zeros()</text>
<text text-anchor="start" x="946" y="-153.2" font-family="Consolas" font-size="11.00">+ make_copy()</text>
<text text-anchor="start" x="946" y="-141.2" font-family="Consolas" font-size="11.00"># direct_solve()</text>
<text text-anchor="start" x="946" y="-129.2" font-family="Consolas" font-size="11.00"># direct_solve()</text>
<text text-anchor="middle" x="1020.5" y="-117.2" font-family="Consolas" font-size="11.00">}</text>
</a>
</g>
</g>
<!-- Node8&#45;&gt;Node12 -->
<g id="edge11" class="edge">
<title>Node8&#45;&gt;Node12</title>
<path fill="none" stroke="#63b8ff" d="M899.88,-331.75C918.84,-309 939.27,-284.48 957.83,-262.21"/>
<polygon fill="none" stroke="#63b8ff" points="896.95,-329.79 893.24,-339.71 902.33,-334.27 896.95,-329.79"/>
</g>
<!-- Node10 -->
<g id="node10" class="node">
<title>Node10</title>
<g id="a_node10"><a xlink:href="../../de/db9/class_sparse_mat_m_u_m_p_s.html" target="_top" xlink:title="A SparseMatMUMPS class that holds matrices.">
<polygon fill="white" stroke="#666666" points="814.5,-62 662.5,-62 662.5,-6 814.5,-6 814.5,-62"/>
<text text-anchor="middle" x="738.5" y="-49.2" font-family="Consolas" font-size="11.00">{SparseMatMUMPS&lt; T &gt;</text>
<text text-anchor="start" x="670.5" y="-37.2" font-family="Consolas" font-size="11.00">||+ SparseMatMUMPS()</text>
<text text-anchor="start" x="670.5" y="-25.2" font-family="Consolas" font-size="11.00">+ make_copy()</text>
<text text-anchor="middle" x="738.5" y="-13.2" font-family="Consolas" font-size="11.00">}</text>
</a>
</g>
</g>
<!-- Node9&#45;&gt;Node10 -->
<g id="edge9" class="edge">
<title>Node9&#45;&gt;Node10</title>
<path fill="none" stroke="#63b8ff" d="M775.36,-95.09C768.04,-83.16 761.04,-71.76 755.15,-62.15"/>
<polygon fill="none" stroke="#63b8ff" points="772.52,-97.16 780.73,-103.85 778.49,-93.5 772.52,-97.16"/>
</g>
<!-- Node11 -->
<g id="node11" class="node">
<title>Node11</title>
<g id="a_node11"><a xlink:href="../../d3/d28/class_sparse_symm_mat_m_u_m_p_s.html" target="_top" xlink:title=" ">
<polygon fill="white" stroke="#666666" points="1012,-68 833,-68 833,0 1012,0 1012,-68"/>
<text text-anchor="middle" x="922.5" y="-55.2" font-family="Consolas" font-size="11.00">{SparseSymmMatMUMPS&lt; T &gt;</text>
<text text-anchor="start" x="841" y="-43.2" font-family="Consolas" font-size="11.00">||+ SparseSymmMatMUMPS()</text>
<text text-anchor="start" x="841" y="-31.2" font-family="Consolas" font-size="11.00">+ make_copy()</text>
<text text-anchor="start" x="841" y="-19.2" font-family="Consolas" font-size="11.00"># direct_solve()</text>
<text text-anchor="middle" x="922.5" y="-7.2" font-family="Consolas" font-size="11.00">}</text>
</a>
</g>
</g>
<!-- Node9&#45;&gt;Node11 -->
<g id="edge10" class="edge">
<title>Node9&#45;&gt;Node11</title>
<path fill="none" stroke="#63b8ff" d="M885.65,-95.08C891.46,-85.6 897.07,-76.46 902.09,-68.28"/>
<polygon fill="none" stroke="#63b8ff" points="882.51,-93.5 880.27,-103.85 888.48,-97.16 882.51,-93.5"/>
</g>
</g>
</svg>
        <g id="navigator" transform="translate(0 0)" fill="#404254">
                <rect fill="#f2f5e9" fill-opacity="0.5" stroke="#606060" stroke-width=".5" x="0" y="0" width="60" height="60"/>
                <use id="zoomplus" xlink:href="#zoomPlus" x="17" y="9" onmousedown="handleZoom(evt,'in')"/>
                <use id="zoomminus" xlink:href="#zoomMin" x="42" y="9" onmousedown="handleZoom(evt,'out')"/>
                <use id="reset" xlink:href="#resetDef" x="30" y="36" onmousedown="handleReset()"/>
                <g id="arrowUp" xlink:href="#dirArrow" transform="translate(30 24)" onmousedown="handlePan(0,-1)">
                  <use xlink:href="#rim" fill="#404040">
                        <set attributeName="fill" to="#808080" begin="arrowUp.mouseover" end="arrowUp.mouseout"/>
                  </use>
                  <path fill="none" stroke="white" stroke-width="1.5" d="M0,-3.0v7 M-2.5,-0.5L0,-3.0L2.5,-0.5"/>
                </g>
                <g id="arrowRight" xlink:href="#dirArrow" transform="rotate(90) translate(36 -43)" onmousedown="handlePan(1,0)">
                  <use xlink:href="#rim" fill="#404040">
                        <set attributeName="fill" to="#808080" begin="arrowRight.mouseover" end="arrowRight.mouseout"/>
                  </use>
                  <path fill="none" stroke="white" stroke-width="1.5" d="M0,-3.0v7 M-2.5,-0.5L0,-3.0L2.5,-0.5"/>
                </g>
                <g id="arrowDown" xlink:href="#dirArrow" transform="rotate(180) translate(-30 -48)" onmousedown="handlePan(0,1)">
                  <use xlink:href="#rim" fill="#404040">
                        <set attributeName="fill" to="#808080" begin="arrowDown.mouseover" end="arrowDown.mouseout"/>
                  </use>
                  <path fill="none" stroke="white" stroke-width="1.5" d="M0,-3.0v7 M-2.5,-0.5L0,-3.0L2.5,-0.5"/>
                </g>
                <g id="arrowLeft" xlink:href="#dirArrow" transform="rotate(270) translate(-36 17)" onmousedown="handlePan(-1,0)">
                  <use xlink:href="#rim" fill="#404040">
                        <set attributeName="fill" to="#808080" begin="arrowLeft.mouseover" end="arrowLeft.mouseout"/>
                  </use>
                  <path fill="none" stroke="white" stroke-width="1.5" d="M0,-3.0v7 M-2.5,-0.5L0,-3.0L2.5,-0.5"/>
                </g>
        </g>
        <svg viewBox="0 0 15 15" width="100%" height="30px" preserveAspectRatio="xMaxYMin meet">
         <g id="arrow_out" transform="scale(0.3 0.3)">
          <a xlink:href="class_meta_mat__inherit__graph_org.svg" target="_base">
           <rect id="button" ry="5" rx="5" y="6" x="6" height="38" width="38"
                fill="#f2f5e9" fill-opacity="0.5" stroke="#606060" stroke-width="1.0"/>
           <path id="arrow"
             d="M 11.500037,31.436501 C 11.940474,20.09759 22.043105,11.32322 32.158766,21.979434 L 37.068811,17.246167 C 37.068811,17.246167 37.088388,32 37.088388,32 L 22.160133,31.978069 C 22.160133,31.978069 26.997745,27.140456 26.997745,27.140456 C 18.528582,18.264221 13.291696,25.230495 11.500037,31.436501 z"
             style="fill:#404040;"/>
          </a>
         </g>
        </svg>
</svg>
