<?xml version="1.0" encoding="UTF-8" standalone="no"?>
<!DOCTYPE svg PUBLIC "-//W3C//DTD SVG 1.1//EN"
 "http://www.w3.org/Graphics/SVG/1.1/DTD/svg11.dtd">
<!-- Generated by graphviz version 2.43.0 (0)
 -->
<!-- Title: Step::set_time_left Pages: 1 -->
<svg width="508pt" height="85pt"
 viewBox="0.00 0.00 508.00 85.00" xmlns="http://www.w3.org/2000/svg" xmlns:xlink="http://www.w3.org/1999/xlink">
<g id="graph0" class="graph" transform="scale(1 1) rotate(0) translate(4 81)">
<title>Step::set_time_left</title>
<!-- Node1 -->
<g id="Node000001" class="node">
<title>Node1</title>
<g id="a_Node000001"><a xlink:title=" ">
<polygon fill="#999999" stroke="#666666" points="500,-58 355,-58 355,-38 500,-38 500,-58"/>
<text text-anchor="middle" x="427.5" y="-45.2" font-family="Consolas" font-size="11.00">Step::set_time_left</text>
</a>
</g>
</g>
<!-- Node2 -->
<g id="Node000002" class="node">
<title>Node2</title>
<g id="a_Node000002"><a xlink:href="../../db/d7f/class_dynamic.html#a4a7ac7a0158b86ee83529656bb9a8a1e" target="_top" xlink:title=" ">
<polygon fill="white" stroke="#666666" points="319,-77 194,-77 194,-57 319,-57 319,-77"/>
<text text-anchor="middle" x="256.5" y="-64.2" font-family="Consolas" font-size="11.00">Dynamic::analyze</text>
</a>
</g>
</g>
<!-- Node1&#45;&gt;Node2 -->
<g id="edge1_Node000001_Node000002" class="edge">
<title>Node1&#45;&gt;Node2</title>
<g id="a_edge1_Node000001_Node000002"><a xlink:title=" ">
<path fill="none" stroke="#63b8ff" d="M344.75,-57.19C336.13,-58.16 327.47,-59.13 319.13,-60.07"/>
<polygon fill="#63b8ff" stroke="#63b8ff" points="345.28,-60.65 354.83,-56.06 344.5,-53.7 345.28,-60.65"/>
</a>
</g>
</g>
<!-- Node3 -->
<g id="Node000003" class="node">
<title>Node3</title>
<g id="a_Node000003"><a xlink:href="../../d4/daf/class_static.html#ac94bdc24475e5b8dcfe86152ea2a6184" target="_top" xlink:title=" ">
<polygon fill="white" stroke="#666666" points="315.5,-39 197.5,-39 197.5,-19 315.5,-19 315.5,-39"/>
<text text-anchor="middle" x="256.5" y="-26.2" font-family="Consolas" font-size="11.00">Static::analyze</text>
</a>
</g>
</g>
<!-- Node1&#45;&gt;Node3 -->
<g id="edge2_Node000001_Node000003" class="edge">
<title>Node1&#45;&gt;Node3</title>
<g id="a_edge2_Node000001_Node000003"><a xlink:title=" ">
<path fill="none" stroke="#63b8ff" d="M344.68,-38.8C334.9,-37.7 325.07,-36.6 315.72,-35.55"/>
<polygon fill="#63b8ff" stroke="#63b8ff" points="344.5,-42.3 354.83,-39.94 345.28,-35.35 344.5,-42.3"/>
</a>
</g>
</g>
<!-- Node4 -->
<g id="Node000004" class="node">
<title>Node4</title>
<g id="a_Node000004"><a xlink:href="../../d3/d86/class_buckle.html#ac92dafd820ed83b823f386286ab6fb26" target="_top" xlink:title=" ">
<polygon fill="white" stroke="#666666" points="138,-58 20,-58 20,-38 138,-38 138,-58"/>
<text text-anchor="middle" x="79" y="-45.2" font-family="Consolas" font-size="11.00">Buckle::analyze</text>
</a>
</g>
</g>
<!-- Node3&#45;&gt;Node4 -->
<g id="edge3_Node000003_Node000004" class="edge">
<title>Node3&#45;&gt;Node4</title>
<g id="a_edge3_Node000003_Node000004"><a xlink:title=" ">
<path fill="none" stroke="#63b8ff" d="M186.67,-36.45C170.63,-38.19 153.71,-40.02 138.18,-41.7"/>
<polygon fill="#63b8ff" stroke="#63b8ff" points="187.5,-39.88 197.06,-35.33 186.74,-32.92 187.5,-39.88"/>
</a>
</g>
</g>
<!-- Node5 -->
<g id="Node000005" class="node">
<title>Node5</title>
<g id="a_Node000005"><a xlink:href="../../d4/df8/class_optimization.html#a6ace7f3f206ad3a277279756b7459f9a" target="_top" xlink:title=" ">
<polygon fill="white" stroke="#666666" points="158,-20 0,-20 0,0 158,0 158,-20"/>
<text text-anchor="middle" x="79" y="-7.2" font-family="Consolas" font-size="11.00">Optimization::analyze</text>
</a>
</g>
</g>
<!-- Node3&#45;&gt;Node5 -->
<g id="edge4_Node000003_Node000005" class="edge">
<title>Node3&#45;&gt;Node5</title>
<g id="a_edge4_Node000003_Node000005"><a xlink:title=" ">
<path fill="none" stroke="#63b8ff" d="M186.96,-21.58C177.52,-20.56 167.77,-19.5 158.17,-18.46"/>
<polygon fill="#63b8ff" stroke="#63b8ff" points="186.74,-25.08 197.06,-22.67 187.5,-18.12 186.74,-25.08"/>
</a>
</g>
</g>
</g>
</svg>
