<?xml version="1.0" encoding="UTF-8" standalone="no"?>
<!DOCTYPE svg PUBLIC "-//W3C//DTD SVG 1.1//EN"
 "http://www.w3.org/Graphics/SVG/1.1/DTD/svg11.dtd">
<!-- Generated by graphviz version 2.43.0 (0)
 -->
<!-- Title: Newmark Pages: 1 -->
<!--zoomable 1503 -->
<svg id="main" version="1.1" xmlns="http://www.w3.org/2000/svg" xmlns:xlink="http://www.w3.org/1999/xlink" xml:space="preserve" onload="init(evt)">
<style type="text/css"><![CDATA[
.edge:hover path { stroke: red; }
.edge:hover polygon { stroke: red; fill: red; }
]]></style>
<script type="text/javascript"><![CDATA[
var edges = document.getElementsByTagName('g');
if (edges && edges.length) {
  for (var i=0;i<edges.length;i++) {
    if (edges[i].id.substr(0,4)=='edge') {
      edges[i].setAttribute('class','edge');
    }
  }
}
]]></script>
        <defs>
                <circle id="rim" cx="0" cy="0" r="7"/>
                <circle id="rim2" cx="0" cy="0" r="3.5"/>
                <g id="zoomPlus">
                        <use xlink:href="#rim" fill="#404040">
                                <set attributeName="fill" to="#808080" begin="zoomplus.mouseover" end="zoomplus.mouseout"/>
                        </use>
                        <path d="M-4,0h8M0,-4v8" fill="none" stroke="white" stroke-width="1.5" pointer-events="none"/>
                </g>
                <g id="zoomMin">
                        <use xlink:href="#rim" fill="#404040">
                                <set attributeName="fill" to="#808080" begin="zoomminus.mouseover" end="zoomminus.mouseout"/>
                        </use>
                        <path d="M-4,0h8" fill="none" stroke="white" stroke-width="1.5" pointer-events="none"/>
                </g>
                <g id="dirArrow">
                        <path fill="none" stroke="white" stroke-width="1.5" d="M0,-3.0v7 M-2.5,-0.5L0,-3.0L2.5,-0.5"/>
                </g>
               <g id="resetDef">
                       <use xlink:href="#rim2" fill="#404040">
                               <set attributeName="fill" to="#808080" begin="reset.mouseover" end="reset.mouseout"/>
                       </use>
               </g>
        </defs>

<script type="text/javascript">
var viewWidth = 1061;
var viewHeight = 1503;
var sectionId = 'dynsection-0';
</script>
<script xlink:href="../../svgpan.js"/>
<svg id="graph" class="graph">
<g id="viewport">
<title>Newmark</title>
<polygon fill="white" stroke="transparent" points="-4,4 -4,-1499 1056.5,-1499 1056.5,4 -4,4"/>
<!-- Node1 -->
<g id="node1" class="node">
<title>Node1</title>
<g id="a_node1"><a xlink:title="A Newmark class defines a solver using Newmark algorithm.">
<polygon fill="#bfbfbf" stroke="black" points="479.5,-663.5 479.5,-867.5 678.5,-867.5 678.5,-663.5 479.5,-663.5"/>
<text text-anchor="middle" x="579" y="-854.7" font-family="Consolas" font-size="11.00">Newmark</text>
<polyline fill="none" stroke="black" points="479.5,-847.5 678.5,-847.5 "/>
<text text-anchor="start" x="487.5" y="-834.7" font-family="Consolas" font-size="11.00"># C0</text>
<text text-anchor="start" x="487.5" y="-822.7" font-family="Consolas" font-size="11.00"># C1</text>
<text text-anchor="start" x="487.5" y="-810.7" font-family="Consolas" font-size="11.00"># C2</text>
<text text-anchor="start" x="487.5" y="-798.7" font-family="Consolas" font-size="11.00"># C3</text>
<text text-anchor="start" x="487.5" y="-786.7" font-family="Consolas" font-size="11.00"># C4</text>
<text text-anchor="start" x="487.5" y="-774.7" font-family="Consolas" font-size="11.00"># C5</text>
<polyline fill="none" stroke="black" points="479.5,-767.5 678.5,-767.5 "/>
<text text-anchor="start" x="487.5" y="-754.7" font-family="Consolas" font-size="11.00">+ Newmark()</text>
<text text-anchor="start" x="487.5" y="-742.7" font-family="Consolas" font-size="11.00">+ assemble_resistance()</text>
<text text-anchor="start" x="487.5" y="-730.7" font-family="Consolas" font-size="11.00">+ assemble_matrix()</text>
<text text-anchor="start" x="487.5" y="-718.7" font-family="Consolas" font-size="11.00">+ update_trial_status()</text>
<text text-anchor="start" x="487.5" y="-706.7" font-family="Consolas" font-size="11.00">+ update_parameter()</text>
<text text-anchor="start" x="487.5" y="-694.7" font-family="Consolas" font-size="11.00">+ from_incre_velocity()</text>
<text text-anchor="start" x="487.5" y="-682.7" font-family="Consolas" font-size="11.00">+ from_incre_acceleration()</text>
<text text-anchor="start" x="487.5" y="-670.7" font-family="Consolas" font-size="11.00">+ print()</text>
</a>
</g>
</g>
<!-- Node5 -->
<g id="node5" class="node">
<title>Node5</title>
<g id="a_node5"><a xlink:href="../../d2/d22/class_lee_newmark_base.html" target="_top" xlink:title="A LeeNewmarkBase class defines a solver using Newmark algorithm with Lee damping model.">
<polygon fill="white" stroke="black" points="73,-290.5 73,-626.5 285,-626.5 285,-290.5 73,-290.5"/>
<text text-anchor="middle" x="179" y="-613.7" font-family="Consolas" font-size="11.00">LeeNewmarkBase</text>
<polyline fill="none" stroke="black" points="73,-606.5 285,-606.5 "/>
<text text-anchor="start" x="81" y="-593.7" font-family="Consolas" font-size="11.00"># n_block</text>
<text text-anchor="start" x="81" y="-581.7" font-family="Consolas" font-size="11.00"># stiffness_type</text>
<text text-anchor="start" x="81" y="-569.7" font-family="Consolas" font-size="11.00"># first_iteration</text>
<text text-anchor="start" x="81" y="-557.7" font-family="Consolas" font-size="11.00"># if_iterative</text>
<text text-anchor="start" x="81" y="-545.7" font-family="Consolas" font-size="11.00"># current_internal</text>
<text text-anchor="start" x="81" y="-533.7" font-family="Consolas" font-size="11.00"># trial_internal</text>
<text text-anchor="start" x="81" y="-521.7" font-family="Consolas" font-size="11.00"># residual</text>
<text text-anchor="start" x="81" y="-509.7" font-family="Consolas" font-size="11.00"># stiffness</text>
<text text-anchor="start" x="81" y="-497.7" font-family="Consolas" font-size="11.00"># factory</text>
<polyline fill="none" stroke="black" points="73,-490.5 285,-490.5 "/>
<text text-anchor="start" x="81" y="-477.7" font-family="Consolas" font-size="11.00">+ LeeNewmarkBase()</text>
<text text-anchor="start" x="81" y="-465.7" font-family="Consolas" font-size="11.00">+ initialize()</text>
<text text-anchor="start" x="81" y="-453.7" font-family="Consolas" font-size="11.00">+ update_internal()</text>
<text text-anchor="start" x="81" y="-441.7" font-family="Consolas" font-size="11.00">+ solve()</text>
<text text-anchor="start" x="81" y="-429.7" font-family="Consolas" font-size="11.00">+ solve()</text>
<text text-anchor="start" x="81" y="-417.7" font-family="Consolas" font-size="11.00">+ solve()</text>
<text text-anchor="start" x="81" y="-405.7" font-family="Consolas" font-size="11.00">+ solve()</text>
<text text-anchor="start" x="81" y="-393.7" font-family="Consolas" font-size="11.00">+ get_force_residual()</text>
<text text-anchor="start" x="81" y="-381.7" font-family="Consolas" font-size="11.00">+ get_displacement_residual()</text>
<text text-anchor="start" x="81" y="-369.7" font-family="Consolas" font-size="11.00">+ commit_status()</text>
<text text-anchor="start" x="81" y="-357.7" font-family="Consolas" font-size="11.00">+ clear_status()</text>
<text text-anchor="start" x="81" y="-345.7" font-family="Consolas" font-size="11.00">+ reset_status()</text>
<text text-anchor="start" x="81" y="-333.7" font-family="Consolas" font-size="11.00"># get_total_size()</text>
<text text-anchor="start" x="81" y="-321.7" font-family="Consolas" font-size="11.00"># update_stiffness()</text>
<text text-anchor="start" x="81" y="-309.7" font-family="Consolas" font-size="11.00"># update_residual()</text>
<text text-anchor="start" x="81" y="-297.7" font-family="Consolas" font-size="11.00"># erase_top_left_block()</text>
</a>
</g>
</g>
<!-- Node1&#45;&gt;Node5 -->
<g id="edge4" class="edge">
<title>Node1&#45;&gt;Node5</title>
<path fill="none" stroke="midnightblue" d="M469.87,-727.44C413.23,-704.55 345.33,-671.06 294,-627 291.06,-624.47 288.15,-621.85 285.29,-619.15"/>
<polygon fill="none" stroke="midnightblue" points="468.64,-730.72 479.22,-731.17 471.23,-724.21 468.64,-730.72"/>
</g>
<!-- Node9 -->
<g id="node9" class="node">
<title>Node9</title>
<g id="a_node9"><a xlink:href="../../d0/d6e/class_lee_newmark_iterative.html" target="_top" xlink:title="A LeeNewmarkIterative class defines a solver using Newmark algorithm with Lee damping model.">
<polygon fill="white" stroke="black" points="303,-392.5 303,-524.5 475,-524.5 475,-392.5 303,-392.5"/>
<text text-anchor="middle" x="389" y="-511.7" font-family="Consolas" font-size="11.00">LeeNewmarkIterative</text>
<polyline fill="none" stroke="black" points="303,-504.5 475,-504.5 "/>
<text text-anchor="middle" x="389" y="-491.7" font-family="Consolas" font-size="11.00"> </text>
<polyline fill="none" stroke="black" points="303,-484.5 475,-484.5 "/>
<text text-anchor="start" x="311" y="-471.7" font-family="Consolas" font-size="11.00">+ LeeNewmarkIterative()</text>
<text text-anchor="start" x="311" y="-459.7" font-family="Consolas" font-size="11.00">+ initialize()</text>
<text text-anchor="start" x="311" y="-447.7" font-family="Consolas" font-size="11.00">+ process_constraint()</text>
<text text-anchor="start" x="311" y="-435.7" font-family="Consolas" font-size="11.00">+ process_constraint</text>
<text text-anchor="start" x="311" y="-423.7" font-family="Consolas" font-size="11.00">_resistance()</text>
<text text-anchor="start" x="311" y="-411.7" font-family="Consolas" font-size="11.00">+ assemble_matrix()</text>
<text text-anchor="start" x="311" y="-399.7" font-family="Consolas" font-size="11.00">+ print()</text>
</a>
</g>
</g>
<!-- Node1&#45;&gt;Node9 -->
<g id="edge8" class="edge">
<title>Node1&#45;&gt;Node9</title>
<path fill="none" stroke="midnightblue" d="M501.97,-654.85C495.79,-645.5 489.73,-636.13 484,-627 463.21,-593.87 441.58,-556.03 424.22,-524.71"/>
<polygon fill="none" stroke="midnightblue" points="499.22,-657.04 507.68,-663.43 505.05,-653.17 499.22,-657.04"/>
</g>
<!-- Node10 -->
<g id="node10" class="node">
<title>Node10</title>
<g id="a_node10"><a xlink:href="../../d9/d75/class_nonviscous_newmark.html" target="_top" xlink:title="A NonviscousNewmark class defines a solver using Newmark algorithm.">
<polygon fill="white" stroke="black" points="493,-386.5 493,-530.5 665,-530.5 665,-386.5 493,-386.5"/>
<text text-anchor="middle" x="579" y="-517.7" font-family="Consolas" font-size="11.00">NonviscousNewmark</text>
<polyline fill="none" stroke="black" points="493,-510.5 665,-510.5 "/>
<text text-anchor="middle" x="579" y="-497.7" font-family="Consolas" font-size="11.00"> </text>
<polyline fill="none" stroke="black" points="493,-490.5 665,-490.5 "/>
<text text-anchor="start" x="501" y="-477.7" font-family="Consolas" font-size="11.00">+ NonviscousNewmark()</text>
<text text-anchor="start" x="501" y="-465.7" font-family="Consolas" font-size="11.00">+ initialize()</text>
<text text-anchor="start" x="501" y="-453.7" font-family="Consolas" font-size="11.00">+ assemble_resistance()</text>
<text text-anchor="start" x="501" y="-441.7" font-family="Consolas" font-size="11.00">+ assemble_matrix()</text>
<text text-anchor="start" x="501" y="-429.7" font-family="Consolas" font-size="11.00">+ update_parameter()</text>
<text text-anchor="start" x="501" y="-417.7" font-family="Consolas" font-size="11.00">+ commit_status()</text>
<text text-anchor="start" x="501" y="-405.7" font-family="Consolas" font-size="11.00">+ clear_status()</text>
<text text-anchor="start" x="501" y="-393.7" font-family="Consolas" font-size="11.00">+ print()</text>
</a>
</g>
</g>
<!-- Node1&#45;&gt;Node10 -->
<g id="edge9" class="edge">
<title>Node1&#45;&gt;Node10</title>
<path fill="none" stroke="midnightblue" d="M579,-653.35C579,-612.51 579,-567.39 579,-530.96"/>
<polygon fill="none" stroke="midnightblue" points="575.5,-653.36 579,-663.36 582.5,-653.36 575.5,-653.36"/>
</g>
<!-- Node11 -->
<g id="node11" class="node">
<title>Node11</title>
<g id="a_node11"><a xlink:href="../../d6/d6d/class_rayleigh_newmark.html" target="_top" xlink:title="A RayleighNewmark class defines a solver using Newmark algorithm with Rayleigh damping model.">
<polygon fill="white" stroke="black" points="683,-422.5 683,-494.5 855,-494.5 855,-422.5 683,-422.5"/>
<text text-anchor="middle" x="769" y="-481.7" font-family="Consolas" font-size="11.00">RayleighNewmark</text>
<polyline fill="none" stroke="black" points="683,-474.5 855,-474.5 "/>
<text text-anchor="middle" x="769" y="-461.7" font-family="Consolas" font-size="11.00"> </text>
<polyline fill="none" stroke="black" points="683,-454.5 855,-454.5 "/>
<text text-anchor="start" x="691" y="-441.7" font-family="Consolas" font-size="11.00">+ RayleighNewmark()</text>
<text text-anchor="start" x="691" y="-429.7" font-family="Consolas" font-size="11.00">+ assemble_resistance()</text>
</a>
</g>
</g>
<!-- Node1&#45;&gt;Node11 -->
<g id="edge10" class="edge">
<title>Node1&#45;&gt;Node11</title>
<path fill="none" stroke="midnightblue" d="M656.03,-654.85C662.21,-645.5 668.27,-636.13 674,-627 702.07,-582.25 731.68,-528.94 750.23,-494.67"/>
<polygon fill="none" stroke="midnightblue" points="652.95,-653.17 650.32,-663.43 658.78,-657.04 652.95,-653.17"/>
</g>
<!-- Node12 -->
<g id="node12" class="node">
<title>Node12</title>
<g id="a_node12"><a xlink:href="../../d8/d75/class_wilson_penzien_newmark.html" target="_top" xlink:title="A WilsonPenzienNewmark class defines a solver using Newmark algorithm with Wilson&#45;Penzien damping mod...">
<polygon fill="white" stroke="black" points="873.5,-356.5 873.5,-560.5 1052.5,-560.5 1052.5,-356.5 873.5,-356.5"/>
<text text-anchor="middle" x="963" y="-547.7" font-family="Consolas" font-size="11.00">WilsonPenzienNewmark</text>
<polyline fill="none" stroke="black" points="873.5,-540.5 1052.5,-540.5 "/>
<text text-anchor="middle" x="963" y="-527.7" font-family="Consolas" font-size="11.00"> </text>
<polyline fill="none" stroke="black" points="873.5,-520.5 1052.5,-520.5 "/>
<text text-anchor="start" x="881.5" y="-507.7" font-family="Consolas" font-size="11.00">+ WilsonPenzienNewmark()</text>
<text text-anchor="start" x="881.5" y="-495.7" font-family="Consolas" font-size="11.00">+ initialize()</text>
<text text-anchor="start" x="881.5" y="-483.7" font-family="Consolas" font-size="11.00">+ process_constraint()</text>
<text text-anchor="start" x="881.5" y="-471.7" font-family="Consolas" font-size="11.00">+ solve()</text>
<text text-anchor="start" x="881.5" y="-459.7" font-family="Consolas" font-size="11.00">+ solve()</text>
<text text-anchor="start" x="881.5" y="-447.7" font-family="Consolas" font-size="11.00">+ solve()</text>
<text text-anchor="start" x="881.5" y="-435.7" font-family="Consolas" font-size="11.00">+ solve()</text>
<text text-anchor="start" x="881.5" y="-423.7" font-family="Consolas" font-size="11.00">+ commit_status()</text>
<text text-anchor="start" x="881.5" y="-411.7" font-family="Consolas" font-size="11.00">+ clear_status()</text>
<text text-anchor="start" x="881.5" y="-399.7" font-family="Consolas" font-size="11.00">+ reset_status()</text>
<text text-anchor="start" x="881.5" y="-387.7" font-family="Consolas" font-size="11.00">+ assemble_resistance()</text>
<text text-anchor="start" x="881.5" y="-375.7" font-family="Consolas" font-size="11.00">+ assemble_matrix()</text>
<text text-anchor="start" x="881.5" y="-363.7" font-family="Consolas" font-size="11.00">+ print()</text>
</a>
</g>
</g>
<!-- Node1&#45;&gt;Node12 -->
<g id="edge11" class="edge">
<title>Node1&#45;&gt;Node12</title>
<path fill="none" stroke="midnightblue" d="M688.05,-729.35C745.31,-706.85 813.81,-673.13 864,-627 884.27,-608.37 901.67,-584.63 915.97,-560.91"/>
<polygon fill="none" stroke="midnightblue" points="686.66,-726.13 678.59,-733 689.18,-732.66 686.66,-726.13"/>
</g>
<!-- Node2 -->
<g id="node2" class="node">
<title>Node2</title>
<g id="a_node2"><a xlink:href="../../d2/df8/class_implicit_integrator.html" target="_top" xlink:title=" ">
<polygon fill="white" stroke="black" points="479.5,-904.5 479.5,-1012.5 678.5,-1012.5 678.5,-904.5 479.5,-904.5"/>
<text text-anchor="middle" x="579" y="-999.7" font-family="Consolas" font-size="11.00">ImplicitIntegrator</text>
<polyline fill="none" stroke="black" points="479.5,-992.5 678.5,-992.5 "/>
<text text-anchor="middle" x="579" y="-979.7" font-family="Consolas" font-size="11.00"> </text>
<polyline fill="none" stroke="black" points="479.5,-972.5 678.5,-972.5 "/>
<text text-anchor="start" x="487.5" y="-959.7" font-family="Consolas" font-size="11.00">+ type()</text>
<text text-anchor="start" x="487.5" y="-947.7" font-family="Consolas" font-size="11.00">+ time_independent_matrix()</text>
<text text-anchor="start" x="487.5" y="-935.7" font-family="Consolas" font-size="11.00">+ Integrator()</text>
<text text-anchor="start" x="487.5" y="-923.7" font-family="Consolas" font-size="11.00">+ Integrator()</text>
<text text-anchor="start" x="487.5" y="-911.7" font-family="Consolas" font-size="11.00">+ Integrator()</text>
</a>
</g>
</g>
<!-- Node2&#45;&gt;Node1 -->
<g id="edge1" class="edge">
<title>Node2&#45;&gt;Node1</title>
<path fill="none" stroke="midnightblue" d="M579,-894.11C579,-885.58 579,-876.66 579,-867.68"/>
<polygon fill="none" stroke="midnightblue" points="575.5,-894.3 579,-904.3 582.5,-894.3 575.5,-894.3"/>
</g>
<!-- Node3 -->
<g id="node3" class="node">
<title>Node3</title>
<g id="a_node3"><a xlink:href="../../d6/d55/class_integrator.html" target="_top" xlink:title="The Integrator class is basically a wrapper of the DomainBase class with regard to some status changi...">
<polygon fill="white" stroke="black" points="520,-1049.5 520,-1229.5 638,-1229.5 638,-1049.5 520,-1049.5"/>
<text text-anchor="middle" x="579" y="-1216.7" font-family="Consolas" font-size="11.00">Integrator</text>
<polyline fill="none" stroke="black" points="520,-1209.5 638,-1209.5 "/>
<text text-anchor="middle" x="579" y="-1196.7" font-family="Consolas" font-size="11.00"> </text>
<polyline fill="none" stroke="black" points="520,-1189.5 638,-1189.5 "/>
<text text-anchor="start" x="528" y="-1176.7" font-family="Consolas" font-size="11.00">+ Integrator()</text>
<text text-anchor="start" x="528" y="-1164.7" font-family="Consolas" font-size="11.00">+ Integrator()</text>
<text text-anchor="start" x="528" y="-1152.7" font-family="Consolas" font-size="11.00">+ Integrator()</text>
<text text-anchor="start" x="528" y="-1140.7" font-family="Consolas" font-size="11.00">+ operator=()</text>
<text text-anchor="start" x="528" y="-1128.7" font-family="Consolas" font-size="11.00">+ operator=()</text>
<text text-anchor="start" x="528" y="-1116.7" font-family="Consolas" font-size="11.00">+ ~Integrator()</text>
<text text-anchor="start" x="528" y="-1104.7" font-family="Consolas" font-size="11.00">+ set_domain()</text>
<text text-anchor="start" x="528" y="-1092.7" font-family="Consolas" font-size="11.00">+ get_domain()</text>
<text text-anchor="start" x="528" y="-1080.7" font-family="Consolas" font-size="11.00">+ initialize()</text>
<text text-anchor="start" x="528" y="-1068.7" font-family="Consolas" font-size="11.00">+ type()</text>
<text text-anchor="start" x="528" y="-1056.7" font-family="Consolas" font-size="11.00">and 54 more...</text>
</a>
</g>
</g>
<!-- Node3&#45;&gt;Node2 -->
<g id="edge2" class="edge">
<title>Node3&#45;&gt;Node2</title>
<path fill="none" stroke="midnightblue" d="M579,-1039.08C579,-1030.09 579,-1021.24 579,-1012.9"/>
<polygon fill="none" stroke="midnightblue" points="575.5,-1039.26 579,-1049.26 582.5,-1039.26 575.5,-1039.26"/>
</g>
<!-- Node4 -->
<g id="node4" class="node">
<title>Node4</title>
<g id="a_node4"><a xlink:href="../../d0/d57/class_tag.html" target="_top" xlink:title="A base Tag class.">
<polygon fill="white" stroke="black" points="523.5,-1266.5 523.5,-1494.5 634.5,-1494.5 634.5,-1266.5 523.5,-1266.5"/>
<text text-anchor="middle" x="579" y="-1481.7" font-family="Consolas" font-size="11.00">Tag</text>
<polyline fill="none" stroke="black" points="523.5,-1474.5 634.5,-1474.5 "/>
<text text-anchor="middle" x="579" y="-1461.7" font-family="Consolas" font-size="11.00"> </text>
<polyline fill="none" stroke="black" points="523.5,-1454.5 634.5,-1454.5 "/>
<text text-anchor="start" x="531.5" y="-1441.7" font-family="Consolas" font-size="11.00">+ Tag()</text>
<text text-anchor="start" x="531.5" y="-1429.7" font-family="Consolas" font-size="11.00">+ Tag()</text>
<text text-anchor="start" x="531.5" y="-1417.7" font-family="Consolas" font-size="11.00">+ Tag()</text>
<text text-anchor="start" x="531.5" y="-1405.7" font-family="Consolas" font-size="11.00">+ operator=()</text>
<text text-anchor="start" x="531.5" y="-1393.7" font-family="Consolas" font-size="11.00">+ operator=()</text>
<text text-anchor="start" x="531.5" y="-1381.7" font-family="Consolas" font-size="11.00">+ ~Tag()</text>
<text text-anchor="start" x="531.5" y="-1369.7" font-family="Consolas" font-size="11.00">+ set_tag()</text>
<text text-anchor="start" x="531.5" y="-1357.7" font-family="Consolas" font-size="11.00">+ get_tag()</text>
<text text-anchor="start" x="531.5" y="-1345.7" font-family="Consolas" font-size="11.00">+ enable()</text>
<text text-anchor="start" x="531.5" y="-1333.7" font-family="Consolas" font-size="11.00">+ disable()</text>
<text text-anchor="start" x="531.5" y="-1321.7" font-family="Consolas" font-size="11.00">+ guard()</text>
<text text-anchor="start" x="531.5" y="-1309.7" font-family="Consolas" font-size="11.00">+ unguard()</text>
<text text-anchor="start" x="531.5" y="-1297.7" font-family="Consolas" font-size="11.00">+ is_active()</text>
<text text-anchor="start" x="531.5" y="-1285.7" font-family="Consolas" font-size="11.00">+ is_guarded()</text>
<text text-anchor="start" x="531.5" y="-1273.7" font-family="Consolas" font-size="11.00">+ print()</text>
</a>
</g>
</g>
<!-- Node4&#45;&gt;Node3 -->
<g id="edge3" class="edge">
<title>Node4&#45;&gt;Node3</title>
<path fill="none" stroke="midnightblue" d="M579,-1256.19C579,-1247.25 579,-1238.33 579,-1229.64"/>
<polygon fill="none" stroke="midnightblue" points="575.5,-1256.3 579,-1266.3 582.5,-1256.3 575.5,-1256.3"/>
</g>
<!-- Node6 -->
<g id="node6" class="node">
<title>Node6</title>
<g id="a_node6"><a xlink:href="../../d7/d28/class_lee_newmark.html" target="_top" xlink:title="A LeeNewmark class defines a solver using Newmark algorithm with Lee damping model.">
<polygon fill="white" stroke="black" points="0,-97.5 0,-253.5 172,-253.5 172,-97.5 0,-97.5"/>
<text text-anchor="middle" x="86" y="-240.7" font-family="Consolas" font-size="11.00">LeeNewmark</text>
<polyline fill="none" stroke="black" points="0,-233.5 172,-233.5 "/>
<text text-anchor="start" x="8" y="-220.7" font-family="Consolas" font-size="11.00"># current_mass</text>
<text text-anchor="start" x="8" y="-208.7" font-family="Consolas" font-size="11.00"># current_stiffness</text>
<text text-anchor="start" x="8" y="-196.7" font-family="Consolas" font-size="11.00"># current_geometry</text>
<polyline fill="none" stroke="black" points="0,-189.5 172,-189.5 "/>
<text text-anchor="start" x="8" y="-176.7" font-family="Consolas" font-size="11.00">+ LeeNewmark()</text>
<text text-anchor="start" x="8" y="-164.7" font-family="Consolas" font-size="11.00">+ initialize()</text>
<text text-anchor="start" x="8" y="-152.7" font-family="Consolas" font-size="11.00">+ process_constraint()</text>
<text text-anchor="start" x="8" y="-140.7" font-family="Consolas" font-size="11.00">+ process_constraint</text>
<text text-anchor="start" x="8" y="-128.7" font-family="Consolas" font-size="11.00">_resistance()</text>
<text text-anchor="start" x="8" y="-116.7" font-family="Consolas" font-size="11.00">+ assemble_resistance()</text>
<text text-anchor="start" x="8" y="-104.7" font-family="Consolas" font-size="11.00">+ print()</text>
</a>
</g>
</g>
<!-- Node5&#45;&gt;Node6 -->
<g id="edge5" class="edge">
<title>Node5&#45;&gt;Node6</title>
<path fill="none" stroke="midnightblue" d="M120.46,-280.61C117.38,-271.3 114.37,-262.22 111.5,-253.55"/>
<polygon fill="none" stroke="midnightblue" points="117.23,-281.99 123.69,-290.39 123.87,-279.8 117.23,-281.99"/>
</g>
<!-- Node8 -->
<g id="node8" class="node">
<title>Node8</title>
<g id="a_node8"><a xlink:href="../../d4/d3c/class_lee_newmark_full.html" target="_top" xlink:title="A LeeNewmarkFull class defines a solver using Newmark algorithm with Lee damping model.">
<polygon fill="white" stroke="black" points="190.5,-115.5 190.5,-235.5 355.5,-235.5 355.5,-115.5 190.5,-115.5"/>
<text text-anchor="middle" x="273" y="-222.7" font-family="Consolas" font-size="11.00">LeeNewmarkFull</text>
<polyline fill="none" stroke="black" points="190.5,-215.5 355.5,-215.5 "/>
<text text-anchor="middle" x="273" y="-202.7" font-family="Consolas" font-size="11.00"> </text>
<polyline fill="none" stroke="black" points="190.5,-195.5 355.5,-195.5 "/>
<text text-anchor="start" x="198.5" y="-182.7" font-family="Consolas" font-size="11.00">+ LeeNewmarkFull()</text>
<text text-anchor="start" x="198.5" y="-170.7" font-family="Consolas" font-size="11.00">+ initialize()</text>
<text text-anchor="start" x="198.5" y="-158.7" font-family="Consolas" font-size="11.00">+ process_constraint()</text>
<text text-anchor="start" x="198.5" y="-146.7" font-family="Consolas" font-size="11.00">+ process_constraint</text>
<text text-anchor="start" x="198.5" y="-134.7" font-family="Consolas" font-size="11.00">_resistance()</text>
<text text-anchor="start" x="198.5" y="-122.7" font-family="Consolas" font-size="11.00">+ print()</text>
</a>
</g>
</g>
<!-- Node5&#45;&gt;Node8 -->
<g id="edge7" class="edge">
<title>Node5&#45;&gt;Node8</title>
<path fill="none" stroke="midnightblue" d="M238.08,-280.88C243.44,-264.85 248.58,-249.5 253.19,-235.73"/>
<polygon fill="none" stroke="midnightblue" points="234.76,-279.79 234.9,-290.39 241.39,-282.02 234.76,-279.79"/>
</g>
<!-- Node7 -->
<g id="node7" class="node">
<title>Node7</title>
<g id="a_node7"><a xlink:href="../../d7/de2/class_lee_elemental_newmark.html" target="_top" xlink:title=" ">
<polygon fill="white" stroke="black" points="13.5,-0.5 13.5,-60.5 158.5,-60.5 158.5,-0.5 13.5,-0.5"/>
<text text-anchor="middle" x="86" y="-47.7" font-family="Consolas" font-size="11.00">LeeElementalNewmark</text>
<polyline fill="none" stroke="black" points="13.5,-40.5 158.5,-40.5 "/>
<text text-anchor="middle" x="86" y="-27.7" font-family="Consolas" font-size="11.00"> </text>
<polyline fill="none" stroke="black" points="13.5,-20.5 158.5,-20.5 "/>
<text text-anchor="start" x="21.5" y="-7.7" font-family="Consolas" font-size="11.00">+ LeeNewmark()</text>
</a>
</g>
</g>
<!-- Node6&#45;&gt;Node7 -->
<g id="edge6" class="edge">
<title>Node6&#45;&gt;Node7</title>
<path fill="none" stroke="midnightblue" d="M86,-86.85C86,-77.47 86,-68.48 86,-60.58"/>
<polygon fill="none" stroke="midnightblue" points="82.5,-87.14 86,-97.14 89.5,-87.14 82.5,-87.14"/>
</g>
</g>
</svg>
        <g id="navigator" transform="translate(0 0)" fill="#404254">
                <rect fill="#f2f5e9" fill-opacity="0.5" stroke="#606060" stroke-width=".5" x="0" y="0" width="60" height="60"/>
                <use id="zoomplus" xlink:href="#zoomPlus" x="17" y="9" onmousedown="handleZoom(evt,'in')"/>
                <use id="zoomminus" xlink:href="#zoomMin" x="42" y="9" onmousedown="handleZoom(evt,'out')"/>
                <use id="reset" xlink:href="#resetDef" x="30" y="36" onmousedown="handleReset()"/>
                <g id="arrowUp" xlink:href="#dirArrow" transform="translate(30 24)" onmousedown="handlePan(0,-1)">
                  <use xlink:href="#rim" fill="#404040">
                        <set attributeName="fill" to="#808080" begin="arrowUp.mouseover" end="arrowUp.mouseout"/>
                  </use>
                  <path fill="none" stroke="white" stroke-width="1.5" d="M0,-3.0v7 M-2.5,-0.5L0,-3.0L2.5,-0.5"/>
                </g>
                <g id="arrowRight" xlink:href="#dirArrow" transform="rotate(90) translate(36 -43)" onmousedown="handlePan(1,0)">
                  <use xlink:href="#rim" fill="#404040">
                        <set attributeName="fill" to="#808080" begin="arrowRight.mouseover" end="arrowRight.mouseout"/>
                  </use>
                  <path fill="none" stroke="white" stroke-width="1.5" d="M0,-3.0v7 M-2.5,-0.5L0,-3.0L2.5,-0.5"/>
                </g>
                <g id="arrowDown" xlink:href="#dirArrow" transform="rotate(180) translate(-30 -48)" onmousedown="handlePan(0,1)">
                  <use xlink:href="#rim" fill="#404040">
                        <set attributeName="fill" to="#808080" begin="arrowDown.mouseover" end="arrowDown.mouseout"/>
                  </use>
                  <path fill="none" stroke="white" stroke-width="1.5" d="M0,-3.0v7 M-2.5,-0.5L0,-3.0L2.5,-0.5"/>
                </g>
                <g id="arrowLeft" xlink:href="#dirArrow" transform="rotate(270) translate(-36 17)" onmousedown="handlePan(-1,0)">
                  <use xlink:href="#rim" fill="#404040">
                        <set attributeName="fill" to="#808080" begin="arrowLeft.mouseover" end="arrowLeft.mouseout"/>
                  </use>
                  <path fill="none" stroke="white" stroke-width="1.5" d="M0,-3.0v7 M-2.5,-0.5L0,-3.0L2.5,-0.5"/>
                </g>
        </g>
        <svg viewBox="0 0 15 15" width="100%" height="30px" preserveAspectRatio="xMaxYMin meet">
         <g id="arrow_out" transform="scale(0.3 0.3)">
          <a xlink:href="class_newmark__inherit__graph_org.svg" target="_base">
           <rect id="button" ry="5" rx="5" y="6" x="6" height="38" width="38"
                fill="#f2f5e9" fill-opacity="0.5" stroke="#606060" stroke-width="1.0"/>
           <path id="arrow"
             d="M 11.500037,31.436501 C 11.940474,20.09759 22.043105,11.32322 32.158766,21.979434 L 37.068811,17.246167 C 37.068811,17.246167 37.088388,32 37.088388,32 L 22.160133,31.978069 C 22.160133,31.978069 26.997745,27.140456 26.997745,27.140456 C 18.528582,18.264221 13.291696,25.230495 11.500037,31.436501 z"
             style="fill:#404040;"/>
          </a>
         </g>
        </svg>
</svg>
