<?xml version="1.0" encoding="UTF-8" standalone="no"?>
<!DOCTYPE svg PUBLIC "-//W3C//DTD SVG 1.1//EN"
 "http://www.w3.org/Graphics/SVG/1.1/DTD/svg11.dtd">
<!-- Generated by graphviz version 5.0.0 (0)
 -->
<!-- Title: generate_points Pages: 1 -->
<!--zoomable 290 -->
<svg id="main" version="1.1" xmlns="http://www.w3.org/2000/svg" xmlns:xlink="http://www.w3.org/1999/xlink" xml:space="preserve" onload="init(evt)">
<style type="text/css"><![CDATA[
.edge:hover path { stroke: red; }
.edge:hover polygon { stroke: red; fill: red; }
]]></style>
<script type="text/javascript"><![CDATA[
var edges = document.getElementsByTagName('g');
if (edges && edges.length) {
  for (var i=0;i<edges.length;i++) {
    if (edges[i].id.substr(0,4)=='edge') {
      edges[i].setAttribute('class','edge');
    }
  }
}
]]></script>
        <defs>
                <circle id="rim" cx="0" cy="0" r="7"/>
                <circle id="rim2" cx="0" cy="0" r="3.5"/>
                <g id="zoomPlus">
                        <use xlink:href="#rim" fill="#404040">
                                <set attributeName="fill" to="#808080" begin="zoomplus.mouseover" end="zoomplus.mouseout"/>
                        </use>
                        <path d="M-4,0h8M0,-4v8" fill="none" stroke="white" stroke-width="1.5" pointer-events="none"/>
                </g>
                <g id="zoomMin">
                        <use xlink:href="#rim" fill="#404040">
                                <set attributeName="fill" to="#808080" begin="zoomminus.mouseover" end="zoomminus.mouseout"/>
                        </use>
                        <path d="M-4,0h8" fill="none" stroke="white" stroke-width="1.5" pointer-events="none"/>
                </g>
                <g id="dirArrow">
                        <path fill="none" stroke="white" stroke-width="1.5" d="M0,-3.0v7 M-2.5,-0.5L0,-3.0L2.5,-0.5"/>
                </g>
               <g id="resetDef">
                       <use xlink:href="#rim2" fill="#404040">
                               <set attributeName="fill" to="#808080" begin="reset.mouseover" end="reset.mouseout"/>
                       </use>
               </g>
        </defs>

<script type="text/javascript">
var viewWidth = 616;
var viewHeight = 290;
var sectionId = 'dynsection-1';
</script>
<script xlink:href="../../svgpan.js"/>
<svg id="graph" class="graph">
<g id="viewport">
<title>generate_points</title>
<!-- Node1 -->
<g id="node1" class="node">
<title>Node1</title>
<g id="a_node1"><a xlink:title=" ">
<polygon fill="#999999" stroke="#666666" points="608,-151 490,-151 490,-131 608,-131 608,-151"/>
<text text-anchor="middle" x="549" y="-138.2" font-family="Consolas" font-size="11.00">generate_points</text>
</a>
</g>
</g>
<!-- Node2 -->
<g id="node2" class="node">
<title>Node2</title>
<g id="a_node2"><a xlink:href="../../da/d46/group___utility.html#gae8109ae25854d26829bc6b47dba690c1" target="_top" xlink:title=" ">
<polygon fill="white" stroke="#666666" points="454,-282 269,-282 269,-250 454,-250 454,-282"/>
<text text-anchor="start" x="277" y="-269.2" font-family="Consolas" font-size="11.00">generate&lt; IntegrationType</text>
<text text-anchor="middle" x="361.5" y="-257.2" font-family="Consolas" font-size="11.00">::CHEBYSHEV &gt;</text>
</a>
</g>
</g>
<!-- Node1&#45;&gt;Node2 -->
<g id="edge1" class="edge">
<title>Node1&#45;&gt;Node2</title>
<path fill="none" stroke="#63b8ff" d="M535.45,-159.65C519.26,-182.27 488.99,-219.95 454,-241 448.36,-244.4 442.24,-247.34 435.94,-249.89"/>
<polygon fill="#63b8ff" stroke="#63b8ff" points="538.46,-161.45 541.31,-151.25 532.72,-157.45 538.46,-161.45"/>
</g>
<!-- Node4 -->
<g id="node4" class="node">
<title>Node4</title>
<g id="a_node4"><a xlink:href="../../da/d46/group___utility.html#gaa352d4cfbd081211f1537bccd52f89d5" target="_top" xlink:title=" ">
<polygon fill="white" stroke="#666666" points="454,-232 269,-232 269,-200 454,-200 454,-232"/>
<text text-anchor="start" x="277" y="-219.2" font-family="Consolas" font-size="11.00">generate&lt; IntegrationType</text>
<text text-anchor="middle" x="361.5" y="-207.2" font-family="Consolas" font-size="11.00">::GAUSS &gt;</text>
</a>
</g>
</g>
<!-- Node1&#45;&gt;Node4 -->
<g id="edge3" class="edge">
<title>Node1&#45;&gt;Node4</title>
<path fill="none" stroke="#63b8ff" d="M522.86,-156.35C504.34,-167.16 478.25,-181.38 454,-191 445.73,-194.28 436.88,-197.29 428.07,-199.99"/>
<polygon fill="#63b8ff" stroke="#63b8ff" points="524.74,-159.31 531.56,-151.2 521.17,-153.28 524.74,-159.31"/>
</g>
<!-- Node5 -->
<g id="node5" class="node">
<title>Node5</title>
<g id="a_node5"><a xlink:href="../../da/d46/group___utility.html#ga3e88738aaba17efe08072c41c2971d66" target="_top" xlink:title=" ">
<polygon fill="white" stroke="#666666" points="454,-182 269,-182 269,-150 454,-150 454,-182"/>
<text text-anchor="start" x="277" y="-169.2" font-family="Consolas" font-size="11.00">generate&lt; IntegrationType</text>
<text text-anchor="middle" x="361.5" y="-157.2" font-family="Consolas" font-size="11.00">::HERMITE &gt;</text>
</a>
</g>
</g>
<!-- Node1&#45;&gt;Node5 -->
<g id="edge5" class="edge">
<title>Node1&#45;&gt;Node5</title>
<path fill="none" stroke="#63b8ff" d="M479.77,-150.19C471.41,-151.32 462.76,-152.49 454.12,-153.65"/>
<polygon fill="#63b8ff" stroke="#63b8ff" points="480.37,-153.65 489.82,-148.84 479.44,-146.71 480.37,-153.65"/>
</g>
<!-- Node6 -->
<g id="node6" class="node">
<title>Node6</title>
<g id="a_node6"><a xlink:href="../../da/d46/group___utility.html#ga95a5b978876dcb0409d400cf6a68a801" target="_top" xlink:title=" ">
<polygon fill="white" stroke="#666666" points="454,-132 269,-132 269,-100 454,-100 454,-132"/>
<text text-anchor="start" x="277" y="-119.2" font-family="Consolas" font-size="11.00">generate&lt; IntegrationType</text>
<text text-anchor="middle" x="361.5" y="-107.2" font-family="Consolas" font-size="11.00">::LAGUERRE &gt;</text>
</a>
</g>
</g>
<!-- Node1&#45;&gt;Node6 -->
<g id="edge7" class="edge">
<title>Node1&#45;&gt;Node6</title>
<path fill="none" stroke="#63b8ff" d="M479.77,-131.81C471.41,-130.68 462.76,-129.51 454.12,-128.35"/>
<polygon fill="#63b8ff" stroke="#63b8ff" points="479.44,-135.29 489.82,-133.16 480.37,-128.35 479.44,-135.29"/>
</g>
<!-- Node7 -->
<g id="node7" class="node">
<title>Node7</title>
<g id="a_node7"><a xlink:href="../../da/d46/group___utility.html#ga560fdf6460c48b5c6fcc9f73862bdbf5" target="_top" xlink:title=" ">
<polygon fill="white" stroke="#666666" points="454,-82 269,-82 269,-50 454,-50 454,-82"/>
<text text-anchor="start" x="277" y="-69.2" font-family="Consolas" font-size="11.00">generate&lt; IntegrationType</text>
<text text-anchor="middle" x="361.5" y="-57.2" font-family="Consolas" font-size="11.00">::LOBATTO &gt;</text>
</a>
</g>
</g>
<!-- Node1&#45;&gt;Node7 -->
<g id="edge9" class="edge">
<title>Node1&#45;&gt;Node7</title>
<path fill="none" stroke="#63b8ff" d="M522.86,-125.65C504.34,-114.84 478.25,-100.62 454,-91 445.73,-87.72 436.88,-84.71 428.07,-82.01"/>
<polygon fill="#63b8ff" stroke="#63b8ff" points="521.17,-128.72 531.56,-130.8 524.74,-122.69 521.17,-128.72"/>
</g>
<!-- Node8 -->
<g id="node8" class="node">
<title>Node8</title>
<g id="a_node8"><a xlink:href="../../da/d46/group___utility.html#gad76d655a920d76715cabfbeb544edff8" target="_top" xlink:title=" ">
<polygon fill="white" stroke="#666666" points="454,-32 269,-32 269,0 454,0 454,-32"/>
<text text-anchor="start" x="277" y="-19.2" font-family="Consolas" font-size="11.00">generate&lt; IntegrationType</text>
<text text-anchor="middle" x="361.5" y="-7.2" font-family="Consolas" font-size="11.00">::RADAU &gt;</text>
</a>
</g>
</g>
<!-- Node1&#45;&gt;Node8 -->
<g id="edge11" class="edge">
<title>Node1&#45;&gt;Node8</title>
<path fill="none" stroke="#63b8ff" d="M535.45,-122.35C519.26,-99.73 488.99,-62.05 454,-41 448.36,-37.6 442.24,-34.66 435.94,-32.11"/>
<polygon fill="#63b8ff" stroke="#63b8ff" points="532.72,-124.55 541.31,-130.75 538.46,-120.55 532.72,-124.55"/>
</g>
<!-- Node3 -->
<g id="node3" class="node">
<title>Node3</title>
<g id="a_node3"><a xlink:href="../../dd/d31/class_integration_plan.html#a6a252257fbe08714a21134bf713c8688" target="_top" xlink:title=" ">
<polygon fill="white" stroke="#666666" points="233,-151 0,-151 0,-131 233,-131 233,-151"/>
<text text-anchor="middle" x="116.5" y="-138.2" font-family="Consolas" font-size="11.00">IntegrationPlan::IntegrationPlan</text>
</a>
</g>
</g>
<!-- Node2&#45;&gt;Node3 -->
<g id="edge2" class="edge">
<title>Node2&#45;&gt;Node3</title>
<path fill="none" stroke="#63b8ff" d="M282.56,-246.55C277.92,-244.83 273.36,-242.98 269,-241 213.01,-215.66 154.42,-170.9 129.67,-151.01"/>
<polygon fill="#63b8ff" stroke="#63b8ff" points="281.6,-249.92 292.19,-249.92 283.91,-243.32 281.6,-249.92"/>
</g>
<!-- Node4&#45;&gt;Node3 -->
<g id="edge4" class="edge">
<title>Node4&#45;&gt;Node3</title>
<path fill="none" stroke="#63b8ff" d="M290.11,-197.17C282.97,-195.14 275.83,-193.06 269,-191 226.04,-178.05 176.78,-161.47 146.4,-151.04"/>
<polygon fill="#63b8ff" stroke="#63b8ff" points="289.26,-200.56 299.83,-199.9 291.16,-193.82 289.26,-200.56"/>
</g>
<!-- Node5&#45;&gt;Node3 -->
<g id="edge6" class="edge">
<title>Node5&#45;&gt;Node3</title>
<path fill="none" stroke="#63b8ff" d="M258.98,-155.56C244.43,-154.06 229.49,-152.52 215.03,-151.03"/>
<polygon fill="#63b8ff" stroke="#63b8ff" points="258.67,-159.04 268.98,-156.58 259.39,-152.08 258.67,-159.04"/>
</g>
<!-- Node6&#45;&gt;Node3 -->
<g id="edge8" class="edge">
<title>Node6&#45;&gt;Node3</title>
<path fill="none" stroke="#63b8ff" d="M258.98,-126.44C244.43,-127.94 229.49,-129.48 215.03,-130.97"/>
<polygon fill="#63b8ff" stroke="#63b8ff" points="259.39,-129.92 268.98,-125.42 258.67,-122.96 259.39,-129.92"/>
</g>
<!-- Node7&#45;&gt;Node3 -->
<g id="edge10" class="edge">
<title>Node7&#45;&gt;Node3</title>
<path fill="none" stroke="#63b8ff" d="M290.11,-84.83C282.97,-86.86 275.83,-88.94 269,-91 226.04,-103.95 176.78,-120.53 146.4,-130.96"/>
<polygon fill="#63b8ff" stroke="#63b8ff" points="291.16,-88.18 299.83,-82.1 289.26,-81.44 291.16,-88.18"/>
</g>
<!-- Node8&#45;&gt;Node3 -->
<g id="edge12" class="edge">
<title>Node8&#45;&gt;Node3</title>
<path fill="none" stroke="#63b8ff" d="M282.56,-35.45C277.92,-37.17 273.36,-39.02 269,-41 213.01,-66.34 154.42,-111.1 129.67,-130.99"/>
<polygon fill="#63b8ff" stroke="#63b8ff" points="283.91,-38.68 292.19,-32.08 281.6,-32.08 283.91,-38.68"/>
</g>
</g>
</svg>
        <g id="navigator" transform="translate(0 0)" fill="#404254">
                <rect fill="#f2f5e9" fill-opacity="0.5" stroke="#606060" stroke-width=".5" x="0" y="0" width="60" height="60"/>
                <use id="zoomplus" xlink:href="#zoomPlus" x="17" y="9" onmousedown="handleZoom(evt,'in')"/>
                <use id="zoomminus" xlink:href="#zoomMin" x="42" y="9" onmousedown="handleZoom(evt,'out')"/>
                <use id="reset" xlink:href="#resetDef" x="30" y="36" onmousedown="handleReset()"/>
                <g id="arrowUp" xlink:href="#dirArrow" transform="translate(30 24)" onmousedown="handlePan(0,-1)">
                  <use xlink:href="#rim" fill="#404040">
                        <set attributeName="fill" to="#808080" begin="arrowUp.mouseover" end="arrowUp.mouseout"/>
                  </use>
                  <path fill="none" stroke="white" stroke-width="1.5" d="M0,-3.0v7 M-2.5,-0.5L0,-3.0L2.5,-0.5"/>
                </g>
                <g id="arrowRight" xlink:href="#dirArrow" transform="rotate(90) translate(36 -43)" onmousedown="handlePan(1,0)">
                  <use xlink:href="#rim" fill="#404040">
                        <set attributeName="fill" to="#808080" begin="arrowRight.mouseover" end="arrowRight.mouseout"/>
                  </use>
                  <path fill="none" stroke="white" stroke-width="1.5" d="M0,-3.0v7 M-2.5,-0.5L0,-3.0L2.5,-0.5"/>
                </g>
                <g id="arrowDown" xlink:href="#dirArrow" transform="rotate(180) translate(-30 -48)" onmousedown="handlePan(0,1)">
                  <use xlink:href="#rim" fill="#404040">
                        <set attributeName="fill" to="#808080" begin="arrowDown.mouseover" end="arrowDown.mouseout"/>
                  </use>
                  <path fill="none" stroke="white" stroke-width="1.5" d="M0,-3.0v7 M-2.5,-0.5L0,-3.0L2.5,-0.5"/>
                </g>
                <g id="arrowLeft" xlink:href="#dirArrow" transform="rotate(270) translate(-36 17)" onmousedown="handlePan(-1,0)">
                  <use xlink:href="#rim" fill="#404040">
                        <set attributeName="fill" to="#808080" begin="arrowLeft.mouseover" end="arrowLeft.mouseout"/>
                  </use>
                  <path fill="none" stroke="white" stroke-width="1.5" d="M0,-3.0v7 M-2.5,-0.5L0,-3.0L2.5,-0.5"/>
                </g>
        </g>
        <svg viewBox="0 0 15 15" width="100%" height="30px" preserveAspectRatio="xMaxYMin meet">
         <g id="arrow_out" transform="scale(0.3 0.3)">
          <a xlink:href="_integration_plan_8cpp_a49a6700c2ee8acee8b81b1183dba2599_icgraph_org.svg" target="_base">
           <rect id="button" ry="5" rx="5" y="6" x="6" height="38" width="38"
                fill="#f2f5e9" fill-opacity="0.5" stroke="#606060" stroke-width="1.0"/>
           <path id="arrow"
             d="M 11.500037,31.436501 C 11.940474,20.09759 22.043105,11.32322 32.158766,21.979434 L 37.068811,17.246167 C 37.068811,17.246167 37.088388,32 37.088388,32 L 22.160133,31.978069 C 22.160133,31.978069 26.997745,27.140456 26.997745,27.140456 C 18.528582,18.264221 13.291696,25.230495 11.500037,31.436501 z"
             style="fill:#404040;"/>
          </a>
         </g>
        </svg>
</svg>
