<svg xmlns="http://www.w3.org/2000/svg" xmlns:xlink="http://www.w3.org/1999/xlink" width="996" height="1328" viewBox="0 0 747 996"><g class="graph" transform="translate(4 992)"><title>Modifier</title><g class="node"><title>Node1</title><a xlink:title="A Modifier class.">
<path fill="#999" stroke="transparent" d="M361.5-476h-128v132h128z"/>
<text x="270" y="-463.2" font-family="Consolas" font-size="11">Modifier</text>
<text x="237.5" y="-447.2" font-family="Consolas" font-size="11">#</text>
<text x="248.5" y="-447.2" font-family="Consolas" font-size="11">element_tag</text>
<text x="237.5" y="-431.2" font-family="Consolas" font-size="11">#</text>
<text x="248.5" y="-431.2" font-family="Consolas" font-size="11">element_pool</text>
<text x="237.5" y="-415.2" font-family="Consolas" font-size="11">+</text>
<text x="248.5" y="-415.2" font-family="Consolas" font-size="11">Modifier()</text>
<text x="237.5" y="-399.2" font-family="Consolas" font-size="11">+</text>
<text x="248.5" y="-399.2" font-family="Consolas" font-size="11">has_nonviscous()</text>
<text x="237.5" y="-383.2" font-family="Consolas" font-size="11">+</text>
<text x="248.5" y="-383.2" font-family="Consolas" font-size="11">initialize()</text>
<text x="237.5" y="-367.2" font-family="Consolas" font-size="11">+</text>
<text x="248.5" y="-367.2" font-family="Consolas" font-size="11">if_apply()</text>
<text x="237.5" y="-351.2" font-family="Consolas" font-size="11">+</text>
<text x="248.5" y="-351.2" font-family="Consolas" font-size="11">update_status()</text>
<path fill="#666" stroke="#666" d="M233.5-458h128z"/>
<path fill="#666" stroke="#666" d="M233.5-426h13z"/>
<path fill="#666" stroke="#666" d="M246.5-426h115z"/>
<path fill="none" stroke="#666" d="M233.5-344v-132h128v132z"/>
</a></g><g class="node"><title>Node4</title><a xlink:href="../../d4/d78/class_lumped_scale.html" xlink:title="A LumpedScale mass class." target="_top">
<path fill="#fff" stroke="transparent" d="M150-308H29v68h121z"/>
<text x="52.5" y="-295.2" font-family="Consolas" font-size="11">LumpedScale</text>
<text x="86.5" y="-279.2" font-family="Consolas" font-size="11"> </text>
<text x="33.5" y="-263.2" font-family="Consolas" font-size="11">+</text>
<text x="44.5" y="-263.2" font-family="Consolas" font-size="11">update_status()</text>
<text x="33.5" y="-247.2" font-family="Consolas" font-size="11">+</text>
<text x="44.5" y="-247.2" font-family="Consolas" font-size="11">Modifier()</text>
<path fill="#666" stroke="#666" d="M29.5-290h121z"/>
<path fill="#666" stroke="#666" d="M29.5-274h121z"/>
<path fill="none" stroke="#666" d="M29-240v-68h121v68z"/>
</a></g><g class="edge"><title>Node1-&gt;Node4</title><a>
<path fill="none" stroke="#63b8ff" d="M224.91-362.24c-27.71 17.86-58.7 37.82-84.04 54.15"/>
<path fill="none" stroke="#63b8ff" d="m223.09-365.23 10.31-2.47-6.52 8.36z"/>
</a></g><g class="node"><title>Node5</title><a xlink:href="../../d8/ddb/class_lumped_simple.html" xlink:title="A LumpedSimple mass class." target="_top">
<path fill="#fff" stroke="transparent" d="M289-308H168v68h121z"/>
<text x="188" y="-295.2" font-family="Consolas" font-size="11">LumpedSimple</text>
<text x="225.5" y="-279.2" font-family="Consolas" font-size="11"> </text>
<text x="172.5" y="-263.2" font-family="Consolas" font-size="11">+</text>
<text x="183.5" y="-263.2" font-family="Consolas" font-size="11">update_status()</text>
<text x="172.5" y="-247.2" font-family="Consolas" font-size="11">+</text>
<text x="183.5" y="-247.2" font-family="Consolas" font-size="11">Modifier()</text>
<path fill="#666" stroke="#666" d="M168.5-290h121z"/>
<path fill="#666" stroke="#666" d="M168.5-274h121z"/>
<path fill="none" stroke="#666" d="M168-240v-68h121v68z"/>
</a></g><g class="edge"><title>Node1-&gt;Node5</title><a>
<path fill="none" stroke="#63b8ff" d="M259.37-334.96c-4.81 9.36-9.54 18.53-13.78 26.77"/>
<path fill="none" stroke="#63b8ff" d="m256.32-336.67 7.69-7.29-1.47 10.49z"/>
</a></g><g class="node"><title>Node6</title><a xlink:href="../../da/d57/class_modifier_dynamics.html" target="_top">
<path fill="#fff" stroke="transparent" d="M426-308H307v68h119z"/>
<text x="312.5" y="-295.2" font-family="Consolas" font-size="11">ModifierDynamics</text>
<text x="363.5" y="-279.2" font-family="Consolas" font-size="11"> </text>
<text x="319.5" y="-263.2" font-family="Consolas" font-size="11">+</text>
<text x="338.5" y="-263.2" font-family="Consolas" font-size="11">if_apply()</text>
<text x="319.5" y="-247.2" font-family="Consolas" font-size="11">+</text>
<text x="338.5" y="-247.2" font-family="Consolas" font-size="11">Modifier()</text>
<path fill="#666" stroke="#666" d="M307.5-290h119z"/>
<path fill="#666" stroke="#666" d="M307.5-274h119z"/>
<path fill="none" stroke="#666" d="M307-240v-68h119v68z"/>
</a></g><g class="edge"><title>Node1-&gt;Node6</title><a>
<path fill="none" stroke="#63b8ff" d="M335.63-334.96c4.81 9.36 9.54 18.53 13.78 26.77"/>
<path fill="none" stroke="#63b8ff" d="m332.46-333.47-1.47-10.49 7.69 7.29z"/>
</a></g><g class="node"><title>Node13</title><a xlink:href="../../d0/dd6/class_modifier_example.html" xlink:title="A ModifierExample damping class." target="_top">
<path fill="#fff" stroke="transparent" d="M578.5-308h-134v68h134z"/>
<text x="460.5" y="-295.2" font-family="Consolas" font-size="11">ModifierExample</text>
<text x="508" y="-279.2" font-family="Consolas" font-size="11"> </text>
<text x="448.5" y="-263.2" font-family="Consolas" font-size="11">+</text>
<text x="459.5" y="-263.2" font-family="Consolas" font-size="11">ModifierExample()</text>
<text x="448.5" y="-247.2" font-family="Consolas" font-size="11">+</text>
<text x="459.5" y="-247.2" font-family="Consolas" font-size="11">update_status()</text>
<path fill="#666" stroke="#666" d="M444.5-290h134z"/>
<path fill="#666" stroke="#666" d="M444.5-274h134z"/>
<path fill="none" stroke="#666" d="M444.5-240v-68h134v68z"/>
</a></g><g class="edge"><title>Node1-&gt;Node13</title><a>
<path fill="none" stroke="#63b8ff" d="M370.54-363.27c28.87 18.08 61.42 38.46 87.96 55.08"/>
<path fill="none" stroke="#63b8ff" d="m368.33-360.52-6.62-8.28 10.33 2.35z"/>
</a></g><g class="node"><title>Node2</title><a xlink:href="../../db/db8/class_unique_tag.html" xlink:title="Label objects that cannot be copied." target="_top">
<path fill="#fff" stroke="transparent" d="M348-676H247v164h101z"/>
<text x="267.5" y="-663.2" font-family="Consolas" font-size="11">UniqueTag</text>
<text x="294.5" y="-647.2" font-family="Consolas" font-size="11"> </text>
<text x="251.5" y="-631.2" font-family="Consolas" font-size="11">+</text>
<text x="262.5" y="-631.2" font-family="Consolas" font-size="11">UniqueTag()</text>
<text x="251.5" y="-615.2" font-family="Consolas" font-size="11">+</text>
<text x="262.5" y="-615.2" font-family="Consolas" font-size="11">UniqueTag()</text>
<text x="251.5" y="-599.2" font-family="Consolas" font-size="11">+</text>
<text x="262.5" y="-599.2" font-family="Consolas" font-size="11">operator=()</text>
<text x="251.5" y="-583.2" font-family="Consolas" font-size="11">+</text>
<text x="262.5" y="-583.2" font-family="Consolas" font-size="11">operator=()</text>
<text x="251.5" y="-567.2" font-family="Consolas" font-size="11">+</text>
<text x="262.5" y="-567.2" font-family="Consolas" font-size="11">~UniqueTag()</text>
<text x="251.5" y="-551.2" font-family="Consolas" font-size="11">+</text>
<text x="262.5" y="-551.2" font-family="Consolas" font-size="11">Tag()</text>
<text x="251.5" y="-535.2" font-family="Consolas" font-size="11">+</text>
<text x="262.5" y="-535.2" font-family="Consolas" font-size="11">Tag()</text>
<text x="251.5" y="-519.2" font-family="Consolas" font-size="11">+</text>
<text x="262.5" y="-519.2" font-family="Consolas" font-size="11">Tag()</text>
<path fill="#666" stroke="#666" d="M247.5-658h101z"/>
<path fill="#666" stroke="#666" d="M247.5-642h101z"/>
<path fill="none" stroke="#666" d="M247-512v-164h101v164z"/>
</a></g><g class="edge"><title>Node2-&gt;Node1</title><a>
<path fill="none" stroke="#63b8ff" d="M297.5-501.73v25.56"/>
<path fill="none" stroke="#63b8ff" d="m294-501.85 3.5-10 3.5 10z"/>
</a></g><g class="node"><title>Node3</title><a xlink:href="../../d0/d57/class_tag.html" xlink:title="A base Tag class." target="_top">
<path fill="#fff" stroke="transparent" d="M348-988H247v276h101z"/>
<text x="287.5" y="-975.2" font-family="Consolas" font-size="11">Tag</text>
<text x="294.5" y="-959.2" font-family="Consolas" font-size="11"> </text>
<text x="251.5" y="-943.2" font-family="Consolas" font-size="11">+</text>
<text x="262.5" y="-943.2" font-family="Consolas" font-size="11">Tag()</text>
<text x="251.5" y="-927.2" font-family="Consolas" font-size="11">+</text>
<text x="262.5" y="-927.2" font-family="Consolas" font-size="11">Tag()</text>
<text x="251.5" y="-911.2" font-family="Consolas" font-size="11">+</text>
<text x="262.5" y="-911.2" font-family="Consolas" font-size="11">Tag()</text>
<text x="251.5" y="-895.2" font-family="Consolas" font-size="11">+</text>
<text x="262.5" y="-895.2" font-family="Consolas" font-size="11">operator=()</text>
<text x="251.5" y="-879.2" font-family="Consolas" font-size="11">+</text>
<text x="262.5" y="-879.2" font-family="Consolas" font-size="11">operator=()</text>
<text x="251.5" y="-863.2" font-family="Consolas" font-size="11">+</text>
<text x="262.5" y="-863.2" font-family="Consolas" font-size="11">~Tag()</text>
<text x="251.5" y="-847.2" font-family="Consolas" font-size="11">+</text>
<text x="262.5" y="-847.2" font-family="Consolas" font-size="11">set_tag()</text>
<text x="251.5" y="-831.2" font-family="Consolas" font-size="11">+</text>
<text x="262.5" y="-831.2" font-family="Consolas" font-size="11">get_tag()</text>
<text x="251.5" y="-815.2" font-family="Consolas" font-size="11">+</text>
<text x="262.5" y="-815.2" font-family="Consolas" font-size="11">enable()</text>
<text x="251.5" y="-799.2" font-family="Consolas" font-size="11">+</text>
<text x="262.5" y="-799.2" font-family="Consolas" font-size="11">disable()</text>
<text x="251.5" y="-783.2" font-family="Consolas" font-size="11">+</text>
<text x="262.5" y="-783.2" font-family="Consolas" font-size="11">guard()</text>
<text x="251.5" y="-767.2" font-family="Consolas" font-size="11">+</text>
<text x="262.5" y="-767.2" font-family="Consolas" font-size="11">unguard()</text>
<text x="251.5" y="-751.2" font-family="Consolas" font-size="11">+</text>
<text x="262.5" y="-751.2" font-family="Consolas" font-size="11">is_active()</text>
<text x="251.5" y="-735.2" font-family="Consolas" font-size="11">+</text>
<text x="262.5" y="-735.2" font-family="Consolas" font-size="11">is_guarded()</text>
<text x="251.5" y="-719.2" font-family="Consolas" font-size="11">+</text>
<text x="262.5" y="-719.2" font-family="Consolas" font-size="11">print()</text>
<path fill="#666" stroke="#666" d="M247.5-970h101z"/>
<path fill="#666" stroke="#666" d="M247.5-954h101z"/>
<path fill="none" stroke="#666" d="M247-712v-276h101v276z"/>
</a></g><g class="edge"><title>Node3-&gt;Node2</title><a>
<path fill="none" stroke="#63b8ff" d="M297.5-701.72v25.49"/>
<path fill="none" stroke="#63b8ff" d="m294-701.96 3.5-10 3.5 10z"/>
</a></g><g class="node"><title>Node7</title><a xlink:href="../../d7/d87/class_elemental_lee.html" xlink:title="A ElementalLee damping class." target="_top">
<path fill="#fff" stroke="transparent" d="M121-188H0v68h121z"/>
<text x="20" y="-175.2" font-family="Consolas" font-size="11">ElementalLee</text>
<text x="57.5" y="-159.2" font-family="Consolas" font-size="11"> </text>
<text x="4.5" y="-143.2" font-family="Consolas" font-size="11">+</text>
<text x="15.5" y="-143.2" font-family="Consolas" font-size="11">ElementalLee()</text>
<text x="4.5" y="-127.2" font-family="Consolas" font-size="11">+</text>
<text x="15.5" y="-127.2" font-family="Consolas" font-size="11">update_status()</text>
<path fill="#666" stroke="#666" d="M.5-170h121z"/>
<path fill="#666" stroke="#666" d="M.5-154h121z"/>
<path fill="none" stroke="#666" d="M0-120v-68h121v68z"/>
</a></g><g class="edge"><title>Node6-&gt;Node7</title><a>
<path fill="none" stroke="#63b8ff" d="M296.94-240.15c-73.46 23.23-99.71 7.02-166.44 36.15-9.65 4.21-19.34 9.86-28.29 15.82"/>
<path fill="none" stroke="#63b8ff" d="m296.04-243.54 10.6.19-8.4 6.46z"/>
</a></g><g class="node"><title>Node8</title><a xlink:href="../../d1/d4a/class_elemental_modal.html" xlink:title="A ElementalModal damping class." target="_top">
<path fill="#fff" stroke="transparent" d="M267.5-188h-128v68h128z"/>
<text x="156" y="-175.2" font-family="Consolas" font-size="11">ElementalModal</text>
<text x="200" y="-159.2" font-family="Consolas" font-size="11"> </text>
<text x="143.5" y="-143.2" font-family="Consolas" font-size="11">+</text>
<text x="154.5" y="-143.2" font-family="Consolas" font-size="11">ElementalModal()</text>
<text x="143.5" y="-127.2" font-family="Consolas" font-size="11">+</text>
<text x="154.5" y="-127.2" font-family="Consolas" font-size="11">update_status()</text>
<path fill="#666" stroke="#666" d="M139.5-170h128z"/>
<path fill="#666" stroke="#666" d="M139.5-154h128z"/>
<path fill="none" stroke="#666" d="M139.5-120v-68h128v68z"/>
</a></g><g class="edge"><title>Node6-&gt;Node8</title><a>
<path fill="none" stroke="#63b8ff" d="M312.37-233.82c-20.44 14.8-43.49 31.49-63.09 45.68"/>
<path fill="none" stroke="#63b8ff" d="m310.51-236.79 10.15-3.03-6.05 8.7z"/>
</a></g><g class="node"><title>Node9</title><a xlink:href="../../df/df2/class_elemental_nonviscous.html" xlink:title="A ElementalNonviscous damping class." target="_top">
<path fill="#fff" stroke="transparent" d="M447-204H286v100h161z"/>
<text x="302.5" y="-191.2" font-family="Consolas" font-size="11">ElementalNonviscous</text>
<text x="363.5" y="-175.2" font-family="Consolas" font-size="11"> </text>
<text x="290.5" y="-159.2" font-family="Consolas" font-size="11">+</text>
<text x="301.5" y="-159.2" font-family="Consolas" font-size="11">ElementalNonviscous()</text>
<text x="290.5" y="-143.2" font-family="Consolas" font-size="11">+</text>
<text x="301.5" y="-143.2" font-family="Consolas" font-size="11">has_nonviscous()</text>
<text x="290.5" y="-127.2" font-family="Consolas" font-size="11">+</text>
<text x="301.5" y="-127.2" font-family="Consolas" font-size="11">initialize()</text>
<text x="290.5" y="-111.2" font-family="Consolas" font-size="11">+</text>
<text x="301.5" y="-111.2" font-family="Consolas" font-size="11">update_status()</text>
<path fill="#666" stroke="#666" d="M286.5-186h161z"/>
<path fill="#666" stroke="#666" d="M286.5-170h161z"/>
<path fill="none" stroke="#666" d="M286-104v-100h161v100z"/>
</a></g><g class="edge"><title>Node6-&gt;Node9</title><a>
<path fill="none" stroke="#63b8ff" d="M366.5-229.64v25.41"/>
<path fill="none" stroke="#63b8ff" d="m363-229.82 3.5-10 3.5 10z"/>
</a></g><g class="node"><title>Node11</title><a xlink:href="../../d7/d45/class_linear_viscosity.html" xlink:title="A LinearViscosity damping class." target="_top">
<path fill="#fff" stroke="transparent" d="M599.5-188h-134v68h134z"/>
<text x="481.5" y="-175.2" font-family="Consolas" font-size="11">LinearViscosity</text>
<text x="529" y="-159.2" font-family="Consolas" font-size="11"> </text>
<text x="469.5" y="-143.2" font-family="Consolas" font-size="11">+</text>
<text x="480.5" y="-143.2" font-family="Consolas" font-size="11">LinearViscosity()</text>
<text x="469.5" y="-127.2" font-family="Consolas" font-size="11">+</text>
<text x="480.5" y="-127.2" font-family="Consolas" font-size="11">update_status()</text>
<path fill="#666" stroke="#666" d="M465.5-170h134z"/>
<path fill="#666" stroke="#666" d="M465.5-154h134z"/>
<path fill="none" stroke="#666" d="M465.5-120v-68h134v68z"/>
</a></g><g class="edge"><title>Node6-&gt;Node11</title><a>
<path fill="none" stroke="#63b8ff" d="M421.34-234.01c20.89 14.85 44.48 31.61 64.54 45.87"/>
<path fill="none" stroke="#63b8ff" d="m419.3-231.17-6.12-8.65 10.18 2.94z"/>
</a></g><g class="node"><title>Node12</title><a xlink:href="../../d2/d7d/class_rayleigh.html" xlink:title="A Rayleigh damping class." target="_top">
<path fill="#fff" stroke="transparent" d="M739-188H618v68h121z"/>
<text x="651.5" y="-175.2" font-family="Consolas" font-size="11">Rayleigh</text>
<text x="675.5" y="-159.2" font-family="Consolas" font-size="11"> </text>
<text x="622.5" y="-143.2" font-family="Consolas" font-size="11">+</text>
<text x="633.5" y="-143.2" font-family="Consolas" font-size="11">Rayleigh()</text>
<text x="622.5" y="-127.2" font-family="Consolas" font-size="11">+</text>
<text x="633.5" y="-127.2" font-family="Consolas" font-size="11">update_status()</text>
<path fill="#666" stroke="#666" d="M618.5-170h121z"/>
<path fill="#666" stroke="#666" d="M618.5-154h121z"/>
<path fill="none" stroke="#666" d="M618-120v-68h121v68z"/>
</a></g><g class="edge"><title>Node6-&gt;Node12</title><a>
<path fill="none" stroke="#63b8ff" d="M435.89-240.21c76.16 23.83 103.33 6.27 172.61 36.21 9.67 4.18 19.36 9.81 28.31 15.76"/>
<path fill="none" stroke="#63b8ff" d="m434.77-236.89-8.42-6.44 10.6-.22z"/>
</a></g><g class="node"><title>Node10</title><a xlink:href="../../da/d45/class_elemental_nonviscous_group.html" target="_top">
<path fill="#fff" stroke="transparent" d="M464-68H269V0h195z"/>
<text x="285.5" y="-55.2" font-family="Consolas" font-size="11">ElementalNonviscousGroup</text>
<text x="363.5" y="-39.2" font-family="Consolas" font-size="11"> </text>
<text x="273.5" y="-23.2" font-family="Consolas" font-size="11">+</text>
<text x="284.5" y="-23.2" font-family="Consolas" font-size="11">ElementalNonviscousGroup()</text>
<text x="273.5" y="-7.2" font-family="Consolas" font-size="11">+</text>
<text x="284.5" y="-7.2" font-family="Consolas" font-size="11">initialize()</text>
<path fill="#666" stroke="#666" d="M269.5-50h195z"/>
<path fill="#666" stroke="#666" d="M269.5-34h195z"/>
<path fill="none" stroke="#666" d="M269 0v-68h195V0z"/>
</a></g><g class="edge"><title>Node9-&gt;Node10</title><a>
<path fill="none" stroke="#63b8ff" d="M366.5-93.74v25.48"/>
<path fill="none" stroke="#63b8ff" d="m363-93.98 3.5-10 3.5 10z"/>
</a></g></g></svg>