<?xml version="1.0" encoding="UTF-8" standalone="no"?>
<!DOCTYPE svg PUBLIC "-//W3C//DTD SVG 1.1//EN"
 "http://www.w3.org/Graphics/SVG/1.1/DTD/svg11.dtd">
<!-- Generated by graphviz version 8.1.0 (20230707.0739)
 -->
<!-- Title: Group Pages: 1 -->
<!--zoomable 704 -->

<svg id="main" version="1.1" xmlns="http://www.w3.org/2000/svg" xmlns:xlink="http://www.w3.org/1999/xlink" xml:space="preserve" onload="init(evt)">
<style type="text/css"><![CDATA[
.node, .edge {opacity: 0.7;}
.node.selected, .edge.selected {opacity: 1;}
.edge:hover path { stroke: red; }
.edge:hover polygon { stroke: red; fill: red; }
]]></style>

<defs>
  <circle id="rim" cx="0" cy="0" r="7"/>
  <circle id="rim2" cx="0" cy="0" r="3.5"/>
  <g id="zoomPlus">
    <use xlink:href="#rim" fill="#404040"><set attributeName="fill" to="#808080" begin="zoomplus.mouseover" end="zoomplus.mouseout"/></use>
    <path d="M-4,0h8M0,-4v8" fill="none" stroke="white" stroke-width="1.5" pointer-events="none"/>
  </g>
  <g id="zoomMin">
    <use xlink:href="#rim" fill="#404040"><set attributeName="fill" to="#808080" begin="zoomminus.mouseover" end="zoomminus.mouseout"/></use>
    <path d="M-4,0h8" fill="none" stroke="white" stroke-width="1.5" pointer-events="none"/>
  </g>
  <g id="arrowUp" transform="translate(30 24)">
    <use xlink:href="#rim"/>
    <path pointer-events="none" fill="none" stroke="white" stroke-width="1.5" d="M0,-3.0v7 M-2.5,-0.5L0,-3.0L2.5,-0.5"/>
  </g>
  <g id="arrowRight" transform="rotate(90) translate(36 -43)">
    <use xlink:href="#rim"/>
    <path pointer-events="none" fill="none" stroke="white" stroke-width="1.5" d="M0,-3.0v7 M-2.5,-0.5L0,-3.0L2.5,-0.5"/>
  </g>
  <g id="arrowDown" transform="rotate(180) translate(-30 -48)">
    <use xlink:href="#rim"/>
    <path pointer-events="none" fill="none" stroke="white" stroke-width="1.5" d="M0,-3.0v7 M-2.5,-0.5L0,-3.0L2.5,-0.5"/>
  </g>
  <g id="arrowLeft" transform="rotate(270) translate(-36 17)">
    <use xlink:href="#rim"/>
    <path pointer-events="none" fill="none" stroke="white" stroke-width="1.5" d="M0,-3.0v7 M-2.5,-0.5L0,-3.0L2.5,-0.5"/>
  </g>
  <g id="resetDef">
    <use xlink:href="#rim2" fill="#404040"><set attributeName="fill" to="#808080" begin="reset.mouseover" end="reset.mouseout"/></use>
  </g>
</defs>
<script type="application/ecmascript">
var viewWidth = 464;
var viewHeight = 704;
var sectionId = 'dynsection-0';
</script>
<script type="application/ecmascript" xlink:href="../../svg.min.js"/>
<svg id="graph" class="graph">
<g id="viewport">
<title>Group</title>
<!-- Node1 -->
<g id="Node000001" class="node">
<title>Node1</title>
<g id="a_Node000001"><a xlink:title="The Group class.">
<polygon fill="#999999" stroke="none" points="291,-367 201,-367 201,-159 291,-159 291,-367"/>
<text text-anchor="start" x="231" y="-352.55" font-family="Consolas" font-size="11.00">Group</text>
<text text-anchor="start" x="205" y="-335.55" font-family="Consolas" font-size="11.00">#</text>
<text text-anchor="start" x="215" y="-335.55" font-family="Consolas" font-size="11.00">pool</text>
<text text-anchor="start" x="205" y="-318.55" font-family="Consolas" font-size="11.00">+</text>
<text text-anchor="start" x="215" y="-318.55" font-family="Consolas" font-size="11.00">Group()</text>
<text text-anchor="start" x="205" y="-301.55" font-family="Consolas" font-size="11.00">+</text>
<text text-anchor="start" x="215" y="-301.55" font-family="Consolas" font-size="11.00">Group()</text>
<text text-anchor="start" x="205" y="-284.55" font-family="Consolas" font-size="11.00">+</text>
<text text-anchor="start" x="215" y="-284.55" font-family="Consolas" font-size="11.00">Group()</text>
<text text-anchor="start" x="205" y="-267.55" font-family="Consolas" font-size="11.00">+</text>
<text text-anchor="start" x="215" y="-267.55" font-family="Consolas" font-size="11.00">Group()</text>
<text text-anchor="start" x="205" y="-250.55" font-family="Consolas" font-size="11.00">+</text>
<text text-anchor="start" x="215" y="-250.55" font-family="Consolas" font-size="11.00">operator=()</text>
<text text-anchor="start" x="205" y="-233.55" font-family="Consolas" font-size="11.00">+</text>
<text text-anchor="start" x="215" y="-233.55" font-family="Consolas" font-size="11.00">operator=()</text>
<text text-anchor="start" x="205" y="-216.55" font-family="Consolas" font-size="11.00">+</text>
<text text-anchor="start" x="215" y="-216.55" font-family="Consolas" font-size="11.00">~Group()</text>
<text text-anchor="start" x="205" y="-199.55" font-family="Consolas" font-size="11.00">+</text>
<text text-anchor="start" x="215" y="-199.55" font-family="Consolas" font-size="11.00">initialize()</text>
<text text-anchor="start" x="205" y="-182.55" font-family="Consolas" font-size="11.00">+</text>
<text text-anchor="start" x="215" y="-182.55" font-family="Consolas" font-size="11.00">get_pool()</text>
<text text-anchor="start" x="205" y="-165.55" font-family="Consolas" font-size="11.00">+</text>
<text text-anchor="start" x="215" y="-165.55" font-family="Consolas" font-size="11.00">print()</text>
<polygon fill="#666666" stroke="#666666" points="201,-348 201,-348 291,-348 291,-348 201,-348"/>
<polygon fill="#666666" stroke="#666666" points="201,-331 201,-331 213,-331 213,-331 201,-331"/>
<polygon fill="#666666" stroke="#666666" points="213,-331 213,-331 291,-331 291,-331 213,-331"/>
<polygon fill="none" stroke="#666666" points="201,-159 201,-367 291,-367 291,-159 201,-159"/>
</a>
</g>
</g>
<!-- Node3 -->
<g id="Node000003" class="node">
<title>Node3</title>
<g id="a_Node000003"><a xlink:href="../../de/d01/class_custom_node_group.html" target="_top" xlink:title="The CustomNodeGroup class.">
<polygon fill="white" stroke="none" points="120,-97.5 0,-97.5 0,-25.5 120,-25.5 120,-97.5"/>
<text text-anchor="start" x="15" y="-83.05" font-family="Consolas" font-size="11.00">CustomNodeGroup</text>
<text text-anchor="start" x="57" y="-66.05" font-family="Consolas" font-size="11.00"> </text>
<text text-anchor="start" x="4" y="-49.05" font-family="Consolas" font-size="11.00">+</text>
<text text-anchor="start" x="14" y="-49.05" font-family="Consolas" font-size="11.00">CustomNodeGroup()</text>
<text text-anchor="start" x="4" y="-32.05" font-family="Consolas" font-size="11.00">+</text>
<text text-anchor="start" x="14" y="-32.05" font-family="Consolas" font-size="11.00">initialize()</text>
<polygon fill="#666666" stroke="#666666" points="0,-78.5 0,-78.5 120,-78.5 120,-78.5 0,-78.5"/>
<polygon fill="#666666" stroke="#666666" points="0,-61.5 0,-61.5 120,-61.5 120,-61.5 0,-61.5"/>
<polygon fill="none" stroke="#666666" points="0,-25.5 0,-97.5 120,-97.5 120,-25.5 0,-25.5"/>
</a>
</g>
</g>
<!-- Node1&#45;&gt;Node3 -->
<g id="edge2_Node000001_Node000003" class="edge">
<title>Node1&#45;&gt;Node3</title>
<g id="a_edge2_Node000001_Node000003"><a xlink:title=" ">
<path fill="none" stroke="#63b8ff" d="M193.97,-206.2C161.41,-171.27 120.46,-127.34 92.46,-97.31"/>
<polygon fill="none" stroke="#63b8ff" points="190.83,-208.03 200.21,-212.96 195.95,-203.26 190.83,-208.03"/>
</a>
</g>
</g>
<!-- Node4 -->
<g id="Node000004" class="node">
<title>Node4</title>
<g id="a_Node000004"><a xlink:href="../../df/dd2/class_element_group.html" target="_top" xlink:title="The ElementGroup class.">
<polygon fill="white" stroke="none" points="240,-106 138,-106 138,-17 240,-17 240,-106"/>
<text text-anchor="start" x="153" y="-91.55" font-family="Consolas" font-size="11.00">ElementGroup</text>
<text text-anchor="start" x="186" y="-74.55" font-family="Consolas" font-size="11.00"> </text>
<text text-anchor="start" x="142" y="-57.55" font-family="Consolas" font-size="11.00">+</text>
<text text-anchor="start" x="152" y="-57.55" font-family="Consolas" font-size="11.00">ElementGroup()</text>
<text text-anchor="start" x="142" y="-40.55" font-family="Consolas" font-size="11.00">+</text>
<text text-anchor="start" x="152" y="-40.55" font-family="Consolas" font-size="11.00">initialize()</text>
<text text-anchor="start" x="142" y="-23.55" font-family="Consolas" font-size="11.00">+</text>
<text text-anchor="start" x="152" y="-23.55" font-family="Consolas" font-size="11.00">print()</text>
<polygon fill="#666666" stroke="#666666" points="138,-87 138,-87 240,-87 240,-87 138,-87"/>
<polygon fill="#666666" stroke="#666666" points="138,-70 138,-70 240,-70 240,-70 138,-70"/>
<polygon fill="none" stroke="#666666" points="138,-17 138,-106 240,-106 240,-17 138,-17"/>
</a>
</g>
</g>
<!-- Node1&#45;&gt;Node4 -->
<g id="edge3_Node000001_Node000004" class="edge">
<title>Node1&#45;&gt;Node4</title>
<g id="a_edge3_Node000001_Node000004"><a xlink:title=" ">
<path fill="none" stroke="#63b8ff" d="M213.68,-148.9C209.3,-133.54 205.03,-118.61 201.32,-105.61"/>
<polygon fill="none" stroke="#63b8ff" points="210.47,-149.38 216.58,-158.04 217.2,-147.46 210.47,-149.38"/>
</a>
</g>
</g>
<!-- Node5 -->
<g id="Node000005" class="node">
<title>Node5</title>
<g id="a_Node000005"><a xlink:href="../../dd/ddb/class_group_group.html" target="_top" xlink:title="The GroupGroup class.">
<polygon fill="white" stroke="none" points="348,-97.5 258,-97.5 258,-25.5 348,-25.5 348,-97.5"/>
<text text-anchor="start" x="273" y="-83.05" font-family="Consolas" font-size="11.00">GroupGroup</text>
<text text-anchor="start" x="300" y="-66.05" font-family="Consolas" font-size="11.00"> </text>
<text text-anchor="start" x="262" y="-49.05" font-family="Consolas" font-size="11.00">+</text>
<text text-anchor="start" x="272" y="-49.05" font-family="Consolas" font-size="11.00">GroupGroup()</text>
<text text-anchor="start" x="262" y="-32.05" font-family="Consolas" font-size="11.00">+</text>
<text text-anchor="start" x="272" y="-32.05" font-family="Consolas" font-size="11.00">initialize()</text>
<polygon fill="#666666" stroke="#666666" points="258,-78.5 258,-78.5 348,-78.5 348,-78.5 258,-78.5"/>
<polygon fill="#666666" stroke="#666666" points="258,-61.5 258,-61.5 348,-61.5 348,-61.5 258,-61.5"/>
<polygon fill="none" stroke="#666666" points="258,-25.5 258,-97.5 348,-97.5 348,-25.5 258,-25.5"/>
</a>
</g>
</g>
<!-- Node1&#45;&gt;Node5 -->
<g id="edge4_Node000001_Node000005" class="edge">
<title>Node1&#45;&gt;Node5</title>
<g id="a_edge4_Node000001_Node000005"><a xlink:title=" ">
<path fill="none" stroke="#63b8ff" d="M278.39,-148.62C283.73,-129.96 288.87,-111.94 293.07,-97.26"/>
<polygon fill="none" stroke="#63b8ff" points="274.8,-147.46 275.42,-158.04 281.53,-149.38 274.8,-147.46"/>
</a>
</g>
</g>
<!-- Node6 -->
<g id="Node000006" class="node">
<title>Node6</title>
<g id="a_Node000006"><a xlink:href="../../d1/ddc/class_node_group.html" target="_top" xlink:title="The NodeGroup class.">
<polygon fill="white" stroke="none" points="456,-123 366,-123 366,0 456,0 456,-123"/>
<text text-anchor="start" x="384" y="-108.55" font-family="Consolas" font-size="11.00">NodeGroup</text>
<text text-anchor="start" x="408" y="-91.55" font-family="Consolas" font-size="11.00"> </text>
<text text-anchor="start" x="370" y="-74.55" font-family="Consolas" font-size="11.00">+</text>
<text text-anchor="start" x="380" y="-74.55" font-family="Consolas" font-size="11.00">NodeGroup()</text>
<text text-anchor="start" x="370" y="-57.55" font-family="Consolas" font-size="11.00">+</text>
<text text-anchor="start" x="380" y="-57.55" font-family="Consolas" font-size="11.00">NodeGroup()</text>
<text text-anchor="start" x="370" y="-40.55" font-family="Consolas" font-size="11.00">+</text>
<text text-anchor="start" x="380" y="-40.55" font-family="Consolas" font-size="11.00">NodeGroup()</text>
<text text-anchor="start" x="370" y="-23.55" font-family="Consolas" font-size="11.00">+</text>
<text text-anchor="start" x="380" y="-23.55" font-family="Consolas" font-size="11.00">NodeGroup()</text>
<text text-anchor="start" x="370" y="-6.55" font-family="Consolas" font-size="11.00">+</text>
<text text-anchor="start" x="380" y="-6.55" font-family="Consolas" font-size="11.00">initialize()</text>
<polygon fill="#666666" stroke="#666666" points="366,-104 366,-104 456,-104 456,-104 366,-104"/>
<polygon fill="#666666" stroke="#666666" points="366,-87 366,-87 456,-87 456,-87 366,-87"/>
<polygon fill="none" stroke="#666666" points="366,0 366,-123 456,-123 456,0 366,0"/>
</a>
</g>
</g>
<!-- Node1&#45;&gt;Node6 -->
<g id="edge5_Node000001_Node000006" class="edge">
<title>Node1&#45;&gt;Node6</title>
<g id="a_edge5_Node000001_Node000006"><a xlink:title=" ">
<path fill="none" stroke="#63b8ff" d="M297.86,-199.3C319.77,-172.81 345.04,-142.25 366.14,-116.74"/>
<polygon fill="none" stroke="#63b8ff" points="294.55,-196.81 290.87,-206.75 299.94,-201.27 294.55,-196.81"/>
</a>
</g>
</g>
<!-- Node2 -->
<g id="Node000002" class="node">
<title>Node2</title>
<g id="a_Node000002"><a xlink:href="../../d0/d57/class_tag.html" target="_top" xlink:title="A base Tag class.">
<polygon fill="white" stroke="none" points="291,-696 201,-696 201,-403 291,-403 291,-696"/>
<text text-anchor="start" x="237" y="-681.55" font-family="Consolas" font-size="11.00">Tag</text>
<text text-anchor="start" x="243" y="-664.55" font-family="Consolas" font-size="11.00"> </text>
<text text-anchor="start" x="205" y="-647.55" font-family="Consolas" font-size="11.00">+</text>
<text text-anchor="start" x="215" y="-647.55" font-family="Consolas" font-size="11.00">Tag()</text>
<text text-anchor="start" x="205" y="-630.55" font-family="Consolas" font-size="11.00">+</text>
<text text-anchor="start" x="215" y="-630.55" font-family="Consolas" font-size="11.00">Tag()</text>
<text text-anchor="start" x="205" y="-613.55" font-family="Consolas" font-size="11.00">+</text>
<text text-anchor="start" x="215" y="-613.55" font-family="Consolas" font-size="11.00">Tag()</text>
<text text-anchor="start" x="205" y="-596.55" font-family="Consolas" font-size="11.00">+</text>
<text text-anchor="start" x="215" y="-596.55" font-family="Consolas" font-size="11.00">operator=()</text>
<text text-anchor="start" x="205" y="-579.55" font-family="Consolas" font-size="11.00">+</text>
<text text-anchor="start" x="215" y="-579.55" font-family="Consolas" font-size="11.00">operator=()</text>
<text text-anchor="start" x="205" y="-562.55" font-family="Consolas" font-size="11.00">+</text>
<text text-anchor="start" x="215" y="-562.55" font-family="Consolas" font-size="11.00">~Tag()</text>
<text text-anchor="start" x="205" y="-545.55" font-family="Consolas" font-size="11.00">+</text>
<text text-anchor="start" x="215" y="-545.55" font-family="Consolas" font-size="11.00">set_tag()</text>
<text text-anchor="start" x="205" y="-528.55" font-family="Consolas" font-size="11.00">+</text>
<text text-anchor="start" x="215" y="-528.55" font-family="Consolas" font-size="11.00">get_tag()</text>
<text text-anchor="start" x="205" y="-511.55" font-family="Consolas" font-size="11.00">+</text>
<text text-anchor="start" x="215" y="-511.55" font-family="Consolas" font-size="11.00">enable()</text>
<text text-anchor="start" x="205" y="-494.55" font-family="Consolas" font-size="11.00">+</text>
<text text-anchor="start" x="215" y="-494.55" font-family="Consolas" font-size="11.00">disable()</text>
<text text-anchor="start" x="205" y="-477.55" font-family="Consolas" font-size="11.00">+</text>
<text text-anchor="start" x="215" y="-477.55" font-family="Consolas" font-size="11.00">guard()</text>
<text text-anchor="start" x="205" y="-460.55" font-family="Consolas" font-size="11.00">+</text>
<text text-anchor="start" x="215" y="-460.55" font-family="Consolas" font-size="11.00">unguard()</text>
<text text-anchor="start" x="205" y="-443.55" font-family="Consolas" font-size="11.00">+</text>
<text text-anchor="start" x="215" y="-443.55" font-family="Consolas" font-size="11.00">is_active()</text>
<text text-anchor="start" x="205" y="-426.55" font-family="Consolas" font-size="11.00">+</text>
<text text-anchor="start" x="215" y="-426.55" font-family="Consolas" font-size="11.00">is_guarded()</text>
<text text-anchor="start" x="205" y="-409.55" font-family="Consolas" font-size="11.00">+</text>
<text text-anchor="start" x="215" y="-409.55" font-family="Consolas" font-size="11.00">print()</text>
<polygon fill="#666666" stroke="#666666" points="201,-677 201,-677 291,-677 291,-677 201,-677"/>
<polygon fill="#666666" stroke="#666666" points="201,-660 201,-660 291,-660 291,-660 201,-660"/>
<polygon fill="none" stroke="#666666" points="201,-403 201,-696 291,-696 291,-403 201,-403"/>
</a>
</g>
</g>
<!-- Node2&#45;&gt;Node1 -->
<g id="edge1_Node000001_Node000002" class="edge">
<title>Node2&#45;&gt;Node1</title>
<g id="a_edge1_Node000001_Node000002"><a xlink:title=" ">
<path fill="none" stroke="#63b8ff" d="M246,-392.37C246,-383.74 246,-375.17 246,-366.8"/>
<polygon fill="none" stroke="#63b8ff" points="242.5,-392.33 246,-402.33 249.5,-392.33 242.5,-392.33"/>
</a>
</g>
</g>
</g>
</svg>

<g id="navigator" transform="translate(0 0)" fill="#404254">
  <rect fill="#f2f5e9" fill-opacity="0.5" stroke="#606060" stroke-width=".5" x="0" y="0" width="60" height="60"/>
  <use id="zoomplus" xlink:href="#zoomPlus" x="17" y="9" onmousedown="handleZoom(evt,'in')"/>
  <use id="zoomminus" xlink:href="#zoomMin" x="42" y="9" onmousedown="handleZoom(evt,'out')"/>
  <use id="reset" xlink:href="#resetDef" x="30" y="36" onmousedown="handleReset()"/>
   <use id="arrowup" xlink:href="#arrowUp" x="0" y="0" onmousedown="handlePan(0,-1)"/>
  <use id="arrowright" xlink:href="#arrowRight" x="0" y="0" onmousedown="handlePan(1,0)"/>
  <use id="arrowdown" xlink:href="#arrowDown" x="0" y="0" onmousedown="handlePan(0,1)"/>
  <use id="arrowleft" xlink:href="#arrowLeft" x="0" y="0" onmousedown="handlePan(-1,0)"/>
</g>
<svg viewBox="0 0 15 15" width="100%" height="30px" preserveAspectRatio="xMaxYMin meet">
 <g id="arrow_out" transform="scale(0.3 0.3)">
  <a xlink:href="class_group__inherit__graph_org.svg" target="_base">
   <rect id="button" ry="5" rx="5" y="6" x="6" height="38" width="38"
        fill="#f2f5e9" fill-opacity="0.5" stroke="#606060" stroke-width="1.0"/>
   <path id="arrow"
     d="M 11.500037,31.436501 C 11.940474,20.09759 22.043105,11.32322 32.158766,21.979434 L 37.068811,17.246167 C 37.068811,17.246167 37.088388,32 37.088388,32 L 22.160133,31.978069 C 22.160133,31.978069 26.997745,27.140456 26.997745,27.140456 C 18.528582,18.264221 13.291696,25.230495 11.500037,31.436501 z"
     style="fill:#404040;"/>
  </a>
 </g>
</svg>

<style type='text/css'>
<![CDATA[
[data-mouse-over-selected='false'] { opacity: 0.7; }
[data-mouse-over-selected='true']  { opacity: 1.0; }
]]>
</style>
<script type="application/ecmascript"><![CDATA[
document.addEventListener('DOMContentLoaded', (event) => {
  highlightEdges();
  highlightAdjacentNodes();
});
]]></script>
</svg>
