<?xml version="1.0" encoding="UTF-8" standalone="no"?>
<!DOCTYPE svg PUBLIC "-//W3C//DTD SVG 1.1//EN"
 "http://www.w3.org/Graphics/SVG/1.1/DTD/svg11.dtd">
<!-- Generated by graphviz version 8.1.0 (20230707.0739)
 -->
<!-- Title: SupportMotion Pages: 1 -->
<!--zoomable 1322 -->

<svg id="main" version="1.1" xmlns="http://www.w3.org/2000/svg" xmlns:xlink="http://www.w3.org/1999/xlink" xml:space="preserve" onload="init(evt)">
<style type="text/css"><![CDATA[
.node, .edge {opacity: 0.7;}
.node.selected, .edge.selected {opacity: 1;}
.edge:hover path { stroke: red; }
.edge:hover polygon { stroke: red; fill: red; }
]]></style>

<defs>
  <circle id="rim" cx="0" cy="0" r="7"/>
  <circle id="rim2" cx="0" cy="0" r="3.5"/>
  <g id="zoomPlus">
    <use xlink:href="#rim" fill="#404040"><set attributeName="fill" to="#808080" begin="zoomplus.mouseover" end="zoomplus.mouseout"/></use>
    <path d="M-4,0h8M0,-4v8" fill="none" stroke="white" stroke-width="1.5" pointer-events="none"/>
  </g>
  <g id="zoomMin">
    <use xlink:href="#rim" fill="#404040"><set attributeName="fill" to="#808080" begin="zoomminus.mouseover" end="zoomminus.mouseout"/></use>
    <path d="M-4,0h8" fill="none" stroke="white" stroke-width="1.5" pointer-events="none"/>
  </g>
  <g id="arrowUp" transform="translate(30 24)">
    <use xlink:href="#rim"/>
    <path pointer-events="none" fill="none" stroke="white" stroke-width="1.5" d="M0,-3.0v7 M-2.5,-0.5L0,-3.0L2.5,-0.5"/>
  </g>
  <g id="arrowRight" transform="rotate(90) translate(36 -43)">
    <use xlink:href="#rim"/>
    <path pointer-events="none" fill="none" stroke="white" stroke-width="1.5" d="M0,-3.0v7 M-2.5,-0.5L0,-3.0L2.5,-0.5"/>
  </g>
  <g id="arrowDown" transform="rotate(180) translate(-30 -48)">
    <use xlink:href="#rim"/>
    <path pointer-events="none" fill="none" stroke="white" stroke-width="1.5" d="M0,-3.0v7 M-2.5,-0.5L0,-3.0L2.5,-0.5"/>
  </g>
  <g id="arrowLeft" transform="rotate(270) translate(-36 17)">
    <use xlink:href="#rim"/>
    <path pointer-events="none" fill="none" stroke="white" stroke-width="1.5" d="M0,-3.0v7 M-2.5,-0.5L0,-3.0L2.5,-0.5"/>
  </g>
  <g id="resetDef">
    <use xlink:href="#rim2" fill="#404040"><set attributeName="fill" to="#808080" begin="reset.mouseover" end="reset.mouseout"/></use>
  </g>
</defs>
<script type="application/ecmascript">
var viewWidth = 400;
var viewHeight = 1322;
var sectionId = 'dynsection-0';
</script>
<script type="application/ecmascript" xlink:href="../../svg.min.js"/>
<svg id="graph" class="graph">
<g id="viewport">
<title>SupportMotion</title>
<!-- Node1 -->
<g id="Node000001" class="node">
<title>Node1</title>
<g id="a_Node000001"><a xlink:title="A SupportAcceleration class.">
<polygon fill="#999999" stroke="none" points="258,-214 150,-214 150,-125 258,-125 258,-214"/>
<text text-anchor="start" x="165" y="-199.55" font-family="Consolas" font-size="11.00">SupportMotion</text>
<text text-anchor="start" x="154" y="-182.55" font-family="Consolas" font-size="11.00">#</text>
<text text-anchor="start" x="164" y="-182.55" font-family="Consolas" font-size="11.00">encoding</text>
<text text-anchor="start" x="154" y="-165.55" font-family="Consolas" font-size="11.00">+</text>
<text text-anchor="start" x="164" y="-165.55" font-family="Consolas" font-size="11.00">SupportMotion()</text>
<text text-anchor="start" x="154" y="-148.55" font-family="Consolas" font-size="11.00">+</text>
<text text-anchor="start" x="164" y="-148.55" font-family="Consolas" font-size="11.00">SupportMotion()</text>
<text text-anchor="start" x="154" y="-131.55" font-family="Consolas" font-size="11.00">+</text>
<text text-anchor="start" x="164" y="-131.55" font-family="Consolas" font-size="11.00">initialize()</text>
<polygon fill="#666666" stroke="#666666" points="150,-195 150,-195 258,-195 258,-195 150,-195"/>
<polygon fill="#666666" stroke="#666666" points="150,-178 150,-178 162,-178 162,-178 150,-178"/>
<polygon fill="#666666" stroke="#666666" points="162,-178 162,-178 258,-178 258,-178 162,-178"/>
<polygon fill="none" stroke="#666666" points="150,-125 150,-214 258,-214 258,-125 150,-125"/>
</a>
</g>
</g>
<!-- Node5 -->
<g id="Node000005" class="node">
<title>Node5</title>
<g id="a_Node000005"><a xlink:href="../../d1/d73/class_support_acceleration.html" target="_top" xlink:title=" ">
<polygon fill="white" stroke="none" points="124,-89 0,-89 0,0 124,0 124,-89"/>
<text text-anchor="start" x="5" y="-74.55" font-family="Consolas" font-size="11.00">SupportAcceleration</text>
<text text-anchor="start" x="59" y="-57.55" font-family="Consolas" font-size="11.00"> </text>
<text text-anchor="start" x="8" y="-40.55" font-family="Consolas" font-size="11.00">+</text>
<text text-anchor="start" x="22" y="-40.55" font-family="Consolas" font-size="11.00">process()</text>
<text text-anchor="start" x="8" y="-23.55" font-family="Consolas" font-size="11.00">+</text>
<text text-anchor="start" x="22" y="-23.55" font-family="Consolas" font-size="11.00">SupportMotion()</text>
<text text-anchor="start" x="8" y="-6.55" font-family="Consolas" font-size="11.00">+</text>
<text text-anchor="start" x="22" y="-6.55" font-family="Consolas" font-size="11.00">SupportMotion()</text>
<polygon fill="#666666" stroke="#666666" points="0,-70 0,-70 124,-70 124,-70 0,-70"/>
<polygon fill="#666666" stroke="#666666" points="0,-53 0,-53 124,-53 124,-53 0,-53"/>
<polygon fill="none" stroke="#666666" points="0,0 0,-89 124,-89 124,0 0,0"/>
</a>
</g>
</g>
<!-- Node1&#45;&gt;Node5 -->
<g id="edge4_Node000001_Node000005" class="edge">
<title>Node1&#45;&gt;Node5</title>
<g id="a_edge4_Node000001_Node000005"><a xlink:title=" ">
<path fill="none" stroke="#63b8ff" d="M145.87,-118.15C134.66,-108.44 123.01,-98.35 112.09,-88.89"/>
<polygon fill="none" stroke="#63b8ff" points="143.09,-121.23 152.94,-125.13 147.67,-115.94 143.09,-121.23"/>
</a>
</g>
</g>
<!-- Node6 -->
<g id="Node000006" class="node">
<title>Node6</title>
<g id="a_Node000006"><a xlink:href="../../da/d11/class_support_displacement.html" target="_top" xlink:title=" ">
<polygon fill="white" stroke="none" points="266,-89 142,-89 142,0 266,0 266,-89"/>
<text text-anchor="start" x="147" y="-74.55" font-family="Consolas" font-size="11.00">SupportDisplacement</text>
<text text-anchor="start" x="201" y="-57.55" font-family="Consolas" font-size="11.00"> </text>
<text text-anchor="start" x="150" y="-40.55" font-family="Consolas" font-size="11.00">+</text>
<text text-anchor="start" x="164" y="-40.55" font-family="Consolas" font-size="11.00">process()</text>
<text text-anchor="start" x="150" y="-23.55" font-family="Consolas" font-size="11.00">+</text>
<text text-anchor="start" x="164" y="-23.55" font-family="Consolas" font-size="11.00">SupportMotion()</text>
<text text-anchor="start" x="150" y="-6.55" font-family="Consolas" font-size="11.00">+</text>
<text text-anchor="start" x="164" y="-6.55" font-family="Consolas" font-size="11.00">SupportMotion()</text>
<polygon fill="#666666" stroke="#666666" points="142,-70 142,-70 266,-70 266,-70 142,-70"/>
<polygon fill="#666666" stroke="#666666" points="142,-53 142,-53 266,-53 266,-53 142,-53"/>
<polygon fill="none" stroke="#666666" points="142,0 142,-89 266,-89 266,0 142,0"/>
</a>
</g>
</g>
<!-- Node1&#45;&gt;Node6 -->
<g id="edge5_Node000001_Node000006" class="edge">
<title>Node1&#45;&gt;Node6</title>
<g id="a_edge5_Node000001_Node000006"><a xlink:title=" ">
<path fill="none" stroke="#63b8ff" d="M204,-114.17C204,-105.71 204,-97.06 204,-88.89"/>
<polygon fill="none" stroke="#63b8ff" points="200.5,-114.13 204,-124.13 207.5,-114.13 200.5,-114.13"/>
</a>
</g>
</g>
<!-- Node7 -->
<g id="Node000007" class="node">
<title>Node7</title>
<g id="a_Node000007"><a xlink:href="../../d1/d63/class_support_velocity.html" target="_top" xlink:title=" ">
<polygon fill="white" stroke="none" points="392,-89 284,-89 284,0 392,0 392,-89"/>
<text text-anchor="start" x="293" y="-74.55" font-family="Consolas" font-size="11.00">SupportVelocity</text>
<text text-anchor="start" x="335" y="-57.55" font-family="Consolas" font-size="11.00"> </text>
<text text-anchor="start" x="288" y="-40.55" font-family="Consolas" font-size="11.00">+</text>
<text text-anchor="start" x="298" y="-40.55" font-family="Consolas" font-size="11.00">process()</text>
<text text-anchor="start" x="288" y="-23.55" font-family="Consolas" font-size="11.00">+</text>
<text text-anchor="start" x="298" y="-23.55" font-family="Consolas" font-size="11.00">SupportMotion()</text>
<text text-anchor="start" x="288" y="-6.55" font-family="Consolas" font-size="11.00">+</text>
<text text-anchor="start" x="298" y="-6.55" font-family="Consolas" font-size="11.00">SupportMotion()</text>
<polygon fill="#666666" stroke="#666666" points="284,-70 284,-70 392,-70 392,-70 284,-70"/>
<polygon fill="#666666" stroke="#666666" points="284,-53 284,-53 392,-53 392,-53 284,-53"/>
<polygon fill="none" stroke="#666666" points="284,0 284,-89 392,-89 392,0 284,0"/>
</a>
</g>
</g>
<!-- Node1&#45;&gt;Node7 -->
<g id="edge6_Node000001_Node000007" class="edge">
<title>Node1&#45;&gt;Node7</title>
<g id="a_edge6_Node000001_Node000007"><a xlink:title=" ">
<path fill="none" stroke="#63b8ff" d="M259.16,-117.87C269.64,-108.25 280.52,-98.26 290.73,-88.89"/>
<polygon fill="none" stroke="#63b8ff" points="257.24,-114.79 252.24,-124.13 261.98,-119.95 257.24,-114.79"/>
</a>
</g>
</g>
<!-- Node2 -->
<g id="Node000002" class="node">
<title>Node2</title>
<g id="a_Node000002"><a xlink:href="../../df/d07/class_load.html" target="_top" xlink:title="A Load class.">
<polygon fill="white" stroke="none" points="288,-540 120,-540 120,-250 288,-250 288,-540"/>
<text text-anchor="start" x="192" y="-525.55" font-family="Consolas" font-size="11.00">Load</text>
<text text-anchor="start" x="124" y="-508.55" font-family="Consolas" font-size="11.00">#</text>
<text text-anchor="start" x="134" y="-508.55" font-family="Consolas" font-size="11.00">mpdc_flag</text>
<text text-anchor="start" x="124" y="-491.55" font-family="Consolas" font-size="11.00">#</text>
<text text-anchor="start" x="134" y="-491.55" font-family="Consolas" font-size="11.00">pattern</text>
<text text-anchor="start" x="124" y="-474.55" font-family="Consolas" font-size="11.00">#</text>
<text text-anchor="start" x="134" y="-474.55" font-family="Consolas" font-size="11.00">trial_load</text>
<text text-anchor="start" x="124" y="-457.55" font-family="Consolas" font-size="11.00">#</text>
<text text-anchor="start" x="134" y="-457.55" font-family="Consolas" font-size="11.00">trial_settlement</text>
<text text-anchor="start" x="124" y="-440.55" font-family="Consolas" font-size="11.00">#</text>
<text text-anchor="start" x="134" y="-440.55" font-family="Consolas" font-size="11.00">multiplier</text>
<text text-anchor="start" x="124" y="-423.55" font-family="Consolas" font-size="11.00">+</text>
<text text-anchor="start" x="134" y="-423.55" font-family="Consolas" font-size="11.00">Load()</text>
<text text-anchor="start" x="124" y="-406.55" font-family="Consolas" font-size="11.00">+</text>
<text text-anchor="start" x="134" y="-406.55" font-family="Consolas" font-size="11.00">Load()</text>
<text text-anchor="start" x="124" y="-389.55" font-family="Consolas" font-size="11.00">+</text>
<text text-anchor="start" x="134" y="-389.55" font-family="Consolas" font-size="11.00">Load()</text>
<text text-anchor="start" x="124" y="-372.55" font-family="Consolas" font-size="11.00">+</text>
<text text-anchor="start" x="134" y="-372.55" font-family="Consolas" font-size="11.00">operator=()</text>
<text text-anchor="start" x="124" y="-355.55" font-family="Consolas" font-size="11.00">+</text>
<text text-anchor="start" x="134" y="-355.55" font-family="Consolas" font-size="11.00">operator=()</text>
<text text-anchor="start" x="124" y="-338.55" font-family="Consolas" font-size="11.00">+</text>
<text text-anchor="start" x="134" y="-338.55" font-family="Consolas" font-size="11.00">~Load()</text>
<text text-anchor="start" x="124" y="-321.55" font-family="Consolas" font-size="11.00">+</text>
<text text-anchor="start" x="134" y="-321.55" font-family="Consolas" font-size="11.00">enable_displacement</text>
<text text-anchor="start" x="134" y="-308.05" font-family="Consolas" font-size="11.00">_control()</text>
<text text-anchor="start" x="124" y="-290.55" font-family="Consolas" font-size="11.00">+</text>
<text text-anchor="start" x="134" y="-290.55" font-family="Consolas" font-size="11.00">if_displacement_control()</text>
<text text-anchor="start" x="124" y="-273.55" font-family="Consolas" font-size="11.00">+</text>
<text text-anchor="start" x="134" y="-273.55" font-family="Consolas" font-size="11.00">get_trial_load()</text>
<text text-anchor="start" x="124" y="-256.55" font-family="Consolas" font-size="11.00">+</text>
<text text-anchor="start" x="134" y="-256.55" font-family="Consolas" font-size="11.00">get_trial_settlement()</text>
<polygon fill="#666666" stroke="#666666" points="120,-521 120,-521 288,-521 288,-521 120,-521"/>
<polygon fill="#666666" stroke="#666666" points="120,-436 120,-436 132,-436 132,-436 120,-436"/>
<polygon fill="#666666" stroke="#666666" points="132,-436 132,-436 288,-436 288,-436 132,-436"/>
<polygon fill="none" stroke="#666666" points="120,-250 120,-540 288,-540 288,-250 120,-250"/>
</a>
</g>
</g>
<!-- Node2&#45;&gt;Node1 -->
<g id="edge1_Node000001_Node000002" class="edge">
<title>Node2&#45;&gt;Node1</title>
<g id="a_edge1_Node000001_Node000002"><a xlink:title=" ">
<path fill="none" stroke="#63b8ff" d="M204,-239.4C204,-230.32 204,-221.69 204,-213.8"/>
<polygon fill="none" stroke="#63b8ff" points="200.5,-239.24 204,-249.24 207.5,-239.24 200.5,-239.24"/>
</a>
</g>
</g>
<!-- Node3 -->
<g id="Node000003" class="node">
<title>Node3</title>
<g id="a_Node000003"><a xlink:href="../../da/d44/class_conditional_modifier.html" target="_top" xlink:title="A ConditionalModifier class.">
<polygon fill="white" stroke="none" points="279,-985 129,-985 129,-576 279,-576 279,-985"/>
<text text-anchor="start" x="147" y="-970.55" font-family="Consolas" font-size="11.00">ConditionalModifier</text>
<text text-anchor="start" x="133" y="-953.55" font-family="Consolas" font-size="11.00">#</text>
<text text-anchor="start" x="143" y="-953.55" font-family="Consolas" font-size="11.00">initialized</text>
<text text-anchor="start" x="133" y="-936.55" font-family="Consolas" font-size="11.00">#</text>
<text text-anchor="start" x="143" y="-936.55" font-family="Consolas" font-size="11.00">connected</text>
<text text-anchor="start" x="133" y="-919.55" font-family="Consolas" font-size="11.00">#</text>
<text text-anchor="start" x="143" y="-919.55" font-family="Consolas" font-size="11.00">start_step</text>
<text text-anchor="start" x="133" y="-902.55" font-family="Consolas" font-size="11.00">#</text>
<text text-anchor="start" x="143" y="-902.55" font-family="Consolas" font-size="11.00">end_step</text>
<text text-anchor="start" x="133" y="-885.55" font-family="Consolas" font-size="11.00">#</text>
<text text-anchor="start" x="143" y="-885.55" font-family="Consolas" font-size="11.00">amplitude_tag</text>
<text text-anchor="start" x="133" y="-868.55" font-family="Consolas" font-size="11.00">#</text>
<text text-anchor="start" x="143" y="-868.55" font-family="Consolas" font-size="11.00">node_encoding</text>
<text text-anchor="start" x="133" y="-851.55" font-family="Consolas" font-size="11.00">#</text>
<text text-anchor="start" x="143" y="-851.55" font-family="Consolas" font-size="11.00">dof_reference</text>
<text text-anchor="start" x="133" y="-834.55" font-family="Consolas" font-size="11.00">#</text>
<text text-anchor="start" x="143" y="-834.55" font-family="Consolas" font-size="11.00">dof_encoding</text>
<text text-anchor="start" x="133" y="-817.55" font-family="Consolas" font-size="11.00">#</text>
<text text-anchor="start" x="143" y="-817.55" font-family="Consolas" font-size="11.00">magnitude</text>
<text text-anchor="start" x="133" y="-800.55" font-family="Consolas" font-size="11.00">+</text>
<text text-anchor="start" x="143" y="-800.55" font-family="Consolas" font-size="11.00">ConditionalModifier()</text>
<text text-anchor="start" x="133" y="-783.55" font-family="Consolas" font-size="11.00">+</text>
<text text-anchor="start" x="143" y="-783.55" font-family="Consolas" font-size="11.00">initialize()</text>
<text text-anchor="start" x="133" y="-766.55" font-family="Consolas" font-size="11.00">+</text>
<text text-anchor="start" x="143" y="-766.55" font-family="Consolas" font-size="11.00">process()</text>
<text text-anchor="start" x="133" y="-749.55" font-family="Consolas" font-size="11.00">+</text>
<text text-anchor="start" x="143" y="-749.55" font-family="Consolas" font-size="11.00">process_resistance()</text>
<text text-anchor="start" x="133" y="-732.55" font-family="Consolas" font-size="11.00">+</text>
<text text-anchor="start" x="143" y="-732.55" font-family="Consolas" font-size="11.00">stage()</text>
<text text-anchor="start" x="133" y="-715.55" font-family="Consolas" font-size="11.00">+</text>
<text text-anchor="start" x="143" y="-715.55" font-family="Consolas" font-size="11.00">get_node_encoding()</text>
<text text-anchor="start" x="133" y="-698.55" font-family="Consolas" font-size="11.00">+</text>
<text text-anchor="start" x="143" y="-698.55" font-family="Consolas" font-size="11.00">get_dof_encoding()</text>
<text text-anchor="start" x="133" y="-681.55" font-family="Consolas" font-size="11.00">+</text>
<text text-anchor="start" x="143" y="-681.55" font-family="Consolas" font-size="11.00">set_initialized()</text>
<text text-anchor="start" x="133" y="-664.55" font-family="Consolas" font-size="11.00">+</text>
<text text-anchor="start" x="143" y="-664.55" font-family="Consolas" font-size="11.00">is_initialized()</text>
<text text-anchor="start" x="133" y="-647.55" font-family="Consolas" font-size="11.00">+</text>
<text text-anchor="start" x="143" y="-647.55" font-family="Consolas" font-size="11.00">set_start_step()</text>
<text text-anchor="start" x="143" y="-630.55" font-family="Consolas" font-size="11.00">and 10 more...</text>
<text text-anchor="start" x="133" y="-613.55" font-family="Consolas" font-size="11.00">#</text>
<text text-anchor="start" x="143" y="-613.55" font-family="Consolas" font-size="11.00">get_nodal_active_dof()</text>
<text text-anchor="start" x="133" y="-596.55" font-family="Consolas" font-size="11.00">#</text>
<text text-anchor="start" x="143" y="-596.55" font-family="Consolas" font-size="11.00">get_all_nodal_active</text>
<text text-anchor="start" x="143" y="-583.05" font-family="Consolas" font-size="11.00">_dof()</text>
<polygon fill="#666666" stroke="#666666" points="129,-966 129,-966 279,-966 279,-966 129,-966"/>
<polygon fill="#666666" stroke="#666666" points="129,-813 129,-813 141,-813 141,-813 129,-813"/>
<polygon fill="#666666" stroke="#666666" points="141,-813 141,-813 279,-813 279,-813 141,-813"/>
<polygon fill="none" stroke="#666666" points="129,-576 129,-985 279,-985 279,-576 129,-576"/>
</a>
</g>
</g>
<!-- Node3&#45;&gt;Node2 -->
<g id="edge2_Node000002_Node000003" class="edge">
<title>Node3&#45;&gt;Node2</title>
<g id="a_edge2_Node000002_Node000003"><a xlink:title=" ">
<path fill="none" stroke="#63b8ff" d="M204,-565.31C204,-556.71 204,-548.16 204,-539.75"/>
<polygon fill="none" stroke="#63b8ff" points="200.5,-565.24 204,-575.24 207.5,-565.24 200.5,-565.24"/>
</a>
</g>
</g>
<!-- Node4 -->
<g id="Node000004" class="node">
<title>Node4</title>
<g id="a_Node000004"><a xlink:href="../../d0/d57/class_tag.html" target="_top" xlink:title="A base Tag class.">
<polygon fill="white" stroke="none" points="249,-1314 159,-1314 159,-1021 249,-1021 249,-1314"/>
<text text-anchor="start" x="195" y="-1299.55" font-family="Consolas" font-size="11.00">Tag</text>
<text text-anchor="start" x="201" y="-1282.55" font-family="Consolas" font-size="11.00"> </text>
<text text-anchor="start" x="163" y="-1265.55" font-family="Consolas" font-size="11.00">+</text>
<text text-anchor="start" x="173" y="-1265.55" font-family="Consolas" font-size="11.00">Tag()</text>
<text text-anchor="start" x="163" y="-1248.55" font-family="Consolas" font-size="11.00">+</text>
<text text-anchor="start" x="173" y="-1248.55" font-family="Consolas" font-size="11.00">Tag()</text>
<text text-anchor="start" x="163" y="-1231.55" font-family="Consolas" font-size="11.00">+</text>
<text text-anchor="start" x="173" y="-1231.55" font-family="Consolas" font-size="11.00">Tag()</text>
<text text-anchor="start" x="163" y="-1214.55" font-family="Consolas" font-size="11.00">+</text>
<text text-anchor="start" x="173" y="-1214.55" font-family="Consolas" font-size="11.00">operator=()</text>
<text text-anchor="start" x="163" y="-1197.55" font-family="Consolas" font-size="11.00">+</text>
<text text-anchor="start" x="173" y="-1197.55" font-family="Consolas" font-size="11.00">operator=()</text>
<text text-anchor="start" x="163" y="-1180.55" font-family="Consolas" font-size="11.00">+</text>
<text text-anchor="start" x="173" y="-1180.55" font-family="Consolas" font-size="11.00">~Tag()</text>
<text text-anchor="start" x="163" y="-1163.55" font-family="Consolas" font-size="11.00">+</text>
<text text-anchor="start" x="173" y="-1163.55" font-family="Consolas" font-size="11.00">set_tag()</text>
<text text-anchor="start" x="163" y="-1146.55" font-family="Consolas" font-size="11.00">+</text>
<text text-anchor="start" x="173" y="-1146.55" font-family="Consolas" font-size="11.00">get_tag()</text>
<text text-anchor="start" x="163" y="-1129.55" font-family="Consolas" font-size="11.00">+</text>
<text text-anchor="start" x="173" y="-1129.55" font-family="Consolas" font-size="11.00">enable()</text>
<text text-anchor="start" x="163" y="-1112.55" font-family="Consolas" font-size="11.00">+</text>
<text text-anchor="start" x="173" y="-1112.55" font-family="Consolas" font-size="11.00">disable()</text>
<text text-anchor="start" x="163" y="-1095.55" font-family="Consolas" font-size="11.00">+</text>
<text text-anchor="start" x="173" y="-1095.55" font-family="Consolas" font-size="11.00">guard()</text>
<text text-anchor="start" x="163" y="-1078.55" font-family="Consolas" font-size="11.00">+</text>
<text text-anchor="start" x="173" y="-1078.55" font-family="Consolas" font-size="11.00">unguard()</text>
<text text-anchor="start" x="163" y="-1061.55" font-family="Consolas" font-size="11.00">+</text>
<text text-anchor="start" x="173" y="-1061.55" font-family="Consolas" font-size="11.00">is_active()</text>
<text text-anchor="start" x="163" y="-1044.55" font-family="Consolas" font-size="11.00">+</text>
<text text-anchor="start" x="173" y="-1044.55" font-family="Consolas" font-size="11.00">is_guarded()</text>
<text text-anchor="start" x="163" y="-1027.55" font-family="Consolas" font-size="11.00">+</text>
<text text-anchor="start" x="173" y="-1027.55" font-family="Consolas" font-size="11.00">print()</text>
<polygon fill="#666666" stroke="#666666" points="159,-1295 159,-1295 249,-1295 249,-1295 159,-1295"/>
<polygon fill="#666666" stroke="#666666" points="159,-1278 159,-1278 249,-1278 249,-1278 159,-1278"/>
<polygon fill="none" stroke="#666666" points="159,-1021 159,-1314 249,-1314 249,-1021 159,-1021"/>
</a>
</g>
</g>
<!-- Node4&#45;&gt;Node3 -->
<g id="edge3_Node000003_Node000004" class="edge">
<title>Node4&#45;&gt;Node3</title>
<g id="a_edge3_Node000003_Node000004"><a xlink:title=" ">
<path fill="none" stroke="#63b8ff" d="M204,-1010.25C204,-1001.86 204,-993.37 204,-984.86"/>
<polygon fill="none" stroke="#63b8ff" points="200.5,-1010.22 204,-1020.22 207.5,-1010.22 200.5,-1010.22"/>
</a>
</g>
</g>
</g>
</svg>

<g id="navigator" transform="translate(0 0)" fill="#404254">
  <rect fill="#f2f5e9" fill-opacity="0.5" stroke="#606060" stroke-width=".5" x="0" y="0" width="60" height="60"/>
  <use id="zoomplus" xlink:href="#zoomPlus" x="17" y="9" onmousedown="handleZoom(evt,'in')"/>
  <use id="zoomminus" xlink:href="#zoomMin" x="42" y="9" onmousedown="handleZoom(evt,'out')"/>
  <use id="reset" xlink:href="#resetDef" x="30" y="36" onmousedown="handleReset()"/>
   <use id="arrowup" xlink:href="#arrowUp" x="0" y="0" onmousedown="handlePan(0,-1)"/>
  <use id="arrowright" xlink:href="#arrowRight" x="0" y="0" onmousedown="handlePan(1,0)"/>
  <use id="arrowdown" xlink:href="#arrowDown" x="0" y="0" onmousedown="handlePan(0,1)"/>
  <use id="arrowleft" xlink:href="#arrowLeft" x="0" y="0" onmousedown="handlePan(-1,0)"/>
</g>
<svg viewBox="0 0 15 15" width="100%" height="30px" preserveAspectRatio="xMaxYMin meet">
 <g id="arrow_out" transform="scale(0.3 0.3)">
  <a xlink:href="class_support_motion__inherit__graph_org.svg" target="_base">
   <rect id="button" ry="5" rx="5" y="6" x="6" height="38" width="38"
        fill="#f2f5e9" fill-opacity="0.5" stroke="#606060" stroke-width="1.0"/>
   <path id="arrow"
     d="M 11.500037,31.436501 C 11.940474,20.09759 22.043105,11.32322 32.158766,21.979434 L 37.068811,17.246167 C 37.068811,17.246167 37.088388,32 37.088388,32 L 22.160133,31.978069 C 22.160133,31.978069 26.997745,27.140456 26.997745,27.140456 C 18.528582,18.264221 13.291696,25.230495 11.500037,31.436501 z"
     style="fill:#404040;"/>
  </a>
 </g>
</svg>

<style type='text/css'>
<![CDATA[
[data-mouse-over-selected='false'] { opacity: 0.7; }
[data-mouse-over-selected='true']  { opacity: 1.0; }
]]>
</style>
<script type="application/ecmascript"><![CDATA[
document.addEventListener('DOMContentLoaded', (event) => {
  highlightEdges();
  highlightAdjacentNodes();
});
]]></script>
</svg>
