<?xml version="1.0" encoding="UTF-8" standalone="no"?>
<!DOCTYPE svg PUBLIC "-//W3C//DTD SVG 1.1//EN"
 "http://www.w3.org/Graphics/SVG/1.1/DTD/svg11.dtd">
<!-- Generated by graphviz version 5.0.0 (0)
 -->
<!-- Title: material_tester_by_load Pages: 1 -->
<svg width="910pt" height="173pt"
 viewBox="0.00 0.00 910.00 173.00" xmlns="http://www.w3.org/2000/svg" xmlns:xlink="http://www.w3.org/1999/xlink">
<g id="graph0" class="graph" transform="scale(1 1) rotate(0) translate(4 169)">
<title>material_tester_by_load</title>
<!-- Node1 -->
<g id="node1" class="node">
<title>Node1</title>
<g id="a_node1"><a xlink:title=" ">
<polygon fill="#999999" stroke="#666666" points="902,-89 730,-89 730,-69 902,-69 902,-89"/>
<text text-anchor="middle" x="816" y="-76.2" font-family="Consolas" font-size="11.00">material_tester_by_load</text>
</a>
</g>
</g>
<!-- Node2 -->
<g id="node2" class="node">
<title>Node2</title>
<g id="a_node2"><a xlink:href="../../df/d14/_material_tester_8cpp.html#ae60050b70d04fe2b1fc1f8912f867f3e" target="_top" xlink:title=" ">
<polygon fill="white" stroke="#666666" points="694,-146 522,-146 522,-126 694,-126 694,-146"/>
<text text-anchor="middle" x="608" y="-133.2" font-family="Consolas" font-size="11.00">test_material_by_load1d</text>
</a>
</g>
</g>
<!-- Node1&#45;&gt;Node2 -->
<g id="edge1" class="edge">
<title>Node1&#45;&gt;Node2</title>
<path fill="none" stroke="#63b8ff" d="M775.74,-92.25C752.18,-99.97 721.54,-109.61 694,-117 682.17,-120.17 669.32,-123.24 657.27,-125.95"/>
<polygon fill="#63b8ff" stroke="#63b8ff" points="776.97,-95.53 785.37,-89.07 774.78,-88.89 776.97,-95.53"/>
</g>
<!-- Node10 -->
<g id="node10" class="node">
<title>Node10</title>
<g id="a_node10"><a xlink:href="../../df/d14/_material_tester_8cpp.html#a6a6d9278692d09e529169e2bf6fb967a" target="_top" xlink:title=" ">
<polygon fill="white" stroke="#666666" points="694,-108 522,-108 522,-88 694,-88 694,-108"/>
<text text-anchor="middle" x="608" y="-95.2" font-family="Consolas" font-size="11.00">test_material_by_load2d</text>
</a>
</g>
</g>
<!-- Node1&#45;&gt;Node10 -->
<g id="edge13" class="edge">
<title>Node1&#45;&gt;Node10</title>
<path fill="none" stroke="#63b8ff" d="M719.76,-87.78C711.24,-88.57 702.64,-89.36 694.21,-90.14"/>
<polygon fill="#63b8ff" stroke="#63b8ff" points="720.09,-91.27 729.72,-86.87 719.45,-84.3 720.09,-91.27"/>
</g>
<!-- Node11 -->
<g id="node11" class="node">
<title>Node11</title>
<g id="a_node11"><a xlink:href="../../df/d14/_material_tester_8cpp.html#a432fb82f3c06fbd833f8e9143f256752" target="_top" xlink:title=" ">
<polygon fill="white" stroke="#666666" points="694,-70 522,-70 522,-50 694,-50 694,-70"/>
<text text-anchor="middle" x="608" y="-57.2" font-family="Consolas" font-size="11.00">test_material_by_load3d</text>
</a>
</g>
</g>
<!-- Node1&#45;&gt;Node11 -->
<g id="edge15" class="edge">
<title>Node1&#45;&gt;Node11</title>
<path fill="none" stroke="#63b8ff" d="M719.76,-70.22C711.24,-69.43 702.64,-68.64 694.21,-67.86"/>
<polygon fill="#63b8ff" stroke="#63b8ff" points="719.45,-73.7 729.72,-71.13 720.09,-66.73 719.45,-73.7"/>
</g>
<!-- Node12 -->
<g id="node12" class="node">
<title>Node12</title>
<g id="a_node12"><a xlink:href="../../df/d14/_material_tester_8cpp.html#ac963d5eba83426ede7a7509f1844f590" target="_top" xlink:title=" ">
<polygon fill="white" stroke="#666666" points="687,-32 529,-32 529,0 687,0 687,-32"/>
<text text-anchor="start" x="537" y="-19.2" font-family="Consolas" font-size="11.00">test_material_by_load</text>
<text text-anchor="middle" x="608" y="-7.2" font-family="Consolas" font-size="11.00">_with_base3d</text>
</a>
</g>
</g>
<!-- Node1&#45;&gt;Node12 -->
<g id="edge17" class="edge">
<title>Node1&#45;&gt;Node12</title>
<path fill="none" stroke="#63b8ff" d="M773.86,-65.88C750.48,-58.47 720.64,-49.1 694,-41 684.43,-38.09 674.25,-35.05 664.37,-32.13"/>
<polygon fill="#63b8ff" stroke="#63b8ff" points="772.87,-69.23 783.46,-68.92 774.98,-62.56 772.87,-69.23"/>
</g>
<!-- Node3 -->
<g id="node3" class="node">
<title>Node3</title>
<g id="a_node3"><a xlink:href="../../da/d46/group___utility.html#ga9867a3ab23d73b1a903c291427114d4c" target="_top" xlink:title=" ">
<polygon fill="white" stroke="#666666" points="486,-89 368,-89 368,-69 486,-69 486,-89"/>
<text text-anchor="middle" x="427" y="-76.2" font-family="Consolas" font-size="11.00">process_command</text>
</a>
</g>
</g>
<!-- Node2&#45;&gt;Node3 -->
<g id="edge2" class="edge">
<title>Node2&#45;&gt;Node3</title>
<path fill="none" stroke="#63b8ff" d="M546,-123.64C537.88,-121.62 529.7,-119.4 522,-117 496.79,-109.15 468.85,-97.45 450.04,-89.11"/>
<polygon fill="#63b8ff" stroke="#63b8ff" points="545.31,-127.07 555.85,-126 546.94,-120.26 545.31,-127.07"/>
</g>
<!-- Node4 -->
<g id="node4" class="node">
<title>Node4</title>
<g id="a_node4"><a xlink:href="../../da/d46/group___utility.html#ga8bf8736c7a14e90bd7313d121b2ac440" target="_top" xlink:title=" ">
<polygon fill="white" stroke="#666666" points="318.5,-165 247.5,-165 247.5,-145 318.5,-145 318.5,-165"/>
<text text-anchor="middle" x="283" y="-152.2" font-family="Consolas" font-size="11.00">cli_mode</text>
</a>
</g>
</g>
<!-- Node3&#45;&gt;Node4 -->
<g id="edge3" class="edge">
<title>Node3&#45;&gt;Node4</title>
<path fill="none" stroke="#63b8ff" d="M402.71,-94.64C384.06,-106.79 356.97,-123.6 332,-136 325.58,-139.19 318.48,-142.24 311.76,-144.93"/>
<polygon fill="#63b8ff" stroke="#63b8ff" points="404.71,-97.51 411.14,-89.09 400.86,-91.66 404.71,-97.51"/>
</g>
<!-- Node7 -->
<g id="node7" class="node">
<title>Node7</title>
<g id="a_node7"><a xlink:href="../../d1/d81/command_8cpp.html#a5239be18e56b5ec86ad0fbadd6020737" target="_top" xlink:title=" ">
<polygon fill="white" stroke="#666666" points="318.5,-127 247.5,-127 247.5,-107 318.5,-107 318.5,-127"/>
<text text-anchor="middle" x="283" y="-114.2" font-family="Consolas" font-size="11.00">overview</text>
</a>
</g>
</g>
<!-- Node3&#45;&gt;Node7 -->
<g id="edge6" class="edge">
<title>Node3&#45;&gt;Node7</title>
<path fill="none" stroke="#63b8ff" d="M358.06,-90.44C338.03,-95.72 317.69,-101.81 303.4,-107"/>
<polygon fill="#63b8ff" stroke="#63b8ff" points="359.03,-93.8 367.83,-87.91 357.28,-87.02 359.03,-93.8"/>
</g>
<!-- Node8 -->
<g id="node8" class="node">
<title>Node8</title>
<g id="a_node8"><a xlink:href="../../da/d46/group___utility.html#gae4e3a17f22e5253a23b9955c66935551" target="_top" xlink:title=" ">
<polygon fill="white" stroke="#666666" points="332,-89 234,-89 234,-69 332,-69 332,-89"/>
<text text-anchor="middle" x="283" y="-76.2" font-family="Consolas" font-size="11.00">process_file</text>
</a>
</g>
</g>
<!-- Node3&#45;&gt;Node8 -->
<g id="edge8" class="edge">
<title>Node3&#45;&gt;Node8</title>
<path fill="none" stroke="#63b8ff" d="M357.8,-72.25C349.2,-72.23 340.54,-72.33 332.34,-72.57"/>
<polygon fill="#63b8ff" stroke="#63b8ff" points="357.8,-75.75 367.83,-72.35 357.87,-68.76 357.8,-75.75"/>
</g>
<!-- Node9 -->
<g id="node9" class="node">
<title>Node9</title>
<g id="a_node9"><a xlink:href="../../da/d46/group___utility.html#gab9314fd00ce5019a901017b7a09b7f36" target="_top" xlink:title=" ">
<polygon fill="white" stroke="#666666" points="328.5,-51 237.5,-51 237.5,-31 328.5,-31 328.5,-51"/>
<text text-anchor="middle" x="283" y="-38.2" font-family="Consolas" font-size="11.00">run_example</text>
</a>
</g>
</g>
<!-- Node3&#45;&gt;Node9 -->
<g id="edge11" class="edge">
<title>Node3&#45;&gt;Node9</title>
<path fill="none" stroke="#63b8ff" d="M396.93,-65.65C377.26,-59.12 350.9,-51.82 328.59,-46.62"/>
<polygon fill="#63b8ff" stroke="#63b8ff" points="395.96,-69.02 406.55,-68.98 398.25,-62.4 395.96,-69.02"/>
</g>
<!-- Node5 -->
<g id="node5" class="node">
<title>Node5</title>
<g id="a_node5"><a xlink:href="../../da/d46/group___utility.html#gaf8d2165909a5b05cf91dce632ce172a4" target="_top" xlink:title=" ">
<polygon fill="white" stroke="#666666" points="198,-127 80,-127 80,-107 198,-107 198,-127"/>
<text text-anchor="middle" x="139" y="-114.2" font-family="Consolas" font-size="11.00">argument_parser</text>
</a>
</g>
</g>
<!-- Node4&#45;&gt;Node5 -->
<g id="edge4" class="edge">
<title>Node4&#45;&gt;Node5</title>
<path fill="none" stroke="#63b8ff" d="M237.52,-143.1C218.28,-137.95 196.01,-131.99 177.61,-127.07"/>
<polygon fill="#63b8ff" stroke="#63b8ff" points="236.7,-146.5 247.26,-145.7 238.51,-139.74 236.7,-146.5"/>
</g>
<!-- Node6 -->
<g id="node6" class="node">
<title>Node6</title>
<g id="a_node6"><a xlink:href="../../d6/dfd/suan_pan_8cpp.html#a3c04138a5bfe5d72780bb7e82a18e627" target="_top" xlink:title=" ">
<polygon fill="white" stroke="#666666" points="44,-127 0,-127 0,-107 44,-107 44,-127"/>
<text text-anchor="middle" x="22" y="-114.2" font-family="Consolas" font-size="11.00">main</text>
</a>
</g>
</g>
<!-- Node5&#45;&gt;Node6 -->
<g id="edge5" class="edge">
<title>Node5&#45;&gt;Node6</title>
<path fill="none" stroke="#63b8ff" d="M69.67,-117C60.41,-117 51.54,-117 44.07,-117"/>
<polygon fill="#63b8ff" stroke="#63b8ff" points="69.83,-120.5 79.83,-117 69.83,-113.5 69.83,-120.5"/>
</g>
<!-- Node7&#45;&gt;Node3 -->
<g id="edge7" class="edge">
<title>Node7&#45;&gt;Node3</title>
<path fill="none" stroke="#63b8ff" d="M328.83,-111.33C354.98,-105.22 386.64,-96.24 406.55,-89.02"/>
<polygon fill="#63b8ff" stroke="#63b8ff" points="327.73,-107.99 318.75,-113.6 329.27,-114.82 327.73,-107.99"/>
</g>
<!-- Node8&#45;&gt;Node3 -->
<g id="edge10" class="edge">
<title>Node8&#45;&gt;Node3</title>
<path fill="none" stroke="#63b8ff" d="M342.42,-85.65C350.82,-85.78 359.45,-85.78 367.83,-85.65"/>
<polygon fill="#63b8ff" stroke="#63b8ff" points="342.42,-82.15 332.34,-85.43 342.26,-89.15 342.42,-82.15"/>
</g>
<!-- Node8&#45;&gt;Node5 -->
<g id="edge9" class="edge">
<title>Node8&#45;&gt;Node5</title>
<path fill="none" stroke="#63b8ff" d="M234.63,-91.68C216.16,-96.62 195.29,-102.2 177.86,-106.87"/>
<polygon fill="#63b8ff" stroke="#63b8ff" points="235.56,-95.05 244.32,-89.08 233.75,-88.29 235.56,-95.05"/>
</g>
<!-- Node9&#45;&gt;Node3 -->
<g id="edge12" class="edge">
<title>Node9&#45;&gt;Node3</title>
<path fill="none" stroke="#63b8ff" d="M313.1,-54.36C328.89,-59.6 348.98,-65.33 367.83,-70.09"/>
<polygon fill="#63b8ff" stroke="#63b8ff" points="313.99,-50.96 303.4,-51 311.7,-57.58 313.99,-50.96"/>
</g>
<!-- Node10&#45;&gt;Node3 -->
<g id="edge14" class="edge">
<title>Node10&#45;&gt;Node3</title>
<path fill="none" stroke="#63b8ff" d="M511.75,-87.89C503.07,-86.97 494.46,-86.05 486.25,-85.18"/>
<polygon fill="#63b8ff" stroke="#63b8ff" points="511.64,-91.4 521.96,-88.97 512.38,-84.44 511.64,-91.4"/>
</g>
<!-- Node11&#45;&gt;Node3 -->
<g id="edge16" class="edge">
<title>Node11&#45;&gt;Node3</title>
<path fill="none" stroke="#63b8ff" d="M511.75,-70.11C503.07,-71.03 494.46,-71.95 486.25,-72.82"/>
<polygon fill="#63b8ff" stroke="#63b8ff" points="512.38,-73.56 521.96,-69.03 511.64,-66.6 512.38,-73.56"/>
</g>
<!-- Node12&#45;&gt;Node3 -->
<g id="edge18" class="edge">
<title>Node12&#45;&gt;Node3</title>
<path fill="none" stroke="#63b8ff" d="M540,-35.03C533.89,-36.97 527.82,-38.97 522,-41 497.4,-49.57 469.82,-60.93 450.94,-68.99"/>
<polygon fill="#63b8ff" stroke="#63b8ff" points="541.09,-38.36 549.6,-32.05 539.01,-31.68 541.09,-38.36"/>
</g>
</g>
</svg>
