<?xml version="1.0" encoding="UTF-8" standalone="no"?>
<!DOCTYPE svg PUBLIC "-//W3C//DTD SVG 1.1//EN"
 "http://www.w3.org/Graphics/SVG/1.1/DTD/svg11.dtd">
<!-- Generated by graphviz version 2.43.0 (0)
 -->
<!-- Title: Dhakal Pages: 1 -->
<!--zoomable 1188 -->

<svg id="main" version="1.1" xmlns="http://www.w3.org/2000/svg" xmlns:xlink="http://www.w3.org/1999/xlink" xml:space="preserve" onload="init(evt)">
<style type="text/css"><![CDATA[
.node, .edge {opacity: 0.7;}
.node.selected, .edge.selected {opacity: 1;}
.edge:hover path { stroke: red; }
.edge:hover polygon { stroke: red; fill: red; }
]]></style>

<defs>
  <circle id="rim" cx="0" cy="0" r="7"/>
  <circle id="rim2" cx="0" cy="0" r="3.5"/>
  <g id="zoomPlus">
    <use xlink:href="#rim" fill="#404040"><set attributeName="fill" to="#808080" begin="zoomplus.mouseover" end="zoomplus.mouseout"/></use>
    <path d="M-4,0h8M0,-4v8" fill="none" stroke="white" stroke-width="1.5" pointer-events="none"/>
  </g>
  <g id="zoomMin">
    <use xlink:href="#rim" fill="#404040"><set attributeName="fill" to="#808080" begin="zoomminus.mouseover" end="zoomminus.mouseout"/></use>
    <path d="M-4,0h8" fill="none" stroke="white" stroke-width="1.5" pointer-events="none"/>
  </g>
  <g id="arrowUp" transform="translate(30 24)">
    <use xlink:href="#rim"/>
    <path pointer-events="none" fill="none" stroke="white" stroke-width="1.5" d="M0,-3.0v7 M-2.5,-0.5L0,-3.0L2.5,-0.5"/>
  </g>
  <g id="arrowRight" transform="rotate(90) translate(36 -43)">
    <use xlink:href="#rim"/>
    <path pointer-events="none" fill="none" stroke="white" stroke-width="1.5" d="M0,-3.0v7 M-2.5,-0.5L0,-3.0L2.5,-0.5"/>
  </g>
  <g id="arrowDown" transform="rotate(180) translate(-30 -48)">
    <use xlink:href="#rim"/>
    <path pointer-events="none" fill="none" stroke="white" stroke-width="1.5" d="M0,-3.0v7 M-2.5,-0.5L0,-3.0L2.5,-0.5"/>
  </g>
  <g id="arrowLeft" transform="rotate(270) translate(-36 17)">
    <use xlink:href="#rim"/>
    <path pointer-events="none" fill="none" stroke="white" stroke-width="1.5" d="M0,-3.0v7 M-2.5,-0.5L0,-3.0L2.5,-0.5"/>
  </g>
  <g id="resetDef">
    <use xlink:href="#rim2" fill="#404040"><set attributeName="fill" to="#808080" begin="reset.mouseover" end="reset.mouseout"/></use>
  </g>
</defs>
<script type="application/ecmascript">
var viewWidth = 489;
var viewHeight = 1188;
var sectionId = 'dynsection-0';
</script>
<script type="application/ecmascript" xlink:href="../../svg.min.js"/>
<svg id="graph" class="graph">
<g id="viewport">
<title>Dhakal</title>
<!-- Node1 -->
<g id="Node000001" class="node">
<title>Node1</title>
<g id="a_Node000001"><a xlink:title="The Dhakal class.">
<polygon fill="#999999" stroke="transparent" points="239,-68 152,-68 152,0 239,0 239,-68"/>
<text text-anchor="start" x="175.5" y="-55.2" font-family="Consolas" font-size="11.00">Dhakal</text>
<text text-anchor="start" x="192.5" y="-39.2" font-family="Consolas" font-size="11.00"> </text>
<text text-anchor="start" x="156.5" y="-23.2" font-family="Consolas" font-size="11.00">+</text>
<text text-anchor="start" x="167.5" y="-23.2" font-family="Consolas" font-size="11.00">Dhakal()</text>
<text text-anchor="start" x="156.5" y="-7.2" font-family="Consolas" font-size="11.00">+</text>
<text text-anchor="start" x="167.5" y="-7.2" font-family="Consolas" font-size="11.00">get_copy()</text>
<polygon fill="#666666" stroke="#666666" points="152.5,-50 152.5,-50 239.5,-50 239.5,-50 152.5,-50"/>
<polygon fill="#666666" stroke="#666666" points="152.5,-34 152.5,-34 239.5,-34 239.5,-34 152.5,-34"/>
<polygon fill="none" stroke="#666666" points="152,0 152,-68 239,-68 239,0 152,0"/>
</a>
</g>
</g>
<!-- Node2 -->
<g id="Node000002" class="node">
<title>Node2</title>
<g id="a_Node000002"><a xlink:href="../../db/d0a/struct_data_dhakal.html" target="_top" xlink:title=" ">
<polygon fill="white" stroke="transparent" points="172,-228 71,-228 71,-112 172,-112 172,-228"/>
<text text-anchor="start" x="88" y="-215.2" font-family="Consolas" font-size="11.00">DataDhakal</text>
<text text-anchor="start" x="75.5" y="-199.2" font-family="Consolas" font-size="11.00">+</text>
<text text-anchor="start" x="86.5" y="-199.2" font-family="Consolas" font-size="11.00">yield_strain</text>
<text text-anchor="start" x="75.5" y="-183.2" font-family="Consolas" font-size="11.00">+</text>
<text text-anchor="start" x="86.5" y="-183.2" font-family="Consolas" font-size="11.00">inter_strain</text>
<text text-anchor="start" x="75.5" y="-167.2" font-family="Consolas" font-size="11.00">+</text>
<text text-anchor="start" x="86.5" y="-167.2" font-family="Consolas" font-size="11.00">inter_factor</text>
<text text-anchor="start" x="75.5" y="-151.2" font-family="Consolas" font-size="11.00">+</text>
<text text-anchor="start" x="86.5" y="-151.2" font-family="Consolas" font-size="11.00">slope</text>
<text text-anchor="start" x="75.5" y="-135.2" font-family="Consolas" font-size="11.00">+</text>
<text text-anchor="start" x="86.5" y="-135.2" font-family="Consolas" font-size="11.00">final_strain</text>
<text text-anchor="start" x="118.5" y="-119.2" font-family="Consolas" font-size="11.00"> </text>
<polygon fill="#666666" stroke="#666666" points="71.5,-210 71.5,-210 172.5,-210 172.5,-210 71.5,-210"/>
<polygon fill="#666666" stroke="#666666" points="71.5,-130 71.5,-130 84.5,-130 84.5,-130 71.5,-130"/>
<polygon fill="#666666" stroke="#666666" points="84.5,-130 84.5,-130 172.5,-130 172.5,-130 84.5,-130"/>
<polygon fill="none" stroke="#666666" points="71,-112 71,-228 172,-228 172,-112 71,-112"/>
</a>
</g>
</g>
<!-- Node2&#45;&gt;Node1 -->
<g id="edge1_Node000001_Node000002" class="edge">
<title>Node2&#45;&gt;Node1</title>
<g id="a_edge1_Node000001_Node000002"><a xlink:title=" ">
<path fill="none" stroke="darkgreen" d="M157.96,-102.98C164.66,-90.84 171.39,-78.66 177.26,-68.04"/>
<polygon fill="none" stroke="darkgreen" points="154.87,-101.34 153.1,-111.78 161,-104.72 154.87,-101.34"/>
</a>
</g>
</g>
<!-- Node3 -->
<g id="Node000003" class="node">
<title>Node3</title>
<g id="a_Node000003"><a xlink:href="../../d6/d69/class_strain_degradation.html" target="_top" xlink:title=" ">
<polygon fill="white" stroke="transparent" points="351,-236 190,-236 190,-104 351,-104 351,-236"/>
<text text-anchor="start" x="213.5" y="-223.2" font-family="Consolas" font-size="11.00">StrainDegradation</text>
<text text-anchor="start" x="267.5" y="-207.2" font-family="Consolas" font-size="11.00"> </text>
<text text-anchor="start" x="194.5" y="-191.2" font-family="Consolas" font-size="11.00">+</text>
<text text-anchor="start" x="205.5" y="-191.2" font-family="Consolas" font-size="11.00">initialize()</text>
<text text-anchor="start" x="194.5" y="-175.2" font-family="Consolas" font-size="11.00">+</text>
<text text-anchor="start" x="205.5" y="-175.2" font-family="Consolas" font-size="11.00">update_trial_status()</text>
<text text-anchor="start" x="194.5" y="-159.2" font-family="Consolas" font-size="11.00">+</text>
<text text-anchor="start" x="205.5" y="-159.2" font-family="Consolas" font-size="11.00">record()</text>
<text text-anchor="start" x="194.5" y="-143.2" font-family="Consolas" font-size="11.00">+</text>
<text text-anchor="start" x="205.5" y="-143.2" font-family="Consolas" font-size="11.00">Degradation()</text>
<text text-anchor="start" x="194.5" y="-127.2" font-family="Consolas" font-size="11.00">+</text>
<text text-anchor="start" x="205.5" y="-127.2" font-family="Consolas" font-size="11.00">Degradation()</text>
<text text-anchor="start" x="194.5" y="-111.2" font-family="Consolas" font-size="11.00">+</text>
<text text-anchor="start" x="205.5" y="-111.2" font-family="Consolas" font-size="11.00">Degradation()</text>
<polygon fill="#666666" stroke="#666666" points="190.5,-218 190.5,-218 351.5,-218 351.5,-218 190.5,-218"/>
<polygon fill="#666666" stroke="#666666" points="190.5,-202 190.5,-202 351.5,-202 351.5,-202 190.5,-202"/>
<polygon fill="none" stroke="#666666" points="190,-104 190,-236 351,-236 351,-104 190,-104"/>
</a>
</g>
</g>
<!-- Node3&#45;&gt;Node1 -->
<g id="edge2_Node000001_Node000003" class="edge">
<title>Node3&#45;&gt;Node1</title>
<g id="a_edge2_Node000001_Node000003"><a xlink:title=" ">
<path fill="none" stroke="#63b8ff" d="M229.06,-94.96C223.82,-85.6 218.69,-76.43 214.07,-68.19"/>
<polygon fill="none" stroke="#63b8ff" points="226.16,-96.95 234.1,-103.96 232.27,-93.53 226.16,-96.95"/>
</a>
</g>
</g>
<!-- Node4 -->
<g id="Node000004" class="node">
<title>Node4</title>
<g id="a_Node000004"><a xlink:href="../../db/d75/class_degradation.html" target="_top" xlink:title="The Degradation class.">
<polygon fill="white" stroke="transparent" points="381.5,-500 159.5,-500 159.5,-272 381.5,-272 381.5,-500"/>
<text text-anchor="start" x="233" y="-487.2" font-family="Consolas" font-size="11.00">Degradation</text>
<text text-anchor="start" x="163.5" y="-471.2" font-family="Consolas" font-size="11.00">#</text>
<text text-anchor="start" x="174.5" y="-471.2" font-family="Consolas" font-size="11.00">base</text>
<text text-anchor="start" x="163.5" y="-455.2" font-family="Consolas" font-size="11.00">+</text>
<text text-anchor="start" x="174.5" y="-455.2" font-family="Consolas" font-size="11.00">Degradation()</text>
<text text-anchor="start" x="163.5" y="-439.2" font-family="Consolas" font-size="11.00">+</text>
<text text-anchor="start" x="174.5" y="-439.2" font-family="Consolas" font-size="11.00">Degradation()</text>
<text text-anchor="start" x="163.5" y="-423.2" font-family="Consolas" font-size="11.00">+</text>
<text text-anchor="start" x="174.5" y="-423.2" font-family="Consolas" font-size="11.00">Degradation()</text>
<text text-anchor="start" x="163.5" y="-407.2" font-family="Consolas" font-size="11.00">+</text>
<text text-anchor="start" x="174.5" y="-407.2" font-family="Consolas" font-size="11.00">operator=()</text>
<text text-anchor="start" x="163.5" y="-391.2" font-family="Consolas" font-size="11.00">+</text>
<text text-anchor="start" x="174.5" y="-391.2" font-family="Consolas" font-size="11.00">operator=()</text>
<text text-anchor="start" x="163.5" y="-375.2" font-family="Consolas" font-size="11.00">+</text>
<text text-anchor="start" x="174.5" y="-375.2" font-family="Consolas" font-size="11.00">~Degradation()</text>
<text text-anchor="start" x="163.5" y="-359.2" font-family="Consolas" font-size="11.00">+</text>
<text text-anchor="start" x="174.5" y="-359.2" font-family="Consolas" font-size="11.00">initialize()</text>
<text text-anchor="start" x="163.5" y="-343.2" font-family="Consolas" font-size="11.00">+</text>
<text text-anchor="start" x="174.5" y="-343.2" font-family="Consolas" font-size="11.00">clear_status()</text>
<text text-anchor="start" x="163.5" y="-327.2" font-family="Consolas" font-size="11.00">+</text>
<text text-anchor="start" x="174.5" y="-327.2" font-family="Consolas" font-size="11.00">commit_status()</text>
<text text-anchor="start" x="163.5" y="-311.2" font-family="Consolas" font-size="11.00">+</text>
<text text-anchor="start" x="174.5" y="-311.2" font-family="Consolas" font-size="11.00">reset_status()</text>
<text text-anchor="start" x="163.5" y="-295.2" font-family="Consolas" font-size="11.00">#</text>
<text text-anchor="start" x="174.5" y="-295.2" font-family="Consolas" font-size="11.00">compute_positive_degradation()</text>
<text text-anchor="start" x="163.5" y="-279.2" font-family="Consolas" font-size="11.00">#</text>
<text text-anchor="start" x="174.5" y="-279.2" font-family="Consolas" font-size="11.00">compute_negative_degradation()</text>
<polygon fill="#666666" stroke="#666666" points="159.5,-482 159.5,-482 381.5,-482 381.5,-482 159.5,-482"/>
<polygon fill="#666666" stroke="#666666" points="159.5,-466 159.5,-466 172.5,-466 172.5,-466 159.5,-466"/>
<polygon fill="#666666" stroke="#666666" points="172.5,-466 172.5,-466 381.5,-466 381.5,-466 172.5,-466"/>
<polygon fill="none" stroke="#666666" points="159.5,-272 159.5,-500 381.5,-500 381.5,-272 159.5,-272"/>
</a>
</g>
</g>
<!-- Node4&#45;&gt;Node3 -->
<g id="edge3_Node000003_Node000004" class="edge">
<title>Node4&#45;&gt;Node3</title>
<g id="a_edge3_Node000003_Node000004"><a xlink:title=" ">
<path fill="none" stroke="#63b8ff" d="M270.5,-261.45C270.5,-252.74 270.5,-244.18 270.5,-236.01"/>
<polygon fill="none" stroke="#63b8ff" points="267,-261.73 270.5,-271.73 274,-261.73 267,-261.73"/>
</a>
</g>
</g>
<!-- Node5 -->
<g id="Node000005" class="node">
<title>Node5</title>
<g id="a_Node000005"><a xlink:href="../../d9/d97/class_material1_d.html" target="_top" xlink:title="A Material1D class.">
<polygon fill="white" stroke="transparent" points="321,-620 220,-620 220,-536 321,-536 321,-620"/>
<text text-anchor="start" x="237" y="-607.2" font-family="Consolas" font-size="11.00">Material1D</text>
<text text-anchor="start" x="267.5" y="-591.2" font-family="Consolas" font-size="11.00"> </text>
<text text-anchor="start" x="224.5" y="-575.2" font-family="Consolas" font-size="11.00">+</text>
<text text-anchor="start" x="235.5" y="-575.2" font-family="Consolas" font-size="11.00">Material1D()</text>
<text text-anchor="start" x="224.5" y="-559.2" font-family="Consolas" font-size="11.00">+</text>
<text text-anchor="start" x="235.5" y="-559.2" font-family="Consolas" font-size="11.00">record()</text>
<text text-anchor="start" x="224.5" y="-543.2" font-family="Consolas" font-size="11.00">+</text>
<text text-anchor="start" x="235.5" y="-543.2" font-family="Consolas" font-size="11.00">print()</text>
<polygon fill="#666666" stroke="#666666" points="220.5,-602 220.5,-602 321.5,-602 321.5,-602 220.5,-602"/>
<polygon fill="#666666" stroke="#666666" points="220.5,-586 220.5,-586 321.5,-586 321.5,-586 220.5,-586"/>
<polygon fill="none" stroke="#666666" points="220,-536 220,-620 321,-620 321,-536 220,-536"/>
</a>
</g>
</g>
<!-- Node5&#45;&gt;Node4 -->
<g id="edge4_Node000004_Node000005" class="edge">
<title>Node5&#45;&gt;Node4</title>
<g id="a_edge4_Node000004_Node000005"><a xlink:title=" ">
<path fill="none" stroke="#63b8ff" d="M270.5,-525.54C270.5,-517.5 270.5,-508.93 270.5,-500.15"/>
<polygon fill="none" stroke="#63b8ff" points="267,-525.77 270.5,-535.77 274,-525.77 267,-525.77"/>
</a>
</g>
</g>
<!-- Node6 -->
<g id="Node000006" class="node">
<title>Node6</title>
<g id="a_Node000006"><a xlink:href="../../dc/dee/class_material.html" target="_top" xlink:title="A Material abstract base class.">
<polygon fill="white" stroke="transparent" points="344.5,-868 196.5,-868 196.5,-656 344.5,-656 344.5,-868"/>
<text text-anchor="start" x="243" y="-855.2" font-family="Consolas" font-size="11.00">Material</text>
<text text-anchor="start" x="267" y="-839.2" font-family="Consolas" font-size="11.00"> </text>
<text text-anchor="start" x="200.5" y="-823.2" font-family="Consolas" font-size="11.00">+</text>
<text text-anchor="start" x="211.5" y="-823.2" font-family="Consolas" font-size="11.00">Material()</text>
<text text-anchor="start" x="200.5" y="-807.2" font-family="Consolas" font-size="11.00">+</text>
<text text-anchor="start" x="211.5" y="-807.2" font-family="Consolas" font-size="11.00">Material()</text>
<text text-anchor="start" x="200.5" y="-791.2" font-family="Consolas" font-size="11.00">+</text>
<text text-anchor="start" x="211.5" y="-791.2" font-family="Consolas" font-size="11.00">Material()</text>
<text text-anchor="start" x="200.5" y="-775.2" font-family="Consolas" font-size="11.00">+</text>
<text text-anchor="start" x="211.5" y="-775.2" font-family="Consolas" font-size="11.00">operator=()</text>
<text text-anchor="start" x="200.5" y="-759.2" font-family="Consolas" font-size="11.00">+</text>
<text text-anchor="start" x="211.5" y="-759.2" font-family="Consolas" font-size="11.00">operator=()</text>
<text text-anchor="start" x="200.5" y="-743.2" font-family="Consolas" font-size="11.00">+</text>
<text text-anchor="start" x="211.5" y="-743.2" font-family="Consolas" font-size="11.00">~Material()</text>
<text text-anchor="start" x="200.5" y="-727.2" font-family="Consolas" font-size="11.00">+</text>
<text text-anchor="start" x="211.5" y="-727.2" font-family="Consolas" font-size="11.00">get_density()</text>
<text text-anchor="start" x="200.5" y="-711.2" font-family="Consolas" font-size="11.00">+</text>
<text text-anchor="start" x="211.5" y="-711.2" font-family="Consolas" font-size="11.00">get_material_type()</text>
<text text-anchor="start" x="200.5" y="-695.2" font-family="Consolas" font-size="11.00">+</text>
<text text-anchor="start" x="211.5" y="-695.2" font-family="Consolas" font-size="11.00">get_plane_type()</text>
<text text-anchor="start" x="200.5" y="-679.2" font-family="Consolas" font-size="11.00">+</text>
<text text-anchor="start" x="211.5" y="-679.2" font-family="Consolas" font-size="11.00">initialize_base()</text>
<text text-anchor="start" x="211.5" y="-663.2" font-family="Consolas" font-size="11.00">and 72 more...</text>
<polygon fill="#666666" stroke="#666666" points="196.5,-850 196.5,-850 344.5,-850 344.5,-850 196.5,-850"/>
<polygon fill="#666666" stroke="#666666" points="196.5,-834 196.5,-834 344.5,-834 344.5,-834 196.5,-834"/>
<polygon fill="none" stroke="#666666" points="196.5,-656 196.5,-868 344.5,-868 344.5,-656 196.5,-656"/>
</a>
</g>
</g>
<!-- Node6&#45;&gt;Node5 -->
<g id="edge5_Node000005_Node000006" class="edge">
<title>Node6&#45;&gt;Node5</title>
<g id="a_edge5_Node000005_Node000006"><a xlink:title=" ">
<path fill="none" stroke="#63b8ff" d="M270.5,-645.68C270.5,-636.72 270.5,-628.1 270.5,-620.2"/>
<polygon fill="none" stroke="#63b8ff" points="267,-645.92 270.5,-655.92 274,-645.92 267,-645.92"/>
</a>
</g>
</g>
<!-- Node7 -->
<g id="Node000007" class="node">
<title>Node7</title>
<g id="a_Node000007"><a xlink:href="../../de/de9/struct_data_material.html" target="_top" xlink:title=" ">
<polygon fill="white" stroke="transparent" points="161,-1148 0,-1148 0,-936 161,-936 161,-1148"/>
<text text-anchor="start" x="40" y="-1135.2" font-family="Consolas" font-size="11.00">DataMaterial</text>
<text text-anchor="start" x="4.5" y="-1119.2" font-family="Consolas" font-size="11.00">+</text>
<text text-anchor="start" x="15.5" y="-1119.2" font-family="Consolas" font-size="11.00">density</text>
<text text-anchor="start" x="4.5" y="-1103.2" font-family="Consolas" font-size="11.00">+</text>
<text text-anchor="start" x="15.5" y="-1103.2" font-family="Consolas" font-size="11.00">material_type</text>
<text text-anchor="start" x="4.5" y="-1087.2" font-family="Consolas" font-size="11.00">+</text>
<text text-anchor="start" x="15.5" y="-1087.2" font-family="Consolas" font-size="11.00">plane_type</text>
<text text-anchor="start" x="4.5" y="-1071.2" font-family="Consolas" font-size="11.00">+</text>
<text text-anchor="start" x="15.5" y="-1071.2" font-family="Consolas" font-size="11.00">tolerance</text>
<text text-anchor="start" x="4.5" y="-1055.2" font-family="Consolas" font-size="11.00">+</text>
<text text-anchor="start" x="15.5" y="-1055.2" font-family="Consolas" font-size="11.00">characteristic_length</text>
<text text-anchor="start" x="4.5" y="-1039.2" font-family="Consolas" font-size="11.00">+</text>
<text text-anchor="start" x="15.5" y="-1039.2" font-family="Consolas" font-size="11.00">current_strain</text>
<text text-anchor="start" x="4.5" y="-1023.2" font-family="Consolas" font-size="11.00">+</text>
<text text-anchor="start" x="15.5" y="-1023.2" font-family="Consolas" font-size="11.00">current_strain_rate</text>
<text text-anchor="start" x="4.5" y="-1007.2" font-family="Consolas" font-size="11.00">+</text>
<text text-anchor="start" x="15.5" y="-1007.2" font-family="Consolas" font-size="11.00">current_strain_acc</text>
<text text-anchor="start" x="4.5" y="-991.2" font-family="Consolas" font-size="11.00">+</text>
<text text-anchor="start" x="15.5" y="-991.2" font-family="Consolas" font-size="11.00">current_stress</text>
<text text-anchor="start" x="4.5" y="-975.2" font-family="Consolas" font-size="11.00">+</text>
<text text-anchor="start" x="15.5" y="-975.2" font-family="Consolas" font-size="11.00">trial_strain</text>
<text text-anchor="start" x="15.5" y="-959.2" font-family="Consolas" font-size="11.00">and 19 more...</text>
<text text-anchor="start" x="77.5" y="-943.2" font-family="Consolas" font-size="11.00"> </text>
<polygon fill="#666666" stroke="#666666" points="0.5,-1130 0.5,-1130 161.5,-1130 161.5,-1130 0.5,-1130"/>
<polygon fill="#666666" stroke="#666666" points="0.5,-954 0.5,-954 13.5,-954 13.5,-954 0.5,-954"/>
<polygon fill="#666666" stroke="#666666" points="13.5,-954 13.5,-954 161.5,-954 161.5,-954 13.5,-954"/>
<polygon fill="none" stroke="#666666" points="0,-936 0,-1148 161,-1148 161,-936 0,-936"/>
</a>
</g>
</g>
<!-- Node7&#45;&gt;Node6 -->
<g id="edge6_Node000006_Node000007" class="edge">
<title>Node7&#45;&gt;Node6</title>
<g id="a_edge6_Node000006_Node000007"><a xlink:title=" ">
<path fill="none" stroke="darkgreen" d="M154.87,-927.12C160.13,-919.28 165.37,-911.51 170.5,-904 178.79,-891.86 187.57,-879.19 196.35,-866.66"/>
<polygon fill="none" stroke="darkgreen" points="151.81,-925.4 149.16,-935.66 157.63,-929.29 151.81,-925.4"/>
</a>
</g>
</g>
<!-- Node8 -->
<g id="Node000008" class="node">
<title>Node8</title>
<g id="a_Node000008"><a xlink:href="../../da/de4/struct_data_couple_material.html" target="_top" xlink:title=" ">
<polygon fill="white" stroke="transparent" points="361.5,-1132 179.5,-1132 179.5,-952 361.5,-952 361.5,-1132"/>
<text text-anchor="start" x="209.5" y="-1119.2" font-family="Consolas" font-size="11.00">DataCoupleMaterial</text>
<text text-anchor="start" x="183.5" y="-1103.2" font-family="Consolas" font-size="11.00">+</text>
<text text-anchor="start" x="194.5" y="-1103.2" font-family="Consolas" font-size="11.00">current_curvature</text>
<text text-anchor="start" x="183.5" y="-1087.2" font-family="Consolas" font-size="11.00">+</text>
<text text-anchor="start" x="194.5" y="-1087.2" font-family="Consolas" font-size="11.00">current_couple_stress</text>
<text text-anchor="start" x="183.5" y="-1071.2" font-family="Consolas" font-size="11.00">+</text>
<text text-anchor="start" x="194.5" y="-1071.2" font-family="Consolas" font-size="11.00">trial_curvature</text>
<text text-anchor="start" x="183.5" y="-1055.2" font-family="Consolas" font-size="11.00">+</text>
<text text-anchor="start" x="194.5" y="-1055.2" font-family="Consolas" font-size="11.00">trial_couple_stress</text>
<text text-anchor="start" x="183.5" y="-1039.2" font-family="Consolas" font-size="11.00">+</text>
<text text-anchor="start" x="194.5" y="-1039.2" font-family="Consolas" font-size="11.00">incre_curvature</text>
<text text-anchor="start" x="183.5" y="-1023.2" font-family="Consolas" font-size="11.00">+</text>
<text text-anchor="start" x="194.5" y="-1023.2" font-family="Consolas" font-size="11.00">incre_couple_stress</text>
<text text-anchor="start" x="183.5" y="-1007.2" font-family="Consolas" font-size="11.00">+</text>
<text text-anchor="start" x="194.5" y="-1007.2" font-family="Consolas" font-size="11.00">initial_couple_stiffness</text>
<text text-anchor="start" x="183.5" y="-991.2" font-family="Consolas" font-size="11.00">+</text>
<text text-anchor="start" x="194.5" y="-991.2" font-family="Consolas" font-size="11.00">current_couple_stiffness</text>
<text text-anchor="start" x="183.5" y="-975.2" font-family="Consolas" font-size="11.00">+</text>
<text text-anchor="start" x="194.5" y="-975.2" font-family="Consolas" font-size="11.00">trial_couple_stiffness</text>
<text text-anchor="start" x="267" y="-959.2" font-family="Consolas" font-size="11.00"> </text>
<polygon fill="#666666" stroke="#666666" points="179.5,-1114 179.5,-1114 361.5,-1114 361.5,-1114 179.5,-1114"/>
<polygon fill="#666666" stroke="#666666" points="179.5,-970 179.5,-970 192.5,-970 192.5,-970 179.5,-970"/>
<polygon fill="#666666" stroke="#666666" points="192.5,-970 192.5,-970 361.5,-970 361.5,-970 192.5,-970"/>
<polygon fill="none" stroke="#666666" points="179.5,-952 179.5,-1132 361.5,-1132 361.5,-952 179.5,-952"/>
</a>
</g>
</g>
<!-- Node8&#45;&gt;Node6 -->
<g id="edge7_Node000006_Node000008" class="edge">
<title>Node8&#45;&gt;Node6</title>
<g id="a_edge7_Node000006_Node000008"><a xlink:title=" ">
<path fill="none" stroke="darkgreen" d="M270.5,-941.76C270.5,-917.86 270.5,-892.25 270.5,-868.09"/>
<polygon fill="none" stroke="darkgreen" points="267,-941.89 270.5,-951.89 274,-941.89 267,-941.89"/>
</a>
</g>
</g>
<!-- Node9 -->
<g id="Node000009" class="node">
<title>Node9</title>
<g id="a_Node000009"><a xlink:href="../../d0/d57/class_tag.html" target="_top" xlink:title="A base Tag class.">
<polygon fill="white" stroke="transparent" points="481,-1180 380,-1180 380,-904 481,-904 481,-1180"/>
<text text-anchor="start" x="420.5" y="-1167.2" font-family="Consolas" font-size="11.00">Tag</text>
<text text-anchor="start" x="427.5" y="-1151.2" font-family="Consolas" font-size="11.00"> </text>
<text text-anchor="start" x="384.5" y="-1135.2" font-family="Consolas" font-size="11.00">+</text>
<text text-anchor="start" x="395.5" y="-1135.2" font-family="Consolas" font-size="11.00">Tag()</text>
<text text-anchor="start" x="384.5" y="-1119.2" font-family="Consolas" font-size="11.00">+</text>
<text text-anchor="start" x="395.5" y="-1119.2" font-family="Consolas" font-size="11.00">Tag()</text>
<text text-anchor="start" x="384.5" y="-1103.2" font-family="Consolas" font-size="11.00">+</text>
<text text-anchor="start" x="395.5" y="-1103.2" font-family="Consolas" font-size="11.00">Tag()</text>
<text text-anchor="start" x="384.5" y="-1087.2" font-family="Consolas" font-size="11.00">+</text>
<text text-anchor="start" x="395.5" y="-1087.2" font-family="Consolas" font-size="11.00">operator=()</text>
<text text-anchor="start" x="384.5" y="-1071.2" font-family="Consolas" font-size="11.00">+</text>
<text text-anchor="start" x="395.5" y="-1071.2" font-family="Consolas" font-size="11.00">operator=()</text>
<text text-anchor="start" x="384.5" y="-1055.2" font-family="Consolas" font-size="11.00">+</text>
<text text-anchor="start" x="395.5" y="-1055.2" font-family="Consolas" font-size="11.00">~Tag()</text>
<text text-anchor="start" x="384.5" y="-1039.2" font-family="Consolas" font-size="11.00">+</text>
<text text-anchor="start" x="395.5" y="-1039.2" font-family="Consolas" font-size="11.00">set_tag()</text>
<text text-anchor="start" x="384.5" y="-1023.2" font-family="Consolas" font-size="11.00">+</text>
<text text-anchor="start" x="395.5" y="-1023.2" font-family="Consolas" font-size="11.00">get_tag()</text>
<text text-anchor="start" x="384.5" y="-1007.2" font-family="Consolas" font-size="11.00">+</text>
<text text-anchor="start" x="395.5" y="-1007.2" font-family="Consolas" font-size="11.00">enable()</text>
<text text-anchor="start" x="384.5" y="-991.2" font-family="Consolas" font-size="11.00">+</text>
<text text-anchor="start" x="395.5" y="-991.2" font-family="Consolas" font-size="11.00">disable()</text>
<text text-anchor="start" x="384.5" y="-975.2" font-family="Consolas" font-size="11.00">+</text>
<text text-anchor="start" x="395.5" y="-975.2" font-family="Consolas" font-size="11.00">guard()</text>
<text text-anchor="start" x="384.5" y="-959.2" font-family="Consolas" font-size="11.00">+</text>
<text text-anchor="start" x="395.5" y="-959.2" font-family="Consolas" font-size="11.00">unguard()</text>
<text text-anchor="start" x="384.5" y="-943.2" font-family="Consolas" font-size="11.00">+</text>
<text text-anchor="start" x="395.5" y="-943.2" font-family="Consolas" font-size="11.00">is_active()</text>
<text text-anchor="start" x="384.5" y="-927.2" font-family="Consolas" font-size="11.00">+</text>
<text text-anchor="start" x="395.5" y="-927.2" font-family="Consolas" font-size="11.00">is_guarded()</text>
<text text-anchor="start" x="384.5" y="-911.2" font-family="Consolas" font-size="11.00">+</text>
<text text-anchor="start" x="395.5" y="-911.2" font-family="Consolas" font-size="11.00">print()</text>
<polygon fill="#666666" stroke="#666666" points="380.5,-1162 380.5,-1162 481.5,-1162 481.5,-1162 380.5,-1162"/>
<polygon fill="#666666" stroke="#666666" points="380.5,-1146 380.5,-1146 481.5,-1146 481.5,-1146 380.5,-1146"/>
<polygon fill="none" stroke="#666666" points="380,-904 380,-1180 481,-1180 481,-904 380,-904"/>
</a>
</g>
</g>
<!-- Node9&#45;&gt;Node6 -->
<g id="edge8_Node000006_Node000009" class="edge">
<title>Node9&#45;&gt;Node6</title>
<g id="a_edge8_Node000006_Node000009"><a xlink:title=" ">
<path fill="none" stroke="#63b8ff" d="M375.25,-912.62C373.68,-909.7 372.1,-906.82 370.5,-904 362.67,-890.16 353.79,-876 344.64,-862.26"/>
<polygon fill="none" stroke="#63b8ff" points="372.16,-914.25 379.91,-921.47 378.35,-910.99 372.16,-914.25"/>
</a>
</g>
</g>
</g>
</svg>

<g id="navigator" transform="translate(0 0)" fill="#404254">
  <rect fill="#f2f5e9" fill-opacity="0.5" stroke="#606060" stroke-width=".5" x="0" y="0" width="60" height="60"/>
  <use id="zoomplus" xlink:href="#zoomPlus" x="17" y="9" onmousedown="handleZoom(evt,'in')"/>
  <use id="zoomminus" xlink:href="#zoomMin" x="42" y="9" onmousedown="handleZoom(evt,'out')"/>
  <use id="reset" xlink:href="#resetDef" x="30" y="36" onmousedown="handleReset()"/>
   <use id="arrowup" xlink:href="#arrowUp" x="0" y="0" onmousedown="handlePan(0,-1)"/>
  <use id="arrowright" xlink:href="#arrowRight" x="0" y="0" onmousedown="handlePan(1,0)"/>
  <use id="arrowdown" xlink:href="#arrowDown" x="0" y="0" onmousedown="handlePan(0,1)"/>
  <use id="arrowleft" xlink:href="#arrowLeft" x="0" y="0" onmousedown="handlePan(-1,0)"/>
</g>
<svg viewBox="0 0 15 15" width="100%" height="30px" preserveAspectRatio="xMaxYMin meet">
 <g id="arrow_out" transform="scale(0.3 0.3)">
  <a xlink:href="class_dhakal__inherit__graph_org.svg" target="_base">
   <rect id="button" ry="5" rx="5" y="6" x="6" height="38" width="38"
        fill="#f2f5e9" fill-opacity="0.5" stroke="#606060" stroke-width="1.0"/>
   <path id="arrow"
     d="M 11.500037,31.436501 C 11.940474,20.09759 22.043105,11.32322 32.158766,21.979434 L 37.068811,17.246167 C 37.068811,17.246167 37.088388,32 37.088388,32 L 22.160133,31.978069 C 22.160133,31.978069 26.997745,27.140456 26.997745,27.140456 C 18.528582,18.264221 13.291696,25.230495 11.500037,31.436501 z"
     style="fill:#404040;"/>
  </a>
 </g>
</svg>

<style type='text/css'>
<![CDATA[
[data-mouse-over-selected='false'] { opacity: 0.7; }
[data-mouse-over-selected='true']  { opacity: 1.0; }
]]>
</style>
<script type="application/ecmascript"><![CDATA[
document.addEventListener('DOMContentLoaded', (event) => {
  highlightEdges();
  highlightAdjacentNodes();
});
]]></script>
</svg>
