<?xml version="1.0" encoding="UTF-8" standalone="no"?>
<!DOCTYPE svg PUBLIC "-//W3C//DTD SVG 1.1//EN"
 "http://www.w3.org/Graphics/SVG/1.1/DTD/svg11.dtd">
<!-- Generated by graphviz version 2.43.0 (0)
 -->
<!-- Title: Material::record Pages: 1 -->
<svg width="535pt" height="584pt"
 viewBox="0.00 0.00 535.00 584.00" xmlns="http://www.w3.org/2000/svg" xmlns:xlink="http://www.w3.org/1999/xlink">
<g id="graph0" class="graph" transform="scale(1 1) rotate(0) translate(4 580)">
<title>Material::record</title>
<!-- Node1 -->
<g id="Node000001" class="node">
<title>Node1</title>
<g id="a_Node000001"><a xlink:title=" ">
<polygon fill="#999999" stroke="#666666" points="527,-286 402,-286 402,-266 527,-266 527,-286"/>
<text text-anchor="middle" x="464.5" y="-273.2" font-family="Consolas" font-size="11.00">Material::record</text>
</a>
</g>
</g>
<!-- Node2 -->
<g id="Node000002" class="node">
<title>Node2</title>
<g id="a_Node000002"><a xlink:href="../../d6/d69/class_strain_degradation.html#a341bfe99188131273cdaf483345466be" target="_top" xlink:title=" ">
<polygon fill="white" stroke="#666666" points="359.5,-576 214.5,-576 214.5,-544 359.5,-544 359.5,-576"/>
<text text-anchor="start" x="222.5" y="-563.2" font-family="Consolas" font-size="11.00">StrainDegradation::</text>
<text text-anchor="middle" x="287" y="-551.2" font-family="Consolas" font-size="11.00">record</text>
</a>
</g>
</g>
<!-- Node1&#45;&gt;Node2 -->
<g id="edge1_Node000001_Node000002" class="edge">
<title>Node1&#45;&gt;Node2</title>
<g id="a_edge1_Node000001_Node000002"><a xlink:title=" ">
<path fill="none" stroke="#63b8ff" d="M461.76,-296.24C456.52,-344.61 436.58,-467.86 366,-535 362.39,-538.43 358.32,-541.39 353.96,-543.94"/>
<polygon fill="#63b8ff" stroke="#63b8ff" points="465.26,-296.42 462.76,-286.12 458.29,-295.73 465.26,-296.42"/>
</a>
</g>
</g>
<!-- Node3 -->
<g id="Node000003" class="node">
<title>Node3</title>
<g id="a_Node000003"><a xlink:href="../../d3/ddf/class_stress_degradation.html#aa3e1346856f88a4847177793cdac9fad" target="_top" xlink:title=" ">
<polygon fill="white" stroke="#666666" points="359.5,-526 214.5,-526 214.5,-494 359.5,-494 359.5,-526"/>
<text text-anchor="start" x="222.5" y="-513.2" font-family="Consolas" font-size="11.00">StressDegradation::</text>
<text text-anchor="middle" x="287" y="-501.2" font-family="Consolas" font-size="11.00">record</text>
</a>
</g>
</g>
<!-- Node1&#45;&gt;Node3 -->
<g id="edge2_Node000001_Node000003" class="edge">
<title>Node1&#45;&gt;Node3</title>
<g id="a_edge2_Node000001_Node000003"><a xlink:title=" ">
<path fill="none" stroke="#63b8ff" d="M459.65,-296.49C450.76,-338.14 424.89,-433.12 366,-485 362.16,-488.38 357.86,-491.31 353.3,-493.84"/>
<polygon fill="#63b8ff" stroke="#63b8ff" points="463.13,-296.95 461.68,-286.46 456.27,-295.57 463.13,-296.95"/>
</a>
</g>
</g>
<!-- Node4 -->
<g id="Node000004" class="node">
<title>Node4</title>
<g id="a_Node000004"><a xlink:href="../../d9/d97/class_material1_d.html#ad2c37b9358c69509f3498a56abc37a71" target="_top" xlink:title=" ">
<polygon fill="white" stroke="#666666" points="356,-476 218,-476 218,-456 356,-456 356,-476"/>
<text text-anchor="middle" x="287" y="-463.2" font-family="Consolas" font-size="11.00">Material1D::record</text>
</a>
</g>
</g>
<!-- Node1&#45;&gt;Node4 -->
<g id="edge3_Node000001_Node000004" class="edge">
<title>Node1&#45;&gt;Node4</title>
<g id="a_edge3_Node000001_Node000004"><a xlink:title=" ">
<path fill="none" stroke="#63b8ff" d="M457.8,-296.27C446.54,-332.41 417.94,-407.86 366,-447 361.21,-450.61 355.83,-453.54 350.2,-455.92"/>
<polygon fill="#63b8ff" stroke="#63b8ff" points="461.24,-296.98 460.74,-286.4 454.53,-294.98 461.24,-296.98"/>
</a>
</g>
</g>
<!-- Node7 -->
<g id="Node000007" class="node">
<title>Node7</title>
<g id="a_Node000007"><a xlink:href="../../d4/d0e/group___material-1_d.html#ga437201a18ba9a4ad4e4390093e02fcec" target="_top" xlink:title=" ">
<polygon fill="white" stroke="#666666" points="352.5,-438 221.5,-438 221.5,-418 352.5,-418 352.5,-438"/>
<text text-anchor="middle" x="287" y="-425.2" font-family="Consolas" font-size="11.00">Prestrain::record</text>
</a>
</g>
</g>
<!-- Node1&#45;&gt;Node7 -->
<g id="edge6_Node000001_Node000007" class="edge">
<title>Node1&#45;&gt;Node7</title>
<g id="a_edge6_Node000001_Node000007"><a xlink:title=" ">
<path fill="none" stroke="#63b8ff" d="M454.75,-295.43C440.5,-324.76 409.45,-379.99 366,-409 360.55,-412.64 354.47,-415.58 348.18,-417.96"/>
<polygon fill="#63b8ff" stroke="#63b8ff" points="457.99,-296.76 459.08,-286.22 451.66,-293.78 457.99,-296.76"/>
</a>
</g>
</g>
<!-- Node8 -->
<g id="Node000008" class="node">
<title>Node8</title>
<g id="a_Node000008"><a xlink:href="../../d1/d0a/class_material2_d.html#ae3799256620e716aafe5984228ec4255" target="_top" xlink:title=" ">
<polygon fill="white" stroke="#666666" points="356,-400 218,-400 218,-380 356,-380 356,-400"/>
<text text-anchor="middle" x="287" y="-387.2" font-family="Consolas" font-size="11.00">Material2D::record</text>
</a>
</g>
</g>
<!-- Node1&#45;&gt;Node8 -->
<g id="edge7_Node000001_Node000008" class="edge">
<title>Node1&#45;&gt;Node8</title>
<g id="a_edge7_Node000001_Node000008"><a xlink:title=" ">
<path fill="none" stroke="#63b8ff" d="M449.94,-294.18C432.8,-315.82 401.25,-351.48 366,-371 359.42,-374.65 352.14,-377.6 344.75,-379.99"/>
<polygon fill="#63b8ff" stroke="#63b8ff" points="452.83,-296.16 456.17,-286.11 447.29,-291.88 452.83,-296.16"/>
</a>
</g>
</g>
<!-- Node10 -->
<g id="Node000010" class="node">
<title>Node10</title>
<g id="a_Node000010"><a xlink:href="../../db/d80/class_axisymmetric.html#afd6f9ca190ab75d62a4be6687fcd9ab0" target="_top" xlink:title=" ">
<polygon fill="white" stroke="#666666" points="363,-362 211,-362 211,-342 363,-342 363,-362"/>
<text text-anchor="middle" x="287" y="-349.2" font-family="Consolas" font-size="11.00">Axisymmetric::record</text>
</a>
</g>
</g>
<!-- Node1&#45;&gt;Node10 -->
<g id="edge9_Node000001_Node000010" class="edge">
<title>Node1&#45;&gt;Node10</title>
<g id="a_edge9_Node000001_Node000010"><a xlink:title=" ">
<path fill="none" stroke="#63b8ff" d="M440.97,-291.72C421.81,-304.46 393.15,-322.03 366,-333 357.34,-336.5 347.87,-339.47 338.61,-341.94"/>
<polygon fill="#63b8ff" stroke="#63b8ff" points="442.99,-294.58 449.32,-286.08 439.07,-288.78 442.99,-294.58"/>
</a>
</g>
</g>
<!-- Node11 -->
<g id="Node000011" class="node">
<title>Node11</title>
<g id="a_Node000011"><a xlink:href="../../d3/d16/class_plane_strain.html#ae433dd39ceffd2d3f692abb0d27b6dfc" target="_top" xlink:title=" ">
<polygon fill="white" stroke="#666666" points="359.5,-324 214.5,-324 214.5,-304 359.5,-304 359.5,-324"/>
<text text-anchor="middle" x="287" y="-311.2" font-family="Consolas" font-size="11.00">PlaneStrain::record</text>
</a>
</g>
</g>
<!-- Node1&#45;&gt;Node11 -->
<g id="edge10_Node000001_Node000011" class="edge">
<title>Node1&#45;&gt;Node11</title>
<g id="a_edge10_Node000001_Node000011"><a xlink:title=" ">
<path fill="none" stroke="#63b8ff" d="M407.11,-288.21C383.66,-293.29 356.77,-299.11 334.48,-303.94"/>
<polygon fill="#63b8ff" stroke="#63b8ff" points="407.9,-291.62 416.93,-286.08 406.42,-284.78 407.9,-291.62"/>
</a>
</g>
</g>
<!-- Node12 -->
<g id="Node000012" class="node">
<title>Node12</title>
<g id="a_Node000012"><a xlink:href="../../da/dba/class_rebar2_d.html#a24f5f0e940d687a15306dd9f3200ce20" target="_top" xlink:title=" ">
<polygon fill="white" stroke="#666666" points="346,-286 228,-286 228,-266 346,-266 346,-286"/>
<text text-anchor="middle" x="287" y="-273.2" font-family="Consolas" font-size="11.00">Rebar2D::record</text>
</a>
</g>
</g>
<!-- Node1&#45;&gt;Node12 -->
<g id="edge11_Node000001_Node000012" class="edge">
<title>Node1&#45;&gt;Node12</title>
<g id="a_edge11_Node000001_Node000012"><a xlink:title=" ">
<path fill="none" stroke="#63b8ff" d="M391.32,-276C376.26,-276 360.56,-276 346.08,-276"/>
<polygon fill="#63b8ff" stroke="#63b8ff" points="391.63,-279.5 401.63,-276 391.63,-272.5 391.63,-279.5"/>
</a>
</g>
</g>
<!-- Node13 -->
<g id="Node000013" class="node">
<title>Node13</title>
<g id="a_Node000013"><a xlink:href="../../df/dee/class_rotation2_d.html#ae260376af0554cb92ef5aa5587e0db16" target="_top" xlink:title=" ">
<polygon fill="white" stroke="#666666" points="356,-248 218,-248 218,-228 356,-228 356,-248"/>
<text text-anchor="middle" x="287" y="-235.2" font-family="Consolas" font-size="11.00">Rotation2D::record</text>
</a>
</g>
</g>
<!-- Node1&#45;&gt;Node13 -->
<g id="edge12_Node000001_Node000013" class="edge">
<title>Node1&#45;&gt;Node13</title>
<g id="a_edge12_Node000001_Node000013"><a xlink:title=" ">
<path fill="none" stroke="#63b8ff" d="M407.11,-263.79C383.66,-258.71 356.77,-252.89 334.48,-248.06"/>
<polygon fill="#63b8ff" stroke="#63b8ff" points="406.42,-267.22 416.93,-265.92 407.9,-260.38 406.42,-267.22"/>
</a>
</g>
</g>
<!-- Node14 -->
<g id="Node000014" class="node">
<title>Node14</title>
<g id="a_Node000014"><a xlink:href="../../d5/dbd/class_rebar3_d.html#a4523fa5de30610f241bf48510834e467" target="_top" xlink:title=" ">
<polygon fill="white" stroke="#666666" points="346,-210 228,-210 228,-190 346,-190 346,-210"/>
<text text-anchor="middle" x="287" y="-197.2" font-family="Consolas" font-size="11.00">Rebar3D::record</text>
</a>
</g>
</g>
<!-- Node1&#45;&gt;Node14 -->
<g id="edge13_Node000001_Node000014" class="edge">
<title>Node1&#45;&gt;Node14</title>
<g id="a_edge13_Node000001_Node000014"><a xlink:title=" ">
<path fill="none" stroke="#63b8ff" d="M440.97,-260.28C421.81,-247.54 393.15,-229.97 366,-219 357.34,-215.5 347.87,-212.53 338.61,-210.06"/>
<polygon fill="#63b8ff" stroke="#63b8ff" points="439.07,-263.22 449.32,-265.92 442.99,-257.42 439.07,-263.22"/>
</a>
</g>
</g>
<!-- Node15 -->
<g id="Node000015" class="node">
<title>Node15</title>
<g id="a_Node000015"><a xlink:href="../../d7/d42/class_material3_d.html#a8a7f0a7876669f496648f3c2a16be237" target="_top" xlink:title=" ">
<polygon fill="white" stroke="#666666" points="356,-172 218,-172 218,-152 356,-152 356,-172"/>
<text text-anchor="middle" x="287" y="-159.2" font-family="Consolas" font-size="11.00">Material3D::record</text>
</a>
</g>
</g>
<!-- Node1&#45;&gt;Node15 -->
<g id="edge14_Node000001_Node000015" class="edge">
<title>Node1&#45;&gt;Node15</title>
<g id="a_edge14_Node000001_Node000015"><a xlink:title=" ">
<path fill="none" stroke="#63b8ff" d="M449.94,-257.82C432.8,-236.18 401.25,-200.52 366,-181 359.42,-177.35 352.14,-174.4 344.75,-172.01"/>
<polygon fill="#63b8ff" stroke="#63b8ff" points="447.29,-260.12 456.17,-265.89 452.83,-255.84 447.29,-260.12"/>
</a>
</g>
</g>
<!-- Node20 -->
<g id="Node000020" class="node">
<title>Node20</title>
<g id="a_Node000020"><a xlink:href="../../d8/dff/class_rotation3_d.html#a22cfd4fb26e176a947ad3dfc2b1a4358" target="_top" xlink:title=" ">
<polygon fill="white" stroke="#666666" points="356,-134 218,-134 218,-114 356,-114 356,-134"/>
<text text-anchor="middle" x="287" y="-121.2" font-family="Consolas" font-size="11.00">Rotation3D::record</text>
</a>
</g>
</g>
<!-- Node1&#45;&gt;Node20 -->
<g id="edge19_Node000001_Node000020" class="edge">
<title>Node1&#45;&gt;Node20</title>
<g id="a_edge19_Node000001_Node000020"><a xlink:title=" ">
<path fill="none" stroke="#63b8ff" d="M454.75,-256.57C440.5,-227.24 409.45,-172.01 366,-143 360.55,-139.36 354.47,-136.42 348.18,-134.04"/>
<polygon fill="#63b8ff" stroke="#63b8ff" points="451.66,-258.22 459.08,-265.78 457.99,-255.24 451.66,-258.22"/>
</a>
</g>
</g>
<!-- Node21 -->
<g id="Node000021" class="node">
<title>Node21</title>
<g id="a_Node000021"><a xlink:href="../../d7/da6/class_stress_wrapper.html#a238d7e2cf52996c79a85c7a490d1a25e" target="_top" xlink:title=" ">
<polygon fill="white" stroke="#666666" points="366,-96 208,-96 208,-76 366,-76 366,-96"/>
<text text-anchor="middle" x="287" y="-83.2" font-family="Consolas" font-size="11.00">StressWrapper::record</text>
</a>
</g>
</g>
<!-- Node1&#45;&gt;Node21 -->
<g id="edge20_Node000001_Node000021" class="edge">
<title>Node1&#45;&gt;Node21</title>
<g id="a_edge20_Node000001_Node000021"><a xlink:title=" ">
<path fill="none" stroke="#63b8ff" d="M457.8,-255.73C446.54,-219.59 417.94,-144.14 366,-105 361.21,-101.39 355.83,-98.46 350.2,-96.08"/>
<polygon fill="#63b8ff" stroke="#63b8ff" points="454.53,-257.02 460.74,-265.6 461.24,-255.02 454.53,-257.02"/>
</a>
</g>
</g>
<!-- Node22 -->
<g id="Node000022" class="node">
<title>Node22</title>
<g id="a_Node000022"><a xlink:href="../../d2/dda/class_substepping.html#ae9a8be7b31d4dae2d8c13b77379869f0" target="_top" xlink:title=" ">
<polygon fill="white" stroke="#666666" points="359.5,-58 214.5,-58 214.5,-38 359.5,-38 359.5,-58"/>
<text text-anchor="middle" x="287" y="-45.2" font-family="Consolas" font-size="11.00">Substepping::record</text>
</a>
</g>
</g>
<!-- Node1&#45;&gt;Node22 -->
<g id="edge21_Node000001_Node000022" class="edge">
<title>Node1&#45;&gt;Node22</title>
<g id="a_edge21_Node000001_Node000022"><a xlink:title=" ">
<path fill="none" stroke="#63b8ff" d="M460.06,-255.74C451.84,-213.76 426.99,-116.99 366,-67 361.58,-63.38 356.58,-60.43 351.29,-58.03"/>
<polygon fill="#63b8ff" stroke="#63b8ff" points="456.67,-256.63 461.92,-265.83 463.55,-255.37 456.67,-256.63"/>
</a>
</g>
</g>
<!-- Node23 -->
<g id="Node000023" class="node">
<title>Node23</title>
<g id="a_Node000023"><a xlink:href="../../d4/d9c/class_o_s146_s.html#a6207742adf69378f814b6bf1011011b6" target="_top" xlink:title=" ">
<polygon fill="white" stroke="#666666" points="342.5,-20 231.5,-20 231.5,0 342.5,0 342.5,-20"/>
<text text-anchor="middle" x="287" y="-7.2" font-family="Consolas" font-size="11.00">OS146S::record</text>
</a>
</g>
</g>
<!-- Node1&#45;&gt;Node23 -->
<g id="edge22_Node000001_Node000023" class="edge">
<title>Node1&#45;&gt;Node23</title>
<g id="a_edge22_Node000001_Node000023"><a xlink:title=" ">
<path fill="none" stroke="#63b8ff" d="M461.68,-255.73C456.29,-208.43 436.15,-90.14 366,-29 359.38,-23.23 351.3,-19.15 342.87,-16.28"/>
<polygon fill="#63b8ff" stroke="#63b8ff" points="458.22,-256.32 462.72,-265.91 465.18,-255.61 458.22,-256.32"/>
</a>
</g>
</g>
<!-- Node5 -->
<g id="Node000005" class="node">
<title>Node5</title>
<g id="a_Node000005"><a xlink:href="../../dc/d77/class_nonviscous01.html#a044708e6aedeed01cb7b98ec2c55bc41" target="_top" xlink:title=" ">
<polygon fill="white" stroke="#666666" points="162,-504 10,-504 10,-484 162,-484 162,-504"/>
<text text-anchor="middle" x="86" y="-491.2" font-family="Consolas" font-size="11.00">Nonviscous01::record</text>
</a>
</g>
</g>
<!-- Node4&#45;&gt;Node5 -->
<g id="edge4_Node000004_Node000005" class="edge">
<title>Node4&#45;&gt;Node5</title>
<g id="a_edge4_Node000004_Node000005"><a xlink:title=" ">
<path fill="none" stroke="#63b8ff" d="M207.74,-477.01C191.39,-479.31 174.24,-481.72 158.17,-483.99"/>
<polygon fill="#63b8ff" stroke="#63b8ff" points="208.38,-480.46 217.79,-475.6 207.4,-473.52 208.38,-480.46"/>
</a>
</g>
</g>
<!-- Node6 -->
<g id="Node000006" class="node">
<title>Node6</title>
<g id="a_Node000006"><a xlink:href="../../d7/d44/class_nonlinear_gurson1_d.html#adf4b5f74f2e429e85a3beb41a8eebdc5" target="_top" xlink:title=" ">
<polygon fill="white" stroke="#666666" points="158.5,-466 13.5,-466 13.5,-434 158.5,-434 158.5,-466"/>
<text text-anchor="start" x="21.5" y="-453.2" font-family="Consolas" font-size="11.00">NonlinearGurson1D::</text>
<text text-anchor="middle" x="86" y="-441.2" font-family="Consolas" font-size="11.00">record</text>
</a>
</g>
</g>
<!-- Node4&#45;&gt;Node6 -->
<g id="edge5_Node000004_Node000006" class="edge">
<title>Node4&#45;&gt;Node6</title>
<g id="a_edge5_Node000004_Node000006"><a xlink:title=" ">
<path fill="none" stroke="#63b8ff" d="M207.8,-459.71C191.55,-458.41 174.5,-457.04 158.51,-455.75"/>
<polygon fill="#63b8ff" stroke="#63b8ff" points="207.55,-463.2 217.79,-460.52 208.11,-456.23 207.55,-463.2"/>
</a>
</g>
</g>
<!-- Node9 -->
<g id="Node000009" class="node">
<title>Node9</title>
<g id="a_Node000009"><a xlink:href="../../d3/d70/class_elastic2_d.html#ac30664a3fb3acaa7984b317e913abd65" target="_top" xlink:title=" ">
<polygon fill="white" stroke="#666666" points="151.5,-400 20.5,-400 20.5,-380 151.5,-380 151.5,-400"/>
<text text-anchor="middle" x="86" y="-387.2" font-family="Consolas" font-size="11.00">Elastic2D::record</text>
</a>
</g>
</g>
<!-- Node8&#45;&gt;Node9 -->
<g id="edge8_Node000008_Node000009" class="edge">
<title>Node8&#45;&gt;Node9</title>
<g id="a_edge8_Node000008_Node000009"><a xlink:title=" ">
<path fill="none" stroke="#63b8ff" d="M207.63,-390C189.12,-390 169.59,-390 151.76,-390"/>
<polygon fill="#63b8ff" stroke="#63b8ff" points="207.79,-393.5 217.79,-390 207.79,-386.5 207.79,-393.5"/>
</a>
</g>
</g>
<!-- Node16 -->
<g id="Node000016" class="node">
<title>Node16</title>
<g id="a_Node000016"><a xlink:href="../../dc/dfb/class_c_d_p_m2.html#a6cf8d670df7d73c0d6aed5cc6b7901c3" target="_top" xlink:title=" ">
<polygon fill="white" stroke="#666666" points="138,-229 34,-229 34,-209 138,-209 138,-229"/>
<text text-anchor="middle" x="86" y="-216.2" font-family="Consolas" font-size="11.00">CDPM2::record</text>
</a>
</g>
</g>
<!-- Node15&#45;&gt;Node16 -->
<g id="edge15_Node000015_Node000016" class="edge">
<title>Node15&#45;&gt;Node16</title>
<g id="a_edge15_Node000015_Node000016"><a xlink:title=" ">
<path fill="none" stroke="#63b8ff" d="M226.73,-174.8C220.34,-176.66 213.99,-178.73 208,-181 191.08,-187.41 188.98,-193.75 172,-200 161.36,-203.92 149.66,-207.17 138.43,-209.81"/>
<polygon fill="#63b8ff" stroke="#63b8ff" points="228.04,-178.07 236.75,-172.04 226.18,-171.32 228.04,-178.07"/>
</a>
</g>
</g>
<!-- Node17 -->
<g id="Node000017" class="node">
<title>Node17</title>
<g id="a_Node000017"><a xlink:href="../../de/d9e/class_nonlinear_c_d_p.html#aa777d6c991dd61ba9ba2cfa264280582" target="_top" xlink:title=" ">
<polygon fill="white" stroke="#666666" points="162,-191 10,-191 10,-171 162,-171 162,-191"/>
<text text-anchor="middle" x="86" y="-178.2" font-family="Consolas" font-size="11.00">NonlinearCDP::record</text>
</a>
</g>
</g>
<!-- Node15&#45;&gt;Node17 -->
<g id="edge16_Node000015_Node000017" class="edge">
<title>Node15&#45;&gt;Node17</title>
<g id="a_edge16_Node000015_Node000017"><a xlink:title=" ">
<path fill="none" stroke="#63b8ff" d="M207.59,-169.49C192.67,-170.91 177.09,-172.4 162.28,-173.81"/>
<polygon fill="#63b8ff" stroke="#63b8ff" points="208.17,-172.95 217.79,-168.51 207.51,-165.98 208.17,-172.95"/>
</a>
</g>
</g>
<!-- Node18 -->
<g id="Node000018" class="node">
<title>Node18</title>
<g id="a_Node000018"><a xlink:href="../../dd/d13/class_timber_p_d.html#aa322828d4d8ee88879166628217cff07" target="_top" xlink:title=" ">
<polygon fill="white" stroke="#666666" points="148.5,-153 23.5,-153 23.5,-133 148.5,-133 148.5,-153"/>
<text text-anchor="middle" x="86" y="-140.2" font-family="Consolas" font-size="11.00">TimberPD::record</text>
</a>
</g>
</g>
<!-- Node15&#45;&gt;Node18 -->
<g id="edge17_Node000015_Node000018" class="edge">
<title>Node15&#45;&gt;Node18</title>
<g id="a_edge17_Node000015_Node000018"><a xlink:title=" ">
<path fill="none" stroke="#63b8ff" d="M207.68,-154.52C188.12,-152.65 167.41,-150.68 148.77,-148.9"/>
<polygon fill="#63b8ff" stroke="#63b8ff" points="207.51,-158.02 217.79,-155.49 208.17,-151.05 207.51,-158.02"/>
</a>
</g>
</g>
<!-- Node19 -->
<g id="Node000019" class="node">
<title>Node19</title>
<g id="a_Node000019"><a xlink:href="../../d1/dd0/class_nonlinear_gurson.html#ad922818151f9dce2d66a8432f32c847a" target="_top" xlink:title=" ">
<polygon fill="white" stroke="#666666" points="172,-115 0,-115 0,-95 172,-95 172,-115"/>
<text text-anchor="middle" x="86" y="-102.2" font-family="Consolas" font-size="11.00">NonlinearGurson::record</text>
</a>
</g>
</g>
<!-- Node15&#45;&gt;Node19 -->
<g id="edge18_Node000015_Node000019" class="edge">
<title>Node15&#45;&gt;Node19</title>
<g id="a_edge18_Node000015_Node000019"><a xlink:title=" ">
<path fill="none" stroke="#63b8ff" d="M226.73,-149.2C220.34,-147.34 213.99,-145.27 208,-143 191.08,-136.59 188.98,-130.25 172,-124 162.49,-120.5 152.14,-117.53 142.03,-115.05"/>
<polygon fill="#63b8ff" stroke="#63b8ff" points="226.18,-152.68 236.75,-151.96 228.04,-145.93 226.18,-152.68"/>
</a>
</g>
</g>
</g>
</svg>
