<svg xmlns="http://www.w3.org/2000/svg" xmlns:xlink="http://www.w3.org/1999/xlink" xml:space="preserve" id="main" onload="init(evt)"><style>.edge,.node,[data-mouse-over-selected=false]{opacity:.7}.edge.selected,.node.selected,[data-mouse-over-selected=true]{opacity:1}.edge:hover path{stroke:red}.edge:hover polygon{stroke:red;fill:red}</style><defs><g id="zoomPlus"><use xlink:href="#rim" fill="#404040"><set attributeName="fill" begin="zoomplus.mouseover" end="zoomplus.mouseout" to="#808080"/></use><path fill="none" stroke="#fff" stroke-width="1.5" d="M-4 0h8M0-4v8" pointer-events="none"/></g><g id="zoomMin"><use xlink:href="#rim" fill="#404040"><set attributeName="fill" begin="zoomminus.mouseover" end="zoomminus.mouseout" to="#808080"/></use><path fill="none" stroke="#fff" stroke-width="1.5" d="M-4 0h8" pointer-events="none"/></g><g id="arrowUp" transform="translate(30 24)"><use xlink:href="#rim"/><path fill="none" stroke="#fff" stroke-width="1.5" d="M0-3v7M-2.5-.5 0-3 2.5-.5" pointer-events="none"/></g><g id="arrowRight" transform="rotate(90 3.5 39.5)"><use xlink:href="#rim"/><path fill="none" stroke="#fff" stroke-width="1.5" d="M0-3v7M-2.5-.5 0-3 2.5-.5" pointer-events="none"/></g><g id="arrowDown" transform="matrix(-1 0 0 -1 30 48)"><use xlink:href="#rim"/><path fill="none" stroke="#fff" stroke-width="1.5" d="M0-3v7M-2.5-.5 0-3 2.5-.5" pointer-events="none"/></g><g id="arrowLeft" transform="rotate(-90 26.5 9.5)"><use xlink:href="#rim"/><path fill="none" stroke="#fff" stroke-width="1.5" d="M0-3v7M-2.5-.5 0-3 2.5-.5" pointer-events="none"/></g><circle id="rim" cx="0" cy="0" r="7"/><circle id="rim2" cx="0" cy="0" r="3.5"/><use xlink:href="#rim2" id="resetDef" fill="#404040"><set attributeName="fill" begin="reset.mouseover" end="reset.mouseout" to="#808080"/></use></defs><script type="application/ecmascript">var viewWidth = 872;
var viewHeight = 488;
var sectionId = &apos;dynsection-0&apos;;</script><script xlink:href="../../svg.min.js" type="application/ecmascript"/><svg id="graph" class="graph"><g id="viewport"><title>Element/Beam/EB31OS.cpp</title><g id="Node000001" class="node"><title>Node1</title><a id="a_Node000001">
<path fill="#999" stroke="#666" d="M571.5-480h-172v20h172z"/>
<text x="485.5" y="-467.2" font-family="Consolas" font-size="11" text-anchor="middle">Element/Beam/EB31OS.cpp</text>
</a></g><g id="Node000002" class="node"><title>Node2</title><a xlink:href="../../d3/d94/_e_b31_o_s_8h.html" id="a_Node000002" target="_top">
<path fill="#fff" stroke="#666" d="M521-424h-71v20h71z"/>
<text x="485.5" y="-411.2" font-family="Consolas" font-size="11" text-anchor="middle">EB31OS.h</text>
</a></g><g id="edge1_Node000001_Node000002" class="edge"><title>Node1-&gt;Node2</title><a id="a_edge1_Node000001_Node000002">
<path fill="none" stroke="#63b8ff" d="M485.5-459.59v25.02"/>
<path fill="#63b8ff" stroke="#63b8ff" d="m489-434.3-3.5 10-3.5-10z"/>
</a></g><g id="Node000018" class="node"><title>Node18</title><a xlink:href="../../d4/d0f/_output_type_8h.html" id="a_Node000018" target="_top">
<path fill="#fff" stroke="#666" d="M184.5-194h-158v20h158z"/>
<text x="105.5" y="-181.2" font-family="Consolas" font-size="11" text-anchor="middle">Recorder/OutputType.h</text>
</a></g><g id="edge33_Node000001_Node000018" class="edge"><title>Node1-&gt;Node18</title><a id="a_edge33_Node000001_Node000018">
<path fill="none" stroke="#63b8ff" d="M399.27-461.4C287.16-449.1 105.5-419.78 105.5-359v154.86"/>
<path fill="#63b8ff" stroke="#63b8ff" d="m109-204.02-3.5 10-3.5-10z"/>
</a></g><g id="Node000021" class="node"><title>Node21</title><a xlink:href="../../dc/df2/_domain_base_8h.html" id="a_Node000021" target="_top">
<path fill="#fff" stroke="#666" d="M798-194H653v20h145z"/>
<text x="725.5" y="-181.2" font-family="Consolas" font-size="11" text-anchor="middle">Domain/DomainBase.h</text>
</a></g><g id="edge24_Node000001_Node000021" class="edge"><title>Node1-&gt;Node21</title><a id="a_edge24_Node000001_Node000021">
<path fill="none" stroke="#63b8ff" d="M571.7-463.16c67.42 9.81 149.8 35.79 149.8 104.16v58c0 34.13 1.75 73.88 2.94 96.87"/>
<path fill="#63b8ff" stroke="#63b8ff" d="m727.94-204.19-2.96 10.17-4.03-9.8z"/>
</a></g><g id="Node000003" class="node"><title>Node3</title><a xlink:href="../../d9/d41/_section_element_8h.html" id="a_Node000003" target="_top">
<path fill="#fff" stroke="#666" d="M497-368H318v20h179z"/>
<text x="407.5" y="-355.2" font-family="Consolas" font-size="11" text-anchor="middle">Element/SectionElement.h</text>
</a></g><g id="edge2_Node000002_Node000003" class="edge"><title>Node2-&gt;Node3</title><a id="a_edge2_Node000002_Node000003">
<path fill="none" stroke="#63b8ff" d="M472.27-403.84c-11.84 8.2-29.41 20.36-43.26 29.95"/>
<path fill="#63b8ff" stroke="#63b8ff" d="m430.75-370.84-10.21 2.81 6.23-8.56z"/>
</a></g><g id="Node000020" class="node"><title>Node20</title><a xlink:href="../../dc/db8/_orientation_8h.html" id="a_Node000020" target="_top">
<path fill="#fff" stroke="#666" d="M687.5-312h-212v20h212z"/>
<text x="581.5" y="-299.2" font-family="Consolas" font-size="11" text-anchor="middle">Element/Utility/Orientation.h</text>
</a></g><g id="edge22_Node000002_Node000020" class="edge"><title>Node2-&gt;Node20</title><a id="a_edge22_Node000002_Node000020">
<path fill="none" stroke="#63b8ff" d="m493.36-404 73.37 84.08"/>
<path fill="#63b8ff" stroke="#63b8ff" d="m569.6-321.96 3.94 9.83-9.22-5.23z"/>
</a></g><g id="Node000004" class="node"><title>Node4</title><a xlink:href="../../d0/db8/_element_8h.html" id="a_Node000004" target="_top">
<path fill="#fff" stroke="#666" d="M454-312H323v20h131z"/>
<text x="388.5" y="-299.2" font-family="Consolas" font-size="11" text-anchor="middle">Element/Element.h</text>
</a></g><g id="edge3_Node000003_Node000004" class="edge"><title>Node3-&gt;Node4</title><a id="a_edge3_Node000003_Node000004">
<path fill="none" stroke="#63b8ff" d="M404.19-347.59c-2.48 7.04-5.95 16.92-9 25.59"/>
<path fill="#63b8ff" stroke="#63b8ff" d="m398.39-320.57-6.62 8.27.02-10.59z"/>
</a></g><g id="Node000005" class="node"><title>Node5</title><a xlink:href="../../d1/d48/_distributed_8h.html" id="a_Node000005" target="_top">
<path fill="#fff" stroke="#666" d="M291.5-256h-158v20h158z"/>
<text x="212.5" y="-243.2" font-family="Consolas" font-size="11" text-anchor="middle">Element/Distributed.h</text>
</a></g><g id="edge4_Node000004_Node000005" class="edge"><title>Node4-&gt;Node5</title><a id="a_edge4_Node000004_Node000005">
<path fill="none" stroke="#63b8ff" d="M359.04-291.96c-29.44 9.03-74.89 22.97-107.36 32.94"/>
<path fill="#63b8ff" stroke="#63b8ff" d="m252.64-255.66-10.59-.41 8.54-6.28z"/>
</a></g><g id="Node000013" class="node"><title>Node13</title><a xlink:href="../../d9/d82/_element_base_8h.html" id="a_Node000013" target="_top">
<path fill="#fff" stroke="#666" d="M467.5-256h-158v20h158z"/>
<text x="388.5" y="-243.2" font-family="Consolas" font-size="11" text-anchor="middle">Element/ElementBase.h</text>
</a></g><g id="edge12_Node000004_Node000013" class="edge"><title>Node4-&gt;Node13</title><a id="a_edge12_Node000004_Node000013">
<path fill="none" stroke="#63b8ff" d="M388.5-291.59v25.02"/>
<path fill="#63b8ff" stroke="#63b8ff" d="m392-266.3-3.5 10-3.5-10z"/>
</a></g><g id="Node000006" class="node"><title>Node6</title><a xlink:href="../../d8/d8f/suan_pan_8h.html" id="a_Node000006" target="_top">
<path fill="#fff" stroke="#666" d="M477-76h-77v20h77z"/>
<text x="438.5" y="-63.2" font-family="Consolas" font-size="11" text-anchor="middle">suanPan.h</text>
</a></g><g id="edge5_Node000005_Node000006" class="edge"><title>Node5-&gt;Node6</title><a id="a_edge5_Node000005_Node000006">
<path fill="none" stroke="#63b8ff" d="M212.51-235.66c.57 24.22 5.57 89.57 41.99 123.66 19.4 18.16 87.66 31.33 135.34 38.57"/>
<path fill="#63b8ff" stroke="#63b8ff" d="m390.6-76.86 9.38 4.93-10.41 2z"/>
</a></g><g id="Node000007" class="node"><title>Node7</title><a id="a_Node000007">
<path fill="#e0e0e0" stroke="#999" d="M196-20h-71V0h71z"/>
<text x="160.5" y="-7.2" font-family="Consolas" font-size="11" text-anchor="middle">iostream</text>
</a></g><g id="edge6_Node000006_Node000007" class="edge"><title>Node6-&gt;Node7</title><a id="a_edge6_Node000006_Node000007">
<path fill="none" stroke="#63b8ff" d="M399.96-57.73c-44.4 8.4-119.84 22.78-193.95 37.45"/>
<path fill="#63b8ff" stroke="#63b8ff" d="m206.52-16.82-10.49-1.49 9.13-5.37z"/>
</a></g><g id="Node000008" class="node"><title>Node8</title><a id="a_Node000008">
<path fill="#e0e0e0" stroke="#999" d="M325-20H214V0h111z"/>
<text x="269.5" y="-7.2" font-family="Consolas" font-size="11" text-anchor="middle">armadillo/arma</text>
</a></g><g id="edge7_Node000006_Node000008" class="edge"><title>Node6-&gt;Node8</title><a id="a_edge7_Node000006_Node000008">
<path fill="none" stroke="#63b8ff" d="M410.21-55.96c-28.15 8.99-71.53 22.85-102.68 32.81"/>
<path fill="#63b8ff" stroke="#63b8ff" d="m308.47-19.78-10.59-.29 8.46-6.38z"/>
</a></g><g id="Node000009" class="node"><title>Node9</title><a id="a_Node000009">
<path fill="#e0e0e0" stroke="#999" d="M427.5-20h-84V0h84z"/>
<text x="385.5" y="-7.2" font-family="Consolas" font-size="11" text-anchor="middle">filesystem</text>
</a></g><g id="edge8_Node000006_Node000009" class="edge"><title>Node6-&gt;Node9</title><a id="a_edge8_Node000006_Node000009">
<path fill="none" stroke="#63b8ff" d="M429.27-55.59c-7.6 7.74-18.56 18.9-27.61 28.12"/>
<path fill="#63b8ff" stroke="#63b8ff" d="m404.13-24.98-9.5 4.68 4.5-9.59z"/>
</a></g><g id="Node000010" class="node"><title>Node10</title><a id="a_Node000010">
<path fill="#e0e0e0" stroke="#999" d="M537-20h-91V0h91z"/>
<text x="491.5" y="-7.2" font-family="Consolas" font-size="11" text-anchor="middle">fmt/color.h</text>
</a></g><g id="edge9_Node000006_Node000010" class="edge"><title>Node6-&gt;Node10</title><a id="a_edge9_Node000006_Node000010">
<path fill="none" stroke="#63b8ff" d="M447.73-55.59c7.6 7.74 18.56 18.9 27.61 28.12"/>
<path fill="#63b8ff" stroke="#63b8ff" d="m477.87-29.89 4.5 9.59-9.5-4.68z"/>
</a></g><g id="Node000011" class="node"><title>Node11</title><a id="a_Node000011">
<path fill="#e0e0e0" stroke="#999" d="M605.5-20h-50V0h50z"/>
<text x="580.5" y="-7.2" font-family="Consolas" font-size="11" text-anchor="middle">mutex</text>
</a></g><g id="edge10_Node000006_Node000011" class="edge"><title>Node6-&gt;Node11</title><a id="a_edge10_Node000006_Node000011">
<path fill="none" stroke="#63b8ff" d="M462.27-55.96c23.24 8.84 58.84 22.38 84.91 32.29"/>
<path fill="#63b8ff" stroke="#63b8ff" d="m548.55-26.89 8.1 6.82-10.59-.28z"/>
</a></g><g id="Node000012" class="node"><title>Node12</title><a id="a_Node000012">
<path fill="#e0e0e0" stroke="#999" d="M681-20h-57V0h57z"/>
<text x="652.5" y="-7.2" font-family="Consolas" font-size="11" text-anchor="middle">memory</text>
</a></g><g id="edge11_Node000006_Node000012" class="edge"><title>Node6-&gt;Node12</title><a id="a_edge11_Node000006_Node000012">
<path fill="none" stroke="#63b8ff" d="m474.32-55.96 139.61 35.23"/>
<path fill="#63b8ff" stroke="#63b8ff" d="m614.93-24.09 8.84 5.84-10.55.95z"/>
</a></g><g id="Node000014" class="node"><title>Node14</title><a xlink:href="../../d1/d02/_node_8h.html" id="a_Node000014" target="_top">
<path fill="#fff" stroke="#666" d="M596.5-194h-104v20h104z"/>
<text x="544.5" y="-181.2" font-family="Consolas" font-size="11" text-anchor="middle">Domain/Node.h</text>
</a></g><g id="edge13_Node000013_Node000014" class="edge"><title>Node13-&gt;Node14</title><a id="a_edge13_Node000013_Node000014">
<path fill="none" stroke="#63b8ff" d="M412.19-235.89c26.5 10.19 69.59 26.77 99.36 38.22"/>
<path fill="#63b8ff" stroke="#63b8ff" d="m513.02-200.86 8.08 6.86-10.59-.33z"/>
</a></g><g id="Node000015" class="node"><title>Node15</title><a xlink:href="../../d2/d4a/_tag_8h.html" id="a_Node000015" target="_top">
<path fill="#fff" stroke="#666" d="M554.5-132h-98v20h98z"/>
<text x="505.5" y="-119.2" font-family="Consolas" font-size="11" text-anchor="middle">Domain/Tag.h</text>
</a></g><g id="edge16_Node000013_Node000015" class="edge"><title>Node13-&gt;Node15</title><a id="a_edge16_Node000013_Node000015">
<path fill="none" stroke="#63b8ff" d="M401.92-235.82c12.05 8.56 29.89 22.05 43.58 35.82 18.57 18.69 36.72 43.08 48.1 59.35"/>
<path fill="#63b8ff" stroke="#63b8ff" d="m496.69-142.33 2.79 10.22-8.55-6.25z"/>
</a></g><g id="Node000016" class="node"><title>Node16</title><a xlink:href="../../d6/d94/_mapping_d_o_f_8h.html" id="a_Node000016" target="_top">
<path fill="#fff" stroke="#666" d="M415.5-132h-152v20h152z"/>
<text x="339.5" y="-119.2" font-family="Consolas" font-size="11" text-anchor="middle">Element/MappingDOF.h</text>
</a></g><g id="edge17_Node000013_Node000016" class="edge"><title>Node13-&gt;Node16</title><a id="a_edge17_Node000013_Node000016">
<path fill="none" stroke="#63b8ff" d="M325.34-235.96c-21.33 6.41-42.97 17.33-55.84 35.96-8.08 11.7-6.82 19.52 0 32 7.65 14.01 21.74 24.31 35.28 31.49"/>
<path fill="#63b8ff" stroke="#63b8ff" d="m306.52-139.55 7.46 7.52-10.52-1.23z"/>
</a></g><g id="Node000017" class="node"><title>Node17</title><a xlink:href="../../d9/dc0/vtk_base_8h.html" id="a_Node000017" target="_top">
<path fill="#fff" stroke="#666" d="M436.5-200h-158v32h158z"/>
<text x="286.5" y="-187.2" font-family="Consolas" font-size="11">Element/Visualisation</text>
<text x="357.5" y="-175.2" font-family="Consolas" font-size="11" text-anchor="middle">/vtkBase.h</text>
</a></g><g id="edge19_Node000013_Node000017" class="edge"><title>Node13-&gt;Node17</title><a id="a_edge19_Node000013_Node000017">
<path fill="none" stroke="#63b8ff" d="M383.79-235.89c-3.66 7.08-8.91 17.25-13.76 26.63"/>
<path fill="#63b8ff" stroke="#63b8ff" d="m373.09-207.55-7.7 7.27 1.48-10.49z"/>
</a></g><g id="edge20_Node000013_Node000018" class="edge"><title>Node13-&gt;Node18</title><a id="a_edge20_Node000013_Node000018">
<path fill="none" stroke="#63b8ff" d="M345.83-235.95c-50.2 10.64-133.52 28.31-187.68 39.79"/>
<path fill="#63b8ff" stroke="#63b8ff" d="m158.57-192.67-10.51-1.35 9.05-5.5z"/>
</a></g><g id="edge14_Node000014_Node000015" class="edge"><title>Node14-&gt;Node15</title><a id="a_edge14_Node000014_Node000015">
<path fill="none" stroke="#63b8ff" d="M538.58-173.89c-5.67 8.72-14.38 22.12-21.44 32.98"/>
<path fill="#63b8ff" stroke="#63b8ff" d="m519.86-138.68-8.38 6.48 2.51-10.29z"/>
</a></g><g id="edge15_Node000015_Node000006" class="edge"><title>Node15-&gt;Node6</title><a id="a_edge15_Node000015_Node000006">
<path fill="none" stroke="#63b8ff" d="M494.13-111.84c-9.97 8.04-24.68 19.9-36.47 29.4"/>
<path fill="#63b8ff" stroke="#63b8ff" d="m459.68-79.58-9.98 3.55 5.59-9z"/>
</a></g><g id="edge18_Node000016_Node000006" class="edge"><title>Node16-&gt;Node6</title><a id="a_edge18_Node000016_Node000006">
<path fill="none" stroke="#63b8ff" d="M356.29-111.84c15.46 8.43 38.61 21.06 56.41 30.77"/>
<path fill="#63b8ff" stroke="#63b8ff" d="m414.85-83.89 7.1 7.86-10.45-1.71z"/>
</a></g><g id="Node000019" class="node"><title>Node19</title><a id="a_Node000019">
<path fill="#e0e0e0" stroke="#999" d="M185-132H0v20h185z"/>
<text x="92.5" y="-119.2" font-family="Consolas" font-size="11" text-anchor="middle">magic_enum/magic_enum.hpp</text>
</a></g><g id="edge21_Node000018_Node000019" class="edge"><title>Node18-&gt;Node19</title><a id="a_edge21_Node000018_Node000019">
<path fill="none" stroke="#63b8ff" d="M103.53-173.89c-1.82 8.37-4.56 21.05-6.86 31.66"/>
<path fill="#63b8ff" stroke="#63b8ff" d="m100.03-141.23-5.54 9.03-1.3-10.51z"/>
</a></g><g id="edge23_Node000020_Node000015" class="edge"><title>Node20-&gt;Node15</title><a id="a_edge23_Node000020_Node000015">
<path fill="none" stroke="#63b8ff" d="M587.29-291.74c13.53 22.95 44.2 83.55 18.21 123.74-10.12 15.65-27.12 25.91-44.25 32.61"/>
<path fill="#63b8ff" stroke="#63b8ff" d="m562.35-132.06-10.6.04 8.25-6.64z"/>
</a></g><g id="edge25_Node000021_Node000015" class="edge"><title>Node21-&gt;Node15</title><a id="a_edge25_Node000021_Node000015">
<path fill="none" stroke="#63b8ff" d="M692.09-173.89c-38.51 10.5-101.86 27.78-143.91 39.25"/>
<path fill="#63b8ff" stroke="#63b8ff" d="m549.08-131.26-10.57-.74 8.72-6.01z"/>
</a></g><g id="Node000022" class="node"><title>Node22</title><a xlink:href="../../d4/ddd/container_8h.html" id="a_Node000022" target="_top">
<path fill="#fff" stroke="#666" d="M718-132H573v20h145z"/>
<text x="645.5" y="-119.2" font-family="Consolas" font-size="11" text-anchor="middle">Toolbox/container.h</text>
</a></g><g id="edge26_Node000021_Node000022" class="edge"><title>Node21-&gt;Node22</title><a id="a_edge26_Node000021_Node000022">
<path fill="none" stroke="#63b8ff" d="M713.35-173.89c-12.64 9.48-32.65 24.49-47.67 35.76"/>
<path fill="#63b8ff" stroke="#63b8ff" d="m667.6-135.2-10.1 3.2 5.9-8.8z"/>
</a></g><g id="Node000027" class="node"><title>Node27</title><a id="a_Node000027">
<path fill="#e0e0e0" stroke="#999" d="M793-132h-57v20h57z"/>
<text x="764.5" y="-119.2" font-family="Consolas" font-size="11" text-anchor="middle">future</text>
</a></g><g id="edge32_Node000021_Node000027" class="edge"><title>Node21-&gt;Node27</title><a id="a_edge32_Node000021_Node000027">
<path fill="none" stroke="#63b8ff" d="M731.42-173.89c5.67 8.72 14.38 22.12 21.44 32.98"/>
<path fill="#63b8ff" stroke="#63b8ff" d="m756.01-142.49 2.51 10.29-8.38-6.48z"/>
</a></g><g id="edge27_Node000022_Node000006" class="edge"><title>Node22-&gt;Node6</title><a id="a_edge27_Node000022_Node000006">
<path fill="none" stroke="#63b8ff" d="M610.85-111.96c-35.07 9.15-89.46 23.34-127.74 33.32"/>
<path fill="#63b8ff" stroke="#63b8ff" d="m483.82-75.21-10.56-.86 8.79-5.91z"/>
</a></g><g id="Node000023" class="node"><title>Node23</title><a id="a_Node000023">
<path fill="#e0e0e0" stroke="#999" d="M564-76h-37v20h37z"/>
<text x="545.5" y="-63.2" font-family="Consolas" font-size="11" text-anchor="middle">map</text>
</a></g><g id="edge28_Node000022_Node000023" class="edge"><title>Node22-&gt;Node23</title><a id="a_edge28_Node000022_Node000023">
<path fill="none" stroke="#63b8ff" d="M628.54-111.84c-15.76 8.51-39.43 21.29-57.48 31.04"/>
<path fill="#63b8ff" stroke="#63b8ff" d="m572.68-77.7-10.47 1.67 7.14-7.83z"/>
</a></g><g id="Node000024" class="node"><title>Node24</title><a id="a_Node000024">
<path fill="#e0e0e0" stroke="#999" d="M619-76h-37v20h37z"/>
<text x="600.5" y="-63.2" font-family="Consolas" font-size="11" text-anchor="middle">set</text>
</a></g><g id="edge29_Node000022_Node000024" class="edge"><title>Node22-&gt;Node24</title><a id="a_edge29_Node000022_Node000024">
<path fill="none" stroke="#63b8ff" d="M637.66-111.59c-6.32 7.58-15.38 18.46-22.97 27.57"/>
<path fill="#63b8ff" stroke="#63b8ff" d="m617.34-81.74-9.09 5.44 3.71-9.92z"/>
</a></g><g id="Node000025" class="node"><title>Node25</title><a id="a_Node000025">
<path fill="#e0e0e0" stroke="#999" d="M741.5-76h-104v20h104z"/>
<text x="689.5" y="-63.2" font-family="Consolas" font-size="11" text-anchor="middle">unordered_map</text>
</a></g><g id="edge30_Node000022_Node000025" class="edge"><title>Node22-&gt;Node25</title><a id="a_edge30_Node000022_Node000025">
<path fill="none" stroke="#63b8ff" d="M653.16-111.59c6.12 7.51 14.87 18.24 22.24 27.29"/>
<path fill="#63b8ff" stroke="#63b8ff" d="m678.32-86.26 3.6 9.96-9.03-5.54z"/>
</a></g><g id="Node000026" class="node"><title>Node26</title><a id="a_Node000026">
<path fill="#e0e0e0" stroke="#999" d="M863.5-76h-104v20h104z"/>
<text x="811.5" y="-63.2" font-family="Consolas" font-size="11" text-anchor="middle">unordered_set</text>
</a></g><g id="edge31_Node000022_Node000026" class="edge"><title>Node22-&gt;Node26</title><a id="a_edge31_Node000022_Node000026">
<path fill="none" stroke="#63b8ff" d="M673.28-111.96c27.54 8.95 69.9 22.73 100.47 32.68"/>
<path fill="#63b8ff" stroke="#63b8ff" d="m775.2-82.49 8.42 6.42-10.59.24z"/>
</a></g></g></svg><g id="navigator" fill="#404254"><path fill="#f2f5e9" fill-opacity=".5" stroke="#606060" stroke-width=".5" d="M0 0h60v60H0z"/><use xlink:href="#zoomPlus" id="zoomplus" x="17" y="9" onmousedown="handleZoom(evt,'in')"/><use xlink:href="#zoomMin" id="zoomminus" x="42" y="9" onmousedown="handleZoom(evt,'out')"/><use xlink:href="#resetDef" id="reset" x="30" y="36" onmousedown="handleReset()"/><use xlink:href="#arrowUp" id="arrowup" x="0" y="0" onmousedown="handlePan(0,-1)"/><use xlink:href="#arrowRight" id="arrowright" x="0" y="0" onmousedown="handlePan(1,0)"/><use xlink:href="#arrowDown" id="arrowdown" x="0" y="0" onmousedown="handlePan(0,1)"/><use xlink:href="#arrowLeft" id="arrowleft" x="0" y="0" onmousedown="handlePan(-1,0)"/></g><svg height="30" preserveAspectRatio="xMaxYMin meet" viewBox="0 0 15 15"><a xlink:href="_e_b31_o_s_8cpp__incl_org.svg" id="arrow_out" target="_base" transform="scale(.3)">
   <rect id="button" width="38" height="38" x="6" y="6" fill="#f2f5e9" fill-opacity=".5" stroke="#606060" stroke-width="1" rx="5" ry="5"/>
   <path id="arrow" d="M11.5 31.437c.44-11.34 10.543-20.114 20.659-9.458l4.91-4.733.02 14.754-14.929-.022 4.838-4.838c-8.47-8.876-13.706-1.91-15.498 4.297" style="fill:#404040"/>
  </a></svg><script type="application/ecmascript"><![CDATA[
document.addEventListener('DOMContentLoaded', (event) => {
  highlightEdges();
  highlightAdjacentNodes();
});
]]></script></svg>