<?xml version="1.0" encoding="UTF-8" standalone="no"?>
<!DOCTYPE svg PUBLIC "-//W3C//DTD SVG 1.1//EN"
 "http://www.w3.org/Graphics/SVG/1.1/DTD/svg11.dtd">
<!-- Generated by graphviz version 9.0.0 (20230911.1827)
 -->
<!-- Title: MetaMat::at Pages: 1 -->
<svg width="262pt" height="110pt"
 viewBox="0.00 0.00 262.00 109.50" xmlns="http://www.w3.org/2000/svg" xmlns:xlink="http://www.w3.org/1999/xlink">
<g id="graph0" class="graph" transform="scale(1 1) rotate(0) translate(4 105.5)">
<title>MetaMat::at</title>
<!-- Node1 -->
<g id="Node000001" class="node">
<title>Node1</title>
<g id="a_Node000001"><a xlink:title="Access element with bound check.">
<polygon fill="#999999" stroke="#666666" points="254,-61.5 172,-61.5 172,-40 254,-40 254,-61.5"/>
<text text-anchor="middle" x="213" y="-47.05" font-family="Consolas" font-size="11.00">MetaMat::at</text>
</a>
</g>
</g>
<!-- Node2 -->
<g id="Node000002" class="node">
<title>Node2</title>
<g id="a_Node000002"><a xlink:href="../../d0/de9/class_dense_mat.html#a8c6f8dc9424bdf46fd0fd52ceb075049" target="_top" xlink:title=" ">
<polygon fill="white" stroke="#666666" points="136,-101.5 0,-101.5 0,-80 136,-80 136,-101.5"/>
<text text-anchor="middle" x="68" y="-87.05" font-family="Consolas" font-size="11.00">DenseMat::scale_accu</text>
</a>
</g>
</g>
<!-- Node1&#45;&gt;Node2 -->
<g id="edge1_Node000001_Node000002" class="edge">
<title>Node1&#45;&gt;Node2</title>
<g id="a_edge1_Node000001_Node000002"><a xlink:title=" ">
<path fill="none" stroke="#63b8ff" d="M160.85,-65.06C143.77,-69.83 125.01,-75.08 108.91,-79.59"/>
<polygon fill="#63b8ff" stroke="#63b8ff" points="161.64,-68.47 170.33,-62.41 159.76,-61.73 161.64,-68.47"/>
</a>
</g>
</g>
<!-- Node3 -->
<g id="Node000003" class="node">
<title>Node3</title>
<g id="a_Node000003"><a xlink:href="../../d8/d79/class_meta_mat.html#a32911cae73df966d6527a3ee592dbb7f" target="_top" xlink:title=" ">
<polygon fill="white" stroke="#666666" points="118,-61.5 18,-61.5 18,-40 118,-40 118,-61.5"/>
<text text-anchor="middle" x="68" y="-47.05" font-family="Consolas" font-size="11.00">MetaMat::unify</text>
</a>
</g>
</g>
<!-- Node1&#45;&gt;Node3 -->
<g id="edge2_Node000001_Node000003" class="edge">
<title>Node1&#45;&gt;Node3</title>
<g id="a_edge2_Node000001_Node000003"><a xlink:title=" ">
<path fill="none" stroke="#63b8ff" d="M160.54,-50.75C146.78,-50.75 131.96,-50.75 118.32,-50.75"/>
<polygon fill="#63b8ff" stroke="#63b8ff" points="160.27,-54.25 170.27,-50.75 160.27,-47.25 160.27,-54.25"/>
</a>
</g>
</g>
<!-- Node4 -->
<g id="Node000004" class="node">
<title>Node4</title>
<g id="a_Node000004"><a xlink:href="../../d8/d79/class_meta_mat.html#a7b99dfe9c28e08de64176d0fa0305de0" target="_top" xlink:title="Access element without bound check.">
<polygon fill="white" stroke="#666666" points="130,-21.5 6,-21.5 6,0 130,0 130,-21.5"/>
<text text-anchor="middle" x="68" y="-7.05" font-family="Consolas" font-size="11.00">MetaMat::unsafe_at</text>
</a>
</g>
</g>
<!-- Node1&#45;&gt;Node4 -->
<g id="edge3_Node000001_Node000004" class="edge">
<title>Node1&#45;&gt;Node4</title>
<g id="a_edge3_Node000001_Node000004"><a xlink:title=" ">
<path fill="none" stroke="#63b8ff" d="M160.85,-36.44C143.77,-31.67 125.01,-26.42 108.91,-21.91"/>
<polygon fill="#63b8ff" stroke="#63b8ff" points="159.76,-39.77 170.33,-39.09 161.64,-33.03 159.76,-39.77"/>
</a>
</g>
</g>
</g>
</svg>
