<?xml version="1.0" encoding="UTF-8" standalone="no"?>
<!DOCTYPE svg PUBLIC "-//W3C//DTD SVG 1.1//EN"
 "http://www.w3.org/Graphics/SVG/1.1/DTD/svg11.dtd">
<!-- Generated by graphviz version 8.1.0 (20230707.0739)
 -->
<!-- Title: Converger::get_domain Pages: 1 -->
<!--zoomable 508 -->

<svg id="main" version="1.1" xmlns="http://www.w3.org/2000/svg" xmlns:xlink="http://www.w3.org/1999/xlink" xml:space="preserve" onload="init(evt)">
<style type="text/css"><![CDATA[
.node, .edge {opacity: 0.7;}
.node.selected, .edge.selected {opacity: 1;}
.edge:hover path { stroke: red; }
.edge:hover polygon { stroke: red; fill: red; }
]]></style>

<defs>
  <circle id="rim" cx="0" cy="0" r="7"/>
  <circle id="rim2" cx="0" cy="0" r="3.5"/>
  <g id="zoomPlus">
    <use xlink:href="#rim" fill="#404040"><set attributeName="fill" to="#808080" begin="zoomplus.mouseover" end="zoomplus.mouseout"/></use>
    <path d="M-4,0h8M0,-4v8" fill="none" stroke="white" stroke-width="1.5" pointer-events="none"/>
  </g>
  <g id="zoomMin">
    <use xlink:href="#rim" fill="#404040"><set attributeName="fill" to="#808080" begin="zoomminus.mouseover" end="zoomminus.mouseout"/></use>
    <path d="M-4,0h8" fill="none" stroke="white" stroke-width="1.5" pointer-events="none"/>
  </g>
  <g id="arrowUp" transform="translate(30 24)">
    <use xlink:href="#rim"/>
    <path pointer-events="none" fill="none" stroke="white" stroke-width="1.5" d="M0,-3.0v7 M-2.5,-0.5L0,-3.0L2.5,-0.5"/>
  </g>
  <g id="arrowRight" transform="rotate(90) translate(36 -43)">
    <use xlink:href="#rim"/>
    <path pointer-events="none" fill="none" stroke="white" stroke-width="1.5" d="M0,-3.0v7 M-2.5,-0.5L0,-3.0L2.5,-0.5"/>
  </g>
  <g id="arrowDown" transform="rotate(180) translate(-30 -48)">
    <use xlink:href="#rim"/>
    <path pointer-events="none" fill="none" stroke="white" stroke-width="1.5" d="M0,-3.0v7 M-2.5,-0.5L0,-3.0L2.5,-0.5"/>
  </g>
  <g id="arrowLeft" transform="rotate(270) translate(-36 17)">
    <use xlink:href="#rim"/>
    <path pointer-events="none" fill="none" stroke="white" stroke-width="1.5" d="M0,-3.0v7 M-2.5,-0.5L0,-3.0L2.5,-0.5"/>
  </g>
  <g id="resetDef">
    <use xlink:href="#rim2" fill="#404040"><set attributeName="fill" to="#808080" begin="reset.mouseover" end="reset.mouseout"/></use>
  </g>
</defs>
<script type="application/ecmascript">
var viewWidth = 560;
var viewHeight = 508;
var sectionId = 'dynsection-3';
</script>
<script type="application/ecmascript" xlink:href="../../svg.min.js"/>
<svg id="graph" class="graph">
<g id="viewport">
<title>Converger::get_domain</title>
<!-- Node1 -->
<g id="Node000001" class="node">
<title>Node1</title>
<g id="a_Node000001"><a xlink:title="method to return DomainBase.">
<polygon fill="#999999" stroke="#666666" points="552,-241.5 410,-241.5 410,-220 552,-220 552,-241.5"/>
<text text-anchor="middle" x="481" y="-227.05" font-family="Consolas" font-size="11.00">Converger::get_domain</text>
</a>
</g>
</g>
<!-- Node2 -->
<g id="Node000002" class="node">
<title>Node2</title>
<g id="a_Node000002"><a xlink:href="../../d7/dae/class_converger.html#aa1f2150f975864550f4c8ed11a0397bc" target="_top" xlink:title=" ">
<polygon fill="white" stroke="#666666" points="365,-419.5 211,-419.5 211,-398 365,-398 365,-419.5"/>
<text text-anchor="middle" x="288" y="-405.05" font-family="Consolas" font-size="11.00">Converger::get_residual</text>
</a>
</g>
</g>
<!-- Node1&#45;&gt;Node2 -->
<g id="edge1_Node000001_Node000002" class="edge">
<title>Node1&#45;&gt;Node2</title>
<g id="a_edge1_Node000001_Node000002"><a xlink:title=" ">
<path fill="none" stroke="#63b8ff" d="M471.04,-251.89C455.94,-285 422.25,-348.9 374,-383.75 365.89,-389.6 356.43,-394.1 346.81,-397.54"/>
<polygon fill="#63b8ff" stroke="#63b8ff" points="474.61,-253.49 475.45,-242.93 468.2,-250.66 474.61,-253.49"/>
</a>
</g>
</g>
<!-- Node3 -->
<g id="Node000003" class="node">
<title>Node3</title>
<g id="a_Node000003"><a xlink:href="../../d5/d86/class_abs_incre_energy.html#ad51dd0eb393597970ef9d26a0180ece7" target="_top" xlink:title=" ">
<polygon fill="white" stroke="#666666" points="145,-500.25 21,-500.25 21,-465.25 145,-465.25 145,-500.25"/>
<text text-anchor="start" x="29" y="-485.8" font-family="Consolas" font-size="11.00">AbsIncreEnergy::is</text>
<text text-anchor="middle" x="83" y="-472.3" font-family="Consolas" font-size="11.00">_converged</text>
</a>
</g>
</g>
<!-- Node1&#45;&gt;Node3 -->
<g id="edge11_Node000001_Node000003" class="edge">
<title>Node1&#45;&gt;Node3</title>
<g id="a_edge11_Node000001_Node000003"><a xlink:title=" ">
<path fill="none" stroke="#63b8ff" d="M475,-252.51C464.25,-294 434.85,-384.23 374,-428.75 306.94,-477.82 208.4,-486.38 145.21,-486.07"/>
<polygon fill="#63b8ff" stroke="#63b8ff" points="478.6,-253.51 477.59,-242.96 471.8,-251.83 478.6,-253.51"/>
</a>
</g>
</g>
<!-- Node5 -->
<g id="Node000005" class="node">
<title>Node5</title>
<g id="a_Node000005"><a xlink:href="../../dd/dec/class_rel_incre_energy.html#a2a2f0cd8fcffbceb6fa15cf290f24bf9" target="_top" xlink:title=" ">
<polygon fill="white" stroke="#666666" points="145,-368.25 21,-368.25 21,-333.25 145,-333.25 145,-368.25"/>
<text text-anchor="start" x="29" y="-353.8" font-family="Consolas" font-size="11.00">RelIncreEnergy::is</text>
<text text-anchor="middle" x="83" y="-340.3" font-family="Consolas" font-size="11.00">_converged</text>
</a>
</g>
</g>
<!-- Node1&#45;&gt;Node5 -->
<g id="edge16_Node000001_Node000005" class="edge">
<title>Node1&#45;&gt;Node5</title>
<g id="a_edge16_Node000001_Node000005"><a xlink:title=" ">
<path fill="none" stroke="#63b8ff" d="M469.31,-251.23C453.12,-279.77 419.36,-330.29 374,-350.75 300.79,-383.76 206.24,-375.64 145.35,-364.82"/>
<polygon fill="#63b8ff" stroke="#63b8ff" points="472.74,-253.26 474.48,-242.81 466.6,-249.89 472.74,-253.26"/>
</a>
</g>
</g>
<!-- Node7 -->
<g id="Node000007" class="node">
<title>Node7</title>
<g id="a_Node000007"><a xlink:href="../../de/d65/class_logic_converger.html#a115a3290c4375205aa621a13ebc5b5ab" target="_top" xlink:title=" ">
<polygon fill="white" stroke="#666666" points="374,-341.5 202,-341.5 202,-320 374,-320 374,-341.5"/>
<text text-anchor="middle" x="288" y="-327.05" font-family="Consolas" font-size="11.00">LogicConverger::initialize</text>
</a>
</g>
</g>
<!-- Node1&#45;&gt;Node7 -->
<g id="edge6_Node000001_Node000007" class="edge">
<title>Node1&#45;&gt;Node7</title>
<g id="a_edge6_Node000001_Node000007"><a xlink:title=" ">
<path fill="none" stroke="#63b8ff" d="M460.65,-249.35C440.57,-267.65 407.45,-295.05 374,-310.75 366.59,-314.23 358.52,-317.13 350.41,-319.54"/>
<polygon fill="#63b8ff" stroke="#63b8ff" points="462.73,-252.27 467.68,-242.9 457.97,-247.14 462.73,-252.27"/>
</a>
</g>
</g>
<!-- Node8 -->
<g id="Node000008" class="node">
<title>Node8</title>
<g id="a_Node000008"><a xlink:href="../../db/d5a/class_abs_disp.html#a9f0e144a8072cee24388b8e741fb7f5c" target="_top" xlink:title=" ">
<polygon fill="white" stroke="#666666" points="359,-301.5 217,-301.5 217,-280 359,-280 359,-301.5"/>
<text text-anchor="middle" x="288" y="-287.05" font-family="Consolas" font-size="11.00">AbsDisp::is_converged</text>
</a>
</g>
</g>
<!-- Node1&#45;&gt;Node8 -->
<g id="edge7_Node000001_Node000008" class="edge">
<title>Node1&#45;&gt;Node8</title>
<g id="a_edge7_Node000001_Node000008"><a xlink:title=" ">
<path fill="none" stroke="#63b8ff" d="M443.28,-245.95C423.06,-253.98 397.39,-263.62 374,-270.75 363.56,-273.93 352.27,-276.91 341.43,-279.54"/>
<polygon fill="#63b8ff" stroke="#63b8ff" points="444.35,-248.89 452.32,-241.92 441.74,-242.4 444.35,-248.89"/>
</a>
</g>
</g>
<!-- Node9 -->
<g id="Node000009" class="node">
<title>Node9</title>
<g id="a_Node000009"><a xlink:href="../../d8/dab/class_abs_error.html#a06fbf8110bb88ee4793993279e7bb010" target="_top" xlink:title="Method to return conv_flag.">
<polygon fill="white" stroke="#666666" points="362,-261.5 214,-261.5 214,-240 362,-240 362,-261.5"/>
<text text-anchor="middle" x="288" y="-247.05" font-family="Consolas" font-size="11.00">AbsError::is_converged</text>
</a>
</g>
</g>
<!-- Node1&#45;&gt;Node9 -->
<g id="edge8_Node000001_Node000009" class="edge">
<title>Node1&#45;&gt;Node9</title>
<g id="a_edge8_Node000001_Node000009"><a xlink:title=" ">
<path fill="none" stroke="#63b8ff" d="M399.08,-239.22C386.89,-240.5 374.38,-241.81 362.36,-243.07"/>
<polygon fill="#63b8ff" stroke="#63b8ff" points="399.11,-242.63 408.69,-238.11 398.38,-235.67 399.11,-242.63"/>
</a>
</g>
</g>
<!-- Node10 -->
<g id="Node000010" class="node">
<title>Node10</title>
<g id="a_Node000010"><a xlink:href="../../dc/d4d/class_abs_incre_acc.html#ae83df842ca4692e3ca67cde8618b36fd" target="_top" xlink:title="Method to return conv_flag.">
<polygon fill="white" stroke="#666666" points="371,-221.5 205,-221.5 205,-200 371,-200 371,-221.5"/>
<text text-anchor="middle" x="288" y="-207.05" font-family="Consolas" font-size="11.00">AbsIncreAcc::is_converged</text>
</a>
</g>
</g>
<!-- Node1&#45;&gt;Node10 -->
<g id="edge9_Node000001_Node000010" class="edge">
<title>Node1&#45;&gt;Node10</title>
<g id="a_edge9_Node000001_Node000010"><a xlink:title=" ">
<path fill="none" stroke="#63b8ff" d="M398.77,-222.24C389.72,-221.3 380.5,-220.33 371.44,-219.38"/>
<polygon fill="#63b8ff" stroke="#63b8ff" points="398.38,-225.83 408.69,-223.39 399.11,-218.87 398.38,-225.83"/>
</a>
</g>
</g>
<!-- Node11 -->
<g id="Node000011" class="node">
<title>Node11</title>
<g id="a_Node000011"><a xlink:href="../../d4/d8d/class_abs_incre_disp.html#a9b6ded4f12f8d7a244a42aa47c8215bb" target="_top" xlink:title="Method to return conv_flag.">
<polygon fill="white" stroke="#666666" points="374,-181.5 202,-181.5 202,-160 374,-160 374,-181.5"/>
<text text-anchor="middle" x="288" y="-167.05" font-family="Consolas" font-size="11.00">AbsIncreDisp::is_converged</text>
</a>
</g>
</g>
<!-- Node1&#45;&gt;Node11 -->
<g id="edge10_Node000001_Node000011" class="edge">
<title>Node1&#45;&gt;Node11</title>
<g id="a_edge10_Node000001_Node000011"><a xlink:title=" ">
<path fill="none" stroke="#63b8ff" d="M443.28,-215.55C423.06,-207.52 397.39,-197.88 374,-190.75 363.56,-187.57 352.27,-184.59 341.43,-181.96"/>
<polygon fill="#63b8ff" stroke="#63b8ff" points="441.74,-219.1 452.32,-219.58 444.35,-212.61 441.74,-219.1"/>
</a>
</g>
</g>
<!-- Node12 -->
<g id="Node000012" class="node">
<title>Node12</title>
<g id="a_Node000012"><a xlink:href="../../dc/dee/class_rel_disp.html#a5b4c19edc8f542332f43d4c285fc1b38" target="_top" xlink:title=" ">
<polygon fill="white" stroke="#666666" points="359,-141.5 217,-141.5 217,-120 359,-120 359,-141.5"/>
<text text-anchor="middle" x="288" y="-127.05" font-family="Consolas" font-size="11.00">RelDisp::is_converged</text>
</a>
</g>
</g>
<!-- Node1&#45;&gt;Node12 -->
<g id="edge12_Node000001_Node000012" class="edge">
<title>Node1&#45;&gt;Node12</title>
<g id="a_edge12_Node000001_Node000012"><a xlink:title=" ">
<path fill="none" stroke="#63b8ff" d="M460.65,-212.15C440.57,-193.85 407.45,-166.45 374,-150.75 366.59,-147.27 358.52,-144.37 350.41,-141.96"/>
<polygon fill="#63b8ff" stroke="#63b8ff" points="457.97,-214.36 467.68,-218.6 462.73,-209.23 457.97,-214.36"/>
</a>
</g>
</g>
<!-- Node13 -->
<g id="Node000013" class="node">
<title>Node13</title>
<g id="a_Node000013"><a xlink:href="../../dd/d17/class_rel_error.html#a86e8267005c5d58497a9ada573fb7788" target="_top" xlink:title="Method to return conv_flag.">
<polygon fill="white" stroke="#666666" points="362,-101.5 214,-101.5 214,-80 362,-80 362,-101.5"/>
<text text-anchor="middle" x="288" y="-87.05" font-family="Consolas" font-size="11.00">RelError::is_converged</text>
</a>
</g>
</g>
<!-- Node1&#45;&gt;Node13 -->
<g id="edge13_Node000001_Node000013" class="edge">
<title>Node1&#45;&gt;Node13</title>
<g id="a_edge13_Node000001_Node000013"><a xlink:title=" ">
<path fill="none" stroke="#63b8ff" d="M467.85,-210.49C450.52,-183.41 416.09,-135.93 374,-110.75 368.15,-107.25 361.72,-104.36 355.11,-101.97"/>
<polygon fill="#63b8ff" stroke="#63b8ff" points="465.38,-212.14 473.63,-218.78 471.32,-208.44 465.38,-212.14"/>
</a>
</g>
</g>
<!-- Node14 -->
<g id="Node000014" class="node">
<title>Node14</title>
<g id="a_Node000014"><a xlink:href="../../d8/d3b/class_rel_incre_acc.html#a4459aa55412a629bea1caa408282132e" target="_top" xlink:title=" ">
<polygon fill="white" stroke="#666666" points="371,-61.5 205,-61.5 205,-40 371,-40 371,-61.5"/>
<text text-anchor="middle" x="288" y="-47.05" font-family="Consolas" font-size="11.00">RelIncreAcc::is_converged</text>
</a>
</g>
</g>
<!-- Node1&#45;&gt;Node14 -->
<g id="edge14_Node000001_Node000014" class="edge">
<title>Node1&#45;&gt;Node14</title>
<g id="a_edge14_Node000001_Node000014"><a xlink:title=" ">
<path fill="none" stroke="#63b8ff" d="M472.14,-209.79C458.05,-175.16 425.07,-106.32 374,-70.75 368.9,-67.2 363.25,-64.27 357.37,-61.86"/>
<polygon fill="#63b8ff" stroke="#63b8ff" points="469.14,-210.72 476.06,-218.74 475.66,-208.15 469.14,-210.72"/>
</a>
</g>
</g>
<!-- Node15 -->
<g id="Node000015" class="node">
<title>Node15</title>
<g id="a_Node000015"><a xlink:href="../../d2/d85/class_rel_incre_disp.html#a7d16a8431291cc634a83de9bd5e5d375" target="_top" xlink:title=" ">
<polygon fill="white" stroke="#666666" points="374,-21.5 202,-21.5 202,0 374,0 374,-21.5"/>
<text text-anchor="middle" x="288" y="-7.05" font-family="Consolas" font-size="11.00">RelIncreDisp::is_converged</text>
</a>
</g>
</g>
<!-- Node1&#45;&gt;Node15 -->
<g id="edge15_Node000001_Node000015" class="edge">
<title>Node1&#45;&gt;Node15</title>
<g id="a_edge15_Node000001_Node000015"><a xlink:title=" ">
<path fill="none" stroke="#63b8ff" d="M474.87,-209.03C463.91,-167.57 434.16,-77.18 374,-30.75 369.44,-27.23 364.36,-24.32 359.02,-21.9"/>
<polygon fill="#63b8ff" stroke="#63b8ff" points="471.69,-209.73 477.53,-218.57 478.48,-208.02 471.69,-209.73"/>
</a>
</g>
</g>
<!-- Node2&#45;&gt;Node3 -->
<g id="edge2_Node000002_Node000003" class="edge">
<title>Node2&#45;&gt;Node3</title>
<g id="a_edge2_Node000002_Node000003"><a xlink:title=" ">
<path fill="none" stroke="#63b8ff" d="M250.27,-424.1C226.41,-433.88 194.56,-446.57 166,-456.75 158.4,-459.46 150.36,-462.18 142.4,-464.79"/>
<polygon fill="#63b8ff" stroke="#63b8ff" points="251.38,-427.02 259.29,-419.97 248.71,-420.55 251.38,-427.02"/>
</a>
</g>
</g>
<!-- Node4 -->
<g id="Node000004" class="node">
<title>Node4</title>
<g id="a_Node000004"><a xlink:href="../../de/dce/class_abs_residual.html#a28820563b7801a0289a2bad2f2ad39d4" target="_top" xlink:title=" ">
<polygon fill="white" stroke="#666666" points="166,-447.5 0,-447.5 0,-426 166,-426 166,-447.5"/>
<text text-anchor="middle" x="83" y="-433.05" font-family="Consolas" font-size="11.00">AbsResidual::is_converged</text>
</a>
</g>
</g>
<!-- Node2&#45;&gt;Node4 -->
<g id="edge3_Node000002_Node000004" class="edge">
<title>Node2&#45;&gt;Node4</title>
<g id="a_edge3_Node000002_Node000004"><a xlink:title=" ">
<path fill="none" stroke="#63b8ff" d="M199.73,-420.79C188.36,-422.36 176.74,-423.96 165.47,-425.51"/>
<polygon fill="#63b8ff" stroke="#63b8ff" points="200.12,-424.13 209.54,-419.3 199.16,-417.19 200.12,-424.13"/>
</a>
</g>
</g>
<!-- Node2&#45;&gt;Node5 -->
<g id="edge4_Node000002_Node000005" class="edge">
<title>Node2&#45;&gt;Node5</title>
<g id="a_edge4_Node000002_Node000005"><a xlink:title=" ">
<path fill="none" stroke="#63b8ff" d="M237.59,-394.63C209.82,-386.7 174.91,-376.72 145.39,-368.29"/>
<polygon fill="#63b8ff" stroke="#63b8ff" points="236.28,-398.19 246.86,-397.57 238.21,-391.45 236.28,-398.19"/>
</a>
</g>
</g>
<!-- Node6 -->
<g id="Node000006" class="node">
<title>Node6</title>
<g id="a_Node000006"><a xlink:href="../../dc/db8/class_rel_residual.html#accf19abd0aa31b3f5d6870e7f5ec17db" target="_top" xlink:title=" ">
<polygon fill="white" stroke="#666666" points="166,-407.5 0,-407.5 0,-386 166,-386 166,-407.5"/>
<text text-anchor="middle" x="83" y="-393.05" font-family="Consolas" font-size="11.00">RelResidual::is_converged</text>
</a>
</g>
</g>
<!-- Node2&#45;&gt;Node6 -->
<g id="edge5_Node000002_Node000006" class="edge">
<title>Node2&#45;&gt;Node6</title>
<g id="a_edge5_Node000002_Node000006"><a xlink:title=" ">
<path fill="none" stroke="#63b8ff" d="M199.64,-403.59C188.64,-402.94 177.42,-402.27 166.49,-401.63"/>
<polygon fill="#63b8ff" stroke="#63b8ff" points="199.35,-407.13 209.54,-404.23 199.77,-400.15 199.35,-407.13"/>
</a>
</g>
</g>
</g>
</svg>

<g id="navigator" transform="translate(0 0)" fill="#404254">
  <rect fill="#f2f5e9" fill-opacity="0.5" stroke="#606060" stroke-width=".5" x="0" y="0" width="60" height="60"/>
  <use id="zoomplus" xlink:href="#zoomPlus" x="17" y="9" onmousedown="handleZoom(evt,'in')"/>
  <use id="zoomminus" xlink:href="#zoomMin" x="42" y="9" onmousedown="handleZoom(evt,'out')"/>
  <use id="reset" xlink:href="#resetDef" x="30" y="36" onmousedown="handleReset()"/>
   <use id="arrowup" xlink:href="#arrowUp" x="0" y="0" onmousedown="handlePan(0,-1)"/>
  <use id="arrowright" xlink:href="#arrowRight" x="0" y="0" onmousedown="handlePan(1,0)"/>
  <use id="arrowdown" xlink:href="#arrowDown" x="0" y="0" onmousedown="handlePan(0,1)"/>
  <use id="arrowleft" xlink:href="#arrowLeft" x="0" y="0" onmousedown="handlePan(-1,0)"/>
</g>
<svg viewBox="0 0 15 15" width="100%" height="30px" preserveAspectRatio="xMaxYMin meet">
 <g id="arrow_out" transform="scale(0.3 0.3)">
  <a xlink:href="class_converger_a24586cab2381fb79ea5d75deadf50825_icgraph_org.svg" target="_base">
   <rect id="button" ry="5" rx="5" y="6" x="6" height="38" width="38"
        fill="#f2f5e9" fill-opacity="0.5" stroke="#606060" stroke-width="1.0"/>
   <path id="arrow"
     d="M 11.500037,31.436501 C 11.940474,20.09759 22.043105,11.32322 32.158766,21.979434 L 37.068811,17.246167 C 37.068811,17.246167 37.088388,32 37.088388,32 L 22.160133,31.978069 C 22.160133,31.978069 26.997745,27.140456 26.997745,27.140456 C 18.528582,18.264221 13.291696,25.230495 11.500037,31.436501 z"
     style="fill:#404040;"/>
  </a>
 </g>
</svg>

<style type='text/css'>
<![CDATA[
[data-mouse-over-selected='false'] { opacity: 0.7; }
[data-mouse-over-selected='true']  { opacity: 1.0; }
]]>
</style>
<script type="application/ecmascript"><![CDATA[
document.addEventListener('DOMContentLoaded', (event) => {
  highlightEdges();
  highlightAdjacentNodes();
});
]]></script>
</svg>
