<?xml version="1.0" encoding="UTF-8" standalone="no"?>
<!DOCTYPE svg PUBLIC "-//W3C//DTD SVG 1.1//EN"
 "http://www.w3.org/Graphics/SVG/1.1/DTD/svg11.dtd">
<!-- Generated by graphviz version 2.43.0 (0)
 -->
<!-- Title: DataVAFCRP Pages: 1 -->
<svg width="180pt" height="370pt"
 viewBox="0.00 0.00 180.00 370.00" xmlns="http://www.w3.org/2000/svg" xmlns:xlink="http://www.w3.org/1999/xlink">
<g id="graph0" class="graph" transform="scale(1 1) rotate(0) translate(4 366)">
<title>DataVAFCRP</title>
<polygon fill="white" stroke="transparent" points="-4,4 -4,-366 176,-366 176,4 -4,4"/>
<!-- Node1 -->
<g id="node1" class="node">
<title>Node1</title>
<g id="a_node1"><a xlink:title=" ">
<polygon fill="#bfbfbf" stroke="black" points="20.5,-193.5 20.5,-361.5 151.5,-361.5 151.5,-193.5 20.5,-193.5"/>
<text text-anchor="middle" x="86" y="-348.7" font-family="Consolas" font-size="11.00">DataVAFCRP</text>
<polyline fill="none" stroke="black" points="20.5,-341.5 151.5,-341.5 "/>
<text text-anchor="start" x="28.5" y="-328.7" font-family="Consolas" font-size="11.00">+ elastic_modulus</text>
<text text-anchor="start" x="28.5" y="-316.7" font-family="Consolas" font-size="11.00">+ poissons_ratio</text>
<text text-anchor="start" x="28.5" y="-304.7" font-family="Consolas" font-size="11.00">+ yield</text>
<text text-anchor="start" x="28.5" y="-292.7" font-family="Consolas" font-size="11.00">+ saturated</text>
<text text-anchor="start" x="28.5" y="-280.7" font-family="Consolas" font-size="11.00">+ hardening</text>
<text text-anchor="start" x="28.5" y="-268.7" font-family="Consolas" font-size="11.00">+ m</text>
<text text-anchor="start" x="28.5" y="-256.7" font-family="Consolas" font-size="11.00">+ mu</text>
<text text-anchor="start" x="28.5" y="-244.7" font-family="Consolas" font-size="11.00">+ epsilon</text>
<text text-anchor="start" x="28.5" y="-232.7" font-family="Consolas" font-size="11.00">+ a</text>
<text text-anchor="start" x="28.5" y="-220.7" font-family="Consolas" font-size="11.00">+ b</text>
<polyline fill="none" stroke="black" points="20.5,-213.5 151.5,-213.5 "/>
<text text-anchor="middle" x="86" y="-200.7" font-family="Consolas" font-size="11.00"> </text>
</a>
</g>
</g>
<!-- Node2 -->
<g id="node2" class="node">
<title>Node2</title>
<g id="a_node2"><a xlink:href="../../d9/d6d/class_v_a_f_c_r_p.html" target="_top" xlink:title="The VAFCRP class defines a nonlinear hardening material with mixed hardening (isotropic and kinematic...">
<polygon fill="white" stroke="black" points="0,-0.5 0,-156.5 172,-156.5 172,-0.5 0,-0.5"/>
<text text-anchor="middle" x="86" y="-143.7" font-family="Consolas" font-size="11.00">VAFCRP</text>
<polyline fill="none" stroke="black" points="0,-136.5 172,-136.5 "/>
<text text-anchor="middle" x="86" y="-123.7" font-family="Consolas" font-size="11.00"> </text>
<polyline fill="none" stroke="black" points="0,-116.5 172,-116.5 "/>
<text text-anchor="start" x="8" y="-103.7" font-family="Consolas" font-size="11.00">+ VAFCRP()</text>
<text text-anchor="start" x="8" y="-91.7" font-family="Consolas" font-size="11.00">+ initialize()</text>
<text text-anchor="start" x="8" y="-79.7" font-family="Consolas" font-size="11.00">+ get_copy()</text>
<text text-anchor="start" x="8" y="-67.7" font-family="Consolas" font-size="11.00">+ get_parameter()</text>
<text text-anchor="start" x="8" y="-55.7" font-family="Consolas" font-size="11.00">+ update_trial_status()</text>
<text text-anchor="start" x="8" y="-43.7" font-family="Consolas" font-size="11.00">+ clear_status()</text>
<text text-anchor="start" x="8" y="-31.7" font-family="Consolas" font-size="11.00">+ commit_status()</text>
<text text-anchor="start" x="8" y="-19.7" font-family="Consolas" font-size="11.00">+ reset_status()</text>
<text text-anchor="start" x="8" y="-7.7" font-family="Consolas" font-size="11.00">+ print()</text>
</a>
</g>
</g>
<!-- Node1&#45;&gt;Node2 -->
<g id="edge1" class="edge">
<title>Node1&#45;&gt;Node2</title>
<path fill="none" stroke="darkgreen" d="M86,-183.19C86,-174.26 86,-165.26 86,-156.51"/>
<polygon fill="none" stroke="darkgreen" points="82.5,-183.24 86,-193.24 89.5,-183.24 82.5,-183.24"/>
</g>
</g>
</svg>
