<?xml version="1.0" encoding="UTF-8" standalone="no"?>
<!DOCTYPE svg PUBLIC "-//W3C//DTD SVG 1.1//EN"
 "http://www.w3.org/Graphics/SVG/1.1/DTD/svg11.dtd">
<!-- Generated by graphviz version 2.43.0 (0)
 -->
<!-- Title: FixedParticle Pages: 1 -->
<svg width="300pt" height="770pt"
 viewBox="0.00 0.00 299.50 770.00" xmlns="http://www.w3.org/2000/svg" xmlns:xlink="http://www.w3.org/1999/xlink">
<g id="graph0" class="graph" transform="scale(1 1) rotate(0) translate(4 766)">
<title>FixedParticle</title>
<!-- Node1 -->
<g id="Node000001" class="node">
<title>Node1</title>
<g id="a_Node000001"><a xlink:title=" ">
<polygon fill="#999999" stroke="transparent" points="194.5,-84 73.5,-84 73.5,0 194.5,0 194.5,-84"/>
<text text-anchor="start" x="90.5" y="-71.2" font-family="Consolas" font-size="11.00">FixedParticle</text>
<text text-anchor="start" x="131" y="-55.2" font-family="Consolas" font-size="11.00"> </text>
<text text-anchor="start" x="78" y="-39.2" font-family="Consolas" font-size="11.00">+</text>
<text text-anchor="start" x="89" y="-39.2" font-family="Consolas" font-size="11.00">FixedParticle()</text>
<text text-anchor="start" x="78" y="-23.2" font-family="Consolas" font-size="11.00">+</text>
<text text-anchor="start" x="89" y="-23.2" font-family="Consolas" font-size="11.00">apply()</text>
<text text-anchor="start" x="78" y="-7.2" font-family="Consolas" font-size="11.00">+</text>
<text text-anchor="start" x="89" y="-7.2" font-family="Consolas" font-size="11.00">apply()</text>
<polygon fill="#666666" stroke="#666666" points="74,-66 74,-66 195,-66 195,-66 74,-66"/>
<polygon fill="#666666" stroke="#666666" points="74,-50 74,-50 195,-50 195,-50 74,-50"/>
<polygon fill="none" stroke="#666666" points="73.5,0 73.5,-84 194.5,-84 194.5,0 73.5,0"/>
</a>
</g>
</g>
<!-- Node2 -->
<g id="Node000002" class="node">
<title>Node2</title>
<g id="a_Node000002"><a xlink:href="../../d3/d8e/class_interaction.html" target="_top" xlink:title=" ">
<polygon fill="white" stroke="transparent" points="187.5,-237 80.5,-237 80.5,-121 187.5,-121 187.5,-237"/>
<text text-anchor="start" x="97" y="-224.2" font-family="Consolas" font-size="11.00">Interaction</text>
<text text-anchor="start" x="131" y="-208.2" font-family="Consolas" font-size="11.00"> </text>
<text text-anchor="start" x="85" y="-192.2" font-family="Consolas" font-size="11.00">+</text>
<text text-anchor="start" x="96" y="-192.2" font-family="Consolas" font-size="11.00">initialize()</text>
<text text-anchor="start" x="85" y="-176.2" font-family="Consolas" font-size="11.00">+</text>
<text text-anchor="start" x="96" y="-176.2" font-family="Consolas" font-size="11.00">apply()</text>
<text text-anchor="start" x="85" y="-160.2" font-family="Consolas" font-size="11.00">+</text>
<text text-anchor="start" x="96" y="-160.2" font-family="Consolas" font-size="11.00">apply()</text>
<text text-anchor="start" x="85" y="-144.2" font-family="Consolas" font-size="11.00">+</text>
<text text-anchor="start" x="96" y="-144.2" font-family="Consolas" font-size="11.00">CopyableTag()</text>
<text text-anchor="start" x="85" y="-128.2" font-family="Consolas" font-size="11.00">+</text>
<text text-anchor="start" x="96" y="-128.2" font-family="Consolas" font-size="11.00">CopyableTag()</text>
<polygon fill="#666666" stroke="#666666" points="81,-219 81,-219 188,-219 188,-219 81,-219"/>
<polygon fill="#666666" stroke="#666666" points="81,-203 81,-203 188,-203 188,-203 81,-203"/>
<polygon fill="none" stroke="#666666" points="80.5,-121 80.5,-237 187.5,-237 187.5,-121 80.5,-121"/>
</a>
</g>
</g>
<!-- Node2&#45;&gt;Node1 -->
<g id="edge1_Node000001_Node000002" class="edge">
<title>Node2&#45;&gt;Node1</title>
<g id="a_edge1_Node000001_Node000002"><a xlink:title=" ">
<path fill="none" stroke="#63b8ff" d="M134,-110.66C134,-101.69 134,-92.72 134,-84.37"/>
<polygon fill="none" stroke="#63b8ff" points="130.5,-110.75 134,-120.75 137.5,-110.75 130.5,-110.75"/>
</a>
</g>
</g>
<!-- Node3 -->
<g id="Node000003" class="node">
<title>Node3</title>
<g id="a_Node000003"><a xlink:href="../../d7/d1d/class_copyable_tag.html" target="_top" xlink:title="Label objects that can be copied.">
<polygon fill="white" stroke="transparent" points="114,-449 0,-449 0,-285 114,-285 114,-449"/>
<text text-anchor="start" x="19.5" y="-436.2" font-family="Consolas" font-size="11.00">CopyableTag</text>
<text text-anchor="start" x="53.5" y="-420.2" font-family="Consolas" font-size="11.00"> </text>
<text text-anchor="start" x="4" y="-404.2" font-family="Consolas" font-size="11.00">+</text>
<text text-anchor="start" x="15" y="-404.2" font-family="Consolas" font-size="11.00">CopyableTag()</text>
<text text-anchor="start" x="4" y="-388.2" font-family="Consolas" font-size="11.00">+</text>
<text text-anchor="start" x="15" y="-388.2" font-family="Consolas" font-size="11.00">CopyableTag()</text>
<text text-anchor="start" x="4" y="-372.2" font-family="Consolas" font-size="11.00">+</text>
<text text-anchor="start" x="15" y="-372.2" font-family="Consolas" font-size="11.00">operator=()</text>
<text text-anchor="start" x="4" y="-356.2" font-family="Consolas" font-size="11.00">+</text>
<text text-anchor="start" x="15" y="-356.2" font-family="Consolas" font-size="11.00">operator=()</text>
<text text-anchor="start" x="4" y="-340.2" font-family="Consolas" font-size="11.00">+</text>
<text text-anchor="start" x="15" y="-340.2" font-family="Consolas" font-size="11.00">~CopyableTag()</text>
<text text-anchor="start" x="4" y="-324.2" font-family="Consolas" font-size="11.00">+</text>
<text text-anchor="start" x="15" y="-324.2" font-family="Consolas" font-size="11.00">Tag()</text>
<text text-anchor="start" x="4" y="-308.2" font-family="Consolas" font-size="11.00">+</text>
<text text-anchor="start" x="15" y="-308.2" font-family="Consolas" font-size="11.00">Tag()</text>
<text text-anchor="start" x="4" y="-292.2" font-family="Consolas" font-size="11.00">+</text>
<text text-anchor="start" x="15" y="-292.2" font-family="Consolas" font-size="11.00">Tag()</text>
<polygon fill="#666666" stroke="#666666" points="0,-431 0,-431 114,-431 114,-431 0,-431"/>
<polygon fill="#666666" stroke="#666666" points="0,-415 0,-415 114,-415 114,-415 0,-415"/>
<polygon fill="none" stroke="#666666" points="0,-285 0,-449 114,-449 114,-285 0,-285"/>
</a>
</g>
</g>
<!-- Node3&#45;&gt;Node2 -->
<g id="edge2_Node000002_Node000003" class="edge">
<title>Node3&#45;&gt;Node2</title>
<g id="a_edge2_Node000002_Node000003"><a xlink:title=" ">
<path fill="none" stroke="#63b8ff" d="M94.48,-275.45C99.9,-262.36 105.35,-249.21 110.39,-237.02"/>
<polygon fill="none" stroke="#63b8ff" points="91.14,-274.38 90.55,-284.96 97.61,-277.06 91.14,-274.38"/>
</a>
</g>
</g>
<!-- Node4 -->
<g id="Node000004" class="node">
<title>Node4</title>
<g id="a_Node000004"><a xlink:href="../../d0/d57/class_tag.html" target="_top" xlink:title="A base Tag class.">
<polygon fill="white" stroke="transparent" points="107.5,-762 6.5,-762 6.5,-486 107.5,-486 107.5,-762"/>
<text text-anchor="start" x="47" y="-749.2" font-family="Consolas" font-size="11.00">Tag</text>
<text text-anchor="start" x="54" y="-733.2" font-family="Consolas" font-size="11.00"> </text>
<text text-anchor="start" x="11" y="-717.2" font-family="Consolas" font-size="11.00">+</text>
<text text-anchor="start" x="22" y="-717.2" font-family="Consolas" font-size="11.00">Tag()</text>
<text text-anchor="start" x="11" y="-701.2" font-family="Consolas" font-size="11.00">+</text>
<text text-anchor="start" x="22" y="-701.2" font-family="Consolas" font-size="11.00">Tag()</text>
<text text-anchor="start" x="11" y="-685.2" font-family="Consolas" font-size="11.00">+</text>
<text text-anchor="start" x="22" y="-685.2" font-family="Consolas" font-size="11.00">Tag()</text>
<text text-anchor="start" x="11" y="-669.2" font-family="Consolas" font-size="11.00">+</text>
<text text-anchor="start" x="22" y="-669.2" font-family="Consolas" font-size="11.00">operator=()</text>
<text text-anchor="start" x="11" y="-653.2" font-family="Consolas" font-size="11.00">+</text>
<text text-anchor="start" x="22" y="-653.2" font-family="Consolas" font-size="11.00">operator=()</text>
<text text-anchor="start" x="11" y="-637.2" font-family="Consolas" font-size="11.00">+</text>
<text text-anchor="start" x="22" y="-637.2" font-family="Consolas" font-size="11.00">~Tag()</text>
<text text-anchor="start" x="11" y="-621.2" font-family="Consolas" font-size="11.00">+</text>
<text text-anchor="start" x="22" y="-621.2" font-family="Consolas" font-size="11.00">set_tag()</text>
<text text-anchor="start" x="11" y="-605.2" font-family="Consolas" font-size="11.00">+</text>
<text text-anchor="start" x="22" y="-605.2" font-family="Consolas" font-size="11.00">get_tag()</text>
<text text-anchor="start" x="11" y="-589.2" font-family="Consolas" font-size="11.00">+</text>
<text text-anchor="start" x="22" y="-589.2" font-family="Consolas" font-size="11.00">enable()</text>
<text text-anchor="start" x="11" y="-573.2" font-family="Consolas" font-size="11.00">+</text>
<text text-anchor="start" x="22" y="-573.2" font-family="Consolas" font-size="11.00">disable()</text>
<text text-anchor="start" x="11" y="-557.2" font-family="Consolas" font-size="11.00">+</text>
<text text-anchor="start" x="22" y="-557.2" font-family="Consolas" font-size="11.00">guard()</text>
<text text-anchor="start" x="11" y="-541.2" font-family="Consolas" font-size="11.00">+</text>
<text text-anchor="start" x="22" y="-541.2" font-family="Consolas" font-size="11.00">unguard()</text>
<text text-anchor="start" x="11" y="-525.2" font-family="Consolas" font-size="11.00">+</text>
<text text-anchor="start" x="22" y="-525.2" font-family="Consolas" font-size="11.00">is_active()</text>
<text text-anchor="start" x="11" y="-509.2" font-family="Consolas" font-size="11.00">+</text>
<text text-anchor="start" x="22" y="-509.2" font-family="Consolas" font-size="11.00">is_guarded()</text>
<text text-anchor="start" x="11" y="-493.2" font-family="Consolas" font-size="11.00">+</text>
<text text-anchor="start" x="22" y="-493.2" font-family="Consolas" font-size="11.00">print()</text>
<polygon fill="#666666" stroke="#666666" points="7,-744 7,-744 108,-744 108,-744 7,-744"/>
<polygon fill="#666666" stroke="#666666" points="7,-728 7,-728 108,-728 108,-728 7,-728"/>
<polygon fill="none" stroke="#666666" points="6.5,-486 6.5,-762 107.5,-762 107.5,-486 6.5,-486"/>
</a>
</g>
</g>
<!-- Node4&#45;&gt;Node3 -->
<g id="edge3_Node000003_Node000004" class="edge">
<title>Node4&#45;&gt;Node3</title>
<g id="a_edge3_Node000003_Node000004"><a xlink:title=" ">
<path fill="none" stroke="#63b8ff" d="M57,-475.58C57,-466.58 57,-457.71 57,-449.17"/>
<polygon fill="none" stroke="#63b8ff" points="53.5,-475.8 57,-485.8 60.5,-475.8 53.5,-475.8"/>
</a>
</g>
</g>
<!-- Node5 -->
<g id="Node000005" class="node">
<title>Node5</title>
<g id="a_Node000005"><a xlink:title=" ">
<polygon fill="white" stroke="transparent" points="291.5,-393 132.5,-393 132.5,-341 291.5,-341 291.5,-393"/>
<text text-anchor="start" x="138" y="-380.2" font-family="Consolas" font-size="11.00">weak_ptr&lt; DomainBase &gt;</text>
<text text-anchor="start" x="209" y="-364.2" font-family="Consolas" font-size="11.00"> </text>
<text text-anchor="start" x="209" y="-348.2" font-family="Consolas" font-size="11.00"> </text>
<polygon fill="#666666" stroke="#666666" points="133,-375 133,-375 292,-375 292,-375 133,-375"/>
<polygon fill="#666666" stroke="#666666" points="133,-359 133,-359 292,-359 292,-359 133,-359"/>
<polygon fill="none" stroke="#666666" points="132.5,-341 132.5,-393 291.5,-393 291.5,-341 132.5,-341"/>
</a>
</g>
</g>
<!-- Node5&#45;&gt;Node2 -->
<g id="edge4_Node000002_Node000005" class="edge">
<title>Node5&#45;&gt;Node2</title>
<g id="a_edge4_Node000002_Node000005"><a xlink:title=" ">
<path fill="none" stroke="#63b8ff" d="M201.48,-340.92C191.55,-317.23 176.2,-280.63 162.65,-248.31"/>
<polygon fill="none" stroke="#63b8ff" points="162.58,-248.15 156.57,-244.17 157.94,-237.09 163.95,-241.07 162.58,-248.15"/>
</a>
</g>
<text text-anchor="middle" x="196.5" y="-258.2" font-family="Consolas" font-size="11.00" fill="grey"> #domain</text>
</g>
</g>
</svg>
