<?xml version="1.0" encoding="UTF-8" standalone="no"?>
<!DOCTYPE svg PUBLIC "-//W3C//DTD SVG 1.1//EN"
 "http://www.w3.org/Graphics/SVG/1.1/DTD/svg11.dtd">
<!-- Generated by graphviz version 5.0.0 (0)
 -->
<!-- Title: triplet_form&lt; data_t, index_t &gt; Pages: 1 -->
<svg width="153pt" height="300pt"
 viewBox="0.00 0.00 153.00 300.00" xmlns="http://www.w3.org/2000/svg" xmlns:xlink="http://www.w3.org/1999/xlink">
<g id="graph0" class="graph" transform="scale(1 1) rotate(0) translate(4 296)">
<title>triplet_form&lt; data_t, index_t &gt;</title>
<!-- Node1 -->
<g id="node1" class="node">
<title>Node1</title>
<g id="a_node1"><a xlink:title=" ">
<polygon fill="#999999" stroke="#666666" points="145,-176 0,-176 0,0 145,0 145,-176"/>
<text text-anchor="start" x="8" y="-163.2" font-family="Consolas" font-size="11.00">{triplet_form&lt; data</text>
<text text-anchor="middle" x="72.5" y="-151.2" font-family="Consolas" font-size="11.00">_t, index_t &gt;</text>
<text text-anchor="start" x="8" y="-139.2" font-family="Consolas" font-size="11.00">||+ triplet_form()</text>
<text text-anchor="start" x="8" y="-127.2" font-family="Consolas" font-size="11.00">+ triplet_form()</text>
<text text-anchor="start" x="8" y="-115.2" font-family="Consolas" font-size="11.00">+ triplet_form()</text>
<text text-anchor="start" x="8" y="-103.2" font-family="Consolas" font-size="11.00">+ operator=()</text>
<text text-anchor="start" x="8" y="-91.2" font-family="Consolas" font-size="11.00">+ operator=()</text>
<text text-anchor="start" x="8" y="-79.2" font-family="Consolas" font-size="11.00">+ ~triplet_form()</text>
<text text-anchor="start" x="8" y="-67.2" font-family="Consolas" font-size="11.00">+ triplet_form()</text>
<text text-anchor="start" x="8" y="-55.2" font-family="Consolas" font-size="11.00">+ triplet_form()</text>
<text text-anchor="start" x="8" y="-43.2" font-family="Consolas" font-size="11.00">+ triplet_form()</text>
<text text-anchor="start" x="8" y="-31.2" font-family="Consolas" font-size="11.00">+ row_mem()</text>
<text text-anchor="start" x="8" y="-19.2" font-family="Consolas" font-size="11.00">and 47 more...</text>
<text text-anchor="middle" x="72.5" y="-7.2" font-family="Consolas" font-size="11.00">}</text>
</a>
</g>
</g>
<!-- Node2 -->
<g id="node2" class="node">
<title>Node2</title>
<g id="a_node2"><a xlink:title=" ">
<polygon fill="white" stroke="#666666" points="108,-292 37,-292 37,-260 108,-260 108,-292"/>
<text text-anchor="middle" x="72.5" y="-279.2" font-family="Consolas" font-size="11.00">{index_t</text>
<text text-anchor="middle" x="72.5" y="-267.2" font-family="Consolas" font-size="11.00">||}</text>
</a>
</g>
</g>
<!-- Node2&#45;&gt;Node1 -->
<g id="edge1" class="edge">
<title>Node2&#45;&gt;Node1</title>
<path fill="none" stroke="#404040" d="M72.5,-259.78C72.5,-243.53 72.5,-216.33 72.5,-188.35"/>
<polygon fill="none" stroke="#404040" points="72.5,-188.35 68.5,-182.35 72.5,-176.35 76.5,-182.35 72.5,-188.35"/>
<text text-anchor="middle" x="103" y="-233.2" font-family="Consolas" font-size="11.00"> +n_alloc</text>
<text text-anchor="middle" x="103" y="-221.2" font-family="Consolas" font-size="11.00">+n_cols</text>
<text text-anchor="middle" x="103" y="-209.2" font-family="Consolas" font-size="11.00">+n_elem</text>
<text text-anchor="middle" x="103" y="-197.2" font-family="Consolas" font-size="11.00">+n_rows</text>
</g>
</g>
</svg>
