<?xml version="1.0" encoding="UTF-8" standalone="no"?>
<!DOCTYPE svg PUBLIC "-//W3C//DTD SVG 1.1//EN"
 "http://www.w3.org/Graphics/SVG/1.1/DTD/svg11.dtd">
<!-- Generated by graphviz version 2.43.0 (0)
 -->
<!-- Title: Recorder/GlobalRecorder.cpp Pages: 1 -->
<svg width="1275pt" height="376pt"
 viewBox="0.00 0.00 1274.50 376.00" xmlns="http://www.w3.org/2000/svg" xmlns:xlink="http://www.w3.org/1999/xlink">
<g id="graph0" class="graph" transform="scale(1 1) rotate(0) translate(4 372)">
<title>Recorder/GlobalRecorder.cpp</title>
<!-- Node1 -->
<g id="Node000001" class="node">
<title>Node1</title>
<g id="a_Node000001"><a xlink:title=" ">
<polygon fill="#999999" stroke="#666666" points="941,-368 742,-368 742,-348 941,-348 941,-368"/>
<text text-anchor="middle" x="841.5" y="-355.2" font-family="Consolas" font-size="11.00">Recorder/GlobalRecorder.cpp</text>
</a>
</g>
</g>
<!-- Node2 -->
<g id="Node000002" class="node">
<title>Node2</title>
<g id="a_Node000002"><a xlink:href="../../d5/dce/_global_recorder_8h.html" target="_top" xlink:title=" ">
<polygon fill="white" stroke="#666666" points="531,-312 406,-312 406,-292 531,-292 531,-312"/>
<text text-anchor="middle" x="468.5" y="-299.2" font-family="Consolas" font-size="11.00">GlobalRecorder.h</text>
</a>
</g>
</g>
<!-- Node1&#45;&gt;Node2 -->
<g id="edge1_Node000001_Node000002" class="edge">
<title>Node1&#45;&gt;Node2</title>
<g id="a_edge1_Node000001_Node000002"><a xlink:title=" ">
<path fill="none" stroke="#63b8ff" d="M779.07,-347.96C713.34,-338.45 610,-323.48 540.78,-313.46"/>
<polygon fill="#63b8ff" stroke="#63b8ff" points="541.22,-309.99 530.82,-312.02 540.22,-316.92 541.22,-309.99"/>
</a>
</g>
</g>
<!-- Node14 -->
<g id="Node000014" class="node">
<title>Node14</title>
<g id="a_Node000014"><a xlink:href="../../dc/df2/_domain_base_8h.html" target="_top" xlink:title=" ">
<polygon fill="white" stroke="#666666" points="1068,-256 923,-256 923,-236 1068,-236 1068,-256"/>
<text text-anchor="middle" x="995.5" y="-243.2" font-family="Consolas" font-size="11.00">Domain/DomainBase.h</text>
</a>
</g>
</g>
<!-- Node1&#45;&gt;Node14 -->
<g id="edge13_Node000001_Node000014" class="edge">
<title>Node1&#45;&gt;Node14</title>
<g id="a_edge13_Node000001_Node000014"><a xlink:title=" ">
<path fill="none" stroke="#63b8ff" d="M844.81,-347.72C850.21,-333.79 862.21,-307.46 880.5,-292 898.82,-276.52 923.09,-265.97 944.61,-259.01"/>
<polygon fill="#63b8ff" stroke="#63b8ff" points="945.73,-262.33 954.27,-256.06 943.68,-255.63 945.73,-262.33"/>
</a>
</g>
</g>
<!-- Node21 -->
<g id="Node000021" class="node">
<title>Node21</title>
<g id="a_Node000021"><a xlink:href="../../db/d65/_factory_8hpp.html" target="_top" xlink:title=" ">
<polygon fill="white" stroke="#666666" points="891.5,-256 753.5,-256 753.5,-236 891.5,-236 891.5,-256"/>
<text text-anchor="middle" x="822.5" y="-243.2" font-family="Consolas" font-size="11.00">Domain/Factory.hpp</text>
</a>
</g>
</g>
<!-- Node1&#45;&gt;Node21 -->
<g id="edge22_Node000001_Node000021" class="edge">
<title>Node1&#45;&gt;Node21</title>
<g id="a_edge22_Node000001_Node000021"><a xlink:title=" ">
<path fill="none" stroke="#63b8ff" d="M839.95,-348C836.87,-330.19 829.95,-290.12 825.81,-266.15"/>
<polygon fill="#63b8ff" stroke="#63b8ff" points="829.23,-265.38 824.08,-256.13 822.33,-266.58 829.23,-265.38"/>
</a>
</g>
</g>
<!-- Node24 -->
<g id="Node000024" class="node">
<title>Node24</title>
<g id="a_Node000024"><a xlink:href="../../d0/db8/_element_8h.html" target="_top" xlink:title=" ">
<polygon fill="white" stroke="#666666" points="1020,-312 889,-312 889,-292 1020,-292 1020,-312"/>
<text text-anchor="middle" x="954.5" y="-299.2" font-family="Consolas" font-size="11.00">Element/Element.h</text>
</a>
</g>
</g>
<!-- Node1&#45;&gt;Node24 -->
<g id="edge28_Node000001_Node000024" class="edge">
<title>Node1&#45;&gt;Node24</title>
<g id="a_edge28_Node000001_Node000024"><a xlink:title=" ">
<path fill="none" stroke="#63b8ff" d="M860.41,-347.96C878.42,-339.36 905.75,-326.3 926.32,-316.47"/>
<polygon fill="#63b8ff" stroke="#63b8ff" points="928.01,-319.54 935.52,-312.07 924.99,-313.22 928.01,-319.54"/>
</a>
</g>
</g>
<!-- Node3 -->
<g id="Node000003" class="node">
<title>Node3</title>
<g id="a_Node000003"><a xlink:href="../../d2/d42/_recorder_8h.html" target="_top" xlink:title=" ">
<polygon fill="white" stroke="#666666" points="272,-256 127,-256 127,-236 272,-236 272,-256"/>
<text text-anchor="middle" x="199.5" y="-243.2" font-family="Consolas" font-size="11.00">Recorder/Recorder.h</text>
</a>
</g>
</g>
<!-- Node2&#45;&gt;Node3 -->
<g id="edge2_Node000002_Node000003" class="edge">
<title>Node2&#45;&gt;Node3</title>
<g id="a_edge2_Node000002_Node000003"><a xlink:title=" ">
<path fill="none" stroke="#63b8ff" d="M423.48,-291.96C377.02,-282.64 304.5,-268.08 254.64,-258.07"/>
<polygon fill="#63b8ff" stroke="#63b8ff" points="255.16,-254.6 244.67,-256.07 253.79,-261.47 255.16,-254.6"/>
</a>
</g>
</g>
<!-- Node4 -->
<g id="Node000004" class="node">
<title>Node4</title>
<g id="a_Node000004"><a xlink:href="../../d2/d4a/_tag_8h.html" target="_top" xlink:title=" ">
<polygon fill="white" stroke="#666666" points="408.5,-132 310.5,-132 310.5,-112 408.5,-112 408.5,-132"/>
<text text-anchor="middle" x="359.5" y="-119.2" font-family="Consolas" font-size="11.00">Domain/Tag.h</text>
</a>
</g>
</g>
<!-- Node3&#45;&gt;Node4 -->
<g id="edge3_Node000003_Node000004" class="edge">
<title>Node3&#45;&gt;Node4</title>
<g id="a_edge3_Node000003_Node000004"><a xlink:title=" ">
<path fill="none" stroke="#63b8ff" d="M199.07,-235.84C198.84,-219.92 200.73,-187.01 218.5,-168 239.62,-145.42 272.03,-134.12 300.45,-128.49"/>
<polygon fill="#63b8ff" stroke="#63b8ff" points="301.09,-131.94 310.32,-126.73 299.86,-125.05 301.09,-131.94"/>
</a>
</g>
</g>
<!-- Node12 -->
<g id="Node000012" class="node">
<title>Node12</title>
<g id="a_Node000012"><a xlink:href="../../d4/d0f/_output_type_8h.html" target="_top" xlink:title=" ">
<polygon fill="white" stroke="#666666" points="171.5,-194 13.5,-194 13.5,-174 171.5,-174 171.5,-194"/>
<text text-anchor="middle" x="92.5" y="-181.2" font-family="Consolas" font-size="11.00">Recorder/OutputType.h</text>
</a>
</g>
</g>
<!-- Node3&#45;&gt;Node12 -->
<g id="edge11_Node000003_Node000012" class="edge">
<title>Node3&#45;&gt;Node12</title>
<g id="a_edge11_Node000003_Node000012"><a xlink:title=" ">
<path fill="none" stroke="#63b8ff" d="M183.25,-235.89C165.79,-226.1 137.81,-210.41 117.54,-199.04"/>
<polygon fill="#63b8ff" stroke="#63b8ff" points="118.99,-195.84 108.55,-194 115.56,-201.95 118.99,-195.84"/>
</a>
</g>
</g>
<!-- Node5 -->
<g id="Node000005" class="node">
<title>Node5</title>
<g id="a_Node000005"><a xlink:href="../../d8/d8f/suan_pan_8h.html" target="_top" xlink:title=" ">
<polygon fill="white" stroke="#666666" points="798,-76 721,-76 721,-56 798,-56 798,-76"/>
<text text-anchor="middle" x="759.5" y="-63.2" font-family="Consolas" font-size="11.00">suanPan.h</text>
</a>
</g>
</g>
<!-- Node4&#45;&gt;Node5 -->
<g id="edge4_Node000004_Node000005" class="edge">
<title>Node4&#45;&gt;Node5</title>
<g id="a_edge4_Node000004_Node000005"><a xlink:title=" ">
<path fill="none" stroke="#63b8ff" d="M408.55,-114.38C485.46,-104 633.56,-84 710.46,-73.62"/>
<polygon fill="#63b8ff" stroke="#63b8ff" points="711.39,-77.03 720.83,-72.22 710.45,-70.09 711.39,-77.03"/>
</a>
</g>
</g>
<!-- Node6 -->
<g id="Node000006" class="node">
<title>Node6</title>
<g id="a_Node000006"><a xlink:title=" ">
<polygon fill="#e0e0e0" stroke="#999999" points="517,-20 446,-20 446,0 517,0 517,-20"/>
<text text-anchor="middle" x="481.5" y="-7.2" font-family="Consolas" font-size="11.00">iostream</text>
</a>
</g>
</g>
<!-- Node5&#45;&gt;Node6 -->
<g id="edge5_Node000005_Node000006" class="edge">
<title>Node5&#45;&gt;Node6</title>
<g id="a_edge5_Node000005_Node000006"><a xlink:title=" ">
<path fill="none" stroke="#63b8ff" d="M720.96,-57.73C676.56,-49.33 601.12,-34.95 527.01,-20.28"/>
<polygon fill="#63b8ff" stroke="#63b8ff" points="527.52,-16.82 517.03,-18.31 526.16,-23.68 527.52,-16.82"/>
</a>
</g>
</g>
<!-- Node7 -->
<g id="Node000007" class="node">
<title>Node7</title>
<g id="a_Node000007"><a xlink:title=" ">
<polygon fill="#e0e0e0" stroke="#999999" points="646,-20 535,-20 535,0 646,0 646,-20"/>
<text text-anchor="middle" x="590.5" y="-7.2" font-family="Consolas" font-size="11.00">armadillo/arma</text>
</a>
</g>
</g>
<!-- Node5&#45;&gt;Node7 -->
<g id="edge6_Node000005_Node000007" class="edge">
<title>Node5&#45;&gt;Node7</title>
<g id="a_edge6_Node000005_Node000007"><a xlink:title=" ">
<path fill="none" stroke="#63b8ff" d="M731.21,-55.96C703.06,-46.97 659.68,-33.11 628.53,-23.15"/>
<polygon fill="#63b8ff" stroke="#63b8ff" points="629.47,-19.78 618.88,-20.07 627.34,-26.45 629.47,-19.78"/>
</a>
</g>
</g>
<!-- Node8 -->
<g id="Node000008" class="node">
<title>Node8</title>
<g id="a_Node000008"><a xlink:title=" ">
<polygon fill="#e0e0e0" stroke="#999999" points="748.5,-20 664.5,-20 664.5,0 748.5,0 748.5,-20"/>
<text text-anchor="middle" x="706.5" y="-7.2" font-family="Consolas" font-size="11.00">filesystem</text>
</a>
</g>
</g>
<!-- Node5&#45;&gt;Node8 -->
<g id="edge7_Node000005_Node000008" class="edge">
<title>Node5&#45;&gt;Node8</title>
<g id="a_edge7_Node000005_Node000008"><a xlink:title=" ">
<path fill="none" stroke="#63b8ff" d="M750.27,-55.59C742.67,-47.85 731.71,-36.69 722.66,-27.47"/>
<polygon fill="#63b8ff" stroke="#63b8ff" points="725.13,-24.98 715.63,-20.3 720.13,-29.89 725.13,-24.98"/>
</a>
</g>
</g>
<!-- Node9 -->
<g id="Node000009" class="node">
<title>Node9</title>
<g id="a_Node000009"><a xlink:title=" ">
<polygon fill="#e0e0e0" stroke="#999999" points="858,-20 767,-20 767,0 858,0 858,-20"/>
<text text-anchor="middle" x="812.5" y="-7.2" font-family="Consolas" font-size="11.00">fmt/color.h</text>
</a>
</g>
</g>
<!-- Node5&#45;&gt;Node9 -->
<g id="edge8_Node000005_Node000009" class="edge">
<title>Node5&#45;&gt;Node9</title>
<g id="a_edge8_Node000005_Node000009"><a xlink:title=" ">
<path fill="none" stroke="#63b8ff" d="M768.73,-55.59C776.33,-47.85 787.29,-36.69 796.34,-27.47"/>
<polygon fill="#63b8ff" stroke="#63b8ff" points="798.87,-29.89 803.37,-20.3 793.87,-24.98 798.87,-29.89"/>
</a>
</g>
</g>
<!-- Node10 -->
<g id="Node000010" class="node">
<title>Node10</title>
<g id="a_Node000010"><a xlink:title=" ">
<polygon fill="#e0e0e0" stroke="#999999" points="926.5,-20 876.5,-20 876.5,0 926.5,0 926.5,-20"/>
<text text-anchor="middle" x="901.5" y="-7.2" font-family="Consolas" font-size="11.00">mutex</text>
</a>
</g>
</g>
<!-- Node5&#45;&gt;Node10 -->
<g id="edge9_Node000005_Node000010" class="edge">
<title>Node5&#45;&gt;Node10</title>
<g id="a_edge9_Node000005_Node000010"><a xlink:title=" ">
<path fill="none" stroke="#63b8ff" d="M783.27,-55.96C806.51,-47.12 842.11,-33.58 868.18,-23.67"/>
<polygon fill="#63b8ff" stroke="#63b8ff" points="869.55,-26.89 877.65,-20.07 867.06,-20.35 869.55,-26.89"/>
</a>
</g>
</g>
<!-- Node11 -->
<g id="Node000011" class="node">
<title>Node11</title>
<g id="a_Node000011"><a xlink:title=" ">
<polygon fill="#e0e0e0" stroke="#999999" points="1002,-20 945,-20 945,0 1002,0 1002,-20"/>
<text text-anchor="middle" x="973.5" y="-7.2" font-family="Consolas" font-size="11.00">memory</text>
</a>
</g>
</g>
<!-- Node5&#45;&gt;Node11 -->
<g id="edge10_Node000005_Node000011" class="edge">
<title>Node5&#45;&gt;Node11</title>
<g id="a_edge10_Node000005_Node000011"><a xlink:title=" ">
<path fill="none" stroke="#63b8ff" d="M795.32,-55.96C833.96,-46.21 895.26,-30.74 934.93,-20.73"/>
<polygon fill="#63b8ff" stroke="#63b8ff" points="935.93,-24.09 944.77,-18.25 934.22,-17.3 935.93,-24.09"/>
</a>
</g>
</g>
<!-- Node13 -->
<g id="Node000013" class="node">
<title>Node13</title>
<g id="a_Node000013"><a xlink:title=" ">
<polygon fill="#e0e0e0" stroke="#999999" points="185,-132 0,-132 0,-112 185,-112 185,-132"/>
<text text-anchor="middle" x="92.5" y="-119.2" font-family="Consolas" font-size="11.00">magic_enum/magic_enum.hpp</text>
</a>
</g>
</g>
<!-- Node12&#45;&gt;Node13 -->
<g id="edge12_Node000012_Node000013" class="edge">
<title>Node12&#45;&gt;Node13</title>
<g id="a_edge12_Node000012_Node000013"><a xlink:title=" ">
<path fill="none" stroke="#63b8ff" d="M92.5,-173.89C92.5,-165.52 92.5,-152.84 92.5,-142.23"/>
<polygon fill="#63b8ff" stroke="#63b8ff" points="96,-142.2 92.5,-132.2 89,-142.2 96,-142.2"/>
</a>
</g>
</g>
<!-- Node14&#45;&gt;Node4 -->
<g id="edge14_Node000014_Node000004" class="edge">
<title>Node14&#45;&gt;Node4</title>
<g id="a_edge14_Node000014_Node000004"><a xlink:title=" ">
<path fill="none" stroke="#63b8ff" d="M997.29,-235.76C999.86,-219.39 1002.41,-185.41 983.5,-168 942.53,-130.28 566.76,-124.12 418.88,-123.16"/>
<polygon fill="#63b8ff" stroke="#63b8ff" points="418.66,-119.65 408.64,-123.1 418.62,-126.65 418.66,-119.65"/>
</a>
</g>
</g>
<!-- Node15 -->
<g id="Node000015" class="node">
<title>Node15</title>
<g id="a_Node000015"><a xlink:href="../../d4/ddd/container_8h.html" target="_top" xlink:title=" ">
<polygon fill="white" stroke="#666666" points="1176,-194 1031,-194 1031,-174 1176,-174 1176,-194"/>
<text text-anchor="middle" x="1103.5" y="-181.2" font-family="Consolas" font-size="11.00">Toolbox/container.h</text>
</a>
</g>
</g>
<!-- Node14&#45;&gt;Node15 -->
<g id="edge15_Node000014_Node000015" class="edge">
<title>Node14&#45;&gt;Node15</title>
<g id="a_edge15_Node000014_Node000015"><a xlink:title=" ">
<path fill="none" stroke="#63b8ff" d="M1011.9,-235.89C1029.61,-226.05 1058.02,-210.27 1078.51,-198.88"/>
<polygon fill="#63b8ff" stroke="#63b8ff" points="1080.25,-201.92 1087.3,-194 1076.86,-195.8 1080.25,-201.92"/>
</a>
</g>
</g>
<!-- Node20 -->
<g id="Node000020" class="node">
<title>Node20</title>
<g id="a_Node000020"><a xlink:title=" ">
<polygon fill="#e0e0e0" stroke="#999999" points="974,-194 917,-194 917,-174 974,-174 974,-194"/>
<text text-anchor="middle" x="945.5" y="-181.2" font-family="Consolas" font-size="11.00">future</text>
</a>
</g>
</g>
<!-- Node14&#45;&gt;Node20 -->
<g id="edge21_Node000014_Node000020" class="edge">
<title>Node14&#45;&gt;Node20</title>
<g id="a_edge21_Node000014_Node000020"><a xlink:title=" ">
<path fill="none" stroke="#63b8ff" d="M987.91,-235.89C980.42,-226.9 968.79,-212.95 959.61,-201.93"/>
<polygon fill="#63b8ff" stroke="#63b8ff" points="962.26,-199.64 953.17,-194.2 956.88,-204.12 962.26,-199.64"/>
</a>
</g>
</g>
<!-- Node15&#45;&gt;Node5 -->
<g id="edge16_Node000015_Node000005" class="edge">
<title>Node15&#45;&gt;Node5</title>
<g id="a_edge16_Node000015_Node000005"><a xlink:title=" ">
<path fill="none" stroke="#63b8ff" d="M1057.77,-173.98C1002.62,-162.84 913.36,-143.91 881.5,-132 845.18,-118.43 806.12,-96.1 782.23,-81.47"/>
<polygon fill="#63b8ff" stroke="#63b8ff" points="783.91,-78.39 773.57,-76.09 780.22,-84.34 783.91,-78.39"/>
</a>
</g>
</g>
<!-- Node16 -->
<g id="Node000016" class="node">
<title>Node16</title>
<g id="a_Node000016"><a xlink:title=" ">
<polygon fill="#e0e0e0" stroke="#999999" points="927,-132 890,-132 890,-112 927,-112 927,-132"/>
<text text-anchor="middle" x="908.5" y="-119.2" font-family="Consolas" font-size="11.00">map</text>
</a>
</g>
</g>
<!-- Node15&#45;&gt;Node16 -->
<g id="edge17_Node000015_Node000016" class="edge">
<title>Node15&#45;&gt;Node16</title>
<g id="a_edge17_Node000015_Node000016"><a xlink:title=" ">
<path fill="none" stroke="#63b8ff" d="M1073.29,-173.92C1041.71,-164.39 990.46,-148.85 936.84,-132.07"/>
<polygon fill="#63b8ff" stroke="#63b8ff" points="937.75,-128.69 927.16,-129.04 935.66,-135.37 937.75,-128.69"/>
</a>
</g>
</g>
<!-- Node17 -->
<g id="Node000017" class="node">
<title>Node17</title>
<g id="a_Node000017"><a xlink:title=" ">
<polygon fill="#e0e0e0" stroke="#999999" points="982,-132 945,-132 945,-112 982,-112 982,-132"/>
<text text-anchor="middle" x="963.5" y="-119.2" font-family="Consolas" font-size="11.00">set</text>
</a>
</g>
</g>
<!-- Node15&#45;&gt;Node17 -->
<g id="edge18_Node000015_Node000017" class="edge">
<title>Node15&#45;&gt;Node17</title>
<g id="a_edge18_Node000015_Node000017"><a xlink:title=" ">
<path fill="none" stroke="#63b8ff" d="M1082.24,-173.89C1057.98,-163.49 1018.23,-146.46 991.48,-134.99"/>
<polygon fill="#63b8ff" stroke="#63b8ff" points="992.84,-131.77 982.27,-131.04 990.08,-138.2 992.84,-131.77"/>
</a>
</g>
</g>
<!-- Node18 -->
<g id="Node000018" class="node">
<title>Node18</title>
<g id="a_Node000018"><a xlink:title=" ">
<polygon fill="#e0e0e0" stroke="#999999" points="1104.5,-132 1000.5,-132 1000.5,-112 1104.5,-112 1104.5,-132"/>
<text text-anchor="middle" x="1052.5" y="-119.2" font-family="Consolas" font-size="11.00">unordered_map</text>
</a>
</g>
</g>
<!-- Node15&#45;&gt;Node18 -->
<g id="edge19_Node000015_Node000018" class="edge">
<title>Node15&#45;&gt;Node18</title>
<g id="a_edge19_Node000015_Node000018"><a xlink:title=" ">
<path fill="none" stroke="#63b8ff" d="M1095.75,-173.89C1088.12,-164.9 1076.26,-150.95 1066.89,-139.93"/>
<polygon fill="#63b8ff" stroke="#63b8ff" points="1069.46,-137.55 1060.32,-132.2 1064.13,-142.08 1069.46,-137.55"/>
</a>
</g>
</g>
<!-- Node19 -->
<g id="Node000019" class="node">
<title>Node19</title>
<g id="a_Node000019"><a xlink:title=" ">
<polygon fill="#e0e0e0" stroke="#999999" points="1226.5,-132 1122.5,-132 1122.5,-112 1226.5,-112 1226.5,-132"/>
<text text-anchor="middle" x="1174.5" y="-119.2" font-family="Consolas" font-size="11.00">unordered_set</text>
</a>
</g>
</g>
<!-- Node15&#45;&gt;Node19 -->
<g id="edge20_Node000015_Node000019" class="edge">
<title>Node15&#45;&gt;Node19</title>
<g id="a_edge20_Node000015_Node000019"><a xlink:title=" ">
<path fill="none" stroke="#63b8ff" d="M1114.28,-173.89C1125.23,-164.64 1142.4,-150.13 1155.61,-138.96"/>
<polygon fill="#63b8ff" stroke="#63b8ff" points="1158.24,-141.33 1163.62,-132.2 1153.72,-135.98 1158.24,-141.33"/>
</a>
</g>
</g>
<!-- Node21&#45;&gt;Node15 -->
<g id="edge26_Node000021_Node000015" class="edge">
<title>Node21&#45;&gt;Node15</title>
<g id="a_edge26_Node000021_Node000015"><a xlink:title=" ">
<path fill="none" stroke="#63b8ff" d="M864.87,-235.95C914.71,-225.31 997.45,-207.64 1051.22,-196.16"/>
<polygon fill="#63b8ff" stroke="#63b8ff" points="1052.19,-199.53 1061.24,-194.02 1050.73,-192.69 1052.19,-199.53"/>
</a>
</g>
</g>
<!-- Node21&#45;&gt;Node20 -->
<g id="edge27_Node000021_Node000020" class="edge">
<title>Node21&#45;&gt;Node20</title>
<g id="a_edge27_Node000021_Node000020"><a xlink:title=" ">
<path fill="none" stroke="#63b8ff" d="M841.18,-235.89C861.62,-225.92 894.58,-209.84 917.98,-198.43"/>
<polygon fill="#63b8ff" stroke="#63b8ff" points="919.59,-201.53 927.05,-194 916.52,-195.24 919.59,-201.53"/>
</a>
</g>
</g>
<!-- Node22 -->
<g id="Node000022" class="node">
<title>Node22</title>
<g id="a_Node000022"><a xlink:title=" ">
<polygon fill="#e0e0e0" stroke="#999999" points="899,-194 734,-194 734,-174 899,-174 899,-194"/>
<text text-anchor="middle" x="816.5" y="-181.2" font-family="Consolas" font-size="11.00">Domain/MetaMat/MetaMat</text>
</a>
</g>
</g>
<!-- Node21&#45;&gt;Node22 -->
<g id="edge23_Node000021_Node000022" class="edge">
<title>Node21&#45;&gt;Node22</title>
<g id="a_edge23_Node000021_Node000022"><a xlink:title=" ">
<path fill="none" stroke="#63b8ff" d="M821.59,-235.89C820.75,-227.52 819.48,-214.84 818.42,-204.23"/>
<polygon fill="#63b8ff" stroke="#63b8ff" points="821.9,-203.8 817.42,-194.2 814.93,-204.5 821.9,-203.8"/>
</a>
</g>
</g>
<!-- Node23 -->
<g id="Node000023" class="node">
<title>Node23</title>
<g id="a_Node000023"><a xlink:href="../../d6/d94/_mapping_d_o_f_8h.html" target="_top" xlink:title=" ">
<polygon fill="white" stroke="#666666" points="715.5,-194 563.5,-194 563.5,-174 715.5,-174 715.5,-194"/>
<text text-anchor="middle" x="639.5" y="-181.2" font-family="Consolas" font-size="11.00">Element/MappingDOF.h</text>
</a>
</g>
</g>
<!-- Node21&#45;&gt;Node23 -->
<g id="edge24_Node000021_Node000023" class="edge">
<title>Node21&#45;&gt;Node23</title>
<g id="a_edge24_Node000021_Node000023"><a xlink:title=" ">
<path fill="none" stroke="#63b8ff" d="M794.71,-235.89C763.22,-225.56 711.75,-208.69 676.79,-197.23"/>
<polygon fill="#63b8ff" stroke="#63b8ff" points="677.55,-193.79 666.96,-194 675.37,-200.44 677.55,-193.79"/>
</a>
</g>
</g>
<!-- Node23&#45;&gt;Node5 -->
<g id="edge25_Node000023_Node000005" class="edge">
<title>Node23&#45;&gt;Node5</title>
<g id="a_edge25_Node000023_Node000005"><a xlink:title=" ">
<path fill="none" stroke="#63b8ff" d="M648.92,-173.9C669.16,-154.33 717.05,-108.04 742.66,-83.28"/>
<polygon fill="#63b8ff" stroke="#63b8ff" points="745.37,-85.53 750.13,-76.06 740.51,-80.49 745.37,-85.53"/>
</a>
</g>
</g>
<!-- Node25 -->
<g id="Node000025" class="node">
<title>Node25</title>
<g id="a_Node000025"><a xlink:href="../../d1/d48/_distributed_8h.html" target="_top" xlink:title=" ">
<polygon fill="white" stroke="#666666" points="1266.5,-256 1108.5,-256 1108.5,-236 1266.5,-236 1266.5,-256"/>
<text text-anchor="middle" x="1187.5" y="-243.2" font-family="Consolas" font-size="11.00">Element/Distributed.h</text>
</a>
</g>
</g>
<!-- Node24&#45;&gt;Node25 -->
<g id="edge29_Node000024_Node000025" class="edge">
<title>Node24&#45;&gt;Node25</title>
<g id="a_edge29_Node000024_Node000025"><a xlink:title=" ">
<path fill="none" stroke="#63b8ff" d="M993.5,-291.96C1033.32,-282.73 1095.24,-268.38 1138.38,-258.38"/>
<polygon fill="#63b8ff" stroke="#63b8ff" points="1139.42,-261.74 1148.37,-256.07 1137.84,-254.92 1139.42,-261.74"/>
</a>
</g>
</g>
<!-- Node26 -->
<g id="Node000026" class="node">
<title>Node26</title>
<g id="a_Node000026"><a xlink:href="../../d9/d82/_element_base_8h.html" target="_top" xlink:title=" ">
<polygon fill="white" stroke="#666666" points="496.5,-256 338.5,-256 338.5,-236 496.5,-236 496.5,-256"/>
<text text-anchor="middle" x="417.5" y="-243.2" font-family="Consolas" font-size="11.00">Element/ElementBase.h</text>
</a>
</g>
</g>
<!-- Node24&#45;&gt;Node26 -->
<g id="edge31_Node000024_Node000026" class="edge">
<title>Node24&#45;&gt;Node26</title>
<g id="a_edge31_Node000024_Node000026"><a xlink:title=" ">
<path fill="none" stroke="#63b8ff" d="M888.92,-294.41C793.11,-284.77 614.57,-266.82 506.83,-255.98"/>
<polygon fill="#63b8ff" stroke="#63b8ff" points="506.93,-252.48 496.63,-254.96 506.23,-259.44 506.93,-252.48"/>
</a>
</g>
</g>
<!-- Node25&#45;&gt;Node5 -->
<g id="edge30_Node000025_Node000005" class="edge">
<title>Node25&#45;&gt;Node5</title>
<g id="a_edge30_Node000025_Node000005"><a xlink:title=" ">
<path fill="none" stroke="#63b8ff" d="M1196.49,-235.7C1218.21,-212.12 1269.37,-149.22 1235.5,-112 1207.13,-80.82 924.01,-70.79 808.34,-67.97"/>
<polygon fill="#63b8ff" stroke="#63b8ff" points="808.09,-64.47 798.01,-67.73 807.93,-71.47 808.09,-64.47"/>
</a>
</g>
</g>
<!-- Node26&#45;&gt;Node4 -->
<g id="edge34_Node000026_Node000004" class="edge">
<title>Node26&#45;&gt;Node4</title>
<g id="a_edge34_Node000026_Node000004"><a xlink:title=" ">
<path fill="none" stroke="#63b8ff" d="M407.35,-235.99C398.45,-227.55 385.82,-214.14 378.5,-200 369.02,-181.7 364.13,-158.48 361.7,-142.35"/>
<polygon fill="#63b8ff" stroke="#63b8ff" points="365.12,-141.48 360.34,-132.02 358.18,-142.39 365.12,-141.48"/>
</a>
</g>
</g>
<!-- Node26&#45;&gt;Node12 -->
<g id="edge37_Node000026_Node000012" class="edge">
<title>Node26&#45;&gt;Node12</title>
<g id="a_edge37_Node000026_Node000012"><a xlink:title=" ">
<path fill="none" stroke="#63b8ff" d="M368.49,-235.95C310.37,-225.22 213.57,-207.35 151.42,-195.88"/>
<polygon fill="#63b8ff" stroke="#63b8ff" points="151.84,-192.4 141.37,-194.02 150.57,-199.28 151.84,-192.4"/>
</a>
</g>
</g>
<!-- Node26&#45;&gt;Node23 -->
<g id="edge35_Node000026_Node000023" class="edge">
<title>Node26&#45;&gt;Node23</title>
<g id="a_edge35_Node000026_Node000023"><a xlink:title=" ">
<path fill="none" stroke="#63b8ff" d="M451.22,-235.89C490.07,-225.39 554,-208.11 596.43,-196.64"/>
<polygon fill="#63b8ff" stroke="#63b8ff" points="597.45,-199.99 606.19,-194 595.63,-193.23 597.45,-199.99"/>
</a>
</g>
</g>
<!-- Node27 -->
<g id="Node000027" class="node">
<title>Node27</title>
<g id="a_Node000027"><a xlink:href="../../d1/d02/_node_8h.html" target="_top" xlink:title=" ">
<polygon fill="white" stroke="#666666" points="331.5,-194 227.5,-194 227.5,-174 331.5,-174 331.5,-194"/>
<text text-anchor="middle" x="279.5" y="-181.2" font-family="Consolas" font-size="11.00">Domain/Node.h</text>
</a>
</g>
</g>
<!-- Node26&#45;&gt;Node27 -->
<g id="edge32_Node000026_Node000027" class="edge">
<title>Node26&#45;&gt;Node27</title>
<g id="a_edge32_Node000026_Node000027"><a xlink:title=" ">
<path fill="none" stroke="#63b8ff" d="M396.54,-235.89C373.41,-225.83 335.97,-209.55 309.68,-198.12"/>
<polygon fill="#63b8ff" stroke="#63b8ff" points="310.77,-194.78 300.2,-194 307.98,-201.2 310.77,-194.78"/>
</a>
</g>
</g>
<!-- Node28 -->
<g id="Node000028" class="node">
<title>Node28</title>
<g id="a_Node000028"><a xlink:href="../../d9/dc0/vtk_base_8h.html" target="_top" xlink:title=" ">
<polygon fill="white" stroke="#666666" points="545.5,-200 387.5,-200 387.5,-168 545.5,-168 545.5,-200"/>
<text text-anchor="start" x="395.5" y="-187.2" font-family="Consolas" font-size="11.00">Element/Visualisation</text>
<text text-anchor="middle" x="466.5" y="-175.2" font-family="Consolas" font-size="11.00">/vtkBase.h</text>
</a>
</g>
</g>
<!-- Node26&#45;&gt;Node28 -->
<g id="edge36_Node000026_Node000028" class="edge">
<title>Node26&#45;&gt;Node28</title>
<g id="a_edge36_Node000026_Node000028"><a xlink:title=" ">
<path fill="none" stroke="#63b8ff" d="M424.94,-235.89C430.97,-228.51 439.72,-217.79 447.64,-208.09"/>
<polygon fill="#63b8ff" stroke="#63b8ff" points="450.41,-210.24 454.02,-200.28 444.99,-205.81 450.41,-210.24"/>
</a>
</g>
</g>
<!-- Node27&#45;&gt;Node4 -->
<g id="edge33_Node000027_Node000004" class="edge">
<title>Node27&#45;&gt;Node4</title>
<g id="a_edge33_Node000027_Node000004"><a xlink:title=" ">
<path fill="none" stroke="#63b8ff" d="M291.65,-173.89C304.29,-164.41 324.3,-149.4 339.32,-138.13"/>
<polygon fill="#63b8ff" stroke="#63b8ff" points="341.6,-140.8 347.5,-132 337.4,-135.2 341.6,-140.8"/>
</a>
</g>
</g>
</g>
</svg>
