<?xml version="1.0" encoding="UTF-8" standalone="no"?>
<!DOCTYPE svg PUBLIC "-//W3C//DTD SVG 1.1//EN"
 "http://www.w3.org/Graphics/SVG/1.1/DTD/svg11.dtd">
<!-- Generated by graphviz version 2.43.0 (0)
 -->
<!-- Title: Load/Amplitude/Combine.h Pages: 1 -->
<svg width="624pt" height="252pt"
 viewBox="0.00 0.00 624.00 252.00" xmlns="http://www.w3.org/2000/svg" xmlns:xlink="http://www.w3.org/1999/xlink">
<g id="graph0" class="graph" transform="scale(1 1) rotate(0) translate(4 248)">
<title>Load/Amplitude/Combine.h</title>
<!-- Node1 -->
<g id="Node000001" class="node">
<title>Node1</title>
<g id="a_Node000001"><a xlink:title=" ">
<polygon fill="#999999" stroke="#666666" points="536,-244 357,-244 357,-224 536,-224 536,-244"/>
<text text-anchor="middle" x="446.5" y="-231.2" font-family="Consolas" font-size="11.00">Load/Amplitude/Combine.h</text>
</a>
</g>
</g>
<!-- Node2 -->
<g id="Node000002" class="node">
<title>Node2</title>
<g id="a_Node000002"><a xlink:href="../../d1/ded/_amplitude_8h.html" target="_top" xlink:title=" ">
<polygon fill="white" stroke="#666666" points="480.5,-188 288.5,-188 288.5,-168 480.5,-168 480.5,-188"/>
<text text-anchor="middle" x="384.5" y="-175.2" font-family="Consolas" font-size="11.00">Load/Amplitude/Amplitude.h</text>
</a>
</g>
</g>
<!-- Node1&#45;&gt;Node2 -->
<g id="edge1_Node000001_Node000002" class="edge">
<title>Node1&#45;&gt;Node2</title>
<g id="a_edge1_Node000001_Node000002"><a xlink:title=" ">
<path fill="none" stroke="#63b8ff" d="M435.98,-223.84C426.84,-215.88 413.4,-204.17 402.55,-194.72"/>
<polygon fill="#63b8ff" stroke="#63b8ff" points="404.7,-191.95 394.86,-188.03 400.1,-197.23 404.7,-191.95"/>
</a>
</g>
</g>
<!-- Node11 -->
<g id="Node000011" class="node">
<title>Node11</title>
<g id="a_Node000011"><a xlink:href="../../d4/da0/_resource_holder_8h.html" target="_top" xlink:title=" ">
<polygon fill="white" stroke="#666666" points="616,-132 437,-132 437,-112 616,-112 616,-132"/>
<text text-anchor="middle" x="526.5" y="-119.2" font-family="Consolas" font-size="11.00">Toolbox/ResourceHolder.h</text>
</a>
</g>
</g>
<!-- Node1&#45;&gt;Node11 -->
<g id="edge10_Node000001_Node000011" class="edge">
<title>Node1&#45;&gt;Node11</title>
<g id="a_edge10_Node000001_Node000011"><a xlink:title=" ">
<path fill="none" stroke="#63b8ff" d="M456.45,-223.95C465.67,-215.27 479.43,-201.52 489.5,-188 500.5,-173.23 510.67,-154.87 517.55,-141.44"/>
<polygon fill="#63b8ff" stroke="#63b8ff" points="520.8,-142.77 522.13,-132.26 514.53,-139.65 520.8,-142.77"/>
</a>
</g>
</g>
<!-- Node3 -->
<g id="Node000003" class="node">
<title>Node3</title>
<g id="a_Node000003"><a xlink:href="../../d2/d4a/_tag_8h.html" target="_top" xlink:title=" ">
<polygon fill="white" stroke="#666666" points="417.5,-132 319.5,-132 319.5,-112 417.5,-112 417.5,-132"/>
<text text-anchor="middle" x="368.5" y="-119.2" font-family="Consolas" font-size="11.00">Domain/Tag.h</text>
</a>
</g>
</g>
<!-- Node2&#45;&gt;Node3 -->
<g id="edge2_Node000002_Node000003" class="edge">
<title>Node2&#45;&gt;Node3</title>
<g id="a_edge2_Node000002_Node000003"><a xlink:title=" ">
<path fill="none" stroke="#63b8ff" d="M381.71,-167.59C379.63,-160.55 376.7,-150.67 374.13,-142"/>
<polygon fill="#63b8ff" stroke="#63b8ff" points="377.45,-140.89 371.26,-132.3 370.74,-142.88 377.45,-140.89"/>
</a>
</g>
</g>
<!-- Node4 -->
<g id="Node000004" class="node">
<title>Node4</title>
<g id="a_Node000004"><a xlink:href="../../d8/d8f/suan_pan_8h.html" target="_top" xlink:title=" ">
<polygon fill="white" stroke="#666666" points="405,-76 328,-76 328,-56 405,-56 405,-76"/>
<text text-anchor="middle" x="366.5" y="-63.2" font-family="Consolas" font-size="11.00">suanPan.h</text>
</a>
</g>
</g>
<!-- Node3&#45;&gt;Node4 -->
<g id="edge3_Node000003_Node000004" class="edge">
<title>Node3&#45;&gt;Node4</title>
<g id="a_edge3_Node000003_Node000004"><a xlink:title=" ">
<path fill="none" stroke="#63b8ff" d="M368.15,-111.59C367.9,-104.7 367.54,-95.1 367.22,-86.57"/>
<polygon fill="#63b8ff" stroke="#63b8ff" points="370.71,-86.16 366.84,-76.3 363.72,-86.42 370.71,-86.16"/>
</a>
</g>
</g>
<!-- Node5 -->
<g id="Node000005" class="node">
<title>Node5</title>
<g id="a_Node000005"><a xlink:title=" ">
<polygon fill="#e0e0e0" stroke="#999999" points="71,-20 0,-20 0,0 71,0 71,-20"/>
<text text-anchor="middle" x="35.5" y="-7.2" font-family="Consolas" font-size="11.00">iostream</text>
</a>
</g>
</g>
<!-- Node4&#45;&gt;Node5 -->
<g id="edge4_Node000004_Node000005" class="edge">
<title>Node4&#45;&gt;Node5</title>
<g id="a_edge4_Node000004_Node000005"><a xlink:title=" ">
<path fill="none" stroke="#63b8ff" d="M327.88,-59.52C274.56,-51.84 175.19,-37.05 80.99,-20.21"/>
<polygon fill="#63b8ff" stroke="#63b8ff" points="81.48,-16.74 71.01,-18.41 80.24,-23.63 81.48,-16.74"/>
</a>
</g>
</g>
<!-- Node6 -->
<g id="Node000006" class="node">
<title>Node6</title>
<g id="a_Node000006"><a xlink:title=" ">
<polygon fill="#e0e0e0" stroke="#999999" points="200,-20 89,-20 89,0 200,0 200,-20"/>
<text text-anchor="middle" x="144.5" y="-7.2" font-family="Consolas" font-size="11.00">armadillo/arma</text>
</a>
</g>
</g>
<!-- Node4&#45;&gt;Node6 -->
<g id="edge5_Node000004_Node000006" class="edge">
<title>Node4&#45;&gt;Node6</title>
<g id="a_edge5_Node000004_Node000006"><a xlink:title=" ">
<path fill="none" stroke="#63b8ff" d="M329.34,-55.96C291.48,-46.75 232.65,-32.44 191.56,-22.45"/>
<polygon fill="#63b8ff" stroke="#63b8ff" points="192.32,-19.03 181.78,-20.07 190.67,-25.83 192.32,-19.03"/>
</a>
</g>
</g>
<!-- Node7 -->
<g id="Node000007" class="node">
<title>Node7</title>
<g id="a_Node000007"><a xlink:title=" ">
<polygon fill="#e0e0e0" stroke="#999999" points="302.5,-20 218.5,-20 218.5,0 302.5,0 302.5,-20"/>
<text text-anchor="middle" x="260.5" y="-7.2" font-family="Consolas" font-size="11.00">filesystem</text>
</a>
</g>
</g>
<!-- Node4&#45;&gt;Node7 -->
<g id="edge6_Node000004_Node000007" class="edge">
<title>Node4&#45;&gt;Node7</title>
<g id="a_edge6_Node000004_Node000007"><a xlink:title=" ">
<path fill="none" stroke="#63b8ff" d="M348.52,-55.84C331.74,-47.29 306.49,-34.43 287.34,-24.67"/>
<polygon fill="#63b8ff" stroke="#63b8ff" points="288.72,-21.45 278.22,-20.03 285.54,-27.68 288.72,-21.45"/>
</a>
</g>
</g>
<!-- Node8 -->
<g id="Node000008" class="node">
<title>Node8</title>
<g id="a_Node000008"><a xlink:title=" ">
<polygon fill="#e0e0e0" stroke="#999999" points="412,-20 321,-20 321,0 412,0 412,-20"/>
<text text-anchor="middle" x="366.5" y="-7.2" font-family="Consolas" font-size="11.00">fmt/color.h</text>
</a>
</g>
</g>
<!-- Node4&#45;&gt;Node8 -->
<g id="edge7_Node000004_Node000008" class="edge">
<title>Node4&#45;&gt;Node8</title>
<g id="a_edge7_Node000004_Node000008"><a xlink:title=" ">
<path fill="none" stroke="#63b8ff" d="M366.5,-55.59C366.5,-48.7 366.5,-39.1 366.5,-30.57"/>
<polygon fill="#63b8ff" stroke="#63b8ff" points="370,-30.3 366.5,-20.3 363,-30.3 370,-30.3"/>
</a>
</g>
</g>
<!-- Node9 -->
<g id="Node000009" class="node">
<title>Node9</title>
<g id="a_Node000009"><a xlink:title=" ">
<polygon fill="#e0e0e0" stroke="#999999" points="480.5,-20 430.5,-20 430.5,0 480.5,0 480.5,-20"/>
<text text-anchor="middle" x="455.5" y="-7.2" font-family="Consolas" font-size="11.00">mutex</text>
</a>
</g>
</g>
<!-- Node4&#45;&gt;Node9 -->
<g id="edge8_Node000004_Node000009" class="edge">
<title>Node4&#45;&gt;Node9</title>
<g id="a_edge8_Node000004_Node000009"><a xlink:title=" ">
<path fill="none" stroke="#63b8ff" d="M381.6,-55.84C395.36,-47.49 415.92,-35.02 431.86,-25.34"/>
<polygon fill="#63b8ff" stroke="#63b8ff" points="433.89,-28.2 440.63,-20.03 430.26,-22.22 433.89,-28.2"/>
</a>
</g>
</g>
<!-- Node10 -->
<g id="Node000010" class="node">
<title>Node10</title>
<g id="a_Node000010"><a xlink:title=" ">
<polygon fill="#e0e0e0" stroke="#999999" points="556,-20 499,-20 499,0 556,0 556,-20"/>
<text text-anchor="middle" x="527.5" y="-7.2" font-family="Consolas" font-size="11.00">memory</text>
</a>
</g>
</g>
<!-- Node4&#45;&gt;Node10 -->
<g id="edge9_Node000004_Node000010" class="edge">
<title>Node4&#45;&gt;Node10</title>
<g id="a_edge9_Node000004_Node000010"><a xlink:title=" ">
<path fill="none" stroke="#63b8ff" d="M393.45,-55.96C420.15,-47.01 461.24,-33.23 490.89,-23.28"/>
<polygon fill="#63b8ff" stroke="#63b8ff" points="492.1,-26.57 500.46,-20.07 489.87,-19.93 492.1,-26.57"/>
</a>
</g>
</g>
<!-- Node11&#45;&gt;Node10 -->
<g id="edge11_Node000011_Node000010" class="edge">
<title>Node11&#45;&gt;Node10</title>
<g id="a_edge11_Node000011_Node000010"><a xlink:title=" ">
<path fill="none" stroke="#63b8ff" d="M526.58,-112C526.74,-94.19 527.11,-54.12 527.33,-30.15"/>
<polygon fill="#63b8ff" stroke="#63b8ff" points="530.83,-30.16 527.42,-20.13 523.83,-30.09 530.83,-30.16"/>
</a>
</g>
</g>
</g>
</svg>
