<?xml version="1.0" encoding="UTF-8" standalone="no"?>
<!DOCTYPE svg PUBLIC "-//W3C//DTD SVG 1.1//EN"
 "http://www.w3.org/Graphics/SVG/1.1/DTD/svg11.dtd">
<!-- Generated by graphviz version 5.0.0 (0)
 -->
<!-- Title: DataNonlinearGurson Pages: 1 -->
<svg width="432pt" height="416pt"
 viewBox="0.00 0.00 431.50 416.00" xmlns="http://www.w3.org/2000/svg" xmlns:xlink="http://www.w3.org/1999/xlink">
<g id="graph0" class="graph" transform="scale(1 1) rotate(0) translate(4 412)">
<title>DataNonlinearGurson</title>
<!-- Node1 -->
<g id="node1" class="node">
<title>Node1</title>
<g id="a_node1"><a xlink:title=" ">
<polygon fill="#999999" stroke="#666666" points="291,-408 139,-408 139,-292 291,-292 291,-408"/>
<text text-anchor="middle" x="215" y="-395.2" font-family="Consolas" font-size="11.00">{DataNonlinearGurson</text>
<text text-anchor="start" x="147" y="-383.2" font-family="Consolas" font-size="11.00">|+ elastic_modulus</text>
<text text-anchor="start" x="147" y="-371.2" font-family="Consolas" font-size="11.00">+ poissons_ratio</text>
<text text-anchor="start" x="147" y="-359.2" font-family="Consolas" font-size="11.00">+ q1</text>
<text text-anchor="start" x="147" y="-347.2" font-family="Consolas" font-size="11.00">+ q2</text>
<text text-anchor="start" x="147" y="-335.2" font-family="Consolas" font-size="11.00">+ fn</text>
<text text-anchor="start" x="147" y="-323.2" font-family="Consolas" font-size="11.00">+ sn</text>
<text text-anchor="start" x="147" y="-311.2" font-family="Consolas" font-size="11.00">+ en</text>
<text text-anchor="middle" x="215" y="-299.2" font-family="Consolas" font-size="11.00">|}</text>
</a>
</g>
</g>
<!-- Node2 -->
<g id="node2" class="node">
<title>Node2</title>
<g id="a_node2"><a xlink:href="../../d1/dd0/class_nonlinear_gurson.html" target="_top" xlink:title="The NonlinearGurson class.">
<polygon fill="white" stroke="#666666" points="301,-256 129,-256 129,-116 301,-116 301,-256"/>
<text text-anchor="middle" x="215" y="-243.2" font-family="Consolas" font-size="11.00">{NonlinearGurson</text>
<text text-anchor="start" x="137" y="-231.2" font-family="Consolas" font-size="11.00">||+ NonlinearGurson()</text>
<text text-anchor="start" x="137" y="-219.2" font-family="Consolas" font-size="11.00">+ initialize()</text>
<text text-anchor="start" x="137" y="-207.2" font-family="Consolas" font-size="11.00">+ get_parameter()</text>
<text text-anchor="start" x="137" y="-195.2" font-family="Consolas" font-size="11.00">+ update_trial_status()</text>
<text text-anchor="start" x="137" y="-183.2" font-family="Consolas" font-size="11.00">+ clear_status()</text>
<text text-anchor="start" x="137" y="-171.2" font-family="Consolas" font-size="11.00">+ commit_status()</text>
<text text-anchor="start" x="137" y="-159.2" font-family="Consolas" font-size="11.00">+ reset_status()</text>
<text text-anchor="start" x="137" y="-147.2" font-family="Consolas" font-size="11.00">+ record()</text>
<text text-anchor="start" x="137" y="-135.2" font-family="Consolas" font-size="11.00">+ print()</text>
<text text-anchor="middle" x="215" y="-123.2" font-family="Consolas" font-size="11.00">}</text>
</a>
</g>
</g>
<!-- Node1&#45;&gt;Node2 -->
<g id="edge1" class="edge">
<title>Node1&#45;&gt;Node2</title>
<path fill="none" stroke="darkgreen" d="M215,-281.7C215,-273.24 215,-264.58 215,-256.1"/>
<polygon fill="none" stroke="darkgreen" points="211.5,-281.88 215,-291.88 218.5,-281.88 211.5,-281.88"/>
</g>
<!-- Node3 -->
<g id="node3" class="node">
<title>Node3</title>
<g id="a_node3"><a xlink:href="../../de/d4b/class_custom_gurson.html" target="_top" xlink:title="The CustomGurson class.">
<polygon fill="white" stroke="#666666" points="138,-80 0,-80 0,0 138,0 138,-80"/>
<text text-anchor="middle" x="69" y="-67.2" font-family="Consolas" font-size="11.00">{CustomGurson</text>
<text text-anchor="start" x="8" y="-55.2" font-family="Consolas" font-size="11.00">||+ CustomGurson()</text>
<text text-anchor="start" x="8" y="-43.2" font-family="Consolas" font-size="11.00">+ initialize()</text>
<text text-anchor="start" x="8" y="-31.2" font-family="Consolas" font-size="11.00">+ get_copy()</text>
<text text-anchor="start" x="8" y="-19.2" font-family="Consolas" font-size="11.00">+ print()</text>
<text text-anchor="middle" x="69" y="-7.2" font-family="Consolas" font-size="11.00">}</text>
</a>
</g>
</g>
<!-- Node2&#45;&gt;Node3 -->
<g id="edge2" class="edge">
<title>Node2&#45;&gt;Node3</title>
<path fill="none" stroke="#63b8ff" d="M137.7,-108.76C127.7,-98.89 117.8,-89.13 108.77,-80.23"/>
<polygon fill="none" stroke="#63b8ff" points="135.42,-111.42 144.99,-115.95 140.33,-106.44 135.42,-111.42"/>
</g>
<!-- Node4 -->
<g id="node4" class="node">
<title>Node4</title>
<g id="a_node4"><a xlink:href="../../dd/d26/class_exp_gurson.html" target="_top" xlink:title="The ExpGurson class.">
<polygon fill="white" stroke="#666666" points="274,-74 156,-74 156,-6 274,-6 274,-74"/>
<text text-anchor="middle" x="215" y="-61.2" font-family="Consolas" font-size="11.00">{ExpGurson</text>
<text text-anchor="start" x="164" y="-49.2" font-family="Consolas" font-size="11.00">||+ ExpGurson()</text>
<text text-anchor="start" x="164" y="-37.2" font-family="Consolas" font-size="11.00">+ get_copy()</text>
<text text-anchor="start" x="164" y="-25.2" font-family="Consolas" font-size="11.00">+ print()</text>
<text text-anchor="middle" x="215" y="-13.2" font-family="Consolas" font-size="11.00">}</text>
</a>
</g>
</g>
<!-- Node2&#45;&gt;Node4 -->
<g id="edge3" class="edge">
<title>Node2&#45;&gt;Node4</title>
<path fill="none" stroke="#63b8ff" d="M215,-105.7C215,-94.58 215,-83.7 215,-74.12"/>
<polygon fill="none" stroke="#63b8ff" points="211.5,-105.95 215,-115.95 218.5,-105.95 211.5,-105.95"/>
</g>
<!-- Node5 -->
<g id="node5" class="node">
<title>Node5</title>
<g id="a_node5"><a xlink:href="../../d9/db0/class_table_gurson.html" target="_top" xlink:title="A TableGurson material class.">
<polygon fill="white" stroke="#666666" points="423.5,-74 292.5,-74 292.5,-6 423.5,-6 423.5,-74"/>
<text text-anchor="middle" x="358" y="-61.2" font-family="Consolas" font-size="11.00">{TableGurson</text>
<text text-anchor="start" x="300.5" y="-49.2" font-family="Consolas" font-size="11.00">||+ TableGurson()</text>
<text text-anchor="start" x="300.5" y="-37.2" font-family="Consolas" font-size="11.00">+ get_parameter()</text>
<text text-anchor="start" x="300.5" y="-25.2" font-family="Consolas" font-size="11.00">+ get_copy()</text>
<text text-anchor="middle" x="358" y="-13.2" font-family="Consolas" font-size="11.00">}</text>
</a>
</g>
</g>
<!-- Node2&#45;&gt;Node5 -->
<g id="edge4" class="edge">
<title>Node2&#45;&gt;Node5</title>
<path fill="none" stroke="#63b8ff" d="M290.7,-108.77C302.79,-96.59 314.73,-84.58 325.11,-74.12"/>
<polygon fill="none" stroke="#63b8ff" points="288.13,-106.39 283.57,-115.95 293.1,-111.32 288.13,-106.39"/>
</g>
</g>
</svg>
