<?xml version="1.0" encoding="UTF-8" standalone="no"?>
<!DOCTYPE svg PUBLIC "-//W3C//DTD SVG 1.1//EN"
 "http://www.w3.org/Graphics/SVG/1.1/DTD/svg11.dtd">
<!-- Generated by graphviz version 2.43.0 (0)
 -->
<!-- Title: Material/MaterialOS/Wrapper/UniversalOS.cpp Pages: 1 -->
<svg width="735pt" height="388pt"
 viewBox="0.00 0.00 735.00 388.00" xmlns="http://www.w3.org/2000/svg" xmlns:xlink="http://www.w3.org/1999/xlink">
<g id="graph0" class="graph" transform="scale(1 1) rotate(0) translate(4 384)">
<title>Material/MaterialOS/Wrapper/UniversalOS.cpp</title>
<!-- Node1 -->
<g id="Node000001" class="node">
<title>Node1</title>
<g id="a_Node000001"><a xlink:title=" ">
<polygon fill="#999999" stroke="#666666" points="459,-380 280,-380 280,-348 459,-348 459,-380"/>
<text text-anchor="start" x="288" y="-367.2" font-family="Consolas" font-size="11.00">Material/MaterialOS</text>
<text text-anchor="middle" x="369.5" y="-355.2" font-family="Consolas" font-size="11.00">/Wrapper/UniversalOS.cpp</text>
</a>
</g>
</g>
<!-- Node2 -->
<g id="Node000002" class="node">
<title>Node2</title>
<g id="a_Node000002"><a xlink:href="../../d4/d87/_universal_o_s_8h.html" target="_top" xlink:title=" ">
<polygon fill="white" stroke="#666666" points="381.5,-312 277.5,-312 277.5,-292 381.5,-292 381.5,-312"/>
<text text-anchor="middle" x="329.5" y="-299.2" font-family="Consolas" font-size="11.00">UniversalOS.h</text>
</a>
</g>
</g>
<!-- Node1&#45;&gt;Node2 -->
<g id="edge1_Node000001_Node000002" class="edge">
<title>Node1&#45;&gt;Node2</title>
<g id="a_edge1_Node000001_Node000002"><a xlink:title=" ">
<path fill="none" stroke="#63b8ff" d="M359.41,-347.86C353.9,-339.6 347.05,-329.33 341.3,-320.7"/>
<polygon fill="#63b8ff" stroke="#63b8ff" points="344.06,-318.53 335.6,-312.15 338.24,-322.42 344.06,-318.53"/>
</a>
</g>
</g>
<!-- Node16 -->
<g id="Node000016" class="node">
<title>Node16</title>
<g id="a_Node000016"><a xlink:href="../../dc/df2/_domain_base_8h.html" target="_top" xlink:title=" ">
<polygon fill="white" stroke="#666666" points="525,-188 380,-188 380,-168 525,-168 525,-188"/>
<text text-anchor="middle" x="452.5" y="-175.2" font-family="Consolas" font-size="11.00">Domain/DomainBase.h</text>
</a>
</g>
</g>
<!-- Node1&#45;&gt;Node16 -->
<g id="edge16_Node000001_Node000016" class="edge">
<title>Node1&#45;&gt;Node16</title>
<g id="a_edge16_Node000001_Node000016"><a xlink:title=" ">
<path fill="none" stroke="#63b8ff" d="M376.29,-347.94C391.37,-314.51 427.62,-234.15 444.1,-197.63"/>
<polygon fill="#63b8ff" stroke="#63b8ff" points="447.44,-198.74 448.36,-188.18 441.06,-195.86 447.44,-198.74"/>
</a>
</g>
</g>
<!-- Node3 -->
<g id="Node000003" class="node">
<title>Node3</title>
<g id="a_Node000003"><a xlink:href="../../d9/da4/_stress_wrapper_8h.html" target="_top" xlink:title=" ">
<polygon fill="white" stroke="#666666" points="378,-256 199,-256 199,-224 378,-224 378,-256"/>
<text text-anchor="start" x="207" y="-243.2" font-family="Consolas" font-size="11.00">Material/Material3D</text>
<text text-anchor="middle" x="288.5" y="-231.2" font-family="Consolas" font-size="11.00">/Wrapper/StressWrapper.h</text>
</a>
</g>
</g>
<!-- Node2&#45;&gt;Node3 -->
<g id="edge2_Node000002_Node000003" class="edge">
<title>Node2&#45;&gt;Node3</title>
<g id="a_edge2_Node000002_Node000003"><a xlink:title=" ">
<path fill="none" stroke="#63b8ff" d="M323.27,-291.89C318.33,-284.66 311.2,-274.22 304.68,-264.67"/>
<polygon fill="#63b8ff" stroke="#63b8ff" points="307.47,-262.56 298.94,-256.28 301.69,-266.51 307.47,-262.56"/>
</a>
</g>
</g>
<!-- Node4 -->
<g id="Node000004" class="node">
<title>Node4</title>
<g id="a_Node000004"><a xlink:href="../../d3/d09/_material_8h.html" target="_top" xlink:title=" ">
<polygon fill="white" stroke="#666666" points="361,-188 216,-188 216,-168 361,-168 361,-188"/>
<text text-anchor="middle" x="288.5" y="-175.2" font-family="Consolas" font-size="11.00">Material/Material.h</text>
</a>
</g>
</g>
<!-- Node3&#45;&gt;Node4 -->
<g id="edge3_Node000003_Node000004" class="edge">
<title>Node3&#45;&gt;Node4</title>
<g id="a_edge3_Node000003_Node000004"><a xlink:title=" ">
<path fill="none" stroke="#63b8ff" d="M288.5,-223.86C288.5,-216.13 288.5,-206.63 288.5,-198.37"/>
<polygon fill="#63b8ff" stroke="#63b8ff" points="292,-198.15 288.5,-188.15 285,-198.15 292,-198.15"/>
</a>
</g>
</g>
<!-- Node15 -->
<g id="Node000015" class="node">
<title>Node15</title>
<g id="a_Node000015"><a xlink:href="../../d4/da0/_resource_holder_8h.html" target="_top" xlink:title=" ">
<polygon fill="white" stroke="#666666" points="196,-188 17,-188 17,-168 196,-168 196,-188"/>
<text text-anchor="middle" x="106.5" y="-175.2" font-family="Consolas" font-size="11.00">Toolbox/ResourceHolder.h</text>
</a>
</g>
</g>
<!-- Node3&#45;&gt;Node15 -->
<g id="edge14_Node000003_Node000015" class="edge">
<title>Node3&#45;&gt;Node15</title>
<g id="a_edge14_Node000003_Node000015"><a xlink:title=" ">
<path fill="none" stroke="#63b8ff" d="M242.57,-223.86C211.96,-213.77 172.24,-200.67 143.62,-191.24"/>
<polygon fill="#63b8ff" stroke="#63b8ff" points="144.59,-187.87 134,-188.07 142.4,-194.52 144.59,-187.87"/>
</a>
</g>
</g>
<!-- Node5 -->
<g id="Node000005" class="node">
<title>Node5</title>
<g id="a_Node000005"><a xlink:href="../../d2/d4a/_tag_8h.html" target="_top" xlink:title=" ">
<polygon fill="white" stroke="#666666" points="382.5,-132 284.5,-132 284.5,-112 382.5,-112 382.5,-132"/>
<text text-anchor="middle" x="333.5" y="-119.2" font-family="Consolas" font-size="11.00">Domain/Tag.h</text>
</a>
</g>
</g>
<!-- Node4&#45;&gt;Node5 -->
<g id="edge4_Node000004_Node000005" class="edge">
<title>Node4&#45;&gt;Node5</title>
<g id="a_edge4_Node000004_Node000005"><a xlink:title=" ">
<path fill="none" stroke="#63b8ff" d="M296.34,-167.59C302.66,-160.01 311.72,-149.13 319.31,-140.02"/>
<polygon fill="#63b8ff" stroke="#63b8ff" points="322.04,-142.22 325.75,-132.3 316.66,-137.74 322.04,-142.22"/>
</a>
</g>
</g>
<!-- Node14 -->
<g id="Node000014" class="node">
<title>Node14</title>
<g id="a_Node000014"><a xlink:href="../../df/dec/_parameter_type_8h.html" target="_top" xlink:title=" ">
<polygon fill="white" stroke="#666666" points="266.5,-132 148.5,-132 148.5,-112 266.5,-112 266.5,-132"/>
<text text-anchor="middle" x="207.5" y="-119.2" font-family="Consolas" font-size="11.00">ParameterType.h</text>
</a>
</g>
</g>
<!-- Node4&#45;&gt;Node14 -->
<g id="edge13_Node000004_Node000014" class="edge">
<title>Node4&#45;&gt;Node14</title>
<g id="a_edge13_Node000004_Node000014"><a xlink:title=" ">
<path fill="none" stroke="#63b8ff" d="M274.76,-167.84C262.35,-159.57 243.87,-147.25 229.42,-137.62"/>
<polygon fill="#63b8ff" stroke="#63b8ff" points="231.3,-134.66 221.04,-132.03 227.42,-140.48 231.3,-134.66"/>
</a>
</g>
</g>
<!-- Node6 -->
<g id="Node000006" class="node">
<title>Node6</title>
<g id="a_Node000006"><a xlink:href="../../d8/d8f/suan_pan_8h.html" target="_top" xlink:title=" ">
<polygon fill="white" stroke="#666666" points="372,-76 295,-76 295,-56 372,-56 372,-76"/>
<text text-anchor="middle" x="333.5" y="-63.2" font-family="Consolas" font-size="11.00">suanPan.h</text>
</a>
</g>
</g>
<!-- Node5&#45;&gt;Node6 -->
<g id="edge5_Node000005_Node000006" class="edge">
<title>Node5&#45;&gt;Node6</title>
<g id="a_edge5_Node000005_Node000006"><a xlink:title=" ">
<path fill="none" stroke="#63b8ff" d="M333.5,-111.59C333.5,-104.7 333.5,-95.1 333.5,-86.57"/>
<polygon fill="#63b8ff" stroke="#63b8ff" points="337,-86.3 333.5,-76.3 330,-86.3 337,-86.3"/>
</a>
</g>
</g>
<!-- Node7 -->
<g id="Node000007" class="node">
<title>Node7</title>
<g id="a_Node000007"><a xlink:title=" ">
<polygon fill="#e0e0e0" stroke="#999999" points="692,-20 621,-20 621,0 692,0 692,-20"/>
<text text-anchor="middle" x="656.5" y="-7.2" font-family="Consolas" font-size="11.00">iostream</text>
</a>
</g>
</g>
<!-- Node6&#45;&gt;Node7 -->
<g id="edge6_Node000006_Node000007" class="edge">
<title>Node6&#45;&gt;Node7</title>
<g id="a_edge6_Node000006_Node000007"><a xlink:title=" ">
<path fill="none" stroke="#63b8ff" d="M372.25,-57.63C375.38,-57.07 378.49,-56.52 381.5,-56 480.38,-39 507.98,-38.18 610.81,-20.06"/>
<polygon fill="#63b8ff" stroke="#63b8ff" points="611.43,-23.5 620.66,-18.31 610.21,-16.61 611.43,-23.5"/>
</a>
</g>
</g>
<!-- Node8 -->
<g id="Node000008" class="node">
<title>Node8</title>
<g id="a_Node000008"><a xlink:title=" ">
<polygon fill="#e0e0e0" stroke="#999999" points="220,-20 75,-20 75,0 220,0 220,-20"/>
<text text-anchor="middle" x="147.5" y="-7.2" font-family="Consolas" font-size="11.00">armadillo/armadillo</text>
</a>
</g>
</g>
<!-- Node6&#45;&gt;Node8 -->
<g id="edge7_Node000006_Node000008" class="edge">
<title>Node6&#45;&gt;Node8</title>
<g id="a_edge7_Node000006_Node000008"><a xlink:title=" ">
<path fill="none" stroke="#63b8ff" d="M302.37,-55.96C271.12,-46.89 222.81,-32.86 188.47,-22.89"/>
<polygon fill="#63b8ff" stroke="#63b8ff" points="189.31,-19.49 178.73,-20.07 187.36,-26.22 189.31,-19.49"/>
</a>
</g>
</g>
<!-- Node9 -->
<g id="Node000009" class="node">
<title>Node9</title>
<g id="a_Node000009"><a xlink:title=" ">
<polygon fill="#e0e0e0" stroke="#999999" points="322.5,-20 238.5,-20 238.5,0 322.5,0 322.5,-20"/>
<text text-anchor="middle" x="280.5" y="-7.2" font-family="Consolas" font-size="11.00">filesystem</text>
</a>
</g>
</g>
<!-- Node6&#45;&gt;Node9 -->
<g id="edge8_Node000006_Node000009" class="edge">
<title>Node6&#45;&gt;Node9</title>
<g id="a_edge8_Node000006_Node000009"><a xlink:title=" ">
<path fill="none" stroke="#63b8ff" d="M324.27,-55.59C316.67,-47.85 305.71,-36.69 296.66,-27.47"/>
<polygon fill="#63b8ff" stroke="#63b8ff" points="299.13,-24.98 289.63,-20.3 294.13,-29.89 299.13,-24.98"/>
</a>
</g>
</g>
<!-- Node10 -->
<g id="Node000010" class="node">
<title>Node10</title>
<g id="a_Node000010"><a xlink:title=" ">
<polygon fill="#e0e0e0" stroke="#999999" points="432,-20 341,-20 341,0 432,0 432,-20"/>
<text text-anchor="middle" x="386.5" y="-7.2" font-family="Consolas" font-size="11.00">fmt/color.h</text>
</a>
</g>
</g>
<!-- Node6&#45;&gt;Node10 -->
<g id="edge9_Node000006_Node000010" class="edge">
<title>Node6&#45;&gt;Node10</title>
<g id="a_edge9_Node000006_Node000010"><a xlink:title=" ">
<path fill="none" stroke="#63b8ff" d="M342.73,-55.59C350.33,-47.85 361.29,-36.69 370.34,-27.47"/>
<polygon fill="#63b8ff" stroke="#63b8ff" points="372.87,-29.89 377.37,-20.3 367.87,-24.98 372.87,-29.89"/>
</a>
</g>
</g>
<!-- Node11 -->
<g id="Node000011" class="node">
<title>Node11</title>
<g id="a_Node000011"><a xlink:title=" ">
<polygon fill="#e0e0e0" stroke="#999999" points="500.5,-20 450.5,-20 450.5,0 500.5,0 500.5,-20"/>
<text text-anchor="middle" x="475.5" y="-7.2" font-family="Consolas" font-size="11.00">mutex</text>
</a>
</g>
</g>
<!-- Node6&#45;&gt;Node11 -->
<g id="edge10_Node000006_Node000011" class="edge">
<title>Node6&#45;&gt;Node11</title>
<g id="a_edge10_Node000006_Node000011"><a xlink:title=" ">
<path fill="none" stroke="#63b8ff" d="M357.27,-55.96C380.51,-47.12 416.11,-33.58 442.18,-23.67"/>
<polygon fill="#63b8ff" stroke="#63b8ff" points="443.55,-26.89 451.65,-20.07 441.06,-20.35 443.55,-26.89"/>
</a>
</g>
</g>
<!-- Node12 -->
<g id="Node000012" class="node">
<title>Node12</title>
<g id="a_Node000012"><a xlink:title=" ">
<polygon fill="#e0e0e0" stroke="#999999" points="602.5,-20 518.5,-20 518.5,0 602.5,0 602.5,-20"/>
<text text-anchor="middle" x="560.5" y="-7.2" font-family="Consolas" font-size="11.00">functional</text>
</a>
</g>
</g>
<!-- Node6&#45;&gt;Node12 -->
<g id="edge11_Node000006_Node000012" class="edge">
<title>Node6&#45;&gt;Node12</title>
<g id="a_edge11_Node000006_Node000012"><a xlink:title=" ">
<path fill="none" stroke="#63b8ff" d="M371.49,-55.96C410.29,-46.73 470.62,-32.38 512.65,-22.38"/>
<polygon fill="#63b8ff" stroke="#63b8ff" points="513.46,-25.79 522.38,-20.07 511.84,-18.98 513.46,-25.79"/>
</a>
</g>
</g>
<!-- Node13 -->
<g id="Node000013" class="node">
<title>Node13</title>
<g id="a_Node000013"><a xlink:title=" ">
<polygon fill="#e0e0e0" stroke="#999999" points="57,-20 0,-20 0,0 57,0 57,-20"/>
<text text-anchor="middle" x="28.5" y="-7.2" font-family="Consolas" font-size="11.00">memory</text>
</a>
</g>
</g>
<!-- Node6&#45;&gt;Node13 -->
<g id="edge12_Node000006_Node000013" class="edge">
<title>Node6&#45;&gt;Node13</title>
<g id="a_edge12_Node000006_Node000013"><a xlink:title=" ">
<path fill="none" stroke="#63b8ff" d="M294.73,-59.39C244.4,-51.91 153.66,-37.75 67.12,-20.22"/>
<polygon fill="#63b8ff" stroke="#63b8ff" points="67.64,-16.76 57.14,-18.18 66.23,-23.61 67.64,-16.76"/>
</a>
</g>
</g>
<!-- Node15&#45;&gt;Node13 -->
<g id="edge15_Node000015_Node000013" class="edge">
<title>Node15&#45;&gt;Node13</title>
<g id="a_edge15_Node000015_Node000013"><a xlink:title=" ">
<path fill="none" stroke="#63b8ff" d="M102.08,-167.6C89.59,-141.01 53.82,-64.89 37.19,-29.5"/>
<polygon fill="#63b8ff" stroke="#63b8ff" points="40.29,-27.86 32.87,-20.3 33.95,-30.84 40.29,-27.86"/>
</a>
</g>
</g>
<!-- Node16&#45;&gt;Node5 -->
<g id="edge18_Node000016_Node000005" class="edge">
<title>Node16&#45;&gt;Node5</title>
<g id="a_edge18_Node000016_Node000005"><a xlink:title=" ">
<path fill="none" stroke="#63b8ff" d="M432.58,-167.96C413.53,-159.32 384.58,-146.18 362.88,-136.33"/>
<polygon fill="#63b8ff" stroke="#63b8ff" points="364.04,-133.01 353.48,-132.07 361.14,-139.39 364.04,-133.01"/>
</a>
</g>
</g>
<!-- Node17 -->
<g id="Node000017" class="node">
<title>Node17</title>
<g id="a_Node000017"><a xlink:title=" ">
<polygon fill="#e0e0e0" stroke="#999999" points="621,-132 564,-132 564,-112 621,-112 621,-132"/>
<text text-anchor="middle" x="592.5" y="-119.2" font-family="Consolas" font-size="11.00">future</text>
</a>
</g>
</g>
<!-- Node16&#45;&gt;Node17 -->
<g id="edge17_Node000016_Node000017" class="edge">
<title>Node16&#45;&gt;Node17</title>
<g id="a_edge17_Node000016_Node000017"><a xlink:title=" ">
<path fill="none" stroke="#63b8ff" d="M475.93,-167.96C498.85,-159.12 533.95,-145.58 559.65,-135.67"/>
<polygon fill="#63b8ff" stroke="#63b8ff" points="560.92,-138.93 568.99,-132.07 558.4,-132.4 560.92,-138.93"/>
</a>
</g>
</g>
<!-- Node18 -->
<g id="Node000018" class="node">
<title>Node18</title>
<g id="a_Node000018"><a xlink:href="../../d4/ddd/container_8h.html" target="_top" xlink:title=" ">
<polygon fill="white" stroke="#666666" points="546,-132 401,-132 401,-112 546,-112 546,-132"/>
<text text-anchor="middle" x="473.5" y="-119.2" font-family="Consolas" font-size="11.00">Toolbox/container.h</text>
</a>
</g>
</g>
<!-- Node16&#45;&gt;Node18 -->
<g id="edge19_Node000016_Node000018" class="edge">
<title>Node16&#45;&gt;Node18</title>
<g id="a_edge19_Node000016_Node000018"><a xlink:title=" ">
<path fill="none" stroke="#63b8ff" d="M456.16,-167.59C458.93,-160.47 462.82,-150.45 466.22,-141.72"/>
<polygon fill="#63b8ff" stroke="#63b8ff" points="469.52,-142.89 469.88,-132.3 463,-140.35 469.52,-142.89"/>
</a>
</g>
</g>
<!-- Node18&#45;&gt;Node6 -->
<g id="edge20_Node000018_Node000006" class="edge">
<title>Node18&#45;&gt;Node6</title>
<g id="a_edge20_Node000018_Node000006"><a xlink:title=" ">
<path fill="none" stroke="#63b8ff" d="M450.07,-111.96C427.15,-103.12 392.05,-89.58 366.35,-79.67"/>
<polygon fill="#63b8ff" stroke="#63b8ff" points="367.6,-76.4 357.01,-76.07 365.08,-82.93 367.6,-76.4"/>
</a>
</g>
</g>
<!-- Node19 -->
<g id="Node000019" class="node">
<title>Node19</title>
<g id="a_Node000019"><a xlink:title=" ">
<polygon fill="#e0e0e0" stroke="#999999" points="672,-76 635,-76 635,-56 672,-56 672,-76"/>
<text text-anchor="middle" x="653.5" y="-63.2" font-family="Consolas" font-size="11.00">set</text>
</a>
</g>
</g>
<!-- Node18&#45;&gt;Node19 -->
<g id="edge21_Node000018_Node000019" class="edge">
<title>Node18&#45;&gt;Node19</title>
<g id="a_edge21_Node000018_Node000019"><a xlink:title=" ">
<path fill="none" stroke="#63b8ff" d="M504.71,-111.99C533.5,-103.63 577.66,-90.67 625.01,-76.1"/>
<polygon fill="#63b8ff" stroke="#63b8ff" points="626.32,-79.36 634.84,-73.06 624.26,-72.67 626.32,-79.36"/>
</a>
</g>
</g>
<!-- Node20 -->
<g id="Node000020" class="node">
<title>Node20</title>
<g id="a_Node000020"><a xlink:title=" ">
<polygon fill="#e0e0e0" stroke="#999999" points="727,-76 690,-76 690,-56 727,-56 727,-76"/>
<text text-anchor="middle" x="708.5" y="-63.2" font-family="Consolas" font-size="11.00">map</text>
</a>
</g>
</g>
<!-- Node18&#45;&gt;Node20 -->
<g id="edge22_Node000018_Node000020" class="edge">
<title>Node18&#45;&gt;Node20</title>
<g id="a_edge22_Node000018_Node000020"><a xlink:title=" ">
<path fill="none" stroke="#63b8ff" d="M522.62,-111.94C562.76,-104.18 621.14,-92.1 680.13,-76.16"/>
<polygon fill="#63b8ff" stroke="#63b8ff" points="681.27,-79.48 689.99,-73.46 679.42,-72.73 681.27,-79.48"/>
</a>
</g>
</g>
<!-- Node21 -->
<g id="Node000021" class="node">
<title>Node21</title>
<g id="a_Node000021"><a xlink:title=" ">
<polygon fill="#e0e0e0" stroke="#999999" points="494.5,-76 390.5,-76 390.5,-56 494.5,-56 494.5,-76"/>
<text text-anchor="middle" x="442.5" y="-63.2" font-family="Consolas" font-size="11.00">unordered_set</text>
</a>
</g>
</g>
<!-- Node18&#45;&gt;Node21 -->
<g id="edge23_Node000018_Node000021" class="edge">
<title>Node18&#45;&gt;Node21</title>
<g id="a_edge23_Node000018_Node000021"><a xlink:title=" ">
<path fill="none" stroke="#63b8ff" d="M468.1,-111.59C463.92,-104.32 458.01,-94.02 452.92,-85.15"/>
<polygon fill="#63b8ff" stroke="#63b8ff" points="455.85,-83.23 447.84,-76.3 449.78,-86.71 455.85,-83.23"/>
</a>
</g>
</g>
<!-- Node22 -->
<g id="Node000022" class="node">
<title>Node22</title>
<g id="a_Node000022"><a xlink:title=" ">
<polygon fill="#e0e0e0" stroke="#999999" points="616.5,-76 512.5,-76 512.5,-56 616.5,-56 616.5,-76"/>
<text text-anchor="middle" x="564.5" y="-63.2" font-family="Consolas" font-size="11.00">unordered_map</text>
</a>
</g>
</g>
<!-- Node18&#45;&gt;Node22 -->
<g id="edge24_Node000018_Node000022" class="edge">
<title>Node18&#45;&gt;Node22</title>
<g id="a_edge24_Node000018_Node000022"><a xlink:title=" ">
<path fill="none" stroke="#63b8ff" d="M488.94,-111.84C503.01,-103.49 524.03,-91.02 540.33,-81.34"/>
<polygon fill="#63b8ff" stroke="#63b8ff" points="542.48,-84.14 549.29,-76.03 538.91,-78.12 542.48,-84.14"/>
</a>
</g>
</g>
</g>
</svg>
