<?xml version="1.0" encoding="UTF-8" standalone="no"?>
<!DOCTYPE svg PUBLIC "-//W3C//DTD SVG 1.1//EN"
 "http://www.w3.org/Graphics/SVG/1.1/DTD/svg11.dtd">
<!-- Generated by graphviz version 2.43.0 (0)
 -->
<!-- Title: Concrete21::update_trial_status Pages: 1 -->
<svg width="676pt" height="277pt"
 viewBox="0.00 0.00 676.00 276.69" xmlns="http://www.w3.org/2000/svg" xmlns:xlink="http://www.w3.org/1999/xlink">
<g id="graph0" class="graph" transform="scale(1 1) rotate(0) translate(4 272.69)">
<title>Concrete21::update_trial_status</title>
<polygon fill="white" stroke="transparent" points="-4,4 -4,-272.69 672,-272.69 672,4 -4,4"/>
<!-- Node1 -->
<g id="node1" class="node">
<title>Node1</title>
<g id="a_node1"><a xlink:title=" ">
<polygon fill="#bfbfbf" stroke="black" points="0,-130.5 0,-162.5 138,-162.5 138,-130.5 0,-130.5"/>
<text text-anchor="start" x="8" y="-149.7" font-family="Consolas" font-size="11.00">Concrete21::update</text>
<text text-anchor="middle" x="69" y="-137.7" font-family="Consolas" font-size="11.00">_trial_status</text>
</a>
</g>
</g>
<!-- Node2 -->
<g id="node2" class="node">
<title>Node2</title>
<g id="a_node2"><a xlink:href="../../d5/d4b/namespacetransform_1_1strain.html#aa364f90f707a9daeb68ba567b83351a5" target="_top" xlink:title=" ">
<polygon fill="white" stroke="black" points="362,-51.5 362,-83.5 507,-83.5 507,-51.5 362,-51.5"/>
<text text-anchor="start" x="370" y="-70.7" font-family="Consolas" font-size="11.00">transform::strain::</text>
<text text-anchor="middle" x="434.5" y="-58.7" font-family="Consolas" font-size="11.00">angle</text>
</a>
</g>
</g>
<!-- Node1&#45;&gt;Node2 -->
<g id="edge1" class="edge">
<title>Node1&#45;&gt;Node2</title>
<path fill="none" stroke="midnightblue" d="M80.72,-162.86C97.37,-186.59 131.95,-229.56 174,-246.5 236.66,-271.74 267.21,-279.77 326,-246.5 384.33,-213.49 414.48,-134.78 426.73,-93.61"/>
<polygon fill="midnightblue" stroke="midnightblue" points="430.16,-94.34 429.53,-83.77 423.43,-92.43 430.16,-94.34"/>
</g>
<!-- Node6 -->
<g id="node6" class="node">
<title>Node6</title>
<g id="a_node6"><a xlink:href="../../dc/dee/class_material.html#ad28136c4cd29daa3b12b0f416ca99910" target="_top" xlink:title=" ">
<polygon fill="white" stroke="black" points="177.5,-204.5 177.5,-236.5 322.5,-236.5 322.5,-204.5 177.5,-204.5"/>
<text text-anchor="start" x="185.5" y="-223.7" font-family="Consolas" font-size="11.00">Material::get_trial</text>
<text text-anchor="middle" x="250" y="-211.7" font-family="Consolas" font-size="11.00">_stiffness</text>
</a>
</g>
</g>
<!-- Node1&#45;&gt;Node6 -->
<g id="edge6" class="edge">
<title>Node1&#45;&gt;Node6</title>
<path fill="none" stroke="midnightblue" d="M101.43,-162.5C121.84,-172.59 149.17,-185.55 174,-195.5 178.66,-197.37 183.52,-199.21 188.42,-201"/>
<polygon fill="midnightblue" stroke="midnightblue" points="187.28,-204.31 197.87,-204.36 189.62,-197.71 187.28,-204.31"/>
</g>
<!-- Node7 -->
<g id="node7" class="node">
<title>Node7</title>
<g id="a_node7"><a xlink:href="../../dc/dee/class_material.html#a73297a8cd5bcef2c652acf1df6418d5b" target="_top" xlink:title=" ">
<polygon fill="white" stroke="black" points="177.5,-153.5 177.5,-185.5 322.5,-185.5 322.5,-153.5 177.5,-153.5"/>
<text text-anchor="start" x="185.5" y="-172.7" font-family="Consolas" font-size="11.00">Material::get_trial</text>
<text text-anchor="middle" x="250" y="-160.7" font-family="Consolas" font-size="11.00">_stress</text>
</a>
</g>
</g>
<!-- Node1&#45;&gt;Node7 -->
<g id="edge7" class="edge">
<title>Node1&#45;&gt;Node7</title>
<path fill="none" stroke="midnightblue" d="M138.18,-155.26C147.72,-156.49 157.59,-157.75 167.34,-159.01"/>
<polygon fill="midnightblue" stroke="midnightblue" points="167.07,-162.5 177.44,-160.3 167.96,-155.56 167.07,-162.5"/>
</g>
<!-- Node8 -->
<g id="node8" class="node">
<title>Node8</title>
<g id="a_node8"><a xlink:href="../../d2/dfc/namespacetensor_1_1strain.html#a86200e5f690b2fe54ca08f6a2a721ab0" target="_top" xlink:title=" ">
<polygon fill="white" stroke="black" points="174,-114.5 174,-134.5 326,-134.5 326,-114.5 174,-114.5"/>
<text text-anchor="middle" x="250" y="-121.7" font-family="Consolas" font-size="11.00">tensor::strain::norm</text>
</a>
</g>
</g>
<!-- Node1&#45;&gt;Node8 -->
<g id="edge8" class="edge">
<title>Node1&#45;&gt;Node8</title>
<path fill="none" stroke="midnightblue" d="M138.18,-138.12C146.56,-137.09 155.21,-136.03 163.8,-134.97"/>
<polygon fill="midnightblue" stroke="midnightblue" points="164.34,-138.43 173.84,-133.74 163.49,-131.48 164.34,-138.43"/>
</g>
<!-- Node9 -->
<g id="node9" class="node">
<title>Node9</title>
<g id="a_node9"><a xlink:href="../../d5/d4b/namespacetransform_1_1strain.html#a5fff454d4f69819422ab9a959889d1e2" target="_top" xlink:title=" ">
<polygon fill="white" stroke="black" points="362,-0.5 362,-32.5 507,-32.5 507,-0.5 362,-0.5"/>
<text text-anchor="start" x="370" y="-19.7" font-family="Consolas" font-size="11.00">transform::strain::</text>
<text text-anchor="middle" x="434.5" y="-7.7" font-family="Consolas" font-size="11.00">principal</text>
</a>
</g>
</g>
<!-- Node1&#45;&gt;Node9 -->
<g id="edge9" class="edge">
<title>Node1&#45;&gt;Node9</title>
<path fill="none" stroke="midnightblue" d="M79.7,-130.23C95.72,-105.04 130.36,-57.32 174,-36.5 229.27,-10.13 298.74,-6.08 351.89,-8.1"/>
<polygon fill="midnightblue" stroke="midnightblue" points="351.8,-11.6 361.95,-8.56 352.13,-4.61 351.8,-11.6"/>
</g>
<!-- Node10 -->
<g id="node10" class="node">
<title>Node10</title>
<g id="a_node10"><a xlink:href="../../d5/d4b/namespacetransform_1_1strain.html#a7e4f56aa5fa32a814e597c9addba843e" target="_top" xlink:title=" ">
<polygon fill="white" stroke="black" points="177.5,-45.5 177.5,-77.5 322.5,-77.5 322.5,-45.5 177.5,-45.5"/>
<text text-anchor="start" x="185.5" y="-64.7" font-family="Consolas" font-size="11.00">transform::strain::</text>
<text text-anchor="middle" x="250" y="-52.7" font-family="Consolas" font-size="11.00">trans</text>
</a>
</g>
</g>
<!-- Node1&#45;&gt;Node10 -->
<g id="edge11" class="edge">
<title>Node1&#45;&gt;Node10</title>
<path fill="none" stroke="midnightblue" d="M104.09,-130.31C132.95,-116.61 174.5,-96.88 205.71,-82.06"/>
<polygon fill="midnightblue" stroke="midnightblue" points="207.51,-85.08 215.04,-77.63 204.5,-78.76 207.51,-85.08"/>
</g>
<!-- Node3 -->
<g id="node3" class="node">
<title>Node3</title>
<g id="a_node3"><a xlink:href="../../dc/dfe/namespacetransform.html#a6897723d826b435b1dd03f1436a3d0ab" target="_top" xlink:title=" ">
<polygon fill="white" stroke="black" points="543,-93.5 543,-113.5 668,-113.5 668,-93.5 543,-93.5"/>
<text text-anchor="middle" x="605.5" y="-100.7" font-family="Consolas" font-size="11.00">transform::atan2</text>
</a>
</g>
</g>
<!-- Node2&#45;&gt;Node3 -->
<g id="edge2" class="edge">
<title>Node2&#45;&gt;Node3</title>
<path fill="none" stroke="midnightblue" d="M507.17,-82.77C520.52,-85.61 534.3,-88.55 547.15,-91.28"/>
<polygon fill="midnightblue" stroke="midnightblue" points="546.71,-94.77 557.22,-93.43 548.17,-87.92 546.71,-94.77"/>
</g>
<!-- Node4 -->
<g id="node4" class="node">
<title>Node4</title>
<g id="a_node4"><a xlink:href="../../da/d46/group___utility.html#ga47ce50ab0d12c6f26d9051a88ce6ec01" target="_top" xlink:title=" ">
<polygon fill="white" stroke="black" points="553.5,-12.5 553.5,-32.5 657.5,-32.5 657.5,-12.5 553.5,-12.5"/>
<text text-anchor="middle" x="605.5" y="-19.7" font-family="Consolas" font-size="11.00">shape::strain</text>
</a>
</g>
</g>
<!-- Node2&#45;&gt;Node4 -->
<g id="edge4" class="edge">
<title>Node2&#45;&gt;Node4</title>
<path fill="none" stroke="midnightblue" d="M496.04,-51.38C515.95,-46.08 537.79,-40.26 556.63,-35.25"/>
<polygon fill="midnightblue" stroke="midnightblue" points="557.7,-38.58 566.46,-32.63 555.9,-31.82 557.7,-38.58"/>
</g>
<!-- Node5 -->
<g id="node5" class="node">
<title>Node5</title>
<g id="a_node5"><a xlink:href="../../d8/d8f/suan_pan_8h.html#aa87073491bf65bc79b4d8b6c2a613d06" target="_top" xlink:title=" ">
<polygon fill="white" stroke="black" points="550,-54.5 550,-74.5 661,-74.5 661,-54.5 550,-54.5"/>
<text text-anchor="middle" x="605.5" y="-61.7" font-family="Consolas" font-size="11.00">suanpan_assert</text>
</a>
</g>
</g>
<!-- Node2&#45;&gt;Node5 -->
<g id="edge5" class="edge">
<title>Node2&#45;&gt;Node5</title>
<path fill="none" stroke="midnightblue" d="M507.17,-66.23C518.01,-66.04 529.14,-65.84 539.82,-65.65"/>
<polygon fill="midnightblue" stroke="midnightblue" points="539.96,-69.15 549.9,-65.47 539.84,-62.15 539.96,-69.15"/>
</g>
<!-- Node3&#45;&gt;Node3 -->
<g id="edge3" class="edge">
<title>Node3&#45;&gt;Node3</title>
<path fill="none" stroke="midnightblue" d="M578.89,-113.73C566.75,-122.61 575.62,-132 605.5,-132 625.11,-132 635.67,-127.95 637.19,-122.66"/>
<polygon fill="midnightblue" stroke="midnightblue" points="640.09,-120.7 632.11,-113.73 634.01,-124.15 640.09,-120.7"/>
</g>
<!-- Node9&#45;&gt;Node4 -->
<g id="edge10" class="edge">
<title>Node9&#45;&gt;Node4</title>
<path fill="none" stroke="midnightblue" d="M507.17,-19.04C519.21,-19.47 531.6,-19.91 543.34,-20.33"/>
<polygon fill="midnightblue" stroke="midnightblue" points="543.35,-23.83 553.47,-20.69 543.6,-16.84 543.35,-23.83"/>
</g>
<!-- Node10&#45;&gt;Node2 -->
<g id="edge12" class="edge">
<title>Node10&#45;&gt;Node2</title>
<path fill="none" stroke="midnightblue" d="M322.61,-63.85C332.17,-64.17 342.03,-64.49 351.75,-64.81"/>
<polygon fill="midnightblue" stroke="midnightblue" points="351.69,-68.31 361.8,-65.14 351.92,-61.32 351.69,-68.31"/>
</g>
<!-- Node10&#45;&gt;Node10 -->
<g id="edge13" class="edge">
<title>Node10&#45;&gt;Node10</title>
<path fill="none" stroke="midnightblue" d="M218.1,-77.83C211.59,-87.24 222.23,-96 250,-96 266.92,-96 277.48,-92.75 281.68,-88.08"/>
<polygon fill="midnightblue" stroke="midnightblue" points="285.18,-87.9 281.9,-77.83 278.18,-87.75 285.18,-87.9"/>
</g>
</g>
</svg>
