<svg xmlns="http://www.w3.org/2000/svg" xmlns:xlink="http://www.w3.org/1999/xlink" width="900" height="40pt" viewBox="0 0 675 40"><g class="graph" transform="translate(4 36)"><title>test_material_by_strain_history</title><g class="node"><title>Node1</title><a>
<path fill="#999" stroke="#666" d="M667-32H495V0h172z"/>
<text x="503" y="-19.2" font-family="Consolas" font-size="11">test_material_by_strain</text>
<text x="581" y="-7.2" font-family="Consolas" font-size="11" text-anchor="middle">_history</text>
</a></g><g class="node"><title>Node2</title><a xlink:href="../../d1/d81/command_8cpp.html#a461032f40aff035f61cb8169cfe58aa1" target="_top">
<path fill="#fff" stroke="#666" d="M459-26H341v20h118z"/>
<text x="400" y="-13.2" font-family="Consolas" font-size="11" text-anchor="middle">process_command</text>
</a></g><g class="edge"><title>Node1-&gt;Node2</title><a>
<path fill="none" stroke="#63b8ff" d="M484.75-16h-25.5"/>
<path fill="#63b8ff" stroke="#63b8ff" d="m484.96-19.5 10 3.5-10 3.5z"/>
</a></g><g class="node"><title>Node3</title><a xlink:href="../../da/d46/group___utility.html#ga8bf8736c7a14e90bd7313d121b2ac440" target="_top">
<path fill="#fff" stroke="#666" d="M305-26h-71v20h71z"/>
<text x="269.5" y="-13.2" font-family="Consolas" font-size="11" text-anchor="middle">cli_mode</text>
</a></g><g class="edge"><title>Node2-&gt;Node3</title><a>
<path fill="none" stroke="#63b8ff" d="M330.71-16h-25.69"/>
<path fill="#63b8ff" stroke="#63b8ff" d="m330.77-19.5 10 3.5-10 3.5z"/>
</a></g><g class="node"><title>Node4</title><a xlink:href="../../da/d46/group___utility.html#gaf8d2165909a5b05cf91dce632ce172a4" target="_top">
<path fill="#fff" stroke="#666" d="M198-26H80v20h118z"/>
<text x="139" y="-13.2" font-family="Consolas" font-size="11" text-anchor="middle">argument_parser</text>
</a></g><g class="edge"><title>Node3-&gt;Node4</title><a>
<path fill="none" stroke="#63b8ff" d="M223.59-16h-25.51"/>
<path fill="#63b8ff" stroke="#63b8ff" d="m223.73-19.5 10 3.5-10 3.5z"/>
</a></g><g class="node"><title>Node5</title><a xlink:href="../../d6/dfd/suan_pan_8cpp.html#a3c04138a5bfe5d72780bb7e82a18e627" target="_top">
<path fill="#fff" stroke="#666" d="M44-26H0v20h44z"/>
<text x="22" y="-13.2" font-family="Consolas" font-size="11" text-anchor="middle">main</text>
</a></g><g class="edge"><title>Node4-&gt;Node5</title><a>
<path fill="none" stroke="#63b8ff" d="M69.67-16h-25.6"/>
<path fill="#63b8ff" stroke="#63b8ff" d="m69.83-19.5 10 3.5-10 3.5z"/>
</a></g></g></svg>