<?xml version="1.0" encoding="UTF-8" standalone="no"?>
<!DOCTYPE svg PUBLIC "-//W3C//DTD SVG 1.1//EN"
 "http://www.w3.org/Graphics/SVG/1.1/DTD/svg11.dtd">
<!-- Generated by graphviz version 2.43.0 (0)
 -->
<!-- Title: CustomHoffman Pages: 1 -->
<svg width="1201pt" height="1158pt"
 viewBox="0.00 0.00 1201.02 1158.00" xmlns="http://www.w3.org/2000/svg" xmlns:xlink="http://www.w3.org/1999/xlink">
<g id="graph0" class="graph" transform="scale(1 1) rotate(0) translate(4 1154)">
<title>CustomHoffman</title>
<polygon fill="white" stroke="transparent" points="-4,4 -4,-1154 1197.02,-1154 1197.02,4 -4,4"/>
<!-- Node1 -->
<g id="node1" class="node">
<title>Node1</title>
<g id="a_node1"><a xlink:title="The CustomHoffman class.">
<polygon fill="#bfbfbf" stroke="black" points="136.52,-0.5 136.52,-96.5 267.52,-96.5 267.52,-0.5 136.52,-0.5"/>
<text text-anchor="middle" x="202.02" y="-83.7" font-family="Consolas" font-size="11.00">CustomHoffman</text>
<polyline fill="none" stroke="black" points="136.52,-76.5 267.52,-76.5 "/>
<text text-anchor="middle" x="202.02" y="-63.7" font-family="Consolas" font-size="11.00"> </text>
<polyline fill="none" stroke="black" points="136.52,-56.5 267.52,-56.5 "/>
<text text-anchor="start" x="144.52" y="-43.7" font-family="Consolas" font-size="11.00">+ CustomHoffman()</text>
<text text-anchor="start" x="144.52" y="-31.7" font-family="Consolas" font-size="11.00">+ initialize()</text>
<text text-anchor="start" x="144.52" y="-19.7" font-family="Consolas" font-size="11.00">+ get_copy()</text>
<text text-anchor="start" x="144.52" y="-7.7" font-family="Consolas" font-size="11.00">+ print()</text>
</a>
</g>
</g>
<!-- Node2 -->
<g id="node2" class="node">
<title>Node2</title>
<g id="a_node2"><a xlink:href="../../d3/dd4/class_nonlinear_hoffman.html" target="_top" xlink:title="The NonlinearHoffman class.">
<polygon fill="white" stroke="black" points="116.02,-134.5 116.02,-266.5 288.02,-266.5 288.02,-134.5 116.02,-134.5"/>
<text text-anchor="middle" x="202.02" y="-253.7" font-family="Consolas" font-size="11.00">NonlinearHoffman</text>
<polyline fill="none" stroke="black" points="116.02,-246.5 288.02,-246.5 "/>
<text text-anchor="middle" x="202.02" y="-233.7" font-family="Consolas" font-size="11.00"> </text>
<polyline fill="none" stroke="black" points="116.02,-226.5 288.02,-226.5 "/>
<text text-anchor="start" x="124.02" y="-213.7" font-family="Consolas" font-size="11.00">+ NonlinearHoffman()</text>
<text text-anchor="start" x="124.02" y="-201.7" font-family="Consolas" font-size="11.00">+ initialize()</text>
<text text-anchor="start" x="124.02" y="-189.7" font-family="Consolas" font-size="11.00">+ update_trial_status()</text>
<text text-anchor="start" x="124.02" y="-177.7" font-family="Consolas" font-size="11.00">+ clear_status()</text>
<text text-anchor="start" x="124.02" y="-165.7" font-family="Consolas" font-size="11.00">+ commit_status()</text>
<text text-anchor="start" x="124.02" y="-153.7" font-family="Consolas" font-size="11.00">+ reset_status()</text>
<text text-anchor="start" x="124.02" y="-141.7" font-family="Consolas" font-size="11.00">+ print()</text>
</a>
</g>
</g>
<!-- Node2&#45;&gt;Node1 -->
<g id="edge1" class="edge">
<title>Node2&#45;&gt;Node1</title>
<path fill="none" stroke="midnightblue" d="M202.02,-124.03C202.02,-114.68 202.02,-105.35 202.02,-96.6"/>
<polygon fill="none" stroke="midnightblue" points="198.52,-124.14 202.02,-134.14 205.52,-124.14 198.52,-124.14"/>
</g>
<!-- Node3 -->
<g id="node3" class="node">
<title>Node3</title>
<g id="a_node3"><a xlink:href="../../d2/dfa/struct_data_nonlinear_hoffman.html" target="_top" xlink:title=" ">
<polygon fill="white" stroke="black" points="51.02,-613.5 51.02,-673.5 203.02,-673.5 203.02,-613.5 51.02,-613.5"/>
<text text-anchor="middle" x="127.02" y="-660.7" font-family="Consolas" font-size="11.00">DataNonlinearHoffman</text>
<polyline fill="none" stroke="black" points="51.02,-653.5 203.02,-653.5 "/>
<text text-anchor="middle" x="127.02" y="-640.7" font-family="Consolas" font-size="11.00"> </text>
<polyline fill="none" stroke="black" points="51.02,-633.5 203.02,-633.5 "/>
<text text-anchor="middle" x="127.02" y="-620.7" font-family="Consolas" font-size="11.00"> </text>
</a>
</g>
</g>
<!-- Node3&#45;&gt;Node2 -->
<g id="edge2" class="edge">
<title>Node3&#45;&gt;Node2</title>
<path fill="none" stroke="darkgreen" d="M133.71,-603.13C146.63,-527.19 175.1,-359.78 190.9,-266.86"/>
<polygon fill="none" stroke="darkgreen" points="130.22,-602.78 132,-613.22 137.13,-603.95 130.22,-602.78"/>
</g>
<!-- Node4 -->
<g id="node4" class="node">
<title>Node4</title>
<g id="a_node4"><a xlink:title=" ">
<polygon fill="white" stroke="black" points="99.52,-1089.5 99.52,-1149.5 136.52,-1149.5 136.52,-1089.5 99.52,-1089.5"/>
<text text-anchor="middle" x="118.02" y="-1136.7" font-family="Consolas" font-size="11.00">vec</text>
<polyline fill="none" stroke="black" points="99.52,-1129.5 136.52,-1129.5 "/>
<text text-anchor="middle" x="118.02" y="-1116.7" font-family="Consolas" font-size="11.00"> </text>
<polyline fill="none" stroke="black" points="99.52,-1109.5 136.52,-1109.5 "/>
<text text-anchor="middle" x="118.02" y="-1096.7" font-family="Consolas" font-size="11.00"> </text>
</a>
</g>
</g>
<!-- Node4&#45;&gt;Node3 -->
<g id="edge3" class="edge">
<title>Node4&#45;&gt;Node3</title>
<path fill="none" stroke="#404040" d="M99.13,-1115.76C75.25,-1111.18 35.09,-1099.47 17.02,-1071 -14.42,-1021.47 6.59,-996.73 17.02,-939 34.14,-844.23 79.92,-740.19 106.71,-684.69"/>
<polygon fill="none" stroke="#404040" points="106.86,-684.38 105.9,-677.24 112.13,-673.6 113.09,-680.75 106.86,-684.38"/>
<text text-anchor="middle" x="61.02" y="-1014.2" font-family="Consolas" font-size="11.00"> +modulus</text>
<text text-anchor="middle" x="61.02" y="-1002.2" font-family="Consolas" font-size="11.00">+ratio</text>
<text text-anchor="middle" x="61.02" y="-990.2" font-family="Consolas" font-size="11.00">+yield_stress</text>
</g>
<!-- Node7 -->
<g id="node7" class="node">
<title>Node7</title>
<g id="a_node7"><a xlink:href="../../de/de9/struct_data_material.html" target="_top" xlink:title=" ">
<polygon fill="white" stroke="black" points="654.52,-752.5 654.52,-860.5 799.52,-860.5 799.52,-752.5 654.52,-752.5"/>
<text text-anchor="middle" x="727.02" y="-847.7" font-family="Consolas" font-size="11.00">DataMaterial</text>
<polyline fill="none" stroke="black" points="654.52,-840.5 799.52,-840.5 "/>
<text text-anchor="start" x="662.52" y="-827.7" font-family="Consolas" font-size="11.00">+ trial_strain</text>
<text text-anchor="start" x="662.52" y="-815.7" font-family="Consolas" font-size="11.00">+ trial_strain_rate</text>
<text text-anchor="start" x="662.52" y="-803.7" font-family="Consolas" font-size="11.00">+ trial_strain_acc</text>
<text text-anchor="start" x="662.52" y="-791.7" font-family="Consolas" font-size="11.00">+ trial_stress</text>
<text text-anchor="start" x="662.52" y="-779.7" font-family="Consolas" font-size="11.00">+ trial_history</text>
<polyline fill="none" stroke="black" points="654.52,-772.5 799.52,-772.5 "/>
<text text-anchor="middle" x="727.02" y="-759.7" font-family="Consolas" font-size="11.00"> </text>
</a>
</g>
</g>
<!-- Node4&#45;&gt;Node7 -->
<g id="edge10" class="edge">
<title>Node4&#45;&gt;Node7</title>
<path fill="none" stroke="#404040" d="M136.65,-1118.84C169.99,-1118.36 239.66,-1112.14 275.02,-1071 313.65,-1026.05 252.16,-980.96 294.02,-939 313.53,-919.44 390.24,-927.78 417.02,-921 495.47,-901.12 581.7,-868.64 643.25,-843.51"/>
<polygon fill="none" stroke="#404040" points="643.35,-843.47 647.38,-837.48 654.45,-838.9 650.42,-844.88 643.35,-843.47"/>
<text text-anchor="middle" x="362.02" y="-1062.2" font-family="Consolas" font-size="11.00"> +current_history</text>
<text text-anchor="middle" x="362.02" y="-1050.2" font-family="Consolas" font-size="11.00">+current_strain</text>
<text text-anchor="middle" x="362.02" y="-1038.2" font-family="Consolas" font-size="11.00">+current_strain_acc</text>
<text text-anchor="middle" x="362.02" y="-1026.2" font-family="Consolas" font-size="11.00">+current_strain_rate</text>
<text text-anchor="middle" x="362.02" y="-1014.2" font-family="Consolas" font-size="11.00">+current_stress</text>
<text text-anchor="middle" x="362.02" y="-1002.2" font-family="Consolas" font-size="11.00">+incre_strain</text>
<text text-anchor="middle" x="362.02" y="-990.2" font-family="Consolas" font-size="11.00">+incre_strain_acc</text>
<text text-anchor="middle" x="362.02" y="-978.2" font-family="Consolas" font-size="11.00">+incre_strain_rate</text>
<text text-anchor="middle" x="362.02" y="-966.2" font-family="Consolas" font-size="11.00">+incre_stress</text>
<text text-anchor="middle" x="362.02" y="-954.2" font-family="Consolas" font-size="11.00">+initial_history</text>
<text text-anchor="middle" x="362.02" y="-942.2" font-family="Consolas" font-size="11.00">...</text>
</g>
<!-- Node12 -->
<g id="node12" class="node">
<title>Node12</title>
<g id="a_node12"><a xlink:href="../../da/de4/struct_data_couple_material.html" target="_top" xlink:title=" ">
<polygon fill="white" stroke="black" points="141.02,-776.5 141.02,-836.5 279.02,-836.5 279.02,-776.5 141.02,-776.5"/>
<text text-anchor="middle" x="210.02" y="-823.7" font-family="Consolas" font-size="11.00">DataCoupleMaterial</text>
<polyline fill="none" stroke="black" points="141.02,-816.5 279.02,-816.5 "/>
<text text-anchor="middle" x="210.02" y="-803.7" font-family="Consolas" font-size="11.00"> </text>
<polyline fill="none" stroke="black" points="141.02,-796.5 279.02,-796.5 "/>
<text text-anchor="middle" x="210.02" y="-783.7" font-family="Consolas" font-size="11.00"> </text>
</a>
</g>
</g>
<!-- Node4&#45;&gt;Node12 -->
<g id="edge13" class="edge">
<title>Node4&#45;&gt;Node12</title>
<path fill="none" stroke="#404040" d="M113.02,-1089.4C107.96,-1053.21 102.95,-989.97 119.02,-939 130,-904.17 153.72,-870.42 174.19,-845.83"/>
<polygon fill="none" stroke="#404040" points="174.34,-845.66 175.2,-838.5 182.14,-836.54 181.28,-843.7 174.34,-845.66"/>
<text text-anchor="middle" x="197.02" y="-1032.2" font-family="Consolas" font-size="11.00"> +current_couple_stress</text>
<text text-anchor="middle" x="197.02" y="-1020.2" font-family="Consolas" font-size="11.00">+current_curvature</text>
<text text-anchor="middle" x="197.02" y="-1008.2" font-family="Consolas" font-size="11.00">+incre_couple_stress</text>
<text text-anchor="middle" x="197.02" y="-996.2" font-family="Consolas" font-size="11.00">+incre_curvature</text>
<text text-anchor="middle" x="197.02" y="-984.2" font-family="Consolas" font-size="11.00">+trial_couple_stress</text>
<text text-anchor="middle" x="197.02" y="-972.2" font-family="Consolas" font-size="11.00">+trial_curvature</text>
</g>
<!-- Node5 -->
<g id="node5" class="node">
<title>Node5</title>
<g id="a_node5"><a xlink:href="../../d7/d42/class_material3_d.html" target="_top" xlink:title="The Material3D class.">
<polygon fill="white" stroke="black" points="248.52,-304.5 248.52,-376.5 359.52,-376.5 359.52,-304.5 248.52,-304.5"/>
<text text-anchor="middle" x="304.02" y="-363.7" font-family="Consolas" font-size="11.00">Material3D</text>
<polyline fill="none" stroke="black" points="248.52,-356.5 359.52,-356.5 "/>
<text text-anchor="middle" x="304.02" y="-343.7" font-family="Consolas" font-size="11.00"> </text>
<polyline fill="none" stroke="black" points="248.52,-336.5 359.52,-336.5 "/>
<text text-anchor="start" x="256.52" y="-323.7" font-family="Consolas" font-size="11.00">+ Material3D()</text>
<text text-anchor="start" x="256.52" y="-311.7" font-family="Consolas" font-size="11.00">+ record()</text>
</a>
</g>
</g>
<!-- Node5&#45;&gt;Node2 -->
<g id="edge4" class="edge">
<title>Node5&#45;&gt;Node2</title>
<path fill="none" stroke="midnightblue" d="M272.07,-296.27C265.12,-286.86 257.61,-276.72 250.19,-266.67"/>
<polygon fill="none" stroke="midnightblue" points="269.26,-298.36 278.02,-304.32 274.89,-294.2 269.26,-298.36"/>
</g>
<!-- Node6 -->
<g id="node6" class="node">
<title>Node6</title>
<g id="a_node6"><a xlink:href="../../dc/dee/class_material.html" target="_top" xlink:title="A Material abstract base class.">
<polygon fill="white" stroke="black" points="255.02,-414.5 255.02,-594.5 413.02,-594.5 413.02,-414.5 255.02,-414.5"/>
<text text-anchor="middle" x="334.02" y="-581.7" font-family="Consolas" font-size="11.00">Material</text>
<polyline fill="none" stroke="black" points="255.02,-574.5 413.02,-574.5 "/>
<text text-anchor="middle" x="334.02" y="-561.7" font-family="Consolas" font-size="11.00"> </text>
<polyline fill="none" stroke="black" points="255.02,-554.5 413.02,-554.5 "/>
<text text-anchor="start" x="263.02" y="-541.7" font-family="Consolas" font-size="11.00">+ Material()</text>
<text text-anchor="start" x="263.02" y="-529.7" font-family="Consolas" font-size="11.00">+ Material()</text>
<text text-anchor="start" x="263.02" y="-517.7" font-family="Consolas" font-size="11.00">+ Material()</text>
<text text-anchor="start" x="263.02" y="-505.7" font-family="Consolas" font-size="11.00">+ operator=()</text>
<text text-anchor="start" x="263.02" y="-493.7" font-family="Consolas" font-size="11.00">+ operator=()</text>
<text text-anchor="start" x="263.02" y="-481.7" font-family="Consolas" font-size="11.00">+ ~Material()</text>
<text text-anchor="start" x="263.02" y="-469.7" font-family="Consolas" font-size="11.00">+ get_density()</text>
<text text-anchor="start" x="263.02" y="-457.7" font-family="Consolas" font-size="11.00">+ get_material_type()</text>
<text text-anchor="start" x="263.02" y="-445.7" font-family="Consolas" font-size="11.00">+ get_plane_type()</text>
<text text-anchor="start" x="263.02" y="-433.7" font-family="Consolas" font-size="11.00">+ initialize_base()</text>
<text text-anchor="start" x="263.02" y="-421.7" font-family="Consolas" font-size="11.00">and 72 more...</text>
</a>
</g>
</g>
<!-- Node6&#45;&gt;Node5 -->
<g id="edge5" class="edge">
<title>Node6&#45;&gt;Node5</title>
<path fill="none" stroke="midnightblue" d="M315.68,-404.49C313.86,-394.63 312.1,-385.15 310.53,-376.67"/>
<polygon fill="none" stroke="midnightblue" points="312.26,-405.25 317.53,-414.44 319.15,-403.97 312.26,-405.25"/>
</g>
<!-- Node7&#45;&gt;Node6 -->
<g id="edge6" class="edge">
<title>Node7&#45;&gt;Node6</title>
<path fill="none" stroke="darkgreen" d="M649.04,-745.97C580.75,-693.85 481.99,-618.45 413.31,-566.03"/>
<polygon fill="none" stroke="darkgreen" points="647.14,-748.93 657.21,-752.21 651.39,-743.36 647.14,-748.93"/>
</g>
<!-- Node8 -->
<g id="node8" class="node">
<title>Node8</title>
<g id="a_node8"><a xlink:title=" ">
<polygon fill="white" stroke="black" points="876.52,-1089.5 876.52,-1149.5 933.52,-1149.5 933.52,-1089.5 876.52,-1089.5"/>
<text text-anchor="middle" x="905.02" y="-1136.7" font-family="Consolas" font-size="11.00">double</text>
<polyline fill="none" stroke="black" points="876.52,-1129.5 933.52,-1129.5 "/>
<text text-anchor="middle" x="905.02" y="-1116.7" font-family="Consolas" font-size="11.00"> </text>
<polyline fill="none" stroke="black" points="876.52,-1109.5 933.52,-1109.5 "/>
<text text-anchor="middle" x="905.02" y="-1096.7" font-family="Consolas" font-size="11.00"> </text>
</a>
</g>
</g>
<!-- Node8&#45;&gt;Node7 -->
<g id="edge7" class="edge">
<title>Node8&#45;&gt;Node7</title>
<path fill="none" stroke="#404040" d="M904.01,-1089.2C902.06,-1045.13 896.7,-964.26 883.02,-939 865.75,-907.09 837.32,-879.67 809.44,-858.25"/>
<polygon fill="none" stroke="#404040" points="809.24,-858.1 802.03,-857.72 799.62,-850.92 806.82,-851.3 809.24,-858.1"/>
<text text-anchor="middle" x="982.02" y="-1014.2" font-family="Consolas" font-size="11.00"> +characteristic_length</text>
<text text-anchor="middle" x="982.02" y="-1002.2" font-family="Consolas" font-size="11.00">+density</text>
<text text-anchor="middle" x="982.02" y="-990.2" font-family="Consolas" font-size="11.00">+tolerance</text>
</g>
<!-- Node9 -->
<g id="node9" class="node">
<title>Node9</title>
<g id="a_node9"><a xlink:title=" ">
<polygon fill="white" stroke="black" points="1015.02,-1089.5 1015.02,-1149.5 1153.02,-1149.5 1153.02,-1089.5 1015.02,-1089.5"/>
<text text-anchor="middle" x="1084.02" y="-1136.7" font-family="Consolas" font-size="11.00">const MaterialType</text>
<polyline fill="none" stroke="black" points="1015.02,-1129.5 1153.02,-1129.5 "/>
<text text-anchor="middle" x="1084.02" y="-1116.7" font-family="Consolas" font-size="11.00"> </text>
<polyline fill="none" stroke="black" points="1015.02,-1109.5 1153.02,-1109.5 "/>
<text text-anchor="middle" x="1084.02" y="-1096.7" font-family="Consolas" font-size="11.00"> </text>
</a>
</g>
</g>
<!-- Node9&#45;&gt;Node7 -->
<g id="edge8" class="edge">
<title>Node9&#45;&gt;Node7</title>
<path fill="none" stroke="#404040" d="M1088.87,-1089.33C1093.59,-1050.75 1095.77,-982.55 1062.02,-939 1001.98,-861.54 889.75,-829.63 811.82,-816.54"/>
<polygon fill="none" stroke="#404040" points="811.47,-816.48 804.92,-819.49 799.62,-814.59 806.18,-811.59 811.47,-816.48"/>
<text text-anchor="middle" x="1142.02" y="-1002.2" font-family="Consolas" font-size="11.00"> +material_type</text>
</g>
<!-- Node10 -->
<g id="node10" class="node">
<title>Node10</title>
<g id="a_node10"><a xlink:title=" ">
<polygon fill="white" stroke="black" points="740.02,-1089.5 740.02,-1149.5 858.02,-1149.5 858.02,-1089.5 740.02,-1089.5"/>
<text text-anchor="middle" x="799.02" y="-1136.7" font-family="Consolas" font-size="11.00">const PlaneType</text>
<polyline fill="none" stroke="black" points="740.02,-1129.5 858.02,-1129.5 "/>
<text text-anchor="middle" x="799.02" y="-1116.7" font-family="Consolas" font-size="11.00"> </text>
<polyline fill="none" stroke="black" points="740.02,-1109.5 858.02,-1109.5 "/>
<text text-anchor="middle" x="799.02" y="-1096.7" font-family="Consolas" font-size="11.00"> </text>
</a>
</g>
</g>
<!-- Node10&#45;&gt;Node7 -->
<g id="edge9" class="edge">
<title>Node10&#45;&gt;Node7</title>
<path fill="none" stroke="#404040" d="M797.88,-1089.5C795.97,-1053.67 790.94,-991.07 778.02,-939 772.47,-916.64 764.11,-892.96 755.76,-871.94"/>
<polygon fill="none" stroke="#404040" points="755.66,-871.68 749.69,-867.63 751.14,-860.56 757.1,-864.62 755.66,-871.68"/>
<text text-anchor="middle" x="838.02" y="-1002.2" font-family="Consolas" font-size="11.00"> +plane_type</text>
</g>
<!-- Node11 -->
<g id="node11" class="node">
<title>Node11</title>
<g id="a_node11"><a xlink:title=" ">
<polygon fill="white" stroke="black" points="536.52,-1089.5 536.52,-1149.5 573.52,-1149.5 573.52,-1089.5 536.52,-1089.5"/>
<text text-anchor="middle" x="555.02" y="-1136.7" font-family="Consolas" font-size="11.00">mat</text>
<polyline fill="none" stroke="black" points="536.52,-1129.5 573.52,-1129.5 "/>
<text text-anchor="middle" x="555.02" y="-1116.7" font-family="Consolas" font-size="11.00"> </text>
<polyline fill="none" stroke="black" points="536.52,-1109.5 573.52,-1109.5 "/>
<text text-anchor="middle" x="555.02" y="-1096.7" font-family="Consolas" font-size="11.00"> </text>
</a>
</g>
</g>
<!-- Node11&#45;&gt;Node7 -->
<g id="edge11" class="edge">
<title>Node11&#45;&gt;Node7</title>
<path fill="none" stroke="#404040" d="M573.8,-1112.4C592.07,-1105.43 619.05,-1092.17 633.02,-1071 665.67,-1021.53 632.78,-995.06 652.02,-939 660.01,-915.71 672.2,-891.86 684.44,-870.98"/>
<polygon fill="none" stroke="#404040" points="684.45,-870.95 684.11,-863.75 690.63,-860.66 690.97,-867.87 684.45,-870.95"/>
<text text-anchor="middle" x="713.02" y="-1050.2" font-family="Consolas" font-size="11.00"> +current_damping</text>
<text text-anchor="middle" x="713.02" y="-1038.2" font-family="Consolas" font-size="11.00">+current_inertial</text>
<text text-anchor="middle" x="713.02" y="-1026.2" font-family="Consolas" font-size="11.00">+current_stiffness</text>
<text text-anchor="middle" x="713.02" y="-1014.2" font-family="Consolas" font-size="11.00">+initial_damping</text>
<text text-anchor="middle" x="713.02" y="-1002.2" font-family="Consolas" font-size="11.00">+initial_inertial</text>
<text text-anchor="middle" x="713.02" y="-990.2" font-family="Consolas" font-size="11.00">+initial_stiffness</text>
<text text-anchor="middle" x="713.02" y="-978.2" font-family="Consolas" font-size="11.00">+trial_damping</text>
<text text-anchor="middle" x="713.02" y="-966.2" font-family="Consolas" font-size="11.00">+trial_inertial</text>
<text text-anchor="middle" x="713.02" y="-954.2" font-family="Consolas" font-size="11.00">+trial_stiffness</text>
</g>
<!-- Node11&#45;&gt;Node12 -->
<g id="edge14" class="edge">
<title>Node11&#45;&gt;Node12</title>
<path fill="none" stroke="#404040" d="M536.16,-1115.31C512.67,-1110.28 473.17,-1098.13 453.02,-1071 417.67,-1023.42 476.35,-980.48 434.02,-939 387.32,-893.24 343.9,-954.93 288.02,-921 260.07,-904.03 239.72,-872.8 226.83,-847.39"/>
<polygon fill="none" stroke="#404040" points="226.82,-847.36 220.6,-843.7 221.6,-836.55 227.81,-840.22 226.82,-847.36"/>
<text text-anchor="middle" x="541.02" y="-1014.2" font-family="Consolas" font-size="11.00"> +current_couple_stiffness</text>
<text text-anchor="middle" x="541.02" y="-1002.2" font-family="Consolas" font-size="11.00">+initial_couple_stiffness</text>
<text text-anchor="middle" x="541.02" y="-990.2" font-family="Consolas" font-size="11.00">+trial_couple_stiffness</text>
</g>
<!-- Node12&#45;&gt;Node6 -->
<g id="edge12" class="edge">
<title>Node12&#45;&gt;Node6</title>
<path fill="none" stroke="darkgreen" d="M225.87,-767.16C243.75,-723.91 273.42,-652.11 297.17,-594.65"/>
<polygon fill="none" stroke="darkgreen" points="222.61,-765.88 222.02,-776.46 229.08,-768.56 222.61,-765.88"/>
</g>
<!-- Node13 -->
<g id="node13" class="node">
<title>Node13</title>
<g id="a_node13"><a xlink:href="../../d0/d57/class_tag.html" target="_top" xlink:title="A base Tag class.">
<polygon fill="white" stroke="black" points="297.52,-692.5 297.52,-920.5 408.52,-920.5 408.52,-692.5 297.52,-692.5"/>
<text text-anchor="middle" x="353.02" y="-907.7" font-family="Consolas" font-size="11.00">Tag</text>
<polyline fill="none" stroke="black" points="297.52,-900.5 408.52,-900.5 "/>
<text text-anchor="middle" x="353.02" y="-887.7" font-family="Consolas" font-size="11.00"> </text>
<polyline fill="none" stroke="black" points="297.52,-880.5 408.52,-880.5 "/>
<text text-anchor="start" x="305.52" y="-867.7" font-family="Consolas" font-size="11.00">+ Tag()</text>
<text text-anchor="start" x="305.52" y="-855.7" font-family="Consolas" font-size="11.00">+ Tag()</text>
<text text-anchor="start" x="305.52" y="-843.7" font-family="Consolas" font-size="11.00">+ Tag()</text>
<text text-anchor="start" x="305.52" y="-831.7" font-family="Consolas" font-size="11.00">+ operator=()</text>
<text text-anchor="start" x="305.52" y="-819.7" font-family="Consolas" font-size="11.00">+ operator=()</text>
<text text-anchor="start" x="305.52" y="-807.7" font-family="Consolas" font-size="11.00">+ ~Tag()</text>
<text text-anchor="start" x="305.52" y="-795.7" font-family="Consolas" font-size="11.00">+ set_tag()</text>
<text text-anchor="start" x="305.52" y="-783.7" font-family="Consolas" font-size="11.00">+ get_tag()</text>
<text text-anchor="start" x="305.52" y="-771.7" font-family="Consolas" font-size="11.00">+ enable()</text>
<text text-anchor="start" x="305.52" y="-759.7" font-family="Consolas" font-size="11.00">+ disable()</text>
<text text-anchor="start" x="305.52" y="-747.7" font-family="Consolas" font-size="11.00">+ guard()</text>
<text text-anchor="start" x="305.52" y="-735.7" font-family="Consolas" font-size="11.00">+ unguard()</text>
<text text-anchor="start" x="305.52" y="-723.7" font-family="Consolas" font-size="11.00">+ is_active()</text>
<text text-anchor="start" x="305.52" y="-711.7" font-family="Consolas" font-size="11.00">+ is_guarded()</text>
<text text-anchor="start" x="305.52" y="-699.7" font-family="Consolas" font-size="11.00">+ print()</text>
</a>
</g>
</g>
<!-- Node13&#45;&gt;Node6 -->
<g id="edge15" class="edge">
<title>Node13&#45;&gt;Node6</title>
<path fill="none" stroke="midnightblue" d="M345.19,-681.83C343.34,-652.64 341.4,-622.09 339.67,-594.77"/>
<polygon fill="none" stroke="midnightblue" points="341.71,-682.32 345.84,-692.08 348.7,-681.88 341.71,-682.32"/>
</g>
</g>
</svg>
