<svg xmlns="http://www.w3.org/2000/svg" xmlns:xlink="http://www.w3.org/1999/xlink" width="760pt" height="376pt" viewBox="0 0 760.15 376"><g class="graph" transform="translate(4 372)"><title>Element/Utility/MatrixModifier.hpp</title><g class="node"><title>Node1</title><a>
<path fill="#999" stroke="#666" d="M678.5-368h-246v20h246z"/>
<text x="555.5" y="-355.2" font-family="Consolas" font-size="11" text-anchor="middle">Element/Utility/MatrixModifier.hpp</text>
</a></g><g class="node"><title>Node2</title><a xlink:href="../../d0/db8/_element_8h.html" target="_top">
<path fill="#fff" stroke="#666" d="M426-312H295v20h131z"/>
<text x="360.5" y="-299.2" font-family="Consolas" font-size="11" text-anchor="middle">Element/Element.h</text>
</a></g><g class="edge"><title>Node1-&gt;Node2</title><a>
<path fill="none" stroke="#63b8ff" d="M522.86-347.96c-32.9 9.11-83.84 23.22-119.87 33.19"/>
<path fill="#63b8ff" stroke="#63b8ff" d="m403.82-311.36-10.57-.71 8.7-6.04z"/>
</a></g><g class="node"><title>Node4</title><a xlink:href="../../d8/d8f/suan_pan_8h.html" target="_top">
<path fill="#fff" stroke="#666" d="M352-76h-77v20h77z"/>
<text x="313.5" y="-63.2" font-family="Consolas" font-size="11" text-anchor="middle">suanPan.h</text>
</a></g><g class="edge"><title>Node1-&gt;Node4</title><a>
<path fill="none" stroke="#63b8ff" d="M619.35-347.98C676.22-335.92 750.5-308.41 750.5-247v64c0 32.55 6.59 49.66-18 71-27.48 23.85-265.23 37.8-369.89 42.84"/>
<path fill="#63b8ff" stroke="#63b8ff" d="m362.46-65.65-10.15-3.02 9.82-3.97z"/>
</a></g><g class="node"><title>Node3</title><a xlink:href="../../d1/d48/_distributed_8h.html" target="_top">
<path fill="#fff" stroke="#666" d="M252.5-256h-158v20h158z"/>
<text x="173.5" y="-243.2" font-family="Consolas" font-size="11" text-anchor="middle">Element/Distributed.h</text>
</a></g><g class="edge"><title>Node2-&gt;Node3</title><a>
<path fill="none" stroke="#63b8ff" d="M329.2-291.96c-31.42 9.07-79.98 23.1-114.51 33.07"/>
<path fill="#63b8ff" stroke="#63b8ff" d="m215.48-255.48-10.58-.59 8.64-6.13z"/>
</a></g><g class="node"><title>Node11</title><a xlink:href="../../d9/d82/_element_base_8h.html" target="_top">
<path fill="#fff" stroke="#666" d="M439.5-256h-158v20h158z"/>
<text x="360.5" y="-243.2" font-family="Consolas" font-size="11" text-anchor="middle">Element/ElementBase.h</text>
</a></g><g class="edge"><title>Node2-&gt;Node11</title><a>
<path fill="none" stroke="#63b8ff" d="M360.5-291.59v25.02"/>
<path fill="#63b8ff" stroke="#63b8ff" d="m364-266.3-3.5 10-3.5-10z"/>
</a></g><g class="edge"><title>Node3-&gt;Node4</title><a>
<path fill="none" stroke="#63b8ff" d="M171.17-235.74c-5.31 23.49-15.75 86.18 13.33 123.74 19.01 24.55 52.32 35.76 80.32 40.85"/>
<path fill="#63b8ff" stroke="#63b8ff" d="m265.55-74.57 9.32 5.04-10.43 1.87z"/>
</a></g><g class="node"><title>Node5</title><a>
<path fill="#e0e0e0" stroke="#999" d="M71-20H0V0h71z"/>
<text x="35.5" y="-7.2" font-family="Consolas" font-size="11" text-anchor="middle">iostream</text>
</a></g><g class="edge"><title>Node4-&gt;Node5</title><a>
<path fill="none" stroke="#63b8ff" d="M274.96-57.73c-44.4 8.4-119.84 22.78-193.95 37.45"/>
<path fill="#63b8ff" stroke="#63b8ff" d="m81.52-16.82-10.49-1.49 9.13-5.37z"/>
</a></g><g class="node"><title>Node6</title><a>
<path fill="#e0e0e0" stroke="#999" d="M200-20H89V0h111z"/>
<text x="144.5" y="-7.2" font-family="Consolas" font-size="11" text-anchor="middle">armadillo/arma</text>
</a></g><g class="edge"><title>Node4-&gt;Node6</title><a>
<path fill="none" stroke="#63b8ff" d="M285.21-55.96c-28.15 8.99-71.53 22.85-102.68 32.81"/>
<path fill="#63b8ff" stroke="#63b8ff" d="m183.47-19.78-10.59-.29 8.46-6.38z"/>
</a></g><g class="node"><title>Node7</title><a>
<path fill="#e0e0e0" stroke="#999" d="M302.5-20h-84V0h84z"/>
<text x="260.5" y="-7.2" font-family="Consolas" font-size="11" text-anchor="middle">filesystem</text>
</a></g><g class="edge"><title>Node4-&gt;Node7</title><a>
<path fill="none" stroke="#63b8ff" d="M304.27-55.59c-7.6 7.74-18.56 18.9-27.61 28.12"/>
<path fill="#63b8ff" stroke="#63b8ff" d="m279.13-24.98-9.5 4.68 4.5-9.59z"/>
</a></g><g class="node"><title>Node8</title><a>
<path fill="#e0e0e0" stroke="#999" d="M412-20h-91V0h91z"/>
<text x="366.5" y="-7.2" font-family="Consolas" font-size="11" text-anchor="middle">fmt/color.h</text>
</a></g><g class="edge"><title>Node4-&gt;Node8</title><a>
<path fill="none" stroke="#63b8ff" d="M322.73-55.59c7.6 7.74 18.56 18.9 27.61 28.12"/>
<path fill="#63b8ff" stroke="#63b8ff" d="m352.87-29.89 4.5 9.59-9.5-4.68z"/>
</a></g><g class="node"><title>Node9</title><a>
<path fill="#e0e0e0" stroke="#999" d="M480.5-20h-50V0h50z"/>
<text x="455.5" y="-7.2" font-family="Consolas" font-size="11" text-anchor="middle">mutex</text>
</a></g><g class="edge"><title>Node4-&gt;Node9</title><a>
<path fill="none" stroke="#63b8ff" d="M337.27-55.96c23.24 8.84 58.84 22.38 84.91 32.29"/>
<path fill="#63b8ff" stroke="#63b8ff" d="m423.55-26.89 8.1 6.82-10.59-.28z"/>
</a></g><g class="node"><title>Node10</title><a>
<path fill="#e0e0e0" stroke="#999" d="M556-20h-57V0h57z"/>
<text x="527.5" y="-7.2" font-family="Consolas" font-size="11" text-anchor="middle">memory</text>
</a></g><g class="edge"><title>Node4-&gt;Node10</title><a>
<path fill="none" stroke="#63b8ff" d="m349.32-55.96 139.61 35.23"/>
<path fill="#63b8ff" stroke="#63b8ff" d="m489.93-24.09 8.84 5.84-10.55.95z"/>
</a></g><g class="node"><title>Node12</title><a xlink:href="../../d1/d02/_node_8h.html" target="_top">
<path fill="#fff" stroke="#666" d="M294.5-194h-104v20h104z"/>
<text x="242.5" y="-181.2" font-family="Consolas" font-size="11" text-anchor="middle">Domain/Node.h</text>
</a></g><g class="edge"><title>Node11-&gt;Node12</title><a>
<path fill="none" stroke="#63b8ff" d="M342.58-235.89c-19.52 9.93-50.95 25.91-73.38 37.31"/>
<path fill="#63b8ff" stroke="#63b8ff" d="M270.7-195.41 260.2-194l7.33-7.65z"/>
</a></g><g class="node"><title>Node13</title><a xlink:href="../../d2/d4a/_tag_8h.html" target="_top">
<path fill="#fff" stroke="#666" d="M291.5-132h-98v20h98z"/>
<text x="242.5" y="-119.2" font-family="Consolas" font-size="11" text-anchor="middle">Domain/Tag.h</text>
</a></g><g class="edge"><title>Node11-&gt;Node13</title><a>
<path fill="none" stroke="#63b8ff" d="M354.96-235.78c-9.4 15.18-29.57 45.92-51.46 67.78-11.35 11.34-25.73 22.08-37.67 30.23"/>
<path fill="#63b8ff" stroke="#63b8ff" d="m267.52-134.7-10.26 2.62 6.39-8.45z"/>
</a></g><g class="node"><title>Node14</title><a xlink:href="../../d6/d94/_mapping_d_o_f_8h.html" target="_top">
<path fill="#fff" stroke="#666" d="M461.5-132h-152v20h152z"/>
<text x="385.5" y="-119.2" font-family="Consolas" font-size="11" text-anchor="middle">Element/MappingDOF.h</text>
</a></g><g class="edge"><title>Node11-&gt;Node14</title><a>
<path fill="none" stroke="#63b8ff" d="M362.38-235.83c4.05 19.78 13.69 66.83 19.16 93.51"/>
<path fill="#63b8ff" stroke="#63b8ff" d="m385.02-142.78-1.42 10.5-5.44-9.09z"/>
</a></g><g class="node"><title>Node15</title><a xlink:href="../../d9/dc0/vtk_base_8h.html" target="_top">
<path fill="#fff" stroke="#666" d="M546.5-200h-158v32h158z"/>
<text x="396.5" y="-187.2" font-family="Consolas" font-size="11">Element/Visualisation</text>
<text x="467.5" y="-175.2" font-family="Consolas" font-size="11" text-anchor="middle">/vtkBase.h</text>
</a></g><g class="edge"><title>Node11-&gt;Node15</title><a>
<path fill="none" stroke="#63b8ff" d="M376.75-235.89c14.57 8.17 36.46 20.45 55.09 30.89"/>
<path fill="#63b8ff" stroke="#63b8ff" d="m433.66-207.99 7.01 7.95-10.43-1.84z"/>
</a></g><g class="node"><title>Node16</title><a xlink:href="../../d4/d0f/_output_type_8h.html" target="_top">
<path fill="#fff" stroke="#666" d="M722.5-194h-158v20h158z"/>
<text x="643.5" y="-181.2" font-family="Consolas" font-size="11" text-anchor="middle">Recorder/OutputType.h</text>
</a></g><g class="edge"><title>Node11-&gt;Node16</title><a>
<path fill="none" stroke="#63b8ff" d="M403.17-235.95c50.2 10.64 133.52 28.31 187.68 39.79"/>
<path fill="#63b8ff" stroke="#63b8ff" d="m591.89-199.52 9.05 5.5-10.51 1.35z"/>
</a></g><g class="edge"><title>Node12-&gt;Node13</title><a>
<path fill="none" stroke="#63b8ff" d="M242.5-173.89v31.66"/>
<path fill="#63b8ff" stroke="#63b8ff" d="m246-142.2-3.5 10-3.5-10z"/>
</a></g><g class="edge"><title>Node13-&gt;Node4</title><a>
<path fill="none" stroke="#63b8ff" d="M254.54-111.84c10.68 8.12 26.47 20.13 39.02 29.68"/>
<path fill="#63b8ff" stroke="#63b8ff" d="m295.79-84.86 5.84 8.83-10.07-3.26z"/>
</a></g><g class="edge"><title>Node14-&gt;Node4</title><a>
<path fill="none" stroke="#63b8ff" d="M373.29-111.84c-10.83 8.12-26.84 20.13-39.57 29.68"/>
<path fill="#63b8ff" stroke="#63b8ff" d="m335.63-79.23-10.1 3.2 5.9-8.8z"/>
</a></g><g class="node"><title>Node17</title><a>
<path fill="#e0e0e0" stroke="#999" d="M723-132H538v20h185z"/>
<text x="630.5" y="-119.2" font-family="Consolas" font-size="11" text-anchor="middle">magic_enum/magic_enum.hpp</text>
</a></g><g class="edge"><title>Node16-&gt;Node17</title><a>
<path fill="none" stroke="#63b8ff" d="M641.53-173.89c-1.82 8.37-4.56 21.05-6.86 31.66"/>
<path fill="#63b8ff" stroke="#63b8ff" d="m638.03-141.23-5.54 9.03-1.3-10.51z"/>
</a></g></g></svg>