<?xml version="1.0" encoding="UTF-8" standalone="no"?>
<!DOCTYPE svg PUBLIC "-//W3C//DTD SVG 1.1//EN"
 "http://www.w3.org/Graphics/SVG/1.1/DTD/svg11.dtd">
<!-- Generated by graphviz version 2.43.0 (0)
 -->
<!-- Title: Material::clear_status Pages: 1 -->
<svg width="388pt" height="544pt"
 viewBox="0.00 0.00 388.00 544.00" xmlns="http://www.w3.org/2000/svg" xmlns:xlink="http://www.w3.org/1999/xlink">
<g id="graph0" class="graph" transform="scale(1 1) rotate(0) translate(4 540)">
<title>Material::clear_status</title>
<!-- Node1 -->
<g id="Node000001" class="node">
<title>Node1</title>
<g id="a_Node000001"><a xlink:title=" ">
<polygon fill="#999999" stroke="#666666" points="380,-284 215,-284 215,-264 380,-264 380,-284"/>
<text text-anchor="middle" x="297.5" y="-271.2" font-family="Consolas" font-size="11.00">Material::clear_status</text>
</a>
</g>
</g>
<!-- Node2 -->
<g id="Node000002" class="node">
<title>Node2</title>
<g id="a_Node000002"><a xlink:href="../../d9/d46/class_kelvin.html#a321455b93179e365754cb46f9baeda11" target="_top" xlink:title=" ">
<polygon fill="white" stroke="#666666" points="165.5,-536 13.5,-536 13.5,-516 165.5,-516 165.5,-536"/>
<text text-anchor="middle" x="89.5" y="-523.2" font-family="Consolas" font-size="11.00">Kelvin::clear_status</text>
</a>
</g>
</g>
<!-- Node1&#45;&gt;Node2 -->
<g id="edge1_Node000001_Node000002" class="edge">
<title>Node1&#45;&gt;Node2</title>
<g id="a_edge1_Node000001_Node000002"><a xlink:title=" ">
<path fill="none" stroke="#63b8ff" d="M292.53,-293.98C282.38,-339.52 251.05,-451.36 179,-507 174.4,-510.55 169.28,-513.48 163.88,-515.88"/>
<polygon fill="#63b8ff" stroke="#63b8ff" points="295.97,-294.65 294.62,-284.14 289.12,-293.19 295.97,-294.65"/>
</a>
</g>
</g>
<!-- Node3 -->
<g id="Node000003" class="node">
<title>Node3</title>
<g id="a_Node000003"><a xlink:href="../../db/d83/class_maxwell.html#a84b540f7c569ebea6b12d7daf664650d" target="_top" xlink:title=" ">
<polygon fill="white" stroke="#666666" points="168.5,-498 10.5,-498 10.5,-478 168.5,-478 168.5,-498"/>
<text text-anchor="middle" x="89.5" y="-485.2" font-family="Consolas" font-size="11.00">Maxwell::clear_status</text>
</a>
</g>
</g>
<!-- Node1&#45;&gt;Node3 -->
<g id="edge2_Node000001_Node000003" class="edge">
<title>Node1&#45;&gt;Node3</title>
<g id="a_edge2_Node000001_Node000003"><a xlink:title=" ">
<path fill="none" stroke="#63b8ff" d="M290.56,-293.68C277.44,-333.57 242.06,-423.98 179,-469 174.01,-472.56 168.49,-475.48 162.71,-477.86"/>
<polygon fill="#63b8ff" stroke="#63b8ff" points="293.92,-294.65 293.61,-284.06 287.25,-292.53 293.92,-294.65"/>
</a>
</g>
</g>
<!-- Node4 -->
<g id="Node000004" class="node">
<title>Node4</title>
<g id="a_Node000004"><a xlink:href="../../db/d80/class_axisymmetric.html#a61c81ef90c5680c3b256a15f024044fc" target="_top" xlink:title=" ">
<polygon fill="white" stroke="#666666" points="162,-460 17,-460 17,-428 162,-428 162,-460"/>
<text text-anchor="start" x="25" y="-447.2" font-family="Consolas" font-size="11.00">Axisymmetric::clear</text>
<text text-anchor="middle" x="89.5" y="-435.2" font-family="Consolas" font-size="11.00">_status</text>
</a>
</g>
</g>
<!-- Node1&#45;&gt;Node4 -->
<g id="edge3_Node000001_Node000004" class="edge">
<title>Node1&#45;&gt;Node4</title>
<g id="a_edge3_Node000001_Node000004"><a xlink:title=" ">
<path fill="none" stroke="#63b8ff" d="M286.2,-293.22C268.5,-324.4 229.29,-385.87 179,-419 173.8,-422.43 168.13,-425.39 162.26,-427.95"/>
<polygon fill="#63b8ff" stroke="#63b8ff" points="289.4,-294.67 291.18,-284.23 283.27,-291.28 289.4,-294.67"/>
</a>
</g>
</g>
<!-- Node5 -->
<g id="Node000005" class="node">
<title>Node5</title>
<g id="a_Node000005"><a xlink:href="../../d3/d16/class_plane_strain.html#ae478317ad70dcfdedda2387884cf1d79" target="_top" xlink:title=" ">
<polygon fill="white" stroke="#666666" points="158.5,-410 20.5,-410 20.5,-378 158.5,-378 158.5,-410"/>
<text text-anchor="start" x="28.5" y="-397.2" font-family="Consolas" font-size="11.00">PlaneStrain::clear</text>
<text text-anchor="middle" x="89.5" y="-385.2" font-family="Consolas" font-size="11.00">_status</text>
</a>
</g>
</g>
<!-- Node1&#45;&gt;Node5 -->
<g id="edge4_Node000001_Node000005" class="edge">
<title>Node1&#45;&gt;Node5</title>
<g id="a_edge4_Node000001_Node000005"><a xlink:title=" ">
<path fill="none" stroke="#63b8ff" d="M279.75,-291.31C258.29,-312.55 219.05,-348.27 179,-369 172.48,-372.38 165.44,-375.35 158.29,-377.95"/>
<polygon fill="#63b8ff" stroke="#63b8ff" points="282.26,-293.76 286.82,-284.2 277.29,-288.82 282.26,-293.76"/>
</a>
</g>
</g>
<!-- Node6 -->
<g id="Node000006" class="node">
<title>Node6</title>
<g id="a_Node000006"><a xlink:href="../../da/dba/class_rebar2_d.html#ab28c133bbc1a7070f734d03cccaab978" target="_top" xlink:title=" ">
<polygon fill="white" stroke="#666666" points="168.5,-360 10.5,-360 10.5,-340 168.5,-340 168.5,-360"/>
<text text-anchor="middle" x="89.5" y="-347.2" font-family="Consolas" font-size="11.00">Rebar2D::clear_status</text>
</a>
</g>
</g>
<!-- Node1&#45;&gt;Node6 -->
<g id="edge5_Node000001_Node000006" class="edge">
<title>Node1&#45;&gt;Node6</title>
<g id="a_edge5_Node000001_Node000006"><a xlink:title=" ">
<path fill="none" stroke="#63b8ff" d="M270.24,-289.01C246.92,-301.78 211.6,-319.78 179,-331 168.9,-334.48 157.92,-337.45 147.24,-339.94"/>
<polygon fill="#63b8ff" stroke="#63b8ff" points="272.11,-291.98 279.15,-284.06 268.71,-285.86 272.11,-291.98"/>
</a>
</g>
</g>
<!-- Node7 -->
<g id="Node000007" class="node">
<title>Node7</title>
<g id="a_Node000007"><a xlink:href="../../df/dee/class_rotation2_d.html#a0ca8e05f7b7a81b6e1288e078ed1dec9" target="_top" xlink:title=" ">
<polygon fill="white" stroke="#666666" points="179,-322 0,-322 0,-302 179,-302 179,-322"/>
<text text-anchor="middle" x="89.5" y="-309.2" font-family="Consolas" font-size="11.00">Rotation2D::clear_status</text>
</a>
</g>
</g>
<!-- Node1&#45;&gt;Node7 -->
<g id="edge6_Node000001_Node000007" class="edge">
<title>Node1&#45;&gt;Node7</title>
<g id="a_edge6_Node000001_Node000007"><a xlink:title=" ">
<path fill="none" stroke="#63b8ff" d="M232.01,-285.9C204.02,-291.06 171.59,-297.04 144.84,-301.98"/>
<polygon fill="#63b8ff" stroke="#63b8ff" points="232.91,-289.29 242.11,-284.03 231.64,-282.41 232.91,-289.29"/>
</a>
</g>
</g>
<!-- Node8 -->
<g id="Node000008" class="node">
<title>Node8</title>
<g id="a_Node000008"><a xlink:href="../../d5/dbd/class_rebar3_d.html#a8cf0f71af77e59371056d4e38ad0f3b2" target="_top" xlink:title=" ">
<polygon fill="white" stroke="#666666" points="168.5,-284 10.5,-284 10.5,-264 168.5,-264 168.5,-284"/>
<text text-anchor="middle" x="89.5" y="-271.2" font-family="Consolas" font-size="11.00">Rebar3D::clear_status</text>
</a>
</g>
</g>
<!-- Node1&#45;&gt;Node8 -->
<g id="edge7_Node000001_Node000008" class="edge">
<title>Node1&#45;&gt;Node8</title>
<g id="a_edge7_Node000001_Node000008"><a xlink:title=" ">
<path fill="none" stroke="#63b8ff" d="M204.76,-274C192.74,-274 180.52,-274 168.76,-274"/>
<polygon fill="#63b8ff" stroke="#63b8ff" points="204.79,-277.5 214.79,-274 204.79,-270.5 204.79,-277.5"/>
</a>
</g>
</g>
<!-- Node9 -->
<g id="Node000009" class="node">
<title>Node9</title>
<g id="a_Node000009"><a xlink:href="../../de/d68/class_isotropic_damage.html#a094cadd6a90d3113a77b8f0995da0ad7" target="_top" xlink:title=" ">
<polygon fill="white" stroke="#666666" points="172,-246 7,-246 7,-214 172,-214 172,-246"/>
<text text-anchor="start" x="15" y="-233.2" font-family="Consolas" font-size="11.00">IsotropicDamage::clear</text>
<text text-anchor="middle" x="89.5" y="-221.2" font-family="Consolas" font-size="11.00">_status</text>
</a>
</g>
</g>
<!-- Node1&#45;&gt;Node9 -->
<g id="edge8_Node000001_Node000009" class="edge">
<title>Node1&#45;&gt;Node9</title>
<g id="a_edge8_Node000001_Node000009"><a xlink:title=" ">
<path fill="none" stroke="#63b8ff" d="M239.61,-261.85C216.72,-256.96 190.01,-251.26 165.57,-246.03"/>
<polygon fill="#63b8ff" stroke="#63b8ff" points="238.99,-265.29 249.5,-263.96 240.45,-258.45 238.99,-265.29"/>
</a>
</g>
</g>
<!-- Node10 -->
<g id="Node000010" class="node">
<title>Node10</title>
<g id="a_Node000010"><a xlink:href="../../d8/dff/class_rotation3_d.html#a0e1d3dbe1464701e299bcec905f1c3a1" target="_top" xlink:title=" ">
<polygon fill="white" stroke="#666666" points="179,-196 0,-196 0,-176 179,-176 179,-196"/>
<text text-anchor="middle" x="89.5" y="-183.2" font-family="Consolas" font-size="11.00">Rotation3D::clear_status</text>
</a>
</g>
</g>
<!-- Node1&#45;&gt;Node10 -->
<g id="edge9_Node000001_Node000010" class="edge">
<title>Node1&#45;&gt;Node10</title>
<g id="a_edge9_Node000001_Node000010"><a xlink:title=" ">
<path fill="none" stroke="#63b8ff" d="M274.49,-258.16C251.66,-242.45 214.42,-218.79 179,-205 169.92,-201.47 160.05,-198.53 150.3,-196.11"/>
<polygon fill="#63b8ff" stroke="#63b8ff" points="272.58,-261.09 282.78,-263.95 276.59,-255.35 272.58,-261.09"/>
</a>
</g>
</g>
<!-- Node11 -->
<g id="Node000011" class="node">
<title>Node11</title>
<g id="a_Node000011"><a xlink:href="../../d7/da6/class_stress_wrapper.html#ad6b64e29256bea75f847a7e88d7c2ec9" target="_top" xlink:title=" ">
<polygon fill="white" stroke="#666666" points="165.5,-158 13.5,-158 13.5,-126 165.5,-126 165.5,-158"/>
<text text-anchor="start" x="21.5" y="-145.2" font-family="Consolas" font-size="11.00">StressWrapper::clear</text>
<text text-anchor="middle" x="89.5" y="-133.2" font-family="Consolas" font-size="11.00">_status</text>
</a>
</g>
</g>
<!-- Node1&#45;&gt;Node11 -->
<g id="edge10_Node000001_Node000011" class="edge">
<title>Node1&#45;&gt;Node11</title>
<g id="a_edge10_Node000001_Node000011"><a xlink:title=" ">
<path fill="none" stroke="#63b8ff" d="M281.49,-255.87C260.82,-232.05 221.32,-190.5 179,-167 172.86,-163.59 166.21,-160.61 159.42,-158.02"/>
<polygon fill="#63b8ff" stroke="#63b8ff" points="279.08,-258.43 288.22,-263.77 284.41,-253.89 279.08,-258.43"/>
</a>
</g>
</g>
<!-- Node12 -->
<g id="Node000012" class="node">
<title>Node12</title>
<g id="a_Node000012"><a xlink:href="../../d2/dda/class_substepping.html#a62dabb12a6c4d83eb1d0c02271847a0b" target="_top" xlink:title=" ">
<polygon fill="white" stroke="#666666" points="158.5,-108 20.5,-108 20.5,-76 158.5,-76 158.5,-108"/>
<text text-anchor="start" x="28.5" y="-95.2" font-family="Consolas" font-size="11.00">Substepping::clear</text>
<text text-anchor="middle" x="89.5" y="-83.2" font-family="Consolas" font-size="11.00">_status</text>
</a>
</g>
</g>
<!-- Node1&#45;&gt;Node12 -->
<g id="edge11_Node000001_Node000012" class="edge">
<title>Node1&#45;&gt;Node12</title>
<g id="a_edge11_Node000001_Node000012"><a xlink:title=" ">
<path fill="none" stroke="#63b8ff" d="M287.33,-254.59C270.6,-221.28 231.9,-153.33 179,-117 172.81,-112.75 165.92,-109.22 158.78,-106.29"/>
<polygon fill="#63b8ff" stroke="#63b8ff" points="284.27,-256.3 291.81,-263.74 290.56,-253.22 284.27,-256.3"/>
</a>
</g>
</g>
<!-- Node13 -->
<g id="Node000013" class="node">
<title>Node13</title>
<g id="a_Node000013"><a xlink:href="../../d4/d9c/class_o_s146_s.html#a1d2963e753b24c5d10636ffe9c44885a" target="_top" xlink:title=" ">
<polygon fill="white" stroke="#666666" points="165.5,-58 13.5,-58 13.5,-38 165.5,-38 165.5,-58"/>
<text text-anchor="middle" x="89.5" y="-45.2" font-family="Consolas" font-size="11.00">OS146S::clear_status</text>
</a>
</g>
</g>
<!-- Node1&#45;&gt;Node13 -->
<g id="edge12_Node000001_Node000013" class="edge">
<title>Node1&#45;&gt;Node13</title>
<g id="a_edge12_Node000001_Node000013"><a xlink:title=" ">
<path fill="none" stroke="#63b8ff" d="M291.18,-253.99C278.96,-212.14 244.76,-115.25 179,-67 174.19,-63.47 168.85,-60.56 163.25,-58.18"/>
<polygon fill="#63b8ff" stroke="#63b8ff" points="287.87,-255.13 293.94,-263.82 294.61,-253.24 287.87,-255.13"/>
</a>
</g>
</g>
<!-- Node14 -->
<g id="Node000014" class="node">
<title>Node14</title>
<g id="a_Node000014"><a xlink:href="../../d0/d55/class_section1_d.html#a18a0fa093518b55236a88adf9c2bb32e" target="_top" xlink:title=" ">
<polygon fill="white" stroke="#666666" points="175.5,-20 3.5,-20 3.5,0 175.5,0 175.5,-20"/>
<text text-anchor="middle" x="89.5" y="-7.2" font-family="Consolas" font-size="11.00">Section1D::clear_status</text>
</a>
</g>
</g>
<!-- Node1&#45;&gt;Node14 -->
<g id="edge13_Node000001_Node000014" class="edge">
<title>Node1&#45;&gt;Node14</title>
<g id="a_edge13_Node000001_Node000014"><a xlink:title=" ">
<path fill="none" stroke="#63b8ff" d="M293.05,-253.97C283.81,-206.76 253.94,-88.07 179,-29 174.43,-25.4 169.34,-22.44 163.96,-20.02"/>
<polygon fill="#63b8ff" stroke="#63b8ff" points="289.62,-254.68 294.89,-263.88 296.5,-253.41 289.62,-254.68"/>
</a>
</g>
</g>
</g>
</svg>
