<svg xmlns="http://www.w3.org/2000/svg" xmlns:xlink="http://www.w3.org/1999/xlink" xml:space="preserve" id="main" onload="init(evt)"><style>.edge,.node,[data-mouse-over-selected=false]{opacity:.7}.edge.selected,.node.selected,[data-mouse-over-selected=true]{opacity:1}.edge:hover path{stroke:red}.edge:hover polygon{stroke:red;fill:red}</style><defs><g id="zoomPlus"><use xlink:href="#rim" fill="#404040"><set attributeName="fill" begin="zoomplus.mouseover" end="zoomplus.mouseout" to="#808080"/></use><path fill="none" stroke="#fff" stroke-width="1.5" d="M-4 0h8M0-4v8" pointer-events="none"/></g><g id="zoomMin"><use xlink:href="#rim" fill="#404040"><set attributeName="fill" begin="zoomminus.mouseover" end="zoomminus.mouseout" to="#808080"/></use><path fill="none" stroke="#fff" stroke-width="1.5" d="M-4 0h8" pointer-events="none"/></g><g id="arrowUp" transform="translate(30 24)"><use xlink:href="#rim"/><path fill="none" stroke="#fff" stroke-width="1.5" d="M0-3v7M-2.5-.5 0-3 2.5-.5" pointer-events="none"/></g><g id="arrowRight" transform="rotate(90 3.5 39.5)"><use xlink:href="#rim"/><path fill="none" stroke="#fff" stroke-width="1.5" d="M0-3v7M-2.5-.5 0-3 2.5-.5" pointer-events="none"/></g><g id="arrowDown" transform="matrix(-1 0 0 -1 30 48)"><use xlink:href="#rim"/><path fill="none" stroke="#fff" stroke-width="1.5" d="M0-3v7M-2.5-.5 0-3 2.5-.5" pointer-events="none"/></g><g id="arrowLeft" transform="rotate(-90 26.5 9.5)"><use xlink:href="#rim"/><path fill="none" stroke="#fff" stroke-width="1.5" d="M0-3v7M-2.5-.5 0-3 2.5-.5" pointer-events="none"/></g><circle id="rim" cx="0" cy="0" r="7"/><circle id="rim2" cx="0" cy="0" r="3.5"/><use xlink:href="#rim2" id="resetDef" fill="#404040"><set attributeName="fill" begin="reset.mouseover" end="reset.mouseout" to="#808080"/></use></defs><script type="application/ecmascript">var viewWidth = 657;
var viewHeight = 634;
var sectionId = &apos;dynsection-2&apos;;</script><script xlink:href="../../svg.min.js" type="application/ecmascript"/><svg id="graph" class="graph"><g id="viewport"><title>Constraint::set_multiplier_size</title><g id="Node000001" class="node"><title>Node1</title><a id="a_Node000001">
<path fill="#999" stroke="#666" d="M649-317H423v20h226z"/>
<text x="536" y="-304.2" font-family="Consolas" font-size="11" text-anchor="middle">Constraint::set_multiplier_size</text>
</a></g><g id="Node000002" class="node"><title>Node2</title><a xlink:href="../../dc/dfd/class_fixed_length.html#ab587614e4241807b74aae31500e57795" id="a_Node000002" target="_top">
<path fill="#fff" stroke="#666" d="M366.5-626h-138v32h138z"/>
<text x="236.5" y="-613.2" font-family="Consolas" font-size="11">FixedLength::clear</text>
<text x="297.5" y="-601.2" font-family="Consolas" font-size="11" text-anchor="middle">_status</text>
</a></g><g id="edge1_Node000001_Node000002" class="edge"><title>Node1-&gt;Node2</title><a id="a_edge1_Node000001_Node000002">
<path fill="none" stroke="#63b8ff" d="M530.19-327.01C516.85-378.14 474.45-514.51 387-585c-6.09-4.91-13.09-8.86-20.43-12.03"/>
<path fill="#63b8ff" stroke="#63b8ff" d="m533.62-327.74-.95 10.55-5.84-8.84z"/>
</a></g><g id="Node000004" class="node"><title>Node4</title><a xlink:href="../../d3/d97/class_node_facet.html#a0ef02630e93cb6fdcc30b176534e8b01" id="a_Node000004" target="_top">
<path fill="#fff" stroke="#666" d="M383.5-576h-172v20h172z"/>
<text x="297.5" y="-563.2" font-family="Consolas" font-size="11" text-anchor="middle">NodeFacet::clear_status</text>
</a></g><g id="edge3_Node000001_Node000004" class="edge"><title>Node1-&gt;Node4</title><a id="a_edge3_Node000001_Node000004">
<path fill="none" stroke="#63b8ff" d="M528.86-326.75C513.33-373.22 467.87-489.89 387-547c-5.13-3.63-10.83-6.58-16.77-8.99"/>
<path fill="#63b8ff" stroke="#63b8ff" d="m532.19-327.82-.24 10.59-6.42-8.43z"/>
</a></g><g id="Node000005" class="node"><title>Node5</title><a xlink:href="../../d0/da4/class_node_line.html#a54b23da38a7fd2fb67fa7038ab58686f" id="a_Node000005" target="_top">
<path fill="#fff" stroke="#666" d="M380-538H215v20h165z"/>
<text x="297.5" y="-525.2" font-family="Consolas" font-size="11" text-anchor="middle">NodeLine::clear_status</text>
</a></g><g id="edge4_Node000001_Node000005" class="edge"><title>Node1-&gt;Node5</title><a id="a_edge4_Node000001_Node000005">
<path fill="none" stroke="#63b8ff" d="M526.57-326.65C507.91-367.64 458.98-462.36 387-509c-5.54-3.59-11.64-6.51-17.98-8.89"/>
<path fill="#63b8ff" stroke="#63b8ff" d="m529.8-328 .86 10.56-7.26-7.72z"/>
</a></g><g id="Node000006" class="node"><title>Node6</title><a xlink:href="../../dc/dfd/class_fixed_length.html#a4b73dd3b24b6b0b36a576cc5d5712e60" id="a_Node000006" target="_top">
<path fill="#fff" stroke="#666" d="M370-500H225v32h145z"/>
<text x="233" y="-487.2" font-family="Consolas" font-size="11">FixedLength::commit</text>
<text x="297.5" y="-475.2" font-family="Consolas" font-size="11" text-anchor="middle">_status</text>
</a></g><g id="edge5_Node000001_Node000006" class="edge"><title>Node1-&gt;Node6</title><a id="a_edge5_Node000001_Node000006">
<path fill="none" stroke="#63b8ff" d="M521.96-325.77C498.65-357.93 446.62-423.5 387-459c-5.76-3.43-12.02-6.41-18.44-8.99"/>
<path fill="#63b8ff" stroke="#63b8ff" d="m525.06-327.46 2.95 10.17-8.65-6.11z"/>
</a></g><g id="Node000008" class="node"><title>Node8</title><a xlink:href="../../d3/d97/class_node_facet.html#af3d9c4087e04cf621c1c760e679a89de" id="a_Node000008" target="_top">
<path fill="#fff" stroke="#666" d="M387-450H208v20h179z"/>
<text x="297.5" y="-437.2" font-family="Consolas" font-size="11" text-anchor="middle">NodeFacet::commit_status</text>
</a></g><g id="edge7_Node000001_Node000008" class="edge"><title>Node1-&gt;Node8</title><a id="a_edge7_Node000001_Node000008">
<path fill="none" stroke="#63b8ff" d="M518.16-324.16C492.34-349.42 440.34-396.29 387-421c-7.84-3.63-16.4-6.58-25-8.97"/>
<path fill="#63b8ff" stroke="#63b8ff" d="m520.67-326.59 4.63 9.53-9.56-4.57z"/>
</a></g><g id="Node000009" class="node"><title>Node9</title><a xlink:href="../../d0/da4/class_node_line.html#a3cae06aa3d5b7eee74006cc43d85f067" id="a_Node000009" target="_top">
<path fill="#fff" stroke="#666" d="M383.5-412h-172v20h172z"/>
<text x="297.5" y="-399.2" font-family="Consolas" font-size="11" text-anchor="middle">NodeLine::commit_status</text>
</a></g><g id="edge8_Node000001_Node000009" class="edge"><title>Node1-&gt;Node9</title><a id="a_edge8_Node000001_Node000009">
<path fill="none" stroke="#63b8ff" d="M509.84-322.53C481.1-339.64 432.21-366.86 387-383c-9.77-3.49-20.38-6.44-30.76-8.9"/>
<path fill="#63b8ff" stroke="#63b8ff" d="m512.01-325.31 6.77 8.16-10.38-2.16z"/>
</a></g><g id="Node000010" class="node"><title>Node10</title><a xlink:href="../../d3/d97/class_node_facet.html#a2bf1268cfc6c88b408a212b95751d7e2" id="a_Node000010" target="_top">
<path fill="#fff" stroke="#666" d="M376.5-374h-158v20h158z"/>
<text x="297.5" y="-361.2" font-family="Consolas" font-size="11" text-anchor="middle">NodeFacet::initialize</text>
</a></g><g id="edge9_Node000001_Node000010" class="edge"><title>Node1-&gt;Node10</title><a id="a_edge9_Node000001_Node000010">
<path fill="none" stroke="#63b8ff" d="M487.83-319.62C458.82-327.26 420.84-337.03 387-345c-13-3.06-27.13-6.19-40.19-8.99"/>
<path fill="#63b8ff" stroke="#63b8ff" d="m488.92-322.95 8.77 5.93-10.56.83z"/>
</a></g><g id="Node000011" class="node"><title>Node11</title><a xlink:href="../../d0/da4/class_node_line.html#a7b9b923b15ff547644e9fdfdc39941a0" id="a_Node000011" target="_top">
<path fill="#fff" stroke="#666" d="M373.5-336h-152v20h152z"/>
<text x="297.5" y="-323.2" font-family="Consolas" font-size="11" text-anchor="middle">NodeLine::initialize</text>
</a></g><g id="edge10_Node000001_Node000011" class="edge"><title>Node1-&gt;Node11</title><a id="a_edge10_Node000001_Node000011">
<path fill="none" stroke="#63b8ff" d="M412.79-316.82c-13.33-1.07-26.59-2.13-39.11-3.14"/>
<path fill="#63b8ff" stroke="#63b8ff" d="m413.3-320.29 9.68 4.29-10.24 2.69z"/>
</a></g><g id="Node000012" class="node"><title>Node12</title><a xlink:href="../../dc/dfd/class_fixed_length.html#a3da346f21c85bf1386bf69a502105290" id="a_Node000012" target="_top">
<path fill="#fff" stroke="#666" d="M383.5-298h-172v20h172z"/>
<text x="297.5" y="-285.2" font-family="Consolas" font-size="11" text-anchor="middle">FixedLength::initialize</text>
</a></g><g id="edge11_Node000001_Node000012" class="edge"><title>Node1-&gt;Node12</title><a id="a_edge11_Node000001_Node000012">
<path fill="none" stroke="#63b8ff" d="M412.72-297.18c-9.84.79-19.64 1.58-29.14 2.34"/>
<path fill="#63b8ff" stroke="#63b8ff" d="m412.74-300.69 10.24 2.69-9.68 4.29z"/>
</a></g><g id="Node000013" class="node"><title>Node13</title><a xlink:href="../../d3/d97/class_node_facet.html#a8c1b5c706d3c6fbb223f06a3e598a285" xlink:title="Process and update both stiffness and resistance." id="a_Node000013" target="_top">
<path fill="#fff" stroke="#666" d="M366.5-260h-138v20h138z"/>
<text x="297.5" y="-247.2" font-family="Consolas" font-size="11" text-anchor="middle">NodeFacet::process</text>
</a></g><g id="edge12_Node000001_Node000013" class="edge"><title>Node1-&gt;Node13</title><a id="a_edge12_Node000001_Node000013">
<path fill="none" stroke="#63b8ff" d="M487.83-294.38C458.82-286.74 420.84-276.97 387-269c-13 3.06-27.13 6.19-40.19 8.99"/>
<path fill="#63b8ff" stroke="#63b8ff" d="m487.13-297.81 10.56.83-8.77 5.93z"/>
</a></g><g id="Node000014" class="node"><title>Node14</title><a xlink:href="../../d0/da4/class_node_line.html#a559de6a37ebd6914520728d2d066ff20" xlink:title="Process and update both stiffness and resistance." id="a_Node000014" target="_top">
<path fill="#fff" stroke="#666" d="M363-222H232v20h131z"/>
<text x="297.5" y="-209.2" font-family="Consolas" font-size="11" text-anchor="middle">NodeLine::process</text>
</a></g><g id="edge13_Node000001_Node000014" class="edge"><title>Node1-&gt;Node14</title><a id="a_edge13_Node000001_Node000014">
<path fill="none" stroke="#63b8ff" d="M509.84-291.47C481.1-274.36 432.21-247.14 387-231c-9.77 3.49-20.38 6.44-30.76 8.9"/>
<path fill="#63b8ff" stroke="#63b8ff" d="m508.4-294.69 10.38-2.16-6.77 8.16z"/>
</a></g><g id="Node000015" class="node"><title>Node15</title><a xlink:href="../../dc/dfd/class_fixed_length.html#a1db0ab9128f9297f32259446369f0fa9" xlink:title="Process and update both stiffness and resistance." id="a_Node000015" target="_top">
<path fill="#fff" stroke="#666" d="M373.5-184h-152v20h152z"/>
<text x="297.5" y="-171.2" font-family="Consolas" font-size="11" text-anchor="middle">FixedLength::process</text>
</a></g><g id="edge14_Node000001_Node000015" class="edge"><title>Node1-&gt;Node15</title><a id="a_edge14_Node000001_Node000015">
<path fill="none" stroke="#63b8ff" d="M518.16-289.84C492.34-264.58 440.34-217.71 387-193c-7.84 3.63-16.4 6.58-25 8.97"/>
<path fill="#63b8ff" stroke="#63b8ff" d="m515.74-292.37 9.56-4.57-4.63 9.53z"/>
</a></g><g id="Node000016" class="node"><title>Node16</title><a xlink:href="../../d7/dce/class_max_force.html#a5fdf355ebd7b9d2504225d252d58216a" xlink:title="Process and update both stiffness and resistance." id="a_Node000016" target="_top">
<path fill="#fff" stroke="#666" d="M363-146H232v20h131z"/>
<text x="297.5" y="-133.2" font-family="Consolas" font-size="11" text-anchor="middle">MaxForce::process</text>
</a></g><g id="edge15_Node000001_Node000016" class="edge"><title>Node1-&gt;Node16</title><a id="a_edge15_Node000001_Node000016">
<path fill="none" stroke="#63b8ff" d="M522.53-288.3C499.73-255.7 448.02-188.74 387-155c-7.29 4.03-15.35 7.21-23.56 9.71"/>
<path fill="#63b8ff" stroke="#63b8ff" d="m519.87-290.62 8.54-6.26-2.77 10.22z"/>
</a></g><g id="Node000017" class="node"><title>Node17</title><a xlink:href="../../dc/dfd/class_fixed_length.html#ae7a2935962ddfc424471b574490d9865" id="a_Node000017" target="_top">
<path fill="#fff" stroke="#666" d="M366.5-108h-138v32h138z"/>
<text x="236.5" y="-95.2" font-family="Consolas" font-size="11">FixedLength::reset</text>
<text x="297.5" y="-83.2" font-family="Consolas" font-size="11" text-anchor="middle">_status</text>
</a></g><g id="edge16_Node000001_Node000017" class="edge"><title>Node1-&gt;Node17</title><a id="a_edge16_Node000001_Node000017">
<path fill="none" stroke="#63b8ff" d="M525.48-287.84C505.38-249.4 454.83-162.63 387-117c-6.23 4.19-13.15 7.68-20.3 10.59"/>
<path fill="#63b8ff" stroke="#63b8ff" d="m522.46-289.62 7.67-7.31-1.44 10.5z"/>
</a></g><g id="Node000019" class="node"><title>Node19</title><a xlink:href="../../d3/d97/class_node_facet.html#ad342128d0f368d4a4f05b50816ff3483" id="a_Node000019" target="_top">
<path fill="#fff" stroke="#666" d="M383.5-58h-172v20h172z"/>
<text x="297.5" y="-45.2" font-family="Consolas" font-size="11" text-anchor="middle">NodeFacet::reset_status</text>
</a></g><g id="edge18_Node000001_Node000019" class="edge"><title>Node1-&gt;Node19</title><a id="a_edge18_Node000001_Node000019">
<path fill="none" stroke="#63b8ff" d="M528.86-287.25C513.33-240.78 467.87-124.11 387-67c-5.13 3.63-10.83 6.58-16.77 8.99"/>
<path fill="#63b8ff" stroke="#63b8ff" d="m525.53-288.34 6.42-8.43.24 10.59z"/>
</a></g><g id="Node000020" class="node"><title>Node20</title><a xlink:href="../../d0/da4/class_node_line.html#a0ee28df44ff13f1290e1e260d7666ad7" id="a_Node000020" target="_top">
<path fill="#fff" stroke="#666" d="M380-20H215V0h165z"/>
<text x="297.5" y="-7.2" font-family="Consolas" font-size="11" text-anchor="middle">NodeLine::reset_status</text>
</a></g><g id="edge19_Node000001_Node000020" class="edge"><title>Node1-&gt;Node20</title><a id="a_edge19_Node000001_Node000020">
<path fill="none" stroke="#63b8ff" d="M530.54-287.01C517.91-235.37 476.86-96.82 387-29c-4.77 3.6-10.07 6.55-15.64 8.96"/>
<path fill="#63b8ff" stroke="#63b8ff" d="m527.17-287.98 5.7-8.93 1.11 10.53z"/>
</a></g><g id="Node000003" class="node"><title>Node3</title><a xlink:href="../../d7/dce/class_max_force.html#a8a7adcb4e75a9e1c7d7e8eba49737ce0" id="a_Node000003" target="_top">
<path fill="#fff" stroke="#666" d="M168.5-620H3.5v20h165z"/>
<text x="86" y="-607.2" font-family="Consolas" font-size="11" text-anchor="middle">MaxForce::clear_status</text>
</a></g><g id="edge2_Node000002_Node000003" class="edge"><title>Node2-&gt;Node3</title><a id="a_edge2_Node000002_Node000003">
<path fill="none" stroke="#63b8ff" d="M218.47-610h-49.91"/>
<path fill="#63b8ff" stroke="#63b8ff" d="m218.48-613.5 10 3.5-10 3.5z"/>
</a></g><g id="Node000007" class="node"><title>Node7</title><a xlink:href="../../d7/dce/class_max_force.html#a413143c2f46c0d90187165c1c21613fc" id="a_Node000007" target="_top">
<path fill="#fff" stroke="#666" d="M172-494H0v20h172z"/>
<text x="86" y="-481.2" font-family="Consolas" font-size="11" text-anchor="middle">MaxForce::commit_status</text>
</a></g><g id="edge6_Node000006_Node000007" class="edge"><title>Node6-&gt;Node7</title><a id="a_edge6_Node000006_Node000007">
<path fill="none" stroke="#63b8ff" d="M214.92-484H172.3"/>
<path fill="#63b8ff" stroke="#63b8ff" d="m214.99-487.5 10 3.5-10 3.5z"/>
</a></g><g id="Node000018" class="node"><title>Node18</title><a xlink:href="../../d7/dce/class_max_force.html#a9d095554dc270223517ca6b8c29d7e7a" id="a_Node000018" target="_top">
<path fill="#fff" stroke="#666" d="M168.5-102H3.5v20h165z"/>
<text x="86" y="-89.2" font-family="Consolas" font-size="11" text-anchor="middle">MaxForce::reset_status</text>
</a></g><g id="edge17_Node000017_Node000018" class="edge"><title>Node17-&gt;Node18</title><a id="a_edge17_Node000017_Node000018">
<path fill="none" stroke="#63b8ff" d="M218.47-92h-49.91"/>
<path fill="#63b8ff" stroke="#63b8ff" d="m218.48-95.5 10 3.5-10 3.5z"/>
</a></g></g></svg><g id="navigator" fill="#404254"><path fill="#f2f5e9" fill-opacity=".5" stroke="#606060" stroke-width=".5" d="M0 0h60v60H0z"/><use xlink:href="#zoomPlus" id="zoomplus" x="17" y="9" onmousedown="handleZoom(evt,'in')"/><use xlink:href="#zoomMin" id="zoomminus" x="42" y="9" onmousedown="handleZoom(evt,'out')"/><use xlink:href="#resetDef" id="reset" x="30" y="36" onmousedown="handleReset()"/><use xlink:href="#arrowUp" id="arrowup" x="0" y="0" onmousedown="handlePan(0,-1)"/><use xlink:href="#arrowRight" id="arrowright" x="0" y="0" onmousedown="handlePan(1,0)"/><use xlink:href="#arrowDown" id="arrowdown" x="0" y="0" onmousedown="handlePan(0,1)"/><use xlink:href="#arrowLeft" id="arrowleft" x="0" y="0" onmousedown="handlePan(-1,0)"/></g><svg height="30" preserveAspectRatio="xMaxYMin meet" viewBox="0 0 15 15"><a xlink:href="class_constraint_af29b7851364069dae4bd4dfa9b62b714_icgraph_org.svg" id="arrow_out" target="_base" transform="scale(.3)">
   <rect id="button" width="38" height="38" x="6" y="6" fill="#f2f5e9" fill-opacity=".5" stroke="#606060" stroke-width="1" rx="5" ry="5"/>
   <path id="arrow" d="M11.5 31.437c.44-11.34 10.543-20.114 20.659-9.458l4.91-4.733.02 14.754-14.929-.022 4.838-4.838c-8.47-8.876-13.706-1.91-15.498 4.297" style="fill:#404040"/>
  </a></svg><script type="application/ecmascript"><![CDATA[
document.addEventListener('DOMContentLoaded', (event) => {
  highlightEdges();
  highlightAdjacentNodes();
});
]]></script></svg>