<?xml version="1.0" encoding="UTF-8" standalone="no"?>
<!DOCTYPE svg PUBLIC "-//W3C//DTD SVG 1.1//EN"
 "http://www.w3.org/Graphics/SVG/1.1/DTD/svg11.dtd">
<!-- Generated by graphviz version 2.43.0 (0)
 -->
<!-- Title: transform::compute_jacobian_principal_to_nominal Pages: 1 -->
<svg width="542pt" height="131pt"
 viewBox="0.00 0.00 542.00 131.00" xmlns="http://www.w3.org/2000/svg" xmlns:xlink="http://www.w3.org/1999/xlink">
<g id="graph0" class="graph" transform="scale(1 1) rotate(0) translate(4 127)">
<title>transform::compute_jacobian_principal_to_nominal</title>
<polygon fill="white" stroke="transparent" points="-4,4 -4,-127 538,-127 538,4 -4,4"/>
<!-- Node1 -->
<g id="node1" class="node">
<title>Node1</title>
<g id="a_node1"><a xlink:title=" ">
<polygon fill="#bfbfbf" stroke="black" points="389,-39.5 389,-83.5 534,-83.5 534,-39.5 389,-39.5"/>
<text text-anchor="start" x="397" y="-70.7" font-family="Consolas" font-size="11.00">transform::compute</text>
<text text-anchor="start" x="397" y="-58.7" font-family="Consolas" font-size="11.00">_jacobian_principal</text>
<text text-anchor="middle" x="461.5" y="-46.7" font-family="Consolas" font-size="11.00">_to_nominal</text>
</a>
</g>
</g>
<!-- Node2 -->
<g id="node2" class="node">
<title>Node2</title>
<g id="a_node2"><a xlink:href="../../dc/dfe/namespacetransform.html#a867524504f3f5d4b8e9eedd287d208e1" target="_top" xlink:title=" ">
<polygon fill="white" stroke="black" points="204.5,-90.5 204.5,-122.5 349.5,-122.5 349.5,-90.5 204.5,-90.5"/>
<text text-anchor="start" x="212.5" y="-109.7" font-family="Consolas" font-size="11.00">transform::eigen_to</text>
<text text-anchor="middle" x="277" y="-97.7" font-family="Consolas" font-size="11.00">_tensile_stress</text>
</a>
</g>
</g>
<!-- Node1&#45;&gt;Node2 -->
<g id="edge1" class="edge">
<title>Node1&#45;&gt;Node2</title>
<path fill="none" stroke="midnightblue" d="M378.91,-81.62C366.94,-84.57 354.74,-87.58 343.16,-90.43"/>
<polygon fill="midnightblue" stroke="midnightblue" points="380.02,-84.95 388.89,-79.16 378.35,-78.15 380.02,-84.95"/>
</g>
<!-- Node4 -->
<g id="node4" class="node">
<title>Node4</title>
<g id="a_node4"><a xlink:href="../../dc/d83/_test_tensor_8cpp.html#aa8eddbc045ff610a50500cd7b3f5147f" target="_top" xlink:title=" ">
<polygon fill="white" stroke="black" points="238.5,-51.5 238.5,-71.5 315.5,-71.5 315.5,-51.5 238.5,-51.5"/>
<text text-anchor="middle" x="277" y="-58.7" font-family="Consolas" font-size="11.00">TEST_CASE</text>
</a>
</g>
</g>
<!-- Node1&#45;&gt;Node4 -->
<g id="edge3" class="edge">
<title>Node1&#45;&gt;Node4</title>
<path fill="none" stroke="midnightblue" d="M378.82,-61.5C356.73,-61.5 333.88,-61.5 315.53,-61.5"/>
<polygon fill="midnightblue" stroke="midnightblue" points="378.9,-65 388.89,-61.5 378.89,-58 378.9,-65"/>
</g>
<!-- Node5 -->
<g id="node5" class="node">
<title>Node5</title>
<g id="a_node5"><a xlink:href="../../de/d9e/class_nonlinear_c_d_p.html#ada50f0816b64f9d897504e17674bb550" target="_top" xlink:title=" ">
<polygon fill="white" stroke="black" points="201,-0.5 201,-32.5 353,-32.5 353,-0.5 201,-0.5"/>
<text text-anchor="start" x="209" y="-19.7" font-family="Consolas" font-size="11.00">NonlinearCDP::update</text>
<text text-anchor="middle" x="277" y="-7.7" font-family="Consolas" font-size="11.00">_trial_status</text>
</a>
</g>
</g>
<!-- Node1&#45;&gt;Node5 -->
<g id="edge4" class="edge">
<title>Node1&#45;&gt;Node5</title>
<path fill="none" stroke="midnightblue" d="M378.91,-41.38C366.94,-38.43 354.74,-35.42 343.16,-32.57"/>
<polygon fill="midnightblue" stroke="midnightblue" points="378.35,-44.85 388.89,-43.84 380.02,-38.05 378.35,-44.85"/>
</g>
<!-- Node3 -->
<g id="node3" class="node">
<title>Node3</title>
<g id="a_node3"><a xlink:href="../../dd/d13/class_timber_p_d.html#afabfd0200bc96cb582c7a9336bb4f32a" target="_top" xlink:title=" ">
<polygon fill="white" stroke="black" points="0,-90.5 0,-122.5 165,-122.5 165,-90.5 0,-90.5"/>
<text text-anchor="start" x="8" y="-109.7" font-family="Consolas" font-size="11.00">TimberPD::update_trial</text>
<text text-anchor="middle" x="82.5" y="-97.7" font-family="Consolas" font-size="11.00">_status</text>
</a>
</g>
</g>
<!-- Node2&#45;&gt;Node3 -->
<g id="edge2" class="edge">
<title>Node2&#45;&gt;Node3</title>
<path fill="none" stroke="midnightblue" d="M194.07,-106.5C184.54,-106.5 174.82,-106.5 165.29,-106.5"/>
<polygon fill="midnightblue" stroke="midnightblue" points="194.32,-110 204.32,-106.5 194.32,-103 194.32,-110"/>
</g>
</g>
</svg>
