<?xml version="1.0" encoding="UTF-8" standalone="no"?>
<!DOCTYPE svg PUBLIC "-//W3C//DTD SVG 1.1//EN"
 "http://www.w3.org/Graphics/SVG/1.1/DTD/svg11.dtd">
<!-- Generated by graphviz version 2.43.0 (0)
 -->
<!-- Title: CP7 Pages: 1 -->
<svg width="1203pt" height="1712pt"
 viewBox="0.00 0.00 1202.70 1712.00" xmlns="http://www.w3.org/2000/svg" xmlns:xlink="http://www.w3.org/1999/xlink">
<g id="graph0" class="graph" transform="scale(1 1) rotate(0) translate(4 1708)">
<title>CP7</title>
<!-- Node1 -->
<g id="Node000001" class="node">
<title>Node1</title>
<g id="a_Node000001"><a xlink:title="The CP7 class handles CPS5, CPE5, CPS5R and CPE5R elements. It is a four node constant strain membran...">
<polygon fill="#999999" stroke="transparent" points="839.7,-180 657.7,-180 657.7,0 839.7,0 839.7,-180"/>
<text text-anchor="start" x="738.2" y="-167.2" font-family="Consolas" font-size="11.00">CP7</text>
<text text-anchor="start" x="745.2" y="-151.2" font-family="Consolas" font-size="11.00"> </text>
<text text-anchor="start" x="661.7" y="-135.2" font-family="Consolas" font-size="11.00">+</text>
<text text-anchor="start" x="672.7" y="-135.2" font-family="Consolas" font-size="11.00">CP7()</text>
<text text-anchor="start" x="661.7" y="-119.2" font-family="Consolas" font-size="11.00">+</text>
<text text-anchor="start" x="672.7" y="-119.2" font-family="Consolas" font-size="11.00">initialize()</text>
<text text-anchor="start" x="661.7" y="-103.2" font-family="Consolas" font-size="11.00">+</text>
<text text-anchor="start" x="672.7" y="-103.2" font-family="Consolas" font-size="11.00">update_status()</text>
<text text-anchor="start" x="661.7" y="-87.2" font-family="Consolas" font-size="11.00">+</text>
<text text-anchor="start" x="672.7" y="-87.2" font-family="Consolas" font-size="11.00">commit_status()</text>
<text text-anchor="start" x="661.7" y="-71.2" font-family="Consolas" font-size="11.00">+</text>
<text text-anchor="start" x="672.7" y="-71.2" font-family="Consolas" font-size="11.00">clear_status()</text>
<text text-anchor="start" x="661.7" y="-55.2" font-family="Consolas" font-size="11.00">+</text>
<text text-anchor="start" x="672.7" y="-55.2" font-family="Consolas" font-size="11.00">reset_status()</text>
<text text-anchor="start" x="661.7" y="-39.2" font-family="Consolas" font-size="11.00">+</text>
<text text-anchor="start" x="672.7" y="-39.2" font-family="Consolas" font-size="11.00">compute_shape_function()</text>
<text text-anchor="start" x="661.7" y="-23.2" font-family="Consolas" font-size="11.00">+</text>
<text text-anchor="start" x="672.7" y="-23.2" font-family="Consolas" font-size="11.00">record()</text>
<text text-anchor="start" x="661.7" y="-7.2" font-family="Consolas" font-size="11.00">+</text>
<text text-anchor="start" x="672.7" y="-7.2" font-family="Consolas" font-size="11.00">print()</text>
<polygon fill="#666666" stroke="#666666" points="657.7,-162 657.7,-162 839.7,-162 839.7,-162 657.7,-162"/>
<polygon fill="#666666" stroke="#666666" points="657.7,-146 657.7,-146 839.7,-146 839.7,-146 657.7,-146"/>
<polygon fill="none" stroke="#666666" points="657.7,0 657.7,-180 839.7,-180 839.7,0 657.7,0"/>
</a>
</g>
</g>
<!-- Node2 -->
<g id="Node000002" class="node">
<title>Node2</title>
<g id="a_Node000002"><a xlink:href="../../d8/df9/class_material_element2_d.html" target="_top" xlink:title=" ">
<polygon fill="white" stroke="transparent" points="822.7,-269 674.7,-269 674.7,-217 822.7,-217 822.7,-269"/>
<text text-anchor="start" x="691.2" y="-256.2" font-family="Consolas" font-size="11.00">MaterialElement2D</text>
<text text-anchor="start" x="745.2" y="-240.2" font-family="Consolas" font-size="11.00"> </text>
<text text-anchor="start" x="678.7" y="-224.2" font-family="Consolas" font-size="11.00">+</text>
<text text-anchor="start" x="689.7" y="-224.2" font-family="Consolas" font-size="11.00">MaterialElement2D()</text>
<polygon fill="#666666" stroke="#666666" points="674.7,-251 674.7,-251 822.7,-251 822.7,-251 674.7,-251"/>
<polygon fill="#666666" stroke="#666666" points="674.7,-235 674.7,-235 822.7,-235 822.7,-235 674.7,-235"/>
<polygon fill="none" stroke="#666666" points="674.7,-217 674.7,-269 822.7,-269 822.7,-217 674.7,-217"/>
</a>
</g>
</g>
<!-- Node2&#45;&gt;Node1 -->
<g id="edge1_Node000001_Node000002" class="edge">
<title>Node2&#45;&gt;Node1</title>
<g id="a_edge1_Node000001_Node000002"><a xlink:title=" ">
<path fill="none" stroke="#63b8ff" d="M748.7,-206.61C748.7,-198.5 748.7,-189.51 748.7,-180.24"/>
<polygon fill="none" stroke="#63b8ff" points="745.2,-206.73 748.7,-216.73 752.2,-206.73 745.2,-206.73"/>
</a>
</g>
</g>
<!-- Node3 -->
<g id="Node000003" class="node">
<title>Node3</title>
<g id="a_Node000003"><a xlink:href="../../d0/d07/class_material_element.html" target="_top" xlink:title="The MaterialElement class.">
<polygon fill="white" stroke="transparent" points="815.7,-358 681.7,-358 681.7,-306 815.7,-306 815.7,-358"/>
<text text-anchor="start" x="697.7" y="-345.2" font-family="Consolas" font-size="11.00">MaterialElement</text>
<text text-anchor="start" x="745.2" y="-329.2" font-family="Consolas" font-size="11.00"> </text>
<text text-anchor="start" x="685.7" y="-313.2" font-family="Consolas" font-size="11.00">+</text>
<text text-anchor="start" x="696.7" y="-313.2" font-family="Consolas" font-size="11.00">MaterialElement()</text>
<polygon fill="#666666" stroke="#666666" points="681.7,-340 681.7,-340 815.7,-340 815.7,-340 681.7,-340"/>
<polygon fill="#666666" stroke="#666666" points="681.7,-324 681.7,-324 815.7,-324 815.7,-324 681.7,-324"/>
<polygon fill="none" stroke="#666666" points="681.7,-306 681.7,-358 815.7,-358 815.7,-306 681.7,-306"/>
</a>
</g>
</g>
<!-- Node3&#45;&gt;Node2 -->
<g id="edge2_Node000002_Node000003" class="edge">
<title>Node3&#45;&gt;Node2</title>
<g id="a_edge2_Node000002_Node000003"><a xlink:title=" ">
<path fill="none" stroke="#63b8ff" d="M748.7,-295.69C748.7,-286.78 748.7,-277.4 748.7,-269.11"/>
<polygon fill="none" stroke="#63b8ff" points="745.2,-295.84 748.7,-305.84 752.2,-295.84 745.2,-295.84"/>
</a>
</g>
</g>
<!-- Node4 -->
<g id="Node000004" class="node">
<title>Node4</title>
<g id="a_Node000004"><a xlink:href="../../d5/d50/class_element.html" target="_top" xlink:title="A Element class.">
<polygon fill="white" stroke="transparent" points="856.2,-703 641.2,-703 641.2,-395 856.2,-395 856.2,-703"/>
<text text-anchor="start" x="725.2" y="-690.2" font-family="Consolas" font-size="11.00">Element</text>
<text text-anchor="start" x="745.7" y="-674.2" font-family="Consolas" font-size="11.00"> </text>
<text text-anchor="start" x="645.7" y="-658.2" font-family="Consolas" font-size="11.00">+</text>
<text text-anchor="start" x="656.7" y="-658.2" font-family="Consolas" font-size="11.00">Element()</text>
<text text-anchor="start" x="645.7" y="-642.2" font-family="Consolas" font-size="11.00">+</text>
<text text-anchor="start" x="656.7" y="-642.2" font-family="Consolas" font-size="11.00">Element()</text>
<text text-anchor="start" x="645.7" y="-626.2" font-family="Consolas" font-size="11.00">+</text>
<text text-anchor="start" x="656.7" y="-626.2" font-family="Consolas" font-size="11.00">Element()</text>
<text text-anchor="start" x="645.7" y="-610.2" font-family="Consolas" font-size="11.00">+</text>
<text text-anchor="start" x="656.7" y="-610.2" font-family="Consolas" font-size="11.00">Element()</text>
<text text-anchor="start" x="645.7" y="-594.2" font-family="Consolas" font-size="11.00">+</text>
<text text-anchor="start" x="656.7" y="-594.2" font-family="Consolas" font-size="11.00">Element()</text>
<text text-anchor="start" x="645.7" y="-578.2" font-family="Consolas" font-size="11.00">+</text>
<text text-anchor="start" x="656.7" y="-578.2" font-family="Consolas" font-size="11.00">initialize_base()</text>
<text text-anchor="start" x="645.7" y="-562.2" font-family="Consolas" font-size="11.00">+</text>
<text text-anchor="start" x="656.7" y="-562.2" font-family="Consolas" font-size="11.00">set_initialized()</text>
<text text-anchor="start" x="645.7" y="-546.2" font-family="Consolas" font-size="11.00">+</text>
<text text-anchor="start" x="656.7" y="-546.2" font-family="Consolas" font-size="11.00">set_symmetric()</text>
<text text-anchor="start" x="645.7" y="-530.2" font-family="Consolas" font-size="11.00">+</text>
<text text-anchor="start" x="656.7" y="-530.2" font-family="Consolas" font-size="11.00">is_initialized()</text>
<text text-anchor="start" x="645.7" y="-514.2" font-family="Consolas" font-size="11.00">+</text>
<text text-anchor="start" x="656.7" y="-514.2" font-family="Consolas" font-size="11.00">is_symmetric()</text>
<text text-anchor="start" x="656.7" y="-498.2" font-family="Consolas" font-size="11.00">and 76 more...</text>
<text text-anchor="start" x="645.7" y="-482.2" font-family="Consolas" font-size="11.00">#</text>
<text text-anchor="start" x="656.7" y="-482.2" font-family="Consolas" font-size="11.00">get_coordinate()</text>
<text text-anchor="start" x="645.7" y="-466.2" font-family="Consolas" font-size="11.00">#</text>
<text text-anchor="start" x="656.7" y="-466.2" font-family="Consolas" font-size="11.00">get_node_incre_resistance()</text>
<text text-anchor="start" x="645.7" y="-450.2" font-family="Consolas" font-size="11.00">#</text>
<text text-anchor="start" x="656.7" y="-450.2" font-family="Consolas" font-size="11.00">get_node_trial_resistance()</text>
<text text-anchor="start" x="645.7" y="-434.2" font-family="Consolas" font-size="11.00">#</text>
<text text-anchor="start" x="656.7" y="-434.2" font-family="Consolas" font-size="11.00">get_node_current_resistance()</text>
<text text-anchor="start" x="645.7" y="-418.2" font-family="Consolas" font-size="11.00">#</text>
<text text-anchor="start" x="656.7" y="-418.2" font-family="Consolas" font-size="11.00">get_material()</text>
<text text-anchor="start" x="645.7" y="-402.2" font-family="Consolas" font-size="11.00">#</text>
<text text-anchor="start" x="656.7" y="-402.2" font-family="Consolas" font-size="11.00">get_section()</text>
<polygon fill="#666666" stroke="#666666" points="641.7,-685 641.7,-685 856.7,-685 856.7,-685 641.7,-685"/>
<polygon fill="#666666" stroke="#666666" points="641.7,-669 641.7,-669 856.7,-669 856.7,-669 641.7,-669"/>
<polygon fill="none" stroke="#666666" points="641.2,-395 641.2,-703 856.2,-703 856.2,-395 641.2,-395"/>
</a>
</g>
</g>
<!-- Node4&#45;&gt;Node3 -->
<g id="edge3_Node000003_Node000004" class="edge">
<title>Node4&#45;&gt;Node3</title>
<g id="a_edge3_Node000003_Node000004"><a xlink:title=" ">
<path fill="none" stroke="#63b8ff" d="M748.7,-384.73C748.7,-374.83 748.7,-365.8 748.7,-358.16"/>
<polygon fill="none" stroke="#63b8ff" points="745.2,-384.9 748.7,-394.9 752.2,-384.9 745.2,-384.9"/>
</a>
</g>
</g>
<!-- Node5 -->
<g id="Node000005" class="node">
<title>Node5</title>
<g id="a_Node000005"><a xlink:href="../../d2/db9/struct_data_element.html" target="_top" xlink:title=" ">
<polygon fill="white" stroke="transparent" points="666.7,-1003 518.7,-1003 518.7,-807 666.7,-807 666.7,-1003"/>
<text text-anchor="start" x="555.2" y="-990.2" font-family="Consolas" font-size="11.00">DataElement</text>
<text text-anchor="start" x="522.7" y="-974.2" font-family="Consolas" font-size="11.00">+</text>
<text text-anchor="start" x="533.7" y="-974.2" font-family="Consolas" font-size="11.00">initial_viscous</text>
<text text-anchor="start" x="522.7" y="-958.2" font-family="Consolas" font-size="11.00">+</text>
<text text-anchor="start" x="533.7" y="-958.2" font-family="Consolas" font-size="11.00">trial_mass</text>
<text text-anchor="start" x="522.7" y="-942.2" font-family="Consolas" font-size="11.00">+</text>
<text text-anchor="start" x="533.7" y="-942.2" font-family="Consolas" font-size="11.00">trial_viscous</text>
<text text-anchor="start" x="522.7" y="-926.2" font-family="Consolas" font-size="11.00">+</text>
<text text-anchor="start" x="533.7" y="-926.2" font-family="Consolas" font-size="11.00">trial_nonviscous</text>
<text text-anchor="start" x="522.7" y="-910.2" font-family="Consolas" font-size="11.00">+</text>
<text text-anchor="start" x="533.7" y="-910.2" font-family="Consolas" font-size="11.00">trial_stiffness</text>
<text text-anchor="start" x="522.7" y="-894.2" font-family="Consolas" font-size="11.00">+</text>
<text text-anchor="start" x="533.7" y="-894.2" font-family="Consolas" font-size="11.00">trial_geometry</text>
<text text-anchor="start" x="522.7" y="-878.2" font-family="Consolas" font-size="11.00">+</text>
<text text-anchor="start" x="533.7" y="-878.2" font-family="Consolas" font-size="11.00">trial_viscous_force</text>
<text text-anchor="start" x="522.7" y="-862.2" font-family="Consolas" font-size="11.00">+</text>
<text text-anchor="start" x="533.7" y="-862.2" font-family="Consolas" font-size="11.00">traction</text>
<text text-anchor="start" x="522.7" y="-846.2" font-family="Consolas" font-size="11.00">+</text>
<text text-anchor="start" x="533.7" y="-846.2" font-family="Consolas" font-size="11.00">stiffness_container</text>
<text text-anchor="start" x="522.7" y="-830.2" font-family="Consolas" font-size="11.00">+</text>
<text text-anchor="start" x="533.7" y="-830.2" font-family="Consolas" font-size="11.00">mass_container</text>
<text text-anchor="start" x="589.2" y="-814.2" font-family="Consolas" font-size="11.00"> </text>
<polygon fill="#666666" stroke="#666666" points="518.7,-985 518.7,-985 666.7,-985 666.7,-985 518.7,-985"/>
<polygon fill="#666666" stroke="#666666" points="518.7,-825 518.7,-825 531.7,-825 531.7,-825 518.7,-825"/>
<polygon fill="#666666" stroke="#666666" points="531.7,-825 531.7,-825 666.7,-825 666.7,-825 531.7,-825"/>
<polygon fill="none" stroke="#666666" points="518.7,-807 518.7,-1003 666.7,-1003 666.7,-807 518.7,-807"/>
</a>
</g>
</g>
<!-- Node5&#45;&gt;Node4 -->
<g id="edge4_Node000004_Node000005" class="edge">
<title>Node5&#45;&gt;Node4</title>
<g id="a_edge4_Node000004_Node000005"><a xlink:title=" ">
<path fill="none" stroke="darkgreen" d="M639.72,-797.29C652.78,-767.66 667.22,-734.89 681.2,-703.16"/>
<polygon fill="none" stroke="darkgreen" points="636.36,-796.24 635.53,-806.8 642.77,-799.06 636.36,-796.24"/>
</a>
</g>
</g>
<!-- Node6 -->
<g id="Node000006" class="node">
<title>Node6</title>
<g id="a_Node000006"><a xlink:title=" ">
<polygon fill="white" stroke="transparent" points="949.7,-1335 911.7,-1335 911.7,-1283 949.7,-1283 949.7,-1335"/>
<text text-anchor="start" x="916.7" y="-1322.2" font-family="Consolas" font-size="11.00">uvec</text>
<text text-anchor="start" x="927.2" y="-1306.2" font-family="Consolas" font-size="11.00"> </text>
<text text-anchor="start" x="927.2" y="-1290.2" font-family="Consolas" font-size="11.00"> </text>
<polygon fill="#666666" stroke="#666666" points="911.7,-1317 911.7,-1317 949.7,-1317 949.7,-1317 911.7,-1317"/>
<polygon fill="#666666" stroke="#666666" points="911.7,-1301 911.7,-1301 949.7,-1301 949.7,-1301 911.7,-1301"/>
<polygon fill="none" stroke="#666666" points="911.7,-1283 911.7,-1335 949.7,-1335 949.7,-1283 911.7,-1283"/>
</a>
</g>
</g>
<!-- Node6&#45;&gt;Node5 -->
<g id="edge5_Node000005_Node000006" class="edge">
<title>Node6&#45;&gt;Node5</title>
<g id="a_edge5_Node000005_Node000006"><a xlink:title=" ">
<path fill="none" stroke="#63b8ff" d="M929.89,-1282.64C927.82,-1225.76 921.54,-1091.78 907.7,-1077 874.44,-1041.48 844.5,-1077.99 799.7,-1059 755.51,-1040.27 711.96,-1010.33 676.3,-981.88"/>
<polygon fill="none" stroke="#63b8ff" points="676.26,-981.84 669.08,-981.18 666.93,-974.29 674.11,-974.96 676.26,-981.84"/>
</a>
</g>
<text text-anchor="middle" x="974.2" y="-1158.2" font-family="Consolas" font-size="11.00" fill="grey"> +dof_encoding</text>
<text text-anchor="middle" x="974.2" y="-1146.2" font-family="Consolas" font-size="11.00" fill="grey">+material_tag</text>
<text text-anchor="middle" x="974.2" y="-1134.2" font-family="Consolas" font-size="11.00" fill="grey">+node_encoding</text>
<text text-anchor="middle" x="974.2" y="-1122.2" font-family="Consolas" font-size="11.00" fill="grey">+section_tag</text>
</g>
<!-- Node7 -->
<g id="Node000007" class="node">
<title>Node7</title>
<g id="a_Node000007"><a xlink:title=" ">
<polygon fill="white" stroke="transparent" points="241.7,-1335 203.7,-1335 203.7,-1283 241.7,-1283 241.7,-1335"/>
<text text-anchor="start" x="208.7" y="-1322.2" font-family="Consolas" font-size="11.00">bool</text>
<text text-anchor="start" x="219.2" y="-1306.2" font-family="Consolas" font-size="11.00"> </text>
<text text-anchor="start" x="219.2" y="-1290.2" font-family="Consolas" font-size="11.00"> </text>
<polygon fill="#666666" stroke="#666666" points="203.7,-1317 203.7,-1317 241.7,-1317 241.7,-1317 203.7,-1317"/>
<polygon fill="#666666" stroke="#666666" points="203.7,-1301 203.7,-1301 241.7,-1301 241.7,-1301 203.7,-1301"/>
<polygon fill="none" stroke="#666666" points="203.7,-1283 203.7,-1335 241.7,-1335 241.7,-1283 203.7,-1283"/>
</a>
</g>
</g>
<!-- Node7&#45;&gt;Node5 -->
<g id="edge6_Node000005_Node000007" class="edge">
<title>Node7&#45;&gt;Node5</title>
<g id="a_edge6_Node000005_Node000007"><a xlink:title=" ">
<path fill="none" stroke="#63b8ff" d="M228.86,-1282.86C243.38,-1223.74 278.87,-1080.6 282.7,-1077 313.04,-1048.45 336.36,-1075.32 374.7,-1059 422.35,-1038.71 470.03,-1006.88 508.6,-977.5"/>
<polygon fill="none" stroke="#63b8ff" points="508.7,-977.42 511.01,-970.59 518.21,-970.09 515.9,-976.93 508.7,-977.42"/>
</a>
</g>
<text text-anchor="middle" x="343.7" y="-1188.2" font-family="Consolas" font-size="11.00" fill="grey"> +modify_mass</text>
<text text-anchor="middle" x="343.7" y="-1176.2" font-family="Consolas" font-size="11.00" fill="grey">+modify_nonviscous</text>
<text text-anchor="middle" x="343.7" y="-1164.2" font-family="Consolas" font-size="11.00" fill="grey">+modify_viscous</text>
<text text-anchor="middle" x="343.7" y="-1152.2" font-family="Consolas" font-size="11.00" fill="grey">+nlgeom</text>
<text text-anchor="middle" x="343.7" y="-1140.2" font-family="Consolas" font-size="11.00" fill="grey">+update_geometry</text>
<text text-anchor="middle" x="343.7" y="-1128.2" font-family="Consolas" font-size="11.00" fill="grey">+update_mass</text>
<text text-anchor="middle" x="343.7" y="-1116.2" font-family="Consolas" font-size="11.00" fill="grey">+update_nonviscous</text>
<text text-anchor="middle" x="343.7" y="-1104.2" font-family="Consolas" font-size="11.00" fill="grey">+update_stiffness</text>
<text text-anchor="middle" x="343.7" y="-1092.2" font-family="Consolas" font-size="11.00" fill="grey">+update_viscous</text>
</g>
<!-- Node16 -->
<g id="Node000016" class="node">
<title>Node16</title>
<g id="a_Node000016"><a xlink:href="../../dd/d45/class_distributed.html" target="_top" xlink:title=" ">
<polygon fill="white" stroke="transparent" points="366.2,-939 259.2,-939 259.2,-871 366.2,-871 366.2,-939"/>
<text text-anchor="start" x="275.7" y="-926.2" font-family="Consolas" font-size="11.00">Distributed</text>
<text text-anchor="start" x="309.7" y="-910.2" font-family="Consolas" font-size="11.00"> </text>
<text text-anchor="start" x="263.7" y="-894.2" font-family="Consolas" font-size="11.00">+</text>
<text text-anchor="start" x="274.7" y="-894.2" font-family="Consolas" font-size="11.00">Distributed()</text>
<text text-anchor="start" x="263.7" y="-878.2" font-family="Consolas" font-size="11.00">+</text>
<text text-anchor="start" x="274.7" y="-878.2" font-family="Consolas" font-size="11.00">gather()</text>
<polygon fill="#666666" stroke="#666666" points="259.7,-921 259.7,-921 366.7,-921 366.7,-921 259.7,-921"/>
<polygon fill="#666666" stroke="#666666" points="259.7,-905 259.7,-905 366.7,-905 366.7,-905 259.7,-905"/>
<polygon fill="none" stroke="#666666" points="259.2,-871 259.2,-939 366.2,-939 366.2,-871 259.2,-871"/>
</a>
</g>
</g>
<!-- Node7&#45;&gt;Node16 -->
<g id="edge16_Node000016_Node000007" class="edge">
<title>Node7&#45;&gt;Node16</title>
<g id="a_edge16_Node000016_Node000007"><a xlink:title=" ">
<path fill="none" stroke="#63b8ff" d="M208.03,-1282.95C197.54,-1263.51 184.32,-1235.49 178.7,-1209 166.52,-1151.61 159.56,-1132.46 178.7,-1077 196.13,-1026.49 235.31,-979.51 266.83,-947.63"/>
<polygon fill="none" stroke="#63b8ff" points="266.97,-947.49 268.41,-940.43 275.49,-939.04 274.04,-946.11 266.97,-947.49"/>
</a>
</g>
<text text-anchor="middle" x="212.7" y="-1140.2" font-family="Consolas" font-size="11.00" fill="grey"> +is_local</text>
</g>
<!-- Node8 -->
<g id="Node000008" class="node">
<title>Node8</title>
<g id="a_Node000008"><a xlink:title=" ">
<polygon fill="white" stroke="transparent" points="41.2,-1335 10.2,-1335 10.2,-1283 41.2,-1283 41.2,-1335"/>
<text text-anchor="start" x="15.7" y="-1322.2" font-family="Consolas" font-size="11.00">mat</text>
<text text-anchor="start" x="22.7" y="-1306.2" font-family="Consolas" font-size="11.00"> </text>
<text text-anchor="start" x="22.7" y="-1290.2" font-family="Consolas" font-size="11.00"> </text>
<polygon fill="#666666" stroke="#666666" points="10.7,-1317 10.7,-1317 41.7,-1317 41.7,-1317 10.7,-1317"/>
<polygon fill="#666666" stroke="#666666" points="10.7,-1301 10.7,-1301 41.7,-1301 41.7,-1301 10.7,-1301"/>
<polygon fill="none" stroke="#666666" points="10.2,-1283 10.2,-1335 41.2,-1335 41.2,-1283 10.2,-1283"/>
</a>
</g>
</g>
<!-- Node8&#45;&gt;Node5 -->
<g id="edge7_Node000005_Node000008" class="edge">
<title>Node8&#45;&gt;Node5</title>
<g id="a_edge7_Node000005_Node000008"><a xlink:title=" ">
<path fill="none" stroke="#63b8ff" d="M17.18,-1282.94C2.81,-1235.44 -19.69,-1132.15 34.7,-1077 61.26,-1050.06 338.94,-1071.35 374.7,-1059 423.25,-1042.24 470.71,-1011.21 508.89,-981.46"/>
<polygon fill="none" stroke="#63b8ff" points="508.99,-981.39 511.21,-974.52 518.39,-973.93 516.17,-980.8 508.99,-981.39"/>
</a>
</g>
<text text-anchor="middle" x="99.2" y="-1200.2" font-family="Consolas" font-size="11.00" fill="grey"> +body_force</text>
<text text-anchor="middle" x="99.2" y="-1188.2" font-family="Consolas" font-size="11.00" fill="grey">+current_geometry</text>
<text text-anchor="middle" x="99.2" y="-1176.2" font-family="Consolas" font-size="11.00" fill="grey">+current_mass</text>
<text text-anchor="middle" x="99.2" y="-1164.2" font-family="Consolas" font-size="11.00" fill="grey">+current_nonviscous</text>
<text text-anchor="middle" x="99.2" y="-1152.2" font-family="Consolas" font-size="11.00" fill="grey">+current_stiffness</text>
<text text-anchor="middle" x="99.2" y="-1140.2" font-family="Consolas" font-size="11.00" fill="grey">+current_viscous</text>
<text text-anchor="middle" x="99.2" y="-1128.2" font-family="Consolas" font-size="11.00" fill="grey">+initial_geometry</text>
<text text-anchor="middle" x="99.2" y="-1116.2" font-family="Consolas" font-size="11.00" fill="grey">+initial_mass</text>
<text text-anchor="middle" x="99.2" y="-1104.2" font-family="Consolas" font-size="11.00" fill="grey">+initial_nonviscous</text>
<text text-anchor="middle" x="99.2" y="-1092.2" font-family="Consolas" font-size="11.00" fill="grey">+initial_stiffness</text>
<text text-anchor="middle" x="99.2" y="-1080.2" font-family="Consolas" font-size="11.00" fill="grey">...</text>
</g>
<!-- Node9 -->
<g id="Node000009" class="node">
<title>Node9</title>
<g id="a_Node000009"><a xlink:title=" ">
<polygon fill="white" stroke="transparent" points="429.2,-1335 398.2,-1335 398.2,-1283 429.2,-1283 429.2,-1335"/>
<text text-anchor="start" x="403.7" y="-1322.2" font-family="Consolas" font-size="11.00">vec</text>
<text text-anchor="start" x="410.7" y="-1306.2" font-family="Consolas" font-size="11.00"> </text>
<text text-anchor="start" x="410.7" y="-1290.2" font-family="Consolas" font-size="11.00"> </text>
<polygon fill="#666666" stroke="#666666" points="398.7,-1317 398.7,-1317 429.7,-1317 429.7,-1317 398.7,-1317"/>
<polygon fill="#666666" stroke="#666666" points="398.7,-1301 398.7,-1301 429.7,-1301 429.7,-1301 398.7,-1301"/>
<polygon fill="none" stroke="#666666" points="398.2,-1283 398.2,-1335 429.2,-1335 429.2,-1283 398.2,-1283"/>
</a>
</g>
</g>
<!-- Node9&#45;&gt;Node5 -->
<g id="edge8_Node000005_Node000009" class="edge">
<title>Node9&#45;&gt;Node5</title>
<g id="a_edge8_Node000005_Node000009"><a xlink:title=" ">
<path fill="none" stroke="#63b8ff" d="M410.55,-1282.75C406.19,-1238.81 401.97,-1146.35 432.7,-1077 450.09,-1037.76 480.35,-1001.8 509.9,-973.09"/>
<polygon fill="none" stroke="#63b8ff" points="509.93,-973.07 511.52,-966.04 518.62,-964.8 517.03,-971.83 509.93,-973.07"/>
</a>
</g>
<text text-anchor="middle" x="510.7" y="-1200.2" font-family="Consolas" font-size="11.00" fill="grey"> +current_body_force</text>
<text text-anchor="middle" x="510.7" y="-1188.2" font-family="Consolas" font-size="11.00" fill="grey">+current_inertial_force</text>
<text text-anchor="middle" x="510.7" y="-1176.2" font-family="Consolas" font-size="11.00" fill="grey">+current_resistance</text>
<text text-anchor="middle" x="510.7" y="-1164.2" font-family="Consolas" font-size="11.00" fill="grey">+current_traction</text>
<text text-anchor="middle" x="510.7" y="-1152.2" font-family="Consolas" font-size="11.00" fill="grey">+current_viscous_force</text>
<text text-anchor="middle" x="510.7" y="-1140.2" font-family="Consolas" font-size="11.00" fill="grey">+momentum</text>
<text text-anchor="middle" x="510.7" y="-1128.2" font-family="Consolas" font-size="11.00" fill="grey">+trial_body_force</text>
<text text-anchor="middle" x="510.7" y="-1116.2" font-family="Consolas" font-size="11.00" fill="grey">+trial_inertial_force</text>
<text text-anchor="middle" x="510.7" y="-1104.2" font-family="Consolas" font-size="11.00" fill="grey">+trial_resistance</text>
<text text-anchor="middle" x="510.7" y="-1092.2" font-family="Consolas" font-size="11.00" fill="grey">+trial_traction</text>
<text text-anchor="middle" x="510.7" y="-1080.2" font-family="Consolas" font-size="11.00" fill="grey">...</text>
</g>
<!-- Node10 -->
<g id="Node000010" class="node">
<title>Node10</title>
<g id="a_Node000010"><a xlink:title=" ">
<polygon fill="white" stroke="transparent" points="618.2,-1335 567.2,-1335 567.2,-1283 618.2,-1283 618.2,-1335"/>
<text text-anchor="start" x="572.7" y="-1322.2" font-family="Consolas" font-size="11.00">cx_mat</text>
<text text-anchor="start" x="589.7" y="-1306.2" font-family="Consolas" font-size="11.00"> </text>
<text text-anchor="start" x="589.7" y="-1290.2" font-family="Consolas" font-size="11.00"> </text>
<polygon fill="#666666" stroke="#666666" points="567.7,-1317 567.7,-1317 618.7,-1317 618.7,-1317 567.7,-1317"/>
<polygon fill="#666666" stroke="#666666" points="567.7,-1301 567.7,-1301 618.7,-1301 618.7,-1301 567.7,-1301"/>
<polygon fill="none" stroke="#666666" points="567.2,-1283 567.2,-1335 618.2,-1335 618.2,-1283 567.2,-1283"/>
</a>
</g>
</g>
<!-- Node10&#45;&gt;Node5 -->
<g id="edge9_Node000005_Node000010" class="edge">
<title>Node10&#45;&gt;Node5</title>
<g id="a_edge9_Node000005_Node000010"><a xlink:title=" ">
<path fill="none" stroke="#63b8ff" d="M592.7,-1282.85C592.7,-1230.46 592.7,-1106.88 592.7,-1015.45"/>
<polygon fill="none" stroke="#63b8ff" points="592.7,-1015.34 588.7,-1009.34 592.7,-1003.34 596.7,-1009.33 592.7,-1015.34"/>
</a>
</g>
<text text-anchor="start" x="592.7" y="-1158.2" font-family="Consolas" font-size="11.00" fill="grey"> +current_nonviscous</text>
<text text-anchor="middle" x="660.7" y="-1146.2" font-family="Consolas" font-size="11.00" fill="grey">_force</text>
<text text-anchor="start" x="592.7" y="-1134.2" font-family="Consolas" font-size="11.00" fill="grey">+trial_nonviscous</text>
<text text-anchor="middle" x="660.7" y="-1122.2" font-family="Consolas" font-size="11.00" fill="grey">_force</text>
</g>
<!-- Node11 -->
<g id="Node000011" class="node">
<title>Node11</title>
<g id="a_Node000011"><a xlink:title=" ">
<polygon fill="white" stroke="transparent" points="777.2,-1335 726.2,-1335 726.2,-1283 777.2,-1283 777.2,-1335"/>
<text text-anchor="start" x="731.7" y="-1322.2" font-family="Consolas" font-size="11.00">double</text>
<text text-anchor="start" x="748.7" y="-1306.2" font-family="Consolas" font-size="11.00"> </text>
<text text-anchor="start" x="748.7" y="-1290.2" font-family="Consolas" font-size="11.00"> </text>
<polygon fill="#666666" stroke="#666666" points="726.7,-1317 726.7,-1317 777.7,-1317 777.7,-1317 726.7,-1317"/>
<polygon fill="#666666" stroke="#666666" points="726.7,-1301 726.7,-1301 777.7,-1301 777.7,-1301 726.7,-1301"/>
<polygon fill="none" stroke="#666666" points="726.2,-1283 726.2,-1335 777.2,-1335 777.2,-1283 726.2,-1283"/>
</a>
</g>
</g>
<!-- Node11&#45;&gt;Node5 -->
<g id="edge10_Node000005_Node000011" class="edge">
<title>Node11&#45;&gt;Node5</title>
<g id="a_edge10_Node000005_Node000011"><a xlink:title=" ">
<path fill="none" stroke="#63b8ff" d="M751.11,-1282.71C749.6,-1230.74 744.61,-1113.77 729.7,-1077 716.9,-1045.45 696.31,-1015.05 674.93,-988.87"/>
<polygon fill="none" stroke="#63b8ff" points="674.73,-988.62 667.81,-986.58 667.03,-979.41 673.95,-981.45 674.73,-988.62"/>
</a>
</g>
<text text-anchor="middle" x="825.7" y="-1170.2" font-family="Consolas" font-size="11.00" fill="grey"> +characteristic_length</text>
<text text-anchor="middle" x="825.7" y="-1158.2" font-family="Consolas" font-size="11.00" fill="grey">+complementary_energy</text>
<text text-anchor="middle" x="825.7" y="-1146.2" font-family="Consolas" font-size="11.00" fill="grey">+kinetic_energy</text>
<text text-anchor="middle" x="825.7" y="-1134.2" font-family="Consolas" font-size="11.00" fill="grey">+nonviscous_energy</text>
<text text-anchor="middle" x="825.7" y="-1122.2" font-family="Consolas" font-size="11.00" fill="grey">+strain_energy</text>
<text text-anchor="middle" x="825.7" y="-1110.2" font-family="Consolas" font-size="11.00" fill="grey">+viscous_energy</text>
</g>
<!-- Node12 -->
<g id="Node000012" class="node">
<title>Node12</title>
<g id="a_Node000012"><a xlink:href="../../d4/d6b/class_element_base.html" target="_top" xlink:title="A ElementBase class.">
<polygon fill="white" stroke="transparent" points="1024.2,-1059 809.2,-1059 809.2,-751 1024.2,-751 1024.2,-1059"/>
<text text-anchor="start" x="879.7" y="-1046.2" font-family="Consolas" font-size="11.00">ElementBase</text>
<text text-anchor="start" x="913.7" y="-1030.2" font-family="Consolas" font-size="11.00"> </text>
<text text-anchor="start" x="813.7" y="-1014.2" font-family="Consolas" font-size="11.00">+</text>
<text text-anchor="start" x="824.7" y="-1014.2" font-family="Consolas" font-size="11.00">ElementBase()</text>
<text text-anchor="start" x="813.7" y="-998.2" font-family="Consolas" font-size="11.00">+</text>
<text text-anchor="start" x="824.7" y="-998.2" font-family="Consolas" font-size="11.00">initialize_base()</text>
<text text-anchor="start" x="813.7" y="-982.2" font-family="Consolas" font-size="11.00">+</text>
<text text-anchor="start" x="824.7" y="-982.2" font-family="Consolas" font-size="11.00">initialize()</text>
<text text-anchor="start" x="813.7" y="-966.2" font-family="Consolas" font-size="11.00">+</text>
<text text-anchor="start" x="824.7" y="-966.2" font-family="Consolas" font-size="11.00">set_initialized()</text>
<text text-anchor="start" x="813.7" y="-950.2" font-family="Consolas" font-size="11.00">+</text>
<text text-anchor="start" x="824.7" y="-950.2" font-family="Consolas" font-size="11.00">set_symmetric()</text>
<text text-anchor="start" x="813.7" y="-934.2" font-family="Consolas" font-size="11.00">+</text>
<text text-anchor="start" x="824.7" y="-934.2" font-family="Consolas" font-size="11.00">is_initialized()</text>
<text text-anchor="start" x="813.7" y="-918.2" font-family="Consolas" font-size="11.00">+</text>
<text text-anchor="start" x="824.7" y="-918.2" font-family="Consolas" font-size="11.00">is_symmetric()</text>
<text text-anchor="start" x="813.7" y="-902.2" font-family="Consolas" font-size="11.00">+</text>
<text text-anchor="start" x="824.7" y="-902.2" font-family="Consolas" font-size="11.00">is_nlgeom()</text>
<text text-anchor="start" x="813.7" y="-886.2" font-family="Consolas" font-size="11.00">+</text>
<text text-anchor="start" x="824.7" y="-886.2" font-family="Consolas" font-size="11.00">update_dof_encoding()</text>
<text text-anchor="start" x="813.7" y="-870.2" font-family="Consolas" font-size="11.00">+</text>
<text text-anchor="start" x="824.7" y="-870.2" font-family="Consolas" font-size="11.00">if_update_mass()</text>
<text text-anchor="start" x="824.7" y="-854.2" font-family="Consolas" font-size="11.00">and 74 more...</text>
<text text-anchor="start" x="813.7" y="-838.2" font-family="Consolas" font-size="11.00">#</text>
<text text-anchor="start" x="824.7" y="-838.2" font-family="Consolas" font-size="11.00">get_coordinate()</text>
<text text-anchor="start" x="813.7" y="-822.2" font-family="Consolas" font-size="11.00">#</text>
<text text-anchor="start" x="824.7" y="-822.2" font-family="Consolas" font-size="11.00">get_node_incre_resistance()</text>
<text text-anchor="start" x="813.7" y="-806.2" font-family="Consolas" font-size="11.00">#</text>
<text text-anchor="start" x="824.7" y="-806.2" font-family="Consolas" font-size="11.00">get_node_trial_resistance()</text>
<text text-anchor="start" x="813.7" y="-790.2" font-family="Consolas" font-size="11.00">#</text>
<text text-anchor="start" x="824.7" y="-790.2" font-family="Consolas" font-size="11.00">get_node_current_resistance()</text>
<text text-anchor="start" x="813.7" y="-774.2" font-family="Consolas" font-size="11.00">#</text>
<text text-anchor="start" x="824.7" y="-774.2" font-family="Consolas" font-size="11.00">get_material()</text>
<text text-anchor="start" x="813.7" y="-758.2" font-family="Consolas" font-size="11.00">#</text>
<text text-anchor="start" x="824.7" y="-758.2" font-family="Consolas" font-size="11.00">get_section()</text>
<polygon fill="#666666" stroke="#666666" points="809.7,-1041 809.7,-1041 1024.7,-1041 1024.7,-1041 809.7,-1041"/>
<polygon fill="#666666" stroke="#666666" points="809.7,-1025 809.7,-1025 1024.7,-1025 1024.7,-1025 809.7,-1025"/>
<polygon fill="none" stroke="#666666" points="809.2,-751 809.2,-1059 1024.2,-1059 1024.2,-751 809.2,-751"/>
</a>
</g>
</g>
<!-- Node12&#45;&gt;Node4 -->
<g id="edge11_Node000004_Node000012" class="edge">
<title>Node12&#45;&gt;Node4</title>
<g id="a_edge11_Node000004_Node000012"><a xlink:title=" ">
<path fill="none" stroke="#63b8ff" d="M839.58,-741.51C833.52,-728.74 827.42,-715.87 821.39,-703.16"/>
<polygon fill="none" stroke="#63b8ff" points="836.54,-743.26 843.99,-750.79 842.86,-740.25 836.54,-743.26"/>
</a>
</g>
</g>
<!-- Node13 -->
<g id="Node000013" class="node">
<title>Node13</title>
<g id="a_Node000013"><a xlink:href="../../db/db8/class_unique_tag.html" target="_top" xlink:title=" ">
<polygon fill="white" stroke="transparent" points="1189.2,-1391 1088.2,-1391 1088.2,-1227 1189.2,-1227 1189.2,-1391"/>
<text text-anchor="start" x="1108.7" y="-1378.2" font-family="Consolas" font-size="11.00">UniqueTag</text>
<text text-anchor="start" x="1135.7" y="-1362.2" font-family="Consolas" font-size="11.00"> </text>
<text text-anchor="start" x="1092.7" y="-1346.2" font-family="Consolas" font-size="11.00">+</text>
<text text-anchor="start" x="1103.7" y="-1346.2" font-family="Consolas" font-size="11.00">UniqueTag()</text>
<text text-anchor="start" x="1092.7" y="-1330.2" font-family="Consolas" font-size="11.00">+</text>
<text text-anchor="start" x="1103.7" y="-1330.2" font-family="Consolas" font-size="11.00">UniqueTag()</text>
<text text-anchor="start" x="1092.7" y="-1314.2" font-family="Consolas" font-size="11.00">+</text>
<text text-anchor="start" x="1103.7" y="-1314.2" font-family="Consolas" font-size="11.00">operator=()</text>
<text text-anchor="start" x="1092.7" y="-1298.2" font-family="Consolas" font-size="11.00">+</text>
<text text-anchor="start" x="1103.7" y="-1298.2" font-family="Consolas" font-size="11.00">operator=()</text>
<text text-anchor="start" x="1092.7" y="-1282.2" font-family="Consolas" font-size="11.00">+</text>
<text text-anchor="start" x="1103.7" y="-1282.2" font-family="Consolas" font-size="11.00">~UniqueTag()</text>
<text text-anchor="start" x="1092.7" y="-1266.2" font-family="Consolas" font-size="11.00">+</text>
<text text-anchor="start" x="1103.7" y="-1266.2" font-family="Consolas" font-size="11.00">Tag()</text>
<text text-anchor="start" x="1092.7" y="-1250.2" font-family="Consolas" font-size="11.00">+</text>
<text text-anchor="start" x="1103.7" y="-1250.2" font-family="Consolas" font-size="11.00">Tag()</text>
<text text-anchor="start" x="1092.7" y="-1234.2" font-family="Consolas" font-size="11.00">+</text>
<text text-anchor="start" x="1103.7" y="-1234.2" font-family="Consolas" font-size="11.00">Tag()</text>
<polygon fill="#666666" stroke="#666666" points="1088.7,-1373 1088.7,-1373 1189.7,-1373 1189.7,-1373 1088.7,-1373"/>
<polygon fill="#666666" stroke="#666666" points="1088.7,-1357 1088.7,-1357 1189.7,-1357 1189.7,-1357 1088.7,-1357"/>
<polygon fill="none" stroke="#666666" points="1088.2,-1227 1088.2,-1391 1189.2,-1391 1189.2,-1227 1088.2,-1227"/>
</a>
</g>
</g>
<!-- Node13&#45;&gt;Node12 -->
<g id="edge12_Node000012_Node000013" class="edge">
<title>Node13&#45;&gt;Node12</title>
<g id="a_edge12_Node000012_Node000013"><a xlink:title=" ">
<path fill="none" stroke="#63b8ff" d="M1112.21,-1217.36C1097.25,-1173.26 1076.21,-1120.51 1049.7,-1077 1044.13,-1067.86 1040.51,-1067.26 1033.7,-1059 1030.61,-1055.26 1027.5,-1051.45 1024.38,-1047.6"/>
<polygon fill="none" stroke="#63b8ff" points="1108.91,-1218.55 1115.4,-1226.92 1115.55,-1216.33 1108.91,-1218.55"/>
</a>
</g>
</g>
<!-- Node14 -->
<g id="Node000014" class="node">
<title>Node14</title>
<g id="a_Node000014"><a xlink:href="../../d0/d57/class_tag.html" target="_top" xlink:title="A base Tag class.">
<polygon fill="white" stroke="transparent" points="1189.2,-1704 1088.2,-1704 1088.2,-1428 1189.2,-1428 1189.2,-1704"/>
<text text-anchor="start" x="1128.7" y="-1691.2" font-family="Consolas" font-size="11.00">Tag</text>
<text text-anchor="start" x="1135.7" y="-1675.2" font-family="Consolas" font-size="11.00"> </text>
<text text-anchor="start" x="1092.7" y="-1659.2" font-family="Consolas" font-size="11.00">+</text>
<text text-anchor="start" x="1103.7" y="-1659.2" font-family="Consolas" font-size="11.00">Tag()</text>
<text text-anchor="start" x="1092.7" y="-1643.2" font-family="Consolas" font-size="11.00">+</text>
<text text-anchor="start" x="1103.7" y="-1643.2" font-family="Consolas" font-size="11.00">Tag()</text>
<text text-anchor="start" x="1092.7" y="-1627.2" font-family="Consolas" font-size="11.00">+</text>
<text text-anchor="start" x="1103.7" y="-1627.2" font-family="Consolas" font-size="11.00">Tag()</text>
<text text-anchor="start" x="1092.7" y="-1611.2" font-family="Consolas" font-size="11.00">+</text>
<text text-anchor="start" x="1103.7" y="-1611.2" font-family="Consolas" font-size="11.00">operator=()</text>
<text text-anchor="start" x="1092.7" y="-1595.2" font-family="Consolas" font-size="11.00">+</text>
<text text-anchor="start" x="1103.7" y="-1595.2" font-family="Consolas" font-size="11.00">operator=()</text>
<text text-anchor="start" x="1092.7" y="-1579.2" font-family="Consolas" font-size="11.00">+</text>
<text text-anchor="start" x="1103.7" y="-1579.2" font-family="Consolas" font-size="11.00">~Tag()</text>
<text text-anchor="start" x="1092.7" y="-1563.2" font-family="Consolas" font-size="11.00">+</text>
<text text-anchor="start" x="1103.7" y="-1563.2" font-family="Consolas" font-size="11.00">set_tag()</text>
<text text-anchor="start" x="1092.7" y="-1547.2" font-family="Consolas" font-size="11.00">+</text>
<text text-anchor="start" x="1103.7" y="-1547.2" font-family="Consolas" font-size="11.00">get_tag()</text>
<text text-anchor="start" x="1092.7" y="-1531.2" font-family="Consolas" font-size="11.00">+</text>
<text text-anchor="start" x="1103.7" y="-1531.2" font-family="Consolas" font-size="11.00">enable()</text>
<text text-anchor="start" x="1092.7" y="-1515.2" font-family="Consolas" font-size="11.00">+</text>
<text text-anchor="start" x="1103.7" y="-1515.2" font-family="Consolas" font-size="11.00">disable()</text>
<text text-anchor="start" x="1092.7" y="-1499.2" font-family="Consolas" font-size="11.00">+</text>
<text text-anchor="start" x="1103.7" y="-1499.2" font-family="Consolas" font-size="11.00">guard()</text>
<text text-anchor="start" x="1092.7" y="-1483.2" font-family="Consolas" font-size="11.00">+</text>
<text text-anchor="start" x="1103.7" y="-1483.2" font-family="Consolas" font-size="11.00">unguard()</text>
<text text-anchor="start" x="1092.7" y="-1467.2" font-family="Consolas" font-size="11.00">+</text>
<text text-anchor="start" x="1103.7" y="-1467.2" font-family="Consolas" font-size="11.00">is_active()</text>
<text text-anchor="start" x="1092.7" y="-1451.2" font-family="Consolas" font-size="11.00">+</text>
<text text-anchor="start" x="1103.7" y="-1451.2" font-family="Consolas" font-size="11.00">is_guarded()</text>
<text text-anchor="start" x="1092.7" y="-1435.2" font-family="Consolas" font-size="11.00">+</text>
<text text-anchor="start" x="1103.7" y="-1435.2" font-family="Consolas" font-size="11.00">print()</text>
<polygon fill="#666666" stroke="#666666" points="1088.7,-1686 1088.7,-1686 1189.7,-1686 1189.7,-1686 1088.7,-1686"/>
<polygon fill="#666666" stroke="#666666" points="1088.7,-1670 1088.7,-1670 1189.7,-1670 1189.7,-1670 1088.7,-1670"/>
<polygon fill="none" stroke="#666666" points="1088.2,-1428 1088.2,-1704 1189.2,-1704 1189.2,-1428 1088.2,-1428"/>
</a>
</g>
</g>
<!-- Node14&#45;&gt;Node13 -->
<g id="edge13_Node000013_Node000014" class="edge">
<title>Node14&#45;&gt;Node13</title>
<g id="a_edge13_Node000013_Node000014"><a xlink:title=" ">
<path fill="none" stroke="#63b8ff" d="M1138.7,-1417.58C1138.7,-1408.58 1138.7,-1399.71 1138.7,-1391.17"/>
<polygon fill="none" stroke="#63b8ff" points="1135.2,-1417.8 1138.7,-1427.8 1142.2,-1417.8 1135.2,-1417.8"/>
</a>
</g>
</g>
<!-- Node15 -->
<g id="Node000015" class="node">
<title>Node15</title>
<g id="a_Node000015"><a xlink:href="../../db/ddc/classvtk_base.html" target="_top" xlink:title="The vtkBase class.">
<polygon fill="white" stroke="transparent" points="1069.7,-1335 1011.7,-1335 1011.7,-1283 1069.7,-1283 1069.7,-1335"/>
<text text-anchor="start" x="1016.7" y="-1322.2" font-family="Consolas" font-size="11.00">vtkBase</text>
<text text-anchor="start" x="1037.2" y="-1306.2" font-family="Consolas" font-size="11.00"> </text>
<text text-anchor="start" x="1037.2" y="-1290.2" font-family="Consolas" font-size="11.00"> </text>
<polygon fill="#666666" stroke="#666666" points="1011.7,-1317 1011.7,-1317 1069.7,-1317 1069.7,-1317 1011.7,-1317"/>
<polygon fill="#666666" stroke="#666666" points="1011.7,-1301 1011.7,-1301 1069.7,-1301 1069.7,-1301 1011.7,-1301"/>
<polygon fill="none" stroke="#666666" points="1011.7,-1283 1011.7,-1335 1069.7,-1335 1069.7,-1283 1011.7,-1283"/>
</a>
</g>
</g>
<!-- Node15&#45;&gt;Node12 -->
<g id="edge14_Node000012_Node000015" class="edge">
<title>Node15&#45;&gt;Node12</title>
<g id="a_edge14_Node000012_Node000015"><a xlink:title=" ">
<path fill="none" stroke="#63b8ff" d="M1043.98,-1272.86C1047.08,-1226.68 1048.48,-1143.6 1026.7,-1077 1024.75,-1071.04 1022.54,-1065.09 1020.12,-1059.17"/>
<polygon fill="none" stroke="#63b8ff" points="1040.48,-1272.73 1043.23,-1282.96 1047.46,-1273.24 1040.48,-1272.73"/>
</a>
</g>
</g>
<!-- Node16&#45;&gt;Node4 -->
<g id="edge15_Node000004_Node000016" class="edge">
<title>Node16&#45;&gt;Node4</title>
<g id="a_edge15_Node000004_Node000016"><a xlink:title=" ">
<path fill="none" stroke="#63b8ff" d="M361.64,-864.26C428.95,-809.61 551.89,-709.79 641.19,-637.28"/>
<polygon fill="none" stroke="#63b8ff" points="359.27,-861.68 353.72,-870.7 363.69,-867.11 359.27,-861.68"/>
</a>
</g>
</g>
<!-- Node17 -->
<g id="Node000017" class="node">
<title>Node17</title>
<g id="a_Node000017"><a xlink:title=" ">
<polygon fill="white" stroke="transparent" points="1194.7,-937 1042.7,-937 1042.7,-873 1194.7,-873 1194.7,-937"/>
<text text-anchor="start" x="1047.7" y="-924.2" font-family="Consolas" font-size="11.00">vector&lt; std::weak_ptr</text>
<text text-anchor="start" x="1084.7" y="-912.2" font-family="Consolas" font-size="11.00">&lt; Node &gt; &gt;</text>
<text text-anchor="start" x="1115.2" y="-896.2" font-family="Consolas" font-size="11.00"> </text>
<text text-anchor="start" x="1115.2" y="-880.2" font-family="Consolas" font-size="11.00"> </text>
<polygon fill="#666666" stroke="#666666" points="1042.7,-907 1042.7,-907 1194.7,-907 1194.7,-907 1042.7,-907"/>
<polygon fill="#666666" stroke="#666666" points="1042.7,-891 1042.7,-891 1194.7,-891 1194.7,-891 1042.7,-891"/>
<polygon fill="none" stroke="#666666" points="1042.7,-873 1042.7,-937 1194.7,-937 1194.7,-873 1042.7,-873"/>
</a>
</g>
</g>
<!-- Node17&#45;&gt;Node4 -->
<g id="edge17_Node000004_Node000017" class="edge">
<title>Node17&#45;&gt;Node4</title>
<g id="a_edge17_Node000004_Node000017"><a xlink:title=" ">
<path fill="none" stroke="#63b8ff" d="M1106.06,-872.7C1091.72,-839.83 1065.95,-787.9 1032.7,-751 985.21,-698.3 921.52,-651.65 866.49,-616.6"/>
<polygon fill="none" stroke="#63b8ff" points="866.47,-616.58 859.27,-616.77 856.32,-610.18 863.53,-610 866.47,-616.58"/>
</a>
</g>
<text text-anchor="middle" x="1047.7" y="-724.2" font-family="Consolas" font-size="11.00" fill="grey"> #node_ptr</text>
</g>
</g>
</svg>
