<?xml version="1.0" encoding="UTF-8" standalone="no"?>
<!DOCTYPE svg PUBLIC "-//W3C//DTD SVG 1.1//EN"
 "http://www.w3.org/Graphics/SVG/1.1/DTD/svg11.dtd">
<!-- Generated by graphviz version 8.1.0 (20230707.0739)
 -->
<!-- Title: Element/Cube/C3D8.cpp Pages: 1 -->
<svg width="1022pt" height="517pt"
 viewBox="0.00 0.00 1022.00 516.50" xmlns="http://www.w3.org/2000/svg" xmlns:xlink="http://www.w3.org/1999/xlink">
<g id="graph0" class="graph" transform="scale(1 1) rotate(0) translate(4 512.5)">
<title>Element/Cube/C3D8.cpp</title>
<!-- Node1 -->
<g id="Node000001" class="node">
<title>Node1</title>
<g id="a_Node000001"><a xlink:title=" ">
<polygon fill="#999999" stroke="#666666" points="741,-508.5 599,-508.5 599,-487 741,-487 741,-508.5"/>
<text text-anchor="middle" x="670" y="-494.05" font-family="Consolas" font-size="11.00">Element/Cube/C3D8.cpp</text>
</a>
</g>
</g>
<!-- Node2 -->
<g id="Node000002" class="node">
<title>Node2</title>
<g id="a_Node000002"><a xlink:href="../../d4/de0/_c3_d8_8h.html" target="_top" xlink:title=" ">
<polygon fill="white" stroke="#666666" points="460,-444.25 408,-444.25 408,-422.75 460,-422.75 460,-444.25"/>
<text text-anchor="middle" x="434" y="-429.8" font-family="Consolas" font-size="11.00">C3D8.h</text>
</a>
</g>
</g>
<!-- Node1&#45;&gt;Node2 -->
<g id="edge1_Node000001_Node000002" class="edge">
<title>Node1&#45;&gt;Node2</title>
<g id="a_edge1_Node000001_Node000002"><a xlink:title=" ">
<path fill="none" stroke="#63b8ff" d="M631.29,-486.54C586.81,-474.81 514.35,-455.69 470.72,-444.19"/>
<polygon fill="#63b8ff" stroke="#63b8ff" points="471.84,-440.6 461.28,-441.43 470.06,-447.37 471.84,-440.6"/>
</a>
</g>
</g>
<!-- Node18 -->
<g id="Node000018" class="node">
<title>Node18</title>
<g id="a_Node000018"><a xlink:href="../../dc/df2/_domain_base_8h.html" target="_top" xlink:title=" ">
<polygon fill="white" stroke="#666666" points="175,-200.75 45,-200.75 45,-179.25 175,-179.25 175,-200.75"/>
<text text-anchor="middle" x="110" y="-186.3" font-family="Consolas" font-size="11.00">Domain/DomainBase.h</text>
</a>
</g>
</g>
<!-- Node1&#45;&gt;Node18 -->
<g id="edge18_Node000001_Node000018" class="edge">
<title>Node1&#45;&gt;Node18</title>
<g id="a_edge18_Node000001_Node000018"><a xlink:title=" ">
<path fill="none" stroke="#63b8ff" d="M598.68,-493.91C458.16,-486.35 159,-459.76 159,-370.25 159,-370.25 159,-370.25 159,-310.75 159,-272.79 137.65,-232.76 123.13,-209.94"/>
<polygon fill="#63b8ff" stroke="#63b8ff" points="125.66,-208.42 117.23,-202 119.82,-212.27 125.66,-208.42"/>
</a>
</g>
</g>
<!-- Node25 -->
<g id="Node000025" class="node">
<title>Node25</title>
<g id="a_Node000025"><a xlink:href="../../dc/d12/_material3_d_8h.html" target="_top" xlink:title=" ">
<polygon fill="white" stroke="#666666" points="642,-451 512,-451 512,-416 642,-416 642,-451"/>
<text text-anchor="start" x="520" y="-436.55" font-family="Consolas" font-size="11.00">Material/Material3D</text>
<text text-anchor="middle" x="577" y="-423.05" font-family="Consolas" font-size="11.00">/Material3D.h</text>
</a>
</g>
</g>
<!-- Node1&#45;&gt;Node25 -->
<g id="edge27_Node000001_Node000025" class="edge">
<title>Node1&#45;&gt;Node25</title>
<g id="a_edge27_Node000001_Node000025"><a xlink:title=" ">
<path fill="none" stroke="#63b8ff" d="M655.06,-486.75C643.24,-478.84 626.26,-467.48 611.16,-457.37"/>
<polygon fill="#63b8ff" stroke="#63b8ff" points="613.32,-453.93 603.07,-451.28 609.43,-459.75 613.32,-453.93"/>
</a>
</g>
</g>
<!-- Node28 -->
<g id="Node000028" class="node">
<title>Node28</title>
<g id="a_Node000028"><a xlink:href="../../d4/d0f/_output_type_8h.html" target="_top" xlink:title=" ">
<polygon fill="white" stroke="#666666" points="1014,-444.25 872,-444.25 872,-422.75 1014,-422.75 1014,-444.25"/>
<text text-anchor="middle" x="943" y="-429.8" font-family="Consolas" font-size="11.00">Recorder/OutputType.h</text>
</a>
</g>
</g>
<!-- Node1&#45;&gt;Node28 -->
<g id="edge31_Node000001_Node000028" class="edge">
<title>Node1&#45;&gt;Node28</title>
<g id="a_edge31_Node000001_Node000028"><a xlink:title=" ">
<path fill="none" stroke="#63b8ff" d="M714.77,-486.54C762.08,-475.75 836.75,-458.73 887.71,-447.11"/>
<polygon fill="#63b8ff" stroke="#63b8ff" points="888.23,-450.35 897.2,-444.72 886.67,-443.53 888.23,-450.35"/>
</a>
</g>
</g>
<!-- Node30 -->
<g id="Node000030" class="node">
<title>Node30</title>
<g id="a_Node000030"><a xlink:href="../../d7/dab/_integration_plan_8h.html" target="_top" xlink:title=" ">
<polygon fill="white" stroke="#666666" points="984,-265 818,-265 818,-243.5 984,-243.5 984,-265"/>
<text text-anchor="middle" x="901" y="-250.55" font-family="Consolas" font-size="11.00">Toolbox/IntegrationPlan.h</text>
</a>
</g>
</g>
<!-- Node1&#45;&gt;Node30 -->
<g id="edge33_Node000001_Node000030" class="edge">
<title>Node1&#45;&gt;Node30</title>
<g id="a_edge33_Node000001_Node000030"><a xlink:title=" ">
<path fill="none" stroke="#63b8ff" d="M741.37,-488.2C768.69,-481.79 798.43,-470.58 820,-451 872.81,-403.05 892.09,-315.41 898.34,-275.73"/>
<polygon fill="#63b8ff" stroke="#63b8ff" points="901.91,-276.45 899.88,-266.06 894.99,-275.45 901.91,-276.45"/>
</a>
</g>
</g>
<!-- Node31 -->
<g id="Node000031" class="node">
<title>Node31</title>
<g id="a_Node000031"><a xlink:href="../../da/d18/shape_8h.html" target="_top" xlink:title=" ">
<polygon fill="white" stroke="#666666" points="709,-265 603,-265 603,-243.5 709,-243.5 709,-265"/>
<text text-anchor="middle" x="656" y="-250.55" font-family="Consolas" font-size="11.00">Toolbox/shape.h</text>
</a>
</g>
</g>
<!-- Node1&#45;&gt;Node31 -->
<g id="edge35_Node000001_Node000031" class="edge">
<title>Node1&#45;&gt;Node31</title>
<g id="a_edge35_Node000001_Node000031"><a xlink:title=" ">
<path fill="none" stroke="#63b8ff" d="M669.42,-486.68C667.31,-450.39 660.09,-325.85 657.21,-276.06"/>
<polygon fill="#63b8ff" stroke="#63b8ff" points="660.66,-276.14 656.59,-266.36 653.67,-276.55 660.66,-276.14"/>
</a>
</g>
</g>
<!-- Node32 -->
<g id="Node000032" class="node">
<title>Node32</title>
<g id="a_Node000032"><a xlink:href="../../d2/d3d/tensor_8h.html" target="_top" xlink:title=" ">
<polygon fill="white" stroke="#666666" points="811,-444.25 699,-444.25 699,-422.75 811,-422.75 811,-444.25"/>
<text text-anchor="middle" x="755" y="-429.8" font-family="Consolas" font-size="11.00">Toolbox/tensor.h</text>
</a>
</g>
</g>
<!-- Node1&#45;&gt;Node32 -->
<g id="edge37_Node000001_Node000032" class="edge">
<title>Node1&#45;&gt;Node32</title>
<g id="a_edge37_Node000001_Node000032"><a xlink:title=" ">
<path fill="none" stroke="#63b8ff" d="M683.66,-486.75C696.84,-477.1 717.03,-462.31 732.57,-450.93"/>
<polygon fill="#63b8ff" stroke="#63b8ff" points="734.09,-453.42 740.09,-444.68 729.96,-447.77 734.09,-453.42"/>
</a>
</g>
</g>
<!-- Node3 -->
<g id="Node000003" class="node">
<title>Node3</title>
<g id="a_Node000003"><a xlink:href="../../dc/d5f/_material_element_8h.html" target="_top" xlink:title=" ">
<polygon fill="white" stroke="#666666" points="483,-380 317,-380 317,-358.5 483,-358.5 483,-380"/>
<text text-anchor="middle" x="400" y="-365.55" font-family="Consolas" font-size="11.00">Element/MaterialElement.h</text>
</a>
</g>
</g>
<!-- Node2&#45;&gt;Node3 -->
<g id="edge2_Node000002_Node000003" class="edge">
<title>Node2&#45;&gt;Node3</title>
<g id="a_edge2_Node000002_Node000003"><a xlink:title=" ">
<path fill="none" stroke="#63b8ff" d="M428.54,-422.5C423.76,-413.75 416.67,-400.78 410.76,-389.95"/>
<polygon fill="#63b8ff" stroke="#63b8ff" points="413.43,-388.53 405.56,-381.43 407.28,-391.89 413.43,-388.53"/>
</a>
</g>
</g>
<!-- Node4 -->
<g id="Node000004" class="node">
<title>Node4</title>
<g id="a_Node000004"><a xlink:href="../../d0/db8/_element_8h.html" target="_top" xlink:title=" ">
<polygon fill="white" stroke="#666666" points="459,-322.5 341,-322.5 341,-301 459,-301 459,-322.5"/>
<text text-anchor="middle" x="400" y="-308.05" font-family="Consolas" font-size="11.00">Element/Element.h</text>
</a>
</g>
</g>
<!-- Node3&#45;&gt;Node4 -->
<g id="edge3_Node000003_Node000004" class="edge">
<title>Node3&#45;&gt;Node4</title>
<g id="a_edge3_Node000003_Node000004"><a xlink:title=" ">
<path fill="none" stroke="#63b8ff" d="M400,-358.07C400,-351.26 400,-342.06 400,-333.73"/>
<polygon fill="#63b8ff" stroke="#63b8ff" points="403.5,-333.86 400,-323.87 396.5,-333.87 403.5,-333.86"/>
</a>
</g>
</g>
<!-- Node17 -->
<g id="Node000017" class="node">
<title>Node17</title>
<g id="a_Node000017"><a xlink:href="../../da/da5/_d_o_f_8h.html" target="_top" xlink:title=" ">
<polygon fill="white" stroke="#666666" points="323,-322.5 235,-322.5 235,-301 323,-301 323,-322.5"/>
<text text-anchor="middle" x="279" y="-308.05" font-family="Consolas" font-size="11.00">Domain/DOF.h</text>
</a>
</g>
</g>
<!-- Node3&#45;&gt;Node17 -->
<g id="edge17_Node000003_Node000017" class="edge">
<title>Node3&#45;&gt;Node17</title>
<g id="a_edge17_Node000003_Node000017"><a xlink:title=" ">
<path fill="none" stroke="#63b8ff" d="M377.81,-358.07C359.04,-349.46 331.93,-337.03 310.85,-327.36"/>
<polygon fill="#63b8ff" stroke="#63b8ff" points="312.6,-323.85 302.05,-322.87 309.68,-330.22 312.6,-323.85"/>
</a>
</g>
</g>
<!-- Node5 -->
<g id="Node000005" class="node">
<title>Node5</title>
<g id="a_Node000005"><a xlink:href="../../d9/d82/_element_base_8h.html" target="_top" xlink:title=" ">
<polygon fill="white" stroke="#666666" points="448,-265 306,-265 306,-243.5 448,-243.5 448,-265"/>
<text text-anchor="middle" x="377" y="-250.55" font-family="Consolas" font-size="11.00">Element/ElementBase.h</text>
</a>
</g>
</g>
<!-- Node4&#45;&gt;Node5 -->
<g id="edge4_Node000004_Node000005" class="edge">
<title>Node4&#45;&gt;Node5</title>
<g id="a_edge4_Node000004_Node000005"><a xlink:title=" ">
<path fill="none" stroke="#63b8ff" d="M395.78,-300.57C392.86,-293.53 388.88,-283.92 385.34,-275.37"/>
<polygon fill="#63b8ff" stroke="#63b8ff" points="388.25,-274.26 381.19,-266.37 381.79,-276.94 388.25,-274.26"/>
</a>
</g>
</g>
<!-- Node6 -->
<g id="Node000006" class="node">
<title>Node6</title>
<g id="a_Node000006"><a xlink:href="../../d2/d4a/_tag_8h.html" target="_top" xlink:title=" ">
<polygon fill="white" stroke="#666666" points="503,-136.5 415,-136.5 415,-115 503,-115 503,-136.5"/>
<text text-anchor="middle" x="459" y="-122.05" font-family="Consolas" font-size="11.00">Domain/Tag.h</text>
</a>
</g>
</g>
<!-- Node5&#45;&gt;Node6 -->
<g id="edge5_Node000005_Node000006" class="edge">
<title>Node5&#45;&gt;Node6</title>
<g id="a_edge5_Node000005_Node000006"><a xlink:title=" ">
<path fill="none" stroke="#63b8ff" d="M374.82,-243.18C371.88,-226.97 368.46,-194.68 382,-172.5 390.43,-158.7 404.72,-148.56 418.71,-141.39"/>
<polygon fill="#63b8ff" stroke="#63b8ff" points="419.72,-144.31 427.28,-136.89 416.74,-137.98 419.72,-144.31"/>
</a>
</g>
</g>
<!-- Node15 -->
<g id="Node000015" class="node">
<title>Node15</title>
<g id="a_Node000015"><a xlink:href="../../d9/dc0/vtk_base_8h.html" target="_top" xlink:title=" ">
<polygon fill="white" stroke="#666666" points="335,-207.5 193,-207.5 193,-172.5 335,-172.5 335,-207.5"/>
<text text-anchor="start" x="201" y="-193.05" font-family="Consolas" font-size="11.00">Element/Visualisation</text>
<text text-anchor="middle" x="264" y="-179.55" font-family="Consolas" font-size="11.00">/vtkBase.h</text>
</a>
</g>
</g>
<!-- Node5&#45;&gt;Node15 -->
<g id="edge14_Node000005_Node000015" class="edge">
<title>Node5&#45;&gt;Node15</title>
<g id="a_edge14_Node000005_Node000015"><a xlink:title=" ">
<path fill="none" stroke="#63b8ff" d="M358.59,-243.11C343.89,-235.01 322.76,-223.37 304.19,-213.14"/>
<polygon fill="#63b8ff" stroke="#63b8ff" points="306.21,-209.71 295.76,-207.95 302.83,-215.84 306.21,-209.71"/>
</a>
</g>
</g>
<!-- Node16 -->
<g id="Node000016" class="node">
<title>Node16</title>
<g id="a_Node000016"><a xlink:href="../../d6/d94/_mapping_d_o_f_8h.html" target="_top" xlink:title=" ">
<polygon fill="white" stroke="#666666" points="527,-200.75 391,-200.75 391,-179.25 527,-179.25 527,-200.75"/>
<text text-anchor="middle" x="459" y="-186.3" font-family="Consolas" font-size="11.00">Element/MappingDOF.h</text>
</a>
</g>
</g>
<!-- Node5&#45;&gt;Node16 -->
<g id="edge15_Node000005_Node000016" class="edge">
<title>Node5&#45;&gt;Node16</title>
<g id="a_edge15_Node000005_Node000016"><a xlink:title=" ">
<path fill="none" stroke="#63b8ff" d="M390.17,-243.25C402.77,-233.69 422,-219.09 436.94,-207.75"/>
<polygon fill="#63b8ff" stroke="#63b8ff" points="438.74,-210.02 444.59,-201.18 434.5,-204.44 438.74,-210.02"/>
</a>
</g>
</g>
<!-- Node7 -->
<g id="Node000007" class="node">
<title>Node7</title>
<g id="a_Node000007"><a xlink:href="../../d8/d8f/suan_pan_8h.html" target="_top" xlink:title=" ">
<polygon fill="white" stroke="#666666" points="666,-79 596,-79 596,-57.5 666,-57.5 666,-79"/>
<text text-anchor="middle" x="631" y="-64.55" font-family="Consolas" font-size="11.00">suanPan.h</text>
</a>
</g>
</g>
<!-- Node6&#45;&gt;Node7 -->
<g id="edge6_Node000006_Node000007" class="edge">
<title>Node6&#45;&gt;Node7</title>
<g id="a_edge6_Node000006_Node000007"><a xlink:title=" ">
<path fill="none" stroke="#63b8ff" d="M490.55,-114.57C518.22,-105.64 558.68,-92.59 589.07,-82.78"/>
<polygon fill="#63b8ff" stroke="#63b8ff" points="589.92,-85.86 598.36,-79.46 587.77,-79.2 589.92,-85.86"/>
</a>
</g>
</g>
<!-- Node8 -->
<g id="Node000008" class="node">
<title>Node8</title>
<g id="a_Node000008"><a xlink:title=" ">
<polygon fill="#e0e0e0" stroke="#999999" points="396,-21.5 332,-21.5 332,0 396,0 396,-21.5"/>
<text text-anchor="middle" x="364" y="-7.05" font-family="Consolas" font-size="11.00">iostream</text>
</a>
</g>
</g>
<!-- Node7&#45;&gt;Node8 -->
<g id="edge7_Node000007_Node000008" class="edge">
<title>Node7&#45;&gt;Node8</title>
<g id="a_edge7_Node000007_Node000008"><a xlink:title=" ">
<path fill="none" stroke="#63b8ff" d="M595.69,-60.48C553.24,-52.27 479.57,-37.74 406.91,-21.87"/>
<polygon fill="#63b8ff" stroke="#63b8ff" points="407.72,-18.24 397.21,-19.52 406.22,-25.08 407.72,-18.24"/>
</a>
</g>
</g>
<!-- Node9 -->
<g id="Node000009" class="node">
<title>Node9</title>
<g id="a_Node000009"><a xlink:title=" ">
<polygon fill="#e0e0e0" stroke="#999999" points="966,-21.5 836,-21.5 836,0 966,0 966,-21.5"/>
<text text-anchor="middle" x="901" y="-7.05" font-family="Consolas" font-size="11.00">armadillo/armadillo</text>
</a>
</g>
</g>
<!-- Node7&#45;&gt;Node9 -->
<g id="edge8_Node000007_Node000009" class="edge">
<title>Node7&#45;&gt;Node9</title>
<g id="a_edge8_Node000007_Node000009"><a xlink:title=" ">
<path fill="none" stroke="#63b8ff" d="M666.3,-59.99C710.56,-50.9 787.14,-35.16 840.75,-24.14"/>
<polygon fill="#63b8ff" stroke="#63b8ff" points="841.39,-27.37 850.48,-21.93 839.98,-20.51 841.39,-27.37"/>
</a>
</g>
</g>
<!-- Node10 -->
<g id="Node000010" class="node">
<title>Node10</title>
<g id="a_Node000010"><a xlink:title=" ">
<polygon fill="#e0e0e0" stroke="#999999" points="490,-21.5 414,-21.5 414,0 490,0 490,-21.5"/>
<text text-anchor="middle" x="452" y="-7.05" font-family="Consolas" font-size="11.00">filesystem</text>
</a>
</g>
</g>
<!-- Node7&#45;&gt;Node10 -->
<g id="edge9_Node000007_Node000010" class="edge">
<title>Node7&#45;&gt;Node10</title>
<g id="a_edge9_Node000007_Node000010"><a xlink:title=" ">
<path fill="none" stroke="#63b8ff" d="M598.17,-57.07C569.24,-48.1 526.9,-34.97 495.22,-25.15"/>
<polygon fill="#63b8ff" stroke="#63b8ff" points="496.51,-21.58 485.93,-21.96 494.44,-28.26 496.51,-21.58"/>
</a>
</g>
</g>
<!-- Node11 -->
<g id="Node000011" class="node">
<title>Node11</title>
<g id="a_Node000011"><a xlink:title=" ">
<polygon fill="#e0e0e0" stroke="#999999" points="590,-21.5 508,-21.5 508,0 590,0 590,-21.5"/>
<text text-anchor="middle" x="549" y="-7.05" font-family="Consolas" font-size="11.00">fmt/color.h</text>
</a>
</g>
</g>
<!-- Node7&#45;&gt;Node11 -->
<g id="edge10_Node000007_Node000011" class="edge">
<title>Node7&#45;&gt;Node11</title>
<g id="a_edge10_Node000007_Node000011"><a xlink:title=" ">
<path fill="none" stroke="#63b8ff" d="M615.96,-57.07C603.94,-48.93 586.86,-37.37 572.96,-27.97"/>
<polygon fill="#63b8ff" stroke="#63b8ff" points="575.19,-24.57 564.94,-21.87 571.26,-30.37 575.19,-24.57"/>
</a>
</g>
</g>
<!-- Node12 -->
<g id="Node000012" class="node">
<title>Node12</title>
<g id="a_Node000012"><a xlink:title=" ">
<polygon fill="#e0e0e0" stroke="#999999" points="654,-21.5 608,-21.5 608,0 654,0 654,-21.5"/>
<text text-anchor="middle" x="631" y="-7.05" font-family="Consolas" font-size="11.00">mutex</text>
</a>
</g>
</g>
<!-- Node7&#45;&gt;Node12 -->
<g id="edge11_Node000007_Node000012" class="edge">
<title>Node7&#45;&gt;Node12</title>
<g id="a_edge11_Node000007_Node000012"><a xlink:title=" ">
<path fill="none" stroke="#63b8ff" d="M631,-57.07C631,-50.26 631,-41.06 631,-32.73"/>
<polygon fill="#63b8ff" stroke="#63b8ff" points="634.5,-32.86 631,-22.87 627.5,-32.87 634.5,-32.86"/>
</a>
</g>
</g>
<!-- Node13 -->
<g id="Node000013" class="node">
<title>Node13</title>
<g id="a_Node000013"><a xlink:title=" ">
<polygon fill="#e0e0e0" stroke="#999999" points="748,-21.5 672,-21.5 672,0 748,0 748,-21.5"/>
<text text-anchor="middle" x="710" y="-7.05" font-family="Consolas" font-size="11.00">functional</text>
</a>
</g>
</g>
<!-- Node7&#45;&gt;Node13 -->
<g id="edge12_Node000007_Node000013" class="edge">
<title>Node7&#45;&gt;Node13</title>
<g id="a_edge12_Node000007_Node000013"><a xlink:title=" ">
<path fill="none" stroke="#63b8ff" d="M645.49,-57.07C657.07,-48.93 673.53,-37.37 686.92,-27.97"/>
<polygon fill="#63b8ff" stroke="#63b8ff" points="688.43,-30.48 694.6,-21.87 684.41,-24.75 688.43,-30.48"/>
</a>
</g>
</g>
<!-- Node14 -->
<g id="Node000014" class="node">
<title>Node14</title>
<g id="a_Node000014"><a xlink:title=" ">
<polygon fill="#e0e0e0" stroke="#999999" points="818,-21.5 766,-21.5 766,0 818,0 818,-21.5"/>
<text text-anchor="middle" x="792" y="-7.05" font-family="Consolas" font-size="11.00">memory</text>
</a>
</g>
</g>
<!-- Node7&#45;&gt;Node14 -->
<g id="edge13_Node000007_Node000014" class="edge">
<title>Node7&#45;&gt;Node14</title>
<g id="a_edge13_Node000007_Node000014"><a xlink:title=" ">
<path fill="none" stroke="#63b8ff" d="M660.53,-57.07C687.29,-47.85 726.82,-34.22 755.54,-24.32"/>
<polygon fill="#63b8ff" stroke="#63b8ff" points="756.28,-27.42 764.59,-20.85 754,-20.8 756.28,-27.42"/>
</a>
</g>
</g>
<!-- Node16&#45;&gt;Node6 -->
<g id="edge16_Node000016_Node000006" class="edge">
<title>Node16&#45;&gt;Node6</title>
<g id="a_edge16_Node000016_Node000006"><a xlink:title=" ">
<path fill="none" stroke="#63b8ff" d="M459,-179C459,-170.61 459,-158.34 459,-147.8"/>
<polygon fill="#63b8ff" stroke="#63b8ff" points="462.5,-147.93 459,-137.93 455.5,-147.93 462.5,-147.93"/>
</a>
</g>
</g>
<!-- Node18&#45;&gt;Node6 -->
<g id="edge20_Node000018_Node000006" class="edge">
<title>Node18&#45;&gt;Node6</title>
<g id="a_edge20_Node000018_Node000006"><a xlink:title=" ">
<path fill="none" stroke="#63b8ff" d="M153.74,-178.83C163.67,-176.64 174.18,-174.41 184,-172.5 259.94,-157.73 348.26,-143.57 403.89,-135.01"/>
<polygon fill="#63b8ff" stroke="#63b8ff" points="404.22,-138.35 413.57,-133.38 403.16,-131.43 404.22,-138.35"/>
</a>
</g>
</g>
<!-- Node19 -->
<g id="Node000019" class="node">
<title>Node19</title>
<g id="a_Node000019"><a xlink:title=" ">
<polygon fill="#e0e0e0" stroke="#999999" points="245,-136.5 193,-136.5 193,-115 245,-115 245,-136.5"/>
<text text-anchor="middle" x="219" y="-122.05" font-family="Consolas" font-size="11.00">future</text>
</a>
</g>
</g>
<!-- Node18&#45;&gt;Node19 -->
<g id="edge19_Node000018_Node000019" class="edge">
<title>Node18&#45;&gt;Node19</title>
<g id="a_edge19_Node000018_Node000019"><a xlink:title=" ">
<path fill="none" stroke="#63b8ff" d="M127.51,-179C144.81,-169.12 171.52,-153.87 191.62,-142.39"/>
<polygon fill="#63b8ff" stroke="#63b8ff" points="193.22,-144.93 200.17,-136.93 189.75,-138.85 193.22,-144.93"/>
</a>
</g>
</g>
<!-- Node20 -->
<g id="Node000020" class="node">
<title>Node20</title>
<g id="a_Node000020"><a xlink:href="../../d4/ddd/container_8h.html" target="_top" xlink:title=" ">
<polygon fill="white" stroke="#666666" points="175,-136.5 45,-136.5 45,-115 175,-115 175,-136.5"/>
<text text-anchor="middle" x="110" y="-122.05" font-family="Consolas" font-size="11.00">Toolbox/container.h</text>
</a>
</g>
</g>
<!-- Node18&#45;&gt;Node20 -->
<g id="edge21_Node000018_Node000020" class="edge">
<title>Node18&#45;&gt;Node20</title>
<g id="a_edge21_Node000018_Node000020"><a xlink:title=" ">
<path fill="none" stroke="#63b8ff" d="M110,-179C110,-170.61 110,-158.34 110,-147.8"/>
<polygon fill="#63b8ff" stroke="#63b8ff" points="113.5,-147.93 110,-137.93 106.5,-147.93 113.5,-147.93"/>
</a>
</g>
</g>
<!-- Node20&#45;&gt;Node7 -->
<g id="edge22_Node000020_Node000007" class="edge">
<title>Node20&#45;&gt;Node7</title>
<g id="a_edge22_Node000020_Node000007"><a xlink:title=" ">
<path fill="none" stroke="#63b8ff" d="M175.36,-116.03C178.28,-115.68 181.17,-115.33 184,-115 330.15,-97.9 503.61,-81.16 584.78,-73.53"/>
<polygon fill="#63b8ff" stroke="#63b8ff" points="584.98,-76.94 594.61,-72.52 584.33,-69.97 584.98,-76.94"/>
</a>
</g>
</g>
<!-- Node21 -->
<g id="Node000021" class="node">
<title>Node21</title>
<g id="a_Node000021"><a xlink:title=" ">
<polygon fill="#e0e0e0" stroke="#999999" points="34,-79 0,-79 0,-57.5 34,-57.5 34,-79"/>
<text text-anchor="middle" x="17" y="-64.55" font-family="Consolas" font-size="11.00">set</text>
</a>
</g>
</g>
<!-- Node20&#45;&gt;Node21 -->
<g id="edge23_Node000020_Node000021" class="edge">
<title>Node20&#45;&gt;Node21</title>
<g id="a_edge23_Node000020_Node000021"><a xlink:title=" ">
<path fill="none" stroke="#63b8ff" d="M92.94,-114.57C79.05,-106.28 59.19,-94.43 43.27,-84.93"/>
<polygon fill="#63b8ff" stroke="#63b8ff" points="45.33,-81.48 34.95,-79.37 41.74,-87.5 45.33,-81.48"/>
</a>
</g>
</g>
<!-- Node22 -->
<g id="Node000022" class="node">
<title>Node22</title>
<g id="a_Node000022"><a xlink:title=" ">
<polygon fill="#e0e0e0" stroke="#999999" points="86,-79 52,-79 52,-57.5 86,-57.5 86,-79"/>
<text text-anchor="middle" x="69" y="-64.55" font-family="Consolas" font-size="11.00">map</text>
</a>
</g>
</g>
<!-- Node20&#45;&gt;Node22 -->
<g id="edge24_Node000020_Node000022" class="edge">
<title>Node20&#45;&gt;Node22</title>
<g id="a_edge24_Node000020_Node000022"><a xlink:title=" ">
<path fill="none" stroke="#63b8ff" d="M102.48,-114.57C96.99,-107.14 89.39,-96.85 82.82,-87.95"/>
<polygon fill="#63b8ff" stroke="#63b8ff" points="85.23,-86.33 76.47,-80.37 79.6,-90.49 85.23,-86.33"/>
</a>
</g>
</g>
<!-- Node23 -->
<g id="Node000023" class="node">
<title>Node23</title>
<g id="a_Node000023"><a xlink:title=" ">
<polygon fill="#e0e0e0" stroke="#999999" points="198,-79 104,-79 104,-57.5 198,-57.5 198,-79"/>
<text text-anchor="middle" x="151" y="-64.55" font-family="Consolas" font-size="11.00">unordered_set</text>
</a>
</g>
</g>
<!-- Node20&#45;&gt;Node23 -->
<g id="edge25_Node000020_Node000023" class="edge">
<title>Node20&#45;&gt;Node23</title>
<g id="a_edge25_Node000020_Node000023"><a xlink:title=" ">
<path fill="none" stroke="#63b8ff" d="M117.52,-114.57C123.01,-107.14 130.61,-96.85 137.18,-87.95"/>
<polygon fill="#63b8ff" stroke="#63b8ff" points="140.4,-90.49 143.53,-80.37 134.77,-86.33 140.4,-90.49"/>
</a>
</g>
</g>
<!-- Node24 -->
<g id="Node000024" class="node">
<title>Node24</title>
<g id="a_Node000024"><a xlink:title=" ">
<polygon fill="#e0e0e0" stroke="#999999" points="310,-79 216,-79 216,-57.5 310,-57.5 310,-79"/>
<text text-anchor="middle" x="263" y="-64.55" font-family="Consolas" font-size="11.00">unordered_map</text>
</a>
</g>
</g>
<!-- Node20&#45;&gt;Node24 -->
<g id="edge26_Node000020_Node000024" class="edge">
<title>Node20&#45;&gt;Node24</title>
<g id="a_edge26_Node000020_Node000024"><a xlink:title=" ">
<path fill="none" stroke="#63b8ff" d="M138.06,-114.57C162.36,-105.76 197.72,-92.93 224.63,-83.17"/>
<polygon fill="#63b8ff" stroke="#63b8ff" points="225.65,-86.16 233.86,-79.46 223.26,-79.58 225.65,-86.16"/>
</a>
</g>
</g>
<!-- Node26 -->
<g id="Node000026" class="node">
<title>Node26</title>
<g id="a_Node000026"><a xlink:href="../../d3/d09/_material_8h.html" target="_top" xlink:title=" ">
<polygon fill="white" stroke="#666666" points="642,-380 512,-380 512,-358.5 642,-358.5 642,-380"/>
<text text-anchor="middle" x="577" y="-365.55" font-family="Consolas" font-size="11.00">Material/Material.h</text>
</a>
</g>
</g>
<!-- Node25&#45;&gt;Node26 -->
<g id="edge28_Node000025_Node000026" class="edge">
<title>Node25&#45;&gt;Node26</title>
<g id="a_edge28_Node000025_Node000026"><a xlink:title=" ">
<path fill="none" stroke="#63b8ff" d="M577,-415.82C577,-408.17 577,-399.03 577,-390.95"/>
<polygon fill="#63b8ff" stroke="#63b8ff" points="580.5,-391.17 577,-381.17 573.5,-391.17 580.5,-391.17"/>
</a>
</g>
</g>
<!-- Node26&#45;&gt;Node6 -->
<g id="edge29_Node000026_Node000006" class="edge">
<title>Node26&#45;&gt;Node6</title>
<g id="a_edge29_Node000026_Node000006"><a xlink:title=" ">
<path fill="none" stroke="#63b8ff" d="M560.09,-358.21C548.38,-350.19 533.73,-337.79 527,-322.5 500.08,-261.38 569.03,-230.55 536,-172.5 528.2,-158.8 514.5,-148.77 500.8,-141.66"/>
<polygon fill="#63b8ff" stroke="#63b8ff" points="502.44,-138.09 491.91,-136.99 499.45,-144.42 502.44,-138.09"/>
</a>
</g>
</g>
<!-- Node27 -->
<g id="Node000027" class="node">
<title>Node27</title>
<g id="a_Node000027"><a xlink:href="../../df/dec/_parameter_type_8h.html" target="_top" xlink:title=" ">
<polygon fill="white" stroke="#666666" points="642,-322.5 536,-322.5 536,-301 642,-301 642,-322.5"/>
<text text-anchor="middle" x="589" y="-308.05" font-family="Consolas" font-size="11.00">ParameterType.h</text>
</a>
</g>
</g>
<!-- Node26&#45;&gt;Node27 -->
<g id="edge30_Node000026_Node000027" class="edge">
<title>Node26&#45;&gt;Node27</title>
<g id="a_edge30_Node000026_Node000027"><a xlink:title=" ">
<path fill="none" stroke="#63b8ff" d="M579.2,-358.07C580.69,-351.19 582.71,-341.85 584.53,-333.44"/>
<polygon fill="#63b8ff" stroke="#63b8ff" points="588.12,-334.38 586.81,-323.87 581.28,-332.9 588.12,-334.38"/>
</a>
</g>
</g>
<!-- Node29 -->
<g id="Node000029" class="node">
<title>Node29</title>
<g id="a_Node000029"><a xlink:title=" ">
<polygon fill="#e0e0e0" stroke="#999999" points="969,-380 917,-380 917,-358.5 969,-358.5 969,-380"/>
<text text-anchor="middle" x="943" y="-365.55" font-family="Consolas" font-size="11.00">string</text>
</a>
</g>
</g>
<!-- Node28&#45;&gt;Node29 -->
<g id="edge32_Node000028_Node000029" class="edge">
<title>Node28&#45;&gt;Node29</title>
<g id="a_edge32_Node000028_Node000029"><a xlink:title=" ">
<path fill="none" stroke="#63b8ff" d="M943,-422.5C943,-414.11 943,-401.84 943,-391.3"/>
<polygon fill="#63b8ff" stroke="#63b8ff" points="946.5,-391.43 943,-381.43 939.5,-391.43 946.5,-391.43"/>
</a>
</g>
</g>
<!-- Node30&#45;&gt;Node9 -->
<g id="edge34_Node000030_Node000009" class="edge">
<title>Node30&#45;&gt;Node9</title>
<g id="a_edge34_Node000030_Node000009"><a xlink:title=" ">
<path fill="none" stroke="#63b8ff" d="M901,-243.18C901,-206.89 901,-82.35 901,-32.56"/>
<polygon fill="#63b8ff" stroke="#63b8ff" points="904.5,-32.86 901,-22.86 897.5,-32.86 904.5,-32.86"/>
</a>
</g>
</g>
<!-- Node31&#45;&gt;Node7 -->
<g id="edge36_Node000031_Node000007" class="edge">
<title>Node31&#45;&gt;Node7</title>
<g id="a_edge36_Node000031_Node000007"><a xlink:title=" ">
<path fill="none" stroke="#63b8ff" d="M654.62,-243.1C650.65,-213.87 639.14,-129.16 633.79,-89.8"/>
<polygon fill="#63b8ff" stroke="#63b8ff" points="637.16,-89.59 632.34,-80.15 630.22,-90.53 637.16,-89.59"/>
</a>
</g>
</g>
<!-- Node33 -->
<g id="Node000033" class="node">
<title>Node33</title>
<g id="a_Node000033"><a xlink:href="../../d5/d47/utility_8h.html" target="_top" xlink:title=" ">
<polygon fill="white" stroke="#666666" points="816,-380 698,-380 698,-358.5 816,-358.5 816,-380"/>
<text text-anchor="middle" x="757" y="-365.55" font-family="Consolas" font-size="11.00">Toolbox/utility.h</text>
</a>
</g>
</g>
<!-- Node32&#45;&gt;Node33 -->
<g id="edge38_Node000032_Node000033" class="edge">
<title>Node32&#45;&gt;Node33</title>
<g id="a_edge38_Node000032_Node000033"><a xlink:title=" ">
<path fill="none" stroke="#63b8ff" d="M755.32,-422.5C755.59,-414.11 755.99,-401.84 756.32,-391.3"/>
<polygon fill="#63b8ff" stroke="#63b8ff" points="759.85,-391.54 756.67,-381.43 752.85,-391.32 759.85,-391.54"/>
</a>
</g>
</g>
<!-- Node33&#45;&gt;Node7 -->
<g id="edge40_Node000033_Node000007" class="edge">
<title>Node33&#45;&gt;Node7</title>
<g id="a_edge40_Node000033_Node000007"><a xlink:title=" ">
<path fill="none" stroke="#63b8ff" d="M762.01,-358.25C771.24,-338.89 790,-294.69 790,-255.25 790,-255.25 790,-255.25 790,-189 790,-131.81 723.56,-98.52 676.58,-82.13"/>
<polygon fill="#63b8ff" stroke="#63b8ff" points="677.88,-78.54 667.29,-78.7 675.67,-85.18 677.88,-78.54"/>
</a>
</g>
</g>
<!-- Node34 -->
<g id="Node000034" class="node">
<title>Node34</title>
<g id="a_Node000034"><a xlink:title=" ">
<polygon fill="#e0e0e0" stroke="#999999" points="762,-322.5 698,-322.5 698,-301 762,-301 762,-322.5"/>
<text text-anchor="middle" x="730" y="-308.05" font-family="Consolas" font-size="11.00">concepts</text>
</a>
</g>
</g>
<!-- Node33&#45;&gt;Node34 -->
<g id="edge39_Node000033_Node000034" class="edge">
<title>Node33&#45;&gt;Node34</title>
<g id="a_edge39_Node000033_Node000034"><a xlink:title=" ">
<path fill="none" stroke="#63b8ff" d="M752.05,-358.07C748.58,-350.95 743.85,-341.21 739.65,-332.58"/>
<polygon fill="#63b8ff" stroke="#63b8ff" points="742.44,-331.33 734.92,-323.87 736.15,-334.39 742.44,-331.33"/>
</a>
</g>
</g>
</g>
</svg>
