<?xml version="1.0" encoding="UTF-8" standalone="no"?>
<!DOCTYPE svg PUBLIC "-//W3C//DTD SVG 1.1//EN"
 "http://www.w3.org/Graphics/SVG/1.1/DTD/svg11.dtd">
<!-- Generated by graphviz version 2.43.0 (0)
 -->
<!-- Title: DataTanh1D Pages: 1 -->
<svg width="162pt" height="160pt"
 viewBox="0.00 0.00 162.00 160.00" xmlns="http://www.w3.org/2000/svg" xmlns:xlink="http://www.w3.org/1999/xlink">

<svg id="main" version="1.1" xmlns="http://www.w3.org/2000/svg" xmlns:xlink="http://www.w3.org/1999/xlink" xml:space="preserve" onload="init(evt)">
<style type="text/css"><![CDATA[
.node, .edge {opacity: 0.7;}
.node.selected, .edge.selected {opacity: 1;}
.edge:hover path { stroke: red; }
.edge:hover polygon { stroke: red; fill: red; }
]]></style>
<script type="application/ecmascript" xlink:href="../../svg.min.js"/>
<svg id="graph" class="graph">
<g id="graph0" class="graph" transform="scale(1 1) rotate(0) translate(4 156)">
<title>DataTanh1D</title>
<!-- Node1 -->
<g id="Node000001" class="node">
<title>Node1</title>
<g id="a_Node000001"><a xlink:title=" ">
<polygon fill="#999999" stroke="transparent" points="78,-52 0,-52 0,0 78,0 78,-52"/>
<text text-anchor="start" x="5" y="-39.2" font-family="Consolas" font-size="11.00">DataTanh1D</text>
<text text-anchor="start" x="35.5" y="-23.2" font-family="Consolas" font-size="11.00"> </text>
<text text-anchor="start" x="35.5" y="-7.2" font-family="Consolas" font-size="11.00"> </text>
<polygon fill="#666666" stroke="#666666" points="0,-34 0,-34 78,-34 78,-34 0,-34"/>
<polygon fill="#666666" stroke="#666666" points="0,-18 0,-18 78,-18 78,-18 0,-18"/>
<polygon fill="none" stroke="#666666" points="0,0 0,-52 78,-52 78,0 0,0"/>
</a>
</g>
</g>
<!-- Node2 -->
<g id="Node000002" class="node">
<title>Node2</title>
<g id="a_Node000002"><a xlink:title=" ">
<polygon fill="white" stroke="transparent" points="64.5,-152 13.5,-152 13.5,-100 64.5,-100 64.5,-152"/>
<text text-anchor="start" x="19" y="-139.2" font-family="Consolas" font-size="11.00">double</text>
<text text-anchor="start" x="36" y="-123.2" font-family="Consolas" font-size="11.00"> </text>
<text text-anchor="start" x="36" y="-107.2" font-family="Consolas" font-size="11.00"> </text>
<polygon fill="#666666" stroke="#666666" points="14,-134 14,-134 65,-134 65,-134 14,-134"/>
<polygon fill="#666666" stroke="#666666" points="14,-118 14,-118 65,-118 65,-118 14,-118"/>
<polygon fill="none" stroke="#666666" points="13.5,-100 13.5,-152 64.5,-152 64.5,-100 13.5,-100"/>
</a>
</g>
</g>
<!-- Node2&#45;&gt;Node1 -->
<g id="edge1_Node000001_Node000002" class="edge">
<title>Node2&#45;&gt;Node1</title>
<g id="a_edge1_Node000001_Node000002"><a xlink:title=" ">
<path fill="none" stroke="#63b8ff" d="M39,-99.76C39,-89.02 39,-76.26 39,-64.45"/>
<polygon fill="none" stroke="#63b8ff" points="39,-64.15 35,-58.15 39,-52.15 43,-58.15 39,-64.15"/>
</a>
</g>
<text text-anchor="middle" x="96.5" y="-73.2" font-family="Consolas" font-size="11.00" fill="grey"> +elastic_modulus</text>
</g>
</g>
</svg>
</svg>

<style type='text/css'>
<![CDATA[
[data-mouse-over-selected='false'] { opacity: 0.7; }
[data-mouse-over-selected='true']  { opacity: 1.0; }
]]>
</style>
<script type="application/ecmascript"><![CDATA[
document.addEventListener('DOMContentLoaded', (event) => {
  highlightEdges();
  highlightAdjacentNodes();
});
]]></script>
</svg>
