<?xml version="1.0" encoding="UTF-8" standalone="no"?>
<!DOCTYPE svg PUBLIC "-//W3C//DTD SVG 1.1//EN"
 "http://www.w3.org/Graphics/SVG/1.1/DTD/svg11.dtd">
<!-- Generated by graphviz version 8.1.0 (20230707.0739)
 -->
<!-- Title: ElementRecorder::initialize Pages: 1 -->
<svg width="382pt" height="190pt"
 viewBox="0.00 0.00 382.00 189.50" xmlns="http://www.w3.org/2000/svg" xmlns:xlink="http://www.w3.org/1999/xlink">

<svg id="main" version="1.1" xmlns="http://www.w3.org/2000/svg" xmlns:xlink="http://www.w3.org/1999/xlink" xml:space="preserve" onload="init(evt)">
<style type="text/css"><![CDATA[
.node, .edge {opacity: 0.7;}
.node.selected, .edge.selected {opacity: 1;}
.edge:hover path { stroke: red; }
.edge:hover polygon { stroke: red; fill: red; }
]]></style>
<script type="application/ecmascript" xlink:href="../../svg.min.js"/>
<svg id="graph" class="graph">
<g id="graph0" class="graph" transform="scale(1 1) rotate(0) translate(4 185.5)">
<title>ElementRecorder::initialize</title>
<!-- Node1 -->
<g id="Node000001" class="node">
<title>Node1</title>
<g id="a_Node000001"><a xlink:title=" ">
<polygon fill="#999999" stroke="#666666" points="178,-101.5 0,-101.5 0,-80 178,-80 178,-101.5"/>
<text text-anchor="middle" x="89" y="-87.05" font-family="Consolas" font-size="11.00">ElementRecorder::initialize</text>
</a>
</g>
</g>
<!-- Node2 -->
<g id="Node000002" class="node">
<title>Node2</title>
<g id="a_Node000002"><a xlink:href="../../d3/d1a/class_recorder.html#ac25250e64996f0b9962db99809b5e35e" target="_top" xlink:title=" ">
<polygon fill="white" stroke="#666666" points="371,-181.5 217,-181.5 217,-160 371,-160 371,-181.5"/>
<text text-anchor="middle" x="294" y="-167.05" font-family="Consolas" font-size="11.00">Recorder::get_data_pool</text>
</a>
</g>
</g>
<!-- Node1&#45;&gt;Node2 -->
<g id="edge1_Node000001_Node000002" class="edge">
<title>Node1&#45;&gt;Node2</title>
<g id="a_edge1_Node000001_Node000002"><a xlink:title=" ">
<path fill="none" stroke="#63b8ff" d="M109.65,-101.8C133.65,-114.94 175.8,-136.84 214,-150.75 219.79,-152.86 225.9,-154.83 232.05,-156.65"/>
<polygon fill="#63b8ff" stroke="#63b8ff" points="230.81,-160.22 241.39,-159.56 232.71,-153.48 230.81,-160.22"/>
</a>
</g>
</g>
<!-- Node3 -->
<g id="Node000003" class="node">
<title>Node3</title>
<g id="a_Node000003"><a xlink:href="../../d3/d1a/class_recorder.html#ac4a4102be6d05a42ff43190b282166ba" target="_top" xlink:title=" ">
<polygon fill="white" stroke="#666666" points="374,-141.5 214,-141.5 214,-120 374,-120 374,-141.5"/>
<text text-anchor="middle" x="294" y="-127.05" font-family="Consolas" font-size="11.00">Recorder::get_object_tag</text>
</a>
</g>
</g>
<!-- Node1&#45;&gt;Node3 -->
<g id="edge2_Node000001_Node000003" class="edge">
<title>Node1&#45;&gt;Node3</title>
<g id="a_edge2_Node000001_Node000003"><a xlink:title=" ">
<path fill="none" stroke="#63b8ff" d="M147.09,-102C171.41,-106.79 199.96,-112.42 225.33,-117.42"/>
<polygon fill="#63b8ff" stroke="#63b8ff" points="224.5,-121.02 234.99,-119.52 225.86,-114.15 224.5,-121.02"/>
</a>
</g>
</g>
<!-- Node4 -->
<g id="Node000004" class="node">
<title>Node4</title>
<g id="a_Node000004"><a xlink:href="../../d0/d57/class_tag.html#ac0f87379856fb9f3e6f11f4d9971d9f8" target="_top" xlink:title=" ">
<polygon fill="white" stroke="#666666" points="338,-101.5 250,-101.5 250,-80 338,-80 338,-101.5"/>
<text text-anchor="middle" x="294" y="-87.05" font-family="Consolas" font-size="11.00">Tag::get_tag</text>
</a>
</g>
</g>
<!-- Node1&#45;&gt;Node4 -->
<g id="edge3_Node000001_Node000004" class="edge">
<title>Node1&#45;&gt;Node4</title>
<g id="a_edge3_Node000001_Node000004"><a xlink:title=" ">
<path fill="none" stroke="#63b8ff" d="M178.45,-90.75C198.98,-90.75 220.24,-90.75 238.79,-90.75"/>
<polygon fill="#63b8ff" stroke="#63b8ff" points="238.66,-94.25 248.66,-90.75 238.66,-87.25 238.66,-94.25"/>
</a>
</g>
</g>
<!-- Node5 -->
<g id="Node000005" class="node">
<title>Node5</title>
<g id="a_Node000005"><a xlink:href="../../d0/d57/class_tag.html#aeef9db4fab02b36358265f378e703986" target="_top" xlink:title=" ">
<polygon fill="white" stroke="#666666" points="344,-61.5 244,-61.5 244,-40 344,-40 344,-61.5"/>
<text text-anchor="middle" x="294" y="-47.05" font-family="Consolas" font-size="11.00">Tag::is_active</text>
</a>
</g>
</g>
<!-- Node1&#45;&gt;Node5 -->
<g id="edge4_Node000001_Node000005" class="edge">
<title>Node1&#45;&gt;Node5</title>
<g id="a_edge4_Node000001_Node000005"><a xlink:title=" ">
<path fill="none" stroke="#63b8ff" d="M147.09,-79.5C173.9,-74.22 205.87,-67.92 233.03,-62.57"/>
<polygon fill="#63b8ff" stroke="#63b8ff" points="233.44,-65.86 242.57,-60.49 232.09,-58.99 233.44,-65.86"/>
</a>
</g>
</g>
<!-- Node6 -->
<g id="Node000006" class="node">
<title>Node6</title>
<g id="a_Node000006"><a xlink:href="../../d3/d1a/class_recorder.html#a42f06f7b4cca46179bee6a91c9ee7f25" target="_top" xlink:title=" ">
<polygon fill="white" stroke="#666666" points="374,-21.5 214,-21.5 214,0 374,0 374,-21.5"/>
<text text-anchor="middle" x="294" y="-7.05" font-family="Consolas" font-size="11.00">Recorder::set_object_tag</text>
</a>
</g>
</g>
<!-- Node1&#45;&gt;Node6 -->
<g id="edge5_Node000001_Node000006" class="edge">
<title>Node1&#45;&gt;Node6</title>
<g id="a_edge5_Node000001_Node000006"><a xlink:title=" ">
<path fill="none" stroke="#63b8ff" d="M109.65,-79.7C133.65,-66.56 175.8,-44.66 214,-30.75 219.79,-28.64 225.9,-26.67 232.05,-24.85"/>
<polygon fill="#63b8ff" stroke="#63b8ff" points="232.71,-28.02 241.39,-21.94 230.81,-21.28 232.71,-28.02"/>
</a>
</g>
</g>
</g>
</svg>
</svg>

<style type='text/css'>
<![CDATA[
[data-mouse-over-selected='false'] { opacity: 0.7; }
[data-mouse-over-selected='true']  { opacity: 1.0; }
]]>
</style>
<script type="application/ecmascript"><![CDATA[
document.addEventListener('DOMContentLoaded', (event) => {
  highlightEdges();
  highlightAdjacentNodes();
});
]]></script>
</svg>
