<?xml version="1.0" encoding="UTF-8" standalone="no"?>
<!DOCTYPE svg PUBLIC "-//W3C//DTD SVG 1.1//EN"
 "http://www.w3.org/Graphics/SVG/1.1/DTD/svg11.dtd">
<!-- Generated by graphviz version 2.43.0 (0)
 -->
<!-- Title: TrilinearStrainDegradation Pages: 1 -->
<svg width="530pt" height="1188pt"
 viewBox="0.00 0.00 530.00 1188.00" xmlns="http://www.w3.org/2000/svg" xmlns:xlink="http://www.w3.org/1999/xlink">
<g id="graph0" class="graph" transform="scale(1 1) rotate(0) translate(4 1184)">
<title>TrilinearStrainDegradation</title>
<!-- Node1 -->
<g id="Node000001" class="node">
<title>Node1</title>
<g id="a_Node000001"><a xlink:title="The TrilinearStrainDegradation class.">
<polygon fill="#999999" stroke="transparent" points="313,-68 104,-68 104,0 313,0 313,-68"/>
<text text-anchor="start" x="121" y="-55.2" font-family="Consolas" font-size="11.00">TrilinearStrainDegradation</text>
<text text-anchor="start" x="205.5" y="-39.2" font-family="Consolas" font-size="11.00"> </text>
<text text-anchor="start" x="108.5" y="-23.2" font-family="Consolas" font-size="11.00">+</text>
<text text-anchor="start" x="119.5" y="-23.2" font-family="Consolas" font-size="11.00">TrilinearStrainDegradation()</text>
<text text-anchor="start" x="108.5" y="-7.2" font-family="Consolas" font-size="11.00">+</text>
<text text-anchor="start" x="119.5" y="-7.2" font-family="Consolas" font-size="11.00">get_copy()</text>
<polygon fill="#666666" stroke="#666666" points="104.5,-50 104.5,-50 313.5,-50 313.5,-50 104.5,-50"/>
<polygon fill="#666666" stroke="#666666" points="104.5,-34 104.5,-34 313.5,-34 313.5,-34 104.5,-34"/>
<polygon fill="none" stroke="#666666" points="104,0 104,-68 313,-68 313,0 104,0"/>
</a>
</g>
</g>
<!-- Node2 -->
<g id="Node000002" class="node">
<title>Node2</title>
<g id="a_Node000002"><a xlink:href="../../d4/d6b/struct_data_trilinear_strain_degradation.html" target="_top" xlink:title=" ">
<polygon fill="white" stroke="transparent" points="213,-220 0,-220 0,-120 213,-120 213,-220"/>
<text text-anchor="start" x="5.5" y="-207.2" font-family="Consolas" font-size="11.00">DataTrilinearStrainDegradation</text>
<text text-anchor="start" x="39" y="-191.2" font-family="Consolas" font-size="11.00">+</text>
<text text-anchor="start" x="84.5" y="-191.2" font-family="Consolas" font-size="11.00">s_strain</text>
<text text-anchor="start" x="39" y="-175.2" font-family="Consolas" font-size="11.00">+</text>
<text text-anchor="start" x="84.5" y="-175.2" font-family="Consolas" font-size="11.00">e_strain</text>
<text text-anchor="start" x="39" y="-159.2" font-family="Consolas" font-size="11.00">+</text>
<text text-anchor="start" x="84.5" y="-159.2" font-family="Consolas" font-size="11.00">e_damage</text>
<text text-anchor="start" x="39" y="-143.2" font-family="Consolas" font-size="11.00">+</text>
<text text-anchor="start" x="84.5" y="-143.2" font-family="Consolas" font-size="11.00">slope</text>
<text text-anchor="start" x="103.5" y="-127.2" font-family="Consolas" font-size="11.00"> </text>
<polygon fill="#666666" stroke="#666666" points="0.5,-202 0.5,-202 213.5,-202 213.5,-202 0.5,-202"/>
<polygon fill="#666666" stroke="#666666" points="0.5,-138 0.5,-138 82.5,-138 82.5,-138 0.5,-138"/>
<polygon fill="#666666" stroke="#666666" points="82.5,-138 82.5,-138 213.5,-138 213.5,-138 82.5,-138"/>
<polygon fill="none" stroke="#666666" points="0,-120 0,-220 213,-220 213,-120 0,-120"/>
</a>
</g>
</g>
<!-- Node2&#45;&gt;Node1 -->
<g id="edge1_Node000001_Node000002" class="edge">
<title>Node2&#45;&gt;Node1</title>
<g id="a_edge1_Node000001_Node000002"><a xlink:title=" ">
<path fill="none" stroke="darkgreen" d="M150.11,-111.71C161.41,-96.87 173.2,-81.38 183.2,-68.24"/>
<polygon fill="none" stroke="darkgreen" points="147.17,-109.79 143.9,-119.86 152.74,-114.03 147.17,-109.79"/>
</a>
</g>
</g>
<!-- Node3 -->
<g id="Node000003" class="node">
<title>Node3</title>
<g id="a_Node000003"><a xlink:href="../../d6/d69/class_strain_degradation.html" target="_top" xlink:title=" ">
<polygon fill="white" stroke="transparent" points="392,-236 231,-236 231,-104 392,-104 392,-236"/>
<text text-anchor="start" x="254.5" y="-223.2" font-family="Consolas" font-size="11.00">StrainDegradation</text>
<text text-anchor="start" x="308.5" y="-207.2" font-family="Consolas" font-size="11.00"> </text>
<text text-anchor="start" x="235.5" y="-191.2" font-family="Consolas" font-size="11.00">+</text>
<text text-anchor="start" x="246.5" y="-191.2" font-family="Consolas" font-size="11.00">initialize()</text>
<text text-anchor="start" x="235.5" y="-175.2" font-family="Consolas" font-size="11.00">+</text>
<text text-anchor="start" x="246.5" y="-175.2" font-family="Consolas" font-size="11.00">update_trial_status()</text>
<text text-anchor="start" x="235.5" y="-159.2" font-family="Consolas" font-size="11.00">+</text>
<text text-anchor="start" x="246.5" y="-159.2" font-family="Consolas" font-size="11.00">record()</text>
<text text-anchor="start" x="235.5" y="-143.2" font-family="Consolas" font-size="11.00">+</text>
<text text-anchor="start" x="246.5" y="-143.2" font-family="Consolas" font-size="11.00">Degradation()</text>
<text text-anchor="start" x="235.5" y="-127.2" font-family="Consolas" font-size="11.00">+</text>
<text text-anchor="start" x="246.5" y="-127.2" font-family="Consolas" font-size="11.00">Degradation()</text>
<text text-anchor="start" x="235.5" y="-111.2" font-family="Consolas" font-size="11.00">+</text>
<text text-anchor="start" x="246.5" y="-111.2" font-family="Consolas" font-size="11.00">Degradation()</text>
<polygon fill="#666666" stroke="#666666" points="231.5,-218 231.5,-218 392.5,-218 392.5,-218 231.5,-218"/>
<polygon fill="#666666" stroke="#666666" points="231.5,-202 231.5,-202 392.5,-202 392.5,-202 231.5,-202"/>
<polygon fill="none" stroke="#666666" points="231,-104 231,-236 392,-236 392,-104 231,-104"/>
</a>
</g>
</g>
<!-- Node3&#45;&gt;Node1 -->
<g id="edge2_Node000001_Node000003" class="edge">
<title>Node3&#45;&gt;Node1</title>
<g id="a_edge2_Node000001_Node000003"><a xlink:title=" ">
<path fill="none" stroke="#63b8ff" d="M255.26,-95.83C247.83,-86.17 240.54,-76.69 234.01,-68.19"/>
<polygon fill="none" stroke="#63b8ff" points="252.64,-98.17 261.51,-103.96 258.19,-93.9 252.64,-98.17"/>
</a>
</g>
</g>
<!-- Node4 -->
<g id="Node000004" class="node">
<title>Node4</title>
<g id="a_Node000004"><a xlink:href="../../db/d75/class_degradation.html" target="_top" xlink:title="The Degradation class.">
<polygon fill="white" stroke="transparent" points="422.5,-500 200.5,-500 200.5,-272 422.5,-272 422.5,-500"/>
<text text-anchor="start" x="274" y="-487.2" font-family="Consolas" font-size="11.00">Degradation</text>
<text text-anchor="start" x="204.5" y="-471.2" font-family="Consolas" font-size="11.00">#</text>
<text text-anchor="start" x="215.5" y="-471.2" font-family="Consolas" font-size="11.00">base</text>
<text text-anchor="start" x="204.5" y="-455.2" font-family="Consolas" font-size="11.00">+</text>
<text text-anchor="start" x="215.5" y="-455.2" font-family="Consolas" font-size="11.00">Degradation()</text>
<text text-anchor="start" x="204.5" y="-439.2" font-family="Consolas" font-size="11.00">+</text>
<text text-anchor="start" x="215.5" y="-439.2" font-family="Consolas" font-size="11.00">Degradation()</text>
<text text-anchor="start" x="204.5" y="-423.2" font-family="Consolas" font-size="11.00">+</text>
<text text-anchor="start" x="215.5" y="-423.2" font-family="Consolas" font-size="11.00">Degradation()</text>
<text text-anchor="start" x="204.5" y="-407.2" font-family="Consolas" font-size="11.00">+</text>
<text text-anchor="start" x="215.5" y="-407.2" font-family="Consolas" font-size="11.00">operator=()</text>
<text text-anchor="start" x="204.5" y="-391.2" font-family="Consolas" font-size="11.00">+</text>
<text text-anchor="start" x="215.5" y="-391.2" font-family="Consolas" font-size="11.00">operator=()</text>
<text text-anchor="start" x="204.5" y="-375.2" font-family="Consolas" font-size="11.00">+</text>
<text text-anchor="start" x="215.5" y="-375.2" font-family="Consolas" font-size="11.00">~Degradation()</text>
<text text-anchor="start" x="204.5" y="-359.2" font-family="Consolas" font-size="11.00">+</text>
<text text-anchor="start" x="215.5" y="-359.2" font-family="Consolas" font-size="11.00">initialize()</text>
<text text-anchor="start" x="204.5" y="-343.2" font-family="Consolas" font-size="11.00">+</text>
<text text-anchor="start" x="215.5" y="-343.2" font-family="Consolas" font-size="11.00">clear_status()</text>
<text text-anchor="start" x="204.5" y="-327.2" font-family="Consolas" font-size="11.00">+</text>
<text text-anchor="start" x="215.5" y="-327.2" font-family="Consolas" font-size="11.00">commit_status()</text>
<text text-anchor="start" x="204.5" y="-311.2" font-family="Consolas" font-size="11.00">+</text>
<text text-anchor="start" x="215.5" y="-311.2" font-family="Consolas" font-size="11.00">reset_status()</text>
<text text-anchor="start" x="204.5" y="-295.2" font-family="Consolas" font-size="11.00">#</text>
<text text-anchor="start" x="215.5" y="-295.2" font-family="Consolas" font-size="11.00">compute_positive_degradation()</text>
<text text-anchor="start" x="204.5" y="-279.2" font-family="Consolas" font-size="11.00">#</text>
<text text-anchor="start" x="215.5" y="-279.2" font-family="Consolas" font-size="11.00">compute_negative_degradation()</text>
<polygon fill="#666666" stroke="#666666" points="200.5,-482 200.5,-482 422.5,-482 422.5,-482 200.5,-482"/>
<polygon fill="#666666" stroke="#666666" points="200.5,-466 200.5,-466 213.5,-466 213.5,-466 200.5,-466"/>
<polygon fill="#666666" stroke="#666666" points="213.5,-466 213.5,-466 422.5,-466 422.5,-466 213.5,-466"/>
<polygon fill="none" stroke="#666666" points="200.5,-272 200.5,-500 422.5,-500 422.5,-272 200.5,-272"/>
</a>
</g>
</g>
<!-- Node4&#45;&gt;Node3 -->
<g id="edge3_Node000003_Node000004" class="edge">
<title>Node4&#45;&gt;Node3</title>
<g id="a_edge3_Node000003_Node000004"><a xlink:title=" ">
<path fill="none" stroke="#63b8ff" d="M311.5,-261.45C311.5,-252.74 311.5,-244.18 311.5,-236.01"/>
<polygon fill="none" stroke="#63b8ff" points="308,-261.73 311.5,-271.73 315,-261.73 308,-261.73"/>
</a>
</g>
</g>
<!-- Node5 -->
<g id="Node000005" class="node">
<title>Node5</title>
<g id="a_Node000005"><a xlink:href="../../d9/d97/class_material1_d.html" target="_top" xlink:title="A Material1D class.">
<polygon fill="white" stroke="transparent" points="362,-620 261,-620 261,-536 362,-536 362,-620"/>
<text text-anchor="start" x="278" y="-607.2" font-family="Consolas" font-size="11.00">Material1D</text>
<text text-anchor="start" x="308.5" y="-591.2" font-family="Consolas" font-size="11.00"> </text>
<text text-anchor="start" x="265.5" y="-575.2" font-family="Consolas" font-size="11.00">+</text>
<text text-anchor="start" x="276.5" y="-575.2" font-family="Consolas" font-size="11.00">Material1D()</text>
<text text-anchor="start" x="265.5" y="-559.2" font-family="Consolas" font-size="11.00">+</text>
<text text-anchor="start" x="276.5" y="-559.2" font-family="Consolas" font-size="11.00">record()</text>
<text text-anchor="start" x="265.5" y="-543.2" font-family="Consolas" font-size="11.00">+</text>
<text text-anchor="start" x="276.5" y="-543.2" font-family="Consolas" font-size="11.00">print()</text>
<polygon fill="#666666" stroke="#666666" points="261.5,-602 261.5,-602 362.5,-602 362.5,-602 261.5,-602"/>
<polygon fill="#666666" stroke="#666666" points="261.5,-586 261.5,-586 362.5,-586 362.5,-586 261.5,-586"/>
<polygon fill="none" stroke="#666666" points="261,-536 261,-620 362,-620 362,-536 261,-536"/>
</a>
</g>
</g>
<!-- Node5&#45;&gt;Node4 -->
<g id="edge4_Node000004_Node000005" class="edge">
<title>Node5&#45;&gt;Node4</title>
<g id="a_edge4_Node000004_Node000005"><a xlink:title=" ">
<path fill="none" stroke="#63b8ff" d="M311.5,-525.54C311.5,-517.5 311.5,-508.93 311.5,-500.15"/>
<polygon fill="none" stroke="#63b8ff" points="308,-525.77 311.5,-535.77 315,-525.77 308,-525.77"/>
</a>
</g>
</g>
<!-- Node6 -->
<g id="Node000006" class="node">
<title>Node6</title>
<g id="a_Node000006"><a xlink:href="../../dc/dee/class_material.html" target="_top" xlink:title="A Material abstract base class.">
<polygon fill="white" stroke="transparent" points="385.5,-868 237.5,-868 237.5,-656 385.5,-656 385.5,-868"/>
<text text-anchor="start" x="284" y="-855.2" font-family="Consolas" font-size="11.00">Material</text>
<text text-anchor="start" x="308" y="-839.2" font-family="Consolas" font-size="11.00"> </text>
<text text-anchor="start" x="241.5" y="-823.2" font-family="Consolas" font-size="11.00">+</text>
<text text-anchor="start" x="252.5" y="-823.2" font-family="Consolas" font-size="11.00">Material()</text>
<text text-anchor="start" x="241.5" y="-807.2" font-family="Consolas" font-size="11.00">+</text>
<text text-anchor="start" x="252.5" y="-807.2" font-family="Consolas" font-size="11.00">Material()</text>
<text text-anchor="start" x="241.5" y="-791.2" font-family="Consolas" font-size="11.00">+</text>
<text text-anchor="start" x="252.5" y="-791.2" font-family="Consolas" font-size="11.00">Material()</text>
<text text-anchor="start" x="241.5" y="-775.2" font-family="Consolas" font-size="11.00">+</text>
<text text-anchor="start" x="252.5" y="-775.2" font-family="Consolas" font-size="11.00">operator=()</text>
<text text-anchor="start" x="241.5" y="-759.2" font-family="Consolas" font-size="11.00">+</text>
<text text-anchor="start" x="252.5" y="-759.2" font-family="Consolas" font-size="11.00">operator=()</text>
<text text-anchor="start" x="241.5" y="-743.2" font-family="Consolas" font-size="11.00">+</text>
<text text-anchor="start" x="252.5" y="-743.2" font-family="Consolas" font-size="11.00">~Material()</text>
<text text-anchor="start" x="241.5" y="-727.2" font-family="Consolas" font-size="11.00">+</text>
<text text-anchor="start" x="252.5" y="-727.2" font-family="Consolas" font-size="11.00">get_density()</text>
<text text-anchor="start" x="241.5" y="-711.2" font-family="Consolas" font-size="11.00">+</text>
<text text-anchor="start" x="252.5" y="-711.2" font-family="Consolas" font-size="11.00">get_material_type()</text>
<text text-anchor="start" x="241.5" y="-695.2" font-family="Consolas" font-size="11.00">+</text>
<text text-anchor="start" x="252.5" y="-695.2" font-family="Consolas" font-size="11.00">get_plane_type()</text>
<text text-anchor="start" x="241.5" y="-679.2" font-family="Consolas" font-size="11.00">+</text>
<text text-anchor="start" x="252.5" y="-679.2" font-family="Consolas" font-size="11.00">initialize_base()</text>
<text text-anchor="start" x="252.5" y="-663.2" font-family="Consolas" font-size="11.00">and 72 more...</text>
<polygon fill="#666666" stroke="#666666" points="237.5,-850 237.5,-850 385.5,-850 385.5,-850 237.5,-850"/>
<polygon fill="#666666" stroke="#666666" points="237.5,-834 237.5,-834 385.5,-834 385.5,-834 237.5,-834"/>
<polygon fill="none" stroke="#666666" points="237.5,-656 237.5,-868 385.5,-868 385.5,-656 237.5,-656"/>
</a>
</g>
</g>
<!-- Node6&#45;&gt;Node5 -->
<g id="edge5_Node000005_Node000006" class="edge">
<title>Node6&#45;&gt;Node5</title>
<g id="a_edge5_Node000005_Node000006"><a xlink:title=" ">
<path fill="none" stroke="#63b8ff" d="M311.5,-645.68C311.5,-636.72 311.5,-628.1 311.5,-620.2"/>
<polygon fill="none" stroke="#63b8ff" points="308,-645.92 311.5,-655.92 315,-645.92 308,-645.92"/>
</a>
</g>
</g>
<!-- Node7 -->
<g id="Node000007" class="node">
<title>Node7</title>
<g id="a_Node000007"><a xlink:href="../../de/de9/struct_data_material.html" target="_top" xlink:title=" ">
<polygon fill="white" stroke="transparent" points="202,-1148 41,-1148 41,-936 202,-936 202,-1148"/>
<text text-anchor="start" x="81" y="-1135.2" font-family="Consolas" font-size="11.00">DataMaterial</text>
<text text-anchor="start" x="45.5" y="-1119.2" font-family="Consolas" font-size="11.00">+</text>
<text text-anchor="start" x="56.5" y="-1119.2" font-family="Consolas" font-size="11.00">density</text>
<text text-anchor="start" x="45.5" y="-1103.2" font-family="Consolas" font-size="11.00">+</text>
<text text-anchor="start" x="56.5" y="-1103.2" font-family="Consolas" font-size="11.00">material_type</text>
<text text-anchor="start" x="45.5" y="-1087.2" font-family="Consolas" font-size="11.00">+</text>
<text text-anchor="start" x="56.5" y="-1087.2" font-family="Consolas" font-size="11.00">plane_type</text>
<text text-anchor="start" x="45.5" y="-1071.2" font-family="Consolas" font-size="11.00">+</text>
<text text-anchor="start" x="56.5" y="-1071.2" font-family="Consolas" font-size="11.00">tolerance</text>
<text text-anchor="start" x="45.5" y="-1055.2" font-family="Consolas" font-size="11.00">+</text>
<text text-anchor="start" x="56.5" y="-1055.2" font-family="Consolas" font-size="11.00">characteristic_length</text>
<text text-anchor="start" x="45.5" y="-1039.2" font-family="Consolas" font-size="11.00">+</text>
<text text-anchor="start" x="56.5" y="-1039.2" font-family="Consolas" font-size="11.00">current_strain</text>
<text text-anchor="start" x="45.5" y="-1023.2" font-family="Consolas" font-size="11.00">+</text>
<text text-anchor="start" x="56.5" y="-1023.2" font-family="Consolas" font-size="11.00">current_strain_rate</text>
<text text-anchor="start" x="45.5" y="-1007.2" font-family="Consolas" font-size="11.00">+</text>
<text text-anchor="start" x="56.5" y="-1007.2" font-family="Consolas" font-size="11.00">current_strain_acc</text>
<text text-anchor="start" x="45.5" y="-991.2" font-family="Consolas" font-size="11.00">+</text>
<text text-anchor="start" x="56.5" y="-991.2" font-family="Consolas" font-size="11.00">current_stress</text>
<text text-anchor="start" x="45.5" y="-975.2" font-family="Consolas" font-size="11.00">+</text>
<text text-anchor="start" x="56.5" y="-975.2" font-family="Consolas" font-size="11.00">trial_strain</text>
<text text-anchor="start" x="56.5" y="-959.2" font-family="Consolas" font-size="11.00">and 19 more...</text>
<text text-anchor="start" x="118.5" y="-943.2" font-family="Consolas" font-size="11.00"> </text>
<polygon fill="#666666" stroke="#666666" points="41.5,-1130 41.5,-1130 202.5,-1130 202.5,-1130 41.5,-1130"/>
<polygon fill="#666666" stroke="#666666" points="41.5,-954 41.5,-954 54.5,-954 54.5,-954 41.5,-954"/>
<polygon fill="#666666" stroke="#666666" points="54.5,-954 54.5,-954 202.5,-954 202.5,-954 54.5,-954"/>
<polygon fill="none" stroke="#666666" points="41,-936 41,-1148 202,-1148 202,-936 41,-936"/>
</a>
</g>
</g>
<!-- Node7&#45;&gt;Node6 -->
<g id="edge6_Node000006_Node000007" class="edge">
<title>Node7&#45;&gt;Node6</title>
<g id="a_edge6_Node000006_Node000007"><a xlink:title=" ">
<path fill="none" stroke="darkgreen" d="M195.87,-927.12C201.13,-919.28 206.37,-911.51 211.5,-904 219.79,-891.86 228.57,-879.19 237.35,-866.66"/>
<polygon fill="none" stroke="darkgreen" points="192.81,-925.4 190.16,-935.66 198.63,-929.29 192.81,-925.4"/>
</a>
</g>
</g>
<!-- Node8 -->
<g id="Node000008" class="node">
<title>Node8</title>
<g id="a_Node000008"><a xlink:href="../../da/de4/struct_data_couple_material.html" target="_top" xlink:title=" ">
<polygon fill="white" stroke="transparent" points="402.5,-1132 220.5,-1132 220.5,-952 402.5,-952 402.5,-1132"/>
<text text-anchor="start" x="250.5" y="-1119.2" font-family="Consolas" font-size="11.00">DataCoupleMaterial</text>
<text text-anchor="start" x="224.5" y="-1103.2" font-family="Consolas" font-size="11.00">+</text>
<text text-anchor="start" x="235.5" y="-1103.2" font-family="Consolas" font-size="11.00">current_curvature</text>
<text text-anchor="start" x="224.5" y="-1087.2" font-family="Consolas" font-size="11.00">+</text>
<text text-anchor="start" x="235.5" y="-1087.2" font-family="Consolas" font-size="11.00">current_couple_stress</text>
<text text-anchor="start" x="224.5" y="-1071.2" font-family="Consolas" font-size="11.00">+</text>
<text text-anchor="start" x="235.5" y="-1071.2" font-family="Consolas" font-size="11.00">trial_curvature</text>
<text text-anchor="start" x="224.5" y="-1055.2" font-family="Consolas" font-size="11.00">+</text>
<text text-anchor="start" x="235.5" y="-1055.2" font-family="Consolas" font-size="11.00">trial_couple_stress</text>
<text text-anchor="start" x="224.5" y="-1039.2" font-family="Consolas" font-size="11.00">+</text>
<text text-anchor="start" x="235.5" y="-1039.2" font-family="Consolas" font-size="11.00">incre_curvature</text>
<text text-anchor="start" x="224.5" y="-1023.2" font-family="Consolas" font-size="11.00">+</text>
<text text-anchor="start" x="235.5" y="-1023.2" font-family="Consolas" font-size="11.00">incre_couple_stress</text>
<text text-anchor="start" x="224.5" y="-1007.2" font-family="Consolas" font-size="11.00">+</text>
<text text-anchor="start" x="235.5" y="-1007.2" font-family="Consolas" font-size="11.00">initial_couple_stiffness</text>
<text text-anchor="start" x="224.5" y="-991.2" font-family="Consolas" font-size="11.00">+</text>
<text text-anchor="start" x="235.5" y="-991.2" font-family="Consolas" font-size="11.00">current_couple_stiffness</text>
<text text-anchor="start" x="224.5" y="-975.2" font-family="Consolas" font-size="11.00">+</text>
<text text-anchor="start" x="235.5" y="-975.2" font-family="Consolas" font-size="11.00">trial_couple_stiffness</text>
<text text-anchor="start" x="308" y="-959.2" font-family="Consolas" font-size="11.00"> </text>
<polygon fill="#666666" stroke="#666666" points="220.5,-1114 220.5,-1114 402.5,-1114 402.5,-1114 220.5,-1114"/>
<polygon fill="#666666" stroke="#666666" points="220.5,-970 220.5,-970 233.5,-970 233.5,-970 220.5,-970"/>
<polygon fill="#666666" stroke="#666666" points="233.5,-970 233.5,-970 402.5,-970 402.5,-970 233.5,-970"/>
<polygon fill="none" stroke="#666666" points="220.5,-952 220.5,-1132 402.5,-1132 402.5,-952 220.5,-952"/>
</a>
</g>
</g>
<!-- Node8&#45;&gt;Node6 -->
<g id="edge7_Node000006_Node000008" class="edge">
<title>Node8&#45;&gt;Node6</title>
<g id="a_edge7_Node000006_Node000008"><a xlink:title=" ">
<path fill="none" stroke="darkgreen" d="M311.5,-941.76C311.5,-917.86 311.5,-892.25 311.5,-868.09"/>
<polygon fill="none" stroke="darkgreen" points="308,-941.89 311.5,-951.89 315,-941.89 308,-941.89"/>
</a>
</g>
</g>
<!-- Node9 -->
<g id="Node000009" class="node">
<title>Node9</title>
<g id="a_Node000009"><a xlink:href="../../d0/d57/class_tag.html" target="_top" xlink:title="A base Tag class.">
<polygon fill="white" stroke="transparent" points="522,-1180 421,-1180 421,-904 522,-904 522,-1180"/>
<text text-anchor="start" x="461.5" y="-1167.2" font-family="Consolas" font-size="11.00">Tag</text>
<text text-anchor="start" x="468.5" y="-1151.2" font-family="Consolas" font-size="11.00"> </text>
<text text-anchor="start" x="425.5" y="-1135.2" font-family="Consolas" font-size="11.00">+</text>
<text text-anchor="start" x="436.5" y="-1135.2" font-family="Consolas" font-size="11.00">Tag()</text>
<text text-anchor="start" x="425.5" y="-1119.2" font-family="Consolas" font-size="11.00">+</text>
<text text-anchor="start" x="436.5" y="-1119.2" font-family="Consolas" font-size="11.00">Tag()</text>
<text text-anchor="start" x="425.5" y="-1103.2" font-family="Consolas" font-size="11.00">+</text>
<text text-anchor="start" x="436.5" y="-1103.2" font-family="Consolas" font-size="11.00">Tag()</text>
<text text-anchor="start" x="425.5" y="-1087.2" font-family="Consolas" font-size="11.00">+</text>
<text text-anchor="start" x="436.5" y="-1087.2" font-family="Consolas" font-size="11.00">operator=()</text>
<text text-anchor="start" x="425.5" y="-1071.2" font-family="Consolas" font-size="11.00">+</text>
<text text-anchor="start" x="436.5" y="-1071.2" font-family="Consolas" font-size="11.00">operator=()</text>
<text text-anchor="start" x="425.5" y="-1055.2" font-family="Consolas" font-size="11.00">+</text>
<text text-anchor="start" x="436.5" y="-1055.2" font-family="Consolas" font-size="11.00">~Tag()</text>
<text text-anchor="start" x="425.5" y="-1039.2" font-family="Consolas" font-size="11.00">+</text>
<text text-anchor="start" x="436.5" y="-1039.2" font-family="Consolas" font-size="11.00">set_tag()</text>
<text text-anchor="start" x="425.5" y="-1023.2" font-family="Consolas" font-size="11.00">+</text>
<text text-anchor="start" x="436.5" y="-1023.2" font-family="Consolas" font-size="11.00">get_tag()</text>
<text text-anchor="start" x="425.5" y="-1007.2" font-family="Consolas" font-size="11.00">+</text>
<text text-anchor="start" x="436.5" y="-1007.2" font-family="Consolas" font-size="11.00">enable()</text>
<text text-anchor="start" x="425.5" y="-991.2" font-family="Consolas" font-size="11.00">+</text>
<text text-anchor="start" x="436.5" y="-991.2" font-family="Consolas" font-size="11.00">disable()</text>
<text text-anchor="start" x="425.5" y="-975.2" font-family="Consolas" font-size="11.00">+</text>
<text text-anchor="start" x="436.5" y="-975.2" font-family="Consolas" font-size="11.00">guard()</text>
<text text-anchor="start" x="425.5" y="-959.2" font-family="Consolas" font-size="11.00">+</text>
<text text-anchor="start" x="436.5" y="-959.2" font-family="Consolas" font-size="11.00">unguard()</text>
<text text-anchor="start" x="425.5" y="-943.2" font-family="Consolas" font-size="11.00">+</text>
<text text-anchor="start" x="436.5" y="-943.2" font-family="Consolas" font-size="11.00">is_active()</text>
<text text-anchor="start" x="425.5" y="-927.2" font-family="Consolas" font-size="11.00">+</text>
<text text-anchor="start" x="436.5" y="-927.2" font-family="Consolas" font-size="11.00">is_guarded()</text>
<text text-anchor="start" x="425.5" y="-911.2" font-family="Consolas" font-size="11.00">+</text>
<text text-anchor="start" x="436.5" y="-911.2" font-family="Consolas" font-size="11.00">print()</text>
<polygon fill="#666666" stroke="#666666" points="421.5,-1162 421.5,-1162 522.5,-1162 522.5,-1162 421.5,-1162"/>
<polygon fill="#666666" stroke="#666666" points="421.5,-1146 421.5,-1146 522.5,-1146 522.5,-1146 421.5,-1146"/>
<polygon fill="none" stroke="#666666" points="421,-904 421,-1180 522,-1180 522,-904 421,-904"/>
</a>
</g>
</g>
<!-- Node9&#45;&gt;Node6 -->
<g id="edge8_Node000006_Node000009" class="edge">
<title>Node9&#45;&gt;Node6</title>
<g id="a_edge8_Node000006_Node000009"><a xlink:title=" ">
<path fill="none" stroke="#63b8ff" d="M416.25,-912.62C414.68,-909.7 413.1,-906.82 411.5,-904 403.67,-890.16 394.79,-876 385.64,-862.26"/>
<polygon fill="none" stroke="#63b8ff" points="413.16,-914.25 420.91,-921.47 419.35,-910.99 413.16,-914.25"/>
</a>
</g>
</g>
</g>
</svg>
