<?xml version="1.0" encoding="UTF-8" standalone="no"?>
<!DOCTYPE svg PUBLIC "-//W3C//DTD SVG 1.1//EN"
 "http://www.w3.org/Graphics/SVG/1.1/DTD/svg11.dtd">
<!-- Generated by graphviz version 8.1.0 (20230707.0739)
 -->
<!-- Title: Orientation Pages: 1 -->
<svg width="686pt" height="1211pt"
 viewBox="0.00 0.00 686.00 1211.00" xmlns="http://www.w3.org/2000/svg" xmlns:xlink="http://www.w3.org/1999/xlink">
<g id="graph0" class="graph" transform="scale(1 1) rotate(0) translate(4 1207)">
<title>Orientation</title>
<!-- Node1 -->
<g id="Node000001" class="node">
<title>Node1</title>
<g id="a_Node000001"><a xlink:title="A Orientation class.">
<polygon fill="#999999" stroke="none" points="417,-874 261,-874 261,-547 417,-547 417,-874"/>
<text text-anchor="start" x="306" y="-859.55" font-family="Consolas" font-size="11.00">Orientation</text>
<text text-anchor="start" x="265" y="-842.55" font-family="Consolas" font-size="11.00">#</text>
<text text-anchor="start" x="275" y="-842.55" font-family="Consolas" font-size="11.00">element_ptr</text>
<text text-anchor="start" x="265" y="-825.55" font-family="Consolas" font-size="11.00">#</text>
<text text-anchor="start" x="275" y="-825.55" font-family="Consolas" font-size="11.00">z_axis</text>
<text text-anchor="start" x="265" y="-808.55" font-family="Consolas" font-size="11.00">#</text>
<text text-anchor="start" x="275" y="-808.55" font-family="Consolas" font-size="11.00">length</text>
<text text-anchor="start" x="265" y="-791.55" font-family="Consolas" font-size="11.00">#</text>
<text text-anchor="start" x="275" y="-791.55" font-family="Consolas" font-size="11.00">inclination</text>
<text text-anchor="start" x="265" y="-774.55" font-family="Consolas" font-size="11.00">#</text>
<text text-anchor="start" x="275" y="-774.55" font-family="Consolas" font-size="11.00">direction_cosine</text>
<text text-anchor="start" x="265" y="-757.55" font-family="Consolas" font-size="11.00">+</text>
<text text-anchor="start" x="275" y="-757.55" font-family="Consolas" font-size="11.00">Orientation()</text>
<text text-anchor="start" x="265" y="-740.55" font-family="Consolas" font-size="11.00">+</text>
<text text-anchor="start" x="275" y="-740.55" font-family="Consolas" font-size="11.00">Orientation()</text>
<text text-anchor="start" x="265" y="-723.55" font-family="Consolas" font-size="11.00">+</text>
<text text-anchor="start" x="275" y="-723.55" font-family="Consolas" font-size="11.00">Orientation()</text>
<text text-anchor="start" x="265" y="-706.55" font-family="Consolas" font-size="11.00">+</text>
<text text-anchor="start" x="275" y="-706.55" font-family="Consolas" font-size="11.00">operator=()</text>
<text text-anchor="start" x="265" y="-689.55" font-family="Consolas" font-size="11.00">+</text>
<text text-anchor="start" x="275" y="-689.55" font-family="Consolas" font-size="11.00">operator=()</text>
<text text-anchor="start" x="265" y="-672.55" font-family="Consolas" font-size="11.00">+</text>
<text text-anchor="start" x="275" y="-672.55" font-family="Consolas" font-size="11.00">~Orientation()</text>
<text text-anchor="start" x="265" y="-655.55" font-family="Consolas" font-size="11.00">+</text>
<text text-anchor="start" x="275" y="-655.55" font-family="Consolas" font-size="11.00">update_axis()</text>
<text text-anchor="start" x="265" y="-638.55" font-family="Consolas" font-size="11.00">+</text>
<text text-anchor="start" x="275" y="-638.55" font-family="Consolas" font-size="11.00">set_element_ptr()</text>
<text text-anchor="start" x="265" y="-621.55" font-family="Consolas" font-size="11.00">+</text>
<text text-anchor="start" x="275" y="-621.55" font-family="Consolas" font-size="11.00">is_nlgeom()</text>
<text text-anchor="start" x="265" y="-604.55" font-family="Consolas" font-size="11.00">+</text>
<text text-anchor="start" x="275" y="-604.55" font-family="Consolas" font-size="11.00">get_length()</text>
<text text-anchor="start" x="275" y="-587.55" font-family="Consolas" font-size="11.00">and 22 more...</text>
<text text-anchor="start" x="265" y="-570.55" font-family="Consolas" font-size="11.00">#</text>
<text text-anchor="start" x="275" y="-570.55" font-family="Consolas" font-size="11.00">check_element_ptr()</text>
<text text-anchor="start" x="265" y="-553.55" font-family="Consolas" font-size="11.00">#</text>
<text text-anchor="start" x="275" y="-553.55" font-family="Consolas" font-size="11.00">update_transformation()</text>
<polygon fill="#666666" stroke="#666666" points="261,-855 261,-855 417,-855 417,-855 261,-855"/>
<polygon fill="#666666" stroke="#666666" points="261,-770 261,-770 273,-770 273,-770 261,-770"/>
<polygon fill="#666666" stroke="#666666" points="273,-770 273,-770 417,-770 417,-770 273,-770"/>
<polygon fill="none" stroke="#666666" points="261,-547 261,-874 417,-874 417,-547 261,-547"/>
</a>
</g>
</g>
<!-- Node3 -->
<g id="Node000003" class="node">
<title>Node3</title>
<g id="a_Node000003"><a xlink:href="../../d6/d93/class_b2_d_l.html" target="_top" xlink:title="A B2DL class.">
<polygon fill="white" stroke="none" points="156,-511 0,-511 0,-306 156,-306 156,-511"/>
<text text-anchor="start" x="66" y="-496.55" font-family="Consolas" font-size="11.00">B2DL</text>
<text text-anchor="start" x="4" y="-479.55" font-family="Consolas" font-size="11.00">#</text>
<text text-anchor="start" x="14" y="-479.55" font-family="Consolas" font-size="11.00">trans_mat</text>
<text text-anchor="start" x="4" y="-462.55" font-family="Consolas" font-size="11.00">+</text>
<text text-anchor="start" x="14" y="-462.55" font-family="Consolas" font-size="11.00">B2DL()</text>
<text text-anchor="start" x="4" y="-445.55" font-family="Consolas" font-size="11.00">+</text>
<text text-anchor="start" x="14" y="-445.55" font-family="Consolas" font-size="11.00">B2DL()</text>
<text text-anchor="start" x="4" y="-428.55" font-family="Consolas" font-size="11.00">+</text>
<text text-anchor="start" x="14" y="-428.55" font-family="Consolas" font-size="11.00">get_copy()</text>
<text text-anchor="start" x="4" y="-411.55" font-family="Consolas" font-size="11.00">+</text>
<text text-anchor="start" x="14" y="-411.55" font-family="Consolas" font-size="11.00">to_local_vec()</text>
<text text-anchor="start" x="4" y="-394.55" font-family="Consolas" font-size="11.00">+</text>
<text text-anchor="start" x="14" y="-394.55" font-family="Consolas" font-size="11.00">to_global_vec()</text>
<text text-anchor="start" x="4" y="-377.55" font-family="Consolas" font-size="11.00">+</text>
<text text-anchor="start" x="14" y="-377.55" font-family="Consolas" font-size="11.00">to_global_mass_mat()</text>
<text text-anchor="start" x="4" y="-360.55" font-family="Consolas" font-size="11.00">+</text>
<text text-anchor="start" x="14" y="-360.55" font-family="Consolas" font-size="11.00">to_global_stiffness</text>
<text text-anchor="start" x="14" y="-347.05" font-family="Consolas" font-size="11.00">_mat()</text>
<text text-anchor="start" x="4" y="-329.55" font-family="Consolas" font-size="11.00">#</text>
<text text-anchor="start" x="14" y="-329.55" font-family="Consolas" font-size="11.00">form_trans_mat()</text>
<text text-anchor="start" x="4" y="-312.55" font-family="Consolas" font-size="11.00">#</text>
<text text-anchor="start" x="14" y="-312.55" font-family="Consolas" font-size="11.00">update_transformation()</text>
<polygon fill="#666666" stroke="#666666" points="0,-492 0,-492 156,-492 156,-492 0,-492"/>
<polygon fill="#666666" stroke="#666666" points="0,-475 0,-475 12,-475 12,-475 0,-475"/>
<polygon fill="#666666" stroke="#666666" points="12,-475 12,-475 156,-475 156,-475 12,-475"/>
<polygon fill="none" stroke="#666666" points="0,-306 0,-511 156,-511 156,-306 0,-306"/>
</a>
</g>
</g>
<!-- Node1&#45;&gt;Node3 -->
<g id="edge2_Node000001_Node000003" class="edge">
<title>Node1&#45;&gt;Node3</title>
<g id="a_edge2_Node000001_Node000003"><a xlink:title=" ">
<path fill="none" stroke="#63b8ff" d="M254.12,-613.1C225.71,-580.72 193.92,-544.36 165,-511 162.04,-507.58 159.02,-504.09 155.97,-500.57"/>
<polygon fill="none" stroke="#63b8ff" points="252.04,-615.04 261.27,-620.25 257.3,-610.42 252.04,-615.04"/>
</a>
</g>
</g>
<!-- Node5 -->
<g id="Node000005" class="node">
<title>Node5</title>
<g id="a_Node000005"><a xlink:href="../../d7/da8/class_b3_d_l.html" target="_top" xlink:title="A B3DL class.">
<polygon fill="white" stroke="none" points="330,-502.5 174,-502.5 174,-314.5 330,-314.5 330,-502.5"/>
<text text-anchor="start" x="240" y="-488.05" font-family="Consolas" font-size="11.00">B3DL</text>
<text text-anchor="start" x="249" y="-471.05" font-family="Consolas" font-size="11.00"> </text>
<text text-anchor="start" x="178" y="-454.05" font-family="Consolas" font-size="11.00">+</text>
<text text-anchor="start" x="188" y="-454.05" font-family="Consolas" font-size="11.00">B3DL()</text>
<text text-anchor="start" x="178" y="-437.05" font-family="Consolas" font-size="11.00">+</text>
<text text-anchor="start" x="188" y="-437.05" font-family="Consolas" font-size="11.00">B3DL()</text>
<text text-anchor="start" x="178" y="-420.05" font-family="Consolas" font-size="11.00">+</text>
<text text-anchor="start" x="188" y="-420.05" font-family="Consolas" font-size="11.00">get_copy()</text>
<text text-anchor="start" x="178" y="-403.05" font-family="Consolas" font-size="11.00">+</text>
<text text-anchor="start" x="188" y="-403.05" font-family="Consolas" font-size="11.00">to_local_vec()</text>
<text text-anchor="start" x="178" y="-386.05" font-family="Consolas" font-size="11.00">+</text>
<text text-anchor="start" x="188" y="-386.05" font-family="Consolas" font-size="11.00">to_global_vec()</text>
<text text-anchor="start" x="178" y="-369.05" font-family="Consolas" font-size="11.00">+</text>
<text text-anchor="start" x="188" y="-369.05" font-family="Consolas" font-size="11.00">to_global_mass_mat()</text>
<text text-anchor="start" x="178" y="-352.05" font-family="Consolas" font-size="11.00">+</text>
<text text-anchor="start" x="188" y="-352.05" font-family="Consolas" font-size="11.00">to_global_stiffness</text>
<text text-anchor="start" x="188" y="-338.55" font-family="Consolas" font-size="11.00">_mat()</text>
<text text-anchor="start" x="178" y="-321.05" font-family="Consolas" font-size="11.00">#</text>
<text text-anchor="start" x="188" y="-321.05" font-family="Consolas" font-size="11.00">update_transformation()</text>
<polygon fill="#666666" stroke="#666666" points="174,-483.5 174,-483.5 330,-483.5 330,-483.5 174,-483.5"/>
<polygon fill="#666666" stroke="#666666" points="174,-466.5 174,-466.5 330,-466.5 330,-466.5 174,-466.5"/>
<polygon fill="none" stroke="#666666" points="174,-314.5 174,-502.5 330,-502.5 330,-314.5 174,-314.5"/>
</a>
</g>
</g>
<!-- Node1&#45;&gt;Node5 -->
<g id="edge4_Node000001_Node000005" class="edge">
<title>Node1&#45;&gt;Node5</title>
<g id="a_edge4_Node000001_Node000005"><a xlink:title=" ">
<path fill="none" stroke="#63b8ff" d="M288.92,-536.83C285.51,-525.06 282.16,-513.48 278.94,-502.4"/>
<polygon fill="none" stroke="#63b8ff" points="285.79,-537.58 291.94,-546.21 292.51,-535.63 285.79,-537.58"/>
</a>
</g>
</g>
<!-- Node7 -->
<g id="Node000007" class="node">
<title>Node7</title>
<g id="a_Node000007"><a xlink:href="../../d9/d8e/class_t2_d_l.html" target="_top" xlink:title="A T2DL class.">
<polygon fill="white" stroke="none" points="504,-494 348,-494 348,-323 504,-323 504,-494"/>
<text text-anchor="start" x="414" y="-479.55" font-family="Consolas" font-size="11.00">T2DL</text>
<text text-anchor="start" x="423" y="-462.55" font-family="Consolas" font-size="11.00"> </text>
<text text-anchor="start" x="352" y="-445.55" font-family="Consolas" font-size="11.00">+</text>
<text text-anchor="start" x="362" y="-445.55" font-family="Consolas" font-size="11.00">T2DL()</text>
<text text-anchor="start" x="352" y="-428.55" font-family="Consolas" font-size="11.00">+</text>
<text text-anchor="start" x="362" y="-428.55" font-family="Consolas" font-size="11.00">get_copy()</text>
<text text-anchor="start" x="352" y="-411.55" font-family="Consolas" font-size="11.00">+</text>
<text text-anchor="start" x="362" y="-411.55" font-family="Consolas" font-size="11.00">to_local_vec()</text>
<text text-anchor="start" x="352" y="-394.55" font-family="Consolas" font-size="11.00">+</text>
<text text-anchor="start" x="362" y="-394.55" font-family="Consolas" font-size="11.00">to_global_vec()</text>
<text text-anchor="start" x="352" y="-377.55" font-family="Consolas" font-size="11.00">+</text>
<text text-anchor="start" x="362" y="-377.55" font-family="Consolas" font-size="11.00">to_global_mass_mat()</text>
<text text-anchor="start" x="352" y="-360.55" font-family="Consolas" font-size="11.00">+</text>
<text text-anchor="start" x="362" y="-360.55" font-family="Consolas" font-size="11.00">to_global_stiffness</text>
<text text-anchor="start" x="362" y="-347.05" font-family="Consolas" font-size="11.00">_mat()</text>
<text text-anchor="start" x="352" y="-329.55" font-family="Consolas" font-size="11.00">#</text>
<text text-anchor="start" x="362" y="-329.55" font-family="Consolas" font-size="11.00">update_transformation()</text>
<polygon fill="#666666" stroke="#666666" points="348,-475 348,-475 504,-475 504,-475 348,-475"/>
<polygon fill="#666666" stroke="#666666" points="348,-458 348,-458 504,-458 504,-458 348,-458"/>
<polygon fill="none" stroke="#666666" points="348,-323 348,-494 504,-494 504,-323 348,-323"/>
</a>
</g>
</g>
<!-- Node1&#45;&gt;Node7 -->
<g id="edge6_Node000001_Node000007" class="edge">
<title>Node1&#45;&gt;Node7</title>
<g id="a_edge6_Node000001_Node000007"><a xlink:title=" ">
<path fill="none" stroke="#63b8ff" d="M389.05,-536.91C393.35,-522.1 397.55,-507.59 401.5,-493.97"/>
<polygon fill="none" stroke="#63b8ff" points="385.49,-535.63 386.06,-546.21 392.21,-537.58 385.49,-535.63"/>
</a>
</g>
</g>
<!-- Node9 -->
<g id="Node000009" class="node">
<title>Node9</title>
<g id="a_Node000009"><a xlink:href="../../d9/dc2/class_t3_d_l.html" target="_top" xlink:title="A T3DL class.">
<polygon fill="white" stroke="none" points="678,-502.5 522,-502.5 522,-314.5 678,-314.5 678,-502.5"/>
<text text-anchor="start" x="588" y="-488.05" font-family="Consolas" font-size="11.00">T3DL</text>
<text text-anchor="start" x="526" y="-471.05" font-family="Consolas" font-size="11.00">#</text>
<text text-anchor="start" x="536" y="-471.05" font-family="Consolas" font-size="11.00">IS</text>
<text text-anchor="start" x="526" y="-454.05" font-family="Consolas" font-size="11.00">#</text>
<text text-anchor="start" x="536" y="-454.05" font-family="Consolas" font-size="11.00">JS</text>
<text text-anchor="start" x="526" y="-437.05" font-family="Consolas" font-size="11.00">+</text>
<text text-anchor="start" x="536" y="-437.05" font-family="Consolas" font-size="11.00">T3DL()</text>
<text text-anchor="start" x="526" y="-420.05" font-family="Consolas" font-size="11.00">+</text>
<text text-anchor="start" x="536" y="-420.05" font-family="Consolas" font-size="11.00">get_copy()</text>
<text text-anchor="start" x="526" y="-403.05" font-family="Consolas" font-size="11.00">+</text>
<text text-anchor="start" x="536" y="-403.05" font-family="Consolas" font-size="11.00">to_local_vec()</text>
<text text-anchor="start" x="526" y="-386.05" font-family="Consolas" font-size="11.00">+</text>
<text text-anchor="start" x="536" y="-386.05" font-family="Consolas" font-size="11.00">to_global_vec()</text>
<text text-anchor="start" x="526" y="-369.05" font-family="Consolas" font-size="11.00">+</text>
<text text-anchor="start" x="536" y="-369.05" font-family="Consolas" font-size="11.00">to_global_mass_mat()</text>
<text text-anchor="start" x="526" y="-352.05" font-family="Consolas" font-size="11.00">+</text>
<text text-anchor="start" x="536" y="-352.05" font-family="Consolas" font-size="11.00">to_global_stiffness</text>
<text text-anchor="start" x="536" y="-338.55" font-family="Consolas" font-size="11.00">_mat()</text>
<text text-anchor="start" x="526" y="-321.05" font-family="Consolas" font-size="11.00">#</text>
<text text-anchor="start" x="536" y="-321.05" font-family="Consolas" font-size="11.00">update_transformation()</text>
<polygon fill="#666666" stroke="#666666" points="522,-483.5 522,-483.5 678,-483.5 678,-483.5 522,-483.5"/>
<polygon fill="#666666" stroke="#666666" points="522,-449.5 522,-449.5 534,-449.5 534,-449.5 522,-449.5"/>
<polygon fill="#666666" stroke="#666666" points="534,-449.5 534,-449.5 678,-449.5 678,-449.5 534,-449.5"/>
<polygon fill="none" stroke="#666666" points="522,-314.5 522,-502.5 678,-502.5 678,-314.5 522,-314.5"/>
</a>
</g>
</g>
<!-- Node1&#45;&gt;Node9 -->
<g id="edge8_Node000001_Node000009" class="edge">
<title>Node1&#45;&gt;Node9</title>
<g id="a_edge8_Node000001_Node000009"><a xlink:title=" ">
<path fill="none" stroke="#63b8ff" d="M423.88,-613.1C452.29,-580.72 484.08,-544.36 513,-511 515.96,-507.58 518.98,-504.09 522.03,-500.57"/>
<polygon fill="none" stroke="#63b8ff" points="420.7,-610.42 416.73,-620.25 425.96,-615.04 420.7,-610.42"/>
</a>
</g>
</g>
<!-- Node2 -->
<g id="Node000002" class="node">
<title>Node2</title>
<g id="a_Node000002"><a xlink:href="../../d0/d57/class_tag.html" target="_top" xlink:title="A base Tag class.">
<polygon fill="white" stroke="none" points="384,-1203 294,-1203 294,-910 384,-910 384,-1203"/>
<text text-anchor="start" x="330" y="-1188.55" font-family="Consolas" font-size="11.00">Tag</text>
<text text-anchor="start" x="336" y="-1171.55" font-family="Consolas" font-size="11.00"> </text>
<text text-anchor="start" x="298" y="-1154.55" font-family="Consolas" font-size="11.00">+</text>
<text text-anchor="start" x="308" y="-1154.55" font-family="Consolas" font-size="11.00">Tag()</text>
<text text-anchor="start" x="298" y="-1137.55" font-family="Consolas" font-size="11.00">+</text>
<text text-anchor="start" x="308" y="-1137.55" font-family="Consolas" font-size="11.00">Tag()</text>
<text text-anchor="start" x="298" y="-1120.55" font-family="Consolas" font-size="11.00">+</text>
<text text-anchor="start" x="308" y="-1120.55" font-family="Consolas" font-size="11.00">Tag()</text>
<text text-anchor="start" x="298" y="-1103.55" font-family="Consolas" font-size="11.00">+</text>
<text text-anchor="start" x="308" y="-1103.55" font-family="Consolas" font-size="11.00">operator=()</text>
<text text-anchor="start" x="298" y="-1086.55" font-family="Consolas" font-size="11.00">+</text>
<text text-anchor="start" x="308" y="-1086.55" font-family="Consolas" font-size="11.00">operator=()</text>
<text text-anchor="start" x="298" y="-1069.55" font-family="Consolas" font-size="11.00">+</text>
<text text-anchor="start" x="308" y="-1069.55" font-family="Consolas" font-size="11.00">~Tag()</text>
<text text-anchor="start" x="298" y="-1052.55" font-family="Consolas" font-size="11.00">+</text>
<text text-anchor="start" x="308" y="-1052.55" font-family="Consolas" font-size="11.00">set_tag()</text>
<text text-anchor="start" x="298" y="-1035.55" font-family="Consolas" font-size="11.00">+</text>
<text text-anchor="start" x="308" y="-1035.55" font-family="Consolas" font-size="11.00">get_tag()</text>
<text text-anchor="start" x="298" y="-1018.55" font-family="Consolas" font-size="11.00">+</text>
<text text-anchor="start" x="308" y="-1018.55" font-family="Consolas" font-size="11.00">enable()</text>
<text text-anchor="start" x="298" y="-1001.55" font-family="Consolas" font-size="11.00">+</text>
<text text-anchor="start" x="308" y="-1001.55" font-family="Consolas" font-size="11.00">disable()</text>
<text text-anchor="start" x="298" y="-984.55" font-family="Consolas" font-size="11.00">+</text>
<text text-anchor="start" x="308" y="-984.55" font-family="Consolas" font-size="11.00">guard()</text>
<text text-anchor="start" x="298" y="-967.55" font-family="Consolas" font-size="11.00">+</text>
<text text-anchor="start" x="308" y="-967.55" font-family="Consolas" font-size="11.00">unguard()</text>
<text text-anchor="start" x="298" y="-950.55" font-family="Consolas" font-size="11.00">+</text>
<text text-anchor="start" x="308" y="-950.55" font-family="Consolas" font-size="11.00">is_active()</text>
<text text-anchor="start" x="298" y="-933.55" font-family="Consolas" font-size="11.00">+</text>
<text text-anchor="start" x="308" y="-933.55" font-family="Consolas" font-size="11.00">is_guarded()</text>
<text text-anchor="start" x="298" y="-916.55" font-family="Consolas" font-size="11.00">+</text>
<text text-anchor="start" x="308" y="-916.55" font-family="Consolas" font-size="11.00">print()</text>
<polygon fill="#666666" stroke="#666666" points="294,-1184 294,-1184 384,-1184 384,-1184 294,-1184"/>
<polygon fill="#666666" stroke="#666666" points="294,-1167 294,-1167 384,-1167 384,-1167 294,-1167"/>
<polygon fill="none" stroke="#666666" points="294,-910 294,-1203 384,-1203 384,-910 294,-910"/>
</a>
</g>
</g>
<!-- Node2&#45;&gt;Node1 -->
<g id="edge1_Node000001_Node000002" class="edge">
<title>Node2&#45;&gt;Node1</title>
<g id="a_edge1_Node000001_Node000002"><a xlink:title=" ">
<path fill="none" stroke="#63b8ff" d="M339,-899.37C339,-890.87 339,-882.31 339,-873.79"/>
<polygon fill="none" stroke="#63b8ff" points="335.5,-899.11 339,-909.11 342.5,-899.11 335.5,-899.11"/>
</a>
</g>
</g>
<!-- Node4 -->
<g id="Node000004" class="node">
<title>Node4</title>
<g id="a_Node000004"><a xlink:href="../../d9/d16/class_b2_d_c.html" target="_top" xlink:title="A B2DC class.">
<polygon fill="white" stroke="none" points="141,-212 15,-212 15,-58 141,-58 141,-212"/>
<text text-anchor="start" x="66" y="-197.55" font-family="Consolas" font-size="11.00">B2DC</text>
<text text-anchor="start" x="75" y="-180.55" font-family="Consolas" font-size="11.00"> </text>
<text text-anchor="start" x="19" y="-163.55" font-family="Consolas" font-size="11.00">+</text>
<text text-anchor="start" x="29" y="-163.55" font-family="Consolas" font-size="11.00">is_nlgeom()</text>
<text text-anchor="start" x="19" y="-146.55" font-family="Consolas" font-size="11.00">+</text>
<text text-anchor="start" x="29" y="-146.55" font-family="Consolas" font-size="11.00">get_copy()</text>
<text text-anchor="start" x="19" y="-129.55" font-family="Consolas" font-size="11.00">+</text>
<text text-anchor="start" x="29" y="-129.55" font-family="Consolas" font-size="11.00">to_local_vec()</text>
<text text-anchor="start" x="19" y="-112.55" font-family="Consolas" font-size="11.00">+</text>
<text text-anchor="start" x="29" y="-112.55" font-family="Consolas" font-size="11.00">to_global_geometry</text>
<text text-anchor="start" x="29" y="-99.05" font-family="Consolas" font-size="11.00">_mat()</text>
<text text-anchor="start" x="19" y="-81.55" font-family="Consolas" font-size="11.00">+</text>
<text text-anchor="start" x="29" y="-81.55" font-family="Consolas" font-size="11.00">B2DL()</text>
<text text-anchor="start" x="19" y="-64.55" font-family="Consolas" font-size="11.00">+</text>
<text text-anchor="start" x="29" y="-64.55" font-family="Consolas" font-size="11.00">B2DL()</text>
<polygon fill="#666666" stroke="#666666" points="15,-193 15,-193 141,-193 141,-193 15,-193"/>
<polygon fill="#666666" stroke="#666666" points="15,-176 15,-176 141,-176 141,-176 15,-176"/>
<polygon fill="none" stroke="#666666" points="15,-58 15,-212 141,-212 141,-58 15,-58"/>
</a>
</g>
</g>
<!-- Node3&#45;&gt;Node4 -->
<g id="edge3_Node000003_Node000004" class="edge">
<title>Node3&#45;&gt;Node4</title>
<g id="a_edge3_Node000003_Node000004"><a xlink:title=" ">
<path fill="none" stroke="#63b8ff" d="M78,-295.33C78,-267.25 78,-237.78 78,-211.93"/>
<polygon fill="none" stroke="#63b8ff" points="74.5,-295.02 78,-305.02 81.5,-295.02 74.5,-295.02"/>
</a>
</g>
</g>
<!-- Node6 -->
<g id="Node000006" class="node">
<title>Node6</title>
<g id="a_Node000006"><a xlink:href="../../df/dcf/class_b3_d_c.html" target="_top" xlink:title="A B3DC class.">
<polygon fill="white" stroke="none" points="330,-270 174,-270 174,0 330,0 330,-270"/>
<text text-anchor="start" x="240" y="-255.55" font-family="Consolas" font-size="11.00">B3DC</text>
<text text-anchor="start" x="249" y="-238.55" font-family="Consolas" font-size="11.00"> </text>
<text text-anchor="start" x="178" y="-221.55" font-family="Consolas" font-size="11.00">+</text>
<text text-anchor="start" x="188" y="-221.55" font-family="Consolas" font-size="11.00">is_nlgeom()</text>
<text text-anchor="start" x="178" y="-204.55" font-family="Consolas" font-size="11.00">+</text>
<text text-anchor="start" x="188" y="-204.55" font-family="Consolas" font-size="11.00">get_copy()</text>
<text text-anchor="start" x="178" y="-187.55" font-family="Consolas" font-size="11.00">+</text>
<text text-anchor="start" x="188" y="-187.55" font-family="Consolas" font-size="11.00">commit_status()</text>
<text text-anchor="start" x="178" y="-170.55" font-family="Consolas" font-size="11.00">+</text>
<text text-anchor="start" x="188" y="-170.55" font-family="Consolas" font-size="11.00">reset_status()</text>
<text text-anchor="start" x="178" y="-153.55" font-family="Consolas" font-size="11.00">+</text>
<text text-anchor="start" x="188" y="-153.55" font-family="Consolas" font-size="11.00">clear_status()</text>
<text text-anchor="start" x="178" y="-136.55" font-family="Consolas" font-size="11.00">+</text>
<text text-anchor="start" x="188" y="-136.55" font-family="Consolas" font-size="11.00">to_local_vec()</text>
<text text-anchor="start" x="178" y="-119.55" font-family="Consolas" font-size="11.00">+</text>
<text text-anchor="start" x="188" y="-119.55" font-family="Consolas" font-size="11.00">to_global_vec()</text>
<text text-anchor="start" x="178" y="-102.55" font-family="Consolas" font-size="11.00">+</text>
<text text-anchor="start" x="188" y="-102.55" font-family="Consolas" font-size="11.00">to_global_geometry</text>
<text text-anchor="start" x="188" y="-89.05" font-family="Consolas" font-size="11.00">_mat()</text>
<text text-anchor="start" x="178" y="-71.55" font-family="Consolas" font-size="11.00">+</text>
<text text-anchor="start" x="188" y="-71.55" font-family="Consolas" font-size="11.00">to_global_stiffness</text>
<text text-anchor="start" x="188" y="-58.05" font-family="Consolas" font-size="11.00">_mat()</text>
<text text-anchor="start" x="178" y="-40.55" font-family="Consolas" font-size="11.00">+</text>
<text text-anchor="start" x="188" y="-40.55" font-family="Consolas" font-size="11.00">B3DL()</text>
<text text-anchor="start" x="178" y="-23.55" font-family="Consolas" font-size="11.00">+</text>
<text text-anchor="start" x="188" y="-23.55" font-family="Consolas" font-size="11.00">B3DL()</text>
<text text-anchor="start" x="178" y="-6.55" font-family="Consolas" font-size="11.00">#</text>
<text text-anchor="start" x="188" y="-6.55" font-family="Consolas" font-size="11.00">update_transformation()</text>
<polygon fill="#666666" stroke="#666666" points="174,-251 174,-251 330,-251 330,-251 174,-251"/>
<polygon fill="#666666" stroke="#666666" points="174,-234 174,-234 330,-234 330,-234 174,-234"/>
<polygon fill="none" stroke="#666666" points="174,0 174,-270 330,-270 330,0 174,0"/>
</a>
</g>
</g>
<!-- Node5&#45;&gt;Node6 -->
<g id="edge5_Node000005_Node000006" class="edge">
<title>Node5&#45;&gt;Node6</title>
<g id="a_edge5_Node000005_Node000006"><a xlink:title=" ">
<path fill="none" stroke="#63b8ff" d="M252,-304.1C252,-292.81 252,-281.19 252,-269.6"/>
<polygon fill="none" stroke="#63b8ff" points="248.5,-303.82 252,-313.82 255.5,-303.82 248.5,-303.82"/>
</a>
</g>
</g>
<!-- Node8 -->
<g id="Node000008" class="node">
<title>Node8</title>
<g id="a_Node000008"><a xlink:href="../../d7/d39/class_t2_d_c.html" target="_top" xlink:title="A T2DC class.">
<polygon fill="white" stroke="none" points="504,-203.5 348,-203.5 348,-66.5 504,-66.5 504,-203.5"/>
<text text-anchor="start" x="414" y="-189.05" font-family="Consolas" font-size="11.00">T2DC</text>
<text text-anchor="start" x="423" y="-172.05" font-family="Consolas" font-size="11.00"> </text>
<text text-anchor="start" x="352" y="-155.05" font-family="Consolas" font-size="11.00">+</text>
<text text-anchor="start" x="362" y="-155.05" font-family="Consolas" font-size="11.00">T2DC()</text>
<text text-anchor="start" x="352" y="-138.05" font-family="Consolas" font-size="11.00">+</text>
<text text-anchor="start" x="362" y="-138.05" font-family="Consolas" font-size="11.00">is_nlgeom()</text>
<text text-anchor="start" x="352" y="-121.05" font-family="Consolas" font-size="11.00">+</text>
<text text-anchor="start" x="362" y="-121.05" font-family="Consolas" font-size="11.00">get_copy()</text>
<text text-anchor="start" x="352" y="-104.05" font-family="Consolas" font-size="11.00">+</text>
<text text-anchor="start" x="362" y="-104.05" font-family="Consolas" font-size="11.00">to_global_geometry</text>
<text text-anchor="start" x="362" y="-90.55" font-family="Consolas" font-size="11.00">_mat()</text>
<text text-anchor="start" x="352" y="-73.05" font-family="Consolas" font-size="11.00">#</text>
<text text-anchor="start" x="362" y="-73.05" font-family="Consolas" font-size="11.00">update_transformation()</text>
<polygon fill="#666666" stroke="#666666" points="348,-184.5 348,-184.5 504,-184.5 504,-184.5 348,-184.5"/>
<polygon fill="#666666" stroke="#666666" points="348,-167.5 348,-167.5 504,-167.5 504,-167.5 348,-167.5"/>
<polygon fill="none" stroke="#666666" points="348,-66.5 348,-203.5 504,-203.5 504,-66.5 348,-66.5"/>
</a>
</g>
</g>
<!-- Node7&#45;&gt;Node8 -->
<g id="edge7_Node000007_Node000008" class="edge">
<title>Node7&#45;&gt;Node8</title>
<g id="a_edge7_Node000007_Node000008"><a xlink:title=" ">
<path fill="none" stroke="#63b8ff" d="M426,-312.53C426,-276.45 426,-236.12 426,-203.13"/>
<polygon fill="none" stroke="#63b8ff" points="422.5,-312.08 426,-322.08 429.5,-312.08 422.5,-312.08"/>
</a>
</g>
</g>
<!-- Node10 -->
<g id="Node000010" class="node">
<title>Node10</title>
<g id="a_Node000010"><a xlink:href="../../d9/d8e/class_t3_d_c.html" target="_top" xlink:title="A T3DC class.">
<polygon fill="white" stroke="none" points="678,-203.5 522,-203.5 522,-66.5 678,-66.5 678,-203.5"/>
<text text-anchor="start" x="588" y="-189.05" font-family="Consolas" font-size="11.00">T3DC</text>
<text text-anchor="start" x="597" y="-172.05" font-family="Consolas" font-size="11.00"> </text>
<text text-anchor="start" x="526" y="-155.05" font-family="Consolas" font-size="11.00">+</text>
<text text-anchor="start" x="536" y="-155.05" font-family="Consolas" font-size="11.00">T3DC()</text>
<text text-anchor="start" x="526" y="-138.05" font-family="Consolas" font-size="11.00">+</text>
<text text-anchor="start" x="536" y="-138.05" font-family="Consolas" font-size="11.00">is_nlgeom()</text>
<text text-anchor="start" x="526" y="-121.05" font-family="Consolas" font-size="11.00">+</text>
<text text-anchor="start" x="536" y="-121.05" font-family="Consolas" font-size="11.00">get_copy()</text>
<text text-anchor="start" x="526" y="-104.05" font-family="Consolas" font-size="11.00">+</text>
<text text-anchor="start" x="536" y="-104.05" font-family="Consolas" font-size="11.00">to_global_geometry</text>
<text text-anchor="start" x="536" y="-90.55" font-family="Consolas" font-size="11.00">_mat()</text>
<text text-anchor="start" x="526" y="-73.05" font-family="Consolas" font-size="11.00">#</text>
<text text-anchor="start" x="536" y="-73.05" font-family="Consolas" font-size="11.00">update_transformation()</text>
<polygon fill="#666666" stroke="#666666" points="522,-184.5 522,-184.5 678,-184.5 678,-184.5 522,-184.5"/>
<polygon fill="#666666" stroke="#666666" points="522,-167.5 522,-167.5 678,-167.5 678,-167.5 522,-167.5"/>
<polygon fill="none" stroke="#666666" points="522,-66.5 522,-203.5 678,-203.5 678,-66.5 522,-66.5"/>
</a>
</g>
</g>
<!-- Node9&#45;&gt;Node10 -->
<g id="edge9_Node000009_Node000010" class="edge">
<title>Node9&#45;&gt;Node10</title>
<g id="a_edge9_Node000009_Node000010"><a xlink:title=" ">
<path fill="none" stroke="#63b8ff" d="M600,-303.99C600,-270.29 600,-233.77 600,-203.41"/>
<polygon fill="none" stroke="#63b8ff" points="596.5,-303.82 600,-313.82 603.5,-303.82 596.5,-303.82"/>
</a>
</g>
</g>
</g>
</svg>
