<?xml version="1.0" encoding="UTF-8" standalone="no"?>
<!DOCTYPE svg PUBLIC "-//W3C//DTD SVG 1.1//EN"
 "http://www.w3.org/Graphics/SVG/1.1/DTD/svg11.dtd">
<!-- Generated by graphviz version 2.43.0 (0)
 -->
<!-- Title: BilinearCC Pages: 1 -->
<!--zoomable 1206 -->
<svg id="main" version="1.1" xmlns="http://www.w3.org/2000/svg" xmlns:xlink="http://www.w3.org/1999/xlink" xml:space="preserve" onload="init(evt)">
<style type="text/css"><![CDATA[
.edge:hover path { stroke: red; }
.edge:hover polygon { stroke: red; fill: red; }
]]></style>
<script type="text/javascript"><![CDATA[
var edges = document.getElementsByTagName('g');
if (edges && edges.length) {
  for (var i=0;i<edges.length;i++) {
    if (edges[i].id.substr(0,4)=='edge') {
      edges[i].setAttribute('class','edge');
    }
  }
}
]]></script>
        <defs>
                <circle id="rim" cx="0" cy="0" r="7"/>
                <circle id="rim2" cx="0" cy="0" r="3.5"/>
                <g id="zoomPlus">
                        <use xlink:href="#rim" fill="#404040">
                                <set attributeName="fill" to="#808080" begin="zoomplus.mouseover" end="zoomplus.mouseout"/>
                        </use>
                        <path d="M-4,0h8M0,-4v8" fill="none" stroke="white" stroke-width="1.5" pointer-events="none"/>
                </g>
                <g id="zoomMin">
                        <use xlink:href="#rim" fill="#404040">
                                <set attributeName="fill" to="#808080" begin="zoomminus.mouseover" end="zoomminus.mouseout"/>
                        </use>
                        <path d="M-4,0h8" fill="none" stroke="white" stroke-width="1.5" pointer-events="none"/>
                </g>
                <g id="dirArrow">
                        <path fill="none" stroke="white" stroke-width="1.5" d="M0,-3.0v7 M-2.5,-0.5L0,-3.0L2.5,-0.5"/>
                </g>
               <g id="resetDef">
                       <use xlink:href="#rim2" fill="#404040">
                               <set attributeName="fill" to="#808080" begin="reset.mouseover" end="reset.mouseout"/>
                       </use>
               </g>
        </defs>

<script type="text/javascript">
var viewWidth = 1238;
var viewHeight = 1206;
var sectionId = 'dynsection-1';
</script>
<script xlink:href="../../svgpan.js"/>
<svg id="graph" class="graph">
<g id="viewport">
<title>BilinearCC</title>
<polygon fill="white" stroke="transparent" points="-4,4 -4,-1202 1233.5,-1202 1233.5,4 -4,4"/>
<!-- Node1 -->
<g id="node1" class="node">
<title>Node1</title>
<g id="a_node1"><a xlink:title="The BilinearCC class.">
<polygon fill="#bfbfbf" stroke="black" points="12,-0.5 12,-84.5 123,-84.5 123,-0.5 12,-0.5"/>
<text text-anchor="middle" x="67.5" y="-71.7" font-family="Consolas" font-size="11.00">BilinearCC</text>
<polyline fill="none" stroke="black" points="12,-64.5 123,-64.5 "/>
<text text-anchor="middle" x="67.5" y="-51.7" font-family="Consolas" font-size="11.00"> </text>
<polyline fill="none" stroke="black" points="12,-44.5 123,-44.5 "/>
<text text-anchor="start" x="20" y="-31.7" font-family="Consolas" font-size="11.00">+ BilinearCC()</text>
<text text-anchor="start" x="20" y="-19.7" font-family="Consolas" font-size="11.00">+ get_copy()</text>
<text text-anchor="start" x="20" y="-7.7" font-family="Consolas" font-size="11.00">+ print()</text>
</a>
</g>
</g>
<!-- Node2 -->
<g id="node2" class="node">
<title>Node2</title>
<g id="a_node2"><a xlink:href="../../db/df8/struct_data_bilinear_c_c.html" target="_top" xlink:title=" ">
<polygon fill="white" stroke="black" points="0,-661.5 0,-721.5 111,-721.5 111,-661.5 0,-661.5"/>
<text text-anchor="middle" x="55.5" y="-708.7" font-family="Consolas" font-size="11.00">DataBilinearCC</text>
<polyline fill="none" stroke="black" points="0,-701.5 111,-701.5 "/>
<text text-anchor="middle" x="55.5" y="-688.7" font-family="Consolas" font-size="11.00"> </text>
<polyline fill="none" stroke="black" points="0,-681.5 111,-681.5 "/>
<text text-anchor="middle" x="55.5" y="-668.7" font-family="Consolas" font-size="11.00"> </text>
</a>
</g>
</g>
<!-- Node2&#45;&gt;Node1 -->
<g id="edge1" class="edge">
<title>Node2&#45;&gt;Node1</title>
<path fill="none" stroke="darkgreen" d="M55.5,-651.42C55.5,-597.94 55.5,-498.95 55.5,-414.5 55.5,-414.5 55.5,-414.5 55.5,-187.5 55.5,-152.75 59.01,-113.46 62.24,-84.7"/>
<polygon fill="none" stroke="darkgreen" points="52,-651.49 55.5,-661.49 59,-651.49 52,-651.49"/>
</g>
<!-- Node3 -->
<g id="node3" class="node">
<title>Node3</title>
<g id="a_node3"><a xlink:title=" ">
<polygon fill="white" stroke="black" points="98,-1137.5 98,-1197.5 155,-1197.5 155,-1137.5 98,-1137.5"/>
<text text-anchor="middle" x="126.5" y="-1184.7" font-family="Consolas" font-size="11.00">double</text>
<polyline fill="none" stroke="black" points="98,-1177.5 155,-1177.5 "/>
<text text-anchor="middle" x="126.5" y="-1164.7" font-family="Consolas" font-size="11.00"> </text>
<polyline fill="none" stroke="black" points="98,-1157.5 155,-1157.5 "/>
<text text-anchor="middle" x="126.5" y="-1144.7" font-family="Consolas" font-size="11.00"> </text>
</a>
</g>
</g>
<!-- Node3&#45;&gt;Node2 -->
<g id="edge2" class="edge">
<title>Node3&#45;&gt;Node2</title>
<path fill="none" stroke="#404040" d="M97.82,-1154.73C82.91,-1146.96 66.06,-1135.2 57.5,-1119 -9.51,-992.24 23.71,-813.22 43.87,-733.53"/>
<polygon fill="none" stroke="#404040" points="43.95,-733.23 41.59,-726.41 46.98,-721.61 49.33,-728.43 43.95,-733.23"/>
<text text-anchor="middle" x="85" y="-1056.2" font-family="Consolas" font-size="11.00"> +a</text>
<text text-anchor="middle" x="85" y="-1044.2" font-family="Consolas" font-size="11.00">+a_slope</text>
</g>
<!-- Node5 -->
<g id="node5" class="node">
<title>Node5</title>
<g id="a_node5"><a xlink:href="../../d7/d5e/struct_data_nonlinear_cam_clay.html" target="_top" xlink:title=" ">
<polygon fill="white" stroke="black" points="81.5,-383.5 81.5,-443.5 233.5,-443.5 233.5,-383.5 81.5,-383.5"/>
<text text-anchor="middle" x="157.5" y="-430.7" font-family="Consolas" font-size="11.00">DataNonlinearCamClay</text>
<polyline fill="none" stroke="black" points="81.5,-423.5 233.5,-423.5 "/>
<text text-anchor="middle" x="157.5" y="-410.7" font-family="Consolas" font-size="11.00"> </text>
<polyline fill="none" stroke="black" points="81.5,-403.5 233.5,-403.5 "/>
<text text-anchor="middle" x="157.5" y="-390.7" font-family="Consolas" font-size="11.00"> </text>
</a>
</g>
</g>
<!-- Node3&#45;&gt;Node5 -->
<g id="edge5" class="edge">
<title>Node3&#45;&gt;Node5</title>
<path fill="none" stroke="#404040" d="M127.7,-1137.48C132.47,-1021.64 150.18,-592.05 155.79,-456.06"/>
<polygon fill="none" stroke="#404040" points="155.8,-455.83 152.05,-449.67 156.29,-443.84 160.04,-450 155.8,-455.83"/>
<text text-anchor="middle" x="202" y="-875.7" font-family="Consolas" font-size="11.00"> +elastic_modulus</text>
<text text-anchor="middle" x="202" y="-863.7" font-family="Consolas" font-size="11.00">+m</text>
<text text-anchor="middle" x="202" y="-851.7" font-family="Consolas" font-size="11.00">+poissons_ratio</text>
<text text-anchor="middle" x="202" y="-839.7" font-family="Consolas" font-size="11.00">+pt</text>
<text text-anchor="middle" x="202" y="-827.7" font-family="Consolas" font-size="11.00">+square_beta</text>
</g>
<!-- Node8 -->
<g id="node8" class="node">
<title>Node8</title>
<g id="a_node8"><a xlink:href="../../de/de9/struct_data_material.html" target="_top" xlink:title=" ">
<polygon fill="white" stroke="black" points="413,-800.5 413,-908.5 558,-908.5 558,-800.5 413,-800.5"/>
<text text-anchor="middle" x="485.5" y="-895.7" font-family="Consolas" font-size="11.00">DataMaterial</text>
<polyline fill="none" stroke="black" points="413,-888.5 558,-888.5 "/>
<text text-anchor="start" x="421" y="-875.7" font-family="Consolas" font-size="11.00">+ trial_strain</text>
<text text-anchor="start" x="421" y="-863.7" font-family="Consolas" font-size="11.00">+ trial_strain_rate</text>
<text text-anchor="start" x="421" y="-851.7" font-family="Consolas" font-size="11.00">+ trial_strain_acc</text>
<text text-anchor="start" x="421" y="-839.7" font-family="Consolas" font-size="11.00">+ trial_stress</text>
<text text-anchor="start" x="421" y="-827.7" font-family="Consolas" font-size="11.00">+ trial_history</text>
<polyline fill="none" stroke="black" points="413,-820.5 558,-820.5 "/>
<text text-anchor="middle" x="485.5" y="-807.7" font-family="Consolas" font-size="11.00"> </text>
</a>
</g>
</g>
<!-- Node3&#45;&gt;Node8 -->
<g id="edge9" class="edge">
<title>Node3&#45;&gt;Node8</title>
<path fill="none" stroke="#404040" d="M133.37,-1137.39C134.76,-1131.32 136.2,-1124.95 137.5,-1119 150.26,-1060.49 122.52,-1029.7 164.5,-987 190.36,-960.7 210.61,-980.96 245.5,-969 299.17,-950.6 356.72,-923.65 402.01,-900.63"/>
<polygon fill="none" stroke="#404040" points="402.27,-900.5 405.79,-894.2 412.95,-895.03 409.44,-901.32 402.27,-900.5"/>
<text text-anchor="middle" x="242.5" y="-1062.2" font-family="Consolas" font-size="11.00"> +characteristic_length</text>
<text text-anchor="middle" x="242.5" y="-1050.2" font-family="Consolas" font-size="11.00">+density</text>
<text text-anchor="middle" x="242.5" y="-1038.2" font-family="Consolas" font-size="11.00">+tolerance</text>
</g>
<!-- Node4 -->
<g id="node4" class="node">
<title>Node4</title>
<g id="a_node4"><a xlink:href="../../d7/df3/class_nonlinear_cam_clay.html" target="_top" xlink:title="The NonlinearCamClay class.">
<polygon fill="white" stroke="black" points="83.5,-122.5 83.5,-254.5 255.5,-254.5 255.5,-122.5 83.5,-122.5"/>
<text text-anchor="middle" x="169.5" y="-241.7" font-family="Consolas" font-size="11.00">NonlinearCamClay</text>
<polyline fill="none" stroke="black" points="83.5,-234.5 255.5,-234.5 "/>
<text text-anchor="middle" x="169.5" y="-221.7" font-family="Consolas" font-size="11.00"> </text>
<polyline fill="none" stroke="black" points="83.5,-214.5 255.5,-214.5 "/>
<text text-anchor="start" x="91.5" y="-201.7" font-family="Consolas" font-size="11.00">+ NonlinearCamClay()</text>
<text text-anchor="start" x="91.5" y="-189.7" font-family="Consolas" font-size="11.00">+ initialize()</text>
<text text-anchor="start" x="91.5" y="-177.7" font-family="Consolas" font-size="11.00">+ get_parameter()</text>
<text text-anchor="start" x="91.5" y="-165.7" font-family="Consolas" font-size="11.00">+ update_trial_status()</text>
<text text-anchor="start" x="91.5" y="-153.7" font-family="Consolas" font-size="11.00">+ clear_status()</text>
<text text-anchor="start" x="91.5" y="-141.7" font-family="Consolas" font-size="11.00">+ commit_status()</text>
<text text-anchor="start" x="91.5" y="-129.7" font-family="Consolas" font-size="11.00">+ reset_status()</text>
</a>
</g>
</g>
<!-- Node4&#45;&gt;Node1 -->
<g id="edge3" class="edge">
<title>Node4&#45;&gt;Node1</title>
<path fill="none" stroke="midnightblue" d="M117.31,-113.82C110.2,-103.78 103.12,-93.79 96.63,-84.62"/>
<polygon fill="none" stroke="midnightblue" points="114.64,-116.1 123.28,-122.24 120.35,-112.06 114.64,-116.1"/>
</g>
<!-- Node5&#45;&gt;Node4 -->
<g id="edge4" class="edge">
<title>Node5&#45;&gt;Node4</title>
<path fill="none" stroke="darkgreen" d="M159.61,-373.26C161.37,-340.53 163.92,-293.21 165.99,-254.78"/>
<polygon fill="none" stroke="darkgreen" points="156.11,-373.17 159.07,-383.35 163.1,-373.55 156.11,-373.17"/>
</g>
<!-- Node6 -->
<g id="node6" class="node">
<title>Node6</title>
<g id="a_node6"><a xlink:href="../../d7/d42/class_material3_d.html" target="_top" xlink:title="The Material3D class.">
<polygon fill="white" stroke="black" points="360,-292.5 360,-364.5 471,-364.5 471,-292.5 360,-292.5"/>
<text text-anchor="middle" x="415.5" y="-351.7" font-family="Consolas" font-size="11.00">Material3D</text>
<polyline fill="none" stroke="black" points="360,-344.5 471,-344.5 "/>
<text text-anchor="middle" x="415.5" y="-331.7" font-family="Consolas" font-size="11.00"> </text>
<polyline fill="none" stroke="black" points="360,-324.5 471,-324.5 "/>
<text text-anchor="start" x="368" y="-311.7" font-family="Consolas" font-size="11.00">+ Material3D()</text>
<text text-anchor="start" x="368" y="-299.7" font-family="Consolas" font-size="11.00">+ record()</text>
</a>
</g>
</g>
<!-- Node6&#45;&gt;Node4 -->
<g id="edge6" class="edge">
<title>Node6&#45;&gt;Node4</title>
<path fill="none" stroke="midnightblue" d="M351.13,-291.39C321.98,-275.04 287.09,-255.46 255.71,-237.86"/>
<polygon fill="none" stroke="midnightblue" points="349.55,-294.52 359.99,-296.36 352.98,-288.41 349.55,-294.52"/>
</g>
<!-- Node7 -->
<g id="node7" class="node">
<title>Node7</title>
<g id="a_node7"><a xlink:href="../../dc/dee/class_material.html" target="_top" xlink:title="A Material abstract base class.">
<polygon fill="white" stroke="black" points="486.5,-462.5 486.5,-642.5 644.5,-642.5 644.5,-462.5 486.5,-462.5"/>
<text text-anchor="middle" x="565.5" y="-629.7" font-family="Consolas" font-size="11.00">Material</text>
<polyline fill="none" stroke="black" points="486.5,-622.5 644.5,-622.5 "/>
<text text-anchor="middle" x="565.5" y="-609.7" font-family="Consolas" font-size="11.00"> </text>
<polyline fill="none" stroke="black" points="486.5,-602.5 644.5,-602.5 "/>
<text text-anchor="start" x="494.5" y="-589.7" font-family="Consolas" font-size="11.00">+ Material()</text>
<text text-anchor="start" x="494.5" y="-577.7" font-family="Consolas" font-size="11.00">+ Material()</text>
<text text-anchor="start" x="494.5" y="-565.7" font-family="Consolas" font-size="11.00">+ Material()</text>
<text text-anchor="start" x="494.5" y="-553.7" font-family="Consolas" font-size="11.00">+ operator=()</text>
<text text-anchor="start" x="494.5" y="-541.7" font-family="Consolas" font-size="11.00">+ operator=()</text>
<text text-anchor="start" x="494.5" y="-529.7" font-family="Consolas" font-size="11.00">+ ~Material()</text>
<text text-anchor="start" x="494.5" y="-517.7" font-family="Consolas" font-size="11.00">+ get_density()</text>
<text text-anchor="start" x="494.5" y="-505.7" font-family="Consolas" font-size="11.00">+ get_material_type()</text>
<text text-anchor="start" x="494.5" y="-493.7" font-family="Consolas" font-size="11.00">+ get_plane_type()</text>
<text text-anchor="start" x="494.5" y="-481.7" font-family="Consolas" font-size="11.00">+ initialize_base()</text>
<text text-anchor="start" x="494.5" y="-469.7" font-family="Consolas" font-size="11.00">and 72 more...</text>
</a>
</g>
</g>
<!-- Node7&#45;&gt;Node6 -->
<g id="edge7" class="edge">
<title>Node7&#45;&gt;Node6</title>
<path fill="none" stroke="midnightblue" d="M499.62,-454C478.13,-422.2 455.63,-388.9 439.31,-364.75"/>
<polygon fill="none" stroke="midnightblue" points="496.85,-456.16 505.35,-462.48 502.66,-452.24 496.85,-456.16"/>
</g>
<!-- Node8&#45;&gt;Node7 -->
<g id="edge8" class="edge">
<title>Node8&#45;&gt;Node7</title>
<path fill="none" stroke="darkgreen" d="M502.31,-790.47C513.74,-747.61 529.03,-690.28 541.7,-642.74"/>
<polygon fill="none" stroke="darkgreen" points="498.91,-789.65 499.71,-800.21 505.67,-791.45 498.91,-789.65"/>
</g>
<!-- Node9 -->
<g id="node9" class="node">
<title>Node9</title>
<g id="a_node9"><a xlink:title=" ">
<polygon fill="white" stroke="black" points="252.5,-1137.5 252.5,-1197.5 390.5,-1197.5 390.5,-1137.5 252.5,-1137.5"/>
<text text-anchor="middle" x="321.5" y="-1184.7" font-family="Consolas" font-size="11.00">const MaterialType</text>
<polyline fill="none" stroke="black" points="252.5,-1177.5 390.5,-1177.5 "/>
<text text-anchor="middle" x="321.5" y="-1164.7" font-family="Consolas" font-size="11.00"> </text>
<polyline fill="none" stroke="black" points="252.5,-1157.5 390.5,-1157.5 "/>
<text text-anchor="middle" x="321.5" y="-1144.7" font-family="Consolas" font-size="11.00"> </text>
</a>
</g>
</g>
<!-- Node9&#45;&gt;Node8 -->
<g id="edge10" class="edge">
<title>Node9&#45;&gt;Node8</title>
<path fill="none" stroke="#404040" d="M322.09,-1137.46C323.94,-1100.5 330.93,-1035.61 356.5,-987 369.98,-961.37 390.07,-937.41 410.4,-917.16"/>
<polygon fill="none" stroke="#404040" points="410.5,-917.06 412.02,-910.02 419.11,-908.71 417.59,-915.76 410.5,-917.06"/>
<text text-anchor="middle" x="407.5" y="-1050.2" font-family="Consolas" font-size="11.00"> +material_type</text>
</g>
<!-- Node10 -->
<g id="node10" class="node">
<title>Node10</title>
<g id="a_node10"><a xlink:title=" ">
<polygon fill="white" stroke="black" points="408.5,-1137.5 408.5,-1197.5 526.5,-1197.5 526.5,-1137.5 408.5,-1137.5"/>
<text text-anchor="middle" x="467.5" y="-1184.7" font-family="Consolas" font-size="11.00">const PlaneType</text>
<polyline fill="none" stroke="black" points="408.5,-1177.5 526.5,-1177.5 "/>
<text text-anchor="middle" x="467.5" y="-1164.7" font-family="Consolas" font-size="11.00"> </text>
<polyline fill="none" stroke="black" points="408.5,-1157.5 526.5,-1157.5 "/>
<text text-anchor="middle" x="467.5" y="-1144.7" font-family="Consolas" font-size="11.00"> </text>
</a>
</g>
</g>
<!-- Node10&#45;&gt;Node8 -->
<g id="edge11" class="edge">
<title>Node10&#45;&gt;Node8</title>
<path fill="none" stroke="#404040" d="M465.37,-1137.37C465.01,-1131.31 464.69,-1124.95 464.5,-1119 462.65,-1060.36 459.86,-1045.48 464.5,-987 466.22,-965.33 469.51,-941.83 472.98,-920.78"/>
<polygon fill="none" stroke="#404040" points="473.03,-920.52 470.09,-913.94 475.04,-908.69 477.98,-915.28 473.03,-920.52"/>
<text text-anchor="middle" x="505.5" y="-1050.2" font-family="Consolas" font-size="11.00"> +plane_type</text>
</g>
<!-- Node11 -->
<g id="node11" class="node">
<title>Node11</title>
<g id="a_node11"><a xlink:title=" ">
<polygon fill="white" stroke="black" points="973,-1137.5 973,-1197.5 1010,-1197.5 1010,-1137.5 973,-1137.5"/>
<text text-anchor="middle" x="991.5" y="-1184.7" font-family="Consolas" font-size="11.00">vec</text>
<polyline fill="none" stroke="black" points="973,-1177.5 1010,-1177.5 "/>
<text text-anchor="middle" x="991.5" y="-1164.7" font-family="Consolas" font-size="11.00"> </text>
<polyline fill="none" stroke="black" points="973,-1157.5 1010,-1157.5 "/>
<text text-anchor="middle" x="991.5" y="-1144.7" font-family="Consolas" font-size="11.00"> </text>
</a>
</g>
</g>
<!-- Node11&#45;&gt;Node8 -->
<g id="edge12" class="edge">
<title>Node11&#45;&gt;Node8</title>
<path fill="none" stroke="#404040" d="M972.84,-1161.04C953.65,-1154.4 924.52,-1141.22 909.5,-1119 876.31,-1069.89 934.02,-1027.24 890.5,-987 867.77,-965.99 641.05,-980.97 612.5,-969 584.94,-957.45 559.35,-937.32 538.46,-917.2"/>
<polygon fill="none" stroke="#404040" points="538.32,-917.06 531.25,-915.67 529.81,-908.6 536.89,-910 538.32,-917.06"/>
<text text-anchor="middle" x="977.5" y="-1110.2" font-family="Consolas" font-size="11.00"> +current_history</text>
<text text-anchor="middle" x="977.5" y="-1098.2" font-family="Consolas" font-size="11.00">+current_strain</text>
<text text-anchor="middle" x="977.5" y="-1086.2" font-family="Consolas" font-size="11.00">+current_strain_acc</text>
<text text-anchor="middle" x="977.5" y="-1074.2" font-family="Consolas" font-size="11.00">+current_strain_rate</text>
<text text-anchor="middle" x="977.5" y="-1062.2" font-family="Consolas" font-size="11.00">+current_stress</text>
<text text-anchor="middle" x="977.5" y="-1050.2" font-family="Consolas" font-size="11.00">+incre_strain</text>
<text text-anchor="middle" x="977.5" y="-1038.2" font-family="Consolas" font-size="11.00">+incre_strain_acc</text>
<text text-anchor="middle" x="977.5" y="-1026.2" font-family="Consolas" font-size="11.00">+incre_strain_rate</text>
<text text-anchor="middle" x="977.5" y="-1014.2" font-family="Consolas" font-size="11.00">+incre_stress</text>
<text text-anchor="middle" x="977.5" y="-1002.2" font-family="Consolas" font-size="11.00">+initial_history</text>
<text text-anchor="middle" x="977.5" y="-990.2" font-family="Consolas" font-size="11.00">...</text>
</g>
<!-- Node13 -->
<g id="node13" class="node">
<title>Node13</title>
<g id="a_node13"><a xlink:href="../../da/de4/struct_data_couple_material.html" target="_top" xlink:title=" ">
<polygon fill="white" stroke="black" points="621.5,-824.5 621.5,-884.5 759.5,-884.5 759.5,-824.5 621.5,-824.5"/>
<text text-anchor="middle" x="690.5" y="-871.7" font-family="Consolas" font-size="11.00">DataCoupleMaterial</text>
<polyline fill="none" stroke="black" points="621.5,-864.5 759.5,-864.5 "/>
<text text-anchor="middle" x="690.5" y="-851.7" font-family="Consolas" font-size="11.00"> </text>
<polyline fill="none" stroke="black" points="621.5,-844.5 759.5,-844.5 "/>
<text text-anchor="middle" x="690.5" y="-831.7" font-family="Consolas" font-size="11.00"> </text>
</a>
</g>
</g>
<!-- Node11&#45;&gt;Node13 -->
<g id="edge15" class="edge">
<title>Node11&#45;&gt;Node13</title>
<path fill="none" stroke="#404040" d="M1010.2,-1157.07C1023.89,-1149.03 1041.42,-1136.06 1049.5,-1119 1074.61,-1065.98 1089.63,-1029.79 1049.5,-987 1028.17,-964.26 796.66,-984.31 769.5,-969 740.81,-952.82 720.18,-921.38 707.21,-895.69"/>
<polygon fill="none" stroke="#404040" points="707.15,-895.55 700.95,-891.87 701.96,-884.73 708.16,-888.41 707.15,-895.55"/>
<text text-anchor="middle" x="1151.5" y="-1080.2" font-family="Consolas" font-size="11.00"> +current_couple_stress</text>
<text text-anchor="middle" x="1151.5" y="-1068.2" font-family="Consolas" font-size="11.00">+current_curvature</text>
<text text-anchor="middle" x="1151.5" y="-1056.2" font-family="Consolas" font-size="11.00">+incre_couple_stress</text>
<text text-anchor="middle" x="1151.5" y="-1044.2" font-family="Consolas" font-size="11.00">+incre_curvature</text>
<text text-anchor="middle" x="1151.5" y="-1032.2" font-family="Consolas" font-size="11.00">+trial_couple_stress</text>
<text text-anchor="middle" x="1151.5" y="-1020.2" font-family="Consolas" font-size="11.00">+trial_curvature</text>
</g>
<!-- Node12 -->
<g id="node12" class="node">
<title>Node12</title>
<g id="a_node12"><a xlink:title=" ">
<polygon fill="white" stroke="black" points="622,-1137.5 622,-1197.5 659,-1197.5 659,-1137.5 622,-1137.5"/>
<text text-anchor="middle" x="640.5" y="-1184.7" font-family="Consolas" font-size="11.00">mat</text>
<polyline fill="none" stroke="black" points="622,-1177.5 659,-1177.5 "/>
<text text-anchor="middle" x="640.5" y="-1164.7" font-family="Consolas" font-size="11.00"> </text>
<polyline fill="none" stroke="black" points="622,-1157.5 659,-1157.5 "/>
<text text-anchor="middle" x="640.5" y="-1144.7" font-family="Consolas" font-size="11.00"> </text>
</a>
</g>
</g>
<!-- Node12&#45;&gt;Node8 -->
<g id="edge13" class="edge">
<title>Node12&#45;&gt;Node8</title>
<path fill="none" stroke="#404040" d="M621.76,-1159.93C604.2,-1152.74 578.74,-1139.44 565.5,-1119 533.29,-1069.25 563.37,-1043.82 546.5,-987 539.79,-964.4 529.82,-940.74 519.88,-919.81"/>
<polygon fill="none" stroke="#404040" points="519.79,-919.61 513.57,-915.96 514.54,-908.82 520.76,-912.47 519.79,-919.61"/>
<text text-anchor="middle" x="626.5" y="-1098.2" font-family="Consolas" font-size="11.00"> +current_damping</text>
<text text-anchor="middle" x="626.5" y="-1086.2" font-family="Consolas" font-size="11.00">+current_inertial</text>
<text text-anchor="middle" x="626.5" y="-1074.2" font-family="Consolas" font-size="11.00">+current_stiffness</text>
<text text-anchor="middle" x="626.5" y="-1062.2" font-family="Consolas" font-size="11.00">+initial_damping</text>
<text text-anchor="middle" x="626.5" y="-1050.2" font-family="Consolas" font-size="11.00">+initial_inertial</text>
<text text-anchor="middle" x="626.5" y="-1038.2" font-family="Consolas" font-size="11.00">+initial_stiffness</text>
<text text-anchor="middle" x="626.5" y="-1026.2" font-family="Consolas" font-size="11.00">+trial_damping</text>
<text text-anchor="middle" x="626.5" y="-1014.2" font-family="Consolas" font-size="11.00">+trial_inertial</text>
<text text-anchor="middle" x="626.5" y="-1002.2" font-family="Consolas" font-size="11.00">+trial_stiffness</text>
</g>
<!-- Node12&#45;&gt;Node13 -->
<g id="edge16" class="edge">
<title>Node12&#45;&gt;Node13</title>
<path fill="none" stroke="#404040" d="M659.03,-1155.1C670.74,-1146.73 684.89,-1134.2 691.5,-1119 723.27,-1045.99 711.38,-950.46 700.51,-896.78"/>
<polygon fill="none" stroke="#404040" points="700.44,-896.44 695.28,-891.41 697.94,-884.71 703.1,-889.74 700.44,-896.44"/>
<text text-anchor="middle" x="800.5" y="-1062.2" font-family="Consolas" font-size="11.00"> +current_couple_stiffness</text>
<text text-anchor="middle" x="800.5" y="-1050.2" font-family="Consolas" font-size="11.00">+initial_couple_stiffness</text>
<text text-anchor="middle" x="800.5" y="-1038.2" font-family="Consolas" font-size="11.00">+trial_couple_stiffness</text>
</g>
<!-- Node13&#45;&gt;Node7 -->
<g id="edge14" class="edge">
<title>Node13&#45;&gt;Node7</title>
<path fill="none" stroke="darkgreen" d="M674.52,-815.16C656.5,-771.91 626.59,-700.11 602.65,-642.65"/>
<polygon fill="none" stroke="darkgreen" points="671.32,-816.58 678.4,-824.46 677.79,-813.89 671.32,-816.58"/>
</g>
<!-- Node14 -->
<g id="node14" class="node">
<title>Node14</title>
<g id="a_node14"><a xlink:href="../../d0/d57/class_tag.html" target="_top" xlink:title="A base Tag class.">
<polygon fill="white" stroke="black" points="778,-740.5 778,-968.5 889,-968.5 889,-740.5 778,-740.5"/>
<text text-anchor="middle" x="833.5" y="-955.7" font-family="Consolas" font-size="11.00">Tag</text>
<polyline fill="none" stroke="black" points="778,-948.5 889,-948.5 "/>
<text text-anchor="middle" x="833.5" y="-935.7" font-family="Consolas" font-size="11.00"> </text>
<polyline fill="none" stroke="black" points="778,-928.5 889,-928.5 "/>
<text text-anchor="start" x="786" y="-915.7" font-family="Consolas" font-size="11.00">+ Tag()</text>
<text text-anchor="start" x="786" y="-903.7" font-family="Consolas" font-size="11.00">+ Tag()</text>
<text text-anchor="start" x="786" y="-891.7" font-family="Consolas" font-size="11.00">+ Tag()</text>
<text text-anchor="start" x="786" y="-879.7" font-family="Consolas" font-size="11.00">+ operator=()</text>
<text text-anchor="start" x="786" y="-867.7" font-family="Consolas" font-size="11.00">+ operator=()</text>
<text text-anchor="start" x="786" y="-855.7" font-family="Consolas" font-size="11.00">+ ~Tag()</text>
<text text-anchor="start" x="786" y="-843.7" font-family="Consolas" font-size="11.00">+ set_tag()</text>
<text text-anchor="start" x="786" y="-831.7" font-family="Consolas" font-size="11.00">+ get_tag()</text>
<text text-anchor="start" x="786" y="-819.7" font-family="Consolas" font-size="11.00">+ enable()</text>
<text text-anchor="start" x="786" y="-807.7" font-family="Consolas" font-size="11.00">+ disable()</text>
<text text-anchor="start" x="786" y="-795.7" font-family="Consolas" font-size="11.00">+ guard()</text>
<text text-anchor="start" x="786" y="-783.7" font-family="Consolas" font-size="11.00">+ unguard()</text>
<text text-anchor="start" x="786" y="-771.7" font-family="Consolas" font-size="11.00">+ is_active()</text>
<text text-anchor="start" x="786" y="-759.7" font-family="Consolas" font-size="11.00">+ is_guarded()</text>
<text text-anchor="start" x="786" y="-747.7" font-family="Consolas" font-size="11.00">+ print()</text>
</a>
</g>
</g>
<!-- Node14&#45;&gt;Node7 -->
<g id="edge17" class="edge">
<title>Node14&#45;&gt;Node7</title>
<path fill="none" stroke="midnightblue" d="M771.77,-744.18C770.69,-742.77 769.6,-741.37 768.5,-740 732.21,-694.56 684.64,-650.25 644.68,-616.22"/>
<polygon fill="none" stroke="midnightblue" points="769.12,-746.48 777.88,-752.44 774.75,-742.32 769.12,-746.48"/>
</g>
</g>
</svg>
        <g id="navigator" transform="translate(0 0)" fill="#404254">
                <rect fill="#f2f5e9" fill-opacity="0.5" stroke="#606060" stroke-width=".5" x="0" y="0" width="60" height="60"/>
                <use id="zoomplus" xlink:href="#zoomPlus" x="17" y="9" onmousedown="handleZoom(evt,'in')"/>
                <use id="zoomminus" xlink:href="#zoomMin" x="42" y="9" onmousedown="handleZoom(evt,'out')"/>
                <use id="reset" xlink:href="#resetDef" x="30" y="36" onmousedown="handleReset()"/>
                <g id="arrowUp" xlink:href="#dirArrow" transform="translate(30 24)" onmousedown="handlePan(0,-1)">
                  <use xlink:href="#rim" fill="#404040">
                        <set attributeName="fill" to="#808080" begin="arrowUp.mouseover" end="arrowUp.mouseout"/>
                  </use>
                  <path fill="none" stroke="white" stroke-width="1.5" d="M0,-3.0v7 M-2.5,-0.5L0,-3.0L2.5,-0.5"/>
                </g>
                <g id="arrowRight" xlink:href="#dirArrow" transform="rotate(90) translate(36 -43)" onmousedown="handlePan(1,0)">
                  <use xlink:href="#rim" fill="#404040">
                        <set attributeName="fill" to="#808080" begin="arrowRight.mouseover" end="arrowRight.mouseout"/>
                  </use>
                  <path fill="none" stroke="white" stroke-width="1.5" d="M0,-3.0v7 M-2.5,-0.5L0,-3.0L2.5,-0.5"/>
                </g>
                <g id="arrowDown" xlink:href="#dirArrow" transform="rotate(180) translate(-30 -48)" onmousedown="handlePan(0,1)">
                  <use xlink:href="#rim" fill="#404040">
                        <set attributeName="fill" to="#808080" begin="arrowDown.mouseover" end="arrowDown.mouseout"/>
                  </use>
                  <path fill="none" stroke="white" stroke-width="1.5" d="M0,-3.0v7 M-2.5,-0.5L0,-3.0L2.5,-0.5"/>
                </g>
                <g id="arrowLeft" xlink:href="#dirArrow" transform="rotate(270) translate(-36 17)" onmousedown="handlePan(-1,0)">
                  <use xlink:href="#rim" fill="#404040">
                        <set attributeName="fill" to="#808080" begin="arrowLeft.mouseover" end="arrowLeft.mouseout"/>
                  </use>
                  <path fill="none" stroke="white" stroke-width="1.5" d="M0,-3.0v7 M-2.5,-0.5L0,-3.0L2.5,-0.5"/>
                </g>
        </g>
        <svg viewBox="0 0 15 15" width="100%" height="30px" preserveAspectRatio="xMaxYMin meet">
         <g id="arrow_out" transform="scale(0.3 0.3)">
          <a xlink:href="class_bilinear_c_c__coll__graph_org.svg" target="_base">
           <rect id="button" ry="5" rx="5" y="6" x="6" height="38" width="38"
                fill="#f2f5e9" fill-opacity="0.5" stroke="#606060" stroke-width="1.0"/>
           <path id="arrow"
             d="M 11.500037,31.436501 C 11.940474,20.09759 22.043105,11.32322 32.158766,21.979434 L 37.068811,17.246167 C 37.068811,17.246167 37.088388,32 37.088388,32 L 22.160133,31.978069 C 22.160133,31.978069 26.997745,27.140456 26.997745,27.140456 C 18.528582,18.264221 13.291696,25.230495 11.500037,31.436501 z"
             style="fill:#404040;"/>
          </a>
         </g>
        </svg>
</svg>
