<?xml version="1.0" encoding="UTF-8" standalone="no"?>
<!DOCTYPE svg PUBLIC "-//W3C//DTD SVG 1.1//EN"
 "http://www.w3.org/Graphics/SVG/1.1/DTD/svg11.dtd">
<!-- Generated by graphviz version 2.43.0 (0)
 -->
<!-- Title: RigidWallMultiplier2D::RigidWallMultiplier2D Pages: 1 -->
<svg width="575pt" height="340pt"
 viewBox="0.00 0.00 575.00 340.00" xmlns="http://www.w3.org/2000/svg" xmlns:xlink="http://www.w3.org/1999/xlink">
<g id="graph0" class="graph" transform="scale(1 1) rotate(0) translate(4 336)">
<title>RigidWallMultiplier2D::RigidWallMultiplier2D</title>
<!-- Node1 -->
<g id="Node000001" class="node">
<title>Node1</title>
<g id="a_Node000001"><a xlink:title=" ">
<polygon fill="#999999" stroke="#666666" points="172,-182 0,-182 0,-150 172,-150 172,-182"/>
<text text-anchor="start" x="8" y="-169.2" font-family="Consolas" font-size="11.00">RigidWallMultiplier2D</text>
<text text-anchor="middle" x="86" y="-157.2" font-family="Consolas" font-size="11.00">::RigidWallMultiplier2D</text>
</a>
</g>
</g>
<!-- Node2 -->
<g id="Node000002" class="node">
<title>Node2</title>
<g id="a_Node000002"><a xlink:href="../../df/dfe/group___constraint.html#ga7d94dec717080a28c838044e4481ee40" target="_top" xlink:title=" ">
<polygon fill="white" stroke="#666666" points="366,-182 208,-182 208,-150 366,-150 366,-182"/>
<text text-anchor="start" x="216" y="-169.2" font-family="Consolas" font-size="11.00">set_handler&lt; DOF::U1,</text>
<text text-anchor="middle" x="287" y="-157.2" font-family="Consolas" font-size="11.00"> DOF::U2 &gt;</text>
</a>
</g>
</g>
<!-- Node1&#45;&gt;Node2 -->
<g id="edge1_Node000001_Node000002" class="edge">
<title>Node1&#45;&gt;Node2</title>
<g id="a_edge1_Node000001_Node000002"><a xlink:title=" ">
<path fill="none" stroke="#63b8ff" d="M172.26,-166C180.66,-166 189.2,-166 197.63,-166"/>
<polygon fill="#63b8ff" stroke="#63b8ff" points="197.84,-169.5 207.84,-166 197.84,-162.5 197.84,-169.5"/>
</a>
</g>
</g>
<!-- Node3 -->
<g id="Node000003" class="node">
<title>Node3</title>
<g id="a_Node000003"><a xlink:href="../../d0/d20/_node_helper_8hpp.html#adcb82e527448b90539bc78db75b56b89" target="_top" xlink:title=" ">
<polygon fill="white" stroke="#666666" points="560.5,-332 408.5,-332 408.5,-300 560.5,-300 560.5,-332"/>
<text text-anchor="start" x="416.5" y="-319.2" font-family="Consolas" font-size="11.00">check_dof_definition</text>
<text text-anchor="middle" x="484.5" y="-307.2" font-family="Consolas" font-size="11.00">&lt; DOF::U1, DOF::U2 &gt;</text>
</a>
</g>
</g>
<!-- Node2&#45;&gt;Node3 -->
<g id="edge2_Node000002_Node000003" class="edge">
<title>Node2&#45;&gt;Node3</title>
<g id="a_edge2_Node000002_Node000003"><a xlink:title=" ">
<path fill="none" stroke="#63b8ff" d="M298.56,-182.37C316.58,-209.03 355.85,-261.77 402,-291 404.6,-292.65 407.32,-294.2 410.12,-295.64"/>
<polygon fill="#63b8ff" stroke="#63b8ff" points="408.75,-298.87 419.29,-299.95 411.73,-292.53 408.75,-298.87"/>
</a>
</g>
</g>
<!-- Node4 -->
<g id="Node000004" class="node">
<title>Node4</title>
<g id="a_Node000004"><a xlink:href="../../d0/d20/_node_helper_8hpp.html#af3d26edec9edcefaa5e09073a3f0966b" target="_top" xlink:title=" ">
<polygon fill="white" stroke="#666666" points="560.5,-282 408.5,-282 408.5,-250 560.5,-250 560.5,-282"/>
<text text-anchor="start" x="416.5" y="-269.2" font-family="Consolas" font-size="11.00">get_current_velocity</text>
<text text-anchor="middle" x="484.5" y="-257.2" font-family="Consolas" font-size="11.00">&lt; DOF::U1, DOF::U2 &gt;</text>
</a>
</g>
</g>
<!-- Node2&#45;&gt;Node4 -->
<g id="edge3_Node000002_Node000004" class="edge">
<title>Node2&#45;&gt;Node4</title>
<g id="a_edge3_Node000002_Node000004"><a xlink:title=" ">
<path fill="none" stroke="#63b8ff" d="M308.78,-182.3C330.85,-198.97 367.27,-224.66 402,-241 406.03,-242.89 410.23,-244.69 414.52,-246.38"/>
<polygon fill="#63b8ff" stroke="#63b8ff" points="413.4,-249.7 423.99,-249.92 415.84,-243.14 413.4,-249.7"/>
</a>
</g>
</g>
<!-- Node5 -->
<g id="Node000005" class="node">
<title>Node5</title>
<g id="a_Node000005"><a xlink:href="../../d0/d20/_node_helper_8hpp.html#a2373bbca5f5c447a402c4595e198efd3" target="_top" xlink:title=" ">
<polygon fill="white" stroke="#666666" points="567,-232 402,-232 402,-200 567,-200 567,-232"/>
<text text-anchor="start" x="410" y="-219.2" font-family="Consolas" font-size="11.00">get_incre_acceleration</text>
<text text-anchor="middle" x="484.5" y="-207.2" font-family="Consolas" font-size="11.00">&lt; DOF::U1, DOF::U2 &gt;</text>
</a>
</g>
</g>
<!-- Node2&#45;&gt;Node5 -->
<g id="edge4_Node000002_Node000005" class="edge">
<title>Node2&#45;&gt;Node5</title>
<g id="a_edge4_Node000002_Node000005"><a xlink:title=" ">
<path fill="none" stroke="#63b8ff" d="M350.66,-182.03C369.87,-186.94 391.16,-192.38 410.96,-197.45"/>
<polygon fill="#63b8ff" stroke="#63b8ff" points="410.3,-200.89 420.86,-199.98 412.03,-194.11 410.3,-200.89"/>
</a>
</g>
</g>
<!-- Node6 -->
<g id="Node000006" class="node">
<title>Node6</title>
<g id="a_Node000006"><a xlink:href="../../d0/d20/_node_helper_8hpp.html#a2e6168a9ee01c487e7474264c68aa2eb" target="_top" xlink:title=" ">
<polygon fill="white" stroke="#666666" points="567,-182 402,-182 402,-150 567,-150 567,-182"/>
<text text-anchor="start" x="410" y="-169.2" font-family="Consolas" font-size="11.00">get_trial_acceleration</text>
<text text-anchor="middle" x="484.5" y="-157.2" font-family="Consolas" font-size="11.00">&lt; DOF::U1, DOF::U2 &gt;</text>
</a>
</g>
</g>
<!-- Node2&#45;&gt;Node6 -->
<g id="edge5_Node000002_Node000006" class="edge">
<title>Node2&#45;&gt;Node6</title>
<g id="a_edge5_Node000002_Node000006"><a xlink:title=" ">
<path fill="none" stroke="#63b8ff" d="M366.11,-166C374.59,-166 383.29,-166 391.91,-166"/>
<polygon fill="#63b8ff" stroke="#63b8ff" points="391.99,-169.5 401.99,-166 391.99,-162.5 391.99,-169.5"/>
</a>
</g>
</g>
<!-- Node7 -->
<g id="Node000007" class="node">
<title>Node7</title>
<g id="a_Node000007"><a xlink:href="../../d0/d20/_node_helper_8hpp.html#a2f7d3f992d24e0cdf063b53a9ad3308c" target="_top" xlink:title=" ">
<polygon fill="white" stroke="#666666" points="567,-132 402,-132 402,-100 567,-100 567,-132"/>
<text text-anchor="start" x="410" y="-119.2" font-family="Consolas" font-size="11.00">get_trial_displacement</text>
<text text-anchor="middle" x="484.5" y="-107.2" font-family="Consolas" font-size="11.00">&lt; DOF::U1, DOF::U2 &gt;</text>
</a>
</g>
</g>
<!-- Node2&#45;&gt;Node7 -->
<g id="edge6_Node000002_Node000007" class="edge">
<title>Node2&#45;&gt;Node7</title>
<g id="a_edge6_Node000002_Node000007"><a xlink:title=" ">
<path fill="none" stroke="#63b8ff" d="M350.66,-149.97C369.87,-145.06 391.16,-139.62 410.96,-134.55"/>
<polygon fill="#63b8ff" stroke="#63b8ff" points="412.03,-137.89 420.86,-132.02 410.3,-131.11 412.03,-137.89"/>
</a>
</g>
</g>
<!-- Node8 -->
<g id="Node000008" class="node">
<title>Node8</title>
<g id="a_Node000008"><a xlink:href="../../d0/d20/_node_helper_8hpp.html#a59bbbf098be3e68dd31e02d7a1969cd2" target="_top" xlink:title=" ">
<polygon fill="white" stroke="#666666" points="560.5,-82 408.5,-82 408.5,-50 560.5,-50 560.5,-82"/>
<text text-anchor="start" x="416.5" y="-69.2" font-family="Consolas" font-size="11.00">get_trial_position</text>
<text text-anchor="middle" x="484.5" y="-57.2" font-family="Consolas" font-size="11.00">&lt; DOF::U1, DOF::U2 &gt;</text>
</a>
</g>
</g>
<!-- Node2&#45;&gt;Node8 -->
<g id="edge7_Node000002_Node000008" class="edge">
<title>Node2&#45;&gt;Node8</title>
<g id="a_edge7_Node000002_Node000008"><a xlink:title=" ">
<path fill="none" stroke="#63b8ff" d="M308.78,-149.7C330.85,-133.03 367.27,-107.34 402,-91 406.03,-89.11 410.23,-87.31 414.52,-85.62"/>
<polygon fill="#63b8ff" stroke="#63b8ff" points="415.84,-88.86 423.99,-82.08 413.4,-82.3 415.84,-88.86"/>
</a>
</g>
</g>
<!-- Node9 -->
<g id="Node000009" class="node">
<title>Node9</title>
<g id="a_Node000009"><a xlink:href="../../d0/d20/_node_helper_8hpp.html#a63f7add1d3a19e22f4be1aa6614bc004" target="_top" xlink:title=" ">
<polygon fill="white" stroke="#666666" points="560.5,-32 408.5,-32 408.5,0 560.5,0 560.5,-32"/>
<text text-anchor="start" x="416.5" y="-19.2" font-family="Consolas" font-size="11.00">get_trial_velocity</text>
<text text-anchor="middle" x="484.5" y="-7.2" font-family="Consolas" font-size="11.00">&lt; DOF::U1, DOF::U2 &gt;</text>
</a>
</g>
</g>
<!-- Node2&#45;&gt;Node9 -->
<g id="edge8_Node000002_Node000009" class="edge">
<title>Node2&#45;&gt;Node9</title>
<g id="a_edge8_Node000002_Node000009"><a xlink:title=" ">
<path fill="none" stroke="#63b8ff" d="M298.56,-149.63C316.58,-122.97 355.85,-70.23 402,-41 404.6,-39.35 407.32,-37.8 410.12,-36.36"/>
<polygon fill="#63b8ff" stroke="#63b8ff" points="411.73,-39.47 419.29,-32.05 408.75,-33.13 411.73,-39.47"/>
</a>
</g>
</g>
</g>
</svg>
