<?xml version="1.0" encoding="UTF-8" standalone="no"?>
<!DOCTYPE svg PUBLIC "-//W3C//DTD SVG 1.1//EN"
 "http://www.w3.org/Graphics/SVG/1.1/DTD/svg11.dtd">
<!-- Generated by graphviz version 2.43.0 (0)
 -->
<!-- Title: CustomStressDegradation::initialize Pages: 1 -->
<svg width="790pt" height="138pt"
 viewBox="0.00 0.00 790.00 138.00" xmlns="http://www.w3.org/2000/svg" xmlns:xlink="http://www.w3.org/1999/xlink">
<g id="graph0" class="graph" transform="scale(1 1) rotate(0) translate(4 134)">
<title>CustomStressDegradation::initialize</title>
<!-- Node1 -->
<g id="Node000001" class="node">
<title>Node1</title>
<g id="a_Node000001"><a xlink:title=" ">
<polygon fill="#999999" stroke="#666666" points="172,-64 0,-64 0,-32 172,-32 172,-64"/>
<text text-anchor="start" x="8" y="-51.2" font-family="Consolas" font-size="11.00">CustomStressDegradation</text>
<text text-anchor="middle" x="86" y="-39.2" font-family="Consolas" font-size="11.00">::initialize</text>
</a>
</g>
</g>
<!-- Node2 -->
<g id="Node000002" class="node">
<title>Node2</title>
<g id="a_Node000002"><a xlink:href="../../d3/ddf/class_stress_degradation.html#a24d4c1a76b21c01329137cbadf3e1591" target="_top" xlink:title=" ">
<polygon fill="white" stroke="#666666" points="366.5,-108 221.5,-108 221.5,-76 366.5,-76 366.5,-108"/>
<text text-anchor="start" x="229.5" y="-95.2" font-family="Consolas" font-size="11.00">StressDegradation::</text>
<text text-anchor="middle" x="294" y="-83.2" font-family="Consolas" font-size="11.00">initialize</text>
</a>
</g>
</g>
<!-- Node1&#45;&gt;Node2 -->
<g id="edge1_Node000001_Node000002" class="edge">
<title>Node1&#45;&gt;Node2</title>
<g id="a_edge1_Node000001_Node000002"><a xlink:title=" ">
<path fill="none" stroke="#63b8ff" d="M161.95,-64.01C177.96,-67.43 194.94,-71.06 211.19,-74.53"/>
<polygon fill="#63b8ff" stroke="#63b8ff" points="210.68,-78 221.2,-76.66 212.15,-71.15 210.68,-78"/>
</a>
</g>
</g>
<!-- Node6 -->
<g id="Node000006" class="node">
<title>Node6</title>
<g id="a_Node000006"><a xlink:href="../../df/d03/class_expression.html#a8de5407f6667487e8f81dbd5099a6319" target="_top" xlink:title=" ">
<polygon fill="white" stroke="#666666" points="376.5,-58 211.5,-58 211.5,-38 376.5,-38 376.5,-58"/>
<text text-anchor="middle" x="294" y="-45.2" font-family="Consolas" font-size="11.00">Expression::input_size</text>
</a>
</g>
</g>
<!-- Node1&#45;&gt;Node6 -->
<g id="edge5_Node000001_Node000006" class="edge">
<title>Node1&#45;&gt;Node6</title>
<g id="a_edge5_Node000001_Node000006"><a xlink:title=" ">
<path fill="none" stroke="#63b8ff" d="M172.28,-48C181.89,-48 191.71,-48 201.4,-48"/>
<polygon fill="#63b8ff" stroke="#63b8ff" points="201.43,-51.5 211.43,-48 201.43,-44.5 201.43,-51.5"/>
</a>
</g>
</g>
<!-- Node7 -->
<g id="Node000007" class="node">
<title>Node7</title>
<g id="a_Node000007"><a xlink:href="../../df/d03/class_expression.html#a74722744ddfd36d9d488aaa146fb9f6f" target="_top" xlink:title=" ">
<polygon fill="white" stroke="#666666" points="380,-20 208,-20 208,0 380,0 380,-20"/>
<text text-anchor="middle" x="294" y="-7.2" font-family="Consolas" font-size="11.00">Expression::output_size</text>
</a>
</g>
</g>
<!-- Node1&#45;&gt;Node7 -->
<g id="edge6_Node000001_Node000007" class="edge">
<title>Node1&#45;&gt;Node7</title>
<g id="a_edge6_Node000001_Node000007"><a xlink:title=" ">
<path fill="none" stroke="#63b8ff" d="M172.28,-32.27C191.06,-28.8 210.65,-25.19 228.46,-21.91"/>
<polygon fill="#63b8ff" stroke="#63b8ff" points="229.51,-25.27 238.71,-20.01 228.24,-18.39 229.51,-25.27"/>
</a>
</g>
</g>
<!-- Node3 -->
<g id="Node000003" class="node">
<title>Node3</title>
<g id="a_Node000003"><a xlink:href="../../db/d75/class_degradation.html#a73445eadeb483399a496e45d025f40ba" target="_top" xlink:title=" ">
<polygon fill="white" stroke="#666666" points="588,-124 416,-124 416,-104 588,-104 588,-124"/>
<text text-anchor="middle" x="502" y="-111.2" font-family="Consolas" font-size="11.00">Degradation::initialize</text>
</a>
</g>
</g>
<!-- Node2&#45;&gt;Node3 -->
<g id="edge2_Node000002_Node000003" class="edge">
<title>Node2&#45;&gt;Node3</title>
<g id="a_edge2_Node000002_Node000003"><a xlink:title=" ">
<path fill="none" stroke="#63b8ff" d="M366.76,-99.66C379.34,-101.01 392.61,-102.42 405.72,-103.82"/>
<polygon fill="#63b8ff" stroke="#63b8ff" points="405.38,-107.31 415.69,-104.89 406.12,-100.35 405.38,-107.31"/>
</a>
</g>
</g>
<!-- Node5 -->
<g id="Node000005" class="node">
<title>Node5</title>
<g id="a_Node000005"><a xlink:href="../../dc/dee/class_material.html#ac62c67f984ab44bbf36375e1a0ddfb35" target="_top" xlink:title=" ">
<polygon fill="white" stroke="#666666" points="578,-86 426,-86 426,-54 578,-54 578,-86"/>
<text text-anchor="start" x="434" y="-73.2" font-family="Consolas" font-size="11.00">Material::initialize</text>
<text text-anchor="middle" x="502" y="-61.2" font-family="Consolas" font-size="11.00">_history</text>
</a>
</g>
</g>
<!-- Node2&#45;&gt;Node5 -->
<g id="edge4_Node000002_Node000005" class="edge">
<title>Node2&#45;&gt;Node5</title>
<g id="a_edge4_Node000002_Node000005"><a xlink:title=" ">
<path fill="none" stroke="#63b8ff" d="M366.76,-84.34C382.63,-82.64 399.58,-80.83 415.92,-79.09"/>
<polygon fill="#63b8ff" stroke="#63b8ff" points="416.43,-82.55 426,-78.01 415.68,-75.59 416.43,-82.55"/>
</a>
</g>
</g>
<!-- Node4 -->
<g id="Node000004" class="node">
<title>Node4</title>
<g id="a_Node000004"><a xlink:href="../../db/d75/class_degradation.html#a5b8dbc19598a84b9276ce8b018a15e58" target="_top" xlink:title=" ">
<polygon fill="white" stroke="#666666" points="782,-130 624,-130 624,-98 782,-98 782,-130"/>
<text text-anchor="start" x="632" y="-117.2" font-family="Consolas" font-size="11.00">Degradation::compute</text>
<text text-anchor="middle" x="703" y="-105.2" font-family="Consolas" font-size="11.00">_positive_degradation</text>
</a>
</g>
</g>
<!-- Node3&#45;&gt;Node4 -->
<g id="edge3_Node000003_Node000004" class="edge">
<title>Node3&#45;&gt;Node4</title>
<g id="a_edge3_Node000003_Node000004"><a xlink:title=" ">
<path fill="none" stroke="#63b8ff" d="M588.26,-114C596.66,-114 605.2,-114 613.63,-114"/>
<polygon fill="#63b8ff" stroke="#63b8ff" points="613.84,-117.5 623.84,-114 613.84,-110.5 613.84,-117.5"/>
</a>
</g>
</g>
</g>
</svg>
