<?xml version="1.0" encoding="UTF-8" standalone="no"?>
<!DOCTYPE svg PUBLIC "-//W3C//DTD SVG 1.1//EN"
 "http://www.w3.org/Graphics/SVG/1.1/DTD/svg11.dtd">
<!-- Generated by graphviz version 2.43.0 (0)
 -->
<!-- Title: OS146S::initialize Pages: 1 -->
<svg width="381pt" height="119pt"
 viewBox="0.00 0.00 381.00 119.00" xmlns="http://www.w3.org/2000/svg" xmlns:xlink="http://www.w3.org/1999/xlink">
<g id="graph0" class="graph" transform="scale(1 1) rotate(0) translate(4 115)">
<title>OS146S::initialize</title>
<polygon fill="white" stroke="transparent" points="-4,4 -4,-115 377,-115 377,4 -4,4"/>
<!-- Node1 -->
<g id="node1" class="node">
<title>Node1</title>
<g id="a_node1"><a xlink:title=" ">
<polygon fill="#bfbfbf" stroke="black" points="0,-45.5 0,-65.5 138,-65.5 138,-45.5 0,-45.5"/>
<text text-anchor="middle" x="69" y="-52.7" font-family="Consolas" font-size="11.00">OS146S::initialize</text>
</a>
</g>
</g>
<!-- Node2 -->
<g id="node2" class="node">
<title>Node2</title>
<g id="a_node2"><a xlink:href="../../dc/dee/class_material.html#aede2f9427250c8560ac6547b16d6110a" target="_top" xlink:title=" ">
<polygon fill="white" stroke="black" points="194.5,-90.5 194.5,-110.5 352.5,-110.5 352.5,-90.5 194.5,-90.5"/>
<text text-anchor="middle" x="273.5" y="-97.7" font-family="Consolas" font-size="11.00">Material::get_density</text>
</a>
</g>
</g>
<!-- Node1&#45;&gt;Node2 -->
<g id="edge1" class="edge">
<title>Node1&#45;&gt;Node2</title>
<path fill="none" stroke="midnightblue" d="M107.92,-65.51C127.58,-70.56 152.01,-76.63 174,-81.5 184.92,-83.92 196.55,-86.31 207.86,-88.55"/>
<polygon fill="midnightblue" stroke="midnightblue" points="207.2,-91.99 217.68,-90.48 208.54,-85.12 207.2,-91.99"/>
</g>
<!-- Node3 -->
<g id="node3" class="node">
<title>Node3</title>
<g id="a_node3"><a xlink:href="../../dc/dee/class_material.html#a7ee1a5e060b0dd313f95d1afa6a71db8" target="_top" xlink:title=" ">
<polygon fill="white" stroke="black" points="194.5,-39.5 194.5,-71.5 352.5,-71.5 352.5,-39.5 194.5,-39.5"/>
<text text-anchor="start" x="202.5" y="-58.7" font-family="Consolas" font-size="11.00">Material::get_initial</text>
<text text-anchor="middle" x="273.5" y="-46.7" font-family="Consolas" font-size="11.00">_stiffness</text>
</a>
</g>
</g>
<!-- Node1&#45;&gt;Node3 -->
<g id="edge2" class="edge">
<title>Node1&#45;&gt;Node3</title>
<path fill="none" stroke="midnightblue" d="M138.27,-55.5C153.06,-55.5 168.9,-55.5 184.33,-55.5"/>
<polygon fill="midnightblue" stroke="midnightblue" points="184.4,-59 194.4,-55.5 184.4,-52 184.4,-59"/>
</g>
<!-- Node4 -->
<g id="node4" class="node">
<title>Node4</title>
<g id="a_node4"><a xlink:href="../../dc/dee/class_material.html#ab63edaec70fa7a7de3c1e8445fd3e908" target="_top" xlink:title=" ">
<polygon fill="white" stroke="black" points="174,-0.5 174,-20.5 373,-20.5 373,-0.5 174,-0.5"/>
<text text-anchor="middle" x="273.5" y="-7.7" font-family="Consolas" font-size="11.00">Material::get_material_type</text>
</a>
</g>
</g>
<!-- Node1&#45;&gt;Node4 -->
<g id="edge3" class="edge">
<title>Node1&#45;&gt;Node4</title>
<path fill="none" stroke="midnightblue" d="M110.42,-45.43C129.64,-40.73 152.97,-35.16 174,-30.5 186.1,-27.82 199.06,-25.09 211.49,-22.54"/>
<polygon fill="midnightblue" stroke="midnightblue" points="212.2,-25.96 221.3,-20.54 210.81,-19.1 212.2,-25.96"/>
</g>
</g>
</svg>
