<?xml version="1.0" encoding="UTF-8" standalone="no"?>
<!DOCTYPE svg PUBLIC "-//W3C//DTD SVG 1.1//EN"
 "http://www.w3.org/Graphics/SVG/1.1/DTD/svg11.dtd">
<!-- Generated by graphviz version 2.43.0 (0)
 -->
<!-- Title: Material/Material2D/Concrete22.h Pages: 1 -->
<svg width="924pt" height="468pt"
 viewBox="0.00 0.00 924.00 468.00" xmlns="http://www.w3.org/2000/svg" xmlns:xlink="http://www.w3.org/1999/xlink">
<g id="graph0" class="graph" transform="scale(1 1) rotate(0) translate(4 464)">
<title>Material/Material2D/Concrete22.h</title>
<!-- Node1 -->
<g id="Node000001" class="node">
<title>Node1</title>
<g id="a_Node000001"><a xlink:title=" ">
<polygon fill="#999999" stroke="#666666" points="645,-460 500,-460 500,-428 645,-428 645,-460"/>
<text text-anchor="start" x="508" y="-447.2" font-family="Consolas" font-size="11.00">Material/Material2D</text>
<text text-anchor="middle" x="572.5" y="-435.2" font-family="Consolas" font-size="11.00">/Concrete22.h</text>
</a>
</g>
</g>
<!-- Node2 -->
<g id="Node000002" class="node">
<title>Node2</title>
<g id="a_Node000002"><a xlink:href="../../d9/d0c/_concrete_tsai_8h.html" target="_top" xlink:title=" ">
<polygon fill="white" stroke="#666666" points="603,-392 424,-392 424,-360 603,-360 603,-392"/>
<text text-anchor="start" x="432" y="-379.2" font-family="Consolas" font-size="11.00">Material/Material1D</text>
<text text-anchor="middle" x="513.5" y="-367.2" font-family="Consolas" font-size="11.00">/Concrete/ConcreteTsai.h</text>
</a>
</g>
</g>
<!-- Node1&#45;&gt;Node2 -->
<g id="edge1_Node000001_Node000002" class="edge">
<title>Node1&#45;&gt;Node2</title>
<g id="a_edge1_Node000001_Node000002"><a xlink:title=" ">
<path fill="none" stroke="#63b8ff" d="M558.82,-427.69C551.44,-419.45 542.2,-409.11 533.99,-399.92"/>
<polygon fill="#63b8ff" stroke="#63b8ff" points="536.38,-397.35 527.11,-392.22 531.17,-402.01 536.38,-397.35"/>
</a>
</g>
</g>
<!-- Node18 -->
<g id="Node000018" class="node">
<title>Node18</title>
<g id="a_Node000018"><a xlink:href="../../dc/d4c/_material2_d_8h.html" target="_top" xlink:title=" ">
<polygon fill="white" stroke="#666666" points="745,-324 600,-324 600,-292 745,-292 745,-324"/>
<text text-anchor="start" x="608" y="-311.2" font-family="Consolas" font-size="11.00">Material/Material2D</text>
<text text-anchor="middle" x="672.5" y="-299.2" font-family="Consolas" font-size="11.00">/Material2D.h</text>
</a>
</g>
</g>
<!-- Node1&#45;&gt;Node18 -->
<g id="edge17_Node000001_Node000018" class="edge">
<title>Node1&#45;&gt;Node18</title>
<g id="a_edge17_Node000001_Node000018"><a xlink:title=" ">
<path fill="none" stroke="#63b8ff" d="M584.18,-427.88C591.97,-417.76 602.41,-404.13 611.5,-392 626.57,-371.9 643.48,-348.86 655.66,-332.16"/>
<polygon fill="#63b8ff" stroke="#63b8ff" points="658.5,-334.2 661.57,-324.06 652.85,-330.08 658.5,-334.2"/>
</a>
</g>
</g>
<!-- Node3 -->
<g id="Node000003" class="node">
<title>Node3</title>
<g id="a_Node000003"><a xlink:href="../../de/d44/_simple_hysteresis_8h.html" target="_top" xlink:title=" ">
<polygon fill="white" stroke="#666666" points="582,-324 363,-324 363,-292 582,-292 582,-324"/>
<text text-anchor="start" x="371" y="-311.2" font-family="Consolas" font-size="11.00">Material/Material1D</text>
<text text-anchor="middle" x="472.5" y="-299.2" font-family="Consolas" font-size="11.00">/Hysteresis/SimpleHysteresis.h</text>
</a>
</g>
</g>
<!-- Node2&#45;&gt;Node3 -->
<g id="edge2_Node000002_Node000003" class="edge">
<title>Node2&#45;&gt;Node3</title>
<g id="a_edge2_Node000002_Node000003"><a xlink:title=" ">
<path fill="none" stroke="#63b8ff" d="M503.99,-359.69C499.02,-351.7 492.83,-341.73 487.26,-332.76"/>
<polygon fill="#63b8ff" stroke="#63b8ff" points="490.21,-330.87 481.96,-324.22 484.26,-334.57 490.21,-330.87"/>
</a>
</g>
</g>
<!-- Node4 -->
<g id="Node000004" class="node">
<title>Node4</title>
<g id="a_Node000004"><a xlink:href="../../d4/d7c/_material1_d_8h.html" target="_top" xlink:title=" ">
<polygon fill="white" stroke="#666666" points="594,-256 449,-256 449,-224 594,-224 594,-256"/>
<text text-anchor="start" x="457" y="-243.2" font-family="Consolas" font-size="11.00">Material/Material1D</text>
<text text-anchor="middle" x="521.5" y="-231.2" font-family="Consolas" font-size="11.00">/Material1D.h</text>
</a>
</g>
</g>
<!-- Node3&#45;&gt;Node4 -->
<g id="edge3_Node000003_Node000004" class="edge">
<title>Node3&#45;&gt;Node4</title>
<g id="a_edge3_Node000003_Node000004"><a xlink:title=" ">
<path fill="none" stroke="#63b8ff" d="M483.86,-291.69C489.86,-283.61 497.35,-273.52 504.07,-264.48"/>
<polygon fill="#63b8ff" stroke="#63b8ff" points="507.05,-266.34 510.2,-256.22 501.43,-262.17 507.05,-266.34"/>
</a>
</g>
</g>
<!-- Node5 -->
<g id="Node000005" class="node">
<title>Node5</title>
<g id="a_Node000005"><a xlink:href="../../d3/d09/_material_8h.html" target="_top" xlink:title=" ">
<polygon fill="white" stroke="#666666" points="644,-188 499,-188 499,-168 644,-168 644,-188"/>
<text text-anchor="middle" x="571.5" y="-175.2" font-family="Consolas" font-size="11.00">Material/Material.h</text>
</a>
</g>
</g>
<!-- Node4&#45;&gt;Node5 -->
<g id="edge4_Node000004_Node000005" class="edge">
<title>Node4&#45;&gt;Node5</title>
<g id="a_edge4_Node000004_Node000005"><a xlink:title=" ">
<path fill="none" stroke="#63b8ff" d="M534.12,-223.86C541.22,-215.34 550.11,-204.67 557.43,-195.88"/>
<polygon fill="#63b8ff" stroke="#63b8ff" points="560.16,-198.08 563.87,-188.15 554.78,-193.6 560.16,-198.08"/>
</a>
</g>
</g>
<!-- Node6 -->
<g id="Node000006" class="node">
<title>Node6</title>
<g id="a_Node000006"><a xlink:href="../../df/dec/_parameter_type_8h.html" target="_top" xlink:title=" ">
<polygon fill="white" stroke="#666666" points="504.5,-132 386.5,-132 386.5,-112 504.5,-112 504.5,-132"/>
<text text-anchor="middle" x="445.5" y="-119.2" font-family="Consolas" font-size="11.00">ParameterType.h</text>
</a>
</g>
</g>
<!-- Node5&#45;&gt;Node6 -->
<g id="edge5_Node000005_Node000006" class="edge">
<title>Node5&#45;&gt;Node6</title>
<g id="a_edge5_Node000005_Node000006"><a xlink:title=" ">
<path fill="none" stroke="#63b8ff" d="M550.41,-167.96C530.06,-159.24 499.03,-145.94 475.99,-136.07"/>
<polygon fill="#63b8ff" stroke="#63b8ff" points="477.23,-132.79 466.66,-132.07 474.47,-139.22 477.23,-132.79"/>
</a>
</g>
</g>
<!-- Node7 -->
<g id="Node000007" class="node">
<title>Node7</title>
<g id="a_Node000007"><a xlink:href="../../d2/d4a/_tag_8h.html" target="_top" xlink:title=" ">
<polygon fill="white" stroke="#666666" points="620.5,-132 522.5,-132 522.5,-112 620.5,-112 620.5,-132"/>
<text text-anchor="middle" x="571.5" y="-119.2" font-family="Consolas" font-size="11.00">Domain/Tag.h</text>
</a>
</g>
</g>
<!-- Node5&#45;&gt;Node7 -->
<g id="edge6_Node000005_Node000007" class="edge">
<title>Node5&#45;&gt;Node7</title>
<g id="a_edge6_Node000005_Node000007"><a xlink:title=" ">
<path fill="none" stroke="#63b8ff" d="M571.5,-167.59C571.5,-160.7 571.5,-151.1 571.5,-142.57"/>
<polygon fill="#63b8ff" stroke="#63b8ff" points="575,-142.3 571.5,-132.3 568,-142.3 575,-142.3"/>
</a>
</g>
</g>
<!-- Node17 -->
<g id="Node000017" class="node">
<title>Node17</title>
<g id="a_Node000017"><a xlink:title=" ">
<polygon fill="#e0e0e0" stroke="#999999" points="688.5,-132 638.5,-132 638.5,-112 688.5,-112 688.5,-132"/>
<text text-anchor="middle" x="663.5" y="-119.2" font-family="Consolas" font-size="11.00">array</text>
</a>
</g>
</g>
<!-- Node5&#45;&gt;Node17 -->
<g id="edge16_Node000005_Node000017" class="edge">
<title>Node5&#45;&gt;Node17</title>
<g id="a_edge16_Node000005_Node000017"><a xlink:title=" ">
<path fill="none" stroke="#63b8ff" d="M587.11,-167.84C601.33,-159.49 622.58,-147.02 639.06,-137.34"/>
<polygon fill="#63b8ff" stroke="#63b8ff" points="641.27,-140.11 648.12,-132.03 637.73,-134.07 641.27,-140.11"/>
</a>
</g>
</g>
<!-- Node8 -->
<g id="Node000008" class="node">
<title>Node8</title>
<g id="a_Node000008"><a xlink:href="../../d8/d8f/suan_pan_8h.html" target="_top" xlink:title=" ">
<polygon fill="white" stroke="#666666" points="610,-76 533,-76 533,-56 610,-56 610,-76"/>
<text text-anchor="middle" x="571.5" y="-63.2" font-family="Consolas" font-size="11.00">suanPan.h</text>
</a>
</g>
</g>
<!-- Node7&#45;&gt;Node8 -->
<g id="edge7_Node000007_Node000008" class="edge">
<title>Node7&#45;&gt;Node8</title>
<g id="a_edge7_Node000007_Node000008"><a xlink:title=" ">
<path fill="none" stroke="#63b8ff" d="M571.5,-111.59C571.5,-104.7 571.5,-95.1 571.5,-86.57"/>
<polygon fill="#63b8ff" stroke="#63b8ff" points="575,-86.3 571.5,-76.3 568,-86.3 575,-86.3"/>
</a>
</g>
</g>
<!-- Node9 -->
<g id="Node000009" class="node">
<title>Node9</title>
<g id="a_Node000009"><a xlink:title=" ">
<polygon fill="#e0e0e0" stroke="#999999" points="71,-20 0,-20 0,0 71,0 71,-20"/>
<text text-anchor="middle" x="35.5" y="-7.2" font-family="Consolas" font-size="11.00">iostream</text>
</a>
</g>
</g>
<!-- Node8&#45;&gt;Node9 -->
<g id="edge8_Node000008_Node000009" class="edge">
<title>Node8&#45;&gt;Node9</title>
<g id="a_edge8_Node000008_Node000009"><a xlink:title=" ">
<path fill="none" stroke="#63b8ff" d="M532.74,-62.92C451.02,-58.21 254.96,-45.26 81.53,-20.17"/>
<polygon fill="#63b8ff" stroke="#63b8ff" points="81.86,-16.68 71.46,-18.69 80.85,-23.61 81.86,-16.68"/>
</a>
</g>
</g>
<!-- Node10 -->
<g id="Node000010" class="node">
<title>Node10</title>
<g id="a_Node000010"><a xlink:title=" ">
<polygon fill="#e0e0e0" stroke="#999999" points="234,-20 89,-20 89,0 234,0 234,-20"/>
<text text-anchor="middle" x="161.5" y="-7.2" font-family="Consolas" font-size="11.00">armadillo/armadillo</text>
</a>
</g>
</g>
<!-- Node8&#45;&gt;Node10 -->
<g id="edge9_Node000008_Node000010" class="edge">
<title>Node8&#45;&gt;Node10</title>
<g id="a_edge9_Node000008_Node000010"><a xlink:title=" ">
<path fill="none" stroke="#63b8ff" d="M532.93,-59.92C466.2,-51.13 327.96,-32.92 240.23,-21.37"/>
<polygon fill="#63b8ff" stroke="#63b8ff" points="240.43,-17.87 230.06,-20.03 239.52,-24.81 240.43,-17.87"/>
</a>
</g>
</g>
<!-- Node11 -->
<g id="Node000011" class="node">
<title>Node11</title>
<g id="a_Node000011"><a xlink:title=" ">
<polygon fill="#e0e0e0" stroke="#999999" points="458.5,-20 252.5,-20 252.5,0 458.5,0 458.5,-20"/>
<text text-anchor="middle" x="355.5" y="-7.2" font-family="Consolas" font-size="11.00">armadillo/ext_def_lapack.hpp</text>
</a>
</g>
</g>
<!-- Node8&#45;&gt;Node11 -->
<g id="edge10_Node000008_Node000011" class="edge">
<title>Node8&#45;&gt;Node11</title>
<g id="a_edge10_Node000008_Node000011"><a xlink:title=" ">
<path fill="none" stroke="#63b8ff" d="M535.35,-55.96C498.59,-46.77 441.51,-32.5 401.54,-22.51"/>
<polygon fill="#63b8ff" stroke="#63b8ff" points="402.32,-19.1 391.77,-20.07 400.62,-25.89 402.32,-19.1"/>
</a>
</g>
</g>
<!-- Node12 -->
<g id="Node000012" class="node">
<title>Node12</title>
<g id="a_Node000012"><a xlink:title=" ">
<polygon fill="#e0e0e0" stroke="#999999" points="560.5,-20 476.5,-20 476.5,0 560.5,0 560.5,-20"/>
<text text-anchor="middle" x="518.5" y="-7.2" font-family="Consolas" font-size="11.00">filesystem</text>
</a>
</g>
</g>
<!-- Node8&#45;&gt;Node12 -->
<g id="edge11_Node000008_Node000012" class="edge">
<title>Node8&#45;&gt;Node12</title>
<g id="a_edge11_Node000008_Node000012"><a xlink:title=" ">
<path fill="none" stroke="#63b8ff" d="M562.27,-55.59C554.67,-47.85 543.71,-36.69 534.66,-27.47"/>
<polygon fill="#63b8ff" stroke="#63b8ff" points="537.13,-24.98 527.63,-20.3 532.13,-29.89 537.13,-24.98"/>
</a>
</g>
</g>
<!-- Node13 -->
<g id="Node000013" class="node">
<title>Node13</title>
<g id="a_Node000013"><a xlink:title=" ">
<polygon fill="#e0e0e0" stroke="#999999" points="670,-20 579,-20 579,0 670,0 670,-20"/>
<text text-anchor="middle" x="624.5" y="-7.2" font-family="Consolas" font-size="11.00">fmt/color.h</text>
</a>
</g>
</g>
<!-- Node8&#45;&gt;Node13 -->
<g id="edge12_Node000008_Node000013" class="edge">
<title>Node8&#45;&gt;Node13</title>
<g id="a_edge12_Node000008_Node000013"><a xlink:title=" ">
<path fill="none" stroke="#63b8ff" d="M580.73,-55.59C588.33,-47.85 599.29,-36.69 608.34,-27.47"/>
<polygon fill="#63b8ff" stroke="#63b8ff" points="610.87,-29.89 615.37,-20.3 605.87,-24.98 610.87,-29.89"/>
</a>
</g>
</g>
<!-- Node14 -->
<g id="Node000014" class="node">
<title>Node14</title>
<g id="a_Node000014"><a xlink:title=" ">
<polygon fill="#e0e0e0" stroke="#999999" points="738.5,-20 688.5,-20 688.5,0 738.5,0 738.5,-20"/>
<text text-anchor="middle" x="713.5" y="-7.2" font-family="Consolas" font-size="11.00">mutex</text>
</a>
</g>
</g>
<!-- Node8&#45;&gt;Node14 -->
<g id="edge13_Node000008_Node000014" class="edge">
<title>Node8&#45;&gt;Node14</title>
<g id="a_edge13_Node000008_Node000014"><a xlink:title=" ">
<path fill="none" stroke="#63b8ff" d="M595.27,-55.96C618.51,-47.12 654.11,-33.58 680.18,-23.67"/>
<polygon fill="#63b8ff" stroke="#63b8ff" points="681.55,-26.89 689.65,-20.07 679.06,-20.35 681.55,-26.89"/>
</a>
</g>
</g>
<!-- Node15 -->
<g id="Node000015" class="node">
<title>Node15</title>
<g id="a_Node000015"><a xlink:title=" ">
<polygon fill="#e0e0e0" stroke="#999999" points="840.5,-20 756.5,-20 756.5,0 840.5,0 840.5,-20"/>
<text text-anchor="middle" x="798.5" y="-7.2" font-family="Consolas" font-size="11.00">functional</text>
</a>
</g>
</g>
<!-- Node8&#45;&gt;Node15 -->
<g id="edge14_Node000008_Node000015" class="edge">
<title>Node8&#45;&gt;Node15</title>
<g id="a_edge14_Node000008_Node000015"><a xlink:title=" ">
<path fill="none" stroke="#63b8ff" d="M609.49,-55.96C648.29,-46.73 708.62,-32.38 750.65,-22.38"/>
<polygon fill="#63b8ff" stroke="#63b8ff" points="751.46,-25.79 760.38,-20.07 749.84,-18.98 751.46,-25.79"/>
</a>
</g>
</g>
<!-- Node16 -->
<g id="Node000016" class="node">
<title>Node16</title>
<g id="a_Node000016"><a xlink:title=" ">
<polygon fill="#e0e0e0" stroke="#999999" points="916,-20 859,-20 859,0 916,0 916,-20"/>
<text text-anchor="middle" x="887.5" y="-7.2" font-family="Consolas" font-size="11.00">memory</text>
</a>
</g>
</g>
<!-- Node8&#45;&gt;Node16 -->
<g id="edge15_Node000008_Node000016" class="edge">
<title>Node8&#45;&gt;Node16</title>
<g id="a_edge15_Node000008_Node000016"><a xlink:title=" ">
<path fill="none" stroke="#63b8ff" d="M610.34,-59.62C662.33,-52.21 757.62,-37.95 848.95,-19.98"/>
<polygon fill="#63b8ff" stroke="#63b8ff" points="849.79,-23.38 858.91,-18 848.42,-16.52 849.79,-23.38"/>
</a>
</g>
</g>
<!-- Node18&#45;&gt;Node5 -->
<g id="edge18_Node000018_Node000005" class="edge">
<title>Node18&#45;&gt;Node5</title>
<g id="a_edge18_Node000018_Node000005"><a xlink:title=" ">
<path fill="none" stroke="#63b8ff" d="M660.52,-291.81C641.54,-267.76 604.7,-221.07 584.88,-195.96"/>
<polygon fill="#63b8ff" stroke="#63b8ff" points="587.58,-193.73 578.64,-188.05 582.09,-198.07 587.58,-193.73"/>
</a>
</g>
</g>
</g>
</svg>
