<svg xmlns="http://www.w3.org/2000/svg" xmlns:xlink="http://www.w3.org/1999/xlink" xml:space="preserve" id="main" onload="init(evt)"><style>.edge,.node,[data-mouse-over-selected=false]{opacity:.7}.edge.selected,.node.selected,[data-mouse-over-selected=true]{opacity:1}.edge:hover path{stroke:red}.edge:hover polygon{stroke:red;fill:red}</style><defs><g id="zoomPlus"><use xlink:href="#rim" fill="#404040"><set attributeName="fill" begin="zoomplus.mouseover" end="zoomplus.mouseout" to="#808080"/></use><path fill="none" stroke="#fff" stroke-width="1.5" d="M-4 0h8M0-4v8" pointer-events="none"/></g><g id="zoomMin"><use xlink:href="#rim" fill="#404040"><set attributeName="fill" begin="zoomminus.mouseover" end="zoomminus.mouseout" to="#808080"/></use><path fill="none" stroke="#fff" stroke-width="1.5" d="M-4 0h8" pointer-events="none"/></g><g id="arrowUp" transform="translate(30 24)"><use xlink:href="#rim"/><path fill="none" stroke="#fff" stroke-width="1.5" d="M0-3v7M-2.5-.5 0-3 2.5-.5" pointer-events="none"/></g><g id="arrowRight" transform="rotate(90 3.5 39.5)"><use xlink:href="#rim"/><path fill="none" stroke="#fff" stroke-width="1.5" d="M0-3v7M-2.5-.5 0-3 2.5-.5" pointer-events="none"/></g><g id="arrowDown" transform="matrix(-1 0 0 -1 30 48)"><use xlink:href="#rim"/><path fill="none" stroke="#fff" stroke-width="1.5" d="M0-3v7M-2.5-.5 0-3 2.5-.5" pointer-events="none"/></g><g id="arrowLeft" transform="rotate(-90 26.5 9.5)"><use xlink:href="#rim"/><path fill="none" stroke="#fff" stroke-width="1.5" d="M0-3v7M-2.5-.5 0-3 2.5-.5" pointer-events="none"/></g><circle id="rim" cx="0" cy="0" r="7"/><circle id="rim2" cx="0" cy="0" r="3.5"/><use xlink:href="#rim2" id="resetDef" fill="#404040"><set attributeName="fill" begin="reset.mouseover" end="reset.mouseout" to="#808080"/></use></defs><script type="application/ecmascript">var viewWidth = 528;
var viewHeight = 75;
var sectionId = &apos;dynsection-2&apos;;</script><script xlink:href="../../svg.min.js" type="application/ecmascript"/><svg id="graph" class="graph"><g id="viewport"><title>MPC::initialize</title><g id="Node000001" class="node"><title>Node1</title><a id="a_Node000001">
<path fill="#999" stroke="#666" d="M118-48H0v20h118z"/>
<text x="59" y="-35.2" font-family="Consolas" font-size="11" text-anchor="middle">MPC::initialize</text>
</a></g><g id="Node000002" class="node"><title>Node2</title><a xlink:href="../../da/d44/class_conditional_modifier.html#a2e571329c1c399e8e472d34257e4af4e" id="a_Node000002" target="_top">
<path fill="#fff" stroke="#666" d="M299-32H154V0h145z"/>
<text x="162" y="-19.2" font-family="Consolas" font-size="11">ConditionalModifier</text>
<text x="226.5" y="-7.2" font-family="Consolas" font-size="11" text-anchor="middle">::initialize</text>
</a></g><g id="edge1_Node000001_Node000002" class="edge"><title>Node1-&gt;Node2</title><a id="a_edge1_Node000001_Node000002">
<path fill="none" stroke="#63b8ff" d="M118.35-30.24c8.23 1.09 16.81 2.23 25.37 3.37"/>
<path fill="#63b8ff" stroke="#63b8ff" d="m144.3-30.32 9.45 4.78-10.37 2.15z"/>
</a></g><g id="Node000003" class="node"><title>Node3</title><a xlink:href="../../d0/d57/class_tag.html#aeef9db4fab02b36358265f378e703986" id="a_Node000003" target="_top">
<path fill="#fff" stroke="#666" d="M483-67H372v20h111z"/>
<text x="427.5" y="-54.2" font-family="Consolas" font-size="11" text-anchor="middle">Tag::is_active</text>
</a></g><g id="edge4_Node000001_Node000003" class="edge"><title>Node1-&gt;Node3</title><a id="a_edge4_Node000001_Node000003">
<path fill="none" stroke="#63b8ff" d="M118.07-41.01c66.33-3.44 174.58-9.05 243.61-12.63"/>
<path fill="#63b8ff" stroke="#63b8ff" d="m361.82-57.15 10.17 2.98-9.81 4.01z"/>
</a></g><g id="edge2_Node000002_Node000003" class="edge"><title>Node2-&gt;Node3</title><a id="a_edge2_Node000002_Node000003">
<path fill="none" stroke="#63b8ff" d="M299.06-30.74c22.61-4.66 47.31-9.75 68.89-14.2"/>
<path fill="#63b8ff" stroke="#63b8ff" d="m367.45-48.41 10.5 1.41-9.09 5.45z"/>
</a></g><g id="Node000004" class="node"><title>Node4</title><a xlink:href="../../de/d90/class_amplitude.html#a84c13ffcb23dbc17b2020406ea372d77" id="a_Node000004" target="_top">
<path fill="#fff" stroke="#666" d="M520-26H335v20h185z"/>
<text x="427.5" y="-13.2" font-family="Consolas" font-size="11" text-anchor="middle">Amplitude::set_start_time</text>
</a></g><g id="edge3_Node000002_Node000004" class="edge"><title>Node2-&gt;Node4</title><a id="a_edge3_Node000002_Node000004">
<path fill="none" stroke="#63b8ff" d="M299.06-16h25.58"/>
<path fill="#63b8ff" stroke="#63b8ff" d="m324.78-19.5 10 3.5-10 3.5z"/>
</a></g></g></svg><g id="navigator" fill="#404254"><path fill="#f2f5e9" fill-opacity=".5" stroke="#606060" stroke-width=".5" d="M0 0h60v60H0z"/><use xlink:href="#zoomPlus" id="zoomplus" x="17" y="9" onmousedown="handleZoom(evt,'in')"/><use xlink:href="#zoomMin" id="zoomminus" x="42" y="9" onmousedown="handleZoom(evt,'out')"/><use xlink:href="#resetDef" id="reset" x="30" y="36" onmousedown="handleReset()"/><use xlink:href="#arrowUp" id="arrowup" x="0" y="0" onmousedown="handlePan(0,-1)"/><use xlink:href="#arrowRight" id="arrowright" x="0" y="0" onmousedown="handlePan(1,0)"/><use xlink:href="#arrowDown" id="arrowdown" x="0" y="0" onmousedown="handlePan(0,1)"/><use xlink:href="#arrowLeft" id="arrowleft" x="0" y="0" onmousedown="handlePan(-1,0)"/></g><svg height="30" preserveAspectRatio="xMaxYMin meet" viewBox="0 0 15 15"><a xlink:href="class_m_p_c_a2b4ed9662215a77c355bf6bcace8f833_cgraph_org.svg" id="arrow_out" target="_base" transform="scale(.3)">
   <rect id="button" width="38" height="38" x="6" y="6" fill="#f2f5e9" fill-opacity=".5" stroke="#606060" stroke-width="1" rx="5" ry="5"/>
   <path id="arrow" d="M11.5 31.437c.44-11.34 10.543-20.114 20.659-9.458l4.91-4.733.02 14.754-14.929-.022 4.838-4.838c-8.47-8.876-13.706-1.91-15.498 4.297" style="fill:#404040"/>
  </a></svg><script type="application/ecmascript"><![CDATA[
document.addEventListener('DOMContentLoaded', (event) => {
  highlightEdges();
  highlightAdjacentNodes();
});
]]></script></svg>