<svg xmlns="http://www.w3.org/2000/svg" xmlns:xlink="http://www.w3.org/1999/xlink" width="502pt" height="1488" viewBox="0 0 501.5 1116"><g class="graph" transform="translate(4 1112)"><title>BilinearElastic1D</title><g class="node"><title>Node1</title><a xlink:title="A BilinearElastic1D material class.">
<path fill="#999" stroke="transparent" d="M278-164H117V0h161z"/>
<text x="140.5" y="-151.2" font-family="Consolas" font-size="11">BilinearElastic1D</text>
<text x="194.5" y="-135.2" font-family="Consolas" font-size="11"> </text>
<text x="121.5" y="-119.2" font-family="Consolas" font-size="11">+</text>
<text x="132.5" y="-119.2" font-family="Consolas" font-size="11">BilinearElastic1D()</text>
<text x="121.5" y="-103.2" font-family="Consolas" font-size="11">+</text>
<text x="132.5" y="-103.2" font-family="Consolas" font-size="11">initialize()</text>
<text x="121.5" y="-87.2" font-family="Consolas" font-size="11">+</text>
<text x="132.5" y="-87.2" font-family="Consolas" font-size="11">unique_copy()</text>
<text x="121.5" y="-71.2" font-family="Consolas" font-size="11">+</text>
<text x="132.5" y="-71.2" font-family="Consolas" font-size="11">update_trial_status()</text>
<text x="121.5" y="-55.2" font-family="Consolas" font-size="11">+</text>
<text x="132.5" y="-55.2" font-family="Consolas" font-size="11">clear_status()</text>
<text x="121.5" y="-39.2" font-family="Consolas" font-size="11">+</text>
<text x="132.5" y="-39.2" font-family="Consolas" font-size="11">commit_status()</text>
<text x="121.5" y="-23.2" font-family="Consolas" font-size="11">+</text>
<text x="132.5" y="-23.2" font-family="Consolas" font-size="11">reset_status()</text>
<text x="121.5" y="-7.2" font-family="Consolas" font-size="11">+</text>
<text x="132.5" y="-7.2" font-family="Consolas" font-size="11">print()</text>
<path fill="#666" stroke="#666" d="M117.5-146h161z"/>
<path fill="#666" stroke="#666" d="M117.5-130h161z"/>
<path fill="none" stroke="#666" d="M117 0v-164h161V0z"/>
</a></g><g class="node"><title>Node2</title><a xlink:href="../../dd/d62/struct_data_bilinear_elastic1_d.html" target="_top">
<path fill="#fff" stroke="transparent" d="M201.5-300h-152v100h152z"/>
<text x="54.5" y="-287.2" font-family="Consolas" font-size="11">DataBilinearElastic1D</text>
<text x="58" y="-271.2" font-family="Consolas" font-size="11">+</text>
<text x="73.5" y="-271.2" font-family="Consolas" font-size="11">elastic_modulus</text>
<text x="58" y="-255.2" font-family="Consolas" font-size="11">+</text>
<text x="73.5" y="-255.2" font-family="Consolas" font-size="11">yield_stress</text>
<text x="58" y="-239.2" font-family="Consolas" font-size="11">+</text>
<text x="73.5" y="-239.2" font-family="Consolas" font-size="11">hardening_modulus</text>
<text x="58" y="-223.2" font-family="Consolas" font-size="11">+</text>
<text x="73.5" y="-223.2" font-family="Consolas" font-size="11">radius</text>
<text x="122" y="-207.2" font-family="Consolas" font-size="11"> </text>
<path fill="#666" stroke="#666" d="M49.5-282h152z"/>
<path fill="#666" stroke="#666" d="M49.5-218h22z"/>
<path fill="#666" stroke="#666" d="M71.5-218h130z"/>
<path fill="none" stroke="#666" d="M49.5-200v-100h152v100z"/>
</a></g><g class="edge"><title>Node2-&gt;Node1</title><a>
<path fill="none" stroke="#006400" d="M150.97-190.27c3.67 8.46 7.5 17.28 11.32 26.08"/>
<path fill="none" stroke="#006400" d="m147.68-189.08-.77-10.56 7.19 7.78z"/>
</a></g><g class="node"><title>Node3</title><a xlink:href="../../d9/d97/class_material1_d.html" xlink:title="A Material1D class." target="_top">
<path fill="#fff" stroke="transparent" d="M321-292H220v84h101z"/>
<text x="237" y="-279.2" font-family="Consolas" font-size="11">Material1D</text>
<text x="267.5" y="-263.2" font-family="Consolas" font-size="11"> </text>
<text x="224.5" y="-247.2" font-family="Consolas" font-size="11">+</text>
<text x="235.5" y="-247.2" font-family="Consolas" font-size="11">Material1D()</text>
<text x="224.5" y="-231.2" font-family="Consolas" font-size="11">+</text>
<text x="235.5" y="-231.2" font-family="Consolas" font-size="11">record()</text>
<text x="224.5" y="-215.2" font-family="Consolas" font-size="11">+</text>
<text x="235.5" y="-215.2" font-family="Consolas" font-size="11">print()</text>
<path fill="#666" stroke="#666" d="M220.5-274h101z"/>
<path fill="#666" stroke="#666" d="M220.5-258h101z"/>
<path fill="none" stroke="#666" d="M220-208v-84h101v84z"/>
</a></g><g class="edge"><title>Node3-&gt;Node1</title><a>
<path fill="none" stroke="#63b8ff" d="M248.34-198.62c-4.8 10.93-10 22.76-15.18 34.53"/>
<path fill="none" stroke="#63b8ff" d="m245.23-200.22 7.23-7.75-.83 10.57z"/>
</a></g><g class="node"><title>Node4</title><a xlink:href="../../dc/dee/class_material.html" xlink:title="A Material abstract base class." target="_top">
<path fill="#fff" stroke="transparent" d="M351-548H190v212h161z"/>
<text x="243.5" y="-535.2" font-family="Consolas" font-size="11">Material</text>
<text x="267.5" y="-519.2" font-family="Consolas" font-size="11"> </text>
<text x="194.5" y="-503.2" font-family="Consolas" font-size="11">+</text>
<text x="205.5" y="-503.2" font-family="Consolas" font-size="11">Material()</text>
<text x="194.5" y="-487.2" font-family="Consolas" font-size="11">+</text>
<text x="205.5" y="-487.2" font-family="Consolas" font-size="11">get_density()</text>
<text x="194.5" y="-471.2" font-family="Consolas" font-size="11">+</text>
<text x="205.5" y="-471.2" font-family="Consolas" font-size="11">get_material_type()</text>
<text x="194.5" y="-455.2" font-family="Consolas" font-size="11">+</text>
<text x="205.5" y="-455.2" font-family="Consolas" font-size="11">get_plane_type()</text>
<text x="194.5" y="-439.2" font-family="Consolas" font-size="11">+</text>
<text x="205.5" y="-439.2" font-family="Consolas" font-size="11">initialize_base()</text>
<text x="194.5" y="-423.2" font-family="Consolas" font-size="11">+</text>
<text x="205.5" y="-423.2" font-family="Consolas" font-size="11">initialize()</text>
<text x="194.5" y="-407.2" font-family="Consolas" font-size="11">+</text>
<text x="205.5" y="-407.2" font-family="Consolas" font-size="11">initialize_couple()</text>
<text x="194.5" y="-391.2" font-family="Consolas" font-size="11">+</text>
<text x="205.5" y="-391.2" font-family="Consolas" font-size="11">initialize_history()</text>
<text x="194.5" y="-375.2" font-family="Consolas" font-size="11">+</text>
<text x="205.5" y="-375.2" font-family="Consolas" font-size="11">set_initial_history()</text>
<text x="194.5" y="-359.2" font-family="Consolas" font-size="11">+</text>
<text x="205.5" y="-359.2" font-family="Consolas" font-size="11">set_initialized()</text>
<text x="205.5" y="-343.2" font-family="Consolas" font-size="11">and 67 more...</text>
<path fill="#666" stroke="#666" d="M190.5-530h161z"/>
<path fill="#666" stroke="#666" d="M190.5-514h161z"/>
<path fill="none" stroke="#666" d="M190-336v-212h161v212z"/>
</a></g><g class="edge"><title>Node4-&gt;Node3</title><a>
<path fill="none" stroke="#63b8ff" d="M270.5-325.93v33.55"/>
<path fill="none" stroke="#63b8ff" d="m267-326 3.5-10 3.5 10z"/>
</a></g><g class="node"><title>Node5</title><a xlink:href="../../de/de9/struct_data_material.html" target="_top">
<path fill="#fff" stroke="transparent" d="M161-796H0v212h161z"/>
<text x="40" y="-783.2" font-family="Consolas" font-size="11">DataMaterial</text>
<text x="4.5" y="-767.2" font-family="Consolas" font-size="11">+</text>
<text x="15.5" y="-767.2" font-family="Consolas" font-size="11">density</text>
<text x="4.5" y="-751.2" font-family="Consolas" font-size="11">+</text>
<text x="15.5" y="-751.2" font-family="Consolas" font-size="11">material_type</text>
<text x="4.5" y="-735.2" font-family="Consolas" font-size="11">+</text>
<text x="15.5" y="-735.2" font-family="Consolas" font-size="11">plane_type</text>
<text x="4.5" y="-719.2" font-family="Consolas" font-size="11">+</text>
<text x="15.5" y="-719.2" font-family="Consolas" font-size="11">tolerance</text>
<text x="4.5" y="-703.2" font-family="Consolas" font-size="11">+</text>
<text x="15.5" y="-703.2" font-family="Consolas" font-size="11">characteristic_length</text>
<text x="4.5" y="-687.2" font-family="Consolas" font-size="11">+</text>
<text x="15.5" y="-687.2" font-family="Consolas" font-size="11">current_strain</text>
<text x="4.5" y="-671.2" font-family="Consolas" font-size="11">+</text>
<text x="15.5" y="-671.2" font-family="Consolas" font-size="11">trial_strain</text>
<text x="4.5" y="-655.2" font-family="Consolas" font-size="11">+</text>
<text x="15.5" y="-655.2" font-family="Consolas" font-size="11">incre_strain</text>
<text x="4.5" y="-639.2" font-family="Consolas" font-size="11">+</text>
<text x="15.5" y="-639.2" font-family="Consolas" font-size="11">current_strain_rate</text>
<text x="4.5" y="-623.2" font-family="Consolas" font-size="11">+</text>
<text x="15.5" y="-623.2" font-family="Consolas" font-size="11">trial_strain_rate</text>
<text x="15.5" y="-607.2" font-family="Consolas" font-size="11">and 19 more...</text>
<text x="77.5" y="-591.2" font-family="Consolas" font-size="11"> </text>
<path fill="#666" stroke="#666" d="M.5-778h161z"/>
<path fill="#666" stroke="#666" d="M.5-602h13z"/>
<path fill="#666" stroke="#666" d="M13.5-602h148z"/>
<path fill="none" stroke="#666" d="M0-584v-212h161v212z"/>
</a></g><g class="edge"><title>Node5-&gt;Node4</title><a>
<path fill="none" stroke="#006400" d="M167.34-576.56c7.48 9.68 15.03 19.45 22.46 29.07"/>
<path fill="none" stroke="#006400" d="m164.42-574.62-3.34-10.05 8.88 5.77z"/>
</a></g><g class="node"><title>Node6</title><a xlink:href="../../da/de4/struct_data_couple_material.html" target="_top">
<path fill="#fff" stroke="transparent" d="M361.5-780h-182v180h182z"/>
<text x="209.5" y="-767.2" font-family="Consolas" font-size="11">DataCoupleMaterial</text>
<text x="183.5" y="-751.2" font-family="Consolas" font-size="11">+</text>
<text x="194.5" y="-751.2" font-family="Consolas" font-size="11">current_curvature</text>
<text x="183.5" y="-735.2" font-family="Consolas" font-size="11">+</text>
<text x="194.5" y="-735.2" font-family="Consolas" font-size="11">current_couple_stress</text>
<text x="183.5" y="-719.2" font-family="Consolas" font-size="11">+</text>
<text x="194.5" y="-719.2" font-family="Consolas" font-size="11">trial_curvature</text>
<text x="183.5" y="-703.2" font-family="Consolas" font-size="11">+</text>
<text x="194.5" y="-703.2" font-family="Consolas" font-size="11">trial_couple_stress</text>
<text x="183.5" y="-687.2" font-family="Consolas" font-size="11">+</text>
<text x="194.5" y="-687.2" font-family="Consolas" font-size="11">incre_curvature</text>
<text x="183.5" y="-671.2" font-family="Consolas" font-size="11">+</text>
<text x="194.5" y="-671.2" font-family="Consolas" font-size="11">incre_couple_stress</text>
<text x="183.5" y="-655.2" font-family="Consolas" font-size="11">+</text>
<text x="194.5" y="-655.2" font-family="Consolas" font-size="11">initial_couple_stiffness</text>
<text x="183.5" y="-639.2" font-family="Consolas" font-size="11">+</text>
<text x="194.5" y="-639.2" font-family="Consolas" font-size="11">current_couple_stiffness</text>
<text x="183.5" y="-623.2" font-family="Consolas" font-size="11">+</text>
<text x="194.5" y="-623.2" font-family="Consolas" font-size="11">trial_couple_stiffness</text>
<text x="267" y="-607.2" font-family="Consolas" font-size="11"> </text>
<path fill="#666" stroke="#666" d="M179.5-762h182z"/>
<path fill="#666" stroke="#666" d="M179.5-618h13z"/>
<path fill="#666" stroke="#666" d="M192.5-618h169z"/>
<path fill="none" stroke="#666" d="M179.5-600v-180h182v180z"/>
</a></g><g class="edge"><title>Node6-&gt;Node4</title><a>
<path fill="none" stroke="#006400" d="M270.5-589.52v41.35"/>
<path fill="none" stroke="#006400" d="m267-589.84 3.5-10 3.5 10z"/>
</a></g><g class="node"><title>Node7</title><a xlink:href="../../d7/d1d/class_copyable_tag.html" xlink:title="Label objects that can be copied." target="_top">
<path fill="#fff" stroke="transparent" d="M493.5-772h-114v164h114z"/>
<text x="399" y="-759.2" font-family="Consolas" font-size="11">CopyableTag</text>
<text x="433" y="-743.2" font-family="Consolas" font-size="11"> </text>
<text x="383.5" y="-727.2" font-family="Consolas" font-size="11">+</text>
<text x="394.5" y="-727.2" font-family="Consolas" font-size="11">CopyableTag()</text>
<text x="383.5" y="-711.2" font-family="Consolas" font-size="11">+</text>
<text x="394.5" y="-711.2" font-family="Consolas" font-size="11">CopyableTag()</text>
<text x="383.5" y="-695.2" font-family="Consolas" font-size="11">+</text>
<text x="394.5" y="-695.2" font-family="Consolas" font-size="11">operator=()</text>
<text x="383.5" y="-679.2" font-family="Consolas" font-size="11">+</text>
<text x="394.5" y="-679.2" font-family="Consolas" font-size="11">operator=()</text>
<text x="383.5" y="-663.2" font-family="Consolas" font-size="11">+</text>
<text x="394.5" y="-663.2" font-family="Consolas" font-size="11">~CopyableTag()</text>
<text x="383.5" y="-647.2" font-family="Consolas" font-size="11">+</text>
<text x="394.5" y="-647.2" font-family="Consolas" font-size="11">Tag()</text>
<text x="383.5" y="-631.2" font-family="Consolas" font-size="11">+</text>
<text x="394.5" y="-631.2" font-family="Consolas" font-size="11">Tag()</text>
<text x="383.5" y="-615.2" font-family="Consolas" font-size="11">+</text>
<text x="394.5" y="-615.2" font-family="Consolas" font-size="11">Tag()</text>
<path fill="#666" stroke="#666" d="M379.5-754h114z"/>
<path fill="#666" stroke="#666" d="M379.5-738h114z"/>
<path fill="none" stroke="#666" d="M379.5-608v-164h114v164z"/>
</a></g><g class="edge"><title>Node7-&gt;Node4</title><a>
<path fill="none" stroke="#63b8ff" d="M380.5-599.17c-3.35 5.15-6.7 10.24-10 15.17-7.84 11.73-16.17 23.9-24.54 35.96"/>
<path fill="none" stroke="#63b8ff" d="m377.77-601.39 8.37-6.49-2.5 10.3z"/>
</a></g><g class="node"><title>Node8</title><a xlink:href="../../d0/d57/class_tag.html" xlink:title="A base Tag class." target="_top">
<path fill="#fff" stroke="transparent" d="M487-1108H386v276h101z"/>
<text x="426.5" y="-1095.2" font-family="Consolas" font-size="11">Tag</text>
<text x="433.5" y="-1079.2" font-family="Consolas" font-size="11"> </text>
<text x="390.5" y="-1063.2" font-family="Consolas" font-size="11">+</text>
<text x="401.5" y="-1063.2" font-family="Consolas" font-size="11">Tag()</text>
<text x="390.5" y="-1047.2" font-family="Consolas" font-size="11">+</text>
<text x="401.5" y="-1047.2" font-family="Consolas" font-size="11">Tag()</text>
<text x="390.5" y="-1031.2" font-family="Consolas" font-size="11">+</text>
<text x="401.5" y="-1031.2" font-family="Consolas" font-size="11">Tag()</text>
<text x="390.5" y="-1015.2" font-family="Consolas" font-size="11">+</text>
<text x="401.5" y="-1015.2" font-family="Consolas" font-size="11">operator=()</text>
<text x="390.5" y="-999.2" font-family="Consolas" font-size="11">+</text>
<text x="401.5" y="-999.2" font-family="Consolas" font-size="11">operator=()</text>
<text x="390.5" y="-983.2" font-family="Consolas" font-size="11">+</text>
<text x="401.5" y="-983.2" font-family="Consolas" font-size="11">~Tag()</text>
<text x="390.5" y="-967.2" font-family="Consolas" font-size="11">+</text>
<text x="401.5" y="-967.2" font-family="Consolas" font-size="11">set_tag()</text>
<text x="390.5" y="-951.2" font-family="Consolas" font-size="11">+</text>
<text x="401.5" y="-951.2" font-family="Consolas" font-size="11">get_tag()</text>
<text x="390.5" y="-935.2" font-family="Consolas" font-size="11">+</text>
<text x="401.5" y="-935.2" font-family="Consolas" font-size="11">enable()</text>
<text x="390.5" y="-919.2" font-family="Consolas" font-size="11">+</text>
<text x="401.5" y="-919.2" font-family="Consolas" font-size="11">disable()</text>
<text x="390.5" y="-903.2" font-family="Consolas" font-size="11">+</text>
<text x="401.5" y="-903.2" font-family="Consolas" font-size="11">guard()</text>
<text x="390.5" y="-887.2" font-family="Consolas" font-size="11">+</text>
<text x="401.5" y="-887.2" font-family="Consolas" font-size="11">unguard()</text>
<text x="390.5" y="-871.2" font-family="Consolas" font-size="11">+</text>
<text x="401.5" y="-871.2" font-family="Consolas" font-size="11">is_active()</text>
<text x="390.5" y="-855.2" font-family="Consolas" font-size="11">+</text>
<text x="401.5" y="-855.2" font-family="Consolas" font-size="11">is_guarded()</text>
<text x="390.5" y="-839.2" font-family="Consolas" font-size="11">+</text>
<text x="401.5" y="-839.2" font-family="Consolas" font-size="11">print()</text>
<path fill="#666" stroke="#666" d="M386.5-1090h101z"/>
<path fill="#666" stroke="#666" d="M386.5-1074h101z"/>
<path fill="none" stroke="#666" d="M386-832v-276h101v276z"/>
</a></g><g class="edge"><title>Node8-&gt;Node7</title><a>
<path fill="none" stroke="#63b8ff" d="M436.5-821.6v49.5"/>
<path fill="none" stroke="#63b8ff" d="m433-821.63 3.5-10 3.5 10z"/>
</a></g></g></svg>