<?xml version="1.0" encoding="UTF-8" standalone="no"?>
<!DOCTYPE svg PUBLIC "-//W3C//DTD SVG 1.1//EN"
 "http://www.w3.org/Graphics/SVG/1.1/DTD/svg11.dtd">
<!-- Generated by graphviz version 9.0.0 (20230911.1827)
 -->
<!-- Title: shape::cube Pages: 1 -->
<svg width="416pt" height="227pt"
 viewBox="0.00 0.00 416.00 227.25" xmlns="http://www.w3.org/2000/svg" xmlns:xlink="http://www.w3.org/1999/xlink">

<svg id="main" version="1.1" xmlns="http://www.w3.org/2000/svg" xmlns:xlink="http://www.w3.org/1999/xlink" xml:space="preserve" onload="init(evt)">
<style type="text/css"><![CDATA[
.node, .edge {opacity: 0.7;}
.node.selected, .edge.selected {opacity: 1;}
.edge:hover path { stroke: red; }
.edge:hover polygon { stroke: red; fill: red; }
]]></style>
<script type="application/ecmascript" xlink:href="../../svg.min.js"/>
<svg id="graph" class="graph">
<g id="graph0" class="graph" transform="scale(1 1) rotate(0) translate(4 223.25)">
<title>shape::cube</title>
<!-- Node1 -->
<g id="Node000001" class="node">
<title>Node1</title>
<g id="a_Node000001"><a xlink:title=" ">
<polygon fill="#999999" stroke="#666666" points="408,-113.5 326,-113.5 326,-92 408,-92 408,-113.5"/>
<text text-anchor="middle" x="367" y="-99.05" font-family="Consolas" font-size="11.00">shape::cube</text>
</a>
</g>
</g>
<!-- Node2 -->
<g id="Node000002" class="node">
<title>Node2</title>
<g id="a_Node000002"><a xlink:href="../../de/dba/class_c3_d20.html#a7df40b1ac2185d34f3aeaae1febfbb91" target="_top" xlink:title=" ">
<polygon fill="white" stroke="#666666" points="290,-219.25 154,-219.25 154,-184.25 290,-184.25 290,-219.25"/>
<text text-anchor="start" x="162" y="-204.8" font-family="Consolas" font-size="11.00">C3D20::compute_shape</text>
<text text-anchor="middle" x="222" y="-191.3" font-family="Consolas" font-size="11.00">_function</text>
</a>
</g>
</g>
<!-- Node1&#45;&gt;Node2 -->
<g id="edge1_Node000001_Node000002" class="edge">
<title>Node1&#45;&gt;Node2</title>
<g id="a_edge1_Node000001_Node000002"><a xlink:title=" ">
<path fill="none" stroke="#63b8ff" d="M349.5,-122.46C335.15,-138.58 313.08,-161.03 290,-175.75 285.37,-178.7 280.35,-181.41 275.22,-183.86"/>
<polygon fill="#63b8ff" stroke="#63b8ff" points="352.1,-124.8 356.01,-114.95 346.81,-120.21 352.1,-124.8"/>
</a>
</g>
</g>
<!-- Node4 -->
<g id="Node000004" class="node">
<title>Node4</title>
<g id="a_Node000004"><a xlink:href="../../d4/d8c/class_c3_d8.html#a0c57cd3e34d19fc935947793c890b13e" target="_top" xlink:title=" ">
<polygon fill="white" stroke="#666666" points="287,-166.25 157,-166.25 157,-131.25 287,-131.25 287,-166.25"/>
<text text-anchor="start" x="165" y="-151.8" font-family="Consolas" font-size="11.00">C3D8::compute_shape</text>
<text text-anchor="middle" x="222" y="-138.3" font-family="Consolas" font-size="11.00">_function</text>
</a>
</g>
</g>
<!-- Node1&#45;&gt;Node4 -->
<g id="edge3_Node000001_Node000004" class="edge">
<title>Node1&#45;&gt;Node4</title>
<g id="a_edge3_Node000001_Node000004"><a xlink:title=" ">
<path fill="none" stroke="#63b8ff" d="M320.6,-117.36C307.31,-121.63 292.62,-126.35 278.77,-130.81"/>
<polygon fill="#63b8ff" stroke="#63b8ff" points="321.5,-120.74 329.94,-114.35 319.35,-114.08 321.5,-120.74"/>
</a>
</g>
</g>
<!-- Node5 -->
<g id="Node000005" class="node">
<title>Node5</title>
<g id="a_Node000005"><a xlink:href="../../d4/d8c/class_c3_d8.html#aa11ba2cd584fb4d17d61d0e09078323f" target="_top" xlink:title=" ">
<polygon fill="white" stroke="#666666" points="115,-136.5 3,-136.5 3,-115 115,-115 115,-136.5"/>
<text text-anchor="middle" x="59" y="-122.05" font-family="Consolas" font-size="11.00">C3D8::initialize</text>
</a>
</g>
</g>
<!-- Node1&#45;&gt;Node5 -->
<g id="edge7_Node000001_Node000005" class="edge">
<title>Node1&#45;&gt;Node5</title>
<g id="a_edge7_Node000001_Node000005"><a xlink:title=" ">
<path fill="none" stroke="#63b8ff" d="M314.42,-106.63C259.24,-110.77 172.06,-117.33 115.44,-121.58"/>
<polygon fill="#63b8ff" stroke="#63b8ff" points="314.46,-110.13 324.17,-105.89 313.94,-103.15 314.46,-110.13"/>
</a>
</g>
</g>
<!-- Node6 -->
<g id="Node000006" class="node">
<title>Node6</title>
<g id="a_Node000006"><a xlink:href="../../d8/d52/class_c3_d8_i.html#ab8818d6d3e3a8d0f782d08f09d3098d3" target="_top" xlink:title=" ">
<polygon fill="white" stroke="#666666" points="290,-74.25 154,-74.25 154,-39.25 290,-39.25 290,-74.25"/>
<text text-anchor="start" x="162" y="-59.8" font-family="Consolas" font-size="11.00">C3D8I::compute_shape</text>
<text text-anchor="middle" x="222" y="-46.3" font-family="Consolas" font-size="11.00">_function</text>
</a>
</g>
</g>
<!-- Node1&#45;&gt;Node6 -->
<g id="edge5_Node000001_Node000006" class="edge">
<title>Node1&#45;&gt;Node6</title>
<g id="a_edge5_Node000001_Node000006"><a xlink:title=" ">
<path fill="none" stroke="#63b8ff" d="M320.6,-88.14C307.31,-83.87 292.62,-79.15 278.77,-74.69"/>
<polygon fill="#63b8ff" stroke="#63b8ff" points="319.35,-91.42 329.94,-91.15 321.5,-84.76 319.35,-91.42"/>
</a>
</g>
</g>
<!-- Node8 -->
<g id="Node000008" class="node">
<title>Node8</title>
<g id="a_Node000008"><a xlink:href="../../d1/d82/class_d_c3_d8.html#a019f37c37555133055f0ec33743c0188" target="_top" xlink:title=" ">
<polygon fill="white" stroke="#666666" points="281,-21.5 163,-21.5 163,0 281,0 281,-21.5"/>
<text text-anchor="middle" x="222" y="-7.05" font-family="Consolas" font-size="11.00">DC3D8::initialize</text>
</a>
</g>
</g>
<!-- Node1&#45;&gt;Node8 -->
<g id="edge8_Node000001_Node000008" class="edge">
<title>Node1&#45;&gt;Node8</title>
<g id="a_edge8_Node000001_Node000008"><a xlink:title=" ">
<path fill="none" stroke="#63b8ff" d="M350.47,-83.21C336.36,-66.69 314.1,-43.58 290,-29.75 284.65,-26.68 278.77,-24.08 272.79,-21.89"/>
<polygon fill="#63b8ff" stroke="#63b8ff" points="347.39,-84.97 356.47,-90.44 352.78,-80.5 347.39,-84.97"/>
</a>
</g>
</g>
<!-- Node3 -->
<g id="Node000003" class="node">
<title>Node3</title>
<g id="a_Node000003"><a xlink:href="../../de/dba/class_c3_d20.html#a509a13788e3ad8ab14807cbc42720cdd" target="_top" xlink:title=" ">
<polygon fill="white" stroke="#666666" points="118,-212.5 0,-212.5 0,-191 118,-191 118,-212.5"/>
<text text-anchor="middle" x="59" y="-198.05" font-family="Consolas" font-size="11.00">C3D20::initialize</text>
</a>
</g>
</g>
<!-- Node2&#45;&gt;Node3 -->
<g id="edge2_Node000002_Node000003" class="edge">
<title>Node2&#45;&gt;Node3</title>
<g id="a_edge2_Node000002_Node000003"><a xlink:title=" ">
<path fill="none" stroke="#63b8ff" d="M142.31,-201.75C134.25,-201.75 126.17,-201.75 118.38,-201.75"/>
<polygon fill="#63b8ff" stroke="#63b8ff" points="142.14,-205.25 152.14,-201.75 142.14,-198.25 142.14,-205.25"/>
</a>
</g>
</g>
<!-- Node4&#45;&gt;Node5 -->
<g id="edge4_Node000004_Node000005" class="edge">
<title>Node4&#45;&gt;Node5</title>
<g id="a_edge4_Node000004_Node000005"><a xlink:title=" ">
<path fill="none" stroke="#63b8ff" d="M145.83,-138.01C135.54,-136.54 125.14,-135.06 115.3,-133.65"/>
<polygon fill="#63b8ff" stroke="#63b8ff" points="145.01,-141.43 155.41,-139.38 146,-134.5 145.01,-141.43"/>
</a>
</g>
</g>
<!-- Node7 -->
<g id="Node000007" class="node">
<title>Node7</title>
<g id="a_Node000007"><a xlink:href="../../d8/d52/class_c3_d8_i.html#a419422533600abc6217d7e071b30bc02" target="_top" xlink:title=" ">
<polygon fill="white" stroke="#666666" points="118,-67.5 0,-67.5 0,-46 118,-46 118,-67.5"/>
<text text-anchor="middle" x="59" y="-53.05" font-family="Consolas" font-size="11.00">C3D8I::initialize</text>
</a>
</g>
</g>
<!-- Node6&#45;&gt;Node7 -->
<g id="edge6_Node000006_Node000007" class="edge">
<title>Node6&#45;&gt;Node7</title>
<g id="a_edge6_Node000006_Node000007"><a xlink:title=" ">
<path fill="none" stroke="#63b8ff" d="M142.31,-56.75C134.25,-56.75 126.17,-56.75 118.38,-56.75"/>
<polygon fill="#63b8ff" stroke="#63b8ff" points="142.14,-60.25 152.14,-56.75 142.14,-53.25 142.14,-60.25"/>
</a>
</g>
</g>
</g>
</svg>
</svg>

<style type='text/css'>
<![CDATA[
[data-mouse-over-selected='false'] { opacity: 0.7; }
[data-mouse-over-selected='true']  { opacity: 1.0; }
]]>
</style>
<script type="application/ecmascript"><![CDATA[
document.addEventListener('DOMContentLoaded', (event) => {
  highlightEdges();
  highlightAdjacentNodes();
});
]]></script>
</svg>
