<?xml version="1.0" encoding="UTF-8" standalone="no"?>
<!DOCTYPE svg PUBLIC "-//W3C//DTD SVG 1.1//EN"
 "http://www.w3.org/Graphics/SVG/1.1/DTD/svg11.dtd">
<!-- Generated by graphviz version 2.43.0 (0)
 -->
<!-- Title: DataIsotropicElastic3D Pages: 1 -->
<svg width="206pt" height="190pt"
 viewBox="0.00 0.00 205.50 190.00" xmlns="http://www.w3.org/2000/svg" xmlns:xlink="http://www.w3.org/1999/xlink">
<g id="graph0" class="graph" transform="scale(1 1) rotate(0) translate(4 186)">
<title>DataIsotropicElastic3D</title>
<polygon fill="white" stroke="transparent" points="-4,4 -4,-186 201.5,-186 201.5,4 -4,4"/>
<!-- Node1 -->
<g id="node1" class="node">
<title>Node1</title>
<g id="a_node1"><a xlink:title=" ">
<polygon fill="#bfbfbf" stroke="black" points="0,-0.5 0,-60.5 165,-60.5 165,-0.5 0,-0.5"/>
<text text-anchor="middle" x="82.5" y="-47.7" font-family="Consolas" font-size="11.00">DataIsotropicElastic3D</text>
<polyline fill="none" stroke="black" points="0,-40.5 165,-40.5 "/>
<text text-anchor="middle" x="82.5" y="-27.7" font-family="Consolas" font-size="11.00"> </text>
<polyline fill="none" stroke="black" points="0,-20.5 165,-20.5 "/>
<text text-anchor="middle" x="82.5" y="-7.7" font-family="Consolas" font-size="11.00"> </text>
</a>
</g>
</g>
<!-- Node2 -->
<g id="node2" class="node">
<title>Node2</title>
<g id="a_node2"><a xlink:title=" ">
<polygon fill="white" stroke="black" points="54,-121.5 54,-181.5 111,-181.5 111,-121.5 54,-121.5"/>
<text text-anchor="middle" x="82.5" y="-168.7" font-family="Consolas" font-size="11.00">double</text>
<polyline fill="none" stroke="black" points="54,-161.5 111,-161.5 "/>
<text text-anchor="middle" x="82.5" y="-148.7" font-family="Consolas" font-size="11.00"> </text>
<polyline fill="none" stroke="black" points="54,-141.5 111,-141.5 "/>
<text text-anchor="middle" x="82.5" y="-128.7" font-family="Consolas" font-size="11.00"> </text>
</a>
</g>
</g>
<!-- Node2&#45;&gt;Node1 -->
<g id="edge1" class="edge">
<title>Node2&#45;&gt;Node1</title>
<path fill="none" stroke="#404040" d="M82.5,-121.39C82.5,-106.84 82.5,-88.97 82.5,-73.01"/>
<polygon fill="none" stroke="#404040" points="82.5,-72.72 78.5,-66.72 82.5,-60.72 86.5,-66.72 82.5,-72.72"/>
<text text-anchor="middle" x="140" y="-94.2" font-family="Consolas" font-size="11.00"> +elastic_modulus</text>
<text text-anchor="middle" x="140" y="-82.2" font-family="Consolas" font-size="11.00">+poissons_ratio</text>
</g>
</g>
</svg>
