<svg xmlns="http://www.w3.org/2000/svg" xmlns:xlink="http://www.w3.org/1999/xlink" xml:space="preserve" id="main" onload="init(evt)"><style>.edge,.node,[data-mouse-over-selected=false]{opacity:.7}.edge.selected,.node.selected,[data-mouse-over-selected=true]{opacity:1}.edge:hover path{stroke:red}.edge:hover polygon{stroke:red;fill:red}</style><defs><g id="zoomPlus"><use xlink:href="#rim" fill="#404040"><set attributeName="fill" begin="zoomplus.mouseover" end="zoomplus.mouseout" to="#808080"/></use><path fill="none" stroke="#fff" stroke-width="1.5" d="M-4 0h8M0-4v8" pointer-events="none"/></g><g id="zoomMin"><use xlink:href="#rim" fill="#404040"><set attributeName="fill" begin="zoomminus.mouseover" end="zoomminus.mouseout" to="#808080"/></use><path fill="none" stroke="#fff" stroke-width="1.5" d="M-4 0h8" pointer-events="none"/></g><g id="arrowUp" transform="translate(30 24)"><use xlink:href="#rim"/><path fill="none" stroke="#fff" stroke-width="1.5" d="M0-3v7M-2.5-.5 0-3 2.5-.5" pointer-events="none"/></g><g id="arrowRight" transform="rotate(90 3.5 39.5)"><use xlink:href="#rim"/><path fill="none" stroke="#fff" stroke-width="1.5" d="M0-3v7M-2.5-.5 0-3 2.5-.5" pointer-events="none"/></g><g id="arrowDown" transform="matrix(-1 0 0 -1 30 48)"><use xlink:href="#rim"/><path fill="none" stroke="#fff" stroke-width="1.5" d="M0-3v7M-2.5-.5 0-3 2.5-.5" pointer-events="none"/></g><g id="arrowLeft" transform="rotate(-90 26.5 9.5)"><use xlink:href="#rim"/><path fill="none" stroke="#fff" stroke-width="1.5" d="M0-3v7M-2.5-.5 0-3 2.5-.5" pointer-events="none"/></g><circle id="rim" cx="0" cy="0" r="7"/><circle id="rim2" cx="0" cy="0" r="3.5"/><use xlink:href="#rim2" id="resetDef" fill="#404040"><set attributeName="fill" begin="reset.mouseover" end="reset.mouseout" to="#808080"/></use></defs><script type="application/ecmascript">var viewWidth = 1498;
var viewHeight = 376;
var sectionId = &apos;dynsection-0&apos;;</script><script xlink:href="../../svg.min.js" type="application/ecmascript"/><svg id="graph" class="graph"><g id="viewport"><title>Domain/DomainState.cpp</title><g id="Node000001" class="node"><title>Node1</title><a id="a_Node000001">
<path fill="#999" stroke="#666" d="M860-368H695v20h165z"/>
<text x="777.5" y="-355.2" font-family="Consolas" font-size="11" text-anchor="middle">Domain/DomainState.cpp</text>
</a></g><g id="Node000002" class="node"><title>Node2</title><a xlink:href="../../d4/d8e/_domain_8h.html" id="a_Node000002" target="_top">
<path fill="#fff" stroke="#666" d="M338-256h-71v20h71z"/>
<text x="302.5" y="-243.2" font-family="Consolas" font-size="11" text-anchor="middle">Domain.h</text>
</a></g><g id="edge1_Node000001_Node000002" class="edge"><title>Node1-&gt;Node2</title><a id="a_edge1_Node000001_Node000002">
<path fill="none" stroke="#63b8ff" d="M694.71-351.14c-65.09 6-157.59 17.6-236.21 39.14-46.98 12.87-98.64 36.39-129.15 51.33"/>
<path fill="#63b8ff" stroke="#63b8ff" d="m330.74-257.45-10.52 1.3 7.41-7.57z"/>
</a></g><g id="Node000020" class="node"><title>Node20</title><a xlink:href="../../d4/d54/_constraint_8h.html" id="a_Node000020" target="_top">
<path fill="#fff" stroke="#666" d="M749.5-312h-172v20h172z"/>
<text x="663.5" y="-299.2" font-family="Consolas" font-size="11" text-anchor="middle">Constraint/Constraint.h</text>
</a></g><g id="edge21_Node000001_Node000020" class="edge"><title>Node1-&gt;Node20</title><a id="a_edge21_Node000001_Node000020">
<path fill="none" stroke="#63b8ff" d="M758.42-347.96c-18.17 8.6-45.74 21.66-66.49 31.49"/>
<path fill="#63b8ff" stroke="#63b8ff" d="m693.18-313.19-10.54 1.12 7.54-7.44z"/>
</a></g><g id="Node000022" class="node"><title>Node22</title><a xlink:href="../../d1/d02/_node_8h.html" id="a_Node000022" target="_top">
<path fill="#fff" stroke="#666" d="M846.5-194h-104v20h104z"/>
<text x="794.5" y="-181.2" font-family="Consolas" font-size="11" text-anchor="middle">Domain/Node.h</text>
</a></g><g id="edge37_Node000001_Node000022" class="edge"><title>Node1-&gt;Node22</title><a id="a_edge37_Node000001_Node000022">
<path fill="none" stroke="#63b8ff" d="M778.41-347.75c2.68 27.06 10.53 106.53 14.18 143.46"/>
<path fill="#63b8ff" stroke="#63b8ff" d="m796.08-204.59-2.5 10.3-4.47-9.61z"/>
</a></g><g id="Node000025" class="node"><title>Node25</title><a xlink:href="../../db/d65/_factory_8hpp.html" id="a_Node000025" target="_top">
<path fill="#fff" stroke="#666" d="M1430.5-194h-138v20h138z"/>
<text x="1361.5" y="-181.2" font-family="Consolas" font-size="11" text-anchor="middle">Domain/Factory.hpp</text>
</a></g><g id="edge31_Node000001_Node000025" class="edge"><title>Node1-&gt;Node25</title><a id="a_edge31_Node000001_Node000025">
<path fill="none" stroke="#63b8ff" d="M860.26-351.89c136.29 10.02 399.81 36.64 469.24 95.89 15.54 13.26 23.89 35.61 28.11 51.69"/>
<path fill="#63b8ff" stroke="#63b8ff" d="m1361.07-204.89-1.15 10.53-5.67-8.95z"/>
</a></g><g id="Node000028" class="node"><title>Node28</title><a xlink:href="../../d0/db8/_element_8h.html" id="a_Node000028" target="_top">
<path fill="#fff" stroke="#666" d="M1114-312H983v20h131z"/>
<text x="1048.5" y="-299.2" font-family="Consolas" font-size="11" text-anchor="middle">Element/Element.h</text>
</a></g><g id="edge38_Node000001_Node000028" class="edge"><title>Node1-&gt;Node28</title><a id="a_edge38_Node000001_Node000028">
<path fill="none" stroke="#63b8ff" d="M822.86-347.96c46.8 9.32 119.86 23.88 170.09 33.89"/>
<path fill="#63b8ff" stroke="#63b8ff" d="m993.87-317.45 9.12 5.38-10.49 1.48z"/>
</a></g><g id="Node000034" class="node"><title>Node34</title><a xlink:href="../../de/d2b/_load_8h.html" id="a_Node000034" target="_top">
<path fill="#fff" stroke="#666" d="M559-312h-91v20h91z"/>
<text x="513.5" y="-299.2" font-family="Consolas" font-size="11" text-anchor="middle">Load/Load.h</text>
</a></g><g id="edge48_Node000001_Node000034" class="edge"><title>Node1-&gt;Node34</title><a id="a_edge48_Node000001_Node000034">
<path fill="none" stroke="#63b8ff" d="M733.31-347.96c-45.49 9.3-116.46 23.82-165.39 33.83"/>
<path fill="#63b8ff" stroke="#63b8ff" d="m568.33-310.64-10.5-1.43 9.1-5.43z"/>
</a></g><g id="Node000035" class="node"><title>Node35</title><a xlink:href="../../d2/d42/_recorder_8h.html" id="a_Node000035" target="_top">
<path fill="#fff" stroke="#666" d="M951-256H806v20h145z"/>
<text x="878.5" y="-243.2" font-family="Consolas" font-size="11" text-anchor="middle">Recorder/Recorder.h</text>
</a></g><g id="edge50_Node000001_Node000035" class="edge"><title>Node1-&gt;Node35</title><a id="a_edge50_Node000001_Node000035">
<path fill="none" stroke="#63b8ff" d="m785.77-348 77.48 84.39"/>
<path fill="#63b8ff" stroke="#63b8ff" d="m865.94-265.86 4.18 9.73-9.34-4.99z"/>
</a></g><g id="Node000003" class="node"><title>Node3</title><a xlink:href="../../dc/df2/_domain_base_8h.html" id="a_Node000003" target="_top">
<path fill="#fff" stroke="#666" d="M514-194H369v20h145z"/>
<text x="441.5" y="-181.2" font-family="Consolas" font-size="11" text-anchor="middle">Domain/DomainBase.h</text>
</a></g><g id="edge2_Node000002_Node000003" class="edge"><title>Node2-&gt;Node3</title><a id="a_edge2_Node000002_Node000003">
<path fill="none" stroke="#63b8ff" d="M323.61-235.89c23.4 10.1 61.34 26.48 87.84 37.92"/>
<path fill="#63b8ff" stroke="#63b8ff" d="m412.85-201.18 7.8 7.18-10.57-.75z"/>
</a></g><g id="Node000018" class="node"><title>Node18</title><a xlink:href="../../d4/d48/_storage_8hpp.html" id="a_Node000018" target="_top">
<path fill="#fff" stroke="#666" d="M312.5-194h-138v20h138z"/>
<text x="243.5" y="-181.2" font-family="Consolas" font-size="11" text-anchor="middle">Domain/Storage.hpp</text>
</a></g><g id="edge18_Node000002_Node000018" class="edge"><title>Node2-&gt;Node18</title><a id="a_edge18_Node000002_Node000018">
<path fill="none" stroke="#63b8ff" d="M293.54-235.89c-8.92 9.08-22.83 23.21-33.71 34.29"/>
<path fill="#63b8ff" stroke="#63b8ff" d="m262.05-198.87-9.5 4.67 4.51-9.58z"/>
</a></g><g id="Node000019" class="node"><title>Node19</title><a id="a_Node000019">
<path fill="#e0e0e0" stroke="#999" d="M118.5-194h-50v20h50z"/>
<text x="93.5" y="-181.2" font-family="Consolas" font-size="11" text-anchor="middle">array</text>
</a></g><g id="edge20_Node000002_Node000019" class="edge"><title>Node2-&gt;Node19</title><a id="a_edge20_Node000002_Node000019">
<path fill="none" stroke="#63b8ff" d="M266.68-236.72c-34.63 8.29-88.43 21.92-134.18 36.72-2.27.73-4.6 1.53-6.94 2.35"/>
<path fill="#63b8ff" stroke="#63b8ff" d="m126.63-194.31-10.59.17 8.17-6.74z"/>
</a></g><g id="Node000004" class="node"><title>Node4</title><a xlink:href="../../d2/d4a/_tag_8h.html" id="a_Node000004" target="_top">
<path fill="#fff" stroke="#666" d="M834.5-132h-98v20h98z"/>
<text x="785.5" y="-119.2" font-family="Consolas" font-size="11" text-anchor="middle">Domain/Tag.h</text>
</a></g><g id="edge3_Node000003_Node000004" class="edge"><title>Node3-&gt;Node4</title><a id="a_edge3_Node000003_Node000004">
<path fill="none" stroke="#63b8ff" d="M490.48-173.95c10.87 1.98 22.33 4.05 33.02 5.95 69.59 12.34 149.67 26.02 202.79 35.02"/>
<path fill="#63b8ff" stroke="#63b8ff" d="m726.94-136.42 9.28 5.12-10.45 1.78z"/>
</a></g><g id="Node000012" class="node"><title>Node12</title><a xlink:href="../../d4/ddd/container_8h.html" id="a_Node000012" target="_top">
<path fill="#fff" stroke="#666" d="M377-132H232v20h145z"/>
<text x="304.5" y="-119.2" font-family="Consolas" font-size="11" text-anchor="middle">Toolbox/container.h</text>
</a></g><g id="edge11_Node000003_Node000012" class="edge"><title>Node3-&gt;Node12</title><a id="a_edge11_Node000003_Node000012">
<path fill="none" stroke="#63b8ff" d="M420.69-173.89c-22.96 10.06-60.13 26.34-86.23 37.77"/>
<path fill="#63b8ff" stroke="#63b8ff" d="m335.62-132.81-10.57.81 7.76-7.22z"/>
</a></g><g id="Node000017" class="node"><title>Node17</title><a id="a_Node000017">
<path fill="#e0e0e0" stroke="#999" d="M910-132h-57v20h57z"/>
<text x="881.5" y="-119.2" font-family="Consolas" font-size="11" text-anchor="middle">future</text>
</a></g><g id="edge17_Node000003_Node000017" class="edge"><title>Node3-&gt;Node17</title><a id="a_edge17_Node000003_Node000017">
<path fill="none" stroke="#63b8ff" d="M487.81-173.95c11.63 2.11 24.09 4.24 35.69 5.95 138.41 20.42 177.27 11.87 319.47 36.12"/>
<path fill="#63b8ff" stroke="#63b8ff" d="m843.69-135.31 9.25 5.16-10.45 1.74z"/>
</a></g><g id="Node000005" class="node"><title>Node5</title><a xlink:href="../../d8/d8f/suan_pan_8h.html" id="a_Node000005" target="_top">
<path fill="#fff" stroke="#666" d="M824-76h-77v20h77z"/>
<text x="785.5" y="-63.2" font-family="Consolas" font-size="11" text-anchor="middle">suanPan.h</text>
</a></g><g id="edge4_Node000004_Node000005" class="edge"><title>Node4-&gt;Node5</title><a id="a_edge4_Node000004_Node000005">
<path fill="none" stroke="#63b8ff" d="M785.5-111.59v25.02"/>
<path fill="#63b8ff" stroke="#63b8ff" d="m789-86.3-3.5 10-3.5-10z"/>
</a></g><g id="Node000006" class="node"><title>Node6</title><a id="a_Node000006">
<path fill="#e0e0e0" stroke="#999" d="M989-20h-71V0h71z"/>
<text x="953.5" y="-7.2" font-family="Consolas" font-size="11" text-anchor="middle">iostream</text>
</a></g><g id="edge5_Node000005_Node000006" class="edge"><title>Node5-&gt;Node6</title><a id="a_edge5_Node000005_Node000006">
<path fill="none" stroke="#63b8ff" d="M813.62-55.96c27.98 8.99 71.11 22.85 102.08 32.81"/>
<path fill="#63b8ff" stroke="#63b8ff" d="m916.84-26.46 8.45 6.39-10.59.27z"/>
</a></g><g id="Node000007" class="node"><title>Node7</title><a id="a_Node000007">
<path fill="#e0e0e0" stroke="#999" d="M619-20H508V0h111z"/>
<text x="563.5" y="-7.2" font-family="Consolas" font-size="11" text-anchor="middle">armadillo/arma</text>
</a></g><g id="edge6_Node000005_Node000007" class="edge"><title>Node5-&gt;Node7</title><a id="a_edge6_Node000005_Node000007">
<path fill="none" stroke="#63b8ff" d="M748.34-55.96c-37.86 9.21-96.69 23.52-137.78 33.51"/>
<path fill="#63b8ff" stroke="#63b8ff" d="m611.32-19.03-10.54-1.04 8.89-5.76z"/>
</a></g><g id="Node000008" class="node"><title>Node8</title><a id="a_Node000008">
<path fill="#e0e0e0" stroke="#999" d="M721.5-20h-84V0h84z"/>
<text x="679.5" y="-7.2" font-family="Consolas" font-size="11" text-anchor="middle">filesystem</text>
</a></g><g id="edge7_Node000005_Node000008" class="edge"><title>Node5-&gt;Node8</title><a id="a_edge7_Node000005_Node000008">
<path fill="none" stroke="#63b8ff" d="M767.52-55.84c-16.78 8.55-42.03 21.41-61.18 31.17"/>
<path fill="#63b8ff" stroke="#63b8ff" d="m707.72-21.45-10.5 1.42 7.32-7.65z"/>
</a></g><g id="Node000009" class="node"><title>Node9</title><a id="a_Node000009">
<path fill="#e0e0e0" stroke="#999" d="M831-20h-91V0h91z"/>
<text x="785.5" y="-7.2" font-family="Consolas" font-size="11" text-anchor="middle">fmt/color.h</text>
</a></g><g id="edge8_Node000005_Node000009" class="edge"><title>Node5-&gt;Node9</title><a id="a_edge8_Node000005_Node000009">
<path fill="none" stroke="#63b8ff" d="M785.5-55.59v25.02"/>
<path fill="#63b8ff" stroke="#63b8ff" d="m789-30.3-3.5 10-3.5-10z"/>
</a></g><g id="Node000010" class="node"><title>Node10</title><a id="a_Node000010">
<path fill="#e0e0e0" stroke="#999" d="M899.5-20h-50V0h50z"/>
<text x="874.5" y="-7.2" font-family="Consolas" font-size="11" text-anchor="middle">mutex</text>
</a></g><g id="edge9_Node000005_Node000010" class="edge"><title>Node5-&gt;Node10</title><a id="a_edge9_Node000005_Node000010">
<path fill="none" stroke="#63b8ff" d="M800.6-55.84c13.76 8.35 34.32 20.82 50.26 30.5"/>
<path fill="#63b8ff" stroke="#63b8ff" d="m852.89-28.2 6.74 8.17-10.37-2.19z"/>
</a></g><g id="Node000011" class="node"><title>Node11</title><a id="a_Node000011">
<path fill="#e0e0e0" stroke="#999" d="M305-20h-57V0h57z"/>
<text x="276.5" y="-7.2" font-family="Consolas" font-size="11" text-anchor="middle">memory</text>
</a></g><g id="edge10_Node000005_Node000011" class="edge"><title>Node5-&gt;Node11</title><a id="a_edge10_Node000005_Node000011">
<path fill="none" stroke="#63b8ff" d="M746.82-60.9c-94.58 10.04-336.77 35.73-431.51 45.78"/>
<path fill="#63b8ff" stroke="#63b8ff" d="m315.61-11.63-10.31-2.43 9.57-4.53z"/>
</a></g><g id="edge12_Node000012_Node000005" class="edge"><title>Node12-&gt;Node5</title><a id="a_edge12_Node000012_Node000005">
<path fill="none" stroke="#63b8ff" d="M377.03-112.86c99.26 11.15 274.78 30.85 359.72 40.39"/>
<path fill="#63b8ff" stroke="#63b8ff" d="m737.34-75.93 9.55 4.6-10.33 2.36z"/>
</a></g><g id="Node000013" class="node"><title>Node13</title><a id="a_Node000013">
<path fill="#e0e0e0" stroke="#999" d="M234-76h-37v20h37z"/>
<text x="215.5" y="-63.2" font-family="Consolas" font-size="11" text-anchor="middle">map</text>
</a></g><g id="edge13_Node000012_Node000013" class="edge"><title>Node12-&gt;Node13</title><a id="a_edge13_Node000012_Node000013">
<path fill="none" stroke="#63b8ff" d="M289.4-111.84c-13.76 8.35-34.32 20.82-50.26 30.5"/>
<path fill="#63b8ff" stroke="#63b8ff" d="m240.74-78.22-10.37 2.19 6.74-8.17z"/>
</a></g><g id="Node000014" class="node"><title>Node14</title><a id="a_Node000014">
<path fill="#e0e0e0" stroke="#999" d="M534-76h-37v20h37z"/>
<text x="515.5" y="-63.2" font-family="Consolas" font-size="11" text-anchor="middle">set</text>
</a></g><g id="edge14_Node000012_Node000014" class="edge"><title>Node12-&gt;Node14</title><a id="a_edge14_Node000012_Node000014">
<path fill="none" stroke="#63b8ff" d="M344.69-111.97c35.12 8.08 87.65 20.63 142.32 35.99"/>
<path fill="#63b8ff" stroke="#63b8ff" d="m488.21-79.28 8.67 6.09-10.58.64z"/>
</a></g><g id="Node000015" class="node"><title>Node15</title><a id="a_Node000015">
<path fill="#e0e0e0" stroke="#999" d="M356.5-76h-104v20h104z"/>
<text x="304.5" y="-63.2" font-family="Consolas" font-size="11" text-anchor="middle">unordered_map</text>
</a></g><g id="edge15_Node000012_Node000015" class="edge"><title>Node12-&gt;Node15</title><a id="a_edge15_Node000012_Node000015">
<path fill="none" stroke="#63b8ff" d="M304.5-111.59v25.02"/>
<path fill="#63b8ff" stroke="#63b8ff" d="m308-86.3-3.5 10-3.5-10z"/>
</a></g><g id="Node000016" class="node"><title>Node16</title><a id="a_Node000016">
<path fill="#e0e0e0" stroke="#999" d="M478.5-76h-104v20h104z"/>
<text x="426.5" y="-63.2" font-family="Consolas" font-size="11" text-anchor="middle">unordered_set</text>
</a></g><g id="edge16_Node000012_Node000016" class="edge"><title>Node12-&gt;Node16</title><a id="a_edge16_Node000012_Node000016">
<path fill="none" stroke="#63b8ff" d="M324.92-111.96c19.62 8.68 49.48 21.9 71.76 31.76"/>
<path fill="#63b8ff" stroke="#63b8ff" d="m398.29-83.32 7.72 7.25-10.56-.84z"/>
</a></g><g id="edge19_Node000018_Node000012" class="edge"><title>Node18-&gt;Node12</title><a id="a_edge19_Node000018_Node000012">
<path fill="none" stroke="#63b8ff" d="M252.76-173.89c9.32 9.17 23.88 23.49 35.19 34.61"/>
<path fill="#63b8ff" stroke="#63b8ff" d="m290.47-141.71 4.68 9.51-9.59-4.52z"/>
</a></g><g id="Node000021" class="node"><title>Node21</title><a xlink:href="../../d1/d78/_conditional_modifier_8h.html" id="a_Node000021" target="_top">
<path fill="#fff" stroke="#666" d="M616.5-256h-206v20h206z"/>
<text x="513.5" y="-243.2" font-family="Consolas" font-size="11" text-anchor="middle">Domain/ConditionalModifier.h</text>
</a></g><g id="edge22_Node000020_Node000021" class="edge"><title>Node20-&gt;Node21</title><a id="a_edge22_Node000020_Node000021">
<path fill="none" stroke="#63b8ff" d="M638.39-291.96c-24.66 8.88-62.49 22.5-90.05 32.42"/>
<path fill="#63b8ff" stroke="#63b8ff" d="m549.28-256.16-10.59.09 8.22-6.68z"/>
</a></g><g id="edge23_Node000021_Node000003" class="edge"><title>Node21-&gt;Node3</title><a id="a_edge23_Node000021_Node000003">
<path fill="none" stroke="#63b8ff" d="M502.56-235.89c-11.2 9.34-28.84 24.04-42.29 35.25"/>
<path fill="#63b8ff" stroke="#63b8ff" d="m462.46-197.91-9.92 3.71 5.44-9.09z"/>
</a></g><g id="edge30_Node000021_Node000014" class="edge"><title>Node21-&gt;Node14</title><a id="a_edge30_Node000021_Node000014">
<path fill="none" stroke="#63b8ff" d="M458.18-235.99c-39.1 7.63-86.61 19.89-98.68 35.99-8.53 11.38-6.79 19.51 0 32 14.09 25.91 87.63 66.33 128.51 87.32"/>
<path fill="#63b8ff" stroke="#63b8ff" d="m489.84-83.68 7.33 7.65-10.5-1.41z"/>
</a></g><g id="edge24_Node000021_Node000022" class="edge"><title>Node21-&gt;Node22</title><a id="a_edge24_Node000021_Node000022">
<path fill="none" stroke="#63b8ff" d="M560.39-235.96c44.62 8.73 113.59 22.56 173.11 35.96 4.99 1.12 10.2 2.34 15.39 3.58"/>
<path fill="#63b8ff" stroke="#63b8ff" d="m749.85-199.79 8.9 5.75-10.54 1.05z"/>
</a></g><g id="Node000023" class="node"><title>Node23</title><a xlink:href="../../d1/ded/_amplitude_8h.html" id="a_Node000023" target="_top">
<path fill="#fff" stroke="#666" d="M724.5-194h-192v20h192z"/>
<text x="628.5" y="-181.2" font-family="Consolas" font-size="11" text-anchor="middle">Load/Amplitude/Amplitude.h</text>
</a></g><g id="edge26_Node000021_Node000023" class="edge"><title>Node21-&gt;Node23</title><a id="a_edge26_Node000021_Node000023">
<path fill="none" stroke="#63b8ff" d="M530.97-235.89c18.93 9.88 49.37 25.77 71.21 37.16"/>
<path fill="#63b8ff" stroke="#63b8ff" d="m604-201.73 7.25 7.73-10.49-1.52z"/>
</a></g><g id="Node000024" class="node"><title>Node24</title><a xlink:href="../../d4/da0/_resource_holder_8h.html" id="a_Node000024" target="_top">
<path fill="#fff" stroke="#666" d="M179-76H0v20h179z"/>
<text x="89.5" y="-63.2" font-family="Consolas" font-size="11" text-anchor="middle">Toolbox/ResourceHolder.h</text>
</a></g><g id="edge28_Node000021_Node000024" class="edge"><title>Node21-&gt;Node24</title><a id="a_edge28_Node000021_Node000024">
<path fill="none" stroke="#63b8ff" d="M410.14-236.32c-95.15 8.75-224.52 22.84-244.64 36.32-40.75 27.29-62.23 84.29-71.06 114.03"/>
<path fill="#63b8ff" stroke="#63b8ff" d="m97.73-84.72-6.06 8.69-.69-10.57z"/>
</a></g><g id="edge25_Node000022_Node000004" class="edge"><title>Node22-&gt;Node4</title><a id="a_edge25_Node000022_Node000004">
<path fill="none" stroke="#63b8ff" d="M793.13-173.89c-1.25 8.37-3.15 21.05-4.74 31.66"/>
<path fill="#63b8ff" stroke="#63b8ff" d="m791.82-141.57-4.94 9.37-1.98-10.41z"/>
</a></g><g id="edge27_Node000023_Node000004" class="edge"><title>Node23-&gt;Node4</title><a id="a_edge27_Node000023_Node000004">
<path fill="none" stroke="#63b8ff" d="M652.34-173.89c26.67 10.19 70.04 26.77 100 38.22"/>
<path fill="#63b8ff" stroke="#63b8ff" d="m753.85-138.84 8.1 6.84-10.6-.3z"/>
</a></g><g id="edge29_Node000024_Node000011" class="edge"><title>Node24-&gt;Node11</title><a id="a_edge29_Node000024_Node000011">
<path fill="none" stroke="#63b8ff" d="M120.8-55.96c32.27 9.32 82.63 23.86 117.29 33.87"/>
<path fill="#63b8ff" stroke="#63b8ff" d="m239.23-25.41 8.63 6.14-10.58.59z"/>
</a></g><g id="edge35_Node000025_Node000012" class="edge"><title>Node25-&gt;Node12</title><a id="a_edge35_Node000025_Node000012">
<path fill="none" stroke="#63b8ff" d="M1320.38-173.94c-11.85 2.29-24.83 4.51-36.88 5.94-172.6 20.45-693.22 36.92-896.46 42.74"/>
<path fill="#63b8ff" stroke="#63b8ff" d="m387.11-121.76-10.09-3.22 9.89-3.78z"/>
</a></g><g id="edge36_Node000025_Node000017" class="edge"><title>Node25-&gt;Node17</title><a id="a_edge36_Node000025_Node000017">
<path fill="none" stroke="#63b8ff" d="M1318.3-173.96c-11.29 2.16-23.47 4.31-34.8 5.96-157.58 22.9-201.85 9.77-363.16 36.1"/>
<path fill="#63b8ff" stroke="#63b8ff" d="m920.49-128.38-10.44-1.82 9.29-5.08z"/>
</a></g><g id="Node000026" class="node"><title>Node26</title><a id="a_Node000026">
<path fill="#e0e0e0" stroke="#999" d="M1297-132h-165v20h165z"/>
<text x="1214.5" y="-119.2" font-family="Consolas" font-size="11" text-anchor="middle">Domain/MetaMat/MetaMat</text>
</a></g><g id="edge32_Node000025_Node000026" class="edge"><title>Node25-&gt;Node26</title><a id="a_edge32_Node000025_Node000026">
<path fill="none" stroke="#63b8ff" d="M1339.17-173.89c-24.86 10.15-65.22 26.62-93.26 38.07"/>
<path fill="#63b8ff" stroke="#63b8ff" d="m1247.14-132.54-10.59.54 7.94-7.02z"/>
</a></g><g id="Node000027" class="node"><title>Node27</title><a xlink:href="../../d6/d94/_mapping_d_o_f_8h.html" id="a_Node000027" target="_top">
<path fill="#fff" stroke="#666" d="M1467.5-132h-152v20h152z"/>
<text x="1391.5" y="-119.2" font-family="Consolas" font-size="11" text-anchor="middle">Element/MappingDOF.h</text>
</a></g><g id="edge33_Node000025_Node000027" class="edge"><title>Node25-&gt;Node27</title><a id="a_edge33_Node000025_Node000027">
<path fill="none" stroke="#63b8ff" d="M1366.06-173.89c4.31 8.64 10.92 21.85 16.32 32.65"/>
<path fill="#63b8ff" stroke="#63b8ff" d="m1385.56-142.71 1.34 10.51-7.6-7.38z"/>
</a></g><g id="edge34_Node000027_Node000005" class="edge"><title>Node27-&gt;Node5</title><a id="a_edge34_Node000027_Node000005">
<path fill="none" stroke="#63b8ff" d="M1315.05-112.83c-2.89.28-5.74.56-8.55.83-173.6 16.69-380.03 33.67-472.27 41.11"/>
<path fill="#63b8ff" stroke="#63b8ff" d="m834.33-67.39-10.24-2.69 9.68-4.29z"/>
</a></g><g id="Node000029" class="node"><title>Node29</title><a xlink:href="../../d1/d48/_distributed_8h.html" id="a_Node000029" target="_top">
<path fill="#fff" stroke="#666" d="M1320.5-256h-158v20h158z"/>
<text x="1241.5" y="-243.2" font-family="Consolas" font-size="11" text-anchor="middle">Element/Distributed.h</text>
</a></g><g id="edge39_Node000028_Node000029" class="edge"><title>Node28-&gt;Node29</title><a id="a_edge39_Node000028_Node000029">
<path fill="none" stroke="#63b8ff" d="M1080.8-291.96c32.57 9.11 82.98 23.22 118.65 33.19"/>
<path fill="#63b8ff" stroke="#63b8ff" d="m1200.4-262.13 8.69 6.06-10.57.68z"/>
</a></g><g id="Node000030" class="node"><title>Node30</title><a xlink:href="../../d9/d82/_element_base_8h.html" id="a_Node000030" target="_top">
<path fill="#fff" stroke="#666" d="M1127.5-256h-158v20h158z"/>
<text x="1048.5" y="-243.2" font-family="Consolas" font-size="11" text-anchor="middle">Element/ElementBase.h</text>
</a></g><g id="edge41_Node000028_Node000030" class="edge"><title>Node28-&gt;Node30</title><a id="a_edge41_Node000028_Node000030">
<path fill="none" stroke="#63b8ff" d="M1048.5-291.59v25.02"/>
<path fill="#63b8ff" stroke="#63b8ff" d="m1052-266.3-3.5 10-3.5-10z"/>
</a></g><g id="edge40_Node000029_Node000005" class="edge"><title>Node29-&gt;Node5</title><a id="a_edge40_Node000029_Node000005">
<path fill="none" stroke="#63b8ff" d="M1320.56-236.8c52.47 6.99 115.2 18.8 134.94 36.8 29.71 27.09 48.49 58.66 21 88-43.7 46.64-491.58 46.84-642.02 45.58"/>
<path fill="#63b8ff" stroke="#63b8ff" d="m834.14-62.92-9.97-3.6 10.03-3.4z"/>
</a></g><g id="edge43_Node000030_Node000004" class="edge"><title>Node30-&gt;Node4</title><a id="a_edge43_Node000030_Node000004">
<path fill="none" stroke="#63b8ff" d="M1021.5-236c-24.05 8.34-59.97 21.6-90 36-25.5 12.23-30.09 18.61-55 32-20.57 11.05-44.21 22.71-62.25 31.4"/>
<path fill="#63b8ff" stroke="#63b8ff" d="m815.4-133.27-10.53 1.16 7.5-7.47z"/>
</a></g><g id="edge42_Node000030_Node000022" class="edge"><title>Node30-&gt;Node22</title><a id="a_edge42_Node000030_Node000022">
<path fill="none" stroke="#63b8ff" d="M1010.2-235.95c-44.77 10.57-118.91 28.09-167.53 39.57"/>
<path fill="#63b8ff" stroke="#63b8ff" d="m843.23-192.92-10.53-1.1 8.92-5.71z"/>
</a></g><g id="edge44_Node000030_Node000027" class="edge"><title>Node30-&gt;Node27</title><a id="a_edge44_Node000030_Node000027">
<path fill="none" stroke="#63b8ff" d="M1127.72-237.21c112.77 11.28 306.63 31.43 311.78 37.21 17.06 19.14-6.97 45.06-26.74 61.41"/>
<path fill="#63b8ff" stroke="#63b8ff" d="m1414.7-135.66-10.02 3.44 5.68-8.94z"/>
</a></g><g id="Node000031" class="node"><title>Node31</title><a xlink:href="../../d9/dc0/vtk_base_8h.html" id="a_Node000031" target="_top">
<path fill="#fff" stroke="#666" d="M1274.5-200h-158v32h158z"/>
<text x="1124.5" y="-187.2" font-family="Consolas" font-size="11">Element/Visualisation</text>
<text x="1195.5" y="-175.2" font-family="Consolas" font-size="11" text-anchor="middle">/vtkBase.h</text>
</a></g><g id="edge45_Node000030_Node000031" class="edge"><title>Node30-&gt;Node31</title><a id="a_edge45_Node000030_Node000031">
<path fill="none" stroke="#63b8ff" d="M1070.83-235.89c20.74 8.47 52.28 21.34 78.45 32.02"/>
<path fill="#63b8ff" stroke="#63b8ff" d="m1150.71-207.06 7.94 7.02-10.59-.54z"/>
</a></g><g id="Node000032" class="node"><title>Node32</title><a xlink:href="../../d4/d0f/_output_type_8h.html" id="a_Node000032" target="_top">
<path fill="#fff" stroke="#666" d="M1098.5-194h-158v20h158z"/>
<text x="1019.5" y="-181.2" font-family="Consolas" font-size="11" text-anchor="middle">Recorder/OutputType.h</text>
</a></g><g id="edge46_Node000030_Node000032" class="edge"><title>Node30-&gt;Node32</title><a id="a_edge46_Node000030_Node000032">
<path fill="none" stroke="#63b8ff" d="M1044.1-235.89c-4.18 8.64-10.57 21.85-15.79 32.65"/>
<path fill="#63b8ff" stroke="#63b8ff" d="m1031.45-201.68-7.5 7.48 1.2-10.53z"/>
</a></g><g id="Node000033" class="node"><title>Node33</title><a id="a_Node000033">
<path fill="#e0e0e0" stroke="#999" d="M1113-132H928v20h185z"/>
<text x="1020.5" y="-119.2" font-family="Consolas" font-size="11" text-anchor="middle">magic_enum/magic_enum.hpp</text>
</a></g><g id="edge47_Node000032_Node000033" class="edge"><title>Node32-&gt;Node33</title><a id="a_edge47_Node000032_Node000033">
<path fill="none" stroke="#63b8ff" d="M1019.65-173.89c.14 8.37.35 21.05.53 31.66"/>
<path fill="#63b8ff" stroke="#63b8ff" d="m1023.68-142.26-3.33 10.06-3.67-9.94z"/>
</a></g><g id="edge49_Node000034_Node000021" class="edge"><title>Node34-&gt;Node21</title><a id="a_edge49_Node000034_Node000021">
<path fill="none" stroke="#63b8ff" d="M513.5-291.59v25.02"/>
<path fill="#63b8ff" stroke="#63b8ff" d="m517-266.3-3.5 10-3.5-10z"/>
</a></g><g id="edge51_Node000035_Node000004" class="edge"><title>Node35-&gt;Node4</title><a id="a_edge51_Node000035_Node000004">
<path fill="none" stroke="#63b8ff" d="M877.78-235.53c-1.61 15.54-6.68 46.79-22.28 67.53-10.02 13.32-25.23 23.78-38.91 31.24"/>
<path fill="#63b8ff" stroke="#63b8ff" d="m817.94-133.52-10.5 1.45 7.31-7.68z"/>
</a></g><g id="edge52_Node000035_Node000032" class="edge"><title>Node35-&gt;Node32</title><a id="a_edge52_Node000035_Node000032">
<path fill="none" stroke="#63b8ff" d="M899.91-235.89c23.75 10.1 62.23 26.48 89.11 37.92"/>
<path fill="#63b8ff" stroke="#63b8ff" d="m990.51-201.14 7.84 7.14-10.58-.7z"/>
</a></g></g></svg><g id="navigator" fill="#404254"><path fill="#f2f5e9" fill-opacity=".5" stroke="#606060" stroke-width=".5" d="M0 0h60v60H0z"/><use xlink:href="#zoomPlus" id="zoomplus" x="17" y="9" onmousedown="handleZoom(evt,'in')"/><use xlink:href="#zoomMin" id="zoomminus" x="42" y="9" onmousedown="handleZoom(evt,'out')"/><use xlink:href="#resetDef" id="reset" x="30" y="36" onmousedown="handleReset()"/><use xlink:href="#arrowUp" id="arrowup" x="0" y="0" onmousedown="handlePan(0,-1)"/><use xlink:href="#arrowRight" id="arrowright" x="0" y="0" onmousedown="handlePan(1,0)"/><use xlink:href="#arrowDown" id="arrowdown" x="0" y="0" onmousedown="handlePan(0,1)"/><use xlink:href="#arrowLeft" id="arrowleft" x="0" y="0" onmousedown="handlePan(-1,0)"/></g><svg height="30" preserveAspectRatio="xMaxYMin meet" viewBox="0 0 15 15"><a xlink:href="_domain_state_8cpp__incl_org.svg" id="arrow_out" target="_base" transform="scale(.3)">
   <rect id="button" width="38" height="38" x="6" y="6" fill="#f2f5e9" fill-opacity=".5" stroke="#606060" stroke-width="1" rx="5" ry="5"/>
   <path id="arrow" d="M11.5 31.437c.44-11.34 10.543-20.114 20.659-9.458l4.91-4.733.02 14.754-14.929-.022 4.838-4.838c-8.47-8.876-13.706-1.91-15.498 4.297" style="fill:#404040"/>
  </a></svg><script type="application/ecmascript"><![CDATA[
document.addEventListener('DOMContentLoaded', (event) => {
  highlightEdges();
  highlightAdjacentNodes();
});
]]></script></svg>