<svg xmlns="http://www.w3.org/2000/svg" xmlns:xlink="http://www.w3.org/1999/xlink" width="272" height="340pt" viewBox="0 0 204 340"><svg xmlns="http://www.w3.org/2000/svg" xmlns:xlink="http://www.w3.org/1999/xlink" xml:space="preserve" id="main" onload="init(evt)"><style>.node,[data-mouse-over-selected=false]{opacity:.7}.edge.selected,.node.selected,[data-mouse-over-selected=true]{opacity:1}.edge:hover path{stroke:red}.edge:hover polygon{stroke:red;fill:red}</style><script xlink:href="../../svg.min.js" type="application/ecmascript"/><svg id="graph" class="graph"><g id="graph0" class="graph" transform="translate(4 336)"><title>InteractionPair</title><g id="Node000001" class="node"><title>Node1</title><a id="a_Node000001">
<path fill="#999" stroke="transparent" d="M134-196H0V0h134z"/>
<text x="16" y="-183.2" font-family="Consolas" font-size="11">InteractionPair</text>
<text x="63.5" y="-167.2" font-family="Consolas" font-size="11"> </text>
<text x="4" y="-151.2" font-family="Consolas" font-size="11">+</text>
<text x="15" y="-151.2" font-family="Consolas" font-size="11">InteractionPair()</text>
<text x="4" y="-135.2" font-family="Consolas" font-size="11">+</text>
<text x="15" y="-135.2" font-family="Consolas" font-size="11">set_dimension()</text>
<text x="4" y="-119.2" font-family="Consolas" font-size="11">+</text>
<text x="15" y="-119.2" font-family="Consolas" font-size="11">set_inertial()</text>
<text x="4" y="-103.2" font-family="Consolas" font-size="11">+</text>
<text x="15" y="-103.2" font-family="Consolas" font-size="11">position_i()</text>
<text x="4" y="-87.2" font-family="Consolas" font-size="11">+</text>
<text x="15" y="-87.2" font-family="Consolas" font-size="11">position_j()</text>
<text x="4" y="-71.2" font-family="Consolas" font-size="11">+</text>
<text x="15" y="-71.2" font-family="Consolas" font-size="11">velocity_i()</text>
<text x="4" y="-55.2" font-family="Consolas" font-size="11">+</text>
<text x="15" y="-55.2" font-family="Consolas" font-size="11">velocity_j()</text>
<text x="4" y="-39.2" font-family="Consolas" font-size="11">+</text>
<text x="15" y="-39.2" font-family="Consolas" font-size="11">dof_i()</text>
<text x="4" y="-23.2" font-family="Consolas" font-size="11">+</text>
<text x="15" y="-23.2" font-family="Consolas" font-size="11">dof_j()</text>
<text x="4" y="-7.2" font-family="Consolas" font-size="11">+</text>
<text x="15" y="-7.2" font-family="Consolas" font-size="11">initial_gap()</text>
<path fill="#666" stroke="#666" d="M0-178h134z"/>
<path fill="#666" stroke="#666" d="M0-162h134z"/>
<path fill="none" stroke="#666" d="M0 0v-196h134V0z"/>
</a></g><g id="Node000002" class="node"><title>Node2</title><a xlink:href="../../df/de6/classdouble.html" id="a_Node000002" target="_top">
<path fill="#fff" stroke="transparent" d="M92.5-332h-51v52h51z"/>
<text x="47" y="-319.2" font-family="Consolas" font-size="11">double</text>
<text x="64" y="-303.2" font-family="Consolas" font-size="11"> </text>
<text x="64" y="-287.2" font-family="Consolas" font-size="11"> </text>
<path fill="#666" stroke="#666" d="M42-314h51z"/>
<path fill="#666" stroke="#666" d="M42-298h51z"/>
<path fill="none" stroke="#666" d="M41.5-280v-52h51v52z"/>
</a></g><g id="edge1_Node000001_Node000002" style="opacity:.7"><title>Node2-&gt;Node1</title><a id="a_edge1_Node000001_Node000002">
<path fill="none" stroke="#63b8ff" d="M67-279.74v71.39"/>
<path fill="none" stroke="#63b8ff" d="m67-208.02-4 6 4 6 4-6z"/>
</a><text x="131.5" y="-253.2" fill="gray" font-family="Consolas" font-size="11" text-anchor="middle"> +effective_damping</text><text x="131.5" y="-241.2" fill="gray" font-family="Consolas" font-size="11" text-anchor="middle">+effective_mass</text><text x="131.5" y="-229.2" fill="gray" font-family="Consolas" font-size="11" text-anchor="middle">+effective_modulus</text><text x="131.5" y="-217.2" fill="gray" font-family="Consolas" font-size="11" text-anchor="middle">+effective_radius</text></g></g></svg></svg><script type="application/ecmascript"><![CDATA[
document.addEventListener('DOMContentLoaded', (event) => {
  highlightEdges();
  highlightAdjacentNodes();
});
]]></script></svg>