<?xml version="1.0" encoding="UTF-8" standalone="no"?>
<!DOCTYPE svg PUBLIC "-//W3C//DTD SVG 1.1//EN"
 "http://www.w3.org/Graphics/SVG/1.1/DTD/svg11.dtd">
<!-- Generated by graphviz version 8.1.0 (20230707.0739)
 -->
<!-- Title: B3DC::compute_g Pages: 1 -->
<svg width="346pt" height="70pt"
 viewBox="0.00 0.00 346.00 69.50" xmlns="http://www.w3.org/2000/svg" xmlns:xlink="http://www.w3.org/1999/xlink">
<g id="graph0" class="graph" transform="scale(1 1) rotate(0) translate(4 65.5)">
<title>B3DC::compute_g</title>
<!-- Node1 -->
<g id="Node000001" class="node">
<title>Node1</title>
<g id="a_Node000001"><a xlink:title=" ">
<polygon fill="#999999" stroke="#666666" points="338,-41.5 232,-41.5 232,-20 338,-20 338,-41.5"/>
<text text-anchor="middle" x="285" y="-27.05" font-family="Consolas" font-size="11.00">B3DC::compute_g</text>
</a>
</g>
</g>
<!-- Node2 -->
<g id="Node000002" class="node">
<title>Node2</title>
<g id="a_Node000002"><a xlink:href="../../df/dcf/class_b3_d_c.html#a133e0fd0d3dfd600b00c8106f7df0755" target="_top" xlink:title=" ">
<polygon fill="white" stroke="#666666" points="190,-61.5 6,-61.5 6,-40 190,-40 190,-61.5"/>
<text text-anchor="middle" x="98" y="-47.05" font-family="Consolas" font-size="11.00">B3DC::to_global_geometry_mat</text>
</a>
</g>
</g>
<!-- Node1&#45;&gt;Node2 -->
<g id="edge1_Node000001_Node000002" class="edge">
<title>Node1&#45;&gt;Node2</title>
<g id="a_edge1_Node000001_Node000002"><a xlink:title=" ">
<path fill="none" stroke="#63b8ff" d="M221.33,-37.53C211.3,-38.61 200.75,-39.75 190.23,-40.89"/>
<polygon fill="#63b8ff" stroke="#63b8ff" points="221.41,-40.93 230.97,-36.37 220.66,-33.97 221.41,-40.93"/>
</a>
</g>
</g>
<!-- Node3 -->
<g id="Node000003" class="node">
<title>Node3</title>
<g id="a_Node000003"><a xlink:href="../../da/dd7/class_b3_d_o_s_c.html#a4ff3917eb5b5e66be9453b2d07708949" target="_top" xlink:title=" ">
<polygon fill="white" stroke="#666666" points="196,-21.5 0,-21.5 0,0 196,0 196,-21.5"/>
<text text-anchor="middle" x="98" y="-7.05" font-family="Consolas" font-size="11.00">B3DOSC::to_global_geometry_mat</text>
</a>
</g>
</g>
<!-- Node1&#45;&gt;Node3 -->
<g id="edge2_Node000001_Node000003" class="edge">
<title>Node1&#45;&gt;Node3</title>
<g id="a_edge2_Node000001_Node000003"><a xlink:title=" ">
<path fill="none" stroke="#63b8ff" d="M221.19,-23.96C213.11,-23.09 204.69,-22.18 196.22,-21.26"/>
<polygon fill="#63b8ff" stroke="#63b8ff" points="220.66,-27.53 230.97,-25.13 221.41,-20.57 220.66,-27.53"/>
</a>
</g>
</g>
</g>
</svg>
