<?xml version="1.0" encoding="UTF-8" standalone="no"?>
<!DOCTYPE svg PUBLIC "-//W3C//DTD SVG 1.1//EN"
 "http://www.w3.org/Graphics/SVG/1.1/DTD/svg11.dtd">
<!-- Generated by graphviz version 2.43.0 (0)
 -->
<!-- Title: DataFlag Pages: 1 -->
<svg width="180pt" height="382pt"
 viewBox="0.00 0.00 180.00 382.00" xmlns="http://www.w3.org/2000/svg" xmlns:xlink="http://www.w3.org/1999/xlink">
<g id="graph0" class="graph" transform="scale(1 1) rotate(0) translate(4 378)">
<title>DataFlag</title>
<polygon fill="white" stroke="transparent" points="-4,4 -4,-378 176,-378 176,4 -4,4"/>
<!-- Node1 -->
<g id="node1" class="node">
<title>Node1</title>
<g id="a_node1"><a xlink:title=" ">
<polygon fill="#bfbfbf" stroke="black" points="13.5,-193.5 13.5,-373.5 158.5,-373.5 158.5,-193.5 13.5,-193.5"/>
<text text-anchor="middle" x="86" y="-360.7" font-family="Consolas" font-size="11.00">DataFlag</text>
<polyline fill="none" stroke="black" points="13.5,-353.5 158.5,-353.5 "/>
<text text-anchor="start" x="21.5" y="-340.7" font-family="Consolas" font-size="11.00">+ elastic_modulus</text>
<text text-anchor="start" x="21.5" y="-328.7" font-family="Consolas" font-size="11.00">+ t_hardening_ratio</text>
<text text-anchor="start" x="21.5" y="-316.7" font-family="Consolas" font-size="11.00">+ t_yield_stress</text>
<text text-anchor="start" x="21.5" y="-304.7" font-family="Consolas" font-size="11.00">+ t_residual_stress</text>
<text text-anchor="start" x="21.5" y="-292.7" font-family="Consolas" font-size="11.00">+ c_hardening_ratio</text>
<text text-anchor="start" x="21.5" y="-280.7" font-family="Consolas" font-size="11.00">+ c_yield_stress</text>
<text text-anchor="start" x="21.5" y="-268.7" font-family="Consolas" font-size="11.00">+ c_residual_stress</text>
<text text-anchor="start" x="21.5" y="-256.7" font-family="Consolas" font-size="11.00">+ t_yield_strain</text>
<text text-anchor="start" x="21.5" y="-244.7" font-family="Consolas" font-size="11.00">+ t_residual_strain</text>
<text text-anchor="start" x="21.5" y="-232.7" font-family="Consolas" font-size="11.00">+ c_yield_strain</text>
<text text-anchor="start" x="21.5" y="-220.7" font-family="Consolas" font-size="11.00">+ c_residual_strain</text>
<polyline fill="none" stroke="black" points="13.5,-213.5 158.5,-213.5 "/>
<text text-anchor="middle" x="86" y="-200.7" font-family="Consolas" font-size="11.00"> </text>
</a>
</g>
</g>
<!-- Node2 -->
<g id="node2" class="node">
<title>Node2</title>
<g id="a_node2"><a xlink:href="../../d6/d71/class_flag.html" target="_top" xlink:title="A Flag material class.">
<polygon fill="white" stroke="black" points="0,-0.5 0,-156.5 172,-156.5 172,-0.5 0,-0.5"/>
<text text-anchor="middle" x="86" y="-143.7" font-family="Consolas" font-size="11.00">Flag</text>
<polyline fill="none" stroke="black" points="0,-136.5 172,-136.5 "/>
<text text-anchor="middle" x="86" y="-123.7" font-family="Consolas" font-size="11.00"> </text>
<polyline fill="none" stroke="black" points="0,-116.5 172,-116.5 "/>
<text text-anchor="start" x="8" y="-103.7" font-family="Consolas" font-size="11.00">+ Flag()</text>
<text text-anchor="start" x="8" y="-91.7" font-family="Consolas" font-size="11.00">+ Flag()</text>
<text text-anchor="start" x="8" y="-79.7" font-family="Consolas" font-size="11.00">+ initialize()</text>
<text text-anchor="start" x="8" y="-67.7" font-family="Consolas" font-size="11.00">+ get_copy()</text>
<text text-anchor="start" x="8" y="-55.7" font-family="Consolas" font-size="11.00">+ update_trial_status()</text>
<text text-anchor="start" x="8" y="-43.7" font-family="Consolas" font-size="11.00">+ clear_status()</text>
<text text-anchor="start" x="8" y="-31.7" font-family="Consolas" font-size="11.00">+ commit_status()</text>
<text text-anchor="start" x="8" y="-19.7" font-family="Consolas" font-size="11.00">+ reset_status()</text>
<text text-anchor="start" x="8" y="-7.7" font-family="Consolas" font-size="11.00">+ print()</text>
</a>
</g>
</g>
<!-- Node1&#45;&gt;Node2 -->
<g id="edge1" class="edge">
<title>Node1&#45;&gt;Node2</title>
<path fill="none" stroke="darkgreen" d="M86,-183.37C86,-174.41 86,-165.43 86,-156.7"/>
<polygon fill="none" stroke="darkgreen" points="82.5,-183.46 86,-193.46 89.5,-183.46 82.5,-183.46"/>
</g>
</g>
</svg>
