<?xml version="1.0" encoding="UTF-8" standalone="no"?>
<!DOCTYPE svg PUBLIC "-//W3C//DTD SVG 1.1//EN"
 "http://www.w3.org/Graphics/SVG/1.1/DTD/svg11.dtd">
<!-- Generated by graphviz version 2.43.0 (0)
 -->
<!-- Title: DCP4::initialize Pages: 1 -->
<svg width="287pt" height="104pt"
 viewBox="0.00 0.00 287.00 104.00" xmlns="http://www.w3.org/2000/svg" xmlns:xlink="http://www.w3.org/1999/xlink">

<svg id="main" version="1.1" xmlns="http://www.w3.org/2000/svg" xmlns:xlink="http://www.w3.org/1999/xlink" xml:space="preserve" onload="init(evt)">
<style type="text/css"><![CDATA[
.node, .edge {opacity: 0.7;}
.node.selected, .edge.selected {opacity: 1;}
.edge:hover path { stroke: red; }
.edge:hover polygon { stroke: red; fill: red; }
]]></style>
<script type="application/ecmascript" xlink:href="../../svg.min.js"/>
<svg id="graph" class="graph">
<g id="graph0" class="graph" transform="scale(1 1) rotate(0) translate(4 100)">
<title>DCP4::initialize</title>
<!-- Node1 -->
<g id="Node000001" class="node">
<title>Node1</title>
<g id="a_Node000001"><a xlink:title=" ">
<polygon fill="#999999" stroke="#666666" points="125,-58 0,-58 0,-38 125,-38 125,-58"/>
<text text-anchor="middle" x="62.5" y="-45.2" font-family="Consolas" font-size="11.00">DCP4::initialize</text>
</a>
</g>
</g>
<!-- Node2 -->
<g id="Node000002" class="node">
<title>Node2</title>
<g id="a_Node000002"><a xlink:href="../../d6/d9c/namespacesuanpan.html#ae398e0f29e3e9755c219aa893996e6dc" target="_top" xlink:title=" ">
<polygon fill="white" stroke="#666666" points="279,-96 161,-96 161,-76 279,-76 279,-96"/>
<text text-anchor="middle" x="220" y="-83.2" font-family="Consolas" font-size="11.00">suanpan::hacker</text>
</a>
</g>
</g>
<!-- Node1&#45;&gt;Node2 -->
<g id="edge1_Node000001_Node000002" class="edge">
<title>Node1&#45;&gt;Node2</title>
<g id="a_edge1_Node000001_Node000002"><a xlink:title=" ">
<path fill="none" stroke="#63b8ff" d="M104.76,-58.08C124.17,-62.83 147.5,-68.53 168.01,-73.54"/>
<polygon fill="#63b8ff" stroke="#63b8ff" points="167.27,-76.96 177.81,-75.94 168.93,-70.16 167.27,-76.96"/>
</a>
</g>
</g>
<!-- Node3 -->
<g id="Node000003" class="node">
<title>Node3</title>
<g id="a_Node000003"><a xlink:href="../../d3/d55/namespaceshape.html#a112c54896df5d78b1f2d153167cf88e7" target="_top" xlink:title=" ">
<polygon fill="white" stroke="#666666" points="265.5,-58 174.5,-58 174.5,-38 265.5,-38 265.5,-58"/>
<text text-anchor="middle" x="220" y="-45.2" font-family="Consolas" font-size="11.00">shape::quad</text>
</a>
</g>
</g>
<!-- Node1&#45;&gt;Node3 -->
<g id="edge2_Node000001_Node000003" class="edge">
<title>Node1&#45;&gt;Node3</title>
<g id="a_edge2_Node000001_Node000003"><a xlink:title=" ">
<path fill="none" stroke="#63b8ff" d="M125.4,-48C138.11,-48 151.4,-48 163.85,-48"/>
<polygon fill="#63b8ff" stroke="#63b8ff" points="164.08,-51.5 174.08,-48 164.08,-44.5 164.08,-51.5"/>
</a>
</g>
</g>
<!-- Node4 -->
<g id="Node000004" class="node">
<title>Node4</title>
<g id="a_Node000004"><a xlink:href="../../df/d2d/namespacearea.html#a91add35214ca39be0311ad1d37f1c74e" target="_top" xlink:title=" ">
<polygon fill="white" stroke="#666666" points="275.5,-20 164.5,-20 164.5,0 275.5,0 275.5,-20"/>
<text text-anchor="middle" x="220" y="-7.2" font-family="Consolas" font-size="11.00">area::shoelace</text>
</a>
</g>
</g>
<!-- Node1&#45;&gt;Node4 -->
<g id="edge3_Node000001_Node000004" class="edge">
<title>Node1&#45;&gt;Node4</title>
<g id="a_edge3_Node000001_Node000004"><a xlink:title=" ">
<path fill="none" stroke="#63b8ff" d="M104.76,-37.92C124.17,-33.17 147.5,-27.47 168.01,-22.46"/>
<polygon fill="#63b8ff" stroke="#63b8ff" points="168.93,-25.84 177.81,-20.06 167.27,-19.04 168.93,-25.84"/>
</a>
</g>
</g>
</g>
</svg>
</svg>

<style type='text/css'>
<![CDATA[
[data-mouse-over-selected='false'] { opacity: 0.7; }
[data-mouse-over-selected='true']  { opacity: 1.0; }
]]>
</style>
<script type="application/ecmascript"><![CDATA[
document.addEventListener('DOMContentLoaded', (event) => {
  highlightEdges();
  highlightAdjacentNodes();
});
]]></script>
</svg>
