<?xml version="1.0" encoding="UTF-8" standalone="no"?>
<!DOCTYPE svg PUBLIC "-//W3C//DTD SVG 1.1//EN"
 "http://www.w3.org/Graphics/SVG/1.1/DTD/svg11.dtd">
<!-- Generated by graphviz version 8.1.0 (20230707.0739)
 -->
<!-- Title: Domain::enable_group Pages: 1 -->
<svg width="416pt" height="70pt"
 viewBox="0.00 0.00 416.00 69.50" xmlns="http://www.w3.org/2000/svg" xmlns:xlink="http://www.w3.org/1999/xlink">
<g id="graph0" class="graph" transform="scale(1 1) rotate(0) translate(4 65.5)">
<title>Domain::enable_group</title>
<!-- Node1 -->
<g id="Node000001" class="node">
<title>Node1</title>
<g id="a_Node000001"><a xlink:title=" ">
<polygon fill="#999999" stroke="#666666" points="136,-41.5 0,-41.5 0,-20 136,-20 136,-41.5"/>
<text text-anchor="middle" x="68" y="-27.05" font-family="Consolas" font-size="11.00">Domain::enable_group</text>
</a>
</g>
</g>
<!-- Node2 -->
<g id="Node000002" class="node">
<title>Node2</title>
<g id="a_Node000002"><a xlink:href="../../da/d56/class_storage.html#a0c3366c165ce282edb40ff7ec3d54838" target="_top" xlink:title=" ">
<polygon fill="white" stroke="#666666" points="278,-61.5 172,-61.5 172,-40 278,-40 278,-61.5"/>
<text text-anchor="middle" x="225" y="-47.05" font-family="Consolas" font-size="11.00">Storage::enable</text>
</a>
</g>
</g>
<!-- Node1&#45;&gt;Node2 -->
<g id="edge1_Node000001_Node000002" class="edge">
<title>Node1&#45;&gt;Node2</title>
<g id="a_edge1_Node000001_Node000002"><a xlink:title=" ">
<path fill="none" stroke="#63b8ff" d="M136.08,-39.41C144.39,-40.48 152.86,-41.57 161.1,-42.63"/>
<polygon fill="#63b8ff" stroke="#63b8ff" points="160.4,-46.2 170.77,-44.01 161.3,-39.26 160.4,-46.2"/>
</a>
</g>
</g>
<!-- Node4 -->
<g id="Node000004" class="node">
<title>Node4</title>
<g id="a_Node000004"><a xlink:href="../../d0/d57/class_tag.html#aeef9db4fab02b36358265f378e703986" target="_top" xlink:title=" ">
<polygon fill="white" stroke="#666666" points="275,-21.5 175,-21.5 175,0 275,0 275,-21.5"/>
<text text-anchor="middle" x="225" y="-7.05" font-family="Consolas" font-size="11.00">Tag::is_active</text>
</a>
</g>
</g>
<!-- Node1&#45;&gt;Node4 -->
<g id="edge3_Node000001_Node000004" class="edge">
<title>Node1&#45;&gt;Node4</title>
<g id="a_edge3_Node000001_Node000004"><a xlink:title=" ">
<path fill="none" stroke="#63b8ff" d="M136.08,-22.09C145.27,-20.91 154.66,-19.7 163.72,-18.53"/>
<polygon fill="#63b8ff" stroke="#63b8ff" points="164.1,-21.88 173.57,-17.13 163.21,-14.94 164.1,-21.88"/>
</a>
</g>
</g>
<!-- Node3 -->
<g id="Node000003" class="node">
<title>Node3</title>
<g id="a_Node000003"><a xlink:href="../../da/d56/class_storage.html#a0c06f55c3c192fa18e8e0d6465fa078d" target="_top" xlink:title=" ">
<polygon fill="white" stroke="#666666" points="408,-61.5 314,-61.5 314,-40 408,-40 408,-61.5"/>
<text text-anchor="middle" x="361" y="-47.05" font-family="Consolas" font-size="11.00">Storage::find</text>
</a>
</g>
</g>
<!-- Node2&#45;&gt;Node3 -->
<g id="edge2_Node000002_Node000003" class="edge">
<title>Node2&#45;&gt;Node3</title>
<g id="a_edge2_Node000002_Node000003"><a xlink:title=" ">
<path fill="none" stroke="#63b8ff" d="M278.19,-50.75C286.28,-50.75 294.66,-50.75 302.85,-50.75"/>
<polygon fill="#63b8ff" stroke="#63b8ff" points="302.84,-54.25 312.84,-50.75 302.84,-47.25 302.84,-54.25"/>
</a>
</g>
</g>
</g>
</svg>
