<?xml version="1.0" encoding="UTF-8" standalone="no"?>
<!DOCTYPE svg PUBLIC "-//W3C//DTD SVG 1.1//EN"
 "http://www.w3.org/Graphics/SVG/1.1/DTD/svg11.dtd">
<!-- Generated by graphviz version 2.43.0 (0)
 -->
<!-- Title: SingleSection2D Pages: 1 -->
<!--zoomable 1479 -->

<svg id="main" version="1.1" xmlns="http://www.w3.org/2000/svg" xmlns:xlink="http://www.w3.org/1999/xlink" xml:space="preserve" onload="init(evt)">
<style type="text/css"><![CDATA[
.node, .edge {opacity: 0.7;}
.node.selected, .edge.selected {opacity: 1;}
.edge:hover path { stroke: red; }
.edge:hover polygon { stroke: red; fill: red; }
]]></style>

<defs>
  <circle id="rim" cx="0" cy="0" r="7"/>
  <circle id="rim2" cx="0" cy="0" r="3.5"/>
  <g id="zoomPlus">
    <use xlink:href="#rim" fill="#404040"><set attributeName="fill" to="#808080" begin="zoomplus.mouseover" end="zoomplus.mouseout"/></use>
    <path d="M-4,0h8M0,-4v8" fill="none" stroke="white" stroke-width="1.5" pointer-events="none"/>
  </g>
  <g id="zoomMin">
    <use xlink:href="#rim" fill="#404040"><set attributeName="fill" to="#808080" begin="zoomminus.mouseover" end="zoomminus.mouseout"/></use>
    <path d="M-4,0h8" fill="none" stroke="white" stroke-width="1.5" pointer-events="none"/>
  </g>
  <g id="arrowUp" transform="translate(30 24)">
    <use xlink:href="#rim"/>
    <path pointer-events="none" fill="none" stroke="white" stroke-width="1.5" d="M0,-3.0v7 M-2.5,-0.5L0,-3.0L2.5,-0.5"/>
  </g>
  <g id="arrowRight" transform="rotate(90) translate(36 -43)">
    <use xlink:href="#rim"/>
    <path pointer-events="none" fill="none" stroke="white" stroke-width="1.5" d="M0,-3.0v7 M-2.5,-0.5L0,-3.0L2.5,-0.5"/>
  </g>
  <g id="arrowDown" transform="rotate(180) translate(-30 -48)">
    <use xlink:href="#rim"/>
    <path pointer-events="none" fill="none" stroke="white" stroke-width="1.5" d="M0,-3.0v7 M-2.5,-0.5L0,-3.0L2.5,-0.5"/>
  </g>
  <g id="arrowLeft" transform="rotate(270) translate(-36 17)">
    <use xlink:href="#rim"/>
    <path pointer-events="none" fill="none" stroke="white" stroke-width="1.5" d="M0,-3.0v7 M-2.5,-0.5L0,-3.0L2.5,-0.5"/>
  </g>
  <g id="resetDef">
    <use xlink:href="#rim2" fill="#404040"><set attributeName="fill" to="#808080" begin="reset.mouseover" end="reset.mouseout"/></use>
  </g>
</defs>
<script type="application/ecmascript">
var viewWidth = 1276;
var viewHeight = 1479;
var sectionId = 'dynsection-1';
</script>
<script type="application/ecmascript" xlink:href="../../svg.min.js"/>
<svg id="graph" class="graph">
<g id="viewport">
<title>SingleSection2D</title>
<!-- Node1 -->
<g id="Node000001" class="node">
<title>Node1</title>
<g id="a_Node000001"><a xlink:title="The SingleSection2D class.">
<polygon fill="#999999" stroke="transparent" points="1022.75,-148 888.75,-148 888.75,0 1022.75,0 1022.75,-148"/>
<text text-anchor="start" x="904.75" y="-135.2" font-family="Consolas" font-size="11.00">SingleSection2D</text>
<text text-anchor="start" x="952.25" y="-119.2" font-family="Consolas" font-size="11.00"> </text>
<text text-anchor="start" x="892.75" y="-103.2" font-family="Consolas" font-size="11.00">+</text>
<text text-anchor="start" x="903.75" y="-103.2" font-family="Consolas" font-size="11.00">SingleSection2D()</text>
<text text-anchor="start" x="892.75" y="-87.2" font-family="Consolas" font-size="11.00">+</text>
<text text-anchor="start" x="903.75" y="-87.2" font-family="Consolas" font-size="11.00">initialize()</text>
<text text-anchor="start" x="892.75" y="-71.2" font-family="Consolas" font-size="11.00">+</text>
<text text-anchor="start" x="903.75" y="-71.2" font-family="Consolas" font-size="11.00">update_status()</text>
<text text-anchor="start" x="892.75" y="-55.2" font-family="Consolas" font-size="11.00">+</text>
<text text-anchor="start" x="903.75" y="-55.2" font-family="Consolas" font-size="11.00">commit_status()</text>
<text text-anchor="start" x="892.75" y="-39.2" font-family="Consolas" font-size="11.00">+</text>
<text text-anchor="start" x="903.75" y="-39.2" font-family="Consolas" font-size="11.00">clear_status()</text>
<text text-anchor="start" x="892.75" y="-23.2" font-family="Consolas" font-size="11.00">+</text>
<text text-anchor="start" x="903.75" y="-23.2" font-family="Consolas" font-size="11.00">reset_status()</text>
<text text-anchor="start" x="892.75" y="-7.2" font-family="Consolas" font-size="11.00">+</text>
<text text-anchor="start" x="903.75" y="-7.2" font-family="Consolas" font-size="11.00">print()</text>
<polygon fill="#666666" stroke="#666666" points="888.75,-130 888.75,-130 1022.75,-130 1022.75,-130 888.75,-130"/>
<polygon fill="#666666" stroke="#666666" points="888.75,-114 888.75,-114 1022.75,-114 1022.75,-114 888.75,-114"/>
<polygon fill="none" stroke="#666666" points="888.75,0 888.75,-148 1022.75,-148 1022.75,0 888.75,0"/>
</a>
</g>
</g>
<!-- Node2 -->
<g id="Node000002" class="node">
<title>Node2</title>
<g id="a_Node000002"><a xlink:href="../../d9/d88/class_section_element2_d.html" target="_top" xlink:title=" ">
<polygon fill="white" stroke="transparent" points="1026.25,-237 885.25,-237 885.25,-185 1026.25,-185 1026.25,-237"/>
<text text-anchor="start" x="901.75" y="-224.2" font-family="Consolas" font-size="11.00">SectionElement2D</text>
<text text-anchor="start" x="952.75" y="-208.2" font-family="Consolas" font-size="11.00"> </text>
<text text-anchor="start" x="889.75" y="-192.2" font-family="Consolas" font-size="11.00">+</text>
<text text-anchor="start" x="900.75" y="-192.2" font-family="Consolas" font-size="11.00">SectionElement2D()</text>
<polygon fill="#666666" stroke="#666666" points="885.75,-219 885.75,-219 1026.75,-219 1026.75,-219 885.75,-219"/>
<polygon fill="#666666" stroke="#666666" points="885.75,-203 885.75,-203 1026.75,-203 1026.75,-203 885.75,-203"/>
<polygon fill="none" stroke="#666666" points="885.25,-185 885.25,-237 1026.25,-237 1026.25,-185 885.25,-185"/>
</a>
</g>
</g>
<!-- Node2&#45;&gt;Node1 -->
<g id="edge1_Node000001_Node000002" class="edge">
<title>Node2&#45;&gt;Node1</title>
<g id="a_edge1_Node000001_Node000002"><a xlink:title=" ">
<path fill="none" stroke="#63b8ff" d="M955.75,-174.92C955.75,-166.61 955.75,-157.45 955.75,-148.14"/>
<polygon fill="none" stroke="#63b8ff" points="952.25,-174.92 955.75,-184.92 959.25,-174.92 952.25,-174.92"/>
</a>
</g>
</g>
<!-- Node3 -->
<g id="Node000003" class="node">
<title>Node3</title>
<g id="a_Node000003"><a xlink:href="../../d4/d10/class_section_element.html" target="_top" xlink:title="The SectionElement class.">
<polygon fill="white" stroke="transparent" points="1019.75,-326 891.75,-326 891.75,-274 1019.75,-274 1019.75,-326"/>
<text text-anchor="start" x="908.25" y="-313.2" font-family="Consolas" font-size="11.00">SectionElement</text>
<text text-anchor="start" x="952.25" y="-297.2" font-family="Consolas" font-size="11.00"> </text>
<text text-anchor="start" x="895.75" y="-281.2" font-family="Consolas" font-size="11.00">+</text>
<text text-anchor="start" x="906.75" y="-281.2" font-family="Consolas" font-size="11.00">SectionElement()</text>
<polygon fill="#666666" stroke="#666666" points="891.75,-308 891.75,-308 1019.75,-308 1019.75,-308 891.75,-308"/>
<polygon fill="#666666" stroke="#666666" points="891.75,-292 891.75,-292 1019.75,-292 1019.75,-292 891.75,-292"/>
<polygon fill="none" stroke="#666666" points="891.75,-274 891.75,-326 1019.75,-326 1019.75,-274 891.75,-274"/>
</a>
</g>
</g>
<!-- Node3&#45;&gt;Node2 -->
<g id="edge2_Node000002_Node000003" class="edge">
<title>Node3&#45;&gt;Node2</title>
<g id="a_edge2_Node000002_Node000003"><a xlink:title=" ">
<path fill="none" stroke="#63b8ff" d="M955.75,-263.69C955.75,-254.78 955.75,-245.4 955.75,-237.11"/>
<polygon fill="none" stroke="#63b8ff" points="952.25,-263.84 955.75,-273.84 959.25,-263.84 952.25,-263.84"/>
</a>
</g>
</g>
<!-- Node4 -->
<g id="Node000004" class="node">
<title>Node4</title>
<g id="a_Node000004"><a xlink:href="../../d5/d50/class_element.html" target="_top" xlink:title="A Element class.">
<polygon fill="white" stroke="transparent" points="1063.25,-671 848.25,-671 848.25,-363 1063.25,-363 1063.25,-671"/>
<text text-anchor="start" x="932.25" y="-658.2" font-family="Consolas" font-size="11.00">Element</text>
<text text-anchor="start" x="952.75" y="-642.2" font-family="Consolas" font-size="11.00"> </text>
<text text-anchor="start" x="852.75" y="-626.2" font-family="Consolas" font-size="11.00">+</text>
<text text-anchor="start" x="863.75" y="-626.2" font-family="Consolas" font-size="11.00">Element()</text>
<text text-anchor="start" x="852.75" y="-610.2" font-family="Consolas" font-size="11.00">+</text>
<text text-anchor="start" x="863.75" y="-610.2" font-family="Consolas" font-size="11.00">Element()</text>
<text text-anchor="start" x="852.75" y="-594.2" font-family="Consolas" font-size="11.00">+</text>
<text text-anchor="start" x="863.75" y="-594.2" font-family="Consolas" font-size="11.00">Element()</text>
<text text-anchor="start" x="852.75" y="-578.2" font-family="Consolas" font-size="11.00">+</text>
<text text-anchor="start" x="863.75" y="-578.2" font-family="Consolas" font-size="11.00">Element()</text>
<text text-anchor="start" x="852.75" y="-562.2" font-family="Consolas" font-size="11.00">+</text>
<text text-anchor="start" x="863.75" y="-562.2" font-family="Consolas" font-size="11.00">Element()</text>
<text text-anchor="start" x="852.75" y="-546.2" font-family="Consolas" font-size="11.00">+</text>
<text text-anchor="start" x="863.75" y="-546.2" font-family="Consolas" font-size="11.00">Element()</text>
<text text-anchor="start" x="852.75" y="-530.2" font-family="Consolas" font-size="11.00">+</text>
<text text-anchor="start" x="863.75" y="-530.2" font-family="Consolas" font-size="11.00">Element()</text>
<text text-anchor="start" x="852.75" y="-514.2" font-family="Consolas" font-size="11.00">+</text>
<text text-anchor="start" x="863.75" y="-514.2" font-family="Consolas" font-size="11.00">operator=()</text>
<text text-anchor="start" x="852.75" y="-498.2" font-family="Consolas" font-size="11.00">+</text>
<text text-anchor="start" x="863.75" y="-498.2" font-family="Consolas" font-size="11.00">operator=()</text>
<text text-anchor="start" x="852.75" y="-482.2" font-family="Consolas" font-size="11.00">+</text>
<text text-anchor="start" x="863.75" y="-482.2" font-family="Consolas" font-size="11.00">~Element()</text>
<text text-anchor="start" x="863.75" y="-466.2" font-family="Consolas" font-size="11.00">and 81 more...</text>
<text text-anchor="start" x="852.75" y="-450.2" font-family="Consolas" font-size="11.00">#</text>
<text text-anchor="start" x="863.75" y="-450.2" font-family="Consolas" font-size="11.00">get_coordinate()</text>
<text text-anchor="start" x="852.75" y="-434.2" font-family="Consolas" font-size="11.00">#</text>
<text text-anchor="start" x="863.75" y="-434.2" font-family="Consolas" font-size="11.00">get_node_incre_resistance()</text>
<text text-anchor="start" x="852.75" y="-418.2" font-family="Consolas" font-size="11.00">#</text>
<text text-anchor="start" x="863.75" y="-418.2" font-family="Consolas" font-size="11.00">get_node_trial_resistance()</text>
<text text-anchor="start" x="852.75" y="-402.2" font-family="Consolas" font-size="11.00">#</text>
<text text-anchor="start" x="863.75" y="-402.2" font-family="Consolas" font-size="11.00">get_node_current_resistance()</text>
<text text-anchor="start" x="852.75" y="-386.2" font-family="Consolas" font-size="11.00">#</text>
<text text-anchor="start" x="863.75" y="-386.2" font-family="Consolas" font-size="11.00">get_material()</text>
<text text-anchor="start" x="852.75" y="-370.2" font-family="Consolas" font-size="11.00">#</text>
<text text-anchor="start" x="863.75" y="-370.2" font-family="Consolas" font-size="11.00">get_section()</text>
<polygon fill="#666666" stroke="#666666" points="848.75,-653 848.75,-653 1063.75,-653 1063.75,-653 848.75,-653"/>
<polygon fill="#666666" stroke="#666666" points="848.75,-637 848.75,-637 1063.75,-637 1063.75,-637 848.75,-637"/>
<polygon fill="none" stroke="#666666" points="848.25,-363 848.25,-671 1063.25,-671 1063.25,-363 848.25,-363"/>
</a>
</g>
</g>
<!-- Node4&#45;&gt;Node3 -->
<g id="edge3_Node000003_Node000004" class="edge">
<title>Node4&#45;&gt;Node3</title>
<g id="a_edge3_Node000003_Node000004"><a xlink:title=" ">
<path fill="none" stroke="#63b8ff" d="M955.75,-352.73C955.75,-342.83 955.75,-333.8 955.75,-326.16"/>
<polygon fill="none" stroke="#63b8ff" points="952.25,-352.9 955.75,-362.9 959.25,-352.9 952.25,-352.9"/>
</a>
</g>
</g>
<!-- Node5 -->
<g id="Node000005" class="node">
<title>Node5</title>
<g id="a_Node000005"><a xlink:href="../../d2/db9/struct_data_element.html" target="_top" xlink:title=" ">
<polygon fill="white" stroke="transparent" points="520.75,-971 372.75,-971 372.75,-775 520.75,-775 520.75,-971"/>
<text text-anchor="start" x="409.25" y="-958.2" font-family="Consolas" font-size="11.00">DataElement</text>
<text text-anchor="start" x="376.75" y="-942.2" font-family="Consolas" font-size="11.00">+</text>
<text text-anchor="start" x="387.75" y="-942.2" font-family="Consolas" font-size="11.00">initial_viscous</text>
<text text-anchor="start" x="376.75" y="-926.2" font-family="Consolas" font-size="11.00">+</text>
<text text-anchor="start" x="387.75" y="-926.2" font-family="Consolas" font-size="11.00">trial_mass</text>
<text text-anchor="start" x="376.75" y="-910.2" font-family="Consolas" font-size="11.00">+</text>
<text text-anchor="start" x="387.75" y="-910.2" font-family="Consolas" font-size="11.00">trial_viscous</text>
<text text-anchor="start" x="376.75" y="-894.2" font-family="Consolas" font-size="11.00">+</text>
<text text-anchor="start" x="387.75" y="-894.2" font-family="Consolas" font-size="11.00">trial_nonviscous</text>
<text text-anchor="start" x="376.75" y="-878.2" font-family="Consolas" font-size="11.00">+</text>
<text text-anchor="start" x="387.75" y="-878.2" font-family="Consolas" font-size="11.00">trial_stiffness</text>
<text text-anchor="start" x="376.75" y="-862.2" font-family="Consolas" font-size="11.00">+</text>
<text text-anchor="start" x="387.75" y="-862.2" font-family="Consolas" font-size="11.00">trial_geometry</text>
<text text-anchor="start" x="376.75" y="-846.2" font-family="Consolas" font-size="11.00">+</text>
<text text-anchor="start" x="387.75" y="-846.2" font-family="Consolas" font-size="11.00">trial_viscous_force</text>
<text text-anchor="start" x="376.75" y="-830.2" font-family="Consolas" font-size="11.00">+</text>
<text text-anchor="start" x="387.75" y="-830.2" font-family="Consolas" font-size="11.00">traction</text>
<text text-anchor="start" x="376.75" y="-814.2" font-family="Consolas" font-size="11.00">+</text>
<text text-anchor="start" x="387.75" y="-814.2" font-family="Consolas" font-size="11.00">stiffness_container</text>
<text text-anchor="start" x="376.75" y="-798.2" font-family="Consolas" font-size="11.00">+</text>
<text text-anchor="start" x="387.75" y="-798.2" font-family="Consolas" font-size="11.00">mass_container</text>
<text text-anchor="start" x="443.25" y="-782.2" font-family="Consolas" font-size="11.00"> </text>
<polygon fill="#666666" stroke="#666666" points="372.75,-953 372.75,-953 520.75,-953 520.75,-953 372.75,-953"/>
<polygon fill="#666666" stroke="#666666" points="372.75,-793 372.75,-793 385.75,-793 385.75,-793 372.75,-793"/>
<polygon fill="#666666" stroke="#666666" points="385.75,-793 385.75,-793 520.75,-793 520.75,-793 385.75,-793"/>
<polygon fill="none" stroke="#666666" points="372.75,-775 372.75,-971 520.75,-971 520.75,-775 372.75,-775"/>
</a>
</g>
</g>
<!-- Node5&#45;&gt;Node4 -->
<g id="edge4_Node000004_Node000005" class="edge">
<title>Node5&#45;&gt;Node4</title>
<g id="a_edge4_Node000004_Node000005"><a xlink:title=" ">
<path fill="none" stroke="darkgreen" d="M528.99,-814.8C615.67,-754.52 752.57,-659.31 847.86,-593.03"/>
<polygon fill="none" stroke="darkgreen" points="526.98,-811.94 520.76,-820.53 530.97,-817.69 526.98,-811.94"/>
</a>
</g>
</g>
<!-- Node6 -->
<g id="Node000006" class="node">
<title>Node6</title>
<g id="a_Node000006"><a xlink:title=" ">
<polygon fill="white" stroke="transparent" points="50.75,-1359 12.75,-1359 12.75,-1307 50.75,-1307 50.75,-1359"/>
<text text-anchor="start" x="17.75" y="-1346.2" font-family="Consolas" font-size="11.00">uvec</text>
<text text-anchor="start" x="28.25" y="-1330.2" font-family="Consolas" font-size="11.00"> </text>
<text text-anchor="start" x="28.25" y="-1314.2" font-family="Consolas" font-size="11.00"> </text>
<polygon fill="#666666" stroke="#666666" points="12.75,-1341 12.75,-1341 50.75,-1341 50.75,-1341 12.75,-1341"/>
<polygon fill="#666666" stroke="#666666" points="12.75,-1325 12.75,-1325 50.75,-1325 50.75,-1325 12.75,-1325"/>
<polygon fill="none" stroke="#666666" points="12.75,-1307 12.75,-1359 50.75,-1359 50.75,-1307 12.75,-1307"/>
</a>
</g>
</g>
<!-- Node6&#45;&gt;Node5 -->
<g id="edge5_Node000005_Node000006" class="edge">
<title>Node6&#45;&gt;Node5</title>
<g id="a_edge5_Node000005_Node000006"><a xlink:title=" ">
<path fill="none" stroke="#63b8ff" d="M23.17,-1306.7C6.73,-1253.19 -23,-1126.77 31.75,-1045 104.89,-935.75 261.87,-896.23 360.42,-881.98"/>
<polygon fill="none" stroke="#63b8ff" points="360.55,-881.96 365.95,-877.18 372.44,-880.33 367.04,-885.11 360.55,-881.96"/>
</a>
</g>
<text text-anchor="middle" x="79.25" y="-1126.2" font-family="Consolas" font-size="11.00" fill="grey"> +dof_encoding</text>
<text text-anchor="middle" x="79.25" y="-1114.2" font-family="Consolas" font-size="11.00" fill="grey">+material_tag</text>
<text text-anchor="middle" x="79.25" y="-1102.2" font-family="Consolas" font-size="11.00" fill="grey">+node_encoding</text>
<text text-anchor="middle" x="79.25" y="-1090.2" font-family="Consolas" font-size="11.00" fill="grey">+section_tag</text>
</g>
<!-- Node7 -->
<g id="Node000007" class="node">
<title>Node7</title>
<g id="a_Node000007"><a xlink:title=" ">
<polygon fill="white" stroke="transparent" points="168.75,-1359 130.75,-1359 130.75,-1307 168.75,-1307 168.75,-1359"/>
<text text-anchor="start" x="135.75" y="-1346.2" font-family="Consolas" font-size="11.00">bool</text>
<text text-anchor="start" x="146.25" y="-1330.2" font-family="Consolas" font-size="11.00"> </text>
<text text-anchor="start" x="146.25" y="-1314.2" font-family="Consolas" font-size="11.00"> </text>
<polygon fill="#666666" stroke="#666666" points="130.75,-1341 130.75,-1341 168.75,-1341 168.75,-1341 130.75,-1341"/>
<polygon fill="#666666" stroke="#666666" points="130.75,-1325 130.75,-1325 168.75,-1325 168.75,-1325 130.75,-1325"/>
<polygon fill="none" stroke="#666666" points="130.75,-1307 130.75,-1359 168.75,-1359 168.75,-1307 130.75,-1307"/>
</a>
</g>
</g>
<!-- Node7&#45;&gt;Node5 -->
<g id="edge6_Node000005_Node000007" class="edge">
<title>Node7&#45;&gt;Node5</title>
<g id="a_edge6_Node000005_Node000007"><a xlink:title=" ">
<path fill="none" stroke="#63b8ff" d="M143.49,-1306.75C131.88,-1253.87 112.48,-1129.43 162.75,-1045 206.38,-971.72 294.65,-925.98 361.27,-900.45"/>
<polygon fill="none" stroke="#63b8ff" points="361.36,-900.42 365.58,-894.58 372.6,-896.23 368.38,-902.07 361.36,-900.42"/>
</a>
</g>
<text text-anchor="middle" x="223.75" y="-1156.2" font-family="Consolas" font-size="11.00" fill="grey"> +modify_mass</text>
<text text-anchor="middle" x="223.75" y="-1144.2" font-family="Consolas" font-size="11.00" fill="grey">+modify_nonviscous</text>
<text text-anchor="middle" x="223.75" y="-1132.2" font-family="Consolas" font-size="11.00" fill="grey">+modify_viscous</text>
<text text-anchor="middle" x="223.75" y="-1120.2" font-family="Consolas" font-size="11.00" fill="grey">+nlgeom</text>
<text text-anchor="middle" x="223.75" y="-1108.2" font-family="Consolas" font-size="11.00" fill="grey">+update_geometry</text>
<text text-anchor="middle" x="223.75" y="-1096.2" font-family="Consolas" font-size="11.00" fill="grey">+update_mass</text>
<text text-anchor="middle" x="223.75" y="-1084.2" font-family="Consolas" font-size="11.00" fill="grey">+update_nonviscous</text>
<text text-anchor="middle" x="223.75" y="-1072.2" font-family="Consolas" font-size="11.00" fill="grey">+update_stiffness</text>
<text text-anchor="middle" x="223.75" y="-1060.2" font-family="Consolas" font-size="11.00" fill="grey">+update_viscous</text>
</g>
<!-- Node8 -->
<g id="Node000008" class="node">
<title>Node8</title>
<g id="a_Node000008"><a xlink:title=" ">
<polygon fill="white" stroke="transparent" points="310.25,-1359 279.25,-1359 279.25,-1307 310.25,-1307 310.25,-1359"/>
<text text-anchor="start" x="284.75" y="-1346.2" font-family="Consolas" font-size="11.00">mat</text>
<text text-anchor="start" x="291.75" y="-1330.2" font-family="Consolas" font-size="11.00"> </text>
<text text-anchor="start" x="291.75" y="-1314.2" font-family="Consolas" font-size="11.00"> </text>
<polygon fill="#666666" stroke="#666666" points="279.75,-1341 279.75,-1341 310.75,-1341 310.75,-1341 279.75,-1341"/>
<polygon fill="#666666" stroke="#666666" points="279.75,-1325 279.75,-1325 310.75,-1325 310.75,-1325 279.75,-1325"/>
<polygon fill="none" stroke="#666666" points="279.25,-1307 279.25,-1359 310.25,-1359 310.25,-1307 279.25,-1307"/>
</a>
</g>
</g>
<!-- Node8&#45;&gt;Node5 -->
<g id="edge7_Node000005_Node000008" class="edge">
<title>Node8&#45;&gt;Node5</title>
<g id="a_edge7_Node000005_Node000008"><a xlink:title=" ">
<path fill="none" stroke="#63b8ff" d="M291.62,-1306.78C286.26,-1255.5 279.03,-1136.24 313.75,-1045 325.43,-1014.3 344.63,-984.64 364.84,-958.89"/>
<polygon fill="none" stroke="#63b8ff" points="365.1,-958.57 365.75,-951.38 372.63,-949.22 371.98,-956.4 365.1,-958.57"/>
</a>
</g>
<text text-anchor="middle" x="378.25" y="-1168.2" font-family="Consolas" font-size="11.00" fill="grey"> +body_force</text>
<text text-anchor="middle" x="378.25" y="-1156.2" font-family="Consolas" font-size="11.00" fill="grey">+current_geometry</text>
<text text-anchor="middle" x="378.25" y="-1144.2" font-family="Consolas" font-size="11.00" fill="grey">+current_mass</text>
<text text-anchor="middle" x="378.25" y="-1132.2" font-family="Consolas" font-size="11.00" fill="grey">+current_nonviscous</text>
<text text-anchor="middle" x="378.25" y="-1120.2" font-family="Consolas" font-size="11.00" fill="grey">+current_stiffness</text>
<text text-anchor="middle" x="378.25" y="-1108.2" font-family="Consolas" font-size="11.00" fill="grey">+current_viscous</text>
<text text-anchor="middle" x="378.25" y="-1096.2" font-family="Consolas" font-size="11.00" fill="grey">+initial_geometry</text>
<text text-anchor="middle" x="378.25" y="-1084.2" font-family="Consolas" font-size="11.00" fill="grey">+initial_mass</text>
<text text-anchor="middle" x="378.25" y="-1072.2" font-family="Consolas" font-size="11.00" fill="grey">+initial_nonviscous</text>
<text text-anchor="middle" x="378.25" y="-1060.2" font-family="Consolas" font-size="11.00" fill="grey">+initial_stiffness</text>
<text text-anchor="middle" x="378.25" y="-1048.2" font-family="Consolas" font-size="11.00" fill="grey">...</text>
</g>
<!-- Node9 -->
<g id="Node000009" class="node">
<title>Node9</title>
<g id="a_Node000009"><a xlink:title=" ">
<polygon fill="white" stroke="transparent" points="462.25,-1359 431.25,-1359 431.25,-1307 462.25,-1307 462.25,-1359"/>
<text text-anchor="start" x="436.75" y="-1346.2" font-family="Consolas" font-size="11.00">vec</text>
<text text-anchor="start" x="443.75" y="-1330.2" font-family="Consolas" font-size="11.00"> </text>
<text text-anchor="start" x="443.75" y="-1314.2" font-family="Consolas" font-size="11.00"> </text>
<polygon fill="#666666" stroke="#666666" points="431.75,-1341 431.75,-1341 462.75,-1341 462.75,-1341 431.75,-1341"/>
<polygon fill="#666666" stroke="#666666" points="431.75,-1325 431.75,-1325 462.75,-1325 462.75,-1325 431.75,-1325"/>
<polygon fill="none" stroke="#666666" points="431.25,-1307 431.25,-1359 462.25,-1359 462.25,-1307 431.25,-1307"/>
</a>
</g>
</g>
<!-- Node9&#45;&gt;Node5 -->
<g id="edge8_Node000005_Node000009" class="edge">
<title>Node9&#45;&gt;Node5</title>
<g id="a_edge8_Node000005_Node000009"><a xlink:title=" ">
<path fill="none" stroke="#63b8ff" d="M446.75,-1306.72C446.75,-1246.32 446.75,-1090.67 446.75,-983.51"/>
<polygon fill="none" stroke="#63b8ff" points="446.75,-983.35 442.75,-977.35 446.75,-971.35 450.75,-977.35 446.75,-983.35"/>
</a>
</g>
<text text-anchor="middle" x="524.75" y="-1168.2" font-family="Consolas" font-size="11.00" fill="grey"> +current_body_force</text>
<text text-anchor="middle" x="524.75" y="-1156.2" font-family="Consolas" font-size="11.00" fill="grey">+current_inertial_force</text>
<text text-anchor="middle" x="524.75" y="-1144.2" font-family="Consolas" font-size="11.00" fill="grey">+current_resistance</text>
<text text-anchor="middle" x="524.75" y="-1132.2" font-family="Consolas" font-size="11.00" fill="grey">+current_traction</text>
<text text-anchor="middle" x="524.75" y="-1120.2" font-family="Consolas" font-size="11.00" fill="grey">+current_viscous_force</text>
<text text-anchor="middle" x="524.75" y="-1108.2" font-family="Consolas" font-size="11.00" fill="grey">+momentum</text>
<text text-anchor="middle" x="524.75" y="-1096.2" font-family="Consolas" font-size="11.00" fill="grey">+trial_body_force</text>
<text text-anchor="middle" x="524.75" y="-1084.2" font-family="Consolas" font-size="11.00" fill="grey">+trial_inertial_force</text>
<text text-anchor="middle" x="524.75" y="-1072.2" font-family="Consolas" font-size="11.00" fill="grey">+trial_resistance</text>
<text text-anchor="middle" x="524.75" y="-1060.2" font-family="Consolas" font-size="11.00" fill="grey">+trial_traction</text>
<text text-anchor="middle" x="524.75" y="-1048.2" font-family="Consolas" font-size="11.00" fill="grey">...</text>
</g>
<!-- Node10 -->
<g id="Node000010" class="node">
<title>Node10</title>
<g id="a_Node000010"><a xlink:title=" ">
<polygon fill="white" stroke="transparent" points="651.25,-1359 600.25,-1359 600.25,-1307 651.25,-1307 651.25,-1359"/>
<text text-anchor="start" x="605.75" y="-1346.2" font-family="Consolas" font-size="11.00">cx_mat</text>
<text text-anchor="start" x="622.75" y="-1330.2" font-family="Consolas" font-size="11.00"> </text>
<text text-anchor="start" x="622.75" y="-1314.2" font-family="Consolas" font-size="11.00"> </text>
<polygon fill="#666666" stroke="#666666" points="600.75,-1341 600.75,-1341 651.75,-1341 651.75,-1341 600.75,-1341"/>
<polygon fill="#666666" stroke="#666666" points="600.75,-1325 600.75,-1325 651.75,-1325 651.75,-1325 600.75,-1325"/>
<polygon fill="none" stroke="#666666" points="600.25,-1307 600.25,-1359 651.25,-1359 651.25,-1307 600.25,-1307"/>
</a>
</g>
</g>
<!-- Node10&#45;&gt;Node5 -->
<g id="edge9_Node000005_Node000010" class="edge">
<title>Node10&#45;&gt;Node5</title>
<g id="a_edge9_Node000005_Node000010"><a xlink:title=" ">
<path fill="none" stroke="#63b8ff" d="M625.91,-1306.62C625.96,-1245.49 624,-1091.64 603.75,-1045 587.1,-1006.64 558.15,-971.28 529.61,-942.8"/>
<polygon fill="none" stroke="#63b8ff" points="529.37,-942.56 522.28,-941.23 520.78,-934.18 527.87,-935.51 529.37,-942.56"/>
</a>
</g>
<text text-anchor="start" x="622.75" y="-1126.2" font-family="Consolas" font-size="11.00" fill="grey"> +current_nonviscous</text>
<text text-anchor="middle" x="690.75" y="-1114.2" font-family="Consolas" font-size="11.00" fill="grey">_force</text>
<text text-anchor="start" x="622.75" y="-1102.2" font-family="Consolas" font-size="11.00" fill="grey">+trial_nonviscous</text>
<text text-anchor="middle" x="690.75" y="-1090.2" font-family="Consolas" font-size="11.00" fill="grey">_force</text>
</g>
<!-- Node11 -->
<g id="Node000011" class="node">
<title>Node11</title>
<g id="a_Node000011"><a xlink:title=" ">
<polygon fill="white" stroke="transparent" points="810.25,-1359 759.25,-1359 759.25,-1307 810.25,-1307 810.25,-1359"/>
<text text-anchor="start" x="764.75" y="-1346.2" font-family="Consolas" font-size="11.00">double</text>
<text text-anchor="start" x="781.75" y="-1330.2" font-family="Consolas" font-size="11.00"> </text>
<text text-anchor="start" x="781.75" y="-1314.2" font-family="Consolas" font-size="11.00"> </text>
<polygon fill="#666666" stroke="#666666" points="759.75,-1341 759.75,-1341 810.75,-1341 810.75,-1341 759.75,-1341"/>
<polygon fill="#666666" stroke="#666666" points="759.75,-1325 759.75,-1325 810.75,-1325 810.75,-1325 759.75,-1325"/>
<polygon fill="none" stroke="#666666" points="759.25,-1307 759.25,-1359 810.25,-1359 810.25,-1307 759.25,-1307"/>
</a>
</g>
</g>
<!-- Node11&#45;&gt;Node5 -->
<g id="edge10_Node000005_Node000011" class="edge">
<title>Node11&#45;&gt;Node5</title>
<g id="a_edge10_Node000005_Node000011"><a xlink:title=" ">
<path fill="none" stroke="#63b8ff" d="M785.83,-1306.58C787.99,-1244.62 790.5,-1087.76 762.75,-1045 710.53,-964.54 607.03,-919.04 532.7,-895.53"/>
<polygon fill="none" stroke="#63b8ff" points="532.5,-895.47 525.59,-897.53 521.03,-891.95 527.94,-889.89 532.5,-895.47"/>
</a>
</g>
<text text-anchor="middle" x="863.75" y="-1138.2" font-family="Consolas" font-size="11.00" fill="grey"> +characteristic_length</text>
<text text-anchor="middle" x="863.75" y="-1126.2" font-family="Consolas" font-size="11.00" fill="grey">+complementary_energy</text>
<text text-anchor="middle" x="863.75" y="-1114.2" font-family="Consolas" font-size="11.00" fill="grey">+kinetic_energy</text>
<text text-anchor="middle" x="863.75" y="-1102.2" font-family="Consolas" font-size="11.00" fill="grey">+nonviscous_energy</text>
<text text-anchor="middle" x="863.75" y="-1090.2" font-family="Consolas" font-size="11.00" fill="grey">+strain_energy</text>
<text text-anchor="middle" x="863.75" y="-1078.2" font-family="Consolas" font-size="11.00" fill="grey">+viscous_energy</text>
</g>
<!-- Node12 -->
<g id="Node000012" class="node">
<title>Node12</title>
<g id="a_Node000012"><a xlink:href="../../d4/d6b/class_element_base.html" target="_top" xlink:title="A ElementBase class.">
<polygon fill="white" stroke="transparent" points="1063.25,-1027 848.25,-1027 848.25,-719 1063.25,-719 1063.25,-1027"/>
<text text-anchor="start" x="918.75" y="-1014.2" font-family="Consolas" font-size="11.00">ElementBase</text>
<text text-anchor="start" x="952.75" y="-998.2" font-family="Consolas" font-size="11.00"> </text>
<text text-anchor="start" x="852.75" y="-982.2" font-family="Consolas" font-size="11.00">+</text>
<text text-anchor="start" x="863.75" y="-982.2" font-family="Consolas" font-size="11.00">ElementBase()</text>
<text text-anchor="start" x="852.75" y="-966.2" font-family="Consolas" font-size="11.00">+</text>
<text text-anchor="start" x="863.75" y="-966.2" font-family="Consolas" font-size="11.00">ElementBase()</text>
<text text-anchor="start" x="852.75" y="-950.2" font-family="Consolas" font-size="11.00">+</text>
<text text-anchor="start" x="863.75" y="-950.2" font-family="Consolas" font-size="11.00">ElementBase()</text>
<text text-anchor="start" x="852.75" y="-934.2" font-family="Consolas" font-size="11.00">+</text>
<text text-anchor="start" x="863.75" y="-934.2" font-family="Consolas" font-size="11.00">operator=()</text>
<text text-anchor="start" x="852.75" y="-918.2" font-family="Consolas" font-size="11.00">+</text>
<text text-anchor="start" x="863.75" y="-918.2" font-family="Consolas" font-size="11.00">operator=()</text>
<text text-anchor="start" x="852.75" y="-902.2" font-family="Consolas" font-size="11.00">+</text>
<text text-anchor="start" x="863.75" y="-902.2" font-family="Consolas" font-size="11.00">~ElementBase()</text>
<text text-anchor="start" x="852.75" y="-886.2" font-family="Consolas" font-size="11.00">+</text>
<text text-anchor="start" x="863.75" y="-886.2" font-family="Consolas" font-size="11.00">initialize_base()</text>
<text text-anchor="start" x="852.75" y="-870.2" font-family="Consolas" font-size="11.00">+</text>
<text text-anchor="start" x="863.75" y="-870.2" font-family="Consolas" font-size="11.00">initialize()</text>
<text text-anchor="start" x="852.75" y="-854.2" font-family="Consolas" font-size="11.00">+</text>
<text text-anchor="start" x="863.75" y="-854.2" font-family="Consolas" font-size="11.00">set_initialized()</text>
<text text-anchor="start" x="852.75" y="-838.2" font-family="Consolas" font-size="11.00">+</text>
<text text-anchor="start" x="863.75" y="-838.2" font-family="Consolas" font-size="11.00">set_symmetric()</text>
<text text-anchor="start" x="863.75" y="-822.2" font-family="Consolas" font-size="11.00">and 79 more...</text>
<text text-anchor="start" x="852.75" y="-806.2" font-family="Consolas" font-size="11.00">#</text>
<text text-anchor="start" x="863.75" y="-806.2" font-family="Consolas" font-size="11.00">get_coordinate()</text>
<text text-anchor="start" x="852.75" y="-790.2" font-family="Consolas" font-size="11.00">#</text>
<text text-anchor="start" x="863.75" y="-790.2" font-family="Consolas" font-size="11.00">get_node_incre_resistance()</text>
<text text-anchor="start" x="852.75" y="-774.2" font-family="Consolas" font-size="11.00">#</text>
<text text-anchor="start" x="863.75" y="-774.2" font-family="Consolas" font-size="11.00">get_node_trial_resistance()</text>
<text text-anchor="start" x="852.75" y="-758.2" font-family="Consolas" font-size="11.00">#</text>
<text text-anchor="start" x="863.75" y="-758.2" font-family="Consolas" font-size="11.00">get_node_current_resistance()</text>
<text text-anchor="start" x="852.75" y="-742.2" font-family="Consolas" font-size="11.00">#</text>
<text text-anchor="start" x="863.75" y="-742.2" font-family="Consolas" font-size="11.00">get_material()</text>
<text text-anchor="start" x="852.75" y="-726.2" font-family="Consolas" font-size="11.00">#</text>
<text text-anchor="start" x="863.75" y="-726.2" font-family="Consolas" font-size="11.00">get_section()</text>
<polygon fill="#666666" stroke="#666666" points="848.75,-1009 848.75,-1009 1063.75,-1009 1063.75,-1009 848.75,-1009"/>
<polygon fill="#666666" stroke="#666666" points="848.75,-993 848.75,-993 1063.75,-993 1063.75,-993 848.75,-993"/>
<polygon fill="none" stroke="#666666" points="848.25,-719 848.25,-1027 1063.25,-1027 1063.25,-719 848.25,-719"/>
</a>
</g>
</g>
<!-- Node12&#45;&gt;Node4 -->
<g id="edge11_Node000004_Node000012" class="edge">
<title>Node12&#45;&gt;Node4</title>
<g id="a_edge11_Node000004_Node000012"><a xlink:title=" ">
<path fill="none" stroke="#63b8ff" d="M955.75,-708.77C955.75,-696.24 955.75,-683.62 955.75,-671.16"/>
<polygon fill="none" stroke="#63b8ff" points="952.25,-708.79 955.75,-718.79 959.25,-708.79 952.25,-708.79"/>
</a>
</g>
</g>
<!-- Node13 -->
<g id="Node000013" class="node">
<title>Node13</title>
<g id="a_Node000013"><a xlink:href="../../d0/d57/class_tag.html" target="_top" xlink:title="A base Tag class.">
<polygon fill="white" stroke="transparent" points="1006.25,-1471 905.25,-1471 905.25,-1195 1006.25,-1195 1006.25,-1471"/>
<text text-anchor="start" x="945.75" y="-1458.2" font-family="Consolas" font-size="11.00">Tag</text>
<text text-anchor="start" x="952.75" y="-1442.2" font-family="Consolas" font-size="11.00"> </text>
<text text-anchor="start" x="909.75" y="-1426.2" font-family="Consolas" font-size="11.00">+</text>
<text text-anchor="start" x="920.75" y="-1426.2" font-family="Consolas" font-size="11.00">Tag()</text>
<text text-anchor="start" x="909.75" y="-1410.2" font-family="Consolas" font-size="11.00">+</text>
<text text-anchor="start" x="920.75" y="-1410.2" font-family="Consolas" font-size="11.00">Tag()</text>
<text text-anchor="start" x="909.75" y="-1394.2" font-family="Consolas" font-size="11.00">+</text>
<text text-anchor="start" x="920.75" y="-1394.2" font-family="Consolas" font-size="11.00">Tag()</text>
<text text-anchor="start" x="909.75" y="-1378.2" font-family="Consolas" font-size="11.00">+</text>
<text text-anchor="start" x="920.75" y="-1378.2" font-family="Consolas" font-size="11.00">operator=()</text>
<text text-anchor="start" x="909.75" y="-1362.2" font-family="Consolas" font-size="11.00">+</text>
<text text-anchor="start" x="920.75" y="-1362.2" font-family="Consolas" font-size="11.00">operator=()</text>
<text text-anchor="start" x="909.75" y="-1346.2" font-family="Consolas" font-size="11.00">+</text>
<text text-anchor="start" x="920.75" y="-1346.2" font-family="Consolas" font-size="11.00">~Tag()</text>
<text text-anchor="start" x="909.75" y="-1330.2" font-family="Consolas" font-size="11.00">+</text>
<text text-anchor="start" x="920.75" y="-1330.2" font-family="Consolas" font-size="11.00">set_tag()</text>
<text text-anchor="start" x="909.75" y="-1314.2" font-family="Consolas" font-size="11.00">+</text>
<text text-anchor="start" x="920.75" y="-1314.2" font-family="Consolas" font-size="11.00">get_tag()</text>
<text text-anchor="start" x="909.75" y="-1298.2" font-family="Consolas" font-size="11.00">+</text>
<text text-anchor="start" x="920.75" y="-1298.2" font-family="Consolas" font-size="11.00">enable()</text>
<text text-anchor="start" x="909.75" y="-1282.2" font-family="Consolas" font-size="11.00">+</text>
<text text-anchor="start" x="920.75" y="-1282.2" font-family="Consolas" font-size="11.00">disable()</text>
<text text-anchor="start" x="909.75" y="-1266.2" font-family="Consolas" font-size="11.00">+</text>
<text text-anchor="start" x="920.75" y="-1266.2" font-family="Consolas" font-size="11.00">guard()</text>
<text text-anchor="start" x="909.75" y="-1250.2" font-family="Consolas" font-size="11.00">+</text>
<text text-anchor="start" x="920.75" y="-1250.2" font-family="Consolas" font-size="11.00">unguard()</text>
<text text-anchor="start" x="909.75" y="-1234.2" font-family="Consolas" font-size="11.00">+</text>
<text text-anchor="start" x="920.75" y="-1234.2" font-family="Consolas" font-size="11.00">is_active()</text>
<text text-anchor="start" x="909.75" y="-1218.2" font-family="Consolas" font-size="11.00">+</text>
<text text-anchor="start" x="920.75" y="-1218.2" font-family="Consolas" font-size="11.00">is_guarded()</text>
<text text-anchor="start" x="909.75" y="-1202.2" font-family="Consolas" font-size="11.00">+</text>
<text text-anchor="start" x="920.75" y="-1202.2" font-family="Consolas" font-size="11.00">print()</text>
<polygon fill="#666666" stroke="#666666" points="905.75,-1453 905.75,-1453 1006.75,-1453 1006.75,-1453 905.75,-1453"/>
<polygon fill="#666666" stroke="#666666" points="905.75,-1437 905.75,-1437 1006.75,-1437 1006.75,-1437 905.75,-1437"/>
<polygon fill="none" stroke="#666666" points="905.25,-1195 905.25,-1471 1006.25,-1471 1006.25,-1195 905.25,-1195"/>
</a>
</g>
</g>
<!-- Node13&#45;&gt;Node12 -->
<g id="edge12_Node000012_Node000013" class="edge">
<title>Node13&#45;&gt;Node12</title>
<g id="a_edge12_Node000012_Node000013"><a xlink:title=" ">
<path fill="none" stroke="#63b8ff" d="M955.75,-1184.58C955.75,-1134.26 955.75,-1077.89 955.75,-1027.13"/>
<polygon fill="none" stroke="#63b8ff" points="952.25,-1184.9 955.75,-1194.9 959.25,-1184.9 952.25,-1184.9"/>
</a>
</g>
</g>
<!-- Node14 -->
<g id="Node000014" class="node">
<title>Node14</title>
<g id="a_Node000014"><a xlink:href="../../db/ddc/classvtk_base.html" target="_top" xlink:title="The vtkBase class.">
<polygon fill="white" stroke="transparent" points="1082.75,-1359 1024.75,-1359 1024.75,-1307 1082.75,-1307 1082.75,-1359"/>
<text text-anchor="start" x="1029.75" y="-1346.2" font-family="Consolas" font-size="11.00">vtkBase</text>
<text text-anchor="start" x="1050.25" y="-1330.2" font-family="Consolas" font-size="11.00"> </text>
<text text-anchor="start" x="1050.25" y="-1314.2" font-family="Consolas" font-size="11.00"> </text>
<polygon fill="#666666" stroke="#666666" points="1024.75,-1341 1024.75,-1341 1082.75,-1341 1082.75,-1341 1024.75,-1341"/>
<polygon fill="#666666" stroke="#666666" points="1024.75,-1325 1024.75,-1325 1082.75,-1325 1082.75,-1325 1024.75,-1325"/>
<polygon fill="none" stroke="#666666" points="1024.75,-1307 1024.75,-1359 1082.75,-1359 1082.75,-1307 1024.75,-1307"/>
</a>
</g>
</g>
<!-- Node14&#45;&gt;Node12 -->
<g id="edge13_Node000012_Node000014" class="edge">
<title>Node14&#45;&gt;Node12</title>
<g id="a_edge13_Node000012_Node000014"><a xlink:title=" ">
<path fill="none" stroke="#63b8ff" d="M1046.21,-1296.75C1033.97,-1239.57 1009.09,-1123.29 988.52,-1027.14"/>
<polygon fill="none" stroke="#63b8ff" points="1042.83,-1297.68 1048.34,-1306.72 1049.67,-1296.21 1042.83,-1297.68"/>
</a>
</g>
</g>
<!-- Node15 -->
<g id="Node000015" class="node">
<title>Node15</title>
<g id="a_Node000015"><a xlink:title=" ">
<polygon fill="white" stroke="transparent" points="1267.75,-899 1081.75,-899 1081.75,-847 1267.75,-847 1267.75,-899"/>
<text text-anchor="start" x="1086.75" y="-886.2" font-family="Consolas" font-size="11.00">vector&lt; weak_ptr&lt; Node &gt; &gt;</text>
<text text-anchor="start" x="1171.25" y="-870.2" font-family="Consolas" font-size="11.00"> </text>
<text text-anchor="start" x="1171.25" y="-854.2" font-family="Consolas" font-size="11.00"> </text>
<polygon fill="#666666" stroke="#666666" points="1081.75,-881 1081.75,-881 1267.75,-881 1267.75,-881 1081.75,-881"/>
<polygon fill="#666666" stroke="#666666" points="1081.75,-865 1081.75,-865 1267.75,-865 1267.75,-865 1081.75,-865"/>
<polygon fill="none" stroke="#666666" points="1081.75,-847 1081.75,-899 1267.75,-899 1267.75,-847 1081.75,-847"/>
</a>
</g>
</g>
<!-- Node15&#45;&gt;Node4 -->
<g id="edge14_Node000004_Node000015" class="edge">
<title>Node15&#45;&gt;Node4</title>
<g id="a_edge14_Node000004_Node000015"><a xlink:title=" ">
<path fill="none" stroke="#63b8ff" d="M1159.18,-846.82C1137.52,-811.81 1096.49,-745.49 1056.92,-681.53"/>
<polygon fill="none" stroke="#63b8ff" points="1056.9,-681.5 1050.34,-678.5 1050.59,-671.29 1057.14,-674.29 1056.9,-681.5"/>
</a>
</g>
<text text-anchor="middle" x="1099.75" y="-692.2" font-family="Consolas" font-size="11.00" fill="grey"> #node_ptr</text>
</g>
</g>
</svg>

<g id="navigator" transform="translate(0 0)" fill="#404254">
  <rect fill="#f2f5e9" fill-opacity="0.5" stroke="#606060" stroke-width=".5" x="0" y="0" width="60" height="60"/>
  <use id="zoomplus" xlink:href="#zoomPlus" x="17" y="9" onmousedown="handleZoom(evt,'in')"/>
  <use id="zoomminus" xlink:href="#zoomMin" x="42" y="9" onmousedown="handleZoom(evt,'out')"/>
  <use id="reset" xlink:href="#resetDef" x="30" y="36" onmousedown="handleReset()"/>
   <use id="arrowup" xlink:href="#arrowUp" x="0" y="0" onmousedown="handlePan(0,-1)"/>
  <use id="arrowright" xlink:href="#arrowRight" x="0" y="0" onmousedown="handlePan(1,0)"/>
  <use id="arrowdown" xlink:href="#arrowDown" x="0" y="0" onmousedown="handlePan(0,1)"/>
  <use id="arrowleft" xlink:href="#arrowLeft" x="0" y="0" onmousedown="handlePan(-1,0)"/>
</g>
<svg viewBox="0 0 15 15" width="100%" height="30px" preserveAspectRatio="xMaxYMin meet">
 <g id="arrow_out" transform="scale(0.3 0.3)">
  <a xlink:href="class_single_section2_d__coll__graph_org.svg" target="_base">
   <rect id="button" ry="5" rx="5" y="6" x="6" height="38" width="38"
        fill="#f2f5e9" fill-opacity="0.5" stroke="#606060" stroke-width="1.0"/>
   <path id="arrow"
     d="M 11.500037,31.436501 C 11.940474,20.09759 22.043105,11.32322 32.158766,21.979434 L 37.068811,17.246167 C 37.068811,17.246167 37.088388,32 37.088388,32 L 22.160133,31.978069 C 22.160133,31.978069 26.997745,27.140456 26.997745,27.140456 C 18.528582,18.264221 13.291696,25.230495 11.500037,31.436501 z"
     style="fill:#404040;"/>
  </a>
 </g>
</svg>

<style type='text/css'>
<![CDATA[
[data-mouse-over-selected='false'] { opacity: 0.7; }
[data-mouse-over-selected='true']  { opacity: 1.0; }
]]>
</style>
<script type="application/ecmascript"><![CDATA[
document.addEventListener('DOMContentLoaded', (event) => {
  highlightEdges();
  highlightAdjacentNodes();
});
]]></script>
</svg>
