<?xml version="1.0" encoding="UTF-8" standalone="no"?>
<!DOCTYPE svg PUBLIC "-//W3C//DTD SVG 1.1//EN"
 "http://www.w3.org/Graphics/SVG/1.1/DTD/svg11.dtd">
<!-- Generated by graphviz version 2.43.0 (0)
 -->
<!-- Title: SparseMatLis::direct_solve Pages: 1 -->
<svg width="327pt" height="104pt"
 viewBox="0.00 0.00 327.00 104.00" xmlns="http://www.w3.org/2000/svg" xmlns:xlink="http://www.w3.org/1999/xlink">

<svg id="main" version="1.1" xmlns="http://www.w3.org/2000/svg" xmlns:xlink="http://www.w3.org/1999/xlink" xml:space="preserve" onload="init(evt)">
<style type="text/css"><![CDATA[
.node, .edge {opacity: 0.7;}
.node.selected, .edge.selected {opacity: 1;}
.edge:hover path { stroke: red; }
.edge:hover polygon { stroke: red; fill: red; }
]]></style>
<script type="application/ecmascript" xlink:href="../../svg.min.js"/>
<svg id="graph" class="graph">
<g id="graph0" class="graph" transform="scale(1 1) rotate(0) translate(4 100)">
<title>SparseMatLis::direct_solve</title>
<!-- Node1 -->
<g id="Node000001" class="node">
<title>Node1</title>
<g id="a_Node000001"><a xlink:title=" ">
<polygon fill="#999999" stroke="#666666" points="152,-64 0,-64 0,-32 152,-32 152,-64"/>
<text text-anchor="start" x="8" y="-51.2" font-family="Consolas" font-size="11.00">SparseMatLis::direct</text>
<text text-anchor="middle" x="76" y="-39.2" font-family="Consolas" font-size="11.00">_solve</text>
</a>
</g>
</g>
<!-- Node2 -->
<g id="Node000002" class="node">
<title>Node2</title>
<g id="a_Node000002"><a xlink:href="../../df/dad/classcsr__form.html#a6e92a449fa8fe648cd41d7cc02046a7f" target="_top" xlink:title=" ">
<polygon fill="white" stroke="#666666" points="319,-96 188,-96 188,-76 319,-76 319,-96"/>
<text text-anchor="middle" x="253.5" y="-83.2" font-family="Consolas" font-size="11.00">csr_form::col_mem</text>
</a>
</g>
</g>
<!-- Node1&#45;&gt;Node2 -->
<g id="edge1_Node000001_Node000002" class="edge">
<title>Node1&#45;&gt;Node2</title>
<g id="a_edge1_Node000001_Node000002"><a xlink:title=" ">
<path fill="none" stroke="#63b8ff" d="M150.92,-64.01C166.14,-67.3 181.93,-70.72 196.4,-73.85"/>
<polygon fill="#63b8ff" stroke="#63b8ff" points="195.67,-77.28 206.18,-75.97 197.15,-70.43 195.67,-77.28"/>
</a>
</g>
</g>
<!-- Node3 -->
<g id="Node000003" class="node">
<title>Node3</title>
<g id="a_Node000003"><a xlink:href="../../df/dad/classcsr__form.html#a1db545c551ae8fa9c9bac7d6c86f8d31" target="_top" xlink:title=" ">
<polygon fill="white" stroke="#666666" points="319,-58 188,-58 188,-38 319,-38 319,-58"/>
<text text-anchor="middle" x="253.5" y="-45.2" font-family="Consolas" font-size="11.00">csr_form::row_mem</text>
</a>
</g>
</g>
<!-- Node1&#45;&gt;Node3 -->
<g id="edge2_Node000001_Node000003" class="edge">
<title>Node1&#45;&gt;Node3</title>
<g id="a_edge2_Node000001_Node000003"><a xlink:title=" ">
<path fill="none" stroke="#63b8ff" d="M152.19,-48C160.66,-48 169.28,-48 177.74,-48"/>
<polygon fill="#63b8ff" stroke="#63b8ff" points="177.96,-51.5 187.96,-48 177.96,-44.5 177.96,-51.5"/>
</a>
</g>
</g>
<!-- Node4 -->
<g id="Node000004" class="node">
<title>Node4</title>
<g id="a_Node000004"><a xlink:href="../../df/dad/classcsr__form.html#a62e8ccef497cbddb084bbb09f59ac8d3" target="_top" xlink:title=" ">
<polygon fill="white" stroke="#666666" points="319,-20 188,-20 188,0 319,0 319,-20"/>
<text text-anchor="middle" x="253.5" y="-7.2" font-family="Consolas" font-size="11.00">csr_form::val_mem</text>
</a>
</g>
</g>
<!-- Node1&#45;&gt;Node4 -->
<g id="edge3_Node000001_Node000004" class="edge">
<title>Node1&#45;&gt;Node4</title>
<g id="a_edge3_Node000001_Node000004"><a xlink:title=" ">
<path fill="none" stroke="#63b8ff" d="M150.92,-31.99C166.14,-28.7 181.93,-25.28 196.4,-22.15"/>
<polygon fill="#63b8ff" stroke="#63b8ff" points="197.15,-25.57 206.18,-20.03 195.67,-18.72 197.15,-25.57"/>
</a>
</g>
</g>
</g>
</svg>
</svg>

<style type='text/css'>
<![CDATA[
[data-mouse-over-selected='false'] { opacity: 0.7; }
[data-mouse-over-selected='true']  { opacity: 1.0; }
]]>
</style>
<script type="application/ecmascript"><![CDATA[
document.addEventListener('DOMContentLoaded', (event) => {
  highlightEdges();
  highlightAdjacentNodes();
});
]]></script>
</svg>
