<?xml version="1.0" encoding="UTF-8" standalone="no"?>
<!DOCTYPE svg PUBLIC "-//W3C//DTD SVG 1.1//EN"
 "http://www.w3.org/Graphics/SVG/1.1/DTD/svg11.dtd">
<!-- Generated by graphviz version 8.1.0 (20230707.0739)
 -->
<!-- Title: suanpan::hacker Pages: 1 -->
<!--zoomable 976 -->

<svg id="main" version="1.1" xmlns="http://www.w3.org/2000/svg" xmlns:xlink="http://www.w3.org/1999/xlink" xml:space="preserve" onload="init(evt)">
<style type="text/css"><![CDATA[
.node, .edge {opacity: 0.7;}
.node.selected, .edge.selected {opacity: 1;}
.edge:hover path { stroke: red; }
.edge:hover polygon { stroke: red; fill: red; }
]]></style>

<defs>
  <circle id="rim" cx="0" cy="0" r="7"/>
  <circle id="rim2" cx="0" cy="0" r="3.5"/>
  <g id="zoomPlus">
    <use xlink:href="#rim" fill="#404040"><set attributeName="fill" to="#808080" begin="zoomplus.mouseover" end="zoomplus.mouseout"/></use>
    <path d="M-4,0h8M0,-4v8" fill="none" stroke="white" stroke-width="1.5" pointer-events="none"/>
  </g>
  <g id="zoomMin">
    <use xlink:href="#rim" fill="#404040"><set attributeName="fill" to="#808080" begin="zoomminus.mouseover" end="zoomminus.mouseout"/></use>
    <path d="M-4,0h8" fill="none" stroke="white" stroke-width="1.5" pointer-events="none"/>
  </g>
  <g id="arrowUp" transform="translate(30 24)">
    <use xlink:href="#rim"/>
    <path pointer-events="none" fill="none" stroke="white" stroke-width="1.5" d="M0,-3.0v7 M-2.5,-0.5L0,-3.0L2.5,-0.5"/>
  </g>
  <g id="arrowRight" transform="rotate(90) translate(36 -43)">
    <use xlink:href="#rim"/>
    <path pointer-events="none" fill="none" stroke="white" stroke-width="1.5" d="M0,-3.0v7 M-2.5,-0.5L0,-3.0L2.5,-0.5"/>
  </g>
  <g id="arrowDown" transform="rotate(180) translate(-30 -48)">
    <use xlink:href="#rim"/>
    <path pointer-events="none" fill="none" stroke="white" stroke-width="1.5" d="M0,-3.0v7 M-2.5,-0.5L0,-3.0L2.5,-0.5"/>
  </g>
  <g id="arrowLeft" transform="rotate(270) translate(-36 17)">
    <use xlink:href="#rim"/>
    <path pointer-events="none" fill="none" stroke="white" stroke-width="1.5" d="M0,-3.0v7 M-2.5,-0.5L0,-3.0L2.5,-0.5"/>
  </g>
  <g id="resetDef">
    <use xlink:href="#rim2" fill="#404040"><set attributeName="fill" to="#808080" begin="reset.mouseover" end="reset.mouseout"/></use>
  </g>
</defs>
<script type="application/ecmascript">
var viewWidth = 518;
var viewHeight = 976;
var sectionId = 'dynsection-8';
</script>
<script type="application/ecmascript" xlink:href="../../svg.min.js"/>
<svg id="graph" class="graph">
<g id="viewport">
<title>suanpan::hacker</title>
<!-- Node1 -->
<g id="Node000001" class="node">
<title>Node1</title>
<g id="a_Node000001"><a xlink:title=" ">
<polygon fill="#999999" stroke="#666666" points="510,-507.5 404,-507.5 404,-486 510,-486 510,-507.5"/>
<text text-anchor="middle" x="457" y="-493.05" font-family="Consolas" font-size="11.00">suanpan::hacker</text>
</a>
</g>
</g>
<!-- Node2 -->
<g id="Node000002" class="node">
<title>Node2</title>
<g id="a_Node000002"><a xlink:href="../../db/dcf/class_c_s_m_q.html#a01bbe8d93d4aa1f44192f9b8a95d12a8" target="_top" xlink:title=" ">
<polygon fill="white" stroke="#666666" points="353,-967.5 241,-967.5 241,-946 353,-946 353,-967.5"/>
<text text-anchor="middle" x="297" y="-953.05" font-family="Consolas" font-size="11.00">CSMQ::initialize</text>
</a>
</g>
</g>
<!-- Node1&#45;&gt;Node2 -->
<g id="edge1_Node000001_Node000002" class="edge">
<title>Node1&#45;&gt;Node2</title>
<g id="a_edge1_Node000001_Node000002"><a xlink:title=" ">
<path fill="none" stroke="#63b8ff" d="M454.59,-518.51C448.97,-598.41 425.64,-874.24 368,-936.75 363.89,-941.21 358.86,-944.7 353.39,-947.43"/>
<polygon fill="#63b8ff" stroke="#63b8ff" points="458.13,-519.02 455.31,-508.81 451.14,-518.55 458.13,-519.02"/>
</a>
</g>
</g>
<!-- Node3 -->
<g id="Node000003" class="node">
<title>Node3</title>
<g id="a_Node000003"><a xlink:href="../../d6/d4f/class_c_s_m_q4.html#aa7ee029cf17bb93ad26d9019f8962e92" target="_top" xlink:title=" ">
<polygon fill="white" stroke="#666666" points="356,-927.5 238,-927.5 238,-906 356,-906 356,-927.5"/>
<text text-anchor="middle" x="297" y="-913.05" font-family="Consolas" font-size="11.00">CSMQ4::initialize</text>
</a>
</g>
</g>
<!-- Node1&#45;&gt;Node3 -->
<g id="edge2_Node000001_Node000003" class="edge">
<title>Node1&#45;&gt;Node3</title>
<g id="a_edge2_Node000001_Node000003"><a xlink:title=" ">
<path fill="none" stroke="#63b8ff" d="M454.12,-518.46C447.19,-593.54 420.7,-840.69 368,-896.75 364.62,-900.34 360.65,-903.3 356.34,-905.74"/>
<polygon fill="#63b8ff" stroke="#63b8ff" points="457.66,-519.21 455.06,-508.94 450.68,-518.59 457.66,-519.21"/>
</a>
</g>
</g>
<!-- Node4 -->
<g id="Node000004" class="node">
<title>Node4</title>
<g id="a_Node000004"><a xlink:href="../../de/da1/class_c_s_m_q8.html#a9a2c1dfe453ca846ff2eb15765656329" target="_top" xlink:title=" ">
<polygon fill="white" stroke="#666666" points="356,-887.5 238,-887.5 238,-866 356,-866 356,-887.5"/>
<text text-anchor="middle" x="297" y="-873.05" font-family="Consolas" font-size="11.00">CSMQ8::initialize</text>
</a>
</g>
</g>
<!-- Node1&#45;&gt;Node4 -->
<g id="edge3_Node000001_Node000004" class="edge">
<title>Node1&#45;&gt;Node4</title>
<g id="a_edge3_Node000001_Node000004"><a xlink:title=" ">
<path fill="none" stroke="#63b8ff" d="M453.54,-518.52C445.19,-588.68 415.76,-807.11 368,-856.75 364.58,-860.3 360.58,-863.24 356.25,-865.66"/>
<polygon fill="#63b8ff" stroke="#63b8ff" points="457.1,-519.24 454.78,-508.9 450.14,-518.43 457.1,-519.24"/>
</a>
</g>
</g>
<!-- Node5 -->
<g id="Node000005" class="node">
<title>Node5</title>
<g id="a_Node000005"><a xlink:href="../../da/d59/class_c_s_m_t3.html#a33e0282e3a0e6593532821722a2e11cd" target="_top" xlink:title=" ">
<polygon fill="white" stroke="#666666" points="356,-847.5 238,-847.5 238,-826 356,-826 356,-847.5"/>
<text text-anchor="middle" x="297" y="-833.05" font-family="Consolas" font-size="11.00">CSMT3::initialize</text>
</a>
</g>
</g>
<!-- Node1&#45;&gt;Node5 -->
<g id="edge4_Node000001_Node000005" class="edge">
<title>Node1&#45;&gt;Node5</title>
<g id="a_edge4_Node000001_Node000005"><a xlink:title=" ">
<path fill="none" stroke="#63b8ff" d="M456.79,-518.68C457.62,-576.11 451.64,-732.27 368,-816.75 364.53,-820.25 360.5,-823.15 356.15,-825.55"/>
<polygon fill="#63b8ff" stroke="#63b8ff" points="460.28,-518.9 456.54,-508.98 453.28,-519.07 460.28,-518.9"/>
</a>
</g>
</g>
<!-- Node6 -->
<g id="Node000006" class="node">
<title>Node6</title>
<g id="a_Node000006"><a xlink:href="../../d0/d2a/class_c_s_m_t6.html#accdc1b8c62cf4917027de7016fb981bf" target="_top" xlink:title=" ">
<polygon fill="white" stroke="#666666" points="356,-807.5 238,-807.5 238,-786 356,-786 356,-807.5"/>
<text text-anchor="middle" x="297" y="-793.05" font-family="Consolas" font-size="11.00">CSMT6::initialize</text>
</a>
</g>
</g>
<!-- Node1&#45;&gt;Node6 -->
<g id="edge5_Node000001_Node000006" class="edge">
<title>Node1&#45;&gt;Node6</title>
<g id="a_edge5_Node000001_Node000006"><a xlink:title=" ">
<path fill="none" stroke="#63b8ff" d="M455.77,-518.7C453.98,-571.13 442,-704.66 368,-776.75 364.38,-780.28 360.18,-783.19 355.67,-785.6"/>
<polygon fill="#63b8ff" stroke="#63b8ff" points="459.29,-518.81 456.03,-508.73 452.29,-518.64 459.29,-518.81"/>
</a>
</g>
</g>
<!-- Node7 -->
<g id="Node000007" class="node">
<title>Node7</title>
<g id="a_Node000007"><a xlink:href="../../d1/db2/class_allman.html#a71d9dcd1227f84634414cc72d93c415c" target="_top" xlink:title=" ">
<polygon fill="white" stroke="#666666" points="359,-767.5 235,-767.5 235,-746 359,-746 359,-767.5"/>
<text text-anchor="middle" x="297" y="-753.05" font-family="Consolas" font-size="11.00">Allman::initialize</text>
</a>
</g>
</g>
<!-- Node1&#45;&gt;Node7 -->
<g id="edge6_Node000001_Node000007" class="edge">
<title>Node1&#45;&gt;Node7</title>
<g id="a_edge6_Node000001_Node000007"><a xlink:title=" ">
<path fill="none" stroke="#63b8ff" d="M454.42,-518.74C449.85,-565.8 432.44,-676.86 368,-736.75 364.2,-740.28 359.83,-743.19 355.16,-745.59"/>
<polygon fill="#63b8ff" stroke="#63b8ff" points="457.98,-519.24 455.35,-508.98 451.01,-518.64 457.98,-519.24"/>
</a>
</g>
</g>
<!-- Node8 -->
<g id="Node000008" class="node">
<title>Node8</title>
<g id="a_Node000008"><a xlink:href="../../d7/d86/class_g_c_m_q.html#aab80787d2dc84d19b9287ccf37091551" target="_top" xlink:title=" ">
<polygon fill="white" stroke="#666666" points="353,-727.5 241,-727.5 241,-706 353,-706 353,-727.5"/>
<text text-anchor="middle" x="297" y="-713.05" font-family="Consolas" font-size="11.00">GCMQ::initialize</text>
</a>
</g>
</g>
<!-- Node1&#45;&gt;Node8 -->
<g id="edge7_Node000001_Node000008" class="edge">
<title>Node1&#45;&gt;Node8</title>
<g id="a_edge7_Node000001_Node000008"><a xlink:title=" ">
<path fill="none" stroke="#63b8ff" d="M452.65,-518.41C445.16,-559.43 423.16,-648.63 368,-696.75 363.62,-700.57 358.55,-703.67 353.19,-706.17"/>
<polygon fill="#63b8ff" stroke="#63b8ff" points="456.24,-519.2 454.47,-508.76 449.34,-518.03 456.24,-519.2"/>
</a>
</g>
</g>
<!-- Node9 -->
<g id="Node000009" class="node">
<title>Node9</title>
<g id="a_Node000009"><a xlink:href="../../d4/da8/class_g_q12.html#a3bea5589428cffb9032dbef78e3ef5bc" target="_top" xlink:title=" ">
<polygon fill="white" stroke="#666666" points="353,-687.5 241,-687.5 241,-666 353,-666 353,-687.5"/>
<text text-anchor="middle" x="297" y="-673.05" font-family="Consolas" font-size="11.00">GQ12::initialize</text>
</a>
</g>
</g>
<!-- Node1&#45;&gt;Node9 -->
<g id="edge8_Node000001_Node000009" class="edge">
<title>Node1&#45;&gt;Node9</title>
<g id="a_edge8_Node000001_Node000009"><a xlink:title=" ">
<path fill="none" stroke="#63b8ff" d="M450.2,-517.86C439.66,-552.2 414.1,-619.99 368,-656.75 363.55,-660.3 358.51,-663.21 353.21,-665.61"/>
<polygon fill="#63b8ff" stroke="#63b8ff" points="453.75,-519.18 453.2,-508.59 447.03,-517.21 453.75,-519.18"/>
</a>
</g>
</g>
<!-- Node10 -->
<g id="Node000010" class="node">
<title>Node10</title>
<g id="a_Node000010"><a xlink:href="../../d2/daf/class_s_g_c_m_q.html#a1e825b476464981e70daf3aa2c1dedc7" target="_top" xlink:title=" ">
<polygon fill="white" stroke="#666666" points="356,-647.5 238,-647.5 238,-626 356,-626 356,-647.5"/>
<text text-anchor="middle" x="297" y="-633.05" font-family="Consolas" font-size="11.00">SGCMQ::initialize</text>
</a>
</g>
</g>
<!-- Node1&#45;&gt;Node10 -->
<g id="edge9_Node000001_Node000010" class="edge">
<title>Node1&#45;&gt;Node10</title>
<g id="a_edge9_Node000001_Node000010"><a xlink:title=" ">
<path fill="none" stroke="#63b8ff" d="M446.24,-517.52C432.54,-544.44 405.06,-590.95 368,-616.75 362.92,-620.29 357.22,-623.21 351.32,-625.61"/>
<polygon fill="#63b8ff" stroke="#63b8ff" points="449.68,-519.45 450.96,-508.94 443.4,-516.36 449.68,-519.45"/>
</a>
</g>
</g>
<!-- Node11 -->
<g id="Node000011" class="node">
<title>Node11</title>
<g id="a_Node000011"><a xlink:href="../../da/d39/class_c_i_n_p4.html#ae30474023849daf10ee4972c29c827fa" target="_top" xlink:title=" ">
<polygon fill="white" stroke="#666666" points="356,-607.5 238,-607.5 238,-586 356,-586 356,-607.5"/>
<text text-anchor="middle" x="297" y="-593.05" font-family="Consolas" font-size="11.00">CINP4::initialize</text>
</a>
</g>
</g>
<!-- Node1&#45;&gt;Node11 -->
<g id="edge10_Node000001_Node000011" class="edge">
<title>Node1&#45;&gt;Node11</title>
<g id="a_edge10_Node000001_Node000011"><a xlink:title=" ">
<path fill="none" stroke="#63b8ff" d="M439.75,-515.92C423.39,-534.08 396.52,-560.87 368,-576.75 361.82,-580.19 354.99,-583.09 348.09,-585.51"/>
<polygon fill="#63b8ff" stroke="#63b8ff" points="442.93,-518.61 446.91,-508.79 437.68,-513.99 442.93,-518.61"/>
</a>
</g>
</g>
<!-- Node12 -->
<g id="Node000012" class="node">
<title>Node12</title>
<g id="a_Node000012"><a xlink:href="../../db/d61/class_p_s.html#ad09698a2a4b7d97c88a4461a58b47de6" target="_top" xlink:title=" ">
<polygon fill="white" stroke="#666666" points="347,-567.5 247,-567.5 247,-546 347,-546 347,-567.5"/>
<text text-anchor="middle" x="297" y="-553.05" font-family="Consolas" font-size="11.00">PS::initialize</text>
</a>
</g>
</g>
<!-- Node1&#45;&gt;Node12 -->
<g id="edge11_Node000001_Node000012" class="edge">
<title>Node1&#45;&gt;Node12</title>
<g id="a_edge11_Node000001_Node000012"><a xlink:title=" ">
<path fill="none" stroke="#63b8ff" d="M424.26,-512.56C407.73,-520.43 387.04,-529.75 368,-536.75 359.34,-539.94 349.93,-542.93 340.9,-545.58"/>
<polygon fill="#63b8ff" stroke="#63b8ff" points="425.47,-515.37 432.96,-507.87 422.43,-509.07 425.47,-515.37"/>
</a>
</g>
</g>
<!-- Node13 -->
<g id="Node000013" class="node">
<title>Node13</title>
<g id="a_Node000013"><a xlink:href="../../dd/d4b/class_q_e2.html#acd38e378c2f6874358d0fd98167b2427" target="_top" xlink:title=" ">
<polygon fill="white" stroke="#666666" points="350,-527.5 244,-527.5 244,-506 350,-506 350,-527.5"/>
<text text-anchor="middle" x="297" y="-513.05" font-family="Consolas" font-size="11.00">QE2::initialize</text>
</a>
</g>
</g>
<!-- Node1&#45;&gt;Node13 -->
<g id="edge12_Node000001_Node000013" class="edge">
<title>Node1&#45;&gt;Node13</title>
<g id="a_edge12_Node000001_Node000013"><a xlink:title=" ">
<path fill="none" stroke="#63b8ff" d="M393.16,-504.7C378.98,-506.5 364.08,-508.39 350.39,-510.12"/>
<polygon fill="#63b8ff" stroke="#63b8ff" points="393.35,-508.08 402.83,-503.35 392.47,-501.14 393.35,-508.08"/>
</a>
</g>
</g>
<!-- Node14 -->
<g id="Node000014" class="node">
<title>Node14</title>
<g id="a_Node000014"><a xlink:href="../../d1/d82/class_d_c_p3.html#a0caad682475db261cc899ad23f67fd8a" target="_top" xlink:title=" ">
<polygon fill="white" stroke="#666666" points="353,-487.5 241,-487.5 241,-466 353,-466 353,-487.5"/>
<text text-anchor="middle" x="297" y="-473.05" font-family="Consolas" font-size="11.00">DCP3::initialize</text>
</a>
</g>
</g>
<!-- Node1&#45;&gt;Node14 -->
<g id="edge13_Node000001_Node000014" class="edge">
<title>Node1&#45;&gt;Node14</title>
<g id="a_edge13_Node000001_Node000014"><a xlink:title=" ">
<path fill="none" stroke="#63b8ff" d="M393,-488.78C379.9,-487.12 366.18,-485.38 353.38,-483.76"/>
<polygon fill="#63b8ff" stroke="#63b8ff" points="392.47,-492.36 402.83,-490.15 393.35,-485.42 392.47,-492.36"/>
</a>
</g>
</g>
<!-- Node15 -->
<g id="Node000015" class="node">
<title>Node15</title>
<g id="a_Node000015"><a xlink:href="../../dd/d4f/class_d_c_p4.html#aa4add06ee36660e706e7c3f7dfb78fe5" target="_top" xlink:title=" ">
<polygon fill="white" stroke="#666666" points="353,-447.5 241,-447.5 241,-426 353,-426 353,-447.5"/>
<text text-anchor="middle" x="297" y="-433.05" font-family="Consolas" font-size="11.00">DCP4::initialize</text>
</a>
</g>
</g>
<!-- Node1&#45;&gt;Node15 -->
<g id="edge14_Node000001_Node000015" class="edge">
<title>Node1&#45;&gt;Node15</title>
<g id="a_edge14_Node000001_Node000015"><a xlink:title=" ">
<path fill="none" stroke="#63b8ff" d="M424.26,-480.94C407.73,-473.07 387.04,-463.75 368,-456.75 359.34,-453.56 349.93,-450.57 340.9,-447.92"/>
<polygon fill="#63b8ff" stroke="#63b8ff" points="422.43,-484.43 432.96,-485.63 425.47,-478.13 422.43,-484.43"/>
</a>
</g>
</g>
<!-- Node16 -->
<g id="Node000016" class="node">
<title>Node16</title>
<g id="a_Node000016"><a xlink:href="../../dd/d49/class_c_p3.html#a8829b105ae57ff024a2ba1904cdd80a7" target="_top" xlink:title=" ">
<polygon fill="white" stroke="#666666" points="350,-407.5 244,-407.5 244,-386 350,-386 350,-407.5"/>
<text text-anchor="middle" x="297" y="-393.05" font-family="Consolas" font-size="11.00">CP3::initialize</text>
</a>
</g>
</g>
<!-- Node1&#45;&gt;Node16 -->
<g id="edge15_Node000001_Node000016" class="edge">
<title>Node1&#45;&gt;Node16</title>
<g id="a_edge15_Node000001_Node000016"><a xlink:title=" ">
<path fill="none" stroke="#63b8ff" d="M439.75,-477.58C423.39,-459.42 396.52,-432.63 368,-416.75 361.82,-413.31 354.99,-410.41 348.09,-407.99"/>
<polygon fill="#63b8ff" stroke="#63b8ff" points="437.68,-479.51 446.91,-484.71 442.93,-474.89 437.68,-479.51"/>
</a>
</g>
</g>
<!-- Node17 -->
<g id="Node000017" class="node">
<title>Node17</title>
<g id="a_Node000017"><a xlink:href="../../d8/d8f/class_c_p4.html#a7cf0d4b18217dcfc035c7026ce250859" target="_top" xlink:title=" ">
<polygon fill="white" stroke="#666666" points="350,-367.5 244,-367.5 244,-346 350,-346 350,-367.5"/>
<text text-anchor="middle" x="297" y="-353.05" font-family="Consolas" font-size="11.00">CP4::initialize</text>
</a>
</g>
</g>
<!-- Node1&#45;&gt;Node17 -->
<g id="edge16_Node000001_Node000017" class="edge">
<title>Node1&#45;&gt;Node17</title>
<g id="a_edge16_Node000001_Node000017"><a xlink:title=" ">
<path fill="none" stroke="#63b8ff" d="M446.24,-475.98C432.54,-449.06 405.06,-402.55 368,-376.75 362.61,-372.99 356.52,-369.94 350.23,-367.46"/>
<polygon fill="#63b8ff" stroke="#63b8ff" points="443.4,-477.14 450.96,-484.56 449.68,-474.05 443.4,-477.14"/>
</a>
</g>
</g>
<!-- Node18 -->
<g id="Node000018" class="node">
<title>Node18</title>
<g id="a_Node000018"><a xlink:href="../../d8/d42/class_c_p4_i.html#a490527fbc9d99b4066c855a6a6fec49a" target="_top" xlink:title=" ">
<polygon fill="white" stroke="#666666" points="353,-327.5 241,-327.5 241,-306 353,-306 353,-327.5"/>
<text text-anchor="middle" x="297" y="-313.05" font-family="Consolas" font-size="11.00">CP4I::initialize</text>
</a>
</g>
</g>
<!-- Node1&#45;&gt;Node18 -->
<g id="edge17_Node000001_Node000018" class="edge">
<title>Node1&#45;&gt;Node18</title>
<g id="a_edge17_Node000001_Node000018"><a xlink:title=" ">
<path fill="none" stroke="#63b8ff" d="M450.2,-475.64C439.66,-441.3 414.1,-373.51 368,-336.75 363.55,-333.2 358.51,-330.29 353.21,-327.89"/>
<polygon fill="#63b8ff" stroke="#63b8ff" points="447.03,-476.29 453.2,-484.91 453.75,-474.32 447.03,-476.29"/>
</a>
</g>
</g>
<!-- Node19 -->
<g id="Node000019" class="node">
<title>Node19</title>
<g id="a_Node000019"><a xlink:href="../../dd/df3/class_c_p5.html#aa92337c9252e86b461673c9eda72a99a" target="_top" xlink:title=" ">
<polygon fill="white" stroke="#666666" points="350,-287.5 244,-287.5 244,-266 350,-266 350,-287.5"/>
<text text-anchor="middle" x="297" y="-273.05" font-family="Consolas" font-size="11.00">CP5::initialize</text>
</a>
</g>
</g>
<!-- Node1&#45;&gt;Node19 -->
<g id="edge18_Node000001_Node000019" class="edge">
<title>Node1&#45;&gt;Node19</title>
<g id="a_edge18_Node000001_Node000019"><a xlink:title=" ">
<path fill="none" stroke="#63b8ff" d="M452.65,-475.09C445.16,-434.07 423.16,-344.87 368,-296.75 362.86,-292.26 356.77,-288.78 350.36,-286.08"/>
<polygon fill="#63b8ff" stroke="#63b8ff" points="449.34,-475.47 454.47,-484.74 456.24,-474.3 449.34,-475.47"/>
</a>
</g>
</g>
<!-- Node20 -->
<g id="Node000020" class="node">
<title>Node20</title>
<g id="a_Node000020"><a xlink:href="../../d2/db0/class_c_p6.html#a0c1c003010cd5d16b479be9c3b1c524c" target="_top" xlink:title=" ">
<polygon fill="white" stroke="#666666" points="350,-247.5 244,-247.5 244,-226 350,-226 350,-247.5"/>
<text text-anchor="middle" x="297" y="-233.05" font-family="Consolas" font-size="11.00">CP6::initialize</text>
</a>
</g>
</g>
<!-- Node1&#45;&gt;Node20 -->
<g id="edge19_Node000001_Node000020" class="edge">
<title>Node1&#45;&gt;Node20</title>
<g id="a_edge19_Node000001_Node000020"><a xlink:title=" ">
<path fill="none" stroke="#63b8ff" d="M454.42,-474.76C449.85,-427.7 432.44,-316.64 368,-256.75 362.91,-252.02 356.77,-248.4 350.28,-245.62"/>
<polygon fill="#63b8ff" stroke="#63b8ff" points="451.01,-474.86 455.35,-484.52 457.98,-474.26 451.01,-474.86"/>
</a>
</g>
</g>
<!-- Node21 -->
<g id="Node000021" class="node">
<title>Node21</title>
<g id="a_Node000021"><a xlink:href="../../d6/dc6/class_c_p7.html#ae195244847867788240ea8b4bff09f89" target="_top" xlink:title=" ">
<polygon fill="white" stroke="#666666" points="350,-207.5 244,-207.5 244,-186 350,-186 350,-207.5"/>
<text text-anchor="middle" x="297" y="-193.05" font-family="Consolas" font-size="11.00">CP7::initialize</text>
</a>
</g>
</g>
<!-- Node1&#45;&gt;Node21 -->
<g id="edge20_Node000001_Node000021" class="edge">
<title>Node1&#45;&gt;Node21</title>
<g id="a_edge20_Node000001_Node000021"><a xlink:title=" ">
<path fill="none" stroke="#63b8ff" d="M455.77,-474.8C453.98,-422.37 442,-288.84 368,-216.75 363.02,-211.9 356.95,-208.21 350.49,-205.41"/>
<polygon fill="#63b8ff" stroke="#63b8ff" points="452.29,-474.86 456.03,-484.77 459.29,-474.69 452.29,-474.86"/>
</a>
</g>
</g>
<!-- Node22 -->
<g id="Node000022" class="node">
<title>Node22</title>
<g id="a_Node000022"><a xlink:href="../../d0/de0/class_c_p8.html#ae1e1911b971ed2a5d9fcb4d3e556d004" target="_top" xlink:title=" ">
<polygon fill="white" stroke="#666666" points="350,-167.5 244,-167.5 244,-146 350,-146 350,-167.5"/>
<text text-anchor="middle" x="297" y="-153.05" font-family="Consolas" font-size="11.00">CP8::initialize</text>
</a>
</g>
</g>
<!-- Node1&#45;&gt;Node22 -->
<g id="edge21_Node000001_Node000022" class="edge">
<title>Node1&#45;&gt;Node22</title>
<g id="a_edge21_Node000001_Node000022"><a xlink:title=" ">
<path fill="none" stroke="#63b8ff" d="M456.79,-474.82C457.62,-417.39 451.64,-261.23 368,-176.75 363.02,-171.72 356.87,-167.93 350.3,-165.09"/>
<polygon fill="#63b8ff" stroke="#63b8ff" points="453.28,-474.43 456.54,-484.52 460.28,-474.6 453.28,-474.43"/>
</a>
</g>
</g>
<!-- Node23 -->
<g id="Node000023" class="node">
<title>Node23</title>
<g id="a_Node000023"><a xlink:href="../../da/d6e/class_patch_quad.html#a428caccd29b82675c6e4c8fc684e5eaf" target="_top" xlink:title=" ">
<polygon fill="white" stroke="#666666" points="368,-127.5 226,-127.5 226,-106 368,-106 368,-127.5"/>
<text text-anchor="middle" x="297" y="-113.05" font-family="Consolas" font-size="11.00">PatchQuad::initialize</text>
</a>
</g>
</g>
<!-- Node1&#45;&gt;Node23 -->
<g id="edge22_Node000001_Node000023" class="edge">
<title>Node1&#45;&gt;Node23</title>
<g id="a_edge22_Node000001_Node000023"><a xlink:title=" ">
<path fill="none" stroke="#63b8ff" d="M453.54,-474.98C445.19,-404.82 415.76,-186.39 368,-136.75 364.58,-133.2 360.58,-130.26 356.25,-127.84"/>
<polygon fill="#63b8ff" stroke="#63b8ff" points="450.14,-475.07 454.78,-484.6 457.1,-474.26 450.14,-475.07"/>
</a>
</g>
</g>
<!-- Node24 -->
<g id="Node000024" class="node">
<title>Node24</title>
<g id="a_Node000024"><a xlink:href="../../d0/d57/class_tag.html#a6628ef91f974eeb97423fd06e95e65f0" target="_top" xlink:title=" ">
<polygon fill="white" stroke="#666666" points="341,-87.5 253,-87.5 253,-66 341,-66 341,-87.5"/>
<text text-anchor="middle" x="297" y="-73.05" font-family="Consolas" font-size="11.00">Tag::set_tag</text>
</a>
</g>
</g>
<!-- Node1&#45;&gt;Node24 -->
<g id="edge23_Node000001_Node000024" class="edge">
<title>Node1&#45;&gt;Node24</title>
<g id="a_edge23_Node000001_Node000024"><a xlink:title=" ">
<path fill="none" stroke="#63b8ff" d="M454.12,-475.04C447.19,-399.96 420.7,-152.81 368,-96.75 360.9,-89.2 351.17,-84.43 341.22,-81.44"/>
<polygon fill="#63b8ff" stroke="#63b8ff" points="450.68,-474.91 455.06,-484.56 457.66,-474.29 450.68,-474.91"/>
</a>
</g>
</g>
<!-- Node25 -->
<g id="Node000025" class="node">
<title>Node25</title>
<g id="a_Node000025"><a xlink:href="../../df/dcf/class_b3_d_c.html#a3fca039a18c08b905762bc999c73442f" target="_top" xlink:title=" ">
<polygon fill="white" stroke="#666666" points="362,-48.25 232,-48.25 232,-13.25 362,-13.25 362,-48.25"/>
<text text-anchor="start" x="240" y="-33.8" font-family="Consolas" font-size="11.00">B3DC::update_direct</text>
<text text-anchor="middle" x="297" y="-20.3" font-family="Consolas" font-size="11.00">_cosine</text>
</a>
</g>
</g>
<!-- Node1&#45;&gt;Node25 -->
<g id="edge24_Node000001_Node000025" class="edge">
<title>Node1&#45;&gt;Node25</title>
<g id="a_edge24_Node000001_Node000025"><a xlink:title=" ">
<path fill="none" stroke="#63b8ff" d="M454.43,-475.14C448.24,-395.74 423.18,-121.44 368,-56.75 365.39,-53.69 362.39,-50.99 359.12,-48.61"/>
<polygon fill="#63b8ff" stroke="#63b8ff" points="450.99,-475.06 455.23,-484.77 457.97,-474.53 450.99,-475.06"/>
</a>
</g>
</g>
<!-- Node26 -->
<g id="Node000026" class="node">
<title>Node26</title>
<g id="a_Node000026"><a xlink:href="../../df/dcf/class_b3_d_c.html#ab4a8fbbb86ba6538b1ca61d3f499c19e" target="_top" xlink:title=" ">
<polygon fill="white" stroke="#666666" points="184,-61.5 6,-61.5 6,-40 184,-40 184,-61.5"/>
<text text-anchor="middle" x="95" y="-47.05" font-family="Consolas" font-size="11.00">B3DC::update_transformation</text>
</a>
</g>
</g>
<!-- Node25&#45;&gt;Node26 -->
<g id="edge25_Node000025_Node000026" class="edge">
<title>Node25&#45;&gt;Node26</title>
<g id="a_edge25_Node000025_Node000026"><a xlink:title=" ">
<path fill="none" stroke="#63b8ff" d="M220.84,-38.27C208.92,-39.46 196.5,-40.7 184.31,-41.92"/>
<polygon fill="#63b8ff" stroke="#63b8ff" points="221.02,-41.67 230.62,-37.19 220.32,-34.7 221.02,-41.67"/>
</a>
</g>
</g>
<!-- Node27 -->
<g id="Node000027" class="node">
<title>Node27</title>
<g id="a_Node000027"><a xlink:href="../../da/dd7/class_b3_d_o_s_c.html#ac11e8a63b245fab0ca66cae5d59e72af" target="_top" xlink:title=" ">
<polygon fill="white" stroke="#666666" points="190,-21.5 0,-21.5 0,0 190,0 190,-21.5"/>
<text text-anchor="middle" x="95" y="-7.05" font-family="Consolas" font-size="11.00">B3DOSC::update_transformation</text>
</a>
</g>
</g>
<!-- Node25&#45;&gt;Node27 -->
<g id="edge26_Node000025_Node000027" class="edge">
<title>Node25&#45;&gt;Node27</title>
<g id="a_edge26_Node000025_Node000027"><a xlink:title=" ">
<path fill="none" stroke="#63b8ff" d="M220.97,-23.25C211.02,-22.25 200.71,-21.22 190.48,-20.2"/>
<polygon fill="#63b8ff" stroke="#63b8ff" points="220.32,-26.8 230.62,-24.31 221.02,-19.83 220.32,-26.8"/>
</a>
</g>
</g>
</g>
</svg>

<g id="navigator" transform="translate(0 0)" fill="#404254">
  <rect fill="#f2f5e9" fill-opacity="0.5" stroke="#606060" stroke-width=".5" x="0" y="0" width="60" height="60"/>
  <use id="zoomplus" xlink:href="#zoomPlus" x="17" y="9" onmousedown="handleZoom(evt,'in')"/>
  <use id="zoomminus" xlink:href="#zoomMin" x="42" y="9" onmousedown="handleZoom(evt,'out')"/>
  <use id="reset" xlink:href="#resetDef" x="30" y="36" onmousedown="handleReset()"/>
   <use id="arrowup" xlink:href="#arrowUp" x="0" y="0" onmousedown="handlePan(0,-1)"/>
  <use id="arrowright" xlink:href="#arrowRight" x="0" y="0" onmousedown="handlePan(1,0)"/>
  <use id="arrowdown" xlink:href="#arrowDown" x="0" y="0" onmousedown="handlePan(0,1)"/>
  <use id="arrowleft" xlink:href="#arrowLeft" x="0" y="0" onmousedown="handlePan(-1,0)"/>
</g>
<svg viewBox="0 0 15 15" width="100%" height="30px" preserveAspectRatio="xMaxYMin meet">
 <g id="arrow_out" transform="scale(0.3 0.3)">
  <a xlink:href="namespacesuanpan_ae398e0f29e3e9755c219aa893996e6dc_icgraph_org.svg" target="_base">
   <rect id="button" ry="5" rx="5" y="6" x="6" height="38" width="38"
        fill="#f2f5e9" fill-opacity="0.5" stroke="#606060" stroke-width="1.0"/>
   <path id="arrow"
     d="M 11.500037,31.436501 C 11.940474,20.09759 22.043105,11.32322 32.158766,21.979434 L 37.068811,17.246167 C 37.068811,17.246167 37.088388,32 37.088388,32 L 22.160133,31.978069 C 22.160133,31.978069 26.997745,27.140456 26.997745,27.140456 C 18.528582,18.264221 13.291696,25.230495 11.500037,31.436501 z"
     style="fill:#404040;"/>
  </a>
 </g>
</svg>

<style type='text/css'>
<![CDATA[
[data-mouse-over-selected='false'] { opacity: 0.7; }
[data-mouse-over-selected='true']  { opacity: 1.0; }
]]>
</style>
<script type="application/ecmascript"><![CDATA[
document.addEventListener('DOMContentLoaded', (event) => {
  highlightEdges();
  highlightAdjacentNodes();
});
]]></script>
</svg>
