<?xml version="1.0" encoding="UTF-8" standalone="no"?>
<!DOCTYPE svg PUBLIC "-//W3C//DTD SVG 1.1//EN"
 "http://www.w3.org/Graphics/SVG/1.1/DTD/svg11.dtd">
<!-- Generated by graphviz version 2.43.0 (0)
 -->
<!-- Title: SectionShell Pages: 1 -->
<svg width="606pt" height="925pt"
 viewBox="0.00 0.00 606.00 925.00" xmlns="http://www.w3.org/2000/svg" xmlns:xlink="http://www.w3.org/1999/xlink">
<g id="graph0" class="graph" transform="scale(1 1) rotate(0) translate(4 921)">
<title>SectionShell</title>
<!-- Node1 -->
<g id="Node000001" class="node">
<title>Node1</title>
<g id="a_Node000001"><a xlink:title="A SectionShell class.">
<polygon fill="#999999" stroke="transparent" points="398,-236 257,-236 257,0 398,0 398,-236"/>
<text text-anchor="start" x="287" y="-223.2" font-family="Consolas" font-size="11.00">SectionShell</text>
<text text-anchor="start" x="324.5" y="-207.2" font-family="Consolas" font-size="11.00"> </text>
<text text-anchor="start" x="261.5" y="-191.2" font-family="Consolas" font-size="11.00">+</text>
<text text-anchor="start" x="272.5" y="-191.2" font-family="Consolas" font-size="11.00">SectionShell()</text>
<text text-anchor="start" x="261.5" y="-175.2" font-family="Consolas" font-size="11.00">+</text>
<text text-anchor="start" x="272.5" y="-175.2" font-family="Consolas" font-size="11.00">initialize()</text>
<text text-anchor="start" x="261.5" y="-159.2" font-family="Consolas" font-size="11.00">+</text>
<text text-anchor="start" x="272.5" y="-159.2" font-family="Consolas" font-size="11.00">set_initialized()</text>
<text text-anchor="start" x="261.5" y="-143.2" font-family="Consolas" font-size="11.00">+</text>
<text text-anchor="start" x="272.5" y="-143.2" font-family="Consolas" font-size="11.00">set_symmetric()</text>
<text text-anchor="start" x="261.5" y="-127.2" font-family="Consolas" font-size="11.00">+</text>
<text text-anchor="start" x="272.5" y="-127.2" font-family="Consolas" font-size="11.00">is_initialized()</text>
<text text-anchor="start" x="261.5" y="-111.2" font-family="Consolas" font-size="11.00">+</text>
<text text-anchor="start" x="272.5" y="-111.2" font-family="Consolas" font-size="11.00">is_symmetric()</text>
<text text-anchor="start" x="261.5" y="-95.2" font-family="Consolas" font-size="11.00">+</text>
<text text-anchor="start" x="272.5" y="-95.2" font-family="Consolas" font-size="11.00">set_eccentricity()</text>
<text text-anchor="start" x="261.5" y="-79.2" font-family="Consolas" font-size="11.00">+</text>
<text text-anchor="start" x="272.5" y="-79.2" font-family="Consolas" font-size="11.00">get_eccentricity()</text>
<text text-anchor="start" x="261.5" y="-63.2" font-family="Consolas" font-size="11.00">+</text>
<text text-anchor="start" x="272.5" y="-63.2" font-family="Consolas" font-size="11.00">get_trial_membrane</text>
<text text-anchor="start" x="272.5" y="-51.2" font-family="Consolas" font-size="11.00">_strain()</text>
<text text-anchor="start" x="261.5" y="-35.2" font-family="Consolas" font-size="11.00">+</text>
<text text-anchor="start" x="272.5" y="-35.2" font-family="Consolas" font-size="11.00">get_trial_membrane</text>
<text text-anchor="start" x="272.5" y="-23.2" font-family="Consolas" font-size="11.00">_strain_rate()</text>
<text text-anchor="start" x="272.5" y="-7.2" font-family="Consolas" font-size="11.00">and 29 more...</text>
<polygon fill="#666666" stroke="#666666" points="257.5,-218 257.5,-218 398.5,-218 398.5,-218 257.5,-218"/>
<polygon fill="#666666" stroke="#666666" points="257.5,-202 257.5,-202 398.5,-202 398.5,-202 257.5,-202"/>
<polygon fill="none" stroke="#666666" points="257,0 257,-236 398,-236 398,0 257,0"/>
</a>
</g>
</g>
<!-- Node2 -->
<g id="Node000002" class="node">
<title>Node2</title>
<g id="a_Node000002"><a xlink:href="../../d6/d2d/struct_section_shell_data.html" target="_top" xlink:title=" ">
<polygon fill="white" stroke="transparent" points="334,-397 159,-397 159,-313 334,-313 334,-397"/>
<text text-anchor="start" x="192.5" y="-384.2" font-family="Consolas" font-size="11.00">SectionShellData</text>
<text text-anchor="start" x="163.5" y="-368.2" font-family="Consolas" font-size="11.00">+</text>
<text text-anchor="start" x="174.5" y="-368.2" font-family="Consolas" font-size="11.00">trial_plate_strain</text>
<text text-anchor="start" x="163.5" y="-352.2" font-family="Consolas" font-size="11.00">+</text>
<text text-anchor="start" x="174.5" y="-352.2" font-family="Consolas" font-size="11.00">trial_plate_strain_rate</text>
<text text-anchor="start" x="163.5" y="-336.2" font-family="Consolas" font-size="11.00">+</text>
<text text-anchor="start" x="174.5" y="-336.2" font-family="Consolas" font-size="11.00">trial_plate_stress</text>
<text text-anchor="start" x="243.5" y="-320.2" font-family="Consolas" font-size="11.00"> </text>
<polygon fill="#666666" stroke="#666666" points="159.5,-379 159.5,-379 334.5,-379 334.5,-379 159.5,-379"/>
<polygon fill="#666666" stroke="#666666" points="159.5,-331 159.5,-331 172.5,-331 172.5,-331 159.5,-331"/>
<polygon fill="#666666" stroke="#666666" points="172.5,-331 172.5,-331 334.5,-331 334.5,-331 172.5,-331"/>
<polygon fill="none" stroke="#666666" points="159,-313 159,-397 334,-397 334,-313 159,-313"/>
</a>
</g>
</g>
<!-- Node2&#45;&gt;Node1 -->
<g id="edge1_Node000001_Node000002" class="edge">
<title>Node2&#45;&gt;Node1</title>
<g id="a_edge1_Node000001_Node000002"><a xlink:title=" ">
<path fill="none" stroke="darkgreen" d="M264.04,-303.11C270.86,-283.31 278.98,-259.76 287.1,-236.22"/>
<polygon fill="none" stroke="darkgreen" points="260.65,-302.2 260.7,-312.8 267.27,-304.48 260.65,-302.2"/>
</a>
</g>
</g>
<!-- Node3 -->
<g id="Node000003" class="node">
<title>Node3</title>
<g id="a_Node000003"><a xlink:title=" ">
<polygon fill="white" stroke="transparent" points="65,-805 0,-805 0,-753 65,-753 65,-805"/>
<text text-anchor="start" x="5.5" y="-792.2" font-family="Consolas" font-size="11.00">unsigned</text>
<text text-anchor="start" x="29.5" y="-776.2" font-family="Consolas" font-size="11.00"> </text>
<text text-anchor="start" x="29.5" y="-760.2" font-family="Consolas" font-size="11.00"> </text>
<polygon fill="#666666" stroke="#666666" points="0.5,-787 0.5,-787 65.5,-787 65.5,-787 0.5,-787"/>
<polygon fill="#666666" stroke="#666666" points="0.5,-771 0.5,-771 65.5,-771 65.5,-771 0.5,-771"/>
<polygon fill="none" stroke="#666666" points="0,-753 0,-805 65,-805 65,-753 0,-753"/>
</a>
</g>
</g>
<!-- Node3&#45;&gt;Node2 -->
<g id="edge2_Node000002_Node000003" class="edge">
<title>Node3&#45;&gt;Node2</title>
<g id="a_edge2_Node000002_Node000003"><a xlink:title=" ">
<path fill="none" stroke="#63b8ff" d="M24.97,-752.79C9.27,-694.81 -20.7,-549.69 40.5,-455 64.66,-417.61 107.21,-393.98 147.39,-379.23"/>
<polygon fill="none" stroke="#63b8ff" points="147.59,-379.16 151.94,-373.41 158.92,-375.21 154.57,-380.96 147.59,-379.16"/>
</a>
</g>
<text text-anchor="middle" x="88" y="-536.2" font-family="Consolas" font-size="11.00" fill="grey"> +material_tag</text>
</g>
<!-- Node4 -->
<g id="Node000004" class="node">
<title>Node4</title>
<g id="a_Node000004"><a xlink:title=" ">
<polygon fill="white" stroke="transparent" points="166,-805 135,-805 135,-753 166,-753 166,-805"/>
<text text-anchor="start" x="140.5" y="-792.2" font-family="Consolas" font-size="11.00">vec</text>
<text text-anchor="start" x="147.5" y="-776.2" font-family="Consolas" font-size="11.00"> </text>
<text text-anchor="start" x="147.5" y="-760.2" font-family="Consolas" font-size="11.00"> </text>
<polygon fill="#666666" stroke="#666666" points="135.5,-787 135.5,-787 166.5,-787 166.5,-787 135.5,-787"/>
<polygon fill="#666666" stroke="#666666" points="135.5,-771 135.5,-771 166.5,-771 166.5,-771 135.5,-771"/>
<polygon fill="none" stroke="#666666" points="135,-753 135,-805 166,-805 166,-753 135,-753"/>
</a>
</g>
</g>
<!-- Node4&#45;&gt;Node2 -->
<g id="edge3_Node000002_Node000004" class="edge">
<title>Node4&#45;&gt;Node2</title>
<g id="a_edge3_Node000002_Node000004"><a xlink:title=" ">
<path fill="none" stroke="#63b8ff" d="M148.21,-752.94C142.52,-686.79 129.76,-508.81 151.5,-455 158.85,-436.8 171.31,-420.06 184.83,-405.73"/>
<polygon fill="none" stroke="#63b8ff" points="184.91,-405.65 186.29,-398.57 193.35,-397.12 191.97,-404.2 184.91,-405.65"/>
</a>
</g>
<text text-anchor="middle" x="236" y="-614.2" font-family="Consolas" font-size="11.00" fill="grey"> +current_membrane_strain</text>
<text text-anchor="start" x="151.5" y="-602.2" font-family="Consolas" font-size="11.00" fill="grey">+current_membrane_strain</text>
<text text-anchor="middle" x="236" y="-590.2" font-family="Consolas" font-size="11.00" fill="grey">_rate</text>
<text text-anchor="middle" x="236" y="-578.2" font-family="Consolas" font-size="11.00" fill="grey">+current_membrane_stress</text>
<text text-anchor="middle" x="236" y="-566.2" font-family="Consolas" font-size="11.00" fill="grey">+current_plate_strain</text>
<text text-anchor="start" x="151.5" y="-554.2" font-family="Consolas" font-size="11.00" fill="grey">+current_plate_strain</text>
<text text-anchor="middle" x="236" y="-542.2" font-family="Consolas" font-size="11.00" fill="grey">_rate</text>
<text text-anchor="middle" x="236" y="-530.2" font-family="Consolas" font-size="11.00" fill="grey">+current_plate_stress</text>
<text text-anchor="middle" x="236" y="-518.2" font-family="Consolas" font-size="11.00" fill="grey">+eccentricity</text>
<text text-anchor="middle" x="236" y="-506.2" font-family="Consolas" font-size="11.00" fill="grey">+trial_membrane_strain</text>
<text text-anchor="start" x="151.5" y="-494.2" font-family="Consolas" font-size="11.00" fill="grey">+trial_membrane_strain</text>
<text text-anchor="middle" x="236" y="-482.2" font-family="Consolas" font-size="11.00" fill="grey">_rate</text>
<text text-anchor="middle" x="236" y="-470.2" font-family="Consolas" font-size="11.00" fill="grey">+trial_membrane_stress</text>
<text text-anchor="middle" x="236" y="-458.2" font-family="Consolas" font-size="11.00" fill="grey">...</text>
</g>
<!-- Node5 -->
<g id="Node000005" class="node">
<title>Node5</title>
<g id="a_Node000005"><a xlink:title=" ">
<polygon fill="white" stroke="transparent" points="358,-805 327,-805 327,-753 358,-753 358,-805"/>
<text text-anchor="start" x="332.5" y="-792.2" font-family="Consolas" font-size="11.00">mat</text>
<text text-anchor="start" x="339.5" y="-776.2" font-family="Consolas" font-size="11.00"> </text>
<text text-anchor="start" x="339.5" y="-760.2" font-family="Consolas" font-size="11.00"> </text>
<polygon fill="#666666" stroke="#666666" points="327.5,-787 327.5,-787 358.5,-787 358.5,-787 327.5,-787"/>
<polygon fill="#666666" stroke="#666666" points="327.5,-771 327.5,-771 358.5,-771 358.5,-771 327.5,-771"/>
<polygon fill="none" stroke="#666666" points="327,-753 327,-805 358,-805 358,-753 327,-753"/>
</a>
</g>
</g>
<!-- Node5&#45;&gt;Node2 -->
<g id="edge4_Node000002_Node000005" class="edge">
<title>Node5&#45;&gt;Node2</title>
<g id="a_edge4_Node000002_Node000005"><a xlink:title=" ">
<path fill="none" stroke="#63b8ff" d="M341.61,-752.89C338.97,-681.82 330.74,-482.64 320.5,-455 314.2,-438 303.99,-421.43 293.15,-406.87"/>
<polygon fill="none" stroke="#63b8ff" points="292.94,-406.6 286.1,-404.32 285.58,-397.13 292.42,-399.41 292.94,-406.6"/>
</a>
</g>
<text text-anchor="middle" x="431.5" y="-566.2" font-family="Consolas" font-size="11.00" fill="grey"> +current_membrane_stiffness</text>
<text text-anchor="middle" x="431.5" y="-554.2" font-family="Consolas" font-size="11.00" fill="grey">+current_plate_stiffness</text>
<text text-anchor="middle" x="431.5" y="-542.2" font-family="Consolas" font-size="11.00" fill="grey">+initial_membrane_stiffness</text>
<text text-anchor="middle" x="431.5" y="-530.2" font-family="Consolas" font-size="11.00" fill="grey">+initial_plate_stiffness</text>
<text text-anchor="middle" x="431.5" y="-518.2" font-family="Consolas" font-size="11.00" fill="grey">+trial_membrane_stiffness</text>
<text text-anchor="middle" x="431.5" y="-506.2" font-family="Consolas" font-size="11.00" fill="grey">+trial_plate_stiffness</text>
</g>
<!-- Node6 -->
<g id="Node000006" class="node">
<title>Node6</title>
<g id="a_Node000006"><a xlink:href="../../dd/d78/class_copiable_tag.html" target="_top" xlink:title=" ">
<polygon fill="white" stroke="transparent" points="535.5,-437 421.5,-437 421.5,-273 535.5,-273 535.5,-437"/>
<text text-anchor="start" x="441" y="-424.2" font-family="Consolas" font-size="11.00">CopiableTag</text>
<text text-anchor="start" x="475" y="-408.2" font-family="Consolas" font-size="11.00"> </text>
<text text-anchor="start" x="425.5" y="-392.2" font-family="Consolas" font-size="11.00">+</text>
<text text-anchor="start" x="436.5" y="-392.2" font-family="Consolas" font-size="11.00">CopiableTag()</text>
<text text-anchor="start" x="425.5" y="-376.2" font-family="Consolas" font-size="11.00">+</text>
<text text-anchor="start" x="436.5" y="-376.2" font-family="Consolas" font-size="11.00">CopiableTag()</text>
<text text-anchor="start" x="425.5" y="-360.2" font-family="Consolas" font-size="11.00">+</text>
<text text-anchor="start" x="436.5" y="-360.2" font-family="Consolas" font-size="11.00">operator=()</text>
<text text-anchor="start" x="425.5" y="-344.2" font-family="Consolas" font-size="11.00">+</text>
<text text-anchor="start" x="436.5" y="-344.2" font-family="Consolas" font-size="11.00">operator=()</text>
<text text-anchor="start" x="425.5" y="-328.2" font-family="Consolas" font-size="11.00">+</text>
<text text-anchor="start" x="436.5" y="-328.2" font-family="Consolas" font-size="11.00">~CopiableTag()</text>
<text text-anchor="start" x="425.5" y="-312.2" font-family="Consolas" font-size="11.00">+</text>
<text text-anchor="start" x="436.5" y="-312.2" font-family="Consolas" font-size="11.00">Tag()</text>
<text text-anchor="start" x="425.5" y="-296.2" font-family="Consolas" font-size="11.00">+</text>
<text text-anchor="start" x="436.5" y="-296.2" font-family="Consolas" font-size="11.00">Tag()</text>
<text text-anchor="start" x="425.5" y="-280.2" font-family="Consolas" font-size="11.00">+</text>
<text text-anchor="start" x="436.5" y="-280.2" font-family="Consolas" font-size="11.00">Tag()</text>
<polygon fill="#666666" stroke="#666666" points="421.5,-419 421.5,-419 535.5,-419 535.5,-419 421.5,-419"/>
<polygon fill="#666666" stroke="#666666" points="421.5,-403 421.5,-403 535.5,-403 535.5,-403 421.5,-403"/>
<polygon fill="none" stroke="#666666" points="421.5,-273 421.5,-437 535.5,-437 535.5,-273 421.5,-273"/>
</a>
</g>
</g>
<!-- Node6&#45;&gt;Node1 -->
<g id="edge5_Node000001_Node000006" class="edge">
<title>Node6&#45;&gt;Node1</title>
<g id="a_edge5_Node000001_Node000006"><a xlink:title=" ">
<path fill="none" stroke="#63b8ff" d="M420.71,-264.06C413.3,-252.52 405.64,-240.61 398.06,-228.81"/>
<polygon fill="none" stroke="#63b8ff" points="417.97,-266.28 426.32,-272.8 423.86,-262.49 417.97,-266.28"/>
</a>
</g>
</g>
<!-- Node7 -->
<g id="Node000007" class="node">
<title>Node7</title>
<g id="a_Node000007"><a xlink:href="../../d0/d57/class_tag.html" target="_top" xlink:title="A base Tag class.">
<polygon fill="white" stroke="transparent" points="598,-917 497,-917 497,-641 598,-641 598,-917"/>
<text text-anchor="start" x="537.5" y="-904.2" font-family="Consolas" font-size="11.00">Tag</text>
<text text-anchor="start" x="544.5" y="-888.2" font-family="Consolas" font-size="11.00"> </text>
<text text-anchor="start" x="501.5" y="-872.2" font-family="Consolas" font-size="11.00">+</text>
<text text-anchor="start" x="512.5" y="-872.2" font-family="Consolas" font-size="11.00">Tag()</text>
<text text-anchor="start" x="501.5" y="-856.2" font-family="Consolas" font-size="11.00">+</text>
<text text-anchor="start" x="512.5" y="-856.2" font-family="Consolas" font-size="11.00">Tag()</text>
<text text-anchor="start" x="501.5" y="-840.2" font-family="Consolas" font-size="11.00">+</text>
<text text-anchor="start" x="512.5" y="-840.2" font-family="Consolas" font-size="11.00">Tag()</text>
<text text-anchor="start" x="501.5" y="-824.2" font-family="Consolas" font-size="11.00">+</text>
<text text-anchor="start" x="512.5" y="-824.2" font-family="Consolas" font-size="11.00">operator=()</text>
<text text-anchor="start" x="501.5" y="-808.2" font-family="Consolas" font-size="11.00">+</text>
<text text-anchor="start" x="512.5" y="-808.2" font-family="Consolas" font-size="11.00">operator=()</text>
<text text-anchor="start" x="501.5" y="-792.2" font-family="Consolas" font-size="11.00">+</text>
<text text-anchor="start" x="512.5" y="-792.2" font-family="Consolas" font-size="11.00">~Tag()</text>
<text text-anchor="start" x="501.5" y="-776.2" font-family="Consolas" font-size="11.00">+</text>
<text text-anchor="start" x="512.5" y="-776.2" font-family="Consolas" font-size="11.00">set_tag()</text>
<text text-anchor="start" x="501.5" y="-760.2" font-family="Consolas" font-size="11.00">+</text>
<text text-anchor="start" x="512.5" y="-760.2" font-family="Consolas" font-size="11.00">get_tag()</text>
<text text-anchor="start" x="501.5" y="-744.2" font-family="Consolas" font-size="11.00">+</text>
<text text-anchor="start" x="512.5" y="-744.2" font-family="Consolas" font-size="11.00">enable()</text>
<text text-anchor="start" x="501.5" y="-728.2" font-family="Consolas" font-size="11.00">+</text>
<text text-anchor="start" x="512.5" y="-728.2" font-family="Consolas" font-size="11.00">disable()</text>
<text text-anchor="start" x="501.5" y="-712.2" font-family="Consolas" font-size="11.00">+</text>
<text text-anchor="start" x="512.5" y="-712.2" font-family="Consolas" font-size="11.00">guard()</text>
<text text-anchor="start" x="501.5" y="-696.2" font-family="Consolas" font-size="11.00">+</text>
<text text-anchor="start" x="512.5" y="-696.2" font-family="Consolas" font-size="11.00">unguard()</text>
<text text-anchor="start" x="501.5" y="-680.2" font-family="Consolas" font-size="11.00">+</text>
<text text-anchor="start" x="512.5" y="-680.2" font-family="Consolas" font-size="11.00">is_active()</text>
<text text-anchor="start" x="501.5" y="-664.2" font-family="Consolas" font-size="11.00">+</text>
<text text-anchor="start" x="512.5" y="-664.2" font-family="Consolas" font-size="11.00">is_guarded()</text>
<text text-anchor="start" x="501.5" y="-648.2" font-family="Consolas" font-size="11.00">+</text>
<text text-anchor="start" x="512.5" y="-648.2" font-family="Consolas" font-size="11.00">print()</text>
<polygon fill="#666666" stroke="#666666" points="497.5,-899 497.5,-899 598.5,-899 598.5,-899 497.5,-899"/>
<polygon fill="#666666" stroke="#666666" points="497.5,-883 497.5,-883 598.5,-883 598.5,-883 497.5,-883"/>
<polygon fill="none" stroke="#666666" points="497,-641 497,-917 598,-917 598,-641 497,-641"/>
</a>
</g>
</g>
<!-- Node7&#45;&gt;Node6 -->
<g id="edge6_Node000006_Node000007" class="edge">
<title>Node7&#45;&gt;Node6</title>
<g id="a_edge6_Node000006_Node000007"><a xlink:title=" ">
<path fill="none" stroke="#63b8ff" d="M555.32,-630.3C554.6,-574.47 549.3,-510.94 533.5,-455 531.82,-449.04 529.72,-443.05 527.32,-437.12"/>
<polygon fill="none" stroke="#63b8ff" points="551.82,-630.67 555.4,-640.64 558.82,-630.61 551.82,-630.67"/>
</a>
</g>
</g>
</g>
</svg>
