<?xml version="1.0" encoding="UTF-8" standalone="no"?>
<!DOCTYPE svg PUBLIC "-//W3C//DTD SVG 1.1//EN"
 "http://www.w3.org/Graphics/SVG/1.1/DTD/svg11.dtd">
<!-- Generated by graphviz version 8.1.0 (20230707.0739)
 -->
<!-- Title: Material/Material3D/DruckerPrager/CustomDP.h Pages: 1 -->
<!--zoomable 402 -->

<svg id="main" version="1.1" xmlns="http://www.w3.org/2000/svg" xmlns:xlink="http://www.w3.org/1999/xlink" xml:space="preserve" onload="init(evt)">
<style type="text/css"><![CDATA[
.node, .edge {opacity: 0.7;}
.node.selected, .edge.selected {opacity: 1;}
.edge:hover path { stroke: red; }
.edge:hover polygon { stroke: red; fill: red; }
]]></style>

<defs>
  <circle id="rim" cx="0" cy="0" r="7"/>
  <circle id="rim2" cx="0" cy="0" r="3.5"/>
  <g id="zoomPlus">
    <use xlink:href="#rim" fill="#404040"><set attributeName="fill" to="#808080" begin="zoomplus.mouseover" end="zoomplus.mouseout"/></use>
    <path d="M-4,0h8M0,-4v8" fill="none" stroke="white" stroke-width="1.5" pointer-events="none"/>
  </g>
  <g id="zoomMin">
    <use xlink:href="#rim" fill="#404040"><set attributeName="fill" to="#808080" begin="zoomminus.mouseover" end="zoomminus.mouseout"/></use>
    <path d="M-4,0h8" fill="none" stroke="white" stroke-width="1.5" pointer-events="none"/>
  </g>
  <g id="arrowUp" transform="translate(30 24)">
    <use xlink:href="#rim"/>
    <path pointer-events="none" fill="none" stroke="white" stroke-width="1.5" d="M0,-3.0v7 M-2.5,-0.5L0,-3.0L2.5,-0.5"/>
  </g>
  <g id="arrowRight" transform="rotate(90) translate(36 -43)">
    <use xlink:href="#rim"/>
    <path pointer-events="none" fill="none" stroke="white" stroke-width="1.5" d="M0,-3.0v7 M-2.5,-0.5L0,-3.0L2.5,-0.5"/>
  </g>
  <g id="arrowDown" transform="rotate(180) translate(-30 -48)">
    <use xlink:href="#rim"/>
    <path pointer-events="none" fill="none" stroke="white" stroke-width="1.5" d="M0,-3.0v7 M-2.5,-0.5L0,-3.0L2.5,-0.5"/>
  </g>
  <g id="arrowLeft" transform="rotate(270) translate(-36 17)">
    <use xlink:href="#rim"/>
    <path pointer-events="none" fill="none" stroke="white" stroke-width="1.5" d="M0,-3.0v7 M-2.5,-0.5L0,-3.0L2.5,-0.5"/>
  </g>
  <g id="resetDef">
    <use xlink:href="#rim2" fill="#404040"><set attributeName="fill" to="#808080" begin="reset.mouseover" end="reset.mouseout"/></use>
  </g>
</defs>
<script type="application/ecmascript">
var viewWidth = 696;
var viewHeight = 402;
var sectionId = 'dynsection-0';
</script>
<script type="application/ecmascript" xlink:href="../../svg.min.js"/>
<svg id="graph" class="graph">
<g id="viewport">
<title>Material/Material3D/DruckerPrager/CustomDP.h</title>
<!-- Node1 -->
<g id="Node000001" class="node">
<title>Node1</title>
<g id="a_Node000001"><a xlink:title=" ">
<polygon fill="#999999" stroke="#666666" points="592,-393.5 426,-393.5 426,-358.5 592,-358.5 592,-393.5"/>
<text text-anchor="start" x="434" y="-379.05" font-family="Consolas" font-size="11.00">Material/Material3D</text>
<text text-anchor="middle" x="509" y="-365.55" font-family="Consolas" font-size="11.00">/DruckerPrager/CustomDP.h</text>
</a>
</g>
</g>
<!-- Node2 -->
<g id="Node000002" class="node">
<title>Node2</title>
<g id="a_Node000002"><a xlink:href="../../db/dc8/_nonlinear_drucker_prager_8h.html" target="_top" xlink:title=" ">
<polygon fill="white" stroke="#666666" points="421,-322.5 261,-322.5 261,-301 421,-301 421,-322.5"/>
<text text-anchor="middle" x="341" y="-308.05" font-family="Consolas" font-size="11.00">NonlinearDruckerPrager.h</text>
</a>
</g>
</g>
<!-- Node1&#45;&gt;Node2 -->
<g id="edge1_Node000001_Node000002" class="edge">
<title>Node1&#45;&gt;Node2</title>
<g id="a_edge1_Node000001_Node000002"><a xlink:title=" ">
<path fill="none" stroke="#63b8ff" d="M463.54,-358.15C437.01,-348.32 403.93,-336.07 378.83,-326.77"/>
<polygon fill="#63b8ff" stroke="#63b8ff" points="380.2,-323.17 369.61,-322.98 377.77,-329.74 380.2,-323.17"/>
</a>
</g>
</g>
<!-- Node17 -->
<g id="Node000017" class="node">
<title>Node17</title>
<g id="a_Node000017"><a xlink:href="../../d6/d99/_expression_8h.html" target="_top" xlink:title=" ">
<polygon fill="white" stroke="#666666" points="577,-322.5 441,-322.5 441,-301 577,-301 577,-322.5"/>
<text text-anchor="middle" x="509" y="-308.05" font-family="Consolas" font-size="11.00">Toolbox/Expression.h</text>
</a>
</g>
</g>
<!-- Node1&#45;&gt;Node17 -->
<g id="edge17_Node000001_Node000017" class="edge">
<title>Node1&#45;&gt;Node17</title>
<g id="a_edge17_Node000001_Node000017"><a xlink:title=" ">
<path fill="none" stroke="#63b8ff" d="M509,-358.32C509,-350.67 509,-341.53 509,-333.45"/>
<polygon fill="#63b8ff" stroke="#63b8ff" points="512.5,-333.67 509,-323.67 505.5,-333.67 512.5,-333.67"/>
</a>
</g>
</g>
<!-- Node19 -->
<g id="Node000019" class="node">
<title>Node19</title>
<g id="a_Node000019"><a xlink:href="../../d4/da0/_resource_holder_8h.html" target="_top" xlink:title=" ">
<polygon fill="white" stroke="#666666" points="688,-79 528,-79 528,-57.5 688,-57.5 688,-79"/>
<text text-anchor="middle" x="608" y="-64.55" font-family="Consolas" font-size="11.00">Toolbox/ResourceHolder.h</text>
</a>
</g>
</g>
<!-- Node1&#45;&gt;Node19 -->
<g id="edge20_Node000001_Node000019" class="edge">
<title>Node1&#45;&gt;Node19</title>
<g id="a_edge20_Node000001_Node000019"><a xlink:title=" ">
<path fill="none" stroke="#63b8ff" d="M543.75,-358.21C558.66,-349.44 575.12,-337.4 586,-322.5 606.23,-294.79 608,-282.81 608,-248.5 608,-248.5 608,-248.5 608,-182.25 608,-150.14 608,-112.89 608,-90.21"/>
<polygon fill="#63b8ff" stroke="#63b8ff" points="611.5,-90.23 608,-80.23 604.5,-90.23 611.5,-90.23"/>
</a>
</g>
</g>
<!-- Node3 -->
<g id="Node000003" class="node">
<title>Node3</title>
<g id="a_Node000003"><a xlink:href="../../dc/d12/_material3_d_8h.html" target="_top" xlink:title=" ">
<polygon fill="white" stroke="#666666" points="406,-265 276,-265 276,-230 406,-230 406,-265"/>
<text text-anchor="start" x="284" y="-250.55" font-family="Consolas" font-size="11.00">Material/Material3D</text>
<text text-anchor="middle" x="341" y="-237.05" font-family="Consolas" font-size="11.00">/Material3D.h</text>
</a>
</g>
</g>
<!-- Node2&#45;&gt;Node3 -->
<g id="edge2_Node000002_Node000003" class="edge">
<title>Node2&#45;&gt;Node3</title>
<g id="a_edge2_Node000002_Node000003"><a xlink:title=" ">
<path fill="none" stroke="#63b8ff" d="M341,-300.75C341,-293.98 341,-284.69 341,-275.82"/>
<polygon fill="#63b8ff" stroke="#63b8ff" points="344.5,-276.03 341,-266.03 337.5,-276.03 344.5,-276.03"/>
</a>
</g>
</g>
<!-- Node15 -->
<g id="Node000015" class="node">
<title>Node15</title>
<g id="a_Node000015"><a xlink:href="../../d5/d47/utility_8h.html" target="_top" xlink:title=" ">
<polygon fill="white" stroke="#666666" points="258,-258.25 140,-258.25 140,-236.75 258,-236.75 258,-258.25"/>
<text text-anchor="middle" x="199" y="-243.8" font-family="Consolas" font-size="11.00">Toolbox/utility.h</text>
</a>
</g>
</g>
<!-- Node2&#45;&gt;Node15 -->
<g id="edge14_Node000002_Node000015" class="edge">
<title>Node2&#45;&gt;Node15</title>
<g id="a_edge14_Node000002_Node000015"><a xlink:title=" ">
<path fill="none" stroke="#63b8ff" d="M317.87,-300.61C294.56,-290.39 258.36,-274.52 232.03,-262.98"/>
<polygon fill="#63b8ff" stroke="#63b8ff" points="233.68,-259.45 223.12,-258.64 230.87,-265.86 233.68,-259.45"/>
</a>
</g>
</g>
<!-- Node4 -->
<g id="Node000004" class="node">
<title>Node4</title>
<g id="a_Node000004"><a xlink:href="../../d3/d09/_material_8h.html" target="_top" xlink:title=" ">
<polygon fill="white" stroke="#666666" points="423,-194 293,-194 293,-172.5 423,-172.5 423,-194"/>
<text text-anchor="middle" x="358" y="-179.55" font-family="Consolas" font-size="11.00">Material/Material.h</text>
</a>
</g>
</g>
<!-- Node3&#45;&gt;Node4 -->
<g id="edge3_Node000003_Node000004" class="edge">
<title>Node3&#45;&gt;Node4</title>
<g id="a_edge3_Node000003_Node000004"><a xlink:title=" ">
<path fill="none" stroke="#63b8ff" d="M345.56,-229.82C347.67,-222.08 350.2,-212.82 352.42,-204.67"/>
<polygon fill="#63b8ff" stroke="#63b8ff" points="356.03,-205.74 355.29,-195.17 349.28,-203.89 356.03,-205.74"/>
</a>
</g>
</g>
<!-- Node5 -->
<g id="Node000005" class="node">
<title>Node5</title>
<g id="a_Node000005"><a xlink:href="../../d2/d4a/_tag_8h.html" target="_top" xlink:title=" ">
<polygon fill="white" stroke="#666666" points="470,-136.5 382,-136.5 382,-115 470,-115 470,-136.5"/>
<text text-anchor="middle" x="426" y="-122.05" font-family="Consolas" font-size="11.00">Domain/Tag.h</text>
</a>
</g>
</g>
<!-- Node4&#45;&gt;Node5 -->
<g id="edge4_Node000004_Node000005" class="edge">
<title>Node4&#45;&gt;Node5</title>
<g id="a_edge4_Node000004_Node000005"><a xlink:title=" ">
<path fill="none" stroke="#63b8ff" d="M370.47,-172.07C380.15,-164.17 393.79,-153.04 405.13,-143.79"/>
<polygon fill="#63b8ff" stroke="#63b8ff" points="407.07,-145.9 412.61,-136.87 402.65,-140.48 407.07,-145.9"/>
</a>
</g>
</g>
<!-- Node14 -->
<g id="Node000014" class="node">
<title>Node14</title>
<g id="a_Node000014"><a xlink:href="../../df/dec/_parameter_type_8h.html" target="_top" xlink:title=" ">
<polygon fill="white" stroke="#666666" points="364,-136.5 258,-136.5 258,-115 364,-115 364,-136.5"/>
<text text-anchor="middle" x="311" y="-122.05" font-family="Consolas" font-size="11.00">ParameterType.h</text>
</a>
</g>
</g>
<!-- Node4&#45;&gt;Node14 -->
<g id="edge13_Node000004_Node000014" class="edge">
<title>Node4&#45;&gt;Node14</title>
<g id="a_edge13_Node000004_Node000014"><a xlink:title=" ">
<path fill="none" stroke="#63b8ff" d="M349.38,-172.07C343.02,-164.56 334.19,-154.13 326.6,-145.17"/>
<polygon fill="#63b8ff" stroke="#63b8ff" points="328.7,-143.23 319.57,-137.87 323.36,-147.76 328.7,-143.23"/>
</a>
</g>
</g>
<!-- Node6 -->
<g id="Node000006" class="node">
<title>Node6</title>
<g id="a_Node000006"><a xlink:href="../../d8/d8f/suan_pan_8h.html" target="_top" xlink:title=" ">
<polygon fill="white" stroke="#666666" points="400,-79 330,-79 330,-57.5 400,-57.5 400,-79"/>
<text text-anchor="middle" x="365" y="-64.55" font-family="Consolas" font-size="11.00">suanPan.h</text>
</a>
</g>
</g>
<!-- Node5&#45;&gt;Node6 -->
<g id="edge5_Node000005_Node000006" class="edge">
<title>Node5&#45;&gt;Node6</title>
<g id="a_edge5_Node000005_Node000006"><a xlink:title=" ">
<path fill="none" stroke="#63b8ff" d="M414.81,-114.57C406.21,-106.75 394.14,-95.76 384.03,-86.56"/>
<polygon fill="#63b8ff" stroke="#63b8ff" points="386.87,-84.51 377.12,-80.37 382.16,-89.68 386.87,-84.51"/>
</a>
</g>
</g>
<!-- Node7 -->
<g id="Node000007" class="node">
<title>Node7</title>
<g id="a_Node000007"><a xlink:title=" ">
<polygon fill="#e0e0e0" stroke="#999999" points="564,-21.5 500,-21.5 500,0 564,0 564,-21.5"/>
<text text-anchor="middle" x="532" y="-7.05" font-family="Consolas" font-size="11.00">iostream</text>
</a>
</g>
</g>
<!-- Node6&#45;&gt;Node7 -->
<g id="edge6_Node000006_Node000007" class="edge">
<title>Node6&#45;&gt;Node7</title>
<g id="a_edge6_Node000006_Node000007"><a xlink:title=" ">
<path fill="none" stroke="#63b8ff" d="M395.63,-57.07C422.38,-48.18 461.44,-35.2 490.9,-25.41"/>
<polygon fill="#63b8ff" stroke="#63b8ff" points="491.9,-28.43 500.28,-21.96 489.69,-21.79 491.9,-28.43"/>
</a>
</g>
</g>
<!-- Node8 -->
<g id="Node000008" class="node">
<title>Node8</title>
<g id="a_Node000008"><a xlink:title=" ">
<polygon fill="#e0e0e0" stroke="#999999" points="130,-21.5 0,-21.5 0,0 130,0 130,-21.5"/>
<text text-anchor="middle" x="65" y="-7.05" font-family="Consolas" font-size="11.00">armadillo/armadillo</text>
</a>
</g>
</g>
<!-- Node6&#45;&gt;Node8 -->
<g id="edge7_Node000006_Node000008" class="edge">
<title>Node6&#45;&gt;Node8</title>
<g id="a_edge7_Node000006_Node000008"><a xlink:title=" ">
<path fill="none" stroke="#63b8ff" d="M329.7,-60.72C280.97,-51.71 192.18,-35.28 130.97,-23.95"/>
<polygon fill="#63b8ff" stroke="#63b8ff" points="131.72,-20.35 121.25,-21.97 130.45,-27.23 131.72,-20.35"/>
</a>
</g>
</g>
<!-- Node9 -->
<g id="Node000009" class="node">
<title>Node9</title>
<g id="a_Node000009"><a xlink:title=" ">
<polygon fill="#e0e0e0" stroke="#999999" points="224,-21.5 148,-21.5 148,0 224,0 224,-21.5"/>
<text text-anchor="middle" x="186" y="-7.05" font-family="Consolas" font-size="11.00">filesystem</text>
</a>
</g>
</g>
<!-- Node6&#45;&gt;Node9 -->
<g id="edge8_Node000006_Node000009" class="edge">
<title>Node6&#45;&gt;Node9</title>
<g id="a_edge8_Node000006_Node000009"><a xlink:title=" ">
<path fill="none" stroke="#63b8ff" d="M332.17,-57.07C303.24,-48.1 260.9,-34.97 229.22,-25.15"/>
<polygon fill="#63b8ff" stroke="#63b8ff" points="230.51,-21.58 219.93,-21.96 228.44,-28.26 230.51,-21.58"/>
</a>
</g>
</g>
<!-- Node10 -->
<g id="Node000010" class="node">
<title>Node10</title>
<g id="a_Node000010"><a xlink:title=" ">
<polygon fill="#e0e0e0" stroke="#999999" points="324,-21.5 242,-21.5 242,0 324,0 324,-21.5"/>
<text text-anchor="middle" x="283" y="-7.05" font-family="Consolas" font-size="11.00">fmt/color.h</text>
</a>
</g>
</g>
<!-- Node6&#45;&gt;Node10 -->
<g id="edge9_Node000006_Node000010" class="edge">
<title>Node6&#45;&gt;Node10</title>
<g id="a_edge9_Node000006_Node000010"><a xlink:title=" ">
<path fill="none" stroke="#63b8ff" d="M349.96,-57.07C337.94,-48.93 320.86,-37.37 306.96,-27.97"/>
<polygon fill="#63b8ff" stroke="#63b8ff" points="309.19,-24.57 298.94,-21.87 305.26,-30.37 309.19,-24.57"/>
</a>
</g>
</g>
<!-- Node11 -->
<g id="Node000011" class="node">
<title>Node11</title>
<g id="a_Node000011"><a xlink:title=" ">
<polygon fill="#e0e0e0" stroke="#999999" points="388,-21.5 342,-21.5 342,0 388,0 388,-21.5"/>
<text text-anchor="middle" x="365" y="-7.05" font-family="Consolas" font-size="11.00">mutex</text>
</a>
</g>
</g>
<!-- Node6&#45;&gt;Node11 -->
<g id="edge10_Node000006_Node000011" class="edge">
<title>Node6&#45;&gt;Node11</title>
<g id="a_edge10_Node000006_Node000011"><a xlink:title=" ">
<path fill="none" stroke="#63b8ff" d="M365,-57.07C365,-50.26 365,-41.06 365,-32.73"/>
<polygon fill="#63b8ff" stroke="#63b8ff" points="368.5,-32.86 365,-22.87 361.5,-32.87 368.5,-32.86"/>
</a>
</g>
</g>
<!-- Node12 -->
<g id="Node000012" class="node">
<title>Node12</title>
<g id="a_Node000012"><a xlink:title=" ">
<polygon fill="#e0e0e0" stroke="#999999" points="482,-21.5 406,-21.5 406,0 482,0 482,-21.5"/>
<text text-anchor="middle" x="444" y="-7.05" font-family="Consolas" font-size="11.00">functional</text>
</a>
</g>
</g>
<!-- Node6&#45;&gt;Node12 -->
<g id="edge11_Node000006_Node000012" class="edge">
<title>Node6&#45;&gt;Node12</title>
<g id="a_edge11_Node000006_Node000012"><a xlink:title=" ">
<path fill="none" stroke="#63b8ff" d="M379.49,-57.07C391.07,-48.93 407.53,-37.37 420.92,-27.97"/>
<polygon fill="#63b8ff" stroke="#63b8ff" points="422.43,-30.48 428.6,-21.87 418.41,-24.75 422.43,-30.48"/>
</a>
</g>
</g>
<!-- Node13 -->
<g id="Node000013" class="node">
<title>Node13</title>
<g id="a_Node000013"><a xlink:title=" ">
<polygon fill="#e0e0e0" stroke="#999999" points="634,-21.5 582,-21.5 582,0 634,0 634,-21.5"/>
<text text-anchor="middle" x="608" y="-7.05" font-family="Consolas" font-size="11.00">memory</text>
</a>
</g>
</g>
<!-- Node6&#45;&gt;Node13 -->
<g id="edge12_Node000006_Node000013" class="edge">
<title>Node6&#45;&gt;Node13</title>
<g id="a_edge12_Node000006_Node000013"><a xlink:title=" ">
<path fill="none" stroke="#63b8ff" d="M400.47,-60.07C439.87,-51.96 505.62,-38.02 571.15,-21.86"/>
<polygon fill="#63b8ff" stroke="#63b8ff" points="571.81,-25.06 580.67,-19.25 570.12,-18.27 571.81,-25.06"/>
</a>
</g>
</g>
<!-- Node15&#45;&gt;Node6 -->
<g id="edge16_Node000015_Node000006" class="edge">
<title>Node15&#45;&gt;Node6</title>
<g id="a_edge16_Node000015_Node000006"><a xlink:title=" ">
<path fill="none" stroke="#63b8ff" d="M197.46,-236.53C195.64,-221.93 193.78,-194.14 202,-172.5 213.72,-141.64 222.34,-134.46 249,-115 269.98,-99.68 296.78,-88.67 319.33,-81.3"/>
<polygon fill="#63b8ff" stroke="#63b8ff" points="320.19,-84.39 328.69,-78.07 318.1,-77.7 320.19,-84.39"/>
</a>
</g>
</g>
<!-- Node16 -->
<g id="Node000016" class="node">
<title>Node16</title>
<g id="a_Node000016"><a xlink:title=" ">
<polygon fill="#e0e0e0" stroke="#999999" points="275,-194 211,-194 211,-172.5 275,-172.5 275,-194"/>
<text text-anchor="middle" x="243" y="-179.55" font-family="Consolas" font-size="11.00">concepts</text>
</a>
</g>
</g>
<!-- Node15&#45;&gt;Node16 -->
<g id="edge15_Node000015_Node000016" class="edge">
<title>Node15&#45;&gt;Node16</title>
<g id="a_edge15_Node000015_Node000016"><a xlink:title=" ">
<path fill="none" stroke="#63b8ff" d="M206.07,-236.5C212.38,-227.57 221.8,-214.24 229.55,-203.28"/>
<polygon fill="#63b8ff" stroke="#63b8ff" points="232.89,-205.62 235.8,-195.43 227.17,-201.58 232.89,-205.62"/>
</a>
</g>
</g>
<!-- Node17&#45;&gt;Node5 -->
<g id="edge18_Node000017_Node000005" class="edge">
<title>Node17&#45;&gt;Node5</title>
<g id="a_edge18_Node000017_Node000005"><a xlink:title=" ">
<path fill="none" stroke="#63b8ff" d="M522.44,-300.79C532.43,-292.49 545.29,-279.67 551,-265 556.64,-250.5 557.63,-244.07 551,-230 531.71,-189.05 487.33,-158.8 456.99,-141.97"/>
<polygon fill="#63b8ff" stroke="#63b8ff" points="458.76,-138.42 448.3,-136.78 455.46,-144.59 458.76,-138.42"/>
</a>
</g>
</g>
<!-- Node18 -->
<g id="Node000018" class="node">
<title>Node18</title>
<g id="a_Node000018"><a xlink:title=" ">
<polygon fill="#e0e0e0" stroke="#999999" points="542,-258.25 424,-258.25 424,-236.75 542,-236.75 542,-258.25"/>
<text text-anchor="middle" x="483" y="-243.8" font-family="Consolas" font-size="11.00">exprtk/exprtk.hpp</text>
</a>
</g>
</g>
<!-- Node17&#45;&gt;Node18 -->
<g id="edge19_Node000017_Node000018" class="edge">
<title>Node17&#45;&gt;Node18</title>
<g id="a_edge19_Node000017_Node000018"><a xlink:title=" ">
<path fill="none" stroke="#63b8ff" d="M504.82,-300.75C501.21,-292.09 495.86,-279.3 491.37,-268.54"/>
<polygon fill="#63b8ff" stroke="#63b8ff" points="494.34,-267.56 487.25,-259.68 487.88,-270.26 494.34,-267.56"/>
</a>
</g>
</g>
<!-- Node19&#45;&gt;Node13 -->
<g id="edge21_Node000019_Node000013" class="edge">
<title>Node19&#45;&gt;Node13</title>
<g id="a_edge21_Node000019_Node000013"><a xlink:title=" ">
<path fill="none" stroke="#63b8ff" d="M608,-57.07C608,-50.26 608,-41.06 608,-32.73"/>
<polygon fill="#63b8ff" stroke="#63b8ff" points="611.5,-32.86 608,-22.87 604.5,-32.87 611.5,-32.86"/>
</a>
</g>
</g>
</g>
</svg>

<g id="navigator" transform="translate(0 0)" fill="#404254">
  <rect fill="#f2f5e9" fill-opacity="0.5" stroke="#606060" stroke-width=".5" x="0" y="0" width="60" height="60"/>
  <use id="zoomplus" xlink:href="#zoomPlus" x="17" y="9" onmousedown="handleZoom(evt,'in')"/>
  <use id="zoomminus" xlink:href="#zoomMin" x="42" y="9" onmousedown="handleZoom(evt,'out')"/>
  <use id="reset" xlink:href="#resetDef" x="30" y="36" onmousedown="handleReset()"/>
   <use id="arrowup" xlink:href="#arrowUp" x="0" y="0" onmousedown="handlePan(0,-1)"/>
  <use id="arrowright" xlink:href="#arrowRight" x="0" y="0" onmousedown="handlePan(1,0)"/>
  <use id="arrowdown" xlink:href="#arrowDown" x="0" y="0" onmousedown="handlePan(0,1)"/>
  <use id="arrowleft" xlink:href="#arrowLeft" x="0" y="0" onmousedown="handlePan(-1,0)"/>
</g>
<svg viewBox="0 0 15 15" width="100%" height="30px" preserveAspectRatio="xMaxYMin meet">
 <g id="arrow_out" transform="scale(0.3 0.3)">
  <a xlink:href="_custom_d_p_8h__incl_org.svg" target="_base">
   <rect id="button" ry="5" rx="5" y="6" x="6" height="38" width="38"
        fill="#f2f5e9" fill-opacity="0.5" stroke="#606060" stroke-width="1.0"/>
   <path id="arrow"
     d="M 11.500037,31.436501 C 11.940474,20.09759 22.043105,11.32322 32.158766,21.979434 L 37.068811,17.246167 C 37.068811,17.246167 37.088388,32 37.088388,32 L 22.160133,31.978069 C 22.160133,31.978069 26.997745,27.140456 26.997745,27.140456 C 18.528582,18.264221 13.291696,25.230495 11.500037,31.436501 z"
     style="fill:#404040;"/>
  </a>
 </g>
</svg>

<style type='text/css'>
<![CDATA[
[data-mouse-over-selected='false'] { opacity: 0.7; }
[data-mouse-over-selected='true']  { opacity: 1.0; }
]]>
</style>
<script type="application/ecmascript"><![CDATA[
document.addEventListener('DOMContentLoaded', (event) => {
  highlightEdges();
  highlightAdjacentNodes();
});
]]></script>
</svg>
