<?xml version="1.0" encoding="UTF-8" standalone="no"?>
<!DOCTYPE svg PUBLIC "-//W3C//DTD SVG 1.1//EN"
 "http://www.w3.org/Graphics/SVG/1.1/DTD/svg11.dtd">
<!-- Generated by graphviz version 2.43.0 (0)
 -->
<!-- Title: Material/Material3D/vonMises/CustomGurson.cpp Pages: 1 -->
<!--zoomable 444 -->

<svg id="main" version="1.1" xmlns="http://www.w3.org/2000/svg" xmlns:xlink="http://www.w3.org/1999/xlink" xml:space="preserve" onload="init(evt)">
<style type="text/css"><![CDATA[
.node, .edge {opacity: 0.7;}
.node.selected, .edge.selected {opacity: 1;}
.edge:hover path { stroke: red; }
.edge:hover polygon { stroke: red; fill: red; }
]]></style>

<defs>
  <circle id="rim" cx="0" cy="0" r="7"/>
  <circle id="rim2" cx="0" cy="0" r="3.5"/>
  <g id="zoomPlus">
    <use xlink:href="#rim" fill="#404040"><set attributeName="fill" to="#808080" begin="zoomplus.mouseover" end="zoomplus.mouseout"/></use>
    <path d="M-4,0h8M0,-4v8" fill="none" stroke="white" stroke-width="1.5" pointer-events="none"/>
  </g>
  <g id="zoomMin">
    <use xlink:href="#rim" fill="#404040"><set attributeName="fill" to="#808080" begin="zoomminus.mouseover" end="zoomminus.mouseout"/></use>
    <path d="M-4,0h8" fill="none" stroke="white" stroke-width="1.5" pointer-events="none"/>
  </g>
  <g id="arrowUp" transform="translate(30 24)">
    <use xlink:href="#rim"/>
    <path pointer-events="none" fill="none" stroke="white" stroke-width="1.5" d="M0,-3.0v7 M-2.5,-0.5L0,-3.0L2.5,-0.5"/>
  </g>
  <g id="arrowRight" transform="rotate(90) translate(36 -43)">
    <use xlink:href="#rim"/>
    <path pointer-events="none" fill="none" stroke="white" stroke-width="1.5" d="M0,-3.0v7 M-2.5,-0.5L0,-3.0L2.5,-0.5"/>
  </g>
  <g id="arrowDown" transform="rotate(180) translate(-30 -48)">
    <use xlink:href="#rim"/>
    <path pointer-events="none" fill="none" stroke="white" stroke-width="1.5" d="M0,-3.0v7 M-2.5,-0.5L0,-3.0L2.5,-0.5"/>
  </g>
  <g id="arrowLeft" transform="rotate(270) translate(-36 17)">
    <use xlink:href="#rim"/>
    <path pointer-events="none" fill="none" stroke="white" stroke-width="1.5" d="M0,-3.0v7 M-2.5,-0.5L0,-3.0L2.5,-0.5"/>
  </g>
  <g id="resetDef">
    <use xlink:href="#rim2" fill="#404040"><set attributeName="fill" to="#808080" begin="reset.mouseover" end="reset.mouseout"/></use>
  </g>
</defs>
<script type="application/ecmascript">
var viewWidth = 908;
var viewHeight = 444;
var sectionId = 'dynsection-0';
</script>
<script type="application/ecmascript" xlink:href="../../svg.min.js"/>
<svg id="graph" class="graph">
<g id="viewport">
<title>Material/Material3D/vonMises/CustomGurson.cpp</title>
<!-- Node1 -->
<g id="Node000001" class="node">
<title>Node1</title>
<g id="a_Node000001"><a xlink:title=" ">
<polygon fill="#999999" stroke="#666666" points="540.5,-436 348.5,-436 348.5,-404 540.5,-404 540.5,-436"/>
<text text-anchor="start" x="356.5" y="-423.2" font-family="Consolas" font-size="11.00">Material/Material3D</text>
<text text-anchor="middle" x="444.5" y="-411.2" font-family="Consolas" font-size="11.00">/vonMises/CustomGurson.cpp</text>
</a>
</g>
</g>
<!-- Node2 -->
<g id="Node000002" class="node">
<title>Node2</title>
<g id="a_Node000002"><a xlink:href="../../d7/d3a/_custom_gurson_8h.html" target="_top" xlink:title=" ">
<polygon fill="white" stroke="#666666" points="405,-368 294,-368 294,-348 405,-348 405,-368"/>
<text text-anchor="middle" x="349.5" y="-355.2" font-family="Consolas" font-size="11.00">CustomGurson.h</text>
</a>
</g>
</g>
<!-- Node1&#45;&gt;Node2 -->
<g id="edge1_Node000001_Node000002" class="edge">
<title>Node1&#45;&gt;Node2</title>
<g id="a_edge1_Node000001_Node000002"><a xlink:title=" ">
<path fill="none" stroke="#63b8ff" d="M420.53,-403.86C405.92,-394.63 387.34,-382.9 372.84,-373.74"/>
<polygon fill="#63b8ff" stroke="#63b8ff" points="374.32,-370.53 363.99,-368.15 370.58,-376.45 374.32,-370.53"/>
</a>
</g>
</g>
<!-- Node20 -->
<g id="Node000020" class="node">
<title>Node20</title>
<g id="a_Node000020"><a xlink:href="../../dc/df2/_domain_base_8h.html" target="_top" xlink:title=" ">
<polygon fill="white" stroke="#666666" points="693,-188 548,-188 548,-168 693,-168 693,-188"/>
<text text-anchor="middle" x="620.5" y="-175.2" font-family="Consolas" font-size="11.00">Domain/DomainBase.h</text>
</a>
</g>
</g>
<!-- Node1&#45;&gt;Node20 -->
<g id="edge21_Node000001_Node000020" class="edge">
<title>Node1&#45;&gt;Node20</title>
<g id="a_edge21_Node000001_Node000020"><a xlink:title=" ">
<path fill="none" stroke="#63b8ff" d="M455.51,-403.99C486.49,-361.74 574.3,-242 607.54,-196.68"/>
<polygon fill="#63b8ff" stroke="#63b8ff" points="610.5,-198.55 613.59,-188.42 604.86,-194.41 610.5,-198.55"/>
</a>
</g>
</g>
<!-- Node3 -->
<g id="Node000003" class="node">
<title>Node3</title>
<g id="a_Node000003"><a xlink:href="../../d5/de7/_nonlinear_gurson_8h.html" target="_top" xlink:title=" ">
<polygon fill="white" stroke="#666666" points="335,-312 204,-312 204,-292 335,-292 335,-312"/>
<text text-anchor="middle" x="269.5" y="-299.2" font-family="Consolas" font-size="11.00">NonlinearGurson.h</text>
</a>
</g>
</g>
<!-- Node2&#45;&gt;Node3 -->
<g id="edge2_Node000002_Node000003" class="edge">
<title>Node2&#45;&gt;Node3</title>
<g id="a_edge2_Node000002_Node000003"><a xlink:title=" ">
<path fill="none" stroke="#63b8ff" d="M335.93,-347.84C323.79,-339.64 305.77,-327.48 291.56,-317.89"/>
<polygon fill="#63b8ff" stroke="#63b8ff" points="293.12,-314.72 282.87,-312.03 289.2,-320.52 293.12,-314.72"/>
</a>
</g>
</g>
<!-- Node17 -->
<g id="Node000017" class="node">
<title>Node17</title>
<g id="a_Node000017"><a xlink:href="../../d6/d99/_expression_8h.html" target="_top" xlink:title=" ">
<polygon fill="white" stroke="#666666" points="505.5,-312 353.5,-312 353.5,-292 505.5,-292 505.5,-312"/>
<text text-anchor="middle" x="429.5" y="-299.2" font-family="Consolas" font-size="11.00">Toolbox/Expression.h</text>
</a>
</g>
</g>
<!-- Node2&#45;&gt;Node17 -->
<g id="edge16_Node000002_Node000017" class="edge">
<title>Node2&#45;&gt;Node17</title>
<g id="a_edge16_Node000002_Node000017"><a xlink:title=" ">
<path fill="none" stroke="#63b8ff" d="M363.07,-347.84C375.21,-339.64 393.23,-327.48 407.44,-317.89"/>
<polygon fill="#63b8ff" stroke="#63b8ff" points="409.8,-320.52 416.13,-312.03 405.88,-314.72 409.8,-320.52"/>
</a>
</g>
</g>
<!-- Node19 -->
<g id="Node000019" class="node">
<title>Node19</title>
<g id="a_Node000019"><a xlink:href="../../d4/da0/_resource_holder_8h.html" target="_top" xlink:title=" ">
<polygon fill="white" stroke="#666666" points="179,-250 0,-250 0,-230 179,-230 179,-250"/>
<text text-anchor="middle" x="89.5" y="-237.2" font-family="Consolas" font-size="11.00">Toolbox/ResourceHolder.h</text>
</a>
</g>
</g>
<!-- Node2&#45;&gt;Node19 -->
<g id="edge19_Node000002_Node000019" class="edge">
<title>Node2&#45;&gt;Node19</title>
<g id="a_edge19_Node000002_Node000019"><a xlink:title=" ">
<path fill="none" stroke="#63b8ff" d="M305.08,-347.99C273.35,-340.64 230.14,-328.72 194.5,-312 162.22,-296.86 128.74,-272.44 108.51,-256.56"/>
<polygon fill="#63b8ff" stroke="#63b8ff" points="110.45,-253.63 100.45,-250.12 106.08,-259.1 110.45,-253.63"/>
</a>
</g>
</g>
<!-- Node4 -->
<g id="Node000004" class="node">
<title>Node4</title>
<g id="a_Node000004"><a xlink:href="../../dc/d12/_material3_d_8h.html" target="_top" xlink:title=" ">
<polygon fill="white" stroke="#666666" points="342,-256 197,-256 197,-224 342,-224 342,-256"/>
<text text-anchor="start" x="205" y="-243.2" font-family="Consolas" font-size="11.00">Material/Material3D</text>
<text text-anchor="middle" x="269.5" y="-231.2" font-family="Consolas" font-size="11.00">/Material3D.h</text>
</a>
</g>
</g>
<!-- Node3&#45;&gt;Node4 -->
<g id="edge3_Node000003_Node000004" class="edge">
<title>Node3&#45;&gt;Node4</title>
<g id="a_edge3_Node000003_Node000004"><a xlink:title=" ">
<path fill="none" stroke="#63b8ff" d="M269.5,-291.89C269.5,-285.1 269.5,-275.48 269.5,-266.44"/>
<polygon fill="#63b8ff" stroke="#63b8ff" points="273,-266.28 269.5,-256.28 266,-266.28 273,-266.28"/>
</a>
</g>
</g>
<!-- Node5 -->
<g id="Node000005" class="node">
<title>Node5</title>
<g id="a_Node000005"><a xlink:href="../../d3/d09/_material_8h.html" target="_top" xlink:title=" ">
<polygon fill="white" stroke="#666666" points="389,-188 244,-188 244,-168 389,-168 389,-188"/>
<text text-anchor="middle" x="316.5" y="-175.2" font-family="Consolas" font-size="11.00">Material/Material.h</text>
</a>
</g>
</g>
<!-- Node4&#45;&gt;Node5 -->
<g id="edge4_Node000004_Node000005" class="edge">
<title>Node4&#45;&gt;Node5</title>
<g id="a_edge4_Node000004_Node000005"><a xlink:title=" ">
<path fill="none" stroke="#63b8ff" d="M281.36,-223.86C287.97,-215.42 296.22,-204.89 303.07,-196.15"/>
<polygon fill="#63b8ff" stroke="#63b8ff" points="305.92,-198.18 309.33,-188.15 300.41,-193.87 305.92,-198.18"/>
</a>
</g>
</g>
<!-- Node6 -->
<g id="Node000006" class="node">
<title>Node6</title>
<g id="a_Node000006"><a xlink:href="../../df/dec/_parameter_type_8h.html" target="_top" xlink:title=" ">
<polygon fill="white" stroke="#666666" points="337.5,-132 219.5,-132 219.5,-112 337.5,-112 337.5,-132"/>
<text text-anchor="middle" x="278.5" y="-119.2" font-family="Consolas" font-size="11.00">ParameterType.h</text>
</a>
</g>
</g>
<!-- Node5&#45;&gt;Node6 -->
<g id="edge5_Node000005_Node000006" class="edge">
<title>Node5&#45;&gt;Node6</title>
<g id="a_edge5_Node000005_Node000006"><a xlink:title=" ">
<path fill="none" stroke="#63b8ff" d="M309.88,-167.59C304.65,-160.16 297.2,-149.58 290.87,-140.58"/>
<polygon fill="#63b8ff" stroke="#63b8ff" points="293.66,-138.46 285.04,-132.3 287.94,-142.49 293.66,-138.46"/>
</a>
</g>
</g>
<!-- Node7 -->
<g id="Node000007" class="node">
<title>Node7</title>
<g id="a_Node000007"><a xlink:href="../../d2/d4a/_tag_8h.html" target="_top" xlink:title=" ">
<polygon fill="white" stroke="#666666" points="562.5,-132 464.5,-132 464.5,-112 562.5,-112 562.5,-132"/>
<text text-anchor="middle" x="513.5" y="-119.2" font-family="Consolas" font-size="11.00">Domain/Tag.h</text>
</a>
</g>
</g>
<!-- Node5&#45;&gt;Node7 -->
<g id="edge6_Node000005_Node000007" class="edge">
<title>Node5&#45;&gt;Node7</title>
<g id="a_edge6_Node000005_Node000007"><a xlink:title=" ">
<path fill="none" stroke="#63b8ff" d="M349.47,-167.96C382.71,-158.85 434.17,-144.74 470.58,-134.77"/>
<polygon fill="#63b8ff" stroke="#63b8ff" points="471.7,-138.09 480.42,-132.07 469.85,-131.34 471.7,-138.09"/>
</a>
</g>
</g>
<!-- Node16 -->
<g id="Node000016" class="node">
<title>Node16</title>
<g id="a_Node000016"><a xlink:title=" ">
<polygon fill="#e0e0e0" stroke="#999999" points="405.5,-132 355.5,-132 355.5,-112 405.5,-112 405.5,-132"/>
<text text-anchor="middle" x="380.5" y="-119.2" font-family="Consolas" font-size="11.00">array</text>
</a>
</g>
</g>
<!-- Node5&#45;&gt;Node16 -->
<g id="edge15_Node000005_Node000016" class="edge">
<title>Node5&#45;&gt;Node16</title>
<g id="a_edge15_Node000005_Node000016"><a xlink:title=" ">
<path fill="none" stroke="#63b8ff" d="M327.36,-167.84C336.79,-159.88 350.67,-148.17 361.87,-138.72"/>
<polygon fill="#63b8ff" stroke="#63b8ff" points="364.42,-141.15 369.8,-132.03 359.9,-135.8 364.42,-141.15"/>
</a>
</g>
</g>
<!-- Node8 -->
<g id="Node000008" class="node">
<title>Node8</title>
<g id="a_Node000008"><a xlink:href="../../d8/d8f/suan_pan_8h.html" target="_top" xlink:title=" ">
<polygon fill="white" stroke="#666666" points="545,-76 468,-76 468,-56 545,-56 545,-76"/>
<text text-anchor="middle" x="506.5" y="-63.2" font-family="Consolas" font-size="11.00">suanPan.h</text>
</a>
</g>
</g>
<!-- Node7&#45;&gt;Node8 -->
<g id="edge7_Node000007_Node000008" class="edge">
<title>Node7&#45;&gt;Node8</title>
<g id="a_edge7_Node000007_Node000008"><a xlink:title=" ">
<path fill="none" stroke="#63b8ff" d="M512.28,-111.59C511.38,-104.63 510.11,-94.89 509,-86.29"/>
<polygon fill="#63b8ff" stroke="#63b8ff" points="512.46,-85.77 507.71,-76.3 505.52,-86.67 512.46,-85.77"/>
</a>
</g>
</g>
<!-- Node9 -->
<g id="Node000009" class="node">
<title>Node9</title>
<g id="a_Node000009"><a xlink:title=" ">
<polygon fill="#e0e0e0" stroke="#999999" points="804,-20 733,-20 733,0 804,0 804,-20"/>
<text text-anchor="middle" x="768.5" y="-7.2" font-family="Consolas" font-size="11.00">iostream</text>
</a>
</g>
</g>
<!-- Node8&#45;&gt;Node9 -->
<g id="edge8_Node000008_Node000009" class="edge">
<title>Node8&#45;&gt;Node9</title>
<g id="a_edge8_Node000008_Node000009"><a xlink:title=" ">
<path fill="none" stroke="#63b8ff" d="M545.16,-57.03C592.43,-47.29 672.35,-30.82 722.67,-20.45"/>
<polygon fill="#63b8ff" stroke="#63b8ff" points="723.54,-23.84 732.63,-18.39 722.13,-16.98 723.54,-23.84"/>
</a>
</g>
</g>
<!-- Node10 -->
<g id="Node000010" class="node">
<title>Node10</title>
<g id="a_Node000010"><a xlink:title=" ">
<polygon fill="#e0e0e0" stroke="#999999" points="332,-20 187,-20 187,0 332,0 332,-20"/>
<text text-anchor="middle" x="259.5" y="-7.2" font-family="Consolas" font-size="11.00">armadillo/armadillo</text>
</a>
</g>
</g>
<!-- Node8&#45;&gt;Node10 -->
<g id="edge9_Node000008_Node000010" class="edge">
<title>Node8&#45;&gt;Node10</title>
<g id="a_edge9_Node000008_Node000010"><a xlink:title=" ">
<path fill="none" stroke="#63b8ff" d="M467.91,-56.56C425.56,-47.3 357.4,-32.4 310.63,-22.18"/>
<polygon fill="#63b8ff" stroke="#63b8ff" points="311.22,-18.72 300.7,-20.01 309.72,-25.56 311.22,-18.72"/>
</a>
</g>
</g>
<!-- Node11 -->
<g id="Node000011" class="node">
<title>Node11</title>
<g id="a_Node000011"><a xlink:title=" ">
<polygon fill="#e0e0e0" stroke="#999999" points="434.5,-20 350.5,-20 350.5,0 434.5,0 434.5,-20"/>
<text text-anchor="middle" x="392.5" y="-7.2" font-family="Consolas" font-size="11.00">filesystem</text>
</a>
</g>
</g>
<!-- Node8&#45;&gt;Node11 -->
<g id="edge10_Node000008_Node000011" class="edge">
<title>Node8&#45;&gt;Node11</title>
<g id="a_edge10_Node000008_Node000011"><a xlink:title=" ">
<path fill="none" stroke="#63b8ff" d="M487.42,-55.96C469.25,-47.36 441.68,-34.3 420.93,-24.47"/>
<polygon fill="#63b8ff" stroke="#63b8ff" points="422.18,-21.19 411.64,-20.07 419.18,-27.51 422.18,-21.19"/>
</a>
</g>
</g>
<!-- Node12 -->
<g id="Node000012" class="node">
<title>Node12</title>
<g id="a_Node000012"><a xlink:title=" ">
<polygon fill="#e0e0e0" stroke="#999999" points="544,-20 453,-20 453,0 544,0 544,-20"/>
<text text-anchor="middle" x="498.5" y="-7.2" font-family="Consolas" font-size="11.00">fmt/color.h</text>
</a>
</g>
</g>
<!-- Node8&#45;&gt;Node12 -->
<g id="edge11_Node000008_Node000012" class="edge">
<title>Node8&#45;&gt;Node12</title>
<g id="a_edge11_Node000008_Node000012"><a xlink:title=" ">
<path fill="none" stroke="#63b8ff" d="M505.11,-55.59C504.07,-48.63 502.63,-38.89 501.36,-30.29"/>
<polygon fill="#63b8ff" stroke="#63b8ff" points="504.81,-29.68 499.88,-20.3 497.88,-30.7 504.81,-29.68"/>
</a>
</g>
</g>
<!-- Node13 -->
<g id="Node000013" class="node">
<title>Node13</title>
<g id="a_Node000013"><a xlink:title=" ">
<polygon fill="#e0e0e0" stroke="#999999" points="612.5,-20 562.5,-20 562.5,0 612.5,0 612.5,-20"/>
<text text-anchor="middle" x="587.5" y="-7.2" font-family="Consolas" font-size="11.00">mutex</text>
</a>
</g>
</g>
<!-- Node8&#45;&gt;Node13 -->
<g id="edge12_Node000008_Node000013" class="edge">
<title>Node8&#45;&gt;Node13</title>
<g id="a_edge12_Node000008_Node000013"><a xlink:title=" ">
<path fill="none" stroke="#63b8ff" d="M520.24,-55.84C532.65,-47.57 551.13,-35.25 565.58,-25.62"/>
<polygon fill="#63b8ff" stroke="#63b8ff" points="567.58,-28.48 573.96,-20.03 563.7,-22.66 567.58,-28.48"/>
</a>
</g>
</g>
<!-- Node14 -->
<g id="Node000014" class="node">
<title>Node14</title>
<g id="a_Node000014"><a xlink:title=" ">
<polygon fill="#e0e0e0" stroke="#999999" points="714.5,-20 630.5,-20 630.5,0 714.5,0 714.5,-20"/>
<text text-anchor="middle" x="672.5" y="-7.2" font-family="Consolas" font-size="11.00">functional</text>
</a>
</g>
</g>
<!-- Node8&#45;&gt;Node14 -->
<g id="edge13_Node000008_Node000014" class="edge">
<title>Node8&#45;&gt;Node14</title>
<g id="a_edge13_Node000008_Node000014"><a xlink:title=" ">
<path fill="none" stroke="#63b8ff" d="M534.28,-55.96C561.82,-47.01 604.18,-33.23 634.75,-23.28"/>
<polygon fill="#63b8ff" stroke="#63b8ff" points="636.2,-26.49 644.62,-20.07 634.03,-19.83 636.2,-26.49"/>
</a>
</g>
</g>
<!-- Node15 -->
<g id="Node000015" class="node">
<title>Node15</title>
<g id="a_Node000015"><a xlink:title=" ">
<polygon fill="#e0e0e0" stroke="#999999" points="154,-20 97,-20 97,0 154,0 154,-20"/>
<text text-anchor="middle" x="125.5" y="-7.2" font-family="Consolas" font-size="11.00">memory</text>
</a>
</g>
</g>
<!-- Node8&#45;&gt;Node15 -->
<g id="edge14_Node000008_Node000015" class="edge">
<title>Node8&#45;&gt;Node15</title>
<g id="a_edge14_Node000008_Node000015"><a xlink:title=" ">
<path fill="none" stroke="#63b8ff" d="M467.94,-60.18C406.43,-52.38 282.33,-36.24 177.5,-20 173.22,-19.34 168.75,-18.61 164.31,-17.87"/>
<polygon fill="#63b8ff" stroke="#63b8ff" points="164.52,-14.36 154.08,-16.13 163.35,-21.26 164.52,-14.36"/>
</a>
</g>
</g>
<!-- Node17&#45;&gt;Node7 -->
<g id="edge17_Node000017_Node000007" class="edge">
<title>Node17&#45;&gt;Node7</title>
<g id="a_edge17_Node000017_Node000007"><a xlink:title=" ">
<path fill="none" stroke="#63b8ff" d="M454.47,-291.91C470.42,-284.72 490.02,-273.03 500.5,-256 522.2,-220.73 519.96,-169.98 516.61,-142.49"/>
<polygon fill="#63b8ff" stroke="#63b8ff" points="520.03,-141.66 515.18,-132.24 513.1,-142.63 520.03,-141.66"/>
</a>
</g>
</g>
<!-- Node18 -->
<g id="Node000018" class="node">
<title>Node18</title>
<g id="a_Node000018"><a xlink:title=" ">
<polygon fill="#e0e0e0" stroke="#999999" points="491,-250 360,-250 360,-230 491,-230 491,-250"/>
<text text-anchor="middle" x="425.5" y="-237.2" font-family="Consolas" font-size="11.00">exprtk/exprtk.hpp</text>
</a>
</g>
</g>
<!-- Node17&#45;&gt;Node18 -->
<g id="edge18_Node000017_Node000018" class="edge">
<title>Node17&#45;&gt;Node18</title>
<g id="a_edge18_Node000017_Node000018"><a xlink:title=" ">
<path fill="none" stroke="#63b8ff" d="M428.89,-291.89C428.33,-283.52 427.49,-270.84 426.78,-260.23"/>
<polygon fill="#63b8ff" stroke="#63b8ff" points="430.27,-259.94 426.11,-250.2 423.29,-260.41 430.27,-259.94"/>
</a>
</g>
</g>
<!-- Node19&#45;&gt;Node15 -->
<g id="edge20_Node000019_Node000015" class="edge">
<title>Node19&#45;&gt;Node15</title>
<g id="a_edge20_Node000019_Node000015"><a xlink:title=" ">
<path fill="none" stroke="#63b8ff" d="M90.96,-229.78C96.33,-195.76 115.1,-76.85 122.49,-30.09"/>
<polygon fill="#63b8ff" stroke="#63b8ff" points="125.96,-30.51 124.07,-20.09 119.05,-29.42 125.96,-30.51"/>
</a>
</g>
</g>
<!-- Node20&#45;&gt;Node7 -->
<g id="edge23_Node000020_Node000007" class="edge">
<title>Node20&#45;&gt;Node7</title>
<g id="a_edge23_Node000020_Node000007"><a xlink:title=" ">
<path fill="none" stroke="#63b8ff" d="M602.35,-167.84C585.34,-159.25 559.7,-146.31 540.32,-136.54"/>
<polygon fill="#63b8ff" stroke="#63b8ff" points="541.89,-133.41 531.38,-132.03 538.73,-139.66 541.89,-133.41"/>
</a>
</g>
</g>
<!-- Node21 -->
<g id="Node000021" class="node">
<title>Node21</title>
<g id="a_Node000021"><a xlink:title=" ">
<polygon fill="#e0e0e0" stroke="#999999" points="647,-132 590,-132 590,-112 647,-112 647,-132"/>
<text text-anchor="middle" x="618.5" y="-119.2" font-family="Consolas" font-size="11.00">future</text>
</a>
</g>
</g>
<!-- Node20&#45;&gt;Node21 -->
<g id="edge22_Node000020_Node000021" class="edge">
<title>Node20&#45;&gt;Node21</title>
<g id="a_edge22_Node000020_Node000021"><a xlink:title=" ">
<path fill="none" stroke="#63b8ff" d="M620.15,-167.59C619.9,-160.7 619.54,-151.1 619.22,-142.57"/>
<polygon fill="#63b8ff" stroke="#63b8ff" points="622.71,-142.16 618.84,-132.3 615.72,-142.42 622.71,-142.16"/>
</a>
</g>
</g>
<!-- Node22 -->
<g id="Node000022" class="node">
<title>Node22</title>
<g id="a_Node000022"><a xlink:href="../../d4/ddd/container_8h.html" target="_top" xlink:title=" ">
<polygon fill="white" stroke="#666666" points="810,-132 665,-132 665,-112 810,-112 810,-132"/>
<text text-anchor="middle" x="737.5" y="-119.2" font-family="Consolas" font-size="11.00">Toolbox/container.h</text>
</a>
</g>
</g>
<!-- Node20&#45;&gt;Node22 -->
<g id="edge24_Node000020_Node000022" class="edge">
<title>Node20&#45;&gt;Node22</title>
<g id="a_edge24_Node000020_Node000022"><a xlink:title=" ">
<path fill="none" stroke="#63b8ff" d="M640.08,-167.96C658.81,-159.32 687.28,-146.18 708.61,-136.33"/>
<polygon fill="#63b8ff" stroke="#63b8ff" points="710.24,-139.44 717.85,-132.07 707.31,-133.08 710.24,-139.44"/>
</a>
</g>
</g>
<!-- Node22&#45;&gt;Node8 -->
<g id="edge25_Node000022_Node000008" class="edge">
<title>Node22&#45;&gt;Node8</title>
<g id="a_edge25_Node000022_Node000008"><a xlink:title=" ">
<path fill="none" stroke="#63b8ff" d="M698.84,-111.96C659.36,-102.73 597.97,-88.38 555.2,-78.38"/>
<polygon fill="#63b8ff" stroke="#63b8ff" points="555.82,-74.94 545.29,-76.07 554.23,-81.75 555.82,-74.94"/>
</a>
</g>
</g>
<!-- Node23 -->
<g id="Node000023" class="node">
<title>Node23</title>
<g id="a_Node000023"><a xlink:title=" ">
<polygon fill="#e0e0e0" stroke="#999999" points="845,-76 808,-76 808,-56 845,-56 845,-76"/>
<text text-anchor="middle" x="826.5" y="-63.2" font-family="Consolas" font-size="11.00">set</text>
</a>
</g>
</g>
<!-- Node22&#45;&gt;Node23 -->
<g id="edge26_Node000022_Node000023" class="edge">
<title>Node22&#45;&gt;Node23</title>
<g id="a_edge26_Node000022_Node000023"><a xlink:title=" ">
<path fill="none" stroke="#63b8ff" d="M752.6,-111.84C766.36,-103.49 786.92,-91.02 802.86,-81.34"/>
<polygon fill="#63b8ff" stroke="#63b8ff" points="804.89,-84.2 811.63,-76.03 801.26,-78.22 804.89,-84.2"/>
</a>
</g>
</g>
<!-- Node24 -->
<g id="Node000024" class="node">
<title>Node24</title>
<g id="a_Node000024"><a xlink:title=" ">
<polygon fill="#e0e0e0" stroke="#999999" points="900,-76 863,-76 863,-56 900,-56 900,-76"/>
<text text-anchor="middle" x="881.5" y="-63.2" font-family="Consolas" font-size="11.00">map</text>
</a>
</g>
</g>
<!-- Node22&#45;&gt;Node24 -->
<g id="edge27_Node000022_Node000024" class="edge">
<title>Node22&#45;&gt;Node24</title>
<g id="a_edge27_Node000022_Node000024"><a xlink:title=" ">
<path fill="none" stroke="#63b8ff" d="M761.6,-111.96C786.88,-102.48 826.56,-87.6 853.28,-77.58"/>
<polygon fill="#63b8ff" stroke="#63b8ff" points="854.69,-80.79 862.83,-74 852.24,-74.24 854.69,-80.79"/>
</a>
</g>
</g>
<!-- Node25 -->
<g id="Node000025" class="node">
<title>Node25</title>
<g id="a_Node000025"><a xlink:title=" ">
<polygon fill="#e0e0e0" stroke="#999999" points="667.5,-76 563.5,-76 563.5,-56 667.5,-56 667.5,-76"/>
<text text-anchor="middle" x="615.5" y="-63.2" font-family="Consolas" font-size="11.00">unordered_set</text>
</a>
</g>
</g>
<!-- Node22&#45;&gt;Node25 -->
<g id="edge28_Node000022_Node000025" class="edge">
<title>Node22&#45;&gt;Node25</title>
<g id="a_edge28_Node000022_Node000025"><a xlink:title=" ">
<path fill="none" stroke="#63b8ff" d="M717.08,-111.96C697.46,-103.28 667.6,-90.06 645.32,-80.2"/>
<polygon fill="#63b8ff" stroke="#63b8ff" points="646.55,-76.91 635.99,-76.07 643.71,-83.32 646.55,-76.91"/>
</a>
</g>
</g>
<!-- Node26 -->
<g id="Node000026" class="node">
<title>Node26</title>
<g id="a_Node000026"><a xlink:title=" ">
<polygon fill="#e0e0e0" stroke="#999999" points="789.5,-76 685.5,-76 685.5,-56 789.5,-56 789.5,-76"/>
<text text-anchor="middle" x="737.5" y="-63.2" font-family="Consolas" font-size="11.00">unordered_map</text>
</a>
</g>
</g>
<!-- Node22&#45;&gt;Node26 -->
<g id="edge29_Node000022_Node000026" class="edge">
<title>Node22&#45;&gt;Node26</title>
<g id="a_edge29_Node000022_Node000026"><a xlink:title=" ">
<path fill="none" stroke="#63b8ff" d="M737.5,-111.59C737.5,-104.7 737.5,-95.1 737.5,-86.57"/>
<polygon fill="#63b8ff" stroke="#63b8ff" points="741,-86.3 737.5,-76.3 734,-86.3 741,-86.3"/>
</a>
</g>
</g>
</g>
</svg>

<g id="navigator" transform="translate(0 0)" fill="#404254">
  <rect fill="#f2f5e9" fill-opacity="0.5" stroke="#606060" stroke-width=".5" x="0" y="0" width="60" height="60"/>
  <use id="zoomplus" xlink:href="#zoomPlus" x="17" y="9" onmousedown="handleZoom(evt,'in')"/>
  <use id="zoomminus" xlink:href="#zoomMin" x="42" y="9" onmousedown="handleZoom(evt,'out')"/>
  <use id="reset" xlink:href="#resetDef" x="30" y="36" onmousedown="handleReset()"/>
   <use id="arrowup" xlink:href="#arrowUp" x="0" y="0" onmousedown="handlePan(0,-1)"/>
  <use id="arrowright" xlink:href="#arrowRight" x="0" y="0" onmousedown="handlePan(1,0)"/>
  <use id="arrowdown" xlink:href="#arrowDown" x="0" y="0" onmousedown="handlePan(0,1)"/>
  <use id="arrowleft" xlink:href="#arrowLeft" x="0" y="0" onmousedown="handlePan(-1,0)"/>
</g>
<svg viewBox="0 0 15 15" width="100%" height="30px" preserveAspectRatio="xMaxYMin meet">
 <g id="arrow_out" transform="scale(0.3 0.3)">
  <a xlink:href="_custom_gurson_8cpp__incl_org.svg" target="_base">
   <rect id="button" ry="5" rx="5" y="6" x="6" height="38" width="38"
        fill="#f2f5e9" fill-opacity="0.5" stroke="#606060" stroke-width="1.0"/>
   <path id="arrow"
     d="M 11.500037,31.436501 C 11.940474,20.09759 22.043105,11.32322 32.158766,21.979434 L 37.068811,17.246167 C 37.068811,17.246167 37.088388,32 37.088388,32 L 22.160133,31.978069 C 22.160133,31.978069 26.997745,27.140456 26.997745,27.140456 C 18.528582,18.264221 13.291696,25.230495 11.500037,31.436501 z"
     style="fill:#404040;"/>
  </a>
 </g>
</svg>

<style type='text/css'>
<![CDATA[
[data-mouse-over-selected='false'] { opacity: 0.7; }
[data-mouse-over-selected='true']  { opacity: 1.0; }
]]>
</style>
<script type="application/ecmascript"><![CDATA[
document.addEventListener('DOMContentLoaded', (event) => {
  highlightEdges();
  highlightAdjacentNodes();
});
]]></script>
</svg>
