<?xml version="1.0" encoding="UTF-8" standalone="no"?>
<!DOCTYPE svg PUBLIC "-//W3C//DTD SVG 1.1//EN"
 "http://www.w3.org/Graphics/SVG/1.1/DTD/svg11.dtd">
<!-- Generated by graphviz version 2.43.0 (0)
 -->
<!-- Title: SlipLock::update_trial_status Pages: 1 -->
<!--zoomable 107 -->
<svg id="main" version="1.1" xmlns="http://www.w3.org/2000/svg" xmlns:xlink="http://www.w3.org/1999/xlink" xml:space="preserve" onload="init(evt)">
<style type="text/css"><![CDATA[
.edge:hover path { stroke: red; }
.edge:hover polygon { stroke: red; fill: red; }
]]></style>
<script type="text/javascript"><![CDATA[
var edges = document.getElementsByTagName('g');
if (edges && edges.length) {
  for (var i=0;i<edges.length;i++) {
    if (edges[i].id.substr(0,4)=='edge') {
      edges[i].setAttribute('class','edge');
    }
  }
}
]]></script>
        <defs>
                <circle id="rim" cx="0" cy="0" r="7"/>
                <circle id="rim2" cx="0" cy="0" r="3.5"/>
                <g id="zoomPlus">
                        <use xlink:href="#rim" fill="#404040">
                                <set attributeName="fill" to="#808080" begin="zoomplus.mouseover" end="zoomplus.mouseout"/>
                        </use>
                        <path d="M-4,0h8M0,-4v8" fill="none" stroke="white" stroke-width="1.5" pointer-events="none"/>
                </g>
                <g id="zoomMin">
                        <use xlink:href="#rim" fill="#404040">
                                <set attributeName="fill" to="#808080" begin="zoomminus.mouseover" end="zoomminus.mouseout"/>
                        </use>
                        <path d="M-4,0h8" fill="none" stroke="white" stroke-width="1.5" pointer-events="none"/>
                </g>
                <g id="dirArrow">
                        <path fill="none" stroke="white" stroke-width="1.5" d="M0,-3.0v7 M-2.5,-0.5L0,-3.0L2.5,-0.5"/>
                </g>
               <g id="resetDef">
                       <use xlink:href="#rim2" fill="#404040">
                               <set attributeName="fill" to="#808080" begin="reset.mouseover" end="reset.mouseout"/>
                       </use>
               </g>
        </defs>

<script type="text/javascript">
var viewWidth = 682;
var viewHeight = 107;
var sectionId = 'dynsection-5';
</script>
<script xlink:href="../../svgpan.js"/>
<svg id="graph" class="graph">
<g id="viewport">
<title>SlipLock::update_trial_status</title>
<polygon fill="white" stroke="transparent" points="-4,4 -4,-103 678,-103 678,4 -4,4"/>
<!-- Node1 -->
<g id="node1" class="node">
<title>Node1</title>
<g id="a_node1"><a xlink:title=" ">
<polygon fill="#bfbfbf" stroke="black" points="0,-33.5 0,-65.5 165,-65.5 165,-33.5 0,-33.5"/>
<text text-anchor="start" x="8" y="-52.7" font-family="Consolas" font-size="11.00">SlipLock::update_trial</text>
<text text-anchor="middle" x="82.5" y="-40.7" font-family="Consolas" font-size="11.00">_status</text>
</a>
</g>
</g>
<!-- Node2 -->
<g id="node2" class="node">
<title>Node2</title>
<g id="a_node2"><a xlink:href="../../d6/d9c/namespacesuanpan.html#a342de6f7d195ae0f3ee9500959972e1c" target="_top" xlink:title=" ">
<polygon fill="white" stroke="black" points="201,-78.5 201,-98.5 359,-98.5 359,-78.5 201,-78.5"/>
<text text-anchor="middle" x="280" y="-85.7" font-family="Consolas" font-size="11.00">suanpan::approx_equal</text>
</a>
</g>
</g>
<!-- Node1&#45;&gt;Node2 -->
<g id="edge1" class="edge">
<title>Node1&#45;&gt;Node2</title>
<path fill="none" stroke="midnightblue" d="M163.86,-65.53C182.18,-69.18 201.33,-73.01 218.64,-76.46"/>
<polygon fill="midnightblue" stroke="midnightblue" points="218.11,-79.92 228.6,-78.45 219.48,-73.06 218.11,-79.92"/>
</g>
<!-- Node3 -->
<g id="node3" class="node">
<title>Node3</title>
<g id="a_node3"><a xlink:href="../../d6/d9c/namespacesuanpan.html#a6364aee09d05c5aea905aa0df10bf22a" target="_top" xlink:title=" ">
<polygon fill="white" stroke="black" points="224.5,-39.5 224.5,-59.5 335.5,-59.5 335.5,-39.5 224.5,-39.5"/>
<text text-anchor="middle" x="280" y="-46.7" font-family="Consolas" font-size="11.00">suanpan::error</text>
</a>
</g>
</g>
<!-- Node1&#45;&gt;Node3 -->
<g id="edge2" class="edge">
<title>Node1&#45;&gt;Node3</title>
<path fill="none" stroke="midnightblue" d="M165.28,-49.5C181.58,-49.5 198.5,-49.5 214.15,-49.5"/>
<polygon fill="midnightblue" stroke="midnightblue" points="214.23,-53 224.23,-49.5 214.23,-46 214.23,-53"/>
</g>
<!-- Node6 -->
<g id="node6" class="node">
<title>Node6</title>
<g id="a_node6"><a xlink:href="../../d6/d9c/namespacesuanpan.html#a8aed34b0f9bb5a42d369fa9c7bbbd5ce" target="_top" xlink:title=" ">
<polygon fill="white" stroke="black" points="228,-0.5 228,-20.5 332,-20.5 332,-0.5 228,-0.5"/>
<text text-anchor="middle" x="280" y="-7.7" font-family="Consolas" font-size="11.00">suanpan::sign</text>
</a>
</g>
</g>
<!-- Node1&#45;&gt;Node6 -->
<g id="edge6" class="edge">
<title>Node1&#45;&gt;Node6</title>
<path fill="none" stroke="midnightblue" d="M163.86,-33.47C182.18,-29.82 201.33,-25.99 218.64,-22.54"/>
<polygon fill="midnightblue" stroke="midnightblue" points="219.48,-25.94 228.6,-20.55 218.11,-19.08 219.48,-25.94"/>
</g>
<!-- Node4 -->
<g id="node4" class="node">
<title>Node4</title>
<g id="a_node4"><a xlink:href="../../d6/d9c/namespacesuanpan.html#af26b1f056af3bc51fd1e9730a6f8f5d5" target="_top" xlink:title=" ">
<polygon fill="white" stroke="black" points="395,-39.5 395,-59.5 520,-59.5 520,-39.5 395,-39.5"/>
<text text-anchor="middle" x="457.5" y="-46.7" font-family="Consolas" font-size="11.00">suanpan::pattern</text>
</a>
</g>
</g>
<!-- Node3&#45;&gt;Node4 -->
<g id="edge3" class="edge">
<title>Node3&#45;&gt;Node4</title>
<path fill="none" stroke="midnightblue" d="M335.57,-49.5C351.15,-49.5 368.37,-49.5 384.81,-49.5"/>
<polygon fill="midnightblue" stroke="midnightblue" points="384.92,-53 394.92,-49.5 384.92,-46 384.92,-53"/>
</g>
<!-- Node4&#45;&gt;Node4 -->
<g id="edge5" class="edge">
<title>Node4&#45;&gt;Node4</title>
<path fill="none" stroke="midnightblue" d="M433.08,-59.73C421.94,-68.61 430.08,-78 457.5,-78 475.5,-78 485.19,-73.95 486.58,-68.66"/>
<polygon fill="midnightblue" stroke="midnightblue" points="489.65,-66.98 481.92,-59.73 483.44,-70.21 489.65,-66.98"/>
</g>
<!-- Node5 -->
<g id="node5" class="node">
<title>Node5</title>
<g id="a_node5"><a xlink:href="../../d6/d9c/namespacesuanpan.html#a7509b04c98e321594a56d969e4e717d7" target="_top" xlink:title=" ">
<polygon fill="white" stroke="black" points="556,-39.5 556,-59.5 674,-59.5 674,-39.5 556,-39.5"/>
<text text-anchor="middle" x="615" y="-46.7" font-family="Consolas" font-size="11.00">suanpan::format</text>
</a>
</g>
</g>
<!-- Node4&#45;&gt;Node5 -->
<g id="edge4" class="edge">
<title>Node4&#45;&gt;Node5</title>
<path fill="none" stroke="midnightblue" d="M520.4,-49.5C528.71,-49.5 537.28,-49.5 545.69,-49.5"/>
<polygon fill="midnightblue" stroke="midnightblue" points="545.85,-53 555.85,-49.5 545.85,-46 545.85,-53"/>
</g>
</g>
</svg>
        <g id="navigator" transform="translate(0 0)" fill="#404254">
                <rect fill="#f2f5e9" fill-opacity="0.5" stroke="#606060" stroke-width=".5" x="0" y="0" width="60" height="60"/>
                <use id="zoomplus" xlink:href="#zoomPlus" x="17" y="9" onmousedown="handleZoom(evt,'in')"/>
                <use id="zoomminus" xlink:href="#zoomMin" x="42" y="9" onmousedown="handleZoom(evt,'out')"/>
                <use id="reset" xlink:href="#resetDef" x="30" y="36" onmousedown="handleReset()"/>
                <g id="arrowUp" xlink:href="#dirArrow" transform="translate(30 24)" onmousedown="handlePan(0,-1)">
                  <use xlink:href="#rim" fill="#404040">
                        <set attributeName="fill" to="#808080" begin="arrowUp.mouseover" end="arrowUp.mouseout"/>
                  </use>
                  <path fill="none" stroke="white" stroke-width="1.5" d="M0,-3.0v7 M-2.5,-0.5L0,-3.0L2.5,-0.5"/>
                </g>
                <g id="arrowRight" xlink:href="#dirArrow" transform="rotate(90) translate(36 -43)" onmousedown="handlePan(1,0)">
                  <use xlink:href="#rim" fill="#404040">
                        <set attributeName="fill" to="#808080" begin="arrowRight.mouseover" end="arrowRight.mouseout"/>
                  </use>
                  <path fill="none" stroke="white" stroke-width="1.5" d="M0,-3.0v7 M-2.5,-0.5L0,-3.0L2.5,-0.5"/>
                </g>
                <g id="arrowDown" xlink:href="#dirArrow" transform="rotate(180) translate(-30 -48)" onmousedown="handlePan(0,1)">
                  <use xlink:href="#rim" fill="#404040">
                        <set attributeName="fill" to="#808080" begin="arrowDown.mouseover" end="arrowDown.mouseout"/>
                  </use>
                  <path fill="none" stroke="white" stroke-width="1.5" d="M0,-3.0v7 M-2.5,-0.5L0,-3.0L2.5,-0.5"/>
                </g>
                <g id="arrowLeft" xlink:href="#dirArrow" transform="rotate(270) translate(-36 17)" onmousedown="handlePan(-1,0)">
                  <use xlink:href="#rim" fill="#404040">
                        <set attributeName="fill" to="#808080" begin="arrowLeft.mouseover" end="arrowLeft.mouseout"/>
                  </use>
                  <path fill="none" stroke="white" stroke-width="1.5" d="M0,-3.0v7 M-2.5,-0.5L0,-3.0L2.5,-0.5"/>
                </g>
        </g>
        <svg viewBox="0 0 15 15" width="100%" height="30px" preserveAspectRatio="xMaxYMin meet">
         <g id="arrow_out" transform="scale(0.3 0.3)">
          <a xlink:href="class_slip_lock_a69be9b40189b1c62792091910c0191e9_cgraph_org.svg" target="_base">
           <rect id="button" ry="5" rx="5" y="6" x="6" height="38" width="38"
                fill="#f2f5e9" fill-opacity="0.5" stroke="#606060" stroke-width="1.0"/>
           <path id="arrow"
             d="M 11.500037,31.436501 C 11.940474,20.09759 22.043105,11.32322 32.158766,21.979434 L 37.068811,17.246167 C 37.068811,17.246167 37.088388,32 37.088388,32 L 22.160133,31.978069 C 22.160133,31.978069 26.997745,27.140456 26.997745,27.140456 C 18.528582,18.264221 13.291696,25.230495 11.500037,31.436501 z"
             style="fill:#404040;"/>
          </a>
         </g>
        </svg>
</svg>
