<?xml version="1.0" encoding="UTF-8" standalone="no"?>
<!DOCTYPE svg PUBLIC "-//W3C//DTD SVG 1.1//EN"
 "http://www.w3.org/Graphics/SVG/1.1/DTD/svg11.dtd">
<!-- Generated by graphviz version 2.43.0 (0)
 -->
<!-- Title: Subloading1D Pages: 1 -->
<svg width="1358pt" height="1187pt"
 viewBox="0.00 0.00 1357.98 1187.00" xmlns="http://www.w3.org/2000/svg" xmlns:xlink="http://www.w3.org/1999/xlink">
<g id="graph0" class="graph" transform="scale(1 1) rotate(0) translate(4 1183)">
<title>Subloading1D</title>
<!-- Node1 -->
<g id="Node000001" class="node">
<title>Node1</title>
<g id="a_Node000001"><a xlink:title="A Subloading1D material class.">
<polygon fill="#999999" stroke="transparent" points="640.98,-164 479.98,-164 479.98,0 640.98,0 640.98,-164"/>
<text text-anchor="start" x="519.98" y="-151.2" font-family="Consolas" font-size="11.00">Subloading1D</text>
<text text-anchor="start" x="557.48" y="-135.2" font-family="Consolas" font-size="11.00"> </text>
<text text-anchor="start" x="484.48" y="-119.2" font-family="Consolas" font-size="11.00">+</text>
<text text-anchor="start" x="495.48" y="-119.2" font-family="Consolas" font-size="11.00">Subloading1D()</text>
<text text-anchor="start" x="484.48" y="-103.2" font-family="Consolas" font-size="11.00">+</text>
<text text-anchor="start" x="495.48" y="-103.2" font-family="Consolas" font-size="11.00">initialize()</text>
<text text-anchor="start" x="484.48" y="-87.2" font-family="Consolas" font-size="11.00">+</text>
<text text-anchor="start" x="495.48" y="-87.2" font-family="Consolas" font-size="11.00">get_copy()</text>
<text text-anchor="start" x="484.48" y="-71.2" font-family="Consolas" font-size="11.00">+</text>
<text text-anchor="start" x="495.48" y="-71.2" font-family="Consolas" font-size="11.00">update_trial_status()</text>
<text text-anchor="start" x="484.48" y="-55.2" font-family="Consolas" font-size="11.00">+</text>
<text text-anchor="start" x="495.48" y="-55.2" font-family="Consolas" font-size="11.00">clear_status()</text>
<text text-anchor="start" x="484.48" y="-39.2" font-family="Consolas" font-size="11.00">+</text>
<text text-anchor="start" x="495.48" y="-39.2" font-family="Consolas" font-size="11.00">commit_status()</text>
<text text-anchor="start" x="484.48" y="-23.2" font-family="Consolas" font-size="11.00">+</text>
<text text-anchor="start" x="495.48" y="-23.2" font-family="Consolas" font-size="11.00">reset_status()</text>
<text text-anchor="start" x="484.48" y="-7.2" font-family="Consolas" font-size="11.00">+</text>
<text text-anchor="start" x="495.48" y="-7.2" font-family="Consolas" font-size="11.00">print()</text>
<polygon fill="#666666" stroke="#666666" points="480.48,-146 480.48,-146 641.48,-146 641.48,-146 480.48,-146"/>
<polygon fill="#666666" stroke="#666666" points="480.48,-130 480.48,-130 641.48,-130 641.48,-130 480.48,-130"/>
<polygon fill="none" stroke="#666666" points="479.98,0 479.98,-164 640.98,-164 640.98,0 479.98,0"/>
</a>
</g>
</g>
<!-- Node2 -->
<g id="Node000002" class="node">
<title>Node2</title>
<g id="a_Node000002"><a xlink:href="../../da/dcb/struct_data_subloading1_d.html" target="_top" xlink:title=" ">
<polygon fill="white" stroke="transparent" points="365.98,-695 246.98,-695 246.98,-611 365.98,-611 365.98,-695"/>
<text text-anchor="start" x="252.48" y="-682.2" font-family="Consolas" font-size="11.00">DataSubloading1D</text>
<text text-anchor="start" x="252.48" y="-666.2" font-family="Consolas" font-size="11.00">+</text>
<text text-anchor="start" x="264.48" y="-666.2" font-family="Consolas" font-size="11.00">saturation_iso</text>
<text text-anchor="start" x="252.48" y="-650.2" font-family="Consolas" font-size="11.00">+</text>
<text text-anchor="start" x="264.48" y="-650.2" font-family="Consolas" font-size="11.00">saturation_kin</text>
<text text-anchor="start" x="252.48" y="-634.2" font-family="Consolas" font-size="11.00">+</text>
<text text-anchor="start" x="264.48" y="-634.2" font-family="Consolas" font-size="11.00">u</text>
<text text-anchor="start" x="303.48" y="-618.2" font-family="Consolas" font-size="11.00"> </text>
<polygon fill="#666666" stroke="#666666" points="247.48,-677 247.48,-677 366.48,-677 366.48,-677 247.48,-677"/>
<polygon fill="#666666" stroke="#666666" points="247.48,-629 247.48,-629 262.48,-629 262.48,-629 247.48,-629"/>
<polygon fill="#666666" stroke="#666666" points="262.48,-629 262.48,-629 366.48,-629 366.48,-629 262.48,-629"/>
<polygon fill="none" stroke="#666666" points="246.98,-611 246.98,-695 365.98,-695 365.98,-611 246.98,-611"/>
</a>
</g>
</g>
<!-- Node2&#45;&gt;Node1 -->
<g id="edge1_Node000001_Node000002" class="edge">
<title>Node2&#45;&gt;Node1</title>
<g id="a_edge1_Node000001_Node000002"><a xlink:title=" ">
<path fill="none" stroke="darkgreen" d="M329.04,-601.45C373.12,-502.71 470.99,-283.46 524.25,-164.16"/>
<polygon fill="none" stroke="darkgreen" points="325.83,-600.06 324.95,-610.62 332.22,-602.92 325.83,-600.06"/>
</a>
</g>
</g>
<!-- Node3 -->
<g id="Node000003" class="node">
<title>Node3</title>
<g id="a_Node000003"><a xlink:title=" ">
<polygon fill="white" stroke="transparent" points="106.98,-1067 55.98,-1067 55.98,-1015 106.98,-1015 106.98,-1067"/>
<text text-anchor="start" x="61.48" y="-1054.2" font-family="Consolas" font-size="11.00">double</text>
<text text-anchor="start" x="78.48" y="-1038.2" font-family="Consolas" font-size="11.00"> </text>
<text text-anchor="start" x="78.48" y="-1022.2" font-family="Consolas" font-size="11.00"> </text>
<polygon fill="#666666" stroke="#666666" points="56.48,-1049 56.48,-1049 107.48,-1049 107.48,-1049 56.48,-1049"/>
<polygon fill="#666666" stroke="#666666" points="56.48,-1033 56.48,-1033 107.48,-1033 107.48,-1033 56.48,-1033"/>
<polygon fill="none" stroke="#666666" points="55.98,-1015 55.98,-1067 106.98,-1067 106.98,-1015 55.98,-1015"/>
</a>
</g>
</g>
<!-- Node3&#45;&gt;Node2 -->
<g id="edge2_Node000002_Node000003" class="edge">
<title>Node3&#45;&gt;Node2</title>
<g id="a_edge2_Node000002_Node000003"><a xlink:title=" ">
<path fill="none" stroke="#63b8ff" d="M64.67,-1014.72C31.44,-961.24 -34.62,-834.88 23.48,-753 71.05,-685.96 167.62,-663.96 234.63,-656.94"/>
<polygon fill="none" stroke="#63b8ff" points="234.84,-656.92 240.44,-652.38 246.78,-655.8 241.19,-660.34 234.84,-656.92"/>
</a>
</g>
<text text-anchor="middle" x="64.48" y="-876.2" font-family="Consolas" font-size="11.00" fill="grey"> +cv</text>
<text text-anchor="middle" x="64.48" y="-864.2" font-family="Consolas" font-size="11.00" fill="grey">+elastic</text>
<text text-anchor="middle" x="64.48" y="-852.2" font-family="Consolas" font-size="11.00" fill="grey">+initial_iso</text>
<text text-anchor="middle" x="64.48" y="-840.2" font-family="Consolas" font-size="11.00" fill="grey">+initial_kin</text>
<text text-anchor="middle" x="64.48" y="-828.2" font-family="Consolas" font-size="11.00" fill="grey">+k_iso</text>
<text text-anchor="middle" x="64.48" y="-816.2" font-family="Consolas" font-size="11.00" fill="grey">+k_kin</text>
<text text-anchor="middle" x="64.48" y="-804.2" font-family="Consolas" font-size="11.00" fill="grey">+m_iso</text>
<text text-anchor="middle" x="64.48" y="-792.2" font-family="Consolas" font-size="11.00" fill="grey">+m_kin</text>
<text text-anchor="middle" x="64.48" y="-780.2" font-family="Consolas" font-size="11.00" fill="grey">+mu</text>
<text text-anchor="middle" x="64.48" y="-768.2" font-family="Consolas" font-size="11.00" fill="grey">+nv</text>
<text text-anchor="middle" x="64.48" y="-756.2" font-family="Consolas" font-size="11.00" fill="grey">...</text>
</g>
<!-- Node7 -->
<g id="Node000007" class="node">
<title>Node7</title>
<g id="a_Node000007"><a xlink:href="../../de/de9/struct_data_material.html" target="_top" xlink:title=" ">
<polygon fill="white" stroke="transparent" points="634.48,-711 500.48,-711 500.48,-595 634.48,-595 634.48,-711"/>
<text text-anchor="start" x="526.48" y="-698.2" font-family="Consolas" font-size="11.00">DataMaterial</text>
<text text-anchor="start" x="504.48" y="-682.2" font-family="Consolas" font-size="11.00">+</text>
<text text-anchor="start" x="515.48" y="-682.2" font-family="Consolas" font-size="11.00">trial_strain</text>
<text text-anchor="start" x="504.48" y="-666.2" font-family="Consolas" font-size="11.00">+</text>
<text text-anchor="start" x="515.48" y="-666.2" font-family="Consolas" font-size="11.00">trial_strain_rate</text>
<text text-anchor="start" x="504.48" y="-650.2" font-family="Consolas" font-size="11.00">+</text>
<text text-anchor="start" x="515.48" y="-650.2" font-family="Consolas" font-size="11.00">trial_strain_acc</text>
<text text-anchor="start" x="504.48" y="-634.2" font-family="Consolas" font-size="11.00">+</text>
<text text-anchor="start" x="515.48" y="-634.2" font-family="Consolas" font-size="11.00">trial_stress</text>
<text text-anchor="start" x="504.48" y="-618.2" font-family="Consolas" font-size="11.00">+</text>
<text text-anchor="start" x="515.48" y="-618.2" font-family="Consolas" font-size="11.00">trial_history</text>
<text text-anchor="start" x="563.98" y="-602.2" font-family="Consolas" font-size="11.00"> </text>
<polygon fill="#666666" stroke="#666666" points="500.48,-693 500.48,-693 634.48,-693 634.48,-693 500.48,-693"/>
<polygon fill="#666666" stroke="#666666" points="500.48,-613 500.48,-613 513.48,-613 513.48,-613 500.48,-613"/>
<polygon fill="#666666" stroke="#666666" points="513.48,-613 513.48,-613 634.48,-613 634.48,-613 513.48,-613"/>
<polygon fill="none" stroke="#666666" points="500.48,-595 500.48,-711 634.48,-711 634.48,-595 500.48,-595"/>
</a>
</g>
</g>
<!-- Node3&#45;&gt;Node7 -->
<g id="edge7_Node000007_Node000003" class="edge">
<title>Node3&#45;&gt;Node7</title>
<g id="a_edge7_Node000007_Node000003"><a xlink:title=" ">
<path fill="none" stroke="#63b8ff" d="M85.47,-1014.78C90.3,-984.11 98.64,-930.78 105.48,-885 109.85,-855.69 102.79,-773.19 124.48,-753 144.94,-733.95 348.29,-741.52 375.48,-735 414.19,-725.71 455.11,-709.44 489.17,-693.9"/>
<polygon fill="none" stroke="#63b8ff" points="489.56,-693.72 493.33,-687.57 500.45,-688.68 496.69,-694.83 489.56,-693.72"/>
</a>
</g>
<text text-anchor="middle" x="202.48" y="-828.2" font-family="Consolas" font-size="11.00" fill="grey"> +characteristic_length</text>
<text text-anchor="middle" x="202.48" y="-816.2" font-family="Consolas" font-size="11.00" fill="grey">+density</text>
<text text-anchor="middle" x="202.48" y="-804.2" font-family="Consolas" font-size="11.00" fill="grey">+tolerance</text>
</g>
<!-- Node4 -->
<g id="Node000004" class="node">
<title>Node4</title>
<g id="a_Node000004"><a xlink:title=" ">
<polygon fill="white" stroke="transparent" points="310.98,-1073 137.98,-1073 137.98,-1009 310.98,-1009 310.98,-1073"/>
<text text-anchor="start" x="143.48" y="-1060.2" font-family="Consolas" font-size="11.00">vector&lt; DataSubloading1D</text>
<text text-anchor="start" x="177.48" y="-1048.2" font-family="Consolas" font-size="11.00">::Saturation &gt;</text>
<text text-anchor="start" x="221.48" y="-1032.2" font-family="Consolas" font-size="11.00"> </text>
<text text-anchor="start" x="221.48" y="-1016.2" font-family="Consolas" font-size="11.00"> </text>
<polygon fill="#666666" stroke="#666666" points="138.48,-1043 138.48,-1043 311.48,-1043 311.48,-1043 138.48,-1043"/>
<polygon fill="#666666" stroke="#666666" points="138.48,-1027 138.48,-1027 311.48,-1027 311.48,-1027 138.48,-1027"/>
<polygon fill="none" stroke="#666666" points="137.98,-1009 137.98,-1073 310.98,-1073 310.98,-1009 137.98,-1009"/>
</a>
</g>
</g>
<!-- Node4&#45;&gt;Node2 -->
<g id="edge3_Node000002_Node000004" class="edge">
<title>Node4&#45;&gt;Node2</title>
<g id="a_edge3_Node000002_Node000004"><a xlink:title=" ">
<path fill="none" stroke="#63b8ff" d="M239.51,-1008.75C253.59,-978.01 273.99,-929.37 284.48,-885 298.64,-825.08 303.73,-754.37 305.54,-707.11"/>
<polygon fill="none" stroke="#63b8ff" points="305.54,-707.02 301.75,-700.89 305.95,-695.03 309.74,-701.16 305.54,-707.02"/>
</a>
</g>
<text text-anchor="middle" x="312.98" y="-822.2" font-family="Consolas" font-size="11.00" fill="grey"> +b</text>
<text text-anchor="middle" x="312.98" y="-810.2" font-family="Consolas" font-size="11.00" fill="grey">+c</text>
</g>
<!-- Node5 -->
<g id="Node000005" class="node">
<title>Node5</title>
<g id="a_Node000005"><a xlink:href="../../d9/d97/class_material1_d.html" target="_top" xlink:title="A Material1D class.">
<polygon fill="white" stroke="transparent" points="692.98,-285 591.98,-285 591.98,-201 692.98,-201 692.98,-285"/>
<text text-anchor="start" x="608.98" y="-272.2" font-family="Consolas" font-size="11.00">Material1D</text>
<text text-anchor="start" x="639.48" y="-256.2" font-family="Consolas" font-size="11.00"> </text>
<text text-anchor="start" x="596.48" y="-240.2" font-family="Consolas" font-size="11.00">+</text>
<text text-anchor="start" x="607.48" y="-240.2" font-family="Consolas" font-size="11.00">Material1D()</text>
<text text-anchor="start" x="596.48" y="-224.2" font-family="Consolas" font-size="11.00">+</text>
<text text-anchor="start" x="607.48" y="-224.2" font-family="Consolas" font-size="11.00">record()</text>
<text text-anchor="start" x="596.48" y="-208.2" font-family="Consolas" font-size="11.00">+</text>
<text text-anchor="start" x="607.48" y="-208.2" font-family="Consolas" font-size="11.00">print()</text>
<polygon fill="#666666" stroke="#666666" points="592.48,-267 592.48,-267 693.48,-267 693.48,-267 592.48,-267"/>
<polygon fill="#666666" stroke="#666666" points="592.48,-251 592.48,-251 693.48,-251 693.48,-251 592.48,-251"/>
<polygon fill="none" stroke="#666666" points="591.98,-201 591.98,-285 692.98,-285 692.98,-201 591.98,-201"/>
</a>
</g>
</g>
<!-- Node5&#45;&gt;Node1 -->
<g id="edge4_Node000001_Node000005" class="edge">
<title>Node5&#45;&gt;Node1</title>
<g id="a_edge4_Node000001_Node000005"><a xlink:title=" ">
<path fill="none" stroke="#63b8ff" d="M616.54,-191.71C612.01,-182.94 607.2,-173.61 602.38,-164.24"/>
<polygon fill="none" stroke="#63b8ff" points="613.45,-193.36 621.14,-200.64 619.67,-190.15 613.45,-193.36"/>
</a>
</g>
</g>
<!-- Node6 -->
<g id="Node000006" class="node">
<title>Node6</title>
<g id="a_Node000006"><a xlink:href="../../dc/dee/class_material.html" target="_top" xlink:title="A Material abstract base class.">
<polygon fill="white" stroke="transparent" points="779.98,-534 618.98,-534 618.98,-322 779.98,-322 779.98,-534"/>
<text text-anchor="start" x="672.48" y="-521.2" font-family="Consolas" font-size="11.00">Material</text>
<text text-anchor="start" x="696.48" y="-505.2" font-family="Consolas" font-size="11.00"> </text>
<text text-anchor="start" x="623.48" y="-489.2" font-family="Consolas" font-size="11.00">+</text>
<text text-anchor="start" x="634.48" y="-489.2" font-family="Consolas" font-size="11.00">Material()</text>
<text text-anchor="start" x="623.48" y="-473.2" font-family="Consolas" font-size="11.00">+</text>
<text text-anchor="start" x="634.48" y="-473.2" font-family="Consolas" font-size="11.00">get_density()</text>
<text text-anchor="start" x="623.48" y="-457.2" font-family="Consolas" font-size="11.00">+</text>
<text text-anchor="start" x="634.48" y="-457.2" font-family="Consolas" font-size="11.00">get_material_type()</text>
<text text-anchor="start" x="623.48" y="-441.2" font-family="Consolas" font-size="11.00">+</text>
<text text-anchor="start" x="634.48" y="-441.2" font-family="Consolas" font-size="11.00">get_plane_type()</text>
<text text-anchor="start" x="623.48" y="-425.2" font-family="Consolas" font-size="11.00">+</text>
<text text-anchor="start" x="634.48" y="-425.2" font-family="Consolas" font-size="11.00">initialize_base()</text>
<text text-anchor="start" x="623.48" y="-409.2" font-family="Consolas" font-size="11.00">+</text>
<text text-anchor="start" x="634.48" y="-409.2" font-family="Consolas" font-size="11.00">initialize()</text>
<text text-anchor="start" x="623.48" y="-393.2" font-family="Consolas" font-size="11.00">+</text>
<text text-anchor="start" x="634.48" y="-393.2" font-family="Consolas" font-size="11.00">initialize_couple()</text>
<text text-anchor="start" x="623.48" y="-377.2" font-family="Consolas" font-size="11.00">+</text>
<text text-anchor="start" x="634.48" y="-377.2" font-family="Consolas" font-size="11.00">initialize_history()</text>
<text text-anchor="start" x="623.48" y="-361.2" font-family="Consolas" font-size="11.00">+</text>
<text text-anchor="start" x="634.48" y="-361.2" font-family="Consolas" font-size="11.00">set_initial_history()</text>
<text text-anchor="start" x="623.48" y="-345.2" font-family="Consolas" font-size="11.00">+</text>
<text text-anchor="start" x="634.48" y="-345.2" font-family="Consolas" font-size="11.00">set_initialized()</text>
<text text-anchor="start" x="634.48" y="-329.2" font-family="Consolas" font-size="11.00">and 67 more...</text>
<polygon fill="#666666" stroke="#666666" points="619.48,-516 619.48,-516 780.48,-516 780.48,-516 619.48,-516"/>
<polygon fill="#666666" stroke="#666666" points="619.48,-500 619.48,-500 780.48,-500 780.48,-500 619.48,-500"/>
<polygon fill="none" stroke="#666666" points="618.98,-322 618.98,-534 779.98,-534 779.98,-322 618.98,-322"/>
</a>
</g>
</g>
<!-- Node6&#45;&gt;Node5 -->
<g id="edge5_Node000005_Node000006" class="edge">
<title>Node6&#45;&gt;Node5</title>
<g id="a_edge5_Node000005_Node000006"><a xlink:title=" ">
<path fill="none" stroke="#63b8ff" d="M663.74,-312.28C660.79,-302.79 657.94,-293.66 655.35,-285.33"/>
<polygon fill="none" stroke="#63b8ff" points="660.42,-313.37 666.73,-321.87 667.1,-311.29 660.42,-313.37"/>
</a>
</g>
</g>
<!-- Node7&#45;&gt;Node6 -->
<g id="edge6_Node000006_Node000007" class="edge">
<title>Node7&#45;&gt;Node6</title>
<g id="a_edge6_Node000006_Node000007"><a xlink:title=" ">
<path fill="none" stroke="darkgreen" d="M606.56,-585.97C616.22,-569.65 626.81,-551.76 637.27,-534.08"/>
<polygon fill="none" stroke="darkgreen" points="603.38,-584.47 601.3,-594.86 609.4,-588.04 603.38,-584.47"/>
</a>
</g>
</g>
<!-- Node8 -->
<g id="Node000008" class="node">
<title>Node8</title>
<g id="a_Node000008"><a xlink:title=" ">
<polygon fill="white" stroke="transparent" points="461.48,-1067 329.48,-1067 329.48,-1015 461.48,-1015 461.48,-1067"/>
<text text-anchor="start" x="334.48" y="-1054.2" font-family="Consolas" font-size="11.00">const MaterialType</text>
<text text-anchor="start" x="391.98" y="-1038.2" font-family="Consolas" font-size="11.00"> </text>
<text text-anchor="start" x="391.98" y="-1022.2" font-family="Consolas" font-size="11.00"> </text>
<polygon fill="#666666" stroke="#666666" points="329.48,-1049 329.48,-1049 461.48,-1049 461.48,-1049 329.48,-1049"/>
<polygon fill="#666666" stroke="#666666" points="329.48,-1033 329.48,-1033 461.48,-1033 461.48,-1033 329.48,-1033"/>
<polygon fill="none" stroke="#666666" points="329.48,-1015 329.48,-1067 461.48,-1067 461.48,-1015 329.48,-1015"/>
</a>
</g>
</g>
<!-- Node8&#45;&gt;Node7 -->
<g id="edge8_Node000007_Node000008" class="edge">
<title>Node8&#45;&gt;Node7</title>
<g id="a_edge8_Node000007_Node000008"><a xlink:title=" ">
<path fill="none" stroke="#63b8ff" d="M388.93,-1014.81C376.72,-962.05 355.95,-837.82 405.48,-753 424.14,-721.05 457.58,-698.08 489.26,-682.36"/>
<polygon fill="none" stroke="#63b8ff" points="489.52,-682.24 493.23,-676.06 500.36,-677.1 496.65,-683.29 489.52,-682.24"/>
</a>
</g>
<text text-anchor="middle" x="456.48" y="-816.2" font-family="Consolas" font-size="11.00" fill="grey"> +material_type</text>
</g>
<!-- Node9 -->
<g id="Node000009" class="node">
<title>Node9</title>
<g id="a_Node000009"><a xlink:title=" ">
<polygon fill="white" stroke="transparent" points="591.48,-1067 479.48,-1067 479.48,-1015 591.48,-1015 591.48,-1067"/>
<text text-anchor="start" x="484.48" y="-1054.2" font-family="Consolas" font-size="11.00">const PlaneType</text>
<text text-anchor="start" x="531.98" y="-1038.2" font-family="Consolas" font-size="11.00"> </text>
<text text-anchor="start" x="531.98" y="-1022.2" font-family="Consolas" font-size="11.00"> </text>
<polygon fill="#666666" stroke="#666666" points="479.48,-1049 479.48,-1049 591.48,-1049 591.48,-1049 479.48,-1049"/>
<polygon fill="#666666" stroke="#666666" points="479.48,-1033 479.48,-1033 591.48,-1033 591.48,-1033 479.48,-1033"/>
<polygon fill="none" stroke="#666666" points="479.48,-1015 479.48,-1067 591.48,-1067 591.48,-1015 479.48,-1015"/>
</a>
</g>
</g>
<!-- Node9&#45;&gt;Node7 -->
<g id="edge9_Node000007_Node000009" class="edge">
<title>Node9&#45;&gt;Node7</title>
<g id="a_edge9_Node000007_Node000009"><a xlink:title=" ">
<path fill="none" stroke="#63b8ff" d="M529.81,-1014.67C519.5,-964.19 500.54,-847.74 521.48,-753 523.73,-742.78 527.16,-732.36 531.14,-722.31"/>
<polygon fill="none" stroke="#63b8ff" points="531.18,-722.2 529.83,-715.12 535.84,-711.14 537.2,-718.23 531.18,-722.2"/>
</a>
</g>
<text text-anchor="middle" x="562.48" y="-816.2" font-family="Consolas" font-size="11.00" fill="grey"> +plane_type</text>
</g>
<!-- Node10 -->
<g id="Node000010" class="node">
<title>Node10</title>
<g id="a_Node000010"><a xlink:title=" ">
<polygon fill="white" stroke="transparent" points="719.98,-1067 688.98,-1067 688.98,-1015 719.98,-1015 719.98,-1067"/>
<text text-anchor="start" x="694.48" y="-1054.2" font-family="Consolas" font-size="11.00">vec</text>
<text text-anchor="start" x="701.48" y="-1038.2" font-family="Consolas" font-size="11.00"> </text>
<text text-anchor="start" x="701.48" y="-1022.2" font-family="Consolas" font-size="11.00"> </text>
<polygon fill="#666666" stroke="#666666" points="689.48,-1049 689.48,-1049 720.48,-1049 720.48,-1049 689.48,-1049"/>
<polygon fill="#666666" stroke="#666666" points="689.48,-1033 689.48,-1033 720.48,-1033 720.48,-1033 689.48,-1033"/>
<polygon fill="none" stroke="#666666" points="688.98,-1015 688.98,-1067 719.98,-1067 719.98,-1015 688.98,-1015"/>
</a>
</g>
</g>
<!-- Node10&#45;&gt;Node7 -->
<g id="edge10_Node000007_Node000010" class="edge">
<title>Node10&#45;&gt;Node7</title>
<g id="a_edge10_Node000007_Node000010"><a xlink:title=" ">
<path fill="none" stroke="#63b8ff" d="M688.85,-1016.71C669.95,-987.34 638.64,-934.65 622.48,-885 604.12,-828.64 617.9,-810.49 603.48,-753 601,-743.12 597.89,-732.85 594.55,-722.83"/>
<polygon fill="none" stroke="#63b8ff" points="594.46,-722.57 588.72,-718.2 590.54,-711.22 596.28,-715.59 594.46,-722.57"/>
</a>
</g>
<text text-anchor="middle" x="690.48" y="-876.2" font-family="Consolas" font-size="11.00" fill="grey"> +current_history</text>
<text text-anchor="middle" x="690.48" y="-864.2" font-family="Consolas" font-size="11.00" fill="grey">+current_strain</text>
<text text-anchor="middle" x="690.48" y="-852.2" font-family="Consolas" font-size="11.00" fill="grey">+current_strain_acc</text>
<text text-anchor="middle" x="690.48" y="-840.2" font-family="Consolas" font-size="11.00" fill="grey">+current_strain_rate</text>
<text text-anchor="middle" x="690.48" y="-828.2" font-family="Consolas" font-size="11.00" fill="grey">+current_stress</text>
<text text-anchor="middle" x="690.48" y="-816.2" font-family="Consolas" font-size="11.00" fill="grey">+incre_strain</text>
<text text-anchor="middle" x="690.48" y="-804.2" font-family="Consolas" font-size="11.00" fill="grey">+incre_strain_acc</text>
<text text-anchor="middle" x="690.48" y="-792.2" font-family="Consolas" font-size="11.00" fill="grey">+incre_strain_rate</text>
<text text-anchor="middle" x="690.48" y="-780.2" font-family="Consolas" font-size="11.00" fill="grey">+incre_stress</text>
<text text-anchor="middle" x="690.48" y="-768.2" font-family="Consolas" font-size="11.00" fill="grey">+initial_history</text>
<text text-anchor="middle" x="690.48" y="-756.2" font-family="Consolas" font-size="11.00" fill="grey">...</text>
</g>
<!-- Node12 -->
<g id="Node000012" class="node">
<title>Node12</title>
<g id="a_Node000012"><a xlink:href="../../da/de4/struct_data_couple_material.html" target="_top" xlink:title=" ">
<polygon fill="white" stroke="transparent" points="850.48,-679 718.48,-679 718.48,-627 850.48,-627 850.48,-679"/>
<text text-anchor="start" x="723.48" y="-666.2" font-family="Consolas" font-size="11.00">DataCoupleMaterial</text>
<text text-anchor="start" x="780.98" y="-650.2" font-family="Consolas" font-size="11.00"> </text>
<text text-anchor="start" x="780.98" y="-634.2" font-family="Consolas" font-size="11.00"> </text>
<polygon fill="#666666" stroke="#666666" points="718.48,-661 718.48,-661 850.48,-661 850.48,-661 718.48,-661"/>
<polygon fill="#666666" stroke="#666666" points="718.48,-645 718.48,-645 850.48,-645 850.48,-645 718.48,-645"/>
<polygon fill="none" stroke="#666666" points="718.48,-627 718.48,-679 850.48,-679 850.48,-627 718.48,-627"/>
</a>
</g>
</g>
<!-- Node10&#45;&gt;Node12 -->
<g id="edge13_Node000012_Node000010" class="edge">
<title>Node10&#45;&gt;Node12</title>
<g id="a_edge13_Node000012_Node000010"><a xlink:title=" ">
<path fill="none" stroke="#63b8ff" d="M716.24,-1014.86C729.79,-984.71 751.57,-932.32 762.48,-885 777.94,-817.9 782.56,-737.42 783.92,-691.34"/>
<polygon fill="none" stroke="#63b8ff" points="783.93,-691.3 780.08,-685.2 784.23,-679.3 788.08,-685.4 783.93,-691.3"/>
</a>
</g>
<text text-anchor="middle" x="858.48" y="-846.2" font-family="Consolas" font-size="11.00" fill="grey"> +current_couple_stress</text>
<text text-anchor="middle" x="858.48" y="-834.2" font-family="Consolas" font-size="11.00" fill="grey">+current_curvature</text>
<text text-anchor="middle" x="858.48" y="-822.2" font-family="Consolas" font-size="11.00" fill="grey">+incre_couple_stress</text>
<text text-anchor="middle" x="858.48" y="-810.2" font-family="Consolas" font-size="11.00" fill="grey">+incre_curvature</text>
<text text-anchor="middle" x="858.48" y="-798.2" font-family="Consolas" font-size="11.00" fill="grey">+trial_couple_stress</text>
<text text-anchor="middle" x="858.48" y="-786.2" font-family="Consolas" font-size="11.00" fill="grey">+trial_curvature</text>
</g>
<!-- Node11 -->
<g id="Node000011" class="node">
<title>Node11</title>
<g id="a_Node000011"><a xlink:title=" ">
<polygon fill="white" stroke="transparent" points="1050.98,-1067 1019.98,-1067 1019.98,-1015 1050.98,-1015 1050.98,-1067"/>
<text text-anchor="start" x="1025.48" y="-1054.2" font-family="Consolas" font-size="11.00">mat</text>
<text text-anchor="start" x="1032.48" y="-1038.2" font-family="Consolas" font-size="11.00"> </text>
<text text-anchor="start" x="1032.48" y="-1022.2" font-family="Consolas" font-size="11.00"> </text>
<polygon fill="#666666" stroke="#666666" points="1020.48,-1049 1020.48,-1049 1051.48,-1049 1051.48,-1049 1020.48,-1049"/>
<polygon fill="#666666" stroke="#666666" points="1020.48,-1033 1020.48,-1033 1051.48,-1033 1051.48,-1033 1020.48,-1033"/>
<polygon fill="none" stroke="#666666" points="1019.98,-1015 1019.98,-1067 1050.98,-1067 1050.98,-1015 1019.98,-1015"/>
</a>
</g>
</g>
<!-- Node11&#45;&gt;Node7 -->
<g id="edge11_Node000007_Node000011" class="edge">
<title>Node11&#45;&gt;Node7</title>
<g id="a_edge11_Node000007_Node000011"><a xlink:title=" ">
<path fill="none" stroke="#63b8ff" d="M1020.41,-1014.92C1003.16,-985.04 975.39,-933.11 960.48,-885 951.69,-856.66 962.2,-773.2 940.48,-753 902.77,-717.94 758.69,-750.12 709.48,-735 687.63,-728.29 665.48,-717.78 645.37,-706.54"/>
<polygon fill="none" stroke="#63b8ff" points="645.14,-706.41 637.95,-706.88 634.74,-700.42 641.94,-699.95 645.14,-706.41"/>
</a>
</g>
<text text-anchor="middle" x="1021.48" y="-864.2" font-family="Consolas" font-size="11.00" fill="grey"> +current_damping</text>
<text text-anchor="middle" x="1021.48" y="-852.2" font-family="Consolas" font-size="11.00" fill="grey">+current_inertial</text>
<text text-anchor="middle" x="1021.48" y="-840.2" font-family="Consolas" font-size="11.00" fill="grey">+current_stiffness</text>
<text text-anchor="middle" x="1021.48" y="-828.2" font-family="Consolas" font-size="11.00" fill="grey">+initial_damping</text>
<text text-anchor="middle" x="1021.48" y="-816.2" font-family="Consolas" font-size="11.00" fill="grey">+initial_inertial</text>
<text text-anchor="middle" x="1021.48" y="-804.2" font-family="Consolas" font-size="11.00" fill="grey">+initial_stiffness</text>
<text text-anchor="middle" x="1021.48" y="-792.2" font-family="Consolas" font-size="11.00" fill="grey">+trial_damping</text>
<text text-anchor="middle" x="1021.48" y="-780.2" font-family="Consolas" font-size="11.00" fill="grey">+trial_inertial</text>
<text text-anchor="middle" x="1021.48" y="-768.2" font-family="Consolas" font-size="11.00" fill="grey">+trial_stiffness</text>
</g>
<!-- Node11&#45;&gt;Node12 -->
<g id="edge14_Node000012_Node000011" class="edge">
<title>Node11&#45;&gt;Node12</title>
<g id="a_edge14_Node000012_Node000011"><a xlink:title=" ">
<path fill="none" stroke="#63b8ff" d="M1046.52,-1014.84C1059.1,-984.68 1078.9,-932.27 1086.48,-885 1095.76,-827.07 1120.9,-800.51 1086.48,-753 1079.62,-743.54 949.51,-703.22 862.32,-677.05"/>
<polygon fill="none" stroke="#63b8ff" points="862.09,-676.97 855.19,-679.08 850.59,-673.53 857.49,-671.42 862.09,-676.97"/>
</a>
</g>
<text text-anchor="middle" x="1191.48" y="-828.2" font-family="Consolas" font-size="11.00" fill="grey"> +current_couple_stiffness</text>
<text text-anchor="middle" x="1191.48" y="-816.2" font-family="Consolas" font-size="11.00" fill="grey">+initial_couple_stiffness</text>
<text text-anchor="middle" x="1191.48" y="-804.2" font-family="Consolas" font-size="11.00" fill="grey">+trial_couple_stiffness</text>
</g>
<!-- Node12&#45;&gt;Node6 -->
<g id="edge12_Node000006_Node000012" class="edge">
<title>Node12&#45;&gt;Node6</title>
<g id="a_edge12_Node000006_Node000012"><a xlink:title=" ">
<path fill="none" stroke="darkgreen" d="M771.3,-617.43C762.72,-594.93 751.04,-564.28 739.59,-534.23"/>
<polygon fill="none" stroke="darkgreen" points="768.06,-618.75 774.89,-626.85 774.6,-616.26 768.06,-618.75"/>
</a>
</g>
</g>
<!-- Node13 -->
<g id="Node000013" class="node">
<title>Node13</title>
<g id="a_Node000013"><a xlink:href="../../dd/d78/class_copiable_tag.html" target="_top" xlink:title=" ">
<polygon fill="white" stroke="transparent" points="1169.48,-735 1055.48,-735 1055.48,-571 1169.48,-571 1169.48,-735"/>
<text text-anchor="start" x="1074.98" y="-722.2" font-family="Consolas" font-size="11.00">CopiableTag</text>
<text text-anchor="start" x="1108.98" y="-706.2" font-family="Consolas" font-size="11.00"> </text>
<text text-anchor="start" x="1059.48" y="-690.2" font-family="Consolas" font-size="11.00">+</text>
<text text-anchor="start" x="1070.48" y="-690.2" font-family="Consolas" font-size="11.00">CopiableTag()</text>
<text text-anchor="start" x="1059.48" y="-674.2" font-family="Consolas" font-size="11.00">+</text>
<text text-anchor="start" x="1070.48" y="-674.2" font-family="Consolas" font-size="11.00">CopiableTag()</text>
<text text-anchor="start" x="1059.48" y="-658.2" font-family="Consolas" font-size="11.00">+</text>
<text text-anchor="start" x="1070.48" y="-658.2" font-family="Consolas" font-size="11.00">operator=()</text>
<text text-anchor="start" x="1059.48" y="-642.2" font-family="Consolas" font-size="11.00">+</text>
<text text-anchor="start" x="1070.48" y="-642.2" font-family="Consolas" font-size="11.00">operator=()</text>
<text text-anchor="start" x="1059.48" y="-626.2" font-family="Consolas" font-size="11.00">+</text>
<text text-anchor="start" x="1070.48" y="-626.2" font-family="Consolas" font-size="11.00">~CopiableTag()</text>
<text text-anchor="start" x="1059.48" y="-610.2" font-family="Consolas" font-size="11.00">+</text>
<text text-anchor="start" x="1070.48" y="-610.2" font-family="Consolas" font-size="11.00">Tag()</text>
<text text-anchor="start" x="1059.48" y="-594.2" font-family="Consolas" font-size="11.00">+</text>
<text text-anchor="start" x="1070.48" y="-594.2" font-family="Consolas" font-size="11.00">Tag()</text>
<text text-anchor="start" x="1059.48" y="-578.2" font-family="Consolas" font-size="11.00">+</text>
<text text-anchor="start" x="1070.48" y="-578.2" font-family="Consolas" font-size="11.00">Tag()</text>
<polygon fill="#666666" stroke="#666666" points="1055.48,-717 1055.48,-717 1169.48,-717 1169.48,-717 1055.48,-717"/>
<polygon fill="#666666" stroke="#666666" points="1055.48,-701 1055.48,-701 1169.48,-701 1169.48,-701 1055.48,-701"/>
<polygon fill="none" stroke="#666666" points="1055.48,-571 1055.48,-735 1169.48,-735 1169.48,-571 1055.48,-571"/>
</a>
</g>
</g>
<!-- Node13&#45;&gt;Node6 -->
<g id="edge15_Node000006_Node000013" class="edge">
<title>Node13&#45;&gt;Node6</title>
<g id="a_edge15_Node000006_Node000013"><a xlink:title=" ">
<path fill="none" stroke="#63b8ff" d="M1046,-616.11C973.59,-577.01 857.75,-514.46 780.17,-472.57"/>
<polygon fill="none" stroke="#63b8ff" points="1044.59,-619.32 1055.05,-620.99 1047.91,-613.16 1044.59,-619.32"/>
</a>
</g>
</g>
<!-- Node14 -->
<g id="Node000014" class="node">
<title>Node14</title>
<g id="a_Node000014"><a xlink:href="../../d0/d57/class_tag.html" target="_top" xlink:title="A base Tag class.">
<polygon fill="white" stroke="transparent" points="1349.98,-1179 1248.98,-1179 1248.98,-903 1349.98,-903 1349.98,-1179"/>
<text text-anchor="start" x="1289.48" y="-1166.2" font-family="Consolas" font-size="11.00">Tag</text>
<text text-anchor="start" x="1296.48" y="-1150.2" font-family="Consolas" font-size="11.00"> </text>
<text text-anchor="start" x="1253.48" y="-1134.2" font-family="Consolas" font-size="11.00">+</text>
<text text-anchor="start" x="1264.48" y="-1134.2" font-family="Consolas" font-size="11.00">Tag()</text>
<text text-anchor="start" x="1253.48" y="-1118.2" font-family="Consolas" font-size="11.00">+</text>
<text text-anchor="start" x="1264.48" y="-1118.2" font-family="Consolas" font-size="11.00">Tag()</text>
<text text-anchor="start" x="1253.48" y="-1102.2" font-family="Consolas" font-size="11.00">+</text>
<text text-anchor="start" x="1264.48" y="-1102.2" font-family="Consolas" font-size="11.00">Tag()</text>
<text text-anchor="start" x="1253.48" y="-1086.2" font-family="Consolas" font-size="11.00">+</text>
<text text-anchor="start" x="1264.48" y="-1086.2" font-family="Consolas" font-size="11.00">operator=()</text>
<text text-anchor="start" x="1253.48" y="-1070.2" font-family="Consolas" font-size="11.00">+</text>
<text text-anchor="start" x="1264.48" y="-1070.2" font-family="Consolas" font-size="11.00">operator=()</text>
<text text-anchor="start" x="1253.48" y="-1054.2" font-family="Consolas" font-size="11.00">+</text>
<text text-anchor="start" x="1264.48" y="-1054.2" font-family="Consolas" font-size="11.00">~Tag()</text>
<text text-anchor="start" x="1253.48" y="-1038.2" font-family="Consolas" font-size="11.00">+</text>
<text text-anchor="start" x="1264.48" y="-1038.2" font-family="Consolas" font-size="11.00">set_tag()</text>
<text text-anchor="start" x="1253.48" y="-1022.2" font-family="Consolas" font-size="11.00">+</text>
<text text-anchor="start" x="1264.48" y="-1022.2" font-family="Consolas" font-size="11.00">get_tag()</text>
<text text-anchor="start" x="1253.48" y="-1006.2" font-family="Consolas" font-size="11.00">+</text>
<text text-anchor="start" x="1264.48" y="-1006.2" font-family="Consolas" font-size="11.00">enable()</text>
<text text-anchor="start" x="1253.48" y="-990.2" font-family="Consolas" font-size="11.00">+</text>
<text text-anchor="start" x="1264.48" y="-990.2" font-family="Consolas" font-size="11.00">disable()</text>
<text text-anchor="start" x="1253.48" y="-974.2" font-family="Consolas" font-size="11.00">+</text>
<text text-anchor="start" x="1264.48" y="-974.2" font-family="Consolas" font-size="11.00">guard()</text>
<text text-anchor="start" x="1253.48" y="-958.2" font-family="Consolas" font-size="11.00">+</text>
<text text-anchor="start" x="1264.48" y="-958.2" font-family="Consolas" font-size="11.00">unguard()</text>
<text text-anchor="start" x="1253.48" y="-942.2" font-family="Consolas" font-size="11.00">+</text>
<text text-anchor="start" x="1264.48" y="-942.2" font-family="Consolas" font-size="11.00">is_active()</text>
<text text-anchor="start" x="1253.48" y="-926.2" font-family="Consolas" font-size="11.00">+</text>
<text text-anchor="start" x="1264.48" y="-926.2" font-family="Consolas" font-size="11.00">is_guarded()</text>
<text text-anchor="start" x="1253.48" y="-910.2" font-family="Consolas" font-size="11.00">+</text>
<text text-anchor="start" x="1264.48" y="-910.2" font-family="Consolas" font-size="11.00">print()</text>
<polygon fill="#666666" stroke="#666666" points="1249.48,-1161 1249.48,-1161 1350.48,-1161 1350.48,-1161 1249.48,-1161"/>
<polygon fill="#666666" stroke="#666666" points="1249.48,-1145 1249.48,-1145 1350.48,-1145 1350.48,-1145 1249.48,-1145"/>
<polygon fill="none" stroke="#666666" points="1248.98,-903 1248.98,-1179 1349.98,-1179 1349.98,-903 1248.98,-903"/>
</a>
</g>
</g>
<!-- Node14&#45;&gt;Node13 -->
<g id="edge16_Node000013_Node000014" class="edge">
<title>Node14&#45;&gt;Node13</title>
<g id="a_edge16_Node000013_Node000014"><a xlink:title=" ">
<path fill="none" stroke="#63b8ff" d="M1319.24,-892.58C1318.83,-845.06 1310.67,-794.1 1285.48,-753 1259.8,-711.1 1209.38,-685.23 1169.56,-670.49"/>
<polygon fill="none" stroke="#63b8ff" points="1315.74,-892.66 1319.22,-902.67 1322.74,-892.68 1315.74,-892.66"/>
</a>
</g>
</g>
</g>
</svg>
