<?xml version="1.0" encoding="UTF-8" standalone="no"?>
<!DOCTYPE svg PUBLIC "-//W3C//DTD SVG 1.1//EN"
 "http://www.w3.org/Graphics/SVG/1.1/DTD/svg11.dtd">
<!-- Generated by graphviz version 2.43.0 (0)
 -->
<!-- Title: GroupNodalDisplacement::initialize Pages: 1 -->
<svg width="797pt" height="143pt"
 viewBox="0.00 0.00 797.00 143.00" xmlns="http://www.w3.org/2000/svg" xmlns:xlink="http://www.w3.org/1999/xlink">
<g id="graph0" class="graph" transform="scale(1 1) rotate(0) translate(4 139)">
<title>GroupNodalDisplacement::initialize</title>
<polygon fill="white" stroke="transparent" points="-4,4 -4,-139 793,-139 793,4 -4,4"/>
<!-- Node1 -->
<g id="node1" class="node">
<title>Node1</title>
<g id="a_node1"><a xlink:title=" ">
<polygon fill="#bfbfbf" stroke="black" points="0,-28.5 0,-60.5 165,-60.5 165,-28.5 0,-28.5"/>
<text text-anchor="start" x="8" y="-47.7" font-family="Consolas" font-size="11.00">GroupNodalDisplacement</text>
<text text-anchor="middle" x="82.5" y="-35.7" font-family="Consolas" font-size="11.00">::initialize</text>
</a>
</g>
</g>
<!-- Node2 -->
<g id="node2" class="node">
<title>Node2</title>
<g id="a_node2"><a xlink:href="../../d2/ddb/class_nodal_displacement.html#aeccbc63cf4beda7f09adf6fc263361d2" target="_top" xlink:title=" ">
<polygon fill="white" stroke="black" points="231.5,-51.5 231.5,-83.5 376.5,-83.5 376.5,-51.5 231.5,-51.5"/>
<text text-anchor="start" x="239.5" y="-70.7" font-family="Consolas" font-size="11.00">NodalDisplacement::</text>
<text text-anchor="middle" x="304" y="-58.7" font-family="Consolas" font-size="11.00">initialize</text>
</a>
</g>
</g>
<!-- Node1&#45;&gt;Node2 -->
<g id="edge1" class="edge">
<title>Node1&#45;&gt;Node2</title>
<path fill="none" stroke="midnightblue" d="M165.23,-53.06C183.54,-54.98 202.96,-57.02 221.27,-58.94"/>
<polygon fill="midnightblue" stroke="midnightblue" points="221,-62.43 231.31,-59.99 221.73,-55.46 221,-62.43"/>
</g>
<!-- Node8 -->
<g id="node8" class="node">
<title>Node8</title>
<g id="a_node8"><a xlink:href="../../d9/d3d/class_group_load.html#a0e6af89779a67c64905677e629249ae2" target="_top" xlink:title=" ">
<polygon fill="white" stroke="black" points="201,-12.5 201,-32.5 407,-32.5 407,-12.5 201,-12.5"/>
<text text-anchor="middle" x="304" y="-19.7" font-family="Consolas" font-size="11.00">GroupLoad::update_object_tag</text>
</a>
</g>
</g>
<!-- Node1&#45;&gt;Node8 -->
<g id="edge7" class="edge">
<title>Node1&#45;&gt;Node8</title>
<path fill="none" stroke="midnightblue" d="M165.23,-36.31C174.27,-35.4 183.59,-34.47 192.9,-33.53"/>
<polygon fill="midnightblue" stroke="midnightblue" points="193.4,-37 203,-32.52 192.7,-30.04 193.4,-37"/>
</g>
<!-- Node3 -->
<g id="node3" class="node">
<title>Node3</title>
<g id="a_node3"><a xlink:href="../../da/d44/class_conditional_modifier.html#ab56377bd1f1c50851b2d832199f898da" target="_top" xlink:title="Generate active DoF vector from assigned nodes.">
<polygon fill="white" stroke="black" points="443,-102.5 443,-134.5 608,-134.5 608,-102.5 443,-102.5"/>
<text text-anchor="start" x="451" y="-121.7" font-family="Consolas" font-size="11.00">ConditionalModifier</text>
<text text-anchor="middle" x="525.5" y="-109.7" font-family="Consolas" font-size="11.00">::get_nodal_active_dof</text>
</a>
</g>
</g>
<!-- Node2&#45;&gt;Node3 -->
<g id="edge2" class="edge">
<title>Node2&#45;&gt;Node3</title>
<path fill="none" stroke="midnightblue" d="M374.15,-83.57C396.8,-88.83 422.14,-94.72 445.46,-100.14"/>
<polygon fill="midnightblue" stroke="midnightblue" points="444.79,-103.57 455.32,-102.43 446.37,-96.75 444.79,-103.57"/>
</g>
<!-- Node5 -->
<g id="node5" class="node">
<title>Node5</title>
<g id="a_node5"><a xlink:href="../../da/d44/class_conditional_modifier.html#a2e571329c1c399e8e472d34257e4af4e" target="_top" xlink:title=" ">
<polygon fill="white" stroke="black" points="453,-51.5 453,-83.5 598,-83.5 598,-51.5 453,-51.5"/>
<text text-anchor="start" x="461" y="-70.7" font-family="Consolas" font-size="11.00">ConditionalModifier</text>
<text text-anchor="middle" x="525.5" y="-58.7" font-family="Consolas" font-size="11.00">::initialize</text>
</a>
</g>
</g>
<!-- Node2&#45;&gt;Node5 -->
<g id="edge4" class="edge">
<title>Node2&#45;&gt;Node5</title>
<path fill="none" stroke="midnightblue" d="M376.57,-67.5C397.63,-67.5 420.83,-67.5 442.49,-67.5"/>
<polygon fill="midnightblue" stroke="midnightblue" points="442.65,-71 452.65,-67.5 442.65,-64 442.65,-71"/>
</g>
<!-- Node7 -->
<g id="node7" class="node">
<title>Node7</title>
<g id="a_node7"><a xlink:href="../../da/d44/class_conditional_modifier.html#a460260d484f2d2392703a47a4ab6a489" target="_top" xlink:title=" ">
<polygon fill="white" stroke="black" points="453,-0.5 453,-32.5 598,-32.5 598,-0.5 453,-0.5"/>
<text text-anchor="start" x="461" y="-19.7" font-family="Consolas" font-size="11.00">ConditionalModifier</text>
<text text-anchor="middle" x="525.5" y="-7.7" font-family="Consolas" font-size="11.00">::set_end_step</text>
</a>
</g>
</g>
<!-- Node2&#45;&gt;Node7 -->
<g id="edge6" class="edge">
<title>Node2&#45;&gt;Node7</title>
<path fill="none" stroke="midnightblue" d="M374.15,-51.43C396.8,-46.17 422.14,-40.28 445.46,-34.86"/>
<polygon fill="midnightblue" stroke="midnightblue" points="446.37,-38.25 455.32,-32.57 444.79,-31.43 446.37,-38.25"/>
</g>
<!-- Node4 -->
<g id="node4" class="node">
<title>Node4</title>
<g id="a_node4"><a xlink:href="../../d0/d57/class_tag.html#aeef9db4fab02b36358265f378e703986" target="_top" xlink:title=" ">
<polygon fill="white" stroke="black" points="661,-108.5 661,-128.5 772,-128.5 772,-108.5 661,-108.5"/>
<text text-anchor="middle" x="716.5" y="-115.7" font-family="Consolas" font-size="11.00">Tag::is_active</text>
</a>
</g>
</g>
<!-- Node3&#45;&gt;Node4 -->
<g id="edge3" class="edge">
<title>Node3&#45;&gt;Node4</title>
<path fill="none" stroke="midnightblue" d="M608.02,-118.5C622.28,-118.5 636.93,-118.5 650.65,-118.5"/>
<polygon fill="midnightblue" stroke="midnightblue" points="650.94,-122 660.94,-118.5 650.94,-115 650.94,-122"/>
</g>
<!-- Node6 -->
<g id="node6" class="node">
<title>Node6</title>
<g id="a_node6"><a xlink:href="../../da/d44/class_conditional_modifier.html#a0488922ba5528bfa82bb1ce971c55cf2" target="_top" xlink:title=" ">
<polygon fill="white" stroke="black" points="644,-51.5 644,-83.5 789,-83.5 789,-51.5 644,-51.5"/>
<text text-anchor="start" x="652" y="-70.7" font-family="Consolas" font-size="11.00">ConditionalModifier</text>
<text text-anchor="middle" x="716.5" y="-58.7" font-family="Consolas" font-size="11.00">::set_initialized</text>
</a>
</g>
</g>
<!-- Node5&#45;&gt;Node6 -->
<g id="edge5" class="edge">
<title>Node5&#45;&gt;Node6</title>
<path fill="none" stroke="midnightblue" d="M598.22,-67.5C609.77,-67.5 621.8,-67.5 633.57,-67.5"/>
<polygon fill="midnightblue" stroke="midnightblue" points="633.83,-71 643.83,-67.5 633.83,-64 633.83,-71"/>
</g>
</g>
</svg>
