<?xml version="1.0" encoding="UTF-8" standalone="no"?>
<!DOCTYPE svg PUBLIC "-//W3C//DTD SVG 1.1//EN"
 "http://www.w3.org/Graphics/SVG/1.1/DTD/svg11.dtd">
<!-- Generated by graphviz version 2.43.0 (0)
 -->
<!-- Title: Concrete22 Pages: 1 -->
<svg width="1223pt" height="1187pt"
 viewBox="0.00 0.00 1222.50 1187.00" xmlns="http://www.w3.org/2000/svg" xmlns:xlink="http://www.w3.org/1999/xlink">
<g id="graph0" class="graph" transform="scale(1 1) rotate(0) translate(4 1183)">
<title>Concrete22</title>
<!-- Node1 -->
<g id="Node000001" class="node">
<title>Node1</title>
<g id="a_Node000001"><a xlink:title="A Concrete22 material class.">
<polygon fill="#999999" stroke="transparent" points="822.5,-180 661.5,-180 661.5,0 822.5,0 822.5,-180"/>
<text text-anchor="start" x="708.5" y="-167.2" font-family="Consolas" font-size="11.00">Concrete22</text>
<text text-anchor="start" x="739" y="-151.2" font-family="Consolas" font-size="11.00"> </text>
<text text-anchor="start" x="666" y="-135.2" font-family="Consolas" font-size="11.00">+</text>
<text text-anchor="start" x="677" y="-135.2" font-family="Consolas" font-size="11.00">Concrete22()</text>
<text text-anchor="start" x="666" y="-119.2" font-family="Consolas" font-size="11.00">+</text>
<text text-anchor="start" x="677" y="-119.2" font-family="Consolas" font-size="11.00">initialize()</text>
<text text-anchor="start" x="666" y="-103.2" font-family="Consolas" font-size="11.00">+</text>
<text text-anchor="start" x="677" y="-103.2" font-family="Consolas" font-size="11.00">get_copy()</text>
<text text-anchor="start" x="666" y="-87.2" font-family="Consolas" font-size="11.00">+</text>
<text text-anchor="start" x="677" y="-87.2" font-family="Consolas" font-size="11.00">get_parameter()</text>
<text text-anchor="start" x="666" y="-71.2" font-family="Consolas" font-size="11.00">+</text>
<text text-anchor="start" x="677" y="-71.2" font-family="Consolas" font-size="11.00">update_trial_status()</text>
<text text-anchor="start" x="666" y="-55.2" font-family="Consolas" font-size="11.00">+</text>
<text text-anchor="start" x="677" y="-55.2" font-family="Consolas" font-size="11.00">clear_status()</text>
<text text-anchor="start" x="666" y="-39.2" font-family="Consolas" font-size="11.00">+</text>
<text text-anchor="start" x="677" y="-39.2" font-family="Consolas" font-size="11.00">commit_status()</text>
<text text-anchor="start" x="666" y="-23.2" font-family="Consolas" font-size="11.00">+</text>
<text text-anchor="start" x="677" y="-23.2" font-family="Consolas" font-size="11.00">reset_status()</text>
<text text-anchor="start" x="666" y="-7.2" font-family="Consolas" font-size="11.00">+</text>
<text text-anchor="start" x="677" y="-7.2" font-family="Consolas" font-size="11.00">print()</text>
<polygon fill="#666666" stroke="#666666" points="662,-162 662,-162 823,-162 823,-162 662,-162"/>
<polygon fill="#666666" stroke="#666666" points="662,-146 662,-146 823,-146 823,-146 662,-146"/>
<polygon fill="none" stroke="#666666" points="661.5,0 661.5,-180 822.5,-180 822.5,0 661.5,0"/>
</a>
</g>
</g>
<!-- Node2 -->
<g id="Node000002" class="node">
<title>Node2</title>
<g id="a_Node000002"><a xlink:href="../../d1/d0a/class_material2_d.html" target="_top" xlink:title="The Material2D class defines a isotropic elastic material for plane stress and plane strain problems.">
<polygon fill="white" stroke="transparent" points="792.5,-285 691.5,-285 691.5,-217 792.5,-217 792.5,-285"/>
<text text-anchor="start" x="708.5" y="-272.2" font-family="Consolas" font-size="11.00">Material2D</text>
<text text-anchor="start" x="739" y="-256.2" font-family="Consolas" font-size="11.00"> </text>
<text text-anchor="start" x="696" y="-240.2" font-family="Consolas" font-size="11.00">+</text>
<text text-anchor="start" x="707" y="-240.2" font-family="Consolas" font-size="11.00">Material2D()</text>
<text text-anchor="start" x="696" y="-224.2" font-family="Consolas" font-size="11.00">+</text>
<text text-anchor="start" x="707" y="-224.2" font-family="Consolas" font-size="11.00">record()</text>
<polygon fill="#666666" stroke="#666666" points="692,-267 692,-267 793,-267 793,-267 692,-267"/>
<polygon fill="#666666" stroke="#666666" points="692,-251 692,-251 793,-251 793,-251 692,-251"/>
<polygon fill="none" stroke="#666666" points="691.5,-217 691.5,-285 792.5,-285 792.5,-217 691.5,-217"/>
</a>
</g>
</g>
<!-- Node2&#45;&gt;Node1 -->
<g id="edge1_Node000001_Node000002" class="edge">
<title>Node2&#45;&gt;Node1</title>
<g id="a_edge1_Node000001_Node000002"><a xlink:title=" ">
<path fill="none" stroke="#63b8ff" d="M742,-206.59C742,-198.33 742,-189.4 742,-180.3"/>
<polygon fill="none" stroke="#63b8ff" points="738.5,-206.67 742,-216.67 745.5,-206.67 738.5,-206.67"/>
</a>
</g>
</g>
<!-- Node3 -->
<g id="Node000003" class="node">
<title>Node3</title>
<g id="a_Node000003"><a xlink:href="../../dc/dee/class_material.html" target="_top" xlink:title="A Material abstract base class.">
<polygon fill="white" stroke="transparent" points="822.5,-534 661.5,-534 661.5,-322 822.5,-322 822.5,-534"/>
<text text-anchor="start" x="715" y="-521.2" font-family="Consolas" font-size="11.00">Material</text>
<text text-anchor="start" x="739" y="-505.2" font-family="Consolas" font-size="11.00"> </text>
<text text-anchor="start" x="666" y="-489.2" font-family="Consolas" font-size="11.00">+</text>
<text text-anchor="start" x="677" y="-489.2" font-family="Consolas" font-size="11.00">Material()</text>
<text text-anchor="start" x="666" y="-473.2" font-family="Consolas" font-size="11.00">+</text>
<text text-anchor="start" x="677" y="-473.2" font-family="Consolas" font-size="11.00">get_density()</text>
<text text-anchor="start" x="666" y="-457.2" font-family="Consolas" font-size="11.00">+</text>
<text text-anchor="start" x="677" y="-457.2" font-family="Consolas" font-size="11.00">get_material_type()</text>
<text text-anchor="start" x="666" y="-441.2" font-family="Consolas" font-size="11.00">+</text>
<text text-anchor="start" x="677" y="-441.2" font-family="Consolas" font-size="11.00">get_plane_type()</text>
<text text-anchor="start" x="666" y="-425.2" font-family="Consolas" font-size="11.00">+</text>
<text text-anchor="start" x="677" y="-425.2" font-family="Consolas" font-size="11.00">initialize_base()</text>
<text text-anchor="start" x="666" y="-409.2" font-family="Consolas" font-size="11.00">+</text>
<text text-anchor="start" x="677" y="-409.2" font-family="Consolas" font-size="11.00">initialize()</text>
<text text-anchor="start" x="666" y="-393.2" font-family="Consolas" font-size="11.00">+</text>
<text text-anchor="start" x="677" y="-393.2" font-family="Consolas" font-size="11.00">initialize_couple()</text>
<text text-anchor="start" x="666" y="-377.2" font-family="Consolas" font-size="11.00">+</text>
<text text-anchor="start" x="677" y="-377.2" font-family="Consolas" font-size="11.00">initialize_history()</text>
<text text-anchor="start" x="666" y="-361.2" font-family="Consolas" font-size="11.00">+</text>
<text text-anchor="start" x="677" y="-361.2" font-family="Consolas" font-size="11.00">set_initial_history()</text>
<text text-anchor="start" x="666" y="-345.2" font-family="Consolas" font-size="11.00">+</text>
<text text-anchor="start" x="677" y="-345.2" font-family="Consolas" font-size="11.00">set_initialized()</text>
<text text-anchor="start" x="677" y="-329.2" font-family="Consolas" font-size="11.00">and 67 more...</text>
<polygon fill="#666666" stroke="#666666" points="662,-516 662,-516 823,-516 823,-516 662,-516"/>
<polygon fill="#666666" stroke="#666666" points="662,-500 662,-500 823,-500 823,-500 662,-500"/>
<polygon fill="none" stroke="#666666" points="661.5,-322 661.5,-534 822.5,-534 822.5,-322 661.5,-322"/>
</a>
</g>
</g>
<!-- Node3&#45;&gt;Node2 -->
<g id="edge2_Node000002_Node000003" class="edge">
<title>Node3&#45;&gt;Node2</title>
<g id="a_edge2_Node000002_Node000003"><a xlink:title=" ">
<path fill="none" stroke="#63b8ff" d="M742,-311.83C742,-302.3 742,-293.26 742,-285.23"/>
<polygon fill="none" stroke="#63b8ff" points="738.5,-311.92 742,-321.92 745.5,-311.92 738.5,-311.92"/>
</a>
</g>
</g>
<!-- Node4 -->
<g id="Node000004" class="node">
<title>Node4</title>
<g id="a_Node000004"><a xlink:href="../../de/de9/struct_data_material.html" target="_top" xlink:title=" ">
<polygon fill="white" stroke="transparent" points="468,-711 334,-711 334,-595 468,-595 468,-711"/>
<text text-anchor="start" x="360" y="-698.2" font-family="Consolas" font-size="11.00">DataMaterial</text>
<text text-anchor="start" x="338" y="-682.2" font-family="Consolas" font-size="11.00">+</text>
<text text-anchor="start" x="349" y="-682.2" font-family="Consolas" font-size="11.00">trial_strain</text>
<text text-anchor="start" x="338" y="-666.2" font-family="Consolas" font-size="11.00">+</text>
<text text-anchor="start" x="349" y="-666.2" font-family="Consolas" font-size="11.00">trial_strain_rate</text>
<text text-anchor="start" x="338" y="-650.2" font-family="Consolas" font-size="11.00">+</text>
<text text-anchor="start" x="349" y="-650.2" font-family="Consolas" font-size="11.00">trial_strain_acc</text>
<text text-anchor="start" x="338" y="-634.2" font-family="Consolas" font-size="11.00">+</text>
<text text-anchor="start" x="349" y="-634.2" font-family="Consolas" font-size="11.00">trial_stress</text>
<text text-anchor="start" x="338" y="-618.2" font-family="Consolas" font-size="11.00">+</text>
<text text-anchor="start" x="349" y="-618.2" font-family="Consolas" font-size="11.00">trial_history</text>
<text text-anchor="start" x="397.5" y="-602.2" font-family="Consolas" font-size="11.00"> </text>
<polygon fill="#666666" stroke="#666666" points="334,-693 334,-693 468,-693 468,-693 334,-693"/>
<polygon fill="#666666" stroke="#666666" points="334,-613 334,-613 347,-613 347,-613 334,-613"/>
<polygon fill="#666666" stroke="#666666" points="347,-613 347,-613 468,-613 468,-613 347,-613"/>
<polygon fill="none" stroke="#666666" points="334,-595 334,-711 468,-711 468,-595 334,-595"/>
</a>
</g>
</g>
<!-- Node4&#45;&gt;Node3 -->
<g id="edge3_Node000003_Node000004" class="edge">
<title>Node4&#45;&gt;Node3</title>
<g id="a_edge3_Node000003_Node000004"><a xlink:title=" ">
<path fill="none" stroke="darkgreen" d="M476.99,-602.31C531.73,-566.51 605.47,-518.29 661.26,-481.8"/>
<polygon fill="none" stroke="darkgreen" points="474.82,-599.54 468.37,-607.94 478.66,-605.4 474.82,-599.54"/>
</a>
</g>
</g>
<!-- Node5 -->
<g id="Node000005" class="node">
<title>Node5</title>
<g id="a_Node000005"><a xlink:title=" ">
<polygon fill="white" stroke="transparent" points="336.5,-1067 285.5,-1067 285.5,-1015 336.5,-1015 336.5,-1067"/>
<text text-anchor="start" x="291" y="-1054.2" font-family="Consolas" font-size="11.00">double</text>
<text text-anchor="start" x="308" y="-1038.2" font-family="Consolas" font-size="11.00"> </text>
<text text-anchor="start" x="308" y="-1022.2" font-family="Consolas" font-size="11.00"> </text>
<polygon fill="#666666" stroke="#666666" points="286,-1049 286,-1049 337,-1049 337,-1049 286,-1049"/>
<polygon fill="#666666" stroke="#666666" points="286,-1033 286,-1033 337,-1033 337,-1033 286,-1033"/>
<polygon fill="none" stroke="#666666" points="285.5,-1015 285.5,-1067 336.5,-1067 336.5,-1015 285.5,-1015"/>
</a>
</g>
</g>
<!-- Node5&#45;&gt;Node4 -->
<g id="edge4_Node000004_Node000005" class="edge">
<title>Node5&#45;&gt;Node4</title>
<g id="a_edge4_Node000004_Node000005"><a xlink:title=" ">
<path fill="none" stroke="#63b8ff" d="M305.27,-1014.72C294.86,-963.34 276.97,-843.89 312,-753 316.33,-741.76 322.59,-730.99 329.81,-720.97"/>
<polygon fill="none" stroke="#63b8ff" points="330,-720.72 330.49,-713.53 337.31,-711.21 336.83,-718.4 330,-720.72"/>
</a>
</g>
<text text-anchor="middle" x="390" y="-828.2" font-family="Consolas" font-size="11.00" fill="grey"> +characteristic_length</text>
<text text-anchor="middle" x="390" y="-816.2" font-family="Consolas" font-size="11.00" fill="grey">+density</text>
<text text-anchor="middle" x="390" y="-804.2" font-family="Consolas" font-size="11.00" fill="grey">+tolerance</text>
</g>
<!-- Node6 -->
<g id="Node000006" class="node">
<title>Node6</title>
<g id="a_Node000006"><a xlink:title=" ">
<polygon fill="white" stroke="transparent" points="132,-1067 0,-1067 0,-1015 132,-1015 132,-1067"/>
<text text-anchor="start" x="5" y="-1054.2" font-family="Consolas" font-size="11.00">const MaterialType</text>
<text text-anchor="start" x="62.5" y="-1038.2" font-family="Consolas" font-size="11.00"> </text>
<text text-anchor="start" x="62.5" y="-1022.2" font-family="Consolas" font-size="11.00"> </text>
<polygon fill="#666666" stroke="#666666" points="0,-1049 0,-1049 132,-1049 132,-1049 0,-1049"/>
<polygon fill="#666666" stroke="#666666" points="0,-1033 0,-1033 132,-1033 132,-1033 0,-1033"/>
<polygon fill="none" stroke="#666666" points="0,-1015 0,-1067 132,-1067 132,-1015 0,-1015"/>
</a>
</g>
</g>
<!-- Node6&#45;&gt;Node4 -->
<g id="edge5_Node000004_Node000006" class="edge">
<title>Node6&#45;&gt;Node4</title>
<g id="a_edge5_Node000004_Node000006"><a xlink:title=" ">
<path fill="none" stroke="#63b8ff" d="M57.48,-1014.59C41.01,-960.32 11.41,-831.65 71,-753 101.36,-712.93 234.13,-682.8 321.73,-666.83"/>
<polygon fill="none" stroke="#63b8ff" points="321.96,-666.79 327.16,-661.79 333.77,-664.67 328.57,-669.67 321.96,-666.79"/>
</a>
</g>
<text text-anchor="middle" x="122" y="-816.2" font-family="Consolas" font-size="11.00" fill="grey"> +material_type</text>
</g>
<!-- Node7 -->
<g id="Node000007" class="node">
<title>Node7</title>
<g id="a_Node000007"><a xlink:title=" ">
<polygon fill="white" stroke="transparent" points="262,-1067 150,-1067 150,-1015 262,-1015 262,-1067"/>
<text text-anchor="start" x="155" y="-1054.2" font-family="Consolas" font-size="11.00">const PlaneType</text>
<text text-anchor="start" x="202.5" y="-1038.2" font-family="Consolas" font-size="11.00"> </text>
<text text-anchor="start" x="202.5" y="-1022.2" font-family="Consolas" font-size="11.00"> </text>
<polygon fill="#666666" stroke="#666666" points="150,-1049 150,-1049 262,-1049 262,-1049 150,-1049"/>
<polygon fill="#666666" stroke="#666666" points="150,-1033 150,-1033 262,-1033 262,-1033 150,-1033"/>
<polygon fill="none" stroke="#666666" points="150,-1015 150,-1067 262,-1067 262,-1015 150,-1015"/>
</a>
</g>
</g>
<!-- Node7&#45;&gt;Node4 -->
<g id="edge6_Node000004_Node000007" class="edge">
<title>Node7&#45;&gt;Node4</title>
<g id="a_edge6_Node000004_Node000007"><a xlink:title=" ">
<path fill="none" stroke="#63b8ff" d="M197.82,-1014.62C182.33,-961.52 154.65,-836.66 206,-753 231.38,-711.65 280.01,-686.92 322.35,-672.51"/>
<polygon fill="none" stroke="#63b8ff" points="322.4,-672.49 326.88,-666.84 333.82,-668.8 329.34,-674.45 322.4,-672.49"/>
</a>
</g>
<text text-anchor="middle" x="247" y="-816.2" font-family="Consolas" font-size="11.00" fill="grey"> +plane_type</text>
</g>
<!-- Node8 -->
<g id="Node000008" class="node">
<title>Node8</title>
<g id="a_Node000008"><a xlink:title=" ">
<polygon fill="white" stroke="transparent" points="584.5,-1067 553.5,-1067 553.5,-1015 584.5,-1015 584.5,-1067"/>
<text text-anchor="start" x="559" y="-1054.2" font-family="Consolas" font-size="11.00">vec</text>
<text text-anchor="start" x="566" y="-1038.2" font-family="Consolas" font-size="11.00"> </text>
<text text-anchor="start" x="566" y="-1022.2" font-family="Consolas" font-size="11.00"> </text>
<polygon fill="#666666" stroke="#666666" points="554,-1049 554,-1049 585,-1049 585,-1049 554,-1049"/>
<polygon fill="#666666" stroke="#666666" points="554,-1033 554,-1033 585,-1033 585,-1033 554,-1033"/>
<polygon fill="none" stroke="#666666" points="553.5,-1015 553.5,-1067 584.5,-1067 584.5,-1015 553.5,-1015"/>
</a>
</g>
</g>
<!-- Node8&#45;&gt;Node4 -->
<g id="edge7_Node000004_Node000008" class="edge">
<title>Node8&#45;&gt;Node4</title>
<g id="a_edge7_Node000004_Node000008"><a xlink:title=" ">
<path fill="none" stroke="#63b8ff" d="M553.48,-1014.95C535.69,-985.1 506.94,-933.19 491,-885 472.3,-828.46 490.3,-808.22 468,-753 463.7,-742.36 458.14,-731.7 452.05,-721.52"/>
<polygon fill="none" stroke="#63b8ff" points="451.91,-721.29 445.34,-718.32 445.55,-711.11 452.12,-714.08 451.91,-721.29"/>
</a>
</g>
<text text-anchor="middle" x="559" y="-876.2" font-family="Consolas" font-size="11.00" fill="grey"> +current_history</text>
<text text-anchor="middle" x="559" y="-864.2" font-family="Consolas" font-size="11.00" fill="grey">+current_strain</text>
<text text-anchor="middle" x="559" y="-852.2" font-family="Consolas" font-size="11.00" fill="grey">+current_strain_acc</text>
<text text-anchor="middle" x="559" y="-840.2" font-family="Consolas" font-size="11.00" fill="grey">+current_strain_rate</text>
<text text-anchor="middle" x="559" y="-828.2" font-family="Consolas" font-size="11.00" fill="grey">+current_stress</text>
<text text-anchor="middle" x="559" y="-816.2" font-family="Consolas" font-size="11.00" fill="grey">+incre_strain</text>
<text text-anchor="middle" x="559" y="-804.2" font-family="Consolas" font-size="11.00" fill="grey">+incre_strain_acc</text>
<text text-anchor="middle" x="559" y="-792.2" font-family="Consolas" font-size="11.00" fill="grey">+incre_strain_rate</text>
<text text-anchor="middle" x="559" y="-780.2" font-family="Consolas" font-size="11.00" fill="grey">+incre_stress</text>
<text text-anchor="middle" x="559" y="-768.2" font-family="Consolas" font-size="11.00" fill="grey">+initial_history</text>
<text text-anchor="middle" x="559" y="-756.2" font-family="Consolas" font-size="11.00" fill="grey">...</text>
</g>
<!-- Node10 -->
<g id="Node000010" class="node">
<title>Node10</title>
<g id="a_Node000010"><a xlink:href="../../da/de4/struct_data_couple_material.html" target="_top" xlink:title=" ">
<polygon fill="white" stroke="transparent" points="808,-679 676,-679 676,-627 808,-627 808,-679"/>
<text text-anchor="start" x="681" y="-666.2" font-family="Consolas" font-size="11.00">DataCoupleMaterial</text>
<text text-anchor="start" x="738.5" y="-650.2" font-family="Consolas" font-size="11.00"> </text>
<text text-anchor="start" x="738.5" y="-634.2" font-family="Consolas" font-size="11.00"> </text>
<polygon fill="#666666" stroke="#666666" points="676,-661 676,-661 808,-661 808,-661 676,-661"/>
<polygon fill="#666666" stroke="#666666" points="676,-645 676,-645 808,-645 808,-645 676,-645"/>
<polygon fill="none" stroke="#666666" points="676,-627 676,-679 808,-679 808,-627 676,-627"/>
</a>
</g>
</g>
<!-- Node8&#45;&gt;Node10 -->
<g id="edge10_Node000010_Node000008" class="edge">
<title>Node8&#45;&gt;Node10</title>
<g id="a_edge10_Node000010_Node000008"><a xlink:title=" ">
<path fill="none" stroke="#63b8ff" d="M580.02,-1014.97C592.94,-984.71 614.23,-932 627,-885 642.61,-827.53 623.53,-806.34 650,-753 662.37,-728.07 683.02,-705 701.63,-687.4"/>
<polygon fill="none" stroke="#63b8ff" points="701.71,-687.33 703.43,-680.33 710.55,-679.22 708.83,-686.23 701.71,-687.33"/>
</a>
</g>
<text text-anchor="middle" x="728" y="-846.2" font-family="Consolas" font-size="11.00" fill="grey"> +current_couple_stress</text>
<text text-anchor="middle" x="728" y="-834.2" font-family="Consolas" font-size="11.00" fill="grey">+current_curvature</text>
<text text-anchor="middle" x="728" y="-822.2" font-family="Consolas" font-size="11.00" fill="grey">+incre_couple_stress</text>
<text text-anchor="middle" x="728" y="-810.2" font-family="Consolas" font-size="11.00" fill="grey">+incre_curvature</text>
<text text-anchor="middle" x="728" y="-798.2" font-family="Consolas" font-size="11.00" fill="grey">+trial_couple_stress</text>
<text text-anchor="middle" x="728" y="-786.2" font-family="Consolas" font-size="11.00" fill="grey">+trial_curvature</text>
</g>
<!-- Node9 -->
<g id="Node000009" class="node">
<title>Node9</title>
<g id="a_Node000009"><a xlink:title=" ">
<polygon fill="white" stroke="transparent" points="915.5,-1067 884.5,-1067 884.5,-1015 915.5,-1015 915.5,-1067"/>
<text text-anchor="start" x="890" y="-1054.2" font-family="Consolas" font-size="11.00">mat</text>
<text text-anchor="start" x="897" y="-1038.2" font-family="Consolas" font-size="11.00"> </text>
<text text-anchor="start" x="897" y="-1022.2" font-family="Consolas" font-size="11.00"> </text>
<polygon fill="#666666" stroke="#666666" points="885,-1049 885,-1049 916,-1049 916,-1049 885,-1049"/>
<polygon fill="#666666" stroke="#666666" points="885,-1033 885,-1033 916,-1033 916,-1033 885,-1033"/>
<polygon fill="none" stroke="#666666" points="884.5,-1015 884.5,-1067 915.5,-1067 915.5,-1015 884.5,-1015"/>
</a>
</g>
</g>
<!-- Node9&#45;&gt;Node4 -->
<g id="edge8_Node000004_Node000009" class="edge">
<title>Node9&#45;&gt;Node4</title>
<g id="a_edge8_Node000004_Node000009"><a xlink:title=" ">
<path fill="none" stroke="#63b8ff" d="M884.87,-1014.94C867.56,-985.08 839.73,-933.17 825,-885 816.33,-856.66 827.1,-773.81 806,-753 783.82,-731.13 697.45,-741.56 667,-735 603.05,-721.22 532.28,-699.34 479.82,-681.79"/>
<polygon fill="none" stroke="#63b8ff" points="479.61,-681.72 472.65,-683.59 468.24,-677.89 475.2,-676.01 479.61,-681.72"/>
</a>
</g>
<text text-anchor="middle" x="886" y="-864.2" font-family="Consolas" font-size="11.00" fill="grey"> +current_damping</text>
<text text-anchor="middle" x="886" y="-852.2" font-family="Consolas" font-size="11.00" fill="grey">+current_inertial</text>
<text text-anchor="middle" x="886" y="-840.2" font-family="Consolas" font-size="11.00" fill="grey">+current_stiffness</text>
<text text-anchor="middle" x="886" y="-828.2" font-family="Consolas" font-size="11.00" fill="grey">+initial_damping</text>
<text text-anchor="middle" x="886" y="-816.2" font-family="Consolas" font-size="11.00" fill="grey">+initial_inertial</text>
<text text-anchor="middle" x="886" y="-804.2" font-family="Consolas" font-size="11.00" fill="grey">+initial_stiffness</text>
<text text-anchor="middle" x="886" y="-792.2" font-family="Consolas" font-size="11.00" fill="grey">+trial_damping</text>
<text text-anchor="middle" x="886" y="-780.2" font-family="Consolas" font-size="11.00" fill="grey">+trial_inertial</text>
<text text-anchor="middle" x="886" y="-768.2" font-family="Consolas" font-size="11.00" fill="grey">+trial_stiffness</text>
</g>
<!-- Node9&#45;&gt;Node10 -->
<g id="edge11_Node000010_Node000009" class="edge">
<title>Node9&#45;&gt;Node10</title>
<g id="a_edge11_Node000010_Node000009"><a xlink:title=" ">
<path fill="none" stroke="#63b8ff" d="M911.04,-1014.84C923.62,-984.68 943.42,-932.27 951,-885 960.29,-827.07 982.37,-802.57 951,-753 922.3,-707.65 866.59,-682.67 819.9,-669.15"/>
<polygon fill="none" stroke="#63b8ff" points="819.82,-669.12 812.97,-671.4 808.25,-665.95 815.09,-663.68 819.82,-669.12"/>
</a>
</g>
<text text-anchor="middle" x="1056" y="-828.2" font-family="Consolas" font-size="11.00" fill="grey"> +current_couple_stiffness</text>
<text text-anchor="middle" x="1056" y="-816.2" font-family="Consolas" font-size="11.00" fill="grey">+initial_couple_stiffness</text>
<text text-anchor="middle" x="1056" y="-804.2" font-family="Consolas" font-size="11.00" fill="grey">+trial_couple_stiffness</text>
</g>
<!-- Node10&#45;&gt;Node3 -->
<g id="edge9_Node000003_Node000010" class="edge">
<title>Node10&#45;&gt;Node3</title>
<g id="a_edge9_Node000003_Node000010"><a xlink:title=" ">
<path fill="none" stroke="darkgreen" d="M742,-616.82C742,-594.38 742,-564.01 742,-534.23"/>
<polygon fill="none" stroke="darkgreen" points="738.5,-616.85 742,-626.85 745.5,-616.85 738.5,-616.85"/>
</a>
</g>
</g>
<!-- Node11 -->
<g id="Node000011" class="node">
<title>Node11</title>
<g id="a_Node000011"><a xlink:href="../../dd/d78/class_copiable_tag.html" target="_top" xlink:title=" ">
<polygon fill="white" stroke="transparent" points="1127,-735 1013,-735 1013,-571 1127,-571 1127,-735"/>
<text text-anchor="start" x="1032.5" y="-722.2" font-family="Consolas" font-size="11.00">CopiableTag</text>
<text text-anchor="start" x="1066.5" y="-706.2" font-family="Consolas" font-size="11.00"> </text>
<text text-anchor="start" x="1017" y="-690.2" font-family="Consolas" font-size="11.00">+</text>
<text text-anchor="start" x="1028" y="-690.2" font-family="Consolas" font-size="11.00">CopiableTag()</text>
<text text-anchor="start" x="1017" y="-674.2" font-family="Consolas" font-size="11.00">+</text>
<text text-anchor="start" x="1028" y="-674.2" font-family="Consolas" font-size="11.00">CopiableTag()</text>
<text text-anchor="start" x="1017" y="-658.2" font-family="Consolas" font-size="11.00">+</text>
<text text-anchor="start" x="1028" y="-658.2" font-family="Consolas" font-size="11.00">operator=()</text>
<text text-anchor="start" x="1017" y="-642.2" font-family="Consolas" font-size="11.00">+</text>
<text text-anchor="start" x="1028" y="-642.2" font-family="Consolas" font-size="11.00">operator=()</text>
<text text-anchor="start" x="1017" y="-626.2" font-family="Consolas" font-size="11.00">+</text>
<text text-anchor="start" x="1028" y="-626.2" font-family="Consolas" font-size="11.00">~CopiableTag()</text>
<text text-anchor="start" x="1017" y="-610.2" font-family="Consolas" font-size="11.00">+</text>
<text text-anchor="start" x="1028" y="-610.2" font-family="Consolas" font-size="11.00">Tag()</text>
<text text-anchor="start" x="1017" y="-594.2" font-family="Consolas" font-size="11.00">+</text>
<text text-anchor="start" x="1028" y="-594.2" font-family="Consolas" font-size="11.00">Tag()</text>
<text text-anchor="start" x="1017" y="-578.2" font-family="Consolas" font-size="11.00">+</text>
<text text-anchor="start" x="1028" y="-578.2" font-family="Consolas" font-size="11.00">Tag()</text>
<polygon fill="#666666" stroke="#666666" points="1013,-717 1013,-717 1127,-717 1127,-717 1013,-717"/>
<polygon fill="#666666" stroke="#666666" points="1013,-701 1013,-701 1127,-701 1127,-701 1013,-701"/>
<polygon fill="none" stroke="#666666" points="1013,-571 1013,-735 1127,-735 1127,-571 1013,-571"/>
</a>
</g>
</g>
<!-- Node11&#45;&gt;Node3 -->
<g id="edge12_Node000003_Node000011" class="edge">
<title>Node11&#45;&gt;Node3</title>
<g id="a_edge12_Node000003_Node000011"><a xlink:title=" ">
<path fill="none" stroke="#63b8ff" d="M1004.34,-607.36C952.05,-571.81 878.62,-521.89 822.74,-483.9"/>
<polygon fill="none" stroke="#63b8ff" points="1002.63,-610.43 1012.87,-613.16 1006.56,-604.64 1002.63,-610.43"/>
</a>
</g>
</g>
<!-- Node12 -->
<g id="Node000012" class="node">
<title>Node12</title>
<g id="a_Node000012"><a xlink:href="../../d0/d57/class_tag.html" target="_top" xlink:title="A base Tag class.">
<polygon fill="white" stroke="transparent" points="1214.5,-1179 1113.5,-1179 1113.5,-903 1214.5,-903 1214.5,-1179"/>
<text text-anchor="start" x="1154" y="-1166.2" font-family="Consolas" font-size="11.00">Tag</text>
<text text-anchor="start" x="1161" y="-1150.2" font-family="Consolas" font-size="11.00"> </text>
<text text-anchor="start" x="1118" y="-1134.2" font-family="Consolas" font-size="11.00">+</text>
<text text-anchor="start" x="1129" y="-1134.2" font-family="Consolas" font-size="11.00">Tag()</text>
<text text-anchor="start" x="1118" y="-1118.2" font-family="Consolas" font-size="11.00">+</text>
<text text-anchor="start" x="1129" y="-1118.2" font-family="Consolas" font-size="11.00">Tag()</text>
<text text-anchor="start" x="1118" y="-1102.2" font-family="Consolas" font-size="11.00">+</text>
<text text-anchor="start" x="1129" y="-1102.2" font-family="Consolas" font-size="11.00">Tag()</text>
<text text-anchor="start" x="1118" y="-1086.2" font-family="Consolas" font-size="11.00">+</text>
<text text-anchor="start" x="1129" y="-1086.2" font-family="Consolas" font-size="11.00">operator=()</text>
<text text-anchor="start" x="1118" y="-1070.2" font-family="Consolas" font-size="11.00">+</text>
<text text-anchor="start" x="1129" y="-1070.2" font-family="Consolas" font-size="11.00">operator=()</text>
<text text-anchor="start" x="1118" y="-1054.2" font-family="Consolas" font-size="11.00">+</text>
<text text-anchor="start" x="1129" y="-1054.2" font-family="Consolas" font-size="11.00">~Tag()</text>
<text text-anchor="start" x="1118" y="-1038.2" font-family="Consolas" font-size="11.00">+</text>
<text text-anchor="start" x="1129" y="-1038.2" font-family="Consolas" font-size="11.00">set_tag()</text>
<text text-anchor="start" x="1118" y="-1022.2" font-family="Consolas" font-size="11.00">+</text>
<text text-anchor="start" x="1129" y="-1022.2" font-family="Consolas" font-size="11.00">get_tag()</text>
<text text-anchor="start" x="1118" y="-1006.2" font-family="Consolas" font-size="11.00">+</text>
<text text-anchor="start" x="1129" y="-1006.2" font-family="Consolas" font-size="11.00">enable()</text>
<text text-anchor="start" x="1118" y="-990.2" font-family="Consolas" font-size="11.00">+</text>
<text text-anchor="start" x="1129" y="-990.2" font-family="Consolas" font-size="11.00">disable()</text>
<text text-anchor="start" x="1118" y="-974.2" font-family="Consolas" font-size="11.00">+</text>
<text text-anchor="start" x="1129" y="-974.2" font-family="Consolas" font-size="11.00">guard()</text>
<text text-anchor="start" x="1118" y="-958.2" font-family="Consolas" font-size="11.00">+</text>
<text text-anchor="start" x="1129" y="-958.2" font-family="Consolas" font-size="11.00">unguard()</text>
<text text-anchor="start" x="1118" y="-942.2" font-family="Consolas" font-size="11.00">+</text>
<text text-anchor="start" x="1129" y="-942.2" font-family="Consolas" font-size="11.00">is_active()</text>
<text text-anchor="start" x="1118" y="-926.2" font-family="Consolas" font-size="11.00">+</text>
<text text-anchor="start" x="1129" y="-926.2" font-family="Consolas" font-size="11.00">is_guarded()</text>
<text text-anchor="start" x="1118" y="-910.2" font-family="Consolas" font-size="11.00">+</text>
<text text-anchor="start" x="1129" y="-910.2" font-family="Consolas" font-size="11.00">print()</text>
<polygon fill="#666666" stroke="#666666" points="1114,-1161 1114,-1161 1215,-1161 1215,-1161 1114,-1161"/>
<polygon fill="#666666" stroke="#666666" points="1114,-1145 1114,-1145 1215,-1145 1215,-1145 1114,-1145"/>
<polygon fill="none" stroke="#666666" points="1113.5,-903 1113.5,-1179 1214.5,-1179 1214.5,-903 1113.5,-903"/>
</a>
</g>
</g>
<!-- Node12&#45;&gt;Node11 -->
<g id="edge13_Node000011_Node000012" class="edge">
<title>Node12&#45;&gt;Node11</title>
<g id="a_edge13_Node000011_Node000012"><a xlink:title=" ">
<path fill="none" stroke="#63b8ff" d="M1174.33,-892.76C1172.98,-846.75 1166.64,-796.64 1150,-753 1144.57,-738.75 1136.25,-724.99 1127,-712.49"/>
<polygon fill="none" stroke="#63b8ff" points="1170.83,-892.9 1174.55,-902.82 1177.83,-892.75 1170.83,-892.9"/>
</a>
</g>
</g>
</g>
</svg>
