<?xml version="1.0" encoding="UTF-8" standalone="no"?>
<!DOCTYPE svg PUBLIC "-//W3C//DTD SVG 1.1//EN"
 "http://www.w3.org/Graphics/SVG/1.1/DTD/svg11.dtd">
<!-- Generated by graphviz version 8.1.0 (20230707.0739)
 -->
<!-- Title: Expression::gradient Pages: 1 -->
<svg width="358pt" height="82pt"
 viewBox="0.00 0.00 358.00 82.25" xmlns="http://www.w3.org/2000/svg" xmlns:xlink="http://www.w3.org/1999/xlink">
<g id="graph0" class="graph" transform="scale(1 1) rotate(0) translate(4 78.25)">
<title>Expression::gradient</title>
<!-- Node1 -->
<g id="Node000001" class="node">
<title>Node1</title>
<g id="a_Node000001"><a xlink:title=" ">
<polygon fill="#999999" stroke="#666666" points="350,-51.25 214,-51.25 214,-29.75 350,-29.75 350,-51.25"/>
<text text-anchor="middle" x="282" y="-36.8" font-family="Consolas" font-size="11.00">Expression::gradient</text>
</a>
</g>
</g>
<!-- Node1&#45;&gt;Node1 -->
<g id="edge1_Node000001_Node000001" class="edge">
<title>Node1&#45;&gt;Node1</title>
<g id="a_edge1_Node000001_Node000001"><a xlink:title=" ">
<path fill="none" stroke="#63b8ff" d="M316.53,-62.12C312.47,-66.29 300.96,-69.25 282,-69.25 249.21,-69.25 238.7,-60.4 250.49,-51.71"/>
<polygon fill="#63b8ff" stroke="#63b8ff" points="319.66,-61.34 313.51,-52.71 312.94,-63.29 319.66,-61.34"/>
</a>
</g>
</g>
<!-- Node2 -->
<g id="Node000002" class="node">
<title>Node2</title>
<g id="a_Node000002"><a xlink:href="../../d1/dae/class_custom_elastic1_d.html#a5bd393f608e539edeaad3e0dc9ddfdd5" target="_top" xlink:title=" ">
<polygon fill="white" stroke="#666666" points="178,-74.25 0,-74.25 0,-52.75 178,-52.75 178,-74.25"/>
<text text-anchor="middle" x="89" y="-59.8" font-family="Consolas" font-size="11.00">CustomElastic1D::initialize</text>
</a>
</g>
</g>
<!-- Node1&#45;&gt;Node2 -->
<g id="edge2_Node000001_Node000002" class="edge">
<title>Node1&#45;&gt;Node2</title>
<g id="a_edge2_Node000001_Node000002"><a xlink:title=" ">
<path fill="none" stroke="#63b8ff" d="M202.84,-49.91C194.81,-50.88 186.61,-51.87 178.48,-52.85"/>
<polygon fill="#63b8ff" stroke="#63b8ff" points="203.15,-53.28 212.66,-48.61 202.31,-46.33 203.15,-53.28"/>
</a>
</g>
</g>
<!-- Node3 -->
<g id="Node000003" class="node">
<title>Node3</title>
<g id="a_Node000003"><a xlink:href="../../d1/dae/class_custom_elastic1_d.html#a98851e3eb5cb70cb33be204a221f0385" target="_top" xlink:title=" ">
<polygon fill="white" stroke="#666666" points="166,-35 12,-35 12,0 166,0 166,-35"/>
<text text-anchor="start" x="20" y="-20.55" font-family="Consolas" font-size="11.00">CustomElastic1D::update</text>
<text text-anchor="middle" x="89" y="-7.05" font-family="Consolas" font-size="11.00">_trial_status</text>
</a>
</g>
</g>
<!-- Node1&#45;&gt;Node3 -->
<g id="edge3_Node000001_Node000003" class="edge">
<title>Node1&#45;&gt;Node3</title>
<g id="a_edge3_Node000001_Node000003"><a xlink:title=" ">
<path fill="none" stroke="#63b8ff" d="M203.08,-31.12C190.9,-29.65 178.32,-28.14 166.18,-26.67"/>
<polygon fill="#63b8ff" stroke="#63b8ff" points="202.31,-34.67 212.66,-32.39 203.15,-27.72 202.31,-34.67"/>
</a>
</g>
</g>
</g>
</svg>
