<svg xmlns="http://www.w3.org/2000/svg" xmlns:xlink="http://www.w3.org/1999/xlink" width="1354pt" height="1880" viewBox="0 0 1353.5 1410"><g class="graph" transform="translate(4 1406)"><title>BilinearViscosity</title><g class="node"><title>Node1</title><a xlink:title="A 1D Viscosity class.">
<path fill="#999" stroke="transparent" d="M162-68H14V0h148z"/>
<text x="30.5" y="-55.2" font-family="Consolas" font-size="11">BilinearViscosity</text>
<text x="84.5" y="-39.2" font-family="Consolas" font-size="11"> </text>
<text x="18" y="-23.2" font-family="Consolas" font-size="11">+</text>
<text x="29" y="-23.2" font-family="Consolas" font-size="11">BilinearViscosity()</text>
<text x="18" y="-7.2" font-family="Consolas" font-size="11">+</text>
<text x="29" y="-7.2" font-family="Consolas" font-size="11">unique_copy()</text>
<path fill="#666" stroke="#666" d="M14-50h148z"/>
<path fill="#666" stroke="#666" d="M14-34h148z"/>
<path fill="none" stroke="#666" d="M14 0v-68h148V0z"/>
</a></g><g class="node"><title>Node2</title><a xlink:href="../../d5/d08/struct_data_bilinear_viscosity.html" target="_top">
<path fill="#fff" stroke="transparent" d="M152-776H0v52h152z"/>
<text x="5" y="-763.2" font-family="Consolas" font-size="11">DataBilinearViscosity</text>
<text x="72.5" y="-747.2" font-family="Consolas" font-size="11"> </text>
<text x="72.5" y="-731.2" font-family="Consolas" font-size="11"> </text>
<path fill="#666" stroke="#666" d="M0-758h152z"/>
<path fill="#666" stroke="#666" d="M0-742h152z"/>
<path fill="none" stroke="#666" d="M0-724v-52h152v52z"/>
</a></g><g class="edge"><title>Node2-&gt;Node1</title><a>
<path fill="none" stroke="#006400" d="M76-713.83V-194c0 43.6 4.54 93.74 8.04 125.86"/>
<path fill="none" stroke="#006400" d="m72.5-713.88 3.5-10 3.5 10z"/>
</a></g><g class="node"><title>Node3</title><a xlink:href="../../df/de6/classdouble.html" target="_top">
<path fill="#fff" stroke="transparent" d="M204.5-1290h-51v52h51z"/>
<text x="159" y="-1277.2" font-family="Consolas" font-size="11">double</text>
<text x="176" y="-1261.2" font-family="Consolas" font-size="11"> </text>
<text x="176" y="-1245.2" font-family="Consolas" font-size="11"> </text>
<path fill="#666" stroke="#666" d="M154-1272h51z"/>
<path fill="#666" stroke="#666" d="M154-1256h51z"/>
<path fill="none" stroke="#666" d="M153.5-1238v-52h51v52z"/>
</a></g><g class="edge"><title>Node3-&gt;Node2</title><a>
<path fill="none" stroke="#63b8ff" d="M155.76-1237.98C130.73-1209.18 92.41-1159.2 77-1108c-33.75 112.11-18.24 253.16-7.78 319.39"/>
<path fill="none" stroke="#63b8ff" d="m69.28-788.23-2.98 6.57 4.92 5.27 2.98-6.57z"/>
</a><text x="121" y="-1051.2" fill="gray" font-family="Consolas" font-size="11" text-anchor="middle"> +damping</text><text x="121" y="-1039.2" fill="gray" font-family="Consolas" font-size="11" text-anchor="middle">+hardening</text><text x="121" y="-1027.2" fill="gray" font-family="Consolas" font-size="11" text-anchor="middle">+yield_stress</text></g><g class="node"><title>Node5</title><a xlink:href="../../d0/dd3/struct_data_nonlinear_viscosity.html" target="_top">
<path fill="#fff" stroke="transparent" d="M261.5-476h-159v52h159z"/>
<text x="108" y="-463.2" font-family="Consolas" font-size="11">DataNonlinearViscosity</text>
<text x="179" y="-447.2" font-family="Consolas" font-size="11"> </text>
<text x="179" y="-431.2" font-family="Consolas" font-size="11"> </text>
<path fill="#666" stroke="#666" d="M103-458h159z"/>
<path fill="#666" stroke="#666" d="M103-442h159z"/>
<path fill="none" stroke="#666" d="M102.5-424v-52h159v52z"/>
</a></g><g class="edge"><title>Node3-&gt;Node5</title><a>
<path fill="none" stroke="#63b8ff" d="M179.09-1237.81c.44 117.2 2.25 609.32 2.77 749.44"/>
<path fill="none" stroke="#63b8ff" d="m181.86-488.3-3.98 6.02 4.03 5.98 3.97-6.01z"/>
</a><text x="205" y="-879.2" fill="gray" font-family="Consolas" font-size="11" text-anchor="middle"> +alpha</text><text x="205" y="-867.2" fill="gray" font-family="Consolas" font-size="11" text-anchor="middle">+limit</text></g><g class="node"><title>Node8</title><a xlink:href="../../de/de9/struct_data_material.html" target="_top">
<path fill="#fff" stroke="transparent" d="M631-934H497v116h134z"/>
<text x="523" y="-921.2" font-family="Consolas" font-size="11">DataMaterial</text>
<text x="501" y="-905.2" font-family="Consolas" font-size="11">+</text>
<text x="512" y="-905.2" font-family="Consolas" font-size="11">trial_strain</text>
<text x="501" y="-889.2" font-family="Consolas" font-size="11">+</text>
<text x="512" y="-889.2" font-family="Consolas" font-size="11">trial_strain_rate</text>
<text x="501" y="-873.2" font-family="Consolas" font-size="11">+</text>
<text x="512" y="-873.2" font-family="Consolas" font-size="11">trial_strain_acc</text>
<text x="501" y="-857.2" font-family="Consolas" font-size="11">+</text>
<text x="512" y="-857.2" font-family="Consolas" font-size="11">trial_stress</text>
<text x="501" y="-841.2" font-family="Consolas" font-size="11">+</text>
<text x="512" y="-841.2" font-family="Consolas" font-size="11">trial_history</text>
<text x="560.5" y="-825.2" font-family="Consolas" font-size="11"> </text>
<path fill="#666" stroke="#666" d="M497-916h134z"/>
<path fill="#666" stroke="#666" d="M497-836h13z"/>
<path fill="#666" stroke="#666" d="M510-836h121z"/>
<path fill="none" stroke="#666" d="M497-818v-116h134v116z"/>
</a></g><g class="edge"><title>Node3-&gt;Node8</title><a>
<path fill="none" stroke="#63b8ff" d="M181.05-1237.64c5.6 66.47 21.85 241.99 38.95 261.64 34.61 39.76 174.39 70.3 264.78 86.37"/>
<path fill="none" stroke="#63b8ff" d="m484.82-889.62 5.22 4.98 6.6-2.91-5.22-4.97z"/>
</a><text x="298" y="-1051.2" fill="gray" font-family="Consolas" font-size="11" text-anchor="middle"> +characteristic_length</text><text x="298" y="-1039.2" fill="gray" font-family="Consolas" font-size="11" text-anchor="middle">+density</text><text x="298" y="-1027.2" fill="gray" font-family="Consolas" font-size="11" text-anchor="middle">+tolerance</text></g><g class="node"><title>Node4</title><a xlink:href="../../df/db0/class_nonlinear_viscosity.html" xlink:title="A 1D Viscosity class." target="_top">
<path fill="#fff" stroke="transparent" d="M265.5-285h-161v180h161z"/>
<text x="124.5" y="-272.2" font-family="Consolas" font-size="11">NonlinearViscosity</text>
<text x="182" y="-256.2" font-family="Consolas" font-size="11"> </text>
<text x="109" y="-240.2" font-family="Consolas" font-size="11">+</text>
<text x="120" y="-240.2" font-family="Consolas" font-size="11">NonlinearViscosity()</text>
<text x="109" y="-224.2" font-family="Consolas" font-size="11">+</text>
<text x="120" y="-224.2" font-family="Consolas" font-size="11">initialize()</text>
<text x="109" y="-208.2" font-family="Consolas" font-size="11">+</text>
<text x="120" y="-208.2" font-family="Consolas" font-size="11">update_trial_status()</text>
<text x="109" y="-192.2" font-family="Consolas" font-size="11">+</text>
<text x="120" y="-192.2" font-family="Consolas" font-size="11">update_trial_status()</text>
<text x="109" y="-176.2" font-family="Consolas" font-size="11">+</text>
<text x="120" y="-176.2" font-family="Consolas" font-size="11">clear_status()</text>
<text x="109" y="-160.2" font-family="Consolas" font-size="11">+</text>
<text x="120" y="-160.2" font-family="Consolas" font-size="11">commit_status()</text>
<text x="109" y="-144.2" font-family="Consolas" font-size="11">+</text>
<text x="120" y="-144.2" font-family="Consolas" font-size="11">reset_status()</text>
<text x="109" y="-128.2" font-family="Consolas" font-size="11">+</text>
<text x="120" y="-128.2" font-family="Consolas" font-size="11">record()</text>
<text x="109" y="-112.2" font-family="Consolas" font-size="11">+</text>
<text x="120" y="-112.2" font-family="Consolas" font-size="11">print()</text>
<path fill="#666" stroke="#666" d="M105-267h161z"/>
<path fill="#666" stroke="#666" d="M105-251h161z"/>
<path fill="none" stroke="#666" d="M104.5-105v-180h161v180z"/>
</a></g><g class="edge"><title>Node4-&gt;Node1</title><a>
<path fill="none" stroke="#63b8ff" d="M125.19-95.96c-6.04 9.9-11.83 19.38-16.96 27.8"/>
<path fill="none" stroke="#63b8ff" d="m122.35-98.03 8.2-6.71-2.22 10.36z"/>
</a></g><g class="edge"><title>Node5-&gt;Node4</title><a>
<path fill="none" stroke="#006400" d="M182.42-413.7c.39 33.21 1 84.3 1.52 128.65"/>
<path fill="none" stroke="#006400" d="m178.92-413.78 3.38-10.04 3.62 9.96z"/>
</a></g><g class="node"><title>Node6</title><a xlink:href="../../d9/d97/class_material1_d.html" xlink:title="A Material1D class." target="_top">
<path fill="#fff" stroke="transparent" d="M548.5-406h-101v84h101z"/>
<text x="464.5" y="-393.2" font-family="Consolas" font-size="11">Material1D</text>
<text x="495" y="-377.2" font-family="Consolas" font-size="11"> </text>
<text x="452" y="-361.2" font-family="Consolas" font-size="11">+</text>
<text x="463" y="-361.2" font-family="Consolas" font-size="11">Material1D()</text>
<text x="452" y="-345.2" font-family="Consolas" font-size="11">+</text>
<text x="463" y="-345.2" font-family="Consolas" font-size="11">record()</text>
<text x="452" y="-329.2" font-family="Consolas" font-size="11">+</text>
<text x="463" y="-329.2" font-family="Consolas" font-size="11">print()</text>
<path fill="#666" stroke="#666" d="M448-388h101z"/>
<path fill="#666" stroke="#666" d="M448-372h101z"/>
<path fill="none" stroke="#666" d="M447.5-322v-84h101v84z"/>
</a></g><g class="edge"><title>Node6-&gt;Node4</title><a>
<path fill="none" stroke="#63b8ff" d="M438.46-331.24c-49 26.15-118.94 63.47-172.95 92.28"/>
<path fill="none" stroke="#63b8ff" d="m436.89-334.36 10.47-1.62-7.17 7.79z"/>
</a></g><g class="node"><title>Node7</title><a xlink:href="../../dc/dee/class_material.html" xlink:title="A Material abstract base class." target="_top">
<path fill="#fff" stroke="transparent" d="M849.5-706h-161v212h161z"/>
<text x="742" y="-693.2" font-family="Consolas" font-size="11">Material</text>
<text x="766" y="-677.2" font-family="Consolas" font-size="11"> </text>
<text x="693" y="-661.2" font-family="Consolas" font-size="11">+</text>
<text x="704" y="-661.2" font-family="Consolas" font-size="11">Material()</text>
<text x="693" y="-645.2" font-family="Consolas" font-size="11">+</text>
<text x="704" y="-645.2" font-family="Consolas" font-size="11">get_density()</text>
<text x="693" y="-629.2" font-family="Consolas" font-size="11">+</text>
<text x="704" y="-629.2" font-family="Consolas" font-size="11">get_material_type()</text>
<text x="693" y="-613.2" font-family="Consolas" font-size="11">+</text>
<text x="704" y="-613.2" font-family="Consolas" font-size="11">get_plane_type()</text>
<text x="693" y="-597.2" font-family="Consolas" font-size="11">+</text>
<text x="704" y="-597.2" font-family="Consolas" font-size="11">initialize_base()</text>
<text x="693" y="-581.2" font-family="Consolas" font-size="11">+</text>
<text x="704" y="-581.2" font-family="Consolas" font-size="11">initialize()</text>
<text x="693" y="-565.2" font-family="Consolas" font-size="11">+</text>
<text x="704" y="-565.2" font-family="Consolas" font-size="11">initialize_couple()</text>
<text x="693" y="-549.2" font-family="Consolas" font-size="11">+</text>
<text x="704" y="-549.2" font-family="Consolas" font-size="11">initialize_history()</text>
<text x="693" y="-533.2" font-family="Consolas" font-size="11">+</text>
<text x="704" y="-533.2" font-family="Consolas" font-size="11">set_initial_history()</text>
<text x="693" y="-517.2" font-family="Consolas" font-size="11">+</text>
<text x="704" y="-517.2" font-family="Consolas" font-size="11">set_initialized()</text>
<text x="704" y="-501.2" font-family="Consolas" font-size="11">and 67 more...</text>
<path fill="#666" stroke="#666" d="M689-688h161z"/>
<path fill="#666" stroke="#666" d="M689-672h161z"/>
<path fill="none" stroke="#666" d="M688.5-494v-212h161v212z"/>
</a></g><g class="edge"><title>Node7-&gt;Node6</title><a>
<path fill="none" stroke="#63b8ff" d="M680.71-522.76 545.62-406.12"/>
<path fill="none" stroke="#63b8ff" d="m678.57-525.54 9.85-3.89-5.28 9.19z"/>
</a></g><g class="edge"><title>Node8-&gt;Node7</title><a>
<path fill="none" stroke="#006400" d="M612.81-809.77c23.15 30.96 51.41 68.72 77.49 103.58"/>
<path fill="none" stroke="#006400" d="m609.91-807.79-3.18-10.1 8.79 5.91z"/>
</a></g><g class="node"><title>Node9</title><a>
<path fill="#fff" stroke="transparent" d="M449-1290H317v52h132z"/>
<text x="322" y="-1277.2" font-family="Consolas" font-size="11">const MaterialType</text>
<text x="379.5" y="-1261.2" font-family="Consolas" font-size="11"> </text>
<text x="379.5" y="-1245.2" font-family="Consolas" font-size="11"> </text>
<path fill="#666" stroke="#666" d="M317-1272h132z"/>
<path fill="#666" stroke="#666" d="M317-1256h132z"/>
<path fill="none" stroke="#666" d="M317-1238v-52h132v52z"/>
</a></g><g class="edge"><title>Node9-&gt;Node8</title><a>
<path fill="none" stroke="#63b8ff" d="M381.56-1237.68c-3.05 61.73-7.89 218.1 18.44 261.68 19.38 32.09 53.49 55.11 85.6 70.83"/>
<path fill="none" stroke="#63b8ff" d="m485.97-905 3.74 6.17 7.13-1.08-3.74-6.17z"/>
</a><text x="451" y="-1039.2" fill="gray" font-family="Consolas" font-size="11" text-anchor="middle"> +material_type</text></g><g class="node"><title>Node10</title><a>
<path fill="#fff" stroke="transparent" d="M579-1290H467v52h112z"/>
<text x="472" y="-1277.2" font-family="Consolas" font-size="11">const PlaneType</text>
<text x="519.5" y="-1261.2" font-family="Consolas" font-size="11"> </text>
<text x="519.5" y="-1245.2" font-family="Consolas" font-size="11"> </text>
<path fill="#666" stroke="#666" d="M467-1272h112z"/>
<path fill="#666" stroke="#666" d="M467-1256h112z"/>
<path fill="none" stroke="#666" d="M467-1238v-52h112v52z"/>
</a></g><g class="edge"><title>Node10-&gt;Node8</title><a>
<path fill="none" stroke="#63b8ff" d="M518.44-1237.64c-8.21 50.54-22.75 167.08-1.44 261.64 2.31 10.25 5.81 20.68 9.88 30.74"/>
<path fill="none" stroke="#63b8ff" d="m526.94-945.11-1.3 7.09 6.04 3.94 1.31-7.1z"/>
</a><text x="558" y="-1039.2" fill="gray" font-family="Consolas" font-size="11" text-anchor="middle"> +plane_type</text></g><g class="node"><title>Node11</title><a>
<path fill="#fff" stroke="transparent" d="M691.5-1290h-31v52h31z"/>
<text x="666" y="-1277.2" font-family="Consolas" font-size="11">vec</text>
<text x="673" y="-1261.2" font-family="Consolas" font-size="11"> </text>
<text x="673" y="-1245.2" font-family="Consolas" font-size="11"> </text>
<path fill="#666" stroke="#666" d="M661-1272h31z"/>
<path fill="#666" stroke="#666" d="M661-1256h31z"/>
<path fill="none" stroke="#666" d="M660.5-1238v-52h31v52z"/>
</a></g><g class="edge"><title>Node11-&gt;Node8</title><a>
<path fill="none" stroke="#63b8ff" d="M665.83-1237.88c-11.96 30.34-31.7 83.13-43.83 129.88-14.96 57.64-7.91 74.39-23 132-2.59 9.89-5.72 20.19-9.04 30.26"/>
<path fill="none" stroke="#63b8ff" d="m589.86-945.44-5.72 4.4 1.87 6.96 5.71-4.4z"/>
</a><text x="690" y="-1099.2" fill="gray" font-family="Consolas" font-size="11" text-anchor="middle"> +current_history</text><text x="690" y="-1087.2" fill="gray" font-family="Consolas" font-size="11" text-anchor="middle">+current_strain</text><text x="690" y="-1075.2" fill="gray" font-family="Consolas" font-size="11" text-anchor="middle">+current_strain_acc</text><text x="690" y="-1063.2" fill="gray" font-family="Consolas" font-size="11" text-anchor="middle">+current_strain_rate</text><text x="690" y="-1051.2" fill="gray" font-family="Consolas" font-size="11" text-anchor="middle">+current_stress</text><text x="690" y="-1039.2" fill="gray" font-family="Consolas" font-size="11" text-anchor="middle">+incre_strain</text><text x="690" y="-1027.2" fill="gray" font-family="Consolas" font-size="11" text-anchor="middle">+incre_strain_acc</text><text x="690" y="-1015.2" fill="gray" font-family="Consolas" font-size="11" text-anchor="middle">+incre_strain_rate</text><text x="690" y="-1003.2" fill="gray" font-family="Consolas" font-size="11" text-anchor="middle">+incre_stress</text><text x="690" y="-991.2" fill="gray" font-family="Consolas" font-size="11" text-anchor="middle">+initial_history</text><text x="690" y="-979.2" fill="gray" font-family="Consolas" font-size="11" text-anchor="middle">...</text></g><g class="node"><title>Node13</title><a xlink:href="../../da/de4/struct_data_couple_material.html" target="_top">
<path fill="#fff" stroke="transparent" d="M991-902H859v52h132z"/>
<text x="864" y="-889.2" font-family="Consolas" font-size="11">DataCoupleMaterial</text>
<text x="921.5" y="-873.2" font-family="Consolas" font-size="11"> </text>
<text x="921.5" y="-857.2" font-family="Consolas" font-size="11"> </text>
<path fill="#666" stroke="#666" d="M859-884h132z"/>
<path fill="#666" stroke="#666" d="M859-868h132z"/>
<path fill="none" stroke="#666" d="M859-850v-52h132v52z"/>
</a></g><g class="edge"><title>Node11-&gt;Node13</title><a>
<path fill="none" stroke="#63b8ff" d="M691.63-1257.71c42.59 15.33 160.91 64.24 211.37 149.71 9.58 16.23 16.91 132.23 20.16 193.42"/>
<path fill="none" stroke="#63b8ff" d="m923.17-914.4-3.68 6.2 4.3 5.79 3.69-6.2z"/>
</a><text x="998" y="-1069.2" fill="gray" font-family="Consolas" font-size="11" text-anchor="middle"> +current_couple_stress</text><text x="998" y="-1057.2" fill="gray" font-family="Consolas" font-size="11" text-anchor="middle">+current_curvature</text><text x="998" y="-1045.2" fill="gray" font-family="Consolas" font-size="11" text-anchor="middle">+incre_couple_stress</text><text x="998" y="-1033.2" fill="gray" font-family="Consolas" font-size="11" text-anchor="middle">+incre_curvature</text><text x="998" y="-1021.2" fill="gray" font-family="Consolas" font-size="11" text-anchor="middle">+trial_couple_stress</text><text x="998" y="-1009.2" fill="gray" font-family="Consolas" font-size="11" text-anchor="middle">+trial_curvature</text></g><g class="node"><title>Node12</title><a>
<path fill="#fff" stroke="transparent" d="M957.5-1290h-31v52h31z"/>
<text x="932" y="-1277.2" font-family="Consolas" font-size="11">mat</text>
<text x="939" y="-1261.2" font-family="Consolas" font-size="11"> </text>
<text x="939" y="-1245.2" font-family="Consolas" font-size="11"> </text>
<path fill="#666" stroke="#666" d="M927-1272h31z"/>
<path fill="#666" stroke="#666" d="M927-1256h31z"/>
<path fill="none" stroke="#666" d="M926.5-1238v-52h31v52z"/>
</a></g><g class="edge"><title>Node12-&gt;Node8</title><a>
<path fill="none" stroke="#63b8ff" d="M926.47-1253.69C892.78-1232.56 813.1-1177.38 777-1108c-27.36 52.58 15.48 83.79-19 132-27.55 38.51-74.57 63.04-115.41 78.04"/>
<path fill="none" stroke="#63b8ff" d="m642.57-897.95-6.99-1.79-4.33 5.76 6.99 1.79z"/>
</a><text x="838" y="-1087.2" fill="gray" font-family="Consolas" font-size="11" text-anchor="middle"> +current_damping</text><text x="838" y="-1075.2" fill="gray" font-family="Consolas" font-size="11" text-anchor="middle">+current_inertial</text><text x="838" y="-1063.2" fill="gray" font-family="Consolas" font-size="11" text-anchor="middle">+current_stiffness</text><text x="838" y="-1051.2" fill="gray" font-family="Consolas" font-size="11" text-anchor="middle">+initial_damping</text><text x="838" y="-1039.2" fill="gray" font-family="Consolas" font-size="11" text-anchor="middle">+initial_inertial</text><text x="838" y="-1027.2" fill="gray" font-family="Consolas" font-size="11" text-anchor="middle">+initial_stiffness</text><text x="838" y="-1015.2" fill="gray" font-family="Consolas" font-size="11" text-anchor="middle">+trial_damping</text><text x="838" y="-1003.2" fill="gray" font-family="Consolas" font-size="11" text-anchor="middle">+trial_inertial</text><text x="838" y="-991.2" fill="gray" font-family="Consolas" font-size="11" text-anchor="middle">+trial_stiffness</text></g><g class="edge"><title>Node12-&gt;Node13</title><a>
<path fill="none" stroke="#63b8ff" d="M957.73-1252.03c30.94 22.65 98.88 78.04 124.27 144.03 21.07 54.75 28.34 80.63 0 132-17.26 31.29-49.02 54.04-79.48 69.79"/>
<path fill="none" stroke="#63b8ff" d="m1002.14-906.03-7.15-.93-3.61 6.24 7.15.93z"/>
</a><text x="1189" y="-1051.2" fill="gray" font-family="Consolas" font-size="11" text-anchor="middle"> +current_couple_stiffness</text><text x="1189" y="-1039.2" fill="gray" font-family="Consolas" font-size="11" text-anchor="middle">+initial_couple_stiffness</text><text x="1189" y="-1027.2" fill="gray" font-family="Consolas" font-size="11" text-anchor="middle">+trial_couple_stiffness</text></g><g class="edge"><title>Node13-&gt;Node7</title><a>
<path fill="none" stroke="#006400" d="m905.5-840.75-76.58 134.5"/>
<path fill="none" stroke="#006400" d="m902.61-842.76 7.99-6.95-1.9 10.42z"/>
</a></g><g class="node"><title>Node14</title><a xlink:href="../../d7/d1d/class_copyable_tag.html" xlink:title="Label objects that can be copied." target="_top">
<path fill="#fff" stroke="transparent" d="M1237-958h-114v164h114z"/>
<text x="1142.5" y="-945.2" font-family="Consolas" font-size="11">CopyableTag</text>
<text x="1176.5" y="-929.2" font-family="Consolas" font-size="11"> </text>
<text x="1127" y="-913.2" font-family="Consolas" font-size="11">+</text>
<text x="1138" y="-913.2" font-family="Consolas" font-size="11">CopyableTag()</text>
<text x="1127" y="-897.2" font-family="Consolas" font-size="11">+</text>
<text x="1138" y="-897.2" font-family="Consolas" font-size="11">CopyableTag()</text>
<text x="1127" y="-881.2" font-family="Consolas" font-size="11">+</text>
<text x="1138" y="-881.2" font-family="Consolas" font-size="11">operator=()</text>
<text x="1127" y="-865.2" font-family="Consolas" font-size="11">+</text>
<text x="1138" y="-865.2" font-family="Consolas" font-size="11">operator=()</text>
<text x="1127" y="-849.2" font-family="Consolas" font-size="11">+</text>
<text x="1138" y="-849.2" font-family="Consolas" font-size="11">~CopyableTag()</text>
<text x="1127" y="-833.2" font-family="Consolas" font-size="11">+</text>
<text x="1138" y="-833.2" font-family="Consolas" font-size="11">Tag()</text>
<text x="1127" y="-817.2" font-family="Consolas" font-size="11">+</text>
<text x="1138" y="-817.2" font-family="Consolas" font-size="11">Tag()</text>
<text x="1127" y="-801.2" font-family="Consolas" font-size="11">+</text>
<text x="1138" y="-801.2" font-family="Consolas" font-size="11">Tag()</text>
<path fill="#666" stroke="#666" d="M1123-940h114z"/>
<path fill="#666" stroke="#666" d="M1123-924h114z"/>
<path fill="none" stroke="#666" d="M1123-794v-164h114v164z"/>
</a></g><g class="edge"><title>Node14-&gt;Node7</title><a>
<path fill="none" stroke="#63b8ff" d="M1114.3-831.2c-71.91 47.94-187.26 124.84-264.62 176.41"/>
<path fill="none" stroke="#63b8ff" d="m1112.59-834.27 10.26-2.63-6.38 8.46z"/>
</a></g><g class="node"><title>Node15</title><a xlink:href="../../d0/d57/class_tag.html" xlink:title="A base Tag class." target="_top">
<path fill="#fff" stroke="transparent" d="M1345.5-1402h-101v276h101z"/>
<text x="1285" y="-1389.2" font-family="Consolas" font-size="11">Tag</text>
<text x="1292" y="-1373.2" font-family="Consolas" font-size="11"> </text>
<text x="1249" y="-1357.2" font-family="Consolas" font-size="11">+</text>
<text x="1260" y="-1357.2" font-family="Consolas" font-size="11">Tag()</text>
<text x="1249" y="-1341.2" font-family="Consolas" font-size="11">+</text>
<text x="1260" y="-1341.2" font-family="Consolas" font-size="11">Tag()</text>
<text x="1249" y="-1325.2" font-family="Consolas" font-size="11">+</text>
<text x="1260" y="-1325.2" font-family="Consolas" font-size="11">Tag()</text>
<text x="1249" y="-1309.2" font-family="Consolas" font-size="11">+</text>
<text x="1260" y="-1309.2" font-family="Consolas" font-size="11">operator=()</text>
<text x="1249" y="-1293.2" font-family="Consolas" font-size="11">+</text>
<text x="1260" y="-1293.2" font-family="Consolas" font-size="11">operator=()</text>
<text x="1249" y="-1277.2" font-family="Consolas" font-size="11">+</text>
<text x="1260" y="-1277.2" font-family="Consolas" font-size="11">~Tag()</text>
<text x="1249" y="-1261.2" font-family="Consolas" font-size="11">+</text>
<text x="1260" y="-1261.2" font-family="Consolas" font-size="11">set_tag()</text>
<text x="1249" y="-1245.2" font-family="Consolas" font-size="11">+</text>
<text x="1260" y="-1245.2" font-family="Consolas" font-size="11">get_tag()</text>
<text x="1249" y="-1229.2" font-family="Consolas" font-size="11">+</text>
<text x="1260" y="-1229.2" font-family="Consolas" font-size="11">enable()</text>
<text x="1249" y="-1213.2" font-family="Consolas" font-size="11">+</text>
<text x="1260" y="-1213.2" font-family="Consolas" font-size="11">disable()</text>
<text x="1249" y="-1197.2" font-family="Consolas" font-size="11">+</text>
<text x="1260" y="-1197.2" font-family="Consolas" font-size="11">guard()</text>
<text x="1249" y="-1181.2" font-family="Consolas" font-size="11">+</text>
<text x="1260" y="-1181.2" font-family="Consolas" font-size="11">unguard()</text>
<text x="1249" y="-1165.2" font-family="Consolas" font-size="11">+</text>
<text x="1260" y="-1165.2" font-family="Consolas" font-size="11">is_active()</text>
<text x="1249" y="-1149.2" font-family="Consolas" font-size="11">+</text>
<text x="1260" y="-1149.2" font-family="Consolas" font-size="11">is_guarded()</text>
<text x="1249" y="-1133.2" font-family="Consolas" font-size="11">+</text>
<text x="1260" y="-1133.2" font-family="Consolas" font-size="11">print()</text>
<path fill="#666" stroke="#666" d="M1245-1384h101z"/>
<path fill="#666" stroke="#666" d="M1245-1368h101z"/>
<path fill="none" stroke="#666" d="M1244.5-1126v-276h101v276z"/>
</a></g><g class="edge"><title>Node15-&gt;Node14</title><a>
<path fill="none" stroke="#63b8ff" d="M1308.37-1115.54c-1.12 46.35-8.09 96.61-27.37 139.54-9.76 21.73-26.62 41.2-43.8 57.01"/>
<path fill="none" stroke="#63b8ff" d="m1304.87-1115.74 3.65-9.94 3.35 10.05z"/>
</a></g></g></svg>