<svg xmlns="http://www.w3.org/2000/svg" xmlns:xlink="http://www.w3.org/1999/xlink" width="196pt" height="1768pt" viewBox="0 0 196 1768"><g class="graph" transform="translate(4 1764)"><title>UDANewmark</title><g class="node"><title>Node1</title><a>
<path fill="#999" stroke="transparent" d="M174.5-192h-161V0h161z"/>
<text x="60.5" y="-179.2" font-family="Consolas" font-size="11">UDANewmark</text>
<text x="91" y="-163.2" font-family="Consolas" font-size="11"> </text>
<text x="18" y="-147.2" font-family="Consolas" font-size="11">+</text>
<text x="29" y="-147.2" font-family="Consolas" font-size="11">initialize()</text>
<text x="18" y="-131.2" font-family="Consolas" font-size="11">+</text>
<text x="29" y="-131.2" font-family="Consolas" font-size="11">assemble_resistance()</text>
<text x="18" y="-115.2" font-family="Consolas" font-size="11">+</text>
<text x="29" y="-115.2" font-family="Consolas" font-size="11">assemble_effective</text>
<text x="29" y="-103.2" font-family="Consolas" font-size="11">_matrix()</text>
<text x="18" y="-87.2" font-family="Consolas" font-size="11">+</text>
<text x="29" y="-87.2" font-family="Consolas" font-size="11">load_scaling_factor()</text>
<text x="18" y="-71.2" font-family="Consolas" font-size="11">+</text>
<text x="29" y="-71.2" font-family="Consolas" font-size="11">get_residual()</text>
<text x="18" y="-55.2" font-family="Consolas" font-size="11">+</text>
<text x="29" y="-55.2" font-family="Consolas" font-size="11">commit_status()</text>
<text x="18" y="-39.2" font-family="Consolas" font-size="11">+</text>
<text x="29" y="-39.2" font-family="Consolas" font-size="11">clear_status()</text>
<text x="18" y="-23.2" font-family="Consolas" font-size="11">+</text>
<text x="29" y="-23.2" font-family="Consolas" font-size="11">UDNewmark()</text>
<text x="18" y="-7.2" font-family="Consolas" font-size="11">#</text>
<text x="29" y="-7.2" font-family="Consolas" font-size="11">target_field()</text>
<path fill="#666" stroke="#666" d="M14-174h161z"/>
<path fill="#666" stroke="#666" d="M14-158h161z"/>
<path fill="none" stroke="#666" d="M13.5 0v-192h161V0z"/>
</a></g><g class="node"><title>Node2</title><a xlink:href="../../de/d87/class_u_d_newmark.html" target="_top">
<path fill="#fff" stroke="transparent" d="M164.5-472h-141v244h141z"/>
<text x="64" y="-459.2" font-family="Consolas" font-size="11">UDNewmark</text>
<text x="28" y="-443.2" font-family="Consolas" font-size="11">#</text>
<text x="39" y="-443.2" font-family="Consolas" font-size="11">m</text>
<text x="28" y="-427.2" font-family="Consolas" font-size="11">#</text>
<text x="39" y="-427.2" font-family="Consolas" font-size="11">s</text>
<text x="28" y="-411.2" font-family="Consolas" font-size="11">#</text>
<text x="39" y="-411.2" font-family="Consolas" font-size="11">s_para</text>
<text x="28" y="-395.2" font-family="Consolas" font-size="11">#</text>
<text x="39" y="-395.2" font-family="Consolas" font-size="11">m_para</text>
<text x="28" y="-379.2" font-family="Consolas" font-size="11">#</text>
<text x="39" y="-379.2" font-family="Consolas" font-size="11">current_nonviscous</text>
<text x="28" y="-363.2" font-family="Consolas" font-size="11">#</text>
<text x="39" y="-363.2" font-family="Consolas" font-size="11">aux_para</text>
<text x="28" y="-347.2" font-family="Consolas" font-size="11">#</text>
<text x="39" y="-347.2" font-family="Consolas" font-size="11">accu_para</text>
<text x="28" y="-331.2" font-family="Consolas" font-size="11">+</text>
<text x="39" y="-331.2" font-family="Consolas" font-size="11">UDNewmark()</text>
<text x="28" y="-315.2" font-family="Consolas" font-size="11">+</text>
<text x="39" y="-315.2" font-family="Consolas" font-size="11">initialize()</text>
<text x="28" y="-299.2" font-family="Consolas" font-size="11">+</text>
<text x="39" y="-299.2" font-family="Consolas" font-size="11">commit_status()</text>
<text x="28" y="-283.2" font-family="Consolas" font-size="11">+</text>
<text x="39" y="-283.2" font-family="Consolas" font-size="11">clear_status()</text>
<text x="28" y="-267.2" font-family="Consolas" font-size="11">+</text>
<text x="39" y="-267.2" font-family="Consolas" font-size="11">print()</text>
<text x="28" y="-251.2" font-family="Consolas" font-size="11">#</text>
<text x="39" y="-251.2" font-family="Consolas" font-size="11">update_parameter()</text>
<text x="28" y="-235.2" font-family="Consolas" font-size="11">#</text>
<text x="39" y="-235.2" font-family="Consolas" font-size="11">target_field()</text>
<path fill="#666" stroke="#666" d="M24-454h141z"/>
<path fill="#666" stroke="#666" d="M24-342h13z"/>
<path fill="#666" stroke="#666" d="M37-342h128z"/>
<path fill="none" stroke="#666" d="M23.5-228v-244h141v244z"/>
</a></g><g class="edge"><title>Node2-&gt;Node1</title><a>
<path fill="none" stroke="#63b8ff" d="M94-217.69v25.57"/>
<path fill="none" stroke="#63b8ff" d="m90.5-217.8 3.5-10 3.5 10z"/>
</a></g><g class="node"><title>Node3</title><a xlink:href="../../dd/d8e/class_newmark.html" xlink:title="A Newmark class defines a solver using Newmark algorithm." target="_top">
<path fill="#fff" stroke="transparent" d="M188-764H0v256h188z"/>
<text x="70" y="-751.2" font-family="Consolas" font-size="11">Newmark</text>
<text x="4" y="-735.2" font-family="Consolas" font-size="11">#</text>
<text x="15" y="-735.2" font-family="Consolas" font-size="11">C0</text>
<text x="4" y="-719.2" font-family="Consolas" font-size="11">#</text>
<text x="15" y="-719.2" font-family="Consolas" font-size="11">C1</text>
<text x="4" y="-703.2" font-family="Consolas" font-size="11">#</text>
<text x="15" y="-703.2" font-family="Consolas" font-size="11">C2</text>
<text x="4" y="-687.2" font-family="Consolas" font-size="11">#</text>
<text x="15" y="-687.2" font-family="Consolas" font-size="11">C3</text>
<text x="4" y="-671.2" font-family="Consolas" font-size="11">#</text>
<text x="15" y="-671.2" font-family="Consolas" font-size="11">C4</text>
<text x="4" y="-655.2" font-family="Consolas" font-size="11">#</text>
<text x="15" y="-655.2" font-family="Consolas" font-size="11">C5</text>
<text x="4" y="-639.2" font-family="Consolas" font-size="11">+</text>
<text x="15" y="-639.2" font-family="Consolas" font-size="11">Newmark()</text>
<text x="4" y="-623.2" font-family="Consolas" font-size="11">+</text>
<text x="15" y="-623.2" font-family="Consolas" font-size="11">assemble_resistance()</text>
<text x="4" y="-607.2" font-family="Consolas" font-size="11">+</text>
<text x="15" y="-607.2" font-family="Consolas" font-size="11">assemble_effective</text>
<text x="15" y="-595.2" font-family="Consolas" font-size="11">_matrix()</text>
<text x="4" y="-579.2" font-family="Consolas" font-size="11">+</text>
<text x="15" y="-579.2" font-family="Consolas" font-size="11">update_trial_status()</text>
<text x="4" y="-563.2" font-family="Consolas" font-size="11">+</text>
<text x="15" y="-563.2" font-family="Consolas" font-size="11">from_incre_velocity()</text>
<text x="4" y="-547.2" font-family="Consolas" font-size="11">+</text>
<text x="15" y="-547.2" font-family="Consolas" font-size="11">from_incre_acceleration()</text>
<text x="4" y="-531.2" font-family="Consolas" font-size="11">+</text>
<text x="15" y="-531.2" font-family="Consolas" font-size="11">print()</text>
<text x="4" y="-515.2" font-family="Consolas" font-size="11">#</text>
<text x="15" y="-515.2" font-family="Consolas" font-size="11">update_parameter()</text>
<path fill="#666" stroke="#666" d="M0-746h188z"/>
<path fill="#666" stroke="#666" d="M0-650h13z"/>
<path fill="#666" stroke="#666" d="M13-650h175z"/>
<path fill="none" stroke="#666" d="M0-508v-256h188v256z"/>
</a></g><g class="edge"><title>Node3-&gt;Node2</title><a>
<path fill="none" stroke="#63b8ff" d="M94-497.68v25.26"/>
<path fill="none" stroke="#63b8ff" d="m90.5-497.95 3.5-10 3.5 10z"/>
</a></g><g class="node"><title>Node4</title><a xlink:href="../../d2/df8/class_implicit_integrator.html" target="_top">
<path fill="#fff" stroke="transparent" d="M161-884H27v84h134z"/>
<text x="33" y="-871.2" font-family="Consolas" font-size="11">ImplicitIntegrator</text>
<text x="90.5" y="-855.2" font-family="Consolas" font-size="11"> </text>
<text x="31" y="-839.2" font-family="Consolas" font-size="11">+</text>
<text x="42" y="-839.2" font-family="Consolas" font-size="11">type()</text>
<text x="31" y="-823.2" font-family="Consolas" font-size="11">+</text>
<text x="42" y="-823.2" font-family="Consolas" font-size="11">assemble_matrix()</text>
<text x="31" y="-807.2" font-family="Consolas" font-size="11">+</text>
<text x="42" y="-807.2" font-family="Consolas" font-size="11">Integrator()</text>
<path fill="#666" stroke="#666" d="M27-866h134z"/>
<path fill="#666" stroke="#666" d="M27-850h134z"/>
<path fill="none" stroke="#666" d="M27-800v-84h134v84z"/>
</a></g><g class="edge"><title>Node4-&gt;Node3</title><a>
<path fill="none" stroke="#63b8ff" d="M94-789.56v25.34"/>
<path fill="none" stroke="#63b8ff" d="m90.5-789.72 3.5-10 3.5 10z"/>
</a></g><g class="node"><title>Node5</title><a xlink:href="../../d6/d55/class_integrator.html" xlink:title="The Integrator class is basically a wrapper of the DomainBase class with regard to some status changi..." target="_top">
<path fill="#fff" stroke="transparent" d="M188-1248H0v328h188z"/>
<text x="60" y="-1235.2" font-family="Consolas" font-size="11">Integrator</text>
<text x="90.5" y="-1219.2" font-family="Consolas" font-size="11"> </text>
<text x="4" y="-1203.2" font-family="Consolas" font-size="11">+</text>
<text x="15" y="-1203.2" font-family="Consolas" font-size="11">Integrator()</text>
<text x="4" y="-1187.2" font-family="Consolas" font-size="11">+</text>
<text x="15" y="-1187.2" font-family="Consolas" font-size="11">set_domain()</text>
<text x="4" y="-1171.2" font-family="Consolas" font-size="11">+</text>
<text x="15" y="-1171.2" font-family="Consolas" font-size="11">get_domain()</text>
<text x="4" y="-1155.2" font-family="Consolas" font-size="11">+</text>
<text x="15" y="-1155.2" font-family="Consolas" font-size="11">initialize()</text>
<text x="4" y="-1139.2" font-family="Consolas" font-size="11">+</text>
<text x="15" y="-1139.2" font-family="Consolas" font-size="11">type()</text>
<text x="4" y="-1123.2" font-family="Consolas" font-size="11">+</text>
<text x="15" y="-1123.2" font-family="Consolas" font-size="11">set_time_step_switch()</text>
<text x="4" y="-1107.2" font-family="Consolas" font-size="11">+</text>
<text x="15" y="-1107.2" font-family="Consolas" font-size="11">allow_to_change_time</text>
<text x="15" y="-1095.2" font-family="Consolas" font-size="11">_step()</text>
<text x="4" y="-1079.2" font-family="Consolas" font-size="11">+</text>
<text x="15" y="-1079.2" font-family="Consolas" font-size="11">set_matrix_assembled</text>
<text x="15" y="-1067.2" font-family="Consolas" font-size="11">_switch()</text>
<text x="4" y="-1051.2" font-family="Consolas" font-size="11">+</text>
<text x="15" y="-1051.2" font-family="Consolas" font-size="11">matrix_is_assembled()</text>
<text x="4" y="-1035.2" font-family="Consolas" font-size="11">+</text>
<text x="15" y="-1035.2" font-family="Consolas" font-size="11">time_independent_matrix()</text>
<text x="15" y="-1019.2" font-family="Consolas" font-size="11">and 49 more...</text>
<text x="4" y="-1003.2" font-family="Consolas" font-size="11">#</text>
<text x="15" y="-1003.2" font-family="Consolas" font-size="11">update_parameter()</text>
<text x="4" y="-987.2" font-family="Consolas" font-size="11">#</text>
<text x="15" y="-987.2" font-family="Consolas" font-size="11">process_load_impl()</text>
<text x="4" y="-971.2" font-family="Consolas" font-size="11">#</text>
<text x="15" y="-971.2" font-family="Consolas" font-size="11">process_constraint</text>
<text x="15" y="-959.2" font-family="Consolas" font-size="11">_impl()</text>
<text x="4" y="-943.2" font-family="Consolas" font-size="11">#</text>
<text x="15" y="-943.2" font-family="Consolas" font-size="11">has_corrector()</text>
<text x="4" y="-927.2" font-family="Consolas" font-size="11">#</text>
<text x="15" y="-927.2" font-family="Consolas" font-size="11">correct_trial_status()</text>
<path fill="#666" stroke="#666" d="M0-1230h188z"/>
<path fill="#666" stroke="#666" d="M0-1214h188z"/>
<path fill="none" stroke="#666" d="M0-920v-328h188v328z"/>
</a></g><g class="edge"><title>Node5-&gt;Node4</title><a>
<path fill="none" stroke="#63b8ff" d="M94-909.75v25.74"/>
<path fill="none" stroke="#63b8ff" d="m90.5-909.93 3.5-10 3.5 10z"/>
</a></g><g class="node"><title>Node6</title><a xlink:href="../../db/db8/class_unique_tag.html" xlink:title="Label objects that cannot be copied." target="_top">
<path fill="#fff" stroke="transparent" d="M144.5-1448h-101v164h101z"/>
<text x="64" y="-1435.2" font-family="Consolas" font-size="11">UniqueTag</text>
<text x="91" y="-1419.2" font-family="Consolas" font-size="11"> </text>
<text x="48" y="-1403.2" font-family="Consolas" font-size="11">+</text>
<text x="59" y="-1403.2" font-family="Consolas" font-size="11">UniqueTag()</text>
<text x="48" y="-1387.2" font-family="Consolas" font-size="11">+</text>
<text x="59" y="-1387.2" font-family="Consolas" font-size="11">UniqueTag()</text>
<text x="48" y="-1371.2" font-family="Consolas" font-size="11">+</text>
<text x="59" y="-1371.2" font-family="Consolas" font-size="11">operator=()</text>
<text x="48" y="-1355.2" font-family="Consolas" font-size="11">+</text>
<text x="59" y="-1355.2" font-family="Consolas" font-size="11">operator=()</text>
<text x="48" y="-1339.2" font-family="Consolas" font-size="11">+</text>
<text x="59" y="-1339.2" font-family="Consolas" font-size="11">~UniqueTag()</text>
<text x="48" y="-1323.2" font-family="Consolas" font-size="11">+</text>
<text x="59" y="-1323.2" font-family="Consolas" font-size="11">Tag()</text>
<text x="48" y="-1307.2" font-family="Consolas" font-size="11">+</text>
<text x="59" y="-1307.2" font-family="Consolas" font-size="11">Tag()</text>
<text x="48" y="-1291.2" font-family="Consolas" font-size="11">+</text>
<text x="59" y="-1291.2" font-family="Consolas" font-size="11">Tag()</text>
<path fill="#666" stroke="#666" d="M44-1430h101z"/>
<path fill="#666" stroke="#666" d="M44-1414h101z"/>
<path fill="none" stroke="#666" d="M43.5-1284v-164h101v164z"/>
</a></g><g class="edge"><title>Node6-&gt;Node5</title><a>
<path fill="none" stroke="#63b8ff" d="M94-1273.42v25.18"/>
<path fill="none" stroke="#63b8ff" d="m90.5-1273.64 3.5-10 3.5 10z"/>
</a></g><g class="node"><title>Node7</title><a xlink:href="../../d0/d57/class_tag.html" xlink:title="A base Tag class." target="_top">
<path fill="#fff" stroke="transparent" d="M144.5-1760h-101v276h101z"/>
<text x="84" y="-1747.2" font-family="Consolas" font-size="11">Tag</text>
<text x="91" y="-1731.2" font-family="Consolas" font-size="11"> </text>
<text x="48" y="-1715.2" font-family="Consolas" font-size="11">+</text>
<text x="59" y="-1715.2" font-family="Consolas" font-size="11">Tag()</text>
<text x="48" y="-1699.2" font-family="Consolas" font-size="11">+</text>
<text x="59" y="-1699.2" font-family="Consolas" font-size="11">Tag()</text>
<text x="48" y="-1683.2" font-family="Consolas" font-size="11">+</text>
<text x="59" y="-1683.2" font-family="Consolas" font-size="11">Tag()</text>
<text x="48" y="-1667.2" font-family="Consolas" font-size="11">+</text>
<text x="59" y="-1667.2" font-family="Consolas" font-size="11">operator=()</text>
<text x="48" y="-1651.2" font-family="Consolas" font-size="11">+</text>
<text x="59" y="-1651.2" font-family="Consolas" font-size="11">operator=()</text>
<text x="48" y="-1635.2" font-family="Consolas" font-size="11">+</text>
<text x="59" y="-1635.2" font-family="Consolas" font-size="11">~Tag()</text>
<text x="48" y="-1619.2" font-family="Consolas" font-size="11">+</text>
<text x="59" y="-1619.2" font-family="Consolas" font-size="11">set_tag()</text>
<text x="48" y="-1603.2" font-family="Consolas" font-size="11">+</text>
<text x="59" y="-1603.2" font-family="Consolas" font-size="11">get_tag()</text>
<text x="48" y="-1587.2" font-family="Consolas" font-size="11">+</text>
<text x="59" y="-1587.2" font-family="Consolas" font-size="11">enable()</text>
<text x="48" y="-1571.2" font-family="Consolas" font-size="11">+</text>
<text x="59" y="-1571.2" font-family="Consolas" font-size="11">disable()</text>
<text x="48" y="-1555.2" font-family="Consolas" font-size="11">+</text>
<text x="59" y="-1555.2" font-family="Consolas" font-size="11">guard()</text>
<text x="48" y="-1539.2" font-family="Consolas" font-size="11">+</text>
<text x="59" y="-1539.2" font-family="Consolas" font-size="11">unguard()</text>
<text x="48" y="-1523.2" font-family="Consolas" font-size="11">+</text>
<text x="59" y="-1523.2" font-family="Consolas" font-size="11">is_active()</text>
<text x="48" y="-1507.2" font-family="Consolas" font-size="11">+</text>
<text x="59" y="-1507.2" font-family="Consolas" font-size="11">is_guarded()</text>
<text x="48" y="-1491.2" font-family="Consolas" font-size="11">+</text>
<text x="59" y="-1491.2" font-family="Consolas" font-size="11">print()</text>
<path fill="#666" stroke="#666" d="M44-1742h101z"/>
<path fill="#666" stroke="#666" d="M44-1726h101z"/>
<path fill="none" stroke="#666" d="M43.5-1484v-276h101v276z"/>
</a></g><g class="edge"><title>Node7-&gt;Node6</title><a>
<path fill="none" stroke="#63b8ff" d="M94-1473.72v25.49"/>
<path fill="none" stroke="#63b8ff" d="m90.5-1473.96 3.5-10 3.5 10z"/>
</a></g></g></svg>