<svg xmlns="http://www.w3.org/2000/svg" xmlns:xlink="http://www.w3.org/1999/xlink" width="142pt" height="1008" viewBox="0 0 142 756"><g class="graph" transform="translate(4 752)"><title>ModifierExample</title><g class="node"><title>Node1</title><a xlink:title="A ModifierExample damping class.">
<path fill="#999" stroke="transparent" d="M134-68H0V0h134z"/>
<text x="16" y="-55.2" font-family="Consolas" font-size="11">ModifierExample</text>
<text x="63.5" y="-39.2" font-family="Consolas" font-size="11"> </text>
<text x="4" y="-23.2" font-family="Consolas" font-size="11">+</text>
<text x="15" y="-23.2" font-family="Consolas" font-size="11">ModifierExample()</text>
<text x="4" y="-7.2" font-family="Consolas" font-size="11">+</text>
<text x="15" y="-7.2" font-family="Consolas" font-size="11">update_status()</text>
<path fill="#666" stroke="#666" d="M0-50h134z"/>
<path fill="#666" stroke="#666" d="M0-34h134z"/>
<path fill="none" stroke="#666" d="M0 0v-68h134V0z"/>
</a></g><g class="node"><title>Node2</title><a xlink:href="../../d8/dc0/class_modifier.html" xlink:title="A Modifier class." target="_top">
<path fill="#fff" stroke="transparent" d="M131-236H3v132h128z"/>
<text x="39.5" y="-223.2" font-family="Consolas" font-size="11">Modifier</text>
<text x="7" y="-207.2" font-family="Consolas" font-size="11">#</text>
<text x="18" y="-207.2" font-family="Consolas" font-size="11">element_tag</text>
<text x="7" y="-191.2" font-family="Consolas" font-size="11">#</text>
<text x="18" y="-191.2" font-family="Consolas" font-size="11">element_pool</text>
<text x="7" y="-175.2" font-family="Consolas" font-size="11">+</text>
<text x="18" y="-175.2" font-family="Consolas" font-size="11">Modifier()</text>
<text x="7" y="-159.2" font-family="Consolas" font-size="11">+</text>
<text x="18" y="-159.2" font-family="Consolas" font-size="11">has_nonviscous()</text>
<text x="7" y="-143.2" font-family="Consolas" font-size="11">+</text>
<text x="18" y="-143.2" font-family="Consolas" font-size="11">initialize()</text>
<text x="7" y="-127.2" font-family="Consolas" font-size="11">+</text>
<text x="18" y="-127.2" font-family="Consolas" font-size="11">if_apply()</text>
<text x="7" y="-111.2" font-family="Consolas" font-size="11">+</text>
<text x="18" y="-111.2" font-family="Consolas" font-size="11">update_status()</text>
<path fill="#666" stroke="#666" d="M3-218h128z"/>
<path fill="#666" stroke="#666" d="M3-186h13z"/>
<path fill="#666" stroke="#666" d="M16-186h115z"/>
<path fill="none" stroke="#666" d="M3-104v-132h128v132z"/>
</a></g><g class="edge"><title>Node2-&gt;Node1</title><a>
<path fill="none" stroke="#63b8ff" d="M67-93.8v25.61"/>
<path fill="none" stroke="#63b8ff" d="m63.5-93.96 3.5-10 3.5 10z"/>
</a></g><g class="node"><title>Node3</title><a xlink:href="../../db/db8/class_unique_tag.html" xlink:title="Label objects that cannot be copied." target="_top">
<path fill="#fff" stroke="transparent" d="M117.5-436h-101v164h101z"/>
<text x="37" y="-423.2" font-family="Consolas" font-size="11">UniqueTag</text>
<text x="64" y="-407.2" font-family="Consolas" font-size="11"> </text>
<text x="21" y="-391.2" font-family="Consolas" font-size="11">+</text>
<text x="32" y="-391.2" font-family="Consolas" font-size="11">UniqueTag()</text>
<text x="21" y="-375.2" font-family="Consolas" font-size="11">+</text>
<text x="32" y="-375.2" font-family="Consolas" font-size="11">UniqueTag()</text>
<text x="21" y="-359.2" font-family="Consolas" font-size="11">+</text>
<text x="32" y="-359.2" font-family="Consolas" font-size="11">operator=()</text>
<text x="21" y="-343.2" font-family="Consolas" font-size="11">+</text>
<text x="32" y="-343.2" font-family="Consolas" font-size="11">operator=()</text>
<text x="21" y="-327.2" font-family="Consolas" font-size="11">+</text>
<text x="32" y="-327.2" font-family="Consolas" font-size="11">~UniqueTag()</text>
<text x="21" y="-311.2" font-family="Consolas" font-size="11">+</text>
<text x="32" y="-311.2" font-family="Consolas" font-size="11">Tag()</text>
<text x="21" y="-295.2" font-family="Consolas" font-size="11">+</text>
<text x="32" y="-295.2" font-family="Consolas" font-size="11">Tag()</text>
<text x="21" y="-279.2" font-family="Consolas" font-size="11">+</text>
<text x="32" y="-279.2" font-family="Consolas" font-size="11">Tag()</text>
<path fill="#666" stroke="#666" d="M17-418h101z"/>
<path fill="#666" stroke="#666" d="M17-402h101z"/>
<path fill="none" stroke="#666" d="M16.5-272v-164h101v164z"/>
</a></g><g class="edge"><title>Node3-&gt;Node2</title><a>
<path fill="none" stroke="#63b8ff" d="M67-261.73v25.56"/>
<path fill="none" stroke="#63b8ff" d="m63.5-261.85 3.5-10 3.5 10z"/>
</a></g><g class="node"><title>Node4</title><a xlink:href="../../d0/d57/class_tag.html" xlink:title="A base Tag class." target="_top">
<path fill="#fff" stroke="transparent" d="M117.5-748h-101v276h101z"/>
<text x="57" y="-735.2" font-family="Consolas" font-size="11">Tag</text>
<text x="64" y="-719.2" font-family="Consolas" font-size="11"> </text>
<text x="21" y="-703.2" font-family="Consolas" font-size="11">+</text>
<text x="32" y="-703.2" font-family="Consolas" font-size="11">Tag()</text>
<text x="21" y="-687.2" font-family="Consolas" font-size="11">+</text>
<text x="32" y="-687.2" font-family="Consolas" font-size="11">Tag()</text>
<text x="21" y="-671.2" font-family="Consolas" font-size="11">+</text>
<text x="32" y="-671.2" font-family="Consolas" font-size="11">Tag()</text>
<text x="21" y="-655.2" font-family="Consolas" font-size="11">+</text>
<text x="32" y="-655.2" font-family="Consolas" font-size="11">operator=()</text>
<text x="21" y="-639.2" font-family="Consolas" font-size="11">+</text>
<text x="32" y="-639.2" font-family="Consolas" font-size="11">operator=()</text>
<text x="21" y="-623.2" font-family="Consolas" font-size="11">+</text>
<text x="32" y="-623.2" font-family="Consolas" font-size="11">~Tag()</text>
<text x="21" y="-607.2" font-family="Consolas" font-size="11">+</text>
<text x="32" y="-607.2" font-family="Consolas" font-size="11">set_tag()</text>
<text x="21" y="-591.2" font-family="Consolas" font-size="11">+</text>
<text x="32" y="-591.2" font-family="Consolas" font-size="11">get_tag()</text>
<text x="21" y="-575.2" font-family="Consolas" font-size="11">+</text>
<text x="32" y="-575.2" font-family="Consolas" font-size="11">enable()</text>
<text x="21" y="-559.2" font-family="Consolas" font-size="11">+</text>
<text x="32" y="-559.2" font-family="Consolas" font-size="11">disable()</text>
<text x="21" y="-543.2" font-family="Consolas" font-size="11">+</text>
<text x="32" y="-543.2" font-family="Consolas" font-size="11">guard()</text>
<text x="21" y="-527.2" font-family="Consolas" font-size="11">+</text>
<text x="32" y="-527.2" font-family="Consolas" font-size="11">unguard()</text>
<text x="21" y="-511.2" font-family="Consolas" font-size="11">+</text>
<text x="32" y="-511.2" font-family="Consolas" font-size="11">is_active()</text>
<text x="21" y="-495.2" font-family="Consolas" font-size="11">+</text>
<text x="32" y="-495.2" font-family="Consolas" font-size="11">is_guarded()</text>
<text x="21" y="-479.2" font-family="Consolas" font-size="11">+</text>
<text x="32" y="-479.2" font-family="Consolas" font-size="11">print()</text>
<path fill="#666" stroke="#666" d="M17-730h101z"/>
<path fill="#666" stroke="#666" d="M17-714h101z"/>
<path fill="none" stroke="#666" d="M16.5-472v-276h101v276z"/>
</a></g><g class="edge"><title>Node4-&gt;Node3</title><a>
<path fill="none" stroke="#63b8ff" d="M67-461.72v25.49"/>
<path fill="none" stroke="#63b8ff" d="m63.5-461.96 3.5-10 3.5 10z"/>
</a></g></g></svg>