<svg xmlns="http://www.w3.org/2000/svg" xmlns:xlink="http://www.w3.org/1999/xlink" width="490pt" height="592" viewBox="0 0 490 444"><g class="graph" transform="translate(4 440)"><title>DataNonlinearCamClay</title><g class="node"><title>Node1</title><a>
<path fill="#999" stroke="transparent" d="M313.5-436h-146v116h146z"/>
<text x="172.5" y="-423.2" font-family="Consolas" font-size="11">DataNonlinearCamClay</text>
<text x="177.5" y="-407.2" font-family="Consolas" font-size="11">+</text>
<text x="194.5" y="-407.2" font-family="Consolas" font-size="11">elastic_modulus</text>
<text x="177.5" y="-391.2" font-family="Consolas" font-size="11">+</text>
<text x="194.5" y="-391.2" font-family="Consolas" font-size="11">poissons_ratio</text>
<text x="177.5" y="-375.2" font-family="Consolas" font-size="11">+</text>
<text x="194.5" y="-375.2" font-family="Consolas" font-size="11">square_beta</text>
<text x="177.5" y="-359.2" font-family="Consolas" font-size="11">+</text>
<text x="194.5" y="-359.2" font-family="Consolas" font-size="11">m</text>
<text x="177.5" y="-343.2" font-family="Consolas" font-size="11">+</text>
<text x="194.5" y="-343.2" font-family="Consolas" font-size="11">pt</text>
<text x="237" y="-327.2" font-family="Consolas" font-size="11"> </text>
<path fill="#666" stroke="#666" d="M167.5-418h146z"/>
<path fill="#666" stroke="#666" d="M167.5-338h25z"/>
<path fill="#666" stroke="#666" d="M192.5-338h121z"/>
<path fill="none" stroke="#666" d="M167.5-320v-116h146v116z"/>
</a></g><g class="node"><title>Node2</title><a xlink:href="../../d7/df3/class_nonlinear_cam_clay.html" xlink:title="The NonlinearCamClay class." target="_top">
<path fill="#fff" stroke="transparent" d="M321-284H160v148h161z"/>
<text x="186.5" y="-271.2" font-family="Consolas" font-size="11">NonlinearCamClay</text>
<text x="237.5" y="-255.2" font-family="Consolas" font-size="11"> </text>
<text x="164.5" y="-239.2" font-family="Consolas" font-size="11">+</text>
<text x="175.5" y="-239.2" font-family="Consolas" font-size="11">NonlinearCamClay()</text>
<text x="164.5" y="-223.2" font-family="Consolas" font-size="11">+</text>
<text x="175.5" y="-223.2" font-family="Consolas" font-size="11">initialize()</text>
<text x="164.5" y="-207.2" font-family="Consolas" font-size="11">+</text>
<text x="175.5" y="-207.2" font-family="Consolas" font-size="11">get()</text>
<text x="164.5" y="-191.2" font-family="Consolas" font-size="11">+</text>
<text x="175.5" y="-191.2" font-family="Consolas" font-size="11">update_trial_status()</text>
<text x="164.5" y="-175.2" font-family="Consolas" font-size="11">+</text>
<text x="175.5" y="-175.2" font-family="Consolas" font-size="11">clear_status()</text>
<text x="164.5" y="-159.2" font-family="Consolas" font-size="11">+</text>
<text x="175.5" y="-159.2" font-family="Consolas" font-size="11">commit_status()</text>
<text x="164.5" y="-143.2" font-family="Consolas" font-size="11">+</text>
<text x="175.5" y="-143.2" font-family="Consolas" font-size="11">reset_status()</text>
<path fill="#666" stroke="#666" d="M160.5-266h161z"/>
<path fill="#666" stroke="#666" d="M160.5-250h161z"/>
<path fill="none" stroke="#666" d="M160-136v-148h161v148z"/>
</a></g><g class="edge"><title>Node1-&gt;Node2</title><a>
<path fill="none" stroke="#006400" d="M240.5-309.71v25.65"/>
<path fill="none" stroke="#006400" d="m237-309.87 3.5-10 3.5 10z"/>
</a></g><g class="node"><title>Node3</title><a xlink:href="../../d1/d90/class_bilinear_c_c.html" xlink:title="The BilinearCC class." target="_top">
<path fill="#fff" stroke="transparent" d="M107-92H0v84h107z"/>
<text x="20" y="-79.2" font-family="Consolas" font-size="11">BilinearCC</text>
<text x="50.5" y="-63.2" font-family="Consolas" font-size="11"> </text>
<text x="4.5" y="-47.2" font-family="Consolas" font-size="11">+</text>
<text x="15.5" y="-47.2" font-family="Consolas" font-size="11">BilinearCC()</text>
<text x="4.5" y="-31.2" font-family="Consolas" font-size="11">+</text>
<text x="15.5" y="-31.2" font-family="Consolas" font-size="11">unique_copy()</text>
<text x="4.5" y="-15.2" font-family="Consolas" font-size="11">+</text>
<text x="15.5" y="-15.2" font-family="Consolas" font-size="11">print()</text>
<path fill="#666" stroke="#666" d="M.5-74h107z"/>
<path fill="#666" stroke="#666" d="M.5-58h107z"/>
<path fill="none" stroke="#666" d="M0-8v-84h107v84z"/>
</a></g><g class="edge"><title>Node2-&gt;Node3</title><a>
<path fill="none" stroke="#63b8ff" d="M151.97-134.2c-17.18 14.52-34.59 29.23-49.89 42.15"/>
<path fill="none" stroke="#63b8ff" d="m149.94-137.07 9.9-3.78-5.38 9.13z"/>
</a></g><g class="node"><title>Node4</title><a xlink:href="../../d6/d0d/class_custom_c_c.html" xlink:title="The CustomCC class." target="_top">
<path fill="#fff" stroke="transparent" d="M232-100H125V0h107z"/>
<text x="151.5" y="-87.2" font-family="Consolas" font-size="11">CustomCC</text>
<text x="175.5" y="-71.2" font-family="Consolas" font-size="11"> </text>
<text x="129.5" y="-55.2" font-family="Consolas" font-size="11">+</text>
<text x="140.5" y="-55.2" font-family="Consolas" font-size="11">CustomCC()</text>
<text x="129.5" y="-39.2" font-family="Consolas" font-size="11">+</text>
<text x="140.5" y="-39.2" font-family="Consolas" font-size="11">initialize()</text>
<text x="129.5" y="-23.2" font-family="Consolas" font-size="11">+</text>
<text x="140.5" y="-23.2" font-family="Consolas" font-size="11">unique_copy()</text>
<text x="129.5" y="-7.2" font-family="Consolas" font-size="11">+</text>
<text x="140.5" y="-7.2" font-family="Consolas" font-size="11">print()</text>
<path fill="#666" stroke="#666" d="M125.5-82h107z"/>
<path fill="#666" stroke="#666" d="M125.5-66h107z"/>
<path fill="none" stroke="#666" d="M125 0v-100h107V0z"/>
</a></g><g class="edge"><title>Node2-&gt;Node4</title><a>
<path fill="none" stroke="#63b8ff" d="M207.94-126.03c-3.44 8.77-6.85 17.47-10.07 25.67"/>
<path fill="none" stroke="#63b8ff" d="m204.77-127.52 6.91-8.03-.4 10.59z"/>
</a></g><g class="node"><title>Node5</title><a xlink:href="../../d8/d3d/class_exp_c_c.html" xlink:title="The ExpCC class." target="_top">
<path fill="#fff" stroke="transparent" d="M357-92H250v84h107z"/>
<text x="287" y="-79.2" font-family="Consolas" font-size="11">ExpCC</text>
<text x="300.5" y="-63.2" font-family="Consolas" font-size="11"> </text>
<text x="254.5" y="-47.2" font-family="Consolas" font-size="11">+</text>
<text x="265.5" y="-47.2" font-family="Consolas" font-size="11">ExpCC()</text>
<text x="254.5" y="-31.2" font-family="Consolas" font-size="11">+</text>
<text x="265.5" y="-31.2" font-family="Consolas" font-size="11">unique_copy()</text>
<text x="254.5" y="-15.2" font-family="Consolas" font-size="11">+</text>
<text x="265.5" y="-15.2" font-family="Consolas" font-size="11">print()</text>
<path fill="#666" stroke="#666" d="M250.5-74h107z"/>
<path fill="#666" stroke="#666" d="M250.5-58h107z"/>
<path fill="none" stroke="#666" d="M250-8v-84h107v84z"/>
</a></g><g class="edge"><title>Node2-&gt;Node5</title><a>
<path fill="none" stroke="#63b8ff" d="M273.53-126.15c4.67 11.71 9.3 23.31 13.47 33.77"/>
<path fill="none" stroke="#63b8ff" d="m270.24-124.97-.45-10.58 6.95 7.99z"/>
</a></g><g class="node"><title>Node6</title><a xlink:href="../../dd/d42/class_parabolic_c_c.html" xlink:title="The ParabolicCC class." target="_top">
<path fill="#fff" stroke="transparent" d="M482-92H375v84h107z"/>
<text x="391.5" y="-79.2" font-family="Consolas" font-size="11">ParabolicCC</text>
<text x="425.5" y="-63.2" font-family="Consolas" font-size="11"> </text>
<text x="379.5" y="-47.2" font-family="Consolas" font-size="11">+</text>
<text x="390.5" y="-47.2" font-family="Consolas" font-size="11">ParabolicCC()</text>
<text x="379.5" y="-31.2" font-family="Consolas" font-size="11">+</text>
<text x="390.5" y="-31.2" font-family="Consolas" font-size="11">unique_copy()</text>
<text x="379.5" y="-15.2" font-family="Consolas" font-size="11">+</text>
<text x="390.5" y="-15.2" font-family="Consolas" font-size="11">print()</text>
<path fill="#666" stroke="#666" d="M375.5-74h107z"/>
<path fill="#666" stroke="#666" d="M375.5-58h107z"/>
<path fill="none" stroke="#666" d="M375-8v-84h107v84z"/>
</a></g><g class="edge"><title>Node2-&gt;Node6</title><a>
<path fill="none" stroke="#63b8ff" d="M329.02-134.6c17.42 14.64 35.09 29.49 50.61 42.53"/>
<path fill="none" stroke="#63b8ff" d="m326.45-132.19-5.4-9.12 9.9 3.76z"/>
</a></g></g></svg>