<?xml version="1.0" encoding="UTF-8" standalone="no"?>
<!DOCTYPE svg PUBLIC "-//W3C//DTD SVG 1.1//EN"
 "http://www.w3.org/Graphics/SVG/1.1/DTD/svg11.dtd">
<!-- Generated by graphviz version 8.1.0 (20230707.0739)
 -->
<!-- Title: CAX8 Pages: 1 -->
<!--zoomable 1419 -->

<svg id="main" version="1.1" xmlns="http://www.w3.org/2000/svg" xmlns:xlink="http://www.w3.org/1999/xlink" xml:space="preserve" onload="init(evt)">
<style type="text/css"><![CDATA[
.node, .edge {opacity: 0.7;}
.node.selected, .edge.selected {opacity: 1;}
.edge:hover path { stroke: red; }
.edge:hover polygon { stroke: red; fill: red; }
]]></style>

<defs>
  <circle id="rim" cx="0" cy="0" r="7"/>
  <circle id="rim2" cx="0" cy="0" r="3.5"/>
  <g id="zoomPlus">
    <use xlink:href="#rim" fill="#404040"><set attributeName="fill" to="#808080" begin="zoomplus.mouseover" end="zoomplus.mouseout"/></use>
    <path d="M-4,0h8M0,-4v8" fill="none" stroke="white" stroke-width="1.5" pointer-events="none"/>
  </g>
  <g id="zoomMin">
    <use xlink:href="#rim" fill="#404040"><set attributeName="fill" to="#808080" begin="zoomminus.mouseover" end="zoomminus.mouseout"/></use>
    <path d="M-4,0h8" fill="none" stroke="white" stroke-width="1.5" pointer-events="none"/>
  </g>
  <g id="arrowUp" transform="translate(30 24)">
    <use xlink:href="#rim"/>
    <path pointer-events="none" fill="none" stroke="white" stroke-width="1.5" d="M0,-3.0v7 M-2.5,-0.5L0,-3.0L2.5,-0.5"/>
  </g>
  <g id="arrowRight" transform="rotate(90) translate(36 -43)">
    <use xlink:href="#rim"/>
    <path pointer-events="none" fill="none" stroke="white" stroke-width="1.5" d="M0,-3.0v7 M-2.5,-0.5L0,-3.0L2.5,-0.5"/>
  </g>
  <g id="arrowDown" transform="rotate(180) translate(-30 -48)">
    <use xlink:href="#rim"/>
    <path pointer-events="none" fill="none" stroke="white" stroke-width="1.5" d="M0,-3.0v7 M-2.5,-0.5L0,-3.0L2.5,-0.5"/>
  </g>
  <g id="arrowLeft" transform="rotate(270) translate(-36 17)">
    <use xlink:href="#rim"/>
    <path pointer-events="none" fill="none" stroke="white" stroke-width="1.5" d="M0,-3.0v7 M-2.5,-0.5L0,-3.0L2.5,-0.5"/>
  </g>
  <g id="resetDef">
    <use xlink:href="#rim2" fill="#404040"><set attributeName="fill" to="#808080" begin="reset.mouseover" end="reset.mouseout"/></use>
  </g>
</defs>
<script type="application/ecmascript">
var viewWidth = 338;
var viewHeight = 1419;
var sectionId = 'dynsection-0';
</script>
<script type="application/ecmascript" xlink:href="../../svg.min.js"/>
<svg id="graph" class="graph">
<g id="viewport">
<title>CAX8</title>
<!-- Node1 -->
<g id="Node000001" class="node">
<title>Node1</title>
<g id="a_Node000001"><a xlink:title="The CAX8 class.">
<polygon fill="#999999" stroke="none" points="201,-174 93,-174 93,0 201,0 201,-174"/>
<text text-anchor="start" x="135" y="-159.55" font-family="Consolas" font-size="11.00">CAX8</text>
<text text-anchor="start" x="144" y="-142.55" font-family="Consolas" font-size="11.00"> </text>
<text text-anchor="start" x="97" y="-125.55" font-family="Consolas" font-size="11.00">+</text>
<text text-anchor="start" x="107" y="-125.55" font-family="Consolas" font-size="11.00">CAX8()</text>
<text text-anchor="start" x="97" y="-108.55" font-family="Consolas" font-size="11.00">+</text>
<text text-anchor="start" x="107" y="-108.55" font-family="Consolas" font-size="11.00">initialize()</text>
<text text-anchor="start" x="97" y="-91.55" font-family="Consolas" font-size="11.00">+</text>
<text text-anchor="start" x="107" y="-91.55" font-family="Consolas" font-size="11.00">update_status()</text>
<text text-anchor="start" x="97" y="-74.55" font-family="Consolas" font-size="11.00">+</text>
<text text-anchor="start" x="107" y="-74.55" font-family="Consolas" font-size="11.00">commit_status()</text>
<text text-anchor="start" x="97" y="-57.55" font-family="Consolas" font-size="11.00">+</text>
<text text-anchor="start" x="107" y="-57.55" font-family="Consolas" font-size="11.00">clear_status()</text>
<text text-anchor="start" x="97" y="-40.55" font-family="Consolas" font-size="11.00">+</text>
<text text-anchor="start" x="107" y="-40.55" font-family="Consolas" font-size="11.00">reset_status()</text>
<text text-anchor="start" x="97" y="-23.55" font-family="Consolas" font-size="11.00">+</text>
<text text-anchor="start" x="107" y="-23.55" font-family="Consolas" font-size="11.00">record()</text>
<text text-anchor="start" x="97" y="-6.55" font-family="Consolas" font-size="11.00">+</text>
<text text-anchor="start" x="107" y="-6.55" font-family="Consolas" font-size="11.00">print()</text>
<polygon fill="#666666" stroke="#666666" points="93,-155 93,-155 201,-155 201,-155 93,-155"/>
<polygon fill="#666666" stroke="#666666" points="93,-138 93,-138 201,-138 201,-138 93,-138"/>
<polygon fill="none" stroke="#666666" points="93,0 93,-174 201,-174 201,0 93,0"/>
</a>
</g>
</g>
<!-- Node2 -->
<g id="Node000002" class="node">
<title>Node2</title>
<g id="a_Node000002"><a xlink:href="../../d8/df9/class_material_element2_d.html" target="_top" xlink:title=" ">
<polygon fill="white" stroke="none" points="213,-265 81,-265 81,-210 213,-210 213,-265"/>
<text text-anchor="start" x="96" y="-250.55" font-family="Consolas" font-size="11.00">MaterialElement2D</text>
<text text-anchor="start" x="144" y="-233.55" font-family="Consolas" font-size="11.00"> </text>
<text text-anchor="start" x="85" y="-216.55" font-family="Consolas" font-size="11.00">+</text>
<text text-anchor="start" x="95" y="-216.55" font-family="Consolas" font-size="11.00">MaterialElement2D()</text>
<polygon fill="#666666" stroke="#666666" points="81,-246 81,-246 213,-246 213,-246 81,-246"/>
<polygon fill="#666666" stroke="#666666" points="81,-229 81,-229 213,-229 213,-229 81,-229"/>
<polygon fill="none" stroke="#666666" points="81,-210 81,-265 213,-265 213,-210 81,-210"/>
</a>
</g>
</g>
<!-- Node2&#45;&gt;Node1 -->
<g id="edge1_Node000001_Node000002" class="edge">
<title>Node2&#45;&gt;Node1</title>
<g id="a_edge1_Node000001_Node000002"><a xlink:title=" ">
<path fill="none" stroke="#63b8ff" d="M147,-199.3C147,-191.39 147,-182.72 147,-173.83"/>
<polygon fill="none" stroke="#63b8ff" points="143.5,-199.29 147,-209.29 150.5,-199.29 143.5,-199.29"/>
</a>
</g>
</g>
<!-- Node3 -->
<g id="Node000003" class="node">
<title>Node3</title>
<g id="a_Node000003"><a xlink:href="../../d0/d07/class_material_element.html" target="_top" xlink:title="The MaterialElement class.">
<polygon fill="white" stroke="none" points="207,-356 87,-356 87,-301 207,-301 207,-356"/>
<text text-anchor="start" x="102" y="-341.55" font-family="Consolas" font-size="11.00">MaterialElement</text>
<text text-anchor="start" x="144" y="-324.55" font-family="Consolas" font-size="11.00"> </text>
<text text-anchor="start" x="91" y="-307.55" font-family="Consolas" font-size="11.00">+</text>
<text text-anchor="start" x="101" y="-307.55" font-family="Consolas" font-size="11.00">MaterialElement()</text>
<polygon fill="#666666" stroke="#666666" points="87,-337 87,-337 207,-337 207,-337 87,-337"/>
<polygon fill="#666666" stroke="#666666" points="87,-320 87,-320 207,-320 207,-320 87,-320"/>
<polygon fill="none" stroke="#666666" points="87,-301 87,-356 207,-356 207,-301 87,-301"/>
</a>
</g>
</g>
<!-- Node3&#45;&gt;Node2 -->
<g id="edge2_Node000002_Node000003" class="edge">
<title>Node3&#45;&gt;Node2</title>
<g id="a_edge2_Node000002_Node000003"><a xlink:title=" ">
<path fill="none" stroke="#63b8ff" d="M147,-290.34C147,-281.78 147,-272.84 147,-264.84"/>
<polygon fill="none" stroke="#63b8ff" points="143.5,-290.28 147,-300.28 150.5,-290.28 143.5,-290.28"/>
</a>
</g>
</g>
<!-- Node4 -->
<g id="Node000004" class="node">
<title>Node4</title>
<g id="a_Node000004"><a xlink:href="../../d5/d50/class_element.html" target="_top" xlink:title="A Element class.">
<polygon fill="white" stroke="none" points="243,-719 51,-719 51,-392 243,-392 243,-719"/>
<text text-anchor="start" x="126" y="-704.55" font-family="Consolas" font-size="11.00">Element</text>
<text text-anchor="start" x="55" y="-687.55" font-family="Consolas" font-size="11.00">#</text>
<text text-anchor="start" x="65" y="-687.55" font-family="Consolas" font-size="11.00">node_ptr</text>
<text text-anchor="start" x="55" y="-670.55" font-family="Consolas" font-size="11.00">+</text>
<text text-anchor="start" x="65" y="-670.55" font-family="Consolas" font-size="11.00">Element()</text>
<text text-anchor="start" x="55" y="-653.55" font-family="Consolas" font-size="11.00">+</text>
<text text-anchor="start" x="65" y="-653.55" font-family="Consolas" font-size="11.00">Element()</text>
<text text-anchor="start" x="55" y="-636.55" font-family="Consolas" font-size="11.00">+</text>
<text text-anchor="start" x="65" y="-636.55" font-family="Consolas" font-size="11.00">Element()</text>
<text text-anchor="start" x="55" y="-619.55" font-family="Consolas" font-size="11.00">+</text>
<text text-anchor="start" x="65" y="-619.55" font-family="Consolas" font-size="11.00">Element()</text>
<text text-anchor="start" x="55" y="-602.55" font-family="Consolas" font-size="11.00">+</text>
<text text-anchor="start" x="65" y="-602.55" font-family="Consolas" font-size="11.00">Element()</text>
<text text-anchor="start" x="55" y="-585.55" font-family="Consolas" font-size="11.00">+</text>
<text text-anchor="start" x="65" y="-585.55" font-family="Consolas" font-size="11.00">Element()</text>
<text text-anchor="start" x="55" y="-568.55" font-family="Consolas" font-size="11.00">+</text>
<text text-anchor="start" x="65" y="-568.55" font-family="Consolas" font-size="11.00">Element()</text>
<text text-anchor="start" x="55" y="-551.55" font-family="Consolas" font-size="11.00">+</text>
<text text-anchor="start" x="65" y="-551.55" font-family="Consolas" font-size="11.00">operator=()</text>
<text text-anchor="start" x="55" y="-534.55" font-family="Consolas" font-size="11.00">+</text>
<text text-anchor="start" x="65" y="-534.55" font-family="Consolas" font-size="11.00">operator=()</text>
<text text-anchor="start" x="55" y="-517.55" font-family="Consolas" font-size="11.00">+</text>
<text text-anchor="start" x="65" y="-517.55" font-family="Consolas" font-size="11.00">~Element()</text>
<text text-anchor="start" x="65" y="-500.55" font-family="Consolas" font-size="11.00">and 78 more...</text>
<text text-anchor="start" x="55" y="-483.55" font-family="Consolas" font-size="11.00">#</text>
<text text-anchor="start" x="65" y="-483.55" font-family="Consolas" font-size="11.00">get_coordinate()</text>
<text text-anchor="start" x="55" y="-466.55" font-family="Consolas" font-size="11.00">#</text>
<text text-anchor="start" x="65" y="-466.55" font-family="Consolas" font-size="11.00">get_node_incre_resistance()</text>
<text text-anchor="start" x="55" y="-449.55" font-family="Consolas" font-size="11.00">#</text>
<text text-anchor="start" x="65" y="-449.55" font-family="Consolas" font-size="11.00">get_node_trial_resistance()</text>
<text text-anchor="start" x="55" y="-432.55" font-family="Consolas" font-size="11.00">#</text>
<text text-anchor="start" x="65" y="-432.55" font-family="Consolas" font-size="11.00">get_node_current_resistance()</text>
<text text-anchor="start" x="55" y="-415.55" font-family="Consolas" font-size="11.00">#</text>
<text text-anchor="start" x="65" y="-415.55" font-family="Consolas" font-size="11.00">get_material()</text>
<text text-anchor="start" x="55" y="-398.55" font-family="Consolas" font-size="11.00">#</text>
<text text-anchor="start" x="65" y="-398.55" font-family="Consolas" font-size="11.00">get_section()</text>
<polygon fill="#666666" stroke="#666666" points="51,-700 51,-700 243,-700 243,-700 51,-700"/>
<polygon fill="#666666" stroke="#666666" points="51,-683 51,-683 63,-683 63,-683 51,-683"/>
<polygon fill="#666666" stroke="#666666" points="63,-683 63,-683 243,-683 243,-683 63,-683"/>
<polygon fill="none" stroke="#666666" points="51,-392 51,-719 243,-719 243,-392 51,-392"/>
</a>
</g>
</g>
<!-- Node4&#45;&gt;Node3 -->
<g id="edge3_Node000003_Node000004" class="edge">
<title>Node4&#45;&gt;Node3</title>
<g id="a_edge3_Node000003_Node000004"><a xlink:title=" ">
<path fill="none" stroke="#63b8ff" d="M147,-381.22C147,-371.8 147,-363.2 147,-355.82"/>
<polygon fill="none" stroke="#63b8ff" points="143.5,-381.18 147,-391.18 150.5,-381.18 143.5,-381.18"/>
</a>
</g>
</g>
<!-- Node5 -->
<g id="Node000005" class="node">
<title>Node5</title>
<g id="a_Node000005"><a xlink:href="../../d2/db9/struct_data_element.html" target="_top" xlink:title=" ">
<polygon fill="white" stroke="none" points="120,-1031 0,-1031 0,-806 120,-806 120,-1031"/>
<text text-anchor="start" x="27" y="-1016.55" font-family="Consolas" font-size="11.00">DataElement</text>
<text text-anchor="start" x="4" y="-999.55" font-family="Consolas" font-size="11.00">+</text>
<text text-anchor="start" x="14" y="-999.55" font-family="Consolas" font-size="11.00">node_encoding</text>
<text text-anchor="start" x="4" y="-982.55" font-family="Consolas" font-size="11.00">+</text>
<text text-anchor="start" x="14" y="-982.55" font-family="Consolas" font-size="11.00">material_tag</text>
<text text-anchor="start" x="4" y="-965.55" font-family="Consolas" font-size="11.00">+</text>
<text text-anchor="start" x="14" y="-965.55" font-family="Consolas" font-size="11.00">section_tag</text>
<text text-anchor="start" x="4" y="-948.55" font-family="Consolas" font-size="11.00">+</text>
<text text-anchor="start" x="14" y="-948.55" font-family="Consolas" font-size="11.00">nlgeom</text>
<text text-anchor="start" x="4" y="-931.55" font-family="Consolas" font-size="11.00">+</text>
<text text-anchor="start" x="14" y="-931.55" font-family="Consolas" font-size="11.00">update_mass</text>
<text text-anchor="start" x="4" y="-914.55" font-family="Consolas" font-size="11.00">+</text>
<text text-anchor="start" x="14" y="-914.55" font-family="Consolas" font-size="11.00">update_damping</text>
<text text-anchor="start" x="4" y="-897.55" font-family="Consolas" font-size="11.00">+</text>
<text text-anchor="start" x="14" y="-897.55" font-family="Consolas" font-size="11.00">update_nonviscous</text>
<text text-anchor="start" x="4" y="-880.55" font-family="Consolas" font-size="11.00">+</text>
<text text-anchor="start" x="14" y="-880.55" font-family="Consolas" font-size="11.00">update_stiffness</text>
<text text-anchor="start" x="4" y="-863.55" font-family="Consolas" font-size="11.00">+</text>
<text text-anchor="start" x="14" y="-863.55" font-family="Consolas" font-size="11.00">update_geometry</text>
<text text-anchor="start" x="4" y="-846.55" font-family="Consolas" font-size="11.00">+</text>
<text text-anchor="start" x="14" y="-846.55" font-family="Consolas" font-size="11.00">dof_encoding</text>
<text text-anchor="start" x="14" y="-829.55" font-family="Consolas" font-size="11.00">and 38 more...</text>
<text text-anchor="start" x="57" y="-812.55" font-family="Consolas" font-size="11.00"> </text>
<polygon fill="#666666" stroke="#666666" points="0,-1012 0,-1012 120,-1012 120,-1012 0,-1012"/>
<polygon fill="#666666" stroke="#666666" points="0,-825 0,-825 12,-825 12,-825 0,-825"/>
<polygon fill="#666666" stroke="#666666" points="12,-825 12,-825 120,-825 120,-825 12,-825"/>
<polygon fill="none" stroke="#666666" points="0,-806 0,-1031 120,-1031 120,-806 0,-806"/>
</a>
</g>
</g>
<!-- Node5&#45;&gt;Node4 -->
<g id="edge4_Node000004_Node000005" class="edge">
<title>Node5&#45;&gt;Node4</title>
<g id="a_edge4_Node000004_Node000005"><a xlink:title=" ">
<path fill="none" stroke="darkgreen" d="M89.34,-795.76C95.3,-771.04 101.65,-744.68 107.88,-718.82"/>
<polygon fill="none" stroke="darkgreen" points="85.75,-794.7 86.81,-805.24 92.56,-796.34 85.75,-794.7"/>
</a>
</g>
</g>
<!-- Node6 -->
<g id="Node000006" class="node">
<title>Node6</title>
<g id="a_Node000006"><a xlink:href="../../d4/d6b/class_element_base.html" target="_top" xlink:title="A ElementBase class.">
<polygon fill="white" stroke="none" points="330,-1082 138,-1082 138,-755 330,-755 330,-1082"/>
<text text-anchor="start" x="201" y="-1067.55" font-family="Consolas" font-size="11.00">ElementBase</text>
<text text-anchor="start" x="231" y="-1050.55" font-family="Consolas" font-size="11.00"> </text>
<text text-anchor="start" x="142" y="-1033.55" font-family="Consolas" font-size="11.00">+</text>
<text text-anchor="start" x="152" y="-1033.55" font-family="Consolas" font-size="11.00">ElementBase()</text>
<text text-anchor="start" x="142" y="-1016.55" font-family="Consolas" font-size="11.00">+</text>
<text text-anchor="start" x="152" y="-1016.55" font-family="Consolas" font-size="11.00">ElementBase()</text>
<text text-anchor="start" x="142" y="-999.55" font-family="Consolas" font-size="11.00">+</text>
<text text-anchor="start" x="152" y="-999.55" font-family="Consolas" font-size="11.00">ElementBase()</text>
<text text-anchor="start" x="142" y="-982.55" font-family="Consolas" font-size="11.00">+</text>
<text text-anchor="start" x="152" y="-982.55" font-family="Consolas" font-size="11.00">operator=()</text>
<text text-anchor="start" x="142" y="-965.55" font-family="Consolas" font-size="11.00">+</text>
<text text-anchor="start" x="152" y="-965.55" font-family="Consolas" font-size="11.00">operator=()</text>
<text text-anchor="start" x="142" y="-948.55" font-family="Consolas" font-size="11.00">+</text>
<text text-anchor="start" x="152" y="-948.55" font-family="Consolas" font-size="11.00">~ElementBase()</text>
<text text-anchor="start" x="142" y="-931.55" font-family="Consolas" font-size="11.00">+</text>
<text text-anchor="start" x="152" y="-931.55" font-family="Consolas" font-size="11.00">initialize_base()</text>
<text text-anchor="start" x="142" y="-914.55" font-family="Consolas" font-size="11.00">+</text>
<text text-anchor="start" x="152" y="-914.55" font-family="Consolas" font-size="11.00">initialize()</text>
<text text-anchor="start" x="142" y="-897.55" font-family="Consolas" font-size="11.00">+</text>
<text text-anchor="start" x="152" y="-897.55" font-family="Consolas" font-size="11.00">set_initialized()</text>
<text text-anchor="start" x="142" y="-880.55" font-family="Consolas" font-size="11.00">+</text>
<text text-anchor="start" x="152" y="-880.55" font-family="Consolas" font-size="11.00">set_symmetric()</text>
<text text-anchor="start" x="152" y="-863.55" font-family="Consolas" font-size="11.00">and 76 more...</text>
<text text-anchor="start" x="142" y="-846.55" font-family="Consolas" font-size="11.00">#</text>
<text text-anchor="start" x="152" y="-846.55" font-family="Consolas" font-size="11.00">get_coordinate()</text>
<text text-anchor="start" x="142" y="-829.55" font-family="Consolas" font-size="11.00">#</text>
<text text-anchor="start" x="152" y="-829.55" font-family="Consolas" font-size="11.00">get_node_incre_resistance()</text>
<text text-anchor="start" x="142" y="-812.55" font-family="Consolas" font-size="11.00">#</text>
<text text-anchor="start" x="152" y="-812.55" font-family="Consolas" font-size="11.00">get_node_trial_resistance()</text>
<text text-anchor="start" x="142" y="-795.55" font-family="Consolas" font-size="11.00">#</text>
<text text-anchor="start" x="152" y="-795.55" font-family="Consolas" font-size="11.00">get_node_current_resistance()</text>
<text text-anchor="start" x="142" y="-778.55" font-family="Consolas" font-size="11.00">#</text>
<text text-anchor="start" x="152" y="-778.55" font-family="Consolas" font-size="11.00">get_material()</text>
<text text-anchor="start" x="142" y="-761.55" font-family="Consolas" font-size="11.00">#</text>
<text text-anchor="start" x="152" y="-761.55" font-family="Consolas" font-size="11.00">get_section()</text>
<polygon fill="#666666" stroke="#666666" points="138,-1063 138,-1063 330,-1063 330,-1063 138,-1063"/>
<polygon fill="#666666" stroke="#666666" points="138,-1046 138,-1046 330,-1046 330,-1046 138,-1046"/>
<polygon fill="none" stroke="#666666" points="138,-755 138,-1082 330,-1082 330,-755 138,-755"/>
</a>
</g>
</g>
<!-- Node6&#45;&gt;Node4 -->
<g id="edge5_Node000004_Node000006" class="edge">
<title>Node6&#45;&gt;Node4</title>
<g id="a_edge5_Node000004_Node000006"><a xlink:title=" ">
<path fill="none" stroke="#63b8ff" d="M192.36,-744.72C190.28,-736.1 188.2,-727.45 186.13,-718.86"/>
<polygon fill="none" stroke="#63b8ff" points="189.14,-745.31 194.89,-754.22 195.95,-743.67 189.14,-745.31"/>
</a>
</g>
</g>
<!-- Node7 -->
<g id="Node000007" class="node">
<title>Node7</title>
<g id="a_Node000007"><a xlink:href="../../d0/d57/class_tag.html" target="_top" xlink:title="A base Tag class.">
<polygon fill="white" stroke="none" points="234,-1411 144,-1411 144,-1118 234,-1118 234,-1411"/>
<text text-anchor="start" x="180" y="-1396.55" font-family="Consolas" font-size="11.00">Tag</text>
<text text-anchor="start" x="186" y="-1379.55" font-family="Consolas" font-size="11.00"> </text>
<text text-anchor="start" x="148" y="-1362.55" font-family="Consolas" font-size="11.00">+</text>
<text text-anchor="start" x="158" y="-1362.55" font-family="Consolas" font-size="11.00">Tag()</text>
<text text-anchor="start" x="148" y="-1345.55" font-family="Consolas" font-size="11.00">+</text>
<text text-anchor="start" x="158" y="-1345.55" font-family="Consolas" font-size="11.00">Tag()</text>
<text text-anchor="start" x="148" y="-1328.55" font-family="Consolas" font-size="11.00">+</text>
<text text-anchor="start" x="158" y="-1328.55" font-family="Consolas" font-size="11.00">Tag()</text>
<text text-anchor="start" x="148" y="-1311.55" font-family="Consolas" font-size="11.00">+</text>
<text text-anchor="start" x="158" y="-1311.55" font-family="Consolas" font-size="11.00">operator=()</text>
<text text-anchor="start" x="148" y="-1294.55" font-family="Consolas" font-size="11.00">+</text>
<text text-anchor="start" x="158" y="-1294.55" font-family="Consolas" font-size="11.00">operator=()</text>
<text text-anchor="start" x="148" y="-1277.55" font-family="Consolas" font-size="11.00">+</text>
<text text-anchor="start" x="158" y="-1277.55" font-family="Consolas" font-size="11.00">~Tag()</text>
<text text-anchor="start" x="148" y="-1260.55" font-family="Consolas" font-size="11.00">+</text>
<text text-anchor="start" x="158" y="-1260.55" font-family="Consolas" font-size="11.00">set_tag()</text>
<text text-anchor="start" x="148" y="-1243.55" font-family="Consolas" font-size="11.00">+</text>
<text text-anchor="start" x="158" y="-1243.55" font-family="Consolas" font-size="11.00">get_tag()</text>
<text text-anchor="start" x="148" y="-1226.55" font-family="Consolas" font-size="11.00">+</text>
<text text-anchor="start" x="158" y="-1226.55" font-family="Consolas" font-size="11.00">enable()</text>
<text text-anchor="start" x="148" y="-1209.55" font-family="Consolas" font-size="11.00">+</text>
<text text-anchor="start" x="158" y="-1209.55" font-family="Consolas" font-size="11.00">disable()</text>
<text text-anchor="start" x="148" y="-1192.55" font-family="Consolas" font-size="11.00">+</text>
<text text-anchor="start" x="158" y="-1192.55" font-family="Consolas" font-size="11.00">guard()</text>
<text text-anchor="start" x="148" y="-1175.55" font-family="Consolas" font-size="11.00">+</text>
<text text-anchor="start" x="158" y="-1175.55" font-family="Consolas" font-size="11.00">unguard()</text>
<text text-anchor="start" x="148" y="-1158.55" font-family="Consolas" font-size="11.00">+</text>
<text text-anchor="start" x="158" y="-1158.55" font-family="Consolas" font-size="11.00">is_active()</text>
<text text-anchor="start" x="148" y="-1141.55" font-family="Consolas" font-size="11.00">+</text>
<text text-anchor="start" x="158" y="-1141.55" font-family="Consolas" font-size="11.00">is_guarded()</text>
<text text-anchor="start" x="148" y="-1124.55" font-family="Consolas" font-size="11.00">+</text>
<text text-anchor="start" x="158" y="-1124.55" font-family="Consolas" font-size="11.00">print()</text>
<polygon fill="#666666" stroke="#666666" points="144,-1392 144,-1392 234,-1392 234,-1392 144,-1392"/>
<polygon fill="#666666" stroke="#666666" points="144,-1375 144,-1375 234,-1375 234,-1375 144,-1375"/>
<polygon fill="none" stroke="#666666" points="144,-1118 144,-1411 234,-1411 234,-1118 144,-1118"/>
</a>
</g>
</g>
<!-- Node7&#45;&gt;Node6 -->
<g id="edge6_Node000006_Node000007" class="edge">
<title>Node7&#45;&gt;Node6</title>
<g id="a_edge6_Node000006_Node000007"><a xlink:title=" ">
<path fill="none" stroke="#63b8ff" d="M209.42,-1107.37C210.54,-1098.87 211.66,-1090.31 212.77,-1081.79"/>
<polygon fill="none" stroke="#63b8ff" points="205.85,-1106.74 208.02,-1117.11 212.79,-1107.65 205.85,-1106.74"/>
</a>
</g>
</g>
<!-- Node8 -->
<g id="Node000008" class="node">
<title>Node8</title>
<g id="a_Node000008"><a xlink:href="../../db/ddc/classvtk_base.html" target="_top" xlink:title="The vtkBase class.">
<polygon fill="white" stroke="none" points="304,-1292 252,-1292 252,-1237 304,-1237 304,-1292"/>
<text text-anchor="start" x="257" y="-1277.55" font-family="Consolas" font-size="11.00">vtkBase</text>
<text text-anchor="start" x="275" y="-1260.55" font-family="Consolas" font-size="11.00"> </text>
<text text-anchor="start" x="275" y="-1243.55" font-family="Consolas" font-size="11.00"> </text>
<polygon fill="#666666" stroke="#666666" points="252,-1273 252,-1273 304,-1273 304,-1273 252,-1273"/>
<polygon fill="#666666" stroke="#666666" points="252,-1256 252,-1256 304,-1256 304,-1256 252,-1256"/>
<polygon fill="none" stroke="#666666" points="252,-1237 252,-1292 304,-1292 304,-1237 252,-1237"/>
</a>
</g>
</g>
<!-- Node8&#45;&gt;Node6 -->
<g id="edge7_Node000006_Node000008" class="edge">
<title>Node8&#45;&gt;Node6</title>
<g id="a_edge7_Node000006_Node000008"><a xlink:title=" ">
<path fill="none" stroke="#63b8ff" d="M273.26,-1226.41C268.76,-1191.27 261.69,-1135.99 254.78,-1081.96"/>
<polygon fill="none" stroke="#63b8ff" points="269.88,-1226.6 274.62,-1236.08 276.82,-1225.71 269.88,-1226.6"/>
</a>
</g>
</g>
</g>
</svg>

<g id="navigator" transform="translate(0 0)" fill="#404254">
  <rect fill="#f2f5e9" fill-opacity="0.5" stroke="#606060" stroke-width=".5" x="0" y="0" width="60" height="60"/>
  <use id="zoomplus" xlink:href="#zoomPlus" x="17" y="9" onmousedown="handleZoom(evt,'in')"/>
  <use id="zoomminus" xlink:href="#zoomMin" x="42" y="9" onmousedown="handleZoom(evt,'out')"/>
  <use id="reset" xlink:href="#resetDef" x="30" y="36" onmousedown="handleReset()"/>
   <use id="arrowup" xlink:href="#arrowUp" x="0" y="0" onmousedown="handlePan(0,-1)"/>
  <use id="arrowright" xlink:href="#arrowRight" x="0" y="0" onmousedown="handlePan(1,0)"/>
  <use id="arrowdown" xlink:href="#arrowDown" x="0" y="0" onmousedown="handlePan(0,1)"/>
  <use id="arrowleft" xlink:href="#arrowLeft" x="0" y="0" onmousedown="handlePan(-1,0)"/>
</g>
<svg viewBox="0 0 15 15" width="100%" height="30px" preserveAspectRatio="xMaxYMin meet">
 <g id="arrow_out" transform="scale(0.3 0.3)">
  <a xlink:href="class_c_a_x8__inherit__graph_org.svg" target="_base">
   <rect id="button" ry="5" rx="5" y="6" x="6" height="38" width="38"
        fill="#f2f5e9" fill-opacity="0.5" stroke="#606060" stroke-width="1.0"/>
   <path id="arrow"
     d="M 11.500037,31.436501 C 11.940474,20.09759 22.043105,11.32322 32.158766,21.979434 L 37.068811,17.246167 C 37.068811,17.246167 37.088388,32 37.088388,32 L 22.160133,31.978069 C 22.160133,31.978069 26.997745,27.140456 26.997745,27.140456 C 18.528582,18.264221 13.291696,25.230495 11.500037,31.436501 z"
     style="fill:#404040;"/>
  </a>
 </g>
</svg>

<style type='text/css'>
<![CDATA[
[data-mouse-over-selected='false'] { opacity: 0.7; }
[data-mouse-over-selected='true']  { opacity: 1.0; }
]]>
</style>
<script type="application/ecmascript"><![CDATA[
document.addEventListener('DOMContentLoaded', (event) => {
  highlightEdges();
  highlightAdjacentNodes();
});
]]></script>
</svg>
