<?xml version="1.0" encoding="UTF-8" standalone="no"?>
<!DOCTYPE svg PUBLIC "-//W3C//DTD SVG 1.1//EN"
 "http://www.w3.org/Graphics/SVG/1.1/DTD/svg11.dtd">
<!-- Generated by graphviz version 5.0.0 (0)
 -->
<!-- Title: Domain/DomainState.cpp Pages: 1 -->
<svg width="1218pt" height="712pt"
 viewBox="0.00 0.00 1218.00 712.00" xmlns="http://www.w3.org/2000/svg" xmlns:xlink="http://www.w3.org/1999/xlink">
<g id="graph0" class="graph" transform="scale(1 1) rotate(0) translate(4 708)">
<title>Domain/DomainState.cpp</title>
<!-- Node1 -->
<g id="node1" class="node">
<title>Node1</title>
<g id="a_node1"><a xlink:title=" ">
<polygon fill="#999999" stroke="#666666" points="835.5,-704 670.5,-704 670.5,-684 835.5,-684 835.5,-704"/>
<text text-anchor="middle" x="753" y="-691.2" font-family="Consolas" font-size="11.00">Domain/DomainState.cpp</text>
</a>
</g>
</g>
<!-- Node2 -->
<g id="node2" class="node">
<title>Node2</title>
<g id="a_node2"><a xlink:href="../../d4/d8e/_domain_8h.html" target="_top" xlink:title=" ">
<polygon fill="white" stroke="#666666" points="264.5,-648 193.5,-648 193.5,-628 264.5,-628 264.5,-648"/>
<text text-anchor="middle" x="229" y="-635.2" font-family="Consolas" font-size="11.00">Domain.h</text>
</a>
</g>
</g>
<!-- Node1&#45;&gt;Node2 -->
<g id="edge1" class="edge">
<title>Node1&#45;&gt;Node2</title>
<path fill="none" stroke="#63b8ff" d="M670.26,-684.47C558.46,-672.95 363,-652.81 274.66,-643.71"/>
<polygon fill="#63b8ff" stroke="#63b8ff" points="274.99,-640.22 264.68,-642.68 274.27,-647.18 274.99,-640.22"/>
</g>
<!-- Node20 -->
<g id="node20" class="node">
<title>Node20</title>
<g id="a_node20"><a xlink:href="../../d4/d54/_constraint_8h.html" target="_top" xlink:title=" ">
<polygon fill="white" stroke="#666666" points="764,-648 592,-648 592,-628 764,-628 764,-648"/>
<text text-anchor="middle" x="678" y="-635.2" font-family="Consolas" font-size="11.00">Constraint/Constraint.h</text>
</a>
</g>
</g>
<!-- Node1&#45;&gt;Node20 -->
<g id="edge21" class="edge">
<title>Node1&#45;&gt;Node20</title>
<path fill="none" stroke="#63b8ff" d="M740.28,-683.84C728.9,-675.64 712,-663.48 698.68,-653.89"/>
<polygon fill="#63b8ff" stroke="#63b8ff" points="700.7,-651.03 690.53,-648.03 696.61,-656.71 700.7,-651.03"/>
</g>
<!-- Node22 -->
<g id="node22" class="node">
<title>Node22</title>
<g id="a_node22"><a xlink:href="../../d1/d02/_node_8h.html" target="_top" xlink:title=" ">
<polygon fill="white" stroke="#666666" points="996,-530 892,-530 892,-510 996,-510 996,-530"/>
<text text-anchor="middle" x="944" y="-517.2" font-family="Consolas" font-size="11.00">Domain/Node.h</text>
</a>
</g>
</g>
<!-- Node1&#45;&gt;Node22 -->
<g id="edge24" class="edge">
<title>Node1&#45;&gt;Node22</title>
<path fill="none" stroke="#63b8ff" d="M808.24,-683.97C833.44,-677.5 862.23,-666.52 883,-648 915.9,-618.67 932.7,-567.72 939.77,-540.11"/>
<polygon fill="#63b8ff" stroke="#63b8ff" points="943.23,-540.68 942.16,-530.14 936.43,-539.05 943.23,-540.68"/>
</g>
<!-- Node23 -->
<g id="node23" class="node">
<title>Node23</title>
<g id="a_node23"><a xlink:href="../../d0/db8/_element_8h.html" target="_top" xlink:title=" ">
<polygon fill="white" stroke="#666666" points="1075.5,-648 944.5,-648 944.5,-628 1075.5,-628 1075.5,-648"/>
<text text-anchor="middle" x="1010" y="-635.2" font-family="Consolas" font-size="11.00">Element/Element.h</text>
</a>
</g>
</g>
<!-- Node1&#45;&gt;Node23 -->
<g id="edge26" class="edge">
<title>Node1&#45;&gt;Node23</title>
<path fill="none" stroke="#63b8ff" d="M796.02,-683.96C840.31,-674.66 909.39,-660.14 957.02,-650.13"/>
<polygon fill="#63b8ff" stroke="#63b8ff" points="957.78,-653.55 966.84,-648.07 956.34,-646.7 957.78,-653.55"/>
</g>
<!-- Node27 -->
<g id="node27" class="node">
<title>Node27</title>
<g id="a_node27"><a xlink:href="../../de/d2b/_load_8h.html" target="_top" xlink:title=" ">
<polygon fill="white" stroke="#666666" points="873.5,-648 782.5,-648 782.5,-628 873.5,-628 873.5,-648"/>
<text text-anchor="middle" x="828" y="-635.2" font-family="Consolas" font-size="11.00">Load/Load.h</text>
</a>
</g>
</g>
<!-- Node1&#45;&gt;Node27 -->
<g id="edge32" class="edge">
<title>Node1&#45;&gt;Node27</title>
<path fill="none" stroke="#63b8ff" d="M765.72,-683.84C777.1,-675.64 794,-663.48 807.32,-653.89"/>
<polygon fill="#63b8ff" stroke="#63b8ff" points="809.39,-656.71 815.47,-648.03 805.3,-651.03 809.39,-656.71"/>
</g>
<!-- Node28 -->
<g id="node28" class="node">
<title>Node28</title>
<g id="a_node28"><a xlink:href="../../da/d8e/_factory_helper_8hpp.html" target="_top" xlink:title=" ">
<polygon fill="white" stroke="#666666" points="557.5,-648 378.5,-648 378.5,-628 557.5,-628 557.5,-648"/>
<text text-anchor="middle" x="468" y="-635.2" font-family="Consolas" font-size="11.00">Domain/FactoryHelper.hpp</text>
</a>
</g>
</g>
<!-- Node1&#45;&gt;Node28 -->
<g id="edge34" class="edge">
<title>Node1&#45;&gt;Node28</title>
<path fill="none" stroke="#63b8ff" d="M705.3,-683.96C655.87,-674.6 578.61,-659.96 525.76,-649.94"/>
<polygon fill="#63b8ff" stroke="#63b8ff" points="526.34,-646.49 515.86,-648.07 525.03,-653.37 526.34,-646.49"/>
</g>
<!-- Node3 -->
<g id="node3" class="node">
<title>Node3</title>
<g id="a_node3"><a xlink:href="../../dc/df2/_domain_base_8h.html" target="_top" xlink:title=" ">
<polygon fill="white" stroke="#666666" points="301.5,-592 156.5,-592 156.5,-572 301.5,-572 301.5,-592"/>
<text text-anchor="middle" x="229" y="-579.2" font-family="Consolas" font-size="11.00">Domain/DomainBase.h</text>
</a>
</g>
</g>
<!-- Node2&#45;&gt;Node3 -->
<g id="edge2" class="edge">
<title>Node2&#45;&gt;Node3</title>
<path fill="none" stroke="#63b8ff" d="M229,-627.59C229,-620.7 229,-611.1 229,-602.57"/>
<polygon fill="#63b8ff" stroke="#63b8ff" points="232.5,-602.3 229,-592.3 225.5,-602.3 232.5,-602.3"/>
</g>
<!-- Node19 -->
<g id="node19" class="node">
<title>Node19</title>
<g id="a_node19"><a xlink:href="../../d4/d48/_storage_8hpp.html" target="_top" xlink:title=" ">
<polygon fill="white" stroke="#666666" points="138,-592 0,-592 0,-572 138,-572 138,-592"/>
<text text-anchor="middle" x="69" y="-579.2" font-family="Consolas" font-size="11.00">Domain/Storage.hpp</text>
</a>
</g>
</g>
<!-- Node2&#45;&gt;Node19 -->
<g id="edge19" class="edge">
<title>Node2&#45;&gt;Node19</title>
<path fill="none" stroke="#63b8ff" d="M202.22,-627.96C175.68,-619.01 134.85,-605.23 105.39,-595.28"/>
<polygon fill="#63b8ff" stroke="#63b8ff" points="106.46,-591.95 95.87,-592.07 104.22,-598.58 106.46,-591.95"/>
</g>
<!-- Node4 -->
<g id="node4" class="node">
<title>Node4</title>
<g id="a_node4"><a xlink:title=" ">
<polygon fill="#e0e0e0" stroke="#999999" points="431.5,-530 374.5,-530 374.5,-510 431.5,-510 431.5,-530"/>
<text text-anchor="middle" x="403" y="-517.2" font-family="Consolas" font-size="11.00">future</text>
</a>
</g>
</g>
<!-- Node3&#45;&gt;Node4 -->
<g id="edge3" class="edge">
<title>Node3&#45;&gt;Node4</title>
<path fill="none" stroke="#63b8ff" d="M255.43,-571.89C285.24,-561.61 333.88,-544.83 367.11,-533.37"/>
<polygon fill="#63b8ff" stroke="#63b8ff" points="368.58,-536.57 376.89,-530 366.3,-529.95 368.58,-536.57"/>
</g>
<!-- Node5 -->
<g id="node5" class="node">
<title>Node5</title>
<g id="a_node5"><a xlink:href="../../d2/d4a/_tag_8h.html" target="_top" xlink:title=" ">
<polygon fill="white" stroke="#666666" points="929,-468 831,-468 831,-448 929,-448 929,-468"/>
<text text-anchor="middle" x="880" y="-455.2" font-family="Consolas" font-size="11.00">Domain/Tag.h</text>
</a>
</g>
</g>
<!-- Node3&#45;&gt;Node5 -->
<g id="edge4" class="edge">
<title>Node3&#45;&gt;Node5</title>
<path fill="none" stroke="#63b8ff" d="M243.38,-571.88C273.04,-553.25 340.32,-511.93 366,-504 387.43,-497.38 690.06,-473.56 820.68,-463.52"/>
<polygon fill="#63b8ff" stroke="#63b8ff" points="821.2,-466.99 830.91,-462.73 820.67,-460.01 821.2,-466.99"/>
</g>
<!-- Node14 -->
<g id="node14" class="node">
<title>Node14</title>
<g id="a_node14"><a xlink:href="../../d4/ddd/container_8h.html" target="_top" xlink:title=" ">
<polygon fill="white" stroke="#666666" points="290.5,-530 145.5,-530 145.5,-510 290.5,-510 290.5,-530"/>
<text text-anchor="middle" x="218" y="-517.2" font-family="Consolas" font-size="11.00">Toolbox/container.h</text>
</a>
</g>
</g>
<!-- Node3&#45;&gt;Node14 -->
<g id="edge13" class="edge">
<title>Node3&#45;&gt;Node14</title>
<path fill="none" stroke="#63b8ff" d="M227.33,-571.89C225.79,-563.52 223.47,-550.84 221.53,-540.23"/>
<polygon fill="#63b8ff" stroke="#63b8ff" points="224.93,-539.4 219.69,-530.2 218.05,-540.67 224.93,-539.4"/>
</g>
<!-- Node6 -->
<g id="node6" class="node">
<title>Node6</title>
<g id="a_node6"><a xlink:href="../../d8/d8f/suan_pan_8h.html" target="_top" xlink:title=" ">
<polygon fill="white" stroke="#666666" points="917.5,-76 840.5,-76 840.5,-56 917.5,-56 917.5,-76"/>
<text text-anchor="middle" x="879" y="-63.2" font-family="Consolas" font-size="11.00">suanPan.h</text>
</a>
</g>
</g>
<!-- Node5&#45;&gt;Node6 -->
<g id="edge5" class="edge">
<title>Node5&#45;&gt;Node6</title>
<path fill="none" stroke="#63b8ff" d="M926.72,-447.98C1004,-431.7 1150,-394.64 1150,-347 1150,-347 1150,-347 1150,-177 1150,-129.56 1005.61,-92.77 927.62,-76.36"/>
<polygon fill="#63b8ff" stroke="#63b8ff" points="928.04,-72.87 917.54,-74.27 926.62,-79.72 928.04,-72.87"/>
</g>
<!-- Node7 -->
<g id="node7" class="node">
<title>Node7</title>
<g id="a_node7"><a xlink:title=" ">
<polygon fill="#e0e0e0" stroke="#999999" points="549.5,-20 478.5,-20 478.5,0 549.5,0 549.5,-20"/>
<text text-anchor="middle" x="514" y="-7.2" font-family="Consolas" font-size="11.00">iostream</text>
</a>
</g>
</g>
<!-- Node6&#45;&gt;Node7 -->
<g id="edge6" class="edge">
<title>Node6&#45;&gt;Node7</title>
<path fill="none" stroke="#63b8ff" d="M840.47,-60.31C782.07,-53.04 667.42,-38.16 559.88,-20.06"/>
<polygon fill="#63b8ff" stroke="#63b8ff" points="560.27,-16.58 549.83,-18.36 559.1,-23.48 560.27,-16.58"/>
</g>
<!-- Node8 -->
<g id="node8" class="node">
<title>Node8</title>
<g id="a_node8"><a xlink:title=" ">
<polygon fill="#e0e0e0" stroke="#999999" points="712.5,-20 567.5,-20 567.5,0 712.5,0 712.5,-20"/>
<text text-anchor="middle" x="640" y="-7.2" font-family="Consolas" font-size="11.00">armadillo/armadillo</text>
</a>
</g>
</g>
<!-- Node6&#45;&gt;Node8 -->
<g id="edge7" class="edge">
<title>Node6&#45;&gt;Node8</title>
<path fill="none" stroke="#63b8ff" d="M840.33,-56.26C799.43,-47.02 734.75,-32.41 690,-22.3"/>
<polygon fill="#63b8ff" stroke="#63b8ff" points="690.73,-18.87 680.21,-20.08 689.19,-25.7 690.73,-18.87"/>
</g>
<!-- Node9 -->
<g id="node9" class="node">
<title>Node9</title>
<g id="a_node9"><a xlink:title=" ">
<polygon fill="#e0e0e0" stroke="#999999" points="815,-20 731,-20 731,0 815,0 815,-20"/>
<text text-anchor="middle" x="773" y="-7.2" font-family="Consolas" font-size="11.00">filesystem</text>
</a>
</g>
</g>
<!-- Node6&#45;&gt;Node9 -->
<g id="edge8" class="edge">
<title>Node6&#45;&gt;Node9</title>
<path fill="none" stroke="#63b8ff" d="M861.02,-55.84C844.24,-47.29 818.99,-34.43 799.84,-24.67"/>
<polygon fill="#63b8ff" stroke="#63b8ff" points="801.22,-21.45 790.72,-20.03 798.04,-27.68 801.22,-21.45"/>
</g>
<!-- Node10 -->
<g id="node10" class="node">
<title>Node10</title>
<g id="a_node10"><a xlink:title=" ">
<polygon fill="#e0e0e0" stroke="#999999" points="924.5,-20 833.5,-20 833.5,0 924.5,0 924.5,-20"/>
<text text-anchor="middle" x="879" y="-7.2" font-family="Consolas" font-size="11.00">fmt/color.h</text>
</a>
</g>
</g>
<!-- Node6&#45;&gt;Node10 -->
<g id="edge9" class="edge">
<title>Node6&#45;&gt;Node10</title>
<path fill="none" stroke="#63b8ff" d="M879,-55.59C879,-48.7 879,-39.1 879,-30.57"/>
<polygon fill="#63b8ff" stroke="#63b8ff" points="882.5,-30.3 879,-20.3 875.5,-30.3 882.5,-30.3"/>
</g>
<!-- Node11 -->
<g id="node11" class="node">
<title>Node11</title>
<g id="a_node11"><a xlink:title=" ">
<polygon fill="#e0e0e0" stroke="#999999" points="993,-20 943,-20 943,0 993,0 993,-20"/>
<text text-anchor="middle" x="968" y="-7.2" font-family="Consolas" font-size="11.00">mutex</text>
</a>
</g>
</g>
<!-- Node6&#45;&gt;Node11 -->
<g id="edge10" class="edge">
<title>Node6&#45;&gt;Node11</title>
<path fill="none" stroke="#63b8ff" d="M894.1,-55.84C907.86,-47.49 928.42,-35.02 944.36,-25.34"/>
<polygon fill="#63b8ff" stroke="#63b8ff" points="946.39,-28.2 953.13,-20.03 942.76,-22.22 946.39,-28.2"/>
</g>
<!-- Node12 -->
<g id="node12" class="node">
<title>Node12</title>
<g id="a_node12"><a xlink:title=" ">
<polygon fill="#e0e0e0" stroke="#999999" points="1095,-20 1011,-20 1011,0 1095,0 1095,-20"/>
<text text-anchor="middle" x="1053" y="-7.2" font-family="Consolas" font-size="11.00">functional</text>
</a>
</g>
</g>
<!-- Node6&#45;&gt;Node12 -->
<g id="edge11" class="edge">
<title>Node6&#45;&gt;Node12</title>
<path fill="none" stroke="#63b8ff" d="M908.12,-55.96C937.11,-46.97 981.77,-33.11 1013.85,-23.15"/>
<polygon fill="#63b8ff" stroke="#63b8ff" points="1015.27,-26.37 1023.78,-20.07 1013.19,-19.69 1015.27,-26.37"/>
</g>
<!-- Node13 -->
<g id="node13" class="node">
<title>Node13</title>
<g id="a_node13"><a xlink:title=" ">
<polygon fill="#e0e0e0" stroke="#999999" points="1170.5,-20 1113.5,-20 1113.5,0 1170.5,0 1170.5,-20"/>
<text text-anchor="middle" x="1142" y="-7.2" font-family="Consolas" font-size="11.00">memory</text>
</a>
</g>
</g>
<!-- Node6&#45;&gt;Node13 -->
<g id="edge12" class="edge">
<title>Node6&#45;&gt;Node13</title>
<path fill="none" stroke="#63b8ff" d="M917.71,-57.69C960.59,-49.49 1032.03,-35.56 1103.33,-20.08"/>
<polygon fill="#63b8ff" stroke="#63b8ff" points="1104.37,-23.44 1113.39,-17.89 1102.87,-16.6 1104.37,-23.44"/>
</g>
<!-- Node14&#45;&gt;Node6 -->
<g id="edge14" class="edge">
<title>Node14&#45;&gt;Node6</title>
<path fill="none" stroke="#63b8ff" d="M168.26,-509.97C141.95,-502.78 111.03,-490.09 91,-468 70.78,-445.71 72,-433.1 72,-403 72,-403 72,-403 72,-177 72,-100.05 655.48,-74.43 830.16,-68.48"/>
<polygon fill="#63b8ff" stroke="#63b8ff" points="830.47,-71.98 840.35,-68.14 830.24,-64.98 830.47,-71.98"/>
</g>
<!-- Node15 -->
<g id="node15" class="node">
<title>Node15</title>
<g id="a_node15"><a xlink:title=" ">
<polygon fill="#e0e0e0" stroke="#999999" points="437.5,-468 400.5,-468 400.5,-448 437.5,-448 437.5,-468"/>
<text text-anchor="middle" x="419" y="-455.2" font-family="Consolas" font-size="11.00">set</text>
</a>
</g>
</g>
<!-- Node14&#45;&gt;Node15 -->
<g id="edge15" class="edge">
<title>Node14&#45;&gt;Node15</title>
<path fill="none" stroke="#63b8ff" d="M249.64,-509.92C282.48,-500.45 335.56,-484.98 390.75,-468.02"/>
<polygon fill="#63b8ff" stroke="#63b8ff" points="391.82,-471.36 400.34,-465.07 389.76,-464.67 391.82,-471.36"/>
</g>
<!-- Node16 -->
<g id="node16" class="node">
<title>Node16</title>
<g id="a_node16"><a xlink:title=" ">
<polygon fill="#e0e0e0" stroke="#999999" points="137.5,-468 100.5,-468 100.5,-448 137.5,-448 137.5,-468"/>
<text text-anchor="middle" x="119" y="-455.2" font-family="Consolas" font-size="11.00">map</text>
</a>
</g>
</g>
<!-- Node14&#45;&gt;Node16 -->
<g id="edge16" class="edge">
<title>Node14&#45;&gt;Node16</title>
<path fill="none" stroke="#63b8ff" d="M202.96,-509.89C186.88,-500.14 161.16,-484.55 142.42,-473.19"/>
<polygon fill="#63b8ff" stroke="#63b8ff" points="144.22,-470.19 133.85,-468 140.59,-476.18 144.22,-470.19"/>
</g>
<!-- Node17 -->
<g id="node17" class="node">
<title>Node17</title>
<g id="a_node17"><a xlink:title=" ">
<polygon fill="#e0e0e0" stroke="#999999" points="260,-468 156,-468 156,-448 260,-448 260,-468"/>
<text text-anchor="middle" x="208" y="-455.2" font-family="Consolas" font-size="11.00">unordered_set</text>
</a>
</g>
</g>
<!-- Node14&#45;&gt;Node17 -->
<g id="edge17" class="edge">
<title>Node14&#45;&gt;Node17</title>
<path fill="none" stroke="#63b8ff" d="M216.48,-509.89C215.09,-501.52 212.97,-488.84 211.21,-478.23"/>
<polygon fill="#63b8ff" stroke="#63b8ff" points="214.63,-477.49 209.53,-468.2 207.72,-478.64 214.63,-477.49"/>
</g>
<!-- Node18 -->
<g id="node18" class="node">
<title>Node18</title>
<g id="a_node18"><a xlink:title=" ">
<polygon fill="#e0e0e0" stroke="#999999" points="382,-468 278,-468 278,-448 382,-448 382,-468"/>
<text text-anchor="middle" x="330" y="-455.2" font-family="Consolas" font-size="11.00">unordered_map</text>
</a>
</g>
</g>
<!-- Node14&#45;&gt;Node18 -->
<g id="edge18" class="edge">
<title>Node14&#45;&gt;Node18</title>
<path fill="none" stroke="#63b8ff" d="M235.01,-509.89C253.45,-500.01 283.1,-484.12 304.37,-472.73"/>
<polygon fill="#63b8ff" stroke="#63b8ff" points="306.03,-475.81 313.2,-468 302.73,-469.64 306.03,-475.81"/>
</g>
<!-- Node19&#45;&gt;Node14 -->
<g id="edge20" class="edge">
<title>Node19&#45;&gt;Node14</title>
<path fill="none" stroke="#63b8ff" d="M91.63,-571.89C116.83,-561.74 157.74,-545.27 186.16,-533.82"/>
<polygon fill="#63b8ff" stroke="#63b8ff" points="187.68,-536.98 195.65,-530 185.06,-530.49 187.68,-536.98"/>
</g>
<!-- Node21 -->
<g id="node21" class="node">
<title>Node21</title>
<g id="a_node21"><a xlink:href="../../d1/d78/_conditional_modifier_8h.html" target="_top" xlink:title=" ">
<polygon fill="white" stroke="#666666" points="810,-592 604,-592 604,-572 810,-572 810,-592"/>
<text text-anchor="middle" x="707" y="-579.2" font-family="Consolas" font-size="11.00">Domain/ConditionalModifier.h</text>
</a>
</g>
</g>
<!-- Node20&#45;&gt;Node21 -->
<g id="edge22" class="edge">
<title>Node20&#45;&gt;Node21</title>
<path fill="none" stroke="#63b8ff" d="M683.05,-627.59C686.96,-620.32 692.49,-610.02 697.25,-601.15"/>
<polygon fill="#63b8ff" stroke="#63b8ff" points="700.36,-602.76 702.01,-592.3 694.19,-599.45 700.36,-602.76"/>
</g>
<!-- Node21&#45;&gt;Node5 -->
<g id="edge23" class="edge">
<title>Node21&#45;&gt;Node5</title>
<path fill="none" stroke="#63b8ff" d="M704.69,-571.95C701.26,-556.18 696.82,-523.5 713,-504 726.89,-487.26 778.55,-475.05 820.78,-467.61"/>
<polygon fill="#63b8ff" stroke="#63b8ff" points="821.46,-471.05 830.73,-465.92 820.28,-464.15 821.46,-471.05"/>
</g>
<!-- Node22&#45;&gt;Node5 -->
<g id="edge25" class="edge">
<title>Node22&#45;&gt;Node5</title>
<path fill="none" stroke="#63b8ff" d="M934.28,-509.89C924.51,-500.72 909.23,-486.4 897.37,-475.28"/>
<polygon fill="#63b8ff" stroke="#63b8ff" points="899.5,-472.48 889.81,-468.2 894.71,-477.59 899.5,-472.48"/>
</g>
<!-- Node24 -->
<g id="node24" class="node">
<title>Node24</title>
<g id="a_node24"><a xlink:href="../../d9/d82/_element_base_8h.html" target="_top" xlink:title=" ">
<polygon fill="white" stroke="#666666" points="1100,-592 942,-592 942,-572 1100,-572 1100,-592"/>
<text text-anchor="middle" x="1021" y="-579.2" font-family="Consolas" font-size="11.00">Element/ElementBase.h</text>
</a>
</g>
</g>
<!-- Node23&#45;&gt;Node24 -->
<g id="edge27" class="edge">
<title>Node23&#45;&gt;Node24</title>
<path fill="none" stroke="#63b8ff" d="M1011.92,-627.59C1013.34,-620.63 1015.32,-610.89 1017.07,-602.29"/>
<polygon fill="#63b8ff" stroke="#63b8ff" points="1020.54,-602.8 1019.11,-592.3 1013.68,-601.4 1020.54,-602.8"/>
</g>
<!-- Node24&#45;&gt;Node5 -->
<g id="edge28" class="edge">
<title>Node24&#45;&gt;Node5</title>
<path fill="none" stroke="#63b8ff" d="M1021.76,-571.94C1022.58,-556.17 1021.92,-523.48 1005,-504 988.33,-484.8 962.83,-473.79 939.2,-467.48"/>
<polygon fill="#63b8ff" stroke="#63b8ff" points="939.77,-464.01 929.22,-465.05 938.11,-470.82 939.77,-464.01"/>
</g>
<!-- Node25 -->
<g id="node25" class="node">
<title>Node25</title>
<g id="a_node25"><a xlink:href="../../d9/dc0/vtk_base_8h.html" target="_top" xlink:title=" ">
<polygon fill="white" stroke="#666666" points="1210,-536 1052,-536 1052,-504 1210,-504 1210,-536"/>
<text text-anchor="start" x="1060" y="-523.2" font-family="Consolas" font-size="11.00">Element/Visualisation</text>
<text text-anchor="middle" x="1131" y="-511.2" font-family="Consolas" font-size="11.00">/vtkBase.h</text>
</a>
</g>
</g>
<!-- Node24&#45;&gt;Node25 -->
<g id="edge29" class="edge">
<title>Node24&#45;&gt;Node25</title>
<path fill="none" stroke="#63b8ff" d="M1037.71,-571.89C1052.75,-563.68 1075.39,-551.33 1094.6,-540.86"/>
<polygon fill="#63b8ff" stroke="#63b8ff" points="1096.32,-543.9 1103.42,-536.04 1092.97,-537.76 1096.32,-543.9"/>
</g>
<!-- Node26 -->
<g id="node26" class="node">
<title>Node26</title>
<g id="a_node26"><a xlink:href="../../d6/d94/_mapping_d_o_f_8h.html" target="_top" xlink:title=" ">
<polygon fill="white" stroke="#666666" points="874,-530 722,-530 722,-510 874,-510 874,-530"/>
<text text-anchor="middle" x="798" y="-517.2" font-family="Consolas" font-size="11.00">Element/MappingDOF.h</text>
</a>
</g>
</g>
<!-- Node24&#45;&gt;Node26 -->
<g id="edge30" class="edge">
<title>Node24&#45;&gt;Node26</title>
<path fill="none" stroke="#63b8ff" d="M987.13,-571.89C948.1,-561.39 883.88,-544.11 841.27,-532.64"/>
<polygon fill="#63b8ff" stroke="#63b8ff" points="842.02,-529.22 831.46,-530 840.2,-535.98 842.02,-529.22"/>
</g>
<!-- Node26&#45;&gt;Node5 -->
<g id="edge31" class="edge">
<title>Node26&#45;&gt;Node5</title>
<path fill="none" stroke="#63b8ff" d="M810.45,-509.89C823.41,-500.41 843.92,-485.4 859.32,-474.13"/>
<polygon fill="#63b8ff" stroke="#63b8ff" points="861.69,-476.73 867.7,-468 857.56,-471.08 861.69,-476.73"/>
</g>
<!-- Node27&#45;&gt;Node21 -->
<g id="edge33" class="edge">
<title>Node27&#45;&gt;Node21</title>
<path fill="none" stroke="#63b8ff" d="M807.75,-627.96C788.29,-619.28 758.67,-606.06 736.58,-596.2"/>
<polygon fill="#63b8ff" stroke="#63b8ff" points="737.88,-592.95 727.32,-592.07 735.02,-599.34 737.88,-592.95"/>
</g>
<!-- Node28&#45;&gt;Node6 -->
<g id="edge35" class="edge">
<title>Node28&#45;&gt;Node6</title>
<path fill="none" stroke="#63b8ff" d="M467.74,-627.98C467.2,-608.46 466,-560.88 466,-521 466,-521 466,-521 466,-177 466,-102.42 720.64,-77.14 830.03,-69.72"/>
<polygon fill="#63b8ff" stroke="#63b8ff" points="830.4,-73.21 840.15,-69.06 829.94,-66.22 830.4,-73.21"/>
</g>
<!-- Node29 -->
<g id="node29" class="node">
<title>Node29</title>
<g id="a_node29"><a xlink:href="../../db/d65/_factory_8hpp.html" target="_top" xlink:title=" ">
<polygon fill="white" stroke="#666666" points="585.5,-592 494.5,-592 494.5,-572 585.5,-572 585.5,-592"/>
<text text-anchor="middle" x="540" y="-579.2" font-family="Consolas" font-size="11.00">Factory.hpp</text>
</a>
</g>
</g>
<!-- Node28&#45;&gt;Node29 -->
<g id="edge36" class="edge">
<title>Node28&#45;&gt;Node29</title>
<path fill="none" stroke="#63b8ff" d="M480.21,-627.84C491.04,-619.72 507.05,-607.71 519.78,-598.16"/>
<polygon fill="#63b8ff" stroke="#63b8ff" points="522.07,-600.83 527.97,-592.03 517.87,-595.23 522.07,-600.83"/>
</g>
<!-- Node46 -->
<g id="node46" class="node">
<title>Node46</title>
<g id="a_node46"><a xlink:title=" ">
<polygon fill="#e0e0e0" stroke="#999999" points="438,-592 320,-592 320,-572 438,-572 438,-592"/>
<text text-anchor="middle" x="379" y="-579.2" font-family="Consolas" font-size="11.00">MetaMat/MetaMat</text>
</a>
</g>
</g>
<!-- Node28&#45;&gt;Node46 -->
<g id="edge64" class="edge">
<title>Node28&#45;&gt;Node46</title>
<path fill="none" stroke="#63b8ff" d="M452.9,-627.84C439.14,-619.49 418.58,-607.02 402.64,-597.34"/>
<polygon fill="#63b8ff" stroke="#63b8ff" points="404.24,-594.22 393.87,-592.03 400.61,-600.2 404.24,-594.22"/>
</g>
<!-- Node29&#45;&gt;Node4 -->
<g id="edge37" class="edge">
<title>Node29&#45;&gt;Node4</title>
<path fill="none" stroke="#63b8ff" d="M519.19,-571.89C496.23,-561.83 459.06,-545.55 432.96,-534.12"/>
<polygon fill="#63b8ff" stroke="#63b8ff" points="434.12,-530.81 423.55,-530 431.31,-537.22 434.12,-530.81"/>
</g>
<!-- Node29&#45;&gt;Node14 -->
<g id="edge62" class="edge">
<title>Node29&#45;&gt;Node14</title>
<path fill="none" stroke="#63b8ff" d="M494.21,-572.47C437.05,-561.82 339.22,-543.59 276.64,-531.93"/>
<polygon fill="#63b8ff" stroke="#63b8ff" points="277,-528.43 266.53,-530.04 275.72,-535.32 277,-528.43"/>
</g>
<!-- Node29&#45;&gt;Node26 -->
<g id="edge63" class="edge">
<title>Node29&#45;&gt;Node26</title>
<path fill="none" stroke="#63b8ff" d="M578.9,-571.95C624.47,-561.36 700,-543.79 749.38,-532.31"/>
<polygon fill="#63b8ff" stroke="#63b8ff" points="750.25,-535.7 759.2,-530.02 748.67,-528.88 750.25,-535.7"/>
</g>
<!-- Node30 -->
<g id="node30" class="node">
<title>Node30</title>
<g id="a_node30"><a xlink:href="../../da/dcc/operator__times_8hpp.html" target="_top" xlink:title=" ">
<polygon fill="white" stroke="#666666" points="666,-536 494,-536 494,-504 666,-504 666,-536"/>
<text text-anchor="start" x="502" y="-523.2" font-family="Consolas" font-size="11.00">Domain/MetaMat/operator</text>
<text text-anchor="middle" x="580" y="-511.2" font-family="Consolas" font-size="11.00">_times.hpp</text>
</a>
</g>
</g>
<!-- Node29&#45;&gt;Node30 -->
<g id="edge38" class="edge">
<title>Node29&#45;&gt;Node30</title>
<path fill="none" stroke="#63b8ff" d="M546.08,-571.89C550.89,-564.66 557.85,-554.22 564.22,-544.67"/>
<polygon fill="#63b8ff" stroke="#63b8ff" points="567.18,-546.54 569.82,-536.28 561.36,-542.66 567.18,-546.54"/>
</g>
<!-- Node31 -->
<g id="node31" class="node">
<title>Node31</title>
<g id="a_node31"><a xlink:href="../../d3/de0/_full_mat_8hpp.html" target="_top" xlink:title=" ">
<polygon fill="white" stroke="#666666" points="748.5,-468 657.5,-468 657.5,-448 748.5,-448 748.5,-468"/>
<text text-anchor="middle" x="703" y="-455.2" font-family="Consolas" font-size="11.00">FullMat.hpp</text>
</a>
</g>
</g>
<!-- Node30&#45;&gt;Node31 -->
<g id="edge39" class="edge">
<title>Node30&#45;&gt;Node31</title>
<path fill="none" stroke="#63b8ff" d="M611.04,-503.86C630.76,-494.24 656.08,-481.89 675.16,-472.58"/>
<polygon fill="#63b8ff" stroke="#63b8ff" points="676.78,-475.68 684.24,-468.15 673.71,-469.39 676.78,-475.68"/>
</g>
<!-- Node45 -->
<g id="node45" class="node">
<title>Node45</title>
<g id="a_node45"><a xlink:href="../../d0/d1a/_symm_pack_mat_8hpp.html" target="_top" xlink:title=" ">
<polygon fill="white" stroke="#666666" points="639,-468 521,-468 521,-448 639,-448 639,-468"/>
<text text-anchor="middle" x="580" y="-455.2" font-family="Consolas" font-size="11.00">SymmPackMat.hpp</text>
</a>
</g>
</g>
<!-- Node30&#45;&gt;Node45 -->
<g id="edge60" class="edge">
<title>Node30&#45;&gt;Node45</title>
<path fill="none" stroke="#63b8ff" d="M580,-503.86C580,-496.13 580,-486.63 580,-478.37"/>
<polygon fill="#63b8ff" stroke="#63b8ff" points="583.5,-478.15 580,-468.15 576.5,-478.15 583.5,-478.15"/>
</g>
<!-- Node32 -->
<g id="node32" class="node">
<title>Node32</title>
<g id="a_node32"><a xlink:href="../../de/d2a/_dense_mat_8hpp.html" target="_top" xlink:title=" ">
<polygon fill="white" stroke="#666666" points="752,-412 654,-412 654,-392 752,-392 752,-412"/>
<text text-anchor="middle" x="703" y="-399.2" font-family="Consolas" font-size="11.00">DenseMat.hpp</text>
</a>
</g>
</g>
<!-- Node31&#45;&gt;Node32 -->
<g id="edge40" class="edge">
<title>Node31&#45;&gt;Node32</title>
<path fill="none" stroke="#63b8ff" d="M703,-447.59C703,-440.7 703,-431.1 703,-422.57"/>
<polygon fill="#63b8ff" stroke="#63b8ff" points="706.5,-422.3 703,-412.3 699.5,-422.3 706.5,-422.3"/>
</g>
<!-- Node33 -->
<g id="node33" class="node">
<title>Node33</title>
<g id="a_node33"><a xlink:href="../../d3/d46/_meta_mat_8hpp.html" target="_top" xlink:title=" ">
<polygon fill="white" stroke="#666666" points="792.5,-356 701.5,-356 701.5,-336 792.5,-336 792.5,-356"/>
<text text-anchor="middle" x="747" y="-343.2" font-family="Consolas" font-size="11.00">MetaMat.hpp</text>
</a>
</g>
</g>
<!-- Node32&#45;&gt;Node33 -->
<g id="edge41" class="edge">
<title>Node32&#45;&gt;Node33</title>
<path fill="none" stroke="#63b8ff" d="M710.66,-391.59C716.78,-384.08 725.53,-373.35 732.9,-364.3"/>
<polygon fill="#63b8ff" stroke="#63b8ff" points="735.82,-366.26 739.42,-356.3 730.39,-361.84 735.82,-366.26"/>
</g>
<!-- Node34 -->
<g id="node34" class="node">
<title>Node34</title>
<g id="a_node34"><a xlink:href="../../df/df1/triplet__form_8hpp.html" target="_top" xlink:title=" ">
<polygon fill="white" stroke="#666666" points="815.5,-188 690.5,-188 690.5,-168 815.5,-168 815.5,-188"/>
<text text-anchor="middle" x="753" y="-175.2" font-family="Consolas" font-size="11.00">triplet_form.hpp</text>
</a>
</g>
</g>
<!-- Node33&#45;&gt;Node34 -->
<g id="edge42" class="edge">
<title>Node33&#45;&gt;Node34</title>
<path fill="none" stroke="#63b8ff" d="M701.26,-338.27C621.23,-324.64 469.2,-289.35 523,-224 542.71,-200.06 620.49,-188.67 680.2,-183.38"/>
<polygon fill="#63b8ff" stroke="#63b8ff" points="680.7,-186.85 690.37,-182.52 680.11,-179.88 680.7,-186.85"/>
</g>
<!-- Node38 -->
<g id="node38" class="node">
<title>Node38</title>
<g id="a_node38"><a xlink:href="../../df/d0c/_iterative_solver_8hpp.html" target="_top" xlink:title=" ">
<polygon fill="white" stroke="#666666" points="1090.5,-300 945.5,-300 945.5,-280 1090.5,-280 1090.5,-300"/>
<text text-anchor="middle" x="1018" y="-287.2" font-family="Consolas" font-size="11.00">IterativeSolver.hpp</text>
</a>
</g>
</g>
<!-- Node33&#45;&gt;Node38 -->
<g id="edge47" class="edge">
<title>Node33&#45;&gt;Node38</title>
<path fill="none" stroke="#63b8ff" d="M792.36,-335.96C839.16,-326.64 912.22,-312.08 962.45,-302.07"/>
<polygon fill="#63b8ff" stroke="#63b8ff" points="963.37,-305.45 972.49,-300.07 962,-298.59 963.37,-305.45"/>
</g>
<!-- Node41 -->
<g id="node41" class="node">
<title>Node41</title>
<g id="a_node41"><a xlink:href="../../db/d46/_i_l_u_8hpp.html" target="_top" xlink:title=" ">
<polygon fill="white" stroke="#666666" points="779,-300 715,-300 715,-280 779,-280 779,-300"/>
<text text-anchor="middle" x="747" y="-287.2" font-family="Consolas" font-size="11.00">ILU.hpp</text>
</a>
</g>
</g>
<!-- Node33&#45;&gt;Node41 -->
<g id="edge52" class="edge">
<title>Node33&#45;&gt;Node41</title>
<path fill="none" stroke="#63b8ff" d="M747,-335.59C747,-328.7 747,-319.1 747,-310.57"/>
<polygon fill="#63b8ff" stroke="#63b8ff" points="750.5,-310.3 747,-300.3 743.5,-310.3 750.5,-310.3"/>
</g>
<!-- Node44 -->
<g id="node44" class="node">
<title>Node44</title>
<g id="a_node44"><a xlink:href="../../dc/d70/_jacobi_8hpp.html" target="_top" xlink:title=" ">
<polygon fill="white" stroke="#666666" points="911,-300 827,-300 827,-280 911,-280 911,-300"/>
<text text-anchor="middle" x="869" y="-287.2" font-family="Consolas" font-size="11.00">Jacobi.hpp</text>
</a>
</g>
</g>
<!-- Node33&#45;&gt;Node44 -->
<g id="edge58" class="edge">
<title>Node33&#45;&gt;Node44</title>
<path fill="none" stroke="#63b8ff" d="M767.42,-335.96C787.04,-327.28 816.9,-314.06 839.18,-304.2"/>
<polygon fill="#63b8ff" stroke="#63b8ff" points="840.79,-307.32 848.51,-300.07 837.95,-300.91 840.79,-307.32"/>
</g>
<!-- Node35 -->
<g id="node35" class="node">
<title>Node35</title>
<g id="a_node35"><a xlink:href="../../d5/d47/utility_8h.html" target="_top" xlink:title=" ">
<polygon fill="white" stroke="#666666" points="1038.5,-132 907.5,-132 907.5,-112 1038.5,-112 1038.5,-132"/>
<text text-anchor="middle" x="973" y="-119.2" font-family="Consolas" font-size="11.00">Toolbox/utility.h</text>
</a>
</g>
</g>
<!-- Node34&#45;&gt;Node35 -->
<g id="edge43" class="edge">
<title>Node34&#45;&gt;Node35</title>
<path fill="none" stroke="#63b8ff" d="M789.82,-167.96C827.26,-158.77 885.4,-144.5 926.11,-134.51"/>
<polygon fill="#63b8ff" stroke="#63b8ff" points="927.18,-137.85 936.06,-132.07 925.51,-131.05 927.18,-137.85"/>
</g>
<!-- Node37 -->
<g id="node37" class="node">
<title>Node37</title>
<g id="a_node37"><a xlink:title=" ">
<polygon fill="#e0e0e0" stroke="#999999" points="785,-132 721,-132 721,-112 785,-112 785,-132"/>
<text text-anchor="middle" x="753" y="-119.2" font-family="Consolas" font-size="11.00">numeric</text>
</a>
</g>
</g>
<!-- Node34&#45;&gt;Node37 -->
<g id="edge46" class="edge">
<title>Node34&#45;&gt;Node37</title>
<path fill="none" stroke="#63b8ff" d="M753,-167.59C753,-160.7 753,-151.1 753,-142.57"/>
<polygon fill="#63b8ff" stroke="#63b8ff" points="756.5,-142.3 753,-132.3 749.5,-142.3 756.5,-142.3"/>
</g>
<!-- Node35&#45;&gt;Node6 -->
<g id="edge45" class="edge">
<title>Node35&#45;&gt;Node6</title>
<path fill="none" stroke="#63b8ff" d="M957.05,-111.84C942.38,-103.41 920.4,-90.78 903.5,-81.07"/>
<polygon fill="#63b8ff" stroke="#63b8ff" points="905.12,-77.97 894.71,-76.03 901.64,-84.04 905.12,-77.97"/>
</g>
<!-- Node36 -->
<g id="node36" class="node">
<title>Node36</title>
<g id="a_node36"><a xlink:title=" ">
<polygon fill="#e0e0e0" stroke="#999999" points="1008.5,-76 937.5,-76 937.5,-56 1008.5,-56 1008.5,-76"/>
<text text-anchor="middle" x="973" y="-63.2" font-family="Consolas" font-size="11.00">concepts</text>
</a>
</g>
</g>
<!-- Node35&#45;&gt;Node36 -->
<g id="edge44" class="edge">
<title>Node35&#45;&gt;Node36</title>
<path fill="none" stroke="#63b8ff" d="M973,-111.59C973,-104.7 973,-95.1 973,-86.57"/>
<polygon fill="#63b8ff" stroke="#63b8ff" points="976.5,-86.3 973,-76.3 969.5,-86.3 976.5,-86.3"/>
</g>
<!-- Node38&#45;&gt;Node35 -->
<g id="edge48" class="edge">
<title>Node38&#45;&gt;Node35</title>
<path fill="none" stroke="#63b8ff" d="M1044.24,-279.97C1070.37,-269.33 1105,-249.78 1093,-224 1074.13,-183.46 1030.09,-153.37 1000.93,-137"/>
<polygon fill="#63b8ff" stroke="#63b8ff" points="1002.5,-133.87 992.04,-132.18 999.16,-140.02 1002.5,-133.87"/>
</g>
<!-- Node39 -->
<g id="node39" class="node">
<title>Node39</title>
<g id="a_node39"><a xlink:href="../../d7/de3/_solver_setting_8hpp.html" target="_top" xlink:title=" ">
<polygon fill="white" stroke="#666666" points="1083.5,-244 952.5,-244 952.5,-224 1083.5,-224 1083.5,-244"/>
<text text-anchor="middle" x="1018" y="-231.2" font-family="Consolas" font-size="11.00">SolverSetting.hpp</text>
</a>
</g>
</g>
<!-- Node38&#45;&gt;Node39 -->
<g id="edge49" class="edge">
<title>Node38&#45;&gt;Node39</title>
<path fill="none" stroke="#63b8ff" d="M1018,-279.59C1018,-272.7 1018,-263.1 1018,-254.57"/>
<polygon fill="#63b8ff" stroke="#63b8ff" points="1021.5,-254.3 1018,-244.3 1014.5,-254.3 1021.5,-254.3"/>
</g>
<!-- Node40 -->
<g id="node40" class="node">
<title>Node40</title>
<g id="a_node40"><a xlink:href="../../d7/de4/_preconditioner_8hpp.html" target="_top" xlink:title=" ">
<polygon fill="white" stroke="#666666" points="983,-188 845,-188 845,-168 983,-168 983,-188"/>
<text text-anchor="middle" x="914" y="-175.2" font-family="Consolas" font-size="11.00">Preconditioner.hpp</text>
</a>
</g>
</g>
<!-- Node39&#45;&gt;Node40 -->
<g id="edge50" class="edge">
<title>Node39&#45;&gt;Node40</title>
<path fill="none" stroke="#63b8ff" d="M1000.36,-223.84C983.9,-215.29 959.13,-202.43 940.33,-192.67"/>
<polygon fill="#63b8ff" stroke="#63b8ff" points="941.87,-189.53 931.38,-188.03 938.64,-195.74 941.87,-189.53"/>
</g>
<!-- Node40&#45;&gt;Node6 -->
<g id="edge51" class="edge">
<title>Node40&#45;&gt;Node6</title>
<path fill="none" stroke="#63b8ff" d="M910.83,-167.71C907.75,-158.63 902.97,-144.39 899,-132 894.05,-116.54 888.64,-98.94 884.7,-85.95"/>
<polygon fill="#63b8ff" stroke="#63b8ff" points="888.02,-84.84 881.78,-76.28 881.32,-86.86 888.02,-84.84"/>
</g>
<!-- Node41&#45;&gt;Node34 -->
<g id="edge57" class="edge">
<title>Node41&#45;&gt;Node34</title>
<path fill="none" stroke="#63b8ff" d="M747.49,-280C748.46,-262.19 750.65,-222.12 751.96,-198.15"/>
<polygon fill="#63b8ff" stroke="#63b8ff" points="755.45,-198.3 752.5,-188.13 748.46,-197.92 755.45,-198.3"/>
</g>
<!-- Node41&#45;&gt;Node40 -->
<g id="edge54" class="edge">
<title>Node41&#45;&gt;Node40</title>
<path fill="none" stroke="#63b8ff" d="M779.07,-282.4C804.8,-275.89 840.82,-263.97 867,-244 883.37,-231.51 896.51,-211.76 904.69,-197.31"/>
<polygon fill="#63b8ff" stroke="#63b8ff" points="907.88,-198.76 909.54,-188.3 901.72,-195.45 907.88,-198.76"/>
</g>
<!-- Node42 -->
<g id="node42" class="node">
<title>Node42</title>
<g id="a_node42"><a xlink:title=" ">
<polygon fill="#e0e0e0" stroke="#999999" points="704,-244 532,-244 532,-224 704,-224 704,-244"/>
<text text-anchor="middle" x="618" y="-231.2" font-family="Consolas" font-size="11.00">superlu&#45;mt/superlu&#45;mt.h</text>
</a>
</g>
</g>
<!-- Node41&#45;&gt;Node42 -->
<g id="edge53" class="edge">
<title>Node41&#45;&gt;Node42</title>
<path fill="none" stroke="#63b8ff" d="M725.41,-279.96C704.48,-271.2 672.52,-257.82 648.9,-247.93"/>
<polygon fill="#63b8ff" stroke="#63b8ff" points="650.24,-244.7 639.66,-244.07 647.54,-251.16 650.24,-244.7"/>
</g>
<!-- Node43 -->
<g id="node43" class="node">
<title>Node43</title>
<g id="a_node43"><a xlink:href="../../d6/dc3/csc__form_8hpp.html" target="_top" xlink:title=" ">
<polygon fill="white" stroke="#666666" points="858,-244 760,-244 760,-224 858,-224 858,-244"/>
<text text-anchor="middle" x="809" y="-231.2" font-family="Consolas" font-size="11.00">csc_form.hpp</text>
</a>
</g>
</g>
<!-- Node41&#45;&gt;Node43 -->
<g id="edge55" class="edge">
<title>Node41&#45;&gt;Node43</title>
<path fill="none" stroke="#63b8ff" d="M757.52,-279.84C766.66,-271.88 780.1,-260.17 790.95,-250.72"/>
<polygon fill="#63b8ff" stroke="#63b8ff" points="793.4,-253.23 798.64,-244.03 788.8,-247.95 793.4,-253.23"/>
</g>
<!-- Node43&#45;&gt;Node34 -->
<g id="edge56" class="edge">
<title>Node43&#45;&gt;Node34</title>
<path fill="none" stroke="#63b8ff" d="M799.5,-223.84C791.33,-215.96 779.34,-204.4 769.59,-195"/>
<polygon fill="#63b8ff" stroke="#63b8ff" points="771.99,-192.45 762.36,-188.03 767.13,-197.49 771.99,-192.45"/>
</g>
<!-- Node44&#45;&gt;Node40 -->
<g id="edge59" class="edge">
<title>Node44&#45;&gt;Node40</title>
<path fill="none" stroke="#63b8ff" d="M876.81,-279.98C883.9,-271.32 894.13,-257.59 900,-244 906.3,-229.41 909.87,-211.71 911.83,-198.47"/>
<polygon fill="#63b8ff" stroke="#63b8ff" points="915.35,-198.54 913.16,-188.17 908.41,-197.64 915.35,-198.54"/>
</g>
<!-- Node45&#45;&gt;Node32 -->
<g id="edge61" class="edge">
<title>Node45&#45;&gt;Node32</title>
<path fill="none" stroke="#63b8ff" d="M600.59,-447.96C620.37,-439.28 650.48,-426.06 672.94,-416.2"/>
<polygon fill="#63b8ff" stroke="#63b8ff" points="674.6,-419.29 682.35,-412.07 671.78,-412.88 674.6,-419.29"/>
</g>
</g>
</svg>
