<svg xmlns="http://www.w3.org/2000/svg" xmlns:xlink="http://www.w3.org/1999/xlink" xml:space="preserve" id="main" onload="init(evt)"><style>.edge,.node,[data-mouse-over-selected=false]{opacity:.7}.edge.selected,.node.selected,[data-mouse-over-selected=true]{opacity:1}.edge:hover path{stroke:red}.edge:hover polygon{stroke:red;fill:red}</style><defs><g id="zoomPlus"><use xlink:href="#rim" fill="#404040"><set attributeName="fill" begin="zoomplus.mouseover" end="zoomplus.mouseout" to="#808080"/></use><path fill="none" stroke="#fff" stroke-width="1.5" d="M-4 0h8M0-4v8" pointer-events="none"/></g><g id="zoomMin"><use xlink:href="#rim" fill="#404040"><set attributeName="fill" begin="zoomminus.mouseover" end="zoomminus.mouseout" to="#808080"/></use><path fill="none" stroke="#fff" stroke-width="1.5" d="M-4 0h8" pointer-events="none"/></g><g id="arrowUp" transform="translate(30 24)"><use xlink:href="#rim"/><path fill="none" stroke="#fff" stroke-width="1.5" d="M0-3v7M-2.5-.5 0-3 2.5-.5" pointer-events="none"/></g><g id="arrowRight" transform="rotate(90 3.5 39.5)"><use xlink:href="#rim"/><path fill="none" stroke="#fff" stroke-width="1.5" d="M0-3v7M-2.5-.5 0-3 2.5-.5" pointer-events="none"/></g><g id="arrowDown" transform="matrix(-1 0 0 -1 30 48)"><use xlink:href="#rim"/><path fill="none" stroke="#fff" stroke-width="1.5" d="M0-3v7M-2.5-.5 0-3 2.5-.5" pointer-events="none"/></g><g id="arrowLeft" transform="rotate(-90 26.5 9.5)"><use xlink:href="#rim"/><path fill="none" stroke="#fff" stroke-width="1.5" d="M0-3v7M-2.5-.5 0-3 2.5-.5" pointer-events="none"/></g><circle id="rim" cx="0" cy="0" r="7"/><circle id="rim2" cx="0" cy="0" r="3.5"/><use xlink:href="#rim2" id="resetDef" fill="#404040"><set attributeName="fill" begin="reset.mouseover" end="reset.mouseout" to="#808080"/></use></defs><script type="application/ecmascript">var viewWidth = 823;
var viewHeight = 388;
var sectionId = &apos;dynsection-0&apos;;</script><script xlink:href="../../svg.min.js" type="application/ecmascript"/><svg id="graph" class="graph"><g id="viewport"><title>Material/Material1D/Elastic/CustomElastic1D.cpp</title><g id="Node000001" class="node"><title>Node1</title><a id="a_Node000001">
<path fill="#999" stroke="#666" d="M508.5-380h-206v32h206z"/>
<text x="310.5" y="-367.2" font-family="Consolas" font-size="11">Material/Material1D</text>
<text x="405.5" y="-355.2" font-family="Consolas" font-size="11" text-anchor="middle">/Elastic/CustomElastic1D.cpp</text>
</a></g><g id="Node000002" class="node"><title>Node2</title><a xlink:href="../../d9/d1e/_custom_elastic1_d_8h.html" id="a_Node000002" target="_top">
<path fill="#fff" stroke="#666" d="M419-312H288v20h131z"/>
<text x="353.5" y="-299.2" font-family="Consolas" font-size="11" text-anchor="middle">CustomElastic1D.h</text>
</a></g><g id="edge1_Node000001_Node000002" class="edge"><title>Node1-&gt;Node2</title><a id="a_edge1_Node000001_Node000002">
<path fill="none" stroke="#63b8ff" d="M392.38-347.86c-7.39 8.52-16.63 19.19-24.25 27.98"/>
<path fill="#63b8ff" stroke="#63b8ff" d="m370.63-317.42-9.2 5.27 3.91-9.85z"/>
</a></g><g id="Node000017" class="node"><title>Node17</title><a xlink:href="../../dc/df2/_domain_base_8h.html" id="a_Node000017" target="_top">
<path fill="#fff" stroke="#666" d="M614-188H469v20h145z"/>
<text x="541.5" y="-175.2" font-family="Consolas" font-size="11" text-anchor="middle">Domain/DomainBase.h</text>
</a></g><g id="edge18_Node000001_Node000017" class="edge"><title>Node1-&gt;Node17</title><a id="a_edge18_Node000001_Node000017">
<path fill="none" stroke="#63b8ff" d="M428.81-347.76c26.47 18.54 69.03 52.28 92.69 91.76 10.73 17.9 15.76 41.5 18.08 57.83"/>
<path fill="#63b8ff" stroke="#63b8ff" d="m543.06-198.53-2.27 10.35-4.67-9.51z"/>
</a></g><g id="Node000003" class="node"><title>Node3</title><a xlink:href="../../d4/d7c/_material1_d_8h.html" id="a_Node000003" target="_top">
<path fill="#fff" stroke="#666" d="M342-256H197v32h145z"/>
<text x="205" y="-243.2" font-family="Consolas" font-size="11">Material/Material1D</text>
<text x="269.5" y="-231.2" font-family="Consolas" font-size="11" text-anchor="middle">/Material1D.h</text>
</a></g><g id="edge2_Node000002_Node000003" class="edge"><title>Node2-&gt;Node3</title><a id="a_edge2_Node000002_Node000003">
<path fill="none" stroke="#63b8ff" d="M340.74-291.89c-11.12 7.95-27.69 19.78-42.04 30.03"/>
<path fill="#63b8ff" stroke="#63b8ff" d="m300.73-259.01-10.17 2.97 6.1-8.66z"/>
</a></g><g id="Node000014" class="node"><title>Node14</title><a xlink:href="../../d6/d99/_expression_8h.html" id="a_Node000014" target="_top">
<path fill="#fff" stroke="#666" d="M512.5-250h-152v20h152z"/>
<text x="436.5" y="-237.2" font-family="Consolas" font-size="11" text-anchor="middle">Toolbox/Expression.h</text>
</a></g><g id="edge13_Node000002_Node000014" class="edge"><title>Node2-&gt;Node14</title><a id="a_edge13_Node000002_Node000014">
<path fill="none" stroke="#63b8ff" d="M366.11-291.89c13.11 9.48 33.87 24.49 49.46 35.76"/>
<path fill="#63b8ff" stroke="#63b8ff" d="m417.99-258.7 6.06 8.7-10.16-3.02z"/>
</a></g><g id="Node000016" class="node"><title>Node16</title><a xlink:href="../../d4/da0/_resource_holder_8h.html" id="a_Node000016" target="_top">
<path fill="#fff" stroke="#666" d="M179-250H0v20h179z"/>
<text x="89.5" y="-237.2" font-family="Consolas" font-size="11" text-anchor="middle">Toolbox/ResourceHolder.h</text>
</a></g><g id="edge16_Node000002_Node000016" class="edge"><title>Node2-&gt;Node16</title><a id="a_edge16_Node000002_Node000016">
<path fill="none" stroke="#63b8ff" d="M313.69-291.95c-46.63 10.59-123.91 28.16-174.44 39.64"/>
<path fill="#63b8ff" stroke="#63b8ff" d="m139.73-248.83-10.53-1.19 8.98-5.63z"/>
</a></g><g id="Node000004" class="node"><title>Node4</title><a xlink:href="../../d3/d09/_material_8h.html" id="a_Node000004" target="_top">
<path fill="#fff" stroke="#666" d="M263-188H118v20h145z"/>
<text x="190.5" y="-175.2" font-family="Consolas" font-size="11" text-anchor="middle">Material/Material.h</text>
</a></g><g id="edge3_Node000003_Node000004" class="edge"><title>Node3-&gt;Node4</title><a id="a_edge3_Node000003_Node000004">
<path fill="none" stroke="#63b8ff" d="M249.56-223.86c-11.91 9.05-27.01 20.52-38.96 29.59"/>
<path fill="#63b8ff" stroke="#63b8ff" d="m212.63-191.41-10.08 3.26 5.85-8.84z"/>
</a></g><g id="Node000005" class="node"><title>Node5</title><a xlink:href="../../d2/d4a/_tag_8h.html" id="a_Node000005" target="_top">
<path fill="#fff" stroke="#666" d="M478.5-132h-98v20h98z"/>
<text x="429.5" y="-119.2" font-family="Consolas" font-size="11" text-anchor="middle">Domain/Tag.h</text>
</a></g><g id="edge4_Node000004_Node000005" class="edge"><title>Node4-&gt;Node5</title><a id="a_edge4_Node000004_Node000005">
<path fill="none" stroke="#63b8ff" d="M230.5-167.96c40.93 9.25 104.63 23.64 148.9 33.64"/>
<path fill="#63b8ff" stroke="#63b8ff" d="m380.38-137.69 8.99 5.62-10.53 1.21z"/>
</a></g><g id="Node000013" class="node"><title>Node13</title><a id="a_Node000013">
<path fill="#e0e0e0" stroke="#999" d="M215.5-132h-50v20h50z"/>
<text x="190.5" y="-119.2" font-family="Consolas" font-size="11" text-anchor="middle">array</text>
</a></g><g id="edge12_Node000004_Node000013" class="edge"><title>Node4-&gt;Node13</title><a id="a_edge12_Node000004_Node000013">
<path fill="none" stroke="#63b8ff" d="M190.5-167.59v25.02"/>
<path fill="#63b8ff" stroke="#63b8ff" d="m194-142.3-3.5 10-3.5-10z"/>
</a></g><g id="Node000006" class="node"><title>Node6</title><a xlink:href="../../d8/d8f/suan_pan_8h.html" id="a_Node000006" target="_top">
<path fill="#fff" stroke="#666" d="M460-76h-77v20h77z"/>
<text x="421.5" y="-63.2" font-family="Consolas" font-size="11" text-anchor="middle">suanPan.h</text>
</a></g><g id="edge5_Node000005_Node000006" class="edge"><title>Node5-&gt;Node6</title><a id="a_edge5_Node000005_Node000006">
<path fill="none" stroke="#63b8ff" d="M428.11-111.59c-1.04 6.96-2.48 16.7-3.75 25.3"/>
<path fill="#63b8ff" stroke="#63b8ff" d="m427.81-85.68-4.93 9.38-2-10.4z"/>
</a></g><g id="Node000007" class="node"><title>Node7</title><a id="a_Node000007">
<path fill="#e0e0e0" stroke="#999" d="M625-20h-71V0h71z"/>
<text x="589.5" y="-7.2" font-family="Consolas" font-size="11" text-anchor="middle">iostream</text>
</a></g><g id="edge6_Node000006_Node000007" class="edge"><title>Node6-&gt;Node7</title><a id="a_edge6_Node000006_Node000007">
<path fill="none" stroke="#63b8ff" d="M449.62-55.96c27.98 8.99 71.11 22.85 102.08 32.81"/>
<path fill="#63b8ff" stroke="#63b8ff" d="m552.84-26.46 8.45 6.39-10.59.27z"/>
</a></g><g id="Node000008" class="node"><title>Node8</title><a id="a_Node000008">
<path fill="#e0e0e0" stroke="#999" d="M255-20H144V0h111z"/>
<text x="199.5" y="-7.2" font-family="Consolas" font-size="11" text-anchor="middle">armadillo/arma</text>
</a></g><g id="edge7_Node000006_Node000008" class="edge"><title>Node6-&gt;Node8</title><a id="a_edge7_Node000006_Node000008">
<path fill="none" stroke="#63b8ff" d="M384.34-55.96c-37.86 9.21-96.69 23.52-137.78 33.51"/>
<path fill="#63b8ff" stroke="#63b8ff" d="m247.32-19.03-10.54-1.04 8.89-5.76z"/>
</a></g><g id="Node000009" class="node"><title>Node9</title><a id="a_Node000009">
<path fill="#e0e0e0" stroke="#999" d="M357.5-20h-84V0h84z"/>
<text x="315.5" y="-7.2" font-family="Consolas" font-size="11" text-anchor="middle">filesystem</text>
</a></g><g id="edge8_Node000006_Node000009" class="edge"><title>Node6-&gt;Node9</title><a id="a_edge8_Node000006_Node000009">
<path fill="none" stroke="#63b8ff" d="M403.52-55.84c-16.78 8.55-42.03 21.41-61.18 31.17"/>
<path fill="#63b8ff" stroke="#63b8ff" d="m343.72-21.45-10.5 1.42 7.32-7.65z"/>
</a></g><g id="Node000010" class="node"><title>Node10</title><a id="a_Node000010">
<path fill="#e0e0e0" stroke="#999" d="M467-20h-91V0h91z"/>
<text x="421.5" y="-7.2" font-family="Consolas" font-size="11" text-anchor="middle">fmt/color.h</text>
</a></g><g id="edge9_Node000006_Node000010" class="edge"><title>Node6-&gt;Node10</title><a id="a_edge9_Node000006_Node000010">
<path fill="none" stroke="#63b8ff" d="M421.5-55.59v25.02"/>
<path fill="#63b8ff" stroke="#63b8ff" d="m425-30.3-3.5 10-3.5-10z"/>
</a></g><g id="Node000011" class="node"><title>Node11</title><a id="a_Node000011">
<path fill="#e0e0e0" stroke="#999" d="M535.5-20h-50V0h50z"/>
<text x="510.5" y="-7.2" font-family="Consolas" font-size="11" text-anchor="middle">mutex</text>
</a></g><g id="edge10_Node000006_Node000011" class="edge"><title>Node6-&gt;Node11</title><a id="a_edge10_Node000006_Node000011">
<path fill="none" stroke="#63b8ff" d="M436.6-55.84c13.76 8.35 34.32 20.82 50.26 30.5"/>
<path fill="#63b8ff" stroke="#63b8ff" d="m488.89-28.2 6.74 8.17-10.37-2.19z"/>
</a></g><g id="Node000012" class="node"><title>Node12</title><a id="a_Node000012">
<path fill="#e0e0e0" stroke="#999" d="M123-20H66V0h57z"/>
<text x="94.5" y="-7.2" font-family="Consolas" font-size="11" text-anchor="middle">memory</text>
</a></g><g id="edge11_Node000006_Node000012" class="edge"><title>Node6-&gt;Node12</title><a id="a_edge11_Node000006_Node000012">
<path fill="none" stroke="#63b8ff" d="M382.83-59.76C327.58-52.09 222.93-36.86 134.5-20c-.45.09-.91.17-1.37.26"/>
<path fill="#63b8ff" stroke="#63b8ff" d="m133.79-16.3-10.5-1.42 9.09-5.44z"/>
</a></g><g id="edge14_Node000014_Node000005" class="edge"><title>Node14-&gt;Node5</title><a id="a_edge14_Node000014_Node000005">
<path fill="none" stroke="#63b8ff" d="M435.95-229.9c-1.13 18.81-3.76 62.3-5.29 87.63"/>
<path fill="#63b8ff" stroke="#63b8ff" d="m434.14-141.83-4.09 9.77-2.89-10.19z"/>
</a></g><g id="Node000015" class="node"><title>Node15</title><a id="a_Node000015">
<path fill="#e0e0e0" stroke="#999" d="M412-188H281v20h131z"/>
<text x="346.5" y="-175.2" font-family="Consolas" font-size="11" text-anchor="middle">exprtk/exprtk.hpp</text>
</a></g><g id="edge15_Node000014_Node000015" class="edge"><title>Node14-&gt;Node15</title><a id="a_edge15_Node000014_Node000015">
<path fill="none" stroke="#63b8ff" d="M422.83-229.89c-14.35 9.57-37.16 24.77-54.1 36.07"/>
<path fill="#63b8ff" stroke="#63b8ff" d="M370.26-190.64 360-188l6.38-8.46z"/>
</a></g><g id="edge17_Node000016_Node000012" class="edge"><title>Node16-&gt;Node12</title><a id="a_edge17_Node000016_Node000012">
<path fill="none" stroke="#63b8ff" d="M89.7-229.78c.75 34.02 3.36 152.93 4.38 199.69"/>
<path fill="#63b8ff" stroke="#63b8ff" d="M97.58-30.16 94.3-20.09l-3.72-9.92z"/>
</a></g><g id="edge19_Node000017_Node000005" class="edge"><title>Node17-&gt;Node5</title><a id="a_edge19_Node000017_Node000005">
<path fill="none" stroke="#63b8ff" d="m522.75-167.96-65.32 31.49"/>
<path fill="#63b8ff" stroke="#63b8ff" d="m458.84-133.26-10.53 1.19 7.49-7.49z"/>
</a></g><g id="Node000018" class="node"><title>Node18</title><a xlink:href="../../d4/ddd/container_8h.html" id="a_Node000018" target="_top">
<path fill="#fff" stroke="#666" d="M725-132H580v20h145z"/>
<text x="652.5" y="-119.2" font-family="Consolas" font-size="11" text-anchor="middle">Toolbox/container.h</text>
</a></g><g id="edge20_Node000017_Node000018" class="edge"><title>Node17-&gt;Node18</title><a id="a_edge20_Node000017_Node000018">
<path fill="none" stroke="#63b8ff" d="M560.08-167.96c17.69 8.6 44.53 21.66 64.74 31.49"/>
<path fill="#63b8ff" stroke="#63b8ff" d="m626.4-139.59 7.46 7.52-10.52-1.23z"/>
</a></g><g id="Node000023" class="node"><title>Node23</title><a id="a_Node000023">
<path fill="#e0e0e0" stroke="#999" d="M562-132h-57v20h57z"/>
<text x="533.5" y="-119.2" font-family="Consolas" font-size="11" text-anchor="middle">future</text>
</a></g><g id="edge26_Node000017_Node000023" class="edge"><title>Node17-&gt;Node23</title><a id="a_edge26_Node000017_Node000023">
<path fill="none" stroke="#63b8ff" d="M540.11-167.59c-1.04 6.96-2.48 16.7-3.75 25.3"/>
<path fill="#63b8ff" stroke="#63b8ff" d="m539.81-141.68-4.93 9.38-2-10.4z"/>
</a></g><g id="edge21_Node000018_Node000006" class="edge"><title>Node18-&gt;Node6</title><a id="a_edge21_Node000018_Node000006">
<path fill="none" stroke="#63b8ff" d="M613.84-111.96c-39.48 9.23-100.87 23.58-143.64 33.58"/>
<path fill="#63b8ff" stroke="#63b8ff" d="m470.82-74.94-10.53-1.13 8.94-5.68z"/>
</a></g><g id="Node000019" class="node"><title>Node19</title><a id="a_Node000019">
<path fill="#e0e0e0" stroke="#999" d="M760-76h-37v20h37z"/>
<text x="741.5" y="-63.2" font-family="Consolas" font-size="11" text-anchor="middle">map</text>
</a></g><g id="edge22_Node000018_Node000019" class="edge"><title>Node18-&gt;Node19</title><a id="a_edge22_Node000018_Node000019">
<path fill="none" stroke="#63b8ff" d="M667.6-111.84c13.76 8.35 34.32 20.82 50.26 30.5"/>
<path fill="#63b8ff" stroke="#63b8ff" d="m719.89-84.2 6.74 8.17-10.37-2.19z"/>
</a></g><g id="Node000020" class="node"><title>Node20</title><a id="a_Node000020">
<path fill="#e0e0e0" stroke="#999" d="M815-76h-37v20h37z"/>
<text x="796.5" y="-63.2" font-family="Consolas" font-size="11" text-anchor="middle">set</text>
</a></g><g id="edge23_Node000018_Node000020" class="edge"><title>Node18-&gt;Node20</title><a id="a_edge23_Node000018_Node000020">
<path fill="none" stroke="#63b8ff" d="m676.6-111.96 91.68 34.38"/>
<path fill="#63b8ff" stroke="#63b8ff" d="m769.69-80.79 8.14 6.79-10.59-.24z"/>
</a></g><g id="Node000021" class="node"><title>Node21</title><a id="a_Node000021">
<path fill="#e0e0e0" stroke="#999" d="M582.5-76h-104v20h104z"/>
<text x="530.5" y="-63.2" font-family="Consolas" font-size="11" text-anchor="middle">unordered_map</text>
</a></g><g id="edge24_Node000018_Node000021" class="edge"><title>Node18-&gt;Node21</title><a id="a_edge24_Node000018_Node000021">
<path fill="none" stroke="#63b8ff" d="M632.08-111.96c-19.62 8.68-49.48 21.9-71.76 31.76"/>
<path fill="#63b8ff" stroke="#63b8ff" d="m561.55-76.91-10.56.84 7.72-7.25z"/>
</a></g><g id="Node000022" class="node"><title>Node22</title><a id="a_Node000022">
<path fill="#e0e0e0" stroke="#999" d="M704.5-76h-104v20h104z"/>
<text x="652.5" y="-63.2" font-family="Consolas" font-size="11" text-anchor="middle">unordered_set</text>
</a></g><g id="edge25_Node000018_Node000022" class="edge"><title>Node18-&gt;Node22</title><a id="a_edge25_Node000018_Node000022">
<path fill="none" stroke="#63b8ff" d="M652.5-111.59v25.02"/>
<path fill="#63b8ff" stroke="#63b8ff" d="m656-86.3-3.5 10-3.5-10z"/>
</a></g></g></svg><g id="navigator" fill="#404254"><path fill="#f2f5e9" fill-opacity=".5" stroke="#606060" stroke-width=".5" d="M0 0h60v60H0z"/><use xlink:href="#zoomPlus" id="zoomplus" x="17" y="9" onmousedown="handleZoom(evt,'in')"/><use xlink:href="#zoomMin" id="zoomminus" x="42" y="9" onmousedown="handleZoom(evt,'out')"/><use xlink:href="#resetDef" id="reset" x="30" y="36" onmousedown="handleReset()"/><use xlink:href="#arrowUp" id="arrowup" x="0" y="0" onmousedown="handlePan(0,-1)"/><use xlink:href="#arrowRight" id="arrowright" x="0" y="0" onmousedown="handlePan(1,0)"/><use xlink:href="#arrowDown" id="arrowdown" x="0" y="0" onmousedown="handlePan(0,1)"/><use xlink:href="#arrowLeft" id="arrowleft" x="0" y="0" onmousedown="handlePan(-1,0)"/></g><svg height="30" preserveAspectRatio="xMaxYMin meet" viewBox="0 0 15 15"><a xlink:href="_custom_elastic1_d_8cpp__incl_org.svg" id="arrow_out" target="_base" transform="scale(.3)">
   <rect id="button" width="38" height="38" x="6" y="6" fill="#f2f5e9" fill-opacity=".5" stroke="#606060" stroke-width="1" rx="5" ry="5"/>
   <path id="arrow" d="M11.5 31.437c.44-11.34 10.543-20.114 20.659-9.458l4.91-4.733.02 14.754-14.929-.022 4.838-4.838c-8.47-8.876-13.706-1.91-15.498 4.297" style="fill:#404040"/>
  </a></svg><script type="application/ecmascript"><![CDATA[
document.addEventListener('DOMContentLoaded', (event) => {
  highlightEdges();
  highlightAdjacentNodes();
});
]]></script></svg>