<?xml version="1.0" encoding="UTF-8" standalone="no"?>
<!DOCTYPE svg PUBLIC "-//W3C//DTD SVG 1.1//EN"
 "http://www.w3.org/Graphics/SVG/1.1/DTD/svg11.dtd">
<!-- Generated by graphviz version 2.43.0 (0)
 -->
<!-- Title: Domain::disable_recorder Pages: 1 -->
<svg width="488pt" height="104pt"
 viewBox="0.00 0.00 488.00 104.00" xmlns="http://www.w3.org/2000/svg" xmlns:xlink="http://www.w3.org/1999/xlink">

<svg id="main" version="1.1" xmlns="http://www.w3.org/2000/svg" xmlns:xlink="http://www.w3.org/1999/xlink" xml:space="preserve" onload="init(evt)">
<style type="text/css"><![CDATA[
.node, .edge {opacity: 0.7;}
.node.selected, .edge.selected {opacity: 1;}
.edge:hover path { stroke: red; }
.edge:hover polygon { stroke: red; fill: red; }
]]></style>
<script type="application/ecmascript" xlink:href="../../svg.min.js"/>
<svg id="graph" class="graph">
<g id="graph0" class="graph" transform="scale(1 1) rotate(0) translate(4 100)">
<title>Domain::disable_recorder</title>
<!-- Node1 -->
<g id="Node000001" class="node">
<title>Node1</title>
<g id="a_Node000001"><a xlink:title=" ">
<polygon fill="#999999" stroke="#666666" points="179,-58 0,-58 0,-38 179,-38 179,-58"/>
<text text-anchor="middle" x="89.5" y="-45.2" font-family="Consolas" font-size="11.00">Domain::disable_recorder</text>
</a>
</g>
</g>
<!-- Node2 -->
<g id="Node000002" class="node">
<title>Node2</title>
<g id="a_Node000002"><a xlink:href="../../da/d56/class_storage.html#a943b002d5726416b145f33701c7db86d" target="_top" xlink:title=" ">
<polygon fill="white" stroke="#666666" points="340,-96 215,-96 215,-76 340,-76 340,-96"/>
<text text-anchor="middle" x="277.5" y="-83.2" font-family="Consolas" font-size="11.00">Storage::disable</text>
</a>
</g>
</g>
<!-- Node1&#45;&gt;Node2 -->
<g id="edge1_Node000001_Node000002" class="edge">
<title>Node1&#45;&gt;Node2</title>
<g id="a_edge1_Node000001_Node000002"><a xlink:title=" ">
<path fill="none" stroke="#63b8ff" d="M139.86,-58.08C163.6,-62.93 192.25,-68.79 217.17,-73.88"/>
<polygon fill="#63b8ff" stroke="#63b8ff" points="216.74,-77.36 227.24,-75.94 218.14,-70.5 216.74,-77.36"/>
</a>
</g>
</g>
<!-- Node4 -->
<g id="Node000004" class="node">
<title>Node4</title>
<g id="a_Node000004"><a xlink:href="../../d0/d57/class_tag.html#aeef9db4fab02b36358265f378e703986" target="_top" xlink:title=" ">
<polygon fill="white" stroke="#666666" points="333,-58 222,-58 222,-38 333,-38 333,-58"/>
<text text-anchor="middle" x="277.5" y="-45.2" font-family="Consolas" font-size="11.00">Tag::is_active</text>
</a>
</g>
</g>
<!-- Node1&#45;&gt;Node4 -->
<g id="edge3_Node000001_Node000004" class="edge">
<title>Node1&#45;&gt;Node4</title>
<g id="a_edge3_Node000001_Node000004"><a xlink:title=" ">
<path fill="none" stroke="#63b8ff" d="M179.14,-48C190.09,-48 201.12,-48 211.62,-48"/>
<polygon fill="#63b8ff" stroke="#63b8ff" points="211.92,-51.5 221.92,-48 211.92,-44.5 211.92,-51.5"/>
</a>
</g>
</g>
<!-- Node5 -->
<g id="Node000005" class="node">
<title>Node5</title>
<g id="a_Node000005"><a xlink:href="../../d0/d57/class_tag.html#aecfb9f3c57796fc9474661db66f2c15b" target="_top" xlink:title=" ">
<polygon fill="white" stroke="#666666" points="336.5,-20 218.5,-20 218.5,0 336.5,0 336.5,-20"/>
<text text-anchor="middle" x="277.5" y="-7.2" font-family="Consolas" font-size="11.00">Tag::is_guarded</text>
</a>
</g>
</g>
<!-- Node1&#45;&gt;Node5 -->
<g id="edge4_Node000001_Node000005" class="edge">
<title>Node1&#45;&gt;Node5</title>
<g id="a_edge4_Node000001_Node000005"><a xlink:title=" ">
<path fill="none" stroke="#63b8ff" d="M139.86,-37.92C163.6,-33.07 192.25,-27.21 217.17,-22.12"/>
<polygon fill="#63b8ff" stroke="#63b8ff" points="218.14,-25.5 227.24,-20.06 216.74,-18.64 218.14,-25.5"/>
</a>
</g>
</g>
<!-- Node3 -->
<g id="Node000003" class="node">
<title>Node3</title>
<g id="a_Node000003"><a xlink:href="../../da/d56/class_storage.html#a0c06f55c3c192fa18e8e0d6465fa078d" target="_top" xlink:title=" ">
<polygon fill="white" stroke="#666666" points="480,-96 376,-96 376,-76 480,-76 480,-96"/>
<text text-anchor="middle" x="428" y="-83.2" font-family="Consolas" font-size="11.00">Storage::find</text>
</a>
</g>
</g>
<!-- Node2&#45;&gt;Node3 -->
<g id="edge2_Node000002_Node000003" class="edge">
<title>Node2&#45;&gt;Node3</title>
<g id="a_edge2_Node000002_Node000003"><a xlink:title=" ">
<path fill="none" stroke="#63b8ff" d="M340.19,-86C348.57,-86 357.18,-86 365.56,-86"/>
<polygon fill="#63b8ff" stroke="#63b8ff" points="365.64,-89.5 375.64,-86 365.64,-82.5 365.64,-89.5"/>
</a>
</g>
</g>
</g>
</svg>
</svg>

<style type='text/css'>
<![CDATA[
[data-mouse-over-selected='false'] { opacity: 0.7; }
[data-mouse-over-selected='true']  { opacity: 1.0; }
]]>
</style>
<script type="application/ecmascript"><![CDATA[
document.addEventListener('DOMContentLoaded', (event) => {
  highlightEdges();
  highlightAdjacentNodes();
});
]]></script>
</svg>
