<?xml version="1.0" encoding="UTF-8" standalone="no"?>
<!DOCTYPE svg PUBLIC "-//W3C//DTD SVG 1.1//EN"
 "http://www.w3.org/Graphics/SVG/1.1/DTD/svg11.dtd">
<!-- Generated by graphviz version 2.43.0 (0)
 -->
<!-- Title: Domain::assemble_current_mass Pages: 1 -->
<svg width="387pt" height="104pt"
 viewBox="0.00 0.00 387.00 104.00" xmlns="http://www.w3.org/2000/svg" xmlns:xlink="http://www.w3.org/1999/xlink">

<svg id="main" version="1.1" xmlns="http://www.w3.org/2000/svg" xmlns:xlink="http://www.w3.org/1999/xlink" xml:space="preserve" onload="init(evt)">
<style type="text/css"><![CDATA[
.node, .edge {opacity: 0.7;}
.node.selected, .edge.selected {opacity: 1;}
.edge:hover path { stroke: red; }
.edge:hover polygon { stroke: red; fill: red; }
]]></style>
<script type="application/ecmascript" xlink:href="../../svg.min.js"/>
<svg id="graph" class="graph">
<g id="graph0" class="graph" transform="scale(1 1) rotate(0) translate(4 100)">
<title>Domain::assemble_current_mass</title>
<!-- Node1 -->
<g id="Node000001" class="node">
<title>Node1</title>
<g id="a_Node000001"><a xlink:title=" ">
<polygon fill="#999999" stroke="#666666" points="212,-58 0,-58 0,-38 212,-38 212,-58"/>
<text text-anchor="middle" x="106" y="-45.2" font-family="Consolas" font-size="11.00">Domain::assemble_current_mass</text>
</a>
</g>
</g>
<!-- Node2 -->
<g id="Node000002" class="node">
<title>Node2</title>
<g id="a_Node000002"><a xlink:href="../../d6/d9c/namespacesuanpan.html#aa1669cccf4ae25bba56893faf349be0e" target="_top" xlink:title=" ">
<polygon fill="white" stroke="#666666" points="376,-96 251,-96 251,-76 376,-76 376,-96"/>
<text text-anchor="middle" x="313.5" y="-83.2" font-family="Consolas" font-size="11.00">suanpan::for_all</text>
</a>
</g>
</g>
<!-- Node1&#45;&gt;Node2 -->
<g id="edge1_Node000001_Node000002" class="edge">
<title>Node1&#45;&gt;Node2</title>
<g id="a_edge1_Node000001_Node000002"><a xlink:title=" ">
<path fill="none" stroke="#63b8ff" d="M161.26,-58.03C187.95,-62.97 220.3,-68.95 248.22,-74.11"/>
<polygon fill="#63b8ff" stroke="#63b8ff" points="247.82,-77.6 258.29,-75.98 249.09,-70.72 247.82,-77.6"/>
</a>
</g>
</g>
<!-- Node3 -->
<g id="Node000003" class="node">
<title>Node3</title>
<g id="a_Node000003"><a xlink:href="../../da/d56/class_storage.html#aaea6dbc46854eaf228e053459c79743d" target="_top" xlink:title=" ">
<polygon fill="white" stroke="#666666" points="362.5,-58 264.5,-58 264.5,-38 362.5,-38 362.5,-58"/>
<text text-anchor="middle" x="313.5" y="-45.2" font-family="Consolas" font-size="11.00">Storage::get</text>
</a>
</g>
</g>
<!-- Node1&#45;&gt;Node3 -->
<g id="edge2_Node000001_Node000003" class="edge">
<title>Node1&#45;&gt;Node3</title>
<g id="a_edge2_Node000001_Node000003"><a xlink:title=" ">
<path fill="none" stroke="#63b8ff" d="M212.16,-48C226.57,-48 240.93,-48 254.08,-48"/>
<polygon fill="#63b8ff" stroke="#63b8ff" points="254.35,-51.5 264.35,-48 254.35,-44.5 254.35,-51.5"/>
</a>
</g>
</g>
<!-- Node4 -->
<g id="Node000004" class="node">
<title>Node4</title>
<g id="a_Node000004"><a xlink:href="../../d4/df4/class_domain.html#a2038a76119565ef7356e2c4250a6afb6" target="_top" xlink:title=" ">
<polygon fill="white" stroke="#666666" points="379,-20 248,-20 248,0 379,0 379,-20"/>
<text text-anchor="middle" x="313.5" y="-7.2" font-family="Consolas" font-size="11.00">Domain::is_sparse</text>
</a>
</g>
</g>
<!-- Node1&#45;&gt;Node4 -->
<g id="edge3_Node000001_Node000004" class="edge">
<title>Node1&#45;&gt;Node4</title>
<g id="a_edge3_Node000001_Node000004"><a xlink:title=" ">
<path fill="none" stroke="#63b8ff" d="M161.26,-37.97C187.95,-33.03 220.3,-27.05 248.22,-21.89"/>
<polygon fill="#63b8ff" stroke="#63b8ff" points="249.09,-25.28 258.29,-20.02 247.82,-18.4 249.09,-25.28"/>
</a>
</g>
</g>
</g>
</svg>
</svg>

<style type='text/css'>
<![CDATA[
[data-mouse-over-selected='false'] { opacity: 0.7; }
[data-mouse-over-selected='true']  { opacity: 1.0; }
]]>
</style>
<script type="application/ecmascript"><![CDATA[
document.addEventListener('DOMContentLoaded', (event) => {
  highlightEdges();
  highlightAdjacentNodes();
});
]]></script>
</svg>
