<svg xmlns="http://www.w3.org/2000/svg" xmlns:xlink="http://www.w3.org/1999/xlink" width="740" height="104" viewBox="0 0 555 78"><g class="graph" transform="translate(4 74)"><title>BatheTwoStep::update_incre_time</title><g class="node"><title>Node1</title><a>
<path fill="#999" stroke="#666" d="M152-54H0v32h152z"/>
<text x="8" y="-41.2" font-family="Consolas" font-size="11">BatheTwoStep::update</text>
<text x="76" y="-29.2" font-family="Consolas" font-size="11" text-anchor="middle">_incre_time</text>
</a></g><g class="node"><title>Node2</title><a xlink:href="../../d6/d55/class_integrator.html#a9a18b162e89034cc0ee5efb3b19ca5dc" target="_top">
<path fill="#fff" stroke="#666" d="M353-70H188v20h165z"/>
<text x="270.5" y="-57.2" font-family="Consolas" font-size="11" text-anchor="middle">Integrator::get_domain</text>
</a></g><g class="edge"><title>Node1-&gt;Node2</title><a>
<path fill="none" stroke="#63b8ff" d="M152.25-46.6c8.42-.96 17.05-1.95 25.64-2.93"/>
<path fill="#63b8ff" stroke="#63b8ff" d="m177.6-53.02 10.34 2.34-9.54 4.61z"/>
</a></g><g class="node"><title>Node3</title><a xlink:href="../../d9/dd7/class_bathe_two_step.html#a71625f3b963d09f7a80cf6a074c33cc7" target="_top">
<path fill="#fff" stroke="#666" d="M346.5-32h-152V0h152z"/>
<text x="202.5" y="-19.2" font-family="Consolas" font-size="11">BatheTwoStep::update</text>
<text x="270.5" y="-7.2" font-family="Consolas" font-size="11" text-anchor="middle">_parameter</text>
</a></g><g class="edge"><title>Node1-&gt;Node3</title><a>
<path fill="none" stroke="#63b8ff" d="M152.25-29.4c10.47 1.2 21.29 2.43 31.92 3.65"/>
<path fill="#63b8ff" stroke="#63b8ff" d="m184.76-29.21 9.54 4.62-10.33 2.34z"/>
</a></g><g class="node"><title>Node4</title><a xlink:href="../../d6/d9c/namespacesuanpan.html#a5c9b8b62ec67a7ee99000253887bb703" target="_top">
<path fill="#fff" stroke="#666" d="M547-26H389v20h158z"/>
<text x="468" y="-13.2" font-family="Consolas" font-size="11" text-anchor="middle">suanpan::approx_equal</text>
</a></g><g class="edge"><title>Node3-&gt;Node4</title><a>
<path fill="none" stroke="#63b8ff" d="M346.53-16h32.17"/>
<path fill="#63b8ff" stroke="#63b8ff" d="m378.93-19.5 10 3.5-10 3.5z"/>
</a></g></g></svg>