<svg xmlns="http://www.w3.org/2000/svg" xmlns:xlink="http://www.w3.org/1999/xlink" xml:space="preserve" id="main" onload="init(evt)"><style>.edge,.node,[data-mouse-over-selected=false]{opacity:.7}.edge.selected,.node.selected,[data-mouse-over-selected=true]{opacity:1}.edge:hover path{stroke:red}.edge:hover polygon{stroke:red;fill:red}</style><defs><g id="zoomPlus"><use xlink:href="#rim" fill="#404040"><set attributeName="fill" begin="zoomplus.mouseover" end="zoomplus.mouseout" to="#808080"/></use><path fill="none" stroke="#fff" stroke-width="1.5" d="M-4 0h8M0-4v8" pointer-events="none"/></g><g id="zoomMin"><use xlink:href="#rim" fill="#404040"><set attributeName="fill" begin="zoomminus.mouseover" end="zoomminus.mouseout" to="#808080"/></use><path fill="none" stroke="#fff" stroke-width="1.5" d="M-4 0h8" pointer-events="none"/></g><g id="arrowUp" transform="translate(30 24)"><use xlink:href="#rim"/><path fill="none" stroke="#fff" stroke-width="1.5" d="M0-3v7M-2.5-.5 0-3 2.5-.5" pointer-events="none"/></g><g id="arrowRight" transform="rotate(90 3.5 39.5)"><use xlink:href="#rim"/><path fill="none" stroke="#fff" stroke-width="1.5" d="M0-3v7M-2.5-.5 0-3 2.5-.5" pointer-events="none"/></g><g id="arrowDown" transform="matrix(-1 0 0 -1 30 48)"><use xlink:href="#rim"/><path fill="none" stroke="#fff" stroke-width="1.5" d="M0-3v7M-2.5-.5 0-3 2.5-.5" pointer-events="none"/></g><g id="arrowLeft" transform="rotate(-90 26.5 9.5)"><use xlink:href="#rim"/><path fill="none" stroke="#fff" stroke-width="1.5" d="M0-3v7M-2.5-.5 0-3 2.5-.5" pointer-events="none"/></g><circle id="rim" cx="0" cy="0" r="7"/><circle id="rim2" cx="0" cy="0" r="3.5"/><use xlink:href="#rim2" id="resetDef" fill="#404040"><set attributeName="fill" begin="reset.mouseover" end="reset.mouseout" to="#808080"/></use></defs><script type="application/ecmascript">var viewWidth = 709;
var viewHeight = 100;
var sectionId = &apos;dynsection-6&apos;;</script><script xlink:href="../../svg.min.js" type="application/ecmascript"/><svg id="graph" class="graph"><g id="viewport"><title>BatheTwoStep::from_incre_acceleration</title><g id="Node000001" class="node"><title>Node1</title><a id="a_Node000001">
<path fill="#999" stroke="#666" d="M145-32H0V0h145z"/>
<text x="8" y="-19.2" font-family="Consolas" font-size="11">BatheTwoStep::from</text>
<text x="72.5" y="-7.2" font-family="Consolas" font-size="11" text-anchor="middle">_incre_acceleration</text>
</a></g><g id="Node000002" class="node"><title>Node2</title><a xlink:href="../../d9/dd7/class_bathe_two_step.html#a4ab762d05195062ea8f634eb437c5f6b" id="a_Node000002" target="_top">
<path fill="#fff" stroke="#666" d="M326-54H181v32h145z"/>
<text x="189" y="-41.2" font-family="Consolas" font-size="11">BatheTwoStep::from</text>
<text x="253.5" y="-29.2" font-family="Consolas" font-size="11" text-anchor="middle">_total_acceleration</text>
</a></g><g id="edge1_Node000001_Node000002" class="edge"><title>Node1-&gt;Node2</title><a id="a_edge1_Node000001_Node000002">
<path fill="none" stroke="#63b8ff" d="M145.02-24.79c8.47-1.04 17.16-2.11 25.76-3.17"/>
<path fill="#63b8ff" stroke="#63b8ff" d="m170.45-31.44 10.35 2.25-9.49 4.7z"/>
</a></g><g id="Node000004" class="node"><title>Node4</title><a xlink:href="../../d6/d55/class_integrator.html#a9a18b162e89034cc0ee5efb3b19ca5dc" id="a_Node000004" target="_top">
<path fill="#fff" stroke="#666" d="M701-42H536v20h165z"/>
<text x="618.5" y="-29.2" font-family="Consolas" font-size="11" text-anchor="middle">Integrator::get_domain</text>
</a></g><g id="edge5_Node000001_Node000004" class="edge"><title>Node1-&gt;Node4</title><a id="a_edge5_Node000001_Node000004">
<path fill="none" stroke="#63b8ff" d="M145.2-13.72c11.95.3 24.23.56 35.8.72 64.44.9 80.59 2.1 145 0 66.94-2.18 142.4-7.17 199.77-11.49"/>
<path fill="#63b8ff" stroke="#63b8ff" d="m525.66-27.99 10.24 2.73-9.71 4.25z"/>
</a></g><g id="Node000003" class="node"><title>Node3</title><a xlink:href="../../d9/dd7/class_bathe_two_step.html#a955cd0bc6156f958528833ec23f02325" id="a_Node000003" target="_top">
<path fill="#fff" stroke="#666" d="M500-92H362v32h138z"/>
<text x="370" y="-79.2" font-family="Consolas" font-size="11">BatheTwoStep::from</text>
<text x="431" y="-67.2" font-family="Consolas" font-size="11" text-anchor="middle">_total_velocity</text>
</a></g><g id="edge2_Node000002_Node000003" class="edge"><title>Node2-&gt;Node3</title><a id="a_edge2_Node000002_Node000003">
<path fill="none" stroke="#63b8ff" d="M326.14-53.51c8.51-1.84 17.24-3.73 25.84-5.6"/>
<path fill="#63b8ff" stroke="#63b8ff" d="m351.48-62.58 10.51 1.31-9.03 5.53z"/>
</a></g><g id="edge4_Node000002_Node000004" class="edge"><title>Node2-&gt;Node4</title><a id="a_edge4_Node000002_Node000004">
<path fill="none" stroke="#63b8ff" d="M326.22-36.81c57.15.94 137.56 2.27 199.42 3.29"/>
<path fill="#63b8ff" stroke="#63b8ff" d="m525.85-37.02 9.95 3.67-10.06 3.33z"/>
</a></g><g id="edge3_Node000003_Node000004" class="edge"><title>Node3-&gt;Node4</title><a id="a_edge3_Node000003_Node000004">
<path fill="none" stroke="#63b8ff" d="M499.49-59.99c21.73 5.15 45.45 10.78 65.89 15.63"/>
<path fill="#63b8ff" stroke="#63b8ff" d="m566.21-47.76 8.92 5.71-10.54 1.1z"/>
</a></g></g></svg><g id="navigator" fill="#404254"><path fill="#f2f5e9" fill-opacity=".5" stroke="#606060" stroke-width=".5" d="M0 0h60v60H0z"/><use xlink:href="#zoomPlus" id="zoomplus" x="17" y="9" onmousedown="handleZoom(evt,'in')"/><use xlink:href="#zoomMin" id="zoomminus" x="42" y="9" onmousedown="handleZoom(evt,'out')"/><use xlink:href="#resetDef" id="reset" x="30" y="36" onmousedown="handleReset()"/><use xlink:href="#arrowUp" id="arrowup" x="0" y="0" onmousedown="handlePan(0,-1)"/><use xlink:href="#arrowRight" id="arrowright" x="0" y="0" onmousedown="handlePan(1,0)"/><use xlink:href="#arrowDown" id="arrowdown" x="0" y="0" onmousedown="handlePan(0,1)"/><use xlink:href="#arrowLeft" id="arrowleft" x="0" y="0" onmousedown="handlePan(-1,0)"/></g><svg height="30" preserveAspectRatio="xMaxYMin meet" viewBox="0 0 15 15"><a xlink:href="class_bathe_two_step_a3c2e4003a1abca56335249aa0690e500_cgraph_org.svg" id="arrow_out" target="_base" transform="scale(.3)">
   <rect id="button" width="38" height="38" x="6" y="6" fill="#f2f5e9" fill-opacity=".5" stroke="#606060" stroke-width="1" rx="5" ry="5"/>
   <path id="arrow" d="M11.5 31.437c.44-11.34 10.543-20.114 20.659-9.458l4.91-4.733.02 14.754-14.929-.022 4.838-4.838c-8.47-8.876-13.706-1.91-15.498 4.297" style="fill:#404040"/>
  </a></svg><script type="application/ecmascript"><![CDATA[
document.addEventListener('DOMContentLoaded', (event) => {
  highlightEdges();
  highlightAdjacentNodes();
});
]]></script></svg>