<svg xmlns="http://www.w3.org/2000/svg" xmlns:xlink="http://www.w3.org/1999/xlink" width="664" height="1084" viewBox="0 0 498 813"><g class="graph" transform="translate(4 809)"><title>NURBSSurface</title><g class="node"><title>Node1</title><a>
<path fill="#999" stroke="transparent" d="M380-160H178V0h202z"/>
<text x="238" y="-147.2" font-family="Consolas" font-size="11">NURBSSurface</text>
<text x="275.5" y="-131.2" font-family="Consolas" font-size="11"> </text>
<text x="182" y="-115.2" font-family="Consolas" font-size="11">+</text>
<text x="193" y="-115.2" font-family="Consolas" font-size="11">evaluate_point()</text>
<text x="182" y="-99.2" font-family="Consolas" font-size="11">+</text>
<text x="193" y="-99.2" font-family="Consolas" font-size="11">evaluate_point_derivative()</text>
<text x="182" y="-83.2" font-family="Consolas" font-size="11">+</text>
<text x="193" y="-83.2" font-family="Consolas" font-size="11">evaluate_shape_function()</text>
<text x="182" y="-67.2" font-family="Consolas" font-size="11">+</text>
<text x="193" y="-67.2" font-family="Consolas" font-size="11">evaluate_shape_function</text>
<text x="193" y="-55.2" font-family="Consolas" font-size="11">_derivative()</text>
<text x="182" y="-39.2" font-family="Consolas" font-size="11">+</text>
<text x="193" y="-39.2" font-family="Consolas" font-size="11">BSplineSurface()</text>
<text x="182" y="-23.2" font-family="Consolas" font-size="11">+</text>
<text x="193" y="-23.2" font-family="Consolas" font-size="11">BSplineSurface()</text>
<text x="182" y="-7.2" font-family="Consolas" font-size="11">+</text>
<text x="193" y="-7.2" font-family="Consolas" font-size="11">BSplineSurface()</text>
<path fill="#666" stroke="#666" d="M178-142h202z"/>
<path fill="#666" stroke="#666" d="M178-126h202z"/>
<path fill="none" stroke="#666" d="M178 0v-160h202V0z"/>
</a></g><g class="node"><title>Node2</title><a xlink:href="../../db/d57/class_b_spline_surface.html" target="_top">
<path fill="#fff" stroke="transparent" d="M272-421H104v224h168z"/>
<text x="140.5" y="-408.2" font-family="Consolas" font-size="11">BSplineSurface</text>
<text x="184.5" y="-392.2" font-family="Consolas" font-size="11"> </text>
<text x="108" y="-376.2" font-family="Consolas" font-size="11">+</text>
<text x="119" y="-376.2" font-family="Consolas" font-size="11">BSplineSurface()</text>
<text x="108" y="-360.2" font-family="Consolas" font-size="11">+</text>
<text x="119" y="-360.2" font-family="Consolas" font-size="11">BSplineSurface()</text>
<text x="108" y="-344.2" font-family="Consolas" font-size="11">+</text>
<text x="119" y="-344.2" font-family="Consolas" font-size="11">BSplineSurface()</text>
<text x="108" y="-328.2" font-family="Consolas" font-size="11">+</text>
<text x="119" y="-328.2" font-family="Consolas" font-size="11">operator=()</text>
<text x="108" y="-312.2" font-family="Consolas" font-size="11">+</text>
<text x="119" y="-312.2" font-family="Consolas" font-size="11">operator=()</text>
<text x="108" y="-296.2" font-family="Consolas" font-size="11">+</text>
<text x="119" y="-296.2" font-family="Consolas" font-size="11">~BSplineSurface()</text>
<text x="108" y="-280.2" font-family="Consolas" font-size="11">+</text>
<text x="119" y="-280.2" font-family="Consolas" font-size="11">set_control_polygon()</text>
<text x="108" y="-264.2" font-family="Consolas" font-size="11">+</text>
<text x="119" y="-264.2" font-family="Consolas" font-size="11">set_control_polygon()</text>
<text x="108" y="-248.2" font-family="Consolas" font-size="11">+</text>
<text x="119" y="-248.2" font-family="Consolas" font-size="11">get_all_element_span()</text>
<text x="108" y="-232.2" font-family="Consolas" font-size="11">+</text>
<text x="119" y="-232.2" font-family="Consolas" font-size="11">get_number_of_control</text>
<text x="119" y="-220.2" font-family="Consolas" font-size="11">_points()</text>
<text x="119" y="-204.2" font-family="Consolas" font-size="11">and 8 more...</text>
<path fill="#666" stroke="#666" d="M104-403h168z"/>
<path fill="#666" stroke="#666" d="M104-387h168z"/>
<path fill="none" stroke="#666" d="M104-197v-224h168v224z"/>
</a></g><g class="edge"><title>Node2-&gt;Node1</title><a>
<path fill="none" stroke="#63b8ff" d="M236.4-187.27c3.67 9.15 7.31 18.25 10.84 27.04"/>
<path fill="none" stroke="#63b8ff" d="m233.04-186.24-.47-10.59 6.97 7.98z"/>
</a></g><g class="node"><title>Node3</title><a>
<path fill="#fff" stroke="transparent" d="M291.5-805h-85v52h85z"/>
<text x="212" y="-792.2" font-family="Consolas" font-size="11">const uword</text>
<text x="246" y="-776.2" font-family="Consolas" font-size="11"> </text>
<text x="246" y="-760.2" font-family="Consolas" font-size="11"> </text>
<path fill="#666" stroke="#666" d="M207-787h85z"/>
<path fill="#666" stroke="#666" d="M207-771h85z"/>
<path fill="none" stroke="#666" d="M206.5-753v-52h85v52z"/>
</a></g><g class="edge"><title>Node3-&gt;Node2</title><a>
<path fill="none" stroke="#63b8ff" d="M266.67-752.59c3.03 5.56 5.71 11.59 7.33 17.59 2.78 10.3.32 13.34 0 24-3.11 102.36 9.31 130.28-14 230-3.72 15.9-8.79 32.21-14.52 48.14"/>
<path fill="none" stroke="#63b8ff" d="m245.37-432.58-5.84 4.23 1.66 7.02 5.84-4.23z"/>
</a><text x="312.5" y="-584.2" fill="gray" font-family="Consolas" font-size="11" text-anchor="middle"> #dimension</text></g><g class="node"><title>Node5</title><a xlink:href="../../dd/dd9/class_b_spline.html" target="_top">
<path fill="#fff" stroke="transparent" d="M251.5-693h-161v212h161z"/>
<text x="147.5" y="-680.2" font-family="Consolas" font-size="11">BSpline</text>
<text x="168" y="-664.2" font-family="Consolas" font-size="11"> </text>
<text x="95" y="-648.2" font-family="Consolas" font-size="11">+</text>
<text x="106" y="-648.2" font-family="Consolas" font-size="11">BSpline()</text>
<text x="95" y="-632.2" font-family="Consolas" font-size="11">+</text>
<text x="106" y="-632.2" font-family="Consolas" font-size="11">BSpline()</text>
<text x="95" y="-616.2" font-family="Consolas" font-size="11">+</text>
<text x="106" y="-616.2" font-family="Consolas" font-size="11">BSpline()</text>
<text x="95" y="-600.2" font-family="Consolas" font-size="11">+</text>
<text x="106" y="-600.2" font-family="Consolas" font-size="11">operator=()</text>
<text x="95" y="-584.2" font-family="Consolas" font-size="11">+</text>
<text x="106" y="-584.2" font-family="Consolas" font-size="11">operator=()</text>
<text x="95" y="-568.2" font-family="Consolas" font-size="11">+</text>
<text x="106" y="-568.2" font-family="Consolas" font-size="11">~BSpline()</text>
<text x="95" y="-552.2" font-family="Consolas" font-size="11">+</text>
<text x="106" y="-552.2" font-family="Consolas" font-size="11">set_control_polygon()</text>
<text x="95" y="-536.2" font-family="Consolas" font-size="11">+</text>
<text x="106" y="-536.2" font-family="Consolas" font-size="11">set_control_polygon()</text>
<text x="95" y="-520.2" font-family="Consolas" font-size="11">+</text>
<text x="106" y="-520.2" font-family="Consolas" font-size="11">get_knot()</text>
<text x="95" y="-504.2" font-family="Consolas" font-size="11">+</text>
<text x="106" y="-504.2" font-family="Consolas" font-size="11">get_order()</text>
<text x="106" y="-488.2" font-family="Consolas" font-size="11">and 13 more...</text>
<path fill="#666" stroke="#666" d="M91-675h161z"/>
<path fill="#666" stroke="#666" d="M91-659h161z"/>
<path fill="none" stroke="#666" d="M90.5-481v-212h161v212z"/>
</a></g><g class="edge"><title>Node3-&gt;Node5</title><a>
<path fill="none" stroke="#63b8ff" d="M213.51-752.91c-5.57 5.34-10.73 11.37-14.51 17.91-5.44 9.41-9.86 19.68-13.43 30.27"/>
<path fill="none" stroke="#63b8ff" d="m185.53-704.62-5.58 4.57 2.06 6.91 5.59-4.57z"/>
</a><text x="236.5" y="-726.2" fill="gray" font-family="Consolas" font-size="11" text-anchor="middle"> #dimension</text><text x="236.5" y="-714.2" fill="gray" font-family="Consolas" font-size="11" text-anchor="middle">#order</text></g><g class="node"><title>Node4</title><a>
<path fill="#fff" stroke="transparent" d="M92-805H0v52h92z"/>
<text x="5" y="-792.2" font-family="Consolas" font-size="11">field&lt; vec &gt;</text>
<text x="42.5" y="-776.2" font-family="Consolas" font-size="11"> </text>
<text x="42.5" y="-760.2" font-family="Consolas" font-size="11"> </text>
<path fill="#666" stroke="#666" d="M0-787h92z"/>
<path fill="#666" stroke="#666" d="M0-771h92z"/>
<path fill="none" stroke="#666" d="M0-753v-52h92v52z"/>
</a></g><g class="edge"><title>Node4-&gt;Node2</title><a>
<path fill="none" stroke="#63b8ff" d="M40.56-752.77C30.42-700.29 12.6-576.3 47-481c10.72 29.69 29.04 57.9 49 82.54"/>
<path fill="none" stroke="#63b8ff" d="m96.03-398.41.77 7.17 6.91 2.05-.76-7.17z"/>
</a><text x="64" y="-584.2" fill="gray" font-family="Consolas" font-size="11" text-anchor="middle"> #net</text></g><g class="edge"><title>Node4-&gt;Node5</title><a>
<path fill="none" stroke="#63b8ff" d="M62.6-752.77c8.78 13.35 20.26 30.79 32.45 49.33"/>
<path fill="none" stroke="#63b8ff" d="m95.09-703.39-.05 7.21 6.64 2.82.05-7.21z"/>
</a><text x="107" y="-720.2" fill="gray" font-family="Consolas" font-size="11" text-anchor="middle"> #net</text></g><g class="edge"><title>Node5-&gt;Node2</title><a>
<path fill="none" stroke="#63b8ff" d="M177.48-480.87c.95 15.54 1.95 31.67 2.92 47.54"/>
<path fill="none" stroke="#63b8ff" d="m180.41-433.24-3.62 6.23 4.36 5.74 3.62-6.23z"/>
</a><text x="208.5" y="-454.2" fill="gray" font-family="Consolas" font-size="11" text-anchor="middle"> #line_u</text><text x="208.5" y="-442.2" fill="gray" font-family="Consolas" font-size="11" text-anchor="middle">#line_v</text></g><g class="node"><title>Node6</title><a>
<path fill="#fff" stroke="transparent" d="M149.5-805h-31v52h31z"/>
<text x="124" y="-792.2" font-family="Consolas" font-size="11">vec</text>
<text x="131" y="-776.2" font-family="Consolas" font-size="11"> </text>
<text x="131" y="-760.2" font-family="Consolas" font-size="11"> </text>
<path fill="#666" stroke="#666" d="M119-787h31z"/>
<path fill="#666" stroke="#666" d="M119-771h31z"/>
<path fill="none" stroke="#666" d="M118.5-753v-52h31v52z"/>
</a></g><g class="edge"><title>Node6-&gt;Node5</title><a>
<path fill="none" stroke="#63b8ff" d="M132.78-752.73c-.21 12.6.15 28.04 2.22 41.73.29 1.91.6 3.84.93 5.77"/>
<path fill="none" stroke="#63b8ff" d="m135.96-705.05-2.81 6.64 5.05 5.15 2.81-6.64z"/>
</a><text x="155.5" y="-720.2" fill="gray" font-family="Consolas" font-size="11" text-anchor="middle"> #knot</text></g><g class="node"><title>Node7</title><a xlink:href="../../d9/d8f/class_n_u_r_b_s_base.html" target="_top">
<path fill="#fff" stroke="transparent" d="M472.5-335h-161v52h161z"/>
<text x="362" y="-322.2" font-family="Consolas" font-size="11">NURBSBase</text>
<text x="389" y="-306.2" font-family="Consolas" font-size="11"> </text>
<text x="316" y="-290.2" font-family="Consolas" font-size="11">#</text>
<text x="327" y="-290.2" font-family="Consolas" font-size="11">initialize_binomial()</text>
<path fill="#666" stroke="#666" d="M312-317h161z"/>
<path fill="#666" stroke="#666" d="M312-301h161z"/>
<path fill="none" stroke="#666" d="M311.5-283v-52h161v52z"/>
</a></g><g class="edge"><title>Node7-&gt;Node1</title><a>
<path fill="none" stroke="#63b8ff" d="M374.89-273.63c-14.95 30.04-37.24 74.81-56.56 113.62"/>
<path fill="none" stroke="#63b8ff" d="m371.89-275.45 7.59-7.39-1.33 10.51z"/>
</a></g><g class="node"><title>Node8</title><a>
<path fill="#fff" stroke="transparent" d="M412.5-613h-31v52h31z"/>
<text x="387" y="-600.2" font-family="Consolas" font-size="11">mat</text>
<text x="394" y="-584.2" font-family="Consolas" font-size="11"> </text>
<text x="394" y="-568.2" font-family="Consolas" font-size="11"> </text>
<path fill="#666" stroke="#666" d="M382-595h31z"/>
<path fill="#666" stroke="#666" d="M382-579h31z"/>
<path fill="none" stroke="#666" d="M381.5-561v-52h31v52z"/>
</a></g><g class="edge"><title>Node8-&gt;Node7</title><a>
<path fill="none" stroke="#63b8ff" d="M396.54-560.53c-.89 49.01-2.84 156.6-3.87 213.52"/>
<path fill="none" stroke="#63b8ff" d="m392.67-347.01-4.11 5.93 3.89 6.07 4.11-5.93z"/>
</a><text x="442.5" y="-448.2" fill="gray" font-family="Consolas" font-size="11" text-anchor="middle"> #binomial_mat</text></g></g></svg>