<?xml version="1.0" encoding="UTF-8" standalone="no"?>
<!DOCTYPE svg PUBLIC "-//W3C//DTD SVG 1.1//EN"
 "http://www.w3.org/Graphics/SVG/1.1/DTD/svg11.dtd">
<!-- Generated by graphviz version 2.43.0 (0)
 -->
<!-- Title: DataNonlinearCDP Pages: 1 -->
<svg width="365pt" height="492pt"
 viewBox="0.00 0.00 365.00 492.00" xmlns="http://www.w3.org/2000/svg" xmlns:xlink="http://www.w3.org/1999/xlink">
<g id="graph0" class="graph" transform="scale(1 1) rotate(0) translate(4 488)">
<title>DataNonlinearCDP</title>
<!-- Node1 -->
<g id="Node000001" class="node">
<title>Node1</title>
<g id="a_Node000001"><a xlink:title=" ">
<polygon fill="#999999" stroke="transparent" points="239,-484 118,-484 118,-336 239,-336 239,-484"/>
<text text-anchor="start" x="124.5" y="-471.2" font-family="Consolas" font-size="11.00">DataNonlinearCDP</text>
<text text-anchor="start" x="122.5" y="-455.2" font-family="Consolas" font-size="11.00">+</text>
<text text-anchor="start" x="133.5" y="-455.2" font-family="Consolas" font-size="11.00">elastic_modulus</text>
<text text-anchor="start" x="122.5" y="-439.2" font-family="Consolas" font-size="11.00">+</text>
<text text-anchor="start" x="133.5" y="-439.2" font-family="Consolas" font-size="11.00">poissons_ratio</text>
<text text-anchor="start" x="122.5" y="-423.2" font-family="Consolas" font-size="11.00">+</text>
<text text-anchor="start" x="133.5" y="-423.2" font-family="Consolas" font-size="11.00">g_t</text>
<text text-anchor="start" x="122.5" y="-407.2" font-family="Consolas" font-size="11.00">+</text>
<text text-anchor="start" x="133.5" y="-407.2" font-family="Consolas" font-size="11.00">g_c</text>
<text text-anchor="start" x="122.5" y="-391.2" font-family="Consolas" font-size="11.00">+</text>
<text text-anchor="start" x="133.5" y="-391.2" font-family="Consolas" font-size="11.00">alpha</text>
<text text-anchor="start" x="122.5" y="-375.2" font-family="Consolas" font-size="11.00">+</text>
<text text-anchor="start" x="133.5" y="-375.2" font-family="Consolas" font-size="11.00">alpha_p</text>
<text text-anchor="start" x="122.5" y="-359.2" font-family="Consolas" font-size="11.00">+</text>
<text text-anchor="start" x="133.5" y="-359.2" font-family="Consolas" font-size="11.00">s0</text>
<text text-anchor="start" x="175.5" y="-343.2" font-family="Consolas" font-size="11.00"> </text>
<polygon fill="#666666" stroke="#666666" points="118.5,-466 118.5,-466 239.5,-466 239.5,-466 118.5,-466"/>
<polygon fill="#666666" stroke="#666666" points="118.5,-354 118.5,-354 131.5,-354 131.5,-354 118.5,-354"/>
<polygon fill="#666666" stroke="#666666" points="131.5,-354 131.5,-354 239.5,-354 239.5,-354 131.5,-354"/>
<polygon fill="none" stroke="#666666" points="118,-336 118,-484 239,-484 239,-336 118,-336"/>
</a>
</g>
</g>
<!-- Node2 -->
<g id="Node000002" class="node">
<title>Node2</title>
<g id="a_Node000002"><a xlink:href="../../de/d9e/class_nonlinear_c_d_p.html" target="_top" xlink:title="The NonlinearCDP class.">
<polygon fill="white" stroke="transparent" points="259,-300 98,-300 98,-120 259,-120 259,-300"/>
<text text-anchor="start" x="138" y="-287.2" font-family="Consolas" font-size="11.00">NonlinearCDP</text>
<text text-anchor="start" x="175.5" y="-271.2" font-family="Consolas" font-size="11.00"> </text>
<text text-anchor="start" x="102.5" y="-255.2" font-family="Consolas" font-size="11.00">+</text>
<text text-anchor="start" x="113.5" y="-255.2" font-family="Consolas" font-size="11.00">NonlinearCDP()</text>
<text text-anchor="start" x="102.5" y="-239.2" font-family="Consolas" font-size="11.00">+</text>
<text text-anchor="start" x="113.5" y="-239.2" font-family="Consolas" font-size="11.00">initialize()</text>
<text text-anchor="start" x="102.5" y="-223.2" font-family="Consolas" font-size="11.00">+</text>
<text text-anchor="start" x="113.5" y="-223.2" font-family="Consolas" font-size="11.00">get()</text>
<text text-anchor="start" x="102.5" y="-207.2" font-family="Consolas" font-size="11.00">+</text>
<text text-anchor="start" x="113.5" y="-207.2" font-family="Consolas" font-size="11.00">update_trial_status()</text>
<text text-anchor="start" x="102.5" y="-191.2" font-family="Consolas" font-size="11.00">+</text>
<text text-anchor="start" x="113.5" y="-191.2" font-family="Consolas" font-size="11.00">clear_status()</text>
<text text-anchor="start" x="102.5" y="-175.2" font-family="Consolas" font-size="11.00">+</text>
<text text-anchor="start" x="113.5" y="-175.2" font-family="Consolas" font-size="11.00">commit_status()</text>
<text text-anchor="start" x="102.5" y="-159.2" font-family="Consolas" font-size="11.00">+</text>
<text text-anchor="start" x="113.5" y="-159.2" font-family="Consolas" font-size="11.00">reset_status()</text>
<text text-anchor="start" x="102.5" y="-143.2" font-family="Consolas" font-size="11.00">+</text>
<text text-anchor="start" x="113.5" y="-143.2" font-family="Consolas" font-size="11.00">record()</text>
<text text-anchor="start" x="102.5" y="-127.2" font-family="Consolas" font-size="11.00">+</text>
<text text-anchor="start" x="113.5" y="-127.2" font-family="Consolas" font-size="11.00">print()</text>
<polygon fill="#666666" stroke="#666666" points="98.5,-282 98.5,-282 259.5,-282 259.5,-282 98.5,-282"/>
<polygon fill="#666666" stroke="#666666" points="98.5,-266 98.5,-266 259.5,-266 259.5,-266 98.5,-266"/>
<polygon fill="none" stroke="#666666" points="98,-120 98,-300 259,-300 259,-120 98,-120"/>
</a>
</g>
</g>
<!-- Node1&#45;&gt;Node2 -->
<g id="edge1_Node000001_Node000002" class="edge">
<title>Node1&#45;&gt;Node2</title>
<g id="a_edge1_Node000001_Node000002"><a xlink:title=" ">
<path fill="none" stroke="darkgreen" d="M178.5,-325.69C178.5,-317.3 178.5,-308.76 178.5,-300.31"/>
<polygon fill="none" stroke="darkgreen" points="175,-325.83 178.5,-335.83 182,-325.83 175,-325.83"/>
</a>
</g>
</g>
<!-- Node3 -->
<g id="Node000003" class="node">
<title>Node3</title>
<g id="a_Node000003"><a xlink:href="../../d9/d11/class_c_d_p.html" target="_top" xlink:title="The CDP class.">
<polygon fill="white" stroke="transparent" points="107,-76 0,-76 0,-8 107,-8 107,-76"/>
<text text-anchor="start" x="43.5" y="-63.2" font-family="Consolas" font-size="11.00">CDP</text>
<text text-anchor="start" x="50.5" y="-47.2" font-family="Consolas" font-size="11.00"> </text>
<text text-anchor="start" x="4.5" y="-31.2" font-family="Consolas" font-size="11.00">+</text>
<text text-anchor="start" x="15.5" y="-31.2" font-family="Consolas" font-size="11.00">CDP()</text>
<text text-anchor="start" x="4.5" y="-15.2" font-family="Consolas" font-size="11.00">+</text>
<text text-anchor="start" x="15.5" y="-15.2" font-family="Consolas" font-size="11.00">unique_copy()</text>
<polygon fill="#666666" stroke="#666666" points="0.5,-58 0.5,-58 107.5,-58 107.5,-58 0.5,-58"/>
<polygon fill="#666666" stroke="#666666" points="0.5,-42 0.5,-42 107.5,-42 107.5,-42 0.5,-42"/>
<polygon fill="none" stroke="#666666" points="0,-8 0,-76 107,-76 107,-8 0,-8"/>
</a>
</g>
</g>
<!-- Node2&#45;&gt;Node3 -->
<g id="edge2_Node000002_Node000003" class="edge">
<title>Node2&#45;&gt;Node3</title>
<g id="a_edge2_Node000002_Node000003"><a xlink:title=" ">
<path fill="none" stroke="#63b8ff" d="M104.98,-111.37C95.52,-98.8 86.4,-86.69 78.53,-76.24"/>
<polygon fill="none" stroke="#63b8ff" points="102.43,-113.8 111.24,-119.68 108.02,-109.59 102.43,-113.8"/>
</a>
</g>
</g>
<!-- Node4 -->
<g id="Node000004" class="node">
<title>Node4</title>
<g id="a_Node000004"><a xlink:href="../../d4/d09/class_custom_c_d_p.html" target="_top" xlink:title="The CustomCDP class.">
<polygon fill="white" stroke="transparent" points="232,-84 125,-84 125,0 232,0 232,-84"/>
<text text-anchor="start" x="148.5" y="-71.2" font-family="Consolas" font-size="11.00">CustomCDP</text>
<text text-anchor="start" x="175.5" y="-55.2" font-family="Consolas" font-size="11.00"> </text>
<text text-anchor="start" x="129.5" y="-39.2" font-family="Consolas" font-size="11.00">+</text>
<text text-anchor="start" x="140.5" y="-39.2" font-family="Consolas" font-size="11.00">CustomCDP()</text>
<text text-anchor="start" x="129.5" y="-23.2" font-family="Consolas" font-size="11.00">+</text>
<text text-anchor="start" x="140.5" y="-23.2" font-family="Consolas" font-size="11.00">initialize()</text>
<text text-anchor="start" x="129.5" y="-7.2" font-family="Consolas" font-size="11.00">+</text>
<text text-anchor="start" x="140.5" y="-7.2" font-family="Consolas" font-size="11.00">unique_copy()</text>
<polygon fill="#666666" stroke="#666666" points="125.5,-66 125.5,-66 232.5,-66 232.5,-66 125.5,-66"/>
<polygon fill="#666666" stroke="#666666" points="125.5,-50 125.5,-50 232.5,-50 232.5,-50 125.5,-50"/>
<polygon fill="none" stroke="#666666" points="125,0 125,-84 232,-84 232,0 125,0"/>
</a>
</g>
</g>
<!-- Node2&#45;&gt;Node4 -->
<g id="edge3_Node000002_Node000004" class="edge">
<title>Node2&#45;&gt;Node4</title>
<g id="a_edge3_Node000002_Node000004"><a xlink:title=" ">
<path fill="none" stroke="#63b8ff" d="M178.5,-109.55C178.5,-100.65 178.5,-92.02 178.5,-84.08"/>
<polygon fill="none" stroke="#63b8ff" points="175,-109.68 178.5,-119.68 182,-109.68 175,-109.68"/>
</a>
</g>
</g>
<!-- Node5 -->
<g id="Node000005" class="node">
<title>Node5</title>
<g id="a_Node000005"><a xlink:href="../../d6/d61/class_table_c_d_p.html" target="_top" xlink:title="The TableCDP class.">
<polygon fill="white" stroke="transparent" points="357,-76 250,-76 250,-8 357,-8 357,-76"/>
<text text-anchor="start" x="276.5" y="-63.2" font-family="Consolas" font-size="11.00">TableCDP</text>
<text text-anchor="start" x="300.5" y="-47.2" font-family="Consolas" font-size="11.00"> </text>
<text text-anchor="start" x="254.5" y="-31.2" font-family="Consolas" font-size="11.00">+</text>
<text text-anchor="start" x="265.5" y="-31.2" font-family="Consolas" font-size="11.00">TableCDP()</text>
<text text-anchor="start" x="254.5" y="-15.2" font-family="Consolas" font-size="11.00">+</text>
<text text-anchor="start" x="265.5" y="-15.2" font-family="Consolas" font-size="11.00">unique_copy()</text>
<polygon fill="#666666" stroke="#666666" points="250.5,-58 250.5,-58 357.5,-58 357.5,-58 250.5,-58"/>
<polygon fill="#666666" stroke="#666666" points="250.5,-42 250.5,-42 357.5,-42 357.5,-42 250.5,-42"/>
<polygon fill="none" stroke="#666666" points="250,-8 250,-76 357,-76 357,-8 250,-8"/>
</a>
</g>
</g>
<!-- Node2&#45;&gt;Node5 -->
<g id="edge4_Node000002_Node000005" class="edge">
<title>Node2&#45;&gt;Node5</title>
<g id="a_edge4_Node000002_Node000005"><a xlink:title=" ">
<path fill="none" stroke="#63b8ff" d="M252.02,-111.37C261.48,-98.8 270.6,-86.69 278.47,-76.24"/>
<polygon fill="none" stroke="#63b8ff" points="248.98,-109.59 245.76,-119.68 254.57,-113.8 248.98,-109.59"/>
</a>
</g>
</g>
</g>
</svg>
