<?xml version="1.0" encoding="UTF-8" standalone="no"?>
<!DOCTYPE svg PUBLIC "-//W3C//DTD SVG 1.1//EN"
 "http://www.w3.org/Graphics/SVG/1.1/DTD/svg11.dtd">
<!-- Generated by graphviz version 2.43.0 (0)
 -->
<!-- Title: get_remaining Pages: 1 -->
<svg width="708pt" height="166pt"
 viewBox="0.00 0.00 708.00 166.00" xmlns="http://www.w3.org/2000/svg" xmlns:xlink="http://www.w3.org/1999/xlink">
<g id="graph0" class="graph" transform="scale(1 1) rotate(0) translate(4 162)">
<title>get_remaining</title>
<!-- Node1 -->
<g id="Node000001" class="node">
<title>Node1</title>
<g id="a_Node000001"><a xlink:title=" ">
<polygon fill="#999999" stroke="#666666" points="700,-76 596,-76 596,-56 700,-56 700,-76"/>
<text text-anchor="middle" x="648" y="-63.2" font-family="Consolas" font-size="11.00">get_remaining</text>
</a>
</g>
</g>
<!-- Node2 -->
<g id="Node000002" class="node">
<title>Node2</title>
<g id="a_Node000002"><a xlink:href="../../d1/d81/command_8cpp.html#a93ed4e20ca36def5d5ac815613593cc8" target="_top" xlink:title=" ">
<polygon fill="white" stroke="#666666" points="550,-120 432,-120 432,-100 550,-100 550,-120"/>
<text text-anchor="middle" x="491" y="-107.2" font-family="Consolas" font-size="11.00">process_command</text>
</a>
</g>
</g>
<!-- Node1&#45;&gt;Node2 -->
<g id="edge1_Node000001_Node000002" class="edge">
<title>Node1&#45;&gt;Node2</title>
<g id="a_edge1_Node000001_Node000002"><a xlink:title=" ">
<path fill="none" stroke="#63b8ff" d="M602.64,-78.82C588.97,-82.75 573.87,-87.07 560,-91 549.62,-93.94 538.34,-97.11 528.01,-99.99"/>
<polygon fill="#63b8ff" stroke="#63b8ff" points="603.66,-82.16 612.3,-76.03 601.72,-75.44 603.66,-82.16"/>
</a>
</g>
</g>
<!-- Node7 -->
<g id="Node000007" class="node">
<title>Node7</title>
<g id="a_Node000007"><a xlink:href="../../d5/d59/struct_solver_setting.html#a7f8a0ab5d5c35bc27c0cb175137f7bea" target="_top" xlink:title=" ">
<polygon fill="white" stroke="#666666" points="560,-82 422,-82 422,-50 560,-50 560,-82"/>
<text text-anchor="start" x="430" y="-69.2" font-family="Consolas" font-size="11.00">SolverSetting::set</text>
<text text-anchor="middle" x="491" y="-57.2" font-family="Consolas" font-size="11.00">_lis_option</text>
</a>
</g>
</g>
<!-- Node1&#45;&gt;Node7 -->
<g id="edge8_Node000001_Node000007" class="edge">
<title>Node1&#45;&gt;Node7</title>
<g id="a_edge8_Node000001_Node000007"><a xlink:title=" ">
<path fill="none" stroke="#63b8ff" d="M585.77,-66C577.39,-66 568.76,-66 560.27,-66"/>
<polygon fill="#63b8ff" stroke="#63b8ff" points="585.82,-69.5 595.82,-66 585.82,-62.5 585.82,-69.5"/>
</a>
</g>
</g>
<!-- Node9 -->
<g id="Node000009" class="node">
<title>Node9</title>
<g id="a_Node000009"><a xlink:href="../../d5/d59/struct_solver_setting.html#a9971849584e19a629fc72f3e6a313fc3" target="_top" xlink:title=" ">
<polygon fill="white" stroke="#666666" points="560,-32 422,-32 422,0 560,0 560,-32"/>
<text text-anchor="start" x="430" y="-19.2" font-family="Consolas" font-size="11.00">SolverSetting::set</text>
<text text-anchor="middle" x="491" y="-7.2" font-family="Consolas" font-size="11.00">_option</text>
</a>
</g>
</g>
<!-- Node1&#45;&gt;Node9 -->
<g id="edge10_Node000001_Node000009" class="edge">
<title>Node1&#45;&gt;Node9</title>
<g id="a_edge10_Node000001_Node000009"><a xlink:title=" ">
<path fill="none" stroke="#63b8ff" d="M606.01,-52.78C586.25,-46.4 562.4,-38.71 541.63,-32.01"/>
<polygon fill="#63b8ff" stroke="#63b8ff" points="605.04,-56.14 615.63,-55.88 607.19,-49.48 605.04,-56.14"/>
</a>
</g>
</g>
<!-- Node3 -->
<g id="Node000003" class="node">
<title>Node3</title>
<g id="a_Node000003"><a xlink:href="../../da/d46/group___utility.html#ga8bf8736c7a14e90bd7313d121b2ac440" target="_top" xlink:title=" ">
<polygon fill="white" stroke="#666666" points="345.5,-158 274.5,-158 274.5,-138 345.5,-138 345.5,-158"/>
<text text-anchor="middle" x="310" y="-145.2" font-family="Consolas" font-size="11.00">cli_mode</text>
</a>
</g>
</g>
<!-- Node2&#45;&gt;Node3 -->
<g id="edge2_Node000002_Node000003" class="edge">
<title>Node2&#45;&gt;Node3</title>
<g id="a_edge2_Node000002_Node000003"><a xlink:title=" ">
<path fill="none" stroke="#63b8ff" d="M432.61,-122.18C403.98,-128.26 370.31,-135.41 345.66,-140.64"/>
<polygon fill="#63b8ff" stroke="#63b8ff" points="433.45,-125.58 442.5,-120.08 431.99,-118.74 433.45,-125.58"/>
</a>
</g>
</g>
<!-- Node6 -->
<g id="Node000006" class="node">
<title>Node6</title>
<g id="a_Node000006"><a xlink:href="../../d1/d81/command_8cpp.html#a65a31d6103b6d10e025b25d95832eabc" target="_top" xlink:title=" ">
<polygon fill="white" stroke="#666666" points="359,-120 261,-120 261,-100 359,-100 359,-120"/>
<text text-anchor="middle" x="310" y="-107.2" font-family="Consolas" font-size="11.00">process_file</text>
</a>
</g>
</g>
<!-- Node2&#45;&gt;Node6 -->
<g id="edge5_Node000002_Node000006" class="edge">
<title>Node2&#45;&gt;Node6</title>
<g id="a_edge5_Node000002_Node000006"><a xlink:title=" ">
<path fill="none" stroke="#63b8ff" d="M421.8,-103.42C400.96,-103.08 378.48,-103.25 359.25,-103.93"/>
<polygon fill="#63b8ff" stroke="#63b8ff" points="421.81,-106.92 431.88,-103.63 421.96,-99.93 421.81,-106.92"/>
</a>
</g>
</g>
<!-- Node4 -->
<g id="Node000004" class="node">
<title>Node4</title>
<g id="a_Node000004"><a xlink:href="../../da/d46/group___utility.html#gaf8d2165909a5b05cf91dce632ce172a4" target="_top" xlink:title=" ">
<polygon fill="white" stroke="#666666" points="198,-139 80,-139 80,-119 198,-119 198,-139"/>
<text text-anchor="middle" x="139" y="-126.2" font-family="Consolas" font-size="11.00">argument_parser</text>
</a>
</g>
</g>
<!-- Node3&#45;&gt;Node4 -->
<g id="edge3_Node000003_Node000004" class="edge">
<title>Node3&#45;&gt;Node4</title>
<g id="a_edge3_Node000003_Node000004"><a xlink:title=" ">
<path fill="none" stroke="#63b8ff" d="M264.2,-142.96C243.97,-140.69 219.8,-137.97 198.19,-135.54"/>
<polygon fill="#63b8ff" stroke="#63b8ff" points="264.06,-146.47 274.39,-144.11 264.85,-139.51 264.06,-146.47"/>
</a>
</g>
</g>
<!-- Node5 -->
<g id="Node000005" class="node">
<title>Node5</title>
<g id="a_Node000005"><a xlink:href="../../d6/dfd/suan_pan_8cpp.html#a3c04138a5bfe5d72780bb7e82a18e627" target="_top" xlink:title=" ">
<polygon fill="white" stroke="#666666" points="44,-139 0,-139 0,-119 44,-119 44,-139"/>
<text text-anchor="middle" x="22" y="-126.2" font-family="Consolas" font-size="11.00">main</text>
</a>
</g>
</g>
<!-- Node4&#45;&gt;Node5 -->
<g id="edge4_Node000004_Node000005" class="edge">
<title>Node4&#45;&gt;Node5</title>
<g id="a_edge4_Node000004_Node000005"><a xlink:title=" ">
<path fill="none" stroke="#63b8ff" d="M69.67,-129C60.41,-129 51.54,-129 44.07,-129"/>
<polygon fill="#63b8ff" stroke="#63b8ff" points="69.83,-132.5 79.83,-129 69.83,-125.5 69.83,-132.5"/>
</a>
</g>
</g>
<!-- Node6&#45;&gt;Node2 -->
<g id="edge7_Node000006_Node000002" class="edge">
<title>Node6&#45;&gt;Node2</title>
<g id="a_edge7_Node000006_Node000002"><a xlink:title=" ">
<path fill="none" stroke="#63b8ff" d="M369.48,-116.38C389.5,-116.88 411.89,-116.87 431.88,-116.37"/>
<polygon fill="#63b8ff" stroke="#63b8ff" points="369.35,-112.87 359.25,-116.07 369.14,-119.87 369.35,-112.87"/>
</a>
</g>
</g>
<!-- Node6&#45;&gt;Node4 -->
<g id="edge6_Node000006_Node000004" class="edge">
<title>Node6&#45;&gt;Node4</title>
<g id="a_edge6_Node000006_Node000004"><a xlink:title=" ">
<path fill="none" stroke="#63b8ff" d="M250.26,-116.6C233.34,-118.51 214.9,-120.58 198.02,-122.48"/>
<polygon fill="#63b8ff" stroke="#63b8ff" points="251.03,-120.04 260.57,-115.44 250.24,-113.08 251.03,-120.04"/>
</a>
</g>
</g>
<!-- Node8 -->
<g id="Node000008" class="node">
<title>Node8</title>
<g id="a_Node000008"><a xlink:href="../../d1/dc3/class_step.html#af2bd97bc780ab077f98e668b16baa253" target="_top" xlink:title=" ">
<polygon fill="white" stroke="#666666" points="386,-76 234,-76 234,-56 386,-56 386,-76"/>
<text text-anchor="middle" x="310" y="-63.2" font-family="Consolas" font-size="11.00">Step::set_lis_option</text>
</a>
</g>
</g>
<!-- Node7&#45;&gt;Node8 -->
<g id="edge9_Node000007_Node000008" class="edge">
<title>Node7&#45;&gt;Node8</title>
<g id="a_edge9_Node000007_Node000008"><a xlink:title=" ">
<path fill="none" stroke="#63b8ff" d="M411.6,-66C403.15,-66 394.57,-66 386.16,-66"/>
<polygon fill="#63b8ff" stroke="#63b8ff" points="411.82,-69.5 421.82,-66 411.82,-62.5 411.82,-69.5"/>
</a>
</g>
</g>
<!-- Node10 -->
<g id="Node000010" class="node">
<title>Node10</title>
<g id="a_Node000010"><a xlink:href="../../d1/dc3/class_step.html#a8a5877cfd9ce576dd77a17664ce00109" target="_top" xlink:title=" ">
<polygon fill="white" stroke="#666666" points="372.5,-26 247.5,-26 247.5,-6 372.5,-6 372.5,-26"/>
<text text-anchor="middle" x="310" y="-13.2" font-family="Consolas" font-size="11.00">Step::set_option</text>
</a>
</g>
</g>
<!-- Node9&#45;&gt;Node10 -->
<g id="edge11_Node000009_Node000010" class="edge">
<title>Node9&#45;&gt;Node10</title>
<g id="a_edge11_Node000009_Node000010"><a xlink:title=" ">
<path fill="none" stroke="#63b8ff" d="M411.45,-16C398.42,-16 385.07,-16 372.54,-16"/>
<polygon fill="#63b8ff" stroke="#63b8ff" points="411.82,-19.5 421.82,-16 411.82,-12.5 411.82,-19.5"/>
</a>
</g>
</g>
</g>
</svg>
