<?xml version="1.0" encoding="UTF-8" standalone="no"?>
<!DOCTYPE svg PUBLIC "-//W3C//DTD SVG 1.1//EN"
 "http://www.w3.org/Graphics/SVG/1.1/DTD/svg11.dtd">
<!-- Generated by graphviz version 9.0.0 (20230911.1827)
 -->
<!-- Title: MPDC Pages: 1 -->
<svg width="146pt" height="670pt"
 viewBox="0.00 0.00 146.00 670.00" xmlns="http://www.w3.org/2000/svg" xmlns:xlink="http://www.w3.org/1999/xlink">
<g id="graph0" class="graph" transform="scale(1 1) rotate(0) translate(4 666)">
<title>MPDC</title>
<!-- Node1 -->
<g id="Node000001" class="node">
<title>Node1</title>
<g id="a_Node000001"><a xlink:title="A DisplacementControl class defines a solver using Newton–Raphson iteration.">
<polygon fill="#999999" stroke="none" points="105,-72 33,-72 33,0 105,0 105,-72"/>
<text text-anchor="start" x="57" y="-57.55" font-family="Consolas" font-size="11.00">MPDC</text>
<text text-anchor="start" x="66" y="-40.55" font-family="Consolas" font-size="11.00"> </text>
<text text-anchor="start" x="37" y="-23.55" font-family="Consolas" font-size="11.00">+</text>
<text text-anchor="start" x="47" y="-23.55" font-family="Consolas" font-size="11.00">MPDC()</text>
<text text-anchor="start" x="37" y="-6.55" font-family="Consolas" font-size="11.00">+</text>
<text text-anchor="start" x="47" y="-6.55" font-family="Consolas" font-size="11.00">analyze()</text>
<polygon fill="#666666" stroke="#666666" points="33,-53 33,-53 105,-53 105,-53 33,-53"/>
<polygon fill="#666666" stroke="#666666" points="33,-36 33,-36 105,-36 105,-36 33,-36"/>
<polygon fill="none" stroke="#666666" points="33,0 33,-72 105,-72 105,0 33,0"/>
</a>
</g>
</g>
<!-- Node2 -->
<g id="Node000002" class="node">
<title>Node2</title>
<g id="a_Node000002"><a xlink:href="../../d6/d8d/class_solver.html" target="_top" xlink:title="A Solver class defines solvers used in analysis.">
<polygon fill="white" stroke="none" points="138,-333 0,-333 0,-108 138,-108 138,-333"/>
<text text-anchor="start" x="51" y="-318.55" font-family="Consolas" font-size="11.00">Solver</text>
<text text-anchor="start" x="66" y="-301.55" font-family="Consolas" font-size="11.00"> </text>
<text text-anchor="start" x="4" y="-284.55" font-family="Consolas" font-size="11.00">+</text>
<text text-anchor="start" x="14" y="-284.55" font-family="Consolas" font-size="11.00">Solver()</text>
<text text-anchor="start" x="4" y="-267.55" font-family="Consolas" font-size="11.00">+</text>
<text text-anchor="start" x="14" y="-267.55" font-family="Consolas" font-size="11.00">Solver()</text>
<text text-anchor="start" x="4" y="-250.55" font-family="Consolas" font-size="11.00">+</text>
<text text-anchor="start" x="14" y="-250.55" font-family="Consolas" font-size="11.00">Solver()</text>
<text text-anchor="start" x="4" y="-233.55" font-family="Consolas" font-size="11.00">+</text>
<text text-anchor="start" x="14" y="-233.55" font-family="Consolas" font-size="11.00">operator=()</text>
<text text-anchor="start" x="4" y="-216.55" font-family="Consolas" font-size="11.00">+</text>
<text text-anchor="start" x="14" y="-216.55" font-family="Consolas" font-size="11.00">operator=()</text>
<text text-anchor="start" x="4" y="-199.55" font-family="Consolas" font-size="11.00">+</text>
<text text-anchor="start" x="14" y="-199.55" font-family="Consolas" font-size="11.00">~Solver()</text>
<text text-anchor="start" x="4" y="-182.55" font-family="Consolas" font-size="11.00">+</text>
<text text-anchor="start" x="14" y="-182.55" font-family="Consolas" font-size="11.00">initialize()</text>
<text text-anchor="start" x="4" y="-165.55" font-family="Consolas" font-size="11.00">+</text>
<text text-anchor="start" x="14" y="-165.55" font-family="Consolas" font-size="11.00">analyze()</text>
<text text-anchor="start" x="4" y="-148.55" font-family="Consolas" font-size="11.00">+</text>
<text text-anchor="start" x="14" y="-148.55" font-family="Consolas" font-size="11.00">set_step_size()</text>
<text text-anchor="start" x="4" y="-131.55" font-family="Consolas" font-size="11.00">+</text>
<text text-anchor="start" x="14" y="-131.55" font-family="Consolas" font-size="11.00">set_step_amplifier()</text>
<text text-anchor="start" x="14" y="-114.55" font-family="Consolas" font-size="11.00">and 6 more...</text>
<polygon fill="#666666" stroke="#666666" points="0,-314 0,-314 138,-314 138,-314 0,-314"/>
<polygon fill="#666666" stroke="#666666" points="0,-297 0,-297 138,-297 138,-297 0,-297"/>
<polygon fill="none" stroke="#666666" points="0,-108 0,-333 138,-333 138,-108 0,-108"/>
</a>
</g>
</g>
<!-- Node2&#45;&gt;Node1 -->
<g id="edge1_Node000001_Node000002" class="edge">
<title>Node2&#45;&gt;Node1</title>
<g id="a_edge1_Node000001_Node000002"><a xlink:title=" ">
<path fill="none" stroke="#63b8ff" d="M69,-96.63C69,-87.76 69,-79.35 69,-71.78"/>
<polygon fill="none" stroke="#63b8ff" points="65.5,-96.57 69,-106.57 72.5,-96.57 65.5,-96.57"/>
</a>
</g>
</g>
<!-- Node3 -->
<g id="Node000003" class="node">
<title>Node3</title>
<g id="a_Node000003"><a xlink:href="../../d0/d57/class_tag.html" target="_top" xlink:title="A base Tag class.">
<polygon fill="white" stroke="none" points="114,-662 24,-662 24,-369 114,-369 114,-662"/>
<text text-anchor="start" x="60" y="-647.55" font-family="Consolas" font-size="11.00">Tag</text>
<text text-anchor="start" x="66" y="-630.55" font-family="Consolas" font-size="11.00"> </text>
<text text-anchor="start" x="28" y="-613.55" font-family="Consolas" font-size="11.00">+</text>
<text text-anchor="start" x="38" y="-613.55" font-family="Consolas" font-size="11.00">Tag()</text>
<text text-anchor="start" x="28" y="-596.55" font-family="Consolas" font-size="11.00">+</text>
<text text-anchor="start" x="38" y="-596.55" font-family="Consolas" font-size="11.00">Tag()</text>
<text text-anchor="start" x="28" y="-579.55" font-family="Consolas" font-size="11.00">+</text>
<text text-anchor="start" x="38" y="-579.55" font-family="Consolas" font-size="11.00">Tag()</text>
<text text-anchor="start" x="28" y="-562.55" font-family="Consolas" font-size="11.00">+</text>
<text text-anchor="start" x="38" y="-562.55" font-family="Consolas" font-size="11.00">operator=()</text>
<text text-anchor="start" x="28" y="-545.55" font-family="Consolas" font-size="11.00">+</text>
<text text-anchor="start" x="38" y="-545.55" font-family="Consolas" font-size="11.00">operator=()</text>
<text text-anchor="start" x="28" y="-528.55" font-family="Consolas" font-size="11.00">+</text>
<text text-anchor="start" x="38" y="-528.55" font-family="Consolas" font-size="11.00">~Tag()</text>
<text text-anchor="start" x="28" y="-511.55" font-family="Consolas" font-size="11.00">+</text>
<text text-anchor="start" x="38" y="-511.55" font-family="Consolas" font-size="11.00">set_tag()</text>
<text text-anchor="start" x="28" y="-494.55" font-family="Consolas" font-size="11.00">+</text>
<text text-anchor="start" x="38" y="-494.55" font-family="Consolas" font-size="11.00">get_tag()</text>
<text text-anchor="start" x="28" y="-477.55" font-family="Consolas" font-size="11.00">+</text>
<text text-anchor="start" x="38" y="-477.55" font-family="Consolas" font-size="11.00">enable()</text>
<text text-anchor="start" x="28" y="-460.55" font-family="Consolas" font-size="11.00">+</text>
<text text-anchor="start" x="38" y="-460.55" font-family="Consolas" font-size="11.00">disable()</text>
<text text-anchor="start" x="28" y="-443.55" font-family="Consolas" font-size="11.00">+</text>
<text text-anchor="start" x="38" y="-443.55" font-family="Consolas" font-size="11.00">guard()</text>
<text text-anchor="start" x="28" y="-426.55" font-family="Consolas" font-size="11.00">+</text>
<text text-anchor="start" x="38" y="-426.55" font-family="Consolas" font-size="11.00">unguard()</text>
<text text-anchor="start" x="28" y="-409.55" font-family="Consolas" font-size="11.00">+</text>
<text text-anchor="start" x="38" y="-409.55" font-family="Consolas" font-size="11.00">is_active()</text>
<text text-anchor="start" x="28" y="-392.55" font-family="Consolas" font-size="11.00">+</text>
<text text-anchor="start" x="38" y="-392.55" font-family="Consolas" font-size="11.00">is_guarded()</text>
<text text-anchor="start" x="28" y="-375.55" font-family="Consolas" font-size="11.00">+</text>
<text text-anchor="start" x="38" y="-375.55" font-family="Consolas" font-size="11.00">print()</text>
<polygon fill="#666666" stroke="#666666" points="24,-643 24,-643 114,-643 114,-643 24,-643"/>
<polygon fill="#666666" stroke="#666666" points="24,-626 24,-626 114,-626 114,-626 24,-626"/>
<polygon fill="none" stroke="#666666" points="24,-369 24,-662 114,-662 114,-369 24,-369"/>
</a>
</g>
</g>
<!-- Node3&#45;&gt;Node2 -->
<g id="edge2_Node000002_Node000003" class="edge">
<title>Node3&#45;&gt;Node2</title>
<g id="a_edge2_Node000002_Node000003"><a xlink:title=" ">
<path fill="none" stroke="#63b8ff" d="M69,-357.83C69,-349.44 69,-341.09 69,-332.9"/>
<polygon fill="none" stroke="#63b8ff" points="65.5,-357.77 69,-367.77 72.5,-357.77 65.5,-357.77"/>
</a>
</g>
</g>
</g>
</svg>
