<?xml version="1.0" encoding="UTF-8" standalone="no"?>
<!DOCTYPE svg PUBLIC "-//W3C//DTD SVG 1.1//EN"
 "http://www.w3.org/Graphics/SVG/1.1/DTD/svg11.dtd">
<!-- Generated by graphviz version 2.43.0 (0)
 -->
<!-- Title: Section/Section3D/Section3D.h Pages: 1 -->
<!--zoomable 232 -->

<svg id="main" version="1.1" xmlns="http://www.w3.org/2000/svg" xmlns:xlink="http://www.w3.org/1999/xlink" xml:space="preserve" onload="init(evt)">
<style type="text/css"><![CDATA[
.node, .edge {opacity: 0.7;}
.node.selected, .edge.selected {opacity: 1;}
.edge:hover path { stroke: red; }
.edge:hover polygon { stroke: red; fill: red; }
]]></style>

<defs>
  <circle id="rim" cx="0" cy="0" r="7"/>
  <circle id="rim2" cx="0" cy="0" r="3.5"/>
  <g id="zoomPlus">
    <use xlink:href="#rim" fill="#404040"><set attributeName="fill" to="#808080" begin="zoomplus.mouseover" end="zoomplus.mouseout"/></use>
    <path d="M-4,0h8M0,-4v8" fill="none" stroke="white" stroke-width="1.5" pointer-events="none"/>
  </g>
  <g id="zoomMin">
    <use xlink:href="#rim" fill="#404040"><set attributeName="fill" to="#808080" begin="zoomminus.mouseover" end="zoomminus.mouseout"/></use>
    <path d="M-4,0h8" fill="none" stroke="white" stroke-width="1.5" pointer-events="none"/>
  </g>
  <g id="arrowUp" transform="translate(30 24)">
    <use xlink:href="#rim"/>
    <path pointer-events="none" fill="none" stroke="white" stroke-width="1.5" d="M0,-3.0v7 M-2.5,-0.5L0,-3.0L2.5,-0.5"/>
  </g>
  <g id="arrowRight" transform="rotate(90) translate(36 -43)">
    <use xlink:href="#rim"/>
    <path pointer-events="none" fill="none" stroke="white" stroke-width="1.5" d="M0,-3.0v7 M-2.5,-0.5L0,-3.0L2.5,-0.5"/>
  </g>
  <g id="arrowDown" transform="rotate(180) translate(-30 -48)">
    <use xlink:href="#rim"/>
    <path pointer-events="none" fill="none" stroke="white" stroke-width="1.5" d="M0,-3.0v7 M-2.5,-0.5L0,-3.0L2.5,-0.5"/>
  </g>
  <g id="arrowLeft" transform="rotate(270) translate(-36 17)">
    <use xlink:href="#rim"/>
    <path pointer-events="none" fill="none" stroke="white" stroke-width="1.5" d="M0,-3.0v7 M-2.5,-0.5L0,-3.0L2.5,-0.5"/>
  </g>
  <g id="resetDef">
    <use xlink:href="#rim2" fill="#404040"><set attributeName="fill" to="#808080" begin="reset.mouseover" end="reset.mouseout"/></use>
  </g>
</defs>
<script type="application/ecmascript">
var viewWidth = 1549;
var viewHeight = 232;
var sectionId = 'dynsection-1';
</script>
<script type="application/ecmascript" xlink:href="../../svg.min.js"/>
<svg id="graph" class="graph">
<g id="viewport">
<title>Section/Section3D/Section3D.h</title>
<!-- Node1 -->
<g id="Node000001" class="node">
<title>Node1</title>
<g id="a_Node000001"><a xlink:title=" ">
<polygon fill="#999999" stroke="#666666" points="858.5,-224 646.5,-224 646.5,-204 858.5,-204 858.5,-224"/>
<text text-anchor="middle" x="752.5" y="-211.2" font-family="Consolas" font-size="11.00">Section/Section3D/Section3D.h</text>
</a>
</g>
</g>
<!-- Node2 -->
<g id="Node000002" class="node">
<title>Node2</title>
<g id="a_Node000002"><a xlink:href="../../da/dfb/_box3_d_8h.html" target="_top" xlink:title=" ">
<polygon fill="white" stroke="#666666" points="199,-162 14,-162 14,-142 199,-142 199,-162"/>
<text text-anchor="middle" x="106.5" y="-149.2" font-family="Consolas" font-size="11.00">Section/Section3D/Box3D.h</text>
</a>
</g>
</g>
<!-- Node1&#45;&gt;Node2 -->
<g id="edge1_Node000001_Node000002" class="edge">
<title>Node1&#45;&gt;Node2</title>
<g id="a_edge1_Node000001_Node000002"><a xlink:title=" ">
<path fill="none" stroke="#63b8ff" d="M636.42,-205.19C527.13,-197.4 358.97,-184.26 213.5,-168 198.21,-166.29 181.74,-164.14 166.41,-162"/>
<polygon fill="#63b8ff" stroke="#63b8ff" points="636.25,-208.69 646.48,-205.91 636.75,-201.71 636.25,-208.69"/>
</a>
</g>
</g>
<!-- Node4 -->
<g id="Node000004" class="node">
<title>Node4</title>
<g id="a_Node000004"><a xlink:href="../../df/d89/_cell3_d_8h.html" target="_top" xlink:title=" ">
<polygon fill="white" stroke="#666666" points="414.5,-162 222.5,-162 222.5,-142 414.5,-142 414.5,-162"/>
<text text-anchor="middle" x="318.5" y="-149.2" font-family="Consolas" font-size="11.00">Section/Section3D/Cell3D.h</text>
</a>
</g>
</g>
<!-- Node1&#45;&gt;Node4 -->
<g id="edge3_Node000001_Node000004" class="edge">
<title>Node1&#45;&gt;Node4</title>
<g id="a_edge3_Node000001_Node000004"><a xlink:title=" ">
<path fill="none" stroke="#63b8ff" d="M675.68,-202.63C609,-193.59 509.85,-180.07 423.5,-168 409.82,-166.09 395.15,-164.01 381.23,-162.02"/>
<polygon fill="#63b8ff" stroke="#63b8ff" points="675.31,-206.11 685.69,-203.98 676.25,-199.17 675.31,-206.11"/>
</a>
</g>
</g>
<!-- Node6 -->
<g id="Node000006" class="node">
<title>Node6</title>
<g id="a_Node000006"><a xlink:href="../../d7/d4e/_circle3_d_8h.html" target="_top" xlink:title=" ">
<polygon fill="white" stroke="#666666" points="638.5,-162 432.5,-162 432.5,-142 638.5,-142 638.5,-162"/>
<text text-anchor="middle" x="535.5" y="-149.2" font-family="Consolas" font-size="11.00">Section/Section3D/Circle3D.h</text>
</a>
</g>
</g>
<!-- Node1&#45;&gt;Node6 -->
<g id="edge5_Node000001_Node000006" class="edge">
<title>Node1&#45;&gt;Node6</title>
<g id="a_edge5_Node000001_Node000006"><a xlink:title=" ">
<path fill="none" stroke="#63b8ff" d="M709.7,-201.16C668.08,-189.66 605.78,-172.43 568.06,-162"/>
<polygon fill="#63b8ff" stroke="#63b8ff" points="708.97,-204.6 719.54,-203.89 710.84,-197.85 708.97,-204.6"/>
</a>
</g>
</g>
<!-- Node8 -->
<g id="Node000008" class="node">
<title>Node8</title>
<g id="a_Node000008"><a xlink:href="../../d9/d10/_circular_hollow3_d_8h.html" target="_top" xlink:title=" ">
<polygon fill="white" stroke="#666666" points="848.5,-168 656.5,-168 656.5,-136 848.5,-136 848.5,-168"/>
<text text-anchor="start" x="664.5" y="-155.2" font-family="Consolas" font-size="11.00">Section/Section3D/Circular</text>
<text text-anchor="middle" x="752.5" y="-143.2" font-family="Consolas" font-size="11.00">Hollow3D.h</text>
</a>
</g>
</g>
<!-- Node1&#45;&gt;Node8 -->
<g id="edge7_Node000001_Node000008" class="edge">
<title>Node1&#45;&gt;Node8</title>
<g id="a_edge7_Node000001_Node000008"><a xlink:title=" ">
<path fill="none" stroke="#63b8ff" d="M752.5,-193.71C752.5,-185.48 752.5,-176.01 752.5,-168.28"/>
<polygon fill="#63b8ff" stroke="#63b8ff" points="749,-193.89 752.5,-203.89 756,-193.89 749,-193.89"/>
</a>
</g>
</g>
<!-- Node10 -->
<g id="Node000010" class="node">
<title>Node10</title>
<g id="a_Node000010"><a xlink:href="../../dd/d29/_i_section3_d_8h.html" target="_top" xlink:title=" ">
<polygon fill="white" stroke="#666666" points="1086,-162 867,-162 867,-142 1086,-142 1086,-162"/>
<text text-anchor="middle" x="976.5" y="-149.2" font-family="Consolas" font-size="11.00">Section/Section3D/ISection3D.h</text>
</a>
</g>
</g>
<!-- Node1&#45;&gt;Node10 -->
<g id="edge9_Node000001_Node000010" class="edge">
<title>Node1&#45;&gt;Node10</title>
<g id="a_edge9_Node000001_Node000010"><a xlink:title=" ">
<path fill="none" stroke="#63b8ff" d="M796.41,-201.24C839.37,-189.73 903.87,-172.45 942.89,-162"/>
<polygon fill="#63b8ff" stroke="#63b8ff" points="795.27,-197.92 786.52,-203.89 797.09,-204.68 795.27,-197.92"/>
</a>
</g>
</g>
<!-- Node14 -->
<g id="Node000014" class="node">
<title>Node14</title>
<g id="a_Node000014"><a xlink:href="../../d7/dfd/_rectangle3_d_8h.html" target="_top" xlink:title=" ">
<polygon fill="white" stroke="#666666" points="1330.5,-162 1104.5,-162 1104.5,-142 1330.5,-142 1330.5,-162"/>
<text text-anchor="middle" x="1217.5" y="-149.2" font-family="Consolas" font-size="11.00">Section/Section3D/Rectangle3D.h</text>
</a>
</g>
</g>
<!-- Node1&#45;&gt;Node14 -->
<g id="edge13_Node000001_Node000014" class="edge">
<title>Node1&#45;&gt;Node14</title>
<g id="a_edge13_Node000001_Node000014"><a xlink:title=" ">
<path fill="none" stroke="#63b8ff" d="M832.38,-202.69C921.11,-191.24 1062.96,-172.94 1147.49,-162.03"/>
<polygon fill="#63b8ff" stroke="#63b8ff" points="831.84,-199.23 822.37,-203.98 832.73,-206.18 831.84,-199.23"/>
</a>
</g>
</g>
<!-- Node16 -->
<g id="Node000016" class="node">
<title>Node16</title>
<g id="a_Node000016"><a xlink:href="../../da/d86/_section3_d_8cpp.html" target="_top" xlink:title=" ">
<polygon fill="white" stroke="#666666" points="1540.5,-168 1348.5,-168 1348.5,-136 1540.5,-136 1540.5,-168"/>
<text text-anchor="start" x="1356.5" y="-155.2" font-family="Consolas" font-size="11.00">Section/Section3D/Section3</text>
<text text-anchor="middle" x="1444.5" y="-143.2" font-family="Consolas" font-size="11.00">D.cpp</text>
</a>
</g>
</g>
<!-- Node1&#45;&gt;Node16 -->
<g id="edge15_Node000001_Node000016" class="edge">
<title>Node1&#45;&gt;Node16</title>
<g id="a_edge15_Node000001_Node000016"><a xlink:title=" ">
<path fill="none" stroke="#63b8ff" d="M868.92,-206.33C987.51,-199 1176.61,-185.86 1339.5,-168 1342.43,-167.68 1345.4,-167.34 1348.4,-166.98"/>
<polygon fill="#63b8ff" stroke="#63b8ff" points="868.5,-202.84 858.74,-206.95 868.93,-209.83 868.5,-202.84"/>
</a>
</g>
</g>
<!-- Node3 -->
<g id="Node000003" class="node">
<title>Node3</title>
<g id="a_Node000003"><a xlink:href="../../df/dbc/_box3_d_8cpp.html" target="_top" xlink:title=" ">
<polygon fill="white" stroke="#666666" points="199,-94 0,-94 0,-74 199,-74 199,-94"/>
<text text-anchor="middle" x="99.5" y="-81.2" font-family="Consolas" font-size="11.00">Section/Section3D/Box3D.cpp</text>
</a>
</g>
</g>
<!-- Node2&#45;&gt;Node3 -->
<g id="edge2_Node000002_Node000003" class="edge">
<title>Node2&#45;&gt;Node3</title>
<g id="a_edge2_Node000002_Node000003"><a xlink:title=" ">
<path fill="none" stroke="#63b8ff" d="M104.44,-131.58C103.13,-119.19 101.49,-103.72 100.47,-94.1"/>
<polygon fill="#63b8ff" stroke="#63b8ff" points="100.99,-132.25 105.53,-141.82 107.95,-131.51 100.99,-132.25"/>
</a>
</g>
</g>
<!-- Node5 -->
<g id="Node000005" class="node">
<title>Node5</title>
<g id="a_Node000005"><a xlink:href="../../d3/d82/_cell3_d_8cpp.html" target="_top" xlink:title=" ">
<polygon fill="white" stroke="#666666" points="423.5,-94 217.5,-94 217.5,-74 423.5,-74 423.5,-94"/>
<text text-anchor="middle" x="320.5" y="-81.2" font-family="Consolas" font-size="11.00">Section/Section3D/Cell3D.cpp</text>
</a>
</g>
</g>
<!-- Node4&#45;&gt;Node5 -->
<g id="edge4_Node000004_Node000005" class="edge">
<title>Node4&#45;&gt;Node5</title>
<g id="a_edge4_Node000004_Node000005"><a xlink:title=" ">
<path fill="none" stroke="#63b8ff" d="M319.09,-131.58C319.46,-119.19 319.93,-103.72 320.22,-94.1"/>
<polygon fill="#63b8ff" stroke="#63b8ff" points="315.58,-131.72 318.78,-141.82 322.58,-131.93 315.58,-131.72"/>
</a>
</g>
</g>
<!-- Node7 -->
<g id="Node000007" class="node">
<title>Node7</title>
<g id="a_Node000007"><a xlink:href="../../d9/da8/_circle3_d_8cpp.html" target="_top" xlink:title=" ">
<polygon fill="white" stroke="#666666" points="628,-100 443,-100 443,-68 628,-68 628,-100"/>
<text text-anchor="start" x="451" y="-87.2" font-family="Consolas" font-size="11.00">Section/Section3D/Circle3</text>
<text text-anchor="middle" x="535.5" y="-75.2" font-family="Consolas" font-size="11.00">D.cpp</text>
</a>
</g>
</g>
<!-- Node6&#45;&gt;Node7 -->
<g id="edge6_Node000006_Node000007" class="edge">
<title>Node6&#45;&gt;Node7</title>
<g id="a_edge6_Node000006_Node000007"><a xlink:title=" ">
<path fill="none" stroke="#63b8ff" d="M535.5,-131.62C535.5,-121.59 535.5,-109.53 535.5,-100.18"/>
<polygon fill="#63b8ff" stroke="#63b8ff" points="532,-131.82 535.5,-141.82 539,-131.82 532,-131.82"/>
</a>
</g>
</g>
<!-- Node9 -->
<g id="Node000009" class="node">
<title>Node9</title>
<g id="a_Node000009"><a xlink:href="../../d0/d4a/_circular_hollow3_d_8cpp.html" target="_top" xlink:title=" ">
<polygon fill="white" stroke="#666666" points="843.5,-100 651.5,-100 651.5,-68 843.5,-68 843.5,-100"/>
<text text-anchor="start" x="659.5" y="-87.2" font-family="Consolas" font-size="11.00">Section/Section3D/Circular</text>
<text text-anchor="middle" x="747.5" y="-75.2" font-family="Consolas" font-size="11.00">Hollow3D.cpp</text>
</a>
</g>
</g>
<!-- Node8&#45;&gt;Node9 -->
<g id="edge8_Node000008_Node000009" class="edge">
<title>Node8&#45;&gt;Node9</title>
<g id="a_edge8_Node000008_Node000009"><a xlink:title=" ">
<path fill="none" stroke="#63b8ff" d="M750.56,-125.45C749.92,-116.93 749.22,-107.71 748.65,-100.22"/>
<polygon fill="#63b8ff" stroke="#63b8ff" points="747.09,-125.99 751.34,-135.69 754.07,-125.46 747.09,-125.99"/>
</a>
</g>
</g>
<!-- Node11 -->
<g id="Node000011" class="node">
<title>Node11</title>
<g id="a_Node000011"><a xlink:href="../../db/d81/_i_section3_d_8cpp.html" target="_top" xlink:title=" ">
<polygon fill="white" stroke="#666666" points="1061,-100 862,-100 862,-68 1061,-68 1061,-100"/>
<text text-anchor="start" x="870" y="-87.2" font-family="Consolas" font-size="11.00">Section/Section3D/ISection3</text>
<text text-anchor="middle" x="961.5" y="-75.2" font-family="Consolas" font-size="11.00">D.cpp</text>
</a>
</g>
</g>
<!-- Node10&#45;&gt;Node11 -->
<g id="edge10_Node000010_Node000011" class="edge">
<title>Node10&#45;&gt;Node11</title>
<g id="a_edge10_Node000010_Node000011"><a xlink:title=" ">
<path fill="none" stroke="#63b8ff" d="M972.17,-131.94C969.87,-121.85 967.1,-109.63 964.95,-100.18"/>
<polygon fill="#63b8ff" stroke="#63b8ff" points="968.79,-132.85 974.41,-141.82 975.61,-131.3 968.79,-132.85"/>
</a>
</g>
</g>
<!-- Node12 -->
<g id="Node000012" class="node">
<title>Node12</title>
<g id="a_Node000012"><a xlink:href="../../d0/d22/_t_section3_d_8h.html" target="_top" xlink:title=" ">
<polygon fill="white" stroke="#666666" points="1298,-94 1079,-94 1079,-74 1298,-74 1298,-94"/>
<text text-anchor="middle" x="1188.5" y="-81.2" font-family="Consolas" font-size="11.00">Section/Section3D/TSection3D.h</text>
</a>
</g>
</g>
<!-- Node10&#45;&gt;Node12 -->
<g id="edge11_Node000010_Node000012" class="edge">
<title>Node10&#45;&gt;Node12</title>
<g id="a_edge11_Node000010_Node000012"><a xlink:title=" ">
<path fill="none" stroke="#63b8ff" d="M1015.32,-138.91C1056.95,-125.96 1122.08,-105.68 1159.48,-94.04"/>
<polygon fill="#63b8ff" stroke="#63b8ff" points="1014.04,-135.65 1005.53,-141.96 1016.12,-142.33 1014.04,-135.65"/>
</a>
</g>
</g>
<!-- Node13 -->
<g id="Node000013" class="node">
<title>Node13</title>
<g id="a_Node000013"><a xlink:href="../../d0/d45/_t_section3_d_8cpp.html" target="_top" xlink:title=" ">
<polygon fill="white" stroke="#666666" points="1288,-32 1089,-32 1089,0 1288,0 1288,-32"/>
<text text-anchor="start" x="1097" y="-19.2" font-family="Consolas" font-size="11.00">Section/Section3D/TSection3</text>
<text text-anchor="middle" x="1188.5" y="-7.2" font-family="Consolas" font-size="11.00">D.cpp</text>
</a>
</g>
</g>
<!-- Node12&#45;&gt;Node13 -->
<g id="edge12_Node000012_Node000013" class="edge">
<title>Node12&#45;&gt;Node13</title>
<g id="a_edge12_Node000012_Node000013"><a xlink:title=" ">
<path fill="none" stroke="#63b8ff" d="M1188.5,-63.62C1188.5,-53.59 1188.5,-41.53 1188.5,-32.18"/>
<polygon fill="#63b8ff" stroke="#63b8ff" points="1185,-63.82 1188.5,-73.82 1192,-63.82 1185,-63.82"/>
</a>
</g>
</g>
<!-- Node15 -->
<g id="Node000015" class="node">
<title>Node15</title>
<g id="a_Node000015"><a xlink:href="../../de/d41/_rectangle3_d_8cpp.html" target="_top" xlink:title=" ">
<polygon fill="white" stroke="#666666" points="1522.5,-100 1316.5,-100 1316.5,-68 1522.5,-68 1522.5,-100"/>
<text text-anchor="start" x="1324.5" y="-87.2" font-family="Consolas" font-size="11.00">Section/Section3D/Rectangle3</text>
<text text-anchor="middle" x="1419.5" y="-75.2" font-family="Consolas" font-size="11.00">D.cpp</text>
</a>
</g>
</g>
<!-- Node14&#45;&gt;Node15 -->
<g id="edge14_Node000014_Node000015" class="edge">
<title>Node14&#45;&gt;Node15</title>
<g id="a_edge14_Node000014_Node000015"><a xlink:title=" ">
<path fill="none" stroke="#63b8ff" d="M1255,-138.75C1288.4,-127.84 1337.38,-111.83 1373.21,-100.12"/>
<polygon fill="#63b8ff" stroke="#63b8ff" points="1253.58,-135.53 1245.16,-141.96 1255.76,-142.18 1253.58,-135.53"/>
</a>
</g>
</g>
</g>
</svg>

<g id="navigator" transform="translate(0 0)" fill="#404254">
  <rect fill="#f2f5e9" fill-opacity="0.5" stroke="#606060" stroke-width=".5" x="0" y="0" width="60" height="60"/>
  <use id="zoomplus" xlink:href="#zoomPlus" x="17" y="9" onmousedown="handleZoom(evt,'in')"/>
  <use id="zoomminus" xlink:href="#zoomMin" x="42" y="9" onmousedown="handleZoom(evt,'out')"/>
  <use id="reset" xlink:href="#resetDef" x="30" y="36" onmousedown="handleReset()"/>
   <use id="arrowup" xlink:href="#arrowUp" x="0" y="0" onmousedown="handlePan(0,-1)"/>
  <use id="arrowright" xlink:href="#arrowRight" x="0" y="0" onmousedown="handlePan(1,0)"/>
  <use id="arrowdown" xlink:href="#arrowDown" x="0" y="0" onmousedown="handlePan(0,1)"/>
  <use id="arrowleft" xlink:href="#arrowLeft" x="0" y="0" onmousedown="handlePan(-1,0)"/>
</g>
<svg viewBox="0 0 15 15" width="100%" height="30px" preserveAspectRatio="xMaxYMin meet">
 <g id="arrow_out" transform="scale(0.3 0.3)">
  <a xlink:href="_section3_d_8h__dep__incl_org.svg" target="_base">
   <rect id="button" ry="5" rx="5" y="6" x="6" height="38" width="38"
        fill="#f2f5e9" fill-opacity="0.5" stroke="#606060" stroke-width="1.0"/>
   <path id="arrow"
     d="M 11.500037,31.436501 C 11.940474,20.09759 22.043105,11.32322 32.158766,21.979434 L 37.068811,17.246167 C 37.068811,17.246167 37.088388,32 37.088388,32 L 22.160133,31.978069 C 22.160133,31.978069 26.997745,27.140456 26.997745,27.140456 C 18.528582,18.264221 13.291696,25.230495 11.500037,31.436501 z"
     style="fill:#404040;"/>
  </a>
 </g>
</svg>

<style type='text/css'>
<![CDATA[
[data-mouse-over-selected='false'] { opacity: 0.7; }
[data-mouse-over-selected='true']  { opacity: 1.0; }
]]>
</style>
<script type="application/ecmascript"><![CDATA[
document.addEventListener('DOMContentLoaded', (event) => {
  highlightEdges();
  highlightAdjacentNodes();
});
]]></script>
</svg>
