<svg xmlns="http://www.w3.org/2000/svg" xmlns:xlink="http://www.w3.org/1999/xlink" width="208" height="992pt" viewBox="0 0 156 992"><g class="graph" transform="translate(4 988)"><title>DomainBase</title><g class="node"><title>Node1</title><a xlink:title="The DomainBase class is a template.">
<path fill="#999" stroke="transparent" d="M148-472H0v224h148z"/>
<text x="40" y="-459.2" font-family="Consolas" font-size="11">DomainBase</text>
<text x="70.5" y="-443.2" font-family="Consolas" font-size="11"> </text>
<text x="4" y="-427.2" font-family="Consolas" font-size="11">+</text>
<text x="15" y="-427.2" font-family="Consolas" font-size="11">DomainBase()</text>
<text x="4" y="-411.2" font-family="Consolas" font-size="11">+</text>
<text x="15" y="-411.2" font-family="Consolas" font-size="11">set_factory()</text>
<text x="4" y="-395.2" font-family="Consolas" font-size="11">+</text>
<text x="15" y="-395.2" font-family="Consolas" font-size="11">get_factory()</text>
<text x="4" y="-379.2" font-family="Consolas" font-size="11">+</text>
<text x="15" y="-379.2" font-family="Consolas" font-size="11">insert()</text>
<text x="4" y="-363.2" font-family="Consolas" font-size="11">+</text>
<text x="15" y="-363.2" font-family="Consolas" font-size="11">wait()</text>
<text x="4" y="-347.2" font-family="Consolas" font-size="11">+</text>
<text x="15" y="-347.2" font-family="Consolas" font-size="11">insert()</text>
<text x="4" y="-331.2" font-family="Consolas" font-size="11">+</text>
<text x="15" y="-331.2" font-family="Consolas" font-size="11">get_external_module</text>
<text x="15" y="-319.2" font-family="Consolas" font-size="11">_pool()</text>
<text x="4" y="-303.2" font-family="Consolas" font-size="11">+</text>
<text x="15" y="-303.2" font-family="Consolas" font-size="11">insert()</text>
<text x="4" y="-287.2" font-family="Consolas" font-size="11">+</text>
<text x="15" y="-287.2" font-family="Consolas" font-size="11">insert()</text>
<text x="4" y="-271.2" font-family="Consolas" font-size="11">+</text>
<text x="15" y="-271.2" font-family="Consolas" font-size="11">insert()</text>
<text x="15" y="-255.2" font-family="Consolas" font-size="11">and 342 more...</text>
<path fill="#666" stroke="#666" d="M0-454h148z"/>
<path fill="#666" stroke="#666" d="M0-438h148z"/>
<path fill="none" stroke="#666" d="M0-248v-224h148v224z"/>
</a></g><g class="node"><title>Node4</title><a xlink:href="../../d4/df4/class_domain.html" xlink:title="A Domain class holds all FE model components." target="_top">
<path fill="#fff" stroke="transparent" d="M134.5-212h-121V0h121z"/>
<text x="54" y="-199.2" font-family="Consolas" font-size="11">Domain</text>
<text x="71" y="-183.2" font-family="Consolas" font-size="11"> </text>
<text x="18" y="-167.2" font-family="Consolas" font-size="11">+</text>
<text x="29" y="-167.2" font-family="Consolas" font-size="11">Domain()</text>
<text x="18" y="-151.2" font-family="Consolas" font-size="11">+</text>
<text x="29" y="-151.2" font-family="Consolas" font-size="11">Domain()</text>
<text x="18" y="-135.2" font-family="Consolas" font-size="11">+</text>
<text x="29" y="-135.2" font-family="Consolas" font-size="11">Domain()</text>
<text x="18" y="-119.2" font-family="Consolas" font-size="11">+</text>
<text x="29" y="-119.2" font-family="Consolas" font-size="11">operator=()</text>
<text x="18" y="-103.2" font-family="Consolas" font-size="11">+</text>
<text x="29" y="-103.2" font-family="Consolas" font-size="11">operator=()</text>
<text x="18" y="-87.2" font-family="Consolas" font-size="11">+</text>
<text x="29" y="-87.2" font-family="Consolas" font-size="11">~Domain()</text>
<text x="18" y="-71.2" font-family="Consolas" font-size="11">+</text>
<text x="29" y="-71.2" font-family="Consolas" font-size="11">set_factory()</text>
<text x="18" y="-55.2" font-family="Consolas" font-size="11">+</text>
<text x="29" y="-55.2" font-family="Consolas" font-size="11">get_factory()</text>
<text x="18" y="-39.2" font-family="Consolas" font-size="11">+</text>
<text x="29" y="-39.2" font-family="Consolas" font-size="11">insert()</text>
<text x="18" y="-23.2" font-family="Consolas" font-size="11">+</text>
<text x="29" y="-23.2" font-family="Consolas" font-size="11">wait()</text>
<text x="29" y="-7.2" font-family="Consolas" font-size="11">and 242 more...</text>
<path fill="#666" stroke="#666" d="M14-194h121z"/>
<path fill="#666" stroke="#666" d="M14-178h121z"/>
<path fill="none" stroke="#666" d="M13.5 0v-212h121V0z"/>
</a></g><g class="edge"><title>Node1-&gt;Node4</title><a>
<path fill="none" stroke="#63b8ff" d="M74-237.69v25.66"/>
<path fill="none" stroke="#63b8ff" d="m70.5-237.74 3.5-10 3.5 10z"/>
</a></g><g class="node"><title>Node2</title><a xlink:href="../../db/db8/class_unique_tag.html" xlink:title="Label objects that cannot be copied." target="_top">
<path fill="#fff" stroke="transparent" d="M124.5-672h-101v164h101z"/>
<text x="44" y="-659.2" font-family="Consolas" font-size="11">UniqueTag</text>
<text x="71" y="-643.2" font-family="Consolas" font-size="11"> </text>
<text x="28" y="-627.2" font-family="Consolas" font-size="11">+</text>
<text x="39" y="-627.2" font-family="Consolas" font-size="11">UniqueTag()</text>
<text x="28" y="-611.2" font-family="Consolas" font-size="11">+</text>
<text x="39" y="-611.2" font-family="Consolas" font-size="11">UniqueTag()</text>
<text x="28" y="-595.2" font-family="Consolas" font-size="11">+</text>
<text x="39" y="-595.2" font-family="Consolas" font-size="11">operator=()</text>
<text x="28" y="-579.2" font-family="Consolas" font-size="11">+</text>
<text x="39" y="-579.2" font-family="Consolas" font-size="11">operator=()</text>
<text x="28" y="-563.2" font-family="Consolas" font-size="11">+</text>
<text x="39" y="-563.2" font-family="Consolas" font-size="11">~UniqueTag()</text>
<text x="28" y="-547.2" font-family="Consolas" font-size="11">+</text>
<text x="39" y="-547.2" font-family="Consolas" font-size="11">Tag()</text>
<text x="28" y="-531.2" font-family="Consolas" font-size="11">+</text>
<text x="39" y="-531.2" font-family="Consolas" font-size="11">Tag()</text>
<text x="28" y="-515.2" font-family="Consolas" font-size="11">+</text>
<text x="39" y="-515.2" font-family="Consolas" font-size="11">Tag()</text>
<path fill="#666" stroke="#666" d="M24-654h101z"/>
<path fill="#666" stroke="#666" d="M24-638h101z"/>
<path fill="none" stroke="#666" d="M23.5-508v-164h101v164z"/>
</a></g><g class="edge"><title>Node2-&gt;Node1</title><a>
<path fill="none" stroke="#63b8ff" d="M74-497.76v25.69"/>
<path fill="none" stroke="#63b8ff" d="m70.5-497.97 3.5-10 3.5 10z"/>
</a></g><g class="node"><title>Node3</title><a xlink:href="../../d0/d57/class_tag.html" xlink:title="A base Tag class." target="_top">
<path fill="#fff" stroke="transparent" d="M124.5-984h-101v276h101z"/>
<text x="64" y="-971.2" font-family="Consolas" font-size="11">Tag</text>
<text x="71" y="-955.2" font-family="Consolas" font-size="11"> </text>
<text x="28" y="-939.2" font-family="Consolas" font-size="11">+</text>
<text x="39" y="-939.2" font-family="Consolas" font-size="11">Tag()</text>
<text x="28" y="-923.2" font-family="Consolas" font-size="11">+</text>
<text x="39" y="-923.2" font-family="Consolas" font-size="11">Tag()</text>
<text x="28" y="-907.2" font-family="Consolas" font-size="11">+</text>
<text x="39" y="-907.2" font-family="Consolas" font-size="11">Tag()</text>
<text x="28" y="-891.2" font-family="Consolas" font-size="11">+</text>
<text x="39" y="-891.2" font-family="Consolas" font-size="11">operator=()</text>
<text x="28" y="-875.2" font-family="Consolas" font-size="11">+</text>
<text x="39" y="-875.2" font-family="Consolas" font-size="11">operator=()</text>
<text x="28" y="-859.2" font-family="Consolas" font-size="11">+</text>
<text x="39" y="-859.2" font-family="Consolas" font-size="11">~Tag()</text>
<text x="28" y="-843.2" font-family="Consolas" font-size="11">+</text>
<text x="39" y="-843.2" font-family="Consolas" font-size="11">set_tag()</text>
<text x="28" y="-827.2" font-family="Consolas" font-size="11">+</text>
<text x="39" y="-827.2" font-family="Consolas" font-size="11">get_tag()</text>
<text x="28" y="-811.2" font-family="Consolas" font-size="11">+</text>
<text x="39" y="-811.2" font-family="Consolas" font-size="11">enable()</text>
<text x="28" y="-795.2" font-family="Consolas" font-size="11">+</text>
<text x="39" y="-795.2" font-family="Consolas" font-size="11">disable()</text>
<text x="28" y="-779.2" font-family="Consolas" font-size="11">+</text>
<text x="39" y="-779.2" font-family="Consolas" font-size="11">guard()</text>
<text x="28" y="-763.2" font-family="Consolas" font-size="11">+</text>
<text x="39" y="-763.2" font-family="Consolas" font-size="11">unguard()</text>
<text x="28" y="-747.2" font-family="Consolas" font-size="11">+</text>
<text x="39" y="-747.2" font-family="Consolas" font-size="11">is_active()</text>
<text x="28" y="-731.2" font-family="Consolas" font-size="11">+</text>
<text x="39" y="-731.2" font-family="Consolas" font-size="11">is_guarded()</text>
<text x="28" y="-715.2" font-family="Consolas" font-size="11">+</text>
<text x="39" y="-715.2" font-family="Consolas" font-size="11">print()</text>
<path fill="#666" stroke="#666" d="M24-966h101z"/>
<path fill="#666" stroke="#666" d="M24-950h101z"/>
<path fill="none" stroke="#666" d="M23.5-708v-276h101v276z"/>
</a></g><g class="edge"><title>Node3-&gt;Node2</title><a>
<path fill="none" stroke="#63b8ff" d="M74-697.72v25.49"/>
<path fill="none" stroke="#63b8ff" d="m70.5-697.96 3.5-10 3.5 10z"/>
</a></g></g></svg>