<?xml version="1.0" encoding="UTF-8" standalone="no"?>
<!DOCTYPE svg PUBLIC "-//W3C//DTD SVG 1.1//EN"
 "http://www.w3.org/Graphics/SVG/1.1/DTD/svg11.dtd">
<!-- Generated by graphviz version 2.43.0 (0)
 -->
<!-- Title: Material/Material1D/Degradation/CustomStrainDegradation.h Pages: 1 -->
<svg width="625pt" height="388pt"
 viewBox="0.00 0.00 625.00 388.00" xmlns="http://www.w3.org/2000/svg" xmlns:xlink="http://www.w3.org/1999/xlink">
<g id="graph0" class="graph" transform="scale(1 1) rotate(0) translate(4 384)">
<title>Material/Material1D/Degradation/CustomStrainDegradation.h</title>
<!-- Node1 -->
<g id="Node000001" class="node">
<title>Node1</title>
<g id="a_Node000001"><a xlink:title=" ">
<polygon fill="#999999" stroke="#666666" points="347,-380 74,-380 74,-348 347,-348 347,-380"/>
<text text-anchor="start" x="82" y="-367.2" font-family="Consolas" font-size="11.00">Material/Material1D</text>
<text text-anchor="middle" x="210.5" y="-355.2" font-family="Consolas" font-size="11.00">/Degradation/CustomStrainDegradation.h</text>
</a>
</g>
</g>
<!-- Node2 -->
<g id="Node000002" class="node">
<title>Node2</title>
<g id="a_Node000002"><a xlink:href="../../d5/d53/_degradation_8h.html" target="_top" xlink:title=" ">
<polygon fill="white" stroke="#666666" points="262.5,-312 158.5,-312 158.5,-292 262.5,-292 262.5,-312"/>
<text text-anchor="middle" x="210.5" y="-299.2" font-family="Consolas" font-size="11.00">Degradation.h</text>
</a>
</g>
</g>
<!-- Node1&#45;&gt;Node2 -->
<g id="edge1_Node000001_Node000002" class="edge">
<title>Node1&#45;&gt;Node2</title>
<g id="a_edge1_Node000001_Node000002"><a xlink:title=" ">
<path fill="none" stroke="#63b8ff" d="M210.5,-347.86C210.5,-340.13 210.5,-330.63 210.5,-322.37"/>
<polygon fill="#63b8ff" stroke="#63b8ff" points="214,-322.15 210.5,-312.15 207,-322.15 214,-322.15"/>
</a>
</g>
</g>
<!-- Node14 -->
<g id="Node000014" class="node">
<title>Node14</title>
<g id="a_Node000014"><a xlink:href="../../d4/da0/_resource_holder_8h.html" target="_top" xlink:title=" ">
<polygon fill="white" stroke="#666666" points="179,-250 0,-250 0,-230 179,-230 179,-250"/>
<text text-anchor="middle" x="89.5" y="-237.2" font-family="Consolas" font-size="11.00">Toolbox/ResourceHolder.h</text>
</a>
</g>
</g>
<!-- Node1&#45;&gt;Node14 -->
<g id="edge18_Node000001_Node000014" class="edge">
<title>Node1&#45;&gt;Node14</title>
<g id="a_edge18_Node000001_Node000014"><a xlink:title=" ">
<path fill="none" stroke="#63b8ff" d="M190.8,-347.96C178.47,-338.21 162.52,-324.95 149.5,-312 132.26,-294.85 114.52,-273.28 102.85,-258.44"/>
<polygon fill="#63b8ff" stroke="#63b8ff" points="105.32,-255.92 96.42,-250.18 99.79,-260.22 105.32,-255.92"/>
</a>
</g>
</g>
<!-- Node15 -->
<g id="Node000015" class="node">
<title>Node15</title>
<g id="a_Node000015"><a xlink:href="../../d6/d99/_expression_8h.html" target="_top" xlink:title=" ">
<polygon fill="white" stroke="#666666" points="446.5,-312 294.5,-312 294.5,-292 446.5,-292 446.5,-312"/>
<text text-anchor="middle" x="370.5" y="-299.2" font-family="Consolas" font-size="11.00">Toolbox/Expression.h</text>
</a>
</g>
</g>
<!-- Node1&#45;&gt;Node15 -->
<g id="edge15_Node000001_Node000015" class="edge">
<title>Node1&#45;&gt;Node15</title>
<g id="a_edge15_Node000001_Node000015"><a xlink:title=" ">
<path fill="none" stroke="#63b8ff" d="M250.87,-347.86C277.35,-337.93 311.58,-325.09 336.64,-315.7"/>
<polygon fill="#63b8ff" stroke="#63b8ff" points="337.96,-318.94 346.09,-312.15 335.5,-312.39 337.96,-318.94"/>
</a>
</g>
</g>
<!-- Node3 -->
<g id="Node000003" class="node">
<title>Node3</title>
<g id="a_Node000003"><a xlink:href="../../d4/d7c/_material1_d_8h.html" target="_top" xlink:title=" ">
<polygon fill="white" stroke="#666666" points="342,-256 197,-256 197,-224 342,-224 342,-256"/>
<text text-anchor="start" x="205" y="-243.2" font-family="Consolas" font-size="11.00">Material/Material1D</text>
<text text-anchor="middle" x="269.5" y="-231.2" font-family="Consolas" font-size="11.00">/Material1D.h</text>
</a>
</g>
</g>
<!-- Node2&#45;&gt;Node3 -->
<g id="edge2_Node000002_Node000003" class="edge">
<title>Node2&#45;&gt;Node3</title>
<g id="a_edge2_Node000002_Node000003"><a xlink:title=" ">
<path fill="none" stroke="#63b8ff" d="M219.46,-291.89C226.86,-284.36 237.68,-273.36 247.37,-263.51"/>
<polygon fill="#63b8ff" stroke="#63b8ff" points="249.96,-265.86 254.48,-256.28 244.97,-260.95 249.96,-265.86"/>
</a>
</g>
</g>
<!-- Node2&#45;&gt;Node14 -->
<g id="edge13_Node000002_Node000014" class="edge">
<title>Node2&#45;&gt;Node14</title>
<g id="a_edge13_Node000002_Node000014"><a xlink:title=" ">
<path fill="none" stroke="#63b8ff" d="M192.12,-291.89C172.11,-281.96 139.88,-265.98 116.88,-254.58"/>
<polygon fill="#63b8ff" stroke="#63b8ff" points="118.17,-251.31 107.65,-250 115.06,-257.58 118.17,-251.31"/>
</a>
</g>
</g>
<!-- Node4 -->
<g id="Node000004" class="node">
<title>Node4</title>
<g id="a_Node000004"><a xlink:href="../../d3/d09/_material_8h.html" target="_top" xlink:title=" ">
<polygon fill="white" stroke="#666666" points="342,-188 197,-188 197,-168 342,-168 342,-188"/>
<text text-anchor="middle" x="269.5" y="-175.2" font-family="Consolas" font-size="11.00">Material/Material.h</text>
</a>
</g>
</g>
<!-- Node3&#45;&gt;Node4 -->
<g id="edge3_Node000003_Node000004" class="edge">
<title>Node3&#45;&gt;Node4</title>
<g id="a_edge3_Node000003_Node000004"><a xlink:title=" ">
<path fill="none" stroke="#63b8ff" d="M269.5,-223.86C269.5,-216.13 269.5,-206.63 269.5,-198.37"/>
<polygon fill="#63b8ff" stroke="#63b8ff" points="273,-198.15 269.5,-188.15 266,-198.15 273,-198.15"/>
</a>
</g>
</g>
<!-- Node5 -->
<g id="Node000005" class="node">
<title>Node5</title>
<g id="a_Node000005"><a xlink:href="../../d2/d4a/_tag_8h.html" target="_top" xlink:title=" ">
<polygon fill="white" stroke="#666666" points="414.5,-132 316.5,-132 316.5,-112 414.5,-112 414.5,-132"/>
<text text-anchor="middle" x="365.5" y="-119.2" font-family="Consolas" font-size="11.00">Domain/Tag.h</text>
</a>
</g>
</g>
<!-- Node4&#45;&gt;Node5 -->
<g id="edge4_Node000004_Node000005" class="edge">
<title>Node4&#45;&gt;Node5</title>
<g id="a_edge4_Node000004_Node000005"><a xlink:title=" ">
<path fill="none" stroke="#63b8ff" d="M285.79,-167.84C300.77,-159.41 323.22,-146.78 340.48,-137.07"/>
<polygon fill="#63b8ff" stroke="#63b8ff" points="342.46,-139.98 349.46,-132.03 339.02,-133.88 342.46,-139.98"/>
</a>
</g>
</g>
<!-- Node13 -->
<g id="Node000013" class="node">
<title>Node13</title>
<g id="a_Node000013"><a xlink:title=" ">
<polygon fill="#e0e0e0" stroke="#999999" points="294.5,-132 244.5,-132 244.5,-112 294.5,-112 294.5,-132"/>
<text text-anchor="middle" x="269.5" y="-119.2" font-family="Consolas" font-size="11.00">array</text>
</a>
</g>
</g>
<!-- Node4&#45;&gt;Node13 -->
<g id="edge12_Node000004_Node000013" class="edge">
<title>Node4&#45;&gt;Node13</title>
<g id="a_edge12_Node000004_Node000013"><a xlink:title=" ">
<path fill="none" stroke="#63b8ff" d="M269.5,-167.59C269.5,-160.7 269.5,-151.1 269.5,-142.57"/>
<polygon fill="#63b8ff" stroke="#63b8ff" points="273,-142.3 269.5,-132.3 266,-142.3 273,-142.3"/>
</a>
</g>
</g>
<!-- Node6 -->
<g id="Node000006" class="node">
<title>Node6</title>
<g id="a_Node000006"><a xlink:href="../../d8/d8f/suan_pan_8h.html" target="_top" xlink:title=" ">
<polygon fill="white" stroke="#666666" points="404,-76 327,-76 327,-56 404,-56 404,-76"/>
<text text-anchor="middle" x="365.5" y="-63.2" font-family="Consolas" font-size="11.00">suanPan.h</text>
</a>
</g>
</g>
<!-- Node5&#45;&gt;Node6 -->
<g id="edge5_Node000005_Node000006" class="edge">
<title>Node5&#45;&gt;Node6</title>
<g id="a_edge5_Node000005_Node000006"><a xlink:title=" ">
<path fill="none" stroke="#63b8ff" d="M365.5,-111.59C365.5,-104.7 365.5,-95.1 365.5,-86.57"/>
<polygon fill="#63b8ff" stroke="#63b8ff" points="369,-86.3 365.5,-76.3 362,-86.3 369,-86.3"/>
</a>
</g>
</g>
<!-- Node7 -->
<g id="Node000007" class="node">
<title>Node7</title>
<g id="a_Node000007"><a xlink:title=" ">
<polygon fill="#e0e0e0" stroke="#999999" points="617,-20 546,-20 546,0 617,0 617,-20"/>
<text text-anchor="middle" x="581.5" y="-7.2" font-family="Consolas" font-size="11.00">iostream</text>
</a>
</g>
</g>
<!-- Node6&#45;&gt;Node7 -->
<g id="edge6_Node000006_Node000007" class="edge">
<title>Node6&#45;&gt;Node7</title>
<g id="a_edge6_Node000006_Node000007"><a xlink:title=" ">
<path fill="none" stroke="#63b8ff" d="M401.65,-55.96C438.63,-46.72 496.18,-32.33 536.18,-22.33"/>
<polygon fill="#63b8ff" stroke="#63b8ff" points="537.09,-25.71 545.95,-19.89 535.4,-18.92 537.09,-25.71"/>
</a>
</g>
</g>
<!-- Node8 -->
<g id="Node000008" class="node">
<title>Node8</title>
<g id="a_Node000008"><a xlink:title=" ">
<polygon fill="#e0e0e0" stroke="#999999" points="247,-20 136,-20 136,0 247,0 247,-20"/>
<text text-anchor="middle" x="191.5" y="-7.2" font-family="Consolas" font-size="11.00">armadillo/arma</text>
</a>
</g>
</g>
<!-- Node6&#45;&gt;Node8 -->
<g id="edge7_Node000006_Node000008" class="edge">
<title>Node6&#45;&gt;Node8</title>
<g id="a_edge7_Node000006_Node000008"><a xlink:title=" ">
<path fill="none" stroke="#63b8ff" d="M336.38,-55.96C307.39,-46.97 262.73,-33.11 230.65,-23.15"/>
<polygon fill="#63b8ff" stroke="#63b8ff" points="231.31,-19.69 220.72,-20.07 229.23,-26.37 231.31,-19.69"/>
</a>
</g>
</g>
<!-- Node9 -->
<g id="Node000009" class="node">
<title>Node9</title>
<g id="a_Node000009"><a xlink:title=" ">
<polygon fill="#e0e0e0" stroke="#999999" points="349.5,-20 265.5,-20 265.5,0 349.5,0 349.5,-20"/>
<text text-anchor="middle" x="307.5" y="-7.2" font-family="Consolas" font-size="11.00">filesystem</text>
</a>
</g>
</g>
<!-- Node6&#45;&gt;Node9 -->
<g id="edge8_Node000006_Node000009" class="edge">
<title>Node6&#45;&gt;Node9</title>
<g id="a_edge8_Node000006_Node000009"><a xlink:title=" ">
<path fill="none" stroke="#63b8ff" d="M355.66,-55.84C347.19,-47.96 334.78,-36.4 324.68,-27"/>
<polygon fill="#63b8ff" stroke="#63b8ff" points="326.9,-24.28 317.19,-20.03 322.13,-29.4 326.9,-24.28"/>
</a>
</g>
</g>
<!-- Node10 -->
<g id="Node000010" class="node">
<title>Node10</title>
<g id="a_Node000010"><a xlink:title=" ">
<polygon fill="#e0e0e0" stroke="#999999" points="459,-20 368,-20 368,0 459,0 459,-20"/>
<text text-anchor="middle" x="413.5" y="-7.2" font-family="Consolas" font-size="11.00">fmt/color.h</text>
</a>
</g>
</g>
<!-- Node6&#45;&gt;Node10 -->
<g id="edge9_Node000006_Node000010" class="edge">
<title>Node6&#45;&gt;Node10</title>
<g id="a_edge9_Node000006_Node000010"><a xlink:title=" ">
<path fill="none" stroke="#63b8ff" d="M373.86,-55.59C380.61,-48.01 390.27,-37.13 398.37,-28.02"/>
<polygon fill="#63b8ff" stroke="#63b8ff" points="401.21,-30.1 405.23,-20.3 395.98,-25.45 401.21,-30.1"/>
</a>
</g>
</g>
<!-- Node11 -->
<g id="Node000011" class="node">
<title>Node11</title>
<g id="a_Node000011"><a xlink:title=" ">
<polygon fill="#e0e0e0" stroke="#999999" points="527.5,-20 477.5,-20 477.5,0 527.5,0 527.5,-20"/>
<text text-anchor="middle" x="502.5" y="-7.2" font-family="Consolas" font-size="11.00">mutex</text>
</a>
</g>
</g>
<!-- Node6&#45;&gt;Node11 -->
<g id="edge10_Node000006_Node000011" class="edge">
<title>Node6&#45;&gt;Node11</title>
<g id="a_edge10_Node000006_Node000011"><a xlink:title=" ">
<path fill="none" stroke="#63b8ff" d="M388.43,-55.96C410.76,-47.16 444.9,-33.7 470.02,-23.8"/>
<polygon fill="#63b8ff" stroke="#63b8ff" points="471.47,-26.99 479.49,-20.07 468.91,-20.48 471.47,-26.99"/>
</a>
</g>
</g>
<!-- Node12 -->
<g id="Node000012" class="node">
<title>Node12</title>
<g id="a_Node000012"><a xlink:title=" ">
<polygon fill="#e0e0e0" stroke="#999999" points="118,-20 61,-20 61,0 118,0 118,-20"/>
<text text-anchor="middle" x="89.5" y="-7.2" font-family="Consolas" font-size="11.00">memory</text>
</a>
</g>
</g>
<!-- Node6&#45;&gt;Node12 -->
<g id="edge11_Node000006_Node000012" class="edge">
<title>Node6&#45;&gt;Node12</title>
<g id="a_edge11_Node000006_Node000012"><a xlink:title=" ">
<path fill="none" stroke="#63b8ff" d="M326.88,-58.37C281.56,-50.45 203.91,-36.44 128.32,-20.31"/>
<polygon fill="#63b8ff" stroke="#63b8ff" points="128.66,-16.81 118.15,-18.13 127.19,-23.65 128.66,-16.81"/>
</a>
</g>
</g>
<!-- Node14&#45;&gt;Node12 -->
<g id="edge14_Node000014_Node000012" class="edge">
<title>Node14&#45;&gt;Node12</title>
<g id="a_edge14_Node000014_Node000012"><a xlink:title=" ">
<path fill="none" stroke="#63b8ff" d="M89.5,-229.78C89.5,-195.76 89.5,-76.85 89.5,-30.09"/>
<polygon fill="#63b8ff" stroke="#63b8ff" points="93,-30.09 89.5,-20.09 86,-30.09 93,-30.09"/>
</a>
</g>
</g>
<!-- Node15&#45;&gt;Node5 -->
<g id="edge16_Node000015_Node000005" class="edge">
<title>Node15&#45;&gt;Node5</title>
<g id="a_edge16_Node000015_Node000005"><a xlink:title=" ">
<path fill="none" stroke="#63b8ff" d="M370.25,-291.93C369.47,-264.32 367.13,-180.88 366.05,-142.59"/>
<polygon fill="#63b8ff" stroke="#63b8ff" points="369.54,-142.16 365.76,-132.27 362.54,-142.36 369.54,-142.16"/>
</a>
</g>
</g>
<!-- Node16 -->
<g id="Node000016" class="node">
<title>Node16</title>
<g id="a_Node000016"><a xlink:title=" ">
<polygon fill="#e0e0e0" stroke="#999999" points="530,-250 399,-250 399,-230 530,-230 530,-250"/>
<text text-anchor="middle" x="464.5" y="-237.2" font-family="Consolas" font-size="11.00">exprtk/exprtk.hpp</text>
</a>
</g>
</g>
<!-- Node15&#45;&gt;Node16 -->
<g id="edge17_Node000015_Node000016" class="edge">
<title>Node15&#45;&gt;Node16</title>
<g id="a_edge17_Node000015_Node000016"><a xlink:title=" ">
<path fill="none" stroke="#63b8ff" d="M384.78,-291.89C399.91,-282.23 424.03,-266.83 441.78,-255.5"/>
<polygon fill="#63b8ff" stroke="#63b8ff" points="443.85,-258.33 450.4,-250 440.08,-252.43 443.85,-258.33"/>
</a>
</g>
</g>
</g>
</svg>
