<?xml version="1.0" encoding="UTF-8" standalone="no"?>
<!DOCTYPE svg PUBLIC "-//W3C//DTD SVG 1.1//EN"
 "http://www.w3.org/Graphics/SVG/1.1/DTD/svg11.dtd">
<!-- Generated by graphviz version 9.0.0 (20230911.1827)
 -->
<!-- Title: Material/MaterialParser.cpp Pages: 1 -->
<!--zoomable 317 -->

<svg id="main" version="1.1" xmlns="http://www.w3.org/2000/svg" xmlns:xlink="http://www.w3.org/1999/xlink" xml:space="preserve" onload="init(evt)">
<style type="text/css"><![CDATA[
.node, .edge {opacity: 0.7;}
.node.selected, .edge.selected {opacity: 1;}
.edge:hover path { stroke: red; }
.edge:hover polygon { stroke: red; fill: red; }
]]></style>

<defs>
  <circle id="rim" cx="0" cy="0" r="7"/>
  <circle id="rim2" cx="0" cy="0" r="3.5"/>
  <g id="zoomPlus">
    <use xlink:href="#rim" fill="#404040"><set attributeName="fill" to="#808080" begin="zoomplus.mouseover" end="zoomplus.mouseout"/></use>
    <path d="M-4,0h8M0,-4v8" fill="none" stroke="white" stroke-width="1.5" pointer-events="none"/>
  </g>
  <g id="zoomMin">
    <use xlink:href="#rim" fill="#404040"><set attributeName="fill" to="#808080" begin="zoomminus.mouseover" end="zoomminus.mouseout"/></use>
    <path d="M-4,0h8" fill="none" stroke="white" stroke-width="1.5" pointer-events="none"/>
  </g>
  <g id="arrowUp" transform="translate(30 24)">
    <use xlink:href="#rim"/>
    <path pointer-events="none" fill="none" stroke="white" stroke-width="1.5" d="M0,-3.0v7 M-2.5,-0.5L0,-3.0L2.5,-0.5"/>
  </g>
  <g id="arrowRight" transform="rotate(90) translate(36 -43)">
    <use xlink:href="#rim"/>
    <path pointer-events="none" fill="none" stroke="white" stroke-width="1.5" d="M0,-3.0v7 M-2.5,-0.5L0,-3.0L2.5,-0.5"/>
  </g>
  <g id="arrowDown" transform="rotate(180) translate(-30 -48)">
    <use xlink:href="#rim"/>
    <path pointer-events="none" fill="none" stroke="white" stroke-width="1.5" d="M0,-3.0v7 M-2.5,-0.5L0,-3.0L2.5,-0.5"/>
  </g>
  <g id="arrowLeft" transform="rotate(270) translate(-36 17)">
    <use xlink:href="#rim"/>
    <path pointer-events="none" fill="none" stroke="white" stroke-width="1.5" d="M0,-3.0v7 M-2.5,-0.5L0,-3.0L2.5,-0.5"/>
  </g>
  <g id="resetDef">
    <use xlink:href="#rim2" fill="#404040"><set attributeName="fill" to="#808080" begin="reset.mouseover" end="reset.mouseout"/></use>
  </g>
</defs>
<script type="application/ecmascript">
var viewWidth = 658;
var viewHeight = 317;
var sectionId = 'dynsection-0';
</script>
<script type="application/ecmascript" xlink:href="../../svg.min.js"/>
<svg id="graph" class="graph">
<g id="viewport">
<title>Material/MaterialParser.cpp</title>
<!-- Node1 -->
<g id="Node000001" class="node">
<title>Node1</title>
<g id="a_Node000001"><a xlink:title=" ">
<polygon fill="#999999" stroke="#666666" points="430,-309 252,-309 252,-287.5 430,-287.5 430,-309"/>
<text text-anchor="middle" x="341" y="-294.55" font-family="Consolas" font-size="11.00">Material/MaterialParser.cpp</text>
</a>
</g>
</g>
<!-- Node2 -->
<g id="Node000002" class="node">
<title>Node2</title>
<g id="a_Node000002"><a xlink:href="../../dd/d11/_material_parser_8h.html" target="_top" xlink:title=" ">
<polygon fill="white" stroke="#666666" points="136,-194 24,-194 24,-172.5 136,-172.5 136,-194"/>
<text text-anchor="middle" x="80" y="-179.55" font-family="Consolas" font-size="11.00">MaterialParser.h</text>
</a>
</g>
</g>
<!-- Node1&#45;&gt;Node2 -->
<g id="edge1_Node000001_Node000002" class="edge">
<title>Node1&#45;&gt;Node2</title>
<g id="a_edge1_Node000001_Node000002"><a xlink:title=" ">
<path fill="none" stroke="#63b8ff" d="M317.38,-287.02C270.89,-266.9 167.39,-222.09 113.73,-198.85"/>
<polygon fill="#63b8ff" stroke="#63b8ff" points="115.34,-195.74 104.77,-194.97 112.56,-202.16 115.34,-195.74"/>
</a>
</g>
</g>
<!-- Node4 -->
<g id="Node000004" class="node">
<title>Node4</title>
<g id="a_Node000004"><a xlink:href="../../dc/df2/_domain_base_8h.html" target="_top" xlink:title=" ">
<polygon fill="white" stroke="#666666" points="369,-194 239,-194 239,-172.5 369,-172.5 369,-194"/>
<text text-anchor="middle" x="304" y="-179.55" font-family="Consolas" font-size="11.00">Domain/DomainBase.h</text>
</a>
</g>
</g>
<!-- Node1&#45;&gt;Node4 -->
<g id="edge3_Node000001_Node000004" class="edge">
<title>Node1&#45;&gt;Node4</title>
<g id="a_edge3_Node000001_Node000004"><a xlink:title=" ">
<path fill="none" stroke="#63b8ff" d="M303.27,-287.13C285.33,-280.22 265.54,-269.04 255,-251.5 244.2,-233.53 261.4,-214.32 278.31,-201.05"/>
<polygon fill="#63b8ff" stroke="#63b8ff" points="280.27,-203.96 286.28,-195.23 276.14,-198.31 280.27,-203.96"/>
</a>
</g>
</g>
<!-- Node19 -->
<g id="Node000019" class="node">
<title>Node19</title>
<g id="a_Node000019"><a xlink:href="../../d4/d14/_external_module_8h.html" target="_top" xlink:title=" ">
<polygon fill="white" stroke="#666666" points="418,-251.5 264,-251.5 264,-230 418,-230 418,-251.5"/>
<text text-anchor="middle" x="341" y="-237.05" font-family="Consolas" font-size="11.00">Domain/ExternalModule.h</text>
</a>
</g>
</g>
<!-- Node1&#45;&gt;Node19 -->
<g id="edge20_Node000001_Node000019" class="edge">
<title>Node1&#45;&gt;Node19</title>
<g id="a_edge20_Node000001_Node000019"><a xlink:title=" ">
<path fill="none" stroke="#63b8ff" d="M341,-287.07C341,-280.42 341,-271.48 341,-263.3"/>
<polygon fill="#63b8ff" stroke="#63b8ff" points="344.5,-263.38 341,-253.38 337.5,-263.38 344.5,-263.38"/>
</a>
</g>
</g>
<!-- Node20 -->
<g id="Node000020" class="node">
<title>Node20</title>
<g id="a_Node000020"><a xlink:href="../../d5/d47/utility_8h.html" target="_top" xlink:title=" ">
<polygon fill="white" stroke="#666666" points="505,-194 387,-194 387,-172.5 505,-172.5 505,-194"/>
<text text-anchor="middle" x="446" y="-179.55" font-family="Consolas" font-size="11.00">Toolbox/utility.h</text>
</a>
</g>
</g>
<!-- Node1&#45;&gt;Node20 -->
<g id="edge26_Node000001_Node000020" class="edge">
<title>Node1&#45;&gt;Node20</title>
<g id="a_edge26_Node000001_Node000020"><a xlink:title=" ">
<path fill="none" stroke="#63b8ff" d="M373.81,-287.01C391.91,-279.79 413.41,-268.35 427,-251.5 437.48,-238.5 442.19,-220.03 444.29,-205.74"/>
<polygon fill="#63b8ff" stroke="#63b8ff" points="447.75,-206.33 445.39,-196 440.79,-205.54 447.75,-206.33"/>
</a>
</g>
</g>
<!-- Node22 -->
<g id="Node000022" class="node">
<title>Node22</title>
<g id="a_Node000022"><a xlink:title=" ">
<polygon fill="#e0e0e0" stroke="#999999" points="592,-251.5 474,-251.5 474,-230 592,-230 592,-251.5"/>
<text text-anchor="middle" x="533" y="-237.05" font-family="Consolas" font-size="11.00">Material/Material</text>
</a>
</g>
</g>
<!-- Node1&#45;&gt;Node22 -->
<g id="edge25_Node000001_Node000022" class="edge">
<title>Node1&#45;&gt;Node22</title>
<g id="a_edge25_Node000001_Node000022"><a xlink:title=" ">
<path fill="none" stroke="#63b8ff" d="M376.22,-287.07C407.24,-278.1 452.66,-264.97 486.64,-255.15"/>
<polygon fill="#63b8ff" stroke="#63b8ff" points="487.59,-258.52 496.23,-252.38 485.65,-251.79 487.59,-258.52"/>
</a>
</g>
</g>
<!-- Node3 -->
<g id="Node000003" class="node">
<title>Node3</title>
<g id="a_Node000003"><a xlink:title=" ">
<polygon fill="#e0e0e0" stroke="#999999" points="52,-21.5 0,-21.5 0,0 52,0 52,-21.5"/>
<text text-anchor="middle" x="26" y="-7.05" font-family="Consolas" font-size="11.00">memory</text>
</a>
</g>
</g>
<!-- Node2&#45;&gt;Node3 -->
<g id="edge2_Node000002_Node000003" class="edge">
<title>Node2&#45;&gt;Node3</title>
<g id="a_edge2_Node000002_Node000003"><a xlink:title=" ">
<path fill="none" stroke="#63b8ff" d="M70.49,-172.14C54.86,-154.75 24.34,-117.32 13,-79 8.46,-63.65 12.28,-45.86 16.93,-32.43"/>
<polygon fill="#63b8ff" stroke="#63b8ff" points="20.11,-33.92 20.49,-23.33 13.59,-31.37 20.11,-33.92"/>
</a>
</g>
</g>
<!-- Node5 -->
<g id="Node000005" class="node">
<title>Node5</title>
<g id="a_Node000005"><a xlink:title=" ">
<polygon fill="#e0e0e0" stroke="#999999" points="418,-136.5 366,-136.5 366,-115 418,-115 418,-136.5"/>
<text text-anchor="middle" x="392" y="-122.05" font-family="Consolas" font-size="11.00">future</text>
</a>
</g>
</g>
<!-- Node4&#45;&gt;Node5 -->
<g id="edge4_Node000004_Node000005" class="edge">
<title>Node4&#45;&gt;Node5</title>
<g id="a_edge4_Node000004_Node000005"><a xlink:title=" ">
<path fill="none" stroke="#63b8ff" d="M320.14,-172.07C333.04,-163.93 351.37,-152.37 366.29,-142.97"/>
<polygon fill="#63b8ff" stroke="#63b8ff" points="368.09,-145.97 374.68,-137.67 364.36,-140.05 368.09,-145.97"/>
</a>
</g>
</g>
<!-- Node6 -->
<g id="Node000006" class="node">
<title>Node6</title>
<g id="a_Node000006"><a xlink:href="../../d2/d4a/_tag_8h.html" target="_top" xlink:title=" ">
<polygon fill="white" stroke="#666666" points="348,-136.5 260,-136.5 260,-115 348,-115 348,-136.5"/>
<text text-anchor="middle" x="304" y="-122.05" font-family="Consolas" font-size="11.00">Domain/Tag.h</text>
</a>
</g>
</g>
<!-- Node4&#45;&gt;Node6 -->
<g id="edge5_Node000004_Node000006" class="edge">
<title>Node4&#45;&gt;Node6</title>
<g id="a_edge5_Node000004_Node000006"><a xlink:title=" ">
<path fill="none" stroke="#63b8ff" d="M304,-172.07C304,-165.42 304,-156.48 304,-148.3"/>
<polygon fill="#63b8ff" stroke="#63b8ff" points="307.5,-148.38 304,-138.38 300.5,-148.38 307.5,-148.38"/>
</a>
</g>
</g>
<!-- Node14 -->
<g id="Node000014" class="node">
<title>Node14</title>
<g id="a_Node000014"><a xlink:href="../../d4/ddd/container_8h.html" target="_top" xlink:title=" ">
<polygon fill="white" stroke="#666666" points="242,-136.5 112,-136.5 112,-115 242,-115 242,-136.5"/>
<text text-anchor="middle" x="177" y="-122.05" font-family="Consolas" font-size="11.00">Toolbox/container.h</text>
</a>
</g>
</g>
<!-- Node4&#45;&gt;Node14 -->
<g id="edge14_Node000004_Node000014" class="edge">
<title>Node4&#45;&gt;Node14</title>
<g id="a_edge14_Node000004_Node000014"><a xlink:title=" ">
<path fill="none" stroke="#63b8ff" d="M280.71,-172.07C261.01,-163.46 232.56,-151.03 210.43,-141.36"/>
<polygon fill="#63b8ff" stroke="#63b8ff" points="212.1,-138.27 201.53,-137.47 209.29,-144.68 212.1,-138.27"/>
</a>
</g>
</g>
<!-- Node7 -->
<g id="Node000007" class="node">
<title>Node7</title>
<g id="a_Node000007"><a xlink:href="../../d8/d8f/suan_pan_8h.html" target="_top" xlink:title=" ">
<polygon fill="white" stroke="#666666" points="420,-79 350,-79 350,-57.5 420,-57.5 420,-79"/>
<text text-anchor="middle" x="385" y="-64.55" font-family="Consolas" font-size="11.00">suanPan.h</text>
</a>
</g>
</g>
<!-- Node6&#45;&gt;Node7 -->
<g id="edge6_Node000006_Node000007" class="edge">
<title>Node6&#45;&gt;Node7</title>
<g id="a_edge6_Node000006_Node000007"><a xlink:title=" ">
<path fill="none" stroke="#63b8ff" d="M318.86,-114.57C330.62,-106.51 347.28,-95.1 360.94,-85.74"/>
<polygon fill="#63b8ff" stroke="#63b8ff" points="362.72,-88.76 368.99,-80.22 358.76,-82.99 362.72,-88.76"/>
</a>
</g>
</g>
<!-- Node7&#45;&gt;Node3 -->
<g id="edge13_Node000007_Node000003" class="edge">
<title>Node7&#45;&gt;Node3</title>
<g id="a_edge13_Node000007_Node000003"><a xlink:title=" ">
<path fill="none" stroke="#63b8ff" d="M349.51,-59.12C346.64,-58.54 343.77,-58 341,-57.5 224.43,-36.67 193.86,-40.62 77,-21.5 72.62,-20.78 68.04,-19.98 63.5,-19.15"/>
<polygon fill="#63b8ff" stroke="#63b8ff" points="64.38,-15.76 53.91,-17.36 63.09,-22.64 64.38,-15.76"/>
</a>
</g>
</g>
<!-- Node8 -->
<g id="Node000008" class="node">
<title>Node8</title>
<g id="a_Node000008"><a xlink:title=" ">
<polygon fill="#e0e0e0" stroke="#999999" points="650,-21.5 586,-21.5 586,0 650,0 650,-21.5"/>
<text text-anchor="middle" x="618" y="-7.05" font-family="Consolas" font-size="11.00">iostream</text>
</a>
</g>
</g>
<!-- Node7&#45;&gt;Node8 -->
<g id="edge7_Node000007_Node000008" class="edge">
<title>Node7&#45;&gt;Node8</title>
<g id="a_edge7_Node000007_Node000008"><a xlink:title=" ">
<path fill="none" stroke="#63b8ff" d="M420.39,-58.82C461.73,-48.97 530.12,-32.68 574.62,-22.08"/>
<polygon fill="#63b8ff" stroke="#63b8ff" points="575.28,-25.52 584.19,-19.8 573.65,-18.72 575.28,-25.52"/>
</a>
</g>
</g>
<!-- Node9 -->
<g id="Node000009" class="node">
<title>Node9</title>
<g id="a_Node000009"><a xlink:title=" ">
<polygon fill="#e0e0e0" stroke="#999999" points="216,-21.5 86,-21.5 86,0 216,0 216,-21.5"/>
<text text-anchor="middle" x="151" y="-7.05" font-family="Consolas" font-size="11.00">armadillo/armadillo</text>
</a>
</g>
</g>
<!-- Node7&#45;&gt;Node9 -->
<g id="edge8_Node000007_Node000009" class="edge">
<title>Node7&#45;&gt;Node9</title>
<g id="a_edge8_Node000007_Node000009"><a xlink:title=" ">
<path fill="none" stroke="#63b8ff" d="M349.71,-58.88C311.43,-49.8 249.82,-35.19 205.34,-24.64"/>
<polygon fill="#63b8ff" stroke="#63b8ff" points="206.15,-21.23 195.61,-22.33 204.54,-28.05 206.15,-21.23"/>
</a>
</g>
</g>
<!-- Node10 -->
<g id="Node000010" class="node">
<title>Node10</title>
<g id="a_Node000010"><a xlink:title=" ">
<polygon fill="#e0e0e0" stroke="#999999" points="310,-21.5 234,-21.5 234,0 310,0 310,-21.5"/>
<text text-anchor="middle" x="272" y="-7.05" font-family="Consolas" font-size="11.00">filesystem</text>
</a>
</g>
</g>
<!-- Node7&#45;&gt;Node10 -->
<g id="edge9_Node000007_Node000010" class="edge">
<title>Node7&#45;&gt;Node10</title>
<g id="a_edge9_Node000007_Node000010"><a xlink:title=" ">
<path fill="none" stroke="#63b8ff" d="M364.27,-57.07C347.07,-48.62 322.35,-36.48 302.83,-26.89"/>
<polygon fill="#63b8ff" stroke="#63b8ff" points="304.47,-23.8 293.95,-22.53 301.39,-30.08 304.47,-23.8"/>
</a>
</g>
</g>
<!-- Node11 -->
<g id="Node000011" class="node">
<title>Node11</title>
<g id="a_Node000011"><a xlink:title=" ">
<polygon fill="#e0e0e0" stroke="#999999" points="410,-21.5 328,-21.5 328,0 410,0 410,-21.5"/>
<text text-anchor="middle" x="369" y="-7.05" font-family="Consolas" font-size="11.00">fmt/color.h</text>
</a>
</g>
</g>
<!-- Node7&#45;&gt;Node11 -->
<g id="edge10_Node000007_Node000011" class="edge">
<title>Node7&#45;&gt;Node11</title>
<g id="a_edge10_Node000007_Node000011"><a xlink:title=" ">
<path fill="none" stroke="#63b8ff" d="M382.07,-57.07C380.1,-50.26 377.45,-41.06 375.05,-32.73"/>
<polygon fill="#63b8ff" stroke="#63b8ff" points="378.47,-31.96 372.34,-23.32 371.74,-33.9 378.47,-31.96"/>
</a>
</g>
</g>
<!-- Node12 -->
<g id="Node000012" class="node">
<title>Node12</title>
<g id="a_Node000012"><a xlink:title=" ">
<polygon fill="#e0e0e0" stroke="#999999" points="474,-21.5 428,-21.5 428,0 474,0 474,-21.5"/>
<text text-anchor="middle" x="451" y="-7.05" font-family="Consolas" font-size="11.00">mutex</text>
</a>
</g>
</g>
<!-- Node7&#45;&gt;Node12 -->
<g id="edge11_Node000007_Node000012" class="edge">
<title>Node7&#45;&gt;Node12</title>
<g id="a_edge11_Node000007_Node000012"><a xlink:title=" ">
<path fill="none" stroke="#63b8ff" d="M397.11,-57.07C406.41,-49.25 419.48,-38.26 430.41,-29.06"/>
<polygon fill="#63b8ff" stroke="#63b8ff" points="432.41,-31.95 437.81,-22.84 427.91,-26.6 432.41,-31.95"/>
</a>
</g>
</g>
<!-- Node13 -->
<g id="Node000013" class="node">
<title>Node13</title>
<g id="a_Node000013"><a xlink:title=" ">
<polygon fill="#e0e0e0" stroke="#999999" points="568,-21.5 492,-21.5 492,0 568,0 568,-21.5"/>
<text text-anchor="middle" x="530" y="-7.05" font-family="Consolas" font-size="11.00">functional</text>
</a>
</g>
</g>
<!-- Node7&#45;&gt;Node13 -->
<g id="edge12_Node000007_Node000013" class="edge">
<title>Node7&#45;&gt;Node13</title>
<g id="a_edge12_Node000007_Node000013"><a xlink:title=" ">
<path fill="none" stroke="#63b8ff" d="M411.6,-57.07C434.39,-48.35 467.46,-35.69 492.86,-25.97"/>
<polygon fill="#63b8ff" stroke="#63b8ff" points="494.07,-29.25 502.16,-22.41 491.57,-22.71 494.07,-29.25"/>
</a>
</g>
</g>
<!-- Node14&#45;&gt;Node7 -->
<g id="edge15_Node000014_Node000007" class="edge">
<title>Node14&#45;&gt;Node7</title>
<g id="a_edge15_Node000014_Node000007"><a xlink:title=" ">
<path fill="none" stroke="#63b8ff" d="M215.15,-114.57C249.91,-105.3 301.33,-91.58 338.48,-81.66"/>
<polygon fill="#63b8ff" stroke="#63b8ff" points="339.3,-85.07 348.06,-79.11 337.49,-78.3 339.3,-85.07"/>
</a>
</g>
</g>
<!-- Node15 -->
<g id="Node000015" class="node">
<title>Node15</title>
<g id="a_Node000015"><a xlink:title=" ">
<polygon fill="#e0e0e0" stroke="#999999" points="332,-79 298,-79 298,-57.5 332,-57.5 332,-79"/>
<text text-anchor="middle" x="315" y="-64.55" font-family="Consolas" font-size="11.00">set</text>
</a>
</g>
</g>
<!-- Node14&#45;&gt;Node15 -->
<g id="edge16_Node000014_Node000015" class="edge">
<title>Node14&#45;&gt;Node15</title>
<g id="a_edge16_Node000014_Node000015"><a xlink:title=" ">
<path fill="none" stroke="#63b8ff" d="M202.31,-114.57C226.33,-104.91 262.36,-90.42 287.17,-80.44"/>
<polygon fill="#63b8ff" stroke="#63b8ff" points="288.33,-83.75 296.3,-76.77 285.72,-77.25 288.33,-83.75"/>
</a>
</g>
</g>
<!-- Node16 -->
<g id="Node000016" class="node">
<title>Node16</title>
<g id="a_Node000016"><a xlink:title=" ">
<polygon fill="#e0e0e0" stroke="#999999" points="56,-79 22,-79 22,-57.5 56,-57.5 56,-79"/>
<text text-anchor="middle" x="39" y="-64.55" font-family="Consolas" font-size="11.00">map</text>
</a>
</g>
</g>
<!-- Node14&#45;&gt;Node16 -->
<g id="edge17_Node000014_Node000016" class="edge">
<title>Node14&#45;&gt;Node16</title>
<g id="a_edge17_Node000014_Node000016"><a xlink:title=" ">
<path fill="none" stroke="#63b8ff" d="M151.69,-114.57C127.67,-104.91 91.64,-90.42 66.83,-80.44"/>
<polygon fill="#63b8ff" stroke="#63b8ff" points="68.28,-77.25 57.7,-76.77 65.67,-83.75 68.28,-77.25"/>
</a>
</g>
</g>
<!-- Node17 -->
<g id="Node000017" class="node">
<title>Node17</title>
<g id="a_Node000017"><a xlink:title=" ">
<polygon fill="#e0e0e0" stroke="#999999" points="168,-79 74,-79 74,-57.5 168,-57.5 168,-79"/>
<text text-anchor="middle" x="121" y="-64.55" font-family="Consolas" font-size="11.00">unordered_set</text>
</a>
</g>
</g>
<!-- Node14&#45;&gt;Node17 -->
<g id="edge18_Node000014_Node000017" class="edge">
<title>Node14&#45;&gt;Node17</title>
<g id="a_edge18_Node000014_Node000017"><a xlink:title=" ">
<path fill="none" stroke="#63b8ff" d="M166.73,-114.57C159.07,-106.98 148.41,-96.41 139.31,-87.39"/>
<polygon fill="#63b8ff" stroke="#63b8ff" points="141.85,-84.98 132.28,-80.43 136.92,-89.96 141.85,-84.98"/>
</a>
</g>
</g>
<!-- Node18 -->
<g id="Node000018" class="node">
<title>Node18</title>
<g id="a_Node000018"><a xlink:title=" ">
<polygon fill="#e0e0e0" stroke="#999999" points="280,-79 186,-79 186,-57.5 280,-57.5 280,-79"/>
<text text-anchor="middle" x="233" y="-64.55" font-family="Consolas" font-size="11.00">unordered_map</text>
</a>
</g>
</g>
<!-- Node14&#45;&gt;Node18 -->
<g id="edge19_Node000014_Node000018" class="edge">
<title>Node14&#45;&gt;Node18</title>
<g id="a_edge19_Node000014_Node000018"><a xlink:title=" ">
<path fill="none" stroke="#63b8ff" d="M187.27,-114.57C194.93,-106.98 205.59,-96.41 214.69,-87.39"/>
<polygon fill="#63b8ff" stroke="#63b8ff" points="217.08,-89.96 221.72,-80.43 212.15,-84.98 217.08,-89.96"/>
</a>
</g>
</g>
<!-- Node19&#45;&gt;Node4 -->
<g id="edge21_Node000019_Node000004" class="edge">
<title>Node19&#45;&gt;Node4</title>
<g id="a_edge21_Node000019_Node000004"><a xlink:title=" ">
<path fill="none" stroke="#63b8ff" d="M334.21,-229.57C329.42,-222.37 322.83,-212.5 317.03,-203.8"/>
<polygon fill="#63b8ff" stroke="#63b8ff" points="320.04,-202 311.58,-195.62 314.22,-205.89 320.04,-202"/>
</a>
</g>
</g>
<!-- Node19&#45;&gt;Node20 -->
<g id="edge22_Node000019_Node000020" class="edge">
<title>Node19&#45;&gt;Node20</title>
<g id="a_edge22_Node000019_Node000020"><a xlink:title=" ">
<path fill="none" stroke="#63b8ff" d="M360.26,-229.57C376.1,-221.2 398.79,-209.2 416.85,-199.66"/>
<polygon fill="#63b8ff" stroke="#63b8ff" points="418.32,-202.84 425.53,-195.07 415.05,-196.65 418.32,-202.84"/>
</a>
</g>
</g>
<!-- Node20&#45;&gt;Node7 -->
<g id="edge23_Node000020_Node000007" class="edge">
<title>Node20&#45;&gt;Node7</title>
<g id="a_edge23_Node000020_Node000007"><a xlink:title=" ">
<path fill="none" stroke="#63b8ff" d="M444.64,-172.12C442.48,-158.44 437.41,-133.65 427,-115 421.29,-104.77 412.86,-94.98 405.04,-87.1"/>
<polygon fill="#63b8ff" stroke="#63b8ff" points="407.7,-84.8 398.06,-80.41 402.86,-89.86 407.7,-84.8"/>
</a>
</g>
</g>
<!-- Node21 -->
<g id="Node000021" class="node">
<title>Node21</title>
<g id="a_Node000021"><a xlink:title=" ">
<polygon fill="#e0e0e0" stroke="#999999" points="538,-136.5 474,-136.5 474,-115 538,-115 538,-136.5"/>
<text text-anchor="middle" x="506" y="-122.05" font-family="Consolas" font-size="11.00">concepts</text>
</a>
</g>
</g>
<!-- Node20&#45;&gt;Node21 -->
<g id="edge24_Node000020_Node000021" class="edge">
<title>Node20&#45;&gt;Node21</title>
<g id="a_edge24_Node000020_Node000021"><a xlink:title=" ">
<path fill="none" stroke="#63b8ff" d="M457,-172.07C465.29,-164.4 476.87,-153.7 486.69,-144.61"/>
<polygon fill="#63b8ff" stroke="#63b8ff" points="488.99,-147.25 493.95,-137.89 484.24,-142.11 488.99,-147.25"/>
</a>
</g>
</g>
</g>
</svg>

<g id="navigator" transform="translate(0 0)" fill="#404254">
  <rect fill="#f2f5e9" fill-opacity="0.5" stroke="#606060" stroke-width=".5" x="0" y="0" width="60" height="60"/>
  <use id="zoomplus" xlink:href="#zoomPlus" x="17" y="9" onmousedown="handleZoom(evt,'in')"/>
  <use id="zoomminus" xlink:href="#zoomMin" x="42" y="9" onmousedown="handleZoom(evt,'out')"/>
  <use id="reset" xlink:href="#resetDef" x="30" y="36" onmousedown="handleReset()"/>
   <use id="arrowup" xlink:href="#arrowUp" x="0" y="0" onmousedown="handlePan(0,-1)"/>
  <use id="arrowright" xlink:href="#arrowRight" x="0" y="0" onmousedown="handlePan(1,0)"/>
  <use id="arrowdown" xlink:href="#arrowDown" x="0" y="0" onmousedown="handlePan(0,1)"/>
  <use id="arrowleft" xlink:href="#arrowLeft" x="0" y="0" onmousedown="handlePan(-1,0)"/>
</g>
<svg viewBox="0 0 15 15" width="100%" height="30px" preserveAspectRatio="xMaxYMin meet">
 <g id="arrow_out" transform="scale(0.3 0.3)">
  <a xlink:href="_material_parser_8cpp__incl_org.svg" target="_base">
   <rect id="button" ry="5" rx="5" y="6" x="6" height="38" width="38"
        fill="#f2f5e9" fill-opacity="0.5" stroke="#606060" stroke-width="1.0"/>
   <path id="arrow"
     d="M 11.500037,31.436501 C 11.940474,20.09759 22.043105,11.32322 32.158766,21.979434 L 37.068811,17.246167 C 37.068811,17.246167 37.088388,32 37.088388,32 L 22.160133,31.978069 C 22.160133,31.978069 26.997745,27.140456 26.997745,27.140456 C 18.528582,18.264221 13.291696,25.230495 11.500037,31.436501 z"
     style="fill:#404040;"/>
  </a>
 </g>
</svg>

<style type='text/css'>
<![CDATA[
[data-mouse-over-selected='false'] { opacity: 0.7; }
[data-mouse-over-selected='true']  { opacity: 1.0; }
]]>
</style>
<script type="application/ecmascript"><![CDATA[
document.addEventListener('DOMContentLoaded', (event) => {
  highlightEdges();
  highlightAdjacentNodes();
});
]]></script>
</svg>
