<?xml version="1.0" encoding="UTF-8" standalone="no"?>
<!DOCTYPE svg PUBLIC "-//W3C//DTD SVG 1.1//EN"
 "http://www.w3.org/Graphics/SVG/1.1/DTD/svg11.dtd">
<!-- Generated by graphviz version 5.0.0 (0)
 -->
<!-- Title: Section/Section1D Pages: 1 -->
<svg width="154pt" height="120pt"
 viewBox="0.00 0.00 154.00 120.00" xmlns="http://www.w3.org/2000/svg" xmlns:xlink="http://www.w3.org/1999/xlink">
<g id="graph0" class="graph" transform="scale(1 1) rotate(0) translate(4 116)">
<title>Section/Section1D</title>
<g id="clust1" class="cluster">
<title>clusterdir_d4cf6f20ffb08aa0d4b9ebd27f6cf468</title>
<g id="a_clust1"><a xlink:href="dir_d4cf6f20ffb08aa0d4b9ebd27f6cf468.html" target="_top" xlink:title="Section">
<polygon fill="#edf0f7" stroke="#404040" stroke-dasharray="5,2" points="29.5,-48 29.5,-104 123.5,-104 123.5,-48 29.5,-48"/>
<text text-anchor="middle" x="76.5" y="-91.2" font-family="Consolas" font-size="11.00">Section</text>
</a>
</g>
</g>
<!-- dir_d4f981155291b5655324169537c3a970 -->
<g id="node1" class="node">
<title>dir_d4f981155291b5655324169537c3a970</title>
<g id="a_node1"><a xlink:href="dir_d4f981155291b5655324169537c3a970.html" target="_top" xlink:title="Section1D">
<polygon fill="#edf0f7" stroke="#404040" stroke-width="2" points="115,-76 38,-76 38,-56 115,-56 115,-76"/>
<text text-anchor="middle" x="76.5" y="-63.2" font-family="Consolas" font-size="11.00">Section1D</text>
</a>
</g>
</g>
<!-- dir_5dc3d2744d9e16e6dc5313fdb2ea1510 -->
<g id="node2" class="node">
<title>dir_5dc3d2744d9e16e6dc5313fdb2ea1510</title>
<g id="a_node2"><a xlink:href="dir_5dc3d2744d9e16e6dc5313fdb2ea1510.html" target="_top" xlink:title="Material">
<polygon fill="#edf0f7" stroke="red" points="71,-20 0,-20 0,0 71,0 71,-20"/>
<text text-anchor="middle" x="35.5" y="-7.2" font-family="Consolas" font-size="11.00">Material</text>
</a>
</g>
</g>
<!-- dir_d4f981155291b5655324169537c3a970&#45;&gt;dir_5dc3d2744d9e16e6dc5313fdb2ea1510 -->
<g id="edge1" class="edge">
<title>dir_d4f981155291b5655324169537c3a970&#45;&gt;dir_5dc3d2744d9e16e6dc5313fdb2ea1510</title>
<path fill="none" stroke="#63b8ff" d="M69.36,-55.59C63.66,-48.08 55.51,-37.35 48.64,-28.3"/>
<polygon fill="#63b8ff" stroke="#63b8ff" points="51.39,-26.15 42.56,-20.3 45.82,-30.38 51.39,-26.15"/>
<g id="a_edge1&#45;headlabel"><a xlink:href="dir_000054_000035.html" target="_top" xlink:title="5">
<text text-anchor="middle" x="55.83" y="-24.49" font-family="Consolas" font-size="11.00" fill="#63b8ff">5</text>
</a>
</g>
</g>
<!-- dir_8c888e3f1190d8e08b273c29d1443e32 -->
<g id="node3" class="node">
<title>dir_8c888e3f1190d8e08b273c29d1443e32</title>
<g id="a_node3"><a xlink:href="dir_8c888e3f1190d8e08b273c29d1443e32.html" target="_top" xlink:title="Domain">
<polygon fill="#edf0f7" stroke="red" points="146,-20 89,-20 89,0 146,0 146,-20"/>
<text text-anchor="middle" x="117.5" y="-7.2" font-family="Consolas" font-size="11.00">Domain</text>
</a>
</g>
</g>
<!-- dir_d4f981155291b5655324169537c3a970&#45;&gt;dir_8c888e3f1190d8e08b273c29d1443e32 -->
<g id="edge2" class="edge">
<title>dir_d4f981155291b5655324169537c3a970&#45;&gt;dir_8c888e3f1190d8e08b273c29d1443e32</title>
<path fill="none" stroke="#63b8ff" d="M83.64,-55.59C89.34,-48.08 97.49,-37.35 104.36,-28.3"/>
<polygon fill="#63b8ff" stroke="#63b8ff" points="107.18,-30.38 110.44,-20.3 101.61,-26.15 107.18,-30.38"/>
<g id="a_edge2&#45;headlabel"><a xlink:href="dir_000054_000018.html" target="_top" xlink:title="2">
<text text-anchor="middle" x="107.27" y="-32.16" font-family="Consolas" font-size="11.00" fill="#63b8ff">2</text>
</a>
</g>
</g>
</g>
</svg>
