<?xml version="1.0" encoding="UTF-8" standalone="no"?>
<!DOCTYPE svg PUBLIC "-//W3C//DTD SVG 1.1//EN"
 "http://www.w3.org/Graphics/SVG/1.1/DTD/svg11.dtd">
<!-- Generated by graphviz version 2.43.0 (0)
 -->
<!-- Title: tensor::diff_unit Pages: 1 -->
<!--zoomable 107 -->
<svg id="main" version="1.1" xmlns="http://www.w3.org/2000/svg" xmlns:xlink="http://www.w3.org/1999/xlink" xml:space="preserve" onload="init(evt)">
<style type="text/css"><![CDATA[
.edge:hover path { stroke: red; }
.edge:hover polygon { stroke: red; fill: red; }
]]></style>
<script type="text/javascript"><![CDATA[
var edges = document.getElementsByTagName('g');
if (edges && edges.length) {
  for (var i=0;i<edges.length;i++) {
    if (edges[i].id.substr(0,4)=='edge') {
      edges[i].setAttribute('class','edge');
    }
  }
}
]]></script>
        <defs>
                <circle id="rim" cx="0" cy="0" r="7"/>
                <circle id="rim2" cx="0" cy="0" r="3.5"/>
                <g id="zoomPlus">
                        <use xlink:href="#rim" fill="#404040">
                                <set attributeName="fill" to="#808080" begin="zoomplus.mouseover" end="zoomplus.mouseout"/>
                        </use>
                        <path d="M-4,0h8M0,-4v8" fill="none" stroke="white" stroke-width="1.5" pointer-events="none"/>
                </g>
                <g id="zoomMin">
                        <use xlink:href="#rim" fill="#404040">
                                <set attributeName="fill" to="#808080" begin="zoomminus.mouseover" end="zoomminus.mouseout"/>
                        </use>
                        <path d="M-4,0h8" fill="none" stroke="white" stroke-width="1.5" pointer-events="none"/>
                </g>
                <g id="dirArrow">
                        <path fill="none" stroke="white" stroke-width="1.5" d="M0,-3.0v7 M-2.5,-0.5L0,-3.0L2.5,-0.5"/>
                </g>
               <g id="resetDef">
                       <use xlink:href="#rim2" fill="#404040">
                               <set attributeName="fill" to="#808080" begin="reset.mouseover" end="reset.mouseout"/>
                       </use>
               </g>
        </defs>

<script type="text/javascript">
var viewWidth = 689;
var viewHeight = 107;
var sectionId = 'dynsection-8';
</script>
<script xlink:href="../../svgpan.js"/>
<svg id="graph" class="graph">
<g id="viewport">
<title>tensor::diff_unit</title>
<polygon fill="white" stroke="transparent" points="-4,4 -4,-103 685,-103 685,4 -4,4"/>
<!-- Node1 -->
<g id="node1" class="node">
<title>Node1</title>
<g id="a_node1"><a xlink:title=" ">
<polygon fill="#bfbfbf" stroke="black" points="550,-39.5 550,-59.5 681,-59.5 681,-39.5 550,-39.5"/>
<text text-anchor="middle" x="615.5" y="-46.7" font-family="Consolas" font-size="11.00">tensor::diff_unit</text>
</a>
</g>
</g>
<!-- Node2 -->
<g id="node2" class="node">
<title>Node2</title>
<g id="a_node2"><a xlink:href="../../dd/d8c/namespacetensor.html#a7be943547c2d9eaf0c126619f4305a12" target="_top" xlink:title=" ">
<polygon fill="white" stroke="black" points="376,-39.5 376,-59.5 514,-59.5 514,-39.5 376,-39.5"/>
<text text-anchor="middle" x="445" y="-46.7" font-family="Consolas" font-size="11.00">tensor::diff_triad</text>
</a>
</g>
</g>
<!-- Node1&#45;&gt;Node2 -->
<g id="edge1" class="edge">
<title>Node1&#45;&gt;Node2</title>
<path fill="none" stroke="midnightblue" d="M539.58,-49.5C531.11,-49.5 522.51,-49.5 514.13,-49.5"/>
<polygon fill="midnightblue" stroke="midnightblue" points="539.84,-53 549.84,-49.5 539.84,-46 539.84,-53"/>
</g>
<!-- Node3 -->
<g id="node3" class="node">
<title>Node3</title>
<g id="a_node3"><a xlink:href="../../d7/d11/class_shell_base.html#a5288eb3339e92e78806a7d22833203a8" target="_top" xlink:title=" ">
<polygon fill="white" stroke="black" points="188,-33.5 188,-65.5 340,-65.5 340,-33.5 188,-33.5"/>
<text text-anchor="start" x="196" y="-52.7" font-family="Consolas" font-size="11.00">ShellBase::transform</text>
<text text-anchor="middle" x="264" y="-40.7" font-family="Consolas" font-size="11.00">_to_global_geometry</text>
</a>
</g>
</g>
<!-- Node2&#45;&gt;Node3 -->
<g id="edge2" class="edge">
<title>Node2&#45;&gt;Node3</title>
<path fill="none" stroke="midnightblue" d="M365.6,-49.5C357.15,-49.5 348.57,-49.5 340.16,-49.5"/>
<polygon fill="midnightblue" stroke="midnightblue" points="365.82,-53 375.82,-49.5 365.82,-46 365.82,-53"/>
</g>
<!-- Node4 -->
<g id="node4" class="node">
<title>Node4</title>
<g id="a_node4"><a xlink:href="../../db/dea/class_d_k_t_s3.html#a4a494be55f924e6373af81179decc388" target="_top" xlink:title=" ">
<polygon fill="white" stroke="black" points="0,-78.5 0,-98.5 152,-98.5 152,-78.5 0,-78.5"/>
<text text-anchor="middle" x="76" y="-85.7" font-family="Consolas" font-size="11.00">DKTS3::update_status</text>
</a>
</g>
</g>
<!-- Node3&#45;&gt;Node4 -->
<g id="edge3" class="edge">
<title>Node3&#45;&gt;Node4</title>
<path fill="none" stroke="midnightblue" d="M178.09,-67.3C159.81,-71.14 141.11,-75.06 124.85,-78.47"/>
<polygon fill="midnightblue" stroke="midnightblue" points="178.81,-70.73 187.88,-65.25 177.38,-63.88 178.81,-70.73"/>
</g>
<!-- Node5 -->
<g id="node5" class="node">
<title>Node5</title>
<g id="a_node5"><a xlink:href="../../d2/d2f/class_s4.html#a36daea0d3a286585334b098ae767866c" target="_top" xlink:title=" ">
<polygon fill="white" stroke="black" points="10.5,-39.5 10.5,-59.5 141.5,-59.5 141.5,-39.5 10.5,-39.5"/>
<text text-anchor="middle" x="76" y="-46.7" font-family="Consolas" font-size="11.00">S4::update_status</text>
</a>
</g>
</g>
<!-- Node3&#45;&gt;Node5 -->
<g id="edge4" class="edge">
<title>Node3&#45;&gt;Node5</title>
<path fill="none" stroke="midnightblue" d="M177.75,-49.5C165.61,-49.5 153.3,-49.5 141.64,-49.5"/>
<polygon fill="midnightblue" stroke="midnightblue" points="177.88,-53 187.88,-49.5 177.88,-46 177.88,-53"/>
</g>
<!-- Node6 -->
<g id="node6" class="node">
<title>Node6</title>
<g id="a_node6"><a xlink:href="../../d8/de9/class_s_g_c_m_s.html#a50874687215ac50cdc312f98cf79f756" target="_top" xlink:title=" ">
<polygon fill="white" stroke="black" points="0,-0.5 0,-20.5 152,-20.5 152,-0.5 0,-0.5"/>
<text text-anchor="middle" x="76" y="-7.7" font-family="Consolas" font-size="11.00">SGCMS::update_status</text>
</a>
</g>
</g>
<!-- Node3&#45;&gt;Node6 -->
<g id="edge5" class="edge">
<title>Node3&#45;&gt;Node6</title>
<path fill="none" stroke="midnightblue" d="M178.09,-31.7C159.81,-27.86 141.11,-23.94 124.85,-20.53"/>
<polygon fill="midnightblue" stroke="midnightblue" points="177.38,-35.12 187.88,-33.75 178.81,-28.27 177.38,-35.12"/>
</g>
</g>
</svg>
        <g id="navigator" transform="translate(0 0)" fill="#404254">
                <rect fill="#f2f5e9" fill-opacity="0.5" stroke="#606060" stroke-width=".5" x="0" y="0" width="60" height="60"/>
                <use id="zoomplus" xlink:href="#zoomPlus" x="17" y="9" onmousedown="handleZoom(evt,'in')"/>
                <use id="zoomminus" xlink:href="#zoomMin" x="42" y="9" onmousedown="handleZoom(evt,'out')"/>
                <use id="reset" xlink:href="#resetDef" x="30" y="36" onmousedown="handleReset()"/>
                <g id="arrowUp" xlink:href="#dirArrow" transform="translate(30 24)" onmousedown="handlePan(0,-1)">
                  <use xlink:href="#rim" fill="#404040">
                        <set attributeName="fill" to="#808080" begin="arrowUp.mouseover" end="arrowUp.mouseout"/>
                  </use>
                  <path fill="none" stroke="white" stroke-width="1.5" d="M0,-3.0v7 M-2.5,-0.5L0,-3.0L2.5,-0.5"/>
                </g>
                <g id="arrowRight" xlink:href="#dirArrow" transform="rotate(90) translate(36 -43)" onmousedown="handlePan(1,0)">
                  <use xlink:href="#rim" fill="#404040">
                        <set attributeName="fill" to="#808080" begin="arrowRight.mouseover" end="arrowRight.mouseout"/>
                  </use>
                  <path fill="none" stroke="white" stroke-width="1.5" d="M0,-3.0v7 M-2.5,-0.5L0,-3.0L2.5,-0.5"/>
                </g>
                <g id="arrowDown" xlink:href="#dirArrow" transform="rotate(180) translate(-30 -48)" onmousedown="handlePan(0,1)">
                  <use xlink:href="#rim" fill="#404040">
                        <set attributeName="fill" to="#808080" begin="arrowDown.mouseover" end="arrowDown.mouseout"/>
                  </use>
                  <path fill="none" stroke="white" stroke-width="1.5" d="M0,-3.0v7 M-2.5,-0.5L0,-3.0L2.5,-0.5"/>
                </g>
                <g id="arrowLeft" xlink:href="#dirArrow" transform="rotate(270) translate(-36 17)" onmousedown="handlePan(-1,0)">
                  <use xlink:href="#rim" fill="#404040">
                        <set attributeName="fill" to="#808080" begin="arrowLeft.mouseover" end="arrowLeft.mouseout"/>
                  </use>
                  <path fill="none" stroke="white" stroke-width="1.5" d="M0,-3.0v7 M-2.5,-0.5L0,-3.0L2.5,-0.5"/>
                </g>
        </g>
        <svg viewBox="0 0 15 15" width="100%" height="30px" preserveAspectRatio="xMaxYMin meet">
         <g id="arrow_out" transform="scale(0.3 0.3)">
          <a xlink:href="namespacetensor_a4f774e4d8619c260580a3b79e1afaa42_icgraph_org.svg" target="_base">
           <rect id="button" ry="5" rx="5" y="6" x="6" height="38" width="38"
                fill="#f2f5e9" fill-opacity="0.5" stroke="#606060" stroke-width="1.0"/>
           <path id="arrow"
             d="M 11.500037,31.436501 C 11.940474,20.09759 22.043105,11.32322 32.158766,21.979434 L 37.068811,17.246167 C 37.068811,17.246167 37.088388,32 37.088388,32 L 22.160133,31.978069 C 22.160133,31.978069 26.997745,27.140456 26.997745,27.140456 C 18.528582,18.264221 13.291696,25.230495 11.500037,31.436501 z"
             style="fill:#404040;"/>
          </a>
         </g>
        </svg>
</svg>
