<?xml version="1.0" encoding="UTF-8" standalone="no"?>
<!DOCTYPE svg PUBLIC "-//W3C//DTD SVG 1.1//EN"
 "http://www.w3.org/Graphics/SVG/1.1/DTD/svg11.dtd">
<!-- Generated by graphviz version 2.43.0 (0)
 -->
<!-- Title: NodeLine Pages: 1 -->
<!--zoomable 1296 -->

<svg id="main" version="1.1" xmlns="http://www.w3.org/2000/svg" xmlns:xlink="http://www.w3.org/1999/xlink" xml:space="preserve" onload="init(evt)">
<style type="text/css"><![CDATA[
.node, .edge {opacity: 0.7;}
.node.selected, .edge.selected {opacity: 1;}
.edge:hover path { stroke: red; }
.edge:hover polygon { stroke: red; fill: red; }
]]></style>

<defs>
  <circle id="rim" cx="0" cy="0" r="7"/>
  <circle id="rim2" cx="0" cy="0" r="3.5"/>
  <g id="zoomPlus">
    <use xlink:href="#rim" fill="#404040"><set attributeName="fill" to="#808080" begin="zoomplus.mouseover" end="zoomplus.mouseout"/></use>
    <path d="M-4,0h8M0,-4v8" fill="none" stroke="white" stroke-width="1.5" pointer-events="none"/>
  </g>
  <g id="zoomMin">
    <use xlink:href="#rim" fill="#404040"><set attributeName="fill" to="#808080" begin="zoomminus.mouseover" end="zoomminus.mouseout"/></use>
    <path d="M-4,0h8" fill="none" stroke="white" stroke-width="1.5" pointer-events="none"/>
  </g>
  <g id="arrowUp" transform="translate(30 24)">
    <use xlink:href="#rim"/>
    <path pointer-events="none" fill="none" stroke="white" stroke-width="1.5" d="M0,-3.0v7 M-2.5,-0.5L0,-3.0L2.5,-0.5"/>
  </g>
  <g id="arrowRight" transform="rotate(90) translate(36 -43)">
    <use xlink:href="#rim"/>
    <path pointer-events="none" fill="none" stroke="white" stroke-width="1.5" d="M0,-3.0v7 M-2.5,-0.5L0,-3.0L2.5,-0.5"/>
  </g>
  <g id="arrowDown" transform="rotate(180) translate(-30 -48)">
    <use xlink:href="#rim"/>
    <path pointer-events="none" fill="none" stroke="white" stroke-width="1.5" d="M0,-3.0v7 M-2.5,-0.5L0,-3.0L2.5,-0.5"/>
  </g>
  <g id="arrowLeft" transform="rotate(270) translate(-36 17)">
    <use xlink:href="#rim"/>
    <path pointer-events="none" fill="none" stroke="white" stroke-width="1.5" d="M0,-3.0v7 M-2.5,-0.5L0,-3.0L2.5,-0.5"/>
  </g>
  <g id="resetDef">
    <use xlink:href="#rim2" fill="#404040"><set attributeName="fill" to="#808080" begin="reset.mouseover" end="reset.mouseout"/></use>
  </g>
</defs>
<script type="application/ecmascript">
var viewWidth = 203;
var viewHeight = 1296;
var sectionId = 'dynsection-0';
</script>
<script type="application/ecmascript" xlink:href="../../svg.min.js"/>
<svg id="graph" class="graph">
<g id="viewport">
<title>NodeLine</title>
<!-- Node1 -->
<g id="Node000001" class="node">
<title>Node1</title>
<g id="a_Node000001"><a xlink:title="A NodeLine class.">
<polygon fill="#999999" stroke="transparent" points="158,-148 37,-148 37,0 158,0 158,-148"/>
<text text-anchor="start" x="70.5" y="-135.2" font-family="Consolas" font-size="11.00">NodeLine</text>
<text text-anchor="start" x="94.5" y="-119.2" font-family="Consolas" font-size="11.00"> </text>
<text text-anchor="start" x="41.5" y="-103.2" font-family="Consolas" font-size="11.00">+</text>
<text text-anchor="start" x="52.5" y="-103.2" font-family="Consolas" font-size="11.00">NodeLine()</text>
<text text-anchor="start" x="41.5" y="-87.2" font-family="Consolas" font-size="11.00">+</text>
<text text-anchor="start" x="52.5" y="-87.2" font-family="Consolas" font-size="11.00">initialize()</text>
<text text-anchor="start" x="41.5" y="-71.2" font-family="Consolas" font-size="11.00">+</text>
<text text-anchor="start" x="52.5" y="-71.2" font-family="Consolas" font-size="11.00">process()</text>
<text text-anchor="start" x="41.5" y="-55.2" font-family="Consolas" font-size="11.00">+</text>
<text text-anchor="start" x="52.5" y="-55.2" font-family="Consolas" font-size="11.00">update_status()</text>
<text text-anchor="start" x="41.5" y="-39.2" font-family="Consolas" font-size="11.00">+</text>
<text text-anchor="start" x="52.5" y="-39.2" font-family="Consolas" font-size="11.00">commit_status()</text>
<text text-anchor="start" x="41.5" y="-23.2" font-family="Consolas" font-size="11.00">+</text>
<text text-anchor="start" x="52.5" y="-23.2" font-family="Consolas" font-size="11.00">clear_status()</text>
<text text-anchor="start" x="41.5" y="-7.2" font-family="Consolas" font-size="11.00">+</text>
<text text-anchor="start" x="52.5" y="-7.2" font-family="Consolas" font-size="11.00">reset_status()</text>
<polygon fill="#666666" stroke="#666666" points="37.5,-130 37.5,-130 158.5,-130 158.5,-130 37.5,-130"/>
<polygon fill="#666666" stroke="#666666" points="37.5,-114 37.5,-114 158.5,-114 158.5,-114 37.5,-114"/>
<polygon fill="none" stroke="#666666" points="37,0 37,-148 158,-148 158,0 37,0"/>
</a>
</g>
</g>
<!-- Node2 -->
<g id="Node000002" class="node">
<title>Node2</title>
<g id="a_Node000002"><a xlink:href="../../d8/d71/class_constraint.html" target="_top" xlink:title="A Constraint class.">
<polygon fill="white" stroke="transparent" points="195,-556 0,-556 0,-184 195,-184 195,-556"/>
<text text-anchor="start" x="64" y="-543.2" font-family="Consolas" font-size="11.00">Constraint</text>
<text text-anchor="start" x="4.5" y="-527.2" font-family="Consolas" font-size="11.00">#</text>
<text text-anchor="start" x="15.5" y="-527.2" font-family="Consolas" font-size="11.00">num_size</text>
<text text-anchor="start" x="4.5" y="-511.2" font-family="Consolas" font-size="11.00">#</text>
<text text-anchor="start" x="15.5" y="-511.2" font-family="Consolas" font-size="11.00">trial_lambda</text>
<text text-anchor="start" x="4.5" y="-495.2" font-family="Consolas" font-size="11.00">#</text>
<text text-anchor="start" x="15.5" y="-495.2" font-family="Consolas" font-size="11.00">current_lambda</text>
<text text-anchor="start" x="4.5" y="-479.2" font-family="Consolas" font-size="11.00">#</text>
<text text-anchor="start" x="15.5" y="-479.2" font-family="Consolas" font-size="11.00">resistance</text>
<text text-anchor="start" x="4.5" y="-463.2" font-family="Consolas" font-size="11.00">#</text>
<text text-anchor="start" x="15.5" y="-463.2" font-family="Consolas" font-size="11.00">stiffness</text>
<text text-anchor="start" x="4.5" y="-447.2" font-family="Consolas" font-size="11.00">#</text>
<text text-anchor="start" x="15.5" y="-447.2" font-family="Consolas" font-size="11.00">auxiliary_resistance</text>
<text text-anchor="start" x="4.5" y="-431.2" font-family="Consolas" font-size="11.00">#</text>
<text text-anchor="start" x="15.5" y="-431.2" font-family="Consolas" font-size="11.00">auxiliary_load</text>
<text text-anchor="start" x="4.5" y="-415.2" font-family="Consolas" font-size="11.00">#</text>
<text text-anchor="start" x="15.5" y="-415.2" font-family="Consolas" font-size="11.00">auxiliary_stiffness</text>
<text text-anchor="start" x="4.5" y="-399.2" font-family="Consolas" font-size="11.00">#</text>
<text text-anchor="start" x="15.5" y="-399.2" font-family="Consolas" font-size="11.00">multiplier</text>
<text text-anchor="start" x="4.5" y="-383.2" font-family="Consolas" font-size="11.00">+</text>
<text text-anchor="start" x="15.5" y="-383.2" font-family="Consolas" font-size="11.00">Constraint()</text>
<text text-anchor="start" x="4.5" y="-367.2" font-family="Consolas" font-size="11.00">+</text>
<text text-anchor="start" x="15.5" y="-367.2" font-family="Consolas" font-size="11.00">Constraint()</text>
<text text-anchor="start" x="4.5" y="-351.2" font-family="Consolas" font-size="11.00">+</text>
<text text-anchor="start" x="15.5" y="-351.2" font-family="Consolas" font-size="11.00">Constraint()</text>
<text text-anchor="start" x="4.5" y="-335.2" font-family="Consolas" font-size="11.00">+</text>
<text text-anchor="start" x="15.5" y="-335.2" font-family="Consolas" font-size="11.00">operator=()</text>
<text text-anchor="start" x="4.5" y="-319.2" font-family="Consolas" font-size="11.00">+</text>
<text text-anchor="start" x="15.5" y="-319.2" font-family="Consolas" font-size="11.00">operator=()</text>
<text text-anchor="start" x="4.5" y="-303.2" font-family="Consolas" font-size="11.00">+</text>
<text text-anchor="start" x="15.5" y="-303.2" font-family="Consolas" font-size="11.00">~Constraint()</text>
<text text-anchor="start" x="4.5" y="-287.2" font-family="Consolas" font-size="11.00">+</text>
<text text-anchor="start" x="15.5" y="-287.2" font-family="Consolas" font-size="11.00">get_resistance()</text>
<text text-anchor="start" x="4.5" y="-271.2" font-family="Consolas" font-size="11.00">+</text>
<text text-anchor="start" x="15.5" y="-271.2" font-family="Consolas" font-size="11.00">get_stiffness()</text>
<text text-anchor="start" x="4.5" y="-255.2" font-family="Consolas" font-size="11.00">+</text>
<text text-anchor="start" x="15.5" y="-255.2" font-family="Consolas" font-size="11.00">get_auxiliary_resistance()</text>
<text text-anchor="start" x="4.5" y="-239.2" font-family="Consolas" font-size="11.00">+</text>
<text text-anchor="start" x="15.5" y="-239.2" font-family="Consolas" font-size="11.00">get_auxiliary_load()</text>
<text text-anchor="start" x="4.5" y="-223.2" font-family="Consolas" font-size="11.00">+</text>
<text text-anchor="start" x="15.5" y="-223.2" font-family="Consolas" font-size="11.00">get_auxiliary_stiffness()</text>
<text text-anchor="start" x="4.5" y="-207.2" font-family="Consolas" font-size="11.00">+</text>
<text text-anchor="start" x="15.5" y="-207.2" font-family="Consolas" font-size="11.00">set_multiplier_size()</text>
<text text-anchor="start" x="4.5" y="-191.2" font-family="Consolas" font-size="11.00">+</text>
<text text-anchor="start" x="15.5" y="-191.2" font-family="Consolas" font-size="11.00">get_multiplier_size()</text>
<polygon fill="#666666" stroke="#666666" points="0.5,-538 0.5,-538 195.5,-538 195.5,-538 0.5,-538"/>
<polygon fill="#666666" stroke="#666666" points="0.5,-394 0.5,-394 13.5,-394 13.5,-394 0.5,-394"/>
<polygon fill="#666666" stroke="#666666" points="13.5,-394 13.5,-394 195.5,-394 195.5,-394 13.5,-394"/>
<polygon fill="none" stroke="#666666" points="0,-184 0,-556 195,-556 195,-184 0,-184"/>
</a>
</g>
</g>
<!-- Node2&#45;&gt;Node1 -->
<g id="edge1_Node000001_Node000002" class="edge">
<title>Node2&#45;&gt;Node1</title>
<g id="a_edge1_Node000001_Node000002"><a xlink:title=" ">
<path fill="none" stroke="#63b8ff" d="M97.5,-173.58C97.5,-164.75 97.5,-156.2 97.5,-148.05"/>
<polygon fill="none" stroke="#63b8ff" points="94,-173.64 97.5,-183.64 101,-173.64 94,-173.64"/>
</a>
</g>
</g>
<!-- Node3 -->
<g id="Node000003" class="node">
<title>Node3</title>
<g id="a_Node000003"><a xlink:href="../../da/d44/class_conditional_modifier.html" target="_top" xlink:title="A ConditionalModifier class.">
<polygon fill="white" stroke="transparent" points="181.5,-976 13.5,-976 13.5,-592 181.5,-592 181.5,-976"/>
<text text-anchor="start" x="33" y="-963.2" font-family="Consolas" font-size="11.00">ConditionalModifier</text>
<text text-anchor="start" x="17.5" y="-947.2" font-family="Consolas" font-size="11.00">#</text>
<text text-anchor="start" x="28.5" y="-947.2" font-family="Consolas" font-size="11.00">initialized</text>
<text text-anchor="start" x="17.5" y="-931.2" font-family="Consolas" font-size="11.00">#</text>
<text text-anchor="start" x="28.5" y="-931.2" font-family="Consolas" font-size="11.00">connected</text>
<text text-anchor="start" x="17.5" y="-915.2" font-family="Consolas" font-size="11.00">#</text>
<text text-anchor="start" x="28.5" y="-915.2" font-family="Consolas" font-size="11.00">start_step</text>
<text text-anchor="start" x="17.5" y="-899.2" font-family="Consolas" font-size="11.00">#</text>
<text text-anchor="start" x="28.5" y="-899.2" font-family="Consolas" font-size="11.00">end_step</text>
<text text-anchor="start" x="17.5" y="-883.2" font-family="Consolas" font-size="11.00">#</text>
<text text-anchor="start" x="28.5" y="-883.2" font-family="Consolas" font-size="11.00">amplitude_tag</text>
<text text-anchor="start" x="17.5" y="-867.2" font-family="Consolas" font-size="11.00">#</text>
<text text-anchor="start" x="28.5" y="-867.2" font-family="Consolas" font-size="11.00">node_encoding</text>
<text text-anchor="start" x="17.5" y="-851.2" font-family="Consolas" font-size="11.00">#</text>
<text text-anchor="start" x="28.5" y="-851.2" font-family="Consolas" font-size="11.00">dof_reference</text>
<text text-anchor="start" x="17.5" y="-835.2" font-family="Consolas" font-size="11.00">#</text>
<text text-anchor="start" x="28.5" y="-835.2" font-family="Consolas" font-size="11.00">dof_encoding</text>
<text text-anchor="start" x="17.5" y="-819.2" font-family="Consolas" font-size="11.00">#</text>
<text text-anchor="start" x="28.5" y="-819.2" font-family="Consolas" font-size="11.00">magnitude</text>
<text text-anchor="start" x="17.5" y="-803.2" font-family="Consolas" font-size="11.00">+</text>
<text text-anchor="start" x="28.5" y="-803.2" font-family="Consolas" font-size="11.00">ConditionalModifier()</text>
<text text-anchor="start" x="17.5" y="-787.2" font-family="Consolas" font-size="11.00">+</text>
<text text-anchor="start" x="28.5" y="-787.2" font-family="Consolas" font-size="11.00">initialize()</text>
<text text-anchor="start" x="17.5" y="-771.2" font-family="Consolas" font-size="11.00">+</text>
<text text-anchor="start" x="28.5" y="-771.2" font-family="Consolas" font-size="11.00">process()</text>
<text text-anchor="start" x="17.5" y="-755.2" font-family="Consolas" font-size="11.00">+</text>
<text text-anchor="start" x="28.5" y="-755.2" font-family="Consolas" font-size="11.00">process_resistance()</text>
<text text-anchor="start" x="17.5" y="-739.2" font-family="Consolas" font-size="11.00">+</text>
<text text-anchor="start" x="28.5" y="-739.2" font-family="Consolas" font-size="11.00">stage()</text>
<text text-anchor="start" x="17.5" y="-723.2" font-family="Consolas" font-size="11.00">+</text>
<text text-anchor="start" x="28.5" y="-723.2" font-family="Consolas" font-size="11.00">get_node_encoding()</text>
<text text-anchor="start" x="17.5" y="-707.2" font-family="Consolas" font-size="11.00">+</text>
<text text-anchor="start" x="28.5" y="-707.2" font-family="Consolas" font-size="11.00">get_dof_encoding()</text>
<text text-anchor="start" x="17.5" y="-691.2" font-family="Consolas" font-size="11.00">+</text>
<text text-anchor="start" x="28.5" y="-691.2" font-family="Consolas" font-size="11.00">set_initialized()</text>
<text text-anchor="start" x="17.5" y="-675.2" font-family="Consolas" font-size="11.00">+</text>
<text text-anchor="start" x="28.5" y="-675.2" font-family="Consolas" font-size="11.00">is_initialized()</text>
<text text-anchor="start" x="17.5" y="-659.2" font-family="Consolas" font-size="11.00">+</text>
<text text-anchor="start" x="28.5" y="-659.2" font-family="Consolas" font-size="11.00">set_start_step()</text>
<text text-anchor="start" x="28.5" y="-643.2" font-family="Consolas" font-size="11.00">and 10 more...</text>
<text text-anchor="start" x="17.5" y="-627.2" font-family="Consolas" font-size="11.00">#</text>
<text text-anchor="start" x="28.5" y="-627.2" font-family="Consolas" font-size="11.00">get_nodal_active_dof()</text>
<text text-anchor="start" x="17.5" y="-611.2" font-family="Consolas" font-size="11.00">#</text>
<text text-anchor="start" x="28.5" y="-611.2" font-family="Consolas" font-size="11.00">get_all_nodal_active</text>
<text text-anchor="start" x="28.5" y="-599.2" font-family="Consolas" font-size="11.00">_dof()</text>
<polygon fill="#666666" stroke="#666666" points="13.5,-958 13.5,-958 181.5,-958 181.5,-958 13.5,-958"/>
<polygon fill="#666666" stroke="#666666" points="13.5,-814 13.5,-814 26.5,-814 26.5,-814 13.5,-814"/>
<polygon fill="#666666" stroke="#666666" points="26.5,-814 26.5,-814 181.5,-814 181.5,-814 26.5,-814"/>
<polygon fill="none" stroke="#666666" points="13.5,-592 13.5,-976 181.5,-976 181.5,-592 13.5,-592"/>
</a>
</g>
</g>
<!-- Node3&#45;&gt;Node2 -->
<g id="edge2_Node000002_Node000003" class="edge">
<title>Node3&#45;&gt;Node2</title>
<g id="a_edge2_Node000002_Node000003"><a xlink:title=" ">
<path fill="none" stroke="#63b8ff" d="M97.5,-581.74C97.5,-573.18 97.5,-564.61 97.5,-556.09"/>
<polygon fill="none" stroke="#63b8ff" points="94,-581.77 97.5,-591.77 101,-581.77 94,-581.77"/>
</a>
</g>
</g>
<!-- Node4 -->
<g id="Node000004" class="node">
<title>Node4</title>
<g id="a_Node000004"><a xlink:href="../../d0/d57/class_tag.html" target="_top" xlink:title="A base Tag class.">
<polygon fill="white" stroke="transparent" points="148,-1288 47,-1288 47,-1012 148,-1012 148,-1288"/>
<text text-anchor="start" x="87.5" y="-1275.2" font-family="Consolas" font-size="11.00">Tag</text>
<text text-anchor="start" x="94.5" y="-1259.2" font-family="Consolas" font-size="11.00"> </text>
<text text-anchor="start" x="51.5" y="-1243.2" font-family="Consolas" font-size="11.00">+</text>
<text text-anchor="start" x="62.5" y="-1243.2" font-family="Consolas" font-size="11.00">Tag()</text>
<text text-anchor="start" x="51.5" y="-1227.2" font-family="Consolas" font-size="11.00">+</text>
<text text-anchor="start" x="62.5" y="-1227.2" font-family="Consolas" font-size="11.00">Tag()</text>
<text text-anchor="start" x="51.5" y="-1211.2" font-family="Consolas" font-size="11.00">+</text>
<text text-anchor="start" x="62.5" y="-1211.2" font-family="Consolas" font-size="11.00">Tag()</text>
<text text-anchor="start" x="51.5" y="-1195.2" font-family="Consolas" font-size="11.00">+</text>
<text text-anchor="start" x="62.5" y="-1195.2" font-family="Consolas" font-size="11.00">operator=()</text>
<text text-anchor="start" x="51.5" y="-1179.2" font-family="Consolas" font-size="11.00">+</text>
<text text-anchor="start" x="62.5" y="-1179.2" font-family="Consolas" font-size="11.00">operator=()</text>
<text text-anchor="start" x="51.5" y="-1163.2" font-family="Consolas" font-size="11.00">+</text>
<text text-anchor="start" x="62.5" y="-1163.2" font-family="Consolas" font-size="11.00">~Tag()</text>
<text text-anchor="start" x="51.5" y="-1147.2" font-family="Consolas" font-size="11.00">+</text>
<text text-anchor="start" x="62.5" y="-1147.2" font-family="Consolas" font-size="11.00">set_tag()</text>
<text text-anchor="start" x="51.5" y="-1131.2" font-family="Consolas" font-size="11.00">+</text>
<text text-anchor="start" x="62.5" y="-1131.2" font-family="Consolas" font-size="11.00">get_tag()</text>
<text text-anchor="start" x="51.5" y="-1115.2" font-family="Consolas" font-size="11.00">+</text>
<text text-anchor="start" x="62.5" y="-1115.2" font-family="Consolas" font-size="11.00">enable()</text>
<text text-anchor="start" x="51.5" y="-1099.2" font-family="Consolas" font-size="11.00">+</text>
<text text-anchor="start" x="62.5" y="-1099.2" font-family="Consolas" font-size="11.00">disable()</text>
<text text-anchor="start" x="51.5" y="-1083.2" font-family="Consolas" font-size="11.00">+</text>
<text text-anchor="start" x="62.5" y="-1083.2" font-family="Consolas" font-size="11.00">guard()</text>
<text text-anchor="start" x="51.5" y="-1067.2" font-family="Consolas" font-size="11.00">+</text>
<text text-anchor="start" x="62.5" y="-1067.2" font-family="Consolas" font-size="11.00">unguard()</text>
<text text-anchor="start" x="51.5" y="-1051.2" font-family="Consolas" font-size="11.00">+</text>
<text text-anchor="start" x="62.5" y="-1051.2" font-family="Consolas" font-size="11.00">is_active()</text>
<text text-anchor="start" x="51.5" y="-1035.2" font-family="Consolas" font-size="11.00">+</text>
<text text-anchor="start" x="62.5" y="-1035.2" font-family="Consolas" font-size="11.00">is_guarded()</text>
<text text-anchor="start" x="51.5" y="-1019.2" font-family="Consolas" font-size="11.00">+</text>
<text text-anchor="start" x="62.5" y="-1019.2" font-family="Consolas" font-size="11.00">print()</text>
<polygon fill="#666666" stroke="#666666" points="47.5,-1270 47.5,-1270 148.5,-1270 148.5,-1270 47.5,-1270"/>
<polygon fill="#666666" stroke="#666666" points="47.5,-1254 47.5,-1254 148.5,-1254 148.5,-1254 47.5,-1254"/>
<polygon fill="none" stroke="#666666" points="47,-1012 47,-1288 148,-1288 148,-1012 47,-1012"/>
</a>
</g>
</g>
<!-- Node4&#45;&gt;Node3 -->
<g id="edge3_Node000003_Node000004" class="edge">
<title>Node4&#45;&gt;Node3</title>
<g id="a_edge3_Node000003_Node000004"><a xlink:title=" ">
<path fill="none" stroke="#63b8ff" d="M97.5,-1001.71C97.5,-993.3 97.5,-984.79 97.5,-976.26"/>
<polygon fill="none" stroke="#63b8ff" points="94,-1001.91 97.5,-1011.91 101,-1001.91 94,-1001.91"/>
</a>
</g>
</g>
</g>
</svg>

<g id="navigator" transform="translate(0 0)" fill="#404254">
  <rect fill="#f2f5e9" fill-opacity="0.5" stroke="#606060" stroke-width=".5" x="0" y="0" width="60" height="60"/>
  <use id="zoomplus" xlink:href="#zoomPlus" x="17" y="9" onmousedown="handleZoom(evt,'in')"/>
  <use id="zoomminus" xlink:href="#zoomMin" x="42" y="9" onmousedown="handleZoom(evt,'out')"/>
  <use id="reset" xlink:href="#resetDef" x="30" y="36" onmousedown="handleReset()"/>
   <use id="arrowup" xlink:href="#arrowUp" x="0" y="0" onmousedown="handlePan(0,-1)"/>
  <use id="arrowright" xlink:href="#arrowRight" x="0" y="0" onmousedown="handlePan(1,0)"/>
  <use id="arrowdown" xlink:href="#arrowDown" x="0" y="0" onmousedown="handlePan(0,1)"/>
  <use id="arrowleft" xlink:href="#arrowLeft" x="0" y="0" onmousedown="handlePan(-1,0)"/>
</g>
<svg viewBox="0 0 15 15" width="100%" height="30px" preserveAspectRatio="xMaxYMin meet">
 <g id="arrow_out" transform="scale(0.3 0.3)">
  <a xlink:href="class_node_line__inherit__graph_org.svg" target="_base">
   <rect id="button" ry="5" rx="5" y="6" x="6" height="38" width="38"
        fill="#f2f5e9" fill-opacity="0.5" stroke="#606060" stroke-width="1.0"/>
   <path id="arrow"
     d="M 11.500037,31.436501 C 11.940474,20.09759 22.043105,11.32322 32.158766,21.979434 L 37.068811,17.246167 C 37.068811,17.246167 37.088388,32 37.088388,32 L 22.160133,31.978069 C 22.160133,31.978069 26.997745,27.140456 26.997745,27.140456 C 18.528582,18.264221 13.291696,25.230495 11.500037,31.436501 z"
     style="fill:#404040;"/>
  </a>
 </g>
</svg>

<style type='text/css'>
<![CDATA[
[data-mouse-over-selected='false'] { opacity: 0.7; }
[data-mouse-over-selected='true']  { opacity: 1.0; }
]]>
</style>
<script type="application/ecmascript"><![CDATA[
document.addEventListener('DOMContentLoaded', (event) => {
  highlightEdges();
  highlightAdjacentNodes();
});
]]></script>
</svg>
