<?xml version="1.0" encoding="UTF-8" standalone="no"?>
<!DOCTYPE svg PUBLIC "-//W3C//DTD SVG 1.1//EN"
 "http://www.w3.org/Graphics/SVG/1.1/DTD/svg11.dtd">
<!-- Generated by graphviz version 9.0.0 (20230911.1827)
 -->
<!-- Title: check_file Pages: 1 -->
<svg width="894pt" height="150pt"
 viewBox="0.00 0.00 894.00 149.50" xmlns="http://www.w3.org/2000/svg" xmlns:xlink="http://www.w3.org/1999/xlink">
<g id="graph0" class="graph" transform="scale(1 1) rotate(0) translate(4 145.5)">
<title>check_file</title>
<!-- Node1 -->
<g id="Node000001" class="node">
<title>Node1</title>
<g id="a_Node000001"><a xlink:title=" ">
<polygon fill="#999999" stroke="#666666" points="886,-81.5 810,-81.5 810,-60 886,-60 886,-81.5"/>
<text text-anchor="middle" x="848" y="-67.05" font-family="Consolas" font-size="11.00">check_file</text>
</a>
</g>
</g>
<!-- Node2 -->
<g id="Node000002" class="node">
<title>Node2</title>
<g id="a_Node000002"><a xlink:href="../../dd/daa/_expression_parser_8cpp.html#a527eaec4bb9544b2ccc7ce7717c3cd44" target="_top" xlink:title=" ">
<polygon fill="white" stroke="#666666" points="774,-121.5 662,-121.5 662,-100 774,-100 774,-121.5"/>
<text text-anchor="middle" x="718" y="-107.05" font-family="Consolas" font-size="11.00">new_simplescalar</text>
</a>
</g>
</g>
<!-- Node1&#45;&gt;Node2 -->
<g id="edge1_Node000001_Node000002" class="edge">
<title>Node1&#45;&gt;Node2</title>
<g id="a_edge1_Node000001_Node000002"><a xlink:title=" ">
<path fill="none" stroke="#63b8ff" d="M800.34,-85.33C785.29,-90.03 768.86,-95.17 754.73,-99.59"/>
<polygon fill="#63b8ff" stroke="#63b8ff" points="801.06,-88.77 809.56,-82.45 798.97,-82.09 801.06,-88.77"/>
</a>
</g>
</g>
<!-- Node11 -->
<g id="Node000011" class="node">
<title>Node11</title>
<g id="a_Node000011"><a xlink:href="../../dd/daa/_expression_parser_8cpp.html#ac1940e763caa20b4cdbdb755a01a1ca1" target="_top" xlink:title=" ">
<polygon fill="white" stroke="#666666" points="774,-81.5 662,-81.5 662,-60 774,-60 774,-81.5"/>
<text text-anchor="middle" x="718" y="-67.05" font-family="Consolas" font-size="11.00">new_simplevector</text>
</a>
</g>
</g>
<!-- Node1&#45;&gt;Node11 -->
<g id="edge14_Node000001_Node000011" class="edge">
<title>Node1&#45;&gt;Node11</title>
<g id="a_edge14_Node000001_Node000011"><a xlink:title=" ">
<path fill="none" stroke="#63b8ff" d="M798.38,-70.75C790.5,-70.75 782.28,-70.75 774.25,-70.75"/>
<polygon fill="#63b8ff" stroke="#63b8ff" points="798.12,-74.25 808.12,-70.75 798.12,-67.25 798.12,-74.25"/>
</a>
</g>
</g>
<!-- Node12 -->
<g id="Node000012" class="node">
<title>Node12</title>
<g id="a_Node000012"><a xlink:href="../../d7/d26/_material_parser_8cpp.html#a0187495efc696333a3ef7026ea95d951" target="_top" xlink:title=" ">
<polygon fill="white" stroke="#666666" points="762,-41.5 674,-41.5 674,-20 762,-20 762,-41.5"/>
<text text-anchor="middle" x="718" y="-27.05" font-family="Consolas" font-size="11.00">new_tablecdp</text>
</a>
</g>
</g>
<!-- Node1&#45;&gt;Node12 -->
<g id="edge16_Node000001_Node000012" class="edge">
<title>Node1&#45;&gt;Node12</title>
<g id="a_edge16_Node000001_Node000012"><a xlink:title=" ">
<path fill="none" stroke="#63b8ff" d="M800.34,-56.17C785.29,-51.47 768.86,-46.33 754.73,-41.91"/>
<polygon fill="#63b8ff" stroke="#63b8ff" points="798.97,-59.41 809.56,-59.05 801.06,-52.73 798.97,-59.41"/>
</a>
</g>
</g>
<!-- Node3 -->
<g id="Node000003" class="node">
<title>Node3</title>
<g id="a_Node000003"><a xlink:href="../../dd/daa/_expression_parser_8cpp.html#a3a23f92194b3c7acf0089668ed63f8f6" target="_top" xlink:title=" ">
<polygon fill="white" stroke="#666666" points="626,-81.5 484,-81.5 484,-60 626,-60 626,-81.5"/>
<text text-anchor="middle" x="555" y="-67.05" font-family="Consolas" font-size="11.00">create_new_expression</text>
</a>
</g>
</g>
<!-- Node2&#45;&gt;Node3 -->
<g id="edge2_Node000002_Node000003" class="edge">
<title>Node2&#45;&gt;Node3</title>
<g id="a_edge2_Node000002_Node000003"><a xlink:title=" ">
<path fill="none" stroke="#63b8ff" d="M660.56,-96.73C641.13,-91.9 619.63,-86.56 601.21,-81.98"/>
<polygon fill="#63b8ff" stroke="#63b8ff" points="659.71,-100.12 670.26,-99.14 661.39,-93.33 659.71,-100.12"/>
</a>
</g>
</g>
<!-- Node4 -->
<g id="Node000004" class="node">
<title>Node4</title>
<g id="a_Node000004"><a xlink:href="../../da/d46/group___utility.html#ga9867a3ab23d73b1a903c291427114d4c" target="_top" xlink:title=" ">
<polygon fill="white" stroke="#666666" points="448,-61.5 342,-61.5 342,-40 448,-40 448,-61.5"/>
<text text-anchor="middle" x="395" y="-47.05" font-family="Consolas" font-size="11.00">process_command</text>
</a>
</g>
</g>
<!-- Node3&#45;&gt;Node4 -->
<g id="edge3_Node000003_Node000004" class="edge">
<title>Node3&#45;&gt;Node4</title>
<g id="a_edge3_Node000003_Node000004"><a xlink:title=" ">
<path fill="none" stroke="#63b8ff" d="M472.61,-60.45C464.41,-59.41 456.24,-58.38 448.46,-57.39"/>
<polygon fill="#63b8ff" stroke="#63b8ff" points="471.92,-63.89 482.28,-61.67 472.8,-56.94 471.92,-63.89"/>
</a>
</g>
</g>
<!-- Node5 -->
<g id="Node000005" class="node">
<title>Node5</title>
<g id="a_Node000005"><a xlink:href="../../da/d46/group___utility.html#ga8bf8736c7a14e90bd7313d121b2ac440" target="_top" xlink:title=" ">
<polygon fill="white" stroke="#666666" points="294,-141.5 230,-141.5 230,-120 294,-120 294,-141.5"/>
<text text-anchor="middle" x="262" y="-127.05" font-family="Consolas" font-size="11.00">cli_mode</text>
</a>
</g>
</g>
<!-- Node4&#45;&gt;Node5 -->
<g id="edge4_Node000004_Node000005" class="edge">
<title>Node4&#45;&gt;Node5</title>
<g id="a_edge4_Node000004_Node000005"><a xlink:title=" ">
<path fill="none" stroke="#63b8ff" d="M370.37,-68.42C353.03,-81 328.65,-97.87 306,-110.75 300.56,-113.84 294.56,-116.86 288.81,-119.58"/>
<polygon fill="#63b8ff" stroke="#63b8ff" points="372,-71.56 378,-62.82 367.87,-65.91 372,-71.56"/>
</a>
</g>
</g>
<!-- Node8 -->
<g id="Node000008" class="node">
<title>Node8</title>
<g id="a_Node000008"><a xlink:href="../../d1/d81/command_8cpp.html#a5239be18e56b5ec86ad0fbadd6020737" target="_top" xlink:title=" ">
<polygon fill="white" stroke="#666666" points="294,-101.5 230,-101.5 230,-80 294,-80 294,-101.5"/>
<text text-anchor="middle" x="262" y="-87.05" font-family="Consolas" font-size="11.00">overview</text>
</a>
</g>
</g>
<!-- Node4&#45;&gt;Node8 -->
<g id="edge7_Node000004_Node000008" class="edge">
<title>Node4&#45;&gt;Node8</title>
<g id="a_edge7_Node000004_Node000008"><a xlink:title=" ">
<path fill="none" stroke="#63b8ff" d="M331.13,-63.2C313.81,-68.43 296.23,-74.36 283.27,-79.52"/>
<polygon fill="#63b8ff" stroke="#63b8ff" points="331.79,-66.66 340.4,-60.48 329.82,-59.94 331.79,-66.66"/>
</a>
</g>
</g>
<!-- Node9 -->
<g id="Node000009" class="node">
<title>Node9</title>
<g id="a_Node000009"><a xlink:href="../../da/d46/group___utility.html#gae4e3a17f22e5253a23b9955c66935551" target="_top" xlink:title=" ">
<polygon fill="white" stroke="#666666" points="306,-61.5 218,-61.5 218,-40 306,-40 306,-61.5"/>
<text text-anchor="middle" x="262" y="-47.05" font-family="Consolas" font-size="11.00">process_file</text>
</a>
</g>
</g>
<!-- Node4&#45;&gt;Node9 -->
<g id="edge9_Node000004_Node000009" class="edge">
<title>Node4&#45;&gt;Node9</title>
<g id="a_edge9_Node000004_Node000009"><a xlink:title=" ">
<path fill="none" stroke="#63b8ff" d="M330.62,-44C322.32,-43.98 313.98,-44.1 306.13,-44.36"/>
<polygon fill="#63b8ff" stroke="#63b8ff" points="330.3,-47.5 340.34,-44.11 330.37,-40.5 330.3,-47.5"/>
</a>
</g>
</g>
<!-- Node10 -->
<g id="Node000010" class="node">
<title>Node10</title>
<g id="a_Node000010"><a xlink:href="../../d1/d81/command_8cpp.html#ab9314fd00ce5019a901017b7a09b7f36" target="_top" xlink:title=" ">
<polygon fill="white" stroke="#666666" points="303,-21.5 221,-21.5 221,0 303,0 303,-21.5"/>
<text text-anchor="middle" x="262" y="-7.05" font-family="Consolas" font-size="11.00">run_example</text>
</a>
</g>
</g>
<!-- Node4&#45;&gt;Node10 -->
<g id="edge12_Node000004_Node000010" class="edge">
<title>Node4&#45;&gt;Node10</title>
<g id="a_edge12_Node000004_Node000010"><a xlink:title=" ">
<path fill="none" stroke="#63b8ff" d="M363.12,-35.49C345.25,-28.98 322.55,-21.9 303.28,-16.77"/>
<polygon fill="#63b8ff" stroke="#63b8ff" points="361.81,-38.74 372.4,-39.01 364.3,-32.19 361.81,-38.74"/>
</a>
</g>
</g>
<!-- Node6 -->
<g id="Node000006" class="node">
<title>Node6</title>
<g id="a_Node000006"><a xlink:href="../../da/d46/group___utility.html#gaf8d2165909a5b05cf91dce632ce172a4" target="_top" xlink:title=" ">
<polygon fill="white" stroke="#666666" points="182,-101.5 76,-101.5 76,-80 182,-80 182,-101.5"/>
<text text-anchor="middle" x="129" y="-87.05" font-family="Consolas" font-size="11.00">argument_parser</text>
</a>
</g>
</g>
<!-- Node5&#45;&gt;Node6 -->
<g id="edge5_Node000005_Node000006" class="edge">
<title>Node5&#45;&gt;Node6</title>
<g id="a_edge5_Node000005_Node000006"><a xlink:title=" ">
<path fill="none" stroke="#63b8ff" d="M218.97,-117.92C202.15,-112.78 182.94,-106.92 166.7,-101.95"/>
<polygon fill="#63b8ff" stroke="#63b8ff" points="217.59,-121.15 228.17,-120.73 219.63,-114.46 217.59,-121.15"/>
</a>
</g>
</g>
<!-- Node7 -->
<g id="Node000007" class="node">
<title>Node7</title>
<g id="a_Node000007"><a xlink:href="../../d6/dfd/suan_pan_8cpp.html#a3c04138a5bfe5d72780bb7e82a18e627" target="_top" xlink:title=" ">
<polygon fill="white" stroke="#666666" points="40,-101.5 0,-101.5 0,-80 40,-80 40,-101.5"/>
<text text-anchor="middle" x="20" y="-87.05" font-family="Consolas" font-size="11.00">main</text>
</a>
</g>
</g>
<!-- Node6&#45;&gt;Node7 -->
<g id="edge6_Node000006_Node000007" class="edge">
<title>Node6&#45;&gt;Node7</title>
<g id="a_edge6_Node000006_Node000007"><a xlink:title=" ">
<path fill="none" stroke="#63b8ff" d="M64.27,-90.75C55.63,-90.75 47.36,-90.75 40.41,-90.75"/>
<polygon fill="#63b8ff" stroke="#63b8ff" points="64.24,-94.25 74.24,-90.75 64.24,-87.25 64.24,-94.25"/>
</a>
</g>
</g>
<!-- Node8&#45;&gt;Node4 -->
<g id="edge8_Node000008_Node000004" class="edge">
<title>Node8&#45;&gt;Node4</title>
<g id="a_edge8_Node000008_Node000004"><a xlink:title=" ">
<path fill="none" stroke="#63b8ff" d="M305.3,-84.19C328.28,-77.98 355.62,-69.19 373.82,-61.95"/>
<polygon fill="#63b8ff" stroke="#63b8ff" points="304.7,-80.73 295.9,-86.63 306.46,-87.51 304.7,-80.73"/>
</a>
</g>
</g>
<!-- Node9&#45;&gt;Node4 -->
<g id="edge11_Node000009_Node000004" class="edge">
<title>Node9&#45;&gt;Node4</title>
<g id="a_edge11_Node000009_Node000004"><a xlink:title=" ">
<path fill="none" stroke="#63b8ff" d="M317.37,-57.41C325.47,-57.54 333.8,-57.53 341.85,-57.37"/>
<polygon fill="#63b8ff" stroke="#63b8ff" points="317.73,-53.92 307.64,-57.17 317.56,-60.92 317.73,-53.92"/>
</a>
</g>
</g>
<!-- Node9&#45;&gt;Node6 -->
<g id="edge10_Node000009_Node000006" class="edge">
<title>Node9&#45;&gt;Node6</title>
<g id="a_edge10_Node000009_Node000006"><a xlink:title=" ">
<path fill="none" stroke="#63b8ff" d="M213.25,-65.33C197.85,-70.03 181.03,-75.17 166.56,-79.59"/>
<polygon fill="#63b8ff" stroke="#63b8ff" points="214.17,-68.71 222.71,-62.44 212.13,-62.01 214.17,-68.71"/>
</a>
</g>
</g>
<!-- Node10&#45;&gt;Node4 -->
<g id="edge13_Node000010_Node000004" class="edge">
<title>Node10&#45;&gt;Node4</title>
<g id="a_edge13_Node000010_Node000004"><a xlink:title=" ">
<path fill="none" stroke="#63b8ff" d="M293.99,-26.05C308.28,-31.25 325.63,-36.81 341.85,-41.45"/>
<polygon fill="#63b8ff" stroke="#63b8ff" points="295.28,-22.79 284.69,-22.52 292.8,-29.34 295.28,-22.79"/>
</a>
</g>
</g>
<!-- Node11&#45;&gt;Node3 -->
<g id="edge15_Node000011_Node000003" class="edge">
<title>Node11&#45;&gt;Node3</title>
<g id="a_edge15_Node000011_Node000003"><a xlink:title=" ">
<path fill="none" stroke="#63b8ff" d="M650.2,-70.75C642.31,-70.75 634.23,-70.75 626.3,-70.75"/>
<polygon fill="#63b8ff" stroke="#63b8ff" points="650.08,-74.25 660.08,-70.75 650.08,-67.25 650.08,-74.25"/>
</a>
</g>
</g>
<!-- Node13 -->
<g id="Node000013" class="node">
<title>Node13</title>
<g id="a_Node000013"><a xlink:href="../../d7/d26/_material_parser_8cpp.html#a294ff9cc20f044b0ed6cfa699b126412" target="_top" xlink:title=" ">
<polygon fill="white" stroke="#666666" points="620,-41.5 490,-41.5 490,-20 620,-20 620,-41.5"/>
<text text-anchor="middle" x="555" y="-27.05" font-family="Consolas" font-size="11.00">create_new_material</text>
</a>
</g>
</g>
<!-- Node12&#45;&gt;Node13 -->
<g id="edge17_Node000012_Node000013" class="edge">
<title>Node12&#45;&gt;Node13</title>
<g id="a_edge17_Node000012_Node000013"><a xlink:title=" ">
<path fill="none" stroke="#63b8ff" d="M662.35,-30.75C648.89,-30.75 634.35,-30.75 620.47,-30.75"/>
<polygon fill="#63b8ff" stroke="#63b8ff" points="662.34,-34.25 672.34,-30.75 662.34,-27.25 662.34,-34.25"/>
</a>
</g>
</g>
<!-- Node13&#45;&gt;Node4 -->
<g id="edge18_Node000013_Node000004" class="edge">
<title>Node13&#45;&gt;Node4</title>
<g id="a_edge18_Node000013_Node000004"><a xlink:title=" ">
<path fill="none" stroke="#63b8ff" d="M478.61,-40.29C468.29,-41.6 457.89,-42.92 448.12,-44.15"/>
<polygon fill="#63b8ff" stroke="#63b8ff" points="478.75,-43.8 488.23,-39.07 477.87,-36.86 478.75,-43.8"/>
</a>
</g>
</g>
</g>
</svg>
