<svg xmlns="http://www.w3.org/2000/svg" xmlns:xlink="http://www.w3.org/1999/xlink" xml:space="preserve" id="main" onload="init(evt)"><style>.edge,.node,[data-mouse-over-selected=false]{opacity:.7}.edge.selected,.node.selected,[data-mouse-over-selected=true]{opacity:1}.edge:hover path{stroke:red}.edge:hover polygon{stroke:red;fill:red}</style><defs><g id="zoomPlus"><use xlink:href="#rim" fill="#404040"><set attributeName="fill" begin="zoomplus.mouseover" end="zoomplus.mouseout" to="#808080"/></use><path fill="none" stroke="#fff" stroke-width="1.5" d="M-4 0h8M0-4v8" pointer-events="none"/></g><g id="zoomMin"><use xlink:href="#rim" fill="#404040"><set attributeName="fill" begin="zoomminus.mouseover" end="zoomminus.mouseout" to="#808080"/></use><path fill="none" stroke="#fff" stroke-width="1.5" d="M-4 0h8" pointer-events="none"/></g><g id="arrowUp" transform="translate(30 24)"><use xlink:href="#rim"/><path fill="none" stroke="#fff" stroke-width="1.5" d="M0-3v7M-2.5-.5 0-3 2.5-.5" pointer-events="none"/></g><g id="arrowRight" transform="rotate(90 3.5 39.5)"><use xlink:href="#rim"/><path fill="none" stroke="#fff" stroke-width="1.5" d="M0-3v7M-2.5-.5 0-3 2.5-.5" pointer-events="none"/></g><g id="arrowDown" transform="matrix(-1 0 0 -1 30 48)"><use xlink:href="#rim"/><path fill="none" stroke="#fff" stroke-width="1.5" d="M0-3v7M-2.5-.5 0-3 2.5-.5" pointer-events="none"/></g><g id="arrowLeft" transform="rotate(-90 26.5 9.5)"><use xlink:href="#rim"/><path fill="none" stroke="#fff" stroke-width="1.5" d="M0-3v7M-2.5-.5 0-3 2.5-.5" pointer-events="none"/></g><circle id="rim" cx="0" cy="0" r="7"/><circle id="rim2" cx="0" cy="0" r="3.5"/><use xlink:href="#rim2" id="resetDef" fill="#404040"><set attributeName="fill" begin="reset.mouseover" end="reset.mouseout" to="#808080"/></use></defs><script type="application/ecmascript">var viewWidth = 625;
var viewHeight = 444;
var sectionId = &apos;dynsection-0&apos;;</script><script xlink:href="../../svg.min.js" type="application/ecmascript"/><svg id="graph" class="graph"><g id="viewport"><title>Material/Material3D/Damage/LinearDamage.cpp</title><g id="Node000001" class="node"><title>Node1</title><a id="a_Node000001">
<path fill="#999" stroke="#666" d="M405-436H226v32h179z"/>
<text x="234" y="-423.2" font-family="Consolas" font-size="11">Material/Material3D</text>
<text x="315.5" y="-411.2" font-family="Consolas" font-size="11" text-anchor="middle">/Damage/LinearDamage.cpp</text>
</a></g><g id="Node000002" class="node"><title>Node2</title><a xlink:href="../../d2/dc7/_linear_damage_8h.html" id="a_Node000002" target="_top">
<path fill="#fff" stroke="#666" d="M303-368H192v20h111z"/>
<text x="247.5" y="-355.2" font-family="Consolas" font-size="11" text-anchor="middle">LinearDamage.h</text>
</a></g><g id="edge1_Node000001_Node000002" class="edge"><title>Node1-&gt;Node2</title><a id="a_edge1_Node000001_Node000002">
<path fill="none" stroke="#63b8ff" d="M298.34-403.86c-10.06 8.88-22.75 20.07-32.93 29.06"/>
<path fill="#63b8ff" stroke="#63b8ff" d="m267.69-372.15-9.82 4 5.19-9.24z"/>
</a></g><g id="Node000016" class="node"><title>Node16</title><a xlink:href="../../d2/d3d/tensor_8h.html" id="a_Node000016" target="_top">
<path fill="#fff" stroke="#666" d="M449-368H324v20h125z"/>
<text x="386.5" y="-355.2" font-family="Consolas" font-size="11" text-anchor="middle">Toolbox/tensor.h</text>
</a></g><g id="edge16_Node000001_Node000016" class="edge"><title>Node1-&gt;Node16</title><a id="a_edge16_Node000001_Node000016">
<path fill="none" stroke="#63b8ff" d="M333.42-403.86c10.5 8.88 23.75 20.07 34.38 29.06"/>
<path fill="#63b8ff" stroke="#63b8ff" d="m370.29-377.28 5.38 9.13-9.9-3.78z"/>
</a></g><g id="Node000003" class="node"><title>Node3</title><a xlink:href="../../dd/d84/_isotropic_damage_8h.html" id="a_Node000003" target="_top">
<path fill="#fff" stroke="#666" d="M307-312H176v20h131z"/>
<text x="241.5" y="-299.2" font-family="Consolas" font-size="11" text-anchor="middle">IsotropicDamage.h</text>
</a></g><g id="edge2_Node000002_Node000003" class="edge"><title>Node2-&gt;Node3</title><a id="a_edge2_Node000002_Node000003">
<path fill="none" stroke="#63b8ff" d="M246.45-347.59c-.77 6.96-1.85 16.7-2.81 25.3"/>
<path fill="#63b8ff" stroke="#63b8ff" d="m247.12-321.85-4.59 9.55-2.37-10.32z"/>
</a></g><g id="Node000004" class="node"><title>Node4</title><a xlink:href="../../dc/d12/_material3_d_8h.html" id="a_Node000004" target="_top">
<path fill="#fff" stroke="#666" d="M314-256H169v32h145z"/>
<text x="177" y="-243.2" font-family="Consolas" font-size="11">Material/Material3D</text>
<text x="241.5" y="-231.2" font-family="Consolas" font-size="11" text-anchor="middle">/Material3D.h</text>
</a></g><g id="edge3_Node000003_Node000004" class="edge"><title>Node3-&gt;Node4</title><a id="a_edge3_Node000003_Node000004">
<path fill="none" stroke="#63b8ff" d="M241.5-291.89v25.45"/>
<path fill="#63b8ff" stroke="#63b8ff" d="m245-266.28-3.5 10-3.5-10z"/>
</a></g><g id="Node000015" class="node"><title>Node15</title><a xlink:href="../../d4/da0/_resource_holder_8h.html" id="a_Node000015" target="_top">
<path fill="#fff" stroke="#666" d="M179-188H0v20h179z"/>
<text x="89.5" y="-175.2" font-family="Consolas" font-size="11" text-anchor="middle">Toolbox/ResourceHolder.h</text>
</a></g><g id="edge14_Node000003_Node000015" class="edge"><title>Node3-&gt;Node15</title><a id="a_edge14_Node000003_Node000015">
<path fill="none" stroke="#63b8ff" d="M220.81-292c-17.31 8.06-42.18 20.92-61.31 36-22.27 17.55-43.54 42.52-56.67 59.22"/>
<path fill="#63b8ff" stroke="#63b8ff" d="m105.29-194.25-8.87 5.79 3.33-10.06z"/>
</a></g><g id="Node000005" class="node"><title>Node5</title><a xlink:href="../../d3/d09/_material_8h.html" id="a_Node000005" target="_top">
<path fill="#fff" stroke="#666" d="M342-188H197v20h145z"/>
<text x="269.5" y="-175.2" font-family="Consolas" font-size="11" text-anchor="middle">Material/Material.h</text>
</a></g><g id="edge4_Node000004_Node000005" class="edge"><title>Node4-&gt;Node5</title><a id="a_edge4_Node000004_Node000005">
<path fill="none" stroke="#63b8ff" d="M248.57-223.86c3.77 8.08 8.44 18.1 12.41 26.61"/>
<path fill="#63b8ff" stroke="#63b8ff" d="m264.17-198.7 1.06 10.55-7.4-7.59z"/>
</a></g><g id="Node000006" class="node"><title>Node6</title><a xlink:href="../../d2/d4a/_tag_8h.html" id="a_Node000006" target="_top">
<path fill="#fff" stroke="#666" d="M301.5-132h-98v20h98z"/>
<text x="252.5" y="-119.2" font-family="Consolas" font-size="11" text-anchor="middle">Domain/Tag.h</text>
</a></g><g id="edge5_Node000005_Node000006" class="edge"><title>Node5-&gt;Node6</title><a id="a_edge5_Node000005_Node000006">
<path fill="none" stroke="#63b8ff" d="M266.54-167.59c-2.22 7.04-5.33 16.92-8.06 25.59"/>
<path fill="#63b8ff" stroke="#63b8ff" d="m261.77-140.79-6.34 8.49-.34-10.59z"/>
</a></g><g id="Node000014" class="node"><title>Node14</title><a id="a_Node000014">
<path fill="#e0e0e0" stroke="#999" d="M369.5-132h-50v20h50z"/>
<text x="344.5" y="-119.2" font-family="Consolas" font-size="11" text-anchor="middle">array</text>
</a></g><g id="edge13_Node000005_Node000014" class="edge"><title>Node5-&gt;Node14</title><a id="a_edge13_Node000005_Node000014">
<path fill="none" stroke="#63b8ff" d="M282.22-167.84c11.38 8.2 28.28 20.36 41.6 29.95"/>
<path fill="#63b8ff" stroke="#63b8ff" d="m325.89-140.71 6.08 8.68-10.17-3z"/>
</a></g><g id="Node000007" class="node"><title>Node7</title><a xlink:href="../../d8/d8f/suan_pan_8h.html" id="a_Node000007" target="_top">
<path fill="#fff" stroke="#666" d="M391-76h-77v20h77z"/>
<text x="352.5" y="-63.2" font-family="Consolas" font-size="11" text-anchor="middle">suanPan.h</text>
</a></g><g id="edge6_Node000006_Node000007" class="edge"><title>Node6-&gt;Node7</title><a id="a_edge6_Node000006_Node000007">
<path fill="none" stroke="#63b8ff" d="M269.46-111.84c15.76 8.51 39.43 21.29 57.48 31.04"/>
<path fill="#63b8ff" stroke="#63b8ff" d="m328.65-83.86 7.14 7.83-10.47-1.67z"/>
</a></g><g id="Node000008" class="node"><title>Node8</title><a id="a_Node000008">
<path fill="#e0e0e0" stroke="#999" d="M617-20h-71V0h71z"/>
<text x="581.5" y="-7.2" font-family="Consolas" font-size="11" text-anchor="middle">iostream</text>
</a></g><g id="edge7_Node000007_Node000008" class="edge"><title>Node7-&gt;Node8</title><a id="a_edge7_Node000007_Node000008">
<path fill="none" stroke="#63b8ff" d="M390.83-55.96c39.96 9.42 102.57 24.19 145.05 34.2"/>
<path fill="#63b8ff" stroke="#63b8ff" d="m536.76-25.15 8.93 5.71-10.54 1.11z"/>
</a></g><g id="Node000009" class="node"><title>Node9</title><a id="a_Node000009">
<path fill="#e0e0e0" stroke="#999" d="M247-20H136V0h111z"/>
<text x="191.5" y="-7.2" font-family="Consolas" font-size="11" text-anchor="middle">armadillo/arma</text>
</a></g><g id="edge8_Node000007_Node000009" class="edge"><title>Node7-&gt;Node9</title><a id="a_edge8_Node000007_Node000009">
<path fill="none" stroke="#63b8ff" d="M325.55-55.96c-26.7 8.95-67.79 22.73-97.44 32.68"/>
<path fill="#63b8ff" stroke="#63b8ff" d="m229.13-19.93-10.59-.14 8.36-6.5z"/>
</a></g><g id="Node000010" class="node"><title>Node10</title><a id="a_Node000010">
<path fill="#e0e0e0" stroke="#999" d="M349.5-20h-84V0h84z"/>
<text x="307.5" y="-7.2" font-family="Consolas" font-size="11" text-anchor="middle">filesystem</text>
</a></g><g id="edge9_Node000007_Node000010" class="edge"><title>Node7-&gt;Node10</title><a id="a_edge9_Node000007_Node000010">
<path fill="none" stroke="#63b8ff" d="M344.66-55.59c-6.32 7.58-15.38 18.46-22.97 27.57"/>
<path fill="#63b8ff" stroke="#63b8ff" d="m324.34-25.74-9.09 5.44 3.71-9.92z"/>
</a></g><g id="Node000011" class="node"><title>Node11</title><a id="a_Node000011">
<path fill="#e0e0e0" stroke="#999" d="M459-20h-91V0h91z"/>
<text x="413.5" y="-7.2" font-family="Consolas" font-size="11" text-anchor="middle">fmt/color.h</text>
</a></g><g id="edge10_Node000007_Node000011" class="edge"><title>Node7-&gt;Node11</title><a id="a_edge10_Node000007_Node000011">
<path fill="none" stroke="#63b8ff" d="M362.85-55.84c8.99 7.96 22.21 19.67 32.9 29.12"/>
<path fill="#63b8ff" stroke="#63b8ff" d="m398.14-29.27 5.17 9.24-9.81-4z"/>
</a></g><g id="Node000012" class="node"><title>Node12</title><a id="a_Node000012">
<path fill="#e0e0e0" stroke="#999" d="M527.5-20h-50V0h50z"/>
<text x="502.5" y="-7.2" font-family="Consolas" font-size="11" text-anchor="middle">mutex</text>
</a></g><g id="edge11_Node000007_Node000012" class="edge"><title>Node7-&gt;Node12</title><a id="a_edge11_Node000007_Node000012">
<path fill="none" stroke="#63b8ff" d="M377.61-55.96c24.66 8.88 62.49 22.5 90.05 32.42"/>
<path fill="#63b8ff" stroke="#63b8ff" d="m469.09-26.75 8.22 6.68-10.59-.09z"/>
</a></g><g id="Node000013" class="node"><title>Node13</title><a id="a_Node000013">
<path fill="#e0e0e0" stroke="#999" d="M118-20H61V0h57z"/>
<text x="89.5" y="-7.2" font-family="Consolas" font-size="11" text-anchor="middle">memory</text>
</a></g><g id="edge12_Node000007_Node000013" class="edge"><title>Node7-&gt;Node13</title><a id="a_edge12_Node000007_Node000013">
<path fill="none" stroke="#63b8ff" d="M313.61-57.77c-43.09 8.12-114.86 21.99-185.5 37.48"/>
<path fill="#63b8ff" stroke="#63b8ff" d="m128.67-16.83-10.51-1.27 9.01-5.57z"/>
</a></g><g id="edge15_Node000015_Node000013" class="edge"><title>Node15-&gt;Node13</title><a id="a_edge15_Node000015_Node000013">
<path fill="none" stroke="#63b8ff" d="M89.5-167.6v137.18"/>
<path fill="#63b8ff" stroke="#63b8ff" d="m93-30.3-3.5 10-3.5-10z"/>
</a></g><g id="Node000017" class="node"><title>Node17</title><a xlink:href="../../d5/d47/utility_8h.html" id="a_Node000017" target="_top">
<path fill="#fff" stroke="#666" d="M459-312H328v20h131z"/>
<text x="393.5" y="-299.2" font-family="Consolas" font-size="11" text-anchor="middle">Toolbox/utility.h</text>
</a></g><g id="edge17_Node000016_Node000017" class="edge"><title>Node16-&gt;Node17</title><a id="a_edge17_Node000016_Node000017">
<path fill="none" stroke="#63b8ff" d="M387.72-347.59c.9 6.96 2.17 16.7 3.28 25.3"/>
<path fill="#63b8ff" stroke="#63b8ff" d="m394.48-322.67-2.19 10.37-4.75-9.47z"/>
</a></g><g id="edge20_Node000017_Node000007" class="edge"><title>Node17-&gt;Node7</title><a id="a_edge20_Node000017_Node000007">
<path fill="none" stroke="#63b8ff" d="M394.18-291.68c1.76 27.97 4.95 113.36-15.68 179.68-3 9.66-8.37 19.49-13.44 27.49"/>
<path fill="#63b8ff" stroke="#63b8ff" d="m367.87-82.43-8.48 6.35 2.68-10.25z"/>
</a></g><g id="Node000018" class="node"><title>Node18</title><a id="a_Node000018">
<path fill="#e0e0e0" stroke="#999" d="M497-250h-71v20h71z"/>
<text x="461.5" y="-237.2" font-family="Consolas" font-size="11" text-anchor="middle">concepts</text>
</a></g><g id="edge18_Node000017_Node000018" class="edge"><title>Node17-&gt;Node18</title><a id="a_edge18_Node000017_Node000018">
<path fill="none" stroke="#63b8ff" d="M403.83-291.89c10.48 9.25 26.93 23.76 39.58 34.93"/>
<path fill="#63b8ff" stroke="#63b8ff" d="m445.89-259.44 5.19 9.24-9.82-3.99z"/>
</a></g><g id="Node000019" class="node"><title>Node19</title><a id="a_Node000019">
<path fill="#e0e0e0" stroke="#999" d="M369-250h-37v20h37z"/>
<text x="350.5" y="-237.2" font-family="Consolas" font-size="11" text-anchor="middle">set</text>
</a></g><g id="edge19_Node000017_Node000019" class="edge"><title>Node17-&gt;Node19</title><a id="a_edge19_Node000017_Node000019">
<path fill="none" stroke="#63b8ff" d="M386.97-291.89c-6.31 8.81-16.05 22.39-23.87 33.31"/>
<path fill="#63b8ff" stroke="#63b8ff" d="m365.76-256.29-8.67 6.09 2.98-10.17z"/>
</a></g></g></svg><g id="navigator" fill="#404254"><path fill="#f2f5e9" fill-opacity=".5" stroke="#606060" stroke-width=".5" d="M0 0h60v60H0z"/><use xlink:href="#zoomPlus" id="zoomplus" x="17" y="9" onmousedown="handleZoom(evt,'in')"/><use xlink:href="#zoomMin" id="zoomminus" x="42" y="9" onmousedown="handleZoom(evt,'out')"/><use xlink:href="#resetDef" id="reset" x="30" y="36" onmousedown="handleReset()"/><use xlink:href="#arrowUp" id="arrowup" x="0" y="0" onmousedown="handlePan(0,-1)"/><use xlink:href="#arrowRight" id="arrowright" x="0" y="0" onmousedown="handlePan(1,0)"/><use xlink:href="#arrowDown" id="arrowdown" x="0" y="0" onmousedown="handlePan(0,1)"/><use xlink:href="#arrowLeft" id="arrowleft" x="0" y="0" onmousedown="handlePan(-1,0)"/></g><svg height="30" preserveAspectRatio="xMaxYMin meet" viewBox="0 0 15 15"><a xlink:href="_linear_damage_8cpp__incl_org.svg" id="arrow_out" target="_base" transform="scale(.3)">
   <rect id="button" width="38" height="38" x="6" y="6" fill="#f2f5e9" fill-opacity=".5" stroke="#606060" stroke-width="1" rx="5" ry="5"/>
   <path id="arrow" d="M11.5 31.437c.44-11.34 10.543-20.114 20.659-9.458l4.91-4.733.02 14.754-14.929-.022 4.838-4.838c-8.47-8.876-13.706-1.91-15.498 4.297" style="fill:#404040"/>
  </a></svg><script type="application/ecmascript"><![CDATA[
document.addEventListener('DOMContentLoaded', (event) => {
  highlightEdges();
  highlightAdjacentNodes();
});
]]></script></svg>