<svg xmlns="http://www.w3.org/2000/svg" xmlns:xlink="http://www.w3.org/1999/xlink" width="868pt" height="757pt" viewBox="0 0 868 757"><g class="graph" transform="translate(4 753)"><title>Recorder</title><g class="node"><title>Node1</title><a xlink:title="A Recorder class.">
<path fill="#999" stroke="transparent" d="M465.5-212h-128V0h128z"/>
<text x="374" y="-199.2" font-family="Consolas" font-size="11">Recorder</text>
<text x="398" y="-183.2" font-family="Consolas" font-size="11"> </text>
<text x="341.5" y="-167.2" font-family="Consolas" font-size="11">+</text>
<text x="352.5" y="-167.2" font-family="Consolas" font-size="11">Recorder()</text>
<text x="341.5" y="-151.2" font-family="Consolas" font-size="11">+</text>
<text x="352.5" y="-151.2" font-family="Consolas" font-size="11">initialize()</text>
<text x="341.5" y="-135.2" font-family="Consolas" font-size="11">+</text>
<text x="352.5" y="-135.2" font-family="Consolas" font-size="11">insert()</text>
<text x="341.5" y="-119.2" font-family="Consolas" font-size="11">+</text>
<text x="352.5" y="-119.2" font-family="Consolas" font-size="11">insert()</text>
<text x="341.5" y="-103.2" font-family="Consolas" font-size="11">+</text>
<text x="352.5" y="-103.2" font-family="Consolas" font-size="11">record()</text>
<text x="341.5" y="-87.2" font-family="Consolas" font-size="11">+</text>
<text x="352.5" y="-87.2" font-family="Consolas" font-size="11">clear_status()</text>
<text x="341.5" y="-71.2" font-family="Consolas" font-size="11">+</text>
<text x="352.5" y="-71.2" font-family="Consolas" font-size="11">save()</text>
<text x="341.5" y="-55.2" font-family="Consolas" font-size="11">+</text>
<text x="352.5" y="-55.2" font-family="Consolas" font-size="11">print()</text>
<text x="341.5" y="-39.2" font-family="Consolas" font-size="11">#</text>
<text x="352.5" y="-39.2" font-family="Consolas" font-size="11">update_tag()</text>
<text x="341.5" y="-23.2" font-family="Consolas" font-size="11">#</text>
<text x="352.5" y="-23.2" font-family="Consolas" font-size="11">record_impl()</text>
<text x="341.5" y="-7.2" font-family="Consolas" font-size="11">#</text>
<text x="352.5" y="-7.2" font-family="Consolas" font-size="11">normalise_size()</text>
<path fill="#666" stroke="#666" d="M337.5-194h128z"/>
<path fill="#666" stroke="#666" d="M337.5-178h128z"/>
<path fill="none" stroke="#666" d="M337.5 0v-212h128V0z"/>
</a></g><g class="node"><title>Node2</title><a xlink:href="../../db/db8/class_unique_tag.html" xlink:title="Label objects that cannot be copied." target="_top">
<path fill="#fff" stroke="transparent" d="M101-436H0v164h101z"/>
<text x="20.5" y="-423.2" font-family="Consolas" font-size="11">UniqueTag</text>
<text x="47.5" y="-407.2" font-family="Consolas" font-size="11"> </text>
<text x="4.5" y="-391.2" font-family="Consolas" font-size="11">+</text>
<text x="15.5" y="-391.2" font-family="Consolas" font-size="11">UniqueTag()</text>
<text x="4.5" y="-375.2" font-family="Consolas" font-size="11">+</text>
<text x="15.5" y="-375.2" font-family="Consolas" font-size="11">UniqueTag()</text>
<text x="4.5" y="-359.2" font-family="Consolas" font-size="11">+</text>
<text x="15.5" y="-359.2" font-family="Consolas" font-size="11">operator=()</text>
<text x="4.5" y="-343.2" font-family="Consolas" font-size="11">+</text>
<text x="15.5" y="-343.2" font-family="Consolas" font-size="11">operator=()</text>
<text x="4.5" y="-327.2" font-family="Consolas" font-size="11">+</text>
<text x="15.5" y="-327.2" font-family="Consolas" font-size="11">~UniqueTag()</text>
<text x="4.5" y="-311.2" font-family="Consolas" font-size="11">+</text>
<text x="15.5" y="-311.2" font-family="Consolas" font-size="11">Tag()</text>
<text x="4.5" y="-295.2" font-family="Consolas" font-size="11">+</text>
<text x="15.5" y="-295.2" font-family="Consolas" font-size="11">Tag()</text>
<text x="4.5" y="-279.2" font-family="Consolas" font-size="11">+</text>
<text x="15.5" y="-279.2" font-family="Consolas" font-size="11">Tag()</text>
<path fill="#666" stroke="#666" d="M.5-418h101z"/>
<path fill="#666" stroke="#666" d="M.5-402h101z"/>
<path fill="none" stroke="#666" d="M0-272v-164h101v164z"/>
</a></g><g class="edge"><title>Node2-&gt;Node1</title><a>
<path fill="none" stroke="#63b8ff" d="M108.43-272.96c.36.32.71.64 1.07.96 69.13 61.59 165.03 110.32 227.78 138.41"/>
<path fill="none" stroke="#63b8ff" d="m105.84-270.6-4.74-9.47 9.62 4.45z"/>
</a></g><g class="node"><title>Node3</title><a xlink:href="../../d0/d57/class_tag.html" xlink:title="A base Tag class." target="_top">
<path fill="#fff" stroke="transparent" d="M101-749H0v276h101z"/>
<text x="40.5" y="-736.2" font-family="Consolas" font-size="11">Tag</text>
<text x="47.5" y="-720.2" font-family="Consolas" font-size="11"> </text>
<text x="4.5" y="-704.2" font-family="Consolas" font-size="11">+</text>
<text x="15.5" y="-704.2" font-family="Consolas" font-size="11">Tag()</text>
<text x="4.5" y="-688.2" font-family="Consolas" font-size="11">+</text>
<text x="15.5" y="-688.2" font-family="Consolas" font-size="11">Tag()</text>
<text x="4.5" y="-672.2" font-family="Consolas" font-size="11">+</text>
<text x="15.5" y="-672.2" font-family="Consolas" font-size="11">Tag()</text>
<text x="4.5" y="-656.2" font-family="Consolas" font-size="11">+</text>
<text x="15.5" y="-656.2" font-family="Consolas" font-size="11">operator=()</text>
<text x="4.5" y="-640.2" font-family="Consolas" font-size="11">+</text>
<text x="15.5" y="-640.2" font-family="Consolas" font-size="11">operator=()</text>
<text x="4.5" y="-624.2" font-family="Consolas" font-size="11">+</text>
<text x="15.5" y="-624.2" font-family="Consolas" font-size="11">~Tag()</text>
<text x="4.5" y="-608.2" font-family="Consolas" font-size="11">+</text>
<text x="15.5" y="-608.2" font-family="Consolas" font-size="11">set_tag()</text>
<text x="4.5" y="-592.2" font-family="Consolas" font-size="11">+</text>
<text x="15.5" y="-592.2" font-family="Consolas" font-size="11">get_tag()</text>
<text x="4.5" y="-576.2" font-family="Consolas" font-size="11">+</text>
<text x="15.5" y="-576.2" font-family="Consolas" font-size="11">enable()</text>
<text x="4.5" y="-560.2" font-family="Consolas" font-size="11">+</text>
<text x="15.5" y="-560.2" font-family="Consolas" font-size="11">disable()</text>
<text x="4.5" y="-544.2" font-family="Consolas" font-size="11">+</text>
<text x="15.5" y="-544.2" font-family="Consolas" font-size="11">guard()</text>
<text x="4.5" y="-528.2" font-family="Consolas" font-size="11">+</text>
<text x="15.5" y="-528.2" font-family="Consolas" font-size="11">unguard()</text>
<text x="4.5" y="-512.2" font-family="Consolas" font-size="11">+</text>
<text x="15.5" y="-512.2" font-family="Consolas" font-size="11">is_active()</text>
<text x="4.5" y="-496.2" font-family="Consolas" font-size="11">+</text>
<text x="15.5" y="-496.2" font-family="Consolas" font-size="11">is_guarded()</text>
<text x="4.5" y="-480.2" font-family="Consolas" font-size="11">+</text>
<text x="15.5" y="-480.2" font-family="Consolas" font-size="11">print()</text>
<path fill="#666" stroke="#666" d="M.5-731h101z"/>
<path fill="#666" stroke="#666" d="M.5-715h101z"/>
<path fill="none" stroke="#666" d="M0-473v-276h101v276z"/>
</a></g><g class="edge"><title>Node3-&gt;Node2</title><a>
<path fill="none" stroke="#63b8ff" d="M50.5-462.58v26.41"/>
<path fill="none" stroke="#63b8ff" d="m47-462.8 3.5-10 3.5 10z"/>
</a></g><g class="node"><title>Node4</title><a>
<path fill="#fff" stroke="transparent" d="M238-380H119v52h119z"/>
<text x="124.5" y="-367.2" font-family="Consolas" font-size="11">const OutputType</text>
<text x="175.5" y="-351.2" font-family="Consolas" font-size="11"> </text>
<text x="175.5" y="-335.2" font-family="Consolas" font-size="11"> </text>
<path fill="#666" stroke="#666" d="M119.5-362h119z"/>
<path fill="#666" stroke="#666" d="M119.5-346h119z"/>
<path fill="none" stroke="#666" d="M119-328v-52h119v52z"/>
</a></g><g class="edge"><title>Node4-&gt;Node1</title><a>
<path fill="none" stroke="#63b8ff" d="M179.24-327.63c1.94 26.6 8.4 68.5 29.26 97.63 29.34 40.99 77 71.56 117.62 91.97"/>
<path fill="none" stroke="#63b8ff" d="m326.31-137.94 3.64 6.23 7.14-.96-3.63-6.23z"/>
</a><text x="259.5" y="-245.2" fill="gray" font-family="Consolas" font-size="11" text-anchor="middle"> #original_type</text><text x="259.5" y="-233.2" fill="gray" font-family="Consolas" font-size="11" text-anchor="middle">#variable_type</text></g><g class="node"><title>Node5</title><a>
<path fill="#fff" stroke="transparent" d="M319-380h-31v52h31z"/>
<text x="293.5" y="-367.2" font-family="Consolas" font-size="11">int</text>
<text x="300.5" y="-351.2" font-family="Consolas" font-size="11"> </text>
<text x="300.5" y="-335.2" font-family="Consolas" font-size="11"> </text>
<path fill="#666" stroke="#666" d="M288.5-362h31z"/>
<path fill="#666" stroke="#666" d="M288.5-346h31z"/>
<path fill="none" stroke="#666" d="M288-328v-52h31v52z"/>
</a></g><g class="edge"><title>Node5-&gt;Node1</title><a>
<path fill="none" stroke="#63b8ff" d="M304.35-327.72c1.54 25.43 5.9 65.39 18.15 97.72 2.72 7.17 5.89 14.36 9.38 21.47"/>
<path fill="none" stroke="#63b8ff" d="m331.9-208.49-.81 7.17 6.31 3.5.81-7.17z"/>
</a><text x="360" y="-239.2" fill="gray" font-family="Consolas" font-size="11" text-anchor="middle"> #component</text></g><g class="node"><title>Node6</title><a>
<path fill="#fff" stroke="transparent" d="M434-380h-65v52h65z"/>
<text x="374.5" y="-367.2" font-family="Consolas" font-size="11">unsigned</text>
<text x="398.5" y="-351.2" font-family="Consolas" font-size="11"> </text>
<text x="398.5" y="-335.2" font-family="Consolas" font-size="11"> </text>
<path fill="#666" stroke="#666" d="M369.5-362h65z"/>
<path fill="#666" stroke="#666" d="M369.5-346h65z"/>
<path fill="none" stroke="#666" d="M369-328v-52h65v52z"/>
</a></g><g class="edge"><title>Node6-&gt;Node1</title><a>
<path fill="none" stroke="#63b8ff" d="M401.5-327.6v103.5"/>
<path fill="none" stroke="#63b8ff" d="m401.5-224.06-4 6 4 6 4-6z"/>
</a><text x="432" y="-245.2" fill="gray" font-family="Consolas" font-size="11" text-anchor="middle"> #counter</text><text x="432" y="-233.2" fill="gray" font-family="Consolas" font-size="11" text-anchor="middle">#interval</text></g><g class="node"><title>Node7</title><a xlink:href="../../dd/d59/classuvec.html" target="_top">
<path fill="#fff" stroke="transparent" d="M504.5-380h-38v52h38z"/>
<text x="471.5" y="-367.2" font-family="Consolas" font-size="11">uvec</text>
<text x="482" y="-351.2" font-family="Consolas" font-size="11"> </text>
<text x="482" y="-335.2" font-family="Consolas" font-size="11"> </text>
<path fill="#666" stroke="#666" d="M466.5-362h38z"/>
<path fill="#666" stroke="#666" d="M466.5-346h38z"/>
<path fill="none" stroke="#666" d="M466.5-328v-52h38v52z"/>
</a></g><g class="edge"><title>Node7-&gt;Node1</title><a>
<path fill="none" stroke="#63b8ff" d="M483.17-327.97c-2.84 25.23-8.69 65.04-19.67 97.97-.71 2.12-1.44 4.25-2.21 6.38"/>
<path fill="none" stroke="#63b8ff" d="m461.2-223.39-5.86 4.19 1.61 7.03 5.87-4.19z"/>
</a><text x="517" y="-245.2" fill="gray" font-family="Consolas" font-size="11" text-anchor="middle"> #object_tag</text><text x="517" y="-233.2" fill="gray" font-family="Consolas" font-size="11" text-anchor="middle">#reference_tag</text></g><g class="node"><title>Node8</title><a>
<path fill="#fff" stroke="transparent" d="M663-380H544v52h119z"/>
<text x="549.5" y="-367.2" font-family="Consolas" font-size="11">vector&lt; double &gt;</text>
<text x="600.5" y="-351.2" font-family="Consolas" font-size="11"> </text>
<text x="600.5" y="-335.2" font-family="Consolas" font-size="11"> </text>
<path fill="#666" stroke="#666" d="M544.5-362h119z"/>
<path fill="#666" stroke="#666" d="M544.5-346h119z"/>
<path fill="none" stroke="#666" d="M544-328v-52h119v52z"/>
</a></g><g class="edge"><title>Node8-&gt;Node1</title><a>
<path fill="none" stroke="#63b8ff" d="M601.17-327.87c-3.49 26.4-12.04 68.14-32.67 97.87-23.62 34.04-59.74 62.32-92.35 83.15"/>
<path fill="none" stroke="#63b8ff" d="m475.9-146.69-7.21-.23-2.98 6.57 7.2.23z"/>
</a><text x="617" y="-239.2" fill="gray" font-family="Consolas" font-size="11" text-anchor="middle"> #time_pool</text></g><g class="node"><title>Node9</title><a>
<path fill="#fff" stroke="transparent" d="M860-392H681v76h179z"/>
<text x="686.5" y="-379.2" font-family="Consolas" font-size="11">unordered_map&lt; uword,</text>
<text x="686.5" y="-367.2" font-family="Consolas" font-size="11"> std::vector&lt; std::vector</text>
<text x="733.5" y="-355.2" font-family="Consolas" font-size="11">&lt; vec &gt; &gt; &gt;</text>
<text x="767.5" y="-339.2" font-family="Consolas" font-size="11"> </text>
<text x="767.5" y="-323.2" font-family="Consolas" font-size="11"> </text>
<path fill="#666" stroke="#666" d="M681.5-350h179z"/>
<path fill="#666" stroke="#666" d="M681.5-334h179z"/>
<path fill="none" stroke="#666" d="M681-316v-76h179v76z"/>
</a></g><g class="edge"><title>Node9-&gt;Node1</title><a>
<path fill="none" stroke="#63b8ff" d="M743.01-315.83c-20.96 26.44-51.71 61.45-84.51 85.83-55.75 41.45-127.68 74.44-181.26 95.78"/>
<path fill="none" stroke="#63b8ff" d="m476.93-134.1-7.05-1.53-4.12 5.91 7.04 1.53z"/>
</a><text x="723" y="-239.2" fill="gray" font-family="Consolas" font-size="11" text-anchor="middle"> #data_pool</text></g></g></svg>