<?xml version="1.0" encoding="UTF-8" standalone="no"?>
<!DOCTYPE svg PUBLIC "-//W3C//DTD SVG 1.1//EN"
 "http://www.w3.org/Graphics/SVG/1.1/DTD/svg11.dtd">
<!-- Generated by graphviz version 2.43.0 (0)
 -->
<!-- Title: Particle Pages: 1 -->
<!--zoomable 1608 -->

<svg id="main" version="1.1" xmlns="http://www.w3.org/2000/svg" xmlns:xlink="http://www.w3.org/1999/xlink" xml:space="preserve" onload="init(evt)">
<style type="text/css"><![CDATA[
.node, .edge {opacity: 0.7;}
.node.selected, .edge.selected {opacity: 1;}
.edge:hover path { stroke: red; }
.edge:hover polygon { stroke: red; fill: red; }
]]></style>

<defs>
  <circle id="rim" cx="0" cy="0" r="7"/>
  <circle id="rim2" cx="0" cy="0" r="3.5"/>
  <g id="zoomPlus">
    <use xlink:href="#rim" fill="#404040"><set attributeName="fill" to="#808080" begin="zoomplus.mouseover" end="zoomplus.mouseout"/></use>
    <path d="M-4,0h8M0,-4v8" fill="none" stroke="white" stroke-width="1.5" pointer-events="none"/>
  </g>
  <g id="zoomMin">
    <use xlink:href="#rim" fill="#404040"><set attributeName="fill" to="#808080" begin="zoomminus.mouseover" end="zoomminus.mouseout"/></use>
    <path d="M-4,0h8" fill="none" stroke="white" stroke-width="1.5" pointer-events="none"/>
  </g>
  <g id="arrowUp" transform="translate(30 24)">
    <use xlink:href="#rim"/>
    <path pointer-events="none" fill="none" stroke="white" stroke-width="1.5" d="M0,-3.0v7 M-2.5,-0.5L0,-3.0L2.5,-0.5"/>
  </g>
  <g id="arrowRight" transform="rotate(90) translate(36 -43)">
    <use xlink:href="#rim"/>
    <path pointer-events="none" fill="none" stroke="white" stroke-width="1.5" d="M0,-3.0v7 M-2.5,-0.5L0,-3.0L2.5,-0.5"/>
  </g>
  <g id="arrowDown" transform="rotate(180) translate(-30 -48)">
    <use xlink:href="#rim"/>
    <path pointer-events="none" fill="none" stroke="white" stroke-width="1.5" d="M0,-3.0v7 M-2.5,-0.5L0,-3.0L2.5,-0.5"/>
  </g>
  <g id="arrowLeft" transform="rotate(270) translate(-36 17)">
    <use xlink:href="#rim"/>
    <path pointer-events="none" fill="none" stroke="white" stroke-width="1.5" d="M0,-3.0v7 M-2.5,-0.5L0,-3.0L2.5,-0.5"/>
  </g>
  <g id="resetDef">
    <use xlink:href="#rim2" fill="#404040"><set attributeName="fill" to="#808080" begin="reset.mouseover" end="reset.mouseout"/></use>
  </g>
</defs>
<script type="application/ecmascript">
var viewWidth = 814;
var viewHeight = 1608;
var sectionId = 'dynsection-0';
</script>
<script type="application/ecmascript" xlink:href="../../svg.min.js"/>
<svg id="graph" class="graph">
<g id="viewport">
<title>Particle</title>
<!-- Node1 -->
<g id="Node000001" class="node">
<title>Node1</title>
<g id="a_Node000001"><a xlink:title="The Particle class represents the abstract particle used in DEM.">
<polygon fill="#999999" stroke="transparent" points="580,-432 459,-432 459,-300 580,-300 580,-432"/>
<text text-anchor="start" x="492.5" y="-419.2" font-family="Consolas" font-size="11.00">Particle</text>
<text text-anchor="start" x="516.5" y="-403.2" font-family="Consolas" font-size="11.00"> </text>
<text text-anchor="start" x="463.5" y="-387.2" font-family="Consolas" font-size="11.00">+</text>
<text text-anchor="start" x="474.5" y="-387.2" font-family="Consolas" font-size="11.00">Particle()</text>
<text text-anchor="start" x="463.5" y="-371.2" font-family="Consolas" font-size="11.00">+</text>
<text text-anchor="start" x="474.5" y="-371.2" font-family="Consolas" font-size="11.00">type()</text>
<text text-anchor="start" x="463.5" y="-355.2" font-family="Consolas" font-size="11.00">+</text>
<text text-anchor="start" x="474.5" y="-355.2" font-family="Consolas" font-size="11.00">update_status()</text>
<text text-anchor="start" x="463.5" y="-339.2" font-family="Consolas" font-size="11.00">+</text>
<text text-anchor="start" x="474.5" y="-339.2" font-family="Consolas" font-size="11.00">commit_status()</text>
<text text-anchor="start" x="463.5" y="-323.2" font-family="Consolas" font-size="11.00">+</text>
<text text-anchor="start" x="474.5" y="-323.2" font-family="Consolas" font-size="11.00">clear_status()</text>
<text text-anchor="start" x="463.5" y="-307.2" font-family="Consolas" font-size="11.00">+</text>
<text text-anchor="start" x="474.5" y="-307.2" font-family="Consolas" font-size="11.00">reset_status()</text>
<polygon fill="#666666" stroke="#666666" points="459.5,-414 459.5,-414 580.5,-414 580.5,-414 459.5,-414"/>
<polygon fill="#666666" stroke="#666666" points="459.5,-398 459.5,-398 580.5,-398 580.5,-398 459.5,-398"/>
<polygon fill="none" stroke="#666666" points="459,-300 459,-432 580,-432 580,-300 459,-300"/>
</a>
</g>
</g>
<!-- Node9 -->
<g id="Node000009" class="node">
<title>Node9</title>
<g id="a_Node000009"><a xlink:href="../../d2/dea/class_spherical_particle.html" target="_top" xlink:title=" ">
<polygon fill="white" stroke="transparent" points="396.5,-258 230.5,-258 230.5,-110 396.5,-110 396.5,-258"/>
<text text-anchor="start" x="235.5" y="-245.2" font-family="Consolas" font-size="11.00">SphericalParticle&lt; 2u &gt;</text>
<text text-anchor="start" x="239" y="-229.2" font-family="Consolas" font-size="11.00">#</text>
<text text-anchor="start" x="254.5" y="-229.2" font-family="Consolas" font-size="11.00">radius</text>
<text text-anchor="start" x="239" y="-213.2" font-family="Consolas" font-size="11.00">#</text>
<text text-anchor="start" x="254.5" y="-213.2" font-family="Consolas" font-size="11.00">elastic_modulus</text>
<text text-anchor="start" x="239" y="-197.2" font-family="Consolas" font-size="11.00">#</text>
<text text-anchor="start" x="254.5" y="-197.2" font-family="Consolas" font-size="11.00">poisson_ratio</text>
<text text-anchor="start" x="239" y="-181.2" font-family="Consolas" font-size="11.00">#</text>
<text text-anchor="start" x="254.5" y="-181.2" font-family="Consolas" font-size="11.00">damping</text>
<text text-anchor="start" x="239" y="-165.2" font-family="Consolas" font-size="11.00">#</text>
<text text-anchor="start" x="254.5" y="-165.2" font-family="Consolas" font-size="11.00">mass</text>
<text text-anchor="start" x="239" y="-149.2" font-family="Consolas" font-size="11.00">#</text>
<text text-anchor="start" x="254.5" y="-149.2" font-family="Consolas" font-size="11.00">inertia</text>
<text text-anchor="start" x="239" y="-133.2" font-family="Consolas" font-size="11.00">+</text>
<text text-anchor="start" x="254.5" y="-133.2" font-family="Consolas" font-size="11.00">SphericalParticle()</text>
<text text-anchor="start" x="239" y="-117.2" font-family="Consolas" font-size="11.00">+</text>
<text text-anchor="start" x="254.5" y="-117.2" font-family="Consolas" font-size="11.00">get()</text>
<polygon fill="#666666" stroke="#666666" points="230.5,-240 230.5,-240 396.5,-240 396.5,-240 230.5,-240"/>
<polygon fill="#666666" stroke="#666666" points="230.5,-144 230.5,-144 252.5,-144 252.5,-144 230.5,-144"/>
<polygon fill="#666666" stroke="#666666" points="252.5,-144 252.5,-144 396.5,-144 396.5,-144 252.5,-144"/>
<polygon fill="none" stroke="#666666" points="230.5,-110 230.5,-258 396.5,-258 396.5,-110 230.5,-110"/>
</a>
</g>
</g>
<!-- Node1&#45;&gt;Node9 -->
<g id="edge8_Node000001_Node000009" class="edge">
<title>Node1&#45;&gt;Node9</title>
<g id="a_edge8_Node000001_Node000009"><a xlink:title=" ">
<path fill="none" stroke="#63b8ff" d="M450.93,-305.09C433.55,-289.89 414.68,-273.41 396.66,-257.66"/>
<polygon fill="none" stroke="#63b8ff" points="448.97,-308.02 458.81,-311.97 453.58,-302.75 448.97,-308.02"/>
</a>
</g>
</g>
<!-- Node12 -->
<g id="Node000012" class="node">
<title>Node12</title>
<g id="a_Node000012"><a xlink:href="../../d2/dea/class_spherical_particle.html" target="_top" xlink:title=" ">
<polygon fill="white" stroke="transparent" points="602.5,-258 436.5,-258 436.5,-110 602.5,-110 602.5,-258"/>
<text text-anchor="start" x="441.5" y="-245.2" font-family="Consolas" font-size="11.00">SphericalParticle&lt; 3u &gt;</text>
<text text-anchor="start" x="445" y="-229.2" font-family="Consolas" font-size="11.00">#</text>
<text text-anchor="start" x="460.5" y="-229.2" font-family="Consolas" font-size="11.00">radius</text>
<text text-anchor="start" x="445" y="-213.2" font-family="Consolas" font-size="11.00">#</text>
<text text-anchor="start" x="460.5" y="-213.2" font-family="Consolas" font-size="11.00">elastic_modulus</text>
<text text-anchor="start" x="445" y="-197.2" font-family="Consolas" font-size="11.00">#</text>
<text text-anchor="start" x="460.5" y="-197.2" font-family="Consolas" font-size="11.00">poisson_ratio</text>
<text text-anchor="start" x="445" y="-181.2" font-family="Consolas" font-size="11.00">#</text>
<text text-anchor="start" x="460.5" y="-181.2" font-family="Consolas" font-size="11.00">damping</text>
<text text-anchor="start" x="445" y="-165.2" font-family="Consolas" font-size="11.00">#</text>
<text text-anchor="start" x="460.5" y="-165.2" font-family="Consolas" font-size="11.00">mass</text>
<text text-anchor="start" x="445" y="-149.2" font-family="Consolas" font-size="11.00">#</text>
<text text-anchor="start" x="460.5" y="-149.2" font-family="Consolas" font-size="11.00">inertia</text>
<text text-anchor="start" x="445" y="-133.2" font-family="Consolas" font-size="11.00">+</text>
<text text-anchor="start" x="460.5" y="-133.2" font-family="Consolas" font-size="11.00">SphericalParticle()</text>
<text text-anchor="start" x="445" y="-117.2" font-family="Consolas" font-size="11.00">+</text>
<text text-anchor="start" x="460.5" y="-117.2" font-family="Consolas" font-size="11.00">get()</text>
<polygon fill="#666666" stroke="#666666" points="436.5,-240 436.5,-240 602.5,-240 602.5,-240 436.5,-240"/>
<polygon fill="#666666" stroke="#666666" points="436.5,-144 436.5,-144 458.5,-144 458.5,-144 436.5,-144"/>
<polygon fill="#666666" stroke="#666666" points="458.5,-144 458.5,-144 602.5,-144 602.5,-144 458.5,-144"/>
<polygon fill="none" stroke="#666666" points="436.5,-110 436.5,-258 602.5,-258 602.5,-110 436.5,-110"/>
</a>
</g>
</g>
<!-- Node1&#45;&gt;Node12 -->
<g id="edge11_Node000001_Node000012" class="edge">
<title>Node1&#45;&gt;Node12</title>
<g id="a_edge11_Node000001_Node000012"><a xlink:title=" ">
<path fill="none" stroke="#63b8ff" d="M519.5,-289.52C519.5,-279.17 519.5,-268.56 519.5,-258.25"/>
<polygon fill="none" stroke="#63b8ff" points="516,-289.76 519.5,-299.76 523,-289.76 516,-289.76"/>
</a>
</g>
</g>
<!-- Node15 -->
<g id="Node000015" class="node">
<title>Node15</title>
<g id="a_Node000015"><a xlink:href="../../d2/dea/class_spherical_particle.html" target="_top" xlink:title=" ">
<polygon fill="white" stroke="transparent" points="768.5,-264 620.5,-264 620.5,-104 768.5,-104 768.5,-264"/>
<text text-anchor="start" x="633.5" y="-251.2" font-family="Consolas" font-size="11.00">SphericalParticle&lt;</text>
<text text-anchor="start" x="674" y="-239.2" font-family="Consolas" font-size="11.00"> DIM &gt;</text>
<text text-anchor="start" x="624.5" y="-223.2" font-family="Consolas" font-size="11.00">#</text>
<text text-anchor="start" x="635.5" y="-223.2" font-family="Consolas" font-size="11.00">radius</text>
<text text-anchor="start" x="624.5" y="-207.2" font-family="Consolas" font-size="11.00">#</text>
<text text-anchor="start" x="635.5" y="-207.2" font-family="Consolas" font-size="11.00">elastic_modulus</text>
<text text-anchor="start" x="624.5" y="-191.2" font-family="Consolas" font-size="11.00">#</text>
<text text-anchor="start" x="635.5" y="-191.2" font-family="Consolas" font-size="11.00">poisson_ratio</text>
<text text-anchor="start" x="624.5" y="-175.2" font-family="Consolas" font-size="11.00">#</text>
<text text-anchor="start" x="635.5" y="-175.2" font-family="Consolas" font-size="11.00">damping</text>
<text text-anchor="start" x="624.5" y="-159.2" font-family="Consolas" font-size="11.00">#</text>
<text text-anchor="start" x="635.5" y="-159.2" font-family="Consolas" font-size="11.00">mass</text>
<text text-anchor="start" x="624.5" y="-143.2" font-family="Consolas" font-size="11.00">#</text>
<text text-anchor="start" x="635.5" y="-143.2" font-family="Consolas" font-size="11.00">inertia</text>
<text text-anchor="start" x="624.5" y="-127.2" font-family="Consolas" font-size="11.00">+</text>
<text text-anchor="start" x="635.5" y="-127.2" font-family="Consolas" font-size="11.00">SphericalParticle()</text>
<text text-anchor="start" x="624.5" y="-111.2" font-family="Consolas" font-size="11.00">+</text>
<text text-anchor="start" x="635.5" y="-111.2" font-family="Consolas" font-size="11.00">get()</text>
<polygon fill="#666666" stroke="#666666" points="620.5,-234 620.5,-234 768.5,-234 768.5,-234 620.5,-234"/>
<polygon fill="#666666" stroke="#666666" points="620.5,-138 620.5,-138 633.5,-138 633.5,-138 620.5,-138"/>
<polygon fill="#666666" stroke="#666666" points="633.5,-138 633.5,-138 768.5,-138 768.5,-138 633.5,-138"/>
<polygon fill="none" stroke="#666666" points="620.5,-104 620.5,-264 768.5,-264 768.5,-104 620.5,-104"/>
</a>
</g>
</g>
<!-- Node1&#45;&gt;Node15 -->
<g id="edge14_Node000001_Node000015" class="edge">
<title>Node1&#45;&gt;Node15</title>
<g id="a_edge14_Node000001_Node000015"><a xlink:title=" ">
<path fill="none" stroke="#63b8ff" d="M587.26,-295.3C598.09,-284.16 609.35,-272.59 620.31,-261.3"/>
<polygon fill="none" stroke="#63b8ff" points="584.68,-292.94 580.22,-302.55 589.7,-297.82 584.68,-292.94"/>
</a>
</g>
</g>
<!-- Node2 -->
<g id="Node000002" class="node">
<title>Node2</title>
<g id="a_Node000002"><a xlink:href="../../d5/d50/class_element.html" target="_top" xlink:title="A Element class.">
<polygon fill="white" stroke="transparent" points="627,-760 412,-760 412,-468 627,-468 627,-760"/>
<text text-anchor="start" x="496" y="-747.2" font-family="Consolas" font-size="11.00">Element</text>
<text text-anchor="start" x="416.5" y="-731.2" font-family="Consolas" font-size="11.00">#</text>
<text text-anchor="start" x="427.5" y="-731.2" font-family="Consolas" font-size="11.00">node_ptr</text>
<text text-anchor="start" x="416.5" y="-715.2" font-family="Consolas" font-size="11.00">+</text>
<text text-anchor="start" x="427.5" y="-715.2" font-family="Consolas" font-size="11.00">Element()</text>
<text text-anchor="start" x="416.5" y="-699.2" font-family="Consolas" font-size="11.00">+</text>
<text text-anchor="start" x="427.5" y="-699.2" font-family="Consolas" font-size="11.00">Element()</text>
<text text-anchor="start" x="416.5" y="-683.2" font-family="Consolas" font-size="11.00">+</text>
<text text-anchor="start" x="427.5" y="-683.2" font-family="Consolas" font-size="11.00">Element()</text>
<text text-anchor="start" x="416.5" y="-667.2" font-family="Consolas" font-size="11.00">+</text>
<text text-anchor="start" x="427.5" y="-667.2" font-family="Consolas" font-size="11.00">Element()</text>
<text text-anchor="start" x="416.5" y="-651.2" font-family="Consolas" font-size="11.00">+</text>
<text text-anchor="start" x="427.5" y="-651.2" font-family="Consolas" font-size="11.00">Element()</text>
<text text-anchor="start" x="416.5" y="-635.2" font-family="Consolas" font-size="11.00">+</text>
<text text-anchor="start" x="427.5" y="-635.2" font-family="Consolas" font-size="11.00">initialize_base()</text>
<text text-anchor="start" x="416.5" y="-619.2" font-family="Consolas" font-size="11.00">+</text>
<text text-anchor="start" x="427.5" y="-619.2" font-family="Consolas" font-size="11.00">set_initialized()</text>
<text text-anchor="start" x="416.5" y="-603.2" font-family="Consolas" font-size="11.00">+</text>
<text text-anchor="start" x="427.5" y="-603.2" font-family="Consolas" font-size="11.00">set_symmetric()</text>
<text text-anchor="start" x="416.5" y="-587.2" font-family="Consolas" font-size="11.00">+</text>
<text text-anchor="start" x="427.5" y="-587.2" font-family="Consolas" font-size="11.00">is_initialized()</text>
<text text-anchor="start" x="416.5" y="-571.2" font-family="Consolas" font-size="11.00">+</text>
<text text-anchor="start" x="427.5" y="-571.2" font-family="Consolas" font-size="11.00">is_symmetric()</text>
<text text-anchor="start" x="427.5" y="-555.2" font-family="Consolas" font-size="11.00">and 82 more...</text>
<text text-anchor="start" x="416.5" y="-539.2" font-family="Consolas" font-size="11.00">#</text>
<text text-anchor="start" x="427.5" y="-539.2" font-family="Consolas" font-size="11.00">get_node_incre_resistance()</text>
<text text-anchor="start" x="416.5" y="-523.2" font-family="Consolas" font-size="11.00">#</text>
<text text-anchor="start" x="427.5" y="-523.2" font-family="Consolas" font-size="11.00">get_node_trial_resistance()</text>
<text text-anchor="start" x="416.5" y="-507.2" font-family="Consolas" font-size="11.00">#</text>
<text text-anchor="start" x="427.5" y="-507.2" font-family="Consolas" font-size="11.00">get_node_current_resistance()</text>
<text text-anchor="start" x="416.5" y="-491.2" font-family="Consolas" font-size="11.00">#</text>
<text text-anchor="start" x="427.5" y="-491.2" font-family="Consolas" font-size="11.00">get_material()</text>
<text text-anchor="start" x="416.5" y="-475.2" font-family="Consolas" font-size="11.00">#</text>
<text text-anchor="start" x="427.5" y="-475.2" font-family="Consolas" font-size="11.00">get_section()</text>
<polygon fill="#666666" stroke="#666666" points="412.5,-742 412.5,-742 627.5,-742 627.5,-742 412.5,-742"/>
<polygon fill="#666666" stroke="#666666" points="412.5,-726 412.5,-726 425.5,-726 425.5,-726 412.5,-726"/>
<polygon fill="#666666" stroke="#666666" points="425.5,-726 425.5,-726 627.5,-726 627.5,-726 425.5,-726"/>
<polygon fill="none" stroke="#666666" points="412,-468 412,-760 627,-760 627,-468 412,-468"/>
</a>
</g>
</g>
<!-- Node2&#45;&gt;Node1 -->
<g id="edge1_Node000001_Node000002" class="edge">
<title>Node2&#45;&gt;Node1</title>
<g id="a_edge1_Node000001_Node000002"><a xlink:title=" ">
<path fill="none" stroke="#63b8ff" d="M519.5,-457.69C519.5,-448.85 519.5,-440.25 519.5,-432.09"/>
<polygon fill="none" stroke="#63b8ff" points="516,-457.77 519.5,-467.77 523,-457.77 516,-457.77"/>
</a>
</g>
</g>
<!-- Node3 -->
<g id="Node000003" class="node">
<title>Node3</title>
<g id="a_Node000003"><a xlink:href="../../d2/db9/struct_data_element.html" target="_top" xlink:title=" ">
<polygon fill="white" stroke="transparent" points="393.5,-1048 259.5,-1048 259.5,-836 393.5,-836 393.5,-1048"/>
<text text-anchor="start" x="289" y="-1035.2" font-family="Consolas" font-size="11.00">DataElement</text>
<text text-anchor="start" x="263.5" y="-1019.2" font-family="Consolas" font-size="11.00">+</text>
<text text-anchor="start" x="274.5" y="-1019.2" font-family="Consolas" font-size="11.00">node_encoding</text>
<text text-anchor="start" x="263.5" y="-1003.2" font-family="Consolas" font-size="11.00">+</text>
<text text-anchor="start" x="274.5" y="-1003.2" font-family="Consolas" font-size="11.00">material_tag</text>
<text text-anchor="start" x="263.5" y="-987.2" font-family="Consolas" font-size="11.00">+</text>
<text text-anchor="start" x="274.5" y="-987.2" font-family="Consolas" font-size="11.00">section_tag</text>
<text text-anchor="start" x="263.5" y="-971.2" font-family="Consolas" font-size="11.00">+</text>
<text text-anchor="start" x="274.5" y="-971.2" font-family="Consolas" font-size="11.00">nlgeom</text>
<text text-anchor="start" x="263.5" y="-955.2" font-family="Consolas" font-size="11.00">+</text>
<text text-anchor="start" x="274.5" y="-955.2" font-family="Consolas" font-size="11.00">update_mass</text>
<text text-anchor="start" x="263.5" y="-939.2" font-family="Consolas" font-size="11.00">+</text>
<text text-anchor="start" x="274.5" y="-939.2" font-family="Consolas" font-size="11.00">update_viscous</text>
<text text-anchor="start" x="263.5" y="-923.2" font-family="Consolas" font-size="11.00">+</text>
<text text-anchor="start" x="274.5" y="-923.2" font-family="Consolas" font-size="11.00">update_nonviscous</text>
<text text-anchor="start" x="263.5" y="-907.2" font-family="Consolas" font-size="11.00">+</text>
<text text-anchor="start" x="274.5" y="-907.2" font-family="Consolas" font-size="11.00">update_stiffness</text>
<text text-anchor="start" x="263.5" y="-891.2" font-family="Consolas" font-size="11.00">+</text>
<text text-anchor="start" x="274.5" y="-891.2" font-family="Consolas" font-size="11.00">update_geometry</text>
<text text-anchor="start" x="263.5" y="-875.2" font-family="Consolas" font-size="11.00">+</text>
<text text-anchor="start" x="274.5" y="-875.2" font-family="Consolas" font-size="11.00">modify_mass</text>
<text text-anchor="start" x="274.5" y="-859.2" font-family="Consolas" font-size="11.00">and 41 more...</text>
<text text-anchor="start" x="323" y="-843.2" font-family="Consolas" font-size="11.00"> </text>
<polygon fill="#666666" stroke="#666666" points="259.5,-1030 259.5,-1030 393.5,-1030 393.5,-1030 259.5,-1030"/>
<polygon fill="#666666" stroke="#666666" points="259.5,-854 259.5,-854 272.5,-854 272.5,-854 259.5,-854"/>
<polygon fill="#666666" stroke="#666666" points="272.5,-854 272.5,-854 393.5,-854 393.5,-854 272.5,-854"/>
<polygon fill="none" stroke="#666666" points="259.5,-836 259.5,-1048 393.5,-1048 393.5,-836 259.5,-836"/>
</a>
</g>
</g>
<!-- Node3&#45;&gt;Node2 -->
<g id="edge2_Node000002_Node000003" class="edge">
<title>Node3&#45;&gt;Node2</title>
<g id="a_edge2_Node000002_Node000003"><a xlink:title=" ">
<path fill="none" stroke="darkgreen" d="M385.01,-826.97C390.79,-816.43 396.68,-805.97 402.5,-796 409.29,-784.37 416.48,-772.43 423.83,-760.49"/>
<polygon fill="none" stroke="darkgreen" points="381.89,-825.38 380.17,-835.83 388.03,-828.73 381.89,-825.38"/>
</a>
</g>
</g>
<!-- Node4 -->
<g id="Node000004" class="node">
<title>Node4</title>
<g id="a_Node000004"><a xlink:href="../../d4/d6b/class_element_base.html" target="_top" xlink:title="A ElementBase class.">
<polygon fill="white" stroke="transparent" points="627,-1088 412,-1088 412,-796 627,-796 627,-1088"/>
<text text-anchor="start" x="482.5" y="-1075.2" font-family="Consolas" font-size="11.00">ElementBase</text>
<text text-anchor="start" x="516.5" y="-1059.2" font-family="Consolas" font-size="11.00"> </text>
<text text-anchor="start" x="416.5" y="-1043.2" font-family="Consolas" font-size="11.00">+</text>
<text text-anchor="start" x="427.5" y="-1043.2" font-family="Consolas" font-size="11.00">ElementBase()</text>
<text text-anchor="start" x="416.5" y="-1027.2" font-family="Consolas" font-size="11.00">+</text>
<text text-anchor="start" x="427.5" y="-1027.2" font-family="Consolas" font-size="11.00">initialize_base()</text>
<text text-anchor="start" x="416.5" y="-1011.2" font-family="Consolas" font-size="11.00">+</text>
<text text-anchor="start" x="427.5" y="-1011.2" font-family="Consolas" font-size="11.00">initialize()</text>
<text text-anchor="start" x="416.5" y="-995.2" font-family="Consolas" font-size="11.00">+</text>
<text text-anchor="start" x="427.5" y="-995.2" font-family="Consolas" font-size="11.00">set_initialized()</text>
<text text-anchor="start" x="416.5" y="-979.2" font-family="Consolas" font-size="11.00">+</text>
<text text-anchor="start" x="427.5" y="-979.2" font-family="Consolas" font-size="11.00">set_symmetric()</text>
<text text-anchor="start" x="416.5" y="-963.2" font-family="Consolas" font-size="11.00">+</text>
<text text-anchor="start" x="427.5" y="-963.2" font-family="Consolas" font-size="11.00">is_initialized()</text>
<text text-anchor="start" x="416.5" y="-947.2" font-family="Consolas" font-size="11.00">+</text>
<text text-anchor="start" x="427.5" y="-947.2" font-family="Consolas" font-size="11.00">is_symmetric()</text>
<text text-anchor="start" x="416.5" y="-931.2" font-family="Consolas" font-size="11.00">+</text>
<text text-anchor="start" x="427.5" y="-931.2" font-family="Consolas" font-size="11.00">is_nlgeom()</text>
<text text-anchor="start" x="416.5" y="-915.2" font-family="Consolas" font-size="11.00">+</text>
<text text-anchor="start" x="427.5" y="-915.2" font-family="Consolas" font-size="11.00">type()</text>
<text text-anchor="start" x="416.5" y="-899.2" font-family="Consolas" font-size="11.00">+</text>
<text text-anchor="start" x="427.5" y="-899.2" font-family="Consolas" font-size="11.00">update_dof_encoding()</text>
<text text-anchor="start" x="427.5" y="-883.2" font-family="Consolas" font-size="11.00">and 80 more...</text>
<text text-anchor="start" x="416.5" y="-867.2" font-family="Consolas" font-size="11.00">#</text>
<text text-anchor="start" x="427.5" y="-867.2" font-family="Consolas" font-size="11.00">get_node_incre_resistance()</text>
<text text-anchor="start" x="416.5" y="-851.2" font-family="Consolas" font-size="11.00">#</text>
<text text-anchor="start" x="427.5" y="-851.2" font-family="Consolas" font-size="11.00">get_node_trial_resistance()</text>
<text text-anchor="start" x="416.5" y="-835.2" font-family="Consolas" font-size="11.00">#</text>
<text text-anchor="start" x="427.5" y="-835.2" font-family="Consolas" font-size="11.00">get_node_current_resistance()</text>
<text text-anchor="start" x="416.5" y="-819.2" font-family="Consolas" font-size="11.00">#</text>
<text text-anchor="start" x="427.5" y="-819.2" font-family="Consolas" font-size="11.00">get_material()</text>
<text text-anchor="start" x="416.5" y="-803.2" font-family="Consolas" font-size="11.00">#</text>
<text text-anchor="start" x="427.5" y="-803.2" font-family="Consolas" font-size="11.00">get_section()</text>
<polygon fill="#666666" stroke="#666666" points="412.5,-1070 412.5,-1070 627.5,-1070 627.5,-1070 412.5,-1070"/>
<polygon fill="#666666" stroke="#666666" points="412.5,-1054 412.5,-1054 627.5,-1054 627.5,-1054 412.5,-1054"/>
<polygon fill="none" stroke="#666666" points="412,-796 412,-1088 627,-1088 627,-796 412,-796"/>
</a>
</g>
</g>
<!-- Node4&#45;&gt;Node2 -->
<g id="edge3_Node000002_Node000004" class="edge">
<title>Node4&#45;&gt;Node2</title>
<g id="a_edge3_Node000002_Node000004"><a xlink:title=" ">
<path fill="none" stroke="#63b8ff" d="M519.5,-785.38C519.5,-776.95 519.5,-768.5 519.5,-760.11"/>
<polygon fill="none" stroke="#63b8ff" points="516,-785.64 519.5,-795.64 523,-785.64 516,-785.64"/>
</a>
</g>
</g>
<!-- Node5 -->
<g id="Node000005" class="node">
<title>Node5</title>
<g id="a_Node000005"><a xlink:href="../../db/db8/class_unique_tag.html" target="_top" xlink:title="Label objects that cannot be copied.">
<polygon fill="white" stroke="transparent" points="521,-1288 420,-1288 420,-1124 521,-1124 521,-1288"/>
<text text-anchor="start" x="440.5" y="-1275.2" font-family="Consolas" font-size="11.00">UniqueTag</text>
<text text-anchor="start" x="467.5" y="-1259.2" font-family="Consolas" font-size="11.00"> </text>
<text text-anchor="start" x="424.5" y="-1243.2" font-family="Consolas" font-size="11.00">+</text>
<text text-anchor="start" x="435.5" y="-1243.2" font-family="Consolas" font-size="11.00">UniqueTag()</text>
<text text-anchor="start" x="424.5" y="-1227.2" font-family="Consolas" font-size="11.00">+</text>
<text text-anchor="start" x="435.5" y="-1227.2" font-family="Consolas" font-size="11.00">UniqueTag()</text>
<text text-anchor="start" x="424.5" y="-1211.2" font-family="Consolas" font-size="11.00">+</text>
<text text-anchor="start" x="435.5" y="-1211.2" font-family="Consolas" font-size="11.00">operator=()</text>
<text text-anchor="start" x="424.5" y="-1195.2" font-family="Consolas" font-size="11.00">+</text>
<text text-anchor="start" x="435.5" y="-1195.2" font-family="Consolas" font-size="11.00">operator=()</text>
<text text-anchor="start" x="424.5" y="-1179.2" font-family="Consolas" font-size="11.00">+</text>
<text text-anchor="start" x="435.5" y="-1179.2" font-family="Consolas" font-size="11.00">~UniqueTag()</text>
<text text-anchor="start" x="424.5" y="-1163.2" font-family="Consolas" font-size="11.00">+</text>
<text text-anchor="start" x="435.5" y="-1163.2" font-family="Consolas" font-size="11.00">Tag()</text>
<text text-anchor="start" x="424.5" y="-1147.2" font-family="Consolas" font-size="11.00">+</text>
<text text-anchor="start" x="435.5" y="-1147.2" font-family="Consolas" font-size="11.00">Tag()</text>
<text text-anchor="start" x="424.5" y="-1131.2" font-family="Consolas" font-size="11.00">+</text>
<text text-anchor="start" x="435.5" y="-1131.2" font-family="Consolas" font-size="11.00">Tag()</text>
<polygon fill="#666666" stroke="#666666" points="420.5,-1270 420.5,-1270 521.5,-1270 521.5,-1270 420.5,-1270"/>
<polygon fill="#666666" stroke="#666666" points="420.5,-1254 420.5,-1254 521.5,-1254 521.5,-1254 420.5,-1254"/>
<polygon fill="none" stroke="#666666" points="420,-1124 420,-1288 521,-1288 521,-1124 420,-1124"/>
</a>
</g>
</g>
<!-- Node5&#45;&gt;Node4 -->
<g id="edge4_Node000004_Node000005" class="edge">
<title>Node5&#45;&gt;Node4</title>
<g id="a_edge4_Node000004_Node000005"><a xlink:title=" ">
<path fill="none" stroke="#63b8ff" d="M487.55,-1113.85C489.11,-1105.51 490.71,-1096.94 492.33,-1088.27"/>
<polygon fill="none" stroke="#63b8ff" points="484.07,-1113.42 485.67,-1123.9 490.95,-1114.71 484.07,-1113.42"/>
</a>
</g>
</g>
<!-- Node6 -->
<g id="Node000006" class="node">
<title>Node6</title>
<g id="a_Node000006"><a xlink:href="../../d0/d57/class_tag.html" target="_top" xlink:title="A base Tag class.">
<polygon fill="white" stroke="transparent" points="521,-1600 420,-1600 420,-1324 521,-1324 521,-1600"/>
<text text-anchor="start" x="460.5" y="-1587.2" font-family="Consolas" font-size="11.00">Tag</text>
<text text-anchor="start" x="467.5" y="-1571.2" font-family="Consolas" font-size="11.00"> </text>
<text text-anchor="start" x="424.5" y="-1555.2" font-family="Consolas" font-size="11.00">+</text>
<text text-anchor="start" x="435.5" y="-1555.2" font-family="Consolas" font-size="11.00">Tag()</text>
<text text-anchor="start" x="424.5" y="-1539.2" font-family="Consolas" font-size="11.00">+</text>
<text text-anchor="start" x="435.5" y="-1539.2" font-family="Consolas" font-size="11.00">Tag()</text>
<text text-anchor="start" x="424.5" y="-1523.2" font-family="Consolas" font-size="11.00">+</text>
<text text-anchor="start" x="435.5" y="-1523.2" font-family="Consolas" font-size="11.00">Tag()</text>
<text text-anchor="start" x="424.5" y="-1507.2" font-family="Consolas" font-size="11.00">+</text>
<text text-anchor="start" x="435.5" y="-1507.2" font-family="Consolas" font-size="11.00">operator=()</text>
<text text-anchor="start" x="424.5" y="-1491.2" font-family="Consolas" font-size="11.00">+</text>
<text text-anchor="start" x="435.5" y="-1491.2" font-family="Consolas" font-size="11.00">operator=()</text>
<text text-anchor="start" x="424.5" y="-1475.2" font-family="Consolas" font-size="11.00">+</text>
<text text-anchor="start" x="435.5" y="-1475.2" font-family="Consolas" font-size="11.00">~Tag()</text>
<text text-anchor="start" x="424.5" y="-1459.2" font-family="Consolas" font-size="11.00">+</text>
<text text-anchor="start" x="435.5" y="-1459.2" font-family="Consolas" font-size="11.00">set_tag()</text>
<text text-anchor="start" x="424.5" y="-1443.2" font-family="Consolas" font-size="11.00">+</text>
<text text-anchor="start" x="435.5" y="-1443.2" font-family="Consolas" font-size="11.00">get_tag()</text>
<text text-anchor="start" x="424.5" y="-1427.2" font-family="Consolas" font-size="11.00">+</text>
<text text-anchor="start" x="435.5" y="-1427.2" font-family="Consolas" font-size="11.00">enable()</text>
<text text-anchor="start" x="424.5" y="-1411.2" font-family="Consolas" font-size="11.00">+</text>
<text text-anchor="start" x="435.5" y="-1411.2" font-family="Consolas" font-size="11.00">disable()</text>
<text text-anchor="start" x="424.5" y="-1395.2" font-family="Consolas" font-size="11.00">+</text>
<text text-anchor="start" x="435.5" y="-1395.2" font-family="Consolas" font-size="11.00">guard()</text>
<text text-anchor="start" x="424.5" y="-1379.2" font-family="Consolas" font-size="11.00">+</text>
<text text-anchor="start" x="435.5" y="-1379.2" font-family="Consolas" font-size="11.00">unguard()</text>
<text text-anchor="start" x="424.5" y="-1363.2" font-family="Consolas" font-size="11.00">+</text>
<text text-anchor="start" x="435.5" y="-1363.2" font-family="Consolas" font-size="11.00">is_active()</text>
<text text-anchor="start" x="424.5" y="-1347.2" font-family="Consolas" font-size="11.00">+</text>
<text text-anchor="start" x="435.5" y="-1347.2" font-family="Consolas" font-size="11.00">is_guarded()</text>
<text text-anchor="start" x="424.5" y="-1331.2" font-family="Consolas" font-size="11.00">+</text>
<text text-anchor="start" x="435.5" y="-1331.2" font-family="Consolas" font-size="11.00">print()</text>
<polygon fill="#666666" stroke="#666666" points="420.5,-1582 420.5,-1582 521.5,-1582 521.5,-1582 420.5,-1582"/>
<polygon fill="#666666" stroke="#666666" points="420.5,-1566 420.5,-1566 521.5,-1566 521.5,-1566 420.5,-1566"/>
<polygon fill="none" stroke="#666666" points="420,-1324 420,-1600 521,-1600 521,-1324 420,-1324"/>
</a>
</g>
</g>
<!-- Node6&#45;&gt;Node5 -->
<g id="edge5_Node000005_Node000006" class="edge">
<title>Node6&#45;&gt;Node5</title>
<g id="a_edge5_Node000005_Node000006"><a xlink:title=" ">
<path fill="none" stroke="#63b8ff" d="M470.5,-1313.72C470.5,-1305.04 470.5,-1296.49 470.5,-1288.23"/>
<polygon fill="none" stroke="#63b8ff" points="467,-1313.96 470.5,-1323.96 474,-1313.96 467,-1313.96"/>
</a>
</g>
</g>
<!-- Node7 -->
<g id="Node000007" class="node">
<title>Node7</title>
<g id="a_Node000007"><a xlink:href="../../db/ddc/classvtk_base.html" target="_top" xlink:title="The vtkBase class.">
<polygon fill="white" stroke="transparent" points="597.5,-1232 539.5,-1232 539.5,-1180 597.5,-1180 597.5,-1232"/>
<text text-anchor="start" x="544.5" y="-1219.2" font-family="Consolas" font-size="11.00">vtkBase</text>
<text text-anchor="start" x="565" y="-1203.2" font-family="Consolas" font-size="11.00"> </text>
<text text-anchor="start" x="565" y="-1187.2" font-family="Consolas" font-size="11.00"> </text>
<polygon fill="#666666" stroke="#666666" points="539.5,-1214 539.5,-1214 597.5,-1214 597.5,-1214 539.5,-1214"/>
<polygon fill="#666666" stroke="#666666" points="539.5,-1198 539.5,-1198 597.5,-1198 597.5,-1198 539.5,-1198"/>
<polygon fill="none" stroke="#666666" points="539.5,-1180 539.5,-1232 597.5,-1232 597.5,-1180 539.5,-1180"/>
</a>
</g>
</g>
<!-- Node7&#45;&gt;Node4 -->
<g id="edge6_Node000004_Node000007" class="edge">
<title>Node7&#45;&gt;Node4</title>
<g id="a_edge6_Node000004_Node000007"><a xlink:title=" ">
<path fill="none" stroke="#63b8ff" d="M561.93,-1169.88C557.87,-1148.17 552.36,-1118.7 546.65,-1088.19"/>
<polygon fill="none" stroke="#63b8ff" points="558.52,-1170.69 563.8,-1179.88 565.4,-1169.41 558.52,-1170.69"/>
</a>
</g>
</g>
<!-- Node8 -->
<g id="Node000008" class="node">
<title>Node8</title>
<g id="a_Node000008"><a xlink:href="../../dd/d45/class_distributed.html" target="_top" xlink:title=" ">
<polygon fill="white" stroke="transparent" points="752,-976 645,-976 645,-908 752,-908 752,-976"/>
<text text-anchor="start" x="661.5" y="-963.2" font-family="Consolas" font-size="11.00">Distributed</text>
<text text-anchor="start" x="649.5" y="-947.2" font-family="Consolas" font-size="11.00">+</text>
<text text-anchor="start" x="660.5" y="-947.2" font-family="Consolas" font-size="11.00">is_local</text>
<text text-anchor="start" x="649.5" y="-931.2" font-family="Consolas" font-size="11.00">+</text>
<text text-anchor="start" x="660.5" y="-931.2" font-family="Consolas" font-size="11.00">Distributed()</text>
<text text-anchor="start" x="649.5" y="-915.2" font-family="Consolas" font-size="11.00">+</text>
<text text-anchor="start" x="660.5" y="-915.2" font-family="Consolas" font-size="11.00">gather()</text>
<polygon fill="#666666" stroke="#666666" points="645.5,-958 645.5,-958 752.5,-958 752.5,-958 645.5,-958"/>
<polygon fill="#666666" stroke="#666666" points="645.5,-942 645.5,-942 658.5,-942 658.5,-942 645.5,-942"/>
<polygon fill="#666666" stroke="#666666" points="658.5,-942 658.5,-942 752.5,-942 752.5,-942 658.5,-942"/>
<polygon fill="none" stroke="#666666" points="645,-908 645,-976 752,-976 752,-908 645,-908"/>
</a>
</g>
</g>
<!-- Node8&#45;&gt;Node2 -->
<g id="edge7_Node000002_Node000008" class="edge">
<title>Node8&#45;&gt;Node2</title>
<g id="a_edge7_Node000002_Node000008"><a xlink:title=" ">
<path fill="none" stroke="#63b8ff" d="M682.02,-898.22C670.22,-868.89 653.31,-829.4 635.5,-796 629.18,-784.14 622.34,-772.04 615.26,-760"/>
<polygon fill="none" stroke="#63b8ff" points="678.87,-899.77 685.82,-907.76 685.37,-897.17 678.87,-899.77"/>
</a>
</g>
</g>
<!-- Node10 -->
<g id="Node000010" class="node">
<title>Node10</title>
<g id="a_Node000010"><a xlink:href="../../db/da8/class_inertial_spherical_particle2_d.html" target="_top" xlink:title=" ">
<polygon fill="white" stroke="transparent" points="215,-68 0,-68 0,0 215,0 215,-68"/>
<text text-anchor="start" x="16.5" y="-55.2" font-family="Consolas" font-size="11.00">InertialSphericalParticle2D</text>
<text text-anchor="start" x="104.5" y="-39.2" font-family="Consolas" font-size="11.00"> </text>
<text text-anchor="start" x="4.5" y="-23.2" font-family="Consolas" font-size="11.00">+</text>
<text text-anchor="start" x="15.5" y="-23.2" font-family="Consolas" font-size="11.00">InertialSphericalParticle2D()</text>
<text text-anchor="start" x="4.5" y="-7.2" font-family="Consolas" font-size="11.00">+</text>
<text text-anchor="start" x="15.5" y="-7.2" font-family="Consolas" font-size="11.00">initialize()</text>
<polygon fill="#666666" stroke="#666666" points="0.5,-50 0.5,-50 215.5,-50 215.5,-50 0.5,-50"/>
<polygon fill="#666666" stroke="#666666" points="0.5,-34 0.5,-34 215.5,-34 215.5,-34 0.5,-34"/>
<polygon fill="none" stroke="#666666" points="0,0 0,-68 215,-68 215,0 0,0"/>
</a>
</g>
</g>
<!-- Node9&#45;&gt;Node10 -->
<g id="edge9_Node000009_Node000010" class="edge">
<title>Node9&#45;&gt;Node10</title>
<g id="a_edge9_Node000009_Node000010"><a xlink:title=" ">
<path fill="none" stroke="#63b8ff" d="M221.99,-117.25C198.35,-100.27 173.9,-82.7 153.69,-68.18"/>
<polygon fill="none" stroke="#63b8ff" points="220.14,-120.24 230.31,-123.23 224.23,-114.55 220.14,-120.24"/>
</a>
</g>
</g>
<!-- Node11 -->
<g id="Node000011" class="node">
<title>Node11</title>
<g id="a_Node000011"><a xlink:href="../../d8/dff/class_spherical_particle2_d.html" target="_top" xlink:title=" ">
<polygon fill="white" stroke="transparent" points="394,-68 233,-68 233,0 394,0 394,-68"/>
<text text-anchor="start" x="249.5" y="-55.2" font-family="Consolas" font-size="11.00">SphericalParticle2D</text>
<text text-anchor="start" x="310.5" y="-39.2" font-family="Consolas" font-size="11.00"> </text>
<text text-anchor="start" x="237.5" y="-23.2" font-family="Consolas" font-size="11.00">+</text>
<text text-anchor="start" x="248.5" y="-23.2" font-family="Consolas" font-size="11.00">SphericalParticle2D()</text>
<text text-anchor="start" x="237.5" y="-7.2" font-family="Consolas" font-size="11.00">+</text>
<text text-anchor="start" x="248.5" y="-7.2" font-family="Consolas" font-size="11.00">initialize()</text>
<polygon fill="#666666" stroke="#666666" points="233.5,-50 233.5,-50 394.5,-50 394.5,-50 233.5,-50"/>
<polygon fill="#666666" stroke="#666666" points="233.5,-34 233.5,-34 394.5,-34 394.5,-34 233.5,-34"/>
<polygon fill="none" stroke="#666666" points="233,0 233,-68 394,-68 394,0 233,0"/>
</a>
</g>
</g>
<!-- Node9&#45;&gt;Node11 -->
<g id="edge10_Node000009_Node000011" class="edge">
<title>Node9&#45;&gt;Node11</title>
<g id="a_edge10_Node000009_Node000011"><a xlink:title=" ">
<path fill="none" stroke="#63b8ff" d="M313.5,-99.65C313.5,-88.58 313.5,-77.79 313.5,-68.29"/>
<polygon fill="none" stroke="#63b8ff" points="310,-99.87 313.5,-109.87 317,-99.87 310,-99.87"/>
</a>
</g>
</g>
<!-- Node13 -->
<g id="Node000013" class="node">
<title>Node13</title>
<g id="a_Node000013"><a xlink:href="../../d2/dc4/class_inertial_spherical_particle3_d.html" target="_top" xlink:title=" ">
<polygon fill="white" stroke="transparent" points="627,-68 412,-68 412,0 627,0 627,-68"/>
<text text-anchor="start" x="428.5" y="-55.2" font-family="Consolas" font-size="11.00">InertialSphericalParticle3D</text>
<text text-anchor="start" x="516.5" y="-39.2" font-family="Consolas" font-size="11.00"> </text>
<text text-anchor="start" x="416.5" y="-23.2" font-family="Consolas" font-size="11.00">+</text>
<text text-anchor="start" x="427.5" y="-23.2" font-family="Consolas" font-size="11.00">InertialSphericalParticle3D()</text>
<text text-anchor="start" x="416.5" y="-7.2" font-family="Consolas" font-size="11.00">+</text>
<text text-anchor="start" x="427.5" y="-7.2" font-family="Consolas" font-size="11.00">initialize()</text>
<polygon fill="#666666" stroke="#666666" points="412.5,-50 412.5,-50 627.5,-50 627.5,-50 412.5,-50"/>
<polygon fill="#666666" stroke="#666666" points="412.5,-34 412.5,-34 627.5,-34 627.5,-34 412.5,-34"/>
<polygon fill="none" stroke="#666666" points="412,0 412,-68 627,-68 627,0 412,0"/>
</a>
</g>
</g>
<!-- Node12&#45;&gt;Node13 -->
<g id="edge12_Node000012_Node000013" class="edge">
<title>Node12&#45;&gt;Node13</title>
<g id="a_edge12_Node000012_Node000013"><a xlink:title=" ">
<path fill="none" stroke="#63b8ff" d="M519.5,-99.65C519.5,-88.58 519.5,-77.79 519.5,-68.29"/>
<polygon fill="none" stroke="#63b8ff" points="516,-99.87 519.5,-109.87 523,-99.87 516,-99.87"/>
</a>
</g>
</g>
<!-- Node14 -->
<g id="Node000014" class="node">
<title>Node14</title>
<g id="a_Node000014"><a xlink:href="../../d5/dfc/class_spherical_particle3_d.html" target="_top" xlink:title=" ">
<polygon fill="white" stroke="transparent" points="806,-68 645,-68 645,0 806,0 806,-68"/>
<text text-anchor="start" x="661.5" y="-55.2" font-family="Consolas" font-size="11.00">SphericalParticle3D</text>
<text text-anchor="start" x="722.5" y="-39.2" font-family="Consolas" font-size="11.00"> </text>
<text text-anchor="start" x="649.5" y="-23.2" font-family="Consolas" font-size="11.00">+</text>
<text text-anchor="start" x="660.5" y="-23.2" font-family="Consolas" font-size="11.00">SphericalParticle3D()</text>
<text text-anchor="start" x="649.5" y="-7.2" font-family="Consolas" font-size="11.00">+</text>
<text text-anchor="start" x="660.5" y="-7.2" font-family="Consolas" font-size="11.00">initialize()</text>
<polygon fill="#666666" stroke="#666666" points="645.5,-50 645.5,-50 806.5,-50 806.5,-50 645.5,-50"/>
<polygon fill="#666666" stroke="#666666" points="645.5,-34 645.5,-34 806.5,-34 806.5,-34 645.5,-34"/>
<polygon fill="none" stroke="#666666" points="645,0 645,-68 806,-68 806,0 645,0"/>
</a>
</g>
</g>
<!-- Node12&#45;&gt;Node14 -->
<g id="edge13_Node000012_Node000014" class="edge">
<title>Node12&#45;&gt;Node14</title>
<g id="a_edge13_Node000012_Node000014"><a xlink:title=" ">
<path fill="none" stroke="#63b8ff" d="M610.96,-104.39C611.14,-104.26 611.32,-104.13 611.5,-104 628.83,-91.45 648.52,-78.96 666.6,-68.12"/>
<polygon fill="none" stroke="#63b8ff" points="608.7,-101.71 602.76,-110.49 612.87,-107.33 608.7,-101.71"/>
</a>
</g>
</g>
</g>
</svg>

<g id="navigator" transform="translate(0 0)" fill="#404254">
  <rect fill="#f2f5e9" fill-opacity="0.5" stroke="#606060" stroke-width=".5" x="0" y="0" width="60" height="60"/>
  <use id="zoomplus" xlink:href="#zoomPlus" x="17" y="9" onmousedown="handleZoom(evt,'in')"/>
  <use id="zoomminus" xlink:href="#zoomMin" x="42" y="9" onmousedown="handleZoom(evt,'out')"/>
  <use id="reset" xlink:href="#resetDef" x="30" y="36" onmousedown="handleReset()"/>
   <use id="arrowup" xlink:href="#arrowUp" x="0" y="0" onmousedown="handlePan(0,-1)"/>
  <use id="arrowright" xlink:href="#arrowRight" x="0" y="0" onmousedown="handlePan(1,0)"/>
  <use id="arrowdown" xlink:href="#arrowDown" x="0" y="0" onmousedown="handlePan(0,1)"/>
  <use id="arrowleft" xlink:href="#arrowLeft" x="0" y="0" onmousedown="handlePan(-1,0)"/>
</g>
<svg viewBox="0 0 15 15" width="100%" height="30px" preserveAspectRatio="xMaxYMin meet">
 <g id="arrow_out" transform="scale(0.3 0.3)">
  <a xlink:href="class_particle__inherit__graph_org.svg" target="_base">
   <rect id="button" ry="5" rx="5" y="6" x="6" height="38" width="38"
        fill="#f2f5e9" fill-opacity="0.5" stroke="#606060" stroke-width="1.0"/>
   <path id="arrow"
     d="M 11.500037,31.436501 C 11.940474,20.09759 22.043105,11.32322 32.158766,21.979434 L 37.068811,17.246167 C 37.068811,17.246167 37.088388,32 37.088388,32 L 22.160133,31.978069 C 22.160133,31.978069 26.997745,27.140456 26.997745,27.140456 C 18.528582,18.264221 13.291696,25.230495 11.500037,31.436501 z"
     style="fill:#404040;"/>
  </a>
 </g>
</svg>

<style type='text/css'>
<![CDATA[
[data-mouse-over-selected='false'] { opacity: 0.7; }
[data-mouse-over-selected='true']  { opacity: 1.0; }
]]>
</style>
<script type="application/ecmascript"><![CDATA[
document.addEventListener('DOMContentLoaded', (event) => {
  highlightEdges();
  highlightAdjacentNodes();
});
]]></script>
</svg>
