<svg xmlns="http://www.w3.org/2000/svg" xmlns:xlink="http://www.w3.org/1999/xlink" width="544" height="392" viewBox="0 0 408 294"><svg xmlns="http://www.w3.org/2000/svg" xmlns:xlink="http://www.w3.org/1999/xlink" xml:space="preserve" id="main" onload="init(evt)"><style>.edge,.node,[data-mouse-over-selected=false]{opacity:.7}.edge.selected,.node.selected,[data-mouse-over-selected=true]{opacity:1}.edge:hover path{stroke:red}.edge:hover polygon{stroke:red;fill:red}</style><script xlink:href="../../svg.min.js" type="application/ecmascript"/><svg id="graph" class="graph"><g id="graph0" class="graph" transform="translate(4 290)"><title>AbsIncreAcc::is_converged</title><g id="Node000001" class="node"><title>Node1</title><a xlink:title="Method to return conv_flag." id="a_Node000001">
<path fill="#999" stroke="#666" d="M185-153H0v20h185z"/>
<text x="92.5" y="-140.2" font-family="Consolas" font-size="11" text-anchor="middle">AbsIncreAcc::is_converged</text>
</a></g><g id="Node000002" class="node"><title>Node2</title><a xlink:href="../../d7/dae/class_converger.html#a35bf6429e4f33c8966c34dea7071b165" xlink:title="method to return conv_flag." id="a_Node000002" target="_top">
<path fill="#fff" stroke="#666" d="M400-286H221v20h179z"/>
<text x="310.5" y="-273.2" font-family="Consolas" font-size="11" text-anchor="middle">Converger::get_conv_flag</text>
</a></g><g id="edge1_Node000001_Node000002" class="edge"><title>Node1-&gt;Node2</title><a id="a_edge1_Node000001_Node000002">
<path fill="none" stroke="#63b8ff" d="M101.54-153.11C120.02-175.64 168.07-230.08 221-257c4.24-2.16 8.72-4.07 13.31-5.77"/>
<path fill="#63b8ff" stroke="#63b8ff" d="m233.29-266.11 10.59.16-8.38 6.48z"/>
</a></g><g id="Node000003" class="node"><title>Node3</title><a xlink:href="../../d7/dae/class_converger.html#a6568a115263779e433113094f0cd0c24" xlink:title="method to return DomainBase." id="a_Node000003" target="_top">
<path fill="#fff" stroke="#666" d="M389.5-248h-158v20h158z"/>
<text x="310.5" y="-235.2" font-family="Consolas" font-size="11" text-anchor="middle">Converger::get_domain</text>
</a></g><g id="edge2_Node000001_Node000003" class="edge"><title>Node1-&gt;Node3</title><a id="a_edge2_Node000001_Node000003">
<path fill="none" stroke="#63b8ff" d="M106.88-153.01C129.3-169.29 176.39-201.47 221-219c5.95-2.34 12.25-4.41 18.62-6.25"/>
<path fill="#63b8ff" stroke="#63b8ff" d="m239.12-228.74 10.56.8-8.75 5.96z"/>
</a></g><g id="Node000004" class="node"><title>Node4</title><a xlink:href="../../d7/dae/class_converger.html#ac53b3d32fa56c076ec2565390eb7dc92" xlink:title="method to return error." id="a_Node000004" target="_top">
<path fill="#fff" stroke="#666" d="M386.5-210h-152v20h152z"/>
<text x="310.5" y="-197.2" font-family="Consolas" font-size="11" text-anchor="middle">Converger::get_error</text>
</a></g><g id="edge3_Node000001_Node000004" class="edge"><title>Node1-&gt;Node4</title><a id="a_edge3_Node000001_Node000004">
<path fill="none" stroke="#63b8ff" d="M124.75-153.06c25.69-8.09 63.13-19.46 96.25-27.94 9.15-2.34 18.89-4.63 28.42-6.77"/>
<path fill="#63b8ff" stroke="#63b8ff" d="m248.74-191.2 10.52 1.27-9.01 5.57z"/>
</a></g><g id="Node000005" class="node"><title>Node5</title><a xlink:href="../../d7/dae/class_converger.html#a20784028239e8bec069dfd89d74627e6" xlink:title="method to return tolerance." id="a_Node000005" target="_top">
<path fill="#fff" stroke="#666" d="M400-172H221v20h179z"/>
<text x="310.5" y="-159.2" font-family="Consolas" font-size="11" text-anchor="middle">Converger::get_tolerance</text>
</a></g><g id="edge4_Node000001_Node000005" class="edge"><title>Node1-&gt;Node5</title><a id="a_edge4_Node000001_Node000005">
<path fill="none" stroke="#63b8ff" d="M185.1-151.06c8.52-.75 17.17-1.51 25.74-2.26"/>
<path fill="#63b8ff" stroke="#63b8ff" d="m210.58-156.81 10.27 2.61-9.65 4.36z"/>
</a></g><g id="Node000006" class="node"><title>Node6</title><a xlink:href="../../d6/d9c/namespacesuanpan.html#af65ff889c917db764400e6c72c11a0b7" id="a_Node000006" target="_top">
<path fill="#fff" stroke="#666" d="M376-134H245v20h131z"/>
<text x="310.5" y="-121.2" font-family="Consolas" font-size="11" text-anchor="middle">suanpan::inf_norm</text>
</a></g><g id="edge5_Node000001_Node000006" class="edge"><title>Node1-&gt;Node6</title><a id="a_edge5_Node000001_Node000006">
<path fill="none" stroke="#63b8ff" d="M185.1-134.94c16.51 1.45 33.54 2.95 49.5 4.35"/>
<path fill="#63b8ff" stroke="#63b8ff" d="m235.26-134.04 9.66 4.36-10.27 2.61z"/>
</a></g><g id="Node000007" class="node"><title>Node7</title><a xlink:href="../../d7/dae/class_converger.html#a1095095d509dcf2df46f0997d8adee0d" xlink:title="method to return print_flag." id="a_Node000007" target="_top">
<path fill="#fff" stroke="#666" d="M383-96H238v20h145z"/>
<text x="310.5" y="-83.2" font-family="Consolas" font-size="11" text-anchor="middle">Converger::is_print</text>
</a></g><g id="edge6_Node000001_Node000007" class="edge"><title>Node1-&gt;Node7</title><a id="a_edge6_Node000001_Node000007">
<path fill="none" stroke="#63b8ff" d="M124.75-132.94c25.69 8.09 63.13 19.46 96.25 27.94 9.15 2.34 18.89 4.63 28.42 6.77"/>
<path fill="#63b8ff" stroke="#63b8ff" d="m250.25-101.64 9.01 5.57-10.52 1.27z"/>
</a></g><g id="Node000008" class="node"><title>Node8</title><a xlink:href="../../d7/dae/class_converger.html#acb33ddcbc28124732a8355925a9607b2" xlink:title="method to set conv_flag." id="a_Node000008" target="_top">
<path fill="#fff" stroke="#666" d="M400-58H221v20h179z"/>
<text x="310.5" y="-45.2" font-family="Consolas" font-size="11" text-anchor="middle">Converger::set_conv_flag</text>
</a></g><g id="edge7_Node000001_Node000008" class="edge"><title>Node1-&gt;Node8</title><a id="a_edge7_Node000001_Node000008">
<path fill="none" stroke="#63b8ff" d="M106.88-132.99C129.3-116.71 176.39-84.53 221-67c5.95 2.34 12.25 4.41 18.62 6.25"/>
<path fill="#63b8ff" stroke="#63b8ff" d="m240.93-64.02 8.75 5.96-10.56.8z"/>
</a></g><g id="Node000009" class="node"><title>Node9</title><a xlink:href="../../d7/dae/class_converger.html#ab9f72024e7559c1fe82451fefa5a9f08" xlink:title="method to set error." id="a_Node000009" target="_top">
<path fill="#fff" stroke="#666" d="M386.5-20h-152V0h152z"/>
<text x="310.5" y="-7.2" font-family="Consolas" font-size="11" text-anchor="middle">Converger::set_error</text>
</a></g><g id="edge8_Node000001_Node000009" class="edge"><title>Node1-&gt;Node9</title><a id="a_edge8_Node000001_Node000009">
<path fill="none" stroke="#63b8ff" d="M101.54-132.89C120.02-110.36 168.07-55.92 221-29c4.24 2.16 8.72 4.07 13.31 5.77"/>
<path fill="#63b8ff" stroke="#63b8ff" d="m235.5-26.53 8.38 6.48-10.59.16z"/>
</a></g></g></svg></svg><script type="application/ecmascript"><![CDATA[
document.addEventListener('DOMContentLoaded', (event) => {
  highlightEdges();
  highlightAdjacentNodes();
});
]]></script></svg>