<?xml version="1.0" encoding="UTF-8" standalone="no"?>
<!DOCTYPE svg PUBLIC "-//W3C//DTD SVG 1.1//EN"
 "http://www.w3.org/Graphics/SVG/1.1/DTD/svg11.dtd">
<!-- Generated by graphviz version 2.43.0 (0)
 -->
<!-- Title: TabularSpline Pages: 1 -->
<!--zoomable 745 -->
<svg id="main" version="1.1" xmlns="http://www.w3.org/2000/svg" xmlns:xlink="http://www.w3.org/1999/xlink" xml:space="preserve" onload="init(evt)">
<style type="text/css"><![CDATA[
.edge:hover path { stroke: red; }
.edge:hover polygon { stroke: red; fill: red; }
]]></style>
<script type="text/javascript"><![CDATA[
var edges = document.getElementsByTagName('g');
if (edges && edges.length) {
  for (var i=0;i<edges.length;i++) {
    if (edges[i].id.substr(0,4)=='edge') {
      edges[i].setAttribute('class','edge');
    }
  }
}
]]></script>
        <defs>
                <circle id="rim" cx="0" cy="0" r="7"/>
                <circle id="rim2" cx="0" cy="0" r="3.5"/>
                <g id="zoomPlus">
                        <use xlink:href="#rim" fill="#404040">
                                <set attributeName="fill" to="#808080" begin="zoomplus.mouseover" end="zoomplus.mouseout"/>
                        </use>
                        <path d="M-4,0h8M0,-4v8" fill="none" stroke="white" stroke-width="1.5" pointer-events="none"/>
                </g>
                <g id="zoomMin">
                        <use xlink:href="#rim" fill="#404040">
                                <set attributeName="fill" to="#808080" begin="zoomminus.mouseover" end="zoomminus.mouseout"/>
                        </use>
                        <path d="M-4,0h8" fill="none" stroke="white" stroke-width="1.5" pointer-events="none"/>
                </g>
                <g id="dirArrow">
                        <path fill="none" stroke="white" stroke-width="1.5" d="M0,-3.0v7 M-2.5,-0.5L0,-3.0L2.5,-0.5"/>
                </g>
               <g id="resetDef">
                       <use xlink:href="#rim2" fill="#404040">
                               <set attributeName="fill" to="#808080" begin="reset.mouseover" end="reset.mouseout"/>
                       </use>
               </g>
        </defs>

<script type="text/javascript">
var viewWidth = 335;
var viewHeight = 745;
var sectionId = 'dynsection-1';
</script>
<script xlink:href="../../svgpan.js"/>
<svg id="graph" class="graph">
<g id="viewport">
<title>TabularSpline</title>
<polygon fill="white" stroke="transparent" points="-4,4 -4,-741 330.5,-741 330.5,4 -4,4"/>
<!-- Node1 -->
<g id="node1" class="node">
<title>Node1</title>
<g id="a_node1"><a xlink:title="A TabularSpline class that can generate Amplitude pattern.">
<polygon fill="#bfbfbf" stroke="black" points="145,-0.5 145,-108.5 276,-108.5 276,-0.5 145,-0.5"/>
<text text-anchor="middle" x="210.5" y="-95.7" font-family="Consolas" font-size="11.00">TabularSpline</text>
<polyline fill="none" stroke="black" points="145,-88.5 276,-88.5 "/>
<text text-anchor="middle" x="210.5" y="-75.7" font-family="Consolas" font-size="11.00"> </text>
<polyline fill="none" stroke="black" points="145,-68.5 276,-68.5 "/>
<text text-anchor="start" x="153" y="-55.7" font-family="Consolas" font-size="11.00">+ initialize()</text>
<text text-anchor="start" x="153" y="-43.7" font-family="Consolas" font-size="11.00">+ get_amplitude()</text>
<text text-anchor="start" x="153" y="-31.7" font-family="Consolas" font-size="11.00">+ print()</text>
<text text-anchor="start" x="153" y="-19.7" font-family="Consolas" font-size="11.00">+ Tabular()</text>
<text text-anchor="start" x="153" y="-7.7" font-family="Consolas" font-size="11.00">+ Tabular()</text>
</a>
</g>
</g>
<!-- Node2 -->
<g id="node2" class="node">
<title>Node2</title>
<g id="a_node2"><a xlink:href="../../d0/d22/class_tabular.html" target="_top" xlink:title="A Tabular class that can generate Amplitude pattern.">
<polygon fill="white" stroke="black" points="145,-146.5 145,-254.5 276,-254.5 276,-146.5 145,-146.5"/>
<text text-anchor="middle" x="210.5" y="-241.7" font-family="Consolas" font-size="11.00">Tabular</text>
<polyline fill="none" stroke="black" points="145,-234.5 276,-234.5 "/>
<text text-anchor="middle" x="210.5" y="-221.7" font-family="Consolas" font-size="11.00"> </text>
<polyline fill="none" stroke="black" points="145,-214.5 276,-214.5 "/>
<text text-anchor="start" x="153" y="-201.7" font-family="Consolas" font-size="11.00">+ Tabular()</text>
<text text-anchor="start" x="153" y="-189.7" font-family="Consolas" font-size="11.00">+ Tabular()</text>
<text text-anchor="start" x="153" y="-177.7" font-family="Consolas" font-size="11.00">+ initialize()</text>
<text text-anchor="start" x="153" y="-165.7" font-family="Consolas" font-size="11.00">+ get_amplitude()</text>
<text text-anchor="start" x="153" y="-153.7" font-family="Consolas" font-size="11.00">+ print()</text>
</a>
</g>
</g>
<!-- Node2&#45;&gt;Node1 -->
<g id="edge1" class="edge">
<title>Node2&#45;&gt;Node1</title>
<path fill="none" stroke="midnightblue" d="M210.5,-136.16C210.5,-127.09 210.5,-117.83 210.5,-108.97"/>
<polygon fill="none" stroke="midnightblue" points="207,-136.29 210.5,-146.29 214,-136.29 207,-136.29"/>
</g>
<!-- Node3 -->
<g id="node3" class="node">
<title>Node3</title>
<g id="a_node3"><a xlink:href="../../de/d90/class_amplitude.html" target="_top" xlink:title="An Amplitude class that can generate Amplitude pattern.">
<polygon fill="white" stroke="black" points="88.5,-315.5 88.5,-459.5 226.5,-459.5 226.5,-315.5 88.5,-315.5"/>
<text text-anchor="middle" x="157.5" y="-446.7" font-family="Consolas" font-size="11.00">Amplitude</text>
<polyline fill="none" stroke="black" points="88.5,-439.5 226.5,-439.5 "/>
<text text-anchor="middle" x="157.5" y="-426.7" font-family="Consolas" font-size="11.00"> </text>
<polyline fill="none" stroke="black" points="88.5,-419.5 226.5,-419.5 "/>
<text text-anchor="start" x="96.5" y="-406.7" font-family="Consolas" font-size="11.00">+ Amplitude()</text>
<text text-anchor="start" x="96.5" y="-394.7" font-family="Consolas" font-size="11.00">+ ~Amplitude()</text>
<text text-anchor="start" x="96.5" y="-382.7" font-family="Consolas" font-size="11.00">+ initialize()</text>
<text text-anchor="start" x="96.5" y="-370.7" font-family="Consolas" font-size="11.00">+ get_amplitude()</text>
<text text-anchor="start" x="96.5" y="-358.7" font-family="Consolas" font-size="11.00">+ set_start_step()</text>
<text text-anchor="start" x="96.5" y="-346.7" font-family="Consolas" font-size="11.00">+ get_start_step()</text>
<text text-anchor="start" x="96.5" y="-334.7" font-family="Consolas" font-size="11.00">+ set_start_time()</text>
<text text-anchor="start" x="96.5" y="-322.7" font-family="Consolas" font-size="11.00">+ set_start_time()</text>
</a>
</g>
</g>
<!-- Node3&#45;&gt;Node2 -->
<g id="edge2" class="edge">
<title>Node3&#45;&gt;Node2</title>
<path fill="none" stroke="midnightblue" d="M180.78,-305.22C185.7,-288.08 190.76,-270.41 195.28,-254.62"/>
<polygon fill="none" stroke="midnightblue" points="177.3,-304.66 177.92,-315.24 184.03,-306.59 177.3,-304.66"/>
</g>
<!-- Node4 -->
<g id="node4" class="node">
<title>Node4</title>
<g id="a_node4"><a xlink:href="../../d0/d57/class_tag.html" target="_top" xlink:title="A base Tag class.">
<polygon fill="white" stroke="black" points="0,-508.5 0,-736.5 111,-736.5 111,-508.5 0,-508.5"/>
<text text-anchor="middle" x="55.5" y="-723.7" font-family="Consolas" font-size="11.00">Tag</text>
<polyline fill="none" stroke="black" points="0,-716.5 111,-716.5 "/>
<text text-anchor="middle" x="55.5" y="-703.7" font-family="Consolas" font-size="11.00"> </text>
<polyline fill="none" stroke="black" points="0,-696.5 111,-696.5 "/>
<text text-anchor="start" x="8" y="-683.7" font-family="Consolas" font-size="11.00">+ Tag()</text>
<text text-anchor="start" x="8" y="-671.7" font-family="Consolas" font-size="11.00">+ Tag()</text>
<text text-anchor="start" x="8" y="-659.7" font-family="Consolas" font-size="11.00">+ Tag()</text>
<text text-anchor="start" x="8" y="-647.7" font-family="Consolas" font-size="11.00">+ operator=()</text>
<text text-anchor="start" x="8" y="-635.7" font-family="Consolas" font-size="11.00">+ operator=()</text>
<text text-anchor="start" x="8" y="-623.7" font-family="Consolas" font-size="11.00">+ ~Tag()</text>
<text text-anchor="start" x="8" y="-611.7" font-family="Consolas" font-size="11.00">+ set_tag()</text>
<text text-anchor="start" x="8" y="-599.7" font-family="Consolas" font-size="11.00">+ get_tag()</text>
<text text-anchor="start" x="8" y="-587.7" font-family="Consolas" font-size="11.00">+ enable()</text>
<text text-anchor="start" x="8" y="-575.7" font-family="Consolas" font-size="11.00">+ disable()</text>
<text text-anchor="start" x="8" y="-563.7" font-family="Consolas" font-size="11.00">+ guard()</text>
<text text-anchor="start" x="8" y="-551.7" font-family="Consolas" font-size="11.00">+ unguard()</text>
<text text-anchor="start" x="8" y="-539.7" font-family="Consolas" font-size="11.00">+ is_active()</text>
<text text-anchor="start" x="8" y="-527.7" font-family="Consolas" font-size="11.00">+ is_guarded()</text>
<text text-anchor="start" x="8" y="-515.7" font-family="Consolas" font-size="11.00">+ print()</text>
</a>
</g>
</g>
<!-- Node4&#45;&gt;Node3 -->
<g id="edge3" class="edge">
<title>Node4&#45;&gt;Node3</title>
<path fill="none" stroke="midnightblue" d="M109.09,-499.09C114.98,-485.62 120.83,-472.27 126.31,-459.74"/>
<polygon fill="none" stroke="midnightblue" points="105.81,-497.85 105.01,-508.41 112.22,-500.66 105.81,-497.85"/>
</g>
<!-- Node5 -->
<g id="node5" class="node">
<title>Node5</title>
<g id="a_node5"><a xlink:title=" ">
<polygon fill="white" stroke="#bfbfbf" points="129,-592.5 129,-652.5 186,-652.5 186,-592.5 129,-592.5"/>
<text text-anchor="middle" x="157.5" y="-639.7" font-family="Consolas" font-size="11.00">double</text>
<polyline fill="none" stroke="#bfbfbf" points="129,-632.5 186,-632.5 "/>
<text text-anchor="middle" x="157.5" y="-619.7" font-family="Consolas" font-size="11.00"> </text>
<polyline fill="none" stroke="#bfbfbf" points="129,-612.5 186,-612.5 "/>
<text text-anchor="middle" x="157.5" y="-599.7" font-family="Consolas" font-size="11.00"> </text>
</a>
</g>
</g>
<!-- Node5&#45;&gt;Node3 -->
<g id="edge4" class="edge">
<title>Node5&#45;&gt;Node3</title>
<path fill="none" stroke="#404040" d="M157.5,-592.46C157.5,-562.37 157.5,-513.94 157.5,-471.82"/>
<polygon fill="none" stroke="#404040" points="157.5,-471.55 153.5,-465.55 157.5,-459.55 161.5,-465.55 157.5,-471.55"/>
<text text-anchor="middle" x="198.5" y="-481.2" font-family="Consolas" font-size="11.00"> #start_time</text>
</g>
<!-- Node6 -->
<g id="node6" class="node">
<title>Node6</title>
<g id="a_node6"><a xlink:title=" ">
<polygon fill="white" stroke="#bfbfbf" points="227,-592.5 227,-652.5 298,-652.5 298,-592.5 227,-592.5"/>
<text text-anchor="middle" x="262.5" y="-639.7" font-family="Consolas" font-size="11.00">unsigned</text>
<polyline fill="none" stroke="#bfbfbf" points="227,-632.5 298,-632.5 "/>
<text text-anchor="middle" x="262.5" y="-619.7" font-family="Consolas" font-size="11.00"> </text>
<polyline fill="none" stroke="#bfbfbf" points="227,-612.5 298,-612.5 "/>
<text text-anchor="middle" x="262.5" y="-599.7" font-family="Consolas" font-size="11.00"> </text>
</a>
</g>
</g>
<!-- Node6&#45;&gt;Node3 -->
<g id="edge5" class="edge">
<title>Node6&#45;&gt;Node3</title>
<path fill="none" stroke="#404040" d="M262.96,-592.26C262.33,-562.17 258.2,-514.65 240.5,-478 238.41,-473.67 236.04,-469.4 233.45,-465.22"/>
<polygon fill="none" stroke="#404040" points="233.29,-464.99 226.63,-462.24 226.61,-455.03 233.27,-457.78 233.29,-464.99"/>
<text text-anchor="middle" x="285.5" y="-481.2" font-family="Consolas" font-size="11.00"> #start_step</text>
</g>
<!-- Node7 -->
<g id="node7" class="node">
<title>Node7</title>
<g id="a_node7"><a xlink:title=" ">
<polygon fill="white" stroke="#bfbfbf" points="245,-357.5 245,-417.5 282,-417.5 282,-357.5 245,-357.5"/>
<text text-anchor="middle" x="263.5" y="-404.7" font-family="Consolas" font-size="11.00">vec</text>
<polyline fill="none" stroke="#bfbfbf" points="245,-397.5 282,-397.5 "/>
<text text-anchor="middle" x="263.5" y="-384.7" font-family="Consolas" font-size="11.00"> </text>
<polyline fill="none" stroke="#bfbfbf" points="245,-377.5 282,-377.5 "/>
<text text-anchor="middle" x="263.5" y="-364.7" font-family="Consolas" font-size="11.00"> </text>
</a>
</g>
</g>
<!-- Node7&#45;&gt;Node2 -->
<g id="edge6" class="edge">
<title>Node7&#45;&gt;Node2</title>
<path fill="none" stroke="#404040" d="M255.1,-357.19C248.11,-332.79 237.91,-297.17 229.02,-266.16"/>
<polygon fill="none" stroke="#404040" points="229,-266.06 223.5,-261.4 225.69,-254.53 231.19,-259.19 229,-266.06"/>
<text text-anchor="middle" x="274" y="-288.2" font-family="Consolas" font-size="11.00"> #magnitude</text>
<text text-anchor="middle" x="274" y="-276.2" font-family="Consolas" font-size="11.00">#time</text>
</g>
</g>
</svg>
        <g id="navigator" transform="translate(0 0)" fill="#404254">
                <rect fill="#f2f5e9" fill-opacity="0.5" stroke="#606060" stroke-width=".5" x="0" y="0" width="60" height="60"/>
                <use id="zoomplus" xlink:href="#zoomPlus" x="17" y="9" onmousedown="handleZoom(evt,'in')"/>
                <use id="zoomminus" xlink:href="#zoomMin" x="42" y="9" onmousedown="handleZoom(evt,'out')"/>
                <use id="reset" xlink:href="#resetDef" x="30" y="36" onmousedown="handleReset()"/>
                <g id="arrowUp" xlink:href="#dirArrow" transform="translate(30 24)" onmousedown="handlePan(0,-1)">
                  <use xlink:href="#rim" fill="#404040">
                        <set attributeName="fill" to="#808080" begin="arrowUp.mouseover" end="arrowUp.mouseout"/>
                  </use>
                  <path fill="none" stroke="white" stroke-width="1.5" d="M0,-3.0v7 M-2.5,-0.5L0,-3.0L2.5,-0.5"/>
                </g>
                <g id="arrowRight" xlink:href="#dirArrow" transform="rotate(90) translate(36 -43)" onmousedown="handlePan(1,0)">
                  <use xlink:href="#rim" fill="#404040">
                        <set attributeName="fill" to="#808080" begin="arrowRight.mouseover" end="arrowRight.mouseout"/>
                  </use>
                  <path fill="none" stroke="white" stroke-width="1.5" d="M0,-3.0v7 M-2.5,-0.5L0,-3.0L2.5,-0.5"/>
                </g>
                <g id="arrowDown" xlink:href="#dirArrow" transform="rotate(180) translate(-30 -48)" onmousedown="handlePan(0,1)">
                  <use xlink:href="#rim" fill="#404040">
                        <set attributeName="fill" to="#808080" begin="arrowDown.mouseover" end="arrowDown.mouseout"/>
                  </use>
                  <path fill="none" stroke="white" stroke-width="1.5" d="M0,-3.0v7 M-2.5,-0.5L0,-3.0L2.5,-0.5"/>
                </g>
                <g id="arrowLeft" xlink:href="#dirArrow" transform="rotate(270) translate(-36 17)" onmousedown="handlePan(-1,0)">
                  <use xlink:href="#rim" fill="#404040">
                        <set attributeName="fill" to="#808080" begin="arrowLeft.mouseover" end="arrowLeft.mouseout"/>
                  </use>
                  <path fill="none" stroke="white" stroke-width="1.5" d="M0,-3.0v7 M-2.5,-0.5L0,-3.0L2.5,-0.5"/>
                </g>
        </g>
        <svg viewBox="0 0 15 15" width="100%" height="30px" preserveAspectRatio="xMaxYMin meet">
         <g id="arrow_out" transform="scale(0.3 0.3)">
          <a xlink:href="class_tabular_spline__coll__graph_org.svg" target="_base">
           <rect id="button" ry="5" rx="5" y="6" x="6" height="38" width="38"
                fill="#f2f5e9" fill-opacity="0.5" stroke="#606060" stroke-width="1.0"/>
           <path id="arrow"
             d="M 11.500037,31.436501 C 11.940474,20.09759 22.043105,11.32322 32.158766,21.979434 L 37.068811,17.246167 C 37.068811,17.246167 37.088388,32 37.088388,32 L 22.160133,31.978069 C 22.160133,31.978069 26.997745,27.140456 26.997745,27.140456 C 18.528582,18.264221 13.291696,25.230495 11.500037,31.436501 z"
             style="fill:#404040;"/>
          </a>
         </g>
        </svg>
</svg>
