<?xml version="1.0" encoding="UTF-8" standalone="no"?>
<!DOCTYPE svg PUBLIC "-//W3C//DTD SVG 1.1//EN"
 "http://www.w3.org/Graphics/SVG/1.1/DTD/svg11.dtd">
<!-- Generated by graphviz version 2.43.0 (0)
 -->
<!-- Title: Oscillator&lt; T &gt; Pages: 1 -->
<svg width="203pt" height="92pt"
 viewBox="0.00 0.00 203.00 92.00" xmlns="http://www.w3.org/2000/svg" xmlns:xlink="http://www.w3.org/1999/xlink">
<g id="graph0" class="graph" transform="scale(1 1) rotate(0) translate(4 88)">
<title>Oscillator&lt; T &gt;</title>
<!-- Node1 -->
<g id="Node000001" class="node">
<title>Node1</title>
<g id="a_Node000001"><a xlink:title=" ">
<polygon fill="#999999" stroke="transparent" points="195,-84 0,-84 0,0 195,0 195,-84"/>
<text text-anchor="start" x="47" y="-71.2" font-family="Consolas" font-size="11.00">Oscillator&lt; T &gt;</text>
<text text-anchor="start" x="94.5" y="-55.2" font-family="Consolas" font-size="11.00"> </text>
<text text-anchor="start" x="4.5" y="-39.2" font-family="Consolas" font-size="11.00">+</text>
<text text-anchor="start" x="15.5" y="-39.2" font-family="Consolas" font-size="11.00">Oscillator()</text>
<text text-anchor="start" x="4.5" y="-23.2" font-family="Consolas" font-size="11.00">+</text>
<text text-anchor="start" x="15.5" y="-23.2" font-family="Consolas" font-size="11.00">compute_response()</text>
<text text-anchor="start" x="4.5" y="-7.2" font-family="Consolas" font-size="11.00">+</text>
<text text-anchor="start" x="15.5" y="-7.2" font-family="Consolas" font-size="11.00">compute_maximum_response()</text>
<polygon fill="#666666" stroke="#666666" points="0.5,-66 0.5,-66 195.5,-66 195.5,-66 0.5,-66"/>
<polygon fill="#666666" stroke="#666666" points="0.5,-50 0.5,-50 195.5,-50 195.5,-50 0.5,-50"/>
<polygon fill="none" stroke="#666666" points="0,0 0,-84 195,-84 195,0 0,0"/>
</a>
</g>
</g>
</g>
</svg>
