<?xml version="1.0" encoding="UTF-8" standalone="no"?>
<!DOCTYPE svg PUBLIC "-//W3C//DTD SVG 1.1//EN"
 "http://www.w3.org/Graphics/SVG/1.1/DTD/svg11.dtd">
<!-- Generated by graphviz version 9.0.0 (20230911.1827)
 -->
<!-- Title: Toolbox/sync_ostream.h Pages: 1 -->
<svg width="156pt" height="87pt"
 viewBox="0.00 0.00 156.00 87.00" xmlns="http://www.w3.org/2000/svg" xmlns:xlink="http://www.w3.org/1999/xlink">
<g id="graph0" class="graph" transform="scale(1 1) rotate(0) translate(4 83)">
<title>Toolbox/sync_ostream.h</title>
<!-- Node1 -->
<g id="Node000001" class="node">
<title>Node1</title>
<g id="a_Node000001"><a xlink:title=" ">
<polygon fill="#999999" stroke="#666666" points="148,-79 0,-79 0,-57.5 148,-57.5 148,-79"/>
<text text-anchor="middle" x="74" y="-64.55" font-family="Consolas" font-size="11.00">Toolbox/sync_ostream.h</text>
</a>
</g>
</g>
<!-- Node2 -->
<g id="Node000002" class="node">
<title>Node2</title>
<g id="a_Node000002"><a xlink:title=" ">
<polygon fill="#e0e0e0" stroke="#999999" points="62,-21.5 16,-21.5 16,0 62,0 62,-21.5"/>
<text text-anchor="middle" x="39" y="-7.05" font-family="Consolas" font-size="11.00">mutex</text>
</a>
</g>
</g>
<!-- Node1&#45;&gt;Node2 -->
<g id="edge1_Node000001_Node000002" class="edge">
<title>Node1&#45;&gt;Node2</title>
<g id="a_edge1_Node000001_Node000002"><a xlink:title=" ">
<path fill="none" stroke="#63b8ff" d="M67.58,-57.07C63.09,-49.95 56.95,-40.21 51.51,-31.58"/>
<polygon fill="#63b8ff" stroke="#63b8ff" points="54.48,-29.74 46.19,-23.15 48.56,-33.47 54.48,-29.74"/>
</a>
</g>
</g>
<!-- Node3 -->
<g id="Node000003" class="node">
<title>Node3</title>
<g id="a_Node000003"><a xlink:title=" ">
<polygon fill="#e0e0e0" stroke="#999999" points="138,-21.5 80,-21.5 80,0 138,0 138,-21.5"/>
<text text-anchor="middle" x="109" y="-7.05" font-family="Consolas" font-size="11.00">ostream</text>
</a>
</g>
</g>
<!-- Node1&#45;&gt;Node3 -->
<g id="edge2_Node000001_Node000003" class="edge">
<title>Node1&#45;&gt;Node3</title>
<g id="a_edge2_Node000001_Node000003"><a xlink:title=" ">
<path fill="none" stroke="#63b8ff" d="M80.42,-57.07C84.91,-49.95 91.05,-40.21 96.49,-31.58"/>
<polygon fill="#63b8ff" stroke="#63b8ff" points="99.44,-33.47 101.81,-23.15 93.52,-29.74 99.44,-33.47"/>
</a>
</g>
</g>
</g>
</svg>
