<?xml version="1.0" encoding="UTF-8" standalone="no"?>
<!DOCTYPE svg PUBLIC "-//W3C//DTD SVG 1.1//EN"
 "http://www.w3.org/Graphics/SVG/1.1/DTD/svg11.dtd">
<!-- Generated by graphviz version 8.1.0 (20230707.0739)
 -->
<!-- Title: DataMises1D Pages: 1 -->
<!--zoomable 364 -->

<svg id="main" version="1.1" xmlns="http://www.w3.org/2000/svg" xmlns:xlink="http://www.w3.org/1999/xlink" xml:space="preserve" onload="init(evt)">
<style type="text/css"><![CDATA[
.node, .edge {opacity: 0.7;}
.node.selected, .edge.selected {opacity: 1;}
.edge:hover path { stroke: red; }
.edge:hover polygon { stroke: red; fill: red; }
]]></style>

<defs>
  <circle id="rim" cx="0" cy="0" r="7"/>
  <circle id="rim2" cx="0" cy="0" r="3.5"/>
  <g id="zoomPlus">
    <use xlink:href="#rim" fill="#404040"><set attributeName="fill" to="#808080" begin="zoomplus.mouseover" end="zoomplus.mouseout"/></use>
    <path d="M-4,0h8M0,-4v8" fill="none" stroke="white" stroke-width="1.5" pointer-events="none"/>
  </g>
  <g id="zoomMin">
    <use xlink:href="#rim" fill="#404040"><set attributeName="fill" to="#808080" begin="zoomminus.mouseover" end="zoomminus.mouseout"/></use>
    <path d="M-4,0h8" fill="none" stroke="white" stroke-width="1.5" pointer-events="none"/>
  </g>
  <g id="arrowUp" transform="translate(30 24)">
    <use xlink:href="#rim"/>
    <path pointer-events="none" fill="none" stroke="white" stroke-width="1.5" d="M0,-3.0v7 M-2.5,-0.5L0,-3.0L2.5,-0.5"/>
  </g>
  <g id="arrowRight" transform="rotate(90) translate(36 -43)">
    <use xlink:href="#rim"/>
    <path pointer-events="none" fill="none" stroke="white" stroke-width="1.5" d="M0,-3.0v7 M-2.5,-0.5L0,-3.0L2.5,-0.5"/>
  </g>
  <g id="arrowDown" transform="rotate(180) translate(-30 -48)">
    <use xlink:href="#rim"/>
    <path pointer-events="none" fill="none" stroke="white" stroke-width="1.5" d="M0,-3.0v7 M-2.5,-0.5L0,-3.0L2.5,-0.5"/>
  </g>
  <g id="arrowLeft" transform="rotate(270) translate(-36 17)">
    <use xlink:href="#rim"/>
    <path pointer-events="none" fill="none" stroke="white" stroke-width="1.5" d="M0,-3.0v7 M-2.5,-0.5L0,-3.0L2.5,-0.5"/>
  </g>
  <g id="resetDef">
    <use xlink:href="#rim2" fill="#404040"><set attributeName="fill" to="#808080" begin="reset.mouseover" end="reset.mouseout"/></use>
  </g>
</defs>
<script type="application/ecmascript">
var viewWidth = 518;
var viewHeight = 364;
var sectionId = 'dynsection-0';
</script>
<script type="application/ecmascript" xlink:href="../../svg.min.js"/>
<svg id="graph" class="graph">
<g id="viewport">
<title>DataMises1D</title>
<!-- Node1 -->
<g id="Node000001" class="node">
<title>Node1</title>
<g id="a_Node000001"><a xlink:title=" ">
<polygon fill="#999999" stroke="none" points="304,-356 196,-356 196,-301 304,-301 304,-356"/>
<text text-anchor="start" x="217" y="-341.55" font-family="Consolas" font-size="11.00">DataMises1D</text>
<text text-anchor="start" x="200" y="-324.55" font-family="Consolas" font-size="11.00">+</text>
<text text-anchor="start" x="210" y="-324.55" font-family="Consolas" font-size="11.00">elastic_modulus</text>
<text text-anchor="start" x="247" y="-307.55" font-family="Consolas" font-size="11.00"> </text>
<polygon fill="#666666" stroke="#666666" points="196,-337 196,-337 304,-337 304,-337 196,-337"/>
<polygon fill="#666666" stroke="#666666" points="196,-320 196,-320 208,-320 208,-320 196,-320"/>
<polygon fill="#666666" stroke="#666666" points="208,-320 208,-320 304,-320 304,-320 208,-320"/>
<polygon fill="none" stroke="#666666" points="196,-301 196,-356 304,-356 304,-301 196,-301"/>
</a>
</g>
</g>
<!-- Node2 -->
<g id="Node000002" class="node">
<title>Node2</title>
<g id="a_Node000002"><a xlink:href="../../db/d14/class_nonlinear_mises1_d.html" target="_top" xlink:title="A NonlinearMises1D material class.">
<polygon fill="white" stroke="none" points="322,-265 178,-265 178,-125 322,-125 322,-265"/>
<text text-anchor="start" x="202" y="-250.55" font-family="Consolas" font-size="11.00">NonlinearMises1D</text>
<text text-anchor="start" x="247" y="-233.55" font-family="Consolas" font-size="11.00"> </text>
<text text-anchor="start" x="182" y="-216.55" font-family="Consolas" font-size="11.00">+</text>
<text text-anchor="start" x="192" y="-216.55" font-family="Consolas" font-size="11.00">NonlinearMises1D()</text>
<text text-anchor="start" x="182" y="-199.55" font-family="Consolas" font-size="11.00">+</text>
<text text-anchor="start" x="192" y="-199.55" font-family="Consolas" font-size="11.00">initialize()</text>
<text text-anchor="start" x="182" y="-182.55" font-family="Consolas" font-size="11.00">+</text>
<text text-anchor="start" x="192" y="-182.55" font-family="Consolas" font-size="11.00">update_trial_status()</text>
<text text-anchor="start" x="182" y="-165.55" font-family="Consolas" font-size="11.00">+</text>
<text text-anchor="start" x="192" y="-165.55" font-family="Consolas" font-size="11.00">clear_status()</text>
<text text-anchor="start" x="182" y="-148.55" font-family="Consolas" font-size="11.00">+</text>
<text text-anchor="start" x="192" y="-148.55" font-family="Consolas" font-size="11.00">commit_status()</text>
<text text-anchor="start" x="182" y="-131.55" font-family="Consolas" font-size="11.00">+</text>
<text text-anchor="start" x="192" y="-131.55" font-family="Consolas" font-size="11.00">reset_status()</text>
<polygon fill="#666666" stroke="#666666" points="178,-246 178,-246 322,-246 322,-246 178,-246"/>
<polygon fill="#666666" stroke="#666666" points="178,-229 178,-229 322,-229 322,-229 178,-229"/>
<polygon fill="none" stroke="#666666" points="178,-125 178,-265 322,-265 322,-125 178,-125"/>
</a>
</g>
</g>
<!-- Node1&#45;&gt;Node2 -->
<g id="edge1_Node000001_Node000002" class="edge">
<title>Node1&#45;&gt;Node2</title>
<g id="a_edge1_Node000001_Node000002"><a xlink:title=" ">
<path fill="none" stroke="darkgreen" d="M250,-290.37C250,-282.33 250,-273.57 250,-264.74"/>
<polygon fill="none" stroke="darkgreen" points="246.5,-290.21 250,-300.21 253.5,-290.21 246.5,-290.21"/>
</a>
</g>
</g>
<!-- Node3 -->
<g id="Node000003" class="node">
<title>Node3</title>
<g id="a_Node000003"><a xlink:href="../../d8/dfd/class_bilinear_mises1_d.html" target="_top" xlink:title="A BilinearMises1D material class.">
<polygon fill="white" stroke="none" points="120,-80.5 0,-80.5 0,-8.5 120,-8.5 120,-80.5"/>
<text text-anchor="start" x="15" y="-66.05" font-family="Consolas" font-size="11.00">BilinearMises1D</text>
<text text-anchor="start" x="57" y="-49.05" font-family="Consolas" font-size="11.00"> </text>
<text text-anchor="start" x="4" y="-32.05" font-family="Consolas" font-size="11.00">+</text>
<text text-anchor="start" x="14" y="-32.05" font-family="Consolas" font-size="11.00">BilinearMises1D()</text>
<text text-anchor="start" x="4" y="-15.05" font-family="Consolas" font-size="11.00">+</text>
<text text-anchor="start" x="14" y="-15.05" font-family="Consolas" font-size="11.00">get_copy()</text>
<polygon fill="#666666" stroke="#666666" points="0,-61.5 0,-61.5 120,-61.5 120,-61.5 0,-61.5"/>
<polygon fill="#666666" stroke="#666666" points="0,-44.5 0,-44.5 120,-44.5 120,-44.5 0,-44.5"/>
<polygon fill="none" stroke="#666666" points="0,-8.5 0,-80.5 120,-80.5 120,-8.5 0,-8.5"/>
</a>
</g>
</g>
<!-- Node2&#45;&gt;Node3 -->
<g id="edge2_Node000002_Node000003" class="edge">
<title>Node2&#45;&gt;Node3</title>
<g id="a_edge2_Node000002_Node000003"><a xlink:title=" ">
<path fill="none" stroke="#63b8ff" d="M169.7,-131.24C147.44,-113.84 124.07,-95.58 104.65,-80.4"/>
<polygon fill="none" stroke="#63b8ff" points="167.13,-134.46 177.17,-137.86 171.45,-128.94 167.13,-134.46"/>
</a>
</g>
</g>
<!-- Node4 -->
<g id="Node000004" class="node">
<title>Node4</title>
<g id="a_Node000004"><a xlink:href="../../dd/dd2/class_custom_mises1_d.html" target="_top" xlink:title="A CustomMises1D material class.">
<polygon fill="white" stroke="none" points="246,-89 138,-89 138,0 246,0 246,-89"/>
<text text-anchor="start" x="153" y="-74.55" font-family="Consolas" font-size="11.00">CustomMises1D</text>
<text text-anchor="start" x="189" y="-57.55" font-family="Consolas" font-size="11.00"> </text>
<text text-anchor="start" x="142" y="-40.55" font-family="Consolas" font-size="11.00">+</text>
<text text-anchor="start" x="152" y="-40.55" font-family="Consolas" font-size="11.00">CustomMises1D()</text>
<text text-anchor="start" x="142" y="-23.55" font-family="Consolas" font-size="11.00">+</text>
<text text-anchor="start" x="152" y="-23.55" font-family="Consolas" font-size="11.00">initialize()</text>
<text text-anchor="start" x="142" y="-6.55" font-family="Consolas" font-size="11.00">+</text>
<text text-anchor="start" x="152" y="-6.55" font-family="Consolas" font-size="11.00">get_copy()</text>
<polygon fill="#666666" stroke="#666666" points="138,-70 138,-70 246,-70 246,-70 138,-70"/>
<polygon fill="#666666" stroke="#666666" points="138,-53 138,-53 246,-53 246,-53 138,-53"/>
<polygon fill="none" stroke="#666666" points="138,0 138,-89 246,-89 246,0 138,0"/>
</a>
</g>
</g>
<!-- Node2&#45;&gt;Node4 -->
<g id="edge3_Node000002_Node000004" class="edge">
<title>Node2&#45;&gt;Node4</title>
<g id="a_edge3_Node000002_Node000004"><a xlink:title=" ">
<path fill="none" stroke="#63b8ff" d="M219.21,-115.16C215.67,-106.09 212.16,-97.12 208.91,-88.79"/>
<polygon fill="none" stroke="#63b8ff" points="216.31,-116.36 223.21,-124.4 222.83,-113.81 216.31,-116.36"/>
</a>
</g>
</g>
<!-- Node5 -->
<g id="Node000005" class="node">
<title>Node5</title>
<g id="a_Node000005"><a xlink:href="../../d0/d1f/class_exp_mises1_d.html" target="_top" xlink:title="A ExpMises1D material class.">
<polygon fill="white" stroke="none" points="354,-80.5 264,-80.5 264,-8.5 354,-8.5 354,-80.5"/>
<text text-anchor="start" x="279" y="-66.05" font-family="Consolas" font-size="11.00">ExpMises1D</text>
<text text-anchor="start" x="306" y="-49.05" font-family="Consolas" font-size="11.00"> </text>
<text text-anchor="start" x="268" y="-32.05" font-family="Consolas" font-size="11.00">+</text>
<text text-anchor="start" x="278" y="-32.05" font-family="Consolas" font-size="11.00">ExpMises1D()</text>
<text text-anchor="start" x="268" y="-15.05" font-family="Consolas" font-size="11.00">+</text>
<text text-anchor="start" x="278" y="-15.05" font-family="Consolas" font-size="11.00">get_copy()</text>
<polygon fill="#666666" stroke="#666666" points="264,-61.5 264,-61.5 354,-61.5 354,-61.5 264,-61.5"/>
<polygon fill="#666666" stroke="#666666" points="264,-44.5 264,-44.5 354,-44.5 354,-44.5 264,-44.5"/>
<polygon fill="none" stroke="#666666" points="264,-8.5 264,-80.5 354,-80.5 354,-8.5 264,-8.5"/>
</a>
</g>
</g>
<!-- Node2&#45;&gt;Node5 -->
<g id="edge4_Node000002_Node000005" class="edge">
<title>Node2&#45;&gt;Node5</title>
<g id="a_edge4_Node000002_Node000005"><a xlink:title=" ">
<path fill="none" stroke="#63b8ff" d="M281.2,-115.48C286.11,-103.11 290.96,-90.9 295.2,-80.23"/>
<polygon fill="none" stroke="#63b8ff" points="277.69,-113.82 277.25,-124.4 284.2,-116.4 277.69,-113.82"/>
</a>
</g>
</g>
<!-- Node6 -->
<g id="Node000006" class="node">
<title>Node6</title>
<g id="a_Node000006"><a xlink:href="../../d4/dae/class_multilinear_mises1_d.html" target="_top" xlink:title="A MultilinearMises1D material class.">
<polygon fill="white" stroke="none" points="510,-89 372,-89 372,0 510,0 510,-89"/>
<text text-anchor="start" x="387" y="-74.55" font-family="Consolas" font-size="11.00">MultilinearMises1D</text>
<text text-anchor="start" x="438" y="-57.55" font-family="Consolas" font-size="11.00"> </text>
<text text-anchor="start" x="376" y="-40.55" font-family="Consolas" font-size="11.00">+</text>
<text text-anchor="start" x="386" y="-40.55" font-family="Consolas" font-size="11.00">MultilinearMises1D()</text>
<text text-anchor="start" x="376" y="-23.55" font-family="Consolas" font-size="11.00">+</text>
<text text-anchor="start" x="386" y="-23.55" font-family="Consolas" font-size="11.00">get_copy()</text>
<text text-anchor="start" x="376" y="-6.55" font-family="Consolas" font-size="11.00">+</text>
<text text-anchor="start" x="386" y="-6.55" font-family="Consolas" font-size="11.00">print()</text>
<polygon fill="#666666" stroke="#666666" points="372,-70 372,-70 510,-70 510,-70 372,-70"/>
<polygon fill="#666666" stroke="#666666" points="372,-53 372,-53 510,-53 510,-53 372,-53"/>
<polygon fill="none" stroke="#666666" points="372,0 372,-89 510,-89 510,0 372,0"/>
</a>
</g>
</g>
<!-- Node2&#45;&gt;Node6 -->
<g id="edge5_Node000002_Node000006" class="edge">
<title>Node2&#45;&gt;Node6</title>
<g id="a_edge5_Node000002_Node000006"><a xlink:title=" ">
<path fill="none" stroke="#63b8ff" d="M330.35,-131.53C348.82,-117.17 368.05,-102.22 385.21,-88.88"/>
<polygon fill="none" stroke="#63b8ff" points="328.68,-129.17 322.94,-138.07 332.98,-134.7 328.68,-129.17"/>
</a>
</g>
</g>
</g>
</svg>

<g id="navigator" transform="translate(0 0)" fill="#404254">
  <rect fill="#f2f5e9" fill-opacity="0.5" stroke="#606060" stroke-width=".5" x="0" y="0" width="60" height="60"/>
  <use id="zoomplus" xlink:href="#zoomPlus" x="17" y="9" onmousedown="handleZoom(evt,'in')"/>
  <use id="zoomminus" xlink:href="#zoomMin" x="42" y="9" onmousedown="handleZoom(evt,'out')"/>
  <use id="reset" xlink:href="#resetDef" x="30" y="36" onmousedown="handleReset()"/>
   <use id="arrowup" xlink:href="#arrowUp" x="0" y="0" onmousedown="handlePan(0,-1)"/>
  <use id="arrowright" xlink:href="#arrowRight" x="0" y="0" onmousedown="handlePan(1,0)"/>
  <use id="arrowdown" xlink:href="#arrowDown" x="0" y="0" onmousedown="handlePan(0,1)"/>
  <use id="arrowleft" xlink:href="#arrowLeft" x="0" y="0" onmousedown="handlePan(-1,0)"/>
</g>
<svg viewBox="0 0 15 15" width="100%" height="30px" preserveAspectRatio="xMaxYMin meet">
 <g id="arrow_out" transform="scale(0.3 0.3)">
  <a xlink:href="struct_data_mises1_d__inherit__graph_org.svg" target="_base">
   <rect id="button" ry="5" rx="5" y="6" x="6" height="38" width="38"
        fill="#f2f5e9" fill-opacity="0.5" stroke="#606060" stroke-width="1.0"/>
   <path id="arrow"
     d="M 11.500037,31.436501 C 11.940474,20.09759 22.043105,11.32322 32.158766,21.979434 L 37.068811,17.246167 C 37.068811,17.246167 37.088388,32 37.088388,32 L 22.160133,31.978069 C 22.160133,31.978069 26.997745,27.140456 26.997745,27.140456 C 18.528582,18.264221 13.291696,25.230495 11.500037,31.436501 z"
     style="fill:#404040;"/>
  </a>
 </g>
</svg>

<style type='text/css'>
<![CDATA[
[data-mouse-over-selected='false'] { opacity: 0.7; }
[data-mouse-over-selected='true']  { opacity: 1.0; }
]]>
</style>
<script type="application/ecmascript"><![CDATA[
document.addEventListener('DOMContentLoaded', (event) => {
  highlightEdges();
  highlightAdjacentNodes();
});
]]></script>
</svg>
