<?xml version="1.0" encoding="UTF-8" standalone="no"?>
<!DOCTYPE svg PUBLIC "-//W3C//DTD SVG 1.1//EN"
 "http://www.w3.org/Graphics/SVG/1.1/DTD/svg11.dtd">
<!-- Generated by graphviz version 9.0.0 (20230911.1827)
 -->
<!-- Title: SparseSymmMatMUMPS::direct_solve Pages: 1 -->
<svg width="528pt" height="82pt"
 viewBox="0.00 0.00 528.00 82.25" xmlns="http://www.w3.org/2000/svg" xmlns:xlink="http://www.w3.org/1999/xlink">
<g id="graph0" class="graph" transform="scale(1 1) rotate(0) translate(4 78.25)">
<title>SparseSymmMatMUMPS::direct_solve</title>
<!-- Node1 -->
<g id="Node000001" class="node">
<title>Node1</title>
<g id="a_Node000001"><a xlink:title=" ">
<polygon fill="#999999" stroke="#666666" points="124,-51.25 0,-51.25 0,-16.25 124,-16.25 124,-51.25"/>
<text text-anchor="start" x="8" y="-36.8" font-family="Consolas" font-size="11.00">SparseSymmMatMUMPS</text>
<text text-anchor="middle" x="62" y="-23.3" font-family="Consolas" font-size="11.00">::direct_solve</text>
</a>
</g>
</g>
<!-- Node2 -->
<g id="Node000002" class="node">
<title>Node2</title>
<g id="a_Node000002"><a xlink:href="../../db/d72/class_sparse_mat_base_m_u_m_p_s.html#a8e17f564b397f5ee2fa6457ec05feecb" target="_top" xlink:title=" ">
<polygon fill="white" stroke="#666666" points="287,-74.25 163,-74.25 163,-39.25 287,-39.25 287,-74.25"/>
<text text-anchor="start" x="171" y="-59.8" font-family="Consolas" font-size="11.00">SparseMatBaseMUMPS</text>
<text text-anchor="middle" x="225" y="-46.3" font-family="Consolas" font-size="11.00">::direct_solve</text>
</a>
</g>
</g>
<!-- Node1&#45;&gt;Node2 -->
<g id="edge1_Node000001_Node000002" class="edge">
<title>Node1&#45;&gt;Node2</title>
<g id="a_edge1_Node000001_Node000002"><a xlink:title=" ">
<path fill="none" stroke="#63b8ff" d="M124.33,-42.51C133.14,-43.77 142.27,-45.07 151.28,-46.36"/>
<polygon fill="#63b8ff" stroke="#63b8ff" points="150.68,-49.81 161.08,-47.76 151.67,-42.88 150.68,-49.81"/>
</a>
</g>
</g>
<!-- Node4 -->
<g id="Node000004" class="node">
<title>Node4</title>
<g id="a_Node000004"><a xlink:href="../../db/d78/classtriplet__form.html#a5f3a67dae3b8aecf3454719fd02ab340" target="_top" xlink:title=" ">
<polygon fill="white" stroke="#666666" points="290,-21.5 160,-21.5 160,0 290,0 290,-21.5"/>
<text text-anchor="middle" x="225" y="-7.05" font-family="Consolas" font-size="11.00">triplet_form::lower</text>
</a>
</g>
</g>
<!-- Node1&#45;&gt;Node4 -->
<g id="edge3_Node000001_Node000004" class="edge">
<title>Node1&#45;&gt;Node4</title>
<g id="a_edge3_Node000001_Node000004"><a xlink:title=" ">
<path fill="none" stroke="#63b8ff" d="M124.33,-24.99C132.18,-23.87 140.29,-22.71 148.33,-21.56"/>
<polygon fill="#63b8ff" stroke="#63b8ff" points="148.73,-25.04 158.13,-20.16 147.74,-18.11 148.73,-25.04"/>
</a>
</g>
</g>
<!-- Node3 -->
<g id="Node000003" class="node">
<title>Node3</title>
<g id="a_Node000003"><a xlink:href="../../d8/d79/class_meta_mat.html#adda0ce3e86ab0593a1269f4b8e346d2c" target="_top" xlink:title=" ">
<polygon fill="white" stroke="#666666" points="450,-67.5 326,-67.5 326,-46 450,-46 450,-67.5"/>
<text text-anchor="middle" x="388" y="-53.05" font-family="Consolas" font-size="11.00">MetaMat::mixed_trs</text>
</a>
</g>
</g>
<!-- Node2&#45;&gt;Node3 -->
<g id="edge2_Node000002_Node000003" class="edge">
<title>Node2&#45;&gt;Node3</title>
<g id="a_edge2_Node000002_Node000003"><a xlink:title=" ">
<path fill="none" stroke="#63b8ff" d="M287.33,-56.75C296.14,-56.75 305.27,-56.75 314.28,-56.75"/>
<polygon fill="#63b8ff" stroke="#63b8ff" points="314.06,-60.25 324.06,-56.75 314.06,-53.25 314.06,-60.25"/>
</a>
</g>
</g>
<!-- Node5 -->
<g id="Node000005" class="node">
<title>Node5</title>
<g id="a_Node000005"><a xlink:href="../../d6/d9c/namespacesuanpan.html#adef8082401dbf9d86ce230ad2b9b618d" target="_top" xlink:title=" ">
<polygon fill="white" stroke="#666666" points="447,-21.5 329,-21.5 329,0 447,0 447,-21.5"/>
<text text-anchor="middle" x="388" y="-7.05" font-family="Consolas" font-size="11.00">suanpan::for_each</text>
</a>
</g>
</g>
<!-- Node4&#45;&gt;Node5 -->
<g id="edge4_Node000004_Node000005" class="edge">
<title>Node4&#45;&gt;Node5</title>
<g id="a_edge4_Node000004_Node000005"><a xlink:title=" ">
<path fill="none" stroke="#63b8ff" d="M290.09,-10.75C299.03,-10.75 308.26,-10.75 317.29,-10.75"/>
<polygon fill="#63b8ff" stroke="#63b8ff" points="317.09,-14.25 327.09,-10.75 317.09,-7.25 317.09,-14.25"/>
</a>
</g>
</g>
<!-- Node6 -->
<g id="Node000006" class="node">
<title>Node6</title>
<g id="a_Node000006"><a xlink:href="../../d4/d48/_storage_8hpp.html#a45bf90d3e5b89fc6c46f15cc58c1c60c" target="_top" xlink:title=" ">
<polygon fill="white" stroke="#666666" points="520,-21.5 486,-21.5 486,0 520,0 520,-21.5"/>
<text text-anchor="middle" x="503" y="-7.05" font-family="Consolas" font-size="11.00">end</text>
</a>
</g>
</g>
<!-- Node5&#45;&gt;Node6 -->
<g id="edge5_Node000005_Node000006" class="edge">
<title>Node5&#45;&gt;Node6</title>
<g id="a_edge5_Node000005_Node000006"><a xlink:title=" ">
<path fill="none" stroke="#63b8ff" d="M447.49,-10.75C456.78,-10.75 466.01,-10.75 474.16,-10.75"/>
<polygon fill="#63b8ff" stroke="#63b8ff" points="474.04,-14.25 484.04,-10.75 474.04,-7.25 474.04,-14.25"/>
</a>
</g>
</g>
</g>
</svg>
