<?xml version="1.0" encoding="UTF-8" standalone="no"?>
<!DOCTYPE svg PUBLIC "-//W3C//DTD SVG 1.1//EN"
 "http://www.w3.org/Graphics/SVG/1.1/DTD/svg11.dtd">
<!-- Generated by graphviz version 2.43.0 (0)
 -->
<!-- Title: NodalDisplacement Pages: 1 -->
<svg width="207pt" height="1129pt"
 viewBox="0.00 0.00 207.00 1129.00" xmlns="http://www.w3.org/2000/svg" xmlns:xlink="http://www.w3.org/1999/xlink">
<g id="graph0" class="graph" transform="scale(1 1) rotate(0) translate(4 1125)">
<title>NodalDisplacement</title>
<polygon fill="white" stroke="transparent" points="-4,4 -4,-1125 203,-1125 203,4 -4,4"/>
<!-- Node1 -->
<g id="node1" class="node">
<title>Node1</title>
<g id="a_node1"><a xlink:title="A NodalDisplacement class.">
<polygon fill="#bfbfbf" stroke="black" points="20.5,-121.5 20.5,-217.5 178.5,-217.5 178.5,-121.5 20.5,-121.5"/>
<text text-anchor="middle" x="99.5" y="-204.7" font-family="Consolas" font-size="11.00">NodalDisplacement</text>
<polyline fill="none" stroke="black" points="20.5,-197.5 178.5,-197.5 "/>
<text text-anchor="start" x="28.5" y="-184.7" font-family="Consolas" font-size="11.00"># encoding</text>
<polyline fill="none" stroke="black" points="20.5,-177.5 178.5,-177.5 "/>
<text text-anchor="start" x="28.5" y="-164.7" font-family="Consolas" font-size="11.00">+ NodalDisplacement()</text>
<text text-anchor="start" x="28.5" y="-152.7" font-family="Consolas" font-size="11.00">+ NodalDisplacement()</text>
<text text-anchor="start" x="28.5" y="-140.7" font-family="Consolas" font-size="11.00">+ initialize()</text>
<text text-anchor="start" x="28.5" y="-128.7" font-family="Consolas" font-size="11.00">+ process()</text>
</a>
</g>
</g>
<!-- Node5 -->
<g id="node5" class="node">
<title>Node5</title>
<g id="a_node5"><a xlink:href="../../dc/de7/class_group_nodal_displacement.html" target="_top" xlink:title="A GroupNodalDisplacement class.">
<polygon fill="white" stroke="black" points="3.5,-0.5 3.5,-84.5 195.5,-84.5 195.5,-0.5 3.5,-0.5"/>
<text text-anchor="middle" x="99.5" y="-71.7" font-family="Consolas" font-size="11.00">GroupNodalDisplacement</text>
<polyline fill="none" stroke="black" points="3.5,-64.5 195.5,-64.5 "/>
<text text-anchor="middle" x="99.5" y="-51.7" font-family="Consolas" font-size="11.00"> </text>
<polyline fill="none" stroke="black" points="3.5,-44.5 195.5,-44.5 "/>
<text text-anchor="start" x="11.5" y="-31.7" font-family="Consolas" font-size="11.00">+ GroupNodalDisplacement()</text>
<text text-anchor="start" x="11.5" y="-19.7" font-family="Consolas" font-size="11.00">+ GroupNodalDisplacement()</text>
<text text-anchor="start" x="11.5" y="-7.7" font-family="Consolas" font-size="11.00">+ initialize()</text>
</a>
</g>
</g>
<!-- Node1&#45;&gt;Node5 -->
<g id="edge4" class="edge">
<title>Node1&#45;&gt;Node5</title>
<path fill="none" stroke="midnightblue" d="M99.5,-111.23C99.5,-102.28 99.5,-93.18 99.5,-84.68"/>
<polygon fill="none" stroke="midnightblue" points="96,-111.24 99.5,-121.24 103,-111.24 96,-111.24"/>
</g>
<!-- Node2 -->
<g id="node2" class="node">
<title>Node2</title>
<g id="a_node2"><a xlink:href="../../df/d07/class_load.html" target="_top" xlink:title="A Load class.">
<polygon fill="white" stroke="black" points="0,-254.5 0,-506.5 199,-506.5 199,-254.5 0,-254.5"/>
<text text-anchor="middle" x="99.5" y="-493.7" font-family="Consolas" font-size="11.00">Load</text>
<polyline fill="none" stroke="black" points="0,-486.5 199,-486.5 "/>
<text text-anchor="start" x="8" y="-473.7" font-family="Consolas" font-size="11.00"># mpdc_flag</text>
<text text-anchor="start" x="8" y="-461.7" font-family="Consolas" font-size="11.00"># pattern</text>
<text text-anchor="start" x="8" y="-449.7" font-family="Consolas" font-size="11.00"># trial_load</text>
<text text-anchor="start" x="8" y="-437.7" font-family="Consolas" font-size="11.00"># trial_settlement</text>
<text text-anchor="start" x="8" y="-425.7" font-family="Consolas" font-size="11.00"># reference_load</text>
<text text-anchor="start" x="8" y="-413.7" font-family="Consolas" font-size="11.00"># multiplier</text>
<polyline fill="none" stroke="black" points="0,-406.5 199,-406.5 "/>
<text text-anchor="start" x="8" y="-393.7" font-family="Consolas" font-size="11.00">+ Load()</text>
<text text-anchor="start" x="8" y="-381.7" font-family="Consolas" font-size="11.00">+ Load()</text>
<text text-anchor="start" x="8" y="-369.7" font-family="Consolas" font-size="11.00">+ Load()</text>
<text text-anchor="start" x="8" y="-357.7" font-family="Consolas" font-size="11.00">+ operator=()</text>
<text text-anchor="start" x="8" y="-345.7" font-family="Consolas" font-size="11.00">+ operator=()</text>
<text text-anchor="start" x="8" y="-333.7" font-family="Consolas" font-size="11.00">+ ~Load()</text>
<text text-anchor="start" x="8" y="-321.7" font-family="Consolas" font-size="11.00">+ enable_displacement</text>
<text text-anchor="start" x="8" y="-309.7" font-family="Consolas" font-size="11.00">_control()</text>
<text text-anchor="start" x="8" y="-297.7" font-family="Consolas" font-size="11.00">+ if_displacement_control()</text>
<text text-anchor="start" x="8" y="-285.7" font-family="Consolas" font-size="11.00">+ get_trial_load()</text>
<text text-anchor="start" x="8" y="-273.7" font-family="Consolas" font-size="11.00">+ get_trial_settlement()</text>
<text text-anchor="start" x="8" y="-261.7" font-family="Consolas" font-size="11.00">+ get_reference_load()</text>
</a>
</g>
</g>
<!-- Node2&#45;&gt;Node1 -->
<g id="edge1" class="edge">
<title>Node2&#45;&gt;Node1</title>
<path fill="none" stroke="midnightblue" d="M99.5,-244.16C99.5,-234.92 99.5,-226.04 99.5,-217.84"/>
<polygon fill="none" stroke="midnightblue" points="96,-244.3 99.5,-254.3 103,-244.3 96,-244.3"/>
</g>
<!-- Node3 -->
<g id="node3" class="node">
<title>Node3</title>
<g id="a_node3"><a xlink:href="../../da/d44/class_conditional_modifier.html" target="_top" xlink:title="A ConditionalModifier class.">
<polygon fill="white" stroke="black" points="10,-543.5 10,-855.5 189,-855.5 189,-543.5 10,-543.5"/>
<text text-anchor="middle" x="99.5" y="-842.7" font-family="Consolas" font-size="11.00">ConditionalModifier</text>
<polyline fill="none" stroke="black" points="10,-835.5 189,-835.5 "/>
<text text-anchor="start" x="18" y="-822.7" font-family="Consolas" font-size="11.00"># initialized</text>
<text text-anchor="start" x="18" y="-810.7" font-family="Consolas" font-size="11.00"># connected</text>
<text text-anchor="start" x="18" y="-798.7" font-family="Consolas" font-size="11.00"># start_step</text>
<text text-anchor="start" x="18" y="-786.7" font-family="Consolas" font-size="11.00"># end_step</text>
<text text-anchor="start" x="18" y="-774.7" font-family="Consolas" font-size="11.00"># amplitude_tag</text>
<text text-anchor="start" x="18" y="-762.7" font-family="Consolas" font-size="11.00"># node_encoding</text>
<text text-anchor="start" x="18" y="-750.7" font-family="Consolas" font-size="11.00"># dof_reference</text>
<text text-anchor="start" x="18" y="-738.7" font-family="Consolas" font-size="11.00"># dof_encoding</text>
<text text-anchor="start" x="18" y="-726.7" font-family="Consolas" font-size="11.00"># magnitude</text>
<polyline fill="none" stroke="black" points="10,-719.5 189,-719.5 "/>
<text text-anchor="start" x="18" y="-706.7" font-family="Consolas" font-size="11.00">+ ConditionalModifier()</text>
<text text-anchor="start" x="18" y="-694.7" font-family="Consolas" font-size="11.00">+ initialize()</text>
<text text-anchor="start" x="18" y="-682.7" font-family="Consolas" font-size="11.00">+ process()</text>
<text text-anchor="start" x="18" y="-670.7" font-family="Consolas" font-size="11.00">+ process_resistance()</text>
<text text-anchor="start" x="18" y="-658.7" font-family="Consolas" font-size="11.00">+ stage()</text>
<text text-anchor="start" x="18" y="-646.7" font-family="Consolas" font-size="11.00">+ get_node_encoding()</text>
<text text-anchor="start" x="18" y="-634.7" font-family="Consolas" font-size="11.00">+ get_dof_encoding()</text>
<text text-anchor="start" x="18" y="-622.7" font-family="Consolas" font-size="11.00">+ set_initialized()</text>
<text text-anchor="start" x="18" y="-610.7" font-family="Consolas" font-size="11.00">+ is_initialized()</text>
<text text-anchor="start" x="18" y="-598.7" font-family="Consolas" font-size="11.00">+ set_start_step()</text>
<text text-anchor="start" x="18" y="-586.7" font-family="Consolas" font-size="11.00">and 10 more...</text>
<text text-anchor="start" x="18" y="-574.7" font-family="Consolas" font-size="11.00"># get_nodal_active_dof()</text>
<text text-anchor="start" x="18" y="-562.7" font-family="Consolas" font-size="11.00"># get_all_nodal_active</text>
<text text-anchor="start" x="18" y="-550.7" font-family="Consolas" font-size="11.00">_dof()</text>
</a>
</g>
</g>
<!-- Node3&#45;&gt;Node2 -->
<g id="edge2" class="edge">
<title>Node3&#45;&gt;Node2</title>
<path fill="none" stroke="midnightblue" d="M99.5,-533.21C99.5,-524.33 99.5,-515.47 99.5,-506.76"/>
<polygon fill="none" stroke="midnightblue" points="96,-533.25 99.5,-543.25 103,-533.25 96,-533.25"/>
</g>
<!-- Node4 -->
<g id="node4" class="node">
<title>Node4</title>
<g id="a_node4"><a xlink:href="../../d0/d57/class_tag.html" target="_top" xlink:title="A base Tag class.">
<polygon fill="white" stroke="black" points="44,-892.5 44,-1120.5 155,-1120.5 155,-892.5 44,-892.5"/>
<text text-anchor="middle" x="99.5" y="-1107.7" font-family="Consolas" font-size="11.00">Tag</text>
<polyline fill="none" stroke="black" points="44,-1100.5 155,-1100.5 "/>
<text text-anchor="middle" x="99.5" y="-1087.7" font-family="Consolas" font-size="11.00"> </text>
<polyline fill="none" stroke="black" points="44,-1080.5 155,-1080.5 "/>
<text text-anchor="start" x="52" y="-1067.7" font-family="Consolas" font-size="11.00">+ Tag()</text>
<text text-anchor="start" x="52" y="-1055.7" font-family="Consolas" font-size="11.00">+ Tag()</text>
<text text-anchor="start" x="52" y="-1043.7" font-family="Consolas" font-size="11.00">+ Tag()</text>
<text text-anchor="start" x="52" y="-1031.7" font-family="Consolas" font-size="11.00">+ operator=()</text>
<text text-anchor="start" x="52" y="-1019.7" font-family="Consolas" font-size="11.00">+ operator=()</text>
<text text-anchor="start" x="52" y="-1007.7" font-family="Consolas" font-size="11.00">+ ~Tag()</text>
<text text-anchor="start" x="52" y="-995.7" font-family="Consolas" font-size="11.00">+ set_tag()</text>
<text text-anchor="start" x="52" y="-983.7" font-family="Consolas" font-size="11.00">+ get_tag()</text>
<text text-anchor="start" x="52" y="-971.7" font-family="Consolas" font-size="11.00">+ enable()</text>
<text text-anchor="start" x="52" y="-959.7" font-family="Consolas" font-size="11.00">+ disable()</text>
<text text-anchor="start" x="52" y="-947.7" font-family="Consolas" font-size="11.00">+ guard()</text>
<text text-anchor="start" x="52" y="-935.7" font-family="Consolas" font-size="11.00">+ unguard()</text>
<text text-anchor="start" x="52" y="-923.7" font-family="Consolas" font-size="11.00">+ is_active()</text>
<text text-anchor="start" x="52" y="-911.7" font-family="Consolas" font-size="11.00">+ is_guarded()</text>
<text text-anchor="start" x="52" y="-899.7" font-family="Consolas" font-size="11.00">+ print()</text>
</a>
</g>
</g>
<!-- Node4&#45;&gt;Node3 -->
<g id="edge3" class="edge">
<title>Node4&#45;&gt;Node3</title>
<path fill="none" stroke="midnightblue" d="M99.5,-882.13C99.5,-873.36 99.5,-864.45 99.5,-855.53"/>
<polygon fill="none" stroke="midnightblue" points="96,-882.36 99.5,-892.36 103,-882.36 96,-882.36"/>
</g>
</g>
</svg>
