<?xml version="1.0" encoding="UTF-8" standalone="no"?>
<!DOCTYPE svg PUBLIC "-//W3C//DTD SVG 1.1//EN"
 "http://www.w3.org/Graphics/SVG/1.1/DTD/svg11.dtd">
<!-- Generated by graphviz version 2.43.0 (0)
 -->
<!-- Title: Embed::initialize Pages: 1 -->
<svg width="548pt" height="216pt"
 viewBox="0.00 0.00 548.00 216.00" xmlns="http://www.w3.org/2000/svg" xmlns:xlink="http://www.w3.org/1999/xlink">
<g id="graph0" class="graph" transform="scale(1 1) rotate(0) translate(4 212)">
<title>Embed::initialize</title>
<!-- Node1 -->
<g id="Node000001" class="node">
<title>Node1</title>
<g id="a_Node000001"><a xlink:title=" ">
<polygon fill="#999999" stroke="#666666" points="131,-126 0,-126 0,-106 131,-106 131,-126"/>
<text text-anchor="middle" x="65.5" y="-113.2" font-family="Consolas" font-size="11.00">Embed::initialize</text>
</a>
</g>
</g>
<!-- Node2 -->
<g id="Node000002" class="node">
<title>Node2</title>
<g id="a_Node000002"><a xlink:href="../../dc/d8f/class_node.html#a164828221452969048026b0a2f142249" target="_top" xlink:title=" ">
<polygon fill="white" stroke="#666666" points="319,-208 167,-208 167,-188 319,-188 319,-208"/>
<text text-anchor="middle" x="243" y="-195.2" font-family="Consolas" font-size="11.00">Node::get_coordinate</text>
</a>
</g>
</g>
<!-- Node1&#45;&gt;Node2 -->
<g id="edge1_Node000001_Node000002" class="edge">
<title>Node1&#45;&gt;Node2</title>
<g id="a_edge1_Node000001_Node000002"><a xlink:title=" ">
<path fill="none" stroke="#63b8ff" d="M79.73,-126.2C98.27,-140.04 133.49,-164.67 167,-179 172.09,-181.18 177.49,-183.15 182.97,-184.92"/>
<polygon fill="#63b8ff" stroke="#63b8ff" points="182.27,-188.36 192.86,-187.9 184.29,-181.66 182.27,-188.36"/>
</a>
</g>
</g>
<!-- Node3 -->
<g id="Node000003" class="node">
<title>Node3</title>
<g id="a_Node000003"><a xlink:href="../../d6/d9c/namespacesuanpan.html#af65ff889c917db764400e6c72c11a0b7" target="_top" xlink:title=" ">
<polygon fill="white" stroke="#666666" points="308.5,-170 177.5,-170 177.5,-150 308.5,-150 308.5,-170"/>
<text text-anchor="middle" x="243" y="-157.2" font-family="Consolas" font-size="11.00">suanpan::inf_norm</text>
</a>
</g>
</g>
<!-- Node1&#45;&gt;Node3 -->
<g id="edge2_Node000001_Node000003" class="edge">
<title>Node1&#45;&gt;Node3</title>
<g id="a_edge2_Node000001_Node000003"><a xlink:title=" ">
<path fill="none" stroke="#63b8ff" d="M106.76,-126.09C132.07,-132.44 164.91,-140.67 191.9,-147.44"/>
<polygon fill="#63b8ff" stroke="#63b8ff" points="191.37,-150.92 201.92,-149.95 193.08,-144.13 191.37,-150.92"/>
</a>
</g>
</g>
<!-- Node4 -->
<g id="Node000004" class="node">
<title>Node4</title>
<g id="a_Node000004"><a xlink:href="../../da/d44/class_conditional_modifier.html#a2e571329c1c399e8e472d34257e4af4e" target="_top" xlink:title=" ">
<polygon fill="white" stroke="#666666" points="315.5,-132 170.5,-132 170.5,-100 315.5,-100 315.5,-132"/>
<text text-anchor="start" x="178.5" y="-119.2" font-family="Consolas" font-size="11.00">ConditionalModifier</text>
<text text-anchor="middle" x="243" y="-107.2" font-family="Consolas" font-size="11.00">::initialize</text>
</a>
</g>
</g>
<!-- Node1&#45;&gt;Node4 -->
<g id="edge3_Node000001_Node000004" class="edge">
<title>Node1&#45;&gt;Node4</title>
<g id="a_edge3_Node000001_Node000004"><a xlink:title=" ">
<path fill="none" stroke="#63b8ff" d="M131.35,-116C140.77,-116 150.57,-116 160.27,-116"/>
<polygon fill="#63b8ff" stroke="#63b8ff" points="160.33,-119.5 170.33,-116 160.33,-112.5 160.33,-119.5"/>
</a>
</g>
</g>
<!-- Node7 -->
<g id="Node000007" class="node">
<title>Node7</title>
<g id="a_Node000007"><a xlink:href="../../da/d44/class_conditional_modifier.html#a587dcc7c24429f33d679082f2c976ddf" target="_top" xlink:title=" ">
<polygon fill="white" stroke="#666666" points="315.5,-82 170.5,-82 170.5,-50 315.5,-50 315.5,-82"/>
<text text-anchor="start" x="178.5" y="-69.2" font-family="Consolas" font-size="11.00">ConditionalModifier</text>
<text text-anchor="middle" x="243" y="-57.2" font-family="Consolas" font-size="11.00">::validate_element</text>
</a>
</g>
</g>
<!-- Node1&#45;&gt;Node7 -->
<g id="edge6_Node000001_Node000007" class="edge">
<title>Node1&#45;&gt;Node7</title>
<g id="a_edge6_Node000001_Node000007"><a xlink:title=" ">
<path fill="none" stroke="#63b8ff" d="M102.02,-105.88C123.24,-99.84 150.87,-91.96 175.97,-84.81"/>
<polygon fill="#63b8ff" stroke="#63b8ff" points="177.15,-88.12 185.81,-82.01 175.23,-81.38 177.15,-88.12"/>
</a>
</g>
</g>
<!-- Node8 -->
<g id="Node000008" class="node">
<title>Node8</title>
<g id="a_Node000008"><a xlink:href="../../da/d44/class_conditional_modifier.html#ae210c15ff093ee256eda5b82e124e70c" target="_top" xlink:title=" ">
<polygon fill="white" stroke="#666666" points="315.5,-32 170.5,-32 170.5,0 315.5,0 315.5,-32"/>
<text text-anchor="start" x="178.5" y="-19.2" font-family="Consolas" font-size="11.00">ConditionalModifier</text>
<text text-anchor="middle" x="243" y="-7.2" font-family="Consolas" font-size="11.00">::validate_node</text>
</a>
</g>
</g>
<!-- Node1&#45;&gt;Node8 -->
<g id="edge7_Node000001_Node000008" class="edge">
<title>Node1&#45;&gt;Node8</title>
<g id="a_edge7_Node000001_Node000008"><a xlink:title=" ">
<path fill="none" stroke="#63b8ff" d="M77.45,-105.94C95.11,-90.18 131.49,-59.55 167,-41 170.46,-39.19 174.08,-37.48 177.77,-35.86"/>
<polygon fill="#63b8ff" stroke="#63b8ff" points="179.16,-39.07 187.08,-32.03 176.5,-32.6 179.16,-39.07"/>
</a>
</g>
</g>
<!-- Node5 -->
<g id="Node000005" class="node">
<title>Node5</title>
<g id="a_Node000005"><a xlink:href="../../d0/d57/class_tag.html#aeef9db4fab02b36358265f378e703986" target="_top" xlink:title=" ">
<polygon fill="white" stroke="#666666" points="503,-145 392,-145 392,-125 503,-125 503,-145"/>
<text text-anchor="middle" x="447.5" y="-132.2" font-family="Consolas" font-size="11.00">Tag::is_active</text>
</a>
</g>
</g>
<!-- Node4&#45;&gt;Node5 -->
<g id="edge4_Node000004_Node000005" class="edge">
<title>Node4&#45;&gt;Node5</title>
<g id="a_edge4_Node000004_Node000005"><a xlink:title=" ">
<path fill="none" stroke="#63b8ff" d="M315.68,-122.73C337.19,-124.74 360.65,-126.95 381.69,-128.92"/>
<polygon fill="#63b8ff" stroke="#63b8ff" points="381.52,-132.42 391.81,-129.87 382.18,-125.45 381.52,-132.42"/>
</a>
</g>
</g>
<!-- Node6 -->
<g id="Node000006" class="node">
<title>Node6</title>
<g id="a_Node000006"><a xlink:href="../../de/d90/class_amplitude.html#a84c13ffcb23dbc17b2020406ea372d77" target="_top" xlink:title=" ">
<polygon fill="white" stroke="#666666" points="540,-107 355,-107 355,-87 540,-87 540,-107"/>
<text text-anchor="middle" x="447.5" y="-94.2" font-family="Consolas" font-size="11.00">Amplitude::set_start_time</text>
</a>
</g>
</g>
<!-- Node4&#45;&gt;Node6 -->
<g id="edge5_Node000004_Node000006" class="edge">
<title>Node4&#45;&gt;Node6</title>
<g id="a_edge5_Node000004_Node000006"><a xlink:title=" ">
<path fill="none" stroke="#63b8ff" d="M315.68,-109.27C325.05,-108.4 334.8,-107.48 344.55,-106.57"/>
<polygon fill="#63b8ff" stroke="#63b8ff" points="345.07,-110.03 354.7,-105.61 344.42,-103.06 345.07,-110.03"/>
</a>
</g>
</g>
</g>
</svg>
