<?xml version="1.0" encoding="UTF-8" standalone="no"?>
<!DOCTYPE svg PUBLIC "-//W3C//DTD SVG 1.1//EN"
 "http://www.w3.org/Graphics/SVG/1.1/DTD/svg11.dtd">
<!-- Generated by graphviz version 8.1.0 (20230707.0739)
 -->
<!-- Title: Rebar3D::initialize Pages: 1 -->
<svg width="352pt" height="135pt"
 viewBox="0.00 0.00 352.00 135.00" xmlns="http://www.w3.org/2000/svg" xmlns:xlink="http://www.w3.org/1999/xlink">
<g id="graph0" class="graph" transform="scale(1 1) rotate(0) translate(4 131)">
<title>Rebar3D::initialize</title>
<!-- Node1 -->
<g id="Node000001" class="node">
<title>Node1</title>
<g id="a_Node000001"><a xlink:title=" ">
<polygon fill="#999999" stroke="#666666" points="130,-74.25 0,-74.25 0,-52.75 130,-52.75 130,-74.25"/>
<text text-anchor="middle" x="65" y="-59.8" font-family="Consolas" font-size="11.00">Rebar3D::initialize</text>
</a>
</g>
</g>
<!-- Node2 -->
<g id="Node000002" class="node">
<title>Node2</title>
<g id="a_Node000002"><a xlink:href="../../dc/dee/class_material.html#a7ee1a5e060b0dd313f95d1afa6a71db8" target="_top" xlink:title=" ">
<polygon fill="white" stroke="#666666" points="326,-127 184,-127 184,-92 326,-92 326,-127"/>
<text text-anchor="start" x="192" y="-112.55" font-family="Consolas" font-size="11.00">Material::get_initial</text>
<text text-anchor="middle" x="255" y="-99.05" font-family="Consolas" font-size="11.00">_stiffness</text>
</a>
</g>
</g>
<!-- Node1&#45;&gt;Node2 -->
<g id="edge1_Node000001_Node000002" class="edge">
<title>Node1&#45;&gt;Node2</title>
<g id="a_edge1_Node000001_Node000002"><a xlink:title=" ">
<path fill="none" stroke="#63b8ff" d="M111.51,-74.64C130.01,-79.16 151.96,-84.53 173.02,-89.69"/>
<polygon fill="#63b8ff" stroke="#63b8ff" points="172.05,-93.3 182.6,-92.27 173.72,-86.5 172.05,-93.3"/>
</a>
</g>
</g>
<!-- Node3 -->
<g id="Node000003" class="node">
<title>Node3</title>
<g id="a_Node000003"><a xlink:href="../../dc/dee/class_material.html#ab63edaec70fa7a7de3c1e8445fd3e908" target="_top" xlink:title=" ">
<polygon fill="white" stroke="#666666" points="344,-74.25 166,-74.25 166,-52.75 344,-52.75 344,-74.25"/>
<text text-anchor="middle" x="255" y="-59.8" font-family="Consolas" font-size="11.00">Material::get_material_type</text>
</a>
</g>
</g>
<!-- Node1&#45;&gt;Node3 -->
<g id="edge2_Node000001_Node000003" class="edge">
<title>Node1&#45;&gt;Node3</title>
<g id="a_edge2_Node000001_Node000003"><a xlink:title=" ">
<path fill="none" stroke="#63b8ff" d="M130.44,-63.5C138.34,-63.5 146.56,-63.5 154.84,-63.5"/>
<polygon fill="#63b8ff" stroke="#63b8ff" points="154.72,-67 164.72,-63.5 154.72,-60 154.72,-67"/>
</a>
</g>
</g>
<!-- Node4 -->
<g id="Node000004" class="node">
<title>Node4</title>
<g id="a_Node000004"><a xlink:href="../../d6/d9c/namespacesuanpan.html#ab61dc29f7bbd99407039f6bbbfc89b6c" target="_top" xlink:title="This function checks if the corresponding material model exists, if yes make a copy and ensure all in...">
<polygon fill="white" stroke="#666666" points="323,-35 187,-35 187,0 323,0 323,-35"/>
<text text-anchor="start" x="195" y="-20.55" font-family="Consolas" font-size="11.00">suanpan::initialized</text>
<text text-anchor="middle" x="255" y="-7.05" font-family="Consolas" font-size="11.00">_material_copy</text>
</a>
</g>
</g>
<!-- Node1&#45;&gt;Node4 -->
<g id="edge3_Node000001_Node000004" class="edge">
<title>Node1&#45;&gt;Node4</title>
<g id="a_edge3_Node000001_Node000004"><a xlink:title=" ">
<path fill="none" stroke="#63b8ff" d="M111.51,-52.36C130.93,-47.61 154.16,-41.93 176.17,-36.54"/>
<polygon fill="#63b8ff" stroke="#63b8ff" points="176.98,-39.7 185.86,-33.93 175.31,-32.91 176.98,-39.7"/>
</a>
</g>
</g>
</g>
</svg>
