<?xml version="1.0" encoding="UTF-8" standalone="no"?>
<!DOCTYPE svg PUBLIC "-//W3C//DTD SVG 1.1//EN"
 "http://www.w3.org/Graphics/SVG/1.1/DTD/svg11.dtd">
<!-- Generated by graphviz version 8.1.0 (20230707.0739)
 -->
<!-- Title: Element/Membrane/Axisymmetric/CAX8.cpp Pages: 1 -->
<!--zoomable 530 -->

<svg id="main" version="1.1" xmlns="http://www.w3.org/2000/svg" xmlns:xlink="http://www.w3.org/1999/xlink" xml:space="preserve" onload="init(evt)">
<style type="text/css"><![CDATA[
.node, .edge {opacity: 0.7;}
.node.selected, .edge.selected {opacity: 1;}
.edge:hover path { stroke: red; }
.edge:hover polygon { stroke: red; fill: red; }
]]></style>

<defs>
  <circle id="rim" cx="0" cy="0" r="7"/>
  <circle id="rim2" cx="0" cy="0" r="3.5"/>
  <g id="zoomPlus">
    <use xlink:href="#rim" fill="#404040"><set attributeName="fill" to="#808080" begin="zoomplus.mouseover" end="zoomplus.mouseout"/></use>
    <path d="M-4,0h8M0,-4v8" fill="none" stroke="white" stroke-width="1.5" pointer-events="none"/>
  </g>
  <g id="zoomMin">
    <use xlink:href="#rim" fill="#404040"><set attributeName="fill" to="#808080" begin="zoomminus.mouseover" end="zoomminus.mouseout"/></use>
    <path d="M-4,0h8" fill="none" stroke="white" stroke-width="1.5" pointer-events="none"/>
  </g>
  <g id="arrowUp" transform="translate(30 24)">
    <use xlink:href="#rim"/>
    <path pointer-events="none" fill="none" stroke="white" stroke-width="1.5" d="M0,-3.0v7 M-2.5,-0.5L0,-3.0L2.5,-0.5"/>
  </g>
  <g id="arrowRight" transform="rotate(90) translate(36 -43)">
    <use xlink:href="#rim"/>
    <path pointer-events="none" fill="none" stroke="white" stroke-width="1.5" d="M0,-3.0v7 M-2.5,-0.5L0,-3.0L2.5,-0.5"/>
  </g>
  <g id="arrowDown" transform="rotate(180) translate(-30 -48)">
    <use xlink:href="#rim"/>
    <path pointer-events="none" fill="none" stroke="white" stroke-width="1.5" d="M0,-3.0v7 M-2.5,-0.5L0,-3.0L2.5,-0.5"/>
  </g>
  <g id="arrowLeft" transform="rotate(270) translate(-36 17)">
    <use xlink:href="#rim"/>
    <path pointer-events="none" fill="none" stroke="white" stroke-width="1.5" d="M0,-3.0v7 M-2.5,-0.5L0,-3.0L2.5,-0.5"/>
  </g>
  <g id="resetDef">
    <use xlink:href="#rim2" fill="#404040"><set attributeName="fill" to="#808080" begin="reset.mouseover" end="reset.mouseout"/></use>
  </g>
</defs>
<script type="application/ecmascript">
var viewWidth = 1129;
var viewHeight = 530;
var sectionId = 'dynsection-0';
</script>
<script type="application/ecmascript" xlink:href="../../svg.min.js"/>
<svg id="graph" class="graph">
<g id="viewport">
<title>Element/Membrane/Axisymmetric/CAX8.cpp</title>
<!-- Node1 -->
<g id="Node000001" class="node">
<title>Node1</title>
<g id="a_Node000001"><a xlink:title=" ">
<polygon fill="#999999" stroke="#666666" points="796,-522 606,-522 606,-487 796,-487 796,-522"/>
<text text-anchor="start" x="614" y="-507.55" font-family="Consolas" font-size="11.00">Element/Membrane/Axisymmetric</text>
<text text-anchor="middle" x="701" y="-494.05" font-family="Consolas" font-size="11.00">/CAX8.cpp</text>
</a>
</g>
</g>
<!-- Node2 -->
<g id="Node000002" class="node">
<title>Node2</title>
<g id="a_Node000002"><a xlink:href="../../d8/d70/_c_a_x8_8h.html" target="_top" xlink:title=" ">
<polygon fill="white" stroke="#666666" points="543,-444.25 491,-444.25 491,-422.75 543,-422.75 543,-444.25"/>
<text text-anchor="middle" x="517" y="-429.8" font-family="Consolas" font-size="11.00">CAX8.h</text>
</a>
</g>
</g>
<!-- Node1&#45;&gt;Node2 -->
<g id="edge1_Node000001_Node000002" class="edge">
<title>Node1&#45;&gt;Node2</title>
<g id="a_edge1_Node000001_Node000002"><a xlink:title=" ">
<path fill="none" stroke="#63b8ff" d="M655.99,-486.62C624.53,-474.82 583.05,-459.27 553.62,-448.23"/>
<polygon fill="#63b8ff" stroke="#63b8ff" points="554.95,-444.62 544.36,-444.38 552.49,-451.17 554.95,-444.62"/>
</a>
</g>
</g>
<!-- Node18 -->
<g id="Node000018" class="node">
<title>Node18</title>
<g id="a_Node000018"><a xlink:href="../../dc/df2/_domain_base_8h.html" target="_top" xlink:title=" ">
<polygon fill="white" stroke="#666666" points="265,-200.75 135,-200.75 135,-179.25 265,-179.25 265,-200.75"/>
<text text-anchor="middle" x="200" y="-186.3" font-family="Consolas" font-size="11.00">Domain/DomainBase.h</text>
</a>
</g>
</g>
<!-- Node1&#45;&gt;Node18 -->
<g id="edge18_Node000001_Node000018" class="edge">
<title>Node1&#45;&gt;Node18</title>
<g id="a_edge18_Node000001_Node000018"><a xlink:title=" ">
<path fill="none" stroke="#63b8ff" d="M605.57,-495.61C469.24,-481.67 235,-446.61 235,-370.25 235,-370.25 235,-370.25 235,-310.75 235,-274.29 219.87,-234 209.5,-210.68"/>
<polygon fill="#63b8ff" stroke="#63b8ff" points="212.38,-209.58 205.01,-201.96 206.03,-212.51 212.38,-209.58"/>
</a>
</g>
</g>
<!-- Node25 -->
<g id="Node000025" class="node">
<title>Node25</title>
<g id="a_Node000025"><a xlink:href="../../d1/d02/_node_8h.html" target="_top" xlink:title=" ">
<polygon fill="white" stroke="#666666" points="655,-265 561,-265 561,-243.5 655,-243.5 655,-265"/>
<text text-anchor="middle" x="608" y="-250.55" font-family="Consolas" font-size="11.00">Domain/Node.h</text>
</a>
</g>
</g>
<!-- Node1&#45;&gt;Node25 -->
<g id="edge27_Node000001_Node000025" class="edge">
<title>Node1&#45;&gt;Node25</title>
<g id="a_edge27_Node000001_Node000025"><a xlink:title=" ">
<path fill="none" stroke="#63b8ff" d="M665.11,-486.61C650.84,-478.01 635.77,-466.13 627,-451 594.4,-394.75 599.78,-313.9 604.68,-276.15"/>
<polygon fill="#63b8ff" stroke="#63b8ff" points="608.25,-276.89 606.21,-266.49 601.32,-275.89 608.25,-276.89"/>
</a>
</g>
</g>
<!-- Node26 -->
<g id="Node000026" class="node">
<title>Node26</title>
<g id="a_Node000026"><a xlink:href="../../dc/d4c/_material2_d_8h.html" target="_top" xlink:title=" ">
<polygon fill="white" stroke="#666666" points="766,-451 636,-451 636,-416 766,-416 766,-451"/>
<text text-anchor="start" x="644" y="-436.55" font-family="Consolas" font-size="11.00">Material/Material2D</text>
<text text-anchor="middle" x="701" y="-423.05" font-family="Consolas" font-size="11.00">/Material2D.h</text>
</a>
</g>
</g>
<!-- Node1&#45;&gt;Node26 -->
<g id="edge29_Node000001_Node000026" class="edge">
<title>Node1&#45;&gt;Node26</title>
<g id="a_edge29_Node000001_Node000026"><a xlink:title=" ">
<path fill="none" stroke="#63b8ff" d="M701,-486.8C701,-479.34 701,-470.35 701,-461.95"/>
<polygon fill="#63b8ff" stroke="#63b8ff" points="704.5,-462.05 701,-452.05 697.5,-462.05 704.5,-462.05"/>
</a>
</g>
</g>
<!-- Node29 -->
<g id="Node000029" class="node">
<title>Node29</title>
<g id="a_Node000029"><a xlink:href="../../d7/dab/_integration_plan_8h.html" target="_top" xlink:title=" ">
<polygon fill="white" stroke="#666666" points="1121,-265 955,-265 955,-243.5 1121,-243.5 1121,-265"/>
<text text-anchor="middle" x="1038" y="-250.55" font-family="Consolas" font-size="11.00">Toolbox/IntegrationPlan.h</text>
</a>
</g>
</g>
<!-- Node1&#45;&gt;Node29 -->
<g id="edge33_Node000001_Node000029" class="edge">
<title>Node1&#45;&gt;Node29</title>
<g id="a_edge33_Node000001_Node000029"><a xlink:title=" ">
<path fill="none" stroke="#63b8ff" d="M796.47,-495.33C867.44,-487.54 956.81,-473.6 986,-451 1040.29,-408.96 1042.01,-317.17 1039.77,-275.98"/>
<polygon fill="#63b8ff" stroke="#63b8ff" points="1043.21,-275.88 1039.03,-266.14 1036.22,-276.36 1043.21,-275.88"/>
</a>
</g>
</g>
<!-- Node30 -->
<g id="Node000030" class="node">
<title>Node30</title>
<g id="a_Node000030"><a xlink:href="../../da/d18/shape_8h.html" target="_top" xlink:title=" ">
<polygon fill="white" stroke="#666666" points="890,-380 784,-380 784,-358.5 890,-358.5 890,-380"/>
<text text-anchor="middle" x="837" y="-365.55" font-family="Consolas" font-size="11.00">Toolbox/shape.h</text>
</a>
</g>
</g>
<!-- Node1&#45;&gt;Node30 -->
<g id="edge35_Node000001_Node000030" class="edge">
<title>Node1&#45;&gt;Node30</title>
<g id="a_edge35_Node000001_Node000030"><a xlink:title=" ">
<path fill="none" stroke="#63b8ff" d="M728.87,-486.59C743.42,-477.08 761.04,-464.44 775,-451 794.58,-432.14 813.02,-406.8 824.61,-389.56"/>
<polygon fill="#63b8ff" stroke="#63b8ff" points="828.03,-391.74 830.6,-381.47 822.18,-387.89 828.03,-391.74"/>
</a>
</g>
</g>
<!-- Node31 -->
<g id="Node000031" class="node">
<title>Node31</title>
<g id="a_Node000031"><a xlink:href="../../d5/d47/utility_8h.html" target="_top" xlink:title=" ">
<polygon fill="white" stroke="#666666" points="977,-444.25 859,-444.25 859,-422.75 977,-422.75 977,-444.25"/>
<text text-anchor="middle" x="918" y="-429.8" font-family="Consolas" font-size="11.00">Toolbox/utility.h</text>
</a>
</g>
</g>
<!-- Node1&#45;&gt;Node31 -->
<g id="edge37_Node000001_Node000031" class="edge">
<title>Node1&#45;&gt;Node31</title>
<g id="a_edge37_Node000001_Node000031"><a xlink:title=" ">
<path fill="none" stroke="#63b8ff" d="M754.36,-486.53C791.78,-474.64 841.11,-458.95 875.79,-447.92"/>
<polygon fill="#63b8ff" stroke="#63b8ff" points="876.58,-451.02 885.05,-444.66 874.46,-444.35 876.58,-451.02"/>
</a>
</g>
</g>
<!-- Node3 -->
<g id="Node000003" class="node">
<title>Node3</title>
<g id="a_Node000003"><a xlink:href="../../dc/d5f/_material_element_8h.html" target="_top" xlink:title=" ">
<polygon fill="white" stroke="#666666" points="563,-380 397,-380 397,-358.5 563,-358.5 563,-380"/>
<text text-anchor="middle" x="480" y="-365.55" font-family="Consolas" font-size="11.00">Element/MaterialElement.h</text>
</a>
</g>
</g>
<!-- Node2&#45;&gt;Node3 -->
<g id="edge2_Node000002_Node000003" class="edge">
<title>Node2&#45;&gt;Node3</title>
<g id="a_edge2_Node000002_Node000003"><a xlink:title=" ">
<path fill="none" stroke="#63b8ff" d="M511.06,-422.5C505.8,-413.66 497.99,-400.51 491.51,-389.62"/>
<polygon fill="#63b8ff" stroke="#63b8ff" points="494.17,-388.24 486.05,-381.43 488.15,-391.82 494.17,-388.24"/>
</a>
</g>
</g>
<!-- Node4 -->
<g id="Node000004" class="node">
<title>Node4</title>
<g id="a_Node000004"><a xlink:href="../../d0/db8/_element_8h.html" target="_top" xlink:title=" ">
<polygon fill="white" stroke="#666666" points="539,-322.5 421,-322.5 421,-301 539,-301 539,-322.5"/>
<text text-anchor="middle" x="480" y="-308.05" font-family="Consolas" font-size="11.00">Element/Element.h</text>
</a>
</g>
</g>
<!-- Node3&#45;&gt;Node4 -->
<g id="edge3_Node000003_Node000004" class="edge">
<title>Node3&#45;&gt;Node4</title>
<g id="a_edge3_Node000003_Node000004"><a xlink:title=" ">
<path fill="none" stroke="#63b8ff" d="M480,-358.07C480,-351.26 480,-342.06 480,-333.73"/>
<polygon fill="#63b8ff" stroke="#63b8ff" points="483.5,-333.86 480,-323.87 476.5,-333.87 483.5,-333.86"/>
</a>
</g>
</g>
<!-- Node17 -->
<g id="Node000017" class="node">
<title>Node17</title>
<g id="a_Node000017"><a xlink:href="../../da/da5/_d_o_f_8h.html" target="_top" xlink:title=" ">
<polygon fill="white" stroke="#666666" points="403,-322.5 315,-322.5 315,-301 403,-301 403,-322.5"/>
<text text-anchor="middle" x="359" y="-308.05" font-family="Consolas" font-size="11.00">Domain/DOF.h</text>
</a>
</g>
</g>
<!-- Node3&#45;&gt;Node17 -->
<g id="edge17_Node000003_Node000017" class="edge">
<title>Node3&#45;&gt;Node17</title>
<g id="a_edge17_Node000003_Node000017"><a xlink:title=" ">
<path fill="none" stroke="#63b8ff" d="M457.81,-358.07C439.04,-349.46 411.93,-337.03 390.85,-327.36"/>
<polygon fill="#63b8ff" stroke="#63b8ff" points="392.6,-323.85 382.05,-322.87 389.68,-330.22 392.6,-323.85"/>
</a>
</g>
</g>
<!-- Node5 -->
<g id="Node000005" class="node">
<title>Node5</title>
<g id="a_Node000005"><a xlink:href="../../d9/d82/_element_base_8h.html" target="_top" xlink:title=" ">
<polygon fill="white" stroke="#666666" points="534,-265 392,-265 392,-243.5 534,-243.5 534,-265"/>
<text text-anchor="middle" x="463" y="-250.55" font-family="Consolas" font-size="11.00">Element/ElementBase.h</text>
</a>
</g>
</g>
<!-- Node4&#45;&gt;Node5 -->
<g id="edge4_Node000004_Node000005" class="edge">
<title>Node4&#45;&gt;Node5</title>
<g id="a_edge4_Node000004_Node000005"><a xlink:title=" ">
<path fill="none" stroke="#63b8ff" d="M476.88,-300.57C474.75,-293.61 471.85,-284.14 469.25,-275.65"/>
<polygon fill="#63b8ff" stroke="#63b8ff" points="472.37,-274.9 466.1,-266.37 465.68,-276.95 472.37,-274.9"/>
</a>
</g>
</g>
<!-- Node6 -->
<g id="Node000006" class="node">
<title>Node6</title>
<g id="a_Node000006"><a xlink:href="../../d2/d4a/_tag_8h.html" target="_top" xlink:title=" ">
<polygon fill="white" stroke="#666666" points="641,-136.5 553,-136.5 553,-115 641,-115 641,-136.5"/>
<text text-anchor="middle" x="597" y="-122.05" font-family="Consolas" font-size="11.00">Domain/Tag.h</text>
</a>
</g>
</g>
<!-- Node5&#45;&gt;Node6 -->
<g id="edge5_Node000005_Node000006" class="edge">
<title>Node5&#45;&gt;Node6</title>
<g id="a_edge5_Node000005_Node000006"><a xlink:title=" ">
<path fill="none" stroke="#63b8ff" d="M461.02,-243.07C458.39,-226.41 455.8,-193.14 472,-172.5 488.85,-151.03 516.77,-139.63 541.95,-133.58"/>
<polygon fill="#63b8ff" stroke="#63b8ff" points="542.49,-136.83 551.53,-131.3 541.02,-129.99 542.49,-136.83"/>
</a>
</g>
</g>
<!-- Node15 -->
<g id="Node000015" class="node">
<title>Node15</title>
<g id="a_Node000015"><a xlink:href="../../d9/dc0/vtk_base_8h.html" target="_top" xlink:title=" ">
<polygon fill="white" stroke="#666666" points="425,-207.5 283,-207.5 283,-172.5 425,-172.5 425,-207.5"/>
<text text-anchor="start" x="291" y="-193.05" font-family="Consolas" font-size="11.00">Element/Visualisation</text>
<text text-anchor="middle" x="354" y="-179.55" font-family="Consolas" font-size="11.00">/vtkBase.h</text>
</a>
</g>
</g>
<!-- Node5&#45;&gt;Node15 -->
<g id="edge14_Node000005_Node000015" class="edge">
<title>Node5&#45;&gt;Node15</title>
<g id="a_edge14_Node000005_Node000015"><a xlink:title=" ">
<path fill="none" stroke="#63b8ff" d="M445.49,-243.25C431.24,-235.11 410.61,-223.33 392.54,-213.01"/>
<polygon fill="#63b8ff" stroke="#63b8ff" points="394.8,-209.7 384.38,-207.78 391.33,-215.78 394.8,-209.7"/>
</a>
</g>
</g>
<!-- Node16 -->
<g id="Node000016" class="node">
<title>Node16</title>
<g id="a_Node000016"><a xlink:href="../../d6/d94/_mapping_d_o_f_8h.html" target="_top" xlink:title=" ">
<polygon fill="white" stroke="#666666" points="617,-200.75 481,-200.75 481,-179.25 617,-179.25 617,-200.75"/>
<text text-anchor="middle" x="549" y="-186.3" font-family="Consolas" font-size="11.00">Element/MappingDOF.h</text>
</a>
</g>
</g>
<!-- Node5&#45;&gt;Node16 -->
<g id="edge15_Node000005_Node000016" class="edge">
<title>Node5&#45;&gt;Node16</title>
<g id="a_edge15_Node000005_Node000016"><a xlink:title=" ">
<path fill="none" stroke="#63b8ff" d="M476.82,-243.25C490.15,-233.6 510.58,-218.81 526.31,-207.43"/>
<polygon fill="#63b8ff" stroke="#63b8ff" points="527.88,-209.88 533.93,-201.18 523.78,-204.21 527.88,-209.88"/>
</a>
</g>
</g>
<!-- Node7 -->
<g id="Node000007" class="node">
<title>Node7</title>
<g id="a_Node000007"><a xlink:href="../../d8/d8f/suan_pan_8h.html" target="_top" xlink:title=" ">
<polygon fill="white" stroke="#666666" points="800,-79 730,-79 730,-57.5 800,-57.5 800,-79"/>
<text text-anchor="middle" x="765" y="-64.55" font-family="Consolas" font-size="11.00">suanPan.h</text>
</a>
</g>
</g>
<!-- Node6&#45;&gt;Node7 -->
<g id="edge6_Node000006_Node000007" class="edge">
<title>Node6&#45;&gt;Node7</title>
<g id="a_edge6_Node000006_Node000007"><a xlink:title=" ">
<path fill="none" stroke="#63b8ff" d="M627.81,-114.57C654.73,-105.68 694.01,-92.7 723.65,-82.91"/>
<polygon fill="#63b8ff" stroke="#63b8ff" points="724.7,-85.92 733.1,-79.46 722.5,-79.27 724.7,-85.92"/>
</a>
</g>
</g>
<!-- Node8 -->
<g id="Node000008" class="node">
<title>Node8</title>
<g id="a_Node000008"><a xlink:title=" ">
<polygon fill="#e0e0e0" stroke="#999999" points="955,-21.5 891,-21.5 891,0 955,0 955,-21.5"/>
<text text-anchor="middle" x="923" y="-7.05" font-family="Consolas" font-size="11.00">iostream</text>
</a>
</g>
</g>
<!-- Node7&#45;&gt;Node8 -->
<g id="edge7_Node000007_Node000008" class="edge">
<title>Node7&#45;&gt;Node8</title>
<g id="a_edge7_Node000007_Node000008"><a xlink:title=" ">
<path fill="none" stroke="#63b8ff" d="M793.98,-57.07C819.18,-48.22 855.91,-35.31 883.75,-25.54"/>
<polygon fill="#63b8ff" stroke="#63b8ff" points="884.66,-28.58 892.94,-21.96 882.34,-21.97 884.66,-28.58"/>
</a>
</g>
</g>
<!-- Node9 -->
<g id="Node000009" class="node">
<title>Node9</title>
<g id="a_Node000009"><a xlink:title=" ">
<polygon fill="#e0e0e0" stroke="#999999" points="1103,-21.5 973,-21.5 973,0 1103,0 1103,-21.5"/>
<text text-anchor="middle" x="1038" y="-7.05" font-family="Consolas" font-size="11.00">armadillo/armadillo</text>
</a>
</g>
</g>
<!-- Node7&#45;&gt;Node9 -->
<g id="edge8_Node000007_Node000009" class="edge">
<title>Node7&#45;&gt;Node9</title>
<g id="a_edge8_Node000007_Node000009"><a xlink:title=" ">
<path fill="none" stroke="#63b8ff" d="M800.41,-60.05C845.18,-50.95 922.96,-35.14 977.28,-24.09"/>
<polygon fill="#63b8ff" stroke="#63b8ff" points="977.72,-27.37 986.82,-21.95 976.32,-20.51 977.72,-27.37"/>
</a>
</g>
</g>
<!-- Node10 -->
<g id="Node000010" class="node">
<title>Node10</title>
<g id="a_Node000010"><a xlink:title=" ">
<polygon fill="#e0e0e0" stroke="#999999" points="545,-21.5 469,-21.5 469,0 545,0 545,-21.5"/>
<text text-anchor="middle" x="507" y="-7.05" font-family="Consolas" font-size="11.00">filesystem</text>
</a>
</g>
</g>
<!-- Node7&#45;&gt;Node10 -->
<g id="edge9_Node000007_Node000010" class="edge">
<title>Node7&#45;&gt;Node10</title>
<g id="a_edge9_Node000007_Node000010"><a xlink:title=" ">
<path fill="none" stroke="#63b8ff" d="M729.67,-59.65C684.67,-49.97 606.67,-33.19 555.96,-22.28"/>
<polygon fill="#63b8ff" stroke="#63b8ff" points="556.77,-18.66 546.26,-19.98 555.3,-25.51 556.77,-18.66"/>
</a>
</g>
</g>
<!-- Node11 -->
<g id="Node000011" class="node">
<title>Node11</title>
<g id="a_Node000011"><a xlink:title=" ">
<polygon fill="#e0e0e0" stroke="#999999" points="645,-21.5 563,-21.5 563,0 645,0 645,-21.5"/>
<text text-anchor="middle" x="604" y="-7.05" font-family="Consolas" font-size="11.00">fmt/color.h</text>
</a>
</g>
</g>
<!-- Node7&#45;&gt;Node11 -->
<g id="edge10_Node000007_Node000011" class="edge">
<title>Node7&#45;&gt;Node11</title>
<g id="a_edge10_Node000007_Node000011"><a xlink:title=" ">
<path fill="none" stroke="#63b8ff" d="M735.47,-57.07C709.79,-48.22 672.36,-35.31 644,-25.54"/>
<polygon fill="#63b8ff" stroke="#63b8ff" points="645.21,-21.91 634.61,-21.96 642.93,-28.53 645.21,-21.91"/>
</a>
</g>
</g>
<!-- Node12 -->
<g id="Node000012" class="node">
<title>Node12</title>
<g id="a_Node000012"><a xlink:title=" ">
<polygon fill="#e0e0e0" stroke="#999999" points="709,-21.5 663,-21.5 663,0 709,0 709,-21.5"/>
<text text-anchor="middle" x="686" y="-7.05" font-family="Consolas" font-size="11.00">mutex</text>
</a>
</g>
</g>
<!-- Node7&#45;&gt;Node12 -->
<g id="edge11_Node000007_Node000012" class="edge">
<title>Node7&#45;&gt;Node12</title>
<g id="a_edge11_Node000007_Node000012"><a xlink:title=" ">
<path fill="none" stroke="#63b8ff" d="M750.51,-57.07C738.93,-48.93 722.47,-37.37 709.08,-27.97"/>
<polygon fill="#63b8ff" stroke="#63b8ff" points="711.59,-24.75 701.4,-21.87 707.57,-30.48 711.59,-24.75"/>
</a>
</g>
</g>
<!-- Node13 -->
<g id="Node000013" class="node">
<title>Node13</title>
<g id="a_Node000013"><a xlink:title=" ">
<polygon fill="#e0e0e0" stroke="#999999" points="803,-21.5 727,-21.5 727,0 803,0 803,-21.5"/>
<text text-anchor="middle" x="765" y="-7.05" font-family="Consolas" font-size="11.00">functional</text>
</a>
</g>
</g>
<!-- Node7&#45;&gt;Node13 -->
<g id="edge12_Node000007_Node000013" class="edge">
<title>Node7&#45;&gt;Node13</title>
<g id="a_edge12_Node000007_Node000013"><a xlink:title=" ">
<path fill="none" stroke="#63b8ff" d="M765,-57.07C765,-50.26 765,-41.06 765,-32.73"/>
<polygon fill="#63b8ff" stroke="#63b8ff" points="768.5,-32.86 765,-22.87 761.5,-32.87 768.5,-32.86"/>
</a>
</g>
</g>
<!-- Node14 -->
<g id="Node000014" class="node">
<title>Node14</title>
<g id="a_Node000014"><a xlink:title=" ">
<polygon fill="#e0e0e0" stroke="#999999" points="873,-21.5 821,-21.5 821,0 873,0 873,-21.5"/>
<text text-anchor="middle" x="847" y="-7.05" font-family="Consolas" font-size="11.00">memory</text>
</a>
</g>
</g>
<!-- Node7&#45;&gt;Node14 -->
<g id="edge13_Node000007_Node000014" class="edge">
<title>Node7&#45;&gt;Node14</title>
<g id="a_edge13_Node000007_Node000014"><a xlink:title=" ">
<path fill="none" stroke="#63b8ff" d="M780.04,-57.07C792.06,-48.93 809.14,-37.37 823.04,-27.97"/>
<polygon fill="#63b8ff" stroke="#63b8ff" points="824.74,-30.37 831.06,-21.87 820.81,-24.57 824.74,-30.37"/>
</a>
</g>
</g>
<!-- Node16&#45;&gt;Node6 -->
<g id="edge16_Node000016_Node000006" class="edge">
<title>Node16&#45;&gt;Node6</title>
<g id="a_edge16_Node000016_Node000006"><a xlink:title=" ">
<path fill="none" stroke="#63b8ff" d="M556.71,-179C563.67,-169.98 574.08,-156.47 582.58,-145.45"/>
<polygon fill="#63b8ff" stroke="#63b8ff" points="585.81,-147.99 589.15,-137.93 580.27,-143.72 585.81,-147.99"/>
</a>
</g>
</g>
<!-- Node18&#45;&gt;Node6 -->
<g id="edge20_Node000018_Node000006" class="edge">
<title>Node18&#45;&gt;Node6</title>
<g id="a_edge20_Node000018_Node000006"><a xlink:title=" ">
<path fill="none" stroke="#63b8ff" d="M242.93,-178.83C253.08,-176.59 263.9,-174.34 274,-172.5 367.63,-155.46 477.5,-141.08 541.96,-133.21"/>
<polygon fill="#63b8ff" stroke="#63b8ff" points="542.17,-136.59 551.68,-131.91 541.33,-129.64 542.17,-136.59"/>
</a>
</g>
</g>
<!-- Node19 -->
<g id="Node000019" class="node">
<title>Node19</title>
<g id="a_Node000019"><a xlink:title=" ">
<polygon fill="#e0e0e0" stroke="#999999" points="335,-136.5 283,-136.5 283,-115 335,-115 335,-136.5"/>
<text text-anchor="middle" x="309" y="-122.05" font-family="Consolas" font-size="11.00">future</text>
</a>
</g>
</g>
<!-- Node18&#45;&gt;Node19 -->
<g id="edge19_Node000018_Node000019" class="edge">
<title>Node18&#45;&gt;Node19</title>
<g id="a_edge19_Node000018_Node000019"><a xlink:title=" ">
<path fill="none" stroke="#63b8ff" d="M217.51,-179C234.81,-169.12 261.52,-153.87 281.62,-142.39"/>
<polygon fill="#63b8ff" stroke="#63b8ff" points="283.22,-144.93 290.17,-136.93 279.75,-138.85 283.22,-144.93"/>
</a>
</g>
</g>
<!-- Node20 -->
<g id="Node000020" class="node">
<title>Node20</title>
<g id="a_Node000020"><a xlink:href="../../d4/ddd/container_8h.html" target="_top" xlink:title=" ">
<polygon fill="white" stroke="#666666" points="265,-136.5 135,-136.5 135,-115 265,-115 265,-136.5"/>
<text text-anchor="middle" x="200" y="-122.05" font-family="Consolas" font-size="11.00">Toolbox/container.h</text>
</a>
</g>
</g>
<!-- Node18&#45;&gt;Node20 -->
<g id="edge21_Node000018_Node000020" class="edge">
<title>Node18&#45;&gt;Node20</title>
<g id="a_edge21_Node000018_Node000020"><a xlink:title=" ">
<path fill="none" stroke="#63b8ff" d="M200,-179C200,-170.61 200,-158.34 200,-147.8"/>
<polygon fill="#63b8ff" stroke="#63b8ff" points="203.5,-147.93 200,-137.93 196.5,-147.93 203.5,-147.93"/>
</a>
</g>
</g>
<!-- Node20&#45;&gt;Node7 -->
<g id="edge22_Node000020_Node000007" class="edge">
<title>Node20&#45;&gt;Node7</title>
<g id="a_edge22_Node000020_Node000007"><a xlink:title=" ">
<path fill="none" stroke="#63b8ff" d="M265.35,-116C268.27,-115.65 271.17,-115.32 274,-115 437.21,-96.65 631.54,-80.11 718.69,-72.97"/>
<polygon fill="#63b8ff" stroke="#63b8ff" points="718.84,-76.39 728.52,-72.09 718.27,-69.41 718.84,-76.39"/>
</a>
</g>
</g>
<!-- Node21 -->
<g id="Node000021" class="node">
<title>Node21</title>
<g id="a_Node000021"><a xlink:title=" ">
<polygon fill="#e0e0e0" stroke="#999999" points="258,-79 224,-79 224,-57.5 258,-57.5 258,-79"/>
<text text-anchor="middle" x="241" y="-64.55" font-family="Consolas" font-size="11.00">set</text>
</a>
</g>
</g>
<!-- Node20&#45;&gt;Node21 -->
<g id="edge23_Node000020_Node000021" class="edge">
<title>Node20&#45;&gt;Node21</title>
<g id="a_edge23_Node000020_Node000021"><a xlink:title=" ">
<path fill="none" stroke="#63b8ff" d="M207.52,-114.57C213.01,-107.14 220.61,-96.85 227.18,-87.95"/>
<polygon fill="#63b8ff" stroke="#63b8ff" points="230.4,-90.49 233.53,-80.37 224.77,-86.33 230.4,-90.49"/>
</a>
</g>
</g>
<!-- Node22 -->
<g id="Node000022" class="node">
<title>Node22</title>
<g id="a_Node000022"><a xlink:title=" ">
<polygon fill="#e0e0e0" stroke="#999999" points="310,-79 276,-79 276,-57.5 310,-57.5 310,-79"/>
<text text-anchor="middle" x="293" y="-64.55" font-family="Consolas" font-size="11.00">map</text>
</a>
</g>
</g>
<!-- Node20&#45;&gt;Node22 -->
<g id="edge24_Node000020_Node000022" class="edge">
<title>Node20&#45;&gt;Node22</title>
<g id="a_edge24_Node000020_Node000022"><a xlink:title=" ">
<path fill="none" stroke="#63b8ff" d="M217.06,-114.57C230.95,-106.28 250.81,-94.43 266.73,-84.93"/>
<polygon fill="#63b8ff" stroke="#63b8ff" points="268.26,-87.5 275.05,-79.37 264.67,-81.48 268.26,-87.5"/>
</a>
</g>
</g>
<!-- Node23 -->
<g id="Node000023" class="node">
<title>Node23</title>
<g id="a_Node000023"><a xlink:title=" ">
<polygon fill="#e0e0e0" stroke="#999999" points="94,-79 0,-79 0,-57.5 94,-57.5 94,-79"/>
<text text-anchor="middle" x="47" y="-64.55" font-family="Consolas" font-size="11.00">unordered_set</text>
</a>
</g>
</g>
<!-- Node20&#45;&gt;Node23 -->
<g id="edge25_Node000020_Node000023" class="edge">
<title>Node20&#45;&gt;Node23</title>
<g id="a_edge25_Node000020_Node000023"><a xlink:title=" ">
<path fill="none" stroke="#63b8ff" d="M171.94,-114.57C147.64,-105.76 112.28,-92.93 85.37,-83.17"/>
<polygon fill="#63b8ff" stroke="#63b8ff" points="86.74,-79.58 76.14,-79.46 84.35,-86.16 86.74,-79.58"/>
</a>
</g>
</g>
<!-- Node24 -->
<g id="Node000024" class="node">
<title>Node24</title>
<g id="a_Node000024"><a xlink:title=" ">
<polygon fill="#e0e0e0" stroke="#999999" points="206,-79 112,-79 112,-57.5 206,-57.5 206,-79"/>
<text text-anchor="middle" x="159" y="-64.55" font-family="Consolas" font-size="11.00">unordered_map</text>
</a>
</g>
</g>
<!-- Node20&#45;&gt;Node24 -->
<g id="edge26_Node000020_Node000024" class="edge">
<title>Node20&#45;&gt;Node24</title>
<g id="a_edge26_Node000020_Node000024"><a xlink:title=" ">
<path fill="none" stroke="#63b8ff" d="M192.48,-114.57C186.99,-107.14 179.39,-96.85 172.82,-87.95"/>
<polygon fill="#63b8ff" stroke="#63b8ff" points="175.23,-86.33 166.47,-80.37 169.6,-90.49 175.23,-86.33"/>
</a>
</g>
</g>
<!-- Node25&#45;&gt;Node6 -->
<g id="edge28_Node000025_Node000006" class="edge">
<title>Node25&#45;&gt;Node6</title>
<g id="a_edge28_Node000025_Node000006"><a xlink:title=" ">
<path fill="none" stroke="#63b8ff" d="M613.47,-243.2C621.11,-227.83 633.29,-197.6 626,-172.5 623.2,-162.87 617.71,-153.32 612.24,-145.46"/>
<polygon fill="#63b8ff" stroke="#63b8ff" points="614.57,-143.73 605.78,-137.82 608.96,-147.92 614.57,-143.73"/>
</a>
</g>
</g>
<!-- Node27 -->
<g id="Node000027" class="node">
<title>Node27</title>
<g id="a_Node000027"><a xlink:href="../../d3/d09/_material_8h.html" target="_top" xlink:title=" ">
<polygon fill="white" stroke="#666666" points="766,-380 636,-380 636,-358.5 766,-358.5 766,-380"/>
<text text-anchor="middle" x="701" y="-365.55" font-family="Consolas" font-size="11.00">Material/Material.h</text>
</a>
</g>
</g>
<!-- Node26&#45;&gt;Node27 -->
<g id="edge30_Node000026_Node000027" class="edge">
<title>Node26&#45;&gt;Node27</title>
<g id="a_edge30_Node000026_Node000027"><a xlink:title=" ">
<path fill="none" stroke="#63b8ff" d="M701,-415.82C701,-408.17 701,-399.03 701,-390.95"/>
<polygon fill="#63b8ff" stroke="#63b8ff" points="704.5,-391.17 701,-381.17 697.5,-391.17 704.5,-391.17"/>
</a>
</g>
</g>
<!-- Node27&#45;&gt;Node6 -->
<g id="edge31_Node000027_Node000006" class="edge">
<title>Node27&#45;&gt;Node6</title>
<g id="a_edge31_Node000027_Node000006"><a xlink:title=" ">
<path fill="none" stroke="#63b8ff" d="M698.23,-358.21C687.8,-320.58 651,-189.2 641,-172.5 634.72,-162.01 625.61,-152.01 617.31,-144.06"/>
<polygon fill="#63b8ff" stroke="#63b8ff" points="620.15,-142 610.41,-137.84 615.43,-147.17 620.15,-142"/>
</a>
</g>
</g>
<!-- Node28 -->
<g id="Node000028" class="node">
<title>Node28</title>
<g id="a_Node000028"><a xlink:href="../../df/dec/_parameter_type_8h.html" target="_top" xlink:title=" ">
<polygon fill="white" stroke="#666666" points="852,-322.5 698,-322.5 698,-301 852,-301 852,-322.5"/>
<text text-anchor="middle" x="775" y="-308.05" font-family="Consolas" font-size="11.00">Section/ParameterType.h</text>
</a>
</g>
</g>
<!-- Node27&#45;&gt;Node28 -->
<g id="edge32_Node000027_Node000028" class="edge">
<title>Node27&#45;&gt;Node28</title>
<g id="a_edge32_Node000027_Node000028"><a xlink:title=" ">
<path fill="none" stroke="#63b8ff" d="M714.57,-358.07C725.32,-350.01 740.54,-338.6 753.02,-329.24"/>
<polygon fill="#63b8ff" stroke="#63b8ff" points="754.61,-331.67 760.51,-322.87 750.41,-326.07 754.61,-331.67"/>
</a>
</g>
</g>
<!-- Node29&#45;&gt;Node9 -->
<g id="edge34_Node000029_Node000009" class="edge">
<title>Node29&#45;&gt;Node9</title>
<g id="a_edge34_Node000029_Node000009"><a xlink:title=" ">
<path fill="none" stroke="#63b8ff" d="M1038,-243.18C1038,-206.89 1038,-82.35 1038,-32.56"/>
<polygon fill="#63b8ff" stroke="#63b8ff" points="1041.5,-32.86 1038,-22.86 1034.5,-32.86 1041.5,-32.86"/>
</a>
</g>
</g>
<!-- Node30&#45;&gt;Node7 -->
<g id="edge36_Node000030_Node000007" class="edge">
<title>Node30&#45;&gt;Node7</title>
<g id="a_edge36_Node000030_Node000007"><a xlink:title=" ">
<path fill="none" stroke="#63b8ff" d="M843.72,-358.15C855.81,-338.96 880,-295.55 880,-255.25 880,-255.25 880,-255.25 880,-189 880,-140.47 830.25,-103.97 796.19,-84.68"/>
<polygon fill="#63b8ff" stroke="#63b8ff" points="798.09,-81.18 787.63,-79.47 794.74,-87.32 798.09,-81.18"/>
</a>
</g>
</g>
<!-- Node31&#45;&gt;Node7 -->
<g id="edge39_Node000031_Node000007" class="edge">
<title>Node31&#45;&gt;Node7</title>
<g id="a_edge39_Node000031_Node000007"><a xlink:title=" ">
<path fill="none" stroke="#63b8ff" d="M918,-422.56C918,-402.05 918,-353.5 918,-312.75 918,-312.75 918,-312.75 918,-189 918,-133.77 855.4,-100.2 810.29,-83.18"/>
<polygon fill="#63b8ff" stroke="#63b8ff" points="811.7,-79.6 801.1,-79.5 809.32,-86.19 811.7,-79.6"/>
</a>
</g>
</g>
<!-- Node32 -->
<g id="Node000032" class="node">
<title>Node32</title>
<g id="a_Node000032"><a xlink:title=" ">
<polygon fill="#e0e0e0" stroke="#999999" points="1010,-380 946,-380 946,-358.5 1010,-358.5 1010,-380"/>
<text text-anchor="middle" x="978" y="-365.55" font-family="Consolas" font-size="11.00">concepts</text>
</a>
</g>
</g>
<!-- Node31&#45;&gt;Node32 -->
<g id="edge38_Node000031_Node000032" class="edge">
<title>Node31&#45;&gt;Node32</title>
<g id="a_edge38_Node000031_Node000032"><a xlink:title=" ">
<path fill="none" stroke="#63b8ff" d="M927.64,-422.5C936.51,-413.3 949.87,-399.43 960.61,-388.29"/>
<polygon fill="#63b8ff" stroke="#63b8ff" points="962.76,-391.06 967.18,-381.43 957.72,-386.2 962.76,-391.06"/>
</a>
</g>
</g>
</g>
</svg>

<g id="navigator" transform="translate(0 0)" fill="#404254">
  <rect fill="#f2f5e9" fill-opacity="0.5" stroke="#606060" stroke-width=".5" x="0" y="0" width="60" height="60"/>
  <use id="zoomplus" xlink:href="#zoomPlus" x="17" y="9" onmousedown="handleZoom(evt,'in')"/>
  <use id="zoomminus" xlink:href="#zoomMin" x="42" y="9" onmousedown="handleZoom(evt,'out')"/>
  <use id="reset" xlink:href="#resetDef" x="30" y="36" onmousedown="handleReset()"/>
   <use id="arrowup" xlink:href="#arrowUp" x="0" y="0" onmousedown="handlePan(0,-1)"/>
  <use id="arrowright" xlink:href="#arrowRight" x="0" y="0" onmousedown="handlePan(1,0)"/>
  <use id="arrowdown" xlink:href="#arrowDown" x="0" y="0" onmousedown="handlePan(0,1)"/>
  <use id="arrowleft" xlink:href="#arrowLeft" x="0" y="0" onmousedown="handlePan(-1,0)"/>
</g>
<svg viewBox="0 0 15 15" width="100%" height="30px" preserveAspectRatio="xMaxYMin meet">
 <g id="arrow_out" transform="scale(0.3 0.3)">
  <a xlink:href="_c_a_x8_8cpp__incl_org.svg" target="_base">
   <rect id="button" ry="5" rx="5" y="6" x="6" height="38" width="38"
        fill="#f2f5e9" fill-opacity="0.5" stroke="#606060" stroke-width="1.0"/>
   <path id="arrow"
     d="M 11.500037,31.436501 C 11.940474,20.09759 22.043105,11.32322 32.158766,21.979434 L 37.068811,17.246167 C 37.068811,17.246167 37.088388,32 37.088388,32 L 22.160133,31.978069 C 22.160133,31.978069 26.997745,27.140456 26.997745,27.140456 C 18.528582,18.264221 13.291696,25.230495 11.500037,31.436501 z"
     style="fill:#404040;"/>
  </a>
 </g>
</svg>

<style type='text/css'>
<![CDATA[
[data-mouse-over-selected='false'] { opacity: 0.7; }
[data-mouse-over-selected='true']  { opacity: 1.0; }
]]>
</style>
<script type="application/ecmascript"><![CDATA[
document.addEventListener('DOMContentLoaded', (event) => {
  highlightEdges();
  highlightAdjacentNodes();
});
]]></script>
</svg>
