<?xml version="1.0" encoding="UTF-8" standalone="no"?>
<!DOCTYPE svg PUBLIC "-//W3C//DTD SVG 1.1//EN"
 "http://www.w3.org/Graphics/SVG/1.1/DTD/svg11.dtd">
<!-- Generated by graphviz version 2.43.0 (0)
 -->
<!-- Title: Vector2D&lt; T &gt; Pages: 1 -->
<svg width="154pt" height="264pt"
 viewBox="0.00 0.00 154.00 264.00" xmlns="http://www.w3.org/2000/svg" xmlns:xlink="http://www.w3.org/1999/xlink">

<svg id="main" version="1.1" xmlns="http://www.w3.org/2000/svg" xmlns:xlink="http://www.w3.org/1999/xlink" xml:space="preserve" onload="init(evt)">
<style type="text/css"><![CDATA[
.node, .edge {opacity: 0.7;}
.node.selected, .edge.selected {opacity: 1;}
.edge:hover path { stroke: red; }
.edge:hover polygon { stroke: red; fill: red; }
]]></style>
<script type="application/ecmascript" xlink:href="../../svg.min.js"/>
<svg id="graph" class="graph">
<g id="graph0" class="graph" transform="scale(1 1) rotate(0) translate(4 260)">
<title>Vector2D&lt; T &gt;</title>
<!-- Node1 -->
<g id="Node000001" class="node">
<title>Node1</title>
<g id="a_Node000001"><a xlink:title=" ">
<polygon fill="#999999" stroke="transparent" points="122,-256 24,-256 24,-188 122,-188 122,-256"/>
<text text-anchor="start" x="29" y="-243.2" font-family="Consolas" font-size="11.00">Vector2D&lt; T &gt;</text>
<text text-anchor="start" x="46" y="-227.2" font-family="Consolas" font-size="11.00">+</text>
<text text-anchor="start" x="75" y="-227.2" font-family="Consolas" font-size="11.00">x</text>
<text text-anchor="start" x="46" y="-211.2" font-family="Consolas" font-size="11.00">+</text>
<text text-anchor="start" x="75" y="-211.2" font-family="Consolas" font-size="11.00">y</text>
<text text-anchor="start" x="69.5" y="-195.2" font-family="Consolas" font-size="11.00"> </text>
<polygon fill="#666666" stroke="#666666" points="24,-238 24,-238 122,-238 122,-238 24,-238"/>
<polygon fill="#666666" stroke="#666666" points="24,-206 24,-206 73,-206 73,-206 24,-206"/>
<polygon fill="#666666" stroke="#666666" points="73,-206 73,-206 122,-206 122,-206 73,-206"/>
<polygon fill="none" stroke="#666666" points="24,-188 24,-256 122,-256 122,-188 24,-188"/>
</a>
</g>
</g>
<!-- Node2 -->
<g id="Node000002" class="node">
<title>Node2</title>
<g id="a_Node000002"><a xlink:href="../../d1/d6e/struct_node2_d.html" target="_top" xlink:title=" ">
<polygon fill="white" stroke="transparent" points="115.5,-152 30.5,-152 30.5,-100 115.5,-100 115.5,-152"/>
<text text-anchor="start" x="36" y="-139.2" font-family="Consolas" font-size="11.00">Node2D&lt; T &gt;</text>
<text text-anchor="start" x="48" y="-123.2" font-family="Consolas" font-size="11.00">+</text>
<text text-anchor="start" x="72" y="-123.2" font-family="Consolas" font-size="11.00">id</text>
<text text-anchor="start" x="70" y="-107.2" font-family="Consolas" font-size="11.00"> </text>
<polygon fill="#666666" stroke="#666666" points="31,-134 31,-134 116,-134 116,-134 31,-134"/>
<polygon fill="#666666" stroke="#666666" points="31,-118 31,-118 70,-118 70,-118 31,-118"/>
<polygon fill="#666666" stroke="#666666" points="70,-118 70,-118 116,-118 116,-118 70,-118"/>
<polygon fill="none" stroke="#666666" points="30.5,-100 30.5,-152 115.5,-152 115.5,-100 30.5,-100"/>
</a>
</g>
</g>
<!-- Node1&#45;&gt;Node2 -->
<g id="edge1_Node000001_Node000002" class="edge">
<title>Node1&#45;&gt;Node2</title>
<g id="a_edge1_Node000001_Node000002"><a xlink:title=" ">
<path fill="none" stroke="#63b8ff" d="M73,-177.73C73,-168.97 73,-160.04 73,-152.16"/>
<polygon fill="none" stroke="#63b8ff" points="69.5,-177.86 73,-187.86 76.5,-177.86 69.5,-177.86"/>
</a>
</g>
</g>
<!-- Node3 -->
<g id="Node000003" class="node">
<title>Node3</title>
<g id="a_Node000003"><a xlink:href="../../d5/df5/struct_ref_node2_d.html" target="_top" xlink:title=" ">
<polygon fill="white" stroke="transparent" points="146,-64 0,-64 0,0 146,0 146,-64"/>
<text text-anchor="start" x="5" y="-51.2" font-family="Consolas" font-size="11.00">RefNode2D&lt; T, BUCKET</text>
<text text-anchor="start" x="49" y="-39.2" font-family="Consolas" font-size="11.00">_SIZE &gt;</text>
<text text-anchor="start" x="28.5" y="-23.2" font-family="Consolas" font-size="11.00">+</text>
<text text-anchor="start" x="64" y="-23.2" font-family="Consolas" font-size="11.00">tree</text>
<text text-anchor="start" x="69.5" y="-7.2" font-family="Consolas" font-size="11.00"> </text>
<polygon fill="#666666" stroke="#666666" points="0,-34 0,-34 146,-34 146,-34 0,-34"/>
<polygon fill="#666666" stroke="#666666" points="0,-18 0,-18 62,-18 62,-18 0,-18"/>
<polygon fill="#666666" stroke="#666666" points="62,-18 62,-18 146,-18 146,-18 62,-18"/>
<polygon fill="none" stroke="#666666" points="0,0 0,-64 146,-64 146,0 0,0"/>
</a>
</g>
</g>
<!-- Node2&#45;&gt;Node3 -->
<g id="edge2_Node000002_Node000003" class="edge">
<title>Node2&#45;&gt;Node3</title>
<g id="a_edge2_Node000002_Node000003"><a xlink:title=" ">
<path fill="none" stroke="#63b8ff" d="M73,-89.84C73,-81.34 73,-72.31 73,-64.02"/>
<polygon fill="none" stroke="#63b8ff" points="69.5,-89.86 73,-99.86 76.5,-89.86 69.5,-89.86"/>
</a>
</g>
</g>
</g>
</svg>
</svg>

<style type='text/css'>
<![CDATA[
[data-mouse-over-selected='false'] { opacity: 0.7; }
[data-mouse-over-selected='true']  { opacity: 1.0; }
]]>
</style>
<script type="application/ecmascript"><![CDATA[
document.addEventListener('DOMContentLoaded', (event) => {
  highlightEdges();
  highlightAdjacentNodes();
});
]]></script>
</svg>
