<?xml version="1.0" encoding="UTF-8" standalone="no"?>
<!DOCTYPE svg PUBLIC "-//W3C//DTD SVG 1.1//EN"
 "http://www.w3.org/Graphics/SVG/1.1/DTD/svg11.dtd">
<!-- Generated by graphviz version 2.43.0 (0)
 -->
<!-- Title: Element/Utility/MatrixModifier.hpp Pages: 1 -->
<svg width="927pt" height="320pt"
 viewBox="0.00 0.00 926.58 320.00" xmlns="http://www.w3.org/2000/svg" xmlns:xlink="http://www.w3.org/1999/xlink">
<g id="graph0" class="graph" transform="scale(1 1) rotate(0) translate(4 316)">
<title>Element/Utility/MatrixModifier.hpp</title>
<!-- Node1 -->
<g id="Node000001" class="node">
<title>Node1</title>
<g id="a_Node000001"><a xlink:title=" ">
<polygon fill="#999999" stroke="#666666" points="905.5,-312 659.5,-312 659.5,-292 905.5,-292 905.5,-312"/>
<text text-anchor="middle" x="782.5" y="-299.2" font-family="Consolas" font-size="11.00">Element/Utility/MatrixModifier.hpp</text>
</a>
</g>
</g>
<!-- Node2 -->
<g id="Node000002" class="node">
<title>Node2</title>
<g id="a_Node000002"><a xlink:href="../../d0/db8/_element_8h.html" target="_top" xlink:title=" ">
<polygon fill="white" stroke="#666666" points="637,-256 506,-256 506,-236 637,-236 637,-256"/>
<text text-anchor="middle" x="571.5" y="-243.2" font-family="Consolas" font-size="11.00">Element/Element.h</text>
</a>
</g>
</g>
<!-- Node1&#45;&gt;Node2 -->
<g id="edge1_Node000001_Node000002" class="edge">
<title>Node1&#45;&gt;Node2</title>
<g id="a_edge1_Node000001_Node000002"><a xlink:title=" ">
<path fill="none" stroke="#63b8ff" d="M747.18,-291.96C711.43,-282.81 655.99,-268.62 616.97,-258.64"/>
<polygon fill="#63b8ff" stroke="#63b8ff" points="617.49,-255.16 606.93,-256.07 615.75,-261.94 617.49,-255.16"/>
</a>
</g>
</g>
<!-- Node4 -->
<g id="Node000004" class="node">
<title>Node4</title>
<g id="a_Node000004"><a xlink:href="../../d8/d8f/suan_pan_8h.html" target="_top" xlink:title=" ">
<polygon fill="white" stroke="#666666" points="610,-76 533,-76 533,-56 610,-56 610,-76"/>
<text text-anchor="middle" x="571.5" y="-63.2" font-family="Consolas" font-size="11.00">suanPan.h</text>
</a>
</g>
</g>
<!-- Node1&#45;&gt;Node4 -->
<g id="edge19_Node000001_Node000004" class="edge">
<title>Node1&#45;&gt;Node4</title>
<g id="a_edge19_Node000001_Node000004"><a xlink:title=" ">
<path fill="none" stroke="#63b8ff" d="M796.6,-291.9C839,-263.46 959.11,-174.49 904.5,-112 868.19,-70.45 703.73,-65.74 620.32,-66.1"/>
<polygon fill="#63b8ff" stroke="#63b8ff" points="620.06,-62.61 610.08,-66.18 620.11,-69.61 620.06,-62.61"/>
</a>
</g>
</g>
<!-- Node3 -->
<g id="Node000003" class="node">
<title>Node3</title>
<g id="a_Node000003"><a xlink:href="../../d1/d48/_distributed_8h.html" target="_top" xlink:title=" ">
<polygon fill="white" stroke="#666666" points="466.5,-200 308.5,-200 308.5,-180 466.5,-180 466.5,-200"/>
<text text-anchor="middle" x="387.5" y="-187.2" font-family="Consolas" font-size="11.00">Element/Distributed.h</text>
</a>
</g>
</g>
<!-- Node2&#45;&gt;Node3 -->
<g id="edge2_Node000002_Node000003" class="edge">
<title>Node2&#45;&gt;Node3</title>
<g id="a_edge2_Node000002_Node000003"><a xlink:title=" ">
<path fill="none" stroke="#63b8ff" d="M540.7,-235.96C509.79,-226.89 462,-212.86 428.03,-202.89"/>
<polygon fill="#63b8ff" stroke="#63b8ff" points="428.98,-199.53 418.4,-200.07 427.01,-206.24 428.98,-199.53"/>
</a>
</g>
</g>
<!-- Node13 -->
<g id="Node000013" class="node">
<title>Node13</title>
<g id="a_Node000013"><a xlink:href="../../d9/d82/_element_base_8h.html" target="_top" xlink:title=" ">
<polygon fill="white" stroke="#666666" points="650.5,-200 492.5,-200 492.5,-180 650.5,-180 650.5,-200"/>
<text text-anchor="middle" x="571.5" y="-187.2" font-family="Consolas" font-size="11.00">Element/ElementBase.h</text>
</a>
</g>
</g>
<!-- Node2&#45;&gt;Node13 -->
<g id="edge12_Node000002_Node000013" class="edge">
<title>Node2&#45;&gt;Node13</title>
<g id="a_edge12_Node000002_Node000013"><a xlink:title=" ">
<path fill="none" stroke="#63b8ff" d="M571.5,-235.59C571.5,-228.7 571.5,-219.1 571.5,-210.57"/>
<polygon fill="#63b8ff" stroke="#63b8ff" points="575,-210.3 571.5,-200.3 568,-210.3 575,-210.3"/>
</a>
</g>
</g>
<!-- Node3&#45;&gt;Node4 -->
<g id="edge3_Node000003_Node000004" class="edge">
<title>Node3&#45;&gt;Node4</title>
<g id="a_edge3_Node000003_Node000004"><a xlink:title=" ">
<path fill="none" stroke="#63b8ff" d="M366.69,-179.94C352.52,-172.53 334.86,-160.56 326.5,-144 320.09,-131.3 317.4,-122.93 326.5,-112 350.95,-82.65 458.33,-72.38 522.54,-68.83"/>
<polygon fill="#63b8ff" stroke="#63b8ff" points="523.03,-72.31 532.84,-68.3 522.67,-65.32 523.03,-72.31"/>
</a>
</g>
</g>
<!-- Node5 -->
<g id="Node000005" class="node">
<title>Node5</title>
<g id="a_Node000005"><a xlink:title=" ">
<polygon fill="#e0e0e0" stroke="#999999" points="71,-20 0,-20 0,0 71,0 71,-20"/>
<text text-anchor="middle" x="35.5" y="-7.2" font-family="Consolas" font-size="11.00">iostream</text>
</a>
</g>
</g>
<!-- Node4&#45;&gt;Node5 -->
<g id="edge4_Node000004_Node000005" class="edge">
<title>Node4&#45;&gt;Node5</title>
<g id="a_edge4_Node000004_Node000005"><a xlink:title=" ">
<path fill="none" stroke="#63b8ff" d="M532.74,-62.92C451.02,-58.21 254.96,-45.26 81.53,-20.17"/>
<polygon fill="#63b8ff" stroke="#63b8ff" points="81.86,-16.68 71.46,-18.69 80.85,-23.61 81.86,-16.68"/>
</a>
</g>
</g>
<!-- Node6 -->
<g id="Node000006" class="node">
<title>Node6</title>
<g id="a_Node000006"><a xlink:title=" ">
<polygon fill="#e0e0e0" stroke="#999999" points="234,-20 89,-20 89,0 234,0 234,-20"/>
<text text-anchor="middle" x="161.5" y="-7.2" font-family="Consolas" font-size="11.00">armadillo/armadillo</text>
</a>
</g>
</g>
<!-- Node4&#45;&gt;Node6 -->
<g id="edge5_Node000004_Node000006" class="edge">
<title>Node4&#45;&gt;Node6</title>
<g id="a_edge5_Node000004_Node000006"><a xlink:title=" ">
<path fill="none" stroke="#63b8ff" d="M532.93,-59.92C466.2,-51.13 327.96,-32.92 240.23,-21.37"/>
<polygon fill="#63b8ff" stroke="#63b8ff" points="240.43,-17.87 230.06,-20.03 239.52,-24.81 240.43,-17.87"/>
</a>
</g>
</g>
<!-- Node7 -->
<g id="Node000007" class="node">
<title>Node7</title>
<g id="a_Node000007"><a xlink:title=" ">
<polygon fill="#e0e0e0" stroke="#999999" points="458.5,-20 252.5,-20 252.5,0 458.5,0 458.5,-20"/>
<text text-anchor="middle" x="355.5" y="-7.2" font-family="Consolas" font-size="11.00">armadillo/ext_def_lapack.hpp</text>
</a>
</g>
</g>
<!-- Node4&#45;&gt;Node7 -->
<g id="edge6_Node000004_Node000007" class="edge">
<title>Node4&#45;&gt;Node7</title>
<g id="a_edge6_Node000004_Node000007"><a xlink:title=" ">
<path fill="none" stroke="#63b8ff" d="M535.35,-55.96C498.59,-46.77 441.51,-32.5 401.54,-22.51"/>
<polygon fill="#63b8ff" stroke="#63b8ff" points="402.32,-19.1 391.77,-20.07 400.62,-25.89 402.32,-19.1"/>
</a>
</g>
</g>
<!-- Node8 -->
<g id="Node000008" class="node">
<title>Node8</title>
<g id="a_Node000008"><a xlink:title=" ">
<polygon fill="#e0e0e0" stroke="#999999" points="560.5,-20 476.5,-20 476.5,0 560.5,0 560.5,-20"/>
<text text-anchor="middle" x="518.5" y="-7.2" font-family="Consolas" font-size="11.00">filesystem</text>
</a>
</g>
</g>
<!-- Node4&#45;&gt;Node8 -->
<g id="edge7_Node000004_Node000008" class="edge">
<title>Node4&#45;&gt;Node8</title>
<g id="a_edge7_Node000004_Node000008"><a xlink:title=" ">
<path fill="none" stroke="#63b8ff" d="M562.27,-55.59C554.67,-47.85 543.71,-36.69 534.66,-27.47"/>
<polygon fill="#63b8ff" stroke="#63b8ff" points="537.13,-24.98 527.63,-20.3 532.13,-29.89 537.13,-24.98"/>
</a>
</g>
</g>
<!-- Node9 -->
<g id="Node000009" class="node">
<title>Node9</title>
<g id="a_Node000009"><a xlink:title=" ">
<polygon fill="#e0e0e0" stroke="#999999" points="670,-20 579,-20 579,0 670,0 670,-20"/>
<text text-anchor="middle" x="624.5" y="-7.2" font-family="Consolas" font-size="11.00">fmt/color.h</text>
</a>
</g>
</g>
<!-- Node4&#45;&gt;Node9 -->
<g id="edge8_Node000004_Node000009" class="edge">
<title>Node4&#45;&gt;Node9</title>
<g id="a_edge8_Node000004_Node000009"><a xlink:title=" ">
<path fill="none" stroke="#63b8ff" d="M580.73,-55.59C588.33,-47.85 599.29,-36.69 608.34,-27.47"/>
<polygon fill="#63b8ff" stroke="#63b8ff" points="610.87,-29.89 615.37,-20.3 605.87,-24.98 610.87,-29.89"/>
</a>
</g>
</g>
<!-- Node10 -->
<g id="Node000010" class="node">
<title>Node10</title>
<g id="a_Node000010"><a xlink:title=" ">
<polygon fill="#e0e0e0" stroke="#999999" points="738.5,-20 688.5,-20 688.5,0 738.5,0 738.5,-20"/>
<text text-anchor="middle" x="713.5" y="-7.2" font-family="Consolas" font-size="11.00">mutex</text>
</a>
</g>
</g>
<!-- Node4&#45;&gt;Node10 -->
<g id="edge9_Node000004_Node000010" class="edge">
<title>Node4&#45;&gt;Node10</title>
<g id="a_edge9_Node000004_Node000010"><a xlink:title=" ">
<path fill="none" stroke="#63b8ff" d="M595.27,-55.96C618.51,-47.12 654.11,-33.58 680.18,-23.67"/>
<polygon fill="#63b8ff" stroke="#63b8ff" points="681.55,-26.89 689.65,-20.07 679.06,-20.35 681.55,-26.89"/>
</a>
</g>
</g>
<!-- Node11 -->
<g id="Node000011" class="node">
<title>Node11</title>
<g id="a_Node000011"><a xlink:title=" ">
<polygon fill="#e0e0e0" stroke="#999999" points="840.5,-20 756.5,-20 756.5,0 840.5,0 840.5,-20"/>
<text text-anchor="middle" x="798.5" y="-7.2" font-family="Consolas" font-size="11.00">functional</text>
</a>
</g>
</g>
<!-- Node4&#45;&gt;Node11 -->
<g id="edge10_Node000004_Node000011" class="edge">
<title>Node4&#45;&gt;Node11</title>
<g id="a_edge10_Node000004_Node000011"><a xlink:title=" ">
<path fill="none" stroke="#63b8ff" d="M609.49,-55.96C648.29,-46.73 708.62,-32.38 750.65,-22.38"/>
<polygon fill="#63b8ff" stroke="#63b8ff" points="751.46,-25.79 760.38,-20.07 749.84,-18.98 751.46,-25.79"/>
</a>
</g>
</g>
<!-- Node12 -->
<g id="Node000012" class="node">
<title>Node12</title>
<g id="a_Node000012"><a xlink:title=" ">
<polygon fill="#e0e0e0" stroke="#999999" points="916,-20 859,-20 859,0 916,0 916,-20"/>
<text text-anchor="middle" x="887.5" y="-7.2" font-family="Consolas" font-size="11.00">memory</text>
</a>
</g>
</g>
<!-- Node4&#45;&gt;Node12 -->
<g id="edge11_Node000004_Node000012" class="edge">
<title>Node4&#45;&gt;Node12</title>
<g id="a_edge11_Node000004_Node000012"><a xlink:title=" ">
<path fill="none" stroke="#63b8ff" d="M610.34,-59.62C662.33,-52.21 757.62,-37.95 848.95,-19.98"/>
<polygon fill="#63b8ff" stroke="#63b8ff" points="849.79,-23.38 858.91,-18 848.42,-16.52 849.79,-23.38"/>
</a>
</g>
</g>
<!-- Node14 -->
<g id="Node000014" class="node">
<title>Node14</title>
<g id="a_Node000014"><a xlink:href="../../da/da5/_d_o_f_8h.html" target="_top" xlink:title=" ">
<polygon fill="white" stroke="#666666" points="433.5,-138 335.5,-138 335.5,-118 433.5,-118 433.5,-138"/>
<text text-anchor="middle" x="384.5" y="-125.2" font-family="Consolas" font-size="11.00">Domain/DOF.h</text>
</a>
</g>
</g>
<!-- Node13&#45;&gt;Node14 -->
<g id="edge13_Node000013_Node000014" class="edge">
<title>Node13&#45;&gt;Node14</title>
<g id="a_edge13_Node000013_Node000014"><a xlink:title=" ">
<path fill="none" stroke="#63b8ff" d="M543.1,-179.89C510.78,-169.52 457.88,-152.54 422.15,-141.08"/>
<polygon fill="#63b8ff" stroke="#63b8ff" points="423.15,-137.72 412.56,-138 421.01,-144.39 423.15,-137.72"/>
</a>
</g>
</g>
<!-- Node15 -->
<g id="Node000015" class="node">
<title>Node15</title>
<g id="a_Node000015"><a xlink:href="../../d2/d4a/_tag_8h.html" target="_top" xlink:title=" ">
<polygon fill="white" stroke="#666666" points="549.5,-138 451.5,-138 451.5,-118 549.5,-118 549.5,-138"/>
<text text-anchor="middle" x="500.5" y="-125.2" font-family="Consolas" font-size="11.00">Domain/Tag.h</text>
</a>
</g>
</g>
<!-- Node13&#45;&gt;Node15 -->
<g id="edge14_Node000013_Node000015" class="edge">
<title>Node13&#45;&gt;Node15</title>
<g id="a_edge14_Node000013_Node000015"><a xlink:title=" ">
<path fill="none" stroke="#63b8ff" d="M560.72,-179.89C549.77,-170.64 532.6,-156.13 519.39,-144.96"/>
<polygon fill="#63b8ff" stroke="#63b8ff" points="521.28,-141.98 511.38,-138.2 516.76,-147.33 521.28,-141.98"/>
</a>
</g>
</g>
<!-- Node16 -->
<g id="Node000016" class="node">
<title>Node16</title>
<g id="a_Node000016"><a xlink:href="../../d6/d94/_mapping_d_o_f_8h.html" target="_top" xlink:title=" ">
<polygon fill="white" stroke="#666666" points="719.5,-138 567.5,-138 567.5,-118 719.5,-118 719.5,-138"/>
<text text-anchor="middle" x="643.5" y="-125.2" font-family="Consolas" font-size="11.00">Element/MappingDOF.h</text>
</a>
</g>
</g>
<!-- Node13&#45;&gt;Node16 -->
<g id="edge16_Node000013_Node000016" class="edge">
<title>Node13&#45;&gt;Node16</title>
<g id="a_edge16_Node000013_Node000016"><a xlink:title=" ">
<path fill="none" stroke="#63b8ff" d="M582.44,-179.89C593.64,-170.55 611.28,-155.85 624.73,-144.64"/>
<polygon fill="#63b8ff" stroke="#63b8ff" points="627.02,-147.29 632.46,-138.2 622.54,-141.91 627.02,-147.29"/>
</a>
</g>
</g>
<!-- Node17 -->
<g id="Node000017" class="node">
<title>Node17</title>
<g id="a_Node000017"><a xlink:href="../../d9/dc0/vtk_base_8h.html" target="_top" xlink:title=" ">
<polygon fill="white" stroke="#666666" points="895.5,-144 737.5,-144 737.5,-112 895.5,-112 895.5,-144"/>
<text text-anchor="start" x="745.5" y="-131.2" font-family="Consolas" font-size="11.00">Element/Visualisation</text>
<text text-anchor="middle" x="816.5" y="-119.2" font-family="Consolas" font-size="11.00">/vtkBase.h</text>
</a>
</g>
</g>
<!-- Node13&#45;&gt;Node17 -->
<g id="edge18_Node000013_Node000017" class="edge">
<title>Node13&#45;&gt;Node17</title>
<g id="a_edge18_Node000013_Node000017"><a xlink:title=" ">
<path fill="none" stroke="#63b8ff" d="M608.44,-179.95C644.49,-171.13 700.26,-157.47 744.99,-146.51"/>
<polygon fill="#63b8ff" stroke="#63b8ff" points="746.06,-149.85 754.94,-144.08 744.39,-143.06 746.06,-149.85"/>
</a>
</g>
</g>
<!-- Node15&#45;&gt;Node4 -->
<g id="edge15_Node000015_Node000004" class="edge">
<title>Node15&#45;&gt;Node4</title>
<g id="a_edge15_Node000015_Node000004"><a xlink:title=" ">
<path fill="none" stroke="#63b8ff" d="M511.28,-117.89C522.23,-108.64 539.4,-94.13 552.61,-82.96"/>
<polygon fill="#63b8ff" stroke="#63b8ff" points="555.24,-85.33 560.62,-76.2 550.72,-79.98 555.24,-85.33"/>
</a>
</g>
</g>
<!-- Node16&#45;&gt;Node4 -->
<g id="edge17_Node000016_Node000004" class="edge">
<title>Node16&#45;&gt;Node4</title>
<g id="a_edge17_Node000016_Node000004"><a xlink:title=" ">
<path fill="none" stroke="#63b8ff" d="M632.56,-117.89C621.36,-108.55 603.72,-93.85 590.27,-82.64"/>
<polygon fill="#63b8ff" stroke="#63b8ff" points="592.46,-79.91 582.54,-76.2 587.98,-85.29 592.46,-79.91"/>
</a>
</g>
</g>
</g>
</svg>
