<?xml version="1.0" encoding="UTF-8" standalone="no"?>
<!DOCTYPE svg PUBLIC "-//W3C//DTD SVG 1.1//EN"
 "http://www.w3.org/Graphics/SVG/1.1/DTD/svg11.dtd">
<!-- Generated by graphviz version 5.0.0 (0)
 -->
<!-- Title: Joint::initialize Pages: 1 -->
<svg width="327pt" height="78pt"
 viewBox="0.00 0.00 327.00 78.00" xmlns="http://www.w3.org/2000/svg" xmlns:xlink="http://www.w3.org/1999/xlink">
<g id="graph0" class="graph" transform="scale(1 1) rotate(0) translate(4 74)">
<title>Joint::initialize</title>
<!-- Node1 -->
<g id="node1" class="node">
<title>Node1</title>
<g id="a_node1"><a xlink:title=" ">
<polygon fill="#999999" stroke="#666666" points="131,-48 0,-48 0,-28 131,-28 131,-48"/>
<text text-anchor="middle" x="65.5" y="-35.2" font-family="Consolas" font-size="11.00">Joint::initialize</text>
</a>
</g>
</g>
<!-- Node2 -->
<g id="node2" class="node">
<title>Node2</title>
<g id="a_node2"><a xlink:href="../../dc/dee/class_material.html#a9c7d7fb500f0e640a1b213c1fcc164a0" target="_top" xlink:title=" ">
<polygon fill="white" stroke="#666666" points="312,-70 174,-70 174,-50 312,-50 312,-70"/>
<text text-anchor="middle" x="243" y="-57.2" font-family="Consolas" font-size="11.00">Material::get_copy</text>
</a>
</g>
</g>
<!-- Node1&#45;&gt;Node2 -->
<g id="edge1" class="edge">
<title>Node1&#45;&gt;Node2</title>
<path fill="none" stroke="#63b8ff" d="M131.35,-46.13C141.97,-47.46 153.06,-48.85 163.96,-50.22"/>
<polygon fill="#63b8ff" stroke="#63b8ff" points="163.53,-53.69 173.89,-51.46 164.4,-46.74 163.53,-53.69"/>
</g>
<!-- Node3 -->
<g id="node3" class="node">
<title>Node3</title>
<g id="a_node3"><a xlink:href="../../d5/d50/class_element.html#a514d5fcb33eecd241efe7c02e52feb8c" target="_top" xlink:title=" ">
<polygon fill="white" stroke="#666666" points="319,-32 167,-32 167,0 319,0 319,-32"/>
<text text-anchor="start" x="175" y="-19.2" font-family="Consolas" font-size="11.00">Element::get_initial</text>
<text text-anchor="middle" x="243" y="-7.2" font-family="Consolas" font-size="11.00">_stiffness</text>
</a>
</g>
</g>
<!-- Node1&#45;&gt;Node3 -->
<g id="edge2" class="edge">
<title>Node1&#45;&gt;Node3</title>
<path fill="none" stroke="#63b8ff" d="M131.35,-29.87C139.63,-28.83 148.21,-27.76 156.75,-26.69"/>
<polygon fill="#63b8ff" stroke="#63b8ff" points="157.26,-30.15 166.74,-25.43 156.39,-23.21 157.26,-30.15"/>
</g>
</g>
</svg>
