<svg xmlns="http://www.w3.org/2000/svg" xmlns:xlink="http://www.w3.org/1999/xlink" width="374pt" height="218pt" viewBox="0 0 374 218"><g class="graph" transform="translate(4 214)"><title>triplet_form::assemble</title><g class="node"><title>Node1</title><a>
<path fill="#999" stroke="#666" d="M366-115H201v20h165z"/>
<text x="283.5" y="-102.2" font-family="Consolas" font-size="11" text-anchor="middle">triplet_form::assemble</text>
</a></g><g class="node"><title>Node2</title><a xlink:href="../../db/d78/classtriplet__form.html#ad2032be5942e6880a054251fea509548" target="_top">
<path fill="#fff" stroke="#666" d="M165-210H0v20h165z"/>
<text x="82.5" y="-197.2" font-family="Consolas" font-size="11" text-anchor="middle">triplet_form::assemble</text>
</a></g><g class="edge"><title>Node1-&gt;Node2</title><a>
<path fill="none" stroke="#63b8ff" d="M261.81-121.57C239.27-138.84 201.52-165.49 165-181c-8.42-3.58-17.64-6.55-26.74-8.99"/>
<path fill="#63b8ff" stroke="#63b8ff" d="m264.2-124.14 5.75 8.9-10.05-3.38z"/>
</a></g><g class="node"><title>Node3</title><a xlink:href="../../d5/d13/class_sparse_mat.html#a1209f77929fe749cb975f96f8020fa9d" target="_top">
<path fill="#fff" stroke="#666" d="M161.5-172H3.5v20h158z"/>
<text x="82.5" y="-159.2" font-family="Consolas" font-size="11" text-anchor="middle">SparseMat::scale_accu</text>
</a></g><g class="edge"><title>Node1-&gt;Node3</title><a>
<path fill="none" stroke="#63b8ff" d="M244.07-118.33C221.24-126.02 191.63-135.6 165-143c-11.34-3.15-23.66-6.21-35.21-8.92"/>
<path fill="#63b8ff" stroke="#63b8ff" d="m245.39-121.58 8.34 6.53-10.59.1z"/>
</a></g><g class="node"><title>Node4</title><a xlink:href="../../de/da5/_test_matrix_8cpp.html#a9d186fda5c8131978f3b427034559344" target="_top">
<path fill="#fff" stroke="#666" d="M121-134H44v20h77z"/>
<text x="82.5" y="-121.2" font-family="Consolas" font-size="11" text-anchor="middle">TEST_CASE</text>
</a></g><g class="edge"><title>Node1-&gt;Node4</title><a>
<path fill="none" stroke="#63b8ff" d="M190.86-113.75c-24.64-2.35-49.92-4.77-69.75-6.66"/>
<path fill="#63b8ff" stroke="#63b8ff" d="m191.36-117.22 9.62 4.44-10.28 2.53z"/>
</a></g><g class="node"><title>Node5</title><a xlink:href="../../de/da5/_test_matrix_8cpp.html#a8cb60efbfa2917c54d63467ede173c58" target="_top">
<path fill="#fff" stroke="#666" d="M121-96H44v20h77z"/>
<text x="82.5" y="-83.2" font-family="Consolas" font-size="11" text-anchor="middle">TEST_CASE</text>
</a></g><g class="edge"><title>Node1-&gt;Node5</title><a>
<path fill="none" stroke="#63b8ff" d="M190.86-96.25c-24.64 2.35-49.92 4.77-69.75 6.66"/>
<path fill="#63b8ff" stroke="#63b8ff" d="m190.7-99.75 10.28 2.53-9.62 4.44z"/>
</a></g><g class="node"><title>Node6</title><a xlink:href="../../de/da5/_test_matrix_8cpp.html#abe1486690d42c35718c38b1588fccdc3" target="_top">
<path fill="#fff" stroke="#666" d="M121-58H44v20h77z"/>
<text x="82.5" y="-45.2" font-family="Consolas" font-size="11" text-anchor="middle">TEST_CASE</text>
</a></g><g class="edge"><title>Node1-&gt;Node6</title><a>
<path fill="none" stroke="#63b8ff" d="M244.07-91.67C221.24-83.98 191.63-74.4 165-67c-14.14 3.93-29.81 7.71-43.6 10.86"/>
<path fill="#63b8ff" stroke="#63b8ff" d="m243.14-95.05 10.59.1-8.34 6.53z"/>
</a></g><g class="node"><title>Node7</title><a xlink:href="../../de/da5/_test_matrix_8cpp.html#a619d91479dd4fc7043266389f1e45b7f" target="_top">
<path fill="#fff" stroke="#666" d="M121-20H44V0h77z"/>
<text x="82.5" y="-7.2" font-family="Consolas" font-size="11" text-anchor="middle">TEST_CASE</text>
</a></g><g class="edge"><title>Node1-&gt;Node7</title><a>
<path fill="none" stroke="#63b8ff" d="M261.81-88.43C239.27-71.16 201.52-44.51 165-29c-13.77 5.85-29.66 10.07-43.72 13.02"/>
<path fill="#63b8ff" stroke="#63b8ff" d="m259.9-91.38 10.05-3.38-5.75 8.9z"/>
</a></g></g></svg>