<?xml version="1.0" encoding="UTF-8" standalone="no"?>
<!DOCTYPE svg PUBLIC "-//W3C//DTD SVG 1.1//EN"
 "http://www.w3.org/Graphics/SVG/1.1/DTD/svg11.dtd">
<!-- Generated by graphviz version 5.0.0 (0)
 -->
<!-- Title: suanPan.cpp Pages: 1 -->
<!--zoomable 364 -->
<svg id="main" version="1.1" xmlns="http://www.w3.org/2000/svg" xmlns:xlink="http://www.w3.org/1999/xlink" xml:space="preserve" onload="init(evt)">
<style type="text/css"><![CDATA[
.edge:hover path { stroke: red; }
.edge:hover polygon { stroke: red; fill: red; }
]]></style>
<script type="text/javascript"><![CDATA[
var edges = document.getElementsByTagName('g');
if (edges && edges.length) {
  for (var i=0;i<edges.length;i++) {
    if (edges[i].id.substr(0,4)=='edge') {
      edges[i].setAttribute('class','edge');
    }
  }
}
]]></script>
        <defs>
                <circle id="rim" cx="0" cy="0" r="7"/>
                <circle id="rim2" cx="0" cy="0" r="3.5"/>
                <g id="zoomPlus">
                        <use xlink:href="#rim" fill="#404040">
                                <set attributeName="fill" to="#808080" begin="zoomplus.mouseover" end="zoomplus.mouseout"/>
                        </use>
                        <path d="M-4,0h8M0,-4v8" fill="none" stroke="white" stroke-width="1.5" pointer-events="none"/>
                </g>
                <g id="zoomMin">
                        <use xlink:href="#rim" fill="#404040">
                                <set attributeName="fill" to="#808080" begin="zoomminus.mouseover" end="zoomminus.mouseout"/>
                        </use>
                        <path d="M-4,0h8" fill="none" stroke="white" stroke-width="1.5" pointer-events="none"/>
                </g>
                <g id="dirArrow">
                        <path fill="none" stroke="white" stroke-width="1.5" d="M0,-3.0v7 M-2.5,-0.5L0,-3.0L2.5,-0.5"/>
                </g>
               <g id="resetDef">
                       <use xlink:href="#rim2" fill="#404040">
                               <set attributeName="fill" to="#808080" begin="reset.mouseover" end="reset.mouseout"/>
                       </use>
               </g>
        </defs>

<script type="text/javascript">
var viewWidth = 700;
var viewHeight = 364;
var sectionId = 'dynsection-0';
</script>
<script xlink:href="../../svgpan.js"/>
<svg id="graph" class="graph">
<g id="viewport">
<title>suanPan.cpp</title>
<!-- Node1 -->
<g id="node1" class="node">
<title>Node1</title>
<g id="a_node1"><a xlink:title=" ">
<polygon fill="#999999" stroke="#666666" points="362,-356 271,-356 271,-336 362,-336 362,-356"/>
<text text-anchor="middle" x="316.5" y="-343.2" font-family="Consolas" font-size="11.00">suanPan.cpp</text>
</a>
</g>
</g>
<!-- Node2 -->
<g id="node2" class="node">
<title>Node2</title>
<g id="a_node2"><a xlink:href="../../db/d1e/argument_8h.html" target="_top" xlink:title=" ">
<polygon fill="white" stroke="#666666" points="337.5,-300 199.5,-300 199.5,-280 337.5,-280 337.5,-300"/>
<text text-anchor="middle" x="268.5" y="-287.2" font-family="Consolas" font-size="11.00">Toolbox/argument.h</text>
</a>
</g>
</g>
<!-- Node1&#45;&gt;Node2 -->
<g id="edge1" class="edge">
<title>Node1&#45;&gt;Node2</title>
<path fill="none" stroke="#63b8ff" d="M308.14,-335.59C301.39,-328.01 291.73,-317.13 283.63,-308.02"/>
<polygon fill="#63b8ff" stroke="#63b8ff" points="286.02,-305.45 276.77,-300.3 280.79,-310.1 286.02,-305.45"/>
</g>
<!-- Node6 -->
<g id="node6" class="node">
<title>Node6</title>
<g id="a_node6"><a xlink:href="../../d8/d8f/suan_pan_8h.html" target="_top" xlink:title=" ">
<polygon fill="white" stroke="#666666" points="439,-76 362,-76 362,-56 439,-56 439,-76"/>
<text text-anchor="middle" x="400.5" y="-63.2" font-family="Consolas" font-size="11.00">suanPan.h</text>
</a>
</g>
</g>
<!-- Node1&#45;&gt;Node6 -->
<g id="edge17" class="edge">
<title>Node1&#45;&gt;Node6</title>
<path fill="none" stroke="#63b8ff" d="M323.73,-335.91C337.36,-317.82 365.5,-275.56 365.5,-235 365.5,-235 365.5,-235 365.5,-177 365.5,-143.42 380.5,-106.67 390.86,-85.28"/>
<polygon fill="#63b8ff" stroke="#63b8ff" points="394.11,-86.61 395.49,-76.1 387.86,-83.46 394.11,-86.61"/>
</g>
<!-- Node3 -->
<g id="node3" class="node">
<title>Node3</title>
<g id="a_node3"><a xlink:href="../../da/da0/_bead_8h.html" target="_top" xlink:title=" ">
<polygon fill="white" stroke="#666666" points="314,-244 223,-244 223,-224 314,-224 314,-244"/>
<text text-anchor="middle" x="268.5" y="-231.2" font-family="Consolas" font-size="11.00">Step/Bead.h</text>
</a>
</g>
</g>
<!-- Node2&#45;&gt;Node3 -->
<g id="edge2" class="edge">
<title>Node2&#45;&gt;Node3</title>
<path fill="none" stroke="#63b8ff" d="M268.5,-279.59C268.5,-272.7 268.5,-263.1 268.5,-254.57"/>
<polygon fill="#63b8ff" stroke="#63b8ff" points="272,-254.3 268.5,-244.3 265,-254.3 272,-254.3"/>
</g>
<!-- Node4 -->
<g id="node4" class="node">
<title>Node4</title>
<g id="a_node4"><a xlink:href="../../d4/d48/_storage_8hpp.html" target="_top" xlink:title=" ">
<polygon fill="white" stroke="#666666" points="335.5,-188 197.5,-188 197.5,-168 335.5,-168 335.5,-188"/>
<text text-anchor="middle" x="266.5" y="-175.2" font-family="Consolas" font-size="11.00">Domain/Storage.hpp</text>
</a>
</g>
</g>
<!-- Node3&#45;&gt;Node4 -->
<g id="edge3" class="edge">
<title>Node3&#45;&gt;Node4</title>
<path fill="none" stroke="#63b8ff" d="M268.15,-223.59C267.9,-216.7 267.54,-207.1 267.22,-198.57"/>
<polygon fill="#63b8ff" stroke="#63b8ff" points="270.71,-198.16 266.84,-188.3 263.72,-198.42 270.71,-198.16"/>
</g>
<!-- Node5 -->
<g id="node5" class="node">
<title>Node5</title>
<g id="a_node5"><a xlink:href="../../d4/ddd/container_8h.html" target="_top" xlink:title=" ">
<polygon fill="white" stroke="#666666" points="303,-132 158,-132 158,-112 303,-112 303,-132"/>
<text text-anchor="middle" x="230.5" y="-119.2" font-family="Consolas" font-size="11.00">Toolbox/container.h</text>
</a>
</g>
</g>
<!-- Node4&#45;&gt;Node5 -->
<g id="edge4" class="edge">
<title>Node4&#45;&gt;Node5</title>
<path fill="none" stroke="#63b8ff" d="M260.23,-167.59C255.33,-160.24 248.36,-149.8 242.41,-140.87"/>
<polygon fill="#63b8ff" stroke="#63b8ff" points="245.16,-138.68 236.7,-132.3 239.33,-142.56 245.16,-138.68"/>
</g>
<!-- Node5&#45;&gt;Node6 -->
<g id="edge5" class="edge">
<title>Node5&#45;&gt;Node6</title>
<path fill="none" stroke="#63b8ff" d="M258.95,-111.96C287.27,-102.97 330.91,-89.11 362.25,-79.15"/>
<polygon fill="#63b8ff" stroke="#63b8ff" points="363.48,-82.43 371.95,-76.07 361.36,-75.76 363.48,-82.43"/>
</g>
<!-- Node14 -->
<g id="node14" class="node">
<title>Node14</title>
<g id="a_node14"><a xlink:title=" ">
<polygon fill="#e0e0e0" stroke="#999999" points="44,-76 7,-76 7,-56 44,-56 44,-76"/>
<text text-anchor="middle" x="25.5" y="-63.2" font-family="Consolas" font-size="11.00">set</text>
</a>
</g>
</g>
<!-- Node5&#45;&gt;Node14 -->
<g id="edge13" class="edge">
<title>Node5&#45;&gt;Node14</title>
<path fill="none" stroke="#63b8ff" d="M191.38,-111.99C157.29,-103.95 106.33,-91.45 53.85,-76.25"/>
<polygon fill="#63b8ff" stroke="#63b8ff" points="54.61,-72.83 44.03,-73.38 52.65,-79.54 54.61,-72.83"/>
</g>
<!-- Node15 -->
<g id="node15" class="node">
<title>Node15</title>
<g id="a_node15"><a xlink:title=" ">
<polygon fill="#e0e0e0" stroke="#999999" points="99,-76 62,-76 62,-56 99,-56 99,-76"/>
<text text-anchor="middle" x="80.5" y="-63.2" font-family="Consolas" font-size="11.00">map</text>
</a>
</g>
</g>
<!-- Node5&#45;&gt;Node15 -->
<g id="edge14" class="edge">
<title>Node5&#45;&gt;Node15</title>
<path fill="none" stroke="#63b8ff" d="M205.39,-111.96C178.65,-102.34 136.43,-87.13 108.59,-77.11"/>
<polygon fill="#63b8ff" stroke="#63b8ff" points="109.64,-73.77 99.05,-73.68 107.27,-80.36 109.64,-73.77"/>
</g>
<!-- Node16 -->
<g id="node16" class="node">
<title>Node16</title>
<g id="a_node16"><a xlink:title=" ">
<polygon fill="#e0e0e0" stroke="#999999" points="221.5,-76 117.5,-76 117.5,-56 221.5,-56 221.5,-76"/>
<text text-anchor="middle" x="169.5" y="-63.2" font-family="Consolas" font-size="11.00">unordered_set</text>
</a>
</g>
</g>
<!-- Node5&#45;&gt;Node16 -->
<g id="edge15" class="edge">
<title>Node5&#45;&gt;Node16</title>
<path fill="none" stroke="#63b8ff" d="M220.15,-111.84C211.16,-103.88 197.94,-92.17 187.25,-82.72"/>
<polygon fill="#63b8ff" stroke="#63b8ff" points="189.5,-80.03 179.69,-76.03 184.86,-85.27 189.5,-80.03"/>
</g>
<!-- Node17 -->
<g id="node17" class="node">
<title>Node17</title>
<g id="a_node17"><a xlink:title=" ">
<polygon fill="#e0e0e0" stroke="#999999" points="343.5,-76 239.5,-76 239.5,-56 343.5,-56 343.5,-76"/>
<text text-anchor="middle" x="291.5" y="-63.2" font-family="Consolas" font-size="11.00">unordered_map</text>
</a>
</g>
</g>
<!-- Node5&#45;&gt;Node17 -->
<g id="edge16" class="edge">
<title>Node5&#45;&gt;Node17</title>
<path fill="none" stroke="#63b8ff" d="M240.85,-111.84C249.84,-103.88 263.06,-92.17 273.75,-82.72"/>
<polygon fill="#63b8ff" stroke="#63b8ff" points="276.14,-85.27 281.31,-76.03 271.5,-80.03 276.14,-85.27"/>
</g>
<!-- Node7 -->
<g id="node7" class="node">
<title>Node7</title>
<g id="a_node7"><a xlink:title=" ">
<polygon fill="#e0e0e0" stroke="#999999" points="71,-20 0,-20 0,0 71,0 71,-20"/>
<text text-anchor="middle" x="35.5" y="-7.2" font-family="Consolas" font-size="11.00">iostream</text>
</a>
</g>
</g>
<!-- Node6&#45;&gt;Node7 -->
<g id="edge6" class="edge">
<title>Node6&#45;&gt;Node7</title>
<path fill="none" stroke="#63b8ff" d="M361.76,-57.55C358.63,-57 355.51,-56.48 352.5,-56 234.83,-37.22 201.91,-40.1 81.02,-20.16"/>
<polygon fill="#63b8ff" stroke="#63b8ff" points="81.44,-16.68 71,-18.49 80.29,-23.58 81.44,-16.68"/>
</g>
<!-- Node8 -->
<g id="node8" class="node">
<title>Node8</title>
<g id="a_node8"><a xlink:title=" ">
<polygon fill="#e0e0e0" stroke="#999999" points="234,-20 89,-20 89,0 234,0 234,-20"/>
<text text-anchor="middle" x="161.5" y="-7.2" font-family="Consolas" font-size="11.00">armadillo/armadillo</text>
</a>
</g>
</g>
<!-- Node6&#45;&gt;Node8 -->
<g id="edge7" class="edge">
<title>Node6&#45;&gt;Node8</title>
<path fill="none" stroke="#63b8ff" d="M361.83,-56.26C320.93,-47.02 256.25,-32.41 211.5,-22.3"/>
<polygon fill="#63b8ff" stroke="#63b8ff" points="212.23,-18.87 201.71,-20.08 210.69,-25.7 212.23,-18.87"/>
</g>
<!-- Node9 -->
<g id="node9" class="node">
<title>Node9</title>
<g id="a_node9"><a xlink:title=" ">
<polygon fill="#e0e0e0" stroke="#999999" points="336.5,-20 252.5,-20 252.5,0 336.5,0 336.5,-20"/>
<text text-anchor="middle" x="294.5" y="-7.2" font-family="Consolas" font-size="11.00">filesystem</text>
</a>
</g>
</g>
<!-- Node6&#45;&gt;Node9 -->
<g id="edge8" class="edge">
<title>Node6&#45;&gt;Node9</title>
<path fill="none" stroke="#63b8ff" d="M382.52,-55.84C365.74,-47.29 340.49,-34.43 321.34,-24.67"/>
<polygon fill="#63b8ff" stroke="#63b8ff" points="322.72,-21.45 312.22,-20.03 319.54,-27.68 322.72,-21.45"/>
</g>
<!-- Node10 -->
<g id="node10" class="node">
<title>Node10</title>
<g id="a_node10"><a xlink:title=" ">
<polygon fill="#e0e0e0" stroke="#999999" points="446,-20 355,-20 355,0 446,0 446,-20"/>
<text text-anchor="middle" x="400.5" y="-7.2" font-family="Consolas" font-size="11.00">fmt/color.h</text>
</a>
</g>
</g>
<!-- Node6&#45;&gt;Node10 -->
<g id="edge9" class="edge">
<title>Node6&#45;&gt;Node10</title>
<path fill="none" stroke="#63b8ff" d="M400.5,-55.59C400.5,-48.7 400.5,-39.1 400.5,-30.57"/>
<polygon fill="#63b8ff" stroke="#63b8ff" points="404,-30.3 400.5,-20.3 397,-30.3 404,-30.3"/>
</g>
<!-- Node11 -->
<g id="node11" class="node">
<title>Node11</title>
<g id="a_node11"><a xlink:title=" ">
<polygon fill="#e0e0e0" stroke="#999999" points="514.5,-20 464.5,-20 464.5,0 514.5,0 514.5,-20"/>
<text text-anchor="middle" x="489.5" y="-7.2" font-family="Consolas" font-size="11.00">mutex</text>
</a>
</g>
</g>
<!-- Node6&#45;&gt;Node11 -->
<g id="edge10" class="edge">
<title>Node6&#45;&gt;Node11</title>
<path fill="none" stroke="#63b8ff" d="M415.6,-55.84C429.36,-47.49 449.92,-35.02 465.86,-25.34"/>
<polygon fill="#63b8ff" stroke="#63b8ff" points="467.89,-28.2 474.63,-20.03 464.26,-22.22 467.89,-28.2"/>
</g>
<!-- Node12 -->
<g id="node12" class="node">
<title>Node12</title>
<g id="a_node12"><a xlink:title=" ">
<polygon fill="#e0e0e0" stroke="#999999" points="616.5,-20 532.5,-20 532.5,0 616.5,0 616.5,-20"/>
<text text-anchor="middle" x="574.5" y="-7.2" font-family="Consolas" font-size="11.00">functional</text>
</a>
</g>
</g>
<!-- Node6&#45;&gt;Node12 -->
<g id="edge11" class="edge">
<title>Node6&#45;&gt;Node12</title>
<path fill="none" stroke="#63b8ff" d="M429.62,-55.96C458.61,-46.97 503.27,-33.11 535.35,-23.15"/>
<polygon fill="#63b8ff" stroke="#63b8ff" points="536.77,-26.37 545.28,-20.07 534.69,-19.69 536.77,-26.37"/>
</g>
<!-- Node13 -->
<g id="node13" class="node">
<title>Node13</title>
<g id="a_node13"><a xlink:title=" ">
<polygon fill="#e0e0e0" stroke="#999999" points="692,-20 635,-20 635,0 692,0 692,-20"/>
<text text-anchor="middle" x="663.5" y="-7.2" font-family="Consolas" font-size="11.00">memory</text>
</a>
</g>
</g>
<!-- Node6&#45;&gt;Node13 -->
<g id="edge12" class="edge">
<title>Node6&#45;&gt;Node13</title>
<path fill="none" stroke="#63b8ff" d="M439.21,-57.69C482.09,-49.49 553.53,-35.56 624.83,-20.08"/>
<polygon fill="#63b8ff" stroke="#63b8ff" points="625.87,-23.44 634.89,-17.89 624.37,-16.6 625.87,-23.44"/>
</g>
</g>
</svg>
        <g id="navigator" transform="translate(0 0)" fill="#404254">
                <rect fill="#f2f5e9" fill-opacity="0.5" stroke="#606060" stroke-width=".5" x="0" y="0" width="60" height="60"/>
                <use id="zoomplus" xlink:href="#zoomPlus" x="17" y="9" onmousedown="handleZoom(evt,'in')"/>
                <use id="zoomminus" xlink:href="#zoomMin" x="42" y="9" onmousedown="handleZoom(evt,'out')"/>
                <use id="reset" xlink:href="#resetDef" x="30" y="36" onmousedown="handleReset()"/>
                <g id="arrowUp" xlink:href="#dirArrow" transform="translate(30 24)" onmousedown="handlePan(0,-1)">
                  <use xlink:href="#rim" fill="#404040">
                        <set attributeName="fill" to="#808080" begin="arrowUp.mouseover" end="arrowUp.mouseout"/>
                  </use>
                  <path fill="none" stroke="white" stroke-width="1.5" d="M0,-3.0v7 M-2.5,-0.5L0,-3.0L2.5,-0.5"/>
                </g>
                <g id="arrowRight" xlink:href="#dirArrow" transform="rotate(90) translate(36 -43)" onmousedown="handlePan(1,0)">
                  <use xlink:href="#rim" fill="#404040">
                        <set attributeName="fill" to="#808080" begin="arrowRight.mouseover" end="arrowRight.mouseout"/>
                  </use>
                  <path fill="none" stroke="white" stroke-width="1.5" d="M0,-3.0v7 M-2.5,-0.5L0,-3.0L2.5,-0.5"/>
                </g>
                <g id="arrowDown" xlink:href="#dirArrow" transform="rotate(180) translate(-30 -48)" onmousedown="handlePan(0,1)">
                  <use xlink:href="#rim" fill="#404040">
                        <set attributeName="fill" to="#808080" begin="arrowDown.mouseover" end="arrowDown.mouseout"/>
                  </use>
                  <path fill="none" stroke="white" stroke-width="1.5" d="M0,-3.0v7 M-2.5,-0.5L0,-3.0L2.5,-0.5"/>
                </g>
                <g id="arrowLeft" xlink:href="#dirArrow" transform="rotate(270) translate(-36 17)" onmousedown="handlePan(-1,0)">
                  <use xlink:href="#rim" fill="#404040">
                        <set attributeName="fill" to="#808080" begin="arrowLeft.mouseover" end="arrowLeft.mouseout"/>
                  </use>
                  <path fill="none" stroke="white" stroke-width="1.5" d="M0,-3.0v7 M-2.5,-0.5L0,-3.0L2.5,-0.5"/>
                </g>
        </g>
        <svg viewBox="0 0 15 15" width="100%" height="30px" preserveAspectRatio="xMaxYMin meet">
         <g id="arrow_out" transform="scale(0.3 0.3)">
          <a xlink:href="suan_pan_8cpp__incl_org.svg" target="_base">
           <rect id="button" ry="5" rx="5" y="6" x="6" height="38" width="38"
                fill="#f2f5e9" fill-opacity="0.5" stroke="#606060" stroke-width="1.0"/>
           <path id="arrow"
             d="M 11.500037,31.436501 C 11.940474,20.09759 22.043105,11.32322 32.158766,21.979434 L 37.068811,17.246167 C 37.068811,17.246167 37.088388,32 37.088388,32 L 22.160133,31.978069 C 22.160133,31.978069 26.997745,27.140456 26.997745,27.140456 C 18.528582,18.264221 13.291696,25.230495 11.500037,31.436501 z"
             style="fill:#404040;"/>
          </a>
         </g>
        </svg>
</svg>
