<?xml version="1.0" encoding="UTF-8" standalone="no"?>
<!DOCTYPE svg PUBLIC "-//W3C//DTD SVG 1.1//EN"
 "http://www.w3.org/Graphics/SVG/1.1/DTD/svg11.dtd">
<!-- Generated by graphviz version 2.43.0 (0)
 -->
<!-- Title: LinearDamage::initialize Pages: 1 -->
<svg width="657pt" height="122pt"
 viewBox="0.00 0.00 657.00 122.00" xmlns="http://www.w3.org/2000/svg" xmlns:xlink="http://www.w3.org/1999/xlink">
<g id="graph0" class="graph" transform="scale(1 1) rotate(0) translate(4 118)">
<title>LinearDamage::initialize</title>
<!-- Node1 -->
<g id="Node000001" class="node">
<title>Node1</title>
<g id="a_Node000001"><a xlink:title=" ">
<polygon fill="#999999" stroke="#666666" points="179,-48 0,-48 0,-28 179,-28 179,-48"/>
<text text-anchor="middle" x="89.5" y="-35.2" font-family="Consolas" font-size="11.00">LinearDamage::initialize</text>
</a>
</g>
</g>
<!-- Node2 -->
<g id="Node000002" class="node">
<title>Node2</title>
<g id="a_Node000002"><a xlink:href="../../de/d68/class_isotropic_damage.html#a99cc0ed8ca3d472a5645526eb7105c64" target="_top" xlink:title=" ">
<polygon fill="white" stroke="#666666" points="414,-70 215,-70 215,-50 414,-50 414,-70"/>
<text text-anchor="middle" x="314.5" y="-57.2" font-family="Consolas" font-size="11.00">IsotropicDamage::initialize</text>
</a>
</g>
</g>
<!-- Node1&#45;&gt;Node2 -->
<g id="edge1_Node000001_Node000002" class="edge">
<title>Node1&#45;&gt;Node2</title>
<g id="a_edge1_Node000001_Node000002"><a xlink:title=" ">
<path fill="none" stroke="#63b8ff" d="M179.28,-46.76C187.66,-47.58 196.22,-48.43 204.75,-49.27"/>
<polygon fill="#63b8ff" stroke="#63b8ff" points="204.46,-52.76 214.76,-50.26 205.15,-45.79 204.46,-52.76"/>
</a>
</g>
</g>
<!-- Node6 -->
<g id="Node000006" class="node">
<title>Node6</title>
<g id="a_Node000006"><a xlink:href="../../dc/dee/class_material.html#ac62c67f984ab44bbf36375e1a0ddfb35" target="_top" xlink:title=" ">
<polygon fill="white" stroke="#666666" points="390.5,-32 238.5,-32 238.5,0 390.5,0 390.5,-32"/>
<text text-anchor="start" x="246.5" y="-19.2" font-family="Consolas" font-size="11.00">Material::initialize</text>
<text text-anchor="middle" x="314.5" y="-7.2" font-family="Consolas" font-size="11.00">_history</text>
</a>
</g>
</g>
<!-- Node1&#45;&gt;Node6 -->
<g id="edge5_Node000001_Node000006" class="edge">
<title>Node1&#45;&gt;Node6</title>
<g id="a_edge5_Node000001_Node000006"><a xlink:title=" ">
<path fill="none" stroke="#63b8ff" d="M179.28,-29.24C195.32,-27.66 212.01,-26.01 227.96,-24.44"/>
<polygon fill="#63b8ff" stroke="#63b8ff" points="228.71,-27.88 238.32,-23.42 228.02,-20.92 228.71,-27.88"/>
</a>
</g>
</g>
<!-- Node3 -->
<g id="Node000003" class="node">
<title>Node3</title>
<g id="a_Node000003"><a xlink:href="../../dc/dee/class_material.html#aede2f9427250c8560ac6547b16d6110a" target="_top" xlink:title=" ">
<polygon fill="white" stroke="#666666" points="628.5,-114 470.5,-114 470.5,-94 628.5,-94 628.5,-114"/>
<text text-anchor="middle" x="549.5" y="-101.2" font-family="Consolas" font-size="11.00">Material::get_density</text>
</a>
</g>
</g>
<!-- Node2&#45;&gt;Node3 -->
<g id="edge2_Node000002_Node000003" class="edge">
<title>Node2&#45;&gt;Node3</title>
<g id="a_edge2_Node000002_Node000003"><a xlink:title=" ">
<path fill="none" stroke="#63b8ff" d="M368.66,-70.04C403.28,-76.58 448.63,-85.14 485.12,-92.03"/>
<polygon fill="#63b8ff" stroke="#63b8ff" points="484.69,-95.51 495.16,-93.93 485.99,-88.63 484.69,-95.51"/>
</a>
</g>
</g>
<!-- Node4 -->
<g id="Node000004" class="node">
<title>Node4</title>
<g id="a_Node000004"><a xlink:href="../../dc/dee/class_material.html#a7ee1a5e060b0dd313f95d1afa6a71db8" target="_top" xlink:title=" ">
<polygon fill="white" stroke="#666666" points="628.5,-76 470.5,-76 470.5,-44 628.5,-44 628.5,-76"/>
<text text-anchor="start" x="478.5" y="-63.2" font-family="Consolas" font-size="11.00">Material::get_initial</text>
<text text-anchor="middle" x="549.5" y="-51.2" font-family="Consolas" font-size="11.00">_stiffness</text>
</a>
</g>
</g>
<!-- Node2&#45;&gt;Node4 -->
<g id="edge3_Node000002_Node000004" class="edge">
<title>Node2&#45;&gt;Node4</title>
<g id="a_edge3_Node000002_Node000004"><a xlink:title=" ">
<path fill="none" stroke="#63b8ff" d="M414.31,-60C429.53,-60 445.16,-60 460.13,-60"/>
<polygon fill="#63b8ff" stroke="#63b8ff" points="460.38,-63.5 470.38,-60 460.38,-56.5 460.38,-63.5"/>
</a>
</g>
</g>
<!-- Node5 -->
<g id="Node000005" class="node">
<title>Node5</title>
<g id="a_Node000005"><a xlink:href="../../dc/dee/class_material.html#ab63edaec70fa7a7de3c1e8445fd3e908" target="_top" xlink:title=" ">
<polygon fill="white" stroke="#666666" points="649,-26 450,-26 450,-6 649,-6 649,-26"/>
<text text-anchor="middle" x="549.5" y="-13.2" font-family="Consolas" font-size="11.00">Material::get_material_type</text>
</a>
</g>
</g>
<!-- Node2&#45;&gt;Node5 -->
<g id="edge4_Node000002_Node000005" class="edge">
<title>Node2&#45;&gt;Node5</title>
<g id="a_edge4_Node000002_Node000005"><a xlink:title=" ">
<path fill="none" stroke="#63b8ff" d="M368.66,-49.96C403.28,-43.42 448.63,-34.86 485.12,-27.97"/>
<polygon fill="#63b8ff" stroke="#63b8ff" points="485.99,-31.37 495.16,-26.07 484.69,-24.49 485.99,-31.37"/>
</a>
</g>
</g>
</g>
</svg>
