<?xml version="1.0" encoding="UTF-8" standalone="no"?>
<!DOCTYPE svg PUBLIC "-//W3C//DTD SVG 1.1//EN"
 "http://www.w3.org/Graphics/SVG/1.1/DTD/svg11.dtd">
<!-- Generated by graphviz version 2.43.0 (0)
 -->
<!-- Title: create_new_constraint Pages: 1 -->
<svg width="481pt" height="104pt"
 viewBox="0.00 0.00 481.00 104.00" xmlns="http://www.w3.org/2000/svg" xmlns:xlink="http://www.w3.org/1999/xlink">

<svg id="main" version="1.1" xmlns="http://www.w3.org/2000/svg" xmlns:xlink="http://www.w3.org/1999/xlink" xml:space="preserve" onload="init(evt)">
<style type="text/css"><![CDATA[
.node, .edge {opacity: 0.7;}
.node.selected, .edge.selected {opacity: 1;}
.edge:hover path { stroke: red; }
.edge:hover polygon { stroke: red; fill: red; }
]]></style>
<script type="application/ecmascript" xlink:href="../../svg.min.js"/>
<svg id="graph" class="graph">
<g id="graph0" class="graph" transform="scale(1 1) rotate(0) translate(4 100)">
<title>create_new_constraint</title>
<!-- Node1 -->
<g id="Node000001" class="node">
<title>Node1</title>
<g id="a_Node000001"><a xlink:title=" ">
<polygon fill="#999999" stroke="#666666" points="158,-58 0,-58 0,-38 158,-38 158,-58"/>
<text text-anchor="middle" x="79" y="-45.2" font-family="Consolas" font-size="11.00">create_new_constraint</text>
</a>
</g>
</g>
<!-- Node2 -->
<g id="Node000002" class="node">
<title>Node2</title>
<g id="a_Node000002"><a xlink:href="../../d5/d47/utility_8h.html#a4b4099f386995446b94c21662e0cc440" target="_top" xlink:title=" ">
<polygon fill="white" stroke="#666666" points="318.5,-96 241.5,-96 241.5,-76 318.5,-76 318.5,-96"/>
<text text-anchor="middle" x="280" y="-83.2" font-family="Consolas" font-size="11.00">get_input</text>
</a>
</g>
</g>
<!-- Node1&#45;&gt;Node2 -->
<g id="edge1_Node000001_Node000002" class="edge">
<title>Node1&#45;&gt;Node2</title>
<g id="a_edge1_Node000001_Node000002"><a xlink:title=" ">
<path fill="none" stroke="#63b8ff" d="M132.55,-58.03C163.14,-63.88 201.42,-71.18 231.17,-76.87"/>
<polygon fill="#63b8ff" stroke="#63b8ff" points="230.83,-80.36 241.31,-78.8 232.14,-73.49 230.83,-80.36"/>
</a>
</g>
</g>
<!-- Node3 -->
<g id="Node000003" class="node">
<title>Node3</title>
<g id="a_Node000003"><a xlink:href="../../dc/dfa/utility_8cpp.html#aec5c03b9af3b75833d6e8a674d88f5fd" target="_top" xlink:title=" ">
<polygon fill="white" stroke="#666666" points="473,-39 402,-39 402,-19 473,-19 473,-39"/>
<text text-anchor="middle" x="437.5" y="-26.2" font-family="Consolas" font-size="11.00">is_equal</text>
</a>
</g>
</g>
<!-- Node1&#45;&gt;Node3 -->
<g id="edge2_Node000001_Node000003" class="edge">
<title>Node1&#45;&gt;Node3</title>
<g id="a_edge2_Node000001_Node000003"><a xlink:title=" ">
<path fill="none" stroke="#63b8ff" d="M158.24,-43.83C229.78,-40.02 333.1,-34.51 391.62,-31.39"/>
<polygon fill="#63b8ff" stroke="#63b8ff" points="391.86,-34.88 401.66,-30.86 391.49,-27.89 391.86,-34.88"/>
</a>
</g>
</g>
<!-- Node4 -->
<g id="Node000004" class="node">
<title>Node4</title>
<g id="a_Node000004"><a xlink:href="../../da/d46/group___utility.html#gabd767ffd3857c5ff3306421f11902484" target="_top" xlink:title=" ">
<polygon fill="white" stroke="#666666" points="366,-20 194,-20 194,0 366,0 366,-20"/>
<text text-anchor="middle" x="280" y="-7.2" font-family="Consolas" font-size="11.00">external_module::object</text>
</a>
</g>
</g>
<!-- Node1&#45;&gt;Node4 -->
<g id="edge3_Node000001_Node000004" class="edge">
<title>Node1&#45;&gt;Node4</title>
<g id="a_edge3_Node000001_Node000004"><a xlink:title=" ">
<path fill="none" stroke="#63b8ff" d="M132.55,-37.97C158.28,-33.05 189.44,-27.1 216.4,-21.95"/>
<polygon fill="#63b8ff" stroke="#63b8ff" points="217.34,-25.34 226.51,-20.02 216.03,-18.46 217.34,-25.34"/>
</a>
</g>
</g>
<!-- Node4&#45;&gt;Node3 -->
<g id="edge4_Node000004_Node000003" class="edge">
<title>Node4&#45;&gt;Node3</title>
<g id="a_edge4_Node000004_Node000003"><a xlink:title=" ">
<path fill="none" stroke="#63b8ff" d="M362.85,-20C372.84,-21.22 382.75,-22.43 391.9,-23.55"/>
<polygon fill="#63b8ff" stroke="#63b8ff" points="391.52,-27.03 401.87,-24.77 392.37,-20.08 391.52,-27.03"/>
</a>
</g>
</g>
</g>
</svg>
</svg>

<style type='text/css'>
<![CDATA[
[data-mouse-over-selected='false'] { opacity: 0.7; }
[data-mouse-over-selected='true']  { opacity: 1.0; }
]]>
</style>
<script type="application/ecmascript"><![CDATA[
document.addEventListener('DOMContentLoaded', (event) => {
  highlightEdges();
  highlightAdjacentNodes();
});
]]></script>
</svg>
