<?xml version="1.0" encoding="UTF-8" standalone="no"?>
<!DOCTYPE svg PUBLIC "-//W3C//DTD SVG 1.1//EN"
 "http://www.w3.org/Graphics/SVG/1.1/DTD/svg11.dtd">
<!-- Generated by graphviz version 5.0.0 (0)
 -->
<!-- Title: Element/Beam/B21H.h Pages: 1 -->
<svg width="700pt" height="376pt"
 viewBox="0.00 0.00 700.00 376.00" xmlns="http://www.w3.org/2000/svg" xmlns:xlink="http://www.w3.org/1999/xlink">
<g id="graph0" class="graph" transform="scale(1 1) rotate(0) translate(4 372)">
<title>Element/Beam/B21H.h</title>
<!-- Node1 -->
<g id="node1" class="node">
<title>Node1</title>
<g id="a_node1"><a xlink:title=" ">
<polygon fill="#999999" stroke="#666666" points="417,-368 272,-368 272,-348 417,-348 417,-368"/>
<text text-anchor="middle" x="344.5" y="-355.2" font-family="Consolas" font-size="11.00">Element/Beam/B21H.h</text>
</a>
</g>
</g>
<!-- Node2 -->
<g id="node2" class="node">
<title>Node2</title>
<g id="a_node2"><a xlink:href="../../d9/d41/_section_element_8h.html" target="_top" xlink:title=" ">
<polygon fill="white" stroke="#666666" points="339,-312 160,-312 160,-292 339,-292 339,-312"/>
<text text-anchor="middle" x="249.5" y="-299.2" font-family="Consolas" font-size="11.00">Element/SectionElement.h</text>
</a>
</g>
</g>
<!-- Node1&#45;&gt;Node2 -->
<g id="edge1" class="edge">
<title>Node1&#45;&gt;Node2</title>
<path fill="none" stroke="#63b8ff" d="M328.38,-347.84C313.56,-339.41 291.34,-326.78 274.26,-317.07"/>
<polygon fill="#63b8ff" stroke="#63b8ff" points="275.8,-313.92 265.38,-312.03 272.34,-320.01 275.8,-313.92"/>
</g>
<!-- Node16 -->
<g id="node16" class="node">
<title>Node16</title>
<g id="a_node16"><a xlink:href="../../d2/d0e/_b2_d_c_8h.html" target="_top" xlink:title=" ">
<polygon fill="white" stroke="#666666" points="522,-312 357,-312 357,-292 522,-292 522,-312"/>
<text text-anchor="middle" x="439.5" y="-299.2" font-family="Consolas" font-size="11.00">Element/Utility/B2DC.h</text>
</a>
</g>
</g>
<!-- Node1&#45;&gt;Node16 -->
<g id="edge15" class="edge">
<title>Node1&#45;&gt;Node16</title>
<path fill="none" stroke="#63b8ff" d="M360.62,-347.84C375.44,-339.41 397.66,-326.78 414.74,-317.07"/>
<polygon fill="#63b8ff" stroke="#63b8ff" points="416.66,-320.01 423.62,-312.03 413.2,-313.92 416.66,-320.01"/>
</g>
<!-- Node3 -->
<g id="node3" class="node">
<title>Node3</title>
<g id="a_node3"><a xlink:href="../../d0/db8/_element_8h.html" target="_top" xlink:title=" ">
<polygon fill="white" stroke="#666666" points="276,-256 145,-256 145,-236 276,-236 276,-256"/>
<text text-anchor="middle" x="210.5" y="-243.2" font-family="Consolas" font-size="11.00">Element/Element.h</text>
</a>
</g>
</g>
<!-- Node2&#45;&gt;Node3 -->
<g id="edge2" class="edge">
<title>Node2&#45;&gt;Node3</title>
<path fill="none" stroke="#63b8ff" d="M242.71,-291.59C237.34,-284.16 229.69,-273.58 223.2,-264.58"/>
<polygon fill="#63b8ff" stroke="#63b8ff" points="225.91,-262.36 217.22,-256.3 220.23,-266.45 225.91,-262.36"/>
</g>
<!-- Node15 -->
<g id="node15" class="node">
<title>Node15</title>
<g id="a_node15"><a xlink:href="../../da/da5/_d_o_f_8h.html" target="_top" xlink:title=" ">
<polygon fill="white" stroke="#666666" points="392.5,-256 294.5,-256 294.5,-236 392.5,-236 392.5,-256"/>
<text text-anchor="middle" x="343.5" y="-243.2" font-family="Consolas" font-size="11.00">Domain/DOF.h</text>
</a>
</g>
</g>
<!-- Node2&#45;&gt;Node15 -->
<g id="edge14" class="edge">
<title>Node2&#45;&gt;Node15</title>
<path fill="none" stroke="#63b8ff" d="M265.45,-291.84C280.12,-283.41 302.1,-270.78 319,-261.07"/>
<polygon fill="#63b8ff" stroke="#63b8ff" points="320.86,-264.04 327.79,-256.03 317.38,-257.97 320.86,-264.04"/>
</g>
<!-- Node4 -->
<g id="node4" class="node">
<title>Node4</title>
<g id="a_node4"><a xlink:href="../../d9/d82/_element_base_8h.html" target="_top" xlink:title=" ">
<polygon fill="white" stroke="#666666" points="302.5,-200 144.5,-200 144.5,-180 302.5,-180 302.5,-200"/>
<text text-anchor="middle" x="223.5" y="-187.2" font-family="Consolas" font-size="11.00">Element/ElementBase.h</text>
</a>
</g>
</g>
<!-- Node3&#45;&gt;Node4 -->
<g id="edge3" class="edge">
<title>Node3&#45;&gt;Node4</title>
<path fill="none" stroke="#63b8ff" d="M212.76,-235.59C214.44,-228.63 216.79,-218.89 218.86,-210.29"/>
<polygon fill="#63b8ff" stroke="#63b8ff" points="222.32,-210.84 221.26,-200.3 215.52,-209.2 222.32,-210.84"/>
</g>
<!-- Node5 -->
<g id="node5" class="node">
<title>Node5</title>
<g id="a_node5"><a xlink:href="../../d2/d4a/_tag_8h.html" target="_top" xlink:title=" ">
<polygon fill="white" stroke="#666666" points="449.5,-138 351.5,-138 351.5,-118 449.5,-118 449.5,-138"/>
<text text-anchor="middle" x="400.5" y="-125.2" font-family="Consolas" font-size="11.00">Domain/Tag.h</text>
</a>
</g>
</g>
<!-- Node4&#45;&gt;Node5 -->
<g id="edge4" class="edge">
<title>Node4&#45;&gt;Node5</title>
<path fill="none" stroke="#63b8ff" d="M250.38,-179.89C280.84,-169.56 330.62,-152.69 364.43,-141.23"/>
<polygon fill="#63b8ff" stroke="#63b8ff" points="365.6,-144.53 373.94,-138 363.35,-137.9 365.6,-144.53"/>
</g>
<!-- Node14 -->
<g id="node14" class="node">
<title>Node14</title>
<g id="a_node14"><a xlink:href="../../d9/dc0/vtk_base_8h.html" target="_top" xlink:title=" ">
<polygon fill="white" stroke="#666666" points="302.5,-144 144.5,-144 144.5,-112 302.5,-112 302.5,-144"/>
<text text-anchor="start" x="152.5" y="-131.2" font-family="Consolas" font-size="11.00">Element/Visualisation</text>
<text text-anchor="middle" x="223.5" y="-119.2" font-family="Consolas" font-size="11.00">/vtkBase.h</text>
</a>
</g>
</g>
<!-- Node4&#45;&gt;Node14 -->
<g id="edge13" class="edge">
<title>Node4&#45;&gt;Node14</title>
<path fill="none" stroke="#63b8ff" d="M223.5,-179.89C223.5,-173.1 223.5,-163.48 223.5,-154.44"/>
<polygon fill="#63b8ff" stroke="#63b8ff" points="227,-154.28 223.5,-144.28 220,-154.28 227,-154.28"/>
</g>
<!-- Node6 -->
<g id="node6" class="node">
<title>Node6</title>
<g id="a_node6"><a xlink:href="../../d8/d8f/suan_pan_8h.html" target="_top" xlink:title=" ">
<polygon fill="white" stroke="#666666" points="439,-76 362,-76 362,-56 439,-56 439,-76"/>
<text text-anchor="middle" x="400.5" y="-63.2" font-family="Consolas" font-size="11.00">suanPan.h</text>
</a>
</g>
</g>
<!-- Node5&#45;&gt;Node6 -->
<g id="edge5" class="edge">
<title>Node5&#45;&gt;Node6</title>
<path fill="none" stroke="#63b8ff" d="M400.5,-117.89C400.5,-109.52 400.5,-96.84 400.5,-86.23"/>
<polygon fill="#63b8ff" stroke="#63b8ff" points="404,-86.2 400.5,-76.2 397,-86.2 404,-86.2"/>
</g>
<!-- Node7 -->
<g id="node7" class="node">
<title>Node7</title>
<g id="a_node7"><a xlink:title=" ">
<polygon fill="#e0e0e0" stroke="#999999" points="71,-20 0,-20 0,0 71,0 71,-20"/>
<text text-anchor="middle" x="35.5" y="-7.2" font-family="Consolas" font-size="11.00">iostream</text>
</a>
</g>
</g>
<!-- Node6&#45;&gt;Node7 -->
<g id="edge6" class="edge">
<title>Node6&#45;&gt;Node7</title>
<path fill="none" stroke="#63b8ff" d="M361.84,-60.37C303.24,-53.19 188.22,-38.41 81.02,-20.18"/>
<polygon fill="#63b8ff" stroke="#63b8ff" points="81.45,-16.7 71.01,-18.46 80.27,-23.6 81.45,-16.7"/>
</g>
<!-- Node8 -->
<g id="node8" class="node">
<title>Node8</title>
<g id="a_node8"><a xlink:title=" ">
<polygon fill="#e0e0e0" stroke="#999999" points="234,-20 89,-20 89,0 234,0 234,-20"/>
<text text-anchor="middle" x="161.5" y="-7.2" font-family="Consolas" font-size="11.00">armadillo/armadillo</text>
</a>
</g>
</g>
<!-- Node6&#45;&gt;Node8 -->
<g id="edge7" class="edge">
<title>Node6&#45;&gt;Node8</title>
<path fill="none" stroke="#63b8ff" d="M361.83,-56.26C320.93,-47.02 256.25,-32.41 211.5,-22.3"/>
<polygon fill="#63b8ff" stroke="#63b8ff" points="212.23,-18.87 201.71,-20.08 210.69,-25.7 212.23,-18.87"/>
</g>
<!-- Node9 -->
<g id="node9" class="node">
<title>Node9</title>
<g id="a_node9"><a xlink:title=" ">
<polygon fill="#e0e0e0" stroke="#999999" points="336.5,-20 252.5,-20 252.5,0 336.5,0 336.5,-20"/>
<text text-anchor="middle" x="294.5" y="-7.2" font-family="Consolas" font-size="11.00">filesystem</text>
</a>
</g>
</g>
<!-- Node6&#45;&gt;Node9 -->
<g id="edge8" class="edge">
<title>Node6&#45;&gt;Node9</title>
<path fill="none" stroke="#63b8ff" d="M382.52,-55.84C365.74,-47.29 340.49,-34.43 321.34,-24.67"/>
<polygon fill="#63b8ff" stroke="#63b8ff" points="322.72,-21.45 312.22,-20.03 319.54,-27.68 322.72,-21.45"/>
</g>
<!-- Node10 -->
<g id="node10" class="node">
<title>Node10</title>
<g id="a_node10"><a xlink:title=" ">
<polygon fill="#e0e0e0" stroke="#999999" points="446,-20 355,-20 355,0 446,0 446,-20"/>
<text text-anchor="middle" x="400.5" y="-7.2" font-family="Consolas" font-size="11.00">fmt/color.h</text>
</a>
</g>
</g>
<!-- Node6&#45;&gt;Node10 -->
<g id="edge9" class="edge">
<title>Node6&#45;&gt;Node10</title>
<path fill="none" stroke="#63b8ff" d="M400.5,-55.59C400.5,-48.7 400.5,-39.1 400.5,-30.57"/>
<polygon fill="#63b8ff" stroke="#63b8ff" points="404,-30.3 400.5,-20.3 397,-30.3 404,-30.3"/>
</g>
<!-- Node11 -->
<g id="node11" class="node">
<title>Node11</title>
<g id="a_node11"><a xlink:title=" ">
<polygon fill="#e0e0e0" stroke="#999999" points="514.5,-20 464.5,-20 464.5,0 514.5,0 514.5,-20"/>
<text text-anchor="middle" x="489.5" y="-7.2" font-family="Consolas" font-size="11.00">mutex</text>
</a>
</g>
</g>
<!-- Node6&#45;&gt;Node11 -->
<g id="edge10" class="edge">
<title>Node6&#45;&gt;Node11</title>
<path fill="none" stroke="#63b8ff" d="M415.6,-55.84C429.36,-47.49 449.92,-35.02 465.86,-25.34"/>
<polygon fill="#63b8ff" stroke="#63b8ff" points="467.89,-28.2 474.63,-20.03 464.26,-22.22 467.89,-28.2"/>
</g>
<!-- Node12 -->
<g id="node12" class="node">
<title>Node12</title>
<g id="a_node12"><a xlink:title=" ">
<polygon fill="#e0e0e0" stroke="#999999" points="616.5,-20 532.5,-20 532.5,0 616.5,0 616.5,-20"/>
<text text-anchor="middle" x="574.5" y="-7.2" font-family="Consolas" font-size="11.00">functional</text>
</a>
</g>
</g>
<!-- Node6&#45;&gt;Node12 -->
<g id="edge11" class="edge">
<title>Node6&#45;&gt;Node12</title>
<path fill="none" stroke="#63b8ff" d="M429.62,-55.96C458.61,-46.97 503.27,-33.11 535.35,-23.15"/>
<polygon fill="#63b8ff" stroke="#63b8ff" points="536.77,-26.37 545.28,-20.07 534.69,-19.69 536.77,-26.37"/>
</g>
<!-- Node13 -->
<g id="node13" class="node">
<title>Node13</title>
<g id="a_node13"><a xlink:title=" ">
<polygon fill="#e0e0e0" stroke="#999999" points="692,-20 635,-20 635,0 692,0 692,-20"/>
<text text-anchor="middle" x="663.5" y="-7.2" font-family="Consolas" font-size="11.00">memory</text>
</a>
</g>
</g>
<!-- Node6&#45;&gt;Node13 -->
<g id="edge12" class="edge">
<title>Node6&#45;&gt;Node13</title>
<path fill="none" stroke="#63b8ff" d="M439.21,-57.69C482.09,-49.49 553.53,-35.56 624.83,-20.08"/>
<polygon fill="#63b8ff" stroke="#63b8ff" points="625.87,-23.44 634.89,-17.89 624.37,-16.6 625.87,-23.44"/>
</g>
<!-- Node17 -->
<g id="node17" class="node">
<title>Node17</title>
<g id="a_node17"><a xlink:href="../../d0/d1c/_b2_d_l_8h.html" target="_top" xlink:title=" ">
<polygon fill="white" stroke="#666666" points="468,-256 411,-256 411,-236 468,-236 468,-256"/>
<text text-anchor="middle" x="439.5" y="-243.2" font-family="Consolas" font-size="11.00">B2DL.h</text>
</a>
</g>
</g>
<!-- Node16&#45;&gt;Node17 -->
<g id="edge16" class="edge">
<title>Node16&#45;&gt;Node17</title>
<path fill="none" stroke="#63b8ff" d="M439.5,-291.59C439.5,-284.7 439.5,-275.1 439.5,-266.57"/>
<polygon fill="#63b8ff" stroke="#63b8ff" points="443,-266.3 439.5,-256.3 436,-266.3 443,-266.3"/>
</g>
<!-- Node18 -->
<g id="node18" class="node">
<title>Node18</title>
<g id="a_node18"><a xlink:href="../../dc/db8/_orientation_8h.html" target="_top" xlink:title=" ">
<polygon fill="white" stroke="#666666" points="538.5,-200 326.5,-200 326.5,-180 538.5,-180 538.5,-200"/>
<text text-anchor="middle" x="432.5" y="-187.2" font-family="Consolas" font-size="11.00">Element/Utility/Orientation.h</text>
</a>
</g>
</g>
<!-- Node17&#45;&gt;Node18 -->
<g id="edge17" class="edge">
<title>Node17&#45;&gt;Node18</title>
<path fill="none" stroke="#63b8ff" d="M438.28,-235.59C437.38,-228.63 436.11,-218.89 435,-210.29"/>
<polygon fill="#63b8ff" stroke="#63b8ff" points="438.46,-209.77 433.71,-200.3 431.52,-210.67 438.46,-209.77"/>
</g>
<!-- Node18&#45;&gt;Node5 -->
<g id="edge18" class="edge">
<title>Node18&#45;&gt;Node5</title>
<path fill="none" stroke="#63b8ff" d="M427.64,-179.89C423.03,-171.25 415.99,-158.04 410.23,-147.24"/>
<polygon fill="#63b8ff" stroke="#63b8ff" points="413.2,-145.37 405.41,-138.2 407.02,-148.67 413.2,-145.37"/>
</g>
</g>
</svg>
