<svg xmlns="http://www.w3.org/2000/svg" xmlns:xlink="http://www.w3.org/1999/xlink" width="953pt" height="388pt" viewBox="0 0 953 388"><g class="graph" transform="translate(4 384)"><title>Material/Material1D/Viscosity/Maxwell.cpp</title><g class="node"><title>Node1</title><a>
<path fill="#999" stroke="#666" d="M558-380H393v32h165z"/>
<text x="401" y="-367.2" font-family="Consolas" font-size="11">Material/Material1D</text>
<text x="475.5" y="-355.2" font-family="Consolas" font-size="11" text-anchor="middle">/Viscosity/Maxwell.cpp</text>
</a></g><g class="node"><title>Node2</title><a xlink:href="../../d4/dac/_maxwell_8h.html" target="_top">
<path fill="#fff" stroke="#666" d="M327-312h-77v20h77z"/>
<text x="288.5" y="-299.2" font-family="Consolas" font-size="11" text-anchor="middle">Maxwell.h</text>
</a></g><g class="edge"><title>Node1-&gt;Node2</title><a>
<path fill="none" stroke="#63b8ff" d="M428.31-347.86c-31.45 10.09-72.26 23.19-101.67 32.62"/>
<path fill="#63b8ff" stroke="#63b8ff" d="m327.35-311.79-10.59-.28 8.45-6.38z"/>
</a></g><g class="node"><title>Node15</title><a xlink:href="../../dc/df2/_domain_base_8h.html" target="_top">
<path fill="#fff" stroke="#666" d="M529-188H384v20h145z"/>
<text x="456.5" y="-175.2" font-family="Consolas" font-size="11" text-anchor="middle">Domain/DomainBase.h</text>
</a></g><g class="edge"><title>Node1-&gt;Node15</title><a>
<path fill="none" stroke="#63b8ff" d="M473.95-347.94c-3.43 33.15-11.61 112.41-15.43 149.36"/>
<path fill="#63b8ff" stroke="#63b8ff" d="m461.96-197.77-4.51 9.59-2.46-10.31z"/>
</a></g><g class="node"><title>Node22</title><a xlink:href="../../db/d65/_factory_8hpp.html" target="_top">
<path fill="#fff" stroke="#666" d="M685.5-188h-138v20h138z"/>
<text x="616.5" y="-175.2" font-family="Consolas" font-size="11" text-anchor="middle">Domain/Factory.hpp</text>
</a></g><g class="edge"><title>Node1-&gt;Node22</title><a>
<path fill="none" stroke="#63b8ff" d="M477.97-347.71c5.46 32.07 19.33 104.97 35.53 123.71 13.42 15.52 33.2 25.89 51.84 32.71"/>
<path fill="#63b8ff" stroke="#63b8ff" d="m566.6-194.56 8.35 6.53-10.59.1z"/>
</a></g><g class="node"><title>Node25</title><a xlink:href="../../d4/d0f/_output_type_8h.html" target="_top">
<path fill="#fff" stroke="#666" d="M686.5-312h-158v20h158z"/>
<text x="607.5" y="-299.2" font-family="Consolas" font-size="11" text-anchor="middle">Recorder/OutputType.h</text>
</a></g><g class="edge"><title>Node1-&gt;Node25</title><a>
<path fill="none" stroke="#63b8ff" d="M508.81-347.86c21.36 9.71 48.84 22.2 69.37 31.53"/>
<path fill="#63b8ff" stroke="#63b8ff" d="m579.71-319.48 7.65 7.33-10.55-.96z"/>
</a></g><g class="node"><title>Node3</title><a xlink:href="../../d4/d7c/_material1_d_8h.html" target="_top">
<path fill="#fff" stroke="#666" d="M361-256H216v32h145z"/>
<text x="224" y="-243.2" font-family="Consolas" font-size="11">Material/Material1D</text>
<text x="288.5" y="-231.2" font-family="Consolas" font-size="11" text-anchor="middle">/Material1D.h</text>
</a></g><g class="edge"><title>Node2-&gt;Node3</title><a>
<path fill="none" stroke="#63b8ff" d="M288.5-291.89v25.45"/>
<path fill="#63b8ff" stroke="#63b8ff" d="m292-266.28-3.5 10-3.5-10z"/>
</a></g><g class="node"><title>Node14</title><a xlink:href="../../d4/da0/_resource_holder_8h.html" target="_top">
<path fill="#fff" stroke="#666" d="M179-250H0v20h179z"/>
<text x="89.5" y="-237.2" font-family="Consolas" font-size="11" text-anchor="middle">Toolbox/ResourceHolder.h</text>
</a></g><g class="edge"><title>Node2-&gt;Node14</title><a>
<path fill="none" stroke="#63b8ff" d="M258.28-291.89c-34.54 10.42-91.18 27.49-129.2 38.96"/>
<path fill="#63b8ff" stroke="#63b8ff" d="m129.94-249.54-10.58-.46 8.56-6.24z"/>
</a></g><g class="node"><title>Node4</title><a xlink:href="../../d3/d09/_material_8h.html" target="_top">
<path fill="#fff" stroke="#666" d="M361-188H216v20h145z"/>
<text x="288.5" y="-175.2" font-family="Consolas" font-size="11" text-anchor="middle">Material/Material.h</text>
</a></g><g class="edge"><title>Node3-&gt;Node4</title><a>
<path fill="none" stroke="#63b8ff" d="M288.5-223.86v25.49"/>
<path fill="#63b8ff" stroke="#63b8ff" d="m292-198.15-3.5 10-3.5-10z"/>
</a></g><g class="node"><title>Node5</title><a xlink:href="../../d2/d4a/_tag_8h.html" target="_top">
<path fill="#fff" stroke="#666" d="M515.5-132h-98v20h98z"/>
<text x="466.5" y="-119.2" font-family="Consolas" font-size="11" text-anchor="middle">Domain/Tag.h</text>
</a></g><g class="edge"><title>Node4-&gt;Node5</title><a>
<path fill="none" stroke="#63b8ff" d="M318.29-167.96c29.78 9.03 75.74 22.97 108.58 32.94"/>
<path fill="#63b8ff" stroke="#63b8ff" d="m428.06-138.32 8.55 6.25-10.59.45z"/>
</a></g><g class="node"><title>Node13</title><a>
<path fill="#e0e0e0" stroke="#999" d="M235.5-132h-50v20h50z"/>
<text x="210.5" y="-119.2" font-family="Consolas" font-size="11" text-anchor="middle">array</text>
</a></g><g class="edge"><title>Node4-&gt;Node13</title><a>
<path fill="none" stroke="#63b8ff" d="M275.27-167.84c-11.84 8.2-29.41 20.36-43.26 29.95"/>
<path fill="#63b8ff" stroke="#63b8ff" d="m233.75-134.84-10.21 2.81 6.23-8.56z"/>
</a></g><g class="node"><title>Node6</title><a xlink:href="../../d8/d8f/suan_pan_8h.html" target="_top">
<path fill="#fff" stroke="#666" d="M510-76h-77v20h77z"/>
<text x="471.5" y="-63.2" font-family="Consolas" font-size="11" text-anchor="middle">suanPan.h</text>
</a></g><g class="edge"><title>Node5-&gt;Node6</title><a>
<path fill="none" stroke="#63b8ff" d="M467.37-111.59c.65 6.96 1.55 16.7 2.34 25.3"/>
<path fill="#63b8ff" stroke="#63b8ff" d="m473.2-86.58-2.56 10.28-4.41-9.63z"/>
</a></g><g class="node"><title>Node7</title><a>
<path fill="#e0e0e0" stroke="#999" d="M507-20h-71V0h71z"/>
<text x="471.5" y="-7.2" font-family="Consolas" font-size="11" text-anchor="middle">iostream</text>
</a></g><g class="edge"><title>Node6-&gt;Node7</title><a>
<path fill="none" stroke="#63b8ff" d="M471.5-55.59v25.02"/>
<path fill="#63b8ff" stroke="#63b8ff" d="m475-30.3-3.5 10-3.5-10z"/>
</a></g><g class="node"><title>Node8</title><a>
<path fill="#e0e0e0" stroke="#999" d="M636-20H525V0h111z"/>
<text x="580.5" y="-7.2" font-family="Consolas" font-size="11" text-anchor="middle">armadillo/arma</text>
</a></g><g class="edge"><title>Node6-&gt;Node8</title><a>
<path fill="none" stroke="#63b8ff" d="M489.99-55.84c17.33 8.59 43.45 21.53 63.18 31.3"/>
<path fill="#63b8ff" stroke="#63b8ff" d="m554.88-27.6 7.4 7.57-10.51-1.3z"/>
</a></g><g class="node"><title>Node9</title><a>
<path fill="#e0e0e0" stroke="#999" d="M738.5-20h-84V0h84z"/>
<text x="696.5" y="-7.2" font-family="Consolas" font-size="11" text-anchor="middle">filesystem</text>
</a></g><g class="edge"><title>Node6-&gt;Node9</title><a>
<path fill="none" stroke="#63b8ff" d="M509.16-55.96c38.37 9.21 98 23.52 139.64 33.51"/>
<path fill="#63b8ff" stroke="#63b8ff" d="m649.81-25.81 8.91 5.74L648.18-19z"/>
</a></g><g class="node"><title>Node10</title><a>
<path fill="#e0e0e0" stroke="#999" d="M349-20h-91V0h91z"/>
<text x="303.5" y="-7.2" font-family="Consolas" font-size="11" text-anchor="middle">fmt/color.h</text>
</a></g><g class="edge"><title>Node6-&gt;Node10</title><a>
<path fill="none" stroke="#63b8ff" d="M443.38-55.96c-27.98 8.99-71.11 22.85-102.08 32.81"/>
<path fill="#63b8ff" stroke="#63b8ff" d="m342.3-19.8-10.59-.27 8.45-6.39z"/>
</a></g><g class="node"><title>Node11</title><a>
<path fill="#e0e0e0" stroke="#999" d="M417.5-20h-50V0h50z"/>
<text x="392.5" y="-7.2" font-family="Consolas" font-size="11" text-anchor="middle">mutex</text>
</a></g><g class="edge"><title>Node6-&gt;Node11</title><a>
<path fill="none" stroke="#63b8ff" d="M458.1-55.84c-11.99 8.2-29.79 20.36-43.82 29.95"/>
<path fill="#63b8ff" stroke="#63b8ff" d="m415.93-22.78-10.23 2.75 6.28-8.53z"/>
</a></g><g class="node"><title>Node12</title><a>
<path fill="#e0e0e0" stroke="#999" d="M160-20h-57V0h57z"/>
<text x="131.5" y="-7.2" font-family="Consolas" font-size="11" text-anchor="middle">memory</text>
</a></g><g class="edge"><title>Node6-&gt;Node12</title><a>
<path fill="none" stroke="#63b8ff" d="M432.75-57.62c-3.13.56-6.24 1.11-9.25 1.62-90.49 15.45-197.16 31.29-253.17 39.43"/>
<path fill="#63b8ff" stroke="#63b8ff" d="m170.55-13.07-10.4-2.03 9.39-4.9z"/>
</a></g><g class="edge"><title>Node14-&gt;Node12</title><a>
<path fill="none" stroke="#63b8ff" d="M85.2-229.99C72.64-202.25 38.73-116.36 69.5-56c6.74 13.22 19.38 23.46 31.5 30.81"/>
<path fill="#63b8ff" stroke="#63b8ff" d="m103.03-28.06 7.03 7.93-10.44-1.82z"/>
</a></g><g class="edge"><title>Node15-&gt;Node5</title><a>
<path fill="none" stroke="#63b8ff" d="M458.24-167.59c1.29 6.96 3.1 16.7 4.69 25.3"/>
<path fill="#63b8ff" stroke="#63b8ff" d="m466.4-142.77-1.62 10.47-5.26-9.19z"/>
</a></g><g class="node"><title>Node16</title><a xlink:href="../../d4/ddd/container_8h.html" target="_top">
<path fill="#fff" stroke="#666" d="M399-132H254v20h145z"/>
<text x="326.5" y="-119.2" font-family="Consolas" font-size="11" text-anchor="middle">Toolbox/container.h</text>
</a></g><g class="edge"><title>Node15-&gt;Node16</title><a>
<path fill="none" stroke="#63b8ff" d="M434.74-167.96c-21.09 8.76-53.3 22.14-77.1 32.03"/>
<path fill="#63b8ff" stroke="#63b8ff" d="m358.91-132.67-10.58.6 7.89-7.07z"/>
</a></g><g class="node"><title>Node21</title><a>
<path fill="#e0e0e0" stroke="#999" d="M591-132h-57v20h57z"/>
<text x="562.5" y="-119.2" font-family="Consolas" font-size="11" text-anchor="middle">future</text>
</a></g><g class="edge"><title>Node15-&gt;Node21</title><a>
<path fill="none" stroke="#63b8ff" d="M474.48-167.84c16.78 8.55 42.03 21.41 61.18 31.17"/>
<path fill="#63b8ff" stroke="#63b8ff" d="m537.46-139.68 7.32 7.65-10.5-1.42z"/>
</a></g><g class="edge"><title>Node16-&gt;Node6</title><a>
<path fill="none" stroke="#63b8ff" d="M350.77-111.96c23.73 8.84 60.09 22.38 86.7 32.29"/>
<path fill="#63b8ff" stroke="#63b8ff" d="m439-82.84 8.15 6.77-10.59-.21z"/>
</a></g><g class="node"><title>Node17</title><a>
<path fill="#e0e0e0" stroke="#999" d="M360-76h-37v20h37z"/>
<text x="341.5" y="-63.2" font-family="Consolas" font-size="11" text-anchor="middle">map</text>
</a></g><g class="edge"><title>Node16-&gt;Node17</title><a>
<path fill="none" stroke="#63b8ff" d="M329.11-111.59c1.96 7.04 4.7 16.92 7.11 25.59"/>
<path fill="#63b8ff" stroke="#63b8ff" d="m339.61-86.87-.69 10.57-6.05-8.7z"/>
</a></g><g class="node"><title>Node18</title><a>
<path fill="#e0e0e0" stroke="#999" d="M415-76h-37v20h37z"/>
<text x="396.5" y="-63.2" font-family="Consolas" font-size="11" text-anchor="middle">set</text>
</a></g><g class="edge"><title>Node16-&gt;Node18</title><a>
<path fill="none" stroke="#63b8ff" d="M338.37-111.84c10.53 8.12 26.1 20.13 38.47 29.68"/>
<path fill="#63b8ff" stroke="#63b8ff" d="m379.02-84.9 5.78 8.87-10.05-3.33z"/>
</a></g><g class="node"><title>Node19</title><a>
<path fill="#e0e0e0" stroke="#999" d="M182.5-76h-104v20h104z"/>
<text x="130.5" y="-63.2" font-family="Consolas" font-size="11" text-anchor="middle">unordered_map</text>
</a></g><g class="edge"><title>Node16-&gt;Node19</title><a>
<path fill="none" stroke="#63b8ff" d="M293.69-111.96c-33.07 9.11-84.27 23.22-120.49 33.19"/>
<path fill="#63b8ff" stroke="#63b8ff" d="m173.98-75.35-10.57-.72 8.71-6.03z"/>
</a></g><g class="node"><title>Node20</title><a>
<path fill="#e0e0e0" stroke="#999" d="M304.5-76h-104v20h104z"/>
<text x="252.5" y="-63.2" font-family="Consolas" font-size="11" text-anchor="middle">unordered_set</text>
</a></g><g class="edge"><title>Node16-&gt;Node20</title><a>
<path fill="none" stroke="#63b8ff" d="M313.95-111.84c-11.13 8.12-27.59 20.13-40.67 29.68"/>
<path fill="#63b8ff" stroke="#63b8ff" d="m275.01-79.09-10.14 3.06 6.01-8.72z"/>
</a></g><g class="edge"><title>Node22-&gt;Node16</title><a>
<path fill="none" stroke="#63b8ff" d="M567.96-167.96c-50.29 9.36-128.91 24-182.69 34.02"/>
<path fill="#63b8ff" stroke="#63b8ff" d="m385.67-130.46-10.47-1.61 9.19-5.27z"/>
</a></g><g class="edge"><title>Node22-&gt;Node21</title><a>
<path fill="none" stroke="#63b8ff" d="m607.09-167.59-28.12 28.12"/>
<path fill="#63b8ff" stroke="#63b8ff" d="m581.34-136.89-9.54 4.59 4.59-9.54z"/>
</a></g><g class="node"><title>Node23</title><a>
<path fill="#e0e0e0" stroke="#999" d="M945-132H780v20h165z"/>
<text x="862.5" y="-119.2" font-family="Consolas" font-size="11" text-anchor="middle">Domain/MetaMat/MetaMat</text>
</a></g><g class="edge"><title>Node22-&gt;Node23</title><a>
<path fill="none" stroke="#63b8ff" d="M657.67-167.96c42.22 9.27 107.98 23.7 153.55 33.7"/>
<path fill="#63b8ff" stroke="#63b8ff" d="m812.17-137.63 9.02 5.56-10.52 1.28z"/>
</a></g><g class="node"><title>Node24</title><a xlink:href="../../d6/d94/_mapping_d_o_f_8h.html" target="_top">
<path fill="#fff" stroke="#666" d="M761.5-132h-152v20h152z"/>
<text x="685.5" y="-119.2" font-family="Consolas" font-size="11" text-anchor="middle">Element/MappingDOF.h</text>
</a></g><g class="edge"><title>Node22-&gt;Node24</title><a>
<path fill="none" stroke="#63b8ff" d="M628.2-167.84c10.28 8.04 25.43 19.9 37.57 29.4"/>
<path fill="#63b8ff" stroke="#63b8ff" d="m668.25-140.94 5.72 8.91-10.03-3.4z"/>
</a></g><g class="edge"><title>Node24-&gt;Node6</title><a>
<path fill="none" stroke="#63b8ff" d="M649.68-111.96c-36.34 9.17-92.73 23.4-132.31 33.39"/>
<path fill="#63b8ff" stroke="#63b8ff" d="m517.99-75.12-10.55-.95 8.84-5.84z"/>
</a></g><g class="node"><title>Node26</title><a>
<path fill="#e0e0e0" stroke="#999" d="M707-250H522v20h185z"/>
<text x="614.5" y="-237.2" font-family="Consolas" font-size="11" text-anchor="middle">magic_enum/magic_enum.hpp</text>
</a></g><g class="edge"><title>Node25-&gt;Node26</title><a>
<path fill="none" stroke="#63b8ff" d="M608.56-291.89c.98 8.37 2.46 21.05 3.7 31.66"/>
<path fill="#63b8ff" stroke="#63b8ff" d="m615.74-260.54-2.31 10.34-4.64-9.53z"/>
</a></g></g></svg>