<?xml version="1.0" encoding="UTF-8" standalone="no"?>
<!DOCTYPE svg PUBLIC "-//W3C//DTD SVG 1.1//EN"
 "http://www.w3.org/Graphics/SVG/1.1/DTD/svg11.dtd">
<!-- Generated by graphviz version 2.43.0 (0)
 -->
<!-- Title: DataNonlinearJ2 Pages: 1 -->
<svg width="504pt" height="412pt"
 viewBox="0.00 0.00 504.00 412.00" xmlns="http://www.w3.org/2000/svg" xmlns:xlink="http://www.w3.org/1999/xlink">
<g id="graph0" class="graph" transform="scale(1 1) rotate(0) translate(4 408)">
<title>DataNonlinearJ2</title>
<!-- Node1 -->
<g id="Node000001" class="node">
<title>Node1</title>
<g id="a_Node000001"><a xlink:title=" ">
<polygon fill="#999999" stroke="transparent" points="305,-404 184,-404 184,-336 305,-336 305,-404"/>
<text text-anchor="start" x="194" y="-391.2" font-family="Consolas" font-size="11.00">DataNonlinearJ2</text>
<text text-anchor="start" x="188.5" y="-375.2" font-family="Consolas" font-size="11.00">+</text>
<text text-anchor="start" x="199.5" y="-375.2" font-family="Consolas" font-size="11.00">elastic_modulus</text>
<text text-anchor="start" x="188.5" y="-359.2" font-family="Consolas" font-size="11.00">+</text>
<text text-anchor="start" x="199.5" y="-359.2" font-family="Consolas" font-size="11.00">poissons_ratio</text>
<text text-anchor="start" x="241.5" y="-343.2" font-family="Consolas" font-size="11.00"> </text>
<polygon fill="#666666" stroke="#666666" points="184.5,-386 184.5,-386 305.5,-386 305.5,-386 184.5,-386"/>
<polygon fill="#666666" stroke="#666666" points="184.5,-354 184.5,-354 197.5,-354 197.5,-354 184.5,-354"/>
<polygon fill="#666666" stroke="#666666" points="197.5,-354 197.5,-354 305.5,-354 305.5,-354 197.5,-354"/>
<polygon fill="none" stroke="#666666" points="184,-336 184,-404 305,-404 305,-336 184,-336"/>
</a>
</g>
</g>
<!-- Node2 -->
<g id="Node000002" class="node">
<title>Node2</title>
<g id="a_Node000002"><a xlink:href="../../de/d54/class_nonlinear_j2.html" target="_top" xlink:title="The NonlinearJ2 class.">
<polygon fill="white" stroke="transparent" points="325,-300 164,-300 164,-136 325,-136 325,-300"/>
<text text-anchor="start" x="207.5" y="-287.2" font-family="Consolas" font-size="11.00">NonlinearJ2</text>
<text text-anchor="start" x="241.5" y="-271.2" font-family="Consolas" font-size="11.00"> </text>
<text text-anchor="start" x="168.5" y="-255.2" font-family="Consolas" font-size="11.00">+</text>
<text text-anchor="start" x="179.5" y="-255.2" font-family="Consolas" font-size="11.00">NonlinearJ2()</text>
<text text-anchor="start" x="168.5" y="-239.2" font-family="Consolas" font-size="11.00">+</text>
<text text-anchor="start" x="179.5" y="-239.2" font-family="Consolas" font-size="11.00">initialize()</text>
<text text-anchor="start" x="168.5" y="-223.2" font-family="Consolas" font-size="11.00">+</text>
<text text-anchor="start" x="179.5" y="-223.2" font-family="Consolas" font-size="11.00">get()</text>
<text text-anchor="start" x="168.5" y="-207.2" font-family="Consolas" font-size="11.00">+</text>
<text text-anchor="start" x="179.5" y="-207.2" font-family="Consolas" font-size="11.00">update_trial_status()</text>
<text text-anchor="start" x="168.5" y="-191.2" font-family="Consolas" font-size="11.00">+</text>
<text text-anchor="start" x="179.5" y="-191.2" font-family="Consolas" font-size="11.00">clear_status()</text>
<text text-anchor="start" x="168.5" y="-175.2" font-family="Consolas" font-size="11.00">+</text>
<text text-anchor="start" x="179.5" y="-175.2" font-family="Consolas" font-size="11.00">commit_status()</text>
<text text-anchor="start" x="168.5" y="-159.2" font-family="Consolas" font-size="11.00">+</text>
<text text-anchor="start" x="179.5" y="-159.2" font-family="Consolas" font-size="11.00">reset_status()</text>
<text text-anchor="start" x="168.5" y="-143.2" font-family="Consolas" font-size="11.00">+</text>
<text text-anchor="start" x="179.5" y="-143.2" font-family="Consolas" font-size="11.00">print()</text>
<polygon fill="#666666" stroke="#666666" points="164.5,-282 164.5,-282 325.5,-282 325.5,-282 164.5,-282"/>
<polygon fill="#666666" stroke="#666666" points="164.5,-266 164.5,-266 325.5,-266 325.5,-266 164.5,-266"/>
<polygon fill="none" stroke="#666666" points="164,-136 164,-300 325,-300 325,-136 164,-136"/>
</a>
</g>
</g>
<!-- Node1&#45;&gt;Node2 -->
<g id="edge1_Node000001_Node000002" class="edge">
<title>Node1&#45;&gt;Node2</title>
<g id="a_edge1_Node000001_Node000002"><a xlink:title=" ">
<path fill="none" stroke="darkgreen" d="M244.5,-325.51C244.5,-317.45 244.5,-308.81 244.5,-300.05"/>
<polygon fill="none" stroke="darkgreen" points="241,-325.71 244.5,-335.71 248,-325.71 241,-325.71"/>
</a>
</g>
</g>
<!-- Node3 -->
<g id="Node000003" class="node">
<title>Node3</title>
<g id="a_Node000003"><a xlink:href="../../dc/dcb/class_custom_j2.html" target="_top" xlink:title="The CustomJ2 class.">
<polygon fill="white" stroke="transparent" points="107,-100 0,-100 0,0 107,0 107,-100"/>
<text text-anchor="start" x="26.5" y="-87.2" font-family="Consolas" font-size="11.00">CustomJ2</text>
<text text-anchor="start" x="50.5" y="-71.2" font-family="Consolas" font-size="11.00"> </text>
<text text-anchor="start" x="4.5" y="-55.2" font-family="Consolas" font-size="11.00">+</text>
<text text-anchor="start" x="15.5" y="-55.2" font-family="Consolas" font-size="11.00">CustomJ2()</text>
<text text-anchor="start" x="4.5" y="-39.2" font-family="Consolas" font-size="11.00">+</text>
<text text-anchor="start" x="15.5" y="-39.2" font-family="Consolas" font-size="11.00">initialize()</text>
<text text-anchor="start" x="4.5" y="-23.2" font-family="Consolas" font-size="11.00">+</text>
<text text-anchor="start" x="15.5" y="-23.2" font-family="Consolas" font-size="11.00">unique_copy()</text>
<text text-anchor="start" x="4.5" y="-7.2" font-family="Consolas" font-size="11.00">+</text>
<text text-anchor="start" x="15.5" y="-7.2" font-family="Consolas" font-size="11.00">print()</text>
<polygon fill="#666666" stroke="#666666" points="0.5,-82 0.5,-82 107.5,-82 107.5,-82 0.5,-82"/>
<polygon fill="#666666" stroke="#666666" points="0.5,-66 0.5,-66 107.5,-66 107.5,-66 0.5,-66"/>
<polygon fill="none" stroke="#666666" points="0,0 0,-100 107,-100 107,0 0,0"/>
</a>
</g>
</g>
<!-- Node2&#45;&gt;Node3 -->
<g id="edge2_Node000002_Node000003" class="edge">
<title>Node2&#45;&gt;Node3</title>
<g id="a_edge2_Node000002_Node000003"><a xlink:title=" ">
<path fill="none" stroke="#63b8ff" d="M156.11,-140.18C139.38,-125.64 122.35,-110.84 107.1,-97.58"/>
<polygon fill="none" stroke="#63b8ff" points="153.93,-142.92 163.78,-146.84 158.52,-137.64 153.93,-142.92"/>
</a>
</g>
</g>
<!-- Node4 -->
<g id="Node000004" class="node">
<title>Node4</title>
<g id="a_Node000004"><a xlink:href="../../d8/df1/class_exp_j2.html" target="_top" xlink:title="The ExpJ2 class.">
<polygon fill="white" stroke="transparent" points="232,-92 125,-92 125,-8 232,-8 232,-92"/>
<text text-anchor="start" x="162" y="-79.2" font-family="Consolas" font-size="11.00">ExpJ2</text>
<text text-anchor="start" x="175.5" y="-63.2" font-family="Consolas" font-size="11.00"> </text>
<text text-anchor="start" x="129.5" y="-47.2" font-family="Consolas" font-size="11.00">+</text>
<text text-anchor="start" x="140.5" y="-47.2" font-family="Consolas" font-size="11.00">ExpJ2()</text>
<text text-anchor="start" x="129.5" y="-31.2" font-family="Consolas" font-size="11.00">+</text>
<text text-anchor="start" x="140.5" y="-31.2" font-family="Consolas" font-size="11.00">unique_copy()</text>
<text text-anchor="start" x="129.5" y="-15.2" font-family="Consolas" font-size="11.00">+</text>
<text text-anchor="start" x="140.5" y="-15.2" font-family="Consolas" font-size="11.00">print()</text>
<polygon fill="#666666" stroke="#666666" points="125.5,-74 125.5,-74 232.5,-74 232.5,-74 125.5,-74"/>
<polygon fill="#666666" stroke="#666666" points="125.5,-58 125.5,-58 232.5,-58 232.5,-58 125.5,-58"/>
<polygon fill="none" stroke="#666666" points="125,-8 125,-92 232,-92 232,-8 125,-8"/>
</a>
</g>
</g>
<!-- Node2&#45;&gt;Node4 -->
<g id="edge3_Node000002_Node000004" class="edge">
<title>Node2&#45;&gt;Node4</title>
<g id="a_edge3_Node000002_Node000004"><a xlink:title=" ">
<path fill="none" stroke="#63b8ff" d="M208.47,-126.37C203.73,-114.46 199.08,-102.77 194.91,-92.27"/>
<polygon fill="none" stroke="#63b8ff" points="205.33,-127.95 212.27,-135.95 211.83,-125.36 205.33,-127.95"/>
</a>
</g>
</g>
<!-- Node5 -->
<g id="Node000005" class="node">
<title>Node5</title>
<g id="a_Node000005"><a xlink:href="../../df/d66/class_multilinear_j2.html" target="_top" xlink:title="The MultilinearJ2 class.">
<polygon fill="white" stroke="transparent" points="371,-92 250,-92 250,-8 371,-8 371,-92"/>
<text text-anchor="start" x="267" y="-79.2" font-family="Consolas" font-size="11.00">MultilinearJ2</text>
<text text-anchor="start" x="307.5" y="-63.2" font-family="Consolas" font-size="11.00"> </text>
<text text-anchor="start" x="254.5" y="-47.2" font-family="Consolas" font-size="11.00">+</text>
<text text-anchor="start" x="265.5" y="-47.2" font-family="Consolas" font-size="11.00">MultilinearJ2()</text>
<text text-anchor="start" x="254.5" y="-31.2" font-family="Consolas" font-size="11.00">+</text>
<text text-anchor="start" x="265.5" y="-31.2" font-family="Consolas" font-size="11.00">unique_copy()</text>
<text text-anchor="start" x="254.5" y="-15.2" font-family="Consolas" font-size="11.00">+</text>
<text text-anchor="start" x="265.5" y="-15.2" font-family="Consolas" font-size="11.00">print()</text>
<polygon fill="#666666" stroke="#666666" points="250.5,-74 250.5,-74 371.5,-74 371.5,-74 250.5,-74"/>
<polygon fill="#666666" stroke="#666666" points="250.5,-58 250.5,-58 371.5,-58 371.5,-58 250.5,-58"/>
<polygon fill="none" stroke="#666666" points="250,-8 250,-92 371,-92 371,-8 250,-8"/>
</a>
</g>
</g>
<!-- Node2&#45;&gt;Node5 -->
<g id="edge4_Node000002_Node000005" class="edge">
<title>Node2&#45;&gt;Node5</title>
<g id="a_edge4_Node000002_Node000005"><a xlink:title=" ">
<path fill="none" stroke="#63b8ff" d="M280.53,-126.37C285.27,-114.46 289.92,-102.77 294.09,-92.27"/>
<polygon fill="none" stroke="#63b8ff" points="277.17,-125.36 276.73,-135.95 283.67,-127.95 277.17,-125.36"/>
</a>
</g>
</g>
<!-- Node6 -->
<g id="Node000006" class="node">
<title>Node6</title>
<g id="a_Node000006"><a xlink:href="../../dd/d53/class_poly_j2.html" target="_top" xlink:title="The PolyJ2 class.">
<polygon fill="white" stroke="transparent" points="496,-92 389,-92 389,-8 496,-8 496,-92"/>
<text text-anchor="start" x="422.5" y="-79.2" font-family="Consolas" font-size="11.00">PolyJ2</text>
<text text-anchor="start" x="439.5" y="-63.2" font-family="Consolas" font-size="11.00"> </text>
<text text-anchor="start" x="393.5" y="-47.2" font-family="Consolas" font-size="11.00">+</text>
<text text-anchor="start" x="404.5" y="-47.2" font-family="Consolas" font-size="11.00">PolyJ2()</text>
<text text-anchor="start" x="393.5" y="-31.2" font-family="Consolas" font-size="11.00">+</text>
<text text-anchor="start" x="404.5" y="-31.2" font-family="Consolas" font-size="11.00">unique_copy()</text>
<text text-anchor="start" x="393.5" y="-15.2" font-family="Consolas" font-size="11.00">+</text>
<text text-anchor="start" x="404.5" y="-15.2" font-family="Consolas" font-size="11.00">print()</text>
<polygon fill="#666666" stroke="#666666" points="389.5,-74 389.5,-74 496.5,-74 496.5,-74 389.5,-74"/>
<polygon fill="#666666" stroke="#666666" points="389.5,-58 389.5,-58 496.5,-58 496.5,-58 389.5,-58"/>
<polygon fill="none" stroke="#666666" points="389,-8 389,-92 496,-92 496,-8 389,-8"/>
</a>
</g>
</g>
<!-- Node2&#45;&gt;Node6 -->
<g id="edge5_Node000002_Node000006" class="edge">
<title>Node2&#45;&gt;Node6</title>
<g id="a_edge5_Node000002_Node000006"><a xlink:title=" ">
<path fill="none" stroke="#63b8ff" d="M332.7,-143.05C353.61,-125.52 375.17,-107.45 393.59,-92.01"/>
<polygon fill="none" stroke="#63b8ff" points="330.45,-140.37 325.03,-149.48 334.95,-145.74 330.45,-140.37"/>
</a>
</g>
</g>
</g>
</svg>
