<?xml version="1.0" encoding="UTF-8" standalone="no"?>
<!DOCTYPE svg PUBLIC "-//W3C//DTD SVG 1.1//EN"
 "http://www.w3.org/Graphics/SVG/1.1/DTD/svg11.dtd">
<!-- Generated by graphviz version 5.0.0 (0)
 -->
<!-- Title: triplet_form::triplet_form Pages: 1 -->
<!--zoomable 154 -->
<svg id="main" version="1.1" xmlns="http://www.w3.org/2000/svg" xmlns:xlink="http://www.w3.org/1999/xlink" xml:space="preserve" onload="init(evt)">
<style type="text/css"><![CDATA[
.edge:hover path { stroke: red; }
.edge:hover polygon { stroke: red; fill: red; }
]]></style>
<script type="text/javascript"><![CDATA[
var edges = document.getElementsByTagName('g');
if (edges && edges.length) {
  for (var i=0;i<edges.length;i++) {
    if (edges[i].id.substr(0,4)=='edge') {
      edges[i].setAttribute('class','edge');
    }
  }
}
]]></script>
        <defs>
                <circle id="rim" cx="0" cy="0" r="7"/>
                <circle id="rim2" cx="0" cy="0" r="3.5"/>
                <g id="zoomPlus">
                        <use xlink:href="#rim" fill="#404040">
                                <set attributeName="fill" to="#808080" begin="zoomplus.mouseover" end="zoomplus.mouseout"/>
                        </use>
                        <path d="M-4,0h8M0,-4v8" fill="none" stroke="white" stroke-width="1.5" pointer-events="none"/>
                </g>
                <g id="zoomMin">
                        <use xlink:href="#rim" fill="#404040">
                                <set attributeName="fill" to="#808080" begin="zoomminus.mouseover" end="zoomminus.mouseout"/>
                        </use>
                        <path d="M-4,0h8" fill="none" stroke="white" stroke-width="1.5" pointer-events="none"/>
                </g>
                <g id="dirArrow">
                        <path fill="none" stroke="white" stroke-width="1.5" d="M0,-3.0v7 M-2.5,-0.5L0,-3.0L2.5,-0.5"/>
                </g>
               <g id="resetDef">
                       <use xlink:href="#rim2" fill="#404040">
                               <set attributeName="fill" to="#808080" begin="reset.mouseover" end="reset.mouseout"/>
                       </use>
               </g>
        </defs>

<script type="text/javascript">
var viewWidth = 829;
var viewHeight = 154;
var sectionId = 'dynsection-4';
</script>
<script xlink:href="../../svgpan.js"/>
<svg id="graph" class="graph">
<g id="viewport">
<title>triplet_form::triplet_form</title>
<!-- Node1 -->
<g id="node1" class="node">
<title>Node1</title>
<g id="a_node1"><a xlink:title=" ">
<polygon fill="#999999" stroke="#666666" points="192,-80 0,-80 0,-60 192,-60 192,-80"/>
<text text-anchor="middle" x="96" y="-67.2" font-family="Consolas" font-size="11.00">triplet_form::triplet_form</text>
</a>
</g>
</g>
<!-- Node2 -->
<g id="node2" class="node">
<title>Node2</title>
<g id="a_node2"><a xlink:href="../../db/d78/classtriplet__form.html#a46f09843fa6176b36ab03275382450be" target="_top" xlink:title=" ">
<polygon fill="white" stroke="#666666" points="420,-146 228,-146 228,-126 420,-126 420,-146"/>
<text text-anchor="middle" x="324" y="-133.2" font-family="Consolas" font-size="11.00">triplet_form::csc_condense</text>
</a>
</g>
</g>
<!-- Node1&#45;&gt;Node2 -->
<g id="edge1" class="edge">
<title>Node1&#45;&gt;Node2</title>
<path fill="none" stroke="#63b8ff" d="M121.76,-80.12C147.84,-90.49 190.28,-106.52 228,-117 237.02,-119.51 246.61,-121.82 256.09,-123.91"/>
<polygon fill="#63b8ff" stroke="#63b8ff" points="255.4,-127.34 265.91,-126 256.86,-120.49 255.4,-127.34"/>
</g>
<!-- Node6 -->
<g id="node6" class="node">
<title>Node6</title>
<g id="a_node6"><a xlink:href="../../db/d78/classtriplet__form.html#aed9083e1874a8a2fe52124544be5dba5" target="_top" xlink:title=" ">
<polygon fill="white" stroke="#666666" points="393,-108 255,-108 255,-76 393,-76 393,-108"/>
<text text-anchor="start" x="263" y="-95.2" font-family="Consolas" font-size="11.00">triplet_form::full</text>
<text text-anchor="middle" x="324" y="-83.2" font-family="Consolas" font-size="11.00">_csc_condense</text>
</a>
</g>
</g>
<!-- Node1&#45;&gt;Node6 -->
<g id="edge5" class="edge">
<title>Node1&#45;&gt;Node6</title>
<path fill="none" stroke="#63b8ff" d="M192.19,-79.27C209.57,-80.96 227.53,-82.71 244.37,-84.35"/>
<polygon fill="#63b8ff" stroke="#63b8ff" points="244.4,-87.86 254.69,-85.35 245.07,-80.9 244.4,-87.86"/>
</g>
<!-- Node7 -->
<g id="node7" class="node">
<title>Node7</title>
<g id="a_node7"><a xlink:href="../../db/d78/classtriplet__form.html#abea6b942ee2f9653997261b10fdf0c26" target="_top" xlink:title=" ">
<polygon fill="white" stroke="#666666" points="393,-58 255,-58 255,-38 393,-38 393,-58"/>
<text text-anchor="middle" x="324" y="-45.2" font-family="Consolas" font-size="11.00">triplet_form::init</text>
</a>
</g>
</g>
<!-- Node1&#45;&gt;Node7 -->
<g id="edge7" class="edge">
<title>Node1&#45;&gt;Node7</title>
<path fill="none" stroke="#63b8ff" d="M192.19,-60.73C209.57,-59.04 227.53,-57.29 244.37,-55.65"/>
<polygon fill="#63b8ff" stroke="#63b8ff" points="245.07,-59.1 254.69,-54.65 244.4,-52.14 245.07,-59.1"/>
</g>
<!-- Node9 -->
<g id="node9" class="node">
<title>Node9</title>
<g id="a_node9"><a xlink:href="../../db/d78/classtriplet__form.html#a67878fb795a3c22b1ad009c564ccbb45" target="_top" xlink:title=" ">
<polygon fill="white" stroke="#666666" points="406.5,-20 241.5,-20 241.5,0 406.5,0 406.5,-20"/>
<text text-anchor="middle" x="324" y="-7.2" font-family="Consolas" font-size="11.00">triplet_form::is_empty</text>
</a>
</g>
</g>
<!-- Node1&#45;&gt;Node9 -->
<g id="edge9" class="edge">
<title>Node1&#45;&gt;Node9</title>
<path fill="none" stroke="#63b8ff" d="M125.88,-59.99C152.26,-51.08 192.44,-38.09 228,-29 237.59,-26.55 247.8,-24.22 257.83,-22.08"/>
<polygon fill="#63b8ff" stroke="#63b8ff" points="258.69,-25.48 267.77,-20.02 257.27,-18.63 258.69,-25.48"/>
</g>
<!-- Node3 -->
<g id="node3" class="node">
<title>Node3</title>
<g id="a_node3"><a xlink:href="../../db/d78/classtriplet__form.html#a4a8b05419cff1a0951ea72679985e3af" target="_top" xlink:title=" ">
<polygon fill="white" stroke="#666666" points="621,-124 456,-124 456,-104 621,-104 621,-124"/>
<text text-anchor="middle" x="538.5" y="-111.2" font-family="Consolas" font-size="11.00">triplet_form::csc_sort</text>
</a>
</g>
</g>
<!-- Node2&#45;&gt;Node3 -->
<g id="edge2" class="edge">
<title>Node2&#45;&gt;Node3</title>
<path fill="none" stroke="#63b8ff" d="M420.06,-126.16C428.64,-125.27 437.32,-124.37 445.86,-123.49"/>
<polygon fill="#63b8ff" stroke="#63b8ff" points="446.24,-126.97 455.83,-122.46 445.52,-120 446.24,-126.97"/>
</g>
<!-- Node4 -->
<g id="node4" class="node">
<title>Node4</title>
<g id="a_node4"><a xlink:href="../../d5/d47/utility_8h.html#af06ca0fdd85fa3dc14b49ff7072c869f" target="_top" xlink:title=" ">
<polygon fill="white" stroke="#666666" points="748,-124 657,-124 657,-104 748,-104 748,-124"/>
<text text-anchor="middle" x="702.5" y="-111.2" font-family="Consolas" font-size="11.00">suanpan_for</text>
</a>
</g>
</g>
<!-- Node3&#45;&gt;Node4 -->
<g id="edge3" class="edge">
<title>Node3&#45;&gt;Node4</title>
<path fill="none" stroke="#63b8ff" d="M621.45,-114C630.06,-114 638.65,-114 646.84,-114"/>
<polygon fill="#63b8ff" stroke="#63b8ff" points="646.97,-117.5 656.97,-114 646.97,-110.5 646.97,-117.5"/>
</g>
<!-- Node5 -->
<g id="node5" class="node">
<title>Node5</title>
<g id="a_node5"><a xlink:href="../../d4/d48/_storage_8hpp.html#a45bf90d3e5b89fc6c46f15cc58c1c60c" target="_top" xlink:title=" ">
<polygon fill="white" stroke="#666666" points="821,-124 784,-124 784,-104 821,-104 821,-124"/>
<text text-anchor="middle" x="802.5" y="-111.2" font-family="Consolas" font-size="11.00">end</text>
</a>
</g>
</g>
<!-- Node4&#45;&gt;Node5 -->
<g id="edge4" class="edge">
<title>Node4&#45;&gt;Node5</title>
<path fill="none" stroke="#63b8ff" d="M748.2,-114C756.81,-114 765.59,-114 773.48,-114"/>
<polygon fill="#63b8ff" stroke="#63b8ff" points="773.59,-117.5 783.59,-114 773.59,-110.5 773.59,-117.5"/>
</g>
<!-- Node6&#45;&gt;Node3 -->
<g id="edge6" class="edge">
<title>Node6&#45;&gt;Node3</title>
<path fill="none" stroke="#63b8ff" d="M393.11,-99.05C409.76,-100.77 427.84,-102.65 445.4,-104.46"/>
<polygon fill="#63b8ff" stroke="#63b8ff" points="445.35,-107.98 455.66,-105.53 446.07,-101.02 445.35,-107.98"/>
</g>
<!-- Node8 -->
<g id="node8" class="node">
<title>Node8</title>
<g id="a_node8"><a xlink:href="../../db/d78/classtriplet__form.html#a09e304ea113e2760cd740db9e44d1fe7" target="_top" xlink:title=" ">
<polygon fill="white" stroke="#666666" points="611,-58 466,-58 466,-38 611,-38 611,-58"/>
<text text-anchor="middle" x="538.5" y="-45.2" font-family="Consolas" font-size="11.00">triplet_form::zeros</text>
</a>
</g>
</g>
<!-- Node7&#45;&gt;Node8 -->
<g id="edge8" class="edge">
<title>Node7&#45;&gt;Node8</title>
<path fill="none" stroke="#63b8ff" d="M393.11,-48C413.04,-48 435.03,-48 455.71,-48"/>
<polygon fill="#63b8ff" stroke="#63b8ff" points="455.74,-51.5 465.74,-48 455.74,-44.5 455.74,-51.5"/>
</g>
</g>
</svg>
        <g id="navigator" transform="translate(0 0)" fill="#404254">
                <rect fill="#f2f5e9" fill-opacity="0.5" stroke="#606060" stroke-width=".5" x="0" y="0" width="60" height="60"/>
                <use id="zoomplus" xlink:href="#zoomPlus" x="17" y="9" onmousedown="handleZoom(evt,'in')"/>
                <use id="zoomminus" xlink:href="#zoomMin" x="42" y="9" onmousedown="handleZoom(evt,'out')"/>
                <use id="reset" xlink:href="#resetDef" x="30" y="36" onmousedown="handleReset()"/>
                <g id="arrowUp" xlink:href="#dirArrow" transform="translate(30 24)" onmousedown="handlePan(0,-1)">
                  <use xlink:href="#rim" fill="#404040">
                        <set attributeName="fill" to="#808080" begin="arrowUp.mouseover" end="arrowUp.mouseout"/>
                  </use>
                  <path fill="none" stroke="white" stroke-width="1.5" d="M0,-3.0v7 M-2.5,-0.5L0,-3.0L2.5,-0.5"/>
                </g>
                <g id="arrowRight" xlink:href="#dirArrow" transform="rotate(90) translate(36 -43)" onmousedown="handlePan(1,0)">
                  <use xlink:href="#rim" fill="#404040">
                        <set attributeName="fill" to="#808080" begin="arrowRight.mouseover" end="arrowRight.mouseout"/>
                  </use>
                  <path fill="none" stroke="white" stroke-width="1.5" d="M0,-3.0v7 M-2.5,-0.5L0,-3.0L2.5,-0.5"/>
                </g>
                <g id="arrowDown" xlink:href="#dirArrow" transform="rotate(180) translate(-30 -48)" onmousedown="handlePan(0,1)">
                  <use xlink:href="#rim" fill="#404040">
                        <set attributeName="fill" to="#808080" begin="arrowDown.mouseover" end="arrowDown.mouseout"/>
                  </use>
                  <path fill="none" stroke="white" stroke-width="1.5" d="M0,-3.0v7 M-2.5,-0.5L0,-3.0L2.5,-0.5"/>
                </g>
                <g id="arrowLeft" xlink:href="#dirArrow" transform="rotate(270) translate(-36 17)" onmousedown="handlePan(-1,0)">
                  <use xlink:href="#rim" fill="#404040">
                        <set attributeName="fill" to="#808080" begin="arrowLeft.mouseover" end="arrowLeft.mouseout"/>
                  </use>
                  <path fill="none" stroke="white" stroke-width="1.5" d="M0,-3.0v7 M-2.5,-0.5L0,-3.0L2.5,-0.5"/>
                </g>
        </g>
        <svg viewBox="0 0 15 15" width="100%" height="30px" preserveAspectRatio="xMaxYMin meet">
         <g id="arrow_out" transform="scale(0.3 0.3)">
          <a xlink:href="classtriplet__form_af0d5d7932eaafe29b82f72d10132ad8c_cgraph_org.svg" target="_base">
           <rect id="button" ry="5" rx="5" y="6" x="6" height="38" width="38"
                fill="#f2f5e9" fill-opacity="0.5" stroke="#606060" stroke-width="1.0"/>
           <path id="arrow"
             d="M 11.500037,31.436501 C 11.940474,20.09759 22.043105,11.32322 32.158766,21.979434 L 37.068811,17.246167 C 37.068811,17.246167 37.088388,32 37.088388,32 L 22.160133,31.978069 C 22.160133,31.978069 26.997745,27.140456 26.997745,27.140456 C 18.528582,18.264221 13.291696,25.230495 11.500037,31.436501 z"
             style="fill:#404040;"/>
          </a>
         </g>
        </svg>
</svg>
