<?xml version="1.0" encoding="UTF-8" standalone="no"?>
<!DOCTYPE svg PUBLIC "-//W3C//DTD SVG 1.1//EN"
 "http://www.w3.org/Graphics/SVG/1.1/DTD/svg11.dtd">
<!-- Generated by graphviz version 2.43.0 (0)
 -->
<!-- Title: tensor::isotropic_stiffness Pages: 1 -->
<!--zoomable 684 -->

<svg id="main" version="1.1" xmlns="http://www.w3.org/2000/svg" xmlns:xlink="http://www.w3.org/1999/xlink" xml:space="preserve" onload="init(evt)">
<style type="text/css"><![CDATA[
.node, .edge {opacity: 0.7;}
.node.selected, .edge.selected {opacity: 1;}
.edge:hover path { stroke: red; }
.edge:hover polygon { stroke: red; fill: red; }
]]></style>

<defs>
  <circle id="rim" cx="0" cy="0" r="7"/>
  <circle id="rim2" cx="0" cy="0" r="3.5"/>
  <g id="zoomPlus">
    <use xlink:href="#rim" fill="#404040"><set attributeName="fill" to="#808080" begin="zoomplus.mouseover" end="zoomplus.mouseout"/></use>
    <path d="M-4,0h8M0,-4v8" fill="none" stroke="white" stroke-width="1.5" pointer-events="none"/>
  </g>
  <g id="zoomMin">
    <use xlink:href="#rim" fill="#404040"><set attributeName="fill" to="#808080" begin="zoomminus.mouseover" end="zoomminus.mouseout"/></use>
    <path d="M-4,0h8" fill="none" stroke="white" stroke-width="1.5" pointer-events="none"/>
  </g>
  <g id="arrowUp" transform="translate(30 24)">
    <use xlink:href="#rim"/>
    <path pointer-events="none" fill="none" stroke="white" stroke-width="1.5" d="M0,-3.0v7 M-2.5,-0.5L0,-3.0L2.5,-0.5"/>
  </g>
  <g id="arrowRight" transform="rotate(90) translate(36 -43)">
    <use xlink:href="#rim"/>
    <path pointer-events="none" fill="none" stroke="white" stroke-width="1.5" d="M0,-3.0v7 M-2.5,-0.5L0,-3.0L2.5,-0.5"/>
  </g>
  <g id="arrowDown" transform="rotate(180) translate(-30 -48)">
    <use xlink:href="#rim"/>
    <path pointer-events="none" fill="none" stroke="white" stroke-width="1.5" d="M0,-3.0v7 M-2.5,-0.5L0,-3.0L2.5,-0.5"/>
  </g>
  <g id="arrowLeft" transform="rotate(270) translate(-36 17)">
    <use xlink:href="#rim"/>
    <path pointer-events="none" fill="none" stroke="white" stroke-width="1.5" d="M0,-3.0v7 M-2.5,-0.5L0,-3.0L2.5,-0.5"/>
  </g>
  <g id="resetDef">
    <use xlink:href="#rim2" fill="#404040"><set attributeName="fill" to="#808080" begin="reset.mouseover" end="reset.mouseout"/></use>
  </g>
</defs>
<script type="application/ecmascript">
var viewWidth = 664;
var viewHeight = 684;
var sectionId = 'dynsection-8';
</script>
<script type="application/ecmascript" xlink:href="../../svg.min.js"/>
<svg id="graph" class="graph">
<g id="viewport">
<title>tensor::isotropic_stiffness</title>
<!-- Node1 -->
<g id="Node000001" class="node">
<title>Node1</title>
<g id="a_Node000001"><a xlink:title=" ">
<polygon fill="#999999" stroke="#666666" points="656,-336 457,-336 457,-316 656,-316 656,-336"/>
<text text-anchor="middle" x="556.5" y="-323.2" font-family="Consolas" font-size="11.00">tensor::isotropic_stiffness</text>
</a>
</g>
</g>
<!-- Node2 -->
<g id="Node000002" class="node">
<title>Node2</title>
<g id="a_Node000002"><a xlink:href="../../dc/d1a/class_axisymmetric_elastic.html#a46c5e73ccacd7b44259ea1b0c34071bf" target="_top" xlink:title=" ">
<polygon fill="white" stroke="#666666" points="390.5,-676 245.5,-676 245.5,-644 390.5,-644 390.5,-676"/>
<text text-anchor="start" x="253.5" y="-663.2" font-family="Consolas" font-size="11.00">AxisymmetricElastic</text>
<text text-anchor="middle" x="318" y="-651.2" font-family="Consolas" font-size="11.00">::initialize</text>
</a>
</g>
</g>
<!-- Node1&#45;&gt;Node2 -->
<g id="edge1_Node000001_Node000002" class="edge">
<title>Node1&#45;&gt;Node2</title>
<g id="a_edge1_Node000001_Node000002"><a xlink:title=" ">
<path fill="none" stroke="#63b8ff" d="M552.92,-346.12C544.73,-401.36 514.13,-556.51 421,-635 412.22,-642.4 401.58,-647.68 390.53,-651.42"/>
<polygon fill="#63b8ff" stroke="#63b8ff" points="556.39,-346.57 554.31,-336.18 549.46,-345.6 556.39,-346.57"/>
</a>
</g>
</g>
<!-- Node3 -->
<g id="Node000003" class="node">
<title>Node3</title>
<g id="a_Node000003"><a xlink:href="../../d7/df3/class_nonlinear_cam_clay.html#aaad561c45be5ccc060cf9255e99b2a5b" target="_top" xlink:title=" ">
<polygon fill="white" stroke="#666666" points="421,-626 215,-626 215,-606 421,-606 421,-626"/>
<text text-anchor="middle" x="318" y="-613.2" font-family="Consolas" font-size="11.00">NonlinearCamClay::initialize</text>
</a>
</g>
</g>
<!-- Node1&#45;&gt;Node3 -->
<g id="edge2_Node000001_Node000003" class="edge">
<title>Node1&#45;&gt;Node3</title>
<g id="a_edge2_Node000001_Node000003"><a xlink:title=" ">
<path fill="none" stroke="#63b8ff" d="M551.84,-346.25C541.47,-397.36 506.9,-532.08 421,-597 416.4,-600.48 411.36,-603.38 406.05,-605.8"/>
<polygon fill="#63b8ff" stroke="#63b8ff" points="555.33,-346.64 553.79,-336.16 548.46,-345.32 555.33,-346.64"/>
</a>
</g>
</g>
<!-- Node5 -->
<g id="Node000005" class="node">
<title>Node5</title>
<g id="a_Node000005"><a xlink:href="../../dc/dfb/class_c_d_p_m2.html#a0e9e8ea0201fc25b4bd7a67419275824" target="_top" xlink:title=" ">
<polygon fill="white" stroke="#666666" points="383.5,-588 252.5,-588 252.5,-568 383.5,-568 383.5,-588"/>
<text text-anchor="middle" x="318" y="-575.2" font-family="Consolas" font-size="11.00">CDPM2::initialize</text>
</a>
</g>
</g>
<!-- Node1&#45;&gt;Node5 -->
<g id="edge4_Node000001_Node000005" class="edge">
<title>Node1&#45;&gt;Node5</title>
<g id="a_edge4_Node000001_Node000005"><a xlink:title=" ">
<path fill="none" stroke="#63b8ff" d="M550.23,-345.89C536.99,-391.66 497.78,-504.68 421,-559 410.04,-566.75 396.83,-571.6 383.59,-574.58"/>
<polygon fill="#63b8ff" stroke="#63b8ff" points="553.6,-346.82 552.92,-336.24 546.86,-344.94 553.6,-346.82"/>
</a>
</g>
</g>
<!-- Node6 -->
<g id="Node000006" class="node">
<title>Node6</title>
<g id="a_Node000006"><a xlink:href="../../de/d9e/class_nonlinear_c_d_p.html#a18692bfa73ecde973b2d3c67bc6d679d" target="_top" xlink:title=" ">
<polygon fill="white" stroke="#666666" points="407.5,-550 228.5,-550 228.5,-530 407.5,-530 407.5,-550"/>
<text text-anchor="middle" x="318" y="-537.2" font-family="Consolas" font-size="11.00">NonlinearCDP::initialize</text>
</a>
</g>
</g>
<!-- Node1&#45;&gt;Node6 -->
<g id="edge5_Node000001_Node000006" class="edge">
<title>Node1&#45;&gt;Node6</title>
<g id="a_edge5_Node000001_Node000006"><a xlink:title=" ">
<path fill="none" stroke="#63b8ff" d="M548.05,-345.61C531.73,-385.71 488.77,-477.02 421,-521 415.48,-524.58 409.47,-527.52 403.21,-529.94"/>
<polygon fill="#63b8ff" stroke="#63b8ff" points="551.37,-346.74 551.79,-336.16 544.86,-344.17 551.37,-346.74"/>
</a>
</g>
</g>
<!-- Node8 -->
<g id="Node000008" class="node">
<title>Node8</title>
<g id="a_Node000008"><a xlink:href="../../d2/dbe/class_nonlinear_drucker_prager.html#aa529a8a73830fdae9ecc501f30f258e4" target="_top" xlink:title=" ">
<polygon fill="white" stroke="#666666" points="400.5,-512 235.5,-512 235.5,-480 400.5,-480 400.5,-512"/>
<text text-anchor="start" x="243.5" y="-499.2" font-family="Consolas" font-size="11.00">NonlinearDruckerPrager</text>
<text text-anchor="middle" x="318" y="-487.2" font-family="Consolas" font-size="11.00">::initialize</text>
</a>
</g>
</g>
<!-- Node1&#45;&gt;Node8 -->
<g id="edge7_Node000001_Node000008" class="edge">
<title>Node1&#45;&gt;Node8</title>
<g id="a_edge7_Node000001_Node000008"><a xlink:title=" ">
<path fill="none" stroke="#63b8ff" d="M543.41,-344.99C522.45,-376.29 476.25,-438.5 421,-471 414.64,-474.74 407.73,-477.93 400.62,-480.64"/>
<polygon fill="#63b8ff" stroke="#63b8ff" points="546.53,-346.61 549.09,-336.33 540.68,-342.77 546.53,-346.61"/>
</a>
</g>
</g>
<!-- Node10 -->
<g id="Node000010" class="node">
<title>Node10</title>
<g id="a_Node000010"><a xlink:href="../../d2/dcf/class_isotropic_elastic3_d.html#adc879ead02a7f7005f8d177979c528b5" target="_top" xlink:title=" ">
<polygon fill="white" stroke="#666666" points="387,-462 249,-462 249,-430 387,-430 387,-462"/>
<text text-anchor="start" x="257" y="-449.2" font-family="Consolas" font-size="11.00">IsotropicElastic3D</text>
<text text-anchor="middle" x="318" y="-437.2" font-family="Consolas" font-size="11.00">::initialize</text>
</a>
</g>
</g>
<!-- Node1&#45;&gt;Node10 -->
<g id="edge9_Node000001_Node000010" class="edge">
<title>Node1&#45;&gt;Node10</title>
<g id="a_edge9_Node000001_Node000010"><a xlink:title=" ">
<path fill="none" stroke="#63b8ff" d="M536.62,-342.87C511.82,-364.15 466.11,-400.44 421,-421 410.38,-425.84 398.7,-429.82 387.14,-433.07"/>
<polygon fill="#63b8ff" stroke="#63b8ff" points="538.95,-345.48 544.19,-336.27 534.35,-340.2 538.95,-345.48"/>
</a>
</g>
</g>
<!-- Node11 -->
<g id="Node000011" class="node">
<title>Node11</title>
<g id="a_Node000011"><a xlink:href="../../d2/d69/class_y_l_d0418_p.html#a02fc8bc5acd1ec5dea5a25341c1c2af3" target="_top" xlink:title=" ">
<polygon fill="white" stroke="#666666" points="394,-412 242,-412 242,-392 394,-392 394,-412"/>
<text text-anchor="middle" x="318" y="-399.2" font-family="Consolas" font-size="11.00">YLD0418P::initialize</text>
</a>
</g>
</g>
<!-- Node1&#45;&gt;Node11 -->
<g id="edge10_Node000001_Node000011" class="edge">
<title>Node1&#45;&gt;Node11</title>
<g id="a_edge10_Node000001_Node000011"><a xlink:title=" ">
<path fill="none" stroke="#63b8ff" d="M526.31,-340.55C499.51,-353.38 458.42,-371.73 421,-383 409.36,-386.51 396.76,-389.48 384.53,-391.97"/>
<polygon fill="#63b8ff" stroke="#63b8ff" points="528.03,-343.61 535.5,-336.1 524.98,-337.31 528.03,-343.61"/>
</a>
</g>
</g>
<!-- Node12 -->
<g id="Node000012" class="node">
<title>Node12</title>
<g id="a_Node000012"><a xlink:href="../../d6/de0/class_dafalias_manzari.html#af9247c5d4bce957a5a417dfe286c1866" target="_top" xlink:title=" ">
<polygon fill="white" stroke="#666666" points="417.5,-374 218.5,-374 218.5,-354 417.5,-354 417.5,-374"/>
<text text-anchor="middle" x="318" y="-361.2" font-family="Consolas" font-size="11.00">DafaliasManzari::initialize</text>
</a>
</g>
</g>
<!-- Node1&#45;&gt;Node12 -->
<g id="edge11_Node000001_Node000012" class="edge">
<title>Node1&#45;&gt;Node12</title>
<g id="a_edge11_Node000001_Node000012"><a xlink:title=" ">
<path fill="none" stroke="#63b8ff" d="M483.15,-337.62C450.63,-342.85 412.63,-348.96 381.39,-353.98"/>
<polygon fill="#63b8ff" stroke="#63b8ff" points="483.73,-341.08 493.05,-336.03 482.62,-334.16 483.73,-341.08"/>
</a>
</g>
</g>
<!-- Node13 -->
<g id="Node000013" class="node">
<title>Node13</title>
<g id="a_Node000013"><a xlink:href="../../de/d26/class_simple_sand.html#a9d1743cf5d13131793521e3fa2524327" target="_top" xlink:title=" ">
<polygon fill="white" stroke="#666666" points="400.5,-336 235.5,-336 235.5,-316 400.5,-316 400.5,-336"/>
<text text-anchor="middle" x="318" y="-323.2" font-family="Consolas" font-size="11.00">SimpleSand::initialize</text>
</a>
</g>
</g>
<!-- Node1&#45;&gt;Node13 -->
<g id="edge12_Node000001_Node000013" class="edge">
<title>Node1&#45;&gt;Node13</title>
<g id="a_edge12_Node000001_Node000013"><a xlink:title=" ">
<path fill="none" stroke="#63b8ff" d="M446.75,-326C431.21,-326 415.46,-326 400.56,-326"/>
<polygon fill="#63b8ff" stroke="#63b8ff" points="446.92,-329.5 456.92,-326 446.92,-322.5 446.92,-329.5"/>
</a>
</g>
</g>
<!-- Node14 -->
<g id="Node000014" class="node">
<title>Node14</title>
<g id="a_Node000014"><a xlink:href="../../d5/d60/class_armstrong_frederick.html#a5ba4eb48c084b7ebf7857c85aeaf30bb" target="_top" xlink:title=" ">
<polygon fill="white" stroke="#666666" points="387,-298 249,-298 249,-266 387,-266 387,-298"/>
<text text-anchor="start" x="257" y="-285.2" font-family="Consolas" font-size="11.00">ArmstrongFrederick</text>
<text text-anchor="middle" x="318" y="-273.2" font-family="Consolas" font-size="11.00">::initialize</text>
</a>
</g>
</g>
<!-- Node1&#45;&gt;Node14 -->
<g id="edge13_Node000001_Node000014" class="edge">
<title>Node1&#45;&gt;Node14</title>
<g id="a_edge13_Node000001_Node000014"><a xlink:title=" ">
<path fill="none" stroke="#63b8ff" d="M491.32,-314.06C459.05,-308.06 419.94,-300.78 387.14,-294.68"/>
<polygon fill="#63b8ff" stroke="#63b8ff" points="491.07,-317.57 501.54,-315.96 492.35,-310.69 491.07,-317.57"/>
</a>
</g>
</g>
<!-- Node15 -->
<g id="Node000015" class="node">
<title>Node15</title>
<g id="a_Node000015"><a xlink:href="../../d2/d24/class_balloon.html#ad8f231e2f86268936ea9145083fa9bf9" target="_top" xlink:title=" ">
<polygon fill="white" stroke="#666666" points="390.5,-248 245.5,-248 245.5,-228 390.5,-228 390.5,-248"/>
<text text-anchor="middle" x="318" y="-235.2" font-family="Consolas" font-size="11.00">Balloon::initialize</text>
</a>
</g>
</g>
<!-- Node1&#45;&gt;Node15 -->
<g id="edge14_Node000001_Node000015" class="edge">
<title>Node1&#45;&gt;Node15</title>
<g id="a_edge14_Node000001_Node000015"><a xlink:title=" ">
<path fill="none" stroke="#63b8ff" d="M530.73,-310.51C504.46,-294.75 461.26,-270.75 421,-257 410.52,-253.42 399.18,-250.46 388.01,-248.04"/>
<polygon fill="#63b8ff" stroke="#63b8ff" points="529.25,-313.7 539.61,-315.91 532.89,-307.72 529.25,-313.7"/>
</a>
</g>
</g>
<!-- Node16 -->
<g id="Node000016" class="node">
<title>Node16</title>
<g id="a_Node000016"><a xlink:href="../../d3/d0e/class_bilinear_j2.html#a7916b9fa904719b25d549f8c79a66a65" target="_top" xlink:title=" ">
<polygon fill="white" stroke="#666666" points="400.5,-210 235.5,-210 235.5,-190 400.5,-190 400.5,-210"/>
<text text-anchor="middle" x="318" y="-197.2" font-family="Consolas" font-size="11.00">BilinearJ2::initialize</text>
</a>
</g>
</g>
<!-- Node1&#45;&gt;Node16 -->
<g id="edge15_Node000001_Node000016" class="edge">
<title>Node1&#45;&gt;Node16</title>
<g id="a_edge15_Node000001_Node000016"><a xlink:title=" ">
<path fill="none" stroke="#63b8ff" d="M539.06,-308.35C515.41,-284.11 469.29,-241.04 421,-219 413.05,-215.37 404.45,-212.44 395.74,-210.06"/>
<polygon fill="#63b8ff" stroke="#63b8ff" points="536.75,-310.99 546.19,-315.79 541.8,-306.15 536.75,-310.99"/>
</a>
</g>
</g>
<!-- Node17 -->
<g id="Node000017" class="node">
<title>Node17</title>
<g id="a_Node000017"><a xlink:href="../../d1/dd0/class_nonlinear_gurson.html#acdd9b51bc5902bf6045affc48abd4251" target="_top" xlink:title=" ">
<polygon fill="white" stroke="#666666" points="417.5,-172 218.5,-172 218.5,-152 417.5,-152 417.5,-172"/>
<text text-anchor="middle" x="318" y="-159.2" font-family="Consolas" font-size="11.00">NonlinearGurson::initialize</text>
</a>
</g>
</g>
<!-- Node1&#45;&gt;Node17 -->
<g id="edge16_Node000001_Node000017" class="edge">
<title>Node1&#45;&gt;Node17</title>
<g id="a_edge16_Node000001_Node000017"><a xlink:title=" ">
<path fill="none" stroke="#63b8ff" d="M543.91,-307.13C523.37,-275.47 477.42,-212.08 421,-181 414.45,-177.39 407.35,-174.46 400.04,-172.07"/>
<polygon fill="#63b8ff" stroke="#63b8ff" points="541.13,-309.3 549.45,-315.87 547.05,-305.55 541.13,-309.3"/>
</a>
</g>
</g>
<!-- Node19 -->
<g id="Node000019" class="node">
<title>Node19</title>
<g id="a_Node000019"><a xlink:href="../../de/d54/class_nonlinear_j2.html#ab3bd52be8a4c60f5906aa76b1efaa4bf" target="_top" xlink:title=" ">
<polygon fill="white" stroke="#666666" points="404,-134 232,-134 232,-114 404,-114 404,-134"/>
<text text-anchor="middle" x="318" y="-121.2" font-family="Consolas" font-size="11.00">NonlinearJ2::initialize</text>
</a>
</g>
</g>
<!-- Node1&#45;&gt;Node19 -->
<g id="edge18_Node000001_Node000019" class="edge">
<title>Node1&#45;&gt;Node19</title>
<g id="a_edge18_Node000001_Node000019"><a xlink:title=" ">
<path fill="none" stroke="#63b8ff" d="M546.99,-306.02C529.52,-267.6 485.71,-183.62 421,-143 415.28,-139.41 409.05,-136.46 402.57,-134.05"/>
<polygon fill="#63b8ff" stroke="#63b8ff" points="543.97,-307.85 551.22,-315.58 550.38,-305.02 543.97,-307.85"/>
</a>
</g>
</g>
<!-- Node21 -->
<g id="Node000021" class="node">
<title>Node21</title>
<g id="a_Node000021"><a xlink:href="../../d0/d51/class_nonlinear_peric.html#a3a16129fe74862e60b6481e4d8f30b91" target="_top" xlink:title=" ">
<polygon fill="white" stroke="#666666" points="414,-96 222,-96 222,-76 414,-76 414,-96"/>
<text text-anchor="middle" x="318" y="-83.2" font-family="Consolas" font-size="11.00">NonlinearPeric::initialize</text>
</a>
</g>
</g>
<!-- Node1&#45;&gt;Node21 -->
<g id="edge20_Node000001_Node000021" class="edge">
<title>Node1&#45;&gt;Node21</title>
<g id="a_edge20_Node000001_Node000021"><a xlink:title=" ">
<path fill="none" stroke="#63b8ff" d="M549.52,-305.93C535.25,-261.73 494.76,-155.91 421,-105 415.81,-101.42 410.13,-98.46 404.2,-96.02"/>
<polygon fill="#63b8ff" stroke="#63b8ff" points="546.2,-307.03 552.52,-315.54 552.88,-304.95 546.2,-307.03"/>
</a>
</g>
</g>
<!-- Node22 -->
<g id="Node000022" class="node">
<title>Node22</title>
<g id="a_Node000022"><a xlink:href="../../d2/d04/class_subloading.html#a21095d0e8853ca33f3b1d6459e361d4b" target="_top" xlink:title=" ">
<polygon fill="white" stroke="#666666" points="400.5,-58 235.5,-58 235.5,-38 400.5,-38 400.5,-58"/>
<text text-anchor="middle" x="318" y="-45.2" font-family="Consolas" font-size="11.00">Subloading::initialize</text>
</a>
</g>
</g>
<!-- Node1&#45;&gt;Node22 -->
<g id="edge21_Node000001_Node000022" class="edge">
<title>Node1&#45;&gt;Node22</title>
<g id="a_edge21_Node000001_Node000022"><a xlink:title=" ">
<path fill="none" stroke="#63b8ff" d="M551.39,-305.95C540.16,-256.56 504.06,-128.58 421,-67 414.85,-62.44 407.93,-58.87 400.67,-56.09"/>
<polygon fill="#63b8ff" stroke="#63b8ff" points="547.98,-306.72 553.53,-315.75 554.82,-305.23 547.98,-306.72"/>
</a>
</g>
</g>
<!-- Node23 -->
<g id="Node000023" class="node">
<title>Node23</title>
<g id="a_Node000023"><a xlink:href="../../d9/d6d/class_v_a_f_c_r_p.html#aa593292147af72228afe2e0b78694773" target="_top" xlink:title=" ">
<polygon fill="white" stroke="#666666" points="387,-20 249,-20 249,0 387,0 387,-20"/>
<text text-anchor="middle" x="318" y="-7.2" font-family="Consolas" font-size="11.00">VAFCRP::initialize</text>
</a>
</g>
</g>
<!-- Node1&#45;&gt;Node23 -->
<g id="edge22_Node000001_Node000023" class="edge">
<title>Node1&#45;&gt;Node23</title>
<g id="a_edge22_Node000001_Node000023"><a xlink:title=" ">
<path fill="none" stroke="#63b8ff" d="M552.77,-305.67C544.32,-251.23 513.33,-101.38 421,-29 411.22,-21.33 399.3,-16.42 387.11,-13.33"/>
<polygon fill="#63b8ff" stroke="#63b8ff" points="549.34,-306.39 554.25,-315.78 556.26,-305.38 549.34,-306.39"/>
</a>
</g>
</g>
<!-- Node4 -->
<g id="Node000004" class="node">
<title>Node4</title>
<g id="a_Node000004"><a xlink:href="../../d6/d0d/class_custom_c_c.html#ab7fdc0cfc53f27b5f90a8fbbcbfd4a54" target="_top" xlink:title=" ">
<polygon fill="white" stroke="#666666" points="165.5,-626 13.5,-626 13.5,-606 165.5,-606 165.5,-626"/>
<text text-anchor="middle" x="89.5" y="-613.2" font-family="Consolas" font-size="11.00">CustomCC::initialize</text>
</a>
</g>
</g>
<!-- Node3&#45;&gt;Node4 -->
<g id="edge3_Node000003_Node000004" class="edge">
<title>Node3&#45;&gt;Node4</title>
<g id="a_edge3_Node000003_Node000004"><a xlink:title=" ">
<path fill="none" stroke="#63b8ff" d="M204.58,-616C191.36,-616 178.11,-616 165.58,-616"/>
<polygon fill="#63b8ff" stroke="#63b8ff" points="204.68,-619.5 214.68,-616 204.68,-612.5 204.68,-619.5"/>
</a>
</g>
</g>
<!-- Node7 -->
<g id="Node000007" class="node">
<title>Node7</title>
<g id="a_Node000007"><a xlink:href="../../d4/d09/class_custom_c_d_p.html#a67ff03a0d308595733331738044409b6" target="_top" xlink:title=" ">
<polygon fill="white" stroke="#666666" points="168.5,-550 10.5,-550 10.5,-530 168.5,-530 168.5,-550"/>
<text text-anchor="middle" x="89.5" y="-537.2" font-family="Consolas" font-size="11.00">CustomCDP::initialize</text>
</a>
</g>
</g>
<!-- Node6&#45;&gt;Node7 -->
<g id="edge6_Node000006_Node000007" class="edge">
<title>Node6&#45;&gt;Node7</title>
<g id="a_edge6_Node000006_Node000007"><a xlink:title=" ">
<path fill="none" stroke="#63b8ff" d="M218.2,-540C201.63,-540 184.64,-540 168.67,-540"/>
<polygon fill="#63b8ff" stroke="#63b8ff" points="218.46,-543.5 228.46,-540 218.46,-536.5 218.46,-543.5"/>
</a>
</g>
</g>
<!-- Node9 -->
<g id="Node000009" class="node">
<title>Node9</title>
<g id="a_Node000009"><a xlink:href="../../d1/d95/class_custom_d_p.html#a2b9127259ac05cfe7b2d8586d369278a" target="_top" xlink:title=" ">
<polygon fill="white" stroke="#666666" points="165.5,-506 13.5,-506 13.5,-486 165.5,-486 165.5,-506"/>
<text text-anchor="middle" x="89.5" y="-493.2" font-family="Consolas" font-size="11.00">CustomDP::initialize</text>
</a>
</g>
</g>
<!-- Node8&#45;&gt;Node9 -->
<g id="edge8_Node000008_Node000009" class="edge">
<title>Node8&#45;&gt;Node9</title>
<g id="a_edge8_Node000008_Node000009"><a xlink:title=" ">
<path fill="none" stroke="#63b8ff" d="M225.02,-496C205.32,-496 184.73,-496 165.74,-496"/>
<polygon fill="#63b8ff" stroke="#63b8ff" points="225.23,-499.5 235.23,-496 225.23,-492.5 225.23,-499.5"/>
</a>
</g>
</g>
<!-- Node18 -->
<g id="Node000018" class="node">
<title>Node18</title>
<g id="a_Node000018"><a xlink:href="../../de/d4b/class_custom_gurson.html#a9b4569f74f0f7f647df391164c952cbe" target="_top" xlink:title=" ">
<polygon fill="white" stroke="#666666" points="179,-172 0,-172 0,-152 179,-152 179,-172"/>
<text text-anchor="middle" x="89.5" y="-159.2" font-family="Consolas" font-size="11.00">CustomGurson::initialize</text>
</a>
</g>
</g>
<!-- Node17&#45;&gt;Node18 -->
<g id="edge17_Node000017_Node000018" class="edge">
<title>Node17&#45;&gt;Node18</title>
<g id="a_edge17_Node000017_Node000018"><a xlink:title=" ">
<path fill="none" stroke="#63b8ff" d="M208.22,-162C198.51,-162 188.76,-162 179.25,-162"/>
<polygon fill="#63b8ff" stroke="#63b8ff" points="208.31,-165.5 218.31,-162 208.31,-158.5 208.31,-165.5"/>
</a>
</g>
</g>
<!-- Node20 -->
<g id="Node000020" class="node">
<title>Node20</title>
<g id="a_Node000020"><a xlink:href="../../dc/dcb/class_custom_j2.html#af331cdda9a652cfaa5ce9b3092e5b7f7" target="_top" xlink:title=" ">
<polygon fill="white" stroke="#666666" points="165.5,-134 13.5,-134 13.5,-114 165.5,-114 165.5,-134"/>
<text text-anchor="middle" x="89.5" y="-121.2" font-family="Consolas" font-size="11.00">CustomJ2::initialize</text>
</a>
</g>
</g>
<!-- Node19&#45;&gt;Node20 -->
<g id="edge19_Node000019_Node000020" class="edge">
<title>Node19&#45;&gt;Node20</title>
<g id="a_edge19_Node000019_Node000020"><a xlink:title=" ">
<path fill="none" stroke="#63b8ff" d="M221.69,-124C202.99,-124 183.62,-124 165.69,-124"/>
<polygon fill="#63b8ff" stroke="#63b8ff" points="221.69,-127.5 231.69,-124 221.69,-120.5 221.69,-127.5"/>
</a>
</g>
</g>
</g>
</svg>

<g id="navigator" transform="translate(0 0)" fill="#404254">
  <rect fill="#f2f5e9" fill-opacity="0.5" stroke="#606060" stroke-width=".5" x="0" y="0" width="60" height="60"/>
  <use id="zoomplus" xlink:href="#zoomPlus" x="17" y="9" onmousedown="handleZoom(evt,'in')"/>
  <use id="zoomminus" xlink:href="#zoomMin" x="42" y="9" onmousedown="handleZoom(evt,'out')"/>
  <use id="reset" xlink:href="#resetDef" x="30" y="36" onmousedown="handleReset()"/>
   <use id="arrowup" xlink:href="#arrowUp" x="0" y="0" onmousedown="handlePan(0,-1)"/>
  <use id="arrowright" xlink:href="#arrowRight" x="0" y="0" onmousedown="handlePan(1,0)"/>
  <use id="arrowdown" xlink:href="#arrowDown" x="0" y="0" onmousedown="handlePan(0,1)"/>
  <use id="arrowleft" xlink:href="#arrowLeft" x="0" y="0" onmousedown="handlePan(-1,0)"/>
</g>
<svg viewBox="0 0 15 15" width="100%" height="30px" preserveAspectRatio="xMaxYMin meet">
 <g id="arrow_out" transform="scale(0.3 0.3)">
  <a xlink:href="namespacetensor_aa32a31a9292354d44052b8f5351669ce_icgraph_org.svg" target="_base">
   <rect id="button" ry="5" rx="5" y="6" x="6" height="38" width="38"
        fill="#f2f5e9" fill-opacity="0.5" stroke="#606060" stroke-width="1.0"/>
   <path id="arrow"
     d="M 11.500037,31.436501 C 11.940474,20.09759 22.043105,11.32322 32.158766,21.979434 L 37.068811,17.246167 C 37.068811,17.246167 37.088388,32 37.088388,32 L 22.160133,31.978069 C 22.160133,31.978069 26.997745,27.140456 26.997745,27.140456 C 18.528582,18.264221 13.291696,25.230495 11.500037,31.436501 z"
     style="fill:#404040;"/>
  </a>
 </g>
</svg>

<style type='text/css'>
<![CDATA[
[data-mouse-over-selected='false'] { opacity: 0.7; }
[data-mouse-over-selected='true']  { opacity: 1.0; }
]]>
</style>
<script type="application/ecmascript"><![CDATA[
document.addEventListener('DOMContentLoaded', (event) => {
  highlightEdges();
  highlightAdjacentNodes();
});
]]></script>
</svg>
