<?xml version="1.0" encoding="UTF-8" standalone="no"?>
<!DOCTYPE svg PUBLIC "-//W3C//DTD SVG 1.1//EN"
 "http://www.w3.org/Graphics/SVG/1.1/DTD/svg11.dtd">
<!-- Generated by graphviz version 2.43.0 (0)
 -->
<!-- Title: Element::get_complementary_energy Pages: 1 -->
<svg width="455pt" height="41pt"
 viewBox="0.00 0.00 455.00 41.00" xmlns="http://www.w3.org/2000/svg" xmlns:xlink="http://www.w3.org/1999/xlink">
<g id="graph0" class="graph" transform="scale(1 1) rotate(0) translate(4 37)">
<title>Element::get_complementary_energy</title>
<polygon fill="white" stroke="transparent" points="-4,4 -4,-37 451,-37 451,4 -4,4"/>
<!-- Node1 -->
<g id="node1" class="node">
<title>Node1</title>
<g id="a_node1"><a xlink:title=" ">
<polygon fill="#bfbfbf" stroke="black" points="255,-0.5 255,-32.5 447,-32.5 447,-0.5 255,-0.5"/>
<text text-anchor="start" x="263" y="-19.7" font-family="Consolas" font-size="11.00">Element::get_complementary</text>
<text text-anchor="middle" x="351" y="-7.7" font-family="Consolas" font-size="11.00">_energy</text>
</a>
</g>
</g>
<!-- Node2 -->
<g id="node2" class="node">
<title>Node2</title>
<g id="a_node2"><a xlink:href="../../de/ddd/class_complementary_energy_evolution.html#ae6a52958a270370073696a01f5d44e7f" target="_top" xlink:title=" ">
<polygon fill="white" stroke="black" points="0,-0.5 0,-32.5 219,-32.5 219,-0.5 0,-0.5"/>
<text text-anchor="start" x="8" y="-19.7" font-family="Consolas" font-size="11.00">ComplementaryEnergyEvolution</text>
<text text-anchor="middle" x="109.5" y="-7.7" font-family="Consolas" font-size="11.00">::ComplementaryEnergyEvolution</text>
</a>
</g>
</g>
<!-- Node1&#45;&gt;Node2 -->
<g id="edge1" class="edge">
<title>Node1&#45;&gt;Node2</title>
<path fill="none" stroke="midnightblue" d="M244.73,-16.5C236.27,-16.5 227.71,-16.5 219.22,-16.5"/>
<polygon fill="midnightblue" stroke="midnightblue" points="245,-20 255,-16.5 245,-13 245,-20"/>
</g>
</g>
</svg>
