<?xml version="1.0" encoding="UTF-8" standalone="no"?>
<!DOCTYPE svg PUBLIC "-//W3C//DTD SVG 1.1//EN"
 "http://www.w3.org/Graphics/SVG/1.1/DTD/svg11.dtd">
<!-- Generated by graphviz version 2.43.0 (0)
 -->
<!-- Title: DataYeoh Pages: 1 -->
<svg width="73pt" height="172pt"
 viewBox="0.00 0.00 73.00 172.00" xmlns="http://www.w3.org/2000/svg" xmlns:xlink="http://www.w3.org/1999/xlink">
<g id="graph0" class="graph" transform="scale(1 1) rotate(0) translate(4 168)">
<title>DataYeoh</title>
<!-- Node1 -->
<g id="Node000001" class="node">
<title>Node1</title>
<g id="a_Node000001"><a xlink:title=" ">
<polygon fill="#999999" stroke="transparent" points="65,-52 0,-52 0,0 65,0 65,-52"/>
<text text-anchor="start" x="5.5" y="-39.2" font-family="Consolas" font-size="11.00">DataYeoh</text>
<text text-anchor="start" x="29.5" y="-23.2" font-family="Consolas" font-size="11.00"> </text>
<text text-anchor="start" x="29.5" y="-7.2" font-family="Consolas" font-size="11.00"> </text>
<polygon fill="#666666" stroke="#666666" points="0.5,-34 0.5,-34 65.5,-34 65.5,-34 0.5,-34"/>
<polygon fill="#666666" stroke="#666666" points="0.5,-18 0.5,-18 65.5,-18 65.5,-18 0.5,-18"/>
<polygon fill="none" stroke="#666666" points="0,0 0,-52 65,-52 65,0 0,0"/>
</a>
</g>
</g>
<!-- Node2 -->
<g id="Node000002" class="node">
<title>Node2</title>
<g id="a_Node000002"><a xlink:title=" ">
<polygon fill="white" stroke="transparent" points="48,-164 17,-164 17,-112 48,-112 48,-164"/>
<text text-anchor="start" x="22.5" y="-151.2" font-family="Consolas" font-size="11.00">vec</text>
<text text-anchor="start" x="29.5" y="-135.2" font-family="Consolas" font-size="11.00"> </text>
<text text-anchor="start" x="29.5" y="-119.2" font-family="Consolas" font-size="11.00"> </text>
<polygon fill="#666666" stroke="#666666" points="17.5,-146 17.5,-146 48.5,-146 48.5,-146 17.5,-146"/>
<polygon fill="#666666" stroke="#666666" points="17.5,-130 17.5,-130 48.5,-130 48.5,-130 17.5,-130"/>
<polygon fill="none" stroke="#666666" points="17,-112 17,-164 48,-164 48,-112 17,-112"/>
</a>
</g>
</g>
<!-- Node2&#45;&gt;Node1 -->
<g id="edge1_Node000001_Node000002" class="edge">
<title>Node2&#45;&gt;Node1</title>
<g id="a_edge1_Node000001_Node000002"><a xlink:title=" ">
<path fill="none" stroke="#63b8ff" d="M32.5,-111.76C32.5,-97.79 32.5,-80.15 32.5,-64.58"/>
<polygon fill="none" stroke="#63b8ff" points="32.5,-64.12 28.5,-58.12 32.5,-52.12 36.5,-58.12 32.5,-64.12"/>
</a>
</g>
<text text-anchor="middle" x="46.5" y="-85.2" font-family="Consolas" font-size="11.00" fill="grey"> +A0</text>
<text text-anchor="middle" x="46.5" y="-73.2" font-family="Consolas" font-size="11.00" fill="grey">+A1</text>
</g>
</g>
</svg>
