<?xml version="1.0" encoding="UTF-8" standalone="no"?>
<!DOCTYPE svg PUBLIC "-//W3C//DTD SVG 1.1//EN"
 "http://www.w3.org/Graphics/SVG/1.1/DTD/svg11.dtd">
<!-- Generated by graphviz version 8.1.0 (20230707.0739)
 -->
<!-- Title: Bar2D Pages: 1 -->
<!--zoomable 1244 -->

<svg id="main" version="1.1" xmlns="http://www.w3.org/2000/svg" xmlns:xlink="http://www.w3.org/1999/xlink" xml:space="preserve" onload="init(evt)">
<style type="text/css"><![CDATA[
.node, .edge {opacity: 0.7;}
.node.selected, .edge.selected {opacity: 1;}
.edge:hover path { stroke: red; }
.edge:hover polygon { stroke: red; fill: red; }
]]></style>

<defs>
  <circle id="rim" cx="0" cy="0" r="7"/>
  <circle id="rim2" cx="0" cy="0" r="3.5"/>
  <g id="zoomPlus">
    <use xlink:href="#rim" fill="#404040"><set attributeName="fill" to="#808080" begin="zoomplus.mouseover" end="zoomplus.mouseout"/></use>
    <path d="M-4,0h8M0,-4v8" fill="none" stroke="white" stroke-width="1.5" pointer-events="none"/>
  </g>
  <g id="zoomMin">
    <use xlink:href="#rim" fill="#404040"><set attributeName="fill" to="#808080" begin="zoomminus.mouseover" end="zoomminus.mouseout"/></use>
    <path d="M-4,0h8" fill="none" stroke="white" stroke-width="1.5" pointer-events="none"/>
  </g>
  <g id="arrowUp" transform="translate(30 24)">
    <use xlink:href="#rim"/>
    <path pointer-events="none" fill="none" stroke="white" stroke-width="1.5" d="M0,-3.0v7 M-2.5,-0.5L0,-3.0L2.5,-0.5"/>
  </g>
  <g id="arrowRight" transform="rotate(90) translate(36 -43)">
    <use xlink:href="#rim"/>
    <path pointer-events="none" fill="none" stroke="white" stroke-width="1.5" d="M0,-3.0v7 M-2.5,-0.5L0,-3.0L2.5,-0.5"/>
  </g>
  <g id="arrowDown" transform="rotate(180) translate(-30 -48)">
    <use xlink:href="#rim"/>
    <path pointer-events="none" fill="none" stroke="white" stroke-width="1.5" d="M0,-3.0v7 M-2.5,-0.5L0,-3.0L2.5,-0.5"/>
  </g>
  <g id="arrowLeft" transform="rotate(270) translate(-36 17)">
    <use xlink:href="#rim"/>
    <path pointer-events="none" fill="none" stroke="white" stroke-width="1.5" d="M0,-3.0v7 M-2.5,-0.5L0,-3.0L2.5,-0.5"/>
  </g>
  <g id="resetDef">
    <use xlink:href="#rim2" fill="#404040"><set attributeName="fill" to="#808080" begin="reset.mouseover" end="reset.mouseout"/></use>
  </g>
</defs>
<script type="application/ecmascript">
var viewWidth = 636;
var viewHeight = 1244;
var sectionId = 'dynsection-1';
</script>
<script type="application/ecmascript" xlink:href="../../svg.min.js"/>
<svg id="graph" class="graph">
<g id="viewport">
<title>Bar2D</title>
<!-- Node1 -->
<g id="Node000001" class="node">
<title>Node1</title>
<g id="a_Node000001"><a xlink:title="A Bar2D class.">
<polygon fill="#999999" stroke="none" points="470,-259 326,-259 326,0 470,0 470,-259"/>
<text text-anchor="start" x="383" y="-244.55" font-family="Consolas" font-size="11.00">Bar2D</text>
<text text-anchor="start" x="395" y="-227.55" font-family="Consolas" font-size="11.00"> </text>
<text text-anchor="start" x="330" y="-210.55" font-family="Consolas" font-size="11.00">+</text>
<text text-anchor="start" x="340" y="-210.55" font-family="Consolas" font-size="11.00">Bar2D()</text>
<text text-anchor="start" x="330" y="-193.55" font-family="Consolas" font-size="11.00">+</text>
<text text-anchor="start" x="340" y="-193.55" font-family="Consolas" font-size="11.00">Bar2D()</text>
<text text-anchor="start" x="330" y="-176.55" font-family="Consolas" font-size="11.00">+</text>
<text text-anchor="start" x="340" y="-176.55" font-family="Consolas" font-size="11.00">Bar2D()</text>
<text text-anchor="start" x="330" y="-159.55" font-family="Consolas" font-size="11.00">+</text>
<text text-anchor="start" x="340" y="-159.55" font-family="Consolas" font-size="11.00">operator=()</text>
<text text-anchor="start" x="330" y="-142.55" font-family="Consolas" font-size="11.00">+</text>
<text text-anchor="start" x="340" y="-142.55" font-family="Consolas" font-size="11.00">operator=()</text>
<text text-anchor="start" x="330" y="-125.55" font-family="Consolas" font-size="11.00">+</text>
<text text-anchor="start" x="340" y="-125.55" font-family="Consolas" font-size="11.00">~Bar2D()</text>
<text text-anchor="start" x="330" y="-108.55" font-family="Consolas" font-size="11.00">+</text>
<text text-anchor="start" x="340" y="-108.55" font-family="Consolas" font-size="11.00">initialize()</text>
<text text-anchor="start" x="330" y="-91.55" font-family="Consolas" font-size="11.00">+</text>
<text text-anchor="start" x="340" y="-91.55" font-family="Consolas" font-size="11.00">get_copy()</text>
<text text-anchor="start" x="330" y="-74.55" font-family="Consolas" font-size="11.00">+</text>
<text text-anchor="start" x="340" y="-74.55" font-family="Consolas" font-size="11.00">update_trial_status()</text>
<text text-anchor="start" x="330" y="-57.55" font-family="Consolas" font-size="11.00">+</text>
<text text-anchor="start" x="340" y="-57.55" font-family="Consolas" font-size="11.00">clear_status()</text>
<text text-anchor="start" x="330" y="-40.55" font-family="Consolas" font-size="11.00">+</text>
<text text-anchor="start" x="340" y="-40.55" font-family="Consolas" font-size="11.00">commit_status()</text>
<text text-anchor="start" x="330" y="-23.55" font-family="Consolas" font-size="11.00">+</text>
<text text-anchor="start" x="340" y="-23.55" font-family="Consolas" font-size="11.00">reset_status()</text>
<text text-anchor="start" x="330" y="-6.55" font-family="Consolas" font-size="11.00">+</text>
<text text-anchor="start" x="340" y="-6.55" font-family="Consolas" font-size="11.00">print()</text>
<polygon fill="#666666" stroke="#666666" points="326,-240 326,-240 470,-240 470,-240 326,-240"/>
<polygon fill="#666666" stroke="#666666" points="326,-223 326,-223 470,-223 470,-223 326,-223"/>
<polygon fill="none" stroke="#666666" points="326,0 326,-259 470,-259 470,0 326,0"/>
</a>
</g>
</g>
<!-- Node2 -->
<g id="Node000002" class="node">
<title>Node2</title>
<g id="a_Node000002"><a xlink:href="../../d7/d9a/class_section2_d.html" target="_top" xlink:title="A Section2D class.">
<polygon fill="white" stroke="none" points="470,-419 326,-419 326,-296 470,-296 470,-419"/>
<text text-anchor="start" x="371" y="-404.55" font-family="Consolas" font-size="11.00">Section2D</text>
<text text-anchor="start" x="395" y="-387.55" font-family="Consolas" font-size="11.00"> </text>
<text text-anchor="start" x="330" y="-370.55" font-family="Consolas" font-size="11.00">+</text>
<text text-anchor="start" x="340" y="-370.55" font-family="Consolas" font-size="11.00">Section2D()</text>
<text text-anchor="start" x="330" y="-353.55" font-family="Consolas" font-size="11.00">+</text>
<text text-anchor="start" x="340" y="-353.55" font-family="Consolas" font-size="11.00">update_trial_status()</text>
<text text-anchor="start" x="330" y="-336.55" font-family="Consolas" font-size="11.00">+</text>
<text text-anchor="start" x="340" y="-336.55" font-family="Consolas" font-size="11.00">clear_status()</text>
<text text-anchor="start" x="330" y="-319.55" font-family="Consolas" font-size="11.00">+</text>
<text text-anchor="start" x="340" y="-319.55" font-family="Consolas" font-size="11.00">commit_status()</text>
<text text-anchor="start" x="330" y="-302.55" font-family="Consolas" font-size="11.00">+</text>
<text text-anchor="start" x="340" y="-302.55" font-family="Consolas" font-size="11.00">reset_status()</text>
<polygon fill="#666666" stroke="#666666" points="326,-400 326,-400 470,-400 470,-400 326,-400"/>
<polygon fill="#666666" stroke="#666666" points="326,-383 326,-383 470,-383 470,-383 326,-383"/>
<polygon fill="none" stroke="#666666" points="326,-296 326,-419 470,-419 470,-296 326,-296"/>
</a>
</g>
</g>
<!-- Node2&#45;&gt;Node1 -->
<g id="edge1_Node000001_Node000002" class="edge">
<title>Node2&#45;&gt;Node1</title>
<g id="a_edge1_Node000001_Node000002"><a xlink:title=" ">
<path fill="none" stroke="#63b8ff" d="M398,-285.51C398,-276.87 398,-267.85 398,-258.69"/>
<polygon fill="none" stroke="#63b8ff" points="394.5,-285.23 398,-295.23 401.5,-285.23 394.5,-285.23"/>
</a>
</g>
</g>
<!-- Node3 -->
<g id="Node000003" class="node">
<title>Node3</title>
<g id="a_Node000003"><a xlink:href="../../df/d29/class_section.html" target="_top" xlink:title="A Section class.">
<polygon fill="white" stroke="none" points="353,-693.5 233,-693.5 233,-468.5 353,-468.5 353,-693.5"/>
<text text-anchor="start" x="272" y="-679.05" font-family="Consolas" font-size="11.00">Section</text>
<text text-anchor="start" x="290" y="-662.05" font-family="Consolas" font-size="11.00"> </text>
<text text-anchor="start" x="237" y="-645.05" font-family="Consolas" font-size="11.00">+</text>
<text text-anchor="start" x="247" y="-645.05" font-family="Consolas" font-size="11.00">Section()</text>
<text text-anchor="start" x="237" y="-628.05" font-family="Consolas" font-size="11.00">+</text>
<text text-anchor="start" x="247" y="-628.05" font-family="Consolas" font-size="11.00">Section()</text>
<text text-anchor="start" x="237" y="-611.05" font-family="Consolas" font-size="11.00">+</text>
<text text-anchor="start" x="247" y="-611.05" font-family="Consolas" font-size="11.00">Section()</text>
<text text-anchor="start" x="237" y="-594.05" font-family="Consolas" font-size="11.00">+</text>
<text text-anchor="start" x="247" y="-594.05" font-family="Consolas" font-size="11.00">operator=()</text>
<text text-anchor="start" x="237" y="-577.05" font-family="Consolas" font-size="11.00">+</text>
<text text-anchor="start" x="247" y="-577.05" font-family="Consolas" font-size="11.00">operator=()</text>
<text text-anchor="start" x="237" y="-560.05" font-family="Consolas" font-size="11.00">+</text>
<text text-anchor="start" x="247" y="-560.05" font-family="Consolas" font-size="11.00">~Section()</text>
<text text-anchor="start" x="237" y="-543.05" font-family="Consolas" font-size="11.00">+</text>
<text text-anchor="start" x="247" y="-543.05" font-family="Consolas" font-size="11.00">initialize_base()</text>
<text text-anchor="start" x="237" y="-526.05" font-family="Consolas" font-size="11.00">+</text>
<text text-anchor="start" x="247" y="-526.05" font-family="Consolas" font-size="11.00">initialize()</text>
<text text-anchor="start" x="237" y="-509.05" font-family="Consolas" font-size="11.00">+</text>
<text text-anchor="start" x="247" y="-509.05" font-family="Consolas" font-size="11.00">set_initialized()</text>
<text text-anchor="start" x="237" y="-492.05" font-family="Consolas" font-size="11.00">+</text>
<text text-anchor="start" x="247" y="-492.05" font-family="Consolas" font-size="11.00">set_symmetric()</text>
<text text-anchor="start" x="247" y="-475.05" font-family="Consolas" font-size="11.00">and 28 more...</text>
<polygon fill="#666666" stroke="#666666" points="233,-674.5 233,-674.5 353,-674.5 353,-674.5 233,-674.5"/>
<polygon fill="#666666" stroke="#666666" points="233,-657.5 233,-657.5 353,-657.5 353,-657.5 233,-657.5"/>
<polygon fill="none" stroke="#666666" points="233,-468.5 233,-693.5 353,-693.5 353,-468.5 233,-468.5"/>
</a>
</g>
</g>
<!-- Node3&#45;&gt;Node2 -->
<g id="edge2_Node000002_Node000003" class="edge">
<title>Node3&#45;&gt;Node2</title>
<g id="a_edge2_Node000002_Node000003"><a xlink:title=" ">
<path fill="none" stroke="#63b8ff" d="M350.37,-458.98C356.94,-445.11 363.41,-431.47 369.36,-418.91"/>
<polygon fill="none" stroke="#63b8ff" points="346.93,-457.07 345.81,-467.6 353.25,-460.06 346.93,-457.07"/>
</a>
</g>
</g>
<!-- Node4 -->
<g id="Node000004" class="node">
<title>Node4</title>
<g id="a_Node000004"><a xlink:href="../../d0/d02/struct_data_section.html" target="_top" xlink:title=" ">
<polygon fill="white" stroke="none" points="281,-904.5 205,-904.5 205,-849.5 281,-849.5 281,-904.5"/>
<text text-anchor="start" x="210" y="-890.05" font-family="Consolas" font-size="11.00">DataSection</text>
<text text-anchor="start" x="240" y="-873.05" font-family="Consolas" font-size="11.00"> </text>
<text text-anchor="start" x="240" y="-856.05" font-family="Consolas" font-size="11.00"> </text>
<polygon fill="#666666" stroke="#666666" points="205,-885.5 205,-885.5 281,-885.5 281,-885.5 205,-885.5"/>
<polygon fill="#666666" stroke="#666666" points="205,-868.5 205,-868.5 281,-868.5 281,-868.5 205,-868.5"/>
<polygon fill="none" stroke="#666666" points="205,-849.5 205,-904.5 281,-904.5 281,-849.5 205,-849.5"/>
</a>
</g>
</g>
<!-- Node4&#45;&gt;Node3 -->
<g id="edge3_Node000003_Node000004" class="edge">
<title>Node4&#45;&gt;Node3</title>
<g id="a_edge3_Node000003_Node000004"><a xlink:title=" ">
<path fill="none" stroke="darkgreen" d="M249.29,-839.02C255.51,-802.47 265.33,-744.71 274.09,-693.19"/>
<polygon fill="none" stroke="darkgreen" points="245.71,-838.21 247.48,-848.65 252.61,-839.38 245.71,-838.21"/>
</a>
</g>
</g>
<!-- Node5 -->
<g id="Node000005" class="node">
<title>Node5</title>
<g id="a_Node000005"><a xlink:title=" ">
<polygon fill="white" stroke="none" points="58,-1236 0,-1236 0,-1181 58,-1181 58,-1236"/>
<text text-anchor="start" x="5" y="-1221.55" font-family="Consolas" font-size="11.00">unsigned</text>
<text text-anchor="start" x="26" y="-1204.55" font-family="Consolas" font-size="11.00"> </text>
<text text-anchor="start" x="26" y="-1187.55" font-family="Consolas" font-size="11.00"> </text>
<polygon fill="#666666" stroke="#666666" points="0,-1217 0,-1217 58,-1217 58,-1217 0,-1217"/>
<polygon fill="#666666" stroke="#666666" points="0,-1200 0,-1200 58,-1200 58,-1200 0,-1200"/>
<polygon fill="none" stroke="#666666" points="0,-1181 0,-1236 58,-1236 58,-1181 0,-1181"/>
</a>
</g>
</g>
<!-- Node5&#45;&gt;Node4 -->
<g id="edge4_Node000004_Node000005" class="edge">
<title>Node5&#45;&gt;Node4</title>
<g id="a_edge4_Node000004_Node000005"><a xlink:title=" ">
<path fill="none" stroke="#63b8ff" d="M26.47,-1181.29C24.38,-1147.01 24.93,-1086.07 49,-1041.5 82.09,-980.23 148.3,-932.28 194.11,-904.56"/>
<polygon fill="none" stroke="#63b8ff" points="194.17,-904.52 197.3,-898.03 204.5,-898.42 201.37,-904.91 194.17,-904.52"/>
</a>
</g>
<text text-anchor="middle" x="91" y="-1098.55" font-family="Consolas" font-size="11.00" fill="grey"> +material_tag</text>
</g>
<!-- Node6 -->
<g id="Node000006" class="node">
<title>Node6</title>
<g id="a_Node000006"><a xlink:title=" ">
<polygon fill="white" stroke="none" points="192,-1236 80,-1236 80,-1181 192,-1181 192,-1236"/>
<text text-anchor="start" x="85" y="-1221.55" font-family="Consolas" font-size="11.00">const SectionType</text>
<text text-anchor="start" x="133" y="-1204.55" font-family="Consolas" font-size="11.00"> </text>
<text text-anchor="start" x="133" y="-1187.55" font-family="Consolas" font-size="11.00"> </text>
<polygon fill="#666666" stroke="#666666" points="80,-1217 80,-1217 192,-1217 192,-1217 80,-1217"/>
<polygon fill="#666666" stroke="#666666" points="80,-1200 80,-1200 192,-1200 192,-1200 80,-1200"/>
<polygon fill="none" stroke="#666666" points="80,-1181 80,-1236 192,-1236 192,-1181 80,-1181"/>
</a>
</g>
</g>
<!-- Node6&#45;&gt;Node4 -->
<g id="edge5_Node000004_Node000006" class="edge">
<title>Node6&#45;&gt;Node4</title>
<g id="a_edge5_Node000004_Node000006"><a xlink:title=" ">
<path fill="none" stroke="#63b8ff" d="M135.97,-1181.28C136.61,-1148.02 140.03,-1089.25 155,-1041.5 169.49,-995.28 197.3,-946.98 217.79,-914.97"/>
<polygon fill="none" stroke="#63b8ff" points="217.66,-915.17 217.58,-907.96 224.21,-905.11 224.28,-912.32 217.66,-915.17"/>
</a>
</g>
<text text-anchor="middle" x="197" y="-1098.55" font-family="Consolas" font-size="11.00" fill="grey"> +section_type</text>
</g>
<!-- Node7 -->
<g id="Node000007" class="node">
<title>Node7</title>
<g id="a_Node000007"><a xlink:title=" ">
<polygon fill="white" stroke="none" points="266,-1236 220,-1236 220,-1181 266,-1181 266,-1236"/>
<text text-anchor="start" x="225" y="-1221.55" font-family="Consolas" font-size="11.00">double</text>
<text text-anchor="start" x="240" y="-1204.55" font-family="Consolas" font-size="11.00"> </text>
<text text-anchor="start" x="240" y="-1187.55" font-family="Consolas" font-size="11.00"> </text>
<polygon fill="#666666" stroke="#666666" points="220,-1217 220,-1217 266,-1217 266,-1217 220,-1217"/>
<polygon fill="#666666" stroke="#666666" points="220,-1200 220,-1200 266,-1200 266,-1200 220,-1200"/>
<polygon fill="none" stroke="#666666" points="220,-1181 220,-1236 266,-1236 266,-1181 220,-1181"/>
</a>
</g>
</g>
<!-- Node7&#45;&gt;Node4 -->
<g id="edge6_Node000004_Node000007" class="edge">
<title>Node7&#45;&gt;Node4</title>
<g id="a_edge6_Node000004_Node000007"><a xlink:title=" ">
<path fill="none" stroke="#63b8ff" d="M243,-1181.09C243,-1123.23 243,-985.02 243,-917.07"/>
<polygon fill="none" stroke="#63b8ff" points="243,-916.98 239,-910.98 243,-904.98 247,-910.98 243,-916.98"/>
</a>
</g>
<text text-anchor="middle" x="288" y="-1105.3" font-family="Consolas" font-size="11.00" fill="grey"> +area</text>
<text text-anchor="middle" x="288" y="-1091.8" font-family="Consolas" font-size="11.00" fill="grey">+linear_density</text>
</g>
<!-- Node8 -->
<g id="Node000008" class="node">
<title>Node8</title>
<g id="a_Node000008"><a xlink:title=" ">
<polygon fill="white" stroke="none" points="370,-1236 342,-1236 342,-1181 370,-1181 370,-1236"/>
<text text-anchor="start" x="347" y="-1221.55" font-family="Consolas" font-size="11.00">vec</text>
<text text-anchor="start" x="353" y="-1204.55" font-family="Consolas" font-size="11.00"> </text>
<text text-anchor="start" x="353" y="-1187.55" font-family="Consolas" font-size="11.00"> </text>
<polygon fill="#666666" stroke="#666666" points="342,-1217 342,-1217 370,-1217 370,-1217 342,-1217"/>
<polygon fill="#666666" stroke="#666666" points="342,-1200 342,-1200 370,-1200 370,-1200 342,-1200"/>
<polygon fill="none" stroke="#666666" points="342,-1181 342,-1236 370,-1236 370,-1181 342,-1181"/>
</a>
</g>
</g>
<!-- Node8&#45;&gt;Node4 -->
<g id="edge7_Node000004_Node000008" class="edge">
<title>Node8&#45;&gt;Node4</title>
<g id="a_edge7_Node000004_Node000008"><a xlink:title=" ">
<path fill="none" stroke="#63b8ff" d="M355.65,-1181.19C354.6,-1140 350.43,-1062.79 334,-1041.5 321.09,-1024.77 304.36,-1039 290,-1023.5 262.88,-994.24 251.4,-949.19 246.55,-916.97"/>
<polygon fill="none" stroke="#63b8ff" points="246.59,-917.25 241.84,-911.82 245.02,-905.35 249.77,-910.78 246.59,-917.25"/>
</a>
</g>
<text text-anchor="middle" x="418" y="-1152.55" font-family="Consolas" font-size="11.00" fill="grey"> +current_deformation</text>
<text text-anchor="start" x="355" y="-1139.05" font-family="Consolas" font-size="11.00" fill="grey">+current_deformation</text>
<text text-anchor="middle" x="418" y="-1125.55" font-family="Consolas" font-size="11.00" fill="grey">_rate</text>
<text text-anchor="middle" x="418" y="-1112.05" font-family="Consolas" font-size="11.00" fill="grey">+current_resistance</text>
<text text-anchor="middle" x="418" y="-1098.55" font-family="Consolas" font-size="11.00" fill="grey">+eccentricity</text>
<text text-anchor="middle" x="418" y="-1085.05" font-family="Consolas" font-size="11.00" fill="grey">+trial_deformation</text>
<text text-anchor="start" x="355" y="-1071.55" font-family="Consolas" font-size="11.00" fill="grey">+trial_deformation</text>
<text text-anchor="middle" x="418" y="-1058.05" font-family="Consolas" font-size="11.00" fill="grey">_rate</text>
<text text-anchor="middle" x="418" y="-1044.55" font-family="Consolas" font-size="11.00" fill="grey">+trial_resistance</text>
</g>
<!-- Node9 -->
<g id="Node000009" class="node">
<title>Node9</title>
<g id="a_Node000009"><a xlink:title=" ">
<polygon fill="white" stroke="none" points="519,-1236 491,-1236 491,-1181 519,-1181 519,-1236"/>
<text text-anchor="start" x="496" y="-1221.55" font-family="Consolas" font-size="11.00">mat</text>
<text text-anchor="start" x="502" y="-1204.55" font-family="Consolas" font-size="11.00"> </text>
<text text-anchor="start" x="502" y="-1187.55" font-family="Consolas" font-size="11.00"> </text>
<polygon fill="#666666" stroke="#666666" points="491,-1217 491,-1217 519,-1217 519,-1217 491,-1217"/>
<polygon fill="#666666" stroke="#666666" points="491,-1200 491,-1200 519,-1200 519,-1200 491,-1200"/>
<polygon fill="none" stroke="#666666" points="491,-1181 491,-1236 519,-1236 519,-1181 491,-1181"/>
</a>
</g>
</g>
<!-- Node9&#45;&gt;Node4 -->
<g id="edge8_Node000004_Node000009" class="edge">
<title>Node9&#45;&gt;Node4</title>
<g id="a_edge8_Node000004_Node000009"><a xlink:title=" ">
<path fill="none" stroke="#63b8ff" d="M510.4,-1181.27C516.32,-1144.36 520.5,-1077.58 483,-1041.5 451.96,-1011.64 323.61,-1050.44 290,-1023.5 258.18,-998 247.63,-950.71 244.27,-916.97"/>
<polygon fill="none" stroke="#63b8ff" points="244.29,-917.19 239.83,-911.52 243.35,-905.23 247.81,-910.9 244.29,-917.19"/>
</a>
</g>
<text text-anchor="middle" x="571" y="-1112.05" font-family="Consolas" font-size="11.00" fill="grey"> +current_stiffness</text>
<text text-anchor="middle" x="571" y="-1098.55" font-family="Consolas" font-size="11.00" fill="grey">+initial_stiffness</text>
<text text-anchor="middle" x="571" y="-1085.05" font-family="Consolas" font-size="11.00" fill="grey">+trial_stiffness</text>
</g>
<!-- Node10 -->
<g id="Node000010" class="node">
<title>Node10</title>
<g id="a_Node000010"><a xlink:href="../../d0/d57/class_tag.html" target="_top" xlink:title="A base Tag class.">
<polygon fill="white" stroke="none" points="389,-1023.5 299,-1023.5 299,-730.5 389,-730.5 389,-1023.5"/>
<text text-anchor="start" x="335" y="-1009.05" font-family="Consolas" font-size="11.00">Tag</text>
<text text-anchor="start" x="341" y="-992.05" font-family="Consolas" font-size="11.00"> </text>
<text text-anchor="start" x="303" y="-975.05" font-family="Consolas" font-size="11.00">+</text>
<text text-anchor="start" x="313" y="-975.05" font-family="Consolas" font-size="11.00">Tag()</text>
<text text-anchor="start" x="303" y="-958.05" font-family="Consolas" font-size="11.00">+</text>
<text text-anchor="start" x="313" y="-958.05" font-family="Consolas" font-size="11.00">Tag()</text>
<text text-anchor="start" x="303" y="-941.05" font-family="Consolas" font-size="11.00">+</text>
<text text-anchor="start" x="313" y="-941.05" font-family="Consolas" font-size="11.00">Tag()</text>
<text text-anchor="start" x="303" y="-924.05" font-family="Consolas" font-size="11.00">+</text>
<text text-anchor="start" x="313" y="-924.05" font-family="Consolas" font-size="11.00">operator=()</text>
<text text-anchor="start" x="303" y="-907.05" font-family="Consolas" font-size="11.00">+</text>
<text text-anchor="start" x="313" y="-907.05" font-family="Consolas" font-size="11.00">operator=()</text>
<text text-anchor="start" x="303" y="-890.05" font-family="Consolas" font-size="11.00">+</text>
<text text-anchor="start" x="313" y="-890.05" font-family="Consolas" font-size="11.00">~Tag()</text>
<text text-anchor="start" x="303" y="-873.05" font-family="Consolas" font-size="11.00">+</text>
<text text-anchor="start" x="313" y="-873.05" font-family="Consolas" font-size="11.00">set_tag()</text>
<text text-anchor="start" x="303" y="-856.05" font-family="Consolas" font-size="11.00">+</text>
<text text-anchor="start" x="313" y="-856.05" font-family="Consolas" font-size="11.00">get_tag()</text>
<text text-anchor="start" x="303" y="-839.05" font-family="Consolas" font-size="11.00">+</text>
<text text-anchor="start" x="313" y="-839.05" font-family="Consolas" font-size="11.00">enable()</text>
<text text-anchor="start" x="303" y="-822.05" font-family="Consolas" font-size="11.00">+</text>
<text text-anchor="start" x="313" y="-822.05" font-family="Consolas" font-size="11.00">disable()</text>
<text text-anchor="start" x="303" y="-805.05" font-family="Consolas" font-size="11.00">+</text>
<text text-anchor="start" x="313" y="-805.05" font-family="Consolas" font-size="11.00">guard()</text>
<text text-anchor="start" x="303" y="-788.05" font-family="Consolas" font-size="11.00">+</text>
<text text-anchor="start" x="313" y="-788.05" font-family="Consolas" font-size="11.00">unguard()</text>
<text text-anchor="start" x="303" y="-771.05" font-family="Consolas" font-size="11.00">+</text>
<text text-anchor="start" x="313" y="-771.05" font-family="Consolas" font-size="11.00">is_active()</text>
<text text-anchor="start" x="303" y="-754.05" font-family="Consolas" font-size="11.00">+</text>
<text text-anchor="start" x="313" y="-754.05" font-family="Consolas" font-size="11.00">is_guarded()</text>
<text text-anchor="start" x="303" y="-737.05" font-family="Consolas" font-size="11.00">+</text>
<text text-anchor="start" x="313" y="-737.05" font-family="Consolas" font-size="11.00">print()</text>
<polygon fill="#666666" stroke="#666666" points="299,-1004.5 299,-1004.5 389,-1004.5 389,-1004.5 299,-1004.5"/>
<polygon fill="#666666" stroke="#666666" points="299,-987.5 299,-987.5 389,-987.5 389,-987.5 299,-987.5"/>
<polygon fill="none" stroke="#666666" points="299,-730.5 299,-1023.5 389,-1023.5 389,-730.5 299,-730.5"/>
</a>
</g>
</g>
<!-- Node10&#45;&gt;Node3 -->
<g id="edge9_Node000003_Node000010" class="edge">
<title>Node10&#45;&gt;Node3</title>
<g id="a_edge9_Node000003_Node000010"><a xlink:title=" ">
<path fill="none" stroke="#63b8ff" d="M316.96,-720.11C315.39,-711.08 313.83,-702.09 312.3,-693.28"/>
<polygon fill="none" stroke="#63b8ff" points="313.64,-720.47 318.8,-729.72 320.54,-719.27 313.64,-720.47"/>
</a>
</g>
</g>
<!-- Node11 -->
<g id="Node000011" class="node">
<title>Node11</title>
<g id="a_Node000011"><a xlink:title=" ">
<polygon fill="white" stroke="none" points="495,-615.5 371,-615.5 371,-546.5 495,-546.5 495,-615.5"/>
<text text-anchor="start" x="376" y="-601.05" font-family="Consolas" font-size="11.00">vector&lt; Section2D::</text>
<text text-anchor="start" x="379" y="-587.55" font-family="Consolas" font-size="11.00">IntegrationPoint &gt;</text>
<text text-anchor="start" x="430" y="-570.05" font-family="Consolas" font-size="11.00"> </text>
<text text-anchor="start" x="430" y="-553.05" font-family="Consolas" font-size="11.00"> </text>
<polygon fill="#666666" stroke="#666666" points="371,-582.5 371,-582.5 495,-582.5 495,-582.5 371,-582.5"/>
<polygon fill="#666666" stroke="#666666" points="371,-565.5 371,-565.5 495,-565.5 495,-565.5 371,-565.5"/>
<polygon fill="none" stroke="#666666" points="371,-546.5 371,-615.5 495,-615.5 495,-546.5 371,-546.5"/>
</a>
</g>
</g>
<!-- Node11&#45;&gt;Node2 -->
<g id="edge10_Node000002_Node000011" class="edge">
<title>Node11&#45;&gt;Node2</title>
<g id="a_edge10_Node000002_Node000011"><a xlink:title=" ">
<path fill="none" stroke="#63b8ff" d="M427.76,-546.84C422.95,-516.41 415.66,-470.29 409.5,-431.3"/>
<polygon fill="none" stroke="#63b8ff" points="409.52,-431.39 404.63,-426.09 407.65,-419.54 412.53,-424.84 409.52,-431.39"/>
</a>
</g>
<text text-anchor="middle" x="436" y="-440.05" font-family="Consolas" font-size="11.00" fill="grey"> #int_pt</text>
</g>
</g>
</svg>

<g id="navigator" transform="translate(0 0)" fill="#404254">
  <rect fill="#f2f5e9" fill-opacity="0.5" stroke="#606060" stroke-width=".5" x="0" y="0" width="60" height="60"/>
  <use id="zoomplus" xlink:href="#zoomPlus" x="17" y="9" onmousedown="handleZoom(evt,'in')"/>
  <use id="zoomminus" xlink:href="#zoomMin" x="42" y="9" onmousedown="handleZoom(evt,'out')"/>
  <use id="reset" xlink:href="#resetDef" x="30" y="36" onmousedown="handleReset()"/>
   <use id="arrowup" xlink:href="#arrowUp" x="0" y="0" onmousedown="handlePan(0,-1)"/>
  <use id="arrowright" xlink:href="#arrowRight" x="0" y="0" onmousedown="handlePan(1,0)"/>
  <use id="arrowdown" xlink:href="#arrowDown" x="0" y="0" onmousedown="handlePan(0,1)"/>
  <use id="arrowleft" xlink:href="#arrowLeft" x="0" y="0" onmousedown="handlePan(-1,0)"/>
</g>
<svg viewBox="0 0 15 15" width="100%" height="30px" preserveAspectRatio="xMaxYMin meet">
 <g id="arrow_out" transform="scale(0.3 0.3)">
  <a xlink:href="class_bar2_d__coll__graph_org.svg" target="_base">
   <rect id="button" ry="5" rx="5" y="6" x="6" height="38" width="38"
        fill="#f2f5e9" fill-opacity="0.5" stroke="#606060" stroke-width="1.0"/>
   <path id="arrow"
     d="M 11.500037,31.436501 C 11.940474,20.09759 22.043105,11.32322 32.158766,21.979434 L 37.068811,17.246167 C 37.068811,17.246167 37.088388,32 37.088388,32 L 22.160133,31.978069 C 22.160133,31.978069 26.997745,27.140456 26.997745,27.140456 C 18.528582,18.264221 13.291696,25.230495 11.500037,31.436501 z"
     style="fill:#404040;"/>
  </a>
 </g>
</svg>

<style type='text/css'>
<![CDATA[
[data-mouse-over-selected='false'] { opacity: 0.7; }
[data-mouse-over-selected='true']  { opacity: 1.0; }
]]>
</style>
<script type="application/ecmascript"><![CDATA[
document.addEventListener('DOMContentLoaded', (event) => {
  highlightEdges();
  highlightAdjacentNodes();
});
]]></script>
</svg>
