<svg xmlns="http://www.w3.org/2000/svg" xmlns:xlink="http://www.w3.org/1999/xlink" xml:space="preserve" id="main" onload="init(evt)"><style>.edge,.node,[data-mouse-over-selected=false]{opacity:.7}.edge.selected,.node.selected,[data-mouse-over-selected=true]{opacity:1}.edge:hover path{stroke:red}.edge:hover polygon{stroke:red;fill:red}</style><defs><g id="zoomPlus"><use xlink:href="#rim" fill="#404040"><set attributeName="fill" begin="zoomplus.mouseover" end="zoomplus.mouseout" to="#808080"/></use><path fill="none" stroke="#fff" stroke-width="1.5" d="M-4 0h8M0-4v8" pointer-events="none"/></g><g id="zoomMin"><use xlink:href="#rim" fill="#404040"><set attributeName="fill" begin="zoomminus.mouseover" end="zoomminus.mouseout" to="#808080"/></use><path fill="none" stroke="#fff" stroke-width="1.5" d="M-4 0h8" pointer-events="none"/></g><g id="arrowUp" transform="translate(30 24)"><use xlink:href="#rim"/><path fill="none" stroke="#fff" stroke-width="1.5" d="M0-3v7M-2.5-.5 0-3 2.5-.5" pointer-events="none"/></g><g id="arrowRight" transform="rotate(90 3.5 39.5)"><use xlink:href="#rim"/><path fill="none" stroke="#fff" stroke-width="1.5" d="M0-3v7M-2.5-.5 0-3 2.5-.5" pointer-events="none"/></g><g id="arrowDown" transform="matrix(-1 0 0 -1 30 48)"><use xlink:href="#rim"/><path fill="none" stroke="#fff" stroke-width="1.5" d="M0-3v7M-2.5-.5 0-3 2.5-.5" pointer-events="none"/></g><g id="arrowLeft" transform="rotate(-90 26.5 9.5)"><use xlink:href="#rim"/><path fill="none" stroke="#fff" stroke-width="1.5" d="M0-3v7M-2.5-.5 0-3 2.5-.5" pointer-events="none"/></g><circle id="rim" cx="0" cy="0" r="7"/><circle id="rim2" cx="0" cy="0" r="3.5"/><use xlink:href="#rim2" id="resetDef" fill="#404040"><set attributeName="fill" begin="reset.mouseover" end="reset.mouseout" to="#808080"/></use></defs><script type="application/ecmascript">var viewWidth = 136;
var viewHeight = 1068;
var sectionId = &apos;dynsection-0&apos;;</script><script xlink:href="../../svg.min.js" type="application/ecmascript"/><svg id="graph" class="graph"><g id="viewport"><title>NodeRecorder</title><g id="Node000001" class="node"><title>Node1</title><a xlink:title="A NodeRecorder class." id="a_Node000001">
<path fill="#999" stroke="transparent" d="M114.5-172h-101v84h101z"/>
<text x="23.5" y="-159.2" font-family="Consolas" font-size="11">NodeRecorder</text>
<text x="61" y="-143.2" font-family="Consolas" font-size="11"> </text>
<text x="18" y="-127.2" font-family="Consolas" font-size="11">+</text>
<text x="29" y="-127.2" font-family="Consolas" font-size="11">initialize()</text>
<text x="18" y="-111.2" font-family="Consolas" font-size="11">+</text>
<text x="29" y="-111.2" font-family="Consolas" font-size="11">print()</text>
<text x="18" y="-95.2" font-family="Consolas" font-size="11">+</text>
<text x="29" y="-95.2" font-family="Consolas" font-size="11">Recorder()</text>
<path fill="#666" stroke="#666" d="M14-154h101z"/>
<path fill="#666" stroke="#666" d="M14-138h101z"/>
<path fill="none" stroke="#666" d="M13.5-88v-84h101v84z"/>
</a></g><g id="Node000005" class="node"><title>Node5</title><a xlink:href="../../d1/dcb/class_group_node_recorder.html" id="a_Node000005" target="_top">
<path fill="#fff" stroke="transparent" d="M126.5-52H1.5V0h125z"/>
<text x="7" y="-39.2" font-family="Consolas" font-size="11">GroupNodeRecorder</text>
<text x="61" y="-23.2" font-family="Consolas" font-size="11"> </text>
<text x="20.5" y="-7.2" font-family="Consolas" font-size="11">+</text>
<text x="46" y="-7.2" font-family="Consolas" font-size="11">print()</text>
<path fill="#666" stroke="#666" d="M2-34h125z"/>
<path fill="#666" stroke="#666" d="M2-18h125z"/>
<path fill="none" stroke="#666" d="M1.5 0v-52h125V0z"/>
</a></g><g id="edge4_Node000001_Node000005" class="edge"><title>Node1-&gt;Node5</title><a id="a_edge4_Node000001_Node000005">
<path fill="none" stroke="#63b8ff" d="M64-77.52v25.32"/>
<path fill="none" stroke="#63b8ff" d="m60.5-77.81 3.5-10 3.5 10z"/>
</a></g><g id="Node000002" class="node"><title>Node2</title><a xlink:href="../../d3/d1a/class_recorder.html" xlink:title="A Recorder class." id="a_Node000002" target="_top">
<path fill="#fff" stroke="transparent" d="M128-548H0v340h128z"/>
<text x="36.5" y="-535.2" font-family="Consolas" font-size="11">Recorder</text>
<text x="4" y="-519.2" font-family="Consolas" font-size="11">#</text>
<text x="15" y="-519.2" font-family="Consolas" font-size="11">original_type</text>
<text x="4" y="-503.2" font-family="Consolas" font-size="11">#</text>
<text x="15" y="-503.2" font-family="Consolas" font-size="11">variable_type</text>
<text x="4" y="-487.2" font-family="Consolas" font-size="11">#</text>
<text x="15" y="-487.2" font-family="Consolas" font-size="11">component</text>
<text x="4" y="-471.2" font-family="Consolas" font-size="11">#</text>
<text x="15" y="-471.2" font-family="Consolas" font-size="11">interval</text>
<text x="4" y="-455.2" font-family="Consolas" font-size="11">#</text>
<text x="15" y="-455.2" font-family="Consolas" font-size="11">reference_tag</text>
<text x="4" y="-439.2" font-family="Consolas" font-size="11">#</text>
<text x="15" y="-439.2" font-family="Consolas" font-size="11">object_tag</text>
<text x="4" y="-423.2" font-family="Consolas" font-size="11">#</text>
<text x="15" y="-423.2" font-family="Consolas" font-size="11">time_pool</text>
<text x="4" y="-407.2" font-family="Consolas" font-size="11">#</text>
<text x="15" y="-407.2" font-family="Consolas" font-size="11">data_pool</text>
<text x="4" y="-391.2" font-family="Consolas" font-size="11">#</text>
<text x="15" y="-391.2" font-family="Consolas" font-size="11">counter</text>
<text x="4" y="-375.2" font-family="Consolas" font-size="11">+</text>
<text x="15" y="-375.2" font-family="Consolas" font-size="11">Recorder()</text>
<text x="4" y="-359.2" font-family="Consolas" font-size="11">+</text>
<text x="15" y="-359.2" font-family="Consolas" font-size="11">initialize()</text>
<text x="4" y="-343.2" font-family="Consolas" font-size="11">+</text>
<text x="15" y="-343.2" font-family="Consolas" font-size="11">insert()</text>
<text x="4" y="-327.2" font-family="Consolas" font-size="11">+</text>
<text x="15" y="-327.2" font-family="Consolas" font-size="11">insert()</text>
<text x="4" y="-311.2" font-family="Consolas" font-size="11">+</text>
<text x="15" y="-311.2" font-family="Consolas" font-size="11">record()</text>
<text x="4" y="-295.2" font-family="Consolas" font-size="11">+</text>
<text x="15" y="-295.2" font-family="Consolas" font-size="11">clear_status()</text>
<text x="4" y="-279.2" font-family="Consolas" font-size="11">+</text>
<text x="15" y="-279.2" font-family="Consolas" font-size="11">save()</text>
<text x="4" y="-263.2" font-family="Consolas" font-size="11">+</text>
<text x="15" y="-263.2" font-family="Consolas" font-size="11">print()</text>
<text x="4" y="-247.2" font-family="Consolas" font-size="11">#</text>
<text x="15" y="-247.2" font-family="Consolas" font-size="11">update_tag()</text>
<text x="4" y="-231.2" font-family="Consolas" font-size="11">#</text>
<text x="15" y="-231.2" font-family="Consolas" font-size="11">record_impl()</text>
<text x="4" y="-215.2" font-family="Consolas" font-size="11">#</text>
<text x="15" y="-215.2" font-family="Consolas" font-size="11">normalise_size()</text>
<path fill="#666" stroke="#666" d="M0-530h128z"/>
<path fill="#666" stroke="#666" d="M0-386h13z"/>
<path fill="#666" stroke="#666" d="M13-386h115z"/>
<path fill="none" stroke="#666" d="M0-208v-340h128v340z"/>
</a></g><g id="edge1_Node000001_Node000002" class="edge"><title>Node2-&gt;Node1</title><a id="a_edge1_Node000001_Node000002">
<path fill="none" stroke="#63b8ff" d="M64-197.75v25.46"/>
<path fill="none" stroke="#63b8ff" d="m60.5-197.82 3.5-10 3.5 10z"/>
</a></g><g id="Node000003" class="node"><title>Node3</title><a xlink:href="../../db/db8/class_unique_tag.html" xlink:title="Label objects that cannot be copied." id="a_Node000003" target="_top">
<path fill="#fff" stroke="transparent" d="M114.5-748h-101v164h101z"/>
<text x="34" y="-735.2" font-family="Consolas" font-size="11">UniqueTag</text>
<text x="61" y="-719.2" font-family="Consolas" font-size="11"> </text>
<text x="18" y="-703.2" font-family="Consolas" font-size="11">+</text>
<text x="29" y="-703.2" font-family="Consolas" font-size="11">UniqueTag()</text>
<text x="18" y="-687.2" font-family="Consolas" font-size="11">+</text>
<text x="29" y="-687.2" font-family="Consolas" font-size="11">UniqueTag()</text>
<text x="18" y="-671.2" font-family="Consolas" font-size="11">+</text>
<text x="29" y="-671.2" font-family="Consolas" font-size="11">operator=()</text>
<text x="18" y="-655.2" font-family="Consolas" font-size="11">+</text>
<text x="29" y="-655.2" font-family="Consolas" font-size="11">operator=()</text>
<text x="18" y="-639.2" font-family="Consolas" font-size="11">+</text>
<text x="29" y="-639.2" font-family="Consolas" font-size="11">~UniqueTag()</text>
<text x="18" y="-623.2" font-family="Consolas" font-size="11">+</text>
<text x="29" y="-623.2" font-family="Consolas" font-size="11">Tag()</text>
<text x="18" y="-607.2" font-family="Consolas" font-size="11">+</text>
<text x="29" y="-607.2" font-family="Consolas" font-size="11">Tag()</text>
<text x="18" y="-591.2" font-family="Consolas" font-size="11">+</text>
<text x="29" y="-591.2" font-family="Consolas" font-size="11">Tag()</text>
<path fill="#666" stroke="#666" d="M14-730h101z"/>
<path fill="#666" stroke="#666" d="M14-714h101z"/>
<path fill="none" stroke="#666" d="M13.5-584v-164h101v164z"/>
</a></g><g id="edge2_Node000002_Node000003" class="edge"><title>Node3-&gt;Node2</title><a id="a_edge2_Node000002_Node000003">
<path fill="none" stroke="#63b8ff" d="M64-573.77v25.71"/>
<path fill="none" stroke="#63b8ff" d="m60.5-573.81 3.5-10 3.5 10z"/>
</a></g><g id="Node000004" class="node"><title>Node4</title><a xlink:href="../../d0/d57/class_tag.html" xlink:title="A base Tag class." id="a_Node000004" target="_top">
<path fill="#fff" stroke="transparent" d="M114.5-1060h-101v276h101z"/>
<text x="54" y="-1047.2" font-family="Consolas" font-size="11">Tag</text>
<text x="61" y="-1031.2" font-family="Consolas" font-size="11"> </text>
<text x="18" y="-1015.2" font-family="Consolas" font-size="11">+</text>
<text x="29" y="-1015.2" font-family="Consolas" font-size="11">Tag()</text>
<text x="18" y="-999.2" font-family="Consolas" font-size="11">+</text>
<text x="29" y="-999.2" font-family="Consolas" font-size="11">Tag()</text>
<text x="18" y="-983.2" font-family="Consolas" font-size="11">+</text>
<text x="29" y="-983.2" font-family="Consolas" font-size="11">Tag()</text>
<text x="18" y="-967.2" font-family="Consolas" font-size="11">+</text>
<text x="29" y="-967.2" font-family="Consolas" font-size="11">operator=()</text>
<text x="18" y="-951.2" font-family="Consolas" font-size="11">+</text>
<text x="29" y="-951.2" font-family="Consolas" font-size="11">operator=()</text>
<text x="18" y="-935.2" font-family="Consolas" font-size="11">+</text>
<text x="29" y="-935.2" font-family="Consolas" font-size="11">~Tag()</text>
<text x="18" y="-919.2" font-family="Consolas" font-size="11">+</text>
<text x="29" y="-919.2" font-family="Consolas" font-size="11">set_tag()</text>
<text x="18" y="-903.2" font-family="Consolas" font-size="11">+</text>
<text x="29" y="-903.2" font-family="Consolas" font-size="11">get_tag()</text>
<text x="18" y="-887.2" font-family="Consolas" font-size="11">+</text>
<text x="29" y="-887.2" font-family="Consolas" font-size="11">enable()</text>
<text x="18" y="-871.2" font-family="Consolas" font-size="11">+</text>
<text x="29" y="-871.2" font-family="Consolas" font-size="11">disable()</text>
<text x="18" y="-855.2" font-family="Consolas" font-size="11">+</text>
<text x="29" y="-855.2" font-family="Consolas" font-size="11">guard()</text>
<text x="18" y="-839.2" font-family="Consolas" font-size="11">+</text>
<text x="29" y="-839.2" font-family="Consolas" font-size="11">unguard()</text>
<text x="18" y="-823.2" font-family="Consolas" font-size="11">+</text>
<text x="29" y="-823.2" font-family="Consolas" font-size="11">is_active()</text>
<text x="18" y="-807.2" font-family="Consolas" font-size="11">+</text>
<text x="29" y="-807.2" font-family="Consolas" font-size="11">is_guarded()</text>
<text x="18" y="-791.2" font-family="Consolas" font-size="11">+</text>
<text x="29" y="-791.2" font-family="Consolas" font-size="11">print()</text>
<path fill="#666" stroke="#666" d="M14-1042h101z"/>
<path fill="#666" stroke="#666" d="M14-1026h101z"/>
<path fill="none" stroke="#666" d="M13.5-784v-276h101v276z"/>
</a></g><g id="edge3_Node000003_Node000004" class="edge"><title>Node4-&gt;Node3</title><a id="a_edge3_Node000003_Node000004">
<path fill="none" stroke="#63b8ff" d="M64-773.72v25.49"/>
<path fill="none" stroke="#63b8ff" d="m60.5-773.96 3.5-10 3.5 10z"/>
</a></g></g></svg><g id="navigator" fill="#404254"><path fill="#f2f5e9" fill-opacity=".5" stroke="#606060" stroke-width=".5" d="M0 0h60v60H0z"/><use xlink:href="#zoomPlus" id="zoomplus" x="17" y="9" onmousedown="handleZoom(evt,'in')"/><use xlink:href="#zoomMin" id="zoomminus" x="42" y="9" onmousedown="handleZoom(evt,'out')"/><use xlink:href="#resetDef" id="reset" x="30" y="36" onmousedown="handleReset()"/><use xlink:href="#arrowUp" id="arrowup" x="0" y="0" onmousedown="handlePan(0,-1)"/><use xlink:href="#arrowRight" id="arrowright" x="0" y="0" onmousedown="handlePan(1,0)"/><use xlink:href="#arrowDown" id="arrowdown" x="0" y="0" onmousedown="handlePan(0,1)"/><use xlink:href="#arrowLeft" id="arrowleft" x="0" y="0" onmousedown="handlePan(-1,0)"/></g><svg height="30" preserveAspectRatio="xMaxYMin meet" viewBox="0 0 15 15"><a xlink:href="class_node_recorder__inherit__graph_org.svg" id="arrow_out" target="_base" transform="scale(.3)">
   <rect id="button" width="38" height="38" x="6" y="6" fill="#f2f5e9" fill-opacity=".5" stroke="#606060" stroke-width="1" rx="5" ry="5"/>
   <path id="arrow" d="M11.5 31.437c.44-11.34 10.543-20.114 20.659-9.458l4.91-4.733.02 14.754-14.929-.022 4.838-4.838c-8.47-8.876-13.706-1.91-15.498 4.297" style="fill:#404040"/>
  </a></svg><script type="application/ecmascript"><![CDATA[
document.addEventListener('DOMContentLoaded', (event) => {
  highlightEdges();
  highlightAdjacentNodes();
});
]]></script></svg>