<?xml version="1.0" encoding="UTF-8" standalone="no"?>
<!DOCTYPE svg PUBLIC "-//W3C//DTD SVG 1.1//EN"
 "http://www.w3.org/Graphics/SVG/1.1/DTD/svg11.dtd">
<!-- Generated by graphviz version 2.43.0 (0)
 -->
<!-- Title: StrainDegradation Pages: 1 -->
<!--zoomable 1205 -->
<svg id="main" version="1.1" xmlns="http://www.w3.org/2000/svg" xmlns:xlink="http://www.w3.org/1999/xlink" xml:space="preserve" onload="init(evt)">
<style type="text/css"><![CDATA[
.edge:hover path { stroke: red; }
.edge:hover polygon { stroke: red; fill: red; }
]]></style>
<script type="text/javascript"><![CDATA[
var edges = document.getElementsByTagName('g');
if (edges && edges.length) {
  for (var i=0;i<edges.length;i++) {
    if (edges[i].id.substr(0,4)=='edge') {
      edges[i].setAttribute('class','edge');
    }
  }
}
]]></script>
        <defs>
                <circle id="rim" cx="0" cy="0" r="7"/>
                <circle id="rim2" cx="0" cy="0" r="3.5"/>
                <g id="zoomPlus">
                        <use xlink:href="#rim" fill="#404040">
                                <set attributeName="fill" to="#808080" begin="zoomplus.mouseover" end="zoomplus.mouseout"/>
                        </use>
                        <path d="M-4,0h8M0,-4v8" fill="none" stroke="white" stroke-width="1.5" pointer-events="none"/>
                </g>
                <g id="zoomMin">
                        <use xlink:href="#rim" fill="#404040">
                                <set attributeName="fill" to="#808080" begin="zoomminus.mouseover" end="zoomminus.mouseout"/>
                        </use>
                        <path d="M-4,0h8" fill="none" stroke="white" stroke-width="1.5" pointer-events="none"/>
                </g>
                <g id="dirArrow">
                        <path fill="none" stroke="white" stroke-width="1.5" d="M0,-3.0v7 M-2.5,-0.5L0,-3.0L2.5,-0.5"/>
                </g>
               <g id="resetDef">
                       <use xlink:href="#rim2" fill="#404040">
                               <set attributeName="fill" to="#808080" begin="reset.mouseover" end="reset.mouseout"/>
                       </use>
               </g>
        </defs>

<script type="text/javascript">
var viewWidth = 1117;
var viewHeight = 1205;
var sectionId = 'dynsection-1';
</script>
<script xlink:href="../../svgpan.js"/>
<svg id="graph" class="graph">
<g id="viewport">
<title>StrainDegradation</title>
<polygon fill="white" stroke="transparent" points="-4,4 -4,-1201 1112.5,-1201 1112.5,4 -4,4"/>
<!-- Node1 -->
<g id="node1" class="node">
<title>Node1</title>
<g id="a_node1"><a xlink:title=" ">
<polygon fill="#bfbfbf" stroke="black" points="598.5,-0.5 598.5,-120.5 770.5,-120.5 770.5,-0.5 598.5,-0.5"/>
<text text-anchor="middle" x="684.5" y="-107.7" font-family="Consolas" font-size="11.00">StrainDegradation</text>
<polyline fill="none" stroke="black" points="598.5,-100.5 770.5,-100.5 "/>
<text text-anchor="middle" x="684.5" y="-87.7" font-family="Consolas" font-size="11.00"> </text>
<polyline fill="none" stroke="black" points="598.5,-80.5 770.5,-80.5 "/>
<text text-anchor="start" x="606.5" y="-67.7" font-family="Consolas" font-size="11.00">+ initialize()</text>
<text text-anchor="start" x="606.5" y="-55.7" font-family="Consolas" font-size="11.00">+ update_trial_status()</text>
<text text-anchor="start" x="606.5" y="-43.7" font-family="Consolas" font-size="11.00">+ record()</text>
<text text-anchor="start" x="606.5" y="-31.7" font-family="Consolas" font-size="11.00">+ Degradation()</text>
<text text-anchor="start" x="606.5" y="-19.7" font-family="Consolas" font-size="11.00">+ Degradation()</text>
<text text-anchor="start" x="606.5" y="-7.7" font-family="Consolas" font-size="11.00">+ Degradation()</text>
</a>
</g>
</g>
<!-- Node2 -->
<g id="node2" class="node">
<title>Node2</title>
<g id="a_node2"><a xlink:href="../../db/d75/class_degradation.html" target="_top" xlink:title="The Degradation class.">
<polygon fill="white" stroke="black" points="568,-158.5 568,-350.5 801,-350.5 801,-158.5 568,-158.5"/>
<text text-anchor="middle" x="684.5" y="-337.7" font-family="Consolas" font-size="11.00">Degradation</text>
<polyline fill="none" stroke="black" points="568,-330.5 801,-330.5 "/>
<text text-anchor="middle" x="684.5" y="-317.7" font-family="Consolas" font-size="11.00"> </text>
<polyline fill="none" stroke="black" points="568,-310.5 801,-310.5 "/>
<text text-anchor="start" x="576" y="-297.7" font-family="Consolas" font-size="11.00">+ Degradation()</text>
<text text-anchor="start" x="576" y="-285.7" font-family="Consolas" font-size="11.00">+ Degradation()</text>
<text text-anchor="start" x="576" y="-273.7" font-family="Consolas" font-size="11.00">+ Degradation()</text>
<text text-anchor="start" x="576" y="-261.7" font-family="Consolas" font-size="11.00">+ operator=()</text>
<text text-anchor="start" x="576" y="-249.7" font-family="Consolas" font-size="11.00">+ operator=()</text>
<text text-anchor="start" x="576" y="-237.7" font-family="Consolas" font-size="11.00">+ ~Degradation()</text>
<text text-anchor="start" x="576" y="-225.7" font-family="Consolas" font-size="11.00">+ initialize()</text>
<text text-anchor="start" x="576" y="-213.7" font-family="Consolas" font-size="11.00">+ clear_status()</text>
<text text-anchor="start" x="576" y="-201.7" font-family="Consolas" font-size="11.00">+ commit_status()</text>
<text text-anchor="start" x="576" y="-189.7" font-family="Consolas" font-size="11.00">+ reset_status()</text>
<text text-anchor="start" x="576" y="-177.7" font-family="Consolas" font-size="11.00"># compute_positive_degradation()</text>
<text text-anchor="start" x="576" y="-165.7" font-family="Consolas" font-size="11.00"># compute_negative_degradation()</text>
</a>
</g>
</g>
<!-- Node2&#45;&gt;Node1 -->
<g id="edge1" class="edge">
<title>Node2&#45;&gt;Node1</title>
<path fill="none" stroke="midnightblue" d="M684.5,-148.14C684.5,-138.76 684.5,-129.5 684.5,-120.73"/>
<polygon fill="none" stroke="midnightblue" points="681,-148.34 684.5,-158.34 688,-148.34 681,-148.34"/>
</g>
<!-- Node3 -->
<g id="node3" class="node">
<title>Node3</title>
<g id="a_node3"><a xlink:href="../../d9/d97/class_material1_d.html" target="_top" xlink:title="A Material1D class.">
<polygon fill="white" stroke="black" points="551,-399.5 551,-483.5 662,-483.5 662,-399.5 551,-399.5"/>
<text text-anchor="middle" x="606.5" y="-470.7" font-family="Consolas" font-size="11.00">Material1D</text>
<polyline fill="none" stroke="black" points="551,-463.5 662,-463.5 "/>
<text text-anchor="middle" x="606.5" y="-450.7" font-family="Consolas" font-size="11.00"> </text>
<polyline fill="none" stroke="black" points="551,-443.5 662,-443.5 "/>
<text text-anchor="start" x="559" y="-430.7" font-family="Consolas" font-size="11.00">+ Material1D()</text>
<text text-anchor="start" x="559" y="-418.7" font-family="Consolas" font-size="11.00">+ record()</text>
<text text-anchor="start" x="559" y="-406.7" font-family="Consolas" font-size="11.00">+ print()</text>
</a>
</g>
</g>
<!-- Node3&#45;&gt;Node2 -->
<g id="edge2" class="edge">
<title>Node3&#45;&gt;Node2</title>
<path fill="none" stroke="midnightblue" d="M627.83,-389.9C633,-377.65 638.69,-364.14 644.42,-350.57"/>
<polygon fill="none" stroke="midnightblue" points="624.47,-388.87 623.81,-399.44 630.92,-391.59 624.47,-388.87"/>
</g>
<!-- Node4 -->
<g id="node4" class="node">
<title>Node4</title>
<g id="a_node4"><a xlink:href="../../dc/dee/class_material.html" target="_top" xlink:title="A Material abstract base class.">
<polygon fill="white" stroke="black" points="527.5,-521.5 527.5,-701.5 685.5,-701.5 685.5,-521.5 527.5,-521.5"/>
<text text-anchor="middle" x="606.5" y="-688.7" font-family="Consolas" font-size="11.00">Material</text>
<polyline fill="none" stroke="black" points="527.5,-681.5 685.5,-681.5 "/>
<text text-anchor="middle" x="606.5" y="-668.7" font-family="Consolas" font-size="11.00"> </text>
<polyline fill="none" stroke="black" points="527.5,-661.5 685.5,-661.5 "/>
<text text-anchor="start" x="535.5" y="-648.7" font-family="Consolas" font-size="11.00">+ Material()</text>
<text text-anchor="start" x="535.5" y="-636.7" font-family="Consolas" font-size="11.00">+ Material()</text>
<text text-anchor="start" x="535.5" y="-624.7" font-family="Consolas" font-size="11.00">+ Material()</text>
<text text-anchor="start" x="535.5" y="-612.7" font-family="Consolas" font-size="11.00">+ operator=()</text>
<text text-anchor="start" x="535.5" y="-600.7" font-family="Consolas" font-size="11.00">+ operator=()</text>
<text text-anchor="start" x="535.5" y="-588.7" font-family="Consolas" font-size="11.00">+ ~Material()</text>
<text text-anchor="start" x="535.5" y="-576.7" font-family="Consolas" font-size="11.00">+ get_density()</text>
<text text-anchor="start" x="535.5" y="-564.7" font-family="Consolas" font-size="11.00">+ get_material_type()</text>
<text text-anchor="start" x="535.5" y="-552.7" font-family="Consolas" font-size="11.00">+ get_plane_type()</text>
<text text-anchor="start" x="535.5" y="-540.7" font-family="Consolas" font-size="11.00">+ initialize_base()</text>
<text text-anchor="start" x="535.5" y="-528.7" font-family="Consolas" font-size="11.00">and 72 more...</text>
</a>
</g>
</g>
<!-- Node4&#45;&gt;Node3 -->
<g id="edge3" class="edge">
<title>Node4&#45;&gt;Node3</title>
<path fill="none" stroke="midnightblue" d="M606.5,-511.08C606.5,-501.56 606.5,-492.31 606.5,-483.84"/>
<polygon fill="none" stroke="midnightblue" points="603,-511.09 606.5,-521.09 610,-511.09 603,-511.09"/>
</g>
<!-- Node5 -->
<g id="node5" class="node">
<title>Node5</title>
<g id="a_node5"><a xlink:href="../../de/de9/struct_data_material.html" target="_top" xlink:title=" ">
<polygon fill="white" stroke="black" points="322,-799.5 322,-907.5 467,-907.5 467,-799.5 322,-799.5"/>
<text text-anchor="middle" x="394.5" y="-894.7" font-family="Consolas" font-size="11.00">DataMaterial</text>
<polyline fill="none" stroke="black" points="322,-887.5 467,-887.5 "/>
<text text-anchor="start" x="330" y="-874.7" font-family="Consolas" font-size="11.00">+ trial_strain</text>
<text text-anchor="start" x="330" y="-862.7" font-family="Consolas" font-size="11.00">+ trial_strain_rate</text>
<text text-anchor="start" x="330" y="-850.7" font-family="Consolas" font-size="11.00">+ trial_strain_acc</text>
<text text-anchor="start" x="330" y="-838.7" font-family="Consolas" font-size="11.00">+ trial_stress</text>
<text text-anchor="start" x="330" y="-826.7" font-family="Consolas" font-size="11.00">+ trial_history</text>
<polyline fill="none" stroke="black" points="322,-819.5 467,-819.5 "/>
<text text-anchor="middle" x="394.5" y="-806.7" font-family="Consolas" font-size="11.00"> </text>
</a>
</g>
</g>
<!-- Node5&#45;&gt;Node4 -->
<g id="edge4" class="edge">
<title>Node5&#45;&gt;Node4</title>
<path fill="none" stroke="darkgreen" d="M448.2,-791.71C472.24,-764.49 501.08,-731.84 527.52,-701.92"/>
<polygon fill="none" stroke="darkgreen" points="445.55,-789.42 441.55,-799.24 450.79,-794.06 445.55,-789.42"/>
</g>
<!-- Node6 -->
<g id="node6" class="node">
<title>Node6</title>
<g id="a_node6"><a xlink:title=" ">
<polygon fill="white" stroke="black" points="0,-1136.5 0,-1196.5 57,-1196.5 57,-1136.5 0,-1136.5"/>
<text text-anchor="middle" x="28.5" y="-1183.7" font-family="Consolas" font-size="11.00">double</text>
<polyline fill="none" stroke="black" points="0,-1176.5 57,-1176.5 "/>
<text text-anchor="middle" x="28.5" y="-1163.7" font-family="Consolas" font-size="11.00"> </text>
<polyline fill="none" stroke="black" points="0,-1156.5 57,-1156.5 "/>
<text text-anchor="middle" x="28.5" y="-1143.7" font-family="Consolas" font-size="11.00"> </text>
</a>
</g>
</g>
<!-- Node6&#45;&gt;Node5 -->
<g id="edge5" class="edge">
<title>Node6&#45;&gt;Node5</title>
<path fill="none" stroke="#404040" d="M21.59,-1136.45C14.25,-1097.99 7.72,-1029.93 40.5,-986 103.46,-901.6 226.75,-871.35 309.89,-860.51"/>
<polygon fill="none" stroke="#404040" points="309.94,-860.51 315.41,-855.81 321.85,-859.05 316.38,-863.75 309.94,-860.51"/>
<text text-anchor="middle" x="118.5" y="-1061.2" font-family="Consolas" font-size="11.00"> +characteristic_length</text>
<text text-anchor="middle" x="118.5" y="-1049.2" font-family="Consolas" font-size="11.00">+density</text>
<text text-anchor="middle" x="118.5" y="-1037.2" font-family="Consolas" font-size="11.00">+tolerance</text>
</g>
<!-- Node7 -->
<g id="node7" class="node">
<title>Node7</title>
<g id="a_node7"><a xlink:title=" ">
<polygon fill="white" stroke="black" points="131.5,-1136.5 131.5,-1196.5 269.5,-1196.5 269.5,-1136.5 131.5,-1136.5"/>
<text text-anchor="middle" x="200.5" y="-1183.7" font-family="Consolas" font-size="11.00">const MaterialType</text>
<polyline fill="none" stroke="black" points="131.5,-1176.5 269.5,-1176.5 "/>
<text text-anchor="middle" x="200.5" y="-1163.7" font-family="Consolas" font-size="11.00"> </text>
<polyline fill="none" stroke="black" points="131.5,-1156.5 269.5,-1156.5 "/>
<text text-anchor="middle" x="200.5" y="-1143.7" font-family="Consolas" font-size="11.00"> </text>
</a>
</g>
</g>
<!-- Node7&#45;&gt;Node5 -->
<g id="edge6" class="edge">
<title>Node7&#45;&gt;Node5</title>
<path fill="none" stroke="#404040" d="M199.64,-1136.33C199.82,-1098.94 204.61,-1033.31 232.5,-986 251.76,-953.34 282.35,-925.4 311.78,-903.79"/>
<polygon fill="none" stroke="#404040" points="311.94,-903.68 314.5,-896.93 321.71,-896.7 319.15,-903.44 311.94,-903.68"/>
<text text-anchor="middle" x="283.5" y="-1049.2" font-family="Consolas" font-size="11.00"> +material_type</text>
</g>
<!-- Node8 -->
<g id="node8" class="node">
<title>Node8</title>
<g id="a_node8"><a xlink:title=" ">
<polygon fill="white" stroke="black" points="287.5,-1136.5 287.5,-1196.5 405.5,-1196.5 405.5,-1136.5 287.5,-1136.5"/>
<text text-anchor="middle" x="346.5" y="-1183.7" font-family="Consolas" font-size="11.00">const PlaneType</text>
<polyline fill="none" stroke="black" points="287.5,-1176.5 405.5,-1176.5 "/>
<text text-anchor="middle" x="346.5" y="-1163.7" font-family="Consolas" font-size="11.00"> </text>
<polyline fill="none" stroke="black" points="287.5,-1156.5 405.5,-1156.5 "/>
<text text-anchor="middle" x="346.5" y="-1143.7" font-family="Consolas" font-size="11.00"> </text>
</a>
</g>
</g>
<!-- Node8&#45;&gt;Node5 -->
<g id="edge7" class="edge">
<title>Node8&#45;&gt;Node5</title>
<path fill="none" stroke="#404040" d="M342.45,-1136.29C338.3,-1100.51 333.73,-1038.23 343.5,-986 347.72,-963.46 355.68,-939.81 364.07,-918.88"/>
<polygon fill="none" stroke="#404040" points="364.17,-918.65 362.77,-911.57 368.76,-907.56 370.16,-914.63 364.17,-918.65"/>
<text text-anchor="middle" x="384.5" y="-1049.2" font-family="Consolas" font-size="11.00"> +plane_type</text>
</g>
<!-- Node9 -->
<g id="node9" class="node">
<title>Node9</title>
<g id="a_node9"><a xlink:title=" ">
<polygon fill="white" stroke="black" points="508,-1136.5 508,-1196.5 545,-1196.5 545,-1136.5 508,-1136.5"/>
<text text-anchor="middle" x="526.5" y="-1183.7" font-family="Consolas" font-size="11.00">vec</text>
<polyline fill="none" stroke="black" points="508,-1176.5 545,-1176.5 "/>
<text text-anchor="middle" x="526.5" y="-1163.7" font-family="Consolas" font-size="11.00"> </text>
<polyline fill="none" stroke="black" points="508,-1156.5 545,-1156.5 "/>
<text text-anchor="middle" x="526.5" y="-1143.7" font-family="Consolas" font-size="11.00"> </text>
</a>
</g>
</g>
<!-- Node9&#45;&gt;Node5 -->
<g id="edge8" class="edge">
<title>Node9&#45;&gt;Node5</title>
<path fill="none" stroke="#404040" d="M507.84,-1160.04C488.65,-1153.4 459.52,-1140.22 444.5,-1118 411.31,-1068.89 436.53,-1044.24 425.5,-986 421.37,-964.23 416.07,-940.61 411.02,-919.48"/>
<polygon fill="none" stroke="#404040" points="410.99,-919.36 405.69,-914.47 408.17,-907.7 413.47,-912.59 410.99,-919.36"/>
<text text-anchor="middle" x="512.5" y="-1109.2" font-family="Consolas" font-size="11.00"> +current_history</text>
<text text-anchor="middle" x="512.5" y="-1097.2" font-family="Consolas" font-size="11.00">+current_strain</text>
<text text-anchor="middle" x="512.5" y="-1085.2" font-family="Consolas" font-size="11.00">+current_strain_acc</text>
<text text-anchor="middle" x="512.5" y="-1073.2" font-family="Consolas" font-size="11.00">+current_strain_rate</text>
<text text-anchor="middle" x="512.5" y="-1061.2" font-family="Consolas" font-size="11.00">+current_stress</text>
<text text-anchor="middle" x="512.5" y="-1049.2" font-family="Consolas" font-size="11.00">+incre_strain</text>
<text text-anchor="middle" x="512.5" y="-1037.2" font-family="Consolas" font-size="11.00">+incre_strain_acc</text>
<text text-anchor="middle" x="512.5" y="-1025.2" font-family="Consolas" font-size="11.00">+incre_strain_rate</text>
<text text-anchor="middle" x="512.5" y="-1013.2" font-family="Consolas" font-size="11.00">+incre_stress</text>
<text text-anchor="middle" x="512.5" y="-1001.2" font-family="Consolas" font-size="11.00">+initial_history</text>
<text text-anchor="middle" x="512.5" y="-989.2" font-family="Consolas" font-size="11.00">...</text>
</g>
<!-- Node11 -->
<g id="node11" class="node">
<title>Node11</title>
<g id="a_node11"><a xlink:href="../../da/de4/struct_data_couple_material.html" target="_top" xlink:title=" ">
<polygon fill="white" stroke="black" points="537.5,-823.5 537.5,-883.5 675.5,-883.5 675.5,-823.5 537.5,-823.5"/>
<text text-anchor="middle" x="606.5" y="-870.7" font-family="Consolas" font-size="11.00">DataCoupleMaterial</text>
<polyline fill="none" stroke="black" points="537.5,-863.5 675.5,-863.5 "/>
<text text-anchor="middle" x="606.5" y="-850.7" font-family="Consolas" font-size="11.00"> </text>
<polyline fill="none" stroke="black" points="537.5,-843.5 675.5,-843.5 "/>
<text text-anchor="middle" x="606.5" y="-830.7" font-family="Consolas" font-size="11.00"> </text>
</a>
</g>
</g>
<!-- Node9&#45;&gt;Node11 -->
<g id="edge11" class="edge">
<title>Node9&#45;&gt;Node11</title>
<path fill="none" stroke="#404040" d="M545.08,-1155.71C558.52,-1147.55 575.78,-1134.59 584.5,-1118 604.22,-1080.48 606.94,-959.95 606.92,-895.71"/>
<polygon fill="none" stroke="#404040" points="606.92,-895.66 602.9,-889.67 606.89,-883.66 610.9,-889.65 606.92,-895.66"/>
<text text-anchor="middle" x="683.5" y="-1079.2" font-family="Consolas" font-size="11.00"> +current_couple_stress</text>
<text text-anchor="middle" x="683.5" y="-1067.2" font-family="Consolas" font-size="11.00">+current_curvature</text>
<text text-anchor="middle" x="683.5" y="-1055.2" font-family="Consolas" font-size="11.00">+incre_couple_stress</text>
<text text-anchor="middle" x="683.5" y="-1043.2" font-family="Consolas" font-size="11.00">+incre_curvature</text>
<text text-anchor="middle" x="683.5" y="-1031.2" font-family="Consolas" font-size="11.00">+trial_couple_stress</text>
<text text-anchor="middle" x="683.5" y="-1019.2" font-family="Consolas" font-size="11.00">+trial_curvature</text>
</g>
<!-- Node10 -->
<g id="node10" class="node">
<title>Node10</title>
<g id="a_node10"><a xlink:title=" ">
<polygon fill="white" stroke="black" points="839,-1136.5 839,-1196.5 876,-1196.5 876,-1136.5 839,-1136.5"/>
<text text-anchor="middle" x="857.5" y="-1183.7" font-family="Consolas" font-size="11.00">mat</text>
<polyline fill="none" stroke="black" points="839,-1176.5 876,-1176.5 "/>
<text text-anchor="middle" x="857.5" y="-1163.7" font-family="Consolas" font-size="11.00"> </text>
<polyline fill="none" stroke="black" points="839,-1156.5 876,-1156.5 "/>
<text text-anchor="middle" x="857.5" y="-1143.7" font-family="Consolas" font-size="11.00"> </text>
</a>
</g>
</g>
<!-- Node10&#45;&gt;Node5 -->
<g id="edge9" class="edge">
<title>Node10&#45;&gt;Node5</title>
<path fill="none" stroke="#404040" d="M838.76,-1158.93C821.2,-1151.74 795.74,-1138.44 782.5,-1118 750.29,-1068.25 806.78,-1026.49 763.5,-986 725.25,-950.22 576.95,-987.89 528.5,-968 499.99,-956.3 473.11,-936.14 451.01,-916.03"/>
<polygon fill="none" stroke="#404040" points="450.92,-915.95 443.8,-914.77 442.16,-907.75 449.27,-908.93 450.92,-915.95"/>
<text text-anchor="middle" x="843.5" y="-1097.2" font-family="Consolas" font-size="11.00"> +current_damping</text>
<text text-anchor="middle" x="843.5" y="-1085.2" font-family="Consolas" font-size="11.00">+current_inertial</text>
<text text-anchor="middle" x="843.5" y="-1073.2" font-family="Consolas" font-size="11.00">+current_stiffness</text>
<text text-anchor="middle" x="843.5" y="-1061.2" font-family="Consolas" font-size="11.00">+initial_damping</text>
<text text-anchor="middle" x="843.5" y="-1049.2" font-family="Consolas" font-size="11.00">+initial_inertial</text>
<text text-anchor="middle" x="843.5" y="-1037.2" font-family="Consolas" font-size="11.00">+initial_stiffness</text>
<text text-anchor="middle" x="843.5" y="-1025.2" font-family="Consolas" font-size="11.00">+trial_damping</text>
<text text-anchor="middle" x="843.5" y="-1013.2" font-family="Consolas" font-size="11.00">+trial_inertial</text>
<text text-anchor="middle" x="843.5" y="-1001.2" font-family="Consolas" font-size="11.00">+trial_stiffness</text>
</g>
<!-- Node10&#45;&gt;Node11 -->
<g id="edge12" class="edge">
<title>Node10&#45;&gt;Node11</title>
<path fill="none" stroke="#404040" d="M876.03,-1154.1C887.74,-1145.73 901.89,-1133.2 908.5,-1118 931.91,-1064.21 948.28,-1029.12 908.5,-986 874.79,-949.46 728.6,-992.77 685.5,-968 656.94,-951.59 636.3,-920.17 623.3,-894.54"/>
<polygon fill="none" stroke="#404040" points="623.24,-894.42 617.03,-890.75 618.03,-883.61 624.24,-887.28 623.24,-894.42"/>
<text text-anchor="middle" x="1020.5" y="-1061.2" font-family="Consolas" font-size="11.00"> +current_couple_stiffness</text>
<text text-anchor="middle" x="1020.5" y="-1049.2" font-family="Consolas" font-size="11.00">+initial_couple_stiffness</text>
<text text-anchor="middle" x="1020.5" y="-1037.2" font-family="Consolas" font-size="11.00">+trial_couple_stiffness</text>
</g>
<!-- Node11&#45;&gt;Node4 -->
<g id="edge10" class="edge">
<title>Node11&#45;&gt;Node4</title>
<path fill="none" stroke="darkgreen" d="M606.5,-812.95C606.5,-782.75 606.5,-739.97 606.5,-701.68"/>
<polygon fill="none" stroke="darkgreen" points="603,-813.07 606.5,-823.07 610,-813.07 603,-813.07"/>
</g>
<!-- Node12 -->
<g id="node12" class="node">
<title>Node12</title>
<g id="a_node12"><a xlink:href="../../d0/d57/class_tag.html" target="_top" xlink:title="A base Tag class.">
<polygon fill="white" stroke="black" points="694,-739.5 694,-967.5 805,-967.5 805,-739.5 694,-739.5"/>
<text text-anchor="middle" x="749.5" y="-954.7" font-family="Consolas" font-size="11.00">Tag</text>
<polyline fill="none" stroke="black" points="694,-947.5 805,-947.5 "/>
<text text-anchor="middle" x="749.5" y="-934.7" font-family="Consolas" font-size="11.00"> </text>
<polyline fill="none" stroke="black" points="694,-927.5 805,-927.5 "/>
<text text-anchor="start" x="702" y="-914.7" font-family="Consolas" font-size="11.00">+ Tag()</text>
<text text-anchor="start" x="702" y="-902.7" font-family="Consolas" font-size="11.00">+ Tag()</text>
<text text-anchor="start" x="702" y="-890.7" font-family="Consolas" font-size="11.00">+ Tag()</text>
<text text-anchor="start" x="702" y="-878.7" font-family="Consolas" font-size="11.00">+ operator=()</text>
<text text-anchor="start" x="702" y="-866.7" font-family="Consolas" font-size="11.00">+ operator=()</text>
<text text-anchor="start" x="702" y="-854.7" font-family="Consolas" font-size="11.00">+ ~Tag()</text>
<text text-anchor="start" x="702" y="-842.7" font-family="Consolas" font-size="11.00">+ set_tag()</text>
<text text-anchor="start" x="702" y="-830.7" font-family="Consolas" font-size="11.00">+ get_tag()</text>
<text text-anchor="start" x="702" y="-818.7" font-family="Consolas" font-size="11.00">+ enable()</text>
<text text-anchor="start" x="702" y="-806.7" font-family="Consolas" font-size="11.00">+ disable()</text>
<text text-anchor="start" x="702" y="-794.7" font-family="Consolas" font-size="11.00">+ guard()</text>
<text text-anchor="start" x="702" y="-782.7" font-family="Consolas" font-size="11.00">+ unguard()</text>
<text text-anchor="start" x="702" y="-770.7" font-family="Consolas" font-size="11.00">+ is_active()</text>
<text text-anchor="start" x="702" y="-758.7" font-family="Consolas" font-size="11.00">+ is_guarded()</text>
<text text-anchor="start" x="702" y="-746.7" font-family="Consolas" font-size="11.00">+ print()</text>
</a>
</g>
</g>
<!-- Node12&#45;&gt;Node4 -->
<g id="edge13" class="edge">
<title>Node12&#45;&gt;Node4</title>
<path fill="none" stroke="midnightblue" d="M688.57,-745.87C687.2,-743.55 685.85,-741.26 684.5,-739 677.31,-726.91 669.65,-714.24 662.05,-701.78"/>
<polygon fill="none" stroke="midnightblue" points="685.77,-748.02 693.86,-754.87 691.81,-744.47 685.77,-748.02"/>
</g>
<!-- Node13 -->
<g id="node13" class="node">
<title>Node13</title>
<g id="a_node13"><a xlink:href="../../d7/da0/classstd_1_1unique__ptr_3_01_material_01_4.html" target="_top" xlink:title=" ">
<polygon fill="white" stroke="black" points="680,-411.5 680,-471.5 845,-471.5 845,-411.5 680,-411.5"/>
<text text-anchor="middle" x="762.5" y="-458.7" font-family="Consolas" font-size="11.00">unique_ptr&lt; Material &gt;</text>
<polyline fill="none" stroke="black" points="680,-451.5 845,-451.5 "/>
<text text-anchor="middle" x="762.5" y="-438.7" font-family="Consolas" font-size="11.00"> </text>
<polyline fill="none" stroke="black" points="680,-431.5 845,-431.5 "/>
<text text-anchor="middle" x="762.5" y="-418.7" font-family="Consolas" font-size="11.00"> </text>
</a>
</g>
</g>
<!-- Node13&#45;&gt;Node2 -->
<g id="edge14" class="edge">
<title>Node13&#45;&gt;Node2</title>
<path fill="none" stroke="#404040" d="M750.14,-411.19C744.34,-397.43 737.04,-380.11 729.43,-362.06"/>
<polygon fill="none" stroke="#404040" points="729.32,-361.8 723.3,-357.83 724.66,-350.75 730.67,-354.72 729.32,-361.8"/>
<text text-anchor="middle" x="757" y="-372.2" font-family="Consolas" font-size="11.00"> #base</text>
</g>
</g>
</svg>
        <g id="navigator" transform="translate(0 0)" fill="#404254">
                <rect fill="#f2f5e9" fill-opacity="0.5" stroke="#606060" stroke-width=".5" x="0" y="0" width="60" height="60"/>
                <use id="zoomplus" xlink:href="#zoomPlus" x="17" y="9" onmousedown="handleZoom(evt,'in')"/>
                <use id="zoomminus" xlink:href="#zoomMin" x="42" y="9" onmousedown="handleZoom(evt,'out')"/>
                <use id="reset" xlink:href="#resetDef" x="30" y="36" onmousedown="handleReset()"/>
                <g id="arrowUp" xlink:href="#dirArrow" transform="translate(30 24)" onmousedown="handlePan(0,-1)">
                  <use xlink:href="#rim" fill="#404040">
                        <set attributeName="fill" to="#808080" begin="arrowUp.mouseover" end="arrowUp.mouseout"/>
                  </use>
                  <path fill="none" stroke="white" stroke-width="1.5" d="M0,-3.0v7 M-2.5,-0.5L0,-3.0L2.5,-0.5"/>
                </g>
                <g id="arrowRight" xlink:href="#dirArrow" transform="rotate(90) translate(36 -43)" onmousedown="handlePan(1,0)">
                  <use xlink:href="#rim" fill="#404040">
                        <set attributeName="fill" to="#808080" begin="arrowRight.mouseover" end="arrowRight.mouseout"/>
                  </use>
                  <path fill="none" stroke="white" stroke-width="1.5" d="M0,-3.0v7 M-2.5,-0.5L0,-3.0L2.5,-0.5"/>
                </g>
                <g id="arrowDown" xlink:href="#dirArrow" transform="rotate(180) translate(-30 -48)" onmousedown="handlePan(0,1)">
                  <use xlink:href="#rim" fill="#404040">
                        <set attributeName="fill" to="#808080" begin="arrowDown.mouseover" end="arrowDown.mouseout"/>
                  </use>
                  <path fill="none" stroke="white" stroke-width="1.5" d="M0,-3.0v7 M-2.5,-0.5L0,-3.0L2.5,-0.5"/>
                </g>
                <g id="arrowLeft" xlink:href="#dirArrow" transform="rotate(270) translate(-36 17)" onmousedown="handlePan(-1,0)">
                  <use xlink:href="#rim" fill="#404040">
                        <set attributeName="fill" to="#808080" begin="arrowLeft.mouseover" end="arrowLeft.mouseout"/>
                  </use>
                  <path fill="none" stroke="white" stroke-width="1.5" d="M0,-3.0v7 M-2.5,-0.5L0,-3.0L2.5,-0.5"/>
                </g>
        </g>
        <svg viewBox="0 0 15 15" width="100%" height="30px" preserveAspectRatio="xMaxYMin meet">
         <g id="arrow_out" transform="scale(0.3 0.3)">
          <a xlink:href="class_strain_degradation__coll__graph_org.svg" target="_base">
           <rect id="button" ry="5" rx="5" y="6" x="6" height="38" width="38"
                fill="#f2f5e9" fill-opacity="0.5" stroke="#606060" stroke-width="1.0"/>
           <path id="arrow"
             d="M 11.500037,31.436501 C 11.940474,20.09759 22.043105,11.32322 32.158766,21.979434 L 37.068811,17.246167 C 37.068811,17.246167 37.088388,32 37.088388,32 L 22.160133,31.978069 C 22.160133,31.978069 26.997745,27.140456 26.997745,27.140456 C 18.528582,18.264221 13.291696,25.230495 11.500037,31.436501 z"
             style="fill:#404040;"/>
          </a>
         </g>
        </svg>
</svg>
