<?xml version="1.0" encoding="UTF-8" standalone="no"?>
<!DOCTYPE svg PUBLIC "-//W3C//DTD SVG 1.1//EN"
 "http://www.w3.org/Graphics/SVG/1.1/DTD/svg11.dtd">
<!-- Generated by graphviz version 5.0.0 (0)
 -->
<!-- Title: DataElement Pages: 1 -->
<!--zoomable 324 -->
<svg id="main" version="1.1" xmlns="http://www.w3.org/2000/svg" xmlns:xlink="http://www.w3.org/1999/xlink" xml:space="preserve" onload="init(evt)">
<style type="text/css"><![CDATA[
.edge:hover path { stroke: red; }
.edge:hover polygon { stroke: red; fill: red; }
]]></style>
<script type="text/javascript"><![CDATA[
var edges = document.getElementsByTagName('g');
if (edges && edges.length) {
  for (var i=0;i<edges.length;i++) {
    if (edges[i].id.substr(0,4)=='edge') {
      edges[i].setAttribute('class','edge');
    }
  }
}
]]></script>
        <defs>
                <circle id="rim" cx="0" cy="0" r="7"/>
                <circle id="rim2" cx="0" cy="0" r="3.5"/>
                <g id="zoomPlus">
                        <use xlink:href="#rim" fill="#404040">
                                <set attributeName="fill" to="#808080" begin="zoomplus.mouseover" end="zoomplus.mouseout"/>
                        </use>
                        <path d="M-4,0h8M0,-4v8" fill="none" stroke="white" stroke-width="1.5" pointer-events="none"/>
                </g>
                <g id="zoomMin">
                        <use xlink:href="#rim" fill="#404040">
                                <set attributeName="fill" to="#808080" begin="zoomminus.mouseover" end="zoomminus.mouseout"/>
                        </use>
                        <path d="M-4,0h8" fill="none" stroke="white" stroke-width="1.5" pointer-events="none"/>
                </g>
                <g id="dirArrow">
                        <path fill="none" stroke="white" stroke-width="1.5" d="M0,-3.0v7 M-2.5,-0.5L0,-3.0L2.5,-0.5"/>
                </g>
               <g id="resetDef">
                       <use xlink:href="#rim2" fill="#404040">
                               <set attributeName="fill" to="#808080" begin="reset.mouseover" end="reset.mouseout"/>
                       </use>
               </g>
        </defs>

<script type="text/javascript">
var viewWidth = 776;
var viewHeight = 324;
var sectionId = 'dynsection-1';
</script>
<script xlink:href="../../svgpan.js"/>
<svg id="graph" class="graph">
<g id="viewport">
<title>DataElement</title>
<!-- Node1 -->
<g id="node1" class="node">
<title>Node1</title>
<g id="a_node1"><a xlink:title=" ">
<polygon fill="#999999" stroke="#666666" points="360,-116 202,-116 202,0 360,0 360,-116"/>
<text text-anchor="middle" x="281" y="-103.2" font-family="Consolas" font-size="11.00">{DataElement</text>
<text text-anchor="start" x="210" y="-91.2" font-family="Consolas" font-size="11.00">|+ trial_mass</text>
<text text-anchor="start" x="210" y="-79.2" font-family="Consolas" font-size="11.00">+ trial_damping</text>
<text text-anchor="start" x="210" y="-67.2" font-family="Consolas" font-size="11.00">+ trial_stiffness</text>
<text text-anchor="start" x="210" y="-55.2" font-family="Consolas" font-size="11.00">+ trial_geometry</text>
<text text-anchor="start" x="210" y="-43.2" font-family="Consolas" font-size="11.00">+ trial_traction</text>
<text text-anchor="start" x="210" y="-31.2" font-family="Consolas" font-size="11.00">+ traction</text>
<text text-anchor="start" x="210" y="-19.2" font-family="Consolas" font-size="11.00">+ stiffness_container</text>
<text text-anchor="middle" x="281" y="-7.2" font-family="Consolas" font-size="11.00">|}</text>
</a>
</g>
</g>
<!-- Node2 -->
<g id="node2" class="node">
<title>Node2</title>
<g id="a_node2"><a xlink:title=" ">
<polygon fill="white" stroke="#666666" points="50,-316 0,-316 0,-284 50,-284 50,-316"/>
<text text-anchor="middle" x="25" y="-303.2" font-family="Consolas" font-size="11.00">{uvec</text>
<text text-anchor="middle" x="25" y="-291.2" font-family="Consolas" font-size="11.00">||}</text>
</a>
</g>
</g>
<!-- Node2&#45;&gt;Node1 -->
<g id="edge1" class="edge">
<title>Node2&#45;&gt;Node1</title>
<path fill="none" stroke="#404040" d="M21.23,-283.78C14.35,-252.05 3.5,-178.13 39,-134 75.07,-89.17 137.46,-70.57 189.86,-63.1"/>
<polygon fill="none" stroke="#404040" points="190,-63.08 195.44,-58.35 201.9,-61.55 196.46,-66.29 190,-63.08"/>
<text text-anchor="middle" x="86.5" y="-215.2" font-family="Consolas" font-size="11.00"> +dof_encoding</text>
<text text-anchor="middle" x="86.5" y="-203.2" font-family="Consolas" font-size="11.00">+material_tag</text>
<text text-anchor="middle" x="86.5" y="-191.2" font-family="Consolas" font-size="11.00">+node_encoding</text>
<text text-anchor="middle" x="86.5" y="-179.2" font-family="Consolas" font-size="11.00">+section_tag</text>
</g>
<!-- Node3 -->
<g id="node3" class="node">
<title>Node3</title>
<g id="a_node3"><a xlink:title=" ">
<polygon fill="white" stroke="#666666" points="168,-316 118,-316 118,-284 168,-284 168,-316"/>
<text text-anchor="middle" x="143" y="-303.2" font-family="Consolas" font-size="11.00">{bool</text>
<text text-anchor="middle" x="143" y="-291.2" font-family="Consolas" font-size="11.00">||}</text>
</a>
</g>
</g>
<!-- Node3&#45;&gt;Node1 -->
<g id="edge2" class="edge">
<title>Node3&#45;&gt;Node1</title>
<path fill="none" stroke="#404040" d="M140.68,-283.94C136.76,-253.14 131.91,-181.84 162,-134 169.72,-121.73 180.26,-111.11 191.9,-102.05"/>
<polygon fill="none" stroke="#404040" points="192.18,-101.84 194.69,-95.08 201.89,-94.79 199.39,-101.56 192.18,-101.84"/>
<text text-anchor="middle" x="219.5" y="-221.2" font-family="Consolas" font-size="11.00"> +nlgeom</text>
<text text-anchor="middle" x="219.5" y="-209.2" font-family="Consolas" font-size="11.00">+update_damping</text>
<text text-anchor="middle" x="219.5" y="-197.2" font-family="Consolas" font-size="11.00">+update_geometry</text>
<text text-anchor="middle" x="219.5" y="-185.2" font-family="Consolas" font-size="11.00">+update_mass</text>
<text text-anchor="middle" x="219.5" y="-173.2" font-family="Consolas" font-size="11.00">+update_stiffness</text>
</g>
<!-- Node4 -->
<g id="node4" class="node">
<title>Node4</title>
<g id="a_node4"><a xlink:title=" ">
<polygon fill="white" stroke="#666666" points="303,-316 259,-316 259,-284 303,-284 303,-316"/>
<text text-anchor="middle" x="281" y="-303.2" font-family="Consolas" font-size="11.00">{mat</text>
<text text-anchor="middle" x="281" y="-291.2" font-family="Consolas" font-size="11.00">||}</text>
</a>
</g>
</g>
<!-- Node4&#45;&gt;Node1 -->
<g id="edge3" class="edge">
<title>Node4&#45;&gt;Node1</title>
<path fill="none" stroke="#404040" d="M281,-283.99C281,-253.47 281,-182.52 281,-128.39"/>
<polygon fill="none" stroke="#404040" points="281,-128.08 277,-122.08 281,-116.08 285,-122.08 281,-128.08"/>
<text text-anchor="middle" x="342" y="-257.2" font-family="Consolas" font-size="11.00"> +body_force</text>
<text text-anchor="middle" x="342" y="-245.2" font-family="Consolas" font-size="11.00">+current_damping</text>
<text text-anchor="middle" x="342" y="-233.2" font-family="Consolas" font-size="11.00">+current_geometry</text>
<text text-anchor="middle" x="342" y="-221.2" font-family="Consolas" font-size="11.00">+current_mass</text>
<text text-anchor="middle" x="342" y="-209.2" font-family="Consolas" font-size="11.00">+current_stiffness</text>
<text text-anchor="middle" x="342" y="-197.2" font-family="Consolas" font-size="11.00">+initial_damping</text>
<text text-anchor="middle" x="342" y="-185.2" font-family="Consolas" font-size="11.00">+initial_geometry</text>
<text text-anchor="middle" x="342" y="-173.2" font-family="Consolas" font-size="11.00">+initial_mass</text>
<text text-anchor="middle" x="342" y="-161.2" font-family="Consolas" font-size="11.00">+initial_stiffness</text>
<text text-anchor="middle" x="342" y="-149.2" font-family="Consolas" font-size="11.00">+mass_container</text>
<text text-anchor="middle" x="342" y="-137.2" font-family="Consolas" font-size="11.00">...</text>
</g>
<!-- Node5 -->
<g id="node5" class="node">
<title>Node5</title>
<g id="a_node5"><a xlink:title=" ">
<polygon fill="white" stroke="#666666" points="448,-316 404,-316 404,-284 448,-284 448,-316"/>
<text text-anchor="middle" x="426" y="-303.2" font-family="Consolas" font-size="11.00">{vec</text>
<text text-anchor="middle" x="426" y="-291.2" font-family="Consolas" font-size="11.00">||}</text>
</a>
</g>
</g>
<!-- Node5&#45;&gt;Node1 -->
<g id="edge4" class="edge">
<title>Node5&#45;&gt;Node1</title>
<path fill="none" stroke="#404040" d="M425.62,-283.87C424.47,-247.93 420.02,-158.57 404,-134 395.34,-120.73 383.44,-109.43 370.43,-99.95"/>
<polygon fill="none" stroke="#404040" points="370.21,-99.8 363,-99.73 360.29,-93.04 367.5,-93.12 370.21,-99.8"/>
<text text-anchor="middle" x="502" y="-257.2" font-family="Consolas" font-size="11.00"> +current_body_force</text>
<text text-anchor="middle" x="502" y="-245.2" font-family="Consolas" font-size="11.00">+current_damping_force</text>
<text text-anchor="middle" x="502" y="-233.2" font-family="Consolas" font-size="11.00">+current_inertial_force</text>
<text text-anchor="middle" x="502" y="-221.2" font-family="Consolas" font-size="11.00">+current_resistance</text>
<text text-anchor="middle" x="502" y="-209.2" font-family="Consolas" font-size="11.00">+current_traction</text>
<text text-anchor="middle" x="502" y="-197.2" font-family="Consolas" font-size="11.00">+momentum</text>
<text text-anchor="middle" x="502" y="-185.2" font-family="Consolas" font-size="11.00">+trial_body_force</text>
<text text-anchor="middle" x="502" y="-173.2" font-family="Consolas" font-size="11.00">+trial_damping_force</text>
<text text-anchor="middle" x="502" y="-161.2" font-family="Consolas" font-size="11.00">+trial_inertial_force</text>
<text text-anchor="middle" x="502" y="-149.2" font-family="Consolas" font-size="11.00">+trial_resistance</text>
<text text-anchor="middle" x="502" y="-137.2" font-family="Consolas" font-size="11.00">...</text>
</g>
<!-- Node6 -->
<g id="node6" class="node">
<title>Node6</title>
<g id="a_node6"><a xlink:title=" ">
<polygon fill="white" stroke="#666666" points="637,-316 573,-316 573,-284 637,-284 637,-316"/>
<text text-anchor="middle" x="605" y="-303.2" font-family="Consolas" font-size="11.00">{double</text>
<text text-anchor="middle" x="605" y="-291.2" font-family="Consolas" font-size="11.00">||}</text>
</a>
</g>
</g>
<!-- Node6&#45;&gt;Node1 -->
<g id="edge5" class="edge">
<title>Node6&#45;&gt;Node1</title>
<path fill="none" stroke="#404040" d="M608,-284C613.45,-252.03 621.16,-176.64 583,-134 555.17,-102.9 450.95,-82.03 372.68,-70.36"/>
<polygon fill="none" stroke="#404040" points="372.23,-70.29 365.71,-73.39 360.35,-68.56 366.86,-65.47 372.23,-70.29"/>
<text text-anchor="middle" x="690" y="-221.2" font-family="Consolas" font-size="11.00"> +characteristic_length</text>
<text text-anchor="middle" x="690" y="-209.2" font-family="Consolas" font-size="11.00">+complementary_energy</text>
<text text-anchor="middle" x="690" y="-197.2" font-family="Consolas" font-size="11.00">+kinetic_energy</text>
<text text-anchor="middle" x="690" y="-185.2" font-family="Consolas" font-size="11.00">+strain_energy</text>
<text text-anchor="middle" x="690" y="-173.2" font-family="Consolas" font-size="11.00">+viscous_energy</text>
</g>
</g>
</svg>
        <g id="navigator" transform="translate(0 0)" fill="#404254">
                <rect fill="#f2f5e9" fill-opacity="0.5" stroke="#606060" stroke-width=".5" x="0" y="0" width="60" height="60"/>
                <use id="zoomplus" xlink:href="#zoomPlus" x="17" y="9" onmousedown="handleZoom(evt,'in')"/>
                <use id="zoomminus" xlink:href="#zoomMin" x="42" y="9" onmousedown="handleZoom(evt,'out')"/>
                <use id="reset" xlink:href="#resetDef" x="30" y="36" onmousedown="handleReset()"/>
                <g id="arrowUp" xlink:href="#dirArrow" transform="translate(30 24)" onmousedown="handlePan(0,-1)">
                  <use xlink:href="#rim" fill="#404040">
                        <set attributeName="fill" to="#808080" begin="arrowUp.mouseover" end="arrowUp.mouseout"/>
                  </use>
                  <path fill="none" stroke="white" stroke-width="1.5" d="M0,-3.0v7 M-2.5,-0.5L0,-3.0L2.5,-0.5"/>
                </g>
                <g id="arrowRight" xlink:href="#dirArrow" transform="rotate(90) translate(36 -43)" onmousedown="handlePan(1,0)">
                  <use xlink:href="#rim" fill="#404040">
                        <set attributeName="fill" to="#808080" begin="arrowRight.mouseover" end="arrowRight.mouseout"/>
                  </use>
                  <path fill="none" stroke="white" stroke-width="1.5" d="M0,-3.0v7 M-2.5,-0.5L0,-3.0L2.5,-0.5"/>
                </g>
                <g id="arrowDown" xlink:href="#dirArrow" transform="rotate(180) translate(-30 -48)" onmousedown="handlePan(0,1)">
                  <use xlink:href="#rim" fill="#404040">
                        <set attributeName="fill" to="#808080" begin="arrowDown.mouseover" end="arrowDown.mouseout"/>
                  </use>
                  <path fill="none" stroke="white" stroke-width="1.5" d="M0,-3.0v7 M-2.5,-0.5L0,-3.0L2.5,-0.5"/>
                </g>
                <g id="arrowLeft" xlink:href="#dirArrow" transform="rotate(270) translate(-36 17)" onmousedown="handlePan(-1,0)">
                  <use xlink:href="#rim" fill="#404040">
                        <set attributeName="fill" to="#808080" begin="arrowLeft.mouseover" end="arrowLeft.mouseout"/>
                  </use>
                  <path fill="none" stroke="white" stroke-width="1.5" d="M0,-3.0v7 M-2.5,-0.5L0,-3.0L2.5,-0.5"/>
                </g>
        </g>
        <svg viewBox="0 0 15 15" width="100%" height="30px" preserveAspectRatio="xMaxYMin meet">
         <g id="arrow_out" transform="scale(0.3 0.3)">
          <a xlink:href="struct_data_element__coll__graph_org.svg" target="_base">
           <rect id="button" ry="5" rx="5" y="6" x="6" height="38" width="38"
                fill="#f2f5e9" fill-opacity="0.5" stroke="#606060" stroke-width="1.0"/>
           <path id="arrow"
             d="M 11.500037,31.436501 C 11.940474,20.09759 22.043105,11.32322 32.158766,21.979434 L 37.068811,17.246167 C 37.068811,17.246167 37.088388,32 37.088388,32 L 22.160133,31.978069 C 22.160133,31.978069 26.997745,27.140456 26.997745,27.140456 C 18.528582,18.264221 13.291696,25.230495 11.500037,31.436501 z"
             style="fill:#404040;"/>
          </a>
         </g>
        </svg>
</svg>
