<?xml version="1.0" encoding="UTF-8" standalone="no"?>
<!DOCTYPE svg PUBLIC "-//W3C//DTD SVG 1.1//EN"
 "http://www.w3.org/Graphics/SVG/1.1/DTD/svg11.dtd">
<!-- Generated by graphviz version 2.43.0 (0)
 -->
<!-- Title: Criterion Pages: 1 -->
<!--zoomable 908 -->

<svg id="main" version="1.1" xmlns="http://www.w3.org/2000/svg" xmlns:xlink="http://www.w3.org/1999/xlink" xml:space="preserve" onload="init(evt)">
<style type="text/css"><![CDATA[
.node, .edge {opacity: 0.7;}
.node.selected, .edge.selected {opacity: 1;}
.edge:hover path { stroke: red; }
.edge:hover polygon { stroke: red; fill: red; }
]]></style>

<defs>
  <circle id="rim" cx="0" cy="0" r="7"/>
  <circle id="rim2" cx="0" cy="0" r="3.5"/>
  <g id="zoomPlus">
    <use xlink:href="#rim" fill="#404040"><set attributeName="fill" to="#808080" begin="zoomplus.mouseover" end="zoomplus.mouseout"/></use>
    <path d="M-4,0h8M0,-4v8" fill="none" stroke="white" stroke-width="1.5" pointer-events="none"/>
  </g>
  <g id="zoomMin">
    <use xlink:href="#rim" fill="#404040"><set attributeName="fill" to="#808080" begin="zoomminus.mouseover" end="zoomminus.mouseout"/></use>
    <path d="M-4,0h8" fill="none" stroke="white" stroke-width="1.5" pointer-events="none"/>
  </g>
  <g id="arrowUp" transform="translate(30 24)">
    <use xlink:href="#rim"/>
    <path pointer-events="none" fill="none" stroke="white" stroke-width="1.5" d="M0,-3.0v7 M-2.5,-0.5L0,-3.0L2.5,-0.5"/>
  </g>
  <g id="arrowRight" transform="rotate(90) translate(36 -43)">
    <use xlink:href="#rim"/>
    <path pointer-events="none" fill="none" stroke="white" stroke-width="1.5" d="M0,-3.0v7 M-2.5,-0.5L0,-3.0L2.5,-0.5"/>
  </g>
  <g id="arrowDown" transform="rotate(180) translate(-30 -48)">
    <use xlink:href="#rim"/>
    <path pointer-events="none" fill="none" stroke="white" stroke-width="1.5" d="M0,-3.0v7 M-2.5,-0.5L0,-3.0L2.5,-0.5"/>
  </g>
  <g id="arrowLeft" transform="rotate(270) translate(-36 17)">
    <use xlink:href="#rim"/>
    <path pointer-events="none" fill="none" stroke="white" stroke-width="1.5" d="M0,-3.0v7 M-2.5,-0.5L0,-3.0L2.5,-0.5"/>
  </g>
  <g id="resetDef">
    <use xlink:href="#rim2" fill="#404040"><set attributeName="fill" to="#808080" begin="reset.mouseover" end="reset.mouseout"/></use>
  </g>
</defs>
<script type="application/ecmascript">
var viewWidth = 1409;
var viewHeight = 908;
var sectionId = 'dynsection-0';
</script>
<script type="application/ecmascript" xlink:href="../../svg.min.js"/>
<svg id="graph" class="graph">
<g id="viewport">
<title>Criterion</title>
<!-- Node1 -->
<g id="Node000001" class="node">
<title>Node1</title>
<g id="a_Node000001"><a xlink:title="A Criterion class.">
<polygon fill="#999999" stroke="transparent" points="696,-388 582,-388 582,-256 696,-256 696,-388"/>
<text text-anchor="start" x="608.5" y="-375.2" font-family="Consolas" font-size="11.00">Criterion</text>
<text text-anchor="start" x="635.5" y="-359.2" font-family="Consolas" font-size="11.00"> </text>
<text text-anchor="start" x="586" y="-343.2" font-family="Consolas" font-size="11.00">+</text>
<text text-anchor="start" x="597" y="-343.2" font-family="Consolas" font-size="11.00">Criterion()</text>
<text text-anchor="start" x="586" y="-327.2" font-family="Consolas" font-size="11.00">+</text>
<text text-anchor="start" x="597" y="-327.2" font-family="Consolas" font-size="11.00">set_step_tag()</text>
<text text-anchor="start" x="586" y="-311.2" font-family="Consolas" font-size="11.00">+</text>
<text text-anchor="start" x="597" y="-311.2" font-family="Consolas" font-size="11.00">get_step_tag()</text>
<text text-anchor="start" x="586" y="-295.2" font-family="Consolas" font-size="11.00">+</text>
<text text-anchor="start" x="597" y="-295.2" font-family="Consolas" font-size="11.00">unique_copy()</text>
<text text-anchor="start" x="586" y="-279.2" font-family="Consolas" font-size="11.00">+</text>
<text text-anchor="start" x="597" y="-279.2" font-family="Consolas" font-size="11.00">initialize()</text>
<text text-anchor="start" x="586" y="-263.2" font-family="Consolas" font-size="11.00">+</text>
<text text-anchor="start" x="597" y="-263.2" font-family="Consolas" font-size="11.00">process()</text>
<polygon fill="#666666" stroke="#666666" points="582,-370 582,-370 696,-370 696,-370 582,-370"/>
<polygon fill="#666666" stroke="#666666" points="582,-354 582,-354 696,-354 696,-354 582,-354"/>
<polygon fill="none" stroke="#666666" points="582,-256 582,-388 696,-388 696,-256 582,-256"/>
</a>
</g>
</g>
<!-- Node4 -->
<g id="Node000004" class="node">
<title>Node4</title>
<g id="a_Node000004"><a xlink:href="../../d1/d87/class_energy_evolution.html" target="_top" xlink:title="A EnergyEvolution class.">
<polygon fill="white" stroke="transparent" points="395,-212 261,-212 261,-128 395,-128 395,-212"/>
<text text-anchor="start" x="277" y="-199.2" font-family="Consolas" font-size="11.00">EnergyEvolution</text>
<text text-anchor="start" x="265" y="-183.2" font-family="Consolas" font-size="11.00">#</text>
<text text-anchor="start" x="276" y="-183.2" font-family="Consolas" font-size="11.00">get_energy</text>
<text text-anchor="start" x="265" y="-167.2" font-family="Consolas" font-size="11.00">+</text>
<text text-anchor="start" x="276" y="-167.2" font-family="Consolas" font-size="11.00">EnergyEvolution()</text>
<text text-anchor="start" x="265" y="-151.2" font-family="Consolas" font-size="11.00">+</text>
<text text-anchor="start" x="276" y="-151.2" font-family="Consolas" font-size="11.00">initialize()</text>
<text text-anchor="start" x="265" y="-135.2" font-family="Consolas" font-size="11.00">+</text>
<text text-anchor="start" x="276" y="-135.2" font-family="Consolas" font-size="11.00">process()</text>
<polygon fill="#666666" stroke="#666666" points="261,-194 261,-194 395,-194 395,-194 261,-194"/>
<polygon fill="#666666" stroke="#666666" points="261,-178 261,-178 274,-178 274,-178 261,-178"/>
<polygon fill="#666666" stroke="#666666" points="274,-178 274,-178 395,-178 395,-178 274,-178"/>
<polygon fill="none" stroke="#666666" points="261,-128 261,-212 395,-212 395,-128 261,-128"/>
</a>
</g>
</g>
<!-- Node1&#45;&gt;Node4 -->
<g id="edge3_Node000001_Node000004" class="edge">
<title>Node1&#45;&gt;Node4</title>
<g id="a_edge3_Node000001_Node000004"><a xlink:title=" ">
<path fill="none" stroke="#63b8ff" d="M572.77,-289.05C520.46,-263.83 447.79,-228.77 395.23,-203.43"/>
<polygon fill="none" stroke="#63b8ff" points="571.43,-292.3 581.96,-293.49 574.47,-285.99 571.43,-292.3"/>
</a>
</g>
</g>
<!-- Node7 -->
<g id="Node000007" class="node">
<title>Node7</title>
<g id="a_Node000007"><a xlink:href="../../d4/ddd/class_logic_criterion.html" target="_top" xlink:title="A LogicCriterion class.">
<polygon fill="white" stroke="transparent" points="635,-212 507,-212 507,-128 635,-128 635,-212"/>
<text text-anchor="start" x="523.5" y="-199.2" font-family="Consolas" font-size="11.00">LogicCriterion</text>
<text text-anchor="start" x="511" y="-183.2" font-family="Consolas" font-size="11.00">#</text>
<text text-anchor="start" x="522" y="-183.2" font-family="Consolas" font-size="11.00">criterion_a</text>
<text text-anchor="start" x="511" y="-167.2" font-family="Consolas" font-size="11.00">#</text>
<text text-anchor="start" x="522" y="-167.2" font-family="Consolas" font-size="11.00">criterion_b</text>
<text text-anchor="start" x="511" y="-151.2" font-family="Consolas" font-size="11.00">+</text>
<text text-anchor="start" x="522" y="-151.2" font-family="Consolas" font-size="11.00">LogicCriterion()</text>
<text text-anchor="start" x="511" y="-135.2" font-family="Consolas" font-size="11.00">+</text>
<text text-anchor="start" x="522" y="-135.2" font-family="Consolas" font-size="11.00">initialize()</text>
<polygon fill="#666666" stroke="#666666" points="507,-194 507,-194 635,-194 635,-194 507,-194"/>
<polygon fill="#666666" stroke="#666666" points="507,-162 507,-162 520,-162 520,-162 507,-162"/>
<polygon fill="#666666" stroke="#666666" points="520,-162 520,-162 635,-162 635,-162 520,-162"/>
<polygon fill="none" stroke="#666666" points="507,-128 507,-212 635,-212 635,-128 507,-128"/>
</a>
</g>
</g>
<!-- Node1&#45;&gt;Node7 -->
<g id="edge6_Node000001_Node000007" class="edge">
<title>Node1&#45;&gt;Node7</title>
<g id="a_edge6_Node000001_Node000007"><a xlink:title=" ">
<path fill="none" stroke="#63b8ff" d="M605.14,-246.31C599.85,-234.63 594.55,-222.95 589.76,-212.39"/>
<polygon fill="none" stroke="#63b8ff" points="602.06,-247.98 609.37,-255.64 608.43,-245.09 602.06,-247.98"/>
</a>
</g>
</g>
<!-- Node10 -->
<g id="Node000010" class="node">
<title>Node10</title>
<g id="a_Node000010"><a xlink:href="../../dc/d95/class_max_history.html" target="_top" xlink:title="A MaxHistory class.">
<polygon fill="white" stroke="transparent" points="760.5,-212 653.5,-212 653.5,-128 760.5,-128 760.5,-212"/>
<text text-anchor="start" x="673.5" y="-199.2" font-family="Consolas" font-size="11.00">MaxHistory</text>
<text text-anchor="start" x="704" y="-183.2" font-family="Consolas" font-size="11.00"> </text>
<text text-anchor="start" x="658" y="-167.2" font-family="Consolas" font-size="11.00">+</text>
<text text-anchor="start" x="669" y="-167.2" font-family="Consolas" font-size="11.00">MaxHistory()</text>
<text text-anchor="start" x="658" y="-151.2" font-family="Consolas" font-size="11.00">+</text>
<text text-anchor="start" x="669" y="-151.2" font-family="Consolas" font-size="11.00">unique_copy()</text>
<text text-anchor="start" x="658" y="-135.2" font-family="Consolas" font-size="11.00">+</text>
<text text-anchor="start" x="669" y="-135.2" font-family="Consolas" font-size="11.00">process()</text>
<polygon fill="#666666" stroke="#666666" points="654,-194 654,-194 761,-194 761,-194 654,-194"/>
<polygon fill="#666666" stroke="#666666" points="654,-178 654,-178 761,-178 761,-178 654,-178"/>
<polygon fill="none" stroke="#666666" points="653.5,-128 653.5,-212 760.5,-212 760.5,-128 653.5,-128"/>
</a>
</g>
</g>
<!-- Node1&#45;&gt;Node10 -->
<g id="edge9_Node000001_Node000010" class="edge">
<title>Node1&#45;&gt;Node10</title>
<g id="a_edge9_Node000001_Node000010"><a xlink:title=" ">
<path fill="none" stroke="#63b8ff" d="M672.86,-246.31C678.15,-234.63 683.45,-222.95 688.24,-212.39"/>
<polygon fill="none" stroke="#63b8ff" points="669.57,-245.09 668.63,-255.64 675.94,-247.98 669.57,-245.09"/>
</a>
</g>
</g>
<!-- Node11 -->
<g id="Node000011" class="node">
<title>Node11</title>
<g id="a_Node000011"><a xlink:href="../../df/da9/class_node_based_criterion.html" target="_top" xlink:title="A NodeBasedCriterion class.">
<polygon fill="white" stroke="transparent" points="1054.5,-220 899.5,-220 899.5,-120 1054.5,-120 1054.5,-220"/>
<text text-anchor="start" x="916.5" y="-207.2" font-family="Consolas" font-size="11.00">NodeBasedCriterion</text>
<text text-anchor="start" x="904" y="-191.2" font-family="Consolas" font-size="11.00">#</text>
<text text-anchor="start" x="915" y="-191.2" font-family="Consolas" font-size="11.00">node</text>
<text text-anchor="start" x="904" y="-175.2" font-family="Consolas" font-size="11.00">#</text>
<text text-anchor="start" x="915" y="-175.2" font-family="Consolas" font-size="11.00">dof</text>
<text text-anchor="start" x="904" y="-159.2" font-family="Consolas" font-size="11.00">#</text>
<text text-anchor="start" x="915" y="-159.2" font-family="Consolas" font-size="11.00">limit</text>
<text text-anchor="start" x="904" y="-143.2" font-family="Consolas" font-size="11.00">+</text>
<text text-anchor="start" x="915" y="-143.2" font-family="Consolas" font-size="11.00">NodeBasedCriterion()</text>
<text text-anchor="start" x="904" y="-127.2" font-family="Consolas" font-size="11.00">+</text>
<text text-anchor="start" x="915" y="-127.2" font-family="Consolas" font-size="11.00">initialize()</text>
<polygon fill="#666666" stroke="#666666" points="900,-202 900,-202 1055,-202 1055,-202 900,-202"/>
<polygon fill="#666666" stroke="#666666" points="900,-154 900,-154 913,-154 913,-154 900,-154"/>
<polygon fill="#666666" stroke="#666666" points="913,-154 913,-154 1055,-154 1055,-154 913,-154"/>
<polygon fill="none" stroke="#666666" points="899.5,-120 899.5,-220 1054.5,-220 1054.5,-120 899.5,-120"/>
</a>
</g>
</g>
<!-- Node1&#45;&gt;Node11 -->
<g id="edge10_Node000001_Node000011" class="edge">
<title>Node1&#45;&gt;Node11</title>
<g id="a_edge10_Node000001_Node000011"><a xlink:title=" ">
<path fill="none" stroke="#63b8ff" d="M705.75,-291.38C761.44,-266.66 840.85,-231.42 899.37,-205.45"/>
<polygon fill="none" stroke="#63b8ff" points="704.06,-288.3 696.34,-295.55 706.9,-294.7 704.06,-288.3"/>
</a>
</g>
</g>
<!-- Node2 -->
<g id="Node000002" class="node">
<title>Node2</title>
<g id="a_Node000002"><a xlink:href="../../d7/d1d/class_copyable_tag.html" target="_top" xlink:title="Label objects that can be copied.">
<polygon fill="white" stroke="transparent" points="696,-588 582,-588 582,-424 696,-424 696,-588"/>
<text text-anchor="start" x="601.5" y="-575.2" font-family="Consolas" font-size="11.00">CopyableTag</text>
<text text-anchor="start" x="635.5" y="-559.2" font-family="Consolas" font-size="11.00"> </text>
<text text-anchor="start" x="586" y="-543.2" font-family="Consolas" font-size="11.00">+</text>
<text text-anchor="start" x="597" y="-543.2" font-family="Consolas" font-size="11.00">CopyableTag()</text>
<text text-anchor="start" x="586" y="-527.2" font-family="Consolas" font-size="11.00">+</text>
<text text-anchor="start" x="597" y="-527.2" font-family="Consolas" font-size="11.00">CopyableTag()</text>
<text text-anchor="start" x="586" y="-511.2" font-family="Consolas" font-size="11.00">+</text>
<text text-anchor="start" x="597" y="-511.2" font-family="Consolas" font-size="11.00">operator=()</text>
<text text-anchor="start" x="586" y="-495.2" font-family="Consolas" font-size="11.00">+</text>
<text text-anchor="start" x="597" y="-495.2" font-family="Consolas" font-size="11.00">operator=()</text>
<text text-anchor="start" x="586" y="-479.2" font-family="Consolas" font-size="11.00">+</text>
<text text-anchor="start" x="597" y="-479.2" font-family="Consolas" font-size="11.00">~CopyableTag()</text>
<text text-anchor="start" x="586" y="-463.2" font-family="Consolas" font-size="11.00">+</text>
<text text-anchor="start" x="597" y="-463.2" font-family="Consolas" font-size="11.00">Tag()</text>
<text text-anchor="start" x="586" y="-447.2" font-family="Consolas" font-size="11.00">+</text>
<text text-anchor="start" x="597" y="-447.2" font-family="Consolas" font-size="11.00">Tag()</text>
<text text-anchor="start" x="586" y="-431.2" font-family="Consolas" font-size="11.00">+</text>
<text text-anchor="start" x="597" y="-431.2" font-family="Consolas" font-size="11.00">Tag()</text>
<polygon fill="#666666" stroke="#666666" points="582,-570 582,-570 696,-570 696,-570 582,-570"/>
<polygon fill="#666666" stroke="#666666" points="582,-554 582,-554 696,-554 696,-554 582,-554"/>
<polygon fill="none" stroke="#666666" points="582,-424 582,-588 696,-588 696,-424 582,-424"/>
</a>
</g>
</g>
<!-- Node2&#45;&gt;Node1 -->
<g id="edge1_Node000001_Node000002" class="edge">
<title>Node2&#45;&gt;Node1</title>
<g id="a_edge1_Node000001_Node000002"><a xlink:title=" ">
<path fill="none" stroke="#63b8ff" d="M639,-413.73C639,-405.1 639,-396.48 639,-388.17"/>
<polygon fill="none" stroke="#63b8ff" points="635.5,-413.85 639,-423.85 642.5,-413.85 635.5,-413.85"/>
</a>
</g>
</g>
<!-- Node3 -->
<g id="Node000003" class="node">
<title>Node3</title>
<g id="a_Node000003"><a xlink:href="../../d0/d57/class_tag.html" target="_top" xlink:title="A base Tag class.">
<polygon fill="white" stroke="transparent" points="689.5,-900 588.5,-900 588.5,-624 689.5,-624 689.5,-900"/>
<text text-anchor="start" x="629" y="-887.2" font-family="Consolas" font-size="11.00">Tag</text>
<text text-anchor="start" x="636" y="-871.2" font-family="Consolas" font-size="11.00"> </text>
<text text-anchor="start" x="593" y="-855.2" font-family="Consolas" font-size="11.00">+</text>
<text text-anchor="start" x="604" y="-855.2" font-family="Consolas" font-size="11.00">Tag()</text>
<text text-anchor="start" x="593" y="-839.2" font-family="Consolas" font-size="11.00">+</text>
<text text-anchor="start" x="604" y="-839.2" font-family="Consolas" font-size="11.00">Tag()</text>
<text text-anchor="start" x="593" y="-823.2" font-family="Consolas" font-size="11.00">+</text>
<text text-anchor="start" x="604" y="-823.2" font-family="Consolas" font-size="11.00">Tag()</text>
<text text-anchor="start" x="593" y="-807.2" font-family="Consolas" font-size="11.00">+</text>
<text text-anchor="start" x="604" y="-807.2" font-family="Consolas" font-size="11.00">operator=()</text>
<text text-anchor="start" x="593" y="-791.2" font-family="Consolas" font-size="11.00">+</text>
<text text-anchor="start" x="604" y="-791.2" font-family="Consolas" font-size="11.00">operator=()</text>
<text text-anchor="start" x="593" y="-775.2" font-family="Consolas" font-size="11.00">+</text>
<text text-anchor="start" x="604" y="-775.2" font-family="Consolas" font-size="11.00">~Tag()</text>
<text text-anchor="start" x="593" y="-759.2" font-family="Consolas" font-size="11.00">+</text>
<text text-anchor="start" x="604" y="-759.2" font-family="Consolas" font-size="11.00">set_tag()</text>
<text text-anchor="start" x="593" y="-743.2" font-family="Consolas" font-size="11.00">+</text>
<text text-anchor="start" x="604" y="-743.2" font-family="Consolas" font-size="11.00">get_tag()</text>
<text text-anchor="start" x="593" y="-727.2" font-family="Consolas" font-size="11.00">+</text>
<text text-anchor="start" x="604" y="-727.2" font-family="Consolas" font-size="11.00">enable()</text>
<text text-anchor="start" x="593" y="-711.2" font-family="Consolas" font-size="11.00">+</text>
<text text-anchor="start" x="604" y="-711.2" font-family="Consolas" font-size="11.00">disable()</text>
<text text-anchor="start" x="593" y="-695.2" font-family="Consolas" font-size="11.00">+</text>
<text text-anchor="start" x="604" y="-695.2" font-family="Consolas" font-size="11.00">guard()</text>
<text text-anchor="start" x="593" y="-679.2" font-family="Consolas" font-size="11.00">+</text>
<text text-anchor="start" x="604" y="-679.2" font-family="Consolas" font-size="11.00">unguard()</text>
<text text-anchor="start" x="593" y="-663.2" font-family="Consolas" font-size="11.00">+</text>
<text text-anchor="start" x="604" y="-663.2" font-family="Consolas" font-size="11.00">is_active()</text>
<text text-anchor="start" x="593" y="-647.2" font-family="Consolas" font-size="11.00">+</text>
<text text-anchor="start" x="604" y="-647.2" font-family="Consolas" font-size="11.00">is_guarded()</text>
<text text-anchor="start" x="593" y="-631.2" font-family="Consolas" font-size="11.00">+</text>
<text text-anchor="start" x="604" y="-631.2" font-family="Consolas" font-size="11.00">print()</text>
<polygon fill="#666666" stroke="#666666" points="589,-882 589,-882 690,-882 690,-882 589,-882"/>
<polygon fill="#666666" stroke="#666666" points="589,-866 589,-866 690,-866 690,-866 589,-866"/>
<polygon fill="none" stroke="#666666" points="588.5,-624 588.5,-900 689.5,-900 689.5,-624 588.5,-624"/>
</a>
</g>
</g>
<!-- Node3&#45;&gt;Node2 -->
<g id="edge2_Node000002_Node000003" class="edge">
<title>Node3&#45;&gt;Node2</title>
<g id="a_edge2_Node000002_Node000003"><a xlink:title=" ">
<path fill="none" stroke="#63b8ff" d="M639,-613.72C639,-605.04 639,-596.49 639,-588.23"/>
<polygon fill="none" stroke="#63b8ff" points="635.5,-613.96 639,-623.96 642.5,-613.96 635.5,-613.96"/>
</a>
</g>
</g>
<!-- Node5 -->
<g id="Node000005" class="node">
<title>Node5</title>
<g id="a_Node000005"><a xlink:href="../../de/ddd/class_complementary_energy_evolution.html" target="_top" xlink:title="A ComplementaryEnergyEvolution class.">
<polygon fill="white" stroke="transparent" points="222,-76 0,-76 0,-8 222,-8 222,-76"/>
<text text-anchor="start" x="16" y="-63.2" font-family="Consolas" font-size="11.00">ComplementaryEnergyEvolution</text>
<text text-anchor="start" x="107.5" y="-47.2" font-family="Consolas" font-size="11.00"> </text>
<text text-anchor="start" x="4" y="-31.2" font-family="Consolas" font-size="11.00">+</text>
<text text-anchor="start" x="15" y="-31.2" font-family="Consolas" font-size="11.00">ComplementaryEnergyEvolution()</text>
<text text-anchor="start" x="4" y="-15.2" font-family="Consolas" font-size="11.00">+</text>
<text text-anchor="start" x="15" y="-15.2" font-family="Consolas" font-size="11.00">unique_copy()</text>
<polygon fill="#666666" stroke="#666666" points="0,-58 0,-58 222,-58 222,-58 0,-58"/>
<polygon fill="#666666" stroke="#666666" points="0,-42 0,-42 222,-42 222,-42 0,-42"/>
<polygon fill="none" stroke="#666666" points="0,-8 0,-76 222,-76 222,-8 0,-8"/>
</a>
</g>
</g>
<!-- Node4&#45;&gt;Node5 -->
<g id="edge4_Node000004_Node000005" class="edge">
<title>Node4&#45;&gt;Node5</title>
<g id="a_edge4_Node000004_Node000005"><a xlink:title=" ">
<path fill="none" stroke="#63b8ff" d="M251.98,-124.86C224.37,-108.83 193.67,-91 167.99,-76.09"/>
<polygon fill="none" stroke="#63b8ff" points="250.42,-128 260.83,-130 253.94,-121.95 250.42,-128"/>
</a>
</g>
</g>
<!-- Node6 -->
<g id="Node000006" class="node">
<title>Node6</title>
<g id="a_Node000006"><a xlink:href="../../de/d88/class_strain_energy_evolution.html" target="_top" xlink:title="A StrainEnergyEvolution class.">
<polygon fill="white" stroke="transparent" points="415.5,-76 240.5,-76 240.5,-8 415.5,-8 415.5,-76"/>
<text text-anchor="start" x="257.5" y="-63.2" font-family="Consolas" font-size="11.00">StrainEnergyEvolution</text>
<text text-anchor="start" x="325" y="-47.2" font-family="Consolas" font-size="11.00"> </text>
<text text-anchor="start" x="245" y="-31.2" font-family="Consolas" font-size="11.00">+</text>
<text text-anchor="start" x="256" y="-31.2" font-family="Consolas" font-size="11.00">StrainEnergyEvolution()</text>
<text text-anchor="start" x="245" y="-15.2" font-family="Consolas" font-size="11.00">+</text>
<text text-anchor="start" x="256" y="-15.2" font-family="Consolas" font-size="11.00">unique_copy()</text>
<polygon fill="#666666" stroke="#666666" points="241,-58 241,-58 416,-58 416,-58 241,-58"/>
<polygon fill="#666666" stroke="#666666" points="241,-42 241,-42 416,-42 416,-42 241,-42"/>
<polygon fill="none" stroke="#666666" points="240.5,-8 240.5,-76 415.5,-76 415.5,-8 240.5,-8"/>
</a>
</g>
</g>
<!-- Node4&#45;&gt;Node6 -->
<g id="edge5_Node000004_Node000006" class="edge">
<title>Node4&#45;&gt;Node6</title>
<g id="a_edge5_Node000004_Node000006"><a xlink:title=" ">
<path fill="none" stroke="#63b8ff" d="M328,-117.36C328,-103.52 328,-88.93 328,-76.37"/>
<polygon fill="none" stroke="#63b8ff" points="324.5,-117.74 328,-127.74 331.5,-117.74 324.5,-117.74"/>
</a>
</g>
</g>
<!-- Node8 -->
<g id="Node000008" class="node">
<title>Node8</title>
<g id="a_Node000008"><a xlink:href="../../d7/d4e/class_logic_criterion_a_n_d.html" target="_top" xlink:title=" ">
<polygon fill="white" stroke="transparent" points="562,-84 434,-84 434,0 562,0 562,-84"/>
<text text-anchor="start" x="440.5" y="-71.2" font-family="Consolas" font-size="11.00">LogicCriterionAND</text>
<text text-anchor="start" x="494.5" y="-55.2" font-family="Consolas" font-size="11.00"> </text>
<text text-anchor="start" x="438" y="-39.2" font-family="Consolas" font-size="11.00">+</text>
<text text-anchor="start" x="449" y="-39.2" font-family="Consolas" font-size="11.00">unique_copy()</text>
<text text-anchor="start" x="438" y="-23.2" font-family="Consolas" font-size="11.00">+</text>
<text text-anchor="start" x="449" y="-23.2" font-family="Consolas" font-size="11.00">process()</text>
<text text-anchor="start" x="438" y="-7.2" font-family="Consolas" font-size="11.00">+</text>
<text text-anchor="start" x="449" y="-7.2" font-family="Consolas" font-size="11.00">LogicCriterion()</text>
<polygon fill="#666666" stroke="#666666" points="434,-66 434,-66 562,-66 562,-66 434,-66"/>
<polygon fill="#666666" stroke="#666666" points="434,-50 434,-50 562,-50 562,-50 434,-50"/>
<polygon fill="none" stroke="#666666" points="434,0 434,-84 562,-84 562,0 434,0"/>
</a>
</g>
</g>
<!-- Node7&#45;&gt;Node8 -->
<g id="edge7_Node000007_Node000008" class="edge">
<title>Node7&#45;&gt;Node8</title>
<g id="a_edge7_Node000007_Node000008"><a xlink:title=" ">
<path fill="none" stroke="#63b8ff" d="M542.08,-119.09C535.41,-107.57 528.39,-95.45 521.96,-84.35"/>
<polygon fill="none" stroke="#63b8ff" points="539.06,-120.84 547.1,-127.74 545.11,-117.34 539.06,-120.84"/>
</a>
</g>
</g>
<!-- Node9 -->
<g id="Node000009" class="node">
<title>Node9</title>
<g id="a_Node000009"><a xlink:href="../../d6/d76/class_logic_criterion_o_r.html" target="_top" xlink:title=" ">
<polygon fill="white" stroke="transparent" points="708,-84 580,-84 580,0 708,0 708,-84"/>
<text text-anchor="start" x="589.5" y="-71.2" font-family="Consolas" font-size="11.00">LogicCriterionOR</text>
<text text-anchor="start" x="640.5" y="-55.2" font-family="Consolas" font-size="11.00"> </text>
<text text-anchor="start" x="584" y="-39.2" font-family="Consolas" font-size="11.00">+</text>
<text text-anchor="start" x="595" y="-39.2" font-family="Consolas" font-size="11.00">unique_copy()</text>
<text text-anchor="start" x="584" y="-23.2" font-family="Consolas" font-size="11.00">+</text>
<text text-anchor="start" x="595" y="-23.2" font-family="Consolas" font-size="11.00">process()</text>
<text text-anchor="start" x="584" y="-7.2" font-family="Consolas" font-size="11.00">+</text>
<text text-anchor="start" x="595" y="-7.2" font-family="Consolas" font-size="11.00">LogicCriterion()</text>
<polygon fill="#666666" stroke="#666666" points="580,-66 580,-66 708,-66 708,-66 580,-66"/>
<polygon fill="#666666" stroke="#666666" points="580,-50 580,-50 708,-50 708,-50 580,-50"/>
<polygon fill="none" stroke="#666666" points="580,0 580,-84 708,-84 708,0 580,0"/>
</a>
</g>
</g>
<!-- Node7&#45;&gt;Node9 -->
<g id="edge8_Node000007_Node000009" class="edge">
<title>Node7&#45;&gt;Node9</title>
<g id="a_edge8_Node000007_Node000009"><a xlink:title=" ">
<path fill="none" stroke="#63b8ff" d="M599.92,-119.09C606.59,-107.57 613.61,-95.45 620.04,-84.35"/>
<polygon fill="none" stroke="#63b8ff" points="596.89,-117.34 594.9,-127.74 602.94,-120.84 596.89,-117.34"/>
</a>
</g>
</g>
<!-- Node12 -->
<g id="Node000012" class="node">
<title>Node12</title>
<g id="a_Node000012"><a xlink:href="../../dc/df3/class_max_displacement.html" target="_top" xlink:title="A MaxDisplacement class.">
<polygon fill="white" stroke="transparent" points="881.5,-84 726.5,-84 726.5,0 881.5,0 881.5,-84"/>
<text text-anchor="start" x="753.5" y="-71.2" font-family="Consolas" font-size="11.00">MaxDisplacement</text>
<text text-anchor="start" x="801" y="-55.2" font-family="Consolas" font-size="11.00"> </text>
<text text-anchor="start" x="731" y="-39.2" font-family="Consolas" font-size="11.00">+</text>
<text text-anchor="start" x="742" y="-39.2" font-family="Consolas" font-size="11.00">unique_copy()</text>
<text text-anchor="start" x="731" y="-23.2" font-family="Consolas" font-size="11.00">+</text>
<text text-anchor="start" x="742" y="-23.2" font-family="Consolas" font-size="11.00">process()</text>
<text text-anchor="start" x="731" y="-7.2" font-family="Consolas" font-size="11.00">+</text>
<text text-anchor="start" x="742" y="-7.2" font-family="Consolas" font-size="11.00">NodeBasedCriterion()</text>
<polygon fill="#666666" stroke="#666666" points="727,-66 727,-66 882,-66 882,-66 727,-66"/>
<polygon fill="#666666" stroke="#666666" points="727,-50 727,-50 882,-50 882,-50 727,-50"/>
<polygon fill="none" stroke="#666666" points="726.5,0 726.5,-84 881.5,-84 881.5,0 726.5,0"/>
</a>
</g>
</g>
<!-- Node11&#45;&gt;Node12 -->
<g id="edge11_Node000011_Node000012" class="edge">
<title>Node11&#45;&gt;Node12</title>
<g id="a_edge11_Node000011_Node000012"><a xlink:title=" ">
<path fill="none" stroke="#63b8ff" d="M901.18,-113.78C887.54,-103.84 873.53,-93.64 860.56,-84.19"/>
<polygon fill="none" stroke="#63b8ff" points="899.47,-116.87 909.62,-119.92 903.6,-111.21 899.47,-116.87"/>
</a>
</g>
</g>
<!-- Node13 -->
<g id="Node000013" class="node">
<title>Node13</title>
<g id="a_Node000013"><a xlink:href="../../df/ddd/class_max_resistance.html" target="_top" xlink:title="A MaxResistance class.">
<polygon fill="white" stroke="transparent" points="1054.5,-84 899.5,-84 899.5,0 1054.5,0 1054.5,-84"/>
<text text-anchor="start" x="933.5" y="-71.2" font-family="Consolas" font-size="11.00">MaxResistance</text>
<text text-anchor="start" x="974" y="-55.2" font-family="Consolas" font-size="11.00"> </text>
<text text-anchor="start" x="904" y="-39.2" font-family="Consolas" font-size="11.00">+</text>
<text text-anchor="start" x="915" y="-39.2" font-family="Consolas" font-size="11.00">unique_copy()</text>
<text text-anchor="start" x="904" y="-23.2" font-family="Consolas" font-size="11.00">+</text>
<text text-anchor="start" x="915" y="-23.2" font-family="Consolas" font-size="11.00">process()</text>
<text text-anchor="start" x="904" y="-7.2" font-family="Consolas" font-size="11.00">+</text>
<text text-anchor="start" x="915" y="-7.2" font-family="Consolas" font-size="11.00">NodeBasedCriterion()</text>
<polygon fill="#666666" stroke="#666666" points="900,-66 900,-66 1055,-66 1055,-66 900,-66"/>
<polygon fill="#666666" stroke="#666666" points="900,-50 900,-50 1055,-50 1055,-50 900,-50"/>
<polygon fill="none" stroke="#666666" points="899.5,0 899.5,-84 1054.5,-84 1054.5,0 899.5,0"/>
</a>
</g>
</g>
<!-- Node11&#45;&gt;Node13 -->
<g id="edge12_Node000011_Node000013" class="edge">
<title>Node11&#45;&gt;Node13</title>
<g id="a_edge12_Node000011_Node000013"><a xlink:title=" ">
<path fill="none" stroke="#63b8ff" d="M977,-109.89C977,-101.27 977,-92.56 977,-84.39"/>
<polygon fill="none" stroke="#63b8ff" points="973.5,-109.92 977,-119.92 980.5,-109.92 973.5,-109.92"/>
</a>
</g>
</g>
<!-- Node14 -->
<g id="Node000014" class="node">
<title>Node14</title>
<g id="a_Node000014"><a xlink:href="../../df/db4/class_min_displacement.html" target="_top" xlink:title="A MinDisplacement class.">
<polygon fill="white" stroke="transparent" points="1227.5,-84 1072.5,-84 1072.5,0 1227.5,0 1227.5,-84"/>
<text text-anchor="start" x="1099.5" y="-71.2" font-family="Consolas" font-size="11.00">MinDisplacement</text>
<text text-anchor="start" x="1147" y="-55.2" font-family="Consolas" font-size="11.00"> </text>
<text text-anchor="start" x="1077" y="-39.2" font-family="Consolas" font-size="11.00">+</text>
<text text-anchor="start" x="1088" y="-39.2" font-family="Consolas" font-size="11.00">unique_copy()</text>
<text text-anchor="start" x="1077" y="-23.2" font-family="Consolas" font-size="11.00">+</text>
<text text-anchor="start" x="1088" y="-23.2" font-family="Consolas" font-size="11.00">process()</text>
<text text-anchor="start" x="1077" y="-7.2" font-family="Consolas" font-size="11.00">+</text>
<text text-anchor="start" x="1088" y="-7.2" font-family="Consolas" font-size="11.00">NodeBasedCriterion()</text>
<polygon fill="#666666" stroke="#666666" points="1073,-66 1073,-66 1228,-66 1228,-66 1073,-66"/>
<polygon fill="#666666" stroke="#666666" points="1073,-50 1073,-50 1228,-50 1228,-50 1073,-50"/>
<polygon fill="none" stroke="#666666" points="1072.5,0 1072.5,-84 1227.5,-84 1227.5,0 1072.5,0"/>
</a>
</g>
</g>
<!-- Node11&#45;&gt;Node14 -->
<g id="edge13_Node000011_Node000014" class="edge">
<title>Node11&#45;&gt;Node14</title>
<g id="a_edge13_Node000011_Node000014"><a xlink:title=" ">
<path fill="none" stroke="#63b8ff" d="M1052.82,-113.78C1066.46,-103.84 1080.47,-93.64 1093.44,-84.19"/>
<polygon fill="none" stroke="#63b8ff" points="1050.4,-111.21 1044.38,-119.92 1054.53,-116.87 1050.4,-111.21"/>
</a>
</g>
</g>
<!-- Node15 -->
<g id="Node000015" class="node">
<title>Node15</title>
<g id="a_Node000015"><a xlink:href="../../d4/da5/class_min_resistance.html" target="_top" xlink:title="A MinResistance class.">
<polygon fill="white" stroke="transparent" points="1400.5,-84 1245.5,-84 1245.5,0 1400.5,0 1400.5,-84"/>
<text text-anchor="start" x="1279.5" y="-71.2" font-family="Consolas" font-size="11.00">MinResistance</text>
<text text-anchor="start" x="1320" y="-55.2" font-family="Consolas" font-size="11.00"> </text>
<text text-anchor="start" x="1250" y="-39.2" font-family="Consolas" font-size="11.00">+</text>
<text text-anchor="start" x="1261" y="-39.2" font-family="Consolas" font-size="11.00">unique_copy()</text>
<text text-anchor="start" x="1250" y="-23.2" font-family="Consolas" font-size="11.00">+</text>
<text text-anchor="start" x="1261" y="-23.2" font-family="Consolas" font-size="11.00">process()</text>
<text text-anchor="start" x="1250" y="-7.2" font-family="Consolas" font-size="11.00">+</text>
<text text-anchor="start" x="1261" y="-7.2" font-family="Consolas" font-size="11.00">NodeBasedCriterion()</text>
<polygon fill="#666666" stroke="#666666" points="1246,-66 1246,-66 1401,-66 1401,-66 1246,-66"/>
<polygon fill="#666666" stroke="#666666" points="1246,-50 1246,-50 1401,-50 1401,-50 1246,-50"/>
<polygon fill="none" stroke="#666666" points="1245.5,0 1245.5,-84 1400.5,-84 1400.5,0 1245.5,0"/>
</a>
</g>
</g>
<!-- Node11&#45;&gt;Node15 -->
<g id="edge14_Node000011_Node000015" class="edge">
<title>Node11&#45;&gt;Node15</title>
<g id="a_edge14_Node000011_Node000015"><a xlink:title=" ">
<path fill="none" stroke="#63b8ff" d="M1064.39,-143.51C1115.32,-127.9 1180.45,-106.61 1237,-84 1239.76,-82.89 1242.57,-81.74 1245.38,-80.55"/>
<polygon fill="none" stroke="#63b8ff" points="1063.27,-140.2 1054.72,-146.46 1065.31,-146.89 1063.27,-140.2"/>
</a>
</g>
</g>
</g>
</svg>

<g id="navigator" transform="translate(0 0)" fill="#404254">
  <rect fill="#f2f5e9" fill-opacity="0.5" stroke="#606060" stroke-width=".5" x="0" y="0" width="60" height="60"/>
  <use id="zoomplus" xlink:href="#zoomPlus" x="17" y="9" onmousedown="handleZoom(evt,'in')"/>
  <use id="zoomminus" xlink:href="#zoomMin" x="42" y="9" onmousedown="handleZoom(evt,'out')"/>
  <use id="reset" xlink:href="#resetDef" x="30" y="36" onmousedown="handleReset()"/>
   <use id="arrowup" xlink:href="#arrowUp" x="0" y="0" onmousedown="handlePan(0,-1)"/>
  <use id="arrowright" xlink:href="#arrowRight" x="0" y="0" onmousedown="handlePan(1,0)"/>
  <use id="arrowdown" xlink:href="#arrowDown" x="0" y="0" onmousedown="handlePan(0,1)"/>
  <use id="arrowleft" xlink:href="#arrowLeft" x="0" y="0" onmousedown="handlePan(-1,0)"/>
</g>
<svg viewBox="0 0 15 15" width="100%" height="30px" preserveAspectRatio="xMaxYMin meet">
 <g id="arrow_out" transform="scale(0.3 0.3)">
  <a xlink:href="class_criterion__inherit__graph_org.svg" target="_base">
   <rect id="button" ry="5" rx="5" y="6" x="6" height="38" width="38"
        fill="#f2f5e9" fill-opacity="0.5" stroke="#606060" stroke-width="1.0"/>
   <path id="arrow"
     d="M 11.500037,31.436501 C 11.940474,20.09759 22.043105,11.32322 32.158766,21.979434 L 37.068811,17.246167 C 37.068811,17.246167 37.088388,32 37.088388,32 L 22.160133,31.978069 C 22.160133,31.978069 26.997745,27.140456 26.997745,27.140456 C 18.528582,18.264221 13.291696,25.230495 11.500037,31.436501 z"
     style="fill:#404040;"/>
  </a>
 </g>
</svg>

<style type='text/css'>
<![CDATA[
[data-mouse-over-selected='false'] { opacity: 0.7; }
[data-mouse-over-selected='true']  { opacity: 1.0; }
]]>
</style>
<script type="application/ecmascript"><![CDATA[
document.addEventListener('DOMContentLoaded', (event) => {
  highlightEdges();
  highlightAdjacentNodes();
});
]]></script>
</svg>
