<?xml version="1.0" encoding="UTF-8" standalone="no"?>
<!DOCTYPE svg PUBLIC "-//W3C//DTD SVG 1.1//EN"
 "http://www.w3.org/Graphics/SVG/1.1/DTD/svg11.dtd">
<!-- Generated by graphviz version 8.1.0 (20230707.0739)
 -->
<!-- Title: Element/Membrane/Porous/PCPE4DC.h Pages: 1 -->
<svg width="642pt" height="459pt"
 viewBox="0.00 0.00 642.00 459.00" xmlns="http://www.w3.org/2000/svg" xmlns:xlink="http://www.w3.org/1999/xlink">
<g id="graph0" class="graph" transform="scale(1 1) rotate(0) translate(4 455)">
<title>Element/Membrane/Porous/PCPE4DC.h</title>
<!-- Node1 -->
<g id="Node000001" class="node">
<title>Node1</title>
<g id="a_Node000001"><a xlink:title=" ">
<polygon fill="#999999" stroke="#666666" points="473,-451 319,-451 319,-416 473,-416 473,-451"/>
<text text-anchor="start" x="327" y="-436.55" font-family="Consolas" font-size="11.00">Element/Membrane/Porous</text>
<text text-anchor="middle" x="396" y="-423.05" font-family="Consolas" font-size="11.00">/PCPE4DC.h</text>
</a>
</g>
</g>
<!-- Node2 -->
<g id="Node000002" class="node">
<title>Node2</title>
<g id="a_Node000002"><a xlink:href="../../dc/d5f/_material_element_8h.html" target="_top" xlink:title=" ">
<polygon fill="white" stroke="#666666" points="479,-380 313,-380 313,-358.5 479,-358.5 479,-380"/>
<text text-anchor="middle" x="396" y="-365.55" font-family="Consolas" font-size="11.00">Element/MaterialElement.h</text>
</a>
</g>
</g>
<!-- Node1&#45;&gt;Node2 -->
<g id="edge1_Node000001_Node000002" class="edge">
<title>Node1&#45;&gt;Node2</title>
<g id="a_edge1_Node000001_Node000002"><a xlink:title=" ">
<path fill="none" stroke="#63b8ff" d="M396,-415.82C396,-408.17 396,-399.03 396,-390.95"/>
<polygon fill="#63b8ff" stroke="#63b8ff" points="399.5,-391.17 396,-381.17 392.5,-391.17 399.5,-391.17"/>
</a>
</g>
</g>
<!-- Node3 -->
<g id="Node000003" class="node">
<title>Node3</title>
<g id="a_Node000003"><a xlink:href="../../d0/db8/_element_8h.html" target="_top" xlink:title=" ">
<polygon fill="white" stroke="#666666" points="395,-322.5 277,-322.5 277,-301 395,-301 395,-322.5"/>
<text text-anchor="middle" x="336" y="-308.05" font-family="Consolas" font-size="11.00">Element/Element.h</text>
</a>
</g>
</g>
<!-- Node2&#45;&gt;Node3 -->
<g id="edge2_Node000002_Node000003" class="edge">
<title>Node2&#45;&gt;Node3</title>
<g id="a_edge2_Node000002_Node000003"><a xlink:title=" ">
<path fill="none" stroke="#63b8ff" d="M385,-358.07C376.54,-350.25 364.66,-339.26 354.71,-330.06"/>
<polygon fill="#63b8ff" stroke="#63b8ff" points="357.65,-328.09 347.94,-323.87 352.9,-333.22 357.65,-328.09"/>
</a>
</g>
</g>
<!-- Node16 -->
<g id="Node000016" class="node">
<title>Node16</title>
<g id="a_Node000016"><a xlink:href="../../da/da5/_d_o_f_8h.html" target="_top" xlink:title=" ">
<polygon fill="white" stroke="#666666" points="501,-322.5 413,-322.5 413,-301 501,-301 501,-322.5"/>
<text text-anchor="middle" x="457" y="-308.05" font-family="Consolas" font-size="11.00">Domain/DOF.h</text>
</a>
</g>
</g>
<!-- Node2&#45;&gt;Node16 -->
<g id="edge16_Node000002_Node000016" class="edge">
<title>Node2&#45;&gt;Node16</title>
<g id="a_edge16_Node000002_Node000016"><a xlink:title=" ">
<path fill="none" stroke="#63b8ff" d="M407.19,-358.07C415.79,-350.25 427.86,-339.26 437.97,-330.06"/>
<polygon fill="#63b8ff" stroke="#63b8ff" points="439.84,-333.18 444.88,-323.87 435.13,-328.01 439.84,-333.18"/>
</a>
</g>
</g>
<!-- Node4 -->
<g id="Node000004" class="node">
<title>Node4</title>
<g id="a_Node000004"><a xlink:href="../../d9/d82/_element_base_8h.html" target="_top" xlink:title=" ">
<polygon fill="white" stroke="#666666" points="407,-265 265,-265 265,-243.5 407,-243.5 407,-265"/>
<text text-anchor="middle" x="336" y="-250.55" font-family="Consolas" font-size="11.00">Element/ElementBase.h</text>
</a>
</g>
</g>
<!-- Node3&#45;&gt;Node4 -->
<g id="edge3_Node000003_Node000004" class="edge">
<title>Node3&#45;&gt;Node4</title>
<g id="a_edge3_Node000003_Node000004"><a xlink:title=" ">
<path fill="none" stroke="#63b8ff" d="M336,-300.57C336,-293.76 336,-284.56 336,-276.23"/>
<polygon fill="#63b8ff" stroke="#63b8ff" points="339.5,-276.36 336,-266.37 332.5,-276.37 339.5,-276.36"/>
</a>
</g>
</g>
<!-- Node5 -->
<g id="Node000005" class="node">
<title>Node5</title>
<g id="a_Node000005"><a xlink:href="../../d2/d4a/_tag_8h.html" target="_top" xlink:title=" ">
<polygon fill="white" stroke="#666666" points="409,-136.5 321,-136.5 321,-115 409,-115 409,-136.5"/>
<text text-anchor="middle" x="365" y="-122.05" font-family="Consolas" font-size="11.00">Domain/Tag.h</text>
</a>
</g>
</g>
<!-- Node4&#45;&gt;Node5 -->
<g id="edge4_Node000004_Node000005" class="edge">
<title>Node4&#45;&gt;Node5</title>
<g id="a_edge4_Node000004_Node000005"><a xlink:title=" ">
<path fill="none" stroke="#63b8ff" d="M302.48,-243.16C285.34,-236.11 266.04,-224.8 256,-207.5 248.19,-194.04 247.39,-185.45 256,-172.5 268.3,-154 289.67,-142.97 310.26,-136.4"/>
<polygon fill="#63b8ff" stroke="#63b8ff" points="310.93,-139.56 319.58,-133.43 309,-132.83 310.93,-139.56"/>
</a>
</g>
</g>
<!-- Node14 -->
<g id="Node000014" class="node">
<title>Node14</title>
<g id="a_Node000014"><a xlink:href="../../d9/dc0/vtk_base_8h.html" target="_top" xlink:title=" ">
<polygon fill="white" stroke="#666666" points="407,-207.5 265,-207.5 265,-172.5 407,-172.5 407,-207.5"/>
<text text-anchor="start" x="273" y="-193.05" font-family="Consolas" font-size="11.00">Element/Visualisation</text>
<text text-anchor="middle" x="336" y="-179.55" font-family="Consolas" font-size="11.00">/vtkBase.h</text>
</a>
</g>
</g>
<!-- Node4&#45;&gt;Node14 -->
<g id="edge13_Node000004_Node000014" class="edge">
<title>Node4&#45;&gt;Node14</title>
<g id="a_edge13_Node000004_Node000014"><a xlink:title=" ">
<path fill="none" stroke="#63b8ff" d="M336,-243.25C336,-236.48 336,-227.19 336,-218.32"/>
<polygon fill="#63b8ff" stroke="#63b8ff" points="339.5,-218.53 336,-208.53 332.5,-218.53 339.5,-218.53"/>
</a>
</g>
</g>
<!-- Node15 -->
<g id="Node000015" class="node">
<title>Node15</title>
<g id="a_Node000015"><a xlink:href="../../d6/d94/_mapping_d_o_f_8h.html" target="_top" xlink:title=" ">
<polygon fill="white" stroke="#666666" points="561,-200.75 425,-200.75 425,-179.25 561,-179.25 561,-200.75"/>
<text text-anchor="middle" x="493" y="-186.3" font-family="Consolas" font-size="11.00">Element/MappingDOF.h</text>
</a>
</g>
</g>
<!-- Node4&#45;&gt;Node15 -->
<g id="edge14_Node000004_Node000015" class="edge">
<title>Node4&#45;&gt;Node15</title>
<g id="a_edge14_Node000004_Node000015"><a xlink:title=" ">
<path fill="none" stroke="#63b8ff" d="M361.57,-243.11C387.5,-232.83 427.84,-216.84 456.99,-205.28"/>
<polygon fill="#63b8ff" stroke="#63b8ff" points="458.17,-208.18 466.18,-201.24 455.59,-201.67 458.17,-208.18"/>
</a>
</g>
</g>
<!-- Node6 -->
<g id="Node000006" class="node">
<title>Node6</title>
<g id="a_Node000006"><a xlink:href="../../d8/d8f/suan_pan_8h.html" target="_top" xlink:title=" ">
<polygon fill="white" stroke="#666666" points="400,-79 330,-79 330,-57.5 400,-57.5 400,-79"/>
<text text-anchor="middle" x="365" y="-64.55" font-family="Consolas" font-size="11.00">suanPan.h</text>
</a>
</g>
</g>
<!-- Node5&#45;&gt;Node6 -->
<g id="edge5_Node000005_Node000006" class="edge">
<title>Node5&#45;&gt;Node6</title>
<g id="a_edge5_Node000005_Node000006"><a xlink:title=" ">
<path fill="none" stroke="#63b8ff" d="M365,-114.57C365,-107.76 365,-98.56 365,-90.23"/>
<polygon fill="#63b8ff" stroke="#63b8ff" points="368.5,-90.36 365,-80.37 361.5,-90.37 368.5,-90.36"/>
</a>
</g>
</g>
<!-- Node7 -->
<g id="Node000007" class="node">
<title>Node7</title>
<g id="a_Node000007"><a xlink:title=" ">
<polygon fill="#e0e0e0" stroke="#999999" points="64,-21.5 0,-21.5 0,0 64,0 64,-21.5"/>
<text text-anchor="middle" x="32" y="-7.05" font-family="Consolas" font-size="11.00">iostream</text>
</a>
</g>
</g>
<!-- Node6&#45;&gt;Node7 -->
<g id="edge6_Node000006_Node000007" class="edge">
<title>Node6&#45;&gt;Node7</title>
<g id="a_edge6_Node000006_Node000007"><a xlink:title=" ">
<path fill="none" stroke="#63b8ff" d="M329.79,-62.64C276.69,-55.49 172.77,-40.73 74.85,-21.74"/>
<polygon fill="#63b8ff" stroke="#63b8ff" points="75.66,-18.14 65.18,-19.65 74.32,-25.01 75.66,-18.14"/>
</a>
</g>
</g>
<!-- Node8 -->
<g id="Node000008" class="node">
<title>Node8</title>
<g id="a_Node000008"><a xlink:title=" ">
<polygon fill="#e0e0e0" stroke="#999999" points="212,-21.5 82,-21.5 82,0 212,0 212,-21.5"/>
<text text-anchor="middle" x="147" y="-7.05" font-family="Consolas" font-size="11.00">armadillo/armadillo</text>
</a>
</g>
</g>
<!-- Node6&#45;&gt;Node8 -->
<g id="edge7_Node000006_Node000008" class="edge">
<title>Node6&#45;&gt;Node8</title>
<g id="a_edge7_Node000006_Node000008"><a xlink:title=" ">
<path fill="none" stroke="#63b8ff" d="M329.97,-58.33C294.18,-49.22 238.23,-34.97 197.61,-24.64"/>
<polygon fill="#63b8ff" stroke="#63b8ff" points="198.67,-21.04 188.12,-21.96 196.95,-27.82 198.67,-21.04"/>
</a>
</g>
</g>
<!-- Node9 -->
<g id="Node000009" class="node">
<title>Node9</title>
<g id="a_Node000009"><a xlink:title=" ">
<polygon fill="#e0e0e0" stroke="#999999" points="306,-21.5 230,-21.5 230,0 306,0 306,-21.5"/>
<text text-anchor="middle" x="268" y="-7.05" font-family="Consolas" font-size="11.00">filesystem</text>
</a>
</g>
</g>
<!-- Node6&#45;&gt;Node9 -->
<g id="edge8_Node000006_Node000009" class="edge">
<title>Node6&#45;&gt;Node9</title>
<g id="a_edge8_Node000006_Node000009"><a xlink:title=" ">
<path fill="none" stroke="#63b8ff" d="M347.21,-57.07C332.58,-48.7 311.61,-36.7 294.93,-27.16"/>
<polygon fill="#63b8ff" stroke="#63b8ff" points="297.1,-23.79 286.68,-21.87 293.62,-29.87 297.1,-23.79"/>
</a>
</g>
</g>
<!-- Node10 -->
<g id="Node000010" class="node">
<title>Node10</title>
<g id="a_Node000010"><a xlink:title=" ">
<polygon fill="#e0e0e0" stroke="#999999" points="406,-21.5 324,-21.5 324,0 406,0 406,-21.5"/>
<text text-anchor="middle" x="365" y="-7.05" font-family="Consolas" font-size="11.00">fmt/color.h</text>
</a>
</g>
</g>
<!-- Node6&#45;&gt;Node10 -->
<g id="edge9_Node000006_Node000010" class="edge">
<title>Node6&#45;&gt;Node10</title>
<g id="a_edge9_Node000006_Node000010"><a xlink:title=" ">
<path fill="none" stroke="#63b8ff" d="M365,-57.07C365,-50.26 365,-41.06 365,-32.73"/>
<polygon fill="#63b8ff" stroke="#63b8ff" points="368.5,-32.86 365,-22.87 361.5,-32.87 368.5,-32.86"/>
</a>
</g>
</g>
<!-- Node11 -->
<g id="Node000011" class="node">
<title>Node11</title>
<g id="a_Node000011"><a xlink:title=" ">
<polygon fill="#e0e0e0" stroke="#999999" points="470,-21.5 424,-21.5 424,0 470,0 470,-21.5"/>
<text text-anchor="middle" x="447" y="-7.05" font-family="Consolas" font-size="11.00">mutex</text>
</a>
</g>
</g>
<!-- Node6&#45;&gt;Node11 -->
<g id="edge10_Node000006_Node000011" class="edge">
<title>Node6&#45;&gt;Node11</title>
<g id="a_edge10_Node000006_Node000011"><a xlink:title=" ">
<path fill="none" stroke="#63b8ff" d="M380.04,-57.07C392.06,-48.93 409.14,-37.37 423.04,-27.97"/>
<polygon fill="#63b8ff" stroke="#63b8ff" points="424.74,-30.37 431.06,-21.87 420.81,-24.57 424.74,-30.37"/>
</a>
</g>
</g>
<!-- Node12 -->
<g id="Node000012" class="node">
<title>Node12</title>
<g id="a_Node000012"><a xlink:title=" ">
<polygon fill="#e0e0e0" stroke="#999999" points="564,-21.5 488,-21.5 488,0 564,0 564,-21.5"/>
<text text-anchor="middle" x="526" y="-7.05" font-family="Consolas" font-size="11.00">functional</text>
</a>
</g>
</g>
<!-- Node6&#45;&gt;Node12 -->
<g id="edge11_Node000006_Node000012" class="edge">
<title>Node6&#45;&gt;Node12</title>
<g id="a_edge11_Node000006_Node000012"><a xlink:title=" ">
<path fill="none" stroke="#63b8ff" d="M394.53,-57.07C420.21,-48.22 457.64,-35.31 486,-25.54"/>
<polygon fill="#63b8ff" stroke="#63b8ff" points="487.07,-28.53 495.39,-21.96 484.79,-21.91 487.07,-28.53"/>
</a>
</g>
</g>
<!-- Node13 -->
<g id="Node000013" class="node">
<title>Node13</title>
<g id="a_Node000013"><a xlink:title=" ">
<polygon fill="#e0e0e0" stroke="#999999" points="634,-21.5 582,-21.5 582,0 634,0 634,-21.5"/>
<text text-anchor="middle" x="608" y="-7.05" font-family="Consolas" font-size="11.00">memory</text>
</a>
</g>
</g>
<!-- Node6&#45;&gt;Node13 -->
<g id="edge12_Node000006_Node000013" class="edge">
<title>Node6&#45;&gt;Node13</title>
<g id="a_edge12_Node000006_Node000013"><a xlink:title=" ">
<path fill="none" stroke="#63b8ff" d="M400.47,-60.07C439.87,-51.96 505.62,-38.02 571.15,-21.86"/>
<polygon fill="#63b8ff" stroke="#63b8ff" points="571.81,-25.06 580.67,-19.25 570.12,-18.27 571.81,-25.06"/>
</a>
</g>
</g>
<!-- Node15&#45;&gt;Node5 -->
<g id="edge15_Node000015_Node000005" class="edge">
<title>Node15&#45;&gt;Node5</title>
<g id="a_edge15_Node000015_Node000005"><a xlink:title=" ">
<path fill="none" stroke="#63b8ff" d="M472.15,-178.86C451.42,-168.78 419.37,-153.19 395.72,-141.69"/>
<polygon fill="#63b8ff" stroke="#63b8ff" points="397.37,-138.11 386.84,-136.89 394.3,-144.41 397.37,-138.11"/>
</a>
</g>
</g>
</g>
</svg>
