<?xml version="1.0" encoding="UTF-8" standalone="no"?>
<!DOCTYPE svg PUBLIC "-//W3C//DTD SVG 1.1//EN"
 "http://www.w3.org/Graphics/SVG/1.1/DTD/svg11.dtd">
<!-- Generated by graphviz version 8.1.0 (20230707.0739)
 -->
<!-- Title: tensor::strain::to_green Pages: 1 -->
<svg width="304pt" height="390pt"
 viewBox="0.00 0.00 304.00 389.50" xmlns="http://www.w3.org/2000/svg" xmlns:xlink="http://www.w3.org/1999/xlink">

<svg id="main" version="1.1" xmlns="http://www.w3.org/2000/svg" xmlns:xlink="http://www.w3.org/1999/xlink" xml:space="preserve" onload="init(evt)">
<style type="text/css"><![CDATA[
.node, .edge {opacity: 0.7;}
.node.selected, .edge.selected {opacity: 1;}
.edge:hover path { stroke: red; }
.edge:hover polygon { stroke: red; fill: red; }
]]></style>
<script type="application/ecmascript" xlink:href="../../svg.min.js"/>
<svg id="graph" class="graph">
<g id="graph0" class="graph" transform="scale(1 1) rotate(0) translate(4 385.5)">
<title>tensor::strain::to_green</title>
<!-- Node1 -->
<g id="Node000001" class="node">
<title>Node1</title>
<g id="a_Node000001"><a xlink:title=" ">
<polygon fill="#999999" stroke="#666666" points="296,-208.25 172,-208.25 172,-173.25 296,-173.25 296,-208.25"/>
<text text-anchor="start" x="180" y="-193.8" font-family="Consolas" font-size="11.00">tensor::strain::to</text>
<text text-anchor="middle" x="234" y="-180.3" font-family="Consolas" font-size="11.00">_green</text>
</a>
</g>
</g>
<!-- Node2 -->
<g id="Node000002" class="node">
<title>Node2</title>
<g id="a_Node000002"><a xlink:href="../../dc/d83/_test_tensor_8cpp.html#aa8eddbc045ff610a50500cd7b3f5147f" target="_top" xlink:title=" ">
<polygon fill="white" stroke="#666666" points="103,-381.5 33,-381.5 33,-360 103,-360 103,-381.5"/>
<text text-anchor="middle" x="68" y="-367.05" font-family="Consolas" font-size="11.00">TEST_CASE</text>
</a>
</g>
</g>
<!-- Node1&#45;&gt;Node2 -->
<g id="edge1_Node000001_Node000002" class="edge">
<title>Node1&#45;&gt;Node2</title>
<g id="a_edge1_Node000001_Node000002"><a xlink:title=" ">
<path fill="none" stroke="#63b8ff" d="M223.28,-218.84C209.46,-254.69 180.72,-316.19 136,-350.75 126.59,-358.02 114.56,-362.66 103.3,-365.61"/>
<polygon fill="#63b8ff" stroke="#63b8ff" points="226.89,-220.19 227.1,-209.6 220.33,-217.75 226.89,-220.19"/>
</a>
</g>
</g>
<!-- Node3 -->
<g id="Node000003" class="node">
<title>Node3</title>
<g id="a_Node000003"><a xlink:href="../../de/dba/class_c3_d20.html#a62607cefd01c6986d32c6b2590eae0c7" target="_top" xlink:title=" ">
<polygon fill="white" stroke="#666666" points="136,-341.5 0,-341.5 0,-320 136,-320 136,-341.5"/>
<text text-anchor="middle" x="68" y="-327.05" font-family="Consolas" font-size="11.00">C3D20::update_status</text>
</a>
</g>
</g>
<!-- Node1&#45;&gt;Node3 -->
<g id="edge2_Node000001_Node000003" class="edge">
<title>Node1&#45;&gt;Node3</title>
<g id="a_edge2_Node000001_Node000003"><a xlink:title=" ">
<path fill="none" stroke="#63b8ff" d="M217.7,-218.04C201.03,-245.36 171.87,-286.7 136,-310.75 130.76,-314.26 124.88,-317.18 118.84,-319.59"/>
<polygon fill="#63b8ff" stroke="#63b8ff" points="221.17,-220.05 223.27,-209.66 215.16,-216.47 221.17,-220.05"/>
</a>
</g>
</g>
<!-- Node4 -->
<g id="Node000004" class="node">
<title>Node4</title>
<g id="a_Node000004"><a xlink:href="../../d6/d66/class_c3_d4.html#a94ac6ee0683569f29ca2dea8e14cbee7" target="_top" xlink:title=" ">
<polygon fill="white" stroke="#666666" points="133,-301.5 3,-301.5 3,-280 133,-280 133,-301.5"/>
<text text-anchor="middle" x="68" y="-287.05" font-family="Consolas" font-size="11.00">C3D4::update_status</text>
</a>
</g>
</g>
<!-- Node1&#45;&gt;Node4 -->
<g id="edge3_Node000001_Node000004" class="edge">
<title>Node1&#45;&gt;Node4</title>
<g id="a_edge3_Node000001_Node000004"><a xlink:title=" ">
<path fill="none" stroke="#63b8ff" d="M208.1,-216.1C189.63,-233.64 163.06,-256.32 136,-270.75 129.57,-274.18 122.48,-277.1 115.38,-279.56"/>
<polygon fill="#63b8ff" stroke="#63b8ff" points="210.25,-218.93 214.99,-209.46 205.37,-213.9 210.25,-218.93"/>
</a>
</g>
</g>
<!-- Node5 -->
<g id="Node000005" class="node">
<title>Node5</title>
<g id="a_Node000005"><a xlink:href="../../d4/d8c/class_c3_d8.html#a47e35a8d3b4ab9175cacea501723160e" target="_top" xlink:title=" ">
<polygon fill="white" stroke="#666666" points="133,-261.5 3,-261.5 3,-240 133,-240 133,-261.5"/>
<text text-anchor="middle" x="68" y="-247.05" font-family="Consolas" font-size="11.00">C3D8::update_status</text>
</a>
</g>
</g>
<!-- Node1&#45;&gt;Node5 -->
<g id="edge4_Node000001_Node000005" class="edge">
<title>Node1&#45;&gt;Node5</title>
<g id="a_edge4_Node000001_Node000005"><a xlink:title=" ">
<path fill="none" stroke="#63b8ff" d="M182.31,-212.78C167.5,-218.91 151.21,-225.36 136,-230.75 127.3,-233.83 117.87,-236.85 108.89,-239.56"/>
<polygon fill="#63b8ff" stroke="#63b8ff" points="183.42,-215.7 191.29,-208.61 180.72,-209.24 183.42,-215.7"/>
</a>
</g>
</g>
<!-- Node6 -->
<g id="Node000006" class="node">
<title>Node6</title>
<g id="a_Node000006"><a xlink:href="../../dd/d49/class_c_p3.html#a2409a503ce301ff2e787fefa774d329a" target="_top" xlink:title=" ">
<polygon fill="white" stroke="#666666" points="130,-221.5 6,-221.5 6,-200 130,-200 130,-221.5"/>
<text text-anchor="middle" x="68" y="-207.05" font-family="Consolas" font-size="11.00">CP3::update_status</text>
</a>
</g>
</g>
<!-- Node1&#45;&gt;Node6 -->
<g id="edge5_Node000001_Node000006" class="edge">
<title>Node1&#45;&gt;Node6</title>
<g id="a_edge5_Node000001_Node000006"><a xlink:title=" ">
<path fill="none" stroke="#63b8ff" d="M161.3,-199.49C151,-200.75 140.47,-202.03 130.39,-203.26"/>
<polygon fill="#63b8ff" stroke="#63b8ff" points="161.43,-202.88 170.93,-198.2 160.58,-195.93 161.43,-202.88"/>
</a>
</g>
</g>
<!-- Node7 -->
<g id="Node000007" class="node">
<title>Node7</title>
<g id="a_Node000007"><a xlink:href="../../d8/d8f/class_c_p4.html#aacca37853cf7991f6b540d0902f76a59" target="_top" xlink:title=" ">
<polygon fill="white" stroke="#666666" points="130,-181.5 6,-181.5 6,-160 130,-160 130,-181.5"/>
<text text-anchor="middle" x="68" y="-167.05" font-family="Consolas" font-size="11.00">CP4::update_status</text>
</a>
</g>
</g>
<!-- Node1&#45;&gt;Node7 -->
<g id="edge6_Node000001_Node000007" class="edge">
<title>Node1&#45;&gt;Node7</title>
<g id="a_edge6_Node000001_Node000007"><a xlink:title=" ">
<path fill="none" stroke="#63b8ff" d="M161.3,-182.01C151,-180.75 140.47,-179.47 130.39,-178.24"/>
<polygon fill="#63b8ff" stroke="#63b8ff" points="160.58,-185.57 170.93,-183.3 161.43,-178.62 160.58,-185.57"/>
</a>
</g>
</g>
<!-- Node8 -->
<g id="Node000008" class="node">
<title>Node8</title>
<g id="a_Node000008"><a xlink:href="../../dd/df3/class_c_p5.html#a02a3aabeab122b8bedcb5991c72cadc0" target="_top" xlink:title=" ">
<polygon fill="white" stroke="#666666" points="130,-141.5 6,-141.5 6,-120 130,-120 130,-141.5"/>
<text text-anchor="middle" x="68" y="-127.05" font-family="Consolas" font-size="11.00">CP5::update_status</text>
</a>
</g>
</g>
<!-- Node1&#45;&gt;Node8 -->
<g id="edge7_Node000001_Node000008" class="edge">
<title>Node1&#45;&gt;Node8</title>
<g id="a_edge7_Node000001_Node000008"><a xlink:title=" ">
<path fill="none" stroke="#63b8ff" d="M182.31,-168.72C167.5,-162.59 151.21,-156.14 136,-150.75 127.3,-147.67 117.87,-144.65 108.89,-141.94"/>
<polygon fill="#63b8ff" stroke="#63b8ff" points="180.72,-172.26 191.29,-172.89 183.42,-165.8 180.72,-172.26"/>
</a>
</g>
</g>
<!-- Node9 -->
<g id="Node000009" class="node">
<title>Node9</title>
<g id="a_Node000009"><a xlink:href="../../d2/db0/class_c_p6.html#ab85ed43bc74b2d4a8a5a6d7fd381f439" target="_top" xlink:title=" ">
<polygon fill="white" stroke="#666666" points="130,-101.5 6,-101.5 6,-80 130,-80 130,-101.5"/>
<text text-anchor="middle" x="68" y="-87.05" font-family="Consolas" font-size="11.00">CP6::update_status</text>
</a>
</g>
</g>
<!-- Node1&#45;&gt;Node9 -->
<g id="edge8_Node000001_Node000009" class="edge">
<title>Node1&#45;&gt;Node9</title>
<g id="a_edge8_Node000001_Node000009"><a xlink:title=" ">
<path fill="none" stroke="#63b8ff" d="M208.1,-165.4C189.63,-147.86 163.06,-125.18 136,-110.75 129.57,-107.32 122.48,-104.4 115.38,-101.94"/>
<polygon fill="#63b8ff" stroke="#63b8ff" points="205.37,-167.6 214.99,-172.04 210.25,-162.57 205.37,-167.6"/>
</a>
</g>
</g>
<!-- Node10 -->
<g id="Node000010" class="node">
<title>Node10</title>
<g id="a_Node000010"><a xlink:href="../../d6/dc6/class_c_p7.html#a2aacf530d67d9cacfaea29f0cfdf8ac3" target="_top" xlink:title=" ">
<polygon fill="white" stroke="#666666" points="130,-61.5 6,-61.5 6,-40 130,-40 130,-61.5"/>
<text text-anchor="middle" x="68" y="-47.05" font-family="Consolas" font-size="11.00">CP7::update_status</text>
</a>
</g>
</g>
<!-- Node1&#45;&gt;Node10 -->
<g id="edge9_Node000001_Node000010" class="edge">
<title>Node1&#45;&gt;Node10</title>
<g id="a_edge9_Node000001_Node000010"><a xlink:title=" ">
<path fill="none" stroke="#63b8ff" d="M217.7,-163.46C201.03,-136.14 171.87,-94.8 136,-70.75 130.76,-67.24 124.88,-64.32 118.84,-61.91"/>
<polygon fill="#63b8ff" stroke="#63b8ff" points="215.16,-165.03 223.27,-171.84 221.17,-161.45 215.16,-165.03"/>
</a>
</g>
</g>
<!-- Node11 -->
<g id="Node000011" class="node">
<title>Node11</title>
<g id="a_Node000011"><a xlink:href="../../d0/de0/class_c_p8.html#aad3350ff334f3c855cd6be24846c21e2" target="_top" xlink:title=" ">
<polygon fill="white" stroke="#666666" points="130,-21.5 6,-21.5 6,0 130,0 130,-21.5"/>
<text text-anchor="middle" x="68" y="-7.05" font-family="Consolas" font-size="11.00">CP8::update_status</text>
</a>
</g>
</g>
<!-- Node1&#45;&gt;Node11 -->
<g id="edge10_Node000001_Node000011" class="edge">
<title>Node1&#45;&gt;Node11</title>
<g id="a_edge10_Node000001_Node000011"><a xlink:title=" ">
<path fill="none" stroke="#63b8ff" d="M223.28,-162.66C209.46,-126.81 180.72,-65.31 136,-30.75 131.49,-27.26 126.37,-24.38 121.03,-22"/>
<polygon fill="#63b8ff" stroke="#63b8ff" points="220.33,-163.75 227.1,-171.9 226.89,-161.31 220.33,-163.75"/>
</a>
</g>
</g>
</g>
</svg>
</svg>

<style type='text/css'>
<![CDATA[
[data-mouse-over-selected='false'] { opacity: 0.7; }
[data-mouse-over-selected='true']  { opacity: 1.0; }
]]>
</style>
<script type="application/ecmascript"><![CDATA[
document.addEventListener('DOMContentLoaded', (event) => {
  highlightEdges();
  highlightAdjacentNodes();
});
]]></script>
</svg>
