<?xml version="1.0" encoding="UTF-8" standalone="no"?>
<!DOCTYPE svg PUBLIC "-//W3C//DTD SVG 1.1//EN"
 "http://www.w3.org/Graphics/SVG/1.1/DTD/svg11.dtd">
<!-- Generated by graphviz version 2.43.0 (0)
 -->
<!-- Title: ExpGurson1D Pages: 1 -->
<!--zoomable 925 -->
<svg id="main" version="1.1" xmlns="http://www.w3.org/2000/svg" xmlns:xlink="http://www.w3.org/1999/xlink" xml:space="preserve" onload="init(evt)">
<style type="text/css"><![CDATA[
.edge:hover path { stroke: red; }
.edge:hover polygon { stroke: red; fill: red; }
]]></style>
<script type="text/javascript"><![CDATA[
var edges = document.getElementsByTagName('g');
if (edges && edges.length) {
  for (var i=0;i<edges.length;i++) {
    if (edges[i].id.substr(0,4)=='edge') {
      edges[i].setAttribute('class','edge');
    }
  }
}
]]></script>
        <defs>
                <circle id="rim" cx="0" cy="0" r="7"/>
                <circle id="rim2" cx="0" cy="0" r="3.5"/>
                <g id="zoomPlus">
                        <use xlink:href="#rim" fill="#404040">
                                <set attributeName="fill" to="#808080" begin="zoomplus.mouseover" end="zoomplus.mouseout"/>
                        </use>
                        <path d="M-4,0h8M0,-4v8" fill="none" stroke="white" stroke-width="1.5" pointer-events="none"/>
                </g>
                <g id="zoomMin">
                        <use xlink:href="#rim" fill="#404040">
                                <set attributeName="fill" to="#808080" begin="zoomminus.mouseover" end="zoomminus.mouseout"/>
                        </use>
                        <path d="M-4,0h8" fill="none" stroke="white" stroke-width="1.5" pointer-events="none"/>
                </g>
                <g id="dirArrow">
                        <path fill="none" stroke="white" stroke-width="1.5" d="M0,-3.0v7 M-2.5,-0.5L0,-3.0L2.5,-0.5"/>
                </g>
               <g id="resetDef">
                       <use xlink:href="#rim2" fill="#404040">
                               <set attributeName="fill" to="#808080" begin="reset.mouseover" end="reset.mouseout"/>
                       </use>
               </g>
        </defs>

<script type="text/javascript">
var viewWidth = 532;
var viewHeight = 925;
var sectionId = 'dynsection-0';
</script>
<script xlink:href="../../svgpan.js"/>
<svg id="graph" class="graph">
<g id="viewport">
<title>ExpGurson1D</title>
<polygon fill="white" stroke="transparent" points="-4,4 -4,-921 527.5,-921 527.5,4 -4,4"/>
<!-- Node1 -->
<g id="node1" class="node">
<title>Node1</title>
<g id="a_node1"><a xlink:title="The ExpGurson1D class.">
<polygon fill="#bfbfbf" stroke="black" points="81,-0.5 81,-84.5 199,-84.5 199,-0.5 81,-0.5"/>
<text text-anchor="middle" x="140" y="-71.7" font-family="Consolas" font-size="11.00">ExpGurson1D</text>
<polyline fill="none" stroke="black" points="81,-64.5 199,-64.5 "/>
<text text-anchor="middle" x="140" y="-51.7" font-family="Consolas" font-size="11.00"> </text>
<polyline fill="none" stroke="black" points="81,-44.5 199,-44.5 "/>
<text text-anchor="start" x="89" y="-31.7" font-family="Consolas" font-size="11.00">+ ExpGurson1D()</text>
<text text-anchor="start" x="89" y="-19.7" font-family="Consolas" font-size="11.00">+ get_copy()</text>
<text text-anchor="start" x="89" y="-7.7" font-family="Consolas" font-size="11.00">+ print()</text>
</a>
</g>
</g>
<!-- Node2 -->
<g id="node2" class="node">
<title>Node2</title>
<g id="a_node2"><a xlink:href="../../dd/d55/struct_data_exp_gurson1_d.html" target="_top" xlink:title=" ">
<polygon fill="white" stroke="black" points="0,-157.5 0,-229.5 118,-229.5 118,-157.5 0,-157.5"/>
<text text-anchor="middle" x="59" y="-216.7" font-family="Consolas" font-size="11.00">DataExpGurson1D</text>
<polyline fill="none" stroke="black" points="0,-209.5 118,-209.5 "/>
<text text-anchor="start" x="8" y="-196.7" font-family="Consolas" font-size="11.00">+ yield_stress</text>
<text text-anchor="start" x="8" y="-184.7" font-family="Consolas" font-size="11.00">+ n</text>
<polyline fill="none" stroke="black" points="0,-177.5 118,-177.5 "/>
<text text-anchor="middle" x="59" y="-164.7" font-family="Consolas" font-size="11.00"> </text>
</a>
</g>
</g>
<!-- Node2&#45;&gt;Node1 -->
<g id="edge1" class="edge">
<title>Node2&#45;&gt;Node1</title>
<path fill="none" stroke="darkgreen" d="M83.08,-148.21C94.03,-128.07 106.91,-104.38 117.64,-84.63"/>
<polygon fill="none" stroke="darkgreen" points="79.9,-146.73 78.2,-157.19 86.05,-150.08 79.9,-146.73"/>
</g>
<!-- Node3 -->
<g id="node3" class="node">
<title>Node3</title>
<g id="a_node3"><a xlink:href="../../d7/d44/class_nonlinear_gurson1_d.html" target="_top" xlink:title="The NonlinearGurson1D class.">
<polygon fill="white" stroke="black" points="136,-121.5 136,-265.5 308,-265.5 308,-121.5 136,-121.5"/>
<text text-anchor="middle" x="222" y="-252.7" font-family="Consolas" font-size="11.00">NonlinearGurson1D</text>
<polyline fill="none" stroke="black" points="136,-245.5 308,-245.5 "/>
<text text-anchor="middle" x="222" y="-232.7" font-family="Consolas" font-size="11.00"> </text>
<polyline fill="none" stroke="black" points="136,-225.5 308,-225.5 "/>
<text text-anchor="start" x="144" y="-212.7" font-family="Consolas" font-size="11.00">+ NonlinearGurson1D()</text>
<text text-anchor="start" x="144" y="-200.7" font-family="Consolas" font-size="11.00">+ initialize()</text>
<text text-anchor="start" x="144" y="-188.7" font-family="Consolas" font-size="11.00">+ get_parameter()</text>
<text text-anchor="start" x="144" y="-176.7" font-family="Consolas" font-size="11.00">+ update_trial_status()</text>
<text text-anchor="start" x="144" y="-164.7" font-family="Consolas" font-size="11.00">+ clear_status()</text>
<text text-anchor="start" x="144" y="-152.7" font-family="Consolas" font-size="11.00">+ commit_status()</text>
<text text-anchor="start" x="144" y="-140.7" font-family="Consolas" font-size="11.00">+ reset_status()</text>
<text text-anchor="start" x="144" y="-128.7" font-family="Consolas" font-size="11.00">+ record()</text>
</a>
</g>
</g>
<!-- Node3&#45;&gt;Node1 -->
<g id="edge2" class="edge">
<title>Node3&#45;&gt;Node1</title>
<path fill="none" stroke="midnightblue" d="M178.05,-112.63C172.75,-103.01 167.52,-93.5 162.71,-84.76"/>
<polygon fill="none" stroke="midnightblue" points="175.03,-114.42 182.92,-121.49 181.17,-111.04 175.03,-114.42"/>
</g>
<!-- Node4 -->
<g id="node4" class="node">
<title>Node4</title>
<g id="a_node4"><a xlink:href="../../d1/d1e/struct_data_nonlinear_gurson1_d.html" target="_top" xlink:title=" ">
<polygon fill="white" stroke="black" points="67,-302.5 67,-434.5 225,-434.5 225,-302.5 67,-302.5"/>
<text text-anchor="middle" x="146" y="-421.7" font-family="Consolas" font-size="11.00">DataNonlinearGurson1D</text>
<polyline fill="none" stroke="black" points="67,-414.5 225,-414.5 "/>
<text text-anchor="start" x="75" y="-401.7" font-family="Consolas" font-size="11.00">+ elastic_modulus</text>
<text text-anchor="start" x="75" y="-389.7" font-family="Consolas" font-size="11.00">+ poissons_ratio</text>
<text text-anchor="start" x="75" y="-377.7" font-family="Consolas" font-size="11.00">+ q1</text>
<text text-anchor="start" x="75" y="-365.7" font-family="Consolas" font-size="11.00">+ q2</text>
<text text-anchor="start" x="75" y="-353.7" font-family="Consolas" font-size="11.00">+ fn</text>
<text text-anchor="start" x="75" y="-341.7" font-family="Consolas" font-size="11.00">+ sn</text>
<text text-anchor="start" x="75" y="-329.7" font-family="Consolas" font-size="11.00">+ en</text>
<polyline fill="none" stroke="black" points="67,-322.5 225,-322.5 "/>
<text text-anchor="middle" x="146" y="-309.7" font-family="Consolas" font-size="11.00"> </text>
</a>
</g>
</g>
<!-- Node4&#45;&gt;Node3 -->
<g id="edge3" class="edge">
<title>Node4&#45;&gt;Node3</title>
<path fill="none" stroke="darkgreen" d="M178.81,-292.82C182.75,-283.85 186.77,-274.7 190.69,-265.78"/>
<polygon fill="none" stroke="darkgreen" points="175.55,-291.53 174.73,-302.1 181.96,-294.35 175.55,-291.53"/>
</g>
<!-- Node5 -->
<g id="node5" class="node">
<title>Node5</title>
<g id="a_node5"><a xlink:href="../../d9/d97/class_material1_d.html" target="_top" xlink:title="A Material1D class.">
<polygon fill="white" stroke="black" points="242.5,-326.5 242.5,-410.5 353.5,-410.5 353.5,-326.5 242.5,-326.5"/>
<text text-anchor="middle" x="298" y="-397.7" font-family="Consolas" font-size="11.00">Material1D</text>
<polyline fill="none" stroke="black" points="242.5,-390.5 353.5,-390.5 "/>
<text text-anchor="middle" x="298" y="-377.7" font-family="Consolas" font-size="11.00"> </text>
<polyline fill="none" stroke="black" points="242.5,-370.5 353.5,-370.5 "/>
<text text-anchor="start" x="250.5" y="-357.7" font-family="Consolas" font-size="11.00">+ Material1D()</text>
<text text-anchor="start" x="250.5" y="-345.7" font-family="Consolas" font-size="11.00">+ record()</text>
<text text-anchor="start" x="250.5" y="-333.7" font-family="Consolas" font-size="11.00">+ print()</text>
</a>
</g>
</g>
<!-- Node5&#45;&gt;Node3 -->
<g id="edge4" class="edge">
<title>Node5&#45;&gt;Node3</title>
<path fill="none" stroke="midnightblue" d="M275.76,-316.88C268.73,-300.87 260.81,-282.86 253.27,-265.68"/>
<polygon fill="none" stroke="midnightblue" points="272.57,-318.31 279.8,-326.06 278.98,-315.5 272.57,-318.31"/>
</g>
<!-- Node6 -->
<g id="node6" class="node">
<title>Node6</title>
<g id="a_node6"><a xlink:href="../../dc/dee/class_material.html" target="_top" xlink:title="A Material abstract base class.">
<polygon fill="white" stroke="black" points="219,-471.5 219,-651.5 377,-651.5 377,-471.5 219,-471.5"/>
<text text-anchor="middle" x="298" y="-638.7" font-family="Consolas" font-size="11.00">Material</text>
<polyline fill="none" stroke="black" points="219,-631.5 377,-631.5 "/>
<text text-anchor="middle" x="298" y="-618.7" font-family="Consolas" font-size="11.00"> </text>
<polyline fill="none" stroke="black" points="219,-611.5 377,-611.5 "/>
<text text-anchor="start" x="227" y="-598.7" font-family="Consolas" font-size="11.00">+ Material()</text>
<text text-anchor="start" x="227" y="-586.7" font-family="Consolas" font-size="11.00">+ Material()</text>
<text text-anchor="start" x="227" y="-574.7" font-family="Consolas" font-size="11.00">+ Material()</text>
<text text-anchor="start" x="227" y="-562.7" font-family="Consolas" font-size="11.00">+ operator=()</text>
<text text-anchor="start" x="227" y="-550.7" font-family="Consolas" font-size="11.00">+ operator=()</text>
<text text-anchor="start" x="227" y="-538.7" font-family="Consolas" font-size="11.00">+ ~Material()</text>
<text text-anchor="start" x="227" y="-526.7" font-family="Consolas" font-size="11.00">+ get_density()</text>
<text text-anchor="start" x="227" y="-514.7" font-family="Consolas" font-size="11.00">+ get_material_type()</text>
<text text-anchor="start" x="227" y="-502.7" font-family="Consolas" font-size="11.00">+ get_plane_type()</text>
<text text-anchor="start" x="227" y="-490.7" font-family="Consolas" font-size="11.00">+ initialize_base()</text>
<text text-anchor="start" x="227" y="-478.7" font-family="Consolas" font-size="11.00">and 72 more...</text>
</a>
</g>
</g>
<!-- Node6&#45;&gt;Node5 -->
<g id="edge5" class="edge">
<title>Node6&#45;&gt;Node5</title>
<path fill="none" stroke="midnightblue" d="M298,-460.98C298,-443.23 298,-425.68 298,-410.76"/>
<polygon fill="none" stroke="midnightblue" points="294.5,-461.43 298,-471.43 301.5,-461.43 294.5,-461.43"/>
</g>
<!-- Node7 -->
<g id="node7" class="node">
<title>Node7</title>
<g id="a_node7"><a xlink:href="../../de/de9/struct_data_material.html" target="_top" xlink:title=" ">
<polygon fill="white" stroke="black" points="12,-712.5 12,-892.5 184,-892.5 184,-712.5 12,-712.5"/>
<text text-anchor="middle" x="98" y="-879.7" font-family="Consolas" font-size="11.00">DataMaterial</text>
<polyline fill="none" stroke="black" points="12,-872.5 184,-872.5 "/>
<text text-anchor="start" x="20" y="-859.7" font-family="Consolas" font-size="11.00">+ density</text>
<text text-anchor="start" x="20" y="-847.7" font-family="Consolas" font-size="11.00">+ material_type</text>
<text text-anchor="start" x="20" y="-835.7" font-family="Consolas" font-size="11.00">+ plane_type</text>
<text text-anchor="start" x="20" y="-823.7" font-family="Consolas" font-size="11.00">+ tolerance</text>
<text text-anchor="start" x="20" y="-811.7" font-family="Consolas" font-size="11.00">+ characteristic_length</text>
<text text-anchor="start" x="20" y="-799.7" font-family="Consolas" font-size="11.00">+ current_strain</text>
<text text-anchor="start" x="20" y="-787.7" font-family="Consolas" font-size="11.00">+ current_strain_rate</text>
<text text-anchor="start" x="20" y="-775.7" font-family="Consolas" font-size="11.00">+ current_strain_acc</text>
<text text-anchor="start" x="20" y="-763.7" font-family="Consolas" font-size="11.00">+ current_stress</text>
<text text-anchor="start" x="20" y="-751.7" font-family="Consolas" font-size="11.00">+ trial_strain</text>
<text text-anchor="start" x="20" y="-739.7" font-family="Consolas" font-size="11.00">and 19 more...</text>
<polyline fill="none" stroke="black" points="12,-732.5 184,-732.5 "/>
<text text-anchor="middle" x="98" y="-719.7" font-family="Consolas" font-size="11.00"> </text>
</a>
</g>
</g>
<!-- Node7&#45;&gt;Node6 -->
<g id="edge6" class="edge">
<title>Node7&#45;&gt;Node6</title>
<path fill="none" stroke="darkgreen" d="M179.39,-704.24C193.92,-686.87 209,-668.85 223.33,-651.73"/>
<polygon fill="none" stroke="darkgreen" points="176.49,-702.25 172.76,-712.17 181.86,-706.74 176.49,-702.25"/>
</g>
<!-- Node8 -->
<g id="node8" class="node">
<title>Node8</title>
<g id="a_node8"><a xlink:href="../../da/de4/struct_data_couple_material.html" target="_top" xlink:title=" ">
<polygon fill="white" stroke="black" points="202,-724.5 202,-880.5 394,-880.5 394,-724.5 202,-724.5"/>
<text text-anchor="middle" x="298" y="-867.7" font-family="Consolas" font-size="11.00">DataCoupleMaterial</text>
<polyline fill="none" stroke="black" points="202,-860.5 394,-860.5 "/>
<text text-anchor="start" x="210" y="-847.7" font-family="Consolas" font-size="11.00">+ current_curvature</text>
<text text-anchor="start" x="210" y="-835.7" font-family="Consolas" font-size="11.00">+ current_couple_stress</text>
<text text-anchor="start" x="210" y="-823.7" font-family="Consolas" font-size="11.00">+ trial_curvature</text>
<text text-anchor="start" x="210" y="-811.7" font-family="Consolas" font-size="11.00">+ trial_couple_stress</text>
<text text-anchor="start" x="210" y="-799.7" font-family="Consolas" font-size="11.00">+ incre_curvature</text>
<text text-anchor="start" x="210" y="-787.7" font-family="Consolas" font-size="11.00">+ incre_couple_stress</text>
<text text-anchor="start" x="210" y="-775.7" font-family="Consolas" font-size="11.00">+ initial_couple_stiffness</text>
<text text-anchor="start" x="210" y="-763.7" font-family="Consolas" font-size="11.00">+ current_couple_stiffness</text>
<text text-anchor="start" x="210" y="-751.7" font-family="Consolas" font-size="11.00">+ trial_couple_stiffness</text>
<polyline fill="none" stroke="black" points="202,-744.5 394,-744.5 "/>
<text text-anchor="middle" x="298" y="-731.7" font-family="Consolas" font-size="11.00"> </text>
</a>
</g>
</g>
<!-- Node8&#45;&gt;Node6 -->
<g id="edge7" class="edge">
<title>Node8&#45;&gt;Node6</title>
<path fill="none" stroke="darkgreen" d="M298,-714.04C298,-693.68 298,-671.98 298,-651.55"/>
<polygon fill="none" stroke="darkgreen" points="294.5,-714.23 298,-724.23 301.5,-714.23 294.5,-714.23"/>
</g>
<!-- Node9 -->
<g id="node9" class="node">
<title>Node9</title>
<g id="a_node9"><a xlink:href="../../d0/d57/class_tag.html" target="_top" xlink:title="A base Tag class.">
<polygon fill="white" stroke="black" points="412.5,-688.5 412.5,-916.5 523.5,-916.5 523.5,-688.5 412.5,-688.5"/>
<text text-anchor="middle" x="468" y="-903.7" font-family="Consolas" font-size="11.00">Tag</text>
<polyline fill="none" stroke="black" points="412.5,-896.5 523.5,-896.5 "/>
<text text-anchor="middle" x="468" y="-883.7" font-family="Consolas" font-size="11.00"> </text>
<polyline fill="none" stroke="black" points="412.5,-876.5 523.5,-876.5 "/>
<text text-anchor="start" x="420.5" y="-863.7" font-family="Consolas" font-size="11.00">+ Tag()</text>
<text text-anchor="start" x="420.5" y="-851.7" font-family="Consolas" font-size="11.00">+ Tag()</text>
<text text-anchor="start" x="420.5" y="-839.7" font-family="Consolas" font-size="11.00">+ Tag()</text>
<text text-anchor="start" x="420.5" y="-827.7" font-family="Consolas" font-size="11.00">+ operator=()</text>
<text text-anchor="start" x="420.5" y="-815.7" font-family="Consolas" font-size="11.00">+ operator=()</text>
<text text-anchor="start" x="420.5" y="-803.7" font-family="Consolas" font-size="11.00">+ ~Tag()</text>
<text text-anchor="start" x="420.5" y="-791.7" font-family="Consolas" font-size="11.00">+ set_tag()</text>
<text text-anchor="start" x="420.5" y="-779.7" font-family="Consolas" font-size="11.00">+ get_tag()</text>
<text text-anchor="start" x="420.5" y="-767.7" font-family="Consolas" font-size="11.00">+ enable()</text>
<text text-anchor="start" x="420.5" y="-755.7" font-family="Consolas" font-size="11.00">+ disable()</text>
<text text-anchor="start" x="420.5" y="-743.7" font-family="Consolas" font-size="11.00">+ guard()</text>
<text text-anchor="start" x="420.5" y="-731.7" font-family="Consolas" font-size="11.00">+ unguard()</text>
<text text-anchor="start" x="420.5" y="-719.7" font-family="Consolas" font-size="11.00">+ is_active()</text>
<text text-anchor="start" x="420.5" y="-707.7" font-family="Consolas" font-size="11.00">+ is_guarded()</text>
<text text-anchor="start" x="420.5" y="-695.7" font-family="Consolas" font-size="11.00">+ print()</text>
</a>
</g>
</g>
<!-- Node9&#45;&gt;Node6 -->
<g id="edge8" class="edge">
<title>Node9&#45;&gt;Node6</title>
<path fill="none" stroke="midnightblue" d="M406.87,-693.64C405.58,-691.74 404.29,-689.85 403,-688 394.64,-675.99 385.39,-663.74 375.95,-651.82"/>
<polygon fill="none" stroke="midnightblue" points="404.04,-695.71 412.47,-702.12 409.88,-691.85 404.04,-695.71"/>
</g>
</g>
</svg>
        <g id="navigator" transform="translate(0 0)" fill="#404254">
                <rect fill="#f2f5e9" fill-opacity="0.5" stroke="#606060" stroke-width=".5" x="0" y="0" width="60" height="60"/>
                <use id="zoomplus" xlink:href="#zoomPlus" x="17" y="9" onmousedown="handleZoom(evt,'in')"/>
                <use id="zoomminus" xlink:href="#zoomMin" x="42" y="9" onmousedown="handleZoom(evt,'out')"/>
                <use id="reset" xlink:href="#resetDef" x="30" y="36" onmousedown="handleReset()"/>
                <g id="arrowUp" xlink:href="#dirArrow" transform="translate(30 24)" onmousedown="handlePan(0,-1)">
                  <use xlink:href="#rim" fill="#404040">
                        <set attributeName="fill" to="#808080" begin="arrowUp.mouseover" end="arrowUp.mouseout"/>
                  </use>
                  <path fill="none" stroke="white" stroke-width="1.5" d="M0,-3.0v7 M-2.5,-0.5L0,-3.0L2.5,-0.5"/>
                </g>
                <g id="arrowRight" xlink:href="#dirArrow" transform="rotate(90) translate(36 -43)" onmousedown="handlePan(1,0)">
                  <use xlink:href="#rim" fill="#404040">
                        <set attributeName="fill" to="#808080" begin="arrowRight.mouseover" end="arrowRight.mouseout"/>
                  </use>
                  <path fill="none" stroke="white" stroke-width="1.5" d="M0,-3.0v7 M-2.5,-0.5L0,-3.0L2.5,-0.5"/>
                </g>
                <g id="arrowDown" xlink:href="#dirArrow" transform="rotate(180) translate(-30 -48)" onmousedown="handlePan(0,1)">
                  <use xlink:href="#rim" fill="#404040">
                        <set attributeName="fill" to="#808080" begin="arrowDown.mouseover" end="arrowDown.mouseout"/>
                  </use>
                  <path fill="none" stroke="white" stroke-width="1.5" d="M0,-3.0v7 M-2.5,-0.5L0,-3.0L2.5,-0.5"/>
                </g>
                <g id="arrowLeft" xlink:href="#dirArrow" transform="rotate(270) translate(-36 17)" onmousedown="handlePan(-1,0)">
                  <use xlink:href="#rim" fill="#404040">
                        <set attributeName="fill" to="#808080" begin="arrowLeft.mouseover" end="arrowLeft.mouseout"/>
                  </use>
                  <path fill="none" stroke="white" stroke-width="1.5" d="M0,-3.0v7 M-2.5,-0.5L0,-3.0L2.5,-0.5"/>
                </g>
        </g>
        <svg viewBox="0 0 15 15" width="100%" height="30px" preserveAspectRatio="xMaxYMin meet">
         <g id="arrow_out" transform="scale(0.3 0.3)">
          <a xlink:href="class_exp_gurson1_d__inherit__graph_org.svg" target="_base">
           <rect id="button" ry="5" rx="5" y="6" x="6" height="38" width="38"
                fill="#f2f5e9" fill-opacity="0.5" stroke="#606060" stroke-width="1.0"/>
           <path id="arrow"
             d="M 11.500037,31.436501 C 11.940474,20.09759 22.043105,11.32322 32.158766,21.979434 L 37.068811,17.246167 C 37.068811,17.246167 37.088388,32 37.088388,32 L 22.160133,31.978069 C 22.160133,31.978069 26.997745,27.140456 26.997745,27.140456 C 18.528582,18.264221 13.291696,25.230495 11.500037,31.436501 z"
             style="fill:#404040;"/>
          </a>
         </g>
        </svg>
</svg>
