<svg xmlns="http://www.w3.org/2000/svg" xmlns:xlink="http://www.w3.org/1999/xlink" width="776" height="2900pt" viewBox="0 0 582 2900"><g class="graph" transform="translate(4 2896)"><title>Element::get_trial_displacement</title><g class="node"><title>Node1</title><a>
<path fill="#999" stroke="#666" d="M574-1430H436v32h138z"/>
<text x="444" y="-1417.2" font-family="Consolas" font-size="11">Element::get_trial</text>
<text x="505" y="-1405.2" font-family="Consolas" font-size="11" text-anchor="middle">_displacement</text>
</a></g><g class="node"><title>Node2</title><a xlink:href="../../d7/d11/class_shell_base.html#a40b3034fd8c6713dc066bb2f5671d256" target="_top">
<path fill="#fff" stroke="#666" d="M370-2828H218v32h152z"/>
<text x="226" y="-2815.2" font-family="Consolas" font-size="11">ShellBase::direction</text>
<text x="294" y="-2803.2" font-family="Consolas" font-size="11" text-anchor="middle">_cosine</text>
</a></g><g class="edge"><title>Node1-&gt;Node2</title><a>
<path fill="none" stroke="#63b8ff" d="M503.78-1440.52C502.01-1621.78 488.01-2674.09 400-2782c-7.79-9.55-18.39-16.18-29.88-20.77"/>
<path fill="#63b8ff" stroke="#63b8ff" d="m507.28-1440.33-3.41 10.03-3.59-9.96z"/>
</a></g><g class="node"><title>Node6</title><a xlink:href="../../db/dea/class_d_k_t_s3.html#a4a494be55f924e6373af81179decc388" target="_top">
<path fill="#fff" stroke="#666" d="M152-2778H0v20h152z"/>
<text x="76" y="-2765.2" font-family="Consolas" font-size="11" text-anchor="middle">DKTS3::update_status</text>
</a></g><g class="edge"><title>Node1-&gt;Node6</title><a>
<path fill="none" stroke="#63b8ff" d="M503.89-1440.25C502.88-1617.45 493.03-2634.63 400-2731c-33.13-34.31-163.28-39.45-247.92-38.97"/>
<path fill="#63b8ff" stroke="#63b8ff" d="m507.39-1440.26-3.45 10.02-3.55-9.98z"/>
</a></g><g class="node"><title>Node7</title><a xlink:href="../../d2/d2f/class_s4.html#a36daea0d3a286585334b098ae767866c" target="_top">
<path fill="#fff" stroke="#666" d="M141.5-2740h-131v20h131z"/>
<text x="76" y="-2727.2" font-family="Consolas" font-size="11" text-anchor="middle">S4::update_status</text>
</a></g><g class="edge"><title>Node1-&gt;Node7</title><a>
<path fill="none" stroke="#63b8ff" d="M503.86-1440.49C502.69-1616.1 492.02-2608.16 400-2701c-34.88-35.19-174.47-35.7-258.3-32.58"/>
<path fill="#63b8ff" stroke="#63b8ff" d="m507.36-1440.36-3.44 10.02-3.56-9.97z"/>
</a></g><g class="node"><title>Node8</title><a xlink:href="../../d8/de9/class_s_g_c_m_s.html#a50874687215ac50cdc312f98cf79f756" target="_top">
<path fill="#fff" stroke="#666" d="M152-2702H0v20h152z"/>
<text x="76" y="-2689.2" font-family="Consolas" font-size="11" text-anchor="middle">SGCMS::update_status</text>
</a></g><g class="edge"><title>Node1-&gt;Node8</title><a>
<path fill="none" stroke="#63b8ff" d="M503.85-1440.21C502.59-1612.93 491.45-2583.69 400-2673c-33.91-33.12-163.46-30.83-247.83-25.42"/>
<path fill="#63b8ff" stroke="#63b8ff" d="m507.35-1440.03-3.43 10.03-3.57-9.98z"/>
</a></g><g class="node"><title>Node9</title><a xlink:href="../../de/dec/class_element_example.html#aa8ce40728e02f8fe744eeca7b200aa56" target="_top">
<path fill="#fff" stroke="#666" d="M376.5-2664h-165v32h165z"/>
<text x="219.5" y="-2651.2" font-family="Consolas" font-size="11">ElementExample::update</text>
<text x="294" y="-2639.2" font-family="Consolas" font-size="11" text-anchor="middle">_status</text>
</a></g><g class="edge"><title>Node1-&gt;Node9</title><a>
<path fill="none" stroke="#63b8ff" d="M503.55-1440.29C500.47-1608.54 479.96-2530.24 400-2623c-6.36-7.38-14.47-12.79-23.36-16.74"/>
<path fill="#63b8ff" stroke="#63b8ff" d="m507.06-1440.17-3.32 10.06-3.68-9.94z"/>
</a></g><g class="node"><title>Node10</title><a xlink:href="../../da/d74/class_b21.html#a03890a0b1bc09ce507ba2344620e51b0" target="_top">
<path fill="#fff" stroke="#666" d="M363-2614H225v20h138z"/>
<text x="294" y="-2601.2" font-family="Consolas" font-size="11" text-anchor="middle">B21::update_status</text>
</a></g><g class="edge"><title>Node1-&gt;Node10</title><a>
<path fill="none" stroke="#63b8ff" d="M503.54-1440.29C500.41-1605.61 479.89-2497.53 400-2585c-9.62-10.53-22.95-16.45-36.89-19.57"/>
<path fill="#63b8ff" stroke="#63b8ff" d="m507.04-1440.12-3.31 10.06-3.68-9.93z"/>
</a></g><g class="node"><title>Node11</title><a xlink:href="../../d7/d7e/class_b21_e.html#ab3b6ebf19e37a84af92d71400e42ecf1" target="_top">
<path fill="#fff" stroke="#666" d="M366.5-2576h-145v20h145z"/>
<text x="294" y="-2563.2" font-family="Consolas" font-size="11" text-anchor="middle">B21E::update_status</text>
</a></g><g class="edge"><title>Node1-&gt;Node11</title><a>
<path fill="none" stroke="#63b8ff" d="M503.45-1440.46C499.86-1603.04 477.28-2462.64 400-2547c-8.82-9.63-20.75-15.4-33.4-18.7"/>
<path fill="#63b8ff" stroke="#63b8ff" d="m506.96-1440.44-3.29 10.07-3.71-9.92z"/>
</a></g><g class="node"><title>Node12</title><a xlink:href="../../d8/d3d/class_b21_h.html#a922c06747be4f956a8c0c25ca08cc52a" target="_top">
<path fill="#fff" stroke="#666" d="M366.5-2538h-145v20h145z"/>
<text x="294" y="-2525.2" font-family="Consolas" font-size="11" text-anchor="middle">B21H::update_status</text>
</a></g><g class="edge"><title>Node1-&gt;Node12</title><a>
<path fill="none" stroke="#63b8ff" d="M503.36-1440.55C499.3-1600.13 474.69-2427.73 400-2509c-8.84-9.62-20.77-15.38-33.42-18.68"/>
<path fill="#63b8ff" stroke="#63b8ff" d="m506.87-1440.32-3.25 10.09-3.75-9.91z"/>
</a></g><g class="node"><title>Node13</title><a xlink:href="../../df/daa/class_b31.html#a39e2ca7509069e05e6dd90304797ce74" target="_top">
<path fill="#fff" stroke="#666" d="M363-2500H225v20h138z"/>
<text x="294" y="-2487.2" font-family="Consolas" font-size="11" text-anchor="middle">B31::update_status</text>
</a></g><g class="edge"><title>Node1-&gt;Node13</title><a>
<path fill="none" stroke="#63b8ff" d="M503.28-1440.12C498.77-1595.37 472.18-2392.73 400-2471c-9.67-10.49-23.02-16.38-36.97-19.5"/>
<path fill="#63b8ff" stroke="#63b8ff" d="m506.78-1440.17-3.21 10.1-3.79-9.9z"/>
</a></g><g class="node"><title>Node14</title><a xlink:href="../../db/d7c/class_b31_o_s.html#a8ab786fcbc9ccb5a2d433b463940bd26" target="_top">
<path fill="#fff" stroke="#666" d="M370-2462H218v20h152z"/>
<text x="294" y="-2449.2" font-family="Consolas" font-size="11" text-anchor="middle">B31OS::update_status</text>
</a></g><g class="edge"><title>Node1-&gt;Node14</title><a>
<path fill="none" stroke="#63b8ff" d="M503.16-1440.6c-5.05-153.05-33.63-917.28-103.16-992.4-8.05-8.7-18.64-14.24-30-17.65"/>
<path fill="#63b8ff" stroke="#63b8ff" d="m506.67-1440.39-3.17 10.11-3.82-9.88z"/>
</a></g><g class="node"><title>Node15</title><a xlink:href="../../d7/d36/class_e_b21.html#afdc9a2ceeea77958924dd55c6e068775" target="_top">
<path fill="#fff" stroke="#666" d="M366.5-2424h-145v20h145z"/>
<text x="294" y="-2411.2" font-family="Consolas" font-size="11" text-anchor="middle">EB21::update_status</text>
</a></g><g class="edge"><title>Node1-&gt;Node15</title><a>
<path fill="none" stroke="#63b8ff" d="M503.07-1440.08C497.56-1588.53 467.03-2322.86 400-2395c-8.83-9.5-20.68-15.22-33.24-18.53"/>
<path fill="#63b8ff" stroke="#63b8ff" d="m506.57-1440.18-3.13 10.12-3.86-9.86z"/>
</a></g><g class="node"><title>Node16</title><a xlink:href="../../dc/dff/class_e_b31_o_s.html#a441461b2932ca05029b8dcb511bf2cee" target="_top">
<path fill="#fff" stroke="#666" d="M373-2386H215v20h158z"/>
<text x="294" y="-2373.2" font-family="Consolas" font-size="11" text-anchor="middle">EB31OS::update_status</text>
</a></g><g class="edge"><title>Node1-&gt;Node16</title><a>
<path fill="none" stroke="#63b8ff" d="M502.94-1440.43C496.87-1586.19 464.41-2287.97 400-2357c-7.33-7.86-16.73-13.13-26.88-16.58"/>
<path fill="#63b8ff" stroke="#63b8ff" d="m506.45-1440.32-3.09 10.13-3.9-9.84z"/>
</a></g><g class="node"><title>Node17</title><a xlink:href="../../db/d7d/class_f21.html#ae09102bd5704c77d2a1e1c03df27cbfd" target="_top">
<path fill="#fff" stroke="#666" d="M363-2348H225v20h138z"/>
<text x="294" y="-2335.2" font-family="Consolas" font-size="11" text-anchor="middle">F21::update_status</text>
</a></g><g class="edge"><title>Node1-&gt;Node17</title><a>
<path fill="none" stroke="#63b8ff" d="M502.82-1440.26C496.22-1582.13 461.87-2253 400-2319c-9.69-10.34-22.97-16.2-36.82-19.33"/>
<path fill="#63b8ff" stroke="#63b8ff" d="m506.32-1440.42-3.04 10.15-3.95-9.83z"/>
</a></g><g class="node"><title>Node18</title><a xlink:href="../../d1/dd4/class_f21_h.html#acd00770d7109a89e22ba19a20ff70bc8" target="_top">
<path fill="#fff" stroke="#666" d="M366.5-2310h-145v20h145z"/>
<text x="294" y="-2297.2" font-family="Consolas" font-size="11" text-anchor="middle">F21H::update_status</text>
</a></g><g class="edge"><title>Node1-&gt;Node18</title><a>
<path fill="none" stroke="#63b8ff" d="M502.67-1440.46c-7.19-138.65-43.4-777.62-102.67-840.54-8.89-9.44-20.77-15.14-33.34-18.43"/>
<path fill="#63b8ff" stroke="#63b8ff" d="m506.18-1440.48-2.99 10.17-4-9.81z"/>
</a></g><g class="node"><title>Node19</title><a xlink:href="../../de/d6c/class_f31.html#a9057421dc719a23f33d9a058ca10c74f" target="_top">
<path fill="#fff" stroke="#666" d="M363-2272H225v20h138z"/>
<text x="294" y="-2259.2" font-family="Consolas" font-size="11" text-anchor="middle">F31::update_status</text>
</a></g><g class="edge"><title>Node1-&gt;Node19</title><a>
<path fill="none" stroke="#63b8ff" d="M502.51-1440.56C494.72-1575.73 456.7-2183.14 400-2243c-9.75-10.29-23.04-16.13-36.9-19.25"/>
<path fill="#63b8ff" stroke="#63b8ff" d="m506.02-1440.49-2.92 10.19-4.06-9.79z"/>
</a></g><g class="node"><title>Node20</title><a xlink:href="../../dd/dfa/class_m_v_l_e_m.html#a8558b3193fd90021a73ceed45faf0bf2" target="_top">
<path fill="#fff" stroke="#666" d="M370-2234H218v20h152z"/>
<text x="294" y="-2221.2" font-family="Consolas" font-size="11" text-anchor="middle">MVLEM::update_status</text>
</a></g><g class="edge"><title>Node1-&gt;Node20</title><a>
<path fill="none" stroke="#63b8ff" d="M504.51-1440.28c1.86-124.29 3.19-651.69-104.51-764.72-8.11-8.52-18.66-13.98-29.94-17.37"/>
<path fill="#63b8ff" stroke="#63b8ff" d="m508.01-1440.1-3.66 9.95-3.34-10.06z"/>
</a></g><g class="node"><title>Node21</title><a xlink:href="../../d5/d6d/class_n_m_b21.html#a60e94179b61ae79c9a7b04de3680b6fc" target="_top">
<path fill="#fff" stroke="#666" d="M370-2196H218v20h152z"/>
<text x="294" y="-2183.2" font-family="Consolas" font-size="11" text-anchor="middle">NMB21::update_status</text>
</a></g><g class="edge"><title>Node1-&gt;Node21</title><a>
<path fill="none" stroke="#63b8ff" d="M504.32-1440.16c.9-120.4-1.68-619.82-104.32-726.84-8.14-8.49-18.71-13.94-29.99-17.33"/>
<path fill="#63b8ff" stroke="#63b8ff" d="m507.82-1439.99-3.59 9.97-3.41-10.03z"/>
</a></g><g class="node"><title>Node22</title><a xlink:href="../../d2/dcd/class_n_m_b21_e.html#a6b506ca29e98de711bd13626a8bc5d4f" target="_top">
<path fill="#fff" stroke="#666" d="M373-2158H215v20h158z"/>
<text x="294" y="-2145.2" font-family="Consolas" font-size="11" text-anchor="middle">NMB21E::update_status</text>
</a></g><g class="edge"><title>Node1-&gt;Node22</title><a>
<path fill="none" stroke="#63b8ff" d="M504.11-1440.33c-.1-116.91-6.6-587.72-104.11-688.67-7.4-7.66-16.77-12.84-26.86-16.26"/>
<path fill="#63b8ff" stroke="#63b8ff" d="m507.61-1440.14-3.51 10-3.49-10.01z"/>
</a></g><g class="node"><title>Node23</title><a xlink:href="../../d5/db6/class_n_m_b31.html#a7a7608e9f27344fc7223c3b46010ec77" target="_top">
<path fill="#fff" stroke="#666" d="M370-2120H218v20h152z"/>
<text x="294" y="-2107.2" font-family="Consolas" font-size="11" text-anchor="middle">NMB31::update_status</text>
</a></g><g class="edge"><title>Node1-&gt;Node23</title><a>
<path fill="none" stroke="#63b8ff" d="M503.87-1440.37C502.75-1553.48 492.43-1996.08 400-2091c-8.14-8.36-18.64-13.76-29.83-17.14"/>
<path fill="#63b8ff" stroke="#63b8ff" d="m507.37-1440.22-3.42 10.03-3.58-9.97z"/>
</a></g><g class="node"><title>Node24</title><a xlink:href="../../de/dba/class_c3_d20.html#a62607cefd01c6986d32c6b2590eae0c7" target="_top">
<path fill="#fff" stroke="#666" d="M370-2082H218v20h152z"/>
<text x="294" y="-2069.2" font-family="Consolas" font-size="11" text-anchor="middle">C3D20::update_status</text>
</a></g><g class="edge"><title>Node1-&gt;Node24</title><a>
<path fill="none" stroke="#63b8ff" d="M503.61-1440.29C501.42-1549.27 487.39-1964.05 400-2053c-8.18-8.33-18.69-13.7-29.89-17.08"/>
<path fill="#63b8ff" stroke="#63b8ff" d="m507.11-1440.23-3.32 10.06-3.68-9.93z"/>
</a></g><g class="node"><title>Node25</title><a xlink:href="../../d6/d66/class_c3_d4.html#a94ac6ee0683569f29ca2dea8e14cbee7" target="_top">
<path fill="#fff" stroke="#666" d="M366.5-2044h-145v20h145z"/>
<text x="294" y="-2031.2" font-family="Consolas" font-size="11" text-anchor="middle">C3D4::update_status</text>
</a></g><g class="edge"><title>Node1-&gt;Node25</title><a>
<path fill="none" stroke="#63b8ff" d="M503.32-1440.07c-3.29-104.56-20.93-491.9-103.32-574.93-9.07-9.14-20.95-14.72-33.45-17.99"/>
<path fill="#63b8ff" stroke="#63b8ff" d="m506.82-1440.16-3.2 10.1-3.8-9.89z"/>
</a></g><g class="node"><title>Node26</title><a xlink:href="../../d4/d8c/class_c3_d8.html#a47e35a8d3b4ab9175cacea501723160e" target="_top">
<path fill="#fff" stroke="#666" d="M366.5-2006h-145v20h145z"/>
<text x="294" y="-1993.2" font-family="Consolas" font-size="11" text-anchor="middle">C3D8::update_status</text>
</a></g><g class="edge"><title>Node1-&gt;Node26</title><a>
<path fill="none" stroke="#63b8ff" d="M502.97-1440.35C498.5-1541.07 477.28-1900 400-1977c-9.05-9.02-20.86-14.56-33.27-17.84"/>
<path fill="#63b8ff" stroke="#63b8ff" d="m506.48-1440.28-3.07 10.14-3.92-9.84z"/>
</a></g><g class="node"><title>Node27</title><a xlink:href="../../d8/d52/class_c3_d8_i.html#a27ad83171ca4149925d2f6c9763a3e11" target="_top">
<path fill="#fff" stroke="#666" d="M370-1968H218v20h152z"/>
<text x="294" y="-1955.2" font-family="Consolas" font-size="11" text-anchor="middle">C3D8I::update_status</text>
</a></g><g class="edge"><title>Node1-&gt;Node27</title><a>
<path fill="none" stroke="#63b8ff" d="M502.6-1440.13c-5.67-96.06-30.28-427.74-102.6-498.87-8.25-8.12-18.74-13.41-29.87-16.76"/>
<path fill="#63b8ff" stroke="#63b8ff" d="m506.1-1440.29-2.92 10.19-4.07-9.79z"/>
</a></g><g class="node"><title>Node28</title><a xlink:href="../../d9/d51/class_c_i_n3_d8.html#a5ef6a9bbe49c5742ac6287d361e7bdc2" target="_top">
<path fill="#fff" stroke="#666" d="M373-1930H215v20h158z"/>
<text x="294" y="-1917.2" font-family="Consolas" font-size="11" text-anchor="middle">CIN3D8::update_status</text>
</a></g><g class="edge"><title>Node1-&gt;Node28</title><a>
<path fill="none" stroke="#63b8ff" d="M502.15-1440.31c-6.98-91.75-34.88-395.5-102.15-460.69-7.52-7.28-16.83-12.28-26.78-15.64"/>
<path fill="#63b8ff" stroke="#63b8ff" d="m505.66-1440.43-2.76 10.23-4.23-9.72z"/>
</a></g><g class="node"><title>Node29</title><a xlink:href="../../d7/da1/class_d_c3_d4.html#a65d50de6da0a8b72f73d68cfe18b81fb" target="_top">
<path fill="#fff" stroke="#666" d="M370-1892H218v20h152z"/>
<text x="294" y="-1879.2" font-family="Consolas" font-size="11" text-anchor="middle">DC3D4::update_status</text>
</a></g><g class="edge"><title>Node1-&gt;Node29</title><a>
<path fill="none" stroke="#63b8ff" d="M501.62-1440.52c-8.37-87.26-39.39-363.2-101.62-422.48-8.32-7.92-18.76-13.12-29.82-16.45"/>
<path fill="#63b8ff" stroke="#63b8ff" d="m505.12-1440.68-2.55 10.28-4.42-9.62z"/>
</a></g><g class="node"><title>Node30</title><a xlink:href="../../d1/d82/class_d_c3_d8.html#a491b01fea72a704958de520ed9a0e448" target="_top">
<path fill="#fff" stroke="#666" d="M370-1854H218v20h152z"/>
<text x="294" y="-1841.2" font-family="Consolas" font-size="11" text-anchor="middle">DC3D8::update_status</text>
</a></g><g class="edge"><title>Node1-&gt;Node30</title><a>
<path fill="none" stroke="#63b8ff" d="M501.02-1440.43c-9.79-82.22-43.73-331.1-101.02-384.57-8.4-7.84-18.88-12.99-29.96-16.31"/>
<path fill="#63b8ff" stroke="#63b8ff" d="m504.51-1440.74-2.31 10.34-4.64-9.53z"/>
</a></g><g class="node"><title>Node31</title><a xlink:href="../../d0/d1a/class_element_template.html#a6b91174bc2271830d8f234f30cbd5f03" xlink:title="Now we handle the status update method. We get trial displacement via build-in method and pass trial ..." target="_top">
<path fill="#fff" stroke="#666" d="M380-1816H208v32h172z"/>
<text x="216" y="-1803.2" font-family="Consolas" font-size="11">ElementTemplate::update</text>
<text x="294" y="-1791.2" font-family="Consolas" font-size="11" text-anchor="middle">_status</text>
</a></g><g class="edge"><title>Node1-&gt;Node31</title><a>
<path fill="none" stroke="#63b8ff" d="M504.78-1440.2c.46-66.39-8.01-242.45-104.78-334.8-5.83-5.56-12.66-9.96-20-13.43"/>
<path fill="#63b8ff" stroke="#63b8ff" d="m508.28-1440.12-3.65 9.95-3.35-10.05z"/>
</a></g><g class="node"><title>Node32</title><a xlink:href="../../d8/d0a/class_c_a_x4.html#a425b89d37140b0b07e1c5211a1b031be" target="_top">
<path fill="#fff" stroke="#666" d="M366.5-1766h-145v20h145z"/>
<text x="294" y="-1753.2" font-family="Consolas" font-size="11" text-anchor="middle">CAX4::update_status</text>
</a></g><g class="edge"><title>Node1-&gt;Node32</title><a>
<path fill="none" stroke="#63b8ff" d="M504.03-1440.26c-1.46-62.02-14.34-218.21-104.03-296.74-9.41-8.24-21.15-13.45-33.35-16.66"/>
<path fill="#63b8ff" stroke="#63b8ff" d="m507.53-1440.2-3.35 10.05-3.65-9.95z"/>
</a></g><g class="node"><title>Node33</title><a xlink:href="../../db/dcf/class_c_s_m_q.html#af8413daeaae66fa4221f379e392fe970" target="_top">
<path fill="#fff" stroke="#666" d="M366.5-1728h-145v20h145z"/>
<text x="294" y="-1715.2" font-family="Consolas" font-size="11" text-anchor="middle">CSMQ::update_status</text>
</a></g><g class="edge"><title>Node1-&gt;Node33</title><a>
<path fill="none" stroke="#63b8ff" d="M502.73-1440.32c-4.24-56.81-22.68-191.26-102.73-258.68-9.49-8-21.21-13.11-33.34-16.3"/>
<path fill="#63b8ff" stroke="#63b8ff" d="m506.22-1440.54-2.83 10.2-4.15-9.74z"/>
</a></g><g class="node"><title>Node34</title><a xlink:href="../../d6/d4f/class_c_s_m_q4.html#ae10eb2dacfd8ec6938b5cb63180e874b" target="_top">
<path fill="#fff" stroke="#666" d="M370-1690H218v20h152z"/>
<text x="294" y="-1677.2" font-family="Consolas" font-size="11" text-anchor="middle">CSMQ4::update_status</text>
</a></g><g class="edge"><title>Node1-&gt;Node34</title><a>
<path fill="none" stroke="#63b8ff" d="M501.08-1440.32c-7.18-51.2-30.56-164.16-101.08-220.68-8.67-6.95-19.05-11.69-29.85-14.87"/>
<path fill="#63b8ff" stroke="#63b8ff" d="m504.59-1440.46-2.18 10.37-4.76-9.46z"/>
</a></g><g class="node"><title>Node35</title><a xlink:href="../../de/da1/class_c_s_m_q8.html#ad3ab6a4ef246cf99cae7c7ecc791b39f" target="_top">
<path fill="#fff" stroke="#666" d="M370-1652H218v20h152z"/>
<text x="294" y="-1639.2" font-family="Consolas" font-size="11" text-anchor="middle">CSMQ8::update_status</text>
</a></g><g class="edge"><title>Node1-&gt;Node35</title><a>
<path fill="none" stroke="#63b8ff" d="M498.92-1440.1c-10.21-45.05-37.71-136.94-98.92-182.9-8.81-6.62-19.2-11.19-29.96-14.3"/>
<path fill="#63b8ff" stroke="#63b8ff" d="m502.37-1440.74-1.32 10.52-5.53-9.04z"/>
</a></g><g class="node"><title>Node36</title><a xlink:href="../../da/d59/class_c_s_m_t3.html#a0e4e488dac134a502b2fa138a7a3d399" target="_top">
<path fill="#fff" stroke="#666" d="M370-1614H218v20h152z"/>
<text x="294" y="-1601.2" font-family="Consolas" font-size="11" text-anchor="middle">CSMT3::update_status</text>
</a></g><g class="edge"><title>Node1-&gt;Node36</title><a>
<path fill="none" stroke="#63b8ff" d="M495.9-1439.98c-13.38-38.33-43.93-109.33-95.9-145.02-8.93-6.13-19.27-10.46-29.9-13.48"/>
<path fill="#63b8ff" stroke="#63b8ff" d="m499.35-1440.69-.13 10.59-6.5-8.36z"/>
</a></g><g class="node"><title>Node37</title><a xlink:href="../../d0/d2a/class_c_s_m_t6.html#a1239ea9dd6f8ef34f7d1cedd32e60b5e" target="_top">
<path fill="#fff" stroke="#666" d="M370-1576H218v20h152z"/>
<text x="294" y="-1563.2" font-family="Consolas" font-size="11" text-anchor="middle">CSMT6::update_status</text>
</a></g><g class="edge"><title>Node1-&gt;Node37</title><a>
<path fill="none" stroke="#63b8ff" d="M491.54-1439.44c-16.47-30.75-48.52-81.59-91.54-107.56-9.12-5.5-19.44-9.5-29.96-12.37"/>
<path fill="#63b8ff" stroke="#63b8ff" d="m494.82-1440.71 1.51 10.49-7.72-7.26z"/>
</a></g><g class="node"><title>Node38</title><a xlink:href="../../d1/db2/class_allman.html#a1bf415e9bfa4f7858df7326da0cfb5f9" target="_top">
<path fill="#fff" stroke="#666" d="M373-1538H215v20h158z"/>
<text x="294" y="-1525.2" font-family="Consolas" font-size="11" text-anchor="middle">Allman::update_status</text>
</a></g><g class="edge"><title>Node1-&gt;Node38</title><a>
<path fill="none" stroke="#63b8ff" d="M485.04-1437.72c-19.06-22.12-50.49-54.18-85.04-71.28-8.38-4.15-17.55-7.4-26.85-9.95"/>
<path fill="#63b8ff" stroke="#63b8ff" d="m487.72-1439.97 3.76 9.9-9.12-5.4z"/>
</a></g><g class="node"><title>Node39</title><a xlink:href="../../d4/da8/class_g_q12.html#a4525625e372ffaf94d5b3069f0f43d6d" target="_top">
<path fill="#fff" stroke="#666" d="M366.5-1500h-145v20h145z"/>
<text x="294" y="-1487.2" font-family="Consolas" font-size="11" text-anchor="middle">GQ12::update_status</text>
</a></g><g class="edge"><title>Node1-&gt;Node39</title><a>
<path fill="none" stroke="#63b8ff" d="M471.19-1435.56c-19.85-12.13-46.11-26.56-71.19-35.44-10.57-3.74-22-6.77-33.31-9.22"/>
<path fill="#63b8ff" stroke="#63b8ff" d="m473.2-1438.44 6.64 8.26-10.34-2.32z"/>
</a></g><g class="node"><title>Node40</title><a xlink:href="../../d2/daf/class_s_g_c_m_q.html#a22f38c97c1a6c0538b69bcd7d907b5a5" target="_top">
<path fill="#fff" stroke="#666" d="M370-1462H218v20h152z"/>
<text x="294" y="-1449.2" font-family="Consolas" font-size="11" text-anchor="middle">SGCMQ::update_status</text>
</a></g><g class="edge"><title>Node1-&gt;Node40</title><a>
<path fill="none" stroke="#63b8ff" d="M425.64-1428.33c-8.65-1.58-17.33-3.16-25.64-4.67-16.04-2.92-33.46-6.07-49.41-8.96"/>
<path fill="#63b8ff" stroke="#63b8ff" d="m426.54-1431.72 9.21 5.23-10.46 1.65z"/>
</a></g><g class="node"><title>Node41</title><a xlink:href="../../da/d39/class_c_i_n_p4.html#aa47cb17d8f24ba2c0bd336b7c5646b28" target="_top">
<path fill="#fff" stroke="#666" d="M370-1424H218v20h152z"/>
<text x="294" y="-1411.2" font-family="Consolas" font-size="11" text-anchor="middle">CINP4::update_status</text>
</a></g><g class="edge"><title>Node1-&gt;Node41</title><a>
<path fill="none" stroke="#63b8ff" d="M425.63-1414h-55.35"/>
<path fill="#63b8ff" stroke="#63b8ff" d="m425.85-1417.5 10 3.5-10 3.5z"/>
</a></g><g class="node"><title>Node42</title><a xlink:href="../../db/d61/class_p_s.html#a6a6e53e17bd3acae0e840ac4f0607d45" target="_top">
<path fill="#fff" stroke="#666" d="M359.5-1386h-131v20h131z"/>
<text x="294" y="-1373.2" font-family="Consolas" font-size="11" text-anchor="middle">PS::update_status</text>
</a></g><g class="edge"><title>Node1-&gt;Node42</title><a>
<path fill="none" stroke="#63b8ff" d="M425.64-1399.67c-8.65 1.58-17.33 3.16-25.64 4.67-16.04 2.92-33.46 6.07-49.41 8.96"/>
<path fill="#63b8ff" stroke="#63b8ff" d="m425.29-1403.16 10.46 1.65-9.21 5.23z"/>
</a></g><g class="node"><title>Node43</title><a xlink:href="../../dd/d4f/class_d_c_p4.html#aa05275835840b01e21715bede813538f" target="_top">
<path fill="#fff" stroke="#666" d="M366.5-1348h-145v20h145z"/>
<text x="294" y="-1335.2" font-family="Consolas" font-size="11" text-anchor="middle">DCP4::update_status</text>
</a></g><g class="edge"><title>Node1-&gt;Node43</title><a>
<path fill="none" stroke="#63b8ff" d="M471.19-1392.44c-19.85 12.13-46.11 26.56-71.19 35.44-10.57 3.74-22 6.77-33.31 9.22"/>
<path fill="#63b8ff" stroke="#63b8ff" d="m469.5-1395.5 10.34-2.32-6.64 8.26z"/>
</a></g><g class="node"><title>Node44</title><a xlink:href="../../dd/d49/class_c_p3.html#a2409a503ce301ff2e787fefa774d329a" target="_top">
<path fill="#fff" stroke="#666" d="M363-1310H225v20h138z"/>
<text x="294" y="-1297.2" font-family="Consolas" font-size="11" text-anchor="middle">CP3::update_status</text>
</a></g><g class="edge"><title>Node1-&gt;Node44</title><a>
<path fill="none" stroke="#63b8ff" d="M485.04-1390.28c-19.06 22.12-50.49 54.18-85.04 71.28-11.37 5.63-24.18 9.61-36.83 12.41"/>
<path fill="#63b8ff" stroke="#63b8ff" d="m482.36-1392.53 9.12-5.4-3.76 9.9z"/>
</a></g><g class="node"><title>Node45</title><a xlink:href="../../d8/d8f/class_c_p4.html#aacca37853cf7991f6b540d0902f76a59" target="_top">
<path fill="#fff" stroke="#666" d="M363-1272H225v20h138z"/>
<text x="294" y="-1259.2" font-family="Consolas" font-size="11" text-anchor="middle">CP4::update_status</text>
</a></g><g class="edge"><title>Node1-&gt;Node45</title><a>
<path fill="none" stroke="#63b8ff" d="M491.54-1388.56c-16.47 30.75-48.52 81.59-91.54 107.56-11.1 6.7-23.98 11.16-36.84 14.1"/>
<path fill="#63b8ff" stroke="#63b8ff" d="m488.61-1390.52 7.72-7.26-1.51 10.49z"/>
</a></g><g class="node"><title>Node46</title><a xlink:href="../../d8/d42/class_c_p4_i.html#ade5f4e6c68593af9efbe2a111471dc6d" target="_top">
<path fill="#fff" stroke="#666" d="M366.5-1234h-145v20h145z"/>
<text x="294" y="-1221.2" font-family="Consolas" font-size="11" text-anchor="middle">CP4I::update_status</text>
</a></g><g class="edge"><title>Node1-&gt;Node46</title><a>
<path fill="none" stroke="#63b8ff" d="M495.9-1388.02c-13.38 38.33-43.93 109.33-95.9 145.02-9.93 6.82-21.58 11.4-33.45 14.44"/>
<path fill="#63b8ff" stroke="#63b8ff" d="m492.72-1389.54 6.5-8.36.13 10.59z"/>
</a></g><g class="node"><title>Node47</title><a xlink:href="../../dd/df3/class_c_p5.html#a02a3aabeab122b8bedcb5991c72cadc0" target="_top">
<path fill="#fff" stroke="#666" d="M363-1196H225v20h138z"/>
<text x="294" y="-1183.2" font-family="Consolas" font-size="11" text-anchor="middle">CP5::update_status</text>
</a></g><g class="edge"><title>Node1-&gt;Node47</title><a>
<path fill="none" stroke="#63b8ff" d="M498.92-1387.9c-10.21 45.05-37.71 136.94-98.92 182.9-10.67 8.01-23.64 13.02-36.78 16.08"/>
<path fill="#63b8ff" stroke="#63b8ff" d="m495.52-1388.74 5.53-9.04 1.32 10.52z"/>
</a></g><g class="node"><title>Node48</title><a xlink:href="../../d2/db0/class_c_p6.html#ab85ed43bc74b2d4a8a5a6d7fd381f439" target="_top">
<path fill="#fff" stroke="#666" d="M363-1158H225v20h138z"/>
<text x="294" y="-1145.2" font-family="Consolas" font-size="11" text-anchor="middle">CP6::update_status</text>
</a></g><g class="edge"><title>Node1-&gt;Node48</title><a>
<path fill="none" stroke="#63b8ff" d="M501.08-1387.68c-7.18 51.2-30.56 164.16-101.08 220.68-10.55 8.46-23.62 13.64-36.92 16.72"/>
<path fill="#63b8ff" stroke="#63b8ff" d="m497.65-1388.45 4.76-9.46 2.18 10.37z"/>
</a></g><g class="node"><title>Node49</title><a xlink:href="../../d6/dc6/class_c_p7.html#a2aacf530d67d9cacfaea29f0cfdf8ac3" target="_top">
<path fill="#fff" stroke="#666" d="M363-1120H225v20h138z"/>
<text x="294" y="-1107.2" font-family="Consolas" font-size="11" text-anchor="middle">CP7::update_status</text>
</a></g><g class="edge"><title>Node1-&gt;Node49</title><a>
<path fill="none" stroke="#63b8ff" d="M502.73-1387.68c-4.24 56.81-22.68 191.26-102.73 258.68-10.41 8.77-23.5 14.07-36.87 17.17"/>
<path fill="#63b8ff" stroke="#63b8ff" d="m499.24-1387.92 4.15-9.74 2.83 10.2z"/>
</a></g><g class="node"><title>Node50</title><a xlink:href="../../d0/de0/class_c_p8.html#aad3350ff334f3c855cd6be24846c21e2" target="_top">
<path fill="#fff" stroke="#666" d="M363-1082H225v20h138z"/>
<text x="294" y="-1069.2" font-family="Consolas" font-size="11" text-anchor="middle">CP8::update_status</text>
</a></g><g class="edge"><title>Node1-&gt;Node50</title><a>
<path fill="none" stroke="#63b8ff" d="M504.03-1387.74c-1.46 62.02-14.34 218.21-104.03 296.74-10.31 9.03-23.44 14.43-36.89 17.54"/>
<path fill="#63b8ff" stroke="#63b8ff" d="m500.53-1387.9 3.65-9.95 3.35 10.05z"/>
</a></g><g class="node"><title>Node51</title><a xlink:href="../../d1/db2/class_p_c_p_e4_d_c.html#a75202abfc31ad5abac3db111ee58113b" target="_top">
<path fill="#fff" stroke="#666" d="M376.5-1044h-165v20h165z"/>
<text x="294" y="-1031.2" font-family="Consolas" font-size="11" text-anchor="middle">PCPE4DC::update_status</text>
</a></g><g class="edge"><title>Node1-&gt;Node51</title><a>
<path fill="none" stroke="#63b8ff" d="M500.08-1387.84C488.3-1312.75 450.86-1098.94 400-1053c-6.74 6.08-14.74 10.54-23.28 13.76"/>
<path fill="#63b8ff" stroke="#63b8ff" d="m496.65-1388.53 4.98-9.35 1.94 10.42z"/>
</a></g><g class="node"><title>Node52</title><a xlink:href="../../db/d53/class_p_c_p_e4_u_c.html#aa4febe65bbfd3d1c065ee953bc956c89" target="_top">
<path fill="#fff" stroke="#666" d="M376.5-1006h-165v20h165z"/>
<text x="294" y="-993.2" font-family="Consolas" font-size="11" text-anchor="middle">PCPE4UC::update_status</text>
</a></g><g class="edge"><title>Node1-&gt;Node52</title><a>
<path fill="none" stroke="#63b8ff" d="M500.78-1387.29c-10.32 80.87-45.12 320.7-100.78 372.29-6.73 6.23-14.78 10.77-23.39 14.02"/>
<path fill="#63b8ff" stroke="#63b8ff" d="m497.35-1388.13 4.72-9.48 2.23 10.35z"/>
</a></g><g class="node"><title>Node53</title><a xlink:href="../../d9/d88/class_p_c_p_e8_d_c.html#a8fa07efcdaf37173050b6b30c5431681" target="_top">
<path fill="#fff" stroke="#666" d="M376.5-968h-165v20h165z"/>
<text x="294" y="-955.2" font-family="Consolas" font-size="11" text-anchor="middle">PCPE8DC::update_status</text>
</a></g><g class="edge"><title>Node1-&gt;Node53</title><a>
<path fill="none" stroke="#63b8ff" d="M501.45-1387.6c-8.79 85.57-40.76 353.14-101.45 410.6-6.66 6.3-14.67 10.88-23.26 14.16"/>
<path fill="#63b8ff" stroke="#63b8ff" d="m497.97-1387.96 4.49-9.6 2.48 10.3z"/>
</a></g><g class="node"><title>Node54</title><a xlink:href="../../d4/ddd/class_p_c_p_e8_u_c.html#a0ba3ea38fbecbc287c1dbd51f8fc8afa" target="_top">
<path fill="#fff" stroke="#666" d="M376.5-930h-165v20h165z"/>
<text x="294" y="-917.2" font-family="Consolas" font-size="11" text-anchor="middle">PCPE8UC::update_status</text>
</a></g><g class="edge"><title>Node1-&gt;Node54</title><a>
<path fill="none" stroke="#63b8ff" d="M502.01-1387.76c-7.4 90.19-36.3 385.41-102.01 448.76-6.67 6.43-14.74 11.07-23.41 14.38"/>
<path fill="#63b8ff" stroke="#63b8ff" d="m498.54-1388.25 4.28-9.69 2.69 10.24z"/>
</a></g><g class="node"><title>Node55</title><a xlink:href="../../d7/d72/class_patch_cube.html#ab7d74356621750011a10364b7980a022" target="_top">
<path fill="#fff" stroke="#666" d="M383.5-892h-179v20h179z"/>
<text x="294" y="-879.2" font-family="Consolas" font-size="11" text-anchor="middle">PatchCube::update_status</text>
</a></g><g class="edge"><title>Node1-&gt;Node55</title><a>
<path fill="none" stroke="#63b8ff" d="M502.45-1387.55C496.34-1292.49 470.65-970.18 400-901c-4.77 4.67-10.27 8.4-16.2 11.36"/>
<path fill="#63b8ff" stroke="#63b8ff" d="m498.97-1387.98 4.12-9.76 2.87 10.2z"/>
</a></g><g class="node"><title>Node56</title><a xlink:href="../../da/d6e/class_patch_quad.html#a18edb08143b4873977f4f917bf526c2e" target="_top">
<path fill="#fff" stroke="#666" d="M383.5-854h-179v20h179z"/>
<text x="294" y="-841.2" font-family="Consolas" font-size="11" text-anchor="middle">PatchQuad::update_status</text>
</a></g><g class="edge"><title>Node1-&gt;Node56</title><a>
<path fill="none" stroke="#63b8ff" d="M502.87-1387.88C498.04-1288.84 475.76-938.19 400-863c-4.73 4.7-10.21 8.45-16.13 11.43"/>
<path fill="#63b8ff" stroke="#63b8ff" d="m499.38-1388.11 3.96-9.82 3.03 10.15z"/>
</a></g><g class="node"><title>Node57</title><a xlink:href="../../d3/dfd/class_d_k_t3.html#a921f9f9acd4ddd8cd76bf20955ac33ea" target="_top">
<path fill="#fff" stroke="#666" d="M366.5-816h-145v20h145z"/>
<text x="294" y="-803.2" font-family="Consolas" font-size="11" text-anchor="middle">DKT3::update_status</text>
</a></g><g class="edge"><title>Node1-&gt;Node57</title><a>
<path fill="none" stroke="#63b8ff" d="M503.21-1387.8C499.55-1284.36 480.77-906.11 400-825c-9.08 9.12-20.98 14.69-33.48 17.97"/>
<path fill="#63b8ff" stroke="#63b8ff" d="m499.72-1388.1 3.84-9.88 3.16 10.11z"/>
</a></g><g class="node"><title>Node58</title><a xlink:href="../../d8/da3/class_d_k_t4.html#a0b526c332c19af501e5ba5862f58497a" target="_top">
<path fill="#fff" stroke="#666" d="M366.5-778h-145v20h145z"/>
<text x="294" y="-765.2" font-family="Consolas" font-size="11" text-anchor="middle">DKT4::update_status</text>
</a></g><g class="edge"><title>Node1-&gt;Node58</title><a>
<path fill="none" stroke="#63b8ff" d="M503.51-1387.52C500.97-1279.54 485.74-874.01 400-787c-9.04 9.17-20.91 14.76-33.4 18.04"/>
<path fill="#63b8ff" stroke="#63b8ff" d="m500.02-1387.92 3.72-9.92 3.28 10.07z"/>
</a></g><g class="node"><title>Node59</title><a xlink:href="../../d3/dff/class_mindlin.html#a506b1fe332ef761a307b66a9cb64d137" target="_top">
<path fill="#fff" stroke="#666" d="M376.5-740h-165v20h165z"/>
<text x="294" y="-727.2" font-family="Consolas" font-size="11" text-anchor="middle">Mindlin::update_status</text>
</a></g><g class="edge"><title>Node1-&gt;Node59</title><a>
<path fill="none" stroke="#63b8ff" d="M503.79-1387.73C502.34-1276.03 490.86-842.05 400-749c-6.54 6.69-14.58 11.49-23.28 14.87"/>
<path fill="#63b8ff" stroke="#63b8ff" d="m500.29-1387.83 3.61-9.96 3.39 10.04z"/>
</a></g><g class="node"><title>Node60</title><a xlink:href="../../d6/dd5/class_damper01.html#a79dc00c35c1f34b9cfd997b10953941b" target="_top">
<path fill="#fff" stroke="#666" d="M380-702H208v20h172z"/>
<text x="294" y="-689.2" font-family="Consolas" font-size="11" text-anchor="middle">Damper01::update_status</text>
</a></g><g class="edge"><title>Node1-&gt;Node60</title><a>
<path fill="none" stroke="#63b8ff" d="M504.03-1387.74c-.4 115.6-8.1 577.68-104.03 676.74-5.67 5.86-12.49 10.26-19.91 13.54"/>
<path fill="#63b8ff" stroke="#63b8ff" d="m500.53-1387.82 3.52-10 3.48 10.01z"/>
</a></g><g class="node"><title>Node61</title><a xlink:href="../../dd/d8d/class_damper02.html#afd0b40e6fe49db5f418e1e86c54aa7b9" target="_top">
<path fill="#fff" stroke="#666" d="M380-664H208v20h172z"/>
<text x="294" y="-651.2" font-family="Consolas" font-size="11" text-anchor="middle">Damper02::update_status</text>
</a></g><g class="edge"><title>Node1-&gt;Node61</title><a>
<path fill="none" stroke="#63b8ff" d="M504.25-1387.87c.6 119.17-3.2 609.74-104.25 714.87-5.65 5.88-12.46 10.29-19.86 13.58"/>
<path fill="#63b8ff" stroke="#63b8ff" d="m500.75-1387.89 3.44-10.03 3.56 9.98z"/>
</a></g><g class="node"><title>Node62</title><a xlink:href="../../db/dcd/class_embedded.html#a945a23e7bbf0aec40bf690ad9ab81d58" target="_top">
<path fill="#fff" stroke="#666" d="M380-626H208v20h172z"/>
<text x="294" y="-613.2" font-family="Consolas" font-size="11" text-anchor="middle">Embedded::update_status</text>
</a></g><g class="edge"><title>Node1-&gt;Node62</title><a>
<path fill="none" stroke="#63b8ff" d="M504.45-1387.72c1.56 123.14 1.64 641.6-104.45 752.72-5.63 5.9-12.42 10.33-19.82 13.62"/>
<path fill="#63b8ff" stroke="#63b8ff" d="m500.95-1387.71 3.36-10.05 3.64 9.95z"/>
</a></g><g class="node"><title>Node63</title><a xlink:href="../../d6/dd7/class_joint.html#af8ebfb8ff20355da320b1ff9ee16f02a" target="_top">
<path fill="#fff" stroke="#666" d="M370-588H218v20h152z"/>
<text x="294" y="-575.2" font-family="Consolas" font-size="11" text-anchor="middle">Joint::update_status</text>
</a></g><g class="edge"><title>Node1-&gt;Node63</title><a>
<path fill="none" stroke="#63b8ff" d="M502.49-1387.82C494.55-1254.6 455.94-655.95 400-597c-8.1 8.53-18.64 14-29.91 17.4"/>
<path fill="#63b8ff" stroke="#63b8ff" d="m499-1388.15 4.08-9.78 2.91 10.19z"/>
</a></g><g class="node"><title>Node64</title><a xlink:href="../../de/dd2/class_single_section2_d.html#a231585768e6ad68e61459a9ad77e7380" target="_top">
<path fill="#fff" stroke="#666" d="M380-550H208v32h172z"/>
<text x="216" y="-537.2" font-family="Consolas" font-size="11">SingleSection2D::update</text>
<text x="294" y="-525.2" font-family="Consolas" font-size="11" text-anchor="middle">_status</text>
</a></g><g class="edge"><title>Node1-&gt;Node64</title><a>
<path fill="none" stroke="#63b8ff" d="M502.56-1387.55C494.86-1250.25 456.74-622.52 400-559c-5.55 6.22-12.35 11.03-19.79 14.74"/>
<path fill="#63b8ff" stroke="#63b8ff" d="m499.09-1388.16 4.05-9.79 2.94 10.18z"/>
</a></g><g class="node"><title>Node65</title><a xlink:href="../../d7/d8d/class_single_section3_d.html#a3e966c97f084ce50f8a1cfde7637e9c8" target="_top">
<path fill="#fff" stroke="#666" d="M380-500H208v32h172z"/>
<text x="216" y="-487.2" font-family="Consolas" font-size="11">SingleSection3D::update</text>
<text x="294" y="-475.2" font-family="Consolas" font-size="11" text-anchor="middle">_status</text>
</a></g><g class="edge"><title>Node1-&gt;Node65</title><a>
<path fill="none" stroke="#63b8ff" d="M502.74-1387.37C495.76-1244.88 459.98-576.6 400-509c-5.6 6.31-12.47 11.17-20 14.9"/>
<path fill="#63b8ff" stroke="#63b8ff" d="m499.26-1387.94 3.98-9.82 3.01 10.15z"/>
</a></g><g class="node"><title>Node66</title><a xlink:href="../../d2/d40/class_spring01.html#a2a6bdb59f1c5e53bfbf3daa65207157c" target="_top">
<path fill="#fff" stroke="#666" d="M380-450H208v20h172z"/>
<text x="294" y="-437.2" font-family="Consolas" font-size="11" text-anchor="middle">Spring01::update_status</text>
</a></g><g class="edge"><title>Node1-&gt;Node66</title><a>
<path fill="none" stroke="#63b8ff" d="M502.99-1387.71C497.09-1241.14 465.24-529.01 400-459c-5.62 6.03-12.46 10.54-19.92 13.87"/>
<path fill="#63b8ff" stroke="#63b8ff" d="m499.5-1388.14 3.89-9.85 3.1 10.13z"/>
</a></g><g class="node"><title>Node67</title><a xlink:href="../../d6/d1f/class_spring02.html#ac681b8e607575b0b75c6286adf0a9216" target="_top">
<path fill="#fff" stroke="#666" d="M380-412H208v20h172z"/>
<text x="294" y="-399.2" font-family="Consolas" font-size="11" text-anchor="middle">Spring02::update_status</text>
</a></g><g class="edge"><title>Node1-&gt;Node67</title><a>
<path fill="none" stroke="#63b8ff" d="M503.1-1387.6C497.72-1237.34 467.8-494.06 400-421c-5.61 6.04-12.44 10.56-19.9 13.9"/>
<path fill="#63b8ff" stroke="#63b8ff" d="m499.6-1387.88 3.86-9.87 3.14 10.12z"/>
</a></g><g class="node"><title>Node68</title><a xlink:href="../../df/d7e/class_tie.html#aa06a3a5616ea255888cc6b876314ed8f" target="_top">
<path fill="#fff" stroke="#666" d="M363-374H225v20h138z"/>
<text x="294" y="-361.2" font-family="Consolas" font-size="11" text-anchor="middle">Tie::update_status</text>
</a></g><g class="edge"><title>Node1-&gt;Node68</title><a>
<path fill="none" stroke="#63b8ff" d="M503.2-1387.58C498.33-1233.88 470.37-459.12 400-383c-9.68 10.47-23.04 16.37-36.99 19.49"/>
<path fill="#63b8ff" stroke="#63b8ff" d="m499.72-1388.04 3.81-9.89 3.18 10.1z"/>
</a></g><g class="node"><title>Node69</title><a xlink:href="../../db/d13/class_translation_connector.html#a46745e9f89e6db0ee1e76e013988c597" target="_top">
<path fill="#fff" stroke="#666" d="M370-336H218v32h152z"/>
<text x="226" y="-323.2" font-family="Consolas" font-size="11">TranslationConnector</text>
<text x="294" y="-311.2" font-family="Consolas" font-size="11" text-anchor="middle">::update_status</text>
</a></g><g class="edge"><title>Node1-&gt;Node69</title><a>
<path fill="none" stroke="#63b8ff" d="M503.24-1387.64C498.49-1230.96 470.75-426.15 400-345c-7.94 9.11-18.55 15.22-29.97 19.26"/>
<path fill="#63b8ff" stroke="#63b8ff" d="m499.75-1387.89 3.79-9.89 3.2 10.1z"/>
</a></g><g class="node"><title>Node70</title><a xlink:href="../../d6/d59/class_t2_d2.html#af88297a24560959df568034685df246c" target="_top">
<path fill="#fff" stroke="#666" d="M366.5-286h-145v20h145z"/>
<text x="294" y="-273.2" font-family="Consolas" font-size="11" text-anchor="middle">T2D2::update_status</text>
</a></g><g class="edge"><title>Node1-&gt;Node70</title><a>
<path fill="none" stroke="#63b8ff" d="M503.42-1387.39C499.64-1225.59 476.31-378.2 400-295c-8.83 9.62-20.76 15.39-33.41 18.69"/>
<path fill="#63b8ff" stroke="#63b8ff" d="m499.93-1387.91 3.73-9.92 3.27 10.08z"/>
</a></g><g class="node"><title>Node71</title><a xlink:href="../../d0/dc4/class_t2_d2_s.html#aee2190ab599f0c82ec84c44f6e30ca5c" target="_top">
<path fill="#fff" stroke="#666" d="M370-248H218v20h152z"/>
<text x="294" y="-235.2" font-family="Consolas" font-size="11" text-anchor="middle">T2D2S::update_status</text>
</a></g><g class="edge"><title>Node1-&gt;Node71</title><a>
<path fill="none" stroke="#63b8ff" d="M503.51-1387.51C500.2-1222.82 478.91-343.3 400-257c-8 8.75-18.56 14.31-29.91 17.73"/>
<path fill="#63b8ff" stroke="#63b8ff" d="m500.01-1387.78 3.7-9.93 3.3 10.07z"/>
</a></g><g class="node"><title>Node72</title><a xlink:href="../../d7/da1/class_t3_d2.html#a62a99e42d2c603886d7d4972260572f6" target="_top">
<path fill="#fff" stroke="#666" d="M366.5-210h-145v20h145z"/>
<text x="294" y="-197.2" font-family="Consolas" font-size="11" text-anchor="middle">T3D2::update_status</text>
</a></g><g class="edge"><title>Node1-&gt;Node72</title><a>
<path fill="none" stroke="#63b8ff" d="M503.59-1387.43C500.72-1219.38 481.48-308.36 400-219c-8.8 9.65-20.72 15.43-33.36 18.73"/>
<path fill="#63b8ff" stroke="#63b8ff" d="m500.09-1387.67 3.66-9.94 3.34 10.06z"/>
</a></g><g class="node"><title>Node73</title><a xlink:href="../../d2/d1d/class_t3_d2_s.html#a682c9d95227edb742bb8daf715d1eba8" target="_top">
<path fill="#fff" stroke="#666" d="M370-172H218v20h152z"/>
<text x="294" y="-159.2" font-family="Consolas" font-size="11" text-anchor="middle">T3D2S::update_status</text>
</a></g><g class="edge"><title>Node1-&gt;Node73</title><a>
<path fill="none" stroke="#63b8ff" d="M503.67-1387.93C501.26-1218.11 484.15-273.53 400-181c-7.98 8.77-18.53 14.34-29.87 17.77"/>
<path fill="#63b8ff" stroke="#63b8ff" d="m500.17-1388.02 3.64-9.95 3.36 10.04z"/>
</a></g><g class="node"><title>Node74</title><a xlink:href="../../df/dcf/class_b3_d_c.html#ab4a8fbbb86ba6538b1ca61d3f499c19e" target="_top">
<path fill="#fff" stroke="#666" d="M393.5-134h-199v20h199z"/>
<text x="294" y="-121.2" font-family="Consolas" font-size="11" text-anchor="middle">B3DC::update_transformation</text>
</a></g><g class="edge"><title>Node1-&gt;Node74</title><a>
<path fill="none" stroke="#63b8ff" d="M503.73-1387.67C501.74-1214.14 486.69-238.57 400-143c-3.11 3.43-6.62 6.37-10.41 8.89"/>
<path fill="#63b8ff" stroke="#63b8ff" d="m500.24-1387.96 3.61-9.97 3.39 10.04z"/>
</a></g><g class="node"><title>Node75</title><a xlink:href="../../da/dd7/class_b3_d_o_s_c.html#ac11e8a63b245fab0ca66cae5d59e72af" target="_top">
<path fill="#fff" stroke="#666" d="M400-96H188v20h212z"/>
<text x="294" y="-83.2" font-family="Consolas" font-size="11" text-anchor="middle">B3DOSC::update_transformation</text>
</a></g><g class="edge"><title>Node1-&gt;Node75</title><a>
<path fill="none" stroke="#63b8ff" d="M503.8-1387.71C502.22-1211.29 489.29-203.67 400-105c-3.11 3.43-6.61 6.38-10.4 8.9"/>
<path fill="#63b8ff" stroke="#63b8ff" d="m500.3-1387.93 3.59-9.97 3.41 10.03z"/>
</a></g><g class="node"><title>Node76</title><a xlink:href="../../d7/d39/class_t2_d_c.html#a1daa2e0bbd7df90ab209d52e713a7544" target="_top">
<path fill="#fff" stroke="#666" d="M393.5-58h-199v20h199z"/>
<text x="294" y="-45.2" font-family="Consolas" font-size="11" text-anchor="middle">T2DC::update_transformation</text>
</a></g><g class="edge"><title>Node1-&gt;Node76</title><a>
<path fill="none" stroke="#63b8ff" d="M503.86-1387.79C502.68-1208.64 491.9-168.78 400-67c-3.1 3.44-6.6 6.38-10.39 8.9"/>
<path fill="#63b8ff" stroke="#63b8ff" d="m500.36-1387.91 3.56-9.98 3.44 10.02z"/>
</a></g><g class="node"><title>Node77</title><a xlink:href="../../d9/d8e/class_t3_d_c.html#a673c3156c69a55b2ea1bca320779ef69" target="_top">
<path fill="#fff" stroke="#666" d="M393.5-20h-199V0h199z"/>
<text x="294" y="-7.2" font-family="Consolas" font-size="11" text-anchor="middle">T3DC::update_transformation</text>
</a></g><g class="edge"><title>Node1-&gt;Node77</title><a>
<path fill="none" stroke="#63b8ff" d="M503.92-1387.9C503.14-1206.16 494.51-133.89 400-29c-3.1 3.44-6.6 6.39-10.38 8.91"/>
<path fill="#63b8ff" stroke="#63b8ff" d="m500.42-1387.92 3.54-9.98 3.46 10.01z"/>
</a></g><g class="node"><title>Node3</title><a xlink:href="../../db/dea/class_d_k_t_s3.html#ac0931c9fb004053badf63fc1844b0eac" target="_top">
<path fill="#fff" stroke="#666" d="M141.5-2892h-131v20h131z"/>
<text x="76" y="-2879.2" font-family="Consolas" font-size="11" text-anchor="middle">DKTS3::initialize</text>
</a></g><g class="edge"><title>Node2-&gt;Node3</title><a>
<path fill="none" stroke="#63b8ff" d="M242.51-2831.63c-26.69-10.04-60.14-22.06-90.51-31.37-10.4-3.19-21.73-6.26-32.36-8.98"/>
<path fill="#63b8ff" stroke="#63b8ff" d="m243.91-2834.85 8.12 6.81-10.6-.26z"/>
</a></g><g class="node"><title>Node4</title><a xlink:href="../../d2/d2f/class_s4.html#aafa71ab6d6bdb5a9331767971b71c89c" target="_top">
<path fill="#fff" stroke="#666" d="M131.5-2854h-111v20h111z"/>
<text x="76" y="-2841.2" font-family="Consolas" font-size="11" text-anchor="middle">S4::initialize</text>
</a></g><g class="edge"><title>Node2-&gt;Node4</title><a>
<path fill="none" stroke="#63b8ff" d="M207.66-2824.64c-25.62-3.8-53.03-7.86-76.09-11.28"/>
<path fill="#63b8ff" stroke="#63b8ff" d="m208.38-2828.07 9.38 4.92-10.41 2z"/>
</a></g><g class="node"><title>Node5</title><a xlink:href="../../d8/de9/class_s_g_c_m_s.html#a9d81c1bb05ae6b0c37f871dd4ed00cc6" target="_top">
<path fill="#fff" stroke="#666" d="M141.5-2816h-131v20h131z"/>
<text x="76" y="-2803.2" font-family="Consolas" font-size="11" text-anchor="middle">SGCMS::initialize</text>
</a></g><g class="edge"><title>Node2-&gt;Node5</title><a>
<path fill="none" stroke="#63b8ff" d="M207.74-2809.63c-22.04.61-45.39 1.26-66.18 1.84"/>
<path fill="#63b8ff" stroke="#63b8ff" d="m207.66-2813.13 10.1 3.22-9.9 3.78z"/>
</a></g><g class="edge"><title>Node2-&gt;Node6</title><a>
<path fill="none" stroke="#63b8ff" d="M207.69-2794.62c-27.63 5.63-57.33 11.68-81.42 16.58"/>
<path fill="#63b8ff" stroke="#63b8ff" d="m207.26-2798.11 10.5 1.44-9.1 5.42z"/>
</a></g><g class="edge"><title>Node2-&gt;Node7</title><a>
<path fill="none" stroke="#63b8ff" d="M252.15-2791.5c-27.75 13.37-65.56 30.49-100.15 42.5-9.64 3.35-20.17 6.38-30.21 9"/>
<path fill="#63b8ff" stroke="#63b8ff" d="m250.63-2794.65 10.53-1.22-7.47 7.51z"/>
</a></g><g class="edge"><title>Node2-&gt;Node8</title><a>
<path fill="none" stroke="#63b8ff" d="M267.48-2789.17c-26.91 22.93-71.43 57.71-115.48 78.17-7.67 3.56-16.11 6.53-24.48 8.96"/>
<path fill="#63b8ff" stroke="#63b8ff" d="m265.39-2791.99 9.86-3.88-5.29 9.18z"/>
</a></g></g></svg>