<svg xmlns="http://www.w3.org/2000/svg" xmlns:xlink="http://www.w3.org/1999/xlink" xml:space="preserve" id="main" onload="init(evt)"><style>.edge,.node,[data-mouse-over-selected=false]{opacity:.7}.edge.selected,.node.selected,[data-mouse-over-selected=true]{opacity:1}.edge:hover path{stroke:red}.edge:hover polygon{stroke:red;fill:red}</style><defs><g id="zoomPlus"><use xlink:href="#rim" fill="#404040"><set attributeName="fill" begin="zoomplus.mouseover" end="zoomplus.mouseout" to="#808080"/></use><path fill="none" stroke="#fff" stroke-width="1.5" d="M-4 0h8M0-4v8" pointer-events="none"/></g><g id="zoomMin"><use xlink:href="#rim" fill="#404040"><set attributeName="fill" begin="zoomminus.mouseover" end="zoomminus.mouseout" to="#808080"/></use><path fill="none" stroke="#fff" stroke-width="1.5" d="M-4 0h8" pointer-events="none"/></g><g id="arrowUp" transform="translate(30 24)"><use xlink:href="#rim"/><path fill="none" stroke="#fff" stroke-width="1.5" d="M0-3v7M-2.5-.5 0-3 2.5-.5" pointer-events="none"/></g><g id="arrowRight" transform="rotate(90 3.5 39.5)"><use xlink:href="#rim"/><path fill="none" stroke="#fff" stroke-width="1.5" d="M0-3v7M-2.5-.5 0-3 2.5-.5" pointer-events="none"/></g><g id="arrowDown" transform="matrix(-1 0 0 -1 30 48)"><use xlink:href="#rim"/><path fill="none" stroke="#fff" stroke-width="1.5" d="M0-3v7M-2.5-.5 0-3 2.5-.5" pointer-events="none"/></g><g id="arrowLeft" transform="rotate(-90 26.5 9.5)"><use xlink:href="#rim"/><path fill="none" stroke="#fff" stroke-width="1.5" d="M0-3v7M-2.5-.5 0-3 2.5-.5" pointer-events="none"/></g><circle id="rim" cx="0" cy="0" r="7"/><circle id="rim2" cx="0" cy="0" r="3.5"/><use xlink:href="#rim2" id="resetDef" fill="#404040"><set attributeName="fill" begin="reset.mouseover" end="reset.mouseout" to="#808080"/></use></defs><script type="application/ecmascript">var viewWidth = 894;
var viewHeight = 100;
var sectionId = &apos;dynsection-0&apos;;</script><script xlink:href="svg.min.js" type="application/ecmascript"/><svg id="graph" class="graph"><g id="viewport"><title>Toolbox</title><g id="clust1" class="cluster"><title>clusterdir_90a01da27c815ec0f52ae9e4dc4ab23c</title><a xlink:href="dir_90a01da27c815ec0f52ae9e4dc4ab23c.html" id="a_clust1" target="_top">
<path fill="#edf0f7" stroke="#404040" stroke-width="2" d="M358-48v-36h142v36z"/>
</a></g><g id="node1" class="node"><title>dir_90a01da27c815ec0f52ae9e4dc4ab23c</title><text x="460" y="-63.2" font-family="Consolas" font-size="11" text-anchor="middle">Toolbox</text></g><g id="node3" class="node"><title>dir_0df630575e50c230f9373dd51d2e804d</title><a xlink:href="dir_0df630575e50c230f9373dd51d2e804d.html" xlink:title="Load" id="a_node3" target="_top">
<path fill="#edf0f7" stroke="red" d="M44-20H0V0h44z"/>
<text x="22" y="-7.2" font-family="Consolas" font-size="11" text-anchor="middle">Load</text>
</a></g><g id="edge1" class="edge"><title>dir_90a01da27c815ec0f52ae9e4dc4ab23c-&gt;dir_0df630575e50c230f9373dd51d2e804d</title><a xlink:href="dir_000075_000037.html" id="a_edge1" target="_top">
<path fill="none" stroke="#63b8ff" d="M441.64-55.93c-6.93 3.03-15 6.1-22.64 7.93-155.42 37.16-203.51.45-364.52 28.13"/>
<path fill="#63b8ff" stroke="#63b8ff" d="m54.68-16.35-10.46-1.7 9.23-5.19z"/>
</a><a xlink:href="dir_000075_000037.html" xlink:title="3" id="a_edge1-headlabel" target="_top">
<text x="58.71" y="-11.38" fill="#63b8ff" font-family="Consolas" font-size="11" text-anchor="middle">3</text>
</a></g><g id="node4" class="node"><title>dir_5dc3d2744d9e16e6dc5313fdb2ea1510</title><a xlink:href="dir_5dc3d2744d9e16e6dc5313fdb2ea1510.html" xlink:title="Material" id="a_node4" target="_top">
<path fill="#edf0f7" stroke="red" d="M133.5-20h-71V0h71z"/>
<text x="98" y="-7.2" font-family="Consolas" font-size="11" text-anchor="middle">Material</text>
</a></g><g id="edge2" class="edge"><title>dir_90a01da27c815ec0f52ae9e4dc4ab23c-&gt;dir_5dc3d2744d9e16e6dc5313fdb2ea1510</title><a xlink:href="dir_000075_000039.html" id="a_edge2" target="_top">
<path fill="none" stroke="#63b8ff" d="M441.2-55.85c-6.84 2.96-14.73 5.97-22.2 7.85-116.82 29.44-152.79 10.42-274.92 27.84"/>
<path fill="#63b8ff" stroke="#63b8ff" d="m144.37-16.67-10.4-1.99 9.38-4.93z"/>
</a><a xlink:href="dir_000075_000039.html" xlink:title="3" id="a_edge2-headlabel" target="_top">
<text x="148.34" y="-11.58" fill="#63b8ff" font-family="Consolas" font-size="11" text-anchor="middle">3</text>
</a></g><g id="node5" class="node"><title>dir_8c888e3f1190d8e08b273c29d1443e32</title><a xlink:href="dir_8c888e3f1190d8e08b273c29d1443e32.html" xlink:title="Domain" id="a_node5" target="_top">
<path fill="#edf0f7" stroke="red" d="M208.5-20h-57V0h57z"/>
<text x="180" y="-7.2" font-family="Consolas" font-size="11" text-anchor="middle">Domain</text>
</a></g><g id="edge3" class="edge"><title>dir_90a01da27c815ec0f52ae9e4dc4ab23c-&gt;dir_8c888e3f1190d8e08b273c29d1443e32</title><a xlink:href="dir_000075_000019.html" id="a_edge3" target="_top">
<path fill="none" stroke="#63b8ff" d="M440.75-55.83C434-52.94 426.29-49.98 419-48c-83.97 22.85-110.49 12.19-200.35 28.08"/>
<path fill="#63b8ff" stroke="#63b8ff" d="m219.04-16.43-10.47-1.64 9.21-5.25z"/>
</a><a xlink:href="dir_000075_000019.html" xlink:title="11" id="a_edge3-headlabel" target="_top">
<text x="223.09" y="-11.49" fill="#63b8ff" font-family="Consolas" font-size="11" text-anchor="middle">11</text>
</a></g><g id="node6" class="node"><title>dir_a3a11107c060fd286089c61b248388a9</title><a xlink:href="dir_a3a11107c060fd286089c61b248388a9.html" xlink:title="Constraint" id="a_node6" target="_top">
<path fill="#edf0f7" stroke="red" d="M311-20h-84V0h84z"/>
<text x="269" y="-7.2" font-family="Consolas" font-size="11" text-anchor="middle">Constraint</text>
</a></g><g id="edge4" class="edge"><title>dir_90a01da27c815ec0f52ae9e4dc4ab23c-&gt;dir_a3a11107c060fd286089c61b248388a9</title><a xlink:href="dir_000075_000008.html" id="a_edge4" target="_top">
<path fill="none" stroke="#63b8ff" d="M439.79-55.91c-6.55 2.76-13.91 5.65-20.79 7.91-32.03 10.52-68.76 19.63-97.86 26.18"/>
<path fill="#63b8ff" stroke="#63b8ff" d="m321.71-18.36-10.52-1.26 9-5.58z"/>
</a><a xlink:href="dir_000075_000008.html" xlink:title="3" id="a_edge4-headlabel" target="_top">
<text x="325.83" y="-13.57" fill="#63b8ff" font-family="Consolas" font-size="11" text-anchor="middle">3</text>
</a></g><g id="node7" class="node"><title>dir_a92f6aab40319c4984145a51015b8ccc</title><a xlink:href="dir_a92f6aab40319c4984145a51015b8ccc.html" xlink:title="Converger" id="a_node7" target="_top">
<path fill="#edf0f7" stroke="#404040" d="M406.5-20h-77V0h77z"/>
<text x="368" y="-7.2" font-family="Consolas" font-size="11" text-anchor="middle">Converger</text>
</a></g><g id="edge5" class="edge"><title>dir_90a01da27c815ec0f52ae9e4dc4ab23c-&gt;dir_a92f6aab40319c4984145a51015b8ccc</title><a xlink:href="dir_000075_000009.html" id="a_edge5" target="_top">
<path fill="none" stroke="#63b8ff" d="M444.39-55.84c-14.22 8.35-35.47 20.82-51.95 30.5"/>
<path fill="#63b8ff" stroke="#63b8ff" d="m393.77-22.07-10.39 2.04 6.85-8.08z"/>
</a><a xlink:href="dir_000075_000009.html" xlink:title="2" id="a_edge5-headlabel" target="_top">
<text x="398.31" y="-18.64" fill="#63b8ff" font-family="Consolas" font-size="11" text-anchor="middle">2</text>
</a></g><g id="node8" class="node"><title>dir_a9729cc3cf336159544460298e1486e7</title><a xlink:href="dir_a9729cc3cf336159544460298e1486e7.html" xlink:title="UnitTest" id="a_node8" target="_top">
<path fill="#edf0f7" stroke="#404040" d="M495.5-20h-71V0h71z"/>
<text x="460" y="-7.2" font-family="Consolas" font-size="11" text-anchor="middle">UnitTest</text>
</a></g><g id="edge6" class="edge"><title>dir_90a01da27c815ec0f52ae9e4dc4ab23c-&gt;dir_a9729cc3cf336159544460298e1486e7</title><a xlink:href="dir_000075_000078.html" id="a_edge6" target="_top">
<path fill="none" stroke="#63b8ff" d="M460-55.59v25.02"/>
<path fill="#63b8ff" stroke="#63b8ff" d="m463.5-30.3-3.5 10-3.5-10z"/>
</a><a xlink:href="dir_000075_000078.html" xlink:title="1" id="a_edge6-headlabel" target="_top">
<text x="466.34" y="-31.09" fill="#63b8ff" font-family="Consolas" font-size="11" text-anchor="middle">1</text>
</a></g><g id="node9" class="node"><title>dir_b2df46b3e07438c2f7bb907cd4fd47eb</title><a xlink:href="dir_b2df46b3e07438c2f7bb907cd4fd47eb.html" xlink:title="Recorder" id="a_node9" target="_top">
<path fill="#edf0f7" stroke="#404040" d="M584.5-20h-71V0h71z"/>
<text x="549" y="-7.2" font-family="Consolas" font-size="11" text-anchor="middle">Recorder</text>
</a></g><g id="edge7" class="edge"><title>dir_90a01da27c815ec0f52ae9e4dc4ab23c-&gt;dir_b2df46b3e07438c2f7bb907cd4fd47eb</title><a xlink:href="dir_000075_000056.html" id="a_edge7" target="_top">
<path fill="none" stroke="#63b8ff" d="M475.1-55.84c13.76 8.35 34.32 20.82 50.26 30.5"/>
<path fill="#63b8ff" stroke="#63b8ff" d="m527.39-28.2 6.74 8.17-10.37-2.19z"/>
</a><a xlink:href="dir_000075_000056.html" xlink:title="2" id="a_edge7-headlabel" target="_top">
<text x="525.79" y="-29.7" fill="#63b8ff" font-family="Consolas" font-size="11" text-anchor="middle">2</text>
</a></g><g id="node10" class="node"><title>dir_bbfb5cf133b5ee2ba5207ad49be3b96c</title><a xlink:href="dir_bbfb5cf133b5ee2ba5207ad49be3b96c.html" xlink:title="Solver" id="a_node10" target="_top">
<path fill="#edf0f7" stroke="red" d="M659.5-20h-57V0h57z"/>
<text x="631" y="-7.2" font-family="Consolas" font-size="11" text-anchor="middle">Solver</text>
</a></g><g id="edge8" class="edge"><title>dir_90a01da27c815ec0f52ae9e4dc4ab23c-&gt;dir_bbfb5cf133b5ee2ba5207ad49be3b96c</title><a xlink:href="dir_000075_000069.html" id="a_edge8" target="_top">
<path fill="none" stroke="#63b8ff" d="M488.62-55.96c28.48 8.99 72.38 22.85 103.9 32.81"/>
<path fill="#63b8ff" stroke="#63b8ff" d="m593.8-26.42 8.49 6.35-10.59.33z"/>
</a><a xlink:href="dir_000075_000069.html" xlink:title="3" id="a_edge8-headlabel" target="_top">
<text x="591.23" y="-27.41" fill="#63b8ff" font-family="Consolas" font-size="11" text-anchor="middle">3</text>
</a></g><g id="node11" class="node"><title>dir_c50cd265c3c89d21f049852119ed1532</title><a xlink:href="dir_c50cd265c3c89d21f049852119ed1532.html" xlink:title="Step" id="a_node11" target="_top">
<path fill="#edf0f7" stroke="#404040" d="M722-20h-44V0h44z"/>
<text x="700" y="-7.2" font-family="Consolas" font-size="11" text-anchor="middle">Step</text>
</a></g><g id="edge9" class="edge"><title>dir_90a01da27c815ec0f52ae9e4dc4ab23c-&gt;dir_c50cd265c3c89d21f049852119ed1532</title><a xlink:href="dir_000075_000074.html" id="a_edge9" target="_top">
<path fill="none" stroke="#63b8ff" d="M492.03-58.83c39.22 7.71 107.89 21.72 175.68 38.64"/>
<path fill="#63b8ff" stroke="#63b8ff" d="m668.86-23.51 8.84 5.83-10.55.95z"/>
</a><a xlink:href="dir_000075_000074.html" xlink:title="6" id="a_edge9-headlabel" target="_top">
<text x="666.07" y="-24.35" fill="#63b8ff" font-family="Consolas" font-size="11" text-anchor="middle">6</text>
</a></g><g id="node12" class="node"><title>dir_d4cf6f20ffb08aa0d4b9ebd27f6cf468</title><a xlink:href="dir_d4cf6f20ffb08aa0d4b9ebd27f6cf468.html" xlink:title="Section" id="a_node12" target="_top">
<path fill="#edf0f7" stroke="red" d="M804-20h-64V0h64z"/>
<text x="772" y="-7.2" font-family="Consolas" font-size="11" text-anchor="middle">Section</text>
</a></g><g id="edge10" class="edge"><title>dir_90a01da27c815ec0f52ae9e4dc4ab23c-&gt;dir_d4cf6f20ffb08aa0d4b9ebd27f6cf468</title><a xlink:href="dir_000075_000061.html" id="a_edge10" target="_top">
<path fill="none" stroke="#63b8ff" d="M492.22-60.2c49.08 7.43 145.74 22.53 237.57 40.04"/>
<path fill="#63b8ff" stroke="#63b8ff" d="m730.64-23.55 9.16 5.32-10.48 1.55z"/>
</a><a xlink:href="dir_000075_000061.html" xlink:title="3" id="a_edge10-headlabel" target="_top">
<text x="727.65" y="-24.22" fill="#63b8ff" font-family="Consolas" font-size="11" text-anchor="middle">3</text>
</a></g><g id="node13" class="node"><title>dir_dbf4cecd986d5434acc0a98260fbec76</title><a xlink:href="dir_dbf4cecd986d5434acc0a98260fbec76.html" xlink:title="Element" id="a_node13" target="_top">
<path fill="#edf0f7" stroke="red" d="M886-20h-64V0h64z"/>
<text x="854" y="-7.2" font-family="Consolas" font-size="11" text-anchor="middle">Element</text>
</a></g><g id="edge11" class="edge"><title>dir_90a01da27c815ec0f52ae9e4dc4ab23c-&gt;dir_dbf4cecd986d5434acc0a98260fbec76</title><a xlink:href="dir_000075_000026.html" id="a_edge11" target="_top">
<path fill="none" stroke="#63b8ff" d="M492.27-61.86c60.63 6.11 195.86 20.72 319.53 41.79"/>
<path fill="#63b8ff" stroke="#63b8ff" d="m812.56-23.49 9.26 5.14-10.44 1.75z"/>
</a><a xlink:href="dir_000075_000026.html" xlink:title="5" id="a_edge11-headlabel" target="_top">
<text x="809.5" y="-24.1" fill="#63b8ff" font-family="Consolas" font-size="11" text-anchor="middle">5</text>
</a></g><g id="node2" class="node"><title>dir_7886dcfd7b5056a15e76039d36e78672</title><a xlink:href="dir_7886dcfd7b5056a15e76039d36e78672.html" xlink:title="tree" id="a_node2" target="_top">
<path fill="#a2b4d6" stroke="#404040" d="M410-76h-44v20h44z"/>
<text x="388" y="-63.2" font-family="Consolas" font-size="11" text-anchor="middle">tree</text>
</a></g></g></svg><g id="navigator" fill="#404254"><path fill="#f2f5e9" fill-opacity=".5" stroke="#606060" stroke-width=".5" d="M0 0h60v60H0z"/><use xlink:href="#zoomPlus" id="zoomplus" x="17" y="9" onmousedown="handleZoom(evt,'in')"/><use xlink:href="#zoomMin" id="zoomminus" x="42" y="9" onmousedown="handleZoom(evt,'out')"/><use xlink:href="#resetDef" id="reset" x="30" y="36" onmousedown="handleReset()"/><use xlink:href="#arrowUp" id="arrowup" x="0" y="0" onmousedown="handlePan(0,-1)"/><use xlink:href="#arrowRight" id="arrowright" x="0" y="0" onmousedown="handlePan(1,0)"/><use xlink:href="#arrowDown" id="arrowdown" x="0" y="0" onmousedown="handlePan(0,1)"/><use xlink:href="#arrowLeft" id="arrowleft" x="0" y="0" onmousedown="handlePan(-1,0)"/></g><svg height="30" preserveAspectRatio="xMaxYMin meet" viewBox="0 0 15 15"><a xlink:href="dir_90a01da27c815ec0f52ae9e4dc4ab23c_dep_org.svg" id="arrow_out" target="_base" transform="scale(.3)">
   <rect id="button" width="38" height="38" x="6" y="6" fill="#f2f5e9" fill-opacity=".5" stroke="#606060" stroke-width="1" rx="5" ry="5"/>
   <path id="arrow" d="M11.5 31.437c.44-11.34 10.543-20.114 20.659-9.458l4.91-4.733.02 14.754-14.929-.022 4.838-4.838c-8.47-8.876-13.706-1.91-15.498 4.297" style="fill:#404040"/>
  </a></svg><script type="application/ecmascript"><![CDATA[
document.addEventListener('DOMContentLoaded', (event) => {
  highlightEdges();
  highlightAdjacentNodes();
});
]]></script></svg>