<svg xmlns="http://www.w3.org/2000/svg" xmlns:xlink="http://www.w3.org/1999/xlink" width="335pt" height="136pt" viewBox="0 0 335 136"><g class="graph" transform="translate(4 132)"><title>Element/Truss</title><g class="cluster"><title>clusterdir_dbf4cecd986d5434acc0a98260fbec76</title><a xlink:href="dir_dbf4cecd986d5434acc0a98260fbec76.html" xlink:title="Element" target="_top">
<path fill="#edf0f7" stroke="#404040" stroke-dasharray="5,2" d="M8-8v-112h80V-8z"/>
<text x="48" y="-107.2" font-family="Consolas" font-size="11" text-anchor="middle">Element</text>
</a></g><g class="node"><title>dir_055c5b0870108e291f3d4e283ef32ec8</title><a xlink:href="dir_055c5b0870108e291f3d4e283ef32ec8.html" xlink:title="Utility" target="_top">
<path fill="#a2b4d6" stroke="red" d="M80-36H16v20h64z"/>
<text x="48" y="-23.2" font-family="Consolas" font-size="11" text-anchor="middle">Utility</text>
</a></g><g class="node"><title>dir_7412e7ecfbe0ab06c734754b96df38bb</title><a xlink:href="dir_7412e7ecfbe0ab06c734754b96df38bb.html" xlink:title="Truss" target="_top">
<path fill="#edf0f7" stroke="#404040" stroke-width="2" d="M80-92H30v20h50z"/>
<text x="55" y="-79.2" font-family="Consolas" font-size="11" text-anchor="middle">Truss</text>
</a></g><g class="edge"><title>dir_7412e7ecfbe0ab06c734754b96df38bb-&gt;dir_055c5b0870108e291f3d4e283ef32ec8</title><a xlink:href="dir_000077_000079.html" target="_top">
<path fill="none" stroke="#63b8ff" d="M53.78-71.59c-.9 6.96-2.17 16.7-3.28 25.3"/>
<path fill="#63b8ff" stroke="#63b8ff" d="m53.96-45.77-4.75 9.47-2.19-10.37z"/>
</a><a xlink:href="dir_000077_000079.html" xlink:title="4" target="_top">
<text x="57.24" y="-46.17" fill="#63b8ff" font-family="Consolas" font-size="11" text-anchor="middle">4</text>
</a></g><g class="node"><title>dir_5dc3d2744d9e16e6dc5313fdb2ea1510</title><a xlink:href="dir_5dc3d2744d9e16e6dc5313fdb2ea1510.html" xlink:title="Material" target="_top">
<path fill="#edf0f7" stroke="red" d="M169.5-36h-71v20h71z"/>
<text x="134" y="-23.2" font-family="Consolas" font-size="11" text-anchor="middle">Material</text>
</a></g><g class="edge"><title>dir_7412e7ecfbe0ab06c734754b96df38bb-&gt;dir_5dc3d2744d9e16e6dc5313fdb2ea1510</title><a xlink:href="dir_000077_000039.html" target="_top">
<path fill="none" stroke="#63b8ff" d="M68.4-71.84c11.99 8.2 29.79 20.36 43.82 29.95"/>
<path fill="#63b8ff" stroke="#63b8ff" d="m114.52-44.56 6.28 8.53-10.23-2.75z"/>
</a><a xlink:href="dir_000077_000039.html" xlink:title="2" target="_top">
<text x="113.15" y="-46.13" fill="#63b8ff" font-family="Consolas" font-size="11" text-anchor="middle">2</text>
</a></g><g class="node"><title>dir_8c888e3f1190d8e08b273c29d1443e32</title><a xlink:href="dir_8c888e3f1190d8e08b273c29d1443e32.html" xlink:title="Domain" target="_top">
<path fill="#edf0f7" stroke="red" d="M244.5-36h-57v20h57z"/>
<text x="216" y="-23.2" font-family="Consolas" font-size="11" text-anchor="middle">Domain</text>
</a></g><g class="edge"><title>dir_7412e7ecfbe0ab06c734754b96df38bb-&gt;dir_8c888e3f1190d8e08b273c29d1443e32</title><a xlink:href="dir_000077_000019.html" target="_top">
<path fill="none" stroke="#63b8ff" d="M80.16-72.56c26.61 8.93 68.88 23.1 99.2 33.27"/>
<path fill="#63b8ff" stroke="#63b8ff" d="m180.77-42.51 8.37 6.5-10.59.14z"/>
</a><a xlink:href="dir_000077_000019.html" xlink:title="4" target="_top">
<text x="178.27" y="-43.54" fill="#63b8ff" font-family="Consolas" font-size="11" text-anchor="middle">4</text>
</a></g><g class="node"><title>dir_d4cf6f20ffb08aa0d4b9ebd27f6cf468</title><a xlink:href="dir_d4cf6f20ffb08aa0d4b9ebd27f6cf468.html" xlink:title="Section" target="_top">
<path fill="#edf0f7" stroke="red" d="M327-36h-64v20h64z"/>
<text x="295" y="-23.2" font-family="Consolas" font-size="11" text-anchor="middle">Section</text>
</a></g><g class="edge"><title>dir_7412e7ecfbe0ab06c734754b96df38bb-&gt;dir_d4cf6f20ffb08aa0d4b9ebd27f6cf468</title><a xlink:href="dir_000077_000061.html" target="_top">
<path fill="none" stroke="#63b8ff" d="M80.23-75.32c41.1 9.24 122.91 27.65 172.84 38.89"/>
<path fill="#63b8ff" stroke="#63b8ff" d="m253.93-39.83 8.99 5.61L252.39-33z"/>
</a><a xlink:href="dir_000077_000061.html" xlink:title="2" target="_top">
<text x="251.05" y="-40.59" fill="#63b8ff" font-family="Consolas" font-size="11" text-anchor="middle">2</text>
</a></g></g></svg>