<?xml version="1.0" encoding="UTF-8" standalone="no"?>
<!DOCTYPE svg PUBLIC "-//W3C//DTD SVG 1.1//EN"
 "http://www.w3.org/Graphics/SVG/1.1/DTD/svg11.dtd">
<!-- Generated by graphviz version 2.43.0 (0)
 -->
<!-- Title: LJPotential2D Pages: 1 -->
<svg width="784pt" height="1467pt"
 viewBox="0.00 0.00 784.00 1467.00" xmlns="http://www.w3.org/2000/svg" xmlns:xlink="http://www.w3.org/1999/xlink">
<g id="graph0" class="graph" transform="scale(1 1) rotate(0) translate(4 1463)">
<title>LJPotential2D</title>
<!-- Node1 -->
<g id="Node000001" class="node">
<title>Node1</title>
<g id="a_Node000001"><a xlink:title="A LJPotential2D class.">
<polygon fill="#999999" stroke="transparent" points="218,-52 57,-52 57,0 218,0 218,-52"/>
<text text-anchor="start" x="94" y="-39.2" font-family="Consolas" font-size="11.00">LJPotential2D</text>
<text text-anchor="start" x="134.5" y="-23.2" font-family="Consolas" font-size="11.00"> </text>
<text text-anchor="start" x="61.5" y="-7.2" font-family="Consolas" font-size="11.00">+</text>
<text text-anchor="start" x="72.5" y="-7.2" font-family="Consolas" font-size="11.00">ParticleCollision2D()</text>
<polygon fill="#666666" stroke="#666666" points="57.5,-34 57.5,-34 218.5,-34 218.5,-34 57.5,-34"/>
<polygon fill="#666666" stroke="#666666" points="57.5,-18 57.5,-18 218.5,-18 218.5,-18 57.5,-18"/>
<polygon fill="none" stroke="#666666" points="57,0 57,-52 218,-52 218,0 57,0"/>
</a>
</g>
</g>
<!-- Node2 -->
<g id="Node000002" class="node">
<title>Node2</title>
<g id="a_Node000002"><a xlink:href="../../d2/dde/class_particle_collision2_d.html" target="_top" xlink:title="A ParticleCollision2D class.">
<polygon fill="white" stroke="transparent" points="218,-141 57,-141 57,-89 218,-89 218,-141"/>
<text text-anchor="start" x="73.5" y="-128.2" font-family="Consolas" font-size="11.00">ParticleCollision2D</text>
<text text-anchor="start" x="134.5" y="-112.2" font-family="Consolas" font-size="11.00"> </text>
<text text-anchor="start" x="61.5" y="-96.2" font-family="Consolas" font-size="11.00">+</text>
<text text-anchor="start" x="72.5" y="-96.2" font-family="Consolas" font-size="11.00">ParticleCollision2D()</text>
<polygon fill="#666666" stroke="#666666" points="57.5,-123 57.5,-123 218.5,-123 218.5,-123 57.5,-123"/>
<polygon fill="#666666" stroke="#666666" points="57.5,-107 57.5,-107 218.5,-107 218.5,-107 57.5,-107"/>
<polygon fill="none" stroke="#666666" points="57,-89 57,-141 218,-141 218,-89 57,-89"/>
</a>
</g>
</g>
<!-- Node2&#45;&gt;Node1 -->
<g id="edge1_Node000001_Node000002" class="edge">
<title>Node2&#45;&gt;Node1</title>
<g id="a_edge1_Node000001_Node000002"><a xlink:title=" ">
<path fill="none" stroke="#63b8ff" d="M137.5,-78.69C137.5,-69.78 137.5,-60.4 137.5,-52.11"/>
<polygon fill="none" stroke="#63b8ff" points="134,-78.84 137.5,-88.84 141,-78.84 134,-78.84"/>
</a>
</g>
</g>
<!-- Node3 -->
<g id="Node000003" class="node">
<title>Node3</title>
<g id="a_Node000003"><a xlink:href="../../d0/de2/class_particle_collision.html" target="_top" xlink:title="A ParticleCollision class.">
<polygon fill="white" stroke="transparent" points="155,-333 0,-333 0,-201 155,-201 155,-333"/>
<text text-anchor="start" x="20.5" y="-320.2" font-family="Consolas" font-size="11.00">ParticleCollision</text>
<text text-anchor="start" x="74.5" y="-304.2" font-family="Consolas" font-size="11.00"> </text>
<text text-anchor="start" x="4.5" y="-288.2" font-family="Consolas" font-size="11.00">+</text>
<text text-anchor="start" x="15.5" y="-288.2" font-family="Consolas" font-size="11.00">ParticleCollision()</text>
<text text-anchor="start" x="4.5" y="-272.2" font-family="Consolas" font-size="11.00">+</text>
<text text-anchor="start" x="15.5" y="-272.2" font-family="Consolas" font-size="11.00">initialize()</text>
<text text-anchor="start" x="4.5" y="-256.2" font-family="Consolas" font-size="11.00">+</text>
<text text-anchor="start" x="15.5" y="-256.2" font-family="Consolas" font-size="11.00">process()</text>
<text text-anchor="start" x="4.5" y="-240.2" font-family="Consolas" font-size="11.00">+</text>
<text text-anchor="start" x="15.5" y="-240.2" font-family="Consolas" font-size="11.00">process_resistance()</text>
<text text-anchor="start" x="4.5" y="-224.2" font-family="Consolas" font-size="11.00">#</text>
<text text-anchor="start" x="15.5" y="-224.2" font-family="Consolas" font-size="11.00">apply_contact()</text>
<text text-anchor="start" x="4.5" y="-208.2" font-family="Consolas" font-size="11.00">#</text>
<text text-anchor="start" x="15.5" y="-208.2" font-family="Consolas" font-size="11.00">process_meta()</text>
<polygon fill="#666666" stroke="#666666" points="0.5,-315 0.5,-315 155.5,-315 155.5,-315 0.5,-315"/>
<polygon fill="#666666" stroke="#666666" points="0.5,-299 0.5,-299 155.5,-299 155.5,-299 0.5,-299"/>
<polygon fill="none" stroke="#666666" points="0,-201 0,-333 155,-333 155,-201 0,-201"/>
</a>
</g>
</g>
<!-- Node3&#45;&gt;Node2 -->
<g id="edge2_Node000002_Node000003" class="edge">
<title>Node3&#45;&gt;Node2</title>
<g id="a_edge2_Node000002_Node000003"><a xlink:title=" ">
<path fill="none" stroke="#63b8ff" d="M107.4,-191.25C114.61,-173.23 121.82,-155.2 127.38,-141.3"/>
<polygon fill="none" stroke="#63b8ff" points="104.11,-190.06 103.64,-200.64 110.61,-192.66 104.11,-190.06"/>
</a>
</g>
</g>
<!-- Node4 -->
<g id="Node000004" class="node">
<title>Node4</title>
<g id="a_Node000004"><a xlink:href="../../d8/d71/class_constraint.html" target="_top" xlink:title="A Constraint class.">
<polygon fill="white" stroke="transparent" points="378,-534 183,-534 183,-370 378,-370 378,-534"/>
<text text-anchor="start" x="247" y="-521.2" font-family="Consolas" font-size="11.00">Constraint</text>
<text text-anchor="start" x="277.5" y="-505.2" font-family="Consolas" font-size="11.00"> </text>
<text text-anchor="start" x="187.5" y="-489.2" font-family="Consolas" font-size="11.00">+</text>
<text text-anchor="start" x="198.5" y="-489.2" font-family="Consolas" font-size="11.00">Constraint()</text>
<text text-anchor="start" x="187.5" y="-473.2" font-family="Consolas" font-size="11.00">+</text>
<text text-anchor="start" x="198.5" y="-473.2" font-family="Consolas" font-size="11.00">get_resistance()</text>
<text text-anchor="start" x="187.5" y="-457.2" font-family="Consolas" font-size="11.00">+</text>
<text text-anchor="start" x="198.5" y="-457.2" font-family="Consolas" font-size="11.00">get_stiffness()</text>
<text text-anchor="start" x="187.5" y="-441.2" font-family="Consolas" font-size="11.00">+</text>
<text text-anchor="start" x="198.5" y="-441.2" font-family="Consolas" font-size="11.00">get_auxiliary_resistance()</text>
<text text-anchor="start" x="187.5" y="-425.2" font-family="Consolas" font-size="11.00">+</text>
<text text-anchor="start" x="198.5" y="-425.2" font-family="Consolas" font-size="11.00">get_auxiliary_load()</text>
<text text-anchor="start" x="187.5" y="-409.2" font-family="Consolas" font-size="11.00">+</text>
<text text-anchor="start" x="198.5" y="-409.2" font-family="Consolas" font-size="11.00">get_auxiliary_stiffness()</text>
<text text-anchor="start" x="187.5" y="-393.2" font-family="Consolas" font-size="11.00">+</text>
<text text-anchor="start" x="198.5" y="-393.2" font-family="Consolas" font-size="11.00">set_multiplier_size()</text>
<text text-anchor="start" x="187.5" y="-377.2" font-family="Consolas" font-size="11.00">+</text>
<text text-anchor="start" x="198.5" y="-377.2" font-family="Consolas" font-size="11.00">get_multiplier_size()</text>
<polygon fill="#666666" stroke="#666666" points="183.5,-516 183.5,-516 378.5,-516 378.5,-516 183.5,-516"/>
<polygon fill="#666666" stroke="#666666" points="183.5,-500 183.5,-500 378.5,-500 378.5,-500 183.5,-500"/>
<polygon fill="none" stroke="#666666" points="183,-370 183,-534 378,-534 378,-370 183,-370"/>
</a>
</g>
</g>
<!-- Node4&#45;&gt;Node3 -->
<g id="edge3_Node000003_Node000004" class="edge">
<title>Node4&#45;&gt;Node3</title>
<g id="a_edge3_Node000003_Node000004"><a xlink:title=" ">
<path fill="none" stroke="#63b8ff" d="M182.86,-362.98C171.68,-352.9 160.45,-342.77 149.69,-333.08"/>
<polygon fill="none" stroke="#63b8ff" points="180.8,-365.84 190.57,-369.93 185.49,-360.64 180.8,-365.84"/>
</a>
</g>
</g>
<!-- Node5 -->
<g id="Node000005" class="node">
<title>Node5</title>
<g id="a_Node000005"><a xlink:href="../../da/d44/class_conditional_modifier.html" target="_top" xlink:title="Abstract base for node/element&#45;scoped, step&#45;conditional modifiers (constraints and loads).">
<polygon fill="white" stroke="transparent" points="689,-910 528,-910 528,-618 689,-618 689,-910"/>
<text text-anchor="start" x="544.5" y="-897.2" font-family="Consolas" font-size="11.00">ConditionalModifier</text>
<text text-anchor="start" x="605.5" y="-881.2" font-family="Consolas" font-size="11.00"> </text>
<text text-anchor="start" x="532.5" y="-865.2" font-family="Consolas" font-size="11.00">+</text>
<text text-anchor="start" x="543.5" y="-865.2" font-family="Consolas" font-size="11.00">ConditionalModifier()</text>
<text text-anchor="start" x="532.5" y="-849.2" font-family="Consolas" font-size="11.00">+</text>
<text text-anchor="start" x="543.5" y="-849.2" font-family="Consolas" font-size="11.00">initialize()</text>
<text text-anchor="start" x="532.5" y="-833.2" font-family="Consolas" font-size="11.00">+</text>
<text text-anchor="start" x="543.5" y="-833.2" font-family="Consolas" font-size="11.00">process()</text>
<text text-anchor="start" x="532.5" y="-817.2" font-family="Consolas" font-size="11.00">+</text>
<text text-anchor="start" x="543.5" y="-817.2" font-family="Consolas" font-size="11.00">process_resistance()</text>
<text text-anchor="start" x="532.5" y="-801.2" font-family="Consolas" font-size="11.00">+</text>
<text text-anchor="start" x="543.5" y="-801.2" font-family="Consolas" font-size="11.00">stage()</text>
<text text-anchor="start" x="532.5" y="-785.2" font-family="Consolas" font-size="11.00">+</text>
<text text-anchor="start" x="543.5" y="-785.2" font-family="Consolas" font-size="11.00">get_involving_nodes()</text>
<text text-anchor="start" x="532.5" y="-769.2" font-family="Consolas" font-size="11.00">+</text>
<text text-anchor="start" x="543.5" y="-769.2" font-family="Consolas" font-size="11.00">get_node_dof()</text>
<text text-anchor="start" x="532.5" y="-753.2" font-family="Consolas" font-size="11.00">+</text>
<text text-anchor="start" x="543.5" y="-753.2" font-family="Consolas" font-size="11.00">deinitialize()</text>
<text text-anchor="start" x="532.5" y="-737.2" font-family="Consolas" font-size="11.00">+</text>
<text text-anchor="start" x="543.5" y="-737.2" font-family="Consolas" font-size="11.00">is_initialized()</text>
<text text-anchor="start" x="532.5" y="-721.2" font-family="Consolas" font-size="11.00">+</text>
<text text-anchor="start" x="543.5" y="-721.2" font-family="Consolas" font-size="11.00">set_start_step()</text>
<text text-anchor="start" x="543.5" y="-705.2" font-family="Consolas" font-size="11.00">and 9 more...</text>
<text text-anchor="start" x="532.5" y="-689.2" font-family="Consolas" font-size="11.00">#</text>
<text text-anchor="start" x="543.5" y="-689.2" font-family="Consolas" font-size="11.00">get_amplitude()</text>
<text text-anchor="start" x="532.5" y="-673.2" font-family="Consolas" font-size="11.00">#</text>
<text text-anchor="start" x="543.5" y="-673.2" font-family="Consolas" font-size="11.00">get_dof_component()</text>
<text text-anchor="start" x="532.5" y="-657.2" font-family="Consolas" font-size="11.00">#</text>
<text text-anchor="start" x="543.5" y="-657.2" font-family="Consolas" font-size="11.00">validate_node()</text>
<text text-anchor="start" x="532.5" y="-641.2" font-family="Consolas" font-size="11.00">#</text>
<text text-anchor="start" x="543.5" y="-641.2" font-family="Consolas" font-size="11.00">validate_element()</text>
<text text-anchor="start" x="532.5" y="-625.2" font-family="Consolas" font-size="11.00">#</text>
<text text-anchor="start" x="543.5" y="-625.2" font-family="Consolas" font-size="11.00">collect_node_dof()</text>
<polygon fill="#666666" stroke="#666666" points="528.5,-892 528.5,-892 689.5,-892 689.5,-892 528.5,-892"/>
<polygon fill="#666666" stroke="#666666" points="528.5,-876 528.5,-876 689.5,-876 689.5,-876 528.5,-876"/>
<polygon fill="none" stroke="#666666" points="528,-618 528,-910 689,-910 689,-618 528,-618"/>
</a>
</g>
</g>
<!-- Node5&#45;&gt;Node4 -->
<g id="edge4_Node000004_Node000005" class="edge">
<title>Node5&#45;&gt;Node4</title>
<g id="a_edge4_Node000004_Node000005"><a xlink:title=" ">
<path fill="none" stroke="#63b8ff" d="M628.46,-607.98C624.93,-587.77 617.84,-568.42 605.5,-552 577.9,-515.29 463.58,-486.6 378.28,-469.76"/>
<polygon fill="none" stroke="#63b8ff" points="625.01,-608.57 629.91,-617.96 631.93,-607.56 625.01,-608.57"/>
</a>
</g>
</g>
<!-- Node6 -->
<g id="Node000006" class="node">
<title>Node6</title>
<g id="a_Node000006"><a xlink:href="../../db/db8/class_unique_tag.html" target="_top" xlink:title="Label objects that cannot be copied.">
<polygon fill="white" stroke="transparent" points="776,-1146 675,-1146 675,-982 776,-982 776,-1146"/>
<text text-anchor="start" x="695.5" y="-1133.2" font-family="Consolas" font-size="11.00">UniqueTag</text>
<text text-anchor="start" x="722.5" y="-1117.2" font-family="Consolas" font-size="11.00"> </text>
<text text-anchor="start" x="679.5" y="-1101.2" font-family="Consolas" font-size="11.00">+</text>
<text text-anchor="start" x="690.5" y="-1101.2" font-family="Consolas" font-size="11.00">UniqueTag()</text>
<text text-anchor="start" x="679.5" y="-1085.2" font-family="Consolas" font-size="11.00">+</text>
<text text-anchor="start" x="690.5" y="-1085.2" font-family="Consolas" font-size="11.00">UniqueTag()</text>
<text text-anchor="start" x="679.5" y="-1069.2" font-family="Consolas" font-size="11.00">+</text>
<text text-anchor="start" x="690.5" y="-1069.2" font-family="Consolas" font-size="11.00">operator=()</text>
<text text-anchor="start" x="679.5" y="-1053.2" font-family="Consolas" font-size="11.00">+</text>
<text text-anchor="start" x="690.5" y="-1053.2" font-family="Consolas" font-size="11.00">operator=()</text>
<text text-anchor="start" x="679.5" y="-1037.2" font-family="Consolas" font-size="11.00">+</text>
<text text-anchor="start" x="690.5" y="-1037.2" font-family="Consolas" font-size="11.00">~UniqueTag()</text>
<text text-anchor="start" x="679.5" y="-1021.2" font-family="Consolas" font-size="11.00">+</text>
<text text-anchor="start" x="690.5" y="-1021.2" font-family="Consolas" font-size="11.00">Tag()</text>
<text text-anchor="start" x="679.5" y="-1005.2" font-family="Consolas" font-size="11.00">+</text>
<text text-anchor="start" x="690.5" y="-1005.2" font-family="Consolas" font-size="11.00">Tag()</text>
<text text-anchor="start" x="679.5" y="-989.2" font-family="Consolas" font-size="11.00">+</text>
<text text-anchor="start" x="690.5" y="-989.2" font-family="Consolas" font-size="11.00">Tag()</text>
<polygon fill="#666666" stroke="#666666" points="675.5,-1128 675.5,-1128 776.5,-1128 776.5,-1128 675.5,-1128"/>
<polygon fill="#666666" stroke="#666666" points="675.5,-1112 675.5,-1112 776.5,-1112 776.5,-1112 675.5,-1112"/>
<polygon fill="none" stroke="#666666" points="675,-982 675,-1146 776,-1146 776,-982 675,-982"/>
</a>
</g>
</g>
<!-- Node6&#45;&gt;Node5 -->
<g id="edge5_Node000005_Node000006" class="edge">
<title>Node6&#45;&gt;Node5</title>
<g id="a_edge5_Node000005_Node000006"><a xlink:title=" ">
<path fill="none" stroke="#63b8ff" d="M721.78,-971.52C719.54,-956.72 716.26,-941.75 711.5,-928 705.69,-911.24 697.88,-894.43 689.13,-878.31"/>
<polygon fill="none" stroke="#63b8ff" points="718.35,-972.29 723.16,-981.73 725.28,-971.35 718.35,-972.29"/>
</a>
</g>
</g>
<!-- Node7 -->
<g id="Node000007" class="node">
<title>Node7</title>
<g id="a_Node000007"><a xlink:href="../../d0/d57/class_tag.html" target="_top" xlink:title="A base Tag class.">
<polygon fill="white" stroke="transparent" points="776,-1459 675,-1459 675,-1183 776,-1183 776,-1459"/>
<text text-anchor="start" x="715.5" y="-1446.2" font-family="Consolas" font-size="11.00">Tag</text>
<text text-anchor="start" x="722.5" y="-1430.2" font-family="Consolas" font-size="11.00"> </text>
<text text-anchor="start" x="679.5" y="-1414.2" font-family="Consolas" font-size="11.00">+</text>
<text text-anchor="start" x="690.5" y="-1414.2" font-family="Consolas" font-size="11.00">Tag()</text>
<text text-anchor="start" x="679.5" y="-1398.2" font-family="Consolas" font-size="11.00">+</text>
<text text-anchor="start" x="690.5" y="-1398.2" font-family="Consolas" font-size="11.00">Tag()</text>
<text text-anchor="start" x="679.5" y="-1382.2" font-family="Consolas" font-size="11.00">+</text>
<text text-anchor="start" x="690.5" y="-1382.2" font-family="Consolas" font-size="11.00">Tag()</text>
<text text-anchor="start" x="679.5" y="-1366.2" font-family="Consolas" font-size="11.00">+</text>
<text text-anchor="start" x="690.5" y="-1366.2" font-family="Consolas" font-size="11.00">operator=()</text>
<text text-anchor="start" x="679.5" y="-1350.2" font-family="Consolas" font-size="11.00">+</text>
<text text-anchor="start" x="690.5" y="-1350.2" font-family="Consolas" font-size="11.00">operator=()</text>
<text text-anchor="start" x="679.5" y="-1334.2" font-family="Consolas" font-size="11.00">+</text>
<text text-anchor="start" x="690.5" y="-1334.2" font-family="Consolas" font-size="11.00">~Tag()</text>
<text text-anchor="start" x="679.5" y="-1318.2" font-family="Consolas" font-size="11.00">+</text>
<text text-anchor="start" x="690.5" y="-1318.2" font-family="Consolas" font-size="11.00">set_tag()</text>
<text text-anchor="start" x="679.5" y="-1302.2" font-family="Consolas" font-size="11.00">+</text>
<text text-anchor="start" x="690.5" y="-1302.2" font-family="Consolas" font-size="11.00">get_tag()</text>
<text text-anchor="start" x="679.5" y="-1286.2" font-family="Consolas" font-size="11.00">+</text>
<text text-anchor="start" x="690.5" y="-1286.2" font-family="Consolas" font-size="11.00">enable()</text>
<text text-anchor="start" x="679.5" y="-1270.2" font-family="Consolas" font-size="11.00">+</text>
<text text-anchor="start" x="690.5" y="-1270.2" font-family="Consolas" font-size="11.00">disable()</text>
<text text-anchor="start" x="679.5" y="-1254.2" font-family="Consolas" font-size="11.00">+</text>
<text text-anchor="start" x="690.5" y="-1254.2" font-family="Consolas" font-size="11.00">guard()</text>
<text text-anchor="start" x="679.5" y="-1238.2" font-family="Consolas" font-size="11.00">+</text>
<text text-anchor="start" x="690.5" y="-1238.2" font-family="Consolas" font-size="11.00">unguard()</text>
<text text-anchor="start" x="679.5" y="-1222.2" font-family="Consolas" font-size="11.00">+</text>
<text text-anchor="start" x="690.5" y="-1222.2" font-family="Consolas" font-size="11.00">is_active()</text>
<text text-anchor="start" x="679.5" y="-1206.2" font-family="Consolas" font-size="11.00">+</text>
<text text-anchor="start" x="690.5" y="-1206.2" font-family="Consolas" font-size="11.00">is_guarded()</text>
<text text-anchor="start" x="679.5" y="-1190.2" font-family="Consolas" font-size="11.00">+</text>
<text text-anchor="start" x="690.5" y="-1190.2" font-family="Consolas" font-size="11.00">print()</text>
<polygon fill="#666666" stroke="#666666" points="675.5,-1441 675.5,-1441 776.5,-1441 776.5,-1441 675.5,-1441"/>
<polygon fill="#666666" stroke="#666666" points="675.5,-1425 675.5,-1425 776.5,-1425 776.5,-1425 675.5,-1425"/>
<polygon fill="none" stroke="#666666" points="675,-1183 675,-1459 776,-1459 776,-1183 675,-1183"/>
</a>
</g>
</g>
<!-- Node7&#45;&gt;Node6 -->
<g id="edge6_Node000006_Node000007" class="edge">
<title>Node7&#45;&gt;Node6</title>
<g id="a_edge6_Node000006_Node000007"><a xlink:title=" ">
<path fill="none" stroke="#63b8ff" d="M725.5,-1172.58C725.5,-1163.58 725.5,-1154.71 725.5,-1146.17"/>
<polygon fill="none" stroke="#63b8ff" points="722,-1172.8 725.5,-1182.8 729,-1172.8 722,-1172.8"/>
</a>
</g>
</g>
<!-- Node8 -->
<g id="Node000008" class="node">
<title>Node8</title>
<g id="a_Node000008"><a xlink:title=" ">
<polygon fill="white" stroke="transparent" points="188,-1090 123,-1090 123,-1038 188,-1038 188,-1090"/>
<text text-anchor="start" x="128.5" y="-1077.2" font-family="Consolas" font-size="11.00">unsigned</text>
<text text-anchor="start" x="152.5" y="-1061.2" font-family="Consolas" font-size="11.00"> </text>
<text text-anchor="start" x="152.5" y="-1045.2" font-family="Consolas" font-size="11.00"> </text>
<polygon fill="#666666" stroke="#666666" points="123.5,-1072 123.5,-1072 188.5,-1072 188.5,-1072 123.5,-1072"/>
<polygon fill="#666666" stroke="#666666" points="123.5,-1056 123.5,-1056 188.5,-1056 188.5,-1056 123.5,-1056"/>
<polygon fill="none" stroke="#666666" points="123,-1038 123,-1090 188,-1090 188,-1038 123,-1038"/>
</a>
</g>
</g>
<!-- Node8&#45;&gt;Node3 -->
<g id="edge14_Node000003_Node000008" class="edge">
<title>Node8&#45;&gt;Node3</title>
<g id="a_edge14_Node000003_Node000008"><a xlink:title=" ">
<path fill="none" stroke="#63b8ff" d="M150.84,-1037.77C138.24,-968.27 103.4,-768.07 88.5,-600 80.78,-512.93 78.35,-412.59 77.64,-345.21"/>
<polygon fill="none" stroke="#63b8ff" points="77.64,-345.02 73.59,-339.05 77.53,-333.02 81.59,-338.98 77.64,-345.02"/>
</a>
</g>
<text text-anchor="middle" x="126" y="-573.2" font-family="Consolas" font-size="11.00" fill="grey"> #dimension</text>
</g>
<!-- Node8&#45;&gt;Node4 -->
<g id="edge10_Node000004_Node000008" class="edge">
<title>Node8&#45;&gt;Node4</title>
<g id="a_edge10_Node000004_Node000008"><a xlink:title=" ">
<path fill="none" stroke="#63b8ff" d="M153.81,-1037.71C149.73,-969.49 141.38,-776.13 165.5,-618 170.1,-587.82 169.2,-578.41 184.5,-552 186.05,-549.33 187.69,-546.67 189.4,-544.04"/>
<polygon fill="none" stroke="#63b8ff" points="189.51,-543.87 189.64,-536.66 196.35,-534.01 196.22,-541.22 189.51,-543.87"/>
</a>
</g>
<text text-anchor="middle" x="223" y="-761.2" font-family="Consolas" font-size="11.00" fill="grey"> #lagrangian_size</text>
</g>
<!-- Node8&#45;&gt;Node5 -->
<g id="edge7_Node000005_Node000008" class="edge">
<title>Node8&#45;&gt;Node5</title>
<g id="a_edge7_Node000005_Node000008"><a xlink:title=" ">
<path fill="none" stroke="#63b8ff" d="M188.08,-1045.4C240.24,-1017.72 346.23,-963.52 440.5,-928 467.75,-917.73 479.65,-926.71 503.5,-910 508.7,-906.36 513.73,-902.38 518.6,-898.13"/>
<polygon fill="none" stroke="#63b8ff" points="518.94,-897.81 520.63,-890.8 527.75,-889.66 526.06,-896.67 518.94,-897.81"/>
</a>
</g>
<text text-anchor="middle" x="478" y="-949.2" font-family="Consolas" font-size="11.00" fill="grey"> #end_step</text>
<text text-anchor="middle" x="478" y="-937.2" font-family="Consolas" font-size="11.00" fill="grey">#start_step</text>
</g>
<!-- Node9 -->
<g id="Node000009" class="node">
<title>Node9</title>
<g id="a_Node000009"><a xlink:title=" ">
<polygon fill="white" stroke="transparent" points="571,-1090 432,-1090 432,-1038 571,-1038 571,-1090"/>
<text text-anchor="start" x="437.5" y="-1077.2" font-family="Consolas" font-size="11.00">vector&lt; Node::DOF &gt;</text>
<text text-anchor="start" x="498.5" y="-1061.2" font-family="Consolas" font-size="11.00"> </text>
<text text-anchor="start" x="498.5" y="-1045.2" font-family="Consolas" font-size="11.00"> </text>
<polygon fill="#666666" stroke="#666666" points="432.5,-1072 432.5,-1072 571.5,-1072 571.5,-1072 432.5,-1072"/>
<polygon fill="#666666" stroke="#666666" points="432.5,-1056 432.5,-1056 571.5,-1056 571.5,-1056 432.5,-1056"/>
<polygon fill="none" stroke="#666666" points="432,-1038 432,-1090 571,-1090 571,-1038 432,-1038"/>
</a>
</g>
</g>
<!-- Node9&#45;&gt;Node5 -->
<g id="edge8_Node000005_Node000009" class="edge">
<title>Node9&#45;&gt;Node5</title>
<g id="a_edge8_Node000005_Node000009"><a xlink:title=" ">
<path fill="none" stroke="#63b8ff" d="M504.85,-1037.62C508.92,-1010.12 516.86,-965.16 529.5,-928 530.21,-925.91 530.94,-923.82 531.69,-921.72"/>
<polygon fill="none" stroke="#63b8ff" points="531.7,-921.7 530.03,-914.68 535.86,-910.44 537.53,-917.46 531.7,-921.7"/>
</a>
</g>
<text text-anchor="middle" x="567" y="-943.2" font-family="Consolas" font-size="11.00" fill="grey"> #dof_order</text>
</g>
<!-- Node10 -->
<g id="Node000010" class="node">
<title>Node10</title>
<g id="a_Node000010"><a xlink:href="../../dd/d59/classuvec.html" target="_top" xlink:title=" ">
<polygon fill="white" stroke="transparent" points="627.5,-1090 589.5,-1090 589.5,-1038 627.5,-1038 627.5,-1090"/>
<text text-anchor="start" x="594.5" y="-1077.2" font-family="Consolas" font-size="11.00">uvec</text>
<text text-anchor="start" x="605" y="-1061.2" font-family="Consolas" font-size="11.00"> </text>
<text text-anchor="start" x="605" y="-1045.2" font-family="Consolas" font-size="11.00"> </text>
<polygon fill="#666666" stroke="#666666" points="589.5,-1072 589.5,-1072 627.5,-1072 627.5,-1072 589.5,-1072"/>
<polygon fill="#666666" stroke="#666666" points="589.5,-1056 589.5,-1056 627.5,-1056 627.5,-1056 589.5,-1056"/>
<polygon fill="none" stroke="#666666" points="589.5,-1038 589.5,-1090 627.5,-1090 627.5,-1038 589.5,-1038"/>
</a>
</g>
</g>
<!-- Node10&#45;&gt;Node5 -->
<g id="edge9_Node000005_Node000010" class="edge">
<title>Node10&#45;&gt;Node5</title>
<g id="a_edge9_Node000005_Node000010"><a xlink:title=" ">
<path fill="none" stroke="#63b8ff" d="M608.5,-1037.85C608.5,-1011.38 608.5,-967.38 608.5,-922.35"/>
<polygon fill="none" stroke="#63b8ff" points="608.5,-922.27 604.5,-916.27 608.5,-910.27 612.5,-916.27 608.5,-922.27"/>
</a>
</g>
<text text-anchor="middle" x="659.5" y="-955.2" font-family="Consolas" font-size="11.00" fill="grey"> #target_dof</text>
<text text-anchor="middle" x="659.5" y="-943.2" font-family="Consolas" font-size="11.00" fill="grey">#target_element</text>
<text text-anchor="middle" x="659.5" y="-931.2" font-family="Consolas" font-size="11.00" fill="grey">#target_node</text>
</g>
<!-- Node11 -->
<g id="Node000011" class="node">
<title>Node11</title>
<g id="a_Node000011"><a xlink:title=" ">
<polygon fill="white" stroke="transparent" points="320,-790 289,-790 289,-738 320,-738 320,-790"/>
<text text-anchor="start" x="294.5" y="-777.2" font-family="Consolas" font-size="11.00">vec</text>
<text text-anchor="start" x="301.5" y="-761.2" font-family="Consolas" font-size="11.00"> </text>
<text text-anchor="start" x="301.5" y="-745.2" font-family="Consolas" font-size="11.00"> </text>
<polygon fill="#666666" stroke="#666666" points="289.5,-772 289.5,-772 320.5,-772 320.5,-772 289.5,-772"/>
<polygon fill="#666666" stroke="#666666" points="289.5,-756 289.5,-756 320.5,-756 320.5,-756 289.5,-756"/>
<polygon fill="none" stroke="#666666" points="289,-738 289,-790 320,-790 320,-738 289,-738"/>
</a>
</g>
</g>
<!-- Node11&#45;&gt;Node4 -->
<g id="edge11_Node000004_Node000011" class="edge">
<title>Node11&#45;&gt;Node4</title>
<g id="a_edge11_Node000004_Node000011"><a xlink:title=" ">
<path fill="none" stroke="#63b8ff" d="M306.82,-737.79C308.3,-705.57 305.63,-650.12 274.5,-618 250.65,-593.38 220.72,-626.92 199.5,-600 186.24,-583.18 187.27,-563.91 195.48,-544.97"/>
<polygon fill="none" stroke="#63b8ff" points="195.51,-544.91 194.63,-537.76 200.9,-534.2 201.78,-541.35 195.51,-544.91"/>
</a>
</g>
<text text-anchor="middle" x="270.5" y="-591.2" font-family="Consolas" font-size="11.00" fill="grey"> #auxiliary_load</text>
<text text-anchor="middle" x="270.5" y="-579.2" font-family="Consolas" font-size="11.00" fill="grey">#auxiliary_resistance</text>
<text text-anchor="middle" x="270.5" y="-567.2" font-family="Consolas" font-size="11.00" fill="grey">#current_lambda</text>
<text text-anchor="middle" x="270.5" y="-555.2" font-family="Consolas" font-size="11.00" fill="grey">#trial_lambda</text>
</g>
<!-- Node12 -->
<g id="Node000012" class="node">
<title>Node12</title>
<g id="a_Node000012"><a xlink:title=" ">
<polygon fill="white" stroke="transparent" points="389,-790 338,-790 338,-738 389,-738 389,-790"/>
<text text-anchor="start" x="343.5" y="-777.2" font-family="Consolas" font-size="11.00">sp_vec</text>
<text text-anchor="start" x="360.5" y="-761.2" font-family="Consolas" font-size="11.00"> </text>
<text text-anchor="start" x="360.5" y="-745.2" font-family="Consolas" font-size="11.00"> </text>
<polygon fill="#666666" stroke="#666666" points="338.5,-772 338.5,-772 389.5,-772 389.5,-772 338.5,-772"/>
<polygon fill="#666666" stroke="#666666" points="338.5,-756 338.5,-756 389.5,-756 389.5,-756 338.5,-756"/>
<polygon fill="none" stroke="#666666" points="338,-738 338,-790 389,-790 389,-738 338,-738"/>
</a>
</g>
</g>
<!-- Node12&#45;&gt;Node4 -->
<g id="edge12_Node000004_Node000012" class="edge">
<title>Node12&#45;&gt;Node4</title>
<g id="a_edge12_Node000004_Node000012"><a xlink:title=" ">
<path fill="none" stroke="#63b8ff" d="M364.43,-737.87C365.16,-697.53 363.39,-616.33 341.5,-552 340.74,-549.78 339.93,-547.55 339.07,-545.33"/>
<polygon fill="none" stroke="#63b8ff" points="339.06,-545.31 333.03,-541.35 334.36,-534.27 340.39,-538.22 339.06,-545.31"/>
</a>
</g>
<text text-anchor="middle" x="393.5" y="-573.2" font-family="Consolas" font-size="11.00" fill="grey"> #resistance</text>
</g>
<!-- Node13 -->
<g id="Node000013" class="node">
<title>Node13</title>
<g id="a_Node000013"><a xlink:title=" ">
<polygon fill="white" stroke="transparent" points="494,-790 443,-790 443,-738 494,-738 494,-790"/>
<text text-anchor="start" x="448.5" y="-777.2" font-family="Consolas" font-size="11.00">sp_mat</text>
<text text-anchor="start" x="465.5" y="-761.2" font-family="Consolas" font-size="11.00"> </text>
<text text-anchor="start" x="465.5" y="-745.2" font-family="Consolas" font-size="11.00"> </text>
<polygon fill="#666666" stroke="#666666" points="443.5,-772 443.5,-772 494.5,-772 494.5,-772 443.5,-772"/>
<polygon fill="#666666" stroke="#666666" points="443.5,-756 443.5,-756 494.5,-756 494.5,-756 443.5,-756"/>
<polygon fill="none" stroke="#666666" points="443,-738 443,-790 494,-790 494,-738 443,-738"/>
</a>
</g>
</g>
<!-- Node13&#45;&gt;Node4 -->
<g id="edge13_Node000004_Node000013" class="edge">
<title>Node13&#45;&gt;Node4</title>
<g id="a_edge13_Node000004_Node000013"><a xlink:title=" ">
<path fill="none" stroke="#63b8ff" d="M471.35,-737.92C474.83,-695.86 476.19,-610.02 438.5,-552 425.81,-532.47 407.77,-516.09 388.39,-502.65"/>
<polygon fill="none" stroke="#63b8ff" points="388.17,-502.5 380.96,-502.53 378.16,-495.88 385.37,-495.85 388.17,-502.5"/>
</a>
</g>
<text text-anchor="middle" x="530.5" y="-579.2" font-family="Consolas" font-size="11.00" fill="grey"> #auxiliary_stiffness</text>
<text text-anchor="middle" x="530.5" y="-567.2" font-family="Consolas" font-size="11.00" fill="grey">#stiffness</text>
</g>
<!-- Node14 -->
<g id="Node000014" class="node">
<title>Node14</title>
<g id="a_Node000014"><a xlink:href="../../df/de6/classdouble.html" target="_top" xlink:title=" ">
<polygon fill="white" stroke="transparent" points="224,-293 173,-293 173,-241 224,-241 224,-293"/>
<text text-anchor="start" x="178.5" y="-280.2" font-family="Consolas" font-size="11.00">double</text>
<text text-anchor="start" x="195.5" y="-264.2" font-family="Consolas" font-size="11.00"> </text>
<text text-anchor="start" x="195.5" y="-248.2" font-family="Consolas" font-size="11.00"> </text>
<polygon fill="#666666" stroke="#666666" points="173.5,-275 173.5,-275 224.5,-275 224.5,-275 173.5,-275"/>
<polygon fill="#666666" stroke="#666666" points="173.5,-259 173.5,-259 224.5,-259 224.5,-259 173.5,-259"/>
<polygon fill="none" stroke="#666666" points="173,-241 173,-293 224,-293 224,-241 173,-241"/>
</a>
</g>
</g>
<!-- Node14&#45;&gt;Node2 -->
<g id="edge15_Node000002_Node000014" class="edge">
<title>Node14&#45;&gt;Node2</title>
<g id="a_edge15_Node000002_Node000014"><a xlink:title=" ">
<path fill="none" stroke="#63b8ff" d="M188.29,-240.89C178.48,-216.77 163.55,-180.05 152.41,-152.66"/>
<polygon fill="none" stroke="#63b8ff" points="152.26,-152.3 146.3,-148.25 147.74,-141.19 153.71,-145.24 152.26,-152.3"/>
</a>
</g>
<text text-anchor="middle" x="188.5" y="-174.2" font-family="Consolas" font-size="11.00" fill="grey"> #alpha</text>
<text text-anchor="middle" x="188.5" y="-162.2" font-family="Consolas" font-size="11.00" fill="grey">#space</text>
</g>
</g>
</svg>
