<svg xmlns="http://www.w3.org/2000/svg" xmlns:xlink="http://www.w3.org/1999/xlink" width="275pt" height="332pt" viewBox="0 0 274.5 332"><svg xmlns="http://www.w3.org/2000/svg" xmlns:xlink="http://www.w3.org/1999/xlink" xml:space="preserve" id="main" onload="init(evt)"><style>.edge,.node,[data-mouse-over-selected=false]{opacity:.7}.edge.selected,.node.selected,[data-mouse-over-selected=true]{opacity:1}.edge:hover path{stroke:red}.edge:hover polygon{stroke:red;fill:red}</style><script xlink:href="../../svg.min.js" type="application/ecmascript"/><svg id="graph" class="graph"><g id="graph0" class="graph" transform="translate(4 328)"><title>BSpline</title><g id="Node000001" class="node"><title>Node1</title><a id="a_Node000001">
<path fill="#999" stroke="transparent" d="M221-212H60V0h161z"/>
<text x="117" y="-199.2" font-family="Consolas" font-size="11">BSpline</text>
<text x="137.5" y="-183.2" font-family="Consolas" font-size="11"> </text>
<text x="64.5" y="-167.2" font-family="Consolas" font-size="11">+</text>
<text x="75.5" y="-167.2" font-family="Consolas" font-size="11">BSpline()</text>
<text x="64.5" y="-151.2" font-family="Consolas" font-size="11">+</text>
<text x="75.5" y="-151.2" font-family="Consolas" font-size="11">BSpline()</text>
<text x="64.5" y="-135.2" font-family="Consolas" font-size="11">+</text>
<text x="75.5" y="-135.2" font-family="Consolas" font-size="11">BSpline()</text>
<text x="64.5" y="-119.2" font-family="Consolas" font-size="11">+</text>
<text x="75.5" y="-119.2" font-family="Consolas" font-size="11">operator=()</text>
<text x="64.5" y="-103.2" font-family="Consolas" font-size="11">+</text>
<text x="75.5" y="-103.2" font-family="Consolas" font-size="11">operator=()</text>
<text x="64.5" y="-87.2" font-family="Consolas" font-size="11">+</text>
<text x="75.5" y="-87.2" font-family="Consolas" font-size="11">~BSpline()</text>
<text x="64.5" y="-71.2" font-family="Consolas" font-size="11">+</text>
<text x="75.5" y="-71.2" font-family="Consolas" font-size="11">set_control_polygon()</text>
<text x="64.5" y="-55.2" font-family="Consolas" font-size="11">+</text>
<text x="75.5" y="-55.2" font-family="Consolas" font-size="11">set_control_polygon()</text>
<text x="64.5" y="-39.2" font-family="Consolas" font-size="11">+</text>
<text x="75.5" y="-39.2" font-family="Consolas" font-size="11">get_knot()</text>
<text x="64.5" y="-23.2" font-family="Consolas" font-size="11">+</text>
<text x="75.5" y="-23.2" font-family="Consolas" font-size="11">get_order()</text>
<text x="75.5" y="-7.2" font-family="Consolas" font-size="11">and 13 more...</text>
<path fill="#666" stroke="#666" d="M60.5-194h161z"/>
<path fill="#666" stroke="#666" d="M60.5-178h161z"/>
<path fill="none" stroke="#666" d="M60 0v-212h161V0z"/>
</a></g><g id="Node000002" class="node"><title>Node2</title><a id="a_Node000002">
<path fill="#fff" stroke="transparent" d="M85-324H0v52h85z"/>
<text x="5.5" y="-311.2" font-family="Consolas" font-size="11">const uword</text>
<text x="39.5" y="-295.2" font-family="Consolas" font-size="11"> </text>
<text x="39.5" y="-279.2" font-family="Consolas" font-size="11"> </text>
<path fill="#666" stroke="#666" d="M.5-306h85z"/>
<path fill="#666" stroke="#666" d="M.5-290h85z"/>
<path fill="none" stroke="#666" d="M0-272v-52h85v52z"/>
</a></g><g id="edge1_Node000001_Node000002" class="edge"><title>Node2-&gt;Node1</title><a id="a_edge1_Node000001_Node000002">
<path fill="none" stroke="#63b8ff" d="M47.76-271.88c3.15 12.85 7.73 28.54 13.74 41.88 1.04 2.3 2.12 4.62 3.23 6.93"/>
<path fill="none" stroke="#63b8ff" d="m64.78-222.96-.88 7.16 6.27 3.57.88-7.16z"/>
</a><text x="99" y="-245.2" fill="gray" font-family="Consolas" font-size="11" text-anchor="middle"> #dimension</text><text x="99" y="-233.2" fill="gray" font-family="Consolas" font-size="11" text-anchor="middle">#order</text></g><g id="Node000003" class="node"><title>Node3</title><a id="a_Node000003">
<path fill="#fff" stroke="transparent" d="M156-324h-31v52h31z"/>
<text x="130.5" y="-311.2" font-family="Consolas" font-size="11">vec</text>
<text x="137.5" y="-295.2" font-family="Consolas" font-size="11"> </text>
<text x="137.5" y="-279.2" font-family="Consolas" font-size="11"> </text>
<path fill="#666" stroke="#666" d="M125.5-306h31z"/>
<path fill="#666" stroke="#666" d="M125.5-290h31z"/>
<path fill="none" stroke="#666" d="M125-272v-52h31v52z"/>
</a></g><g id="edge2_Node000001_Node000003" class="edge"><title>Node3-&gt;Node1</title><a id="a_edge2_Node000001_Node000003">
<path fill="none" stroke="#63b8ff" d="M140.5-271.77v47.28"/>
<path fill="none" stroke="#63b8ff" d="m140.5-224.36-4 6 4 6 4-6z"/>
</a><text x="161" y="-239.2" fill="gray" font-family="Consolas" font-size="11" text-anchor="middle"> #knot</text></g><g id="Node000004" class="node"><title>Node4</title><a id="a_Node000004">
<path fill="#fff" stroke="transparent" d="M266.5-324h-92v52h92z"/>
<text x="179.5" y="-311.2" font-family="Consolas" font-size="11">field&lt; vec &gt;</text>
<text x="217" y="-295.2" font-family="Consolas" font-size="11"> </text>
<text x="217" y="-279.2" font-family="Consolas" font-size="11"> </text>
<path fill="#666" stroke="#666" d="M174.5-306h92z"/>
<path fill="#666" stroke="#666" d="M174.5-290h92z"/>
<path fill="none" stroke="#666" d="M174.5-272v-52h92v52z"/>
</a></g><g id="edge3_Node000001_Node000004" class="edge"><title>Node4-&gt;Node1</title><a id="a_edge3_Node000001_Node000004">
<path fill="none" stroke="#63b8ff" d="M209.88-271.77c-5.52 13.1-12.7 30.15-20.34 48.3"/>
<path fill="none" stroke="#63b8ff" d="m189.52-223.42-6.02 3.98 1.36 7.08 6.02-3.98z"/>
</a><text x="217.5" y="-239.2" fill="gray" font-family="Consolas" font-size="11" text-anchor="middle"> #net</text></g></g></svg></svg><script type="application/ecmascript"><![CDATA[
document.addEventListener('DOMContentLoaded', (event) => {
  highlightEdges();
  highlightAdjacentNodes();
});
]]></script></svg>