<?xml version="1.0" encoding="UTF-8" standalone="no"?>
<!DOCTYPE svg PUBLIC "-//W3C//DTD SVG 1.1//EN"
 "http://www.w3.org/Graphics/SVG/1.1/DTD/svg11.dtd">
<!-- Generated by graphviz version 9.0.0 (20230911.1827)
 -->
<!-- Title: Converger::get_error Pages: 1 -->
<svg width="352pt" height="494pt"
 viewBox="0.00 0.00 352.00 493.50" xmlns="http://www.w3.org/2000/svg" xmlns:xlink="http://www.w3.org/1999/xlink">
<g id="graph0" class="graph" transform="scale(1 1) rotate(0) translate(4 489.5)">
<title>Converger::get_error</title>
<!-- Node1 -->
<g id="Node000001" class="node">
<title>Node1</title>
<g id="a_Node000001"><a xlink:title="method to return error.">
<polygon fill="#999999" stroke="#666666" points="344,-253.5 208,-253.5 208,-232 344,-232 344,-253.5"/>
<text text-anchor="middle" x="276" y="-239.05" font-family="Consolas" font-size="11.00">Converger::get_error</text>
</a>
</g>
</g>
<!-- Node2 -->
<g id="Node000002" class="node">
<title>Node2</title>
<g id="a_Node000002"><a xlink:href="../../db/d5a/class_abs_disp.html#a9f0e144a8072cee24388b8e741fb7f5c" target="_top" xlink:title=" ">
<polygon fill="white" stroke="#666666" points="157,-485.5 15,-485.5 15,-464 157,-464 157,-485.5"/>
<text text-anchor="middle" x="86" y="-471.05" font-family="Consolas" font-size="11.00">AbsDisp::is_converged</text>
</a>
</g>
</g>
<!-- Node1&#45;&gt;Node2 -->
<g id="edge1_Node000001_Node000002" class="edge">
<title>Node1&#45;&gt;Node2</title>
<g id="a_edge1_Node000001_Node000002"><a xlink:title=" ">
<path fill="none" stroke="#63b8ff" d="M270.82,-264.78C261.39,-308.21 234.23,-404.96 172,-454.75 167.5,-458.35 162.47,-461.32 157.15,-463.77"/>
<polygon fill="#63b8ff" stroke="#63b8ff" points="274.24,-265.56 272.81,-255.06 267.38,-264.16 274.24,-265.56"/>
</a>
</g>
</g>
<!-- Node3 -->
<g id="Node000003" class="node">
<title>Node3</title>
<g id="a_Node000003"><a xlink:href="../../d8/dab/class_abs_error.html#a06fbf8110bb88ee4793993279e7bb010" target="_top" xlink:title="Method to return conv_flag.">
<polygon fill="white" stroke="#666666" points="160,-445.5 12,-445.5 12,-424 160,-424 160,-445.5"/>
<text text-anchor="middle" x="86" y="-431.05" font-family="Consolas" font-size="11.00">AbsError::is_converged</text>
</a>
</g>
</g>
<!-- Node1&#45;&gt;Node3 -->
<g id="edge2_Node000001_Node000003" class="edge">
<title>Node1&#45;&gt;Node3</title>
<g id="a_edge2_Node000001_Node000003"><a xlink:title=" ">
<path fill="none" stroke="#63b8ff" d="M268.36,-264.19C255.81,-301.01 224.99,-376.02 172,-414.75 167.23,-418.24 161.94,-421.13 156.39,-423.52"/>
<polygon fill="#63b8ff" stroke="#63b8ff" points="271.55,-265.7 271.33,-255.11 264.89,-263.53 271.55,-265.7"/>
</a>
</g>
</g>
<!-- Node4 -->
<g id="Node000004" class="node">
<title>Node4</title>
<g id="a_Node000004"><a xlink:href="../../dc/d4d/class_abs_incre_acc.html#ae83df842ca4692e3ca67cde8618b36fd" target="_top" xlink:title="Method to return conv_flag.">
<polygon fill="white" stroke="#666666" points="169,-405.5 3,-405.5 3,-384 169,-384 169,-405.5"/>
<text text-anchor="middle" x="86" y="-391.05" font-family="Consolas" font-size="11.00">AbsIncreAcc::is_converged</text>
</a>
</g>
</g>
<!-- Node1&#45;&gt;Node4 -->
<g id="edge3_Node000001_Node000004" class="edge">
<title>Node1&#45;&gt;Node4</title>
<g id="a_edge3_Node000001_Node000004"><a xlink:title=" ">
<path fill="none" stroke="#63b8ff" d="M264.57,-263.72C248.76,-293.26 215.84,-346.67 172,-374.75 166.51,-378.27 160.47,-381.16 154.21,-383.55"/>
<polygon fill="#63b8ff" stroke="#63b8ff" points="267.59,-265.5 269.09,-255.01 261.38,-262.28 267.59,-265.5"/>
</a>
</g>
</g>
<!-- Node5 -->
<g id="Node000005" class="node">
<title>Node5</title>
<g id="a_Node000005"><a xlink:href="../../d4/d8d/class_abs_incre_disp.html#a9b6ded4f12f8d7a244a42aa47c8215bb" target="_top" xlink:title="Method to return conv_flag.">
<polygon fill="white" stroke="#666666" points="172,-365.5 0,-365.5 0,-344 172,-344 172,-365.5"/>
<text text-anchor="middle" x="86" y="-351.05" font-family="Consolas" font-size="11.00">AbsIncreDisp::is_converged</text>
</a>
</g>
</g>
<!-- Node1&#45;&gt;Node5 -->
<g id="edge4_Node000001_Node000005" class="edge">
<title>Node1&#45;&gt;Node5</title>
<g id="a_edge4_Node000001_Node000005"><a xlink:title=" ">
<path fill="none" stroke="#63b8ff" d="M258.77,-262.53C240.09,-283.93 207.42,-317.44 172,-335.75 166.09,-338.81 159.7,-341.37 153.17,-343.53"/>
<polygon fill="#63b8ff" stroke="#63b8ff" points="261.3,-264.95 265.12,-255.07 255.97,-260.41 261.3,-264.95"/>
</a>
</g>
</g>
<!-- Node6 -->
<g id="Node000006" class="node">
<title>Node6</title>
<g id="a_Node000006"><a xlink:href="../../d5/d86/class_abs_incre_energy.html#ad51dd0eb393597970ef9d26a0180ece7" target="_top" xlink:title=" ">
<polygon fill="white" stroke="#666666" points="148,-326.25 24,-326.25 24,-291.25 148,-291.25 148,-326.25"/>
<text text-anchor="start" x="32" y="-311.8" font-family="Consolas" font-size="11.00">AbsIncreEnergy::is</text>
<text text-anchor="middle" x="86" y="-298.3" font-family="Consolas" font-size="11.00">_converged</text>
</a>
</g>
</g>
<!-- Node1&#45;&gt;Node6 -->
<g id="edge5_Node000001_Node000006" class="edge">
<title>Node1&#45;&gt;Node6</title>
<g id="a_edge5_Node000001_Node000006"><a xlink:title=" ">
<path fill="none" stroke="#63b8ff" d="M237.14,-258.22C217.78,-265.94 193.77,-275.21 172,-282.75 164.13,-285.48 155.79,-288.21 147.54,-290.83"/>
<polygon fill="#63b8ff" stroke="#63b8ff" points="238.28,-261.54 246.26,-254.56 235.67,-255.04 238.28,-261.54"/>
</a>
</g>
</g>
<!-- Node7 -->
<g id="Node000007" class="node">
<title>Node7</title>
<g id="a_Node000007"><a xlink:href="../../de/dce/class_abs_residual.html#a28820563b7801a0289a2bad2f2ad39d4" target="_top" xlink:title=" ">
<polygon fill="white" stroke="#666666" points="169,-273.5 3,-273.5 3,-252 169,-252 169,-273.5"/>
<text text-anchor="middle" x="86" y="-259.05" font-family="Consolas" font-size="11.00">AbsResidual::is_converged</text>
</a>
</g>
</g>
<!-- Node1&#45;&gt;Node7 -->
<g id="edge6_Node000001_Node000007" class="edge">
<title>Node1&#45;&gt;Node7</title>
<g id="a_edge6_Node000001_Node000007"><a xlink:title=" ">
<path fill="none" stroke="#63b8ff" d="M196.43,-251.11C187.47,-252.06 178.31,-253.04 169.3,-253.99"/>
<polygon fill="#63b8ff" stroke="#63b8ff" points="196.58,-254.61 206.15,-250.07 195.84,-247.65 196.58,-254.61"/>
</a>
</g>
</g>
<!-- Node8 -->
<g id="Node000008" class="node">
<title>Node8</title>
<g id="a_Node000008"><a xlink:href="../../dc/dee/class_rel_disp.html#a5b4c19edc8f542332f43d4c285fc1b38" target="_top" xlink:title=" ">
<polygon fill="white" stroke="#666666" points="157,-233.5 15,-233.5 15,-212 157,-212 157,-233.5"/>
<text text-anchor="middle" x="86" y="-219.05" font-family="Consolas" font-size="11.00">RelDisp::is_converged</text>
</a>
</g>
</g>
<!-- Node1&#45;&gt;Node8 -->
<g id="edge7_Node000001_Node000008" class="edge">
<title>Node1&#45;&gt;Node8</title>
<g id="a_edge7_Node000001_Node000008"><a xlink:title=" ">
<path fill="none" stroke="#63b8ff" d="M196.4,-234.39C183.45,-233.01 170.1,-231.59 157.36,-230.24"/>
<polygon fill="#63b8ff" stroke="#63b8ff" points="195.84,-237.85 206.15,-235.43 196.58,-230.89 195.84,-237.85"/>
</a>
</g>
</g>
<!-- Node9 -->
<g id="Node000009" class="node">
<title>Node9</title>
<g id="a_Node000009"><a xlink:href="../../dd/d17/class_rel_error.html#a86e8267005c5d58497a9ada573fb7788" target="_top" xlink:title="Method to return conv_flag.">
<polygon fill="white" stroke="#666666" points="160,-193.5 12,-193.5 12,-172 160,-172 160,-193.5"/>
<text text-anchor="middle" x="86" y="-179.05" font-family="Consolas" font-size="11.00">RelError::is_converged</text>
</a>
</g>
</g>
<!-- Node1&#45;&gt;Node9 -->
<g id="edge8_Node000001_Node000009" class="edge">
<title>Node1&#45;&gt;Node9</title>
<g id="a_edge8_Node000001_Node000009"><a xlink:title=" ">
<path fill="none" stroke="#63b8ff" d="M238.55,-227.16C219.04,-219.19 194.47,-209.72 172,-202.75 161.72,-199.56 150.6,-196.6 139.91,-193.99"/>
<polygon fill="#63b8ff" stroke="#63b8ff" points="237.13,-230.37 247.71,-230.96 239.81,-223.9 237.13,-230.37"/>
</a>
</g>
</g>
<!-- Node10 -->
<g id="Node000010" class="node">
<title>Node10</title>
<g id="a_Node000010"><a xlink:href="../../d8/d3b/class_rel_incre_acc.html#a4459aa55412a629bea1caa408282132e" target="_top" xlink:title=" ">
<polygon fill="white" stroke="#666666" points="169,-153.5 3,-153.5 3,-132 169,-132 169,-153.5"/>
<text text-anchor="middle" x="86" y="-139.05" font-family="Consolas" font-size="11.00">RelIncreAcc::is_converged</text>
</a>
</g>
</g>
<!-- Node1&#45;&gt;Node10 -->
<g id="edge9_Node000001_Node000010" class="edge">
<title>Node1&#45;&gt;Node10</title>
<g id="a_edge9_Node000001_Node000010"><a xlink:title=" ">
<path fill="none" stroke="#63b8ff" d="M255.78,-223.63C236.29,-205.32 204.45,-178.26 172,-162.75 164.75,-159.29 156.86,-156.4 148.9,-154"/>
<polygon fill="#63b8ff" stroke="#63b8ff" points="253.33,-226.13 262.97,-230.54 258.18,-221.09 253.33,-226.13"/>
</a>
</g>
</g>
<!-- Node11 -->
<g id="Node000011" class="node">
<title>Node11</title>
<g id="a_Node000011"><a xlink:href="../../d2/d85/class_rel_incre_disp.html#a7d16a8431291cc634a83de9bd5e5d375" target="_top" xlink:title=" ">
<polygon fill="white" stroke="#666666" points="172,-113.5 0,-113.5 0,-92 172,-92 172,-113.5"/>
<text text-anchor="middle" x="86" y="-99.05" font-family="Consolas" font-size="11.00">RelIncreDisp::is_converged</text>
</a>
</g>
</g>
<!-- Node1&#45;&gt;Node11 -->
<g id="edge10_Node000001_Node000011" class="edge">
<title>Node1&#45;&gt;Node11</title>
<g id="a_edge10_Node000001_Node000011"><a xlink:title=" ">
<path fill="none" stroke="#63b8ff" d="M263.12,-222.12C246.37,-194.99 213.21,-147.81 172,-122.75 166.17,-119.21 159.76,-116.29 153.16,-113.89"/>
<polygon fill="#63b8ff" stroke="#63b8ff" points="259.98,-223.7 268.12,-230.48 265.98,-220.1 259.98,-223.7"/>
</a>
</g>
</g>
<!-- Node12 -->
<g id="Node000012" class="node">
<title>Node12</title>
<g id="a_Node000012"><a xlink:href="../../dd/dec/class_rel_incre_energy.html#a2a2f0cd8fcffbceb6fa15cf290f24bf9" target="_top" xlink:title=" ">
<polygon fill="white" stroke="#666666" points="148,-74.25 24,-74.25 24,-39.25 148,-39.25 148,-74.25"/>
<text text-anchor="start" x="32" y="-59.8" font-family="Consolas" font-size="11.00">RelIncreEnergy::is</text>
<text text-anchor="middle" x="86" y="-46.3" font-family="Consolas" font-size="11.00">_converged</text>
</a>
</g>
</g>
<!-- Node1&#45;&gt;Node12 -->
<g id="edge11_Node000001_Node000012" class="edge">
<title>Node1&#45;&gt;Node12</title>
<g id="a_edge11_Node000001_Node000012"><a xlink:title=" ">
<path fill="none" stroke="#63b8ff" d="M266.89,-221.21C252.85,-186.82 220.75,-119.65 172,-82.75 164.86,-77.35 156.6,-73.06 148.08,-69.66"/>
<polygon fill="#63b8ff" stroke="#63b8ff" points="263.48,-222.1 270.4,-230.12 269.99,-219.53 263.48,-222.1"/>
</a>
</g>
</g>
<!-- Node13 -->
<g id="Node000013" class="node">
<title>Node13</title>
<g id="a_Node000013"><a xlink:href="../../dc/db8/class_rel_residual.html#accf19abd0aa31b3f5d6870e7f5ec17db" target="_top" xlink:title=" ">
<polygon fill="white" stroke="#666666" points="169,-21.5 3,-21.5 3,0 169,0 169,-21.5"/>
<text text-anchor="middle" x="86" y="-7.05" font-family="Consolas" font-size="11.00">RelResidual::is_converged</text>
</a>
</g>
</g>
<!-- Node1&#45;&gt;Node13 -->
<g id="edge12_Node000001_Node000013" class="edge">
<title>Node1&#45;&gt;Node13</title>
<g id="a_edge12_Node000001_Node000013"><a xlink:title=" ">
<path fill="none" stroke="#63b8ff" d="M270.82,-220.72C261.39,-177.29 234.23,-80.54 172,-30.75 167.62,-27.25 162.73,-24.34 157.57,-21.92"/>
<polygon fill="#63b8ff" stroke="#63b8ff" points="267.38,-221.34 272.81,-230.44 274.24,-219.94 267.38,-221.34"/>
</a>
</g>
</g>
</g>
</svg>
