<?xml version="1.0" encoding="UTF-8" standalone="no"?>
<!DOCTYPE svg PUBLIC "-//W3C//DTD SVG 1.1//EN"
 "http://www.w3.org/Graphics/SVG/1.1/DTD/svg11.dtd">
<!-- Generated by graphviz version 2.43.0 (0)
 -->
<!-- Title: Domain::initialize_material Pages: 1 -->
<!--zoomable 218 -->

<svg id="main" version="1.1" xmlns="http://www.w3.org/2000/svg" xmlns:xlink="http://www.w3.org/1999/xlink" xml:space="preserve" onload="init(evt)">
<style type="text/css"><![CDATA[
.node, .edge {opacity: 0.7;}
.node.selected, .edge.selected {opacity: 1;}
.edge:hover path { stroke: red; }
.edge:hover polygon { stroke: red; fill: red; }
]]></style>

<defs>
  <circle id="rim" cx="0" cy="0" r="7"/>
  <circle id="rim2" cx="0" cy="0" r="3.5"/>
  <g id="zoomPlus">
    <use xlink:href="#rim" fill="#404040"><set attributeName="fill" to="#808080" begin="zoomplus.mouseover" end="zoomplus.mouseout"/></use>
    <path d="M-4,0h8M0,-4v8" fill="none" stroke="white" stroke-width="1.5" pointer-events="none"/>
  </g>
  <g id="zoomMin">
    <use xlink:href="#rim" fill="#404040"><set attributeName="fill" to="#808080" begin="zoomminus.mouseover" end="zoomminus.mouseout"/></use>
    <path d="M-4,0h8" fill="none" stroke="white" stroke-width="1.5" pointer-events="none"/>
  </g>
  <g id="arrowUp" transform="translate(30 24)">
    <use xlink:href="#rim"/>
    <path pointer-events="none" fill="none" stroke="white" stroke-width="1.5" d="M0,-3.0v7 M-2.5,-0.5L0,-3.0L2.5,-0.5"/>
  </g>
  <g id="arrowRight" transform="rotate(90) translate(36 -43)">
    <use xlink:href="#rim"/>
    <path pointer-events="none" fill="none" stroke="white" stroke-width="1.5" d="M0,-3.0v7 M-2.5,-0.5L0,-3.0L2.5,-0.5"/>
  </g>
  <g id="arrowDown" transform="rotate(180) translate(-30 -48)">
    <use xlink:href="#rim"/>
    <path pointer-events="none" fill="none" stroke="white" stroke-width="1.5" d="M0,-3.0v7 M-2.5,-0.5L0,-3.0L2.5,-0.5"/>
  </g>
  <g id="arrowLeft" transform="rotate(270) translate(-36 17)">
    <use xlink:href="#rim"/>
    <path pointer-events="none" fill="none" stroke="white" stroke-width="1.5" d="M0,-3.0v7 M-2.5,-0.5L0,-3.0L2.5,-0.5"/>
  </g>
  <g id="resetDef">
    <use xlink:href="#rim2" fill="#404040"><set attributeName="fill" to="#808080" begin="reset.mouseover" end="reset.mouseout"/></use>
  </g>
</defs>
<script type="application/ecmascript">
var viewWidth = 662;
var viewHeight = 218;
var sectionId = 'dynsection-168';
</script>
<script type="application/ecmascript" xlink:href="../../svg.min.js"/>
<svg id="graph" class="graph">
<g id="viewport">
<title>Domain::initialize_material</title>
<!-- Node1 -->
<g id="Node000001" class="node">
<title>Node1</title>
<g id="a_Node000001"><a xlink:title=" ">
<polygon fill="#999999" stroke="#666666" points="138,-83 0,-83 0,-51 138,-51 138,-83"/>
<text text-anchor="start" x="8" y="-70.2" font-family="Consolas" font-size="11.00">Domain::initialize</text>
<text text-anchor="middle" x="69" y="-58.2" font-family="Consolas" font-size="11.00">_material</text>
</a>
</g>
</g>
<!-- Node2 -->
<g id="Node000002" class="node">
<title>Node2</title>
<g id="a_Node000002"><a xlink:href="../../d4/df4/class_domain.html#ad57c1a17cf7c45054df1303519fbee81" target="_top" xlink:title=" ">
<polygon fill="white" stroke="#666666" points="353,-153 174,-153 174,-133 353,-133 353,-153"/>
<text text-anchor="middle" x="263.5" y="-140.2" font-family="Consolas" font-size="11.00">Domain::disable_material</text>
</a>
</g>
</g>
<!-- Node1&#45;&gt;Node2 -->
<g id="edge1_Node000001_Node000002" class="edge">
<title>Node1&#45;&gt;Node2</title>
<g id="a_edge1_Node000001_Node000002"><a xlink:title=" ">
<path fill="none" stroke="#63b8ff" d="M110.82,-83.12C145.43,-96.78 194.54,-116.17 227.4,-129.14"/>
<polygon fill="#63b8ff" stroke="#63b8ff" points="226.46,-132.54 237.05,-132.95 229.03,-126.02 226.46,-132.54"/>
</a>
</g>
</g>
<!-- Node7 -->
<g id="Node000007" class="node">
<title>Node7</title>
<g id="a_Node000007"><a xlink:href="../../d4/df4/class_domain.html#a4d9031c2267a21eca06dcedf672d10f5" target="_top" xlink:title=" ">
<polygon fill="white" stroke="#666666" points="346,-96 181,-96 181,-76 346,-76 346,-96"/>
<text text-anchor="middle" x="263.5" y="-83.2" font-family="Consolas" font-size="11.00">Domain::erase_material</text>
</a>
</g>
</g>
<!-- Node1&#45;&gt;Node7 -->
<g id="edge6_Node000001_Node000007" class="edge">
<title>Node1&#45;&gt;Node7</title>
<g id="a_edge6_Node000001_Node000007"><a xlink:title=" ">
<path fill="none" stroke="#63b8ff" d="M138.14,-73.73C148.74,-74.77 159.84,-75.87 170.85,-76.95"/>
<polygon fill="#63b8ff" stroke="#63b8ff" points="170.64,-80.45 180.93,-77.95 171.32,-73.48 170.64,-80.45"/>
</a>
</g>
</g>
<!-- Node9 -->
<g id="Node000009" class="node">
<title>Node9</title>
<g id="a_Node000009"><a xlink:href="../../d6/d9c/namespacesuanpan.html#aa1669cccf4ae25bba56893faf349be0e" target="_top" xlink:title=" ">
<polygon fill="white" stroke="#666666" points="326,-58 201,-58 201,-38 326,-38 326,-58"/>
<text text-anchor="middle" x="263.5" y="-45.2" font-family="Consolas" font-size="11.00">suanpan::for_all</text>
</a>
</g>
</g>
<!-- Node1&#45;&gt;Node9 -->
<g id="edge8_Node000001_Node000009" class="edge">
<title>Node1&#45;&gt;Node9</title>
<g id="a_edge8_Node000001_Node000009"><a xlink:title=" ">
<path fill="none" stroke="#63b8ff" d="M138.14,-60.27C155.23,-58.59 173.61,-56.77 190.86,-55.07"/>
<polygon fill="#63b8ff" stroke="#63b8ff" points="191.26,-58.55 200.87,-54.08 190.58,-51.58 191.26,-58.55"/>
</a>
</g>
</g>
<!-- Node10 -->
<g id="Node000010" class="node">
<title>Node10</title>
<g id="a_Node000010"><a xlink:href="../../da/d56/class_storage.html#a6b51334e65934ab09fd23bd4fa91aa17" target="_top" xlink:title=" ">
<polygon fill="white" stroke="#666666" points="322.5,-20 204.5,-20 204.5,0 322.5,0 322.5,-20"/>
<text text-anchor="middle" x="263.5" y="-7.2" font-family="Consolas" font-size="11.00">Storage::update</text>
</a>
</g>
</g>
<!-- Node1&#45;&gt;Node10 -->
<g id="edge9_Node000001_Node000010" class="edge">
<title>Node1&#45;&gt;Node10</title>
<g id="a_edge9_Node000001_Node000010"><a xlink:title=" ">
<path fill="none" stroke="#63b8ff" d="M110.07,-50.88C129.21,-43.56 152.58,-35.18 174,-29 182.34,-26.59 191.2,-24.34 199.96,-22.29"/>
<polygon fill="#63b8ff" stroke="#63b8ff" points="200.81,-25.69 209.79,-20.06 199.26,-18.86 200.81,-25.69"/>
</a>
</g>
</g>
<!-- Node3 -->
<g id="Node000003" class="node">
<title>Node3</title>
<g id="a_Node000003"><a xlink:href="../../da/d56/class_storage.html#a943b002d5726416b145f33701c7db86d" target="_top" xlink:title=" ">
<polygon fill="white" stroke="#666666" points="514,-210 389,-210 389,-190 514,-190 514,-210"/>
<text text-anchor="middle" x="451.5" y="-197.2" font-family="Consolas" font-size="11.00">Storage::disable</text>
</a>
</g>
</g>
<!-- Node2&#45;&gt;Node3 -->
<g id="edge2_Node000002_Node000003" class="edge">
<title>Node2&#45;&gt;Node3</title>
<g id="a_edge2_Node000002_Node000003"><a xlink:title=" ">
<path fill="none" stroke="#63b8ff" d="M297.32,-153.06C328.04,-162.47 374.11,-176.59 407.7,-186.88"/>
<polygon fill="#63b8ff" stroke="#63b8ff" points="407.1,-190.36 417.69,-189.95 409.16,-183.67 407.1,-190.36"/>
</a>
</g>
</g>
<!-- Node5 -->
<g id="Node000005" class="node">
<title>Node5</title>
<g id="a_Node000005"><a xlink:href="../../d0/d57/class_tag.html#aeef9db4fab02b36358265f378e703986" target="_top" xlink:title=" ">
<polygon fill="white" stroke="#666666" points="507,-172 396,-172 396,-152 507,-152 507,-172"/>
<text text-anchor="middle" x="451.5" y="-159.2" font-family="Consolas" font-size="11.00">Tag::is_active</text>
</a>
</g>
</g>
<!-- Node2&#45;&gt;Node5 -->
<g id="edge4_Node000002_Node000005" class="edge">
<title>Node2&#45;&gt;Node5</title>
<g id="a_edge4_Node000002_Node000005"><a xlink:title=" ">
<path fill="none" stroke="#63b8ff" d="M353.14,-152.05C364.2,-153.18 375.35,-154.32 385.95,-155.41"/>
<polygon fill="#63b8ff" stroke="#63b8ff" points="385.62,-158.89 395.92,-156.42 386.33,-151.93 385.62,-158.89"/>
</a>
</g>
</g>
<!-- Node6 -->
<g id="Node000006" class="node">
<title>Node6</title>
<g id="a_Node000006"><a xlink:href="../../d0/d57/class_tag.html#aecfb9f3c57796fc9474661db66f2c15b" target="_top" xlink:title=" ">
<polygon fill="white" stroke="#666666" points="510.5,-134 392.5,-134 392.5,-114 510.5,-114 510.5,-134"/>
<text text-anchor="middle" x="451.5" y="-121.2" font-family="Consolas" font-size="11.00">Tag::is_guarded</text>
</a>
</g>
</g>
<!-- Node2&#45;&gt;Node6 -->
<g id="edge5_Node000002_Node000006" class="edge">
<title>Node2&#45;&gt;Node6</title>
<g id="a_edge5_Node000002_Node000006"><a xlink:title=" ">
<path fill="none" stroke="#63b8ff" d="M353.14,-133.95C362.9,-132.95 372.72,-131.95 382.18,-130.98"/>
<polygon fill="#63b8ff" stroke="#63b8ff" points="382.68,-134.45 392.27,-129.95 381.97,-127.48 382.68,-134.45"/>
</a>
</g>
</g>
<!-- Node4 -->
<g id="Node000004" class="node">
<title>Node4</title>
<g id="a_Node000004"><a xlink:href="../../da/d56/class_storage.html#a0c06f55c3c192fa18e8e0d6465fa078d" target="_top" xlink:title=" ">
<polygon fill="white" stroke="#666666" points="654,-210 550,-210 550,-190 654,-190 654,-210"/>
<text text-anchor="middle" x="602" y="-197.2" font-family="Consolas" font-size="11.00">Storage::find</text>
</a>
</g>
</g>
<!-- Node3&#45;&gt;Node4 -->
<g id="edge3_Node000003_Node000004" class="edge">
<title>Node3&#45;&gt;Node4</title>
<g id="a_edge3_Node000003_Node000004"><a xlink:title=" ">
<path fill="none" stroke="#63b8ff" d="M514.19,-200C522.57,-200 531.18,-200 539.56,-200"/>
<polygon fill="#63b8ff" stroke="#63b8ff" points="539.64,-203.5 549.64,-200 539.64,-196.5 539.64,-203.5"/>
</a>
</g>
</g>
<!-- Node8 -->
<g id="Node000008" class="node">
<title>Node8</title>
<g id="a_Node000008"><a xlink:href="../../da/d56/class_storage.html#a81e65e59906a407ed2fdd0ed8b8a2900" target="_top" xlink:title=" ">
<polygon fill="white" stroke="#666666" points="507,-96 396,-96 396,-76 507,-76 507,-96"/>
<text text-anchor="middle" x="451.5" y="-83.2" font-family="Consolas" font-size="11.00">Storage::erase</text>
</a>
</g>
</g>
<!-- Node7&#45;&gt;Node8 -->
<g id="edge7_Node000007_Node000008" class="edge">
<title>Node7&#45;&gt;Node8</title>
<g id="a_edge7_Node000007_Node000008"><a xlink:title=" ">
<path fill="none" stroke="#63b8ff" d="M346.08,-86C359.41,-86 373.05,-86 385.89,-86"/>
<polygon fill="#63b8ff" stroke="#63b8ff" points="386,-89.5 396,-86 386,-82.5 386,-89.5"/>
</a>
</g>
</g>
<!-- Node11 -->
<g id="Node000011" class="node">
<title>Node11</title>
<g id="a_Node000011"><a xlink:href="../../da/d56/class_storage.html#a0224b21796a7b8e879146a0c573729e6" target="_top" xlink:title=" ">
<polygon fill="white" stroke="#666666" points="507,-58 396,-58 396,-38 507,-38 507,-58"/>
<text text-anchor="middle" x="451.5" y="-45.2" font-family="Consolas" font-size="11.00">Storage::reset</text>
</a>
</g>
</g>
<!-- Node10&#45;&gt;Node11 -->
<g id="edge10_Node000010_Node000011" class="edge">
<title>Node10&#45;&gt;Node11</title>
<g id="a_edge10_Node000010_Node000011"><a xlink:title=" ">
<path fill="none" stroke="#63b8ff" d="M313.86,-20.08C337.6,-24.93 366.25,-30.79 391.17,-35.88"/>
<polygon fill="#63b8ff" stroke="#63b8ff" points="390.74,-39.36 401.24,-37.94 392.14,-32.5 390.74,-39.36"/>
</a>
</g>
</g>
<!-- Node12 -->
<g id="Node000012" class="node">
<title>Node12</title>
<g id="a_Node000012"><a xlink:href="../../da/d56/class_storage.html#a46dd09875ad737879c04a3268795848e" target="_top" xlink:title=" ">
<polygon fill="white" stroke="#666666" points="503.5,-20 399.5,-20 399.5,0 503.5,0 503.5,-20"/>
<text text-anchor="middle" x="451.5" y="-7.2" font-family="Consolas" font-size="11.00">Storage::size</text>
</a>
</g>
</g>
<!-- Node10&#45;&gt;Node12 -->
<g id="edge11_Node000010_Node000012" class="edge">
<title>Node10&#45;&gt;Node12</title>
<g id="a_edge11_Node000010_Node000012"><a xlink:title=" ">
<path fill="none" stroke="#63b8ff" d="M322.59,-10C343.84,-10 367.95,-10 389.45,-10"/>
<polygon fill="#63b8ff" stroke="#63b8ff" points="389.45,-13.5 399.45,-10 389.45,-6.5 389.45,-13.5"/>
</a>
</g>
</g>
</g>
</svg>

<g id="navigator" transform="translate(0 0)" fill="#404254">
  <rect fill="#f2f5e9" fill-opacity="0.5" stroke="#606060" stroke-width=".5" x="0" y="0" width="60" height="60"/>
  <use id="zoomplus" xlink:href="#zoomPlus" x="17" y="9" onmousedown="handleZoom(evt,'in')"/>
  <use id="zoomminus" xlink:href="#zoomMin" x="42" y="9" onmousedown="handleZoom(evt,'out')"/>
  <use id="reset" xlink:href="#resetDef" x="30" y="36" onmousedown="handleReset()"/>
   <use id="arrowup" xlink:href="#arrowUp" x="0" y="0" onmousedown="handlePan(0,-1)"/>
  <use id="arrowright" xlink:href="#arrowRight" x="0" y="0" onmousedown="handlePan(1,0)"/>
  <use id="arrowdown" xlink:href="#arrowDown" x="0" y="0" onmousedown="handlePan(0,1)"/>
  <use id="arrowleft" xlink:href="#arrowLeft" x="0" y="0" onmousedown="handlePan(-1,0)"/>
</g>
<svg viewBox="0 0 15 15" width="100%" height="30px" preserveAspectRatio="xMaxYMin meet">
 <g id="arrow_out" transform="scale(0.3 0.3)">
  <a xlink:href="class_domain_aabe8c50293f0da3130de2c526a661658_cgraph_org.svg" target="_base">
   <rect id="button" ry="5" rx="5" y="6" x="6" height="38" width="38"
        fill="#f2f5e9" fill-opacity="0.5" stroke="#606060" stroke-width="1.0"/>
   <path id="arrow"
     d="M 11.500037,31.436501 C 11.940474,20.09759 22.043105,11.32322 32.158766,21.979434 L 37.068811,17.246167 C 37.068811,17.246167 37.088388,32 37.088388,32 L 22.160133,31.978069 C 22.160133,31.978069 26.997745,27.140456 26.997745,27.140456 C 18.528582,18.264221 13.291696,25.230495 11.500037,31.436501 z"
     style="fill:#404040;"/>
  </a>
 </g>
</svg>

<style type='text/css'>
<![CDATA[
[data-mouse-over-selected='false'] { opacity: 0.7; }
[data-mouse-over-selected='true']  { opacity: 1.0; }
]]>
</style>
<script type="application/ecmascript"><![CDATA[
document.addEventListener('DOMContentLoaded', (event) => {
  highlightEdges();
  highlightAdjacentNodes();
});
]]></script>
</svg>
