<?xml version="1.0" encoding="UTF-8" standalone="no"?>
<!DOCTYPE svg PUBLIC "-//W3C//DTD SVG 1.1//EN"
 "http://www.w3.org/Graphics/SVG/1.1/DTD/svg11.dtd">
<!-- Generated by graphviz version 2.43.0 (0)
 -->
<!-- Title: SteelBRB::update_trial_status Pages: 1 -->
<svg width="320pt" height="66pt"
 viewBox="0.00 0.00 320.00 66.00" xmlns="http://www.w3.org/2000/svg" xmlns:xlink="http://www.w3.org/1999/xlink">
<g id="graph0" class="graph" transform="scale(1 1) rotate(0) translate(4 62)">
<title>SteelBRB::update_trial_status</title>
<!-- Node1 -->
<g id="Node000001" class="node">
<title>Node1</title>
<g id="a_Node000001"><a xlink:title=" ">
<polygon fill="#999999" stroke="#666666" points="165,-45 0,-45 0,-13 165,-13 165,-45"/>
<text text-anchor="start" x="8" y="-32.2" font-family="Consolas" font-size="11.00">SteelBRB::update_trial</text>
<text text-anchor="middle" x="82.5" y="-20.2" font-family="Consolas" font-size="11.00">_status</text>
</a>
</g>
</g>
<!-- Node2 -->
<g id="Node000002" class="node">
<title>Node2</title>
<g id="a_Node000002"><a xlink:href="../../d6/d9c/namespacesuanpan.html#a73e2102be3545eeb14149b31848359f8" target="_top" xlink:title=" ">
<polygon fill="white" stroke="#666666" points="312,-58 201,-58 201,-38 312,-38 312,-58"/>
<text text-anchor="middle" x="256.5" y="-45.2" font-family="Consolas" font-size="11.00">suanpan::clamp</text>
</a>
</g>
</g>
<!-- Node1&#45;&gt;Node2 -->
<g id="edge1_Node000001_Node000002" class="edge">
<title>Node1&#45;&gt;Node2</title>
<g id="a_edge1_Node000001_Node000002"><a xlink:title=" ">
<path fill="none" stroke="#63b8ff" d="M165.22,-38.03C173.85,-38.98 182.53,-39.94 190.92,-40.87"/>
<polygon fill="#63b8ff" stroke="#63b8ff" points="190.67,-44.36 201,-41.98 191.44,-37.4 190.67,-44.36"/>
</a>
</g>
</g>
<!-- Node3 -->
<g id="Node000003" class="node">
<title>Node3</title>
<g id="a_Node000003"><a xlink:href="../../d0/d40/ridders_8hpp.html#a445fdb7103eb43e28d9c248be9cf63ef" target="_top" xlink:title="Implements Ridders&#39; method for finding the root of a function.">
<polygon fill="white" stroke="#666666" points="288.5,-20 224.5,-20 224.5,0 288.5,0 288.5,-20"/>
<text text-anchor="middle" x="256.5" y="-7.2" font-family="Consolas" font-size="11.00">ridders</text>
</a>
</g>
</g>
<!-- Node1&#45;&gt;Node3 -->
<g id="edge2_Node000001_Node000003" class="edge">
<title>Node1&#45;&gt;Node3</title>
<g id="a_edge2_Node000001_Node000003"><a xlink:title=" ">
<path fill="none" stroke="#63b8ff" d="M165.22,-19.97C182.1,-18.11 199.2,-16.22 213.91,-14.59"/>
<polygon fill="#63b8ff" stroke="#63b8ff" points="214.6,-18.04 224.16,-13.46 213.84,-11.08 214.6,-18.04"/>
</a>
</g>
</g>
</g>
</svg>
