<svg xmlns="http://www.w3.org/2000/svg" xmlns:xlink="http://www.w3.org/1999/xlink" width="434pt" height="1220pt" viewBox="0 0 433.5 1220"><g class="graph" transform="translate(4 1216)"><title>ConcreteExp</title><g class="node"><title>Node1</title><a xlink:title="A ConcreteExp material class.">
<path fill="#999" stroke="transparent" d="M193-100H86V0h107z"/>
<text x="102.5" y="-87.2" font-family="Consolas" font-size="11">ConcreteExp</text>
<text x="136.5" y="-71.2" font-family="Consolas" font-size="11"> </text>
<text x="90.5" y="-55.2" font-family="Consolas" font-size="11">+</text>
<text x="101.5" y="-55.2" font-family="Consolas" font-size="11">ConcreteExp()</text>
<text x="90.5" y="-39.2" font-family="Consolas" font-size="11">+</text>
<text x="101.5" y="-39.2" font-family="Consolas" font-size="11">initialize()</text>
<text x="90.5" y="-23.2" font-family="Consolas" font-size="11">+</text>
<text x="101.5" y="-23.2" font-family="Consolas" font-size="11">get()</text>
<text x="90.5" y="-7.2" font-family="Consolas" font-size="11">+</text>
<text x="101.5" y="-7.2" font-family="Consolas" font-size="11">unique_copy()</text>
<path fill="#666" stroke="#666" d="M86.5-82h107z"/>
<path fill="#666" stroke="#666" d="M86.5-66h107z"/>
<path fill="none" stroke="#666" d="M86 0v-100h107V0z"/>
</a></g><g class="node"><title>Node2</title><a xlink:href="../../d7/d7b/struct_data_concrete_exp.html" target="_top">
<path fill="#fff" stroke="transparent" d="M121-284H0v148h121z"/>
<text x="10" y="-271.2" font-family="Consolas" font-size="11">DataConcreteExp</text>
<text x="4.5" y="-255.2" font-family="Consolas" font-size="11">+</text>
<text x="15.5" y="-255.2" font-family="Consolas" font-size="11">elastic_modulus</text>
<text x="4.5" y="-239.2" font-family="Consolas" font-size="11">+</text>
<text x="15.5" y="-239.2" font-family="Consolas" font-size="11">f_t</text>
<text x="4.5" y="-223.2" font-family="Consolas" font-size="11">+</text>
<text x="15.5" y="-223.2" font-family="Consolas" font-size="11">f_c</text>
<text x="4.5" y="-207.2" font-family="Consolas" font-size="11">+</text>
<text x="15.5" y="-207.2" font-family="Consolas" font-size="11">a_t</text>
<text x="4.5" y="-191.2" font-family="Consolas" font-size="11">+</text>
<text x="15.5" y="-191.2" font-family="Consolas" font-size="11">a_c</text>
<text x="4.5" y="-175.2" font-family="Consolas" font-size="11">+</text>
<text x="15.5" y="-175.2" font-family="Consolas" font-size="11">b_t</text>
<text x="4.5" y="-159.2" font-family="Consolas" font-size="11">+</text>
<text x="15.5" y="-159.2" font-family="Consolas" font-size="11">b_c</text>
<text x="57.5" y="-143.2" font-family="Consolas" font-size="11"> </text>
<path fill="#666" stroke="#666" d="M.5-266h121z"/>
<path fill="#666" stroke="#666" d="M.5-154h13z"/>
<path fill="#666" stroke="#666" d="M13.5-154h108z"/>
<path fill="none" stroke="#666" d="M0-136v-148h121v148z"/>
</a></g><g class="edge"><title>Node2-&gt;Node1</title><a>
<path fill="none" stroke="#006400" d="M101.7-126.59c4.48 8.96 8.93 17.86 13.12 26.23"/>
<path fill="none" stroke="#006400" d="m98.57-125.04-1.35-10.51 7.61 7.38z"/>
</a></g><g class="node"><title>Node3</title><a xlink:href="../../d8/d70/class_simple_hysteresis.html" xlink:title="A SimpleHysteresis material class." target="_top">
<path fill="#fff" stroke="transparent" d="M300-268H139v116h161z"/>
<text x="165.5" y="-255.2" font-family="Consolas" font-size="11">SimpleHysteresis</text>
<text x="216.5" y="-239.2" font-family="Consolas" font-size="11"> </text>
<text x="143.5" y="-223.2" font-family="Consolas" font-size="11">+</text>
<text x="154.5" y="-223.2" font-family="Consolas" font-size="11">SimpleHysteresis()</text>
<text x="143.5" y="-207.2" font-family="Consolas" font-size="11">+</text>
<text x="154.5" y="-207.2" font-family="Consolas" font-size="11">update_trial_status()</text>
<text x="143.5" y="-191.2" font-family="Consolas" font-size="11">+</text>
<text x="154.5" y="-191.2" font-family="Consolas" font-size="11">clear_status()</text>
<text x="143.5" y="-175.2" font-family="Consolas" font-size="11">+</text>
<text x="154.5" y="-175.2" font-family="Consolas" font-size="11">commit_status()</text>
<text x="143.5" y="-159.2" font-family="Consolas" font-size="11">+</text>
<text x="154.5" y="-159.2" font-family="Consolas" font-size="11">reset_status()</text>
<path fill="#666" stroke="#666" d="M139.5-250h161z"/>
<path fill="#666" stroke="#666" d="M139.5-234h161z"/>
<path fill="none" stroke="#666" d="M139-152v-116h161v116z"/>
</a></g><g class="edge"><title>Node3-&gt;Node1</title><a>
<path fill="none" stroke="#63b8ff" d="m185.92-142.69-21.55 42.56"/>
<path fill="none" stroke="#63b8ff" d="m182.98-144.62 7.64-7.34-1.4 10.5z"/>
</a></g><g class="node"><title>Node4</title><a xlink:href="../../dc/da5/struct_data_simple_hysteresis.html" target="_top">
<path fill="#fff" stroke="transparent" d="M221.5-388h-146v52h146z"/>
<text x="80.5" y="-375.2" font-family="Consolas" font-size="11">DataSimpleHysteresis</text>
<text x="90.5" y="-359.2" font-family="Consolas" font-size="11">+</text>
<text x="112.5" y="-359.2" font-family="Consolas" font-size="11">middle_point</text>
<text x="145" y="-343.2" font-family="Consolas" font-size="11"> </text>
<path fill="#666" stroke="#666" d="M75.5-370h146z"/>
<path fill="#666" stroke="#666" d="M75.5-354h35z"/>
<path fill="#666" stroke="#666" d="M110.5-354h111z"/>
<path fill="none" stroke="#666" d="M75.5-336v-52h146v52z"/>
</a></g><g class="edge"><title>Node4-&gt;Node3</title><a>
<path fill="none" stroke="#006400" d="M164.71-326.75c8.18 17.29 18.33 38.73 27.66 58.44"/>
<path fill="none" stroke="#006400" d="m161.5-325.36-1.12-10.53 7.45 7.54z"/>
</a></g><g class="node"><title>Node5</title><a xlink:href="../../d9/d97/class_material1_d.html" xlink:title="A Material1D class." target="_top">
<path fill="#fff" stroke="transparent" d="M341-404H240v84h101z"/>
<text x="257" y="-391.2" font-family="Consolas" font-size="11">Material1D</text>
<text x="287.5" y="-375.2" font-family="Consolas" font-size="11"> </text>
<text x="244.5" y="-359.2" font-family="Consolas" font-size="11">+</text>
<text x="255.5" y="-359.2" font-family="Consolas" font-size="11">Material1D()</text>
<text x="244.5" y="-343.2" font-family="Consolas" font-size="11">+</text>
<text x="255.5" y="-343.2" font-family="Consolas" font-size="11">record()</text>
<text x="244.5" y="-327.2" font-family="Consolas" font-size="11">+</text>
<text x="255.5" y="-327.2" font-family="Consolas" font-size="11">print()</text>
<path fill="#666" stroke="#666" d="M240.5-386h101z"/>
<path fill="#666" stroke="#666" d="M240.5-370h101z"/>
<path fill="none" stroke="#666" d="M240-320v-84h101v84z"/>
</a></g><g class="edge"><title>Node5-&gt;Node3</title><a>
<path fill="none" stroke="#63b8ff" d="M266.57-310.45c-6.41 13.56-13.4 28.31-19.97 42.2"/>
<path fill="none" stroke="#63b8ff" d="m263.47-312.07 7.44-7.54-1.11 10.53z"/>
</a></g><g class="node"><title>Node6</title><a xlink:href="../../dc/dee/class_material.html" xlink:title="A Material abstract base class." target="_top">
<path fill="#fff" stroke="transparent" d="M371-652H210v212h161z"/>
<text x="263.5" y="-639.2" font-family="Consolas" font-size="11">Material</text>
<text x="287.5" y="-623.2" font-family="Consolas" font-size="11"> </text>
<text x="214.5" y="-607.2" font-family="Consolas" font-size="11">+</text>
<text x="225.5" y="-607.2" font-family="Consolas" font-size="11">Material()</text>
<text x="214.5" y="-591.2" font-family="Consolas" font-size="11">+</text>
<text x="225.5" y="-591.2" font-family="Consolas" font-size="11">get_density()</text>
<text x="214.5" y="-575.2" font-family="Consolas" font-size="11">+</text>
<text x="225.5" y="-575.2" font-family="Consolas" font-size="11">get_material_type()</text>
<text x="214.5" y="-559.2" font-family="Consolas" font-size="11">+</text>
<text x="225.5" y="-559.2" font-family="Consolas" font-size="11">get_plane_type()</text>
<text x="214.5" y="-543.2" font-family="Consolas" font-size="11">+</text>
<text x="225.5" y="-543.2" font-family="Consolas" font-size="11">initialize_base()</text>
<text x="214.5" y="-527.2" font-family="Consolas" font-size="11">+</text>
<text x="225.5" y="-527.2" font-family="Consolas" font-size="11">initialize()</text>
<text x="214.5" y="-511.2" font-family="Consolas" font-size="11">+</text>
<text x="225.5" y="-511.2" font-family="Consolas" font-size="11">initialize_history()</text>
<text x="214.5" y="-495.2" font-family="Consolas" font-size="11">+</text>
<text x="225.5" y="-495.2" font-family="Consolas" font-size="11">set_initial_history()</text>
<text x="214.5" y="-479.2" font-family="Consolas" font-size="11">+</text>
<text x="225.5" y="-479.2" font-family="Consolas" font-size="11">set_initialized()</text>
<text x="214.5" y="-463.2" font-family="Consolas" font-size="11">+</text>
<text x="225.5" y="-463.2" font-family="Consolas" font-size="11">set_symmetric()</text>
<text x="225.5" y="-447.2" font-family="Consolas" font-size="11">and 42 more...</text>
<path fill="#666" stroke="#666" d="M210.5-634h161z"/>
<path fill="#666" stroke="#666" d="M210.5-618h161z"/>
<path fill="none" stroke="#666" d="M210-440v-212h161v212z"/>
</a></g><g class="edge"><title>Node6-&gt;Node5</title><a>
<path fill="none" stroke="#63b8ff" d="M290.5-429.68v25.48"/>
<path fill="none" stroke="#63b8ff" d="m287-429.92 3.5-10 3.5 10z"/>
</a></g><g class="node"><title>Node7</title><a xlink:href="../../de/de9/struct_data_material.html" target="_top">
<path fill="#fff" stroke="transparent" d="M293-900H132v212h161z"/>
<text x="172" y="-887.2" font-family="Consolas" font-size="11">DataMaterial</text>
<text x="136.5" y="-871.2" font-family="Consolas" font-size="11">+</text>
<text x="147.5" y="-871.2" font-family="Consolas" font-size="11">density</text>
<text x="136.5" y="-855.2" font-family="Consolas" font-size="11">+</text>
<text x="147.5" y="-855.2" font-family="Consolas" font-size="11">material_type</text>
<text x="136.5" y="-839.2" font-family="Consolas" font-size="11">+</text>
<text x="147.5" y="-839.2" font-family="Consolas" font-size="11">plane_type</text>
<text x="136.5" y="-823.2" font-family="Consolas" font-size="11">+</text>
<text x="147.5" y="-823.2" font-family="Consolas" font-size="11">tolerance</text>
<text x="136.5" y="-807.2" font-family="Consolas" font-size="11">+</text>
<text x="147.5" y="-807.2" font-family="Consolas" font-size="11">characteristic_length</text>
<text x="136.5" y="-791.2" font-family="Consolas" font-size="11">+</text>
<text x="147.5" y="-791.2" font-family="Consolas" font-size="11">current_strain</text>
<text x="136.5" y="-775.2" font-family="Consolas" font-size="11">+</text>
<text x="147.5" y="-775.2" font-family="Consolas" font-size="11">trial_strain</text>
<text x="136.5" y="-759.2" font-family="Consolas" font-size="11">+</text>
<text x="147.5" y="-759.2" font-family="Consolas" font-size="11">incre_strain</text>
<text x="136.5" y="-743.2" font-family="Consolas" font-size="11">+</text>
<text x="147.5" y="-743.2" font-family="Consolas" font-size="11">current_strain_rate</text>
<text x="136.5" y="-727.2" font-family="Consolas" font-size="11">+</text>
<text x="147.5" y="-727.2" font-family="Consolas" font-size="11">trial_strain_rate</text>
<text x="147.5" y="-711.2" font-family="Consolas" font-size="11">and 19 more...</text>
<text x="209.5" y="-695.2" font-family="Consolas" font-size="11"> </text>
<path fill="#666" stroke="#666" d="M132.5-882h161z"/>
<path fill="#666" stroke="#666" d="M132.5-706h13z"/>
<path fill="#666" stroke="#666" d="M145.5-706h148z"/>
<path fill="none" stroke="#666" d="M132-688v-212h161v212z"/>
</a></g><g class="edge"><title>Node7-&gt;Node6</title><a>
<path fill="none" stroke="#006400" d="M248.91-678.17c2.76 8.7 5.53 17.46 8.27 26.09"/>
<path fill="none" stroke="#006400" d="m245.49-677.37.32-10.59 6.35 8.47z"/>
</a></g><g class="node"><title>Node8</title><a xlink:href="../../d7/d1d/class_copyable_tag.html" xlink:title="Label objects that can be copied." target="_top">
<path fill="#fff" stroke="transparent" d="M425.5-876h-114v164h114z"/>
<text x="331" y="-863.2" font-family="Consolas" font-size="11">CopyableTag</text>
<text x="365" y="-847.2" font-family="Consolas" font-size="11"> </text>
<text x="315.5" y="-831.2" font-family="Consolas" font-size="11">+</text>
<text x="326.5" y="-831.2" font-family="Consolas" font-size="11">CopyableTag()</text>
<text x="315.5" y="-815.2" font-family="Consolas" font-size="11">+</text>
<text x="326.5" y="-815.2" font-family="Consolas" font-size="11">CopyableTag()</text>
<text x="315.5" y="-799.2" font-family="Consolas" font-size="11">+</text>
<text x="326.5" y="-799.2" font-family="Consolas" font-size="11">operator=()</text>
<text x="315.5" y="-783.2" font-family="Consolas" font-size="11">+</text>
<text x="326.5" y="-783.2" font-family="Consolas" font-size="11">operator=()</text>
<text x="315.5" y="-767.2" font-family="Consolas" font-size="11">+</text>
<text x="326.5" y="-767.2" font-family="Consolas" font-size="11">~CopyableTag()</text>
<text x="315.5" y="-751.2" font-family="Consolas" font-size="11">+</text>
<text x="326.5" y="-751.2" font-family="Consolas" font-size="11">Tag()</text>
<text x="315.5" y="-735.2" font-family="Consolas" font-size="11">+</text>
<text x="326.5" y="-735.2" font-family="Consolas" font-size="11">Tag()</text>
<text x="315.5" y="-719.2" font-family="Consolas" font-size="11">+</text>
<text x="326.5" y="-719.2" font-family="Consolas" font-size="11">Tag()</text>
<path fill="#666" stroke="#666" d="M311.5-858h114z"/>
<path fill="#666" stroke="#666" d="M311.5-842h114z"/>
<path fill="none" stroke="#666" d="M311.5-712v-164h114v164z"/>
</a></g><g class="edge"><title>Node8-&gt;Node6</title><a>
<path fill="none" stroke="#63b8ff" d="M339.59-701.83c-5.11 16.14-10.48 33.06-15.71 49.56"/>
<path fill="none" stroke="#63b8ff" d="m336.38-703.29 6.36-8.48.32 10.59z"/>
</a></g><g class="node"><title>Node9</title><a xlink:href="../../d0/d57/class_tag.html" xlink:title="A base Tag class." target="_top">
<path fill="#fff" stroke="transparent" d="M419-1212H318v276h101z"/>
<text x="358.5" y="-1199.2" font-family="Consolas" font-size="11">Tag</text>
<text x="365.5" y="-1183.2" font-family="Consolas" font-size="11"> </text>
<text x="322.5" y="-1167.2" font-family="Consolas" font-size="11">+</text>
<text x="333.5" y="-1167.2" font-family="Consolas" font-size="11">Tag()</text>
<text x="322.5" y="-1151.2" font-family="Consolas" font-size="11">+</text>
<text x="333.5" y="-1151.2" font-family="Consolas" font-size="11">Tag()</text>
<text x="322.5" y="-1135.2" font-family="Consolas" font-size="11">+</text>
<text x="333.5" y="-1135.2" font-family="Consolas" font-size="11">Tag()</text>
<text x="322.5" y="-1119.2" font-family="Consolas" font-size="11">+</text>
<text x="333.5" y="-1119.2" font-family="Consolas" font-size="11">operator=()</text>
<text x="322.5" y="-1103.2" font-family="Consolas" font-size="11">+</text>
<text x="333.5" y="-1103.2" font-family="Consolas" font-size="11">operator=()</text>
<text x="322.5" y="-1087.2" font-family="Consolas" font-size="11">+</text>
<text x="333.5" y="-1087.2" font-family="Consolas" font-size="11">~Tag()</text>
<text x="322.5" y="-1071.2" font-family="Consolas" font-size="11">+</text>
<text x="333.5" y="-1071.2" font-family="Consolas" font-size="11">set_tag()</text>
<text x="322.5" y="-1055.2" font-family="Consolas" font-size="11">+</text>
<text x="333.5" y="-1055.2" font-family="Consolas" font-size="11">get_tag()</text>
<text x="322.5" y="-1039.2" font-family="Consolas" font-size="11">+</text>
<text x="333.5" y="-1039.2" font-family="Consolas" font-size="11">enable()</text>
<text x="322.5" y="-1023.2" font-family="Consolas" font-size="11">+</text>
<text x="333.5" y="-1023.2" font-family="Consolas" font-size="11">disable()</text>
<text x="322.5" y="-1007.2" font-family="Consolas" font-size="11">+</text>
<text x="333.5" y="-1007.2" font-family="Consolas" font-size="11">guard()</text>
<text x="322.5" y="-991.2" font-family="Consolas" font-size="11">+</text>
<text x="333.5" y="-991.2" font-family="Consolas" font-size="11">unguard()</text>
<text x="322.5" y="-975.2" font-family="Consolas" font-size="11">+</text>
<text x="333.5" y="-975.2" font-family="Consolas" font-size="11">is_active()</text>
<text x="322.5" y="-959.2" font-family="Consolas" font-size="11">+</text>
<text x="333.5" y="-959.2" font-family="Consolas" font-size="11">is_guarded()</text>
<text x="322.5" y="-943.2" font-family="Consolas" font-size="11">+</text>
<text x="333.5" y="-943.2" font-family="Consolas" font-size="11">print()</text>
<path fill="#666" stroke="#666" d="M318.5-1194h101z"/>
<path fill="#666" stroke="#666" d="M318.5-1178h101z"/>
<path fill="none" stroke="#666" d="M318-936v-276h101v276z"/>
</a></g><g class="edge"><title>Node9-&gt;Node8</title><a>
<path fill="none" stroke="#63b8ff" d="M368.5-925.6v49.5"/>
<path fill="none" stroke="#63b8ff" d="m365-925.63 3.5-10 3.5 10z"/>
</a></g></g></svg>