<?xml version="1.0" encoding="UTF-8" standalone="no"?>
<!DOCTYPE svg PUBLIC "-//W3C//DTD SVG 1.1//EN"
 "http://www.w3.org/Graphics/SVG/1.1/DTD/svg11.dtd">
<!-- Generated by graphviz version 2.43.0 (0)
 -->
<!-- Title: GroupMultiplierBC Pages: 1 -->
<!--zoomable 1668 -->

<svg id="main" version="1.1" xmlns="http://www.w3.org/2000/svg" xmlns:xlink="http://www.w3.org/1999/xlink" xml:space="preserve" onload="init(evt)">
<style type="text/css"><![CDATA[
.node, .edge {opacity: 0.7;}
.node.selected, .edge.selected {opacity: 1;}
.edge:hover path { stroke: red; }
.edge:hover polygon { stroke: red; fill: red; }
]]></style>

<defs>
  <circle id="rim" cx="0" cy="0" r="7"/>
  <circle id="rim2" cx="0" cy="0" r="3.5"/>
  <g id="zoomPlus">
    <use xlink:href="#rim" fill="#404040"><set attributeName="fill" to="#808080" begin="zoomplus.mouseover" end="zoomplus.mouseout"/></use>
    <path d="M-4,0h8M0,-4v8" fill="none" stroke="white" stroke-width="1.5" pointer-events="none"/>
  </g>
  <g id="zoomMin">
    <use xlink:href="#rim" fill="#404040"><set attributeName="fill" to="#808080" begin="zoomminus.mouseover" end="zoomminus.mouseout"/></use>
    <path d="M-4,0h8" fill="none" stroke="white" stroke-width="1.5" pointer-events="none"/>
  </g>
  <g id="arrowUp" transform="translate(30 24)">
    <use xlink:href="#rim"/>
    <path pointer-events="none" fill="none" stroke="white" stroke-width="1.5" d="M0,-3.0v7 M-2.5,-0.5L0,-3.0L2.5,-0.5"/>
  </g>
  <g id="arrowRight" transform="rotate(90) translate(36 -43)">
    <use xlink:href="#rim"/>
    <path pointer-events="none" fill="none" stroke="white" stroke-width="1.5" d="M0,-3.0v7 M-2.5,-0.5L0,-3.0L2.5,-0.5"/>
  </g>
  <g id="arrowDown" transform="rotate(180) translate(-30 -48)">
    <use xlink:href="#rim"/>
    <path pointer-events="none" fill="none" stroke="white" stroke-width="1.5" d="M0,-3.0v7 M-2.5,-0.5L0,-3.0L2.5,-0.5"/>
  </g>
  <g id="arrowLeft" transform="rotate(270) translate(-36 17)">
    <use xlink:href="#rim"/>
    <path pointer-events="none" fill="none" stroke="white" stroke-width="1.5" d="M0,-3.0v7 M-2.5,-0.5L0,-3.0L2.5,-0.5"/>
  </g>
  <g id="resetDef">
    <use xlink:href="#rim2" fill="#404040"><set attributeName="fill" to="#808080" begin="reset.mouseover" end="reset.mouseout"/></use>
  </g>
</defs>
<script type="application/ecmascript">
var viewWidth = 319;
var viewHeight = 1668;
var sectionId = 'dynsection-0';
</script>
<script type="application/ecmascript" xlink:href="../../svg.min.js"/>
<svg id="graph" class="graph">
<g id="viewport">
<title>GroupMultiplierBC</title>
<!-- Node1 -->
<g id="Node000001" class="node">
<title>Node1</title>
<g id="a_Node000001"><a xlink:title="A GroupMultiplierBC class.">
<polygon fill="#999999" stroke="transparent" points="207,-68 79,-68 79,0 207,0 207,-68"/>
<text text-anchor="start" x="85.5" y="-55.2" font-family="Consolas" font-size="11.00">GroupMultiplierBC</text>
<text text-anchor="start" x="139.5" y="-39.2" font-family="Consolas" font-size="11.00"> </text>
<text text-anchor="start" x="83" y="-23.2" font-family="Consolas" font-size="11.00">+</text>
<text text-anchor="start" x="94" y="-23.2" font-family="Consolas" font-size="11.00">process()</text>
<text text-anchor="start" x="83" y="-7.2" font-family="Consolas" font-size="11.00">+</text>
<text text-anchor="start" x="94" y="-7.2" font-family="Consolas" font-size="11.00">GroupPenaltyBC()</text>
<polygon fill="#666666" stroke="#666666" points="79,-50 79,-50 207,-50 207,-50 79,-50"/>
<polygon fill="#666666" stroke="#666666" points="79,-34 79,-34 207,-34 207,-34 79,-34"/>
<polygon fill="none" stroke="#666666" points="79,0 79,-68 207,-68 207,0 79,0"/>
</a>
</g>
</g>
<!-- Node2 -->
<g id="Node000002" class="node">
<title>Node2</title>
<g id="a_Node000002"><a xlink:href="../../d1/d4a/class_group_penalty_b_c.html" target="_top" xlink:title="A GroupPenaltyBC class.">
<polygon fill="white" stroke="transparent" points="207,-188 79,-188 79,-104 207,-104 207,-188"/>
<text text-anchor="start" x="95.5" y="-175.2" font-family="Consolas" font-size="11.00">GroupPenaltyBC</text>
<text text-anchor="start" x="139.5" y="-159.2" font-family="Consolas" font-size="11.00"> </text>
<text text-anchor="start" x="83" y="-143.2" font-family="Consolas" font-size="11.00">+</text>
<text text-anchor="start" x="94" y="-143.2" font-family="Consolas" font-size="11.00">GroupPenaltyBC()</text>
<text text-anchor="start" x="83" y="-127.2" font-family="Consolas" font-size="11.00">+</text>
<text text-anchor="start" x="94" y="-127.2" font-family="Consolas" font-size="11.00">initialize()</text>
<text text-anchor="start" x="83" y="-111.2" font-family="Consolas" font-size="11.00">+</text>
<text text-anchor="start" x="94" y="-111.2" font-family="Consolas" font-size="11.00">process()</text>
<polygon fill="#666666" stroke="#666666" points="79,-170 79,-170 207,-170 207,-170 79,-170"/>
<polygon fill="#666666" stroke="#666666" points="79,-154 79,-154 207,-154 207,-154 79,-154"/>
<polygon fill="none" stroke="#666666" points="79,-104 79,-188 207,-188 207,-104 79,-104"/>
</a>
</g>
</g>
<!-- Node2&#45;&gt;Node1 -->
<g id="edge1_Node000001_Node000002" class="edge">
<title>Node2&#45;&gt;Node1</title>
<g id="a_edge1_Node000001_Node000002"><a xlink:title=" ">
<path fill="none" stroke="#63b8ff" d="M143,-93.69C143,-85.05 143,-76.29 143,-68.26"/>
<polygon fill="none" stroke="#63b8ff" points="139.5,-93.73 143,-103.73 146.5,-93.73 139.5,-93.73"/>
</a>
</g>
</g>
<!-- Node3 -->
<g id="Node000003" class="node">
<title>Node3</title>
<g id="a_Node000003"><a xlink:href="../../d6/dde/class_group_modifier.html" target="_top" xlink:title=" ">
<polygon fill="white" stroke="transparent" points="148,-292 0,-292 0,-224 148,-224 148,-292"/>
<text text-anchor="start" x="30" y="-279.2" font-family="Consolas" font-size="11.00">GroupModifier</text>
<text text-anchor="start" x="70.5" y="-263.2" font-family="Consolas" font-size="11.00"> </text>
<text text-anchor="start" x="4" y="-247.2" font-family="Consolas" font-size="11.00">+</text>
<text text-anchor="start" x="15" y="-247.2" font-family="Consolas" font-size="11.00">GroupModifier()</text>
<text text-anchor="start" x="4" y="-231.2" font-family="Consolas" font-size="11.00">#</text>
<text text-anchor="start" x="15" y="-231.2" font-family="Consolas" font-size="11.00">update_object_tag()</text>
<polygon fill="#666666" stroke="#666666" points="0,-274 0,-274 148,-274 148,-274 0,-274"/>
<polygon fill="#666666" stroke="#666666" points="0,-258 0,-258 148,-258 148,-258 0,-258"/>
<polygon fill="none" stroke="#666666" points="0,-224 0,-292 148,-292 148,-224 0,-224"/>
</a>
</g>
</g>
<!-- Node3&#45;&gt;Node2 -->
<g id="edge2_Node000002_Node000003" class="edge">
<title>Node3&#45;&gt;Node2</title>
<g id="a_edge2_Node000002_Node000003"><a xlink:title=" ">
<path fill="none" stroke="darkgreen" d="M100.15,-215.31C105.73,-206.42 111.61,-197.04 117.18,-188.17"/>
<polygon fill="none" stroke="darkgreen" points="97.05,-213.67 94.7,-224 102.98,-217.38 97.05,-213.67"/>
</a>
</g>
</g>
<!-- Node4 -->
<g id="Node000004" class="node">
<title>Node4</title>
<g id="a_Node000004"><a xlink:href="../../db/d0b/class_multiplier_b_c.html" target="_top" xlink:title="A MultiplierBC class.">
<polygon fill="white" stroke="transparent" points="260,-292 166,-292 166,-224 260,-224 260,-292"/>
<text text-anchor="start" x="172" y="-279.2" font-family="Consolas" font-size="11.00">MultiplierBC</text>
<text text-anchor="start" x="209.5" y="-263.2" font-family="Consolas" font-size="11.00"> </text>
<text text-anchor="start" x="170" y="-247.2" font-family="Consolas" font-size="11.00">+</text>
<text text-anchor="start" x="181" y="-247.2" font-family="Consolas" font-size="11.00">process()</text>
<text text-anchor="start" x="170" y="-231.2" font-family="Consolas" font-size="11.00">+</text>
<text text-anchor="start" x="181" y="-231.2" font-family="Consolas" font-size="11.00">PenaltyBC()</text>
<polygon fill="#666666" stroke="#666666" points="166,-274 166,-274 260,-274 260,-274 166,-274"/>
<polygon fill="#666666" stroke="#666666" points="166,-258 166,-258 260,-258 260,-258 166,-258"/>
<polygon fill="none" stroke="#666666" points="166,-224 166,-292 260,-292 260,-224 166,-224"/>
</a>
</g>
</g>
<!-- Node4&#45;&gt;Node2 -->
<g id="edge3_Node000002_Node000004" class="edge">
<title>Node4&#45;&gt;Node2</title>
<g id="a_edge3_Node000002_Node000004"><a xlink:title=" ">
<path fill="none" stroke="#63b8ff" d="M186.47,-215.31C180.81,-206.42 174.84,-197.04 169.2,-188.17"/>
<polygon fill="none" stroke="#63b8ff" points="183.68,-217.44 192,-224 189.58,-213.68 183.68,-217.44"/>
</a>
</g>
</g>
<!-- Node5 -->
<g id="Node000005" class="node">
<title>Node5</title>
<g id="a_Node000005"><a xlink:href="../../dd/d1e/class_penalty_b_c.html" target="_top" xlink:title="A PenaltyBC class.">
<polygon fill="white" stroke="transparent" points="290.5,-428 135.5,-428 135.5,-328 290.5,-328 290.5,-428"/>
<text text-anchor="start" x="183" y="-415.2" font-family="Consolas" font-size="11.00">PenaltyBC</text>
<text text-anchor="start" x="210" y="-399.2" font-family="Consolas" font-size="11.00"> </text>
<text text-anchor="start" x="140" y="-383.2" font-family="Consolas" font-size="11.00">+</text>
<text text-anchor="start" x="151" y="-383.2" font-family="Consolas" font-size="11.00">PenaltyBC()</text>
<text text-anchor="start" x="140" y="-367.2" font-family="Consolas" font-size="11.00">+</text>
<text text-anchor="start" x="151" y="-367.2" font-family="Consolas" font-size="11.00">initialize()</text>
<text text-anchor="start" x="140" y="-351.2" font-family="Consolas" font-size="11.00">+</text>
<text text-anchor="start" x="151" y="-351.2" font-family="Consolas" font-size="11.00">process()</text>
<text text-anchor="start" x="140" y="-335.2" font-family="Consolas" font-size="11.00">+</text>
<text text-anchor="start" x="151" y="-335.2" font-family="Consolas" font-size="11.00">process_resistance()</text>
<polygon fill="#666666" stroke="#666666" points="136,-410 136,-410 291,-410 291,-410 136,-410"/>
<polygon fill="#666666" stroke="#666666" points="136,-394 136,-394 291,-394 291,-394 136,-394"/>
<polygon fill="none" stroke="#666666" points="135.5,-328 135.5,-428 290.5,-428 290.5,-328 135.5,-328"/>
</a>
</g>
</g>
<!-- Node5&#45;&gt;Node4 -->
<g id="edge4_Node000004_Node000005" class="edge">
<title>Node5&#45;&gt;Node4</title>
<g id="a_edge4_Node000004_Node000005"><a xlink:title=" ">
<path fill="none" stroke="#63b8ff" d="M213,-317.74C213,-308.98 213,-300.23 213,-292.26"/>
<polygon fill="none" stroke="#63b8ff" points="209.5,-317.98 213,-327.98 216.5,-317.98 209.5,-317.98"/>
</a>
</g>
</g>
<!-- Node6 -->
<g id="Node000006" class="node">
<title>Node6</title>
<g id="a_Node000006"><a xlink:href="../../d8/d71/class_constraint.html" target="_top" xlink:title="A Constraint class.">
<polygon fill="white" stroke="transparent" points="310.5,-740 115.5,-740 115.5,-464 310.5,-464 310.5,-740"/>
<text text-anchor="start" x="179.5" y="-727.2" font-family="Consolas" font-size="11.00">Constraint</text>
<text text-anchor="start" x="120" y="-711.2" font-family="Consolas" font-size="11.00">#</text>
<text text-anchor="start" x="131" y="-711.2" font-family="Consolas" font-size="11.00">lagrangian_size</text>
<text text-anchor="start" x="120" y="-695.2" font-family="Consolas" font-size="11.00">#</text>
<text text-anchor="start" x="131" y="-695.2" font-family="Consolas" font-size="11.00">trial_lambda</text>
<text text-anchor="start" x="120" y="-679.2" font-family="Consolas" font-size="11.00">#</text>
<text text-anchor="start" x="131" y="-679.2" font-family="Consolas" font-size="11.00">current_lambda</text>
<text text-anchor="start" x="120" y="-663.2" font-family="Consolas" font-size="11.00">#</text>
<text text-anchor="start" x="131" y="-663.2" font-family="Consolas" font-size="11.00">resistance</text>
<text text-anchor="start" x="120" y="-647.2" font-family="Consolas" font-size="11.00">#</text>
<text text-anchor="start" x="131" y="-647.2" font-family="Consolas" font-size="11.00">stiffness</text>
<text text-anchor="start" x="120" y="-631.2" font-family="Consolas" font-size="11.00">#</text>
<text text-anchor="start" x="131" y="-631.2" font-family="Consolas" font-size="11.00">auxiliary_resistance</text>
<text text-anchor="start" x="120" y="-615.2" font-family="Consolas" font-size="11.00">#</text>
<text text-anchor="start" x="131" y="-615.2" font-family="Consolas" font-size="11.00">auxiliary_load</text>
<text text-anchor="start" x="120" y="-599.2" font-family="Consolas" font-size="11.00">#</text>
<text text-anchor="start" x="131" y="-599.2" font-family="Consolas" font-size="11.00">auxiliary_stiffness</text>
<text text-anchor="start" x="120" y="-583.2" font-family="Consolas" font-size="11.00">+</text>
<text text-anchor="start" x="131" y="-583.2" font-family="Consolas" font-size="11.00">Constraint()</text>
<text text-anchor="start" x="120" y="-567.2" font-family="Consolas" font-size="11.00">+</text>
<text text-anchor="start" x="131" y="-567.2" font-family="Consolas" font-size="11.00">get_resistance()</text>
<text text-anchor="start" x="120" y="-551.2" font-family="Consolas" font-size="11.00">+</text>
<text text-anchor="start" x="131" y="-551.2" font-family="Consolas" font-size="11.00">get_stiffness()</text>
<text text-anchor="start" x="120" y="-535.2" font-family="Consolas" font-size="11.00">+</text>
<text text-anchor="start" x="131" y="-535.2" font-family="Consolas" font-size="11.00">get_auxiliary_resistance()</text>
<text text-anchor="start" x="120" y="-519.2" font-family="Consolas" font-size="11.00">+</text>
<text text-anchor="start" x="131" y="-519.2" font-family="Consolas" font-size="11.00">get_auxiliary_load()</text>
<text text-anchor="start" x="120" y="-503.2" font-family="Consolas" font-size="11.00">+</text>
<text text-anchor="start" x="131" y="-503.2" font-family="Consolas" font-size="11.00">get_auxiliary_stiffness()</text>
<text text-anchor="start" x="120" y="-487.2" font-family="Consolas" font-size="11.00">+</text>
<text text-anchor="start" x="131" y="-487.2" font-family="Consolas" font-size="11.00">set_multiplier_size()</text>
<text text-anchor="start" x="120" y="-471.2" font-family="Consolas" font-size="11.00">+</text>
<text text-anchor="start" x="131" y="-471.2" font-family="Consolas" font-size="11.00">get_multiplier_size()</text>
<polygon fill="#666666" stroke="#666666" points="116,-722 116,-722 311,-722 311,-722 116,-722"/>
<polygon fill="#666666" stroke="#666666" points="116,-594 116,-594 129,-594 129,-594 116,-594"/>
<polygon fill="#666666" stroke="#666666" points="129,-594 129,-594 311,-594 311,-594 129,-594"/>
<polygon fill="none" stroke="#666666" points="115.5,-464 115.5,-740 310.5,-740 310.5,-464 115.5,-464"/>
</a>
</g>
</g>
<!-- Node6&#45;&gt;Node5 -->
<g id="edge5_Node000005_Node000006" class="edge">
<title>Node6&#45;&gt;Node5</title>
<g id="a_edge5_Node000005_Node000006"><a xlink:title=" ">
<path fill="none" stroke="#63b8ff" d="M213,-453.64C213,-444.69 213,-436.09 213,-428.12"/>
<polygon fill="none" stroke="#63b8ff" points="209.5,-453.88 213,-463.88 216.5,-453.88 209.5,-453.88"/>
</a>
</g>
</g>
<!-- Node7 -->
<g id="Node000007" class="node">
<title>Node7</title>
<g id="a_Node000007"><a xlink:href="../../da/d44/class_conditional_modifier.html" target="_top" xlink:title="Abstract base for node/element&#45;scoped, step&#45;conditional modifiers (constraints and loads).">
<polygon fill="white" stroke="transparent" points="293.5,-1148 132.5,-1148 132.5,-776 293.5,-776 293.5,-1148"/>
<text text-anchor="start" x="149" y="-1135.2" font-family="Consolas" font-size="11.00">ConditionalModifier</text>
<text text-anchor="start" x="137" y="-1119.2" font-family="Consolas" font-size="11.00">#</text>
<text text-anchor="start" x="148" y="-1119.2" font-family="Consolas" font-size="11.00">start_step</text>
<text text-anchor="start" x="137" y="-1103.2" font-family="Consolas" font-size="11.00">#</text>
<text text-anchor="start" x="148" y="-1103.2" font-family="Consolas" font-size="11.00">end_step</text>
<text text-anchor="start" x="137" y="-1087.2" font-family="Consolas" font-size="11.00">#</text>
<text text-anchor="start" x="148" y="-1087.2" font-family="Consolas" font-size="11.00">dof_order</text>
<text text-anchor="start" x="137" y="-1071.2" font-family="Consolas" font-size="11.00">#</text>
<text text-anchor="start" x="148" y="-1071.2" font-family="Consolas" font-size="11.00">target_node</text>
<text text-anchor="start" x="137" y="-1055.2" font-family="Consolas" font-size="11.00">#</text>
<text text-anchor="start" x="148" y="-1055.2" font-family="Consolas" font-size="11.00">target_element</text>
<text text-anchor="start" x="137" y="-1039.2" font-family="Consolas" font-size="11.00">#</text>
<text text-anchor="start" x="148" y="-1039.2" font-family="Consolas" font-size="11.00">target_dof</text>
<text text-anchor="start" x="137" y="-1023.2" font-family="Consolas" font-size="11.00">+</text>
<text text-anchor="start" x="148" y="-1023.2" font-family="Consolas" font-size="11.00">ConditionalModifier()</text>
<text text-anchor="start" x="137" y="-1007.2" font-family="Consolas" font-size="11.00">+</text>
<text text-anchor="start" x="148" y="-1007.2" font-family="Consolas" font-size="11.00">initialize()</text>
<text text-anchor="start" x="137" y="-991.2" font-family="Consolas" font-size="11.00">+</text>
<text text-anchor="start" x="148" y="-991.2" font-family="Consolas" font-size="11.00">process()</text>
<text text-anchor="start" x="137" y="-975.2" font-family="Consolas" font-size="11.00">+</text>
<text text-anchor="start" x="148" y="-975.2" font-family="Consolas" font-size="11.00">process_resistance()</text>
<text text-anchor="start" x="137" y="-959.2" font-family="Consolas" font-size="11.00">+</text>
<text text-anchor="start" x="148" y="-959.2" font-family="Consolas" font-size="11.00">stage()</text>
<text text-anchor="start" x="137" y="-943.2" font-family="Consolas" font-size="11.00">+</text>
<text text-anchor="start" x="148" y="-943.2" font-family="Consolas" font-size="11.00">get_involving_nodes()</text>
<text text-anchor="start" x="137" y="-927.2" font-family="Consolas" font-size="11.00">+</text>
<text text-anchor="start" x="148" y="-927.2" font-family="Consolas" font-size="11.00">get_node_dof()</text>
<text text-anchor="start" x="137" y="-911.2" font-family="Consolas" font-size="11.00">+</text>
<text text-anchor="start" x="148" y="-911.2" font-family="Consolas" font-size="11.00">deinitialize()</text>
<text text-anchor="start" x="137" y="-895.2" font-family="Consolas" font-size="11.00">+</text>
<text text-anchor="start" x="148" y="-895.2" font-family="Consolas" font-size="11.00">is_initialized()</text>
<text text-anchor="start" x="137" y="-879.2" font-family="Consolas" font-size="11.00">+</text>
<text text-anchor="start" x="148" y="-879.2" font-family="Consolas" font-size="11.00">set_start_step()</text>
<text text-anchor="start" x="148" y="-863.2" font-family="Consolas" font-size="11.00">and 9 more...</text>
<text text-anchor="start" x="137" y="-847.2" font-family="Consolas" font-size="11.00">#</text>
<text text-anchor="start" x="148" y="-847.2" font-family="Consolas" font-size="11.00">get_amplitude()</text>
<text text-anchor="start" x="137" y="-831.2" font-family="Consolas" font-size="11.00">#</text>
<text text-anchor="start" x="148" y="-831.2" font-family="Consolas" font-size="11.00">get_dof_component()</text>
<text text-anchor="start" x="137" y="-815.2" font-family="Consolas" font-size="11.00">#</text>
<text text-anchor="start" x="148" y="-815.2" font-family="Consolas" font-size="11.00">validate_node()</text>
<text text-anchor="start" x="137" y="-799.2" font-family="Consolas" font-size="11.00">#</text>
<text text-anchor="start" x="148" y="-799.2" font-family="Consolas" font-size="11.00">validate_element()</text>
<text text-anchor="start" x="137" y="-783.2" font-family="Consolas" font-size="11.00">#</text>
<text text-anchor="start" x="148" y="-783.2" font-family="Consolas" font-size="11.00">collect_node_dof()</text>
<polygon fill="#666666" stroke="#666666" points="133,-1130 133,-1130 294,-1130 294,-1130 133,-1130"/>
<polygon fill="#666666" stroke="#666666" points="133,-1034 133,-1034 146,-1034 146,-1034 133,-1034"/>
<polygon fill="#666666" stroke="#666666" points="146,-1034 146,-1034 294,-1034 294,-1034 146,-1034"/>
<polygon fill="none" stroke="#666666" points="132.5,-776 132.5,-1148 293.5,-1148 293.5,-776 132.5,-776"/>
</a>
</g>
</g>
<!-- Node7&#45;&gt;Node6 -->
<g id="edge6_Node000006_Node000007" class="edge">
<title>Node7&#45;&gt;Node6</title>
<g id="a_edge6_Node000006_Node000007"><a xlink:title=" ">
<path fill="none" stroke="#63b8ff" d="M213,-765.9C213,-757.33 213,-748.81 213,-740.43"/>
<polygon fill="none" stroke="#63b8ff" points="209.5,-765.97 213,-775.97 216.5,-765.97 209.5,-765.97"/>
</a>
</g>
</g>
<!-- Node8 -->
<g id="Node000008" class="node">
<title>Node8</title>
<g id="a_Node000008"><a xlink:href="../../db/db8/class_unique_tag.html" target="_top" xlink:title="Label objects that cannot be copied.">
<polygon fill="white" stroke="transparent" points="263.5,-1348 162.5,-1348 162.5,-1184 263.5,-1184 263.5,-1348"/>
<text text-anchor="start" x="183" y="-1335.2" font-family="Consolas" font-size="11.00">UniqueTag</text>
<text text-anchor="start" x="210" y="-1319.2" font-family="Consolas" font-size="11.00"> </text>
<text text-anchor="start" x="167" y="-1303.2" font-family="Consolas" font-size="11.00">+</text>
<text text-anchor="start" x="178" y="-1303.2" font-family="Consolas" font-size="11.00">UniqueTag()</text>
<text text-anchor="start" x="167" y="-1287.2" font-family="Consolas" font-size="11.00">+</text>
<text text-anchor="start" x="178" y="-1287.2" font-family="Consolas" font-size="11.00">UniqueTag()</text>
<text text-anchor="start" x="167" y="-1271.2" font-family="Consolas" font-size="11.00">+</text>
<text text-anchor="start" x="178" y="-1271.2" font-family="Consolas" font-size="11.00">operator=()</text>
<text text-anchor="start" x="167" y="-1255.2" font-family="Consolas" font-size="11.00">+</text>
<text text-anchor="start" x="178" y="-1255.2" font-family="Consolas" font-size="11.00">operator=()</text>
<text text-anchor="start" x="167" y="-1239.2" font-family="Consolas" font-size="11.00">+</text>
<text text-anchor="start" x="178" y="-1239.2" font-family="Consolas" font-size="11.00">~UniqueTag()</text>
<text text-anchor="start" x="167" y="-1223.2" font-family="Consolas" font-size="11.00">+</text>
<text text-anchor="start" x="178" y="-1223.2" font-family="Consolas" font-size="11.00">Tag()</text>
<text text-anchor="start" x="167" y="-1207.2" font-family="Consolas" font-size="11.00">+</text>
<text text-anchor="start" x="178" y="-1207.2" font-family="Consolas" font-size="11.00">Tag()</text>
<text text-anchor="start" x="167" y="-1191.2" font-family="Consolas" font-size="11.00">+</text>
<text text-anchor="start" x="178" y="-1191.2" font-family="Consolas" font-size="11.00">Tag()</text>
<polygon fill="#666666" stroke="#666666" points="163,-1330 163,-1330 264,-1330 264,-1330 163,-1330"/>
<polygon fill="#666666" stroke="#666666" points="163,-1314 163,-1314 264,-1314 264,-1314 163,-1314"/>
<polygon fill="none" stroke="#666666" points="162.5,-1184 162.5,-1348 263.5,-1348 263.5,-1184 162.5,-1184"/>
</a>
</g>
</g>
<!-- Node8&#45;&gt;Node7 -->
<g id="edge7_Node000007_Node000008" class="edge">
<title>Node8&#45;&gt;Node7</title>
<g id="a_edge7_Node000007_Node000008"><a xlink:title=" ">
<path fill="none" stroke="#63b8ff" d="M213,-1173.47C213,-1165.29 213,-1156.84 213,-1148.22"/>
<polygon fill="none" stroke="#63b8ff" points="209.5,-1173.67 213,-1183.67 216.5,-1173.67 209.5,-1173.67"/>
</a>
</g>
</g>
<!-- Node9 -->
<g id="Node000009" class="node">
<title>Node9</title>
<g id="a_Node000009"><a xlink:href="../../d0/d57/class_tag.html" target="_top" xlink:title="A base Tag class.">
<polygon fill="white" stroke="transparent" points="263.5,-1660 162.5,-1660 162.5,-1384 263.5,-1384 263.5,-1660"/>
<text text-anchor="start" x="203" y="-1647.2" font-family="Consolas" font-size="11.00">Tag</text>
<text text-anchor="start" x="210" y="-1631.2" font-family="Consolas" font-size="11.00"> </text>
<text text-anchor="start" x="167" y="-1615.2" font-family="Consolas" font-size="11.00">+</text>
<text text-anchor="start" x="178" y="-1615.2" font-family="Consolas" font-size="11.00">Tag()</text>
<text text-anchor="start" x="167" y="-1599.2" font-family="Consolas" font-size="11.00">+</text>
<text text-anchor="start" x="178" y="-1599.2" font-family="Consolas" font-size="11.00">Tag()</text>
<text text-anchor="start" x="167" y="-1583.2" font-family="Consolas" font-size="11.00">+</text>
<text text-anchor="start" x="178" y="-1583.2" font-family="Consolas" font-size="11.00">Tag()</text>
<text text-anchor="start" x="167" y="-1567.2" font-family="Consolas" font-size="11.00">+</text>
<text text-anchor="start" x="178" y="-1567.2" font-family="Consolas" font-size="11.00">operator=()</text>
<text text-anchor="start" x="167" y="-1551.2" font-family="Consolas" font-size="11.00">+</text>
<text text-anchor="start" x="178" y="-1551.2" font-family="Consolas" font-size="11.00">operator=()</text>
<text text-anchor="start" x="167" y="-1535.2" font-family="Consolas" font-size="11.00">+</text>
<text text-anchor="start" x="178" y="-1535.2" font-family="Consolas" font-size="11.00">~Tag()</text>
<text text-anchor="start" x="167" y="-1519.2" font-family="Consolas" font-size="11.00">+</text>
<text text-anchor="start" x="178" y="-1519.2" font-family="Consolas" font-size="11.00">set_tag()</text>
<text text-anchor="start" x="167" y="-1503.2" font-family="Consolas" font-size="11.00">+</text>
<text text-anchor="start" x="178" y="-1503.2" font-family="Consolas" font-size="11.00">get_tag()</text>
<text text-anchor="start" x="167" y="-1487.2" font-family="Consolas" font-size="11.00">+</text>
<text text-anchor="start" x="178" y="-1487.2" font-family="Consolas" font-size="11.00">enable()</text>
<text text-anchor="start" x="167" y="-1471.2" font-family="Consolas" font-size="11.00">+</text>
<text text-anchor="start" x="178" y="-1471.2" font-family="Consolas" font-size="11.00">disable()</text>
<text text-anchor="start" x="167" y="-1455.2" font-family="Consolas" font-size="11.00">+</text>
<text text-anchor="start" x="178" y="-1455.2" font-family="Consolas" font-size="11.00">guard()</text>
<text text-anchor="start" x="167" y="-1439.2" font-family="Consolas" font-size="11.00">+</text>
<text text-anchor="start" x="178" y="-1439.2" font-family="Consolas" font-size="11.00">unguard()</text>
<text text-anchor="start" x="167" y="-1423.2" font-family="Consolas" font-size="11.00">+</text>
<text text-anchor="start" x="178" y="-1423.2" font-family="Consolas" font-size="11.00">is_active()</text>
<text text-anchor="start" x="167" y="-1407.2" font-family="Consolas" font-size="11.00">+</text>
<text text-anchor="start" x="178" y="-1407.2" font-family="Consolas" font-size="11.00">is_guarded()</text>
<text text-anchor="start" x="167" y="-1391.2" font-family="Consolas" font-size="11.00">+</text>
<text text-anchor="start" x="178" y="-1391.2" font-family="Consolas" font-size="11.00">print()</text>
<polygon fill="#666666" stroke="#666666" points="163,-1642 163,-1642 264,-1642 264,-1642 163,-1642"/>
<polygon fill="#666666" stroke="#666666" points="163,-1626 163,-1626 264,-1626 264,-1626 163,-1626"/>
<polygon fill="none" stroke="#666666" points="162.5,-1384 162.5,-1660 263.5,-1660 263.5,-1384 162.5,-1384"/>
</a>
</g>
</g>
<!-- Node9&#45;&gt;Node8 -->
<g id="edge8_Node000008_Node000009" class="edge">
<title>Node9&#45;&gt;Node8</title>
<g id="a_edge8_Node000008_Node000009"><a xlink:title=" ">
<path fill="none" stroke="#63b8ff" d="M213,-1373.72C213,-1365.04 213,-1356.49 213,-1348.23"/>
<polygon fill="none" stroke="#63b8ff" points="209.5,-1373.96 213,-1383.96 216.5,-1373.96 209.5,-1373.96"/>
</a>
</g>
</g>
</g>
</svg>

<g id="navigator" transform="translate(0 0)" fill="#404254">
  <rect fill="#f2f5e9" fill-opacity="0.5" stroke="#606060" stroke-width=".5" x="0" y="0" width="60" height="60"/>
  <use id="zoomplus" xlink:href="#zoomPlus" x="17" y="9" onmousedown="handleZoom(evt,'in')"/>
  <use id="zoomminus" xlink:href="#zoomMin" x="42" y="9" onmousedown="handleZoom(evt,'out')"/>
  <use id="reset" xlink:href="#resetDef" x="30" y="36" onmousedown="handleReset()"/>
   <use id="arrowup" xlink:href="#arrowUp" x="0" y="0" onmousedown="handlePan(0,-1)"/>
  <use id="arrowright" xlink:href="#arrowRight" x="0" y="0" onmousedown="handlePan(1,0)"/>
  <use id="arrowdown" xlink:href="#arrowDown" x="0" y="0" onmousedown="handlePan(0,1)"/>
  <use id="arrowleft" xlink:href="#arrowLeft" x="0" y="0" onmousedown="handlePan(-1,0)"/>
</g>
<svg viewBox="0 0 15 15" width="100%" height="30px" preserveAspectRatio="xMaxYMin meet">
 <g id="arrow_out" transform="scale(0.3 0.3)">
  <a xlink:href="class_group_multiplier_b_c__inherit__graph_org.svg" target="_base">
   <rect id="button" ry="5" rx="5" y="6" x="6" height="38" width="38"
        fill="#f2f5e9" fill-opacity="0.5" stroke="#606060" stroke-width="1.0"/>
   <path id="arrow"
     d="M 11.500037,31.436501 C 11.940474,20.09759 22.043105,11.32322 32.158766,21.979434 L 37.068811,17.246167 C 37.068811,17.246167 37.088388,32 37.088388,32 L 22.160133,31.978069 C 22.160133,31.978069 26.997745,27.140456 26.997745,27.140456 C 18.528582,18.264221 13.291696,25.230495 11.500037,31.436501 z"
     style="fill:#404040;"/>
  </a>
 </g>
</svg>

<style type='text/css'>
<![CDATA[
[data-mouse-over-selected='false'] { opacity: 0.7; }
[data-mouse-over-selected='true']  { opacity: 1.0; }
]]>
</style>
<script type="application/ecmascript"><![CDATA[
document.addEventListener('DOMContentLoaded', (event) => {
  highlightEdges();
  highlightAdjacentNodes();
});
]]></script>
</svg>
