<?xml version="1.0" encoding="UTF-8" standalone="no"?>
<!DOCTYPE svg PUBLIC "-//W3C//DTD SVG 1.1//EN"
 "http://www.w3.org/Graphics/SVG/1.1/DTD/svg11.dtd">
<!-- Generated by graphviz version 2.43.0 (0)
 -->
<!-- Title: DataBilinearDP Pages: 1 -->
<svg width="163pt" height="184pt"
 viewBox="0.00 0.00 162.50 184.00" xmlns="http://www.w3.org/2000/svg" xmlns:xlink="http://www.w3.org/1999/xlink">

<svg id="main" version="1.1" xmlns="http://www.w3.org/2000/svg" xmlns:xlink="http://www.w3.org/1999/xlink" xml:space="preserve" onload="init(evt)">
<style type="text/css"><![CDATA[
.node, .edge {opacity: 0.7;}
.node.selected, .edge.selected {opacity: 1;}
.edge:hover path { stroke: red; }
.edge:hover polygon { stroke: red; fill: red; }
]]></style>
<script type="application/ecmascript" xlink:href="../../svg.min.js"/>
<svg id="graph" class="graph">
<g id="graph0" class="graph" transform="scale(1 1) rotate(0) translate(4 180)">
<title>DataBilinearDP</title>
<!-- Node1 -->
<g id="Node000001" class="node">
<title>Node1</title>
<g id="a_Node000001"><a xlink:title=" ">
<polygon fill="#999999" stroke="transparent" points="105,-52 0,-52 0,0 105,0 105,-52"/>
<text text-anchor="start" x="5.5" y="-39.2" font-family="Consolas" font-size="11.00">DataBilinearDP</text>
<text text-anchor="start" x="49.5" y="-23.2" font-family="Consolas" font-size="11.00"> </text>
<text text-anchor="start" x="49.5" y="-7.2" font-family="Consolas" font-size="11.00"> </text>
<polygon fill="#666666" stroke="#666666" points="0.5,-34 0.5,-34 105.5,-34 105.5,-34 0.5,-34"/>
<polygon fill="#666666" stroke="#666666" points="0.5,-18 0.5,-18 105.5,-18 105.5,-18 0.5,-18"/>
<polygon fill="none" stroke="#666666" points="0,0 0,-52 105,-52 105,0 0,0"/>
</a>
</g>
</g>
<!-- Node2 -->
<g id="Node000002" class="node">
<title>Node2</title>
<g id="a_Node000002"><a xlink:title=" ">
<polygon fill="white" stroke="transparent" points="78,-176 27,-176 27,-124 78,-124 78,-176"/>
<text text-anchor="start" x="32.5" y="-163.2" font-family="Consolas" font-size="11.00">double</text>
<text text-anchor="start" x="49.5" y="-147.2" font-family="Consolas" font-size="11.00"> </text>
<text text-anchor="start" x="49.5" y="-131.2" font-family="Consolas" font-size="11.00"> </text>
<polygon fill="#666666" stroke="#666666" points="27.5,-158 27.5,-158 78.5,-158 78.5,-158 27.5,-158"/>
<polygon fill="#666666" stroke="#666666" points="27.5,-142 27.5,-142 78.5,-142 78.5,-142 27.5,-142"/>
<polygon fill="none" stroke="#666666" points="27,-124 27,-176 78,-176 78,-124 27,-124"/>
</a>
</g>
</g>
<!-- Node2&#45;&gt;Node1 -->
<g id="edge1_Node000001_Node000002" class="edge">
<title>Node2&#45;&gt;Node1</title>
<g id="a_edge1_Node000001_Node000002"><a xlink:title=" ">
<path fill="none" stroke="#63b8ff" d="M52.5,-123.72C52.5,-106.55 52.5,-83.54 52.5,-64.27"/>
<polygon fill="none" stroke="#63b8ff" points="52.5,-64.25 48.5,-58.25 52.5,-52.25 56.5,-58.25 52.5,-64.25"/>
</a>
</g>
<text text-anchor="middle" x="103.5" y="-97.2" font-family="Consolas" font-size="11.00" fill="grey"> +cohesion</text>
<text text-anchor="middle" x="103.5" y="-85.2" font-family="Consolas" font-size="11.00" fill="grey">+cohesion_slope</text>
<text text-anchor="middle" x="103.5" y="-73.2" font-family="Consolas" font-size="11.00" fill="grey">+critical</text>
</g>
</g>
</svg>
</svg>

<style type='text/css'>
<![CDATA[
[data-mouse-over-selected='false'] { opacity: 0.7; }
[data-mouse-over-selected='true']  { opacity: 1.0; }
]]>
</style>
<script type="application/ecmascript"><![CDATA[
document.addEventListener('DOMContentLoaded', (event) => {
  highlightEdges();
  highlightAdjacentNodes();
});
]]></script>
</svg>
