<?xml version="1.0" encoding="UTF-8" standalone="no"?>
<!DOCTYPE svg PUBLIC "-//W3C//DTD SVG 1.1//EN"
 "http://www.w3.org/Graphics/SVG/1.1/DTD/svg11.dtd">
<!-- Generated by graphviz version 2.43.0 (0)
 -->
<!-- Title: LeeNewmarkFull::process_constraint_resistance Pages: 1 -->
<svg width="562pt" height="90pt"
 viewBox="0.00 0.00 562.00 90.00" xmlns="http://www.w3.org/2000/svg" xmlns:xlink="http://www.w3.org/1999/xlink">
<g id="graph0" class="graph" transform="scale(1 1) rotate(0) translate(4 86)">
<title>LeeNewmarkFull::process_constraint_resistance</title>
<!-- Node1 -->
<g id="Node000001" class="node">
<title>Node1</title>
<g id="a_Node000001"><a xlink:title=" ">
<polygon fill="#999999" stroke="#666666" points="172,-57 0,-57 0,-25 172,-25 172,-57"/>
<text text-anchor="start" x="8" y="-44.2" font-family="Consolas" font-size="11.00">LeeNewmarkFull::process</text>
<text text-anchor="middle" x="86" y="-32.2" font-family="Consolas" font-size="11.00">_constraint_resistance</text>
</a>
</g>
</g>
<!-- Node2 -->
<g id="Node000002" class="node">
<title>Node2</title>
<g id="a_Node000002"><a xlink:href="../../d2/d22/class_lee_newmark_base.html#ac7acb5db8d18049e47c893296bb200f7" target="_top" xlink:title=" ">
<polygon fill="white" stroke="#666666" points="369.5,-82 211.5,-82 211.5,-50 369.5,-50 369.5,-82"/>
<text text-anchor="start" x="219.5" y="-69.2" font-family="Consolas" font-size="11.00">LeeNewmarkBase::erase</text>
<text text-anchor="middle" x="290.5" y="-57.2" font-family="Consolas" font-size="11.00">_top_left_block</text>
</a>
</g>
</g>
<!-- Node1&#45;&gt;Node2 -->
<g id="edge1_Node000001_Node000002" class="edge">
<title>Node1&#45;&gt;Node2</title>
<g id="a_edge1_Node000001_Node000002"><a xlink:title=" ">
<path fill="none" stroke="#63b8ff" d="M172.29,-51.53C181.92,-52.72 191.74,-53.93 201.4,-55.12"/>
<polygon fill="#63b8ff" stroke="#63b8ff" points="201.04,-58.61 211.4,-56.36 201.9,-51.66 201.04,-58.61"/>
</a>
</g>
</g>
<!-- Node3 -->
<g id="Node000003" class="node">
<title>Node3</title>
<g id="a_Node000003"><a xlink:href="../../d6/d55/class_integrator.html#a8c7e387576ac3fc881cb2386640b38e9" target="_top" xlink:title=" ">
<polygon fill="white" stroke="#666666" points="373,-32 208,-32 208,0 373,0 373,-32"/>
<text text-anchor="start" x="216" y="-19.2" font-family="Consolas" font-size="11.00">Integrator::process</text>
<text text-anchor="middle" x="290.5" y="-7.2" font-family="Consolas" font-size="11.00">_constraint_resistance</text>
</a>
</g>
</g>
<!-- Node1&#45;&gt;Node3 -->
<g id="edge2_Node000001_Node000003" class="edge">
<title>Node1&#45;&gt;Node3</title>
<g id="a_edge2_Node000001_Node000003"><a xlink:title=" ">
<path fill="none" stroke="#63b8ff" d="M172.29,-30.47C180.76,-29.42 189.38,-28.36 197.91,-27.31"/>
<polygon fill="#63b8ff" stroke="#63b8ff" points="198.37,-30.78 207.86,-26.08 197.51,-23.83 198.37,-30.78"/>
</a>
</g>
</g>
<!-- Node4 -->
<g id="Node000004" class="node">
<title>Node4</title>
<g id="a_Node000004"><a xlink:href="../../d6/d55/class_integrator.html#a0797ecf305780ac6ef13969f65804df6" target="_top" xlink:title=" ">
<polygon fill="white" stroke="#666666" points="554,-32 409,-32 409,0 554,0 554,-32"/>
<text text-anchor="start" x="417" y="-19.2" font-family="Consolas" font-size="11.00">Integrator::process</text>
<text text-anchor="middle" x="481.5" y="-7.2" font-family="Consolas" font-size="11.00">_constraint_impl</text>
</a>
</g>
</g>
<!-- Node3&#45;&gt;Node4 -->
<g id="edge3_Node000003_Node000004" class="edge">
<title>Node3&#45;&gt;Node4</title>
<g id="a_edge3_Node000003_Node000004"><a xlink:title=" ">
<path fill="none" stroke="#63b8ff" d="M373.02,-16C381.48,-16 390.07,-16 398.53,-16"/>
<polygon fill="#63b8ff" stroke="#63b8ff" points="398.76,-19.5 408.76,-16 398.76,-12.5 398.76,-19.5"/>
</a>
</g>
</g>
</g>
</svg>
