<?xml version="1.0" encoding="UTF-8" standalone="no"?>
<!DOCTYPE svg PUBLIC "-//W3C//DTD SVG 1.1//EN"
 "http://www.w3.org/Graphics/SVG/1.1/DTD/svg11.dtd">
<!-- Generated by graphviz version 2.43.0 (0)
 -->
<!-- Title: ConditionalModifier::get_all_nodal_active_dof Pages: 1 -->
<svg width="381pt" height="41pt"
 viewBox="0.00 0.00 381.00 41.00" xmlns="http://www.w3.org/2000/svg" xmlns:xlink="http://www.w3.org/1999/xlink">
<g id="graph0" class="graph" transform="scale(1 1) rotate(0) translate(4 37)">
<title>ConditionalModifier::get_all_nodal_active_dof</title>
<polygon fill="white" stroke="transparent" points="-4,4 -4,-37 377,-37 377,4 -4,4"/>
<!-- Node1 -->
<g id="node1" class="node">
<title>Node1</title>
<g id="a_node1"><a xlink:title="Generate active DoF vector from all nodes in the model.">
<polygon fill="#bfbfbf" stroke="black" points="181,-0.5 181,-32.5 373,-32.5 373,-0.5 181,-0.5"/>
<text text-anchor="start" x="189" y="-19.7" font-family="Consolas" font-size="11.00">ConditionalModifier</text>
<text text-anchor="middle" x="277" y="-7.7" font-family="Consolas" font-size="11.00">::get_all_nodal_active_dof</text>
</a>
</g>
</g>
<!-- Node2 -->
<g id="node2" class="node">
<title>Node2</title>
<g id="a_node2"><a xlink:href="../../d5/df8/class_nodal_acceleration.html#a8357bbc19d70ac071f5eb11fb4b5f3ea" target="_top" xlink:title="This method provides all necessary pieces of typical constraints/loads required, including additional...">
<polygon fill="white" stroke="black" points="0,-0.5 0,-32.5 145,-32.5 145,-0.5 0,-0.5"/>
<text text-anchor="start" x="8" y="-19.7" font-family="Consolas" font-size="11.00">NodalAcceleration::</text>
<text text-anchor="middle" x="72.5" y="-7.7" font-family="Consolas" font-size="11.00">process</text>
</a>
</g>
</g>
<!-- Node1&#45;&gt;Node2 -->
<g id="edge1" class="edge">
<title>Node1&#45;&gt;Node2</title>
<path fill="none" stroke="midnightblue" d="M170.82,-16.5C162.17,-16.5 153.56,-16.5 145.24,-16.5"/>
<polygon fill="midnightblue" stroke="midnightblue" points="170.98,-20 180.98,-16.5 170.98,-13 170.98,-20"/>
</g>
</g>
</svg>
