<?xml version="1.0" encoding="UTF-8" standalone="no"?>
<!DOCTYPE svg PUBLIC "-//W3C//DTD SVG 1.1//EN"
 "http://www.w3.org/Graphics/SVG/1.1/DTD/svg11.dtd">
<!-- Generated by graphviz version 9.0.0 (20230911.1827)
 -->
<!-- Title: PlaneStrain::initialize Pages: 1 -->
<svg width="376pt" height="122pt"
 viewBox="0.00 0.00 376.00 121.50" xmlns="http://www.w3.org/2000/svg" xmlns:xlink="http://www.w3.org/1999/xlink">
<g id="graph0" class="graph" transform="scale(1 1) rotate(0) translate(4 117.5)">
<title>PlaneStrain::initialize</title>
<!-- Node1 -->
<g id="Node000001" class="node">
<title>Node1</title>
<g id="a_Node000001"><a xlink:title=" ">
<polygon fill="#999999" stroke="#666666" points="154,-67.5 0,-67.5 0,-46 154,-46 154,-67.5"/>
<text text-anchor="middle" x="77" y="-53.05" font-family="Consolas" font-size="11.00">PlaneStrain::initialize</text>
</a>
</g>
</g>
<!-- Node2 -->
<g id="Node000002" class="node">
<title>Node2</title>
<g id="a_Node000002"><a xlink:href="../../dc/dee/class_material.html#aede2f9427250c8560ac6547b16d6110a" target="_top" xlink:title=" ">
<polygon fill="white" stroke="#666666" points="350,-113.5 208,-113.5 208,-92 350,-92 350,-113.5"/>
<text text-anchor="middle" x="279" y="-99.05" font-family="Consolas" font-size="11.00">Material::get_density</text>
</a>
</g>
</g>
<!-- Node1&#45;&gt;Node2 -->
<g id="edge1_Node000001_Node000002" class="edge">
<title>Node1&#45;&gt;Node2</title>
<g id="a_edge1_Node000001_Node000002"><a xlink:title=" ">
<path fill="none" stroke="#63b8ff" d="M123.44,-67.97C143.78,-72.92 168.06,-78.74 190,-83.75 197.66,-85.5 205.71,-87.3 213.7,-89.05"/>
<polygon fill="#63b8ff" stroke="#63b8ff" points="212.91,-92.46 223.43,-91.18 214.4,-85.62 212.91,-92.46"/>
</a>
</g>
</g>
<!-- Node3 -->
<g id="Node000003" class="node">
<title>Node3</title>
<g id="a_Node000003"><a xlink:href="../../dc/dee/class_material.html#a7ee1a5e060b0dd313f95d1afa6a71db8" target="_top" xlink:title=" ">
<polygon fill="white" stroke="#666666" points="350,-74.25 208,-74.25 208,-39.25 350,-39.25 350,-74.25"/>
<text text-anchor="start" x="216" y="-59.8" font-family="Consolas" font-size="11.00">Material::get_initial</text>
<text text-anchor="middle" x="279" y="-46.3" font-family="Consolas" font-size="11.00">_stiffness</text>
</a>
</g>
</g>
<!-- Node1&#45;&gt;Node3 -->
<g id="edge2_Node000001_Node000003" class="edge">
<title>Node1&#45;&gt;Node3</title>
<g id="a_edge2_Node000001_Node000003"><a xlink:title=" ">
<path fill="none" stroke="#63b8ff" d="M154.47,-56.75C168.17,-56.75 182.49,-56.75 196.33,-56.75"/>
<polygon fill="#63b8ff" stroke="#63b8ff" points="196.3,-60.25 206.3,-56.75 196.3,-53.25 196.3,-60.25"/>
</a>
</g>
</g>
<!-- Node4 -->
<g id="Node000004" class="node">
<title>Node4</title>
<g id="a_Node000004"><a xlink:href="../../dc/dee/class_material.html#ab63edaec70fa7a7de3c1e8445fd3e908" target="_top" xlink:title=" ">
<polygon fill="white" stroke="#666666" points="368,-21.5 190,-21.5 190,0 368,0 368,-21.5"/>
<text text-anchor="middle" x="279" y="-7.05" font-family="Consolas" font-size="11.00">Material::get_material_type</text>
</a>
</g>
</g>
<!-- Node1&#45;&gt;Node4 -->
<g id="edge3_Node000001_Node000004" class="edge">
<title>Node1&#45;&gt;Node4</title>
<g id="a_edge3_Node000001_Node000004"><a xlink:title=" ">
<path fill="none" stroke="#63b8ff" d="M126.23,-45.5C145.99,-40.91 169.09,-35.55 190,-30.75 198.9,-28.71 208.31,-26.55 217.54,-24.45"/>
<polygon fill="#63b8ff" stroke="#63b8ff" points="218.21,-27.89 227.18,-22.26 216.65,-21.06 218.21,-27.89"/>
</a>
</g>
</g>
</g>
</svg>
