<svg xmlns="http://www.w3.org/2000/svg" xmlns:xlink="http://www.w3.org/1999/xlink" width="752" height="352" viewBox="0 0 564 264"><g class="graph" transform="translate(4 260)"><title>Element/Utility/IGA/NURBS.cpp</title><g class="node"><title>Node1</title><a>
<path fill="#999" stroke="#666" d="M418-256H273v32h145z"/>
<text x="281" y="-243.2" font-family="Consolas" font-size="11">Element/Utility/IGA</text>
<text x="345.5" y="-231.2" font-family="Consolas" font-size="11" text-anchor="middle">/NURBS.cpp</text>
</a></g><g class="node"><title>Node2</title><a xlink:href="../../d5/d56/_n_u_r_b_s_8h.html" target="_top">
<path fill="#fff" stroke="#666" d="M319.5-188h-64v20h64z"/>
<text x="287.5" y="-175.2" font-family="Consolas" font-size="11" text-anchor="middle">NURBS.h</text>
</a></g><g class="edge"><title>Node1-&gt;Node2</title><a>
<path fill="none" stroke="#63b8ff" d="M330.86-223.86c-8.32 8.61-18.76 19.41-27.31 28.25"/>
<path fill="#63b8ff" stroke="#63b8ff" d="m305.82-192.91-9.47 4.76 4.43-9.63z"/>
</a></g><g class="node"><title>Node11</title><a xlink:href="../../d5/d47/utility_8h.html" target="_top">
<path fill="#fff" stroke="#666" d="M473-188H342v20h131z"/>
<text x="407.5" y="-175.2" font-family="Consolas" font-size="11" text-anchor="middle">Toolbox/utility.h</text>
</a></g><g class="edge"><title>Node1-&gt;Node11</title><a>
<path fill="none" stroke="#63b8ff" d="M361.15-223.86c8.98 8.7 20.28 19.63 29.47 28.52"/>
<path fill="#63b8ff" stroke="#63b8ff" d="m393.29-197.62 4.75 9.47-9.62-4.44z"/>
</a></g><g class="node"><title>Node3</title><a xlink:href="../../d3/d10/_b_spline_8h.html" target="_top">
<path fill="#fff" stroke="#666" d="M319-132h-77v20h77z"/>
<text x="280.5" y="-119.2" font-family="Consolas" font-size="11" text-anchor="middle">BSpline.h</text>
</a></g><g class="edge"><title>Node2-&gt;Node3</title><a>
<path fill="none" stroke="#63b8ff" d="M286.28-167.59c-.9 6.96-2.17 16.7-3.28 25.3"/>
<path fill="#63b8ff" stroke="#63b8ff" d="m286.46-141.77-4.75 9.47-2.19-10.37z"/>
</a></g><g class="node"><title>Node4</title><a xlink:href="../../d8/d8f/suan_pan_8h.html" target="_top">
<path fill="#fff" stroke="#666" d="M352-76h-77v20h77z"/>
<text x="313.5" y="-63.2" font-family="Consolas" font-size="11" text-anchor="middle">suanPan.h</text>
</a></g><g class="edge"><title>Node3-&gt;Node4</title><a>
<path fill="none" stroke="#63b8ff" d="M286.25-111.59c4.49 7.35 10.87 17.79 16.33 26.72"/>
<path fill="#63b8ff" stroke="#63b8ff" d="m305.59-86.66 2.23 10.36-8.2-6.71z"/>
</a></g><g class="node"><title>Node5</title><a>
<path fill="#e0e0e0" stroke="#999" d="M71-20H0V0h71z"/>
<text x="35.5" y="-7.2" font-family="Consolas" font-size="11" text-anchor="middle">iostream</text>
</a></g><g class="edge"><title>Node4-&gt;Node5</title><a>
<path fill="none" stroke="#63b8ff" d="M274.96-57.73c-44.4 8.4-119.84 22.78-193.95 37.45"/>
<path fill="#63b8ff" stroke="#63b8ff" d="m81.52-16.82-10.49-1.49 9.13-5.37z"/>
</a></g><g class="node"><title>Node6</title><a>
<path fill="#e0e0e0" stroke="#999" d="M200-20H89V0h111z"/>
<text x="144.5" y="-7.2" font-family="Consolas" font-size="11" text-anchor="middle">armadillo/arma</text>
</a></g><g class="edge"><title>Node4-&gt;Node6</title><a>
<path fill="none" stroke="#63b8ff" d="M285.21-55.96c-28.15 8.99-71.53 22.85-102.68 32.81"/>
<path fill="#63b8ff" stroke="#63b8ff" d="m183.47-19.78-10.59-.29 8.46-6.38z"/>
</a></g><g class="node"><title>Node7</title><a>
<path fill="#e0e0e0" stroke="#999" d="M302.5-20h-84V0h84z"/>
<text x="260.5" y="-7.2" font-family="Consolas" font-size="11" text-anchor="middle">filesystem</text>
</a></g><g class="edge"><title>Node4-&gt;Node7</title><a>
<path fill="none" stroke="#63b8ff" d="M304.27-55.59c-7.6 7.74-18.56 18.9-27.61 28.12"/>
<path fill="#63b8ff" stroke="#63b8ff" d="m279.13-24.98-9.5 4.68 4.5-9.59z"/>
</a></g><g class="node"><title>Node8</title><a>
<path fill="#e0e0e0" stroke="#999" d="M412-20h-91V0h91z"/>
<text x="366.5" y="-7.2" font-family="Consolas" font-size="11" text-anchor="middle">fmt/color.h</text>
</a></g><g class="edge"><title>Node4-&gt;Node8</title><a>
<path fill="none" stroke="#63b8ff" d="M322.73-55.59c7.6 7.74 18.56 18.9 27.61 28.12"/>
<path fill="#63b8ff" stroke="#63b8ff" d="m352.87-29.89 4.5 9.59-9.5-4.68z"/>
</a></g><g class="node"><title>Node9</title><a>
<path fill="#e0e0e0" stroke="#999" d="M480.5-20h-50V0h50z"/>
<text x="455.5" y="-7.2" font-family="Consolas" font-size="11" text-anchor="middle">mutex</text>
</a></g><g class="edge"><title>Node4-&gt;Node9</title><a>
<path fill="none" stroke="#63b8ff" d="M337.27-55.96c23.24 8.84 58.84 22.38 84.91 32.29"/>
<path fill="#63b8ff" stroke="#63b8ff" d="m423.55-26.89 8.1 6.82-10.59-.28z"/>
</a></g><g class="node"><title>Node10</title><a>
<path fill="#e0e0e0" stroke="#999" d="M556-20h-57V0h57z"/>
<text x="527.5" y="-7.2" font-family="Consolas" font-size="11" text-anchor="middle">memory</text>
</a></g><g class="edge"><title>Node4-&gt;Node10</title><a>
<path fill="none" stroke="#63b8ff" d="m349.32-55.96 139.61 35.23"/>
<path fill="#63b8ff" stroke="#63b8ff" d="m489.93-24.09 8.84 5.84-10.55.95z"/>
</a></g><g class="edge"><title>Node11-&gt;Node4</title><a>
<path fill="none" stroke="#63b8ff" d="M398.87-167.83c-8.4 9.01-21.47 23.18-32.37 35.83-13.6 15.77-28.54 34.2-39.08 47.4"/>
<path fill="#63b8ff" stroke="#63b8ff" d="m329.85-82.04-8.96 5.65 3.49-10z"/>
</a></g><g class="node"><title>Node12</title><a>
<path fill="#e0e0e0" stroke="#999" d="M447-132h-71v20h71z"/>
<text x="411.5" y="-119.2" font-family="Consolas" font-size="11" text-anchor="middle">concepts</text>
</a></g><g class="edge"><title>Node11-&gt;Node12</title><a>
<path fill="none" stroke="#63b8ff" d="M408.2-167.59c.51 6.96 1.23 16.7 1.87 25.3"/>
<path fill="#63b8ff" stroke="#63b8ff" d="m413.56-142.53-2.75 10.23-4.23-9.71z"/>
</a></g><g class="node"><title>Node13</title><a>
<path fill="#e0e0e0" stroke="#999" d="M502-132h-37v20h37z"/>
<text x="483.5" y="-119.2" font-family="Consolas" font-size="11" text-anchor="middle">set</text>
</a></g><g class="edge"><title>Node11-&gt;Node13</title><a>
<path fill="none" stroke="#63b8ff" d="M420.39-167.84c11.54 8.2 28.66 20.36 42.15 29.95"/>
<path fill="#63b8ff" stroke="#63b8ff" d="m464.67-140.67 6.13 8.64-10.18-2.93z"/>
</a></g></g></svg>