<?xml version="1.0" encoding="UTF-8" standalone="no"?>
<!DOCTYPE svg PUBLIC "-//W3C//DTD SVG 1.1//EN"
 "http://www.w3.org/Graphics/SVG/1.1/DTD/svg11.dtd">
<!-- Generated by graphviz version 2.43.0 (0)
 -->
<!-- Title: Patch Pages: 1 -->
<!--zoomable 480 -->
<svg id="main" version="1.1" xmlns="http://www.w3.org/2000/svg" xmlns:xlink="http://www.w3.org/1999/xlink" xml:space="preserve" onload="init(evt)">
<style type="text/css"><![CDATA[
.edge:hover path { stroke: red; }
.edge:hover polygon { stroke: red; fill: red; }
]]></style>
<script type="text/javascript"><![CDATA[
var edges = document.getElementsByTagName('g');
if (edges && edges.length) {
  for (var i=0;i<edges.length;i++) {
    if (edges[i].id.substr(0,4)=='edge') {
      edges[i].setAttribute('class','edge');
    }
  }
}
]]></script>
        <defs>
                <circle id="rim" cx="0" cy="0" r="7"/>
                <circle id="rim2" cx="0" cy="0" r="3.5"/>
                <g id="zoomPlus">
                        <use xlink:href="#rim" fill="#404040">
                                <set attributeName="fill" to="#808080" begin="zoomplus.mouseover" end="zoomplus.mouseout"/>
                        </use>
                        <path d="M-4,0h8M0,-4v8" fill="none" stroke="white" stroke-width="1.5" pointer-events="none"/>
                </g>
                <g id="zoomMin">
                        <use xlink:href="#rim" fill="#404040">
                                <set attributeName="fill" to="#808080" begin="zoomminus.mouseover" end="zoomminus.mouseout"/>
                        </use>
                        <path d="M-4,0h8" fill="none" stroke="white" stroke-width="1.5" pointer-events="none"/>
                </g>
                <g id="dirArrow">
                        <path fill="none" stroke="white" stroke-width="1.5" d="M0,-3.0v7 M-2.5,-0.5L0,-3.0L2.5,-0.5"/>
                </g>
               <g id="resetDef">
                       <use xlink:href="#rim2" fill="#404040">
                               <set attributeName="fill" to="#808080" begin="reset.mouseover" end="reset.mouseout"/>
                       </use>
               </g>
        </defs>

<script type="text/javascript">
var viewWidth = 629;
var viewHeight = 480;
var sectionId = 'dynsection-0';
</script>
<script xlink:href="../../svgpan.js"/>
<svg id="graph" class="graph">
<g id="viewport">
<title>Patch</title>
<polygon fill="white" stroke="transparent" points="-4,4 -4,-476 624.5,-476 624.5,4 -4,4"/>
<!-- Node1 -->
<g id="node1" class="node">
<title>Node1</title>
<g id="a_node1"><a xlink:title="A Patch class.">
<polygon fill="#bfbfbf" stroke="black" points="229.5,-375.5 229.5,-471.5 401.5,-471.5 401.5,-375.5 229.5,-375.5"/>
<text text-anchor="middle" x="315.5" y="-458.7" font-family="Consolas" font-size="11.00">Patch</text>
<polyline fill="none" stroke="black" points="229.5,-451.5 401.5,-451.5 "/>
<text text-anchor="start" x="237.5" y="-438.7" font-family="Consolas" font-size="11.00"># knot_pool</text>
<text text-anchor="start" x="237.5" y="-426.7" font-family="Consolas" font-size="11.00"># element_span</text>
<polyline fill="none" stroke="black" points="229.5,-419.5 401.5,-419.5 "/>
<text text-anchor="start" x="237.5" y="-406.7" font-family="Consolas" font-size="11.00">+ Patch()</text>
<text text-anchor="start" x="237.5" y="-394.7" font-family="Consolas" font-size="11.00">+ get_number_of_control</text>
<text text-anchor="start" x="237.5" y="-382.7" font-family="Consolas" font-size="11.00">_points()</text>
</a>
</g>
</g>
<!-- Node2 -->
<g id="node2" class="node">
<title>Node2</title>
<g id="a_node2"><a xlink:href="../../d6/dfb/class_material_patch.html" target="_top" xlink:title=" ">
<polygon fill="white" stroke="black" points="170,-278.5 170,-338.5 301,-338.5 301,-278.5 170,-278.5"/>
<text text-anchor="middle" x="235.5" y="-325.7" font-family="Consolas" font-size="11.00">MaterialPatch</text>
<polyline fill="none" stroke="black" points="170,-318.5 301,-318.5 "/>
<text text-anchor="middle" x="235.5" y="-305.7" font-family="Consolas" font-size="11.00"> </text>
<polyline fill="none" stroke="black" points="170,-298.5 301,-298.5 "/>
<text text-anchor="start" x="178" y="-285.7" font-family="Consolas" font-size="11.00">+ MaterialPatch()</text>
</a>
</g>
</g>
<!-- Node1&#45;&gt;Node2 -->
<g id="edge1" class="edge">
<title>Node1&#45;&gt;Node2</title>
<path fill="none" stroke="midnightblue" d="M276.2,-366.99C269.23,-357.14 262.23,-347.25 256.05,-338.52"/>
<polygon fill="none" stroke="midnightblue" points="273.4,-369.09 282.04,-375.23 279.11,-365.05 273.4,-369.09"/>
</g>
<!-- Node7 -->
<g id="node7" class="node">
<title>Node7</title>
<g id="a_node7"><a xlink:href="../../d8/d08/class_section_patch.html" target="_top" xlink:title=" ">
<polygon fill="white" stroke="black" points="333,-278.5 333,-338.5 458,-338.5 458,-278.5 333,-278.5"/>
<text text-anchor="middle" x="395.5" y="-325.7" font-family="Consolas" font-size="11.00">SectionPatch</text>
<polyline fill="none" stroke="black" points="333,-318.5 458,-318.5 "/>
<text text-anchor="middle" x="395.5" y="-305.7" font-family="Consolas" font-size="11.00"> </text>
<polyline fill="none" stroke="black" points="333,-298.5 458,-298.5 "/>
<text text-anchor="start" x="341" y="-285.7" font-family="Consolas" font-size="11.00">+ SectionPatch()</text>
</a>
</g>
</g>
<!-- Node1&#45;&gt;Node7 -->
<g id="edge6" class="edge">
<title>Node1&#45;&gt;Node7</title>
<path fill="none" stroke="midnightblue" d="M354.8,-366.99C361.77,-357.14 368.77,-347.25 374.95,-338.52"/>
<polygon fill="none" stroke="midnightblue" points="351.89,-365.05 348.96,-375.23 357.6,-369.09 351.89,-365.05"/>
</g>
<!-- Node3 -->
<g id="node3" class="node">
<title>Node3</title>
<g id="a_node3"><a xlink:href="../../d0/d97/class_material_patch2_d.html" target="_top" xlink:title=" ">
<polygon fill="white" stroke="black" points="0,-181.5 0,-241.5 145,-241.5 145,-181.5 0,-181.5"/>
<text text-anchor="middle" x="72.5" y="-228.7" font-family="Consolas" font-size="11.00">MaterialPatch2D</text>
<polyline fill="none" stroke="black" points="0,-221.5 145,-221.5 "/>
<text text-anchor="middle" x="72.5" y="-208.7" font-family="Consolas" font-size="11.00"> </text>
<polyline fill="none" stroke="black" points="0,-201.5 145,-201.5 "/>
<text text-anchor="start" x="8" y="-188.7" font-family="Consolas" font-size="11.00">+ MaterialPatch2D()</text>
</a>
</g>
</g>
<!-- Node2&#45;&gt;Node3 -->
<g id="edge2" class="edge">
<title>Node2&#45;&gt;Node3</title>
<path fill="none" stroke="midnightblue" d="M177.05,-273.44C159.12,-262.98 139.56,-251.59 122.27,-241.51"/>
<polygon fill="none" stroke="midnightblue" points="175.31,-276.47 185.71,-278.48 178.83,-270.42 175.31,-276.47"/>
</g>
<!-- Node5 -->
<g id="node5" class="node">
<title>Node5</title>
<g id="a_node5"><a xlink:href="../../dd/d7f/class_material_patch3_d.html" target="_top" xlink:title=" ">
<polygon fill="white" stroke="black" points="163,-181.5 163,-241.5 308,-241.5 308,-181.5 163,-181.5"/>
<text text-anchor="middle" x="235.5" y="-228.7" font-family="Consolas" font-size="11.00">MaterialPatch3D</text>
<polyline fill="none" stroke="black" points="163,-221.5 308,-221.5 "/>
<text text-anchor="middle" x="235.5" y="-208.7" font-family="Consolas" font-size="11.00"> </text>
<polyline fill="none" stroke="black" points="163,-201.5 308,-201.5 "/>
<text text-anchor="start" x="171" y="-188.7" font-family="Consolas" font-size="11.00">+ MaterialPatch3D()</text>
</a>
</g>
</g>
<!-- Node2&#45;&gt;Node5 -->
<g id="edge4" class="edge">
<title>Node2&#45;&gt;Node5</title>
<path fill="none" stroke="midnightblue" d="M235.5,-268.29C235.5,-259.38 235.5,-250.07 235.5,-241.67"/>
<polygon fill="none" stroke="midnightblue" points="232,-268.48 235.5,-278.48 239,-268.48 232,-268.48"/>
</g>
<!-- Node4 -->
<g id="node4" class="node">
<title>Node4</title>
<g id="a_node4"><a xlink:href="../../da/d6e/class_patch_quad.html" target="_top" xlink:title="The PatchQuad class handles CPS4, CPE4, CPS4R and CPE4R elements. It is a four node constant strain m...">
<polygon fill="white" stroke="black" points="7,-0.5 7,-144.5 138,-144.5 138,-0.5 7,-0.5"/>
<text text-anchor="middle" x="72.5" y="-131.7" font-family="Consolas" font-size="11.00">PatchQuad</text>
<polyline fill="none" stroke="black" points="7,-124.5 138,-124.5 "/>
<text text-anchor="middle" x="72.5" y="-111.7" font-family="Consolas" font-size="11.00"> </text>
<polyline fill="none" stroke="black" points="7,-104.5 138,-104.5 "/>
<text text-anchor="start" x="15" y="-91.7" font-family="Consolas" font-size="11.00">+ PatchQuad()</text>
<text text-anchor="start" x="15" y="-79.7" font-family="Consolas" font-size="11.00">+ initialize()</text>
<text text-anchor="start" x="15" y="-67.7" font-family="Consolas" font-size="11.00">+ update_status()</text>
<text text-anchor="start" x="15" y="-55.7" font-family="Consolas" font-size="11.00">+ commit_status()</text>
<text text-anchor="start" x="15" y="-43.7" font-family="Consolas" font-size="11.00">+ clear_status()</text>
<text text-anchor="start" x="15" y="-31.7" font-family="Consolas" font-size="11.00">+ reset_status()</text>
<text text-anchor="start" x="15" y="-19.7" font-family="Consolas" font-size="11.00">+ record()</text>
<text text-anchor="start" x="15" y="-7.7" font-family="Consolas" font-size="11.00">+ print()</text>
</a>
</g>
</g>
<!-- Node3&#45;&gt;Node4 -->
<g id="edge3" class="edge">
<title>Node3&#45;&gt;Node4</title>
<path fill="none" stroke="midnightblue" d="M72.5,-171.24C72.5,-162.83 72.5,-153.7 72.5,-144.51"/>
<polygon fill="none" stroke="midnightblue" points="69,-171.45 72.5,-181.45 76,-171.45 69,-171.45"/>
</g>
<!-- Node6 -->
<g id="node6" class="node">
<title>Node6</title>
<g id="a_node6"><a xlink:href="../../d7/d72/class_patch_cube.html" target="_top" xlink:title="The PatchCube class.">
<polygon fill="white" stroke="black" points="170,-0.5 170,-144.5 301,-144.5 301,-0.5 170,-0.5"/>
<text text-anchor="middle" x="235.5" y="-131.7" font-family="Consolas" font-size="11.00">PatchCube</text>
<polyline fill="none" stroke="black" points="170,-124.5 301,-124.5 "/>
<text text-anchor="middle" x="235.5" y="-111.7" font-family="Consolas" font-size="11.00"> </text>
<polyline fill="none" stroke="black" points="170,-104.5 301,-104.5 "/>
<text text-anchor="start" x="178" y="-91.7" font-family="Consolas" font-size="11.00">+ PatchCube()</text>
<text text-anchor="start" x="178" y="-79.7" font-family="Consolas" font-size="11.00">+ initialize()</text>
<text text-anchor="start" x="178" y="-67.7" font-family="Consolas" font-size="11.00">+ update_status()</text>
<text text-anchor="start" x="178" y="-55.7" font-family="Consolas" font-size="11.00">+ commit_status()</text>
<text text-anchor="start" x="178" y="-43.7" font-family="Consolas" font-size="11.00">+ clear_status()</text>
<text text-anchor="start" x="178" y="-31.7" font-family="Consolas" font-size="11.00">+ reset_status()</text>
<text text-anchor="start" x="178" y="-19.7" font-family="Consolas" font-size="11.00">+ record()</text>
<text text-anchor="start" x="178" y="-7.7" font-family="Consolas" font-size="11.00">+ print()</text>
</a>
</g>
</g>
<!-- Node5&#45;&gt;Node6 -->
<g id="edge5" class="edge">
<title>Node5&#45;&gt;Node6</title>
<path fill="none" stroke="midnightblue" d="M235.5,-171.24C235.5,-162.83 235.5,-153.7 235.5,-144.51"/>
<polygon fill="none" stroke="midnightblue" points="232,-171.45 235.5,-181.45 239,-171.45 232,-171.45"/>
</g>
<!-- Node8 -->
<g id="node8" class="node">
<title>Node8</title>
<g id="a_node8"><a xlink:href="../../d1/d15/class_section_patch2_d.html" target="_top" xlink:title=" ">
<polygon fill="white" stroke="black" points="326.5,-181.5 326.5,-241.5 464.5,-241.5 464.5,-181.5 326.5,-181.5"/>
<text text-anchor="middle" x="395.5" y="-228.7" font-family="Consolas" font-size="11.00">SectionPatch2D</text>
<polyline fill="none" stroke="black" points="326.5,-221.5 464.5,-221.5 "/>
<text text-anchor="middle" x="395.5" y="-208.7" font-family="Consolas" font-size="11.00"> </text>
<polyline fill="none" stroke="black" points="326.5,-201.5 464.5,-201.5 "/>
<text text-anchor="start" x="334.5" y="-188.7" font-family="Consolas" font-size="11.00">+ SectionPatch2D()</text>
</a>
</g>
</g>
<!-- Node7&#45;&gt;Node8 -->
<g id="edge7" class="edge">
<title>Node7&#45;&gt;Node8</title>
<path fill="none" stroke="midnightblue" d="M395.5,-268.29C395.5,-259.38 395.5,-250.07 395.5,-241.67"/>
<polygon fill="none" stroke="midnightblue" points="392,-268.48 395.5,-278.48 399,-268.48 392,-268.48"/>
</g>
<!-- Node9 -->
<g id="node9" class="node">
<title>Node9</title>
<g id="a_node9"><a xlink:href="../../d5/d14/class_section_patch3_d.html" target="_top" xlink:title=" ">
<polygon fill="white" stroke="black" points="482.5,-181.5 482.5,-241.5 620.5,-241.5 620.5,-181.5 482.5,-181.5"/>
<text text-anchor="middle" x="551.5" y="-228.7" font-family="Consolas" font-size="11.00">SectionPatch3D</text>
<polyline fill="none" stroke="black" points="482.5,-221.5 620.5,-221.5 "/>
<text text-anchor="middle" x="551.5" y="-208.7" font-family="Consolas" font-size="11.00"> </text>
<polyline fill="none" stroke="black" points="482.5,-201.5 620.5,-201.5 "/>
<text text-anchor="start" x="490.5" y="-188.7" font-family="Consolas" font-size="11.00">+ SectionPatch3D()</text>
</a>
</g>
</g>
<!-- Node7&#45;&gt;Node9 -->
<g id="edge8" class="edge">
<title>Node7&#45;&gt;Node9</title>
<path fill="none" stroke="midnightblue" d="M451.91,-273.15C468.94,-262.78 487.47,-251.49 503.87,-241.51"/>
<polygon fill="none" stroke="midnightblue" points="449.87,-270.29 443.15,-278.48 453.51,-276.27 449.87,-270.29"/>
</g>
</g>
</svg>
        <g id="navigator" transform="translate(0 0)" fill="#404254">
                <rect fill="#f2f5e9" fill-opacity="0.5" stroke="#606060" stroke-width=".5" x="0" y="0" width="60" height="60"/>
                <use id="zoomplus" xlink:href="#zoomPlus" x="17" y="9" onmousedown="handleZoom(evt,'in')"/>
                <use id="zoomminus" xlink:href="#zoomMin" x="42" y="9" onmousedown="handleZoom(evt,'out')"/>
                <use id="reset" xlink:href="#resetDef" x="30" y="36" onmousedown="handleReset()"/>
                <g id="arrowUp" xlink:href="#dirArrow" transform="translate(30 24)" onmousedown="handlePan(0,-1)">
                  <use xlink:href="#rim" fill="#404040">
                        <set attributeName="fill" to="#808080" begin="arrowUp.mouseover" end="arrowUp.mouseout"/>
                  </use>
                  <path fill="none" stroke="white" stroke-width="1.5" d="M0,-3.0v7 M-2.5,-0.5L0,-3.0L2.5,-0.5"/>
                </g>
                <g id="arrowRight" xlink:href="#dirArrow" transform="rotate(90) translate(36 -43)" onmousedown="handlePan(1,0)">
                  <use xlink:href="#rim" fill="#404040">
                        <set attributeName="fill" to="#808080" begin="arrowRight.mouseover" end="arrowRight.mouseout"/>
                  </use>
                  <path fill="none" stroke="white" stroke-width="1.5" d="M0,-3.0v7 M-2.5,-0.5L0,-3.0L2.5,-0.5"/>
                </g>
                <g id="arrowDown" xlink:href="#dirArrow" transform="rotate(180) translate(-30 -48)" onmousedown="handlePan(0,1)">
                  <use xlink:href="#rim" fill="#404040">
                        <set attributeName="fill" to="#808080" begin="arrowDown.mouseover" end="arrowDown.mouseout"/>
                  </use>
                  <path fill="none" stroke="white" stroke-width="1.5" d="M0,-3.0v7 M-2.5,-0.5L0,-3.0L2.5,-0.5"/>
                </g>
                <g id="arrowLeft" xlink:href="#dirArrow" transform="rotate(270) translate(-36 17)" onmousedown="handlePan(-1,0)">
                  <use xlink:href="#rim" fill="#404040">
                        <set attributeName="fill" to="#808080" begin="arrowLeft.mouseover" end="arrowLeft.mouseout"/>
                  </use>
                  <path fill="none" stroke="white" stroke-width="1.5" d="M0,-3.0v7 M-2.5,-0.5L0,-3.0L2.5,-0.5"/>
                </g>
        </g>
        <svg viewBox="0 0 15 15" width="100%" height="30px" preserveAspectRatio="xMaxYMin meet">
         <g id="arrow_out" transform="scale(0.3 0.3)">
          <a xlink:href="class_patch__inherit__graph_org.svg" target="_base">
           <rect id="button" ry="5" rx="5" y="6" x="6" height="38" width="38"
                fill="#f2f5e9" fill-opacity="0.5" stroke="#606060" stroke-width="1.0"/>
           <path id="arrow"
             d="M 11.500037,31.436501 C 11.940474,20.09759 22.043105,11.32322 32.158766,21.979434 L 37.068811,17.246167 C 37.068811,17.246167 37.088388,32 37.088388,32 L 22.160133,31.978069 C 22.160133,31.978069 26.997745,27.140456 26.997745,27.140456 C 18.528582,18.264221 13.291696,25.230495 11.500037,31.436501 z"
             style="fill:#404040;"/>
          </a>
         </g>
        </svg>
</svg>
