<?xml version="1.0" encoding="UTF-8" standalone="no"?>
<!DOCTYPE svg PUBLIC "-//W3C//DTD SVG 1.1//EN"
 "http://www.w3.org/Graphics/SVG/1.1/DTD/svg11.dtd">
<!-- Generated by graphviz version 2.43.0 (0)
 -->
<!-- Title: C3D8::initialize Pages: 1 -->
<svg width="441pt" height="56pt"
 viewBox="0.00 0.00 441.00 56.00" xmlns="http://www.w3.org/2000/svg" xmlns:xlink="http://www.w3.org/1999/xlink">

<svg id="main" version="1.1" xmlns="http://www.w3.org/2000/svg" xmlns:xlink="http://www.w3.org/1999/xlink" xml:space="preserve" onload="init(evt)">
<style type="text/css"><![CDATA[
.node, .edge {opacity: 0.7;}
.node.selected, .edge.selected {opacity: 1;}
.edge:hover path { stroke: red; }
.edge:hover polygon { stroke: red; fill: red; }
]]></style>
<script type="application/ecmascript" xlink:href="../../svg.min.js"/>
<svg id="graph" class="graph">
<g id="graph0" class="graph" transform="scale(1 1) rotate(0) translate(4 52)">
<title>C3D8::initialize</title>
<!-- Node1 -->
<g id="Node000001" class="node">
<title>Node1</title>
<g id="a_Node000001"><a xlink:title=" ">
<polygon fill="#999999" stroke="#666666" points="125,-20 0,-20 0,0 125,0 125,-20"/>
<text text-anchor="middle" x="62.5" y="-7.2" font-family="Consolas" font-size="11.00">C3D8::initialize</text>
</a>
</g>
</g>
<!-- Node2 -->
<g id="Node000002" class="node">
<title>Node2</title>
<g id="a_Node000002"><a xlink:href="../../d4/d8c/class_c3_d8.html#a0c57cd3e34d19fc935947793c890b13e" target="_top" xlink:title=" ">
<polygon fill="white" stroke="#666666" points="306,-48 161,-48 161,-16 306,-16 306,-48"/>
<text text-anchor="start" x="169" y="-35.2" font-family="Consolas" font-size="11.00">C3D8::compute_shape</text>
<text text-anchor="middle" x="233.5" y="-23.2" font-family="Consolas" font-size="11.00">_function</text>
</a>
</g>
</g>
<!-- Node1&#45;&gt;Node2 -->
<g id="edge1_Node000001_Node000002" class="edge">
<title>Node1&#45;&gt;Node2</title>
<g id="a_edge1_Node000001_Node000002"><a xlink:title=" ">
<path fill="none" stroke="#63b8ff" d="M125.47,-18.07C133.73,-19.14 142.3,-20.26 150.83,-21.37"/>
<polygon fill="#63b8ff" stroke="#63b8ff" points="150.44,-24.85 160.81,-22.67 151.35,-17.91 150.44,-24.85"/>
</a>
</g>
</g>
<!-- Node3 -->
<g id="Node000003" class="node">
<title>Node3</title>
<g id="a_Node000003"><a xlink:href="../../d3/d55/namespaceshape.html#acc1a86225f2ce997aac60b5103acdca8" target="_top" xlink:title=" ">
<polygon fill="white" stroke="#666666" points="433,-20 342,-20 342,0 433,0 433,-20"/>
<text text-anchor="middle" x="387.5" y="-7.2" font-family="Consolas" font-size="11.00">shape::cube</text>
</a>
</g>
</g>
<!-- Node1&#45;&gt;Node3 -->
<g id="edge3_Node000001_Node000003" class="edge">
<title>Node1&#45;&gt;Node3</title>
<g id="a_edge3_Node000001_Node000003"><a xlink:title=" ">
<path fill="none" stroke="#63b8ff" d="M125.13,-7.82C137.03,-7.48 149.4,-7.18 161,-7 225.44,-6.01 241.57,-5.8 306,-7 314.34,-7.16 323.17,-7.4 331.8,-7.69"/>
<polygon fill="#63b8ff" stroke="#63b8ff" points="331.68,-11.19 341.8,-8.04 331.93,-4.19 331.68,-11.19"/>
</a>
</g>
</g>
<!-- Node2&#45;&gt;Node3 -->
<g id="edge2_Node000002_Node000003" class="edge">
<title>Node2&#45;&gt;Node3</title>
<g id="a_edge2_Node000002_Node000003"><a xlink:title=" ">
<path fill="none" stroke="#63b8ff" d="M306.05,-21.64C314.7,-20.39 323.42,-19.13 331.78,-17.92"/>
<polygon fill="#63b8ff" stroke="#63b8ff" points="332.36,-21.37 341.75,-16.48 331.35,-14.45 332.36,-21.37"/>
</a>
</g>
</g>
</g>
</svg>
</svg>

<style type='text/css'>
<![CDATA[
[data-mouse-over-selected='false'] { opacity: 0.7; }
[data-mouse-over-selected='true']  { opacity: 1.0; }
]]>
</style>
<script type="application/ecmascript"><![CDATA[
document.addEventListener('DOMContentLoaded', (event) => {
  highlightEdges();
  highlightAdjacentNodes();
});
]]></script>
</svg>
