<?xml version="1.0" encoding="UTF-8" standalone="no"?>
<!DOCTYPE svg PUBLIC "-//W3C//DTD SVG 1.1//EN"
 "http://www.w3.org/Graphics/SVG/1.1/DTD/svg11.dtd">
<!-- Generated by graphviz version 2.43.0 (0)
 -->
<!-- Title: C3D8I::initialize Pages: 1 -->
<svg width="474pt" height="134pt"
 viewBox="0.00 0.00 474.00 134.00" xmlns="http://www.w3.org/2000/svg" xmlns:xlink="http://www.w3.org/1999/xlink">

<svg id="main" version="1.1" xmlns="http://www.w3.org/2000/svg" xmlns:xlink="http://www.w3.org/1999/xlink" xml:space="preserve" onload="init(evt)">
<style type="text/css"><![CDATA[
.node, .edge {opacity: 0.7;}
.node.selected, .edge.selected {opacity: 1;}
.edge:hover path { stroke: red; }
.edge:hover polygon { stroke: red; fill: red; }
]]></style>
<script type="application/ecmascript" xlink:href="../../svg.min.js"/>
<svg id="graph" class="graph">
<g id="graph0" class="graph" transform="scale(1 1) rotate(0) translate(4 130)">
<title>C3D8I::initialize</title>
<!-- Node1 -->
<g id="Node000001" class="node">
<title>Node1</title>
<g id="a_Node000001"><a xlink:title=" ">
<polygon fill="#999999" stroke="#666666" points="131,-76 0,-76 0,-56 131,-56 131,-76"/>
<text text-anchor="middle" x="65.5" y="-63.2" font-family="Consolas" font-size="11.00">C3D8I::initialize</text>
</a>
</g>
</g>
<!-- Node2 -->
<g id="Node000002" class="node">
<title>Node2</title>
<g id="a_Node000002"><a xlink:href="../../d8/d52/class_c3_d8_i.html#ab8818d6d3e3a8d0f782d08f09d3098d3" target="_top" xlink:title=" ">
<polygon fill="white" stroke="#666666" points="329,-126 177,-126 177,-94 329,-94 329,-126"/>
<text text-anchor="start" x="185" y="-113.2" font-family="Consolas" font-size="11.00">C3D8I::compute_shape</text>
<text text-anchor="middle" x="253" y="-101.2" font-family="Consolas" font-size="11.00">_function</text>
</a>
</g>
</g>
<!-- Node1&#45;&gt;Node2 -->
<g id="edge1_Node000001_Node000002" class="edge">
<title>Node1&#45;&gt;Node2</title>
<g id="a_edge1_Node000001_Node000002"><a xlink:title=" ">
<path fill="none" stroke="#63b8ff" d="M109.06,-76.09C128.44,-80.69 152,-86.28 174.36,-91.58"/>
<polygon fill="#63b8ff" stroke="#63b8ff" points="173.66,-95.01 184.19,-93.92 175.27,-88.2 173.66,-95.01"/>
</a>
</g>
</g>
<!-- Node4 -->
<g id="Node000004" class="node">
<title>Node4</title>
<g id="a_Node000004"><a xlink:href="../../d5/d50/class_element.html#a4d1dcdafc45a94952099d19d476e6486" target="_top" xlink:title=" ">
<polygon fill="white" stroke="#666666" points="302,-76 204,-76 204,-56 302,-56 302,-76"/>
<text text-anchor="middle" x="253" y="-63.2" font-family="Consolas" font-size="11.00">Element::get</text>
</a>
</g>
</g>
<!-- Node1&#45;&gt;Node4 -->
<g id="edge3_Node000001_Node000004" class="edge">
<title>Node1&#45;&gt;Node4</title>
<g id="a_edge3_Node000001_Node000004"><a xlink:title=" ">
<path fill="none" stroke="#63b8ff" d="M131.12,-66C151.51,-66 173.9,-66 193.82,-66"/>
<polygon fill="#63b8ff" stroke="#63b8ff" points="193.98,-69.5 203.98,-66 193.98,-62.5 193.98,-69.5"/>
</a>
</g>
</g>
<!-- Node5 -->
<g id="Node000005" class="node">
<title>Node5</title>
<g id="a_Node000005"><a xlink:href="../../d5/d50/class_element.html#acd9484983e85bf9bfa1ad3d34246c19c" target="_top" xlink:title=" ">
<polygon fill="white" stroke="#666666" points="339,-20 167,-20 167,0 339,0 339,-20"/>
<text text-anchor="middle" x="253" y="-7.2" font-family="Consolas" font-size="11.00">Element::get_coordinate</text>
</a>
</g>
</g>
<!-- Node1&#45;&gt;Node5 -->
<g id="edge4_Node000001_Node000005" class="edge">
<title>Node1&#45;&gt;Node5</title>
<g id="a_edge4_Node000001_Node000005"><a xlink:title=" ">
<path fill="none" stroke="#63b8ff" d="M99.66,-55.99C130.17,-46.78 175.59,-33.07 208.89,-23.01"/>
<polygon fill="#63b8ff" stroke="#63b8ff" points="210.25,-26.26 218.81,-20.02 208.23,-19.56 210.25,-26.26"/>
</a>
</g>
</g>
<!-- Node3 -->
<g id="Node000003" class="node">
<title>Node3</title>
<g id="a_Node000003"><a xlink:href="../../d3/d55/namespaceshape.html#acc1a86225f2ce997aac60b5103acdca8" target="_top" xlink:title=" ">
<polygon fill="white" stroke="#666666" points="466,-120 375,-120 375,-100 466,-100 466,-120"/>
<text text-anchor="middle" x="420.5" y="-107.2" font-family="Consolas" font-size="11.00">shape::cube</text>
</a>
</g>
</g>
<!-- Node2&#45;&gt;Node3 -->
<g id="edge2_Node000002_Node000003" class="edge">
<title>Node2&#45;&gt;Node3</title>
<g id="a_edge2_Node000002_Node000003"><a xlink:title=" ">
<path fill="none" stroke="#63b8ff" d="M329,-110C340.92,-110 353.05,-110 364.4,-110"/>
<polygon fill="#63b8ff" stroke="#63b8ff" points="364.58,-113.5 374.58,-110 364.58,-106.5 364.58,-113.5"/>
</a>
</g>
</g>
<!-- Node5&#45;&gt;Node5 -->
<g id="edge5_Node000005_Node000005" class="edge">
<title>Node5&#45;&gt;Node5</title>
<g id="a_edge5_Node000005_Node000005"><a xlink:title=" ">
<path fill="none" stroke="#63b8ff" d="M227.01,-20.05C215.16,-28.77 223.82,-38 253,-38 272.15,-38 282.46,-34.03 283.94,-28.83"/>
<polygon fill="#63b8ff" stroke="#63b8ff" points="286.95,-27.04 278.99,-20.05 280.85,-30.48 286.95,-27.04"/>
</a>
</g>
</g>
</g>
</svg>
</svg>

<style type='text/css'>
<![CDATA[
[data-mouse-over-selected='false'] { opacity: 0.7; }
[data-mouse-over-selected='true']  { opacity: 1.0; }
]]>
</style>
<script type="application/ecmascript"><![CDATA[
document.addEventListener('DOMContentLoaded', (event) => {
  highlightEdges();
  highlightAdjacentNodes();
});
]]></script>
</svg>
