<?xml version="1.0" encoding="UTF-8" standalone="no"?>
<!DOCTYPE svg PUBLIC "-//W3C//DTD SVG 1.1//EN"
 "http://www.w3.org/Graphics/SVG/1.1/DTD/svg11.dtd">
<!-- Generated by graphviz version 5.0.0 (0)
 -->
<!-- Title: DataBlatzKo Pages: 1 -->
<svg width="172pt" height="156pt"
 viewBox="0.00 0.00 172.00 156.00" xmlns="http://www.w3.org/2000/svg" xmlns:xlink="http://www.w3.org/1999/xlink">
<g id="graph0" class="graph" transform="scale(1 1) rotate(0) translate(4 152)">
<title>DataBlatzKo</title>
<!-- Node1 -->
<g id="node1" class="node">
<title>Node1</title>
<g id="a_node1"><a xlink:title=" ">
<polygon fill="#999999" stroke="#666666" points="98,-32 0,-32 0,0 98,0 98,-32"/>
<text text-anchor="middle" x="49" y="-19.2" font-family="Consolas" font-size="11.00">{DataBlatzKo</text>
<text text-anchor="middle" x="49" y="-7.2" font-family="Consolas" font-size="11.00">||}</text>
</a>
</g>
</g>
<!-- Node2 -->
<g id="node2" class="node">
<title>Node2</title>
<g id="a_node2"><a xlink:title=" ">
<polygon fill="white" stroke="#666666" points="81,-148 17,-148 17,-116 81,-116 81,-148"/>
<text text-anchor="middle" x="49" y="-135.2" font-family="Consolas" font-size="11.00">{double</text>
<text text-anchor="middle" x="49" y="-123.2" font-family="Consolas" font-size="11.00">||}</text>
</a>
</g>
</g>
<!-- Node2&#45;&gt;Node1 -->
<g id="edge1" class="edge">
<title>Node2&#45;&gt;Node1</title>
<path fill="none" stroke="#404040" d="M49,-115.63C49,-97.34 49,-66.47 49,-44.14"/>
<polygon fill="none" stroke="#404040" points="49,-44.13 45,-38.13 49,-32.13 53,-38.13 49,-44.13"/>
<text text-anchor="middle" x="106.5" y="-89.2" font-family="Consolas" font-size="11.00"> +elastic_modulus</text>
<text text-anchor="middle" x="106.5" y="-77.2" font-family="Consolas" font-size="11.00">+half_beta_two</text>
<text text-anchor="middle" x="106.5" y="-65.2" font-family="Consolas" font-size="11.00">+poissons_ratio</text>
<text text-anchor="middle" x="106.5" y="-53.2" font-family="Consolas" font-size="11.00">+shear_modulus</text>
</g>
</g>
</svg>
