<?xml version="1.0" encoding="UTF-8" standalone="no"?>
<!DOCTYPE svg PUBLIC "-//W3C//DTD SVG 1.1//EN"
 "http://www.w3.org/Graphics/SVG/1.1/DTD/svg11.dtd">
<!-- Generated by graphviz version 5.0.0 (0)
 -->
<!-- Title: DenseMat::memptr Pages: 1 -->
<svg width="495pt" height="216pt"
 viewBox="0.00 0.00 495.00 216.00" xmlns="http://www.w3.org/2000/svg" xmlns:xlink="http://www.w3.org/1999/xlink">
<g id="graph0" class="graph" transform="scale(1 1) rotate(0) translate(4 212)">
<title>DenseMat::memptr</title>
<!-- Node1 -->
<g id="node1" class="node">
<title>Node1</title>
<g id="a_node1"><a xlink:title=" ">
<polygon fill="#999999" stroke="#666666" points="487,-114 362,-114 362,-94 487,-94 487,-114"/>
<text text-anchor="middle" x="424.5" y="-101.2" font-family="Consolas" font-size="11.00">DenseMat::memptr</text>
</a>
</g>
</g>
<!-- Node2 -->
<g id="node2" class="node">
<title>Node2</title>
<g id="a_node2"><a xlink:href="../../da/dcc/operator__times_8hpp.html#afa47cad9b1ba5442f865ac1c696c39bb" target="_top" xlink:title=" ">
<polygon fill="white" stroke="#666666" points="288.5,-208 211.5,-208 211.5,-188 288.5,-188 288.5,-208"/>
<text text-anchor="middle" x="250" y="-195.2" font-family="Consolas" font-size="11.00">operator*</text>
</a>
</g>
</g>
<!-- Node1&#45;&gt;Node2 -->
<g id="edge1" class="edge">
<title>Node1&#45;&gt;Node2</title>
<path fill="none" stroke="#63b8ff" d="M406.02,-121.07C387.58,-138.14 356.96,-163.97 326,-179 314.4,-184.63 300.95,-188.71 288.68,-191.61"/>
<polygon fill="#63b8ff" stroke="#63b8ff" points="408.5,-123.54 413.36,-114.13 403.69,-118.45 408.5,-123.54"/>
</g>
<!-- Node3 -->
<g id="node3" class="node">
<title>Node3</title>
<g id="a_node3"><a xlink:href="../../d0/de9/class_dense_mat.html#a823a4cf2dfeaeb6e28ec9ef3e8db34fe" target="_top" xlink:title=" ">
<polygon fill="white" stroke="#666666" points="326,-170 174,-170 174,-150 326,-150 326,-170"/>
<text text-anchor="middle" x="250" y="-157.2" font-family="Consolas" font-size="11.00">DenseMat::operator*=</text>
</a>
</g>
</g>
<!-- Node1&#45;&gt;Node3 -->
<g id="edge2" class="edge">
<title>Node1&#45;&gt;Node3</title>
<path fill="none" stroke="#63b8ff" d="M389.82,-117.87C371.19,-125.27 347.52,-134.22 326,-141 315.75,-144.23 304.58,-147.3 294.07,-149.99"/>
<polygon fill="#63b8ff" stroke="#63b8ff" points="391.35,-121.03 399.33,-114.06 388.75,-114.53 391.35,-121.03"/>
</g>
<!-- Node4 -->
<g id="node4" class="node">
<title>Node4</title>
<g id="a_node4"><a xlink:href="../../d0/de9/class_dense_mat.html#a637af5aa883b79427325766d0ff31d7f" target="_top" xlink:title=" ">
<polygon fill="white" stroke="#666666" points="326,-114 174,-114 174,-94 326,-94 326,-114"/>
<text text-anchor="middle" x="250" y="-101.2" font-family="Consolas" font-size="11.00">DenseMat::operator+=</text>
</a>
</g>
</g>
<!-- Node1&#45;&gt;Node4 -->
<g id="edge3" class="edge">
<title>Node1&#45;&gt;Node4</title>
<path fill="none" stroke="#63b8ff" d="M351.6,-104C343.21,-104 334.64,-104 326.22,-104"/>
<polygon fill="#63b8ff" stroke="#63b8ff" points="351.71,-107.5 361.71,-104 351.71,-100.5 351.71,-107.5"/>
</g>
<!-- Node5 -->
<g id="node5" class="node">
<title>Node5</title>
<g id="a_node5"><a xlink:href="../../d0/de9/class_dense_mat.html#a282b3422a50cac02e0e1308637edd944" target="_top" xlink:title=" ">
<polygon fill="white" stroke="#666666" points="326,-58 174,-58 174,-38 326,-38 326,-58"/>
<text text-anchor="middle" x="250" y="-45.2" font-family="Consolas" font-size="11.00">DenseMat::operator&#45;=</text>
</a>
</g>
</g>
<!-- Node1&#45;&gt;Node5 -->
<g id="edge5" class="edge">
<title>Node1&#45;&gt;Node5</title>
<path fill="none" stroke="#63b8ff" d="M383.04,-90.86C352.11,-80.82 310.12,-67.19 281.86,-58.02"/>
<polygon fill="#63b8ff" stroke="#63b8ff" points="382.07,-94.23 392.66,-93.99 384.23,-87.57 382.07,-94.23"/>
</g>
<!-- Node6 -->
<g id="node6" class="node">
<title>Node6</title>
<g id="a_node6"><a xlink:href="../../d0/de9/class_dense_mat.html#a51c3bfaf09d244c740485048e7889a25" target="_top" xlink:title=" ">
<polygon fill="white" stroke="#666666" points="309,-20 191,-20 191,0 309,0 309,-20"/>
<text text-anchor="middle" x="250" y="-7.2" font-family="Consolas" font-size="11.00">DenseMat::zeros</text>
</a>
</g>
</g>
<!-- Node1&#45;&gt;Node6 -->
<g id="edge7" class="edge">
<title>Node1&#45;&gt;Node6</title>
<path fill="none" stroke="#63b8ff" d="M406.02,-86.93C387.58,-69.86 356.96,-44.03 326,-29 318.63,-25.42 310.51,-22.47 302.42,-20.05"/>
<polygon fill="#63b8ff" stroke="#63b8ff" points="403.69,-89.55 413.36,-93.87 408.5,-84.46 403.69,-89.55"/>
</g>
<!-- Node4&#45;&gt;Node4 -->
<g id="edge4" class="edge">
<title>Node4&#45;&gt;Node4</title>
<path fill="none" stroke="#63b8ff" d="M282.43,-122.83C280.88,-128.03 270.07,-132 250,-132 219.41,-132 210.33,-122.77 222.76,-114.05"/>
<polygon fill="#63b8ff" stroke="#63b8ff" points="285.34,-120.87 277.24,-114.05 279.32,-124.44 285.34,-120.87"/>
</g>
<!-- Node5&#45;&gt;Node5 -->
<g id="edge6" class="edge">
<title>Node5&#45;&gt;Node5</title>
<path fill="none" stroke="#63b8ff" d="M282.43,-66.83C280.88,-72.03 270.07,-76 250,-76 219.41,-76 210.33,-66.77 222.76,-58.05"/>
<polygon fill="#63b8ff" stroke="#63b8ff" points="285.34,-64.87 277.24,-58.05 279.32,-68.44 285.34,-64.87"/>
</g>
<!-- Node7 -->
<g id="node7" class="node">
<title>Node7</title>
<g id="a_node7"><a xlink:href="../../d0/de9/class_dense_mat.html#a6a3056aac822e37bc1cbceed96280be4" target="_top" xlink:title=" ">
<polygon fill="white" stroke="#666666" points="138,-20 0,-20 0,0 138,0 138,-20"/>
<text text-anchor="middle" x="69" y="-7.2" font-family="Consolas" font-size="11.00">DenseMat::DenseMat</text>
</a>
</g>
</g>
<!-- Node6&#45;&gt;Node7 -->
<g id="edge8" class="edge">
<title>Node6&#45;&gt;Node7</title>
<path fill="none" stroke="#63b8ff" d="M180.84,-10C166.84,-10 152.1,-10 138.1,-10"/>
<polygon fill="#63b8ff" stroke="#63b8ff" points="180.88,-13.5 190.88,-10 180.88,-6.5 180.88,-13.5"/>
</g>
</g>
</svg>
