<?xml version="1.0" encoding="UTF-8" standalone="no"?>
<!DOCTYPE svg PUBLIC "-//W3C//DTD SVG 1.1//EN"
 "http://www.w3.org/Graphics/SVG/1.1/DTD/svg11.dtd">
<!-- Generated by graphviz version 2.43.0 (0)
 -->
<!-- Title: suanpan::error Pages: 1 -->
<svg width="1064pt" height="1503pt"
 viewBox="0.00 0.00 1064.00 1503.00" xmlns="http://www.w3.org/2000/svg" xmlns:xlink="http://www.w3.org/1999/xlink">
<g id="graph0" class="graph" transform="scale(1 1) rotate(0) translate(4 1499)">
<title>suanpan::error</title>
<polygon fill="white" stroke="transparent" points="-4,4 -4,-1499 1060,-1499 1060,4 -4,4"/>
<!-- Node1 -->
<g id="node1" class="node">
<title>Node1</title>
<g id="a_node1"><a xlink:title=" ">
<polygon fill="#bfbfbf" stroke="black" points="945,-745.5 945,-765.5 1056,-765.5 1056,-745.5 945,-745.5"/>
<text text-anchor="middle" x="1000.5" y="-752.7" font-family="Consolas" font-size="11.00">suanpan::error</text>
</a>
</g>
</g>
<!-- Node2 -->
<g id="node2" class="node">
<title>Node2</title>
<g id="a_node2"><a xlink:href="../../dc/d56/group___storage.html#gabac4ed8f675c6ea1cc140ee2af9febc5" target="_top" xlink:title=" ">
<polygon fill="white" stroke="black" points="750.5,-1432.5 750.5,-1452.5 888.5,-1452.5 888.5,-1432.5 750.5,-1432.5"/>
<text text-anchor="middle" x="819.5" y="-1439.7" font-family="Consolas" font-size="11.00">Factory::get_error</text>
</a>
</g>
</g>
<!-- Node1&#45;&gt;Node2 -->
<g id="edge1" class="edge">
<title>Node1&#45;&gt;Node2</title>
<path fill="none" stroke="midnightblue" d="M999.76,-775.84C1000.6,-877.14 999.15,-1326.14 909,-1423.5 903.34,-1429.61 896.23,-1434.01 888.52,-1437.13"/>
<polygon fill="midnightblue" stroke="midnightblue" points="1003.25,-775.68 999.65,-765.72 996.26,-775.75 1003.25,-775.68"/>
</g>
<!-- Node3 -->
<g id="node3" class="node">
<title>Node3</title>
<g id="a_node3"><a xlink:href="../../df/d14/_material_tester_8cpp.html#ac2d361b0b6a4f325fc61b41477331d53" target="_top" xlink:title=" ">
<polygon fill="white" stroke="black" points="733.5,-1393.5 733.5,-1413.5 905.5,-1413.5 905.5,-1393.5 733.5,-1393.5"/>
<text text-anchor="middle" x="819.5" y="-1400.7" font-family="Consolas" font-size="11.00">material_tester_by_load</text>
</a>
</g>
</g>
<!-- Node1&#45;&gt;Node3 -->
<g id="edge2" class="edge">
<title>Node1&#45;&gt;Node3</title>
<path fill="none" stroke="midnightblue" d="M999.54,-775.82C999.32,-873.3 993.4,-1292.14 909,-1383.5 905.37,-1387.43 901.14,-1390.68 896.53,-1393.34"/>
<polygon fill="midnightblue" stroke="midnightblue" points="1003.04,-775.57 999.55,-765.57 996.04,-775.56 1003.04,-775.57"/>
</g>
<!-- Node13 -->
<g id="node13" class="node">
<title>Node13</title>
<g id="a_node13"><a xlink:href="../../df/d14/_material_tester_8cpp.html#a7ed3124cc610da024a18da37d37e4827" target="_top" xlink:title=" ">
<polygon fill="white" stroke="black" points="750.5,-1341.5 750.5,-1373.5 888.5,-1373.5 888.5,-1341.5 750.5,-1341.5"/>
<text text-anchor="start" x="758.5" y="-1360.7" font-family="Consolas" font-size="11.00">material_tester_by</text>
<text text-anchor="middle" x="819.5" y="-1348.7" font-family="Consolas" font-size="11.00">_stress_history</text>
</a>
</g>
</g>
<!-- Node1&#45;&gt;Node13 -->
<g id="edge17" class="edge">
<title>Node1&#45;&gt;Node13</title>
<path fill="none" stroke="midnightblue" d="M999.15,-775.81C997.17,-868.13 984.49,-1247.38 909,-1332.5 903.39,-1338.83 896.3,-1343.61 888.6,-1347.21"/>
<polygon fill="midnightblue" stroke="midnightblue" points="1002.66,-775.65 999.35,-765.58 995.66,-775.51 1002.66,-775.65"/>
</g>
<!-- Node15 -->
<g id="node15" class="node">
<title>Node15</title>
<g id="a_node15"><a xlink:href="../../d7/d01/class_l_b_f_g_s.html#a2b2892e126892f2244217984dbfa377b" target="_top" xlink:title=" ">
<polygon fill="white" stroke="black" points="760.5,-1302.5 760.5,-1322.5 878.5,-1322.5 878.5,-1302.5 760.5,-1302.5"/>
<text text-anchor="middle" x="819.5" y="-1309.7" font-family="Consolas" font-size="11.00">LBFGS::optimize</text>
</a>
</g>
</g>
<!-- Node1&#45;&gt;Node15 -->
<g id="edge20" class="edge">
<title>Node1&#45;&gt;Node15</title>
<path fill="none" stroke="midnightblue" d="M999.02,-775.95C996.52,-864.9 982.05,-1217.1 909,-1293.5 900.96,-1301.91 890.18,-1307.04 878.9,-1310.09"/>
<polygon fill="midnightblue" stroke="midnightblue" points="1002.52,-775.9 999.29,-765.82 995.53,-775.72 1002.52,-775.9"/>
</g>
<!-- Node17 -->
<g id="node17" class="node">
<title>Node17</title>
<g id="a_node17"><a xlink:href="../../dc/d56/group___storage.html#gab0529506af25c7f05be3a11c381ba1cf" target="_top" xlink:title=" ">
<polygon fill="white" stroke="black" points="750.5,-1263.5 750.5,-1283.5 888.5,-1283.5 888.5,-1263.5 750.5,-1263.5"/>
<text text-anchor="middle" x="819.5" y="-1270.7" font-family="Consolas" font-size="11.00">Factory::set_error</text>
</a>
</g>
</g>
<!-- Node1&#45;&gt;Node17 -->
<g id="edge22" class="edge">
<title>Node1&#45;&gt;Node17</title>
<path fill="none" stroke="midnightblue" d="M998.72,-776.08C995.08,-861.17 976.93,-1184.36 909,-1254.5 903.32,-1260.37 896.29,-1264.64 888.7,-1267.72"/>
<polygon fill="midnightblue" stroke="midnightblue" points="1002.23,-776.03 999.14,-765.9 995.23,-775.75 1002.23,-776.03"/>
</g>
<!-- Node18 -->
<g id="node18" class="node">
<title>Node18</title>
<g id="a_node18"><a xlink:href="../../d7/d7e/class_b21_e.html#ab3b6ebf19e37a84af92d71400e42ecf1" target="_top" xlink:title=" ">
<polygon fill="white" stroke="black" points="747,-1224.5 747,-1244.5 892,-1244.5 892,-1224.5 747,-1224.5"/>
<text text-anchor="middle" x="819.5" y="-1231.7" font-family="Consolas" font-size="11.00">B21E::update_status</text>
</a>
</g>
</g>
<!-- Node1&#45;&gt;Node18 -->
<g id="edge23" class="edge">
<title>Node1&#45;&gt;Node18</title>
<path fill="none" stroke="midnightblue" d="M998.37,-776.25C993.52,-857.36 971.81,-1151.6 909,-1215.5 904.15,-1220.43 898.36,-1224.23 892.08,-1227.14"/>
<polygon fill="midnightblue" stroke="midnightblue" points="1001.89,-776.07 998.96,-765.89 994.9,-775.67 1001.89,-776.07"/>
</g>
<!-- Node19 -->
<g id="node19" class="node">
<title>Node19</title>
<g id="a_node19"><a xlink:href="../../d4/dc2/class_bouc_wen.html#a8579cf5129f91c406badf50e551d4709" target="_top" xlink:title=" ">
<polygon fill="white" stroke="black" points="740.5,-1173.5 740.5,-1205.5 898.5,-1205.5 898.5,-1173.5 740.5,-1173.5"/>
<text text-anchor="start" x="748.5" y="-1192.7" font-family="Consolas" font-size="11.00">BoucWen::update_trial</text>
<text text-anchor="middle" x="819.5" y="-1180.7" font-family="Consolas" font-size="11.00">_status</text>
</a>
</g>
</g>
<!-- Node1&#45;&gt;Node19 -->
<g id="edge24" class="edge">
<title>Node1&#45;&gt;Node19</title>
<path fill="none" stroke="midnightblue" d="M997.69,-776.21C990.74,-851.16 963.38,-1106.9 909,-1164.5 905.82,-1167.87 902.23,-1170.79 898.35,-1173.33"/>
<polygon fill="midnightblue" stroke="midnightblue" points="1001.22,-776.06 998.63,-765.79 994.25,-775.43 1001.22,-776.06"/>
</g>
<!-- Node20 -->
<g id="node20" class="node">
<title>Node20</title>
<g id="a_node20"><a xlink:href="../../db/d5b/class_b_w_b_n.html#a3c52a796814edd03e2fc4035fcf53ca1" target="_top" xlink:title=" ">
<polygon fill="white" stroke="black" points="750.5,-1122.5 750.5,-1154.5 888.5,-1154.5 888.5,-1122.5 750.5,-1122.5"/>
<text text-anchor="start" x="758.5" y="-1141.7" font-family="Consolas" font-size="11.00">BWBN::update_trial</text>
<text text-anchor="middle" x="819.5" y="-1129.7" font-family="Consolas" font-size="11.00">_status</text>
</a>
</g>
</g>
<!-- Node1&#45;&gt;Node20 -->
<g id="edge25" class="edge">
<title>Node1&#45;&gt;Node20</title>
<path fill="none" stroke="midnightblue" d="M997.04,-775.8C988.38,-844.08 957.17,-1063.98 909,-1113.5 903.21,-1119.45 896.12,-1124.02 888.5,-1127.51"/>
<polygon fill="midnightblue" stroke="midnightblue" points="1000.56,-775.89 998.32,-765.53 993.61,-775.02 1000.56,-775.89"/>
</g>
<!-- Node21 -->
<g id="node21" class="node">
<title>Node21</title>
<g id="a_node21"><a xlink:href="../../da/d42/class_ramberg_osgood.html#a1298f0ac55e820cdcb85b5fc3bdda056" target="_top" xlink:title=" ">
<polygon fill="white" stroke="black" points="740.5,-1071.5 740.5,-1103.5 898.5,-1103.5 898.5,-1071.5 740.5,-1071.5"/>
<text text-anchor="start" x="748.5" y="-1090.7" font-family="Consolas" font-size="11.00">RambergOsgood::update</text>
<text text-anchor="middle" x="819.5" y="-1078.7" font-family="Consolas" font-size="11.00">_trial_status</text>
</a>
</g>
</g>
<!-- Node1&#45;&gt;Node21 -->
<g id="edge26" class="edge">
<title>Node1&#45;&gt;Node21</title>
<path fill="none" stroke="midnightblue" d="M999.81,-775.84C999.5,-830.44 990.9,-981.53 909,-1062.5 905.59,-1065.87 901.77,-1068.79 897.68,-1071.32"/>
<polygon fill="midnightblue" stroke="midnightblue" points="1003.31,-775.7 999.78,-765.72 996.31,-775.73 1003.31,-775.7"/>
</g>
<!-- Node22 -->
<g id="node22" class="node">
<title>Node22</title>
<g id="a_node22"><a xlink:href="../../dd/deb/class_slip_lock.html#a69be9b40189b1c62792091910c0191e9" target="_top" xlink:title=" ">
<polygon fill="white" stroke="black" points="737,-1020.5 737,-1052.5 902,-1052.5 902,-1020.5 737,-1020.5"/>
<text text-anchor="start" x="745" y="-1039.7" font-family="Consolas" font-size="11.00">SlipLock::update_trial</text>
<text text-anchor="middle" x="819.5" y="-1027.7" font-family="Consolas" font-size="11.00">_status</text>
</a>
</g>
</g>
<!-- Node1&#45;&gt;Node22 -->
<g id="edge27" class="edge">
<title>Node1&#45;&gt;Node22</title>
<path fill="none" stroke="midnightblue" d="M998.43,-775.64C994.77,-823.73 978.72,-946.13 909,-1011.5 905.39,-1014.89 901.36,-1017.82 897.05,-1020.36"/>
<polygon fill="midnightblue" stroke="midnightblue" points="1001.93,-775.78 999.09,-765.57 994.95,-775.32 1001.93,-775.78"/>
</g>
<!-- Node23 -->
<g id="node23" class="node">
<title>Node23</title>
<g id="a_node23"><a xlink:href="../../d3/d8f/class_steel_b_r_b.html#a613c5156f5156e7e497dcdb4cdb8138c" target="_top" xlink:title=" ">
<polygon fill="white" stroke="black" points="737,-969.5 737,-1001.5 902,-1001.5 902,-969.5 737,-969.5"/>
<text text-anchor="start" x="745" y="-988.7" font-family="Consolas" font-size="11.00">SteelBRB::update_trial</text>
<text text-anchor="middle" x="819.5" y="-976.7" font-family="Consolas" font-size="11.00">_status</text>
</a>
</g>
</g>
<!-- Node1&#45;&gt;Node23 -->
<g id="edge28" class="edge">
<title>Node1&#45;&gt;Node23</title>
<path fill="none" stroke="midnightblue" d="M996.41,-775.75C989.04,-816.87 966.58,-910.49 909,-960.5 905.14,-963.85 900.87,-966.75 896.34,-969.27"/>
<polygon fill="midnightblue" stroke="midnightblue" points="999.87,-776.28 998.07,-765.83 992.96,-775.12 999.87,-776.28"/>
</g>
<!-- Node24 -->
<g id="node24" class="node">
<title>Node24</title>
<g id="a_node24"><a xlink:href="../../d1/d3d/class_armstrong_frederick1_d.html#a8ec75060eddb4f45ec8b0f000ec0d8c8" target="_top" xlink:title=" ">
<polygon fill="white" stroke="black" points="740.5,-918.5 740.5,-950.5 898.5,-950.5 898.5,-918.5 740.5,-918.5"/>
<text text-anchor="start" x="748.5" y="-937.7" font-family="Consolas" font-size="11.00">ArmstrongFrederick1D</text>
<text text-anchor="middle" x="819.5" y="-925.7" font-family="Consolas" font-size="11.00">::update_trial_status</text>
</a>
</g>
</g>
<!-- Node1&#45;&gt;Node24 -->
<g id="edge29" class="edge">
<title>Node1&#45;&gt;Node24</title>
<path fill="none" stroke="midnightblue" d="M993.3,-775.38C982,-808.31 954.87,-874.09 909,-909.5 904.58,-912.91 899.71,-915.86 894.6,-918.41"/>
<polygon fill="midnightblue" stroke="midnightblue" points="996.73,-776.15 996.53,-765.55 990.08,-773.96 996.73,-776.15"/>
</g>
<!-- Node25 -->
<g id="node25" class="node">
<title>Node25</title>
<g id="a_node25"><a xlink:href="../../d7/d44/class_nonlinear_gurson1_d.html#a0bb512db0cbb943b056e5ac15a9c5178" target="_top" xlink:title=" ">
<polygon fill="white" stroke="black" points="747,-867.5 747,-899.5 892,-899.5 892,-867.5 747,-867.5"/>
<text text-anchor="start" x="755" y="-886.7" font-family="Consolas" font-size="11.00">NonlinearGurson1D::</text>
<text text-anchor="middle" x="819.5" y="-874.7" font-family="Consolas" font-size="11.00">update_trial_status</text>
</a>
</g>
</g>
<!-- Node1&#45;&gt;Node25 -->
<g id="edge30" class="edge">
<title>Node1&#45;&gt;Node25</title>
<path fill="none" stroke="midnightblue" d="M987.92,-774.33C972.67,-797.55 943.69,-836.63 909,-858.5 903.6,-861.91 897.72,-864.86 891.66,-867.42"/>
<polygon fill="midnightblue" stroke="midnightblue" points="990.99,-776.03 993.42,-765.72 985.09,-772.26 990.99,-776.03"/>
</g>
<!-- Node26 -->
<g id="node26" class="node">
<title>Node26</title>
<g id="a_node26"><a xlink:href="../../db/d14/class_nonlinear_mises1_d.html#a3c1ff226f98111302fb45bf5724853d3" target="_top" xlink:title=" ">
<polygon fill="white" stroke="black" points="730,-816.5 730,-848.5 909,-848.5 909,-816.5 730,-816.5"/>
<text text-anchor="start" x="738" y="-835.7" font-family="Consolas" font-size="11.00">NonlinearMises1D::update</text>
<text text-anchor="middle" x="819.5" y="-823.7" font-family="Consolas" font-size="11.00">_trial_status</text>
</a>
</g>
</g>
<!-- Node1&#45;&gt;Node26 -->
<g id="edge31" class="edge">
<title>Node1&#45;&gt;Node26</title>
<path fill="none" stroke="midnightblue" d="M976.15,-771.06C958.34,-782.39 932.89,-797.44 909,-807.5 901.2,-810.78 892.84,-813.78 884.48,-816.46"/>
<polygon fill="midnightblue" stroke="midnightblue" points="978.22,-773.89 984.72,-765.52 974.42,-768.01 978.22,-773.89"/>
</g>
<!-- Node27 -->
<g id="node27" class="node">
<title>Node27</title>
<g id="a_node27"><a xlink:href="../../d4/d28/class_v_a_f_c_r_p1_d.html#ae39bcde56a9db29d76ea7208abb96ccc" target="_top" xlink:title=" ">
<polygon fill="white" stroke="black" points="737,-765.5 737,-797.5 902,-797.5 902,-765.5 737,-765.5"/>
<text text-anchor="start" x="745" y="-784.7" font-family="Consolas" font-size="11.00">VAFCRP1D::update_trial</text>
<text text-anchor="middle" x="819.5" y="-772.7" font-family="Consolas" font-size="11.00">_status</text>
</a>
</g>
</g>
<!-- Node1&#45;&gt;Node27 -->
<g id="edge32" class="edge">
<title>Node1&#45;&gt;Node27</title>
<path fill="none" stroke="midnightblue" d="M934.84,-764.89C924.24,-766.43 913.14,-768.04 902.2,-769.63"/>
<polygon fill="midnightblue" stroke="midnightblue" points="935.43,-768.34 944.82,-763.44 934.42,-761.42 935.43,-768.34"/>
</g>
<!-- Node28 -->
<g id="node28" class="node">
<title>Node28</title>
<g id="a_node28"><a xlink:href="../../d4/d0e/group___material-1_d.html#gac260ef34660418b203a0bb48ca81d062" target="_top" xlink:title=" ">
<polygon fill="white" stroke="black" points="750.5,-714.5 750.5,-746.5 888.5,-746.5 888.5,-714.5 750.5,-714.5"/>
<text text-anchor="start" x="758.5" y="-733.7" font-family="Consolas" font-size="11.00">Sequential::update</text>
<text text-anchor="middle" x="819.5" y="-721.7" font-family="Consolas" font-size="11.00">_trial_status</text>
</a>
</g>
</g>
<!-- Node1&#45;&gt;Node28 -->
<g id="edge33" class="edge">
<title>Node1&#45;&gt;Node28</title>
<path fill="none" stroke="midnightblue" d="M934.67,-746.45C919.75,-744.36 903.83,-742.14 888.76,-740.03"/>
<polygon fill="midnightblue" stroke="midnightblue" points="934.43,-749.95 944.82,-747.86 935.4,-743.01 934.43,-749.95"/>
</g>
<!-- Node29 -->
<g id="node29" class="node">
<title>Node29</title>
<g id="a_node29"><a xlink:href="../../d7/df3/class_nonlinear_cam_clay.html#ac2fe74eb958ed400a2dcb2c2864bc327" target="_top" xlink:title=" ">
<polygon fill="white" stroke="black" points="730,-663.5 730,-695.5 909,-695.5 909,-663.5 730,-663.5"/>
<text text-anchor="start" x="738" y="-682.7" font-family="Consolas" font-size="11.00">NonlinearCamClay::update</text>
<text text-anchor="middle" x="819.5" y="-670.7" font-family="Consolas" font-size="11.00">_trial_status</text>
</a>
</g>
</g>
<!-- Node1&#45;&gt;Node29 -->
<g id="edge34" class="edge">
<title>Node1&#45;&gt;Node29</title>
<path fill="none" stroke="midnightblue" d="M975.07,-740.08C957.27,-729.32 932.28,-715.21 909,-705.5 900.28,-701.86 890.88,-698.52 881.57,-695.53"/>
<polygon fill="midnightblue" stroke="midnightblue" points="973.33,-743.12 983.69,-745.36 976.99,-737.15 973.33,-743.12"/>
</g>
<!-- Node30 -->
<g id="node30" class="node">
<title>Node30</title>
<g id="a_node30"><a xlink:href="../../dc/dfb/class_c_d_p_m2.html#a1f77ec22f18b90dd568fe6964f8ce91a" target="_top" xlink:title=" ">
<polygon fill="white" stroke="black" points="747,-612.5 747,-644.5 892,-644.5 892,-612.5 747,-612.5"/>
<text text-anchor="start" x="755" y="-631.7" font-family="Consolas" font-size="11.00">CDPM2::update_trial</text>
<text text-anchor="middle" x="819.5" y="-619.7" font-family="Consolas" font-size="11.00">_status</text>
</a>
</g>
</g>
<!-- Node1&#45;&gt;Node30 -->
<g id="edge35" class="edge">
<title>Node1&#45;&gt;Node30</title>
<path fill="none" stroke="midnightblue" d="M987.56,-736.75C972.12,-714 943.12,-676.04 909,-654.5 902.91,-650.65 896.22,-647.36 889.34,-644.53"/>
<polygon fill="midnightblue" stroke="midnightblue" points="984.71,-738.79 993.15,-745.2 990.55,-734.93 984.71,-738.79"/>
</g>
<!-- Node31 -->
<g id="node31" class="node">
<title>Node31</title>
<g id="a_node31"><a xlink:href="../../de/d9e/class_nonlinear_c_d_p.html#ada50f0816b64f9d897504e17674bb550" target="_top" xlink:title=" ">
<polygon fill="white" stroke="black" points="743.5,-561.5 743.5,-593.5 895.5,-593.5 895.5,-561.5 743.5,-561.5"/>
<text text-anchor="start" x="751.5" y="-580.7" font-family="Consolas" font-size="11.00">NonlinearCDP::update</text>
<text text-anchor="middle" x="819.5" y="-568.7" font-family="Consolas" font-size="11.00">_trial_status</text>
</a>
</g>
</g>
<!-- Node1&#45;&gt;Node31 -->
<g id="edge36" class="edge">
<title>Node1&#45;&gt;Node31</title>
<path fill="none" stroke="midnightblue" d="M993.02,-735.46C981.45,-702.87 954.13,-638.51 909,-603.5 904.07,-599.67 898.58,-596.41 892.83,-593.62"/>
<polygon fill="midnightblue" stroke="midnightblue" points="989.8,-736.87 996.34,-745.21 996.43,-734.61 989.8,-736.87"/>
</g>
<!-- Node32 -->
<g id="node32" class="node">
<title>Node32</title>
<g id="a_node32"><a xlink:href="../../d2/dbe/class_nonlinear_drucker_prager.html#a612a17df054c7955919f5088f98d11a9" target="_top" xlink:title=" ">
<polygon fill="white" stroke="black" points="737,-510.5 737,-542.5 902,-542.5 902,-510.5 737,-510.5"/>
<text text-anchor="start" x="745" y="-529.7" font-family="Consolas" font-size="11.00">NonlinearDruckerPrager</text>
<text text-anchor="middle" x="819.5" y="-517.7" font-family="Consolas" font-size="11.00">::update_trial_status</text>
</a>
</g>
</g>
<!-- Node1&#45;&gt;Node32 -->
<g id="edge37" class="edge">
<title>Node1&#45;&gt;Node32</title>
<path fill="none" stroke="midnightblue" d="M996.38,-735.35C988.95,-694.43 966.39,-601.25 909,-551.5 905.02,-548.05 900.59,-545.07 895.91,-542.5"/>
<polygon fill="midnightblue" stroke="midnightblue" points="992.93,-735.94 998.05,-745.21 999.83,-734.77 992.93,-735.94"/>
</g>
<!-- Node33 -->
<g id="node33" class="node">
<title>Node33</title>
<g id="a_node33"><a xlink:href="../../d3/dd4/class_nonlinear_hoffman.html#ad12423b0fdd6439a01f4fc91804ef40e" target="_top" xlink:title=" ">
<polygon fill="white" stroke="black" points="730,-459.5 730,-491.5 909,-491.5 909,-459.5 730,-459.5"/>
<text text-anchor="start" x="738" y="-478.7" font-family="Consolas" font-size="11.00">NonlinearHoffman::update</text>
<text text-anchor="middle" x="819.5" y="-466.7" font-family="Consolas" font-size="11.00">_trial_status</text>
</a>
</g>
</g>
<!-- Node1&#45;&gt;Node33 -->
<g id="edge38" class="edge">
<title>Node1&#45;&gt;Node33</title>
<path fill="none" stroke="midnightblue" d="M998.41,-735.44C994.69,-687.53 978.52,-565.6 909,-500.5 905.39,-497.12 901.35,-494.19 897.05,-491.65"/>
<polygon fill="midnightblue" stroke="midnightblue" points="994.92,-735.72 999.08,-745.47 1001.9,-735.25 994.92,-735.72"/>
</g>
<!-- Node35 -->
<g id="node35" class="node">
<title>Node35</title>
<g id="a_node35"><a xlink:href="../../d6/de0/class_dafalias_manzari.html#a77a82b737eafab2859941e22cad015a7" target="_top" xlink:title=" ">
<polygon fill="white" stroke="black" points="733.5,-408.5 733.5,-440.5 905.5,-440.5 905.5,-408.5 733.5,-408.5"/>
<text text-anchor="start" x="741.5" y="-427.7" font-family="Consolas" font-size="11.00">DafaliasManzari::update</text>
<text text-anchor="middle" x="819.5" y="-415.7" font-family="Consolas" font-size="11.00">_trial_status</text>
</a>
</g>
</g>
<!-- Node1&#45;&gt;Node35 -->
<g id="edge40" class="edge">
<title>Node1&#45;&gt;Node35</title>
<path fill="none" stroke="midnightblue" d="M999.79,-735.22C999.42,-680.8 990.69,-530.19 909,-449.5 905.59,-446.13 901.77,-443.21 897.67,-440.68"/>
<polygon fill="midnightblue" stroke="midnightblue" points="996.29,-735.31 999.77,-745.31 1003.29,-735.32 996.29,-735.31"/>
</g>
<!-- Node36 -->
<g id="node36" class="node">
<title>Node36</title>
<g id="a_node36"><a xlink:href="../../de/d26/class_simple_sand.html#a8157e10cf03876250514d822ff8afe12" target="_top" xlink:title=" ">
<polygon fill="white" stroke="black" points="750.5,-357.5 750.5,-389.5 888.5,-389.5 888.5,-357.5 750.5,-357.5"/>
<text text-anchor="start" x="758.5" y="-376.7" font-family="Consolas" font-size="11.00">SimpleSand::update</text>
<text text-anchor="middle" x="819.5" y="-364.7" font-family="Consolas" font-size="11.00">_trial_status</text>
</a>
</g>
</g>
<!-- Node1&#45;&gt;Node36 -->
<g id="edge41" class="edge">
<title>Node1&#45;&gt;Node36</title>
<path fill="none" stroke="midnightblue" d="M997.03,-735.26C988.34,-667.16 957.06,-447.88 909,-398.5 903.32,-392.67 896.39,-388.16 888.94,-384.69"/>
<polygon fill="midnightblue" stroke="midnightblue" points="993.6,-736.01 998.31,-745.5 1000.55,-735.14 993.6,-736.01"/>
</g>
<!-- Node37 -->
<g id="node37" class="node">
<title>Node37</title>
<g id="a_node37"><a xlink:href="../../d5/d60/class_armstrong_frederick.html#aeff41b136117c1f01d41ff427e102e65" target="_top" xlink:title=" ">
<polygon fill="white" stroke="black" points="740.5,-306.5 740.5,-338.5 898.5,-338.5 898.5,-306.5 740.5,-306.5"/>
<text text-anchor="start" x="748.5" y="-325.7" font-family="Consolas" font-size="11.00">ArmstrongFrederick</text>
<text text-anchor="middle" x="819.5" y="-313.7" font-family="Consolas" font-size="11.00">::update_trial_status</text>
</a>
</g>
</g>
<!-- Node1&#45;&gt;Node37 -->
<g id="edge42" class="edge">
<title>Node1&#45;&gt;Node37</title>
<path fill="none" stroke="midnightblue" d="M997.68,-734.84C990.71,-660.07 963.27,-404.95 909,-347.5 905.82,-344.13 902.23,-341.21 898.35,-338.67"/>
<polygon fill="midnightblue" stroke="midnightblue" points="994.24,-735.59 998.63,-745.24 1001.21,-734.96 994.24,-735.59"/>
</g>
<!-- Node38 -->
<g id="node38" class="node">
<title>Node38</title>
<g id="a_node38"><a xlink:href="../../d1/dd0/class_nonlinear_gurson.html#aa8ae29eca73403329a46ca014b3dd49b" target="_top" xlink:title=" ">
<polygon fill="white" stroke="black" points="733.5,-255.5 733.5,-287.5 905.5,-287.5 905.5,-255.5 733.5,-255.5"/>
<text text-anchor="start" x="741.5" y="-274.7" font-family="Consolas" font-size="11.00">NonlinearGurson::update</text>
<text text-anchor="middle" x="819.5" y="-262.7" font-family="Consolas" font-size="11.00">_trial_status</text>
</a>
</g>
</g>
<!-- Node1&#45;&gt;Node38 -->
<g id="edge43" class="edge">
<title>Node1&#45;&gt;Node38</title>
<path fill="none" stroke="midnightblue" d="M998.24,-734.91C992.91,-654.41 969.63,-362.22 909,-296.5 905.86,-293.1 902.3,-290.14 898.45,-287.58"/>
<polygon fill="midnightblue" stroke="midnightblue" points="994.77,-735.44 998.9,-745.2 1001.75,-734.99 994.77,-735.44"/>
</g>
<!-- Node39 -->
<g id="node39" class="node">
<title>Node39</title>
<g id="a_node39"><a xlink:href="../../de/d54/class_nonlinear_j2.html#a749314362a5b29f4e3b9d420fab90542" target="_top" xlink:title=" ">
<polygon fill="white" stroke="black" points="747,-204.5 747,-236.5 892,-236.5 892,-204.5 747,-204.5"/>
<text text-anchor="start" x="755" y="-223.7" font-family="Consolas" font-size="11.00">NonlinearJ2::update</text>
<text text-anchor="middle" x="819.5" y="-211.7" font-family="Consolas" font-size="11.00">_trial_status</text>
</a>
</g>
</g>
<!-- Node1&#45;&gt;Node39 -->
<g id="edge44" class="edge">
<title>Node1&#45;&gt;Node39</title>
<path fill="none" stroke="midnightblue" d="M998.69,-735.15C994.9,-649.52 976.06,-319.6 909,-245.5 904.29,-240.29 898.58,-236.13 892.36,-232.82"/>
<polygon fill="midnightblue" stroke="midnightblue" points="995.21,-735.51 999.13,-745.36 1002.2,-735.22 995.21,-735.51"/>
</g>
<!-- Node40 -->
<g id="node40" class="node">
<title>Node40</title>
<g id="a_node40"><a xlink:href="../../d0/d51/class_nonlinear_peric.html#ac22da48a502e269022b0933ac4a4a2c6" target="_top" xlink:title=" ">
<polygon fill="white" stroke="black" points="737,-153.5 737,-185.5 902,-185.5 902,-153.5 737,-153.5"/>
<text text-anchor="start" x="745" y="-172.7" font-family="Consolas" font-size="11.00">NonlinearPeric::update</text>
<text text-anchor="middle" x="819.5" y="-160.7" font-family="Consolas" font-size="11.00">_trial_status</text>
</a>
</g>
</g>
<!-- Node1&#45;&gt;Node40 -->
<g id="edge45" class="edge">
<title>Node1&#45;&gt;Node40</title>
<path fill="none" stroke="midnightblue" d="M999.05,-735.17C996.65,-644.39 982.47,-276.98 909,-194.5 906.03,-191.16 902.64,-188.25 898.98,-185.72"/>
<polygon fill="midnightblue" stroke="midnightblue" points="995.56,-735.34 999.3,-745.25 1002.56,-735.17 995.56,-735.34"/>
</g>
<!-- Node41 -->
<g id="node41" class="node">
<title>Node41</title>
<g id="a_node41"><a xlink:href="../../d9/d6d/class_v_a_f_c_r_p.html#a3af6d79e775a611c8a9dc3cb2ad8084f" target="_top" xlink:title=" ">
<polygon fill="white" stroke="black" points="743.5,-102.5 743.5,-134.5 895.5,-134.5 895.5,-102.5 743.5,-102.5"/>
<text text-anchor="start" x="751.5" y="-121.7" font-family="Consolas" font-size="11.00">VAFCRP::update_trial</text>
<text text-anchor="middle" x="819.5" y="-109.7" font-family="Consolas" font-size="11.00">_status</text>
</a>
</g>
</g>
<!-- Node1&#45;&gt;Node41 -->
<g id="edge46" class="edge">
<title>Node1&#45;&gt;Node41</title>
<path fill="none" stroke="midnightblue" d="M999.35,-735.18C998.26,-639.46 988.9,-234.39 909,-143.5 905.21,-139.18 900.73,-135.59 895.83,-132.59"/>
<polygon fill="midnightblue" stroke="midnightblue" points="995.86,-735.31 999.45,-745.28 1002.86,-735.24 995.86,-735.31"/>
</g>
<!-- Node42 -->
<g id="node42" class="node">
<title>Node42</title>
<g id="a_node42"><a xlink:href="../../d7/da6/class_stress_wrapper.html#a709aecccdad95c44801d3f53cec827a6" target="_top" xlink:title=" ">
<polygon fill="white" stroke="black" points="740.5,-51.5 740.5,-83.5 898.5,-83.5 898.5,-51.5 740.5,-51.5"/>
<text text-anchor="start" x="748.5" y="-70.7" font-family="Consolas" font-size="11.00">StressWrapper::update</text>
<text text-anchor="middle" x="819.5" y="-58.7" font-family="Consolas" font-size="11.00">_trial_status</text>
</a>
</g>
</g>
<!-- Node1&#45;&gt;Node42 -->
<g id="edge47" class="edge">
<title>Node1&#45;&gt;Node42</title>
<path fill="none" stroke="midnightblue" d="M999.61,-735.11C999.74,-634.51 995.32,-191.81 909,-92.5 905.96,-89.01 902.48,-85.98 898.69,-83.37"/>
<polygon fill="midnightblue" stroke="midnightblue" points="996.11,-735.4 999.58,-745.41 1003.11,-735.42 996.11,-735.4"/>
</g>
<!-- Node43 -->
<g id="node43" class="node">
<title>Node43</title>
<g id="a_node43"><a xlink:href="../../db/d83/class_maxwell.html#ab7056f092e9a8da26e27cf7f7a389d1d" target="_top" xlink:title=" ">
<polygon fill="white" stroke="black" points="740.5,-0.5 740.5,-32.5 898.5,-32.5 898.5,-0.5 740.5,-0.5"/>
<text text-anchor="start" x="748.5" y="-19.7" font-family="Consolas" font-size="11.00">Maxwell::update_trial</text>
<text text-anchor="middle" x="819.5" y="-7.7" font-family="Consolas" font-size="11.00">_status</text>
</a>
</g>
</g>
<!-- Node1&#45;&gt;Node43 -->
<g id="edge48" class="edge">
<title>Node1&#45;&gt;Node43</title>
<path fill="none" stroke="midnightblue" d="M999.83,-734.89C1001.12,-629.24 1001.72,-149.2 909,-41.5 905.98,-37.99 902.51,-34.96 898.72,-32.33"/>
<polygon fill="midnightblue" stroke="midnightblue" points="996.33,-735.11 999.69,-745.15 1003.33,-735.2 996.33,-735.11"/>
</g>
<!-- Node4 -->
<g id="node4" class="node">
<title>Node4</title>
<g id="a_node4"><a xlink:href="../../df/d14/_material_tester_8cpp.html#ae57c2c9f6c5d443a55fbb5686c878128" target="_top" xlink:title=" ">
<polygon fill="white" stroke="black" points="529,-1441.5 529,-1461.5 687,-1461.5 687,-1441.5 529,-1441.5"/>
<text text-anchor="middle" x="608" y="-1448.7" font-family="Consolas" font-size="11.00">test_material_by_load</text>
</a>
</g>
</g>
<!-- Node3&#45;&gt;Node4 -->
<g id="edge3" class="edge">
<title>Node3&#45;&gt;Node4</title>
<path fill="none" stroke="midnightblue" d="M763.07,-1415.82C752.1,-1418.32 740.68,-1420.96 730,-1423.5 713.96,-1427.32 710.05,-1428.7 694,-1432.5 681.35,-1435.5 667.6,-1438.62 654.93,-1441.46"/>
<polygon fill="midnightblue" stroke="midnightblue" points="764,-1419.2 772.98,-1413.58 762.45,-1412.38 764,-1419.2"/>
</g>
<!-- Node12 -->
<g id="node12" class="node">
<title>Node12</title>
<g id="a_node12"><a xlink:href="../../df/d14/_material_tester_8cpp.html#ac963d5eba83426ede7a7509f1844f590" target="_top" xlink:title=" ">
<polygon fill="white" stroke="black" points="529,-1390.5 529,-1422.5 687,-1422.5 687,-1390.5 529,-1390.5"/>
<text text-anchor="start" x="537" y="-1409.7" font-family="Consolas" font-size="11.00">test_material_by_load</text>
<text text-anchor="middle" x="608" y="-1397.7" font-family="Consolas" font-size="11.00">_with_base3d</text>
</a>
</g>
</g>
<!-- Node3&#45;&gt;Node12 -->
<g id="edge15" class="edge">
<title>Node3&#45;&gt;Node12</title>
<path fill="none" stroke="midnightblue" d="M723.18,-1404.86C711.09,-1405.04 698.83,-1405.21 687.05,-1405.38"/>
<polygon fill="midnightblue" stroke="midnightblue" points="723.34,-1408.36 733.29,-1404.72 723.24,-1401.36 723.34,-1408.36"/>
</g>
<!-- Node5 -->
<g id="node5" class="node">
<title>Node5</title>
<g id="a_node5"><a xlink:href="../../da/d46/group___utility.html#ga9867a3ab23d73b1a903c291427114d4c" target="_top" xlink:title=" ">
<polygon fill="white" stroke="black" points="368,-1396.5 368,-1416.5 486,-1416.5 486,-1396.5 368,-1396.5"/>
<text text-anchor="middle" x="427" y="-1403.7" font-family="Consolas" font-size="11.00">process_command</text>
</a>
</g>
</g>
<!-- Node4&#45;&gt;Node5 -->
<g id="edge4" class="edge">
<title>Node4&#45;&gt;Node5</title>
<path fill="none" stroke="midnightblue" d="M550.37,-1439.26C540.88,-1437.08 531.15,-1434.79 522,-1432.5 502.29,-1427.57 480.4,-1421.55 462.71,-1416.55"/>
<polygon fill="midnightblue" stroke="midnightblue" points="549.61,-1442.67 560.14,-1441.46 551.16,-1435.84 549.61,-1442.67"/>
</g>
<!-- Node6 -->
<g id="node6" class="node">
<title>Node6</title>
<g id="a_node6"><a xlink:href="../../da/d46/group___utility.html#ga8bf8736c7a14e90bd7313d121b2ac440" target="_top" xlink:title=" ">
<polygon fill="white" stroke="black" points="247.5,-1474.5 247.5,-1494.5 318.5,-1494.5 318.5,-1474.5 247.5,-1474.5"/>
<text text-anchor="middle" x="283" y="-1481.7" font-family="Consolas" font-size="11.00">cli_mode</text>
</a>
</g>
</g>
<!-- Node5&#45;&gt;Node6 -->
<g id="edge5" class="edge">
<title>Node5&#45;&gt;Node6</title>
<path fill="none" stroke="midnightblue" d="M403.44,-1422.31C384.81,-1434.96 357.41,-1452.63 332,-1465.5 325.6,-1468.74 318.52,-1471.81 311.8,-1474.5"/>
<polygon fill="midnightblue" stroke="midnightblue" points="405.57,-1425.1 411.83,-1416.55 401.6,-1419.33 405.57,-1425.1"/>
</g>
<!-- Node9 -->
<g id="node9" class="node">
<title>Node9</title>
<g id="a_node9"><a xlink:href="../../d1/d81/command_8cpp.html#a5239be18e56b5ec86ad0fbadd6020737" target="_top" xlink:title=" ">
<polygon fill="white" stroke="black" points="247.5,-1435.5 247.5,-1455.5 318.5,-1455.5 318.5,-1435.5 247.5,-1435.5"/>
<text text-anchor="middle" x="283" y="-1442.7" font-family="Consolas" font-size="11.00">overview</text>
</a>
</g>
</g>
<!-- Node5&#45;&gt;Node9 -->
<g id="edge8" class="edge">
<title>Node5&#45;&gt;Node9</title>
<path fill="none" stroke="midnightblue" d="M357.99,-1418.43C337.83,-1423.9 317.35,-1430.18 303.07,-1435.48"/>
<polygon fill="midnightblue" stroke="midnightblue" points="359.06,-1421.77 367.83,-1415.82 357.27,-1415 359.06,-1421.77"/>
</g>
<!-- Node10 -->
<g id="node10" class="node">
<title>Node10</title>
<g id="a_node10"><a xlink:href="../../da/d46/group___utility.html#gae4e3a17f22e5253a23b9955c66935551" target="_top" xlink:title=" ">
<polygon fill="white" stroke="black" points="234,-1396.5 234,-1416.5 332,-1416.5 332,-1396.5 234,-1396.5"/>
<text text-anchor="middle" x="283" y="-1403.7" font-family="Consolas" font-size="11.00">process_file</text>
</a>
</g>
</g>
<!-- Node5&#45;&gt;Node10 -->
<g id="edge10" class="edge">
<title>Node5&#45;&gt;Node10</title>
<path fill="none" stroke="midnightblue" d="M357.8,-1399.75C349.2,-1399.73 340.54,-1399.83 332.34,-1400.07"/>
<polygon fill="midnightblue" stroke="midnightblue" points="357.8,-1403.25 367.83,-1399.85 357.87,-1396.26 357.8,-1403.25"/>
</g>
<!-- Node11 -->
<g id="node11" class="node">
<title>Node11</title>
<g id="a_node11"><a xlink:href="../../d1/d81/command_8cpp.html#ab9314fd00ce5019a901017b7a09b7f36" target="_top" xlink:title=" ">
<polygon fill="white" stroke="black" points="237.5,-1357.5 237.5,-1377.5 328.5,-1377.5 328.5,-1357.5 237.5,-1357.5"/>
<text text-anchor="middle" x="283" y="-1364.7" font-family="Consolas" font-size="11.00">run_example</text>
</a>
</g>
</g>
<!-- Node5&#45;&gt;Node11 -->
<g id="edge13" class="edge">
<title>Node5&#45;&gt;Node11</title>
<path fill="none" stroke="midnightblue" d="M397.25,-1393.05C377.6,-1386.38 351.17,-1378.86 328.78,-1373.48"/>
<polygon fill="midnightblue" stroke="midnightblue" points="396.25,-1396.41 406.85,-1396.45 398.59,-1389.82 396.25,-1396.41"/>
</g>
<!-- Node7 -->
<g id="node7" class="node">
<title>Node7</title>
<g id="a_node7"><a xlink:href="../../da/d46/group___utility.html#gaf8d2165909a5b05cf91dce632ce172a4" target="_top" xlink:title=" ">
<polygon fill="white" stroke="black" points="80,-1435.5 80,-1455.5 198,-1455.5 198,-1435.5 80,-1435.5"/>
<text text-anchor="middle" x="139" y="-1442.7" font-family="Consolas" font-size="11.00">argument_parser</text>
</a>
</g>
</g>
<!-- Node6&#45;&gt;Node7 -->
<g id="edge6" class="edge">
<title>Node6&#45;&gt;Node7</title>
<path fill="none" stroke="midnightblue" d="M237.36,-1472.24C217.81,-1466.87 195.15,-1460.65 176.61,-1455.55"/>
<polygon fill="midnightblue" stroke="midnightblue" points="236.69,-1475.69 247.26,-1474.96 238.55,-1468.94 236.69,-1475.69"/>
</g>
<!-- Node8 -->
<g id="node8" class="node">
<title>Node8</title>
<g id="a_node8"><a xlink:href="../../d6/dfd/suan_pan_8cpp.html#a3c04138a5bfe5d72780bb7e82a18e627" target="_top" xlink:title=" ">
<polygon fill="white" stroke="black" points="0,-1435.5 0,-1455.5 44,-1455.5 44,-1435.5 0,-1435.5"/>
<text text-anchor="middle" x="22" y="-1442.7" font-family="Consolas" font-size="11.00">main</text>
</a>
</g>
</g>
<!-- Node7&#45;&gt;Node8 -->
<g id="edge7" class="edge">
<title>Node7&#45;&gt;Node8</title>
<path fill="none" stroke="midnightblue" d="M69.67,-1445.5C60.41,-1445.5 51.54,-1445.5 44.07,-1445.5"/>
<polygon fill="midnightblue" stroke="midnightblue" points="69.83,-1449 79.83,-1445.5 69.83,-1442 69.83,-1449"/>
</g>
<!-- Node9&#45;&gt;Node5 -->
<g id="edge9" class="edge">
<title>Node9&#45;&gt;Node5</title>
<path fill="none" stroke="midnightblue" d="M328.41,-1439.61C354.77,-1433.29 386.85,-1423.97 406.85,-1416.55"/>
<polygon fill="midnightblue" stroke="midnightblue" points="327.57,-1436.21 318.62,-1441.88 329.15,-1443.03 327.57,-1436.21"/>
</g>
<!-- Node10&#45;&gt;Node5 -->
<g id="edge12" class="edge">
<title>Node10&#45;&gt;Node5</title>
<path fill="none" stroke="midnightblue" d="M342.42,-1413.15C350.82,-1413.28 359.45,-1413.28 367.83,-1413.15"/>
<polygon fill="midnightblue" stroke="midnightblue" points="342.42,-1409.65 332.34,-1412.93 342.26,-1416.65 342.42,-1409.65"/>
</g>
<!-- Node10&#45;&gt;Node7 -->
<g id="edge11" class="edge">
<title>Node10&#45;&gt;Node7</title>
<path fill="none" stroke="midnightblue" d="M235.67,-1419.22C216.45,-1424.5 194.48,-1430.54 176.44,-1435.49"/>
<polygon fill="midnightblue" stroke="midnightblue" points="236.72,-1422.57 245.43,-1416.54 234.86,-1415.82 236.72,-1422.57"/>
</g>
<!-- Node11&#45;&gt;Node5 -->
<g id="edge14" class="edge">
<title>Node11&#45;&gt;Node5</title>
<path fill="none" stroke="midnightblue" d="M312.78,-1380.96C328.62,-1386.33 348.86,-1392.26 367.83,-1397.18"/>
<polygon fill="midnightblue" stroke="midnightblue" points="313.66,-1377.56 303.07,-1377.52 311.33,-1384.15 313.66,-1377.56"/>
</g>
<!-- Node12&#45;&gt;Node5 -->
<g id="edge16" class="edge">
<title>Node12&#45;&gt;Node5</title>
<path fill="none" stroke="midnightblue" d="M518.65,-1406.5C507.62,-1406.5 496.58,-1406.5 486.17,-1406.5"/>
<polygon fill="midnightblue" stroke="midnightblue" points="518.75,-1410 528.75,-1406.5 518.75,-1403 518.75,-1410"/>
</g>
<!-- Node14 -->
<g id="node14" class="node">
<title>Node14</title>
<g id="a_node14"><a xlink:href="../../df/d14/_material_tester_8cpp.html#a567659dea0b91c24b4cbe8f7f54a6726" target="_top" xlink:title=" ">
<polygon fill="white" stroke="black" points="522,-1339.5 522,-1371.5 694,-1371.5 694,-1339.5 522,-1339.5"/>
<text text-anchor="start" x="530" y="-1358.7" font-family="Consolas" font-size="11.00">test_material_by_stress</text>
<text text-anchor="middle" x="608" y="-1346.7" font-family="Consolas" font-size="11.00">_history</text>
</a>
</g>
</g>
<!-- Node13&#45;&gt;Node14 -->
<g id="edge18" class="edge">
<title>Node13&#45;&gt;Node14</title>
<path fill="none" stroke="midnightblue" d="M740.24,-1356.75C725.25,-1356.61 709.49,-1356.46 694.29,-1356.31"/>
<polygon fill="midnightblue" stroke="midnightblue" points="740.45,-1360.25 750.48,-1356.85 740.52,-1353.26 740.45,-1360.25"/>
</g>
<!-- Node14&#45;&gt;Node5 -->
<g id="edge19" class="edge">
<title>Node14&#45;&gt;Node5</title>
<path fill="none" stroke="midnightblue" d="M540.47,-1374.45C514.25,-1381.93 485.21,-1390.2 463.2,-1396.47"/>
<polygon fill="midnightblue" stroke="midnightblue" points="541.71,-1377.74 550.36,-1371.64 539.79,-1371.01 541.71,-1377.74"/>
</g>
<!-- Node16 -->
<g id="node16" class="node">
<title>Node16</title>
<g id="a_node16"><a xlink:href="../../d1/d9f/_test_solver_8cpp.html#a65fea237250d992568b205dfd3361553" target="_top" xlink:title=" ">
<polygon fill="white" stroke="black" points="569.5,-1300.5 569.5,-1320.5 646.5,-1320.5 646.5,-1300.5 569.5,-1300.5"/>
<text text-anchor="middle" x="608" y="-1307.7" font-family="Consolas" font-size="11.00">TEST_CASE</text>
</a>
</g>
</g>
<!-- Node15&#45;&gt;Node16 -->
<g id="edge21" class="edge">
<title>Node15&#45;&gt;Node16</title>
<path fill="none" stroke="midnightblue" d="M750.42,-1311.85C715.99,-1311.52 675.51,-1311.13 646.7,-1310.86"/>
<polygon fill="midnightblue" stroke="midnightblue" points="750.39,-1315.35 760.42,-1311.95 750.45,-1308.35 750.39,-1315.35"/>
</g>
<!-- Node34 -->
<g id="node34" class="node">
<title>Node34</title>
<g id="a_node34"><a xlink:href="../../dd/d13/class_timber_p_d.html#afabfd0200bc96cb582c7a9336bb4f32a" target="_top" xlink:title=" ">
<polygon fill="white" stroke="black" points="525.5,-459.5 525.5,-491.5 690.5,-491.5 690.5,-459.5 525.5,-459.5"/>
<text text-anchor="start" x="533.5" y="-478.7" font-family="Consolas" font-size="11.00">TimberPD::update_trial</text>
<text text-anchor="middle" x="608" y="-466.7" font-family="Consolas" font-size="11.00">_status</text>
</a>
</g>
</g>
<!-- Node33&#45;&gt;Node34 -->
<g id="edge39" class="edge">
<title>Node33&#45;&gt;Node34</title>
<path fill="none" stroke="midnightblue" d="M719.8,-475.5C710.01,-475.5 700.15,-475.5 690.56,-475.5"/>
<polygon fill="midnightblue" stroke="midnightblue" points="719.96,-479 729.96,-475.5 719.96,-472 719.96,-479"/>
</g>
</g>
</svg>
