<?xml version="1.0" encoding="UTF-8" standalone="no"?>
<!DOCTYPE svg PUBLIC "-//W3C//DTD SVG 1.1//EN"
 "http://www.w3.org/Graphics/SVG/1.1/DTD/svg11.dtd">
<!-- Generated by graphviz version 5.0.0 (0)
 -->
<!-- Title: Step/Buckle.cpp Pages: 1 -->
<svg width="1057pt" height="824pt"
 viewBox="0.00 0.00 1057.00 824.00" xmlns="http://www.w3.org/2000/svg" xmlns:xlink="http://www.w3.org/1999/xlink">
<g id="graph0" class="graph" transform="scale(1 1) rotate(0) translate(4 820)">
<title>Step/Buckle.cpp</title>
<!-- Node1 -->
<g id="node1" class="node">
<title>Node1</title>
<g id="a_node1"><a xlink:title=" ">
<polygon fill="#999999" stroke="#666666" points="605.5,-816 487.5,-816 487.5,-796 605.5,-796 605.5,-816"/>
<text text-anchor="middle" x="546.5" y="-803.2" font-family="Consolas" font-size="11.00">Step/Buckle.cpp</text>
</a>
</g>
</g>
<!-- Node2 -->
<g id="node2" class="node">
<title>Node2</title>
<g id="a_node2"><a xlink:href="../../db/d22/_buckle_8h.html" target="_top" xlink:title=" ">
<polygon fill="white" stroke="#666666" points="654,-760 583,-760 583,-740 654,-740 654,-760"/>
<text text-anchor="middle" x="618.5" y="-747.2" font-family="Consolas" font-size="11.00">Buckle.h</text>
</a>
</g>
</g>
<!-- Node1&#45;&gt;Node2 -->
<g id="edge1" class="edge">
<title>Node1&#45;&gt;Node2</title>
<path fill="none" stroke="#63b8ff" d="M558.71,-795.84C569.54,-787.72 585.55,-775.71 598.28,-766.16"/>
<polygon fill="#63b8ff" stroke="#63b8ff" points="600.57,-768.83 606.47,-760.03 596.37,-763.23 600.57,-768.83"/>
</g>
<!-- Node37 -->
<g id="node37" class="node">
<title>Node37</title>
<g id="a_node37"><a xlink:href="../../d6/de3/_abs_incre_disp_8h.html" target="_top" xlink:title=" ">
<polygon fill="white" stroke="#666666" points="518,-760 339,-760 339,-740 518,-740 518,-760"/>
<text text-anchor="middle" x="428.5" y="-747.2" font-family="Consolas" font-size="11.00">Converger/AbsIncreDisp.h</text>
</a>
</g>
</g>
<!-- Node1&#45;&gt;Node37 -->
<g id="edge45" class="edge">
<title>Node1&#45;&gt;Node37</title>
<path fill="none" stroke="#63b8ff" d="M526.75,-795.96C507.86,-787.32 479.15,-774.18 457.63,-764.33"/>
<polygon fill="#63b8ff" stroke="#63b8ff" points="458.86,-761.05 448.31,-760.07 455.95,-767.41 458.86,-761.05"/>
</g>
<!-- Node39 -->
<g id="node39" class="node">
<title>Node39</title>
<g id="a_node39"><a xlink:href="../../dc/df2/_domain_base_8h.html" target="_top" xlink:title=" ">
<polygon fill="white" stroke="#666666" points="563,-648 418,-648 418,-628 563,-628 563,-648"/>
<text text-anchor="middle" x="490.5" y="-635.2" font-family="Consolas" font-size="11.00">Domain/DomainBase.h</text>
</a>
</g>
</g>
<!-- Node1&#45;&gt;Node39 -->
<g id="edge48" class="edge">
<title>Node1&#45;&gt;Node39</title>
<path fill="none" stroke="#63b8ff" d="M543.99,-795.68C540.52,-783.01 533.97,-759.66 527.5,-740 517.95,-710.98 505.5,-677.8 497.75,-657.63"/>
<polygon fill="#63b8ff" stroke="#63b8ff" points="500.94,-656.19 494.07,-648.12 494.41,-658.71 500.94,-656.19"/>
</g>
<!-- Node40 -->
<g id="node40" class="node">
<title>Node40</title>
<g id="a_node40"><a xlink:href="../../da/d8e/_factory_helper_8hpp.html" target="_top" xlink:title=" ">
<polygon fill="white" stroke="#666666" points="869,-648 690,-648 690,-628 869,-628 869,-648"/>
<text text-anchor="middle" x="779.5" y="-635.2" font-family="Consolas" font-size="11.00">Domain/FactoryHelper.hpp</text>
</a>
</g>
</g>
<!-- Node1&#45;&gt;Node40 -->
<g id="edge52" class="edge">
<title>Node1&#45;&gt;Node40</title>
<path fill="none" stroke="#63b8ff" d="M581.43,-795.97C605.75,-788.66 638.22,-776.81 663.5,-760 707.5,-730.74 747.45,-682.11 766.95,-656.31"/>
<polygon fill="#63b8ff" stroke="#63b8ff" points="769.82,-658.32 772.97,-648.21 764.2,-654.15 769.82,-658.32"/>
</g>
<!-- Node42 -->
<g id="node42" class="node">
<title>Node42</title>
<g id="a_node42"><a xlink:href="../../dc/d50/_integrator_8h.html" target="_top" xlink:title=" ">
<polygon fill="white" stroke="#666666" points="219,-704 0,-704 0,-684 219,-684 219,-704"/>
<text text-anchor="middle" x="109.5" y="-691.2" font-family="Consolas" font-size="11.00">Solver/Integrator/Integrator.h</text>
</a>
</g>
</g>
<!-- Node1&#45;&gt;Node42 -->
<g id="edge56" class="edge">
<title>Node1&#45;&gt;Node42</title>
<path fill="none" stroke="#63b8ff" d="M487.37,-801.24C401.09,-795.11 245.3,-781.45 193.5,-760 166.81,-748.94 141.32,-727.07 125.56,-711.77"/>
<polygon fill="#63b8ff" stroke="#63b8ff" points="127.8,-709.05 118.26,-704.45 122.85,-714 127.8,-709.05"/>
</g>
<!-- Node43 -->
<g id="node43" class="node">
<title>Node43</title>
<g id="a_node43"><a xlink:href="../../db/d37/_newton_8h.html" target="_top" xlink:title=" ">
<polygon fill="white" stroke="#666666" points="320.5,-760 202.5,-760 202.5,-740 320.5,-740 320.5,-760"/>
<text text-anchor="middle" x="261.5" y="-747.2" font-family="Consolas" font-size="11.00">Solver/Newton.h</text>
</a>
</g>
</g>
<!-- Node1&#45;&gt;Node43 -->
<g id="edge58" class="edge">
<title>Node1&#45;&gt;Node43</title>
<path fill="none" stroke="#63b8ff" d="M498.8,-795.96C449.37,-786.6 372.11,-771.96 319.26,-761.94"/>
<polygon fill="#63b8ff" stroke="#63b8ff" points="319.84,-758.49 309.36,-760.07 318.53,-765.37 319.84,-758.49"/>
</g>
<!-- Node45 -->
<g id="node45" class="node">
<title>Node45</title>
<g id="a_node45"><a xlink:href="../../d4/d55/arpack_8h.html" target="_top" xlink:title=" ">
<polygon fill="white" stroke="#666666" points="1049,-412 924,-412 924,-392 1049,-392 1049,-412"/>
<text text-anchor="middle" x="986.5" y="-399.2" font-family="Consolas" font-size="11.00">Toolbox/arpack.h</text>
</a>
</g>
</g>
<!-- Node1&#45;&gt;Node45 -->
<g id="edge61" class="edge">
<title>Node1&#45;&gt;Node45</title>
<path fill="none" stroke="#63b8ff" d="M605.67,-801.56C719.87,-793.3 959.5,-767.35 959.5,-695 959.5,-695 959.5,-695 959.5,-519 959.5,-483.83 971.42,-444.2 979.42,-421.55"/>
<polygon fill="#63b8ff" stroke="#63b8ff" points="982.7,-422.75 982.86,-412.15 976.13,-420.34 982.7,-422.75"/>
</g>
<!-- Node3 -->
<g id="node3" class="node">
<title>Node3</title>
<g id="a_node3"><a xlink:href="../../d5/d33/_static_8h.html" target="_top" xlink:title=" ">
<polygon fill="white" stroke="#666666" points="678.5,-704 574.5,-704 574.5,-684 678.5,-684 678.5,-704"/>
<text text-anchor="middle" x="626.5" y="-691.2" font-family="Consolas" font-size="11.00">Step/Static.h</text>
</a>
</g>
</g>
<!-- Node2&#45;&gt;Node3 -->
<g id="edge2" class="edge">
<title>Node2&#45;&gt;Node3</title>
<path fill="none" stroke="#63b8ff" d="M619.89,-739.59C620.93,-732.63 622.37,-722.89 623.64,-714.29"/>
<polygon fill="#63b8ff" stroke="#63b8ff" points="627.12,-714.7 625.12,-704.3 620.19,-713.68 627.12,-714.7"/>
</g>
<!-- Node4 -->
<g id="node4" class="node">
<title>Node4</title>
<g id="a_node4"><a xlink:href="../../db/d88/_step_8h.html" target="_top" xlink:title=" ">
<polygon fill="white" stroke="#666666" points="672,-648 581,-648 581,-628 672,-628 672,-648"/>
<text text-anchor="middle" x="626.5" y="-635.2" font-family="Consolas" font-size="11.00">Step/Step.h</text>
</a>
</g>
</g>
<!-- Node3&#45;&gt;Node4 -->
<g id="edge3" class="edge">
<title>Node3&#45;&gt;Node4</title>
<path fill="none" stroke="#63b8ff" d="M626.5,-683.59C626.5,-676.7 626.5,-667.1 626.5,-658.57"/>
<polygon fill="#63b8ff" stroke="#63b8ff" points="630,-658.3 626.5,-648.3 623,-658.3 630,-658.3"/>
</g>
<!-- Node5 -->
<g id="node5" class="node">
<title>Node5</title>
<g id="a_node5"><a xlink:href="../../db/d65/_factory_8hpp.html" target="_top" xlink:title=" ">
<polygon fill="white" stroke="#666666" points="695.5,-592 557.5,-592 557.5,-572 695.5,-572 695.5,-592"/>
<text text-anchor="middle" x="626.5" y="-579.2" font-family="Consolas" font-size="11.00">Domain/Factory.hpp</text>
</a>
</g>
</g>
<!-- Node4&#45;&gt;Node5 -->
<g id="edge4" class="edge">
<title>Node4&#45;&gt;Node5</title>
<path fill="none" stroke="#63b8ff" d="M626.5,-627.59C626.5,-620.7 626.5,-611.1 626.5,-602.57"/>
<polygon fill="#63b8ff" stroke="#63b8ff" points="630,-602.3 626.5,-592.3 623,-602.3 630,-602.3"/>
</g>
<!-- Node36 -->
<g id="node36" class="node">
<title>Node36</title>
<g id="a_node36"><a xlink:href="../../d2/d4a/_tag_8h.html" target="_top" xlink:title=" ">
<polygon fill="white" stroke="#666666" points="359.5,-592 261.5,-592 261.5,-572 359.5,-572 359.5,-592"/>
<text text-anchor="middle" x="310.5" y="-579.2" font-family="Consolas" font-size="11.00">Domain/Tag.h</text>
</a>
</g>
</g>
<!-- Node4&#45;&gt;Node36 -->
<g id="edge43" class="edge">
<title>Node4&#45;&gt;Node36</title>
<path fill="none" stroke="#63b8ff" d="M580.89,-629.21C525.19,-619.69 430.87,-603.57 369.64,-593.11"/>
<polygon fill="#63b8ff" stroke="#63b8ff" points="370.19,-589.65 359.74,-591.41 369.01,-596.55 370.19,-589.65"/>
</g>
<!-- Node6 -->
<g id="node6" class="node">
<title>Node6</title>
<g id="a_node6"><a xlink:title=" ">
<polygon fill="#e0e0e0" stroke="#999999" points="591,-530 534,-530 534,-510 591,-510 591,-530"/>
<text text-anchor="middle" x="562.5" y="-517.2" font-family="Consolas" font-size="11.00">future</text>
</a>
</g>
</g>
<!-- Node5&#45;&gt;Node6 -->
<g id="edge5" class="edge">
<title>Node5&#45;&gt;Node6</title>
<path fill="none" stroke="#63b8ff" d="M616.78,-571.89C607.01,-562.72 591.73,-548.4 579.87,-537.28"/>
<polygon fill="#63b8ff" stroke="#63b8ff" points="582,-534.48 572.31,-530.2 577.21,-539.59 582,-534.48"/>
</g>
<!-- Node7 -->
<g id="node7" class="node">
<title>Node7</title>
<g id="a_node7"><a xlink:href="../../da/dcc/operator__times_8hpp.html" target="_top" xlink:title=" ">
<polygon fill="white" stroke="#666666" points="781.5,-536 609.5,-536 609.5,-504 781.5,-504 781.5,-536"/>
<text text-anchor="start" x="617.5" y="-523.2" font-family="Consolas" font-size="11.00">Domain/MetaMat/operator</text>
<text text-anchor="middle" x="695.5" y="-511.2" font-family="Consolas" font-size="11.00">_times.hpp</text>
</a>
</g>
</g>
<!-- Node5&#45;&gt;Node7 -->
<g id="edge6" class="edge">
<title>Node5&#45;&gt;Node7</title>
<path fill="none" stroke="#63b8ff" d="M636.98,-571.89C645.86,-564.16 658.96,-552.77 670.52,-542.72"/>
<polygon fill="#63b8ff" stroke="#63b8ff" points="672.95,-545.25 678.2,-536.04 668.36,-539.96 672.95,-545.25"/>
</g>
<!-- Node31 -->
<g id="node31" class="node">
<title>Node31</title>
<g id="a_node31"><a xlink:href="../../d4/ddd/container_8h.html" target="_top" xlink:title=" ">
<polygon fill="white" stroke="#666666" points="516,-530 371,-530 371,-510 516,-510 516,-530"/>
<text text-anchor="middle" x="443.5" y="-517.2" font-family="Consolas" font-size="11.00">Toolbox/container.h</text>
</a>
</g>
</g>
<!-- Node5&#45;&gt;Node31 -->
<g id="edge37" class="edge">
<title>Node5&#45;&gt;Node31</title>
<path fill="none" stroke="#63b8ff" d="M598.71,-571.89C567.22,-561.56 515.75,-544.69 480.79,-533.23"/>
<polygon fill="#63b8ff" stroke="#63b8ff" points="481.55,-529.79 470.96,-530 479.37,-536.44 481.55,-529.79"/>
</g>
<!-- Node8 -->
<g id="node8" class="node">
<title>Node8</title>
<g id="a_node8"><a xlink:href="../../d3/de0/_full_mat_8hpp.html" target="_top" xlink:title=" ">
<polygon fill="white" stroke="#666666" points="864,-468 773,-468 773,-448 864,-448 864,-468"/>
<text text-anchor="middle" x="818.5" y="-455.2" font-family="Consolas" font-size="11.00">FullMat.hpp</text>
</a>
</g>
</g>
<!-- Node7&#45;&gt;Node8 -->
<g id="edge7" class="edge">
<title>Node7&#45;&gt;Node8</title>
<path fill="none" stroke="#63b8ff" d="M726.54,-503.86C746.26,-494.24 771.58,-481.89 790.66,-472.58"/>
<polygon fill="#63b8ff" stroke="#63b8ff" points="792.28,-475.68 799.74,-468.15 789.21,-469.39 792.28,-475.68"/>
</g>
<!-- Node30 -->
<g id="node30" class="node">
<title>Node30</title>
<g id="a_node30"><a xlink:href="../../d0/d1a/_symm_pack_mat_8hpp.html" target="_top" xlink:title=" ">
<polygon fill="white" stroke="#666666" points="754.5,-468 636.5,-468 636.5,-448 754.5,-448 754.5,-468"/>
<text text-anchor="middle" x="695.5" y="-455.2" font-family="Consolas" font-size="11.00">SymmPackMat.hpp</text>
</a>
</g>
</g>
<!-- Node7&#45;&gt;Node30 -->
<g id="edge35" class="edge">
<title>Node7&#45;&gt;Node30</title>
<path fill="none" stroke="#63b8ff" d="M695.5,-503.86C695.5,-496.13 695.5,-486.63 695.5,-478.37"/>
<polygon fill="#63b8ff" stroke="#63b8ff" points="699,-478.15 695.5,-468.15 692,-478.15 699,-478.15"/>
</g>
<!-- Node9 -->
<g id="node9" class="node">
<title>Node9</title>
<g id="a_node9"><a xlink:href="../../de/d2a/_dense_mat_8hpp.html" target="_top" xlink:title=" ">
<polygon fill="white" stroke="#666666" points="744.5,-412 646.5,-412 646.5,-392 744.5,-392 744.5,-412"/>
<text text-anchor="middle" x="695.5" y="-399.2" font-family="Consolas" font-size="11.00">DenseMat.hpp</text>
</a>
</g>
</g>
<!-- Node8&#45;&gt;Node9 -->
<g id="edge8" class="edge">
<title>Node8&#45;&gt;Node9</title>
<path fill="none" stroke="#63b8ff" d="M797.91,-447.96C778.13,-439.28 748.02,-426.06 725.56,-416.2"/>
<polygon fill="#63b8ff" stroke="#63b8ff" points="726.72,-412.88 716.15,-412.07 723.9,-419.29 726.72,-412.88"/>
</g>
<!-- Node10 -->
<g id="node10" class="node">
<title>Node10</title>
<g id="a_node10"><a xlink:href="../../d3/d46/_meta_mat_8hpp.html" target="_top" xlink:title=" ">
<polygon fill="white" stroke="#666666" points="728,-356 637,-356 637,-336 728,-336 728,-356"/>
<text text-anchor="middle" x="682.5" y="-343.2" font-family="Consolas" font-size="11.00">MetaMat.hpp</text>
</a>
</g>
</g>
<!-- Node9&#45;&gt;Node10 -->
<g id="edge9" class="edge">
<title>Node9&#45;&gt;Node10</title>
<path fill="none" stroke="#63b8ff" d="M693.24,-391.59C691.56,-384.63 689.21,-374.89 687.14,-366.29"/>
<polygon fill="#63b8ff" stroke="#63b8ff" points="690.48,-365.2 684.74,-356.3 683.68,-366.84 690.48,-365.2"/>
</g>
<!-- Node11 -->
<g id="node11" class="node">
<title>Node11</title>
<g id="a_node11"><a xlink:href="../../df/df1/triplet__form_8hpp.html" target="_top" xlink:title=" ">
<polygon fill="white" stroke="#666666" points="789,-188 664,-188 664,-168 789,-168 789,-188"/>
<text text-anchor="middle" x="726.5" y="-175.2" font-family="Consolas" font-size="11.00">triplet_form.hpp</text>
</a>
</g>
</g>
<!-- Node10&#45;&gt;Node11 -->
<g id="edge10" class="edge">
<title>Node10&#45;&gt;Node11</title>
<path fill="none" stroke="#63b8ff" d="M728.03,-336.15C775.48,-324.24 847.45,-297.97 880.5,-244 902.7,-207.75 849.07,-191.7 799.13,-184.61"/>
<polygon fill="#63b8ff" stroke="#63b8ff" points="799.58,-181.14 789.21,-183.3 798.67,-188.08 799.58,-181.14"/>
</g>
<!-- Node23 -->
<g id="node23" class="node">
<title>Node23</title>
<g id="a_node23"><a xlink:href="../../df/d0c/_iterative_solver_8hpp.html" target="_top" xlink:title=" ">
<polygon fill="white" stroke="#666666" points="458,-300 313,-300 313,-280 458,-280 458,-300"/>
<text text-anchor="middle" x="385.5" y="-287.2" font-family="Consolas" font-size="11.00">IterativeSolver.hpp</text>
</a>
</g>
</g>
<!-- Node10&#45;&gt;Node23 -->
<g id="edge22" class="edge">
<title>Node10&#45;&gt;Node23</title>
<path fill="none" stroke="#63b8ff" d="M636.74,-336.68C585.25,-327.32 501.41,-312.07 444.9,-301.8"/>
<polygon fill="#63b8ff" stroke="#63b8ff" points="445.49,-298.35 435.02,-300 444.24,-305.24 445.49,-298.35"/>
</g>
<!-- Node26 -->
<g id="node26" class="node">
<title>Node26</title>
<g id="a_node26"><a xlink:href="../../db/d46/_i_l_u_8hpp.html" target="_top" xlink:title=" ">
<polygon fill="white" stroke="#666666" points="701.5,-300 637.5,-300 637.5,-280 701.5,-280 701.5,-300"/>
<text text-anchor="middle" x="669.5" y="-287.2" font-family="Consolas" font-size="11.00">ILU.hpp</text>
</a>
</g>
</g>
<!-- Node10&#45;&gt;Node26 -->
<g id="edge27" class="edge">
<title>Node10&#45;&gt;Node26</title>
<path fill="none" stroke="#63b8ff" d="M680.24,-335.59C678.56,-328.63 676.21,-318.89 674.14,-310.29"/>
<polygon fill="#63b8ff" stroke="#63b8ff" points="677.48,-309.2 671.74,-300.3 670.68,-310.84 677.48,-309.2"/>
</g>
<!-- Node29 -->
<g id="node29" class="node">
<title>Node29</title>
<g id="a_node29"><a xlink:href="../../dc/d70/_jacobi_8hpp.html" target="_top" xlink:title=" ">
<polygon fill="white" stroke="#666666" points="590.5,-300 506.5,-300 506.5,-280 590.5,-280 590.5,-300"/>
<text text-anchor="middle" x="548.5" y="-287.2" font-family="Consolas" font-size="11.00">Jacobi.hpp</text>
</a>
</g>
</g>
<!-- Node10&#45;&gt;Node29 -->
<g id="edge33" class="edge">
<title>Node10&#45;&gt;Node29</title>
<path fill="none" stroke="#63b8ff" d="M660.07,-335.96C638.33,-327.2 605.13,-313.82 580.6,-303.93"/>
<polygon fill="#63b8ff" stroke="#63b8ff" points="581.59,-300.56 571,-300.07 578.97,-307.05 581.59,-300.56"/>
</g>
<!-- Node12 -->
<g id="node12" class="node">
<title>Node12</title>
<g id="a_node12"><a xlink:href="../../d5/d47/utility_8h.html" target="_top" xlink:title=" ">
<polygon fill="white" stroke="#666666" points="451,-132 320,-132 320,-112 451,-112 451,-132"/>
<text text-anchor="middle" x="385.5" y="-119.2" font-family="Consolas" font-size="11.00">Toolbox/utility.h</text>
</a>
</g>
</g>
<!-- Node11&#45;&gt;Node12 -->
<g id="edge11" class="edge">
<title>Node11&#45;&gt;Node12</title>
<path fill="none" stroke="#63b8ff" d="M669.42,-167.96C609.58,-158.49 515.63,-143.61 452.36,-133.59"/>
<polygon fill="#63b8ff" stroke="#63b8ff" points="452.9,-130.13 442.48,-132.02 451.81,-137.04 452.9,-130.13"/>
</g>
<!-- Node22 -->
<g id="node22" class="node">
<title>Node22</title>
<g id="a_node22"><a xlink:title=" ">
<polygon fill="#e0e0e0" stroke="#999999" points="758.5,-132 694.5,-132 694.5,-112 758.5,-112 758.5,-132"/>
<text text-anchor="middle" x="726.5" y="-119.2" font-family="Consolas" font-size="11.00">numeric</text>
</a>
</g>
</g>
<!-- Node11&#45;&gt;Node22 -->
<g id="edge21" class="edge">
<title>Node11&#45;&gt;Node22</title>
<path fill="none" stroke="#63b8ff" d="M726.5,-167.59C726.5,-160.7 726.5,-151.1 726.5,-142.57"/>
<polygon fill="#63b8ff" stroke="#63b8ff" points="730,-142.3 726.5,-132.3 723,-142.3 730,-142.3"/>
</g>
<!-- Node13 -->
<g id="node13" class="node">
<title>Node13</title>
<g id="a_node13"><a xlink:title=" ">
<polygon fill="#e0e0e0" stroke="#999999" points="421,-76 350,-76 350,-56 421,-56 421,-76"/>
<text text-anchor="middle" x="385.5" y="-63.2" font-family="Consolas" font-size="11.00">concepts</text>
</a>
</g>
</g>
<!-- Node12&#45;&gt;Node13 -->
<g id="edge12" class="edge">
<title>Node12&#45;&gt;Node13</title>
<path fill="none" stroke="#63b8ff" d="M385.5,-111.59C385.5,-104.7 385.5,-95.1 385.5,-86.57"/>
<polygon fill="#63b8ff" stroke="#63b8ff" points="389,-86.3 385.5,-76.3 382,-86.3 389,-86.3"/>
</g>
<!-- Node14 -->
<g id="node14" class="node">
<title>Node14</title>
<g id="a_node14"><a xlink:href="../../d8/d8f/suan_pan_8h.html" target="_top" xlink:title=" ">
<polygon fill="white" stroke="#666666" points="517,-76 440,-76 440,-56 517,-56 517,-76"/>
<text text-anchor="middle" x="478.5" y="-63.2" font-family="Consolas" font-size="11.00">suanPan.h</text>
</a>
</g>
</g>
<!-- Node12&#45;&gt;Node14 -->
<g id="edge13" class="edge">
<title>Node12&#45;&gt;Node14</title>
<path fill="none" stroke="#63b8ff" d="M401.28,-111.84C415.79,-103.41 437.54,-90.78 454.26,-81.07"/>
<polygon fill="#63b8ff" stroke="#63b8ff" points="456.07,-84.07 462.96,-76.03 452.55,-78.02 456.07,-84.07"/>
</g>
<!-- Node15 -->
<g id="node15" class="node">
<title>Node15</title>
<g id="a_node15"><a xlink:title=" ">
<polygon fill="#e0e0e0" stroke="#999999" points="653,-20 582,-20 582,0 653,0 653,-20"/>
<text text-anchor="middle" x="617.5" y="-7.2" font-family="Consolas" font-size="11.00">iostream</text>
</a>
</g>
</g>
<!-- Node14&#45;&gt;Node15 -->
<g id="edge14" class="edge">
<title>Node14&#45;&gt;Node15</title>
<path fill="none" stroke="#63b8ff" d="M501.77,-55.96C524.42,-47.16 559.06,-33.7 584.54,-23.8"/>
<polygon fill="#63b8ff" stroke="#63b8ff" points="586.1,-26.95 594.16,-20.07 583.57,-20.43 586.1,-26.95"/>
</g>
<!-- Node16 -->
<g id="node16" class="node">
<title>Node16</title>
<g id="a_node16"><a xlink:title=" ">
<polygon fill="#e0e0e0" stroke="#999999" points="816,-20 671,-20 671,0 816,0 816,-20"/>
<text text-anchor="middle" x="743.5" y="-7.2" font-family="Consolas" font-size="11.00">armadillo/armadillo</text>
</a>
</g>
</g>
<!-- Node14&#45;&gt;Node16 -->
<g id="edge15" class="edge">
<title>Node14&#45;&gt;Node16</title>
<path fill="none" stroke="#63b8ff" d="M517.03,-57.15C562.39,-47.91 638,-32.5 689.26,-22.05"/>
<polygon fill="#63b8ff" stroke="#63b8ff" points="690.07,-25.46 699.17,-20.03 688.67,-18.6 690.07,-25.46"/>
</g>
<!-- Node17 -->
<g id="node17" class="node">
<title>Node17</title>
<g id="a_node17"><a xlink:title=" ">
<polygon fill="#e0e0e0" stroke="#999999" points="283.5,-20 199.5,-20 199.5,0 283.5,0 283.5,-20"/>
<text text-anchor="middle" x="241.5" y="-7.2" font-family="Consolas" font-size="11.00">filesystem</text>
</a>
</g>
</g>
<!-- Node14&#45;&gt;Node17 -->
<g id="edge16" class="edge">
<title>Node14&#45;&gt;Node17</title>
<path fill="none" stroke="#63b8ff" d="M439.89,-56.2C399.37,-46.97 335.52,-32.42 291.25,-22.33"/>
<polygon fill="#63b8ff" stroke="#63b8ff" points="291.8,-18.87 281.28,-20.06 290.25,-25.7 291.8,-18.87"/>
</g>
<!-- Node18 -->
<g id="node18" class="node">
<title>Node18</title>
<g id="a_node18"><a xlink:title=" ">
<polygon fill="#e0e0e0" stroke="#999999" points="393,-20 302,-20 302,0 393,0 393,-20"/>
<text text-anchor="middle" x="347.5" y="-7.2" font-family="Consolas" font-size="11.00">fmt/color.h</text>
</a>
</g>
</g>
<!-- Node14&#45;&gt;Node18 -->
<g id="edge17" class="edge">
<title>Node14&#45;&gt;Node18</title>
<path fill="none" stroke="#63b8ff" d="M456.57,-55.96C435.32,-47.2 402.86,-33.82 378.88,-23.93"/>
<polygon fill="#63b8ff" stroke="#63b8ff" points="380.08,-20.64 369.5,-20.07 377.41,-27.11 380.08,-20.64"/>
</g>
<!-- Node19 -->
<g id="node19" class="node">
<title>Node19</title>
<g id="a_node19"><a xlink:title=" ">
<polygon fill="#e0e0e0" stroke="#999999" points="461.5,-20 411.5,-20 411.5,0 461.5,0 461.5,-20"/>
<text text-anchor="middle" x="436.5" y="-7.2" font-family="Consolas" font-size="11.00">mutex</text>
</a>
</g>
</g>
<!-- Node14&#45;&gt;Node19 -->
<g id="edge18" class="edge">
<title>Node14&#45;&gt;Node19</title>
<path fill="none" stroke="#63b8ff" d="M471.18,-55.59C465.34,-48.08 457,-37.35 449.96,-28.3"/>
<polygon fill="#63b8ff" stroke="#63b8ff" points="452.63,-26.04 443.73,-20.3 447.11,-30.34 452.63,-26.04"/>
</g>
<!-- Node20 -->
<g id="node20" class="node">
<title>Node20</title>
<g id="a_node20"><a xlink:title=" ">
<polygon fill="#e0e0e0" stroke="#999999" points="563.5,-20 479.5,-20 479.5,0 563.5,0 563.5,-20"/>
<text text-anchor="middle" x="521.5" y="-7.2" font-family="Consolas" font-size="11.00">functional</text>
</a>
</g>
</g>
<!-- Node14&#45;&gt;Node20 -->
<g id="edge19" class="edge">
<title>Node14&#45;&gt;Node20</title>
<path fill="none" stroke="#63b8ff" d="M485.99,-55.59C491.97,-48.08 500.51,-37.35 507.72,-28.3"/>
<polygon fill="#63b8ff" stroke="#63b8ff" points="510.6,-30.3 514.1,-20.3 505.13,-25.94 510.6,-30.3"/>
</g>
<!-- Node21 -->
<g id="node21" class="node">
<title>Node21</title>
<g id="a_node21"><a xlink:title=" ">
<polygon fill="#e0e0e0" stroke="#999999" points="926,-20 869,-20 869,0 926,0 926,-20"/>
<text text-anchor="middle" x="897.5" y="-7.2" font-family="Consolas" font-size="11.00">memory</text>
</a>
</g>
</g>
<!-- Node14&#45;&gt;Node21 -->
<g id="edge20" class="edge">
<title>Node14&#45;&gt;Node21</title>
<path fill="none" stroke="#63b8ff" d="M517.17,-60.02C596.95,-49.73 779.02,-26.27 858.82,-15.99"/>
<polygon fill="#63b8ff" stroke="#63b8ff" points="859.46,-19.43 868.93,-14.68 858.56,-12.49 859.46,-19.43"/>
</g>
<!-- Node23&#45;&gt;Node12 -->
<g id="edge23" class="edge">
<title>Node23&#45;&gt;Node12</title>
<path fill="none" stroke="#63b8ff" d="M357.09,-279.99C340.31,-273.03 320.45,-261.57 310.5,-244 306.12,-236.26 307.71,-232.44 310.5,-224 321.84,-189.71 349.83,-157.57 368.22,-139.12"/>
<polygon fill="#63b8ff" stroke="#63b8ff" points="370.72,-141.57 375.44,-132.08 365.84,-136.55 370.72,-141.57"/>
</g>
<!-- Node24 -->
<g id="node24" class="node">
<title>Node24</title>
<g id="a_node24"><a xlink:href="../../d7/de3/_solver_setting_8hpp.html" target="_top" xlink:title=" ">
<polygon fill="white" stroke="#666666" points="451,-244 320,-244 320,-224 451,-224 451,-244"/>
<text text-anchor="middle" x="385.5" y="-231.2" font-family="Consolas" font-size="11.00">SolverSetting.hpp</text>
</a>
</g>
</g>
<!-- Node23&#45;&gt;Node24 -->
<g id="edge24" class="edge">
<title>Node23&#45;&gt;Node24</title>
<path fill="none" stroke="#63b8ff" d="M385.5,-279.59C385.5,-272.7 385.5,-263.1 385.5,-254.57"/>
<polygon fill="#63b8ff" stroke="#63b8ff" points="389,-254.3 385.5,-244.3 382,-254.3 389,-254.3"/>
</g>
<!-- Node25 -->
<g id="node25" class="node">
<title>Node25</title>
<g id="a_node25"><a xlink:href="../../d7/de4/_preconditioner_8hpp.html" target="_top" xlink:title=" ">
<polygon fill="white" stroke="#666666" points="548.5,-188 410.5,-188 410.5,-168 548.5,-168 548.5,-188"/>
<text text-anchor="middle" x="479.5" y="-175.2" font-family="Consolas" font-size="11.00">Preconditioner.hpp</text>
</a>
</g>
</g>
<!-- Node24&#45;&gt;Node25 -->
<g id="edge25" class="edge">
<title>Node24&#45;&gt;Node25</title>
<path fill="none" stroke="#63b8ff" d="M401.45,-223.84C416.12,-215.41 438.1,-202.78 455,-193.07"/>
<polygon fill="#63b8ff" stroke="#63b8ff" points="456.86,-196.04 463.79,-188.03 453.38,-189.97 456.86,-196.04"/>
</g>
<!-- Node25&#45;&gt;Node14 -->
<g id="edge26" class="edge">
<title>Node25&#45;&gt;Node14</title>
<path fill="none" stroke="#63b8ff" d="M479.42,-168C479.26,-150.19 478.89,-110.12 478.67,-86.15"/>
<polygon fill="#63b8ff" stroke="#63b8ff" points="482.17,-86.09 478.58,-76.13 475.17,-86.16 482.17,-86.09"/>
</g>
<!-- Node26&#45;&gt;Node11 -->
<g id="edge32" class="edge">
<title>Node26&#45;&gt;Node11</title>
<path fill="none" stroke="#63b8ff" d="M637.35,-281.05C602.45,-270.84 554.23,-251.14 574.5,-224 592.99,-199.24 624.51,-187.54 654.07,-182.21"/>
<polygon fill="#63b8ff" stroke="#63b8ff" points="654.67,-185.66 664,-180.64 653.58,-178.75 654.67,-185.66"/>
</g>
<!-- Node26&#45;&gt;Node25 -->
<g id="edge29" class="edge">
<title>Node26&#45;&gt;Node25</title>
<path fill="none" stroke="#63b8ff" d="M643.89,-279.89C622.32,-271.76 590.99,-258.86 565.5,-244 540.58,-229.47 514.49,-208.88 497.68,-194.78"/>
<polygon fill="#63b8ff" stroke="#63b8ff" points="499.67,-191.89 489.78,-188.08 495.14,-197.22 499.67,-191.89"/>
</g>
<!-- Node27 -->
<g id="node27" class="node">
<title>Node27</title>
<g id="a_node27"><a xlink:title=" ">
<polygon fill="#e0e0e0" stroke="#999999" points="755.5,-244 583.5,-244 583.5,-224 755.5,-224 755.5,-244"/>
<text text-anchor="middle" x="669.5" y="-231.2" font-family="Consolas" font-size="11.00">superlu&#45;mt/superlu&#45;mt.h</text>
</a>
</g>
</g>
<!-- Node26&#45;&gt;Node27 -->
<g id="edge28" class="edge">
<title>Node26&#45;&gt;Node27</title>
<path fill="none" stroke="#63b8ff" d="M669.5,-279.59C669.5,-272.7 669.5,-263.1 669.5,-254.57"/>
<polygon fill="#63b8ff" stroke="#63b8ff" points="673,-254.3 669.5,-244.3 666,-254.3 673,-254.3"/>
</g>
<!-- Node28 -->
<g id="node28" class="node">
<title>Node28</title>
<g id="a_node28"><a xlink:href="../../d6/dc3/csc__form_8hpp.html" target="_top" xlink:title=" ">
<polygon fill="white" stroke="#666666" points="871.5,-244 773.5,-244 773.5,-224 871.5,-224 871.5,-244"/>
<text text-anchor="middle" x="822.5" y="-231.2" font-family="Consolas" font-size="11.00">csc_form.hpp</text>
</a>
</g>
</g>
<!-- Node26&#45;&gt;Node28 -->
<g id="edge30" class="edge">
<title>Node26&#45;&gt;Node28</title>
<path fill="none" stroke="#63b8ff" d="M695.11,-279.96C720.37,-271.04 759.19,-257.34 787.34,-247.41"/>
<polygon fill="#63b8ff" stroke="#63b8ff" points="788.54,-250.7 796.81,-244.07 786.21,-244.1 788.54,-250.7"/>
</g>
<!-- Node28&#45;&gt;Node11 -->
<g id="edge31" class="edge">
<title>Node28&#45;&gt;Node11</title>
<path fill="none" stroke="#63b8ff" d="M806.21,-223.84C791.23,-215.41 768.78,-202.78 751.52,-193.07"/>
<polygon fill="#63b8ff" stroke="#63b8ff" points="752.98,-189.88 742.54,-188.03 749.54,-195.98 752.98,-189.88"/>
</g>
<!-- Node29&#45;&gt;Node25 -->
<g id="edge34" class="edge">
<title>Node29&#45;&gt;Node25</title>
<path fill="none" stroke="#63b8ff" d="M536.74,-279.76C526.72,-271.36 512.56,-258.14 503.5,-244 494.39,-229.77 488.05,-211.59 484.19,-198.08"/>
<polygon fill="#63b8ff" stroke="#63b8ff" points="487.57,-197.17 481.61,-188.4 480.8,-198.97 487.57,-197.17"/>
</g>
<!-- Node30&#45;&gt;Node9 -->
<g id="edge36" class="edge">
<title>Node30&#45;&gt;Node9</title>
<path fill="none" stroke="#63b8ff" d="M695.5,-447.59C695.5,-440.7 695.5,-431.1 695.5,-422.57"/>
<polygon fill="#63b8ff" stroke="#63b8ff" points="699,-422.3 695.5,-412.3 692,-422.3 699,-422.3"/>
</g>
<!-- Node31&#45;&gt;Node14 -->
<g id="edge38" class="edge">
<title>Node31&#45;&gt;Node14</title>
<path fill="none" stroke="#63b8ff" d="M370.9,-513.19C336.95,-506.89 298.39,-494.03 272.5,-468 251.28,-446.66 253.5,-433.1 253.5,-403 253.5,-403 253.5,-403 253.5,-177 253.5,-138.58 277.87,-132.29 310.5,-112 330.38,-99.64 387.82,-85.74 430.02,-76.7"/>
<polygon fill="#63b8ff" stroke="#63b8ff" points="430.79,-80.12 439.85,-74.63 429.34,-73.27 430.79,-80.12"/>
</g>
<!-- Node32 -->
<g id="node32" class="node">
<title>Node32</title>
<g id="a_node32"><a xlink:title=" ">
<polygon fill="#e0e0e0" stroke="#999999" points="319,-468 282,-468 282,-448 319,-448 319,-468"/>
<text text-anchor="middle" x="300.5" y="-455.2" font-family="Consolas" font-size="11.00">set</text>
</a>
</g>
</g>
<!-- Node31&#45;&gt;Node32 -->
<g id="edge39" class="edge">
<title>Node31&#45;&gt;Node32</title>
<path fill="none" stroke="#63b8ff" d="M421.78,-509.89C396.87,-499.43 355.95,-482.27 328.62,-470.8"/>
<polygon fill="#63b8ff" stroke="#63b8ff" points="329.8,-467.5 319.22,-466.86 327.09,-473.95 329.8,-467.5"/>
</g>
<!-- Node33 -->
<g id="node33" class="node">
<title>Node33</title>
<g id="a_node33"><a xlink:title=" ">
<polygon fill="#e0e0e0" stroke="#999999" points="374,-468 337,-468 337,-448 374,-448 374,-468"/>
<text text-anchor="middle" x="355.5" y="-455.2" font-family="Consolas" font-size="11.00">map</text>
</a>
</g>
</g>
<!-- Node31&#45;&gt;Node33 -->
<g id="edge40" class="edge">
<title>Node31&#45;&gt;Node33</title>
<path fill="none" stroke="#63b8ff" d="M430.13,-509.89C416.1,-500.32 393.8,-485.12 377.23,-473.82"/>
<polygon fill="#63b8ff" stroke="#63b8ff" points="378.94,-470.74 368.7,-468 374.99,-476.53 378.94,-470.74"/>
</g>
<!-- Node34 -->
<g id="node34" class="node">
<title>Node34</title>
<g id="a_node34"><a xlink:title=" ">
<polygon fill="#e0e0e0" stroke="#999999" points="496.5,-468 392.5,-468 392.5,-448 496.5,-448 496.5,-468"/>
<text text-anchor="middle" x="444.5" y="-455.2" font-family="Consolas" font-size="11.00">unordered_set</text>
</a>
</g>
</g>
<!-- Node31&#45;&gt;Node34 -->
<g id="edge41" class="edge">
<title>Node31&#45;&gt;Node34</title>
<path fill="none" stroke="#63b8ff" d="M443.65,-509.89C443.79,-501.52 444,-488.84 444.18,-478.23"/>
<polygon fill="#63b8ff" stroke="#63b8ff" points="447.68,-478.26 444.35,-468.2 440.68,-478.14 447.68,-478.26"/>
</g>
<!-- Node35 -->
<g id="node35" class="node">
<title>Node35</title>
<g id="a_node35"><a xlink:title=" ">
<polygon fill="#e0e0e0" stroke="#999999" points="618.5,-468 514.5,-468 514.5,-448 618.5,-448 618.5,-468"/>
<text text-anchor="middle" x="566.5" y="-455.2" font-family="Consolas" font-size="11.00">unordered_map</text>
</a>
</g>
</g>
<!-- Node31&#45;&gt;Node35 -->
<g id="edge42" class="edge">
<title>Node31&#45;&gt;Node35</title>
<path fill="none" stroke="#63b8ff" d="M462.18,-509.89C482.62,-499.92 515.58,-483.84 538.98,-472.43"/>
<polygon fill="#63b8ff" stroke="#63b8ff" points="540.59,-475.53 548.05,-468 537.52,-469.24 540.59,-475.53"/>
</g>
<!-- Node36&#45;&gt;Node14 -->
<g id="edge44" class="edge">
<title>Node36&#45;&gt;Node14</title>
<path fill="none" stroke="#63b8ff" d="M296.07,-571.88C269.5,-553.84 215.5,-510.81 215.5,-459 215.5,-459 215.5,-459 215.5,-177 215.5,-137.98 240.75,-131.57 274.5,-112 287.87,-104.25 373.82,-86.88 429.81,-76.13"/>
<polygon fill="#63b8ff" stroke="#63b8ff" points="430.72,-79.52 439.89,-74.2 429.41,-72.64 430.72,-79.52"/>
</g>
<!-- Node38 -->
<g id="node38" class="node">
<title>Node38</title>
<g id="a_node38"><a xlink:href="../../d8/d9d/_converger_8h.html" target="_top" xlink:title=" ">
<polygon fill="white" stroke="#666666" points="400,-648 309,-648 309,-628 400,-628 400,-648"/>
<text text-anchor="middle" x="354.5" y="-635.2" font-family="Consolas" font-size="11.00">Converger.h</text>
</a>
</g>
</g>
<!-- Node37&#45;&gt;Node38 -->
<g id="edge46" class="edge">
<title>Node37&#45;&gt;Node38</title>
<path fill="none" stroke="#63b8ff" d="M422.44,-740C410.19,-721.79 382.28,-680.3 366.31,-656.55"/>
<polygon fill="#63b8ff" stroke="#63b8ff" points="369.13,-654.47 360.64,-648.13 363.32,-658.38 369.13,-654.47"/>
</g>
<!-- Node38&#45;&gt;Node36 -->
<g id="edge47" class="edge">
<title>Node38&#45;&gt;Node36</title>
<path fill="none" stroke="#63b8ff" d="M346.84,-627.59C340.72,-620.08 331.97,-609.35 324.6,-600.3"/>
<polygon fill="#63b8ff" stroke="#63b8ff" points="327.11,-597.84 318.08,-592.3 321.68,-602.26 327.11,-597.84"/>
</g>
<!-- Node39&#45;&gt;Node6 -->
<g id="edge49" class="edge">
<title>Node39&#45;&gt;Node6</title>
<path fill="none" stroke="#63b8ff" d="M496.15,-627.9C508.08,-608.67 536.04,-563.63 551.59,-538.58"/>
<polygon fill="#63b8ff" stroke="#63b8ff" points="554.58,-540.4 556.88,-530.06 548.63,-536.71 554.58,-540.4"/>
</g>
<!-- Node39&#45;&gt;Node31 -->
<g id="edge51" class="edge">
<title>Node39&#45;&gt;Node31</title>
<path fill="none" stroke="#63b8ff" d="M486.81,-627.9C479.12,-608.92 461.25,-564.82 451.03,-539.59"/>
<polygon fill="#63b8ff" stroke="#63b8ff" points="454.17,-538.01 447.17,-530.06 447.68,-540.64 454.17,-538.01"/>
</g>
<!-- Node39&#45;&gt;Node36 -->
<g id="edge50" class="edge">
<title>Node39&#45;&gt;Node36</title>
<path fill="none" stroke="#63b8ff" d="M460.37,-627.96C430.26,-618.93 383.78,-604.99 350.57,-595.02"/>
<polygon fill="#63b8ff" stroke="#63b8ff" points="351.31,-591.59 340.73,-592.07 349.3,-598.29 351.31,-591.59"/>
</g>
<!-- Node40&#45;&gt;Node5 -->
<g id="edge54" class="edge">
<title>Node40&#45;&gt;Node5</title>
<path fill="none" stroke="#63b8ff" d="M753.89,-627.96C728.63,-619.04 689.81,-605.34 661.66,-595.41"/>
<polygon fill="#63b8ff" stroke="#63b8ff" points="662.79,-592.1 652.19,-592.07 660.46,-598.7 662.79,-592.1"/>
</g>
<!-- Node40&#45;&gt;Node14 -->
<g id="edge53" class="edge">
<title>Node40&#45;&gt;Node14</title>
<path fill="none" stroke="#63b8ff" d="M799.97,-628C833.27,-611.81 895.5,-574.4 895.5,-521 895.5,-521 895.5,-521 895.5,-457 895.5,-356.58 937.5,-335.42 937.5,-235 937.5,-235 937.5,-235 937.5,-177 937.5,-93.38 645.77,-73.18 527.46,-68.42"/>
<polygon fill="#63b8ff" stroke="#63b8ff" points="527.36,-64.91 517.24,-68.03 527.1,-71.91 527.36,-64.91"/>
</g>
<!-- Node41 -->
<g id="node41" class="node">
<title>Node41</title>
<g id="a_node41"><a xlink:title=" ">
<polygon fill="#e0e0e0" stroke="#999999" points="838.5,-592 720.5,-592 720.5,-572 838.5,-572 838.5,-592"/>
<text text-anchor="middle" x="779.5" y="-579.2" font-family="Consolas" font-size="11.00">MetaMat/MetaMat</text>
</a>
</g>
</g>
<!-- Node40&#45;&gt;Node41 -->
<g id="edge55" class="edge">
<title>Node40&#45;&gt;Node41</title>
<path fill="none" stroke="#63b8ff" d="M779.5,-627.59C779.5,-620.7 779.5,-611.1 779.5,-602.57"/>
<polygon fill="#63b8ff" stroke="#63b8ff" points="783,-602.3 779.5,-592.3 776,-602.3 783,-602.3"/>
</g>
<!-- Node42&#45;&gt;Node36 -->
<g id="edge57" class="edge">
<title>Node42&#45;&gt;Node36</title>
<path fill="none" stroke="#63b8ff" d="M125.95,-684C160.92,-664.86 242.86,-620.02 284.79,-597.07"/>
<polygon fill="#63b8ff" stroke="#63b8ff" points="286.73,-600 293.82,-592.13 283.37,-593.86 286.73,-600"/>
</g>
<!-- Node44 -->
<g id="node44" class="node">
<title>Node44</title>
<g id="a_node44"><a xlink:href="../../d5/d4d/_solver_8h.html" target="_top" xlink:title=" ">
<polygon fill="white" stroke="#666666" points="355.5,-704 237.5,-704 237.5,-684 355.5,-684 355.5,-704"/>
<text text-anchor="middle" x="296.5" y="-691.2" font-family="Consolas" font-size="11.00">Solver/Solver.h</text>
</a>
</g>
</g>
<!-- Node43&#45;&gt;Node44 -->
<g id="edge59" class="edge">
<title>Node43&#45;&gt;Node44</title>
<path fill="none" stroke="#63b8ff" d="M267.6,-739.59C272.36,-732.24 279.13,-721.8 284.92,-712.87"/>
<polygon fill="#63b8ff" stroke="#63b8ff" points="287.97,-714.59 290.47,-704.3 282.1,-710.79 287.97,-714.59"/>
</g>
<!-- Node44&#45;&gt;Node36 -->
<g id="edge60" class="edge">
<title>Node44&#45;&gt;Node36</title>
<path fill="none" stroke="#63b8ff" d="M296.37,-683.69C296.31,-671.02 296.67,-647.68 299.5,-628 300.74,-619.35 302.91,-609.94 305,-601.97"/>
<polygon fill="#63b8ff" stroke="#63b8ff" points="308.41,-602.78 307.69,-592.21 301.66,-600.91 308.41,-602.78"/>
</g>
<!-- Node45&#45;&gt;Node10 -->
<g id="edge62" class="edge">
<title>Node45&#45;&gt;Node10</title>
<path fill="none" stroke="#63b8ff" d="M935.62,-391.96C881.04,-382.27 794.63,-366.92 738.24,-356.9"/>
<polygon fill="#63b8ff" stroke="#63b8ff" points="738.54,-353.4 728.08,-355.1 737.31,-360.29 738.54,-353.4"/>
</g>
<!-- Node45&#45;&gt;Node21 -->
<g id="edge63" class="edge">
<title>Node45&#45;&gt;Node21</title>
<path fill="none" stroke="#63b8ff" d="M984.97,-391.9C981.95,-373.11 975.5,-328.62 975.5,-291 975.5,-291 975.5,-291 975.5,-121 975.5,-81.18 941.06,-45.71 917.95,-26.39"/>
<polygon fill="#63b8ff" stroke="#63b8ff" points="920.02,-23.56 910.03,-20.03 915.63,-29.02 920.02,-23.56"/>
</g>
</g>
</svg>
