<?xml version="1.0" encoding="UTF-8" standalone="no"?>
<!DOCTYPE svg PUBLIC "-//W3C//DTD SVG 1.1//EN"
 "http://www.w3.org/Graphics/SVG/1.1/DTD/svg11.dtd">
<!-- Generated by graphviz version 9.0.0 (20230911.1827)
 -->
<!-- Title: DataViscosity02 Pages: 1 -->
<svg width="108pt" height="256pt"
 viewBox="0.00 0.00 108.00 256.00" xmlns="http://www.w3.org/2000/svg" xmlns:xlink="http://www.w3.org/1999/xlink">

<svg id="main" version="1.1" xmlns="http://www.w3.org/2000/svg" xmlns:xlink="http://www.w3.org/1999/xlink" xml:space="preserve" onload="init(evt)">
<style type="text/css"><![CDATA[
.node, .edge {opacity: 0.7;}
.node.selected, .edge.selected {opacity: 1;}
.edge:hover path { stroke: red; }
.edge:hover polygon { stroke: red; fill: red; }
]]></style>
<script type="application/ecmascript" xlink:href="../../svg.min.js"/>
<svg id="graph" class="graph">
<g id="graph0" class="graph" transform="scale(1 1) rotate(0) translate(4 252)">
<title>DataViscosity02</title>
<!-- Node1 -->
<g id="Node000001" class="node">
<title>Node1</title>
<g id="a_Node000001"><a xlink:title=" ">
<polygon fill="#999999" stroke="none" points="100,-248 0,-248 0,-108 100,-108 100,-248"/>
<text text-anchor="start" x="5" y="-233.55" font-family="Consolas" font-size="11.00">DataViscosity02</text>
<text text-anchor="start" x="11" y="-216.55" font-family="Consolas" font-size="11.00">+</text>
<text text-anchor="start" x="28" y="-216.55" font-family="Consolas" font-size="11.00">damping_a</text>
<text text-anchor="start" x="11" y="-199.55" font-family="Consolas" font-size="11.00">+</text>
<text text-anchor="start" x="28" y="-199.55" font-family="Consolas" font-size="11.00">damping_b</text>
<text text-anchor="start" x="11" y="-182.55" font-family="Consolas" font-size="11.00">+</text>
<text text-anchor="start" x="28" y="-182.55" font-family="Consolas" font-size="11.00">damping_c</text>
<text text-anchor="start" x="11" y="-165.55" font-family="Consolas" font-size="11.00">+</text>
<text text-anchor="start" x="28" y="-165.55" font-family="Consolas" font-size="11.00">damping_d</text>
<text text-anchor="start" x="11" y="-148.55" font-family="Consolas" font-size="11.00">+</text>
<text text-anchor="start" x="28" y="-148.55" font-family="Consolas" font-size="11.00">gap_a</text>
<text text-anchor="start" x="11" y="-131.55" font-family="Consolas" font-size="11.00">+</text>
<text text-anchor="start" x="28" y="-131.55" font-family="Consolas" font-size="11.00">gap_b</text>
<text text-anchor="start" x="47" y="-114.55" font-family="Consolas" font-size="11.00"> </text>
<polygon fill="#666666" stroke="#666666" points="0,-229 0,-229 100,-229 100,-229 0,-229"/>
<polygon fill="#666666" stroke="#666666" points="0,-127 0,-127 26,-127 26,-127 0,-127"/>
<polygon fill="#666666" stroke="#666666" points="26,-127 26,-127 100,-127 100,-127 26,-127"/>
<polygon fill="none" stroke="#666666" points="0,-108 0,-248 100,-248 100,-108 0,-108"/>
</a>
</g>
</g>
<!-- Node2 -->
<g id="Node000002" class="node">
<title>Node2</title>
<g id="a_Node000002"><a xlink:href="../../d9/d53/class_viscosity02.html" target="_top" xlink:title="A 1D Viscosity class.">
<polygon fill="white" stroke="none" points="98,-72 2,-72 2,0 98,0 98,-72"/>
<text text-anchor="start" x="17" y="-57.55" font-family="Consolas" font-size="11.00">Viscosity02</text>
<text text-anchor="start" x="47" y="-40.55" font-family="Consolas" font-size="11.00"> </text>
<text text-anchor="start" x="6" y="-23.55" font-family="Consolas" font-size="11.00">+</text>
<text text-anchor="start" x="16" y="-23.55" font-family="Consolas" font-size="11.00">Viscosity02()</text>
<text text-anchor="start" x="6" y="-6.55" font-family="Consolas" font-size="11.00">+</text>
<text text-anchor="start" x="16" y="-6.55" font-family="Consolas" font-size="11.00">get_copy()</text>
<polygon fill="#666666" stroke="#666666" points="2,-53 2,-53 98,-53 98,-53 2,-53"/>
<polygon fill="#666666" stroke="#666666" points="2,-36 2,-36 98,-36 98,-36 2,-36"/>
<polygon fill="none" stroke="#666666" points="2,0 2,-72 98,-72 98,0 2,0"/>
</a>
</g>
</g>
<!-- Node1&#45;&gt;Node2 -->
<g id="edge1_Node000001_Node000002" class="edge">
<title>Node1&#45;&gt;Node2</title>
<g id="a_edge1_Node000001_Node000002"><a xlink:title=" ">
<path fill="none" stroke="darkgreen" d="M50,-96.76C50,-88.09 50,-79.64 50,-71.94"/>
<polygon fill="none" stroke="darkgreen" points="46.5,-96.72 50,-106.72 53.5,-96.72 46.5,-96.72"/>
</a>
</g>
</g>
</g>
</svg>
</svg>

<style type='text/css'>
<![CDATA[
[data-mouse-over-selected='false'] { opacity: 0.7; }
[data-mouse-over-selected='true']  { opacity: 1.0; }
]]>
</style>
<script type="application/ecmascript"><![CDATA[
document.addEventListener('DOMContentLoaded', (event) => {
  highlightEdges();
  highlightAdjacentNodes();
});
]]></script>
</svg>
