<?xml version="1.0" encoding="UTF-8" standalone="no"?>
<!DOCTYPE svg PUBLIC "-//W3C//DTD SVG 1.1//EN"
 "http://www.w3.org/Graphics/SVG/1.1/DTD/svg11.dtd">
<!-- Generated by graphviz version 9.0.0 (20230911.1827)
 -->
<!-- Title: BSplineVolume Pages: 1 -->
<svg width="491pt" height="613pt"
 viewBox="0.00 0.00 491.00 613.00" xmlns="http://www.w3.org/2000/svg" xmlns:xlink="http://www.w3.org/1999/xlink">
<g id="graph0" class="graph" transform="scale(1 1) rotate(0) translate(4 609)">
<title>BSplineVolume</title>
<!-- Node1 -->
<g id="Node000001" class="node">
<title>Node1</title>
<g id="a_Node000001"><a xlink:title=" ">
<polygon fill="#999999" stroke="none" points="273,-605 123,-605 123,-298 273,-298 273,-605"/>
<text text-anchor="start" x="159" y="-590.55" font-family="Consolas" font-size="11.00">BSplineVolume</text>
<text text-anchor="start" x="127" y="-573.55" font-family="Consolas" font-size="11.00">#</text>
<text text-anchor="start" x="137" y="-573.55" font-family="Consolas" font-size="11.00">dimension</text>
<text text-anchor="start" x="127" y="-556.55" font-family="Consolas" font-size="11.00">#</text>
<text text-anchor="start" x="137" y="-556.55" font-family="Consolas" font-size="11.00">net</text>
<text text-anchor="start" x="127" y="-539.55" font-family="Consolas" font-size="11.00">#</text>
<text text-anchor="start" x="137" y="-539.55" font-family="Consolas" font-size="11.00">line_u</text>
<text text-anchor="start" x="127" y="-522.55" font-family="Consolas" font-size="11.00">#</text>
<text text-anchor="start" x="137" y="-522.55" font-family="Consolas" font-size="11.00">line_v</text>
<text text-anchor="start" x="127" y="-505.55" font-family="Consolas" font-size="11.00">#</text>
<text text-anchor="start" x="137" y="-505.55" font-family="Consolas" font-size="11.00">line_w</text>
<text text-anchor="start" x="127" y="-488.55" font-family="Consolas" font-size="11.00">+</text>
<text text-anchor="start" x="137" y="-488.55" font-family="Consolas" font-size="11.00">BSplineVolume()</text>
<text text-anchor="start" x="127" y="-471.55" font-family="Consolas" font-size="11.00">+</text>
<text text-anchor="start" x="137" y="-471.55" font-family="Consolas" font-size="11.00">BSplineVolume()</text>
<text text-anchor="start" x="127" y="-454.55" font-family="Consolas" font-size="11.00">+</text>
<text text-anchor="start" x="137" y="-454.55" font-family="Consolas" font-size="11.00">BSplineVolume()</text>
<text text-anchor="start" x="127" y="-437.55" font-family="Consolas" font-size="11.00">+</text>
<text text-anchor="start" x="137" y="-437.55" font-family="Consolas" font-size="11.00">operator=()</text>
<text text-anchor="start" x="127" y="-420.55" font-family="Consolas" font-size="11.00">+</text>
<text text-anchor="start" x="137" y="-420.55" font-family="Consolas" font-size="11.00">operator=()</text>
<text text-anchor="start" x="127" y="-403.55" font-family="Consolas" font-size="11.00">+</text>
<text text-anchor="start" x="137" y="-403.55" font-family="Consolas" font-size="11.00">~BSplineVolume()</text>
<text text-anchor="start" x="127" y="-386.55" font-family="Consolas" font-size="11.00">+</text>
<text text-anchor="start" x="137" y="-386.55" font-family="Consolas" font-size="11.00">set_control_polygon()</text>
<text text-anchor="start" x="127" y="-369.55" font-family="Consolas" font-size="11.00">+</text>
<text text-anchor="start" x="137" y="-369.55" font-family="Consolas" font-size="11.00">set_control_polygon()</text>
<text text-anchor="start" x="127" y="-352.55" font-family="Consolas" font-size="11.00">+</text>
<text text-anchor="start" x="137" y="-352.55" font-family="Consolas" font-size="11.00">get_all_element_span()</text>
<text text-anchor="start" x="127" y="-335.55" font-family="Consolas" font-size="11.00">+</text>
<text text-anchor="start" x="137" y="-335.55" font-family="Consolas" font-size="11.00">get_number_of_control</text>
<text text-anchor="start" x="137" y="-322.05" font-family="Consolas" font-size="11.00">_points()</text>
<text text-anchor="start" x="137" y="-304.55" font-family="Consolas" font-size="11.00">and 8 more...</text>
<polygon fill="#666666" stroke="#666666" points="123,-586 123,-586 273,-586 273,-586 123,-586"/>
<polygon fill="#666666" stroke="#666666" points="123,-501 123,-501 135,-501 135,-501 123,-501"/>
<polygon fill="#666666" stroke="#666666" points="135,-501 135,-501 273,-501 273,-501 135,-501"/>
<polygon fill="none" stroke="#666666" points="123,-298 123,-605 273,-605 273,-298 123,-298"/>
</a>
</g>
</g>
<!-- Node2 -->
<g id="Node000002" class="node">
<title>Node2</title>
<g id="a_Node000002"><a xlink:href="../../dd/d89/class_b_spline_volume3_d.html" target="_top" xlink:title=" ">
<polygon fill="white" stroke="none" points="120,-204 0,-204 0,-149 120,-149 120,-204"/>
<text text-anchor="start" x="15" y="-189.55" font-family="Consolas" font-size="11.00">BSplineVolume3D</text>
<text text-anchor="start" x="57" y="-172.55" font-family="Consolas" font-size="11.00"> </text>
<text text-anchor="start" x="4" y="-155.55" font-family="Consolas" font-size="11.00">+</text>
<text text-anchor="start" x="14" y="-155.55" font-family="Consolas" font-size="11.00">BSplineVolume3D()</text>
<polygon fill="#666666" stroke="#666666" points="0,-185 0,-185 120,-185 120,-185 0,-185"/>
<polygon fill="#666666" stroke="#666666" points="0,-168 0,-168 120,-168 120,-168 0,-168"/>
<polygon fill="none" stroke="#666666" points="0,-149 0,-204 120,-204 120,-149 0,-149"/>
</a>
</g>
</g>
<!-- Node1&#45;&gt;Node2 -->
<g id="edge1_Node000001_Node000002" class="edge">
<title>Node1&#45;&gt;Node2</title>
<g id="a_edge1_Node000001_Node000002"><a xlink:title=" ">
<path fill="none" stroke="#63b8ff" d="M117.97,-292.18C100.58,-257.79 84.16,-225.29 73.26,-203.73"/>
<polygon fill="none" stroke="#63b8ff" points="114.83,-293.72 122.46,-301.06 121.07,-290.56 114.83,-293.72"/>
</a>
</g>
</g>
<!-- Node3 -->
<g id="Node000003" class="node">
<title>Node3</title>
<g id="a_Node000003"><a xlink:href="../../db/d28/class_b_spline_volume4_d.html" target="_top" xlink:title=" ">
<polygon fill="white" stroke="none" points="258,-204 138,-204 138,-149 258,-149 258,-204"/>
<text text-anchor="start" x="153" y="-189.55" font-family="Consolas" font-size="11.00">BSplineVolume4D</text>
<text text-anchor="start" x="195" y="-172.55" font-family="Consolas" font-size="11.00"> </text>
<text text-anchor="start" x="142" y="-155.55" font-family="Consolas" font-size="11.00">+</text>
<text text-anchor="start" x="152" y="-155.55" font-family="Consolas" font-size="11.00">BSplineVolume4D()</text>
<polygon fill="#666666" stroke="#666666" points="138,-185 138,-185 258,-185 258,-185 138,-185"/>
<polygon fill="#666666" stroke="#666666" points="138,-168 138,-168 258,-168 258,-168 138,-168"/>
<polygon fill="none" stroke="#666666" points="138,-149 138,-204 258,-204 258,-149 138,-149"/>
</a>
</g>
</g>
<!-- Node1&#45;&gt;Node3 -->
<g id="edge2_Node000001_Node000003" class="edge">
<title>Node1&#45;&gt;Node3</title>
<g id="a_edge2_Node000001_Node000003"><a xlink:title=" ">
<path fill="none" stroke="#63b8ff" d="M198,-286.58C198,-254.42 198,-224.38 198,-203.99"/>
<polygon fill="none" stroke="#63b8ff" points="194.5,-286.52 198,-296.52 201.5,-286.52 194.5,-286.52"/>
</a>
</g>
</g>
<!-- Node4 -->
<g id="Node000004" class="node">
<title>Node4</title>
<g id="a_Node000004"><a xlink:href="../../dd/dc6/class_n_u_r_b_s_volume.html" target="_top" xlink:title=" ">
<polygon fill="white" stroke="none" points="456,-262 276,-262 276,-91 456,-91 456,-262"/>
<text text-anchor="start" x="333" y="-247.55" font-family="Consolas" font-size="11.00">NURBSVolume</text>
<text text-anchor="start" x="363" y="-230.55" font-family="Consolas" font-size="11.00"> </text>
<text text-anchor="start" x="280" y="-213.55" font-family="Consolas" font-size="11.00">+</text>
<text text-anchor="start" x="290" y="-213.55" font-family="Consolas" font-size="11.00">evaluate_point()</text>
<text text-anchor="start" x="280" y="-196.55" font-family="Consolas" font-size="11.00">+</text>
<text text-anchor="start" x="290" y="-196.55" font-family="Consolas" font-size="11.00">evaluate_point_derivative()</text>
<text text-anchor="start" x="280" y="-179.55" font-family="Consolas" font-size="11.00">+</text>
<text text-anchor="start" x="290" y="-179.55" font-family="Consolas" font-size="11.00">evaluate_shape_function()</text>
<text text-anchor="start" x="280" y="-162.55" font-family="Consolas" font-size="11.00">+</text>
<text text-anchor="start" x="290" y="-162.55" font-family="Consolas" font-size="11.00">evaluate_shape_function</text>
<text text-anchor="start" x="290" y="-149.05" font-family="Consolas" font-size="11.00">_derivative()</text>
<text text-anchor="start" x="280" y="-131.55" font-family="Consolas" font-size="11.00">+</text>
<text text-anchor="start" x="290" y="-131.55" font-family="Consolas" font-size="11.00">BSplineVolume()</text>
<text text-anchor="start" x="280" y="-114.55" font-family="Consolas" font-size="11.00">+</text>
<text text-anchor="start" x="290" y="-114.55" font-family="Consolas" font-size="11.00">BSplineVolume()</text>
<text text-anchor="start" x="280" y="-97.55" font-family="Consolas" font-size="11.00">+</text>
<text text-anchor="start" x="290" y="-97.55" font-family="Consolas" font-size="11.00">BSplineVolume()</text>
<polygon fill="#666666" stroke="#666666" points="276,-243 276,-243 456,-243 456,-243 276,-243"/>
<polygon fill="#666666" stroke="#666666" points="276,-226 276,-226 456,-226 456,-226 276,-226"/>
<polygon fill="none" stroke="#666666" points="276,-91 276,-262 456,-262 456,-91 276,-91"/>
</a>
</g>
</g>
<!-- Node1&#45;&gt;Node4 -->
<g id="edge3_Node000001_Node000004" class="edge">
<title>Node1&#45;&gt;Node4</title>
<g id="a_edge3_Node000001_Node000004"><a xlink:title=" ">
<path fill="none" stroke="#63b8ff" d="M278.8,-319.21C290.81,-299.69 302.9,-280.03 314.11,-261.83"/>
<polygon fill="none" stroke="#63b8ff" points="275.96,-317.13 273.7,-327.48 281.93,-320.8 275.96,-317.13"/>
</a>
</g>
</g>
<!-- Node5 -->
<g id="Node000005" class="node">
<title>Node5</title>
<g id="a_Node000005"><a xlink:href="../../d8/d47/class_n_u_r_b_s_volume3_d.html" target="_top" xlink:title=" ">
<polygon fill="white" stroke="none" points="357,-55 249,-55 249,0 357,0 357,-55"/>
<text text-anchor="start" x="264" y="-40.55" font-family="Consolas" font-size="11.00">NURBSVolume3D</text>
<text text-anchor="start" x="300" y="-23.55" font-family="Consolas" font-size="11.00"> </text>
<text text-anchor="start" x="253" y="-6.55" font-family="Consolas" font-size="11.00">+</text>
<text text-anchor="start" x="263" y="-6.55" font-family="Consolas" font-size="11.00">NURBSVolume3D()</text>
<polygon fill="#666666" stroke="#666666" points="249,-36 249,-36 357,-36 357,-36 249,-36"/>
<polygon fill="#666666" stroke="#666666" points="249,-19 249,-19 357,-19 357,-19 249,-19"/>
<polygon fill="none" stroke="#666666" points="249,0 249,-55 357,-55 357,0 249,0"/>
</a>
</g>
</g>
<!-- Node4&#45;&gt;Node5 -->
<g id="edge4_Node000004_Node000005" class="edge">
<title>Node4&#45;&gt;Node5</title>
<g id="a_edge4_Node000004_Node000005"><a xlink:title=" ">
<path fill="none" stroke="#63b8ff" d="M325.44,-80.87C321.4,-71.44 317.58,-62.52 314.27,-54.8"/>
<polygon fill="none" stroke="#63b8ff" points="322.15,-82.06 329.3,-89.88 328.58,-79.31 322.15,-82.06"/>
</a>
</g>
</g>
<!-- Node6 -->
<g id="Node000006" class="node">
<title>Node6</title>
<g id="a_Node000006"><a xlink:href="../../da/d4a/class_n_u_r_b_s_volume4_d.html" target="_top" xlink:title=" ">
<polygon fill="white" stroke="none" points="483,-55 375,-55 375,0 483,0 483,-55"/>
<text text-anchor="start" x="390" y="-40.55" font-family="Consolas" font-size="11.00">NURBSVolume4D</text>
<text text-anchor="start" x="426" y="-23.55" font-family="Consolas" font-size="11.00"> </text>
<text text-anchor="start" x="379" y="-6.55" font-family="Consolas" font-size="11.00">+</text>
<text text-anchor="start" x="389" y="-6.55" font-family="Consolas" font-size="11.00">NURBSVolume4D()</text>
<polygon fill="#666666" stroke="#666666" points="375,-36 375,-36 483,-36 483,-36 375,-36"/>
<polygon fill="#666666" stroke="#666666" points="375,-19 375,-19 483,-19 483,-19 375,-19"/>
<polygon fill="none" stroke="#666666" points="375,0 375,-55 483,-55 483,0 375,0"/>
</a>
</g>
</g>
<!-- Node4&#45;&gt;Node6 -->
<g id="edge5_Node000004_Node000006" class="edge">
<title>Node4&#45;&gt;Node6</title>
<g id="a_edge5_Node000004_Node000006"><a xlink:title=" ">
<path fill="none" stroke="#63b8ff" d="M406.56,-80.87C410.6,-71.44 414.42,-62.52 417.73,-54.8"/>
<polygon fill="none" stroke="#63b8ff" points="403.42,-79.31 402.7,-89.88 409.85,-82.06 403.42,-79.31"/>
</a>
</g>
</g>
</g>
</svg>
