<?xml version="1.0" encoding="UTF-8" standalone="no"?>
<!DOCTYPE svg PUBLIC "-//W3C//DTD SVG 1.1//EN"
 "http://www.w3.org/Graphics/SVG/1.1/DTD/svg11.dtd">
<!-- Generated by graphviz version 2.43.0 (0)
 -->
<!-- Title: RelIncreEnergy::is_converged Pages: 1 -->
<!--zoomable 294 -->

<svg id="main" version="1.1" xmlns="http://www.w3.org/2000/svg" xmlns:xlink="http://www.w3.org/1999/xlink" xml:space="preserve" onload="init(evt)">
<style type="text/css"><![CDATA[
.node, .edge {opacity: 0.7;}
.node.selected, .edge.selected {opacity: 1;}
.edge:hover path { stroke: red; }
.edge:hover polygon { stroke: red; fill: red; }
]]></style>

<defs>
  <circle id="rim" cx="0" cy="0" r="7"/>
  <circle id="rim2" cx="0" cy="0" r="3.5"/>
  <g id="zoomPlus">
    <use xlink:href="#rim" fill="#404040"><set attributeName="fill" to="#808080" begin="zoomplus.mouseover" end="zoomplus.mouseout"/></use>
    <path d="M-4,0h8M0,-4v8" fill="none" stroke="white" stroke-width="1.5" pointer-events="none"/>
  </g>
  <g id="zoomMin">
    <use xlink:href="#rim" fill="#404040"><set attributeName="fill" to="#808080" begin="zoomminus.mouseover" end="zoomminus.mouseout"/></use>
    <path d="M-4,0h8" fill="none" stroke="white" stroke-width="1.5" pointer-events="none"/>
  </g>
  <g id="arrowUp" transform="translate(30 24)">
    <use xlink:href="#rim"/>
    <path pointer-events="none" fill="none" stroke="white" stroke-width="1.5" d="M0,-3.0v7 M-2.5,-0.5L0,-3.0L2.5,-0.5"/>
  </g>
  <g id="arrowRight" transform="rotate(90) translate(36 -43)">
    <use xlink:href="#rim"/>
    <path pointer-events="none" fill="none" stroke="white" stroke-width="1.5" d="M0,-3.0v7 M-2.5,-0.5L0,-3.0L2.5,-0.5"/>
  </g>
  <g id="arrowDown" transform="rotate(180) translate(-30 -48)">
    <use xlink:href="#rim"/>
    <path pointer-events="none" fill="none" stroke="white" stroke-width="1.5" d="M0,-3.0v7 M-2.5,-0.5L0,-3.0L2.5,-0.5"/>
  </g>
  <g id="arrowLeft" transform="rotate(270) translate(-36 17)">
    <use xlink:href="#rim"/>
    <path pointer-events="none" fill="none" stroke="white" stroke-width="1.5" d="M0,-3.0v7 M-2.5,-0.5L0,-3.0L2.5,-0.5"/>
  </g>
  <g id="resetDef">
    <use xlink:href="#rim2" fill="#404040"><set attributeName="fill" to="#808080" begin="reset.mouseover" end="reset.mouseout"/></use>
  </g>
</defs>
<script type="application/ecmascript">
var viewWidth = 555;
var viewHeight = 294;
var sectionId = 'dynsection-2';
</script>
<script type="application/ecmascript" xlink:href="../../svg.min.js"/>
<svg id="graph" class="graph">
<g id="viewport">
<title>RelIncreEnergy::is_converged</title>
<!-- Node1 -->
<g id="Node000001" class="node">
<title>Node1</title>
<g id="a_Node000001"><a xlink:title=" ">
<polygon fill="#999999" stroke="#666666" points="138,-159 0,-159 0,-127 138,-127 138,-159"/>
<text text-anchor="start" x="8" y="-146.2" font-family="Consolas" font-size="11.00">RelIncreEnergy::is</text>
<text text-anchor="middle" x="69" y="-134.2" font-family="Consolas" font-size="11.00">_converged</text>
</a>
</g>
</g>
<!-- Node2 -->
<g id="Node000002" class="node">
<title>Node2</title>
<g id="a_Node000002"><a xlink:href="../../d7/dae/class_converger.html#a35bf6429e4f33c8966c34dea7071b165" target="_top" xlink:title="method to return conv_flag.">
<polygon fill="white" stroke="#666666" points="353,-286 174,-286 174,-266 353,-266 353,-286"/>
<text text-anchor="middle" x="263.5" y="-273.2" font-family="Consolas" font-size="11.00">Converger::get_conv_flag</text>
</a>
</g>
</g>
<!-- Node1&#45;&gt;Node2 -->
<g id="edge1_Node000001_Node000002" class="edge">
<title>Node1&#45;&gt;Node2</title>
<g id="a_edge1_Node000001_Node000002"><a xlink:title=" ">
<path fill="none" stroke="#63b8ff" d="M81.07,-159.35C98.17,-183.33 133.32,-227.79 174,-252 181.28,-256.33 189.35,-259.9 197.57,-262.83"/>
<polygon fill="#63b8ff" stroke="#63b8ff" points="196.67,-266.22 207.26,-265.99 198.84,-259.56 196.67,-266.22"/>
</a>
</g>
</g>
<!-- Node3 -->
<g id="Node000003" class="node">
<title>Node3</title>
<g id="a_Node000003"><a xlink:href="../../d7/dae/class_converger.html#a6568a115263779e433113094f0cd0c24" target="_top" xlink:title="method to return DomainBase.">
<polygon fill="white" stroke="#666666" points="547,-210 389,-210 389,-190 547,-190 547,-210"/>
<text text-anchor="middle" x="468" y="-197.2" font-family="Consolas" font-size="11.00">Converger::get_domain</text>
</a>
</g>
</g>
<!-- Node1&#45;&gt;Node3 -->
<g id="edge2_Node000001_Node000003" class="edge">
<title>Node1&#45;&gt;Node3</title>
<g id="a_edge2_Node000001_Node000003"><a xlink:title=" ">
<path fill="none" stroke="#63b8ff" d="M85.42,-159.3C104.26,-177.91 138.07,-207.27 174,-219 259.03,-246.76 365.14,-227.54 423.5,-212.7"/>
<polygon fill="#63b8ff" stroke="#63b8ff" points="424.69,-216 433.48,-210.08 422.92,-209.23 424.69,-216"/>
</a>
</g>
</g>
<!-- Node4 -->
<g id="Node000004" class="node">
<title>Node4</title>
<g id="a_Node000004"><a xlink:href="../../d7/dae/class_converger.html#ac53b3d32fa56c076ec2565390eb7dc92" target="_top" xlink:title="method to return error.">
<polygon fill="white" stroke="#666666" points="339.5,-210 187.5,-210 187.5,-190 339.5,-190 339.5,-210"/>
<text text-anchor="middle" x="263.5" y="-197.2" font-family="Consolas" font-size="11.00">Converger::get_error</text>
</a>
</g>
</g>
<!-- Node1&#45;&gt;Node4 -->
<g id="edge3_Node000001_Node000004" class="edge">
<title>Node1&#45;&gt;Node4</title>
<g id="a_edge3_Node000001_Node000004"><a xlink:title=" ">
<path fill="none" stroke="#63b8ff" d="M110.07,-159.12C129.21,-166.44 152.58,-174.82 174,-181 182.34,-183.41 191.2,-185.66 199.96,-187.71"/>
<polygon fill="#63b8ff" stroke="#63b8ff" points="199.26,-191.14 209.79,-189.94 200.81,-184.31 199.26,-191.14"/>
</a>
</g>
</g>
<!-- Node5 -->
<g id="Node000005" class="node">
<title>Node5</title>
<g id="a_Node000005"><a xlink:href="../../d7/dae/class_converger.html#aa1f2150f975864550f4c8ed11a0397bc" target="_top" xlink:title=" ">
<polygon fill="white" stroke="#666666" points="349.5,-172 177.5,-172 177.5,-152 349.5,-152 349.5,-172"/>
<text text-anchor="middle" x="263.5" y="-159.2" font-family="Consolas" font-size="11.00">Converger::get_residual</text>
</a>
</g>
</g>
<!-- Node1&#45;&gt;Node5 -->
<g id="edge4_Node000001_Node000005" class="edge">
<title>Node1&#45;&gt;Node5</title>
<g id="a_edge4_Node000001_Node000005"><a xlink:title=" ">
<path fill="none" stroke="#63b8ff" d="M138.14,-149.73C147.53,-150.65 157.31,-151.62 167.09,-152.58"/>
<polygon fill="#63b8ff" stroke="#63b8ff" points="166.95,-156.09 177.25,-153.59 167.64,-149.12 166.95,-156.09"/>
</a>
</g>
</g>
<!-- Node6 -->
<g id="Node000006" class="node">
<title>Node6</title>
<g id="a_Node000006"><a xlink:href="../../d7/dae/class_converger.html#a20784028239e8bec069dfd89d74627e6" target="_top" xlink:title="method to return tolerance.">
<polygon fill="white" stroke="#666666" points="353,-134 174,-134 174,-114 353,-114 353,-134"/>
<text text-anchor="middle" x="263.5" y="-121.2" font-family="Consolas" font-size="11.00">Converger::get_tolerance</text>
</a>
</g>
</g>
<!-- Node1&#45;&gt;Node6 -->
<g id="edge6_Node000001_Node000006" class="edge">
<title>Node1&#45;&gt;Node6</title>
<g id="a_edge6_Node000001_Node000006"><a xlink:title=" ">
<path fill="none" stroke="#63b8ff" d="M138.14,-136.27C146.46,-135.45 155.08,-134.6 163.73,-133.75"/>
<polygon fill="#63b8ff" stroke="#63b8ff" points="164.28,-137.21 173.89,-132.75 163.59,-130.25 164.28,-137.21"/>
</a>
</g>
</g>
<!-- Node7 -->
<g id="Node000007" class="node">
<title>Node7</title>
<g id="a_Node000007"><a xlink:href="../../d7/dae/class_converger.html#a1095095d509dcf2df46f0997d8adee0d" target="_top" xlink:title="method to return print_flag.">
<polygon fill="white" stroke="#666666" points="336,-96 191,-96 191,-76 336,-76 336,-96"/>
<text text-anchor="middle" x="263.5" y="-83.2" font-family="Consolas" font-size="11.00">Converger::is_print</text>
</a>
</g>
</g>
<!-- Node1&#45;&gt;Node7 -->
<g id="edge7_Node000001_Node000007" class="edge">
<title>Node1&#45;&gt;Node7</title>
<g id="a_edge7_Node000001_Node000007"><a xlink:title=" ">
<path fill="none" stroke="#63b8ff" d="M110.07,-126.88C129.21,-119.56 152.58,-111.18 174,-105 182.34,-102.59 191.2,-100.34 199.96,-98.29"/>
<polygon fill="#63b8ff" stroke="#63b8ff" points="200.81,-101.69 209.79,-96.06 199.26,-94.86 200.81,-101.69"/>
</a>
</g>
</g>
<!-- Node8 -->
<g id="Node000008" class="node">
<title>Node8</title>
<g id="a_Node000008"><a xlink:href="../../d7/dae/class_converger.html#acb33ddcbc28124732a8355925a9607b2" target="_top" xlink:title="method to set conv_flag.">
<polygon fill="white" stroke="#666666" points="353,-58 174,-58 174,-38 353,-38 353,-58"/>
<text text-anchor="middle" x="263.5" y="-45.2" font-family="Consolas" font-size="11.00">Converger::set_conv_flag</text>
</a>
</g>
</g>
<!-- Node1&#45;&gt;Node8 -->
<g id="edge8_Node000001_Node000008" class="edge">
<title>Node1&#45;&gt;Node8</title>
<g id="a_edge8_Node000001_Node000008"><a xlink:title=" ">
<path fill="none" stroke="#63b8ff" d="M87.32,-126.74C106.86,-109.3 140.33,-82.09 174,-67 179.02,-64.75 184.32,-62.76 189.73,-61"/>
<polygon fill="#63b8ff" stroke="#63b8ff" points="190.97,-64.29 199.56,-58.08 188.97,-57.58 190.97,-64.29"/>
</a>
</g>
</g>
<!-- Node9 -->
<g id="Node000009" class="node">
<title>Node9</title>
<g id="a_Node000009"><a xlink:href="../../d7/dae/class_converger.html#ab9f72024e7559c1fe82451fefa5a9f08" target="_top" xlink:title="method to set error.">
<polygon fill="white" stroke="#666666" points="339.5,-20 187.5,-20 187.5,0 339.5,0 339.5,-20"/>
<text text-anchor="middle" x="263.5" y="-7.2" font-family="Consolas" font-size="11.00">Converger::set_error</text>
</a>
</g>
</g>
<!-- Node1&#45;&gt;Node9 -->
<g id="edge9_Node000001_Node000009" class="edge">
<title>Node1&#45;&gt;Node9</title>
<g id="a_edge9_Node000001_Node000009"><a xlink:title=" ">
<path fill="none" stroke="#63b8ff" d="M79.91,-126.85C96.23,-101.7 131.26,-53.55 174,-29 177.43,-27.03 181.04,-25.27 184.76,-23.68"/>
<polygon fill="#63b8ff" stroke="#63b8ff" points="186.08,-26.92 194.2,-20.11 183.61,-20.38 186.08,-26.92"/>
</a>
</g>
</g>
<!-- Node5&#45;&gt;Node3 -->
<g id="edge5_Node000005_Node000003" class="edge">
<title>Node5&#45;&gt;Node3</title>
<g id="a_edge5_Node000005_Node000003"><a xlink:title=" ">
<path fill="none" stroke="#63b8ff" d="M317.97,-172.03C344.27,-176.97 376.15,-182.95 403.66,-188.11"/>
<polygon fill="#63b8ff" stroke="#63b8ff" points="403.11,-191.57 413.58,-189.98 404.4,-184.69 403.11,-191.57"/>
</a>
</g>
</g>
</g>
</svg>

<g id="navigator" transform="translate(0 0)" fill="#404254">
  <rect fill="#f2f5e9" fill-opacity="0.5" stroke="#606060" stroke-width=".5" x="0" y="0" width="60" height="60"/>
  <use id="zoomplus" xlink:href="#zoomPlus" x="17" y="9" onmousedown="handleZoom(evt,'in')"/>
  <use id="zoomminus" xlink:href="#zoomMin" x="42" y="9" onmousedown="handleZoom(evt,'out')"/>
  <use id="reset" xlink:href="#resetDef" x="30" y="36" onmousedown="handleReset()"/>
   <use id="arrowup" xlink:href="#arrowUp" x="0" y="0" onmousedown="handlePan(0,-1)"/>
  <use id="arrowright" xlink:href="#arrowRight" x="0" y="0" onmousedown="handlePan(1,0)"/>
  <use id="arrowdown" xlink:href="#arrowDown" x="0" y="0" onmousedown="handlePan(0,1)"/>
  <use id="arrowleft" xlink:href="#arrowLeft" x="0" y="0" onmousedown="handlePan(-1,0)"/>
</g>
<svg viewBox="0 0 15 15" width="100%" height="30px" preserveAspectRatio="xMaxYMin meet">
 <g id="arrow_out" transform="scale(0.3 0.3)">
  <a xlink:href="class_rel_incre_energy_a2a2f0cd8fcffbceb6fa15cf290f24bf9_cgraph_org.svg" target="_base">
   <rect id="button" ry="5" rx="5" y="6" x="6" height="38" width="38"
        fill="#f2f5e9" fill-opacity="0.5" stroke="#606060" stroke-width="1.0"/>
   <path id="arrow"
     d="M 11.500037,31.436501 C 11.940474,20.09759 22.043105,11.32322 32.158766,21.979434 L 37.068811,17.246167 C 37.068811,17.246167 37.088388,32 37.088388,32 L 22.160133,31.978069 C 22.160133,31.978069 26.997745,27.140456 26.997745,27.140456 C 18.528582,18.264221 13.291696,25.230495 11.500037,31.436501 z"
     style="fill:#404040;"/>
  </a>
 </g>
</svg>

<style type='text/css'>
<![CDATA[
[data-mouse-over-selected='false'] { opacity: 0.7; }
[data-mouse-over-selected='true']  { opacity: 1.0; }
]]>
</style>
<script type="application/ecmascript"><![CDATA[
document.addEventListener('DOMContentLoaded', (event) => {
  highlightEdges();
  highlightAdjacentNodes();
});
]]></script>
</svg>
