<?xml version="1.0" encoding="UTF-8" standalone="no"?>
<!DOCTYPE svg PUBLIC "-//W3C//DTD SVG 1.1//EN"
 "http://www.w3.org/Graphics/SVG/1.1/DTD/svg11.dtd">
<!-- Generated by graphviz version 2.43.0 (0)
 -->
<!-- Title: Material/Material1D/Viscosity/Kelvin.cpp Pages: 1 -->
<!--zoomable 395 -->
<svg id="main" version="1.1" xmlns="http://www.w3.org/2000/svg" xmlns:xlink="http://www.w3.org/1999/xlink" xml:space="preserve" onload="init(evt)">
<style type="text/css"><![CDATA[
.edge:hover path { stroke: red; }
.edge:hover polygon { stroke: red; fill: red; }
]]></style>
<script type="text/javascript"><![CDATA[
var edges = document.getElementsByTagName('g');
if (edges && edges.length) {
  for (var i=0;i<edges.length;i++) {
    if (edges[i].id.substr(0,4)=='edge') {
      edges[i].setAttribute('class','edge');
    }
  }
}
]]></script>
        <defs>
                <circle id="rim" cx="0" cy="0" r="7"/>
                <circle id="rim2" cx="0" cy="0" r="3.5"/>
                <g id="zoomPlus">
                        <use xlink:href="#rim" fill="#404040">
                                <set attributeName="fill" to="#808080" begin="zoomplus.mouseover" end="zoomplus.mouseout"/>
                        </use>
                        <path d="M-4,0h8M0,-4v8" fill="none" stroke="white" stroke-width="1.5" pointer-events="none"/>
                </g>
                <g id="zoomMin">
                        <use xlink:href="#rim" fill="#404040">
                                <set attributeName="fill" to="#808080" begin="zoomminus.mouseover" end="zoomminus.mouseout"/>
                        </use>
                        <path d="M-4,0h8" fill="none" stroke="white" stroke-width="1.5" pointer-events="none"/>
                </g>
                <g id="dirArrow">
                        <path fill="none" stroke="white" stroke-width="1.5" d="M0,-3.0v7 M-2.5,-0.5L0,-3.0L2.5,-0.5"/>
                </g>
               <g id="resetDef">
                       <use xlink:href="#rim2" fill="#404040">
                               <set attributeName="fill" to="#808080" begin="reset.mouseover" end="reset.mouseout"/>
                       </use>
               </g>
        </defs>

<script type="text/javascript">
var viewWidth = 735;
var viewHeight = 395;
var sectionId = 'dynsection-0';
</script>
<script xlink:href="../../svgpan.js"/>
<svg id="graph" class="graph">
<g id="viewport">
<title>Material/Material1D/Viscosity/Kelvin.cpp</title>
<polygon fill="white" stroke="transparent" points="-4,4 -4,-391 731,-391 731,4 -4,4"/>
<!-- Node1 -->
<g id="node1" class="node">
<title>Node1</title>
<g id="a_node1"><a xlink:title=" ">
<polygon fill="#bfbfbf" stroke="black" points="351.5,-354.5 351.5,-386.5 509.5,-386.5 509.5,-354.5 351.5,-354.5"/>
<text text-anchor="start" x="359.5" y="-373.7" font-family="Consolas" font-size="11.00">Material/Material1D</text>
<text text-anchor="middle" x="430.5" y="-361.7" font-family="Consolas" font-size="11.00">/Viscosity/Kelvin.cpp</text>
</a>
</g>
</g>
<!-- Node2 -->
<g id="node2" class="node">
<title>Node2</title>
<g id="a_node2"><a xlink:href="../../d9/d80/_kelvin_8h.html" target="_top" xlink:title=" ">
<polygon fill="white" stroke="black" points="263,-297.5 263,-317.5 334,-317.5 334,-297.5 263,-297.5"/>
<text text-anchor="middle" x="298.5" y="-304.7" font-family="Consolas" font-size="11.00">Kelvin.h</text>
</a>
</g>
</g>
<!-- Node1&#45;&gt;Node2 -->
<g id="edge1" class="edge">
<title>Node1&#45;&gt;Node2</title>
<path fill="none" stroke="midnightblue" d="M397.87,-354.42C376.25,-344.43 348.15,-331.45 327.35,-321.83"/>
<polygon fill="midnightblue" stroke="midnightblue" points="328.62,-318.56 318.07,-317.55 325.68,-324.92 328.62,-318.56"/>
</g>
<!-- Node16 -->
<g id="node16" class="node">
<title>Node16</title>
<g id="a_node16"><a xlink:href="../../dc/df2/_domain_base_8h.html" target="_top" xlink:title=" ">
<polygon fill="white" stroke="black" points="395,-171.5 395,-191.5 540,-191.5 540,-171.5 395,-171.5"/>
<text text-anchor="middle" x="467.5" y="-178.7" font-family="Consolas" font-size="11.00">Domain/DomainBase.h</text>
</a>
</g>
</g>
<!-- Node1&#45;&gt;Node16 -->
<g id="edge16" class="edge">
<title>Node1&#45;&gt;Node16</title>
<path fill="none" stroke="midnightblue" d="M433.53,-354.2C440.22,-320.36 456.27,-239.25 463.66,-201.92"/>
<polygon fill="midnightblue" stroke="midnightblue" points="467.15,-202.32 465.65,-191.83 460.28,-200.96 467.15,-202.32"/>
</g>
<!-- Node23 -->
<g id="node23" class="node">
<title>Node23</title>
<g id="a_node23"><a xlink:href="../../d4/d0f/_output_type_8h.html" target="_top" xlink:title=" ">
<polygon fill="white" stroke="black" points="458.5,-297.5 458.5,-317.5 616.5,-317.5 616.5,-297.5 458.5,-297.5"/>
<text text-anchor="middle" x="537.5" y="-304.7" font-family="Consolas" font-size="11.00">Recorder/OutputType.h</text>
</a>
</g>
</g>
<!-- Node1&#45;&gt;Node23 -->
<g id="edge25" class="edge">
<title>Node1&#45;&gt;Node23</title>
<path fill="none" stroke="midnightblue" d="M456.95,-354.42C473.92,-344.75 495.81,-332.27 512.49,-322.76"/>
<polygon fill="midnightblue" stroke="midnightblue" points="514.68,-325.54 521.63,-317.55 511.21,-319.46 514.68,-325.54"/>
</g>
<!-- Node3 -->
<g id="node3" class="node">
<title>Node3</title>
<g id="a_node3"><a xlink:href="../../d4/d7c/_material1_d_8h.html" target="_top" xlink:title=" ">
<polygon fill="white" stroke="black" points="226,-228.5 226,-260.5 371,-260.5 371,-228.5 226,-228.5"/>
<text text-anchor="start" x="234" y="-247.7" font-family="Consolas" font-size="11.00">Material/Material1D</text>
<text text-anchor="middle" x="298.5" y="-235.7" font-family="Consolas" font-size="11.00">/Material1D.h</text>
</a>
</g>
</g>
<!-- Node2&#45;&gt;Node3 -->
<g id="edge2" class="edge">
<title>Node2&#45;&gt;Node3</title>
<path fill="none" stroke="midnightblue" d="M298.5,-297.5C298.5,-290.47 298.5,-280.34 298.5,-270.88"/>
<polygon fill="midnightblue" stroke="midnightblue" points="302,-270.69 298.5,-260.69 295,-270.69 302,-270.69"/>
</g>
<!-- Node15 -->
<g id="node15" class="node">
<title>Node15</title>
<g id="a_node15"><a xlink:href="../../d4/da0/_resource_holder_8h.html" target="_top" xlink:title=" ">
<polygon fill="white" stroke="black" points="17,-171.5 17,-191.5 196,-191.5 196,-171.5 17,-171.5"/>
<text text-anchor="middle" x="106.5" y="-178.7" font-family="Consolas" font-size="11.00">Toolbox/ResourceHolder.h</text>
</a>
</g>
</g>
<!-- Node2&#45;&gt;Node15 -->
<g id="edge14" class="edge">
<title>Node2&#45;&gt;Node15</title>
<path fill="none" stroke="midnightblue" d="M280.89,-297.47C264.06,-288.67 238.11,-274.65 216.5,-261 184.07,-240.52 148.2,-214.19 126.51,-197.83"/>
<polygon fill="midnightblue" stroke="midnightblue" points="128.48,-194.93 118.4,-191.67 124.25,-200.5 128.48,-194.93"/>
</g>
<!-- Node4 -->
<g id="node4" class="node">
<title>Node4</title>
<g id="a_node4"><a xlink:href="../../d3/d09/_material_8h.html" target="_top" xlink:title=" ">
<polygon fill="white" stroke="black" points="226,-171.5 226,-191.5 371,-191.5 371,-171.5 226,-171.5"/>
<text text-anchor="middle" x="298.5" y="-178.7" font-family="Consolas" font-size="11.00">Material/Material.h</text>
</a>
</g>
</g>
<!-- Node3&#45;&gt;Node4 -->
<g id="edge3" class="edge">
<title>Node3&#45;&gt;Node4</title>
<path fill="none" stroke="midnightblue" d="M298.5,-228.42C298.5,-220.38 298.5,-210.39 298.5,-201.78"/>
<polygon fill="midnightblue" stroke="midnightblue" points="302,-201.55 298.5,-191.55 295,-201.55 302,-201.55"/>
</g>
<!-- Node5 -->
<g id="node5" class="node">
<title>Node5</title>
<g id="a_node5"><a xlink:href="../../d2/d4a/_tag_8h.html" target="_top" xlink:title=" ">
<polygon fill="white" stroke="black" points="284.5,-114.5 284.5,-134.5 382.5,-134.5 382.5,-114.5 284.5,-114.5"/>
<text text-anchor="middle" x="333.5" y="-121.7" font-family="Consolas" font-size="11.00">Domain/Tag.h</text>
</a>
</g>
</g>
<!-- Node4&#45;&gt;Node5 -->
<g id="edge4" class="edge">
<title>Node4&#45;&gt;Node5</title>
<path fill="none" stroke="midnightblue" d="M304.28,-171.42C309.11,-163.82 316.16,-152.75 322.12,-143.39"/>
<polygon fill="midnightblue" stroke="midnightblue" points="325.18,-145.1 327.59,-134.78 319.27,-141.34 325.18,-145.1"/>
</g>
<!-- Node14 -->
<g id="node14" class="node">
<title>Node14</title>
<g id="a_node14"><a xlink:href="../../df/dec/_parameter_type_8h.html" target="_top" xlink:title=" ">
<polygon fill="white" stroke="black" points="148.5,-114.5 148.5,-134.5 266.5,-134.5 266.5,-114.5 148.5,-114.5"/>
<text text-anchor="middle" x="207.5" y="-121.7" font-family="Consolas" font-size="11.00">ParameterType.h</text>
</a>
</g>
</g>
<!-- Node4&#45;&gt;Node14 -->
<g id="edge13" class="edge">
<title>Node4&#45;&gt;Node14</title>
<path fill="none" stroke="midnightblue" d="M283.47,-171.42C269.25,-162.82 247.66,-149.78 231.13,-139.78"/>
<polygon fill="midnightblue" stroke="midnightblue" points="232.92,-136.77 222.55,-134.6 229.3,-142.76 232.92,-136.77"/>
</g>
<!-- Node6 -->
<g id="node6" class="node">
<title>Node6</title>
<g id="a_node6"><a xlink:href="../../d8/d8f/suan_pan_8h.html" target="_top" xlink:title=" ">
<polygon fill="white" stroke="black" points="295,-57.5 295,-77.5 372,-77.5 372,-57.5 295,-57.5"/>
<text text-anchor="middle" x="333.5" y="-64.7" font-family="Consolas" font-size="11.00">suanPan.h</text>
</a>
</g>
</g>
<!-- Node5&#45;&gt;Node6 -->
<g id="edge5" class="edge">
<title>Node5&#45;&gt;Node6</title>
<path fill="none" stroke="midnightblue" d="M333.5,-114.42C333.5,-107.22 333.5,-96.9 333.5,-87.86"/>
<polygon fill="midnightblue" stroke="midnightblue" points="337,-87.78 333.5,-77.78 330,-87.78 337,-87.78"/>
</g>
<!-- Node7 -->
<g id="node7" class="node">
<title>Node7</title>
<g id="a_node7"><a xlink:title=" ">
<polygon fill="white" stroke="#bfbfbf" points="621,-0.5 621,-20.5 692,-20.5 692,-0.5 621,-0.5"/>
<text text-anchor="middle" x="656.5" y="-7.7" font-family="Consolas" font-size="11.00">iostream</text>
</a>
</g>
</g>
<!-- Node6&#45;&gt;Node7 -->
<g id="edge6" class="edge">
<title>Node6&#45;&gt;Node7</title>
<path fill="none" stroke="midnightblue" d="M372.25,-58.69C375.38,-58.1 378.49,-57.53 381.5,-57 480.3,-39.5 508.07,-39.66 610.83,-21.04"/>
<polygon fill="midnightblue" stroke="midnightblue" points="611.46,-24.48 620.67,-19.24 610.21,-17.6 611.46,-24.48"/>
</g>
<!-- Node8 -->
<g id="node8" class="node">
<title>Node8</title>
<g id="a_node8"><a xlink:title=" ">
<polygon fill="white" stroke="#bfbfbf" points="75,-0.5 75,-20.5 220,-20.5 220,-0.5 75,-0.5"/>
<text text-anchor="middle" x="147.5" y="-7.7" font-family="Consolas" font-size="11.00">armadillo/armadillo</text>
</a>
</g>
</g>
<!-- Node6&#45;&gt;Node8 -->
<g id="edge7" class="edge">
<title>Node6&#45;&gt;Node8</title>
<path fill="none" stroke="midnightblue" d="M302.79,-57.42C271.33,-48.12 222.27,-33.61 187.72,-23.39"/>
<polygon fill="midnightblue" stroke="midnightblue" points="188.53,-19.98 177.95,-20.5 186.55,-26.7 188.53,-19.98"/>
</g>
<!-- Node9 -->
<g id="node9" class="node">
<title>Node9</title>
<g id="a_node9"><a xlink:title=" ">
<polygon fill="white" stroke="#bfbfbf" points="238.5,-0.5 238.5,-20.5 322.5,-20.5 322.5,-0.5 238.5,-0.5"/>
<text text-anchor="middle" x="280.5" y="-7.7" font-family="Consolas" font-size="11.00">filesystem</text>
</a>
</g>
</g>
<!-- Node6&#45;&gt;Node9 -->
<g id="edge8" class="edge">
<title>Node6&#45;&gt;Node9</title>
<path fill="none" stroke="midnightblue" d="M324.75,-57.42C317.12,-49.5 305.87,-37.82 296.62,-28.23"/>
<polygon fill="midnightblue" stroke="midnightblue" points="298.9,-25.55 289.44,-20.78 293.86,-30.41 298.9,-25.55"/>
</g>
<!-- Node10 -->
<g id="node10" class="node">
<title>Node10</title>
<g id="a_node10"><a xlink:title=" ">
<polygon fill="white" stroke="#bfbfbf" points="341,-0.5 341,-20.5 432,-20.5 432,-0.5 341,-0.5"/>
<text text-anchor="middle" x="386.5" y="-7.7" font-family="Consolas" font-size="11.00">fmt/color.h</text>
</a>
</g>
</g>
<!-- Node6&#45;&gt;Node10 -->
<g id="edge9" class="edge">
<title>Node6&#45;&gt;Node10</title>
<path fill="none" stroke="midnightblue" d="M342.25,-57.42C349.88,-49.5 361.13,-37.82 370.38,-28.23"/>
<polygon fill="midnightblue" stroke="midnightblue" points="373.14,-30.41 377.56,-20.78 368.1,-25.55 373.14,-30.41"/>
</g>
<!-- Node11 -->
<g id="node11" class="node">
<title>Node11</title>
<g id="a_node11"><a xlink:title=" ">
<polygon fill="white" stroke="#bfbfbf" points="450.5,-0.5 450.5,-20.5 500.5,-20.5 500.5,-0.5 450.5,-0.5"/>
<text text-anchor="middle" x="475.5" y="-7.7" font-family="Consolas" font-size="11.00">mutex</text>
</a>
</g>
</g>
<!-- Node6&#45;&gt;Node11 -->
<g id="edge10" class="edge">
<title>Node6&#45;&gt;Node11</title>
<path fill="none" stroke="midnightblue" d="M356.95,-57.42C380.28,-48.38 416.29,-34.44 442.5,-24.28"/>
<polygon fill="midnightblue" stroke="midnightblue" points="443.96,-27.47 452.02,-20.6 441.43,-20.94 443.96,-27.47"/>
</g>
<!-- Node12 -->
<g id="node12" class="node">
<title>Node12</title>
<g id="a_node12"><a xlink:title=" ">
<polygon fill="white" stroke="#bfbfbf" points="518.5,-0.5 518.5,-20.5 602.5,-20.5 602.5,-0.5 518.5,-0.5"/>
<text text-anchor="middle" x="560.5" y="-7.7" font-family="Consolas" font-size="11.00">functional</text>
</a>
</g>
</g>
<!-- Node6&#45;&gt;Node12 -->
<g id="edge11" class="edge">
<title>Node6&#45;&gt;Node12</title>
<path fill="none" stroke="midnightblue" d="M370.73,-57.48C409.74,-48.03 471.12,-33.16 513.46,-22.9"/>
<polygon fill="midnightblue" stroke="midnightblue" points="514.35,-26.28 523.25,-20.53 512.71,-19.48 514.35,-26.28"/>
</g>
<!-- Node13 -->
<g id="node13" class="node">
<title>Node13</title>
<g id="a_node13"><a xlink:title=" ">
<polygon fill="white" stroke="#bfbfbf" points="0,-0.5 0,-20.5 57,-20.5 57,-0.5 0,-0.5"/>
<text text-anchor="middle" x="28.5" y="-7.7" font-family="Consolas" font-size="11.00">memory</text>
</a>
</g>
</g>
<!-- Node6&#45;&gt;Node13 -->
<g id="edge12" class="edge">
<title>Node6&#45;&gt;Node13</title>
<path fill="none" stroke="midnightblue" d="M294.7,-60.95C244.34,-53.52 153.57,-39.35 67.1,-21.21"/>
<polygon fill="midnightblue" stroke="midnightblue" points="67.64,-17.75 57.13,-19.1 66.18,-24.6 67.64,-17.75"/>
</g>
<!-- Node15&#45;&gt;Node13 -->
<g id="edge15" class="edge">
<title>Node15&#45;&gt;Node13</title>
<path fill="none" stroke="midnightblue" d="M102.31,-171.41C89.98,-144.71 53.69,-66.07 37.03,-29.98"/>
<polygon fill="midnightblue" stroke="midnightblue" points="40.08,-28.24 32.71,-20.63 33.73,-31.18 40.08,-28.24"/>
</g>
<!-- Node16&#45;&gt;Node5 -->
<g id="edge18" class="edge">
<title>Node16&#45;&gt;Node5</title>
<path fill="none" stroke="midnightblue" d="M445.37,-171.42C423.45,-162.42 389.68,-148.56 364.97,-138.42"/>
<polygon fill="midnightblue" stroke="midnightblue" points="366.24,-135.15 355.66,-134.6 363.58,-141.63 366.24,-135.15"/>
</g>
<!-- Node17 -->
<g id="node17" class="node">
<title>Node17</title>
<g id="a_node17"><a xlink:title=" ">
<polygon fill="white" stroke="#bfbfbf" points="564,-114.5 564,-134.5 621,-134.5 621,-114.5 564,-114.5"/>
<text text-anchor="middle" x="592.5" y="-121.7" font-family="Consolas" font-size="11.00">future</text>
</a>
</g>
</g>
<!-- Node16&#45;&gt;Node17 -->
<g id="edge17" class="edge">
<title>Node16&#45;&gt;Node17</title>
<path fill="none" stroke="midnightblue" d="M488.14,-171.42C508.41,-162.5 539.54,-148.8 562.53,-138.69"/>
<polygon fill="midnightblue" stroke="midnightblue" points="564.08,-141.83 571.83,-134.6 561.27,-135.42 564.08,-141.83"/>
</g>
<!-- Node18 -->
<g id="node18" class="node">
<title>Node18</title>
<g id="a_node18"><a xlink:href="../../d4/ddd/container_8h.html" target="_top" xlink:title=" ">
<polygon fill="white" stroke="black" points="401,-114.5 401,-134.5 546,-134.5 546,-114.5 401,-114.5"/>
<text text-anchor="middle" x="473.5" y="-121.7" font-family="Consolas" font-size="11.00">Toolbox/container.h</text>
</a>
</g>
</g>
<!-- Node16&#45;&gt;Node18 -->
<g id="edge19" class="edge">
<title>Node16&#45;&gt;Node18</title>
<path fill="none" stroke="midnightblue" d="M468.49,-171.42C469.28,-164.22 470.4,-153.9 471.39,-144.86"/>
<polygon fill="midnightblue" stroke="midnightblue" points="474.88,-145.1 472.49,-134.78 467.92,-144.34 474.88,-145.1"/>
</g>
<!-- Node18&#45;&gt;Node6 -->
<g id="edge20" class="edge">
<title>Node18&#45;&gt;Node6</title>
<path fill="none" stroke="midnightblue" d="M450.38,-114.42C427.38,-105.38 391.88,-91.44 366.04,-81.28"/>
<polygon fill="midnightblue" stroke="midnightblue" points="367.24,-77.99 356.65,-77.6 364.68,-84.51 367.24,-77.99"/>
</g>
<!-- Node19 -->
<g id="node19" class="node">
<title>Node19</title>
<g id="a_node19"><a xlink:title=" ">
<polygon fill="white" stroke="#bfbfbf" points="635,-57.5 635,-77.5 672,-77.5 672,-57.5 635,-57.5"/>
<text text-anchor="middle" x="653.5" y="-64.7" font-family="Consolas" font-size="11.00">set</text>
</a>
</g>
</g>
<!-- Node18&#45;&gt;Node19 -->
<g id="edge21" class="edge">
<title>Node18&#45;&gt;Node19</title>
<path fill="none" stroke="midnightblue" d="M505.04,-114.42C533.87,-106.04 577.9,-93.05 625.07,-78.06"/>
<polygon fill="midnightblue" stroke="midnightblue" points="626.39,-81.31 634.86,-74.93 624.26,-74.64 626.39,-81.31"/>
</g>
<!-- Node20 -->
<g id="node20" class="node">
<title>Node20</title>
<g id="a_node20"><a xlink:title=" ">
<polygon fill="white" stroke="#bfbfbf" points="690,-57.5 690,-77.5 727,-77.5 727,-57.5 690,-57.5"/>
<text text-anchor="middle" x="708.5" y="-64.7" font-family="Consolas" font-size="11.00">map</text>
</a>
</g>
</g>
<!-- Node18&#45;&gt;Node20 -->
<g id="edge22" class="edge">
<title>Node18&#45;&gt;Node20</title>
<path fill="none" stroke="midnightblue" d="M523.1,-114.43C563.27,-106.69 621.45,-94.57 679.94,-78.21"/>
<polygon fill="midnightblue" stroke="midnightblue" points="681.05,-81.54 689.71,-75.44 679.14,-74.8 681.05,-81.54"/>
</g>
<!-- Node21 -->
<g id="node21" class="node">
<title>Node21</title>
<g id="a_node21"><a xlink:title=" ">
<polygon fill="white" stroke="#bfbfbf" points="390.5,-57.5 390.5,-77.5 494.5,-77.5 494.5,-57.5 390.5,-57.5"/>
<text text-anchor="middle" x="442.5" y="-64.7" font-family="Consolas" font-size="11.00">unordered_set</text>
</a>
</g>
</g>
<!-- Node18&#45;&gt;Node21 -->
<g id="edge23" class="edge">
<title>Node18&#45;&gt;Node21</title>
<path fill="none" stroke="midnightblue" d="M468.38,-114.42C464.14,-106.9 457.99,-95.98 452.75,-86.68"/>
<polygon fill="midnightblue" stroke="midnightblue" points="455.69,-84.77 447.73,-77.78 449.59,-88.21 455.69,-84.77"/>
</g>
<!-- Node22 -->
<g id="node22" class="node">
<title>Node22</title>
<g id="a_node22"><a xlink:title=" ">
<polygon fill="white" stroke="#bfbfbf" points="512.5,-57.5 512.5,-77.5 616.5,-77.5 616.5,-57.5 512.5,-57.5"/>
<text text-anchor="middle" x="564.5" y="-64.7" font-family="Consolas" font-size="11.00">unordered_map</text>
</a>
</g>
</g>
<!-- Node18&#45;&gt;Node22 -->
<g id="edge24" class="edge">
<title>Node18&#45;&gt;Node22</title>
<path fill="none" stroke="midnightblue" d="M488.53,-114.42C502.75,-105.82 524.34,-92.78 540.87,-82.78"/>
<polygon fill="midnightblue" stroke="midnightblue" points="542.7,-85.76 549.45,-77.6 539.08,-79.77 542.7,-85.76"/>
</g>
<!-- Node24 -->
<g id="node24" class="node">
<title>Node24</title>
<g id="a_node24"><a xlink:title=" ">
<polygon fill="white" stroke="#bfbfbf" points="509,-234.5 509,-254.5 566,-254.5 566,-234.5 509,-234.5"/>
<text text-anchor="middle" x="537.5" y="-241.7" font-family="Consolas" font-size="11.00">string</text>
</a>
</g>
</g>
<!-- Node23&#45;&gt;Node24 -->
<g id="edge26" class="edge">
<title>Node23&#45;&gt;Node24</title>
<path fill="none" stroke="midnightblue" d="M537.5,-297.5C537.5,-288.94 537.5,-275.78 537.5,-264.85"/>
<polygon fill="midnightblue" stroke="midnightblue" points="541,-264.54 537.5,-254.54 534,-264.54 541,-264.54"/>
</g>
</g>
</svg>
        <g id="navigator" transform="translate(0 0)" fill="#404254">
                <rect fill="#f2f5e9" fill-opacity="0.5" stroke="#606060" stroke-width=".5" x="0" y="0" width="60" height="60"/>
                <use id="zoomplus" xlink:href="#zoomPlus" x="17" y="9" onmousedown="handleZoom(evt,'in')"/>
                <use id="zoomminus" xlink:href="#zoomMin" x="42" y="9" onmousedown="handleZoom(evt,'out')"/>
                <use id="reset" xlink:href="#resetDef" x="30" y="36" onmousedown="handleReset()"/>
                <g id="arrowUp" xlink:href="#dirArrow" transform="translate(30 24)" onmousedown="handlePan(0,-1)">
                  <use xlink:href="#rim" fill="#404040">
                        <set attributeName="fill" to="#808080" begin="arrowUp.mouseover" end="arrowUp.mouseout"/>
                  </use>
                  <path fill="none" stroke="white" stroke-width="1.5" d="M0,-3.0v7 M-2.5,-0.5L0,-3.0L2.5,-0.5"/>
                </g>
                <g id="arrowRight" xlink:href="#dirArrow" transform="rotate(90) translate(36 -43)" onmousedown="handlePan(1,0)">
                  <use xlink:href="#rim" fill="#404040">
                        <set attributeName="fill" to="#808080" begin="arrowRight.mouseover" end="arrowRight.mouseout"/>
                  </use>
                  <path fill="none" stroke="white" stroke-width="1.5" d="M0,-3.0v7 M-2.5,-0.5L0,-3.0L2.5,-0.5"/>
                </g>
                <g id="arrowDown" xlink:href="#dirArrow" transform="rotate(180) translate(-30 -48)" onmousedown="handlePan(0,1)">
                  <use xlink:href="#rim" fill="#404040">
                        <set attributeName="fill" to="#808080" begin="arrowDown.mouseover" end="arrowDown.mouseout"/>
                  </use>
                  <path fill="none" stroke="white" stroke-width="1.5" d="M0,-3.0v7 M-2.5,-0.5L0,-3.0L2.5,-0.5"/>
                </g>
                <g id="arrowLeft" xlink:href="#dirArrow" transform="rotate(270) translate(-36 17)" onmousedown="handlePan(-1,0)">
                  <use xlink:href="#rim" fill="#404040">
                        <set attributeName="fill" to="#808080" begin="arrowLeft.mouseover" end="arrowLeft.mouseout"/>
                  </use>
                  <path fill="none" stroke="white" stroke-width="1.5" d="M0,-3.0v7 M-2.5,-0.5L0,-3.0L2.5,-0.5"/>
                </g>
        </g>
        <svg viewBox="0 0 15 15" width="100%" height="30px" preserveAspectRatio="xMaxYMin meet">
         <g id="arrow_out" transform="scale(0.3 0.3)">
          <a xlink:href="_kelvin_8cpp__incl_org.svg" target="_base">
           <rect id="button" ry="5" rx="5" y="6" x="6" height="38" width="38"
                fill="#f2f5e9" fill-opacity="0.5" stroke="#606060" stroke-width="1.0"/>
           <path id="arrow"
             d="M 11.500037,31.436501 C 11.940474,20.09759 22.043105,11.32322 32.158766,21.979434 L 37.068811,17.246167 C 37.068811,17.246167 37.088388,32 37.088388,32 L 22.160133,31.978069 C 22.160133,31.978069 26.997745,27.140456 26.997745,27.140456 C 18.528582,18.264221 13.291696,25.230495 11.500037,31.436501 z"
             style="fill:#404040;"/>
          </a>
         </g>
        </svg>
</svg>
