<?xml version="1.0" encoding="UTF-8" standalone="no"?>
<!DOCTYPE svg PUBLIC "-//W3C//DTD SVG 1.1//EN"
 "http://www.w3.org/Graphics/SVG/1.1/DTD/svg11.dtd">
<!-- Generated by graphviz version 2.43.0 (0)
 -->
<!-- Title: SectionShellData Pages: 1 -->
<svg width="538pt" height="358pt"
 viewBox="0.00 0.00 537.50 358.00" xmlns="http://www.w3.org/2000/svg" xmlns:xlink="http://www.w3.org/1999/xlink">
<g id="graph0" class="graph" transform="scale(1 1) rotate(0) translate(4 354)">
<title>SectionShellData</title>
<polygon fill="white" stroke="transparent" points="-4,4 -4,-354 533.5,-354 533.5,4 -4,4"/>
<!-- Node1 -->
<g id="node1" class="node">
<title>Node1</title>
<g id="a_node1"><a xlink:title=" ">
<polygon fill="#bfbfbf" stroke="black" points="139,-0.5 139,-84.5 324,-84.5 324,-0.5 139,-0.5"/>
<text text-anchor="middle" x="231.5" y="-71.7" font-family="Consolas" font-size="11.00">SectionShellData</text>
<polyline fill="none" stroke="black" points="139,-64.5 324,-64.5 "/>
<text text-anchor="start" x="147" y="-51.7" font-family="Consolas" font-size="11.00">+ trial_plate_strain</text>
<text text-anchor="start" x="147" y="-39.7" font-family="Consolas" font-size="11.00">+ trial_plate_strain_rate</text>
<text text-anchor="start" x="147" y="-27.7" font-family="Consolas" font-size="11.00">+ trial_plate_stress</text>
<polyline fill="none" stroke="black" points="139,-20.5 324,-20.5 "/>
<text text-anchor="middle" x="231.5" y="-7.7" font-family="Consolas" font-size="11.00"> </text>
</a>
</g>
</g>
<!-- Node2 -->
<g id="node2" class="node">
<title>Node2</title>
<g id="a_node2"><a xlink:title=" ">
<polygon fill="white" stroke="#bfbfbf" points="0,-289.5 0,-349.5 37,-349.5 37,-289.5 0,-289.5"/>
<text text-anchor="middle" x="18.5" y="-336.7" font-family="Consolas" font-size="11.00">mat</text>
<polyline fill="none" stroke="#bfbfbf" points="0,-329.5 37,-329.5 "/>
<text text-anchor="middle" x="18.5" y="-316.7" font-family="Consolas" font-size="11.00"> </text>
<polyline fill="none" stroke="#bfbfbf" points="0,-309.5 37,-309.5 "/>
<text text-anchor="middle" x="18.5" y="-296.7" font-family="Consolas" font-size="11.00"> </text>
</a>
</g>
</g>
<!-- Node2&#45;&gt;Node1 -->
<g id="edge1" class="edge">
<title>Node2&#45;&gt;Node1</title>
<path fill="none" stroke="#404040" d="M11.77,-289.33C3.17,-244.06 -5.87,-156.57 37.5,-103 59.51,-75.81 93.63,-60.76 127.16,-52.53"/>
<polygon fill="none" stroke="#404040" points="127.26,-52.51 132.24,-47.29 138.97,-49.89 133.99,-55.1 127.26,-52.51"/>
<text text-anchor="middle" x="132.5" y="-214.2" font-family="Consolas" font-size="11.00"> +current_membrane_stiffness</text>
<text text-anchor="middle" x="132.5" y="-202.2" font-family="Consolas" font-size="11.00">+current_plate_stiffness</text>
<text text-anchor="middle" x="132.5" y="-190.2" font-family="Consolas" font-size="11.00">+initial_membrane_stiffness</text>
<text text-anchor="middle" x="132.5" y="-178.2" font-family="Consolas" font-size="11.00">+initial_plate_stiffness</text>
<text text-anchor="middle" x="132.5" y="-166.2" font-family="Consolas" font-size="11.00">+trial_membrane_stiffness</text>
<text text-anchor="middle" x="132.5" y="-154.2" font-family="Consolas" font-size="11.00">+trial_plate_stiffness</text>
</g>
<!-- Node3 -->
<g id="node3" class="node">
<title>Node3</title>
<g id="a_node3"><a xlink:title=" ">
<polygon fill="white" stroke="#bfbfbf" points="213,-289.5 213,-349.5 250,-349.5 250,-289.5 213,-289.5"/>
<text text-anchor="middle" x="231.5" y="-336.7" font-family="Consolas" font-size="11.00">vec</text>
<polyline fill="none" stroke="#bfbfbf" points="213,-329.5 250,-329.5 "/>
<text text-anchor="middle" x="231.5" y="-316.7" font-family="Consolas" font-size="11.00"> </text>
<polyline fill="none" stroke="#bfbfbf" points="213,-309.5 250,-309.5 "/>
<text text-anchor="middle" x="231.5" y="-296.7" font-family="Consolas" font-size="11.00"> </text>
</a>
</g>
</g>
<!-- Node3&#45;&gt;Node1 -->
<g id="edge2" class="edge">
<title>Node3&#45;&gt;Node1</title>
<path fill="none" stroke="#404040" d="M231.5,-289.33C231.5,-243.61 231.5,-154.38 231.5,-96.93"/>
<polygon fill="none" stroke="#404040" points="231.5,-96.83 227.5,-90.83 231.5,-84.83 235.5,-90.83 231.5,-96.83"/>
<text text-anchor="middle" x="316" y="-262.2" font-family="Consolas" font-size="11.00"> +current_membrane_strain</text>
<text text-anchor="start" x="231.5" y="-250.2" font-family="Consolas" font-size="11.00">+current_membrane_strain</text>
<text text-anchor="middle" x="316" y="-238.2" font-family="Consolas" font-size="11.00">_rate</text>
<text text-anchor="middle" x="316" y="-226.2" font-family="Consolas" font-size="11.00">+current_membrane_stress</text>
<text text-anchor="middle" x="316" y="-214.2" font-family="Consolas" font-size="11.00">+current_plate_strain</text>
<text text-anchor="start" x="231.5" y="-202.2" font-family="Consolas" font-size="11.00">+current_plate_strain</text>
<text text-anchor="middle" x="316" y="-190.2" font-family="Consolas" font-size="11.00">_rate</text>
<text text-anchor="middle" x="316" y="-178.2" font-family="Consolas" font-size="11.00">+current_plate_stress</text>
<text text-anchor="middle" x="316" y="-166.2" font-family="Consolas" font-size="11.00">+eccentricity</text>
<text text-anchor="middle" x="316" y="-154.2" font-family="Consolas" font-size="11.00">+trial_membrane_strain</text>
<text text-anchor="start" x="231.5" y="-142.2" font-family="Consolas" font-size="11.00">+trial_membrane_strain</text>
<text text-anchor="middle" x="316" y="-130.2" font-family="Consolas" font-size="11.00">_rate</text>
<text text-anchor="middle" x="316" y="-118.2" font-family="Consolas" font-size="11.00">+trial_membrane_stress</text>
<text text-anchor="middle" x="316" y="-106.2" font-family="Consolas" font-size="11.00">...</text>
</g>
<!-- Node4 -->
<g id="node4" class="node">
<title>Node4</title>
<g id="a_node4"><a xlink:title=" ">
<polygon fill="white" stroke="#bfbfbf" points="388,-289.5 388,-349.5 459,-349.5 459,-289.5 388,-289.5"/>
<text text-anchor="middle" x="423.5" y="-336.7" font-family="Consolas" font-size="11.00">unsigned</text>
<polyline fill="none" stroke="#bfbfbf" points="388,-329.5 459,-329.5 "/>
<text text-anchor="middle" x="423.5" y="-316.7" font-family="Consolas" font-size="11.00"> </text>
<polyline fill="none" stroke="#bfbfbf" points="388,-309.5 459,-309.5 "/>
<text text-anchor="middle" x="423.5" y="-296.7" font-family="Consolas" font-size="11.00"> </text>
</a>
</g>
</g>
<!-- Node4&#45;&gt;Node1 -->
<g id="edge3" class="edge">
<title>Node4&#45;&gt;Node1</title>
<path fill="none" stroke="#404040" d="M429.49,-289.47C437.01,-244.41 444.24,-157.18 401.5,-103 385.04,-82.14 360.78,-68.57 335.7,-59.75"/>
<polygon fill="none" stroke="#404040" points="335.57,-59.71 328.63,-61.67 324.15,-56.02 331.08,-54.06 335.57,-59.71"/>
<text text-anchor="middle" x="482" y="-184.2" font-family="Consolas" font-size="11.00"> +material_tag</text>
</g>
</g>
</svg>
