<?xml version="1.0" encoding="UTF-8" standalone="no"?>
<!DOCTYPE svg PUBLIC "-//W3C//DTD SVG 1.1//EN"
 "http://www.w3.org/Graphics/SVG/1.1/DTD/svg11.dtd">
<!-- Generated by graphviz version 8.1.0 (20230707.0739)
 -->
<!-- Title: GroupNodalDisplacement::initialize Pages: 1 -->
<svg width="726pt" height="188pt"
 viewBox="0.00 0.00 726.00 188.25" xmlns="http://www.w3.org/2000/svg" xmlns:xlink="http://www.w3.org/1999/xlink">
<g id="graph0" class="graph" transform="scale(1 1) rotate(0) translate(4 184.25)">
<title>GroupNodalDisplacement::initialize</title>
<!-- Node1 -->
<g id="Node000001" class="node">
<title>Node1</title>
<g id="a_Node000001"><a xlink:title=" ">
<polygon fill="#999999" stroke="#666666" points="148,-77.25 0,-77.25 0,-42.25 148,-42.25 148,-77.25"/>
<text text-anchor="start" x="8" y="-62.8" font-family="Consolas" font-size="11.00">GroupNodalDisplacement</text>
<text text-anchor="middle" x="74" y="-49.3" font-family="Consolas" font-size="11.00">::initialize</text>
</a>
</g>
</g>
<!-- Node2 -->
<g id="Node000002" class="node">
<title>Node2</title>
<g id="a_Node000002"><a xlink:href="../../d2/ddb/class_nodal_displacement.html#aeccbc63cf4beda7f09adf6fc263361d2" target="_top" xlink:title=" ">
<polygon fill="white" stroke="#666666" points="341,-113.25 211,-113.25 211,-78.25 341,-78.25 341,-113.25"/>
<text text-anchor="start" x="219" y="-98.8" font-family="Consolas" font-size="11.00">NodalDisplacement::</text>
<text text-anchor="middle" x="276" y="-85.3" font-family="Consolas" font-size="11.00">initialize</text>
</a>
</g>
</g>
<!-- Node1&#45;&gt;Node2 -->
<g id="edge1_Node000001_Node000002" class="edge">
<title>Node1&#45;&gt;Node2</title>
<g id="a_edge1_Node000001_Node000002"><a xlink:title=" ">
<path fill="none" stroke="#63b8ff" d="M148.34,-72.95C165.23,-75.99 183.22,-79.23 200.18,-82.28"/>
<polygon fill="#63b8ff" stroke="#63b8ff" points="199.12,-85.83 209.59,-84.16 200.36,-78.94 199.12,-85.83"/>
</a>
</g>
</g>
<!-- Node8 -->
<g id="Node000008" class="node">
<title>Node8</title>
<g id="a_Node000008"><a xlink:href="../../d9/d3d/class_group_load.html#a0e6af89779a67c64905677e629249ae2" target="_top" xlink:title=" ">
<polygon fill="white" stroke="#666666" points="368,-47.5 184,-47.5 184,-26 368,-26 368,-47.5"/>
<text text-anchor="middle" x="276" y="-33.05" font-family="Consolas" font-size="11.00">GroupLoad::update_object_tag</text>
</a>
</g>
</g>
<!-- Node1&#45;&gt;Node8 -->
<g id="edge7_Node000001_Node000008" class="edge">
<title>Node1&#45;&gt;Node8</title>
<g id="a_edge7_Node000001_Node000008"><a xlink:title=" ">
<path fill="none" stroke="#63b8ff" d="M148.34,-51.32C156.32,-50.4 164.55,-49.45 172.8,-48.5"/>
<polygon fill="#63b8ff" stroke="#63b8ff" points="173.1,-51.88 182.64,-47.26 172.3,-44.92 173.1,-51.88"/>
</a>
</g>
</g>
<!-- Node3 -->
<g id="Node000003" class="node">
<title>Node3</title>
<g id="a_Node000003"><a xlink:href="../../da/d44/class_conditional_modifier.html#ab56377bd1f1c50851b2d832199f898da" target="_top" xlink:title="Generate active DoF vector from assigned nodes.">
<polygon fill="white" stroke="#666666" points="552,-180.25 404,-180.25 404,-145.25 552,-145.25 552,-180.25"/>
<text text-anchor="start" x="412" y="-165.8" font-family="Consolas" font-size="11.00">ConditionalModifier</text>
<text text-anchor="middle" x="478" y="-152.3" font-family="Consolas" font-size="11.00">::get_nodal_active_dof</text>
</a>
</g>
</g>
<!-- Node2&#45;&gt;Node3 -->
<g id="edge2_Node000002_Node000003" class="edge">
<title>Node2&#45;&gt;Node3</title>
<g id="a_edge2_Node000002_Node000003"><a xlink:title=" ">
<path fill="none" stroke="#63b8ff" d="M330.6,-113.7C356.03,-122.23 386.61,-132.47 413.23,-141.39"/>
<polygon fill="#63b8ff" stroke="#63b8ff" points="412.01,-145 422.6,-144.86 414.23,-138.37 412.01,-145"/>
</a>
</g>
</g>
<!-- Node5 -->
<g id="Node000005" class="node">
<title>Node5</title>
<g id="a_Node000005"><a xlink:href="../../da/d44/class_conditional_modifier.html#a2e571329c1c399e8e472d34257e4af4e" target="_top" xlink:title=" ">
<polygon fill="white" stroke="#666666" points="543,-127.25 413,-127.25 413,-92.25 543,-92.25 543,-127.25"/>
<text text-anchor="start" x="421" y="-112.8" font-family="Consolas" font-size="11.00">ConditionalModifier</text>
<text text-anchor="middle" x="478" y="-99.3" font-family="Consolas" font-size="11.00">::initialize</text>
</a>
</g>
</g>
<!-- Node2&#45;&gt;Node5 -->
<g id="edge4_Node000002_Node000005" class="edge">
<title>Node2&#45;&gt;Node5</title>
<g id="a_edge4_Node000002_Node000005"><a xlink:title=" ">
<path fill="none" stroke="#63b8ff" d="M341.38,-100.26C360.65,-101.61 381.95,-103.1 401.85,-104.49"/>
<polygon fill="#63b8ff" stroke="#63b8ff" points="401.52,-108.04 411.74,-105.25 402.01,-101.06 401.52,-108.04"/>
</a>
</g>
</g>
<!-- Node7 -->
<g id="Node000007" class="node">
<title>Node7</title>
<g id="a_Node000007"><a xlink:href="../../da/d44/class_conditional_modifier.html#a460260d484f2d2392703a47a4ab6a489" target="_top" xlink:title=" ">
<polygon fill="white" stroke="#666666" points="543,-74.25 413,-74.25 413,-39.25 543,-39.25 543,-74.25"/>
<text text-anchor="start" x="421" y="-59.8" font-family="Consolas" font-size="11.00">ConditionalModifier</text>
<text text-anchor="middle" x="478" y="-46.3" font-family="Consolas" font-size="11.00">::set_end_step</text>
</a>
</g>
</g>
<!-- Node2&#45;&gt;Node7 -->
<g id="edge6_Node000002_Node000007" class="edge">
<title>Node2&#45;&gt;Node7</title>
<g id="a_edge6_Node000002_Node000007"><a xlink:title=" ">
<path fill="none" stroke="#63b8ff" d="M341.38,-83.2C360.74,-79.42 382.15,-75.25 402.13,-71.35"/>
<polygon fill="#63b8ff" stroke="#63b8ff" points="402.59,-74.63 411.74,-69.28 401.25,-67.76 402.59,-74.63"/>
</a>
</g>
</g>
<!-- Node4 -->
<g id="Node000004" class="node">
<title>Node4</title>
<g id="a_Node000004"><a xlink:href="../../d0/d57/class_tag.html#aeef9db4fab02b36358265f378e703986" target="_top" xlink:title=" ">
<polygon fill="white" stroke="#666666" points="703,-173.5 603,-173.5 603,-152 703,-152 703,-173.5"/>
<text text-anchor="middle" x="653" y="-159.05" font-family="Consolas" font-size="11.00">Tag::is_active</text>
</a>
</g>
</g>
<!-- Node3&#45;&gt;Node4 -->
<g id="edge3_Node000003_Node000004" class="edge">
<title>Node3&#45;&gt;Node4</title>
<g id="a_edge3_Node000003_Node000004"><a xlink:title=" ">
<path fill="none" stroke="#63b8ff" d="M552.37,-162.75C565.47,-162.75 578.99,-162.75 591.68,-162.75"/>
<polygon fill="#63b8ff" stroke="#63b8ff" points="591.58,-166.25 601.58,-162.75 591.58,-159.25 591.58,-166.25"/>
</a>
</g>
</g>
<!-- Node6 -->
<g id="Node000006" class="node">
<title>Node6</title>
<g id="a_Node000006"><a xlink:href="../../da/d44/class_conditional_modifier.html#a0488922ba5528bfa82bb1ce971c55cf2" target="_top" xlink:title=" ">
<polygon fill="white" stroke="#666666" points="718,-127.25 588,-127.25 588,-92.25 718,-92.25 718,-127.25"/>
<text text-anchor="start" x="596" y="-112.8" font-family="Consolas" font-size="11.00">ConditionalModifier</text>
<text text-anchor="middle" x="653" y="-99.3" font-family="Consolas" font-size="11.00">::set_initialized</text>
</a>
</g>
</g>
<!-- Node5&#45;&gt;Node6 -->
<g id="edge5_Node000005_Node000006" class="edge">
<title>Node5&#45;&gt;Node6</title>
<g id="a_edge5_Node000005_Node000006"><a xlink:title=" ">
<path fill="none" stroke="#63b8ff" d="M543.42,-109.75C554.23,-109.75 565.53,-109.75 576.58,-109.75"/>
<polygon fill="#63b8ff" stroke="#63b8ff" points="576.53,-113.25 586.53,-109.75 576.53,-106.25 576.53,-113.25"/>
</a>
</g>
</g>
<!-- Node9 -->
<g id="Node000009" class="node">
<title>Node9</title>
<g id="a_Node000009"><a xlink:href="../../da/d50/class_group.html#a69012551990847ee4e964272a5b34c79" target="_top" xlink:title=" ">
<polygon fill="white" stroke="#666666" points="531,-21.5 425,-21.5 425,0 531,0 531,-21.5"/>
<text text-anchor="middle" x="478" y="-7.05" font-family="Consolas" font-size="11.00">Group::get_pool</text>
</a>
</g>
</g>
<!-- Node8&#45;&gt;Node9 -->
<g id="edge8_Node000008_Node000009" class="edge">
<title>Node8&#45;&gt;Node9</title>
<g id="a_edge8_Node000008_Node000009"><a xlink:title=" ">
<path fill="none" stroke="#63b8ff" d="M363.27,-25.54C380.28,-23.32 397.83,-21.04 413.9,-18.95"/>
<polygon fill="#63b8ff" stroke="#63b8ff" points="414.29,-22.3 423.76,-17.54 413.39,-15.36 414.29,-22.3"/>
</a>
</g>
</g>
</g>
</svg>
