<?xml version="1.0" encoding="UTF-8" standalone="no"?>
<!DOCTYPE svg PUBLIC "-//W3C//DTD SVG 1.1//EN"
 "http://www.w3.org/Graphics/SVG/1.1/DTD/svg11.dtd">
<!-- Generated by graphviz version 2.43.0 (0)
 -->
<!-- Title: UniversalOS Pages: 1 -->
<svg width="520pt" height="853pt"
 viewBox="0.00 0.00 519.50 853.00" xmlns="http://www.w3.org/2000/svg" xmlns:xlink="http://www.w3.org/1999/xlink">
<g id="graph0" class="graph" transform="scale(1 1) rotate(0) translate(4 849)">
<title>UniversalOS</title>
<polygon fill="white" stroke="transparent" points="-4,4 -4,-849 515.5,-849 515.5,4 -4,4"/>
<!-- Node1 -->
<g id="node1" class="node">
<title>Node1</title>
<g id="a_node1"><a xlink:title="A UniversalOS class.">
<polygon fill="#bfbfbf" stroke="black" points="227,-109.5 227,-181.5 345,-181.5 345,-109.5 227,-109.5"/>
<text text-anchor="middle" x="286" y="-168.7" font-family="Consolas" font-size="11.00">UniversalOS</text>
<polyline fill="none" stroke="black" points="227,-161.5 345,-161.5 "/>
<text text-anchor="middle" x="286" y="-148.7" font-family="Consolas" font-size="11.00"> </text>
<polyline fill="none" stroke="black" points="227,-141.5 345,-141.5 "/>
<text text-anchor="start" x="235" y="-128.7" font-family="Consolas" font-size="11.00">+ UniversalOS()</text>
<text text-anchor="start" x="235" y="-116.7" font-family="Consolas" font-size="11.00">+ print()</text>
</a>
</g>
</g>
<!-- Node7 -->
<g id="node7" class="node">
<title>Node7</title>
<g id="a_node7"><a xlink:href="../../d5/da7/class_o_s146.html" target="_top" xlink:title=" ">
<polygon fill="white" stroke="black" points="237,-0.5 237,-72.5 335,-72.5 335,-0.5 237,-0.5"/>
<text text-anchor="middle" x="286" y="-59.7" font-family="Consolas" font-size="11.00">OS146</text>
<polyline fill="none" stroke="black" points="237,-52.5 335,-52.5 "/>
<text text-anchor="middle" x="286" y="-39.7" font-family="Consolas" font-size="11.00"> </text>
<polyline fill="none" stroke="black" points="237,-32.5 335,-32.5 "/>
<text text-anchor="start" x="245" y="-19.7" font-family="Consolas" font-size="11.00">+ OS146()</text>
<text text-anchor="start" x="245" y="-7.7" font-family="Consolas" font-size="11.00">+ get_copy()</text>
</a>
</g>
</g>
<!-- Node1&#45;&gt;Node7 -->
<g id="edge6" class="edge">
<title>Node1&#45;&gt;Node7</title>
<path fill="none" stroke="midnightblue" d="M286,-99.22C286,-90.33 286,-81.12 286,-72.61"/>
<polygon fill="none" stroke="midnightblue" points="282.5,-99.46 286,-109.46 289.5,-99.46 282.5,-99.46"/>
</g>
<!-- Node2 -->
<g id="node2" class="node">
<title>Node2</title>
<g id="a_node2"><a xlink:href="../../d7/da6/class_stress_wrapper.html" target="_top" xlink:title="A StressWrapper class.">
<polygon fill="white" stroke="black" points="200,-218.5 200,-362.5 372,-362.5 372,-218.5 200,-218.5"/>
<text text-anchor="middle" x="286" y="-349.7" font-family="Consolas" font-size="11.00">StressWrapper</text>
<polyline fill="none" stroke="black" points="200,-342.5 372,-342.5 "/>
<text text-anchor="start" x="208" y="-329.7" font-family="Consolas" font-size="11.00"># base</text>
<polyline fill="none" stroke="black" points="200,-322.5 372,-322.5 "/>
<text text-anchor="start" x="208" y="-309.7" font-family="Consolas" font-size="11.00">+ StressWrapper()</text>
<text text-anchor="start" x="208" y="-297.7" font-family="Consolas" font-size="11.00">+ initialize()</text>
<text text-anchor="start" x="208" y="-285.7" font-family="Consolas" font-size="11.00">+ get_parameter()</text>
<text text-anchor="start" x="208" y="-273.7" font-family="Consolas" font-size="11.00">+ update_trial_status()</text>
<text text-anchor="start" x="208" y="-261.7" font-family="Consolas" font-size="11.00">+ clear_status()</text>
<text text-anchor="start" x="208" y="-249.7" font-family="Consolas" font-size="11.00">+ commit_status()</text>
<text text-anchor="start" x="208" y="-237.7" font-family="Consolas" font-size="11.00">+ reset_status()</text>
<text text-anchor="start" x="208" y="-225.7" font-family="Consolas" font-size="11.00">+ record()</text>
</a>
</g>
</g>
<!-- Node2&#45;&gt;Node1 -->
<g id="edge1" class="edge">
<title>Node2&#45;&gt;Node1</title>
<path fill="none" stroke="midnightblue" d="M286,-208.28C286,-198.99 286,-189.92 286,-181.72"/>
<polygon fill="none" stroke="midnightblue" points="282.5,-208.42 286,-218.42 289.5,-208.42 282.5,-208.42"/>
</g>
<!-- Node3 -->
<g id="node3" class="node">
<title>Node3</title>
<g id="a_node3"><a xlink:href="../../dc/dee/class_material.html" target="_top" xlink:title="A Material abstract base class.">
<polygon fill="white" stroke="black" points="207,-399.5 207,-579.5 365,-579.5 365,-399.5 207,-399.5"/>
<text text-anchor="middle" x="286" y="-566.7" font-family="Consolas" font-size="11.00">Material</text>
<polyline fill="none" stroke="black" points="207,-559.5 365,-559.5 "/>
<text text-anchor="middle" x="286" y="-546.7" font-family="Consolas" font-size="11.00"> </text>
<polyline fill="none" stroke="black" points="207,-539.5 365,-539.5 "/>
<text text-anchor="start" x="215" y="-526.7" font-family="Consolas" font-size="11.00">+ Material()</text>
<text text-anchor="start" x="215" y="-514.7" font-family="Consolas" font-size="11.00">+ Material()</text>
<text text-anchor="start" x="215" y="-502.7" font-family="Consolas" font-size="11.00">+ Material()</text>
<text text-anchor="start" x="215" y="-490.7" font-family="Consolas" font-size="11.00">+ operator=()</text>
<text text-anchor="start" x="215" y="-478.7" font-family="Consolas" font-size="11.00">+ operator=()</text>
<text text-anchor="start" x="215" y="-466.7" font-family="Consolas" font-size="11.00">+ ~Material()</text>
<text text-anchor="start" x="215" y="-454.7" font-family="Consolas" font-size="11.00">+ get_density()</text>
<text text-anchor="start" x="215" y="-442.7" font-family="Consolas" font-size="11.00">+ get_material_type()</text>
<text text-anchor="start" x="215" y="-430.7" font-family="Consolas" font-size="11.00">+ get_plane_type()</text>
<text text-anchor="start" x="215" y="-418.7" font-family="Consolas" font-size="11.00">+ initialize_base()</text>
<text text-anchor="start" x="215" y="-406.7" font-family="Consolas" font-size="11.00">and 72 more...</text>
</a>
</g>
</g>
<!-- Node3&#45;&gt;Node2 -->
<g id="edge2" class="edge">
<title>Node3&#45;&gt;Node2</title>
<path fill="none" stroke="midnightblue" d="M286,-389.17C286,-380.26 286,-371.36 286,-362.76"/>
<polygon fill="none" stroke="midnightblue" points="282.5,-389.22 286,-399.22 289.5,-389.22 282.5,-389.22"/>
</g>
<!-- Node4 -->
<g id="node4" class="node">
<title>Node4</title>
<g id="a_node4"><a xlink:href="../../de/de9/struct_data_material.html" target="_top" xlink:title=" ">
<polygon fill="white" stroke="black" points="0,-640.5 0,-820.5 172,-820.5 172,-640.5 0,-640.5"/>
<text text-anchor="middle" x="86" y="-807.7" font-family="Consolas" font-size="11.00">DataMaterial</text>
<polyline fill="none" stroke="black" points="0,-800.5 172,-800.5 "/>
<text text-anchor="start" x="8" y="-787.7" font-family="Consolas" font-size="11.00">+ density</text>
<text text-anchor="start" x="8" y="-775.7" font-family="Consolas" font-size="11.00">+ material_type</text>
<text text-anchor="start" x="8" y="-763.7" font-family="Consolas" font-size="11.00">+ plane_type</text>
<text text-anchor="start" x="8" y="-751.7" font-family="Consolas" font-size="11.00">+ tolerance</text>
<text text-anchor="start" x="8" y="-739.7" font-family="Consolas" font-size="11.00">+ characteristic_length</text>
<text text-anchor="start" x="8" y="-727.7" font-family="Consolas" font-size="11.00">+ current_strain</text>
<text text-anchor="start" x="8" y="-715.7" font-family="Consolas" font-size="11.00">+ current_strain_rate</text>
<text text-anchor="start" x="8" y="-703.7" font-family="Consolas" font-size="11.00">+ current_strain_acc</text>
<text text-anchor="start" x="8" y="-691.7" font-family="Consolas" font-size="11.00">+ current_stress</text>
<text text-anchor="start" x="8" y="-679.7" font-family="Consolas" font-size="11.00">+ trial_strain</text>
<text text-anchor="start" x="8" y="-667.7" font-family="Consolas" font-size="11.00">and 19 more...</text>
<polyline fill="none" stroke="black" points="0,-660.5 172,-660.5 "/>
<text text-anchor="middle" x="86" y="-647.7" font-family="Consolas" font-size="11.00"> </text>
</a>
</g>
</g>
<!-- Node4&#45;&gt;Node3 -->
<g id="edge3" class="edge">
<title>Node4&#45;&gt;Node3</title>
<path fill="none" stroke="darkgreen" d="M167.39,-632.24C181.92,-614.87 197,-596.85 211.33,-579.73"/>
<polygon fill="none" stroke="darkgreen" points="164.49,-630.25 160.76,-640.17 169.86,-634.74 164.49,-630.25"/>
</g>
<!-- Node5 -->
<g id="node5" class="node">
<title>Node5</title>
<g id="a_node5"><a xlink:href="../../da/de4/struct_data_couple_material.html" target="_top" xlink:title=" ">
<polygon fill="white" stroke="black" points="190,-652.5 190,-808.5 382,-808.5 382,-652.5 190,-652.5"/>
<text text-anchor="middle" x="286" y="-795.7" font-family="Consolas" font-size="11.00">DataCoupleMaterial</text>
<polyline fill="none" stroke="black" points="190,-788.5 382,-788.5 "/>
<text text-anchor="start" x="198" y="-775.7" font-family="Consolas" font-size="11.00">+ current_curvature</text>
<text text-anchor="start" x="198" y="-763.7" font-family="Consolas" font-size="11.00">+ current_couple_stress</text>
<text text-anchor="start" x="198" y="-751.7" font-family="Consolas" font-size="11.00">+ trial_curvature</text>
<text text-anchor="start" x="198" y="-739.7" font-family="Consolas" font-size="11.00">+ trial_couple_stress</text>
<text text-anchor="start" x="198" y="-727.7" font-family="Consolas" font-size="11.00">+ incre_curvature</text>
<text text-anchor="start" x="198" y="-715.7" font-family="Consolas" font-size="11.00">+ incre_couple_stress</text>
<text text-anchor="start" x="198" y="-703.7" font-family="Consolas" font-size="11.00">+ initial_couple_stiffness</text>
<text text-anchor="start" x="198" y="-691.7" font-family="Consolas" font-size="11.00">+ current_couple_stiffness</text>
<text text-anchor="start" x="198" y="-679.7" font-family="Consolas" font-size="11.00">+ trial_couple_stiffness</text>
<polyline fill="none" stroke="black" points="190,-672.5 382,-672.5 "/>
<text text-anchor="middle" x="286" y="-659.7" font-family="Consolas" font-size="11.00"> </text>
</a>
</g>
</g>
<!-- Node5&#45;&gt;Node3 -->
<g id="edge4" class="edge">
<title>Node5&#45;&gt;Node3</title>
<path fill="none" stroke="darkgreen" d="M286,-642.04C286,-621.68 286,-599.98 286,-579.55"/>
<polygon fill="none" stroke="darkgreen" points="282.5,-642.23 286,-652.23 289.5,-642.23 282.5,-642.23"/>
</g>
<!-- Node6 -->
<g id="node6" class="node">
<title>Node6</title>
<g id="a_node6"><a xlink:href="../../d0/d57/class_tag.html" target="_top" xlink:title="A base Tag class.">
<polygon fill="white" stroke="black" points="400.5,-616.5 400.5,-844.5 511.5,-844.5 511.5,-616.5 400.5,-616.5"/>
<text text-anchor="middle" x="456" y="-831.7" font-family="Consolas" font-size="11.00">Tag</text>
<polyline fill="none" stroke="black" points="400.5,-824.5 511.5,-824.5 "/>
<text text-anchor="middle" x="456" y="-811.7" font-family="Consolas" font-size="11.00"> </text>
<polyline fill="none" stroke="black" points="400.5,-804.5 511.5,-804.5 "/>
<text text-anchor="start" x="408.5" y="-791.7" font-family="Consolas" font-size="11.00">+ Tag()</text>
<text text-anchor="start" x="408.5" y="-779.7" font-family="Consolas" font-size="11.00">+ Tag()</text>
<text text-anchor="start" x="408.5" y="-767.7" font-family="Consolas" font-size="11.00">+ Tag()</text>
<text text-anchor="start" x="408.5" y="-755.7" font-family="Consolas" font-size="11.00">+ operator=()</text>
<text text-anchor="start" x="408.5" y="-743.7" font-family="Consolas" font-size="11.00">+ operator=()</text>
<text text-anchor="start" x="408.5" y="-731.7" font-family="Consolas" font-size="11.00">+ ~Tag()</text>
<text text-anchor="start" x="408.5" y="-719.7" font-family="Consolas" font-size="11.00">+ set_tag()</text>
<text text-anchor="start" x="408.5" y="-707.7" font-family="Consolas" font-size="11.00">+ get_tag()</text>
<text text-anchor="start" x="408.5" y="-695.7" font-family="Consolas" font-size="11.00">+ enable()</text>
<text text-anchor="start" x="408.5" y="-683.7" font-family="Consolas" font-size="11.00">+ disable()</text>
<text text-anchor="start" x="408.5" y="-671.7" font-family="Consolas" font-size="11.00">+ guard()</text>
<text text-anchor="start" x="408.5" y="-659.7" font-family="Consolas" font-size="11.00">+ unguard()</text>
<text text-anchor="start" x="408.5" y="-647.7" font-family="Consolas" font-size="11.00">+ is_active()</text>
<text text-anchor="start" x="408.5" y="-635.7" font-family="Consolas" font-size="11.00">+ is_guarded()</text>
<text text-anchor="start" x="408.5" y="-623.7" font-family="Consolas" font-size="11.00">+ print()</text>
</a>
</g>
</g>
<!-- Node6&#45;&gt;Node3 -->
<g id="edge5" class="edge">
<title>Node6&#45;&gt;Node3</title>
<path fill="none" stroke="midnightblue" d="M394.87,-621.64C393.58,-619.74 392.29,-617.85 391,-616 382.64,-603.99 373.39,-591.74 363.95,-579.82"/>
<polygon fill="none" stroke="midnightblue" points="392.04,-623.71 400.47,-630.12 397.88,-619.85 392.04,-623.71"/>
</g>
</g>
</svg>
