<?xml version="1.0" encoding="UTF-8" standalone="no"?>
<!DOCTYPE svg PUBLIC "-//W3C//DTD SVG 1.1//EN"
 "http://www.w3.org/Graphics/SVG/1.1/DTD/svg11.dtd">
<!-- Generated by graphviz version 9.0.0 (20230911.1827)
 -->
<!-- Title: Element/Special/Damper01.cpp Pages: 1 -->
<!--zoomable 517 -->

<svg id="main" version="1.1" xmlns="http://www.w3.org/2000/svg" xmlns:xlink="http://www.w3.org/1999/xlink" xml:space="preserve" onload="init(evt)">
<style type="text/css"><![CDATA[
.node, .edge {opacity: 0.7;}
.node.selected, .edge.selected {opacity: 1;}
.edge:hover path { stroke: red; }
.edge:hover polygon { stroke: red; fill: red; }
]]></style>

<defs>
  <circle id="rim" cx="0" cy="0" r="7"/>
  <circle id="rim2" cx="0" cy="0" r="3.5"/>
  <g id="zoomPlus">
    <use xlink:href="#rim" fill="#404040"><set attributeName="fill" to="#808080" begin="zoomplus.mouseover" end="zoomplus.mouseout"/></use>
    <path d="M-4,0h8M0,-4v8" fill="none" stroke="white" stroke-width="1.5" pointer-events="none"/>
  </g>
  <g id="zoomMin">
    <use xlink:href="#rim" fill="#404040"><set attributeName="fill" to="#808080" begin="zoomminus.mouseover" end="zoomminus.mouseout"/></use>
    <path d="M-4,0h8" fill="none" stroke="white" stroke-width="1.5" pointer-events="none"/>
  </g>
  <g id="arrowUp" transform="translate(30 24)">
    <use xlink:href="#rim"/>
    <path pointer-events="none" fill="none" stroke="white" stroke-width="1.5" d="M0,-3.0v7 M-2.5,-0.5L0,-3.0L2.5,-0.5"/>
  </g>
  <g id="arrowRight" transform="rotate(90) translate(36 -43)">
    <use xlink:href="#rim"/>
    <path pointer-events="none" fill="none" stroke="white" stroke-width="1.5" d="M0,-3.0v7 M-2.5,-0.5L0,-3.0L2.5,-0.5"/>
  </g>
  <g id="arrowDown" transform="rotate(180) translate(-30 -48)">
    <use xlink:href="#rim"/>
    <path pointer-events="none" fill="none" stroke="white" stroke-width="1.5" d="M0,-3.0v7 M-2.5,-0.5L0,-3.0L2.5,-0.5"/>
  </g>
  <g id="arrowLeft" transform="rotate(270) translate(-36 17)">
    <use xlink:href="#rim"/>
    <path pointer-events="none" fill="none" stroke="white" stroke-width="1.5" d="M0,-3.0v7 M-2.5,-0.5L0,-3.0L2.5,-0.5"/>
  </g>
  <g id="resetDef">
    <use xlink:href="#rim2" fill="#404040"><set attributeName="fill" to="#808080" begin="reset.mouseover" end="reset.mouseout"/></use>
  </g>
</defs>
<script type="application/ecmascript">
var viewWidth = 736;
var viewHeight = 517;
var sectionId = 'dynsection-0';
</script>
<script type="application/ecmascript" xlink:href="../../svg.min.js"/>
<svg id="graph" class="graph">
<g id="viewport">
<title>Element/Special/Damper01.cpp</title>
<!-- Node1 -->
<g id="Node000001" class="node">
<title>Node1</title>
<g id="a_Node000001"><a xlink:title=" ">
<polygon fill="#999999" stroke="#666666" points="535,-508.5 351,-508.5 351,-487 535,-487 535,-508.5"/>
<text text-anchor="middle" x="443" y="-494.05" font-family="Consolas" font-size="11.00">Element/Special/Damper01.cpp</text>
</a>
</g>
</g>
<!-- Node2 -->
<g id="Node000002" class="node">
<title>Node2</title>
<g id="a_Node000002"><a xlink:href="../../d4/dce/_damper01_8h.html" target="_top" xlink:title=" ">
<polygon fill="white" stroke="#666666" points="338,-444.25 262,-444.25 262,-422.75 338,-422.75 338,-444.25"/>
<text text-anchor="middle" x="300" y="-429.8" font-family="Consolas" font-size="11.00">Damper01.h</text>
</a>
</g>
</g>
<!-- Node1&#45;&gt;Node2 -->
<g id="edge1_Node000001_Node000002" class="edge">
<title>Node1&#45;&gt;Node2</title>
<g id="a_edge1_Node000001_Node000002"><a xlink:title=" ">
<path fill="none" stroke="#63b8ff" d="M419.71,-486.61C396.33,-476.44 360.1,-460.66 333.62,-449.13"/>
<polygon fill="#63b8ff" stroke="#63b8ff" points="335.24,-446.02 324.67,-445.24 332.44,-452.44 335.24,-446.02"/>
</a>
</g>
</g>
<!-- Node18 -->
<g id="Node000018" class="node">
<title>Node18</title>
<g id="a_Node000018"><a xlink:href="../../dc/df2/_domain_base_8h.html" target="_top" xlink:title=" ">
<polygon fill="white" stroke="#666666" points="597,-200.75 467,-200.75 467,-179.25 597,-179.25 597,-200.75"/>
<text text-anchor="middle" x="532" y="-186.3" font-family="Consolas" font-size="11.00">Domain/DomainBase.h</text>
</a>
</g>
</g>
<!-- Node1&#45;&gt;Node18 -->
<g id="edge18_Node000001_Node000018" class="edge">
<title>Node1&#45;&gt;Node18</title>
<g id="a_edge18_Node000001_Node000018"><a xlink:title=" ">
<path fill="none" stroke="#63b8ff" d="M468.01,-486.54C483.99,-478.88 504.07,-466.96 517,-451 541.01,-421.37 546,-408.38 546,-370.25 546,-370.25 546,-370.25 546,-310.75 546,-276.15 540.16,-236.31 536.03,-212.42"/>
<polygon fill="#63b8ff" stroke="#63b8ff" points="539.49,-211.91 534.27,-202.69 532.6,-213.16 539.49,-211.91"/>
</a>
</g>
</g>
<!-- Node25 -->
<g id="Node000025" class="node">
<title>Node25</title>
<g id="a_Node000025"><a xlink:href="../../d4/d7c/_material1_d_8h.html" target="_top" xlink:title=" ">
<polygon fill="white" stroke="#666666" points="508,-451 378,-451 378,-416 508,-416 508,-451"/>
<text text-anchor="start" x="386" y="-436.55" font-family="Consolas" font-size="11.00">Material/Material1D</text>
<text text-anchor="middle" x="443" y="-423.05" font-family="Consolas" font-size="11.00">/Material1D.h</text>
</a>
</g>
</g>
<!-- Node1&#45;&gt;Node25 -->
<g id="edge27_Node000001_Node000025" class="edge">
<title>Node1&#45;&gt;Node25</title>
<g id="a_edge27_Node000001_Node000025"><a xlink:title=" ">
<path fill="none" stroke="#63b8ff" d="M443,-486.75C443,-480.13 443,-471.11 443,-462.42"/>
<polygon fill="#63b8ff" stroke="#63b8ff" points="446.5,-462.55 443,-452.55 439.5,-462.55 446.5,-462.55"/>
</a>
</g>
</g>
<!-- Node3 -->
<g id="Node000003" class="node">
<title>Node3</title>
<g id="a_Node000003"><a xlink:href="../../dc/d5f/_material_element_8h.html" target="_top" xlink:title=" ">
<polygon fill="white" stroke="#666666" points="340,-380 174,-380 174,-358.5 340,-358.5 340,-380"/>
<text text-anchor="middle" x="257" y="-365.55" font-family="Consolas" font-size="11.00">Element/MaterialElement.h</text>
</a>
</g>
</g>
<!-- Node2&#45;&gt;Node3 -->
<g id="edge2_Node000002_Node000003" class="edge">
<title>Node2&#45;&gt;Node3</title>
<g id="a_edge2_Node000002_Node000003"><a xlink:title=" ">
<path fill="none" stroke="#63b8ff" d="M293.09,-422.5C286.98,-413.66 277.9,-400.51 270.38,-389.62"/>
<polygon fill="#63b8ff" stroke="#63b8ff" points="273.46,-387.92 264.89,-381.68 267.7,-391.9 273.46,-387.92"/>
</a>
</g>
</g>
<!-- Node4 -->
<g id="Node000004" class="node">
<title>Node4</title>
<g id="a_Node000004"><a xlink:href="../../d0/db8/_element_8h.html" target="_top" xlink:title=" ">
<polygon fill="white" stroke="#666666" points="316,-322.5 198,-322.5 198,-301 316,-301 316,-322.5"/>
<text text-anchor="middle" x="257" y="-308.05" font-family="Consolas" font-size="11.00">Element/Element.h</text>
</a>
</g>
</g>
<!-- Node3&#45;&gt;Node4 -->
<g id="edge3_Node000003_Node000004" class="edge">
<title>Node3&#45;&gt;Node4</title>
<g id="a_edge3_Node000003_Node000004"><a xlink:title=" ">
<path fill="none" stroke="#63b8ff" d="M257,-358.07C257,-351.42 257,-342.48 257,-334.3"/>
<polygon fill="#63b8ff" stroke="#63b8ff" points="260.5,-334.38 257,-324.38 253.5,-334.38 260.5,-334.38"/>
</a>
</g>
</g>
<!-- Node17 -->
<g id="Node000017" class="node">
<title>Node17</title>
<g id="a_Node000017"><a xlink:href="../../da/da5/_d_o_f_8h.html" target="_top" xlink:title=" ">
<polygon fill="white" stroke="#666666" points="180,-322.5 92,-322.5 92,-301 180,-301 180,-322.5"/>
<text text-anchor="middle" x="136" y="-308.05" font-family="Consolas" font-size="11.00">Domain/DOF.h</text>
</a>
</g>
</g>
<!-- Node3&#45;&gt;Node17 -->
<g id="edge17_Node000003_Node000017" class="edge">
<title>Node3&#45;&gt;Node17</title>
<g id="a_edge17_Node000003_Node000017"><a xlink:title=" ">
<path fill="none" stroke="#63b8ff" d="M234.81,-358.07C216.22,-349.54 189.42,-337.25 168.43,-327.62"/>
<polygon fill="#63b8ff" stroke="#63b8ff" points="169.98,-324.48 159.43,-323.5 167.06,-330.85 169.98,-324.48"/>
</a>
</g>
</g>
<!-- Node5 -->
<g id="Node000005" class="node">
<title>Node5</title>
<g id="a_Node000005"><a xlink:href="../../d9/d82/_element_base_8h.html" target="_top" xlink:title=" ">
<polygon fill="white" stroke="#666666" points="323,-265 181,-265 181,-243.5 323,-243.5 323,-265"/>
<text text-anchor="middle" x="252" y="-250.55" font-family="Consolas" font-size="11.00">Element/ElementBase.h</text>
</a>
</g>
</g>
<!-- Node4&#45;&gt;Node5 -->
<g id="edge4_Node000004_Node000005" class="edge">
<title>Node4&#45;&gt;Node5</title>
<g id="a_edge4_Node000004_Node000005"><a xlink:title=" ">
<path fill="none" stroke="#63b8ff" d="M256.08,-300.57C255.48,-293.92 254.68,-284.98 253.94,-276.8"/>
<polygon fill="#63b8ff" stroke="#63b8ff" points="257.43,-276.52 253.05,-266.87 250.46,-277.15 257.43,-276.52"/>
</a>
</g>
</g>
<!-- Node6 -->
<g id="Node000006" class="node">
<title>Node6</title>
<g id="a_Node000006"><a xlink:href="../../d2/d4a/_tag_8h.html" target="_top" xlink:title=" ">
<polygon fill="white" stroke="#666666" points="409,-136.5 321,-136.5 321,-115 409,-115 409,-136.5"/>
<text text-anchor="middle" x="365" y="-122.05" font-family="Consolas" font-size="11.00">Domain/Tag.h</text>
</a>
</g>
</g>
<!-- Node5&#45;&gt;Node6 -->
<g id="edge5_Node000005_Node000006" class="edge">
<title>Node5&#45;&gt;Node6</title>
<g id="a_edge5_Node000005_Node000006"><a xlink:title=" ">
<path fill="none" stroke="#63b8ff" d="M276.15,-243.03C292.25,-235.23 312.94,-223.16 327,-207.5 342.64,-190.07 353.06,-165.08 358.97,-147.53"/>
<polygon fill="#63b8ff" stroke="#63b8ff" points="362.24,-148.78 361.89,-138.19 355.56,-146.69 362.24,-148.78"/>
</a>
</g>
</g>
<!-- Node15 -->
<g id="Node000015" class="node">
<title>Node15</title>
<g id="a_Node000015"><a xlink:href="../../d9/dc0/vtk_base_8h.html" target="_top" xlink:title=" ">
<polygon fill="white" stroke="#666666" points="318,-207.5 176,-207.5 176,-172.5 318,-172.5 318,-207.5"/>
<text text-anchor="start" x="184" y="-193.05" font-family="Consolas" font-size="11.00">Element/Visualisation</text>
<text text-anchor="middle" x="247" y="-179.55" font-family="Consolas" font-size="11.00">/vtkBase.h</text>
</a>
</g>
</g>
<!-- Node5&#45;&gt;Node15 -->
<g id="edge14_Node000005_Node000015" class="edge">
<title>Node5&#45;&gt;Node15</title>
<g id="a_edge14_Node000005_Node000015"><a xlink:title=" ">
<path fill="none" stroke="#63b8ff" d="M251.2,-243.25C250.67,-236.63 249.94,-227.61 249.24,-218.92"/>
<polygon fill="#63b8ff" stroke="#63b8ff" points="252.74,-218.73 248.45,-209.04 245.76,-219.29 252.74,-218.73"/>
</a>
</g>
</g>
<!-- Node16 -->
<g id="Node000016" class="node">
<title>Node16</title>
<g id="a_Node000016"><a xlink:href="../../d6/d94/_mapping_d_o_f_8h.html" target="_top" xlink:title=" ">
<polygon fill="white" stroke="#666666" points="158,-200.75 22,-200.75 22,-179.25 158,-179.25 158,-200.75"/>
<text text-anchor="middle" x="90" y="-186.3" font-family="Consolas" font-size="11.00">Element/MappingDOF.h</text>
</a>
</g>
</g>
<!-- Node5&#45;&gt;Node16 -->
<g id="edge15_Node000005_Node000016" class="edge">
<title>Node5&#45;&gt;Node16</title>
<g id="a_edge15_Node000005_Node000016"><a xlink:title=" ">
<path fill="none" stroke="#63b8ff" d="M225.61,-243.11C198.86,-232.83 157.24,-216.84 127.16,-205.28"/>
<polygon fill="#63b8ff" stroke="#63b8ff" points="128.65,-202.1 118.06,-201.78 126.14,-208.64 128.65,-202.1"/>
</a>
</g>
</g>
<!-- Node7 -->
<g id="Node000007" class="node">
<title>Node7</title>
<g id="a_Node000007"><a xlink:href="../../d8/d8f/suan_pan_8h.html" target="_top" xlink:title=" ">
<polygon fill="white" stroke="#666666" points="400,-79 330,-79 330,-57.5 400,-57.5 400,-79"/>
<text text-anchor="middle" x="365" y="-64.55" font-family="Consolas" font-size="11.00">suanPan.h</text>
</a>
</g>
</g>
<!-- Node6&#45;&gt;Node7 -->
<g id="edge6_Node000006_Node000007" class="edge">
<title>Node6&#45;&gt;Node7</title>
<g id="a_edge6_Node000006_Node000007"><a xlink:title=" ">
<path fill="none" stroke="#63b8ff" d="M365,-114.57C365,-107.92 365,-98.98 365,-90.8"/>
<polygon fill="#63b8ff" stroke="#63b8ff" points="368.5,-90.88 365,-80.88 361.5,-90.88 368.5,-90.88"/>
</a>
</g>
</g>
<!-- Node8 -->
<g id="Node000008" class="node">
<title>Node8</title>
<g id="a_Node000008"><a xlink:title=" ">
<polygon fill="#e0e0e0" stroke="#999999" points="64,-21.5 0,-21.5 0,0 64,0 64,-21.5"/>
<text text-anchor="middle" x="32" y="-7.05" font-family="Consolas" font-size="11.00">iostream</text>
</a>
</g>
</g>
<!-- Node7&#45;&gt;Node8 -->
<g id="edge7_Node000007_Node000008" class="edge">
<title>Node7&#45;&gt;Node8</title>
<g id="a_edge7_Node000007_Node000008"><a xlink:title=" ">
<path fill="none" stroke="#63b8ff" d="M329.79,-62.64C276.8,-55.5 173.19,-40.79 75.45,-21.86"/>
<polygon fill="#63b8ff" stroke="#63b8ff" points="76.15,-18.43 65.66,-19.94 74.8,-25.3 76.15,-18.43"/>
</a>
</g>
</g>
<!-- Node9 -->
<g id="Node000009" class="node">
<title>Node9</title>
<g id="a_Node000009"><a xlink:title=" ">
<polygon fill="#e0e0e0" stroke="#999999" points="212,-21.5 82,-21.5 82,0 212,0 212,-21.5"/>
<text text-anchor="middle" x="147" y="-7.05" font-family="Consolas" font-size="11.00">armadillo/armadillo</text>
</a>
</g>
</g>
<!-- Node7&#45;&gt;Node9 -->
<g id="edge8_Node000007_Node000009" class="edge">
<title>Node7&#45;&gt;Node9</title>
<g id="a_edge8_Node000007_Node000009"><a xlink:title=" ">
<path fill="none" stroke="#63b8ff" d="M329.97,-58.33C294.33,-49.26 238.7,-35.1 198.13,-24.77"/>
<polygon fill="#63b8ff" stroke="#63b8ff" points="199.14,-21.41 188.59,-22.34 197.41,-28.2 199.14,-21.41"/>
</a>
</g>
</g>
<!-- Node10 -->
<g id="Node000010" class="node">
<title>Node10</title>
<g id="a_Node000010"><a xlink:title=" ">
<polygon fill="#e0e0e0" stroke="#999999" points="306,-21.5 230,-21.5 230,0 306,0 306,-21.5"/>
<text text-anchor="middle" x="268" y="-7.05" font-family="Consolas" font-size="11.00">filesystem</text>
</a>
</g>
</g>
<!-- Node7&#45;&gt;Node10 -->
<g id="edge9_Node000007_Node000010" class="edge">
<title>Node7&#45;&gt;Node10</title>
<g id="a_edge9_Node000007_Node000010"><a xlink:title=" ">
<path fill="none" stroke="#63b8ff" d="M347.21,-57.07C332.71,-48.78 312.01,-36.93 295.4,-27.43"/>
<polygon fill="#63b8ff" stroke="#63b8ff" points="297.41,-24.55 286.99,-22.62 293.93,-30.62 297.41,-24.55"/>
</a>
</g>
</g>
<!-- Node11 -->
<g id="Node000011" class="node">
<title>Node11</title>
<g id="a_Node000011"><a xlink:title=" ">
<polygon fill="#e0e0e0" stroke="#999999" points="406,-21.5 324,-21.5 324,0 406,0 406,-21.5"/>
<text text-anchor="middle" x="365" y="-7.05" font-family="Consolas" font-size="11.00">fmt/color.h</text>
</a>
</g>
</g>
<!-- Node7&#45;&gt;Node11 -->
<g id="edge10_Node000007_Node000011" class="edge">
<title>Node7&#45;&gt;Node11</title>
<g id="a_edge10_Node000007_Node000011"><a xlink:title=" ">
<path fill="none" stroke="#63b8ff" d="M365,-57.07C365,-50.42 365,-41.48 365,-33.3"/>
<polygon fill="#63b8ff" stroke="#63b8ff" points="368.5,-33.38 365,-23.38 361.5,-33.38 368.5,-33.38"/>
</a>
</g>
</g>
<!-- Node12 -->
<g id="Node000012" class="node">
<title>Node12</title>
<g id="a_Node000012"><a xlink:title=" ">
<polygon fill="#e0e0e0" stroke="#999999" points="470,-21.5 424,-21.5 424,0 470,0 470,-21.5"/>
<text text-anchor="middle" x="447" y="-7.05" font-family="Consolas" font-size="11.00">mutex</text>
</a>
</g>
</g>
<!-- Node7&#45;&gt;Node12 -->
<g id="edge11_Node000007_Node000012" class="edge">
<title>Node7&#45;&gt;Node12</title>
<g id="a_edge11_Node000007_Node000012"><a xlink:title=" ">
<path fill="none" stroke="#63b8ff" d="M380.04,-57.07C391.95,-49.01 408.81,-37.6 422.64,-28.24"/>
<polygon fill="#63b8ff" stroke="#63b8ff" points="424.48,-31.22 430.8,-22.71 420.56,-25.42 424.48,-31.22"/>
</a>
</g>
</g>
<!-- Node13 -->
<g id="Node000013" class="node">
<title>Node13</title>
<g id="a_Node000013"><a xlink:title=" ">
<polygon fill="#e0e0e0" stroke="#999999" points="564,-21.5 488,-21.5 488,0 564,0 564,-21.5"/>
<text text-anchor="middle" x="526" y="-7.05" font-family="Consolas" font-size="11.00">functional</text>
</a>
</g>
</g>
<!-- Node7&#45;&gt;Node13 -->
<g id="edge12_Node000007_Node000013" class="edge">
<title>Node7&#45;&gt;Node13</title>
<g id="a_edge12_Node000007_Node000013"><a xlink:title=" ">
<path fill="none" stroke="#63b8ff" d="M394.53,-57.07C420.1,-48.26 457.31,-35.43 485.63,-25.67"/>
<polygon fill="#63b8ff" stroke="#63b8ff" points="486.64,-29.02 494.95,-22.45 484.36,-22.4 486.64,-29.02"/>
</a>
</g>
</g>
<!-- Node14 -->
<g id="Node000014" class="node">
<title>Node14</title>
<g id="a_Node000014"><a xlink:title=" ">
<polygon fill="#e0e0e0" stroke="#999999" points="634,-21.5 582,-21.5 582,0 634,0 634,-21.5"/>
<text text-anchor="middle" x="608" y="-7.05" font-family="Consolas" font-size="11.00">memory</text>
</a>
</g>
</g>
<!-- Node7&#45;&gt;Node14 -->
<g id="edge13_Node000007_Node000014" class="edge">
<title>Node7&#45;&gt;Node14</title>
<g id="a_edge13_Node000007_Node000014"><a xlink:title=" ">
<path fill="none" stroke="#63b8ff" d="M400.06,-59.47C403.09,-58.81 406.1,-58.14 409,-57.5 478.46,-42.18 498.71,-39.73 570.66,-21.99"/>
<polygon fill="#63b8ff" stroke="#63b8ff" points="571.34,-25.43 580.2,-19.62 569.65,-18.63 571.34,-25.43"/>
</a>
</g>
</g>
<!-- Node16&#45;&gt;Node6 -->
<g id="edge16_Node000016_Node000006" class="edge">
<title>Node16&#45;&gt;Node6</title>
<g id="a_edge16_Node000016_Node000006"><a xlink:title=" ">
<path fill="none" stroke="#63b8ff" d="M135.1,-178.79C182.84,-167.98 258.24,-150.92 309.57,-139.3"/>
<polygon fill="#63b8ff" stroke="#63b8ff" points="310.33,-142.71 319.31,-137.09 308.78,-135.89 310.33,-142.71"/>
</a>
</g>
</g>
<!-- Node18&#45;&gt;Node6 -->
<g id="edge20_Node000018_Node000006" class="edge">
<title>Node18&#45;&gt;Node6</title>
<g id="a_edge20_Node000018_Node000006"><a xlink:title=" ">
<path fill="none" stroke="#63b8ff" d="M504.8,-178.86C477.1,-168.54 433.94,-152.45 402.9,-140.88"/>
<polygon fill="#63b8ff" stroke="#63b8ff" points="404.48,-137.73 393.89,-137.52 402.04,-144.29 404.48,-137.73"/>
</a>
</g>
</g>
<!-- Node19 -->
<g id="Node000019" class="node">
<title>Node19</title>
<g id="a_Node000019"><a xlink:title=" ">
<polygon fill="#e0e0e0" stroke="#999999" points="652,-136.5 600,-136.5 600,-115 652,-115 652,-136.5"/>
<text text-anchor="middle" x="626" y="-122.05" font-family="Consolas" font-size="11.00">future</text>
</a>
</g>
</g>
<!-- Node18&#45;&gt;Node19 -->
<g id="edge19_Node000018_Node000019" class="edge">
<title>Node18&#45;&gt;Node19</title>
<g id="a_edge19_Node000018_Node000019"><a xlink:title=" ">
<path fill="none" stroke="#63b8ff" d="M547.1,-179C561.68,-169.35 584.01,-154.56 601.19,-143.18"/>
<polygon fill="#63b8ff" stroke="#63b8ff" points="602.96,-146.21 609.36,-137.77 599.09,-140.37 602.96,-146.21"/>
</a>
</g>
</g>
<!-- Node20 -->
<g id="Node000020" class="node">
<title>Node20</title>
<g id="a_Node000020"><a xlink:href="../../d4/ddd/container_8h.html" target="_top" xlink:title=" ">
<polygon fill="white" stroke="#666666" points="582,-136.5 452,-136.5 452,-115 582,-115 582,-136.5"/>
<text text-anchor="middle" x="517" y="-122.05" font-family="Consolas" font-size="11.00">Toolbox/container.h</text>
</a>
</g>
</g>
<!-- Node18&#45;&gt;Node20 -->
<g id="edge21_Node000018_Node000020" class="edge">
<title>Node18&#45;&gt;Node20</title>
<g id="a_edge21_Node000018_Node000020"><a xlink:title=" ">
<path fill="none" stroke="#63b8ff" d="M529.59,-179C527.57,-170.61 524.61,-158.34 522.07,-147.8"/>
<polygon fill="#63b8ff" stroke="#63b8ff" points="525.55,-147.31 519.81,-138.4 518.75,-148.95 525.55,-147.31"/>
</a>
</g>
</g>
<!-- Node20&#45;&gt;Node7 -->
<g id="edge22_Node000020_Node000007" class="edge">
<title>Node20&#45;&gt;Node7</title>
<g id="a_edge22_Node000020_Node000007"><a xlink:title=" ">
<path fill="none" stroke="#63b8ff" d="M489.12,-114.57C465.09,-105.8 430.16,-93.04 403.47,-83.3"/>
<polygon fill="#63b8ff" stroke="#63b8ff" points="404.97,-80.12 394.38,-79.98 402.57,-86.7 404.97,-80.12"/>
</a>
</g>
</g>
<!-- Node21 -->
<g id="Node000021" class="node">
<title>Node21</title>
<g id="a_Node000021"><a xlink:title=" ">
<polygon fill="#e0e0e0" stroke="#999999" points="728,-79 694,-79 694,-57.5 728,-57.5 728,-79"/>
<text text-anchor="middle" x="711" y="-64.55" font-family="Consolas" font-size="11.00">set</text>
</a>
</g>
</g>
<!-- Node20&#45;&gt;Node21 -->
<g id="edge23_Node000020_Node000021" class="edge">
<title>Node20&#45;&gt;Node21</title>
<g id="a_edge23_Node000020_Node000021"><a xlink:title=" ">
<path fill="none" stroke="#63b8ff" d="M558.74,-114.53C590.52,-106.5 635.54,-94.57 682.94,-79.46"/>
<polygon fill="#63b8ff" stroke="#63b8ff" points="683.85,-82.85 692.3,-76.44 681.7,-76.18 683.85,-82.85"/>
</a>
</g>
</g>
<!-- Node22 -->
<g id="Node000022" class="node">
<title>Node22</title>
<g id="a_Node000022"><a xlink:title=" ">
<polygon fill="#e0e0e0" stroke="#999999" points="452,-79 418,-79 418,-57.5 452,-57.5 452,-79"/>
<text text-anchor="middle" x="435" y="-64.55" font-family="Consolas" font-size="11.00">map</text>
</a>
</g>
</g>
<!-- Node20&#45;&gt;Node22 -->
<g id="edge24_Node000020_Node000022" class="edge">
<title>Node20&#45;&gt;Node22</title>
<g id="a_edge24_Node000020_Node000022"><a xlink:title=" ">
<path fill="none" stroke="#63b8ff" d="M501.96,-114.57C490.05,-106.51 473.19,-95.1 459.36,-85.74"/>
<polygon fill="#63b8ff" stroke="#63b8ff" points="461.44,-82.92 451.2,-80.21 457.52,-88.72 461.44,-82.92"/>
</a>
</g>
</g>
<!-- Node23 -->
<g id="Node000023" class="node">
<title>Node23</title>
<g id="a_Node000023"><a xlink:title=" ">
<polygon fill="#e0e0e0" stroke="#999999" points="564,-79 470,-79 470,-57.5 564,-57.5 564,-79"/>
<text text-anchor="middle" x="517" y="-64.55" font-family="Consolas" font-size="11.00">unordered_set</text>
</a>
</g>
</g>
<!-- Node20&#45;&gt;Node23 -->
<g id="edge25_Node000020_Node000023" class="edge">
<title>Node20&#45;&gt;Node23</title>
<g id="a_edge25_Node000020_Node000023"><a xlink:title=" ">
<path fill="none" stroke="#63b8ff" d="M517,-114.57C517,-107.92 517,-98.98 517,-90.8"/>
<polygon fill="#63b8ff" stroke="#63b8ff" points="520.5,-90.88 517,-80.88 513.5,-90.88 520.5,-90.88"/>
</a>
</g>
</g>
<!-- Node24 -->
<g id="Node000024" class="node">
<title>Node24</title>
<g id="a_Node000024"><a xlink:title=" ">
<polygon fill="#e0e0e0" stroke="#999999" points="676,-79 582,-79 582,-57.5 676,-57.5 676,-79"/>
<text text-anchor="middle" x="629" y="-64.55" font-family="Consolas" font-size="11.00">unordered_map</text>
</a>
</g>
</g>
<!-- Node20&#45;&gt;Node24 -->
<g id="edge26_Node000020_Node000024" class="edge">
<title>Node20&#45;&gt;Node24</title>
<g id="a_edge26_Node000020_Node000024"><a xlink:title=" ">
<path fill="none" stroke="#63b8ff" d="M537.54,-114.57C554.59,-106.12 579.09,-93.98 598.45,-84.39"/>
<polygon fill="#63b8ff" stroke="#63b8ff" points="599.83,-87.61 607.23,-80.04 596.72,-81.34 599.83,-87.61"/>
</a>
</g>
</g>
<!-- Node26 -->
<g id="Node000026" class="node">
<title>Node26</title>
<g id="a_Node000026"><a xlink:href="../../d3/d09/_material_8h.html" target="_top" xlink:title=" ">
<polygon fill="white" stroke="#666666" points="508,-380 378,-380 378,-358.5 508,-358.5 508,-380"/>
<text text-anchor="middle" x="443" y="-365.55" font-family="Consolas" font-size="11.00">Material/Material.h</text>
</a>
</g>
</g>
<!-- Node25&#45;&gt;Node26 -->
<g id="edge28_Node000025_Node000026" class="edge">
<title>Node25&#45;&gt;Node26</title>
<g id="a_edge28_Node000025_Node000026"><a xlink:title=" ">
<path fill="none" stroke="#63b8ff" d="M443,-415.82C443,-408.35 443,-399.46 443,-391.52"/>
<polygon fill="#63b8ff" stroke="#63b8ff" points="446.5,-391.68 443,-381.68 439.5,-391.68 446.5,-391.68"/>
</a>
</g>
</g>
<!-- Node26&#45;&gt;Node6 -->
<g id="edge29_Node000026_Node000006" class="edge">
<title>Node26&#45;&gt;Node6</title>
<g id="a_edge29_Node000026_Node000006"><a xlink:title=" ">
<path fill="none" stroke="#63b8ff" d="M431.31,-358.18C422.16,-349.62 409.86,-336.53 403,-322.5 374.28,-263.81 367.25,-185.25 365.54,-148.03"/>
<polygon fill="#63b8ff" stroke="#63b8ff" points="369.05,-148.07 365.19,-138.2 362.05,-148.32 369.05,-148.07"/>
</a>
</g>
</g>
<!-- Node27 -->
<g id="Node000027" class="node">
<title>Node27</title>
<g id="a_Node000027"><a xlink:href="../../df/dec/_parameter_type_8h.html" target="_top" xlink:title=" ">
<polygon fill="white" stroke="#666666" points="518,-322.5 412,-322.5 412,-301 518,-301 518,-322.5"/>
<text text-anchor="middle" x="465" y="-308.05" font-family="Consolas" font-size="11.00">ParameterType.h</text>
</a>
</g>
</g>
<!-- Node26&#45;&gt;Node27 -->
<g id="edge30_Node000026_Node000027" class="edge">
<title>Node26&#45;&gt;Node27</title>
<g id="a_edge30_Node000026_Node000027"><a xlink:title=" ">
<path fill="none" stroke="#63b8ff" d="M447.04,-358.07C449.76,-351.19 453.46,-341.85 456.8,-333.44"/>
<polygon fill="#63b8ff" stroke="#63b8ff" points="460,-334.86 460.43,-324.27 453.49,-332.28 460,-334.86"/>
</a>
</g>
</g>
</g>
</svg>

<g id="navigator" transform="translate(0 0)" fill="#404254">
  <rect fill="#f2f5e9" fill-opacity="0.5" stroke="#606060" stroke-width=".5" x="0" y="0" width="60" height="60"/>
  <use id="zoomplus" xlink:href="#zoomPlus" x="17" y="9" onmousedown="handleZoom(evt,'in')"/>
  <use id="zoomminus" xlink:href="#zoomMin" x="42" y="9" onmousedown="handleZoom(evt,'out')"/>
  <use id="reset" xlink:href="#resetDef" x="30" y="36" onmousedown="handleReset()"/>
   <use id="arrowup" xlink:href="#arrowUp" x="0" y="0" onmousedown="handlePan(0,-1)"/>
  <use id="arrowright" xlink:href="#arrowRight" x="0" y="0" onmousedown="handlePan(1,0)"/>
  <use id="arrowdown" xlink:href="#arrowDown" x="0" y="0" onmousedown="handlePan(0,1)"/>
  <use id="arrowleft" xlink:href="#arrowLeft" x="0" y="0" onmousedown="handlePan(-1,0)"/>
</g>
<svg viewBox="0 0 15 15" width="100%" height="30px" preserveAspectRatio="xMaxYMin meet">
 <g id="arrow_out" transform="scale(0.3 0.3)">
  <a xlink:href="_damper01_8cpp__incl_org.svg" target="_base">
   <rect id="button" ry="5" rx="5" y="6" x="6" height="38" width="38"
        fill="#f2f5e9" fill-opacity="0.5" stroke="#606060" stroke-width="1.0"/>
   <path id="arrow"
     d="M 11.500037,31.436501 C 11.940474,20.09759 22.043105,11.32322 32.158766,21.979434 L 37.068811,17.246167 C 37.068811,17.246167 37.088388,32 37.088388,32 L 22.160133,31.978069 C 22.160133,31.978069 26.997745,27.140456 26.997745,27.140456 C 18.528582,18.264221 13.291696,25.230495 11.500037,31.436501 z"
     style="fill:#404040;"/>
  </a>
 </g>
</svg>

<style type='text/css'>
<![CDATA[
[data-mouse-over-selected='false'] { opacity: 0.7; }
[data-mouse-over-selected='true']  { opacity: 1.0; }
]]>
</style>
<script type="application/ecmascript"><![CDATA[
document.addEventListener('DOMContentLoaded', (event) => {
  highlightEdges();
  highlightAdjacentNodes();
});
]]></script>
</svg>
