<svg xmlns="http://www.w3.org/2000/svg" xmlns:xlink="http://www.w3.org/1999/xlink" width="169pt" height="260pt" viewBox="0 0 169 260"><svg xmlns="http://www.w3.org/2000/svg" xmlns:xlink="http://www.w3.org/1999/xlink" xml:space="preserve" id="main" onload="init(evt)"><style>.node,[data-mouse-over-selected=false]{opacity:.7}.edge.selected,.node.selected,[data-mouse-over-selected=true]{opacity:1}.edge:hover path{stroke:red}.edge:hover polygon{stroke:red;fill:red}</style><script xlink:href="../../svg.min.js" type="application/ecmascript"/><svg id="graph" class="graph"><g id="graph0" class="graph" transform="translate(4 256)"><title>DataBWBN</title><g id="Node000001" class="node"><title>Node1</title><a id="a_Node000001">
<path fill="#999" stroke="transparent" d="M113-252H48v52h65z"/>
<text x="53.5" y="-239.2" font-family="Consolas" font-size="11">DataBWBN</text>
<text x="57" y="-223.2" font-family="Consolas" font-size="11">+</text>
<text x="72.5" y="-223.2" font-family="Consolas" font-size="11">pool</text>
<text x="77.5" y="-207.2" font-family="Consolas" font-size="11"> </text>
<path fill="#666" stroke="#666" d="M48.5-234h65z"/>
<path fill="#666" stroke="#666" d="M48.5-218h22z"/>
<path fill="#666" stroke="#666" d="M70.5-218h43z"/>
<path fill="none" stroke="#666" d="M48-200v-52h65v52z"/>
</a></g><g id="Node000002" class="node"><title>Node2</title><a xlink:href="../../db/d5b/class_b_w_b_n.html" xlink:title="The BWBN class." id="a_Node000002" target="_top">
<path fill="#fff" stroke="transparent" d="M161-164H0V0h161z"/>
<text x="67" y="-151.2" font-family="Consolas" font-size="11">BWBN</text>
<text x="77.5" y="-135.2" font-family="Consolas" font-size="11"> </text>
<text x="4.5" y="-119.2" font-family="Consolas" font-size="11">+</text>
<text x="15.5" y="-119.2" font-family="Consolas" font-size="11">BWBN()</text>
<text x="4.5" y="-103.2" font-family="Consolas" font-size="11">+</text>
<text x="15.5" y="-103.2" font-family="Consolas" font-size="11">initialize()</text>
<text x="4.5" y="-87.2" font-family="Consolas" font-size="11">+</text>
<text x="15.5" y="-87.2" font-family="Consolas" font-size="11">unique_copy()</text>
<text x="4.5" y="-71.2" font-family="Consolas" font-size="11">+</text>
<text x="15.5" y="-71.2" font-family="Consolas" font-size="11">update_trial_status()</text>
<text x="4.5" y="-55.2" font-family="Consolas" font-size="11">+</text>
<text x="15.5" y="-55.2" font-family="Consolas" font-size="11">clear_status()</text>
<text x="4.5" y="-39.2" font-family="Consolas" font-size="11">+</text>
<text x="15.5" y="-39.2" font-family="Consolas" font-size="11">commit_status()</text>
<text x="4.5" y="-23.2" font-family="Consolas" font-size="11">+</text>
<text x="15.5" y="-23.2" font-family="Consolas" font-size="11">reset_status()</text>
<text x="4.5" y="-7.2" font-family="Consolas" font-size="11">+</text>
<text x="15.5" y="-7.2" font-family="Consolas" font-size="11">print()</text>
<path fill="#666" stroke="#666" d="M.5-146h161z"/>
<path fill="#666" stroke="#666" d="M.5-130h161z"/>
<path fill="none" stroke="#666" d="M0 0v-164h161V0z"/>
</a></g><g id="edge1_Node000001_Node000002" style="opacity:.7"><title>Node1-&gt;Node2</title><a id="a_edge1_Node000001_Node000002">
<path fill="none" stroke="#006400" d="M80.5-189.71v25.54"/>
<path fill="none" stroke="#006400" d="m77-189.94 3.5-10 3.5 10z"/>
</a></g></g></svg></svg><script type="application/ecmascript"><![CDATA[
document.addEventListener('DOMContentLoaded', (event) => {
  highlightEdges();
  highlightAdjacentNodes();
});
]]></script></svg>