<?xml version="1.0" encoding="UTF-8" standalone="no"?>
<!DOCTYPE svg PUBLIC "-//W3C//DTD SVG 1.1//EN"
 "http://www.w3.org/Graphics/SVG/1.1/DTD/svg11.dtd">
<!-- Generated by graphviz version 5.0.0 (0)
 -->
<!-- Title: Integrator::initialize Pages: 1 -->
<svg width="629pt" height="147pt"
 viewBox="0.00 0.00 629.00 147.00" xmlns="http://www.w3.org/2000/svg" xmlns:xlink="http://www.w3.org/1999/xlink">
<g id="graph0" class="graph" transform="scale(1 1) rotate(0) translate(4 143)">
<title>Integrator::initialize</title>
<!-- Node1 -->
<g id="node1" class="node">
<title>Node1</title>
<g id="a_node1"><a xlink:title=" ">
<polygon fill="#999999" stroke="#666666" points="621,-76 456,-76 456,-56 621,-56 621,-76"/>
<text text-anchor="middle" x="538.5" y="-63.2" font-family="Consolas" font-size="11.00">Integrator::initialize</text>
</a>
</g>
</g>
<!-- Node2 -->
<g id="node2" class="node">
<title>Node2</title>
<g id="a_node2"><a xlink:href="../../d2/d22/class_lee_newmark_base.html#ab4ec685e0baa3b5f4a75bd3545f0c262" target="_top" xlink:title=" ">
<polygon fill="white" stroke="#666666" points="420,-120 228,-120 228,-100 420,-100 420,-120"/>
<text text-anchor="middle" x="324" y="-107.2" font-family="Consolas" font-size="11.00">LeeNewmarkBase::initialize</text>
</a>
</g>
</g>
<!-- Node1&#45;&gt;Node2 -->
<g id="edge1" class="edge">
<title>Node1&#45;&gt;Node2</title>
<path fill="none" stroke="#63b8ff" d="M481.05,-78.16C461.71,-82.28 439.92,-86.89 420,-91 405.67,-93.96 390.11,-97.1 375.8,-99.96"/>
<polygon fill="#63b8ff" stroke="#63b8ff" points="481.88,-81.56 490.93,-76.05 480.41,-74.71 481.88,-81.56"/>
</g>
<!-- Node5 -->
<g id="node5" class="node">
<title>Node5</title>
<g id="a_node5"><a xlink:href="../../d9/d75/class_nonviscous_newmark.html#af1df9047c5945a690ffb1fa5366d0b6e" target="_top" xlink:title=" ">
<polygon fill="white" stroke="#666666" points="396.5,-82 251.5,-82 251.5,-50 396.5,-50 396.5,-82"/>
<text text-anchor="start" x="259.5" y="-69.2" font-family="Consolas" font-size="11.00">NonviscousNewmark::</text>
<text text-anchor="middle" x="324" y="-57.2" font-family="Consolas" font-size="11.00">initialize</text>
</a>
</g>
</g>
<!-- Node1&#45;&gt;Node5 -->
<g id="edge4" class="edge">
<title>Node1&#45;&gt;Node5</title>
<path fill="none" stroke="#63b8ff" d="M445.78,-66C429.33,-66 412.4,-66 396.62,-66"/>
<polygon fill="#63b8ff" stroke="#63b8ff" points="445.95,-69.5 455.95,-66 445.95,-62.5 445.95,-69.5"/>
</g>
<!-- Node6 -->
<g id="node6" class="node">
<title>Node6</title>
<g id="a_node6"><a xlink:href="../../d8/d75/class_wilson_penzien_newmark.html#ae0b7d5bd3a82f4e0c6d6d8e86f0f560f" target="_top" xlink:title=" ">
<polygon fill="white" stroke="#666666" points="400,-32 248,-32 248,0 400,0 400,-32"/>
<text text-anchor="start" x="256" y="-19.2" font-family="Consolas" font-size="11.00">WilsonPenzienNewmark</text>
<text text-anchor="middle" x="324" y="-7.2" font-family="Consolas" font-size="11.00">::initialize</text>
</a>
</g>
</g>
<!-- Node1&#45;&gt;Node6 -->
<g id="edge5" class="edge">
<title>Node1&#45;&gt;Node6</title>
<path fill="none" stroke="#63b8ff" d="M484.87,-53.62C457.18,-47.1 422.9,-39.04 393.2,-32.05"/>
<polygon fill="#63b8ff" stroke="#63b8ff" points="484.22,-57.06 494.75,-55.94 485.82,-50.24 484.22,-57.06"/>
</g>
<!-- Node3 -->
<g id="node3" class="node">
<title>Node3</title>
<g id="a_node3"><a xlink:href="../../d7/d28/class_lee_newmark.html#ac68ff9c4c73dfd39ed45045f7710b4cc" target="_top" xlink:title=" ">
<polygon fill="white" stroke="#666666" points="178.5,-139 13.5,-139 13.5,-119 178.5,-119 178.5,-139"/>
<text text-anchor="middle" x="96" y="-126.2" font-family="Consolas" font-size="11.00">LeeNewmark::initialize</text>
</a>
</g>
</g>
<!-- Node2&#45;&gt;Node3 -->
<g id="edge2" class="edge">
<title>Node2&#45;&gt;Node3</title>
<path fill="none" stroke="#63b8ff" d="M217.84,-118.84C204.74,-119.94 191.5,-121.05 178.83,-122.12"/>
<polygon fill="#63b8ff" stroke="#63b8ff" points="218.14,-122.33 227.81,-118 217.55,-115.35 218.14,-122.33"/>
</g>
<!-- Node4 -->
<g id="node4" class="node">
<title>Node4</title>
<g id="a_node4"><a xlink:href="../../d4/d3c/class_lee_newmark_full.html#a31048802e81b0205158a5b47689944ec" target="_top" xlink:title=" ">
<polygon fill="white" stroke="#666666" points="192,-101 0,-101 0,-81 192,-81 192,-101"/>
<text text-anchor="middle" x="96" y="-88.2" font-family="Consolas" font-size="11.00">LeeNewmarkFull::initialize</text>
</a>
</g>
</g>
<!-- Node2&#45;&gt;Node4 -->
<g id="edge3" class="edge">
<title>Node2&#45;&gt;Node4</title>
<path fill="none" stroke="#63b8ff" d="M217.78,-101.15C209.21,-100.43 200.58,-99.71 192.08,-98.99"/>
<polygon fill="#63b8ff" stroke="#63b8ff" points="217.55,-104.65 227.81,-102 218.14,-97.67 217.55,-104.65"/>
</g>
</g>
</svg>
