<?xml version="1.0" encoding="UTF-8" standalone="no"?>
<!DOCTYPE svg PUBLIC "-//W3C//DTD SVG 1.1//EN"
 "http://www.w3.org/Graphics/SVG/1.1/DTD/svg11.dtd">
<!-- Generated by graphviz version 5.0.0 (0)
 -->
<!-- Title: Element/Patch/Patch.cpp Pages: 1 -->
<svg width="849pt" height="500pt"
 viewBox="0.00 0.00 849.00 500.00" xmlns="http://www.w3.org/2000/svg" xmlns:xlink="http://www.w3.org/1999/xlink">
<g id="graph0" class="graph" transform="scale(1 1) rotate(0) translate(4 496)">
<title>Element/Patch/Patch.cpp</title>
<!-- Node1 -->
<g id="node1" class="node">
<title>Node1</title>
<g id="a_node1"><a xlink:title=" ">
<polygon fill="#999999" stroke="#666666" points="616.5,-492 444.5,-492 444.5,-472 616.5,-472 616.5,-492"/>
<text text-anchor="middle" x="530.5" y="-479.2" font-family="Consolas" font-size="11.00">Element/Patch/Patch.cpp</text>
</a>
</g>
</g>
<!-- Node2 -->
<g id="node2" class="node">
<title>Node2</title>
<g id="a_node2"><a xlink:href="../../db/d79/_patch_8h.html" target="_top" xlink:title=" ">
<polygon fill="white" stroke="#666666" points="324.5,-436 260.5,-436 260.5,-416 324.5,-416 324.5,-436"/>
<text text-anchor="middle" x="292.5" y="-423.2" font-family="Consolas" font-size="11.00">Patch.h</text>
</a>
</g>
</g>
<!-- Node1&#45;&gt;Node2 -->
<g id="edge1" class="edge">
<title>Node1&#45;&gt;Node2</title>
<path fill="none" stroke="#63b8ff" d="M490.66,-471.96C447.45,-462.16 378.75,-446.57 334.65,-436.56"/>
<polygon fill="#63b8ff" stroke="#63b8ff" points="335.34,-433.13 324.81,-434.33 333.79,-439.96 335.34,-433.13"/>
</g>
<!-- Node19 -->
<g id="node19" class="node">
<title>Node19</title>
<g id="a_node19"><a xlink:href="../../d3/d10/_b_spline_8h.html" target="_top" xlink:title=" ">
<polygon fill="white" stroke="#666666" points="818,-268 673,-268 673,-236 818,-236 818,-268"/>
<text text-anchor="start" x="681" y="-255.2" font-family="Consolas" font-size="11.00">Element/Utility/IGA</text>
<text text-anchor="middle" x="745.5" y="-243.2" font-family="Consolas" font-size="11.00">/BSpline.h</text>
</a>
</g>
</g>
<!-- Node1&#45;&gt;Node19 -->
<g id="edge21" class="edge">
<title>Node1&#45;&gt;Node19</title>
<path fill="none" stroke="#63b8ff" d="M612.23,-471.91C637.74,-465.45 664.23,-454.51 683.5,-436 727.96,-393.31 740.54,-317.64 744.1,-278.32"/>
<polygon fill="#63b8ff" stroke="#63b8ff" points="747.59,-278.49 744.88,-268.24 740.61,-277.94 747.59,-278.49"/>
</g>
<!-- Node20 -->
<g id="node20" class="node">
<title>Node20</title>
<g id="a_node20"><a xlink:href="../../d3/d09/_material_8h.html" target="_top" xlink:title=" ">
<polygon fill="white" stroke="#666666" points="525,-436 380,-436 380,-416 525,-416 525,-436"/>
<text text-anchor="middle" x="452.5" y="-423.2" font-family="Consolas" font-size="11.00">Material/Material.h</text>
</a>
</g>
</g>
<!-- Node1&#45;&gt;Node20 -->
<g id="edge23" class="edge">
<title>Node1&#45;&gt;Node20</title>
<path fill="none" stroke="#63b8ff" d="M517.27,-471.84C505.43,-463.64 487.86,-451.48 474.01,-441.89"/>
<polygon fill="#63b8ff" stroke="#63b8ff" points="475.75,-438.84 465.54,-436.03 471.77,-444.59 475.75,-438.84"/>
</g>
<!-- Node22 -->
<g id="node22" class="node">
<title>Node22</title>
<g id="a_node22"><a xlink:href="../../de/d09/_section_8h.html" target="_top" xlink:title=" ">
<polygon fill="white" stroke="#666666" points="674,-436 543,-436 543,-416 674,-416 674,-436"/>
<text text-anchor="middle" x="608.5" y="-423.2" font-family="Consolas" font-size="11.00">Section/Section.h</text>
</a>
</g>
</g>
<!-- Node1&#45;&gt;Node22 -->
<g id="edge26" class="edge">
<title>Node1&#45;&gt;Node22</title>
<path fill="none" stroke="#63b8ff" d="M543.73,-471.84C555.57,-463.64 573.14,-451.48 586.99,-441.89"/>
<polygon fill="#63b8ff" stroke="#63b8ff" points="589.23,-444.59 595.46,-436.03 585.25,-438.84 589.23,-444.59"/>
</g>
<!-- Node3 -->
<g id="node3" class="node">
<title>Node3</title>
<g id="a_node3"><a xlink:href="../../dc/d5f/_material_element_8h.html" target="_top" xlink:title=" ">
<polygon fill="white" stroke="#666666" points="185,-380 0,-380 0,-360 185,-360 185,-380"/>
<text text-anchor="middle" x="92.5" y="-367.2" font-family="Consolas" font-size="11.00">Element/MaterialElement.h</text>
</a>
</g>
</g>
<!-- Node2&#45;&gt;Node3 -->
<g id="edge2" class="edge">
<title>Node2&#45;&gt;Node3</title>
<path fill="none" stroke="#63b8ff" d="M260.37,-416.32C226.66,-407.22 173.46,-392.86 136.01,-382.75"/>
<polygon fill="#63b8ff" stroke="#63b8ff" points="136.45,-379.24 125.89,-380.01 134.63,-386 136.45,-379.24"/>
</g>
<!-- Node18 -->
<g id="node18" class="node">
<title>Node18</title>
<g id="a_node18"><a xlink:href="../../d9/d41/_section_element_8h.html" target="_top" xlink:title=" ">
<polygon fill="white" stroke="#666666" points="382,-380 203,-380 203,-360 382,-360 382,-380"/>
<text text-anchor="middle" x="292.5" y="-367.2" font-family="Consolas" font-size="11.00">Element/SectionElement.h</text>
</a>
</g>
</g>
<!-- Node2&#45;&gt;Node18 -->
<g id="edge18" class="edge">
<title>Node2&#45;&gt;Node18</title>
<path fill="none" stroke="#63b8ff" d="M292.5,-415.59C292.5,-408.7 292.5,-399.1 292.5,-390.57"/>
<polygon fill="#63b8ff" stroke="#63b8ff" points="296,-390.3 292.5,-380.3 289,-390.3 296,-390.3"/>
</g>
<!-- Node4 -->
<g id="node4" class="node">
<title>Node4</title>
<g id="a_node4"><a xlink:href="../../d0/db8/_element_8h.html" target="_top" xlink:title=" ">
<polygon fill="white" stroke="#666666" points="291,-324 160,-324 160,-304 291,-304 291,-324"/>
<text text-anchor="middle" x="225.5" y="-311.2" font-family="Consolas" font-size="11.00">Element/Element.h</text>
</a>
</g>
</g>
<!-- Node3&#45;&gt;Node4 -->
<g id="edge3" class="edge">
<title>Node3&#45;&gt;Node4</title>
<path fill="none" stroke="#63b8ff" d="M114.76,-359.96C136.34,-351.2 169.29,-337.82 193.64,-327.93"/>
<polygon fill="#63b8ff" stroke="#63b8ff" points="195.22,-331.07 203.17,-324.07 192.58,-324.59 195.22,-331.07"/>
</g>
<!-- Node17 -->
<g id="node17" class="node">
<title>Node17</title>
<g id="a_node17"><a xlink:href="../../da/da5/_d_o_f_8h.html" target="_top" xlink:title=" ">
<polygon fill="white" stroke="#666666" points="141.5,-324 43.5,-324 43.5,-304 141.5,-304 141.5,-324"/>
<text text-anchor="middle" x="92.5" y="-311.2" font-family="Consolas" font-size="11.00">Domain/DOF.h</text>
</a>
</g>
</g>
<!-- Node3&#45;&gt;Node17 -->
<g id="edge17" class="edge">
<title>Node3&#45;&gt;Node17</title>
<path fill="none" stroke="#63b8ff" d="M92.5,-359.59C92.5,-352.7 92.5,-343.1 92.5,-334.57"/>
<polygon fill="#63b8ff" stroke="#63b8ff" points="96,-334.3 92.5,-324.3 89,-334.3 96,-334.3"/>
</g>
<!-- Node5 -->
<g id="node5" class="node">
<title>Node5</title>
<g id="a_node5"><a xlink:href="../../d9/d82/_element_base_8h.html" target="_top" xlink:title=" ">
<polygon fill="white" stroke="#666666" points="298.5,-262 140.5,-262 140.5,-242 298.5,-242 298.5,-262"/>
<text text-anchor="middle" x="219.5" y="-249.2" font-family="Consolas" font-size="11.00">Element/ElementBase.h</text>
</a>
</g>
</g>
<!-- Node4&#45;&gt;Node5 -->
<g id="edge4" class="edge">
<title>Node4&#45;&gt;Node5</title>
<path fill="none" stroke="#63b8ff" d="M224.59,-303.89C223.75,-295.52 222.48,-282.84 221.42,-272.23"/>
<polygon fill="#63b8ff" stroke="#63b8ff" points="224.9,-271.8 220.42,-262.2 217.93,-272.5 224.9,-271.8"/>
</g>
<!-- Node6 -->
<g id="node6" class="node">
<title>Node6</title>
<g id="a_node6"><a xlink:href="../../d2/d4a/_tag_8h.html" target="_top" xlink:title=" ">
<polygon fill="white" stroke="#666666" points="465.5,-132 367.5,-132 367.5,-112 465.5,-112 465.5,-132"/>
<text text-anchor="middle" x="416.5" y="-119.2" font-family="Consolas" font-size="11.00">Domain/Tag.h</text>
</a>
</g>
</g>
<!-- Node5&#45;&gt;Node6 -->
<g id="edge5" class="edge">
<title>Node5&#45;&gt;Node6</title>
<path fill="none" stroke="#63b8ff" d="M217.33,-241.96C213.87,-225.17 209.24,-188.96 227.5,-168 244.41,-148.59 308.35,-136.33 357.22,-129.59"/>
<polygon fill="#63b8ff" stroke="#63b8ff" points="357.95,-133.02 367.4,-128.24 357.02,-126.09 357.95,-133.02"/>
</g>
<!-- Node15 -->
<g id="node15" class="node">
<title>Node15</title>
<g id="a_node15"><a xlink:href="../../d9/dc0/vtk_base_8h.html" target="_top" xlink:title=" ">
<polygon fill="white" stroke="#666666" points="180.5,-200 22.5,-200 22.5,-168 180.5,-168 180.5,-200"/>
<text text-anchor="start" x="30.5" y="-187.2" font-family="Consolas" font-size="11.00">Element/Visualisation</text>
<text text-anchor="middle" x="101.5" y="-175.2" font-family="Consolas" font-size="11.00">/vtkBase.h</text>
</a>
</g>
</g>
<!-- Node5&#45;&gt;Node15 -->
<g id="edge14" class="edge">
<title>Node5&#45;&gt;Node15</title>
<path fill="none" stroke="#63b8ff" d="M203.09,-241.82C186.25,-232.4 159.48,-217.43 137.66,-205.22"/>
<polygon fill="#63b8ff" stroke="#63b8ff" points="139.08,-202.01 128.65,-200.18 135.66,-208.12 139.08,-202.01"/>
</g>
<!-- Node16 -->
<g id="node16" class="node">
<title>Node16</title>
<g id="a_node16"><a xlink:href="../../d6/d94/_mapping_d_o_f_8h.html" target="_top" xlink:title=" ">
<polygon fill="white" stroke="#666666" points="388.5,-194 236.5,-194 236.5,-174 388.5,-174 388.5,-194"/>
<text text-anchor="middle" x="312.5" y="-181.2" font-family="Consolas" font-size="11.00">Element/MappingDOF.h</text>
</a>
</g>
</g>
<!-- Node5&#45;&gt;Node16 -->
<g id="edge15" class="edge">
<title>Node5&#45;&gt;Node16</title>
<path fill="none" stroke="#63b8ff" d="M232.43,-241.82C247.7,-230.99 273.31,-212.81 291.45,-199.94"/>
<polygon fill="#63b8ff" stroke="#63b8ff" points="293.55,-202.74 299.68,-194.1 289.5,-197.03 293.55,-202.74"/>
</g>
<!-- Node7 -->
<g id="node7" class="node">
<title>Node7</title>
<g id="a_node7"><a xlink:href="../../d8/d8f/suan_pan_8h.html" target="_top" xlink:title=" ">
<polygon fill="white" stroke="#666666" points="588,-76 511,-76 511,-56 588,-56 588,-76"/>
<text text-anchor="middle" x="549.5" y="-63.2" font-family="Consolas" font-size="11.00">suanPan.h</text>
</a>
</g>
</g>
<!-- Node6&#45;&gt;Node7 -->
<g id="edge6" class="edge">
<title>Node6&#45;&gt;Node7</title>
<path fill="none" stroke="#63b8ff" d="M438.76,-111.96C460.34,-103.2 493.29,-89.82 517.64,-79.93"/>
<polygon fill="#63b8ff" stroke="#63b8ff" points="519.22,-83.07 527.17,-76.07 516.58,-76.59 519.22,-83.07"/>
</g>
<!-- Node8 -->
<g id="node8" class="node">
<title>Node8</title>
<g id="a_node8"><a xlink:title=" ">
<polygon fill="#e0e0e0" stroke="#999999" points="220,-20 149,-20 149,0 220,0 220,-20"/>
<text text-anchor="middle" x="184.5" y="-7.2" font-family="Consolas" font-size="11.00">iostream</text>
</a>
</g>
</g>
<!-- Node7&#45;&gt;Node8 -->
<g id="edge7" class="edge">
<title>Node7&#45;&gt;Node8</title>
<path fill="none" stroke="#63b8ff" d="M510.97,-60.31C452.57,-53.04 337.92,-38.16 230.38,-20.06"/>
<polygon fill="#63b8ff" stroke="#63b8ff" points="230.77,-16.58 220.33,-18.36 229.6,-23.48 230.77,-16.58"/>
</g>
<!-- Node9 -->
<g id="node9" class="node">
<title>Node9</title>
<g id="a_node9"><a xlink:title=" ">
<polygon fill="#e0e0e0" stroke="#999999" points="383,-20 238,-20 238,0 383,0 383,-20"/>
<text text-anchor="middle" x="310.5" y="-7.2" font-family="Consolas" font-size="11.00">armadillo/armadillo</text>
</a>
</g>
</g>
<!-- Node7&#45;&gt;Node9 -->
<g id="edge8" class="edge">
<title>Node7&#45;&gt;Node9</title>
<path fill="none" stroke="#63b8ff" d="M510.83,-56.26C469.93,-47.02 405.25,-32.41 360.5,-22.3"/>
<polygon fill="#63b8ff" stroke="#63b8ff" points="361.23,-18.87 350.71,-20.08 359.69,-25.7 361.23,-18.87"/>
</g>
<!-- Node10 -->
<g id="node10" class="node">
<title>Node10</title>
<g id="a_node10"><a xlink:title=" ">
<polygon fill="#e0e0e0" stroke="#999999" points="485.5,-20 401.5,-20 401.5,0 485.5,0 485.5,-20"/>
<text text-anchor="middle" x="443.5" y="-7.2" font-family="Consolas" font-size="11.00">filesystem</text>
</a>
</g>
</g>
<!-- Node7&#45;&gt;Node10 -->
<g id="edge9" class="edge">
<title>Node7&#45;&gt;Node10</title>
<path fill="none" stroke="#63b8ff" d="M531.52,-55.84C514.74,-47.29 489.49,-34.43 470.34,-24.67"/>
<polygon fill="#63b8ff" stroke="#63b8ff" points="471.72,-21.45 461.22,-20.03 468.54,-27.68 471.72,-21.45"/>
</g>
<!-- Node11 -->
<g id="node11" class="node">
<title>Node11</title>
<g id="a_node11"><a xlink:title=" ">
<polygon fill="#e0e0e0" stroke="#999999" points="595,-20 504,-20 504,0 595,0 595,-20"/>
<text text-anchor="middle" x="549.5" y="-7.2" font-family="Consolas" font-size="11.00">fmt/color.h</text>
</a>
</g>
</g>
<!-- Node7&#45;&gt;Node11 -->
<g id="edge10" class="edge">
<title>Node7&#45;&gt;Node11</title>
<path fill="none" stroke="#63b8ff" d="M549.5,-55.59C549.5,-48.7 549.5,-39.1 549.5,-30.57"/>
<polygon fill="#63b8ff" stroke="#63b8ff" points="553,-30.3 549.5,-20.3 546,-30.3 553,-30.3"/>
</g>
<!-- Node12 -->
<g id="node12" class="node">
<title>Node12</title>
<g id="a_node12"><a xlink:title=" ">
<polygon fill="#e0e0e0" stroke="#999999" points="663.5,-20 613.5,-20 613.5,0 663.5,0 663.5,-20"/>
<text text-anchor="middle" x="638.5" y="-7.2" font-family="Consolas" font-size="11.00">mutex</text>
</a>
</g>
</g>
<!-- Node7&#45;&gt;Node12 -->
<g id="edge11" class="edge">
<title>Node7&#45;&gt;Node12</title>
<path fill="none" stroke="#63b8ff" d="M564.6,-55.84C578.36,-47.49 598.92,-35.02 614.86,-25.34"/>
<polygon fill="#63b8ff" stroke="#63b8ff" points="616.89,-28.2 623.63,-20.03 613.26,-22.22 616.89,-28.2"/>
</g>
<!-- Node13 -->
<g id="node13" class="node">
<title>Node13</title>
<g id="a_node13"><a xlink:title=" ">
<polygon fill="#e0e0e0" stroke="#999999" points="765.5,-20 681.5,-20 681.5,0 765.5,0 765.5,-20"/>
<text text-anchor="middle" x="723.5" y="-7.2" font-family="Consolas" font-size="11.00">functional</text>
</a>
</g>
</g>
<!-- Node7&#45;&gt;Node13 -->
<g id="edge12" class="edge">
<title>Node7&#45;&gt;Node13</title>
<path fill="none" stroke="#63b8ff" d="M578.62,-55.96C607.61,-46.97 652.27,-33.11 684.35,-23.15"/>
<polygon fill="#63b8ff" stroke="#63b8ff" points="685.77,-26.37 694.28,-20.07 683.69,-19.69 685.77,-26.37"/>
</g>
<!-- Node14 -->
<g id="node14" class="node">
<title>Node14</title>
<g id="a_node14"><a xlink:title=" ">
<polygon fill="#e0e0e0" stroke="#999999" points="841,-20 784,-20 784,0 841,0 841,-20"/>
<text text-anchor="middle" x="812.5" y="-7.2" font-family="Consolas" font-size="11.00">memory</text>
</a>
</g>
</g>
<!-- Node7&#45;&gt;Node14 -->
<g id="edge13" class="edge">
<title>Node7&#45;&gt;Node14</title>
<path fill="none" stroke="#63b8ff" d="M588.21,-57.69C631.09,-49.49 702.53,-35.56 773.83,-20.08"/>
<polygon fill="#63b8ff" stroke="#63b8ff" points="774.87,-23.44 783.89,-17.89 773.37,-16.6 774.87,-23.44"/>
</g>
<!-- Node16&#45;&gt;Node6 -->
<g id="edge16" class="edge">
<title>Node16&#45;&gt;Node6</title>
<path fill="none" stroke="#63b8ff" d="M328.3,-173.89C345.27,-164.1 372.46,-148.41 392.17,-137.04"/>
<polygon fill="#63b8ff" stroke="#63b8ff" points="393.98,-140.03 400.9,-132 390.49,-133.97 393.98,-140.03"/>
</g>
<!-- Node18&#45;&gt;Node4 -->
<g id="edge19" class="edge">
<title>Node18&#45;&gt;Node4</title>
<path fill="none" stroke="#63b8ff" d="M281.13,-359.84C271.16,-351.8 256.45,-339.94 244.66,-330.44"/>
<polygon fill="#63b8ff" stroke="#63b8ff" points="246.68,-327.58 236.7,-324.03 242.29,-333.03 246.68,-327.58"/>
</g>
<!-- Node18&#45;&gt;Node17 -->
<g id="edge20" class="edge">
<title>Node18&#45;&gt;Node17</title>
<path fill="none" stroke="#63b8ff" d="M259.02,-359.96C225.28,-350.85 173.03,-336.74 136.08,-326.77"/>
<polygon fill="#63b8ff" stroke="#63b8ff" points="136.65,-323.3 126.08,-324.07 134.83,-330.05 136.65,-323.3"/>
</g>
<!-- Node19&#45;&gt;Node7 -->
<g id="edge22" class="edge">
<title>Node19&#45;&gt;Node7</title>
<path fill="none" stroke="#63b8ff" d="M729.85,-235.94C712.48,-219.25 683.59,-191.59 658.5,-168 626.33,-137.76 588.46,-102.81 566.89,-82.97"/>
<polygon fill="#63b8ff" stroke="#63b8ff" points="569.19,-80.33 559.46,-76.14 564.46,-85.49 569.19,-80.33"/>
</g>
<!-- Node20&#45;&gt;Node6 -->
<g id="edge24" class="edge">
<title>Node20&#45;&gt;Node6</title>
<path fill="none" stroke="#63b8ff" d="M447.34,-415.91C437.39,-397.5 416.5,-354.18 416.5,-315 416.5,-315 416.5,-315 416.5,-251 416.5,-212.44 416.5,-167.35 416.5,-142.29"/>
<polygon fill="#63b8ff" stroke="#63b8ff" points="420,-142 416.5,-132 413,-142 420,-142"/>
</g>
<!-- Node21 -->
<g id="node21" class="node">
<title>Node21</title>
<g id="a_node21"><a xlink:href="../../df/dec/_parameter_type_8h.html" target="_top" xlink:title=" ">
<polygon fill="white" stroke="#666666" points="616.5,-380 444.5,-380 444.5,-360 616.5,-360 616.5,-380"/>
<text text-anchor="middle" x="530.5" y="-367.2" font-family="Consolas" font-size="11.00">Section/ParameterType.h</text>
</a>
</g>
</g>
<!-- Node20&#45;&gt;Node21 -->
<g id="edge25" class="edge">
<title>Node20&#45;&gt;Node21</title>
<path fill="none" stroke="#63b8ff" d="M465.73,-415.84C477.57,-407.64 495.14,-395.48 508.99,-385.89"/>
<polygon fill="#63b8ff" stroke="#63b8ff" points="511.23,-388.59 517.46,-380.03 507.25,-382.84 511.23,-388.59"/>
</g>
<!-- Node22&#45;&gt;Node6 -->
<g id="edge27" class="edge">
<title>Node22&#45;&gt;Node6</title>
<path fill="none" stroke="#63b8ff" d="M613.66,-415.91C623.61,-397.5 644.5,-354.18 644.5,-315 644.5,-315 644.5,-315 644.5,-251 644.5,-173.6 543.37,-142.52 475.81,-130.4"/>
<polygon fill="#63b8ff" stroke="#63b8ff" points="476.14,-126.9 465.69,-128.68 474.96,-133.8 476.14,-126.9"/>
</g>
<!-- Node22&#45;&gt;Node21 -->
<g id="edge28" class="edge">
<title>Node22&#45;&gt;Node21</title>
<path fill="none" stroke="#63b8ff" d="M595.27,-415.84C583.43,-407.64 565.86,-395.48 552.01,-385.89"/>
<polygon fill="#63b8ff" stroke="#63b8ff" points="553.75,-382.84 543.54,-380.03 549.77,-388.59 553.75,-382.84"/>
</g>
</g>
</svg>
