<?xml version="1.0" encoding="UTF-8" standalone="no"?>
<!DOCTYPE svg PUBLIC "-//W3C//DTD SVG 1.1//EN"
 "http://www.w3.org/Graphics/SVG/1.1/DTD/svg11.dtd">
<!-- Generated by graphviz version 2.43.0 (0)
 -->
<!-- Title: GroupElementRecorder Pages: 1 -->
<svg width="195pt" height="862pt"
 viewBox="0.00 0.00 194.50 862.00" xmlns="http://www.w3.org/2000/svg" xmlns:xlink="http://www.w3.org/1999/xlink">
<g id="graph0" class="graph" transform="scale(1 1) rotate(0) translate(4 858)">
<title>GroupElementRecorder</title>
<!-- Node1 -->
<g id="Node000001" class="node">
<title>Node1</title>
<g id="a_Node000001"><a xlink:title="A GroupElementRecorder class.">
<polygon fill="#999999" stroke="transparent" points="184.5,-84 16.5,-84 16.5,0 184.5,0 184.5,-84"/>
<text text-anchor="start" x="32.5" y="-71.2" font-family="Consolas" font-size="11.00">GroupElementRecorder</text>
<text text-anchor="start" x="97" y="-55.2" font-family="Consolas" font-size="11.00"> </text>
<text text-anchor="start" x="20.5" y="-39.2" font-family="Consolas" font-size="11.00">+</text>
<text text-anchor="start" x="31.5" y="-39.2" font-family="Consolas" font-size="11.00">GroupElementRecorder()</text>
<text text-anchor="start" x="20.5" y="-23.2" font-family="Consolas" font-size="11.00">+</text>
<text text-anchor="start" x="31.5" y="-23.2" font-family="Consolas" font-size="11.00">initialize()</text>
<text text-anchor="start" x="20.5" y="-7.2" font-family="Consolas" font-size="11.00">+</text>
<text text-anchor="start" x="31.5" y="-7.2" font-family="Consolas" font-size="11.00">print()</text>
<polygon fill="#666666" stroke="#666666" points="16.5,-66 16.5,-66 184.5,-66 184.5,-66 16.5,-66"/>
<polygon fill="#666666" stroke="#666666" points="16.5,-50 16.5,-50 184.5,-50 184.5,-50 16.5,-50"/>
<polygon fill="none" stroke="#666666" points="16.5,0 16.5,-84 184.5,-84 184.5,0 16.5,0"/>
</a>
</g>
</g>
<!-- Node2 -->
<g id="Node000002" class="node">
<title>Node2</title>
<g id="a_Node000002"><a xlink:href="../../d2/da4/class_element_recorder.html" target="_top" xlink:title="A ElementRecorder class.">
<polygon fill="white" stroke="transparent" points="156.5,-253 44.5,-253 44.5,-121 156.5,-121 156.5,-253"/>
<text text-anchor="start" x="49.5" y="-240.2" font-family="Consolas" font-size="11.00">ElementRecorder</text>
<text text-anchor="start" x="97" y="-224.2" font-family="Consolas" font-size="11.00"> </text>
<text text-anchor="start" x="51" y="-208.2" font-family="Consolas" font-size="11.00">+</text>
<text text-anchor="start" x="64.5" y="-208.2" font-family="Consolas" font-size="11.00">initialize()</text>
<text text-anchor="start" x="51" y="-192.2" font-family="Consolas" font-size="11.00">+</text>
<text text-anchor="start" x="64.5" y="-192.2" font-family="Consolas" font-size="11.00">record()</text>
<text text-anchor="start" x="51" y="-176.2" font-family="Consolas" font-size="11.00">+</text>
<text text-anchor="start" x="64.5" y="-176.2" font-family="Consolas" font-size="11.00">print()</text>
<text text-anchor="start" x="51" y="-160.2" font-family="Consolas" font-size="11.00">+</text>
<text text-anchor="start" x="64.5" y="-160.2" font-family="Consolas" font-size="11.00">Recorder()</text>
<text text-anchor="start" x="51" y="-144.2" font-family="Consolas" font-size="11.00">+</text>
<text text-anchor="start" x="64.5" y="-144.2" font-family="Consolas" font-size="11.00">Recorder()</text>
<text text-anchor="start" x="51" y="-128.2" font-family="Consolas" font-size="11.00">+</text>
<text text-anchor="start" x="64.5" y="-128.2" font-family="Consolas" font-size="11.00">Recorder()</text>
<polygon fill="#666666" stroke="#666666" points="44.5,-235 44.5,-235 156.5,-235 156.5,-235 44.5,-235"/>
<polygon fill="#666666" stroke="#666666" points="44.5,-219 44.5,-219 156.5,-219 156.5,-219 44.5,-219"/>
<polygon fill="none" stroke="#666666" points="44.5,-121 44.5,-253 156.5,-253 156.5,-121 44.5,-121"/>
</a>
</g>
</g>
<!-- Node2&#45;&gt;Node1 -->
<g id="edge1_Node000001_Node000002" class="edge">
<title>Node2&#45;&gt;Node1</title>
<g id="a_edge1_Node000001_Node000002"><a xlink:title=" ">
<path fill="none" stroke="#63b8ff" d="M100.5,-110.6C100.5,-101.59 100.5,-92.66 100.5,-84.39"/>
<polygon fill="none" stroke="#63b8ff" points="97,-110.78 100.5,-120.78 104,-110.78 97,-110.78"/>
</a>
</g>
</g>
<!-- Node3 -->
<g id="Node000003" class="node">
<title>Node3</title>
<g id="a_Node000003"><a xlink:href="../../d3/d1a/class_recorder.html" target="_top" xlink:title="A Recorder class.">
<polygon fill="white" stroke="transparent" points="174.5,-518 26.5,-518 26.5,-290 174.5,-290 174.5,-518"/>
<text text-anchor="start" x="73" y="-505.2" font-family="Consolas" font-size="11.00">Recorder</text>
<text text-anchor="start" x="97" y="-489.2" font-family="Consolas" font-size="11.00"> </text>
<text text-anchor="start" x="30.5" y="-473.2" font-family="Consolas" font-size="11.00">+</text>
<text text-anchor="start" x="41.5" y="-473.2" font-family="Consolas" font-size="11.00">Recorder()</text>
<text text-anchor="start" x="30.5" y="-457.2" font-family="Consolas" font-size="11.00">+</text>
<text text-anchor="start" x="41.5" y="-457.2" font-family="Consolas" font-size="11.00">Recorder()</text>
<text text-anchor="start" x="30.5" y="-441.2" font-family="Consolas" font-size="11.00">+</text>
<text text-anchor="start" x="41.5" y="-441.2" font-family="Consolas" font-size="11.00">Recorder()</text>
<text text-anchor="start" x="30.5" y="-425.2" font-family="Consolas" font-size="11.00">+</text>
<text text-anchor="start" x="41.5" y="-425.2" font-family="Consolas" font-size="11.00">operator=()</text>
<text text-anchor="start" x="30.5" y="-409.2" font-family="Consolas" font-size="11.00">+</text>
<text text-anchor="start" x="41.5" y="-409.2" font-family="Consolas" font-size="11.00">operator=()</text>
<text text-anchor="start" x="30.5" y="-393.2" font-family="Consolas" font-size="11.00">+</text>
<text text-anchor="start" x="41.5" y="-393.2" font-family="Consolas" font-size="11.00">~Recorder()</text>
<text text-anchor="start" x="30.5" y="-377.2" font-family="Consolas" font-size="11.00">+</text>
<text text-anchor="start" x="41.5" y="-377.2" font-family="Consolas" font-size="11.00">initialize()</text>
<text text-anchor="start" x="30.5" y="-361.2" font-family="Consolas" font-size="11.00">+</text>
<text text-anchor="start" x="41.5" y="-361.2" font-family="Consolas" font-size="11.00">set_object_tag()</text>
<text text-anchor="start" x="30.5" y="-345.2" font-family="Consolas" font-size="11.00">+</text>
<text text-anchor="start" x="41.5" y="-345.2" font-family="Consolas" font-size="11.00">get_object_tag()</text>
<text text-anchor="start" x="30.5" y="-329.2" font-family="Consolas" font-size="11.00">+</text>
<text text-anchor="start" x="41.5" y="-329.2" font-family="Consolas" font-size="11.00">set_variable_type()</text>
<text text-anchor="start" x="41.5" y="-313.2" font-family="Consolas" font-size="11.00">and 11 more...</text>
<text text-anchor="start" x="30.5" y="-297.2" font-family="Consolas" font-size="11.00">#</text>
<text text-anchor="start" x="41.5" y="-297.2" font-family="Consolas" font-size="11.00">if_perform_record()</text>
<polygon fill="#666666" stroke="#666666" points="26.5,-500 26.5,-500 174.5,-500 174.5,-500 26.5,-500"/>
<polygon fill="#666666" stroke="#666666" points="26.5,-484 26.5,-484 174.5,-484 174.5,-484 26.5,-484"/>
<polygon fill="none" stroke="#666666" points="26.5,-290 26.5,-518 174.5,-518 174.5,-290 26.5,-290"/>
</a>
</g>
</g>
<!-- Node3&#45;&gt;Node2 -->
<g id="edge2_Node000002_Node000003" class="edge">
<title>Node3&#45;&gt;Node2</title>
<g id="a_edge2_Node000002_Node000003"><a xlink:title=" ">
<path fill="none" stroke="#63b8ff" d="M100.5,-279.58C100.5,-270.54 100.5,-261.66 100.5,-253.2"/>
<polygon fill="none" stroke="#63b8ff" points="97,-279.83 100.5,-289.83 104,-279.83 97,-279.83"/>
</a>
</g>
</g>
<!-- Node4 -->
<g id="Node000004" class="node">
<title>Node4</title>
<g id="a_Node000004"><a xlink:href="../../d0/d57/class_tag.html" target="_top" xlink:title="A base Tag class.">
<polygon fill="white" stroke="transparent" points="101,-854 0,-854 0,-578 101,-578 101,-854"/>
<text text-anchor="start" x="40.5" y="-841.2" font-family="Consolas" font-size="11.00">Tag</text>
<text text-anchor="start" x="47.5" y="-825.2" font-family="Consolas" font-size="11.00"> </text>
<text text-anchor="start" x="4.5" y="-809.2" font-family="Consolas" font-size="11.00">+</text>
<text text-anchor="start" x="15.5" y="-809.2" font-family="Consolas" font-size="11.00">Tag()</text>
<text text-anchor="start" x="4.5" y="-793.2" font-family="Consolas" font-size="11.00">+</text>
<text text-anchor="start" x="15.5" y="-793.2" font-family="Consolas" font-size="11.00">Tag()</text>
<text text-anchor="start" x="4.5" y="-777.2" font-family="Consolas" font-size="11.00">+</text>
<text text-anchor="start" x="15.5" y="-777.2" font-family="Consolas" font-size="11.00">Tag()</text>
<text text-anchor="start" x="4.5" y="-761.2" font-family="Consolas" font-size="11.00">+</text>
<text text-anchor="start" x="15.5" y="-761.2" font-family="Consolas" font-size="11.00">operator=()</text>
<text text-anchor="start" x="4.5" y="-745.2" font-family="Consolas" font-size="11.00">+</text>
<text text-anchor="start" x="15.5" y="-745.2" font-family="Consolas" font-size="11.00">operator=()</text>
<text text-anchor="start" x="4.5" y="-729.2" font-family="Consolas" font-size="11.00">+</text>
<text text-anchor="start" x="15.5" y="-729.2" font-family="Consolas" font-size="11.00">~Tag()</text>
<text text-anchor="start" x="4.5" y="-713.2" font-family="Consolas" font-size="11.00">+</text>
<text text-anchor="start" x="15.5" y="-713.2" font-family="Consolas" font-size="11.00">set_tag()</text>
<text text-anchor="start" x="4.5" y="-697.2" font-family="Consolas" font-size="11.00">+</text>
<text text-anchor="start" x="15.5" y="-697.2" font-family="Consolas" font-size="11.00">get_tag()</text>
<text text-anchor="start" x="4.5" y="-681.2" font-family="Consolas" font-size="11.00">+</text>
<text text-anchor="start" x="15.5" y="-681.2" font-family="Consolas" font-size="11.00">enable()</text>
<text text-anchor="start" x="4.5" y="-665.2" font-family="Consolas" font-size="11.00">+</text>
<text text-anchor="start" x="15.5" y="-665.2" font-family="Consolas" font-size="11.00">disable()</text>
<text text-anchor="start" x="4.5" y="-649.2" font-family="Consolas" font-size="11.00">+</text>
<text text-anchor="start" x="15.5" y="-649.2" font-family="Consolas" font-size="11.00">guard()</text>
<text text-anchor="start" x="4.5" y="-633.2" font-family="Consolas" font-size="11.00">+</text>
<text text-anchor="start" x="15.5" y="-633.2" font-family="Consolas" font-size="11.00">unguard()</text>
<text text-anchor="start" x="4.5" y="-617.2" font-family="Consolas" font-size="11.00">+</text>
<text text-anchor="start" x="15.5" y="-617.2" font-family="Consolas" font-size="11.00">is_active()</text>
<text text-anchor="start" x="4.5" y="-601.2" font-family="Consolas" font-size="11.00">+</text>
<text text-anchor="start" x="15.5" y="-601.2" font-family="Consolas" font-size="11.00">is_guarded()</text>
<text text-anchor="start" x="4.5" y="-585.2" font-family="Consolas" font-size="11.00">+</text>
<text text-anchor="start" x="15.5" y="-585.2" font-family="Consolas" font-size="11.00">print()</text>
<polygon fill="#666666" stroke="#666666" points="0.5,-836 0.5,-836 101.5,-836 101.5,-836 0.5,-836"/>
<polygon fill="#666666" stroke="#666666" points="0.5,-820 0.5,-820 101.5,-820 101.5,-820 0.5,-820"/>
<polygon fill="none" stroke="#666666" points="0,-578 0,-854 101,-854 101,-578 0,-578"/>
</a>
</g>
</g>
<!-- Node4&#45;&gt;Node3 -->
<g id="edge3_Node000003_Node000004" class="edge">
<title>Node4&#45;&gt;Node3</title>
<g id="a_edge3_Node000003_Node000004"><a xlink:title=" ">
<path fill="none" stroke="#63b8ff" d="M74.31,-567.38C76.98,-550.8 79.68,-534.11 82.26,-518.07"/>
<polygon fill="none" stroke="#63b8ff" points="70.79,-567.25 72.65,-577.68 77.7,-568.36 70.79,-567.25"/>
</a>
</g>
</g>
<!-- Node5 -->
<g id="Node000005" class="node">
<title>Node5</title>
<g id="a_Node000005"><a xlink:title=" ">
<polygon fill="white" stroke="transparent" points="184,-742 119,-742 119,-690 184,-690 184,-742"/>
<text text-anchor="start" x="124.5" y="-729.2" font-family="Consolas" font-size="11.00">unsigned</text>
<text text-anchor="start" x="148.5" y="-713.2" font-family="Consolas" font-size="11.00"> </text>
<text text-anchor="start" x="148.5" y="-697.2" font-family="Consolas" font-size="11.00"> </text>
<polygon fill="#666666" stroke="#666666" points="119.5,-724 119.5,-724 184.5,-724 184.5,-724 119.5,-724"/>
<polygon fill="#666666" stroke="#666666" points="119.5,-708 119.5,-708 184.5,-708 184.5,-708 119.5,-708"/>
<polygon fill="none" stroke="#666666" points="119,-690 119,-742 184,-742 184,-690 119,-690"/>
</a>
</g>
</g>
<!-- Node5&#45;&gt;Node3 -->
<g id="edge4_Node000003_Node000005" class="edge">
<title>Node5&#45;&gt;Node3</title>
<g id="a_edge4_Node000003_Node000005"><a xlink:title=" ">
<path fill="none" stroke="#63b8ff" d="M147.37,-689.89C141.65,-655.1 130.9,-589.8 121.14,-530.48"/>
<polygon fill="none" stroke="#63b8ff" points="121.09,-530.16 116.17,-524.89 119.14,-518.32 124.06,-523.59 121.09,-530.16"/>
</a>
</g>
<text text-anchor="middle" x="156" y="-551.2" font-family="Consolas" font-size="11.00" fill="grey"> #counter</text>
<text text-anchor="middle" x="156" y="-539.2" font-family="Consolas" font-size="11.00" fill="grey">#interval</text>
</g>
</g>
</svg>
