<svg xmlns="http://www.w3.org/2000/svg" xmlns:xlink="http://www.w3.org/1999/xlink" xml:space="preserve" id="main" onload="init(evt)"><style>.edge,.node,[data-mouse-over-selected=false]{opacity:.7}.edge.selected,.node.selected,[data-mouse-over-selected=true]{opacity:1}.edge:hover path{stroke:red}.edge:hover polygon{stroke:red;fill:red}</style><defs><g id="zoomPlus"><use xlink:href="#rim" fill="#404040"><set attributeName="fill" begin="zoomplus.mouseover" end="zoomplus.mouseout" to="#808080"/></use><path fill="none" stroke="#fff" stroke-width="1.5" d="M-4 0h8M0-4v8" pointer-events="none"/></g><g id="zoomMin"><use xlink:href="#rim" fill="#404040"><set attributeName="fill" begin="zoomminus.mouseover" end="zoomminus.mouseout" to="#808080"/></use><path fill="none" stroke="#fff" stroke-width="1.5" d="M-4 0h8" pointer-events="none"/></g><g id="arrowUp" transform="translate(30 24)"><use xlink:href="#rim"/><path fill="none" stroke="#fff" stroke-width="1.5" d="M0-3v7M-2.5-.5 0-3 2.5-.5" pointer-events="none"/></g><g id="arrowRight" transform="rotate(90 3.5 39.5)"><use xlink:href="#rim"/><path fill="none" stroke="#fff" stroke-width="1.5" d="M0-3v7M-2.5-.5 0-3 2.5-.5" pointer-events="none"/></g><g id="arrowDown" transform="matrix(-1 0 0 -1 30 48)"><use xlink:href="#rim"/><path fill="none" stroke="#fff" stroke-width="1.5" d="M0-3v7M-2.5-.5 0-3 2.5-.5" pointer-events="none"/></g><g id="arrowLeft" transform="rotate(-90 26.5 9.5)"><use xlink:href="#rim"/><path fill="none" stroke="#fff" stroke-width="1.5" d="M0-3v7M-2.5-.5 0-3 2.5-.5" pointer-events="none"/></g><circle id="rim" cx="0" cy="0" r="7"/><circle id="rim2" cx="0" cy="0" r="3.5"/><use xlink:href="#rim2" id="resetDef" fill="#404040"><set attributeName="fill" begin="reset.mouseover" end="reset.mouseout" to="#808080"/></use></defs><script type="application/ecmascript">var viewWidth = 717;
var viewHeight = 332;
var sectionId = &apos;dynsection-0&apos;;</script><script xlink:href="../../svg.min.js" type="application/ecmascript"/><svg id="graph" class="graph"><g id="viewport"><title>Constraint/Criterion/NodeBasedCriterion.cpp</title><g id="Node000001" class="node"><title>Node1</title><a id="a_Node000001">
<path fill="#999" stroke="#666" d="M446.5-324h-172v32h172z"/>
<text x="282.5" y="-311.2" font-family="Consolas" font-size="11">Constraint/Criterion</text>
<text x="360.5" y="-299.2" font-family="Consolas" font-size="11" text-anchor="middle">/NodeBasedCriterion.cpp</text>
</a></g><g id="Node000002" class="node"><title>Node2</title><a xlink:href="../../d5/d37/_node_based_criterion_8h.html" id="a_Node000002" target="_top">
<path fill="#fff" stroke="#666" d="M384.5-256h-152v20h152z"/>
<text x="308.5" y="-243.2" font-family="Consolas" font-size="11" text-anchor="middle">NodeBasedCriterion.h</text>
</a></g><g id="edge1_Node000001_Node000002" class="edge"><title>Node1-&gt;Node2</title><a id="a_edge1_Node000001_Node000002">
<path fill="none" stroke="#63b8ff" d="M347.38-291.86c-7.39 8.52-16.63 19.19-24.25 27.98"/>
<path fill="#63b8ff" stroke="#63b8ff" d="m325.63-261.42-9.2 5.27 3.91-9.85z"/>
</a></g><g id="Node000013" class="node"><title>Node13</title><a xlink:href="../../dc/df2/_domain_base_8h.html" id="a_Node000013" target="_top">
<path fill="#fff" stroke="#666" d="M524-194H379v20h145z"/>
<text x="451.5" y="-181.2" font-family="Consolas" font-size="11" text-anchor="middle">Domain/DomainBase.h</text>
</a></g><g id="edge13_Node000001_Node000013" class="edge"><title>Node1-&gt;Node13</title><a id="a_edge13_Node000001_Node000013">
<path fill="none" stroke="#63b8ff" d="M372.03-291.55c17.04 22.86 48.88 65.53 66.64 89.35"/>
<path fill="#63b8ff" stroke="#63b8ff" d="m441.56-204.18 3.17 10.11-8.78-5.92z"/>
</a></g><g id="Node000003" class="node"><title>Node3</title><a xlink:href="../../d0/d63/_criterion_8h.html" id="a_Node000003" target="_top">
<path fill="#fff" stroke="#666" d="M238.5-200h-152v32h152z"/>
<text x="94.5" y="-187.2" font-family="Consolas" font-size="11">Constraint/Criterion</text>
<text x="162.5" y="-175.2" font-family="Consolas" font-size="11" text-anchor="middle">/Criterion.h</text>
</a></g><g id="edge2_Node000002_Node000003" class="edge"><title>Node2-&gt;Node3</title><a id="a_edge2_Node000002_Node000003">
<path fill="none" stroke="#63b8ff" d="m286.33-235.89-77.92 32.02"/>
<path fill="#63b8ff" stroke="#63b8ff" d="m209.68-200.61-10.58.57 7.92-7.04z"/>
</a></g><g id="Node000012" class="node"><title>Node12</title><a xlink:href="../../d1/d02/_node_8h.html" id="a_Node000012" target="_top">
<path fill="#fff" stroke="#666" d="M360.5-194h-104v20h104z"/>
<text x="308.5" y="-181.2" font-family="Consolas" font-size="11" text-anchor="middle">Domain/Node.h</text>
</a></g><g id="edge11_Node000002_Node000012" class="edge"><title>Node2-&gt;Node12</title><a id="a_edge11_Node000002_Node000012">
<path fill="none" stroke="#63b8ff" d="M308.5-235.89v31.66"/>
<path fill="#63b8ff" stroke="#63b8ff" d="m312-204.2-3.5 10-3.5-10z"/>
</a></g><g id="Node000004" class="node"><title>Node4</title><a xlink:href="../../d2/d4a/_tag_8h.html" id="a_Node000004" target="_top">
<path fill="#fff" stroke="#666" d="M357.5-132h-98v20h98z"/>
<text x="308.5" y="-119.2" font-family="Consolas" font-size="11" text-anchor="middle">Domain/Tag.h</text>
</a></g><g id="edge3_Node000003_Node000004" class="edge"><title>Node3-&gt;Node4</title><a id="a_edge3_Node000003_Node000004">
<path fill="none" stroke="#63b8ff" d="M199.34-167.86c23.84 9.8 54.57 22.43 77.35 31.79"/>
<path fill="#63b8ff" stroke="#63b8ff" d="m278.31-139.19 7.92 7.04-10.58-.57z"/>
</a></g><g id="Node000005" class="node"><title>Node5</title><a xlink:href="../../d8/d8f/suan_pan_8h.html" id="a_Node000005" target="_top">
<path fill="#fff" stroke="#666" d="M352-76h-77v20h77z"/>
<text x="313.5" y="-63.2" font-family="Consolas" font-size="11" text-anchor="middle">suanPan.h</text>
</a></g><g id="edge4_Node000004_Node000005" class="edge"><title>Node4-&gt;Node5</title><a id="a_edge4_Node000004_Node000005">
<path fill="none" stroke="#63b8ff" d="M309.37-111.59c.65 6.96 1.55 16.7 2.34 25.3"/>
<path fill="#63b8ff" stroke="#63b8ff" d="m315.2-86.58-2.56 10.28-4.41-9.63z"/>
</a></g><g id="Node000006" class="node"><title>Node6</title><a id="a_Node000006">
<path fill="#e0e0e0" stroke="#999" d="M71-20H0V0h71z"/>
<text x="35.5" y="-7.2" font-family="Consolas" font-size="11" text-anchor="middle">iostream</text>
</a></g><g id="edge5_Node000005_Node000006" class="edge"><title>Node5-&gt;Node6</title><a id="a_edge5_Node000005_Node000006">
<path fill="none" stroke="#63b8ff" d="M274.96-57.73c-44.4 8.4-119.84 22.78-193.95 37.45"/>
<path fill="#63b8ff" stroke="#63b8ff" d="m81.52-16.82-10.49-1.49 9.13-5.37z"/>
</a></g><g id="Node000007" class="node"><title>Node7</title><a id="a_Node000007">
<path fill="#e0e0e0" stroke="#999" d="M200-20H89V0h111z"/>
<text x="144.5" y="-7.2" font-family="Consolas" font-size="11" text-anchor="middle">armadillo/arma</text>
</a></g><g id="edge6_Node000005_Node000007" class="edge"><title>Node5-&gt;Node7</title><a id="a_edge6_Node000005_Node000007">
<path fill="none" stroke="#63b8ff" d="M285.21-55.96c-28.15 8.99-71.53 22.85-102.68 32.81"/>
<path fill="#63b8ff" stroke="#63b8ff" d="m183.47-19.78-10.59-.29 8.46-6.38z"/>
</a></g><g id="Node000008" class="node"><title>Node8</title><a id="a_Node000008">
<path fill="#e0e0e0" stroke="#999" d="M302.5-20h-84V0h84z"/>
<text x="260.5" y="-7.2" font-family="Consolas" font-size="11" text-anchor="middle">filesystem</text>
</a></g><g id="edge7_Node000005_Node000008" class="edge"><title>Node5-&gt;Node8</title><a id="a_edge7_Node000005_Node000008">
<path fill="none" stroke="#63b8ff" d="M304.27-55.59c-7.6 7.74-18.56 18.9-27.61 28.12"/>
<path fill="#63b8ff" stroke="#63b8ff" d="m279.13-24.98-9.5 4.68 4.5-9.59z"/>
</a></g><g id="Node000009" class="node"><title>Node9</title><a id="a_Node000009">
<path fill="#e0e0e0" stroke="#999" d="M412-20h-91V0h91z"/>
<text x="366.5" y="-7.2" font-family="Consolas" font-size="11" text-anchor="middle">fmt/color.h</text>
</a></g><g id="edge8_Node000005_Node000009" class="edge"><title>Node5-&gt;Node9</title><a id="a_edge8_Node000005_Node000009">
<path fill="none" stroke="#63b8ff" d="M322.73-55.59c7.6 7.74 18.56 18.9 27.61 28.12"/>
<path fill="#63b8ff" stroke="#63b8ff" d="m352.87-29.89 4.5 9.59-9.5-4.68z"/>
</a></g><g id="Node000010" class="node"><title>Node10</title><a id="a_Node000010">
<path fill="#e0e0e0" stroke="#999" d="M480.5-20h-50V0h50z"/>
<text x="455.5" y="-7.2" font-family="Consolas" font-size="11" text-anchor="middle">mutex</text>
</a></g><g id="edge9_Node000005_Node000010" class="edge"><title>Node5-&gt;Node10</title><a id="a_edge9_Node000005_Node000010">
<path fill="none" stroke="#63b8ff" d="M337.27-55.96c23.24 8.84 58.84 22.38 84.91 32.29"/>
<path fill="#63b8ff" stroke="#63b8ff" d="m423.55-26.89 8.1 6.82-10.59-.28z"/>
</a></g><g id="Node000011" class="node"><title>Node11</title><a id="a_Node000011">
<path fill="#e0e0e0" stroke="#999" d="M556-20h-57V0h57z"/>
<text x="527.5" y="-7.2" font-family="Consolas" font-size="11" text-anchor="middle">memory</text>
</a></g><g id="edge10_Node000005_Node000011" class="edge"><title>Node5-&gt;Node11</title><a id="a_edge10_Node000005_Node000011">
<path fill="none" stroke="#63b8ff" d="m349.32-55.96 139.61 35.23"/>
<path fill="#63b8ff" stroke="#63b8ff" d="m489.93-24.09 8.84 5.84-10.55.95z"/>
</a></g><g id="edge12_Node000012_Node000004" class="edge"><title>Node12-&gt;Node4</title><a id="a_edge12_Node000012_Node000004">
<path fill="none" stroke="#63b8ff" d="M308.5-173.89v31.66"/>
<path fill="#63b8ff" stroke="#63b8ff" d="m312-142.2-3.5 10-3.5-10z"/>
</a></g><g id="edge14_Node000013_Node000004" class="edge"><title>Node13-&gt;Node4</title><a id="a_edge14_Node000013_Node000004">
<path fill="none" stroke="#63b8ff" d="M429.78-173.89c-24.08 10.1-63.1 26.48-90.36 37.92"/>
<path fill="#63b8ff" stroke="#63b8ff" d="m340.53-132.64-10.58.64 7.87-7.1z"/>
</a></g><g id="Node000014" class="node"><title>Node14</title><a xlink:href="../../d4/ddd/container_8h.html" id="a_Node000014" target="_top">
<path fill="#fff" stroke="#666" d="M521-132H376v20h145z"/>
<text x="448.5" y="-119.2" font-family="Consolas" font-size="11" text-anchor="middle">Toolbox/container.h</text>
</a></g><g id="edge15_Node000013_Node000014" class="edge"><title>Node13-&gt;Node14</title><a id="a_edge15_Node000013_Node000014">
<path fill="none" stroke="#63b8ff" d="M451.04-173.89c-.41 8.37-1.05 21.05-1.58 31.66"/>
<path fill="#63b8ff" stroke="#63b8ff" d="m452.96-142.01-4 9.81-3-10.16z"/>
</a></g><g id="Node000019" class="node"><title>Node19</title><a id="a_Node000019">
<path fill="#e0e0e0" stroke="#999" d="M596-132h-57v20h57z"/>
<text x="567.5" y="-119.2" font-family="Consolas" font-size="11" text-anchor="middle">future</text>
</a></g><g id="edge21_Node000013_Node000019" class="edge"><title>Node13-&gt;Node19</title><a id="a_edge21_Node000013_Node000019">
<path fill="none" stroke="#63b8ff" d="M469.12-173.89c19.1 9.88 49.81 25.77 71.83 37.16"/>
<path fill="#63b8ff" stroke="#63b8ff" d="m542.82-139.7 7.28 7.7-10.49-1.49z"/>
</a></g><g id="edge16_Node000014_Node000005" class="edge"><title>Node14-&gt;Node5</title><a id="a_edge16_Node000014_Node000005">
<path fill="none" stroke="#63b8ff" d="M425.9-111.96c-22 8.8-55.64 22.26-80.39 32.16"/>
<path fill="#63b8ff" stroke="#63b8ff" d="m346.75-76.53-10.58.46 7.98-6.96z"/>
</a></g><g id="Node000015" class="node"><title>Node15</title><a id="a_Node000015">
<path fill="#e0e0e0" stroke="#999" d="M409-76h-37v20h37z"/>
<text x="390.5" y="-63.2" font-family="Consolas" font-size="11" text-anchor="middle">map</text>
</a></g><g id="edge17_Node000014_Node000015" class="edge"><title>Node14-&gt;Node15</title><a id="a_edge17_Node000014_Node000015">
<path fill="none" stroke="#63b8ff" d="M438.66-111.84c-8.47 7.88-20.88 19.44-30.98 28.84"/>
<path fill="#63b8ff" stroke="#63b8ff" d="m409.9-80.28-9.71 4.25 4.94-9.37z"/>
</a></g><g id="Node000016" class="node"><title>Node16</title><a id="a_Node000016">
<path fill="#e0e0e0" stroke="#999" d="M464-76h-37v20h37z"/>
<text x="445.5" y="-63.2" font-family="Consolas" font-size="11" text-anchor="middle">set</text>
</a></g><g id="edge18_Node000014_Node000016" class="edge"><title>Node14-&gt;Node16</title><a id="a_edge18_Node000014_Node000016">
<path fill="none" stroke="#63b8ff" d="M447.98-111.59c-.39 6.96-.93 16.7-1.41 25.3"/>
<path fill="#63b8ff" stroke="#63b8ff" d="m450.07-86.09-4.05 9.79-2.94-10.18z"/>
</a></g><g id="Node000017" class="node"><title>Node17</title><a id="a_Node000017">
<path fill="#e0e0e0" stroke="#999" d="M586.5-76h-104v20h104z"/>
<text x="534.5" y="-63.2" font-family="Consolas" font-size="11" text-anchor="middle">unordered_map</text>
</a></g><g id="edge19_Node000014_Node000017" class="edge"><title>Node14-&gt;Node17</title><a id="a_edge19_Node000014_Node000017">
<path fill="none" stroke="#63b8ff" d="M463.09-111.84c13.3 8.35 33.16 20.82 48.57 30.5"/>
<path fill="#63b8ff" stroke="#63b8ff" d="m513.52-84.31 6.61 8.28-10.33-2.35z"/>
</a></g><g id="Node000018" class="node"><title>Node18</title><a id="a_Node000018">
<path fill="#e0e0e0" stroke="#999" d="M708.5-76h-104v20h104z"/>
<text x="656.5" y="-63.2" font-family="Consolas" font-size="11" text-anchor="middle">unordered_set</text>
</a></g><g id="edge20_Node000014_Node000018" class="edge"><title>Node14-&gt;Node18</title><a id="a_edge20_Node000014_Node000018">
<path fill="none" stroke="#63b8ff" d="M483.31-111.96c35.25 9.15 89.9 23.34 128.36 33.32"/>
<path fill="#63b8ff" stroke="#63b8ff" d="m612.77-81.97 8.8 5.9-10.56.88z"/>
</a></g></g></svg><g id="navigator" fill="#404254"><path fill="#f2f5e9" fill-opacity=".5" stroke="#606060" stroke-width=".5" d="M0 0h60v60H0z"/><use xlink:href="#zoomPlus" id="zoomplus" x="17" y="9" onmousedown="handleZoom(evt,'in')"/><use xlink:href="#zoomMin" id="zoomminus" x="42" y="9" onmousedown="handleZoom(evt,'out')"/><use xlink:href="#resetDef" id="reset" x="30" y="36" onmousedown="handleReset()"/><use xlink:href="#arrowUp" id="arrowup" x="0" y="0" onmousedown="handlePan(0,-1)"/><use xlink:href="#arrowRight" id="arrowright" x="0" y="0" onmousedown="handlePan(1,0)"/><use xlink:href="#arrowDown" id="arrowdown" x="0" y="0" onmousedown="handlePan(0,1)"/><use xlink:href="#arrowLeft" id="arrowleft" x="0" y="0" onmousedown="handlePan(-1,0)"/></g><svg height="30" preserveAspectRatio="xMaxYMin meet" viewBox="0 0 15 15"><a xlink:href="_node_based_criterion_8cpp__incl_org.svg" id="arrow_out" target="_base" transform="scale(.3)">
   <rect id="button" width="38" height="38" x="6" y="6" fill="#f2f5e9" fill-opacity=".5" stroke="#606060" stroke-width="1" rx="5" ry="5"/>
   <path id="arrow" d="M11.5 31.437c.44-11.34 10.543-20.114 20.659-9.458l4.91-4.733.02 14.754-14.929-.022 4.838-4.838c-8.47-8.876-13.706-1.91-15.498 4.297" style="fill:#404040"/>
  </a></svg><script type="application/ecmascript"><![CDATA[
document.addEventListener('DOMContentLoaded', (event) => {
  highlightEdges();
  highlightAdjacentNodes();
});
]]></script></svg>