<?xml version="1.0" encoding="UTF-8" standalone="no"?>
<!DOCTYPE svg PUBLIC "-//W3C//DTD SVG 1.1//EN"
 "http://www.w3.org/Graphics/SVG/1.1/DTD/svg11.dtd">
<!-- Generated by graphviz version 5.0.0 (0)
 -->
<!-- Title: hann Pages: 1 -->
<svg width="386pt" height="190pt"
 viewBox="0.00 0.00 386.00 190.00" xmlns="http://www.w3.org/2000/svg" xmlns:xlink="http://www.w3.org/1999/xlink">
<g id="graph0" class="graph" transform="scale(1 1) rotate(0) translate(4 186)">
<title>hann</title>
<!-- Node1 -->
<g id="node1" class="node">
<title>Node1</title>
<g id="a_node1"><a xlink:title=" ">
<polygon fill="#999999" stroke="#666666" points="378,-101 334,-101 334,-81 378,-81 378,-101"/>
<text text-anchor="middle" x="356" y="-88.2" font-family="Consolas" font-size="11.00">hann</text>
</a>
</g>
</g>
<!-- Node2 -->
<g id="node2" class="node">
<title>Node2</title>
<g id="a_node2"><a xlink:href="../../d0/de4/resampling_8cpp.html#a433950b10b95f14f494e3fc1f42aa00b" target="_top" xlink:title=" ">
<polygon fill="white" stroke="#666666" points="298,-182 113,-182 113,-150 298,-150 298,-182"/>
<text text-anchor="start" x="121" y="-169.2" font-family="Consolas" font-size="11.00">fir_band_pass&lt; WindowType</text>
<text text-anchor="middle" x="205.5" y="-157.2" font-family="Consolas" font-size="11.00">::Hann &gt;</text>
</a>
</g>
</g>
<!-- Node1&#45;&gt;Node2 -->
<g id="edge1" class="edge">
<title>Node1&#45;&gt;Node2</title>
<path fill="none" stroke="#63b8ff" d="M338.99,-108.65C328.33,-119.42 313.49,-132.67 298,-141 291.76,-144.35 285.04,-147.29 278.17,-149.84"/>
<polygon fill="#63b8ff" stroke="#63b8ff" points="341.58,-111.01 345.95,-101.36 336.52,-106.17 341.58,-111.01"/>
</g>
<!-- Node4 -->
<g id="node4" class="node">
<title>Node4</title>
<g id="a_node4"><a xlink:href="../../d0/de4/resampling_8cpp.html#aed0ae4b58a77789fdfd575e97d571793" target="_top" xlink:title=" ">
<polygon fill="white" stroke="#666666" points="298,-132 113,-132 113,-100 298,-100 298,-132"/>
<text text-anchor="start" x="121" y="-119.2" font-family="Consolas" font-size="11.00">fir_band_stop&lt; WindowType</text>
<text text-anchor="middle" x="205.5" y="-107.2" font-family="Consolas" font-size="11.00">::Hann &gt;</text>
</a>
</g>
</g>
<!-- Node1&#45;&gt;Node4 -->
<g id="edge3" class="edge">
<title>Node1&#45;&gt;Node4</title>
<path fill="none" stroke="#63b8ff" d="M323.77,-96.26C315.99,-97.57 307.25,-99.04 298.14,-100.57"/>
<polygon fill="#63b8ff" stroke="#63b8ff" points="324.44,-99.69 333.72,-94.58 323.28,-92.79 324.44,-99.69"/>
</g>
<!-- Node5 -->
<g id="node5" class="node">
<title>Node5</title>
<g id="a_node5"><a xlink:href="../../d0/de4/resampling_8cpp.html#a05cb2617910ce72bbab495409b41d0d4" target="_top" xlink:title=" ">
<polygon fill="white" stroke="#666666" points="298,-82 113,-82 113,-50 298,-50 298,-82"/>
<text text-anchor="start" x="121" y="-69.2" font-family="Consolas" font-size="11.00">fir_high_pass&lt; WindowType</text>
<text text-anchor="middle" x="205.5" y="-57.2" font-family="Consolas" font-size="11.00">::Hann &gt;</text>
</a>
</g>
</g>
<!-- Node1&#45;&gt;Node5 -->
<g id="edge5" class="edge">
<title>Node1&#45;&gt;Node5</title>
<path fill="none" stroke="#63b8ff" d="M323.77,-85.74C315.99,-84.43 307.25,-82.96 298.14,-81.43"/>
<polygon fill="#63b8ff" stroke="#63b8ff" points="323.28,-89.21 333.72,-87.42 324.44,-82.31 323.28,-89.21"/>
</g>
<!-- Node6 -->
<g id="node6" class="node">
<title>Node6</title>
<g id="a_node6"><a xlink:href="../../d0/de4/resampling_8cpp.html#a2042e7fb20b6d309ddfb2a33074455ad" target="_top" xlink:title=" ">
<polygon fill="white" stroke="#666666" points="295,-32 116,-32 116,0 295,0 295,-32"/>
<text text-anchor="start" x="124" y="-19.2" font-family="Consolas" font-size="11.00">fir_low_pass&lt; WindowType</text>
<text text-anchor="middle" x="205.5" y="-7.2" font-family="Consolas" font-size="11.00">::Hann &gt;</text>
</a>
</g>
</g>
<!-- Node1&#45;&gt;Node6 -->
<g id="edge7" class="edge">
<title>Node1&#45;&gt;Node6</title>
<path fill="none" stroke="#63b8ff" d="M338.99,-73.35C328.33,-62.58 313.49,-49.33 298,-41 291.76,-37.65 285.04,-34.71 278.17,-32.16"/>
<polygon fill="#63b8ff" stroke="#63b8ff" points="336.52,-75.83 345.95,-80.64 341.58,-70.99 336.52,-75.83"/>
</g>
<!-- Node3 -->
<g id="node3" class="node">
<title>Node3</title>
<g id="a_node3"><a xlink:href="../../dc/d7e/_test_sampling_8cpp.html#a8dc641d9c0423d83935db832e88f4510" target="_top" xlink:title=" ">
<polygon fill="white" stroke="#666666" points="77,-101 0,-101 0,-81 77,-81 77,-101"/>
<text text-anchor="middle" x="38.5" y="-88.2" font-family="Consolas" font-size="11.00">TEST_CASE</text>
</a>
</g>
</g>
<!-- Node2&#45;&gt;Node3 -->
<g id="edge2" class="edge">
<title>Node2&#45;&gt;Node3</title>
<path fill="none" stroke="#63b8ff" d="M125.89,-146.38C121.48,-144.71 117.15,-142.91 113,-141 89.59,-130.21 65.45,-112.22 51.49,-101.01"/>
<polygon fill="#63b8ff" stroke="#63b8ff" points="125.07,-149.8 135.66,-149.86 127.41,-143.21 125.07,-149.8"/>
</g>
<!-- Node4&#45;&gt;Node3 -->
<g id="edge4" class="edge">
<title>Node4&#45;&gt;Node3</title>
<path fill="none" stroke="#63b8ff" d="M102.87,-100.6C93.78,-99.22 85.02,-97.9 77.07,-96.69"/>
<polygon fill="#63b8ff" stroke="#63b8ff" points="102.42,-104.07 112.83,-102.11 103.47,-97.15 102.42,-104.07"/>
</g>
<!-- Node5&#45;&gt;Node3 -->
<g id="edge6" class="edge">
<title>Node5&#45;&gt;Node3</title>
<path fill="none" stroke="#63b8ff" d="M102.87,-81.4C93.78,-82.78 85.02,-84.1 77.07,-85.31"/>
<polygon fill="#63b8ff" stroke="#63b8ff" points="103.47,-84.85 112.83,-79.89 102.42,-77.93 103.47,-84.85"/>
</g>
<!-- Node6&#45;&gt;Node3 -->
<g id="edge8" class="edge">
<title>Node6&#45;&gt;Node3</title>
<path fill="none" stroke="#63b8ff" d="M125.89,-35.62C121.48,-37.29 117.15,-39.09 113,-41 89.59,-51.79 65.45,-69.78 51.49,-80.99"/>
<polygon fill="#63b8ff" stroke="#63b8ff" points="127.41,-38.79 135.66,-32.14 125.07,-32.2 127.41,-38.79"/>
</g>
</g>
</svg>
