<svg xmlns="http://www.w3.org/2000/svg" xmlns:xlink="http://www.w3.org/1999/xlink" xml:space="preserve" id="main" onload="init(evt)"><style>.edge,.node,[data-mouse-over-selected=false]{opacity:.7}.edge.selected,.node.selected,[data-mouse-over-selected=true]{opacity:1}.edge:hover path{stroke:red}.edge:hover polygon{stroke:red;fill:red}</style><defs><g id="zoomPlus"><use xlink:href="#rim" fill="#404040"><set attributeName="fill" begin="zoomplus.mouseover" end="zoomplus.mouseout" to="#808080"/></use><path fill="none" stroke="#fff" stroke-width="1.5" d="M-4 0h8M0-4v8" pointer-events="none"/></g><g id="zoomMin"><use xlink:href="#rim" fill="#404040"><set attributeName="fill" begin="zoomminus.mouseover" end="zoomminus.mouseout" to="#808080"/></use><path fill="none" stroke="#fff" stroke-width="1.5" d="M-4 0h8" pointer-events="none"/></g><g id="arrowUp" transform="translate(30 24)"><use xlink:href="#rim"/><path fill="none" stroke="#fff" stroke-width="1.5" d="M0-3v7M-2.5-.5 0-3 2.5-.5" pointer-events="none"/></g><g id="arrowRight" transform="rotate(90 3.5 39.5)"><use xlink:href="#rim"/><path fill="none" stroke="#fff" stroke-width="1.5" d="M0-3v7M-2.5-.5 0-3 2.5-.5" pointer-events="none"/></g><g id="arrowDown" transform="matrix(-1 0 0 -1 30 48)"><use xlink:href="#rim"/><path fill="none" stroke="#fff" stroke-width="1.5" d="M0-3v7M-2.5-.5 0-3 2.5-.5" pointer-events="none"/></g><g id="arrowLeft" transform="rotate(-90 26.5 9.5)"><use xlink:href="#rim"/><path fill="none" stroke="#fff" stroke-width="1.5" d="M0-3v7M-2.5-.5 0-3 2.5-.5" pointer-events="none"/></g><circle id="rim" cx="0" cy="0" r="7"/><circle id="rim2" cx="0" cy="0" r="3.5"/><use xlink:href="#rim2" id="resetDef" fill="#404040"><set attributeName="fill" begin="reset.mouseover" end="reset.mouseout" to="#808080"/></use></defs><script type="application/ecmascript">var viewWidth = 288;
var viewHeight = 971;
var sectionId = &apos;dynsection-1&apos;;</script><script xlink:href="../../svg.min.js" type="application/ecmascript"/><svg id="graph" class="graph"><g id="viewport"><title>AICN</title><g id="Node000001" class="node"><title>Node1</title><a id="a_Node000001">
<path fill="#999" stroke="transparent" d="M201-68h-67V0h67z"/>
<text x="154" y="-55.2" font-family="Consolas" font-size="11">AICN</text>
<text x="164.5" y="-39.2" font-family="Consolas" font-size="11"> </text>
<text x="138.5" y="-23.2" font-family="Consolas" font-size="11">+</text>
<text x="149.5" y="-23.2" font-family="Consolas" font-size="11">AICN()</text>
<text x="138.5" y="-7.2" font-family="Consolas" font-size="11">+</text>
<text x="149.5" y="-7.2" font-family="Consolas" font-size="11">print()</text>
<path fill="#666" stroke="#666" d="M134.5-50h67z"/>
<path fill="#666" stroke="#666" d="M134.5-34h67z"/>
<path fill="none" stroke="#666" d="M134 0v-68h67V0z"/>
</a></g><g id="Node000002" class="node"><title>Node2</title><a xlink:href="../../de/d8e/class_newton.html" xlink:title="A Newton class defines a solver using Newton–Raphson iteration." id="a_Node000002" target="_top">
<path fill="#fff" stroke="transparent" d="M207.5-189h-80v84h80z"/>
<text x="147" y="-176.2" font-family="Consolas" font-size="11">Newton</text>
<text x="164" y="-160.2" font-family="Consolas" font-size="11"> </text>
<text x="131.5" y="-144.2" font-family="Consolas" font-size="11">+</text>
<text x="142.5" y="-144.2" font-family="Consolas" font-size="11">Newton()</text>
<text x="131.5" y="-128.2" font-family="Consolas" font-size="11">+</text>
<text x="142.5" y="-128.2" font-family="Consolas" font-size="11">analyze()</text>
<text x="131.5" y="-112.2" font-family="Consolas" font-size="11">+</text>
<text x="142.5" y="-112.2" font-family="Consolas" font-size="11">print()</text>
<path fill="#666" stroke="#666" d="M127.5-171h80z"/>
<path fill="#666" stroke="#666" d="M127.5-155h80z"/>
<path fill="none" stroke="#666" d="M127.5-105v-84h80v84z"/>
</a></g><g id="edge1_Node000001_Node000002" class="edge"><title>Node2-&gt;Node1</title><a id="a_edge1_Node000001_Node000002">
<path fill="none" stroke="#63b8ff" d="M167.5-94.88v26.64"/>
<path fill="none" stroke="#63b8ff" d="m164-94.98 3.5-10 3.5 10z"/>
</a></g><g id="Node000003" class="node"><title>Node3</title><a xlink:href="../../d6/d8d/class_solver.html" xlink:title="A Solver class defines solvers used in analysis." id="a_Node000003" target="_top">
<path fill="#fff" stroke="transparent" d="M155-449H0v212h155z"/>
<text x="57.5" y="-436.2" font-family="Consolas" font-size="11">Solver</text>
<text x="74.5" y="-420.2" font-family="Consolas" font-size="11"> </text>
<text x="4.5" y="-404.2" font-family="Consolas" font-size="11">+</text>
<text x="15.5" y="-404.2" font-family="Consolas" font-size="11">Solver()</text>
<text x="4.5" y="-388.2" font-family="Consolas" font-size="11">+</text>
<text x="15.5" y="-388.2" font-family="Consolas" font-size="11">initialize()</text>
<text x="4.5" y="-372.2" font-family="Consolas" font-size="11">+</text>
<text x="15.5" y="-372.2" font-family="Consolas" font-size="11">analyze()</text>
<text x="4.5" y="-356.2" font-family="Consolas" font-size="11">+</text>
<text x="15.5" y="-356.2" font-family="Consolas" font-size="11">set_step_size()</text>
<text x="4.5" y="-340.2" font-family="Consolas" font-size="11">+</text>
<text x="15.5" y="-340.2" font-family="Consolas" font-size="11">set_step_amplifier()</text>
<text x="4.5" y="-324.2" font-family="Consolas" font-size="11">+</text>
<text x="15.5" y="-324.2" font-family="Consolas" font-size="11">get_step_amplifier()</text>
<text x="4.5" y="-308.2" font-family="Consolas" font-size="11">+</text>
<text x="15.5" y="-308.2" font-family="Consolas" font-size="11">set_converger()</text>
<text x="4.5" y="-292.2" font-family="Consolas" font-size="11">+</text>
<text x="15.5" y="-292.2" font-family="Consolas" font-size="11">get_converger()</text>
<text x="4.5" y="-276.2" font-family="Consolas" font-size="11">+</text>
<text x="15.5" y="-276.2" font-family="Consolas" font-size="11">set_integrator()</text>
<text x="4.5" y="-260.2" font-family="Consolas" font-size="11">+</text>
<text x="15.5" y="-260.2" font-family="Consolas" font-size="11">get_integrator()</text>
<text x="4.5" y="-244.2" font-family="Consolas" font-size="11">#</text>
<text x="15.5" y="-244.2" font-family="Consolas" font-size="11">constant_matrix()</text>
<path fill="#666" stroke="#666" d="M.5-431h155z"/>
<path fill="#666" stroke="#666" d="M.5-415h155z"/>
<path fill="none" stroke="#666" d="M0-237v-212h155v212z"/>
</a></g><g id="edge2_Node000002_Node000003" class="edge"><title>Node3-&gt;Node2</title><a id="a_edge2_Node000002_Node000003">
<path fill="none" stroke="#63b8ff" d="M130.53-227.69c6.37 13.73 12.52 26.98 17.91 38.6"/>
<path fill="none" stroke="#63b8ff" d="m127.35-226.22-1.03-10.55 7.38 7.6z"/>
</a></g><g id="Node000004" class="node"><title>Node4</title><a xlink:href="../../db/db8/class_unique_tag.html" xlink:title="Label objects that cannot be copied." id="a_Node000004" target="_top">
<path fill="#fff" stroke="transparent" d="M128-650H27v164h101z"/>
<text x="47.5" y="-637.2" font-family="Consolas" font-size="11">UniqueTag</text>
<text x="74.5" y="-621.2" font-family="Consolas" font-size="11"> </text>
<text x="31.5" y="-605.2" font-family="Consolas" font-size="11">+</text>
<text x="42.5" y="-605.2" font-family="Consolas" font-size="11">UniqueTag()</text>
<text x="31.5" y="-589.2" font-family="Consolas" font-size="11">+</text>
<text x="42.5" y="-589.2" font-family="Consolas" font-size="11">UniqueTag()</text>
<text x="31.5" y="-573.2" font-family="Consolas" font-size="11">+</text>
<text x="42.5" y="-573.2" font-family="Consolas" font-size="11">operator=()</text>
<text x="31.5" y="-557.2" font-family="Consolas" font-size="11">+</text>
<text x="42.5" y="-557.2" font-family="Consolas" font-size="11">operator=()</text>
<text x="31.5" y="-541.2" font-family="Consolas" font-size="11">+</text>
<text x="42.5" y="-541.2" font-family="Consolas" font-size="11">~UniqueTag()</text>
<text x="31.5" y="-525.2" font-family="Consolas" font-size="11">+</text>
<text x="42.5" y="-525.2" font-family="Consolas" font-size="11">Tag()</text>
<text x="31.5" y="-509.2" font-family="Consolas" font-size="11">+</text>
<text x="42.5" y="-509.2" font-family="Consolas" font-size="11">Tag()</text>
<text x="31.5" y="-493.2" font-family="Consolas" font-size="11">+</text>
<text x="42.5" y="-493.2" font-family="Consolas" font-size="11">Tag()</text>
<path fill="#666" stroke="#666" d="M27.5-632h101z"/>
<path fill="#666" stroke="#666" d="M27.5-616h101z"/>
<path fill="none" stroke="#666" d="M27-486v-164h101v164z"/>
</a></g><g id="edge3_Node000003_Node000004" class="edge"><title>Node4-&gt;Node3</title><a id="a_edge3_Node000003_Node000004">
<path fill="none" stroke="#63b8ff" d="M77.5-475.67v26.58"/>
<path fill="none" stroke="#63b8ff" d="m74-475.86 3.5-10 3.5 10z"/>
</a></g><g id="Node000005" class="node"><title>Node5</title><a xlink:href="../../d0/d57/class_tag.html" xlink:title="A base Tag class." id="a_Node000005" target="_top">
<path fill="#fff" stroke="transparent" d="M128-963H27v276h101z"/>
<text x="67.5" y="-950.2" font-family="Consolas" font-size="11">Tag</text>
<text x="74.5" y="-934.2" font-family="Consolas" font-size="11"> </text>
<text x="31.5" y="-918.2" font-family="Consolas" font-size="11">+</text>
<text x="42.5" y="-918.2" font-family="Consolas" font-size="11">Tag()</text>
<text x="31.5" y="-902.2" font-family="Consolas" font-size="11">+</text>
<text x="42.5" y="-902.2" font-family="Consolas" font-size="11">Tag()</text>
<text x="31.5" y="-886.2" font-family="Consolas" font-size="11">+</text>
<text x="42.5" y="-886.2" font-family="Consolas" font-size="11">Tag()</text>
<text x="31.5" y="-870.2" font-family="Consolas" font-size="11">+</text>
<text x="42.5" y="-870.2" font-family="Consolas" font-size="11">operator=()</text>
<text x="31.5" y="-854.2" font-family="Consolas" font-size="11">+</text>
<text x="42.5" y="-854.2" font-family="Consolas" font-size="11">operator=()</text>
<text x="31.5" y="-838.2" font-family="Consolas" font-size="11">+</text>
<text x="42.5" y="-838.2" font-family="Consolas" font-size="11">~Tag()</text>
<text x="31.5" y="-822.2" font-family="Consolas" font-size="11">+</text>
<text x="42.5" y="-822.2" font-family="Consolas" font-size="11">set_tag()</text>
<text x="31.5" y="-806.2" font-family="Consolas" font-size="11">+</text>
<text x="42.5" y="-806.2" font-family="Consolas" font-size="11">get_tag()</text>
<text x="31.5" y="-790.2" font-family="Consolas" font-size="11">+</text>
<text x="42.5" y="-790.2" font-family="Consolas" font-size="11">enable()</text>
<text x="31.5" y="-774.2" font-family="Consolas" font-size="11">+</text>
<text x="42.5" y="-774.2" font-family="Consolas" font-size="11">disable()</text>
<text x="31.5" y="-758.2" font-family="Consolas" font-size="11">+</text>
<text x="42.5" y="-758.2" font-family="Consolas" font-size="11">guard()</text>
<text x="31.5" y="-742.2" font-family="Consolas" font-size="11">+</text>
<text x="42.5" y="-742.2" font-family="Consolas" font-size="11">unguard()</text>
<text x="31.5" y="-726.2" font-family="Consolas" font-size="11">+</text>
<text x="42.5" y="-726.2" font-family="Consolas" font-size="11">is_active()</text>
<text x="31.5" y="-710.2" font-family="Consolas" font-size="11">+</text>
<text x="42.5" y="-710.2" font-family="Consolas" font-size="11">is_guarded()</text>
<text x="31.5" y="-694.2" font-family="Consolas" font-size="11">+</text>
<text x="42.5" y="-694.2" font-family="Consolas" font-size="11">print()</text>
<path fill="#666" stroke="#666" d="M27.5-945h101z"/>
<path fill="#666" stroke="#666" d="M27.5-929h101z"/>
<path fill="none" stroke="#666" d="M27-687v-276h101v276z"/>
</a></g><g id="edge4_Node000004_Node000005" class="edge"><title>Node5-&gt;Node4</title><a id="a_edge4_Node000004_Node000005">
<path fill="none" stroke="#63b8ff" d="M77.5-676.58v26.41"/>
<path fill="none" stroke="#63b8ff" d="m74-676.8 3.5-10 3.5 10z"/>
</a></g><g id="Node000006" class="node"><title>Node6</title><a xlink:href="../../df/de6/classdouble.html" id="a_Node000006" target="_top">
<path fill="#fff" stroke="transparent" d="M224-369h-51v52h51z"/>
<text x="178.5" y="-356.2" font-family="Consolas" font-size="11">double</text>
<text x="195.5" y="-340.2" font-family="Consolas" font-size="11"> </text>
<text x="195.5" y="-324.2" font-family="Consolas" font-size="11"> </text>
<path fill="#666" stroke="#666" d="M173.5-351h51z"/>
<path fill="#666" stroke="#666" d="M173.5-335h51z"/>
<path fill="none" stroke="#666" d="M173-317v-52h51v52z"/>
</a></g><g id="edge5_Node000002_Node000006" class="edge"><title>Node6-&gt;Node2</title><a id="a_edge5_Node000002_Node000006">
<path fill="none" stroke="#63b8ff" d="M194.45-316.64c-4.65 29.07-12.39 77.53-18.39 115.06"/>
<path fill="none" stroke="#63b8ff" d="m176-201.17-4.9 5.3 3 6.55 4.9-5.29z"/>
</a><text x="228.5" y="-210.2" fill="gray" font-family="Consolas" font-size="11" text-anchor="middle"> #inner_product</text></g></g></svg><g id="navigator" fill="#404254"><path fill="#f2f5e9" fill-opacity=".5" stroke="#606060" stroke-width=".5" d="M0 0h60v60H0z"/><use xlink:href="#zoomPlus" id="zoomplus" x="17" y="9" onmousedown="handleZoom(evt,'in')"/><use xlink:href="#zoomMin" id="zoomminus" x="42" y="9" onmousedown="handleZoom(evt,'out')"/><use xlink:href="#resetDef" id="reset" x="30" y="36" onmousedown="handleReset()"/><use xlink:href="#arrowUp" id="arrowup" x="0" y="0" onmousedown="handlePan(0,-1)"/><use xlink:href="#arrowRight" id="arrowright" x="0" y="0" onmousedown="handlePan(1,0)"/><use xlink:href="#arrowDown" id="arrowdown" x="0" y="0" onmousedown="handlePan(0,1)"/><use xlink:href="#arrowLeft" id="arrowleft" x="0" y="0" onmousedown="handlePan(-1,0)"/></g><svg height="30" preserveAspectRatio="xMaxYMin meet" viewBox="0 0 15 15"><a xlink:href="class_a_i_c_n__coll__graph_org.svg" id="arrow_out" target="_base" transform="scale(.3)">
   <rect id="button" width="38" height="38" x="6" y="6" fill="#f2f5e9" fill-opacity=".5" stroke="#606060" stroke-width="1" rx="5" ry="5"/>
   <path id="arrow" d="M11.5 31.437c.44-11.34 10.543-20.114 20.659-9.458l4.91-4.733.02 14.754-14.929-.022 4.838-4.838c-8.47-8.876-13.706-1.91-15.498 4.297" style="fill:#404040"/>
  </a></svg><script type="application/ecmascript"><![CDATA[
document.addEventListener('DOMContentLoaded', (event) => {
  highlightEdges();
  highlightAdjacentNodes();
});
]]></script></svg>