<svg xmlns="http://www.w3.org/2000/svg" xmlns:xlink="http://www.w3.org/1999/xlink" width="1295pt" height="1117pt" viewBox="0 0 1295.49 1117"><g class="graph" transform="translate(4 1113)"><title>MaterialExample</title><g class="node"><title>Node1</title><a xlink:title="A MaterialExample material class.">
<path fill="#999" stroke="transparent" d="M537.49-164h-161V0h161z"/>
<text x="406.49" y="-151.2" font-family="Consolas" font-size="11">MaterialExample</text>
<text x="453.99" y="-135.2" font-family="Consolas" font-size="11"> </text>
<text x="380.99" y="-119.2" font-family="Consolas" font-size="11">+</text>
<text x="391.99" y="-119.2" font-family="Consolas" font-size="11">MaterialExample()</text>
<text x="380.99" y="-103.2" font-family="Consolas" font-size="11">+</text>
<text x="391.99" y="-103.2" font-family="Consolas" font-size="11">initialize()</text>
<text x="380.99" y="-87.2" font-family="Consolas" font-size="11">+</text>
<text x="391.99" y="-87.2" font-family="Consolas" font-size="11">unique_copy()</text>
<text x="380.99" y="-71.2" font-family="Consolas" font-size="11">+</text>
<text x="391.99" y="-71.2" font-family="Consolas" font-size="11">update_trial_status()</text>
<text x="380.99" y="-55.2" font-family="Consolas" font-size="11">+</text>
<text x="391.99" y="-55.2" font-family="Consolas" font-size="11">clear_status()</text>
<text x="380.99" y="-39.2" font-family="Consolas" font-size="11">+</text>
<text x="391.99" y="-39.2" font-family="Consolas" font-size="11">commit_status()</text>
<text x="380.99" y="-23.2" font-family="Consolas" font-size="11">+</text>
<text x="391.99" y="-23.2" font-family="Consolas" font-size="11">reset_status()</text>
<text x="380.99" y="-7.2" font-family="Consolas" font-size="11">+</text>
<text x="391.99" y="-7.2" font-family="Consolas" font-size="11">print()</text>
<path fill="#666" stroke="#666" d="M376.99-146h161z"/>
<path fill="#666" stroke="#666" d="M376.99-130h161z"/>
<path fill="none" stroke="#666" d="M376.49 0v-164h161V0z"/>
</a></g><g class="node"><title>Node2</title><a xlink:href="../../d7/d7a/struct_material_example_data.html" xlink:title="It is recommended to store data, especially constant data, in a simple structure. The motivation is t..." target="_top">
<path fill="#fff" stroke="transparent" d="M514.49-483h-139v52h139z"/>
<text x="380.99" y="-470.2" font-family="Consolas" font-size="11">MaterialExampleData</text>
<text x="441.99" y="-454.2" font-family="Consolas" font-size="11"> </text>
<text x="441.99" y="-438.2" font-family="Consolas" font-size="11"> </text>
<path fill="#666" stroke="#666" d="M375.99-465h139z"/>
<path fill="#666" stroke="#666" d="M375.99-449h139z"/>
<path fill="none" stroke="#666" d="M375.49-431v-52h139v52z"/>
</a></g><g class="edge"><title>Node2-&gt;Node1</title><a>
<path fill="none" stroke="#8b1a1a" d="M446.12-420.77c1.88 58.34 5.68 176.49 8.25 256.4"/>
<path fill="none" stroke="#8b1a1a" d="m442.62-420.84 3.17-10.11 3.82 9.89z"/>
</a></g><g class="node"><title>Node3</title><a xlink:href="../../df/de6/classdouble.html" target="_top">
<path fill="#fff" stroke="transparent" d="M113.49-997h-51v52h51z"/>
<text x="67.99" y="-984.2" font-family="Consolas" font-size="11">double</text>
<text x="84.99" y="-968.2" font-family="Consolas" font-size="11"> </text>
<text x="84.99" y="-952.2" font-family="Consolas" font-size="11"> </text>
<path fill="#666" stroke="#666" d="M62.99-979h51z"/>
<path fill="#666" stroke="#666" d="M62.99-963h51z"/>
<path fill="none" stroke="#666" d="M62.49-945v-52h51v52z"/>
</a></g><g class="edge"><title>Node3-&gt;Node2</title><a>
<path fill="none" stroke="#63b8ff" d="M70.11-944.67C35.48-892.18-33-769.24 18.99-683c74.76 124.03 243.26 183.21 344.5 208.53"/>
<path fill="none" stroke="#63b8ff" d="m363.53-474.46 4.89 5.3 6.77-2.46-4.88-5.31z"/>
</a><text x="73.49" y="-770.2" fill="gray" font-family="Consolas" font-size="11" text-anchor="middle"> +beta</text><text x="73.49" y="-758.2" fill="gray" font-family="Consolas" font-size="11" text-anchor="middle">+elastic_modulus</text><text x="73.49" y="-746.2" fill="gray" font-family="Consolas" font-size="11" text-anchor="middle">+hardening_ratio</text><text x="73.49" y="-734.2" fill="gray" font-family="Consolas" font-size="11" text-anchor="middle">+plastic_modulus</text><text x="73.49" y="-722.2" fill="gray" font-family="Consolas" font-size="11" text-anchor="middle">+yield_stress</text></g><g class="node"><title>Node5</title><a xlink:href="../../de/de9/struct_data_material.html" target="_top">
<path fill="#fff" stroke="transparent" d="M552.99-641h-134v116h134z"/>
<text x="444.99" y="-628.2" font-family="Consolas" font-size="11">DataMaterial</text>
<text x="422.99" y="-612.2" font-family="Consolas" font-size="11">+</text>
<text x="433.99" y="-612.2" font-family="Consolas" font-size="11">trial_strain</text>
<text x="422.99" y="-596.2" font-family="Consolas" font-size="11">+</text>
<text x="433.99" y="-596.2" font-family="Consolas" font-size="11">trial_strain_rate</text>
<text x="422.99" y="-580.2" font-family="Consolas" font-size="11">+</text>
<text x="433.99" y="-580.2" font-family="Consolas" font-size="11">trial_strain_acc</text>
<text x="422.99" y="-564.2" font-family="Consolas" font-size="11">+</text>
<text x="433.99" y="-564.2" font-family="Consolas" font-size="11">trial_stress</text>
<text x="422.99" y="-548.2" font-family="Consolas" font-size="11">+</text>
<text x="433.99" y="-548.2" font-family="Consolas" font-size="11">trial_history</text>
<text x="482.49" y="-532.2" font-family="Consolas" font-size="11"> </text>
<path fill="#666" stroke="#666" d="M418.99-623h134z"/>
<path fill="#666" stroke="#666" d="M418.99-543h13z"/>
<path fill="#666" stroke="#666" d="M431.99-543h121z"/>
<path fill="none" stroke="#666" d="M418.99-525v-116h134v116z"/>
</a></g><g class="edge"><title>Node3-&gt;Node5</title><a>
<path fill="none" stroke="#63b8ff" d="M96.22-944.74c9.69 30.48 25.72 83.4 35.77 129.74 6.28 28.99.51 109.63 20 132 63.43 72.84 177.71 93.33 254.7 98.43"/>
<path fill="none" stroke="#63b8ff" d="m406.74-584.56 5.76 4.33 6.22-3.64-5.76-4.34z"/>
</a><text x="229.99" y="-758.2" fill="gray" font-family="Consolas" font-size="11" text-anchor="middle"> +characteristic_length</text><text x="229.99" y="-746.2" fill="gray" font-family="Consolas" font-size="11" text-anchor="middle">+density</text><text x="229.99" y="-734.2" fill="gray" font-family="Consolas" font-size="11" text-anchor="middle">+tolerance</text></g><g class="node"><title>Node4</title><a xlink:href="../../dc/dee/class_material.html" xlink:title="A Material abstract base class." target="_top">
<path fill="#fff" stroke="transparent" d="M696.49-413h-161v212h161z"/>
<text x="588.99" y="-400.2" font-family="Consolas" font-size="11">Material</text>
<text x="612.99" y="-384.2" font-family="Consolas" font-size="11"> </text>
<text x="539.99" y="-368.2" font-family="Consolas" font-size="11">+</text>
<text x="550.99" y="-368.2" font-family="Consolas" font-size="11">Material()</text>
<text x="539.99" y="-352.2" font-family="Consolas" font-size="11">+</text>
<text x="550.99" y="-352.2" font-family="Consolas" font-size="11">get_density()</text>
<text x="539.99" y="-336.2" font-family="Consolas" font-size="11">+</text>
<text x="550.99" y="-336.2" font-family="Consolas" font-size="11">get_material_type()</text>
<text x="539.99" y="-320.2" font-family="Consolas" font-size="11">+</text>
<text x="550.99" y="-320.2" font-family="Consolas" font-size="11">get_plane_type()</text>
<text x="539.99" y="-304.2" font-family="Consolas" font-size="11">+</text>
<text x="550.99" y="-304.2" font-family="Consolas" font-size="11">initialize_base()</text>
<text x="539.99" y="-288.2" font-family="Consolas" font-size="11">+</text>
<text x="550.99" y="-288.2" font-family="Consolas" font-size="11">initialize()</text>
<text x="539.99" y="-272.2" font-family="Consolas" font-size="11">+</text>
<text x="550.99" y="-272.2" font-family="Consolas" font-size="11">initialize_couple()</text>
<text x="539.99" y="-256.2" font-family="Consolas" font-size="11">+</text>
<text x="550.99" y="-256.2" font-family="Consolas" font-size="11">initialize_history()</text>
<text x="539.99" y="-240.2" font-family="Consolas" font-size="11">+</text>
<text x="550.99" y="-240.2" font-family="Consolas" font-size="11">set_initial_history()</text>
<text x="539.99" y="-224.2" font-family="Consolas" font-size="11">+</text>
<text x="550.99" y="-224.2" font-family="Consolas" font-size="11">set_initialized()</text>
<text x="550.99" y="-208.2" font-family="Consolas" font-size="11">and 67 more...</text>
<path fill="#666" stroke="#666" d="M535.99-395h161z"/>
<path fill="#666" stroke="#666" d="M535.99-379h161z"/>
<path fill="none" stroke="#666" d="M535.49-201v-212h161v212z"/>
</a></g><g class="edge"><title>Node4-&gt;Node1</title><a>
<path fill="none" stroke="#63b8ff" d="M534.95-192.34c-6.79 9.52-13.56 19.02-20.12 28.22"/>
<path fill="none" stroke="#63b8ff" d="m532.26-194.59 8.65-6.11-2.95 10.17z"/>
</a></g><g class="edge"><title>Node5-&gt;Node4</title><a>
<path fill="none" stroke="#006400" d="M517.5-515.58c14.58 30.73 32.25 67.98 48.58 102.39"/>
<path fill="none" stroke="#006400" d="m514.21-514.36-1.13-10.53 7.45 7.53z"/>
</a></g><g class="node"><title>Node6</title><a>
<path fill="#fff" stroke="transparent" d="M390.99-997h-132v52h132z"/>
<text x="263.99" y="-984.2" font-family="Consolas" font-size="11">const MaterialType</text>
<text x="321.49" y="-968.2" font-family="Consolas" font-size="11"> </text>
<text x="321.49" y="-952.2" font-family="Consolas" font-size="11"> </text>
<path fill="#666" stroke="#666" d="M258.99-979h132z"/>
<path fill="#666" stroke="#666" d="M258.99-963h132z"/>
<path fill="none" stroke="#666" d="M258.99-945v-52h132v52z"/>
</a></g><g class="edge"><title>Node6-&gt;Node5</title><a>
<path fill="none" stroke="#63b8ff" d="M320.11-944.95c-8.87 52.49-22.53 176.26 25.88 261.95 14.41 25.51 38.44 46.05 62.56 61.65"/>
<path fill="none" stroke="#63b8ff" d="m408.66-621.28 2.99 6.56 7.21-.24-2.99-6.56z"/>
</a><text x="396.99" y="-746.2" fill="gray" font-family="Consolas" font-size="11" text-anchor="middle"> +material_type</text></g><g class="node"><title>Node7</title><a>
<path fill="#fff" stroke="transparent" d="M520.99-997h-112v52h112z"/>
<text x="413.99" y="-984.2" font-family="Consolas" font-size="11">const PlaneType</text>
<text x="461.49" y="-968.2" font-family="Consolas" font-size="11"> </text>
<text x="461.49" y="-952.2" font-family="Consolas" font-size="11"> </text>
<path fill="#666" stroke="#666" d="M408.99-979h112z"/>
<path fill="#666" stroke="#666" d="M408.99-963h112z"/>
<path fill="none" stroke="#666" d="M408.99-945v-52h112v52z"/>
</a></g><g class="edge"><title>Node7-&gt;Node5</title><a>
<path fill="none" stroke="#63b8ff" d="M461.89-944.9c-5.62 50.07-15.77 165.82-2.9 261.9 1.32 9.9 3.36 20.21 5.74 30.28"/>
<path fill="none" stroke="#63b8ff" d="m464.74-652.69-2.42 6.79 5.33 4.85 2.43-6.8z"/>
</a><text x="499.99" y="-746.2" fill="gray" font-family="Consolas" font-size="11" text-anchor="middle"> +plane_type</text></g><g class="node"><title>Node8</title><a>
<path fill="#fff" stroke="transparent" d="M1001.49-997h-31v52h31z"/>
<text x="975.99" y="-984.2" font-family="Consolas" font-size="11">vec</text>
<text x="982.99" y="-968.2" font-family="Consolas" font-size="11"> </text>
<text x="982.99" y="-952.2" font-family="Consolas" font-size="11"> </text>
<path fill="#666" stroke="#666" d="M970.99-979h31z"/>
<path fill="#666" stroke="#666" d="M970.99-963h31z"/>
<path fill="none" stroke="#666" d="M970.49-945v-52h31v52z"/>
</a></g><g class="edge"><title>Node8-&gt;Node5</title><a>
<path fill="none" stroke="#63b8ff" d="M970.49-946.67c-18.79 29.41-49.97 82.15-66.5 131.67-18.81 56.35 22.77 91.84-21 132-20.52 18.83-223.3 10.1-250 18-23.55 6.97-47.52 18.12-69.08 29.96"/>
<path fill="none" stroke="#63b8ff" d="m563.65-634.9-7.19-.53-3.27 6.43 7.2.53z"/>
</a><text x="971.99" y="-806.2" fill="gray" font-family="Consolas" font-size="11" text-anchor="middle"> +current_history</text><text x="971.99" y="-794.2" fill="gray" font-family="Consolas" font-size="11" text-anchor="middle">+current_strain</text><text x="971.99" y="-782.2" fill="gray" font-family="Consolas" font-size="11" text-anchor="middle">+current_strain_acc</text><text x="971.99" y="-770.2" fill="gray" font-family="Consolas" font-size="11" text-anchor="middle">+current_strain_rate</text><text x="971.99" y="-758.2" fill="gray" font-family="Consolas" font-size="11" text-anchor="middle">+current_stress</text><text x="971.99" y="-746.2" fill="gray" font-family="Consolas" font-size="11" text-anchor="middle">+incre_strain</text><text x="971.99" y="-734.2" fill="gray" font-family="Consolas" font-size="11" text-anchor="middle">+incre_strain_acc</text><text x="971.99" y="-722.2" fill="gray" font-family="Consolas" font-size="11" text-anchor="middle">+incre_strain_rate</text><text x="971.99" y="-710.2" fill="gray" font-family="Consolas" font-size="11" text-anchor="middle">+incre_stress</text><text x="971.99" y="-698.2" fill="gray" font-family="Consolas" font-size="11" text-anchor="middle">+initial_history</text><text x="971.99" y="-686.2" fill="gray" font-family="Consolas" font-size="11" text-anchor="middle">...</text></g><g class="node"><title>Node10</title><a xlink:href="../../da/de4/struct_data_couple_material.html" target="_top">
<path fill="#fff" stroke="transparent" d="M773.99-609h-132v52h132z"/>
<text x="646.99" y="-596.2" font-family="Consolas" font-size="11">DataCoupleMaterial</text>
<text x="704.49" y="-580.2" font-family="Consolas" font-size="11"> </text>
<text x="704.49" y="-564.2" font-family="Consolas" font-size="11"> </text>
<path fill="#666" stroke="#666" d="M641.99-591h132z"/>
<path fill="#666" stroke="#666" d="M641.99-575h132z"/>
<path fill="none" stroke="#666" d="M641.99-557v-52h132v52z"/>
</a></g><g class="edge"><title>Node8-&gt;Node10</title><a>
<path fill="none" stroke="#63b8ff" d="M998.66-944.75c14.31 30.03 36.71 82.11 45.33 129.75 10.44 57.73 35.7 85.44 0 132-18.76 24.47-37.35 9.55-67 18-64.68 18.42-137.72 40.5-191.35 56.95"/>
<path fill="none" stroke="#63b8ff" d="m785.62-608.05-6.91-2.06-4.56 5.58 6.91 2.06z"/>
</a><text x="1139.99" y="-776.2" fill="gray" font-family="Consolas" font-size="11" text-anchor="middle"> +current_couple_stress</text><text x="1139.99" y="-764.2" fill="gray" font-family="Consolas" font-size="11" text-anchor="middle">+current_curvature</text><text x="1139.99" y="-752.2" fill="gray" font-family="Consolas" font-size="11" text-anchor="middle">+incre_couple_stress</text><text x="1139.99" y="-740.2" fill="gray" font-family="Consolas" font-size="11" text-anchor="middle">+incre_curvature</text><text x="1139.99" y="-728.2" fill="gray" font-family="Consolas" font-size="11" text-anchor="middle">+trial_couple_stress</text><text x="1139.99" y="-716.2" fill="gray" font-family="Consolas" font-size="11" text-anchor="middle">+trial_curvature</text></g><g class="node"><title>Node9</title><a>
<path fill="#fff" stroke="transparent" d="M650.49-997h-31v52h31z"/>
<text x="624.99" y="-984.2" font-family="Consolas" font-size="11">mat</text>
<text x="631.99" y="-968.2" font-family="Consolas" font-size="11"> </text>
<text x="631.99" y="-952.2" font-family="Consolas" font-size="11"> </text>
<path fill="#666" stroke="#666" d="M619.99-979h31z"/>
<path fill="#666" stroke="#666" d="M619.99-963h31z"/>
<path fill="none" stroke="#666" d="M619.49-945v-52h31v52z"/>
</a></g><g class="edge"><title>Node9-&gt;Node5</title><a>
<path fill="none" stroke="#63b8ff" d="M619.85-944.94c-17.3 29.86-45.13 81.77-59.86 129.94-17.34 56.68-.08 75.83-19 132-3.51 10.4-8.1 20.97-13.13 31.14"/>
<path fill="none" stroke="#63b8ff" d="m527.76-651.66-6.31 3.49.8 7.17 6.3-3.5z"/>
</a><text x="620.99" y="-794.2" fill="gray" font-family="Consolas" font-size="11" text-anchor="middle"> +current_damping</text><text x="620.99" y="-782.2" fill="gray" font-family="Consolas" font-size="11" text-anchor="middle">+current_inertial</text><text x="620.99" y="-770.2" fill="gray" font-family="Consolas" font-size="11" text-anchor="middle">+current_stiffness</text><text x="620.99" y="-758.2" fill="gray" font-family="Consolas" font-size="11" text-anchor="middle">+initial_damping</text><text x="620.99" y="-746.2" fill="gray" font-family="Consolas" font-size="11" text-anchor="middle">+initial_inertial</text><text x="620.99" y="-734.2" fill="gray" font-family="Consolas" font-size="11" text-anchor="middle">+initial_stiffness</text><text x="620.99" y="-722.2" fill="gray" font-family="Consolas" font-size="11" text-anchor="middle">+trial_damping</text><text x="620.99" y="-710.2" fill="gray" font-family="Consolas" font-size="11" text-anchor="middle">+trial_inertial</text><text x="620.99" y="-698.2" fill="gray" font-family="Consolas" font-size="11" text-anchor="middle">+trial_stiffness</text></g><g class="edge"><title>Node9-&gt;Node10</title><a>
<path fill="none" stroke="#63b8ff" d="M645.15-944.97c11.83 30.26 31 82.97 40.84 129.97 14.11 67.4 19.19 147.78 21 193.76"/>
<path fill="none" stroke="#63b8ff" d="m706.99-621.22-3.78 6.14 4.21 5.85 3.78-6.14z"/>
</a><text x="790.99" y="-758.2" fill="gray" font-family="Consolas" font-size="11" text-anchor="middle"> +current_couple_stiffness</text><text x="790.99" y="-746.2" fill="gray" font-family="Consolas" font-size="11" text-anchor="middle">+initial_couple_stiffness</text><text x="790.99" y="-734.2" fill="gray" font-family="Consolas" font-size="11" text-anchor="middle">+trial_couple_stiffness</text></g><g class="edge"><title>Node10-&gt;Node4</title><a>
<path fill="none" stroke="#006400" d="M696.2-546.89c-11.32 33.71-28.99 86.35-44.87 133.64"/>
<path fill="none" stroke="#006400" d="m693-548.35 6.5-8.36.13 10.59z"/>
</a></g><g class="node"><title>Node11</title><a xlink:href="../../d7/d1d/class_copyable_tag.html" xlink:title="Label objects that can be copied." target="_top">
<path fill="#fff" stroke="transparent" d="M1099.99-665h-114v164h114z"/>
<text x="1005.49" y="-652.2" font-family="Consolas" font-size="11">CopyableTag</text>
<text x="1039.49" y="-636.2" font-family="Consolas" font-size="11"> </text>
<text x="989.99" y="-620.2" font-family="Consolas" font-size="11">+</text>
<text x="1000.99" y="-620.2" font-family="Consolas" font-size="11">CopyableTag()</text>
<text x="989.99" y="-604.2" font-family="Consolas" font-size="11">+</text>
<text x="1000.99" y="-604.2" font-family="Consolas" font-size="11">CopyableTag()</text>
<text x="989.99" y="-588.2" font-family="Consolas" font-size="11">+</text>
<text x="1000.99" y="-588.2" font-family="Consolas" font-size="11">operator=()</text>
<text x="989.99" y="-572.2" font-family="Consolas" font-size="11">+</text>
<text x="1000.99" y="-572.2" font-family="Consolas" font-size="11">operator=()</text>
<text x="989.99" y="-556.2" font-family="Consolas" font-size="11">+</text>
<text x="1000.99" y="-556.2" font-family="Consolas" font-size="11">~CopyableTag()</text>
<text x="989.99" y="-540.2" font-family="Consolas" font-size="11">+</text>
<text x="1000.99" y="-540.2" font-family="Consolas" font-size="11">Tag()</text>
<text x="989.99" y="-524.2" font-family="Consolas" font-size="11">+</text>
<text x="1000.99" y="-524.2" font-family="Consolas" font-size="11">Tag()</text>
<text x="989.99" y="-508.2" font-family="Consolas" font-size="11">+</text>
<text x="1000.99" y="-508.2" font-family="Consolas" font-size="11">Tag()</text>
<path fill="#666" stroke="#666" d="M985.99-647h114z"/>
<path fill="#666" stroke="#666" d="M985.99-631h114z"/>
<path fill="none" stroke="#666" d="M985.99-501v-164h114v164z"/>
</a></g><g class="edge"><title>Node11-&gt;Node4</title><a>
<path fill="none" stroke="#63b8ff" d="M977.34-539.88c-75.41 48.4-199.2 127.83-280.49 179.99"/>
<path fill="none" stroke="#63b8ff" d="m975.54-542.88 10.3-2.45-6.52 8.34z"/>
</a></g><g class="node"><title>Node12</title><a xlink:href="../../d0/d57/class_tag.html" xlink:title="A base Tag class." target="_top">
<path fill="#fff" stroke="transparent" d="M1287.49-1109h-101v276h101z"/>
<text x="1226.99" y="-1096.2" font-family="Consolas" font-size="11">Tag</text>
<text x="1233.99" y="-1080.2" font-family="Consolas" font-size="11"> </text>
<text x="1190.99" y="-1064.2" font-family="Consolas" font-size="11">+</text>
<text x="1201.99" y="-1064.2" font-family="Consolas" font-size="11">Tag()</text>
<text x="1190.99" y="-1048.2" font-family="Consolas" font-size="11">+</text>
<text x="1201.99" y="-1048.2" font-family="Consolas" font-size="11">Tag()</text>
<text x="1190.99" y="-1032.2" font-family="Consolas" font-size="11">+</text>
<text x="1201.99" y="-1032.2" font-family="Consolas" font-size="11">Tag()</text>
<text x="1190.99" y="-1016.2" font-family="Consolas" font-size="11">+</text>
<text x="1201.99" y="-1016.2" font-family="Consolas" font-size="11">operator=()</text>
<text x="1190.99" y="-1000.2" font-family="Consolas" font-size="11">+</text>
<text x="1201.99" y="-1000.2" font-family="Consolas" font-size="11">operator=()</text>
<text x="1190.99" y="-984.2" font-family="Consolas" font-size="11">+</text>
<text x="1201.99" y="-984.2" font-family="Consolas" font-size="11">~Tag()</text>
<text x="1190.99" y="-968.2" font-family="Consolas" font-size="11">+</text>
<text x="1201.99" y="-968.2" font-family="Consolas" font-size="11">set_tag()</text>
<text x="1190.99" y="-952.2" font-family="Consolas" font-size="11">+</text>
<text x="1201.99" y="-952.2" font-family="Consolas" font-size="11">get_tag()</text>
<text x="1190.99" y="-936.2" font-family="Consolas" font-size="11">+</text>
<text x="1201.99" y="-936.2" font-family="Consolas" font-size="11">enable()</text>
<text x="1190.99" y="-920.2" font-family="Consolas" font-size="11">+</text>
<text x="1201.99" y="-920.2" font-family="Consolas" font-size="11">disable()</text>
<text x="1190.99" y="-904.2" font-family="Consolas" font-size="11">+</text>
<text x="1201.99" y="-904.2" font-family="Consolas" font-size="11">guard()</text>
<text x="1190.99" y="-888.2" font-family="Consolas" font-size="11">+</text>
<text x="1201.99" y="-888.2" font-family="Consolas" font-size="11">unguard()</text>
<text x="1190.99" y="-872.2" font-family="Consolas" font-size="11">+</text>
<text x="1201.99" y="-872.2" font-family="Consolas" font-size="11">is_active()</text>
<text x="1190.99" y="-856.2" font-family="Consolas" font-size="11">+</text>
<text x="1201.99" y="-856.2" font-family="Consolas" font-size="11">is_guarded()</text>
<text x="1190.99" y="-840.2" font-family="Consolas" font-size="11">+</text>
<text x="1201.99" y="-840.2" font-family="Consolas" font-size="11">print()</text>
<path fill="#666" stroke="#666" d="M1186.99-1091h101z"/>
<path fill="#666" stroke="#666" d="M1186.99-1075h101z"/>
<path fill="none" stroke="#666" d="M1186.49-833v-276h101v276z"/>
</a></g><g class="edge"><title>Node12-&gt;Node11</title><a>
<path fill="none" stroke="#63b8ff" d="M1257.16-822.68c-.34 47.64-8.57 98.7-34.17 139.68-27.31 43.71-81.14 69.62-122.85 83.89"/>
<path fill="none" stroke="#63b8ff" d="m1253.66-822.77 3.46-10.02 3.54 9.99z"/>
</a></g></g></svg>