<?xml version="1.0" encoding="UTF-8" standalone="no"?>
<!DOCTYPE svg PUBLIC "-//W3C//DTD SVG 1.1//EN"
 "http://www.w3.org/Graphics/SVG/1.1/DTD/svg11.dtd">
<!-- Generated by graphviz version 2.43.0 (0)
 -->
<!-- Title: Substepping::update_trial_status Pages: 1 -->
<svg width="361pt" height="227pt"
 viewBox="0.00 0.00 361.00 227.00" xmlns="http://www.w3.org/2000/svg" xmlns:xlink="http://www.w3.org/1999/xlink">
<g id="graph0" class="graph" transform="scale(1 1) rotate(0) translate(4 223)">
<title>Substepping::update_trial_status</title>
<polygon fill="white" stroke="transparent" points="-4,4 -4,-223 357,-223 357,4 -4,4"/>
<!-- Node1 -->
<g id="node1" class="node">
<title>Node1</title>
<g id="a_node1"><a xlink:title=" ">
<polygon fill="#bfbfbf" stroke="black" points="0,-108.5 0,-140.5 145,-140.5 145,-108.5 0,-108.5"/>
<text text-anchor="start" x="8" y="-127.7" font-family="Consolas" font-size="11.00">Substepping::update</text>
<text text-anchor="middle" x="72.5" y="-115.7" font-family="Consolas" font-size="11.00">_trial_status</text>
</a>
</g>
</g>
<!-- Node2 -->
<g id="node2" class="node">
<title>Node2</title>
<g id="a_node2"><a xlink:href="../../dc/dee/class_material.html#a1d5d1d660c5e661042d41e8d9881c511" target="_top" xlink:title=" ">
<polygon fill="white" stroke="black" points="181,-198.5 181,-218.5 353,-218.5 353,-198.5 181,-198.5"/>
<text text-anchor="middle" x="267" y="-205.7" font-family="Consolas" font-size="11.00">Material::commit_status</text>
</a>
</g>
</g>
<!-- Node1&#45;&gt;Node2 -->
<g id="edge1" class="edge">
<title>Node1&#45;&gt;Node2</title>
<path fill="none" stroke="midnightblue" d="M95.44,-140.7C116.42,-155.46 149.43,-176.82 181,-189.5 186.8,-191.83 192.95,-193.9 199.17,-195.74"/>
<polygon fill="midnightblue" stroke="midnightblue" points="198.41,-199.16 208.98,-198.44 200.27,-192.41 198.41,-199.16"/>
</g>
<!-- Node3 -->
<g id="node3" class="node">
<title>Node3</title>
<g id="a_node3"><a xlink:href="../../dc/dee/class_material.html#a9c7d7fb500f0e640a1b213c1fcc164a0" target="_top" xlink:title=" ">
<polygon fill="white" stroke="black" points="198,-159.5 198,-179.5 336,-179.5 336,-159.5 198,-159.5"/>
<text text-anchor="middle" x="267" y="-166.7" font-family="Consolas" font-size="11.00">Material::get_copy</text>
</a>
</g>
</g>
<!-- Node1&#45;&gt;Node3 -->
<g id="edge2" class="edge">
<title>Node1&#45;&gt;Node3</title>
<path fill="none" stroke="midnightblue" d="M139.12,-140.56C152.94,-143.89 167.44,-147.35 181,-150.5 190.61,-152.74 200.84,-155.07 210.76,-157.3"/>
<polygon fill="midnightblue" stroke="midnightblue" points="210.01,-160.72 220.53,-159.49 211.54,-153.89 210.01,-160.72"/>
</g>
<!-- Node4 -->
<g id="node4" class="node">
<title>Node4</title>
<g id="a_node4"><a xlink:href="../../dc/dee/class_material.html#a7c1e85e3a3fcb92b167e60d3be063c79" target="_top" xlink:title=" ">
<polygon fill="white" stroke="black" points="188,-108.5 188,-140.5 346,-140.5 346,-108.5 188,-108.5"/>
<text text-anchor="start" x="196" y="-127.7" font-family="Consolas" font-size="11.00">Material::get_current</text>
<text text-anchor="middle" x="267" y="-115.7" font-family="Consolas" font-size="11.00">_strain</text>
</a>
</g>
</g>
<!-- Node1&#45;&gt;Node4 -->
<g id="edge3" class="edge">
<title>Node1&#45;&gt;Node4</title>
<path fill="none" stroke="midnightblue" d="M145.18,-124.5C155.71,-124.5 166.66,-124.5 177.48,-124.5"/>
<polygon fill="midnightblue" stroke="midnightblue" points="177.8,-128 187.8,-124.5 177.8,-121 177.8,-128"/>
</g>
<!-- Node5 -->
<g id="node5" class="node">
<title>Node5</title>
<g id="a_node5"><a xlink:href="../../d2/dfc/namespacetensor_1_1strain.html#a86200e5f690b2fe54ca08f6a2a721ab0" target="_top" xlink:title=" ">
<polygon fill="white" stroke="black" points="191,-69.5 191,-89.5 343,-89.5 343,-69.5 191,-69.5"/>
<text text-anchor="middle" x="267" y="-76.7" font-family="Consolas" font-size="11.00">tensor::strain::norm</text>
</a>
</g>
</g>
<!-- Node1&#45;&gt;Node5 -->
<g id="edge4" class="edge">
<title>Node1&#45;&gt;Node5</title>
<path fill="none" stroke="midnightblue" d="M142.18,-108.44C165.59,-102.97 191.37,-96.94 213.33,-91.81"/>
<polygon fill="midnightblue" stroke="midnightblue" points="214.18,-95.21 223.12,-89.52 212.59,-88.39 214.18,-95.21"/>
</g>
<!-- Node6 -->
<g id="node6" class="node">
<title>Node6</title>
<g id="a_node6"><a xlink:href="../../dc/dee/class_material.html#ac1b73234a79bacd0d27933cd43d2b407" target="_top" xlink:title=" ">
<polygon fill="white" stroke="black" points="184.5,-0.5 184.5,-32.5 349.5,-32.5 349.5,-0.5 184.5,-0.5"/>
<text text-anchor="start" x="192.5" y="-19.7" font-family="Consolas" font-size="11.00">Material::update_trial</text>
<text text-anchor="middle" x="267" y="-7.7" font-family="Consolas" font-size="11.00">_status</text>
</a>
</g>
</g>
<!-- Node1&#45;&gt;Node6 -->
<g id="edge5" class="edge">
<title>Node1&#45;&gt;Node6</title>
<path fill="none" stroke="midnightblue" d="M99.75,-108.28C121.36,-95.07 152.9,-76.12 181,-60.5 195.18,-52.62 210.9,-44.35 224.93,-37.14"/>
<polygon fill="midnightblue" stroke="midnightblue" points="226.57,-40.23 233.87,-32.56 223.38,-34 226.57,-40.23"/>
</g>
<!-- Node6&#45;&gt;Node6 -->
<g id="edge6" class="edge">
<title>Node6&#45;&gt;Node6</title>
<path fill="none" stroke="midnightblue" d="M232.62,-32.83C225.61,-42.24 237.07,-51 267,-51 285.24,-51 296.62,-47.75 301.14,-43.08"/>
<polygon fill="midnightblue" stroke="midnightblue" points="304.65,-42.91 301.38,-32.83 297.65,-42.74 304.65,-42.91"/>
</g>
</g>
</svg>
