<?xml version="1.0" encoding="UTF-8" standalone="no"?>
<!DOCTYPE svg PUBLIC "-//W3C//DTD SVG 1.1//EN"
 "http://www.w3.org/Graphics/SVG/1.1/DTD/svg11.dtd">
<!-- Generated by graphviz version 2.43.0 (0)
 -->
<!-- Title: Substepping::initialize Pages: 1 -->
<svg width="415pt" height="107pt"
 viewBox="0.00 0.00 415.00 107.00" xmlns="http://www.w3.org/2000/svg" xmlns:xlink="http://www.w3.org/1999/xlink">
<g id="graph0" class="graph" transform="scale(1 1) rotate(0) translate(4 103)">
<title>Substepping::initialize</title>
<polygon fill="white" stroke="transparent" points="-4,4 -4,-103 411,-103 411,4 -4,4"/>
<!-- Node1 -->
<g id="node1" class="node">
<title>Node1</title>
<g id="a_node1"><a xlink:title=" ">
<polygon fill="#bfbfbf" stroke="black" points="0,-39.5 0,-59.5 172,-59.5 172,-39.5 0,-39.5"/>
<text text-anchor="middle" x="86" y="-46.7" font-family="Consolas" font-size="11.00">Substepping::initialize</text>
</a>
</g>
</g>
<!-- Node2 -->
<g id="node2" class="node">
<title>Node2</title>
<g id="a_node2"><a xlink:href="../../dc/dee/class_material.html#a9c7d7fb500f0e640a1b213c1fcc164a0" target="_top" xlink:title=" ">
<polygon fill="white" stroke="black" points="238.5,-78.5 238.5,-98.5 376.5,-98.5 376.5,-78.5 238.5,-78.5"/>
<text text-anchor="middle" x="307.5" y="-85.7" font-family="Consolas" font-size="11.00">Material::get_copy</text>
</a>
</g>
</g>
<!-- Node1&#45;&gt;Node2 -->
<g id="edge1" class="edge">
<title>Node1&#45;&gt;Node2</title>
<path fill="none" stroke="midnightblue" d="M143.53,-59.54C172.97,-64.77 209.16,-71.2 239.95,-76.68"/>
<polygon fill="midnightblue" stroke="midnightblue" points="239.71,-80.19 250.16,-78.49 240.93,-73.3 239.71,-80.19"/>
</g>
<!-- Node3 -->
<g id="node3" class="node">
<title>Node3</title>
<g id="a_node3"><a xlink:href="../../dc/dee/class_material.html#aede2f9427250c8560ac6547b16d6110a" target="_top" xlink:title=" ">
<polygon fill="white" stroke="black" points="228.5,-39.5 228.5,-59.5 386.5,-59.5 386.5,-39.5 228.5,-39.5"/>
<text text-anchor="middle" x="307.5" y="-46.7" font-family="Consolas" font-size="11.00">Material::get_density</text>
</a>
</g>
</g>
<!-- Node1&#45;&gt;Node3 -->
<g id="edge2" class="edge">
<title>Node1&#45;&gt;Node3</title>
<path fill="none" stroke="midnightblue" d="M172.18,-49.5C187.16,-49.5 202.78,-49.5 217.86,-49.5"/>
<polygon fill="midnightblue" stroke="midnightblue" points="218.19,-53 228.19,-49.5 218.19,-46 218.19,-53"/>
</g>
<!-- Node4 -->
<g id="node4" class="node">
<title>Node4</title>
<g id="a_node4"><a xlink:href="../../dc/dee/class_material.html#ab63edaec70fa7a7de3c1e8445fd3e908" target="_top" xlink:title=" ">
<polygon fill="white" stroke="black" points="208,-0.5 208,-20.5 407,-20.5 407,-0.5 208,-0.5"/>
<text text-anchor="middle" x="307.5" y="-7.7" font-family="Consolas" font-size="11.00">Material::get_material_type</text>
</a>
</g>
</g>
<!-- Node1&#45;&gt;Node4 -->
<g id="edge3" class="edge">
<title>Node1&#45;&gt;Node4</title>
<path fill="none" stroke="midnightblue" d="M143.53,-39.46C172.97,-34.23 209.16,-27.8 239.95,-22.32"/>
<polygon fill="midnightblue" stroke="midnightblue" points="240.93,-25.7 250.16,-20.51 239.71,-18.81 240.93,-25.7"/>
</g>
</g>
</svg>
