<?xml version="1.0" encoding="UTF-8" standalone="no"?>
<!DOCTYPE svg PUBLIC "-//W3C//DTD SVG 1.1//EN"
 "http://www.w3.org/Graphics/SVG/1.1/DTD/svg11.dtd">
<!-- Generated by graphviz version 2.43.0 (0)
 -->
<!-- Title: triplet_form::operator() Pages: 1 -->
<svg width="354pt" height="68pt"
 viewBox="0.00 0.00 354.00 68.00" xmlns="http://www.w3.org/2000/svg" xmlns:xlink="http://www.w3.org/1999/xlink">
<g id="graph0" class="graph" transform="scale(1 1) rotate(0) translate(4 64)">
<title>triplet_form::operator()</title>
<polygon fill="white" stroke="transparent" points="-4,4 -4,-64 350,-64 350,4 -4,4"/>
<!-- Node1 -->
<g id="node1" class="node">
<title>Node1</title>
<g id="a_node1"><a xlink:title=" ">
<polygon fill="#bfbfbf" stroke="black" points="0,-19.5 0,-39.5 179,-39.5 179,-19.5 0,-19.5"/>
<text text-anchor="middle" x="89.5" y="-26.7" font-family="Consolas" font-size="11.00">triplet_form::operator()</text>
</a>
</g>
</g>
<!-- Node2 -->
<g id="node2" class="node">
<title>Node2</title>
<g id="a_node2"><a xlink:href="../../db/d78/classtriplet__form.html#ad4015e5cd8f4294e221ca9e244eb4439" target="_top" xlink:title=" ">
<polygon fill="white" stroke="black" points="215,-39.5 215,-59.5 346,-59.5 346,-39.5 215,-39.5"/>
<text text-anchor="middle" x="280.5" y="-46.7" font-family="Consolas" font-size="11.00">triplet_form::col</text>
</a>
</g>
</g>
<!-- Node1&#45;&gt;Node2 -->
<g id="edge1" class="edge">
<title>Node1&#45;&gt;Node2</title>
<path fill="none" stroke="midnightblue" d="M179.19,-38.89C187.71,-39.79 196.3,-40.7 204.67,-41.58"/>
<polygon fill="midnightblue" stroke="midnightblue" points="204.44,-45.08 214.75,-42.65 205.18,-38.12 204.44,-45.08"/>
</g>
<!-- Node3 -->
<g id="node3" class="node">
<title>Node3</title>
<g id="a_node3"><a xlink:href="../../db/d78/classtriplet__form.html#ae0b906030f85a037cc259b16d30a6297" target="_top" xlink:title=" ">
<polygon fill="white" stroke="black" points="215,-0.5 215,-20.5 346,-20.5 346,-0.5 215,-0.5"/>
<text text-anchor="middle" x="280.5" y="-7.7" font-family="Consolas" font-size="11.00">triplet_form::row</text>
</a>
</g>
</g>
<!-- Node1&#45;&gt;Node3 -->
<g id="edge2" class="edge">
<title>Node1&#45;&gt;Node3</title>
<path fill="none" stroke="midnightblue" d="M179.19,-20.58C187.71,-19.73 196.3,-18.86 204.67,-18.02"/>
<polygon fill="midnightblue" stroke="midnightblue" points="205.16,-21.49 214.75,-17.01 204.45,-14.53 205.16,-21.49"/>
</g>
</g>
</svg>
