<?xml version="1.0" encoding="UTF-8" standalone="no"?>
<!DOCTYPE svg PUBLIC "-//W3C//DTD SVG 1.1//EN"
 "http://www.w3.org/Graphics/SVG/1.1/DTD/svg11.dtd">
<!-- Generated by graphviz version 5.0.0 (0)
 -->
<!-- Title: suanpan::pattern Pages: 1 -->
<svg width="287pt" height="46pt"
 viewBox="0.00 0.00 287.00 46.00" xmlns="http://www.w3.org/2000/svg" xmlns:xlink="http://www.w3.org/1999/xlink">
<g id="graph0" class="graph" transform="scale(1 1) rotate(0) translate(4 42)">
<title>suanpan::pattern</title>
<!-- Node1 -->
<g id="node1" class="node">
<title>Node1</title>
<g id="a_node1"><a xlink:title=" ">
<polygon fill="#999999" stroke="#666666" points="125,-20 0,-20 0,0 125,0 125,-20"/>
<text text-anchor="middle" x="62.5" y="-7.2" font-family="Consolas" font-size="11.00">suanpan::pattern</text>
</a>
</g>
</g>
<!-- Node1&#45;&gt;Node1 -->
<g id="edge2" class="edge">
<title>Node1&#45;&gt;Node1</title>
<path fill="none" stroke="#63b8ff" d="M38.08,-20.05C26.94,-28.77 35.08,-38 62.5,-38 80.07,-38 89.72,-34.21 91.46,-29.2"/>
<polygon fill="#63b8ff" stroke="#63b8ff" points="94.5,-27.45 86.92,-20.05 88.23,-30.56 94.5,-27.45"/>
</g>
<!-- Node2 -->
<g id="node2" class="node">
<title>Node2</title>
<g id="a_node2"><a xlink:href="../../d6/d9c/namespacesuanpan.html#a7509b04c98e321594a56d969e4e717d7" target="_top" xlink:title=" ">
<polygon fill="white" stroke="#666666" points="279,-20 161,-20 161,0 279,0 279,-20"/>
<text text-anchor="middle" x="220" y="-7.2" font-family="Consolas" font-size="11.00">suanpan::format</text>
</a>
</g>
</g>
<!-- Node1&#45;&gt;Node2 -->
<g id="edge1" class="edge">
<title>Node1&#45;&gt;Node2</title>
<path fill="none" stroke="#63b8ff" d="M125.4,-10C133.71,-10 142.28,-10 150.69,-10"/>
<polygon fill="#63b8ff" stroke="#63b8ff" points="150.85,-13.5 160.85,-10 150.85,-6.5 150.85,-13.5"/>
</g>
</g>
</svg>
