<?xml version="1.0" encoding="UTF-8" standalone="no"?>
<!DOCTYPE svg PUBLIC "-//W3C//DTD SVG 1.1//EN"
 "http://www.w3.org/Graphics/SVG/1.1/DTD/svg11.dtd">
<!-- Generated by graphviz version 2.43.0 (0)
 -->
<!-- Title: T2D2::update_status Pages: 1 -->
<svg width="327pt" height="119pt"
 viewBox="0.00 0.00 327.00 119.00" xmlns="http://www.w3.org/2000/svg" xmlns:xlink="http://www.w3.org/1999/xlink">
<g id="graph0" class="graph" transform="scale(1 1) rotate(0) translate(4 115)">
<title>T2D2::update_status</title>
<polygon fill="white" stroke="transparent" points="-4,4 -4,-115 323,-115 323,4 -4,4"/>
<!-- Node1 -->
<g id="node1" class="node">
<title>Node1</title>
<g id="a_node1"><a xlink:title=" ">
<polygon fill="#bfbfbf" stroke="black" points="0,-45.5 0,-65.5 145,-65.5 145,-45.5 0,-45.5"/>
<text text-anchor="middle" x="72.5" y="-52.7" font-family="Consolas" font-size="11.00">T2D2::update_status</text>
</a>
</g>
</g>
<!-- Node2 -->
<g id="node2" class="node">
<title>Node2</title>
<g id="a_node2"><a xlink:href="../../d0/d57/class_tag.html#ac0f87379856fb9f3e6f11f4d9971d9f8" target="_top" xlink:title=" ">
<polygon fill="white" stroke="black" points="201,-90.5 201,-110.5 299,-110.5 299,-90.5 201,-90.5"/>
<text text-anchor="middle" x="250" y="-97.7" font-family="Consolas" font-size="11.00">Tag::get_tag</text>
</a>
</g>
</g>
<!-- Node1&#45;&gt;Node2 -->
<g id="edge1" class="edge">
<title>Node1&#45;&gt;Node2</title>
<path fill="none" stroke="midnightblue" d="M112.89,-65.6C138.63,-72.2 172.45,-80.87 199.93,-87.92"/>
<polygon fill="midnightblue" stroke="midnightblue" points="199.19,-91.34 209.75,-90.43 200.93,-84.56 199.19,-91.34"/>
</g>
<!-- Node3 -->
<g id="node3" class="node">
<title>Node3</title>
<g id="a_node3"><a xlink:href="../../d5/d50/class_element.html#aa391524fad4d0d9791637db2679ef7d0" target="_top" xlink:title=" ">
<polygon fill="white" stroke="black" points="181,-39.5 181,-71.5 319,-71.5 319,-39.5 181,-39.5"/>
<text text-anchor="start" x="189" y="-58.7" font-family="Consolas" font-size="11.00">Element::get_trial</text>
<text text-anchor="middle" x="250" y="-46.7" font-family="Consolas" font-size="11.00">_displacement</text>
</a>
</g>
</g>
<!-- Node1&#45;&gt;Node3 -->
<g id="edge2" class="edge">
<title>Node1&#45;&gt;Node3</title>
<path fill="none" stroke="midnightblue" d="M145.14,-55.5C153.65,-55.5 162.38,-55.5 170.98,-55.5"/>
<polygon fill="midnightblue" stroke="midnightblue" points="170.99,-59 180.99,-55.5 170.99,-52 170.99,-59"/>
</g>
<!-- Node4 -->
<g id="node4" class="node">
<title>Node4</title>
<g id="a_node4"><a xlink:href="../../d8/d8f/suan_pan_8h.html#aa87073491bf65bc79b4d8b6c2a613d06" target="_top" xlink:title=" ">
<polygon fill="white" stroke="black" points="194.5,-0.5 194.5,-20.5 305.5,-20.5 305.5,-0.5 194.5,-0.5"/>
<text text-anchor="middle" x="250" y="-7.7" font-family="Consolas" font-size="11.00">suanpan_assert</text>
</a>
</g>
</g>
<!-- Node1&#45;&gt;Node4 -->
<g id="edge3" class="edge">
<title>Node1&#45;&gt;Node4</title>
<path fill="none" stroke="midnightblue" d="M112.89,-45.4C138.63,-38.8 172.45,-30.13 199.93,-23.08"/>
<polygon fill="midnightblue" stroke="midnightblue" points="200.93,-26.44 209.75,-20.57 199.19,-19.66 200.93,-26.44"/>
</g>
</g>
</svg>
