<?xml version="1.0" encoding="UTF-8" standalone="no"?>
<!DOCTYPE svg PUBLIC "-//W3C//DTD SVG 1.1//EN"
 "http://www.w3.org/Graphics/SVG/1.1/DTD/svg11.dtd">
<!-- Generated by graphviz version 2.43.0 (0)
 -->
<!-- Title: Material::get_trial_damping Pages: 1 -->
<svg width="354pt" height="143pt"
 viewBox="0.00 0.00 354.00 143.00" xmlns="http://www.w3.org/2000/svg" xmlns:xlink="http://www.w3.org/1999/xlink">
<g id="graph0" class="graph" transform="scale(1 1) rotate(0) translate(4 139)">
<title>Material::get_trial_damping</title>
<polygon fill="white" stroke="transparent" points="-4,4 -4,-139 350,-139 350,4 -4,4"/>
<!-- Node1 -->
<g id="node1" class="node">
<title>Node1</title>
<g id="a_node1"><a xlink:title=" ">
<polygon fill="#bfbfbf" stroke="black" points="201,-51.5 201,-83.5 346,-83.5 346,-51.5 201,-51.5"/>
<text text-anchor="start" x="209" y="-70.7" font-family="Consolas" font-size="11.00">Material::get_trial</text>
<text text-anchor="middle" x="273.5" y="-58.7" font-family="Consolas" font-size="11.00">_damping</text>
</a>
</g>
</g>
<!-- Node2 -->
<g id="node2" class="node">
<title>Node2</title>
<g id="a_node2"><a xlink:href="../../d2/dda/class_substepping.html#a4d5e6860aeb961fcb684e098d5cf3122" target="_top" xlink:title=" ">
<polygon fill="white" stroke="black" points="0,-102.5 0,-134.5 165,-134.5 165,-102.5 0,-102.5"/>
<text text-anchor="start" x="8" y="-121.7" font-family="Consolas" font-size="11.00">Substepping::get_trial</text>
<text text-anchor="middle" x="82.5" y="-109.7" font-family="Consolas" font-size="11.00">_damping</text>
</a>
</g>
</g>
<!-- Node1&#45;&gt;Node2 -->
<g id="edge1" class="edge">
<title>Node1&#45;&gt;Node2</title>
<path fill="none" stroke="midnightblue" d="M203.12,-86.22C183.42,-91.54 162.14,-97.28 143.07,-102.43"/>
<polygon fill="midnightblue" stroke="midnightblue" points="204.22,-89.55 212.96,-83.57 202.39,-82.79 204.22,-89.55"/>
</g>
<!-- Node3 -->
<g id="node3" class="node">
<title>Node3</title>
<g id="a_node3"><a xlink:href="../../d9/d46/class_kelvin.html#a056e6c26bfc03f19a8bb084e6608b47a" target="_top" xlink:title=" ">
<polygon fill="white" stroke="black" points="6.5,-51.5 6.5,-83.5 158.5,-83.5 158.5,-51.5 6.5,-51.5"/>
<text text-anchor="start" x="14.5" y="-70.7" font-family="Consolas" font-size="11.00">Kelvin::update_trial</text>
<text text-anchor="middle" x="82.5" y="-58.7" font-family="Consolas" font-size="11.00">_status</text>
</a>
</g>
</g>
<!-- Node1&#45;&gt;Node3 -->
<g id="edge2" class="edge">
<title>Node1&#45;&gt;Node3</title>
<path fill="none" stroke="midnightblue" d="M190.66,-67.5C180.02,-67.5 169.16,-67.5 158.63,-67.5"/>
<polygon fill="midnightblue" stroke="midnightblue" points="190.78,-71 200.78,-67.5 190.78,-64 190.78,-71"/>
</g>
<!-- Node4 -->
<g id="node4" class="node">
<title>Node4</title>
<g id="a_node4"><a xlink:href="../../db/d83/class_maxwell.html#ab7056f092e9a8da26e27cf7f7a389d1d" target="_top" xlink:title=" ">
<polygon fill="white" stroke="black" points="3.5,-0.5 3.5,-32.5 161.5,-32.5 161.5,-0.5 3.5,-0.5"/>
<text text-anchor="start" x="11.5" y="-19.7" font-family="Consolas" font-size="11.00">Maxwell::update_trial</text>
<text text-anchor="middle" x="82.5" y="-7.7" font-family="Consolas" font-size="11.00">_status</text>
</a>
</g>
</g>
<!-- Node1&#45;&gt;Node4 -->
<g id="edge3" class="edge">
<title>Node1&#45;&gt;Node4</title>
<path fill="none" stroke="midnightblue" d="M203.12,-48.78C183.42,-43.46 162.14,-37.72 143.07,-32.57"/>
<polygon fill="midnightblue" stroke="midnightblue" points="202.39,-52.21 212.96,-51.43 204.22,-45.45 202.39,-52.21"/>
</g>
</g>
</svg>
