<?xml version="1.0" encoding="UTF-8" standalone="no"?>
<!DOCTYPE svg PUBLIC "-//W3C//DTD SVG 1.1//EN"
 "http://www.w3.org/Graphics/SVG/1.1/DTD/svg11.dtd">
<!-- Generated by graphviz version 2.43.0 (0)
 -->
<!-- Title: MPC Pages: 1 -->
<svg width="1176pt" height="1182pt"
 viewBox="0.00 0.00 1176.00 1182.00" xmlns="http://www.w3.org/2000/svg" xmlns:xlink="http://www.w3.org/1999/xlink">
<g id="graph0" class="graph" transform="scale(1 1) rotate(0) translate(4 1178)">
<title>MPC</title>
<!-- Node1 -->
<g id="Node000001" class="node">
<title>Node1</title>
<g id="a_Node000001"><a xlink:title="A MPC class.">
<polygon fill="#999999" stroke="transparent" points="759.5,-84 658.5,-84 658.5,0 759.5,0 759.5,-84"/>
<text text-anchor="start" x="699" y="-71.2" font-family="Consolas" font-size="11.00">MPC</text>
<text text-anchor="start" x="706" y="-55.2" font-family="Consolas" font-size="11.00"> </text>
<text text-anchor="start" x="663" y="-39.2" font-family="Consolas" font-size="11.00">+</text>
<text text-anchor="start" x="674" y="-39.2" font-family="Consolas" font-size="11.00">MPC()</text>
<text text-anchor="start" x="663" y="-23.2" font-family="Consolas" font-size="11.00">+</text>
<text text-anchor="start" x="674" y="-23.2" font-family="Consolas" font-size="11.00">initialize()</text>
<text text-anchor="start" x="663" y="-7.2" font-family="Consolas" font-size="11.00">+</text>
<text text-anchor="start" x="674" y="-7.2" font-family="Consolas" font-size="11.00">process()</text>
<polygon fill="#666666" stroke="#666666" points="659,-66 659,-66 760,-66 760,-66 659,-66"/>
<polygon fill="#666666" stroke="#666666" points="659,-50 659,-50 760,-50 760,-50 659,-50"/>
<polygon fill="none" stroke="#666666" points="658.5,0 658.5,-84 759.5,-84 759.5,0 658.5,0"/>
</a>
</g>
</g>
<!-- Node2 -->
<g id="Node000002" class="node">
<title>Node2</title>
<g id="a_Node000002"><a xlink:href="../../d8/d71/class_constraint.html" target="_top" xlink:title="A Constraint class.">
<polygon fill="white" stroke="transparent" points="806.5,-285 611.5,-285 611.5,-121 806.5,-121 806.5,-285"/>
<text text-anchor="start" x="675.5" y="-272.2" font-family="Consolas" font-size="11.00">Constraint</text>
<text text-anchor="start" x="706" y="-256.2" font-family="Consolas" font-size="11.00"> </text>
<text text-anchor="start" x="616" y="-240.2" font-family="Consolas" font-size="11.00">+</text>
<text text-anchor="start" x="627" y="-240.2" font-family="Consolas" font-size="11.00">Constraint()</text>
<text text-anchor="start" x="616" y="-224.2" font-family="Consolas" font-size="11.00">+</text>
<text text-anchor="start" x="627" y="-224.2" font-family="Consolas" font-size="11.00">get_resistance()</text>
<text text-anchor="start" x="616" y="-208.2" font-family="Consolas" font-size="11.00">+</text>
<text text-anchor="start" x="627" y="-208.2" font-family="Consolas" font-size="11.00">get_stiffness()</text>
<text text-anchor="start" x="616" y="-192.2" font-family="Consolas" font-size="11.00">+</text>
<text text-anchor="start" x="627" y="-192.2" font-family="Consolas" font-size="11.00">get_auxiliary_resistance()</text>
<text text-anchor="start" x="616" y="-176.2" font-family="Consolas" font-size="11.00">+</text>
<text text-anchor="start" x="627" y="-176.2" font-family="Consolas" font-size="11.00">get_auxiliary_load()</text>
<text text-anchor="start" x="616" y="-160.2" font-family="Consolas" font-size="11.00">+</text>
<text text-anchor="start" x="627" y="-160.2" font-family="Consolas" font-size="11.00">get_auxiliary_stiffness()</text>
<text text-anchor="start" x="616" y="-144.2" font-family="Consolas" font-size="11.00">+</text>
<text text-anchor="start" x="627" y="-144.2" font-family="Consolas" font-size="11.00">set_multiplier_size()</text>
<text text-anchor="start" x="616" y="-128.2" font-family="Consolas" font-size="11.00">+</text>
<text text-anchor="start" x="627" y="-128.2" font-family="Consolas" font-size="11.00">get_multiplier_size()</text>
<polygon fill="#666666" stroke="#666666" points="612,-267 612,-267 807,-267 807,-267 612,-267"/>
<polygon fill="#666666" stroke="#666666" points="612,-251 612,-251 807,-251 807,-251 612,-251"/>
<polygon fill="none" stroke="#666666" points="611.5,-121 611.5,-285 806.5,-285 806.5,-121 611.5,-121"/>
</a>
</g>
</g>
<!-- Node2&#45;&gt;Node1 -->
<g id="edge1_Node000001_Node000002" class="edge">
<title>Node2&#45;&gt;Node1</title>
<g id="a_edge1_Node000001_Node000002"><a xlink:title=" ">
<path fill="none" stroke="#63b8ff" d="M709,-110.57C709,-101.34 709,-92.34 709,-84.07"/>
<polygon fill="none" stroke="#63b8ff" points="705.5,-110.64 709,-120.64 712.5,-110.64 705.5,-110.64"/>
</a>
</g>
</g>
<!-- Node3 -->
<g id="Node000003" class="node">
<title>Node3</title>
<g id="a_Node000003"><a xlink:href="../../da/d44/class_conditional_modifier.html" target="_top" xlink:title="A ConditionalModifier class.">
<polygon fill="white" stroke="transparent" points="378,-625 210,-625 210,-369 378,-369 378,-625"/>
<text text-anchor="start" x="229.5" y="-612.2" font-family="Consolas" font-size="11.00">ConditionalModifier</text>
<text text-anchor="start" x="290.5" y="-596.2" font-family="Consolas" font-size="11.00"> </text>
<text text-anchor="start" x="214" y="-580.2" font-family="Consolas" font-size="11.00">+</text>
<text text-anchor="start" x="225" y="-580.2" font-family="Consolas" font-size="11.00">ConditionalModifier()</text>
<text text-anchor="start" x="214" y="-564.2" font-family="Consolas" font-size="11.00">+</text>
<text text-anchor="start" x="225" y="-564.2" font-family="Consolas" font-size="11.00">initialize()</text>
<text text-anchor="start" x="214" y="-548.2" font-family="Consolas" font-size="11.00">+</text>
<text text-anchor="start" x="225" y="-548.2" font-family="Consolas" font-size="11.00">process()</text>
<text text-anchor="start" x="214" y="-532.2" font-family="Consolas" font-size="11.00">+</text>
<text text-anchor="start" x="225" y="-532.2" font-family="Consolas" font-size="11.00">process_resistance()</text>
<text text-anchor="start" x="214" y="-516.2" font-family="Consolas" font-size="11.00">+</text>
<text text-anchor="start" x="225" y="-516.2" font-family="Consolas" font-size="11.00">stage()</text>
<text text-anchor="start" x="214" y="-500.2" font-family="Consolas" font-size="11.00">+</text>
<text text-anchor="start" x="225" y="-500.2" font-family="Consolas" font-size="11.00">get_node_encoding()</text>
<text text-anchor="start" x="214" y="-484.2" font-family="Consolas" font-size="11.00">+</text>
<text text-anchor="start" x="225" y="-484.2" font-family="Consolas" font-size="11.00">get_dof_encoding()</text>
<text text-anchor="start" x="214" y="-468.2" font-family="Consolas" font-size="11.00">+</text>
<text text-anchor="start" x="225" y="-468.2" font-family="Consolas" font-size="11.00">set_initialized()</text>
<text text-anchor="start" x="214" y="-452.2" font-family="Consolas" font-size="11.00">+</text>
<text text-anchor="start" x="225" y="-452.2" font-family="Consolas" font-size="11.00">is_initialized()</text>
<text text-anchor="start" x="214" y="-436.2" font-family="Consolas" font-size="11.00">+</text>
<text text-anchor="start" x="225" y="-436.2" font-family="Consolas" font-size="11.00">set_start_step()</text>
<text text-anchor="start" x="225" y="-420.2" font-family="Consolas" font-size="11.00">and 10 more...</text>
<text text-anchor="start" x="214" y="-404.2" font-family="Consolas" font-size="11.00">#</text>
<text text-anchor="start" x="225" y="-404.2" font-family="Consolas" font-size="11.00">get_nodal_active_dof()</text>
<text text-anchor="start" x="214" y="-388.2" font-family="Consolas" font-size="11.00">#</text>
<text text-anchor="start" x="225" y="-388.2" font-family="Consolas" font-size="11.00">get_all_nodal_active</text>
<text text-anchor="start" x="225" y="-376.2" font-family="Consolas" font-size="11.00">_dof()</text>
<polygon fill="#666666" stroke="#666666" points="210,-607 210,-607 378,-607 378,-607 210,-607"/>
<polygon fill="#666666" stroke="#666666" points="210,-591 210,-591 378,-591 378,-591 210,-591"/>
<polygon fill="none" stroke="#666666" points="210,-369 210,-625 378,-625 378,-369 210,-369"/>
</a>
</g>
</g>
<!-- Node3&#45;&gt;Node2 -->
<g id="edge2_Node000002_Node000003" class="edge">
<title>Node3&#45;&gt;Node2</title>
<g id="a_edge2_Node000002_Node000003"><a xlink:title=" ">
<path fill="none" stroke="#63b8ff" d="M386.19,-425.11C435.4,-387.9 497.33,-342.06 554,-303 572.27,-290.41 592.05,-277.35 611.16,-265.02"/>
<polygon fill="none" stroke="#63b8ff" points="383.96,-422.41 378.1,-431.24 388.18,-427.99 383.96,-422.41"/>
</a>
</g>
</g>
<!-- Node4 -->
<g id="Node000004" class="node">
<title>Node4</title>
<g id="a_Node000004"><a xlink:href="../../db/db8/class_unique_tag.html" target="_top" xlink:title=" ">
<polygon fill="white" stroke="transparent" points="197.5,-861 96.5,-861 96.5,-697 197.5,-697 197.5,-861"/>
<text text-anchor="start" x="117" y="-848.2" font-family="Consolas" font-size="11.00">UniqueTag</text>
<text text-anchor="start" x="144" y="-832.2" font-family="Consolas" font-size="11.00"> </text>
<text text-anchor="start" x="101" y="-816.2" font-family="Consolas" font-size="11.00">+</text>
<text text-anchor="start" x="112" y="-816.2" font-family="Consolas" font-size="11.00">UniqueTag()</text>
<text text-anchor="start" x="101" y="-800.2" font-family="Consolas" font-size="11.00">+</text>
<text text-anchor="start" x="112" y="-800.2" font-family="Consolas" font-size="11.00">UniqueTag()</text>
<text text-anchor="start" x="101" y="-784.2" font-family="Consolas" font-size="11.00">+</text>
<text text-anchor="start" x="112" y="-784.2" font-family="Consolas" font-size="11.00">operator=()</text>
<text text-anchor="start" x="101" y="-768.2" font-family="Consolas" font-size="11.00">+</text>
<text text-anchor="start" x="112" y="-768.2" font-family="Consolas" font-size="11.00">operator=()</text>
<text text-anchor="start" x="101" y="-752.2" font-family="Consolas" font-size="11.00">+</text>
<text text-anchor="start" x="112" y="-752.2" font-family="Consolas" font-size="11.00">~UniqueTag()</text>
<text text-anchor="start" x="101" y="-736.2" font-family="Consolas" font-size="11.00">+</text>
<text text-anchor="start" x="112" y="-736.2" font-family="Consolas" font-size="11.00">Tag()</text>
<text text-anchor="start" x="101" y="-720.2" font-family="Consolas" font-size="11.00">+</text>
<text text-anchor="start" x="112" y="-720.2" font-family="Consolas" font-size="11.00">Tag()</text>
<text text-anchor="start" x="101" y="-704.2" font-family="Consolas" font-size="11.00">+</text>
<text text-anchor="start" x="112" y="-704.2" font-family="Consolas" font-size="11.00">Tag()</text>
<polygon fill="#666666" stroke="#666666" points="97,-843 97,-843 198,-843 198,-843 97,-843"/>
<polygon fill="#666666" stroke="#666666" points="97,-827 97,-827 198,-827 198,-827 97,-827"/>
<polygon fill="none" stroke="#666666" points="96.5,-697 96.5,-861 197.5,-861 197.5,-697 96.5,-697"/>
</a>
</g>
</g>
<!-- Node4&#45;&gt;Node3 -->
<g id="edge3_Node000003_Node000004" class="edge">
<title>Node4&#45;&gt;Node3</title>
<g id="a_edge3_Node000003_Node000004"><a xlink:title=" ">
<path fill="none" stroke="#63b8ff" d="M194.46,-687.6C204.91,-667.69 216.17,-646.25 227.22,-625.19"/>
<polygon fill="none" stroke="#63b8ff" points="191.27,-686.16 189.72,-696.64 197.46,-689.41 191.27,-686.16"/>
</a>
</g>
</g>
<!-- Node5 -->
<g id="Node000005" class="node">
<title>Node5</title>
<g id="a_Node000005"><a xlink:href="../../d0/d57/class_tag.html" target="_top" xlink:title="A base Tag class.">
<polygon fill="white" stroke="transparent" points="197.5,-1174 96.5,-1174 96.5,-898 197.5,-898 197.5,-1174"/>
<text text-anchor="start" x="137" y="-1161.2" font-family="Consolas" font-size="11.00">Tag</text>
<text text-anchor="start" x="144" y="-1145.2" font-family="Consolas" font-size="11.00"> </text>
<text text-anchor="start" x="101" y="-1129.2" font-family="Consolas" font-size="11.00">+</text>
<text text-anchor="start" x="112" y="-1129.2" font-family="Consolas" font-size="11.00">Tag()</text>
<text text-anchor="start" x="101" y="-1113.2" font-family="Consolas" font-size="11.00">+</text>
<text text-anchor="start" x="112" y="-1113.2" font-family="Consolas" font-size="11.00">Tag()</text>
<text text-anchor="start" x="101" y="-1097.2" font-family="Consolas" font-size="11.00">+</text>
<text text-anchor="start" x="112" y="-1097.2" font-family="Consolas" font-size="11.00">Tag()</text>
<text text-anchor="start" x="101" y="-1081.2" font-family="Consolas" font-size="11.00">+</text>
<text text-anchor="start" x="112" y="-1081.2" font-family="Consolas" font-size="11.00">operator=()</text>
<text text-anchor="start" x="101" y="-1065.2" font-family="Consolas" font-size="11.00">+</text>
<text text-anchor="start" x="112" y="-1065.2" font-family="Consolas" font-size="11.00">operator=()</text>
<text text-anchor="start" x="101" y="-1049.2" font-family="Consolas" font-size="11.00">+</text>
<text text-anchor="start" x="112" y="-1049.2" font-family="Consolas" font-size="11.00">~Tag()</text>
<text text-anchor="start" x="101" y="-1033.2" font-family="Consolas" font-size="11.00">+</text>
<text text-anchor="start" x="112" y="-1033.2" font-family="Consolas" font-size="11.00">set_tag()</text>
<text text-anchor="start" x="101" y="-1017.2" font-family="Consolas" font-size="11.00">+</text>
<text text-anchor="start" x="112" y="-1017.2" font-family="Consolas" font-size="11.00">get_tag()</text>
<text text-anchor="start" x="101" y="-1001.2" font-family="Consolas" font-size="11.00">+</text>
<text text-anchor="start" x="112" y="-1001.2" font-family="Consolas" font-size="11.00">enable()</text>
<text text-anchor="start" x="101" y="-985.2" font-family="Consolas" font-size="11.00">+</text>
<text text-anchor="start" x="112" y="-985.2" font-family="Consolas" font-size="11.00">disable()</text>
<text text-anchor="start" x="101" y="-969.2" font-family="Consolas" font-size="11.00">+</text>
<text text-anchor="start" x="112" y="-969.2" font-family="Consolas" font-size="11.00">guard()</text>
<text text-anchor="start" x="101" y="-953.2" font-family="Consolas" font-size="11.00">+</text>
<text text-anchor="start" x="112" y="-953.2" font-family="Consolas" font-size="11.00">unguard()</text>
<text text-anchor="start" x="101" y="-937.2" font-family="Consolas" font-size="11.00">+</text>
<text text-anchor="start" x="112" y="-937.2" font-family="Consolas" font-size="11.00">is_active()</text>
<text text-anchor="start" x="101" y="-921.2" font-family="Consolas" font-size="11.00">+</text>
<text text-anchor="start" x="112" y="-921.2" font-family="Consolas" font-size="11.00">is_guarded()</text>
<text text-anchor="start" x="101" y="-905.2" font-family="Consolas" font-size="11.00">+</text>
<text text-anchor="start" x="112" y="-905.2" font-family="Consolas" font-size="11.00">print()</text>
<polygon fill="#666666" stroke="#666666" points="97,-1156 97,-1156 198,-1156 198,-1156 97,-1156"/>
<polygon fill="#666666" stroke="#666666" points="97,-1140 97,-1140 198,-1140 198,-1140 97,-1140"/>
<polygon fill="none" stroke="#666666" points="96.5,-898 96.5,-1174 197.5,-1174 197.5,-898 96.5,-898"/>
</a>
</g>
</g>
<!-- Node5&#45;&gt;Node4 -->
<g id="edge4_Node000004_Node000005" class="edge">
<title>Node5&#45;&gt;Node4</title>
<g id="a_edge4_Node000004_Node000005"><a xlink:title=" ">
<path fill="none" stroke="#63b8ff" d="M147,-887.58C147,-878.58 147,-869.71 147,-861.17"/>
<polygon fill="none" stroke="#63b8ff" points="143.5,-887.8 147,-897.8 150.5,-887.8 143.5,-887.8"/>
</a>
</g>
</g>
<!-- Node6 -->
<g id="Node000006" class="node">
<title>Node6</title>
<g id="a_Node000006"><a xlink:title=" ">
<polygon fill="white" stroke="transparent" points="78,-805 0,-805 0,-753 78,-753 78,-805"/>
<text text-anchor="start" x="5" y="-792.2" font-family="Consolas" font-size="11.00">const bool</text>
<text text-anchor="start" x="35.5" y="-776.2" font-family="Consolas" font-size="11.00"> </text>
<text text-anchor="start" x="35.5" y="-760.2" font-family="Consolas" font-size="11.00"> </text>
<polygon fill="#666666" stroke="#666666" points="0,-787 0,-787 78,-787 78,-787 0,-787"/>
<polygon fill="#666666" stroke="#666666" points="0,-771 0,-771 78,-771 78,-771 0,-771"/>
<polygon fill="none" stroke="#666666" points="0,-753 0,-805 78,-805 78,-753 0,-753"/>
</a>
</g>
</g>
<!-- Node6&#45;&gt;Node3 -->
<g id="edge5_Node000003_Node000006" class="edge">
<title>Node6&#45;&gt;Node3</title>
<g id="a_edge5_Node000003_Node000006"><a xlink:title=" ">
<path fill="none" stroke="#63b8ff" d="M50.34,-752.91C63.93,-724.45 88.59,-677.52 118,-643 141.99,-614.84 171.91,-587.92 200.24,-565.09"/>
<polygon fill="none" stroke="#63b8ff" points="200.39,-564.97 202.59,-558.11 209.78,-557.5 207.57,-564.37 200.39,-564.97"/>
</a>
</g>
<text text-anchor="middle" x="159" y="-664.2" font-family="Consolas" font-size="11.00" fill="grey"> #connected</text>
<text text-anchor="middle" x="159" y="-652.2" font-family="Consolas" font-size="11.00" fill="grey">#initialized</text>
</g>
<!-- Node7 -->
<g id="Node000007" class="node">
<title>Node7</title>
<g id="a_Node000007"><a xlink:title=" ">
<polygon fill="white" stroke="transparent" points="560.5,-805 495.5,-805 495.5,-753 560.5,-753 560.5,-805"/>
<text text-anchor="start" x="501" y="-792.2" font-family="Consolas" font-size="11.00">unsigned</text>
<text text-anchor="start" x="525" y="-776.2" font-family="Consolas" font-size="11.00"> </text>
<text text-anchor="start" x="525" y="-760.2" font-family="Consolas" font-size="11.00"> </text>
<polygon fill="#666666" stroke="#666666" points="496,-787 496,-787 561,-787 561,-787 496,-787"/>
<polygon fill="#666666" stroke="#666666" points="496,-771 496,-771 561,-771 561,-771 496,-771"/>
<polygon fill="none" stroke="#666666" points="495.5,-753 495.5,-805 560.5,-805 560.5,-753 495.5,-753"/>
</a>
</g>
</g>
<!-- Node7&#45;&gt;Node2 -->
<g id="edge10_Node000002_Node000007" class="edge">
<title>Node7&#45;&gt;Node2</title>
<g id="a_edge10_Node000002_Node000007"><a xlink:title=" ">
<path fill="none" stroke="#63b8ff" d="M534.85,-752.97C540.04,-733.07 546.96,-704.44 551,-679 572.7,-542.41 526.84,-497.49 578,-369 588.42,-342.83 604.42,-317.48 621.71,-294.82"/>
<polygon fill="none" stroke="#63b8ff" points="621.78,-294.72 622.33,-287.53 629.18,-285.28 628.63,-292.47 621.78,-294.72"/>
</a>
</g>
<text text-anchor="middle" x="612" y="-494.2" font-family="Consolas" font-size="11.00" fill="grey"> #num_size</text>
</g>
<!-- Node7&#45;&gt;Node3 -->
<g id="edge6_Node000003_Node000007" class="edge">
<title>Node7&#45;&gt;Node3</title>
<g id="a_edge6_Node000003_Node000007"><a xlink:title=" ">
<path fill="none" stroke="#63b8ff" d="M507.45,-752.77C485.26,-725.58 448.8,-681.08 417,-643 407.05,-631.09 396.61,-618.66 386.19,-606.31"/>
<polygon fill="none" stroke="#63b8ff" points="385.97,-606.06 379.05,-604.05 378.23,-596.89 385.16,-598.89 385.97,-606.06"/>
</a>
</g>
<text text-anchor="middle" x="496" y="-670.2" font-family="Consolas" font-size="11.00" fill="grey"> #amplitude_tag</text>
<text text-anchor="middle" x="496" y="-658.2" font-family="Consolas" font-size="11.00" fill="grey">#end_step</text>
<text text-anchor="middle" x="496" y="-646.2" font-family="Consolas" font-size="11.00" fill="grey">#start_step</text>
</g>
<!-- Node8 -->
<g id="Node000008" class="node">
<title>Node8</title>
<g id="a_Node000008"><a xlink:title=" ">
<polygon fill="white" stroke="transparent" points="254,-805 216,-805 216,-753 254,-753 254,-805"/>
<text text-anchor="start" x="221" y="-792.2" font-family="Consolas" font-size="11.00">uvec</text>
<text text-anchor="start" x="231.5" y="-776.2" font-family="Consolas" font-size="11.00"> </text>
<text text-anchor="start" x="231.5" y="-760.2" font-family="Consolas" font-size="11.00"> </text>
<polygon fill="#666666" stroke="#666666" points="216,-787 216,-787 254,-787 254,-787 216,-787"/>
<polygon fill="#666666" stroke="#666666" points="216,-771 216,-771 254,-771 254,-771 216,-771"/>
<polygon fill="none" stroke="#666666" points="216,-753 216,-805 254,-805 254,-753 216,-753"/>
</a>
</g>
</g>
<!-- Node8&#45;&gt;Node3 -->
<g id="edge7_Node000003_Node000008" class="edge">
<title>Node8&#45;&gt;Node3</title>
<g id="a_edge7_Node000003_Node000008"><a xlink:title=" ">
<path fill="none" stroke="#63b8ff" d="M232.42,-752.84C230.26,-725.51 228.59,-680.72 236,-643 236.38,-641.08 236.78,-639.15 237.2,-637.22"/>
<polygon fill="none" stroke="#63b8ff" points="237.27,-636.96 234.79,-630.19 240.09,-625.3 242.57,-632.07 237.27,-636.96"/>
</a>
</g>
<text text-anchor="middle" x="283.5" y="-670.2" font-family="Consolas" font-size="11.00" fill="grey"> #dof_encoding</text>
<text text-anchor="middle" x="283.5" y="-658.2" font-family="Consolas" font-size="11.00" fill="grey">#dof_reference</text>
<text text-anchor="middle" x="283.5" y="-646.2" font-family="Consolas" font-size="11.00" fill="grey">#node_encoding</text>
</g>
<!-- Node9 -->
<g id="Node000009" class="node">
<title>Node9</title>
<g id="a_Node000009"><a xlink:title=" ">
<polygon fill="white" stroke="transparent" points="438,-805 272,-805 272,-753 438,-753 438,-805"/>
<text text-anchor="start" x="277" y="-792.2" font-family="Consolas" font-size="11.00">shared_ptr&lt; Amplitude &gt;</text>
<text text-anchor="start" x="351.5" y="-776.2" font-family="Consolas" font-size="11.00"> </text>
<text text-anchor="start" x="351.5" y="-760.2" font-family="Consolas" font-size="11.00"> </text>
<polygon fill="#666666" stroke="#666666" points="272,-787 272,-787 438,-787 438,-787 272,-787"/>
<polygon fill="#666666" stroke="#666666" points="272,-771 272,-771 438,-771 438,-771 272,-771"/>
<polygon fill="none" stroke="#666666" points="272,-753 272,-805 438,-805 438,-753 272,-753"/>
</a>
</g>
</g>
<!-- Node9&#45;&gt;Node3 -->
<g id="edge8_Node000003_Node000009" class="edge">
<title>Node9&#45;&gt;Node3</title>
<g id="a_edge8_Node000003_Node000009"><a xlink:title=" ">
<path fill="none" stroke="#63b8ff" d="M351.09,-752.76C346.73,-725.56 339.22,-681.04 331,-643 330.57,-640.99 330.12,-638.97 329.67,-636.94"/>
<polygon fill="none" stroke="#63b8ff" points="329.66,-636.89 324.44,-631.92 327.02,-625.18 332.24,-630.16 329.66,-636.89"/>
</a>
</g>
<text text-anchor="middle" x="375.5" y="-658.2" font-family="Consolas" font-size="11.00" fill="grey"> #magnitude</text>
</g>
<!-- Node10 -->
<g id="Node000010" class="node">
<title>Node10</title>
<g id="a_Node000010"><a xlink:title=" ">
<polygon fill="white" stroke="transparent" points="705.5,-523 654.5,-523 654.5,-471 705.5,-471 705.5,-523"/>
<text text-anchor="start" x="660" y="-510.2" font-family="Consolas" font-size="11.00">double</text>
<text text-anchor="start" x="677" y="-494.2" font-family="Consolas" font-size="11.00"> </text>
<text text-anchor="start" x="677" y="-478.2" font-family="Consolas" font-size="11.00"> </text>
<polygon fill="#666666" stroke="#666666" points="655,-505 655,-505 706,-505 706,-505 655,-505"/>
<polygon fill="#666666" stroke="#666666" points="655,-489 655,-489 706,-489 706,-489 655,-489"/>
<polygon fill="none" stroke="#666666" points="654.5,-471 654.5,-523 705.5,-523 705.5,-471 654.5,-471"/>
</a>
</g>
</g>
<!-- Node10&#45;&gt;Node2 -->
<g id="edge9_Node000002_Node000010" class="edge">
<title>Node10&#45;&gt;Node2</title>
<g id="a_edge9_Node000002_Node000010"><a xlink:title=" ">
<path fill="none" stroke="#63b8ff" d="M671.65,-470.98C660.48,-433.84 643.66,-362.16 658,-303 658.49,-300.97 659.04,-298.93 659.62,-296.89"/>
<polygon fill="none" stroke="#63b8ff" points="659.71,-296.62 657.77,-289.68 663.44,-285.22 665.38,-292.16 659.71,-296.62"/>
</a>
</g>
<text text-anchor="middle" x="699" y="-324.2" font-family="Consolas" font-size="11.00" fill="grey"> #multiplier</text>
</g>
<!-- Node11 -->
<g id="Node000011" class="node">
<title>Node11</title>
<g id="a_Node000011"><a xlink:title=" ">
<polygon fill="white" stroke="transparent" points="777.5,-523 746.5,-523 746.5,-471 777.5,-471 777.5,-523"/>
<text text-anchor="start" x="752" y="-510.2" font-family="Consolas" font-size="11.00">vec</text>
<text text-anchor="start" x="759" y="-494.2" font-family="Consolas" font-size="11.00"> </text>
<text text-anchor="start" x="759" y="-478.2" font-family="Consolas" font-size="11.00"> </text>
<polygon fill="#666666" stroke="#666666" points="747,-505 747,-505 778,-505 778,-505 747,-505"/>
<polygon fill="#666666" stroke="#666666" points="747,-489 747,-489 778,-489 778,-489 747,-489"/>
<polygon fill="none" stroke="#666666" points="746.5,-471 746.5,-523 777.5,-523 777.5,-471 746.5,-471"/>
</a>
</g>
</g>
<!-- Node11&#45;&gt;Node2 -->
<g id="edge11_Node000002_Node000011" class="edge">
<title>Node11&#45;&gt;Node2</title>
<g id="a_edge11_Node000002_Node000011"><a xlink:title=" ">
<path fill="none" stroke="#63b8ff" d="M760.66,-470.77C758.34,-433.68 752.56,-362.39 740,-303 739.58,-301 739.13,-298.99 738.66,-296.96"/>
<polygon fill="none" stroke="#63b8ff" points="738.65,-296.91 733.33,-292.03 735.79,-285.25 741.1,-290.12 738.65,-296.91"/>
</a>
</g>
<text text-anchor="middle" x="819" y="-342.2" font-family="Consolas" font-size="11.00" fill="grey"> #auxiliary_load</text>
<text text-anchor="middle" x="819" y="-330.2" font-family="Consolas" font-size="11.00" fill="grey">#auxiliary_resistance</text>
<text text-anchor="middle" x="819" y="-318.2" font-family="Consolas" font-size="11.00" fill="grey">#current_lambda</text>
<text text-anchor="middle" x="819" y="-306.2" font-family="Consolas" font-size="11.00" fill="grey">#trial_lambda</text>
</g>
<!-- Node12 -->
<g id="Node000012" class="node">
<title>Node12</title>
<g id="a_Node000012"><a xlink:title=" ">
<polygon fill="white" stroke="transparent" points="952.5,-523 901.5,-523 901.5,-471 952.5,-471 952.5,-523"/>
<text text-anchor="start" x="907" y="-510.2" font-family="Consolas" font-size="11.00">sp_vec</text>
<text text-anchor="start" x="924" y="-494.2" font-family="Consolas" font-size="11.00"> </text>
<text text-anchor="start" x="924" y="-478.2" font-family="Consolas" font-size="11.00"> </text>
<polygon fill="#666666" stroke="#666666" points="902,-505 902,-505 953,-505 953,-505 902,-505"/>
<polygon fill="#666666" stroke="#666666" points="902,-489 902,-489 953,-489 953,-489 902,-489"/>
<polygon fill="none" stroke="#666666" points="901.5,-471 901.5,-523 952.5,-523 952.5,-471 901.5,-471"/>
</a>
</g>
</g>
<!-- Node12&#45;&gt;Node2 -->
<g id="edge12_Node000002_Node000012" class="edge">
<title>Node12&#45;&gt;Node2</title>
<g id="a_edge12_Node000002_Node000012"><a xlink:title=" ">
<path fill="none" stroke="#63b8ff" d="M929.31,-470.83C931.62,-431.25 930.57,-353.75 894,-303 874.93,-276.53 846.56,-256.47 817.73,-241.56"/>
<polygon fill="none" stroke="#63b8ff" points="817.44,-241.42 810.29,-242.35 806.68,-236.1 813.83,-235.17 817.44,-241.42"/>
</a>
</g>
<text text-anchor="middle" x="957" y="-324.2" font-family="Consolas" font-size="11.00" fill="grey"> #resistance</text>
</g>
<!-- Node13 -->
<g id="Node000013" class="node">
<title>Node13</title>
<g id="a_Node000013"><a xlink:title=" ">
<polygon fill="white" stroke="transparent" points="1057.5,-523 1006.5,-523 1006.5,-471 1057.5,-471 1057.5,-523"/>
<text text-anchor="start" x="1012" y="-510.2" font-family="Consolas" font-size="11.00">sp_mat</text>
<text text-anchor="start" x="1029" y="-494.2" font-family="Consolas" font-size="11.00"> </text>
<text text-anchor="start" x="1029" y="-478.2" font-family="Consolas" font-size="11.00"> </text>
<polygon fill="#666666" stroke="#666666" points="1007,-505 1007,-505 1058,-505 1058,-505 1007,-505"/>
<polygon fill="#666666" stroke="#666666" points="1007,-489 1007,-489 1058,-489 1058,-489 1007,-489"/>
<polygon fill="none" stroke="#666666" points="1006.5,-471 1006.5,-523 1057.5,-523 1057.5,-471 1006.5,-471"/>
</a>
</g>
</g>
<!-- Node13&#45;&gt;Node2 -->
<g id="edge13_Node000002_Node000013" class="edge">
<title>Node13&#45;&gt;Node2</title>
<g id="a_edge13_Node000002_Node000013"><a xlink:title=" ">
<path fill="none" stroke="#63b8ff" d="M1035.68,-470.77C1040.07,-430.41 1042.39,-351 1002,-303 956.85,-249.35 881.53,-224.68 818.56,-213.38"/>
<polygon fill="none" stroke="#63b8ff" points="818.38,-213.35 811.8,-216.29 806.55,-211.35 813.13,-208.4 818.38,-213.35"/>
</a>
</g>
<text text-anchor="middle" x="1097" y="-330.2" font-family="Consolas" font-size="11.00" fill="grey"> #auxiliary_stiffness</text>
<text text-anchor="middle" x="1097" y="-318.2" font-family="Consolas" font-size="11.00" fill="grey">#stiffness</text>
</g>
</g>
</svg>
