<svg xmlns="http://www.w3.org/2000/svg" xmlns:xlink="http://www.w3.org/1999/xlink" width="268" height="344pt" viewBox="0 0 201 344"><svg xmlns="http://www.w3.org/2000/svg" xmlns:xlink="http://www.w3.org/1999/xlink" xml:space="preserve" id="main" onload="init(evt)"><style>.node,[data-mouse-over-selected=false]{opacity:.7}.edge.selected,.node.selected,[data-mouse-over-selected=true]{opacity:1}.edge:hover path{stroke:red}.edge:hover polygon{stroke:red;fill:red}</style><script xlink:href="../../svg.min.js" type="application/ecmascript"/><svg id="graph" class="graph"><g id="graph0" class="graph" transform="translate(4 340)"><title>csr_form&lt; data_t, index_t &gt;</title><g id="Node000001" class="node"><title>Node1</title><a id="a_Node000001">
<path fill="#999" stroke="transparent" d="M193-212H0V0h193z"/>
<text x="5.5" y="-199.2" font-family="Consolas" font-size="11">csr_form&lt; data_t, index_t &gt;</text>
<text x="93.5" y="-183.2" font-family="Consolas" font-size="11"> </text>
<text x="24" y="-167.2" font-family="Consolas" font-size="11">+</text>
<text x="54.5" y="-167.2" font-family="Consolas" font-size="11">csr_form()</text>
<text x="24" y="-151.2" font-family="Consolas" font-size="11">+</text>
<text x="54.5" y="-151.2" font-family="Consolas" font-size="11">csr_form()</text>
<text x="24" y="-135.2" font-family="Consolas" font-size="11">+</text>
<text x="54.5" y="-135.2" font-family="Consolas" font-size="11">csr_form()</text>
<text x="24" y="-119.2" font-family="Consolas" font-size="11">+</text>
<text x="54.5" y="-119.2" font-family="Consolas" font-size="11">operator=()</text>
<text x="24" y="-103.2" font-family="Consolas" font-size="11">+</text>
<text x="54.5" y="-103.2" font-family="Consolas" font-size="11">operator=()</text>
<text x="24" y="-87.2" font-family="Consolas" font-size="11">+</text>
<text x="54.5" y="-87.2" font-family="Consolas" font-size="11">~csr_form()</text>
<text x="24" y="-71.2" font-family="Consolas" font-size="11">+</text>
<text x="54.5" y="-71.2" font-family="Consolas" font-size="11">row_mem()</text>
<text x="24" y="-55.2" font-family="Consolas" font-size="11">+</text>
<text x="54.5" y="-55.2" font-family="Consolas" font-size="11">col_mem()</text>
<text x="24" y="-39.2" font-family="Consolas" font-size="11">+</text>
<text x="54.5" y="-39.2" font-family="Consolas" font-size="11">val_mem()</text>
<text x="24" y="-23.2" font-family="Consolas" font-size="11">+</text>
<text x="54.5" y="-23.2" font-family="Consolas" font-size="11">row_mem()</text>
<text x="54.5" y="-7.2" font-family="Consolas" font-size="11">and 15 more...</text>
<path fill="#666" stroke="#666" d="M.5-194h193z"/>
<path fill="#666" stroke="#666" d="M.5-178h193z"/>
<path fill="none" stroke="#666" d="M0 0v-212h193V0z"/>
</a></g><g id="Node000002" class="node"><title>Node2</title><a id="a_Node000002">
<path fill="#fff" stroke="transparent" d="M125.5-336h-58v52h58z"/>
<text x="72.5" y="-323.2" font-family="Consolas" font-size="11">index_t</text>
<text x="93" y="-307.2" font-family="Consolas" font-size="11"> </text>
<text x="93" y="-291.2" font-family="Consolas" font-size="11"> </text>
<path fill="#666" stroke="#666" d="M67.5-318h58z"/>
<path fill="#666" stroke="#666" d="M67.5-302h58z"/>
<path fill="none" stroke="#666" d="M67.5-284v-52h58v52z"/>
</a></g><g id="edge1_Node000001_Node000002" style="opacity:.7"><title>Node2-&gt;Node1</title><a id="a_edge1_Node000001_Node000002">
<path fill="none" stroke="#63b8ff" d="M96.5-283.82v59.28"/>
<path fill="none" stroke="#63b8ff" d="m96.5-224.38-4 6 4 6 4-6z"/>
</a><text x="124" y="-257.2" fill="gray" font-family="Consolas" font-size="11" text-anchor="middle"> +n_cols</text><text x="124" y="-245.2" fill="gray" font-family="Consolas" font-size="11" text-anchor="middle">+n_elem</text><text x="124" y="-233.2" fill="gray" font-family="Consolas" font-size="11" text-anchor="middle">+n_rows</text></g></g></svg></svg><script type="application/ecmascript"><![CDATA[
document.addEventListener('DOMContentLoaded', (event) => {
  highlightEdges();
  highlightAdjacentNodes();
});
]]></script></svg>