<?xml version="1.0" encoding="UTF-8" standalone="no"?>
<!DOCTYPE svg PUBLIC "-//W3C//DTD SVG 1.1//EN"
 "http://www.w3.org/Graphics/SVG/1.1/DTD/svg11.dtd">
<!-- Generated by graphviz version 2.43.0 (0)
 -->
<!-- Title: GSSE Pages: 1 -->
<svg width="196pt" height="1432pt"
 viewBox="0.00 0.00 196.00 1432.00" xmlns="http://www.w3.org/2000/svg" xmlns:xlink="http://www.w3.org/1999/xlink">
<g id="graph0" class="graph" transform="scale(1 1) rotate(0) translate(4 1428)">
<title>GSSE</title>
<!-- Node1 -->
<g id="Node000001" class="node">
<title>Node1</title>
<g id="a_Node000001"><a xlink:title="General explicit integration.">
<polygon fill="#999999" stroke="transparent" points="188,-240 0,-240 0,0 188,0 188,-240"/>
<text text-anchor="start" x="80" y="-227.2" font-family="Consolas" font-size="11.00">GSSE</text>
<text text-anchor="start" x="90.5" y="-211.2" font-family="Consolas" font-size="11.00"> </text>
<text text-anchor="start" x="4" y="-195.2" font-family="Consolas" font-size="11.00">+</text>
<text text-anchor="start" x="15" y="-195.2" font-family="Consolas" font-size="11.00">GSSE()</text>
<text text-anchor="start" x="4" y="-179.2" font-family="Consolas" font-size="11.00">+</text>
<text text-anchor="start" x="15" y="-179.2" font-family="Consolas" font-size="11.00">GSSE()</text>
<text text-anchor="start" x="4" y="-163.2" font-family="Consolas" font-size="11.00">+</text>
<text text-anchor="start" x="15" y="-163.2" font-family="Consolas" font-size="11.00">update_trial_status()</text>
<text text-anchor="start" x="4" y="-147.2" font-family="Consolas" font-size="11.00">+</text>
<text text-anchor="start" x="15" y="-147.2" font-family="Consolas" font-size="11.00">load_scaling_factor()</text>
<text text-anchor="start" x="4" y="-131.2" font-family="Consolas" font-size="11.00">+</text>
<text text-anchor="start" x="15" y="-131.2" font-family="Consolas" font-size="11.00">from_incre_acceleration()</text>
<text text-anchor="start" x="4" y="-115.2" font-family="Consolas" font-size="11.00">+</text>
<text text-anchor="start" x="15" y="-115.2" font-family="Consolas" font-size="11.00">from_total_acceleration()</text>
<text text-anchor="start" x="4" y="-99.2" font-family="Consolas" font-size="11.00">+</text>
<text text-anchor="start" x="15" y="-99.2" font-family="Consolas" font-size="11.00">print()</text>
<text text-anchor="start" x="4" y="-83.2" font-family="Consolas" font-size="11.00">#</text>
<text text-anchor="start" x="15" y="-83.2" font-family="Consolas" font-size="11.00">update_parameter()</text>
<text text-anchor="start" x="4" y="-67.2" font-family="Consolas" font-size="11.00">#</text>
<text text-anchor="start" x="15" y="-67.2" font-family="Consolas" font-size="11.00">process_load_impl()</text>
<text text-anchor="start" x="4" y="-51.2" font-family="Consolas" font-size="11.00">#</text>
<text text-anchor="start" x="15" y="-51.2" font-family="Consolas" font-size="11.00">process_constraint</text>
<text text-anchor="start" x="15" y="-39.2" font-family="Consolas" font-size="11.00">_impl()</text>
<text text-anchor="start" x="4" y="-23.2" font-family="Consolas" font-size="11.00">#</text>
<text text-anchor="start" x="15" y="-23.2" font-family="Consolas" font-size="11.00">has_corrector()</text>
<text text-anchor="start" x="4" y="-7.2" font-family="Consolas" font-size="11.00">#</text>
<text text-anchor="start" x="15" y="-7.2" font-family="Consolas" font-size="11.00">correct_trial_status()</text>
<polygon fill="#666666" stroke="#666666" points="0,-222 0,-222 188,-222 188,-222 0,-222"/>
<polygon fill="#666666" stroke="#666666" points="0,-206 0,-206 188,-206 188,-206 0,-206"/>
<polygon fill="none" stroke="#666666" points="0,0 0,-240 188,-240 188,0 0,0"/>
</a>
</g>
</g>
<!-- Node2 -->
<g id="Node000002" class="node">
<title>Node2</title>
<g id="a_Node000002"><a xlink:href="../../d4/df8/class_explicit_integrator.html" target="_top" xlink:title=" ">
<polygon fill="white" stroke="transparent" points="188,-548 0,-548 0,-276 188,-276 188,-548"/>
<text text-anchor="start" x="33" y="-535.2" font-family="Consolas" font-size="11.00">ExplicitIntegrator</text>
<text text-anchor="start" x="90.5" y="-519.2" font-family="Consolas" font-size="11.00"> </text>
<text text-anchor="start" x="4" y="-503.2" font-family="Consolas" font-size="11.00">+</text>
<text text-anchor="start" x="15" y="-503.2" font-family="Consolas" font-size="11.00">type()</text>
<text text-anchor="start" x="4" y="-487.2" font-family="Consolas" font-size="11.00">+</text>
<text text-anchor="start" x="15" y="-487.2" font-family="Consolas" font-size="11.00">assemble_resistance()</text>
<text text-anchor="start" x="4" y="-471.2" font-family="Consolas" font-size="11.00">+</text>
<text text-anchor="start" x="15" y="-471.2" font-family="Consolas" font-size="11.00">assemble_matrix()</text>
<text text-anchor="start" x="4" y="-455.2" font-family="Consolas" font-size="11.00">+</text>
<text text-anchor="start" x="15" y="-455.2" font-family="Consolas" font-size="11.00">assemble_effective</text>
<text text-anchor="start" x="15" y="-443.2" font-family="Consolas" font-size="11.00">_matrix()</text>
<text text-anchor="start" x="4" y="-427.2" font-family="Consolas" font-size="11.00">+</text>
<text text-anchor="start" x="15" y="-427.2" font-family="Consolas" font-size="11.00">get_trial_displacement()</text>
<text text-anchor="start" x="4" y="-411.2" font-family="Consolas" font-size="11.00">+</text>
<text text-anchor="start" x="15" y="-411.2" font-family="Consolas" font-size="11.00">update_from_ninja()</text>
<text text-anchor="start" x="4" y="-395.2" font-family="Consolas" font-size="11.00">+</text>
<text text-anchor="start" x="15" y="-395.2" font-family="Consolas" font-size="11.00">solve()</text>
<text text-anchor="start" x="4" y="-379.2" font-family="Consolas" font-size="11.00">+</text>
<text text-anchor="start" x="15" y="-379.2" font-family="Consolas" font-size="11.00">solve()</text>
<text text-anchor="start" x="4" y="-363.2" font-family="Consolas" font-size="11.00">+</text>
<text text-anchor="start" x="15" y="-363.2" font-family="Consolas" font-size="11.00">solve()</text>
<text text-anchor="start" x="4" y="-347.2" font-family="Consolas" font-size="11.00">+</text>
<text text-anchor="start" x="15" y="-347.2" font-family="Consolas" font-size="11.00">solve()</text>
<text text-anchor="start" x="4" y="-331.2" font-family="Consolas" font-size="11.00">+</text>
<text text-anchor="start" x="15" y="-331.2" font-family="Consolas" font-size="11.00">from_incre_velocity()</text>
<text text-anchor="start" x="4" y="-315.2" font-family="Consolas" font-size="11.00">+</text>
<text text-anchor="start" x="15" y="-315.2" font-family="Consolas" font-size="11.00">from_incre_acceleration()</text>
<text text-anchor="start" x="4" y="-299.2" font-family="Consolas" font-size="11.00">+</text>
<text text-anchor="start" x="15" y="-299.2" font-family="Consolas" font-size="11.00">from_total_acceleration()</text>
<text text-anchor="start" x="4" y="-283.2" font-family="Consolas" font-size="11.00">+</text>
<text text-anchor="start" x="15" y="-283.2" font-family="Consolas" font-size="11.00">Integrator()</text>
<polygon fill="#666666" stroke="#666666" points="0,-530 0,-530 188,-530 188,-530 0,-530"/>
<polygon fill="#666666" stroke="#666666" points="0,-514 0,-514 188,-514 188,-514 0,-514"/>
<polygon fill="none" stroke="#666666" points="0,-276 0,-548 188,-548 188,-276 0,-276"/>
</a>
</g>
</g>
<!-- Node2&#45;&gt;Node1 -->
<g id="edge1_Node000001_Node000002" class="edge">
<title>Node2&#45;&gt;Node1</title>
<g id="a_edge1_Node000001_Node000002"><a xlink:title=" ">
<path fill="none" stroke="#63b8ff" d="M94,-265.51C94,-257.09 94,-248.68 94,-240.38"/>
<polygon fill="none" stroke="#63b8ff" points="90.5,-265.76 94,-275.76 97.5,-265.76 90.5,-265.76"/>
</a>
</g>
</g>
<!-- Node3 -->
<g id="Node000003" class="node">
<title>Node3</title>
<g id="a_Node000003"><a xlink:href="../../d6/d55/class_integrator.html" target="_top" xlink:title="The Integrator class is basically a wrapper of the DomainBase class with regard to some status changi...">
<polygon fill="white" stroke="transparent" points="188,-912 0,-912 0,-584 188,-584 188,-912"/>
<text text-anchor="start" x="60" y="-899.2" font-family="Consolas" font-size="11.00">Integrator</text>
<text text-anchor="start" x="90.5" y="-883.2" font-family="Consolas" font-size="11.00"> </text>
<text text-anchor="start" x="4" y="-867.2" font-family="Consolas" font-size="11.00">+</text>
<text text-anchor="start" x="15" y="-867.2" font-family="Consolas" font-size="11.00">Integrator()</text>
<text text-anchor="start" x="4" y="-851.2" font-family="Consolas" font-size="11.00">+</text>
<text text-anchor="start" x="15" y="-851.2" font-family="Consolas" font-size="11.00">set_domain()</text>
<text text-anchor="start" x="4" y="-835.2" font-family="Consolas" font-size="11.00">+</text>
<text text-anchor="start" x="15" y="-835.2" font-family="Consolas" font-size="11.00">get_domain()</text>
<text text-anchor="start" x="4" y="-819.2" font-family="Consolas" font-size="11.00">+</text>
<text text-anchor="start" x="15" y="-819.2" font-family="Consolas" font-size="11.00">initialize()</text>
<text text-anchor="start" x="4" y="-803.2" font-family="Consolas" font-size="11.00">+</text>
<text text-anchor="start" x="15" y="-803.2" font-family="Consolas" font-size="11.00">type()</text>
<text text-anchor="start" x="4" y="-787.2" font-family="Consolas" font-size="11.00">+</text>
<text text-anchor="start" x="15" y="-787.2" font-family="Consolas" font-size="11.00">set_time_step_switch()</text>
<text text-anchor="start" x="4" y="-771.2" font-family="Consolas" font-size="11.00">+</text>
<text text-anchor="start" x="15" y="-771.2" font-family="Consolas" font-size="11.00">allow_to_change_time</text>
<text text-anchor="start" x="15" y="-759.2" font-family="Consolas" font-size="11.00">_step()</text>
<text text-anchor="start" x="4" y="-743.2" font-family="Consolas" font-size="11.00">+</text>
<text text-anchor="start" x="15" y="-743.2" font-family="Consolas" font-size="11.00">set_matrix_assembled</text>
<text text-anchor="start" x="15" y="-731.2" font-family="Consolas" font-size="11.00">_switch()</text>
<text text-anchor="start" x="4" y="-715.2" font-family="Consolas" font-size="11.00">+</text>
<text text-anchor="start" x="15" y="-715.2" font-family="Consolas" font-size="11.00">matrix_is_assembled()</text>
<text text-anchor="start" x="4" y="-699.2" font-family="Consolas" font-size="11.00">+</text>
<text text-anchor="start" x="15" y="-699.2" font-family="Consolas" font-size="11.00">time_independent_matrix()</text>
<text text-anchor="start" x="15" y="-683.2" font-family="Consolas" font-size="11.00">and 49 more...</text>
<text text-anchor="start" x="4" y="-667.2" font-family="Consolas" font-size="11.00">#</text>
<text text-anchor="start" x="15" y="-667.2" font-family="Consolas" font-size="11.00">update_parameter()</text>
<text text-anchor="start" x="4" y="-651.2" font-family="Consolas" font-size="11.00">#</text>
<text text-anchor="start" x="15" y="-651.2" font-family="Consolas" font-size="11.00">process_load_impl()</text>
<text text-anchor="start" x="4" y="-635.2" font-family="Consolas" font-size="11.00">#</text>
<text text-anchor="start" x="15" y="-635.2" font-family="Consolas" font-size="11.00">process_constraint</text>
<text text-anchor="start" x="15" y="-623.2" font-family="Consolas" font-size="11.00">_impl()</text>
<text text-anchor="start" x="4" y="-607.2" font-family="Consolas" font-size="11.00">#</text>
<text text-anchor="start" x="15" y="-607.2" font-family="Consolas" font-size="11.00">has_corrector()</text>
<text text-anchor="start" x="4" y="-591.2" font-family="Consolas" font-size="11.00">#</text>
<text text-anchor="start" x="15" y="-591.2" font-family="Consolas" font-size="11.00">correct_trial_status()</text>
<polygon fill="#666666" stroke="#666666" points="0,-894 0,-894 188,-894 188,-894 0,-894"/>
<polygon fill="#666666" stroke="#666666" points="0,-878 0,-878 188,-878 188,-878 0,-878"/>
<polygon fill="none" stroke="#666666" points="0,-584 0,-912 188,-912 188,-584 0,-584"/>
</a>
</g>
</g>
<!-- Node3&#45;&gt;Node2 -->
<g id="edge2_Node000002_Node000003" class="edge">
<title>Node3&#45;&gt;Node2</title>
<g id="a_edge2_Node000002_Node000003"><a xlink:title=" ">
<path fill="none" stroke="#63b8ff" d="M94,-573.85C94,-565.29 94,-556.74 94,-548.31"/>
<polygon fill="none" stroke="#63b8ff" points="90.5,-573.91 94,-583.91 97.5,-573.91 90.5,-573.91"/>
</a>
</g>
</g>
<!-- Node4 -->
<g id="Node000004" class="node">
<title>Node4</title>
<g id="a_Node000004"><a xlink:href="../../db/db8/class_unique_tag.html" target="_top" xlink:title="Label objects that cannot be copied.">
<polygon fill="white" stroke="transparent" points="144.5,-1112 43.5,-1112 43.5,-948 144.5,-948 144.5,-1112"/>
<text text-anchor="start" x="64" y="-1099.2" font-family="Consolas" font-size="11.00">UniqueTag</text>
<text text-anchor="start" x="91" y="-1083.2" font-family="Consolas" font-size="11.00"> </text>
<text text-anchor="start" x="48" y="-1067.2" font-family="Consolas" font-size="11.00">+</text>
<text text-anchor="start" x="59" y="-1067.2" font-family="Consolas" font-size="11.00">UniqueTag()</text>
<text text-anchor="start" x="48" y="-1051.2" font-family="Consolas" font-size="11.00">+</text>
<text text-anchor="start" x="59" y="-1051.2" font-family="Consolas" font-size="11.00">UniqueTag()</text>
<text text-anchor="start" x="48" y="-1035.2" font-family="Consolas" font-size="11.00">+</text>
<text text-anchor="start" x="59" y="-1035.2" font-family="Consolas" font-size="11.00">operator=()</text>
<text text-anchor="start" x="48" y="-1019.2" font-family="Consolas" font-size="11.00">+</text>
<text text-anchor="start" x="59" y="-1019.2" font-family="Consolas" font-size="11.00">operator=()</text>
<text text-anchor="start" x="48" y="-1003.2" font-family="Consolas" font-size="11.00">+</text>
<text text-anchor="start" x="59" y="-1003.2" font-family="Consolas" font-size="11.00">~UniqueTag()</text>
<text text-anchor="start" x="48" y="-987.2" font-family="Consolas" font-size="11.00">+</text>
<text text-anchor="start" x="59" y="-987.2" font-family="Consolas" font-size="11.00">Tag()</text>
<text text-anchor="start" x="48" y="-971.2" font-family="Consolas" font-size="11.00">+</text>
<text text-anchor="start" x="59" y="-971.2" font-family="Consolas" font-size="11.00">Tag()</text>
<text text-anchor="start" x="48" y="-955.2" font-family="Consolas" font-size="11.00">+</text>
<text text-anchor="start" x="59" y="-955.2" font-family="Consolas" font-size="11.00">Tag()</text>
<polygon fill="#666666" stroke="#666666" points="44,-1094 44,-1094 145,-1094 145,-1094 44,-1094"/>
<polygon fill="#666666" stroke="#666666" points="44,-1078 44,-1078 145,-1078 145,-1078 44,-1078"/>
<polygon fill="none" stroke="#666666" points="43.5,-948 43.5,-1112 144.5,-1112 144.5,-948 43.5,-948"/>
</a>
</g>
</g>
<!-- Node4&#45;&gt;Node3 -->
<g id="edge3_Node000003_Node000004" class="edge">
<title>Node4&#45;&gt;Node3</title>
<g id="a_edge3_Node000003_Node000004"><a xlink:title=" ">
<path fill="none" stroke="#63b8ff" d="M94,-937.42C94,-929.23 94,-920.8 94,-912.24"/>
<polygon fill="none" stroke="#63b8ff" points="90.5,-937.64 94,-947.64 97.5,-937.64 90.5,-937.64"/>
</a>
</g>
</g>
<!-- Node5 -->
<g id="Node000005" class="node">
<title>Node5</title>
<g id="a_Node000005"><a xlink:href="../../d0/d57/class_tag.html" target="_top" xlink:title="A base Tag class.">
<polygon fill="white" stroke="transparent" points="144.5,-1424 43.5,-1424 43.5,-1148 144.5,-1148 144.5,-1424"/>
<text text-anchor="start" x="84" y="-1411.2" font-family="Consolas" font-size="11.00">Tag</text>
<text text-anchor="start" x="91" y="-1395.2" font-family="Consolas" font-size="11.00"> </text>
<text text-anchor="start" x="48" y="-1379.2" font-family="Consolas" font-size="11.00">+</text>
<text text-anchor="start" x="59" y="-1379.2" font-family="Consolas" font-size="11.00">Tag()</text>
<text text-anchor="start" x="48" y="-1363.2" font-family="Consolas" font-size="11.00">+</text>
<text text-anchor="start" x="59" y="-1363.2" font-family="Consolas" font-size="11.00">Tag()</text>
<text text-anchor="start" x="48" y="-1347.2" font-family="Consolas" font-size="11.00">+</text>
<text text-anchor="start" x="59" y="-1347.2" font-family="Consolas" font-size="11.00">Tag()</text>
<text text-anchor="start" x="48" y="-1331.2" font-family="Consolas" font-size="11.00">+</text>
<text text-anchor="start" x="59" y="-1331.2" font-family="Consolas" font-size="11.00">operator=()</text>
<text text-anchor="start" x="48" y="-1315.2" font-family="Consolas" font-size="11.00">+</text>
<text text-anchor="start" x="59" y="-1315.2" font-family="Consolas" font-size="11.00">operator=()</text>
<text text-anchor="start" x="48" y="-1299.2" font-family="Consolas" font-size="11.00">+</text>
<text text-anchor="start" x="59" y="-1299.2" font-family="Consolas" font-size="11.00">~Tag()</text>
<text text-anchor="start" x="48" y="-1283.2" font-family="Consolas" font-size="11.00">+</text>
<text text-anchor="start" x="59" y="-1283.2" font-family="Consolas" font-size="11.00">set_tag()</text>
<text text-anchor="start" x="48" y="-1267.2" font-family="Consolas" font-size="11.00">+</text>
<text text-anchor="start" x="59" y="-1267.2" font-family="Consolas" font-size="11.00">get_tag()</text>
<text text-anchor="start" x="48" y="-1251.2" font-family="Consolas" font-size="11.00">+</text>
<text text-anchor="start" x="59" y="-1251.2" font-family="Consolas" font-size="11.00">enable()</text>
<text text-anchor="start" x="48" y="-1235.2" font-family="Consolas" font-size="11.00">+</text>
<text text-anchor="start" x="59" y="-1235.2" font-family="Consolas" font-size="11.00">disable()</text>
<text text-anchor="start" x="48" y="-1219.2" font-family="Consolas" font-size="11.00">+</text>
<text text-anchor="start" x="59" y="-1219.2" font-family="Consolas" font-size="11.00">guard()</text>
<text text-anchor="start" x="48" y="-1203.2" font-family="Consolas" font-size="11.00">+</text>
<text text-anchor="start" x="59" y="-1203.2" font-family="Consolas" font-size="11.00">unguard()</text>
<text text-anchor="start" x="48" y="-1187.2" font-family="Consolas" font-size="11.00">+</text>
<text text-anchor="start" x="59" y="-1187.2" font-family="Consolas" font-size="11.00">is_active()</text>
<text text-anchor="start" x="48" y="-1171.2" font-family="Consolas" font-size="11.00">+</text>
<text text-anchor="start" x="59" y="-1171.2" font-family="Consolas" font-size="11.00">is_guarded()</text>
<text text-anchor="start" x="48" y="-1155.2" font-family="Consolas" font-size="11.00">+</text>
<text text-anchor="start" x="59" y="-1155.2" font-family="Consolas" font-size="11.00">print()</text>
<polygon fill="#666666" stroke="#666666" points="44,-1406 44,-1406 145,-1406 145,-1406 44,-1406"/>
<polygon fill="#666666" stroke="#666666" points="44,-1390 44,-1390 145,-1390 145,-1390 44,-1390"/>
<polygon fill="none" stroke="#666666" points="43.5,-1148 43.5,-1424 144.5,-1424 144.5,-1148 43.5,-1148"/>
</a>
</g>
</g>
<!-- Node5&#45;&gt;Node4 -->
<g id="edge4_Node000004_Node000005" class="edge">
<title>Node5&#45;&gt;Node4</title>
<g id="a_edge4_Node000004_Node000005"><a xlink:title=" ">
<path fill="none" stroke="#63b8ff" d="M94,-1137.72C94,-1129.04 94,-1120.49 94,-1112.23"/>
<polygon fill="none" stroke="#63b8ff" points="90.5,-1137.96 94,-1147.96 97.5,-1137.96 90.5,-1137.96"/>
</a>
</g>
</g>
</g>
</svg>
