<svg xmlns="http://www.w3.org/2000/svg" xmlns:xlink="http://www.w3.org/1999/xlink" width="464" height="190pt" viewBox="0 0 348 190"><svg xmlns="http://www.w3.org/2000/svg" xmlns:xlink="http://www.w3.org/1999/xlink" xml:space="preserve" id="main" onload="init(evt)"><style>.edge,.node,[data-mouse-over-selected=false]{opacity:.7}.edge.selected,.node.selected,[data-mouse-over-selected=true]{opacity:1}.edge:hover path{stroke:red}.edge:hover polygon{stroke:red;fill:red}</style><script xlink:href="../../svg.min.js" type="application/ecmascript"/><svg id="graph" class="graph"><g id="graph0" class="graph" transform="translate(4 186)"><title>SectionShell::update_trial_status</title><g id="Node000001" class="node"><title>Node1</title><a id="a_Node000001">
<path fill="#999" stroke="#666" d="M340-107H188v32h152z"/>
<text x="196" y="-94.2" font-family="Consolas" font-size="11">SectionShell::update</text>
<text x="264" y="-82.2" font-family="Consolas" font-size="11" text-anchor="middle">_trial_status</text>
</a></g><g id="edge4_Node000001_Node000001" class="edge"><title>Node1-&gt;Node1</title><a id="a_edge4_Node000001_Node000001">
<path fill="none" stroke="#63b8ff" d="M297.09-117.19c-4.38-4.6-15.41-7.81-33.09-7.81-29.01 0-40.11 8.63-33.31 17.91"/>
<path fill="#63b8ff" stroke="#63b8ff" d="m300.59-117.17-3.28 10.08-3.72-9.92z"/>
</a></g><g id="Node000002" class="node"><title>Node2</title><a xlink:href="../../d6/d85/class_section_shell.html#ade70671fb9c86968da7b90ef8df19da8" id="a_Node000002" target="_top">
<path fill="#fff" stroke="#666" d="M152-182H0v32h152z"/>
<text x="8" y="-169.2" font-family="Consolas" font-size="11">SectionShell::update</text>
<text x="76" y="-157.2" font-family="Consolas" font-size="11" text-anchor="middle">_incre_status</text>
</a></g><g id="edge1_Node000001_Node000002" class="edge"><title>Node1-&gt;Node2</title><a id="a_edge1_Node000001_Node000002">
<path fill="none" stroke="#63b8ff" d="M220.04-111.58C199.63-121.04 174.77-132.1 152-141c-7.8-3.05-16.14-6.06-24.32-8.89"/>
<path fill="#63b8ff" stroke="#63b8ff" d="m221.79-114.62 7.58 7.4-10.54-1.06z"/>
</a></g><g id="Node000003" class="node"><title>Node3</title><a xlink:href="../../d6/d85/class_section_shell.html#aff124bab0c3058f6b21b27035358d7e3" id="a_Node000003" target="_top">
<path fill="#fff" stroke="#666" d="M152-132H0v32h152z"/>
<text x="8" y="-119.2" font-family="Consolas" font-size="11">SectionShell::update</text>
<text x="76" y="-107.2" font-family="Consolas" font-size="11" text-anchor="middle">_incre_status</text>
</a></g><g id="edge2_Node000001_Node000003" class="edge"><title>Node1-&gt;Node3</title><a id="a_edge2_Node000001_Node000003">
<path fill="none" stroke="#63b8ff" d="M177.85-102.44c-8.59-1.16-17.28-2.33-25.75-3.47"/>
<path fill="#63b8ff" stroke="#63b8ff" d="m178.44-105.9 9.44 4.8-10.37 2.14z"/>
</a></g><g id="Node000004" class="node"><title>Node4</title><a xlink:href="../../d6/d85/class_section_shell.html#af4c8b4d8003d387f577c3f48f5a69db5" id="a_Node000004" target="_top">
<path fill="#fff" stroke="#666" d="M152-82H0v32h152z"/>
<text x="8" y="-69.2" font-family="Consolas" font-size="11">SectionShell::update</text>
<text x="76" y="-57.2" font-family="Consolas" font-size="11" text-anchor="middle">_trial_status</text>
</a></g><g id="edge3_Node000001_Node000004" class="edge"><title>Node1-&gt;Node4</title><a id="a_edge3_Node000001_Node000004">
<path fill="none" stroke="#63b8ff" d="M177.85-79.56c-8.59 1.16-17.28 2.33-25.75 3.47"/>
<path fill="#63b8ff" stroke="#63b8ff" d="m177.51-83.04 10.37 2.14-9.44 4.8z"/>
</a></g><g id="Node000005" class="node"><title>Node5</title><a xlink:href="../../d6/d85/class_section_shell.html#a603f25269269c46979fdd1f6a6d35067" id="a_Node000005" target="_top">
<path fill="#fff" stroke="#666" d="M152-32H0V0h152z"/>
<text x="8" y="-19.2" font-family="Consolas" font-size="11">SectionShell::update</text>
<text x="76" y="-7.2" font-family="Consolas" font-size="11" text-anchor="middle">_trial_status</text>
</a></g><g id="edge5_Node000001_Node000005" class="edge"><title>Node1-&gt;Node5</title><a id="a_edge5_Node000001_Node000005">
<path fill="none" stroke="#63b8ff" d="M220.04-70.42C199.63-60.96 174.77-49.9 152-41c-7.8 3.05-16.14 6.06-24.32 8.89"/>
<path fill="#63b8ff" stroke="#63b8ff" d="m218.83-73.72 10.54-1.06-7.58 7.4z"/>
</a></g></g></svg></svg><script type="application/ecmascript"><![CDATA[
document.addEventListener('DOMContentLoaded', (event) => {
  highlightEdges();
  highlightAdjacentNodes();
});
]]></script></svg>