<?xml version="1.0" encoding="UTF-8" standalone="no"?>
<!DOCTYPE svg PUBLIC "-//W3C//DTD SVG 1.1//EN"
 "http://www.w3.org/Graphics/SVG/1.1/DTD/svg11.dtd">
<!-- Generated by graphviz version 8.1.0 (20230707.0739)
 -->
<!-- Title: Section3D::initialize_stiffness Pages: 1 -->
<svg width="370pt" height="230pt"
 viewBox="0.00 0.00 370.00 229.50" xmlns="http://www.w3.org/2000/svg" xmlns:xlink="http://www.w3.org/1999/xlink">

<svg id="main" version="1.1" xmlns="http://www.w3.org/2000/svg" xmlns:xlink="http://www.w3.org/1999/xlink" xml:space="preserve" onload="init(evt)">
<style type="text/css"><![CDATA[
.node, .edge {opacity: 0.7;}
.node.selected, .edge.selected {opacity: 1;}
.edge:hover path { stroke: red; }
.edge:hover polygon { stroke: red; fill: red; }
]]></style>
<script type="application/ecmascript" xlink:href="../../svg.min.js"/>
<svg id="graph" class="graph">
<g id="graph0" class="graph" transform="scale(1 1) rotate(0) translate(4 225.5)">
<title>Section3D::initialize_stiffness</title>
<!-- Node1 -->
<g id="Node000001" class="node">
<title>Node1</title>
<g id="a_Node000001"><a xlink:title=" ">
<polygon fill="#999999" stroke="#666666" points="362,-128.25 220,-128.25 220,-93.25 362,-93.25 362,-128.25"/>
<text text-anchor="start" x="228" y="-113.8" font-family="Consolas" font-size="11.00">Section3D::initialize</text>
<text text-anchor="middle" x="291" y="-100.3" font-family="Consolas" font-size="11.00">_stiffness</text>
</a>
</g>
</g>
<!-- Node2 -->
<g id="Node000002" class="node">
<title>Node2</title>
<g id="a_Node000002"><a xlink:href="../../dd/de8/class_box3_d.html#a7880158990cc5bf7107b1751ab208715" target="_top" xlink:title=" ">
<polygon fill="white" stroke="#666666" points="151,-221.5 33,-221.5 33,-200 151,-200 151,-221.5"/>
<text text-anchor="middle" x="92" y="-207.05" font-family="Consolas" font-size="11.00">Box3D::initialize</text>
</a>
</g>
</g>
<!-- Node1&#45;&gt;Node2 -->
<g id="edge1_Node000001_Node000002" class="edge">
<title>Node1&#45;&gt;Node2</title>
<g id="a_edge1_Node000001_Node000002"><a xlink:title=" ">
<path fill="none" stroke="#63b8ff" d="M263.62,-135.83C243.36,-153.74 213.87,-177 184,-190.75 173.71,-195.48 162.25,-199.13 151.02,-201.92"/>
<polygon fill="#63b8ff" stroke="#63b8ff" points="265.63,-138.83 270.71,-129.53 260.94,-133.63 265.63,-138.83"/>
</a>
</g>
</g>
<!-- Node3 -->
<g id="Node000003" class="node">
<title>Node3</title>
<g id="a_Node000003"><a xlink:href="../../dc/d96/class_cell3_d.html#a4f276d1667071948462a8b4e30841eba" target="_top" xlink:title=" ">
<polygon fill="white" stroke="#666666" points="154,-181.5 30,-181.5 30,-160 154,-160 154,-181.5"/>
<text text-anchor="middle" x="92" y="-167.05" font-family="Consolas" font-size="11.00">Cell3D::initialize</text>
</a>
</g>
</g>
<!-- Node1&#45;&gt;Node3 -->
<g id="edge2_Node000001_Node000003" class="edge">
<title>Node1&#45;&gt;Node3</title>
<g id="a_edge2_Node000001_Node000003"><a xlink:title=" ">
<path fill="none" stroke="#63b8ff" d="M236.55,-132.64C219.88,-139 201.33,-145.6 184,-150.75 173.15,-153.97 161.42,-156.93 150.12,-159.52"/>
<polygon fill="#63b8ff" stroke="#63b8ff" points="237.59,-135.6 245.65,-128.73 235.06,-129.08 237.59,-135.6"/>
</a>
</g>
</g>
<!-- Node4 -->
<g id="Node000004" class="node">
<title>Node4</title>
<g id="a_Node000004"><a xlink:href="../../de/d59/class_circle3_d.html#a68580e3d638cced162acc715d327dc6c" target="_top" xlink:title=" ">
<polygon fill="white" stroke="#666666" points="160,-141.5 24,-141.5 24,-120 160,-120 160,-141.5"/>
<text text-anchor="middle" x="92" y="-127.05" font-family="Consolas" font-size="11.00">Circle3D::initialize</text>
</a>
</g>
</g>
<!-- Node1&#45;&gt;Node4 -->
<g id="edge3_Node000001_Node000004" class="edge">
<title>Node1&#45;&gt;Node4</title>
<g id="a_edge3_Node000001_Node000004"><a xlink:title=" ">
<path fill="none" stroke="#63b8ff" d="M209.15,-118.96C192.91,-120.61 176.01,-122.32 160.29,-123.92"/>
<polygon fill="#63b8ff" stroke="#63b8ff" points="209.12,-122.38 218.71,-117.89 208.41,-115.41 209.12,-122.38"/>
</a>
</g>
</g>
<!-- Node5 -->
<g id="Node000005" class="node">
<title>Node5</title>
<g id="a_Node000005"><a xlink:href="../../d5/dae/class_circular_hollow3_d.html#aa13e6aaa407ec8c9cc9fc89d07619d7b" target="_top" xlink:title=" ">
<polygon fill="white" stroke="#666666" points="184,-101.5 0,-101.5 0,-80 184,-80 184,-101.5"/>
<text text-anchor="middle" x="92" y="-87.05" font-family="Consolas" font-size="11.00">CircularHollow3D::initialize</text>
</a>
</g>
</g>
<!-- Node1&#45;&gt;Node5 -->
<g id="edge4_Node000001_Node000005" class="edge">
<title>Node1&#45;&gt;Node5</title>
<g id="a_edge4_Node000001_Node000005"><a xlink:title=" ">
<path fill="none" stroke="#63b8ff" d="M208.8,-102.51C200.7,-101.68 192.45,-100.85 184.26,-100.01"/>
<polygon fill="#63b8ff" stroke="#63b8ff" points="208.41,-106.09 218.71,-103.61 209.12,-99.12 208.41,-106.09"/>
</a>
</g>
</g>
<!-- Node6 -->
<g id="Node000006" class="node">
<title>Node6</title>
<g id="a_Node000006"><a xlink:href="../../dd/d7f/class_i_section3_d.html#abf23b7284a981d9889c0e83d1e6312f4" target="_top" xlink:title=" ">
<polygon fill="white" stroke="#666666" points="166,-61.5 18,-61.5 18,-40 166,-40 166,-61.5"/>
<text text-anchor="middle" x="92" y="-47.05" font-family="Consolas" font-size="11.00">ISection3D::initialize</text>
</a>
</g>
</g>
<!-- Node1&#45;&gt;Node6 -->
<g id="edge5_Node000001_Node000006" class="edge">
<title>Node1&#45;&gt;Node6</title>
<g id="a_edge5_Node000001_Node000006"><a xlink:title=" ">
<path fill="none" stroke="#63b8ff" d="M236.55,-88.86C219.88,-82.5 201.33,-75.9 184,-70.75 173.15,-67.53 161.42,-64.57 150.12,-61.98"/>
<polygon fill="#63b8ff" stroke="#63b8ff" points="235.06,-92.42 245.65,-92.77 237.59,-85.9 235.06,-92.42"/>
</a>
</g>
</g>
<!-- Node7 -->
<g id="Node000007" class="node">
<title>Node7</title>
<g id="a_Node000007"><a xlink:href="../../d2/dd3/class_rectangle3_d.html#aad284ab71510deec84cb695b9366fb3c" target="_top" xlink:title=" ">
<polygon fill="white" stroke="#666666" points="169,-21.5 15,-21.5 15,0 169,0 169,-21.5"/>
<text text-anchor="middle" x="92" y="-7.05" font-family="Consolas" font-size="11.00">Rectangle3D::initialize</text>
</a>
</g>
</g>
<!-- Node1&#45;&gt;Node7 -->
<g id="edge6_Node000001_Node000007" class="edge">
<title>Node1&#45;&gt;Node7</title>
<g id="a_edge6_Node000001_Node000007"><a xlink:title=" ">
<path fill="none" stroke="#63b8ff" d="M263.62,-85.67C243.36,-67.76 213.87,-44.5 184,-30.75 176.36,-27.23 168.07,-24.32 159.71,-21.91"/>
<polygon fill="#63b8ff" stroke="#63b8ff" points="260.94,-87.87 270.71,-91.97 265.63,-82.67 260.94,-87.87"/>
</a>
</g>
</g>
</g>
</svg>
</svg>

<style type='text/css'>
<![CDATA[
[data-mouse-over-selected='false'] { opacity: 0.7; }
[data-mouse-over-selected='true']  { opacity: 1.0; }
]]>
</style>
<script type="application/ecmascript"><![CDATA[
document.addEventListener('DOMContentLoaded', (event) => {
  highlightEdges();
  highlightAdjacentNodes();
});
]]></script>
</svg>
