<?xml version="1.0" encoding="UTF-8" standalone="no"?>
<!DOCTYPE svg PUBLIC "-//W3C//DTD SVG 1.1//EN"
 "http://www.w3.org/Graphics/SVG/1.1/DTD/svg11.dtd">
<!-- Generated by graphviz version 2.43.0 (0)
 -->
<!-- Title: NonlinearGurson Pages: 1 -->
<!--zoomable 949 -->
<svg id="main" version="1.1" xmlns="http://www.w3.org/2000/svg" xmlns:xlink="http://www.w3.org/1999/xlink" xml:space="preserve" onload="init(evt)">
<style type="text/css"><![CDATA[
.edge:hover path { stroke: red; }
.edge:hover polygon { stroke: red; fill: red; }
]]></style>
<script type="text/javascript"><![CDATA[
var edges = document.getElementsByTagName('g');
if (edges && edges.length) {
  for (var i=0;i<edges.length;i++) {
    if (edges[i].id.substr(0,4)=='edge') {
      edges[i].setAttribute('class','edge');
    }
  }
}
]]></script>
        <defs>
                <circle id="rim" cx="0" cy="0" r="7"/>
                <circle id="rim2" cx="0" cy="0" r="3.5"/>
                <g id="zoomPlus">
                        <use xlink:href="#rim" fill="#404040">
                                <set attributeName="fill" to="#808080" begin="zoomplus.mouseover" end="zoomplus.mouseout"/>
                        </use>
                        <path d="M-4,0h8M0,-4v8" fill="none" stroke="white" stroke-width="1.5" pointer-events="none"/>
                </g>
                <g id="zoomMin">
                        <use xlink:href="#rim" fill="#404040">
                                <set attributeName="fill" to="#808080" begin="zoomminus.mouseover" end="zoomminus.mouseout"/>
                        </use>
                        <path d="M-4,0h8" fill="none" stroke="white" stroke-width="1.5" pointer-events="none"/>
                </g>
                <g id="dirArrow">
                        <path fill="none" stroke="white" stroke-width="1.5" d="M0,-3.0v7 M-2.5,-0.5L0,-3.0L2.5,-0.5"/>
                </g>
               <g id="resetDef">
                       <use xlink:href="#rim2" fill="#404040">
                               <set attributeName="fill" to="#808080" begin="reset.mouseover" end="reset.mouseout"/>
                       </use>
               </g>
        </defs>

<script type="text/javascript">
var viewWidth = 520;
var viewHeight = 949;
var sectionId = 'dynsection-0';
</script>
<script xlink:href="../../svgpan.js"/>
<svg id="graph" class="graph">
<g id="viewport">
<title>NonlinearGurson</title>
<polygon fill="white" stroke="transparent" points="-4,4 -4,-945 515.5,-945 515.5,4 -4,4"/>
<!-- Node1 -->
<g id="node1" class="node">
<title>Node1</title>
<g id="a_node1"><a xlink:title="The NonlinearGurson class.">
<polygon fill="#bfbfbf" stroke="black" points="127,-133.5 127,-289.5 299,-289.5 299,-133.5 127,-133.5"/>
<text text-anchor="middle" x="213" y="-276.7" font-family="Consolas" font-size="11.00">NonlinearGurson</text>
<polyline fill="none" stroke="black" points="127,-269.5 299,-269.5 "/>
<text text-anchor="middle" x="213" y="-256.7" font-family="Consolas" font-size="11.00"> </text>
<polyline fill="none" stroke="black" points="127,-249.5 299,-249.5 "/>
<text text-anchor="start" x="135" y="-236.7" font-family="Consolas" font-size="11.00">+ NonlinearGurson()</text>
<text text-anchor="start" x="135" y="-224.7" font-family="Consolas" font-size="11.00">+ initialize()</text>
<text text-anchor="start" x="135" y="-212.7" font-family="Consolas" font-size="11.00">+ get_parameter()</text>
<text text-anchor="start" x="135" y="-200.7" font-family="Consolas" font-size="11.00">+ update_trial_status()</text>
<text text-anchor="start" x="135" y="-188.7" font-family="Consolas" font-size="11.00">+ clear_status()</text>
<text text-anchor="start" x="135" y="-176.7" font-family="Consolas" font-size="11.00">+ commit_status()</text>
<text text-anchor="start" x="135" y="-164.7" font-family="Consolas" font-size="11.00">+ reset_status()</text>
<text text-anchor="start" x="135" y="-152.7" font-family="Consolas" font-size="11.00">+ record()</text>
<text text-anchor="start" x="135" y="-140.7" font-family="Consolas" font-size="11.00">+ print()</text>
</a>
</g>
</g>
<!-- Node8 -->
<g id="node8" class="node">
<title>Node8</title>
<g id="a_node8"><a xlink:href="../../de/d4b/class_custom_gurson.html" target="_top" xlink:title="The CustomGurson class.">
<polygon fill="white" stroke="black" points="17.5,-0.5 17.5,-96.5 142.5,-96.5 142.5,-0.5 17.5,-0.5"/>
<text text-anchor="middle" x="80" y="-83.7" font-family="Consolas" font-size="11.00">CustomGurson</text>
<polyline fill="none" stroke="black" points="17.5,-76.5 142.5,-76.5 "/>
<text text-anchor="middle" x="80" y="-63.7" font-family="Consolas" font-size="11.00"> </text>
<polyline fill="none" stroke="black" points="17.5,-56.5 142.5,-56.5 "/>
<text text-anchor="start" x="25.5" y="-43.7" font-family="Consolas" font-size="11.00">+ CustomGurson()</text>
<text text-anchor="start" x="25.5" y="-31.7" font-family="Consolas" font-size="11.00">+ initialize()</text>
<text text-anchor="start" x="25.5" y="-19.7" font-family="Consolas" font-size="11.00">+ get_copy()</text>
<text text-anchor="start" x="25.5" y="-7.7" font-family="Consolas" font-size="11.00">+ print()</text>
</a>
</g>
</g>
<!-- Node1&#45;&gt;Node8 -->
<g id="edge7" class="edge">
<title>Node1&#45;&gt;Node8</title>
<path fill="none" stroke="midnightblue" d="M142.73,-125.43C134.63,-115.63 126.61,-105.92 119.15,-96.89"/>
<polygon fill="none" stroke="midnightblue" points="140.16,-127.82 149.23,-133.3 145.56,-123.36 140.16,-127.82"/>
</g>
<!-- Node9 -->
<g id="node9" class="node">
<title>Node9</title>
<g id="a_node9"><a xlink:href="../../dd/d26/class_exp_gurson.html" target="_top" xlink:title="The ExpGurson class.">
<polygon fill="white" stroke="black" points="161,-6.5 161,-90.5 265,-90.5 265,-6.5 161,-6.5"/>
<text text-anchor="middle" x="213" y="-77.7" font-family="Consolas" font-size="11.00">ExpGurson</text>
<polyline fill="none" stroke="black" points="161,-70.5 265,-70.5 "/>
<text text-anchor="middle" x="213" y="-57.7" font-family="Consolas" font-size="11.00"> </text>
<polyline fill="none" stroke="black" points="161,-50.5 265,-50.5 "/>
<text text-anchor="start" x="169" y="-37.7" font-family="Consolas" font-size="11.00">+ ExpGurson()</text>
<text text-anchor="start" x="169" y="-25.7" font-family="Consolas" font-size="11.00">+ get_copy()</text>
<text text-anchor="start" x="169" y="-13.7" font-family="Consolas" font-size="11.00">+ print()</text>
</a>
</g>
</g>
<!-- Node1&#45;&gt;Node9 -->
<g id="edge8" class="edge">
<title>Node1&#45;&gt;Node9</title>
<path fill="none" stroke="midnightblue" d="M213,-122.97C213,-111.76 213,-100.73 213,-90.76"/>
<polygon fill="none" stroke="midnightblue" points="209.5,-123.3 213,-133.3 216.5,-123.3 209.5,-123.3"/>
</g>
<!-- Node10 -->
<g id="node10" class="node">
<title>Node10</title>
<g id="a_node10"><a xlink:href="../../d9/db0/class_table_gurson.html" target="_top" xlink:title="A TableGurson material class.">
<polygon fill="white" stroke="black" points="283,-12.5 283,-84.5 401,-84.5 401,-12.5 283,-12.5"/>
<text text-anchor="middle" x="342" y="-71.7" font-family="Consolas" font-size="11.00">TableGurson</text>
<polyline fill="none" stroke="black" points="283,-64.5 401,-64.5 "/>
<text text-anchor="middle" x="342" y="-51.7" font-family="Consolas" font-size="11.00"> </text>
<polyline fill="none" stroke="black" points="283,-44.5 401,-44.5 "/>
<text text-anchor="start" x="291" y="-31.7" font-family="Consolas" font-size="11.00">+ TableGurson()</text>
<text text-anchor="start" x="291" y="-19.7" font-family="Consolas" font-size="11.00">+ get_copy()</text>
</a>
</g>
</g>
<!-- Node1&#45;&gt;Node10 -->
<g id="edge9" class="edge">
<title>Node1&#45;&gt;Node10</title>
<path fill="none" stroke="midnightblue" d="M281.22,-125.35C292.67,-111.06 303.96,-96.97 313.65,-84.88"/>
<polygon fill="none" stroke="midnightblue" points="278.38,-123.31 274.86,-133.3 283.84,-127.69 278.38,-123.31"/>
</g>
<!-- Node2 -->
<g id="node2" class="node">
<title>Node2</title>
<g id="a_node2"><a xlink:href="../../d1/df4/struct_data_nonlinear_gurson.html" target="_top" xlink:title=" ">
<polygon fill="white" stroke="black" points="67.5,-326.5 67.5,-458.5 212.5,-458.5 212.5,-326.5 67.5,-326.5"/>
<text text-anchor="middle" x="140" y="-445.7" font-family="Consolas" font-size="11.00">DataNonlinearGurson</text>
<polyline fill="none" stroke="black" points="67.5,-438.5 212.5,-438.5 "/>
<text text-anchor="start" x="75.5" y="-425.7" font-family="Consolas" font-size="11.00">+ elastic_modulus</text>
<text text-anchor="start" x="75.5" y="-413.7" font-family="Consolas" font-size="11.00">+ poissons_ratio</text>
<text text-anchor="start" x="75.5" y="-401.7" font-family="Consolas" font-size="11.00">+ q1</text>
<text text-anchor="start" x="75.5" y="-389.7" font-family="Consolas" font-size="11.00">+ q2</text>
<text text-anchor="start" x="75.5" y="-377.7" font-family="Consolas" font-size="11.00">+ fn</text>
<text text-anchor="start" x="75.5" y="-365.7" font-family="Consolas" font-size="11.00">+ sn</text>
<text text-anchor="start" x="75.5" y="-353.7" font-family="Consolas" font-size="11.00">+ en</text>
<polyline fill="none" stroke="black" points="67.5,-346.5 212.5,-346.5 "/>
<text text-anchor="middle" x="140" y="-333.7" font-family="Consolas" font-size="11.00"> </text>
</a>
</g>
</g>
<!-- Node2&#45;&gt;Node1 -->
<g id="edge1" class="edge">
<title>Node2&#45;&gt;Node1</title>
<path fill="none" stroke="darkgreen" d="M170.36,-317.06C174.04,-308.04 177.8,-298.81 181.5,-289.75"/>
<polygon fill="none" stroke="darkgreen" points="167.1,-315.79 166.56,-326.37 173.58,-318.43 167.1,-315.79"/>
</g>
<!-- Node3 -->
<g id="node3" class="node">
<title>Node3</title>
<g id="a_node3"><a xlink:href="../../d7/d42/class_material3_d.html" target="_top" xlink:title="The Material3D class.">
<polygon fill="white" stroke="black" points="230.5,-356.5 230.5,-428.5 341.5,-428.5 341.5,-356.5 230.5,-356.5"/>
<text text-anchor="middle" x="286" y="-415.7" font-family="Consolas" font-size="11.00">Material3D</text>
<polyline fill="none" stroke="black" points="230.5,-408.5 341.5,-408.5 "/>
<text text-anchor="middle" x="286" y="-395.7" font-family="Consolas" font-size="11.00"> </text>
<polyline fill="none" stroke="black" points="230.5,-388.5 341.5,-388.5 "/>
<text text-anchor="start" x="238.5" y="-375.7" font-family="Consolas" font-size="11.00">+ Material3D()</text>
<text text-anchor="start" x="238.5" y="-363.7" font-family="Consolas" font-size="11.00">+ record()</text>
</a>
</g>
</g>
<!-- Node3&#45;&gt;Node1 -->
<g id="edge2" class="edge">
<title>Node3&#45;&gt;Node1</title>
<path fill="none" stroke="midnightblue" d="M267.79,-346.84C260.72,-329.52 252.42,-309.17 244.45,-289.62"/>
<polygon fill="none" stroke="midnightblue" points="264.56,-348.2 271.58,-356.14 271.04,-345.55 264.56,-348.2"/>
</g>
<!-- Node4 -->
<g id="node4" class="node">
<title>Node4</title>
<g id="a_node4"><a xlink:href="../../dc/dee/class_material.html" target="_top" xlink:title="A Material abstract base class.">
<polygon fill="white" stroke="black" points="207,-495.5 207,-675.5 365,-675.5 365,-495.5 207,-495.5"/>
<text text-anchor="middle" x="286" y="-662.7" font-family="Consolas" font-size="11.00">Material</text>
<polyline fill="none" stroke="black" points="207,-655.5 365,-655.5 "/>
<text text-anchor="middle" x="286" y="-642.7" font-family="Consolas" font-size="11.00"> </text>
<polyline fill="none" stroke="black" points="207,-635.5 365,-635.5 "/>
<text text-anchor="start" x="215" y="-622.7" font-family="Consolas" font-size="11.00">+ Material()</text>
<text text-anchor="start" x="215" y="-610.7" font-family="Consolas" font-size="11.00">+ Material()</text>
<text text-anchor="start" x="215" y="-598.7" font-family="Consolas" font-size="11.00">+ Material()</text>
<text text-anchor="start" x="215" y="-586.7" font-family="Consolas" font-size="11.00">+ operator=()</text>
<text text-anchor="start" x="215" y="-574.7" font-family="Consolas" font-size="11.00">+ operator=()</text>
<text text-anchor="start" x="215" y="-562.7" font-family="Consolas" font-size="11.00">+ ~Material()</text>
<text text-anchor="start" x="215" y="-550.7" font-family="Consolas" font-size="11.00">+ get_density()</text>
<text text-anchor="start" x="215" y="-538.7" font-family="Consolas" font-size="11.00">+ get_material_type()</text>
<text text-anchor="start" x="215" y="-526.7" font-family="Consolas" font-size="11.00">+ get_plane_type()</text>
<text text-anchor="start" x="215" y="-514.7" font-family="Consolas" font-size="11.00">+ initialize_base()</text>
<text text-anchor="start" x="215" y="-502.7" font-family="Consolas" font-size="11.00">and 72 more...</text>
</a>
</g>
</g>
<!-- Node4&#45;&gt;Node3 -->
<g id="edge3" class="edge">
<title>Node4&#45;&gt;Node3</title>
<path fill="none" stroke="midnightblue" d="M286,-485.4C286,-464.98 286,-444.78 286,-428.54"/>
<polygon fill="none" stroke="midnightblue" points="282.5,-485.43 286,-495.43 289.5,-485.43 282.5,-485.43"/>
</g>
<!-- Node5 -->
<g id="node5" class="node">
<title>Node5</title>
<g id="a_node5"><a xlink:href="../../de/de9/struct_data_material.html" target="_top" xlink:title=" ">
<polygon fill="white" stroke="black" points="0,-736.5 0,-916.5 172,-916.5 172,-736.5 0,-736.5"/>
<text text-anchor="middle" x="86" y="-903.7" font-family="Consolas" font-size="11.00">DataMaterial</text>
<polyline fill="none" stroke="black" points="0,-896.5 172,-896.5 "/>
<text text-anchor="start" x="8" y="-883.7" font-family="Consolas" font-size="11.00">+ density</text>
<text text-anchor="start" x="8" y="-871.7" font-family="Consolas" font-size="11.00">+ material_type</text>
<text text-anchor="start" x="8" y="-859.7" font-family="Consolas" font-size="11.00">+ plane_type</text>
<text text-anchor="start" x="8" y="-847.7" font-family="Consolas" font-size="11.00">+ tolerance</text>
<text text-anchor="start" x="8" y="-835.7" font-family="Consolas" font-size="11.00">+ characteristic_length</text>
<text text-anchor="start" x="8" y="-823.7" font-family="Consolas" font-size="11.00">+ current_strain</text>
<text text-anchor="start" x="8" y="-811.7" font-family="Consolas" font-size="11.00">+ current_strain_rate</text>
<text text-anchor="start" x="8" y="-799.7" font-family="Consolas" font-size="11.00">+ current_strain_acc</text>
<text text-anchor="start" x="8" y="-787.7" font-family="Consolas" font-size="11.00">+ current_stress</text>
<text text-anchor="start" x="8" y="-775.7" font-family="Consolas" font-size="11.00">+ trial_strain</text>
<text text-anchor="start" x="8" y="-763.7" font-family="Consolas" font-size="11.00">and 19 more...</text>
<polyline fill="none" stroke="black" points="0,-756.5 172,-756.5 "/>
<text text-anchor="middle" x="86" y="-743.7" font-family="Consolas" font-size="11.00"> </text>
</a>
</g>
</g>
<!-- Node5&#45;&gt;Node4 -->
<g id="edge4" class="edge">
<title>Node5&#45;&gt;Node4</title>
<path fill="none" stroke="darkgreen" d="M167.39,-728.24C181.92,-710.87 197,-692.85 211.33,-675.73"/>
<polygon fill="none" stroke="darkgreen" points="164.49,-726.25 160.76,-736.17 169.86,-730.74 164.49,-726.25"/>
</g>
<!-- Node6 -->
<g id="node6" class="node">
<title>Node6</title>
<g id="a_node6"><a xlink:href="../../da/de4/struct_data_couple_material.html" target="_top" xlink:title=" ">
<polygon fill="white" stroke="black" points="190,-748.5 190,-904.5 382,-904.5 382,-748.5 190,-748.5"/>
<text text-anchor="middle" x="286" y="-891.7" font-family="Consolas" font-size="11.00">DataCoupleMaterial</text>
<polyline fill="none" stroke="black" points="190,-884.5 382,-884.5 "/>
<text text-anchor="start" x="198" y="-871.7" font-family="Consolas" font-size="11.00">+ current_curvature</text>
<text text-anchor="start" x="198" y="-859.7" font-family="Consolas" font-size="11.00">+ current_couple_stress</text>
<text text-anchor="start" x="198" y="-847.7" font-family="Consolas" font-size="11.00">+ trial_curvature</text>
<text text-anchor="start" x="198" y="-835.7" font-family="Consolas" font-size="11.00">+ trial_couple_stress</text>
<text text-anchor="start" x="198" y="-823.7" font-family="Consolas" font-size="11.00">+ incre_curvature</text>
<text text-anchor="start" x="198" y="-811.7" font-family="Consolas" font-size="11.00">+ incre_couple_stress</text>
<text text-anchor="start" x="198" y="-799.7" font-family="Consolas" font-size="11.00">+ initial_couple_stiffness</text>
<text text-anchor="start" x="198" y="-787.7" font-family="Consolas" font-size="11.00">+ current_couple_stiffness</text>
<text text-anchor="start" x="198" y="-775.7" font-family="Consolas" font-size="11.00">+ trial_couple_stiffness</text>
<polyline fill="none" stroke="black" points="190,-768.5 382,-768.5 "/>
<text text-anchor="middle" x="286" y="-755.7" font-family="Consolas" font-size="11.00"> </text>
</a>
</g>
</g>
<!-- Node6&#45;&gt;Node4 -->
<g id="edge5" class="edge">
<title>Node6&#45;&gt;Node4</title>
<path fill="none" stroke="darkgreen" d="M286,-738.04C286,-717.68 286,-695.98 286,-675.55"/>
<polygon fill="none" stroke="darkgreen" points="282.5,-738.23 286,-748.23 289.5,-738.23 282.5,-738.23"/>
</g>
<!-- Node7 -->
<g id="node7" class="node">
<title>Node7</title>
<g id="a_node7"><a xlink:href="../../d0/d57/class_tag.html" target="_top" xlink:title="A base Tag class.">
<polygon fill="white" stroke="black" points="400.5,-712.5 400.5,-940.5 511.5,-940.5 511.5,-712.5 400.5,-712.5"/>
<text text-anchor="middle" x="456" y="-927.7" font-family="Consolas" font-size="11.00">Tag</text>
<polyline fill="none" stroke="black" points="400.5,-920.5 511.5,-920.5 "/>
<text text-anchor="middle" x="456" y="-907.7" font-family="Consolas" font-size="11.00"> </text>
<polyline fill="none" stroke="black" points="400.5,-900.5 511.5,-900.5 "/>
<text text-anchor="start" x="408.5" y="-887.7" font-family="Consolas" font-size="11.00">+ Tag()</text>
<text text-anchor="start" x="408.5" y="-875.7" font-family="Consolas" font-size="11.00">+ Tag()</text>
<text text-anchor="start" x="408.5" y="-863.7" font-family="Consolas" font-size="11.00">+ Tag()</text>
<text text-anchor="start" x="408.5" y="-851.7" font-family="Consolas" font-size="11.00">+ operator=()</text>
<text text-anchor="start" x="408.5" y="-839.7" font-family="Consolas" font-size="11.00">+ operator=()</text>
<text text-anchor="start" x="408.5" y="-827.7" font-family="Consolas" font-size="11.00">+ ~Tag()</text>
<text text-anchor="start" x="408.5" y="-815.7" font-family="Consolas" font-size="11.00">+ set_tag()</text>
<text text-anchor="start" x="408.5" y="-803.7" font-family="Consolas" font-size="11.00">+ get_tag()</text>
<text text-anchor="start" x="408.5" y="-791.7" font-family="Consolas" font-size="11.00">+ enable()</text>
<text text-anchor="start" x="408.5" y="-779.7" font-family="Consolas" font-size="11.00">+ disable()</text>
<text text-anchor="start" x="408.5" y="-767.7" font-family="Consolas" font-size="11.00">+ guard()</text>
<text text-anchor="start" x="408.5" y="-755.7" font-family="Consolas" font-size="11.00">+ unguard()</text>
<text text-anchor="start" x="408.5" y="-743.7" font-family="Consolas" font-size="11.00">+ is_active()</text>
<text text-anchor="start" x="408.5" y="-731.7" font-family="Consolas" font-size="11.00">+ is_guarded()</text>
<text text-anchor="start" x="408.5" y="-719.7" font-family="Consolas" font-size="11.00">+ print()</text>
</a>
</g>
</g>
<!-- Node7&#45;&gt;Node4 -->
<g id="edge6" class="edge">
<title>Node7&#45;&gt;Node4</title>
<path fill="none" stroke="midnightblue" d="M394.87,-717.64C393.58,-715.74 392.29,-713.85 391,-712 382.64,-699.99 373.39,-687.74 363.95,-675.82"/>
<polygon fill="none" stroke="midnightblue" points="392.04,-719.71 400.47,-726.12 397.88,-715.85 392.04,-719.71"/>
</g>
</g>
</svg>
        <g id="navigator" transform="translate(0 0)" fill="#404254">
                <rect fill="#f2f5e9" fill-opacity="0.5" stroke="#606060" stroke-width=".5" x="0" y="0" width="60" height="60"/>
                <use id="zoomplus" xlink:href="#zoomPlus" x="17" y="9" onmousedown="handleZoom(evt,'in')"/>
                <use id="zoomminus" xlink:href="#zoomMin" x="42" y="9" onmousedown="handleZoom(evt,'out')"/>
                <use id="reset" xlink:href="#resetDef" x="30" y="36" onmousedown="handleReset()"/>
                <g id="arrowUp" xlink:href="#dirArrow" transform="translate(30 24)" onmousedown="handlePan(0,-1)">
                  <use xlink:href="#rim" fill="#404040">
                        <set attributeName="fill" to="#808080" begin="arrowUp.mouseover" end="arrowUp.mouseout"/>
                  </use>
                  <path fill="none" stroke="white" stroke-width="1.5" d="M0,-3.0v7 M-2.5,-0.5L0,-3.0L2.5,-0.5"/>
                </g>
                <g id="arrowRight" xlink:href="#dirArrow" transform="rotate(90) translate(36 -43)" onmousedown="handlePan(1,0)">
                  <use xlink:href="#rim" fill="#404040">
                        <set attributeName="fill" to="#808080" begin="arrowRight.mouseover" end="arrowRight.mouseout"/>
                  </use>
                  <path fill="none" stroke="white" stroke-width="1.5" d="M0,-3.0v7 M-2.5,-0.5L0,-3.0L2.5,-0.5"/>
                </g>
                <g id="arrowDown" xlink:href="#dirArrow" transform="rotate(180) translate(-30 -48)" onmousedown="handlePan(0,1)">
                  <use xlink:href="#rim" fill="#404040">
                        <set attributeName="fill" to="#808080" begin="arrowDown.mouseover" end="arrowDown.mouseout"/>
                  </use>
                  <path fill="none" stroke="white" stroke-width="1.5" d="M0,-3.0v7 M-2.5,-0.5L0,-3.0L2.5,-0.5"/>
                </g>
                <g id="arrowLeft" xlink:href="#dirArrow" transform="rotate(270) translate(-36 17)" onmousedown="handlePan(-1,0)">
                  <use xlink:href="#rim" fill="#404040">
                        <set attributeName="fill" to="#808080" begin="arrowLeft.mouseover" end="arrowLeft.mouseout"/>
                  </use>
                  <path fill="none" stroke="white" stroke-width="1.5" d="M0,-3.0v7 M-2.5,-0.5L0,-3.0L2.5,-0.5"/>
                </g>
        </g>
        <svg viewBox="0 0 15 15" width="100%" height="30px" preserveAspectRatio="xMaxYMin meet">
         <g id="arrow_out" transform="scale(0.3 0.3)">
          <a xlink:href="class_nonlinear_gurson__inherit__graph_org.svg" target="_base">
           <rect id="button" ry="5" rx="5" y="6" x="6" height="38" width="38"
                fill="#f2f5e9" fill-opacity="0.5" stroke="#606060" stroke-width="1.0"/>
           <path id="arrow"
             d="M 11.500037,31.436501 C 11.940474,20.09759 22.043105,11.32322 32.158766,21.979434 L 37.068811,17.246167 C 37.068811,17.246167 37.088388,32 37.088388,32 L 22.160133,31.978069 C 22.160133,31.978069 26.997745,27.140456 26.997745,27.140456 C 18.528582,18.264221 13.291696,25.230495 11.500037,31.436501 z"
             style="fill:#404040;"/>
          </a>
         </g>
        </svg>
</svg>
