<?xml version="1.0" encoding="UTF-8" standalone="no"?>
<!DOCTYPE svg PUBLIC "-//W3C//DTD SVG 1.1//EN"
 "http://www.w3.org/Graphics/SVG/1.1/DTD/svg11.dtd">
<!-- Generated by graphviz version 5.0.0 (0)
 -->
<!-- Title: GroupSumRecorder::initialize Pages: 1 -->
<svg width="637pt" height="66pt"
 viewBox="0.00 0.00 637.00 66.00" xmlns="http://www.w3.org/2000/svg" xmlns:xlink="http://www.w3.org/1999/xlink">
<g id="graph0" class="graph" transform="scale(1 1) rotate(0) translate(4 62)">
<title>GroupSumRecorder::initialize</title>
<!-- Node1 -->
<g id="node1" class="node">
<title>Node1</title>
<g id="a_node1"><a xlink:title=" ">
<polygon fill="#999999" stroke="#666666" points="206,-39 0,-39 0,-19 206,-19 206,-39"/>
<text text-anchor="middle" x="103" y="-26.2" font-family="Consolas" font-size="11.00">GroupSumRecorder::initialize</text>
</a>
</g>
</g>
<!-- Node2 -->
<g id="node2" class="node">
<title>Node2</title>
<g id="a_node2"><a xlink:href="../../d4/d62/class_sum_recorder.html#a224cbbac3ee81208571b6823a6a0b182" target="_top" xlink:title=" ">
<polygon fill="white" stroke="#666666" points="414,-39 242,-39 242,-19 414,-19 414,-39"/>
<text text-anchor="middle" x="328" y="-26.2" font-family="Consolas" font-size="11.00">SumRecorder::initialize</text>
</a>
</g>
</g>
<!-- Node1&#45;&gt;Node2 -->
<g id="edge1" class="edge">
<title>Node1&#45;&gt;Node2</title>
<path fill="none" stroke="#63b8ff" d="M206.04,-29C214.52,-29 223.07,-29 231.5,-29"/>
<polygon fill="#63b8ff" stroke="#63b8ff" points="231.7,-32.5 241.7,-29 231.7,-25.5 231.7,-32.5"/>
</g>
<!-- Node3 -->
<g id="node3" class="node">
<title>Node3</title>
<g id="a_node3"><a xlink:href="../../d3/d1a/class_recorder.html#ac4a4102be6d05a42ff43190b282166ba" target="_top" xlink:title=" ">
<polygon fill="white" stroke="#666666" points="629,-58 450,-58 450,-38 629,-38 629,-58"/>
<text text-anchor="middle" x="539.5" y="-45.2" font-family="Consolas" font-size="11.00">Recorder::get_object_tag</text>
</a>
</g>
</g>
<!-- Node2&#45;&gt;Node3 -->
<g id="edge2" class="edge">
<title>Node2&#45;&gt;Node3</title>
<path fill="none" stroke="#63b8ff" d="M414.21,-36.73C422.68,-37.5 431.32,-38.28 439.91,-39.06"/>
<polygon fill="#63b8ff" stroke="#63b8ff" points="439.68,-42.55 449.96,-39.97 440.31,-35.58 439.68,-42.55"/>
</g>
<!-- Node4 -->
<g id="node4" class="node">
<title>Node4</title>
<g id="a_node4"><a xlink:href="../../d0/d57/class_tag.html#ac0f87379856fb9f3e6f11f4d9971d9f8" target="_top" xlink:title=" ">
<polygon fill="white" stroke="#666666" points="588.5,-20 490.5,-20 490.5,0 588.5,0 588.5,-20"/>
<text text-anchor="middle" x="539.5" y="-7.2" font-family="Consolas" font-size="11.00">Tag::get_tag</text>
</a>
</g>
</g>
<!-- Node2&#45;&gt;Node4 -->
<g id="edge3" class="edge">
<title>Node2&#45;&gt;Node4</title>
<path fill="none" stroke="#63b8ff" d="M414.21,-21.27C436.4,-19.26 459.81,-17.14 480.25,-15.28"/>
<polygon fill="#63b8ff" stroke="#63b8ff" points="480.69,-18.76 490.34,-14.37 480.06,-11.79 480.69,-18.76"/>
</g>
</g>
</svg>
