<svg xmlns="http://www.w3.org/2000/svg" xmlns:xlink="http://www.w3.org/1999/xlink" width="752" height="388pt" viewBox="0 0 564 388"><g class="graph" transform="translate(4 384)"><title>Material/Material1D/Hysteresis/Gap01.cpp</title><g class="node"><title>Node1</title><a>
<path fill="#999" stroke="#666" d="M446.5-380h-158v32h158z"/>
<text x="296.5" y="-367.2" font-family="Consolas" font-size="11">Material/Material1D</text>
<text x="367.5" y="-355.2" font-family="Consolas" font-size="11" text-anchor="middle">/Hysteresis/Gap01.cpp</text>
</a></g><g class="node"><title>Node2</title><a xlink:href="../../d5/d3c/_gap01_8h.html" target="_top">
<path fill="#fff" stroke="#666" d="M341.5-312h-64v20h64z"/>
<text x="309.5" y="-299.2" font-family="Consolas" font-size="11" text-anchor="middle">Gap01.h</text>
</a></g><g class="edge"><title>Node1-&gt;Node2</title><a>
<path fill="none" stroke="#63b8ff" d="M352.86-347.86c-8.32 8.61-18.76 19.41-27.31 28.25"/>
<path fill="#63b8ff" stroke="#63b8ff" d="m327.82-316.91-9.47 4.76 4.43-9.63z"/>
</a></g><g class="node"><title>Node14</title><a xlink:href="../../d5/d47/utility_8h.html" target="_top">
<path fill="#fff" stroke="#666" d="M503-312H372v20h131z"/>
<text x="437.5" y="-299.2" font-family="Consolas" font-size="11" text-anchor="middle">Toolbox/utility.h</text>
</a></g><g class="edge"><title>Node1-&gt;Node14</title><a>
<path fill="none" stroke="#63b8ff" d="M385.16-347.86c10.36 8.88 23.42 20.07 33.91 29.06"/>
<path fill="#63b8ff" stroke="#63b8ff" d="m421.51-321.32 5.31 9.17-9.87-3.85z"/>
</a></g><g class="node"><title>Node3</title><a xlink:href="../../d4/d7c/_material1_d_8h.html" target="_top">
<path fill="#fff" stroke="#666" d="M358-256H213v32h145z"/>
<text x="221" y="-243.2" font-family="Consolas" font-size="11">Material/Material1D</text>
<text x="285.5" y="-231.2" font-family="Consolas" font-size="11" text-anchor="middle">/Material1D.h</text>
</a></g><g class="edge"><title>Node2-&gt;Node3</title><a>
<path fill="none" stroke="#63b8ff" d="M305.85-291.89c-2.77 6.94-6.72 16.82-10.41 26.04"/>
<path fill="#63b8ff" stroke="#63b8ff" d="m298.57-264.26-6.96 7.98.46-10.58z"/>
</a></g><g class="node"><title>Node4</title><a xlink:href="../../d3/d09/_material_8h.html" target="_top">
<path fill="#fff" stroke="#666" d="M358-188H213v20h145z"/>
<text x="285.5" y="-175.2" font-family="Consolas" font-size="11" text-anchor="middle">Material/Material.h</text>
</a></g><g class="edge"><title>Node3-&gt;Node4</title><a>
<path fill="none" stroke="#63b8ff" d="M285.5-223.86v25.49"/>
<path fill="#63b8ff" stroke="#63b8ff" d="m289-198.15-3.5 10-3.5-10z"/>
</a></g><g class="node"><title>Node5</title><a xlink:href="../../d2/d4a/_tag_8h.html" target="_top">
<path fill="#fff" stroke="#666" d="M290.5-132h-98v20h98z"/>
<text x="241.5" y="-119.2" font-family="Consolas" font-size="11" text-anchor="middle">Domain/Tag.h</text>
</a></g><g class="edge"><title>Node4-&gt;Node5</title><a>
<path fill="none" stroke="#63b8ff" d="M277.84-167.59c-6.12 7.51-14.87 18.24-22.24 27.29"/>
<path fill="#63b8ff" stroke="#63b8ff" d="m258.11-137.84-9.03 5.54 3.6-9.96z"/>
</a></g><g class="node"><title>Node13</title><a>
<path fill="#e0e0e0" stroke="#999" d="M358.5-132h-50v20h50z"/>
<text x="333.5" y="-119.2" font-family="Consolas" font-size="11" text-anchor="middle">array</text>
</a></g><g class="edge"><title>Node4-&gt;Node13</title><a>
<path fill="none" stroke="#63b8ff" d="M293.86-167.59c6.75 7.58 16.41 18.46 24.51 27.57"/>
<path fill="#63b8ff" stroke="#63b8ff" d="m321.21-142.1 4.02 9.8-9.25-5.15z"/>
</a></g><g class="node"><title>Node6</title><a xlink:href="../../d8/d8f/suan_pan_8h.html" target="_top">
<path fill="#fff" stroke="#666" d="M352-76h-77v20h77z"/>
<text x="313.5" y="-63.2" font-family="Consolas" font-size="11" text-anchor="middle">suanPan.h</text>
</a></g><g class="edge"><title>Node5-&gt;Node6</title><a>
<path fill="none" stroke="#63b8ff" d="M253.71-111.84c10.83 8.12 26.84 20.13 39.57 29.68"/>
<path fill="#63b8ff" stroke="#63b8ff" d="m295.57-84.83 5.9 8.8-10.1-3.2z"/>
</a></g><g class="node"><title>Node7</title><a>
<path fill="#e0e0e0" stroke="#999" d="M71-20H0V0h71z"/>
<text x="35.5" y="-7.2" font-family="Consolas" font-size="11" text-anchor="middle">iostream</text>
</a></g><g class="edge"><title>Node6-&gt;Node7</title><a>
<path fill="none" stroke="#63b8ff" d="M274.96-57.73c-44.4 8.4-119.84 22.78-193.95 37.45"/>
<path fill="#63b8ff" stroke="#63b8ff" d="m81.52-16.82-10.49-1.49 9.13-5.37z"/>
</a></g><g class="node"><title>Node8</title><a>
<path fill="#e0e0e0" stroke="#999" d="M200-20H89V0h111z"/>
<text x="144.5" y="-7.2" font-family="Consolas" font-size="11" text-anchor="middle">armadillo/arma</text>
</a></g><g class="edge"><title>Node6-&gt;Node8</title><a>
<path fill="none" stroke="#63b8ff" d="M285.21-55.96c-28.15 8.99-71.53 22.85-102.68 32.81"/>
<path fill="#63b8ff" stroke="#63b8ff" d="m183.47-19.78-10.59-.29 8.46-6.38z"/>
</a></g><g class="node"><title>Node9</title><a>
<path fill="#e0e0e0" stroke="#999" d="M302.5-20h-84V0h84z"/>
<text x="260.5" y="-7.2" font-family="Consolas" font-size="11" text-anchor="middle">filesystem</text>
</a></g><g class="edge"><title>Node6-&gt;Node9</title><a>
<path fill="none" stroke="#63b8ff" d="M304.27-55.59c-7.6 7.74-18.56 18.9-27.61 28.12"/>
<path fill="#63b8ff" stroke="#63b8ff" d="m279.13-24.98-9.5 4.68 4.5-9.59z"/>
</a></g><g class="node"><title>Node10</title><a>
<path fill="#e0e0e0" stroke="#999" d="M412-20h-91V0h91z"/>
<text x="366.5" y="-7.2" font-family="Consolas" font-size="11" text-anchor="middle">fmt/color.h</text>
</a></g><g class="edge"><title>Node6-&gt;Node10</title><a>
<path fill="none" stroke="#63b8ff" d="M322.73-55.59c7.6 7.74 18.56 18.9 27.61 28.12"/>
<path fill="#63b8ff" stroke="#63b8ff" d="m352.87-29.89 4.5 9.59-9.5-4.68z"/>
</a></g><g class="node"><title>Node11</title><a>
<path fill="#e0e0e0" stroke="#999" d="M480.5-20h-50V0h50z"/>
<text x="455.5" y="-7.2" font-family="Consolas" font-size="11" text-anchor="middle">mutex</text>
</a></g><g class="edge"><title>Node6-&gt;Node11</title><a>
<path fill="none" stroke="#63b8ff" d="M337.27-55.96c23.24 8.84 58.84 22.38 84.91 32.29"/>
<path fill="#63b8ff" stroke="#63b8ff" d="m423.55-26.89 8.1 6.82-10.59-.28z"/>
</a></g><g class="node"><title>Node12</title><a>
<path fill="#e0e0e0" stroke="#999" d="M556-20h-57V0h57z"/>
<text x="527.5" y="-7.2" font-family="Consolas" font-size="11" text-anchor="middle">memory</text>
</a></g><g class="edge"><title>Node6-&gt;Node12</title><a>
<path fill="none" stroke="#63b8ff" d="m349.32-55.96 139.61 35.23"/>
<path fill="#63b8ff" stroke="#63b8ff" d="m489.93-24.09 8.84 5.84-10.55.95z"/>
</a></g><g class="edge"><title>Node14-&gt;Node6</title><a>
<path fill="none" stroke="#63b8ff" d="M429.57-291.96c-7.23 8.67-17.73 22.42-24.07 35.96-28.08 59.94-2.45 88.17-38 144-7.58 11.9-19.33 22.23-29.93 29.98"/>
<path fill="#63b8ff" stroke="#63b8ff" d="m339.26-78.93-10.22 2.79 6.25-8.56z"/>
</a></g><g class="node"><title>Node15</title><a>
<path fill="#e0e0e0" stroke="#999" d="M486-250h-71v20h71z"/>
<text x="450.5" y="-237.2" font-family="Consolas" font-size="11" text-anchor="middle">concepts</text>
</a></g><g class="edge"><title>Node14-&gt;Node15</title><a>
<path fill="none" stroke="#63b8ff" d="M439.47-291.89c1.82 8.37 4.56 21.05 6.86 31.66"/>
<path fill="#63b8ff" stroke="#63b8ff" d="m449.81-260.71-1.3 10.51-5.54-9.03z"/>
</a></g><g class="node"><title>Node16</title><a>
<path fill="#e0e0e0" stroke="#999" d="M541-250h-37v20h37z"/>
<text x="522.5" y="-237.2" font-family="Consolas" font-size="11" text-anchor="middle">set</text>
</a></g><g class="edge"><title>Node14-&gt;Node16</title><a>
<path fill="none" stroke="#63b8ff" d="M450.41-291.89c13.56 9.57 35.09 24.77 51.1 36.07"/>
<path fill="#63b8ff" stroke="#63b8ff" d="m503.6-258.63 6.15 8.63-10.19-2.91z"/>
</a></g></g></svg>