<?xml version="1.0" encoding="UTF-8" standalone="no"?>
<!DOCTYPE svg PUBLIC "-//W3C//DTD SVG 1.1//EN"
 "http://www.w3.org/Graphics/SVG/1.1/DTD/svg11.dtd">
<!-- Generated by graphviz version 5.0.0 (0)
 -->
<!-- Title: Yeoh Pages: 1 -->
<!--zoomable 910 -->
<svg id="main" version="1.1" xmlns="http://www.w3.org/2000/svg" xmlns:xlink="http://www.w3.org/1999/xlink" xml:space="preserve" onload="init(evt)">
<style type="text/css"><![CDATA[
.edge:hover path { stroke: red; }
.edge:hover polygon { stroke: red; fill: red; }
]]></style>
<script type="text/javascript"><![CDATA[
var edges = document.getElementsByTagName('g');
if (edges && edges.length) {
  for (var i=0;i<edges.length;i++) {
    if (edges[i].id.substr(0,4)=='edge') {
      edges[i].setAttribute('class','edge');
    }
  }
}
]]></script>
        <defs>
                <circle id="rim" cx="0" cy="0" r="7"/>
                <circle id="rim2" cx="0" cy="0" r="3.5"/>
                <g id="zoomPlus">
                        <use xlink:href="#rim" fill="#404040">
                                <set attributeName="fill" to="#808080" begin="zoomplus.mouseover" end="zoomplus.mouseout"/>
                        </use>
                        <path d="M-4,0h8M0,-4v8" fill="none" stroke="white" stroke-width="1.5" pointer-events="none"/>
                </g>
                <g id="zoomMin">
                        <use xlink:href="#rim" fill="#404040">
                                <set attributeName="fill" to="#808080" begin="zoomminus.mouseover" end="zoomminus.mouseout"/>
                        </use>
                        <path d="M-4,0h8" fill="none" stroke="white" stroke-width="1.5" pointer-events="none"/>
                </g>
                <g id="dirArrow">
                        <path fill="none" stroke="white" stroke-width="1.5" d="M0,-3.0v7 M-2.5,-0.5L0,-3.0L2.5,-0.5"/>
                </g>
               <g id="resetDef">
                       <use xlink:href="#rim2" fill="#404040">
                               <set attributeName="fill" to="#808080" begin="reset.mouseover" end="reset.mouseout"/>
                       </use>
               </g>
        </defs>

<script type="text/javascript">
var viewWidth = 1131;
var viewHeight = 910;
var sectionId = 'dynsection-1';
</script>
<script xlink:href="../../svgpan.js"/>
<svg id="graph" class="graph">
<g id="viewport">
<title>Yeoh</title>
<!-- Node1 -->
<g id="node1" class="node">
<title>Node1</title>
<g id="a_node1"><a xlink:title="The Yeoh class.">
<polygon fill="#999999" stroke="#666666" points="335.64,-128 163.64,-128 163.64,0 335.64,0 335.64,-128"/>
<text text-anchor="middle" x="249.64" y="-115.2" font-family="Consolas" font-size="11.00">{Yeoh</text>
<text text-anchor="start" x="171.64" y="-103.2" font-family="Consolas" font-size="11.00">||+ Yeoh()</text>
<text text-anchor="start" x="171.64" y="-91.2" font-family="Consolas" font-size="11.00">+ initialize()</text>
<text text-anchor="start" x="171.64" y="-79.2" font-family="Consolas" font-size="11.00">+ get_copy()</text>
<text text-anchor="start" x="171.64" y="-67.2" font-family="Consolas" font-size="11.00">+ update_trial_status()</text>
<text text-anchor="start" x="171.64" y="-55.2" font-family="Consolas" font-size="11.00">+ clear_status()</text>
<text text-anchor="start" x="171.64" y="-43.2" font-family="Consolas" font-size="11.00">+ commit_status()</text>
<text text-anchor="start" x="171.64" y="-31.2" font-family="Consolas" font-size="11.00">+ reset_status()</text>
<text text-anchor="start" x="171.64" y="-19.2" font-family="Consolas" font-size="11.00">+ print()</text>
<text text-anchor="middle" x="249.64" y="-7.2" font-family="Consolas" font-size="11.00">}</text>
</a>
</g>
</g>
<!-- Node2 -->
<g id="node2" class="node">
<title>Node2</title>
<g id="a_node2"><a xlink:href="../../d7/dd2/struct_data_yeoh.html" target="_top" xlink:title=" ">
<polygon fill="white" stroke="#666666" points="163.14,-472 86.14,-472 86.14,-440 163.14,-440 163.14,-472"/>
<text text-anchor="middle" x="124.64" y="-459.2" font-family="Consolas" font-size="11.00">{DataYeoh</text>
<text text-anchor="middle" x="124.64" y="-447.2" font-family="Consolas" font-size="11.00">||}</text>
</a>
</g>
</g>
<!-- Node2&#45;&gt;Node1 -->
<g id="edge1" class="edge">
<title>Node2&#45;&gt;Node1</title>
<path fill="none" stroke="#8b1a1a" d="M132.67,-429.93C151.94,-369.8 201.27,-215.89 229.33,-128.36"/>
<polygon fill="none" stroke="#8b1a1a" points="129.26,-429.12 129.54,-439.71 135.92,-431.26 129.26,-429.12"/>
</g>
<!-- Node3 -->
<g id="node3" class="node">
<title>Node3</title>
<g id="a_node3"><a xlink:title=" ">
<polygon fill="white" stroke="#666666" points="86.64,-902 42.64,-902 42.64,-870 86.64,-870 86.64,-902"/>
<text text-anchor="middle" x="64.64" y="-889.2" font-family="Consolas" font-size="11.00">{vec</text>
<text text-anchor="middle" x="64.64" y="-877.2" font-family="Consolas" font-size="11.00">||}</text>
</a>
</g>
</g>
<!-- Node3&#45;&gt;Node2 -->
<g id="edge2" class="edge">
<title>Node3&#45;&gt;Node2</title>
<path fill="none" stroke="#404040" d="M42.48,-876.02C32.36,-870.66 21.37,-862.77 15.64,-852 -11.92,-800.21 4.19,-777.54 15.64,-720 33.87,-628.36 84.62,-528.65 109.91,-482.76"/>
<polygon fill="none" stroke="#404040" points="110.05,-482.51 109.48,-475.32 115.9,-472.04 116.47,-479.22 110.05,-482.51"/>
<text text-anchor="middle" x="29.64" y="-789.2" font-family="Consolas" font-size="11.00"> +A0</text>
<text text-anchor="middle" x="29.64" y="-777.2" font-family="Consolas" font-size="11.00">+A1</text>
</g>
<!-- Node6 -->
<g id="node6" class="node">
<title>Node6</title>
<g id="a_node6"><a xlink:href="../../de/de9/struct_data_material.html" target="_top" xlink:title=" ">
<polygon fill="white" stroke="#666666" points="710.14,-642 565.14,-642 565.14,-550 710.14,-550 710.14,-642"/>
<text text-anchor="middle" x="637.64" y="-629.2" font-family="Consolas" font-size="11.00">{DataMaterial</text>
<text text-anchor="start" x="573.14" y="-617.2" font-family="Consolas" font-size="11.00">|+ trial_strain</text>
<text text-anchor="start" x="573.14" y="-605.2" font-family="Consolas" font-size="11.00">+ trial_strain_rate</text>
<text text-anchor="start" x="573.14" y="-593.2" font-family="Consolas" font-size="11.00">+ trial_strain_acc</text>
<text text-anchor="start" x="573.14" y="-581.2" font-family="Consolas" font-size="11.00">+ trial_stress</text>
<text text-anchor="start" x="573.14" y="-569.2" font-family="Consolas" font-size="11.00">+ trial_history</text>
<text text-anchor="middle" x="637.64" y="-557.2" font-family="Consolas" font-size="11.00">|}</text>
</a>
</g>
</g>
<!-- Node3&#45;&gt;Node6 -->
<g id="edge8" class="edge">
<title>Node3&#45;&gt;Node6</title>
<path fill="none" stroke="#404040" d="M86.65,-883.43C125.41,-880.18 203.49,-871.35 221.64,-852 262.18,-808.76 196.96,-760.07 240.64,-720 266.47,-696.3 524.58,-718.26 555.64,-702 576.91,-690.86 594.42,-671.48 607.71,-652.38"/>
<polygon fill="none" stroke="#404040" points="607.85,-652.17 607.83,-644.96 614.47,-642.16 614.5,-649.37 607.85,-652.17"/>
<text text-anchor="middle" x="308.64" y="-843.2" font-family="Consolas" font-size="11.00"> +current_history</text>
<text text-anchor="middle" x="308.64" y="-831.2" font-family="Consolas" font-size="11.00">+current_strain</text>
<text text-anchor="middle" x="308.64" y="-819.2" font-family="Consolas" font-size="11.00">+current_strain_acc</text>
<text text-anchor="middle" x="308.64" y="-807.2" font-family="Consolas" font-size="11.00">+current_strain_rate</text>
<text text-anchor="middle" x="308.64" y="-795.2" font-family="Consolas" font-size="11.00">+current_stress</text>
<text text-anchor="middle" x="308.64" y="-783.2" font-family="Consolas" font-size="11.00">+incre_strain</text>
<text text-anchor="middle" x="308.64" y="-771.2" font-family="Consolas" font-size="11.00">+incre_strain_acc</text>
<text text-anchor="middle" x="308.64" y="-759.2" font-family="Consolas" font-size="11.00">+incre_strain_rate</text>
<text text-anchor="middle" x="308.64" y="-747.2" font-family="Consolas" font-size="11.00">+incre_stress</text>
<text text-anchor="middle" x="308.64" y="-735.2" font-family="Consolas" font-size="11.00">+initial_history</text>
<text text-anchor="middle" x="308.64" y="-723.2" font-family="Consolas" font-size="11.00">...</text>
</g>
<!-- Node10 -->
<g id="node10" class="node">
<title>Node10</title>
<g id="a_node10"><a xlink:href="../../da/de4/struct_data_couple_material.html" target="_top" xlink:title=" ">
<polygon fill="white" stroke="#666666" points="418.14,-612 273.14,-612 273.14,-580 418.14,-580 418.14,-612"/>
<text text-anchor="middle" x="345.64" y="-599.2" font-family="Consolas" font-size="11.00">{DataCoupleMaterial</text>
<text text-anchor="middle" x="345.64" y="-587.2" font-family="Consolas" font-size="11.00">||}</text>
</a>
</g>
</g>
<!-- Node3&#45;&gt;Node10 -->
<g id="edge12" class="edge">
<title>Node3&#45;&gt;Node10</title>
<path fill="none" stroke="#404040" d="M59.69,-869.79C50.59,-838.71 34.8,-766.92 65.64,-720 108.74,-654.42 195.4,-623.57 260.96,-609.2"/>
<polygon fill="none" stroke="#404040" points="261.19,-609.15 266.25,-604.01 272.94,-606.7 267.88,-611.84 261.19,-609.15"/>
<text text-anchor="middle" x="143.64" y="-813.2" font-family="Consolas" font-size="11.00"> +current_couple_stress</text>
<text text-anchor="middle" x="143.64" y="-801.2" font-family="Consolas" font-size="11.00">+current_curvature</text>
<text text-anchor="middle" x="143.64" y="-789.2" font-family="Consolas" font-size="11.00">+incre_couple_stress</text>
<text text-anchor="middle" x="143.64" y="-777.2" font-family="Consolas" font-size="11.00">+incre_curvature</text>
<text text-anchor="middle" x="143.64" y="-765.2" font-family="Consolas" font-size="11.00">+trial_couple_stress</text>
<text text-anchor="middle" x="143.64" y="-753.2" font-family="Consolas" font-size="11.00">+trial_curvature</text>
</g>
<!-- Node4 -->
<g id="node4" class="node">
<title>Node4</title>
<g id="a_node4"><a xlink:href="../../d7/d42/class_material3_d.html" target="_top" xlink:title="The Material3D class.">
<polygon fill="white" stroke="#666666" points="451.14,-221 326.14,-221 326.14,-165 451.14,-165 451.14,-221"/>
<text text-anchor="middle" x="388.64" y="-208.2" font-family="Consolas" font-size="11.00">{Material3D</text>
<text text-anchor="start" x="334.14" y="-196.2" font-family="Consolas" font-size="11.00">||+ Material3D()</text>
<text text-anchor="start" x="334.14" y="-184.2" font-family="Consolas" font-size="11.00">+ record()</text>
<text text-anchor="middle" x="388.64" y="-172.2" font-family="Consolas" font-size="11.00">}</text>
</a>
</g>
</g>
<!-- Node4&#45;&gt;Node1 -->
<g id="edge3" class="edge">
<title>Node4&#45;&gt;Node1</title>
<path fill="none" stroke="#63b8ff" d="M351.36,-157.94C341.28,-148.73 330.05,-138.47 318.82,-128.21"/>
<polygon fill="none" stroke="#63b8ff" points="349.07,-160.59 358.82,-164.76 353.8,-155.43 349.07,-160.59"/>
</g>
<!-- Node5 -->
<g id="node5" class="node">
<title>Node5</title>
<g id="a_node5"><a xlink:href="../../dc/dee/class_material.html" target="_top" xlink:title="A Material abstract base class.">
<polygon fill="white" stroke="#666666" points="531.14,-422 366.14,-422 366.14,-258 531.14,-258 531.14,-422"/>
<text text-anchor="middle" x="448.64" y="-409.2" font-family="Consolas" font-size="11.00">{Material</text>
<text text-anchor="start" x="374.14" y="-397.2" font-family="Consolas" font-size="11.00">||+ Material()</text>
<text text-anchor="start" x="374.14" y="-385.2" font-family="Consolas" font-size="11.00">+ Material()</text>
<text text-anchor="start" x="374.14" y="-373.2" font-family="Consolas" font-size="11.00">+ Material()</text>
<text text-anchor="start" x="374.14" y="-361.2" font-family="Consolas" font-size="11.00">+ operator=()</text>
<text text-anchor="start" x="374.14" y="-349.2" font-family="Consolas" font-size="11.00">+ operator=()</text>
<text text-anchor="start" x="374.14" y="-337.2" font-family="Consolas" font-size="11.00">+ ~Material()</text>
<text text-anchor="start" x="374.14" y="-325.2" font-family="Consolas" font-size="11.00">+ initialize_base()</text>
<text text-anchor="start" x="374.14" y="-313.2" font-family="Consolas" font-size="11.00">+ initialize()</text>
<text text-anchor="start" x="374.14" y="-301.2" font-family="Consolas" font-size="11.00">+ initialize_couple()</text>
<text text-anchor="start" x="374.14" y="-289.2" font-family="Consolas" font-size="11.00">+ initialize_history()</text>
<text text-anchor="start" x="374.14" y="-277.2" font-family="Consolas" font-size="11.00">and 70 more...</text>
<text text-anchor="middle" x="448.64" y="-265.2" font-family="Consolas" font-size="11.00">}</text>
</a>
</g>
</g>
<!-- Node5&#45;&gt;Node4 -->
<g id="edge4" class="edge">
<title>Node5&#45;&gt;Node4</title>
<path fill="none" stroke="#63b8ff" d="M411.03,-248.13C407,-238.37 403.16,-229.09 399.83,-221.06"/>
<polygon fill="none" stroke="#63b8ff" points="407.9,-249.7 414.95,-257.6 414.36,-247.02 407.9,-249.7"/>
</g>
<!-- Node6&#45;&gt;Node5 -->
<g id="edge5" class="edge">
<title>Node6&#45;&gt;Node5</title>
<path fill="none" stroke="darkgreen" d="M598.03,-541.78C572.25,-507.13 538.13,-461.28 509.01,-422.14"/>
<polygon fill="none" stroke="darkgreen" points="595.29,-543.95 604.06,-549.88 600.9,-539.77 595.29,-543.95"/>
</g>
<!-- Node7 -->
<g id="node7" class="node">
<title>Node7</title>
<g id="a_node7"><a xlink:title=" ">
<polygon fill="white" stroke="#666666" points="523.64,-902 459.64,-902 459.64,-870 523.64,-870 523.64,-902"/>
<text text-anchor="middle" x="491.64" y="-889.2" font-family="Consolas" font-size="11.00">{double</text>
<text text-anchor="middle" x="491.64" y="-877.2" font-family="Consolas" font-size="11.00">||}</text>
</a>
</g>
</g>
<!-- Node7&#45;&gt;Node6 -->
<g id="edge6" class="edge">
<title>Node7&#45;&gt;Node6</title>
<path fill="none" stroke="#404040" d="M523.93,-876.43C536.92,-871.38 550.87,-863.63 559.64,-852 595.47,-804.44 565.24,-776.95 582.64,-720 589.5,-697.54 599.44,-673.77 608.99,-653.19"/>
<polygon fill="none" stroke="#404040" points="609.1,-652.95 608.05,-645.82 614.23,-642.1 615.28,-649.24 609.1,-652.95"/>
<text text-anchor="middle" x="616.64" y="-789.2" font-family="Consolas" font-size="11.00"> +density</text>
<text text-anchor="middle" x="616.64" y="-777.2" font-family="Consolas" font-size="11.00">+tolerance</text>
</g>
<!-- Node7&#45;&gt;Node10 -->
<g id="edge11" class="edge">
<title>Node7&#45;&gt;Node10</title>
<path fill="none" stroke="#404040" d="M459.56,-881.83C439.28,-878.07 414.23,-869.88 399.64,-852 380.89,-829.04 386.82,-748.98 380.64,-720 373.5,-686.53 362.27,-648.78 354.46,-624.03"/>
<polygon fill="none" stroke="#404040" points="354.39,-623.8 348.75,-619.3 350.73,-612.37 356.37,-616.86 354.39,-623.8"/>
<text text-anchor="middle" x="477.64" y="-783.2" font-family="Consolas" font-size="11.00"> +characteristic_length</text>
</g>
<!-- Node8 -->
<g id="node8" class="node">
<title>Node8</title>
<g id="a_node8"><a xlink:title=" ">
<polygon fill="white" stroke="#666666" points="1089.14,-902 944.14,-902 944.14,-870 1089.14,-870 1089.14,-902"/>
<text text-anchor="middle" x="1016.64" y="-889.2" font-family="Consolas" font-size="11.00">{const MaterialType</text>
<text text-anchor="middle" x="1016.64" y="-877.2" font-family="Consolas" font-size="11.00">||}</text>
</a>
</g>
</g>
<!-- Node8&#45;&gt;Node6 -->
<g id="edge7" class="edge">
<title>Node8&#45;&gt;Node6</title>
<path fill="none" stroke="#404040" d="M1018.63,-869.71C1021.89,-837.85 1024.7,-763.7 987.64,-720 921.56,-642.09 803.01,-613.51 722.37,-603.03"/>
<polygon fill="none" stroke="#404040" points="722.18,-603.01 715.74,-606.26 710.27,-601.56 716.71,-598.31 722.18,-603.01"/>
<text text-anchor="middle" x="1071.64" y="-783.2" font-family="Consolas" font-size="11.00"> +material_type</text>
</g>
<!-- Node9 -->
<g id="node9" class="node">
<title>Node9</title>
<g id="a_node9"><a xlink:title=" ">
<polygon fill="white" stroke="#666666" points="793.64,-902 749.64,-902 749.64,-870 793.64,-870 793.64,-902"/>
<text text-anchor="middle" x="771.64" y="-889.2" font-family="Consolas" font-size="11.00">{mat</text>
<text text-anchor="middle" x="771.64" y="-877.2" font-family="Consolas" font-size="11.00">||}</text>
</a>
</g>
</g>
<!-- Node9&#45;&gt;Node6 -->
<g id="edge9" class="edge">
<title>Node9&#45;&gt;Node6</title>
<path fill="none" stroke="#404040" d="M793.68,-882.31C812.11,-878.77 837.29,-870.63 849.64,-852 865.84,-827.55 864.28,-745.42 849.64,-720 822.12,-672.22 768.15,-641.3 721.56,-622.41"/>
<polygon fill="none" stroke="#404040" points="721.38,-622.34 714.33,-623.89 710.2,-617.98 717.24,-616.43 721.38,-622.34"/>
<text text-anchor="middle" x="922.64" y="-831.2" font-family="Consolas" font-size="11.00"> +current_damping</text>
<text text-anchor="middle" x="922.64" y="-819.2" font-family="Consolas" font-size="11.00">+current_inertial</text>
<text text-anchor="middle" x="922.64" y="-807.2" font-family="Consolas" font-size="11.00">+current_stiffness</text>
<text text-anchor="middle" x="922.64" y="-795.2" font-family="Consolas" font-size="11.00">+initial_damping</text>
<text text-anchor="middle" x="922.64" y="-783.2" font-family="Consolas" font-size="11.00">+initial_inertial</text>
<text text-anchor="middle" x="922.64" y="-771.2" font-family="Consolas" font-size="11.00">+initial_stiffness</text>
<text text-anchor="middle" x="922.64" y="-759.2" font-family="Consolas" font-size="11.00">+trial_damping</text>
<text text-anchor="middle" x="922.64" y="-747.2" font-family="Consolas" font-size="11.00">+trial_inertial</text>
<text text-anchor="middle" x="922.64" y="-735.2" font-family="Consolas" font-size="11.00">+trial_stiffness</text>
</g>
<!-- Node9&#45;&gt;Node10 -->
<g id="edge13" class="edge">
<title>Node9&#45;&gt;Node10</title>
<path fill="none" stroke="#404040" d="M749.21,-884.32C725.64,-882.32 689.31,-875.34 669.64,-852 631.43,-806.68 693.84,-760.58 650.64,-720 614.23,-685.81 470.53,-725.81 426.64,-702 394.31,-684.47 370.8,-647.95 357.68,-622.95"/>
<polygon fill="none" stroke="#404040" points="357.6,-622.8 351.34,-619.22 352.23,-612.06 358.49,-615.64 357.6,-622.8"/>
<text text-anchor="middle" x="757.64" y="-795.2" font-family="Consolas" font-size="11.00"> +current_couple_stiffness</text>
<text text-anchor="middle" x="757.64" y="-783.2" font-family="Consolas" font-size="11.00">+initial_couple_stiffness</text>
<text text-anchor="middle" x="757.64" y="-771.2" font-family="Consolas" font-size="11.00">+trial_couple_stiffness</text>
</g>
<!-- Node10&#45;&gt;Node5 -->
<g id="edge10" class="edge">
<title>Node10&#45;&gt;Node5</title>
<path fill="none" stroke="darkgreen" d="M355.65,-570.3C369.43,-536.33 394.88,-473.56 415.68,-422.28"/>
<polygon fill="none" stroke="darkgreen" points="352.29,-569.29 351.77,-579.87 358.77,-571.92 352.29,-569.29"/>
</g>
<!-- Node11 -->
<g id="node11" class="node">
<title>Node11</title>
<g id="a_node11"><a xlink:href="../../d0/d57/class_tag.html" target="_top" xlink:title="A base Tag class.">
<polygon fill="white" stroke="#666666" points="547.14,-702 436.14,-702 436.14,-490 547.14,-490 547.14,-702"/>
<text text-anchor="middle" x="491.64" y="-689.2" font-family="Consolas" font-size="11.00">{Tag</text>
<text text-anchor="start" x="444.14" y="-677.2" font-family="Consolas" font-size="11.00">||+ Tag()</text>
<text text-anchor="start" x="444.14" y="-665.2" font-family="Consolas" font-size="11.00">+ Tag()</text>
<text text-anchor="start" x="444.14" y="-653.2" font-family="Consolas" font-size="11.00">+ Tag()</text>
<text text-anchor="start" x="444.14" y="-641.2" font-family="Consolas" font-size="11.00">+ operator=()</text>
<text text-anchor="start" x="444.14" y="-629.2" font-family="Consolas" font-size="11.00">+ operator=()</text>
<text text-anchor="start" x="444.14" y="-617.2" font-family="Consolas" font-size="11.00">+ ~Tag()</text>
<text text-anchor="start" x="444.14" y="-605.2" font-family="Consolas" font-size="11.00">+ set_tag()</text>
<text text-anchor="start" x="444.14" y="-593.2" font-family="Consolas" font-size="11.00">+ get_tag()</text>
<text text-anchor="start" x="444.14" y="-581.2" font-family="Consolas" font-size="11.00">+ enable()</text>
<text text-anchor="start" x="444.14" y="-569.2" font-family="Consolas" font-size="11.00">+ disable()</text>
<text text-anchor="start" x="444.14" y="-557.2" font-family="Consolas" font-size="11.00">+ guard()</text>
<text text-anchor="start" x="444.14" y="-545.2" font-family="Consolas" font-size="11.00">+ unguard()</text>
<text text-anchor="start" x="444.14" y="-533.2" font-family="Consolas" font-size="11.00">+ is_active()</text>
<text text-anchor="start" x="444.14" y="-521.2" font-family="Consolas" font-size="11.00">+ is_guarded()</text>
<text text-anchor="start" x="444.14" y="-509.2" font-family="Consolas" font-size="11.00">+ print()</text>
<text text-anchor="middle" x="491.64" y="-497.2" font-family="Consolas" font-size="11.00">}</text>
</a>
</g>
</g>
<!-- Node11&#45;&gt;Node5 -->
<g id="edge14" class="edge">
<title>Node11&#45;&gt;Node5</title>
<path fill="none" stroke="#63b8ff" d="M472.16,-479.98C468.85,-460.42 465.48,-440.47 462.35,-422.02"/>
<polygon fill="none" stroke="#63b8ff" points="468.72,-480.58 473.84,-489.85 475.62,-479.41 468.72,-480.58"/>
</g>
</g>
</svg>
        <g id="navigator" transform="translate(0 0)" fill="#404254">
                <rect fill="#f2f5e9" fill-opacity="0.5" stroke="#606060" stroke-width=".5" x="0" y="0" width="60" height="60"/>
                <use id="zoomplus" xlink:href="#zoomPlus" x="17" y="9" onmousedown="handleZoom(evt,'in')"/>
                <use id="zoomminus" xlink:href="#zoomMin" x="42" y="9" onmousedown="handleZoom(evt,'out')"/>
                <use id="reset" xlink:href="#resetDef" x="30" y="36" onmousedown="handleReset()"/>
                <g id="arrowUp" xlink:href="#dirArrow" transform="translate(30 24)" onmousedown="handlePan(0,-1)">
                  <use xlink:href="#rim" fill="#404040">
                        <set attributeName="fill" to="#808080" begin="arrowUp.mouseover" end="arrowUp.mouseout"/>
                  </use>
                  <path fill="none" stroke="white" stroke-width="1.5" d="M0,-3.0v7 M-2.5,-0.5L0,-3.0L2.5,-0.5"/>
                </g>
                <g id="arrowRight" xlink:href="#dirArrow" transform="rotate(90) translate(36 -43)" onmousedown="handlePan(1,0)">
                  <use xlink:href="#rim" fill="#404040">
                        <set attributeName="fill" to="#808080" begin="arrowRight.mouseover" end="arrowRight.mouseout"/>
                  </use>
                  <path fill="none" stroke="white" stroke-width="1.5" d="M0,-3.0v7 M-2.5,-0.5L0,-3.0L2.5,-0.5"/>
                </g>
                <g id="arrowDown" xlink:href="#dirArrow" transform="rotate(180) translate(-30 -48)" onmousedown="handlePan(0,1)">
                  <use xlink:href="#rim" fill="#404040">
                        <set attributeName="fill" to="#808080" begin="arrowDown.mouseover" end="arrowDown.mouseout"/>
                  </use>
                  <path fill="none" stroke="white" stroke-width="1.5" d="M0,-3.0v7 M-2.5,-0.5L0,-3.0L2.5,-0.5"/>
                </g>
                <g id="arrowLeft" xlink:href="#dirArrow" transform="rotate(270) translate(-36 17)" onmousedown="handlePan(-1,0)">
                  <use xlink:href="#rim" fill="#404040">
                        <set attributeName="fill" to="#808080" begin="arrowLeft.mouseover" end="arrowLeft.mouseout"/>
                  </use>
                  <path fill="none" stroke="white" stroke-width="1.5" d="M0,-3.0v7 M-2.5,-0.5L0,-3.0L2.5,-0.5"/>
                </g>
        </g>
        <svg viewBox="0 0 15 15" width="100%" height="30px" preserveAspectRatio="xMaxYMin meet">
         <g id="arrow_out" transform="scale(0.3 0.3)">
          <a xlink:href="class_yeoh__coll__graph_org.svg" target="_base">
           <rect id="button" ry="5" rx="5" y="6" x="6" height="38" width="38"
                fill="#f2f5e9" fill-opacity="0.5" stroke="#606060" stroke-width="1.0"/>
           <path id="arrow"
             d="M 11.500037,31.436501 C 11.940474,20.09759 22.043105,11.32322 32.158766,21.979434 L 37.068811,17.246167 C 37.068811,17.246167 37.088388,32 37.088388,32 L 22.160133,31.978069 C 22.160133,31.978069 26.997745,27.140456 26.997745,27.140456 C 18.528582,18.264221 13.291696,25.230495 11.500037,31.436501 z"
             style="fill:#404040;"/>
          </a>
         </g>
        </svg>
</svg>
