<?xml version="1.0" encoding="UTF-8" standalone="no"?>
<!DOCTYPE svg PUBLIC "-//W3C//DTD SVG 1.1//EN"
 "http://www.w3.org/Graphics/SVG/1.1/DTD/svg11.dtd">
<!-- Generated by graphviz version 9.0.0 (20230911.1827)
 -->
<!-- Title: Element/Shell/DKTS3.cpp Pages: 1 -->
<svg width="855pt" height="561pt"
 viewBox="0.00 0.00 855.00 560.50" xmlns="http://www.w3.org/2000/svg" xmlns:xlink="http://www.w3.org/1999/xlink">
<g id="graph0" class="graph" transform="scale(1 1) rotate(0) translate(4 556.5)">
<title>Element/Shell/DKTS3.cpp</title>
<!-- Node1 -->
<g id="Node000001" class="node">
<title>Node1</title>
<g id="a_Node000001"><a xlink:title=" ">
<polygon fill="#999999" stroke="#666666" points="567,-552.5 413,-552.5 413,-531 567,-531 567,-552.5"/>
<text text-anchor="middle" x="490" y="-538.05" font-family="Consolas" font-size="11.00">Element/Shell/DKTS3.cpp</text>
</a>
</g>
</g>
<!-- Node2 -->
<g id="Node000002" class="node">
<title>Node2</title>
<g id="a_Node000002"><a xlink:href="../../de/d39/_d_k_t_s3_8h.html" target="_top" xlink:title=" ">
<polygon fill="white" stroke="#666666" points="317,-495 259,-495 259,-473.5 317,-473.5 317,-495"/>
<text text-anchor="middle" x="288" y="-480.55" font-family="Consolas" font-size="11.00">DKTS3.h</text>
</a>
</g>
</g>
<!-- Node1&#45;&gt;Node2 -->
<g id="edge1_Node000001_Node000002" class="edge">
<title>Node1&#45;&gt;Node2</title>
<g id="a_edge1_Node000001_Node000002"><a xlink:title=" ">
<path fill="none" stroke="#63b8ff" d="M452.95,-530.57C417.55,-520.84 364.33,-506.22 327.98,-496.24"/>
<polygon fill="#63b8ff" stroke="#63b8ff" points="329.31,-492.97 318.74,-493.7 327.46,-499.72 329.31,-492.97"/>
</a>
</g>
</g>
<!-- Node19 -->
<g id="Node000019" class="node">
<title>Node19</title>
<g id="a_Node000019"><a xlink:href="../../dc/df2/_domain_base_8h.html" target="_top" xlink:title=" ">
<polygon fill="white" stroke="#666666" points="130,-200.75 0,-200.75 0,-179.25 130,-179.25 130,-200.75"/>
<text text-anchor="middle" x="65" y="-186.3" font-family="Consolas" font-size="11.00">Domain/DomainBase.h</text>
</a>
</g>
</g>
<!-- Node1&#45;&gt;Node19 -->
<g id="edge19_Node000001_Node000019" class="edge">
<title>Node1&#45;&gt;Node19</title>
<g id="a_edge19_Node000001_Node000019"><a xlink:title=" ">
<path fill="none" stroke="#63b8ff" d="M412.95,-534.16C299.29,-522.28 100,-492.25 100,-427.75 100,-427.75 100,-427.75 100,-310.75 100,-274.62 85.14,-234.73 74.78,-211.32"/>
<polygon fill="#63b8ff" stroke="#63b8ff" points="78.01,-209.96 70.65,-202.34 71.65,-212.88 78.01,-209.96"/>
</a>
</g>
</g>
<!-- Node26 -->
<g id="Node000026" class="node">
<title>Node26</title>
<g id="a_Node000026"><a xlink:href="../../d6/de4/_d_k_t3_8h.html" target="_top" xlink:title=" ">
<polygon fill="white" stroke="#666666" points="474,-437.5 338,-437.5 338,-416 474,-416 474,-437.5"/>
<text text-anchor="middle" x="406" y="-423.05" font-family="Consolas" font-size="11.00">Element/Plate/DKT3.h</text>
</a>
</g>
</g>
<!-- Node1&#45;&gt;Node26 -->
<g id="edge28_Node000001_Node000026" class="edge">
<title>Node1&#45;&gt;Node26</title>
<g id="a_edge28_Node000001_Node000026"><a xlink:title=" ">
<path fill="none" stroke="#63b8ff" d="M462.45,-530.67C446.3,-523.29 426.97,-511.65 416,-495 407.06,-481.43 404.85,-463 404.71,-448.87"/>
<polygon fill="#63b8ff" stroke="#63b8ff" points="408.19,-449.39 404.96,-439.3 401.2,-449.2 408.19,-449.39"/>
</a>
</g>
</g>
<!-- Node27 -->
<g id="Node000027" class="node">
<title>Node27</title>
<g id="a_Node000027"><a xlink:href="../../d3/d09/_material_8h.html" target="_top" xlink:title=" ">
<polygon fill="white" stroke="#666666" points="555,-495 425,-495 425,-473.5 555,-473.5 555,-495"/>
<text text-anchor="middle" x="490" y="-480.55" font-family="Consolas" font-size="11.00">Material/Material.h</text>
</a>
</g>
</g>
<!-- Node1&#45;&gt;Node27 -->
<g id="edge30_Node000001_Node000027" class="edge">
<title>Node1&#45;&gt;Node27</title>
<g id="a_edge30_Node000001_Node000027"><a xlink:title=" ">
<path fill="none" stroke="#63b8ff" d="M490,-530.57C490,-523.92 490,-514.98 490,-506.8"/>
<polygon fill="#63b8ff" stroke="#63b8ff" points="493.5,-506.88 490,-496.88 486.5,-506.88 493.5,-506.88"/>
</a>
</g>
</g>
<!-- Node29 -->
<g id="Node000029" class="node">
<title>Node29</title>
<g id="a_Node000029"><a xlink:href="../../d4/d0f/_output_type_8h.html" target="_top" xlink:title=" ">
<polygon fill="white" stroke="#666666" points="715,-495 573,-495 573,-473.5 715,-473.5 715,-495"/>
<text text-anchor="middle" x="644" y="-480.55" font-family="Consolas" font-size="11.00">Recorder/OutputType.h</text>
</a>
</g>
</g>
<!-- Node1&#45;&gt;Node29 -->
<g id="edge33_Node000001_Node000029" class="edge">
<title>Node1&#45;&gt;Node29</title>
<g id="a_edge33_Node000001_Node000029"><a xlink:title=" ">
<path fill="none" stroke="#63b8ff" d="M518.25,-530.57C542.59,-521.8 577.98,-509.04 605.02,-499.3"/>
<polygon fill="#63b8ff" stroke="#63b8ff" points="606.03,-502.66 614.25,-495.97 603.65,-496.07 606.03,-502.66"/>
</a>
</g>
</g>
<!-- Node31 -->
<g id="Node000031" class="node">
<title>Node31</title>
<g id="a_Node000031"><a xlink:href="../../d7/dab/_integration_plan_8h.html" target="_top" xlink:title=" ">
<polygon fill="white" stroke="#666666" points="847,-265 681,-265 681,-243.5 847,-243.5 847,-265"/>
<text text-anchor="middle" x="764" y="-250.55" font-family="Consolas" font-size="11.00">Toolbox/IntegrationPlan.h</text>
</a>
</g>
</g>
<!-- Node1&#45;&gt;Node31 -->
<g id="edge35_Node000001_Node000031" class="edge">
<title>Node1&#45;&gt;Node31</title>
<g id="a_edge35_Node000001_Node000031"><a xlink:title=" ">
<path fill="none" stroke="#63b8ff" d="M567.29,-533.85C630.69,-526.91 714.35,-514.43 742,-495 770.27,-475.14 781,-462.3 781,-427.75 781,-427.75 781,-427.75 781,-368.25 781,-335.94 774.12,-299.01 769.11,-276.42"/>
<polygon fill="#63b8ff" stroke="#63b8ff" points="772.58,-275.89 766.92,-266.93 765.76,-277.46 772.58,-275.89"/>
</a>
</g>
</g>
<!-- Node32 -->
<g id="Node000032" class="node">
<title>Node32</title>
<g id="a_Node000032"><a xlink:href="../../da/d18/shape_8h.html" target="_top" xlink:title=" ">
<polygon fill="white" stroke="#666666" points="704,-380 598,-380 598,-358.5 704,-358.5 704,-380"/>
<text text-anchor="middle" x="651" y="-365.55" font-family="Consolas" font-size="11.00">Toolbox/shape.h</text>
</a>
</g>
</g>
<!-- Node1&#45;&gt;Node32 -->
<g id="edge37_Node000001_Node000032" class="edge">
<title>Node1&#45;&gt;Node32</title>
<g id="a_edge37_Node000001_Node000032"><a xlink:title=" ">
<path fill="none" stroke="#63b8ff" d="M567.28,-536.01C627.58,-530.52 704.3,-518.93 724,-495 731.67,-485.69 742.02,-449.91 723,-416 715.57,-402.75 702.53,-392.77 689.58,-385.57"/>
<polygon fill="#63b8ff" stroke="#63b8ff" points="691.17,-382.45 680.66,-381.07 688.01,-388.7 691.17,-382.45"/>
</a>
</g>
</g>
<!-- Node3 -->
<g id="Node000003" class="node">
<title>Node3</title>
<g id="a_Node000003"><a xlink:href="../../d6/d35/_shell_base_8h.html" target="_top" xlink:title=" ">
<polygon fill="white" stroke="#666666" points="320,-437.5 154,-437.5 154,-416 320,-416 320,-437.5"/>
<text text-anchor="middle" x="237" y="-423.05" font-family="Consolas" font-size="11.00">Element/Shell/ShellBase.h</text>
</a>
</g>
</g>
<!-- Node2&#45;&gt;Node3 -->
<g id="edge2_Node000002_Node000003" class="edge">
<title>Node2&#45;&gt;Node3</title>
<g id="a_edge2_Node000002_Node000003"><a xlink:title=" ">
<path fill="none" stroke="#63b8ff" d="M278.65,-473.07C271.74,-465.56 262.16,-455.13 253.93,-446.17"/>
<polygon fill="#63b8ff" stroke="#63b8ff" points="256.66,-443.97 247.32,-438.98 251.51,-448.71 256.66,-443.97"/>
</a>
</g>
</g>
<!-- Node4 -->
<g id="Node000004" class="node">
<title>Node4</title>
<g id="a_Node000004"><a xlink:href="../../dc/d5f/_material_element_8h.html" target="_top" xlink:title=" ">
<polygon fill="white" stroke="#666666" points="481,-380 315,-380 315,-358.5 481,-358.5 481,-380"/>
<text text-anchor="middle" x="398" y="-365.55" font-family="Consolas" font-size="11.00">Element/MaterialElement.h</text>
</a>
</g>
</g>
<!-- Node3&#45;&gt;Node4 -->
<g id="edge3_Node000003_Node000004" class="edge">
<title>Node3&#45;&gt;Node4</title>
<g id="a_edge3_Node000003_Node000004"><a xlink:title=" ">
<path fill="none" stroke="#63b8ff" d="M266.53,-415.57C292.1,-406.76 329.31,-393.93 357.63,-384.17"/>
<polygon fill="#63b8ff" stroke="#63b8ff" points="358.64,-387.52 366.95,-380.95 356.36,-380.9 358.64,-387.52"/>
</a>
</g>
</g>
<!-- Node5 -->
<g id="Node000005" class="node">
<title>Node5</title>
<g id="a_Node000005"><a xlink:href="../../d0/db8/_element_8h.html" target="_top" xlink:title=" ">
<polygon fill="white" stroke="#666666" points="376,-322.5 258,-322.5 258,-301 376,-301 376,-322.5"/>
<text text-anchor="middle" x="317" y="-308.05" font-family="Consolas" font-size="11.00">Element/Element.h</text>
</a>
</g>
</g>
<!-- Node4&#45;&gt;Node5 -->
<g id="edge4_Node000004_Node000005" class="edge">
<title>Node4&#45;&gt;Node5</title>
<g id="a_edge4_Node000004_Node000005"><a xlink:title=" ">
<path fill="none" stroke="#63b8ff" d="M383.14,-358.07C371.38,-350.01 354.72,-338.6 341.06,-329.24"/>
<polygon fill="#63b8ff" stroke="#63b8ff" points="343.24,-326.49 333.01,-323.72 339.28,-332.26 343.24,-326.49"/>
</a>
</g>
</g>
<!-- Node18 -->
<g id="Node000018" class="node">
<title>Node18</title>
<g id="a_Node000018"><a xlink:href="../../da/da5/_d_o_f_8h.html" target="_top" xlink:title=" ">
<polygon fill="white" stroke="#666666" points="482,-322.5 394,-322.5 394,-301 482,-301 482,-322.5"/>
<text text-anchor="middle" x="438" y="-308.05" font-family="Consolas" font-size="11.00">Domain/DOF.h</text>
</a>
</g>
</g>
<!-- Node4&#45;&gt;Node18 -->
<g id="edge18_Node000004_Node000018" class="edge">
<title>Node4&#45;&gt;Node18</title>
<g id="a_edge18_Node000004_Node000018"><a xlink:title=" ">
<path fill="none" stroke="#63b8ff" d="M405.34,-358.07C410.58,-350.79 417.8,-340.78 424.11,-332.02"/>
<polygon fill="#63b8ff" stroke="#63b8ff" points="426.82,-334.25 429.82,-324.09 421.14,-330.16 426.82,-334.25"/>
</a>
</g>
</g>
<!-- Node6 -->
<g id="Node000006" class="node">
<title>Node6</title>
<g id="a_Node000006"><a xlink:href="../../d9/d82/_element_base_8h.html" target="_top" xlink:title=" ">
<polygon fill="white" stroke="#666666" points="389,-265 247,-265 247,-243.5 389,-243.5 389,-265"/>
<text text-anchor="middle" x="318" y="-250.55" font-family="Consolas" font-size="11.00">Element/ElementBase.h</text>
</a>
</g>
</g>
<!-- Node5&#45;&gt;Node6 -->
<g id="edge5_Node000005_Node000006" class="edge">
<title>Node5&#45;&gt;Node6</title>
<g id="a_edge5_Node000005_Node000006"><a xlink:title=" ">
<path fill="none" stroke="#63b8ff" d="M317.18,-300.57C317.3,-293.92 317.46,-284.98 317.61,-276.8"/>
<polygon fill="#63b8ff" stroke="#63b8ff" points="321.11,-276.94 317.79,-266.88 314.11,-276.81 321.11,-276.94"/>
</a>
</g>
</g>
<!-- Node7 -->
<g id="Node000007" class="node">
<title>Node7</title>
<g id="a_Node000007"><a xlink:href="../../d2/d4a/_tag_8h.html" target="_top" xlink:title=" ">
<polygon fill="white" stroke="#666666" points="458,-136.5 370,-136.5 370,-115 458,-115 458,-136.5"/>
<text text-anchor="middle" x="414" y="-122.05" font-family="Consolas" font-size="11.00">Domain/Tag.h</text>
</a>
</g>
</g>
<!-- Node6&#45;&gt;Node7 -->
<g id="edge6_Node000006_Node000007" class="edge">
<title>Node6&#45;&gt;Node7</title>
<g id="a_edge6_Node000006_Node000007"><a xlink:title=" ">
<path fill="none" stroke="#63b8ff" d="M317.94,-243.02C318.34,-226.59 321.24,-193.98 337,-172.5 346.77,-159.18 361.69,-149.04 375.8,-141.73"/>
<polygon fill="#63b8ff" stroke="#63b8ff" points="376.99,-145.04 384.48,-137.56 373.96,-138.73 376.99,-145.04"/>
</a>
</g>
</g>
<!-- Node16 -->
<g id="Node000016" class="node">
<title>Node16</title>
<g id="a_Node000016"><a xlink:href="../../d9/dc0/vtk_base_8h.html" target="_top" xlink:title=" ">
<polygon fill="white" stroke="#666666" points="290,-207.5 148,-207.5 148,-172.5 290,-172.5 290,-207.5"/>
<text text-anchor="start" x="156" y="-193.05" font-family="Consolas" font-size="11.00">Element/Visualisation</text>
<text text-anchor="middle" x="219" y="-179.55" font-family="Consolas" font-size="11.00">/vtkBase.h</text>
</a>
</g>
</g>
<!-- Node6&#45;&gt;Node16 -->
<g id="edge15_Node000006_Node000016" class="edge">
<title>Node6&#45;&gt;Node16</title>
<g id="a_edge15_Node000006_Node000016"><a xlink:title=" ">
<path fill="none" stroke="#63b8ff" d="M302.09,-243.25C289.51,-235.34 271.44,-223.98 255.37,-213.87"/>
<polygon fill="#63b8ff" stroke="#63b8ff" points="257.29,-210.94 246.96,-208.58 253.57,-216.87 257.29,-210.94"/>
</a>
</g>
</g>
<!-- Node17 -->
<g id="Node000017" class="node">
<title>Node17</title>
<g id="a_Node000017"><a xlink:href="../../d6/d94/_mapping_d_o_f_8h.html" target="_top" xlink:title=" ">
<polygon fill="white" stroke="#666666" points="482,-200.75 346,-200.75 346,-179.25 482,-179.25 482,-200.75"/>
<text text-anchor="middle" x="414" y="-186.3" font-family="Consolas" font-size="11.00">Element/MappingDOF.h</text>
</a>
</g>
</g>
<!-- Node6&#45;&gt;Node17 -->
<g id="edge16_Node000006_Node000017" class="edge">
<title>Node6&#45;&gt;Node17</title>
<g id="a_edge16_Node000006_Node000017"><a xlink:title=" ">
<path fill="none" stroke="#63b8ff" d="M333.42,-243.25C348.31,-233.6 371.11,-218.81 388.67,-207.43"/>
<polygon fill="#63b8ff" stroke="#63b8ff" points="390.54,-210.38 397.03,-202.01 386.73,-204.51 390.54,-210.38"/>
</a>
</g>
</g>
<!-- Node8 -->
<g id="Node000008" class="node">
<title>Node8</title>
<g id="a_Node000008"><a xlink:href="../../d8/d8f/suan_pan_8h.html" target="_top" xlink:title=" ">
<polygon fill="white" stroke="#666666" points="483,-79 413,-79 413,-57.5 483,-57.5 483,-79"/>
<text text-anchor="middle" x="448" y="-64.55" font-family="Consolas" font-size="11.00">suanPan.h</text>
</a>
</g>
</g>
<!-- Node7&#45;&gt;Node8 -->
<g id="edge7_Node000007_Node000008" class="edge">
<title>Node7&#45;&gt;Node8</title>
<g id="a_edge7_Node000007_Node000008"><a xlink:title=" ">
<path fill="none" stroke="#63b8ff" d="M420.24,-114.57C424.6,-107.45 430.56,-97.71 435.85,-89.08"/>
<polygon fill="#63b8ff" stroke="#63b8ff" points="438.77,-91.01 441.01,-80.66 432.8,-87.35 438.77,-91.01"/>
</a>
</g>
</g>
<!-- Node9 -->
<g id="Node000009" class="node">
<title>Node9</title>
<g id="a_Node000009"><a xlink:title=" ">
<polygon fill="#e0e0e0" stroke="#999999" points="640,-21.5 576,-21.5 576,0 640,0 640,-21.5"/>
<text text-anchor="middle" x="608" y="-7.05" font-family="Consolas" font-size="11.00">iostream</text>
</a>
</g>
</g>
<!-- Node8&#45;&gt;Node9 -->
<g id="edge8_Node000008_Node000009" class="edge">
<title>Node8&#45;&gt;Node9</title>
<g id="a_edge8_Node000008_Node000009"><a xlink:title=" ">
<path fill="none" stroke="#63b8ff" d="M477.35,-57.07C502.75,-48.26 539.74,-35.43 567.88,-25.67"/>
<polygon fill="#63b8ff" stroke="#63b8ff" points="568.84,-29.04 577.14,-22.45 566.54,-22.43 568.84,-29.04"/>
</a>
</g>
</g>
<!-- Node10 -->
<g id="Node000010" class="node">
<title>Node10</title>
<g id="a_Node000010"><a xlink:title=" ">
<polygon fill="#e0e0e0" stroke="#999999" points="789,-21.5 659,-21.5 659,0 789,0 789,-21.5"/>
<text text-anchor="middle" x="724" y="-7.05" font-family="Consolas" font-size="11.00">armadillo/armadillo</text>
</a>
</g>
</g>
<!-- Node8&#45;&gt;Node10 -->
<g id="edge9_Node000008_Node000010" class="edge">
<title>Node8&#45;&gt;Node10</title>
<g id="a_edge9_Node000008_Node000010"><a xlink:title=" ">
<path fill="none" stroke="#63b8ff" d="M483.24,-60.16C528.24,-51.12 606.88,-35.3 662,-24.22"/>
<polygon fill="#63b8ff" stroke="#63b8ff" points="662.44,-27.7 671.56,-22.3 661.06,-20.84 662.44,-27.7"/>
</a>
</g>
</g>
<!-- Node11 -->
<g id="Node000011" class="node">
<title>Node11</title>
<g id="a_Node000011"><a xlink:title=" ">
<polygon fill="#e0e0e0" stroke="#999999" points="230,-21.5 154,-21.5 154,0 230,0 230,-21.5"/>
<text text-anchor="middle" x="192" y="-7.05" font-family="Consolas" font-size="11.00">filesystem</text>
</a>
</g>
</g>
<!-- Node8&#45;&gt;Node11 -->
<g id="edge10_Node000008_Node000011" class="edge">
<title>Node8&#45;&gt;Node11</title>
<g id="a_edge10_Node000008_Node000011"><a xlink:title=" ">
<path fill="none" stroke="#63b8ff" d="M412.67,-59.59C368.26,-49.96 291.77,-33.38 241.54,-22.49"/>
<polygon fill="#63b8ff" stroke="#63b8ff" points="242.3,-19.07 231.78,-20.37 240.81,-25.91 242.3,-19.07"/>
</a>
</g>
</g>
<!-- Node12 -->
<g id="Node000012" class="node">
<title>Node12</title>
<g id="a_Node000012"><a xlink:title=" ">
<polygon fill="#e0e0e0" stroke="#999999" points="330,-21.5 248,-21.5 248,0 330,0 330,-21.5"/>
<text text-anchor="middle" x="289" y="-7.05" font-family="Consolas" font-size="11.00">fmt/color.h</text>
</a>
</g>
</g>
<!-- Node8&#45;&gt;Node12 -->
<g id="edge11_Node000008_Node000012" class="edge">
<title>Node8&#45;&gt;Node12</title>
<g id="a_edge11_Node000008_Node000012"><a xlink:title=" ">
<path fill="none" stroke="#63b8ff" d="M418.84,-57.07C393.59,-48.26 356.84,-35.43 328.87,-25.67"/>
<polygon fill="#63b8ff" stroke="#63b8ff" points="330.27,-22.45 319.68,-22.46 327.96,-29.06 330.27,-22.45"/>
</a>
</g>
</g>
<!-- Node13 -->
<g id="Node000013" class="node">
<title>Node13</title>
<g id="a_Node000013"><a xlink:title=" ">
<polygon fill="#e0e0e0" stroke="#999999" points="394,-21.5 348,-21.5 348,0 394,0 394,-21.5"/>
<text text-anchor="middle" x="371" y="-7.05" font-family="Consolas" font-size="11.00">mutex</text>
</a>
</g>
</g>
<!-- Node8&#45;&gt;Node13 -->
<g id="edge12_Node000008_Node000013" class="edge">
<title>Node8&#45;&gt;Node13</title>
<g id="a_edge12_Node000008_Node000013"><a xlink:title=" ">
<path fill="none" stroke="#63b8ff" d="M433.88,-57.07C422.81,-49.09 407.17,-37.82 394.25,-28.51"/>
<polygon fill="#63b8ff" stroke="#63b8ff" points="396.42,-25.76 386.26,-22.75 392.33,-31.44 396.42,-25.76"/>
</a>
</g>
</g>
<!-- Node14 -->
<g id="Node000014" class="node">
<title>Node14</title>
<g id="a_Node000014"><a xlink:title=" ">
<polygon fill="#e0e0e0" stroke="#999999" points="488,-21.5 412,-21.5 412,0 488,0 488,-21.5"/>
<text text-anchor="middle" x="450" y="-7.05" font-family="Consolas" font-size="11.00">functional</text>
</a>
</g>
</g>
<!-- Node8&#45;&gt;Node14 -->
<g id="edge13_Node000008_Node000014" class="edge">
<title>Node8&#45;&gt;Node14</title>
<g id="a_edge13_Node000008_Node000014"><a xlink:title=" ">
<path fill="none" stroke="#63b8ff" d="M448.37,-57.07C448.61,-50.42 448.93,-41.48 449.22,-33.3"/>
<polygon fill="#63b8ff" stroke="#63b8ff" points="452.72,-33.5 449.58,-23.38 445.72,-33.25 452.72,-33.5"/>
</a>
</g>
</g>
<!-- Node15 -->
<g id="Node000015" class="node">
<title>Node15</title>
<g id="a_Node000015"><a xlink:title=" ">
<polygon fill="#e0e0e0" stroke="#999999" points="558,-21.5 506,-21.5 506,0 558,0 558,-21.5"/>
<text text-anchor="middle" x="532" y="-7.05" font-family="Consolas" font-size="11.00">memory</text>
</a>
</g>
</g>
<!-- Node8&#45;&gt;Node15 -->
<g id="edge14_Node000008_Node000015" class="edge">
<title>Node8&#45;&gt;Node15</title>
<g id="a_edge14_Node000008_Node000015"><a xlink:title=" ">
<path fill="none" stroke="#63b8ff" d="M463.41,-57.07C475.72,-48.93 493.22,-37.37 507.46,-27.97"/>
<polygon fill="#63b8ff" stroke="#63b8ff" points="509.01,-31.13 515.43,-22.7 505.16,-25.29 509.01,-31.13"/>
</a>
</g>
</g>
<!-- Node17&#45;&gt;Node7 -->
<g id="edge17_Node000017_Node000007" class="edge">
<title>Node17&#45;&gt;Node7</title>
<g id="a_edge17_Node000017_Node000007"><a xlink:title=" ">
<path fill="none" stroke="#63b8ff" d="M414,-179C414,-170.7 414,-158.6 414,-148.14"/>
<polygon fill="#63b8ff" stroke="#63b8ff" points="417.5,-148.45 414,-138.45 410.5,-148.45 417.5,-148.45"/>
</a>
</g>
</g>
<!-- Node19&#45;&gt;Node7 -->
<g id="edge21_Node000019_Node000007" class="edge">
<title>Node19&#45;&gt;Node7</title>
<g id="a_edge21_Node000019_Node000007"><a xlink:title=" ">
<path fill="none" stroke="#63b8ff" d="M108.74,-178.83C118.67,-176.64 129.18,-174.41 139,-172.5 214.62,-157.79 302.52,-143.69 358.2,-135.12"/>
<polygon fill="#63b8ff" stroke="#63b8ff" points="358.72,-138.58 368.08,-133.61 357.66,-131.66 358.72,-138.58"/>
</a>
</g>
</g>
<!-- Node20 -->
<g id="Node000020" class="node">
<title>Node20</title>
<g id="a_Node000020"><a xlink:title=" ">
<polygon fill="#e0e0e0" stroke="#999999" points="91,-136.5 39,-136.5 39,-115 91,-115 91,-136.5"/>
<text text-anchor="middle" x="65" y="-122.05" font-family="Consolas" font-size="11.00">future</text>
</a>
</g>
</g>
<!-- Node19&#45;&gt;Node20 -->
<g id="edge20_Node000019_Node000020" class="edge">
<title>Node19&#45;&gt;Node20</title>
<g id="a_edge20_Node000019_Node000020"><a xlink:title=" ">
<path fill="none" stroke="#63b8ff" d="M65,-179C65,-170.7 65,-158.6 65,-148.14"/>
<polygon fill="#63b8ff" stroke="#63b8ff" points="68.5,-148.45 65,-138.45 61.5,-148.45 68.5,-148.45"/>
</a>
</g>
</g>
<!-- Node21 -->
<g id="Node000021" class="node">
<title>Node21</title>
<g id="a_Node000021"><a xlink:href="../../d4/ddd/container_8h.html" target="_top" xlink:title=" ">
<polygon fill="white" stroke="#666666" points="273,-136.5 143,-136.5 143,-115 273,-115 273,-136.5"/>
<text text-anchor="middle" x="208" y="-122.05" font-family="Consolas" font-size="11.00">Toolbox/container.h</text>
</a>
</g>
</g>
<!-- Node19&#45;&gt;Node21 -->
<g id="edge22_Node000019_Node000021" class="edge">
<title>Node19&#45;&gt;Node21</title>
<g id="a_edge22_Node000019_Node000021"><a xlink:title=" ">
<path fill="none" stroke="#63b8ff" d="M88.29,-178.86C111.67,-168.69 147.9,-152.91 174.38,-141.38"/>
<polygon fill="#63b8ff" stroke="#63b8ff" points="175.56,-144.69 183.33,-137.49 172.76,-138.27 175.56,-144.69"/>
</a>
</g>
</g>
<!-- Node21&#45;&gt;Node8 -->
<g id="edge23_Node000021_Node000008" class="edge">
<title>Node21&#45;&gt;Node8</title>
<g id="a_edge23_Node000021_Node000008"><a xlink:title=" ">
<path fill="none" stroke="#63b8ff" d="M252.3,-114.51C294.7,-104.7 358.4,-89.97 401.51,-80"/>
<polygon fill="#63b8ff" stroke="#63b8ff" points="402.12,-83.45 411.07,-77.79 400.54,-76.63 402.12,-83.45"/>
</a>
</g>
</g>
<!-- Node22 -->
<g id="Node000022" class="node">
<title>Node22</title>
<g id="a_Node000022"><a xlink:title=" ">
<polygon fill="#e0e0e0" stroke="#999999" points="386,-79 352,-79 352,-57.5 386,-57.5 386,-79"/>
<text text-anchor="middle" x="369" y="-64.55" font-family="Consolas" font-size="11.00">set</text>
</a>
</g>
</g>
<!-- Node21&#45;&gt;Node22 -->
<g id="edge24_Node000021_Node000022" class="edge">
<title>Node21&#45;&gt;Node22</title>
<g id="a_edge24_Node000021_Node000022"><a xlink:title=" ">
<path fill="none" stroke="#63b8ff" d="M238.93,-114.58C264.1,-106.24 300.8,-93.92 340.87,-79.69"/>
<polygon fill="#63b8ff" stroke="#63b8ff" points="342.02,-83 350.26,-76.34 339.67,-76.4 342.02,-83"/>
</a>
</g>
</g>
<!-- Node23 -->
<g id="Node000023" class="node">
<title>Node23</title>
<g id="a_Node000023"><a xlink:title=" ">
<polygon fill="#e0e0e0" stroke="#999999" points="110,-79 76,-79 76,-57.5 110,-57.5 110,-79"/>
<text text-anchor="middle" x="93" y="-64.55" font-family="Consolas" font-size="11.00">map</text>
</a>
</g>
</g>
<!-- Node21&#45;&gt;Node23 -->
<g id="edge25_Node000021_Node000023" class="edge">
<title>Node21&#45;&gt;Node23</title>
<g id="a_edge25_Node000021_Node000023"><a xlink:title=" ">
<path fill="none" stroke="#63b8ff" d="M186.91,-114.57C168.22,-105.55 140.82,-92.33 120.43,-82.49"/>
<polygon fill="#63b8ff" stroke="#63b8ff" points="122.1,-79.41 111.57,-78.21 119.06,-85.71 122.1,-79.41"/>
</a>
</g>
</g>
<!-- Node24 -->
<g id="Node000024" class="node">
<title>Node24</title>
<g id="a_Node000024"><a xlink:title=" ">
<polygon fill="#e0e0e0" stroke="#999999" points="222,-79 128,-79 128,-57.5 222,-57.5 222,-79"/>
<text text-anchor="middle" x="175" y="-64.55" font-family="Consolas" font-size="11.00">unordered_set</text>
</a>
</g>
</g>
<!-- Node21&#45;&gt;Node24 -->
<g id="edge26_Node000021_Node000024" class="edge">
<title>Node21&#45;&gt;Node24</title>
<g id="a_edge26_Node000021_Node000024"><a xlink:title=" ">
<path fill="none" stroke="#63b8ff" d="M201.95,-114.57C197.71,-107.45 191.92,-97.71 186.79,-89.08"/>
<polygon fill="#63b8ff" stroke="#63b8ff" points="189.91,-87.47 181.79,-80.67 183.89,-91.05 189.91,-87.47"/>
</a>
</g>
</g>
<!-- Node25 -->
<g id="Node000025" class="node">
<title>Node25</title>
<g id="a_Node000025"><a xlink:title=" ">
<polygon fill="#e0e0e0" stroke="#999999" points="334,-79 240,-79 240,-57.5 334,-57.5 334,-79"/>
<text text-anchor="middle" x="287" y="-64.55" font-family="Consolas" font-size="11.00">unordered_map</text>
</a>
</g>
</g>
<!-- Node21&#45;&gt;Node25 -->
<g id="edge27_Node000021_Node000025" class="edge">
<title>Node21&#45;&gt;Node25</title>
<g id="a_edge27_Node000021_Node000025"><a xlink:title=" ">
<path fill="none" stroke="#63b8ff" d="M222.49,-114.57C233.96,-106.51 250.21,-95.1 263.53,-85.74"/>
<polygon fill="#63b8ff" stroke="#63b8ff" points="265.19,-88.85 271.36,-80.24 261.17,-83.12 265.19,-88.85"/>
</a>
</g>
</g>
<!-- Node26&#45;&gt;Node4 -->
<g id="edge29_Node000026_Node000004" class="edge">
<title>Node26&#45;&gt;Node4</title>
<g id="a_edge29_Node000026_Node000004"><a xlink:title=" ">
<path fill="none" stroke="#63b8ff" d="M404.53,-415.57C403.56,-408.84 402.26,-399.77 401.07,-391.52"/>
<polygon fill="#63b8ff" stroke="#63b8ff" points="404.56,-391.26 399.67,-381.86 397.64,-392.26 404.56,-391.26"/>
</a>
</g>
</g>
<!-- Node27&#45;&gt;Node7 -->
<g id="edge31_Node000027_Node000007" class="edge">
<title>Node27&#45;&gt;Node7</title>
<g id="a_edge31_Node000027_Node000007"><a xlink:title=" ">
<path fill="none" stroke="#63b8ff" d="M493.04,-473.07C498.63,-453.4 510,-408.7 510,-370.25 510,-370.25 510,-370.25 510,-253.25 510,-216.38 512.81,-202.23 491,-172.5 481.23,-159.18 466.31,-149.04 452.2,-141.73"/>
<polygon fill="#63b8ff" stroke="#63b8ff" points="454.04,-138.73 443.52,-137.56 451.01,-145.04 454.04,-138.73"/>
</a>
</g>
</g>
<!-- Node28 -->
<g id="Node000028" class="node">
<title>Node28</title>
<g id="a_Node000028"><a xlink:href="../../df/dec/_parameter_type_8h.html" target="_top" xlink:title=" ">
<polygon fill="white" stroke="#666666" points="644,-437.5 538,-437.5 538,-416 644,-416 644,-437.5"/>
<text text-anchor="middle" x="591" y="-423.05" font-family="Consolas" font-size="11.00">ParameterType.h</text>
</a>
</g>
</g>
<!-- Node27&#45;&gt;Node28 -->
<g id="edge32_Node000027_Node000028" class="edge">
<title>Node27&#45;&gt;Node28</title>
<g id="a_edge32_Node000027_Node000028"><a xlink:title=" ">
<path fill="none" stroke="#63b8ff" d="M508.52,-473.07C523.76,-464.7 545.59,-452.7 562.96,-443.16"/>
<polygon fill="#63b8ff" stroke="#63b8ff" points="564.19,-446.48 571.27,-438.59 560.82,-440.34 564.19,-446.48"/>
</a>
</g>
</g>
<!-- Node30 -->
<g id="Node000030" class="node">
<title>Node30</title>
<g id="a_Node000030"><a xlink:title=" ">
<polygon fill="#e0e0e0" stroke="#999999" points="714,-437.5 662,-437.5 662,-416 714,-416 714,-437.5"/>
<text text-anchor="middle" x="688" y="-423.05" font-family="Consolas" font-size="11.00">string</text>
</a>
</g>
</g>
<!-- Node29&#45;&gt;Node30 -->
<g id="edge34_Node000029_Node000030" class="edge">
<title>Node29&#45;&gt;Node30</title>
<g id="a_edge34_Node000029_Node000030"><a xlink:title=" ">
<path fill="none" stroke="#63b8ff" d="M652.07,-473.07C657.9,-465.72 665.95,-455.57 672.95,-446.73"/>
<polygon fill="#63b8ff" stroke="#63b8ff" points="675.57,-449.06 679.04,-439.05 670.09,-444.71 675.57,-449.06"/>
</a>
</g>
</g>
<!-- Node31&#45;&gt;Node10 -->
<g id="edge36_Node000031_Node000010" class="edge">
<title>Node31&#45;&gt;Node10</title>
<g id="a_edge36_Node000031_Node000010"><a xlink:title=" ">
<path fill="none" stroke="#63b8ff" d="M762.33,-243.18C756.35,-207.05 735.87,-83.41 727.55,-33.2"/>
<polygon fill="#63b8ff" stroke="#63b8ff" points="731.01,-32.65 725.92,-23.36 724.1,-33.79 731.01,-32.65"/>
</a>
</g>
</g>
<!-- Node32&#45;&gt;Node8 -->
<g id="edge38_Node000032_Node000008" class="edge">
<title>Node32&#45;&gt;Node8</title>
<g id="a_edge38_Node000032_Node000008"><a xlink:title=" ">
<path fill="none" stroke="#63b8ff" d="M642.97,-358.02C628.83,-338.96 601,-296.22 601,-255.25 601,-255.25 601,-255.25 601,-189 601,-134 538.93,-100.48 493.86,-83.39"/>
<polygon fill="#63b8ff" stroke="#63b8ff" points="495.12,-80.13 484.52,-80.01 492.74,-86.71 495.12,-80.13"/>
</a>
</g>
</g>
</g>
</svg>
