<svg xmlns="http://www.w3.org/2000/svg" xmlns:xlink="http://www.w3.org/1999/xlink" xml:space="preserve" id="main" onload="init(evt)"><style>.edge,.node,[data-mouse-over-selected=false]{opacity:.7}.edge.selected,.node.selected,[data-mouse-over-selected=true]{opacity:1}.edge:hover path{stroke:red}.edge:hover polygon{stroke:red;fill:red}</style><defs><g id="zoomPlus"><use xlink:href="#rim" fill="#404040"><set attributeName="fill" begin="zoomplus.mouseover" end="zoomplus.mouseout" to="#808080"/></use><path fill="none" stroke="#fff" stroke-width="1.5" d="M-4 0h8M0-4v8" pointer-events="none"/></g><g id="zoomMin"><use xlink:href="#rim" fill="#404040"><set attributeName="fill" begin="zoomminus.mouseover" end="zoomminus.mouseout" to="#808080"/></use><path fill="none" stroke="#fff" stroke-width="1.5" d="M-4 0h8" pointer-events="none"/></g><g id="arrowUp" transform="translate(30 24)"><use xlink:href="#rim"/><path fill="none" stroke="#fff" stroke-width="1.5" d="M0-3v7M-2.5-.5 0-3 2.5-.5" pointer-events="none"/></g><g id="arrowRight" transform="rotate(90 3.5 39.5)"><use xlink:href="#rim"/><path fill="none" stroke="#fff" stroke-width="1.5" d="M0-3v7M-2.5-.5 0-3 2.5-.5" pointer-events="none"/></g><g id="arrowDown" transform="matrix(-1 0 0 -1 30 48)"><use xlink:href="#rim"/><path fill="none" stroke="#fff" stroke-width="1.5" d="M0-3v7M-2.5-.5 0-3 2.5-.5" pointer-events="none"/></g><g id="arrowLeft" transform="rotate(-90 26.5 9.5)"><use xlink:href="#rim"/><path fill="none" stroke="#fff" stroke-width="1.5" d="M0-3v7M-2.5-.5 0-3 2.5-.5" pointer-events="none"/></g><circle id="rim" cx="0" cy="0" r="7"/><circle id="rim2" cx="0" cy="0" r="3.5"/><use xlink:href="#rim2" id="resetDef" fill="#404040"><set attributeName="fill" begin="reset.mouseover" end="reset.mouseout" to="#808080"/></use></defs><script type="application/ecmascript">var viewWidth = 847;
var viewHeight = 376;
var sectionId = &apos;dynsection-0&apos;;</script><script xlink:href="../../svg.min.js" type="application/ecmascript"/><svg id="graph" class="graph"><g id="viewport"><title>Element/Utility/B3DL.cpp</title><g id="Node000001" class="node"><title>Node1</title><a id="a_Node000001">
<path fill="#999" stroke="#666" d="M643-368H464v20h179z"/>
<text x="553.5" y="-355.2" font-family="Consolas" font-size="11" text-anchor="middle">Element/Utility/B3DL.cpp</text>
</a></g><g id="Node000002" class="node"><title>Node2</title><a xlink:href="../../d1/db9/_b3_d_l_8h.html" id="a_Node000002" target="_top">
<path fill="#fff" stroke="#666" d="M683-312h-57v20h57z"/>
<text x="654.5" y="-299.2" font-family="Consolas" font-size="11" text-anchor="middle">B3DL.h</text>
</a></g><g id="edge1_Node000001_Node000002" class="edge"><title>Node1-&gt;Node2</title><a id="a_edge1_Node000001_Node000002">
<path fill="none" stroke="#63b8ff" d="M570.63-347.84c15.91 8.51 39.83 21.29 58.05 31.04"/>
<path fill="#63b8ff" stroke="#63b8ff" d="m630.45-319.83 7.17 7.8-10.47-1.62z"/>
</a></g><g id="Node000012" class="node"><title>Node12</title><a xlink:href="../../d0/db8/_element_8h.html" id="a_Node000012" target="_top">
<path fill="#fff" stroke="#666" d="M563-312H432v20h131z"/>
<text x="497.5" y="-299.2" font-family="Consolas" font-size="11" text-anchor="middle">Element/Element.h</text>
</a></g><g id="edge11_Node000001_Node000012" class="edge"><title>Node1-&gt;Node12</title><a id="a_edge11_Node000001_Node000012">
<path fill="none" stroke="#63b8ff" d="M544-347.84c-8.17 7.88-20.16 19.44-29.91 28.84"/>
<path fill="#63b8ff" stroke="#63b8ff" d="m516.49-316.45-9.63 4.42 4.77-9.46z"/>
</a></g><g id="Node000003" class="node"><title>Node3</title><a xlink:href="../../dc/db8/_orientation_8h.html" id="a_Node000003" target="_top">
<path fill="#fff" stroke="#666" d="M838.5-256h-212v20h212z"/>
<text x="732.5" y="-243.2" font-family="Consolas" font-size="11" text-anchor="middle">Element/Utility/Orientation.h</text>
</a></g><g id="edge2_Node000002_Node000003" class="edge"><title>Node2-&gt;Node3</title><a id="a_edge2_Node000002_Node000003">
<path fill="none" stroke="#63b8ff" d="M667.73-291.84c11.84 8.2 29.41 20.36 43.26 29.95"/>
<path fill="#63b8ff" stroke="#63b8ff" d="m713.23-264.59 6.23 8.56-10.21-2.81z"/>
</a></g><g id="Node000004" class="node"><title>Node4</title><a xlink:href="../../d2/d4a/_tag_8h.html" id="a_Node000004" target="_top">
<path fill="#fff" stroke="#666" d="M741.5-132h-98v20h98z"/>
<text x="692.5" y="-119.2" font-family="Consolas" font-size="11" text-anchor="middle">Domain/Tag.h</text>
</a></g><g id="edge3_Node000003_Node000004" class="edge"><title>Node3-&gt;Node4</title><a id="a_edge3_Node000003_Node000004">
<path fill="none" stroke="#63b8ff" d="M736.38-235.54c5.52 15 13.95 44.85 4.12 67.54-5.13 11.84-15.07 21.99-24.58 29.63"/>
<path fill="#63b8ff" stroke="#63b8ff" d="m717.91-135.48-10.11 3.17 5.92-8.78z"/>
</a></g><g id="Node000005" class="node"><title>Node5</title><a xlink:href="../../d8/d8f/suan_pan_8h.html" id="a_Node000005" target="_top">
<path fill="#fff" stroke="#666" d="M352-76h-77v20h77z"/>
<text x="313.5" y="-63.2" font-family="Consolas" font-size="11" text-anchor="middle">suanPan.h</text>
</a></g><g id="edge4_Node000004_Node000005" class="edge"><title>Node4-&gt;Node5</title><a id="a_edge4_Node000004_Node000005">
<path fill="none" stroke="#63b8ff" d="M643.34-114c-72.73 10.37-208.22 29.67-280.85 40.02"/>
<path fill="#63b8ff" stroke="#63b8ff" d="m362.64-70.47-10.4-2.05 9.41-4.88z"/>
</a></g><g id="Node000006" class="node"><title>Node6</title><a id="a_Node000006">
<path fill="#e0e0e0" stroke="#999" d="M71-20H0V0h71z"/>
<text x="35.5" y="-7.2" font-family="Consolas" font-size="11" text-anchor="middle">iostream</text>
</a></g><g id="edge5_Node000005_Node000006" class="edge"><title>Node5-&gt;Node6</title><a id="a_edge5_Node000005_Node000006">
<path fill="none" stroke="#63b8ff" d="M274.96-57.73c-44.4 8.4-119.84 22.78-193.95 37.45"/>
<path fill="#63b8ff" stroke="#63b8ff" d="m81.52-16.82-10.49-1.49 9.13-5.37z"/>
</a></g><g id="Node000007" class="node"><title>Node7</title><a id="a_Node000007">
<path fill="#e0e0e0" stroke="#999" d="M200-20H89V0h111z"/>
<text x="144.5" y="-7.2" font-family="Consolas" font-size="11" text-anchor="middle">armadillo/arma</text>
</a></g><g id="edge6_Node000005_Node000007" class="edge"><title>Node5-&gt;Node7</title><a id="a_edge6_Node000005_Node000007">
<path fill="none" stroke="#63b8ff" d="M285.21-55.96c-28.15 8.99-71.53 22.85-102.68 32.81"/>
<path fill="#63b8ff" stroke="#63b8ff" d="m183.47-19.78-10.59-.29 8.46-6.38z"/>
</a></g><g id="Node000008" class="node"><title>Node8</title><a id="a_Node000008">
<path fill="#e0e0e0" stroke="#999" d="M302.5-20h-84V0h84z"/>
<text x="260.5" y="-7.2" font-family="Consolas" font-size="11" text-anchor="middle">filesystem</text>
</a></g><g id="edge7_Node000005_Node000008" class="edge"><title>Node5-&gt;Node8</title><a id="a_edge7_Node000005_Node000008">
<path fill="none" stroke="#63b8ff" d="M304.27-55.59c-7.6 7.74-18.56 18.9-27.61 28.12"/>
<path fill="#63b8ff" stroke="#63b8ff" d="m279.13-24.98-9.5 4.68 4.5-9.59z"/>
</a></g><g id="Node000009" class="node"><title>Node9</title><a id="a_Node000009">
<path fill="#e0e0e0" stroke="#999" d="M412-20h-91V0h91z"/>
<text x="366.5" y="-7.2" font-family="Consolas" font-size="11" text-anchor="middle">fmt/color.h</text>
</a></g><g id="edge8_Node000005_Node000009" class="edge"><title>Node5-&gt;Node9</title><a id="a_edge8_Node000005_Node000009">
<path fill="none" stroke="#63b8ff" d="M322.73-55.59c7.6 7.74 18.56 18.9 27.61 28.12"/>
<path fill="#63b8ff" stroke="#63b8ff" d="m352.87-29.89 4.5 9.59-9.5-4.68z"/>
</a></g><g id="Node000010" class="node"><title>Node10</title><a id="a_Node000010">
<path fill="#e0e0e0" stroke="#999" d="M480.5-20h-50V0h50z"/>
<text x="455.5" y="-7.2" font-family="Consolas" font-size="11" text-anchor="middle">mutex</text>
</a></g><g id="edge9_Node000005_Node000010" class="edge"><title>Node5-&gt;Node10</title><a id="a_edge9_Node000005_Node000010">
<path fill="none" stroke="#63b8ff" d="M337.27-55.96c23.24 8.84 58.84 22.38 84.91 32.29"/>
<path fill="#63b8ff" stroke="#63b8ff" d="m423.55-26.89 8.1 6.82-10.59-.28z"/>
</a></g><g id="Node000011" class="node"><title>Node11</title><a id="a_Node000011">
<path fill="#e0e0e0" stroke="#999" d="M556-20h-57V0h57z"/>
<text x="527.5" y="-7.2" font-family="Consolas" font-size="11" text-anchor="middle">memory</text>
</a></g><g id="edge10_Node000005_Node000011" class="edge"><title>Node5-&gt;Node11</title><a id="a_edge10_Node000005_Node000011">
<path fill="none" stroke="#63b8ff" d="m349.32-55.96 139.61 35.23"/>
<path fill="#63b8ff" stroke="#63b8ff" d="m489.93-24.09 8.84 5.84-10.55.95z"/>
</a></g><g id="Node000013" class="node"><title>Node13</title><a xlink:href="../../d1/d48/_distributed_8h.html" id="a_Node000013" target="_top">
<path fill="#fff" stroke="#666" d="M219.5-132h-158v20h158z"/>
<text x="140.5" y="-119.2" font-family="Consolas" font-size="11" text-anchor="middle">Element/Distributed.h</text>
</a></g><g id="edge12_Node000012_Node000013" class="edge"><title>Node12-&gt;Node13</title><a id="a_edge12_Node000012_Node000013">
<path fill="none" stroke="#63b8ff" d="M458.39-291.95C402.98-277.97 299.76-247.68 222.5-200c-26.99 16.66-52.74 43.17-67.96 60.33"/>
<path fill="#63b8ff" stroke="#63b8ff" d="m157.15-137.34-9.19 5.26 3.91-9.85z"/>
</a></g><g id="Node000014" class="node"><title>Node14</title><a xlink:href="../../d9/d82/_element_base_8h.html" id="a_Node000014" target="_top">
<path fill="#fff" stroke="#666" d="M576.5-256h-158v20h158z"/>
<text x="497.5" y="-243.2" font-family="Consolas" font-size="11" text-anchor="middle">Element/ElementBase.h</text>
</a></g><g id="edge14_Node000012_Node000014" class="edge"><title>Node12-&gt;Node14</title><a id="a_edge14_Node000012_Node000014">
<path fill="none" stroke="#63b8ff" d="M497.5-291.59v25.02"/>
<path fill="#63b8ff" stroke="#63b8ff" d="m501-266.3-3.5 10-3.5-10z"/>
</a></g><g id="edge13_Node000013_Node000005" class="edge"><title>Node13-&gt;Node5</title><a id="a_edge13_Node000013_Node000005">
<path fill="none" stroke="#63b8ff" d="M169.46-111.96c28.81 8.99 73.22 22.85 105.11 32.81"/>
<path fill="#63b8ff" stroke="#63b8ff" d="m275.95-82.39 8.5 6.32-10.59.36z"/>
</a></g><g id="edge17_Node000014_Node000004" class="edge"><title>Node14-&gt;Node4</title><a id="a_edge17_Node000014_Node000004">
<path fill="none" stroke="#63b8ff" d="M576.55-238.29c52.4 6.27 114.42 17.85 130.95 38.29 13.46 16.64 4.74 41.87-4 58.87"/>
<path fill="#63b8ff" stroke="#63b8ff" d="m706.45-139.23-7.93 7.03 1.81-10.44z"/>
</a></g><g id="Node000015" class="node"><title>Node15</title><a xlink:href="../../d1/d02/_node_8h.html" id="a_Node000015" target="_top">
<path fill="#fff" stroke="#666" d="M698.5-194h-104v20h104z"/>
<text x="646.5" y="-181.2" font-family="Consolas" font-size="11" text-anchor="middle">Domain/Node.h</text>
</a></g><g id="edge15_Node000014_Node000015" class="edge"><title>Node14-&gt;Node15</title><a id="a_edge15_Node000014_Node000015">
<path fill="none" stroke="#63b8ff" d="M520.13-235.89c25.2 10.15 66.11 26.62 94.53 38.07"/>
<path fill="#63b8ff" stroke="#63b8ff" d="m616.18-200.98 7.97 6.98-10.59-.49z"/>
</a></g><g id="Node000016" class="node"><title>Node16</title><a xlink:href="../../d6/d94/_mapping_d_o_f_8h.html" id="a_Node000016" target="_top">
<path fill="#fff" stroke="#666" d="M389.5-132h-152v20h152z"/>
<text x="313.5" y="-119.2" font-family="Consolas" font-size="11" text-anchor="middle">Element/MappingDOF.h</text>
</a></g><g id="edge18_Node000014_Node000016" class="edge"><title>Node14-&gt;Node16</title><a id="a_edge18_Node000014_Node000016">
<path fill="none" stroke="#63b8ff" d="M418.5-242.43c-68.99 4.1-161.65 14.76-185 42.43-9.17 10.87-7.18 19.72 0 32 8.59 14.69 23.95 24.96 38.92 31.94"/>
<path fill="#63b8ff" stroke="#63b8ff" d="m273.81-139.28 7.82 7.15-10.57-.71z"/>
</a></g><g id="Node000017" class="node"><title>Node17</title><a xlink:href="../../d9/dc0/vtk_base_8h.html" id="a_Node000017" target="_top">
<path fill="#fff" stroke="#666" d="M576.5-200h-158v32h158z"/>
<text x="426.5" y="-187.2" font-family="Consolas" font-size="11">Element/Visualisation</text>
<text x="497.5" y="-175.2" font-family="Consolas" font-size="11" text-anchor="middle">/vtkBase.h</text>
</a></g><g id="edge20_Node000014_Node000017" class="edge"><title>Node14-&gt;Node17</title><a id="a_edge20_Node000014_Node000017">
<path fill="none" stroke="#63b8ff" d="M497.5-235.89v25.45"/>
<path fill="#63b8ff" stroke="#63b8ff" d="m501-210.28-3.5 10-3.5-10z"/>
</a></g><g id="Node000018" class="node"><title>Node18</title><a xlink:href="../../d4/d0f/_output_type_8h.html" id="a_Node000018" target="_top">
<path fill="#fff" stroke="#666" d="M400.5-194h-158v20h158z"/>
<text x="321.5" y="-181.2" font-family="Consolas" font-size="11" text-anchor="middle">Recorder/OutputType.h</text>
</a></g><g id="edge21_Node000014_Node000018" class="edge"><title>Node14-&gt;Node18</title><a id="a_edge21_Node000014_Node000018">
<path fill="none" stroke="#63b8ff" d="M470.77-235.89 357.8-197.37"/>
<path fill="#63b8ff" stroke="#63b8ff" d="m358.5-193.92-10.59-.08 8.33-6.54z"/>
</a></g><g id="edge16_Node000015_Node000004" class="edge"><title>Node15-&gt;Node4</title><a id="a_edge16_Node000015_Node000004">
<path fill="none" stroke="#63b8ff" d="M653.49-173.89c6.82 8.9 17.37 22.67 25.78 33.64"/>
<path fill="#63b8ff" stroke="#63b8ff" d="m682.14-142.26 3.31 10.06-8.86-5.81z"/>
</a></g><g id="edge19_Node000016_Node000005" class="edge"><title>Node16-&gt;Node5</title><a id="a_edge19_Node000016_Node000005">
<path fill="none" stroke="#63b8ff" d="M313.5-111.59v25.02"/>
<path fill="#63b8ff" stroke="#63b8ff" d="m317-86.3-3.5 10-3.5-10z"/>
</a></g><g id="Node000019" class="node"><title>Node19</title><a id="a_Node000019">
<path fill="#e0e0e0" stroke="#999" d="M593-132H408v20h185z"/>
<text x="500.5" y="-119.2" font-family="Consolas" font-size="11" text-anchor="middle">magic_enum/magic_enum.hpp</text>
</a></g><g id="edge22_Node000018_Node000019" class="edge"><title>Node18-&gt;Node19</title><a id="a_edge22_Node000018_Node000019">
<path fill="none" stroke="#63b8ff" d="M348.69-173.89c30.8 10.33 81.14 27.2 115.33 38.66"/>
<path fill="#63b8ff" stroke="#63b8ff" d="m465.28-138.5 8.36 6.5-10.59.14z"/>
</a></g></g></svg><g id="navigator" fill="#404254"><path fill="#f2f5e9" fill-opacity=".5" stroke="#606060" stroke-width=".5" d="M0 0h60v60H0z"/><use xlink:href="#zoomPlus" id="zoomplus" x="17" y="9" onmousedown="handleZoom(evt,'in')"/><use xlink:href="#zoomMin" id="zoomminus" x="42" y="9" onmousedown="handleZoom(evt,'out')"/><use xlink:href="#resetDef" id="reset" x="30" y="36" onmousedown="handleReset()"/><use xlink:href="#arrowUp" id="arrowup" x="0" y="0" onmousedown="handlePan(0,-1)"/><use xlink:href="#arrowRight" id="arrowright" x="0" y="0" onmousedown="handlePan(1,0)"/><use xlink:href="#arrowDown" id="arrowdown" x="0" y="0" onmousedown="handlePan(0,1)"/><use xlink:href="#arrowLeft" id="arrowleft" x="0" y="0" onmousedown="handlePan(-1,0)"/></g><svg height="30" preserveAspectRatio="xMaxYMin meet" viewBox="0 0 15 15"><a xlink:href="_b3_d_l_8cpp__incl_org.svg" id="arrow_out" target="_base" transform="scale(.3)">
   <rect id="button" width="38" height="38" x="6" y="6" fill="#f2f5e9" fill-opacity=".5" stroke="#606060" stroke-width="1" rx="5" ry="5"/>
   <path id="arrow" d="M11.5 31.437c.44-11.34 10.543-20.114 20.659-9.458l4.91-4.733.02 14.754-14.929-.022 4.838-4.838c-8.47-8.876-13.706-1.91-15.498 4.297" style="fill:#404040"/>
  </a></svg><script type="application/ecmascript"><![CDATA[
document.addEventListener('DOMContentLoaded', (event) => {
  highlightEdges();
  highlightAdjacentNodes();
});
]]></script></svg>