<?xml version="1.0" encoding="UTF-8" standalone="no"?>
<!DOCTYPE svg PUBLIC "-//W3C//DTD SVG 1.1//EN"
 "http://www.w3.org/Graphics/SVG/1.1/DTD/svg11.dtd">
<!-- Generated by graphviz version 5.0.0 (0)
 -->
<!-- Title: Viscosity02 Pages: 1 -->
<svg width="1252pt" height="1070pt"
 viewBox="0.00 0.00 1251.50 1070.00" xmlns="http://www.w3.org/2000/svg" xmlns:xlink="http://www.w3.org/1999/xlink">
<g id="graph0" class="graph" transform="scale(1 1) rotate(0) translate(4 1066)">
<title>Viscosity02</title>
<!-- Node1 -->
<g id="node1" class="node">
<title>Node1</title>
<g id="a_node1"><a xlink:title="A 1D Viscosity class.">
<polygon fill="#999999" stroke="#666666" points="140,-56 9,-56 9,0 140,0 140,-56"/>
<text text-anchor="middle" x="74.5" y="-43.2" font-family="Consolas" font-size="11.00">{Viscosity02</text>
<text text-anchor="start" x="17" y="-31.2" font-family="Consolas" font-size="11.00">||+ Viscosity02()</text>
<text text-anchor="start" x="17" y="-19.2" font-family="Consolas" font-size="11.00">+ get_copy()</text>
<text text-anchor="middle" x="74.5" y="-7.2" font-family="Consolas" font-size="11.00">}</text>
</a>
</g>
</g>
<!-- Node2 -->
<g id="node2" class="node">
<title>Node2</title>
<g id="a_node2"><a xlink:href="../../d6/d9d/struct_data_viscosity02.html" target="_top" xlink:title=" ">
<polygon fill="white" stroke="#666666" points="125,-632 0,-632 0,-600 125,-600 125,-632"/>
<text text-anchor="middle" x="62.5" y="-619.2" font-family="Consolas" font-size="11.00">{DataViscosity02</text>
<text text-anchor="middle" x="62.5" y="-607.2" font-family="Consolas" font-size="11.00">||}</text>
</a>
</g>
</g>
<!-- Node2&#45;&gt;Node1 -->
<g id="edge1" class="edge">
<title>Node2&#45;&gt;Node1</title>
<path fill="none" stroke="#8b1a1a" d="M62.5,-589.71C62.5,-547.36 62.5,-459.41 62.5,-385 62.5,-385 62.5,-385 62.5,-162 62.5,-125.25 67.1,-83.03 70.6,-56.19"/>
<polygon fill="none" stroke="#8b1a1a" points="59,-589.93 62.5,-599.93 66,-589.93 59,-589.93"/>
</g>
<!-- Node3 -->
<g id="node3" class="node">
<title>Node3</title>
<g id="a_node3"><a xlink:title=" ">
<polygon fill="white" stroke="#666666" points="201.5,-1062 137.5,-1062 137.5,-1030 201.5,-1030 201.5,-1062"/>
<text text-anchor="middle" x="169.5" y="-1049.2" font-family="Consolas" font-size="11.00">{double</text>
<text text-anchor="middle" x="169.5" y="-1037.2" font-family="Consolas" font-size="11.00">||}</text>
</a>
</g>
</g>
<!-- Node3&#45;&gt;Node2 -->
<g id="edge2" class="edge">
<title>Node3&#45;&gt;Node2</title>
<path fill="none" stroke="#404040" d="M137.36,-1044.55C112.78,-1042.29 80.32,-1034.8 63.5,-1012 -20.26,-898.5 29.94,-712.38 52.9,-643.61"/>
<polygon fill="none" stroke="#404040" points="52.93,-643.53 51.1,-636.56 56.83,-632.18 58.66,-639.16 52.93,-643.53"/>
<text text-anchor="middle" x="101" y="-973.2" font-family="Consolas" font-size="11.00"> +damping_a</text>
<text text-anchor="middle" x="101" y="-961.2" font-family="Consolas" font-size="11.00">+damping_b</text>
<text text-anchor="middle" x="101" y="-949.2" font-family="Consolas" font-size="11.00">+damping_c</text>
<text text-anchor="middle" x="101" y="-937.2" font-family="Consolas" font-size="11.00">+damping_d</text>
<text text-anchor="middle" x="101" y="-925.2" font-family="Consolas" font-size="11.00">+gap_a</text>
<text text-anchor="middle" x="101" y="-913.2" font-family="Consolas" font-size="11.00">+gap_b</text>
</g>
<!-- Node5 -->
<g id="node5" class="node">
<title>Node5</title>
<g id="a_node5"><a xlink:href="../../d0/dd3/struct_data_nonlinear_viscosity.html" target="_top" xlink:title=" ">
<polygon fill="white" stroke="#666666" points="254.5,-400 82.5,-400 82.5,-368 254.5,-368 254.5,-400"/>
<text text-anchor="middle" x="168.5" y="-387.2" font-family="Consolas" font-size="11.00">{DataNonlinearViscosity</text>
<text text-anchor="middle" x="168.5" y="-375.2" font-family="Consolas" font-size="11.00">||}</text>
</a>
</g>
</g>
<!-- Node3&#45;&gt;Node5 -->
<g id="edge5" class="edge">
<title>Node3&#45;&gt;Node5</title>
<path fill="none" stroke="#404040" d="M167.94,-1029.9C167.41,-1024.29 166.86,-1017.86 166.5,-1012 162.37,-945.42 162.61,-928.69 161.5,-862 159.93,-767.79 160.26,-744.21 161.5,-650 162.65,-563.14 165.91,-460.3 167.54,-412.27"/>
<polygon fill="none" stroke="#404040" points="167.54,-412.23 163.75,-406.09 167.96,-400.23 171.75,-406.37 167.54,-412.23"/>
<text text-anchor="middle" x="185.5" y="-759.2" font-family="Consolas" font-size="11.00"> +alpha</text>
<text text-anchor="middle" x="185.5" y="-747.2" font-family="Consolas" font-size="11.00">+limit</text>
</g>
<!-- Node8 -->
<g id="node8" class="node">
<title>Node8</title>
<g id="a_node8"><a xlink:href="../../de/de9/struct_data_material.html" target="_top" xlink:title=" ">
<polygon fill="white" stroke="#666666" points="727,-802 582,-802 582,-710 727,-710 727,-802"/>
<text text-anchor="middle" x="654.5" y="-789.2" font-family="Consolas" font-size="11.00">{DataMaterial</text>
<text text-anchor="start" x="590" y="-777.2" font-family="Consolas" font-size="11.00">|+ trial_strain</text>
<text text-anchor="start" x="590" y="-765.2" font-family="Consolas" font-size="11.00">+ trial_strain_rate</text>
<text text-anchor="start" x="590" y="-753.2" font-family="Consolas" font-size="11.00">+ trial_strain_acc</text>
<text text-anchor="start" x="590" y="-741.2" font-family="Consolas" font-size="11.00">+ trial_stress</text>
<text text-anchor="start" x="590" y="-729.2" font-family="Consolas" font-size="11.00">+ trial_history</text>
<text text-anchor="middle" x="654.5" y="-717.2" font-family="Consolas" font-size="11.00">|}</text>
</a>
</g>
</g>
<!-- Node3&#45;&gt;Node8 -->
<g id="edge9" class="edge">
<title>Node3&#45;&gt;Node8</title>
<path fill="none" stroke="#404040" d="M201.56,-1044.39C287.29,-1042.46 517.05,-1035.15 541.5,-1012 584.54,-971.25 537.54,-934.64 560.5,-880 570.79,-855.51 587.15,-831.59 603.35,-811.46"/>
<polygon fill="none" stroke="#404040" points="603.37,-811.44 604.11,-804.27 611.02,-802.19 610.28,-809.36 603.37,-811.44"/>
<text text-anchor="middle" x="594.5" y="-949.2" font-family="Consolas" font-size="11.00"> +density</text>
<text text-anchor="middle" x="594.5" y="-937.2" font-family="Consolas" font-size="11.00">+tolerance</text>
</g>
<!-- Node12 -->
<g id="node12" class="node">
<title>Node12</title>
<g id="a_node12"><a xlink:href="../../da/de4/struct_data_couple_material.html" target="_top" xlink:title=" ">
<polygon fill="white" stroke="#666666" points="493,-772 348,-772 348,-740 493,-740 493,-772"/>
<text text-anchor="middle" x="420.5" y="-759.2" font-family="Consolas" font-size="11.00">{DataCoupleMaterial</text>
<text text-anchor="middle" x="420.5" y="-747.2" font-family="Consolas" font-size="11.00">||}</text>
</a>
</g>
</g>
<!-- Node3&#45;&gt;Node12 -->
<g id="edge14" class="edge">
<title>Node3&#45;&gt;Node12</title>
<path fill="none" stroke="#404040" d="M168.37,-1029.95C165.98,-993.34 162.15,-901.09 182.5,-880 206.89,-854.73 308.92,-879.26 339.5,-862 371.35,-844.02 394.86,-807.93 408.12,-783.12"/>
<polygon fill="none" stroke="#404040" points="408.18,-782.99 407.35,-775.83 413.64,-772.3 414.47,-779.47 408.18,-782.99"/>
<text text-anchor="middle" x="260.5" y="-943.2" font-family="Consolas" font-size="11.00"> +characteristic_length</text>
</g>
<!-- Node4 -->
<g id="node4" class="node">
<title>Node4</title>
<g id="a_node4"><a xlink:href="../../df/db0/class_nonlinear_viscosity.html" target="_top" xlink:title="A 1D Viscosity class.">
<polygon fill="white" stroke="#666666" points="270,-233 91,-233 91,-93 270,-93 270,-233"/>
<text text-anchor="middle" x="180.5" y="-220.2" font-family="Consolas" font-size="11.00">{NonlinearViscosity</text>
<text text-anchor="start" x="99" y="-208.2" font-family="Consolas" font-size="11.00">||+ NonlinearViscosity()</text>
<text text-anchor="start" x="99" y="-196.2" font-family="Consolas" font-size="11.00">+ initialize()</text>
<text text-anchor="start" x="99" y="-184.2" font-family="Consolas" font-size="11.00">+ update_trial_status()</text>
<text text-anchor="start" x="99" y="-172.2" font-family="Consolas" font-size="11.00">+ update_trial_status()</text>
<text text-anchor="start" x="99" y="-160.2" font-family="Consolas" font-size="11.00">+ clear_status()</text>
<text text-anchor="start" x="99" y="-148.2" font-family="Consolas" font-size="11.00">+ commit_status()</text>
<text text-anchor="start" x="99" y="-136.2" font-family="Consolas" font-size="11.00">+ reset_status()</text>
<text text-anchor="start" x="99" y="-124.2" font-family="Consolas" font-size="11.00">+ record()</text>
<text text-anchor="start" x="99" y="-112.2" font-family="Consolas" font-size="11.00">+ print()</text>
<text text-anchor="middle" x="180.5" y="-100.2" font-family="Consolas" font-size="11.00">}</text>
</a>
</g>
</g>
<!-- Node4&#45;&gt;Node1 -->
<g id="edge3" class="edge">
<title>Node4&#45;&gt;Node1</title>
<path fill="none" stroke="#63b8ff" d="M119.04,-84.88C110.87,-74.63 102.97,-64.73 96.16,-56.18"/>
<polygon fill="none" stroke="#63b8ff" points="116.36,-87.13 125.33,-92.77 121.83,-82.77 116.36,-87.13"/>
</g>
<!-- Node5&#45;&gt;Node4 -->
<g id="edge4" class="edge">
<title>Node5&#45;&gt;Node4</title>
<path fill="none" stroke="#8b1a1a" d="M169.88,-357.86C171.53,-327.66 174.38,-275.74 176.71,-233.24"/>
<polygon fill="none" stroke="#8b1a1a" points="166.38,-357.77 169.32,-367.95 173.37,-358.15 166.38,-357.77"/>
</g>
<!-- Node6 -->
<g id="node6" class="node">
<title>Node6</title>
<g id="a_node6"><a xlink:href="../../d9/d97/class_material1_d.html" target="_top" xlink:title="A Material1D class.">
<polygon fill="white" stroke="#666666" points="408.5,-350 236.5,-350 236.5,-270 408.5,-270 408.5,-350"/>
<text text-anchor="middle" x="322.5" y="-337.2" font-family="Consolas" font-size="11.00">{Material1D</text>
<text text-anchor="start" x="244.5" y="-325.2" font-family="Consolas" font-size="11.00">||+ Material1D()</text>
<text text-anchor="start" x="244.5" y="-313.2" font-family="Consolas" font-size="11.00">+ get_trial_stiffness()</text>
<text text-anchor="start" x="244.5" y="-301.2" font-family="Consolas" font-size="11.00">+ record()</text>
<text text-anchor="start" x="244.5" y="-289.2" font-family="Consolas" font-size="11.00">+ print()</text>
<text text-anchor="middle" x="322.5" y="-277.2" font-family="Consolas" font-size="11.00">}</text>
</a>
</g>
</g>
<!-- Node6&#45;&gt;Node4 -->
<g id="edge6" class="edge">
<title>Node6&#45;&gt;Node4</title>
<path fill="none" stroke="#63b8ff" d="M276.89,-262.43C267.74,-253.08 257.95,-243.08 248.23,-233.16"/>
<polygon fill="none" stroke="#63b8ff" points="274.58,-265.07 284.07,-269.76 279.58,-260.17 274.58,-265.07"/>
</g>
<!-- Node7 -->
<g id="node7" class="node">
<title>Node7</title>
<g id="a_node7"><a xlink:href="../../dc/dee/class_material.html" target="_top" xlink:title="A Material abstract base class.">
<polygon fill="white" stroke="#666666" points="433,-582 268,-582 268,-418 433,-418 433,-582"/>
<text text-anchor="middle" x="350.5" y="-569.2" font-family="Consolas" font-size="11.00">{Material</text>
<text text-anchor="start" x="276" y="-557.2" font-family="Consolas" font-size="11.00">||+ Material()</text>
<text text-anchor="start" x="276" y="-545.2" font-family="Consolas" font-size="11.00">+ Material()</text>
<text text-anchor="start" x="276" y="-533.2" font-family="Consolas" font-size="11.00">+ Material()</text>
<text text-anchor="start" x="276" y="-521.2" font-family="Consolas" font-size="11.00">+ operator=()</text>
<text text-anchor="start" x="276" y="-509.2" font-family="Consolas" font-size="11.00">+ operator=()</text>
<text text-anchor="start" x="276" y="-497.2" font-family="Consolas" font-size="11.00">+ ~Material()</text>
<text text-anchor="start" x="276" y="-485.2" font-family="Consolas" font-size="11.00">+ initialize_base()</text>
<text text-anchor="start" x="276" y="-473.2" font-family="Consolas" font-size="11.00">+ initialize()</text>
<text text-anchor="start" x="276" y="-461.2" font-family="Consolas" font-size="11.00">+ initialize_couple()</text>
<text text-anchor="start" x="276" y="-449.2" font-family="Consolas" font-size="11.00">+ initialize_history()</text>
<text text-anchor="start" x="276" y="-437.2" font-family="Consolas" font-size="11.00">and 70 more...</text>
<text text-anchor="middle" x="350.5" y="-425.2" font-family="Consolas" font-size="11.00">}</text>
</a>
</g>
</g>
<!-- Node7&#45;&gt;Node6 -->
<g id="edge7" class="edge">
<title>Node7&#45;&gt;Node6</title>
<path fill="none" stroke="#63b8ff" d="M336.94,-407.96C333.92,-387.65 330.86,-367.14 328.35,-350.26"/>
<polygon fill="none" stroke="#63b8ff" points="333.49,-408.53 338.42,-417.91 340.41,-407.5 333.49,-408.53"/>
</g>
<!-- Node8&#45;&gt;Node7 -->
<g id="edge8" class="edge">
<title>Node8&#45;&gt;Node7</title>
<path fill="none" stroke="darkgreen" d="M592.7,-703.37C546.74,-664.96 483.53,-612.15 433.21,-570.1"/>
<polygon fill="none" stroke="darkgreen" points="590.58,-706.16 600.5,-709.88 595.07,-700.78 590.58,-706.16"/>
</g>
<!-- Node9 -->
<g id="node9" class="node">
<title>Node9</title>
<g id="a_node9"><a xlink:title=" ">
<polygon fill="white" stroke="#666666" points="1210,-1062 1065,-1062 1065,-1030 1210,-1030 1210,-1062"/>
<text text-anchor="middle" x="1137.5" y="-1049.2" font-family="Consolas" font-size="11.00">{const MaterialType</text>
<text text-anchor="middle" x="1137.5" y="-1037.2" font-family="Consolas" font-size="11.00">||}</text>
</a>
</g>
</g>
<!-- Node9&#45;&gt;Node8 -->
<g id="edge10" class="edge">
<title>Node9&#45;&gt;Node8</title>
<path fill="none" stroke="#404040" d="M1139.58,-1029.97C1143.11,-997.95 1146.49,-922.46 1107.5,-880 1058.13,-826.23 855.99,-787.48 739.09,-769.06"/>
<polygon fill="none" stroke="#404040" points="738.87,-769.02 732.33,-772.05 727.01,-767.18 733.56,-764.15 738.87,-769.02"/>
<text text-anchor="middle" x="1192.5" y="-943.2" font-family="Consolas" font-size="11.00"> +material_type</text>
</g>
<!-- Node10 -->
<g id="node10" class="node">
<title>Node10</title>
<g id="a_node10"><a xlink:title=" ">
<polygon fill="white" stroke="#666666" points="910.5,-1062 866.5,-1062 866.5,-1030 910.5,-1030 910.5,-1062"/>
<text text-anchor="middle" x="888.5" y="-1049.2" font-family="Consolas" font-size="11.00">{vec</text>
<text text-anchor="middle" x="888.5" y="-1037.2" font-family="Consolas" font-size="11.00">||}</text>
</a>
</g>
</g>
<!-- Node10&#45;&gt;Node8 -->
<g id="edge11" class="edge">
<title>Node10&#45;&gt;Node8</title>
<path fill="none" stroke="#404040" d="M910.73,-1040.68C926.49,-1036.34 946.54,-1027.9 956.5,-1012 972.07,-987.14 972.87,-904.34 956.5,-880 908.34,-808.39 810.46,-778.45 739.15,-765.94"/>
<polygon fill="none" stroke="#404040" points="738.89,-765.9 732.32,-768.87 727.05,-763.94 733.62,-760.98 738.89,-765.9"/>
<text text-anchor="middle" x="1035.5" y="-1003.2" font-family="Consolas" font-size="11.00"> +current_history</text>
<text text-anchor="middle" x="1035.5" y="-991.2" font-family="Consolas" font-size="11.00">+current_strain</text>
<text text-anchor="middle" x="1035.5" y="-979.2" font-family="Consolas" font-size="11.00">+current_strain_acc</text>
<text text-anchor="middle" x="1035.5" y="-967.2" font-family="Consolas" font-size="11.00">+current_strain_rate</text>
<text text-anchor="middle" x="1035.5" y="-955.2" font-family="Consolas" font-size="11.00">+current_stress</text>
<text text-anchor="middle" x="1035.5" y="-943.2" font-family="Consolas" font-size="11.00">+incre_strain</text>
<text text-anchor="middle" x="1035.5" y="-931.2" font-family="Consolas" font-size="11.00">+incre_strain_acc</text>
<text text-anchor="middle" x="1035.5" y="-919.2" font-family="Consolas" font-size="11.00">+incre_strain_rate</text>
<text text-anchor="middle" x="1035.5" y="-907.2" font-family="Consolas" font-size="11.00">+incre_stress</text>
<text text-anchor="middle" x="1035.5" y="-895.2" font-family="Consolas" font-size="11.00">+initial_history</text>
<text text-anchor="middle" x="1035.5" y="-883.2" font-family="Consolas" font-size="11.00">...</text>
</g>
<!-- Node10&#45;&gt;Node12 -->
<g id="edge15" class="edge">
<title>Node10&#45;&gt;Node12</title>
<path fill="none" stroke="#404040" d="M866.3,-1043.32C845.04,-1040.47 813.72,-1032.77 796.5,-1012 758.59,-966.26 818.93,-920.53 775.5,-880 742.55,-849.25 615.91,-877.25 573.5,-862 523.33,-843.96 474.09,-805.37 445.54,-780.33"/>
<polygon fill="none" stroke="#404040" points="445.28,-780.1 438.14,-779.08 436.34,-772.1 443.47,-773.12 445.28,-780.1"/>
<text text-anchor="middle" x="874.5" y="-973.2" font-family="Consolas" font-size="11.00"> +current_couple_stress</text>
<text text-anchor="middle" x="874.5" y="-961.2" font-family="Consolas" font-size="11.00">+current_curvature</text>
<text text-anchor="middle" x="874.5" y="-949.2" font-family="Consolas" font-size="11.00">+incre_couple_stress</text>
<text text-anchor="middle" x="874.5" y="-937.2" font-family="Consolas" font-size="11.00">+incre_curvature</text>
<text text-anchor="middle" x="874.5" y="-925.2" font-family="Consolas" font-size="11.00">+trial_couple_stress</text>
<text text-anchor="middle" x="874.5" y="-913.2" font-family="Consolas" font-size="11.00">+trial_curvature</text>
</g>
<!-- Node11 -->
<g id="node11" class="node">
<title>Node11</title>
<g id="a_node11"><a xlink:title=" ">
<polygon fill="white" stroke="#666666" points="531.5,-1062 487.5,-1062 487.5,-1030 531.5,-1030 531.5,-1062"/>
<text text-anchor="middle" x="509.5" y="-1049.2" font-family="Consolas" font-size="11.00">{mat</text>
<text text-anchor="middle" x="509.5" y="-1037.2" font-family="Consolas" font-size="11.00">||}</text>
</a>
</g>
</g>
<!-- Node11&#45;&gt;Node8 -->
<g id="edge12" class="edge">
<title>Node11&#45;&gt;Node8</title>
<path fill="none" stroke="#404040" d="M531.68,-1042.11C563.48,-1037.48 619.65,-1027.34 632.5,-1012 644.9,-997.2 650.6,-884.94 652.99,-814.39"/>
<polygon fill="none" stroke="#404040" points="653,-814.16 649.19,-808.04 653.38,-802.17 657.19,-808.29 653,-814.16"/>
<text text-anchor="middle" x="710.5" y="-991.2" font-family="Consolas" font-size="11.00"> +current_damping</text>
<text text-anchor="middle" x="710.5" y="-979.2" font-family="Consolas" font-size="11.00">+current_inertial</text>
<text text-anchor="middle" x="710.5" y="-967.2" font-family="Consolas" font-size="11.00">+current_stiffness</text>
<text text-anchor="middle" x="710.5" y="-955.2" font-family="Consolas" font-size="11.00">+initial_damping</text>
<text text-anchor="middle" x="710.5" y="-943.2" font-family="Consolas" font-size="11.00">+initial_inertial</text>
<text text-anchor="middle" x="710.5" y="-931.2" font-family="Consolas" font-size="11.00">+initial_stiffness</text>
<text text-anchor="middle" x="710.5" y="-919.2" font-family="Consolas" font-size="11.00">+trial_damping</text>
<text text-anchor="middle" x="710.5" y="-907.2" font-family="Consolas" font-size="11.00">+trial_inertial</text>
<text text-anchor="middle" x="710.5" y="-895.2" font-family="Consolas" font-size="11.00">+trial_stiffness</text>
</g>
<!-- Node11&#45;&gt;Node12 -->
<g id="edge16" class="edge">
<title>Node11&#45;&gt;Node12</title>
<path fill="none" stroke="#404040" d="M487.31,-1043.22C450.77,-1039.77 380.48,-1030.81 365.5,-1012 310.66,-943.18 370.75,-831.93 402.9,-782.3"/>
<polygon fill="none" stroke="#404040" points="403.01,-782.14 403,-774.93 409.65,-772.14 409.66,-779.35 403.01,-782.14"/>
<text text-anchor="middle" x="453.5" y="-955.2" font-family="Consolas" font-size="11.00"> +current_couple_stiffness</text>
<text text-anchor="middle" x="453.5" y="-943.2" font-family="Consolas" font-size="11.00">+initial_couple_stiffness</text>
<text text-anchor="middle" x="453.5" y="-931.2" font-family="Consolas" font-size="11.00">+trial_couple_stiffness</text>
</g>
<!-- Node12&#45;&gt;Node7 -->
<g id="edge13" class="edge">
<title>Node12&#45;&gt;Node7</title>
<path fill="none" stroke="darkgreen" d="M413.57,-729.86C404.18,-695.78 386.97,-633.34 372.9,-582.28"/>
<polygon fill="none" stroke="darkgreen" points="410.3,-731.16 416.33,-739.87 417.05,-729.3 410.3,-731.16"/>
</g>
<!-- Node13 -->
<g id="node13" class="node">
<title>Node13</title>
<g id="a_node13"><a xlink:href="../../d0/d57/class_tag.html" target="_top" xlink:title="A base Tag class.">
<polygon fill="white" stroke="#666666" points="330,-862 219,-862 219,-650 330,-650 330,-862"/>
<text text-anchor="middle" x="274.5" y="-849.2" font-family="Consolas" font-size="11.00">{Tag</text>
<text text-anchor="start" x="227" y="-837.2" font-family="Consolas" font-size="11.00">||+ Tag()</text>
<text text-anchor="start" x="227" y="-825.2" font-family="Consolas" font-size="11.00">+ Tag()</text>
<text text-anchor="start" x="227" y="-813.2" font-family="Consolas" font-size="11.00">+ Tag()</text>
<text text-anchor="start" x="227" y="-801.2" font-family="Consolas" font-size="11.00">+ operator=()</text>
<text text-anchor="start" x="227" y="-789.2" font-family="Consolas" font-size="11.00">+ operator=()</text>
<text text-anchor="start" x="227" y="-777.2" font-family="Consolas" font-size="11.00">+ ~Tag()</text>
<text text-anchor="start" x="227" y="-765.2" font-family="Consolas" font-size="11.00">+ set_tag()</text>
<text text-anchor="start" x="227" y="-753.2" font-family="Consolas" font-size="11.00">+ get_tag()</text>
<text text-anchor="start" x="227" y="-741.2" font-family="Consolas" font-size="11.00">+ enable()</text>
<text text-anchor="start" x="227" y="-729.2" font-family="Consolas" font-size="11.00">+ disable()</text>
<text text-anchor="start" x="227" y="-717.2" font-family="Consolas" font-size="11.00">+ guard()</text>
<text text-anchor="start" x="227" y="-705.2" font-family="Consolas" font-size="11.00">+ unguard()</text>
<text text-anchor="start" x="227" y="-693.2" font-family="Consolas" font-size="11.00">+ is_active()</text>
<text text-anchor="start" x="227" y="-681.2" font-family="Consolas" font-size="11.00">+ is_guarded()</text>
<text text-anchor="start" x="227" y="-669.2" font-family="Consolas" font-size="11.00">+ print()</text>
<text text-anchor="middle" x="274.5" y="-657.2" font-family="Consolas" font-size="11.00">}</text>
</a>
</g>
</g>
<!-- Node13&#45;&gt;Node7 -->
<g id="edge17" class="edge">
<title>Node13&#45;&gt;Node7</title>
<path fill="none" stroke="#63b8ff" d="M308.84,-640.25C314.71,-620.6 320.71,-600.55 326.26,-582.02"/>
<polygon fill="none" stroke="#63b8ff" points="305.47,-639.27 305.96,-649.85 312.18,-641.28 305.47,-639.27"/>
</g>
</g>
</svg>
