<?xml version="1.0" encoding="UTF-8" standalone="no"?>
<!DOCTYPE svg PUBLIC "-//W3C//DTD SVG 1.1//EN"
 "http://www.w3.org/Graphics/SVG/1.1/DTD/svg11.dtd">
<!-- Generated by graphviz version 8.1.0 (20230707.0739)
 -->
<!-- Title: CustomAmplitude::initialize Pages: 1 -->
<svg width="376pt" height="110pt"
 viewBox="0.00 0.00 376.00 109.50" xmlns="http://www.w3.org/2000/svg" xmlns:xlink="http://www.w3.org/1999/xlink">
<g id="graph0" class="graph" transform="scale(1 1) rotate(0) translate(4 105.5)">
<title>CustomAmplitude::initialize</title>
<!-- Node1 -->
<g id="Node000001" class="node">
<title>Node1</title>
<g id="a_Node000001"><a xlink:title=" ">
<polygon fill="#999999" stroke="#666666" points="178,-61.5 0,-61.5 0,-40 178,-40 178,-61.5"/>
<text text-anchor="middle" x="89" y="-47.05" font-family="Consolas" font-size="11.00">CustomAmplitude::initialize</text>
</a>
</g>
</g>
<!-- Node2 -->
<g id="Node000002" class="node">
<title>Node2</title>
<g id="a_Node000002"><a xlink:href="../../d0/d57/class_tag.html#ac0f87379856fb9f3e6f11f4d9971d9f8" target="_top" xlink:title=" ">
<polygon fill="white" stroke="#666666" points="335,-101.5 247,-101.5 247,-80 335,-80 335,-101.5"/>
<text text-anchor="middle" x="291" y="-87.05" font-family="Consolas" font-size="11.00">Tag::get_tag</text>
</a>
</g>
</g>
<!-- Node1&#45;&gt;Node2 -->
<g id="edge1_Node000001_Node000002" class="edge">
<title>Node1&#45;&gt;Node2</title>
<g id="a_edge1_Node000001_Node000002"><a xlink:title=" ">
<path fill="none" stroke="#63b8ff" d="M146.24,-62C174.29,-67.61 208.06,-74.36 235.82,-79.91"/>
<polygon fill="#63b8ff" stroke="#63b8ff" points="235.04,-83.53 245.53,-82.06 236.41,-76.66 235.04,-83.53"/>
</a>
</g>
</g>
<!-- Node3 -->
<g id="Node000003" class="node">
<title>Node3</title>
<g id="a_Node000003"><a xlink:href="../../df/d03/class_expression.html#a8de5407f6667487e8f81dbd5099a6319" target="_top" xlink:title=" ">
<polygon fill="white" stroke="#666666" points="365,-61.5 217,-61.5 217,-40 365,-40 365,-61.5"/>
<text text-anchor="middle" x="291" y="-47.05" font-family="Consolas" font-size="11.00">Expression::input_size</text>
</a>
</g>
</g>
<!-- Node1&#45;&gt;Node3 -->
<g id="edge2_Node000001_Node000003" class="edge">
<title>Node1&#45;&gt;Node3</title>
<g id="a_edge2_Node000001_Node000003"><a xlink:title=" ">
<path fill="none" stroke="#63b8ff" d="M178.31,-50.75C187.38,-50.75 196.59,-50.75 205.62,-50.75"/>
<polygon fill="#63b8ff" stroke="#63b8ff" points="205.53,-54.25 215.53,-50.75 205.53,-47.25 205.53,-54.25"/>
</a>
</g>
</g>
<!-- Node4 -->
<g id="Node000004" class="node">
<title>Node4</title>
<g id="a_Node000004"><a xlink:href="../../df/d03/class_expression.html#a74722744ddfd36d9d488aaa146fb9f6f" target="_top" xlink:title=" ">
<polygon fill="white" stroke="#666666" points="368,-21.5 214,-21.5 214,0 368,0 368,-21.5"/>
<text text-anchor="middle" x="291" y="-7.05" font-family="Consolas" font-size="11.00">Expression::output_size</text>
</a>
</g>
</g>
<!-- Node1&#45;&gt;Node4 -->
<g id="edge3_Node000001_Node000004" class="edge">
<title>Node1&#45;&gt;Node4</title>
<g id="a_edge3_Node000001_Node000004"><a xlink:title=" ">
<path fill="none" stroke="#63b8ff" d="M146.24,-39.5C170.2,-34.71 198.34,-29.08 223.33,-24.08"/>
<polygon fill="#63b8ff" stroke="#63b8ff" points="223.71,-27.38 232.83,-21.98 222.34,-20.51 223.71,-27.38"/>
</a>
</g>
</g>
</g>
</svg>
