<?xml version="1.0" encoding="UTF-8" standalone="no"?>
<!DOCTYPE svg PUBLIC "-//W3C//DTD SVG 1.1//EN"
 "http://www.w3.org/Graphics/SVG/1.1/DTD/svg11.dtd">
<!-- Generated by graphviz version 5.0.0 (0)
 -->
<!-- Title: Expression Pages: 1 -->
<svg width="883pt" height="492pt"
 viewBox="0.00 0.00 882.50 492.00" xmlns="http://www.w3.org/2000/svg" xmlns:xlink="http://www.w3.org/1999/xlink">
<g id="graph0" class="graph" transform="scale(1 1) rotate(0) translate(4 488)">
<title>Expression</title>
<!-- Node1 -->
<g id="node1" class="node">
<title>Node1</title>
<g id="a_node1"><a xlink:title="A Expression class represents a maths expression.">
<polygon fill="#999999" stroke="#666666" points="420,-224 295,-224 295,0 420,0 420,-224"/>
<text text-anchor="middle" x="357.5" y="-211.2" font-family="Consolas" font-size="11.00">{Expression</text>
<text text-anchor="start" x="303" y="-199.2" font-family="Consolas" font-size="11.00">||+ Expression()</text>
<text text-anchor="start" x="303" y="-187.2" font-family="Consolas" font-size="11.00">+ Expression()</text>
<text text-anchor="start" x="303" y="-175.2" font-family="Consolas" font-size="11.00">+ Expression()</text>
<text text-anchor="start" x="303" y="-163.2" font-family="Consolas" font-size="11.00">+ operator=()</text>
<text text-anchor="start" x="303" y="-151.2" font-family="Consolas" font-size="11.00">+ operator=()</text>
<text text-anchor="start" x="303" y="-139.2" font-family="Consolas" font-size="11.00">+ ~Expression()</text>
<text text-anchor="start" x="303" y="-127.2" font-family="Consolas" font-size="11.00">+ get_copy()</text>
<text text-anchor="start" x="303" y="-115.2" font-family="Consolas" font-size="11.00">+ input_size()</text>
<text text-anchor="start" x="303" y="-103.2" font-family="Consolas" font-size="11.00">+ output_size()</text>
<text text-anchor="start" x="303" y="-91.2" font-family="Consolas" font-size="11.00">+ compile()</text>
<text text-anchor="start" x="303" y="-79.2" font-family="Consolas" font-size="11.00">+ evaluate()</text>
<text text-anchor="start" x="303" y="-67.2" font-family="Consolas" font-size="11.00">+ evaluate()</text>
<text text-anchor="start" x="303" y="-55.2" font-family="Consolas" font-size="11.00">+ gradient()</text>
<text text-anchor="start" x="303" y="-43.2" font-family="Consolas" font-size="11.00">+ gradient()</text>
<text text-anchor="start" x="303" y="-31.2" font-family="Consolas" font-size="11.00">+ print()</text>
<text text-anchor="start" x="303" y="-19.2" font-family="Consolas" font-size="11.00">+ error()</text>
<text text-anchor="middle" x="357.5" y="-7.2" font-family="Consolas" font-size="11.00">}</text>
</a>
</g>
</g>
<!-- Node2 -->
<g id="node2" class="node">
<title>Node2</title>
<g id="a_node2"><a xlink:href="../../d0/d57/class_tag.html" target="_top" xlink:title="A base Tag class.">
<polygon fill="white" stroke="#666666" points="111,-484 0,-484 0,-272 111,-272 111,-484"/>
<text text-anchor="middle" x="55.5" y="-471.2" font-family="Consolas" font-size="11.00">{Tag</text>
<text text-anchor="start" x="8" y="-459.2" font-family="Consolas" font-size="11.00">||+ Tag()</text>
<text text-anchor="start" x="8" y="-447.2" font-family="Consolas" font-size="11.00">+ Tag()</text>
<text text-anchor="start" x="8" y="-435.2" font-family="Consolas" font-size="11.00">+ Tag()</text>
<text text-anchor="start" x="8" y="-423.2" font-family="Consolas" font-size="11.00">+ operator=()</text>
<text text-anchor="start" x="8" y="-411.2" font-family="Consolas" font-size="11.00">+ operator=()</text>
<text text-anchor="start" x="8" y="-399.2" font-family="Consolas" font-size="11.00">+ ~Tag()</text>
<text text-anchor="start" x="8" y="-387.2" font-family="Consolas" font-size="11.00">+ set_tag()</text>
<text text-anchor="start" x="8" y="-375.2" font-family="Consolas" font-size="11.00">+ get_tag()</text>
<text text-anchor="start" x="8" y="-363.2" font-family="Consolas" font-size="11.00">+ enable()</text>
<text text-anchor="start" x="8" y="-351.2" font-family="Consolas" font-size="11.00">+ disable()</text>
<text text-anchor="start" x="8" y="-339.2" font-family="Consolas" font-size="11.00">+ guard()</text>
<text text-anchor="start" x="8" y="-327.2" font-family="Consolas" font-size="11.00">+ unguard()</text>
<text text-anchor="start" x="8" y="-315.2" font-family="Consolas" font-size="11.00">+ is_active()</text>
<text text-anchor="start" x="8" y="-303.2" font-family="Consolas" font-size="11.00">+ is_guarded()</text>
<text text-anchor="start" x="8" y="-291.2" font-family="Consolas" font-size="11.00">+ print()</text>
<text text-anchor="middle" x="55.5" y="-279.2" font-family="Consolas" font-size="11.00">}</text>
</a>
</g>
</g>
<!-- Node2&#45;&gt;Node1 -->
<g id="edge1" class="edge">
<title>Node2&#45;&gt;Node1</title>
<path fill="none" stroke="#63b8ff" d="M117.89,-273.71C118.42,-273.13 118.96,-272.56 119.5,-272 170.93,-218.39 243.46,-173.17 294.9,-144.82"/>
<polygon fill="none" stroke="#63b8ff" points="115.06,-271.62 111.06,-281.43 120.31,-276.25 115.06,-271.62"/>
</g>
<!-- Node3 -->
<g id="node3" class="node">
<title>Node3</title>
<g id="a_node3"><a xlink:title=" ">
<polygon fill="white" stroke="#666666" points="240,-394 129,-394 129,-362 240,-362 240,-394"/>
<text text-anchor="middle" x="184.5" y="-381.2" font-family="Consolas" font-size="11.00">{Col&lt; double &gt;</text>
<text text-anchor="middle" x="184.5" y="-369.2" font-family="Consolas" font-size="11.00">||}</text>
</a>
</g>
</g>
<!-- Node3&#45;&gt;Node1 -->
<g id="edge2" class="edge">
<title>Node3&#45;&gt;Node1</title>
<path fill="none" stroke="#404040" d="M192.62,-361.69C206.25,-336.31 234.94,-284.13 262.5,-242 270.43,-229.88 279.07,-217.35 287.79,-205.08"/>
<polygon fill="none" stroke="#404040" points="287.8,-205.07 288.05,-197.86 294.8,-195.31 294.55,-202.52 287.8,-205.07"/>
<text text-anchor="middle" x="273" y="-245.2" font-family="Consolas" font-size="11.00"> #x</text>
</g>
<!-- Node4 -->
<g id="node4" class="node">
<title>Node4</title>
<g id="a_node4"><a xlink:title=" ">
<polygon fill="white" stroke="#666666" points="322.5,-394 258.5,-394 258.5,-362 322.5,-362 322.5,-394"/>
<text text-anchor="middle" x="290.5" y="-381.2" font-family="Consolas" font-size="11.00">{string</text>
<text text-anchor="middle" x="290.5" y="-369.2" font-family="Consolas" font-size="11.00">||}</text>
</a>
</g>
</g>
<!-- Node4&#45;&gt;Node1 -->
<g id="edge3" class="edge">
<title>Node4&#45;&gt;Node1</title>
<path fill="none" stroke="#404040" d="M287.97,-361.73C284.3,-336.41 279.03,-284.32 289.5,-242 290.04,-239.84 290.61,-237.67 291.23,-235.5"/>
<polygon fill="none" stroke="#404040" points="291.28,-235.35 289.28,-228.42 294.9,-223.91 296.91,-230.84 291.28,-235.35"/>
<text text-anchor="middle" x="347" y="-245.2" font-family="Consolas" font-size="11.00"> #expression_text</text>
</g>
<!-- Node5 -->
<g id="node5" class="node">
<title>Node5</title>
<g id="a_node5"><a xlink:title=" ">
<polygon fill="white" stroke="#666666" points="508,-394 343,-394 343,-362 508,-362 508,-394"/>
<text text-anchor="middle" x="425.5" y="-381.2" font-family="Consolas" font-size="11.00">{vector&lt; std::string &gt;</text>
<text text-anchor="middle" x="425.5" y="-369.2" font-family="Consolas" font-size="11.00">||}</text>
</a>
</g>
</g>
<!-- Node5&#45;&gt;Node1 -->
<g id="edge4" class="edge">
<title>Node5&#45;&gt;Node1</title>
<path fill="none" stroke="#404040" d="M424.11,-361.82C421.6,-336.63 415.49,-284.73 404.5,-242 403.98,-239.98 403.44,-237.94 402.88,-235.89"/>
<polygon fill="none" stroke="#404040" points="402.81,-235.64 397.31,-230.97 399.51,-224.1 405,-228.77 402.81,-235.64"/>
<text text-anchor="middle" x="474.5" y="-245.2" font-family="Consolas" font-size="11.00"> #variable_text_list</text>
</g>
<!-- Node6 -->
<g id="node6" class="node">
<title>Node6</title>
<g id="a_node6"><a xlink:title=" ">
<polygon fill="white" stroke="#666666" points="684.5,-394 526.5,-394 526.5,-362 684.5,-362 684.5,-394"/>
<text text-anchor="middle" x="605.5" y="-381.2" font-family="Consolas" font-size="11.00">{expression&lt; double &gt;</text>
<text text-anchor="middle" x="605.5" y="-369.2" font-family="Consolas" font-size="11.00">||}</text>
</a>
</g>
</g>
<!-- Node6&#45;&gt;Node1 -->
<g id="edge5" class="edge">
<title>Node6&#45;&gt;Node1</title>
<path fill="none" stroke="#404040" d="M601.83,-361.75C594.8,-335.07 577.34,-279.22 546.5,-242 514.99,-203.97 469.52,-172.46 431.07,-150.1"/>
<polygon fill="none" stroke="#404040" points="430.86,-149.98 423.66,-150.48 420.43,-144.04 427.62,-143.53 430.86,-149.98"/>
<text text-anchor="middle" x="594.5" y="-245.2" font-family="Consolas" font-size="11.00"> #expression</text>
</g>
<!-- Node7 -->
<g id="node7" class="node">
<title>Node7</title>
<g id="a_node7"><a xlink:title=" ">
<polygon fill="white" stroke="#666666" points="874.5,-394 702.5,-394 702.5,-362 874.5,-362 874.5,-394"/>
<text text-anchor="middle" x="788.5" y="-381.2" font-family="Consolas" font-size="11.00">{symbol_table&lt; double &gt;</text>
<text text-anchor="middle" x="788.5" y="-369.2" font-family="Consolas" font-size="11.00">||}</text>
</a>
</g>
</g>
<!-- Node7&#45;&gt;Node1 -->
<g id="edge6" class="edge">
<title>Node7&#45;&gt;Node1</title>
<path fill="none" stroke="#404040" d="M777.24,-361.64C760.67,-339.8 727.96,-299.37 693.5,-272 613.44,-208.41 503.78,-162.63 431.83,-136.97"/>
<polygon fill="none" stroke="#404040" points="431.49,-136.86 424.51,-138.64 420.17,-132.87 427.16,-131.09 431.49,-136.86"/>
<text text-anchor="middle" x="708" y="-245.2" font-family="Consolas" font-size="11.00"> #symbol_table</text>
</g>
</g>
</svg>
