<?xml version="1.0" encoding="UTF-8" standalone="no"?>
<!DOCTYPE svg PUBLIC "-//W3C//DTD SVG 1.1//EN"
 "http://www.w3.org/Graphics/SVG/1.1/DTD/svg11.dtd">
<!-- Generated by graphviz version 8.1.0 (20230707.0739)
 -->
<!-- Title: MaxDisplacement Pages: 1 -->
<svg width="250pt" height="756pt"
 viewBox="0.00 0.00 250.00 756.00" xmlns="http://www.w3.org/2000/svg" xmlns:xlink="http://www.w3.org/1999/xlink">
<g id="graph0" class="graph" transform="scale(1 1) rotate(0) translate(4 752)">
<title>MaxDisplacement</title>
<!-- Node1 -->
<g id="Node000001" class="node">
<title>Node1</title>
<g id="a_Node000001"><a xlink:title="A MaxDisplacement class.">
<polygon fill="#999999" stroke="none" points="218,-89 80,-89 80,0 218,0 218,-89"/>
<text text-anchor="start" x="104" y="-74.55" font-family="Consolas" font-size="11.00">MaxDisplacement</text>
<text text-anchor="start" x="146" y="-57.55" font-family="Consolas" font-size="11.00"> </text>
<text text-anchor="start" x="84" y="-40.55" font-family="Consolas" font-size="11.00">+</text>
<text text-anchor="start" x="94" y="-40.55" font-family="Consolas" font-size="11.00">get_copy()</text>
<text text-anchor="start" x="84" y="-23.55" font-family="Consolas" font-size="11.00">+</text>
<text text-anchor="start" x="94" y="-23.55" font-family="Consolas" font-size="11.00">process()</text>
<text text-anchor="start" x="84" y="-6.55" font-family="Consolas" font-size="11.00">+</text>
<text text-anchor="start" x="94" y="-6.55" font-family="Consolas" font-size="11.00">NodeBasedCriterion()</text>
<polygon fill="#666666" stroke="#666666" points="80,-70 80,-70 218,-70 218,-70 80,-70"/>
<polygon fill="#666666" stroke="#666666" points="80,-53 80,-53 218,-53 218,-53 80,-53"/>
<polygon fill="none" stroke="#666666" points="80,0 80,-89 218,-89 218,0 80,0"/>
</a>
</g>
</g>
<!-- Node2 -->
<g id="Node000002" class="node">
<title>Node2</title>
<g id="a_Node000002"><a xlink:href="../../df/da9/class_node_based_criterion.html" target="_top" xlink:title="A NodeBasedCriterion class.">
<polygon fill="white" stroke="none" points="218,-198 80,-198 80,-126 218,-126 218,-198"/>
<text text-anchor="start" x="95" y="-183.55" font-family="Consolas" font-size="11.00">NodeBasedCriterion</text>
<text text-anchor="start" x="146" y="-166.55" font-family="Consolas" font-size="11.00"> </text>
<text text-anchor="start" x="84" y="-149.55" font-family="Consolas" font-size="11.00">+</text>
<text text-anchor="start" x="94" y="-149.55" font-family="Consolas" font-size="11.00">NodeBasedCriterion()</text>
<text text-anchor="start" x="84" y="-132.55" font-family="Consolas" font-size="11.00">+</text>
<text text-anchor="start" x="94" y="-132.55" font-family="Consolas" font-size="11.00">initialize()</text>
<polygon fill="#666666" stroke="#666666" points="80,-179 80,-179 218,-179 218,-179 80,-179"/>
<polygon fill="#666666" stroke="#666666" points="80,-162 80,-162 218,-162 218,-162 80,-162"/>
<polygon fill="none" stroke="#666666" points="80,-126 80,-198 218,-198 218,-126 80,-126"/>
</a>
</g>
</g>
<!-- Node2&#45;&gt;Node1 -->
<g id="edge1_Node000001_Node000002" class="edge">
<title>Node2&#45;&gt;Node1</title>
<g id="a_edge1_Node000001_Node000002"><a xlink:title=" ">
<path fill="none" stroke="#63b8ff" d="M149,-115.3C149,-106.61 149,-97.54 149,-88.93"/>
<polygon fill="none" stroke="#63b8ff" points="145.5,-115.03 149,-125.03 152.5,-115.03 145.5,-115.03"/>
</a>
</g>
</g>
<!-- Node3 -->
<g id="Node000003" class="node">
<title>Node3</title>
<g id="a_Node000003"><a xlink:href="../../d3/d46/class_criterion.html" target="_top" xlink:title="A Criterion class.">
<polygon fill="white" stroke="none" points="102,-418 0,-418 0,-261 102,-261 102,-418"/>
<text text-anchor="start" x="24" y="-403.55" font-family="Consolas" font-size="11.00">Criterion</text>
<text text-anchor="start" x="48" y="-386.55" font-family="Consolas" font-size="11.00"> </text>
<text text-anchor="start" x="4" y="-369.55" font-family="Consolas" font-size="11.00">+</text>
<text text-anchor="start" x="14" y="-369.55" font-family="Consolas" font-size="11.00">Criterion()</text>
<text text-anchor="start" x="4" y="-352.55" font-family="Consolas" font-size="11.00">+</text>
<text text-anchor="start" x="14" y="-352.55" font-family="Consolas" font-size="11.00">~Criterion()</text>
<text text-anchor="start" x="4" y="-335.55" font-family="Consolas" font-size="11.00">+</text>
<text text-anchor="start" x="14" y="-335.55" font-family="Consolas" font-size="11.00">set_step_tag()</text>
<text text-anchor="start" x="4" y="-318.55" font-family="Consolas" font-size="11.00">+</text>
<text text-anchor="start" x="14" y="-318.55" font-family="Consolas" font-size="11.00">get_step_tag()</text>
<text text-anchor="start" x="4" y="-301.55" font-family="Consolas" font-size="11.00">+</text>
<text text-anchor="start" x="14" y="-301.55" font-family="Consolas" font-size="11.00">get_copy()</text>
<text text-anchor="start" x="4" y="-284.55" font-family="Consolas" font-size="11.00">+</text>
<text text-anchor="start" x="14" y="-284.55" font-family="Consolas" font-size="11.00">initialize()</text>
<text text-anchor="start" x="4" y="-267.55" font-family="Consolas" font-size="11.00">+</text>
<text text-anchor="start" x="14" y="-267.55" font-family="Consolas" font-size="11.00">process()</text>
<polygon fill="#666666" stroke="#666666" points="0,-399 0,-399 102,-399 102,-399 0,-399"/>
<polygon fill="#666666" stroke="#666666" points="0,-382 0,-382 102,-382 102,-382 0,-382"/>
<polygon fill="none" stroke="#666666" points="0,-261 0,-418 102,-418 102,-261 0,-261"/>
</a>
</g>
</g>
<!-- Node3&#45;&gt;Node2 -->
<g id="edge2_Node000002_Node000003" class="edge">
<title>Node3&#45;&gt;Node2</title>
<g id="a_edge2_Node000002_Node000003"><a xlink:title=" ">
<path fill="none" stroke="#63b8ff" d="M99.63,-251.42C110.22,-232.45 120.83,-213.44 129.49,-197.94"/>
<polygon fill="none" stroke="#63b8ff" points="96.09,-249.57 94.27,-260.01 102.2,-252.99 96.09,-249.57"/>
</a>
</g>
</g>
<!-- Node4 -->
<g id="Node000004" class="node">
<title>Node4</title>
<g id="a_Node000004"><a xlink:href="../../d0/d57/class_tag.html" target="_top" xlink:title="A base Tag class.">
<polygon fill="white" stroke="none" points="96,-748 6,-748 6,-455 96,-455 96,-748"/>
<text text-anchor="start" x="42" y="-733.55" font-family="Consolas" font-size="11.00">Tag</text>
<text text-anchor="start" x="48" y="-716.55" font-family="Consolas" font-size="11.00"> </text>
<text text-anchor="start" x="10" y="-699.55" font-family="Consolas" font-size="11.00">+</text>
<text text-anchor="start" x="20" y="-699.55" font-family="Consolas" font-size="11.00">Tag()</text>
<text text-anchor="start" x="10" y="-682.55" font-family="Consolas" font-size="11.00">+</text>
<text text-anchor="start" x="20" y="-682.55" font-family="Consolas" font-size="11.00">Tag()</text>
<text text-anchor="start" x="10" y="-665.55" font-family="Consolas" font-size="11.00">+</text>
<text text-anchor="start" x="20" y="-665.55" font-family="Consolas" font-size="11.00">Tag()</text>
<text text-anchor="start" x="10" y="-648.55" font-family="Consolas" font-size="11.00">+</text>
<text text-anchor="start" x="20" y="-648.55" font-family="Consolas" font-size="11.00">operator=()</text>
<text text-anchor="start" x="10" y="-631.55" font-family="Consolas" font-size="11.00">+</text>
<text text-anchor="start" x="20" y="-631.55" font-family="Consolas" font-size="11.00">operator=()</text>
<text text-anchor="start" x="10" y="-614.55" font-family="Consolas" font-size="11.00">+</text>
<text text-anchor="start" x="20" y="-614.55" font-family="Consolas" font-size="11.00">~Tag()</text>
<text text-anchor="start" x="10" y="-597.55" font-family="Consolas" font-size="11.00">+</text>
<text text-anchor="start" x="20" y="-597.55" font-family="Consolas" font-size="11.00">set_tag()</text>
<text text-anchor="start" x="10" y="-580.55" font-family="Consolas" font-size="11.00">+</text>
<text text-anchor="start" x="20" y="-580.55" font-family="Consolas" font-size="11.00">get_tag()</text>
<text text-anchor="start" x="10" y="-563.55" font-family="Consolas" font-size="11.00">+</text>
<text text-anchor="start" x="20" y="-563.55" font-family="Consolas" font-size="11.00">enable()</text>
<text text-anchor="start" x="10" y="-546.55" font-family="Consolas" font-size="11.00">+</text>
<text text-anchor="start" x="20" y="-546.55" font-family="Consolas" font-size="11.00">disable()</text>
<text text-anchor="start" x="10" y="-529.55" font-family="Consolas" font-size="11.00">+</text>
<text text-anchor="start" x="20" y="-529.55" font-family="Consolas" font-size="11.00">guard()</text>
<text text-anchor="start" x="10" y="-512.55" font-family="Consolas" font-size="11.00">+</text>
<text text-anchor="start" x="20" y="-512.55" font-family="Consolas" font-size="11.00">unguard()</text>
<text text-anchor="start" x="10" y="-495.55" font-family="Consolas" font-size="11.00">+</text>
<text text-anchor="start" x="20" y="-495.55" font-family="Consolas" font-size="11.00">is_active()</text>
<text text-anchor="start" x="10" y="-478.55" font-family="Consolas" font-size="11.00">+</text>
<text text-anchor="start" x="20" y="-478.55" font-family="Consolas" font-size="11.00">is_guarded()</text>
<text text-anchor="start" x="10" y="-461.55" font-family="Consolas" font-size="11.00">+</text>
<text text-anchor="start" x="20" y="-461.55" font-family="Consolas" font-size="11.00">print()</text>
<polygon fill="#666666" stroke="#666666" points="6,-729 6,-729 96,-729 96,-729 6,-729"/>
<polygon fill="#666666" stroke="#666666" points="6,-712 6,-712 96,-712 96,-712 6,-712"/>
<polygon fill="none" stroke="#666666" points="6,-455 6,-748 96,-748 96,-455 6,-455"/>
</a>
</g>
</g>
<!-- Node4&#45;&gt;Node3 -->
<g id="edge3_Node000003_Node000004" class="edge">
<title>Node4&#45;&gt;Node3</title>
<g id="a_edge3_Node000003_Node000004"><a xlink:title=" ">
<path fill="none" stroke="#63b8ff" d="M51,-444.46C51,-435.29 51,-426.3 51,-417.69"/>
<polygon fill="none" stroke="#63b8ff" points="47.5,-444.3 51,-454.3 54.5,-444.3 47.5,-444.3"/>
</a>
</g>
</g>
<!-- Node5 -->
<g id="Node000005" class="node">
<title>Node5</title>
<g id="a_Node000005"><a xlink:title=" ">
<polygon fill="white" stroke="none" points="178,-367 120,-367 120,-312 178,-312 178,-367"/>
<text text-anchor="start" x="125" y="-352.55" font-family="Consolas" font-size="11.00">unsigned</text>
<text text-anchor="start" x="146" y="-335.55" font-family="Consolas" font-size="11.00"> </text>
<text text-anchor="start" x="146" y="-318.55" font-family="Consolas" font-size="11.00"> </text>
<polygon fill="#666666" stroke="#666666" points="120,-348 120,-348 178,-348 178,-348 120,-348"/>
<polygon fill="#666666" stroke="#666666" points="120,-331 120,-331 178,-331 178,-331 120,-331"/>
<polygon fill="none" stroke="#666666" points="120,-312 120,-367 178,-367 178,-312 120,-312"/>
</a>
</g>
</g>
<!-- Node5&#45;&gt;Node2 -->
<g id="edge4_Node000002_Node000005" class="edge">
<title>Node5&#45;&gt;Node2</title>
<g id="a_edge4_Node000002_Node000005"><a xlink:title=" ">
<path fill="none" stroke="#63b8ff" d="M149,-312.23C149,-285.5 149,-243.49 149,-210.84"/>
<polygon fill="none" stroke="#63b8ff" points="149,-210.84 145,-204.84 149,-198.84 153,-204.84 149,-210.84"/>
</a>
</g>
<text text-anchor="middle" x="164" y="-232.55" font-family="Consolas" font-size="11.00" fill="grey"> #dof</text>
<text text-anchor="middle" x="164" y="-219.05" font-family="Consolas" font-size="11.00" fill="grey">#node</text>
</g>
<!-- Node6 -->
<g id="Node000006" class="node">
<title>Node6</title>
<g id="a_Node000006"><a xlink:title=" ">
<polygon fill="white" stroke="none" points="242,-367 196,-367 196,-312 242,-312 242,-367"/>
<text text-anchor="start" x="201" y="-352.55" font-family="Consolas" font-size="11.00">double</text>
<text text-anchor="start" x="216" y="-335.55" font-family="Consolas" font-size="11.00"> </text>
<text text-anchor="start" x="216" y="-318.55" font-family="Consolas" font-size="11.00"> </text>
<polygon fill="#666666" stroke="#666666" points="196,-348 196,-348 242,-348 242,-348 196,-348"/>
<polygon fill="#666666" stroke="#666666" points="196,-331 196,-331 242,-331 242,-331 196,-331"/>
<polygon fill="none" stroke="#666666" points="196,-312 196,-367 242,-367 242,-312 196,-312"/>
</a>
</g>
</g>
<!-- Node6&#45;&gt;Node2 -->
<g id="edge5_Node000002_Node000006" class="edge">
<title>Node6&#45;&gt;Node2</title>
<g id="a_edge5_Node000002_Node000006"><a xlink:title=" ">
<path fill="none" stroke="#63b8ff" d="M213.6,-312.4C207.85,-287.06 197.54,-247.86 183,-216 181.96,-213.72 180.84,-211.43 179.65,-209.15"/>
<polygon fill="none" stroke="#63b8ff" points="179.62,-209.1 173.2,-205.82 173.75,-198.63 180.18,-201.91 179.62,-209.1"/>
</a>
</g>
<text text-anchor="middle" x="214" y="-225.8" font-family="Consolas" font-size="11.00" fill="grey"> #limit</text>
</g>
</g>
</svg>
