<?xml version="1.0" encoding="UTF-8" standalone="no"?>
<!DOCTYPE svg PUBLIC "-//W3C//DTD SVG 1.1//EN"
 "http://www.w3.org/Graphics/SVG/1.1/DTD/svg11.dtd">
<!-- Generated by graphviz version 9.0.0 (20230911.1827)
 -->
<!-- Title: GroupNodalForce::initialize Pages: 1 -->
<svg width="572pt" height="82pt"
 viewBox="0.00 0.00 572.00 82.25" xmlns="http://www.w3.org/2000/svg" xmlns:xlink="http://www.w3.org/1999/xlink">
<g id="graph0" class="graph" transform="scale(1 1) rotate(0) translate(4 78.25)">
<title>GroupNodalForce::initialize</title>
<!-- Node1 -->
<g id="Node000001" class="node">
<title>Node1</title>
<g id="a_Node000001"><a xlink:title=" ">
<polygon fill="#999999" stroke="#666666" points="178,-44.5 0,-44.5 0,-23 178,-23 178,-44.5"/>
<text text-anchor="middle" x="89" y="-30.05" font-family="Consolas" font-size="11.00">GroupNodalForce::initialize</text>
</a>
</g>
</g>
<!-- Node2 -->
<g id="Node000002" class="node">
<title>Node2</title>
<g id="a_Node000002"><a xlink:href="../../da/d44/class_conditional_modifier.html#a2e571329c1c399e8e472d34257e4af4e" target="_top" xlink:title=" ">
<polygon fill="white" stroke="#666666" points="371,-74.25 241,-74.25 241,-39.25 371,-39.25 371,-74.25"/>
<text text-anchor="start" x="249" y="-59.8" font-family="Consolas" font-size="11.00">ConditionalModifier</text>
<text text-anchor="middle" x="306" y="-46.3" font-family="Consolas" font-size="11.00">::initialize</text>
</a>
</g>
</g>
<!-- Node1&#45;&gt;Node2 -->
<g id="edge1_Node000001_Node000002" class="edge">
<title>Node1&#45;&gt;Node2</title>
<g id="a_edge1_Node000001_Node000002"><a xlink:title=" ">
<path fill="none" stroke="#63b8ff" d="M178.38,-43.2C195.32,-45.02 212.91,-46.9 229.4,-48.66"/>
<polygon fill="#63b8ff" stroke="#63b8ff" points="228.8,-52.12 239.12,-49.7 229.55,-45.16 228.8,-52.12"/>
</a>
</g>
</g>
<!-- Node4 -->
<g id="Node000004" class="node">
<title>Node4</title>
<g id="a_Node000004"><a xlink:href="../../d9/d3d/class_group_load.html#a0e6af89779a67c64905677e629249ae2" target="_top" xlink:title=" ">
<polygon fill="white" stroke="#666666" points="398,-21.5 214,-21.5 214,0 398,0 398,-21.5"/>
<text text-anchor="middle" x="306" y="-7.05" font-family="Consolas" font-size="11.00">GroupLoad::update_object_tag</text>
</a>
</g>
</g>
<!-- Node1&#45;&gt;Node4 -->
<g id="edge3_Node000001_Node000004" class="edge">
<title>Node1&#45;&gt;Node4</title>
<g id="a_edge3_Node000001_Node000004"><a xlink:title=" ">
<path fill="none" stroke="#63b8ff" d="M178.38,-24.3C186.33,-23.44 194.43,-22.58 202.48,-21.72"/>
<polygon fill="#63b8ff" stroke="#63b8ff" points="202.76,-25.21 212.33,-20.66 202.01,-18.25 202.76,-25.21"/>
</a>
</g>
</g>
<!-- Node3 -->
<g id="Node000003" class="node">
<title>Node3</title>
<g id="a_Node000003"><a xlink:href="../../da/d44/class_conditional_modifier.html#a0488922ba5528bfa82bb1ce971c55cf2" target="_top" xlink:title=" ">
<polygon fill="white" stroke="#666666" points="564,-74.25 434,-74.25 434,-39.25 564,-39.25 564,-74.25"/>
<text text-anchor="start" x="442" y="-59.8" font-family="Consolas" font-size="11.00">ConditionalModifier</text>
<text text-anchor="middle" x="499" y="-46.3" font-family="Consolas" font-size="11.00">::set_initialized</text>
</a>
</g>
</g>
<!-- Node2&#45;&gt;Node3 -->
<g id="edge2_Node000002_Node000003" class="edge">
<title>Node2&#45;&gt;Node3</title>
<g id="a_edge2_Node000002_Node000003"><a xlink:title=" ">
<path fill="none" stroke="#63b8ff" d="M371.4,-56.75C387.68,-56.75 405.31,-56.75 422.1,-56.75"/>
<polygon fill="#63b8ff" stroke="#63b8ff" points="422.04,-60.25 432.04,-56.75 422.04,-53.25 422.04,-60.25"/>
</a>
</g>
</g>
</g>
</svg>
