<?xml version="1.0" encoding="UTF-8" standalone="no"?>
<!DOCTYPE svg PUBLIC "-//W3C//DTD SVG 1.1//EN"
 "http://www.w3.org/Graphics/SVG/1.1/DTD/svg11.dtd">
<!-- Generated by graphviz version 8.1.0 (20230707.0739)
 -->
<!-- Title: set_handler&lt; DOF::U1, DOF::U2 &gt; Pages: 1 -->
<svg width="334pt" height="361pt"
 viewBox="0.00 0.00 334.00 361.00" xmlns="http://www.w3.org/2000/svg" xmlns:xlink="http://www.w3.org/1999/xlink">

<svg id="main" version="1.1" xmlns="http://www.w3.org/2000/svg" xmlns:xlink="http://www.w3.org/1999/xlink" xml:space="preserve" onload="init(evt)">
<style type="text/css"><![CDATA[
.node, .edge {opacity: 0.7;}
.node.selected, .edge.selected {opacity: 1;}
.edge:hover path { stroke: red; }
.edge:hover polygon { stroke: red; fill: red; }
]]></style>
<script type="application/ecmascript" xlink:href="../../svg.min.js"/>
<svg id="graph" class="graph">
<g id="graph0" class="graph" transform="scale(1 1) rotate(0) translate(4 357)">
<title>set_handler&lt; DOF::U1, DOF::U2 &gt;</title>
<!-- Node1 -->
<g id="Node000001" class="node">
<title>Node1</title>
<g id="a_Node000001"><a xlink:title=" ">
<polygon fill="#999999" stroke="#666666" points="142,-194 0,-194 0,-159 142,-159 142,-194"/>
<text text-anchor="start" x="8" y="-179.55" font-family="Consolas" font-size="11.00">set_handler&lt; DOF::U1,</text>
<text text-anchor="middle" x="71" y="-166.05" font-family="Consolas" font-size="11.00"> DOF::U2 &gt;</text>
</a>
</g>
</g>
<!-- Node2 -->
<g id="Node000002" class="node">
<title>Node2</title>
<g id="a_Node000002"><a xlink:href="../../d0/d20/_node_helper_8hpp.html#adcb82e527448b90539bc78db75b56b89" target="_top" xlink:title=" ">
<polygon fill="white" stroke="#666666" points="320,-353 184,-353 184,-318 320,-318 320,-353"/>
<text text-anchor="start" x="192" y="-338.55" font-family="Consolas" font-size="11.00">check_dof_definition</text>
<text text-anchor="middle" x="252" y="-325.05" font-family="Consolas" font-size="11.00">&lt; DOF::U1, DOF::U2 &gt;</text>
</a>
</g>
</g>
<!-- Node1&#45;&gt;Node2 -->
<g id="edge1_Node000001_Node000002" class="edge">
<title>Node1&#45;&gt;Node2</title>
<g id="a_edge1_Node000001_Node000002"><a xlink:title=" ">
<path fill="none" stroke="#63b8ff" d="M81.68,-194.19C97.98,-222.44 133.54,-277.76 178,-309.5 179.3,-310.43 180.64,-311.33 182,-312.2"/>
<polygon fill="#63b8ff" stroke="#63b8ff" points="179.97,-315.63 190.4,-317.51 183.42,-309.54 179.97,-315.63"/>
</a>
</g>
</g>
<!-- Node3 -->
<g id="Node000003" class="node">
<title>Node3</title>
<g id="a_Node000003"><a xlink:href="../../d0/d20/_node_helper_8hpp.html#af3d26edec9edcefaa5e09073a3f0966b" target="_top" xlink:title=" ">
<polygon fill="white" stroke="#666666" points="320,-300 184,-300 184,-265 320,-265 320,-300"/>
<text text-anchor="start" x="192" y="-285.55" font-family="Consolas" font-size="11.00">get_current_velocity</text>
<text text-anchor="middle" x="252" y="-272.05" font-family="Consolas" font-size="11.00">&lt; DOF::U1, DOF::U2 &gt;</text>
</a>
</g>
</g>
<!-- Node1&#45;&gt;Node3 -->
<g id="edge2_Node000001_Node000003" class="edge">
<title>Node1&#45;&gt;Node3</title>
<g id="a_edge2_Node000001_Node000003"><a xlink:title=" ">
<path fill="none" stroke="#63b8ff" d="M91.84,-194.43C112.24,-212.12 145.53,-239 178,-256.5 180.38,-257.78 182.84,-259.03 185.35,-260.23"/>
<polygon fill="#63b8ff" stroke="#63b8ff" points="183.66,-263.75 194.22,-264.64 186.52,-257.37 183.66,-263.75"/>
</a>
</g>
</g>
<!-- Node4 -->
<g id="Node000004" class="node">
<title>Node4</title>
<g id="a_Node000004"><a xlink:href="../../d0/d20/_node_helper_8hpp.html#a2373bbca5f5c447a402c4595e198efd3" target="_top" xlink:title=" ">
<polygon fill="white" stroke="#666666" points="326,-247 178,-247 178,-212 326,-212 326,-247"/>
<text text-anchor="start" x="186" y="-232.55" font-family="Consolas" font-size="11.00">get_incre_acceleration</text>
<text text-anchor="middle" x="252" y="-219.05" font-family="Consolas" font-size="11.00">&lt; DOF::U1, DOF::U2 &gt;</text>
</a>
</g>
</g>
<!-- Node1&#45;&gt;Node4 -->
<g id="edge3_Node000001_Node000004" class="edge">
<title>Node1&#45;&gt;Node4</title>
<g id="a_edge3_Node000001_Node000004"><a xlink:title=" ">
<path fill="none" stroke="#63b8ff" d="M132.6,-194.44C147.91,-198.98 164.48,-203.88 180.24,-208.55"/>
<polygon fill="#63b8ff" stroke="#63b8ff" points="178.88,-212.09 189.46,-211.58 180.87,-205.38 178.88,-212.09"/>
</a>
</g>
</g>
<!-- Node5 -->
<g id="Node000005" class="node">
<title>Node5</title>
<g id="a_Node000005"><a xlink:href="../../d0/d20/_node_helper_8hpp.html#a2e6168a9ee01c487e7474264c68aa2eb" target="_top" xlink:title=" ">
<polygon fill="white" stroke="#666666" points="326,-194 178,-194 178,-159 326,-159 326,-194"/>
<text text-anchor="start" x="186" y="-179.55" font-family="Consolas" font-size="11.00">get_trial_acceleration</text>
<text text-anchor="middle" x="252" y="-166.05" font-family="Consolas" font-size="11.00">&lt; DOF::U1, DOF::U2 &gt;</text>
</a>
</g>
</g>
<!-- Node1&#45;&gt;Node5 -->
<g id="edge4_Node000001_Node000005" class="edge">
<title>Node1&#45;&gt;Node5</title>
<g id="a_edge4_Node000001_Node000005"><a xlink:title=" ">
<path fill="none" stroke="#63b8ff" d="M142.49,-176.5C150.43,-176.5 158.57,-176.5 166.66,-176.5"/>
<polygon fill="#63b8ff" stroke="#63b8ff" points="166.63,-180 176.63,-176.5 166.63,-173 166.63,-180"/>
</a>
</g>
</g>
<!-- Node6 -->
<g id="Node000006" class="node">
<title>Node6</title>
<g id="a_Node000006"><a xlink:href="../../d0/d20/_node_helper_8hpp.html#a2f7d3f992d24e0cdf063b53a9ad3308c" target="_top" xlink:title=" ">
<polygon fill="white" stroke="#666666" points="326,-141 178,-141 178,-106 326,-106 326,-141"/>
<text text-anchor="start" x="186" y="-126.55" font-family="Consolas" font-size="11.00">get_trial_displacement</text>
<text text-anchor="middle" x="252" y="-113.05" font-family="Consolas" font-size="11.00">&lt; DOF::U1, DOF::U2 &gt;</text>
</a>
</g>
</g>
<!-- Node1&#45;&gt;Node6 -->
<g id="edge5_Node000001_Node000006" class="edge">
<title>Node1&#45;&gt;Node6</title>
<g id="a_edge5_Node000001_Node000006"><a xlink:title=" ">
<path fill="none" stroke="#63b8ff" d="M132.6,-158.56C147.91,-154.02 164.48,-149.12 180.24,-144.45"/>
<polygon fill="#63b8ff" stroke="#63b8ff" points="180.87,-147.62 189.46,-141.42 178.88,-140.91 180.87,-147.62"/>
</a>
</g>
</g>
<!-- Node7 -->
<g id="Node000007" class="node">
<title>Node7</title>
<g id="a_Node000007"><a xlink:href="../../d0/d20/_node_helper_8hpp.html#a59bbbf098be3e68dd31e02d7a1969cd2" target="_top" xlink:title=" ">
<polygon fill="white" stroke="#666666" points="320,-88 184,-88 184,-53 320,-53 320,-88"/>
<text text-anchor="start" x="192" y="-73.55" font-family="Consolas" font-size="11.00">get_trial_position</text>
<text text-anchor="middle" x="252" y="-60.05" font-family="Consolas" font-size="11.00">&lt; DOF::U1, DOF::U2 &gt;</text>
</a>
</g>
</g>
<!-- Node1&#45;&gt;Node7 -->
<g id="edge6_Node000001_Node000007" class="edge">
<title>Node1&#45;&gt;Node7</title>
<g id="a_edge6_Node000001_Node000007"><a xlink:title=" ">
<path fill="none" stroke="#63b8ff" d="M92.31,-158.57C112.81,-141.17 145.93,-114.91 178,-97.5 181.03,-95.86 184.18,-94.27 187.39,-92.75"/>
<polygon fill="#63b8ff" stroke="#63b8ff" points="188.48,-95.65 196.19,-88.39 185.63,-89.26 188.48,-95.65"/>
</a>
</g>
</g>
<!-- Node8 -->
<g id="Node000008" class="node">
<title>Node8</title>
<g id="a_Node000008"><a xlink:href="../../d0/d20/_node_helper_8hpp.html#a63f7add1d3a19e22f4be1aa6614bc004" target="_top" xlink:title=" ">
<polygon fill="white" stroke="#666666" points="320,-35 184,-35 184,0 320,0 320,-35"/>
<text text-anchor="start" x="192" y="-20.55" font-family="Consolas" font-size="11.00">get_trial_velocity</text>
<text text-anchor="middle" x="252" y="-7.05" font-family="Consolas" font-size="11.00">&lt; DOF::U1, DOF::U2 &gt;</text>
</a>
</g>
</g>
<!-- Node1&#45;&gt;Node8 -->
<g id="edge7_Node000001_Node000008" class="edge">
<title>Node1&#45;&gt;Node8</title>
<g id="a_edge7_Node000001_Node000008"><a xlink:title=" ">
<path fill="none" stroke="#63b8ff" d="M82.02,-158.55C98.56,-130.47 134.12,-76.11 178,-44.5 179.92,-43.12 181.91,-41.8 183.96,-40.55"/>
<polygon fill="#63b8ff" stroke="#63b8ff" points="185.21,-43.31 192.28,-35.42 181.83,-37.17 185.21,-43.31"/>
</a>
</g>
</g>
</g>
</svg>
</svg>

<style type='text/css'>
<![CDATA[
[data-mouse-over-selected='false'] { opacity: 0.7; }
[data-mouse-over-selected='true']  { opacity: 1.0; }
]]>
</style>
<script type="application/ecmascript"><![CDATA[
document.addEventListener('DOMContentLoaded', (event) => {
  highlightEdges();
  highlightAdjacentNodes();
});
]]></script>
</svg>
