<?xml version="1.0" encoding="UTF-8" standalone="no"?>
<!DOCTYPE svg PUBLIC "-//W3C//DTD SVG 1.1//EN"
 "http://www.w3.org/Graphics/SVG/1.1/DTD/svg11.dtd">
<!-- Generated by graphviz version 2.43.0 (0)
 -->
<!-- Title: nzisection Pages: 1 -->
<svg width="895pt" height="85pt"
 viewBox="0.00 0.00 895.00 85.00" xmlns="http://www.w3.org/2000/svg" xmlns:xlink="http://www.w3.org/1999/xlink">
<g id="graph0" class="graph" transform="scale(1 1) rotate(0) translate(4 81)">
<title>nzisection</title>
<!-- Node1 -->
<g id="Node000001" class="node">
<title>Node1</title>
<g id="a_Node000001"><a xlink:title=" ">
<polygon fill="#999999" stroke="#666666" points="887,-39 803,-39 803,-19 887,-19 887,-39"/>
<text text-anchor="middle" x="845" y="-26.2" font-family="Consolas" font-size="11.00">nzisection</text>
</a>
</g>
</g>
<!-- Node2 -->
<g id="Node000002" class="node">
<title>Node2</title>
<g id="a_Node000002"><a xlink:href="../../df/d37/_section_parser_8cpp.html#a8bfface01fb0357bedc1d4b261b7d6ca" target="_top" xlink:title=" ">
<polygon fill="white" stroke="#666666" points="767,-58 696,-58 696,-38 767,-38 767,-58"/>
<text text-anchor="middle" x="731.5" y="-45.2" font-family="Consolas" font-size="11.00">new_nz2d</text>
</a>
</g>
</g>
<!-- Node1&#45;&gt;Node2 -->
<g id="edge1_Node000001_Node000002" class="edge">
<title>Node1&#45;&gt;Node2</title>
<g id="a_edge1_Node000001_Node000002"><a xlink:title=" ">
<path fill="none" stroke="#63b8ff" d="M792.79,-37.73C784.17,-39.2 775.4,-40.69 767.31,-42.07"/>
<polygon fill="#63b8ff" stroke="#63b8ff" points="793.53,-41.15 802.8,-36.02 792.35,-34.25 793.53,-41.15"/>
</a>
</g>
</g>
<!-- Node9 -->
<g id="Node000009" class="node">
<title>Node9</title>
<g id="a_Node000009"><a xlink:href="../../df/d37/_section_parser_8cpp.html#a106d07bf45920a24619087c83f24646c" target="_top" xlink:title=" ">
<polygon fill="white" stroke="#666666" points="767,-20 696,-20 696,0 767,0 767,-20"/>
<text text-anchor="middle" x="731.5" y="-7.2" font-family="Consolas" font-size="11.00">new_nz3d</text>
</a>
</g>
</g>
<!-- Node1&#45;&gt;Node9 -->
<g id="edge10_Node000001_Node000009" class="edge">
<title>Node1&#45;&gt;Node9</title>
<g id="a_edge10_Node000001_Node000009"><a xlink:title=" ">
<path fill="none" stroke="#63b8ff" d="M792.79,-20.27C784.17,-18.8 775.4,-17.31 767.31,-15.93"/>
<polygon fill="#63b8ff" stroke="#63b8ff" points="792.35,-23.75 802.8,-21.98 793.53,-16.85 792.35,-23.75"/>
</a>
</g>
</g>
<!-- Node3 -->
<g id="Node000003" class="node">
<title>Node3</title>
<g id="a_Node000003"><a xlink:href="../../df/d37/_section_parser_8cpp.html#aa1844ab4e6a22d74b18303a458b8bb8a" target="_top" xlink:title=" ">
<polygon fill="white" stroke="#666666" points="660,-39 522,-39 522,-19 660,-19 660,-39"/>
<text text-anchor="middle" x="591" y="-26.2" font-family="Consolas" font-size="11.00">create_new_section</text>
</a>
</g>
</g>
<!-- Node2&#45;&gt;Node3 -->
<g id="edge2_Node000002_Node000003" class="edge">
<title>Node2&#45;&gt;Node3</title>
<g id="a_edge2_Node000002_Node000003"><a xlink:title=" ">
<path fill="none" stroke="#63b8ff" d="M685.84,-41.87C677.63,-40.75 668.89,-39.55 660.18,-38.35"/>
<polygon fill="#63b8ff" stroke="#63b8ff" points="685.52,-45.36 695.91,-43.25 686.48,-38.43 685.52,-45.36"/>
</a>
</g>
</g>
<!-- Node4 -->
<g id="Node000004" class="node">
<title>Node4</title>
<g id="a_Node000004"><a xlink:href="../../d1/d81/command_8cpp.html#a93ed4e20ca36def5d5ac815613593cc8" target="_top" xlink:title=" ">
<polygon fill="white" stroke="#666666" points="486,-39 368,-39 368,-19 486,-19 486,-39"/>
<text text-anchor="middle" x="427" y="-26.2" font-family="Consolas" font-size="11.00">process_command</text>
</a>
</g>
</g>
<!-- Node3&#45;&gt;Node4 -->
<g id="edge3_Node000003_Node000004" class="edge">
<title>Node3&#45;&gt;Node4</title>
<g id="a_edge3_Node000003_Node000004"><a xlink:title=" ">
<path fill="none" stroke="#63b8ff" d="M511.71,-29C503.1,-29 494.45,-29 486.15,-29"/>
<polygon fill="#63b8ff" stroke="#63b8ff" points="511.77,-32.5 521.77,-29 511.77,-25.5 511.77,-32.5"/>
</a>
</g>
</g>
<!-- Node5 -->
<g id="Node000005" class="node">
<title>Node5</title>
<g id="a_Node000005"><a xlink:href="../../da/d46/group___utility.html#ga8bf8736c7a14e90bd7313d121b2ac440" target="_top" xlink:title=" ">
<polygon fill="white" stroke="#666666" points="318.5,-77 247.5,-77 247.5,-57 318.5,-57 318.5,-77"/>
<text text-anchor="middle" x="283" y="-64.2" font-family="Consolas" font-size="11.00">cli_mode</text>
</a>
</g>
</g>
<!-- Node4&#45;&gt;Node5 -->
<g id="edge4_Node000004_Node000005" class="edge">
<title>Node4&#45;&gt;Node5</title>
<g id="a_edge4_Node000004_Node000005"><a xlink:title=" ">
<path fill="none" stroke="#63b8ff" d="M378.42,-41.73C358.96,-46.94 336.86,-52.86 318.93,-57.65"/>
<polygon fill="#63b8ff" stroke="#63b8ff" points="379.56,-45.05 388.32,-39.08 377.75,-38.29 379.56,-45.05"/>
</a>
</g>
</g>
<!-- Node8 -->
<g id="Node000008" class="node">
<title>Node8</title>
<g id="a_Node000008"><a xlink:href="../../d1/d81/command_8cpp.html#a65a31d6103b6d10e025b25d95832eabc" target="_top" xlink:title=" ">
<polygon fill="white" stroke="#666666" points="332,-39 234,-39 234,-19 332,-19 332,-39"/>
<text text-anchor="middle" x="283" y="-26.2" font-family="Consolas" font-size="11.00">process_file</text>
</a>
</g>
</g>
<!-- Node4&#45;&gt;Node8 -->
<g id="edge7_Node000004_Node000008" class="edge">
<title>Node4&#45;&gt;Node8</title>
<g id="a_edge7_Node000004_Node000008"><a xlink:title=" ">
<path fill="none" stroke="#63b8ff" d="M357.8,-22.25C349.2,-22.23 340.54,-22.33 332.34,-22.57"/>
<polygon fill="#63b8ff" stroke="#63b8ff" points="357.8,-25.75 367.83,-22.35 357.87,-18.76 357.8,-25.75"/>
</a>
</g>
</g>
<!-- Node6 -->
<g id="Node000006" class="node">
<title>Node6</title>
<g id="a_Node000006"><a xlink:href="../../da/d46/group___utility.html#gaf8d2165909a5b05cf91dce632ce172a4" target="_top" xlink:title=" ">
<polygon fill="white" stroke="#666666" points="198,-58 80,-58 80,-38 198,-38 198,-58"/>
<text text-anchor="middle" x="139" y="-45.2" font-family="Consolas" font-size="11.00">argument_parser</text>
</a>
</g>
</g>
<!-- Node5&#45;&gt;Node6 -->
<g id="edge5_Node000005_Node000006" class="edge">
<title>Node5&#45;&gt;Node6</title>
<g id="a_edge5_Node000005_Node000006"><a xlink:title=" ">
<path fill="none" stroke="#63b8ff" d="M237.19,-61C224.81,-59.35 211.19,-57.53 198.17,-55.78"/>
<polygon fill="#63b8ff" stroke="#63b8ff" points="236.89,-64.49 247.26,-62.35 237.82,-57.56 236.89,-64.49"/>
</a>
</g>
</g>
<!-- Node7 -->
<g id="Node000007" class="node">
<title>Node7</title>
<g id="a_Node000007"><a xlink:href="../../d6/dfd/suan_pan_8cpp.html#a3c04138a5bfe5d72780bb7e82a18e627" target="_top" xlink:title=" ">
<polygon fill="white" stroke="#666666" points="44,-58 0,-58 0,-38 44,-38 44,-58"/>
<text text-anchor="middle" x="22" y="-45.2" font-family="Consolas" font-size="11.00">main</text>
</a>
</g>
</g>
<!-- Node6&#45;&gt;Node7 -->
<g id="edge6_Node000006_Node000007" class="edge">
<title>Node6&#45;&gt;Node7</title>
<g id="a_edge6_Node000006_Node000007"><a xlink:title=" ">
<path fill="none" stroke="#63b8ff" d="M69.67,-48C60.41,-48 51.54,-48 44.07,-48"/>
<polygon fill="#63b8ff" stroke="#63b8ff" points="69.83,-51.5 79.83,-48 69.83,-44.5 69.83,-51.5"/>
</a>
</g>
</g>
<!-- Node8&#45;&gt;Node4 -->
<g id="edge9_Node000008_Node000004" class="edge">
<title>Node8&#45;&gt;Node4</title>
<g id="a_edge9_Node000008_Node000004"><a xlink:title=" ">
<path fill="none" stroke="#63b8ff" d="M342.42,-35.65C350.82,-35.78 359.45,-35.78 367.83,-35.65"/>
<polygon fill="#63b8ff" stroke="#63b8ff" points="342.42,-32.15 332.34,-35.43 342.26,-39.15 342.42,-32.15"/>
</a>
</g>
</g>
<!-- Node8&#45;&gt;Node6 -->
<g id="edge8_Node000008_Node000006" class="edge">
<title>Node8&#45;&gt;Node6</title>
<g id="a_edge8_Node000008_Node000006"><a xlink:title=" ">
<path fill="none" stroke="#63b8ff" d="M223.76,-36.79C215.29,-37.93 206.57,-39.09 198.11,-40.22"/>
<polygon fill="#63b8ff" stroke="#63b8ff" points="224.48,-40.23 233.93,-35.43 223.55,-33.29 224.48,-40.23"/>
</a>
</g>
</g>
<!-- Node9&#45;&gt;Node3 -->
<g id="edge11_Node000009_Node000003" class="edge">
<title>Node9&#45;&gt;Node3</title>
<g id="a_edge11_Node000009_Node000003"><a xlink:title=" ">
<path fill="none" stroke="#63b8ff" d="M685.84,-16.13C677.63,-17.25 668.89,-18.45 660.18,-19.65"/>
<polygon fill="#63b8ff" stroke="#63b8ff" points="686.48,-19.57 695.91,-14.75 685.52,-12.64 686.48,-19.57"/>
</a>
</g>
</g>
</g>
</svg>
