<?xml version="1.0" encoding="UTF-8" standalone="no"?>
<!DOCTYPE svg PUBLIC "-//W3C//DTD SVG 1.1//EN"
 "http://www.w3.org/Graphics/SVG/1.1/DTD/svg11.dtd">
<!-- Generated by graphviz version 2.43.0 (0)
 -->
<!-- Title: Recorder::get_variable_type Pages: 1 -->
<svg width="415pt" height="230pt"
 viewBox="0.00 0.00 415.00 230.00" xmlns="http://www.w3.org/2000/svg" xmlns:xlink="http://www.w3.org/1999/xlink">
<g id="graph0" class="graph" transform="scale(1 1) rotate(0) translate(4 226)">
<title>Recorder::get_variable_type</title>
<!-- Node1 -->
<g id="Node000001" class="node">
<title>Node1</title>
<g id="a_Node000001"><a xlink:title=" ">
<polygon fill="#999999" stroke="#666666" points="407,-127 208,-127 208,-107 407,-107 407,-127"/>
<text text-anchor="middle" x="307.5" y="-114.2" font-family="Consolas" font-size="11.00">Recorder::get_variable_type</text>
</a>
</g>
</g>
<!-- Node2 -->
<g id="Node000002" class="node">
<title>Node2</title>
<g id="a_Node000002"><a xlink:href="../../d2/da4/class_element_recorder.html#a6cf95c75254f5294a6073a4ac7bb95c2" target="_top" xlink:title=" ">
<polygon fill="white" stroke="#666666" points="172,-222 0,-222 0,-202 172,-202 172,-222"/>
<text text-anchor="middle" x="86" y="-209.2" font-family="Consolas" font-size="11.00">ElementRecorder::record</text>
</a>
</g>
</g>
<!-- Node1&#45;&gt;Node2 -->
<g id="edge1_Node000001_Node000002" class="edge">
<title>Node1&#45;&gt;Node2</title>
<g id="a_edge1_Node000001_Node000002"><a xlink:title=" ">
<path fill="none" stroke="#63b8ff" d="M283.49,-132.81C257.5,-149.98 213.43,-177.07 172,-193 162.83,-196.53 152.83,-199.49 143.02,-201.94"/>
<polygon fill="#63b8ff" stroke="#63b8ff" points="285.52,-135.66 291.89,-127.19 281.63,-129.84 285.52,-135.66"/>
</a>
</g>
</g>
<!-- Node3 -->
<g id="Node000003" class="node">
<title>Node3</title>
<g id="a_Node000003"><a xlink:href="../../da/d11/class_frame_recorder.html#ac2ddb8c6c68804544844eb6de73fa3bc" target="_top" xlink:title=" ">
<polygon fill="white" stroke="#666666" points="165,-184 7,-184 7,-164 165,-164 165,-184"/>
<text text-anchor="middle" x="86" y="-171.2" font-family="Consolas" font-size="11.00">FrameRecorder::record</text>
</a>
</g>
</g>
<!-- Node1&#45;&gt;Node3 -->
<g id="edge2_Node000001_Node000003" class="edge">
<title>Node1&#45;&gt;Node3</title>
<g id="a_edge2_Node000001_Node000003"><a xlink:title=" ">
<path fill="none" stroke="#63b8ff" d="M263.26,-129.87C236.97,-137.54 202.66,-147.25 172,-155 159.83,-158.08 146.62,-161.15 134.32,-163.91"/>
<polygon fill="#63b8ff" stroke="#63b8ff" points="264.31,-133.22 272.92,-127.05 262.34,-126.5 264.31,-133.22"/>
</a>
</g>
</g>
<!-- Node4 -->
<g id="Node000004" class="node">
<title>Node4</title>
<g id="a_Node000004"><a xlink:href="../../d8/d66/class_global_recorder.html#ae158ed93e81a0963b042bd5f2dde1636" target="_top" xlink:title=" ">
<polygon fill="white" stroke="#666666" points="168.5,-146 3.5,-146 3.5,-126 168.5,-126 168.5,-146"/>
<text text-anchor="middle" x="86" y="-133.2" font-family="Consolas" font-size="11.00">GlobalRecorder::record</text>
</a>
</g>
</g>
<!-- Node1&#45;&gt;Node4 -->
<g id="edge3_Node000001_Node000004" class="edge">
<title>Node1&#45;&gt;Node4</title>
<g id="a_edge3_Node000001_Node000004"><a xlink:title=" ">
<path fill="none" stroke="#63b8ff" d="M197.82,-126.41C188.05,-127.25 178.26,-128.1 168.78,-128.92"/>
<polygon fill="#63b8ff" stroke="#63b8ff" points="198.33,-129.88 207.99,-125.53 197.72,-122.9 198.33,-129.88"/>
</a>
</g>
</g>
<!-- Node5 -->
<g id="Node000005" class="node">
<title>Node5</title>
<g id="a_Node000005"><a xlink:href="../../de/d66/class_node_recorder.html#a3a102a0bdd79c204e4da5a7951964130" target="_top" xlink:title=" ">
<polygon fill="white" stroke="#666666" points="162,-108 10,-108 10,-88 162,-88 162,-108"/>
<text text-anchor="middle" x="86" y="-95.2" font-family="Consolas" font-size="11.00">NodeRecorder::record</text>
</a>
</g>
</g>
<!-- Node1&#45;&gt;Node5 -->
<g id="edge4_Node000001_Node000005" class="edge">
<title>Node1&#45;&gt;Node5</title>
<g id="a_edge4_Node000001_Node000005"><a xlink:title=" ">
<path fill="none" stroke="#63b8ff" d="M197.86,-107.6C185.78,-106.55 173.69,-105.5 162.16,-104.51"/>
<polygon fill="#63b8ff" stroke="#63b8ff" points="197.72,-111.1 207.99,-108.47 198.33,-104.12 197.72,-111.1"/>
</a>
</g>
</g>
<!-- Node6 -->
<g id="Node000006" class="node">
<title>Node6</title>
<g id="a_Node000006"><a xlink:href="../../d4/d62/class_sum_recorder.html#ac909db2f65c038d9eea0e2d1a78105d0" target="_top" xlink:title=" ">
<polygon fill="white" stroke="#666666" points="158.5,-70 13.5,-70 13.5,-50 158.5,-50 158.5,-70"/>
<text text-anchor="middle" x="86" y="-57.2" font-family="Consolas" font-size="11.00">SumRecorder::record</text>
</a>
</g>
</g>
<!-- Node1&#45;&gt;Node6 -->
<g id="edge5_Node000001_Node000006" class="edge">
<title>Node1&#45;&gt;Node6</title>
<g id="a_edge5_Node000001_Node000006"><a xlink:title=" ">
<path fill="none" stroke="#63b8ff" d="M263.26,-104.13C236.97,-96.46 202.66,-86.75 172,-79 159.83,-75.92 146.62,-72.85 134.32,-70.09"/>
<polygon fill="#63b8ff" stroke="#63b8ff" points="262.34,-107.5 272.92,-106.95 264.31,-100.78 262.34,-107.5"/>
</a>
</g>
</g>
<!-- Node7 -->
<g id="Node000007" class="node">
<title>Node7</title>
<g id="a_Node000007"><a xlink:href="../../d6/df5/class_visualisation_recorder.html#aa61dae76aed2eb1c34e8cdd9f7630a25" target="_top" xlink:title=" ">
<polygon fill="white" stroke="#666666" points="165,-32 7,-32 7,0 165,0 165,-32"/>
<text text-anchor="start" x="15" y="-19.2" font-family="Consolas" font-size="11.00">VisualisationRecorder</text>
<text text-anchor="middle" x="86" y="-7.2" font-family="Consolas" font-size="11.00">::record</text>
</a>
</g>
</g>
<!-- Node1&#45;&gt;Node7 -->
<g id="edge6_Node000001_Node000007" class="edge">
<title>Node1&#45;&gt;Node7</title>
<g id="a_edge6_Node000001_Node000007"><a xlink:title=" ">
<path fill="none" stroke="#63b8ff" d="M282.85,-101.43C256.63,-84.7 212.66,-58.2 172,-41 164.35,-37.76 156.15,-34.78 147.96,-32.09"/>
<polygon fill="#63b8ff" stroke="#63b8ff" points="281.05,-104.43 291.35,-106.91 284.84,-98.55 281.05,-104.43"/>
</a>
</g>
</g>
</g>
</svg>
