<?xml version="1.0" encoding="UTF-8" standalone="no"?>
<!DOCTYPE svg PUBLIC "-//W3C//DTD SVG 1.1//EN"
 "http://www.w3.org/Graphics/SVG/1.1/DTD/svg11.dtd">
<!-- Generated by graphviz version 5.0.0 (0)
 -->
<!-- Title: MaterialExampleData Pages: 1 -->
<svg width="193pt" height="168pt"
 viewBox="0.00 0.00 193.00 168.00" xmlns="http://www.w3.org/2000/svg" xmlns:xlink="http://www.w3.org/1999/xlink">
<g id="graph0" class="graph" transform="scale(1 1) rotate(0) translate(4 164)">
<title>MaterialExampleData</title>
<!-- Node1 -->
<g id="node1" class="node">
<title>Node1</title>
<g id="a_node1"><a xlink:title="It is recommended to store data, especially constant data, in a simple structure. The motivation is t...">
<polygon fill="#999999" stroke="#666666" points="152,-32 0,-32 0,0 152,0 152,-32"/>
<text text-anchor="middle" x="76" y="-19.2" font-family="Consolas" font-size="11.00">{MaterialExampleData</text>
<text text-anchor="middle" x="76" y="-7.2" font-family="Consolas" font-size="11.00">||}</text>
</a>
</g>
</g>
<!-- Node2 -->
<g id="node2" class="node">
<title>Node2</title>
<g id="a_node2"><a xlink:title=" ">
<polygon fill="white" stroke="#666666" points="108,-160 44,-160 44,-128 108,-128 108,-160"/>
<text text-anchor="middle" x="76" y="-147.2" font-family="Consolas" font-size="11.00">{double</text>
<text text-anchor="middle" x="76" y="-135.2" font-family="Consolas" font-size="11.00">||}</text>
</a>
</g>
</g>
<!-- Node2&#45;&gt;Node1 -->
<g id="edge1" class="edge">
<title>Node2&#45;&gt;Node1</title>
<path fill="none" stroke="#404040" d="M76,-127.55C76,-106.84 76,-69.76 76,-44.29"/>
<polygon fill="none" stroke="#404040" points="76,-44.18 72,-38.18 76,-32.18 80,-38.18 76,-44.18"/>
<text text-anchor="middle" x="130.5" y="-101.2" font-family="Consolas" font-size="11.00"> +beta</text>
<text text-anchor="middle" x="130.5" y="-89.2" font-family="Consolas" font-size="11.00">+elastic_modulus</text>
<text text-anchor="middle" x="130.5" y="-77.2" font-family="Consolas" font-size="11.00">+hardening_ratio</text>
<text text-anchor="middle" x="130.5" y="-65.2" font-family="Consolas" font-size="11.00">+plastic_modulus</text>
<text text-anchor="middle" x="130.5" y="-53.2" font-family="Consolas" font-size="11.00">+yield_stress</text>
</g>
</g>
</svg>
