<?xml version="1.0" encoding="UTF-8" standalone="no"?>
<!DOCTYPE svg PUBLIC "-//W3C//DTD SVG 1.1//EN"
 "http://www.w3.org/Graphics/SVG/1.1/DTD/svg11.dtd">
<!-- Generated by graphviz version 5.0.0 (0)
 -->
<!-- Title: SGCMQ::compute_shape_function Pages: 1 -->
<!--zoomable 80 -->
<svg id="main" version="1.1" xmlns="http://www.w3.org/2000/svg" xmlns:xlink="http://www.w3.org/1999/xlink" xml:space="preserve" onload="init(evt)">
<style type="text/css"><![CDATA[
.edge:hover path { stroke: red; }
.edge:hover polygon { stroke: red; fill: red; }
]]></style>
<script type="text/javascript"><![CDATA[
var edges = document.getElementsByTagName('g');
if (edges && edges.length) {
  for (var i=0;i<edges.length;i++) {
    if (edges[i].id.substr(0,4)=='edge') {
      edges[i].setAttribute('class','edge');
    }
  }
}
]]></script>
        <defs>
                <circle id="rim" cx="0" cy="0" r="7"/>
                <circle id="rim2" cx="0" cy="0" r="3.5"/>
                <g id="zoomPlus">
                        <use xlink:href="#rim" fill="#404040">
                                <set attributeName="fill" to="#808080" begin="zoomplus.mouseover" end="zoomplus.mouseout"/>
                        </use>
                        <path d="M-4,0h8M0,-4v8" fill="none" stroke="white" stroke-width="1.5" pointer-events="none"/>
                </g>
                <g id="zoomMin">
                        <use xlink:href="#rim" fill="#404040">
                                <set attributeName="fill" to="#808080" begin="zoomminus.mouseover" end="zoomminus.mouseout"/>
                        </use>
                        <path d="M-4,0h8" fill="none" stroke="white" stroke-width="1.5" pointer-events="none"/>
                </g>
                <g id="dirArrow">
                        <path fill="none" stroke="white" stroke-width="1.5" d="M0,-3.0v7 M-2.5,-0.5L0,-3.0L2.5,-0.5"/>
                </g>
               <g id="resetDef">
                       <use xlink:href="#rim2" fill="#404040">
                               <set attributeName="fill" to="#808080" begin="reset.mouseover" end="reset.mouseout"/>
                       </use>
               </g>
        </defs>

<script type="text/javascript">
var viewWidth = 528;
var viewHeight = 80;
var sectionId = 'dynsection-5';
</script>
<script xlink:href="../../svgpan.js"/>
<svg id="graph" class="graph">
<g id="viewport">
<title>SGCMQ::compute_shape_function</title>
<!-- Node1 -->
<g id="node1" class="node">
<title>Node1</title>
<g id="a_node1"><a xlink:title=" ">
<polygon fill="#999999" stroke="#666666" points="520,-39.97 368,-39.97 368,-7.97 520,-7.97 520,-39.97"/>
<text text-anchor="start" x="376" y="-27.17" font-family="Consolas" font-size="11.00">SGCMQ::compute_shape</text>
<text text-anchor="middle" x="444" y="-15.17" font-family="Consolas" font-size="11.00">_function</text>
</a>
</g>
</g>
<!-- Node2 -->
<g id="node2" class="node">
<title>Node2</title>
<g id="a_node2"><a xlink:href="../../d2/daf/class_s_g_c_m_q.html#aed34eb2aa5b295de5bd4afaa6245f090" target="_top" xlink:title=" ">
<polygon fill="white" stroke="#666666" points="332,-33.97 167,-33.97 167,-13.97 332,-13.97 332,-33.97"/>
<text text-anchor="middle" x="249.5" y="-21.17" font-family="Consolas" font-size="11.00">SGCMQ::form_body_force</text>
</a>
</g>
</g>
<!-- Node1&#45;&gt;Node2 -->
<g id="edge1" class="edge">
<title>Node1&#45;&gt;Node2</title>
<path fill="none" stroke="#63b8ff" d="M357.51,-23.97C349.05,-23.97 340.48,-23.97 332.06,-23.97"/>
<polygon fill="#63b8ff" stroke="#63b8ff" points="357.75,-27.47 367.75,-23.97 357.75,-20.47 357.75,-27.47"/>
</g>
<!-- Node4 -->
<g id="node4" class="node">
<title>Node4</title>
<g id="a_node4"><a xlink:href="../../d2/daf/class_s_g_c_m_q.html#a1e825b476464981e70daf3aa2c1dedc7" target="_top" xlink:title=" ">
<polygon fill="white" stroke="#666666" points="131,-33.97 0,-33.97 0,-13.97 131,-13.97 131,-33.97"/>
<text text-anchor="middle" x="65.5" y="-21.17" font-family="Consolas" font-size="11.00">SGCMQ::initialize</text>
</a>
</g>
</g>
<!-- Node1&#45;&gt;Node4 -->
<g id="edge7" class="edge">
<title>Node1&#45;&gt;Node4</title>
<path fill="none" stroke="#63b8ff" d="M357.82,-7.89C349.12,-6.7 340.4,-5.69 332,-4.97 258.93,1.24 240.01,1.87 167,-4.97 148.08,-6.75 127.42,-10.36 109.78,-13.96"/>
<polygon fill="#63b8ff" stroke="#63b8ff" points="357.59,-11.39 367.99,-9.36 358.59,-4.47 357.59,-11.39"/>
</g>
<!-- Node5 -->
<g id="node5" class="node">
<title>Node5</title>
<g id="a_node5"><a xlink:href="../../d2/daf/class_s_g_c_m_q.html#a7872c1a73d793bd0a5cd07cb99068c81" target="_top" xlink:title=" ">
<polygon fill="white" stroke="#666666" points="312,-71.97 187,-71.97 187,-51.97 312,-51.97 312,-71.97"/>
<text text-anchor="middle" x="249.5" y="-59.17" font-family="Consolas" font-size="11.00">SGCMQ::form_mass</text>
</a>
</g>
</g>
<!-- Node1&#45;&gt;Node5 -->
<g id="edge4" class="edge">
<title>Node1&#45;&gt;Node5</title>
<path fill="none" stroke="#63b8ff" d="M357.75,-40.8C338.5,-44.6 318.66,-48.52 301.35,-51.93"/>
<polygon fill="#63b8ff" stroke="#63b8ff" points="358.61,-44.2 367.75,-38.83 357.26,-37.33 358.61,-44.2"/>
</g>
<!-- Node3 -->
<g id="node3" class="node">
<title>Node3</title>
<g id="a_node3"><a xlink:href="../../d7/d86/class_g_c_m_q.html#aab80787d2dc84d19b9287ccf37091551" target="_top" xlink:title=" ">
<polygon fill="white" stroke="#666666" points="128,-71.97 3,-71.97 3,-51.97 128,-51.97 128,-71.97"/>
<text text-anchor="middle" x="65.5" y="-59.17" font-family="Consolas" font-size="11.00">GCMQ::initialize</text>
</a>
</g>
</g>
<!-- Node2&#45;&gt;Node3 -->
<g id="edge2" class="edge">
<title>Node2&#45;&gt;Node3</title>
<path fill="none" stroke="#63b8ff" d="M190.35,-36.11C165.96,-41.21 137.92,-47.06 114.7,-51.91"/>
<polygon fill="#63b8ff" stroke="#63b8ff" points="191.13,-39.53 200.21,-34.06 189.7,-32.67 191.13,-39.53"/>
</g>
<!-- Node2&#45;&gt;Node4 -->
<g id="edge3" class="edge">
<title>Node2&#45;&gt;Node4</title>
<path fill="none" stroke="#63b8ff" d="M156.66,-23.97C147.99,-23.97 139.34,-23.97 131,-23.97"/>
<polygon fill="#63b8ff" stroke="#63b8ff" points="156.82,-27.47 166.82,-23.97 156.82,-20.47 156.82,-27.47"/>
</g>
<!-- Node5&#45;&gt;Node3 -->
<g id="edge5" class="edge">
<title>Node5&#45;&gt;Node3</title>
<path fill="none" stroke="#63b8ff" d="M176.49,-61.97C160.46,-61.97 143.62,-61.97 128.05,-61.97"/>
<polygon fill="#63b8ff" stroke="#63b8ff" points="176.88,-65.47 186.88,-61.97 176.88,-58.47 176.88,-65.47"/>
</g>
<!-- Node5&#45;&gt;Node4 -->
<g id="edge6" class="edge">
<title>Node5&#45;&gt;Node4</title>
<path fill="none" stroke="#63b8ff" d="M190.35,-49.83C165.96,-44.74 137.92,-38.89 114.7,-34.04"/>
<polygon fill="#63b8ff" stroke="#63b8ff" points="189.7,-53.27 200.21,-51.89 191.13,-46.42 189.7,-53.27"/>
</g>
</g>
</svg>
        <g id="navigator" transform="translate(0 0)" fill="#404254">
                <rect fill="#f2f5e9" fill-opacity="0.5" stroke="#606060" stroke-width=".5" x="0" y="0" width="60" height="60"/>
                <use id="zoomplus" xlink:href="#zoomPlus" x="17" y="9" onmousedown="handleZoom(evt,'in')"/>
                <use id="zoomminus" xlink:href="#zoomMin" x="42" y="9" onmousedown="handleZoom(evt,'out')"/>
                <use id="reset" xlink:href="#resetDef" x="30" y="36" onmousedown="handleReset()"/>
                <g id="arrowUp" xlink:href="#dirArrow" transform="translate(30 24)" onmousedown="handlePan(0,-1)">
                  <use xlink:href="#rim" fill="#404040">
                        <set attributeName="fill" to="#808080" begin="arrowUp.mouseover" end="arrowUp.mouseout"/>
                  </use>
                  <path fill="none" stroke="white" stroke-width="1.5" d="M0,-3.0v7 M-2.5,-0.5L0,-3.0L2.5,-0.5"/>
                </g>
                <g id="arrowRight" xlink:href="#dirArrow" transform="rotate(90) translate(36 -43)" onmousedown="handlePan(1,0)">
                  <use xlink:href="#rim" fill="#404040">
                        <set attributeName="fill" to="#808080" begin="arrowRight.mouseover" end="arrowRight.mouseout"/>
                  </use>
                  <path fill="none" stroke="white" stroke-width="1.5" d="M0,-3.0v7 M-2.5,-0.5L0,-3.0L2.5,-0.5"/>
                </g>
                <g id="arrowDown" xlink:href="#dirArrow" transform="rotate(180) translate(-30 -48)" onmousedown="handlePan(0,1)">
                  <use xlink:href="#rim" fill="#404040">
                        <set attributeName="fill" to="#808080" begin="arrowDown.mouseover" end="arrowDown.mouseout"/>
                  </use>
                  <path fill="none" stroke="white" stroke-width="1.5" d="M0,-3.0v7 M-2.5,-0.5L0,-3.0L2.5,-0.5"/>
                </g>
                <g id="arrowLeft" xlink:href="#dirArrow" transform="rotate(270) translate(-36 17)" onmousedown="handlePan(-1,0)">
                  <use xlink:href="#rim" fill="#404040">
                        <set attributeName="fill" to="#808080" begin="arrowLeft.mouseover" end="arrowLeft.mouseout"/>
                  </use>
                  <path fill="none" stroke="white" stroke-width="1.5" d="M0,-3.0v7 M-2.5,-0.5L0,-3.0L2.5,-0.5"/>
                </g>
        </g>
        <svg viewBox="0 0 15 15" width="100%" height="30px" preserveAspectRatio="xMaxYMin meet">
         <g id="arrow_out" transform="scale(0.3 0.3)">
          <a xlink:href="class_s_g_c_m_q_a3b42c0d137032acb084e4ce5089c51dc_icgraph_org.svg" target="_base">
           <rect id="button" ry="5" rx="5" y="6" x="6" height="38" width="38"
                fill="#f2f5e9" fill-opacity="0.5" stroke="#606060" stroke-width="1.0"/>
           <path id="arrow"
             d="M 11.500037,31.436501 C 11.940474,20.09759 22.043105,11.32322 32.158766,21.979434 L 37.068811,17.246167 C 37.068811,17.246167 37.088388,32 37.088388,32 L 22.160133,31.978069 C 22.160133,31.978069 26.997745,27.140456 26.997745,27.140456 C 18.528582,18.264221 13.291696,25.230495 11.500037,31.436501 z"
             style="fill:#404040;"/>
          </a>
         </g>
        </svg>
</svg>
