<svg xmlns="http://www.w3.org/2000/svg" xmlns:xlink="http://www.w3.org/1999/xlink" width="232pt" height="104pt" viewBox="0 0 232 104"><svg xmlns="http://www.w3.org/2000/svg" xmlns:xlink="http://www.w3.org/1999/xlink" xml:space="preserve" id="main" onload="init(evt)"><style>.edge,.node,[data-mouse-over-selected=false]{opacity:.7}.edge.selected,.node.selected,[data-mouse-over-selected=true]{opacity:1}.edge:hover path{stroke:red}.edge:hover polygon{stroke:red;fill:red}</style><script xlink:href="../../svg.min.js" type="application/ecmascript"/><svg id="graph" class="graph"><g id="graph0" class="graph" transform="translate(4 100)"><title>to_mat</title><g id="Node000001" class="node"><title>Node1</title><a id="a_Node000001">
<path fill="#999" stroke="#666" d="M57-58H0v20h57z"/>
<text x="28.5" y="-45.2" font-family="Consolas" font-size="11" text-anchor="middle">to_mat</text>
</a></g><g id="Node000002" class="node"><title>Node2</title><a xlink:href="../../db/d78/classtriplet__form.html#ad4015e5cd8f4294e221ca9e244eb4439" id="a_Node000002" target="_top">
<path fill="#fff" stroke="#666" d="M224-96H93v20h131z"/>
<text x="158.5" y="-83.2" font-family="Consolas" font-size="11" text-anchor="middle">triplet_form::col</text>
</a></g><g id="edge1_Node000001_Node000002" class="edge"><title>Node1-&gt;Node2</title><a id="a_edge1_Node000001_Node000002">
<path fill="none" stroke="#63b8ff" d="M57.31-56.35c11.1-3.32 24-7.18 35.69-10.65 6.62-1.96 13.62-4.03 20.47-6.06"/>
<path fill="#63b8ff" stroke="#63b8ff" d="m112.77-76.5 10.58.53-8.6 6.19z"/>
</a></g><g id="Node000003" class="node"><title>Node3</title><a xlink:href="../../db/d78/classtriplet__form.html#ae0b906030f85a037cc259b16d30a6297" id="a_Node000003" target="_top">
<path fill="#fff" stroke="#666" d="M224-58H93v20h131z"/>
<text x="158.5" y="-45.2" font-family="Consolas" font-size="11" text-anchor="middle">triplet_form::row</text>
</a></g><g id="edge2_Node000001_Node000003" class="edge"><title>Node1-&gt;Node3</title><a id="a_edge2_Node000001_Node000003">
<path fill="none" stroke="#63b8ff" d="M57.27-48h25.27"/>
<path fill="#63b8ff" stroke="#63b8ff" d="m82.75-51.5 10 3.5-10 3.5z"/>
</a></g><g id="Node000004" class="node"><title>Node4</title><a xlink:href="../../db/d78/classtriplet__form.html#ad433d29087b85f3c9aa2fe048c705321" id="a_Node000004" target="_top">
<path fill="#fff" stroke="#666" d="M224-20H93V0h131z"/>
<text x="158.5" y="-7.2" font-family="Consolas" font-size="11" text-anchor="middle">triplet_form::val</text>
</a></g><g id="edge3_Node000001_Node000004" class="edge"><title>Node1-&gt;Node4</title><a id="a_edge3_Node000001_Node000004">
<path fill="none" stroke="#63b8ff" d="M57.31-39.65c11.1 3.32 24 7.18 35.69 10.65 6.62 1.96 13.62 4.03 20.47 6.06"/>
<path fill="#63b8ff" stroke="#63b8ff" d="m114.75-26.22 8.6 6.19-10.58.53z"/>
</a></g></g></svg></svg><script type="application/ecmascript"><![CDATA[
document.addEventListener('DOMContentLoaded', (event) => {
  highlightEdges();
  highlightAdjacentNodes();
});
]]></script></svg>