<?xml version="1.0" encoding="UTF-8" standalone="no"?>
<!DOCTYPE svg PUBLIC "-//W3C//DTD SVG 1.1//EN"
 "http://www.w3.org/Graphics/SVG/1.1/DTD/svg11.dtd">
<!-- Generated by graphviz version 2.43.0 (0)
 -->
<!-- Title: ConditionalModifier::get_nodal_active_dof Pages: 1 -->
<svg width="595pt" height="394pt"
 viewBox="0.00 0.00 595.00 394.00" xmlns="http://www.w3.org/2000/svg" xmlns:xlink="http://www.w3.org/1999/xlink">
<g id="graph0" class="graph" transform="scale(1 1) rotate(0) translate(4 390)">
<title>ConditionalModifier::get_nodal_active_dof</title>
<!-- Node1 -->
<g id="Node000001" class="node">
<title>Node1</title>
<g id="a_Node000001"><a xlink:title="Generate active DoF vector from assigned nodes.">
<polygon fill="#999999" stroke="#666666" points="587,-209 422,-209 422,-177 587,-177 587,-209"/>
<text text-anchor="start" x="430" y="-196.2" font-family="Consolas" font-size="11.00">ConditionalModifier</text>
<text text-anchor="middle" x="504.5" y="-184.2" font-family="Consolas" font-size="11.00">::get_nodal_active_dof</text>
</a>
</g>
</g>
<!-- Node2 -->
<g id="Node000002" class="node">
<title>Node2</title>
<g id="a_Node000002"><a xlink:href="../../dc/dfd/class_fixed_length.html#a014eea24708f16173bea8ffc5fab856f" target="_top" xlink:title=" ">
<polygon fill="white" stroke="#666666" points="379.5,-386 207.5,-386 207.5,-366 379.5,-366 379.5,-386"/>
<text text-anchor="middle" x="293.5" y="-373.2" font-family="Consolas" font-size="11.00">FixedLength::initialize</text>
</a>
</g>
</g>
<!-- Node1&#45;&gt;Node2 -->
<g id="edge1_Node000001_Node000002" class="edge">
<title>Node1&#45;&gt;Node2</title>
<g id="a_edge1_Node000001_Node000002"><a xlink:title=" ">
<path fill="none" stroke="#63b8ff" d="M492.57,-218.64C475.49,-255.45 438.86,-322.6 386,-357 380.42,-360.63 374.29,-363.58 367.91,-365.98"/>
<polygon fill="#63b8ff" stroke="#63b8ff" points="495.95,-219.68 496.87,-209.12 489.57,-216.8 495.95,-219.68"/>
</a>
</g>
</g>
<!-- Node3 -->
<g id="Node000003" class="node">
<title>Node3</title>
<g id="a_Node000003"><a xlink:href="../../d3/d97/class_node_facet.html#a2bf1268cfc6c88b408a212b95751d7e2" target="_top" xlink:title=" ">
<polygon fill="white" stroke="#666666" points="372.5,-348 214.5,-348 214.5,-328 372.5,-328 372.5,-348"/>
<text text-anchor="middle" x="293.5" y="-335.2" font-family="Consolas" font-size="11.00">NodeFacet::initialize</text>
</a>
</g>
</g>
<!-- Node1&#45;&gt;Node3 -->
<g id="edge2_Node000001_Node000003" class="edge">
<title>Node1&#45;&gt;Node3</title>
<g id="a_edge2_Node000001_Node000003"><a xlink:title=" ">
<path fill="none" stroke="#63b8ff" d="M487.76,-217.47C467.75,-246.47 430.41,-294.01 386,-319 379.64,-322.58 372.68,-325.49 365.54,-327.85"/>
<polygon fill="#63b8ff" stroke="#63b8ff" points="490.71,-219.36 493.41,-209.11 484.91,-215.44 490.71,-219.36"/>
</a>
</g>
</g>
<!-- Node4 -->
<g id="Node000004" class="node">
<title>Node4</title>
<g id="a_Node000004"><a xlink:href="../../d0/da4/class_node_line.html#a7b9b923b15ff547644e9fdfdc39941a0" target="_top" xlink:title=" ">
<polygon fill="white" stroke="#666666" points="369.5,-310 217.5,-310 217.5,-290 369.5,-290 369.5,-310"/>
<text text-anchor="middle" x="293.5" y="-297.2" font-family="Consolas" font-size="11.00">NodeLine::initialize</text>
</a>
</g>
</g>
<!-- Node1&#45;&gt;Node4 -->
<g id="edge3_Node000001_Node000004" class="edge">
<title>Node1&#45;&gt;Node4</title>
<g id="a_edge3_Node000001_Node000004"><a xlink:title=" ">
<path fill="none" stroke="#63b8ff" d="M479.48,-216.06C457.07,-236.26 421.79,-264.85 386,-281 378.01,-284.6 369.33,-287.53 360.59,-289.91"/>
<polygon fill="#63b8ff" stroke="#63b8ff" points="482.13,-218.38 487.13,-209.04 477.4,-213.22 482.13,-218.38"/>
</a>
</g>
</g>
<!-- Node5 -->
<g id="Node000005" class="node">
<title>Node5</title>
<g id="a_Node000005"><a xlink:href="../../d2/ddb/class_nodal_displacement.html#aeccbc63cf4beda7f09adf6fc263361d2" target="_top" xlink:title=" ">
<polygon fill="white" stroke="#666666" points="366,-272 221,-272 221,-240 366,-240 366,-272"/>
<text text-anchor="start" x="229" y="-259.2" font-family="Consolas" font-size="11.00">NodalDisplacement::</text>
<text text-anchor="middle" x="293.5" y="-247.2" font-family="Consolas" font-size="11.00">initialize</text>
</a>
</g>
</g>
<!-- Node1&#45;&gt;Node5 -->
<g id="edge4_Node000001_Node000005" class="edge">
<title>Node1&#45;&gt;Node5</title>
<g id="a_edge4_Node000001_Node000005"><a xlink:title=" ">
<path fill="none" stroke="#63b8ff" d="M445.92,-212.21C426.9,-218.39 405.6,-225.16 386,-231 375.9,-234.01 365.13,-237.08 354.66,-239.99"/>
<polygon fill="#63b8ff" stroke="#63b8ff" points="447.22,-215.46 455.63,-209.03 445.04,-208.81 447.22,-215.46"/>
</a>
</g>
</g>
<!-- Node7 -->
<g id="Node000007" class="node">
<title>Node7</title>
<g id="a_Node000007"><a xlink:href="../../da/dbb/class_support_motion.html#a6dff548978e5606924fd26685eef34b6" target="_top" xlink:title=" ">
<polygon fill="white" stroke="#666666" points="386,-222 201,-222 201,-202 386,-202 386,-222"/>
<text text-anchor="middle" x="293.5" y="-209.2" font-family="Consolas" font-size="11.00">SupportMotion::initialize</text>
</a>
</g>
</g>
<!-- Node1&#45;&gt;Node7 -->
<g id="edge6_Node000001_Node000007" class="edge">
<title>Node1&#45;&gt;Node7</title>
<g id="a_edge6_Node000001_Node000007"><a xlink:title=" ">
<path fill="none" stroke="#63b8ff" d="M411.59,-201.36C403.16,-202.12 394.62,-202.9 386.19,-203.66"/>
<polygon fill="#63b8ff" stroke="#63b8ff" points="412.16,-204.82 421.8,-200.43 411.52,-197.85 412.16,-204.82"/>
</a>
</g>
</g>
<!-- Node8 -->
<g id="Node000008" class="node">
<title>Node8</title>
<g id="a_Node000008"><a xlink:href="../../db/d0b/class_multiplier_b_c.html#a3f5830303a0659609548d475d3cfb686" target="_top" xlink:title="method to apply the BC to the system.">
<polygon fill="white" stroke="#666666" points="372.5,-184 214.5,-184 214.5,-164 372.5,-164 372.5,-184"/>
<text text-anchor="middle" x="293.5" y="-171.2" font-family="Consolas" font-size="11.00">MultiplierBC::process</text>
</a>
</g>
</g>
<!-- Node1&#45;&gt;Node8 -->
<g id="edge7_Node000001_Node000008" class="edge">
<title>Node1&#45;&gt;Node8</title>
<g id="a_edge7_Node000001_Node000008"><a xlink:title=" ">
<path fill="none" stroke="#63b8ff" d="M411.5,-184.64C398.56,-183.46 385.37,-182.26 372.72,-181.11"/>
<polygon fill="#63b8ff" stroke="#63b8ff" points="411.52,-188.15 421.8,-185.57 412.16,-181.18 411.52,-188.15"/>
</a>
</g>
</g>
<!-- Node10 -->
<g id="Node000010" class="node">
<title>Node10</title>
<g id="a_Node000010"><a xlink:href="../../dd/d1e/class_penalty_b_c.html#ab698f7247ed342a2ef4111745c38857a" target="_top" xlink:title="method to apply the PenaltyBC to the system.">
<polygon fill="white" stroke="#666666" points="362.5,-146 224.5,-146 224.5,-126 362.5,-126 362.5,-146"/>
<text text-anchor="middle" x="293.5" y="-133.2" font-family="Consolas" font-size="11.00">PenaltyBC::process</text>
</a>
</g>
</g>
<!-- Node1&#45;&gt;Node10 -->
<g id="edge9_Node000001_Node000010" class="edge">
<title>Node1&#45;&gt;Node10</title>
<g id="a_edge9_Node000001_Node000010"><a xlink:title=" ">
<path fill="none" stroke="#63b8ff" d="M448.16,-173.74C428.65,-167.32 406.48,-160.42 386,-155 373.77,-151.76 360.49,-148.73 347.95,-146.09"/>
<polygon fill="#63b8ff" stroke="#63b8ff" points="447.21,-177.12 457.8,-176.95 449.42,-170.47 447.21,-177.12"/>
</a>
</g>
</g>
<!-- Node11 -->
<g id="Node000011" class="node">
<title>Node11</title>
<g id="a_Node000011"><a xlink:href="../../d5/df8/class_nodal_acceleration.html#a8357bbc19d70ac071f5eb11fb4b5f3ea" target="_top" xlink:title="This method provides all necessary pieces of typical constraints/loads required, including additional...">
<polygon fill="white" stroke="#666666" points="366,-108 221,-108 221,-76 366,-76 366,-108"/>
<text text-anchor="start" x="229" y="-95.2" font-family="Consolas" font-size="11.00">NodalAcceleration::</text>
<text text-anchor="middle" x="293.5" y="-83.2" font-family="Consolas" font-size="11.00">process</text>
</a>
</g>
</g>
<!-- Node1&#45;&gt;Node11 -->
<g id="edge10_Node000001_Node000011" class="edge">
<title>Node1&#45;&gt;Node11</title>
<g id="a_edge10_Node000001_Node000011"><a xlink:title=" ">
<path fill="none" stroke="#63b8ff" d="M474.72,-170.78C451.78,-153.98 418.25,-131.42 386,-117 378.63,-113.71 370.73,-110.76 362.78,-108.14"/>
<polygon fill="#63b8ff" stroke="#63b8ff" points="472.86,-173.76 482.97,-176.91 477.03,-168.14 472.86,-173.76"/>
</a>
</g>
</g>
<!-- Node12 -->
<g id="Node000012" class="node">
<title>Node12</title>
<g id="a_Node000012"><a xlink:href="../../d2/d05/class_nodal_force.html#a7adc2d253b5859a5c3f56004cd0af8e2" target="_top" xlink:title="This method provides all necessary pieces of typical constraints/loads required, including additional...">
<polygon fill="white" stroke="#666666" points="366,-58 221,-58 221,-38 366,-38 366,-58"/>
<text text-anchor="middle" x="293.5" y="-45.2" font-family="Consolas" font-size="11.00">NodalForce::process</text>
</a>
</g>
</g>
<!-- Node1&#45;&gt;Node12 -->
<g id="edge11_Node000001_Node000012" class="edge">
<title>Node1&#45;&gt;Node12</title>
<g id="a_edge11_Node000001_Node000012"><a xlink:title=" ">
<path fill="none" stroke="#63b8ff" d="M487.76,-168.53C467.75,-139.53 430.41,-91.99 386,-67 379.64,-63.42 372.68,-60.51 365.54,-58.15"/>
<polygon fill="#63b8ff" stroke="#63b8ff" points="484.91,-170.56 493.41,-176.89 490.71,-166.64 484.91,-170.56"/>
</a>
</g>
</g>
<!-- Node13 -->
<g id="Node000013" class="node">
<title>Node13</title>
<g id="a_Node000013"><a xlink:href="../../d3/dca/class_reference_force.html#a0c9b738a04cb421f1c3fc62da0500404" target="_top" xlink:title="This method provides all necessary pieces of typical constraints/loads required, including additional...">
<polygon fill="white" stroke="#666666" points="379.5,-20 207.5,-20 207.5,0 379.5,0 379.5,-20"/>
<text text-anchor="middle" x="293.5" y="-7.2" font-family="Consolas" font-size="11.00">ReferenceForce::process</text>
</a>
</g>
</g>
<!-- Node1&#45;&gt;Node13 -->
<g id="edge12_Node000001_Node000013" class="edge">
<title>Node1&#45;&gt;Node13</title>
<g id="a_edge12_Node000001_Node000013"><a xlink:title=" ">
<path fill="none" stroke="#63b8ff" d="M492.57,-167.36C475.49,-130.55 438.86,-63.4 386,-29 380.42,-25.37 374.29,-22.42 367.91,-20.02"/>
<polygon fill="#63b8ff" stroke="#63b8ff" points="489.57,-169.2 496.87,-176.88 495.95,-166.32 489.57,-169.2"/>
</a>
</g>
</g>
<!-- Node6 -->
<g id="Node000006" class="node">
<title>Node6</title>
<g id="a_Node000006"><a xlink:href="../../dc/de7/class_group_nodal_displacement.html#abaa2e8ae2f2524d0de1d55d538a13414" target="_top" xlink:title=" ">
<polygon fill="white" stroke="#666666" points="165,-272 0,-272 0,-240 165,-240 165,-272"/>
<text text-anchor="start" x="8" y="-259.2" font-family="Consolas" font-size="11.00">GroupNodalDisplacement</text>
<text text-anchor="middle" x="82.5" y="-247.2" font-family="Consolas" font-size="11.00">::initialize</text>
</a>
</g>
</g>
<!-- Node5&#45;&gt;Node6 -->
<g id="edge5_Node000005_Node000006" class="edge">
<title>Node5&#45;&gt;Node6</title>
<g id="a_edge5_Node000005_Node000006"><a xlink:title=" ">
<path fill="none" stroke="#63b8ff" d="M210.63,-256C195.66,-256 180.05,-256 165.1,-256"/>
<polygon fill="#63b8ff" stroke="#63b8ff" points="210.87,-259.5 220.87,-256 210.87,-252.5 210.87,-259.5"/>
</a>
</g>
</g>
<!-- Node9 -->
<g id="Node000009" class="node">
<title>Node9</title>
<g id="a_Node000009"><a xlink:href="../../db/dfd/class_group_multiplier_b_c.html#afd100283985c54071de350733f960ee7" target="_top" xlink:title="This method provides all necessary pieces of typical constraints/loads required, including additional...">
<polygon fill="white" stroke="#666666" points="155,-190 10,-190 10,-158 155,-158 155,-190"/>
<text text-anchor="start" x="18" y="-177.2" font-family="Consolas" font-size="11.00">GroupMultiplierBC::</text>
<text text-anchor="middle" x="82.5" y="-165.2" font-family="Consolas" font-size="11.00">process</text>
</a>
</g>
</g>
<!-- Node8&#45;&gt;Node9 -->
<g id="edge8_Node000008_Node000009" class="edge">
<title>Node8&#45;&gt;Node9</title>
<g id="a_edge8_Node000008_Node000009"><a xlink:title=" ">
<path fill="none" stroke="#63b8ff" d="M204.3,-174C187.96,-174 171.09,-174 155.32,-174"/>
<polygon fill="#63b8ff" stroke="#63b8ff" points="204.38,-177.5 214.38,-174 204.38,-170.5 204.38,-177.5"/>
</a>
</g>
</g>
</g>
</svg>
