<?xml version="1.0" encoding="UTF-8" standalone="no"?>
<!DOCTYPE svg PUBLIC "-//W3C//DTD SVG 1.1//EN"
 "http://www.w3.org/Graphics/SVG/1.1/DTD/svg11.dtd">
<!-- Generated by graphviz version 2.43.0 (0)
 -->
<!-- Title: tensor::stress::lode Pages: 1 -->
<svg width="341pt" height="80pt"
 viewBox="0.00 0.00 341.00 80.00" xmlns="http://www.w3.org/2000/svg" xmlns:xlink="http://www.w3.org/1999/xlink">
<g id="graph0" class="graph" transform="scale(1 1) rotate(0) translate(4 76)">
<title>tensor::stress::lode</title>
<polygon fill="white" stroke="transparent" points="-4,4 -4,-76 337,-76 337,4 -4,4"/>
<!-- Node1 -->
<g id="node1" class="node">
<title>Node1</title>
<g id="a_node1"><a xlink:title=" ">
<polygon fill="#bfbfbf" stroke="black" points="181,-28.5 181,-48.5 333,-48.5 333,-28.5 181,-28.5"/>
<text text-anchor="middle" x="257" y="-35.7" font-family="Consolas" font-size="11.00">tensor::stress::lode</text>
</a>
</g>
</g>
<!-- Node2 -->
<g id="node2" class="node">
<title>Node2</title>
<g id="a_node2"><a xlink:href="../../dc/d83/_test_tensor_8cpp.html#a981196645f20fad54b36ca8946af7763" target="_top" xlink:title=" ">
<polygon fill="white" stroke="black" points="34,-51.5 34,-71.5 111,-71.5 111,-51.5 34,-51.5"/>
<text text-anchor="middle" x="72.5" y="-58.7" font-family="Consolas" font-size="11.00">TEST_CASE</text>
</a>
</g>
</g>
<!-- Node1&#45;&gt;Node2 -->
<g id="edge1" class="edge">
<title>Node1&#45;&gt;Node2</title>
<path fill="none" stroke="midnightblue" d="M170.79,-49.24C149.92,-51.87 128.62,-54.55 111.3,-56.74"/>
<polygon fill="midnightblue" stroke="midnightblue" points="171.5,-52.68 180.98,-47.95 170.62,-45.73 171.5,-52.68"/>
</g>
<!-- Node3 -->
<g id="node3" class="node">
<title>Node3</title>
<g id="a_node3"><a xlink:href="../../dc/dfb/class_c_d_p_m2.html#a1f77ec22f18b90dd568fe6964f8ce91a" target="_top" xlink:title=" ">
<polygon fill="white" stroke="black" points="0,-0.5 0,-32.5 145,-32.5 145,-0.5 0,-0.5"/>
<text text-anchor="start" x="8" y="-19.7" font-family="Consolas" font-size="11.00">CDPM2::update_trial</text>
<text text-anchor="middle" x="72.5" y="-7.7" font-family="Consolas" font-size="11.00">_status</text>
</a>
</g>
</g>
<!-- Node1&#45;&gt;Node3 -->
<g id="edge2" class="edge">
<title>Node1&#45;&gt;Node3</title>
<path fill="none" stroke="midnightblue" d="M170.96,-28.25C162.37,-27.21 153.71,-26.17 145.29,-25.15"/>
<polygon fill="midnightblue" stroke="midnightblue" points="170.63,-31.73 180.98,-29.46 171.47,-24.78 170.63,-31.73"/>
</g>
</g>
</svg>
