<svg xmlns="http://www.w3.org/2000/svg" xmlns:xlink="http://www.w3.org/1999/xlink" width="808" height="925pt" viewBox="0 0 606 925"><g class="graph" transform="translate(4 921)"><title>SectionShell</title><g class="node"><title>Node1</title><a xlink:title="A SectionShell class.">
<path fill="#999" stroke="transparent" d="M398-236H257V0h141z"/>
<text x="287" y="-223.2" font-family="Consolas" font-size="11">SectionShell</text>
<text x="324.5" y="-207.2" font-family="Consolas" font-size="11"> </text>
<text x="261.5" y="-191.2" font-family="Consolas" font-size="11">+</text>
<text x="272.5" y="-191.2" font-family="Consolas" font-size="11">SectionShell()</text>
<text x="261.5" y="-175.2" font-family="Consolas" font-size="11">+</text>
<text x="272.5" y="-175.2" font-family="Consolas" font-size="11">initialize()</text>
<text x="261.5" y="-159.2" font-family="Consolas" font-size="11">+</text>
<text x="272.5" y="-159.2" font-family="Consolas" font-size="11">set_initialized()</text>
<text x="261.5" y="-143.2" font-family="Consolas" font-size="11">+</text>
<text x="272.5" y="-143.2" font-family="Consolas" font-size="11">set_symmetric()</text>
<text x="261.5" y="-127.2" font-family="Consolas" font-size="11">+</text>
<text x="272.5" y="-127.2" font-family="Consolas" font-size="11">is_initialized()</text>
<text x="261.5" y="-111.2" font-family="Consolas" font-size="11">+</text>
<text x="272.5" y="-111.2" font-family="Consolas" font-size="11">is_symmetric()</text>
<text x="261.5" y="-95.2" font-family="Consolas" font-size="11">+</text>
<text x="272.5" y="-95.2" font-family="Consolas" font-size="11">set_eccentricity()</text>
<text x="261.5" y="-79.2" font-family="Consolas" font-size="11">+</text>
<text x="272.5" y="-79.2" font-family="Consolas" font-size="11">get_eccentricity()</text>
<text x="261.5" y="-63.2" font-family="Consolas" font-size="11">+</text>
<text x="272.5" y="-63.2" font-family="Consolas" font-size="11">get_trial_membrane</text>
<text x="272.5" y="-51.2" font-family="Consolas" font-size="11">_strain()</text>
<text x="261.5" y="-35.2" font-family="Consolas" font-size="11">+</text>
<text x="272.5" y="-35.2" font-family="Consolas" font-size="11">get_trial_membrane</text>
<text x="272.5" y="-23.2" font-family="Consolas" font-size="11">_strain_rate()</text>
<text x="272.5" y="-7.2" font-family="Consolas" font-size="11">and 29 more...</text>
<path fill="#666" stroke="#666" d="M257.5-218h141z"/>
<path fill="#666" stroke="#666" d="M257.5-202h141z"/>
<path fill="none" stroke="#666" d="M257 0v-236h141V0z"/>
</a></g><g class="node"><title>Node2</title><a xlink:href="../../d6/d2d/struct_section_shell_data.html" target="_top">
<path fill="#fff" stroke="transparent" d="M334-397H159v84h175z"/>
<text x="192.5" y="-384.2" font-family="Consolas" font-size="11">SectionShellData</text>
<text x="163.5" y="-368.2" font-family="Consolas" font-size="11">+</text>
<text x="174.5" y="-368.2" font-family="Consolas" font-size="11">trial_plate_strain</text>
<text x="163.5" y="-352.2" font-family="Consolas" font-size="11">+</text>
<text x="174.5" y="-352.2" font-family="Consolas" font-size="11">trial_plate_strain_rate</text>
<text x="163.5" y="-336.2" font-family="Consolas" font-size="11">+</text>
<text x="174.5" y="-336.2" font-family="Consolas" font-size="11">trial_plate_stress</text>
<text x="243.5" y="-320.2" font-family="Consolas" font-size="11"> </text>
<path fill="#666" stroke="#666" d="M159.5-379h175z"/>
<path fill="#666" stroke="#666" d="M159.5-331h13z"/>
<path fill="#666" stroke="#666" d="M172.5-331h162z"/>
<path fill="none" stroke="#666" d="M159-313v-84h175v84z"/>
</a></g><g class="edge"><title>Node2-&gt;Node1</title><a>
<path fill="none" stroke="#006400" d="M264.04-303.11c6.82 19.8 14.94 43.35 23.06 66.89"/>
<path fill="none" stroke="#006400" d="m260.65-302.2.05-10.6 6.57 8.32z"/>
</a></g><g class="node"><title>Node3</title><a>
<path fill="#fff" stroke="transparent" d="M65-805H0v52h65z"/>
<text x="5.5" y="-792.2" font-family="Consolas" font-size="11">unsigned</text>
<text x="29.5" y="-776.2" font-family="Consolas" font-size="11"> </text>
<text x="29.5" y="-760.2" font-family="Consolas" font-size="11"> </text>
<path fill="#666" stroke="#666" d="M.5-787h65z"/>
<path fill="#666" stroke="#666" d="M.5-771h65z"/>
<path fill="none" stroke="#666" d="M0-753v-52h65v52z"/>
</a></g><g class="edge"><title>Node3-&gt;Node2</title><a>
<path fill="none" stroke="#63b8ff" d="M24.97-752.79C9.27-694.81-20.7-549.69 40.5-455c24.16 37.39 66.71 61.02 106.89 75.77"/>
<path fill="none" stroke="#63b8ff" d="m147.59-379.16 4.35 5.75 6.98-1.8-4.35-5.75z"/>
</a><text x="88" y="-536.2" fill="gray" font-family="Consolas" font-size="11" text-anchor="middle"> +material_tag</text></g><g class="node"><title>Node4</title><a>
<path fill="#fff" stroke="transparent" d="M166-805h-31v52h31z"/>
<text x="140.5" y="-792.2" font-family="Consolas" font-size="11">vec</text>
<text x="147.5" y="-776.2" font-family="Consolas" font-size="11"> </text>
<text x="147.5" y="-760.2" font-family="Consolas" font-size="11"> </text>
<path fill="#666" stroke="#666" d="M135.5-787h31z"/>
<path fill="#666" stroke="#666" d="M135.5-771h31z"/>
<path fill="none" stroke="#666" d="M135-753v-52h31v52z"/>
</a></g><g class="edge"><title>Node4-&gt;Node2</title><a>
<path fill="none" stroke="#63b8ff" d="M148.21-752.94c-5.69 66.15-18.45 244.13 3.29 297.94 7.35 18.2 19.81 34.94 33.33 49.27"/>
<path fill="none" stroke="#63b8ff" d="m184.91-405.65 1.38 7.08 7.06 1.45-1.38-7.08z"/>
</a><text x="236" y="-614.2" fill="gray" font-family="Consolas" font-size="11" text-anchor="middle"> +current_membrane_strain</text><text x="151.5" y="-602.2" fill="gray" font-family="Consolas" font-size="11">+current_membrane_strain</text><text x="236" y="-590.2" fill="gray" font-family="Consolas" font-size="11" text-anchor="middle">_rate</text><text x="236" y="-578.2" fill="gray" font-family="Consolas" font-size="11" text-anchor="middle">+current_membrane_stress</text><text x="236" y="-566.2" fill="gray" font-family="Consolas" font-size="11" text-anchor="middle">+current_plate_strain</text><text x="151.5" y="-554.2" fill="gray" font-family="Consolas" font-size="11">+current_plate_strain</text><text x="236" y="-542.2" fill="gray" font-family="Consolas" font-size="11" text-anchor="middle">_rate</text><text x="236" y="-530.2" fill="gray" font-family="Consolas" font-size="11" text-anchor="middle">+current_plate_stress</text><text x="236" y="-518.2" fill="gray" font-family="Consolas" font-size="11" text-anchor="middle">+eccentricity</text><text x="236" y="-506.2" fill="gray" font-family="Consolas" font-size="11" text-anchor="middle">+trial_membrane_strain</text><text x="151.5" y="-494.2" fill="gray" font-family="Consolas" font-size="11">+trial_membrane_strain</text><text x="236" y="-482.2" fill="gray" font-family="Consolas" font-size="11" text-anchor="middle">_rate</text><text x="236" y="-470.2" fill="gray" font-family="Consolas" font-size="11" text-anchor="middle">+trial_membrane_stress</text><text x="236" y="-458.2" fill="gray" font-family="Consolas" font-size="11" text-anchor="middle">...</text></g><g class="node"><title>Node5</title><a>
<path fill="#fff" stroke="transparent" d="M358-805h-31v52h31z"/>
<text x="332.5" y="-792.2" font-family="Consolas" font-size="11">mat</text>
<text x="339.5" y="-776.2" font-family="Consolas" font-size="11"> </text>
<text x="339.5" y="-760.2" font-family="Consolas" font-size="11"> </text>
<path fill="#666" stroke="#666" d="M327.5-787h31z"/>
<path fill="#666" stroke="#666" d="M327.5-771h31z"/>
<path fill="none" stroke="#666" d="M327-753v-52h31v52z"/>
</a></g><g class="edge"><title>Node5-&gt;Node2</title><a>
<path fill="none" stroke="#63b8ff" d="M341.61-752.89c-2.64 71.07-10.87 270.25-21.11 297.89-6.3 17-16.51 33.57-27.35 48.13"/>
<path fill="none" stroke="#63b8ff" d="m292.94-406.6-6.84 2.28-.52 7.19 6.84-2.28z"/>
</a><text x="431.5" y="-566.2" fill="gray" font-family="Consolas" font-size="11" text-anchor="middle"> +current_membrane_stiffness</text><text x="431.5" y="-554.2" fill="gray" font-family="Consolas" font-size="11" text-anchor="middle">+current_plate_stiffness</text><text x="431.5" y="-542.2" fill="gray" font-family="Consolas" font-size="11" text-anchor="middle">+initial_membrane_stiffness</text><text x="431.5" y="-530.2" fill="gray" font-family="Consolas" font-size="11" text-anchor="middle">+initial_plate_stiffness</text><text x="431.5" y="-518.2" fill="gray" font-family="Consolas" font-size="11" text-anchor="middle">+trial_membrane_stiffness</text><text x="431.5" y="-506.2" fill="gray" font-family="Consolas" font-size="11" text-anchor="middle">+trial_plate_stiffness</text></g><g class="node"><title>Node6</title><a xlink:href="../../d7/d1d/class_copyable_tag.html" xlink:title="Label objects that can be copied." target="_top">
<path fill="#fff" stroke="transparent" d="M535.5-437h-114v164h114z"/>
<text x="441" y="-424.2" font-family="Consolas" font-size="11">CopyableTag</text>
<text x="475" y="-408.2" font-family="Consolas" font-size="11"> </text>
<text x="425.5" y="-392.2" font-family="Consolas" font-size="11">+</text>
<text x="436.5" y="-392.2" font-family="Consolas" font-size="11">CopyableTag()</text>
<text x="425.5" y="-376.2" font-family="Consolas" font-size="11">+</text>
<text x="436.5" y="-376.2" font-family="Consolas" font-size="11">CopyableTag()</text>
<text x="425.5" y="-360.2" font-family="Consolas" font-size="11">+</text>
<text x="436.5" y="-360.2" font-family="Consolas" font-size="11">operator=()</text>
<text x="425.5" y="-344.2" font-family="Consolas" font-size="11">+</text>
<text x="436.5" y="-344.2" font-family="Consolas" font-size="11">operator=()</text>
<text x="425.5" y="-328.2" font-family="Consolas" font-size="11">+</text>
<text x="436.5" y="-328.2" font-family="Consolas" font-size="11">~CopyableTag()</text>
<text x="425.5" y="-312.2" font-family="Consolas" font-size="11">+</text>
<text x="436.5" y="-312.2" font-family="Consolas" font-size="11">Tag()</text>
<text x="425.5" y="-296.2" font-family="Consolas" font-size="11">+</text>
<text x="436.5" y="-296.2" font-family="Consolas" font-size="11">Tag()</text>
<text x="425.5" y="-280.2" font-family="Consolas" font-size="11">+</text>
<text x="436.5" y="-280.2" font-family="Consolas" font-size="11">Tag()</text>
<path fill="#666" stroke="#666" d="M421.5-419h114z"/>
<path fill="#666" stroke="#666" d="M421.5-403h114z"/>
<path fill="none" stroke="#666" d="M421.5-273v-164h114v164z"/>
</a></g><g class="edge"><title>Node6-&gt;Node1</title><a>
<path fill="none" stroke="#63b8ff" d="M420.71-264.06c-7.41 11.54-15.07 23.45-22.65 35.25"/>
<path fill="none" stroke="#63b8ff" d="m417.97-266.28 8.35-6.52-2.46 10.31z"/>
</a></g><g class="node"><title>Node7</title><a xlink:href="../../d0/d57/class_tag.html" xlink:title="A base Tag class." target="_top">
<path fill="#fff" stroke="transparent" d="M598-917H497v276h101z"/>
<text x="537.5" y="-904.2" font-family="Consolas" font-size="11">Tag</text>
<text x="544.5" y="-888.2" font-family="Consolas" font-size="11"> </text>
<text x="501.5" y="-872.2" font-family="Consolas" font-size="11">+</text>
<text x="512.5" y="-872.2" font-family="Consolas" font-size="11">Tag()</text>
<text x="501.5" y="-856.2" font-family="Consolas" font-size="11">+</text>
<text x="512.5" y="-856.2" font-family="Consolas" font-size="11">Tag()</text>
<text x="501.5" y="-840.2" font-family="Consolas" font-size="11">+</text>
<text x="512.5" y="-840.2" font-family="Consolas" font-size="11">Tag()</text>
<text x="501.5" y="-824.2" font-family="Consolas" font-size="11">+</text>
<text x="512.5" y="-824.2" font-family="Consolas" font-size="11">operator=()</text>
<text x="501.5" y="-808.2" font-family="Consolas" font-size="11">+</text>
<text x="512.5" y="-808.2" font-family="Consolas" font-size="11">operator=()</text>
<text x="501.5" y="-792.2" font-family="Consolas" font-size="11">+</text>
<text x="512.5" y="-792.2" font-family="Consolas" font-size="11">~Tag()</text>
<text x="501.5" y="-776.2" font-family="Consolas" font-size="11">+</text>
<text x="512.5" y="-776.2" font-family="Consolas" font-size="11">set_tag()</text>
<text x="501.5" y="-760.2" font-family="Consolas" font-size="11">+</text>
<text x="512.5" y="-760.2" font-family="Consolas" font-size="11">get_tag()</text>
<text x="501.5" y="-744.2" font-family="Consolas" font-size="11">+</text>
<text x="512.5" y="-744.2" font-family="Consolas" font-size="11">enable()</text>
<text x="501.5" y="-728.2" font-family="Consolas" font-size="11">+</text>
<text x="512.5" y="-728.2" font-family="Consolas" font-size="11">disable()</text>
<text x="501.5" y="-712.2" font-family="Consolas" font-size="11">+</text>
<text x="512.5" y="-712.2" font-family="Consolas" font-size="11">guard()</text>
<text x="501.5" y="-696.2" font-family="Consolas" font-size="11">+</text>
<text x="512.5" y="-696.2" font-family="Consolas" font-size="11">unguard()</text>
<text x="501.5" y="-680.2" font-family="Consolas" font-size="11">+</text>
<text x="512.5" y="-680.2" font-family="Consolas" font-size="11">is_active()</text>
<text x="501.5" y="-664.2" font-family="Consolas" font-size="11">+</text>
<text x="512.5" y="-664.2" font-family="Consolas" font-size="11">is_guarded()</text>
<text x="501.5" y="-648.2" font-family="Consolas" font-size="11">+</text>
<text x="512.5" y="-648.2" font-family="Consolas" font-size="11">print()</text>
<path fill="#666" stroke="#666" d="M497.5-899h101z"/>
<path fill="#666" stroke="#666" d="M497.5-883h101z"/>
<path fill="none" stroke="#666" d="M497-641v-276h101v276z"/>
</a></g><g class="edge"><title>Node7-&gt;Node6</title><a>
<path fill="none" stroke="#63b8ff" d="M555.32-630.3c-.72 55.83-6.02 119.36-21.82 175.3-1.68 5.96-3.78 11.95-6.18 17.88"/>
<path fill="none" stroke="#63b8ff" d="m551.82-630.67 3.58-9.97 3.42 10.03z"/>
</a></g></g></svg>