<?xml version="1.0" encoding="UTF-8" standalone="no"?>
<!DOCTYPE svg PUBLIC "-//W3C//DTD SVG 1.1//EN"
 "http://www.w3.org/Graphics/SVG/1.1/DTD/svg11.dtd">
<!-- Generated by graphviz version 9.0.0 (20230911.1827)
 -->
<!-- Title: Modifier Pages: 1 -->
<svg width="352pt" height="559pt"
 viewBox="0.00 0.00 352.00 558.50" xmlns="http://www.w3.org/2000/svg" xmlns:xlink="http://www.w3.org/1999/xlink">
<g id="graph0" class="graph" transform="scale(1 1) rotate(0) translate(4 554.5)">
<title>Modifier</title>
<!-- Node1 -->
<g id="Node000001" class="node">
<title>Node1</title>
<g id="a_Node000001"><a xlink:title="A Modifier class.">
<polygon fill="#999999" stroke="none" points="182,-208 68,-208 68,0 182,0 182,-208"/>
<text text-anchor="start" x="101" y="-193.55" font-family="Consolas" font-size="11.00">Modifier</text>
<text text-anchor="start" x="122" y="-176.55" font-family="Consolas" font-size="11.00"> </text>
<text text-anchor="start" x="72" y="-159.55" font-family="Consolas" font-size="11.00">+</text>
<text text-anchor="start" x="82" y="-159.55" font-family="Consolas" font-size="11.00">Modifier()</text>
<text text-anchor="start" x="72" y="-142.55" font-family="Consolas" font-size="11.00">+</text>
<text text-anchor="start" x="82" y="-142.55" font-family="Consolas" font-size="11.00">Modifier()</text>
<text text-anchor="start" x="72" y="-125.55" font-family="Consolas" font-size="11.00">+</text>
<text text-anchor="start" x="82" y="-125.55" font-family="Consolas" font-size="11.00">Modifier()</text>
<text text-anchor="start" x="72" y="-108.55" font-family="Consolas" font-size="11.00">+</text>
<text text-anchor="start" x="82" y="-108.55" font-family="Consolas" font-size="11.00">operator=()</text>
<text text-anchor="start" x="72" y="-91.55" font-family="Consolas" font-size="11.00">+</text>
<text text-anchor="start" x="82" y="-91.55" font-family="Consolas" font-size="11.00">operator=()</text>
<text text-anchor="start" x="72" y="-74.55" font-family="Consolas" font-size="11.00">+</text>
<text text-anchor="start" x="82" y="-74.55" font-family="Consolas" font-size="11.00">~Modifier()</text>
<text text-anchor="start" x="72" y="-57.55" font-family="Consolas" font-size="11.00">+</text>
<text text-anchor="start" x="82" y="-57.55" font-family="Consolas" font-size="11.00">has_nonviscous()</text>
<text text-anchor="start" x="72" y="-40.55" font-family="Consolas" font-size="11.00">+</text>
<text text-anchor="start" x="82" y="-40.55" font-family="Consolas" font-size="11.00">initialize()</text>
<text text-anchor="start" x="72" y="-23.55" font-family="Consolas" font-size="11.00">+</text>
<text text-anchor="start" x="82" y="-23.55" font-family="Consolas" font-size="11.00">if_apply()</text>
<text text-anchor="start" x="72" y="-6.55" font-family="Consolas" font-size="11.00">+</text>
<text text-anchor="start" x="82" y="-6.55" font-family="Consolas" font-size="11.00">update_status()</text>
<polygon fill="#666666" stroke="#666666" points="68,-189 68,-189 182,-189 182,-189 68,-189"/>
<polygon fill="#666666" stroke="#666666" points="68,-172 68,-172 182,-172 182,-172 68,-172"/>
<polygon fill="none" stroke="#666666" points="68,0 68,-208 182,-208 182,0 68,0"/>
</a>
</g>
</g>
<!-- Node2 -->
<g id="Node000002" class="node">
<title>Node2</title>
<g id="a_Node000002"><a xlink:href="../../d0/d57/class_tag.html" target="_top" xlink:title="A base Tag class.">
<polygon fill="white" stroke="none" points="90,-550.5 0,-550.5 0,-257.5 90,-257.5 90,-550.5"/>
<text text-anchor="start" x="36" y="-536.05" font-family="Consolas" font-size="11.00">Tag</text>
<text text-anchor="start" x="42" y="-519.05" font-family="Consolas" font-size="11.00"> </text>
<text text-anchor="start" x="4" y="-502.05" font-family="Consolas" font-size="11.00">+</text>
<text text-anchor="start" x="14" y="-502.05" font-family="Consolas" font-size="11.00">Tag()</text>
<text text-anchor="start" x="4" y="-485.05" font-family="Consolas" font-size="11.00">+</text>
<text text-anchor="start" x="14" y="-485.05" font-family="Consolas" font-size="11.00">Tag()</text>
<text text-anchor="start" x="4" y="-468.05" font-family="Consolas" font-size="11.00">+</text>
<text text-anchor="start" x="14" y="-468.05" font-family="Consolas" font-size="11.00">Tag()</text>
<text text-anchor="start" x="4" y="-451.05" font-family="Consolas" font-size="11.00">+</text>
<text text-anchor="start" x="14" y="-451.05" font-family="Consolas" font-size="11.00">operator=()</text>
<text text-anchor="start" x="4" y="-434.05" font-family="Consolas" font-size="11.00">+</text>
<text text-anchor="start" x="14" y="-434.05" font-family="Consolas" font-size="11.00">operator=()</text>
<text text-anchor="start" x="4" y="-417.05" font-family="Consolas" font-size="11.00">+</text>
<text text-anchor="start" x="14" y="-417.05" font-family="Consolas" font-size="11.00">~Tag()</text>
<text text-anchor="start" x="4" y="-400.05" font-family="Consolas" font-size="11.00">+</text>
<text text-anchor="start" x="14" y="-400.05" font-family="Consolas" font-size="11.00">set_tag()</text>
<text text-anchor="start" x="4" y="-383.05" font-family="Consolas" font-size="11.00">+</text>
<text text-anchor="start" x="14" y="-383.05" font-family="Consolas" font-size="11.00">get_tag()</text>
<text text-anchor="start" x="4" y="-366.05" font-family="Consolas" font-size="11.00">+</text>
<text text-anchor="start" x="14" y="-366.05" font-family="Consolas" font-size="11.00">enable()</text>
<text text-anchor="start" x="4" y="-349.05" font-family="Consolas" font-size="11.00">+</text>
<text text-anchor="start" x="14" y="-349.05" font-family="Consolas" font-size="11.00">disable()</text>
<text text-anchor="start" x="4" y="-332.05" font-family="Consolas" font-size="11.00">+</text>
<text text-anchor="start" x="14" y="-332.05" font-family="Consolas" font-size="11.00">guard()</text>
<text text-anchor="start" x="4" y="-315.05" font-family="Consolas" font-size="11.00">+</text>
<text text-anchor="start" x="14" y="-315.05" font-family="Consolas" font-size="11.00">unguard()</text>
<text text-anchor="start" x="4" y="-298.05" font-family="Consolas" font-size="11.00">+</text>
<text text-anchor="start" x="14" y="-298.05" font-family="Consolas" font-size="11.00">is_active()</text>
<text text-anchor="start" x="4" y="-281.05" font-family="Consolas" font-size="11.00">+</text>
<text text-anchor="start" x="14" y="-281.05" font-family="Consolas" font-size="11.00">is_guarded()</text>
<text text-anchor="start" x="4" y="-264.05" font-family="Consolas" font-size="11.00">+</text>
<text text-anchor="start" x="14" y="-264.05" font-family="Consolas" font-size="11.00">print()</text>
<polygon fill="#666666" stroke="#666666" points="0,-531.5 0,-531.5 90,-531.5 90,-531.5 0,-531.5"/>
<polygon fill="#666666" stroke="#666666" points="0,-514.5 0,-514.5 90,-514.5 90,-514.5 0,-514.5"/>
<polygon fill="none" stroke="#666666" points="0,-257.5 0,-550.5 90,-550.5 90,-257.5 0,-257.5"/>
</a>
</g>
</g>
<!-- Node2&#45;&gt;Node1 -->
<g id="edge1_Node000001_Node000002" class="edge">
<title>Node2&#45;&gt;Node1</title>
<g id="a_edge1_Node000001_Node000002"><a xlink:title=" ">
<path fill="none" stroke="#63b8ff" d="M86.92,-246.85C90.45,-233.68 93.97,-220.58 97.36,-207.97"/>
<polygon fill="none" stroke="#63b8ff" points="83.55,-245.9 84.34,-256.47 90.31,-247.72 83.55,-245.9"/>
</a>
</g>
</g>
<!-- Node3 -->
<g id="Node000003" class="node">
<title>Node3</title>
<g id="a_Node000003"><a xlink:title=" ">
<polygon fill="white" stroke="none" points="142,-431.5 108,-431.5 108,-376.5 142,-376.5 142,-431.5"/>
<text text-anchor="start" x="113" y="-417.05" font-family="Consolas" font-size="11.00">uvec</text>
<text text-anchor="start" x="122" y="-400.05" font-family="Consolas" font-size="11.00"> </text>
<text text-anchor="start" x="122" y="-383.05" font-family="Consolas" font-size="11.00"> </text>
<polygon fill="#666666" stroke="#666666" points="108,-412.5 108,-412.5 142,-412.5 142,-412.5 108,-412.5"/>
<polygon fill="#666666" stroke="#666666" points="108,-395.5 108,-395.5 142,-395.5 142,-395.5 108,-395.5"/>
<polygon fill="none" stroke="#666666" points="108,-376.5 108,-431.5 142,-431.5 142,-376.5 108,-376.5"/>
</a>
</g>
</g>
<!-- Node3&#45;&gt;Node1 -->
<g id="edge2_Node000001_Node000003" class="edge">
<title>Node3&#45;&gt;Node1</title>
<g id="a_edge2_Node000001_Node000003"><a xlink:title=" ">
<path fill="none" stroke="#63b8ff" d="M125,-376.55C125,-341.59 125,-277.75 125,-220.75"/>
<polygon fill="none" stroke="#63b8ff" points="125,-220.85 121,-214.85 125,-208.85 129,-214.85 125,-220.85"/>
</a>
</g>
<text text-anchor="middle" x="164" y="-229.05" font-family="Consolas" font-size="11.00" fill="grey"> #element_tag</text>
</g>
<!-- Node4 -->
<g id="Node000004" class="node">
<title>Node4</title>
<g id="a_Node000004"><a xlink:title=" ">
<polygon fill="white" stroke="none" points="344,-431.5 160,-431.5 160,-376.5 344,-376.5 344,-431.5"/>
<text text-anchor="start" x="165" y="-417.05" font-family="Consolas" font-size="11.00">vector&lt; weak_ptr&lt; Element &gt; &gt;</text>
<text text-anchor="start" x="249" y="-400.05" font-family="Consolas" font-size="11.00"> </text>
<text text-anchor="start" x="249" y="-383.05" font-family="Consolas" font-size="11.00"> </text>
<polygon fill="#666666" stroke="#666666" points="160,-412.5 160,-412.5 344,-412.5 344,-412.5 160,-412.5"/>
<polygon fill="#666666" stroke="#666666" points="160,-395.5 160,-395.5 344,-395.5 344,-395.5 160,-395.5"/>
<polygon fill="none" stroke="#666666" points="160,-376.5 160,-431.5 344,-431.5 344,-376.5 160,-376.5"/>
</a>
</g>
</g>
<!-- Node4&#45;&gt;Node1 -->
<g id="edge3_Node000001_Node000004" class="edge">
<title>Node4&#45;&gt;Node1</title>
<g id="a_edge3_Node000001_Node000004"><a xlink:title=" ">
<path fill="none" stroke="#63b8ff" d="M248.21,-376.56C242.49,-341.11 229.81,-276.76 207,-226 201.76,-214.34 195.4,-202.57 188.58,-191.21"/>
<polygon fill="none" stroke="#63b8ff" points="188.7,-191.41 182.14,-188.42 182.38,-181.21 188.94,-184.2 188.7,-191.41"/>
</a>
</g>
<text text-anchor="middle" x="252" y="-229.05" font-family="Consolas" font-size="11.00" fill="grey"> #element_pool</text>
</g>
</g>
</svg>
