<?xml version="1.0" encoding="UTF-8" standalone="no"?>
<!DOCTYPE svg PUBLIC "-//W3C//DTD SVG 1.1//EN"
 "http://www.w3.org/Graphics/SVG/1.1/DTD/svg11.dtd">
<!-- Generated by graphviz version 2.43.0 (0)
 -->
<!-- Title: BWBN Pages: 1 -->
<!--zoomable 1238 -->

<svg id="main" version="1.1" xmlns="http://www.w3.org/2000/svg" xmlns:xlink="http://www.w3.org/1999/xlink" xml:space="preserve" onload="init(evt)">
<style type="text/css"><![CDATA[
.node, .edge {opacity: 0.7;}
.node.selected, .edge.selected {opacity: 1;}
.edge:hover path { stroke: red; }
.edge:hover polygon { stroke: red; fill: red; }
]]></style>

<defs>
  <circle id="rim" cx="0" cy="0" r="7"/>
  <circle id="rim2" cx="0" cy="0" r="3.5"/>
  <g id="zoomPlus">
    <use xlink:href="#rim" fill="#404040"><set attributeName="fill" to="#808080" begin="zoomplus.mouseover" end="zoomplus.mouseout"/></use>
    <path d="M-4,0h8M0,-4v8" fill="none" stroke="white" stroke-width="1.5" pointer-events="none"/>
  </g>
  <g id="zoomMin">
    <use xlink:href="#rim" fill="#404040"><set attributeName="fill" to="#808080" begin="zoomminus.mouseover" end="zoomminus.mouseout"/></use>
    <path d="M-4,0h8" fill="none" stroke="white" stroke-width="1.5" pointer-events="none"/>
  </g>
  <g id="arrowUp" transform="translate(30 24)">
    <use xlink:href="#rim"/>
    <path pointer-events="none" fill="none" stroke="white" stroke-width="1.5" d="M0,-3.0v7 M-2.5,-0.5L0,-3.0L2.5,-0.5"/>
  </g>
  <g id="arrowRight" transform="rotate(90) translate(36 -43)">
    <use xlink:href="#rim"/>
    <path pointer-events="none" fill="none" stroke="white" stroke-width="1.5" d="M0,-3.0v7 M-2.5,-0.5L0,-3.0L2.5,-0.5"/>
  </g>
  <g id="arrowDown" transform="rotate(180) translate(-30 -48)">
    <use xlink:href="#rim"/>
    <path pointer-events="none" fill="none" stroke="white" stroke-width="1.5" d="M0,-3.0v7 M-2.5,-0.5L0,-3.0L2.5,-0.5"/>
  </g>
  <g id="arrowLeft" transform="rotate(270) translate(-36 17)">
    <use xlink:href="#rim"/>
    <path pointer-events="none" fill="none" stroke="white" stroke-width="1.5" d="M0,-3.0v7 M-2.5,-0.5L0,-3.0L2.5,-0.5"/>
  </g>
  <g id="resetDef">
    <use xlink:href="#rim2" fill="#404040"><set attributeName="fill" to="#808080" begin="reset.mouseover" end="reset.mouseout"/></use>
  </g>
</defs>
<script type="application/ecmascript">
var viewWidth = 1247;
var viewHeight = 1238;
var sectionId = 'dynsection-1';
</script>
<script type="application/ecmascript" xlink:href="../../svg.min.js"/>
<svg id="graph" class="graph">
<g id="viewport">
<title>BWBN</title>
<!-- Node1 -->
<g id="Node000001" class="node">
<title>Node1</title>
<g id="a_Node000001"><a xlink:title="The BWBN class.">
<polygon fill="#999999" stroke="transparent" points="367.78,-164 206.78,-164 206.78,0 367.78,0 367.78,-164"/>
<text text-anchor="start" x="273.78" y="-151.2" font-family="Consolas" font-size="11.00">BWBN</text>
<text text-anchor="start" x="284.28" y="-135.2" font-family="Consolas" font-size="11.00"> </text>
<text text-anchor="start" x="211.28" y="-119.2" font-family="Consolas" font-size="11.00">+</text>
<text text-anchor="start" x="222.28" y="-119.2" font-family="Consolas" font-size="11.00">BWBN()</text>
<text text-anchor="start" x="211.28" y="-103.2" font-family="Consolas" font-size="11.00">+</text>
<text text-anchor="start" x="222.28" y="-103.2" font-family="Consolas" font-size="11.00">initialize()</text>
<text text-anchor="start" x="211.28" y="-87.2" font-family="Consolas" font-size="11.00">+</text>
<text text-anchor="start" x="222.28" y="-87.2" font-family="Consolas" font-size="11.00">get_copy()</text>
<text text-anchor="start" x="211.28" y="-71.2" font-family="Consolas" font-size="11.00">+</text>
<text text-anchor="start" x="222.28" y="-71.2" font-family="Consolas" font-size="11.00">update_trial_status()</text>
<text text-anchor="start" x="211.28" y="-55.2" font-family="Consolas" font-size="11.00">+</text>
<text text-anchor="start" x="222.28" y="-55.2" font-family="Consolas" font-size="11.00">clear_status()</text>
<text text-anchor="start" x="211.28" y="-39.2" font-family="Consolas" font-size="11.00">+</text>
<text text-anchor="start" x="222.28" y="-39.2" font-family="Consolas" font-size="11.00">commit_status()</text>
<text text-anchor="start" x="211.28" y="-23.2" font-family="Consolas" font-size="11.00">+</text>
<text text-anchor="start" x="222.28" y="-23.2" font-family="Consolas" font-size="11.00">reset_status()</text>
<text text-anchor="start" x="211.28" y="-7.2" font-family="Consolas" font-size="11.00">+</text>
<text text-anchor="start" x="222.28" y="-7.2" font-family="Consolas" font-size="11.00">print()</text>
<polygon fill="#666666" stroke="#666666" points="207.28,-146 207.28,-146 368.28,-146 368.28,-146 207.28,-146"/>
<polygon fill="#666666" stroke="#666666" points="207.28,-130 207.28,-130 368.28,-130 368.28,-130 207.28,-130"/>
<polygon fill="none" stroke="#666666" points="206.78,0 206.78,-164 367.78,-164 367.78,0 206.78,0"/>
</a>
</g>
</g>
<!-- Node2 -->
<g id="Node000002" class="node">
<title>Node2</title>
<g id="a_Node000002"><a xlink:href="../../d7/d69/struct_data_b_w_b_n.html" target="_top" xlink:title=" ">
<polygon fill="white" stroke="transparent" points="197.78,-604 132.78,-604 132.78,-552 197.78,-552 197.78,-604"/>
<text text-anchor="start" x="138.28" y="-591.2" font-family="Consolas" font-size="11.00">DataBWBN</text>
<text text-anchor="start" x="162.28" y="-575.2" font-family="Consolas" font-size="11.00"> </text>
<text text-anchor="start" x="162.28" y="-559.2" font-family="Consolas" font-size="11.00"> </text>
<polygon fill="#666666" stroke="#666666" points="133.28,-586 133.28,-586 198.28,-586 198.28,-586 133.28,-586"/>
<polygon fill="#666666" stroke="#666666" points="133.28,-570 133.28,-570 198.28,-570 198.28,-570 133.28,-570"/>
<polygon fill="none" stroke="#666666" points="132.78,-552 132.78,-604 197.78,-604 197.78,-552 132.78,-552"/>
</a>
</g>
</g>
<!-- Node2&#45;&gt;Node1 -->
<g id="edge1_Node000001_Node000002" class="edge">
<title>Node2&#45;&gt;Node1</title>
<g id="a_edge1_Node000001_Node000002"><a xlink:title=" ">
<path fill="none" stroke="darkgreen" d="M173.93,-542C193.22,-463.9 240.2,-273.67 267.23,-164.19"/>
<polygon fill="none" stroke="darkgreen" points="170.5,-541.28 171.5,-551.82 177.3,-542.95 170.5,-541.28"/>
</a>
</g>
</g>
<!-- Node3 -->
<g id="Node000003" class="node">
<title>Node3</title>
<g id="a_Node000003"><a xlink:title=" ">
<polygon fill="white" stroke="transparent" points="85.78,-1118 54.78,-1118 54.78,-1066 85.78,-1066 85.78,-1118"/>
<text text-anchor="start" x="60.28" y="-1105.2" font-family="Consolas" font-size="11.00">vec</text>
<text text-anchor="start" x="67.28" y="-1089.2" font-family="Consolas" font-size="11.00"> </text>
<text text-anchor="start" x="67.28" y="-1073.2" font-family="Consolas" font-size="11.00"> </text>
<polygon fill="#666666" stroke="#666666" points="55.28,-1100 55.28,-1100 86.28,-1100 86.28,-1100 55.28,-1100"/>
<polygon fill="#666666" stroke="#666666" points="55.28,-1084 55.28,-1084 86.28,-1084 86.28,-1084 55.28,-1084"/>
<polygon fill="none" stroke="#666666" points="54.78,-1066 54.78,-1118 85.78,-1118 85.78,-1066 54.78,-1066"/>
</a>
</g>
</g>
<!-- Node3&#45;&gt;Node2 -->
<g id="edge2_Node000002_Node000003" class="edge">
<title>Node3&#45;&gt;Node2</title>
<g id="a_edge2_Node000002_Node000003"><a xlink:title=" ">
<path fill="none" stroke="#63b8ff" d="M56.29,-1065.64C30.29,-1015.1 -20.29,-898.56 9.28,-804 33.22,-727.45 93.38,-654.06 131.61,-612.92"/>
<polygon fill="none" stroke="#63b8ff" points="131.65,-612.88 132.85,-605.77 139.88,-604.16 138.67,-611.26 131.65,-612.88"/>
</a>
</g>
<text text-anchor="middle" x="29.78" y="-867.2" font-family="Consolas" font-size="11.00" fill="grey"> +pool</text>
</g>
<!-- Node6 -->
<g id="Node000006" class="node">
<title>Node6</title>
<g id="a_Node000006"><a xlink:href="../../de/de9/struct_data_material.html" target="_top" xlink:title=" ">
<polygon fill="white" stroke="transparent" points="746.28,-762 612.28,-762 612.28,-646 746.28,-646 746.28,-762"/>
<text text-anchor="start" x="638.28" y="-749.2" font-family="Consolas" font-size="11.00">DataMaterial</text>
<text text-anchor="start" x="616.28" y="-733.2" font-family="Consolas" font-size="11.00">+</text>
<text text-anchor="start" x="627.28" y="-733.2" font-family="Consolas" font-size="11.00">trial_strain</text>
<text text-anchor="start" x="616.28" y="-717.2" font-family="Consolas" font-size="11.00">+</text>
<text text-anchor="start" x="627.28" y="-717.2" font-family="Consolas" font-size="11.00">trial_strain_rate</text>
<text text-anchor="start" x="616.28" y="-701.2" font-family="Consolas" font-size="11.00">+</text>
<text text-anchor="start" x="627.28" y="-701.2" font-family="Consolas" font-size="11.00">trial_strain_acc</text>
<text text-anchor="start" x="616.28" y="-685.2" font-family="Consolas" font-size="11.00">+</text>
<text text-anchor="start" x="627.28" y="-685.2" font-family="Consolas" font-size="11.00">trial_stress</text>
<text text-anchor="start" x="616.28" y="-669.2" font-family="Consolas" font-size="11.00">+</text>
<text text-anchor="start" x="627.28" y="-669.2" font-family="Consolas" font-size="11.00">trial_history</text>
<text text-anchor="start" x="675.78" y="-653.2" font-family="Consolas" font-size="11.00"> </text>
<polygon fill="#666666" stroke="#666666" points="612.28,-744 612.28,-744 746.28,-744 746.28,-744 612.28,-744"/>
<polygon fill="#666666" stroke="#666666" points="612.28,-664 612.28,-664 625.28,-664 625.28,-664 612.28,-664"/>
<polygon fill="#666666" stroke="#666666" points="625.28,-664 625.28,-664 746.28,-664 746.28,-664 625.28,-664"/>
<polygon fill="none" stroke="#666666" points="612.28,-646 612.28,-762 746.28,-762 746.28,-646 612.28,-646"/>
</a>
</g>
</g>
<!-- Node3&#45;&gt;Node6 -->
<g id="edge9_Node000006_Node000003" class="edge">
<title>Node3&#45;&gt;Node6</title>
<g id="a_edge9_Node000006_Node000003"><a xlink:title=" ">
<path fill="none" stroke="#63b8ff" d="M86.14,-1080.28C118.26,-1057.67 191.03,-1001.74 227.28,-936 256.29,-883.4 211,-843.46 256.28,-804 294.43,-770.75 434.08,-797.81 483.28,-786 523.34,-776.39 565.83,-759.7 600.96,-743.97"/>
<polygon fill="none" stroke="#63b8ff" points="601.18,-743.87 604.98,-737.74 612.1,-738.9 608.3,-745.03 601.18,-743.87"/>
</a>
</g>
<text text-anchor="middle" x="324.28" y="-927.2" font-family="Consolas" font-size="11.00" fill="grey"> +current_history</text>
<text text-anchor="middle" x="324.28" y="-915.2" font-family="Consolas" font-size="11.00" fill="grey">+current_strain</text>
<text text-anchor="middle" x="324.28" y="-903.2" font-family="Consolas" font-size="11.00" fill="grey">+current_strain_acc</text>
<text text-anchor="middle" x="324.28" y="-891.2" font-family="Consolas" font-size="11.00" fill="grey">+current_strain_rate</text>
<text text-anchor="middle" x="324.28" y="-879.2" font-family="Consolas" font-size="11.00" fill="grey">+current_stress</text>
<text text-anchor="middle" x="324.28" y="-867.2" font-family="Consolas" font-size="11.00" fill="grey">+incre_strain</text>
<text text-anchor="middle" x="324.28" y="-855.2" font-family="Consolas" font-size="11.00" fill="grey">+incre_strain_acc</text>
<text text-anchor="middle" x="324.28" y="-843.2" font-family="Consolas" font-size="11.00" fill="grey">+incre_strain_rate</text>
<text text-anchor="middle" x="324.28" y="-831.2" font-family="Consolas" font-size="11.00" fill="grey">+incre_stress</text>
<text text-anchor="middle" x="324.28" y="-819.2" font-family="Consolas" font-size="11.00" fill="grey">+initial_history</text>
<text text-anchor="middle" x="324.28" y="-807.2" font-family="Consolas" font-size="11.00" fill="grey">...</text>
</g>
<!-- Node11 -->
<g id="Node000011" class="node">
<title>Node11</title>
<g id="a_Node000011"><a xlink:href="../../da/de4/struct_data_couple_material.html" target="_top" xlink:title=" ">
<polygon fill="white" stroke="transparent" points="474.28,-730 342.28,-730 342.28,-678 474.28,-678 474.28,-730"/>
<text text-anchor="start" x="347.28" y="-717.2" font-family="Consolas" font-size="11.00">DataCoupleMaterial</text>
<text text-anchor="start" x="404.78" y="-701.2" font-family="Consolas" font-size="11.00"> </text>
<text text-anchor="start" x="404.78" y="-685.2" font-family="Consolas" font-size="11.00"> </text>
<polygon fill="#666666" stroke="#666666" points="342.28,-712 342.28,-712 474.28,-712 474.28,-712 342.28,-712"/>
<polygon fill="#666666" stroke="#666666" points="342.28,-696 342.28,-696 474.28,-696 474.28,-696 342.28,-696"/>
<polygon fill="none" stroke="#666666" points="342.28,-678 342.28,-730 474.28,-730 474.28,-678 342.28,-678"/>
</a>
</g>
</g>
<!-- Node3&#45;&gt;Node11 -->
<g id="edge12_Node000011_Node000003" class="edge">
<title>Node3&#45;&gt;Node11</title>
<g id="a_edge12_Node000011_Node000003"><a xlink:title=" ">
<path fill="none" stroke="#63b8ff" d="M66.67,-1065.77C58.33,-1003.53 40.68,-844.73 71.28,-804 102.4,-762.57 240.71,-732.52 330.18,-717"/>
<polygon fill="none" stroke="#63b8ff" points="330.37,-716.97 335.61,-712.01 342.2,-714.95 336.95,-719.9 330.37,-716.97"/>
</a>
</g>
<text text-anchor="middle" x="149.28" y="-897.2" font-family="Consolas" font-size="11.00" fill="grey"> +current_couple_stress</text>
<text text-anchor="middle" x="149.28" y="-885.2" font-family="Consolas" font-size="11.00" fill="grey">+current_curvature</text>
<text text-anchor="middle" x="149.28" y="-873.2" font-family="Consolas" font-size="11.00" fill="grey">+incre_couple_stress</text>
<text text-anchor="middle" x="149.28" y="-861.2" font-family="Consolas" font-size="11.00" fill="grey">+incre_curvature</text>
<text text-anchor="middle" x="149.28" y="-849.2" font-family="Consolas" font-size="11.00" fill="grey">+trial_couple_stress</text>
<text text-anchor="middle" x="149.28" y="-837.2" font-family="Consolas" font-size="11.00" fill="grey">+trial_curvature</text>
</g>
<!-- Node4 -->
<g id="Node000004" class="node">
<title>Node4</title>
<g id="a_Node000004"><a xlink:href="../../d9/d97/class_material1_d.html" target="_top" xlink:title="A Material1D class.">
<polygon fill="white" stroke="transparent" points="480.78,-285 379.78,-285 379.78,-201 480.78,-201 480.78,-285"/>
<text text-anchor="start" x="396.78" y="-272.2" font-family="Consolas" font-size="11.00">Material1D</text>
<text text-anchor="start" x="427.28" y="-256.2" font-family="Consolas" font-size="11.00"> </text>
<text text-anchor="start" x="384.28" y="-240.2" font-family="Consolas" font-size="11.00">+</text>
<text text-anchor="start" x="395.28" y="-240.2" font-family="Consolas" font-size="11.00">Material1D()</text>
<text text-anchor="start" x="384.28" y="-224.2" font-family="Consolas" font-size="11.00">+</text>
<text text-anchor="start" x="395.28" y="-224.2" font-family="Consolas" font-size="11.00">record()</text>
<text text-anchor="start" x="384.28" y="-208.2" font-family="Consolas" font-size="11.00">+</text>
<text text-anchor="start" x="395.28" y="-208.2" font-family="Consolas" font-size="11.00">print()</text>
<polygon fill="#666666" stroke="#666666" points="380.28,-267 380.28,-267 481.28,-267 481.28,-267 380.28,-267"/>
<polygon fill="#666666" stroke="#666666" points="380.28,-251 380.28,-251 481.28,-251 481.28,-251 380.28,-251"/>
<polygon fill="none" stroke="#666666" points="379.78,-201 379.78,-285 480.78,-285 480.78,-201 379.78,-201"/>
</a>
</g>
</g>
<!-- Node4&#45;&gt;Node1 -->
<g id="edge3_Node000001_Node000004" class="edge">
<title>Node4&#45;&gt;Node1</title>
<g id="a_edge3_Node000001_Node000004"><a xlink:title=" ">
<path fill="none" stroke="#63b8ff" d="M386.3,-193.1C378.05,-183.92 369.22,-174.1 360.35,-164.24"/>
<polygon fill="none" stroke="#63b8ff" points="383.8,-195.54 393.08,-200.64 389,-190.86 383.8,-195.54"/>
</a>
</g>
</g>
<!-- Node5 -->
<g id="Node000005" class="node">
<title>Node5</title>
<g id="a_Node000005"><a xlink:href="../../dc/dee/class_material.html" target="_top" xlink:title="A Material abstract base class.">
<polygon fill="white" stroke="transparent" points="587.78,-534 426.78,-534 426.78,-322 587.78,-322 587.78,-534"/>
<text text-anchor="start" x="480.28" y="-521.2" font-family="Consolas" font-size="11.00">Material</text>
<text text-anchor="start" x="504.28" y="-505.2" font-family="Consolas" font-size="11.00"> </text>
<text text-anchor="start" x="431.28" y="-489.2" font-family="Consolas" font-size="11.00">+</text>
<text text-anchor="start" x="442.28" y="-489.2" font-family="Consolas" font-size="11.00">Material()</text>
<text text-anchor="start" x="431.28" y="-473.2" font-family="Consolas" font-size="11.00">+</text>
<text text-anchor="start" x="442.28" y="-473.2" font-family="Consolas" font-size="11.00">get_density()</text>
<text text-anchor="start" x="431.28" y="-457.2" font-family="Consolas" font-size="11.00">+</text>
<text text-anchor="start" x="442.28" y="-457.2" font-family="Consolas" font-size="11.00">get_material_type()</text>
<text text-anchor="start" x="431.28" y="-441.2" font-family="Consolas" font-size="11.00">+</text>
<text text-anchor="start" x="442.28" y="-441.2" font-family="Consolas" font-size="11.00">get_plane_type()</text>
<text text-anchor="start" x="431.28" y="-425.2" font-family="Consolas" font-size="11.00">+</text>
<text text-anchor="start" x="442.28" y="-425.2" font-family="Consolas" font-size="11.00">initialize_base()</text>
<text text-anchor="start" x="431.28" y="-409.2" font-family="Consolas" font-size="11.00">+</text>
<text text-anchor="start" x="442.28" y="-409.2" font-family="Consolas" font-size="11.00">initialize()</text>
<text text-anchor="start" x="431.28" y="-393.2" font-family="Consolas" font-size="11.00">+</text>
<text text-anchor="start" x="442.28" y="-393.2" font-family="Consolas" font-size="11.00">initialize_couple()</text>
<text text-anchor="start" x="431.28" y="-377.2" font-family="Consolas" font-size="11.00">+</text>
<text text-anchor="start" x="442.28" y="-377.2" font-family="Consolas" font-size="11.00">initialize_history()</text>
<text text-anchor="start" x="431.28" y="-361.2" font-family="Consolas" font-size="11.00">+</text>
<text text-anchor="start" x="442.28" y="-361.2" font-family="Consolas" font-size="11.00">set_initial_history()</text>
<text text-anchor="start" x="431.28" y="-345.2" font-family="Consolas" font-size="11.00">+</text>
<text text-anchor="start" x="442.28" y="-345.2" font-family="Consolas" font-size="11.00">set_initialized()</text>
<text text-anchor="start" x="442.28" y="-329.2" font-family="Consolas" font-size="11.00">and 67 more...</text>
<polygon fill="#666666" stroke="#666666" points="427.28,-516 427.28,-516 588.28,-516 588.28,-516 427.28,-516"/>
<polygon fill="#666666" stroke="#666666" points="427.28,-500 427.28,-500 588.28,-500 588.28,-500 427.28,-500"/>
<polygon fill="none" stroke="#666666" points="426.78,-322 426.78,-534 587.78,-534 587.78,-322 426.78,-322"/>
</a>
</g>
</g>
<!-- Node5&#45;&gt;Node4 -->
<g id="edge4_Node000004_Node000005" class="edge">
<title>Node5&#45;&gt;Node4</title>
<g id="a_edge4_Node000004_Node000005"><a xlink:title=" ">
<path fill="none" stroke="#63b8ff" d="M459.14,-312.58C455.1,-302.98 451.21,-293.75 447.67,-285.33"/>
<polygon fill="none" stroke="#63b8ff" points="455.95,-314.01 463.05,-321.87 462.4,-311.3 455.95,-314.01"/>
</a>
</g>
</g>
<!-- Node6&#45;&gt;Node5 -->
<g id="edge5_Node000005_Node000006" class="edge">
<title>Node6&#45;&gt;Node5</title>
<g id="a_edge5_Node000005_Node000006"><a xlink:title=" ">
<path fill="none" stroke="darkgreen" d="M638.09,-637.37C618.7,-606.49 595.1,-568.9 573.32,-534.19"/>
<polygon fill="none" stroke="darkgreen" points="635.15,-639.29 643.44,-645.89 641.08,-635.56 635.15,-639.29"/>
</a>
</g>
</g>
<!-- Node7 -->
<g id="Node000007" class="node">
<title>Node7</title>
<g id="a_Node000007"><a xlink:title=" ">
<polygon fill="white" stroke="transparent" points="777.78,-1118 726.78,-1118 726.78,-1066 777.78,-1066 777.78,-1118"/>
<text text-anchor="start" x="732.28" y="-1105.2" font-family="Consolas" font-size="11.00">double</text>
<text text-anchor="start" x="749.28" y="-1089.2" font-family="Consolas" font-size="11.00"> </text>
<text text-anchor="start" x="749.28" y="-1073.2" font-family="Consolas" font-size="11.00"> </text>
<polygon fill="#666666" stroke="#666666" points="727.28,-1100 727.28,-1100 778.28,-1100 778.28,-1100 727.28,-1100"/>
<polygon fill="#666666" stroke="#666666" points="727.28,-1084 727.28,-1084 778.28,-1084 778.28,-1084 727.28,-1084"/>
<polygon fill="none" stroke="#666666" points="726.78,-1066 726.78,-1118 777.78,-1118 777.78,-1066 726.78,-1066"/>
</a>
</g>
</g>
<!-- Node7&#45;&gt;Node6 -->
<g id="edge6_Node000006_Node000007" class="edge">
<title>Node7&#45;&gt;Node6</title>
<g id="a_edge6_Node000006_Node000007"><a xlink:title=" ">
<path fill="none" stroke="#63b8ff" d="M753.66,-1065.85C755.71,-1015.2 756.85,-897.76 730.28,-804 727.34,-793.62 723.26,-783.06 718.67,-772.89"/>
<polygon fill="none" stroke="#63b8ff" points="718.67,-772.88 712.48,-769.17 713.53,-762.04 719.71,-765.74 718.67,-772.88"/>
</a>
</g>
<text text-anchor="middle" x="830.28" y="-879.2" font-family="Consolas" font-size="11.00" fill="grey"> +characteristic_length</text>
<text text-anchor="middle" x="830.28" y="-867.2" font-family="Consolas" font-size="11.00" fill="grey">+density</text>
<text text-anchor="middle" x="830.28" y="-855.2" font-family="Consolas" font-size="11.00" fill="grey">+tolerance</text>
</g>
<!-- Node8 -->
<g id="Node000008" class="node">
<title>Node8</title>
<g id="a_Node000008"><a xlink:title=" ">
<polygon fill="white" stroke="transparent" points="989.28,-1118 857.28,-1118 857.28,-1066 989.28,-1066 989.28,-1118"/>
<text text-anchor="start" x="862.28" y="-1105.2" font-family="Consolas" font-size="11.00">const MaterialType</text>
<text text-anchor="start" x="919.78" y="-1089.2" font-family="Consolas" font-size="11.00"> </text>
<text text-anchor="start" x="919.78" y="-1073.2" font-family="Consolas" font-size="11.00"> </text>
<polygon fill="#666666" stroke="#666666" points="857.28,-1100 857.28,-1100 989.28,-1100 989.28,-1100 857.28,-1100"/>
<polygon fill="#666666" stroke="#666666" points="857.28,-1084 857.28,-1084 989.28,-1084 989.28,-1084 857.28,-1084"/>
<polygon fill="none" stroke="#666666" points="857.28,-1066 857.28,-1118 989.28,-1118 989.28,-1066 857.28,-1066"/>
</a>
</g>
</g>
<!-- Node8&#45;&gt;Node6 -->
<g id="edge7_Node000006_Node000008" class="edge">
<title>Node8&#45;&gt;Node6</title>
<g id="a_edge7_Node000006_Node000008"><a xlink:title=" ">
<path fill="none" stroke="#63b8ff" d="M925.34,-1065.92C929.92,-1004 938.36,-845.91 909.28,-804 874.91,-754.46 810.27,-729.54 758.25,-717.11"/>
<polygon fill="none" stroke="#63b8ff" points="758.05,-717.06 751.32,-719.64 746.35,-714.42 753.08,-711.84 758.05,-717.06"/>
</a>
</g>
<text text-anchor="middle" x="981.28" y="-867.2" font-family="Consolas" font-size="11.00" fill="grey"> +material_type</text>
</g>
<!-- Node9 -->
<g id="Node000009" class="node">
<title>Node9</title>
<g id="a_Node000009"><a xlink:title=" ">
<polygon fill="white" stroke="transparent" points="1119.28,-1118 1007.28,-1118 1007.28,-1066 1119.28,-1066 1119.28,-1118"/>
<text text-anchor="start" x="1012.28" y="-1105.2" font-family="Consolas" font-size="11.00">const PlaneType</text>
<text text-anchor="start" x="1059.78" y="-1089.2" font-family="Consolas" font-size="11.00"> </text>
<text text-anchor="start" x="1059.78" y="-1073.2" font-family="Consolas" font-size="11.00"> </text>
<polygon fill="#666666" stroke="#666666" points="1007.28,-1100 1007.28,-1100 1119.28,-1100 1119.28,-1100 1007.28,-1100"/>
<polygon fill="#666666" stroke="#666666" points="1007.28,-1084 1007.28,-1084 1119.28,-1084 1119.28,-1084 1007.28,-1084"/>
<polygon fill="none" stroke="#666666" points="1007.28,-1066 1007.28,-1118 1119.28,-1118 1119.28,-1066 1007.28,-1066"/>
</a>
</g>
</g>
<!-- Node9&#45;&gt;Node6 -->
<g id="edge8_Node000006_Node000009" class="edge">
<title>Node9&#45;&gt;Node6</title>
<g id="a_edge8_Node000006_Node000009"><a xlink:title=" ">
<path fill="none" stroke="#63b8ff" d="M1062.52,-1065.66C1060.3,-999.25 1052.91,-823.86 1036.28,-804 1035.14,-802.63 863.19,-755.36 758.38,-726.64"/>
<polygon fill="none" stroke="#63b8ff" points="758.15,-726.58 751.3,-728.85 746.57,-723.41 753.42,-721.13 758.15,-726.58"/>
</a>
</g>
<text text-anchor="middle" x="1096.28" y="-867.2" font-family="Consolas" font-size="11.00" fill="grey"> +plane_type</text>
</g>
<!-- Node10 -->
<g id="Node000010" class="node">
<title>Node10</title>
<g id="a_Node000010"><a xlink:title=" ">
<polygon fill="white" stroke="transparent" points="522.78,-1118 491.78,-1118 491.78,-1066 522.78,-1066 522.78,-1118"/>
<text text-anchor="start" x="497.28" y="-1105.2" font-family="Consolas" font-size="11.00">mat</text>
<text text-anchor="start" x="504.28" y="-1089.2" font-family="Consolas" font-size="11.00"> </text>
<text text-anchor="start" x="504.28" y="-1073.2" font-family="Consolas" font-size="11.00"> </text>
<polygon fill="#666666" stroke="#666666" points="492.28,-1100 492.28,-1100 523.28,-1100 523.28,-1100 492.28,-1100"/>
<polygon fill="#666666" stroke="#666666" points="492.28,-1084 492.28,-1084 523.28,-1084 523.28,-1084 492.28,-1084"/>
<polygon fill="none" stroke="#666666" points="491.78,-1066 491.78,-1118 522.78,-1118 522.78,-1066 491.78,-1066"/>
</a>
</g>
</g>
<!-- Node10&#45;&gt;Node6 -->
<g id="edge10_Node000006_Node000010" class="edge">
<title>Node10&#45;&gt;Node6</title>
<g id="a_edge10_Node000006_Node000010"><a xlink:title=" ">
<path fill="none" stroke="#63b8ff" d="M522.9,-1066.29C540.91,-1036.56 570.01,-984.57 585.28,-936 603.06,-879.46 581.44,-858.69 604.28,-804 608.83,-793.11 614.87,-782.34 621.54,-772.16"/>
<polygon fill="none" stroke="#63b8ff" points="621.61,-772.06 621.71,-764.85 628.4,-762.17 628.3,-769.38 621.61,-772.06"/>
</a>
</g>
<text text-anchor="middle" x="665.28" y="-915.2" font-family="Consolas" font-size="11.00" fill="grey"> +current_damping</text>
<text text-anchor="middle" x="665.28" y="-903.2" font-family="Consolas" font-size="11.00" fill="grey">+current_inertial</text>
<text text-anchor="middle" x="665.28" y="-891.2" font-family="Consolas" font-size="11.00" fill="grey">+current_stiffness</text>
<text text-anchor="middle" x="665.28" y="-879.2" font-family="Consolas" font-size="11.00" fill="grey">+initial_damping</text>
<text text-anchor="middle" x="665.28" y="-867.2" font-family="Consolas" font-size="11.00" fill="grey">+initial_inertial</text>
<text text-anchor="middle" x="665.28" y="-855.2" font-family="Consolas" font-size="11.00" fill="grey">+initial_stiffness</text>
<text text-anchor="middle" x="665.28" y="-843.2" font-family="Consolas" font-size="11.00" fill="grey">+trial_damping</text>
<text text-anchor="middle" x="665.28" y="-831.2" font-family="Consolas" font-size="11.00" fill="grey">+trial_inertial</text>
<text text-anchor="middle" x="665.28" y="-819.2" font-family="Consolas" font-size="11.00" fill="grey">+trial_stiffness</text>
</g>
<!-- Node10&#45;&gt;Node11 -->
<g id="edge13_Node000011_Node000010" class="edge">
<title>Node10&#45;&gt;Node11</title>
<g id="a_edge13_Node000011_Node000010"><a xlink:title=" ">
<path fill="none" stroke="#63b8ff" d="M491.52,-1073.58C468.2,-1046.5 425.52,-991.62 409.28,-936 390.02,-870.02 396.1,-788.85 402.23,-742.4"/>
<polygon fill="none" stroke="#63b8ff" points="402.26,-742.15 399.14,-735.65 403.93,-730.26 407.06,-736.76 402.26,-742.15"/>
</a>
</g>
<text text-anchor="middle" x="497.28" y="-879.2" font-family="Consolas" font-size="11.00" fill="grey"> +current_couple_stiffness</text>
<text text-anchor="middle" x="497.28" y="-867.2" font-family="Consolas" font-size="11.00" fill="grey">+initial_couple_stiffness</text>
<text text-anchor="middle" x="497.28" y="-855.2" font-family="Consolas" font-size="11.00" fill="grey">+trial_couple_stiffness</text>
</g>
<!-- Node11&#45;&gt;Node5 -->
<g id="edge11_Node000005_Node000011" class="edge">
<title>Node11&#45;&gt;Node5</title>
<g id="a_edge11_Node000005_Node000011"><a xlink:title=" ">
<path fill="none" stroke="darkgreen" d="M420.97,-667.89C433.15,-634.18 452.17,-581.54 469.25,-534.25"/>
<polygon fill="none" stroke="darkgreen" points="417.53,-667.12 417.42,-677.71 424.11,-669.5 417.53,-667.12"/>
</a>
</g>
</g>
<!-- Node12 -->
<g id="Node000012" class="node">
<title>Node12</title>
<g id="a_Node000012"><a xlink:href="../../dd/d78/class_copiable_tag.html" target="_top" xlink:title=" ">
<polygon fill="white" stroke="transparent" points="1097.28,-786 983.28,-786 983.28,-622 1097.28,-622 1097.28,-786"/>
<text text-anchor="start" x="1002.78" y="-773.2" font-family="Consolas" font-size="11.00">CopiableTag</text>
<text text-anchor="start" x="1036.78" y="-757.2" font-family="Consolas" font-size="11.00"> </text>
<text text-anchor="start" x="987.28" y="-741.2" font-family="Consolas" font-size="11.00">+</text>
<text text-anchor="start" x="998.28" y="-741.2" font-family="Consolas" font-size="11.00">CopiableTag()</text>
<text text-anchor="start" x="987.28" y="-725.2" font-family="Consolas" font-size="11.00">+</text>
<text text-anchor="start" x="998.28" y="-725.2" font-family="Consolas" font-size="11.00">CopiableTag()</text>
<text text-anchor="start" x="987.28" y="-709.2" font-family="Consolas" font-size="11.00">+</text>
<text text-anchor="start" x="998.28" y="-709.2" font-family="Consolas" font-size="11.00">operator=()</text>
<text text-anchor="start" x="987.28" y="-693.2" font-family="Consolas" font-size="11.00">+</text>
<text text-anchor="start" x="998.28" y="-693.2" font-family="Consolas" font-size="11.00">operator=()</text>
<text text-anchor="start" x="987.28" y="-677.2" font-family="Consolas" font-size="11.00">+</text>
<text text-anchor="start" x="998.28" y="-677.2" font-family="Consolas" font-size="11.00">~CopiableTag()</text>
<text text-anchor="start" x="987.28" y="-661.2" font-family="Consolas" font-size="11.00">+</text>
<text text-anchor="start" x="998.28" y="-661.2" font-family="Consolas" font-size="11.00">Tag()</text>
<text text-anchor="start" x="987.28" y="-645.2" font-family="Consolas" font-size="11.00">+</text>
<text text-anchor="start" x="998.28" y="-645.2" font-family="Consolas" font-size="11.00">Tag()</text>
<text text-anchor="start" x="987.28" y="-629.2" font-family="Consolas" font-size="11.00">+</text>
<text text-anchor="start" x="998.28" y="-629.2" font-family="Consolas" font-size="11.00">Tag()</text>
<polygon fill="#666666" stroke="#666666" points="983.28,-768 983.28,-768 1097.28,-768 1097.28,-768 983.28,-768"/>
<polygon fill="#666666" stroke="#666666" points="983.28,-752 983.28,-752 1097.28,-752 1097.28,-752 983.28,-752"/>
<polygon fill="none" stroke="#666666" points="983.28,-622 983.28,-786 1097.28,-786 1097.28,-622 983.28,-622"/>
</a>
</g>
</g>
<!-- Node12&#45;&gt;Node5 -->
<g id="edge14_Node000005_Node000012" class="edge">
<title>Node12&#45;&gt;Node5</title>
<g id="a_edge14_Node000005_Node000012"><a xlink:title=" ">
<path fill="none" stroke="#63b8ff" d="M974.05,-668.95C876.31,-618.71 693.64,-524.8 588.13,-470.56"/>
<polygon fill="none" stroke="#63b8ff" points="972.75,-672.22 983.24,-673.68 975.95,-665.99 972.75,-672.22"/>
</a>
</g>
</g>
<!-- Node13 -->
<g id="Node000013" class="node">
<title>Node13</title>
<g id="a_Node000013"><a xlink:href="../../d0/d57/class_tag.html" target="_top" xlink:title="A base Tag class.">
<polygon fill="white" stroke="transparent" points="1238.78,-1230 1137.78,-1230 1137.78,-954 1238.78,-954 1238.78,-1230"/>
<text text-anchor="start" x="1178.28" y="-1217.2" font-family="Consolas" font-size="11.00">Tag</text>
<text text-anchor="start" x="1185.28" y="-1201.2" font-family="Consolas" font-size="11.00"> </text>
<text text-anchor="start" x="1142.28" y="-1185.2" font-family="Consolas" font-size="11.00">+</text>
<text text-anchor="start" x="1153.28" y="-1185.2" font-family="Consolas" font-size="11.00">Tag()</text>
<text text-anchor="start" x="1142.28" y="-1169.2" font-family="Consolas" font-size="11.00">+</text>
<text text-anchor="start" x="1153.28" y="-1169.2" font-family="Consolas" font-size="11.00">Tag()</text>
<text text-anchor="start" x="1142.28" y="-1153.2" font-family="Consolas" font-size="11.00">+</text>
<text text-anchor="start" x="1153.28" y="-1153.2" font-family="Consolas" font-size="11.00">Tag()</text>
<text text-anchor="start" x="1142.28" y="-1137.2" font-family="Consolas" font-size="11.00">+</text>
<text text-anchor="start" x="1153.28" y="-1137.2" font-family="Consolas" font-size="11.00">operator=()</text>
<text text-anchor="start" x="1142.28" y="-1121.2" font-family="Consolas" font-size="11.00">+</text>
<text text-anchor="start" x="1153.28" y="-1121.2" font-family="Consolas" font-size="11.00">operator=()</text>
<text text-anchor="start" x="1142.28" y="-1105.2" font-family="Consolas" font-size="11.00">+</text>
<text text-anchor="start" x="1153.28" y="-1105.2" font-family="Consolas" font-size="11.00">~Tag()</text>
<text text-anchor="start" x="1142.28" y="-1089.2" font-family="Consolas" font-size="11.00">+</text>
<text text-anchor="start" x="1153.28" y="-1089.2" font-family="Consolas" font-size="11.00">set_tag()</text>
<text text-anchor="start" x="1142.28" y="-1073.2" font-family="Consolas" font-size="11.00">+</text>
<text text-anchor="start" x="1153.28" y="-1073.2" font-family="Consolas" font-size="11.00">get_tag()</text>
<text text-anchor="start" x="1142.28" y="-1057.2" font-family="Consolas" font-size="11.00">+</text>
<text text-anchor="start" x="1153.28" y="-1057.2" font-family="Consolas" font-size="11.00">enable()</text>
<text text-anchor="start" x="1142.28" y="-1041.2" font-family="Consolas" font-size="11.00">+</text>
<text text-anchor="start" x="1153.28" y="-1041.2" font-family="Consolas" font-size="11.00">disable()</text>
<text text-anchor="start" x="1142.28" y="-1025.2" font-family="Consolas" font-size="11.00">+</text>
<text text-anchor="start" x="1153.28" y="-1025.2" font-family="Consolas" font-size="11.00">guard()</text>
<text text-anchor="start" x="1142.28" y="-1009.2" font-family="Consolas" font-size="11.00">+</text>
<text text-anchor="start" x="1153.28" y="-1009.2" font-family="Consolas" font-size="11.00">unguard()</text>
<text text-anchor="start" x="1142.28" y="-993.2" font-family="Consolas" font-size="11.00">+</text>
<text text-anchor="start" x="1153.28" y="-993.2" font-family="Consolas" font-size="11.00">is_active()</text>
<text text-anchor="start" x="1142.28" y="-977.2" font-family="Consolas" font-size="11.00">+</text>
<text text-anchor="start" x="1153.28" y="-977.2" font-family="Consolas" font-size="11.00">is_guarded()</text>
<text text-anchor="start" x="1142.28" y="-961.2" font-family="Consolas" font-size="11.00">+</text>
<text text-anchor="start" x="1153.28" y="-961.2" font-family="Consolas" font-size="11.00">print()</text>
<polygon fill="#666666" stroke="#666666" points="1138.28,-1212 1138.28,-1212 1239.28,-1212 1239.28,-1212 1138.28,-1212"/>
<polygon fill="#666666" stroke="#666666" points="1138.28,-1196 1138.28,-1196 1239.28,-1196 1239.28,-1196 1138.28,-1196"/>
<polygon fill="none" stroke="#666666" points="1137.78,-954 1137.78,-1230 1238.78,-1230 1238.78,-954 1137.78,-954"/>
</a>
</g>
</g>
<!-- Node13&#45;&gt;Node12 -->
<g id="edge15_Node000012_Node000013" class="edge">
<title>Node13&#45;&gt;Node12</title>
<g id="a_edge15_Node000012_Node000013"><a xlink:title=" ">
<path fill="none" stroke="#63b8ff" d="M1187.8,-943.44C1182.63,-896.73 1171.53,-846.29 1149.28,-804 1137.03,-780.7 1116.99,-760.12 1097.41,-743.85"/>
<polygon fill="none" stroke="#63b8ff" points="1184.35,-944.07 1188.85,-953.66 1191.31,-943.35 1184.35,-944.07"/>
</a>
</g>
</g>
</g>
</svg>

<g id="navigator" transform="translate(0 0)" fill="#404254">
  <rect fill="#f2f5e9" fill-opacity="0.5" stroke="#606060" stroke-width=".5" x="0" y="0" width="60" height="60"/>
  <use id="zoomplus" xlink:href="#zoomPlus" x="17" y="9" onmousedown="handleZoom(evt,'in')"/>
  <use id="zoomminus" xlink:href="#zoomMin" x="42" y="9" onmousedown="handleZoom(evt,'out')"/>
  <use id="reset" xlink:href="#resetDef" x="30" y="36" onmousedown="handleReset()"/>
   <use id="arrowup" xlink:href="#arrowUp" x="0" y="0" onmousedown="handlePan(0,-1)"/>
  <use id="arrowright" xlink:href="#arrowRight" x="0" y="0" onmousedown="handlePan(1,0)"/>
  <use id="arrowdown" xlink:href="#arrowDown" x="0" y="0" onmousedown="handlePan(0,1)"/>
  <use id="arrowleft" xlink:href="#arrowLeft" x="0" y="0" onmousedown="handlePan(-1,0)"/>
</g>
<svg viewBox="0 0 15 15" width="100%" height="30px" preserveAspectRatio="xMaxYMin meet">
 <g id="arrow_out" transform="scale(0.3 0.3)">
  <a xlink:href="class_b_w_b_n__coll__graph_org.svg" target="_base">
   <rect id="button" ry="5" rx="5" y="6" x="6" height="38" width="38"
        fill="#f2f5e9" fill-opacity="0.5" stroke="#606060" stroke-width="1.0"/>
   <path id="arrow"
     d="M 11.500037,31.436501 C 11.940474,20.09759 22.043105,11.32322 32.158766,21.979434 L 37.068811,17.246167 C 37.068811,17.246167 37.088388,32 37.088388,32 L 22.160133,31.978069 C 22.160133,31.978069 26.997745,27.140456 26.997745,27.140456 C 18.528582,18.264221 13.291696,25.230495 11.500037,31.436501 z"
     style="fill:#404040;"/>
  </a>
 </g>
</svg>

<style type='text/css'>
<![CDATA[
[data-mouse-over-selected='false'] { opacity: 0.7; }
[data-mouse-over-selected='true']  { opacity: 1.0; }
]]>
</style>
<script type="application/ecmascript"><![CDATA[
document.addEventListener('DOMContentLoaded', (event) => {
  highlightEdges();
  highlightAdjacentNodes();
});
]]></script>
</svg>
