<?xml version="1.0" encoding="UTF-8" standalone="no"?>
<!DOCTYPE svg PUBLIC "-//W3C//DTD SVG 1.1//EN"
 "http://www.w3.org/Graphics/SVG/1.1/DTD/svg11.dtd">
<!-- Generated by graphviz version 9.0.0 (20230911.1827)
 -->
<!-- Title: Recorder/NodeRecorder.cpp Pages: 1 -->
<!--zoomable 317 -->

<svg id="main" version="1.1" xmlns="http://www.w3.org/2000/svg" xmlns:xlink="http://www.w3.org/1999/xlink" xml:space="preserve" onload="init(evt)">
<style type="text/css"><![CDATA[
.node, .edge {opacity: 0.7;}
.node.selected, .edge.selected {opacity: 1;}
.edge:hover path { stroke: red; }
.edge:hover polygon { stroke: red; fill: red; }
]]></style>

<defs>
  <circle id="rim" cx="0" cy="0" r="7"/>
  <circle id="rim2" cx="0" cy="0" r="3.5"/>
  <g id="zoomPlus">
    <use xlink:href="#rim" fill="#404040"><set attributeName="fill" to="#808080" begin="zoomplus.mouseover" end="zoomplus.mouseout"/></use>
    <path d="M-4,0h8M0,-4v8" fill="none" stroke="white" stroke-width="1.5" pointer-events="none"/>
  </g>
  <g id="zoomMin">
    <use xlink:href="#rim" fill="#404040"><set attributeName="fill" to="#808080" begin="zoomminus.mouseover" end="zoomminus.mouseout"/></use>
    <path d="M-4,0h8" fill="none" stroke="white" stroke-width="1.5" pointer-events="none"/>
  </g>
  <g id="arrowUp" transform="translate(30 24)">
    <use xlink:href="#rim"/>
    <path pointer-events="none" fill="none" stroke="white" stroke-width="1.5" d="M0,-3.0v7 M-2.5,-0.5L0,-3.0L2.5,-0.5"/>
  </g>
  <g id="arrowRight" transform="rotate(90) translate(36 -43)">
    <use xlink:href="#rim"/>
    <path pointer-events="none" fill="none" stroke="white" stroke-width="1.5" d="M0,-3.0v7 M-2.5,-0.5L0,-3.0L2.5,-0.5"/>
  </g>
  <g id="arrowDown" transform="rotate(180) translate(-30 -48)">
    <use xlink:href="#rim"/>
    <path pointer-events="none" fill="none" stroke="white" stroke-width="1.5" d="M0,-3.0v7 M-2.5,-0.5L0,-3.0L2.5,-0.5"/>
  </g>
  <g id="arrowLeft" transform="rotate(270) translate(-36 17)">
    <use xlink:href="#rim"/>
    <path pointer-events="none" fill="none" stroke="white" stroke-width="1.5" d="M0,-3.0v7 M-2.5,-0.5L0,-3.0L2.5,-0.5"/>
  </g>
  <g id="resetDef">
    <use xlink:href="#rim2" fill="#404040"><set attributeName="fill" to="#808080" begin="reset.mouseover" end="reset.mouseout"/></use>
  </g>
</defs>
<script type="application/ecmascript">
var viewWidth = 850;
var viewHeight = 317;
var sectionId = 'dynsection-0';
</script>
<script type="application/ecmascript" xlink:href="../../svg.min.js"/>
<svg id="graph" class="graph">
<g id="viewport">
<title>Recorder/NodeRecorder.cpp</title>
<!-- Node1 -->
<g id="Node000001" class="node">
<title>Node1</title>
<g id="a_Node000001"><a xlink:title=" ">
<polygon fill="#999999" stroke="#666666" points="393,-309 227,-309 227,-287.5 393,-287.5 393,-309"/>
<text text-anchor="middle" x="310" y="-294.55" font-family="Consolas" font-size="11.00">Recorder/NodeRecorder.cpp</text>
</a>
</g>
</g>
<!-- Node2 -->
<g id="Node000002" class="node">
<title>Node2</title>
<g id="a_Node000002"><a xlink:href="../../db/d72/_node_recorder_8h.html" target="_top" xlink:title=" ">
<polygon fill="white" stroke="#666666" points="121,-251.5 21,-251.5 21,-230 121,-230 121,-251.5"/>
<text text-anchor="middle" x="71" y="-237.05" font-family="Consolas" font-size="11.00">NodeRecorder.h</text>
</a>
</g>
</g>
<!-- Node1&#45;&gt;Node2 -->
<g id="edge1_Node000001_Node000002" class="edge">
<title>Node1&#45;&gt;Node2</title>
<g id="a_edge1_Node000001_Node000002"><a xlink:title=" ">
<path fill="none" stroke="#63b8ff" d="M265.89,-287.01C226.39,-277.83 168.32,-264.35 125.85,-254.49"/>
<polygon fill="#63b8ff" stroke="#63b8ff" points="126.86,-251.13 116.33,-252.28 125.28,-257.95 126.86,-251.13"/>
</a>
</g>
</g>
<!-- Node15 -->
<g id="Node000015" class="node">
<title>Node15</title>
<g id="a_Node000015"><a xlink:href="../../da/da5/_d_o_f_8h.html" target="_top" xlink:title=" ">
<polygon fill="white" stroke="#666666" points="227,-251.5 139,-251.5 139,-230 227,-230 227,-251.5"/>
<text text-anchor="middle" x="183" y="-237.05" font-family="Consolas" font-size="11.00">Domain/DOF.h</text>
</a>
</g>
</g>
<!-- Node1&#45;&gt;Node15 -->
<g id="edge14_Node000001_Node000015" class="edge">
<title>Node1&#45;&gt;Node15</title>
<g id="a_edge14_Node000001_Node000015"><a xlink:title=" ">
<path fill="none" stroke="#63b8ff" d="M286.71,-287.07C267.01,-278.46 238.56,-266.03 216.43,-256.36"/>
<polygon fill="#63b8ff" stroke="#63b8ff" points="218.1,-253.27 207.53,-252.47 215.29,-259.68 218.1,-253.27"/>
</a>
</g>
</g>
<!-- Node16 -->
<g id="Node000016" class="node">
<title>Node16</title>
<g id="a_Node000016"><a xlink:href="../../dc/df2/_domain_base_8h.html" target="_top" xlink:title=" ">
<polygon fill="white" stroke="#666666" points="375,-251.5 245,-251.5 245,-230 375,-230 375,-251.5"/>
<text text-anchor="middle" x="310" y="-237.05" font-family="Consolas" font-size="11.00">Domain/DomainBase.h</text>
</a>
</g>
</g>
<!-- Node1&#45;&gt;Node16 -->
<g id="edge15_Node000001_Node000016" class="edge">
<title>Node1&#45;&gt;Node16</title>
<g id="a_edge15_Node000001_Node000016"><a xlink:title=" ">
<path fill="none" stroke="#63b8ff" d="M310,-287.07C310,-280.42 310,-271.48 310,-263.3"/>
<polygon fill="#63b8ff" stroke="#63b8ff" points="313.5,-263.38 310,-253.38 306.5,-263.38 313.5,-263.38"/>
</a>
</g>
</g>
<!-- Node23 -->
<g id="Node000023" class="node">
<title>Node23</title>
<g id="a_Node000023"><a xlink:href="../../db/d65/_factory_8hpp.html" target="_top" xlink:title=" ">
<polygon fill="white" stroke="#666666" points="517,-251.5 393,-251.5 393,-230 517,-230 517,-251.5"/>
<text text-anchor="middle" x="455" y="-237.05" font-family="Consolas" font-size="11.00">Domain/Factory.hpp</text>
</a>
</g>
</g>
<!-- Node1&#45;&gt;Node23 -->
<g id="edge24_Node000001_Node000023" class="edge">
<title>Node1&#45;&gt;Node23</title>
<g id="a_edge24_Node000001_Node000023"><a xlink:title=" ">
<path fill="none" stroke="#63b8ff" d="M336.6,-287.07C359.39,-278.35 392.46,-265.69 417.86,-255.97"/>
<polygon fill="#63b8ff" stroke="#63b8ff" points="419.07,-259.25 427.16,-252.41 416.57,-252.71 419.07,-259.25"/>
</a>
</g>
</g>
<!-- Node26 -->
<g id="Node000026" class="node">
<title>Node26</title>
<g id="a_Node000026"><a xlink:href="../../d1/d02/_node_8h.html" target="_top" xlink:title=" ">
<polygon fill="white" stroke="#666666" points="634,-251.5 540,-251.5 540,-230 634,-230 634,-251.5"/>
<text text-anchor="middle" x="587" y="-237.05" font-family="Consolas" font-size="11.00">Domain/Node.h</text>
</a>
</g>
</g>
<!-- Node1&#45;&gt;Node26 -->
<g id="edge30_Node000001_Node000026" class="edge">
<title>Node1&#45;&gt;Node26</title>
<g id="a_edge30_Node000001_Node000026"><a xlink:title=" ">
<path fill="none" stroke="#63b8ff" d="M361.13,-287.01C408.55,-277.5 479.08,-263.37 528.68,-253.44"/>
<polygon fill="#63b8ff" stroke="#63b8ff" points="529.26,-256.89 538.38,-251.49 527.89,-250.02 529.26,-256.89"/>
</a>
</g>
</g>
<!-- Node3 -->
<g id="Node000003" class="node">
<title>Node3</title>
<g id="a_Node000003"><a xlink:href="../../d2/d42/_recorder_8h.html" target="_top" xlink:title=" ">
<polygon fill="white" stroke="#666666" points="136,-194 6,-194 6,-172.5 136,-172.5 136,-194"/>
<text text-anchor="middle" x="71" y="-179.55" font-family="Consolas" font-size="11.00">Recorder/Recorder.h</text>
</a>
</g>
</g>
<!-- Node2&#45;&gt;Node3 -->
<g id="edge2_Node000002_Node000003" class="edge">
<title>Node2&#45;&gt;Node3</title>
<g id="a_edge2_Node000002_Node000003"><a xlink:title=" ">
<path fill="none" stroke="#63b8ff" d="M71,-229.57C71,-222.92 71,-213.98 71,-205.8"/>
<polygon fill="#63b8ff" stroke="#63b8ff" points="74.5,-205.88 71,-195.88 67.5,-205.88 74.5,-205.88"/>
</a>
</g>
</g>
<!-- Node4 -->
<g id="Node000004" class="node">
<title>Node4</title>
<g id="a_Node000004"><a xlink:href="../../d2/d4a/_tag_8h.html" target="_top" xlink:title=" ">
<polygon fill="white" stroke="#666666" points="374,-136.5 286,-136.5 286,-115 374,-115 374,-136.5"/>
<text text-anchor="middle" x="330" y="-122.05" font-family="Consolas" font-size="11.00">Domain/Tag.h</text>
</a>
</g>
</g>
<!-- Node3&#45;&gt;Node4 -->
<g id="edge3_Node000003_Node000004" class="edge">
<title>Node3&#45;&gt;Node4</title>
<g id="a_edge3_Node000003_Node000004"><a xlink:title=" ">
<path fill="none" stroke="#63b8ff" d="M118.81,-172.01C162.83,-162.57 228.13,-148.58 274.45,-138.65"/>
<polygon fill="#63b8ff" stroke="#63b8ff" points="274.98,-142.12 284.02,-136.6 273.51,-135.28 274.98,-142.12"/>
</a>
</g>
</g>
<!-- Node13 -->
<g id="Node000013" class="node">
<title>Node13</title>
<g id="a_Node000013"><a xlink:href="../../d4/d0f/_output_type_8h.html" target="_top" xlink:title=" ">
<polygon fill="white" stroke="#666666" points="142,-136.5 0,-136.5 0,-115 142,-115 142,-136.5"/>
<text text-anchor="middle" x="71" y="-122.05" font-family="Consolas" font-size="11.00">Recorder/OutputType.h</text>
</a>
</g>
</g>
<!-- Node3&#45;&gt;Node13 -->
<g id="edge12_Node000003_Node000013" class="edge">
<title>Node3&#45;&gt;Node13</title>
<g id="a_edge12_Node000003_Node000013"><a xlink:title=" ">
<path fill="none" stroke="#63b8ff" d="M71,-172.07C71,-165.42 71,-156.48 71,-148.3"/>
<polygon fill="#63b8ff" stroke="#63b8ff" points="74.5,-148.38 71,-138.38 67.5,-148.38 74.5,-148.38"/>
</a>
</g>
</g>
<!-- Node5 -->
<g id="Node000005" class="node">
<title>Node5</title>
<g id="a_Node000005"><a xlink:href="../../d8/d8f/suan_pan_8h.html" target="_top" xlink:title=" ">
<polygon fill="white" stroke="#666666" points="608,-79 538,-79 538,-57.5 608,-57.5 608,-79"/>
<text text-anchor="middle" x="573" y="-64.55" font-family="Consolas" font-size="11.00">suanPan.h</text>
</a>
</g>
</g>
<!-- Node4&#45;&gt;Node5 -->
<g id="edge4_Node000004_Node000005" class="edge">
<title>Node4&#45;&gt;Node5</title>
<g id="a_edge4_Node000004_Node000005"><a xlink:title=" ">
<path fill="none" stroke="#63b8ff" d="M374.29,-114.63C417.39,-104.79 482.63,-89.89 526.48,-79.88"/>
<polygon fill="#63b8ff" stroke="#63b8ff" points="527.24,-83.29 536.21,-77.65 525.69,-76.47 527.24,-83.29"/>
</a>
</g>
</g>
<!-- Node6 -->
<g id="Node000006" class="node">
<title>Node6</title>
<g id="a_Node000006"><a xlink:title=" ">
<polygon fill="#e0e0e0" stroke="#999999" points="272,-21.5 208,-21.5 208,0 272,0 272,-21.5"/>
<text text-anchor="middle" x="240" y="-7.05" font-family="Consolas" font-size="11.00">iostream</text>
</a>
</g>
</g>
<!-- Node5&#45;&gt;Node6 -->
<g id="edge5_Node000005_Node000006" class="edge">
<title>Node5&#45;&gt;Node6</title>
<g id="a_edge5_Node000005_Node000006"><a xlink:title=" ">
<path fill="none" stroke="#63b8ff" d="M537.79,-62.64C484.8,-55.5 381.19,-40.79 283.45,-21.86"/>
<polygon fill="#63b8ff" stroke="#63b8ff" points="284.15,-18.43 273.66,-19.94 282.8,-25.3 284.15,-18.43"/>
</a>
</g>
</g>
<!-- Node7 -->
<g id="Node000007" class="node">
<title>Node7</title>
<g id="a_Node000007"><a xlink:title=" ">
<polygon fill="#e0e0e0" stroke="#999999" points="420,-21.5 290,-21.5 290,0 420,0 420,-21.5"/>
<text text-anchor="middle" x="355" y="-7.05" font-family="Consolas" font-size="11.00">armadillo/armadillo</text>
</a>
</g>
</g>
<!-- Node5&#45;&gt;Node7 -->
<g id="edge6_Node000005_Node000007" class="edge">
<title>Node5&#45;&gt;Node7</title>
<g id="a_edge6_Node000005_Node000007"><a xlink:title=" ">
<path fill="none" stroke="#63b8ff" d="M537.97,-58.33C502.33,-49.26 446.7,-35.1 406.13,-24.77"/>
<polygon fill="#63b8ff" stroke="#63b8ff" points="407.14,-21.41 396.59,-22.34 405.41,-28.2 407.14,-21.41"/>
</a>
</g>
</g>
<!-- Node8 -->
<g id="Node000008" class="node">
<title>Node8</title>
<g id="a_Node000008"><a xlink:title=" ">
<polygon fill="#e0e0e0" stroke="#999999" points="514,-21.5 438,-21.5 438,0 514,0 514,-21.5"/>
<text text-anchor="middle" x="476" y="-7.05" font-family="Consolas" font-size="11.00">filesystem</text>
</a>
</g>
</g>
<!-- Node5&#45;&gt;Node8 -->
<g id="edge7_Node000005_Node000008" class="edge">
<title>Node5&#45;&gt;Node8</title>
<g id="a_edge7_Node000005_Node000008"><a xlink:title=" ">
<path fill="none" stroke="#63b8ff" d="M555.21,-57.07C540.71,-48.78 520.01,-36.93 503.4,-27.43"/>
<polygon fill="#63b8ff" stroke="#63b8ff" points="505.41,-24.55 494.99,-22.62 501.93,-30.62 505.41,-24.55"/>
</a>
</g>
</g>
<!-- Node9 -->
<g id="Node000009" class="node">
<title>Node9</title>
<g id="a_Node000009"><a xlink:title=" ">
<polygon fill="#e0e0e0" stroke="#999999" points="614,-21.5 532,-21.5 532,0 614,0 614,-21.5"/>
<text text-anchor="middle" x="573" y="-7.05" font-family="Consolas" font-size="11.00">fmt/color.h</text>
</a>
</g>
</g>
<!-- Node5&#45;&gt;Node9 -->
<g id="edge8_Node000005_Node000009" class="edge">
<title>Node5&#45;&gt;Node9</title>
<g id="a_edge8_Node000005_Node000009"><a xlink:title=" ">
<path fill="none" stroke="#63b8ff" d="M573,-57.07C573,-50.42 573,-41.48 573,-33.3"/>
<polygon fill="#63b8ff" stroke="#63b8ff" points="576.5,-33.38 573,-23.38 569.5,-33.38 576.5,-33.38"/>
</a>
</g>
</g>
<!-- Node10 -->
<g id="Node000010" class="node">
<title>Node10</title>
<g id="a_Node000010"><a xlink:title=" ">
<polygon fill="#e0e0e0" stroke="#999999" points="678,-21.5 632,-21.5 632,0 678,0 678,-21.5"/>
<text text-anchor="middle" x="655" y="-7.05" font-family="Consolas" font-size="11.00">mutex</text>
</a>
</g>
</g>
<!-- Node5&#45;&gt;Node10 -->
<g id="edge9_Node000005_Node000010" class="edge">
<title>Node5&#45;&gt;Node10</title>
<g id="a_edge9_Node000005_Node000010"><a xlink:title=" ">
<path fill="none" stroke="#63b8ff" d="M588.04,-57.07C599.95,-49.01 616.81,-37.6 630.64,-28.24"/>
<polygon fill="#63b8ff" stroke="#63b8ff" points="632.48,-31.22 638.8,-22.71 628.56,-25.42 632.48,-31.22"/>
</a>
</g>
</g>
<!-- Node11 -->
<g id="Node000011" class="node">
<title>Node11</title>
<g id="a_Node000011"><a xlink:title=" ">
<polygon fill="#e0e0e0" stroke="#999999" points="772,-21.5 696,-21.5 696,0 772,0 772,-21.5"/>
<text text-anchor="middle" x="734" y="-7.05" font-family="Consolas" font-size="11.00">functional</text>
</a>
</g>
</g>
<!-- Node5&#45;&gt;Node11 -->
<g id="edge10_Node000005_Node000011" class="edge">
<title>Node5&#45;&gt;Node11</title>
<g id="a_edge10_Node000005_Node000011"><a xlink:title=" ">
<path fill="none" stroke="#63b8ff" d="M602.53,-57.07C628.1,-48.26 665.31,-35.43 693.63,-25.67"/>
<polygon fill="#63b8ff" stroke="#63b8ff" points="694.64,-29.02 702.95,-22.45 692.36,-22.4 694.64,-29.02"/>
</a>
</g>
</g>
<!-- Node12 -->
<g id="Node000012" class="node">
<title>Node12</title>
<g id="a_Node000012"><a xlink:title=" ">
<polygon fill="#e0e0e0" stroke="#999999" points="842,-21.5 790,-21.5 790,0 842,0 842,-21.5"/>
<text text-anchor="middle" x="816" y="-7.05" font-family="Consolas" font-size="11.00">memory</text>
</a>
</g>
</g>
<!-- Node5&#45;&gt;Node12 -->
<g id="edge11_Node000005_Node000012" class="edge">
<title>Node5&#45;&gt;Node12</title>
<g id="a_edge11_Node000005_Node000012"><a xlink:title=" ">
<path fill="none" stroke="#63b8ff" d="M608.47,-60.07C647.79,-51.97 713.34,-38.08 778.75,-21.96"/>
<polygon fill="#63b8ff" stroke="#63b8ff" points="779.34,-25.42 788.2,-19.62 777.65,-18.63 779.34,-25.42"/>
</a>
</g>
</g>
<!-- Node14 -->
<g id="Node000014" class="node">
<title>Node14</title>
<g id="a_Node000014"><a xlink:title=" ">
<polygon fill="#e0e0e0" stroke="#999999" points="97,-79 45,-79 45,-57.5 97,-57.5 97,-79"/>
<text text-anchor="middle" x="71" y="-64.55" font-family="Consolas" font-size="11.00">string</text>
</a>
</g>
</g>
<!-- Node13&#45;&gt;Node14 -->
<g id="edge13_Node000013_Node000014" class="edge">
<title>Node13&#45;&gt;Node14</title>
<g id="a_edge13_Node000013_Node000014"><a xlink:title=" ">
<path fill="none" stroke="#63b8ff" d="M71,-114.57C71,-107.92 71,-98.98 71,-90.8"/>
<polygon fill="#63b8ff" stroke="#63b8ff" points="74.5,-90.88 71,-80.88 67.5,-90.88 74.5,-90.88"/>
</a>
</g>
</g>
<!-- Node16&#45;&gt;Node4 -->
<g id="edge17_Node000016_Node000004" class="edge">
<title>Node16&#45;&gt;Node4</title>
<g id="a_edge17_Node000016_Node000004"><a xlink:title=" ">
<path fill="none" stroke="#63b8ff" d="M248.28,-229.52C206.06,-219.7 161.33,-201.94 183,-172.5 203.91,-144.1 242.31,-132.82 274.62,-128.56"/>
<polygon fill="#63b8ff" stroke="#63b8ff" points="274.7,-132.07 284.26,-127.49 273.93,-125.11 274.7,-132.07"/>
</a>
</g>
</g>
<!-- Node17 -->
<g id="Node000017" class="node">
<title>Node17</title>
<g id="a_Node000017"><a xlink:title=" ">
<polygon fill="#e0e0e0" stroke="#999999" points="244,-194 192,-194 192,-172.5 244,-172.5 244,-194"/>
<text text-anchor="middle" x="218" y="-179.55" font-family="Consolas" font-size="11.00">future</text>
</a>
</g>
</g>
<!-- Node16&#45;&gt;Node17 -->
<g id="edge16_Node000016_Node000017" class="edge">
<title>Node16&#45;&gt;Node17</title>
<g id="a_edge16_Node000016_Node000017"><a xlink:title=" ">
<path fill="none" stroke="#63b8ff" d="M293.13,-229.57C279.51,-221.36 260.11,-209.65 244.43,-200.2"/>
<polygon fill="#63b8ff" stroke="#63b8ff" points="246.43,-197.32 236.06,-195.15 242.82,-203.31 246.43,-197.32"/>
</a>
</g>
</g>
<!-- Node18 -->
<g id="Node000018" class="node">
<title>Node18</title>
<g id="a_Node000018"><a xlink:href="../../d4/ddd/container_8h.html" target="_top" xlink:title=" ">
<polygon fill="white" stroke="#666666" points="750,-194 620,-194 620,-172.5 750,-172.5 750,-194"/>
<text text-anchor="middle" x="685" y="-179.55" font-family="Consolas" font-size="11.00">Toolbox/container.h</text>
</a>
</g>
</g>
<!-- Node16&#45;&gt;Node18 -->
<g id="edge18_Node000016_Node000018" class="edge">
<title>Node16&#45;&gt;Node18</title>
<g id="a_edge18_Node000016_Node000018"><a xlink:title=" ">
<path fill="none" stroke="#63b8ff" d="M375.32,-230.08C440.32,-220.46 540.02,-205.71 608.64,-195.55"/>
<polygon fill="#63b8ff" stroke="#63b8ff" points="608.92,-199.05 618.3,-194.12 607.9,-192.12 608.92,-199.05"/>
</a>
</g>
</g>
<!-- Node18&#45;&gt;Node5 -->
<g id="edge19_Node000018_Node000005" class="edge">
<title>Node18&#45;&gt;Node5</title>
<g id="a_edge19_Node000018_Node000005"><a xlink:title=" ">
<path fill="none" stroke="#63b8ff" d="M733.16,-172.03C772.89,-161.38 819.38,-142.41 797,-115 775.06,-88.12 678.6,-76.62 619.65,-72.02"/>
<polygon fill="#63b8ff" stroke="#63b8ff" points="620.13,-68.55 609.9,-71.31 619.61,-75.53 620.13,-68.55"/>
</a>
</g>
</g>
<!-- Node19 -->
<g id="Node000019" class="node">
<title>Node19</title>
<g id="a_Node000019"><a xlink:title=" ">
<polygon fill="#e0e0e0" stroke="#999999" points="512,-136.5 478,-136.5 478,-115 512,-115 512,-136.5"/>
<text text-anchor="middle" x="495" y="-122.05" font-family="Consolas" font-size="11.00">set</text>
</a>
</g>
</g>
<!-- Node18&#45;&gt;Node19 -->
<g id="edge20_Node000018_Node000019" class="edge">
<title>Node18&#45;&gt;Node19</title>
<g id="a_edge20_Node000018_Node000019"><a xlink:title=" ">
<path fill="none" stroke="#63b8ff" d="M644.61,-172.03C613.64,-163.96 569.66,-152 523.17,-137.02"/>
<polygon fill="#63b8ff" stroke="#63b8ff" points="524.3,-133.71 513.71,-133.93 522.13,-140.36 524.3,-133.71"/>
</a>
</g>
</g>
<!-- Node20 -->
<g id="Node000020" class="node">
<title>Node20</title>
<g id="a_Node000020"><a xlink:title=" ">
<polygon fill="#e0e0e0" stroke="#999999" points="564,-136.5 530,-136.5 530,-115 564,-115 564,-136.5"/>
<text text-anchor="middle" x="547" y="-122.05" font-family="Consolas" font-size="11.00">map</text>
</a>
</g>
</g>
<!-- Node18&#45;&gt;Node20 -->
<g id="edge21_Node000018_Node000020" class="edge">
<title>Node18&#45;&gt;Node20</title>
<g id="a_edge21_Node000018_Node000020"><a xlink:title=" ">
<path fill="none" stroke="#63b8ff" d="M659.69,-172.07C635.67,-162.41 599.64,-147.92 574.83,-137.94"/>
<polygon fill="#63b8ff" stroke="#63b8ff" points="576.28,-134.75 565.7,-134.27 573.67,-141.25 576.28,-134.75"/>
</a>
</g>
</g>
<!-- Node21 -->
<g id="Node000021" class="node">
<title>Node21</title>
<g id="a_Node000021"><a xlink:title=" ">
<polygon fill="#e0e0e0" stroke="#999999" points="676,-136.5 582,-136.5 582,-115 676,-115 676,-136.5"/>
<text text-anchor="middle" x="629" y="-122.05" font-family="Consolas" font-size="11.00">unordered_set</text>
</a>
</g>
</g>
<!-- Node18&#45;&gt;Node21 -->
<g id="edge22_Node000018_Node000021" class="edge">
<title>Node18&#45;&gt;Node21</title>
<g id="a_edge22_Node000018_Node000021"><a xlink:title=" ">
<path fill="none" stroke="#63b8ff" d="M674.73,-172.07C667.07,-164.48 656.41,-153.91 647.31,-144.89"/>
<polygon fill="#63b8ff" stroke="#63b8ff" points="649.85,-142.48 640.28,-137.93 644.92,-147.46 649.85,-142.48"/>
</a>
</g>
</g>
<!-- Node22 -->
<g id="Node000022" class="node">
<title>Node22</title>
<g id="a_Node000022"><a xlink:title=" ">
<polygon fill="#e0e0e0" stroke="#999999" points="788,-136.5 694,-136.5 694,-115 788,-115 788,-136.5"/>
<text text-anchor="middle" x="741" y="-122.05" font-family="Consolas" font-size="11.00">unordered_map</text>
</a>
</g>
</g>
<!-- Node18&#45;&gt;Node22 -->
<g id="edge23_Node000018_Node000022" class="edge">
<title>Node18&#45;&gt;Node22</title>
<g id="a_edge23_Node000018_Node000022"><a xlink:title=" ">
<path fill="none" stroke="#63b8ff" d="M695.27,-172.07C702.93,-164.48 713.59,-153.91 722.69,-144.89"/>
<polygon fill="#63b8ff" stroke="#63b8ff" points="725.08,-147.46 729.72,-137.93 720.15,-142.48 725.08,-147.46"/>
</a>
</g>
</g>
<!-- Node23&#45;&gt;Node17 -->
<g id="edge25_Node000023_Node000017" class="edge">
<title>Node23&#45;&gt;Node17</title>
<g id="a_edge25_Node000023_Node000017"><a xlink:title=" ">
<path fill="none" stroke="#63b8ff" d="M406.68,-229.5C368.14,-221.17 312.54,-208.81 255.4,-194.52"/>
<polygon fill="#63b8ff" stroke="#63b8ff" points="256.36,-191.15 245.8,-192.11 254.65,-197.94 256.36,-191.15"/>
</a>
</g>
</g>
<!-- Node23&#45;&gt;Node18 -->
<g id="edge26_Node000023_Node000018" class="edge">
<title>Node23&#45;&gt;Node18</title>
<g id="a_edge26_Node000023_Node000018"><a xlink:title=" ">
<path fill="none" stroke="#63b8ff" d="M497.45,-229.51C535.3,-220.37 590.87,-206.96 631.7,-197.11"/>
<polygon fill="#63b8ff" stroke="#63b8ff" points="632.42,-200.54 641.32,-194.79 630.78,-193.73 632.42,-200.54"/>
</a>
</g>
</g>
<!-- Node24 -->
<g id="Node000024" class="node">
<title>Node24</title>
<g id="a_Node000024"><a xlink:href="../../d6/d94/_mapping_d_o_f_8h.html" target="_top" xlink:title=" ">
<polygon fill="white" stroke="#666666" points="398,-194 262,-194 262,-172.5 398,-172.5 398,-194"/>
<text text-anchor="middle" x="330" y="-179.55" font-family="Consolas" font-size="11.00">Element/MappingDOF.h</text>
</a>
</g>
</g>
<!-- Node23&#45;&gt;Node24 -->
<g id="edge27_Node000023_Node000024" class="edge">
<title>Node23&#45;&gt;Node24</title>
<g id="a_edge27_Node000023_Node000024"><a xlink:title=" ">
<path fill="none" stroke="#63b8ff" d="M432.07,-229.57C412.78,-221 384.94,-208.64 363.2,-198.99"/>
<polygon fill="#63b8ff" stroke="#63b8ff" points="364.72,-195.84 354.16,-194.98 361.88,-202.24 364.72,-195.84"/>
</a>
</g>
</g>
<!-- Node25 -->
<g id="Node000025" class="node">
<title>Node25</title>
<g id="a_Node000025"><a xlink:title=" ">
<polygon fill="#e0e0e0" stroke="#999999" points="564,-194 416,-194 416,-172.5 564,-172.5 564,-194"/>
<text text-anchor="middle" x="490" y="-179.55" font-family="Consolas" font-size="11.00">Domain/MetaMat/MetaMat</text>
</a>
</g>
</g>
<!-- Node23&#45;&gt;Node25 -->
<g id="edge29_Node000023_Node000025" class="edge">
<title>Node23&#45;&gt;Node25</title>
<g id="a_edge29_Node000023_Node000025"><a xlink:title=" ">
<path fill="none" stroke="#63b8ff" d="M461.42,-229.57C465.91,-222.45 472.05,-212.71 477.49,-204.08"/>
<polygon fill="#63b8ff" stroke="#63b8ff" points="480.44,-205.97 482.81,-195.65 474.52,-202.24 480.44,-205.97"/>
</a>
</g>
</g>
<!-- Node24&#45;&gt;Node4 -->
<g id="edge28_Node000024_Node000004" class="edge">
<title>Node24&#45;&gt;Node4</title>
<g id="a_edge28_Node000024_Node000004"><a xlink:title=" ">
<path fill="none" stroke="#63b8ff" d="M330,-172.07C330,-165.42 330,-156.48 330,-148.3"/>
<polygon fill="#63b8ff" stroke="#63b8ff" points="333.5,-148.38 330,-138.38 326.5,-148.38 333.5,-148.38"/>
</a>
</g>
</g>
<!-- Node26&#45;&gt;Node4 -->
<g id="edge31_Node000026_Node000004" class="edge">
<title>Node26&#45;&gt;Node4</title>
<g id="a_edge31_Node000026_Node000004"><a xlink:title=" ">
<path fill="none" stroke="#63b8ff" d="M588.05,-229.95C589.03,-215.28 588.49,-187.7 573,-172.5 547.04,-147.03 448.97,-135.23 385.64,-130.17"/>
<polygon fill="#63b8ff" stroke="#63b8ff" points="385.99,-126.68 375.75,-129.41 385.46,-133.66 385.99,-126.68"/>
</a>
</g>
</g>
</g>
</svg>

<g id="navigator" transform="translate(0 0)" fill="#404254">
  <rect fill="#f2f5e9" fill-opacity="0.5" stroke="#606060" stroke-width=".5" x="0" y="0" width="60" height="60"/>
  <use id="zoomplus" xlink:href="#zoomPlus" x="17" y="9" onmousedown="handleZoom(evt,'in')"/>
  <use id="zoomminus" xlink:href="#zoomMin" x="42" y="9" onmousedown="handleZoom(evt,'out')"/>
  <use id="reset" xlink:href="#resetDef" x="30" y="36" onmousedown="handleReset()"/>
   <use id="arrowup" xlink:href="#arrowUp" x="0" y="0" onmousedown="handlePan(0,-1)"/>
  <use id="arrowright" xlink:href="#arrowRight" x="0" y="0" onmousedown="handlePan(1,0)"/>
  <use id="arrowdown" xlink:href="#arrowDown" x="0" y="0" onmousedown="handlePan(0,1)"/>
  <use id="arrowleft" xlink:href="#arrowLeft" x="0" y="0" onmousedown="handlePan(-1,0)"/>
</g>
<svg viewBox="0 0 15 15" width="100%" height="30px" preserveAspectRatio="xMaxYMin meet">
 <g id="arrow_out" transform="scale(0.3 0.3)">
  <a xlink:href="_node_recorder_8cpp__incl_org.svg" target="_base">
   <rect id="button" ry="5" rx="5" y="6" x="6" height="38" width="38"
        fill="#f2f5e9" fill-opacity="0.5" stroke="#606060" stroke-width="1.0"/>
   <path id="arrow"
     d="M 11.500037,31.436501 C 11.940474,20.09759 22.043105,11.32322 32.158766,21.979434 L 37.068811,17.246167 C 37.068811,17.246167 37.088388,32 37.088388,32 L 22.160133,31.978069 C 22.160133,31.978069 26.997745,27.140456 26.997745,27.140456 C 18.528582,18.264221 13.291696,25.230495 11.500037,31.436501 z"
     style="fill:#404040;"/>
  </a>
 </g>
</svg>

<style type='text/css'>
<![CDATA[
[data-mouse-over-selected='false'] { opacity: 0.7; }
[data-mouse-over-selected='true']  { opacity: 1.0; }
]]>
</style>
<script type="application/ecmascript"><![CDATA[
document.addEventListener('DOMContentLoaded', (event) => {
  highlightEdges();
  highlightAdjacentNodes();
});
]]></script>
</svg>
