<?xml version="1.0" encoding="UTF-8" standalone="no"?>
<!DOCTYPE svg PUBLIC "-//W3C//DTD SVG 1.1//EN"
 "http://www.w3.org/Graphics/SVG/1.1/DTD/svg11.dtd">
<!-- Generated by graphviz version 5.0.0 (0)
 -->
<!-- Title: BilinearViscosity Pages: 1 -->
<svg width="601pt" height="804pt"
 viewBox="0.00 0.00 601.00 804.00" xmlns="http://www.w3.org/2000/svg" xmlns:xlink="http://www.w3.org/1999/xlink">
<g id="graph0" class="graph" transform="scale(1 1) rotate(0) translate(4 800)">
<title>BilinearViscosity</title>
<!-- Node1 -->
<g id="node1" class="node">
<title>Node1</title>
<g id="a_node1"><a xlink:title="A 1D Viscosity class.">
<polygon fill="#999999" stroke="#666666" points="263.5,-56 91.5,-56 91.5,0 263.5,0 263.5,-56"/>
<text text-anchor="middle" x="177.5" y="-43.2" font-family="Consolas" font-size="11.00">{BilinearViscosity</text>
<text text-anchor="start" x="99.5" y="-31.2" font-family="Consolas" font-size="11.00">||+ BilinearViscosity()</text>
<text text-anchor="start" x="99.5" y="-19.2" font-family="Consolas" font-size="11.00">+ get_copy()</text>
<text text-anchor="middle" x="177.5" y="-7.2" font-family="Consolas" font-size="11.00">}</text>
</a>
</g>
</g>
<!-- Node2 -->
<g id="node2" class="node">
<title>Node2</title>
<g id="a_node2"><a xlink:href="../../d5/d08/struct_data_bilinear_viscosity.html" target="_top" xlink:title=" ">
<polygon fill="white" stroke="#666666" points="165,-196 0,-196 0,-128 165,-128 165,-196"/>
<text text-anchor="middle" x="82.5" y="-183.2" font-family="Consolas" font-size="11.00">{DataBilinearViscosity</text>
<text text-anchor="start" x="8" y="-171.2" font-family="Consolas" font-size="11.00">|+ damping</text>
<text text-anchor="start" x="8" y="-159.2" font-family="Consolas" font-size="11.00">+ yield_stress</text>
<text text-anchor="start" x="8" y="-147.2" font-family="Consolas" font-size="11.00">+ hardening</text>
<text text-anchor="middle" x="82.5" y="-135.2" font-family="Consolas" font-size="11.00">|}</text>
</a>
</g>
</g>
<!-- Node2&#45;&gt;Node1 -->
<g id="edge1" class="edge">
<title>Node2&#45;&gt;Node1</title>
<path fill="none" stroke="#8b1a1a" d="M112.45,-119.38C127.33,-98.7 144.89,-74.31 158.01,-56.08"/>
<polygon fill="none" stroke="#8b1a1a" points="109.47,-117.53 106.47,-127.69 115.15,-121.62 109.47,-117.53"/>
</g>
<!-- Node3 -->
<g id="node3" class="node">
<title>Node3</title>
<g id="a_node3"><a xlink:href="../../df/db0/class_nonlinear_viscosity.html" target="_top" xlink:title="A 1D Viscosity class.">
<polygon fill="white" stroke="#666666" points="362,-232 183,-232 183,-92 362,-92 362,-232"/>
<text text-anchor="middle" x="272.5" y="-219.2" font-family="Consolas" font-size="11.00">{NonlinearViscosity</text>
<text text-anchor="start" x="191" y="-207.2" font-family="Consolas" font-size="11.00">||+ NonlinearViscosity()</text>
<text text-anchor="start" x="191" y="-195.2" font-family="Consolas" font-size="11.00">+ initialize()</text>
<text text-anchor="start" x="191" y="-183.2" font-family="Consolas" font-size="11.00">+ update_trial_status()</text>
<text text-anchor="start" x="191" y="-171.2" font-family="Consolas" font-size="11.00">+ update_trial_status()</text>
<text text-anchor="start" x="191" y="-159.2" font-family="Consolas" font-size="11.00">+ clear_status()</text>
<text text-anchor="start" x="191" y="-147.2" font-family="Consolas" font-size="11.00">+ commit_status()</text>
<text text-anchor="start" x="191" y="-135.2" font-family="Consolas" font-size="11.00">+ reset_status()</text>
<text text-anchor="start" x="191" y="-123.2" font-family="Consolas" font-size="11.00">+ record()</text>
<text text-anchor="start" x="191" y="-111.2" font-family="Consolas" font-size="11.00">+ print()</text>
<text text-anchor="middle" x="272.5" y="-99.2" font-family="Consolas" font-size="11.00">}</text>
</a>
</g>
</g>
<!-- Node3&#45;&gt;Node1 -->
<g id="edge2" class="edge">
<title>Node3&#45;&gt;Node1</title>
<path fill="none" stroke="#63b8ff" d="M216.79,-83.6C209.73,-73.78 202.91,-64.31 197,-56.09"/>
<polygon fill="none" stroke="#63b8ff" points="214.09,-85.84 222.77,-91.91 219.77,-81.75 214.09,-85.84"/>
</g>
<!-- Node4 -->
<g id="node4" class="node">
<title>Node4</title>
<g id="a_node4"><a xlink:href="../../d0/dd3/struct_data_nonlinear_viscosity.html" target="_top" xlink:title=" ">
<polygon fill="white" stroke="#666666" points="263.5,-336 91.5,-336 91.5,-280 263.5,-280 263.5,-336"/>
<text text-anchor="middle" x="177.5" y="-323.2" font-family="Consolas" font-size="11.00">{DataNonlinearViscosity</text>
<text text-anchor="start" x="99.5" y="-311.2" font-family="Consolas" font-size="11.00">|+ alpha</text>
<text text-anchor="start" x="99.5" y="-299.2" font-family="Consolas" font-size="11.00">+ limit</text>
<text text-anchor="middle" x="177.5" y="-287.2" font-family="Consolas" font-size="11.00">|}</text>
</a>
</g>
</g>
<!-- Node4&#45;&gt;Node3 -->
<g id="edge3" class="edge">
<title>Node4&#45;&gt;Node3</title>
<path fill="none" stroke="#8b1a1a" d="M200.88,-271.56C208.76,-259.61 217.86,-245.83 226.86,-232.18"/>
<polygon fill="none" stroke="#8b1a1a" points="197.95,-269.64 195.37,-279.91 203.8,-273.49 197.95,-269.64"/>
</g>
<!-- Node5 -->
<g id="node5" class="node">
<title>Node5</title>
<g id="a_node5"><a xlink:href="../../d9/d97/class_material1_d.html" target="_top" xlink:title="A Material1D class.">
<polygon fill="white" stroke="#666666" points="453.5,-348 281.5,-348 281.5,-268 453.5,-268 453.5,-348"/>
<text text-anchor="middle" x="367.5" y="-335.2" font-family="Consolas" font-size="11.00">{Material1D</text>
<text text-anchor="start" x="289.5" y="-323.2" font-family="Consolas" font-size="11.00">||+ Material1D()</text>
<text text-anchor="start" x="289.5" y="-311.2" font-family="Consolas" font-size="11.00">+ get_trial_stiffness()</text>
<text text-anchor="start" x="289.5" y="-299.2" font-family="Consolas" font-size="11.00">+ record()</text>
<text text-anchor="start" x="289.5" y="-287.2" font-family="Consolas" font-size="11.00">+ print()</text>
<text text-anchor="middle" x="367.5" y="-275.2" font-family="Consolas" font-size="11.00">}</text>
</a>
</g>
</g>
<!-- Node5&#45;&gt;Node3 -->
<g id="edge4" class="edge">
<title>Node5&#45;&gt;Node3</title>
<path fill="none" stroke="#63b8ff" d="M335.96,-259.19C330.24,-250.53 324.18,-241.34 318.16,-232.21"/>
<polygon fill="none" stroke="#63b8ff" points="333.11,-261.23 341.54,-267.65 338.96,-257.38 333.11,-261.23"/>
</g>
<!-- Node6 -->
<g id="node6" class="node">
<title>Node6</title>
<g id="a_node6"><a xlink:href="../../dc/dee/class_material.html" target="_top" xlink:title="A Material abstract base class.">
<polygon fill="white" stroke="#666666" points="450,-548 285,-548 285,-384 450,-384 450,-548"/>
<text text-anchor="middle" x="367.5" y="-535.2" font-family="Consolas" font-size="11.00">{Material</text>
<text text-anchor="start" x="293" y="-523.2" font-family="Consolas" font-size="11.00">||+ Material()</text>
<text text-anchor="start" x="293" y="-511.2" font-family="Consolas" font-size="11.00">+ Material()</text>
<text text-anchor="start" x="293" y="-499.2" font-family="Consolas" font-size="11.00">+ Material()</text>
<text text-anchor="start" x="293" y="-487.2" font-family="Consolas" font-size="11.00">+ operator=()</text>
<text text-anchor="start" x="293" y="-475.2" font-family="Consolas" font-size="11.00">+ operator=()</text>
<text text-anchor="start" x="293" y="-463.2" font-family="Consolas" font-size="11.00">+ ~Material()</text>
<text text-anchor="start" x="293" y="-451.2" font-family="Consolas" font-size="11.00">+ initialize_base()</text>
<text text-anchor="start" x="293" y="-439.2" font-family="Consolas" font-size="11.00">+ initialize()</text>
<text text-anchor="start" x="293" y="-427.2" font-family="Consolas" font-size="11.00">+ initialize_couple()</text>
<text text-anchor="start" x="293" y="-415.2" font-family="Consolas" font-size="11.00">+ initialize_history()</text>
<text text-anchor="start" x="293" y="-403.2" font-family="Consolas" font-size="11.00">and 70 more...</text>
<text text-anchor="middle" x="367.5" y="-391.2" font-family="Consolas" font-size="11.00">}</text>
</a>
</g>
</g>
<!-- Node6&#45;&gt;Node5 -->
<g id="edge5" class="edge">
<title>Node6&#45;&gt;Node5</title>
<path fill="none" stroke="#63b8ff" d="M367.5,-373.65C367.5,-364.72 367.5,-356.04 367.5,-348.08"/>
<polygon fill="none" stroke="#63b8ff" points="364,-373.8 367.5,-383.8 371,-373.8 364,-373.8"/>
</g>
<!-- Node7 -->
<g id="node7" class="node">
<title>Node7</title>
<g id="a_node7"><a xlink:href="../../de/de9/struct_data_material.html" target="_top" xlink:title=" ">
<polygon fill="white" stroke="#666666" points="253.5,-772 95.5,-772 95.5,-608 253.5,-608 253.5,-772"/>
<text text-anchor="middle" x="174.5" y="-759.2" font-family="Consolas" font-size="11.00">{DataMaterial</text>
<text text-anchor="start" x="103.5" y="-747.2" font-family="Consolas" font-size="11.00">|+ tolerance</text>
<text text-anchor="start" x="103.5" y="-735.2" font-family="Consolas" font-size="11.00">+ density</text>
<text text-anchor="start" x="103.5" y="-723.2" font-family="Consolas" font-size="11.00">+ material_type</text>
<text text-anchor="start" x="103.5" y="-711.2" font-family="Consolas" font-size="11.00">+ current_strain</text>
<text text-anchor="start" x="103.5" y="-699.2" font-family="Consolas" font-size="11.00">+ current_strain_rate</text>
<text text-anchor="start" x="103.5" y="-687.2" font-family="Consolas" font-size="11.00">+ current_strain_acc</text>
<text text-anchor="start" x="103.5" y="-675.2" font-family="Consolas" font-size="11.00">+ current_stress</text>
<text text-anchor="start" x="103.5" y="-663.2" font-family="Consolas" font-size="11.00">+ trial_strain</text>
<text text-anchor="start" x="103.5" y="-651.2" font-family="Consolas" font-size="11.00">+ trial_strain_rate</text>
<text text-anchor="start" x="103.5" y="-639.2" font-family="Consolas" font-size="11.00">+ trial_strain_acc</text>
<text text-anchor="start" x="103.5" y="-627.2" font-family="Consolas" font-size="11.00">and 17 more...</text>
<text text-anchor="middle" x="174.5" y="-615.2" font-family="Consolas" font-size="11.00">|}</text>
</a>
</g>
</g>
<!-- Node7&#45;&gt;Node6 -->
<g id="edge6" class="edge">
<title>Node7&#45;&gt;Node6</title>
<path fill="none" stroke="darkgreen" d="M248.76,-599.97C253.39,-594.55 258,-589.19 262.5,-584 272.6,-572.35 283.36,-560.14 293.99,-548.19"/>
<polygon fill="none" stroke="darkgreen" points="245.79,-598.06 241.97,-607.94 251.12,-602.6 245.79,-598.06"/>
</g>
<!-- Node8 -->
<g id="node8" class="node">
<title>Node8</title>
<g id="a_node8"><a xlink:href="../../da/de4/struct_data_couple_material.html" target="_top" xlink:title=" ">
<polygon fill="white" stroke="#666666" points="463.5,-766 271.5,-766 271.5,-614 463.5,-614 463.5,-766"/>
<text text-anchor="middle" x="367.5" y="-753.2" font-family="Consolas" font-size="11.00">{DataCoupleMaterial</text>
<text text-anchor="start" x="279.5" y="-741.2" font-family="Consolas" font-size="11.00">|+ characteristic_length</text>
<text text-anchor="start" x="279.5" y="-729.2" font-family="Consolas" font-size="11.00">+ current_curvature</text>
<text text-anchor="start" x="279.5" y="-717.2" font-family="Consolas" font-size="11.00">+ current_couple_stress</text>
<text text-anchor="start" x="279.5" y="-705.2" font-family="Consolas" font-size="11.00">+ trial_curvature</text>
<text text-anchor="start" x="279.5" y="-693.2" font-family="Consolas" font-size="11.00">+ trial_couple_stress</text>
<text text-anchor="start" x="279.5" y="-681.2" font-family="Consolas" font-size="11.00">+ incre_curvature</text>
<text text-anchor="start" x="279.5" y="-669.2" font-family="Consolas" font-size="11.00">+ incre_couple_stress</text>
<text text-anchor="start" x="279.5" y="-657.2" font-family="Consolas" font-size="11.00">+ initial_couple_stiffness</text>
<text text-anchor="start" x="279.5" y="-645.2" font-family="Consolas" font-size="11.00">+ current_couple_stiffness</text>
<text text-anchor="start" x="279.5" y="-633.2" font-family="Consolas" font-size="11.00">+ trial_couple_stiffness</text>
<text text-anchor="middle" x="367.5" y="-621.2" font-family="Consolas" font-size="11.00">|}</text>
</a>
</g>
</g>
<!-- Node8&#45;&gt;Node6 -->
<g id="edge7" class="edge">
<title>Node8&#45;&gt;Node6</title>
<path fill="none" stroke="darkgreen" d="M367.5,-603.81C367.5,-585.54 367.5,-566.28 367.5,-548.17"/>
<polygon fill="none" stroke="darkgreen" points="364,-603.84 367.5,-613.84 371,-603.84 364,-603.84"/>
</g>
<!-- Node9 -->
<g id="node9" class="node">
<title>Node9</title>
<g id="a_node9"><a xlink:href="../../d0/d57/class_tag.html" target="_top" xlink:title="A base Tag class.">
<polygon fill="white" stroke="#666666" points="593,-796 482,-796 482,-584 593,-584 593,-796"/>
<text text-anchor="middle" x="537.5" y="-783.2" font-family="Consolas" font-size="11.00">{Tag</text>
<text text-anchor="start" x="490" y="-771.2" font-family="Consolas" font-size="11.00">||+ Tag()</text>
<text text-anchor="start" x="490" y="-759.2" font-family="Consolas" font-size="11.00">+ Tag()</text>
<text text-anchor="start" x="490" y="-747.2" font-family="Consolas" font-size="11.00">+ Tag()</text>
<text text-anchor="start" x="490" y="-735.2" font-family="Consolas" font-size="11.00">+ operator=()</text>
<text text-anchor="start" x="490" y="-723.2" font-family="Consolas" font-size="11.00">+ operator=()</text>
<text text-anchor="start" x="490" y="-711.2" font-family="Consolas" font-size="11.00">+ ~Tag()</text>
<text text-anchor="start" x="490" y="-699.2" font-family="Consolas" font-size="11.00">+ set_tag()</text>
<text text-anchor="start" x="490" y="-687.2" font-family="Consolas" font-size="11.00">+ get_tag()</text>
<text text-anchor="start" x="490" y="-675.2" font-family="Consolas" font-size="11.00">+ enable()</text>
<text text-anchor="start" x="490" y="-663.2" font-family="Consolas" font-size="11.00">+ disable()</text>
<text text-anchor="start" x="490" y="-651.2" font-family="Consolas" font-size="11.00">+ guard()</text>
<text text-anchor="start" x="490" y="-639.2" font-family="Consolas" font-size="11.00">+ unguard()</text>
<text text-anchor="start" x="490" y="-627.2" font-family="Consolas" font-size="11.00">+ is_active()</text>
<text text-anchor="start" x="490" y="-615.2" font-family="Consolas" font-size="11.00">+ is_guarded()</text>
<text text-anchor="start" x="490" y="-603.2" font-family="Consolas" font-size="11.00">+ print()</text>
<text text-anchor="middle" x="537.5" y="-591.2" font-family="Consolas" font-size="11.00">}</text>
</a>
</g>
</g>
<!-- Node9&#45;&gt;Node6 -->
<g id="edge8" class="edge">
<title>Node9&#45;&gt;Node6</title>
<path fill="none" stroke="#63b8ff" d="M476.04,-588.79C474.86,-587.18 473.68,-585.58 472.5,-584 463.58,-572.09 453.7,-559.96 443.68,-548.22"/>
<polygon fill="none" stroke="#63b8ff" points="473.24,-590.9 481.9,-597.01 478.94,-586.84 473.24,-590.9"/>
</g>
</g>
</svg>
