<?xml version="1.0" encoding="UTF-8" standalone="no"?>
<!DOCTYPE svg PUBLIC "-//W3C//DTD SVG 1.1//EN"
 "http://www.w3.org/Graphics/SVG/1.1/DTD/svg11.dtd">
<!-- Generated by graphviz version 5.0.0 (0)
 -->
<!-- Title: Converger::get_domain Pages: 1 -->
<!--zoomable 496 -->
<svg id="main" version="1.1" xmlns="http://www.w3.org/2000/svg" xmlns:xlink="http://www.w3.org/1999/xlink" xml:space="preserve" onload="init(evt)">
<style type="text/css"><![CDATA[
.edge:hover path { stroke: red; }
.edge:hover polygon { stroke: red; fill: red; }
]]></style>
<script type="text/javascript"><![CDATA[
var edges = document.getElementsByTagName('g');
if (edges && edges.length) {
  for (var i=0;i<edges.length;i++) {
    if (edges[i].id.substr(0,4)=='edge') {
      edges[i].setAttribute('class','edge');
    }
  }
}
]]></script>
        <defs>
                <circle id="rim" cx="0" cy="0" r="7"/>
                <circle id="rim2" cx="0" cy="0" r="3.5"/>
                <g id="zoomPlus">
                        <use xlink:href="#rim" fill="#404040">
                                <set attributeName="fill" to="#808080" begin="zoomplus.mouseover" end="zoomplus.mouseout"/>
                        </use>
                        <path d="M-4,0h8M0,-4v8" fill="none" stroke="white" stroke-width="1.5" pointer-events="none"/>
                </g>
                <g id="zoomMin">
                        <use xlink:href="#rim" fill="#404040">
                                <set attributeName="fill" to="#808080" begin="zoomminus.mouseover" end="zoomminus.mouseout"/>
                        </use>
                        <path d="M-4,0h8" fill="none" stroke="white" stroke-width="1.5" pointer-events="none"/>
                </g>
                <g id="dirArrow">
                        <path fill="none" stroke="white" stroke-width="1.5" d="M0,-3.0v7 M-2.5,-0.5L0,-3.0L2.5,-0.5"/>
                </g>
               <g id="resetDef">
                       <use xlink:href="#rim2" fill="#404040">
                               <set attributeName="fill" to="#808080" begin="reset.mouseover" end="reset.mouseout"/>
                       </use>
               </g>
        </defs>

<script type="text/javascript">
var viewWidth = 615;
var viewHeight = 496;
var sectionId = 'dynsection-3';
</script>
<script xlink:href="../../svgpan.js"/>
<svg id="graph" class="graph">
<g id="viewport">
<title>Converger::get_domain</title>
<!-- Node1 -->
<g id="node1" class="node">
<title>Node1</title>
<g id="a_node1"><a xlink:title="method to return DomainBase.">
<polygon fill="#999999" stroke="#666666" points="607,-248 449,-248 449,-228 607,-228 607,-248"/>
<text text-anchor="middle" x="528" y="-235.2" font-family="Consolas" font-size="11.00">Converger::get_domain</text>
</a>
</g>
</g>
<!-- Node2 -->
<g id="node2" class="node">
<title>Node2</title>
<g id="a_node2"><a xlink:href="../../d7/dae/class_converger.html#aa1f2150f975864550f4c8ed11a0397bc" target="_top" xlink:title=" ">
<polygon fill="white" stroke="#666666" points="403,-400 231,-400 231,-380 403,-380 403,-400"/>
<text text-anchor="middle" x="317" y="-387.2" font-family="Consolas" font-size="11.00">Converger::get_residual</text>
</a>
</g>
</g>
<!-- Node1&#45;&gt;Node2 -->
<g id="edge1" class="edge">
<title>Node1&#45;&gt;Node2</title>
<path fill="none" stroke="#63b8ff" d="M515.65,-256.68C497.55,-284.84 459.4,-337.85 413,-366 403.11,-372 391.77,-376.51 380.45,-379.89"/>
<polygon fill="#63b8ff" stroke="#63b8ff" points="518.65,-258.49 521.01,-248.16 512.72,-254.77 518.65,-258.49"/>
</g>
<!-- Node3 -->
<g id="node3" class="node">
<title>Node3</title>
<g id="a_node3"><a xlink:href="../../d5/d86/class_abs_incre_energy.html#ad51dd0eb393597970ef9d26a0180ece7" target="_top" xlink:title=" ">
<polygon fill="white" stroke="#666666" points="161.5,-488 23.5,-488 23.5,-456 161.5,-456 161.5,-488"/>
<text text-anchor="start" x="31.5" y="-475.2" font-family="Consolas" font-size="11.00">AbsIncreEnergy::is</text>
<text text-anchor="middle" x="92.5" y="-463.2" font-family="Consolas" font-size="11.00">_converged</text>
</a>
</g>
</g>
<!-- Node1&#45;&gt;Node3 -->
<g id="edge11" class="edge">
<title>Node1&#45;&gt;Node3</title>
<path fill="none" stroke="#63b8ff" d="M522.31,-258.21C511.37,-300.38 479.82,-397.42 413,-441 337.85,-490.01 230.85,-489.64 161.79,-482.61"/>
<polygon fill="#63b8ff" stroke="#63b8ff" points="525.76,-258.85 524.77,-248.3 518.97,-257.17 525.76,-258.85"/>
</g>
<!-- Node4 -->
<g id="node4" class="node">
<title>Node4</title>
<g id="a_node4"><a xlink:href="../../de/dce/class_abs_residual.html#a28820563b7801a0289a2bad2f2ad39d4" target="_top" xlink:title=" ">
<polygon fill="white" stroke="#666666" points="185,-438 0,-438 0,-418 185,-418 185,-438"/>
<text text-anchor="middle" x="92.5" y="-425.2" font-family="Consolas" font-size="11.00">AbsResidual::is_converged</text>
</a>
</g>
</g>
<!-- Node1&#45;&gt;Node4 -->
<g id="edge12" class="edge">
<title>Node1&#45;&gt;Node4</title>
<path fill="none" stroke="#63b8ff" d="M520.53,-257.77C507.17,-294.97 472.71,-374.73 413,-409 328.66,-457.41 210.33,-448.51 143.89,-438.04"/>
<polygon fill="#63b8ff" stroke="#63b8ff" points="523.92,-258.68 523.87,-248.08 517.3,-256.39 523.92,-258.68"/>
</g>
<!-- Node5 -->
<g id="node5" class="node">
<title>Node5</title>
<g id="a_node5"><a xlink:href="../../dd/dec/class_rel_incre_energy.html#a2a2f0cd8fcffbceb6fa15cf290f24bf9" target="_top" xlink:title=" ">
<polygon fill="white" stroke="#666666" points="161.5,-362 23.5,-362 23.5,-330 161.5,-330 161.5,-362"/>
<text text-anchor="start" x="31.5" y="-349.2" font-family="Consolas" font-size="11.00">RelIncreEnergy::is</text>
<text text-anchor="middle" x="92.5" y="-337.2" font-family="Consolas" font-size="11.00">_converged</text>
</a>
</g>
</g>
<!-- Node1&#45;&gt;Node5 -->
<g id="edge17" class="edge">
<title>Node1&#45;&gt;Node5</title>
<path fill="none" stroke="#63b8ff" d="M512.21,-256.12C492.38,-278.88 454.78,-316.9 413,-333 330.89,-364.63 227.98,-362.08 161.5,-355.54"/>
<polygon fill="#63b8ff" stroke="#63b8ff" points="515.11,-258.11 518.91,-248.22 509.77,-253.58 515.11,-258.11"/>
</g>
<!-- Node7 -->
<g id="node7" class="node">
<title>Node7</title>
<g id="a_node7"><a xlink:href="../../de/d65/class_logic_converger.html#a115a3290c4375205aa621a13ebc5b5ab" target="_top" xlink:title=" ">
<polygon fill="white" stroke="#666666" points="413,-324 221,-324 221,-304 413,-304 413,-324"/>
<text text-anchor="middle" x="317" y="-311.2" font-family="Consolas" font-size="11.00">LogicConverger::initialize</text>
</a>
</g>
</g>
<!-- Node1&#45;&gt;Node7 -->
<g id="edge6" class="edge">
<title>Node1&#45;&gt;Node7</title>
<path fill="none" stroke="#63b8ff" d="M501.32,-253.33C478.76,-266.18 444.68,-284.13 413,-295 402.66,-298.55 391.44,-301.52 380.47,-303.98"/>
<polygon fill="#63b8ff" stroke="#63b8ff" points="503.33,-256.21 510.24,-248.17 499.83,-250.15 503.33,-256.21"/>
</g>
<!-- Node8 -->
<g id="node8" class="node">
<title>Node8</title>
<g id="a_node8"><a xlink:href="../../db/d5a/class_abs_disp.html#a9f0e144a8072cee24388b8e741fb7f5c" target="_top" xlink:title=" ">
<polygon fill="white" stroke="#666666" points="396,-286 238,-286 238,-266 396,-266 396,-286"/>
<text text-anchor="middle" x="317" y="-273.2" font-family="Consolas" font-size="11.00">AbsDisp::is_converged</text>
</a>
</g>
</g>
<!-- Node1&#45;&gt;Node8 -->
<g id="edge7" class="edge">
<title>Node1&#45;&gt;Node8</title>
<path fill="none" stroke="#63b8ff" d="M461.95,-249.83C433.46,-255.01 400.39,-261.02 373.13,-265.98"/>
<polygon fill="#63b8ff" stroke="#63b8ff" points="462.6,-253.27 471.81,-248.03 461.35,-246.38 462.6,-253.27"/>
</g>
<!-- Node9 -->
<g id="node9" class="node">
<title>Node9</title>
<g id="a_node9"><a xlink:href="../../d8/dab/class_abs_error.html#a06fbf8110bb88ee4793993279e7bb010" target="_top" xlink:title="Method to return conv_flag.">
<polygon fill="white" stroke="#666666" points="399.5,-248 234.5,-248 234.5,-228 399.5,-228 399.5,-248"/>
<text text-anchor="middle" x="317" y="-235.2" font-family="Consolas" font-size="11.00">AbsError::is_converged</text>
</a>
</g>
</g>
<!-- Node1&#45;&gt;Node9 -->
<g id="edge8" class="edge">
<title>Node1&#45;&gt;Node9</title>
<path fill="none" stroke="#63b8ff" d="M438.58,-238C425.62,-238 412.33,-238 399.52,-238"/>
<polygon fill="#63b8ff" stroke="#63b8ff" points="438.88,-241.5 448.88,-238 438.88,-234.5 438.88,-241.5"/>
</g>
<!-- Node10 -->
<g id="node10" class="node">
<title>Node10</title>
<g id="a_node10"><a xlink:href="../../dc/d4d/class_abs_incre_acc.html#ae83df842ca4692e3ca67cde8618b36fd" target="_top" xlink:title="Method to return conv_flag.">
<polygon fill="white" stroke="#666666" points="409.5,-210 224.5,-210 224.5,-190 409.5,-190 409.5,-210"/>
<text text-anchor="middle" x="317" y="-197.2" font-family="Consolas" font-size="11.00">AbsIncreAcc::is_converged</text>
</a>
</g>
</g>
<!-- Node1&#45;&gt;Node10 -->
<g id="edge9" class="edge">
<title>Node1&#45;&gt;Node10</title>
<path fill="none" stroke="#63b8ff" d="M461.95,-226.17C433.46,-220.99 400.39,-214.98 373.13,-210.02"/>
<polygon fill="#63b8ff" stroke="#63b8ff" points="461.35,-229.62 471.81,-227.97 462.6,-222.73 461.35,-229.62"/>
</g>
<!-- Node11 -->
<g id="node11" class="node">
<title>Node11</title>
<g id="a_node11"><a xlink:href="../../d4/d8d/class_abs_incre_disp.html#a9b6ded4f12f8d7a244a42aa47c8215bb" target="_top" xlink:title="Method to return conv_flag.">
<polygon fill="white" stroke="#666666" points="413,-172 221,-172 221,-152 413,-152 413,-172"/>
<text text-anchor="middle" x="317" y="-159.2" font-family="Consolas" font-size="11.00">AbsIncreDisp::is_converged</text>
</a>
</g>
</g>
<!-- Node1&#45;&gt;Node11 -->
<g id="edge10" class="edge">
<title>Node1&#45;&gt;Node11</title>
<path fill="none" stroke="#63b8ff" d="M501.32,-222.67C478.76,-209.82 444.68,-191.87 413,-181 402.66,-177.45 391.44,-174.48 380.47,-172.02"/>
<polygon fill="#63b8ff" stroke="#63b8ff" points="499.83,-225.85 510.24,-227.83 503.33,-219.79 499.83,-225.85"/>
</g>
<!-- Node12 -->
<g id="node12" class="node">
<title>Node12</title>
<g id="a_node12"><a xlink:href="../../dc/dee/class_rel_disp.html#a5b4c19edc8f542332f43d4c285fc1b38" target="_top" xlink:title=" ">
<polygon fill="white" stroke="#666666" points="396,-134 238,-134 238,-114 396,-114 396,-134"/>
<text text-anchor="middle" x="317" y="-121.2" font-family="Consolas" font-size="11.00">RelDisp::is_converged</text>
</a>
</g>
</g>
<!-- Node1&#45;&gt;Node12 -->
<g id="edge13" class="edge">
<title>Node1&#45;&gt;Node12</title>
<path fill="none" stroke="#63b8ff" d="M511.15,-220.21C490.71,-198.44 452.98,-162.12 413,-143 405.41,-139.37 397.17,-136.44 388.81,-134.06"/>
<polygon fill="#63b8ff" stroke="#63b8ff" points="508.77,-222.79 518.11,-227.78 513.92,-218.05 508.77,-222.79"/>
</g>
<!-- Node13 -->
<g id="node13" class="node">
<title>Node13</title>
<g id="a_node13"><a xlink:href="../../dd/d17/class_rel_error.html#a86e8267005c5d58497a9ada573fb7788" target="_top" xlink:title="Method to return conv_flag.">
<polygon fill="white" stroke="#666666" points="399.5,-96 234.5,-96 234.5,-76 399.5,-76 399.5,-96"/>
<text text-anchor="middle" x="317" y="-83.2" font-family="Consolas" font-size="11.00">RelError::is_converged</text>
</a>
</g>
</g>
<!-- Node1&#45;&gt;Node13 -->
<g id="edge14" class="edge">
<title>Node1&#45;&gt;Node13</title>
<path fill="none" stroke="#63b8ff" d="M516.27,-218.72C498.76,-189.17 461.1,-133.17 413,-105 406.9,-101.43 400.25,-98.52 393.39,-96.15"/>
<polygon fill="#63b8ff" stroke="#63b8ff" points="513.4,-220.74 521.43,-227.65 519.46,-217.24 513.4,-220.74"/>
</g>
<!-- Node14 -->
<g id="node14" class="node">
<title>Node14</title>
<g id="a_node14"><a xlink:href="../../d8/d3b/class_rel_incre_acc.html#a4459aa55412a629bea1caa408282132e" target="_top" xlink:title=" ">
<polygon fill="white" stroke="#666666" points="409.5,-58 224.5,-58 224.5,-38 409.5,-38 409.5,-58"/>
<text text-anchor="middle" x="317" y="-45.2" font-family="Consolas" font-size="11.00">RelIncreAcc::is_converged</text>
</a>
</g>
</g>
<!-- Node1&#45;&gt;Node14 -->
<g id="edge15" class="edge">
<title>Node1&#45;&gt;Node14</title>
<path fill="none" stroke="#63b8ff" d="M519.87,-218.45C505.6,-182.28 469.93,-105.13 413,-67 407.69,-63.44 401.86,-60.52 395.79,-58.13"/>
<polygon fill="#63b8ff" stroke="#63b8ff" points="516.64,-219.79 523.47,-227.89 523.18,-217.3 516.64,-219.79"/>
</g>
<!-- Node15 -->
<g id="node15" class="node">
<title>Node15</title>
<g id="a_node15"><a xlink:href="../../d2/d85/class_rel_incre_disp.html#a7d16a8431291cc634a83de9bd5e5d375" target="_top" xlink:title=" ">
<polygon fill="white" stroke="#666666" points="413,-20 221,-20 221,0 413,0 413,-20"/>
<text text-anchor="middle" x="317" y="-7.2" font-family="Consolas" font-size="11.00">RelIncreDisp::is_converged</text>
</a>
</g>
</g>
<!-- Node1&#45;&gt;Node15 -->
<g id="edge16" class="edge">
<title>Node1&#45;&gt;Node15</title>
<path fill="none" stroke="#63b8ff" d="M522.14,-217.74C510.85,-175.37 478.7,-77.35 413,-29 408.12,-25.41 402.74,-22.46 397.09,-20.03"/>
<polygon fill="#63b8ff" stroke="#63b8ff" points="518.81,-218.86 524.67,-227.69 525.6,-217.13 518.81,-218.86"/>
</g>
<!-- Node2&#45;&gt;Node3 -->
<g id="edge2" class="edge">
<title>Node2&#45;&gt;Node3</title>
<path fill="none" stroke="#63b8ff" d="M286.12,-404.47C259.88,-416.82 220.47,-434.51 185,-447 175.99,-450.17 166.37,-453.19 156.87,-455.96"/>
<polygon fill="#63b8ff" stroke="#63b8ff" points="287.96,-407.47 295.5,-400.02 284.96,-401.15 287.96,-407.47"/>
</g>
<!-- Node2&#45;&gt;Node4 -->
<g id="edge3" class="edge">
<title>Node2&#45;&gt;Node4</title>
<path fill="none" stroke="#63b8ff" d="M247.14,-401.76C216.72,-406.96 181.34,-413 152.19,-417.98"/>
<polygon fill="#63b8ff" stroke="#63b8ff" points="247.98,-405.17 257.25,-400.03 246.8,-398.27 247.98,-405.17"/>
</g>
<!-- Node2&#45;&gt;Node5 -->
<g id="edge4" class="edge">
<title>Node2&#45;&gt;Node5</title>
<path fill="none" stroke="#63b8ff" d="M255.26,-377.99C226.32,-372.27 191.6,-365.4 161.76,-359.5"/>
<polygon fill="#63b8ff" stroke="#63b8ff" points="254.74,-381.45 265.23,-379.96 256.1,-374.59 254.74,-381.45"/>
</g>
<!-- Node6 -->
<g id="node6" class="node">
<title>Node6</title>
<g id="a_node6"><a xlink:href="../../dc/db8/class_rel_residual.html#accf19abd0aa31b3f5d6870e7f5ec17db" target="_top" xlink:title=" ">
<polygon fill="white" stroke="#666666" points="185,-400 0,-400 0,-380 185,-380 185,-400"/>
<text text-anchor="middle" x="92.5" y="-387.2" font-family="Consolas" font-size="11.00">RelResidual::is_converged</text>
</a>
</g>
</g>
<!-- Node2&#45;&gt;Node6 -->
<g id="edge5" class="edge">
<title>Node2&#45;&gt;Node6</title>
<path fill="none" stroke="#63b8ff" d="M220.67,-390C208.9,-390 196.9,-390 185.19,-390"/>
<polygon fill="#63b8ff" stroke="#63b8ff" points="220.93,-393.5 230.93,-390 220.93,-386.5 220.93,-393.5"/>
</g>
</g>
</svg>
        <g id="navigator" transform="translate(0 0)" fill="#404254">
                <rect fill="#f2f5e9" fill-opacity="0.5" stroke="#606060" stroke-width=".5" x="0" y="0" width="60" height="60"/>
                <use id="zoomplus" xlink:href="#zoomPlus" x="17" y="9" onmousedown="handleZoom(evt,'in')"/>
                <use id="zoomminus" xlink:href="#zoomMin" x="42" y="9" onmousedown="handleZoom(evt,'out')"/>
                <use id="reset" xlink:href="#resetDef" x="30" y="36" onmousedown="handleReset()"/>
                <g id="arrowUp" xlink:href="#dirArrow" transform="translate(30 24)" onmousedown="handlePan(0,-1)">
                  <use xlink:href="#rim" fill="#404040">
                        <set attributeName="fill" to="#808080" begin="arrowUp.mouseover" end="arrowUp.mouseout"/>
                  </use>
                  <path fill="none" stroke="white" stroke-width="1.5" d="M0,-3.0v7 M-2.5,-0.5L0,-3.0L2.5,-0.5"/>
                </g>
                <g id="arrowRight" xlink:href="#dirArrow" transform="rotate(90) translate(36 -43)" onmousedown="handlePan(1,0)">
                  <use xlink:href="#rim" fill="#404040">
                        <set attributeName="fill" to="#808080" begin="arrowRight.mouseover" end="arrowRight.mouseout"/>
                  </use>
                  <path fill="none" stroke="white" stroke-width="1.5" d="M0,-3.0v7 M-2.5,-0.5L0,-3.0L2.5,-0.5"/>
                </g>
                <g id="arrowDown" xlink:href="#dirArrow" transform="rotate(180) translate(-30 -48)" onmousedown="handlePan(0,1)">
                  <use xlink:href="#rim" fill="#404040">
                        <set attributeName="fill" to="#808080" begin="arrowDown.mouseover" end="arrowDown.mouseout"/>
                  </use>
                  <path fill="none" stroke="white" stroke-width="1.5" d="M0,-3.0v7 M-2.5,-0.5L0,-3.0L2.5,-0.5"/>
                </g>
                <g id="arrowLeft" xlink:href="#dirArrow" transform="rotate(270) translate(-36 17)" onmousedown="handlePan(-1,0)">
                  <use xlink:href="#rim" fill="#404040">
                        <set attributeName="fill" to="#808080" begin="arrowLeft.mouseover" end="arrowLeft.mouseout"/>
                  </use>
                  <path fill="none" stroke="white" stroke-width="1.5" d="M0,-3.0v7 M-2.5,-0.5L0,-3.0L2.5,-0.5"/>
                </g>
        </g>
        <svg viewBox="0 0 15 15" width="100%" height="30px" preserveAspectRatio="xMaxYMin meet">
         <g id="arrow_out" transform="scale(0.3 0.3)">
          <a xlink:href="class_converger_a24586cab2381fb79ea5d75deadf50825_icgraph_org.svg" target="_base">
           <rect id="button" ry="5" rx="5" y="6" x="6" height="38" width="38"
                fill="#f2f5e9" fill-opacity="0.5" stroke="#606060" stroke-width="1.0"/>
           <path id="arrow"
             d="M 11.500037,31.436501 C 11.940474,20.09759 22.043105,11.32322 32.158766,21.979434 L 37.068811,17.246167 C 37.068811,17.246167 37.088388,32 37.088388,32 L 22.160133,31.978069 C 22.160133,31.978069 26.997745,27.140456 26.997745,27.140456 C 18.528582,18.264221 13.291696,25.230495 11.500037,31.436501 z"
             style="fill:#404040;"/>
          </a>
         </g>
        </svg>
</svg>
