<?xml version="1.0" encoding="UTF-8" standalone="no"?>
<!DOCTYPE svg PUBLIC "-//W3C//DTD SVG 1.1//EN"
 "http://www.w3.org/Graphics/SVG/1.1/DTD/svg11.dtd">
<!-- Generated by graphviz version 5.0.0 (0)
 -->
<!-- Title: Tag::get_tag Pages: 1 -->
<!--zoomable 1456 -->
<svg id="main" version="1.1" xmlns="http://www.w3.org/2000/svg" xmlns:xlink="http://www.w3.org/1999/xlink" xml:space="preserve" onload="init(evt)">
<style type="text/css"><![CDATA[
.edge:hover path { stroke: red; }
.edge:hover polygon { stroke: red; fill: red; }
]]></style>
<script type="text/javascript"><![CDATA[
var edges = document.getElementsByTagName('g');
if (edges && edges.length) {
  for (var i=0;i<edges.length;i++) {
    if (edges[i].id.substr(0,4)=='edge') {
      edges[i].setAttribute('class','edge');
    }
  }
}
]]></script>
        <defs>
                <circle id="rim" cx="0" cy="0" r="7"/>
                <circle id="rim2" cx="0" cy="0" r="3.5"/>
                <g id="zoomPlus">
                        <use xlink:href="#rim" fill="#404040">
                                <set attributeName="fill" to="#808080" begin="zoomplus.mouseover" end="zoomplus.mouseout"/>
                        </use>
                        <path d="M-4,0h8M0,-4v8" fill="none" stroke="white" stroke-width="1.5" pointer-events="none"/>
                </g>
                <g id="zoomMin">
                        <use xlink:href="#rim" fill="#404040">
                                <set attributeName="fill" to="#808080" begin="zoomminus.mouseover" end="zoomminus.mouseout"/>
                        </use>
                        <path d="M-4,0h8" fill="none" stroke="white" stroke-width="1.5" pointer-events="none"/>
                </g>
                <g id="dirArrow">
                        <path fill="none" stroke="white" stroke-width="1.5" d="M0,-3.0v7 M-2.5,-0.5L0,-3.0L2.5,-0.5"/>
                </g>
               <g id="resetDef">
                       <use xlink:href="#rim2" fill="#404040">
                               <set attributeName="fill" to="#808080" begin="reset.mouseover" end="reset.mouseout"/>
                       </use>
               </g>
        </defs>

<script type="text/javascript">
var viewWidth = 583;
var viewHeight = 1456;
var sectionId = 'dynsection-2';
</script>
<script xlink:href="../../svgpan.js"/>
<svg id="graph" class="graph">
<g id="viewport">
<title>Tag::get_tag</title>
<!-- Node1 -->
<g id="node1" class="node">
<title>Node1</title>
<g id="a_node1"><a xlink:title=" ">
<polygon fill="#999999" stroke="#666666" points="575,-752 477,-752 477,-732 575,-732 575,-752"/>
<text text-anchor="middle" x="526" y="-739.2" font-family="Consolas" font-size="11.00">Tag::get_tag</text>
</a>
</g>
</g>
<!-- Node2 -->
<g id="node2" class="node">
<title>Node2</title>
<g id="a_node2"><a xlink:href="../../db/d7f/class_dynamic.html#a45b4b001d61f1c93e84f7d2569cd2e07" target="_top" xlink:title=" ">
<polygon fill="white" stroke="#666666" points="414,-1448 269,-1448 269,-1428 414,-1428 414,-1448"/>
<text text-anchor="middle" x="341.5" y="-1435.2" font-family="Consolas" font-size="11.00">Dynamic::initialize</text>
</a>
</g>
</g>
<!-- Node1&#45;&gt;Node2 -->
<g id="edge1" class="edge">
<title>Node1&#45;&gt;Node2</title>
<path fill="none" stroke="#63b8ff" d="M523.89,-762.15C517.83,-869.34 487.19,-1369.6 441,-1419 433.74,-1426.76 424.35,-1431.9 414.26,-1435.23"/>
<polygon fill="#63b8ff" stroke="#63b8ff" points="527.4,-762.22 524.46,-752.04 520.41,-761.83 527.4,-762.22"/>
</g>
<!-- Node3 -->
<g id="node3" class="node">
<title>Node3</title>
<g id="a_node3"><a xlink:href="../../dc/d8f/class_node.html#ae9318a6a2d8ae5daa857a1f4100a762e" target="_top" xlink:title="This method should be called after Element objects are set. Element objects will set the minimum numb...">
<polygon fill="white" stroke="#666666" points="404,-1410 279,-1410 279,-1390 404,-1390 404,-1410"/>
<text text-anchor="middle" x="341.5" y="-1397.2" font-family="Consolas" font-size="11.00">Node::initialize</text>
</a>
</g>
</g>
<!-- Node1&#45;&gt;Node3 -->
<g id="edge2" class="edge">
<title>Node1&#45;&gt;Node3</title>
<path fill="none" stroke="#63b8ff" d="M525.38,-762.41C526.78,-861.23 527.71,-1288.94 441,-1381 431.33,-1391.27 417.92,-1396.94 404.1,-1399.9"/>
<polygon fill="#63b8ff" stroke="#63b8ff" points="528.88,-762.2 525.22,-752.26 521.88,-762.32 528.88,-762.2"/>
</g>
<!-- Node4 -->
<g id="node4" class="node">
<title>Node4</title>
<g id="a_node4"><a xlink:href="../../d4/ddd/class_logic_criterion.html#a2fdae38f8af8c4aee49df8b9fc73d567" target="_top" xlink:title=" ">
<polygon fill="white" stroke="#666666" points="437.5,-1372 245.5,-1372 245.5,-1352 437.5,-1352 437.5,-1372"/>
<text text-anchor="middle" x="341.5" y="-1359.2" font-family="Consolas" font-size="11.00">LogicCriterion::initialize</text>
</a>
</g>
</g>
<!-- Node1&#45;&gt;Node4 -->
<g id="edge3" class="edge">
<title>Node1&#45;&gt;Node4</title>
<path fill="none" stroke="#63b8ff" d="M525.19,-762.38C525.66,-857.53 522.66,-1257.01 441,-1343 437.76,-1346.41 434.11,-1349.31 430.17,-1351.77"/>
<polygon fill="#63b8ff" stroke="#63b8ff" points="528.69,-762.09 525.12,-752.11 521.69,-762.13 528.69,-762.09"/>
</g>
<!-- Node5 -->
<g id="node5" class="node">
<title>Node5</title>
<g id="a_node5"><a xlink:href="../../df/da9/class_node_based_criterion.html#abc4984c6981a7c8066c71d24a8e0e70c" target="_top" xlink:title=" ">
<polygon fill="white" stroke="#666666" points="410.5,-1334 272.5,-1334 272.5,-1302 410.5,-1302 410.5,-1334"/>
<text text-anchor="start" x="280.5" y="-1321.2" font-family="Consolas" font-size="11.00">NodeBasedCriterion</text>
<text text-anchor="middle" x="341.5" y="-1309.2" font-family="Consolas" font-size="11.00">::initialize</text>
</a>
</g>
</g>
<!-- Node1&#45;&gt;Node5 -->
<g id="edge4" class="edge">
<title>Node1&#45;&gt;Node5</title>
<path fill="none" stroke="#63b8ff" d="M524.8,-762.28C523.49,-852.06 513.72,-1212.84 441,-1293 432.88,-1301.95 422.05,-1307.9 410.55,-1311.82"/>
<polygon fill="#63b8ff" stroke="#63b8ff" points="528.3,-762.12 524.93,-752.08 521.3,-762.04 528.3,-762.12"/>
</g>
<!-- Node6 -->
<g id="node6" class="node">
<title>Node6</title>
<g id="a_node6"><a xlink:href="../../df/daa/class_b31.html#a4171b1dd2c26b4b1cc17bc87387479e3" target="_top" xlink:title=" ">
<polygon fill="white" stroke="#666666" points="400.5,-1284 282.5,-1284 282.5,-1264 400.5,-1264 400.5,-1284"/>
<text text-anchor="middle" x="341.5" y="-1271.2" font-family="Consolas" font-size="11.00">B31::initialize</text>
</a>
</g>
</g>
<!-- Node1&#45;&gt;Node6 -->
<g id="edge5" class="edge">
<title>Node1&#45;&gt;Node6</title>
<path fill="none" stroke="#63b8ff" d="M524.66,-762.35C522.77,-848.61 510.99,-1183.01 441,-1255 430.38,-1265.93 415.51,-1271.6 400.54,-1274.34"/>
<polygon fill="#63b8ff" stroke="#63b8ff" points="528.16,-762.34 524.86,-752.27 521.16,-762.2 528.16,-762.34"/>
</g>
<!-- Node7 -->
<g id="node7" class="node">
<title>Node7</title>
<g id="a_node7"><a xlink:href="../../de/d6c/class_f31.html#ace1a35867486c3b1dc9712efa80aae40" target="_top" xlink:title=" ">
<polygon fill="white" stroke="#666666" points="400.5,-1246 282.5,-1246 282.5,-1226 400.5,-1226 400.5,-1246"/>
<text text-anchor="middle" x="341.5" y="-1233.2" font-family="Consolas" font-size="11.00">F31::initialize</text>
</a>
</g>
</g>
<!-- Node1&#45;&gt;Node7 -->
<g id="edge6" class="edge">
<title>Node1&#45;&gt;Node7</title>
<path fill="none" stroke="#63b8ff" d="M524.36,-762.4C521.37,-844.69 505.95,-1151.03 441,-1217 430.37,-1227.8 415.59,-1233.45 400.71,-1236.21"/>
<polygon fill="#63b8ff" stroke="#63b8ff" points="527.86,-762.43 524.71,-752.32 520.87,-762.2 527.86,-762.43"/>
</g>
<!-- Node8 -->
<g id="node8" class="node">
<title>Node8</title>
<g id="a_node8"><a xlink:href="../../dd/dfa/class_m_v_l_e_m.html#a5bc31c7ec4045bd3d041b0d8042b7170" target="_top" xlink:title=" ">
<polygon fill="white" stroke="#666666" points="407,-1208 276,-1208 276,-1188 407,-1188 407,-1208"/>
<text text-anchor="middle" x="341.5" y="-1195.2" font-family="Consolas" font-size="11.00">MVLEM::initialize</text>
</a>
</g>
</g>
<!-- Node1&#45;&gt;Node8 -->
<g id="edge7" class="edge">
<title>Node1&#45;&gt;Node8</title>
<path fill="none" stroke="#63b8ff" d="M524,-762.73C519.8,-841.27 500.87,-1119.09 441,-1179 431.89,-1188.12 419.82,-1193.55 407.25,-1196.67"/>
<polygon fill="#63b8ff" stroke="#63b8ff" points="527.52,-762.43 524.54,-752.27 520.53,-762.08 527.52,-762.43"/>
</g>
<!-- Node9 -->
<g id="node9" class="node">
<title>Node9</title>
<g id="a_node9"><a xlink:href="../../d5/db6/class_n_m_b31.html#a147103e56a317ec9c65b341877770855" target="_top" xlink:title=" ">
<polygon fill="white" stroke="#666666" points="407,-1170 276,-1170 276,-1150 407,-1150 407,-1170"/>
<text text-anchor="middle" x="341.5" y="-1157.2" font-family="Consolas" font-size="11.00">NMB31::initialize</text>
</a>
</g>
</g>
<!-- Node1&#45;&gt;Node9 -->
<g id="edge8" class="edge">
<title>Node1&#45;&gt;Node9</title>
<path fill="none" stroke="#63b8ff" d="M523.62,-762.34C518.22,-835.96 495.98,-1086.94 441,-1141 431.81,-1150.04 419.7,-1155.43 407.13,-1158.55"/>
<polygon fill="#63b8ff" stroke="#63b8ff" points="527.13,-762.33 524.35,-752.11 520.15,-761.84 527.13,-762.33"/>
</g>
<!-- Node10 -->
<g id="node10" class="node">
<title>Node10</title>
<g id="a_node10"><a xlink:href="../../d3/de5/class_c_a_x3.html#a95fa34e97670b590f9eadcc414534702" target="_top" xlink:title=" ">
<polygon fill="white" stroke="#666666" points="404,-1132 279,-1132 279,-1112 404,-1112 404,-1132"/>
<text text-anchor="middle" x="341.5" y="-1119.2" font-family="Consolas" font-size="11.00">CAX3::initialize</text>
</a>
</g>
</g>
<!-- Node1&#45;&gt;Node10 -->
<g id="edge9" class="edge">
<title>Node1&#45;&gt;Node10</title>
<path fill="none" stroke="#63b8ff" d="M523.15,-762.18C516.44,-830.99 491.06,-1054.81 441,-1103 431.03,-1112.6 417.75,-1118.07 404.18,-1121.05"/>
<polygon fill="#63b8ff" stroke="#63b8ff" points="526.64,-762.47 524.1,-752.19 519.67,-761.81 526.64,-762.47"/>
</g>
<!-- Node11 -->
<g id="node11" class="node">
<title>Node11</title>
<g id="a_node11"><a xlink:href="../../d8/d0a/class_c_a_x4.html#a06ed2f1fad851519f60aea2110faa3c3" target="_top" xlink:title=" ">
<polygon fill="white" stroke="#666666" points="404,-1094 279,-1094 279,-1074 404,-1074 404,-1094"/>
<text text-anchor="middle" x="341.5" y="-1081.2" font-family="Consolas" font-size="11.00">CAX4::initialize</text>
</a>
</g>
</g>
<!-- Node1&#45;&gt;Node11 -->
<g id="edge10" class="edge">
<title>Node1&#45;&gt;Node11</title>
<path fill="none" stroke="#63b8ff" d="M522.57,-762.1C514.45,-825.98 486.15,-1022.65 441,-1065 430.9,-1074.47 417.58,-1079.89 404,-1082.87"/>
<polygon fill="#63b8ff" stroke="#63b8ff" points="526.06,-762.45 523.82,-752.09 519.11,-761.58 526.06,-762.45"/>
</g>
<!-- Node12 -->
<g id="node12" class="node">
<title>Node12</title>
<g id="a_node12"><a xlink:href="../../d3/d72/class_c_a_x8.html#ac57d0a220e88f2d292de721d50222061" target="_top" xlink:title=" ">
<polygon fill="white" stroke="#666666" points="404,-1056 279,-1056 279,-1036 404,-1036 404,-1056"/>
<text text-anchor="middle" x="341.5" y="-1043.2" font-family="Consolas" font-size="11.00">CAX8::initialize</text>
</a>
</g>
</g>
<!-- Node1&#45;&gt;Node12 -->
<g id="edge11" class="edge">
<title>Node1&#45;&gt;Node12</title>
<path fill="none" stroke="#63b8ff" d="M525.64,-762.27C526.11,-814.7 519.62,-955.59 441,-1027 430.82,-1036.25 417.54,-1041.6 404.04,-1044.58"/>
<polygon fill="#63b8ff" stroke="#63b8ff" points="529.14,-762.16 525.45,-752.23 522.14,-762.29 529.14,-762.16"/>
</g>
<!-- Node13 -->
<g id="node13" class="node">
<title>Node13</title>
<g id="a_node13"><a xlink:href="../../db/dcf/class_c_s_m_q.html#a01bbe8d93d4aa1f44192f9b8a95d12a8" target="_top" xlink:title=" ">
<polygon fill="white" stroke="#666666" points="404,-1018 279,-1018 279,-998 404,-998 404,-1018"/>
<text text-anchor="middle" x="341.5" y="-1005.2" font-family="Consolas" font-size="11.00">CSMQ::initialize</text>
</a>
</g>
</g>
<!-- Node1&#45;&gt;Node13 -->
<g id="edge12" class="edge">
<title>Node1&#45;&gt;Node13</title>
<path fill="none" stroke="#63b8ff" d="M524.57,-762.41C522.38,-810.02 509.93,-928.94 441,-989 430.69,-997.98 417.44,-1003.24 404.03,-1006.22"/>
<polygon fill="#63b8ff" stroke="#63b8ff" points="528.07,-762.28 524.92,-752.16 521.08,-762.03 528.07,-762.28"/>
</g>
<!-- Node14 -->
<g id="node14" class="node">
<title>Node14</title>
<g id="a_node14"><a xlink:href="../../d6/d4f/class_c_s_m_q4.html#aa7ee029cf17bb93ad26d9019f8962e92" target="_top" xlink:title=" ">
<polygon fill="white" stroke="#666666" points="407,-980 276,-980 276,-960 407,-960 407,-980"/>
<text text-anchor="middle" x="341.5" y="-967.2" font-family="Consolas" font-size="11.00">CSMQ4::initialize</text>
</a>
</g>
</g>
<!-- Node1&#45;&gt;Node14 -->
<g id="edge13" class="edge">
<title>Node1&#45;&gt;Node14</title>
<path fill="none" stroke="#63b8ff" d="M523.14,-762.41C518.13,-804.7 500.42,-902 441,-951 431.33,-958.98 419.3,-963.97 407.02,-967.03"/>
<polygon fill="#63b8ff" stroke="#63b8ff" points="526.64,-762.56 524.22,-752.25 519.68,-761.82 526.64,-762.56"/>
</g>
<!-- Node15 -->
<g id="node15" class="node">
<title>Node15</title>
<g id="a_node15"><a xlink:href="../../de/da1/class_c_s_m_q8.html#a9a2c1dfe453ca846ff2eb15765656329" target="_top" xlink:title=" ">
<polygon fill="white" stroke="#666666" points="407,-942 276,-942 276,-922 407,-922 407,-942"/>
<text text-anchor="middle" x="341.5" y="-929.2" font-family="Consolas" font-size="11.00">CSMQ8::initialize</text>
</a>
</g>
</g>
<!-- Node1&#45;&gt;Node15 -->
<g id="edge14" class="edge">
<title>Node1&#45;&gt;Node15</title>
<path fill="none" stroke="#63b8ff" d="M521.24,-761.93C513.3,-798.16 491.26,-874.6 441,-913 431.17,-920.51 419.22,-925.31 407.08,-928.33"/>
<polygon fill="#63b8ff" stroke="#63b8ff" points="524.68,-762.57 523.27,-752.07 517.83,-761.16 524.68,-762.57"/>
</g>
<!-- Node16 -->
<g id="node16" class="node">
<title>Node16</title>
<g id="a_node16"><a xlink:href="../../da/d59/class_c_s_m_t3.html#a33e0282e3a0e6593532821722a2e11cd" target="_top" xlink:title=" ">
<polygon fill="white" stroke="#666666" points="407,-904 276,-904 276,-884 407,-884 407,-904"/>
<text text-anchor="middle" x="341.5" y="-891.2" font-family="Consolas" font-size="11.00">CSMT3::initialize</text>
</a>
</g>
</g>
<!-- Node1&#45;&gt;Node16 -->
<g id="edge15" class="edge">
<title>Node1&#45;&gt;Node16</title>
<path fill="none" stroke="#63b8ff" d="M518.23,-762.04C507.1,-791.77 481.98,-847.02 441,-875 431,-881.82 419.17,-886.34 407.25,-889.31"/>
<polygon fill="#63b8ff" stroke="#63b8ff" points="521.63,-762.94 521.71,-752.35 515.04,-760.58 521.63,-762.94"/>
</g>
<!-- Node17 -->
<g id="node17" class="node">
<title>Node17</title>
<g id="a_node17"><a xlink:href="../../d0/d2a/class_c_s_m_t6.html#accdc1b8c62cf4917027de7016fb981bf" target="_top" xlink:title=" ">
<polygon fill="white" stroke="#666666" points="407,-866 276,-866 276,-846 407,-846 407,-866"/>
<text text-anchor="middle" x="341.5" y="-853.2" font-family="Consolas" font-size="11.00">CSMT6::initialize</text>
</a>
</g>
</g>
<!-- Node1&#45;&gt;Node17 -->
<g id="edge16" class="edge">
<title>Node1&#45;&gt;Node17</title>
<path fill="none" stroke="#63b8ff" d="M513.68,-761.07C499.57,-783.07 473.31,-818.56 441,-837 430.71,-842.87 418.94,-846.96 407.2,-849.81"/>
<polygon fill="#63b8ff" stroke="#63b8ff" points="516.83,-762.63 519.13,-752.29 510.89,-758.94 516.83,-762.63"/>
</g>
<!-- Node18 -->
<g id="node18" class="node">
<title>Node18</title>
<g id="a_node18"><a xlink:href="../../d7/d86/class_g_c_m_q.html#aab80787d2dc84d19b9287ccf37091551" target="_top" xlink:title=" ">
<polygon fill="white" stroke="#666666" points="404,-828 279,-828 279,-808 404,-808 404,-828"/>
<text text-anchor="middle" x="341.5" y="-815.2" font-family="Consolas" font-size="11.00">GCMQ::initialize</text>
</a>
</g>
</g>
<!-- Node1&#45;&gt;Node18 -->
<g id="edge17" class="edge">
<title>Node1&#45;&gt;Node18</title>
<path fill="none" stroke="#63b8ff" d="M505.23,-758.85C489.01,-771.79 464.9,-789.08 441,-799 429.42,-803.81 416.56,-807.41 404.06,-810.11"/>
<polygon fill="#63b8ff" stroke="#63b8ff" points="507.86,-761.22 513.38,-752.18 503.43,-755.81 507.86,-761.22"/>
</g>
<!-- Node19 -->
<g id="node19" class="node">
<title>Node19</title>
<g id="a_node19"><a xlink:href="../../dd/d4b/class_q_e2.html#acd38e378c2f6874358d0fd98167b2427" target="_top" xlink:title=" ">
<polygon fill="white" stroke="#666666" points="400.5,-790 282.5,-790 282.5,-770 400.5,-770 400.5,-790"/>
<text text-anchor="middle" x="341.5" y="-777.2" font-family="Consolas" font-size="11.00">QE2::initialize</text>
</a>
</g>
</g>
<!-- Node1&#45;&gt;Node19 -->
<g id="edge18" class="edge">
<title>Node1&#45;&gt;Node19</title>
<path fill="none" stroke="#63b8ff" d="M471.84,-754.29C461.62,-756.58 450.99,-758.91 441,-761 426.51,-764.04 410.78,-767.15 396.24,-769.96"/>
<polygon fill="#63b8ff" stroke="#63b8ff" points="472.91,-757.64 481.89,-752.03 471.37,-750.81 472.91,-757.64"/>
</g>
<!-- Node20 -->
<g id="node20" class="node">
<title>Node20</title>
<g id="a_node20"><a xlink:href="../../d8/d1c/class_contact3_d.html#abddc542cdf268e9b3e66835011cbe3d7" target="_top" xlink:title=" ">
<polygon fill="white" stroke="#666666" points="420.5,-752 262.5,-752 262.5,-732 420.5,-732 420.5,-752"/>
<text text-anchor="middle" x="341.5" y="-739.2" font-family="Consolas" font-size="11.00">Contact3D::initialize</text>
</a>
</g>
</g>
<!-- Node1&#45;&gt;Node20 -->
<g id="edge19" class="edge">
<title>Node1&#45;&gt;Node20</title>
<path fill="none" stroke="#63b8ff" d="M466.28,-742C451.8,-742 436.06,-742 420.82,-742"/>
<polygon fill="#63b8ff" stroke="#63b8ff" points="466.57,-745.5 476.57,-742 466.57,-738.5 466.57,-745.5"/>
</g>
<!-- Node21 -->
<g id="node21" class="node">
<title>Node21</title>
<g id="a_node21"><a xlink:href="../../d4/dbd/class_n_z_strong_motion.html#ad6cbc2be27a04cf73321274566dd0463" target="_top" xlink:title=" ">
<polygon fill="white" stroke="#666666" points="437.5,-714 245.5,-714 245.5,-694 437.5,-694 437.5,-714"/>
<text text-anchor="middle" x="341.5" y="-701.2" font-family="Consolas" font-size="11.00">NZStrongMotion::initialize</text>
</a>
</g>
</g>
<!-- Node1&#45;&gt;Node21 -->
<g id="edge20" class="edge">
<title>Node1&#45;&gt;Node21</title>
<path fill="none" stroke="#63b8ff" d="M471.84,-729.71C461.62,-727.42 450.99,-725.09 441,-723 426.51,-719.96 410.78,-716.85 396.24,-714.04"/>
<polygon fill="#63b8ff" stroke="#63b8ff" points="471.37,-733.19 481.89,-731.97 472.91,-726.36 471.37,-733.19"/>
</g>
<!-- Node22 -->
<g id="node22" class="node">
<title>Node22</title>
<g id="a_node22"><a xlink:href="../../d0/d22/class_tabular.html#a1637a344aad204ad4fd7c2e1c37582fb" target="_top" xlink:title=" ">
<polygon fill="white" stroke="#666666" points="414,-676 269,-676 269,-656 414,-656 414,-676"/>
<text text-anchor="middle" x="341.5" y="-663.2" font-family="Consolas" font-size="11.00">Tabular::initialize</text>
</a>
</g>
</g>
<!-- Node1&#45;&gt;Node22 -->
<g id="edge21" class="edge">
<title>Node1&#45;&gt;Node22</title>
<path fill="none" stroke="#63b8ff" d="M505.23,-725.15C489.01,-712.21 464.9,-694.92 441,-685 432.23,-681.36 422.74,-678.41 413.21,-676.02"/>
<polygon fill="#63b8ff" stroke="#63b8ff" points="503.43,-728.19 513.38,-731.82 507.86,-722.78 503.43,-728.19"/>
</g>
<!-- Node23 -->
<g id="node23" class="node">
<title>Node23</title>
<g id="a_node23"><a xlink:href="../../dd/d36/class_tabular_spline.html#a968f7e140ba5c509be574295c06fd0ba" target="_top" xlink:title=" ">
<polygon fill="white" stroke="#666666" points="195.5,-657 10.5,-657 10.5,-637 195.5,-637 195.5,-657"/>
<text text-anchor="middle" x="103" y="-644.2" font-family="Consolas" font-size="11.00">TabularSpline::initialize</text>
</a>
</g>
</g>
<!-- Node1&#45;&gt;Node23 -->
<g id="edge23" class="edge">
<title>Node1&#45;&gt;Node23</title>
<path fill="none" stroke="#63b8ff" d="M514.84,-722.85C501.42,-699.88 475.42,-662.51 441,-647 341.79,-602.29 208.84,-622.55 143.56,-636.97"/>
<polygon fill="#63b8ff" stroke="#63b8ff" points="511.86,-724.7 519.8,-731.71 517.97,-721.28 511.86,-724.7"/>
</g>
<!-- Node24 -->
<g id="node24" class="node">
<title>Node24</title>
<g id="a_node24"><a xlink:href="../../d7/dd6/class_amplitude_recorder.html#a2fb65aad9eed2b1d7aee0b291f59987b" target="_top" xlink:title=" ">
<polygon fill="white" stroke="#666666" points="414,-600 269,-600 269,-568 414,-568 414,-600"/>
<text text-anchor="start" x="277" y="-587.2" font-family="Consolas" font-size="11.00">AmplitudeRecorder::</text>
<text text-anchor="middle" x="341.5" y="-575.2" font-family="Consolas" font-size="11.00">initialize</text>
</a>
</g>
</g>
<!-- Node1&#45;&gt;Node24 -->
<g id="edge24" class="edge">
<title>Node1&#45;&gt;Node24</title>
<path fill="none" stroke="#63b8ff" d="M517.31,-722.44C505.27,-694.31 479.3,-642.68 441,-614 432.99,-608 423.77,-603.19 414.25,-599.33"/>
<polygon fill="#63b8ff" stroke="#63b8ff" points="514.19,-724.06 521.24,-731.97 520.67,-721.39 514.19,-724.06"/>
</g>
<!-- Node25 -->
<g id="node25" class="node">
<title>Node25</title>
<g id="a_node25"><a xlink:href="../../d2/da4/class_element_recorder.html#aea1efd3d046681a81a3d3735b1217723" target="_top" xlink:title=" ">
<polygon fill="white" stroke="#666666" points="441,-550 242,-550 242,-530 441,-530 441,-550"/>
<text text-anchor="middle" x="341.5" y="-537.2" font-family="Consolas" font-size="11.00">ElementRecorder::initialize</text>
</a>
</g>
</g>
<!-- Node1&#45;&gt;Node25 -->
<g id="edge25" class="edge">
<title>Node1&#45;&gt;Node25</title>
<path fill="none" stroke="#63b8ff" d="M521.88,-721.75C514.85,-683.48 494.06,-600.65 441,-559 436.48,-555.45 431.49,-552.5 426.22,-550.06"/>
<polygon fill="#63b8ff" stroke="#63b8ff" points="518.44,-722.43 523.58,-731.7 525.34,-721.25 518.44,-722.43"/>
</g>
<!-- Node27 -->
<g id="node27" class="node">
<title>Node27</title>
<g id="a_node27"><a xlink:href="../../de/d66/class_node_recorder.html#a5d112e20e4cd06230af971451167d4f6" target="_top" xlink:title=" ">
<polygon fill="white" stroke="#666666" points="431,-512 252,-512 252,-492 431,-492 431,-512"/>
<text text-anchor="middle" x="341.5" y="-499.2" font-family="Consolas" font-size="11.00">NodeRecorder::initialize</text>
</a>
</g>
</g>
<!-- Node1&#45;&gt;Node27 -->
<g id="edge27" class="edge">
<title>Node1&#45;&gt;Node27</title>
<path fill="none" stroke="#63b8ff" d="M523.64,-721.63C519.55,-677.64 503.43,-573.48 441,-521 436.87,-517.53 432.29,-514.61 427.44,-512.18"/>
<polygon fill="#63b8ff" stroke="#63b8ff" points="520.16,-721.99 524.46,-731.68 527.14,-721.43 520.16,-721.99"/>
</g>
<!-- Node29 -->
<g id="node29" class="node">
<title>Node29</title>
<g id="a_node29"><a xlink:href="../../d4/d62/class_sum_recorder.html#a224cbbac3ee81208571b6823a6a0b182" target="_top" xlink:title=" ">
<polygon fill="white" stroke="#666666" points="427.5,-474 255.5,-474 255.5,-454 427.5,-454 427.5,-474"/>
<text text-anchor="middle" x="341.5" y="-461.2" font-family="Consolas" font-size="11.00">SumRecorder::initialize</text>
</a>
</g>
</g>
<!-- Node1&#45;&gt;Node29 -->
<g id="edge29" class="edge">
<title>Node1&#45;&gt;Node29</title>
<path fill="none" stroke="#63b8ff" d="M524.94,-721.62C523.61,-672.43 512.97,-546.62 441,-483 436.95,-479.42 432.44,-476.44 427.64,-473.95"/>
<polygon fill="#63b8ff" stroke="#63b8ff" points="521.44,-721.95 525.11,-731.9 528.44,-721.84 521.44,-721.95"/>
</g>
<!-- Node31 -->
<g id="node31" class="node">
<title>Node31</title>
<g id="a_node31"><a xlink:href="../../df/d29/class_section.html#a66b1d45a3f0904993da037ba0e4e78ae" target="_top" xlink:title=" ">
<polygon fill="white" stroke="#666666" points="431,-436 252,-436 252,-416 431,-416 431,-436"/>
<text text-anchor="middle" x="341.5" y="-423.2" font-family="Consolas" font-size="11.00">Section::initialize_base</text>
</a>
</g>
</g>
<!-- Node1&#45;&gt;Node31 -->
<g id="edge31" class="edge">
<title>Node1&#45;&gt;Node31</title>
<path fill="none" stroke="#63b8ff" d="M522.04,-721.57C512.81,-660.84 482.71,-483.31 441,-445 437.15,-441.47 432.85,-438.5 428.26,-436.02"/>
<polygon fill="#63b8ff" stroke="#63b8ff" points="518.62,-722.41 523.56,-731.78 525.55,-721.38 518.62,-722.41"/>
</g>
<!-- Node32 -->
<g id="node32" class="node">
<title>Node32</title>
<g id="a_node32"><a xlink:href="../../d5/d50/class_element.html#a73807b10d8919a3cfcfdbc233b4f0975" target="_top" xlink:title=" ">
<polygon fill="white" stroke="#666666" points="431,-398 252,-398 252,-378 431,-378 431,-398"/>
<text text-anchor="middle" x="341.5" y="-385.2" font-family="Consolas" font-size="11.00">Element::initialize_base</text>
</a>
</g>
</g>
<!-- Node1&#45;&gt;Node32 -->
<g id="edge32" class="edge">
<title>Node1&#45;&gt;Node32</title>
<path fill="none" stroke="#63b8ff" d="M522.74,-721.6C515.03,-655.84 487.63,-451.13 441,-407 437.33,-403.53 433.23,-400.6 428.84,-398.14"/>
<polygon fill="#63b8ff" stroke="#63b8ff" points="519.3,-722.34 523.91,-731.88 526.25,-721.54 519.3,-722.34"/>
</g>
<!-- Node33 -->
<g id="node33" class="node">
<title>Node33</title>
<g id="a_node33"><a xlink:href="../../d7/d10/class_simple_scalar_expression.html#a4f00be7135e122e60ed064af727b7c49" target="_top" xlink:title=" ">
<polygon fill="white" stroke="#666666" points="424,-360 259,-360 259,-328 424,-328 424,-360"/>
<text text-anchor="start" x="267" y="-347.2" font-family="Consolas" font-size="11.00">SimpleScalarExpression</text>
<text text-anchor="middle" x="341.5" y="-335.2" font-family="Consolas" font-size="11.00">::make_copy</text>
</a>
</g>
</g>
<!-- Node1&#45;&gt;Node33 -->
<g id="edge33" class="edge">
<title>Node1&#45;&gt;Node33</title>
<path fill="none" stroke="#63b8ff" d="M523.19,-721.73C516.53,-651.56 491.11,-420.48 441,-369 436.08,-363.94 430.29,-359.86 424.02,-356.56"/>
<polygon fill="#63b8ff" stroke="#63b8ff" points="519.73,-722.26 524.13,-731.89 526.7,-721.61 519.73,-722.26"/>
</g>
<!-- Node34 -->
<g id="node34" class="node">
<title>Node34</title>
<g id="a_node34"><a xlink:href="../../d2/d5e/class_simple_vector_expression.html#accd2637e79de0ee4b9febf3f4e5da3ed" target="_top" xlink:title=" ">
<polygon fill="white" stroke="#666666" points="424,-310 259,-310 259,-278 424,-278 424,-310"/>
<text text-anchor="start" x="267" y="-297.2" font-family="Consolas" font-size="11.00">SimpleVectorExpression</text>
<text text-anchor="middle" x="341.5" y="-285.2" font-family="Consolas" font-size="11.00">::make_copy</text>
</a>
</g>
</g>
<!-- Node1&#45;&gt;Node34 -->
<g id="edge34" class="edge">
<title>Node1&#45;&gt;Node34</title>
<path fill="none" stroke="#63b8ff" d="M523.76,-721.53C518.74,-645.19 497.37,-378.41 441,-319 436.14,-313.88 430.4,-309.75 424.16,-306.43"/>
<polygon fill="#63b8ff" stroke="#63b8ff" points="520.28,-721.97 524.41,-731.73 527.27,-721.53 520.28,-721.97"/>
</g>
<!-- Node35 -->
<g id="node35" class="node">
<title>Node35</title>
<g id="a_node35"><a xlink:href="../../dc/d8f/class_node.html#a36eeb379e0bd0e224c1d6686f2fd773e" target="_top" xlink:title=" ">
<polygon fill="white" stroke="#666666" points="387,-260 296,-260 296,-240 387,-240 387,-260"/>
<text text-anchor="middle" x="341.5" y="-247.2" font-family="Consolas" font-size="11.00">Node::print</text>
</a>
</g>
</g>
<!-- Node1&#45;&gt;Node35 -->
<g id="edge35" class="edge">
<title>Node1&#45;&gt;Node35</title>
<path fill="none" stroke="#63b8ff" d="M524.35,-721.69C521.3,-639.73 505.71,-334.68 441,-269 427.13,-254.92 406.19,-249.59 387.19,-248.02"/>
<polygon fill="#63b8ff" stroke="#63b8ff" points="520.85,-721.85 524.7,-731.72 527.85,-721.61 520.85,-721.85"/>
</g>
<!-- Node36 -->
<g id="node36" class="node">
<title>Node36</title>
<g id="a_node36"><a xlink:href="../../d6/df5/class_visualisation_recorder.html#aa61dae76aed2eb1c34e8cdd9f7630a25" target="_top" xlink:title=" ">
<polygon fill="white" stroke="#666666" points="420.5,-222 262.5,-222 262.5,-190 420.5,-190 420.5,-222"/>
<text text-anchor="start" x="270.5" y="-209.2" font-family="Consolas" font-size="11.00">VisualisationRecorder</text>
<text text-anchor="middle" x="341.5" y="-197.2" font-family="Consolas" font-size="11.00">::record</text>
</a>
</g>
</g>
<!-- Node1&#45;&gt;Node36 -->
<g id="edge36" class="edge">
<title>Node1&#45;&gt;Node36</title>
<path fill="none" stroke="#63b8ff" d="M524.53,-721.57C522.13,-635.65 508.57,-304.62 441,-231 435.27,-224.76 428.23,-219.98 420.57,-216.34"/>
<polygon fill="#63b8ff" stroke="#63b8ff" points="521.04,-721.91 524.79,-731.82 528.03,-721.73 521.04,-721.91"/>
</g>
<!-- Node37 -->
<g id="node37" class="node">
<title>Node37</title>
<g id="a_node37"><a xlink:href="../../d3/d1a/class_recorder.html#a82201bf02428d81dc45471bb7f7455f5" target="_top" xlink:title=" ">
<polygon fill="white" stroke="#666666" points="397,-172 286,-172 286,-152 397,-152 397,-172"/>
<text text-anchor="middle" x="341.5" y="-159.2" font-family="Consolas" font-size="11.00">Recorder::save</text>
</a>
</g>
</g>
<!-- Node1&#45;&gt;Node37 -->
<g id="edge37" class="edge">
<title>Node1&#45;&gt;Node37</title>
<path fill="none" stroke="#63b8ff" d="M524.97,-721.53C524.39,-630.16 517.32,-260.58 441,-181 429.61,-169.12 413.21,-163.42 397.04,-160.96"/>
<polygon fill="#63b8ff" stroke="#63b8ff" points="521.47,-721.7 525.01,-731.68 528.47,-721.67 521.47,-721.7"/>
</g>
<!-- Node38 -->
<g id="node38" class="node">
<title>Node38</title>
<g id="a_node38"><a xlink:href="../../dc/d8f/class_node.html#a7889d3854d00098a47bafd9595ec6150" target="_top" xlink:title=" ">
<polygon fill="white" stroke="#666666" points="431,-134 252,-134 252,-114 431,-114 431,-134"/>
<text text-anchor="middle" x="341.5" y="-121.2" font-family="Consolas" font-size="11.00">Node::set_dof_identifier</text>
</a>
</g>
</g>
<!-- Node1&#45;&gt;Node38 -->
<g id="edge38" class="edge">
<title>Node1&#45;&gt;Node38</title>
<path fill="none" stroke="#63b8ff" d="M525.18,-721.68C525.6,-626.85 522.41,-228.69 441,-143 437.76,-139.59 434.11,-136.69 430.17,-134.23"/>
<polygon fill="#63b8ff" stroke="#63b8ff" points="521.68,-721.9 525.12,-731.92 528.68,-721.95 521.68,-721.9"/>
</g>
<!-- Node39 -->
<g id="node39" class="node">
<title>Node39</title>
<g id="a_node39"><a xlink:href="../../d4/df4/class_domain.html#a4c4d39af4998460cca39082e04cef2c3" target="_top" xlink:title=" ">
<polygon fill="white" stroke="#666666" points="400.5,-96 282.5,-96 282.5,-76 400.5,-76 400.5,-96"/>
<text text-anchor="middle" x="341.5" y="-83.2" font-family="Consolas" font-size="11.00">Domain::summary</text>
</a>
</g>
</g>
<!-- Node1&#45;&gt;Node39 -->
<g id="edge39" class="edge">
<title>Node1&#45;&gt;Node39</title>
<path fill="none" stroke="#63b8ff" d="M525.37,-721.65C526.73,-623.14 527.46,-196.76 441,-105 430.49,-93.85 415.57,-88.11 400.51,-85.4"/>
<polygon fill="#63b8ff" stroke="#63b8ff" points="521.87,-721.72 525.21,-731.77 528.87,-721.83 521.87,-721.72"/>
</g>
<!-- Node40 -->
<g id="node40" class="node">
<title>Node40</title>
<g id="a_node40"><a xlink:href="../../d7/d7e/class_b21_e.html#ab3b6ebf19e37a84af92d71400e42ecf1" target="_top" xlink:title=" ">
<polygon fill="white" stroke="#666666" points="414,-58 269,-58 269,-38 414,-38 414,-58"/>
<text text-anchor="middle" x="341.5" y="-45.2" font-family="Consolas" font-size="11.00">B21E::update_status</text>
</a>
</g>
</g>
<!-- Node1&#45;&gt;Node40 -->
<g id="edge40" class="edge">
<title>Node1&#45;&gt;Node40</title>
<path fill="none" stroke="#63b8ff" d="M523.89,-721.91C517.8,-615.03 487.07,-116.25 441,-67 433.74,-59.24 424.35,-54.1 414.26,-50.77"/>
<polygon fill="#63b8ff" stroke="#63b8ff" points="520.4,-722.2 524.46,-731.99 527.39,-721.81 520.4,-722.2"/>
</g>
<!-- Node41 -->
<g id="node41" class="node">
<title>Node41</title>
<g id="a_node41"><a xlink:href="../../d6/d59/class_t2_d2.html#af88297a24560959df568034685df246c" target="_top" xlink:title=" ">
<polygon fill="white" stroke="#666666" points="414,-20 269,-20 269,0 414,0 414,-20"/>
<text text-anchor="middle" x="341.5" y="-7.2" font-family="Consolas" font-size="11.00">T2D2::update_status</text>
</a>
</g>
</g>
<!-- Node1&#45;&gt;Node41 -->
<g id="edge41" class="edge">
<title>Node1&#45;&gt;Node41</title>
<path fill="none" stroke="#63b8ff" d="M524.03,-721.83C518.5,-611.21 489.6,-81.3 441,-29 433.77,-21.22 424.39,-16.07 414.3,-12.73"/>
<polygon fill="#63b8ff" stroke="#63b8ff" points="520.54,-722.14 524.52,-731.96 527.53,-721.8 520.54,-722.14"/>
</g>
<!-- Node22&#45;&gt;Node23 -->
<g id="edge22" class="edge">
<title>Node22&#45;&gt;Node23</title>
<path fill="none" stroke="#63b8ff" d="M258.78,-659.43C238.51,-657.81 216.65,-656.05 195.93,-654.39"/>
<polygon fill="#63b8ff" stroke="#63b8ff" points="258.65,-662.94 268.9,-660.25 259.21,-655.96 258.65,-662.94"/>
</g>
<!-- Node26 -->
<g id="node26" class="node">
<title>Node26</title>
<g id="a_node26"><a xlink:href="../../d9/d00/class_group_element_recorder.html#a10827077ce7079b134f425e847649472" target="_top" xlink:title=" ">
<polygon fill="white" stroke="#666666" points="179,-568 27,-568 27,-536 179,-536 179,-568"/>
<text text-anchor="start" x="35" y="-555.2" font-family="Consolas" font-size="11.00">GroupElementRecorder</text>
<text text-anchor="middle" x="103" y="-543.2" font-family="Consolas" font-size="11.00">::initialize</text>
</a>
</g>
</g>
<!-- Node25&#45;&gt;Node26 -->
<g id="edge26" class="edge">
<title>Node25&#45;&gt;Node26</title>
<path fill="none" stroke="#63b8ff" d="M231.57,-545.53C213.91,-546.42 195.98,-547.33 179.36,-548.18"/>
<polygon fill="#63b8ff" stroke="#63b8ff" points="232.11,-549 241.92,-545 231.75,-542.01 232.11,-549"/>
</g>
<!-- Node28 -->
<g id="node28" class="node">
<title>Node28</title>
<g id="a_node28"><a xlink:href="../../d1/dcb/class_group_node_recorder.html#a5b77bf3dc3fa0b95cdb81416d899a7cd" target="_top" xlink:title=" ">
<polygon fill="white" stroke="#666666" points="175.5,-518 30.5,-518 30.5,-486 175.5,-486 175.5,-518"/>
<text text-anchor="start" x="38.5" y="-505.2" font-family="Consolas" font-size="11.00">GroupNodeRecorder::</text>
<text text-anchor="middle" x="103" y="-493.2" font-family="Consolas" font-size="11.00">initialize</text>
</a>
</g>
</g>
<!-- Node27&#45;&gt;Node28 -->
<g id="edge28" class="edge">
<title>Node27&#45;&gt;Node28</title>
<path fill="none" stroke="#63b8ff" d="M241.65,-502C219.46,-502 196.34,-502 175.52,-502"/>
<polygon fill="#63b8ff" stroke="#63b8ff" points="241.76,-505.5 251.76,-502 241.76,-498.5 241.76,-505.5"/>
</g>
<!-- Node30 -->
<g id="node30" class="node">
<title>Node30</title>
<g id="a_node30"><a xlink:href="../../d8/d73/class_group_sum_recorder.html#a01c470faa7fe4efe9f23e1daeb1f9182" target="_top" xlink:title=" ">
<polygon fill="white" stroke="#666666" points="206,-468 0,-468 0,-448 206,-448 206,-468"/>
<text text-anchor="middle" x="103" y="-455.2" font-family="Consolas" font-size="11.00">GroupSumRecorder::initialize</text>
</a>
</g>
</g>
<!-- Node29&#45;&gt;Node30 -->
<g id="edge30" class="edge">
<title>Node29&#45;&gt;Node30</title>
<path fill="none" stroke="#63b8ff" d="M245.21,-461.58C232.31,-461.26 219.04,-460.92 206.04,-460.59"/>
<polygon fill="#63b8ff" stroke="#63b8ff" points="245.37,-465.09 255.45,-461.84 245.54,-458.09 245.37,-465.09"/>
</g>
</g>
</svg>
        <g id="navigator" transform="translate(0 0)" fill="#404254">
                <rect fill="#f2f5e9" fill-opacity="0.5" stroke="#606060" stroke-width=".5" x="0" y="0" width="60" height="60"/>
                <use id="zoomplus" xlink:href="#zoomPlus" x="17" y="9" onmousedown="handleZoom(evt,'in')"/>
                <use id="zoomminus" xlink:href="#zoomMin" x="42" y="9" onmousedown="handleZoom(evt,'out')"/>
                <use id="reset" xlink:href="#resetDef" x="30" y="36" onmousedown="handleReset()"/>
                <g id="arrowUp" xlink:href="#dirArrow" transform="translate(30 24)" onmousedown="handlePan(0,-1)">
                  <use xlink:href="#rim" fill="#404040">
                        <set attributeName="fill" to="#808080" begin="arrowUp.mouseover" end="arrowUp.mouseout"/>
                  </use>
                  <path fill="none" stroke="white" stroke-width="1.5" d="M0,-3.0v7 M-2.5,-0.5L0,-3.0L2.5,-0.5"/>
                </g>
                <g id="arrowRight" xlink:href="#dirArrow" transform="rotate(90) translate(36 -43)" onmousedown="handlePan(1,0)">
                  <use xlink:href="#rim" fill="#404040">
                        <set attributeName="fill" to="#808080" begin="arrowRight.mouseover" end="arrowRight.mouseout"/>
                  </use>
                  <path fill="none" stroke="white" stroke-width="1.5" d="M0,-3.0v7 M-2.5,-0.5L0,-3.0L2.5,-0.5"/>
                </g>
                <g id="arrowDown" xlink:href="#dirArrow" transform="rotate(180) translate(-30 -48)" onmousedown="handlePan(0,1)">
                  <use xlink:href="#rim" fill="#404040">
                        <set attributeName="fill" to="#808080" begin="arrowDown.mouseover" end="arrowDown.mouseout"/>
                  </use>
                  <path fill="none" stroke="white" stroke-width="1.5" d="M0,-3.0v7 M-2.5,-0.5L0,-3.0L2.5,-0.5"/>
                </g>
                <g id="arrowLeft" xlink:href="#dirArrow" transform="rotate(270) translate(-36 17)" onmousedown="handlePan(-1,0)">
                  <use xlink:href="#rim" fill="#404040">
                        <set attributeName="fill" to="#808080" begin="arrowLeft.mouseover" end="arrowLeft.mouseout"/>
                  </use>
                  <path fill="none" stroke="white" stroke-width="1.5" d="M0,-3.0v7 M-2.5,-0.5L0,-3.0L2.5,-0.5"/>
                </g>
        </g>
        <svg viewBox="0 0 15 15" width="100%" height="30px" preserveAspectRatio="xMaxYMin meet">
         <g id="arrow_out" transform="scale(0.3 0.3)">
          <a xlink:href="class_tag_ac0f87379856fb9f3e6f11f4d9971d9f8_icgraph_org.svg" target="_base">
           <rect id="button" ry="5" rx="5" y="6" x="6" height="38" width="38"
                fill="#f2f5e9" fill-opacity="0.5" stroke="#606060" stroke-width="1.0"/>
           <path id="arrow"
             d="M 11.500037,31.436501 C 11.940474,20.09759 22.043105,11.32322 32.158766,21.979434 L 37.068811,17.246167 C 37.068811,17.246167 37.088388,32 37.088388,32 L 22.160133,31.978069 C 22.160133,31.978069 26.997745,27.140456 26.997745,27.140456 C 18.528582,18.264221 13.291696,25.230495 11.500037,31.436501 z"
             style="fill:#404040;"/>
          </a>
         </g>
        </svg>
</svg>
