<svg xmlns="http://www.w3.org/2000/svg" xmlns:xlink="http://www.w3.org/1999/xlink" xml:space="preserve" id="main" onload="init(evt)"><style>.edge,.node,[data-mouse-over-selected=false]{opacity:.7}.edge.selected,.node.selected,[data-mouse-over-selected=true]{opacity:1}.edge:hover path{stroke:red}.edge:hover polygon{stroke:red;fill:red}</style><defs><g id="zoomPlus"><use xlink:href="#rim" fill="#404040"><set attributeName="fill" begin="zoomplus.mouseover" end="zoomplus.mouseout" to="#808080"/></use><path fill="none" stroke="#fff" stroke-width="1.5" d="M-4 0h8M0-4v8" pointer-events="none"/></g><g id="zoomMin"><use xlink:href="#rim" fill="#404040"><set attributeName="fill" begin="zoomminus.mouseover" end="zoomminus.mouseout" to="#808080"/></use><path fill="none" stroke="#fff" stroke-width="1.5" d="M-4 0h8" pointer-events="none"/></g><g id="arrowUp" transform="translate(30 24)"><use xlink:href="#rim"/><path fill="none" stroke="#fff" stroke-width="1.5" d="M0-3v7M-2.5-.5 0-3 2.5-.5" pointer-events="none"/></g><g id="arrowRight" transform="rotate(90 3.5 39.5)"><use xlink:href="#rim"/><path fill="none" stroke="#fff" stroke-width="1.5" d="M0-3v7M-2.5-.5 0-3 2.5-.5" pointer-events="none"/></g><g id="arrowDown" transform="matrix(-1 0 0 -1 30 48)"><use xlink:href="#rim"/><path fill="none" stroke="#fff" stroke-width="1.5" d="M0-3v7M-2.5-.5 0-3 2.5-.5" pointer-events="none"/></g><g id="arrowLeft" transform="rotate(-90 26.5 9.5)"><use xlink:href="#rim"/><path fill="none" stroke="#fff" stroke-width="1.5" d="M0-3v7M-2.5-.5 0-3 2.5-.5" pointer-events="none"/></g><circle id="rim" cx="0" cy="0" r="7"/><circle id="rim2" cx="0" cy="0" r="3.5"/><use xlink:href="#rim2" id="resetDef" fill="#404040"><set attributeName="fill" begin="reset.mouseover" end="reset.mouseout" to="#808080"/></use></defs><script type="application/ecmascript">var viewWidth = 835;
var viewHeight = 218;
var sectionId = &apos;dynsection-8&apos;;</script><script xlink:href="../../svg.min.js" type="application/ecmascript"/><svg id="graph" class="graph"><g id="viewport"><title>get_optional_input</title><g id="Node000001" class="node"><title>Node1</title><a id="a_Node000001">
<path fill="#999" stroke="#666" d="M827-115H689v20h138z"/>
<text x="758" y="-102.2" font-family="Consolas" font-size="11" text-anchor="middle">get_optional_input</text>
</a></g><g id="Node000002" class="node"><title>Node2</title><a xlink:href="../../d9/d67/_load_parser_8cpp.html#af6584e3dbc2c6468db087c3d851d16fd" id="a_Node000002" target="_top">
<path fill="#fff" stroke="#666" d="M650-210H498v20h152z"/>
<text x="574" y="-197.2" font-family="Consolas" font-size="11" text-anchor="middle">create_new_amplitude</text>
</a></g><g id="edge1_Node000001_Node000002" class="edge"><title>Node1-&gt;Node2</title><a id="a_edge1_Node000001_Node000002">
<path fill="none" stroke="#63b8ff" d="M737.11-121.29C716.95-137.11 684.37-160.9 653-176c-11.62-5.59-24.83-10.24-37.04-13.91"/>
<path fill="#63b8ff" stroke="#63b8ff" d="m739.3-124.01 5.64 8.97-10-3.5z"/>
</a></g><g id="Node000003" class="node"><title>Node3</title><a xlink:href="../../d1/d81/command_8cpp.html#a461032f40aff035f61cb8169cfe58aa1" id="a_Node000003" target="_top">
<path fill="#fff" stroke="#666" d="M459-134H341v20h118z"/>
<text x="400" y="-121.2" font-family="Consolas" font-size="11" text-anchor="middle">process_command</text>
</a></g><g id="edge13_Node000001_Node000003" class="edge"><title>Node1-&gt;Node3</title><a id="a_edge13_Node000001_Node000003">
<path fill="none" stroke="#63b8ff" d="M726.74-119.26C706.4-128.04 678.7-138.45 653-143c-69.15-12.24-88.13-6.99-158 0-17.73 1.77-37.06 5.38-53.55 8.99"/>
<path fill="#63b8ff" stroke="#63b8ff" d="m728.37-122.37 7.73 7.25-10.57-.85z"/>
</a></g><g id="Node000007" class="node"><title>Node7</title><a xlink:href="../../d1/d8d/_solver_parser_8cpp.html#a7f8747ecf56ca08c37eed1d96a348045" id="a_Node000007" target="_top">
<path fill="#fff" stroke="#666" d="M653-134H495v20h158z"/>
<text x="574" y="-121.2" font-family="Consolas" font-size="11" text-anchor="middle">create_new_integrator</text>
</a></g><g id="edge6_Node000001_Node000007" class="edge"><title>Node1-&gt;Node7</title><a id="a_edge6_Node000001_Node000007">
<path fill="none" stroke="#63b8ff" d="M678.98-113.15c-8.59-.89-17.34-1.8-25.93-2.7"/>
<path fill="#63b8ff" stroke="#63b8ff" d="m679.39-116.62 9.58 4.52-10.31 2.44z"/>
</a></g><g id="Node000008" class="node"><title>Node8</title><a xlink:href="../../d1/d8d/_solver_parser_8cpp.html#a54ea4c12e27a5346c858f766f86514bc" id="a_Node000008" target="_top">
<path fill="#fff" stroke="#666" d="M639.5-96h-131v20h131z"/>
<text x="574" y="-83.2" font-family="Consolas" font-size="11" text-anchor="middle">create_new_solver</text>
</a></g><g id="edge8_Node000001_Node000008" class="edge"><title>Node1-&gt;Node8</title><a id="a_edge8_Node000001_Node000008">
<path fill="none" stroke="#63b8ff" d="M679.02-96.86c-13.14 1.37-26.64 2.78-39.39 4.11"/>
<path fill="#63b8ff" stroke="#63b8ff" d="m678.66-100.34 10.31 2.44-9.58 4.52z"/>
</a></g><g id="Node000009" class="node"><title>Node9</title><a xlink:href="../../d9/d02/_step_parser_8cpp.html#a23ae3e5d76406dd869fc93dd54feaf46" id="a_Node000009" target="_top">
<path fill="#fff" stroke="#666" d="M633-58H515v20h118z"/>
<text x="574" y="-45.2" font-family="Consolas" font-size="11" text-anchor="middle">create_new_step</text>
</a></g><g id="edge10_Node000001_Node000009" class="edge"><title>Node1-&gt;Node9</title><a id="a_edge10_Node000001_Node000009">
<path fill="none" stroke="#63b8ff" d="M722.68-91.37C702.56-83.65 676.55-74.15 653-67c-10.67 3.24-22.29 6.31-33.22 9"/>
<path fill="#63b8ff" stroke="#63b8ff" d="m721.46-94.65 10.59-.34-8.07 6.87z"/>
</a></g><g id="Node000010" class="node"><title>Node10</title><a xlink:href="../../d5/d47/utility_8h.html#a7ef1e8d9d28092f9269cc79e36819e87" id="a_Node000010" target="_top">
<path fill="#fff" stroke="#666" d="M643-20H505V0h138z"/>
<text x="574" y="-7.2" font-family="Consolas" font-size="11" text-anchor="middle">get_optional_input</text>
</a></g><g id="edge12_Node000001_Node000010" class="edge"><title>Node1-&gt;Node10</title><a id="a_edge12_Node000001_Node000010">
<path fill="none" stroke="#63b8ff" d="M738.79-88.2C719.08-70.89 686.01-44.34 653-29c-7.71 3.58-16.17 6.54-24.6 8.96"/>
<path fill="#63b8ff" stroke="#63b8ff" d="m736.6-90.93 9.79-4.06-5.12 9.27z"/>
</a></g><g id="edge2_Node000002_Node000003" class="edge"><title>Node2-&gt;Node3</title><a id="a_edge2_Node000002_Node000003">
<path fill="none" stroke="#63b8ff" d="M524.9-186.91c-10.02 3.2-20.41 6.88-29.9 10.91-28.66 12.18-59.93 30.6-78.21 41.93"/>
<path fill="#63b8ff" stroke="#63b8ff" d="m524.16-190.35 10.59.4-8.53 6.29z"/>
</a></g><g id="Node000004" class="node"><title>Node4</title><a xlink:href="../../da/d46/group___utility.html#ga8bf8736c7a14e90bd7313d121b2ac440" id="a_Node000004" target="_top">
<path fill="#fff" stroke="#666" d="M305-134h-71v20h71z"/>
<text x="269.5" y="-121.2" font-family="Consolas" font-size="11" text-anchor="middle">cli_mode</text>
</a></g><g id="edge3_Node000003_Node000004" class="edge"><title>Node3-&gt;Node4</title><a id="a_edge3_Node000003_Node000004">
<path fill="none" stroke="#63b8ff" d="M330.71-124h-25.69"/>
<path fill="#63b8ff" stroke="#63b8ff" d="m330.77-127.5 10 3.5-10 3.5z"/>
</a></g><g id="Node000005" class="node"><title>Node5</title><a xlink:href="../../da/d46/group___utility.html#gaf8d2165909a5b05cf91dce632ce172a4" id="a_Node000005" target="_top">
<path fill="#fff" stroke="#666" d="M198-134H80v20h118z"/>
<text x="139" y="-121.2" font-family="Consolas" font-size="11" text-anchor="middle">argument_parser</text>
</a></g><g id="edge4_Node000004_Node000005" class="edge"><title>Node4-&gt;Node5</title><a id="a_edge4_Node000004_Node000005">
<path fill="none" stroke="#63b8ff" d="M223.59-124h-25.51"/>
<path fill="#63b8ff" stroke="#63b8ff" d="m223.73-127.5 10 3.5-10 3.5z"/>
</a></g><g id="Node000006" class="node"><title>Node6</title><a xlink:href="../../d6/dfd/suan_pan_8cpp.html#a3c04138a5bfe5d72780bb7e82a18e627" id="a_Node000006" target="_top">
<path fill="#fff" stroke="#666" d="M44-134H0v20h44z"/>
<text x="22" y="-121.2" font-family="Consolas" font-size="11" text-anchor="middle">main</text>
</a></g><g id="edge5_Node000005_Node000006" class="edge"><title>Node5-&gt;Node6</title><a id="a_edge5_Node000005_Node000006">
<path fill="none" stroke="#63b8ff" d="M69.67-124h-25.6"/>
<path fill="#63b8ff" stroke="#63b8ff" d="m69.83-127.5 10 3.5-10 3.5z"/>
</a></g><g id="edge7_Node000007_Node000003" class="edge"><title>Node7-&gt;Node3</title><a id="a_edge7_Node000007_Node000003">
<path fill="none" stroke="#63b8ff" d="M484.67-124h-25.48"/>
<path fill="#63b8ff" stroke="#63b8ff" d="m484.8-127.5 10 3.5-10 3.5z"/>
</a></g><g id="edge9_Node000008_Node000003" class="edge"><title>Node8-&gt;Node3</title><a id="a_edge9_Node000008_Node000003">
<path fill="none" stroke="#63b8ff" d="M517.43-98.28c-22.91-5.06-49.13-10.85-70.87-15.66"/>
<path fill="#63b8ff" stroke="#63b8ff" d="m518.35-101.66 9.01 5.58-10.52 1.26z"/>
</a></g><g id="edge11_Node000009_Node000003" class="edge"><title>Node9-&gt;Node3</title><a id="a_edge11_Node000009_Node000003">
<path fill="none" stroke="#63b8ff" d="M512.07-60.91c-5.85-1.81-11.62-3.84-17.07-6.09-30.51-12.61-62.71-34.21-80.39-46.89"/>
<path fill="#63b8ff" stroke="#63b8ff" d="m513.3-64.2 8.63 6.15-10.58.58z"/>
</a></g></g></svg><g id="navigator" fill="#404254"><path fill="#f2f5e9" fill-opacity=".5" stroke="#606060" stroke-width=".5" d="M0 0h60v60H0z"/><use xlink:href="#zoomPlus" id="zoomplus" x="17" y="9" onmousedown="handleZoom(evt,'in')"/><use xlink:href="#zoomMin" id="zoomminus" x="42" y="9" onmousedown="handleZoom(evt,'out')"/><use xlink:href="#resetDef" id="reset" x="30" y="36" onmousedown="handleReset()"/><use xlink:href="#arrowUp" id="arrowup" x="0" y="0" onmousedown="handlePan(0,-1)"/><use xlink:href="#arrowRight" id="arrowright" x="0" y="0" onmousedown="handlePan(1,0)"/><use xlink:href="#arrowDown" id="arrowdown" x="0" y="0" onmousedown="handlePan(0,1)"/><use xlink:href="#arrowLeft" id="arrowleft" x="0" y="0" onmousedown="handlePan(-1,0)"/></g><svg height="30" preserveAspectRatio="xMaxYMin meet" viewBox="0 0 15 15"><a xlink:href="utility_8h_a47251af69eaab88fa21b6e0fd91cb891_icgraph_org.svg" id="arrow_out" target="_base" transform="scale(.3)">
   <rect id="button" width="38" height="38" x="6" y="6" fill="#f2f5e9" fill-opacity=".5" stroke="#606060" stroke-width="1" rx="5" ry="5"/>
   <path id="arrow" d="M11.5 31.437c.44-11.34 10.543-20.114 20.659-9.458l4.91-4.733.02 14.754-14.929-.022 4.838-4.838c-8.47-8.876-13.706-1.91-15.498 4.297" style="fill:#404040"/>
  </a></svg><script type="application/ecmascript"><![CDATA[
document.addEventListener('DOMContentLoaded', (event) => {
  highlightEdges();
  highlightAdjacentNodes();
});
]]></script></svg>