<?xml version="1.0" encoding="UTF-8" standalone="no"?>
<!DOCTYPE svg PUBLIC "-//W3C//DTD SVG 1.1//EN"
 "http://www.w3.org/Graphics/SVG/1.1/DTD/svg11.dtd">
<!-- Generated by graphviz version 2.43.0 (0)
 -->
<!-- Title: DataArmstrongFrederick Pages: 1 -->
<svg width="169pt" height="388pt"
 viewBox="0.00 0.00 169.00 388.00" xmlns="http://www.w3.org/2000/svg" xmlns:xlink="http://www.w3.org/1999/xlink">
<g id="graph0" class="graph" transform="scale(1 1) rotate(0) translate(4 384)">
<title>DataArmstrongFrederick</title>
<!-- Node1 -->
<g id="Node000001" class="node">
<title>Node1</title>
<g id="a_Node000001"><a xlink:title=" ">
<polygon fill="#999999" stroke="transparent" points="160,-380 1,-380 1,-216 160,-216 160,-380"/>
<text text-anchor="start" x="6.5" y="-367.2" font-family="Consolas" font-size="11.00">DataArmstrongFrederick</text>
<text text-anchor="start" x="15" y="-351.2" font-family="Consolas" font-size="11.00">+</text>
<text text-anchor="start" x="35.5" y="-351.2" font-family="Consolas" font-size="11.00">elastic_modulus</text>
<text text-anchor="start" x="15" y="-335.2" font-family="Consolas" font-size="11.00">+</text>
<text text-anchor="start" x="35.5" y="-335.2" font-family="Consolas" font-size="11.00">poissons_ratio</text>
<text text-anchor="start" x="15" y="-319.2" font-family="Consolas" font-size="11.00">+</text>
<text text-anchor="start" x="35.5" y="-319.2" font-family="Consolas" font-size="11.00">yield</text>
<text text-anchor="start" x="15" y="-303.2" font-family="Consolas" font-size="11.00">+</text>
<text text-anchor="start" x="35.5" y="-303.2" font-family="Consolas" font-size="11.00">hardening</text>
<text text-anchor="start" x="15" y="-287.2" font-family="Consolas" font-size="11.00">+</text>
<text text-anchor="start" x="35.5" y="-287.2" font-family="Consolas" font-size="11.00">saturation</text>
<text text-anchor="start" x="15" y="-271.2" font-family="Consolas" font-size="11.00">+</text>
<text text-anchor="start" x="35.5" y="-271.2" font-family="Consolas" font-size="11.00">ms</text>
<text text-anchor="start" x="15" y="-255.2" font-family="Consolas" font-size="11.00">+</text>
<text text-anchor="start" x="35.5" y="-255.2" font-family="Consolas" font-size="11.00">a</text>
<text text-anchor="start" x="15" y="-239.2" font-family="Consolas" font-size="11.00">+</text>
<text text-anchor="start" x="35.5" y="-239.2" font-family="Consolas" font-size="11.00">b</text>
<text text-anchor="start" x="77.5" y="-223.2" font-family="Consolas" font-size="11.00"> </text>
<polygon fill="#666666" stroke="#666666" points="1.5,-362 1.5,-362 160.5,-362 160.5,-362 1.5,-362"/>
<polygon fill="#666666" stroke="#666666" points="1.5,-234 1.5,-234 33.5,-234 33.5,-234 1.5,-234"/>
<polygon fill="#666666" stroke="#666666" points="33.5,-234 33.5,-234 160.5,-234 160.5,-234 33.5,-234"/>
<polygon fill="none" stroke="#666666" points="1,-216 1,-380 160,-380 160,-216 1,-216"/>
</a>
</g>
</g>
<!-- Node2 -->
<g id="Node000002" class="node">
<title>Node2</title>
<g id="a_Node000002"><a xlink:href="../../d5/d60/class_armstrong_frederick.html" target="_top" xlink:title="The ArmstrongFrederick class defines a nonlinear hardening material with mixed hardening (isotropic a...">
<polygon fill="white" stroke="transparent" points="161,-180 0,-180 0,0 161,0 161,-180"/>
<text text-anchor="start" x="20" y="-167.2" font-family="Consolas" font-size="11.00">ArmstrongFrederick</text>
<text text-anchor="start" x="77.5" y="-151.2" font-family="Consolas" font-size="11.00"> </text>
<text text-anchor="start" x="4.5" y="-135.2" font-family="Consolas" font-size="11.00">+</text>
<text text-anchor="start" x="15.5" y="-135.2" font-family="Consolas" font-size="11.00">ArmstrongFrederick()</text>
<text text-anchor="start" x="4.5" y="-119.2" font-family="Consolas" font-size="11.00">+</text>
<text text-anchor="start" x="15.5" y="-119.2" font-family="Consolas" font-size="11.00">initialize()</text>
<text text-anchor="start" x="4.5" y="-103.2" font-family="Consolas" font-size="11.00">+</text>
<text text-anchor="start" x="15.5" y="-103.2" font-family="Consolas" font-size="11.00">get_copy()</text>
<text text-anchor="start" x="4.5" y="-87.2" font-family="Consolas" font-size="11.00">+</text>
<text text-anchor="start" x="15.5" y="-87.2" font-family="Consolas" font-size="11.00">get_parameter()</text>
<text text-anchor="start" x="4.5" y="-71.2" font-family="Consolas" font-size="11.00">+</text>
<text text-anchor="start" x="15.5" y="-71.2" font-family="Consolas" font-size="11.00">update_trial_status()</text>
<text text-anchor="start" x="4.5" y="-55.2" font-family="Consolas" font-size="11.00">+</text>
<text text-anchor="start" x="15.5" y="-55.2" font-family="Consolas" font-size="11.00">clear_status()</text>
<text text-anchor="start" x="4.5" y="-39.2" font-family="Consolas" font-size="11.00">+</text>
<text text-anchor="start" x="15.5" y="-39.2" font-family="Consolas" font-size="11.00">commit_status()</text>
<text text-anchor="start" x="4.5" y="-23.2" font-family="Consolas" font-size="11.00">+</text>
<text text-anchor="start" x="15.5" y="-23.2" font-family="Consolas" font-size="11.00">reset_status()</text>
<text text-anchor="start" x="4.5" y="-7.2" font-family="Consolas" font-size="11.00">+</text>
<text text-anchor="start" x="15.5" y="-7.2" font-family="Consolas" font-size="11.00">print()</text>
<polygon fill="#666666" stroke="#666666" points="0.5,-162 0.5,-162 161.5,-162 161.5,-162 0.5,-162"/>
<polygon fill="#666666" stroke="#666666" points="0.5,-146 0.5,-146 161.5,-146 161.5,-146 0.5,-146"/>
<polygon fill="none" stroke="#666666" points="0,0 0,-180 161,-180 161,0 0,0"/>
</a>
</g>
</g>
<!-- Node1&#45;&gt;Node2 -->
<g id="edge1_Node000001_Node000002" class="edge">
<title>Node1&#45;&gt;Node2</title>
<g id="a_edge1_Node000001_Node000002"><a xlink:title=" ">
<path fill="none" stroke="darkgreen" d="M80.5,-205.64C80.5,-197.19 80.5,-188.64 80.5,-180.21"/>
<polygon fill="none" stroke="darkgreen" points="77,-205.88 80.5,-215.88 84,-205.88 77,-205.88"/>
</a>
</g>
</g>
</g>
</svg>
