<svg xmlns="http://www.w3.org/2000/svg" xmlns:xlink="http://www.w3.org/1999/xlink" xml:space="preserve" id="main" onload="init(evt)"><style>.edge,.node,[data-mouse-over-selected=false]{opacity:.7}.edge.selected,.node.selected,[data-mouse-over-selected=true]{opacity:1}.edge:hover path{stroke:red}.edge:hover polygon{stroke:red;fill:red}</style><defs><g id="zoomPlus"><use xlink:href="#rim" fill="#404040"><set attributeName="fill" begin="zoomplus.mouseover" end="zoomplus.mouseout" to="#808080"/></use><path fill="none" stroke="#fff" stroke-width="1.5" d="M-4 0h8M0-4v8" pointer-events="none"/></g><g id="zoomMin"><use xlink:href="#rim" fill="#404040"><set attributeName="fill" begin="zoomminus.mouseover" end="zoomminus.mouseout" to="#808080"/></use><path fill="none" stroke="#fff" stroke-width="1.5" d="M-4 0h8" pointer-events="none"/></g><g id="arrowUp" transform="translate(30 24)"><use xlink:href="#rim"/><path fill="none" stroke="#fff" stroke-width="1.5" d="M0-3v7M-2.5-.5 0-3 2.5-.5" pointer-events="none"/></g><g id="arrowRight" transform="rotate(90 3.5 39.5)"><use xlink:href="#rim"/><path fill="none" stroke="#fff" stroke-width="1.5" d="M0-3v7M-2.5-.5 0-3 2.5-.5" pointer-events="none"/></g><g id="arrowDown" transform="matrix(-1 0 0 -1 30 48)"><use xlink:href="#rim"/><path fill="none" stroke="#fff" stroke-width="1.5" d="M0-3v7M-2.5-.5 0-3 2.5-.5" pointer-events="none"/></g><g id="arrowLeft" transform="rotate(-90 26.5 9.5)"><use xlink:href="#rim"/><path fill="none" stroke="#fff" stroke-width="1.5" d="M0-3v7M-2.5-.5 0-3 2.5-.5" pointer-events="none"/></g><circle id="rim" cx="0" cy="0" r="7"/><circle id="rim2" cx="0" cy="0" r="3.5"/><use xlink:href="#rim2" id="resetDef" fill="#404040"><set attributeName="fill" begin="reset.mouseover" end="reset.mouseout" to="#808080"/></use></defs><script type="application/ecmascript">var viewWidth = 196;
var viewHeight = 2012;
var sectionId = &apos;dynsection-0&apos;;</script><script xlink:href="../../svg.min.js" type="application/ecmascript"/><svg id="graph" class="graph"><g id="viewport"><title>LeeNewmark</title><g id="Node000001" class="node"><title>Node1</title><a xlink:title="A LeeNewmark class defines a solver using Newmark algorithm with Lee damping model." id="a_Node000001">
<path fill="#999" stroke="transparent" d="M174.5-292h-161v204h161z"/>
<text x="60.5" y="-279.2" font-family="Consolas" font-size="11">LeeNewmark</text>
<text x="18" y="-263.2" font-family="Consolas" font-size="11">#</text>
<text x="29" y="-263.2" font-family="Consolas" font-size="11">current_mass</text>
<text x="18" y="-247.2" font-family="Consolas" font-size="11">#</text>
<text x="29" y="-247.2" font-family="Consolas" font-size="11">current_stiffness</text>
<text x="18" y="-231.2" font-family="Consolas" font-size="11">#</text>
<text x="29" y="-231.2" font-family="Consolas" font-size="11">current_geometry</text>
<text x="18" y="-215.2" font-family="Consolas" font-size="11">+</text>
<text x="29" y="-215.2" font-family="Consolas" font-size="11">LeeNewmark()</text>
<text x="18" y="-199.2" font-family="Consolas" font-size="11">+</text>
<text x="29" y="-199.2" font-family="Consolas" font-size="11">initialize()</text>
<text x="18" y="-183.2" font-family="Consolas" font-size="11">+</text>
<text x="29" y="-183.2" font-family="Consolas" font-size="11">process_constraint()</text>
<text x="18" y="-167.2" font-family="Consolas" font-size="11">+</text>
<text x="29" y="-167.2" font-family="Consolas" font-size="11">process_constraint</text>
<text x="29" y="-155.2" font-family="Consolas" font-size="11">_resistance()</text>
<text x="18" y="-139.2" font-family="Consolas" font-size="11">+</text>
<text x="29" y="-139.2" font-family="Consolas" font-size="11">assemble_resistance()</text>
<text x="18" y="-123.2" font-family="Consolas" font-size="11">+</text>
<text x="29" y="-123.2" font-family="Consolas" font-size="11">assemble_effective</text>
<text x="29" y="-111.2" font-family="Consolas" font-size="11">_matrix()</text>
<text x="18" y="-95.2" font-family="Consolas" font-size="11">+</text>
<text x="29" y="-95.2" font-family="Consolas" font-size="11">print()</text>
<path fill="#666" stroke="#666" d="M14-274h161z"/>
<path fill="#666" stroke="#666" d="M14-226h13z"/>
<path fill="#666" stroke="#666" d="M27-226h148z"/>
<path fill="none" stroke="#666" d="M13.5-88v-204h161v204z"/>
</a></g><g id="Node000008" class="node"><title>Node8</title><a xlink:href="../../d7/de2/class_lee_elemental_newmark.html" id="a_Node000008" target="_top">
<path fill="#fff" stroke="transparent" d="M163.5-52h-139V0h139z"/>
<text x="30" y="-39.2" font-family="Consolas" font-size="11">LeeElementalNewmark</text>
<text x="91" y="-23.2" font-family="Consolas" font-size="11"> </text>
<text x="38.5" y="-7.2" font-family="Consolas" font-size="11">+</text>
<text x="59" y="-7.2" font-family="Consolas" font-size="11">LeeNewmark()</text>
<path fill="#666" stroke="#666" d="M25-34h139z"/>
<path fill="#666" stroke="#666" d="M25-18h139z"/>
<path fill="none" stroke="#666" d="M24.5 0v-52h139V0z"/>
</a></g><g id="edge7_Node000001_Node000008" class="edge"><title>Node1-&gt;Node8</title><a id="a_edge7_Node000001_Node000008">
<path fill="none" stroke="#63b8ff" d="M94-77.77v25.71"/>
<path fill="none" stroke="#63b8ff" d="m90.5-77.78 3.5-10 3.5 10z"/>
</a></g><g id="Node000002" class="node"><title>Node2</title><a xlink:href="../../d2/d22/class_lee_newmark_base.html" xlink:title="A LeeNewmarkBase class defines a solver using Newmark algorithm with Lee damping model." id="a_Node000002" target="_top">
<path fill="#fff" stroke="transparent" d="M178-716H10v388h168z"/>
<text x="46.5" y="-703.2" font-family="Consolas" font-size="11">LeeNewmarkBase</text>
<text x="14" y="-687.2" font-family="Consolas" font-size="11">#</text>
<text x="25" y="-687.2" font-family="Consolas" font-size="11">n_block</text>
<text x="14" y="-671.2" font-family="Consolas" font-size="11">#</text>
<text x="25" y="-671.2" font-family="Consolas" font-size="11">stiffness_type</text>
<text x="14" y="-655.2" font-family="Consolas" font-size="11">#</text>
<text x="25" y="-655.2" font-family="Consolas" font-size="11">first_iteration</text>
<text x="14" y="-639.2" font-family="Consolas" font-size="11">#</text>
<text x="25" y="-639.2" font-family="Consolas" font-size="11">current_internal</text>
<text x="14" y="-623.2" font-family="Consolas" font-size="11">#</text>
<text x="25" y="-623.2" font-family="Consolas" font-size="11">trial_internal</text>
<text x="14" y="-607.2" font-family="Consolas" font-size="11">#</text>
<text x="25" y="-607.2" font-family="Consolas" font-size="11">residual</text>
<text x="14" y="-591.2" font-family="Consolas" font-size="11">#</text>
<text x="25" y="-591.2" font-family="Consolas" font-size="11">stiffness</text>
<text x="14" y="-575.2" font-family="Consolas" font-size="11">#</text>
<text x="25" y="-575.2" font-family="Consolas" font-size="11">factory</text>
<text x="14" y="-559.2" font-family="Consolas" font-size="11">+</text>
<text x="25" y="-559.2" font-family="Consolas" font-size="11">LeeNewmarkBase()</text>
<text x="14" y="-543.2" font-family="Consolas" font-size="11">+</text>
<text x="25" y="-543.2" font-family="Consolas" font-size="11">initialize()</text>
<text x="14" y="-527.2" font-family="Consolas" font-size="11">+</text>
<text x="25" y="-527.2" font-family="Consolas" font-size="11">update_internal()</text>
<text x="14" y="-511.2" font-family="Consolas" font-size="11">+</text>
<text x="25" y="-511.2" font-family="Consolas" font-size="11">solve()</text>
<text x="14" y="-495.2" font-family="Consolas" font-size="11">+</text>
<text x="25" y="-495.2" font-family="Consolas" font-size="11">solve()</text>
<text x="14" y="-479.2" font-family="Consolas" font-size="11">+</text>
<text x="25" y="-479.2" font-family="Consolas" font-size="11">solve()</text>
<text x="14" y="-463.2" font-family="Consolas" font-size="11">+</text>
<text x="25" y="-463.2" font-family="Consolas" font-size="11">solve()</text>
<text x="14" y="-447.2" font-family="Consolas" font-size="11">+</text>
<text x="25" y="-447.2" font-family="Consolas" font-size="11">get_residual()</text>
<text x="14" y="-431.2" font-family="Consolas" font-size="11">+</text>
<text x="25" y="-431.2" font-family="Consolas" font-size="11">commit_status()</text>
<text x="14" y="-415.2" font-family="Consolas" font-size="11">+</text>
<text x="25" y="-415.2" font-family="Consolas" font-size="11">clear_status()</text>
<text x="14" y="-399.2" font-family="Consolas" font-size="11">+</text>
<text x="25" y="-399.2" font-family="Consolas" font-size="11">reset_status()</text>
<text x="14" y="-383.2" font-family="Consolas" font-size="11">#</text>
<text x="25" y="-383.2" font-family="Consolas" font-size="11">get_total_size()</text>
<text x="14" y="-367.2" font-family="Consolas" font-size="11">#</text>
<text x="25" y="-367.2" font-family="Consolas" font-size="11">update_stiffness()</text>
<text x="14" y="-351.2" font-family="Consolas" font-size="11">#</text>
<text x="25" y="-351.2" font-family="Consolas" font-size="11">update_residual()</text>
<text x="14" y="-335.2" font-family="Consolas" font-size="11">#</text>
<text x="25" y="-335.2" font-family="Consolas" font-size="11">erase_top_left_block()</text>
<path fill="#666" stroke="#666" d="M10-698h168z"/>
<path fill="#666" stroke="#666" d="M10-570h13z"/>
<path fill="#666" stroke="#666" d="M23-570h155z"/>
<path fill="none" stroke="#666" d="M10-328v-388h168v388z"/>
</a></g><g id="edge1_Node000001_Node000002" class="edge"><title>Node2-&gt;Node1</title><a id="a_edge1_Node000001_Node000002">
<path fill="none" stroke="#63b8ff" d="M94-317.45v25.24"/>
<path fill="none" stroke="#63b8ff" d="m90.5-317.61 3.5-10 3.5 10z"/>
</a></g><g id="Node000003" class="node"><title>Node3</title><a xlink:href="../../dd/d8e/class_newmark.html" xlink:title="A Newmark class defines a solver using Newmark algorithm." id="a_Node000003" target="_top">
<path fill="#fff" stroke="transparent" d="M188-1008H0v256h188z"/>
<text x="70" y="-995.2" font-family="Consolas" font-size="11">Newmark</text>
<text x="4" y="-979.2" font-family="Consolas" font-size="11">#</text>
<text x="15" y="-979.2" font-family="Consolas" font-size="11">C0</text>
<text x="4" y="-963.2" font-family="Consolas" font-size="11">#</text>
<text x="15" y="-963.2" font-family="Consolas" font-size="11">C1</text>
<text x="4" y="-947.2" font-family="Consolas" font-size="11">#</text>
<text x="15" y="-947.2" font-family="Consolas" font-size="11">C2</text>
<text x="4" y="-931.2" font-family="Consolas" font-size="11">#</text>
<text x="15" y="-931.2" font-family="Consolas" font-size="11">C3</text>
<text x="4" y="-915.2" font-family="Consolas" font-size="11">#</text>
<text x="15" y="-915.2" font-family="Consolas" font-size="11">C4</text>
<text x="4" y="-899.2" font-family="Consolas" font-size="11">#</text>
<text x="15" y="-899.2" font-family="Consolas" font-size="11">C5</text>
<text x="4" y="-883.2" font-family="Consolas" font-size="11">+</text>
<text x="15" y="-883.2" font-family="Consolas" font-size="11">Newmark()</text>
<text x="4" y="-867.2" font-family="Consolas" font-size="11">+</text>
<text x="15" y="-867.2" font-family="Consolas" font-size="11">assemble_resistance()</text>
<text x="4" y="-851.2" font-family="Consolas" font-size="11">+</text>
<text x="15" y="-851.2" font-family="Consolas" font-size="11">assemble_effective</text>
<text x="15" y="-839.2" font-family="Consolas" font-size="11">_matrix()</text>
<text x="4" y="-823.2" font-family="Consolas" font-size="11">+</text>
<text x="15" y="-823.2" font-family="Consolas" font-size="11">update_trial_status()</text>
<text x="4" y="-807.2" font-family="Consolas" font-size="11">+</text>
<text x="15" y="-807.2" font-family="Consolas" font-size="11">from_incre_velocity()</text>
<text x="4" y="-791.2" font-family="Consolas" font-size="11">+</text>
<text x="15" y="-791.2" font-family="Consolas" font-size="11">from_incre_acceleration()</text>
<text x="4" y="-775.2" font-family="Consolas" font-size="11">+</text>
<text x="15" y="-775.2" font-family="Consolas" font-size="11">print()</text>
<text x="4" y="-759.2" font-family="Consolas" font-size="11">#</text>
<text x="15" y="-759.2" font-family="Consolas" font-size="11">update_parameter()</text>
<path fill="#666" stroke="#666" d="M0-990h188z"/>
<path fill="#666" stroke="#666" d="M0-894h13z"/>
<path fill="#666" stroke="#666" d="M13-894h175z"/>
<path fill="none" stroke="#666" d="M0-752v-256h188v256z"/>
</a></g><g id="edge2_Node000002_Node000003" class="edge"><title>Node3-&gt;Node2</title><a id="a_edge2_Node000002_Node000003">
<path fill="none" stroke="#63b8ff" d="M94-741.78v25.58"/>
<path fill="none" stroke="#63b8ff" d="m90.5-741.98 3.5-10 3.5 10z"/>
</a></g><g id="Node000004" class="node"><title>Node4</title><a xlink:href="../../d2/df8/class_implicit_integrator.html" id="a_Node000004" target="_top">
<path fill="#fff" stroke="transparent" d="M161-1128H27v84h134z"/>
<text x="33" y="-1115.2" font-family="Consolas" font-size="11">ImplicitIntegrator</text>
<text x="90.5" y="-1099.2" font-family="Consolas" font-size="11"> </text>
<text x="31" y="-1083.2" font-family="Consolas" font-size="11">+</text>
<text x="42" y="-1083.2" font-family="Consolas" font-size="11">type()</text>
<text x="31" y="-1067.2" font-family="Consolas" font-size="11">+</text>
<text x="42" y="-1067.2" font-family="Consolas" font-size="11">assemble_matrix()</text>
<text x="31" y="-1051.2" font-family="Consolas" font-size="11">+</text>
<text x="42" y="-1051.2" font-family="Consolas" font-size="11">Integrator()</text>
<path fill="#666" stroke="#666" d="M27-1110h134z"/>
<path fill="#666" stroke="#666" d="M27-1094h134z"/>
<path fill="none" stroke="#666" d="M27-1044v-84h134v84z"/>
</a></g><g id="edge3_Node000003_Node000004" class="edge"><title>Node4-&gt;Node3</title><a id="a_edge3_Node000003_Node000004">
<path fill="none" stroke="#63b8ff" d="M94-1033.56v25.34"/>
<path fill="none" stroke="#63b8ff" d="m90.5-1033.72 3.5-10 3.5 10z"/>
</a></g><g id="Node000005" class="node"><title>Node5</title><a xlink:href="../../d6/d55/class_integrator.html" xlink:title="The Integrator class is basically a wrapper of the DomainBase class with regard to some status changi..." id="a_Node000005" target="_top">
<path fill="#fff" stroke="transparent" d="M188-1492H0v328h188z"/>
<text x="60" y="-1479.2" font-family="Consolas" font-size="11">Integrator</text>
<text x="90.5" y="-1463.2" font-family="Consolas" font-size="11"> </text>
<text x="4" y="-1447.2" font-family="Consolas" font-size="11">+</text>
<text x="15" y="-1447.2" font-family="Consolas" font-size="11">Integrator()</text>
<text x="4" y="-1431.2" font-family="Consolas" font-size="11">+</text>
<text x="15" y="-1431.2" font-family="Consolas" font-size="11">set_domain()</text>
<text x="4" y="-1415.2" font-family="Consolas" font-size="11">+</text>
<text x="15" y="-1415.2" font-family="Consolas" font-size="11">get_domain()</text>
<text x="4" y="-1399.2" font-family="Consolas" font-size="11">+</text>
<text x="15" y="-1399.2" font-family="Consolas" font-size="11">initialize()</text>
<text x="4" y="-1383.2" font-family="Consolas" font-size="11">+</text>
<text x="15" y="-1383.2" font-family="Consolas" font-size="11">type()</text>
<text x="4" y="-1367.2" font-family="Consolas" font-size="11">+</text>
<text x="15" y="-1367.2" font-family="Consolas" font-size="11">set_time_step_switch()</text>
<text x="4" y="-1351.2" font-family="Consolas" font-size="11">+</text>
<text x="15" y="-1351.2" font-family="Consolas" font-size="11">allow_to_change_time</text>
<text x="15" y="-1339.2" font-family="Consolas" font-size="11">_step()</text>
<text x="4" y="-1323.2" font-family="Consolas" font-size="11">+</text>
<text x="15" y="-1323.2" font-family="Consolas" font-size="11">set_matrix_assembled</text>
<text x="15" y="-1311.2" font-family="Consolas" font-size="11">_switch()</text>
<text x="4" y="-1295.2" font-family="Consolas" font-size="11">+</text>
<text x="15" y="-1295.2" font-family="Consolas" font-size="11">matrix_is_assembled()</text>
<text x="4" y="-1279.2" font-family="Consolas" font-size="11">+</text>
<text x="15" y="-1279.2" font-family="Consolas" font-size="11">time_independent_matrix()</text>
<text x="15" y="-1263.2" font-family="Consolas" font-size="11">and 49 more...</text>
<text x="4" y="-1247.2" font-family="Consolas" font-size="11">#</text>
<text x="15" y="-1247.2" font-family="Consolas" font-size="11">update_parameter()</text>
<text x="4" y="-1231.2" font-family="Consolas" font-size="11">#</text>
<text x="15" y="-1231.2" font-family="Consolas" font-size="11">process_load_impl()</text>
<text x="4" y="-1215.2" font-family="Consolas" font-size="11">#</text>
<text x="15" y="-1215.2" font-family="Consolas" font-size="11">process_constraint</text>
<text x="15" y="-1203.2" font-family="Consolas" font-size="11">_impl()</text>
<text x="4" y="-1187.2" font-family="Consolas" font-size="11">#</text>
<text x="15" y="-1187.2" font-family="Consolas" font-size="11">has_corrector()</text>
<text x="4" y="-1171.2" font-family="Consolas" font-size="11">#</text>
<text x="15" y="-1171.2" font-family="Consolas" font-size="11">correct_trial_status()</text>
<path fill="#666" stroke="#666" d="M0-1474h188z"/>
<path fill="#666" stroke="#666" d="M0-1458h188z"/>
<path fill="none" stroke="#666" d="M0-1164v-328h188v328z"/>
</a></g><g id="edge4_Node000004_Node000005" class="edge"><title>Node5-&gt;Node4</title><a id="a_edge4_Node000004_Node000005">
<path fill="none" stroke="#63b8ff" d="M94-1153.75v25.74"/>
<path fill="none" stroke="#63b8ff" d="m90.5-1153.93 3.5-10 3.5 10z"/>
</a></g><g id="Node000006" class="node"><title>Node6</title><a xlink:href="../../db/db8/class_unique_tag.html" xlink:title="Label objects that cannot be copied." id="a_Node000006" target="_top">
<path fill="#fff" stroke="transparent" d="M144.5-1692h-101v164h101z"/>
<text x="64" y="-1679.2" font-family="Consolas" font-size="11">UniqueTag</text>
<text x="91" y="-1663.2" font-family="Consolas" font-size="11"> </text>
<text x="48" y="-1647.2" font-family="Consolas" font-size="11">+</text>
<text x="59" y="-1647.2" font-family="Consolas" font-size="11">UniqueTag()</text>
<text x="48" y="-1631.2" font-family="Consolas" font-size="11">+</text>
<text x="59" y="-1631.2" font-family="Consolas" font-size="11">UniqueTag()</text>
<text x="48" y="-1615.2" font-family="Consolas" font-size="11">+</text>
<text x="59" y="-1615.2" font-family="Consolas" font-size="11">operator=()</text>
<text x="48" y="-1599.2" font-family="Consolas" font-size="11">+</text>
<text x="59" y="-1599.2" font-family="Consolas" font-size="11">operator=()</text>
<text x="48" y="-1583.2" font-family="Consolas" font-size="11">+</text>
<text x="59" y="-1583.2" font-family="Consolas" font-size="11">~UniqueTag()</text>
<text x="48" y="-1567.2" font-family="Consolas" font-size="11">+</text>
<text x="59" y="-1567.2" font-family="Consolas" font-size="11">Tag()</text>
<text x="48" y="-1551.2" font-family="Consolas" font-size="11">+</text>
<text x="59" y="-1551.2" font-family="Consolas" font-size="11">Tag()</text>
<text x="48" y="-1535.2" font-family="Consolas" font-size="11">+</text>
<text x="59" y="-1535.2" font-family="Consolas" font-size="11">Tag()</text>
<path fill="#666" stroke="#666" d="M44-1674h101z"/>
<path fill="#666" stroke="#666" d="M44-1658h101z"/>
<path fill="none" stroke="#666" d="M43.5-1528v-164h101v164z"/>
</a></g><g id="edge5_Node000005_Node000006" class="edge"><title>Node6-&gt;Node5</title><a id="a_edge5_Node000005_Node000006">
<path fill="none" stroke="#63b8ff" d="M94-1517.42v25.18"/>
<path fill="none" stroke="#63b8ff" d="m90.5-1517.64 3.5-10 3.5 10z"/>
</a></g><g id="Node000007" class="node"><title>Node7</title><a xlink:href="../../d0/d57/class_tag.html" xlink:title="A base Tag class." id="a_Node000007" target="_top">
<path fill="#fff" stroke="transparent" d="M144.5-2004h-101v276h101z"/>
<text x="84" y="-1991.2" font-family="Consolas" font-size="11">Tag</text>
<text x="91" y="-1975.2" font-family="Consolas" font-size="11"> </text>
<text x="48" y="-1959.2" font-family="Consolas" font-size="11">+</text>
<text x="59" y="-1959.2" font-family="Consolas" font-size="11">Tag()</text>
<text x="48" y="-1943.2" font-family="Consolas" font-size="11">+</text>
<text x="59" y="-1943.2" font-family="Consolas" font-size="11">Tag()</text>
<text x="48" y="-1927.2" font-family="Consolas" font-size="11">+</text>
<text x="59" y="-1927.2" font-family="Consolas" font-size="11">Tag()</text>
<text x="48" y="-1911.2" font-family="Consolas" font-size="11">+</text>
<text x="59" y="-1911.2" font-family="Consolas" font-size="11">operator=()</text>
<text x="48" y="-1895.2" font-family="Consolas" font-size="11">+</text>
<text x="59" y="-1895.2" font-family="Consolas" font-size="11">operator=()</text>
<text x="48" y="-1879.2" font-family="Consolas" font-size="11">+</text>
<text x="59" y="-1879.2" font-family="Consolas" font-size="11">~Tag()</text>
<text x="48" y="-1863.2" font-family="Consolas" font-size="11">+</text>
<text x="59" y="-1863.2" font-family="Consolas" font-size="11">set_tag()</text>
<text x="48" y="-1847.2" font-family="Consolas" font-size="11">+</text>
<text x="59" y="-1847.2" font-family="Consolas" font-size="11">get_tag()</text>
<text x="48" y="-1831.2" font-family="Consolas" font-size="11">+</text>
<text x="59" y="-1831.2" font-family="Consolas" font-size="11">enable()</text>
<text x="48" y="-1815.2" font-family="Consolas" font-size="11">+</text>
<text x="59" y="-1815.2" font-family="Consolas" font-size="11">disable()</text>
<text x="48" y="-1799.2" font-family="Consolas" font-size="11">+</text>
<text x="59" y="-1799.2" font-family="Consolas" font-size="11">guard()</text>
<text x="48" y="-1783.2" font-family="Consolas" font-size="11">+</text>
<text x="59" y="-1783.2" font-family="Consolas" font-size="11">unguard()</text>
<text x="48" y="-1767.2" font-family="Consolas" font-size="11">+</text>
<text x="59" y="-1767.2" font-family="Consolas" font-size="11">is_active()</text>
<text x="48" y="-1751.2" font-family="Consolas" font-size="11">+</text>
<text x="59" y="-1751.2" font-family="Consolas" font-size="11">is_guarded()</text>
<text x="48" y="-1735.2" font-family="Consolas" font-size="11">+</text>
<text x="59" y="-1735.2" font-family="Consolas" font-size="11">print()</text>
<path fill="#666" stroke="#666" d="M44-1986h101z"/>
<path fill="#666" stroke="#666" d="M44-1970h101z"/>
<path fill="none" stroke="#666" d="M43.5-1728v-276h101v276z"/>
</a></g><g id="edge6_Node000006_Node000007" class="edge"><title>Node7-&gt;Node6</title><a id="a_edge6_Node000006_Node000007">
<path fill="none" stroke="#63b8ff" d="M94-1717.72v25.49"/>
<path fill="none" stroke="#63b8ff" d="m90.5-1717.96 3.5-10 3.5 10z"/>
</a></g></g></svg><g id="navigator" fill="#404254"><path fill="#f2f5e9" fill-opacity=".5" stroke="#606060" stroke-width=".5" d="M0 0h60v60H0z"/><use xlink:href="#zoomPlus" id="zoomplus" x="17" y="9" onmousedown="handleZoom(evt,'in')"/><use xlink:href="#zoomMin" id="zoomminus" x="42" y="9" onmousedown="handleZoom(evt,'out')"/><use xlink:href="#resetDef" id="reset" x="30" y="36" onmousedown="handleReset()"/><use xlink:href="#arrowUp" id="arrowup" x="0" y="0" onmousedown="handlePan(0,-1)"/><use xlink:href="#arrowRight" id="arrowright" x="0" y="0" onmousedown="handlePan(1,0)"/><use xlink:href="#arrowDown" id="arrowdown" x="0" y="0" onmousedown="handlePan(0,1)"/><use xlink:href="#arrowLeft" id="arrowleft" x="0" y="0" onmousedown="handlePan(-1,0)"/></g><svg height="30" preserveAspectRatio="xMaxYMin meet" viewBox="0 0 15 15"><a xlink:href="class_lee_newmark__inherit__graph_org.svg" id="arrow_out" target="_base" transform="scale(.3)">
   <rect id="button" width="38" height="38" x="6" y="6" fill="#f2f5e9" fill-opacity=".5" stroke="#606060" stroke-width="1" rx="5" ry="5"/>
   <path id="arrow" d="M11.5 31.437c.44-11.34 10.543-20.114 20.659-9.458l4.91-4.733.02 14.754-14.929-.022 4.838-4.838c-8.47-8.876-13.706-1.91-15.498 4.297" style="fill:#404040"/>
  </a></svg><script type="application/ecmascript"><![CDATA[
document.addEventListener('DOMContentLoaded', (event) => {
  highlightEdges();
  highlightAdjacentNodes();
});
]]></script></svg>