<svg xmlns="http://www.w3.org/2000/svg" xmlns:xlink="http://www.w3.org/1999/xlink" xml:space="preserve" id="main" onload="init(evt)"><style>.edge,.node,[data-mouse-over-selected=false]{opacity:.7}.edge.selected,.node.selected,[data-mouse-over-selected=true]{opacity:1}.edge:hover path{stroke:red}.edge:hover polygon{stroke:red;fill:red}</style><defs><g id="zoomPlus"><use xlink:href="#rim" fill="#404040"><set attributeName="fill" begin="zoomplus.mouseover" end="zoomplus.mouseout" to="#808080"/></use><path fill="none" stroke="#fff" stroke-width="1.5" d="M-4 0h8M0-4v8" pointer-events="none"/></g><g id="zoomMin"><use xlink:href="#rim" fill="#404040"><set attributeName="fill" begin="zoomminus.mouseover" end="zoomminus.mouseout" to="#808080"/></use><path fill="none" stroke="#fff" stroke-width="1.5" d="M-4 0h8" pointer-events="none"/></g><g id="arrowUp" transform="translate(30 24)"><use xlink:href="#rim"/><path fill="none" stroke="#fff" stroke-width="1.5" d="M0-3v7M-2.5-.5 0-3 2.5-.5" pointer-events="none"/></g><g id="arrowRight" transform="rotate(90 3.5 39.5)"><use xlink:href="#rim"/><path fill="none" stroke="#fff" stroke-width="1.5" d="M0-3v7M-2.5-.5 0-3 2.5-.5" pointer-events="none"/></g><g id="arrowDown" transform="matrix(-1 0 0 -1 30 48)"><use xlink:href="#rim"/><path fill="none" stroke="#fff" stroke-width="1.5" d="M0-3v7M-2.5-.5 0-3 2.5-.5" pointer-events="none"/></g><g id="arrowLeft" transform="rotate(-90 26.5 9.5)"><use xlink:href="#rim"/><path fill="none" stroke="#fff" stroke-width="1.5" d="M0-3v7M-2.5-.5 0-3 2.5-.5" pointer-events="none"/></g><circle id="rim" cx="0" cy="0" r="7"/><circle id="rim2" cx="0" cy="0" r="3.5"/><use xlink:href="#rim2" id="resetDef" fill="#404040"><set attributeName="fill" begin="reset.mouseover" end="reset.mouseout" to="#808080"/></use></defs><script type="application/ecmascript">var viewWidth = 1021;
var viewHeight = 376;
var sectionId = &apos;dynsection-0&apos;;</script><script xlink:href="../../svg.min.js" type="application/ecmascript"/><svg id="graph" class="graph"><g id="viewport"><title>Element/Utility/T2DC.cpp</title><g id="Node000001" class="node"><title>Node1</title><a id="a_Node000001">
<path fill="#999" stroke="#666" d="M355.53-368h-179v20h179z"/>
<text x="266.03" y="-355.2" font-family="Consolas" font-size="11" text-anchor="middle">Element/Utility/T2DC.cpp</text>
</a></g><g id="Node000002" class="node"><title>Node2</title><a xlink:href="../../d3/d6a/_t2_d_c_8h.html" id="a_Node000002" target="_top">
<path fill="#fff" stroke="#666" d="M294.53-312h-57v20h57z"/>
<text x="266.03" y="-299.2" font-family="Consolas" font-size="11" text-anchor="middle">T2DC.h</text>
</a></g><g id="edge1_Node000001_Node000002" class="edge"><title>Node1-&gt;Node2</title><a id="a_edge1_Node000001_Node000002">
<path fill="none" stroke="#63b8ff" d="M266.03-347.59v25.02"/>
<path fill="#63b8ff" stroke="#63b8ff" d="m269.53-322.3-3.5 10-3.5-10z"/>
</a></g><g id="Node000013" class="node"><title>Node13</title><a xlink:href="../../d0/db8/_element_8h.html" id="a_Node000013" target="_top">
<path fill="#fff" stroke="#666" d="M625.53-312h-131v20h131z"/>
<text x="560.03" y="-299.2" font-family="Consolas" font-size="11" text-anchor="middle">Element/Element.h</text>
</a></g><g id="edge12_Node000001_Node000013" class="edge"><title>Node1-&gt;Node13</title><a id="a_edge12_Node000001_Node000013">
<path fill="none" stroke="#63b8ff" d="M315.24-347.96c51.09 9.38 131.03 24.06 185.55 34.08"/>
<path fill="#63b8ff" stroke="#63b8ff" d="m501.46-317.32 9.21 5.25-10.47 1.64z"/>
</a></g><g id="Node000021" class="node"><title>Node21</title><a xlink:href="../../d2/d3d/tensor_8h.html" id="a_Node000021" target="_top">
<path fill="#fff" stroke="#666" d="M191.53-312h-125v20h125z"/>
<text x="129.03" y="-299.2" font-family="Consolas" font-size="11" text-anchor="middle">Toolbox/tensor.h</text>
</a></g><g id="edge24_Node000001_Node000021" class="edge"><title>Node1-&gt;Node21</title><a id="a_edge24_Node000001_Node000021">
<path fill="none" stroke="#63b8ff" d="M243.1-347.96c-22.32 8.8-56.47 22.26-81.58 32.16"/>
<path fill="#63b8ff" stroke="#63b8ff" d="m162.63-312.48-10.59.41 8.02-6.92z"/>
</a></g><g id="Node000003" class="node"><title>Node3</title><a xlink:href="../../df/d1c/_t2_d_l_8h.html" id="a_Node000003" target="_top">
<path fill="#fff" stroke="#666" d="M348.53-256h-165v20h165z"/>
<text x="266.03" y="-243.2" font-family="Consolas" font-size="11" text-anchor="middle">Element/Utility/T2DL.h</text>
</a></g><g id="edge2_Node000002_Node000003" class="edge"><title>Node2-&gt;Node3</title><a id="a_edge2_Node000002_Node000003">
<path fill="none" stroke="#63b8ff" d="M266.03-291.59v25.02"/>
<path fill="#63b8ff" stroke="#63b8ff" d="m269.53-266.3-3.5 10-3.5-10z"/>
</a></g><g id="Node000004" class="node"><title>Node4</title><a xlink:href="../../dc/db8/_orientation_8h.html" id="a_Node000004" target="_top">
<path fill="#fff" stroke="#666" d="M372.03-194h-212v20h212z"/>
<text x="266.03" y="-181.2" font-family="Consolas" font-size="11" text-anchor="middle">Element/Utility/Orientation.h</text>
</a></g><g id="edge3_Node000003_Node000004" class="edge"><title>Node3-&gt;Node4</title><a id="a_edge3_Node000003_Node000004">
<path fill="none" stroke="#63b8ff" d="M266.03-235.89v31.66"/>
<path fill="#63b8ff" stroke="#63b8ff" d="m269.53-204.2-3.5 10-3.5-10z"/>
</a></g><g id="Node000005" class="node"><title>Node5</title><a xlink:href="../../d2/d4a/_tag_8h.html" id="a_Node000005" target="_top">
<path fill="#fff" stroke="#666" d="M449.03-132h-98v20h98z"/>
<text x="400.03" y="-119.2" font-family="Consolas" font-size="11" text-anchor="middle">Domain/Tag.h</text>
</a></g><g id="edge4_Node000004_Node000005" class="edge"><title>Node4-&gt;Node5</title><a id="a_edge4_Node000004_Node000005">
<path fill="none" stroke="#63b8ff" d="M286.39-173.89c22.46 10.06 58.81 26.34 84.34 37.77"/>
<path fill="#63b8ff" stroke="#63b8ff" d="m372.23-139.28 7.7 7.28-10.56-.89z"/>
</a></g><g id="Node000006" class="node"><title>Node6</title><a xlink:href="../../d8/d8f/suan_pan_8h.html" id="a_Node000006" target="_top">
<path fill="#fff" stroke="#666" d="M509.53-76h-77v20h77z"/>
<text x="471.03" y="-63.2" font-family="Consolas" font-size="11" text-anchor="middle">suanPan.h</text>
</a></g><g id="edge5_Node000005_Node000006" class="edge"><title>Node5-&gt;Node6</title><a id="a_edge5_Node000005_Node000006">
<path fill="none" stroke="#63b8ff" d="M412.08-111.84c10.67 8.12 26.46 20.13 39.02 29.68"/>
<path fill="#63b8ff" stroke="#63b8ff" d="m453.33-84.86 5.84 8.83-10.08-3.26z"/>
</a></g><g id="Node000007" class="node"><title>Node7</title><a id="a_Node000007">
<path fill="#e0e0e0" stroke="#999" d="M228.53-20h-71V0h71z"/>
<text x="193.03" y="-7.2" font-family="Consolas" font-size="11" text-anchor="middle">iostream</text>
</a></g><g id="edge6_Node000006_Node000007" class="edge"><title>Node6-&gt;Node7</title><a id="a_edge6_Node000006_Node000007">
<path fill="none" stroke="#63b8ff" d="M432.5-57.73c-44.41 8.4-119.85 22.78-193.96 37.45"/>
<path fill="#63b8ff" stroke="#63b8ff" d="m239.06-16.82-10.49-1.49 9.13-5.37z"/>
</a></g><g id="Node000008" class="node"><title>Node8</title><a id="a_Node000008">
<path fill="#e0e0e0" stroke="#999" d="M357.53-20h-111V0h111z"/>
<text x="302.03" y="-7.2" font-family="Consolas" font-size="11" text-anchor="middle">armadillo/arma</text>
</a></g><g id="edge7_Node000006_Node000008" class="edge"><title>Node6-&gt;Node8</title><a id="a_edge7_Node000006_Node000008">
<path fill="none" stroke="#63b8ff" d="M442.75-55.96c-28.15 8.99-71.53 22.85-102.69 32.81"/>
<path fill="#63b8ff" stroke="#63b8ff" d="m341-19.78-10.59-.29 8.46-6.38z"/>
</a></g><g id="Node000009" class="node"><title>Node9</title><a id="a_Node000009">
<path fill="#e0e0e0" stroke="#999" d="M460.03-20h-84V0h84z"/>
<text x="418.03" y="-7.2" font-family="Consolas" font-size="11" text-anchor="middle">filesystem</text>
</a></g><g id="edge8_Node000006_Node000009" class="edge"><title>Node6-&gt;Node9</title><a id="a_edge8_Node000006_Node000009">
<path fill="none" stroke="#63b8ff" d="M461.8-55.59c-7.6 7.74-18.55 18.9-27.6 28.12"/>
<path fill="#63b8ff" stroke="#63b8ff" d="m436.66-24.98-9.5 4.68 4.51-9.59z"/>
</a></g><g id="Node000010" class="node"><title>Node10</title><a id="a_Node000010">
<path fill="#e0e0e0" stroke="#999" d="M569.53-20h-91V0h91z"/>
<text x="524.03" y="-7.2" font-family="Consolas" font-size="11" text-anchor="middle">fmt/color.h</text>
</a></g><g id="edge9_Node000006_Node000010" class="edge"><title>Node6-&gt;Node10</title><a id="a_edge9_Node000006_Node000010">
<path fill="none" stroke="#63b8ff" d="M480.27-55.59c7.6 7.74 18.55 18.9 27.6 28.12"/>
<path fill="#63b8ff" stroke="#63b8ff" d="m510.4-29.89 4.51 9.59-9.5-4.68z"/>
</a></g><g id="Node000011" class="node"><title>Node11</title><a id="a_Node000011">
<path fill="#e0e0e0" stroke="#999" d="M638.03-20h-50V0h50z"/>
<text x="613.03" y="-7.2" font-family="Consolas" font-size="11" text-anchor="middle">mutex</text>
</a></g><g id="edge10_Node000006_Node000011" class="edge"><title>Node6-&gt;Node11</title><a id="a_edge10_Node000006_Node000011">
<path fill="none" stroke="#63b8ff" d="M494.8-55.96c23.25 8.84 58.85 22.38 84.91 32.29"/>
<path fill="#63b8ff" stroke="#63b8ff" d="m581.09-26.89 8.1 6.82-10.59-.28z"/>
</a></g><g id="Node000012" class="node"><title>Node12</title><a id="a_Node000012">
<path fill="#e0e0e0" stroke="#999" d="M713.53-20h-57V0h57z"/>
<text x="685.03" y="-7.2" font-family="Consolas" font-size="11" text-anchor="middle">memory</text>
</a></g><g id="edge11_Node000006_Node000012" class="edge"><title>Node6-&gt;Node12</title><a id="a_edge11_Node000006_Node000012">
<path fill="none" stroke="#63b8ff" d="M506.85-55.96c38.64 9.75 99.94 25.22 139.62 35.23"/>
<path fill="#63b8ff" stroke="#63b8ff" d="m647.47-24.09 8.84 5.84-10.55.95z"/>
</a></g><g id="Node000014" class="node"><title>Node14</title><a xlink:href="../../d1/d48/_distributed_8h.html" id="a_Node000014" target="_top">
<path fill="#fff" stroke="#666" d="M1013.03-132h-158v20h158z"/>
<text x="934.03" y="-119.2" font-family="Consolas" font-size="11" text-anchor="middle">Element/Distributed.h</text>
</a></g><g id="edge13_Node000013_Node000014" class="edge"><title>Node13-&gt;Node14</title><a id="a_edge13_Node000013_Node000014">
<path fill="none" stroke="#63b8ff" d="M625.63-292.48c96.03 13.95 267.59 44.94 305.4 92.48 12.85 16.15 11.31 40.78 8.05 57.82"/>
<path fill="#63b8ff" stroke="#63b8ff" d="m942.45-141.22-5.62 8.97-1.2-10.52z"/>
</a></g><g id="Node000015" class="node"><title>Node15</title><a xlink:href="../../d9/d82/_element_base_8h.html" id="a_Node000015" target="_top">
<path fill="#fff" stroke="#666" d="M639.03-256h-158v20h158z"/>
<text x="560.03" y="-243.2" font-family="Consolas" font-size="11" text-anchor="middle">Element/ElementBase.h</text>
</a></g><g id="edge15_Node000013_Node000015" class="edge"><title>Node13-&gt;Node15</title><a id="a_edge15_Node000013_Node000015">
<path fill="none" stroke="#63b8ff" d="M560.03-291.59v25.02"/>
<path fill="#63b8ff" stroke="#63b8ff" d="m563.53-266.3-3.5 10-3.5-10z"/>
</a></g><g id="edge14_Node000014_Node000006" class="edge"><title>Node14-&gt;Node6</title><a id="a_edge14_Node000014_Node000006">
<path fill="none" stroke="#63b8ff" d="M856.8-111.99 520.14-72.73"/>
<path fill="#63b8ff" stroke="#63b8ff" d="m520.14-69.2-10.34-2.32 9.53-4.64z"/>
</a></g><g id="edge18_Node000015_Node000005" class="edge"><title>Node15-&gt;Node5</title><a id="a_edge18_Node000015_Node000005">
<path fill="none" stroke="#63b8ff" d="M485.59-235.95c-24.16 6.43-49.18 17.37-66.56 35.95-14.58 15.59-18.46 40.54-19.26 57.79"/>
<path fill="#63b8ff" stroke="#63b8ff" d="m403.26-142.1-3.65 9.94-3.34-10.05z"/>
</a></g><g id="Node000016" class="node"><title>Node16</title><a xlink:href="../../d1/d02/_node_8h.html" id="a_Node000016" target="_top">
<path fill="#fff" stroke="#666" d="M532.03-194h-104v20h104z"/>
<text x="480.03" y="-181.2" font-family="Consolas" font-size="11" text-anchor="middle">Domain/Node.h</text>
</a></g><g id="edge16_Node000015_Node000016" class="edge"><title>Node15-&gt;Node16</title><a id="a_edge16_Node000015_Node000016">
<path fill="none" stroke="#63b8ff" d="M547.88-235.89c-12.64 9.48-32.65 24.49-47.67 35.76"/>
<path fill="#63b8ff" stroke="#63b8ff" d="m502.14-197.2-10.1 3.2 5.9-8.8z"/>
</a></g><g id="Node000017" class="node"><title>Node17</title><a xlink:href="../../d6/d94/_mapping_d_o_f_8h.html" id="a_Node000017" target="_top">
<path fill="#fff" stroke="#666" d="M619.03-132h-152v20h152z"/>
<text x="543.03" y="-119.2" font-family="Consolas" font-size="11" text-anchor="middle">Element/MappingDOF.h</text>
</a></g><g id="edge19_Node000015_Node000017" class="edge"><title>Node15-&gt;Node17</title><a id="a_edge19_Node000015_Node000017">
<path fill="none" stroke="#63b8ff" d="M558.76-235.83c-2.76 19.78-9.32 66.83-13.03 93.51"/>
<path fill="#63b8ff" stroke="#63b8ff" d="m549.17-141.7-4.84 9.42-2.09-10.38z"/>
</a></g><g id="Node000018" class="node"><title>Node18</title><a xlink:href="../../d9/dc0/vtk_base_8h.html" id="a_Node000018" target="_top">
<path fill="#fff" stroke="#666" d="M922.03-200h-158v32h158z"/>
<text x="772.03" y="-187.2" font-family="Consolas" font-size="11">Element/Visualisation</text>
<text x="843.03" y="-175.2" font-family="Consolas" font-size="11" text-anchor="middle">/vtkBase.h</text>
</a></g><g id="edge21_Node000015_Node000018" class="edge"><title>Node15-&gt;Node18</title><a id="a_edge21_Node000015_Node000018">
<path fill="none" stroke="#63b8ff" d="M602.71-235.95c42.14 8.93 107.64 22.82 159.62 33.84"/>
<path fill="#63b8ff" stroke="#63b8ff" d="m763.14-205.52 9.06 5.5-10.51 1.35z"/>
</a></g><g id="Node000019" class="node"><title>Node19</title><a xlink:href="../../d4/d0f/_output_type_8h.html" id="a_Node000019" target="_top">
<path fill="#fff" stroke="#666" d="M746.03-194h-158v20h158z"/>
<text x="667.03" y="-181.2" font-family="Consolas" font-size="11" text-anchor="middle">Recorder/OutputType.h</text>
</a></g><g id="edge22_Node000015_Node000019" class="edge"><title>Node15-&gt;Node19</title><a id="a_edge22_Node000015_Node000019">
<path fill="none" stroke="#63b8ff" d="M576.29-235.89c17.46 9.79 45.43 25.48 65.71 36.85"/>
<path fill="#63b8ff" stroke="#63b8ff" d="m643.97-201.95 7.01 7.95-10.43-1.84z"/>
</a></g><g id="edge17_Node000016_Node000005" class="edge"><title>Node16-&gt;Node5</title><a id="a_edge17_Node000016_Node000005">
<path fill="none" stroke="#63b8ff" d="M467.88-173.89c-12.64 9.48-32.65 24.49-47.67 35.76"/>
<path fill="#63b8ff" stroke="#63b8ff" d="m422.14-135.2-10.1 3.2 5.9-8.8z"/>
</a></g><g id="edge20_Node000017_Node000006" class="edge"><title>Node17-&gt;Node6</title><a id="a_edge20_Node000017_Node000006">
<path fill="none" stroke="#63b8ff" d="M530.82-111.84c-10.82 8.12-26.84 20.13-39.57 29.68"/>
<path fill="#63b8ff" stroke="#63b8ff" d="m493.17-79.23-10.1 3.2 5.9-8.8z"/>
</a></g><g id="Node000020" class="node"><title>Node20</title><a id="a_Node000020">
<path fill="#e0e0e0" stroke="#999" d="M822.53-132h-185v20h185z"/>
<text x="730.03" y="-119.2" font-family="Consolas" font-size="11" text-anchor="middle">magic_enum/magic_enum.hpp</text>
</a></g><g id="edge23_Node000019_Node000020" class="edge"><title>Node19-&gt;Node20</title><a id="a_edge23_Node000019_Node000020">
<path fill="none" stroke="#63b8ff" d="M676.6-173.89c9.62 9.17 24.66 23.49 36.34 34.61"/>
<path fill="#63b8ff" stroke="#63b8ff" d="m715.55-141.63 4.83 9.43-9.66-4.36z"/>
</a></g><g id="Node000022" class="node"><title>Node22</title><a xlink:href="../../d5/d47/utility_8h.html" id="a_Node000022" target="_top">
<path fill="#fff" stroke="#666" d="M141.53-256h-131v20h131z"/>
<text x="76.03" y="-243.2" font-family="Consolas" font-size="11" text-anchor="middle">Toolbox/utility.h</text>
</a></g><g id="edge25_Node000021_Node000022" class="edge"><title>Node21-&gt;Node22</title><a id="a_edge25_Node000021_Node000022">
<path fill="none" stroke="#63b8ff" d="M119.8-291.59c-7.6 7.74-18.55 18.9-27.6 28.12"/>
<path fill="#63b8ff" stroke="#63b8ff" d="m94.66-260.98-9.5 4.68 4.51-9.59z"/>
</a></g><g id="edge28_Node000022_Node000006" class="edge"><title>Node22-&gt;Node6</title><a id="a_edge28_Node000022_Node000006">
<path fill="none" stroke="#63b8ff" d="M50.52-235.97c-15.9 7.1-35.07 18.72-44.49 35.97-6.81 12.48-8.92 20.93 0 32 51.99 64.49 307.86 89.92 416.29 97.91"/>
<path fill="#63b8ff" stroke="#63b8ff" d="m422.62-73.58 9.73 4.21-10.23 2.78z"/>
</a></g><g id="Node000023" class="node"><title>Node23</title><a id="a_Node000023">
<path fill="#e0e0e0" stroke="#999" d="M86.53-194h-71v20h71z"/>
<text x="51.03" y="-181.2" font-family="Consolas" font-size="11" text-anchor="middle">concepts</text>
</a></g><g id="edge26_Node000022_Node000023" class="edge"><title>Node22-&gt;Node23</title><a id="a_edge26_Node000022_Node000023">
<path fill="none" stroke="#63b8ff" d="M72.24-235.89c-3.56 8.55-8.99 21.58-13.47 32.32"/>
<path fill="#63b8ff" stroke="#63b8ff" d="m61.94-202.08-7.07 7.88.61-10.58z"/>
</a></g><g id="Node000024" class="node"><title>Node24</title><a id="a_Node000024">
<path fill="#e0e0e0" stroke="#999" d="M141.53-194h-37v20h37z"/>
<text x="123.03" y="-181.2" font-family="Consolas" font-size="11" text-anchor="middle">set</text>
</a></g><g id="edge27_Node000022_Node000024" class="edge"><title>Node22-&gt;Node24</title><a id="a_edge27_Node000022_Node000024">
<path fill="none" stroke="#63b8ff" d="M83.17-235.89c6.97 8.9 17.76 22.67 26.35 33.64"/>
<path fill="#63b8ff" stroke="#63b8ff" d="m112.42-204.23 3.41 10.03-8.92-5.71z"/>
</a></g></g></svg><g id="navigator" fill="#404254"><path fill="#f2f5e9" fill-opacity=".5" stroke="#606060" stroke-width=".5" d="M0 0h60v60H0z"/><use xlink:href="#zoomPlus" id="zoomplus" x="17" y="9" onmousedown="handleZoom(evt,'in')"/><use xlink:href="#zoomMin" id="zoomminus" x="42" y="9" onmousedown="handleZoom(evt,'out')"/><use xlink:href="#resetDef" id="reset" x="30" y="36" onmousedown="handleReset()"/><use xlink:href="#arrowUp" id="arrowup" x="0" y="0" onmousedown="handlePan(0,-1)"/><use xlink:href="#arrowRight" id="arrowright" x="0" y="0" onmousedown="handlePan(1,0)"/><use xlink:href="#arrowDown" id="arrowdown" x="0" y="0" onmousedown="handlePan(0,1)"/><use xlink:href="#arrowLeft" id="arrowleft" x="0" y="0" onmousedown="handlePan(-1,0)"/></g><svg height="30" preserveAspectRatio="xMaxYMin meet" viewBox="0 0 15 15"><a xlink:href="_t2_d_c_8cpp__incl_org.svg" id="arrow_out" target="_base" transform="scale(.3)">
   <rect id="button" width="38" height="38" x="6" y="6" fill="#f2f5e9" fill-opacity=".5" stroke="#606060" stroke-width="1" rx="5" ry="5"/>
   <path id="arrow" d="M11.5 31.437c.44-11.34 10.543-20.114 20.659-9.458l4.91-4.733.02 14.754-14.929-.022 4.838-4.838c-8.47-8.876-13.706-1.91-15.498 4.297" style="fill:#404040"/>
  </a></svg><script type="application/ecmascript"><![CDATA[
document.addEventListener('DOMContentLoaded', (event) => {
  highlightEdges();
  highlightAdjacentNodes();
});
]]></script></svg>