<?xml version="1.0" encoding="UTF-8" standalone="no"?>
<!DOCTYPE svg PUBLIC "-//W3C//DTD SVG 1.1//EN"
 "http://www.w3.org/Graphics/SVG/1.1/DTD/svg11.dtd">
<!-- Generated by graphviz version 2.43.0 (0)
 -->
<!-- Title: sort_color_mis Pages: 1 -->
<svg width="359pt" height="29pt"
 viewBox="0.00 0.00 359.00 29.00" xmlns="http://www.w3.org/2000/svg" xmlns:xlink="http://www.w3.org/1999/xlink">
<g id="graph0" class="graph" transform="scale(1 1) rotate(0) translate(4 25)">
<title>sort_color_mis</title>
<polygon fill="white" stroke="transparent" points="-4,4 -4,-25 355,-25 355,4 -4,4"/>
<!-- Node1 -->
<g id="node1" class="node">
<title>Node1</title>
<g id="a_node1"><a xlink:title=" ">
<polygon fill="#bfbfbf" stroke="black" points="0,-0.5 0,-20.5 111,-20.5 111,-0.5 0,-0.5"/>
<text text-anchor="middle" x="55.5" y="-7.7" font-family="Consolas" font-size="11.00">sort_color_mis</text>
</a>
</g>
</g>
<!-- Node2 -->
<g id="node2" class="node">
<title>Node2</title>
<g id="a_node2"><a xlink:href="../../d6/d9c/namespacesuanpan.html#adef8082401dbf9d86ce230ad2b9b618d" target="_top" xlink:title=" ">
<polygon fill="white" stroke="black" points="147,-0.5 147,-20.5 278,-20.5 278,-0.5 147,-0.5"/>
<text text-anchor="middle" x="212.5" y="-7.7" font-family="Consolas" font-size="11.00">suanpan::for_each</text>
</a>
</g>
</g>
<!-- Node1&#45;&gt;Node2 -->
<g id="edge1" class="edge">
<title>Node1&#45;&gt;Node2</title>
<path fill="none" stroke="midnightblue" d="M111.15,-10.5C119.48,-10.5 128.2,-10.5 136.87,-10.5"/>
<polygon fill="midnightblue" stroke="midnightblue" points="137,-14 147,-10.5 137,-7 137,-14"/>
</g>
<!-- Node3 -->
<g id="node3" class="node">
<title>Node3</title>
<g id="a_node3"><a xlink:href="../../d4/d48/_storage_8hpp.html#a45bf90d3e5b89fc6c46f15cc58c1c60c" target="_top" xlink:title=" ">
<polygon fill="white" stroke="black" points="314,-0.5 314,-20.5 351,-20.5 351,-0.5 314,-0.5"/>
<text text-anchor="middle" x="332.5" y="-7.7" font-family="Consolas" font-size="11.00">end</text>
</a>
</g>
</g>
<!-- Node2&#45;&gt;Node3 -->
<g id="edge2" class="edge">
<title>Node2&#45;&gt;Node3</title>
<path fill="none" stroke="midnightblue" d="M278.02,-10.5C286.95,-10.5 295.7,-10.5 303.46,-10.5"/>
<polygon fill="midnightblue" stroke="midnightblue" points="303.67,-14 313.67,-10.5 303.67,-7 303.67,-14"/>
</g>
</g>
</svg>
