<?xml version="1.0" encoding="UTF-8" standalone="no"?>
<!DOCTYPE svg PUBLIC "-//W3C//DTD SVG 1.1//EN"
 "http://www.w3.org/Graphics/SVG/1.1/DTD/svg11.dtd">
<!-- Generated by graphviz version 2.43.0 (0)
 -->
<!-- Title: Solver/Integrator/Implicit/LeeNewmark/LeeNewmarkFull.cpp Pages: 1 -->
<!--zoomable 432 -->

<svg id="main" version="1.1" xmlns="http://www.w3.org/2000/svg" xmlns:xlink="http://www.w3.org/1999/xlink" xml:space="preserve" onload="init(evt)">
<style type="text/css"><![CDATA[
.node, .edge {opacity: 0.7;}
.node.selected, .edge.selected {opacity: 1;}
.edge:hover path { stroke: red; }
.edge:hover polygon { stroke: red; fill: red; }
]]></style>

<defs>
  <circle id="rim" cx="0" cy="0" r="7"/>
  <circle id="rim2" cx="0" cy="0" r="3.5"/>
  <g id="zoomPlus">
    <use xlink:href="#rim" fill="#404040"><set attributeName="fill" to="#808080" begin="zoomplus.mouseover" end="zoomplus.mouseout"/></use>
    <path d="M-4,0h8M0,-4v8" fill="none" stroke="white" stroke-width="1.5" pointer-events="none"/>
  </g>
  <g id="zoomMin">
    <use xlink:href="#rim" fill="#404040"><set attributeName="fill" to="#808080" begin="zoomminus.mouseover" end="zoomminus.mouseout"/></use>
    <path d="M-4,0h8" fill="none" stroke="white" stroke-width="1.5" pointer-events="none"/>
  </g>
  <g id="arrowUp" transform="translate(30 24)">
    <use xlink:href="#rim"/>
    <path pointer-events="none" fill="none" stroke="white" stroke-width="1.5" d="M0,-3.0v7 M-2.5,-0.5L0,-3.0L2.5,-0.5"/>
  </g>
  <g id="arrowRight" transform="rotate(90) translate(36 -43)">
    <use xlink:href="#rim"/>
    <path pointer-events="none" fill="none" stroke="white" stroke-width="1.5" d="M0,-3.0v7 M-2.5,-0.5L0,-3.0L2.5,-0.5"/>
  </g>
  <g id="arrowDown" transform="rotate(180) translate(-30 -48)">
    <use xlink:href="#rim"/>
    <path pointer-events="none" fill="none" stroke="white" stroke-width="1.5" d="M0,-3.0v7 M-2.5,-0.5L0,-3.0L2.5,-0.5"/>
  </g>
  <g id="arrowLeft" transform="rotate(270) translate(-36 17)">
    <use xlink:href="#rim"/>
    <path pointer-events="none" fill="none" stroke="white" stroke-width="1.5" d="M0,-3.0v7 M-2.5,-0.5L0,-3.0L2.5,-0.5"/>
  </g>
  <g id="resetDef">
    <use xlink:href="#rim2" fill="#404040"><set attributeName="fill" to="#808080" begin="reset.mouseover" end="reset.mouseout"/></use>
  </g>
</defs>
<script type="application/ecmascript">
var viewWidth = 1049;
var viewHeight = 432;
var sectionId = 'dynsection-0';
</script>
<script type="application/ecmascript" xlink:href="../../svg.min.js"/>
<svg id="graph" class="graph">
<g id="viewport">
<title>Solver/Integrator/Implicit/LeeNewmark/LeeNewmarkFull.cpp</title>
<!-- Node1 -->
<g id="Node000001" class="node">
<title>Node1</title>
<g id="a_Node000001"><a xlink:title=" ">
<polygon fill="#999999" stroke="#666666" points="603,-424 384,-424 384,-392 603,-392 603,-424"/>
<text text-anchor="start" x="392" y="-411.2" font-family="Consolas" font-size="11.00">Solver/Integrator/Implicit</text>
<text text-anchor="middle" x="493.5" y="-399.2" font-family="Consolas" font-size="11.00">/LeeNewmark/LeeNewmarkFull.cpp</text>
</a>
</g>
</g>
<!-- Node2 -->
<g id="Node000002" class="node">
<title>Node2</title>
<g id="a_Node000002"><a xlink:href="../../d7/da9/_lee_newmark_full_8h.html" target="_top" xlink:title=" ">
<polygon fill="white" stroke="#666666" points="465,-356 340,-356 340,-336 465,-336 465,-356"/>
<text text-anchor="middle" x="402.5" y="-343.2" font-family="Consolas" font-size="11.00">LeeNewmarkFull.h</text>
</a>
</g>
</g>
<!-- Node1&#45;&gt;Node2 -->
<g id="edge1_Node000001_Node000002" class="edge">
<title>Node1&#45;&gt;Node2</title>
<g id="a_edge1_Node000001_Node000002"><a xlink:title=" ">
<path fill="none" stroke="#63b8ff" d="M470.54,-391.86C456.54,-382.63 438.74,-370.9 424.86,-361.74"/>
<polygon fill="#63b8ff" stroke="#63b8ff" points="426.66,-358.74 416.38,-356.15 422.8,-364.58 426.66,-358.74"/>
</a>
</g>
</g>
<!-- Node15 -->
<g id="Node000015" class="node">
<title>Node15</title>
<g id="a_Node000015"><a xlink:href="../../db/d65/_factory_8hpp.html" target="_top" xlink:title=" ">
<polygon fill="white" stroke="#666666" points="722.5,-244 584.5,-244 584.5,-224 722.5,-224 722.5,-244"/>
<text text-anchor="middle" x="653.5" y="-231.2" font-family="Consolas" font-size="11.00">Domain/Factory.hpp</text>
</a>
</g>
</g>
<!-- Node1&#45;&gt;Node15 -->
<g id="edge37_Node000001_Node000015" class="edge">
<title>Node1&#45;&gt;Node15</title>
<g id="a_edge37_Node000001_Node000015"><a xlink:title=" ">
<path fill="none" stroke="#63b8ff" d="M507.7,-391.74C537.59,-359.6 606.82,-285.18 637.9,-251.77"/>
<polygon fill="#63b8ff" stroke="#63b8ff" points="640.68,-253.92 644.93,-244.21 635.56,-249.15 640.68,-253.92"/>
</a>
</g>
</g>
<!-- Node30 -->
<g id="Node000030" class="node">
<title>Node30</title>
<g id="a_Node000030"><a xlink:href="../../dc/df2/_domain_base_8h.html" target="_top" xlink:title=" ">
<polygon fill="white" stroke="#666666" points="566,-244 421,-244 421,-224 566,-224 566,-244"/>
<text text-anchor="middle" x="493.5" y="-231.2" font-family="Consolas" font-size="11.00">Domain/DomainBase.h</text>
</a>
</g>
</g>
<!-- Node1&#45;&gt;Node30 -->
<g id="edge33_Node000001_Node000030" class="edge">
<title>Node1&#45;&gt;Node30</title>
<g id="a_edge33_Node000001_Node000030"><a xlink:title=" ">
<path fill="none" stroke="#63b8ff" d="M493.5,-391.74C493.5,-360.42 493.5,-288.94 493.5,-254.4"/>
<polygon fill="#63b8ff" stroke="#63b8ff" points="497,-254.21 493.5,-244.21 490,-254.21 497,-254.21"/>
</a>
</g>
</g>
<!-- Node3 -->
<g id="Node000003" class="node">
<title>Node3</title>
<g id="a_Node000003"><a xlink:href="../../d9/d29/_lee_newmark_base_8h.html" target="_top" xlink:title=" ">
<polygon fill="white" stroke="#666666" points="441,-300 316,-300 316,-280 441,-280 441,-300"/>
<text text-anchor="middle" x="378.5" y="-287.2" font-family="Consolas" font-size="11.00">LeeNewmarkBase.h</text>
</a>
</g>
</g>
<!-- Node2&#45;&gt;Node3 -->
<g id="edge2_Node000002_Node000003" class="edge">
<title>Node2&#45;&gt;Node3</title>
<g id="a_edge2_Node000002_Node000003"><a xlink:title=" ">
<path fill="none" stroke="#63b8ff" d="M398.32,-335.59C395.15,-328.47 390.7,-318.45 386.82,-309.72"/>
<polygon fill="#63b8ff" stroke="#63b8ff" points="389.89,-308.01 382.63,-300.3 383.5,-310.86 389.89,-308.01"/>
</a>
</g>
</g>
<!-- Node4 -->
<g id="Node000004" class="node">
<title>Node4</title>
<g id="a_Node000004"><a xlink:href="../../d6/d7d/_newmark_8h.html" target="_top" xlink:title=" ">
<polygon fill="white" stroke="#666666" points="402.5,-244 304.5,-244 304.5,-224 402.5,-224 402.5,-244"/>
<text text-anchor="middle" x="353.5" y="-231.2" font-family="Consolas" font-size="11.00">../Newmark.h</text>
</a>
</g>
</g>
<!-- Node3&#45;&gt;Node4 -->
<g id="edge3_Node000003_Node000004" class="edge">
<title>Node3&#45;&gt;Node4</title>
<g id="a_edge3_Node000003_Node000004"><a xlink:title=" ">
<path fill="none" stroke="#63b8ff" d="M374.15,-279.59C370.81,-272.39 366.11,-262.23 362.03,-253.43"/>
<polygon fill="#63b8ff" stroke="#63b8ff" points="365.18,-251.9 357.8,-244.3 358.83,-254.84 365.18,-251.9"/>
</a>
</g>
</g>
<!-- Node3&#45;&gt;Node15 -->
<g id="edge14_Node000003_Node000015" class="edge">
<title>Node3&#45;&gt;Node15</title>
<g id="a_edge14_Node000003_Node000015"><a xlink:title=" ">
<path fill="none" stroke="#63b8ff" d="M424.53,-279.96C472.12,-270.62 546.47,-256.02 597.45,-246.01"/>
<polygon fill="#63b8ff" stroke="#63b8ff" points="598.18,-249.43 607.32,-244.07 596.83,-242.56 598.18,-249.43"/>
</a>
</g>
</g>
<!-- Node24 -->
<g id="Node000024" class="node">
<title>Node24</title>
<g id="a_Node000024"><a xlink:href="../../d3/d46/_meta_mat_8hpp.html" target="_top" xlink:title=" ">
<polygon fill="white" stroke="#666666" points="286.5,-244 94.5,-244 94.5,-224 286.5,-224 286.5,-244"/>
<text text-anchor="middle" x="190.5" y="-231.2" font-family="Consolas" font-size="11.00">Domain/MetaMat/MetaMat.hpp</text>
</a>
</g>
</g>
<!-- Node3&#45;&gt;Node24 -->
<g id="edge25_Node000003_Node000024" class="edge">
<title>Node3&#45;&gt;Node24</title>
<g id="a_edge25_Node000003_Node000024"><a xlink:title=" ">
<path fill="none" stroke="#63b8ff" d="M347.03,-279.96C315.45,-270.89 266.62,-256.86 231.91,-246.89"/>
<polygon fill="#63b8ff" stroke="#63b8ff" points="232.65,-243.46 222.07,-244.07 230.71,-250.19 232.65,-243.46"/>
</a>
</g>
</g>
<!-- Node5 -->
<g id="Node000005" class="node">
<title>Node5</title>
<g id="a_Node000005"><a xlink:href="../../dc/d50/_integrator_8h.html" target="_top" xlink:title=" ">
<polygon fill="white" stroke="#666666" points="410.5,-188 292.5,-188 292.5,-168 410.5,-168 410.5,-188"/>
<text text-anchor="middle" x="351.5" y="-175.2" font-family="Consolas" font-size="11.00">../Integrator.h</text>
</a>
</g>
</g>
<!-- Node4&#45;&gt;Node5 -->
<g id="edge4_Node000004_Node000005" class="edge">
<title>Node4&#45;&gt;Node5</title>
<g id="a_edge4_Node000004_Node000005"><a xlink:title=" ">
<path fill="none" stroke="#63b8ff" d="M353.15,-223.59C352.9,-216.7 352.54,-207.1 352.22,-198.57"/>
<polygon fill="#63b8ff" stroke="#63b8ff" points="355.71,-198.16 351.84,-188.3 348.72,-198.42 355.71,-198.16"/>
</a>
</g>
</g>
<!-- Node6 -->
<g id="Node000006" class="node">
<title>Node6</title>
<g id="a_Node000006"><a xlink:href="../../d2/d4a/_tag_8h.html" target="_top" xlink:title=" ">
<polygon fill="white" stroke="#666666" points="400.5,-132 302.5,-132 302.5,-112 400.5,-112 400.5,-132"/>
<text text-anchor="middle" x="351.5" y="-119.2" font-family="Consolas" font-size="11.00">Domain/Tag.h</text>
</a>
</g>
</g>
<!-- Node5&#45;&gt;Node6 -->
<g id="edge5_Node000005_Node000006" class="edge">
<title>Node5&#45;&gt;Node6</title>
<g id="a_edge5_Node000005_Node000006"><a xlink:title=" ">
<path fill="none" stroke="#63b8ff" d="M351.5,-167.59C351.5,-160.7 351.5,-151.1 351.5,-142.57"/>
<polygon fill="#63b8ff" stroke="#63b8ff" points="355,-142.3 351.5,-132.3 348,-142.3 355,-142.3"/>
</a>
</g>
</g>
<!-- Node7 -->
<g id="Node000007" class="node">
<title>Node7</title>
<g id="a_Node000007"><a xlink:href="../../d8/d8f/suan_pan_8h.html" target="_top" xlink:title=" ">
<polygon fill="white" stroke="#666666" points="606,-76 529,-76 529,-56 606,-56 606,-76"/>
<text text-anchor="middle" x="567.5" y="-63.2" font-family="Consolas" font-size="11.00">suanPan.h</text>
</a>
</g>
</g>
<!-- Node6&#45;&gt;Node7 -->
<g id="edge6_Node000006_Node000007" class="edge">
<title>Node6&#45;&gt;Node7</title>
<g id="a_edge6_Node000006_Node000007"><a xlink:title=" ">
<path fill="none" stroke="#63b8ff" d="M387.65,-111.96C424.41,-102.77 481.49,-88.5 521.46,-78.51"/>
<polygon fill="#63b8ff" stroke="#63b8ff" points="522.38,-81.89 531.23,-76.07 520.68,-75.1 522.38,-81.89"/>
</a>
</g>
</g>
<!-- Node8 -->
<g id="Node000008" class="node">
<title>Node8</title>
<g id="a_Node000008"><a xlink:title=" ">
<polygon fill="#e0e0e0" stroke="#999999" points="238,-20 167,-20 167,0 238,0 238,-20"/>
<text text-anchor="middle" x="202.5" y="-7.2" font-family="Consolas" font-size="11.00">iostream</text>
</a>
</g>
</g>
<!-- Node7&#45;&gt;Node8 -->
<g id="edge7_Node000007_Node000008" class="edge">
<title>Node7&#45;&gt;Node8</title>
<g id="a_edge7_Node000007_Node000008"><a xlink:title=" ">
<path fill="none" stroke="#63b8ff" d="M528.97,-60.31C470.57,-53.04 355.92,-38.16 248.38,-20.06"/>
<polygon fill="#63b8ff" stroke="#63b8ff" points="248.77,-16.58 238.33,-18.36 247.6,-23.48 248.77,-16.58"/>
</a>
</g>
</g>
<!-- Node9 -->
<g id="Node000009" class="node">
<title>Node9</title>
<g id="a_Node000009"><a xlink:title=" ">
<polygon fill="#e0e0e0" stroke="#999999" points="401,-20 256,-20 256,0 401,0 401,-20"/>
<text text-anchor="middle" x="328.5" y="-7.2" font-family="Consolas" font-size="11.00">armadillo/armadillo</text>
</a>
</g>
</g>
<!-- Node7&#45;&gt;Node9 -->
<g id="edge8_Node000007_Node000009" class="edge">
<title>Node7&#45;&gt;Node9</title>
<g id="a_edge8_Node000007_Node000009"><a xlink:title=" ">
<path fill="none" stroke="#63b8ff" d="M528.83,-56.26C487.93,-47.02 423.25,-32.41 378.5,-22.3"/>
<polygon fill="#63b8ff" stroke="#63b8ff" points="379.23,-18.87 368.71,-20.08 377.69,-25.7 379.23,-18.87"/>
</a>
</g>
</g>
<!-- Node10 -->
<g id="Node000010" class="node">
<title>Node10</title>
<g id="a_Node000010"><a xlink:title=" ">
<polygon fill="#e0e0e0" stroke="#999999" points="503.5,-20 419.5,-20 419.5,0 503.5,0 503.5,-20"/>
<text text-anchor="middle" x="461.5" y="-7.2" font-family="Consolas" font-size="11.00">filesystem</text>
</a>
</g>
</g>
<!-- Node7&#45;&gt;Node10 -->
<g id="edge9_Node000007_Node000010" class="edge">
<title>Node7&#45;&gt;Node10</title>
<g id="a_edge9_Node000007_Node000010"><a xlink:title=" ">
<path fill="none" stroke="#63b8ff" d="M549.52,-55.84C532.74,-47.29 507.49,-34.43 488.34,-24.67"/>
<polygon fill="#63b8ff" stroke="#63b8ff" points="489.72,-21.45 479.22,-20.03 486.54,-27.68 489.72,-21.45"/>
</a>
</g>
</g>
<!-- Node11 -->
<g id="Node000011" class="node">
<title>Node11</title>
<g id="a_Node000011"><a xlink:title=" ">
<polygon fill="#e0e0e0" stroke="#999999" points="613,-20 522,-20 522,0 613,0 613,-20"/>
<text text-anchor="middle" x="567.5" y="-7.2" font-family="Consolas" font-size="11.00">fmt/color.h</text>
</a>
</g>
</g>
<!-- Node7&#45;&gt;Node11 -->
<g id="edge10_Node000007_Node000011" class="edge">
<title>Node7&#45;&gt;Node11</title>
<g id="a_edge10_Node000007_Node000011"><a xlink:title=" ">
<path fill="none" stroke="#63b8ff" d="M567.5,-55.59C567.5,-48.7 567.5,-39.1 567.5,-30.57"/>
<polygon fill="#63b8ff" stroke="#63b8ff" points="571,-30.3 567.5,-20.3 564,-30.3 571,-30.3"/>
</a>
</g>
</g>
<!-- Node12 -->
<g id="Node000012" class="node">
<title>Node12</title>
<g id="a_Node000012"><a xlink:title=" ">
<polygon fill="#e0e0e0" stroke="#999999" points="681.5,-20 631.5,-20 631.5,0 681.5,0 681.5,-20"/>
<text text-anchor="middle" x="656.5" y="-7.2" font-family="Consolas" font-size="11.00">mutex</text>
</a>
</g>
</g>
<!-- Node7&#45;&gt;Node12 -->
<g id="edge11_Node000007_Node000012" class="edge">
<title>Node7&#45;&gt;Node12</title>
<g id="a_edge11_Node000007_Node000012"><a xlink:title=" ">
<path fill="none" stroke="#63b8ff" d="M582.6,-55.84C596.36,-47.49 616.92,-35.02 632.86,-25.34"/>
<polygon fill="#63b8ff" stroke="#63b8ff" points="634.89,-28.2 641.63,-20.03 631.26,-22.22 634.89,-28.2"/>
</a>
</g>
</g>
<!-- Node13 -->
<g id="Node000013" class="node">
<title>Node13</title>
<g id="a_Node000013"><a xlink:title=" ">
<polygon fill="#e0e0e0" stroke="#999999" points="783.5,-20 699.5,-20 699.5,0 783.5,0 783.5,-20"/>
<text text-anchor="middle" x="741.5" y="-7.2" font-family="Consolas" font-size="11.00">functional</text>
</a>
</g>
</g>
<!-- Node7&#45;&gt;Node13 -->
<g id="edge12_Node000007_Node000013" class="edge">
<title>Node7&#45;&gt;Node13</title>
<g id="a_edge12_Node000007_Node000013"><a xlink:title=" ">
<path fill="none" stroke="#63b8ff" d="M596.62,-55.96C625.61,-46.97 670.27,-33.11 702.35,-23.15"/>
<polygon fill="#63b8ff" stroke="#63b8ff" points="703.77,-26.37 712.28,-20.07 701.69,-19.69 703.77,-26.37"/>
</a>
</g>
</g>
<!-- Node14 -->
<g id="Node000014" class="node">
<title>Node14</title>
<g id="a_Node000014"><a xlink:title=" ">
<polygon fill="#e0e0e0" stroke="#999999" points="859,-20 802,-20 802,0 859,0 859,-20"/>
<text text-anchor="middle" x="830.5" y="-7.2" font-family="Consolas" font-size="11.00">memory</text>
</a>
</g>
</g>
<!-- Node7&#45;&gt;Node14 -->
<g id="edge13_Node000007_Node000014" class="edge">
<title>Node7&#45;&gt;Node14</title>
<g id="a_edge13_Node000007_Node000014"><a xlink:title=" ">
<path fill="none" stroke="#63b8ff" d="M606.21,-57.69C649.09,-49.49 720.53,-35.56 791.83,-20.08"/>
<polygon fill="#63b8ff" stroke="#63b8ff" points="792.87,-23.44 801.89,-17.89 791.37,-16.6 792.87,-23.44"/>
</a>
</g>
</g>
<!-- Node16 -->
<g id="Node000016" class="node">
<title>Node16</title>
<g id="a_Node000016"><a xlink:title=" ">
<polygon fill="#e0e0e0" stroke="#999999" points="1041,-188 876,-188 876,-168 1041,-168 1041,-188"/>
<text text-anchor="middle" x="958.5" y="-175.2" font-family="Consolas" font-size="11.00">Domain/MetaMat/MetaMat</text>
</a>
</g>
</g>
<!-- Node15&#45;&gt;Node16 -->
<g id="edge15_Node000015_Node000016" class="edge">
<title>Node15&#45;&gt;Node16</title>
<g id="a_edge15_Node000015_Node000016"><a xlink:title=" ">
<path fill="none" stroke="#63b8ff" d="M704.55,-223.96C757.74,-214.54 841.07,-199.79 897.65,-189.77"/>
<polygon fill="#63b8ff" stroke="#63b8ff" points="898.3,-193.21 907.54,-188.02 897.08,-186.32 898.3,-193.21"/>
</a>
</g>
</g>
<!-- Node17 -->
<g id="Node000017" class="node">
<title>Node17</title>
<g id="a_Node000017"><a xlink:href="../../d6/d94/_mapping_d_o_f_8h.html" target="_top" xlink:title=" ">
<polygon fill="white" stroke="#666666" points="857.5,-188 705.5,-188 705.5,-168 857.5,-168 857.5,-188"/>
<text text-anchor="middle" x="781.5" y="-175.2" font-family="Consolas" font-size="11.00">Element/MappingDOF.h</text>
</a>
</g>
</g>
<!-- Node15&#45;&gt;Node17 -->
<g id="edge16_Node000015_Node000017" class="edge">
<title>Node15&#45;&gt;Node17</title>
<g id="a_edge16_Node000015_Node000017"><a xlink:title=" ">
<path fill="none" stroke="#63b8ff" d="M674.92,-223.96C695.6,-215.24 727.12,-201.94 750.53,-192.07"/>
<polygon fill="#63b8ff" stroke="#63b8ff" points="752.15,-195.18 760.01,-188.07 749.43,-188.73 752.15,-195.18"/>
</a>
</g>
</g>
<!-- Node18 -->
<g id="Node000018" class="node">
<title>Node18</title>
<g id="a_Node000018"><a xlink:href="../../d4/ddd/container_8h.html" target="_top" xlink:title=" ">
<polygon fill="white" stroke="#666666" points="687,-188 542,-188 542,-168 687,-168 687,-188"/>
<text text-anchor="middle" x="614.5" y="-175.2" font-family="Consolas" font-size="11.00">Toolbox/container.h</text>
</a>
</g>
</g>
<!-- Node15&#45;&gt;Node18 -->
<g id="edge18_Node000015_Node000018" class="edge">
<title>Node15&#45;&gt;Node18</title>
<g id="a_edge18_Node000015_Node000018"><a xlink:title=" ">
<path fill="none" stroke="#63b8ff" d="M646.71,-223.59C641.34,-216.16 633.69,-205.58 627.2,-196.58"/>
<polygon fill="#63b8ff" stroke="#63b8ff" points="629.91,-194.36 621.22,-188.3 624.23,-198.45 629.91,-194.36"/>
</a>
</g>
</g>
<!-- Node23 -->
<g id="Node000023" class="node">
<title>Node23</title>
<g id="a_Node000023"><a xlink:title=" ">
<polygon fill="#e0e0e0" stroke="#999999" points="524,-188 467,-188 467,-168 524,-168 524,-188"/>
<text text-anchor="middle" x="495.5" y="-175.2" font-family="Consolas" font-size="11.00">future</text>
</a>
</g>
</g>
<!-- Node15&#45;&gt;Node23 -->
<g id="edge24_Node000015_Node000023" class="edge">
<title>Node15&#45;&gt;Node23</title>
<g id="a_edge24_Node000015_Node000023"><a xlink:title=" ">
<path fill="none" stroke="#63b8ff" d="M627.05,-223.96C600.96,-215.04 560.88,-201.34 531.81,-191.41"/>
<polygon fill="#63b8ff" stroke="#63b8ff" points="532.63,-187.99 522.03,-188.07 530.36,-194.61 532.63,-187.99"/>
</a>
</g>
</g>
<!-- Node17&#45;&gt;Node7 -->
<g id="edge17_Node000017_Node000007" class="edge">
<title>Node17&#45;&gt;Node7</title>
<g id="a_edge17_Node000017_Node000007"><a xlink:title=" ">
<path fill="none" stroke="#63b8ff" d="M784.74,-167.84C788.98,-154.07 794.44,-127.95 781.5,-112 761.12,-86.89 673.06,-75.27 616.45,-70.31"/>
<polygon fill="#63b8ff" stroke="#63b8ff" points="616.52,-66.8 606.27,-69.45 615.94,-73.78 616.52,-66.8"/>
</a>
</g>
</g>
<!-- Node18&#45;&gt;Node7 -->
<g id="edge19_Node000018_Node000007" class="edge">
<title>Node18&#45;&gt;Node7</title>
<g id="a_edge19_Node000018_Node000007"><a xlink:title=" ">
<path fill="none" stroke="#63b8ff" d="M687.07,-169.42C737.19,-161.21 790.51,-144.62 764.5,-112 746.3,-89.18 668.52,-77.01 616.31,-71.29"/>
<polygon fill="#63b8ff" stroke="#63b8ff" points="616.55,-67.8 606.24,-70.23 615.81,-74.76 616.55,-67.8"/>
</a>
</g>
</g>
<!-- Node19 -->
<g id="Node000019" class="node">
<title>Node19</title>
<g id="a_Node000019"><a xlink:title=" ">
<polygon fill="#e0e0e0" stroke="#999999" points="456,-132 419,-132 419,-112 456,-112 456,-132"/>
<text text-anchor="middle" x="437.5" y="-119.2" font-family="Consolas" font-size="11.00">map</text>
</a>
</g>
</g>
<!-- Node18&#45;&gt;Node19 -->
<g id="edge20_Node000018_Node000019" class="edge">
<title>Node18&#45;&gt;Node19</title>
<g id="a_edge20_Node000018_Node000019"><a xlink:title=" ">
<path fill="none" stroke="#63b8ff" d="M583.92,-167.94C555.71,-159.54 512.42,-146.56 465.83,-132.06"/>
<polygon fill="#63b8ff" stroke="#63b8ff" points="466.75,-128.68 456.16,-129.05 464.67,-135.37 466.75,-128.68"/>
</a>
</g>
</g>
<!-- Node20 -->
<g id="Node000020" class="node">
<title>Node20</title>
<g id="a_Node000020"><a xlink:title=" ">
<polygon fill="#e0e0e0" stroke="#999999" points="511,-132 474,-132 474,-112 511,-112 511,-132"/>
<text text-anchor="middle" x="492.5" y="-119.2" font-family="Consolas" font-size="11.00">set</text>
</a>
</g>
</g>
<!-- Node18&#45;&gt;Node20 -->
<g id="edge21_Node000018_Node000020" class="edge">
<title>Node18&#45;&gt;Node20</title>
<g id="a_edge21_Node000018_Node000020"><a xlink:title=" ">
<path fill="none" stroke="#63b8ff" d="M594.08,-167.96C573.99,-159.07 543.15,-145.42 520.72,-135.49"/>
<polygon fill="#63b8ff" stroke="#63b8ff" points="521.94,-132.2 511.38,-131.36 519.11,-138.61 521.94,-132.2"/>
</a>
</g>
</g>
<!-- Node21 -->
<g id="Node000021" class="node">
<title>Node21</title>
<g id="a_Node000021"><a xlink:title=" ">
<polygon fill="#e0e0e0" stroke="#999999" points="633.5,-132 529.5,-132 529.5,-112 633.5,-112 633.5,-132"/>
<text text-anchor="middle" x="581.5" y="-119.2" font-family="Consolas" font-size="11.00">unordered_map</text>
</a>
</g>
</g>
<!-- Node18&#45;&gt;Node21 -->
<g id="edge22_Node000018_Node000021" class="edge">
<title>Node18&#45;&gt;Node21</title>
<g id="a_edge22_Node000018_Node000021"><a xlink:title=" ">
<path fill="none" stroke="#63b8ff" d="M608.75,-167.59C604.26,-160.24 597.88,-149.8 592.42,-140.87"/>
<polygon fill="#63b8ff" stroke="#63b8ff" points="595.38,-139.01 587.18,-132.3 589.41,-142.66 595.38,-139.01"/>
</a>
</g>
</g>
<!-- Node22 -->
<g id="Node000022" class="node">
<title>Node22</title>
<g id="a_Node000022"><a xlink:title=" ">
<polygon fill="#e0e0e0" stroke="#999999" points="755.5,-132 651.5,-132 651.5,-112 755.5,-112 755.5,-132"/>
<text text-anchor="middle" x="703.5" y="-119.2" font-family="Consolas" font-size="11.00">unordered_set</text>
</a>
</g>
</g>
<!-- Node18&#45;&gt;Node22 -->
<g id="edge23_Node000018_Node000022" class="edge">
<title>Node18&#45;&gt;Node22</title>
<g id="a_edge23_Node000018_Node000022"><a xlink:title=" ">
<path fill="none" stroke="#63b8ff" d="M629.6,-167.84C643.36,-159.49 663.92,-147.02 679.86,-137.34"/>
<polygon fill="#63b8ff" stroke="#63b8ff" points="681.89,-140.2 688.63,-132.03 678.26,-134.22 681.89,-140.2"/>
</a>
</g>
</g>
<!-- Node25 -->
<g id="Node000025" class="node">
<title>Node25</title>
<g id="a_Node000025"><a xlink:href="../../d7/de3/_solver_setting_8hpp.html" target="_top" xlink:title=" ">
<polygon fill="white" stroke="#666666" points="274,-188 143,-188 143,-168 274,-168 274,-188"/>
<text text-anchor="middle" x="208.5" y="-175.2" font-family="Consolas" font-size="11.00">SolverSetting.hpp</text>
</a>
</g>
</g>
<!-- Node24&#45;&gt;Node25 -->
<g id="edge26_Node000024_Node000025" class="edge">
<title>Node24&#45;&gt;Node25</title>
<g id="a_edge26_Node000024_Node000025"><a xlink:title=" ">
<path fill="none" stroke="#63b8ff" d="M193.64,-223.59C195.98,-216.55 199.28,-206.67 202.17,-198"/>
<polygon fill="#63b8ff" stroke="#63b8ff" points="205.56,-198.89 205.4,-188.3 198.92,-196.68 205.56,-198.89"/>
</a>
</g>
</g>
<!-- Node28 -->
<g id="Node000028" class="node">
<title>Node28</title>
<g id="a_Node000028"><a xlink:href="../../df/df1/triplet__form_8hpp.html" target="_top" xlink:title=" ">
<polygon fill="white" stroke="#666666" points="125,-188 0,-188 0,-168 125,-168 125,-188"/>
<text text-anchor="middle" x="62.5" y="-175.2" font-family="Consolas" font-size="11.00">triplet_form.hpp</text>
</a>
</g>
</g>
<!-- Node24&#45;&gt;Node28 -->
<g id="edge30_Node000024_Node000028" class="edge">
<title>Node24&#45;&gt;Node28</title>
<g id="a_edge30_Node000024_Node000028"><a xlink:title=" ">
<path fill="none" stroke="#63b8ff" d="M169.08,-223.96C148.4,-215.24 116.88,-201.94 93.47,-192.07"/>
<polygon fill="#63b8ff" stroke="#63b8ff" points="94.57,-188.73 83.99,-188.07 91.85,-195.18 94.57,-188.73"/>
</a>
</g>
</g>
<!-- Node26 -->
<g id="Node000026" class="node">
<title>Node26</title>
<g id="a_Node000026"><a xlink:href="../../d5/d47/utility_8h.html" target="_top" xlink:title=" ">
<polygon fill="white" stroke="#666666" points="274,-132 143,-132 143,-112 274,-112 274,-132"/>
<text text-anchor="middle" x="208.5" y="-119.2" font-family="Consolas" font-size="11.00">Toolbox/utility.h</text>
</a>
</g>
</g>
<!-- Node25&#45;&gt;Node26 -->
<g id="edge27_Node000025_Node000026" class="edge">
<title>Node25&#45;&gt;Node26</title>
<g id="a_edge27_Node000025_Node000026"><a xlink:title=" ">
<path fill="none" stroke="#63b8ff" d="M208.5,-167.59C208.5,-160.7 208.5,-151.1 208.5,-142.57"/>
<polygon fill="#63b8ff" stroke="#63b8ff" points="212,-142.3 208.5,-132.3 205,-142.3 212,-142.3"/>
</a>
</g>
</g>
<!-- Node26&#45;&gt;Node7 -->
<g id="edge29_Node000026_Node000007" class="edge">
<title>Node26&#45;&gt;Node7</title>
<g id="a_edge29_Node000026_Node000007"><a xlink:title=" ">
<path fill="none" stroke="#63b8ff" d="M268.59,-111.96C338.88,-101.39 453.89,-84.09 518.85,-74.32"/>
<polygon fill="#63b8ff" stroke="#63b8ff" points="519.46,-77.77 528.83,-72.82 518.42,-70.84 519.46,-77.77"/>
</a>
</g>
</g>
<!-- Node27 -->
<g id="Node000027" class="node">
<title>Node27</title>
<g id="a_Node000027"><a xlink:title=" ">
<polygon fill="#e0e0e0" stroke="#999999" points="244,-76 173,-76 173,-56 244,-56 244,-76"/>
<text text-anchor="middle" x="208.5" y="-63.2" font-family="Consolas" font-size="11.00">concepts</text>
</a>
</g>
</g>
<!-- Node26&#45;&gt;Node27 -->
<g id="edge28_Node000026_Node000027" class="edge">
<title>Node26&#45;&gt;Node27</title>
<g id="a_edge28_Node000026_Node000027"><a xlink:title=" ">
<path fill="none" stroke="#63b8ff" d="M208.5,-111.59C208.5,-104.7 208.5,-95.1 208.5,-86.57"/>
<polygon fill="#63b8ff" stroke="#63b8ff" points="212,-86.3 208.5,-76.3 205,-86.3 212,-86.3"/>
</a>
</g>
</g>
<!-- Node28&#45;&gt;Node26 -->
<g id="edge31_Node000028_Node000026" class="edge">
<title>Node28&#45;&gt;Node26</title>
<g id="a_edge31_Node000028_Node000026"><a xlink:title=" ">
<path fill="none" stroke="#63b8ff" d="M86.94,-167.96C110.94,-159.08 147.76,-145.46 174.59,-135.54"/>
<polygon fill="#63b8ff" stroke="#63b8ff" points="175.82,-138.82 183.98,-132.07 173.39,-132.25 175.82,-138.82"/>
</a>
</g>
</g>
<!-- Node29 -->
<g id="Node000029" class="node">
<title>Node29</title>
<g id="a_Node000029"><a xlink:title=" ">
<polygon fill="#e0e0e0" stroke="#999999" points="94.5,-132 30.5,-132 30.5,-112 94.5,-112 94.5,-132"/>
<text text-anchor="middle" x="62.5" y="-119.2" font-family="Consolas" font-size="11.00">numeric</text>
</a>
</g>
</g>
<!-- Node28&#45;&gt;Node29 -->
<g id="edge32_Node000028_Node000029" class="edge">
<title>Node28&#45;&gt;Node29</title>
<g id="a_edge32_Node000028_Node000029"><a xlink:title=" ">
<path fill="none" stroke="#63b8ff" d="M62.5,-167.59C62.5,-160.7 62.5,-151.1 62.5,-142.57"/>
<polygon fill="#63b8ff" stroke="#63b8ff" points="66,-142.3 62.5,-132.3 59,-142.3 66,-142.3"/>
</a>
</g>
</g>
<!-- Node30&#45;&gt;Node6 -->
<g id="edge34_Node000030_Node000006" class="edge">
<title>Node30&#45;&gt;Node6</title>
<g id="a_edge34_Node000030_Node000006"><a xlink:title=" ">
<path fill="none" stroke="#63b8ff" d="M483.81,-223.72C470.01,-210.69 443.68,-186.48 419.5,-168 405.24,-157.1 388.44,-145.97 375.1,-137.5"/>
<polygon fill="#63b8ff" stroke="#63b8ff" points="376.82,-134.45 366.49,-132.1 373.1,-140.38 376.82,-134.45"/>
</a>
</g>
</g>
<!-- Node30&#45;&gt;Node18 -->
<g id="edge35_Node000030_Node000018" class="edge">
<title>Node30&#45;&gt;Node18</title>
<g id="a_edge35_Node000030_Node000018"><a xlink:title=" ">
<path fill="none" stroke="#63b8ff" d="M513.75,-223.96C533.21,-215.28 562.83,-202.06 584.92,-192.2"/>
<polygon fill="#63b8ff" stroke="#63b8ff" points="586.48,-195.34 594.18,-188.07 583.62,-188.95 586.48,-195.34"/>
</a>
</g>
</g>
<!-- Node30&#45;&gt;Node23 -->
<g id="edge36_Node000030_Node000023" class="edge">
<title>Node30&#45;&gt;Node23</title>
<g id="a_edge36_Node000030_Node000023"><a xlink:title=" ">
<path fill="none" stroke="#63b8ff" d="M493.85,-223.59C494.1,-216.7 494.46,-207.1 494.78,-198.57"/>
<polygon fill="#63b8ff" stroke="#63b8ff" points="498.28,-198.42 495.16,-188.3 491.29,-198.16 498.28,-198.42"/>
</a>
</g>
</g>
</g>
</svg>

<g id="navigator" transform="translate(0 0)" fill="#404254">
  <rect fill="#f2f5e9" fill-opacity="0.5" stroke="#606060" stroke-width=".5" x="0" y="0" width="60" height="60"/>
  <use id="zoomplus" xlink:href="#zoomPlus" x="17" y="9" onmousedown="handleZoom(evt,'in')"/>
  <use id="zoomminus" xlink:href="#zoomMin" x="42" y="9" onmousedown="handleZoom(evt,'out')"/>
  <use id="reset" xlink:href="#resetDef" x="30" y="36" onmousedown="handleReset()"/>
   <use id="arrowup" xlink:href="#arrowUp" x="0" y="0" onmousedown="handlePan(0,-1)"/>
  <use id="arrowright" xlink:href="#arrowRight" x="0" y="0" onmousedown="handlePan(1,0)"/>
  <use id="arrowdown" xlink:href="#arrowDown" x="0" y="0" onmousedown="handlePan(0,1)"/>
  <use id="arrowleft" xlink:href="#arrowLeft" x="0" y="0" onmousedown="handlePan(-1,0)"/>
</g>
<svg viewBox="0 0 15 15" width="100%" height="30px" preserveAspectRatio="xMaxYMin meet">
 <g id="arrow_out" transform="scale(0.3 0.3)">
  <a xlink:href="_lee_newmark_full_8cpp__incl_org.svg" target="_base">
   <rect id="button" ry="5" rx="5" y="6" x="6" height="38" width="38"
        fill="#f2f5e9" fill-opacity="0.5" stroke="#606060" stroke-width="1.0"/>
   <path id="arrow"
     d="M 11.500037,31.436501 C 11.940474,20.09759 22.043105,11.32322 32.158766,21.979434 L 37.068811,17.246167 C 37.068811,17.246167 37.088388,32 37.088388,32 L 22.160133,31.978069 C 22.160133,31.978069 26.997745,27.140456 26.997745,27.140456 C 18.528582,18.264221 13.291696,25.230495 11.500037,31.436501 z"
     style="fill:#404040;"/>
  </a>
 </g>
</svg>

<style type='text/css'>
<![CDATA[
[data-mouse-over-selected='false'] { opacity: 0.7; }
[data-mouse-over-selected='true']  { opacity: 1.0; }
]]>
</style>
<script type="application/ecmascript"><![CDATA[
document.addEventListener('DOMContentLoaded', (event) => {
  highlightEdges();
  highlightAdjacentNodes();
});
]]></script>
</svg>
