<svg xmlns="http://www.w3.org/2000/svg" xmlns:xlink="http://www.w3.org/1999/xlink" width="880" height="320pt" viewBox="0 0 659.5 320"><g class="graph" transform="translate(4 316)"><title>Toolbox/sort_rcm.h</title><g class="node"><title>Node1</title><a>
<path fill="#999" stroke="#666" d="M401.5-312h-138v20h138z"/>
<text x="332.5" y="-299.2" font-family="Consolas" font-size="11" text-anchor="middle">Toolbox/sort_rcm.h</text>
</a></g><g class="node"><title>Node2</title><a xlink:href="../../d6/dc3/csc__form_8hpp.html" target="_top">
<path fill="#fff" stroke="#666" d="M304.5-256h-138v32h138z"/>
<text x="174.5" y="-243.2" font-family="Consolas" font-size="11">Domain/MetaMat/csc</text>
<text x="235.5" y="-231.2" font-family="Consolas" font-size="11" text-anchor="middle">_form.hpp</text>
</a></g><g class="edge"><title>Node1-&gt;Node2</title><a>
<path fill="none" stroke="#63b8ff" d="M317.77-291.89c-12.97 8.02-32.33 20-49.02 30.32"/>
<path fill="#63b8ff" stroke="#63b8ff" d="m270.16-258.33-10.34 2.29 6.66-8.24z"/>
</a></g><g class="node"><title>Node3</title><a xlink:href="../../df/df1/triplet__form_8hpp.html" target="_top">
<path fill="#fff" stroke="#666" d="M298-188H173v20h125z"/>
<text x="235.5" y="-175.2" font-family="Consolas" font-size="11" text-anchor="middle">triplet_form.hpp</text>
</a></g><g class="edge"><title>Node1-&gt;Node3</title><a>
<path fill="none" stroke="#63b8ff" d="M332.48-291.97c-.47 15.45-3.42 47.28-18.98 67.97-10.66 14.18-27.19 24.63-42.3 31.87"/>
<path fill="#63b8ff" stroke="#63b8ff" d="m272.61-188.93-10.56.9 7.7-7.28z"/>
</a></g><g class="node"><title>Node15</title><a xlink:href="../../d4/ddd/container_8h.html" target="_top">
<path fill="#fff" stroke="#666" d="M464-132H319v20h145z"/>
<text x="391.5" y="-119.2" font-family="Consolas" font-size="11" text-anchor="middle">Toolbox/container.h</text>
</a></g><g class="edge"><title>Node1-&gt;Node15</title><a>
<path fill="none" stroke="#63b8ff" d="M335.51-291.93c9.19 27.73 37.04 111.77 49.66 149.83"/>
<path fill="#63b8ff" stroke="#63b8ff" d="m388.6-142.86-.17 10.59-6.47-8.39z"/>
</a></g><g class="edge"><title>Node2-&gt;Node3</title><a>
<path fill="none" stroke="#63b8ff" d="M235.5-223.86v25.49"/>
<path fill="#63b8ff" stroke="#63b8ff" d="m239-198.15-3.5 10-3.5-10z"/>
</a></g><g class="node"><title>Node4</title><a xlink:href="../../d5/d47/utility_8h.html" target="_top">
<path fill="#fff" stroke="#666" d="M301-132H170v20h131z"/>
<text x="235.5" y="-119.2" font-family="Consolas" font-size="11" text-anchor="middle">Toolbox/utility.h</text>
</a></g><g class="edge"><title>Node3-&gt;Node4</title><a>
<path fill="none" stroke="#63b8ff" d="M235.5-167.59v25.02"/>
<path fill="#63b8ff" stroke="#63b8ff" d="m239-142.3-3.5 10-3.5-10z"/>
</a></g><g class="node"><title>Node14</title><a>
<path fill="#e0e0e0" stroke="#999" d="M151.5-132h-64v20h64z"/>
<text x="119.5" y="-119.2" font-family="Consolas" font-size="11" text-anchor="middle">numeric</text>
</a></g><g class="edge"><title>Node3-&gt;Node14</title><a>
<path fill="none" stroke="#63b8ff" d="M216.08-167.96c-18.56 8.64-46.79 21.78-67.94 31.63"/>
<path fill="#63b8ff" stroke="#63b8ff" d="m149.52-133.12-10.54 1.05 7.59-7.39z"/>
</a></g><g class="node"><title>Node5</title><a>
<path fill="#e0e0e0" stroke="#999" d="M202-76h-71v20h71z"/>
<text x="166.5" y="-63.2" font-family="Consolas" font-size="11" text-anchor="middle">concepts</text>
</a></g><g class="edge"><title>Node4-&gt;Node5</title><a>
<path fill="none" stroke="#63b8ff" d="M223.8-111.84c-10.28 8.04-25.43 19.9-37.57 29.4"/>
<path fill="#63b8ff" stroke="#63b8ff" d="m188.06-79.43-10.03 3.4 5.72-8.91z"/>
</a></g><g class="node"><title>Node6</title><a>
<path fill="#e0e0e0" stroke="#999" d="M257-76h-37v20h37z"/>
<text x="238.5" y="-63.2" font-family="Consolas" font-size="11" text-anchor="middle">set</text>
</a></g><g class="edge"><title>Node4-&gt;Node6</title><a>
<path fill="none" stroke="#63b8ff" d="M236.02-111.59c.39 6.96.93 16.7 1.41 25.3"/>
<path fill="#63b8ff" stroke="#63b8ff" d="m240.92-86.48-2.94 10.18-4.05-9.79z"/>
</a></g><g class="node"><title>Node7</title><a xlink:href="../../d8/d8f/suan_pan_8h.html" target="_top">
<path fill="#fff" stroke="#666" d="M352-76h-77v20h77z"/>
<text x="313.5" y="-63.2" font-family="Consolas" font-size="11" text-anchor="middle">suanPan.h</text>
</a></g><g class="edge"><title>Node4-&gt;Node7</title><a>
<path fill="none" stroke="#63b8ff" d="M248.73-111.84c11.84 8.2 29.41 20.36 43.26 29.95"/>
<path fill="#63b8ff" stroke="#63b8ff" d="m294.23-84.59 6.23 8.56-10.21-2.81z"/>
</a></g><g class="node"><title>Node8</title><a>
<path fill="#e0e0e0" stroke="#999" d="M71-20H0V0h71z"/>
<text x="35.5" y="-7.2" font-family="Consolas" font-size="11" text-anchor="middle">iostream</text>
</a></g><g class="edge"><title>Node7-&gt;Node8</title><a>
<path fill="none" stroke="#63b8ff" d="M274.96-57.73c-44.4 8.4-119.84 22.78-193.95 37.45"/>
<path fill="#63b8ff" stroke="#63b8ff" d="m81.52-16.82-10.49-1.49 9.13-5.37z"/>
</a></g><g class="node"><title>Node9</title><a>
<path fill="#e0e0e0" stroke="#999" d="M200-20H89V0h111z"/>
<text x="144.5" y="-7.2" font-family="Consolas" font-size="11" text-anchor="middle">armadillo/arma</text>
</a></g><g class="edge"><title>Node7-&gt;Node9</title><a>
<path fill="none" stroke="#63b8ff" d="M285.21-55.96c-28.15 8.99-71.53 22.85-102.68 32.81"/>
<path fill="#63b8ff" stroke="#63b8ff" d="m183.47-19.78-10.59-.29 8.46-6.38z"/>
</a></g><g class="node"><title>Node10</title><a>
<path fill="#e0e0e0" stroke="#999" d="M302.5-20h-84V0h84z"/>
<text x="260.5" y="-7.2" font-family="Consolas" font-size="11" text-anchor="middle">filesystem</text>
</a></g><g class="edge"><title>Node7-&gt;Node10</title><a>
<path fill="none" stroke="#63b8ff" d="M304.27-55.59c-7.6 7.74-18.56 18.9-27.61 28.12"/>
<path fill="#63b8ff" stroke="#63b8ff" d="m279.13-24.98-9.5 4.68 4.5-9.59z"/>
</a></g><g class="node"><title>Node11</title><a>
<path fill="#e0e0e0" stroke="#999" d="M412-20h-91V0h91z"/>
<text x="366.5" y="-7.2" font-family="Consolas" font-size="11" text-anchor="middle">fmt/color.h</text>
</a></g><g class="edge"><title>Node7-&gt;Node11</title><a>
<path fill="none" stroke="#63b8ff" d="M322.73-55.59c7.6 7.74 18.56 18.9 27.61 28.12"/>
<path fill="#63b8ff" stroke="#63b8ff" d="m352.87-29.89 4.5 9.59-9.5-4.68z"/>
</a></g><g class="node"><title>Node12</title><a>
<path fill="#e0e0e0" stroke="#999" d="M480.5-20h-50V0h50z"/>
<text x="455.5" y="-7.2" font-family="Consolas" font-size="11" text-anchor="middle">mutex</text>
</a></g><g class="edge"><title>Node7-&gt;Node12</title><a>
<path fill="none" stroke="#63b8ff" d="M337.27-55.96c23.24 8.84 58.84 22.38 84.91 32.29"/>
<path fill="#63b8ff" stroke="#63b8ff" d="m423.55-26.89 8.1 6.82-10.59-.28z"/>
</a></g><g class="node"><title>Node13</title><a>
<path fill="#e0e0e0" stroke="#999" d="M556-20h-57V0h57z"/>
<text x="527.5" y="-7.2" font-family="Consolas" font-size="11" text-anchor="middle">memory</text>
</a></g><g class="edge"><title>Node7-&gt;Node13</title><a>
<path fill="none" stroke="#63b8ff" d="m349.32-55.96 139.61 35.23"/>
<path fill="#63b8ff" stroke="#63b8ff" d="m489.93-24.09 8.84 5.84-10.55.95z"/>
</a></g><g class="edge"><title>Node15-&gt;Node6</title><a>
<path fill="none" stroke="#63b8ff" d="M365.89-111.96c-27.27 9.62-70.35 24.83-98.73 34.85"/>
<path fill="#63b8ff" stroke="#63b8ff" d="m268.01-73.71-10.59.03 8.26-6.63z"/>
</a></g><g class="edge"><title>Node15-&gt;Node7</title><a>
<path fill="none" stroke="#63b8ff" d="M378.27-111.84c-11.84 8.2-29.41 20.36-43.26 29.95"/>
<path fill="#63b8ff" stroke="#63b8ff" d="m336.75-78.84-10.21 2.81 6.23-8.56z"/>
</a></g><g class="node"><title>Node16</title><a>
<path fill="#e0e0e0" stroke="#999" d="M407-76h-37v20h37z"/>
<text x="388.5" y="-63.2" font-family="Consolas" font-size="11" text-anchor="middle">map</text>
</a></g><g class="edge"><title>Node15-&gt;Node16</title><a>
<path fill="none" stroke="#63b8ff" d="M390.98-111.59c-.39 6.96-.93 16.7-1.41 25.3"/>
<path fill="#63b8ff" stroke="#63b8ff" d="m393.07-86.09-4.05 9.79-2.94-10.18z"/>
</a></g><g class="node"><title>Node17</title><a>
<path fill="#e0e0e0" stroke="#999" d="M529.5-76h-104v20h104z"/>
<text x="477.5" y="-63.2" font-family="Consolas" font-size="11" text-anchor="middle">unordered_map</text>
</a></g><g class="edge"><title>Node15-&gt;Node17</title><a>
<path fill="none" stroke="#63b8ff" d="M406.09-111.84c13.3 8.35 33.16 20.82 48.57 30.5"/>
<path fill="#63b8ff" stroke="#63b8ff" d="m456.52-84.31 6.61 8.28-10.33-2.35z"/>
</a></g><g class="node"><title>Node18</title><a>
<path fill="#e0e0e0" stroke="#999" d="M651.5-76h-104v20h104z"/>
<text x="599.5" y="-63.2" font-family="Consolas" font-size="11" text-anchor="middle">unordered_set</text>
</a></g><g class="edge"><title>Node15-&gt;Node18</title><a>
<path fill="none" stroke="#63b8ff" d="M426.31-111.96c35.25 9.15 89.9 23.34 128.36 33.32"/>
<path fill="#63b8ff" stroke="#63b8ff" d="m555.77-81.97 8.8 5.9-10.56.88z"/>
</a></g></g></svg>