<?xml version="1.0" encoding="UTF-8" standalone="no"?>
<!DOCTYPE svg PUBLIC "-//W3C//DTD SVG 1.1//EN"
 "http://www.w3.org/Graphics/SVG/1.1/DTD/svg11.dtd">
<!-- Generated by graphviz version 8.1.0 (20230707.0739)
 -->
<!-- Title: Recorder::set_object_tag Pages: 1 -->
<svg width="554pt" height="96pt"
 viewBox="0.00 0.00 554.00 96.00" xmlns="http://www.w3.org/2000/svg" xmlns:xlink="http://www.w3.org/1999/xlink">
<g id="graph0" class="graph" transform="scale(1 1) rotate(0) translate(4 92)">
<title>Recorder::set_object_tag</title>
<!-- Node1 -->
<g id="Node000001" class="node">
<title>Node1</title>
<g id="a_Node000001"><a xlink:title=" ">
<polygon fill="#999999" stroke="#666666" points="546,-54.25 386,-54.25 386,-32.75 546,-32.75 546,-54.25"/>
<text text-anchor="middle" x="466" y="-39.8" font-family="Consolas" font-size="11.00">Recorder::set_object_tag</text>
</a>
</g>
</g>
<!-- Node2 -->
<g id="Node000002" class="node">
<title>Node2</title>
<g id="a_Node000002"><a xlink:href="../../d2/da4/class_element_recorder.html#aea1efd3d046681a81a3d3735b1217723" target="_top" xlink:title=" ">
<polygon fill="white" stroke="#666666" points="350,-77.25 172,-77.25 172,-55.75 350,-55.75 350,-77.25"/>
<text text-anchor="middle" x="261" y="-62.8" font-family="Consolas" font-size="11.00">ElementRecorder::initialize</text>
</a>
</g>
</g>
<!-- Node1&#45;&gt;Node2 -->
<g id="edge1_Node000001_Node000002" class="edge">
<title>Node1&#45;&gt;Node2</title>
<g id="a_edge1_Node000001_Node000002"><a xlink:title=" ">
<path fill="none" stroke="#63b8ff" d="M374.98,-53.7C366.81,-54.63 358.54,-55.56 350.38,-56.49"/>
<polygon fill="#63b8ff" stroke="#63b8ff" points="375.1,-57.09 384.64,-52.49 374.31,-50.14 375.1,-57.09"/>
</a>
</g>
</g>
<!-- Node4 -->
<g id="Node000004" class="node">
<title>Node4</title>
<g id="a_Node000004"><a xlink:href="../../de/d66/class_node_recorder.html#a5d112e20e4cd06230af971451167d4f6" target="_top" xlink:title=" ">
<polygon fill="white" stroke="#666666" points="341,-34.25 181,-34.25 181,-12.75 341,-12.75 341,-34.25"/>
<text text-anchor="middle" x="261" y="-19.8" font-family="Consolas" font-size="11.00">NodeRecorder::initialize</text>
</a>
</g>
</g>
<!-- Node1&#45;&gt;Node4 -->
<g id="edge3_Node000001_Node000004" class="edge">
<title>Node1&#45;&gt;Node4</title>
<g id="a_edge3_Node000001_Node000004"><a xlink:title=" ">
<path fill="none" stroke="#63b8ff" d="M374.96,-34.63C363.75,-33.52 352.34,-32.4 341.3,-31.31"/>
<polygon fill="#63b8ff" stroke="#63b8ff" points="374.35,-38.18 384.64,-35.68 375.03,-31.22 374.35,-38.18"/>
</a>
</g>
</g>
<!-- Node3 -->
<g id="Node000003" class="node">
<title>Node3</title>
<g id="a_Node000003"><a xlink:href="../../d9/d00/class_group_element_recorder.html#a10827077ce7079b134f425e847649472" target="_top" xlink:title=" ">
<polygon fill="white" stroke="#666666" points="136,-88 0,-88 0,-53 136,-53 136,-88"/>
<text text-anchor="start" x="8" y="-73.55" font-family="Consolas" font-size="11.00">GroupElementRecorder</text>
<text text-anchor="middle" x="68" y="-60.05" font-family="Consolas" font-size="11.00">::initialize</text>
</a>
</g>
</g>
<!-- Node2&#45;&gt;Node3 -->
<g id="edge2_Node000002_Node000003" class="edge">
<title>Node2&#45;&gt;Node3</title>
<g id="a_edge2_Node000002_Node000003"><a xlink:title=" ">
<path fill="none" stroke="#63b8ff" d="M160.85,-68.58C152.54,-68.75 144.27,-68.92 136.29,-69.09"/>
<polygon fill="#63b8ff" stroke="#63b8ff" points="160.84,-72.06 170.77,-68.35 160.7,-65.06 160.84,-72.06"/>
</a>
</g>
</g>
<!-- Node5 -->
<g id="Node000005" class="node">
<title>Node5</title>
<g id="a_Node000005"><a xlink:href="../../d1/dcb/class_group_node_recorder.html#a5b77bf3dc3fa0b95cdb81416d899a7cd" target="_top" xlink:title=" ">
<polygon fill="white" stroke="#666666" points="133,-35 3,-35 3,0 133,0 133,-35"/>
<text text-anchor="start" x="11" y="-20.55" font-family="Consolas" font-size="11.00">GroupNodeRecorder::</text>
<text text-anchor="middle" x="68" y="-7.05" font-family="Consolas" font-size="11.00">initialize</text>
</a>
</g>
</g>
<!-- Node4&#45;&gt;Node5 -->
<g id="edge4_Node000004_Node000005" class="edge">
<title>Node4&#45;&gt;Node5</title>
<g id="a_edge4_Node000004_Node000005"><a xlink:title=" ">
<path fill="none" stroke="#63b8ff" d="M169.86,-20.67C157.51,-20.28 145.04,-19.89 133.28,-19.52"/>
<polygon fill="#63b8ff" stroke="#63b8ff" points="169.55,-24.19 179.66,-21.01 169.77,-17.2 169.55,-24.19"/>
</a>
</g>
</g>
</g>
</svg>
