<?xml version="1.0" encoding="UTF-8" standalone="no"?>
<!DOCTYPE svg PUBLIC "-//W3C//DTD SVG 1.1//EN"
 "http://www.w3.org/Graphics/SVG/1.1/DTD/svg11.dtd">
<!-- Generated by graphviz version 2.43.0 (0)
 -->
<!-- Title: BSplineSurface Pages: 1 -->
<!--zoomable 515 -->
<svg id="main" version="1.1" xmlns="http://www.w3.org/2000/svg" xmlns:xlink="http://www.w3.org/1999/xlink" xml:space="preserve" onload="init(evt)">
<style type="text/css"><![CDATA[
.edge:hover path { stroke: red; }
.edge:hover polygon { stroke: red; fill: red; }
]]></style>
<script type="text/javascript"><![CDATA[
var edges = document.getElementsByTagName('g');
if (edges && edges.length) {
  for (var i=0;i<edges.length;i++) {
    if (edges[i].id.substr(0,4)=='edge') {
      edges[i].setAttribute('class','edge');
    }
  }
}
]]></script>
        <defs>
                <circle id="rim" cx="0" cy="0" r="7"/>
                <circle id="rim2" cx="0" cy="0" r="3.5"/>
                <g id="zoomPlus">
                        <use xlink:href="#rim" fill="#404040">
                                <set attributeName="fill" to="#808080" begin="zoomplus.mouseover" end="zoomplus.mouseout"/>
                        </use>
                        <path d="M-4,0h8M0,-4v8" fill="none" stroke="white" stroke-width="1.5" pointer-events="none"/>
                </g>
                <g id="zoomMin">
                        <use xlink:href="#rim" fill="#404040">
                                <set attributeName="fill" to="#808080" begin="zoomminus.mouseover" end="zoomminus.mouseout"/>
                        </use>
                        <path d="M-4,0h8" fill="none" stroke="white" stroke-width="1.5" pointer-events="none"/>
                </g>
                <g id="dirArrow">
                        <path fill="none" stroke="white" stroke-width="1.5" d="M0,-3.0v7 M-2.5,-0.5L0,-3.0L2.5,-0.5"/>
                </g>
               <g id="resetDef">
                       <use xlink:href="#rim2" fill="#404040">
                               <set attributeName="fill" to="#808080" begin="reset.mouseover" end="reset.mouseout"/>
                       </use>
               </g>
        </defs>

<script type="text/javascript">
var viewWidth = 849;
var viewHeight = 515;
var sectionId = 'dynsection-0';
</script>
<script xlink:href="../../svgpan.js"/>
<svg id="graph" class="graph">
<g id="viewport">
<title>BSplineSurface</title>
<polygon fill="white" stroke="transparent" points="-4,4 -4,-511 845,-511 845,4 -4,4"/>
<!-- Node1 -->
<g id="node1" class="node">
<title>Node1</title>
<g id="a_node1"><a xlink:title=" ">
<polygon fill="#bfbfbf" stroke="black" points="241.5,-278.5 241.5,-506.5 420.5,-506.5 420.5,-278.5 241.5,-278.5"/>
<text text-anchor="middle" x="331" y="-493.7" font-family="Consolas" font-size="11.00">BSplineSurface</text>
<polyline fill="none" stroke="black" points="241.5,-486.5 420.5,-486.5 "/>
<text text-anchor="start" x="249.5" y="-473.7" font-family="Consolas" font-size="11.00"># dimension</text>
<text text-anchor="start" x="249.5" y="-461.7" font-family="Consolas" font-size="11.00"># net</text>
<text text-anchor="start" x="249.5" y="-449.7" font-family="Consolas" font-size="11.00"># line_u</text>
<text text-anchor="start" x="249.5" y="-437.7" font-family="Consolas" font-size="11.00"># line_v</text>
<polyline fill="none" stroke="black" points="241.5,-430.5 420.5,-430.5 "/>
<text text-anchor="start" x="249.5" y="-417.7" font-family="Consolas" font-size="11.00">+ BSplineSurface()</text>
<text text-anchor="start" x="249.5" y="-405.7" font-family="Consolas" font-size="11.00">+ BSplineSurface()</text>
<text text-anchor="start" x="249.5" y="-393.7" font-family="Consolas" font-size="11.00">+ BSplineSurface()</text>
<text text-anchor="start" x="249.5" y="-381.7" font-family="Consolas" font-size="11.00">+ operator=()</text>
<text text-anchor="start" x="249.5" y="-369.7" font-family="Consolas" font-size="11.00">+ operator=()</text>
<text text-anchor="start" x="249.5" y="-357.7" font-family="Consolas" font-size="11.00">+ ~BSplineSurface()</text>
<text text-anchor="start" x="249.5" y="-345.7" font-family="Consolas" font-size="11.00">+ set_control_polygon()</text>
<text text-anchor="start" x="249.5" y="-333.7" font-family="Consolas" font-size="11.00">+ set_control_polygon()</text>
<text text-anchor="start" x="249.5" y="-321.7" font-family="Consolas" font-size="11.00">+ get_all_element_span()</text>
<text text-anchor="start" x="249.5" y="-309.7" font-family="Consolas" font-size="11.00">+ get_number_of_control</text>
<text text-anchor="start" x="249.5" y="-297.7" font-family="Consolas" font-size="11.00">_points()</text>
<text text-anchor="start" x="249.5" y="-285.7" font-family="Consolas" font-size="11.00">and 8 more...</text>
</a>
</g>
</g>
<!-- Node2 -->
<g id="node2" class="node">
<title>Node2</title>
<g id="a_node2"><a xlink:href="../../dc/d7d/class_b_spline_surface2_d.html" target="_top" xlink:title=" ">
<polygon fill="white" stroke="black" points="0,-139.5 0,-199.5 152,-199.5 152,-139.5 0,-139.5"/>
<text text-anchor="middle" x="76" y="-186.7" font-family="Consolas" font-size="11.00">BSplineSurface2D</text>
<polyline fill="none" stroke="black" points="0,-179.5 152,-179.5 "/>
<text text-anchor="middle" x="76" y="-166.7" font-family="Consolas" font-size="11.00"> </text>
<polyline fill="none" stroke="black" points="0,-159.5 152,-159.5 "/>
<text text-anchor="start" x="8" y="-146.7" font-family="Consolas" font-size="11.00">+ BSplineSurface2D()</text>
</a>
</g>
</g>
<!-- Node1&#45;&gt;Node2 -->
<g id="edge1" class="edge">
<title>Node1&#45;&gt;Node2</title>
<path fill="none" stroke="midnightblue" d="M233.64,-307.12C189.9,-269.22 141.15,-226.97 109.61,-199.63"/>
<polygon fill="none" stroke="midnightblue" points="231.61,-309.99 241.46,-313.89 236.19,-304.7 231.61,-309.99"/>
</g>
<!-- Node3 -->
<g id="node3" class="node">
<title>Node3</title>
<g id="a_node3"><a xlink:href="../../dc/d99/class_b_spline_surface3_d.html" target="_top" xlink:title=" ">
<polygon fill="white" stroke="black" points="170,-139.5 170,-199.5 322,-199.5 322,-139.5 170,-139.5"/>
<text text-anchor="middle" x="246" y="-186.7" font-family="Consolas" font-size="11.00">BSplineSurface3D</text>
<polyline fill="none" stroke="black" points="170,-179.5 322,-179.5 "/>
<text text-anchor="middle" x="246" y="-166.7" font-family="Consolas" font-size="11.00"> </text>
<polyline fill="none" stroke="black" points="170,-159.5 322,-159.5 "/>
<text text-anchor="start" x="178" y="-146.7" font-family="Consolas" font-size="11.00">+ BSplineSurface3D()</text>
</a>
</g>
</g>
<!-- Node1&#45;&gt;Node3 -->
<g id="edge2" class="edge">
<title>Node1&#45;&gt;Node3</title>
<path fill="none" stroke="midnightblue" d="M283.84,-268.88C273.92,-243.1 264.35,-218.21 257.31,-199.91"/>
<polygon fill="none" stroke="midnightblue" points="280.65,-270.33 287.5,-278.41 287.18,-267.82 280.65,-270.33"/>
</g>
<!-- Node4 -->
<g id="node4" class="node">
<title>Node4</title>
<g id="a_node4"><a xlink:href="../../d8/db7/class_b_spline_surface4_d.html" target="_top" xlink:title=" ">
<polygon fill="white" stroke="black" points="340,-139.5 340,-199.5 492,-199.5 492,-139.5 340,-139.5"/>
<text text-anchor="middle" x="416" y="-186.7" font-family="Consolas" font-size="11.00">BSplineSurface4D</text>
<polyline fill="none" stroke="black" points="340,-179.5 492,-179.5 "/>
<text text-anchor="middle" x="416" y="-166.7" font-family="Consolas" font-size="11.00"> </text>
<polyline fill="none" stroke="black" points="340,-159.5 492,-159.5 "/>
<text text-anchor="start" x="348" y="-146.7" font-family="Consolas" font-size="11.00">+ BSplineSurface4D()</text>
</a>
</g>
</g>
<!-- Node1&#45;&gt;Node4 -->
<g id="edge3" class="edge">
<title>Node1&#45;&gt;Node4</title>
<path fill="none" stroke="midnightblue" d="M378.16,-268.88C388.08,-243.1 397.65,-218.21 404.69,-199.91"/>
<polygon fill="none" stroke="midnightblue" points="374.82,-267.82 374.5,-278.41 381.35,-270.33 374.82,-267.82"/>
</g>
<!-- Node5 -->
<g id="node5" class="node">
<title>Node5</title>
<g id="a_node5"><a xlink:href="../../d8/d1b/class_n_u_r_b_s_surface.html" target="_top" xlink:title=" ">
<polygon fill="white" stroke="black" points="510,-97.5 510,-241.5 722,-241.5 722,-97.5 510,-97.5"/>
<text text-anchor="middle" x="616" y="-228.7" font-family="Consolas" font-size="11.00">NURBSSurface</text>
<polyline fill="none" stroke="black" points="510,-221.5 722,-221.5 "/>
<text text-anchor="middle" x="616" y="-208.7" font-family="Consolas" font-size="11.00"> </text>
<polyline fill="none" stroke="black" points="510,-201.5 722,-201.5 "/>
<text text-anchor="start" x="518" y="-188.7" font-family="Consolas" font-size="11.00">+ evaluate_point()</text>
<text text-anchor="start" x="518" y="-176.7" font-family="Consolas" font-size="11.00">+ evaluate_point_derivative()</text>
<text text-anchor="start" x="518" y="-164.7" font-family="Consolas" font-size="11.00">+ evaluate_shape_function()</text>
<text text-anchor="start" x="518" y="-152.7" font-family="Consolas" font-size="11.00">+ evaluate_shape_function</text>
<text text-anchor="start" x="518" y="-140.7" font-family="Consolas" font-size="11.00">_derivative()</text>
<text text-anchor="start" x="518" y="-128.7" font-family="Consolas" font-size="11.00">+ BSplineSurface()</text>
<text text-anchor="start" x="518" y="-116.7" font-family="Consolas" font-size="11.00">+ BSplineSurface()</text>
<text text-anchor="start" x="518" y="-104.7" font-family="Consolas" font-size="11.00">+ BSplineSurface()</text>
</a>
</g>
</g>
<!-- Node1&#45;&gt;Node5 -->
<g id="edge4" class="edge">
<title>Node1&#45;&gt;Node5</title>
<path fill="none" stroke="midnightblue" d="M428.98,-315.52C459.84,-291.59 493.8,-265.26 524.21,-241.67"/>
<polygon fill="none" stroke="midnightblue" points="426.54,-312.98 420.78,-321.88 430.83,-318.52 426.54,-312.98"/>
</g>
<!-- Node6 -->
<g id="node6" class="node">
<title>Node6</title>
<g id="a_node6"><a xlink:href="../../d6/dad/class_n_u_r_b_s_surface2_d.html" target="_top" xlink:title=" ">
<polygon fill="white" stroke="black" points="391,-0.5 391,-60.5 529,-60.5 529,-0.5 391,-0.5"/>
<text text-anchor="middle" x="460" y="-47.7" font-family="Consolas" font-size="11.00">NURBSSurface2D</text>
<polyline fill="none" stroke="black" points="391,-40.5 529,-40.5 "/>
<text text-anchor="middle" x="460" y="-27.7" font-family="Consolas" font-size="11.00"> </text>
<polyline fill="none" stroke="black" points="391,-20.5 529,-20.5 "/>
<text text-anchor="start" x="399" y="-7.7" font-family="Consolas" font-size="11.00">+ NURBSSurface2D()</text>
</a>
</g>
</g>
<!-- Node5&#45;&gt;Node6 -->
<g id="edge5" class="edge">
<title>Node5&#45;&gt;Node6</title>
<path fill="none" stroke="midnightblue" d="M527.27,-90.57C515.22,-80 503.52,-69.72 493.35,-60.79"/>
<polygon fill="none" stroke="midnightblue" points="524.98,-93.22 534.8,-97.19 529.6,-87.96 524.98,-93.22"/>
</g>
<!-- Node7 -->
<g id="node7" class="node">
<title>Node7</title>
<g id="a_node7"><a xlink:href="../../d5/ddf/class_n_u_r_b_s_surface3_d.html" target="_top" xlink:title=" ">
<polygon fill="white" stroke="black" points="547,-0.5 547,-60.5 685,-60.5 685,-0.5 547,-0.5"/>
<text text-anchor="middle" x="616" y="-47.7" font-family="Consolas" font-size="11.00">NURBSSurface3D</text>
<polyline fill="none" stroke="black" points="547,-40.5 685,-40.5 "/>
<text text-anchor="middle" x="616" y="-27.7" font-family="Consolas" font-size="11.00"> </text>
<polyline fill="none" stroke="black" points="547,-20.5 685,-20.5 "/>
<text text-anchor="start" x="555" y="-7.7" font-family="Consolas" font-size="11.00">+ NURBSSurface3D()</text>
</a>
</g>
</g>
<!-- Node5&#45;&gt;Node7 -->
<g id="edge6" class="edge">
<title>Node5&#45;&gt;Node7</title>
<path fill="none" stroke="midnightblue" d="M616,-86.99C616,-77.69 616,-68.71 616,-60.79"/>
<polygon fill="none" stroke="midnightblue" points="612.5,-87.19 616,-97.19 619.5,-87.19 612.5,-87.19"/>
</g>
<!-- Node8 -->
<g id="node8" class="node">
<title>Node8</title>
<g id="a_node8"><a xlink:href="../../d4/d6c/class_n_u_r_b_s_surface4_d.html" target="_top" xlink:title=" ">
<polygon fill="white" stroke="black" points="703,-0.5 703,-60.5 841,-60.5 841,-0.5 703,-0.5"/>
<text text-anchor="middle" x="772" y="-47.7" font-family="Consolas" font-size="11.00">NURBSSurface4D</text>
<polyline fill="none" stroke="black" points="703,-40.5 841,-40.5 "/>
<text text-anchor="middle" x="772" y="-27.7" font-family="Consolas" font-size="11.00"> </text>
<polyline fill="none" stroke="black" points="703,-20.5 841,-20.5 "/>
<text text-anchor="start" x="711" y="-7.7" font-family="Consolas" font-size="11.00">+ NURBSSurface4D()</text>
</a>
</g>
</g>
<!-- Node5&#45;&gt;Node8 -->
<g id="edge7" class="edge">
<title>Node5&#45;&gt;Node8</title>
<path fill="none" stroke="midnightblue" d="M704.73,-90.57C716.78,-80 728.48,-69.72 738.65,-60.79"/>
<polygon fill="none" stroke="midnightblue" points="702.4,-87.96 697.2,-97.19 707.02,-93.22 702.4,-87.96"/>
</g>
</g>
</svg>
        <g id="navigator" transform="translate(0 0)" fill="#404254">
                <rect fill="#f2f5e9" fill-opacity="0.5" stroke="#606060" stroke-width=".5" x="0" y="0" width="60" height="60"/>
                <use id="zoomplus" xlink:href="#zoomPlus" x="17" y="9" onmousedown="handleZoom(evt,'in')"/>
                <use id="zoomminus" xlink:href="#zoomMin" x="42" y="9" onmousedown="handleZoom(evt,'out')"/>
                <use id="reset" xlink:href="#resetDef" x="30" y="36" onmousedown="handleReset()"/>
                <g id="arrowUp" xlink:href="#dirArrow" transform="translate(30 24)" onmousedown="handlePan(0,-1)">
                  <use xlink:href="#rim" fill="#404040">
                        <set attributeName="fill" to="#808080" begin="arrowUp.mouseover" end="arrowUp.mouseout"/>
                  </use>
                  <path fill="none" stroke="white" stroke-width="1.5" d="M0,-3.0v7 M-2.5,-0.5L0,-3.0L2.5,-0.5"/>
                </g>
                <g id="arrowRight" xlink:href="#dirArrow" transform="rotate(90) translate(36 -43)" onmousedown="handlePan(1,0)">
                  <use xlink:href="#rim" fill="#404040">
                        <set attributeName="fill" to="#808080" begin="arrowRight.mouseover" end="arrowRight.mouseout"/>
                  </use>
                  <path fill="none" stroke="white" stroke-width="1.5" d="M0,-3.0v7 M-2.5,-0.5L0,-3.0L2.5,-0.5"/>
                </g>
                <g id="arrowDown" xlink:href="#dirArrow" transform="rotate(180) translate(-30 -48)" onmousedown="handlePan(0,1)">
                  <use xlink:href="#rim" fill="#404040">
                        <set attributeName="fill" to="#808080" begin="arrowDown.mouseover" end="arrowDown.mouseout"/>
                  </use>
                  <path fill="none" stroke="white" stroke-width="1.5" d="M0,-3.0v7 M-2.5,-0.5L0,-3.0L2.5,-0.5"/>
                </g>
                <g id="arrowLeft" xlink:href="#dirArrow" transform="rotate(270) translate(-36 17)" onmousedown="handlePan(-1,0)">
                  <use xlink:href="#rim" fill="#404040">
                        <set attributeName="fill" to="#808080" begin="arrowLeft.mouseover" end="arrowLeft.mouseout"/>
                  </use>
                  <path fill="none" stroke="white" stroke-width="1.5" d="M0,-3.0v7 M-2.5,-0.5L0,-3.0L2.5,-0.5"/>
                </g>
        </g>
        <svg viewBox="0 0 15 15" width="100%" height="30px" preserveAspectRatio="xMaxYMin meet">
         <g id="arrow_out" transform="scale(0.3 0.3)">
          <a xlink:href="class_b_spline_surface__inherit__graph_org.svg" target="_base">
           <rect id="button" ry="5" rx="5" y="6" x="6" height="38" width="38"
                fill="#f2f5e9" fill-opacity="0.5" stroke="#606060" stroke-width="1.0"/>
           <path id="arrow"
             d="M 11.500037,31.436501 C 11.940474,20.09759 22.043105,11.32322 32.158766,21.979434 L 37.068811,17.246167 C 37.068811,17.246167 37.088388,32 37.088388,32 L 22.160133,31.978069 C 22.160133,31.978069 26.997745,27.140456 26.997745,27.140456 C 18.528582,18.264221 13.291696,25.230495 11.500037,31.436501 z"
             style="fill:#404040;"/>
          </a>
         </g>
        </svg>
</svg>
