<?xml version="1.0" encoding="UTF-8" standalone="no"?>
<!DOCTYPE svg PUBLIC "-//W3C//DTD SVG 1.1//EN"
 "http://www.w3.org/Graphics/SVG/1.1/DTD/svg11.dtd">
<!-- Generated by graphviz version 2.43.0 (0)
 -->
<!-- Title: SymmPackMat&lt; T &gt; Pages: 1 -->
<!--zoomable 1257 -->

<svg id="main" version="1.1" xmlns="http://www.w3.org/2000/svg" xmlns:xlink="http://www.w3.org/1999/xlink" xml:space="preserve" onload="init(evt)">
<style type="text/css"><![CDATA[
.node, .edge {opacity: 0.7;}
.node.selected, .edge.selected {opacity: 1;}
.edge:hover path { stroke: red; }
.edge:hover polygon { stroke: red; fill: red; }
]]></style>

<defs>
  <circle id="rim" cx="0" cy="0" r="7"/>
  <circle id="rim2" cx="0" cy="0" r="3.5"/>
  <g id="zoomPlus">
    <use xlink:href="#rim" fill="#404040"><set attributeName="fill" to="#808080" begin="zoomplus.mouseover" end="zoomplus.mouseout"/></use>
    <path d="M-4,0h8M0,-4v8" fill="none" stroke="white" stroke-width="1.5" pointer-events="none"/>
  </g>
  <g id="zoomMin">
    <use xlink:href="#rim" fill="#404040"><set attributeName="fill" to="#808080" begin="zoomminus.mouseover" end="zoomminus.mouseout"/></use>
    <path d="M-4,0h8" fill="none" stroke="white" stroke-width="1.5" pointer-events="none"/>
  </g>
  <g id="arrowUp" transform="translate(30 24)">
    <use xlink:href="#rim"/>
    <path pointer-events="none" fill="none" stroke="white" stroke-width="1.5" d="M0,-3.0v7 M-2.5,-0.5L0,-3.0L2.5,-0.5"/>
  </g>
  <g id="arrowRight" transform="rotate(90) translate(36 -43)">
    <use xlink:href="#rim"/>
    <path pointer-events="none" fill="none" stroke="white" stroke-width="1.5" d="M0,-3.0v7 M-2.5,-0.5L0,-3.0L2.5,-0.5"/>
  </g>
  <g id="arrowDown" transform="rotate(180) translate(-30 -48)">
    <use xlink:href="#rim"/>
    <path pointer-events="none" fill="none" stroke="white" stroke-width="1.5" d="M0,-3.0v7 M-2.5,-0.5L0,-3.0L2.5,-0.5"/>
  </g>
  <g id="arrowLeft" transform="rotate(270) translate(-36 17)">
    <use xlink:href="#rim"/>
    <path pointer-events="none" fill="none" stroke="white" stroke-width="1.5" d="M0,-3.0v7 M-2.5,-0.5L0,-3.0L2.5,-0.5"/>
  </g>
  <g id="resetDef">
    <use xlink:href="#rim2" fill="#404040"><set attributeName="fill" to="#808080" begin="reset.mouseover" end="reset.mouseout"/></use>
  </g>
</defs>
<script type="application/ecmascript">
var viewWidth = 1131;
var viewHeight = 1257;
var sectionId = 'dynsection-1';
</script>
<script type="application/ecmascript" xlink:href="../../svg.min.js"/>
<svg id="graph" class="graph">
<g id="viewport">
<title>SymmPackMat&lt; T &gt;</title>
<!-- Node1 -->
<g id="Node000001" class="node">
<title>Node1</title>
<g id="a_Node000001"><a xlink:title="A SymmPackMat class that holds matrices.">
<polygon fill="#999999" stroke="transparent" points="874,-164 755,-164 755,0 874,0 874,-164"/>
<text text-anchor="start" x="760.5" y="-151.2" font-family="Consolas" font-size="11.00">SymmPackMat&lt; T &gt;</text>
<text text-anchor="start" x="811.5" y="-135.2" font-family="Consolas" font-size="11.00"> </text>
<text text-anchor="start" x="760.5" y="-119.2" font-family="Consolas" font-size="11.00">+</text>
<text text-anchor="start" x="772.5" y="-119.2" font-family="Consolas" font-size="11.00">SymmPackMat()</text>
<text text-anchor="start" x="760.5" y="-103.2" font-family="Consolas" font-size="11.00">+</text>
<text text-anchor="start" x="772.5" y="-103.2" font-family="Consolas" font-size="11.00">make_copy()</text>
<text text-anchor="start" x="760.5" y="-87.2" font-family="Consolas" font-size="11.00">+</text>
<text text-anchor="start" x="772.5" y="-87.2" font-family="Consolas" font-size="11.00">nullify()</text>
<text text-anchor="start" x="760.5" y="-71.2" font-family="Consolas" font-size="11.00">+</text>
<text text-anchor="start" x="772.5" y="-71.2" font-family="Consolas" font-size="11.00">operator()()</text>
<text text-anchor="start" x="760.5" y="-55.2" font-family="Consolas" font-size="11.00">+</text>
<text text-anchor="start" x="772.5" y="-55.2" font-family="Consolas" font-size="11.00">unsafe_at()</text>
<text text-anchor="start" x="760.5" y="-39.2" font-family="Consolas" font-size="11.00">+</text>
<text text-anchor="start" x="772.5" y="-39.2" font-family="Consolas" font-size="11.00">at()</text>
<text text-anchor="start" x="760.5" y="-23.2" font-family="Consolas" font-size="11.00">+</text>
<text text-anchor="start" x="772.5" y="-23.2" font-family="Consolas" font-size="11.00">operator*()</text>
<text text-anchor="start" x="760.5" y="-7.2" font-family="Consolas" font-size="11.00">#</text>
<text text-anchor="start" x="772.5" y="-7.2" font-family="Consolas" font-size="11.00">direct_solve()</text>
<polygon fill="#666666" stroke="#666666" points="755.5,-146 755.5,-146 874.5,-146 874.5,-146 755.5,-146"/>
<polygon fill="#666666" stroke="#666666" points="755.5,-130 755.5,-130 874.5,-130 874.5,-130 755.5,-130"/>
<polygon fill="none" stroke="#666666" points="755,0 755,-164 874,-164 874,0 755,0"/>
</a>
</g>
</g>
<!-- Node2 -->
<g id="Node000002" class="node">
<title>Node2</title>
<g id="a_Node000002"><a xlink:href="../../d0/de9/class_dense_mat.html" target="_top" xlink:title="A DenseMat class that holds matrices.">
<polygon fill="white" stroke="transparent" points="871.5,-445 757.5,-445 757.5,-201 871.5,-201 871.5,-445"/>
<text text-anchor="start" x="770.5" y="-432.2" font-family="Consolas" font-size="11.00">DenseMat&lt; T &gt;</text>
<text text-anchor="start" x="811" y="-416.2" font-family="Consolas" font-size="11.00"> </text>
<text text-anchor="start" x="761.5" y="-400.2" font-family="Consolas" font-size="11.00">+</text>
<text text-anchor="start" x="772.5" y="-400.2" font-family="Consolas" font-size="11.00">DenseMat()</text>
<text text-anchor="start" x="761.5" y="-384.2" font-family="Consolas" font-size="11.00">+</text>
<text text-anchor="start" x="772.5" y="-384.2" font-family="Consolas" font-size="11.00">DenseMat()</text>
<text text-anchor="start" x="761.5" y="-368.2" font-family="Consolas" font-size="11.00">+</text>
<text text-anchor="start" x="772.5" y="-368.2" font-family="Consolas" font-size="11.00">DenseMat()</text>
<text text-anchor="start" x="761.5" y="-352.2" font-family="Consolas" font-size="11.00">+</text>
<text text-anchor="start" x="772.5" y="-352.2" font-family="Consolas" font-size="11.00">operator=()</text>
<text text-anchor="start" x="761.5" y="-336.2" font-family="Consolas" font-size="11.00">+</text>
<text text-anchor="start" x="772.5" y="-336.2" font-family="Consolas" font-size="11.00">operator=()</text>
<text text-anchor="start" x="761.5" y="-320.2" font-family="Consolas" font-size="11.00">+</text>
<text text-anchor="start" x="772.5" y="-320.2" font-family="Consolas" font-size="11.00">~DenseMat()</text>
<text text-anchor="start" x="761.5" y="-304.2" font-family="Consolas" font-size="11.00">+</text>
<text text-anchor="start" x="772.5" y="-304.2" font-family="Consolas" font-size="11.00">is_empty()</text>
<text text-anchor="start" x="761.5" y="-288.2" font-family="Consolas" font-size="11.00">+</text>
<text text-anchor="start" x="772.5" y="-288.2" font-family="Consolas" font-size="11.00">zeros()</text>
<text text-anchor="start" x="761.5" y="-272.2" font-family="Consolas" font-size="11.00">+</text>
<text text-anchor="start" x="772.5" y="-272.2" font-family="Consolas" font-size="11.00">max()</text>
<text text-anchor="start" x="761.5" y="-256.2" font-family="Consolas" font-size="11.00">+</text>
<text text-anchor="start" x="772.5" y="-256.2" font-family="Consolas" font-size="11.00">diag()</text>
<text text-anchor="start" x="772.5" y="-240.2" font-family="Consolas" font-size="11.00">and 6 more...</text>
<text text-anchor="start" x="761.5" y="-224.2" font-family="Consolas" font-size="11.00">#</text>
<text text-anchor="start" x="772.5" y="-224.2" font-family="Consolas" font-size="11.00">direct_solve()</text>
<text text-anchor="start" x="761.5" y="-208.2" font-family="Consolas" font-size="11.00">#</text>
<text text-anchor="start" x="772.5" y="-208.2" font-family="Consolas" font-size="11.00">to_float()</text>
<polygon fill="#666666" stroke="#666666" points="757.5,-427 757.5,-427 871.5,-427 871.5,-427 757.5,-427"/>
<polygon fill="#666666" stroke="#666666" points="757.5,-411 757.5,-411 871.5,-411 871.5,-411 757.5,-411"/>
<polygon fill="none" stroke="#666666" points="757.5,-201 757.5,-445 871.5,-445 871.5,-201 757.5,-201"/>
</a>
</g>
</g>
<!-- Node2&#45;&gt;Node1 -->
<g id="edge1_Node000001_Node000002" class="edge">
<title>Node2&#45;&gt;Node1</title>
<g id="a_edge1_Node000001_Node000002"><a xlink:title=" ">
<path fill="none" stroke="#63b8ff" d="M814.5,-190.62C814.5,-181.68 814.5,-172.82 814.5,-164.26"/>
<polygon fill="none" stroke="#63b8ff" points="811,-190.75 814.5,-200.75 818,-190.75 811,-190.75"/>
</a>
</g>
</g>
<!-- Node3 -->
<g id="Node000003" class="node">
<title>Node3</title>
<g id="a_Node000003"><a xlink:href="../../d8/d79/class_meta_mat.html" target="_top" xlink:title="A MetaMat class that holds matrices.">
<polygon fill="white" stroke="transparent" points="672,-817 517,-817 517,-493 672,-493 672,-817"/>
<text text-anchor="start" x="554" y="-804.2" font-family="Consolas" font-size="11.00">MetaMat&lt; T &gt;</text>
<text text-anchor="start" x="591.5" y="-788.2" font-family="Consolas" font-size="11.00"> </text>
<text text-anchor="start" x="521.5" y="-772.2" font-family="Consolas" font-size="11.00">+</text>
<text text-anchor="start" x="532.5" y="-772.2" font-family="Consolas" font-size="11.00">MetaMat()</text>
<text text-anchor="start" x="521.5" y="-756.2" font-family="Consolas" font-size="11.00">+</text>
<text text-anchor="start" x="532.5" y="-756.2" font-family="Consolas" font-size="11.00">MetaMat()</text>
<text text-anchor="start" x="521.5" y="-740.2" font-family="Consolas" font-size="11.00">+</text>
<text text-anchor="start" x="532.5" y="-740.2" font-family="Consolas" font-size="11.00">MetaMat()</text>
<text text-anchor="start" x="521.5" y="-724.2" font-family="Consolas" font-size="11.00">+</text>
<text text-anchor="start" x="532.5" y="-724.2" font-family="Consolas" font-size="11.00">operator=()</text>
<text text-anchor="start" x="521.5" y="-708.2" font-family="Consolas" font-size="11.00">+</text>
<text text-anchor="start" x="532.5" y="-708.2" font-family="Consolas" font-size="11.00">operator=()</text>
<text text-anchor="start" x="521.5" y="-692.2" font-family="Consolas" font-size="11.00">+</text>
<text text-anchor="start" x="532.5" y="-692.2" font-family="Consolas" font-size="11.00">~MetaMat()</text>
<text text-anchor="start" x="521.5" y="-676.2" font-family="Consolas" font-size="11.00">+</text>
<text text-anchor="start" x="532.5" y="-676.2" font-family="Consolas" font-size="11.00">set_solver_setting()</text>
<text text-anchor="start" x="521.5" y="-660.2" font-family="Consolas" font-size="11.00">+</text>
<text text-anchor="start" x="532.5" y="-660.2" font-family="Consolas" font-size="11.00">get_solver_setting()</text>
<text text-anchor="start" x="521.5" y="-644.2" font-family="Consolas" font-size="11.00">+</text>
<text text-anchor="start" x="532.5" y="-644.2" font-family="Consolas" font-size="11.00">set_factored()</text>
<text text-anchor="start" x="521.5" y="-628.2" font-family="Consolas" font-size="11.00">+</text>
<text text-anchor="start" x="532.5" y="-628.2" font-family="Consolas" font-size="11.00">is_empty()</text>
<text text-anchor="start" x="532.5" y="-612.2" font-family="Consolas" font-size="11.00">and 28 more...</text>
<text text-anchor="start" x="521.5" y="-596.2" font-family="Consolas" font-size="11.00">#</text>
<text text-anchor="start" x="532.5" y="-596.2" font-family="Consolas" font-size="11.00">direct_solve()</text>
<text text-anchor="start" x="521.5" y="-580.2" font-family="Consolas" font-size="11.00">#</text>
<text text-anchor="start" x="532.5" y="-580.2" font-family="Consolas" font-size="11.00">direct_solve()</text>
<text text-anchor="start" x="521.5" y="-564.2" font-family="Consolas" font-size="11.00">#</text>
<text text-anchor="start" x="532.5" y="-564.2" font-family="Consolas" font-size="11.00">direct_solve()</text>
<text text-anchor="start" x="521.5" y="-548.2" font-family="Consolas" font-size="11.00">#</text>
<text text-anchor="start" x="532.5" y="-548.2" font-family="Consolas" font-size="11.00">direct_solve()</text>
<text text-anchor="start" x="521.5" y="-532.2" font-family="Consolas" font-size="11.00">#</text>
<text text-anchor="start" x="532.5" y="-532.2" font-family="Consolas" font-size="11.00">iterative_solve()</text>
<text text-anchor="start" x="521.5" y="-516.2" font-family="Consolas" font-size="11.00">#</text>
<text text-anchor="start" x="532.5" y="-516.2" font-family="Consolas" font-size="11.00">iterative_solve()</text>
<text text-anchor="start" x="521.5" y="-500.2" font-family="Consolas" font-size="11.00">#</text>
<text text-anchor="start" x="532.5" y="-500.2" font-family="Consolas" font-size="11.00">mixed_trs()</text>
<polygon fill="#666666" stroke="#666666" points="517.5,-799 517.5,-799 672.5,-799 672.5,-799 517.5,-799"/>
<polygon fill="#666666" stroke="#666666" points="517.5,-783 517.5,-783 672.5,-783 672.5,-783 517.5,-783"/>
<polygon fill="none" stroke="#666666" points="517,-493 517,-817 672,-817 672,-493 517,-493"/>
</a>
</g>
</g>
<!-- Node3&#45;&gt;Node2 -->
<g id="edge2_Node000002_Node000003" class="edge">
<title>Node3&#45;&gt;Node2</title>
<g id="a_edge2_Node000002_Node000003"><a xlink:title=" ">
<path fill="none" stroke="#63b8ff" d="M677.68,-498.88C678.95,-496.9 680.22,-494.94 681.5,-493 704.45,-458.05 732.78,-421.33 757.39,-391.08"/>
<polygon fill="none" stroke="#63b8ff" points="674.51,-497.35 672.13,-507.67 680.43,-501.09 674.51,-497.35"/>
</a>
</g>
</g>
<!-- Node4 -->
<g id="Node000004" class="node">
<title>Node4</title>
<g id="a_Node000004"><a xlink:title=" ">
<polygon fill="white" stroke="transparent" points="424.5,-1021 386.5,-1021 386.5,-969 424.5,-969 424.5,-1021"/>
<text text-anchor="start" x="391.5" y="-1008.2" font-family="Consolas" font-size="11.00">bool</text>
<text text-anchor="start" x="402" y="-992.2" font-family="Consolas" font-size="11.00"> </text>
<text text-anchor="start" x="402" y="-976.2" font-family="Consolas" font-size="11.00"> </text>
<polygon fill="#666666" stroke="#666666" points="386.5,-1003 386.5,-1003 424.5,-1003 424.5,-1003 386.5,-1003"/>
<polygon fill="#666666" stroke="#666666" points="386.5,-987 386.5,-987 424.5,-987 424.5,-987 386.5,-987"/>
<polygon fill="none" stroke="#666666" points="386.5,-969 386.5,-1021 424.5,-1021 424.5,-969 386.5,-969"/>
</a>
</g>
</g>
<!-- Node4&#45;&gt;Node3 -->
<g id="edge3_Node000003_Node000004" class="edge">
<title>Node4&#45;&gt;Node3</title>
<g id="a_edge3_Node000003_Node000004"><a xlink:title=" ">
<path fill="none" stroke="#63b8ff" d="M409.85,-968.6C414.14,-946.83 421.77,-914.96 433.5,-889 453.52,-844.68 482.11,-799.82 509.65,-761.46"/>
<polygon fill="none" stroke="#63b8ff" points="509.95,-761.05 510.24,-753.84 517,-751.34 516.71,-758.55 509.95,-761.05"/>
</a>
</g>
<text text-anchor="middle" x="492.5" y="-850.2" font-family="Consolas" font-size="11.00" fill="grey"> #factored</text>
</g>
<!-- Node5 -->
<g id="Node000005" class="node">
<title>Node5</title>
<g id="a_Node000005"><a xlink:href="../../d5/d59/struct_solver_setting.html" target="_top" xlink:title=" ">
<polygon fill="white" stroke="transparent" points="574.5,-1021 442.5,-1021 442.5,-969 574.5,-969 574.5,-1021"/>
<text text-anchor="start" x="447.5" y="-1008.2" font-family="Consolas" font-size="11.00">SolverSetting&lt; T &gt;</text>
<text text-anchor="start" x="505" y="-992.2" font-family="Consolas" font-size="11.00"> </text>
<text text-anchor="start" x="505" y="-976.2" font-family="Consolas" font-size="11.00"> </text>
<polygon fill="#666666" stroke="#666666" points="442.5,-1003 442.5,-1003 574.5,-1003 574.5,-1003 442.5,-1003"/>
<polygon fill="#666666" stroke="#666666" points="442.5,-987 442.5,-987 574.5,-987 574.5,-987 442.5,-987"/>
<polygon fill="none" stroke="#666666" points="442.5,-969 442.5,-1021 574.5,-1021 574.5,-969 442.5,-969"/>
</a>
</g>
</g>
<!-- Node5&#45;&gt;Node3 -->
<g id="edge4_Node000003_Node000005" class="edge">
<title>Node5&#45;&gt;Node3</title>
<g id="a_edge4_Node000003_Node000005"><a xlink:title=" ">
<path fill="none" stroke="#63b8ff" d="M514.89,-968.87C522.67,-938.3 536.5,-883.95 550.47,-829.03"/>
<polygon fill="none" stroke="#63b8ff" points="550.5,-828.94 548.1,-822.14 553.46,-817.31 555.85,-824.12 550.5,-828.94"/>
</a>
</g>
<text text-anchor="middle" x="580" y="-850.2" font-family="Consolas" font-size="11.00" fill="grey"> #setting</text>
</g>
<!-- Node6 -->
<g id="Node000006" class="node">
<title>Node6</title>
<g id="a_Node000006"><a xlink:title=" ">
<polygon fill="white" stroke="transparent" points="31,-1243 0,-1243 0,-1191 31,-1191 31,-1243"/>
<text text-anchor="start" x="5.5" y="-1230.2" font-family="Consolas" font-size="11.00">int</text>
<text text-anchor="start" x="12.5" y="-1214.2" font-family="Consolas" font-size="11.00"> </text>
<text text-anchor="start" x="12.5" y="-1198.2" font-family="Consolas" font-size="11.00"> </text>
<polygon fill="#666666" stroke="#666666" points="0.5,-1225 0.5,-1225 31.5,-1225 31.5,-1225 0.5,-1225"/>
<polygon fill="#666666" stroke="#666666" points="0.5,-1209 0.5,-1209 31.5,-1209 31.5,-1209 0.5,-1209"/>
<polygon fill="none" stroke="#666666" points="0,-1191 0,-1243 31,-1243 31,-1191 0,-1191"/>
</a>
</g>
</g>
<!-- Node6&#45;&gt;Node5 -->
<g id="edge5_Node000005_Node000006" class="edge">
<title>Node6&#45;&gt;Node5</title>
<g id="a_edge5_Node000005_Node000006"><a xlink:title=" ">
<path fill="none" stroke="#63b8ff" d="M12.34,-1190.76C11.1,-1168.31 13.47,-1136.43 33.5,-1119 67.06,-1089.79 394.41,-1122.24 433.5,-1101 461.03,-1086.04 480.86,-1056.09 493.19,-1031.99"/>
<polygon fill="none" stroke="#63b8ff" points="493.25,-1031.86 492.27,-1024.72 498.49,-1021.07 499.47,-1028.21 493.25,-1031.86"/>
</a>
</g>
<text text-anchor="middle" x="84.5" y="-1146.2" font-family="Consolas" font-size="11.00" fill="grey"> +max_iteration</text>
<text text-anchor="middle" x="84.5" y="-1134.2" font-family="Consolas" font-size="11.00" fill="grey">+restart</text>
</g>
<!-- Node7 -->
<g id="Node000007" class="node">
<title>Node7</title>
<g id="a_Node000007"><a xlink:title=" ">
<polygon fill="white" stroke="transparent" points="166,-1243 115,-1243 115,-1191 166,-1191 166,-1243"/>
<text text-anchor="start" x="120.5" y="-1230.2" font-family="Consolas" font-size="11.00">data_t</text>
<text text-anchor="start" x="137.5" y="-1214.2" font-family="Consolas" font-size="11.00"> </text>
<text text-anchor="start" x="137.5" y="-1198.2" font-family="Consolas" font-size="11.00"> </text>
<polygon fill="#666666" stroke="#666666" points="115.5,-1225 115.5,-1225 166.5,-1225 166.5,-1225 115.5,-1225"/>
<polygon fill="#666666" stroke="#666666" points="115.5,-1209 115.5,-1209 166.5,-1209 166.5,-1209 115.5,-1209"/>
<polygon fill="none" stroke="#666666" points="115,-1191 115,-1243 166,-1243 166,-1191 115,-1191"/>
</a>
</g>
</g>
<!-- Node7&#45;&gt;Node5 -->
<g id="edge6_Node000005_Node000007" class="edge">
<title>Node7&#45;&gt;Node5</title>
<g id="a_edge6_Node000005_Node000007"><a xlink:title=" ">
<path fill="none" stroke="#63b8ff" d="M137.71,-1190.82C136.78,-1168.42 139.53,-1136.57 159.5,-1119 205.32,-1078.7 380.19,-1130.69 433.5,-1101 460.7,-1085.85 480.48,-1056.2 492.87,-1032.26"/>
<polygon fill="none" stroke="#63b8ff" points="492.91,-1032.17 491.96,-1025.02 498.2,-1021.4 499.15,-1028.55 492.91,-1032.17"/>
</a>
</g>
<text text-anchor="middle" x="197" y="-1140.2" font-family="Consolas" font-size="11.00" fill="grey"> +tolerance</text>
</g>
<!-- Node8 -->
<g id="Node000008" class="node">
<title>Node8</title>
<g id="a_Node000008"><a xlink:title=" ">
<polygon fill="white" stroke="transparent" points="271,-1243 206,-1243 206,-1191 271,-1191 271,-1243"/>
<text text-anchor="start" x="211.5" y="-1230.2" font-family="Consolas" font-size="11.00">unsigned</text>
<text text-anchor="start" x="235.5" y="-1214.2" font-family="Consolas" font-size="11.00"> </text>
<text text-anchor="start" x="235.5" y="-1198.2" font-family="Consolas" font-size="11.00"> </text>
<polygon fill="#666666" stroke="#666666" points="206.5,-1225 206.5,-1225 271.5,-1225 271.5,-1225 206.5,-1225"/>
<polygon fill="#666666" stroke="#666666" points="206.5,-1209 206.5,-1209 271.5,-1209 271.5,-1209 206.5,-1209"/>
<polygon fill="none" stroke="#666666" points="206,-1191 206,-1243 271,-1243 271,-1191 206,-1191"/>
</a>
</g>
</g>
<!-- Node8&#45;&gt;Node5 -->
<g id="edge7_Node000005_Node000008" class="edge">
<title>Node8&#45;&gt;Node5</title>
<g id="a_edge7_Node000005_Node000008"><a xlink:title=" ">
<path fill="none" stroke="#63b8ff" d="M236.72,-1190.91C236.64,-1168.58 240.48,-1136.76 260.5,-1119 289.41,-1093.35 400.09,-1120.44 433.5,-1101 460.41,-1085.34 480.21,-1055.73 492.68,-1031.94"/>
<polygon fill="none" stroke="#63b8ff" points="492.71,-1031.89 491.8,-1024.74 498.06,-1021.15 498.96,-1028.31 492.71,-1031.89"/>
</a>
</g>
<text text-anchor="middle" x="335" y="-1140.2" font-family="Consolas" font-size="11.00" fill="grey"> +iterative_refinement</text>
</g>
<!-- Node9 -->
<g id="Node000009" class="node">
<title>Node9</title>
<g id="a_Node000009"><a xlink:title=" ">
<polygon fill="white" stroke="transparent" points="436,-1243 365,-1243 365,-1191 436,-1191 436,-1243"/>
<text text-anchor="start" x="370.5" y="-1230.2" font-family="Consolas" font-size="11.00">Precision</text>
<text text-anchor="start" x="397.5" y="-1214.2" font-family="Consolas" font-size="11.00"> </text>
<text text-anchor="start" x="397.5" y="-1198.2" font-family="Consolas" font-size="11.00"> </text>
<polygon fill="#666666" stroke="#666666" points="365.5,-1225 365.5,-1225 436.5,-1225 436.5,-1225 365.5,-1225"/>
<polygon fill="#666666" stroke="#666666" points="365.5,-1209 365.5,-1209 436.5,-1209 436.5,-1209 365.5,-1209"/>
<polygon fill="none" stroke="#666666" points="365,-1191 365,-1243 436,-1243 436,-1191 365,-1191"/>
</a>
</g>
</g>
<!-- Node9&#45;&gt;Node5 -->
<g id="edge8_Node000005_Node000009" class="edge">
<title>Node9&#45;&gt;Node5</title>
<g id="a_edge8_Node000005_Node000009"><a xlink:title=" ">
<path fill="none" stroke="#63b8ff" d="M406.38,-1190.61C411.47,-1170.63 419.71,-1142.37 430.5,-1119 444.9,-1087.8 465.99,-1055.07 482.61,-1031.22"/>
<polygon fill="none" stroke="#63b8ff" points="482.73,-1031.05 482.93,-1023.84 489.66,-1021.25 489.46,-1028.46 482.73,-1031.05"/>
</a>
</g>
<text text-anchor="middle" x="468" y="-1140.2" font-family="Consolas" font-size="11.00" fill="grey"> +precision</text>
</g>
<!-- Node10 -->
<g id="Node000010" class="node">
<title>Node10</title>
<g id="a_Node000010"><a xlink:title=" ">
<polygon fill="white" stroke="transparent" points="566.5,-1243 454.5,-1243 454.5,-1191 566.5,-1191 566.5,-1243"/>
<text text-anchor="start" x="459.5" y="-1230.2" font-family="Consolas" font-size="11.00">IterativeSolver</text>
<text text-anchor="start" x="507" y="-1214.2" font-family="Consolas" font-size="11.00"> </text>
<text text-anchor="start" x="507" y="-1198.2" font-family="Consolas" font-size="11.00"> </text>
<polygon fill="#666666" stroke="#666666" points="454.5,-1225 454.5,-1225 566.5,-1225 566.5,-1225 454.5,-1225"/>
<polygon fill="#666666" stroke="#666666" points="454.5,-1209 454.5,-1209 566.5,-1209 566.5,-1209 454.5,-1209"/>
<polygon fill="none" stroke="#666666" points="454.5,-1191 454.5,-1243 566.5,-1243 566.5,-1191 454.5,-1191"/>
</a>
</g>
</g>
<!-- Node10&#45;&gt;Node5 -->
<g id="edge9_Node000005_Node000010" class="edge">
<title>Node10&#45;&gt;Node5</title>
<g id="a_edge9_Node000005_Node000010"><a xlink:title=" ">
<path fill="none" stroke="#63b8ff" d="M509.92,-1190.82C509.76,-1183.17 509.6,-1174.74 509.5,-1167 508.9,-1121.07 508.66,-1068.19 508.56,-1033.54"/>
<polygon fill="none" stroke="#63b8ff" points="508.56,-1033.21 504.55,-1027.22 508.53,-1021.21 512.55,-1027.2 508.56,-1033.21"/>
</a>
</g>
<text text-anchor="middle" x="570.5" y="-1140.2" font-family="Consolas" font-size="11.00" fill="grey"> +iterative_solver</text>
</g>
<!-- Node11 -->
<g id="Node000011" class="node">
<title>Node11</title>
<g id="a_Node000011"><a xlink:title=" ">
<polygon fill="white" stroke="transparent" points="719.5,-1243 587.5,-1243 587.5,-1191 719.5,-1191 719.5,-1243"/>
<text text-anchor="start" x="592.5" y="-1230.2" font-family="Consolas" font-size="11.00">PreconditionerType</text>
<text text-anchor="start" x="650" y="-1214.2" font-family="Consolas" font-size="11.00"> </text>
<text text-anchor="start" x="650" y="-1198.2" font-family="Consolas" font-size="11.00"> </text>
<polygon fill="#666666" stroke="#666666" points="587.5,-1225 587.5,-1225 719.5,-1225 719.5,-1225 587.5,-1225"/>
<polygon fill="#666666" stroke="#666666" points="587.5,-1209 587.5,-1209 719.5,-1209 719.5,-1209 587.5,-1209"/>
<polygon fill="none" stroke="#666666" points="587.5,-1191 587.5,-1243 719.5,-1243 719.5,-1191 587.5,-1191"/>
</a>
</g>
</g>
<!-- Node11&#45;&gt;Node5 -->
<g id="edge10_Node000005_Node000011" class="edge">
<title>Node11&#45;&gt;Node5</title>
<g id="a_edge10_Node000005_Node000011"><a xlink:title=" ">
<path fill="none" stroke="#63b8ff" d="M654.1,-1190.77C653.28,-1169.26 648.76,-1138.78 631.5,-1119 616.52,-1101.83 601.57,-1114.87 583.5,-1101 559.52,-1082.6 539.99,-1054.43 526.87,-1031.9"/>
<polygon fill="none" stroke="#63b8ff" points="526.83,-1031.82 520.4,-1028.55 520.96,-1021.36 527.38,-1024.63 526.83,-1031.82"/>
</a>
</g>
<text text-anchor="middle" x="722.5" y="-1140.2" font-family="Consolas" font-size="11.00" fill="grey"> +preconditioner_type</text>
</g>
<!-- Node12 -->
<g id="Node000012" class="node">
<title>Node12</title>
<g id="a_Node000012"><a xlink:title=" ">
<polygon fill="white" stroke="transparent" points="891.5,-1249 745.5,-1249 745.5,-1185 891.5,-1185 891.5,-1249"/>
<text text-anchor="start" x="750.5" y="-1236.2" font-family="Consolas" font-size="11.00">Preconditioner&lt; data</text>
<text text-anchor="start" x="798" y="-1224.2" font-family="Consolas" font-size="11.00">_t &gt; *</text>
<text text-anchor="start" x="815" y="-1208.2" font-family="Consolas" font-size="11.00"> </text>
<text text-anchor="start" x="815" y="-1192.2" font-family="Consolas" font-size="11.00"> </text>
<polygon fill="#666666" stroke="#666666" points="745.5,-1219 745.5,-1219 891.5,-1219 891.5,-1219 745.5,-1219"/>
<polygon fill="#666666" stroke="#666666" points="745.5,-1203 745.5,-1203 891.5,-1203 891.5,-1203 745.5,-1203"/>
<polygon fill="none" stroke="#666666" points="745.5,-1185 745.5,-1249 891.5,-1249 891.5,-1185 745.5,-1185"/>
</a>
</g>
</g>
<!-- Node12&#45;&gt;Node5 -->
<g id="edge11_Node000005_Node000012" class="edge">
<title>Node12&#45;&gt;Node5</title>
<g id="a_edge11_Node000005_Node000012"><a xlink:title=" ">
<path fill="none" stroke="#63b8ff" d="M820.29,-1184.54C819.68,-1162.78 814.87,-1134.98 796.5,-1119 760.66,-1087.82 624.78,-1124.5 583.5,-1101 556.44,-1085.6 536.66,-1055.97 524.22,-1032.1"/>
<polygon fill="none" stroke="#63b8ff" points="524.19,-1032.03 517.94,-1028.43 518.87,-1021.28 525.11,-1024.88 524.19,-1032.03"/>
</a>
</g>
<text text-anchor="middle" x="874" y="-1140.2" font-family="Consolas" font-size="11.00" fill="grey"> +preconditioner</text>
</g>
<!-- Node13 -->
<g id="Node000013" class="node">
<title>Node13</title>
<g id="a_Node000013"><a xlink:title=" ">
<polygon fill="white" stroke="transparent" points="976,-1243 925,-1243 925,-1191 976,-1191 976,-1243"/>
<text text-anchor="start" x="930.5" y="-1230.2" font-family="Consolas" font-size="11.00">string</text>
<text text-anchor="start" x="947.5" y="-1214.2" font-family="Consolas" font-size="11.00"> </text>
<text text-anchor="start" x="947.5" y="-1198.2" font-family="Consolas" font-size="11.00"> </text>
<polygon fill="#666666" stroke="#666666" points="925.5,-1225 925.5,-1225 976.5,-1225 976.5,-1225 925.5,-1225"/>
<polygon fill="#666666" stroke="#666666" points="925.5,-1209 925.5,-1209 976.5,-1209 976.5,-1209 925.5,-1209"/>
<polygon fill="none" stroke="#666666" points="925,-1191 925,-1243 976,-1243 976,-1191 925,-1191"/>
</a>
</g>
</g>
<!-- Node13&#45;&gt;Node5 -->
<g id="edge12_Node000005_Node000013" class="edge">
<title>Node13&#45;&gt;Node5</title>
<g id="a_edge12_Node000005_Node000013"><a xlink:title=" ">
<path fill="none" stroke="#63b8ff" d="M948.21,-1190.96C945.31,-1165.36 939.33,-1128.12 928.5,-1119 899.14,-1094.27 617.16,-1119.45 583.5,-1101 556.03,-1085.94 536.19,-1056 523.84,-1031.93"/>
<polygon fill="none" stroke="#63b8ff" points="523.78,-1031.81 517.56,-1028.16 518.54,-1021.02 524.76,-1024.67 523.78,-1031.81"/>
</a>
</g>
<text text-anchor="middle" x="988.5" y="-1140.2" font-family="Consolas" font-size="11.00" fill="grey"> +lis_options</text>
</g>
<!-- Node14 -->
<g id="Node000014" class="node">
<title>Node14</title>
<g id="a_Node000014"><a xlink:href="../../db/d78/classtriplet__form.html" target="_top" xlink:title=" ">
<polygon fill="white" stroke="transparent" points="766,-1101 593,-1101 593,-889 766,-889 766,-1101"/>
<text text-anchor="start" x="598.5" y="-1088.2" font-family="Consolas" font-size="11.00">triplet_form&lt; T, uword &gt;</text>
<text text-anchor="start" x="676.5" y="-1072.2" font-family="Consolas" font-size="11.00"> </text>
<text text-anchor="start" x="610.5" y="-1056.2" font-family="Consolas" font-size="11.00">+</text>
<text text-anchor="start" x="634.5" y="-1056.2" font-family="Consolas" font-size="11.00">triplet_form()</text>
<text text-anchor="start" x="610.5" y="-1040.2" font-family="Consolas" font-size="11.00">+</text>
<text text-anchor="start" x="634.5" y="-1040.2" font-family="Consolas" font-size="11.00">triplet_form()</text>
<text text-anchor="start" x="610.5" y="-1024.2" font-family="Consolas" font-size="11.00">+</text>
<text text-anchor="start" x="634.5" y="-1024.2" font-family="Consolas" font-size="11.00">triplet_form()</text>
<text text-anchor="start" x="610.5" y="-1008.2" font-family="Consolas" font-size="11.00">+</text>
<text text-anchor="start" x="634.5" y="-1008.2" font-family="Consolas" font-size="11.00">triplet_form()</text>
<text text-anchor="start" x="610.5" y="-992.2" font-family="Consolas" font-size="11.00">+</text>
<text text-anchor="start" x="634.5" y="-992.2" font-family="Consolas" font-size="11.00">triplet_form()</text>
<text text-anchor="start" x="610.5" y="-976.2" font-family="Consolas" font-size="11.00">+</text>
<text text-anchor="start" x="634.5" y="-976.2" font-family="Consolas" font-size="11.00">triplet_form()</text>
<text text-anchor="start" x="610.5" y="-960.2" font-family="Consolas" font-size="11.00">+</text>
<text text-anchor="start" x="634.5" y="-960.2" font-family="Consolas" font-size="11.00">operator=()</text>
<text text-anchor="start" x="610.5" y="-944.2" font-family="Consolas" font-size="11.00">+</text>
<text text-anchor="start" x="634.5" y="-944.2" font-family="Consolas" font-size="11.00">operator=()</text>
<text text-anchor="start" x="610.5" y="-928.2" font-family="Consolas" font-size="11.00">+</text>
<text text-anchor="start" x="634.5" y="-928.2" font-family="Consolas" font-size="11.00">~triplet_form()</text>
<text text-anchor="start" x="610.5" y="-912.2" font-family="Consolas" font-size="11.00">+</text>
<text text-anchor="start" x="634.5" y="-912.2" font-family="Consolas" font-size="11.00">row_mem()</text>
<text text-anchor="start" x="634.5" y="-896.2" font-family="Consolas" font-size="11.00">and 47 more...</text>
<polygon fill="#666666" stroke="#666666" points="593.5,-1083 593.5,-1083 766.5,-1083 766.5,-1083 593.5,-1083"/>
<polygon fill="#666666" stroke="#666666" points="593.5,-1067 593.5,-1067 766.5,-1067 766.5,-1067 593.5,-1067"/>
<polygon fill="none" stroke="#666666" points="593,-889 593,-1101 766,-1101 766,-889 593,-889"/>
</a>
</g>
</g>
<!-- Node14&#45;&gt;Node3 -->
<g id="edge13_Node000003_Node000014" class="edge">
<title>Node14&#45;&gt;Node3</title>
<g id="a_edge13_Node000003_Node000014"><a xlink:title=" ">
<path fill="none" stroke="#63b8ff" d="M653.07,-888.91C648.26,-869.78 643.13,-849.38 637.98,-828.9"/>
<polygon fill="none" stroke="#63b8ff" points="637.96,-828.82 632.62,-823.98 635.03,-817.18 640.38,-822.03 637.96,-828.82"/>
</a>
</g>
<text text-anchor="middle" x="691.5" y="-850.2" font-family="Consolas" font-size="11.00" fill="grey"> +triplet_mat</text>
</g>
<!-- Node15 -->
<g id="Node000015" class="node">
<title>Node15</title>
<g id="a_Node000015"><a xlink:title=" ">
<polygon fill="white" stroke="transparent" points="1090.5,-1243 1032.5,-1243 1032.5,-1191 1090.5,-1191 1090.5,-1243"/>
<text text-anchor="start" x="1037.5" y="-1230.2" font-family="Consolas" font-size="11.00">index_t</text>
<text text-anchor="start" x="1058" y="-1214.2" font-family="Consolas" font-size="11.00"> </text>
<text text-anchor="start" x="1058" y="-1198.2" font-family="Consolas" font-size="11.00"> </text>
<polygon fill="#666666" stroke="#666666" points="1032.5,-1225 1032.5,-1225 1090.5,-1225 1090.5,-1225 1032.5,-1225"/>
<polygon fill="#666666" stroke="#666666" points="1032.5,-1209 1032.5,-1209 1090.5,-1209 1090.5,-1209 1032.5,-1209"/>
<polygon fill="none" stroke="#666666" points="1032.5,-1191 1032.5,-1243 1090.5,-1243 1090.5,-1191 1032.5,-1191"/>
</a>
</g>
</g>
<!-- Node15&#45;&gt;Node14 -->
<g id="edge14_Node000014_Node000015" class="edge">
<title>Node15&#45;&gt;Node14</title>
<g id="a_edge14_Node000014_Node000015"><a xlink:title=" ">
<path fill="none" stroke="#63b8ff" d="M1063.42,-1190.75C1063.61,-1168.29 1059.83,-1136.4 1039.5,-1119 997.36,-1082.93 846.93,-1121.62 777.84,-1100.54"/>
<polygon fill="none" stroke="#63b8ff" points="777.51,-1100.41 770.47,-1101.97 766.32,-1096.07 773.36,-1094.51 777.51,-1100.41"/>
</a>
</g>
<text text-anchor="middle" x="1092" y="-1158.2" font-family="Consolas" font-size="11.00" fill="grey"> +n_alloc</text>
<text text-anchor="middle" x="1092" y="-1146.2" font-family="Consolas" font-size="11.00" fill="grey">+n_cols</text>
<text text-anchor="middle" x="1092" y="-1134.2" font-family="Consolas" font-size="11.00" fill="grey">+n_elem</text>
<text text-anchor="middle" x="1092" y="-1122.2" font-family="Consolas" font-size="11.00" fill="grey">+n_rows</text>
</g>
<!-- Node16 -->
<g id="Node000016" class="node">
<title>Node16</title>
<g id="a_Node000016"><a xlink:title=" ">
<polygon fill="white" stroke="transparent" points="828.5,-1021 784.5,-1021 784.5,-969 828.5,-969 828.5,-1021"/>
<text text-anchor="start" x="789.5" y="-1008.2" font-family="Consolas" font-size="11.00">uword</text>
<text text-anchor="start" x="803" y="-992.2" font-family="Consolas" font-size="11.00"> </text>
<text text-anchor="start" x="803" y="-976.2" font-family="Consolas" font-size="11.00"> </text>
<polygon fill="#666666" stroke="#666666" points="784.5,-1003 784.5,-1003 828.5,-1003 828.5,-1003 784.5,-1003"/>
<polygon fill="#666666" stroke="#666666" points="784.5,-987 784.5,-987 828.5,-987 828.5,-987 784.5,-987"/>
<polygon fill="none" stroke="#666666" points="784.5,-969 784.5,-1021 828.5,-1021 828.5,-969 784.5,-969"/>
</a>
</g>
</g>
<!-- Node16&#45;&gt;Node3 -->
<g id="edge15_Node000003_Node000016" class="edge">
<title>Node16&#45;&gt;Node3</title>
<g id="a_edge15_Node000003_Node000016"><a xlink:title=" ">
<path fill="none" stroke="#63b8ff" d="M800.89,-968.67C795.59,-946.93 786.64,-915.09 774.5,-889 762.44,-863.07 762.3,-852.27 739.5,-835 717.99,-818.7 702.35,-834.14 681.5,-817 681.4,-816.92 681.3,-816.84 681.2,-816.75"/>
<polygon fill="none" stroke="#63b8ff" points="681.16,-816.72 674.02,-815.69 672.23,-808.71 679.36,-809.73 681.16,-816.72"/>
</a>
</g>
<text text-anchor="middle" x="794" y="-862.2" font-family="Consolas" font-size="11.00" fill="grey"> +n_cols</text>
<text text-anchor="middle" x="794" y="-850.2" font-family="Consolas" font-size="11.00" fill="grey">+n_elem</text>
<text text-anchor="middle" x="794" y="-838.2" font-family="Consolas" font-size="11.00" fill="grey">+n_rows</text>
</g>
<!-- Node17 -->
<g id="Node000017" class="node">
<title>Node17</title>
<g id="a_Node000017"><a xlink:title=" ">
<polygon fill="white" stroke="transparent" points="802.5,-681 690.5,-681 690.5,-629 802.5,-629 802.5,-681"/>
<text text-anchor="start" x="695.5" y="-668.2" font-family="Consolas" font-size="11.00">podarray&lt; int &gt;</text>
<text text-anchor="start" x="743" y="-652.2" font-family="Consolas" font-size="11.00"> </text>
<text text-anchor="start" x="743" y="-636.2" font-family="Consolas" font-size="11.00"> </text>
<polygon fill="#666666" stroke="#666666" points="690.5,-663 690.5,-663 802.5,-663 802.5,-663 690.5,-663"/>
<polygon fill="#666666" stroke="#666666" points="690.5,-647 690.5,-647 802.5,-647 802.5,-647 690.5,-647"/>
<polygon fill="none" stroke="#666666" points="690.5,-629 690.5,-681 802.5,-681 802.5,-629 690.5,-629"/>
</a>
</g>
</g>
<!-- Node17&#45;&gt;Node2 -->
<g id="edge16_Node000002_Node000017" class="edge">
<title>Node17&#45;&gt;Node2</title>
<g id="a_edge16_Node000002_Node000017"><a xlink:title=" ">
<path fill="none" stroke="#63b8ff" d="M751.67,-628.93C759.22,-592.25 773.83,-521.35 787.06,-457.15"/>
<polygon fill="none" stroke="#63b8ff" points="787.09,-457 784.39,-450.32 789.52,-445.25 792.22,-451.93 787.09,-457"/>
</a>
</g>
<text text-anchor="middle" x="809.5" y="-466.2" font-family="Consolas" font-size="11.00" fill="grey"> #pivot</text>
</g>
<!-- Node18 -->
<g id="Node000018" class="node">
<title>Node18</title>
<g id="a_Node000018"><a xlink:title=" ">
<polygon fill="white" stroke="transparent" points="946,-681 821,-681 821,-629 946,-629 946,-681"/>
<text text-anchor="start" x="826.5" y="-668.2" font-family="Consolas" font-size="11.00">podarray&lt; float &gt;</text>
<text text-anchor="start" x="880.5" y="-652.2" font-family="Consolas" font-size="11.00"> </text>
<text text-anchor="start" x="880.5" y="-636.2" font-family="Consolas" font-size="11.00"> </text>
<polygon fill="#666666" stroke="#666666" points="821.5,-663 821.5,-663 946.5,-663 946.5,-663 821.5,-663"/>
<polygon fill="#666666" stroke="#666666" points="821.5,-647 821.5,-647 946.5,-647 946.5,-647 821.5,-647"/>
<polygon fill="none" stroke="#666666" points="821,-629 821,-681 946,-681 946,-629 821,-629"/>
</a>
</g>
</g>
<!-- Node18&#45;&gt;Node2 -->
<g id="edge17_Node000002_Node000018" class="edge">
<title>Node18&#45;&gt;Node2</title>
<g id="a_edge17_Node000002_Node000018"><a xlink:title=" ">
<path fill="none" stroke="#63b8ff" d="M878.26,-628.93C870.59,-592.25 855.77,-521.35 842.34,-457.15"/>
<polygon fill="none" stroke="#63b8ff" points="842.31,-456.99 837.16,-451.94 839.85,-445.25 844.99,-450.3 842.31,-456.99"/>
</a>
</g>
<text text-anchor="middle" x="878.5" y="-466.2" font-family="Consolas" font-size="11.00" fill="grey"> #s_memory</text>
</g>
<!-- Node19 -->
<g id="Node000019" class="node">
<title>Node19</title>
<g id="a_Node000019"><a xlink:title=" ">
<polygon fill="white" stroke="transparent" points="1083,-681 964,-681 964,-629 1083,-629 1083,-681"/>
<text text-anchor="start" x="969.5" y="-668.2" font-family="Consolas" font-size="11.00">unique_ptr&lt; T[]&gt;</text>
<text text-anchor="start" x="1020.5" y="-652.2" font-family="Consolas" font-size="11.00"> </text>
<text text-anchor="start" x="1020.5" y="-636.2" font-family="Consolas" font-size="11.00"> </text>
<polygon fill="#666666" stroke="#666666" points="964.5,-663 964.5,-663 1083.5,-663 1083.5,-663 964.5,-663"/>
<polygon fill="#666666" stroke="#666666" points="964.5,-647 964.5,-647 1083.5,-647 1083.5,-647 964.5,-647"/>
<polygon fill="none" stroke="#666666" points="964,-629 964,-681 1083,-681 1083,-629 964,-629"/>
</a>
</g>
</g>
<!-- Node19&#45;&gt;Node2 -->
<g id="edge18_Node000002_Node000019" class="edge">
<title>Node19&#45;&gt;Node2</title>
<g id="a_edge18_Node000002_Node000019"><a xlink:title=" ">
<path fill="none" stroke="#63b8ff" d="M1015.5,-628.9C1004.52,-596.26 982.98,-538.08 955.5,-493 934.05,-457.82 905.66,-422.29 879.97,-392.95"/>
<polygon fill="none" stroke="#63b8ff" points="879.69,-392.64 872.72,-390.79 871.74,-383.65 878.71,-385.49 879.69,-392.64"/>
</a>
</g>
<text text-anchor="middle" x="970" y="-466.2" font-family="Consolas" font-size="11.00" fill="grey"> #memory</text>
</g>
</g>
</svg>

<g id="navigator" transform="translate(0 0)" fill="#404254">
  <rect fill="#f2f5e9" fill-opacity="0.5" stroke="#606060" stroke-width=".5" x="0" y="0" width="60" height="60"/>
  <use id="zoomplus" xlink:href="#zoomPlus" x="17" y="9" onmousedown="handleZoom(evt,'in')"/>
  <use id="zoomminus" xlink:href="#zoomMin" x="42" y="9" onmousedown="handleZoom(evt,'out')"/>
  <use id="reset" xlink:href="#resetDef" x="30" y="36" onmousedown="handleReset()"/>
   <use id="arrowup" xlink:href="#arrowUp" x="0" y="0" onmousedown="handlePan(0,-1)"/>
  <use id="arrowright" xlink:href="#arrowRight" x="0" y="0" onmousedown="handlePan(1,0)"/>
  <use id="arrowdown" xlink:href="#arrowDown" x="0" y="0" onmousedown="handlePan(0,1)"/>
  <use id="arrowleft" xlink:href="#arrowLeft" x="0" y="0" onmousedown="handlePan(-1,0)"/>
</g>
<svg viewBox="0 0 15 15" width="100%" height="30px" preserveAspectRatio="xMaxYMin meet">
 <g id="arrow_out" transform="scale(0.3 0.3)">
  <a xlink:href="class_symm_pack_mat__coll__graph_org.svg" target="_base">
   <rect id="button" ry="5" rx="5" y="6" x="6" height="38" width="38"
        fill="#f2f5e9" fill-opacity="0.5" stroke="#606060" stroke-width="1.0"/>
   <path id="arrow"
     d="M 11.500037,31.436501 C 11.940474,20.09759 22.043105,11.32322 32.158766,21.979434 L 37.068811,17.246167 C 37.068811,17.246167 37.088388,32 37.088388,32 L 22.160133,31.978069 C 22.160133,31.978069 26.997745,27.140456 26.997745,27.140456 C 18.528582,18.264221 13.291696,25.230495 11.500037,31.436501 z"
     style="fill:#404040;"/>
  </a>
 </g>
</svg>

<style type='text/css'>
<![CDATA[
[data-mouse-over-selected='false'] { opacity: 0.7; }
[data-mouse-over-selected='true']  { opacity: 1.0; }
]]>
</style>
<script type="application/ecmascript"><![CDATA[
document.addEventListener('DOMContentLoaded', (event) => {
  highlightEdges();
  highlightAdjacentNodes();
});
]]></script>
</svg>
