<?xml version="1.0" encoding="UTF-8" standalone="no"?>
<!DOCTYPE svg PUBLIC "-//W3C//DTD SVG 1.1//EN"
 "http://www.w3.org/Graphics/SVG/1.1/DTD/svg11.dtd">
<!-- Generated by graphviz version 2.43.0 (0)
 -->
<!-- Title: inf_norm Pages: 1 -->
<svg width="508pt" height="1037pt"
 viewBox="0.00 0.00 508.00 1037.00" xmlns="http://www.w3.org/2000/svg" xmlns:xlink="http://www.w3.org/1999/xlink">
<g id="graph0" class="graph" transform="scale(1 1) rotate(0) translate(4 1033)">
<title>inf_norm</title>
<polygon fill="white" stroke="transparent" points="-4,4 -4,-1033 504,-1033 504,4 -4,4"/>
<!-- Node1 -->
<g id="node1" class="node">
<title>Node1</title>
<g id="a_node1"><a xlink:title=" ">
<polygon fill="#bfbfbf" stroke="black" points="429,-579.5 429,-599.5 500,-599.5 500,-579.5 429,-579.5"/>
<text text-anchor="middle" x="464.5" y="-586.7" font-family="Consolas" font-size="11.00">inf_norm</text>
</a>
</g>
</g>
<!-- Node2 -->
<g id="node2" class="node">
<title>Node2</title>
<g id="a_node2"><a xlink:href="../../d7/d79/class_embed.html#aab8a9a766c0af5c14fc7c8cec9dc49c6" target="_top" xlink:title=" ">
<polygon fill="white" stroke="black" points="231.5,-1008.5 231.5,-1028.5 362.5,-1028.5 362.5,-1008.5 231.5,-1008.5"/>
<text text-anchor="middle" x="297" y="-1015.7" font-family="Consolas" font-size="11.00">Embed::initialize</text>
</a>
</g>
</g>
<!-- Node1&#45;&gt;Node2 -->
<g id="edge1" class="edge">
<title>Node1&#45;&gt;Node2</title>
<path fill="none" stroke="midnightblue" d="M462.94,-609.89C460.46,-684.74 447.98,-943.01 393,-999.5 384.79,-1007.94 373.96,-1013.18 362.57,-1016.35"/>
<polygon fill="midnightblue" stroke="midnightblue" points="466.44,-609.96 463.25,-599.86 459.44,-609.75 466.44,-609.96"/>
</g>
<!-- Node3 -->
<g id="node3" class="node">
<title>Node3</title>
<g id="a_node3"><a xlink:href="../../db/dcd/class_embedded.html#a24aa4ba102e517e728e3bbea6579d8a0" target="_top" xlink:title=" ">
<polygon fill="white" stroke="black" points="221,-969.5 221,-989.5 373,-989.5 373,-969.5 221,-969.5"/>
<text text-anchor="middle" x="297" y="-976.7" font-family="Consolas" font-size="11.00">Embedded::initialize</text>
</a>
</g>
</g>
<!-- Node1&#45;&gt;Node3 -->
<g id="edge2" class="edge">
<title>Node1&#45;&gt;Node3</title>
<path fill="none" stroke="midnightblue" d="M462.55,-609.72C458.83,-679.7 442.93,-910.09 393,-960.5 387.44,-966.12 380.71,-970.31 373.45,-973.42"/>
<polygon fill="midnightblue" stroke="midnightblue" points="466.05,-609.75 463.06,-599.58 459.06,-609.39 466.05,-609.75"/>
</g>
<!-- Node4 -->
<g id="node4" class="node">
<title>Node4</title>
<g id="a_node4"><a xlink:href="../../db/d5a/class_abs_disp.html#a9f0e144a8072cee24388b8e741fb7f5c" target="_top" xlink:title=" ">
<polygon fill="white" stroke="black" points="218,-930.5 218,-950.5 376,-950.5 376,-930.5 218,-930.5"/>
<text text-anchor="middle" x="297" y="-937.7" font-family="Consolas" font-size="11.00">AbsDisp::is_converged</text>
</a>
</g>
</g>
<!-- Node1&#45;&gt;Node4 -->
<g id="edge3" class="edge">
<title>Node1&#45;&gt;Node4</title>
<path fill="none" stroke="midnightblue" d="M462.06,-609.67C457.01,-674.69 437.88,-877.15 393,-921.5 388.09,-926.35 382.32,-930.13 376.09,-933.06"/>
<polygon fill="midnightblue" stroke="midnightblue" points="465.57,-609.74 462.82,-599.51 458.59,-609.22 465.57,-609.74"/>
</g>
<!-- Node5 -->
<g id="node5" class="node">
<title>Node5</title>
<g id="a_node5"><a xlink:href="../../dc/d4d/class_abs_incre_acc.html#ae83df842ca4692e3ca67cde8618b36fd" target="_top" xlink:title="Method to return conv_flag.">
<polygon fill="white" stroke="black" points="204.5,-891.5 204.5,-911.5 389.5,-911.5 389.5,-891.5 204.5,-891.5"/>
<text text-anchor="middle" x="297" y="-898.7" font-family="Consolas" font-size="11.00">AbsIncreAcc::is_converged</text>
</a>
</g>
</g>
<!-- Node1&#45;&gt;Node5 -->
<g id="edge4" class="edge">
<title>Node1&#45;&gt;Node5</title>
<path fill="none" stroke="midnightblue" d="M461.45,-609.61C454.96,-669.38 432.85,-844.16 393,-882.5 389.36,-886 385.27,-888.94 380.89,-891.4"/>
<polygon fill="midnightblue" stroke="midnightblue" points="464.95,-609.87 462.52,-599.55 457.98,-609.13 464.95,-609.87"/>
</g>
<!-- Node6 -->
<g id="node6" class="node">
<title>Node6</title>
<g id="a_node6"><a xlink:href="../../d4/d8d/class_abs_incre_disp.html#a9b6ded4f12f8d7a244a42aa47c8215bb" target="_top" xlink:title="Method to return conv_flag.">
<polygon fill="white" stroke="black" points="201,-852.5 201,-872.5 393,-872.5 393,-852.5 201,-852.5"/>
<text text-anchor="middle" x="297" y="-859.7" font-family="Consolas" font-size="11.00">AbsIncreDisp::is_converged</text>
</a>
</g>
</g>
<!-- Node1&#45;&gt;Node6 -->
<g id="edge5" class="edge">
<title>Node1&#45;&gt;Node6</title>
<path fill="none" stroke="midnightblue" d="M460.64,-609.74C452.55,-664.06 427.82,-811.14 393,-843.5 389.18,-847.05 384.89,-850.02 380.31,-852.49"/>
<polygon fill="midnightblue" stroke="midnightblue" points="464.13,-610.03 462.11,-599.63 457.21,-609.02 464.13,-610.03"/>
</g>
<!-- Node7 -->
<g id="node7" class="node">
<title>Node7</title>
<g id="a_node7"><a xlink:href="../../de/dce/class_abs_residual.html#a28820563b7801a0289a2bad2f2ad39d4" target="_top" xlink:title=" ">
<polygon fill="white" stroke="black" points="204.5,-813.5 204.5,-833.5 389.5,-833.5 389.5,-813.5 204.5,-813.5"/>
<text text-anchor="middle" x="297" y="-820.7" font-family="Consolas" font-size="11.00">AbsResidual::is_converged</text>
</a>
</g>
</g>
<!-- Node1&#45;&gt;Node7 -->
<g id="edge6" class="edge">
<title>Node1&#45;&gt;Node7</title>
<path fill="none" stroke="midnightblue" d="M463.23,-610.07C461.47,-653.14 451,-753.05 393,-804.5 389.1,-807.96 384.75,-810.86 380.12,-813.29"/>
<polygon fill="midnightblue" stroke="midnightblue" points="466.73,-610.06 463.52,-599.96 459.73,-609.86 466.73,-610.06"/>
</g>
<!-- Node8 -->
<g id="node8" class="node">
<title>Node8</title>
<g id="a_node8"><a xlink:href="../../dc/dee/class_rel_disp.html#a5b4c19edc8f542332f43d4c285fc1b38" target="_top" xlink:title=" ">
<polygon fill="white" stroke="black" points="218,-774.5 218,-794.5 376,-794.5 376,-774.5 218,-774.5"/>
<text text-anchor="middle" x="297" y="-781.7" font-family="Consolas" font-size="11.00">RelDisp::is_converged</text>
</a>
</g>
</g>
<!-- Node1&#45;&gt;Node8 -->
<g id="edge7" class="edge">
<title>Node1&#45;&gt;Node8</title>
<path fill="none" stroke="midnightblue" d="M461.54,-609.88C456.83,-646.94 441.4,-725.26 393,-765.5 387.96,-769.69 382.24,-773.05 376.18,-775.73"/>
<polygon fill="midnightblue" stroke="midnightblue" points="465.03,-610.12 462.68,-599.79 458.08,-609.33 465.03,-610.12"/>
</g>
<!-- Node9 -->
<g id="node9" class="node">
<title>Node9</title>
<g id="a_node9"><a xlink:href="../../dd/d17/class_rel_error.html#a86e8267005c5d58497a9ada573fb7788" target="_top" xlink:title="Method to return conv_flag.">
<polygon fill="white" stroke="black" points="214.5,-735.5 214.5,-755.5 379.5,-755.5 379.5,-735.5 214.5,-735.5"/>
<text text-anchor="middle" x="297" y="-742.7" font-family="Consolas" font-size="11.00">RelError::is_converged</text>
</a>
</g>
</g>
<!-- Node1&#45;&gt;Node9 -->
<g id="edge8" class="edge">
<title>Node1&#45;&gt;Node9</title>
<path fill="none" stroke="midnightblue" d="M459.05,-609.58C451.22,-639.94 431.98,-697.08 393,-726.5 388.3,-730.05 383.11,-732.98 377.65,-735.4"/>
<polygon fill="midnightblue" stroke="midnightblue" points="462.49,-610.25 461.43,-599.71 455.68,-608.61 462.49,-610.25"/>
</g>
<!-- Node10 -->
<g id="node10" class="node">
<title>Node10</title>
<g id="a_node10"><a xlink:href="../../d8/d3b/class_rel_incre_acc.html#a4459aa55412a629bea1caa408282132e" target="_top" xlink:title=" ">
<polygon fill="white" stroke="black" points="204.5,-696.5 204.5,-716.5 389.5,-716.5 389.5,-696.5 204.5,-696.5"/>
<text text-anchor="middle" x="297" y="-703.7" font-family="Consolas" font-size="11.00">RelIncreAcc::is_converged</text>
</a>
</g>
</g>
<!-- Node1&#45;&gt;Node10 -->
<g id="edge9" class="edge">
<title>Node1&#45;&gt;Node10</title>
<path fill="none" stroke="midnightblue" d="M454.94,-609.08C443.99,-631.71 422.79,-668.31 393,-687.5 387.49,-691.05 381.45,-693.96 375.17,-696.35"/>
<polygon fill="midnightblue" stroke="midnightblue" points="458.23,-610.32 459.25,-599.77 451.87,-607.38 458.23,-610.32"/>
</g>
<!-- Node11 -->
<g id="node11" class="node">
<title>Node11</title>
<g id="a_node11"><a xlink:href="../../d2/d85/class_rel_incre_disp.html#a7d16a8431291cc634a83de9bd5e5d375" target="_top" xlink:title=" ">
<polygon fill="white" stroke="black" points="201,-657.5 201,-677.5 393,-677.5 393,-657.5 201,-657.5"/>
<text text-anchor="middle" x="297" y="-664.7" font-family="Consolas" font-size="11.00">RelIncreDisp::is_converged</text>
</a>
</g>
</g>
<!-- Node1&#45;&gt;Node11 -->
<g id="edge10" class="edge">
<title>Node1&#45;&gt;Node11</title>
<path fill="none" stroke="midnightblue" d="M447.58,-606.93C434.29,-620.38 414.17,-638.35 393,-648.5 385.42,-652.14 377.17,-655.08 368.81,-657.45"/>
<polygon fill="midnightblue" stroke="midnightblue" points="450.18,-609.27 454.57,-599.63 445.13,-604.43 450.18,-609.27"/>
</g>
<!-- Node12 -->
<g id="node12" class="node">
<title>Node12</title>
<g id="a_node12"><a xlink:href="../../dc/db8/class_rel_residual.html#accf19abd0aa31b3f5d6870e7f5ec17db" target="_top" xlink:title=" ">
<polygon fill="white" stroke="black" points="204.5,-618.5 204.5,-638.5 389.5,-638.5 389.5,-618.5 204.5,-618.5"/>
<text text-anchor="middle" x="297" y="-625.7" font-family="Consolas" font-size="11.00">RelResidual::is_converged</text>
</a>
</g>
</g>
<!-- Node1&#45;&gt;Node12 -->
<g id="edge11" class="edge">
<title>Node1&#45;&gt;Node12</title>
<path fill="none" stroke="midnightblue" d="M420.66,-602.24C411.56,-604.78 401.99,-607.33 393,-609.5 379.76,-612.7 365.38,-615.77 351.92,-618.49"/>
<polygon fill="midnightblue" stroke="midnightblue" points="421.63,-605.6 430.29,-599.5 419.71,-598.87 421.63,-605.6"/>
</g>
<!-- Node13 -->
<g id="node13" class="node">
<title>Node13</title>
<g id="a_node13"><a xlink:href="../../d7/d7e/class_b21_e.html#ab3b6ebf19e37a84af92d71400e42ecf1" target="_top" xlink:title=" ">
<polygon fill="white" stroke="black" points="224.5,-579.5 224.5,-599.5 369.5,-599.5 369.5,-579.5 224.5,-579.5"/>
<text text-anchor="middle" x="297" y="-586.7" font-family="Consolas" font-size="11.00">B21E::update_status</text>
</a>
</g>
</g>
<!-- Node1&#45;&gt;Node13 -->
<g id="edge12" class="edge">
<title>Node1&#45;&gt;Node13</title>
<path fill="none" stroke="midnightblue" d="M418.74,-589.5C403.67,-589.5 386.44,-589.5 369.81,-589.5"/>
<polygon fill="midnightblue" stroke="midnightblue" points="418.81,-593 428.81,-589.5 418.81,-586 418.81,-593"/>
</g>
<!-- Node14 -->
<g id="node14" class="node">
<title>Node14</title>
<g id="a_node14"><a xlink:href="../../d7/d44/class_nonlinear_gurson1_d.html#a0bb512db0cbb943b056e5ac15a9c5178" target="_top" xlink:title=" ">
<polygon fill="white" stroke="black" points="224.5,-528.5 224.5,-560.5 369.5,-560.5 369.5,-528.5 224.5,-528.5"/>
<text text-anchor="start" x="232.5" y="-547.7" font-family="Consolas" font-size="11.00">NonlinearGurson1D::</text>
<text text-anchor="middle" x="297" y="-535.7" font-family="Consolas" font-size="11.00">update_trial_status</text>
</a>
</g>
</g>
<!-- Node1&#45;&gt;Node14 -->
<g id="edge13" class="edge">
<title>Node1&#45;&gt;Node14</title>
<path fill="none" stroke="midnightblue" d="M418.92,-577.38C399.91,-572.21 377.46,-566.1 357.09,-560.57"/>
<polygon fill="midnightblue" stroke="midnightblue" points="418.24,-580.82 428.81,-580.07 420.07,-574.07 418.24,-580.82"/>
</g>
<!-- Node15 -->
<g id="node15" class="node">
<title>Node15</title>
<g id="a_node15"><a xlink:href="../../d4/d0e/group___material-1_d.html#gac260ef34660418b203a0bb48ca81d062" target="_top" xlink:title=" ">
<polygon fill="white" stroke="black" points="228,-459.5 228,-491.5 366,-491.5 366,-459.5 228,-459.5"/>
<text text-anchor="start" x="236" y="-478.7" font-family="Consolas" font-size="11.00">Sequential::update</text>
<text text-anchor="middle" x="297" y="-466.7" font-family="Consolas" font-size="11.00">_trial_status</text>
</a>
</g>
</g>
<!-- Node1&#45;&gt;Node15 -->
<g id="edge14" class="edge">
<title>Node1&#45;&gt;Node15</title>
<path fill="none" stroke="midnightblue" d="M448.67,-571.6C435.31,-556.31 414.5,-534.46 393,-519.5 377.03,-508.39 357.82,-498.89 340.86,-491.58"/>
<polygon fill="midnightblue" stroke="midnightblue" points="446.13,-574.02 455.29,-579.34 451.45,-569.47 446.13,-574.02"/>
</g>
<!-- Node16 -->
<g id="node16" class="node">
<title>Node16</title>
<g id="a_node16"><a xlink:href="../../d7/df3/class_nonlinear_cam_clay.html#ac2fe74eb958ed400a2dcb2c2864bc327" target="_top" xlink:title=" ">
<polygon fill="white" stroke="black" points="207.5,-408.5 207.5,-440.5 386.5,-440.5 386.5,-408.5 207.5,-408.5"/>
<text text-anchor="start" x="215.5" y="-427.7" font-family="Consolas" font-size="11.00">NonlinearCamClay::update</text>
<text text-anchor="middle" x="297" y="-415.7" font-family="Consolas" font-size="11.00">_trial_status</text>
</a>
</g>
</g>
<!-- Node1&#45;&gt;Node16 -->
<g id="edge16" class="edge">
<title>Node1&#45;&gt;Node16</title>
<path fill="none" stroke="midnightblue" d="M458.88,-569.46C450.82,-539.11 431.28,-481.73 393,-450.5 388.36,-446.72 383.22,-443.48 377.79,-440.72"/>
<polygon fill="midnightblue" stroke="midnightblue" points="455.52,-570.47 461.34,-579.32 462.31,-568.77 455.52,-570.47"/>
</g>
<!-- Node17 -->
<g id="node17" class="node">
<title>Node17</title>
<g id="a_node17"><a xlink:href="../../dc/dfb/class_c_d_p_m2.html#a1f77ec22f18b90dd568fe6964f8ce91a" target="_top" xlink:title=" ">
<polygon fill="white" stroke="black" points="224.5,-357.5 224.5,-389.5 369.5,-389.5 369.5,-357.5 224.5,-357.5"/>
<text text-anchor="start" x="232.5" y="-376.7" font-family="Consolas" font-size="11.00">CDPM2::update_trial</text>
<text text-anchor="middle" x="297" y="-364.7" font-family="Consolas" font-size="11.00">_status</text>
</a>
</g>
</g>
<!-- Node1&#45;&gt;Node17 -->
<g id="edge17" class="edge">
<title>Node1&#45;&gt;Node17</title>
<path fill="none" stroke="midnightblue" d="M461.89,-568.95C457.71,-530.02 443.07,-445.34 393,-399.5 386.32,-393.38 378.33,-388.68 369.86,-385.07"/>
<polygon fill="midnightblue" stroke="midnightblue" points="458.42,-569.43 462.84,-579.05 465.39,-568.77 458.42,-569.43"/>
</g>
<!-- Node18 -->
<g id="node18" class="node">
<title>Node18</title>
<g id="a_node18"><a xlink:href="../../de/d9e/class_nonlinear_c_d_p.html#ada50f0816b64f9d897504e17674bb550" target="_top" xlink:title=" ">
<polygon fill="white" stroke="black" points="221,-306.5 221,-338.5 373,-338.5 373,-306.5 221,-306.5"/>
<text text-anchor="start" x="229" y="-325.7" font-family="Consolas" font-size="11.00">NonlinearCDP::update</text>
<text text-anchor="middle" x="297" y="-313.7" font-family="Consolas" font-size="11.00">_trial_status</text>
</a>
</g>
</g>
<!-- Node1&#45;&gt;Node18 -->
<g id="edge18" class="edge">
<title>Node1&#45;&gt;Node18</title>
<path fill="none" stroke="midnightblue" d="M463.79,-569.07C463.28,-522.9 455.34,-409.77 393,-348.5 387.27,-342.87 380.44,-338.43 373.11,-334.93"/>
<polygon fill="midnightblue" stroke="midnightblue" points="460.29,-569.3 463.78,-579.3 467.29,-569.3 460.29,-569.3"/>
</g>
<!-- Node19 -->
<g id="node19" class="node">
<title>Node19</title>
<g id="a_node19"><a xlink:href="../../d3/dd4/class_nonlinear_hoffman.html#ad12423b0fdd6439a01f4fc91804ef40e" target="_top" xlink:title=" ">
<polygon fill="white" stroke="black" points="207.5,-255.5 207.5,-287.5 386.5,-287.5 386.5,-255.5 207.5,-255.5"/>
<text text-anchor="start" x="215.5" y="-274.7" font-family="Consolas" font-size="11.00">NonlinearHoffman::update</text>
<text text-anchor="middle" x="297" y="-262.7" font-family="Consolas" font-size="11.00">_trial_status</text>
</a>
</g>
</g>
<!-- Node1&#45;&gt;Node19 -->
<g id="edge19" class="edge">
<title>Node1&#45;&gt;Node19</title>
<path fill="none" stroke="midnightblue" d="M461.27,-569.19C454.34,-509.6 431.3,-336.97 393,-297.5 389.31,-293.7 385.12,-290.43 380.6,-287.63"/>
<polygon fill="midnightblue" stroke="midnightblue" points="457.81,-569.69 462.41,-579.23 464.76,-568.9 457.81,-569.69"/>
</g>
<!-- Node21 -->
<g id="node21" class="node">
<title>Node21</title>
<g id="a_node21"><a xlink:href="../../d6/de0/class_dafalias_manzari.html#a77a82b737eafab2859941e22cad015a7" target="_top" xlink:title=" ">
<polygon fill="white" stroke="black" points="211,-204.5 211,-236.5 383,-236.5 383,-204.5 211,-204.5"/>
<text text-anchor="start" x="219" y="-223.7" font-family="Consolas" font-size="11.00">DafaliasManzari::update</text>
<text text-anchor="middle" x="297" y="-211.7" font-family="Consolas" font-size="11.00">_trial_status</text>
</a>
</g>
</g>
<!-- Node1&#45;&gt;Node21 -->
<g id="edge21" class="edge">
<title>Node1&#45;&gt;Node21</title>
<path fill="none" stroke="midnightblue" d="M462.06,-569.21C456.97,-502.9 437.61,-294.08 393,-246.5 389.49,-242.76 385.5,-239.54 381.19,-236.76"/>
<polygon fill="midnightblue" stroke="midnightblue" points="458.58,-569.52 462.81,-579.23 465.56,-569 458.58,-569.52"/>
</g>
<!-- Node22 -->
<g id="node22" class="node">
<title>Node22</title>
<g id="a_node22"><a xlink:href="../../de/d26/class_simple_sand.html#a8157e10cf03876250514d822ff8afe12" target="_top" xlink:title=" ">
<polygon fill="white" stroke="black" points="228,-153.5 228,-185.5 366,-185.5 366,-153.5 228,-153.5"/>
<text text-anchor="start" x="236" y="-172.7" font-family="Consolas" font-size="11.00">SimpleSand::update</text>
<text text-anchor="middle" x="297" y="-160.7" font-family="Consolas" font-size="11.00">_trial_status</text>
</a>
</g>
</g>
<!-- Node1&#45;&gt;Node22 -->
<g id="edge22" class="edge">
<title>Node1&#45;&gt;Node22</title>
<path fill="none" stroke="midnightblue" d="M462.65,-569.1C459.2,-496.39 443.95,-251.25 393,-195.5 385.73,-187.55 376.29,-181.93 366.18,-177.99"/>
<polygon fill="midnightblue" stroke="midnightblue" points="459.16,-569.4 463.1,-579.24 466.15,-569.09 459.16,-569.4"/>
</g>
<!-- Node23 -->
<g id="node23" class="node">
<title>Node23</title>
<g id="a_node23"><a xlink:href="../../d1/dd0/class_nonlinear_gurson.html#aa8ae29eca73403329a46ca014b3dd49b" target="_top" xlink:title=" ">
<polygon fill="white" stroke="black" points="211,-102.5 211,-134.5 383,-134.5 383,-102.5 211,-102.5"/>
<text text-anchor="start" x="219" y="-121.7" font-family="Consolas" font-size="11.00">NonlinearGurson::update</text>
<text text-anchor="middle" x="297" y="-109.7" font-family="Consolas" font-size="11.00">_trial_status</text>
</a>
</g>
</g>
<!-- Node1&#45;&gt;Node23 -->
<g id="edge23" class="edge">
<title>Node1&#45;&gt;Node23</title>
<path fill="none" stroke="midnightblue" d="M463.11,-569.05C461.18,-490.39 450.32,-208.51 393,-144.5 389.58,-140.68 385.65,-137.4 381.39,-134.58"/>
<polygon fill="midnightblue" stroke="midnightblue" points="459.61,-569.21 463.33,-579.13 466.61,-569.06 459.61,-569.21"/>
</g>
<!-- Node24 -->
<g id="node24" class="node">
<title>Node24</title>
<g id="a_node24"><a xlink:href="../../d7/da6/class_stress_wrapper.html#a709aecccdad95c44801d3f53cec827a6" target="_top" xlink:title=" ">
<polygon fill="white" stroke="black" points="218,-51.5 218,-83.5 376,-83.5 376,-51.5 218,-51.5"/>
<text text-anchor="start" x="226" y="-70.7" font-family="Consolas" font-size="11.00">StressWrapper::update</text>
<text text-anchor="middle" x="297" y="-58.7" font-family="Consolas" font-size="11.00">_trial_status</text>
</a>
</g>
</g>
<!-- Node1&#45;&gt;Node24 -->
<g id="edge24" class="edge">
<title>Node1&#45;&gt;Node24</title>
<path fill="none" stroke="midnightblue" d="M463.48,-569.19C462.96,-485.18 456.78,-165.86 393,-93.5 388.25,-88.11 382.5,-83.79 376.21,-80.34"/>
<polygon fill="midnightblue" stroke="midnightblue" points="459.98,-569.25 463.52,-579.24 466.98,-569.22 459.98,-569.25"/>
</g>
<!-- Node25 -->
<g id="node25" class="node">
<title>Node25</title>
<g id="a_node25"><a xlink:href="../../db/d83/class_maxwell.html#ab7056f092e9a8da26e27cf7f7a389d1d" target="_top" xlink:title=" ">
<polygon fill="white" stroke="black" points="218,-0.5 218,-32.5 376,-32.5 376,-0.5 218,-0.5"/>
<text text-anchor="start" x="226" y="-19.7" font-family="Consolas" font-size="11.00">Maxwell::update_trial</text>
<text text-anchor="middle" x="297" y="-7.7" font-family="Consolas" font-size="11.00">_status</text>
</a>
</g>
</g>
<!-- Node1&#45;&gt;Node25 -->
<g id="edge25" class="edge">
<title>Node1&#45;&gt;Node25</title>
<path fill="none" stroke="midnightblue" d="M463.78,-568.85C464.56,-479.02 463.14,-123.13 393,-42.5 388.29,-37.08 382.56,-32.74 376.29,-29.27"/>
<polygon fill="midnightblue" stroke="midnightblue" points="460.28,-569.05 463.67,-579.09 467.28,-569.12 460.28,-569.05"/>
</g>
<!-- Node15&#45;&gt;Node15 -->
<g id="edge15" class="edge">
<title>Node15&#45;&gt;Node15</title>
<path fill="none" stroke="midnightblue" d="M326.21,-502.08C322.35,-506.75 312.61,-510 297,-510 271.39,-510 261.58,-501.24 267.58,-491.83"/>
<polygon fill="midnightblue" stroke="midnightblue" points="329.72,-501.89 326.42,-491.83 322.72,-501.76 329.72,-501.89"/>
</g>
<!-- Node20 -->
<g id="node20" class="node">
<title>Node20</title>
<g id="a_node20"><a xlink:href="../../dd/d13/class_timber_p_d.html#afabfd0200bc96cb582c7a9336bb4f32a" target="_top" xlink:title=" ">
<polygon fill="white" stroke="black" points="0,-255.5 0,-287.5 165,-287.5 165,-255.5 0,-255.5"/>
<text text-anchor="start" x="8" y="-274.7" font-family="Consolas" font-size="11.00">TimberPD::update_trial</text>
<text text-anchor="middle" x="82.5" y="-262.7" font-family="Consolas" font-size="11.00">_status</text>
</a>
</g>
</g>
<!-- Node19&#45;&gt;Node20 -->
<g id="edge20" class="edge">
<title>Node19&#45;&gt;Node20</title>
<path fill="none" stroke="midnightblue" d="M197.18,-271.5C186.46,-271.5 175.63,-271.5 165.14,-271.5"/>
<polygon fill="midnightblue" stroke="midnightblue" points="197.42,-275 207.42,-271.5 197.42,-268 197.42,-275"/>
</g>
</g>
</svg>
