<?xml version="1.0" encoding="UTF-8" standalone="no"?>
<!DOCTYPE svg PUBLIC "-//W3C//DTD SVG 1.1//EN"
 "http://www.w3.org/Graphics/SVG/1.1/DTD/svg11.dtd">
<!-- Generated by graphviz version 2.43.0 (0)
 -->
<!-- Title: Bead::Bead Pages: 1 -->
<svg width="380pt" height="28pt"
 viewBox="0.00 0.00 380.00 28.00" xmlns="http://www.w3.org/2000/svg" xmlns:xlink="http://www.w3.org/1999/xlink">
<g id="graph0" class="graph" transform="scale(1 1) rotate(0) translate(4 24)">
<title>Bead::Bead</title>
<!-- Node1 -->
<g id="Node000001" class="node">
<title>Node1</title>
<g id="a_Node000001"><a xlink:title=" ">
<polygon fill="#999999" stroke="#666666" points="84,-20 0,-20 0,0 84,0 84,-20"/>
<text text-anchor="middle" x="42" y="-7.2" font-family="Consolas" font-size="11.00">Bead::Bead</text>
</a>
</g>
</g>
<!-- Node2 -->
<g id="Node000002" class="node">
<title>Node2</title>
<g id="a_Node000002"><a xlink:href="../../d5/d68/class_bead.html#a8a7164bb1d856d11e3b8c8ec093a3272" target="_top" xlink:title=" ">
<polygon fill="white" stroke="#666666" points="218,-20 120,-20 120,0 218,0 218,-20"/>
<text text-anchor="middle" x="169" y="-7.2" font-family="Consolas" font-size="11.00">Bead::insert</text>
</a>
</g>
</g>
<!-- Node1&#45;&gt;Node2 -->
<g id="edge1_Node000001_Node000002" class="edge">
<title>Node1&#45;&gt;Node2</title>
<g id="a_edge1_Node000001_Node000002"><a xlink:title=" ">
<path fill="none" stroke="#63b8ff" d="M84.28,-10C92.45,-10 101.18,-10 109.8,-10"/>
<polygon fill="#63b8ff" stroke="#63b8ff" points="109.83,-13.5 119.83,-10 109.83,-6.5 109.83,-13.5"/>
</a>
</g>
</g>
<!-- Node3 -->
<g id="Node000003" class="node">
<title>Node3</title>
<g id="a_Node000003"><a xlink:href="../../da/d56/class_storage.html#a013cb19bdce869254a6c7644921f75e0" target="_top" xlink:title=" ">
<polygon fill="white" stroke="#666666" points="372,-20 254,-20 254,0 372,0 372,-20"/>
<text text-anchor="middle" x="313" y="-7.2" font-family="Consolas" font-size="11.00">Storage::insert</text>
</a>
</g>
</g>
<!-- Node2&#45;&gt;Node3 -->
<g id="edge2_Node000002_Node000003" class="edge">
<title>Node2&#45;&gt;Node3</title>
<g id="a_edge2_Node000002_Node000003"><a xlink:title=" ">
<path fill="none" stroke="#63b8ff" d="M218.07,-10C226.34,-10 235.08,-10 243.76,-10"/>
<polygon fill="#63b8ff" stroke="#63b8ff" points="243.89,-13.5 253.89,-10 243.89,-6.5 243.89,-13.5"/>
</a>
</g>
</g>
</g>
</svg>
