<?xml version="1.0" encoding="UTF-8" standalone="no"?>
<!DOCTYPE svg PUBLIC "-//W3C//DTD SVG 1.1//EN"
 "http://www.w3.org/Graphics/SVG/1.1/DTD/svg11.dtd">
<!-- Generated by graphviz version 2.43.0 (0)
 -->
<!-- Title: transform::stress::rotate Pages: 1 -->
<svg width="676pt" height="113pt"
 viewBox="0.00 0.00 676.00 113.00" xmlns="http://www.w3.org/2000/svg" xmlns:xlink="http://www.w3.org/1999/xlink">
<g id="graph0" class="graph" transform="scale(1 1) rotate(0) translate(4 109)">
<title>transform::stress::rotate</title>
<polygon fill="white" stroke="transparent" points="-4,4 -4,-109 672,-109 672,4 -4,4"/>
<!-- Node1 -->
<g id="node1" class="node">
<title>Node1</title>
<g id="a_node1"><a xlink:title=" ">
<polygon fill="#bfbfbf" stroke="black" points="0,-55.5 0,-87.5 145,-87.5 145,-55.5 0,-55.5"/>
<text text-anchor="start" x="8" y="-74.7" font-family="Consolas" font-size="11.00">transform::stress::</text>
<text text-anchor="middle" x="72.5" y="-62.7" font-family="Consolas" font-size="11.00">rotate</text>
</a>
</g>
</g>
<!-- Node2 -->
<g id="node2" class="node">
<title>Node2</title>
<g id="a_node2"><a xlink:href="../../da/d46/group___utility.html#ga26d9d7c7e807b2375b787733128a42e8" target="_top" xlink:title=" ">
<polygon fill="white" stroke="black" points="201.5,-84.5 201.5,-104.5 305.5,-104.5 305.5,-84.5 201.5,-84.5"/>
<text text-anchor="middle" x="253.5" y="-91.7" font-family="Consolas" font-size="11.00">shape::stress</text>
</a>
</g>
</g>
<!-- Node1&#45;&gt;Node2 -->
<g id="edge1" class="edge">
<title>Node1&#45;&gt;Node2</title>
<path fill="none" stroke="midnightblue" d="M145.02,-80.69C160.37,-82.66 176.45,-84.73 191.37,-86.64"/>
<polygon fill="midnightblue" stroke="midnightblue" points="191.12,-90.14 201.48,-87.94 192.01,-83.2 191.12,-90.14"/>
</g>
<!-- Node3 -->
<g id="node3" class="node">
<title>Node3</title>
<g id="a_node3"><a xlink:href="../../d5/d4b/namespacetransform_1_1strain.html#a7e4f56aa5fa32a814e597c9addba843e" target="_top" xlink:title=" ">
<polygon fill="white" stroke="black" points="181,-33.5 181,-65.5 326,-65.5 326,-33.5 181,-33.5"/>
<text text-anchor="start" x="189" y="-52.7" font-family="Consolas" font-size="11.00">transform::strain::</text>
<text text-anchor="middle" x="253.5" y="-40.7" font-family="Consolas" font-size="11.00">trans</text>
</a>
</g>
</g>
<!-- Node1&#45;&gt;Node3 -->
<g id="edge2" class="edge">
<title>Node1&#45;&gt;Node3</title>
<path fill="none" stroke="midnightblue" d="M145.02,-62.71C153.49,-61.67 162.18,-60.6 170.78,-59.54"/>
<polygon fill="midnightblue" stroke="midnightblue" points="171.31,-63.01 180.8,-58.31 170.45,-56.06 171.31,-63.01"/>
</g>
<!-- Node4 -->
<g id="node4" class="node">
<title>Node4</title>
<g id="a_node4"><a xlink:href="../../d5/d4b/namespacetransform_1_1strain.html#aa364f90f707a9daeb68ba567b83351a5" target="_top" xlink:title=" ">
<polygon fill="white" stroke="black" points="362,-33.5 362,-65.5 507,-65.5 507,-33.5 362,-33.5"/>
<text text-anchor="start" x="370" y="-52.7" font-family="Consolas" font-size="11.00">transform::strain::</text>
<text text-anchor="middle" x="434.5" y="-40.7" font-family="Consolas" font-size="11.00">angle</text>
</a>
</g>
</g>
<!-- Node3&#45;&gt;Node4 -->
<g id="edge3" class="edge">
<title>Node3&#45;&gt;Node4</title>
<path fill="none" stroke="midnightblue" d="M326.02,-49.5C334.49,-49.5 343.18,-49.5 351.78,-49.5"/>
<polygon fill="midnightblue" stroke="midnightblue" points="351.8,-53 361.8,-49.5 351.8,-46 351.8,-53"/>
</g>
<!-- Node5 -->
<g id="node5" class="node">
<title>Node5</title>
<g id="a_node5"><a xlink:href="../../dc/dfe/namespacetransform.html#a6897723d826b435b1dd03f1436a3d0ab" target="_top" xlink:title=" ">
<polygon fill="white" stroke="black" points="543,-78.5 543,-98.5 668,-98.5 668,-78.5 543,-78.5"/>
<text text-anchor="middle" x="605.5" y="-85.7" font-family="Consolas" font-size="11.00">transform::atan2</text>
</a>
</g>
</g>
<!-- Node4&#45;&gt;Node5 -->
<g id="edge4" class="edge">
<title>Node4&#45;&gt;Node5</title>
<path fill="none" stroke="midnightblue" d="M505.21,-65.59C520.58,-69.13 536.62,-72.84 551.21,-76.2"/>
<polygon fill="midnightblue" stroke="midnightblue" points="550.53,-79.64 561.06,-78.48 552.1,-72.82 550.53,-79.64"/>
</g>
<!-- Node6 -->
<g id="node6" class="node">
<title>Node6</title>
<g id="a_node6"><a xlink:href="../../da/d46/group___utility.html#ga47ce50ab0d12c6f26d9051a88ce6ec01" target="_top" xlink:title=" ">
<polygon fill="white" stroke="black" points="553.5,-39.5 553.5,-59.5 657.5,-59.5 657.5,-39.5 553.5,-39.5"/>
<text text-anchor="middle" x="605.5" y="-46.7" font-family="Consolas" font-size="11.00">shape::strain</text>
</a>
</g>
</g>
<!-- Node4&#45;&gt;Node6 -->
<g id="edge5" class="edge">
<title>Node4&#45;&gt;Node6</title>
<path fill="none" stroke="midnightblue" d="M507.17,-49.5C519.21,-49.5 531.6,-49.5 543.34,-49.5"/>
<polygon fill="midnightblue" stroke="midnightblue" points="543.47,-53 553.47,-49.5 543.47,-46 543.47,-53"/>
</g>
<!-- Node7 -->
<g id="node7" class="node">
<title>Node7</title>
<g id="a_node7"><a xlink:href="../../d8/d8f/suan_pan_8h.html#aa87073491bf65bc79b4d8b6c2a613d06" target="_top" xlink:title=" ">
<polygon fill="white" stroke="black" points="550,-0.5 550,-20.5 661,-20.5 661,-0.5 550,-0.5"/>
<text text-anchor="middle" x="605.5" y="-7.7" font-family="Consolas" font-size="11.00">suanpan_assert</text>
</a>
</g>
</g>
<!-- Node4&#45;&gt;Node7 -->
<g id="edge6" class="edge">
<title>Node4&#45;&gt;Node7</title>
<path fill="none" stroke="midnightblue" d="M505.21,-33.41C520.58,-29.87 536.62,-26.16 551.21,-22.8"/>
<polygon fill="midnightblue" stroke="midnightblue" points="552.1,-26.18 561.06,-20.52 550.53,-19.36 552.1,-26.18"/>
</g>
</g>
</svg>
