<svg xmlns="http://www.w3.org/2000/svg" xmlns:xlink="http://www.w3.org/1999/xlink" width="196" height="376pt" viewBox="0 0 147 376"><g class="graph" transform="translate(4 372)"><title>DataDafaliasManzari</title><g class="node"><title>Node1</title><a>
<path fill="#999" stroke="transparent" d="M139-148H0V0h139z"/>
<text x="5.5" y="-135.2" font-family="Consolas" font-size="11">DataDafaliasManzari</text>
<text x="10.5" y="-119.2" font-family="Consolas" font-size="11">+</text>
<text x="27.5" y="-119.2" font-family="Consolas" font-size="11">shear_modulus</text>
<text x="10.5" y="-103.2" font-family="Consolas" font-size="11">+</text>
<text x="27.5" y="-103.2" font-family="Consolas" font-size="11">poissons_ratio</text>
<text x="10.5" y="-87.2" font-family="Consolas" font-size="11">+</text>
<text x="27.5" y="-87.2" font-family="Consolas" font-size="11">xi</text>
<text x="10.5" y="-71.2" font-family="Consolas" font-size="11">+</text>
<text x="27.5" y="-71.2" font-family="Consolas" font-size="11">nb</text>
<text x="10.5" y="-55.2" font-family="Consolas" font-size="11">+</text>
<text x="27.5" y="-55.2" font-family="Consolas" font-size="11">nd</text>
<text x="10.5" y="-39.2" font-family="Consolas" font-size="11">+</text>
<text x="27.5" y="-39.2" font-family="Consolas" font-size="11">zm</text>
<text x="10.5" y="-23.2" font-family="Consolas" font-size="11">+</text>
<text x="27.5" y="-23.2" font-family="Consolas" font-size="11">pc</text>
<text x="66.5" y="-7.2" font-family="Consolas" font-size="11"> </text>
<path fill="#666" stroke="#666" d="M.5-130h139z"/>
<path fill="#666" stroke="#666" d="M.5-18h25z"/>
<path fill="#666" stroke="#666" d="M25.5-18h114z"/>
<path fill="none" stroke="#666" d="M0 0v-148h139V0z"/>
</a></g><g class="node"><title>Node2</title><a xlink:href="../../df/de6/classdouble.html" target="_top">
<path fill="#fff" stroke="transparent" d="M95-368H44v52h51z"/>
<text x="49.5" y="-355.2" font-family="Consolas" font-size="11">double</text>
<text x="66.5" y="-339.2" font-family="Consolas" font-size="11"> </text>
<text x="66.5" y="-323.2" font-family="Consolas" font-size="11"> </text>
<path fill="#666" stroke="#666" d="M44.5-350h51z"/>
<path fill="#666" stroke="#666" d="M44.5-334h51z"/>
<path fill="none" stroke="#666" d="M44-316v-52h51v52z"/>
</a></g><g class="edge"><title>Node2-&gt;Node1</title><a>
<path fill="none" stroke="#63b8ff" d="M69.5-315.98v155.75"/>
<path fill="none" stroke="#63b8ff" d="m69.5-160.18-4 6 4 6 4-6z"/>
</a><text x="80" y="-289.2" fill="gray" font-family="Consolas" font-size="11" text-anchor="middle"> +a</text><text x="80" y="-277.2" fill="gray" font-family="Consolas" font-size="11" text-anchor="middle">+ac</text><text x="80" y="-265.2" fill="gray" font-family="Consolas" font-size="11" text-anchor="middle">+ch</text><text x="80" y="-253.2" fill="gray" font-family="Consolas" font-size="11" text-anchor="middle">+cz</text><text x="80" y="-241.2" fill="gray" font-family="Consolas" font-size="11" text-anchor="middle">+e0</text><text x="80" y="-229.2" fill="gray" font-family="Consolas" font-size="11" text-anchor="middle">+gr</text><text x="80" y="-217.2" fill="gray" font-family="Consolas" font-size="11" text-anchor="middle">+h0</text><text x="80" y="-205.2" fill="gray" font-family="Consolas" font-size="11" text-anchor="middle">+h1</text><text x="80" y="-193.2" fill="gray" font-family="Consolas" font-size="11" text-anchor="middle">+lc</text><text x="80" y="-181.2" fill="gray" font-family="Consolas" font-size="11" text-anchor="middle">+m</text><text x="80" y="-169.2" fill="gray" font-family="Consolas" font-size="11" text-anchor="middle">...</text></g></g></svg>