<?xml version="1.0" encoding="UTF-8" standalone="no"?>
<!DOCTYPE svg PUBLIC "-//W3C//DTD SVG 1.1//EN"
 "http://www.w3.org/Graphics/SVG/1.1/DTD/svg11.dtd">
<!-- Generated by graphviz version 2.43.0 (0)
 -->
<!-- Title: IsotropicElastic3D Pages: 1 -->
<!--zoomable 1238 -->

<svg id="main" version="1.1" xmlns="http://www.w3.org/2000/svg" xmlns:xlink="http://www.w3.org/1999/xlink" xml:space="preserve" onload="init(evt)">
<style type="text/css"><![CDATA[
.node, .edge {opacity: 0.7;}
.node.selected, .edge.selected {opacity: 1;}
.edge:hover path { stroke: red; }
.edge:hover polygon { stroke: red; fill: red; }
]]></style>

<defs>
  <circle id="rim" cx="0" cy="0" r="7"/>
  <circle id="rim2" cx="0" cy="0" r="3.5"/>
  <g id="zoomPlus">
    <use xlink:href="#rim" fill="#404040"><set attributeName="fill" to="#808080" begin="zoomplus.mouseover" end="zoomplus.mouseout"/></use>
    <path d="M-4,0h8M0,-4v8" fill="none" stroke="white" stroke-width="1.5" pointer-events="none"/>
  </g>
  <g id="zoomMin">
    <use xlink:href="#rim" fill="#404040"><set attributeName="fill" to="#808080" begin="zoomminus.mouseover" end="zoomminus.mouseout"/></use>
    <path d="M-4,0h8" fill="none" stroke="white" stroke-width="1.5" pointer-events="none"/>
  </g>
  <g id="arrowUp" transform="translate(30 24)">
    <use xlink:href="#rim"/>
    <path pointer-events="none" fill="none" stroke="white" stroke-width="1.5" d="M0,-3.0v7 M-2.5,-0.5L0,-3.0L2.5,-0.5"/>
  </g>
  <g id="arrowRight" transform="rotate(90) translate(36 -43)">
    <use xlink:href="#rim"/>
    <path pointer-events="none" fill="none" stroke="white" stroke-width="1.5" d="M0,-3.0v7 M-2.5,-0.5L0,-3.0L2.5,-0.5"/>
  </g>
  <g id="arrowDown" transform="rotate(180) translate(-30 -48)">
    <use xlink:href="#rim"/>
    <path pointer-events="none" fill="none" stroke="white" stroke-width="1.5" d="M0,-3.0v7 M-2.5,-0.5L0,-3.0L2.5,-0.5"/>
  </g>
  <g id="arrowLeft" transform="rotate(270) translate(-36 17)">
    <use xlink:href="#rim"/>
    <path pointer-events="none" fill="none" stroke="white" stroke-width="1.5" d="M0,-3.0v7 M-2.5,-0.5L0,-3.0L2.5,-0.5"/>
  </g>
  <g id="resetDef">
    <use xlink:href="#rim2" fill="#404040"><set attributeName="fill" to="#808080" begin="reset.mouseover" end="reset.mouseout"/></use>
  </g>
</defs>
<script type="application/ecmascript">
var viewWidth = 1301;
var viewHeight = 1238;
var sectionId = 'dynsection-1';
</script>
<script type="application/ecmascript" xlink:href="../../svg.min.js"/>
<svg id="graph" class="graph">
<g id="viewport">
<title>IsotropicElastic3D</title>
<!-- Node1 -->
<g id="Node000001" class="node">
<title>Node1</title>
<g id="a_Node000001"><a xlink:title="The IsotropicElastic3D class defines a isotropic elastic material for 3&#45;D problems.">
<polygon fill="#999999" stroke="transparent" points="541.15,-180 380.15,-180 380.15,0 541.15,0 541.15,-180"/>
<text text-anchor="start" x="400.15" y="-167.2" font-family="Consolas" font-size="11.00">IsotropicElastic3D</text>
<text text-anchor="start" x="457.65" y="-151.2" font-family="Consolas" font-size="11.00"> </text>
<text text-anchor="start" x="384.65" y="-135.2" font-family="Consolas" font-size="11.00">+</text>
<text text-anchor="start" x="395.65" y="-135.2" font-family="Consolas" font-size="11.00">IsotropicElastic3D()</text>
<text text-anchor="start" x="384.65" y="-119.2" font-family="Consolas" font-size="11.00">+</text>
<text text-anchor="start" x="395.65" y="-119.2" font-family="Consolas" font-size="11.00">initialize()</text>
<text text-anchor="start" x="384.65" y="-103.2" font-family="Consolas" font-size="11.00">+</text>
<text text-anchor="start" x="395.65" y="-103.2" font-family="Consolas" font-size="11.00">get_parameter()</text>
<text text-anchor="start" x="384.65" y="-87.2" font-family="Consolas" font-size="11.00">+</text>
<text text-anchor="start" x="395.65" y="-87.2" font-family="Consolas" font-size="11.00">get_copy()</text>
<text text-anchor="start" x="384.65" y="-71.2" font-family="Consolas" font-size="11.00">+</text>
<text text-anchor="start" x="395.65" y="-71.2" font-family="Consolas" font-size="11.00">update_trial_status()</text>
<text text-anchor="start" x="384.65" y="-55.2" font-family="Consolas" font-size="11.00">+</text>
<text text-anchor="start" x="395.65" y="-55.2" font-family="Consolas" font-size="11.00">clear_status()</text>
<text text-anchor="start" x="384.65" y="-39.2" font-family="Consolas" font-size="11.00">+</text>
<text text-anchor="start" x="395.65" y="-39.2" font-family="Consolas" font-size="11.00">commit_status()</text>
<text text-anchor="start" x="384.65" y="-23.2" font-family="Consolas" font-size="11.00">+</text>
<text text-anchor="start" x="395.65" y="-23.2" font-family="Consolas" font-size="11.00">reset_status()</text>
<text text-anchor="start" x="384.65" y="-7.2" font-family="Consolas" font-size="11.00">+</text>
<text text-anchor="start" x="395.65" y="-7.2" font-family="Consolas" font-size="11.00">print()</text>
<polygon fill="#666666" stroke="#666666" points="380.65,-162 380.65,-162 541.65,-162 541.65,-162 380.65,-162"/>
<polygon fill="#666666" stroke="#666666" points="380.65,-146 380.65,-146 541.65,-146 541.65,-146 380.65,-146"/>
<polygon fill="none" stroke="#666666" points="380.15,0 380.15,-180 541.15,-180 541.15,0 380.15,0"/>
</a>
</g>
</g>
<!-- Node2 -->
<g id="Node000002" class="node">
<title>Node2</title>
<g id="a_Node000002"><a xlink:href="../../d3/d0e/struct_data_isotropic_elastic3_d.html" target="_top" xlink:title=" ">
<polygon fill="white" stroke="transparent" points="523.15,-604 364.15,-604 364.15,-552 523.15,-552 523.15,-604"/>
<text text-anchor="start" x="369.65" y="-591.2" font-family="Consolas" font-size="11.00">DataIsotropicElastic3D</text>
<text text-anchor="start" x="440.65" y="-575.2" font-family="Consolas" font-size="11.00"> </text>
<text text-anchor="start" x="440.65" y="-559.2" font-family="Consolas" font-size="11.00"> </text>
<polygon fill="#666666" stroke="#666666" points="364.65,-586 364.65,-586 523.65,-586 523.65,-586 364.65,-586"/>
<polygon fill="#666666" stroke="#666666" points="364.65,-570 364.65,-570 523.65,-570 523.65,-570 364.65,-570"/>
<polygon fill="none" stroke="#666666" points="364.15,-552 364.15,-604 523.15,-604 523.15,-552 364.15,-552"/>
</a>
</g>
</g>
<!-- Node2&#45;&gt;Node1 -->
<g id="edge1_Node000001_Node000002" class="edge">
<title>Node2&#45;&gt;Node1</title>
<g id="a_edge1_Node000001_Node000002"><a xlink:title=" ">
<path fill="none" stroke="#63b8ff" d="M444.89,-541.56C447.53,-466.32 453.74,-288.68 457.53,-180.28"/>
<polygon fill="none" stroke="#63b8ff" points="441.38,-541.78 444.53,-551.89 448.38,-542.02 441.38,-541.78"/>
</a>
</g>
</g>
<!-- Node3 -->
<g id="Node000003" class="node">
<title>Node3</title>
<g id="a_Node000003"><a xlink:title=" ">
<polygon fill="white" stroke="transparent" points="116.15,-1118 65.15,-1118 65.15,-1066 116.15,-1066 116.15,-1118"/>
<text text-anchor="start" x="70.65" y="-1105.2" font-family="Consolas" font-size="11.00">double</text>
<text text-anchor="start" x="87.65" y="-1089.2" font-family="Consolas" font-size="11.00"> </text>
<text text-anchor="start" x="87.65" y="-1073.2" font-family="Consolas" font-size="11.00"> </text>
<polygon fill="#666666" stroke="#666666" points="65.65,-1100 65.65,-1100 116.65,-1100 116.65,-1100 65.65,-1100"/>
<polygon fill="#666666" stroke="#666666" points="65.65,-1084 65.65,-1084 116.65,-1084 116.65,-1084 65.65,-1084"/>
<polygon fill="none" stroke="#666666" points="65.15,-1066 65.15,-1118 116.15,-1118 116.15,-1066 65.15,-1066"/>
</a>
</g>
</g>
<!-- Node3&#45;&gt;Node2 -->
<g id="edge2_Node000002_Node000003" class="edge">
<title>Node3&#45;&gt;Node2</title>
<g id="a_edge2_Node000002_Node000003"><a xlink:title=" ">
<path fill="none" stroke="#63b8ff" d="M72.36,-1065.71C36.87,-1013.29 -33.41,-890.48 18.65,-804 90.73,-684.29 250.23,-624.93 352.03,-598.19"/>
<polygon fill="none" stroke="#63b8ff" points="352.21,-598.14 357.03,-592.77 363.84,-595.16 359.02,-600.52 352.21,-598.14"/>
</a>
</g>
<text text-anchor="middle" x="76.15" y="-873.2" font-family="Consolas" font-size="11.00" fill="grey"> +elastic_modulus</text>
<text text-anchor="middle" x="76.15" y="-861.2" font-family="Consolas" font-size="11.00" fill="grey">+poissons_ratio</text>
</g>
<!-- Node6 -->
<g id="Node000006" class="node">
<title>Node6</title>
<g id="a_Node000006"><a xlink:href="../../de/de9/struct_data_material.html" target="_top" xlink:title=" ">
<polygon fill="white" stroke="transparent" points="558.65,-762 424.65,-762 424.65,-646 558.65,-646 558.65,-762"/>
<text text-anchor="start" x="450.65" y="-749.2" font-family="Consolas" font-size="11.00">DataMaterial</text>
<text text-anchor="start" x="428.65" y="-733.2" font-family="Consolas" font-size="11.00">+</text>
<text text-anchor="start" x="439.65" y="-733.2" font-family="Consolas" font-size="11.00">trial_strain</text>
<text text-anchor="start" x="428.65" y="-717.2" font-family="Consolas" font-size="11.00">+</text>
<text text-anchor="start" x="439.65" y="-717.2" font-family="Consolas" font-size="11.00">trial_strain_rate</text>
<text text-anchor="start" x="428.65" y="-701.2" font-family="Consolas" font-size="11.00">+</text>
<text text-anchor="start" x="439.65" y="-701.2" font-family="Consolas" font-size="11.00">trial_strain_acc</text>
<text text-anchor="start" x="428.65" y="-685.2" font-family="Consolas" font-size="11.00">+</text>
<text text-anchor="start" x="439.65" y="-685.2" font-family="Consolas" font-size="11.00">trial_stress</text>
<text text-anchor="start" x="428.65" y="-669.2" font-family="Consolas" font-size="11.00">+</text>
<text text-anchor="start" x="439.65" y="-669.2" font-family="Consolas" font-size="11.00">trial_history</text>
<text text-anchor="start" x="488.15" y="-653.2" font-family="Consolas" font-size="11.00"> </text>
<polygon fill="#666666" stroke="#666666" points="424.65,-744 424.65,-744 558.65,-744 558.65,-744 424.65,-744"/>
<polygon fill="#666666" stroke="#666666" points="424.65,-664 424.65,-664 437.65,-664 437.65,-664 424.65,-664"/>
<polygon fill="#666666" stroke="#666666" points="437.65,-664 437.65,-664 558.65,-664 558.65,-664 437.65,-664"/>
<polygon fill="none" stroke="#666666" points="424.65,-646 424.65,-762 558.65,-762 558.65,-646 424.65,-646"/>
</a>
</g>
</g>
<!-- Node3&#45;&gt;Node6 -->
<g id="edge6_Node000006_Node000003" class="edge">
<title>Node3&#45;&gt;Node6</title>
<g id="a_edge6_Node000006_Node000003"><a xlink:title=" ">
<path fill="none" stroke="#63b8ff" d="M99.52,-1065.79C109.95,-1035.37 127.14,-982.49 137.65,-936 144.2,-907.06 138.17,-826.37 157.65,-804 221.09,-731.16 335.37,-710.67 412.36,-705.57"/>
<polygon fill="none" stroke="#63b8ff" points="412.4,-705.56 418.16,-701.23 424.38,-704.87 418.62,-709.21 412.4,-705.56"/>
</a>
</g>
<text text-anchor="middle" x="235.65" y="-879.2" font-family="Consolas" font-size="11.00" fill="grey"> +characteristic_length</text>
<text text-anchor="middle" x="235.65" y="-867.2" font-family="Consolas" font-size="11.00" fill="grey">+density</text>
<text text-anchor="middle" x="235.65" y="-855.2" font-family="Consolas" font-size="11.00" fill="grey">+tolerance</text>
</g>
<!-- Node4 -->
<g id="Node000004" class="node">
<title>Node4</title>
<g id="a_Node000004"><a xlink:href="../../d7/d42/class_material3_d.html" target="_top" xlink:title="The Material3D class.">
<polygon fill="white" stroke="transparent" points="624.15,-285 523.15,-285 523.15,-217 624.15,-217 624.15,-285"/>
<text text-anchor="start" x="540.15" y="-272.2" font-family="Consolas" font-size="11.00">Material3D</text>
<text text-anchor="start" x="570.65" y="-256.2" font-family="Consolas" font-size="11.00"> </text>
<text text-anchor="start" x="527.65" y="-240.2" font-family="Consolas" font-size="11.00">+</text>
<text text-anchor="start" x="538.65" y="-240.2" font-family="Consolas" font-size="11.00">Material3D()</text>
<text text-anchor="start" x="527.65" y="-224.2" font-family="Consolas" font-size="11.00">+</text>
<text text-anchor="start" x="538.65" y="-224.2" font-family="Consolas" font-size="11.00">record()</text>
<polygon fill="#666666" stroke="#666666" points="523.65,-267 523.65,-267 624.65,-267 624.65,-267 523.65,-267"/>
<polygon fill="#666666" stroke="#666666" points="523.65,-251 523.65,-251 624.65,-251 624.65,-251 523.65,-251"/>
<polygon fill="none" stroke="#666666" points="523.15,-217 523.15,-285 624.15,-285 624.15,-217 523.15,-217"/>
</a>
</g>
</g>
<!-- Node4&#45;&gt;Node1 -->
<g id="edge3_Node000001_Node000004" class="edge">
<title>Node4&#45;&gt;Node1</title>
<g id="a_edge3_Node000001_Node000004"><a xlink:title=" ">
<path fill="none" stroke="#63b8ff" d="M544.17,-208.51C537.92,-199.71 531.09,-190.11 524.12,-180.3"/>
<polygon fill="none" stroke="#63b8ff" points="541.32,-210.54 549.97,-216.67 547.03,-206.49 541.32,-210.54"/>
</a>
</g>
</g>
<!-- Node5 -->
<g id="Node000005" class="node">
<title>Node5</title>
<g id="a_Node000005"><a xlink:href="../../dc/dee/class_material.html" target="_top" xlink:title="A Material abstract base class.">
<polygon fill="white" stroke="transparent" points="701.15,-534 540.15,-534 540.15,-322 701.15,-322 701.15,-534"/>
<text text-anchor="start" x="593.65" y="-521.2" font-family="Consolas" font-size="11.00">Material</text>
<text text-anchor="start" x="617.65" y="-505.2" font-family="Consolas" font-size="11.00"> </text>
<text text-anchor="start" x="544.65" y="-489.2" font-family="Consolas" font-size="11.00">+</text>
<text text-anchor="start" x="555.65" y="-489.2" font-family="Consolas" font-size="11.00">Material()</text>
<text text-anchor="start" x="544.65" y="-473.2" font-family="Consolas" font-size="11.00">+</text>
<text text-anchor="start" x="555.65" y="-473.2" font-family="Consolas" font-size="11.00">get_density()</text>
<text text-anchor="start" x="544.65" y="-457.2" font-family="Consolas" font-size="11.00">+</text>
<text text-anchor="start" x="555.65" y="-457.2" font-family="Consolas" font-size="11.00">get_material_type()</text>
<text text-anchor="start" x="544.65" y="-441.2" font-family="Consolas" font-size="11.00">+</text>
<text text-anchor="start" x="555.65" y="-441.2" font-family="Consolas" font-size="11.00">get_plane_type()</text>
<text text-anchor="start" x="544.65" y="-425.2" font-family="Consolas" font-size="11.00">+</text>
<text text-anchor="start" x="555.65" y="-425.2" font-family="Consolas" font-size="11.00">initialize_base()</text>
<text text-anchor="start" x="544.65" y="-409.2" font-family="Consolas" font-size="11.00">+</text>
<text text-anchor="start" x="555.65" y="-409.2" font-family="Consolas" font-size="11.00">initialize()</text>
<text text-anchor="start" x="544.65" y="-393.2" font-family="Consolas" font-size="11.00">+</text>
<text text-anchor="start" x="555.65" y="-393.2" font-family="Consolas" font-size="11.00">initialize_couple()</text>
<text text-anchor="start" x="544.65" y="-377.2" font-family="Consolas" font-size="11.00">+</text>
<text text-anchor="start" x="555.65" y="-377.2" font-family="Consolas" font-size="11.00">initialize_history()</text>
<text text-anchor="start" x="544.65" y="-361.2" font-family="Consolas" font-size="11.00">+</text>
<text text-anchor="start" x="555.65" y="-361.2" font-family="Consolas" font-size="11.00">set_initial_history()</text>
<text text-anchor="start" x="544.65" y="-345.2" font-family="Consolas" font-size="11.00">+</text>
<text text-anchor="start" x="555.65" y="-345.2" font-family="Consolas" font-size="11.00">set_initialized()</text>
<text text-anchor="start" x="555.65" y="-329.2" font-family="Consolas" font-size="11.00">and 67 more...</text>
<polygon fill="#666666" stroke="#666666" points="540.65,-516 540.65,-516 701.65,-516 701.65,-516 540.65,-516"/>
<polygon fill="#666666" stroke="#666666" points="540.65,-500 540.65,-500 701.65,-500 701.65,-500 540.65,-500"/>
<polygon fill="none" stroke="#666666" points="540.15,-322 540.15,-534 701.15,-534 701.15,-322 540.15,-322"/>
</a>
</g>
</g>
<!-- Node5&#45;&gt;Node4 -->
<g id="edge4_Node000004_Node000005" class="edge">
<title>Node5&#45;&gt;Node4</title>
<g id="a_edge4_Node000004_Node000005"><a xlink:title=" ">
<path fill="none" stroke="#63b8ff" d="M589.8,-312.13C587.22,-302.5 584.76,-293.35 582.58,-285.23"/>
<polygon fill="none" stroke="#63b8ff" points="586.46,-313.17 592.43,-321.92 593.22,-311.35 586.46,-313.17"/>
</a>
</g>
</g>
<!-- Node6&#45;&gt;Node5 -->
<g id="edge5_Node000005_Node000006" class="edge">
<title>Node6&#45;&gt;Node5</title>
<g id="a_edge5_Node000005_Node000006"><a xlink:title=" ">
<path fill="none" stroke="darkgreen" d="M522.93,-636.58C537.39,-605.85 554.93,-568.6 571.13,-534.19"/>
<polygon fill="none" stroke="darkgreen" points="519.63,-635.36 518.54,-645.89 525.97,-638.34 519.63,-635.36"/>
</a>
</g>
</g>
<!-- Node7 -->
<g id="Node000007" class="node">
<title>Node7</title>
<g id="a_Node000007"><a xlink:title=" ">
<polygon fill="white" stroke="transparent" points="396.65,-1118 264.65,-1118 264.65,-1066 396.65,-1066 396.65,-1118"/>
<text text-anchor="start" x="269.65" y="-1105.2" font-family="Consolas" font-size="11.00">const MaterialType</text>
<text text-anchor="start" x="327.15" y="-1089.2" font-family="Consolas" font-size="11.00"> </text>
<text text-anchor="start" x="327.15" y="-1073.2" font-family="Consolas" font-size="11.00"> </text>
<polygon fill="#666666" stroke="#666666" points="264.65,-1100 264.65,-1100 396.65,-1100 396.65,-1100 264.65,-1100"/>
<polygon fill="#666666" stroke="#666666" points="264.65,-1084 264.65,-1084 396.65,-1084 396.65,-1084 264.65,-1084"/>
<polygon fill="none" stroke="#666666" points="264.65,-1066 264.65,-1118 396.65,-1118 396.65,-1066 264.65,-1066"/>
</a>
</g>
</g>
<!-- Node7&#45;&gt;Node6 -->
<g id="edge7_Node000006_Node000007" class="edge">
<title>Node7&#45;&gt;Node6</title>
<g id="a_edge7_Node000006_Node000007"><a xlink:title=" ">
<path fill="none" stroke="#63b8ff" d="M325.77,-1065.95C316.91,-1013.46 303.25,-889.69 351.65,-804 366.07,-778.49 390.09,-757.95 414.21,-742.35"/>
<polygon fill="none" stroke="#63b8ff" points="414.32,-742.28 417.32,-735.72 424.53,-735.96 421.53,-742.52 414.32,-742.28"/>
</a>
</g>
<text text-anchor="middle" x="402.65" y="-867.2" font-family="Consolas" font-size="11.00" fill="grey"> +material_type</text>
</g>
<!-- Node8 -->
<g id="Node000008" class="node">
<title>Node8</title>
<g id="a_Node000008"><a xlink:title=" ">
<polygon fill="white" stroke="transparent" points="526.65,-1118 414.65,-1118 414.65,-1066 526.65,-1066 526.65,-1118"/>
<text text-anchor="start" x="419.65" y="-1105.2" font-family="Consolas" font-size="11.00">const PlaneType</text>
<text text-anchor="start" x="467.15" y="-1089.2" font-family="Consolas" font-size="11.00"> </text>
<text text-anchor="start" x="467.15" y="-1073.2" font-family="Consolas" font-size="11.00"> </text>
<polygon fill="#666666" stroke="#666666" points="414.65,-1100 414.65,-1100 526.65,-1100 526.65,-1100 414.65,-1100"/>
<polygon fill="#666666" stroke="#666666" points="414.65,-1084 414.65,-1084 526.65,-1084 526.65,-1084 414.65,-1084"/>
<polygon fill="none" stroke="#666666" points="414.65,-1066 414.65,-1118 526.65,-1118 526.65,-1066 414.65,-1066"/>
</a>
</g>
</g>
<!-- Node8&#45;&gt;Node6 -->
<g id="edge8_Node000006_Node000008" class="edge">
<title>Node8&#45;&gt;Node6</title>
<g id="a_edge8_Node000006_Node000008"><a xlink:title=" ">
<path fill="none" stroke="#63b8ff" d="M467.55,-1065.9C461.94,-1015.83 451.79,-900.08 464.65,-804 465.98,-794.1 468.02,-783.79 470.4,-773.72"/>
<polygon fill="none" stroke="#63b8ff" points="470.4,-773.69 467.98,-766.9 473.32,-762.05 475.74,-768.85 470.4,-773.69"/>
</a>
</g>
<text text-anchor="middle" x="505.65" y="-867.2" font-family="Consolas" font-size="11.00" fill="grey"> +plane_type</text>
</g>
<!-- Node9 -->
<g id="Node000009" class="node">
<title>Node9</title>
<g id="a_Node000009"><a xlink:title=" ">
<polygon fill="white" stroke="transparent" points="1007.15,-1118 976.15,-1118 976.15,-1066 1007.15,-1066 1007.15,-1118"/>
<text text-anchor="start" x="981.65" y="-1105.2" font-family="Consolas" font-size="11.00">vec</text>
<text text-anchor="start" x="988.65" y="-1089.2" font-family="Consolas" font-size="11.00"> </text>
<text text-anchor="start" x="988.65" y="-1073.2" font-family="Consolas" font-size="11.00"> </text>
<polygon fill="#666666" stroke="#666666" points="976.65,-1100 976.65,-1100 1007.65,-1100 1007.65,-1100 976.65,-1100"/>
<polygon fill="#666666" stroke="#666666" points="976.65,-1084 976.65,-1084 1007.65,-1084 1007.65,-1084 976.65,-1084"/>
<polygon fill="none" stroke="#666666" points="976.15,-1066 976.15,-1118 1007.15,-1118 1007.15,-1066 976.15,-1066"/>
</a>
</g>
</g>
<!-- Node9&#45;&gt;Node6 -->
<g id="edge9_Node000006_Node000009" class="edge">
<title>Node9&#45;&gt;Node6</title>
<g id="a_edge9_Node000006_Node000009"><a xlink:title=" ">
<path fill="none" stroke="#63b8ff" d="M976.15,-1067.67C957.37,-1038.26 926.19,-985.52 909.65,-936 890.84,-879.65 932.42,-844.16 888.65,-804 868.13,-785.17 665.36,-793.9 638.65,-786 615.11,-779.03 591.14,-767.88 569.57,-756.04"/>
<polygon fill="none" stroke="#63b8ff" points="569.31,-755.9 562.12,-756.43 558.86,-750 566.05,-749.47 569.31,-755.9"/>
</a>
</g>
<text text-anchor="middle" x="977.65" y="-927.2" font-family="Consolas" font-size="11.00" fill="grey"> +current_history</text>
<text text-anchor="middle" x="977.65" y="-915.2" font-family="Consolas" font-size="11.00" fill="grey">+current_strain</text>
<text text-anchor="middle" x="977.65" y="-903.2" font-family="Consolas" font-size="11.00" fill="grey">+current_strain_acc</text>
<text text-anchor="middle" x="977.65" y="-891.2" font-family="Consolas" font-size="11.00" fill="grey">+current_strain_rate</text>
<text text-anchor="middle" x="977.65" y="-879.2" font-family="Consolas" font-size="11.00" fill="grey">+current_stress</text>
<text text-anchor="middle" x="977.65" y="-867.2" font-family="Consolas" font-size="11.00" fill="grey">+incre_strain</text>
<text text-anchor="middle" x="977.65" y="-855.2" font-family="Consolas" font-size="11.00" fill="grey">+incre_strain_acc</text>
<text text-anchor="middle" x="977.65" y="-843.2" font-family="Consolas" font-size="11.00" fill="grey">+incre_strain_rate</text>
<text text-anchor="middle" x="977.65" y="-831.2" font-family="Consolas" font-size="11.00" fill="grey">+incre_stress</text>
<text text-anchor="middle" x="977.65" y="-819.2" font-family="Consolas" font-size="11.00" fill="grey">+initial_history</text>
<text text-anchor="middle" x="977.65" y="-807.2" font-family="Consolas" font-size="11.00" fill="grey">...</text>
</g>
<!-- Node11 -->
<g id="Node000011" class="node">
<title>Node11</title>
<g id="a_Node000011"><a xlink:href="../../da/de4/struct_data_couple_material.html" target="_top" xlink:title=" ">
<polygon fill="white" stroke="transparent" points="779.65,-730 647.65,-730 647.65,-678 779.65,-678 779.65,-730"/>
<text text-anchor="start" x="652.65" y="-717.2" font-family="Consolas" font-size="11.00">DataCoupleMaterial</text>
<text text-anchor="start" x="710.15" y="-701.2" font-family="Consolas" font-size="11.00"> </text>
<text text-anchor="start" x="710.15" y="-685.2" font-family="Consolas" font-size="11.00"> </text>
<polygon fill="#666666" stroke="#666666" points="647.65,-712 647.65,-712 779.65,-712 779.65,-712 647.65,-712"/>
<polygon fill="#666666" stroke="#666666" points="647.65,-696 647.65,-696 779.65,-696 779.65,-696 647.65,-696"/>
<polygon fill="none" stroke="#666666" points="647.65,-678 647.65,-730 779.65,-730 779.65,-678 647.65,-678"/>
</a>
</g>
</g>
<!-- Node9&#45;&gt;Node11 -->
<g id="edge12_Node000011_Node000009" class="edge">
<title>Node9&#45;&gt;Node11</title>
<g id="a_edge12_Node000011_Node000009"><a xlink:title=" ">
<path fill="none" stroke="#63b8ff" d="M1004.33,-1065.75C1018.63,-1035.72 1041.03,-983.64 1049.65,-936 1060.1,-878.27 1085.35,-850.56 1049.65,-804 1030.89,-779.53 1012.31,-794.45 982.65,-786 917.98,-767.58 844.94,-745.5 791.3,-729.05"/>
<polygon fill="none" stroke="#63b8ff" points="791.29,-729.05 784.38,-731.11 779.82,-725.53 786.73,-723.47 791.29,-729.05"/>
</a>
</g>
<text text-anchor="middle" x="1145.65" y="-897.2" font-family="Consolas" font-size="11.00" fill="grey"> +current_couple_stress</text>
<text text-anchor="middle" x="1145.65" y="-885.2" font-family="Consolas" font-size="11.00" fill="grey">+current_curvature</text>
<text text-anchor="middle" x="1145.65" y="-873.2" font-family="Consolas" font-size="11.00" fill="grey">+incre_couple_stress</text>
<text text-anchor="middle" x="1145.65" y="-861.2" font-family="Consolas" font-size="11.00" fill="grey">+incre_curvature</text>
<text text-anchor="middle" x="1145.65" y="-849.2" font-family="Consolas" font-size="11.00" fill="grey">+trial_couple_stress</text>
<text text-anchor="middle" x="1145.65" y="-837.2" font-family="Consolas" font-size="11.00" fill="grey">+trial_curvature</text>
</g>
<!-- Node10 -->
<g id="Node000010" class="node">
<title>Node10</title>
<g id="a_Node000010"><a xlink:title=" ">
<polygon fill="white" stroke="transparent" points="656.15,-1118 625.15,-1118 625.15,-1066 656.15,-1066 656.15,-1118"/>
<text text-anchor="start" x="630.65" y="-1105.2" font-family="Consolas" font-size="11.00">mat</text>
<text text-anchor="start" x="637.65" y="-1089.2" font-family="Consolas" font-size="11.00"> </text>
<text text-anchor="start" x="637.65" y="-1073.2" font-family="Consolas" font-size="11.00"> </text>
<polygon fill="#666666" stroke="#666666" points="625.65,-1100 625.65,-1100 656.65,-1100 656.65,-1100 625.65,-1100"/>
<polygon fill="#666666" stroke="#666666" points="625.65,-1084 625.65,-1084 656.65,-1084 656.65,-1084 625.65,-1084"/>
<polygon fill="none" stroke="#666666" points="625.15,-1066 625.15,-1118 656.15,-1118 656.15,-1066 625.15,-1066"/>
</a>
</g>
</g>
<!-- Node10&#45;&gt;Node6 -->
<g id="edge10_Node000006_Node000010" class="edge">
<title>Node10&#45;&gt;Node6</title>
<g id="a_edge10_Node000006_Node000010"><a xlink:title=" ">
<path fill="none" stroke="#63b8ff" d="M625.52,-1065.94C608.22,-1036.08 580.39,-984.17 565.65,-936 548.32,-879.32 565.58,-860.17 546.65,-804 543.15,-793.6 538.56,-783.03 533.52,-772.86"/>
<polygon fill="none" stroke="#63b8ff" points="533.42,-772.66 527.11,-769.17 527.91,-762 534.22,-765.5 533.42,-772.66"/>
</a>
</g>
<text text-anchor="middle" x="626.65" y="-915.2" font-family="Consolas" font-size="11.00" fill="grey"> +current_damping</text>
<text text-anchor="middle" x="626.65" y="-903.2" font-family="Consolas" font-size="11.00" fill="grey">+current_inertial</text>
<text text-anchor="middle" x="626.65" y="-891.2" font-family="Consolas" font-size="11.00" fill="grey">+current_stiffness</text>
<text text-anchor="middle" x="626.65" y="-879.2" font-family="Consolas" font-size="11.00" fill="grey">+initial_damping</text>
<text text-anchor="middle" x="626.65" y="-867.2" font-family="Consolas" font-size="11.00" fill="grey">+initial_inertial</text>
<text text-anchor="middle" x="626.65" y="-855.2" font-family="Consolas" font-size="11.00" fill="grey">+initial_stiffness</text>
<text text-anchor="middle" x="626.65" y="-843.2" font-family="Consolas" font-size="11.00" fill="grey">+trial_damping</text>
<text text-anchor="middle" x="626.65" y="-831.2" font-family="Consolas" font-size="11.00" fill="grey">+trial_inertial</text>
<text text-anchor="middle" x="626.65" y="-819.2" font-family="Consolas" font-size="11.00" fill="grey">+trial_stiffness</text>
</g>
<!-- Node10&#45;&gt;Node11 -->
<g id="edge13_Node000011_Node000010" class="edge">
<title>Node10&#45;&gt;Node11</title>
<g id="a_edge13_Node000011_Node000010"><a xlink:title=" ">
<path fill="none" stroke="#63b8ff" d="M650.82,-1065.97C662.65,-1035.71 681.81,-983 691.65,-936 705.77,-868.6 710.84,-788.22 712.66,-742.24"/>
<polygon fill="none" stroke="#63b8ff" points="712.66,-742.22 708.87,-736.08 713.09,-730.23 716.87,-736.37 712.66,-742.22"/>
</a>
</g>
<text text-anchor="middle" x="796.65" y="-879.2" font-family="Consolas" font-size="11.00" fill="grey"> +current_couple_stiffness</text>
<text text-anchor="middle" x="796.65" y="-867.2" font-family="Consolas" font-size="11.00" fill="grey">+initial_couple_stiffness</text>
<text text-anchor="middle" x="796.65" y="-855.2" font-family="Consolas" font-size="11.00" fill="grey">+trial_couple_stiffness</text>
</g>
<!-- Node11&#45;&gt;Node5 -->
<g id="edge11_Node000005_Node000011" class="edge">
<title>Node11&#45;&gt;Node5</title>
<g id="a_edge11_Node000005_Node000011"><a xlink:title=" ">
<path fill="none" stroke="darkgreen" d="M701.74,-667.89C690.29,-634.18 672.43,-581.54 656.38,-534.25"/>
<polygon fill="none" stroke="darkgreen" points="698.54,-669.37 705.07,-677.71 705.17,-667.12 698.54,-669.37"/>
</a>
</g>
</g>
<!-- Node12 -->
<g id="Node000012" class="node">
<title>Node12</title>
<g id="a_Node000012"><a xlink:href="../../dd/d78/class_copiable_tag.html" target="_top" xlink:title=" ">
<polygon fill="white" stroke="transparent" points="1105.65,-786 991.65,-786 991.65,-622 1105.65,-622 1105.65,-786"/>
<text text-anchor="start" x="1011.15" y="-773.2" font-family="Consolas" font-size="11.00">CopiableTag</text>
<text text-anchor="start" x="1045.15" y="-757.2" font-family="Consolas" font-size="11.00"> </text>
<text text-anchor="start" x="995.65" y="-741.2" font-family="Consolas" font-size="11.00">+</text>
<text text-anchor="start" x="1006.65" y="-741.2" font-family="Consolas" font-size="11.00">CopiableTag()</text>
<text text-anchor="start" x="995.65" y="-725.2" font-family="Consolas" font-size="11.00">+</text>
<text text-anchor="start" x="1006.65" y="-725.2" font-family="Consolas" font-size="11.00">CopiableTag()</text>
<text text-anchor="start" x="995.65" y="-709.2" font-family="Consolas" font-size="11.00">+</text>
<text text-anchor="start" x="1006.65" y="-709.2" font-family="Consolas" font-size="11.00">operator=()</text>
<text text-anchor="start" x="995.65" y="-693.2" font-family="Consolas" font-size="11.00">+</text>
<text text-anchor="start" x="1006.65" y="-693.2" font-family="Consolas" font-size="11.00">operator=()</text>
<text text-anchor="start" x="995.65" y="-677.2" font-family="Consolas" font-size="11.00">+</text>
<text text-anchor="start" x="1006.65" y="-677.2" font-family="Consolas" font-size="11.00">~CopiableTag()</text>
<text text-anchor="start" x="995.65" y="-661.2" font-family="Consolas" font-size="11.00">+</text>
<text text-anchor="start" x="1006.65" y="-661.2" font-family="Consolas" font-size="11.00">Tag()</text>
<text text-anchor="start" x="995.65" y="-645.2" font-family="Consolas" font-size="11.00">+</text>
<text text-anchor="start" x="1006.65" y="-645.2" font-family="Consolas" font-size="11.00">Tag()</text>
<text text-anchor="start" x="995.65" y="-629.2" font-family="Consolas" font-size="11.00">+</text>
<text text-anchor="start" x="1006.65" y="-629.2" font-family="Consolas" font-size="11.00">Tag()</text>
<polygon fill="#666666" stroke="#666666" points="991.65,-768 991.65,-768 1105.65,-768 1105.65,-768 991.65,-768"/>
<polygon fill="#666666" stroke="#666666" points="991.65,-752 991.65,-752 1105.65,-752 1105.65,-752 991.65,-752"/>
<polygon fill="none" stroke="#666666" points="991.65,-622 991.65,-786 1105.65,-786 1105.65,-622 991.65,-622"/>
</a>
</g>
</g>
<!-- Node12&#45;&gt;Node5 -->
<g id="edge14_Node000005_Node000012" class="edge">
<title>Node12&#45;&gt;Node5</title>
<g id="a_edge14_Node000005_Node000012"><a xlink:title=" ">
<path fill="none" stroke="#63b8ff" d="M982.84,-660.87C907.13,-612.4 782.79,-532.8 701.32,-480.64"/>
<polygon fill="none" stroke="#63b8ff" points="981.07,-663.89 991.38,-666.33 984.84,-657.99 981.07,-663.89"/>
</a>
</g>
</g>
<!-- Node13 -->
<g id="Node000013" class="node">
<title>Node13</title>
<g id="a_Node000013"><a xlink:href="../../d0/d57/class_tag.html" target="_top" xlink:title="A base Tag class.">
<polygon fill="white" stroke="transparent" points="1293.15,-1230 1192.15,-1230 1192.15,-954 1293.15,-954 1293.15,-1230"/>
<text text-anchor="start" x="1232.65" y="-1217.2" font-family="Consolas" font-size="11.00">Tag</text>
<text text-anchor="start" x="1239.65" y="-1201.2" font-family="Consolas" font-size="11.00"> </text>
<text text-anchor="start" x="1196.65" y="-1185.2" font-family="Consolas" font-size="11.00">+</text>
<text text-anchor="start" x="1207.65" y="-1185.2" font-family="Consolas" font-size="11.00">Tag()</text>
<text text-anchor="start" x="1196.65" y="-1169.2" font-family="Consolas" font-size="11.00">+</text>
<text text-anchor="start" x="1207.65" y="-1169.2" font-family="Consolas" font-size="11.00">Tag()</text>
<text text-anchor="start" x="1196.65" y="-1153.2" font-family="Consolas" font-size="11.00">+</text>
<text text-anchor="start" x="1207.65" y="-1153.2" font-family="Consolas" font-size="11.00">Tag()</text>
<text text-anchor="start" x="1196.65" y="-1137.2" font-family="Consolas" font-size="11.00">+</text>
<text text-anchor="start" x="1207.65" y="-1137.2" font-family="Consolas" font-size="11.00">operator=()</text>
<text text-anchor="start" x="1196.65" y="-1121.2" font-family="Consolas" font-size="11.00">+</text>
<text text-anchor="start" x="1207.65" y="-1121.2" font-family="Consolas" font-size="11.00">operator=()</text>
<text text-anchor="start" x="1196.65" y="-1105.2" font-family="Consolas" font-size="11.00">+</text>
<text text-anchor="start" x="1207.65" y="-1105.2" font-family="Consolas" font-size="11.00">~Tag()</text>
<text text-anchor="start" x="1196.65" y="-1089.2" font-family="Consolas" font-size="11.00">+</text>
<text text-anchor="start" x="1207.65" y="-1089.2" font-family="Consolas" font-size="11.00">set_tag()</text>
<text text-anchor="start" x="1196.65" y="-1073.2" font-family="Consolas" font-size="11.00">+</text>
<text text-anchor="start" x="1207.65" y="-1073.2" font-family="Consolas" font-size="11.00">get_tag()</text>
<text text-anchor="start" x="1196.65" y="-1057.2" font-family="Consolas" font-size="11.00">+</text>
<text text-anchor="start" x="1207.65" y="-1057.2" font-family="Consolas" font-size="11.00">enable()</text>
<text text-anchor="start" x="1196.65" y="-1041.2" font-family="Consolas" font-size="11.00">+</text>
<text text-anchor="start" x="1207.65" y="-1041.2" font-family="Consolas" font-size="11.00">disable()</text>
<text text-anchor="start" x="1196.65" y="-1025.2" font-family="Consolas" font-size="11.00">+</text>
<text text-anchor="start" x="1207.65" y="-1025.2" font-family="Consolas" font-size="11.00">guard()</text>
<text text-anchor="start" x="1196.65" y="-1009.2" font-family="Consolas" font-size="11.00">+</text>
<text text-anchor="start" x="1207.65" y="-1009.2" font-family="Consolas" font-size="11.00">unguard()</text>
<text text-anchor="start" x="1196.65" y="-993.2" font-family="Consolas" font-size="11.00">+</text>
<text text-anchor="start" x="1207.65" y="-993.2" font-family="Consolas" font-size="11.00">is_active()</text>
<text text-anchor="start" x="1196.65" y="-977.2" font-family="Consolas" font-size="11.00">+</text>
<text text-anchor="start" x="1207.65" y="-977.2" font-family="Consolas" font-size="11.00">is_guarded()</text>
<text text-anchor="start" x="1196.65" y="-961.2" font-family="Consolas" font-size="11.00">+</text>
<text text-anchor="start" x="1207.65" y="-961.2" font-family="Consolas" font-size="11.00">print()</text>
<polygon fill="#666666" stroke="#666666" points="1192.65,-1212 1192.65,-1212 1293.65,-1212 1293.65,-1212 1192.65,-1212"/>
<polygon fill="#666666" stroke="#666666" points="1192.65,-1196 1192.65,-1196 1293.65,-1196 1293.65,-1196 1192.65,-1196"/>
<polygon fill="none" stroke="#666666" points="1192.15,-954 1192.15,-1230 1293.15,-1230 1293.15,-954 1192.15,-954"/>
</a>
</g>
</g>
<!-- Node13&#45;&gt;Node12 -->
<g id="edge15_Node000012_Node000013" class="edge">
<title>Node13&#45;&gt;Node12</title>
<g id="a_edge15_Node000012_Node000013"><a xlink:title=" ">
<path fill="none" stroke="#63b8ff" d="M1262.83,-943.68C1262.48,-896.04 1254.25,-844.98 1228.65,-804 1201.35,-760.29 1147.52,-734.38 1105.81,-720.11"/>
<polygon fill="none" stroke="#63b8ff" points="1259.33,-943.77 1262.78,-953.79 1266.33,-943.8 1259.33,-943.77"/>
</a>
</g>
</g>
</g>
</svg>

<g id="navigator" transform="translate(0 0)" fill="#404254">
  <rect fill="#f2f5e9" fill-opacity="0.5" stroke="#606060" stroke-width=".5" x="0" y="0" width="60" height="60"/>
  <use id="zoomplus" xlink:href="#zoomPlus" x="17" y="9" onmousedown="handleZoom(evt,'in')"/>
  <use id="zoomminus" xlink:href="#zoomMin" x="42" y="9" onmousedown="handleZoom(evt,'out')"/>
  <use id="reset" xlink:href="#resetDef" x="30" y="36" onmousedown="handleReset()"/>
   <use id="arrowup" xlink:href="#arrowUp" x="0" y="0" onmousedown="handlePan(0,-1)"/>
  <use id="arrowright" xlink:href="#arrowRight" x="0" y="0" onmousedown="handlePan(1,0)"/>
  <use id="arrowdown" xlink:href="#arrowDown" x="0" y="0" onmousedown="handlePan(0,1)"/>
  <use id="arrowleft" xlink:href="#arrowLeft" x="0" y="0" onmousedown="handlePan(-1,0)"/>
</g>
<svg viewBox="0 0 15 15" width="100%" height="30px" preserveAspectRatio="xMaxYMin meet">
 <g id="arrow_out" transform="scale(0.3 0.3)">
  <a xlink:href="class_isotropic_elastic3_d__coll__graph_org.svg" target="_base">
   <rect id="button" ry="5" rx="5" y="6" x="6" height="38" width="38"
        fill="#f2f5e9" fill-opacity="0.5" stroke="#606060" stroke-width="1.0"/>
   <path id="arrow"
     d="M 11.500037,31.436501 C 11.940474,20.09759 22.043105,11.32322 32.158766,21.979434 L 37.068811,17.246167 C 37.068811,17.246167 37.088388,32 37.088388,32 L 22.160133,31.978069 C 22.160133,31.978069 26.997745,27.140456 26.997745,27.140456 C 18.528582,18.264221 13.291696,25.230495 11.500037,31.436501 z"
     style="fill:#404040;"/>
  </a>
 </g>
</svg>

<style type='text/css'>
<![CDATA[
[data-mouse-over-selected='false'] { opacity: 0.7; }
[data-mouse-over-selected='true']  { opacity: 1.0; }
]]>
</style>
<script type="application/ecmascript"><![CDATA[
document.addEventListener('DOMContentLoaded', (event) => {
  highlightEdges();
  highlightAdjacentNodes();
});
]]></script>
</svg>
