<svg xmlns="http://www.w3.org/2000/svg" xmlns:xlink="http://www.w3.org/1999/xlink" width="632" height="134pt" viewBox="0 0 474 134"><svg xmlns="http://www.w3.org/2000/svg" xmlns:xlink="http://www.w3.org/1999/xlink" xml:space="preserve" id="main" onload="init(evt)"><style>.edge,.node,[data-mouse-over-selected=false]{opacity:.7}.edge.selected,.node.selected,[data-mouse-over-selected=true]{opacity:1}.edge:hover path{stroke:red}.edge:hover polygon{stroke:red;fill:red}</style><script xlink:href="../../svg.min.js" type="application/ecmascript"/><svg id="graph" class="graph"><g id="graph0" class="graph" transform="translate(4 130)"><title>C3D8I::initialize</title><g id="Node000001" class="node"><title>Node1</title><a id="a_Node000001">
<path fill="#999" stroke="#666" d="M131-76H0v20h131z"/>
<text x="65.5" y="-63.2" font-family="Consolas" font-size="11" text-anchor="middle">C3D8I::initialize</text>
</a></g><g id="Node000002" class="node"><title>Node2</title><a xlink:href="../../d8/d52/class_c3_d8_i.html#ab8818d6d3e3a8d0f782d08f09d3098d3" id="a_Node000002" target="_top">
<path fill="#fff" stroke="#666" d="M329-126H177v32h152z"/>
<text x="185" y="-113.2" font-family="Consolas" font-size="11">C3D8I::compute_shape</text>
<text x="253" y="-101.2" font-family="Consolas" font-size="11" text-anchor="middle">_function</text>
</a></g><g id="edge1_Node000001_Node000002" class="edge"><title>Node1-&gt;Node2</title><a id="a_edge1_Node000001_Node000002">
<path fill="none" stroke="#63b8ff" d="M109.06-76.09c19.38-4.6 42.94-10.19 65.3-15.49"/>
<path fill="#63b8ff" stroke="#63b8ff" d="m173.66-95.01 10.53 1.09-8.92 5.72z"/>
</a></g><g id="Node000004" class="node"><title>Node4</title><a xlink:href="../../d5/d50/class_element.html#a4d1dcdafc45a94952099d19d476e6486" id="a_Node000004" target="_top">
<path fill="#fff" stroke="#666" d="M302-76h-98v20h98z"/>
<text x="253" y="-63.2" font-family="Consolas" font-size="11" text-anchor="middle">Element::get</text>
</a></g><g id="edge3_Node000001_Node000004" class="edge"><title>Node1-&gt;Node4</title><a id="a_edge3_Node000001_Node000004">
<path fill="none" stroke="#63b8ff" d="M131.12-66h62.7"/>
<path fill="#63b8ff" stroke="#63b8ff" d="m193.98-69.5 10 3.5-10 3.5z"/>
</a></g><g id="Node000005" class="node"><title>Node5</title><a xlink:href="../../d5/d50/class_element.html#acd9484983e85bf9bfa1ad3d34246c19c" id="a_Node000005" target="_top">
<path fill="#fff" stroke="#666" d="M339-20H167V0h172z"/>
<text x="253" y="-7.2" font-family="Consolas" font-size="11" text-anchor="middle">Element::get_coordinate</text>
</a></g><g id="edge4_Node000001_Node000005" class="edge"><title>Node1-&gt;Node5</title><a id="a_edge4_Node000001_Node000005">
<path fill="none" stroke="#63b8ff" d="M99.66-55.99c30.51 9.21 75.93 22.92 109.23 32.98"/>
<path fill="#63b8ff" stroke="#63b8ff" d="m210.25-26.26 8.56 6.24-10.58.46z"/>
</a></g><g id="Node000003" class="node"><title>Node3</title><a xlink:href="../../d3/d55/namespaceshape.html#acc1a86225f2ce997aac60b5103acdca8" id="a_Node000003" target="_top">
<path fill="#fff" stroke="#666" d="M466-120h-91v20h91z"/>
<text x="420.5" y="-107.2" font-family="Consolas" font-size="11" text-anchor="middle">shape::cube</text>
</a></g><g id="edge2_Node000002_Node000003" class="edge"><title>Node2-&gt;Node3</title><a id="a_edge2_Node000002_Node000003">
<path fill="none" stroke="#63b8ff" d="M329-110h35.4"/>
<path fill="#63b8ff" stroke="#63b8ff" d="m364.58-113.5 10 3.5-10 3.5z"/>
</a></g><g id="edge5_Node000005_Node000005" class="edge"><title>Node5-&gt;Node5</title><a id="a_edge5_Node000005_Node000005">
<path fill="none" stroke="#63b8ff" d="M227.01-20.05C215.16-28.77 223.82-38 253-38c19.15 0 29.46 3.97 30.94 9.17"/>
<path fill="#63b8ff" stroke="#63b8ff" d="m286.95-27.04-7.96 6.99 1.86-10.43z"/>
</a></g></g></svg></svg><script type="application/ecmascript"><![CDATA[
document.addEventListener('DOMContentLoaded', (event) => {
  highlightEdges();
  highlightAdjacentNodes();
});
]]></script></svg>