<?xml version="1.0" encoding="UTF-8" standalone="no"?>
<!DOCTYPE svg PUBLIC "-//W3C//DTD SVG 1.1//EN"
 "http://www.w3.org/Graphics/SVG/1.1/DTD/svg11.dtd">
<!-- Generated by graphviz version 2.43.0 (0)
 -->
<!-- Title: Element/Utility/B2DC.h Pages: 1 -->
<svg width="1200pt" height="140pt"
 viewBox="0.00 0.00 1199.50 140.00" xmlns="http://www.w3.org/2000/svg" xmlns:xlink="http://www.w3.org/1999/xlink">
<g id="graph0" class="graph" transform="scale(1 1) rotate(0) translate(4 136)">
<title>Element/Utility/B2DC.h</title>
<!-- Node1 -->
<g id="Node000001" class="node">
<title>Node1</title>
<g id="a_Node000001"><a xlink:title=" ">
<polygon fill="#999999" stroke="#666666" points="661.5,-132 496.5,-132 496.5,-112 661.5,-112 661.5,-132"/>
<text text-anchor="middle" x="579" y="-119.2" font-family="Consolas" font-size="11.00">Element/Utility/B2DC.h</text>
</a>
</g>
</g>
<!-- Node2 -->
<g id="Node000002" class="node">
<title>Node2</title>
<g id="a_Node000002"><a xlink:href="../../dc/d62/_b21_8cpp.html" target="_top" xlink:title=" ">
<polygon fill="white" stroke="#666666" points="152,-76 0,-76 0,-56 152,-56 152,-76"/>
<text text-anchor="middle" x="76" y="-63.2" font-family="Consolas" font-size="11.00">Element/Beam/B21.cpp</text>
</a>
</g>
</g>
<!-- Node1&#45;&gt;Node2 -->
<g id="edge1_Node000001_Node000002" class="edge">
<title>Node1&#45;&gt;Node2</title>
<g id="a_edge1_Node000001_Node000002"><a xlink:title=" ">
<path fill="none" stroke="#63b8ff" d="M486.22,-111.04C390.13,-100.72 241.77,-84.8 152.27,-75.19"/>
<polygon fill="#63b8ff" stroke="#63b8ff" points="485.91,-114.53 496.22,-112.11 486.65,-107.57 485.91,-114.53"/>
</a>
</g>
</g>
<!-- Node3 -->
<g id="Node000003" class="node">
<title>Node3</title>
<g id="a_Node000003"><a xlink:href="../../dc/de8/_b21_h_8h.html" target="_top" xlink:title=" ">
<polygon fill="white" stroke="#666666" points="315.5,-76 170.5,-76 170.5,-56 315.5,-56 315.5,-76"/>
<text text-anchor="middle" x="243" y="-63.2" font-family="Consolas" font-size="11.00">Element/Beam/B21H.h</text>
</a>
</g>
</g>
<!-- Node1&#45;&gt;Node3 -->
<g id="edge2_Node000001_Node000003" class="edge">
<title>Node1&#45;&gt;Node3</title>
<g id="a_edge2_Node000001_Node000003"><a xlink:title=" ">
<path fill="none" stroke="#63b8ff" d="M512.63,-110.33C450.26,-100.31 357.95,-85.47 299.14,-76.02"/>
<polygon fill="#63b8ff" stroke="#63b8ff" points="512.33,-113.83 522.76,-111.96 513.44,-106.92 512.33,-113.83"/>
</a>
</g>
</g>
<!-- Node5 -->
<g id="Node000005" class="node">
<title>Node5</title>
<g id="a_Node000005"><a xlink:href="../../db/da7/_e_b21_8cpp.html" target="_top" xlink:title=" ">
<polygon fill="white" stroke="#666666" points="492,-76 334,-76 334,-56 492,-56 492,-76"/>
<text text-anchor="middle" x="413" y="-63.2" font-family="Consolas" font-size="11.00">Element/Beam/EB21.cpp</text>
</a>
</g>
</g>
<!-- Node1&#45;&gt;Node5 -->
<g id="edge4_Node000001_Node000005" class="edge">
<title>Node1&#45;&gt;Node5</title>
<g id="a_edge4_Node000001_Node000005"><a xlink:title=" ">
<path fill="none" stroke="#63b8ff" d="M541.35,-108.75C510.8,-98.82 468.44,-85.03 440.88,-76.07"/>
<polygon fill="#63b8ff" stroke="#63b8ff" points="540.62,-112.2 551.22,-111.96 542.79,-105.54 540.62,-112.2"/>
</a>
</g>
</g>
<!-- Node6 -->
<g id="Node000006" class="node">
<title>Node6</title>
<g id="a_Node000006"><a xlink:href="../../d5/d67/_f21_8h.html" target="_top" xlink:title=" ">
<polygon fill="white" stroke="#666666" points="648,-76 510,-76 510,-56 648,-56 648,-76"/>
<text text-anchor="middle" x="579" y="-63.2" font-family="Consolas" font-size="11.00">Element/Beam/F21.h</text>
</a>
</g>
</g>
<!-- Node1&#45;&gt;Node6 -->
<g id="edge5_Node000001_Node000006" class="edge">
<title>Node1&#45;&gt;Node6</title>
<g id="a_edge5_Node000001_Node000006"><a xlink:title=" ">
<path fill="none" stroke="#63b8ff" d="M579,-101.58C579,-92.97 579,-83.24 579,-76.3"/>
<polygon fill="#63b8ff" stroke="#63b8ff" points="575.5,-101.59 579,-111.59 582.5,-101.59 575.5,-101.59"/>
</a>
</g>
</g>
<!-- Node8 -->
<g id="Node000008" class="node">
<title>Node8</title>
<g id="a_Node000008"><a xlink:href="../../d3/dfb/_f21_h_8h.html" target="_top" xlink:title=" ">
<polygon fill="white" stroke="#666666" points="811.5,-76 666.5,-76 666.5,-56 811.5,-56 811.5,-76"/>
<text text-anchor="middle" x="739" y="-63.2" font-family="Consolas" font-size="11.00">Element/Beam/F21H.h</text>
</a>
</g>
</g>
<!-- Node1&#45;&gt;Node8 -->
<g id="edge7_Node000001_Node000008" class="edge">
<title>Node1&#45;&gt;Node8</title>
<g id="a_edge7_Node000001_Node000008"><a xlink:title=" ">
<path fill="none" stroke="#63b8ff" d="M615.29,-108.75C644.73,-98.82 685.57,-85.03 712.13,-76.07"/>
<polygon fill="#63b8ff" stroke="#63b8ff" points="614.14,-105.45 605.78,-111.96 616.37,-112.08 614.14,-105.45"/>
</a>
</g>
</g>
<!-- Node10 -->
<g id="Node000010" class="node">
<title>Node10</title>
<g id="a_Node000010"><a xlink:href="../../d4/dfd/_n_m_b21_8cpp.html" target="_top" xlink:title=" ">
<polygon fill="white" stroke="#666666" points="994.5,-76 829.5,-76 829.5,-56 994.5,-56 994.5,-76"/>
<text text-anchor="middle" x="912" y="-63.2" font-family="Consolas" font-size="11.00">Element/Beam/NMB21.cpp</text>
</a>
</g>
</g>
<!-- Node1&#45;&gt;Node10 -->
<g id="edge9_Node000001_Node000010" class="edge">
<title>Node1&#45;&gt;Node10</title>
<g id="a_edge9_Node000001_Node000010"><a xlink:title=" ">
<path fill="none" stroke="#63b8ff" d="M644.77,-110.33C706.59,-100.31 798.08,-85.47 856.36,-76.02"/>
<polygon fill="#63b8ff" stroke="#63b8ff" points="644.05,-106.91 634.74,-111.96 645.17,-113.82 644.05,-106.91"/>
</a>
</g>
</g>
<!-- Node11 -->
<g id="Node000011" class="node">
<title>Node11</title>
<g id="a_Node000011"><a xlink:href="../../df/d7e/_b2_d_c_8cpp.html" target="_top" xlink:title=" ">
<polygon fill="white" stroke="#666666" points="1191.5,-76 1012.5,-76 1012.5,-56 1191.5,-56 1191.5,-76"/>
<text text-anchor="middle" x="1102" y="-63.2" font-family="Consolas" font-size="11.00">Element/Utility/B2DC.cpp</text>
</a>
</g>
</g>
<!-- Node1&#45;&gt;Node11 -->
<g id="edge10_Node000001_Node000011" class="edge">
<title>Node1&#45;&gt;Node11</title>
<g id="a_edge10_Node000001_Node000011"><a xlink:title=" ">
<path fill="none" stroke="#63b8ff" d="M671.67,-111.43C768.63,-101.42 919.68,-85.82 1014.62,-76.02"/>
<polygon fill="#63b8ff" stroke="#63b8ff" points="671.17,-107.96 661.58,-112.47 671.89,-114.93 671.17,-107.96"/>
</a>
</g>
</g>
<!-- Node4 -->
<g id="Node000004" class="node">
<title>Node4</title>
<g id="a_Node000004"><a xlink:href="../../d7/d42/_b21_h_8cpp.html" target="_top" xlink:title=" ">
<polygon fill="white" stroke="#666666" points="322,-20 164,-20 164,0 322,0 322,-20"/>
<text text-anchor="middle" x="243" y="-7.2" font-family="Consolas" font-size="11.00">Element/Beam/B21H.cpp</text>
</a>
</g>
</g>
<!-- Node3&#45;&gt;Node4 -->
<g id="edge3_Node000003_Node000004" class="edge">
<title>Node3&#45;&gt;Node4</title>
<g id="a_edge3_Node000003_Node000004"><a xlink:title=" ">
<path fill="none" stroke="#63b8ff" d="M243,-45.58C243,-36.97 243,-27.24 243,-20.3"/>
<polygon fill="#63b8ff" stroke="#63b8ff" points="239.5,-45.59 243,-55.59 246.5,-45.59 239.5,-45.59"/>
</a>
</g>
</g>
<!-- Node7 -->
<g id="Node000007" class="node">
<title>Node7</title>
<g id="a_Node000007"><a xlink:href="../../dd/d55/_f21_8cpp.html" target="_top" xlink:title=" ">
<polygon fill="white" stroke="#666666" points="648,-20 496,-20 496,0 648,0 648,-20"/>
<text text-anchor="middle" x="572" y="-7.2" font-family="Consolas" font-size="11.00">Element/Beam/F21.cpp</text>
</a>
</g>
</g>
<!-- Node6&#45;&gt;Node7 -->
<g id="edge6_Node000006_Node000007" class="edge">
<title>Node6&#45;&gt;Node7</title>
<g id="a_edge6_Node000006_Node000007"><a xlink:title=" ">
<path fill="none" stroke="#63b8ff" d="M576.48,-45.58C575.37,-36.97 574.1,-27.24 573.21,-20.3"/>
<polygon fill="#63b8ff" stroke="#63b8ff" points="573.02,-46.13 577.78,-55.59 579.97,-45.23 573.02,-46.13"/>
</a>
</g>
</g>
<!-- Node9 -->
<g id="Node000009" class="node">
<title>Node9</title>
<g id="a_Node000009"><a xlink:href="../../d9/ded/_f21_h_8cpp.html" target="_top" xlink:title=" ">
<polygon fill="white" stroke="#666666" points="824,-20 666,-20 666,0 824,0 824,-20"/>
<text text-anchor="middle" x="745" y="-7.2" font-family="Consolas" font-size="11.00">Element/Beam/F21H.cpp</text>
</a>
</g>
</g>
<!-- Node8&#45;&gt;Node9 -->
<g id="edge8_Node000008_Node000009" class="edge">
<title>Node8&#45;&gt;Node9</title>
<g id="a_edge8_Node000008_Node000009"><a xlink:title=" ">
<path fill="none" stroke="#63b8ff" d="M741.16,-45.58C742.11,-36.97 743.2,-27.24 743.97,-20.3"/>
<polygon fill="#63b8ff" stroke="#63b8ff" points="737.67,-45.27 740.05,-55.59 744.63,-46.04 737.67,-45.27"/>
</a>
</g>
</g>
</g>
</svg>
